<svg xmlns="http://www.w3.org/2000/svg" fill="none" viewBox="0 0 24 24"><path stroke="currentColor" stroke-linecap="round" stroke-linejoin="round" stroke-miterlimit="10" stroke-width="1.5" d="M18 18.86h-.76c-.8 0-1.56.31-2.12.87l-1.71 1.69c-.78.77-2.05.77-2.83 0l-1.71-1.69a3 3 0 0 0-2.12-.87H6c-1.66 0-3-1.33-3-2.97V4.98a3 3 0 0 1 3-2.97h12c1.66 0 3 1.33 3 2.97v10.91a3 3 0 0 1-3 2.97"/><path stroke="currentColor" stroke-linecap="round" stroke-linejoin="round" stroke-width="1.5" d="M7 9.16c0-.93.76-1.69 1.69-1.69s1.69.76 1.69 1.69c0 1.88-2.67 2.08-3.26 3.87-.12.37.19.74.58.74h2.68m5.66-.01V8.05a.6.6 0 0 0-.42-.56.6.6 0 0 0-.66.25c-.72 1.16-1.5 2.48-2.18 3.64a.6.6 0 0 0 0 .63c.11.19.32.31.55.31H17"/></svg>
