<svg xmlns="http://www.w3.org/2000/svg" viewBox="-50.73 0 311.02 311.02"><defs><style>.a{fill:#3f88c9}.b{fill:#211715}.c{fill:#fff}</style></defs><path d="M36.35 172.1a51 51 0 0 1 10.18-6c8.48-3.46 20.14-7.42 27.84-10.94 6.83 5.35 18.22 9.59 30.21 9.59 13.13 0 23.97-3.19 31.02-9.42 7.69 3.47 19.13 7.36 27.48 10.77 6.5 2.93 10.33 5.88 15.25 10.16a61 61 0 0 1 11.6 14.21 68 68 0 0 1 7.35 18.07 327 327 0 0 1 9.88 67.65c.42 11.5-2.1 24.7-12.13 30.31-4.58 2.57-10.13 2.67-15.21 1.14l-150.1.02c-5.06 1.5-10.58 1.4-15.14-1.16-10.03-5.6-12.55-18.8-12.13-30.3a327 327 0 0 1 9.88-67.65 68 68 0 0 1 7.36-18.08 61 61 0 0 1 11.6-14.2 95 95 0 0 1 5.06-4.18m12.52-89.27c-.09 13.4-1.66 20.93-.65 26.64 2.63 14.83 12.17 20 22.7 22.01h69.12c10.52-2.01 20.06-7.18 22.69-22.01 1-5.7-1.43-15.11-1.51-28.52Z" class="a"/><path d="M46.47 82.83c-.04 5.2-.35 10.38-.7 15.56a55 55 0 0 0-.1 10.1c1.03 8.52 5.28 16.5 12.74 21.01a36 36 0 0 0 11.86 4.3 2.46 2.46 0 0 0 2.96-1.68 2.4 2.4 0 0 0-1.68-2.95c-6.62-1.28-13.03-3.87-16.92-9.6a27 27 0 0 1-4.2-11.38c.07.48-.02-.3-.03-.47q-.05-.51-.08-1.04-.04-1.17-.03-2.34.05-2.58.23-5.14c.35-5.46.7-10.9.75-16.37.02-3.09-4.78-3.1-4.8 0m112.35-1.88c.04 5.2.46 10.38 1 15.55a72 72 0 0 1 .72 10.95 8 8 0 0 1-.2 1.78 35 35 0 0 1-.8 3.4 25 25 0 0 1-2.38 5.6 20 20 0 0 1-7.04 7.13 32 32 0 0 1-10.72 3.8 2.4 2.4 0 0 0-1.67 2.96 2.45 2.45 0 0 0 2.95 1.68c7.7-1.5 14.9-4.9 19.53-11.44a30 30 0 0 0 4.87-12.47c.58-3.62.17-7.3-.2-10.94a193 193 0 0 1-1.25-18c-.03-3.08-4.83-3.1-4.8 0Z" class="b"/><path d="M50.95 25.58a28 28 0 0 0-8.17 8.9c-3.09 5.85-2.87 12.9-2.25 19.51.85 9.04 2.52 18.5 8.5 25.32a7 7 0 0 1 1.86-.55 7.2 7.2 0 0 1 5.77 1.7l5.04-18.07c10.26-2.34 25.2-4.58 35.4-4.88 4.82-.14 9.65-.04 14.47.05a196 196 0 0 1 36.78 4.12l5.35 19.16a7.1 7.1 0 0 1 6.15-2.08 7 7 0 0 1 1.3.33c5.82-6.8 7.46-16.15 8.3-25.1.63-6.61.85-13.66-2.24-19.5-2.76-5.24-7.76-8.75-12.6-12.03q-7.81-5.28-15.7-10.43a68 68 0 0 0-9.32-5.4c-7.68-3.42-16.84-4.23-24.6-4.23-7.27 0-16.92.8-24.59 4.23a68 68 0 0 0-9.31 5.39q-7.9 5.15-15.7 10.43-2.25 1.5-4.44 3.13" class="a"/><path d="M76.26 59.65a180 180 0 0 1 20.85-2.14c4.81-.14 9.64-.05 14.46.05a196 196 0 0 1 36.78 4.12l5.35 19.15a7.1 7.1 0 0 1 6.15-2.07 6.8 6.8 0 0 1 4.88 3.24 10 10 0 0 1 1 3.86 29 29 0 0 1-2.93 15.26 18 18 0 0 1-4.73 6.2 5.6 5.6 0 0 1-6.26 1.04c-.77 2.3-1.77 4.37-2.1 5.38-1.68 4.56-11.3 21.06-23.26 26.41q.26 2.73.74 5.44c.57 3.26.39 6.17 4.91 7.8.1.04 1.68.77 3.71 1.74-7.04 6.36-17.97 9.61-31.23 9.61-11.73 0-22.9-4.05-29.78-9.25l4.57-2.1c4.52-1.63 4.34-4.54 4.9-7.8.32-1.76.57-3.4.73-5.1a47 47 0 0 1-15.14-12.38 57 57 0 0 1-10.36-18.98l-.61.17c-2.63.7-4.63-.7-6.23-1.97a18 18 0 0 1-4.73-6.2A29 29 0 0 1 45 85.86 10 10 0 0 1 46 82a6.8 6.8 0 0 1 4.88-3.25 7.2 7.2 0 0 1 5.77 1.7l5.05-18.07c4.27-.97 9.35-1.92 14.56-2.73" class="c"/><path d="M82.77 138.54a61 61 0 0 1-.77 6.2 36 36 0 0 1-.67 3.77c-.04.15-.31.85-.15.48a5 5 0 0 1-.38.7c-.21.32.2-.23-.06.07l-.25.27a2 2 0 0 1-.7.53 23 23 0 0 1-2.06.95c-3.58 1.63-7.14 3.31-10.72 4.96l-2.78 1.27-.99.44c-.61.27.55-.2 0 0a2.46 2.46 0 0 0-1.67 2.95 2.4 2.4 0 0 0 2.95 1.67c1.43-.5 2.8-1.22 4.18-1.85q3.3-1.51 6.59-3.04l4.86-2.26a2 2 0 0 0 .4-.17c-.02.01-.91.36-.38.16q.39-.14.78-.32a10 10 0 0 0 1.4-.7 8 8 0 0 0 3.31-3.98 20 20 0 0 0 .89-4.15 84 84 0 0 0 1.01-7.95 2.4 2.4 0 1 0-4.8 0Zm41.08-1.2a84 84 0 0 0 1.44 11.5 8.8 8.8 0 0 0 5.83 6.74c.91.36-.61-.31.03 0l.72.34 2.27 1.07 6.14 2.9c1.4.66 2.78 1.37 4.2 1.97a2.5 2.5 0 0 0 3.28-.86 2.4 2.4 0 0 0-.86-3.28c-3.01-1.29-5.95-2.8-8.9-4.2q-2.15-1.04-4.32-2.04a17 17 0 0 1-2.18-1.03 3 3 0 0 1-1.34-1.86 36 36 0 0 1-.77-4.28 62 62 0 0 1-.74-6.97 2.45 2.45 0 0 0-2.4-2.4 2.4 2.4 0 0 0-2.4 2.4" class="b"/><path d="M148.17 77.09c-12.72-1.6-28.15-3.18-42.94-3.15-16 .03-29.76 1.36-47.79 3.7l2.18-7.8c16.97-2.17 30.25-3.39 45.61-3.42 15.77-.03 32.26 1.78 45.41 3.47l2.18 7.8z" style="fill:#a0a0a0"/><path d="M59.94 65.27a196 196 0 0 1 31.92-5.07c6.23-.47 12.47-.38 18.7-.26q9.63.17 19.2 1.18a166 166 0 0 1 21.15 3.61c3 .72 4.29-3.9 1.28-4.63a189 189 0 0 0-38.85-4.9 218 218 0 0 0-19.66.08c-5.7.35-11.38 1.06-17.03 1.9a197 197 0 0 0-18 3.46c-3 .74-1.72 5.37 1.28 4.63Z" class="b"/><path d="M50.19 76.99c-4.27-5.56-6-12.47-6.86-19.31-.86-6.88-1.9-14.96 1.24-21.42 3.13-6.44 9.8-10.25 15.52-14.09q5.36-3.6 10.75-7.12A78 78 0 0 1 81.61 8.7c6.35-2.82 13.58-3.65 20.46-3.86a71 71 0 0 1 21.2 2.08c7.88 2.19 14.53 7.2 21.25 11.66q5.2 3.44 10.35 6.95a41 41 0 0 1 7.8 6.56c4.91 5.6 5.1 13.13 4.53 20.2-.55 6.85-1.45 14.08-4.61 20.27a29 29 0 0 1-2.8 4.42 2.4 2.4 0 0 0 .87 3.28 2.46 2.46 0 0 0 3.28-.86c4.74-6.18 6.52-13.94 7.48-21.52.99-7.7 1.68-15.99-1.5-23.29-3.18-7.26-10.27-11.63-16.58-15.88q-5.66-3.8-11.37-7.54a80 80 0 0 0-11.37-6.7C123.25 1.24 115.17.19 107.2.03a75 75 0 0 0-22.4 2.46c-8.27 2.4-15.3 7.66-22.38 12.37-3.65 2.42-7.32 4.82-10.89 7.34a40 40 0 0 0-8.37 7.42c-5.19 6.52-5.82 14.64-5.18 22.67.61 7.62 1.67 15.42 5.09 22.34a29 29 0 0 0 2.97 4.78 2.5 2.5 0 0 0 3.29.86 2.4 2.4 0 0 0 .86-3.29Zm19.28 76.91a36 36 0 0 0 11.25 7.9 56 56 0 0 0 16.11 4.77c10.52 1.46 21.96.38 31.72-3.95a32 32 0 0 0 11.74-8.72 2.47 2.47 0 0 0 0-3.4 2.4 2.4 0 0 0-3.39 0c-5.42 6.6-13.58 9.73-21.8 11.08a55.6 55.6 0 0 1-30.54-3.28 33 33 0 0 1-11.7-7.79c-2.08-2.29-5.47 1.11-3.4 3.4Zm80.84-49.27a24 24 0 0 1-1.85 5.85l-.85 2.05-.25.68-.09.23c-.15.44.18-.41.06-.14a52 52 0 0 1-3.18 5.92 59 59 0 0 1-12.74 15.03 23.5 23.5 0 0 1-9.44 4.89c-3.01.7-1.74 5.32 1.27 4.63 7.26-1.68 13.3-6.99 18.03-12.5a65 65 0 0 0 10.06-15.21c1.63-3.64 3.25-7.46 3.78-11.43a2.4 2.4 0 0 0-2.4-2.4 2.46 2.46 0 0 0-2.4 2.4m-94.86-1.7c2.9 15.26 12.12 30.1 25.6 38.15a34 34 0 0 0 12.26 4.52 2.5 2.5 0 0 0 2.95-1.68 2.4 2.4 0 0 0-1.67-2.95c-7.26-1.08-13.59-4.95-18.8-10A54 54 0 0 1 62.9 111.6a58 58 0 0 1-2.83-9.94 2.4 2.4 0 0 0-2.95-1.68 2.45 2.45 0 0 0-1.68 2.95Z" class="b"/><path d="M155.8 82.14a4.7 4.7 0 0 1 6.65.7 7.5 7.5 0 0 1 .95 3.92 26 26 0 0 1-3.76 15.12c-1.34 2.16-3.59 5.2-6.46 4.43-2.98-.81-4.26 3.82-1.27 4.63 7.7 2.1 12.74-6.87 14.76-12.94a31 31 0 0 0 1.52-11.46c-.23-3.62-1.3-7-4.57-8.94a9.7 9.7 0 0 0-11.22 1.14 2.4 2.4 0 0 0 0 3.4 2.45 2.45 0 0 0 3.4 0m-97.46-3.4a9.7 9.7 0 0 0-10.13-1.67c-3.56 1.52-5.17 4.7-5.58 8.4a29.6 29.6 0 0 0 6.26 21.5c2.62 3.14 6.43 5.6 10.64 4.64 3.01-.69 1.74-5.32-1.28-4.63-2.76.63-5.48-2.55-6.82-4.58a26 26 0 0 1-3.79-9.82 26 26 0 0 1-.33-5.38 8 8 0 0 1 .94-4.29 4.7 4.7 0 0 1 6.7-.78 2.46 2.46 0 0 0 3.4 0 2.4 2.4 0 0 0 0-3.4Zm22.51 5.52c-.75 2.44-.26 8.07 4.38 8.55 6.12-.04 6.45-6.84 4.39-10.04-1.7-2.62-6.66-3.71-8.77 1.49m51 0c.76 2.44.27 8.07-4.37 8.55-6.13-.04-6.45-6.84-4.4-10.04 1.7-2.62 6.66-3.71 8.77 1.49m4.72 74.1c7.8 3.3 15.83 6.07 23.71 9.19a55 55 0 0 1 19.2 13.13 61 61 0 0 1 13.23 21.19 111 111 0 0 1 3.71 13.27q1.63 6.94 2.96 13.94 2.66 14 4.08 28.2.7 7.1 1.09 14.2a89 89 0 0 1 .07 11.74c-.5 6.46-2.27 13.46-6.92 18.23-5.4 5.55-13.58 5.95-20.35 2.7a46.6 46.6 0 0 1-18.3-15.98 106 106 0 0 1-11.92-23.39q-1.1-3.03-2.08-6.12c-.93-2.94-5.57-1.68-4.63 1.28a121 121 0 0 0 11.06 25.29 75 75 0 0 0 8.29 11.74 49 49 0 0 0 9.85 8.25 34 34 0 0 0 11.88 5.31 22 22 0 0 0 13-1.12c7.07-3.02 11.4-9.87 13.39-17.04 2.23-8.05 1.77-16.42 1.23-24.66a329 329 0 0 0-3.4-30.02q-2.34-14.79-6-29.33a69 69 0 0 0-11.29-24.46 65 65 0 0 0-18.94-17.21 81 81 0 0 0-12.16-5.4c-4.24-1.62-8.5-3.18-12.73-4.83q-2.82-1.08-5.6-2.25a2.5 2.5 0 0 0-3.28.86 2.4 2.4 0 0 0 .86 3.28Z" class="b"/><path d="M109.16 95.7a94 94 0 0 0-7.08-.02l-32.92 6.83c-.4 2.13-.12 4.73-.28 6.44a64 64 0 0 0 .35 11.99c.55 5.28.82 10.89 4.43 15.01 6.68 7.6 22.16 11.65 32.33 11.65a61 61 0 0 0 19.9-3.61c5.55-1.99 10.73-5.32 13.63-10.12 2.74-4.52 2.63-9.05 3.22-14.2a54 54 0 0 0 .2-10.92c-.17-1.75.1-4.27-.37-6.34Z" class="c"/><path d="M66.84 101.88c-.41 2.5-.21 5-.4 7.5a54 54 0 0 0 .07 7.97c.34 4.68.54 9.73 2.04 14.21 2.86 8.6 11.76 12.98 19.85 15.55a58 58 0 0 0 26.8 2.1c9.58-1.54 20.35-5 26-13.5 3.2-4.81 3.34-10.48 3.94-16.04a58 58 0 0 0 .34-9.22 60 60 0 0 0-.6-8.67 2.4 2.4 0 1 0-4.63 1.27c.43 2.12.2 4.39.37 6.54a51 51 0 0 1-.04 7.51c-.18 2.38-.44 4.76-.69 7.14a23 23 0 0 1-1.38 6.35c-3.33 8.27-13.1 11.58-21.05 13.31a52.4 52.4 0 0 1-24.47-.47 48 48 0 0 1-10.94-4.11c-3.04-1.64-6.16-3.74-7.9-6.81-2.24-3.97-2.32-9.06-2.7-13.5a63 63 0 0 1-.3-8.31c.06-1.2.18-2.37.18-3.57a24 24 0 0 1 .14-3.98 2.47 2.47 0 0 0-1.68-2.95 2.4 2.4 0 0 0-2.95 1.67m35.24-3.8q3.53-.14 7.08.02a2.4 2.4 0 0 0 2.4-2.4 2.45 2.45 0 0 0-2.4-2.4q-3.55-.16-7.08-.02a2.4 2.4 0 0 0 0 4.8M58.04 79.96c12.25-1.58 24.54-2.94 36.9-3.41a285 285 0 0 1 38.1 1.25c6.66.64 13.29 1.44 19.92 2.3a2.4 2.4 0 0 0 2.4-2.4 2.46 2.46 0 0 0-2.4-2.4c-12.38-1.62-24.8-3-37.27-3.54a275 275 0 0 0-36.31 1c-7.13.64-14.24 1.5-21.34 2.4a2.5 2.5 0 0 0-2.4 2.4 2.4 2.4 0 0 0 2.4 2.4" class="b"/><path d="M58.04 72.45c12.25-1.58 24.54-2.94 36.9-3.42a285 285 0 0 1 38.1 1.25c6.66.64 13.3 1.44 19.92 2.3a2.4 2.4 0 0 0 2.4-2.4 2.46 2.46 0 0 0-2.4-2.4c-12.37-1.62-24.8-3-37.27-3.54a275 275 0 0 0-36.3 1 564 564 0 0 0-21.35 2.4 2.5 2.5 0 0 0-2.4 2.4 2.4 2.4 0 0 0 2.4 2.4Zm-5.45 6.56 5.67.85a2.6 2.6 0 0 0 1.85-.24 2.4 2.4 0 0 0 .86-3.28 2.3 2.3 0 0 0-1.43-1.1l-5.67-.86a2.6 2.6 0 0 0-1.85.24 2.4 2.4 0 0 0-.86 3.29 2.3 2.3 0 0 0 1.43 1.1" class="b"/><path d="m52.6 71.73 5.66.86a2.6 2.6 0 0 0 1.85-.25 2.4 2.4 0 0 0 .86-3.28 2.3 2.3 0 0 0-1.43-1.1l-5.67-.86a2.6 2.6 0 0 0-1.85.24 2.4 2.4 0 0 0-.86 3.29 2.3 2.3 0 0 0 1.43 1.1Zm104.84 2.9-5.66.9a2.4 2.4 0 0 0-1.44 1.1 2.4 2.4 0 0 0 .86 3.3l.58.23a2.4 2.4 0 0 0 1.27 0l5.66-.9a2.4 2.4 0 0 0 1.44-1.1 2.5 2.5 0 0 0 .24-1.85 2.4 2.4 0 0 0-1.1-1.44l-.57-.24a2.4 2.4 0 0 0-1.28 0m0-7.55-5.66.9a2.4 2.4 0 0 0-1.44 1.1 2.4 2.4 0 0 0 .86 3.28l.58.25a2.4 2.4 0 0 0 1.27 0l5.66-.91a2.4 2.4 0 0 0 1.44-1.1 2.4 2.4 0 0 0-.86-3.28l-.58-.24a2.4 2.4 0 0 0-1.27 0m-55.1 111.78a23 23 0 0 0 4.93 0 2.7 2.7 0 0 0 1.7-.7 2.4 2.4 0 0 0 0-3.4 2.3 2.3 0 0 0-1.7-.7 23 23 0 0 1-4.94 0 2.4 2.4 0 0 0-1.7.7 2.4 2.4 0 0 0 0 3.4l.49.38a2.4 2.4 0 0 0 1.21.33Z" class="b"/><path d="M123.93 155.14a7 7 0 0 1 1.1.9c-.82-3.25-.76-6.84 3.02-8.13a4.7 4.7 0 0 1 5.85 2.25l1.3 2.63.45.93a4.56 4.56 0 0 1 2.93-5.1c3.38-1.17 5.9.74 7.74 4.6 1.06 2.2 2.64 6.2 4.7 11.31a190 190 0 0 0 7.9 16.83c.96-3.45.97-7.62 1.7-11.25a11.3 11.3 0 0 1 2.1-5.35 4.35 4.35 0 0 1 5.17-.88 4.8 4.8 0 0 1 2.42 3.1 121 121 0 0 1 .81 32.27c-.27 2.78-1.43 5.4-2.43 8.01-.48 1.25-.95 2.03-.71 3.3a16 16 0 0 0 1.7 4.13c2.84 5.44 6.63 11.28 10.05 17.39-13.3 8.82-26.29 13.93-37.75 18.38-1.87.72-1.85-.12-2.47-2.04-2.77-8.65-2.08-22.95-3.03-26.02-.88-2.87-6.29-9.82-7.5-11.65a102 102 0 0 1-6.86-12.24c-2.12-4.59-6.54-14.16-7.83-18.5a7 7 0 0 1 .22-5.27 4.5 4.5 0 0 1 2.17-2.17 4.5 4.5 0 0 1 3.62.06l.54.16c-1.28-3.76-2.46-7.47-3.55-10.83-.27-.83-.92-5.21 2.52-6.9a3.9 3.9 0 0 1 4.12.07" class="c"/><path d="M161.58 180.58c.57-2.97.69-5.99 1.2-8.96.27-1.6.57-5.16 2.48-5.73a2.1 2.1 0 0 1 2.13.59c.84.88.8 2.31.97 3.46q.63 4.5.88 9.04a129 129 0 0 1-.33 18.32 30 30 0 0 1-2.21 8.5 13 13 0 0 0-1.15 3.62 9 9 0 0 0 1.06 4.47c2.7 6.04 6.56 11.6 9.86 17.3 1.55 2.68 5.7.27 4.15-2.41-3.21-5.55-6.84-10.94-9.6-16.74a3.6 3.6 0 0 1-.4-3.19c.58-1.49 1.2-2.96 1.73-4.47a37 37 0 0 0 1.57-9.97 122 122 0 0 0-.24-20.04q-.24-2.4-.57-4.79a15 15 0 0 0-1.06-4.77 7.1 7.1 0 0 0-7.74-3.63c-3.5.74-5.1 4.16-5.8 7.34-.8 3.56-.87 7.21-1.56 10.78a2.46 2.46 0 0 0 1.67 2.95 2.4 2.4 0 0 0 2.96-1.67" class="b"/><path d="M161 180.16a185 185 0 0 1-7.3-15.37c-1.09-2.65-2.13-5.32-3.22-7.97a51 51 0 0 0-2.64-5.88 9.8 9.8 0 0 0-5.34-4.76 7.5 7.5 0 0 0-6.79 1.39 7 7 0 0 0-2.35 6.95 36 36 0 0 0 1.44 4.16q.78 2.2 1.58 4.37a293 293 0 0 0 6.94 17.53 2.4 2.4 0 0 0 3.28.86 2.46 2.46 0 0 0 .86-3.28q-2.88-6.65-5.38-13.44-1.3-3.54-2.57-7.1c-.46-1.25-.96-2.5-1.35-3.78a2.3 2.3 0 0 1 .21-2.17 2.56 2.56 0 0 1 3.12-.77c1.3.58 2.3 2.55 2.96 3.94 1.84 3.96 3.3 8.08 5 12.1a201 201 0 0 0 7.4 15.64c1.44 2.73 5.59.3 4.15-2.43Z" class="b"/><path d="M137.78 181.82a147 147 0 0 1-6.72-16.07q-1.51-3.87-2.9-7.79a21 21 0 0 1-1.09-3.87 14 14 0 0 1-.06-1.62 3 3 0 0 1 .45-1.38 2.76 2.76 0 0 1 3.74-.55c.93.78 1.4 2.39 1.93 3.46a2.4 2.4 0 0 0 3.28.86 2.45 2.45 0 0 0 .86-3.28 18 18 0 0 0-2.22-3.96 7.1 7.1 0 0 0-6.72-2.25c-4.61.82-6.56 5.06-5.98 9.35.42 3.09 1.7 6.03 2.8 8.93q2 5.34 4.13 10.63a109 109 0 0 0 4.35 9.96c1.44 2.74 5.58.31 4.15-2.42" class="b"/><path d="M128.46 186.08a207 207 0 0 1-7.47-20.47c-.47-1.44-1.04-2.89-1.41-4.36l-.1-.42c-.02-.1.03.5 0-.05a9 9 0 0 1 .01-1.45c-.04.4.25-.94.19-.78a2.3 2.3 0 0 1 .78-1.1 2 2 0 0 1 2.76.12 2.4 2.4 0 0 0 3.28-.87 2.46 2.46 0 0 0-.86-3.28 6.87 6.87 0 0 0-9.99 2.46 10 10 0 0 0-.3 7.87 247 247 0 0 0 8.97 24.76 2.4 2.4 0 0 0 3.28.86 2.46 2.46 0 0 0 .86-3.29" class="b"/><path d="M120.94 170.33a6.7 6.7 0 0 0-7.9 2.28 9.2 9.2 0 0 0-1 8.25 105 105 0 0 0 4.94 12.14 159 159 0 0 0 6.2 12.8 110 110 0 0 0 6.6 10.18 69 69 0 0 1 3.44 5.17q.3.5.58 1.03c.07.14.44 1.02.26.52l.2.7q.05.17.08.35c.14.6-.04-.43.02.11.42 3.77.42 7.6.68 11.38a62 62 0 0 0 2.17 13.82c.7 2.29 1.73 4.51 4.59 3.95a20 20 0 0 0 3.3-1.2q1.8-.7 3.6-1.43a192 192 0 0 0 35.36-18.3c2.55-1.72.15-5.88-2.42-4.15a179 179 0 0 1-29.26 15.75q-3.28 1.4-6.6 2.72l-3.2 1.26c-.5.2-1.05.36-1.54.6-.38.18-.1-.03-.09.05-.04-.4 1.4.49 1.33.87a4 4 0 0 0-.39-1.23l-.4-1.38q-.41-1.54-.7-3.1a66 66 0 0 1-.8-6.28c-.32-3.87-.4-7.76-.68-11.64a18 18 0 0 0-.48-3.73 18 18 0 0 0-2.22-4.35c-1.79-2.81-3.88-5.4-5.72-8.18a96 96 0 0 1-7-12.67c-1.87-4.06-3.75-8.13-5.44-12.27a32 32 0 0 1-2.04-5.79c-.45-2.32.69-4.62 3.27-3.6a2.4 2.4 0 0 0 2.95-1.69 2.46 2.46 0 0 0-1.68-2.95ZM70.61 154.2c-8.01 3.4-16.3 6.14-24.36 9.43a59 59 0 0 0-20.7 14.9 67.5 67.5 0 0 0-13.7 23.26 131 131 0 0 0-3.72 13.9q-1.67 7.32-3 14.7-2.73 15-4.1 30.2c-.77 8.74-1.66 17.7-.4 26.44 1.01 7.11 3.76 14.57 9.47 19.26 7.03 5.77 16.4 5.85 24.4 2.08a50.5 50.5 0 0 0 19.68-17.02 110 110 0 0 0 12.86-25.1q1.15-3.14 2.15-6.32c.94-2.96-3.7-4.22-4.62-1.28a115 115 0 0 1-10.35 23.75 70 70 0 0 1-7.63 11.01 44 44 0 0 1-9.02 7.65 30 30 0 0 1-10.93 4.87 16.3 16.3 0 0 1-11-1.6c-5.86-3.34-8.7-9.77-9.97-16.14-1.55-7.8-.75-15.95-.15-23.8q1.1-14.2 3.45-28.26a296 296 0 0 1 5.96-28.05 64 64 0 0 1 10.99-22.55 59 59 0 0 1 18-15.48 90 90 0 0 1 11.23-4.75c4.04-1.53 8.1-3.02 12.12-4.6q2.9-1.14 5.77-2.35a2.4 2.4 0 0 0 .86-3.29 2.47 2.47 0 0 0-3.29-.86" class="b"/><path d="M85.67 155.14a7 7 0 0 0-1.1.9c.81-3.25.76-6.84-3.02-8.13a4.7 4.7 0 0 0-5.85 2.25c-.34.65-1.3 2.63-1.3 2.63l-.45.93a4.56 4.56 0 0 0-2.93-5.1c-3.38-1.17-5.9.74-7.74 4.6-1.06 2.2-2.64 6.2-4.7 11.31a190 190 0 0 1-7.9 16.83c-.97-3.45-.97-7.62-1.7-11.25a11.3 11.3 0 0 0-2.1-5.35 4.35 4.35 0 0 0-5.17-.88 4.8 4.8 0 0 0-2.42 3.1 121 121 0 0 0-.82 32.27c.28 2.78 1.44 5.4 2.44 8.01.48 1.25.95 2.03.71 3.3a16 16 0 0 1-1.7 4.13c-2.84 5.44-7.55 12.35-10.97 18.45 13.3 8.83 27.2 12.87 38.66 17.32 1.88.72 1.86-.12 2.47-2.04 2.77-8.65 2.1-22.95 3.03-26.02.89-2.87 6.3-9.82 7.51-11.65a102 102 0 0 0 6.86-12.24c2.11-4.59 6.54-14.16 7.83-18.5a7 7 0 0 0-.22-5.27 4.4 4.4 0 0 0-2.17-2.17 4.5 4.5 0 0 0-3.63.06l-.53.16c1.28-3.76 2.46-7.47 3.55-10.83.27-.83.92-5.21-2.52-6.9a3.9 3.9 0 0 0-4.12.07" class="c"/><path d="M52.65 179.3c-.65-3.38-.73-6.83-1.43-10.2-.6-2.87-1.68-6.08-4.53-7.43a6.94 6.94 0 0 0-8.37 2.01 8.6 8.6 0 0 0-1.63 4.52 146 146 0 0 0-.7 5.48 122 122 0 0 0-.32 20.74 37 37 0 0 0 1.65 10.17c.54 1.5 1.19 2.95 1.72 4.44.5 1.36-.2 2.53-.83 3.76-3 5.9-6.83 11.34-10.14 17.06-1.55 2.67 2.6 5.1 4.14 2.42 2.77-4.78 5.85-9.36 8.58-14.16 1.35-2.38 3.17-5.15 3.28-7.95a10 10 0 0 0-1-3.94c-.57-1.45-1.16-2.89-1.6-4.38-.9-2.99-.95-6.23-1.1-9.33q-.27-4.8-.16-9.6.1-4.74.6-9.46.24-2.22.58-4.44c.17-1.14.22-2.36 1.38-2.97 2.58-1.36 3.42 2.45 3.78 4.15.72 3.43.8 6.95 1.47 10.39a2.4 2.4 0 0 0 2.96 1.68 2.45 2.45 0 0 0 1.67-2.96" class="b"/><path d="M52.75 182.58c2.32-4.43 4.52-8.94 6.51-13.53 1.89-4.36 3.52-8.81 5.42-13.16a12 12 0 0 1 2.75-4.51 2.65 2.65 0 0 1 3.32-.2c1.47 1.07.6 2.93.06 4.47l-2.64 7.32a272 272 0 0 1-6.03 15.2 2.5 2.5 0 0 0 .86 3.27 2.4 2.4 0 0 0 3.28-.86q3.35-7.69 6.22-15.55 1.53-4.16 3.01-8.34c.97-2.68 1.4-5.36-.4-7.82a7.4 7.4 0 0 0-6.25-2.98 8.2 8.2 0 0 0-6.1 3.54 26 26 0 0 0-3 5.84q-1.5 3.63-2.97 7.3a195 195 0 0 1-8.2 17.59c-1.43 2.73 2.71 5.16 4.15 2.42Z" class="b"/><path d="M75.97 184.24c3.24-6.14 5.57-12.88 8.03-19.36 2.11-5.6 6.84-15.5-.9-18.92a7.4 7.4 0 0 0-7.84.97c-1.43 1.2-2.13 3-2.93 4.65a2.46 2.46 0 0 0 .86 3.28 2.4 2.4 0 0 0 3.29-.86 16 16 0 0 1 1.64-3.2 2.56 2.56 0 0 1 3.28-.34 2.6 2.6 0 0 1 1.19 2.64 13 13 0 0 1-.88 4.12 310 310 0 0 1-6.37 16.68c-1.09 2.67-2.14 5.31-3.51 7.92-1.44 2.74 2.7 5.16 4.14 2.43Z" class="b"/><path d="M85.29 188.5a247 247 0 0 0 8.97-24.75 10 10 0 0 0-.3-7.87 6.87 6.87 0 0 0-10-2.46 2.5 2.5 0 0 0-.86 3.28 2.4 2.4 0 0 0 3.28.86 2 2 0 0 1 2.77-.1 2.3 2.3 0 0 1 .77 1.09c-.1-.25.1.44.1.42 0 .01.13.78.09.36a9 9 0 0 1 .01 1.35c-.01.32-.08.48 0 .07l-.09.45c-.43 1.48-.95 2.94-1.42 4.41a207 207 0 0 1-7.47 20.47 2.5 2.5 0 0 0 .86 3.29 2.4 2.4 0 0 0 3.28-.86Z" class="b"/><path d="M89.94 174.96c2.24-.88 3.57.76 3.35 3a19 19 0 0 1-1.54 4.91c-1.5 3.86-3.22 7.63-4.94 11.4a121 121 0 0 1-6.4 12.32c-1.8 3-3.93 5.77-5.92 8.65-1.82 2.65-3.64 5.28-4.03 8.53-.4 3.45-.4 6.95-.63 10.42a62 62 0 0 1-1.74 12.54l-.42 1.38c-.09.3-.29 1-.3.98-.23-.17 1.04-.66.75-.53.74-.33.73-.1.45-.3a8 8 0 0 0-1.7-.65q-3.36-1.28-6.7-2.53c-11.54-4.35-22.84-9.18-33.1-16.08-2.58-1.73-4.99 2.43-2.43 4.14 9.98 6.71 20.98 11.52 32.18 15.78l7.35 2.77c2.07.79 4.86 2.43 6.8.5 1.38-1.37 1.78-4.12 2.18-5.94a65 65 0 0 0 1.1-7.26c.45-4.3.54-8.63.82-12.95q.07-1.1.18-2.18c.05-.39-.1.41.05-.26l.19-.72c.16-.57-.14.29.02-.08a14 14 0 0 1 .88-1.66q.76-1.3 1.62-2.55c2.09-3.11 4.4-6.05 6.35-9.25a125 125 0 0 0 6.86-13.24c2.11-4.63 4.29-9.29 5.97-14.1.97-2.77 1.4-5.75-.02-8.46a6.77 6.77 0 0 0-8.5-3.21 2.47 2.47 0 0 0-1.68 2.95 2.4 2.4 0 0 0 2.95 1.67ZM59.07 62.88l-3.54 12.66a2.4 2.4 0 1 0 4.63 1.28l3.54-12.67a2.4 2.4 0 0 0-4.63-1.28m87.02-.36 3.54 12.67a2.4 2.4 0 0 0 4.63-1.28l-3.54-12.67a2.4 2.4 0 0 0-4.63 1.28m33.75 242.72H29.7c-3.08 0-3.09 4.8 0 4.8h150.12c3.1 0 3.1-4.8 0-4.8Z" class="b"/><path d="M55.41 77.22c1.07 4.36 1.88 8.77 2.91 13.13a85 85 0 0 0 1.75 6.44c.67 2.08 1.36 4.53 3.07 6 2.2 1.9 5.64 2.14 8.4 2.64a111 111 0 0 0 17.92 1.73c2.78.04 5.58-.03 7.82-1.89a35 35 0 0 0 4.7-5.55c1.05-1.35 2.23-3.12 3.25-4.22.5-.56.26-.55.76 0 .37.4.87 1.11 1.31 1.7q2.14 2.81 4.37 5.53c1.58 1.9 2.99 3.54 5.5 4.14 2.94.7 6.28.3 9.27.13a108 108 0 0 0 17.69-2.47 8 8 0 0 0 4.23-1.99 9 9 0 0 0 1.98-3.44 57 57 0 0 0 2.17-7.14c1.22-4.88 2.1-9.85 3.3-14.73.74-3-3.9-4.28-4.63-1.28-1.01 4.11-1.78 8.29-2.74 12.41a99 99 0 0 1-1.67 6.38c-.43 1.41-.8 3.6-1.88 4.5-.83.69-2.36.74-3.38.96q-2.21.47-4.44.84-4.04.67-8.12.99-4.3.35-8.62.35a6 6 0 0 1-2.82-.45 9 9 0 0 1-2.02-2.08q-2.08-2.5-4.05-5.07c-1.15-1.52-2.2-3.3-4-4.1-4.42-1.94-7.15 3.5-9.4 6.34q-1.14 1.43-2.3 2.83-.6.73-1.22 1.43c-.39.43-.32.4-.7.58-2.08 1-4.93.52-7.18.43a101 101 0 0 1-16.93-2.1c-1.05-.22-2.66-.27-3.45-1.04a5 5 0 0 1-1.11-2.3 68 68 0 0 1-1.99-6.87c-1.13-4.66-1.98-9.38-3.12-14.03-.74-3-5.37-1.73-4.63 1.28Z" class="b"/></svg>
