<svg viewBox="-42.97 0 288.415 288.415" xmlns="http://www.w3.org/2000/svg"><defs><style>.a{fill:#ffffff;}.b{fill:#3d8dcc;}.c{fill:#211715;}.d{fill:#aaa;}</style></defs><path class="a" d="M103.573,173.728a3.131,3.131,0,0,0-2.016,2.974h-.74a3.049,3.049,0,0,0-2.537-3.093q-1.639-.215-3.323-.418c.443-6.72,1.32-13.345.69-19.183h10.991c-.629,5.84.249,12.468.692,19.19q-1.638.2-3.235.41A2.834,2.834,0,0,0,103.573,173.728Z"/><path class="a" d="M147.428,78.841a7.394,7.394,0,0,1,5.342-1.955,6.856,6.856,0,0,1,6.159,3.422,16.535,16.535,0,0,1,1.614,8.229,4.465,4.465,0,0,0-.744-.571,4.193,4.193,0,0,0-4.338-.011c-2.919,1.54-4.277,7.247-4.277,7.247s-.624,2.014-1.207,3.9c-4.562-2.286-6.1,9.356-7.052,12.511a42.618,42.618,0,0,1-21.785,25.093c-10.287,3.4-13.679,9.678-14.5,17.3h-10.8c-.252-.108-.505-.217-.285-.8-.972-7.265-4.479-13.23-14.406-16.507a42.616,42.616,0,0,1-21.784-25.093c-.883-2.912-2.258-13.054-6.052-12.8a3.816,3.816,0,0,0-1.191.26L51.1,95.2s-1.359-5.707-4.278-7.247a4.192,4.192,0,0,0-4.337.011,4.787,4.787,0,0,0-2.144,2.989s-.067.509-.177,1.34c-.736-3.994-.485-9.016,1.229-11.987a6.856,6.856,0,0,1,6.159-3.422A7.393,7.393,0,0,1,52.9,78.841S41.485,30.5,100.164,30.5,147.428,78.841,147.428,78.841Z"/><path class="b" d="M95.086,173.206c-9.021-1.1-18.894-1.987-28.191-2.933.327-2.271.481-3.3.877-6.071a7.33,7.33,0,0,0-3.744-7.478,28.683,28.683,0,0,1-3.955-2.365c-8.057-6.095-12.457-10.116-14.986-17.411C33.872,141.1,24.668,145.97,17.4,153.538c-7.253,8.429-13.845,17.916-15.044,38,0,23.551,3.26,49.784,15.483,70.49,4.5,7.618,10.639,14.416,18.358,18.737a42.106,42.106,0,0,0,32.438,3.456c.147-.046.293-.094.438-.142,8.63-2.856,14.8-7.515,19.292-14.625a44.625,44.625,0,0,0,3.816-7.741H110.19a44.769,44.769,0,0,0,3.816,7.741c4.5,7.11,10.662,11.769,19.292,14.625.146.048.292.1.438.142a42.105,42.105,0,0,0,32.438-3.456c7.719-4.321,13.861-11.119,18.358-18.737,12.223-20.706,15.484-46.939,15.484-70.49-1.2-20.083-7.791-29.57-15.044-38-7.284-7.587-16.516-12.463-27.769-16.621-2.526,7.314-6.918,11.338-15,17.442a28.1,28.1,0,0,1-3.945,2.365,7.313,7.313,0,0,0-3.744,7.478c.392,2.735.535,3.772.873,5.976-11.428,1.2-23.721,2.358-34.218,3.824C99.2,173.723,97.167,173.459,95.086,173.206Z"/><path class="c" d="M94.426,155.981a5.521,5.521,0,0,0,2.9.428h9.315a2.4,2.4,0,1,0,0-4.8h-10.8l1.211.327a1.2,1.2,0,0,1-.2-.1,2.4,2.4,0,0,0-2.422,4.145Z"/><path class="d" d="M61.556,50.937A21.507,21.507,0,0,0,58.654,55c-3.209,5.713-.8,20.664-5.021,24.7a7.181,7.181,0,0,0-6.078-2.811,8.865,8.865,0,0,0-2.306.368c-1.753-6.508-2.95-13.569-2.712-19.2.8-18.877,6.892-30.225,16.87-38.16a7.728,7.728,0,0,0,1.05-1.012c8.614-10.02,23.628-17.291,39.57-16.5,12.692.633,22.822,3.845,31.529,9.975l2.95,2.077,4.4,3.977c9.147,8.264,17.41,21.149,18.213,40.156a60.165,60.165,0,0,1-2.256,18.624,9.082,9.082,0,0,0-2.1-.305,7.394,7.394,0,0,0-5.342,1.955l-1.208-.269c-.084-8.288-4.515-27.667-15.731-31.632a125.558,125.558,0,0,0-17.974-4.68c-7.062-.962-13.642.146-20.7,1.154-4.635.662-9.447,1.208-15.745,1.642-5.839.259-10.371,1.774-13.892,5.235Q61.863,50.6,61.556,50.937Z"/><path class="c" d="M54.594,77.144A10.433,10.433,0,0,0,43.2,75.49a10.026,10.026,0,0,0-5.2,6.973,26.38,26.38,0,0,0,4.048,20.607c2.876,4.173,6.95,7.168,12.215,6.449a2.414,2.414,0,0,0,1.676-2.952,2.464,2.464,0,0,0-2.952-1.676c-3.744.511-6.625-3.592-8.114-6.445a22.725,22.725,0,0,1-2.647-8.889,19.356,19.356,0,0,1,.287-5.319,11.535,11.535,0,0,1,.544-1.917,6.711,6.711,0,0,1,.488-.941c.055-.09.5-.712.162-.282a5.377,5.377,0,0,1,7.488-.56c2.286,2.068,5.69-1.316,3.394-3.394Z"/><path class="c" d="M149.125,80.538a5.377,5.377,0,0,1,7.488.56c-.341-.43.107.192.162.282a6.825,6.825,0,0,1,.489.941,11.774,11.774,0,0,1,.544,1.917,19.4,19.4,0,0,1,.286,5.319,22.725,22.725,0,0,1-2.647,8.889c-1.489,2.853-4.37,6.956-8.114,6.445a2.482,2.482,0,0,0-2.952,1.676,2.417,2.417,0,0,0,1.676,2.952c8.66,1.183,13.744-7.4,15.928-14.56A24.968,24.968,0,0,0,162.6,83.82a11.186,11.186,0,0,0-4.472-7.777,10.355,10.355,0,0,0-12.393,1.1c-2.295,2.077,1.108,5.463,3.394,3.394Z"/><path class="c" d="M144.67,103a57.183,57.183,0,0,1-3.229,9.788c.286-.71-.195.419-.316.671-.216.452-.442.9-.674,1.341-.591,1.127-1.226,2.231-1.887,3.317a58.826,58.826,0,0,1-12.713,15.109,23.368,23.368,0,0,1-9.418,4.89c-3.008.7-1.735,5.324,1.276,4.628,7.242-1.672,13.258-6.99,17.966-12.5a64.082,64.082,0,0,0,9.87-14.953c.164-.365.322-.735.473-1.105.066-.16.345-.811.074-.188.38-.874.753-1.748,1.089-2.64a46.772,46.772,0,0,0,2.118-7.083,2.459,2.459,0,0,0-1.676-2.952A2.425,2.425,0,0,0,144.67,103Z"/><path class="c" d="M50.891,104.1a59.2,59.2,0,0,0,8.418,19.74c4.278,6.4,9.891,12.4,16.687,16.151a33.076,33.076,0,0,0,11.137,3.786,2.479,2.479,0,0,0,2.952-1.676,2.418,2.418,0,0,0-1.676-2.953c-13.974-2.064-24.4-14.13-29.746-26.527a56,56,0,0,1-3.144-9.8c-.682-3.011-5.311-1.737-4.628,1.276Z"/><path class="c" d="M132.767,10.284C124.59,4.571,115.107,1.53,105.252.405A55.6,55.6,0,0,0,75.026,5.069a51.291,51.291,0,0,0-12.1,7.915c-1.677,1.473-3.069,3.187-4.667,4.728-1.375,1.325-2.93,2.45-4.288,3.805A45.254,45.254,0,0,0,42.451,41.9a71.842,71.842,0,0,0-2.328,16.536,67.545,67.545,0,0,0,2.586,18.6c.77,2.989,5.4,1.722,4.629-1.277a66.793,66.793,0,0,1-2.427-15.735,63.045,63.045,0,0,1,1.414-13.7,42.387,42.387,0,0,1,9.426-19.711,42.458,42.458,0,0,1,3.763-3.706c.657-.571,1.365-1.091,2-1.68.785-.722,1.444-1.586,2.185-2.355A44.612,44.612,0,0,1,73.981,11a49.078,49.078,0,0,1,27.38-6.139c10.389.677,20.4,3.572,28.983,9.57a2.421,2.421,0,0,0,3.284-.861,2.45,2.45,0,0,0-.861-3.284Z"/><path class="c" d="M157.38,77.039a68.758,68.758,0,0,0,2.182-14.755A65.73,65.73,0,0,0,158.226,47.8a56.947,56.947,0,0,0-9.638-22.162,58.721,58.721,0,0,0-7.982-8.923c-2.283-2.073-5.687,1.312-3.394,3.394a53.009,53.009,0,0,1,12.093,16.036,57.057,57.057,0,0,1,5.466,24.2,61.254,61.254,0,0,1-2.02,15.419c-.735,3,3.893,4.28,4.629,1.277Z"/><path class="c" d="M91.391,118.754a19.247,19.247,0,0,0,9.272,2.146,15.073,15.073,0,0,0,9.353-2.758,2.412,2.412,0,0,0,0-3.394,2.462,2.462,0,0,0-3.394,0c.727-.566.16-.132-.026-.012s-.378.23-.574.333c-.1.053-.206.1-.307.153-.377.194.085.012.094-.031-.019.089-.7.257-.791.288a13.973,13.973,0,0,1-2.214.5c.353-.052-.072.005-.213.019q-.325.032-.653.053c-.524.034-1.049.047-1.574.044q-.7,0-1.409-.05c-.215-.015-.43-.032-.645-.054-.022,0-.8-.111-.314-.034a16.034,16.034,0,0,1-2.068-.459c-.29-.087-.573-.191-.859-.289-.614-.21.35.182-.2-.08q-.531-.251-1.051-.524a2.453,2.453,0,0,0-3.284.861,2.426,2.426,0,0,0,.861,3.283Z"/><path class="c" d="M99.447,96.908a43.453,43.453,0,0,1,1.024,4.687l-.085-.638a2.858,2.858,0,0,1,.017.647l.086-.638a1.526,1.526,0,0,1-.071.291l.242-.573a1.178,1.178,0,0,1-.1.187l.375-.486a.994.994,0,0,1-.153.151l.486-.375a2.982,2.982,0,0,1-.371.2l.573-.242a2.726,2.726,0,0,1-.626.183l.638-.086a2.506,2.506,0,0,1-.587,0l.638.086c-.221-.031-.439-.085-.66-.115a1.823,1.823,0,0,0-.957-.043,1.791,1.791,0,0,0-.892.285,2.4,2.4,0,0,0-.861,3.284,2.3,2.3,0,0,0,1.434,1.1c.5.067.993.2,1.505.218a4.817,4.817,0,0,0,2.218-.527,3.2,3.2,0,0,0,1.773-2.11,5.277,5.277,0,0,0-.022-2.272c-.255-1.51-.6-3.007-.992-4.488a2.4,2.4,0,0,0-4.629,1.276Z"/><path class="c" d="M74.662,83.636c-.783,2.543-.273,8.394,4.546,8.892,6.369-.038,6.708-7.112,4.564-10.438C82.016,79.367,76.855,78.234,74.662,83.636Z"/><path class="c" d="M125.663,83.636c.783,2.544.273,8.4-4.546,8.892-6.369-.038-6.708-7.112-4.564-10.438C118.308,79.367,123.47,78.234,125.663,83.636Z"/><path class="c" d="M114,113.371a7.786,7.786,0,0,1,.752.841l-.375-.485a10.01,10.01,0,0,1,1.222,2.161l-.242-.573c.113.269.218.541.317.816a2.677,2.677,0,0,0,1.1,1.434,2.453,2.453,0,0,0,1.849.242,2.426,2.426,0,0,0,1.434-1.1,2.37,2.37,0,0,0,.242-1.85,12.471,12.471,0,0,0-2.908-4.877,2.493,2.493,0,0,0-1.7-.7,2.443,2.443,0,0,0-1.7.7,2.412,2.412,0,0,0-.7,1.7,2.469,2.469,0,0,0,.7,1.7Z"/><path class="c" d="M148.62,78.572A51.6,51.6,0,0,0,146.234,64.5c-1.616-5.334-3.976-10.652-7.735-14.835a18.363,18.363,0,0,0-7.372-5.043,2.421,2.421,0,0,0-2.952,1.676,2.45,2.45,0,0,0,1.676,2.952c3.9,1.424,6.825,5.3,8.855,9.224a49.072,49.072,0,0,1,4.473,13.854c.246,1.374.334,1.972.46,3.218.1,1.005.167,2.013.181,3.022.042,3.087,4.843,3.095,4.8,0Z"/><path class="c" d="M121.723,43.167c-.821-3.005-1.74-6.077-3.742-8.527a14.571,14.571,0,0,0-3.034-2.6,19.572,19.572,0,0,0-3.926-2.174,2.407,2.407,0,0,0-2.952,1.676,2.471,2.471,0,0,0,1.676,2.952c-.788-.316.058.039.259.142.277.143.548.3.816.453.559.327,1.1.679,1.636,1.048.268.186.529.38.792.572.247.181-.4-.323-.069-.052.106.088.215.174.32.264.194.166.383.339.562.522a5.528,5.528,0,0,0,.526.591c-.192-.142-.3-.4-.052-.06.079.111.156.224.23.338.14.216.271.437.4.662s.252.476.367.719c.066.139.128.279.191.419.212.464-.166-.438,0,.014.532,1.417.973,2.856,1.373,4.316a2.4,2.4,0,0,0,4.628-1.276Z"/><path class="c" d="M109.614,42.2a28.777,28.777,0,0,0-5.558-5.809,31.444,31.444,0,0,0-5.929-3.47A30.3,30.3,0,0,0,92.069,31a25.062,25.062,0,0,0-6.719-.818,2.452,2.452,0,0,0-2.4,2.4,2.422,2.422,0,0,0,2.4,2.4,18.958,18.958,0,0,1,5.443.646c1.011.228,2.016.489,3.008.791.41.125.818.256,1.222.4.179.063.357.129.535.2.646.241-.4-.2.147.058a24.366,24.366,0,0,1,9.764,7.558,2.476,2.476,0,0,0,3.284.861,2.418,2.418,0,0,0,.861-3.284Z"/><path class="c" d="M76.073,42.656a27.084,27.084,0,0,0-10.8,2.5,20.214,20.214,0,0,0-7.76,7.095c-3.569,5.394-3.047,12.283-3.6,18.47a25.765,25.765,0,0,1-.732,4.653c-.084.315-.184.625-.28.936-.045.147-.1.3-.158.438.152-.389-.029.064-.068.14-.141.28-.295.545-.462.81-.238.377-.041.051.022-.019-.126.14-.254.273-.391.4-2.253,2.122,1.145,5.512,3.394,3.394,1.909-1.8,2.628-4.544,3.025-7.048.507-3.2.64-6.436.865-9.662a27.791,27.791,0,0,1,1.29-7.934c.164-.452.059-.146.015-.051.06-.131.122-.262.19-.388.177-.329.366-.651.56-.97A18.224,18.224,0,0,1,62.6,53.386a14.91,14.91,0,0,1,3.238-3.011,19.894,19.894,0,0,1,10.237-2.919c3.074-.151,3.092-4.952,0-4.8Z"/><path class="c" d="M93.1,249.42c-1.573,8.525-4.537,17.326-10.61,23.736A35.024,35.024,0,0,1,60.8,283.416a40.1,40.1,0,0,1-25.959-6.291c-7.418-4.9-12.852-12.146-16.946-19.933-8.676-16.5-11.918-35.455-12.849-53.9a105.945,105.945,0,0,1-.124-14.04A68.62,68.62,0,0,1,7.109,176.6a51.253,51.253,0,0,1,8.736-17.4,49.973,49.973,0,0,1,6.368-6.945,56,56,0,0,1,9.261-6.509c7.368-4.208,15.415-7.065,23.474-9.633,2.292-.73,4.592-1.433,6.9-2.125,2.951-.886,1.694-5.521-1.276-4.629-9.081,2.728-18.19,5.6-26.746,9.74-7.141,3.451-14.163,7.991-19.291,14.124A60.4,60.4,0,0,0,4.038,170.549C.785,179.127-.192,188.363.03,197.476c.478,19.632,3.293,39.667,11.522,57.66,3.957,8.653,9.272,16.917,16.678,23.017A44.8,44.8,0,0,0,55.2,288.388a41.743,41.743,0,0,0,26.281-7.955c7.343-5.536,11.811-13.566,14.449-22.254a68.576,68.576,0,0,0,1.8-7.483,2.465,2.465,0,0,0-1.676-2.952A2.421,2.421,0,0,0,93.1,249.42Z"/><path class="c" d="M104.642,250.7c1.7,9.241,5.116,18.612,11.6,25.6,6.164,6.637,14.988,10.6,23.892,11.755a44.513,44.513,0,0,0,28.29-5.816c8.172-4.9,14.487-12.369,19.107-20.611,9.678-17.265,13.392-37.306,14.514-56.869a112.237,112.237,0,0,0,.274-14.6,77.93,77.93,0,0,0-2.244-14.145,54.8,54.8,0,0,0-9.245-19.018,53.6,53.6,0,0,0-6.893-7.786,61.264,61.264,0,0,0-10.006-7.248c-7.814-4.568-16.438-7.661-25.03-10.406-2.359-.753-4.727-1.477-7.1-2.19-2.965-.89-4.232,3.741-1.276,4.629,8.563,2.572,17.186,5.235,25.27,9.1,6.694,3.2,13.392,7.313,18.231,13.035a54.872,54.872,0,0,1,9.5,15.257,65.189,65.189,0,0,1,4.031,25.067c-.37,18.456-2.724,37.484-10.126,54.554-3.564,8.221-8.212,16.09-14.875,22.182a39.623,39.623,0,0,1-24.147,10.344,37.79,37.79,0,0,1-24.539-6.817c-6.648-4.809-10.564-12.314-12.873-20.015a68.658,68.658,0,0,1-1.736-7.273,2.422,2.422,0,0,0-2.952-1.676,2.452,2.452,0,0,0-1.677,2.952Z"/><path class="c" d="M110.191,259.312H92.181c-3.088,0-3.093,4.8,0,4.8h18.01c3.089,0,3.094-4.8,0-4.8Z"/><path class="a" d="M144.118,106.64c-.514,2.04-.884,3.951-1.193,4.973a42.618,42.618,0,0,1-21.785,25.093c-18.166,6-14.83,20.994-13.81,36.493,8.977-1.1,18.8-2.049,28.062-3.021-.339-2.2-.482-3.241-.874-5.976a7.313,7.313,0,0,1,3.744-7.478,28.1,28.1,0,0,0,3.945-2.365c8.484-6.411,12.9-10.527,15.368-18.568,2.425-7.931,3.877-18.09,4.723-31.352a76.67,76.67,0,0,0-.356-13.484,4.781,4.781,0,0,0-2.143-2.989,4.193,4.193,0,0,0-4.338-.011c-2.919,1.54-4.277,7.247-4.277,7.247l-.962,4.038C146.981,97.3,145.22,102.268,144.118,106.64Z"/><path class="c" d="M109.7,172.775c-.512-7.381-1.932-15.491.083-22.51a14.816,14.816,0,0,1,5.138-7.757,20.881,20.881,0,0,1,5.385-2.965A34.125,34.125,0,0,0,127,136.165a44.914,44.914,0,0,0,18.125-23.553c.945-3.007,1.331-6.151,2.453-9.112a13.576,13.576,0,0,1,.832-1.67,3.848,3.848,0,0,1,.246-.367c-.258.344-.042.068.014,0,0,0,.428-.488.173-.2-.148.1-.133.095.048-.029q.292-.156.019-.037c-.023.112-.126.023.192-.038-.622.119-.255.021-.128.056-.593-.163.975.255.295.062.421.12.521.287.8.769.09.155.173.315.247.478-.175-.384.045.15.078.261.113.374.206.75.286,1.133a13.946,13.946,0,0,1,.189,2.27,35.2,35.2,0,0,1-.248,4.354,147.025,147.025,0,0,1-3.306,17.624c-.7,3,3.925,4.288,4.629,1.276a153.185,153.185,0,0,0,3.418-18.37,25.959,25.959,0,0,0-.154-8.893c-.864-3.584-4.515-7.25-8.436-5.254-3.183,1.62-4.239,6.137-5.024,9.295a45.672,45.672,0,0,1-3.779,11.062,41.884,41.884,0,0,1-9.837,12.088,37.329,37.329,0,0,1-6.18,4.237c-2.22,1.219-4.676,1.894-6.9,3.119a20.053,20.053,0,0,0-8.52,8.689c-4.058,8.446-2.252,18.4-1.63,27.364a2.458,2.458,0,0,0,2.4,2.4,2.42,2.42,0,0,0,2.4-2.4Z"/><path class="c" d="M153.5,95.84a12.709,12.709,0,0,1,2.077-4.816c.562-.748,1.678-1.709,2.883-1.062,1.345.721,1.164,2,1.273,3.369a120.89,120.89,0,0,1-.895,23.368,91.586,91.586,0,0,1-3.955,19.614c-2.072,5.964-6.5,10.176-11.337,14.009a37.457,37.457,0,0,1-5.477,3.785A11.282,11.282,0,0,0,133.4,158.2c-2.21,3.718-1.022,7.976-.418,11.973a2.417,2.417,0,0,0,2.953,1.676,2.46,2.46,0,0,0,1.676-2.952c-.459-3.036-1.765-6.862.76-9.306,1.341-1.3,3.346-1.917,4.859-3.019,1.736-1.265,3.431-2.6,5.09-3.967a42.067,42.067,0,0,0,7.373-7.54,29.377,29.377,0,0,0,4.29-8.932,117.373,117.373,0,0,0,3.954-22.208c.448-4.475.878-8.993.925-13.493.019-1.8-.065-3.6-.195-5.4-.143-1.963-.019-4.2-.857-6.012a6.89,6.89,0,0,0-11.371-1.693,16.7,16.7,0,0,0-3.565,7.233c-.727,3,3.9,4.281,4.628,1.276Z"/><path class="a" d="M40.081,94.27a62.454,62.454,0,0,0-.093,10.169c.847,13.262,2.3,23.421,4.724,31.352,2.465,8.041,6.883,12.157,15.368,18.568a28.047,28.047,0,0,0,3.945,2.365,7.316,7.316,0,0,1,3.744,7.478c-.4,2.774-.539,3.8-.888,6.07,9.259.942,19.091,1.828,28.083,2.919,1.014-15.5,4.345-30.49-13.818-36.485a42.616,42.616,0,0,1-21.784-25.093c-.974-3.212-2.545-15.214-7.3-12.373L51.1,95.2s-1.359-5.707-4.278-7.247a4.192,4.192,0,0,0-4.337.011,4.787,4.787,0,0,0-2.144,2.989C40.247,92.2,40.158,93.276,40.081,94.27Z"/><path class="c" d="M97.385,172.775c.557-8.022,2.09-16.73-.492-24.558a19.915,19.915,0,0,0-7.106-9.853,26.513,26.513,0,0,0-6.179-3.312,32.671,32.671,0,0,1-6.542-3.462,38.9,38.9,0,0,1-15.941-22.857c-.8-3.523-1.53-7.586-3.919-10.431-2.647-3.152-7.324-1.948-9.188,1.409-1.76,3.169-1.544,7.19-1.171,10.674a156.937,156.937,0,0,0,3.494,19.053c.7,3.007,5.332,1.734,4.628-1.276a141.115,141.115,0,0,1-3.235-16.983c-.119-1.113-.241-2.224-.291-3.343-.032-.712-.042-1.427-.014-2.14.016-.408.043-.816.085-1.222.007-.064.067-.471.008-.087.036-.236.08-.472.13-.706a10.543,10.543,0,0,1,.31-1.116c.026-.077.178-.425.006-.045a4.1,4.1,0,0,1,.194-.386c.091-.151.177-.3.278-.447.215-.311-.375.36.079-.07a3.881,3.881,0,0,1,.3-.275c-.414.323.125-.05.2-.069-.531.138.544-.2.378-.077-.05.037.3.134-.211-.041a1.4,1.4,0,0,1,.324.089l-.263-.1a2.045,2.045,0,0,1,.224.139c-.027.11-.254-.273.012.04.087.1.182.193.268.3-.322-.383.1.159.127.214,1.492,2.585,2.086,5.917,2.822,9.05,2.138,9.1,8.285,17.427,15.579,23.108a41.668,41.668,0,0,0,6.3,4.118c2.073,1.084,4.33,1.695,6.38,2.841a15.318,15.318,0,0,1,6.82,7.25c1.456,3.26,1.729,7.207,1.683,11.021-.055,4.53-.564,9.041-.878,13.557a2.4,2.4,0,0,0,4.8,0Z"/><path class="c" d="M53.417,94.564a17.835,17.835,0,0,0-2.662-6.095c-2.512-3.5-7.244-4.827-10.672-1.659a7.4,7.4,0,0,0-2.228,5.273c-.152,1.9-.319,3.807-.391,5.716a104.318,104.318,0,0,0,.58,12.79,136.324,136.324,0,0,0,3.622,23.268,35.543,35.543,0,0,0,3.649,9.278,33.659,33.659,0,0,0,6.552,7.674c1.691,1.511,3.473,2.916,5.269,4.3a53.985,53.985,0,0,0,5.836,3.779c3.666,2.149,2.223,6.6,1.707,10.01a2.478,2.478,0,0,0,1.677,2.952,2.418,2.418,0,0,0,2.952-1.676c.533-3.526,1.607-7.318.175-10.745A9.859,9.859,0,0,0,66,155.136c-1.565-1.1-3.348-1.825-4.891-2.984-5.07-3.808-10.183-7.923-12.9-13.8a43.445,43.445,0,0,1-2.626-8.659c-.75-3.317-1.324-6.677-1.774-10.048-1.034-7.729-1.95-15.747-1.461-23.548.062-.989.141-1.976.22-2.963a6.074,6.074,0,0,1,.326-2.224,2.057,2.057,0,0,1,3.277-.479,10.928,10.928,0,0,1,2.614,5.411c.726,3,5.356,1.73,4.629-1.276Z"/><path class="c" d="M162.621,223.743c-2.416-10.621-4.724-21.265-7.036-31.908q-1.647-7.584-3.3-15.166c-.454-2.074-.754-4.276-1.4-6.3a5.414,5.414,0,0,0-2.582-3.1c-1.473-.793-2.923-.59-4.5-.408-12.372,1.422-24.783,2.484-37.142,4.022a14.67,14.67,0,0,0-4.392.808,5.385,5.385,0,0,0-2.764,3.121,14.018,14.018,0,0,0-.415,4.375q-.069,2.709-.1,5.42-.106,10.2.367,20.394c.7,15.343,2.9,30.538,5.287,45.7a2.419,2.419,0,0,0,2.953,1.677,2.46,2.46,0,0,0,1.676-2.953c-1.989-12.636-3.878-25.3-4.759-38.074-.446-6.462-.66-12.946-.726-19.423q-.048-4.764.032-9.528.039-2.349.108-4.7c.02-.661-.089-1.472.488-1.714a7.781,7.781,0,0,1,1.812-.247q1.082-.136,2.165-.267,2.21-.265,4.42-.516,4.531-.512,9.066-.979c5.872-.613,11.748-1.2,17.617-1.834q2.153-.234,4.3-.48c.588-.068,1.944-.527,2.414-.037.39.405.445,1.751.57,2.32q.369,1.679.737,3.359,1.517,6.938,3.019,13.879c2.451,11.286,4.893,22.576,7.455,33.838.685,3.01,5.314,1.736,4.628-1.276Z"/><path class="c" d="M44.182,225.907c2.252-9.9,4.42-19.812,6.588-29.727q1.6-7.346,3.208-14.691.693-3.168,1.388-6.334c.2-.93.4-1.865.615-2.792.209-.884.484-.816,1.346-.725,11.923,1.27,23.872,2.339,35.781,3.732,1.441.169,2.889.316,4.324.529.689.1.835.129.985.8a13.984,13.984,0,0,1,.072,2.484q.031,1.234.055,2.47.045,2.454.058,4.908.048,9.705-.428,19.4c-.707,14.59-2.8,29.037-5.07,43.452a2.475,2.475,0,0,0,1.676,2.953,2.419,2.419,0,0,0,2.952-1.677c2.157-13.7,4.215-27.453,5.058-41.311.412-6.784.6-13.585.616-20.381q.009-5.157-.13-10.314a10.374,10.374,0,0,0-.708-4.594,5.322,5.322,0,0,0-3.181-2.695,27.516,27.516,0,0,0-4.534-.623q-2.419-.294-4.842-.56c-3.167-.352-6.338-.677-9.509-.995-6.3-.63-12.615-1.223-18.915-1.906-2.845-.308-6.142-1.3-8.534.8-1.811,1.588-1.991,4.285-2.478,6.5q-1.6,7.276-3.183,14.556c-2.581,11.825-5.153,23.653-7.839,35.455-.684,3.008,3.943,4.292,4.629,1.276Z"/></svg>
