<svg xmlns="http://www.w3.org/2000/svg" viewBox="-42.45 0 287.368 287.368"><defs><style>.a{fill:#fff}.c{fill:#211715}</style></defs><path d="m103.8 172.61.3-.05 3.23-.4c-.44-6.73-1.32-13.36-.7-19.2H95.66c.63 5.84-.25 12.47-.7 19.19l3.33.41a3.05 3.05 0 0 1 2.54 3.1h.74a3.1 3.1 0 0 1 2.25-3.05m56.75-85.42a16 16 0 0 0-1.62-7.93 6.5 6.5 0 0 0-4.08-3.12l.2-.8a62 62 0 0 0 2.1-17.82 56.6 56.6 0 0 0-23.39-44.31c-9.06-6.74-20.39-10.75-33.72-10.75S75.38 6.48 66.32 13.22a56.6 56.6 0 0 0-23.38 44.3 62 62 0 0 0 2.08 17.84l.22.85a6.5 6.5 0 0 0-3.84 3.05c-1.75 3.04-1.97 8.21-1.18 12.24l.13-1.6a4.8 4.8 0 0 1 2.14-2.98 4.2 4.2 0 0 1 4.34-.01c2.92 1.54 4.28 7.25 4.28 7.25l.93 3.9a4 4 0 0 1 1.27-.3c3.8-.25 5.17 9.9 6.06 12.8a42.6 42.6 0 0 0 21.78 25.1c9.93 3.27 13.43 9.24 14.4 16.5-.21.58.04.7.3.8h10.8c.81-7.63 4.2-13.9 14.5-17.3a42.6 42.6 0 0 0 21.78-25.1c.88-2.9 2.25-13.05 6.05-12.8a4 4 0 0 1 .94.18l1.26-3.78s1.36-5.71 4.28-7.25a4.2 4.2 0 0 1 4.34.01 4 4 0 0 1 .74.58z" class="a"/><path d="M95.09 172.16c-9.03-1.1-18.9-1.99-28.2-2.93.33-2.27.49-3.3.88-6.07a7.3 7.3 0 0 0-3.74-7.48 29 29 0 0 1-3.96-2.37c-8.05-6.1-12.45-10.11-14.98-17.41-11.22 4.15-20.42 9.02-27.69 16.59-7.25 8.43-13.84 17.92-15.04 38 0 23.55 3.26 49.78 15.48 70.49 4.5 7.62 10.64 14.42 18.36 18.74a42 42 0 0 0 32.44 3.45l.44-.14c8.63-2.85 14.8-7.51 19.29-14.62a45 45 0 0 0 3.81-7.75h18.01a45 45 0 0 0 3.82 7.75c4.5 7.1 10.66 11.77 19.29 14.62l.44.14a42 42 0 0 0 32.43-3.45c7.72-4.32 13.86-11.12 18.36-18.74 12.22-20.7 15.49-46.94 15.49-70.49-1.2-20.08-7.8-29.57-15.05-38-7.28-7.59-16.51-12.46-27.77-16.62-2.52 7.31-6.92 11.34-15 17.44a28 28 0 0 1-3.94 2.37 7.3 7.3 0 0 0-3.75 7.47c.4 2.74.54 3.78.88 5.98-11.43 1.2-23.72 2.36-34.22 3.82q-2.96-.4-6.08-.8" style="fill:#957f6e"/><path d="M94.43 154.93a5.5 5.5 0 0 0 2.9.43h9.31a2.4 2.4 0 1 0 0-4.8h-10.8l1.21.33-.2-.1a2.4 2.4 0 0 0-2.42 4.14m-1.33 93.44c-1.57 8.53-4.54 17.33-10.61 23.74a35 35 0 0 1-21.69 10.26 40 40 0 0 1-25.96-6.3c-7.42-4.9-12.85-12.14-16.95-19.92-8.67-16.5-11.91-35.46-12.84-53.9a106 106 0 0 1-.13-14.04 69 69 0 0 1 2.19-12.65 51 51 0 0 1 8.73-17.4 50 50 0 0 1 6.37-6.95 56 56 0 0 1 9.26-6.5c7.37-4.21 15.42-7.07 23.48-9.64q3.44-1.09 6.9-2.12c2.95-.89 1.7-5.52-1.28-4.63-9.08 2.73-18.19 5.6-26.74 9.74-7.15 3.45-14.17 7.99-19.3 14.12a60 60 0 0 0-10.5 17.32c-3.24 8.58-4.22 17.82-4 26.93.48 19.63 3.3 39.67 11.52 57.66 3.96 8.65 9.27 16.91 16.68 23.02a44.8 44.8 0 0 0 26.97 10.23 41.7 41.7 0 0 0 26.28-7.95c7.34-5.54 11.81-13.57 14.45-22.26a69 69 0 0 0 1.8-7.48 2.47 2.47 0 0 0-1.68-2.95 2.4 2.4 0 0 0-2.95 1.67m11.54 1.28c1.7 9.24 5.12 18.61 11.6 25.6 6.17 6.64 14.99 10.6 23.9 11.75a44.5 44.5 0 0 0 28.28-5.81c8.18-4.9 14.5-12.37 19.11-20.61 9.68-17.27 13.4-37.3 14.51-56.87a112 112 0 0 0 .28-14.6 78 78 0 0 0-2.25-14.15 55 55 0 0 0-9.24-19.01 54 54 0 0 0-6.9-7.8 61 61 0 0 0-10-7.24c-7.81-4.57-16.44-7.66-25.03-10.4q-3.54-1.13-7.1-2.2c-2.96-.88-4.23 3.75-1.28 4.63 8.57 2.58 17.2 5.24 25.27 9.1 6.7 3.2 13.4 7.32 18.24 13.04a55 55 0 0 1 9.5 15.26 65 65 0 0 1 4.03 25.06c-.37 18.46-2.73 37.49-10.13 54.56-3.56 8.22-8.21 16.09-14.87 22.18a39.6 39.6 0 0 1-24.15 10.34 37.8 37.8 0 0 1-24.54-6.81c-6.65-4.81-10.56-12.32-12.87-20.02a69 69 0 0 1-1.74-7.27 2.4 2.4 0 0 0-2.95-1.68 2.45 2.45 0 0 0-1.68 2.95Z" class="c"/><path d="M110.2 258.26H92.17c-3.09 0-3.1 4.8 0 4.8h18.01c3.09 0 3.1-4.8 0-4.8" class="c"/><path d="M51.14 76.58a8 8 0 0 0-3.58-.74 9 9 0 0 0-2.3.36 62 62 0 0 1-2.32-18.68 56.4 56.4 0 0 1 12.12-33.45c1.2 3.42 6.59 6.52 9.25 8.54 3.63 2.75 3 6.4.97 9.84a92 92 0 0 0-7.9 17.32c-1.99 5.9-2.98 12.03-4.48 18.02a7 7 0 0 0-1.76-1.2m97.5.3a7 7 0 0 0-1.56 1.28c-1.55-6.1-2.55-12.36-4.58-18.4a92 92 0 0 0-7.9-17.31c-2.03-3.45-2.66-7.1.97-9.84 2.75-2.09 8.4-5.33 9.36-8.88 6.5 8.07 11.57 19.1 12.19 33.79a60 60 0 0 1-2.25 18.62 9 9 0 0 0-2.1-.3 7.6 7.6 0 0 0-4.13 1.03" style="fill:#c6c6c6"/><path d="M157.37 75.99c3.92-15.3 2.5-31.73-5.25-45.63A60 60 0 0 0 125.69 5.6a62 62 0 0 0-46.06-2.16 60 60 0 0 0-29.25 22.99C41.98 38.93 39 54.52 41.32 69.3q.53 3.38 1.39 6.69c.77 2.99 5.4 1.72 4.63-1.28C43.7 60.56 45 45.34 52.27 32.5a55 55 0 0 1 24.2-22.59C89.5 3.71 105.4 3.23 118.97 8a54 54 0 0 1 26.57 20.84 55.5 55.5 0 0 1 8.54 39.42 72 72 0 0 1-1.35 6.45c-.77 3 3.86 4.27 4.63 1.28" class="c"/><path d="M53.06 25.5c1.35 3.09 4.48 5.24 7.14 7.12 2.24 1.59 5 2.99 4.1 6.17a24 24 0 0 1-2.47 4.88q-1.56 2.85-2.92 5.81a89 89 0 0 0-4.76 12.62c-1.41 4.96-2.33 10.05-3.57 15.06-.74 3 3.89 4.27 4.63 1.27 1.13-4.54 1.98-9.15 3.19-13.67a81 81 0 0 1 4.65-12.86q1.46-3.17 3.15-6.22a27 27 0 0 0 2.74-5.62 8.7 8.7 0 0 0-.1-5.34 10 10 0 0 0-3.87-4.59c-2.7-1.96-6.36-3.85-7.76-7.06a2.4 2.4 0 0 0-3.29-.86 2.46 2.46 0 0 0-.86 3.29m89.61-2.42c-1.24 2.84-4.33 4.64-6.78 6.35a14 14 0 0 0-4.14 3.8 8 8 0 0 0-1.1 5.19 15 15 0 0 0 2.11 5.64 95 95 0 0 1 3.27 6.16 82 82 0 0 1 4.94 12.7c1.5 5.1 2.42 10.35 3.7 15.51.74 3 5.37 1.73 4.63-1.27-1.09-4.4-1.93-8.84-3.07-13.22a87 87 0 0 0-4.5-12.76q-1.3-2.98-2.8-5.87c-.94-1.82-2.14-3.55-2.96-5.41a4.7 4.7 0 0 1-.35-3.77c.55-1.24 1.9-2 2.96-2.73 3-2.1 6.72-4.4 8.24-7.9a2.5 2.5 0 0 0-.86-3.28 2.4 2.4 0 0 0-3.28.86Z" class="c"/><path d="M54.6 76.1a10.4 10.4 0 0 0-11.4-1.66 10 10 0 0 0-5.2 6.98 26.4 26.4 0 0 0 4.05 20.6c2.87 4.18 6.95 7.17 12.21 6.45a2.4 2.4 0 0 0 1.68-2.95 2.47 2.47 0 0 0-2.95-1.68c-3.75.51-6.63-3.59-8.12-6.44a23 23 0 0 1-2.64-8.89 19 19 0 0 1 .28-5.32 12 12 0 0 1 .55-1.92 7 7 0 0 1 .48-.94c.06-.09.5-.7.17-.28a5.4 5.4 0 0 1 7.49-.56c2.28 2.07 5.68-1.32 3.39-3.4Zm94.53 3.4a5.4 5.4 0 0 1 7.48.55c-.34-.43.11.2.16.28a7 7 0 0 1 .5.94 12 12 0 0 1 .54 1.92 19 19 0 0 1 .28 5.32 23 23 0 0 1-2.64 8.89c-1.5 2.85-4.37 6.95-8.12 6.44a2.5 2.5 0 0 0-2.95 1.68 2.4 2.4 0 0 0 1.68 2.95c8.66 1.19 13.74-7.4 15.93-14.56a25 25 0 0 0 .6-11.14 11.2 11.2 0 0 0-4.47-7.77 10.4 10.4 0 0 0-12.39 1.1c-2.3 2.08 1.1 5.46 3.4 3.4" class="c"/><path d="M144.67 101.95a57 57 0 0 1-3.23 9.78c.29-.7-.2.42-.32.68q-.32.68-.67 1.34a60 60 0 0 1-1.89 3.31 59 59 0 0 1-12.7 15.11 23.4 23.4 0 0 1-9.43 4.9c-3 .69-1.73 5.32 1.28 4.62 7.24-1.67 13.26-6.99 17.96-12.5a64 64 0 0 0 9.87-14.95l.48-1.1c.06-.16.34-.81.07-.19q.57-1.3 1.1-2.64a47 47 0 0 0 2.1-7.08 2.46 2.46 0 0 0-1.67-2.95 2.4 2.4 0 0 0-2.95 1.67m-93.78 1.1a59 59 0 0 0 8.42 19.75c4.28 6.4 9.89 12.4 16.69 16.15a33 33 0 0 0 11.14 3.78 2.5 2.5 0 0 0 2.95-1.67 2.4 2.4 0 0 0-1.68-2.96c-13.97-2.06-24.4-14.13-29.74-26.52a56 56 0 0 1-3.15-9.8c-.68-3.01-5.3-1.74-4.62 1.27Zm40.5 14.66a19 19 0 0 0 9.27 2.14 15 15 0 0 0 9.36-2.75 2.4 2.4 0 0 0 0-3.4 2.46 2.46 0 0 0-3.4 0c.73-.57.16-.13-.02-.01s-.38.23-.58.33l-.3.15c-.38.2.08.02.09-.03-.02.1-.7.26-.8.3a14 14 0 0 1-2.2.5c.35-.06-.08 0-.22.01l-.65.05a22 22 0 0 1-3.63-.06c-.02 0-.8-.1-.31-.03a16 16 0 0 1-2.07-.46l-.86-.29c-.61-.2.35.18-.2-.08q-.53-.25-1.05-.52a2.45 2.45 0 0 0-3.29.86 2.43 2.43 0 0 0 .87 3.28Zm7-21.85a44 44 0 0 1 1.02 4.69l-.09-.64a3 3 0 0 1 .02.65l.09-.64-.08.29.25-.57-.1.18.37-.48-.15.15.48-.38-.37.2.58-.24a3 3 0 0 1-.63.18l.64-.08a3 3 0 0 1-.59 0l.64.08-.66-.11a2 2 0 0 0-.96-.04 2 2 0 0 0-.9.28 2.4 2.4 0 0 0-.85 3.29 2.3 2.3 0 0 0 1.43 1.1c.5.06 1 .2 1.5.21a5 5 0 0 0 2.23-.52 3.2 3.2 0 0 0 1.77-2.11 5 5 0 0 0-.02-2.28q-.4-2.26-1-4.48a2.4 2.4 0 1 0-4.62 1.27M74.65 82.6c-.78 2.54-.27 8.4 4.55 8.9 6.37-.05 6.7-7.12 4.56-10.45-1.75-2.72-6.91-3.85-9.1 1.55m51 0c.79 2.54.28 8.4-4.54 8.9-6.37-.05-6.71-7.12-4.57-10.45 1.76-2.72 6.92-3.85 9.11 1.55m-11.61 31.29q.5.96.92 1.96l-.24-.57a48 48 0 0 1 1.66 4.57 2.5 2.5 0 0 0 1.1 1.43 2.4 2.4 0 0 0 3.52-2.7q-.56-1.84-1.28-3.64a31 31 0 0 0-1.54-3.47 2.4 2.4 0 0 0-3.29-.87 2.45 2.45 0 0 0-.86 3.29Zm-31.16-2.81a33 33 0 0 0-1.63 3.65q-.75 1.89-1.36 3.84a2.4 2.4 0 0 0 1.68 2.96 2.45 2.45 0 0 0 2.95-1.68A50 50 0 0 1 86.3 115l-.24.57q.43-1.06.98-2.08a2.4 2.4 0 0 0-4.15-2.42Z" class="c"/><path d="M94.8 92.89c4.25-6.99 4.01-17.95-4.28-21.93a30 30 0 0 0-12.88-2.64c-4.14 0-8.63.5-12.3 2.57a15.4 15.4 0 0 0-7.2 8.57 17 17 0 0 0 .44 10.22c2.45 6.95 8.61 11.3 15.83 12.1a25 25 0 0 0 11.46-1.2 18.7 18.7 0 0 0 8.93-7.7c1.66-2.6-2.49-5.02-4.15-2.42a14 14 0 0 1-5.54 5.24 17 17 0 0 1-7.41 1.43c-5.42.04-10.68-1.76-13.52-6.66a13.5 13.5 0 0 1-1.8-6.9 9.3 9.3 0 0 1 3.37-7.14c2.3-2.03 5.23-2.79 8.21-3.1a30 30 0 0 1 10.78.66c3.16.82 6.44 2.31 7.53 5.69a13.2 13.2 0 0 1-1.62 10.79c-1.6 2.64 2.54 5.05 4.15 2.42m14.86-2.43c-3.1-5.08-3.3-13.18 3.23-15.62a28 28 0 0 1 10.65-1.7c3.16.08 6.55.43 9.32 2.08a10 10 0 0 1 4.9 6.37 13 13 0 0 1-.87 7.4 13.7 13.7 0 0 1-11.93 8.1 21 21 0 0 1-9.1-1.08 13.7 13.7 0 0 1-6.2-5.54c-1.65-2.6-5.81-.19-4.14 2.42a18.7 18.7 0 0 0 7.53 7.1 23 23 0 0 0 10.1 1.95c7.2-.05 14.2-3.19 17.57-9.85a18.4 18.4 0 0 0 1.96-9.63 14 14 0 0 0-5.28-9.88c-3.3-2.68-7.11-3.65-11.27-4.08a33 33 0 0 0-13.29 1.3c-4.3 1.37-8.19 4.28-9.49 8.8a18.2 18.2 0 0 0 2.17 14.3c1.6 2.62 5.75.21 4.14-2.44" class="c"/><path d="M95.18 83.64h9.96a2.4 2.4 0 1 0 0-4.8h-9.96a2.4 2.4 0 0 0 0 4.8" class="c"/><path d="M144.12 105.6c-.52 2.04-.89 3.95-1.2 4.97a42.6 42.6 0 0 1-21.78 25.1c-18.17 6-14.83 20.99-13.81 36.49 8.98-1.1 18.8-2.05 28.06-3.03-.34-2.2-.48-3.24-.87-5.97a7.3 7.3 0 0 1 3.74-7.48 28 28 0 0 0 3.95-2.36c8.48-6.42 12.9-10.53 15.36-18.57 2.43-7.93 3.88-18.1 4.73-31.35a77 77 0 0 0-.36-13.49 4.8 4.8 0 0 0-2.14-2.99 4.2 4.2 0 0 0-4.34 0c-2.92 1.53-4.28 7.24-4.28 7.24l-.96 4.04c-3.24-1.95-5 3.02-6.1 7.4" class="a"/><path d="M109.7 171.73c-.51-7.38-1.93-15.5.08-22.51a15 15 0 0 1 5.14-7.76 21 21 0 0 1 5.39-2.96 34 34 0 0 0 6.69-3.38 45 45 0 0 0 18.13-23.56c.94-3 1.33-6.15 2.45-9.1a14 14 0 0 1 .83-1.68l.25-.36c-.26.34-.05.06.01 0l.17-.2q-.21.16.05-.03.3-.16.02-.04c-.02.11-.13.02.2-.04-.63.12-.26.02-.14.06-.59-.17.98.25.3.06.42.12.52.29.8.77l.25.48c-.18-.39.04.15.07.26q.18.56.29 1.13a14 14 0 0 1 .19 2.27 35 35 0 0 1-.25 4.35 147 147 0 0 1-3.3 17.63c-.7 3 3.92 4.29 4.62 1.27a153 153 0 0 0 3.42-18.37 26 26 0 0 0-.15-8.89c-.87-3.58-4.52-7.25-8.44-5.25-3.18 1.62-4.24 6.13-5.02 9.3a46 46 0 0 1-3.78 11.06 42 42 0 0 1-9.84 12.09 37 37 0 0 1-6.18 4.23c-2.22 1.22-4.67 1.9-6.9 3.12a20 20 0 0 0-8.52 8.7c-4.06 8.44-2.25 18.39-1.63 27.36a2.46 2.46 0 0 0 2.4 2.4 2.4 2.4 0 0 0 2.4-2.4Z" class="c"/><path d="M153.5 94.8a13 13 0 0 1 2.08-4.82c.56-.75 1.67-1.71 2.88-1.07 1.35.73 1.16 2 1.27 3.37a121 121 0 0 1-.9 23.37 92 92 0 0 1-3.95 19.62c-2.07 5.96-6.5 10.17-11.33 14a38 38 0 0 1-5.48 3.79 11.3 11.3 0 0 0-4.67 4.1c-2.21 3.71-1.02 7.97-.42 11.97a2.4 2.4 0 0 0 2.95 1.67 2.46 2.46 0 0 0 1.68-2.95c-.46-3.04-1.77-6.86.76-9.3 1.34-1.3 3.34-1.92 4.86-3.02q2.6-1.91 5.09-3.97a42 42 0 0 0 7.37-7.54 29 29 0 0 0 4.3-8.93 117 117 0 0 0 3.94-22.21c.45-4.48.88-9 .93-13.5q.01-2.7-.2-5.4c-.14-1.96-.01-4.2-.85-6a6.9 6.9 0 0 0-11.37-1.7 17 17 0 0 0-3.57 7.23c-.73 3 3.9 4.28 4.63 1.28Z" class="c"/><path d="M58.15 105.53c-1.1-4.36-2.86-9.27-6.09-7.34l-.96-4.03s-1.36-5.71-4.28-7.25a4.2 4.2 0 0 0-4.33 0 4.8 4.8 0 0 0-2.15 3 77 77 0 0 0-.36 13.48c.85 13.26 2.3 23.42 4.73 31.35 2.46 8.04 6.88 12.16 15.37 18.57a28 28 0 0 0 3.94 2.37 7.3 7.3 0 0 1 3.75 7.48c-.4 2.77-.54 3.8-.9 6.07 9.27.94 19.1 1.82 28.08 2.91 1.03-15.5 4.36-30.49-13.8-36.48a42.6 42.6 0 0 1-21.8-25.1c-.3-1.03-.68-2.96-1.2-5.03" class="a"/><path d="M97.39 171.73c.55-8.02 2.09-16.73-.5-24.56a20 20 0 0 0-7.1-9.85A27 27 0 0 0 83.6 134a33 33 0 0 1-6.54-3.47 39 39 0 0 1-15.94-22.85c-.8-3.53-1.54-7.59-3.92-10.43-2.65-3.16-7.33-1.95-9.2 1.4-1.75 3.17-1.54 7.2-1.16 10.68a157 157 0 0 0 3.5 19.05c.7 3 5.32 1.74 4.62-1.27a141 141 0 0 1-3.24-16.99c-.11-1.11-.24-2.22-.29-3.34a26 26 0 0 1 .07-3.36c.01-.07.07-.47.01-.09l.13-.7a11 11 0 0 1 .31-1.12c.03-.08.18-.43 0-.05l.2-.38.28-.45c.22-.31-.37.36.08-.07l.3-.27c-.41.32.12-.05.2-.07-.53.13.54-.2.38-.08-.05.04.3.13-.21-.04l.32.09-.26-.1.22.14c-.03.1-.25-.28.01.04q.14.14.27.3c-.32-.39.1.16.13.21 1.49 2.59 2.08 5.92 2.82 9.05 2.14 9.1 8.29 17.43 15.58 23.1a42 42 0 0 0 6.3 4.13c2.07 1.08 4.33 1.7 6.38 2.84a15.3 15.3 0 0 1 6.82 7.25c1.46 3.26 1.73 7.2 1.68 11.02-.05 4.53-.56 9.04-.88 13.56a2.4 2.4 0 1 0 4.8 0Z" class="c"/><path d="M53.42 93.52a18 18 0 0 0-2.66-6.1c-2.52-3.5-7.25-4.83-10.68-1.66a7.4 7.4 0 0 0-2.22 5.28q-.26 2.85-.4 5.71a104 104 0 0 0 .58 12.8 136 136 0 0 0 3.63 23.26 36 36 0 0 0 3.64 9.28 34 34 0 0 0 6.56 7.67 94 94 0 0 0 5.27 4.3 54 54 0 0 0 5.83 3.78c3.67 2.15 2.22 6.6 1.7 10.01a2.5 2.5 0 0 0 1.69 2.95 2.4 2.4 0 0 0 2.95-1.67c.53-3.53 1.6-7.32.17-10.75a10 10 0 0 0-3.48-4.3c-1.56-1.1-3.35-1.82-4.9-2.98-5.06-3.8-10.17-7.92-12.9-13.8a44 44 0 0 1-2.62-8.65 114 114 0 0 1-1.77-10.05c-1.03-7.73-1.95-15.75-1.46-23.55q.1-1.49.22-2.96a6 6 0 0 1 .32-2.23 2.06 2.06 0 0 1 3.28-.48 11 11 0 0 1 2.62 5.41c.72 3 5.35 1.73 4.62-1.27Zm109.2 129.18c-2.41-10.62-4.72-21.26-7.03-31.9l-3.3-15.17c-.46-2.08-.76-4.28-1.4-6.3a5.4 5.4 0 0 0-2.59-3.1c-1.47-.8-2.92-.6-4.5-.41-12.37 1.42-24.78 2.48-37.14 4.02a15 15 0 0 0-4.4.8 5.4 5.4 0 0 0-2.75 3.13 14 14 0 0 0-.42 4.37q-.07 2.71-.1 5.42-.1 10.2.37 20.4c.7 15.34 2.9 30.54 5.28 45.7a2.4 2.4 0 0 0 2.96 1.67 2.46 2.46 0 0 0 1.67-2.95c-1.99-12.64-3.87-25.3-4.76-38.07q-.64-9.7-.72-19.43-.05-4.76.03-9.52l.1-4.7c.03-.67-.08-1.48.5-1.72a8 8 0 0 1 1.8-.25l2.17-.26 4.42-.52q4.53-.51 9.07-.98 8.81-.9 17.62-1.83l4.3-.48c.58-.07 1.94-.53 2.41-.04.39.4.45 1.75.57 2.32l.74 3.36 3.02 13.88c2.45 11.29 4.89 22.58 7.45 33.84.69 3 5.32 1.73 4.63-1.28" class="c"/><path d="M44.18 224.86q3.35-14.85 6.59-29.73l3.2-14.69 1.4-6.33.61-2.8c.21-.88.49-.81 1.35-.72 11.92 1.27 23.87 2.34 35.78 3.73q2.17.23 4.32.53c.7.1.84.13.99.8a14 14 0 0 1 .07 2.49l.05 2.47q.05 2.45.06 4.9.05 9.7-.43 19.4c-.7 14.6-2.8 29.04-5.07 43.46a2.5 2.5 0 0 0 1.68 2.95 2.4 2.4 0 0 0 2.95-1.68c2.16-13.7 4.22-27.45 5.06-41.3q.6-10.2.62-20.39 0-5.16-.13-10.31a10.4 10.4 0 0 0-.71-4.6 5.3 5.3 0 0 0-3.18-2.7 28 28 0 0 0-4.54-.62l-4.84-.56-9.5-1c-6.3-.63-12.62-1.22-18.92-1.9-2.85-.31-6.14-1.3-8.54.8-1.8 1.59-1.99 4.28-2.47 6.5l-3.19 14.55c-2.58 11.83-5.15 23.66-7.84 35.46-.68 3 3.95 4.3 4.63 1.28Z" class="c"/></svg>
