<svg xmlns="http://www.w3.org/2000/svg" viewBox="0 -10.34 335.498 335.498"><defs><style>.c{fill:#211715}.d{fill:#fff}</style></defs><path d="M298.82 41.71a1514 1514 0 0 0-22.26-18.58 3.93 3.93 0 0 0-6.43 3.04v56.59a12.4 12.4 0 0 0 4.51 9.56c7.76 6.4 15.17 12.5 23.4 19.43a5.2 5.2 0 0 0 3.35 1.22V42.65a4 4 0 0 1-2.57-.94" style="fill:#ffda71"/><path d="M326.23 23.02c-7.42 6-14.97 12.35-22.29 18.67a4 4 0 0 1-2.55.96v70.32a5.2 5.2 0 0 0 3.35-1.22c8.22-6.93 15.63-13.03 23.38-19.42a12.4 12.4 0 0 0 4.53-9.6V26.1a3.94 3.94 0 0 0-6.42-3.08" style="fill:#74c66d"/><path d="M298.59 43.13v68.42c0 3.6 5.6 3.6 5.6 0V43.13c0-3.6-5.6-3.6-5.6 0" class="c"/><path d="M300.8 39.73q-8.62-7.32-17.34-14.53l-4.16-3.43a8.4 8.4 0 0 0-4.62-2.3 6.7 6.7 0 0 0-6.69 3.8c-1 2.19-.66 4.8-.66 7.15v23.31c0 9.67-.14 19.36 0 29.03a15.3 15.3 0 0 0 2.82 8.78c1.99 2.74 4.88 4.7 7.47 6.85q8.26 6.81 16.47 13.7a26 26 0 0 0 4.35 3.46 6.4 6.4 0 0 0 5.4.22c1.7-.72 3.07-2.2 4.47-3.37q2.2-1.86 4.41-3.7 8.13-6.8 16.32-13.51c3.93-3.25 6.38-7.42 6.4-12.63V37.5c0-3.78.13-7.59 0-11.37a6.9 6.9 0 0 0-3.26-5.81c-2.82-1.73-5.88-.91-8.3 1.02a714 714 0 0 0-17.13 14.26l-4.06 3.47c-.49.43-.73.78-1.37.81za2.9 2.9 0 0 0-3.96 0c-.96.97-1.2 3.03 0 3.96a6.9 6.9 0 0 0 9.08-.02c2.75-2.26 5.4-4.65 8.13-6.95s5.45-4.58 8.2-6.85l4.1-3.36c.51-.42 1.01-.88 1.55-1.26 0 0 .84-.41.4-.24.48-.2-.18-.07.37-.07.77 0-.4-.16.35.05.8.24-.22-.13.21.1.11.05.54.4.21.12.5.44-.07-.27.26.3.19.34.12.15.14.58v46.45c0 3.38.04 6.77 0 10.16a10 10 0 0 1-1.62 5.4 13 13 0 0 1-2.8 2.84l-3.88 3.2q-7.88 6.5-15.7 13.05a42 42 0 0 1-3.86 3.26c-.83.54-1.2-.03-2.05-.75q-4.03-3.4-8.09-6.77c-5.14-4.29-10.5-8.4-15.5-12.84a10 10 0 0 1-3.36-6.19 50 50 0 0 1-.05-5.7V26.17c.01-.63-.04-.26.15-.58.22-.36 0-.14.35-.36a.9.9 0 0 1 .83-.2c.44.1-.5-.27.24.08-.44-.2.41.26.4.25.54.39 1.05.87 1.57 1.3l4.36 3.59q4.04 3.34 8.05 6.72 4 3.35 7.96 6.72a2.87 2.87 0 0 0 3.96 0 2.8 2.8 0 0 0 0-3.96" class="c"/><path d="M104.13 65.54c8.2-8.29 22.62-15 47.78-15 68.97 0 58.65 45.84 58.65 45.84a9 9 0 0 1 6.6-2.41c4.73.16 6.74 2.72 7.6 4.22 2.59 4.48 2.48 12.74.74 17.85-1.22 3.62-3.24 9.16-8.09 13.13a10 10 0 0 1-7.75 2.24l-.75-.12a59 59 0 0 1-2.67 7.24c-1.86 5.06-11.72 22.13-24.45 30.16a65 65 0 0 0 1.14 9.3c.7 3.66 1.87 7.1 6.1 8.76.26.09 9.06 3.88 13.82 5.92-9.46 7.2-29.87 14.68-47.82 14.64-19.83-.05-37.96-8.1-49.34-15.52 5.36-2.25 11.79-4.97 12-5.04 4.08-1.67 5.38-5.1 6.1-8.75a63 63 0 0 0 1.08-8.1c-5.9-3.04-11.24-7.68-16.35-13.78a69 69 0 0 1-13.16-24.85 9.9 9.9 0 0 1-8.4-2.1c-4.85-3.97-6.86-9.5-8.09-13.12-1.73-5.11-1.84-13.37.74-17.85.87-1.5 2.88-4.07 7.6-4.23a9 9 0 0 1 6.6 2.41s-2.91-17.47 10.32-30.84" class="d"/><path d="M84.13 52.65c-3.84 13.39-4.19 28.29.24 41.77a11 11 0 0 1 2.84-.45 9 9 0 0 1 6.6 2.41l9.33-7.83c7-7.8 19.36-19.56 28.04-24.11 1.01-.54 2.32.19 2.73 1.88a11 11 0 0 1 .27 4.07 2.12 2.12 0 0 0 3.02 2.28c6.19-3.44 17.22-10.36 25.04-13.66l11.6 1.43a37 37 0 0 1 10.68 6.71c7.04 6.06 13.8 14.37 16.78 21.9l9.26 7.33a9 9 0 0 1 6.6-2.41 11 11 0 0 1 3.16.55c5.71-22.78 2.29-52.21-15.54-66.36l-7.03-7C189.87 10.1 173.9 3.7 153.45 2.88c-22.6-1.2-40.62 9.84-50.3 18.41-8.72 7.5-15.42 18.76-19.03 31.36" style="fill:#85807f"/><path d="M95.8 94.4a12.7 12.7 0 0 0-14.29-1.82c-3.32 1.71-5.2 5.13-6.01 8.66a32.6 32.6 0 0 0 5.06 24.98c3.49 5.06 8.5 8.8 14.9 7.89 1.5-.21 2.32-2.12 1.96-3.44a2.87 2.87 0 0 0-3.45-1.96c-3.46.5-6.52-2.44-8.36-5a30 30 0 0 1-4.04-8.4 25 25 0 0 1-1.05-10.3 15 15 0 0 1 1.12-4.68c-.1.23.26-.5.31-.6l.34-.56c.37-.6-.15.09.15-.22l.62-.67.37-.32c-.23.19-.11.08.06-.04a7 7 0 0 1 1.12-.63 9 9 0 0 1 2.18-.5 6.5 6.5 0 0 1 5.04 1.57c2.66 2.43 6.63-1.52 3.96-3.96" class="c"/><path d="M87.07 93.68a68 68 0 0 1-1.38-35.83c2.46-11.02 7.37-21.84 14.94-30.19a68.5 68.5 0 0 1 25.12-17.19 66 66 0 0 1 18.13-4.58 81 81 0 0 1 20.53.85 63 63 0 0 1 18.52 5.7 35 35 0 0 1 12.4 10.14 2.9 2.9 0 0 0 3.83 1 2.8 2.8 0 0 0 1-3.84c-6.85-9.52-17.86-14.8-29.05-17.39-13.83-3.2-28.63-3.4-42.2 1.02a79 79 0 0 0-29.33 17.36c-8.88 8.36-14.88 19.66-18.19 31.3a76 76 0 0 0-1.02 38.6q.56 2.3 1.3 4.55c1.1 3.41 6.52 1.95 5.4-1.5m125.47 4.68a7 7 0 0 1 8.34-.44c.38.25-.06-.13.34.28l.57.58.27.33c-.06-.08-.3-.49-.08-.1.1.2.25.4.36.6a13 13 0 0 1 1.37 4.34c1.04 6.38-.8 13.18-4.13 18.52-1.87 3-5.2 6.8-9.18 6.24a2.9 2.9 0 0 0-3.45 1.96c-.36 1.3.45 3.23 1.96 3.44 10.5 1.5 16.55-8.9 19.34-17.47a30 30 0 0 0 .92-13.83c-.58-3.75-2.1-7.3-5.24-9.57-4.57-3.3-11.3-2.54-15.35 1.16-2.67 2.44 1.3 6.39 3.96 3.96" class="c"/><path d="M207.31 126.26a56 56 0 0 1-2.17 7.53c-.7 1.94-1.2 2.76-1.85 4.62-.11.34.33-.7.1-.21l-.16.34-.31.67q-.45.94-.95 1.87a76 76 0 0 1-2.33 4.07 72 72 0 0 1-15.61 18.5 29 29 0 0 1-11.7 6.09c-3.52.8-2.03 6.2 1.48 5.4 8.87-2.04 16.25-8.55 22.02-15.28a79 79 0 0 0 12.27-18.56q.41-.95.8-1.92c-.35.86-.03.1.04-.05l.5-1.15q.35-.86.68-1.73a57 57 0 0 0 2.6-8.7 2.87 2.87 0 0 0-1.96-3.45 2.83 2.83 0 0 0-3.44 1.96Zm-115.82 1.28a73 73 0 0 0 10.37 24.31c5.28 7.92 12.22 15.33 20.63 19.95a41 41 0 0 0 13.65 4.62 2.9 2.9 0 0 0 3.44-1.95c.36-1.32-.45-3.23-1.96-3.45a39 39 0 0 1-20.86-10.27 66 66 0 0 1-16.03-22.71 69 69 0 0 1-3.84-12c-.8-3.5-6.2-2.02-5.4 1.5m49.95 18a23.6 23.6 0 0 0 11.36 2.62c4.06-.03 8.18-.82 11.44-3.36 1.19-.93.97-2.98 0-3.96a2.87 2.87 0 0 0-3.96 0c.84-.65.15-.13-.07.01s-.47.29-.7.41c-.2.1-1.04.45-.3.17q-.49.19-.99.36a17 17 0 0 1-2.73.62c.39-.06-.18.02-.3.03l-.81.07q-.97.06-1.95.05a25 25 0 0 1-2.54-.13s-.93-.12-.43-.05a19 19 0 0 1-2.55-.56l-1.06-.36-.34-.13c.7.2.24.1.05.01q-.66-.3-1.3-.64a2.86 2.86 0 0 0-3.83 1 2.83 2.83 0 0 0 1 3.83Zm10.02-26.89a54 54 0 0 1 1.26 5.79l-.1-.75a4 4 0 0 1 .03.8l.1-.74-.1.36.29-.67-.13.23.44-.57-.19.2.57-.45-.46.25.67-.29a3 3 0 0 1-.77.23l.74-.1a3 3 0 0 1-.72 0l.74.1-.81-.14a3 3 0 0 0-2.16.28 2.8 2.8 0 0 0-1 3.83 2.7 2.7 0 0 0 1.67 1.29c.6.08 1.2.23 1.82.26a6 6 0 0 0 2.65-.63 3.8 3.8 0 0 0 2.12-2.5 6 6 0 0 0-.03-2.73 64 64 0 0 0-1.23-5.54 2.8 2.8 0 0 0-5.4 1.49m-30.77-16.35c-.96 3.14-.33 10.37 5.62 10.98 7.86-.04 8.28-8.78 5.63-12.89-2.17-3.36-8.54-4.76-11.25 1.91m62.99 0c.96 3.14.33 10.37-5.62 10.98-7.86-.05-8.28-8.78-5.63-12.89 2.17-3.36 8.54-4.76 11.25 1.91" class="c"/><path d="M99.29 197.42c1.42-.46 2.8-1.12 4.17-1.7q3.79-1.57 7.56-3.16l6.25-2.63c2.53-1.06 4.8-2.2 6.5-4.47 2.9-3.86 3.34-9.46 3.79-14.11a2.8 2.8 0 0 0-2.8-2.8 2.86 2.86 0 0 0-2.8 2.8 57 57 0 0 1-.98 6.4 11 11 0 0 1-1.66 4.36 6 6 0 0 1-1.23 1.24 9 9 0 0 1-1.1.66c-1.04.55.16-.05-.12.07l-1.35.56q-6.56 2.77-13.14 5.52c-1.5.63-3.02 1.36-4.58 1.86-3.42 1.1-1.96 6.5 1.49 5.4m79.91-25.83c.41 4.13.82 8.68 2.75 12.43a11.4 11.4 0 0 0 3.79 4.18c.9.6 2.03.83 2.93 1.4-.26-.16-.7-.29-.22-.08l.4.17 1.25.53 3.07 1.32 6.98 3c1.64.7 3.27 1.46 4.93 2.1a2.8 2.8 0 0 0 3.45-1.95 2.86 2.86 0 0 0-1.96-3.45l-.29-.12c-.5-.2.62.27.26.11l-.44-.19-2.35-1-6.44-2.76-5.57-2.39c-1.64-.7-3.16-1.24-4.24-2.53l-.1-.14-.33-.5a14 14 0 0 1-.51-1 18 18 0 0 1-.67-2.25 53 53 0 0 1-1.09-6.87 2.9 2.9 0 0 0-2.8-2.8 2.8 2.8 0 0 0-2.8 2.8Zm23.6-141.45c14.15 11.34 18.1 31.06 17.11 48.44a81 81 0 0 1-2.3 15.19c-.86 3.5 4.54 4.99 5.4 1.49a89 89 0 0 0 2.28-29.4c-.9-9.69-3.38-19.39-8.38-27.8a44 44 0 0 0-10.16-11.88 2.9 2.9 0 0 0-3.96 0 2.8 2.8 0 0 0 0 3.96m-30.38 32.71a47 47 0 0 1 15.14 11.04c4.42 4.6 8.63 9.93 11.04 15.9a2.9 2.9 0 0 0 3.44 1.96A2.8 2.8 0 0 0 204 88.3a59 59 0 0 0-12.18-18.05c-4.8-5.05-10.15-9.43-16.57-12.23a2.9 2.9 0 0 0-3.83 1c-.7 1.18-.39 3.22 1 3.83Zm-67.3 27.68c6.93-7.7 14.6-15.24 23.2-21.08q1.33-.9 2.71-1.73c.24-.14 1.2-.48 1.3-.73-.12.28-1.4-.07-1.23-.3-.08.1.33 1.53.34 1.84.03.62-.04 1.23-.06 1.86a5.1 5.1 0 0 0 2.15 4.44c2.58 1.8 5.03.3 7.37-1.05l6.58-3.83a148 148 0 0 1 16.17-8.53c1.4-.59 1.7-2.64 1-3.83a2.87 2.87 0 0 0-3.83-1 136 136 0 0 0-14.5 7.55l-6.84 3.99-2.85 1.64a6 6 0 0 0-.62.34c-.54.4.12-.06.44.02.7.2.48 1.08.55-.07.18-2.81-.24-6.46-2.94-8.01-2.65-1.52-5.27.4-7.47 1.83a103 103 0 0 0-12.78 10.06 170 170 0 0 0-12.65 12.62c-2.4 2.67 1.54 6.65 3.96 3.96Z" class="c"/><path d="M204.4 275.23a948 948 0 0 0-50.6-1.42c-40.45 0-91.65 3.13-131.09 9.61 4.56-20.35 9.74-38.54 20.32-54.36 12.92-19.3 33.8-28.74 55.15-35.59l6.96-2.05c11.34 7.53 29.74 15.84 49.89 15.89 18.5.05 39.62-7.9 48.67-15.3l4.99 1.47c21.34 6.85 42.22 16.28 55.14 35.58 10.57 15.8 15.74 33.94 20.3 54.24-23.99-3.9-52.23-6.57-79.74-8.07" class="d"/><path d="M26.13 281c4.29-18.55 9.67-37.63 21.17-53.14 10.42-14.05 26.33-22.6 42.43-28.53a276 276 0 0 1 17.5-5.6c3.46-1.02 1.99-6.42-1.48-5.4-13.76 4.05-27.48 8.57-39.88 15.95a80 80 0 0 0-20.78 17.39c-6.23 7.54-10.85 16.25-14.56 25.26-4.32 10.5-7.24 21.53-9.8 32.58-.8 3.5 4.6 5 5.4 1.49" class="c"/><path d="M103.13 193.45a99 99 0 0 0 38.59 15.5c15.39 2.53 30.98.4 45.52-5.07 6.53-2.46 13-5.48 18.45-9.9a2.8 2.8 0 0 0 0-3.96 2.87 2.87 0 0 0-3.96 0l-.27.21-.66.5q-.82.6-1.67 1.15a55 55 0 0 1-3.54 2.1 73 73 0 0 1-8.02 3.8 99 99 0 0 1-20.6 5.75c-14.5 2.38-29.17.06-42.75-5.3a96 96 0 0 1-18.27-9.62 2.8 2.8 0 1 0-2.82 4.83" class="c"/><path d="M286.13 279.5c-4.4-19.07-10.03-38.9-21.96-54.79-11.21-14.94-27.58-24.1-44.8-30.51-6-2.24-12.1-4.06-18.24-5.87-3.47-1.02-4.95 4.38-1.5 5.4 13.2 3.88 26.3 8.16 38.21 15.19a75 75 0 0 1 19.86 16.56c5.8 6.98 10.17 15.32 13.56 23.71 4.15 10.28 6.98 21.03 9.47 31.8.81 3.51 6.22 2.03 5.4-1.49" class="c"/><path d="M52.05 136.97q-8.2-9.06-16.45-18.37l-4.7 34.53c39.43 38.95 83.97 85.9 130.9 122.63a711 711 0 0 1 31.45.19c-42.17-35.47-90.94-83.49-141.2-138.98" style="fill:#e2e2e2"/><path d="M33.62 120.58q31.5 35.57 64.59 69.71c19.82 20.37 40.1 40.3 61.07 59.5q15.6 14.29 31.76 27.95a2.9 2.9 0 0 0 3.96 0 2.8 2.8 0 0 0 0-3.96 1136 1136 0 0 1-58-52.68q-32.33-31.28-62.92-64.29-18.51-19.86-36.5-40.2a2.8 2.8 0 0 0-3.96 3.97m-4.7 34.52c16.24 16.04 32.25 32.3 48.5 48.34 16.96 16.72 34.17 33.22 52.04 48.97 9.95 8.77 20.1 17.3 30.55 25.47a2.9 2.9 0 0 0 3.96 0c.97-.97 1.2-3.03 0-3.96-18.73-14.65-36.54-30.44-53.87-46.72-17.18-16.13-33.88-32.76-50.53-49.43q-13.33-13.34-26.7-26.63c-2.56-2.53-6.52 1.42-3.95 3.96" class="c"/><path d="M229.3 292.46c0-40.5-30.84-74.6-75.07-74.6-44.38 0-75.06 34.37-75.06 74.6l-20.87-.2c0-51.41 39.21-95.35 95.94-95.35 56.53 0 95.95 43.59 95.95 95.35Z" style="fill:#7a7473"/><path d="M252.98 292.26a100 100 0 0 0-17.15-56.3 96 96 0 0 0-46.32-35.82 105.4 105.4 0 0 0-63.59-2.22 95.7 95.7 0 0 0-48.95 32.3 99.7 99.7 0 0 0-21.2 54.73q-.27 3.65-.27 7.32c0 3.6 5.6 3.6 5.6 0a94.5 94.5 0 0 1 16.24-53.2 90 90 0 0 1 43.35-33.6 100 100 0 0 1 60.3-2.18 90.4 90.4 0 0 1 46.3 30.5 93.6 93.6 0 0 1 19.83 51.11q.26 3.67.26 7.37c0 3.6 5.6 3.6 5.6 0Z" class="c"/><path d="M96.97 257.23c3.94-1.74 8.23.02 9.69 1.74 1.64 1.94 2.5 5.87 2.14 8.39a36 36 0 0 1-4.03 11.47 10.8 10.8 0 0 1-8.4 5.43s-8 1.21-9.45-4.9 10.05-22.13 10.05-22.13m112.93 0c-3.94-1.74-8.24.02-9.69 1.74-1.64 1.94-2.5 5.87-2.14 8.39a36 36 0 0 0 4.03 11.47 10.8 10.8 0 0 0 8.4 5.43s10.08 2.5 9.2-7.12c-.9-9.9-9.8-19.91-9.8-19.91" class="d"/><path d="M232.1 292.46a79 79 0 0 0-13.53-44.4 76 76 0 0 0-36.6-28.27 83 83 0 0 0-50.1-1.72 75.4 75.4 0 0 0-38.48 25.36 78.7 78.7 0 0 0-16.8 43.2 81 81 0 0 0-.21 5.83c-.01 3.6 5.59 3.6 5.6 0a73.3 73.3 0 0 1 12.53-41.19 70 70 0 0 1 33.57-26.1 77.7 77.7 0 0 1 46.82-1.77 70 70 0 0 1 36.08 23.75 72.7 72.7 0 0 1 15.32 39.62q.2 2.84.2 5.69c0 3.6 5.6 3.6 5.6 0" class="c"/><path d="M97.71 259.93a6.8 6.8 0 0 1 4.66-.33 5 5 0 0 1 2.24 1.27c1.56 2.07 1.67 5.13 1.19 7.39-1.1 5.1-3.41 12.53-9.43 13.2a2.9 2.9 0 0 0-2.8 2.8 2.8 2.8 0 0 0 2.8 2.8 14 14 0 0 0 10.63-6.5 34 34 0 0 0 4.41-11.92c.66-3.9-.06-8.6-2.77-11.65-2.93-3.28-8.48-4.07-12.42-2.46a2.9 2.9 0 0 0-1.95 3.44c.36 1.33 2.03 2.53 3.44 1.96" class="c"/><path d="M63.29 240.32c11.43-4.08 27.42 1.23 33.6 12.06 2.38 4.16 2.33 10.98-4.15 12.63 4.1 3.74 4.5 8.52 2.2 12.19-1.08 1.73-3.75 2.55-5.73 2.62a13 13 0 0 1-3.22-.3l.29.3a7.9 7.9 0 0 1 1.76 7.18 9 9 0 0 1-3.67 5.97c-2.7 1.66-7.38.86-9.77-.37l-.47-.25.58.72c2.2 2.67-.44 7.73-2.43 9.05-5.72 3.78-12.37.37-18.85-2.73-5-2.4-9.68-7.32-11.05-12.06-1.1-3.81-1.57-6.65-1.08-13.27.87-11.77 5.72-22.38 16.67-30.87a19 19 0 0 1 5.32-2.87" class="d"/><path d="M91.4 267.62c2 2.16 2.8 5 1.48 7.54a3.2 3.2 0 0 1-2.5 1.7 6 6 0 0 1-2.04.16 10 10 0 0 1-2.36-.4c-3.42-.93-6.63-2.92-9.81-4.45-3.45-1.65-6.91-3.3-10.32-5.05-3.2-1.65-6.04 3.18-2.83 4.83 3.15 1.62 6.34 3.15 9.52 4.68 3.26 1.56 6.48 3.3 9.83 4.66 6.38 2.59 14.98 1.4 16.5-6.45a12.6 12.6 0 0 0-3.51-11.18c-2.46-2.65-6.41 1.32-3.96 3.96" class="c"/><path d="M84.3 281.8a4.8 4.8 0 0 1 1.15 3.43 8 8 0 0 1-1.1 3.78c-1.43 2.4-3.92 2.43-6.52 1.8a17 17 0 0 1-3.97-1.7q-2.61-1.28-5.26-2.5a97 97 0 0 1-9.79-5.01c-3.08-1.9-5.9 2.95-2.82 4.83A122 122 0 0 0 68 292.5c3.9 1.84 7.49 4.04 11.9 4.22a10.1 10.1 0 0 0 10.1-6.6 11.5 11.5 0 0 0-1.75-12.27 2.8 2.8 0 1 0-3.96 3.96Z" class="c"/><path d="M72.3 294.49s.5.79.29.33c.01.03.2.9.14.39a2.4 2.4 0 0 1-.09 1.23 8 8 0 0 1-1.33 2.79c.07-.1-1.07.9-.44.48a7 7 0 0 1-1.81.9 9 9 0 0 1-4.14.25c-3.4-.57-6.58-2.2-9.65-3.68a22 22 0 0 1-7.15-5.37 15.5 15.5 0 0 1-3.4-6.58 22 22 0 0 1-.8-6.2 46 46 0 0 1 2.68-16.46 38 38 0 0 1 8.98-13.59 29 29 0 0 1 6.2-4.94 20 20 0 0 1 8.78-2.28 29 29 0 0 1 3.7.1 21 21 0 0 1 2.95.45 33 33 0 0 1 3.65 1 26.4 26.4 0 0 1 11.22 7.17c1.47 1.62 3.08 3.87 3.4 6.23.27 2.1-.67 5.4-2.94 5.03a15 15 0 0 1-4.16-1.8q-2.7-1.34-5.43-2.63c-3.3-1.57-6.62-3.12-9.88-4.78-3.2-1.63-6.04 3.2-2.83 4.84 3.33 1.7 6.72 3.27 10.1 4.88q2.7 1.27 5.4 2.61a25 25 0 0 0 4.97 2.2 8 8 0 0 0 9.33-4.46 12.6 12.6 0 0 0-.2-10.56c-2.26-5.13-7.18-9.26-12.05-11.82a35 35 0 0 0-16.62-4.07 25.5 25.5 0 0 0-15.86 5.6 44.5 44.5 0 0 0-12.66 15.85 50 50 0 0 0-4.32 19.74c-.17 6.2 1.04 12.39 4.94 17.35a25.5 25.5 0 0 0 8.22 6.85 47 47 0 0 0 11.32 4.6c3.86.83 8.1.53 11.34-1.94a11.5 11.5 0 0 0 4.17-8.1 6.7 6.7 0 0 0-1.19-4.44 2.9 2.9 0 0 0-3.83-1 2.8 2.8 0 0 0-1 3.83m138.34-39.96c-3.94-1.61-9.48-.82-12.41 2.46-2.71 3.04-3.43 7.75-2.77 11.65a34 34 0 0 0 4.41 11.92 14 14 0 0 0 10.63 6.5 2.8 2.8 0 0 0 2.8-2.8 2.87 2.87 0 0 0-2.8-2.8c-6.02-.67-8.33-8.09-9.43-13.2a9.7 9.7 0 0 1 1.1-7.26 3 3 0 0 1 .74-.69 6 6 0 0 1 1.58-.7 6.8 6.8 0 0 1 4.66.31c1.4.58 3.08-.62 3.45-1.95a2.87 2.87 0 0 0-1.96-3.44" class="c"/><path d="M243.58 240.32c-11.43-4.08-27.42 1.23-33.6 12.06-2.38 4.16-2.33 10.98 4.15 12.63-4.1 3.74-4.5 8.52-2.2 12.19 1.08 1.73 3.75 2.55 5.72 2.62a13 13 0 0 0 3.23-.3l-.29.3a7.9 7.9 0 0 0-1.76 7.18 9 9 0 0 0 3.66 5.97c2.7 1.66 7.39.86 9.78-.37l.47-.25-.59.72c-2.19 2.67.45 7.73 2.44 9.05 5.72 3.78 12.37.37 18.85-2.73 5-2.4 9.68-7.32 11.05-12.06 1.1-3.81 1.56-6.65 1.07-13.27-.87-11.77-5.7-22.38-16.66-30.87a19 19 0 0 0-5.32-2.87" class="d"/><path d="M211.5 263.66a12.7 12.7 0 0 0-3.74 9.58c.29 3.32 1.83 6.69 4.97 8.18 7.02 3.31 13.96-1.13 20.2-4.12 3.65-1.76 7.31-3.5 10.91-5.35 3.2-1.65.38-6.48-2.82-4.83-3.4 1.75-6.87 3.4-10.32 5.05-3.18 1.53-6.4 3.52-9.81 4.45a10 10 0 0 1-2.36.4 6 6 0 0 1-2.04-.17 3.2 3.2 0 0 1-2.5-1.69c-1.33-2.55-.53-5.38 1.48-7.54 2.45-2.64-1.5-6.6-3.96-3.96" class="c"/><path d="M218.61 277.84a11.5 11.5 0 0 0-1.75 12.28 10.1 10.1 0 0 0 10.1 6.59c4.4-.18 8-2.38 11.9-4.22a122 122 0 0 0 12.02-6.06c3.07-1.88.26-6.72-2.82-4.83a96 96 0 0 1-9.59 4.91q-2.64 1.23-5.27 2.5c-.86.42-1.71.9-2.59 1.3a14 14 0 0 1-1.57.5c-2.5.61-5 .64-6.42-1.64a8 8 0 0 1-.9-2.08 11 11 0 0 1-.24-1.1c.07.45-.04-.49-.05-.6a4.7 4.7 0 0 1 1.14-3.58 2.87 2.87 0 0 0 0-3.96 2.83 2.83 0 0 0-3.96 0Z" class="c"/><path d="M229.74 291.66c-2.04 2.72-1.2 6.56.3 9.31a10.7 10.7 0 0 0 8.05 5.44c4.07.6 7.98-.66 11.68-2.24a41 41 0 0 0 10.17-5.72 23 23 0 0 0 6.5-8.38 28 28 0 0 0 1.98-8.32 48 48 0 0 0-2.27-19.33 44 44 0 0 0-10.62-17.12c-4.32-4.32-9.2-7.75-15.33-8.73-11.4-1.82-24.06 2.7-31.07 12.02a15.7 15.7 0 0 0-3.38 8.65c-.18 3.63 1.5 7.64 4.88 9.33 3.66 1.82 7.2-.04 10.5-1.71 3.6-1.83 7.28-3.5 10.92-5.25q2.3-1.1 4.57-2.25c3.21-1.63.38-6.47-2.83-4.83-2.9 1.48-5.87 2.87-8.82 4.27-3.03 1.45-6 3.1-9.08 4.43a4 4 0 0 1-2.44.5 3.6 3.6 0 0 1-1.96-2.6 8.2 8.2 0 0 1 1.53-6.37 24 24 0 0 1 10.15-8.34 29 29 0 0 1 13.13-2.66 21 21 0 0 1 6.28 1.16 18 18 0 0 1 5.34 3.05 41 41 0 0 1 10.92 13.32 40 40 0 0 1 3.96 15.25q.17 2.25.15 4.48 0 .99-.07 1.98l-.06.75c-.01.1-.13 1.05-.06.54a20 20 0 0 1-1.78 6.27 19.4 19.4 0 0 1-6.55 7.05 41 41 0 0 1-10.2 4.69 12 12 0 0 1-5 .65 7 7 0 0 1-2-.54c-.3-.13-.57-.32-.85-.47q-.67-.45-.16-.06-.18-.15-.35-.33a8 8 0 0 1-1.52-2.65c-.36-1.2-.35-1.65.22-2.41a2.8 2.8 0 0 0-1-3.83 2.87 2.87 0 0 0-3.83 1" class="c"/><path d="M304.83 302.06v-14.83c-40.68-9.06-103.34-13.42-151.04-13.42S43.44 278.17 2.75 287.23v23.59a4 4 0 0 0 4 4h294.08a4 4 0 0 0 4-4Z" class="d"/><path d="M305.58 284.53c-18.44-4.1-37.24-6.6-56.01-8.56a932 932 0 0 0-62.67-4.33q-29.38-1.08-58.77-.25-31.35.91-62.61 3.83a557 557 0 0 0-57.55 8.05q-2.99.6-5.96 1.26c-3.52.78-2.03 6.18 1.49 5.4a485 485 0 0 1 55.01-8.41 933 933 0 0 1 62.17-4.28q29.38-1.08 58.78-.25 30.97.9 61.85 3.76a545 545 0 0 1 56.82 7.92q2.99.6 5.96 1.26c3.5.78 5-4.61 1.49-5.4" class="c"/></svg>
