<svg xmlns="http://www.w3.org/2000/svg" viewBox="0 -7.82 299.507 299.507"><defs><style>.a{fill:#fff}.c{fill:#211715}.d{fill:#c6c6c6}</style></defs><path d="M148.55 133.49c-.4-1.5-.76-3.05-1.1-4.93 4.03 1.34 56.15-20.68 57.02-21.94l1.49 6.8c1.24 5.13 2.08 7.33 3.36 8.98a20 20 0 0 1-2.26 6.99c-2.84 5.6-5.33 10.05-8.53 13.91a40 40 0 0 1-7.56 7.05 45 45 0 0 1-6.1-3.18c-4.2-2.79-9.97-5.8-13.38-8.3a241 241 0 0 0-11 9.34c-1.99 1.46-3.3 2.46-5.7 4.1-1.03-2.45-1.87-5.05-3.02-7.85-1.4-5.08-2.4-7.93-3.22-10.97" class="a"/><path d="M189.7 121.32a52 52 0 0 0 5.55-4.12 63 63 0 0 0 7.52-8.2s2.2-2.94 3.16-4.65l.65-1.14a14 14 0 0 0 7.77-1.06 19.5 19.5 0 0 0 7.96-8.18 20 20 0 0 0 2.45-10.56c4.45-6.04 5.55-18.58 6.2-23.81a46 46 0 0 0-.5-14.23c-1.8-9.32-4.87-17.05-11.65-24.03l-8.47-7.06C198.85 5.15 187.9 2.49 176.8 2.43c-17.58-.08-32.05 5.91-42.1 16.52-5.82 6.12-10.25 15.24-12.2 23.48a85 85 0 0 0-1.64 23.8l-.06 1.78c.47 7.4.62 14.8.9 21.61.5 11.82 3.37 22.66 11.13 29.94 8.14 7.63 17.09 11.14 28.18 10.91a52 52 0 0 0 5.18-.36 69 69 0 0 0 14.42-3.86Z" class="a"/><path d="M282.46 180c-4.15-13-10.26-24.1-15.9-30.01-6.28-6.58-13.67-10.83-22.06-14.34a180 180 0 0 0-25.28-8.27l-9.76-4.81-.15-.07a20 20 0 0 1-2.25 6.89c-2.84 5.6-5.33 10.05-8.52 13.91a40 40 0 0 1-7.56 7.05 45 45 0 0 1-6.11-3.18l-.43.28c-6.3 2.99-14.77 2.61-20.78.38a13 13 0 0 1-1.81-.83l-1.35 1.21c-1.99 1.46-3.3 2.46-5.71 4.1-1.02-2.45-1.87-5.04-3.02-7.84-1.66-6.06-2.77-8.95-3.66-12.77l-7.28 2.9c-6.34 2.41-12.34 4.93-17.27 8.05a41 41 0 0 0-9.53 8.61 55 55 0 0 0-6.29 12.2c-4.6 14.87-7.5 27.22-10.65 48.43-2.29 15.36-2.85 26.16-.77 36.77a24.6 24.6 0 0 0 7.89 13.54c6.7 6.14 16.52 7.5 24.8 4.67 2.16-.74 10.37 7.13 14.8 11.6a10 10 0 0 0 7.12 2.97H283.8c7.44-5.56 9.44-11.27 11.28-16.68 1.06-3.14 2.03-10.9 2.03-14.16 0-13.28-5.8-42.8-14.65-70.6" style="fill:#957f6e"/><path d="M135.47 260.5a23 23 0 0 1-15.6 5.37 21.8 21.8 0 0 1-15.47-6.84 22 22 0 0 1-5.02-8.18 40 40 0 0 1-1.6-8.68 98 98 0 0 1 .31-19.33 308 308 0 0 1 7.17-41.52q2.06-8.52 4.69-16.9a42 42 0 0 1 3.37-7.45 30 30 0 0 1 4.81-6.77c8.03-8.22 19.3-11.69 29.72-15.84l1.29-.5a2.47 2.47 0 0 0 1.67-2.96 2.4 2.4 0 0 0-2.95-1.68c-10.13 4.03-21.09 7.37-29.61 14.38a35 35 0 0 0-7.09 7.58 56 56 0 0 0-4.36 8.17c-2.43 5.5-3.84 11.55-5.34 17.37a326 326 0 0 0-7.86 43.3 107 107 0 0 0-.73 20.93 59 59 0 0 0 1.4 9.49 27.3 27.3 0 0 0 21.85 19.89 28.7 28.7 0 0 0 18.75-3.53 28 28 0 0 0 4-2.9c2.33-2.03-1.07-5.41-3.4-3.4" class="c"/><path d="M134.73 175.33c2.46 6 4.93 12.69 2.74 18.78-.74 2.05-1.97 3.89-2.79 5.91-1.23 3.05-1.01 5.22-1.24 8.5-.16 2.44-.03 4.46-.68 6.55a8.3 8.3 0 0 1-4.57 5.5 31 31 0 0 1-5.97 1.17c-5.66.72-10.28.22-14.21-3.31a6.3 6.3 0 0 1-1.74-6.82q.27-.76.47-1.47c.82-2.99.99-6.18-1.5-8.03a21 21 0 0 1-6.34-7.4 19 19 0 0 1-1.67-7.1c-.09-5.04.2-8.66.11-13.69l2.71-10.65 1-3.29a16 16 0 0 1 4.23-7.02 10 10 0 0 1 7.55-2.75 3.5 3.5 0 0 1 1.54.9 4.3 4.3 0 0 1 1.08 3.32l3.73 7.95a10 10 0 0 1 2.47-5.1c1.45-1.54 4.24-1.46 5.89-.35 1.9 1.28 1.98 3.03 2.62 5.38a105 105 0 0 0 4.58 13.13m31.63-32.37a305 305 0 0 1 5.12-4.2c3.4 2.5 9.18 5.51 13.37 8.3l.06.03c-6.34 3.26-15.1 2.92-21.26.63a13 13 0 0 1-1.82-.83c1.36-1.21 2.8-2.47 4.53-3.93" class="a"/><path d="M219.9 125.4a19 19 0 0 1-2.69-.85l-.19-.08-.76-.34q-.66-.3-1.31-.65a25 25 0 0 1-2.37-1.39l-.57-.4c-.46-.32.4.34-.01-.01q-.39-.32-.74-.69c-.2-.21-.18-.45.06.1l-.26-.37a11 11 0 0 1-.85-1.5l-.18-.38c.17.7.03.06-.04-.12a48 48 0 0 1-1.72-5.95 2.4 2.4 0 0 0-2.95-1.68 2.45 2.45 0 0 0-1.68 2.96c.86 3.54 1.72 7.54 4.23 10.34a17 17 0 0 0 4.65 3.24 26 26 0 0 0 6.1 2.4 2.4 2.4 0 1 0 1.27-4.63" class="c"/><path d="M56.37 82.73a55 55 0 0 1 9.52 1.94c7.53 2.68 11.8 8.19 11.7 16.18-.03 2.97-.66 7.15-3.22 9.98-1.05 1.15-2.24 2.33-3.58 3.66a3.24 3.24 0 0 0-.2 4.34 21 21 0 0 1 4.85 14.53c-.14 2.46-1.62 4.73-2.7 6.33a11 11 0 0 1-1.67 1.97 3.24 3.24 0 0 0 .22 4.98c3.67 2.75 7.75 6.98 7.96 10.18.2 2.97-.85 5.44-2.96 6.3a6 6 0 0 1-3.9-.08c-6.16-2.14-12.72-5.01-27.77-5.42l-.22-.01c-8.05-.77-16.85-1.88-20.44-11.4a21 21 0 0 1-.89-10.93q.24-1.4.56-2.83c1.27-5.95-.65-11.07-7.33-12.8-1.05-.26-3-.77-3.4-.88C3.96 116.38-.38 108.85.01 99.43A16 16 0 0 1 2.9 90.8a18 18 0 0 1 6.8-5.71c11.9-4.61 30.52-3.9 46.67-2.36" class="d"/><path d="M94.94 173.92c.13 8.21-1.59 17.11 3.3 24.33a22 22 0 0 0 3.76 4.32c1.2 1.05 2.67 1.74 2.86 3.46.2 1.85-.53 3.57-1.02 5.3a9 9 0 0 0 .64 6.37c1.7 3.43 5.9 5.64 9.52 6.33a33 33 0 0 0 12.06-.45 10.3 10.3 0 0 0 8.72-7.05c1.53-3.93.84-8.42 1.32-12.53a19 19 0 0 1 2.37-6.29 19 19 0 0 0 2.2-7.49c.39-5.37-1.63-10.64-3.62-15.53a2.5 2.5 0 0 0-2.96-1.67 2.4 2.4 0 0 0-1.67 2.95c1.59 3.9 3.3 8.01 3.47 12.27a13 13 0 0 1-.94 5.76c-.81 1.9-1.92 3.65-2.66 5.6-1.4 3.6-1.2 7.72-1.37 11.52-.13 2.87-1.06 6.44-3.97 7.33a29 29 0 0 1-10.36 1.12c-2.7-.2-6.42-1.4-7.8-3.96-.85-1.57-.32-2.9.15-4.48a15 15 0 0 0 .7-5.26 7.8 7.8 0 0 0-2.16-4.99c-1.25-1.24-2.74-2.17-3.92-3.51a15.4 15.4 0 0 1-3.93-9.51c-.22-4.64.17-9.3.1-13.94-.04-3.08-4.84-3.1-4.8 0Z" class="c"/><path d="M100.84 179.28a62 62 0 0 1 14.97-1.33c2.02.02 3.72.21 4.9 1.62.64.79 1.42 1.9.97 2.86a3 3 0 0 1-1.14 1.05q-1.08.72-2.09 1.5a2.4 2.4 0 0 0 0 3.4 2.46 2.46 0 0 0 3.4 0 23 23 0 0 0 3.2-2.45 6.3 6.3 0 0 0 1.45-5.13 9.5 9.5 0 0 0-4.83-6.5 14 14 0 0 0-6.46-1.14q-3.5.03-7 .3a53 53 0 0 0-8.65 1.2c-3 .74-1.73 5.37 1.28 4.63Z" class="c"/><path d="M106.95 189.36c2.25-.6 4.49-1.34 6.8-1.72l.45-.07c-.04 0-.35.03-.07.01l.8-.06a13 13 0 0 1 1.68 0l.45.05c.29.02-.03 0-.07-.01l.63.13c.49.07-.4-.2-.06-.04l.2.13c-.05.01-.42-.4-.2-.15l.3.3c.17.14-.19-.2-.18-.23l.14.21.22.4c.13.2-.1-.25-.1-.26l.1.32q.08.23.14.47c.02.12.09.65.05.25l.02.26.01.58-.03.52c-.03.54.1-.4 0 0l-.28 1.02c-.05.23.1-.25.12-.25l-.12.24-.23.39c-.25.43.31-.28.03-.04-.22.19-.4.43-.6.63q-.55.55-1.15 1.05l-.29.23c.14-.12.28-.21.06-.04l-.6.42q-1.45 1-2.92 1.94a2.4 2.4 0 1 0 2.42 4.15 38 38 0 0 0 5.65-4.14 8 8 0 0 0 1.89-2.41 10 10 0 0 0 .83-3.27 8 8 0 0 0-1.66-5.69c-1.54-1.87-4.19-2.1-6.46-1.97a47 47 0 0 0-9.24 2.01 2.4 2.4 0 1 0 1.27 4.63Zm10.9-34.93c-.02-2.47-.88-4.82-3.16-6.05-2.33-1.26-5.42-.46-7.7.57-4.24 1.93-6.94 6.17-8.28 10.49l-.97 3.19a2.4 2.4 0 1 0 4.63 1.27l.94-3.1a15 15 0 0 1 .83-2.18 17 17 0 0 1 .84-1.55 15 15 0 0 1 .7-1.03q-.19.23.09-.1a14 14 0 0 1 1.2-1.27c.07-.07.71-.6.49-.43q.3-.22.62-.42.43-.27.88-.5l.46-.22a9 9 0 0 1 1.8-.5c-.4.08.35-.01.36-.02l1 .01c0 .03-.9-.27-.23-.02q.14.07.26.17-.33-.28-.05-.04l.26.27q-.23-.31 0 .02c.3.43-.06-.36.08.15.03.12.15.92.1.37q.04.45.04.92a2.4 2.4 0 1 0 4.8 0Z" class="c"/><path d="m90.78 181.82 41.66-24.7a2.1 2.1 0 0 0 .75-2.87l-2.67-4.59a2.1 2.1 0 0 0-2.88-.75L86 173.6a3.2 3.2 0 0 0-1.16 4.38l1.57 2.68a3.2 3.2 0 0 0 4.38 1.15" class="a"/><path d="M129.86 148.97a2.1 2.1 0 0 0-2.22-.06l-11.1 6.48 4.8 8.2 11.1-6.47a2.1 2.1 0 0 0 .75-2.87l-2.67-4.59a2 2 0 0 0-.66-.7" style="fill:#febe69"/><path d="M84.41 176.69a3 3 0 0 0 .42 1.3l1.57 2.67a3.2 3.2 0 0 0 4.38 1.15l3.77-2.2-4.8-8.2-3.77 2.2a3.2 3.2 0 0 0-1.57 3.08" class="d"/><path d="m123.42 162.39-4.8-8.21a2.4 2.4 0 1 0-4.15 2.42l4.8 8.21a2.4 2.4 0 1 0 4.15-2.42" class="c"/><path d="m92 183.89 19.21-11.4c7.37-4.37 14.81-8.64 22.12-13.11a4.67 4.67 0 0 0 1.85-6.5c-.59-1.08-1.24-2.12-1.86-3.18a7 7 0 0 0-2.57-2.98c-2.97-1.55-6.3 1.29-8.76 2.75l-26.98 16-9.37 5.55a6.7 6.7 0 0 0-3.35 3.59 6.2 6.2 0 0 0 .84 5.22 14 14 0 0 0 2.22 3.32 5.7 5.7 0 0 0 6.64.74c2.75-1.42.32-5.56-2.42-4.15-.84.44-1.22-.5-1.58-1.1-.33-.57-1.23-1.6-1.21-2.28.02-.65.99-1.02 1.46-1.3l8.82-5.23 25.57-15.16 4.23-2.51c.38-.23 1.73-.73 1.94-1.15.04-.1.38.02-.2 0 .07 0-.13-.18-.15-.13s.21.36.24.41c.55 1.06 1.2 2.07 1.8 3.1.12.2.38.87.58.98.3.16-.2-.45.15-.32-.06-.03-.4.23-.45.27l-20.59 12.2c-6.74 4-13.57 7.9-20.25 12l-.36.22c-2.66 1.58-.24 5.73 2.42 4.15" class="c"/><path d="m87.69 172.62 4.8 8.2a2.4 2.4 0 0 0 4.14-2.42l-4.8-8.2a2.4 2.4 0 0 0-4.14 2.42" class="c"/><path d="M120.58 171.04a12.4 12.4 0 0 1-1.5-7.96 10.3 10.3 0 0 1 2.57-5.8c1.45-1.54 4.24-1.46 5.89-.35 1.9 1.27 1.98 3.02 2.62 5.37a91 91 0 0 0 4.57 13.03" class="a"/><path d="M122.21 168.9a16 16 0 0 1-.63-1.73l-.2-.82q-.06-.42 0 0l-.04-.45a12 12 0 0 1 .5-4.28 8 8 0 0 1 .95-1.93q.26-.36.56-.7.32-.3.07-.1l.41-.25c-.31.15.48-.12.59-.13-.39.06.5 0 .6.01a3 3 0 0 1 1.01.3 1 1 0 0 1 .42.29l.34.34q-.21-.28.02.07.12.19.22.39l.02.05q.16.45.28.91c.43 1.6.82 3.2 1.3 4.79a110 110 0 0 0 3.8 10.41 2.5 2.5 0 0 0 2.95 1.68 2.4 2.4 0 0 0 1.67-2.95 112 112 0 0 1-3.53-9.58 72 72 0 0 1-1.32-4.63 11 11 0 0 0-1.37-3.69 7.5 7.5 0 0 0-7.93-2.98c-3.22.76-5.17 4.18-5.9 7.17a14.5 14.5 0 0 0 .58 9.09 2.5 2.5 0 0 0 2.96 1.67 2.4 2.4 0 0 0 1.67-2.95m162.8 114.62a33 33 0 0 0 8.15-8.53 40 40 0 0 0 3.84-8.45 43 43 0 0 0 1.8-8.18 56 56 0 0 0 .7-8.42 120 120 0 0 0-1.7-16.7 309 309 0 0 0-4.34-22.12q-2.9-12.59-6.6-24.97a137 137 0 0 0-9.06-23.77 58 58 0 0 0-11.95-16.45 68 68 0 0 0-19.75-12.18 180 180 0 0 0-24.2-8.16 11 11 0 0 0-1.43-.37c-.56-.07.08.12-.1.06l-.54-.27-2.33-1.15-5.7-2.8-1.13-.56a2.46 2.46 0 0 0-3.29.86 2.4 2.4 0 0 0 .86 3.28l8.98 4.42c2.28 1.12 4.87 1.54 7.3 2.23q5.91 1.66 11.7 3.72c7.36 2.63 14.66 5.7 21.1 10.2a47 47 0 0 1 13.26 14.14 96 96 0 0 1 9.42 20.84c2.62 8.1 4.92 16.3 7 24.56 3.34 13.29 6.42 26.9 7.48 40.59a58 58 0 0 1-.83 15.08c-1 5.38-3.15 10.94-6.83 15.06a30 30 0 0 1-4.23 3.9 2.5 2.5 0 0 0-.86 3.27 2.4 2.4 0 0 0 3.29.87Z" class="c"/><path d="m148.94 131.89 5.01-2.26a11 11 0 0 0 4.27-3.26" style="fill:none"/><path d="m233.05 211.06 8.05 29.48c.81 2.98 5.45 1.71 4.63-1.28l-8.05-29.47c-.82-2.98-5.45-1.72-4.63 1.27m-72.43-62a28.5 28.5 0 0 0 12.4 2.92 28 28 0 0 0 12.63-2.46 2.4 2.4 0 0 0 .86-3.29 2.46 2.46 0 0 0-3.29-.86 23 23 0 0 1-10.2 1.81 23 23 0 0 1-9.97-2.26c-2.73-1.45-5.16 2.7-2.43 4.15" class="c"/><path d="M207.05 121.48c-.73 5.32-3.65 10.13-6.4 14.66a41 41 0 0 1-10.89 12.13h2.43a105 105 0 0 1-10.03-5.62c-3.18-1.9-6.46-3.68-9.46-5.86a2.44 2.44 0 0 0-2.9.37q-4.3 3.45-8.44 7.07a80 80 0 0 1-7.78 6l3.52 1.43a147 147 0 0 1-6.47-19.72c-.76-3-5.39-1.73-4.62 1.27a147 147 0 0 0 6.47 19.73c.54 1.31 2.1 2.4 3.52 1.43a87 87 0 0 0 8.53-6.55q4.26-3.73 8.66-7.27l-2.9.38c3 2.18 6.27 3.96 9.45 5.86a105 105 0 0 0 10.03 5.62 2.4 2.4 0 0 0 2.42 0 47 47 0 0 0 12.4-13.5c1.65-2.7 3.13-5.5 4.55-8.32a25 25 0 0 0 2.54-7.84 2.5 2.5 0 0 0-1.68-2.95 2.4 2.4 0 0 0-2.95 1.68" class="c"/><path d="M220.47 45.16a126 126 0 0 1-13.26 6.96c-3.61 1.61-3.04 4.92-1.17 7.85 3.61 5.64 5.41 10.63 7.03 17.53a7.4 7.4 0 0 1 5.81-1.06c3.65.8 4.86 2.99 5.33 4.22l.86 2.3.04-.05c4.16-6.21 5.22-18.22 5.84-23.31a46 46 0 0 0-.5-14.23 66 66 0 0 0-1.7-6.96l-.29.35c-.59 1.46-3.84 3.88-7.99 6.4" class="d"/><path d="M217.11 23.03c6.05 6.3 9.29 14.1 10.94 22.58 1.58 8.06.56 16.47-.98 24.41-.77 4.02-1.76 8.21-4.03 11.68-1.7 2.59 2.46 5 4.15 2.42 4.28-6.54 5.07-15.16 5.95-22.73a55 55 0 0 0-.1-15.01 58 58 0 0 0-3.86-13.74 43 43 0 0 0-8.67-13c-2.15-2.24-5.54 1.16-3.4 3.39m-5.08-10.45a55.6 55.6 0 0 0-27.3-12 67 67 0 0 0-27.5 2.09 55 55 0 0 0-22.22 12.59c-6.98 6.57-11.76 15.43-14.33 24.62-2.91 10.44-3.07 21.99-1.52 32.66a2.4 2.4 0 0 0 2.96 1.68 2.46 2.46 0 0 0 1.67-2.95 78 78 0 0 1 .73-26.87c1.78-8.5 5.68-17.07 11.61-23.47 11.35-12.24 28.32-17.04 44.65-15.96a50 50 0 0 1 27.86 11 2.5 2.5 0 0 0 3.4 0 2.4 2.4 0 0 0 0-3.4ZM167.3 82.89c-.48-2.44.55-7.82 5.07-7.83 5.91.64 5.55 7.25 3.25 10.13-1.9 2.37-6.8 2.93-8.32-2.3m-35.24-2.49c-.43-2.44.55-7.85 4.7-7.88 5.4.6 5.04 7.23 2.9 10.14-1.74 2.38-6.23 2.97-7.6-2.26m17.8 6.87a51 51 0 0 0-2.4 3.79 5 5 0 0 0-.76 2.23 3.3 3.3 0 0 0 1.06 2.59 5 5 0 0 0 1.95 1.17 9 9 0 0 0 .9.19 2.5 2.5 0 0 0 1.85-.25 2.4 2.4 0 0 0-.58-4.38 7 7 0 0 1-1.04-.24l.57.24a3 3 0 0 1-.46-.26l.49.38a4 4 0 0 1-.5-.47l.39.49-.1-.15.24.57-.07-.25.08.64.01-.27-.08.64a2 2 0 0 1 .14-.47l-.24.58a18 18 0 0 1 1.34-2.3q.66-1.03 1.36-2.04a2.4 2.4 0 0 0-2.71-3.53 2.7 2.7 0 0 0-1.44 1.1" class="c"/><path d="M214.64 79.33a5.9 5.9 0 0 1 6.02.41l.38.35.34.35q.18.26.34.54c.05.08.3.61.17.3s.12.35.15.46a8 8 0 0 1 .26 1.09 13 13 0 0 1-.1 4.1c-.88 5.35-4.22 10.82-9.22 13.23.42-.2-.22.07-.37.12q-.45.16-.91.28a12 12 0 0 1-1.9.35 8 8 0 0 1-4.54-.66c-2.7-1.48-5.13 2.66-2.42 4.14 3.34 1.83 7.64 1.73 11.17.48a19 19 0 0 0 8.77-7.16 23 23 0 0 0 4.1-9.88c.53-3.37.56-7.23-1.57-10.09a10.34 10.34 0 0 0-13.1-2.55c-2.68 1.53-.26 5.68 2.43 4.14" class="c"/><path d="M190.91 123.4a52 52 0 0 0 9.63-8.06 55 55 0 0 0 7.46-9.78 2.4 2.4 0 0 0-4.14-2.42 46 46 0 0 1-2.9 4.29c-.1.13-.52.61-.08.1q-.56.69-1.1 1.39-1.28 1.55-2.64 3.03a45 45 0 0 1-4 3.9q-.34.29-.7.57l-.44.35a65 65 0 0 1-3.51 2.48 2.46 2.46 0 0 0-.87 3.28 2.4 2.4 0 0 0 3.29.86Zm-38.64-13.7c.18-.23.54-.77.83-.87l-.15.12.22-.14.52-.3c.55-.28-.32.08.14-.07l.5-.17q.6-.17 1.2-.28c.5-.1-.49.04.06-.01l.53-.05a12 12 0 0 1 1.35-.01q.31 0 .62.04c-.56-.07.05.03.17.06l.4.12q.37.14-.1-.05c.12 0 .37.19.46.25.13.08.58.25.08.02a2 2 0 0 1 .44.4l.18.2q.25.3-.06-.08s.27.42.28.44l.16.3-.11-.25c.13.13.15.5.2.68.15.48.01-.43.02.1v.56c0 .5.11-.42-.03.2a2 2 0 0 1-.18.62q.18-.38.06-.14l-.12.25a2 2 0 0 1-.3.47q.29-.36.03-.06-.12.15-.25.26c-.31.34.35-.18-.08.06l-.24.13q-.23.12.17-.06l-.34.1q.53-.05.12-.02a2.4 2.4 0 0 0 0 4.8 6.1 6.1 0 0 0 5.15-3.5 7.6 7.6 0 0 0 .1-6.46 7.4 7.4 0 0 0-4.3-3.81 12 12 0 0 0-5.93-.16 8.6 8.6 0 0 0-5.2 2.92 2.6 2.6 0 0 0-.7 1.7 2.4 2.4 0 0 0 .7 1.7c.86.79 2.57 1.05 3.4 0Z" class="c"/><path d="M118.4 68.01c.52 8.16.45 16.36 1.09 24.51.53 6.84 1.9 13.67 5.03 19.83 6.12 12.07 19.4 19.63 32.68 20.45 8.26.5 16.38-1.32 24.06-4.24a2.47 2.47 0 0 0 1.68-2.95 2.4 2.4 0 0 0-2.96-1.68 56 56 0 0 1-19.99 4.15 35.6 35.6 0 0 1-17.48-4.32 34 34 0 0 1-13.06-12.37c-3.06-5.35-4.48-11.55-5.06-17.64-.8-8.54-.65-17.18-1.18-25.74a2.46 2.46 0 0 0-2.4-2.4 2.4 2.4 0 0 0-2.4 2.4m50.72 38.28a12 12 0 0 1 1.21 2.3l-.24-.57a18 18 0 0 1 .77 2.2 2.5 2.5 0 0 0 1.1 1.43 2.5 2.5 0 0 0 1.85.24 2.4 2.4 0 0 0 1.43-1.1 2.5 2.5 0 0 0 .25-1.85 22 22 0 0 0-1.12-3 12 12 0 0 0-1.1-2.06 2.6 2.6 0 0 0-1.44-1.1 2.5 2.5 0 0 0-1.85.24 2.4 2.4 0 0 0-1.1 1.44 2.4 2.4 0 0 0 .24 1.85Zm57.27-68.74-.2.4c-.23.46.22-.24-.06.07a15 15 0 0 1-1.16 1.13 30 30 0 0 1-3.1 2.28 102 102 0 0 1-9.2 5.37q-2.46 1.28-4.96 2.46c-1.72.8-3.44 1.5-4.55 3.14-2.22 3.32-.29 6.94 1.5 9.9A49 49 0 0 1 210 75.15c.8 2.98 5.44 1.71 4.63-1.28a56 56 0 0 0-4.26-11.21c-.9-1.74-2.12-3.33-2.94-5.1a7 7 0 0 1-.46-1.45 1.4 1.4 0 0 1 .25-1.17c.76-.9 2.74-1.45 3.88-2q2.43-1.17 4.82-2.44a97 97 0 0 0 8.77-5.2c1.98-1.34 4.82-3.03 5.84-5.33a2.5 2.5 0 0 0-.87-3.28 2.4 2.4 0 0 0-3.28.86Zm-35.5 85.85a52 52 0 0 0 9.63-8.05 55 55 0 0 0 7.46-9.78 2.4 2.4 0 0 0-4.14-2.42 46 46 0 0 1-2.9 4.29c-.1.13-.52.61-.08.1q-.56.69-1.1 1.39-1.28 1.55-2.64 3.03a45 45 0 0 1-4 3.9q-.34.29-.7.57l-.44.35a65 65 0 0 1-3.51 2.48 2.46 2.46 0 0 0-.87 3.28 2.4 2.4 0 0 0 3.29.86" class="c"/></svg>
