<svg xmlns="http://www.w3.org/2000/svg" viewBox="-21.58 0 317.132 317.132"><defs><style>.a{fill:#211715}.b{fill:#fff}</style></defs><path d="M2.32 242.48c12.52 0 25.04-.06 37.55-.06 3.1 0 3.1-4.8 0-4.8-12.52 0-25.03.06-37.55.06-3.09 0-3.1 4.8 0 4.8m231 0 29.93-.05h8.4c3.09 0 3.1-4.8 0-4.8q-16.3 0-32.58.04h-5.75c-3.09 0-3.1 4.8 0 4.8" class="a"/><path d="M109.1 314.73H88.78c4.24-21.56 9.32-45.97 12.24-61.02h71.42l4.48 22.24c1.8 8.86 5.41 26.6 7.78 38.78Z" class="b"/><path d="m70.32 257.2-16.76-7.21c-7.9-3.39-14.4-10.61-13.97-20.73.36-8.33 2.64-17.44 3.97-22.66 4.1-16.06 11.5-40.25 15.31-46.39a46 46 0 0 1 17.54-16.2 175 175 0 0 1 24.39-9.97c2.14-.7 4.45-1.63 6.37-2.3 4.82 7.81 9.2 15.6 15.68 22 1.89-2.52 5.41-7.1 8.22-10.83 2.14-2.85 3.73-5.31 4.12-5.8h2.12c.39.49 1.98 2.95 4.12 5.8 2.8 3.73 6.33 8.31 8.21 10.84 6.5-6.43 10.9-14.26 15.75-22.11 2.19.89 6.46 2.39 8.68 3.24 8.78 3.37 16.92 6.46 24.25 10.39a45 45 0 0 1 16.88 15.57c2.29 3.59 5.79 12 7.1 15.99 3.03 9.15 5.6 19.24 9.08 31.61a96 96 0 0 1 3.28 21.05c.43 10.12-5.67 18.45-13.9 20.78l-13.1 3.81-36.12-14.17-65.3.05Z" style="fill:#5199d1"/><path d="M177.26 68.46a6.4 6.4 0 0 1 4.62-1.7 5.9 5.9 0 0 1 5.32 2.97c1.81 3.13 1.74 8.91.52 12.49-.86 2.53-2.27 6.4-5.66 9.19a7 7 0 0 1-5.43 1.56l-.52-.09a42 42 0 0 1-1.87 5.07c-1.21 3.3-7.28 13.9-15.31 19.88v2.85a71 71 0 0 1-20.78 14.35c-.43.19-1.55 1.21-.84 2.09h-2.12c.71-.88-.41-1.9-.84-2.1a71 71 0 0 1-20.77-14.34s0-1.44 0-3.07a43 43 0 0 1-7.71-7.35 49 49 0 0 1-9.22-17.38 6.9 6.9 0 0 1-5.87-1.48c-3.4-2.77-4.8-6.65-5.66-9.18-1.22-3.58-1.3-9.36.51-12.5a5.9 5.9 0 0 1 5.33-2.95 6.4 6.4 0 0 1 4.61 1.69s-9.65-44.08 40.85-44.08 40.84 44.08 40.84 44.08" class="b"/><path d="M105.83 132.05q-3.02 1.1-6.53 2.45" style="fill:none"/><path d="M102.17 50.52a19 19 0 0 0-1.62 2.35c-2.44 4.14-1.13 14.17-3.26 18.77a6.1 6.1 0 0 0-6.34-4.87 8 8 0 0 0-2 .32c-1.5-5.62-2.54-11.73-2.34-16.6.7-16.31 5.96-26.12 14.58-32.98a7 7 0 0 0 .91-.87c7.45-8.66 20.42-14.95 34.2-14.26 10.97.55 19.72 3.32 27.25 8.62l2.55 1.8 3.8 3.44c7.9 7.14 15.05 18.28 15.74 34.7a52 52 0 0 1-1.95 16.1 8 8 0 0 0-1.81-.26 6.1 6.1 0 0 0-5.79 3.31c-.71-7.56-4.68-20.92-13.46-23.87a62 62 0 0 0-20.35-3.12c-3.27.01-5.81 1.6-10.65 1.59h-16.02c-5.87.24-10.22 1.9-13.44 5.83" style="fill:#aaa"/><path d="M97.26 66.76a9.3 9.3 0 0 0-10.19-1.5 9 9 0 0 0-4.63 6.02c-1.62 6-.08 12.96 3.33 18.07 2.32 3.47 5.98 6.61 10.43 6.02a2.5 2.5 0 0 0 2.4-2.4c0-1.16-1.1-2.57-2.4-2.4-3.32.44-5.58-2.24-7.05-4.9a19 19 0 0 1-2.45-7.64c-.2-2.47-.19-5.52 1.34-7.62l-.06.08.31-.33c.05-.04.53-.43.3-.27a4 4 0 0 1 1.61-.64 4.3 4.3 0 0 1 3.66.9c2.3 2.06 5.7-1.32 3.4-3.39m81.7 3.4a4.3 4.3 0 0 1 3.48-.95 4 4 0 0 1 1.8.68c-.16-.1.82.86.5.45 1.6 2.05 1.58 5.22 1.4 7.69a19 19 0 0 1-2.37 7.48c-1.47 2.71-3.75 5.51-7.14 5.06a2.4 2.4 0 0 0-2.4 2.4 2.46 2.46 0 0 0 2.4 2.4c7.3.97 11.78-7.06 13.55-12.96 1.56-5.22 1.54-13.29-3.53-16.66a9.3 9.3 0 0 0-11.08 1.01c-2.3 2.07 1.1 5.45 3.39 3.4" class="a"/><path d="M164.76 8.93A51.4 51.4 0 0 0 141.26.4a48.6 48.6 0 0 0-26.36 3.85 45 45 0 0 0-10.56 6.78 52 52 0 0 0-4.07 4.07c-1.18 1.25-2.64 2.25-3.87 3.46a39.3 39.3 0 0 0-10.12 17.69 63 63 0 0 0-2.07 14.44 58 58 0 0 0 2.24 16.3c.77 2.99 5.4 1.72 4.63-1.28a58 58 0 0 1-2.09-13.42 54 54 0 0 1 1.24-11.96 36 36 0 0 1 8.13-16.89 37 37 0 0 1 3.27-3.2c1.33-1.14 2.5-2.35 3.72-3.6a39 39 0 0 1 8.84-6.67 42 42 0 0 1 23.43-5.11 48.3 48.3 0 0 1 24.71 8.21 2.4 2.4 0 0 0 3.29-.86 2.45 2.45 0 0 0-.86-3.28m21.42 58.06a58 58 0 0 0 .75-25.33 49 49 0 0 0-8.4-19.36 51 51 0 0 0-6.93-7.76c-2.28-2.08-5.69 1.3-3.4 3.39 9.8 8.9 14.92 21.36 15.08 34.54a53 53 0 0 1-1.73 13.24c-.74 3 3.9 4.28 4.63 1.28m-57.51 39.25a17 17 0 0 0 8.18 1.9 13.4 13.4 0 0 0 8.31-2.48 2.4 2.4 0 0 0 0-3.4 2.47 2.47 0 0 0-3.4 0c.75-.58.24-.18.05-.06l-.5.29c-.22.12-.78.25-.1.07-.24.06-.46.18-.69.25a13 13 0 0 1-1.91.44c.35-.06.13-.02-.1 0l-.57.04q-.67.04-1.36.04-.6 0-1.21-.04l-.56-.05c-.09 0-.77-.13-.19-.02a18 18 0 0 1-1.79-.4q-.37-.11-.74-.25c-.58-.2.43.22-.1-.03q-.46-.22-.9-.46a2.4 2.4 0 1 0-2.43 4.15Zm6.81-19.08a37 37 0 0 1 .89 4.05l-.09-.64a3 3 0 0 1 .02.56l.08-.64-.06.25.24-.57-.09.16.38-.48-.13.13.48-.38-.32.17.58-.24a2 2 0 0 1-.55.16l.64-.09a2 2 0 0 1-.5 0l.63.09q-.28-.06-.57-.1a2 2 0 0 0-.95-.05 2 2 0 0 0-.9.29 2.4 2.4 0 0 0-.86 3.28 2.3 2.3 0 0 0 1.44 1.1c.46.07.91.18 1.38.2a4.5 4.5 0 0 0 2.08-.5 3 3 0 0 0 1.7-2.01 5 5 0 0 0-.02-2.14q-.34-1.95-.86-3.88a2.4 2.4 0 0 0-2.95-1.68 2.45 2.45 0 0 0-1.68 2.96Zm-21.1-11.56c-.68 2.2-.24 7.26 3.93 7.69 5.5-.04 5.8-6.15 3.94-9.03-1.52-2.35-5.98-3.33-7.87 1.34m44.07 0c.68 2.2.24 7.26-3.93 7.69-5.5-.04-5.8-6.15-3.94-9.03 1.52-2.35 5.98-3.33 7.87 1.34m-10.3 25.93a7 7 0 0 1 .65.73l-.38-.49a9 9 0 0 1 1.06 1.87l-.24-.57.27.7a2.7 2.7 0 0 0 1.1 1.44 2 2 0 0 0 .9.28 2 2 0 0 0 .95-.04 2.4 2.4 0 0 0 1.43-1.1 2.4 2.4 0 0 0 .25-1.85 11 11 0 0 0-2.6-4.36 2.5 2.5 0 0 0-1.7-.7 2.7 2.7 0 0 0-1.7.7 2.4 2.4 0 0 0-.7 1.7 2.5 2.5 0 0 0 .7 1.7Z" class="a"/><path d="M144.5 41.62a24.6 24.6 0 0 0-9.8-7.36 27 27 0 0 0-5.18-1.57 23 23 0 0 0-5.9-.68 2.45 2.45 0 0 0-2.4 2.4 2.4 2.4 0 0 0 2.4 2.4 14 14 0 0 1 2.3.1q.25.03-.02 0l.26.03.78.13 1.3.26q1.32.28 2.6.65.54.15 1.06.32c.18.06 1.17.48.51.17a32 32 0 0 1 4.72 2.56 21 21 0 0 1 3.98 3.99 2.4 2.4 0 0 0 3.39 0 2.46 2.46 0 0 0 0-3.4m34.12 30.62a42 42 0 0 0-3.51-15.56c-2.32-5.49-6-10.74-11.84-12.78a2.4 2.4 0 1 0-1.27 4.62 12.4 12.4 0 0 1 5.33 4.1 27 27 0 0 1 3.56 6.33 43 43 0 0 1 2.23 7.44 27 27 0 0 1 .7 5.85c.04 3.08 4.84 3.1 4.8 0M155.37 43a19 19 0 0 0-3.32-7.22 13 13 0 0 0-2.75-2.24 18 18 0 0 0-3.4-1.78 2.4 2.4 0 0 0-2.95 1.68 2.47 2.47 0 0 0 1.67 2.95c.41.15-.06-.08-.19-.09a1 1 0 0 1 .32.15 16 16 0 0 1 2.13 1.24l.67.46.3.22c.38.27-.45-.37-.12-.09a8 8 0 0 1 .92.9c.13.15.31.48-.1-.14l.2.27a9 9 0 0 1 .7 1.22c.1.2.38.99.13.25.4 1.17.82 2.31 1.16 3.5a2.4 2.4 0 0 0 4.63-1.28m-39.76-.72a25 25 0 0 0-9.39 2.07 17.5 17.5 0 0 0-6.68 5.69c-3.27 4.47-2.92 10.2-3.4 15.48a21 21 0 0 1-.6 3.87l-.26.83c-.14.47.01.08-.15.38a6 6 0 0 1-.43.73c.28-.38-.16.14-.27.24-2.3 2.08 1.1 5.47 3.39 3.4 1.63-1.48 2.32-3.77 2.68-5.88.45-2.64.58-5.32.77-7.98a22 22 0 0 1 1.08-6.52 13 13 0 0 1 4.65-5.2 17.6 17.6 0 0 1 8.6-2.3c3.08-.16 3.1-4.96 0-4.8Z" class="a"/><path d="M122.85 153.75c-6.7-6.64-11.18-14.77-16.2-22.87a37 37 0 0 1 6.92-10.2 71 71 0 0 0 20.78 14.34c.43.2 1.55 1.22.84 2.1-.4.47-1.98 2.93-4.12 5.78-2.8 3.74-6.33 8.32-8.22 10.85m26.8 0c6.7-6.64 11.18-14.77 16.2-22.87a37 37 0 0 0-6.93-10.2 71 71 0 0 1-20.77 14.34c-.43.2-1.56 1.22-.84 2.1.39.47 1.97 2.93 4.12 5.78 2.8 3.74 6.33 8.32 8.21 10.85" class="b"/><path d="M124.55 152.05c-6.53-6.52-11.02-14.6-15.83-22.38v2.42a35 35 0 0 1 6.55-9.71h-3.4a73 73 0 0 0 10.23 8.49q2.67 1.84 5.5 3.44 1.45.82 2.95 1.57l1.48.72a4 4 0 0 0 1.18.54q.17.1-.06-.05a1.4 1.4 0 0 1 .27-1.6 5 5 0 0 0-.64.86q-.6.85-1.17 1.7-1.81 2.6-3.73 5.12c-2.36 3.12-4.76 6.22-7.1 9.36a2.4 2.4 0 0 0 .86 3.28 2.46 2.46 0 0 0 3.28-.86c3.94-5.26 8.02-10.42 11.77-15.82l.34-.5c.05-.07.21-.32-.03.03-.34.5.25-.32.26-.34a3.4 3.4 0 0 0 .42-2.78c-.49-1.73-1.92-2.47-3.4-3.18a69 69 0 0 1-9.39-5.4 67 67 0 0 1-9.62-7.98 2.44 2.44 0 0 0-3.4 0 38 38 0 0 0-6.37 8.82 13 13 0 0 0-1.17 2.43c-.32 1.15.38 2.07.94 2.99l2.9 4.73c3.8 6.2 7.81 12.33 12.98 17.48 2.2 2.2 5.6-1.2 3.4-3.38" class="a"/><path d="M151.34 155.44c5.17-5.16 9.2-11.28 13-17.48l2.88-4.73c.57-.93 1.27-1.82.95-2.99a13 13 0 0 0-1.17-2.43 38 38 0 0 0-6.38-8.82 2.44 2.44 0 0 0-3.4 0 68 68 0 0 1-17.7 12.75c-1.39.7-2.95 1.15-3.94 2.4a3.8 3.8 0 0 0-.9 2.44 3.4 3.4 0 0 0 .4 1.48l.34.51c.54.76-.17-.24 0 0q2.63 3.83 5.43 7.53c2.23 2.95 4.5 5.89 6.72 8.86a2.5 2.5 0 0 0 3.28.86 2.4 2.4 0 0 0 .86-3.29q-3.47-4.6-6.97-9.19-1.94-2.54-3.76-5.14-.63-.93-1.28-1.84a5 5 0 0 0-.64-.86 1.4 1.4 0 0 1 .28 1.6q-.24.15-.06.05a4 4 0 0 0 1.18-.55l1.48-.71q1.4-.7 2.77-1.48 2.82-1.58 5.5-3.42a74 74 0 0 0 10.4-8.6h-3.4a35 35 0 0 1 6.56 9.7v-2.42c-4.81 7.78-9.3 15.87-15.83 22.38-2.18 2.18 1.21 5.58 3.4 3.4M93.47 90.4a51.6 51.6 0 0 0 11.11 22.28c5.3 6.18 12.12 11.1 20.3 12.35a2.5 2.5 0 0 0 2.96-1.67 2.4 2.4 0 0 0-1.68-2.95c-7.47-1.15-13.36-5.48-18.18-11.12a46.6 46.6 0 0 1-9.89-20.17c-.67-3.01-5.3-1.74-4.62 1.28" class="a"/><path d="M174.51 89.12a47 47 0 0 1-8.74 18.78c-4.34 5.5-9.83 10.23-16.75 12-3 .76-1.72 5.4 1.28 4.62 7.7-1.96 13.99-7.1 18.87-13.23a52 52 0 0 0 9.97-20.89c.67-3-3.95-4.3-4.63-1.28M58.81 223.79a50 50 0 0 1 15.82-3.86 2.46 2.46 0 0 0 2.4-2.4 2.4 2.4 0 0 0-2.4-2.4 55 55 0 0 0-18.25 4.52 2.4 2.4 0 0 0-.86 3.28 2.46 2.46 0 0 0 3.29.86m47.43 18.57 51.2-.04 14.1-.01c3.09 0 3.1-4.8 0-4.8l-51.36.04-13.94.01c-3.1 0-3.1 4.8 0 4.8m88.04-63.65c-.8 15.26-2.06 30.5-2.9 45.75-.16 3.09 4.64 3.08 4.8 0 .84-15.26 2.1-30.49 2.9-45.75.16-3.08-4.64-3.07-4.8 0" class="a"/><path d="M164.75 133.96c9.9 3.98 20.08 7.23 29.67 12a49 49 0 0 1 12.44 8.45 40 40 0 0 1 8.2 11.17c4.07 8.26 6.65 17.04 9.13 25.89 1.55 5.55 3.05 11.11 4.6 16.66a94 94 0 0 1 3 15.17c.59 5.49 1.02 11.06-1.6 16.12a16.8 16.8 0 0 1-10.06 8.54c-2.96.87-1.7 5.5 1.27 4.63 9.72-2.86 15.78-12.42 15.68-22.33-.12-11.88-3.61-23.2-6.73-34.54-2.68-9.74-5.3-19.48-9.38-28.74a51 51 0 0 0-7.44-12.44 48 48 0 0 0-12.45-10.47c-10.97-6.42-23.33-10.02-35.06-14.74a2.4 2.4 0 0 0-2.95 1.67 2.46 2.46 0 0 0 1.68 2.95Zm-91 41.78c.67 10.06 1.66 20.11 2.36 30.18a2.46 2.46 0 0 0 2.4 2.4 2.4 2.4 0 0 0 2.4-2.4c-.7-10.07-1.7-20.12-2.37-30.18a2.46 2.46 0 0 0-2.4-2.4 2.4 2.4 0 0 0-2.4 2.4" class="a"/><path d="M54.77 247.92a22 22 0 0 1-9.91-7.94c-2.77-4.27-3.11-8.87-2.65-13.81.94-10.02 3.8-19.9 6.53-29.55 2.62-9.3 5.4-18.6 8.82-27.65a40 40 0 0 1 3.6-7.9 43 43 0 0 1 11.25-11.83c4.89-3.47 10.59-5.89 16.12-8.14 6.33-2.6 12.84-4.75 19.28-7.05a2.46 2.46 0 0 0 1.68-2.95 2.4 2.4 0 0 0-2.95-1.68c-5.98 2.14-12.02 4.14-17.92 6.5a114 114 0 0 0-15.54 7.18 48 48 0 0 0-13.28 11.66 41 41 0 0 0-5.77 10.12 272 272 0 0 0-9.1 27.56c-2.93 10.19-5.88 20.52-7.22 31.06-.8 6.28-.8 12.42 2.48 18.05a26 26 0 0 0 12.15 10.52 2.5 2.5 0 0 0 3.29-.86 2.4 2.4 0 0 0-.86-3.29" class="a"/><path d="M187.83 274.44q-.83.62-1.64 1.14c-1.25.8-4.12 1.8-6.03.84a3.6 3.6 0 0 1-2-2.76l-.15.1c-2.4 1.59-6.37 2.54-8.7.71a5.3 5.3 0 0 1-.87-6.44 8 8 0 0 1 .81-1.27c-1.27.57-3.65 1.36-5.2-1.47-1.03-1.87-.37-4.89 1.83-7.24.83-.89 2.52-3.13 4.24-4.8q.55-.54 1.11-1.06l-1.64-.16a4 4 0 0 1-3.37-2 4.8 4.8 0 0 1-.2-3.45c.7-2.26 4.32-4.9 8.1-7.15a31 31 0 0 1 11.27-4.3 39 39 0 0 1 11.08-.41c3.76.4 6.48 1.99 9.24 3.62a25 25 0 0 1 6.24 6.2 18.3 18.3 0 0 1 2.59 9.08c-.13 4.9-1.23 7.71-4.1 11.05a82 82 0 0 1-6.52 6.6c-2.69 2.36-5.36 2.8-7.36 2.06-1.6-.59-1.94-3.54-1.37-4.75l.1-.23-.05.04-1.52 1.2c-1.37 1.1-3.63 3.17-5.9 4.85" class="b"/><path d="M181.7 251.28a239 239 0 0 0-8.53 7.95c-2.47 2.38-5.4 4.77-6.96 7.89-1.67 3.31-.88 8.06 2.61 9.88 3.26 1.7 7.45.73 10.4-1.17 2.6-1.66.2-5.82-2.42-4.14a9 9 0 0 1-3.33 1.33 8 8 0 0 1-1.44.04 4 4 0 0 1-.83-.22c.24.1-.7-.48-.35-.2a3 3 0 0 1-.47-.7 3 3 0 0 1-.23-1.75 6 6 0 0 1 1.36-2.43 79 79 0 0 1 6.13-6.17q3.65-3.55 7.46-6.91a2.4 2.4 0 1 0-3.4-3.4" class="a"/><path d="M167.61 264.83c-.08.02-.72.12-.18.07l-.54.01c.06 0-.14-.03-.16-.05l-.42-.46-.18-.31q.08.26 0 .02a3 3 0 0 1-.16-.6c.06.37.01-.4.01-.4.06-1.68 1.51-3.22 2.68-4.63a89 89 0 0 1 10.95-10.47 2.4 2.4 0 0 0 0-3.4 2.45 2.45 0 0 0-3.4 0 90 90 0 0 0-12.7 12.55c-1.84 2.34-3.04 5.65-1.88 8.56a5.95 5.95 0 0 0 7.26 3.73c2.98-.78 1.71-5.42-1.28-4.62m22.59-8.46c-3.17 2.8-6.38 5.57-9.43 8.51-2.68 2.6-6.03 5.95-4.77 10.04 1.43 4.66 6.68 4.94 10.48 3.22a23 23 0 0 0 4.84-3.4c1.38-1.13 2.7-2.33 4.1-3.44 2.7-2.16 5.54-4.19 8.13-6.49a2.4 2.4 0 0 0-3.4-3.4c-2.01 1.8-4.2 3.43-6.33 5.1-2.26 1.75-4.38 3.66-6.63 5.43a12 12 0 0 1-3.6 2.2c-1 .3-2.32.52-2.86-.3-.48-.73-.19-1.35.46-2.3a24 24 0 0 1 3.29-3.56c2.95-2.82 6.05-5.5 9.11-8.21a2.4 2.4 0 0 0-3.4-3.4Z" class="a"/><path d="M169.6 249.64c-1 .03-1.5-.97-1.38-1.88a4.8 4.8 0 0 1 1.8-2.53 36 36 0 0 1 9.07-5.73 31 31 0 0 1 9.4-2.37 27 27 0 0 1 10.3.5 21 21 0 0 1 7.08 3.8 17 17 0 0 1 4.97 6.25 15.2 15.2 0 0 1 1 9.23 14 14 0 0 1-3.6 6.65 80 80 0 0 1-3.61 3.77 19 19 0 0 1-3.91 3.3 5 5 0 0 1-1.89.62 6 6 0 0 1-.76.01c-.1-.01-.8-.22-.46-.05.26.14-.06-.05-.16-.3.08.18-.1-.54-.09-.45a1.7 1.7 0 0 1 .15-1.23 2.4 2.4 0 0 0-1.67-2.96 2.46 2.46 0 0 0-2.95 1.68 6.8 6.8 0 0 0 .19 4.84 5 5 0 0 0 4.01 3.15c4.44.7 7.84-2.19 10.8-5.09 2.64-2.6 5.56-5.37 7.21-8.74a19.6 19.6 0 0 0 1.56-11.74c-1.3-7.63-7.1-13.35-13.97-16.37a27 27 0 0 0-13.38-1.76 39 39 0 0 0-12.64 3.12 44 44 0 0 0-6.5 3.75 21 21 0 0 0-5.48 4.89 7.2 7.2 0 0 0-.93 6.36 6.35 6.35 0 0 0 5.83 4.07c3.08-.1 3.1-4.9 0-4.8Zm5 26.95c2.63 12.92 5.26 25.84 7.78 38.78a2.4 2.4 0 0 0 2.95 1.68 2.45 2.45 0 0 0 1.68-2.96 4774 4774 0 0 0-7.78-38.78 2.4 2.4 0 0 0-4.63 1.28m-83.51 38.78c3.01-15.34 6.15-30.65 9.24-45.98l2.2-10.93a2.46 2.46 0 0 0-1.68-2.95 2.4 2.4 0 0 0-2.96 1.67c-2.87 14.56-5.88 29.09-8.8 43.63q-1.33 6.64-2.63 13.28a2.46 2.46 0 0 0 1.67 2.96 2.4 2.4 0 0 0 2.95-1.68Z" class="a"/><path d="M113.36 256.1h51.44c3.09 0 3.1-4.8 0-4.8h-51.44c-3.09 0-3.1 4.8 0 4.8m-33.83 50.13q-5.3-.6-10.57-1.48l1.44 3.53 17.38-31.42c1.5-2.71-2.65-5.14-4.15-2.43q-8.67 15.72-17.38 31.42c-.68 1.23-.15 3.27 1.44 3.53q5.9.97 11.84 1.66a2.4 2.4 0 0 0 2.4-2.4 2.46 2.46 0 0 0-2.4-2.4" class="a"/><path d="M102.13 232.82c-5.08-9.08-10.72-19.32-12.84-22.7a3.1 3.1 0 0 0-3.23-1.72 6 6 0 0 0-3.15 1.66 2.95 2.95 0 0 0-.22 3.59c6.58 10.5 12.8 20.53 15.82 25.57 2.94 4.9 11.08 18.28 14.94 24.44a2.54 2.54 0 0 0 4.4-2.54c-3.1-5.81-9.25-16.73-15.72-28.3" class="a"/><path d="M102.96 231.49a17 17 0 0 0-4.96-2.3 16 16 0 0 0-4.05-.6 41 41 0 0 0-5.2.44 59 59 0 0 1-9.82.47c-1.74-.1-4.5-.06-5.93.93a22 22 0 0 0-5.8 5.53 45 45 0 0 0-5.86 12.21c-.57 1.66-.4 5.05 1.04 6.05 2.96 2.04 9.86 9.42 13.87 11.25a13 13 0 0 0 4.9 1.19c2.14.01 4.8-1.13 4.75-4.63a7 7 0 0 0 4.93 1.55 6.4 6.4 0 0 0 2.95-.82 5.7 5.7 0 0 0 2.12-4.82l-.03-.36 1.04.83a6.3 6.3 0 0 0 7.46-.25c.98-1 2.2-4.13 1.37-6.33l-.12-.28q.32.3.66.57a7.5 7.5 0 0 0 3.42 1.48 4.6 4.6 0 0 0 3.58-.63 4.8 4.8 0 0 0 1.5-4.97 14 14 0 0 0-2.57-4.82c-2.2-3.09-6.56-9.23-9.25-11.69" class="b"/><path d="M77.35 257.54a73 73 0 0 0 5.43 5.03c1.67 1.4 3.37 2.8 5.57 3.2a9.2 9.2 0 0 0 6.94-1.15 7.9 7.9 0 0 0 3.01-6.69 2.46 2.46 0 0 0-2.4-2.4 2.4 2.4 0 0 0-2.4 2.4q.03.33.01.64c-.02.31.06-.1-.03.26q-.07.32-.17.63c-.03.1-.23.53-.1.26q-.16.32-.36.63c-.08.15-.2.26-.03.07-.07.07-.55.48-.1.17l-.36.21c-.47.27.16 0-.39.16l-.51.14a3 3 0 0 1-.9.08q-.39-.01-.77-.04c-.19 0-.32-.02-.05.01a7 7 0 0 1-1.13-.27c-.33-.1.46.26-.09-.04l-.47-.25c-.28-.17-.7-.46-.84-.56-.54-.4-1.37-1.12-2-1.66a72 72 0 0 1-4.46-4.23 2.4 2.4 0 1 0-3.4 3.4" class="a"/><path d="M84.57 250.96q3.44 3.21 7.05 6.24c2.1 1.76 4.33 4.09 7.13 4.56 2.52.42 5.6-.09 7.43-2.03a9.2 9.2 0 0 0 1.87-8.54 2.46 2.46 0 0 0-2.95-1.68 2.4 2.4 0 0 0-1.68 2.96 3.7 3.7 0 0 1-.08 2.6 4 4 0 0 1-.47 1.08c-.04.06-.37.54-.16.27.27-.33-.41.38-.06.07a4 4 0 0 1-.6.32l.06-.02a6 6 0 0 1-1.28.33c.4-.05-.31 0-.39 0a5 5 0 0 1-.79-.04c.34.05-.42-.13-.4-.12-.58-.17.1.11-.43-.17a16 16 0 0 1-2.37-1.8q-1.29-1.04-2.55-2.12-3.02-2.59-5.94-5.3c-2.27-2.09-5.67 1.3-3.4 3.4Z" class="a"/><path d="M83.54 262.2a2.2 2.2 0 0 1-.77 1.65 3 3 0 0 1-1.5.4 10 10 0 0 1-5.18-1.62c-3.05-1.92-5.65-4.57-8.3-6.98-1.22-1.09-2.43-2.19-3.73-3.16l-.32-.24c.38.3.02.03 0-.04.06.16-.1-.33-.15-.51a7 7 0 0 1-.11-2.2 26 26 0 0 1 1.96-5.47 40 40 0 0 1 3.11-5.77 19 19 0 0 1 4.56-4.97 6 6 0 0 1 2.31-1.25 12 12 0 0 1 2.9-.17 94 94 0 0 0 12.55-.7c3.84-.38 8.48-.06 11.32 2.94a84 84 0 0 1 7.07 9.04c1.24 1.73 3.05 3.69 3.26 5.87.21 2.28-1.62 2.55-3.4 1.95a10 10 0 0 1-3.08-2.23q-1.62-1.42-3.21-2.87-3.44-3.15-6.95-6.2a2.46 2.46 0 0 0-3.4 0 2.4 2.4 0 0 0 0 3.4c2.47 2.12 4.87 4.31 7.29 6.5 2.2 2 4.48 4.6 7.29 5.73 2.65 1.08 5.95 1.24 8.18-.85a7.6 7.6 0 0 0 1.61-7.9 26 26 0 0 0-3.9-6.44 170 170 0 0 0-4.38-5.86 23 23 0 0 0-4.59-4.96 18 18 0 0 0-6.7-2.72 19 19 0 0 0-4.75-.33 35 35 0 0 0-3.3.33l-.92.12a62 62 0 0 1-7.27.47c-2.5 0-5.11-.37-7.55.43-2.6.84-5 3.08-6.77 5.1-3.59 4.08-5.8 9.33-7.55 14.42a10 10 0 0 0 .02 6.55 6 6 0 0 0 2.13 2.74c.34.26.06.04 0-.02l.53.43 1.1.94c3.61 3.18 7.05 6.95 11.27 9.36a13 13 0 0 0 8.62 1.77 6.6 6.6 0 0 0 5.33-5.4 2.5 2.5 0 0 0-1.67-2.95 2.4 2.4 0 0 0-2.96 1.67m5.23 54.93h95.92c3.1 0 3.1-4.8 0-4.8H88.77c-3.08 0-3.09 4.8 0 4.8" class="a"/></svg>
