<svg xmlns="http://www.w3.org/2000/svg" viewBox="-53.12 0 323.235 323.235"><defs><style>.a{fill:#fff}.c{fill:#211715}.e{fill:#febe69}</style></defs><path d="M153.92 78.35a7.4 7.4 0 0 1 5.3-1.94 6.8 6.8 0 0 1 6.13 3.4c2.08 3.6 1.99 10.25.6 14.36-1 2.91-2.61 7.37-6.52 10.56a8 8 0 0 1-6.24 1.8l-.6-.1a48 48 0 0 1-2.14 5.83c-1.46 3.94-8.93 16.94-18.7 23.63v2.64a81 81 0 0 1-23.89 16.49c-.5.22-1.78 1.4-.96 2.4h-2.44c.82-1-.47-2.18-.97-2.4a81 81 0 0 1-23.88-16.5v-4.47a51 51 0 0 1-7.78-7.64 56 56 0 0 1-10.6-19.98 8 8 0 0 1-6.75-1.7c-3.9-3.2-5.52-7.65-6.51-10.56-1.4-4.11-1.49-10.75.6-14.36a6.8 6.8 0 0 1 6.12-3.4 7.4 7.4 0 0 1 5.3 1.94s-8.23-45.44 46.97-45.44 46.96 45.44 46.96 45.44" class="a"/><path d="M154.21 155.2a94 94 0 0 0-10.79-3.3l-4.19-.87c-5.58 9.06-10.65 18.1-18.15 25.51-2.17-2.9-6.22-8.17-9.45-12.46-2.46-3.28-4.29-6.1-4.73-6.66h-2.44c-.45.56-2.27 3.38-4.74 6.66-3.22 4.3-7.28 9.56-9.44 12.46-7.5-7.42-12.57-16.45-18.15-25.5-11.3 4.84-24.94 8.55-36.4 15.82-4.7 2.98-10.6 7.8-13.65 12.5a76 76 0 0 0-8.9 21.16 282 282 0 0 0-4.37 22.23 489 489 0 0 0-6.27 56.2c-.5 8 .28 16.6 3.28 24s10.55 14.39 18.05 16.69a24.3 24.3 0 0 0 17.76-1.05l.02.59a4 4 0 0 0 .12 1.1 1.3 1.3 0 0 0 1.13.56c4.87.02 117.7-.1 127.96-.1a2 2 0 0 0 1.1-.4 2 2 0 0 0 .27-.85c.07-2.86.08-5.42.08-8.33a57 57 0 0 0 7.24 2.65c6.2 1.72 14.97 2.45 20.9-.54 11.85-5.98 14.13-18.46 14.13-27.66a179 179 0 0 0-1-21.1c-2.12-17.76-6.9-48.4-10.7-60.74-4.07-13.21-7.97-24.05-16.69-31.8a63 63 0 0 0-17.92-11.31c-3.2-1.36-8.73-3.56-14.06-5.46" style="fill:#5199d1"/><path d="M90.28 176.54c-7.72-7.63-12.86-16.97-18.64-26.3a42 42 0 0 1 7.97-11.71 81 81 0 0 0 23.88 16.49c.5.22 1.79 1.4.97 2.4-.45.55-2.27 3.38-4.74 6.66-3.22 4.3-7.28 9.56-9.44 12.46m30.8 0c7.71-7.63 12.86-16.97 18.63-26.3a42 42 0 0 0-7.97-11.71 81 81 0 0 1-23.88 16.49c-.5.22-1.78 1.4-.96 2.4.44.55 2.27 3.38 4.73 6.66 3.23 4.3 7.28 9.56 9.45 12.46" class="a"/><path d="M91.97 174.84c-7.53-7.5-12.7-16.83-18.26-25.8v2.43a41 41 0 0 1 7.6-11.24h-3.4a83 83 0 0 0 19.14 14.28q2.4 1.3 4.86 2.42a4 4 0 0 0 .52.25c-.27-.07.07-.02-.02 0 .59-.2-.02.2.06.08l.11-.72q.37-1.18-.07-.49a7 7 0 0 0-.88 1.23q-3.1 4.46-6.38 8.77-3.54 4.63-7.05 9.28a2.4 2.4 0 0 0 .86 3.29 2.46 2.46 0 0 0 3.29-.86c4.49-6.01 9.16-11.88 13.42-18.06l.44-.63.13-.19a3.6 3.6 0 0 0 .63-3.2c-.58-1.96-2.27-2.7-3.94-3.5a79 79 0 0 1-10.62-6.13 77 77 0 0 1-11.1-9.22 2.44 2.44 0 0 0-3.4 0 43 43 0 0 0-7.21 9.96 15 15 0 0 0-1.37 2.82c-.36 1.29.55 2.36 1.18 3.38l3.26 5.34c4.33 7.06 8.92 14.03 14.8 19.9 2.2 2.19 5.6-1.2 3.4-3.39" class="c"/><path d="M122.77 178.24c5.9-5.88 10.48-12.85 14.81-19.9l3.26-5.34c.63-1.03 1.54-2.1 1.19-3.38a15 15 0 0 0-1.38-2.83 43 43 0 0 0-7.2-9.96 2.44 2.44 0 0 0-3.4 0 79 79 0 0 1-20.23 14.62c-1.55.78-3.42 1.3-4.56 2.66a4 4 0 0 0-1.02 2.76 3.5 3.5 0 0 0 .5 1.63q.2.32.46.63c-.47-.64-.2-.27-.11-.13 1.92 2.97 4.09 5.8 6.22 8.62q3.86 5.06 7.7 10.14a2.5 2.5 0 0 0 3.28.86 2.4 2.4 0 0 0 .86-3.29c-4.29-5.74-8.79-11.33-12.85-17.23l-.9-1.3-.33-.46a5 5 0 0 0-.41-.54 12 12 0 0 1 .19 1.48c-.05-.06.2-.19.41-.27l1.12-.51q1.32-.62 2.62-1.3a82 82 0 0 0 10-6.15 84 84 0 0 0 10.44-8.83h-3.4a41 41 0 0 1 7.6 11.24v-2.42c-5.56 8.97-10.73 18.3-18.26 25.8-2.2 2.19 1.2 5.58 3.4 3.4M39.24 319.17c.07 1.39.28 2.6 1.53 3.43a4 4 0 0 0 2.22.63h12.7l30.84-.02 37.08-.04 32.07-.03h15.03a3.74 3.74 0 0 0 3.92-3.9c.15-2.68.07-5.4.07-8.08 0-3.1-4.8-3.1-4.8 0v3.95l-.03 1.82a9 9 0 0 0-.04 2.08v.48l.85-1.14c-.01-.38.27.07.13-.01-.05-.03-.17 0-.23 0a2 2 0 0 0-.49 0h-12.53l-30.1.03-35.92.03-31.46.03H43.12c-.43.07-.04-.3.34.15l.62 1.06c-.1-.35 0 .3-.04-.47-.15-3.07-4.95-3.09-4.8 0" class="c"/><path d="M68.6 50.63a21 21 0 0 0-2.88 4.03c-3.2 5.68-.8 20.53-5 24.54a7.1 7.1 0 0 0-6.03-2.8 9 9 0 0 0-2.3.37c-1.73-6.46-2.92-13.48-2.69-19.08.8-18.75 6.85-30.03 16.77-37.91a8 8 0 0 0 1.04-1.01c8.55-9.96 23.47-17.18 39.31-16.39 12.61.63 22.68 3.82 31.33 9.91l2.93 2.06 4.38 3.96c9.09 8.2 17.3 21.01 18.1 39.9a60 60 0 0 1-2.25 18.5 9 9 0 0 0-2.08-.3 7.4 7.4 0 0 0-5.3 1.94l-1.2-.27c-.09-8.23-4.5-27.49-15.64-31.43A125 125 0 0 0 119.23 42c-7.02-.96-13.55.15-20.56 1.15-4.61.65-9.4 1.2-15.65 1.63-5.8.26-10.3 1.76-13.8 5.2q-.32.31-.62.65" style="fill:#aaa"/><path d="M61.69 76.65a10.4 10.4 0 0 0-11.43-1.6 10 10 0 0 0-5.1 6.97 26.3 26.3 0 0 0 4.05 20.42c2.86 4.15 6.91 7.13 12.15 6.41a2.4 2.4 0 0 0 1.67-2.95 2.47 2.47 0 0 0-2.95-1.68c-3.59.5-6.4-3.36-7.88-6.08a23 23 0 0 1-2.77-8.9 20 20 0 0 1 .21-5.26 12 12 0 0 1 .58-2.14 7 7 0 0 1 .5-.96c.04-.06.41-.6.25-.39a4.8 4.8 0 0 1 2.93-1.61 5.2 5.2 0 0 1 4.4 1.17c2.29 2.07 5.7-1.32 3.4-3.4Zm93.93 3.4a5.3 5.3 0 0 1 7.39.52c-.33-.4.13.22.18.3a7 7 0 0 1 .5.97 12 12 0 0 1 .55 1.97 20 20 0 0 1 .25 5.43 23 23 0 0 1-2.7 8.74c-1.47 2.77-4.3 6.74-7.96 6.24a2.5 2.5 0 0 0-2.95 1.68 2.4 2.4 0 0 0 1.68 2.95c8.53 1.16 13.5-7.16 15.75-14.19a25 25 0 0 0 .72-11.25 11.2 11.2 0 0 0-4.36-7.78 10.3 10.3 0 0 0-12.44 1.02c-2.3 2.08 1.1 5.47 3.4 3.4Z" class="c"/><path d="M151.17 102.35a45 45 0 0 1-1.7 5.92c-.24.67-.62 1.7-.81 2.15l-.53 1.2c-.04.1-.27.68-.1.29l-.12.24-.27.6q-.35.72-.73 1.43a60 60 0 0 1-1.91 3.35 59 59 0 0 1-12.59 14.88 23 23 0 0 1-9.3 4.81c-3 .7-1.73 5.33 1.28 4.63 7.15-1.65 13.09-6.87 17.75-12.3a64 64 0 0 0 9.88-14.9q.37-.82.7-1.65l.43-.99q.27-.64.52-1.3a47 47 0 0 0 2.12-7.1 2.46 2.46 0 0 0-1.67-2.95 2.4 2.4 0 0 0-2.96 1.68Zm-93.19 1.1a59 59 0 0 0 8.25 19.44c4.24 6.4 9.82 12.39 16.57 16.16A33 33 0 0 0 94 142.9a2.5 2.5 0 0 0 2.95-1.68 2.4 2.4 0 0 0-1.67-2.95c-13.93-2.06-24.36-14.14-29.63-26.53a56 56 0 0 1-3.04-9.55c-.68-3.01-5.31-1.74-4.63 1.28Zm81.38-93.23c-8.07-5.64-17.42-8.66-27.14-9.8a55.4 55.4 0 0 0-30.25 4.62 51 51 0 0 0-11.89 7.74c-1.67 1.46-3.09 3.12-4.64 4.7-1.31 1.32-2.87 2.4-4.21 3.72a45 45 0 0 0-11.6 20.33 71 71 0 0 0-2.34 16.54 67 67 0 0 0 2.57 18.5c.77 2.98 5.4 1.71 4.63-1.29a67 67 0 0 1-2.41-15.42 62 62 0 0 1 1.42-13.9A42 42 0 0 1 63 26.29a42 42 0 0 1 3.68-3.59c.67-.57 1.4-1.1 2.03-1.7.76-.74 1.42-1.59 2.16-2.35a45 45 0 0 1 10.25-7.79 48.7 48.7 0 0 1 27.03-6c10.32.67 20.26 3.55 28.79 9.5a2.4 2.4 0 0 0 3.28-.86 2.45 2.45 0 0 0-.86-3.28m24.46 66.34A68 68 0 0 0 166 61.9a66 66 0 0 0-1.34-14.47 57 57 0 0 0-9.5-21.87 58 58 0 0 0-8-8.95c-2.28-2.07-5.68 1.31-3.4 3.4a53 53 0 0 1 12.02 15.93 57 57 0 0 1 5.43 24.03 61 61 0 0 1-2 15.32c-.73 3 3.9 4.28 4.63 1.27Zm-65.59 41.46a19 19 0 0 0 9.22 2.14 15 15 0 0 0 9.3-2.75 2.4 2.4 0 0 0 0-3.4 2.46 2.46 0 0 0-3.4 0c.74-.56.17-.13-.01 0s-.38.22-.57.32l-.3.16c-.4.2.1-.05.1-.04a5 5 0 0 1-.8.29 14 14 0 0 1-2.2.5c.36-.05-.06 0-.2.02l-.65.05a23 23 0 0 1-3.6-.06c-.03 0-.8-.1-.31-.03a16 16 0 0 1-2.06-.46q-.43-.13-.85-.28c-.62-.21.35.18-.2-.08l-1.05-.52a2.45 2.45 0 0 0-3.28.86 2.43 2.43 0 0 0 .86 3.28m8-21.71a43 43 0 0 1 1.02 4.65l-.09-.63a3 3 0 0 1 .02.64l.09-.64-.07.29.24-.57-.1.18.37-.48-.15.15.49-.38-.37.2.57-.24a3 3 0 0 1-.62.18l.64-.09a2 2 0 0 1-.59 0l.64.09-.65-.11a2 2 0 0 0-.96-.05 2 2 0 0 0-.9.29 2.4 2.4 0 0 0-.85 3.28 2.3 2.3 0 0 0 1.43 1.1c.5.07.99.2 1.5.22a5 5 0 0 0 2.21-.53 3.2 3.2 0 0 0 1.77-2.1 5 5 0 0 0-.02-2.27q-.39-2.25-.99-4.46a2.4 2.4 0 0 0-4.63 1.28M81.62 83.1c-.78 2.53-.27 8.35 4.52 8.84 6.32-.04 6.66-7.07 4.53-10.37-1.74-2.7-6.87-3.83-9.05 1.53m50.67 0c.78 2.53.28 8.35-4.51 8.84-6.33-.04-6.67-7.07-4.54-10.37 1.75-2.7 6.88-3.83 9.05 1.54m-11.59 29.56a8 8 0 0 1 .75.84l-.38-.49a10 10 0 0 1 1.22 2.15l-.25-.57.32.8a2.7 2.7 0 0 0 1.1 1.44 2.4 2.4 0 0 0 3.28-.86 2.4 2.4 0 0 0 .25-1.85 12.4 12.4 0 0 0-2.9-4.85 2.5 2.5 0 0 0-1.7-.7 2.4 2.4 0 0 0-1.7.7 2.4 2.4 0 0 0-.7 1.7 2.5 2.5 0 0 0 .7 1.7Zm34.42-34.59a51 51 0 0 0-2.36-13.95c-1.6-5.3-3.94-10.57-7.66-14.73a18 18 0 0 0-7.37-5.06 2.4 2.4 0 0 0-2.95 1.68 2.45 2.45 0 0 0 1.67 2.95 13 13 0 0 1 4.88 3.41 25 25 0 0 1 3.9 5.72 49 49 0 0 1 4.47 13.86 36 36 0 0 1 .62 6.12c.04 3.09 4.84 3.1 4.8 0" class="c"/><path d="M128.4 42.9c-.82-2.99-1.74-6.04-3.73-8.48a15 15 0 0 0-3.01-2.58 20 20 0 0 0-3.91-2.17 2.4 2.4 0 0 0-2.95 1.68 2.47 2.47 0 0 0 1.67 2.95c-.79-.31.06.04.26.14l.8.45q.84.5 1.63 1.04l.8.57c.26.2-.4-.32-.08-.05l.32.26.56.52a6 6 0 0 0 .52.59c-.2-.15-.3-.4-.05-.07l.22.34q.2.31.4.66s.25.47.36.71l.2.42c.2.46-.18-.44 0 0q.77 2.13 1.35 4.3a2.4 2.4 0 1 0 4.63-1.28Zm-12.04-.96a29 29 0 0 0-5.53-5.78 31 31 0 0 0-5.89-3.45 30 30 0 0 0-6.02-1.91 25 25 0 0 0-6.68-.81 2.45 2.45 0 0 0-2.4 2.4 2.4 2.4 0 0 0 2.4 2.4 19 19 0 0 1 5.4.64q1.5.34 2.99.79.6.18 1.21.4l.53.19c.64.22-.4-.2.15.06a24 24 0 0 1 9.7 7.5 2.5 2.5 0 0 0 3.28.86 2.4 2.4 0 0 0 .86-3.29m-33.34.44a27 27 0 0 0-10.72 2.48 20 20 0 0 0-7.8 7.2C61 57.37 61.53 64.21 61 70.3a26 26 0 0 1-.72 4.54 15 15 0 0 1-.44 1.39c-.25.67.21-.36-.11.24q-.2.37-.42.72c-.23.38-.04.05.03-.02l-.4.4c-2.25 2.13 1.15 5.52 3.4 3.4 1.88-1.78 2.6-4.49 3-6.96.5-3.15.64-6.35.86-9.53a28 28 0 0 1 1.28-7.99c.02-.07.18-.43.01-.05l.15-.3q.24-.46.51-.92a19 19 0 0 1 1.42-2.08 15 15 0 0 1 3.27-3.06 20 20 0 0 1 10.18-2.91c3.08-.15 3.1-4.95 0-4.8Zm59.76 111.83c6.53 1.39 12.88 3.98 19.07 6.4l4.24 1.7.8.34.24.1.42.18q1.36.59 2.7 1.23a61 61 0 0 1 10.8 6.63 43 43 0 0 1 8.62 8.54 54 54 0 0 1 5.55 9.91 124 124 0 0 1 6.72 20.22c3.44 14 5.59 28.37 7.6 42.64a231 231 0 0 1 2.47 23.66c.28 7.27.68 14.67-1.44 21.6-1.9 6.2-6.28 12.11-12.58 14.36-7.04 2.5-15.2.93-21.99-1.63a40 40 0 0 1-5.39-2.47c-2.7-1.5-5.12 2.64-2.42 4.15a45 45 0 0 0 23.89 5.88 24 24 0 0 0 11.85-3.61 26 26 0 0 0 8.1-8.25c3.54-5.72 4.82-12.6 4.93-19.25a188 188 0 0 0-1.67-27.5c-2-15.33-4.3-30.68-7.56-45.8a154 154 0 0 0-5.74-19.86c-2.8-7.71-6.36-15.28-12.13-21.23-6.1-6.28-13.78-10.83-21.8-14.17a208 208 0 0 0-19.9-7.32 51 51 0 0 0-4.1-1.08c-3.01-.64-4.3 3.99-1.28 4.63M31.65 274.78c5.64-4.18 11.55-8 17.2-12.17a2.47 2.47 0 0 0 .86-3.28 2.4 2.4 0 0 0-3.29-.86c-5.64 4.17-11.55 7.98-17.2 12.17a2.47 2.47 0 0 0-.86 3.28 2.4 2.4 0 0 0 3.29.86m3.06-66.84a304 304 0 0 0 8.6 33.41c.97 2.92 5.6 1.67 4.62-1.28a304 304 0 0 1-8.6-33.4c-.63-3.03-5.26-1.75-4.62 1.27" class="c"/><path d="M52.06 309.51c-5.89 4.18-12.4 8.68-19.88 8.91-7.6.24-14.49-3.55-19.48-9.1-5.43-6.04-7.34-14.23-7.8-22.17a105 105 0 0 1 .34-13q.43-6.29.96-12.56c1.2-13.81 3.1-27.52 5.42-41.2a270 270 0 0 1 4-19.75 64 64 0 0 1 8.95-20.68 39 39 0 0 1 8.19-8.11 66 66 0 0 1 10.25-6.38c7.3-3.73 15.07-6.4 22.72-9.3q2.77-1.05 5.5-2.18a2.5 2.5 0 0 0 1.68-2.95 2.4 2.4 0 0 0-2.95-1.68c-15.74 6.48-32.94 10.94-45.38 23.28-5.85 5.8-9.34 13.66-11.99 21.35a137 137 0 0 0-4.74 20.22 521 521 0 0 0-6.13 43.83q-.58 6.22-1.02 12.44c-.33 4.58-.75 9.18-.7 13.77.12 8.57 1.6 18 6.66 25.14 4.79 6.75 11.99 12.07 20.26 13.43 8.08 1.33 15.47-1.32 22.26-5.58 1.8-1.13 3.56-2.35 5.3-3.58a2.47 2.47 0 0 0 .86-3.29 2.4 2.4 0 0 0-3.29-.86Z" class="c"/><path d="M76.16 256.82 105 141.14l93.16 23.23-28.84 115.68z" class="a"/><path d="m103.97 145.3-27.8 111.52 10.61 2.65 28.85-115.68-10.62-2.65Z" class="e"/><path d="m89.3 259.27 12.11-48.56 12.27-49.2 4.26-17.08c.75-3-3.88-4.28-4.63-1.28l-9.17 36.79-13.09 52.49L84.68 258c-.75 3 3.88 4.28 4.63 1.28Z" class="c"/><path d="m102.45 141.48-2.4 9.62-5.9 23.66-7.45 29.87-7.04 28.26-4.7 18.82c-.28 1.13-.61 2.27-.85 3.42a3.5 3.5 0 0 0 2.46 4.27c.42.13.87.21 1.3.32l17.82 4.44 28.96 7.22 27.94 6.97c4.92 1.23 9.84 2.55 14.79 3.68a3.57 3.57 0 0 0 4.5-2.32q.1-.33.17-.68l1.24-4.97 5.22-20.93 7.24-29.07 7.33-29.38 5.45-21.87 1.41-5.66q.16-.55.27-1.1a3.5 3.5 0 0 0-2.47-4.26c-4.31-1.34-8.84-2.2-13.22-3.3l-27.34-6.81-29.32-7.31-19.15-4.78c-2.12-.53-4.86-1.4-6.02 1.31a2.5 2.5 0 0 0 .86 3.28 2.4 2.4 0 0 0 3.28-.86c-.64 1.5-2.07.13-1.3.43l.6.14 2.26.57 8.2 2.04 25.92 6.47 29.27 7.3 20.92 5.21 2.61.65a4 4 0 0 0 1.19.3 5 5 0 0 0-.9-1.68c-.07.07-.06.26-.09.34a14 14 0 0 0-.4 1.59l-4.05 16.25-6.66 26.72-7.38 29.59-6.3 25.25-3.32 13.33a2 2 0 0 0-.12.47c.06.84 1.32-1.22 1.7-.8-.12-.14-.7-.18-.87-.22l-5.93-1.48-23.45-5.85-29.55-7.37-23.92-5.96-6.34-1.58c-.23-.06-.88-.35-1.12-.28.2-.06.66 2 .93 1.66.07-.08.06-.27.1-.36.48-1.4.72-2.92 1.08-4.35l2.08-8.35 6.21-24.91 7.37-29.55 6.73-26.99 4.19-16.82.58-2.33c.76-3-3.87-4.28-4.62-1.28" class="c"/><path d="m163.35 229.58-48.37-12.06c-3-.75-4.28 3.88-1.28 4.63l48.37 12.06c3 .75 4.28-3.88 1.28-4.63" class="c"/><path d="m167.58 210.58-48.18-12.02 7.5-30.11 48.2 12Z" class="e"/><path d="m168.22 208.26-48.19-12.01 1.68 2.95 6.58-26.4.93-3.72-2.95 1.68 48.18 12.01-1.67-2.95-6.59 26.4-.92 3.72c-.75 3 3.88 4.27 4.63 1.27l6.58-26.4.93-3.71a2.44 2.44 0 0 0-1.68-2.95l-48.19-12.02a2.44 2.44 0 0 0-2.95 1.68l-6.58 26.4-.93 3.71a2.44 2.44 0 0 0 1.68 2.96l48.18 12.01c3 .75 4.28-3.88 1.28-4.63" class="c"/><path d="M170.33 239.6a19 19 0 0 0-8.55-.54c-2.58.62-4.48 3.23-3.54 5.7a7.5 7.5 0 0 0 3.29 3.3 98 98 0 0 0 17.9 8.97l-21.74-2.92a17 17 0 0 0-4.62-.19 5.6 5.6 0 0 0-3.9 2.25 5.9 5.9 0 0 0 .34 6.09 7 7 0 0 0 2.77 2.17l-1.76.26a5 5 0 0 0-4.14 5.11 6.2 6.2 0 0 0 3.53 5.44 21 21 0 0 0 5.1 1.78l-1.27 1.43a5.2 5.2 0 0 0-.28 5.9c2.6 4.44 10.35 5.52 15.92 6.32a24.5 24.5 0 0 0 11.21-.94c5.69-1.91 9.26-4.24 12.47-10.3 2.17-4.1 2.79-8.74 2.86-13.63a31 31 0 0 0-1.83-10.52 13.6 13.6 0 0 0-4.6-6.08 76 76 0 0 0-5.2-3.55 51 51 0 0 0-13.96-6.06" class="a"/><path d="M177.23 253.6a99 99 0 0 1-14.1-7.36c-1.1-.7-3.36-1.87-2.58-3.5.62-1.3 2.24-1.5 3.29-1.55 3.98-.18 8.02 1.15 11.66 2.63a58 58 0 0 1 12.11 6.96c3.73 2.72 5.1 6.86 5.69 11.3a31 31 0 0 1-1.05 13.05 19 19 0 0 1-6.2 9.3 22 22 0 0 1-10.76 4 39 39 0 0 1-14.02-1.76 12 12 0 0 1-4.75-2.35c-.96-.87-2.18-2.82-1.09-4.17a2.47 2.47 0 0 0 0-3.4 2.4 2.4 0 0 0-3.4 0c-3.6 4.45-1.09 10.07 3.41 12.67 4 2.3 8.8 2.95 13.3 3.57a29 29 0 0 0 16.38-2.47 21.2 21.2 0 0 0 9.62-9.16c2.8-4.98 3.73-10.87 3.57-16.53-.16-5.4-1.4-11.39-5.13-15.5a33 33 0 0 0-6.86-5.22 55 55 0 0 0-7.28-3.94c-4.54-2.03-9.56-3.8-14.6-3.79-2.71.01-5.46.68-7.25 2.87a6.45 6.45 0 0 0 .08 8.45c1.97 2.34 5.24 3.86 7.87 5.33a100 100 0 0 0 9.67 4.72 2.5 2.5 0 0 0 3.28-.86 2.4 2.4 0 0 0-.86-3.28Z" class="c"/><path d="m177.6 254.39-19.92-2.68c-2.86-.38-5.96-.54-8.48 1.15a7.2 7.2 0 0 0-3 7.38c.7 4.48 4.73 6.66 8.76 7.72 3.1.81 6.23 1.48 9.35 2.17q4.71 1.05 9.43 2.06c3.01.65 4.3-3.98 1.28-4.63a846 846 0 0 1-15.96-3.54c-2.23-.52-4.87-.94-6.76-2.31-1.2-.88-2.03-2.97-1.06-4.32 1.15-1.6 3.89-1.2 5.52-1 6.53.78 13.04 1.75 19.56 2.63a2.5 2.5 0 0 0 2.95-1.68 2.4 2.4 0 0 0-1.68-2.95" class="c"/><path d="M149.89 262.38a7.46 7.46 0 0 0-5.91 7.25 8.9 8.9 0 0 0 5.2 7.93c4.56 2.23 10.02 2.72 14.98 3.64q3.18.6 6.36 1.17a2.47 2.47 0 0 0 2.95-1.67 2.4 2.4 0 0 0-1.67-2.96c-4.34-.75-8.66-1.6-12.99-2.4-2.78-.5-6.42-.9-8.66-2.8-1.98-1.68-1.84-5 1.01-5.53a2.4 2.4 0 0 0 1.68-2.96 2.45 2.45 0 0 0-2.95-1.67" class="c"/><path d="M72.54 224.36a43 43 0 0 1 17.77-4.53c2.2 0 4.54.18 6.38 1.41a4.25 4.25 0 0 1 1.94 4.8 3.9 3.9 0 0 1-2.73 2.72 44 44 0 0 0-4.23 1.35 51 51 0 0 0-9.84 4.42l-.64 4.05a132 132 0 0 1 13.4 2.92 31 31 0 0 1 7.03 2.74 7.7 7.7 0 0 1 3.68 3.24 6 6 0 0 1 .66 3.45 3.9 3.9 0 0 1-2.38 3.18 7 7 0 0 1-4.59.48q-1.93-.44-3.88-.93c3.74 1.86 3.98 3.27 4.65 5.4a4.7 4.7 0 0 1-.48 3.59 5.6 5.6 0 0 1-5.4 1.7c-1.56-.4-3.02-.74-4.5-1.06l1.74 1.23c3.11 2.23 2.31 7.4-.36 8.26-2.17.7-5.73.08-9.53-.21-.4 5.28-5.62 10.46-7.46 11.5-1.14.64-4.71 2.24-7.47 2.2-5.77-.1-10.56-4.09-13.76-8.88-2-2.99-2.1-8.12-.4-11.28a69 69 0 0 0 5.93-15.17c1.53-6.08 5.16-17.16 8.85-21.63Z" class="a"/><path d="M73.75 226.43a45 45 0 0 1 12.13-3.85 28 28 0 0 1 6.1-.3c1.4.09 3.42.42 4.18 1.79a1.7 1.7 0 0 1-.57 2.28 19 19 0 0 1-2.86.85q-1.41.48-2.82 1a64 64 0 0 0-9.3 4.26c-2.69 1.52-.27 5.66 2.43 4.14a56 56 0 0 1 8.33-3.83 99 99 0 0 1 5.17-1.7 6.4 6.4 0 0 0 3.98-3.34c1.84-3.92-.5-7.87-4.28-9.4-3.6-1.44-7.91-.98-11.64-.38a49 49 0 0 0-13.28 4.34 2.4 2.4 0 0 0-.86 3.28 2.45 2.45 0 0 0 3.29.86m-8.53 1.19c-3.7 4.6-5.75 10.56-7.55 16.11-.9 2.75-1.59 5.55-2.39 8.33a65 65 0 0 1-4.07 10.62 27 27 0 0 0-2.16 4.8 14.7 14.7 0 0 0 3.36 13.74c4.2 5.11 10.73 8.69 17.44 6.96a16.7 16.7 0 0 0 7.56-3.95 21 21 0 0 0 5.82-9.21c.86-2.98-3.77-4.25-4.63-1.28a16 16 0 0 1-4.15 6.67q-.59.6-1.24 1.15c-.58.5.2-.12-.13.1l-.38.26a13 13 0 0 1-2.7 1.2 10.4 10.4 0 0 1-7.7-.1 17 17 0 0 1-6.25-4.9 10 10 0 0 1-2.7-6.65c-.02-2.97 1.47-5.18 2.68-7.79a73 73 0 0 0 3.62-9.47c.77-2.55 1.38-5.14 2.17-7.69a92 92 0 0 1 3.1-8.66 47 47 0 0 1 2.82-5.58c.3-.48.69-1.03.87-1.26a2.47 2.47 0 0 0 0-3.4 2.4 2.4 0 0 0-3.4 0Z" class="c"/><path d="M80.55 240.9a128 128 0 0 1 12.8 2.75 33 33 0 0 1 5.35 1.8c1.4.66 3.22 1.35 4.17 2.62.74 1 1.19 2.8.12 3.64-1.58 1.24-3.83.47-5.54.05-4.65-1.12-9.26-2.36-13.99-3.11a2.47 2.47 0 0 0-2.95 1.67 2.4 2.4 0 0 0 1.68 2.96c4.42.7 8.76 1.83 13.1 2.9 2.04.5 4.13 1.16 6.25.93a8 8 0 0 0 5.47-2.7c2.63-3.26 1.28-8.27-1.8-10.72-2.85-2.25-6.52-3.54-9.98-4.5a125 125 0 0 0-13.4-2.93 2.47 2.47 0 0 0-2.95 1.68 2.4 2.4 0 0 0 1.68 2.95Z" class="c"/><path d="M95.86 256.88a3.6 3.6 0 0 1 1.2 1.58 14 14 0 0 1 .44 1.45c-.07-.34.01.1.01.24a5 5 0 0 1-.03.69c.04-.29-.12.41-.12.4.06-.23-.14.04.04-.09a5 5 0 0 1-.95.66 3.8 3.8 0 0 1-2.7.04 129 129 0 0 0-14.71-2.7 2.4 2.4 0 0 0-2.4 2.4 2.46 2.46 0 0 0 2.4 2.4q4.42.55 8.77 1.45c2.94.61 6.15 1.98 9.16 1.28a8 8 0 0 0 4.01-2.34 6 6 0 0 0 1.33-4.2 9.5 9.5 0 0 0-4.03-7.41 2.4 2.4 0 0 0-3.28.86 2.46 2.46 0 0 0 .86 3.28Z" class="c"/><path d="M89.91 266.6c-.53-.4.04.06.14.16l.21.24-.08-.11.28.47c.3.5-.1-.38.03.06l.18.58.06.3q.06.4-.02-.18a4 4 0 0 0 0 1.05c-.02.43.12-.58-.03.09a5 5 0 0 1-.2.68q-.13.36.09-.19a3 3 0 0 0-.26.48c-.29.49.08-.03.07-.06a3 3 0 0 1-.36.36l.19-.14-.21.12c-.3.25.57-.14.05-.02l-.52.13-.31.05.14-.02q-.64.04-1.28.05c-1.05 0-2.1-.1-3.15-.19a71 71 0 0 0-7.25-.47 2.4 2.4 0 0 0 0 4.8 62 62 0 0 1 6.56.4 25 25 0 0 0 5.45.17 6 6 0 0 0 4.69-2.65 7.5 7.5 0 0 0 1.12-4.64 7.6 7.6 0 0 0-3.17-5.66 2.4 2.4 0 0 0-3.29.86 2.47 2.47 0 0 0 .86 3.28Z" class="c"/></svg>
