<svg xmlns="http://www.w3.org/2000/svg" viewBox="-56.05 0 365.401 365.401"><defs><style>.a{fill:#fff}.b{fill:#211715}.c{fill:#7a7473}.d{fill:#febe69}</style></defs><path d="M77.97 324.88c-5.03-7.76-17.9-26.55-23.24-34.58l-.4-.58c8.37-33.43 26.06-105.17 31.5-127.7a10 10 0 0 0 .26-1.83l.56.23h.52l4.49.69 6.97 3.14a3.1 3.1 0 0 0 4.36-1.71 3.3 3.3 0 0 0-1.72-4.51l-9.09-3.9-5-.68-6.98-3.14a3.1 3.1 0 0 0-4.36 1.71 3.3 3.3 0 0 0 1.72 4.51l.96.41a25769 25769 0 0 1-37.05 149.99 31.7 31.7 0 0 1 25.6 27.94h119.17a33 33 0 0 1 2.76-10z" class="a"/><path d="M196.99 310.06c-2.59 3.04-7.44 8.14-10.55 10.43l-5.75 4.38H189a31.5 31.5 0 0 1 13.93-14.81ZM90.65 162.84l4.6 2.07c2.01.91 4.26 2.29 6.53 1.4a5.7 5.7 0 0 0 3.52-5.05 5.2 5.2 0 0 0-2.94-4.93q-2.07-.9-4.15-1.77l-5.02-2.15a2.06 2.06 0 0 0-2.73.72 2 2 0 0 0 .71 2.74l8.7 3.72.38.16q.33.16.64.34c.19.1-.09-.07-.1-.09l.21.2c.03.03.22.2.03.02s.06.09.1.15l.1.2c.15.2-.07-.33-.04-.08a2 2 0 0 0 .12.42c.1.24.01-.36-.01-.1v.53c.04-.06.08-.38 0-.08l-.15.52c-.06.21.02-.06.04-.09l-.16.3-.14.2c-.12.25.23-.18.03-.02l-.15.16c-.07.06-.38.25-.13.13l-.28.13c-.05-.02.4-.08.16-.08l-.2.06c-.39.15.15-.04.13 0l-.2.02h-.28c-.23.04.33.08.1.02l-.5-.12c-.13-.03-.27-.1.05.03l-.14-.07-1.98-.89-4.84-2.18a2.05 2.05 0 0 0-2.73.71 2 2 0 0 0 .71 2.74Zm-2.47-11.11-4.6-2.08c-2.01-.9-4.26-2.28-6.52-1.4a5.7 5.7 0 0 0-3.53 5.05 5.2 5.2 0 0 0 2.94 4.93q2.07.9 4.16 1.78l5 2.14a2.06 2.06 0 0 0 2.75-.72 2 2 0 0 0-.72-2.73l-8.7-3.73-.38-.16-.64-.33c-.18-.1.09.06.11.08l-.21-.2c-.04-.02-.23-.2-.04-.02s-.06-.09-.1-.15l-.1-.2c-.15-.2.08.33.04.08a2 2 0 0 0-.11-.42c-.1-.24-.02.36 0 .1q.02-.11 0-.22a1 1 0 0 1 .01-.3c-.05.05-.08.37 0 .07l.15-.52c.06-.2-.03.07-.04.1l.16-.3.13-.22c.13-.24-.23.2-.03.03l.16-.16c.06-.06.38-.25.13-.13l.27-.13c.05.02-.4.08-.16.08l.2-.06c.4-.15-.15.04-.13 0l.21-.02h.28c.22-.04-.33-.08-.11-.02q.24.08.5.12c.14.04.27.1-.05-.03l.15.07 1.98.89 4.83 2.18a2.05 2.05 0 0 0 2.74-.71 2 2 0 0 0-.72-2.74Z" class="b"/><path d="M34.64 314.68a23.8 23.8 0 0 0-24.26 24.1c0 14.55 10.13 24.57 24.26 24.57 14.68 0 24.26-10.11 24.26-24.56a23.77 23.77 0 0 0-24.26-24.11" class="c"/><path d="M34.64 327.82a10.94 10.94 0 0 0-11.15 11.09c0 6.69 4.66 11.3 11.15 11.3 6.75 0 11.16-4.65 11.16-11.3a10.93 10.93 0 0 0-11.16-11.09" class="a"/><path d="M34.64 312.68a26.1 26.1 0 0 0-25.08 18.2c-3.16 10.2-.05 22.39 8.5 29.03 8.47 6.6 21.3 7.27 30.58 1.91 9.43-5.45 13.47-16.73 11.93-27.2a25.8 25.8 0 0 0-8.28-15.4 26.7 26.7 0 0 0-17.65-6.54c-2.57-.02-2.57 3.98 0 4 9.63.06 18.33 5.9 21.22 15.23 2.66 8.57.38 18.97-6.72 24.75-7 5.69-18.09 6.22-25.88 1.93-8.16-4.5-12.02-14.16-10.64-23.2a21.73 21.73 0 0 1 22.02-18.72c2.58 0 2.58-4 0-4" class="b"/><path d="M34.64 325.82a13.1 13.1 0 0 0-12.55 9.1 13.6 13.6 0 0 0 4.22 14.52 14.1 14.1 0 0 0 15.27 1.02c4.78-2.73 6.84-8.43 6.03-13.71a13.1 13.1 0 0 0-12.97-10.93c-2.57-.03-2.57 3.97 0 4a9 9 0 0 1 8.79 6.43c1 3.5.07 7.78-2.86 10.1a10.1 10.1 0 0 1-10.58.75 9.3 9.3 0 0 1-4.44-9.42 9.1 9.1 0 0 1 9.1-7.86c2.57-.03 2.57-4.03 0-4" class="b"/><path d="M218.66 314.68a23.8 23.8 0 0 0-24.26 24.1c0 14.55 10.12 24.57 24.26 24.57 14.67 0 24.26-10.11 24.26-24.56a23.77 23.77 0 0 0-24.26-24.11" class="c"/><path d="M218.66 327.82a10.94 10.94 0 0 0-11.16 11.09c0 6.69 4.66 11.3 11.16 11.3 6.75 0 11.15-4.65 11.15-11.3a10.93 10.93 0 0 0-11.15-11.09" class="a"/><path d="M218.66 312.68a26.1 26.1 0 0 0-25.08 18.2c-3.17 10.2-.06 22.39 8.48 29.03 8.48 6.6 21.32 7.27 30.6 1.91 9.42-5.45 13.46-16.73 11.92-27.2a25.8 25.8 0 0 0-8.27-15.4 26.7 26.7 0 0 0-17.65-6.54c-2.58-.02-2.58 3.98 0 4 9.62.06 18.32 5.9 21.21 15.23 2.66 8.57.38 18.97-6.72 24.75-7 5.69-18.09 6.22-25.88 1.93-8.16-4.5-12.02-14.16-10.64-23.2a21.73 21.73 0 0 1 22.03-18.72c2.57 0 2.57-4 0-4" class="b"/><path d="M253.3 338.71a34.4 34.4 0 0 0-22.2-32.3c-13.74-5.07-30.29-1.09-39.5 10.47a35.2 35.2 0 0 0-7.58 21.83c-.02 2.57 3.98 2.58 4 0 .06-12.51 7.6-24.24 19.54-28.54 12.34-4.44 26.76-1.03 35.1 9.25a31 31 0 0 1 6.64 19.29c.02 2.57 4.02 2.58 4 0m-184.01 0a34.4 34.4 0 0 0-22.2-32.3c-13.74-5.07-30.3-1.09-39.5 10.47A35.2 35.2 0 0 0 0 338.71c-.01 2.57 3.99 2.58 4 0 .06-12.51 7.61-24.24 19.55-28.54 12.33-4.44 26.76-1.03 35.1 9.25a31 31 0 0 1 6.64 19.29c.01 2.57 4.01 2.58 4 0" class="b"/><path d="M218.66 325.82a13.1 13.1 0 0 0-12.56 9.1 13.6 13.6 0 0 0 4.22 14.52 14.1 14.1 0 0 0 15.28 1.02c4.77-2.73 6.83-8.43 6.03-13.71a13.1 13.1 0 0 0-12.97-10.93c-2.58-.03-2.58 3.97 0 4a9 9 0 0 1 8.78 6.43c1 3.5.07 7.78-2.86 10.1a10.1 10.1 0 0 1-10.58.75 9.3 9.3 0 0 1-4.44-9.42 9.07 9.07 0 0 1 9.1-7.86c2.57-.03 2.57-4.03 0-4M67.29 336.87h116.94c2.57 0 2.58-4 0-4H67.29c-2.57 0-2.58 4 0 4m10.61-10h109.09c2.57 0 2.58-4 0-4H77.9c-2.57 0-2.58 4 0 4m-34.5-19.42q3.07-12.11 6.07-24.24l8.58-34.59q4.67-18.87 9.32-37.75 4.15-16.87 8.28-33.75 2.77-11.28 5.5-22.57l.41-1.69c.6-2.5-3.26-3.57-3.86-1.06q-2.47 10.33-5.02 20.65-4 16.38-8.03 32.74l-9.29 37.64q-4.37 17.7-8.76 35.38-3.23 12.97-6.49 25.94l-.57 2.24c-.63 2.5 3.23 3.56 3.86 1.06m10.47-7.67q2.9-11.48 5.75-22.98 3.94-15.8 7.84-31.62 4.24-17.12 8.45-34.24 3.73-15.13 7.43-30.27l2.9-11.84c1.08-4.46 2.82-9.13.95-13.6-.38-.92-.86-1.78-1.32-2.65-1.2-2.28-4.65-.26-3.45 2.02 1.26 2.4 2.04 4.55 1.38 7.32l-1.06 4.38L80 177.47l-7.21 29.38-8.35 33.83q-3.94 15.95-7.9 31.89-2.98 12-6 24l-.54 2.15c-.63 2.5 3.23 3.56 3.86 1.06Z" class="b"/><path d="M53 291.32c6.13 9.2 12.4 18.3 18.55 27.48q2.21 3.3 4.39 6.61c1.4 2.15 4.87.15 3.45-2.02-6.05-9.27-12.34-18.38-18.54-27.56l-4.39-6.53c-1.42-2.14-4.88-.14-3.45 2.02m175.09-2.12c5.3 7.24 10.75 14.38 16.1 21.58a2.06 2.06 0 0 0 2.74.72 2 2 0 0 0 .72-2.74c-5.36-7.2-10.8-14.34-16.11-21.58a2.06 2.06 0 0 0-2.74-.72 2 2 0 0 0-.71 2.74m-3.03 17.65 7.95-6.95a2 2 0 0 0 0-2.83 2.05 2.05 0 0 0-2.83 0l-7.94 6.95a2 2 0 0 0 0 2.83 2.05 2.05 0 0 0 2.82 0" class="b"/><path d="m160.3 55.61.93-1.1a31.6 31.6 0 0 0 7.02-22.67 31 31 0 0 0-6.23-15.53C154.13 6.23 145.9 4.95 140.87 4.66a31.4 31.4 0 0 0-14.08 2.65c-8.92 3.8-12.68 10.54-13.3 12.03a22 22 0 0 0-1.99 9.74 31 31 0 0 0 .17 5.25c.14 4.02.36 9.6-3.17 11.82a3.8 3.8 0 0 0-1.59 1.83c-.74 2.05 1.04 2.83 2.18 3.91a6 6 0 0 1 1.57 2.51 38 38 0 0 0 1.2 5.72 16 16 0 0 0 1.56 3.79 7.7 7.7 0 0 0 4.48 3.6 18.5 18.5 0 0 0 9.93.13 1.34 1.34 0 0 1 1.62.68 41 41 0 0 0 1.88 4.7l2.47 6.02a24 24 0 0 1 2.57-1.6 64 64 0 0 1 9.62-3.58c4.66-1.4 7.13-2.04 10.55-2.85l-.7-2.2a21 21 0 0 1-.88-4.43c.08-3.03 3.13-6.22 5.34-8.77M181.24 286c-1.97-4.13-4.85-7.76-7.71-11.34-4.52-5.67-12.02-14.68-17-20.87l-2.8-3.53-2.7-4.02a146 146 0 0 0 22.47-2.8l2.33 5.02 6.07 10.15a58 58 0 0 1 5.13 10.38 56 56 0 0 0 2.63 6.57 11.4 11.4 0 0 0 4.8 5.06q1.8.9 3.6 1.77a50 50 0 0 1-6.83 10.13c-3.16 3.24-5.33 1.7-6.41 1a1.4 1.4 0 0 0-1.38-.1 23 23 0 0 0-2.05-7.11zm-50.85 19.5-.1-.59-.04-.3a10 10 0 0 0 .88-2.75 27 27 0 0 0 .05-7.04c-1.42-16.2-2.03-32.46-2.67-48.7a214 214 0 0 0 21.6.17c-.74 15.94-2.47 37.1-3.99 52.7a30 30 0 0 0-.2 5.46 15 15 0 0 0 .63 3.13 51 51 0 0 1-11.23 1.44c-3.91-.16-4.66-2.17-4.93-3.53" class="a"/><path d="M153.92 253.7c4.18 5.24 8.47 10.4 12.71 15.6 4.46 5.45 9.5 10.88 12.65 17.22 1.98 4 2.94 8.6 1.7 12.95-.7 2.48 3.16 3.54 3.86 1.06 2.41-8.53-1.82-16.77-6.86-23.42-4.46-5.87-9.23-11.5-13.9-17.2q-3.7-4.49-7.34-9.04a2 2 0 0 0-2.83 0 2.05 2.05 0 0 0 0 2.83Zm46.42 27.54a44 44 0 0 1-5.72-2.84 10 10 0 0 1-3.23-3.85c-1.9-3.58-2.88-7.61-4.63-11.27-1.94-4.05-4.43-7.87-6.74-11.72l-2.46-4.12c-1.32-2.2-4.78-.2-3.45 2.02l5.32 8.9c1.24 2.08 2.5 4.14 3.57 6.3 1.87 3.8 2.9 7.95 4.84 11.7a15 15 0 0 0 3.87 4.84 33 33 0 0 0 6.6 3.49 2.06 2.06 0 0 0 2.75-.72 2 2 0 0 0-.72-2.73m-70.03 26.7c2.93-3.18 3.26-7.5 2.99-11.62-.33-5.03-.82-10.05-1.14-15.09-.66-10.46-1.09-20.94-1.5-31.41q-.15-3.6-.34-7.2c-.13-2.55-4.13-2.57-4 0 .85 16.59 1.29 33.18 2.66 49.72.32 3.97 1.51 9.52-1.5 12.77-1.74 1.9 1.08 4.73 2.84 2.83Zm17.87-62.98a1023 1023 0 0 1-3.82 51.6 49 49 0 0 0-.46 7.42 17.4 17.4 0 0 0 2.19 7.48c1.25 2.25 4.7.24 3.45-2.02-2.2-3.97-1.63-8.16-1.21-12.5q.58-6.07 1.1-12.15 1.12-13 1.98-26.02.46-6.9.76-13.81c.12-2.57-3.88-2.57-4 0Z" class="b"/><path d="M147.74 307.22a49 49 0 0 1-12.42 1.79c-4.53-.2-4.82-2.84-5.02-4.1-.24-1.5-2.11-1.45-3.53-1.06-1.79.5-3.23 2.2-5.93 3.99-2.27 1.16-5.23 2.15-8.15 3.46-1.28.58-5.18 2.48-6.04 3.9-2.29 3.77-.57 8.5 4.12 9.08 3.63.45 11.3.28 15.88.35 7.34.1 20.05-.2 23.29-2.8a11.2 11.2 0 0 0 1.46-7.2 17 17 0 0 0-.59-3.7 5.5 5.5 0 0 0-3.07-3.7m49.84-25.37a49 49 0 0 1-6.62 10.65c-3.06 3.34-5.28 1.87-6.38 1.2-1.3-.78-2.46.69-3.08 2.03-.77 1.68-.4 3.88-.76 7.1-.58 2.49-1.78 5.56-2.65 8.64-.39 1.34-1.26 4.55-1.1 6.1.44 4.39 5.64 5.7 9.45 2.9 3.11-2.28 7.96-7.38 10.55-10.42 4.75-5.58 14.72-17.47 13.63-20.84-.83-2.54-3-4.02-5.02-5.4a17 17 0 0 0-3.21-1.94 5.5 5.5 0 0 0-4.81-.03" class="d"/><path d="M147.21 305.3a38 38 0 0 1-10.76 1.71 9 9 0 0 1-2.42-.18 3 3 0 0 1-.93-.4l-.36-.32-.19-.33c-.15-.31.13.42-.04-.1l-.17-.63a4.5 4.5 0 0 0-.8-2.08c-1.36-1.64-3.85-1.58-5.7-.91-2.17.77-3.73 2.55-5.61 3.78-4.02 2.63-9.08 3.2-12.98 6.04-3.33 2.42-4.82 6.91-2.63 10.64 2.16 3.66 6.28 3.87 10.08 4.03 4.15.18 8.3.17 12.45.17 4.88 0 9.8.3 14.68-.15a22 22 0 0 0 6.8-1.51 7.4 7.4 0 0 0 4.29-5.04 18 18 0 0 0 .13-8.35 8.1 8.1 0 0 0-4.79-6.38 2 2 0 0 0-2.46 1.4 2.05 2.05 0 0 0 1.4 2.46c1.63.65 1.98 3.2 2.13 4.67a11.3 11.3 0 0 1-.7 6.24c-.56 1.14-1.97 1.57-3.2 1.9a26 26 0 0 1-5.28.73c-4.33.24-8.67.04-13 .03-3.64 0-7.28 0-10.9-.11-2.48-.08-6.54.41-8.1-1.99a3.8 3.8 0 0 1-.27-3.54c.65-1.56 2.27-2.42 3.7-3.14 3.86-1.94 8.24-2.78 11.74-5.43 1.27-.96 2.64-2.46 4.26-2.8.31-.07.66-.01.96-.08.1-.03-.2-.28-.18-.2a8 8 0 0 0 .23 1.15c1.14 3.8 5.04 4.6 8.56 4.4a43 43 0 0 0 11.11-1.83c2.43-.8 1.39-4.67-1.06-3.86Zm48.44-23.98a37 37 0 0 1-2.49 4.61 36 36 0 0 1-3.3 4.81 6 6 0 0 1-2.12 1.76 1.6 1.6 0 0 1-1.36-.06 15 15 0 0 0-1.6-.8 3.7 3.7 0 0 0-3.66 1.12c-1.7 1.72-2.08 4-2.17 6.3a23 23 0 0 1-.23 3.63 35 35 0 0 1-1.2 3.94c-.75 2.29-1.51 4.58-2.04 6.94-.49 2.19-.82 4.38.14 6.5 1.83 4.02 6.88 4.67 10.53 2.92a21 21 0 0 0 4.89-3.8 96 96 0 0 0 5-5.06c2.5-2.7 4.85-5.56 7.16-8.42a89 89 0 0 0 7.2-9.9 17 17 0 0 0 2.08-4.47 6 6 0 0 0-1.25-5.22 22 22 0 0 0-6.12-5.06c-2.56-1.62-5.74-2.43-8.54-.94-2.28 1.2-.26 4.66 2.02 3.45 1.9-1 4.18.7 5.67 1.73 1.51 1.05 3.19 2.09 4.1 3.74a4 4 0 0 1 .37.88c-.1-.35.08-.16-.04.11-.11.25.07-.36 0-.08l-.07.33-.25.8c-.1.24-.4.88-.65 1.35q-.57 1.06-1.21 2.08a118 118 0 0 1-12.48 15.89 64 64 0 0 1-8.38 8.2c-1.87 1.43-6.05 2.38-6.64-.92-.28-1.58.4-3.44.8-4.95.62-2.28 1.42-4.51 2.13-6.77a25 25 0 0 0 1.01-6.9 8 8 0 0 1 .28-2.27c.13-.36.45-.68.56-1.03-.03.08.26-.32.28-.3.2.35-.83-.34-.25.13a5.7 5.7 0 0 0 4.6.87c2.08-.48 3.67-2.1 4.94-3.72a43 43 0 0 0 6.15-10.35 2 2 0 0 0-1.4-2.46 2.05 2.05 0 0 0-2.46 1.4Z" class="b"/><path d="M165.26 151c10.46 19.15 13.29 55.15 22.52 79.24.75 1.96 2.17 5.23 1.7 6.64-.58 1.75-4.5 3.54-7.06 4.3-18.08 5.4-39.36 6.27-61.52 4.4-4.35-.37-5.95-.54-6.23-4.9-1.8-27.47 2.61-64.2 7.68-89.6 5.1-1.9 9.74-3.96 14.67-6.18l5.38.95a53 53 0 0 0 16.58.71l5.86-.38Z" class="a"/><path d="M168.47 145.94c.8-15.5-.03-39.53-1.99-52.87A85 85 0 0 0 161.8 78a35 35 0 0 0-4-7.27c-5 1.18-7.58 1.81-15.55 4.3a33 33 0 0 0-5.74 2.36c-5.08 2.72-6.97 5.47-9.42 10.85-1.83 4-4.1 10.71-4.63 15.34-.84 7.34-.41 14.56 2.06 21.08l17.89 21.2a53 53 0 0 0 16.59.71l4.27 3.02a2.34 2.34 0 0 0 3.32-.65Z" class="d"/><path d="M84.07 161.61a2 2 0 0 1-.5 0c-1.32-.22-1.9-2.07-1.9-4.04v-.46l-1.3 1.03a2.35 2.35 0 0 1-2.77-.1 4 4 0 0 1-.85-3.07c.31-3.06.27-5.4 1.16-8.34a11.4 11.4 0 0 1 5.26-6.73 12 12 0 0 1 5.86-1.69l8.49-.2c2.04-.06 6.36-1.3 8.04-1.73l.83-.21c1.13 4.27 2.83 9.13 4.28 13.33l-4.57 2.82c-2.91 2.52-4.12 2.76-8.16 2.7-2.14-.04-4.2-.1-5.2 2.08-.63 1.36-.37 2.14-.76 3.83-.22.99-.85 1.55-2.24 1.68a2.3 2.3 0 0 1-2.27-1.54 9 9 0 0 1-.5-2.09l-.49 1.04a3.6 3.6 0 0 1-2.41 1.7" class="a"/><path d="M105.03 134.35c-2.64.69-5.32 1.6-8.06 1.66l-5.51.15a28 28 0 0 0-5.12.35 14 14 0 0 0-8.72 6c-2.1 3.28-2.42 7.14-2.73 10.9-.16 2-.35 4.2 1.1 5.82a4.3 4.3 0 0 0 5.39.64c2.15-1.4.15-4.86-2.02-3.46-.47.3-.42.2-.56-.33a7 7 0 0 1 .07-2.45 34 34 0 0 1 .73-5.6 10 10 0 0 1 6.93-7.43 17 17 0 0 1 4.74-.44l5.88-.15c3.05-.09 6.02-1.04 8.94-1.8 2.5-.64 1.44-4.5-1.06-3.85Z" class="b"/><path d="M80.87 148.1a41 41 0 0 0-1.07 6.5c-.16 2.11-.35 4.42.5 6.42a3.84 3.84 0 0 0 5.07 2.29 5.7 5.7 0 0 0 2.7-2.12c.6-.94.5-2.32.6-3.42a29 29 0 0 1 1.5-6.8 2 2 0 0 0-1.4-2.46 2.05 2.05 0 0 0-2.46 1.4 37 37 0 0 0-1.83 10.01l.28-1c-.03.05-.25.4-.1.18s-.18.17-.18.17c-.11.11-.18.14-.02.03l-.39.24c-.19.1.25-.05-.1.04-.07.02-.5.07-.21.07.38 0-.54-.13.2 0-.24-.04-.02-.01.1.05-.38-.18.2.16.02 0-.14-.13.15.3 0-.02-.03-.04-.23-.44-.13-.2s-.08-.26-.07-.26l-.1-.37c0 .01-.09-.51-.06-.3s-.02-.3-.03-.35l-.01-.52a33 33 0 0 1 1.05-8.5 2 2 0 1 0-3.86-1.07Z" class="b"/><path d="M84.85 156.82c.11 3.21.83 8.1 5.18 7.66a4.2 4.2 0 0 0 3.56-2.25c.65-1.36.38-2.92.87-4.18.41-1.06 1.15-1.11 2.17-1.14 1.33-.04 2.66.06 4-.05a11.6 11.6 0 0 0 6.9-3.22 2 2 0 0 0 0-2.83 2.04 2.04 0 0 0-2.83 0 11 11 0 0 1-2.35 1.64q-.33.15-.06.03l-.37.13-.57.15a4 4 0 0 1-.95.12c-2.37.16-5.07-.42-7.24.82a5.7 5.7 0 0 0-2.51 3.19c-.4 1.13-.28 2.36-.62 3.5q-.06.22.03 0-.18.3-.02.06l.1-.07q-.3.18-.13.06c-.29.05-.38.12-.56-.02-.33-.24-.43-1.26-.48-1.62a20 20 0 0 1-.12-1.97c-.09-2.57-4.09-2.58-4 0Zm57.02-9.04a51 51 0 0 0 17.65.7 2 2 0 0 0 1.4-2.45 2.05 2.05 0 0 0-2.46-1.4 45 45 0 0 1-7.93.22 46 46 0 0 1-7.6-.93 2.05 2.05 0 0 0-2.46 1.4 2 2 0 0 0 1.4 2.46" class="b"/><path d="M163.54 152c3.33 6.16 5.45 12.92 7.29 19.65 2.16 7.93 3.86 15.98 5.61 24.02 1.77 8.1 3.54 16.2 5.82 24.18a131 131 0 0 0 3.59 10.92 21 21 0 0 1 1.72 5.13c.04.4.1.33-.28.66a11 11 0 0 1-2.26 1.45c-3.7 1.86-8.07 2.66-12.09 3.5a131 131 0 0 1-13.47 2.08 195 195 0 0 1-29.65.59q-3.86-.2-7.7-.5a18 18 0 0 1-4.47-.57c-.38-.16-.41-.22-.51-.37a5 5 0 0 1-.42-1.55c-.23-1.98-.25-4-.32-5.98-.3-8.7-.08-17.4.44-26.09a429 429 0 0 1 6.36-51.88q.52-2.82 1.08-5.63c.5-2.52-3.36-3.6-3.86-1.07a439 439 0 0 0-7.26 53.7 300 300 0 0 0-.86 27.47q.06 3.27.23 6.54a19 19 0 0 0 .67 5.46c1.25 3.44 4.8 3.63 7.94 3.89 20.01 1.67 40.76 1.45 60.22-4.03a30 30 0 0 0 6.02-2.27c1.55-.82 3.43-2.01 3.99-3.8.55-1.72-.12-3.65-.7-5.28-.66-1.83-1.4-3.62-2.04-5.45a221 221 0 0 1-6.63-24.44c-1.91-8.47-3.63-16.99-5.7-25.42a136 136 0 0 0-7.13-22.45q-1-2.28-2.18-4.47c-1.23-2.27-4.69-.25-3.46 2.01Z" class="b"/><path d="M145.22 141.22a18 18 0 0 0 8.02-6.36c1.28-1.61 2.93-6.28 3.58-8.54 3.23-11.3 3.25-13.28 3.92-24.35.3-5.05-.25-8.64-2.35-12.54a11.9 11.9 0 0 0-9.8-5.5c-5.1 0-8.64 3.03-10.64 7.25a26 26 0 0 0-2.26 9.15c-.98 9.22-.84 12.6-3.08 19.42-2.37 3.5-19.74 9.88-26.2 12.03a1.03 1.03 0 0 0-.76 1.14c1.24 6.22 4.52 14.79 6.4 20.56a.93.93 0 0 0 1.08.68c12.24-3.6 20.68-7.93 32.09-12.94" class="d"/><path d="M146.23 142.94a21 21 0 0 0 7.83-5.93 26 26 0 0 0 4.24-8.7 82 82 0 0 0 3.96-18.9c.59-7.31 1.83-16.12-3.1-22.32a13.5 13.5 0 0 0-19.48-1.7c-5.92 5.45-5.94 14.3-6.64 21.7a57 57 0 0 1-1.34 8.64q-.28 1.14-.63 2.26c-.07.24-.2.72-.25.84.13-.36.1-.13-.13.09l-.4.36c-.33.28.05-.03-.23.17q-.63.45-1.3.85c-4.84 2.94-10.29 4.96-15.56 6.94-2.31.87-4.64 1.67-6.97 2.5a3.3 3.3 0 0 0-2.4 4.21 69 69 0 0 0 1.38 5.28c1.1 3.74 2.4 7.41 3.67 11.1.55 1.58.9 3.97 2.18 5.13 1.7 1.53 4.34.12 6.17-.48a226 226 0 0 0 23.05-9.38q2.97-1.34 5.95-2.66a2 2 0 0 0 .72-2.73 2.05 2.05 0 0 0-2.74-.72c-5.19 2.28-10.32 4.7-15.54 6.92q-3.71 1.58-7.5 2.98-2.06.76-4.15 1.45-.97.33-1.95.63a8 8 0 0 1-2.07.64l.88.52a6 6 0 0 1-.55-1.63l-.66-1.92-1.48-4.3c-1-2.94-1.96-5.88-2.77-8.87q-.3-1.08-.55-2.16a4 4 0 0 0-.22-1.03l-.54.93.27-.09a15 15 0 0 0 2.44-.84q3.1-1.1 6.16-2.27a118 118 0 0 0 13-5.68 21 21 0 0 0 4.32-2.82c1.6-1.45 1.97-3.9 2.44-5.91 1.23-5.28 1.47-10.8 2-16.18.48-5 2.3-11.4 7.53-13.36a9.4 9.4 0 0 1 7.74.58 10.4 10.4 0 0 1 4.95 6.39 25 25 0 0 1 .75 8.96c-.16 2.79-.31 5.58-.58 8.36a77 77 0 0 1-3.74 16.6 21 21 0 0 1-3.36 7.03 18 18 0 0 1-6.82 5.07 2 2 0 0 0-.72 2.73 2.05 2.05 0 0 0 2.74.72" class="b"/><path d="M156.35 69a167 167 0 0 0-13.32 3.7c-4.42 1.44-8.9 3.08-12.35 6.32-3.22 3.02-5.06 7.3-6.65 11.34a54 54 0 0 0-3.77 15.08 46 46 0 0 0 2.32 19.75c.89 2.39 4.76 1.35 3.86-1.07a41 41 0 0 1-2.33-16.35 49 49 0 0 1 3.05-14.4c1.3-3.66 2.85-7.74 5.5-10.66 2.76-3.03 6.6-4.52 10.4-5.8 4.7-1.6 9.52-2.9 14.36-4.05 2.5-.6 1.44-4.45-1.07-3.86" class="b"/><path d="M155.76 71.33a47 47 0 0 1 6.48 13.63 61 61 0 0 1 2.78 12.26 308 308 0 0 1 1.73 31.62c.06 5.7 0 11.4-.28 17.1-.13 2.58 3.87 2.57 4 0a324 324 0 0 0-.18-32.37c-.48-9.5-.9-19.18-3.75-28.3-1.75-5.6-3.82-11.22-7.32-15.97a2.06 2.06 0 0 0-2.74-.72 2 2 0 0 0-.72 2.74Z" class="b"/><path d="M111.5 29.2a22 22 0 0 1 1.99-9.86c.62-1.49 4.38-8.23 13.3-12.03a31.4 31.4 0 0 1 14.07-2.65c5.04.29 13.27 1.57 21.15 11.65a31 31 0 0 1 6.24 15.53 31.6 31.6 0 0 1-7.01 22.66c-2.16 2.69-6.18 6.4-6.28 9.88a21 21 0 0 0 .89 4.43" style="fill:none"/><path d="M156.37 9.85C151.3 6.1 145.2 4.2 136.51 4.58a33 33 0 0 0-9.4 2.06 25 25 0 0 0-13.57 13.26 24 24 0 0 0-1.38 4.3l.77.65a78 78 0 0 0 20.97 12.57 14 14 0 0 0 4.87 1.24l1.74.03a4 4 0 0 1 1.1-.54 3.8 3.8 0 0 1 3.27.29 5.6 5.6 0 0 1 2.15 4.5 9.6 9.6 0 0 1-3.56 8l2.59 7.06a30 30 0 0 0 4.7 8.37c2.51 3.34 6.96 5 10.9 6.5l4.89.43c2.68-1.77 4.48-4.22 4.24-7.82-.1-1.5-.77-2.73-1.98-4.94-1.4-2.52-3.52-3.8-3.21-9.55.14-2.62 2.11-7.66 2.55-10.43a39 39 0 0 0 .43-9.53 27.6 27.6 0 0 0-5.86-15.06 37 37 0 0 0-6.35-6.12" style="fill:#a98a75"/><path d="m140.67 41.3.49-.55c.05-.05.51-.45.3-.3a2 2 0 0 1 .94-.44 2 2 0 0 1 1.1-.02 1 1 0 0 1 .37.18c.34.2-.04-.13.21.18.02.02.37.48.2.23a5 5 0 0 1 .36.63q.1.19.02.01l.14.4.16.62c.11.42.02-.1.05.3l.02.72a11 11 0 0 1-.08 1.33c.05-.39-.05.23-.05.25l-.13.56a9 9 0 0 1-.4 1.24l-.36.67-.35.54-.16.22q.2-.24-.02.04a11 11 0 0 1-.76.82q-.2.2-.42.39c-.05.04-.62.49-.36.3a15 15 0 0 1-2.31 1.38 2 2 0 0 0-.72 2.74 2.04 2.04 0 0 0 2.74.72 12.7 12.7 0 0 0 6.9-7.72c1.07-3.74.46-9.07-3.76-10.54a6.5 6.5 0 0 0-6.94 2.28 2.06 2.06 0 0 0 0 2.83 2 2 0 0 0 2.82 0Zm-24.53-1.58c-.4 1.23-.23 4.09 2 4.38 2.94.04 3.19-3.4 2.23-5.04-.78-1.35-3.16-1.95-4.23.66" class="b"/><path d="M133.05 72.01a33 33 0 0 1-1.25-3 9 9 0 0 0-.8-1.97c-1.53-2.3-3.83-1.05-5.97-.85a17 17 0 0 1-6.6-.6 6.6 6.6 0 0 1-3.94-3.94 29 29 0 0 1-1.78-6.89 8 8 0 0 0-3.08-5.01c-.24-.2-.86-.57-.9-.89-.07-.69 1.4-1.4 1.8-1.75a9 9 0 0 0 2.7-4.86c1.12-4.77-.1-9.62.38-14.44a2 2 0 0 0-2-2 2.04 2.04 0 0 0-2 2c-.43 4.28.7 8.66-.13 12.9a5.7 5.7 0 0 1-2.28 3.93c-1.84 1.33-3.1 3.64-2.1 5.89.79 1.75 2.85 2.41 3.55 4.2a20 20 0 0 1 .46 2.55 35 35 0 0 0 .95 3.8 14 14 0 0 0 3.66 6.33 11 11 0 0 0 5.94 2.54 20 20 0 0 0 7.73-.11 3 3 0 0 0 .66-.17q.69-.08-.1-.44-.54-.62-.38-.24c-.07.17.31.9.38 1.08a43 43 0 0 0 1.65 3.96c1.1 2.33 4.55.3 3.45-2.02" class="b"/><path d="M111.17 58.85a11.5 11.5 0 0 0 5.58-1.5 2 2 0 0 0 .92-1.2 2 2 0 0 0-2.94-2.25 7 7 0 0 1-.94.49l.48-.2a10 10 0 0 1-2.42.62l.53-.07q-.6.08-1.21.11a2 2 0 0 0-1.42.59 2 2 0 0 0 0 2.82 2 2 0 0 0 1.42.59m56.4 16.18c3.76-2.57 6.44-7.08 4.8-11.72a23 23 0 0 0-2.8-5.3 10 10 0 0 1-1.88-4.07c-.7-4.25 1.48-8.24 2.3-12.33a37 37 0 0 0-.09-15.1 31.5 31.5 0 0 0-16-20.57c-8.22-4.3-18.74-4.5-27.33-1.23a26.7 26.7 0 0 0-12.6 10.26 29.5 29.5 0 0 0-4.6 16.95c.04 2.57 4.04 2.57 4 0a26 26 0 0 1 3.25-13.66 23.3 23.3 0 0 1 9.21-8.87 28 28 0 0 1 12.75-2.86A30 30 0 0 1 150.2 8.6a27.6 27.6 0 0 1 15.3 16.9 32 32 0 0 1 .9 13.34c-.5 3.98-2.31 7.67-2.76 11.66a14 14 0 0 0 .74 6.44 27 27 0 0 0 2.41 4.12c1.05 1.7 2.17 3.53 2.01 5.58a6.7 6.7 0 0 1-3.26 4.95c-2.11 1.44-.12 4.9 2.02 3.45Z" class="b"/><path d="M144.13 58.53a28 28 0 0 0 2.23 4.86 28 28 0 0 0 3.9 5.44c2.94 3.01 7.03 4.5 10.87 5.97a2 2 0 0 0 2.47-1.4 2.05 2.05 0 0 0-1.4-2.46c-3.22-1.22-6.7-2.47-9.12-4.94a24 24 0 0 1-3.27-4.63q-.6-1.03-1.1-2.1a15 15 0 0 1-.72-1.8 2.05 2.05 0 0 0-2.46-1.4 2 2 0 0 0-1.4 2.46m-32.61-32.27A82 82 0 0 0 124.19 35q3.26 1.8 6.68 3.3c2.54 1.1 5.09 2.23 7.9 2.36 2.57.12 2.57-3.88 0-4-2.33-.1-4.59-1.23-6.68-2.17q-3.2-1.44-6.26-3.16a77 77 0 0 1-11.48-7.9c-1.97-1.64-4.81 1.18-2.83 2.83" class="b"/><path d="M108.43 22.44a25.9 25.9 0 0 1 17.04-18.4c8.25-2.87 18.06-2.6 26.32.05a25.6 25.6 0 0 1 13.78 9.81 31 31 0 0 1 5.06 14.82 35 35 0 0 1-2.33 16.5 5.9 5.9 0 0 1-5.33 3.33 49 49 0 0 0-18.38 4.84 3 3 0 0 1-1.75.34l-3.37-.51c-1.18-.22-2.18-1.85-2.55-2.64-2.75-5.66-5.72-12.5-6.91-14.11-1.58-2.33-3.97-2.53-6.8-3.19-2.19-.5-9.85-1.85-14.02-2.34-.9-.1-3.43-.04-3.41-.93.02-1.76 2.04-4.4 2.37-6.2q.12-.7.28-1.37" class="a"/><path d="M110.36 22.97a23.4 23.4 0 0 1 9.08-13.56 31.5 31.5 0 0 1 17.44-5.4c6.5-.2 13.45.92 19.21 4.05a23.7 23.7 0 0 1 11.22 14.05 34 34 0 0 1 .09 19.77c-.39 1.25-.75 2.86-1.81 3.73-1.13.93-2.6.92-3.98 1.04a51 51 0 0 0-10.83 2.15q-2.42.76-4.75 1.76c-.82.35-1.67.68-2.45 1.11-.4.22-.16.15-.69.07-.85-.13-1.73-.2-2.57-.4-.74-.17-1.07-.66-1.46-1.35-1.57-2.82-2.8-5.89-4.17-8.81a39 39 0 0 0-2.95-5.72c-1.97-2.84-5-3.43-8.15-4.13a139 139 0 0 0-7.34-1.35q-4.19-.7-8.44-1.13c.26.02-.75-.06-.52-.07q-.38-.14-.14 0 .53 2.02.69.92c.3-.53.46-1.2.73-1.76a22 22 0 0 0 1.8-4.97c.56-2.5-3.3-3.57-3.87-1.06a19 19 0 0 1-1.54 4.34c-.62 1.28-1.51 2.99-1.09 4.45.74 2.56 4.48 2.12 6.54 2.4q4.41.62 8.79 1.43a42 42 0 0 1 7.2 1.6c2.2.83 3.02 3.28 3.97 5.23 1.54 3.21 3 6.46 4.55 9.66a9 9 0 0 0 2.56 3.43 5.5 5.5 0 0 0 2.67.9c.81.11 1.62.26 2.43.36 2.04.24 3.8-1.01 5.63-1.75a49 49 0 0 1 11.4-3.08c3.48-.49 7.13-.2 9.55-3.24a14 14 0 0 0 2.16-4.9 35 35 0 0 0 1.14-5.62 40 40 0 0 0-.18-11.27c-1.1-7.07-4.45-14.02-10.13-18.53S149.25.78 142.1.16C128.63-1 113.8 4.1 108.07 17.28a28 28 0 0 0-1.57 4.63c-.6 2.5 3.25 3.56 3.86 1.06" class="b"/><path d="M132.52 64.25a34 34 0 0 0 5.75-5.7 44 44 0 0 0 4.8-6.77 2 2 0 0 0-3.46-2.02 32 32 0 0 1-1.88 2.97q-.57.8-1.16 1.59l-.12.15-.33.42-.67.83a49 49 0 0 1-4 4.27l-.64.55-.26.22c-.4.32.26-.2-.05.03a2.05 2.05 0 0 0-.71 2.74 2 2 0 0 0 2.73.71Z" class="b"/></svg>
