<svg viewBox="-46.94 0 280.774 280.774" xmlns="http://www.w3.org/2000/svg"><defs><style>.a{fill:#ffffff;}.b{fill:#c6c6c6;}.c{fill:#211715;}.d{fill:#a095c1;}</style></defs><path class="a" d="M140.045,80.142a7.4,7.4,0,0,1,5.347-1.957,6.862,6.862,0,0,1,6.165,3.425c1.731,3,1.971,8.094,1.206,12.111-.095-.886-.215-1.861-.367-2.98a4.82,4.82,0,0,0-2.15-2.99,4.219,4.219,0,0,0-4.34-.01c-2.92,1.54-4.28,7.25-4.28,7.25L140.7,98.9a3.854,3.854,0,0,0-1.279-.291c-3.8-.26-5.25,9.87-6.06,12.81a36.479,36.479,0,0,1-19.87,25.12c-17.091,5.64-15.159,19.251-14.03,33.741q-1.334.174-2.639.353a2.917,2.917,0,0,0-2.367,2.97h-.733a2.917,2.917,0,0,0-2.367-2.97q-1.819-.249-3.7-.488c1.13-14.441,2.992-27.984-14.04-33.6a36.479,36.479,0,0,1-19.87-25.12c-.81-2.94-2.26-13.07-6.06-12.81A3.91,3.91,0,0,0,46.4,98.9l-.931-3.911s-1.36-5.71-4.28-7.25a4.219,4.219,0,0,0-4.34.01,4.82,4.82,0,0,0-2.15,2.99c-.41,3.023-.586,5-.681,6.975-2.034-3.752-2.5-11.942-.1-16.107a6.859,6.859,0,0,1,6.164-3.425,7.4,7.4,0,0,1,5.347,1.957S37.09,34.362,94.09,34.362,140.045,80.142,140.045,80.142Z"/><path class="b" d="M131.742,57.474a46.682,46.682,0,0,0-8.263-10.385l-8.137-6.3c-4.483,5.987-11.483,10.06-17.943,12.685-8.417,3.419-14.149,2.639-23.293.435-2.075,1.064-4.285,1.979-6.2,2.73C63.6,58.322,58.63,59.1,54.678,61.5a16.918,16.918,0,0,0-6.735,8.926c-.779,2.173-2.012,7.527-2.512,9.719a7.4,7.4,0,0,0-5.347-1.957,8.932,8.932,0,0,0-2.228.344,58.629,58.629,0,0,1-3.362-18.3c-.03-19.963,8.442-33.659,18.036-39.546C61.161,8.672,76.558,1.6,92.807,2.413a56.809,56.809,0,0,1,28.694,9.4l10.017,7.85c9.772,7.656,17.426,21.167,18.23,40.191a60.27,60.27,0,0,1-2.257,18.64,9.139,9.139,0,0,0-2.1-.3,7.4,7.4,0,0,0-5.347,1.957l-1.851,1.779-.488-5.281A46.182,46.182,0,0,0,131.742,57.474Z"/><path class="c" d="M47.128,78.445a10.439,10.439,0,0,0-11.4-1.655,10.03,10.03,0,0,0-5.2,6.978,26.4,26.4,0,0,0,4.051,20.623c2.879,4.176,6.955,7.173,12.223,6.454a2.416,2.416,0,0,0,1.677-2.953,2.465,2.465,0,0,0-2.953-1.676c-3.748.512-6.632-3.595-8.123-6.451a22.736,22.736,0,0,1-2.649-8.9,19.394,19.394,0,0,1,.286-5.324,11.658,11.658,0,0,1,.545-1.919,6.837,6.837,0,0,1,.489-.942c.055-.09.5-.712.162-.283a5.385,5.385,0,0,1,7.5-.56c2.286,2.068,5.69-1.317,3.394-3.394Z"/><path class="c" d="M141.743,81.839a5.384,5.384,0,0,1,7.5.56c-.341-.429.107.193.162.283a6.728,6.728,0,0,1,.489.942,11.6,11.6,0,0,1,.545,1.919,19.394,19.394,0,0,1,.286,5.324,22.731,22.731,0,0,1-2.649,8.9c-1.491,2.856-4.375,6.963-8.123,6.451A2.483,2.483,0,0,0,137,107.892a2.417,2.417,0,0,0,1.676,2.953c8.666,1.183,13.753-7.4,15.939-14.572a24.993,24.993,0,0,0,.611-11.148,11.189,11.189,0,0,0-4.474-7.782,10.361,10.361,0,0,0-12.4,1.1c-2.3,2.077,1.108,5.463,3.395,3.394Z"/><path class="c" d="M137.287,104.318a57.305,57.305,0,0,1-3.232,9.8c.286-.709-.2.42-.317.673-.215.451-.442.9-.675,1.341-.591,1.128-1.226,2.233-1.888,3.32a58.9,58.9,0,0,1-12.724,15.123,23.394,23.394,0,0,1-9.427,4.9c-3.009.694-1.735,5.323,1.276,4.628,7.247-1.673,13.269-7,17.98-12.51a64.086,64.086,0,0,0,9.878-14.966c.165-.365.322-.735.474-1.1.066-.16.345-.811.074-.189.38-.874.753-1.749,1.09-2.641a46.92,46.92,0,0,0,2.12-7.089,2.461,2.461,0,0,0-1.677-2.953,2.424,2.424,0,0,0-2.952,1.677Z"/><path class="c" d="M43.425,105.426a59.251,59.251,0,0,0,8.426,19.756c4.281,6.406,9.9,12.411,16.7,16.165A33.1,33.1,0,0,0,79.7,145.136a2.48,2.48,0,0,0,2.952-1.677,2.418,2.418,0,0,0-1.676-2.952c-13.987-2.066-24.422-14.143-29.773-26.551a56.029,56.029,0,0,1-3.148-9.807c-.682-3.011-5.311-1.736-4.628,1.277Z"/><path class="c" d="M51.314,18.613C37.048,27.466,31.276,46.29,32.155,62.283a59.207,59.207,0,0,0,3.081,16.054,2.459,2.459,0,0,0,2.953,1.676,2.422,2.422,0,0,0,1.676-2.952,54.649,54.649,0,0,1-2.254-26.577c1.211-7.478,3.9-15,8.649-20.947a29.614,29.614,0,0,1,7.477-6.779c2.62-1.626.212-5.78-2.423-4.145Z"/><path class="c" d="M125.37,11.527a61.86,61.86,0,0,0-27.128-11A53.533,53.533,0,0,0,67.734,5.073,46.623,46.623,0,0,0,54.5,14.588c-2.153,2.218,1.237,5.616,3.394,3.4C71.306,4.169,92.4,1.655,109.886,8.466a62.609,62.609,0,0,1,13.062,7.205,2.42,2.42,0,0,0,3.283-.861,2.448,2.448,0,0,0-.861-3.283Z"/><path class="c" d="M150,78.337a68.368,68.368,0,0,0,2.189-14.98,70.054,70.054,0,0,0-1.335-14.582,55.083,55.083,0,0,0-9.4-22.174,44.737,44.737,0,0,0-8.244-8.639,2.476,2.476,0,0,0-3.394,0,2.417,2.417,0,0,0,0,3.394c12.082,9.538,17.327,25.049,17.572,40.052a61.211,61.211,0,0,1-2.018,15.653c-.735,3,3.893,4.28,4.628,1.276Z"/><path class="c" d="M121.782,48.786A44.09,44.09,0,0,1,135.306,76.64a2.466,2.466,0,0,0,2.4,2.4,2.418,2.418,0,0,0,2.4-2.4,49.193,49.193,0,0,0-14.93-31.248c-2.23-2.139-5.629,1.251-3.394,3.394Z"/><path class="c" d="M114.316,38.068c-3.547,5.424-9.12,9.16-14.886,11.9a34.785,34.785,0,0,1-9.62,3.193,29.609,29.609,0,0,1-9.755-.408A2.467,2.467,0,0,0,77.1,54.432a2.422,2.422,0,0,0,1.676,2.952,36.234,36.234,0,0,0,11.712.5,39.176,39.176,0,0,0,11.019-3.6c6.664-3.117,12.88-7.562,16.951-13.786,1.7-2.593-2.459-5-4.145-2.423Z"/><path class="c" d="M87.675,38.694a49.377,49.377,0,0,1-8.2,8.587,35.187,35.187,0,0,1-5.28,3.854,49.7,49.7,0,0,1-5.879,2.77c-4.277,1.725-8.856,2.594-13.041,4.557A18.383,18.383,0,0,0,46.3,68.109a65.882,65.882,0,0,0-3.183,11.4c-.686,3.007,3.94,4.291,4.629,1.276a89.39,89.39,0,0,1,2.477-9.616,14.336,14.336,0,0,1,7.845-8.728c4.009-1.759,8.373-2.589,12.425-4.272a55.163,55.163,0,0,0,6.3-2.984A39.3,39.3,0,0,0,82.234,51.2a55.769,55.769,0,0,0,9.585-10.084,2.418,2.418,0,0,0-.861-3.284,2.455,2.455,0,0,0-3.283.861Z"/><path class="c" d="M75.707,112.8a30.24,30.24,0,0,0-2.945,6.837,2.4,2.4,0,1,0,4.629,1.276,28.314,28.314,0,0,1,1.064-3.007l-.242.573a28.08,28.08,0,0,1,1.638-3.256,2.4,2.4,0,1,0-4.144-2.423Z"/><path class="c" d="M106.345,115.075q.892,1.341,1.7,2.735a27.788,27.788,0,0,1,1.482,2.791l-.242-.574c.04.1.079.193.116.291a2.594,2.594,0,0,0,1.1,1.434,2.4,2.4,0,0,0,3.284-.861,2.356,2.356,0,0,0,.242-1.849,24.623,24.623,0,0,0-1.729-3.462q-.857-1.494-1.812-2.928a2.549,2.549,0,0,0-1.435-1.1,2.457,2.457,0,0,0-1.849.242,2.4,2.4,0,0,0-.861,3.284Z"/><path class="c" d="M83.96,120.088a19.263,19.263,0,0,0,9.278,2.148,15.1,15.1,0,0,0,9.361-2.76,2.413,2.413,0,0,0,0-3.394,2.461,2.461,0,0,0-3.394,0c.727-.567.16-.132-.027-.012s-.378.23-.574.333c-.1.053-.206.1-.308.153-.374.193.081.021.094-.03-.024.094-.692.256-.792.287a13.89,13.89,0,0,1-2.216.506c.353-.052-.073,0-.214.019-.217.021-.435.04-.653.054-.524.034-1.049.047-1.575.044-.47,0-.941-.019-1.41-.051-.216-.015-.431-.032-.646-.054-.022,0-.8-.11-.315-.034a15.9,15.9,0,0,1-2.07-.459c-.29-.087-.573-.191-.859-.289-.614-.21.349.181-.2-.08-.355-.168-.7-.342-1.052-.525a2.452,2.452,0,0,0-3.284.861,2.426,2.426,0,0,0,.861,3.283Z"/><path class="c" d="M92.024,98.224a43.528,43.528,0,0,1,1.025,4.691l-.085-.638a2.867,2.867,0,0,1,.017.648l.086-.638a1.545,1.545,0,0,1-.071.291l.242-.574a1.225,1.225,0,0,1-.1.188l.375-.486a.95.95,0,0,1-.153.151l.486-.375a3.067,3.067,0,0,1-.372.2l.573-.242a2.677,2.677,0,0,1-.626.183l.638-.086a2.461,2.461,0,0,1-.588,0l.638.086c-.221-.031-.439-.085-.66-.115a1.816,1.816,0,0,0-.958-.042,1.786,1.786,0,0,0-.892.284,2.4,2.4,0,0,0-.861,3.284,2.3,2.3,0,0,0,1.434,1.1c.5.068.994.2,1.506.219a4.81,4.81,0,0,0,2.219-.528,3.2,3.2,0,0,0,1.774-2.11,5.286,5.286,0,0,0-.022-2.274c-.255-1.511-.605-3.009-.993-4.491a2.4,2.4,0,0,0-4.629,1.276Z"/><path class="c" d="M67.215,84.941c-.783,2.545-.273,8.4,4.55,8.9,6.375-.038,6.714-7.118,4.568-10.447C74.576,80.668,69.41,79.534,67.215,84.941Z"/><path class="c" d="M118.261,84.941c.784,2.546.273,8.4-4.55,8.9-6.374-.038-6.714-7.119-4.568-10.448C110.9,80.668,116.066,79.535,118.261,84.941Z"/><path class="d" d="M91.6,170.67q1.258.174,2.486.354c10.194-1.5,22.21-2.673,33.228-3.906-.12-.842-.25-1.754-.441-3.057a7.328,7.328,0,0,1,3.75-7.49,27.435,27.435,0,0,0,3.95-2.37c8.086-6.1,12.48-10.133,15.014-17.457,9.037,3.695,16.568,8.108,22.632,14.618,6.724,8.057,11.6,17.067,12.174,36.368a152.234,152.234,0,0,1-12.967,67.116,41.837,41.837,0,0,1-17,18.448,38.2,38.2,0,0,1-30.172,3.39c-.136-.044-.271-.089-.407-.135-8.017-2.715-13.739-7.164-17.9-13.964a44.353,44.353,0,0,1-3.594-7.522H86.045a41.769,41.769,0,0,1-3.526,7.522c-4.164,6.8-9.885,11.249-17.9,13.964-.135.046-.271.091-.407.135a38.193,38.193,0,0,1-30.171-3.39c-7.189-4.159-12.916-10.686-17.116-18C5.506,235.432,2.41,210.292,2.353,187.73c1.066-19.238,7.172-28.311,13.9-36.368,5.8-6.221,12.93-10.526,21.442-14.123,2.557,7.014,6.933,11,14.834,16.962a27.435,27.435,0,0,0,3.95,2.37,7.328,7.328,0,0,1,3.75,7.49c-.182,1.244-.308,2.131-.424,2.941C70.229,168.178,81.639,169.293,91.6,170.67Z"/><path class="c" d="M86.637,243.307c-1.412,8-3.928,16.359-9.477,22.513A31.833,31.833,0,0,1,56.841,275.8a36.442,36.442,0,0,1-24.136-6.19c-6.98-4.809-11.993-11.881-15.779-19.355-8-15.8-10.984-33.816-11.881-51.346a103.909,103.909,0,0,1-.155-13.251,67.686,67.686,0,0,1,1.987-12.142,49.071,49.071,0,0,1,7.921-16.47A45.231,45.231,0,0,1,20.52,150.5a50.9,50.9,0,0,1,8.532-6.281c6.9-4.106,14.493-6.88,22.1-9.361,2.13-.695,4.268-1.363,6.41-2.021,2.944-.9,1.689-5.539-1.276-4.628-15.234,4.678-32.544,10.039-42.959,22.944a57.729,57.729,0,0,0-9.681,16.6C.668,175.981-.195,184.794.035,193.488c.5,18.731,3.143,37.805,10.786,55.054,3.688,8.324,8.645,16.308,15.63,22.267a41.339,41.339,0,0,0,25.254,9.935,38.289,38.289,0,0,0,24.762-7.761c6.8-5.28,10.8-12.992,13.142-21.14a71.052,71.052,0,0,0,1.656-7.26,2.468,2.468,0,0,0-1.676-2.952,2.42,2.42,0,0,0-2.952,1.676Z"/><path class="c" d="M97.054,244.583c1.526,8.63,4.6,17.381,10.395,24.1A35.969,35.969,0,0,0,128.76,280.23a41.148,41.148,0,0,0,26.53-4.661,43.783,43.783,0,0,0,17.879-18.794c8.5-17.81,12.751-37.85,13.563-57.5.636-15.406-.146-32.038-9.315-45.079a49.843,49.843,0,0,0-15.575-14.123c-7.184-4.275-15.131-7.191-23.049-9.779-2.2-.719-4.4-1.408-6.611-2.086-2.959-.909-4.225,3.723-1.276,4.628,7.852,2.411,15.754,4.91,23.157,8.508,6.2,3.011,12.536,6.906,16.951,12.306a45.77,45.77,0,0,1,7.79,13.729c2.546,7.511,3.163,15.478,3.254,23.359a151.7,151.7,0,0,1-9.486,55.09,68.325,68.325,0,0,1-5.453,12.006,39.681,39.681,0,0,1-7.953,9.189,36.747,36.747,0,0,1-22.4,8.92,33.54,33.54,0,0,1-21.886-6.76c-6.041-4.759-9.522-11.783-11.623-19.038a65.623,65.623,0,0,1-1.574-6.839,2.421,2.421,0,0,0-2.953-1.676,2.453,2.453,0,0,0-1.676,2.952Z"/><path class="a" d="M130.628,156.573a28.189,28.189,0,0,0,3.948-2.367c8.492-6.417,12.914-10.537,15.382-18.585,2.428-7.938,3.264-18.606,3.294-31.379-.1-4.139-.088-6.283-.38-9.422-.109-1.169-.26-2.476-.476-4.076a4.793,4.793,0,0,0-2.146-2.991,4.194,4.194,0,0,0-4.341-.01C142.988,89.284,141.628,95,141.628,95s-.5,2.085-.963,4.042c-4.739-2.843-6.414,9.144-7.3,12.383a36.487,36.487,0,0,1-19.87,25.116c-17.1,5.642-15.167,19.252-14.026,33.752,8.908-1.16,18.7-2.149,27.852-3.173-.123-.842-.253-1.754-.436-3.058A7.317,7.317,0,0,1,130.628,156.573Z"/><path class="c" d="M101.856,170.281c-.563-7.188-1.763-15,.782-21.733a14.954,14.954,0,0,1,5.919-7.1,46.087,46.087,0,0,1,6.141-2.835,32.7,32.7,0,0,0,5.906-3.536,39.908,39.908,0,0,0,15.1-23.159,58.9,58.9,0,0,1,2.361-8.83,11.183,11.183,0,0,1,.952-1.742c.24-.343-.324.422.081-.088a2.559,2.559,0,0,1,.276-.275c-.5.462-.049.042-.05.043q.354-.191-.11.015l.161-.05.164-.037c-.33.037-.4.055-.214.054.3.1-.529-.076.147.018a2.155,2.155,0,0,1,.422.123c-.41-.154-.087-.017,0,.019.54.23-.157-.18.093.039a4.505,4.505,0,0,1,.361.357c-.316-.343.23.39.319.559.212.4.062.127.024.03.084.21.152.43.216.647.111.378.189.763.262,1.15a8.356,8.356,0,0,1,.1.936c.031.447.046.9.049,1.343a36.823,36.823,0,0,1-.269,4.263,149.048,149.048,0,0,1-2.67,17.381c-.694,3.006,3.933,4.289,4.629,1.276a153.038,153.038,0,0,0,2.786-18.16,27.306,27.306,0,0,0-.087-8.784c-.759-3.474-3.844-6.979-7.768-5.792-3.57,1.08-4.837,5.9-5.655,9.057-.956,3.688-1.537,7.459-2.967,11.011a34.33,34.33,0,0,1-7.936,11.692,33.134,33.134,0,0,1-5.669,4.43,56.936,56.936,0,0,1-6.61,3.1,21.187,21.187,0,0,0-9.461,8.119c-4.736,7.829-3.266,17.813-2.588,26.462a2.461,2.461,0,0,0,2.4,2.4,2.419,2.419,0,0,0,2.4-2.4Z"/><path class="c" d="M143.941,95.629a12.835,12.835,0,0,1,2.015-4.718c.105-.148.715-.822.725-.83a2.363,2.363,0,0,1,1.682-.526c1.567.228,1.722,1.8,1.869,3.016a132.386,132.386,0,0,1,.377,22.181c-.334,6.848-.964,13.824-3.02,20.4-1.8,5.771-5.555,9.989-10.146,13.779a58.887,58.887,0,0,1-5.029,3.867c-1.733,1.141-3.728,1.864-5.206,3.371a9.687,9.687,0,0,0-2.638,5.094c-.364,2.181.123,4.325.432,6.486a2.416,2.416,0,0,0,2.952,1.676,2.463,2.463,0,0,0,1.677-2.952c-.233-1.627-.705-3.356-.2-4.969a5.386,5.386,0,0,1,2.907-3.131,54.593,54.593,0,0,0,9.914-7.249,36.11,36.11,0,0,0,6.518-7.236,31.21,31.21,0,0,0,3.9-9.031c2.036-7.459,2.6-15.331,2.854-23.028q.213-6.4,0-12.8c-.053-1.623-.154-3.243-.319-4.86-.2-1.96-.205-4.151-1.223-5.894a6.911,6.911,0,0,0-11.29-.949,17.134,17.134,0,0,0-3.385,7.027c-.726,3,3.9,4.281,4.629,1.276Z"/><path class="a" d="M52.525,154.206a28.252,28.252,0,0,0,3.949,2.367,7.319,7.319,0,0,1,3.747,7.484c-.175,1.244-.3,2.129-.419,2.94,9.081,1.026,18.877,2.008,27.846,3.153,1.142-14.449,3-27.99-14.037-33.614a36.487,36.487,0,0,1-19.87-25.116c-.89-3.239-2.565-15.226-7.3-12.383L45.474,95s-1.36-5.711-4.281-7.252a4.2,4.2,0,0,0-4.342.01,4.791,4.791,0,0,0-2.145,2.991c-.216,1.6-.368,2.907-.476,4.076-.293,3.139-.278,5.283-.38,9.422.03,12.773.866,23.441,3.294,31.379C39.611,143.669,44.034,147.789,52.525,154.206Z"/><path class="c" d="M48.715,127.874a140.82,140.82,0,0,1-2.609-16.832c-.113-1.057-.233-2.112-.289-3.174-.037-.707-.052-1.415-.033-2.123a12.42,12.42,0,0,1,.184-2.029c.064-.307.131-.613.219-.914.054-.183.114-.363.178-.541.14-.389-.259.46.062-.136a5.313,5.313,0,0,1,.437-.724c-.369.48.667-.486.161-.124,0,0,.576-.3.266-.165s.34-.086.331-.084c.263-.05.272,0-.068-.073.1.021.475.221.194.037-.355-.234.171.139.17.136-.315-.583.435.576.095.13,1.766,2.318,2.275,5.781,2.939,8.777A46.628,46.628,0,0,0,54.86,121.55a38.908,38.908,0,0,0,8.688,11.159,39.332,39.332,0,0,0,5.571,4.139,56.751,56.751,0,0,0,6.462,3,16.881,16.881,0,0,1,7.889,6.667,21.966,21.966,0,0,1,2.455,10.527,125.959,125.959,0,0,1-.674,13.1,2.42,2.42,0,0,0,2.4,2.4,2.448,2.448,0,0,0,2.4-2.4c.626-7.961,1.788-16.567-1.482-24.128a19.741,19.741,0,0,0-7.722-8.781,49.836,49.836,0,0,0-6.529-3.006,28.769,28.769,0,0,1-5.95-3.712,35.026,35.026,0,0,1-9.277-11.223,45.764,45.764,0,0,1-3.72-11.476c-.762-3.384-1.573-7.543-4.118-10.093-2.846-2.852-7.368-1.242-9.018,2.077-1.6,3.213-1.385,7.08-1.006,10.548a160.431,160.431,0,0,0,2.858,18.8c.695,3.009,5.324,1.736,4.628-1.276Z"/><path class="c" d="M47.785,94.354a18.268,18.268,0,0,0-2.5-5.864c-2.347-3.454-6.883-5.1-10.431-2.234-3.049,2.465-2.939,6.753-3.172,10.348-.253,3.9-.271,7.831-.2,11.737.141,8.037.577,16.2,2.334,24.063a37.5,37.5,0,0,0,3.319,9.483,30.6,30.6,0,0,0,5.9,7.586c1.411,1.357,2.913,2.617,4.443,3.837a47.841,47.841,0,0,0,5.886,4.306c1.652.945,3.372,1.6,4.165,3.478.714,1.687.2,3.537-.037,5.27a2.484,2.484,0,0,0,1.676,2.953,2.416,2.416,0,0,0,2.952-1.677,23.939,23.939,0,0,0,.543-5.384,9.745,9.745,0,0,0-1.815-4.932,11.873,11.873,0,0,0-4.179-3.367,34.233,34.233,0,0,1-4.84-3.287c-4.669-3.642-9.241-7.644-11.518-13.259-2.49-6.142-3.195-13.062-3.641-19.615a147.467,147.467,0,0,1-.08-22.539c.129-1.5.02-3.759.863-4.859a2.084,2.084,0,0,1,3.284.012,11.434,11.434,0,0,1,2.425,5.22c.726,3,5.356,1.731,4.628-1.276Z"/><path class="c" d="M151.277,218.5c-2.2-10.1-4.311-20.219-6.42-30.339q-1.507-7.233-3.018-14.467c-.416-1.985-.739-4.023-1.261-5.983a5.34,5.34,0,0,0-2.171-3.106,5.974,5.974,0,0,0-4.349-.671c-11.768,1.43-23.58,2.491-35.334,4.044a10.986,10.986,0,0,0-4.014.884,5.383,5.383,0,0,0-2.451,3.279,19.007,19.007,0,0,0-.3,4.41q-.063,2.436-.092,4.871-.115,9.611.292,19.215c.616,14.752,2.7,29.36,4.892,43.945a2.416,2.416,0,0,0,2.952,1.676,2.461,2.461,0,0,0,1.677-2.952c-1.814-12.065-3.583-24.151-4.388-36.333-.4-6.094-.585-12.207-.637-18.313q-.039-4.469.037-8.937.036-2.2.1-4.4c.015-.528-.187-2,.336-2.319a4.824,4.824,0,0,1,1.378-.2q.858-.114,1.717-.224,2.19-.282,4.383-.542,4.275-.512,8.557-.977c5.611-.619,11.226-1.206,16.835-1.851q1.923-.22,3.846-.453c.424-.051,1.614-.447,2.009-.111.192.163.274,1.192.327,1.446q.123.576.244,1.154.324,1.537.647,3.077,1.4,6.685,2.791,13.375c2.229,10.7,4.451,21.4,6.783,32.076.658,3.017,5.287,1.74,4.628-1.276Z"/><path class="c" d="M41.518,219.777c2.064-9.45,4.04-18.92,6.015-28.389Q49,184.346,50.469,177.3q.618-2.953,1.239-5.905a8.268,8.268,0,0,1,.556-2.579c.407-.513,1.183-.164,1.845-.083,11.2,1.361,22.428,2.39,33.615,3.82q.966.125,1.933.252a4.555,4.555,0,0,1,1.376.2c.487.346.314,1.488.331,2.07q.138,4.622.156,9.246.033,9-.388,17.988a401.188,401.188,0,0,1-4.5,40.992,2.477,2.477,0,0,0,1.676,2.952,2.416,2.416,0,0,0,2.952-1.676C93.213,231.614,95,218.6,95.766,205.5c.375-6.405.545-12.826.556-19.241q.007-4.853-.117-9.7c-.073-2.841.078-6.057-2.747-7.689a10.06,10.06,0,0,0-3.8-.856q-2.385-.317-4.773-.606c-2.989-.365-5.982-.705-8.975-1.037-5.914-.655-11.832-1.271-17.744-1.951q-2.028-.233-4.056-.478a6.036,6.036,0,0,0-4.211.582c-2.17,1.354-2.432,3.767-2.913,6.05q-1.449,6.879-2.876,13.762c-2.374,11.4-4.735,22.8-7.219,34.172-.658,3.011,3.969,4.3,4.628,1.276Z"/><path class="c" d="M102.358,252.663H86.048a2.4,2.4,0,0,0,0,4.8h16.31a2.4,2.4,0,1,0,0-4.8Z"/></svg>
