<svg xmlns="http://www.w3.org/2000/svg" viewBox="-23.65 0 311.274 311.274"><defs><style>.a{fill:#fff}.c{fill:#211715}</style></defs><path d="m169.9 259.84-2.43-11.99H96c-2.92 15.05-8 39.46-12.24 61.02h95.93a7371 7371 0 0 0-9.8-49.03M82.34 84.34a31 31 0 0 1-1.35-3.46c-1.17-3.47-1.22-9.08.55-12.12a5.8 5.8 0 0 1 5.18-2.85 6.2 6.2 0 0 1 4.47 1.66s-9.98-38.28 40.68-38.28c47.45 0 39.88 33.84 38.72 38.14a6.2 6.2 0 0 1 4.36-1.52 5.8 5.8 0 0 1 5.16 2.9c1.74 3.04 1.65 8.65.45 12.12-.84 2.45-2.22 6.2-5.53 8.89a6.7 6.7 0 0 1-5.76 1.39 47 47 0 0 1-8.9 16.96 33 33 0 0 1-10.67 8.85 37 37 0 0 0 .13 2.92 12 12 0 0 0 .56 3.31 8 8 0 0 0 2.43 3.54c2.47 2 5 2.94 8.13 4.11l3.65 1.44c-8.42 5.52-22.13 8.62-33.78 8.88-11.49-.26-25.03-3.28-33.46-8.67l4.2-1.65c3.13-1.17 5.67-2.12 8.13-4.1a8 8 0 0 0 2.43-3.55 11 11 0 0 0 .56-3.3c.06-.86.1-1.49.1-2.03a36 36 0 0 1-11.76-9.75 47 47 0 0 1-8.87-16.9 6.7 6.7 0 0 1-5.7-1.45 16 16 0 0 1-4.11-5.47" class="a"/><path d="M204.71 158.1a79 79 0 0 1 6.89 15.2c3.29 9.78 5.45 18.64 8.5 30.95a93 93 0 0 1 3.28 20.59c.44 10.12-4.87 17.72-13.1 20.06l-14.96 3.07-28.78-13.92-65.3.06-32.59 13.86-17.19-3.18a5 5 0 0 1-.94-.23l-.18-.07c-7.18-2.8-10.5-7.62-10.05-17.74.36-8.33 2.9-20.33 4.2-25.56 3.27-13.2 5.39-20.27 8.16-29.75a102 102 0 0 1 6.83-16.2c4.22-7.51 8.72-10.93 15.56-14.38 3.12-1.58 10.93-4.72 21.96-8.53 8.4 5.53 22.17 8.63 33.8 8.9 11.78-.27 25.67-3.44 34.06-9.08a169 169 0 0 1 24.6 11.46 45 45 0 0 1 14.64 13.58q.3.43.61.92" style="fill:#a095c1"/><path d="M210.93 247.21c9.26-2.72 14.67-11.24 14.87-20.67.23-11.01-3.11-21.96-5.78-32.53-2.62-10.36-5.34-20.83-9.8-30.59a48.7 48.7 0 0 0-19.54-21.88c-8.78-5.25-18.32-9.01-27.82-12.72a2.4 2.4 0 0 0-2.95 1.68 2.46 2.46 0 0 0 1.68 2.95 207 207 0 0 1 23.83 10.62c7.8 4.24 14.55 10 18.77 17.93 4.64 8.69 7.3 18.35 9.8 27.83q2.08 8.02 4.04 16.05a99 99 0 0 1 2.61 14.03c.5 5.03.8 10.25-1.58 14.88a15.3 15.3 0 0 1-9.41 7.8c-2.96.86-1.7 5.5 1.28 4.62M52.1 242.48a13 13 0 0 1-4.99-2.42 10 10 0 0 1-3.15-3.96c-1.74-3.7-1.43-8.72-1.02-12.9.99-10.19 3.48-20.2 6.07-30.06q1.89-7.17 3.97-14.27c1.29-4.42 2.54-8.83 4.26-13.1a62 62 0 0 1 6.64-13 30 30 0 0 1 10.42-8.82c8.26-4.5 17.58-7.15 26.6-10.48a2.47 2.47 0 0 0 1.67-2.95 2.4 2.4 0 0 0-2.95-1.68c-8.52 3.15-17.35 5.8-25.52 9.81a38 38 0 0 0-11.89 8.55c-3.54 3.99-5.94 8.73-8.05 13.59-4.01 9.25-6.56 19.06-9.16 28.78-2.8 10.46-5.38 20.98-6.65 31.75-.66 5.63-1.05 11.66 1.36 16.95a14.4 14.4 0 0 0 4.01 5.18 17 17 0 0 0 7.1 3.66 2.47 2.47 0 0 0 2.96-1.68 2.4 2.4 0 0 0-1.68-2.95m39.01-5.97 34.98-.02 39.63-.02 18.52-.02c3.09 0 3.1-4.8 0-4.8l-35.22.03-39.56.02-18.35.01c-3.09 0-3.1 4.8 0 4.8" class="c"/><path d="m59.32 218.54.1-.04 1.25-.5q.87-.33 1.76-.62 1.65-.53 3.34-.95a42 42 0 0 1 4.26-.81l.28-.03q.9-.1 1.8-.17a2.4 2.4 0 0 0 0-4.8 46 46 0 0 0-15.22 3.78 2.4 2.4 0 0 0-.86 3.28 2.5 2.5 0 0 0 3.29.86m14.74-50.84c.69 11.04 1.54 22.06 3.17 33a2.4 2.4 0 0 0 2.95 1.68 2.46 2.46 0 0 0 1.67-2.96c-1.56-10.51-2.33-21.12-2.99-31.72-.19-3.07-4.99-3.1-4.8 0m108.22 5.16c-.46 15.33-2.31 30.5-3.92 45.74a2.4 2.4 0 0 0 2.4 2.4 2.45 2.45 0 0 0 2.4-2.4c1.6-15.24 3.46-30.4 3.92-45.74.1-3.1-4.7-3.09-4.8 0m-12.59 98.3c2.59 12.78 5.2 25.56 7.7 38.35a2.4 2.4 0 0 0 2.94 1.68 2.45 2.45 0 0 0 1.68-2.95c-2.49-12.8-5.1-25.57-7.7-38.35a2.4 2.4 0 0 0-4.62 1.28m-83.6 38.35c3.01-15.34 6.15-30.65 9.24-45.98l2.2-10.93a2.46 2.46 0 0 0-1.68-2.95 2.4 2.4 0 0 0-2.96 1.67c-2.87 14.56-5.88 29.09-8.8 43.63q-1.33 6.64-2.63 13.29a2.46 2.46 0 0 0 1.67 2.95 2.4 2.4 0 0 0 2.95-1.68Zm22.27-59.26h51.44c3.09 0 3.1-4.8 0-4.8h-51.44c-3.09 0-3.1 4.8 0 4.8m-33.83 50.13q-5.3-.61-10.57-1.49l1.44 3.53L82.78 271c1.5-2.7-2.65-5.13-4.15-2.42Q69.96 284.3 61.25 300c-.68 1.23-.15 3.27 1.44 3.53q5.9.97 11.85 1.65a2.4 2.4 0 0 0 2.4-2.4 2.46 2.46 0 0 0-2.4-2.4Zm-72.2-63.77c12.7 0 25.4-.06 38.11-.06 3.09 0 3.1-4.8 0-4.8-12.7 0-25.4.06-38.11.06-3.09 0-3.1 4.8 0 4.8m219.68 0q15.58 0 31.16-.05h8.5c3.08 0 3.09-4.8 0-4.8q-16.88 0-33.76.04H222c-3.1 0-3.1 4.8 0 4.8ZM95.8 134.4c7.99 5.2 17.79 7.5 27.13 8.64a73 73 0 0 0 29-2.62 51 51 0 0 0 14.15-6.2c2.56-1.7.16-5.86-2.42-4.14-7.24 4.8-16.24 7.08-24.77 8.14a70 70 0 0 1-27.54-2.31 48 48 0 0 1-13.13-5.65c-2.6-1.7-5 2.46-2.42 4.14" class="c"/><path d="M177.85 268.21q-.81.6-1.6 1.12c-1.22.78-4.04 1.76-5.9.82a3.6 3.6 0 0 1-1.97-2.7l-.15.1c-2.35 1.55-6.24 2.48-8.52.7a5.2 5.2 0 0 1-.85-6.32 8 8 0 0 1 .79-1.25c-1.24.56-3.58 1.34-5.1-1.43-1-1.84-.36-4.8 1.8-7.1.8-.87 2.47-3.07 4.15-4.71l1.1-1.04-1.62-.15a4 4 0 0 1-3.3-1.97 4.7 4.7 0 0 1-.19-3.38c.68-2.21 4.24-4.8 7.94-7a30 30 0 0 1 11.04-4.2 38 38 0 0 1 10.86-.42c3.68.4 6.35 1.95 9.06 3.56a24 24 0 0 1 6.11 6.08 18 18 0 0 1 2.53 8.9c-.11 4.8-1.2 7.55-4.01 10.82a81 81 0 0 1-6.4 6.47c-2.62 2.32-5.24 2.74-7.2 2.02-1.58-.57-1.9-3.47-1.35-4.65l.1-.23-.05.04-1.49 1.17c-1.35 1.08-3.56 3.1-5.78 4.75" class="a"/><path d="M171.82 245.48a236 236 0 0 0-8.37 7.8c-2.42 2.33-5.29 4.67-6.83 7.73-1.64 3.27-.86 7.95 2.58 9.75 3.21 1.68 7.33.72 10.24-1.14 2.6-1.67.2-5.82-2.42-4.15a8 8 0 0 1-3.25 1.3 9 9 0 0 1-1.39.04 3 3 0 0 1-.82-.21c.28.11-.69-.49-.32-.19a3 3 0 0 1-.44-.65 3 3 0 0 1-.22-1.71 6 6 0 0 1 1.31-2.35 78 78 0 0 1 6.01-6.05q3.58-3.47 7.31-6.77a2.4 2.4 0 1 0-3.39-3.4" class="c"/><path d="M158.03 258.74c-.1.03-.72.13-.17.07l-.53.02h.1q-.35-.1-.14-.02c.24.16-.3-.22-.07-.02a4 4 0 0 1-.4-.45l-.19-.3q.09.28 0 .03a3 3 0 0 1-.15-.58c.06.4.02-.37.02-.39a4 4 0 0 1 .24-1.15 6 6 0 0 1 .64-1.25 22 22 0 0 1 1.73-2.1 87 87 0 0 1 10.73-10.26 2.4 2.4 0 0 0 0-3.4 2.45 2.45 0 0 0-3.4 0 88 88 0 0 0-12.45 12.3c-1.82 2.3-3 5.58-1.85 8.44a5.9 5.9 0 0 0 7.17 3.7c2.98-.8 1.71-5.43-1.28-4.64m22.11-8.28c-3.1 2.76-6.26 5.46-9.24 8.35-2.64 2.55-5.92 5.86-4.69 9.89 1.42 4.6 6.6 4.88 10.34 3.18a23 23 0 0 0 4.76-3.35c1.35-1.1 2.65-2.27 4.02-3.37 2.65-2.12 5.43-4.1 7.97-6.36a2.4 2.4 0 1 0-3.4-3.39c-1.98 1.76-4.12 3.36-6.21 4.99-2.21 1.72-4.3 3.6-6.5 5.32a12 12 0 0 1-3.5 2.15c-1 .3-2.26.48-2.76-.28a1 1 0 0 1-.2-.56c0-.02 0-.34-.02-.21a3.4 3.4 0 0 1 .67-1.43 24 24 0 0 1 3.21-3.48c2.9-2.77 5.94-5.4 8.94-8.05a2.4 2.4 0 0 0-3.4-3.4Z" class="c"/><path d="M159.98 243.85a1.4 1.4 0 0 1-1.3-1.6 1.6 1.6 0 0 1 .34-1.1 8 8 0 0 1 1.41-1.54 35 35 0 0 1 8.7-5.52 30 30 0 0 1 9.04-2.36 26 26 0 0 1 10.4.45c4.92 1.48 9.61 5.02 11.69 9.62a15 15 0 0 1 1.14 8.8 13.5 13.5 0 0 1-3.5 6.82 79 79 0 0 1-3.39 3.55 20 20 0 0 1-3.88 3.36 5 5 0 0 1-1.84.7 4 4 0 0 1-.94 0c.28.04-.85-.17-.45-.07.25.06.03.43 0-.07a6 6 0 0 1-.2-.78 1.7 1.7 0 0 1 .19-1 2.4 2.4 0 0 0-1.68-2.95 2.46 2.46 0 0 0-2.95 1.67 6.7 6.7 0 0 0 .25 4.94 5.1 5.1 0 0 0 4.54 3.03c4.21.43 7.45-2.57 10.22-5.3 2.58-2.55 5.41-5.28 6.97-8.6a19.3 19.3 0 0 0 1.34-11.7c-1.53-7.61-7.43-13.1-14.4-15.98-4-1.66-8.6-1.8-12.86-1.36a37 37 0 0 0-12.28 3.17 44 44 0 0 0-6.4 3.77 19 19 0 0 0-5.1 4.68 7 7 0 0 0-.7 6.43 6.3 6.3 0 0 0 5.64 3.74c3.08-.1 3.1-4.9 0-4.8m-59.1-16.8c-4.98-8.89-10.5-18.92-12.59-22.23a3 3 0 0 0-3.16-1.7 6 6 0 0 0-3.09 1.64 2.9 2.9 0 0 0-.2 3.51 2230 2230 0 0 1 15.5 25.06c2.88 4.8 10.86 17.92 14.64 23.95a2.49 2.49 0 0 0 4.3-2.49c-3.04-5.69-9.06-16.39-15.4-27.73" class="c"/><path d="M101.69 225.76a16 16 0 0 0-4.86-2.26 16 16 0 0 0-3.96-.59 40 40 0 0 0-5.1.44 58 58 0 0 1-9.63.45c-1.7-.1-4.4-.06-5.81.91a21 21 0 0 0-5.69 5.43 44 44 0 0 0-5.73 11.96c-.56 1.63-.4 4.95 1.02 5.93 2.9 2 9.66 9.23 13.58 11.02a13 13 0 0 0 4.8 1.17c2.1.01 4.7-1.1 4.66-4.54a6.8 6.8 0 0 0 4.83 1.52 6 6 0 0 0 2.9-.8 5.5 5.5 0 0 0 2.07-4.72l-.03-.35 1.02.81a6.2 6.2 0 0 0 7.3-.25c.97-.98 2.17-4.04 1.35-6.2l-.12-.28.65.57a7.4 7.4 0 0 0 3.35 1.44 4.5 4.5 0 0 0 3.51-.62 4.7 4.7 0 0 0 1.47-4.87 14 14 0 0 0-2.52-4.72c-2.15-3.03-6.43-9.04-9.07-11.45" class="a"/><path d="M76.56 251.32a71 71 0 0 0 5.32 4.93c1.64 1.38 3.31 2.75 5.48 3.14a9 9 0 0 0 6.84-1.13 7.8 7.8 0 0 0 2.98-6.59 2.46 2.46 0 0 0-2.4-2.4 2.4 2.4 0 0 0-2.4 2.4v.63c0 .22.07-.14-.02.24q-.07.3-.17.61c-.04.11-.23.52-.09.24q-.16.32-.35.63c-.1.15-.2.24-.03.05-.08.1-.54.46-.1.16q-.16.11-.35.21c-.47.27.2 0-.36.15l-.5.14c-.59.17.22.04-.36.06l-.51.01-.75-.03c-.2 0-.3-.03-.04.01a7 7 0 0 1-1.1-.27c-.33-.1.46.27-.08-.03l-.46-.25c-.27-.16-.7-.46-.82-.55-.51-.38-1.34-1.1-1.95-1.62a71 71 0 0 1-4.37-4.14 2.4 2.4 0 1 0-3.4 3.4Z" class="c"/><path d="M83.63 244.87q3.38 3.14 6.92 6.12c2.07 1.73 4.25 4.01 7 4.48 2.5.42 5.53-.09 7.33-2.01a9 9 0 0 0 1.85-8.41 2.46 2.46 0 0 0-2.95-1.68 2.4 2.4 0 0 0-1.68 2.96 3.5 3.5 0 0 1-.08 2.52c-.02.07-.27.73-.13.42a6 6 0 0 1-.33.63c-.03.06-.37.53-.15.26.28-.34-.4.37-.05.06.26-.23-.23.13-.3.18l-.2.1a6 6 0 0 1-1.27.32c.42-.05-.28 0-.36 0a5 5 0 0 1-.77-.03c.36.05-.4-.12-.39-.12-.59-.17.14.13-.4-.16a16 16 0 0 1-2.32-1.76q-1.26-1.02-2.5-2.07a199 199 0 0 1-5.82-5.2c-2.27-2.1-5.68 1.3-3.4 3.4Z" class="c"/><path d="M82.62 255.84a2.1 2.1 0 0 1-.77 1.62 4 4 0 0 1-1.28.35 9.4 9.4 0 0 1-5.1-1.52 59 59 0 0 1-8.03-6.72 58 58 0 0 0-3.6-3.09l-.48-.36c-.24-.2.2.3 0-.02a1 1 0 0 1-.15-.37 7 7 0 0 1-.17-2.28 24 24 0 0 1 1.91-5.35 39 39 0 0 1 3.05-5.66 19 19 0 0 1 4.47-4.88 5.5 5.5 0 0 1 2.26-1.22 12 12 0 0 1 2.82-.16 93 93 0 0 0 12.3-.69c3.78-.38 8.3-.05 11.08 2.9a83 83 0 0 1 6.97 8.92c1.17 1.64 2.93 3.54 3.12 5.63.2 2.2-1.54 2.45-3.28 1.86a9 9 0 0 1-2.88-2.06q-1.63-1.44-3.24-2.9c-2.26-2.05-4.51-4.11-6.83-6.1a2.46 2.46 0 0 0-3.4 0 2.4 2.4 0 0 0 0 3.4c2.38 2.03 4.69 4.14 7 6.24 2.22 2 4.5 4.63 7.3 5.76 2.63 1.05 5.88 1.2 8.08-.85a7.4 7.4 0 0 0 1.72-7.4c-.71-2.44-2.34-4.47-3.8-6.5a173 173 0 0 0-4.37-5.85 24 24 0 0 0-4.42-4.86 17.5 17.5 0 0 0-6.75-2.8 18 18 0 0 0-4.68-.32 36 36 0 0 0-3.24.32l-.91.12a60 60 0 0 1-7.23.46c-2.43 0-4.92-.33-7.3.42-2.54.8-4.92 3.04-6.64 5-3.53 4-5.7 9.16-7.41 14.15a9.7 9.7 0 0 0 .23 6.97 5.7 5.7 0 0 0 1.97 2.26l.09.07.36.3q.6.5 1.2 1.03c3.53 3.12 6.93 6.88 11.1 9.16a13 13 0 0 0 8.3 1.63 6.5 6.5 0 0 0 5.26-5.33 2.5 2.5 0 0 0-1.68-2.96 2.4 2.4 0 0 0-2.95 1.68" class="c"/><path d="M163.25 52.15a42.6 42.6 0 0 0-13.46-13.64c-3.75 5.05-9.64 8.48-15.08 10.69-7.05 2.87-11.86 2.21-19.52.37a58 58 0 0 1-5.2 2.28c-3.6 1.42-7.77 2.06-11.08 4.08a14.2 14.2 0 0 0-5.64 7.48 59 59 0 0 0-1.33 4.83l-.78-.69a6.2 6.2 0 0 0-4.48-1.64 7 7 0 0 0-1.87.3A49 49 0 0 1 82 50.85c-.03-16.73 7.07-28.21 15.12-33.14 7.23-10.06 20.13-15.99 33.74-15.3a47.6 47.6 0 0 1 24.1 7.9l8.34 6.54c8.2 6.42 14.6 17.74 15.28 33.69a51 51 0 0 1-1.89 15.62 8 8 0 0 0-1.76-.26 6.2 6.2 0 0 0-4.48 1.64l-1.9 1.82-.06-.76a38.6 38.6 0 0 0-5.24-16.46" style="fill:#c6c6c6"/><path d="M95.9 15.65c-12.1 7.53-17.04 23.48-16.25 37.07a50 50 0 0 0 2.6 13.42c1 2.9 5.64 1.66 4.62-1.27-4.38-12.62-3.25-28.7 5.23-39.42a24 24 0 0 1 6.22-5.65c2.62-1.63.2-5.78-2.42-4.14Z" class="c"/><path d="M158.35 9.72a52 52 0 0 0-23.12-9.3 45 45 0 0 0-25.42 3.81 40 40 0 0 0-11.32 8.11c-2.16 2.22 1.23 5.61 3.39 3.4C113 4.29 130.46 2.2 144.98 7.82a52 52 0 0 1 10.94 6.04 2.4 2.4 0 0 0 3.29-.86 2.45 2.45 0 0 0-.86-3.28m20.82 56.42a58 58 0 0 0 1.84-12.37 59 59 0 0 0-1.05-12.24 46.6 46.6 0 0 0-7.97-19.02 38 38 0 0 0-6.99-7.34 2.5 2.5 0 0 0-3.4 0 2.4 2.4 0 0 0 0 3.4c10.05 7.93 14.42 20.8 14.62 33.3a51 51 0 0 1-1.68 13c-.73 3 3.9 4.28 4.63 1.28Zm-24.3-20.6a36.6 36.6 0 0 1 11.22 23.08 2.47 2.47 0 0 0 2.4 2.4 2.4 2.4 0 0 0 2.4-2.4 41.7 41.7 0 0 0-12.63-26.47c-2.22-2.13-5.62 1.26-3.4 3.4m-6.32-9.44c-2.94 4.48-7.55 7.56-12.32 9.83a29 29 0 0 1-7.83 2.62 24 24 0 0 1-8.12-.32 2.47 2.47 0 0 0-2.95 1.68 2.4 2.4 0 0 0 1.67 2.94 31 31 0 0 0 9.76.46 33 33 0 0 0 9.54-3.08c5.67-2.64 10.93-6.43 14.4-11.71 1.7-2.6-2.46-5-4.15-2.42" class="c"/><path d="M126.23 36.62a41 41 0 0 1-6.87 7.16 34 34 0 0 1-9.48 5.55c-3.65 1.45-7.57 2.15-11.09 3.92a15.8 15.8 0 0 0-7.3 8.16 56 56 0 0 0-2.65 9.5c-.68 3 3.94 4.3 4.63 1.28 1.32-5.78 2.3-12.36 8.3-15.07 3.42-1.54 7.18-2.23 10.64-3.68a38 38 0 0 0 9.86-5.87 47 47 0 0 0 8.1-8.53 2.4 2.4 0 0 0-.87-3.28 2.46 2.46 0 0 0-3.28.86ZM116.2 97.06a26 26 0 0 0-2.5 5.82 2.5 2.5 0 0 0 .23 1.85 2.4 2.4 0 0 0 4.4-.57 24 24 0 0 1 .88-2.52l-.24.57a24 24 0 0 1 1.37-2.73 2.5 2.5 0 0 0 .25-1.85 2.4 2.4 0 0 0-4.39-.57m25.67 2.3q.75 1.13 1.43 2.3a24 24 0 0 1 1.24 2.34l-.24-.57.1.24a2.6 2.6 0 0 0 1.1 1.44 2.4 2.4 0 0 0 3.28-.87 2.4 2.4 0 0 0 .24-1.84 21 21 0 0 0-1.48-3q-.72-1.26-1.52-2.46a2.6 2.6 0 0 0-1.44-1.1 2.5 2.5 0 0 0-1.85.24 2.4 2.4 0 0 0-.86 3.29Zm-18.74 4.38a16.6 16.6 0 0 0 7.96 1.88 13 13 0 0 0 8.13-2.4 2.4 2.4 0 0 0 0-3.4 2.5 2.5 0 0 0-3.4 0c.75-.57.25-.18.06-.06q-.24.15-.48.27c-.23.12-.77.24-.1.06-.22.06-.43.17-.66.24a12 12 0 0 1-1.85.42c.35-.05.17-.02-.08 0l-.55.04q-.66.04-1.32.03-.59 0-1.18-.04l-.54-.05c-.68-.06.48.09-.16-.02a14 14 0 0 1-1.73-.4q-.37-.1-.72-.23c-.58-.2.44.21-.08-.04q-.44-.2-.88-.44a2.4 2.4 0 1 0-2.42 4.15Zm6.64-18.52a36 36 0 0 1 .85 3.94l-.09-.64a2 2 0 0 1 .01.54l.09-.64-.06.25.24-.58-.09.16.38-.49-.13.13.49-.38-.32.17.58-.24a2 2 0 0 1-.53.15l.64-.09a2 2 0 0 1-.5 0l.64.09q-.27-.06-.55-.1a2 2 0 0 0-.95-.05 2 2 0 0 0-.9.29 2.4 2.4 0 0 0-.86 3.28 2.3 2.3 0 0 0 1.44 1.1c.45.07.9.18 1.36.2a4.4 4.4 0 0 0 2.06-.49 3 3 0 0 0 1.66-2 5 5 0 0 0-.01-2.11q-.33-1.9-.82-3.77a2.4 2.4 0 0 0-4.63 1.28M109.4 73.9c-.66 2.13-.26 7.04 3.78 7.47 5.35 0 5.65-5.94 3.87-8.74-1.47-2.29-5.8-3.25-7.65 1.27m42.77.17c.65 2.13.2 7.04-3.84 7.44-5.34-.05-5.6-5.99-3.8-8.77 1.49-2.28 5.82-3.21 7.64 1.33m20-4.84a4.1 4.1 0 0 1 3.72-.79 4 4 0 0 1 1.42.65c-.14-.1.75.92.44.47 1.45 2.11 1.43 5.1 1.2 7.54a19 19 0 0 1-2.3 6.98c-1.43 2.6-3.63 5.28-6.9 4.84a2.4 2.4 0 0 0-2.4 2.4 2.46 2.46 0 0 0 2.4 2.4c7.1.95 11.43-6.74 13.22-12.45 1.6-5.08 1.6-12.94-3.25-16.32a9.1 9.1 0 0 0-10.95.89c-2.32 2.05 1.09 5.43 3.4 3.4Z" class="c"/><path d="M92.89 65.87a9.1 9.1 0 0 0-10.07-1.45 8.8 8.8 0 0 0-4.47 5.9c-1.55 5.77-.1 12.45 3.13 17.42 2.24 3.45 5.84 6.57 10.23 6.02a2.5 2.5 0 0 0 2.4-2.4 2.4 2.4 0 0 0-2.4-2.4c-3.26.4-5.43-2.3-6.84-4.91a19 19 0 0 1-2.25-7.18c-.19-2.4-.16-5.3 1.28-7.35-.32.45.6-.56.46-.46a4 4 0 0 1 1.42-.63 4.1 4.1 0 0 1 3.71.83c2.3 2.06 5.7-1.32 3.4-3.39" class="c"/><path d="M89.05 88.86a50 50 0 0 0 10.83 21.67c5.13 6 11.77 10.77 19.71 11.99a2.5 2.5 0 0 0 2.96-1.68 2.4 2.4 0 0 0-1.68-2.95c-7.23-1.1-12.92-5.3-17.6-10.76a45 45 0 0 1-9.6-19.55c-.66-3.01-5.3-1.74-4.62 1.28m78.66-1.28a45 45 0 0 1-8.59 18.35 35 35 0 0 1-7.2 6.99 32 32 0 0 1-8.44 4.03c-2.93.94-1.68 5.58 1.27 4.62a37 37 0 0 0 9.59-4.5 39 39 0 0 0 8.18-7.75 50 50 0 0 0 9.82-20.46c.67-3.01-3.95-4.3-4.63-1.28m-83.94 223.7h95.92c3.1 0 3.1-4.8 0-4.8H83.77c-3.08 0-3.09 4.8 0 4.8" class="c"/><path d="M97.92 134.9c2.94-1.15 5.96-2.2 8.83-3.51a15 15 0 0 0 6.52-5.08c1.62-2.52 1.85-5.48 1.92-8.4a2.4 2.4 0 0 0-2.4-2.4 2.45 2.45 0 0 0-2.4 2.4l-.09 1.63-.06.96-.05.55q-.05.47-.03.2a6 6 0 0 1-1.23 2.93c.22-.31-.25.27-.3.34a7 7 0 0 1-.64.58l-.13.1-.42.3-.62.41q-.73.45-1.5.85c-.46.23-1.23.59-1.5.71-1.16.5-2.77 1.07-4.13 1.6l-3.04 1.2a2.46 2.46 0 0 0-1.68 2.95 2.43 2.43 0 0 0 2.95 1.68m49.37-17.88a23 23 0 0 0 .69 6.6 11.3 11.3 0 0 0 4.24 5.72c2.81 2.06 6.18 3.12 9.39 4.38l2.97 1.17a2.4 2.4 0 0 0 2.95-1.67 2.47 2.47 0 0 0-1.68-2.96l-3.16-1.24-1.1-.44-1.77-.66-.95-.38-.13-.05-.34-.15a21 21 0 0 1-3.13-1.71 7 7 0 0 1-1.3-1.03 6 6 0 0 1-.48-.54c.23.3-.26-.42-.3-.49a7 7 0 0 1-.92-3.08q-.15-1.73-.17-3.47a2.4 2.4 0 0 0-4.8 0Z" class="c"/></svg>
