<svg viewBox="-23.65 0 311.274 311.274" xmlns="http://www.w3.org/2000/svg"><defs><style>.a{fill:#ffffff;}.b{fill:#a095c1;}.c{fill:#211715;}.d{fill:#c6c6c6;}</style></defs><path class="a" d="M169.9,259.841c-.894-4.408-1.719-8.476-2.432-11.99H96.014c-2.925,15.05-8.008,39.457-12.24,61.023H179.7C176.869,294.323,172.979,275.056,169.9,259.841Z"/><path class="a" d="M82.338,84.345a31.061,31.061,0,0,1-1.349-3.463c-1.165-3.476-1.217-9.085.55-12.122a5.751,5.751,0,0,1,5.177-2.85,6.2,6.2,0,0,1,4.473,1.658s-9.982-38.282,40.685-38.282c47.446,0,39.875,33.84,38.721,38.142a6.182,6.182,0,0,1,4.359-1.516,5.752,5.752,0,0,1,5.155,2.89c1.743,3.051,1.647,8.659.455,12.125-.843,2.455-2.225,6.209-5.53,8.893a6.687,6.687,0,0,1-5.766,1.389,47.121,47.121,0,0,1-8.893,16.962A32.6,32.6,0,0,1,149.7,117.02c.008.778.028,1.588.128,2.921a11.72,11.72,0,0,0,.56,3.31,8.168,8.168,0,0,0,2.43,3.54c2.47,1.99,5,2.94,8.13,4.11l3.65,1.436c-8.417,5.523-22.13,8.626-33.78,8.884-11.483-.257-25.03-3.278-33.459-8.668l4.209-1.652c3.12-1.17,5.66-2.12,8.12-4.11a8.084,8.084,0,0,0,2.43-3.54,11.375,11.375,0,0,0,.56-3.31c.06-.849.1-1.478.107-2.019a35.7,35.7,0,0,1-11.762-9.751,47.1,47.1,0,0,1-8.876-16.9,6.709,6.709,0,0,1-5.694-1.45A15.622,15.622,0,0,1,82.338,84.345Z"/><path class="b" d="M204.712,158.106a78.828,78.828,0,0,1,6.884,15.2c3.292,9.779,5.449,18.634,8.5,30.944a92.765,92.765,0,0,1,3.287,20.588c.44,10.12-4.875,17.72-13.095,20.06l-14.97,3.075-28.777-13.919c-20.283.017-45.308.035-65.306.053L68.652,247.972l-17.188-3.181a4.654,4.654,0,0,1-.943-.231l-.179-.067c-7.184-2.807-10.494-7.625-10.056-17.742.361-8.333,2.91-20.33,4.2-25.564,3.269-13.2,5.389-20.263,8.167-29.75a101.983,101.983,0,0,1,6.827-16.188c4.216-7.521,8.722-10.937,15.556-14.388,3.129-1.581,10.938-4.721,21.969-8.534,8.4,5.532,22.163,8.633,33.8,8.894,11.778-.26,25.666-3.429,34.056-9.068a169.132,169.132,0,0,1,24.6,11.454A44.731,44.731,0,0,1,204.1,157.194C204.3,157.475,204.5,157.781,204.712,158.106Z"/><path class="c" d="M210.926,247.212c9.26-2.723,14.678-11.244,14.876-20.671.232-11.013-3.112-21.963-5.783-32.528-2.62-10.366-5.34-20.838-9.794-30.593a48.686,48.686,0,0,0-19.544-21.885c-8.782-5.243-18.321-9.009-27.819-12.711a2.418,2.418,0,0,0-2.952,1.677,2.456,2.456,0,0,0,1.676,2.952,206.525,206.525,0,0,1,23.838,10.621c7.8,4.237,14.542,10,18.767,17.922,4.635,8.693,7.293,18.356,9.794,27.835,1.407,5.334,2.726,10.692,4.042,16.049a98.734,98.734,0,0,1,2.618,14.033c.486,5.027.792,10.244-1.588,14.876a15.3,15.3,0,0,1-9.407,7.794c-2.957.87-1.7,5.5,1.276,4.629Z"/><path class="c" d="M52.1,242.477a13.2,13.2,0,0,1-4.987-2.418,9.993,9.993,0,0,1-3.148-3.963c-1.743-3.692-1.43-8.717-1.025-12.9.989-10.184,3.481-20.189,6.075-30.061q1.883-7.161,3.966-14.268c1.285-4.421,2.536-8.822,4.255-13.1a62.385,62.385,0,0,1,6.64-13A30.027,30.027,0,0,1,74.3,143.954c8.26-4.5,17.58-7.151,26.593-10.487a2.465,2.465,0,0,0,1.677-2.952,2.42,2.42,0,0,0-2.953-1.676c-8.519,3.153-17.343,5.794-25.516,9.813A38.111,38.111,0,0,0,62.214,147.2c-3.541,3.99-5.948,8.728-8.055,13.589C50.15,170.04,47.6,179.852,45,189.57c-2.8,10.455-5.383,20.982-6.651,31.749-.663,5.634-1.046,11.66,1.364,16.954a14.406,14.406,0,0,0,4.012,5.18,16.82,16.82,0,0,0,7.1,3.652,2.469,2.469,0,0,0,2.953-1.676,2.421,2.421,0,0,0-1.676-2.952Z"/><path class="c" d="M91.111,236.515q17.49-.015,34.98-.024l39.625-.025,18.524-.013c3.088,0,3.094-4.8,0-4.8q-17.61.015-35.219.024l-39.559.024-18.351.014c-3.088,0-3.093,4.8,0,4.8Z"/><path class="c" d="M59.317,218.541q.4-.171.1-.045c.151-.063.3-.124.454-.185.267-.107.535-.21.8-.311q.872-.327,1.756-.616,1.653-.538,3.343-.949c1.1-.267,2.212-.5,3.33-.677.31-.05.621-.1.932-.141-.476.066.184-.02.282-.031.594-.069,1.19-.121,1.788-.161a2.4,2.4,0,0,0,0-4.8A46.01,46.01,0,0,0,56.894,214.4a2.407,2.407,0,0,0-.861,3.284,2.476,2.476,0,0,0,3.284.861Z"/><path class="c" d="M74.062,167.7c.684,11.037,1.537,22.058,3.164,33a2.416,2.416,0,0,0,2.953,1.676,2.462,2.462,0,0,0,1.676-2.952c-1.564-10.514-2.336-21.122-2.993-31.725-.191-3.068-4.992-3.09-4.8,0Z"/><path class="c" d="M182.28,172.857c-.458,15.334-2.312,30.507-3.917,45.747a2.415,2.415,0,0,0,2.4,2.4,2.454,2.454,0,0,0,2.4-2.4c1.6-15.24,3.459-30.413,3.917-45.747.093-3.09-4.707-3.087-4.8,0Z"/><path class="c" d="M169.691,271.165c2.587,12.779,5.2,25.552,7.69,38.35a2.424,2.424,0,0,0,2.952,1.677,2.45,2.45,0,0,0,1.676-2.953c-2.486-12.8-5.1-25.571-7.69-38.35a2.4,2.4,0,0,0-4.628,1.276Z"/><path class="c" d="M86.088,309.512c3.012-15.34,6.156-30.654,9.247-45.979q1.1-5.465,2.187-10.933a2.462,2.462,0,0,0-1.676-2.952,2.423,2.423,0,0,0-2.953,1.676c-2.877,14.554-5.881,29.083-8.8,43.63q-1.331,6.639-2.637,13.282a2.46,2.46,0,0,0,1.676,2.952,2.422,2.422,0,0,0,2.952-1.676Z"/><path class="c" d="M108.361,250.251H159.8c3.088,0,3.093-4.8,0-4.8H108.361c-3.089,0-3.094,4.8,0,4.8Z"/><path class="c" d="M74.535,300.377q-5.3-.612-10.572-1.484l1.434,3.526Q74.089,286.71,82.777,271c1.494-2.707-2.65-5.131-4.144-2.423Q69.958,284.295,61.253,300c-.681,1.231-.151,3.265,1.434,3.526q5.9.97,11.848,1.655a2.413,2.413,0,0,0,2.4-2.4,2.457,2.457,0,0,0-2.4-2.4Z"/><path class="c" d="M2.318,236.617c12.7,0,25.408-.052,38.112-.053,3.088,0,3.093-4.8,0-4.8-12.7,0-25.408.052-38.112.053-3.088,0-3.093,4.8,0,4.8Z"/><path class="c" d="M222,236.617q15.581,0,31.161-.046,4.248,0,8.495-.007c3.088,0,3.093-4.8,0-4.8q-16.879,0-33.76.046-2.947,0-5.9.007c-3.088,0-3.093,4.8,0,4.8Z"/><path class="c" d="M95.8,134.4c7.986,5.194,17.789,7.5,27.133,8.642a73.143,73.143,0,0,0,28.994-2.619,51.086,51.086,0,0,0,14.155-6.2c2.562-1.7.161-5.86-2.422-4.145-7.236,4.806-16.236,7.082-24.766,8.143a69.592,69.592,0,0,1-27.547-2.314,47.459,47.459,0,0,1-13.125-5.649c-2.6-1.689-5,2.465-2.422,4.145Z"/><path class="a" d="M177.853,268.214c-.54.4-1.079.78-1.607,1.116-1.22.779-4.039,1.762-5.905.822a3.557,3.557,0,0,1-1.957-2.711l-.153.1c-2.356,1.563-6.24,2.491-8.52.7a5.208,5.208,0,0,1-.852-6.312,8.139,8.139,0,0,1,.79-1.248c-1.24.564-3.574,1.339-5.093-1.434-1.005-1.837-.365-4.795,1.789-7.1.813-.869,2.478-3.069,4.155-4.707q.54-.522,1.092-1.039l-1.61-.152a3.971,3.971,0,0,1-3.3-1.97,4.7,4.7,0,0,1-.192-3.375c.684-2.216,4.239-4.795,7.936-7.01a30.366,30.366,0,0,1,11.047-4.2,37.836,37.836,0,0,1,10.858-.411c3.684.389,6.346,1.949,9.06,3.553a24.141,24.141,0,0,1,6.111,6.081,17.949,17.949,0,0,1,2.533,8.9c-.119,4.8-1.2,7.554-4.017,10.82a81.006,81.006,0,0,1-6.391,6.473c-2.628,2.318-5.247,2.742-7.207,2.024-1.576-.578-1.905-3.474-1.347-4.658l.106-.224-.054.042c-.591.462-1.109.867-1.493,1.171C182.28,264.537,180.069,266.566,177.853,268.214Z"/><path class="c" d="M171.821,245.481c-2.871,2.512-5.626,5.146-8.371,7.793-2.42,2.335-5.288,4.68-6.827,7.735-1.646,3.27-.863,7.949,2.581,9.752,3.206,1.678,7.329.719,10.239-1.146,2.592-1.662.188-5.819-2.423-4.145a8.371,8.371,0,0,1-3.246,1.3,8.765,8.765,0,0,1-1.393.041,3.422,3.422,0,0,1-.817-.216c.279.117-.69-.481-.32-.185a2.783,2.783,0,0,1-.442-.655,3.053,3.053,0,0,1-.224-1.71,5.875,5.875,0,0,1,1.312-2.347,77.6,77.6,0,0,1,6.012-6.047c2.391-2.308,4.812-4.584,7.313-6.772a2.4,2.4,0,1,0-3.394-3.4Z"/><path class="c" d="M158.027,258.742c-.094.025-.714.123-.164.071a3.909,3.909,0,0,1-.53.013c-.176-.011-.144-.006.1.012-.237-.077-.286-.086-.145-.026.245.154-.3-.219-.072-.021a4.176,4.176,0,0,1-.405-.446l-.18-.307q.089.278.007.035a3.03,3.03,0,0,1-.155-.586c.062.4.014-.368.014-.382a4.236,4.236,0,0,1,.248-1.153,5.534,5.534,0,0,1,.635-1.253,22.218,22.218,0,0,1,1.731-2.093,87.03,87.03,0,0,1,10.725-10.265,2.42,2.42,0,0,0,0-3.394,2.449,2.449,0,0,0-3.394,0,88.048,88.048,0,0,0-12.453,12.3c-1.814,2.3-2.994,5.568-1.849,8.435a5.877,5.877,0,0,0,7.166,3.691c2.984-.788,1.718-5.419-1.276-4.628Z"/><path class="c" d="M180.142,250.464c-3.1,2.755-6.258,5.458-9.241,8.345-2.638,2.552-5.925,5.859-4.687,9.888,1.413,4.6,6.592,4.88,10.34,3.18a23.021,23.021,0,0,0,4.754-3.343c1.355-1.105,2.653-2.279,4.019-3.371,2.652-2.119,5.43-4.1,7.969-6.359a2.4,2.4,0,1,0-3.394-3.394c-1.983,1.762-4.122,3.356-6.213,4.985-2.211,1.723-4.294,3.6-6.5,5.327a11.779,11.779,0,0,1-3.5,2.143c-1,.305-2.258.481-2.756-.276a.852.852,0,0,1-.2-.561c0-.014,0-.336-.023-.21a3.4,3.4,0,0,1,.673-1.427,23.852,23.852,0,0,1,3.211-3.482c2.9-2.772,5.936-5.39,8.935-8.051a2.4,2.4,0,0,0-3.394-3.394Z"/><path class="c" d="M159.982,243.854a1.391,1.391,0,0,1-1.31-1.612,1.579,1.579,0,0,1,.349-1.091,7.969,7.969,0,0,1,1.41-1.537,34.927,34.927,0,0,1,8.7-5.52,29.631,29.631,0,0,1,9.044-2.368,26.331,26.331,0,0,1,10.389.451c4.93,1.481,9.62,5.027,11.692,9.625a14.971,14.971,0,0,1,1.147,8.806,13.47,13.47,0,0,1-3.5,6.808c-1.087,1.223-2.227,2.4-3.388,3.553a20.189,20.189,0,0,1-3.884,3.365,5.239,5.239,0,0,1-1.844.695,3.873,3.873,0,0,1-.938.01c.277.033-.847-.181-.446-.08.247.062.031.427,0-.073a6.087,6.087,0,0,1-.2-.776,1.72,1.72,0,0,1,.182-1,2.416,2.416,0,0,0-1.676-2.952,2.458,2.458,0,0,0-2.952,1.676,6.724,6.724,0,0,0,.256,4.934,5.092,5.092,0,0,0,4.536,3.036c4.213.429,7.45-2.571,10.221-5.309,2.58-2.548,5.414-5.275,6.969-8.6a19.26,19.26,0,0,0,1.339-11.687c-1.524-7.619-7.432-13.116-14.394-15.993-4.01-1.657-8.6-1.8-12.869-1.359a37.219,37.219,0,0,0-12.277,3.174,44.14,44.14,0,0,0-6.4,3.766,19.439,19.439,0,0,0-5.1,4.683,7,7,0,0,0-.7,6.435,6.259,6.259,0,0,0,5.641,3.739c3.08-.1,3.094-4.905,0-4.8Z"/><path class="c" d="M100.874,227.058c-4.976-8.894-10.5-18.932-12.582-22.238a3.013,3.013,0,0,0-3.162-1.691,5.777,5.777,0,0,0-3.089,1.627,2.893,2.893,0,0,0-.209,3.516c6.446,10.292,12.534,20.126,15.5,25.057,2.887,4.8,10.865,17.92,14.646,23.953a2.488,2.488,0,0,0,4.3-2.491C113.243,249.1,107.219,238.4,100.874,227.058Z"/><path class="a" d="M101.688,225.755a16.116,16.116,0,0,0-4.859-2.258,15.923,15.923,0,0,0-3.964-.583,39.8,39.8,0,0,0-5.1.432,57.756,57.756,0,0,1-9.623.459c-1.709-.1-4.406-.06-5.817.909a21.289,21.289,0,0,0-5.683,5.423A44.267,44.267,0,0,0,60.907,242.1c-.559,1.625-.394,4.954,1.019,5.931,2.895,2,9.662,9.232,13.589,11.02a12.544,12.544,0,0,0,4.8,1.168c2.1.012,4.7-1.1,4.651-4.539a6.834,6.834,0,0,0,4.837,1.523,6.221,6.221,0,0,0,2.888-.8,5.535,5.535,0,0,0,2.083-4.726l-.033-.349c.332.269.674.539,1.022.812a6.155,6.155,0,0,0,7.3-.25c.963-.98,2.164-4.041,1.344-6.2l-.116-.279c.209.189.428.377.649.564a7.345,7.345,0,0,0,3.35,1.444,4.517,4.517,0,0,0,3.51-.615,4.715,4.715,0,0,0,1.465-4.87,13.866,13.866,0,0,0-2.514-4.728c-2.154-3.023-6.43-9.036-9.069-11.449"/><path class="c" d="M76.563,251.316a71.275,71.275,0,0,0,5.315,4.936c1.643,1.373,3.316,2.746,5.483,3.14a9.019,9.019,0,0,0,6.838-1.129,7.814,7.814,0,0,0,2.977-6.591,2.457,2.457,0,0,0-2.4-2.4,2.421,2.421,0,0,0-2.4,2.4c.013.211.016.414.012.625-.005.226.063-.141-.031.243-.05.208-.1.412-.169.614-.034.106-.227.519-.088.24-.108.216-.23.418-.354.625-.092.156-.193.239-.025.051-.085.095-.54.459-.092.16-.115.077-.234.143-.354.211-.47.27.186-.006-.364.146-.168.046-.338.091-.5.141-.588.175.217.044-.364.066-.169.006-.338.008-.508.006-.252,0-.5-.018-.753-.03-.205-.009-.3-.026-.039.012a7.1,7.1,0,0,1-1.1-.271c-.327-.1.463.267-.079-.031-.153-.085-.31-.163-.461-.252-.268-.157-.7-.457-.82-.544-.507-.38-1.337-1.1-1.943-1.622-1.521-1.316-2.975-2.7-4.379-4.141a2.4,2.4,0,1,0-3.394,3.4Z"/><path class="c" d="M83.631,244.871c2.264,2.084,4.552,4.142,6.914,6.115,2.07,1.729,4.255,4.014,7.011,4.48,2.49.42,5.524-.086,7.322-2.006a9.068,9.068,0,0,0,1.849-8.41,2.457,2.457,0,0,0-2.952-1.677,2.425,2.425,0,0,0-1.677,2.953,3.486,3.486,0,0,1-.08,2.528c-.019.063-.264.725-.131.411a5.491,5.491,0,0,1-.325.634c-.035.06-.371.532-.152.262.278-.344-.409.37-.052.061.266-.229-.232.129-.3.174-.089.051-.181.1-.274.14.21-.084.233-.1.068-.034a6.164,6.164,0,0,1-1.26.321c.42-.052-.283,0-.365,0a4.966,4.966,0,0,1-.771-.036c.366.054-.393-.119-.385-.117-.588-.167.141.129-.407-.159a16.208,16.208,0,0,1-2.313-1.758q-1.26-1.023-2.5-2.078c-1.98-1.688-3.911-3.434-5.825-5.2-2.27-2.089-5.673,1.3-3.395,3.4Z"/><path class="c" d="M82.615,255.838a2.117,2.117,0,0,1-.762,1.623,3.494,3.494,0,0,1-1.283.352,9.44,9.44,0,0,1-5.1-1.525,58.811,58.811,0,0,1-8.027-6.713c-1.171-1.064-2.345-2.127-3.6-3.092-.157-.122-.327-.238-.48-.365-.245-.206.2.3-.009-.021a1.041,1.041,0,0,1-.142-.366,6.639,6.639,0,0,1-.172-2.277,24.2,24.2,0,0,1,1.914-5.358A39.358,39.358,0,0,1,68,232.445a18.911,18.911,0,0,1,4.468-4.887,5.524,5.524,0,0,1,2.257-1.219,11.779,11.779,0,0,1,2.82-.162,92.5,92.5,0,0,0,12.306-.684c3.774-.379,8.3-.056,11.08,2.888a83.166,83.166,0,0,1,6.967,8.925c1.176,1.645,2.932,3.544,3.118,5.636.2,2.2-1.536,2.443-3.271,1.856a8.989,8.989,0,0,1-2.88-2.062q-1.633-1.435-3.24-2.9c-2.262-2.05-4.519-4.106-6.837-6.093a2.462,2.462,0,0,0-3.394,0,2.421,2.421,0,0,0,0,3.394c2.376,2.037,4.686,4.145,7.005,6.245,2.209,2,4.5,4.626,7.3,5.755,2.621,1.056,5.871,1.212,8.071-.847a7.388,7.388,0,0,0,1.716-7.4c-.707-2.44-2.338-4.473-3.8-6.5-1.418-1.976-2.864-3.932-4.364-5.846a24.038,24.038,0,0,0-4.421-4.861,17.508,17.508,0,0,0-6.751-2.8,18.233,18.233,0,0,0-4.679-.323c-.7.039-1.392.1-2.085.179-.386.043-.771.091-1.156.141.185-.024-1.545.2-.911.122a59.987,59.987,0,0,1-7.226.454c-2.436,0-4.923-.327-7.3.423-2.539.8-4.92,3.041-6.646,5-3.522,4.008-5.7,9.158-7.409,14.15A9.68,9.68,0,0,0,58.965,248a5.676,5.676,0,0,0,1.974,2.264c.313.235-.459-.374.09.067l.36.294c.406.336.8.683,1.2,1.032,3.53,3.12,6.932,6.886,11.107,9.159a13,13,0,0,0,8.291,1.632,6.47,6.47,0,0,0,5.258-5.332,2.476,2.476,0,0,0-1.676-2.952,2.418,2.418,0,0,0-2.952,1.676Z"/><path class="d" d="M163.252,52.15a42.568,42.568,0,0,0-13.46-13.64c-3.755,5.049-9.646,8.481-15.081,10.689-7.056,2.867-11.86,2.212-19.526.368-1.736.89-3.586,1.656-5.19,2.285-3.608,1.414-7.773,2.062-11.085,4.074a14.181,14.181,0,0,0-5.644,7.48c-.379,1.059-.888,3.019-1.329,4.834l-.776-.689a6.2,6.2,0,0,0-4.481-1.64,7.372,7.372,0,0,0-1.866.291A49.158,49.158,0,0,1,82,50.864C81.97,34.129,89.074,22.65,97.117,17.719c7.232-10.063,20.132-15.985,33.746-15.306a47.621,47.621,0,0,1,24.089,7.9c4.6,3.612,8.352,6.551,8.352,6.551,8.189,6.417,14.6,17.739,15.276,33.681a50.5,50.5,0,0,1-1.89,15.621,7.7,7.7,0,0,0-1.76-.256,6.2,6.2,0,0,0-4.48,1.64l-1.892,1.818-.069-.753A38.6,38.6,0,0,0,163.252,52.15Z"/><path class="c" d="M95.9,15.653C83.8,23.177,78.859,39.132,79.654,52.721a50.248,50.248,0,0,0,2.589,13.421c1.006,2.9,5.644,1.654,4.628-1.276-4.377-12.62-3.253-28.7,5.23-39.411A24.235,24.235,0,0,1,98.318,19.8c2.618-1.628.21-5.782-2.423-4.145Z"/><path class="c" d="M158.348,9.715A52.324,52.324,0,0,0,135.227.421a45.16,45.16,0,0,0-25.42,3.813,39.488,39.488,0,0,0-11.322,8.107c-2.155,2.216,1.235,5.614,3.394,3.394,11.135-11.448,28.584-13.535,43.1-7.91a52.177,52.177,0,0,1,10.945,6.034A2.421,2.421,0,0,0,159.209,13a2.449,2.449,0,0,0-.861-3.283Z"/><path class="c" d="M179.17,66.142a58.408,58.408,0,0,0,1.841-12.376,58.768,58.768,0,0,0-1.056-12.237,46.587,46.587,0,0,0-7.965-19.015A38,38,0,0,0,165,15.168a2.477,2.477,0,0,0-3.394,0,2.415,2.415,0,0,0,0,3.394c10.046,7.943,14.409,20.806,14.612,33.3a50.983,50.983,0,0,1-1.678,13.009c-.734,3,3.894,4.28,4.629,1.276Z"/><path class="c" d="M154.869,45.549a36.564,36.564,0,0,1,11.22,23.067,2.466,2.466,0,0,0,2.4,2.4,2.417,2.417,0,0,0,2.4-2.4,41.675,41.675,0,0,0-12.626-26.461c-2.228-2.14-5.627,1.25-3.394,3.394Z"/><path class="c" d="M148.552,36.1c-2.942,4.484-7.554,7.557-12.324,9.829a28.95,28.95,0,0,1-7.831,2.617,24.2,24.2,0,0,1-8.117-.317,2.467,2.467,0,0,0-2.952,1.676A2.42,2.42,0,0,0,119,52.854a30.751,30.751,0,0,0,9.756.452,33.317,33.317,0,0,0,9.548-3.074c5.669-2.642,10.923-6.43,14.389-11.713,1.7-2.59-2.455-5-4.145-2.422Z"/><path class="c" d="M126.226,36.621a41.238,41.238,0,0,1-6.866,7.162,33.837,33.837,0,0,1-9.482,5.548c-3.645,1.452-7.567,2.146-11.087,3.92a15.837,15.837,0,0,0-7.3,8.16,56.08,56.08,0,0,0-2.648,9.5c-.686,3.007,3.94,4.291,4.629,1.276,1.319-5.773,2.3-12.353,8.3-15.063,3.416-1.54,7.173-2.236,10.64-3.681a37.841,37.841,0,0,0,9.859-5.872,47.254,47.254,0,0,0,8.093-8.529,2.417,2.417,0,0,0-.861-3.284,2.456,2.456,0,0,0-3.284.861Z"/><path class="c" d="M116.2,97.062a25.765,25.765,0,0,0-2.507,5.822,2.478,2.478,0,0,0,.242,1.85,2.4,2.4,0,0,0,4.387-.574,23.485,23.485,0,0,1,.892-2.52l-.242.573a23.446,23.446,0,0,1,1.373-2.729,2.485,2.485,0,0,0,.242-1.849,2.4,2.4,0,0,0-4.387-.573Z"/><path class="c" d="M141.872,99.365q.748,1.124,1.426,2.291A23.465,23.465,0,0,1,144.54,104l-.242-.573c.034.081.066.162.1.244a2.594,2.594,0,0,0,1.1,1.434,2.4,2.4,0,0,0,3.284-.861,2.352,2.352,0,0,0,.241-1.849,21.078,21.078,0,0,0-1.487-3q-.719-1.252-1.519-2.453a2.55,2.55,0,0,0-1.434-1.1,2.454,2.454,0,0,0-1.85.242,2.4,2.4,0,0,0-.861,3.284Z"/><path class="c" d="M123.128,103.744a16.546,16.546,0,0,0,7.965,1.879,13.04,13.04,0,0,0,8.125-2.4,2.4,2.4,0,0,0,0-3.394,2.475,2.475,0,0,0-3.394,0c.75-.58.246-.194.054-.073q-.234.15-.482.277c-.23.12-.763.234-.087.061-.224.057-.443.169-.664.239a12.18,12.18,0,0,1-1.859.416c.352-.053.169-.024-.076,0-.182.017-.365.031-.547.042q-.66.04-1.32.032-.592-.006-1.182-.047c-.181-.013-.361-.032-.541-.047-.684-.058.48.09-.16-.018a13.874,13.874,0,0,1-1.733-.392c-.243-.073-.48-.161-.719-.244-.576-.2.443.218-.078-.031q-.444-.213-.879-.443a2.4,2.4,0,1,0-2.423,4.144Z"/><path class="c" d="M129.772,85.221a36.284,36.284,0,0,1,.844,3.934l-.085-.638a2.407,2.407,0,0,1,.012.543l.086-.638a1.3,1.3,0,0,1-.061.244l.242-.574a.924.924,0,0,1-.087.157l.376-.486a.809.809,0,0,1-.129.126l.486-.375a2.649,2.649,0,0,1-.312.164l.573-.242a2.3,2.3,0,0,1-.525.151l.638-.086a2.084,2.084,0,0,1-.493,0l.638.086c-.186-.027-.368-.072-.553-.1a1.812,1.812,0,0,0-.957-.043,1.778,1.778,0,0,0-.893.285,2.4,2.4,0,0,0-.861,3.283,2.3,2.3,0,0,0,1.435,1.1c.456.064.9.178,1.364.2a4.4,4.4,0,0,0,2.056-.492,3.043,3.043,0,0,0,1.668-2,4.87,4.87,0,0,0-.015-2.112c-.209-1.267-.5-2.523-.818-3.767a2.4,2.4,0,0,0-4.629,1.276Z"/><path class="c" d="M109.4,73.9c-.665,2.131-.256,7.039,3.784,7.473,5.341-.011,5.648-5.943,3.861-8.739C115.583,70.343,111.258,69.376,109.4,73.9Z"/><path class="c" d="M152.173,74.066c.648,2.136.2,7.041-3.841,7.443-5.341-.053-5.6-5.987-3.794-8.77C146.019,70.461,150.351,69.529,152.173,74.066Z"/><path class="c" d="M172.165,69.231a4.119,4.119,0,0,1,3.726-.79,3.691,3.691,0,0,1,1.414.652c-.134-.1.757.92.447.468,1.448,2.111,1.428,5.1,1.194,7.542a18.627,18.627,0,0,1-2.3,6.974c-1.428,2.609-3.623,5.279-6.888,4.842a2.411,2.411,0,0,0-2.4,2.4,2.461,2.461,0,0,0,2.4,2.4c7.084.947,11.422-6.743,13.214-12.447,1.6-5.08,1.606-12.947-3.247-16.324a9.083,9.083,0,0,0-10.957.889c-2.317,2.052,1.088,5.436,3.394,3.394Z"/><path class="c" d="M92.886,65.87a9.141,9.141,0,0,0-10.065-1.452,8.78,8.78,0,0,0-4.469,5.895c-1.552,5.781-.108,12.454,3.123,17.425,2.242,3.449,5.843,6.572,10.236,6.019a2.477,2.477,0,0,0,2.4-2.4,2.414,2.414,0,0,0-2.4-2.4c-3.266.411-5.435-2.3-6.841-4.912a18.573,18.573,0,0,1-2.249-7.176c-.187-2.4-.165-5.3,1.279-7.348-.317.449.593-.561.456-.457a3.7,3.7,0,0,1,1.422-.637,4.111,4.111,0,0,1,3.714.838c2.291,2.06,5.7-1.324,3.394-3.395Z"/><path class="c" d="M89.053,88.858a50.171,50.171,0,0,0,10.826,21.671c5.136,6,11.768,10.772,19.715,11.987a2.477,2.477,0,0,0,2.952-1.676,2.419,2.419,0,0,0-1.676-2.953c-7.233-1.106-12.923-5.29-17.6-10.752a45.148,45.148,0,0,1-9.592-19.553c-.672-3.014-5.3-1.739-4.628,1.276Z"/><path class="c" d="M167.713,87.582a44.99,44.99,0,0,1-8.591,18.347,34.688,34.688,0,0,1-7.207,6.991,32.226,32.226,0,0,1-8.438,4.025c-2.926.947-1.674,5.584,1.276,4.628a36.74,36.74,0,0,0,9.585-4.509,38.7,38.7,0,0,0,8.178-7.741,50.209,50.209,0,0,0,9.826-20.465c.671-3.01-3.956-4.3-4.629-1.276Z"/><path class="c" d="M83.774,311.274h95.919c3.089,0,3.094-4.8,0-4.8H83.774c-3.089,0-3.094,4.8,0,4.8Z"/><path class="c" d="M97.923,134.9c2.939-1.154,5.956-2.2,8.826-3.514a14.88,14.88,0,0,0,6.524-5.08c1.615-2.514,1.843-5.48,1.912-8.39a2.421,2.421,0,0,0-2.4-2.4,2.446,2.446,0,0,0-2.4,2.4c-.013.542-.045,1.083-.082,1.624-.021.319-.041.638-.066.956q-.021.281-.049.559-.043.461-.028.2a5.866,5.866,0,0,1-1.23,2.922c.221-.31-.245.274-.309.341a7.362,7.362,0,0,1-.633.578q.218-.155-.131.1-.206.15-.414.3-.309.213-.627.414c-.485.306-.985.588-1.5.85-.454.234-1.222.59-1.5.711-1.152.494-2.766,1.072-4.127,1.606l-3.042,1.194a2.459,2.459,0,0,0-1.676,2.953,2.426,2.426,0,0,0,2.952,1.676Z"/><path class="c" d="M147.295,117.021a22.779,22.779,0,0,0,.682,6.6,11.3,11.3,0,0,0,4.246,5.715c2.808,2.065,6.175,3.125,9.386,4.388l2.968,1.168a2.408,2.408,0,0,0,2.952-1.676,2.47,2.47,0,0,0-1.676-2.953l-3.163-1.244c-.369-.145-.737-.293-1.107-.436-.586-.225-1.176-.439-1.762-.667q-.478-.186-.954-.38l-.122-.05c-.114-.049-.227-.1-.341-.15a21.131,21.131,0,0,1-3.135-1.707,6.6,6.6,0,0,1-1.3-1.031,5.645,5.645,0,0,1-.48-.534c.232.3-.256-.42-.3-.493a6.855,6.855,0,0,1-.921-3.083c-.1-1.155-.156-2.312-.172-3.47a2.4,2.4,0,0,0-4.8,0Z"/></svg>
