<svg xmlns="http://www.w3.org/2000/svg" viewBox="0 -21.61 349.005 349.005"><defs><style>.a{fill:#fff}.c{fill:#211715}</style></defs><path d="M180.88 232.7c6.57 20.87 15.19 48.35 19.89 63.37a5.6 5.6 0 0 1-2.58 6.58l-.54.3.57-.23c12.08-5.04 51.2-22.42 58.63-25.83l-4.46-9.95s-60.61-30.4-71.51-34.24" class="a"/><path d="M151.32 127.09c-6.23 1.21-12.29-8.03-12.47-12.7-.65-17.16 2.6-30.4-.85-49.7-1.21-25.17 5-40.36 17.85-51.05a51.6 51.6 0 0 1 34.26-11.2 59 59 0 0 1 21.79 4.64 36 36 0 0 1 9.25 5.42l6.12 5.2.23.23c7.47 7.75 13.6 20.24 13.84 32.1.09 4.18.03 15.27.14 18.72.35 10.8 2.5 20.5 5.08 30.21 1.27 4.8 3.27 9.38 2.88 16.3-.2 3.55-1.63 8.09-6.1 10.37Z" style="fill:#a98a75"/><path d="M194.87 38.35a125 125 0 0 0 5.58 12.93c2.46 4.85 8.81 13.09 14.35 15.58l10.1 2.6a6.7 6.7 0 0 1 4.82-1.2 6 6 0 0 1 5.12 3.33c1.54 3.2.96 8.74-.58 12.07a17.6 17.6 0 0 1-6.42 7.99 13 13 0 0 1-6.34 1.63l-.37.92c-.76 1.7-2.59 4.7-2.59 4.7a72 72 0 0 1-2.41 3.57l.04.3a36 36 0 0 0 1.26 5.23 11.6 11.6 0 0 0 4.82 5.24 52 52 0 0 0 6.65 2.87c-11.15 10.65-26.69 20.46-42.52 21.38-4.93.29-10.02-.19-14.47-2.34s-8.18-6.15-9.11-11v-5.93a39 39 0 0 1-6.43-4.1c-7.56-5.85-11.04-15.32-12.48-25.84-.86-6.29-1.65-13.14-2.75-19.95a53 53 0 0 0 3-2.25c7.3-5.71 15.1-12.75 22.21-19.4-.2 2.98-.52 5.84-1 8.83a1.02 1.02 0 0 0 1.32 1.14c11.16-3.8 21.43-10.31 28.1-18.55" class="a"/><path d="M225.57 19.4c5.43 5.27 9.33 12.54 11.53 19.73a41 41 0 0 1 1.85 11.19q.06 4.17.05 8.34a157 157 0 0 0 .96 20.4 163 163 0 0 0 5.43 24.46c1.88 6.38 3.93 16.2-3.25 20.04-2.73 1.45-.3 5.6 2.42 4.14 7.4-3.94 8.1-12.8 6.76-20.2-.65-3.63-1.91-7.13-2.84-10.7a176 176 0 0 1-3.02-13.4 128 128 0 0 1-1.65-22.25c-.02-6.92.3-13.9-1.36-20.69-2.18-8.9-6.86-18.03-13.48-24.45-2.22-2.15-5.62 1.24-3.4 3.4Zm-3.21-8.97C210.45 1.4 194.03-1.53 179.43.73a51.7 51.7 0 0 0-30.9 16.67c-7.85 8.98-11.53 20.3-12.66 32.03a99 99 0 0 0-.41 10.7 40 40 0 0 0 .4 6.17q.52 3.06.83 6.15a150 150 0 0 1 .18 22.47c-.17 3.6-.37 7.21-.45 10.82-.09 3.42-.4 7.15.28 10.52 1.1 5.36 5.52 11.22 10.83 12.92a9 9 0 0 0 4.44.22 2.4 2.4 0 0 0 1.67-2.95 2.46 2.46 0 0 0-2.95-1.67 4.7 4.7 0 0 1-2.5-.48 10 10 0 0 1-2.8-2.1 16 16 0 0 1-3.76-6.1l-.22-.76c-.03-.13-.15-.8-.13-.62l-.03-.55-.04-1.52q-.07-2.62-.03-5.26c.05-3.43.22-6.86.39-10.29a183 183 0 0 0 .21-21.09q-.18-2.81-.52-5.61c-.25-2.05-.7-4.1-.88-6.16a81 81 0 0 1 0-10.61c.53-10.88 3.11-21.68 9.68-30.53a46 46 0 0 1 25.52-16.68 55 55 0 0 1 21.32-1.03 50 50 0 0 1 18.02 5.78 49 49 0 0 1 5.02 3.4 2.4 2.4 0 0 0 3.29-.86 2.46 2.46 0 0 0-.86-3.28Zm-12.38 102.43a58 58 0 0 0 8.78-9.96 47 47 0 0 0 4.45-7.48 2.47 2.47 0 0 0-.87-3.29 2.4 2.4 0 0 0-3.28.86 47 47 0 0 1-4.28 7.26 53 53 0 0 1-8.2 9.22 2.4 2.4 0 0 0 3.4 3.39" class="c"/><path d="M198.48 114c-10.24 5.04-22.46 7.7-33.27 2.74a30 30 0 0 1-12.65-10.18 41 41 0 0 1-5.77-15.32c-1.44-7.55-2.03-15.27-3.23-22.86a2.4 2.4 0 0 0-2.95-1.68 2.46 2.46 0 0 0-1.68 2.95c1.14 7.2 1.79 14.49 3.01 21.68a46 46 0 0 0 6.08 17.04c6.64 10.46 19.34 16.33 31.56 15.77 7.53-.34 14.6-2.7 21.32-6a2.4 2.4 0 0 0 .86-3.28 2.45 2.45 0 0 0-3.28-.86m27.64-42.47a4.8 4.8 0 0 1 4.46-.64 4 4 0 0 1 1.42.82c.08.07.52.57.21.18a5 5 0 0 1 .4.63c1.34 2.48.79 6.22-.03 8.84a16 16 0 0 1-4.82 7.39c-1.89 1.58-5.37 2.94-7.92 1.85a2.5 2.5 0 0 0-3.28.86 2.4 2.4 0 0 0 .86 3.29 13.2 13.2 0 0 0 10.76-.57c3.1-1.44 5.56-4.4 7.17-7.33a22 22 0 0 0 2.77-9.64c.14-3.08-.4-6.53-2.64-8.8a9.55 9.55 0 0 0-11.8-1.02 2.47 2.47 0 0 0-.85 3.28 2.4 2.4 0 0 0 3.28.86Zm-31.88 2.06c.74 2.11.5 7.04-3.53 7.6-5.34.17-5.85-5.75-4.16-8.6 1.39-2.34 5.68-3.46 7.7 1" class="c"/><path d="M162.07 73.88c.68 2.05.48 6.83-3.21 7.37-4.9.14-5.4-5.6-3.85-8.37 1.27-2.27 5.2-3.33 7.06 1m8.17 9.53a46 46 0 0 0-2.03 4.22l.24-.58a5 5 0 0 0-.6 2.17 3.1 3.1 0 0 0 1.15 2.46 4.4 4.4 0 0 0 1.93 1c.47.1.93.1 1.4.15a2.4 2.4 0 0 0 1.7-.7 2.4 2.4 0 0 0 0-3.39 2.8 2.8 0 0 0-1.7-.7l-.7-.05.64.08a2 2 0 0 1-.47-.13l.57.24a3 3 0 0 1-.46-.27l.49.38-.3-.27.37.49-.08-.13.24.58-.06-.22.08.64v-.31l-.08.64a3 3 0 0 1 .2-.65l-.24.57.35-.83-.24.57a42 42 0 0 1 1.75-3.54 2.5 2.5 0 0 0 .24-1.84 2.4 2.4 0 0 0-4.39-.58m22.32-44.42c2.13 5.9 4.54 12.05 8.08 17.28 3.27 4.84 7.53 10.14 12.94 12.66a2.47 2.47 0 0 0 3.29-.86 2.4 2.4 0 0 0-.86-3.28c-4.8-2.24-8.55-6.91-11.42-11.22-3.2-4.83-5.45-10.43-7.4-15.85a2.46 2.46 0 0 0-2.96-1.68 2.4 2.4 0 0 0-1.67 2.95" class="c"/><path d="M193.07 36.4a52 52 0 0 1-12.05 10.68 68 68 0 0 1-7.4 4.16q-1.8.88-3.65 1.63a22 22 0 0 1-4.24 1.52H167q.69 2.13.78 1.05l.07-.46.16-1.17a115 115 0 0 0 .75-7.13c.15-2.18-2.68-3.02-4.1-1.7a486 486 0 0 1-12.98 11.75A117 117 0 0 1 139.1 66.8c-2.58 1.68-.18 5.83 2.42 4.14a124 124 0 0 0 13.2-10.51q6.78-5.9 13.33-12.05l-4.1-1.7a92 92 0 0 1-.7 6.78c-.19 1.31-.56 2.62.1 3.86a3.4 3.4 0 0 0 2.37 1.7 6 6 0 0 0 3.18-.62q1.58-.58 3.13-1.23 2.9-1.2 5.7-2.63a59 59 0 0 0 18.73-14.74 2.47 2.47 0 0 0 0-3.4 2.4 2.4 0 0 0-3.4 0Zm20.78 67a44 44 0 0 0 .96 4.38 12.5 12.5 0 0 0 3.31 5.32 17 17 0 0 0 5.28 3.37q3.22 1.39 6.51 2.57a2.4 2.4 0 0 0 2.95-1.68 2.46 2.46 0 0 0-1.67-2.95l-2.91-1.09q-.7-.26-1.38-.54l-.67-.28-.3-.13a27 27 0 0 1-2.47-1.2 13 13 0 0 1-1.14-.74c.36.26-.15-.13-.22-.18q-.3-.26-.59-.54a11 11 0 0 1-.98-1.1c.24.32-.11-.17-.16-.24q-.19-.28-.36-.58t-.32-.6l-.2-.4.16.37a4 4 0 0 0-.27-.9 48 48 0 0 1-.9-4.14 2.4 2.4 0 0 0-2.95-1.67 2.47 2.47 0 0 0-1.68 2.95m-41.73.94.26-.13c.35-.17-.14.06-.14.06a4 4 0 0 1 .6-.21 12 12 0 0 1 1.42-.35l.35-.06c.34-.07-.45.04-.1 0l.73-.06a15 15 0 0 1 1.55-.03q.37 0 .73.04.17 0 .35.03c.35.03-.01.05-.11-.02a3 3 0 0 0 .67.13q.33.06.64.16l.6.2.25.1c-.27-.12.13.05.18.07a17 17 0 0 1 1.61.85 2.4 2.4 0 1 0 2.43-4.14 15 15 0 0 0-7.34-2.22 15 15 0 0 0-7.1 1.44 2.4 2.4 0 0 0-.86 3.28 2.46 2.46 0 0 0 3.28.86m28.14-40.05-.55-.05.64.08a6 6 0 0 1-1.48-.4l.57.24a6 6 0 0 1-1.39-.8l.49.37a6 6 0 0 1-1.05-1.03 2.4 2.4 0 0 0-1.7-.7 2.4 2.4 0 0 0-1.7.7 2.4 2.4 0 0 0-.7 1.7l.09.64a2.4 2.4 0 0 0 .62 1.06 6 6 0 0 0 .93.94 9 9 0 0 0 1.57 1.08 9 9 0 0 0 3.66.97 2.4 2.4 0 0 0 1.7-4.1 2.6 2.6 0 0 0-1.7-.7" class="c"/><path d="M285.58 191.32c-1.07-4.33-2.22-8.5-3.34-12.65-2.22-8.23-7.7-29.2-15.55-40.55-8.95-12.91-21.6-17.66-37.55-22.23-11.17 10.73-26.81 20.68-42.76 21.6-4.93.3-10.02-.19-14.47-2.33s-8.18-6.16-9.11-11c0 0-.33-1.74-.85-4.24q-.8.27-1.15.43c-7.55 2.6-15.9 6.6-20 11.38-6.28 7.29-9.55 17.24-10.9 23.74-1.03 5.1-6.21 25.2-8.42 38.97a26 26 0 0 0 .77 12.79l.27.64c18.2.08 34.55.15 44.2.21a8.8 8.8 0 0 1 8.33 6.14c3.01 9.52 7.92 25.11 12.85 40.82 3.13-4 5.96-8.43 9.82-11.82a18.3 18.3 0 0 1 10.24-4.81 25 25 0 0 1 4.74.16q4.51.46 8.99 1.18c5.42.86 11.49 1.87 15.83-1.8 6.67 5.9 12.61 18.63 14.87 28.99 7.88-2.97 19.9-8.28 27.66-14.52a28.8 28.8 0 0 0 10-14.86c.87-2.78 1.4-9.66 1.3-12.73-.1-3.83-1.82-14.2-2.75-19.29-.86-5.01-1.9-9.7-3.02-14.22" style="fill:#f8b8b4"/><path d="M227.95 271.39c-4.15 3.34-7.3 7.87-11.6 12.35-.61.64-3.14 2.33-5.1.83-1.28-1-1.46-3.48-1-4.5 2.54-5.52 3.57-7.2 5.45-11.06-2.29 2.4-4.08 4.43-6.79 7.17l-2.76 2.8-8.15 8.24c-2.9-9.27-6.5-20.76-10.1-32.18 3.13-4 5.97-8.43 9.83-11.82a18.3 18.3 0 0 1 10.23-4.81 25 25 0 0 1 4.75.16q4.5.46 8.98 1.18c5.42.86 11.5 1.87 15.84-1.8 5.62 4.98 10.72 14.8 13.54 23.96a22 22 0 0 0-2.92 1.7c-.62.42-2.64 2.21-3.31 2.57a46 46 0 0 1-16.55 5.12" class="a"/><path d="M288.13 248.02q9.89 0 19.77-.03l31.03-.04h7.76c3.09 0 3.1-4.8 0-4.8l-20.28.02-30.88.04h-7.4c-3.09 0-3.1 4.8 0 4.8m-285.81 0q17.78 0 35.55-.07h5.63c3.1 0 3.1-4.8 0-4.8q-17.98.01-35.96.07H2.32c-3.09 0-3.1 4.8 0 4.8m234.65-15.6c4.92-2.1 9.66-4.53 14.47-6.86a2.4 2.4 0 0 0 .86-3.29 2.46 2.46 0 0 0-3.28-.86c-4.81 2.33-9.55 4.77-14.47 6.86a2.4 2.4 0 0 0-.87 3.28 2.5 2.5 0 0 0 3.29.86m-1.59 4.16c-3.4 2.17-7.64 1.69-11.45 1.1-4.71-.72-9.53-1.66-14.32-1.72-9.74-.14-16.14 7.63-21.44 14.76a2.4 2.4 0 0 0 .86 3.29 2.46 2.46 0 0 0 3.28-.86c2.5-3.37 5.1-6.93 8.56-9.39a17 17 0 0 1 5.3-2.6 18 18 0 0 1 6.3-.2c4.45.43 8.84 1.27 13.28 1.78 4.13.48 8.46.28 12.06-2.02 2.6-1.65.19-5.8-2.43-4.14m-37.05 17.47-7.34 7.28a2.4 2.4 0 0 0 3.4 3.4l7.33-7.29a2.4 2.4 0 0 0-3.4-3.39m.68 20.88c3.7-4.32 7.75-8.35 11.8-12.35a2.4 2.4 0 0 0-3.4-3.39c-4.05 4-8.1 8.02-11.8 12.35a2.4 2.4 0 0 0 3.4 3.4m5.36 9.25c2.72-2.75 5.48-5.48 8.16-8.29 2.36-2.48 4.65-5.02 7.06-7.46a2.4 2.4 0 1 0-3.4-3.4c-2.4 2.45-4.7 4.99-7.06 7.47-2.67 2.8-5.44 5.53-8.16 8.29a2.4 2.4 0 0 0 3.4 3.39m23.91-10.48a52 52 0 0 0 14.25-3.74 22 22 0 0 0 5.34-3.07l.98-.8.49-.4c.3-.25-.27.19-.04.03a26 26 0 0 1 2.99-1.75 2.4 2.4 0 1 0-2.43-4.14 25 25 0 0 0-4.61 3.03 17 17 0 0 1-1.43 1.13 22 22 0 0 1-2.93 1.48 44 44 0 0 1-12.6 3.43 2.5 2.5 0 0 0-2.4 2.4 2.4 2.4 0 0 0 2.4 2.4Z" class="c"/><path d="M234.95 238.92c3.87 2.89 6.68 7.51 8.92 11.77a69 69 0 0 1 6 16c.72 3 5.35 1.73 4.63-1.28a73 73 0 0 0-6.68-17.5c-2.64-4.94-5.92-9.75-10.45-13.13a2.4 2.4 0 0 0-3.29.86 2.46 2.46 0 0 0 .86 3.28Zm-22.05 30.34c-.98 1.95-2 3.9-2.96 5.86a41 41 0 0 0-2.03 4.38 7 7 0 0 0-.04 3.9 5.48 5.48 0 0 0 7.5 3.71c2.89-1.14 4.79-3.93 6.75-6.2a61 61 0 0 1 7.53-7.82 2.4 2.4 0 0 0 0-3.4 2.46 2.46 0 0 0-3.4 0c-4.42 3.6-7.64 8.36-11.63 12.4-.06.06-.4.32-.13.13.29-.21-.32.18-.38.22-.11.06-.57.27-.22.13-.14.05-.71.22-.58.2a.6.6 0 0 1-.61-.1c.23.13-.14-.24.08.1l-.21-.38c.1.22.04.15 0-.04l-.16-.65c.08.46.02-.17.01-.32l.01-.3c0 .05-.12.4-.02.18l.05-.25c.12-.35-.1.21.08-.18q.79-1.7 1.6-3.38c.94-1.94 1.94-3.84 2.9-5.76a2.46 2.46 0 0 0-.86-3.28 2.4 2.4 0 0 0-3.28.86Zm-14.04 35.78c7.83-3.27 15.6-6.7 23.36-10.12Q235.67 289 249.08 283q4.5-2 8.98-4.05a2.4 2.4 0 0 0 .86-3.28 2.46 2.46 0 0 0-3.28-.86 2592 2592 0 0 1-47.24 20.94q-3.17 1.39-6.35 2.75l-2.66 1.14-.76.32-1.05.44a2.5 2.5 0 0 0-1.67 2.95 2.4 2.4 0 0 0 2.95 1.68" class="c"/><path d="M40.55 207.24c30.79.51 101.07.67 126.17.84a8.8 8.8 0 0 1 8.33 6.14c5.97 18.89 19.4 61.64 25.72 81.86a5.63 5.63 0 0 1-5.4 7.31c-27.2-.1-100.47-.36-128.64-.93a5.6 5.6 0 0 1-5.26-3.96c-5.56-17.96-19.82-63.23-26.4-83.91a5.64 5.64 0 0 1 5.48-7.35" class="a"/><path d="M40.55 209.64c14.38.24 28.76.33 43.14.43q25.2.16 50.4.25l21.2.1 8.28.05c3.07.01 6.22-.17 8.25 2.62a15 15 0 0 1 1.76 4.44l1.41 4.48 3.37 10.7 7.81 24.84 7.69 24.5 3.23 10.32c.78 2.48 3.06 6.79-.32 8.33-1.14.52-2.6.3-3.83.29l-3.98-.02-9.17-.03-21.92-.1q-24.94-.1-49.88-.3c-13.5-.1-26.99-.2-40.48-.46-1.5-.03-2.92-.39-3.61-1.89a32 32 0 0 1-1.2-3.82l-2.9-9.3q-3.63-11.62-7.29-23.23-7.17-22.82-14.4-45.62c-.42-1.33-1.2-2.86-.77-4.24a3.3 3.3 0 0 1 3.21-2.33c3.09-.04 3.1-4.84 0-4.8a8.14 8.14 0 0 0-7.95 9.71 47 47 0 0 0 1.42 4.62l1.57 4.96 7.5 23.71q7.4 23.5 14.74 47.01c1.1 3.55 1.85 7.47 5.56 9.21 2.8 1.32 6.54.86 9.6.9q10.26.17 20.53.25 25.37.25 50.74.36 22.46.11 44.93.2h4.05a13 13 0 0 0 5.08-.55 8.1 8.1 0 0 0 4.78-5.2c.65-2.15.12-4.16-.53-6.22l-6.94-22.16q-7.82-24.93-15.68-49.86c-1-3.21-1.78-6.72-3.21-9.78-2.03-4.32-6.35-6.3-10.93-6.34q-8.97-.06-17.94-.09l-49.8-.23c-16.19-.1-32.38-.19-48.57-.38l-8.95-.13c-3.09-.05-3.09 4.75 0 4.8" class="c"/><path d="M124.56 206.59c-2.39-6.56-.47-13.79.85-20.37a636 636 0 0 1 4.6-20.55c1.1-4.68 2-9.47 3.33-14.1 1.94-6.77 5-14.07 10.06-19.12a37 37 0 0 1 10.33-6.69 87 87 0 0 1 12.12-4.54c2.95-.9 1.7-5.53-1.27-4.63-7.75 2.34-15.7 5.35-22.14 10.35-6.19 4.81-9.99 12.4-12.55 19.66-1.75 4.97-2.71 10.17-3.92 15.3a784 784 0 0 0-4.73 20.81c-.87 4.2-1.76 8.43-2.3 12.69a27 27 0 0 0 1 12.46 2.46 2.46 0 0 0 2.95 1.68 2.4 2.4 0 0 0 1.67-2.95m105.49-87.94c12.33 3.6 24.6 8.16 32.92 18.46 3.82 4.74 6.47 10.43 8.7 16.05a192 192 0 0 1 5.97 17.86 357 357 0 0 1 9.32 38.98c1.77 10.44 3.9 22-1.21 31.9-3.24 6.26-8.95 10.37-14.91 13.83a127 127 0 0 1-18.05 8.5q-1.8.7-3.63 1.34a2.46 2.46 0 0 0-1.68 2.96 2.4 2.4 0 0 0 2.95 1.67 149 149 0 0 0 18.13-7.77c6.56-3.36 13.42-7.34 18.08-13.18a32 32 0 0 0 5.02-8.98 34 34 0 0 0 1.77-8.61 46 46 0 0 0 .25-8.06c-.23-2.99-.69-5.96-1.14-8.92a266 266 0 0 0-4-21.3c-1.56-6.63-3.38-13.2-5.19-19.77a234 234 0 0 0-5.49-17.6 88 88 0 0 0-8.41-18.07 47 47 0 0 0-14.28-14.13 79 79 0 0 0-18.6-8.2q-2.62-.82-5.25-1.6c-2.97-.87-4.24 3.77-1.28 4.63Z" class="c"/><path d="M160.49 124.79a18.3 18.3 0 0 0 8.58 11.55c4.75 2.9 10.52 3.77 16 3.61 10.94-.3 21.46-4.58 30.6-10.4a98 98 0 0 0 14.42-11.25c2.26-2.12-1.14-5.5-3.4-3.4a83 83 0 0 1-24.28 16.26 50 50 0 0 1-13.97 3.77c-4.83.51-9.95.4-14.5-1.48-4.3-1.76-7.87-5.3-8.83-9.93-.63-3.03-5.26-1.75-4.63 1.27Z" class="c"/><path d="M176.62 146a6 6 0 0 0-1.58-.98l.92-2.31a4.8 4.8 0 0 0-1.03-4.44 5 5 0 0 0-3.43-1.39l1-2.07a5.4 5.4 0 0 0 0-3.74 5 5 0 0 0-1.2-1.64 6 6 0 0 0-3.09-.4 52 52 0 0 0-12.7 2.7 29 29 0 0 1 1.51-3.12 8.5 8.5 0 0 1 3.51-2.78c2.5-1.4 5.04-2.9 7.42-4.47a3.1 3.1 0 0 0 1-4.43 3.3 3.3 0 0 0-2.35-1.71c-2.2-.53-5 .33-7.51 1.33-2.48.99-6.16 2.33-8.16 4.2-2.39 2.23-3.33 5.22-4.43 8.14-.6 1.6-1.9 6.18-2.43 7.83l-.65 3.84a8 8 0 0 0 .14 3.27l4.79 18.57a66 66 0 0 1 1.65 7.74l.04 2.59a694 694 0 0 1 19.19 2.19c.17-.92.29-1.63.3-1.77.18-1.4.33-3.72.39-5.11.07-1.8.06-4.67.05-7.46l.36.43a3.53 3.53 0 0 0 4.76 2.26 5 5 0 0 0 2.35-3.13 19 19 0 0 0 .56-4.18c.1-2.4.09-4.07.1-6.62a4.3 4.3 0 0 0-1.48-3.34" class="a"/><path d="M146.39 137.36c.83-2.6 1.5-5.26 2.43-7.83 1.19-3.25 2.35-6.44 5.5-8.25a37 37 0 0 1 4.79-2.17 18 18 0 0 1 5.74-1.64c.89-.03 2.63.31 2.22 1.5a5 5 0 0 1-1.09.82q-1.34.86-2.71 1.69c-2 1.2-4.18 2.2-6.06 3.56-1.93 1.41-2.82 3.36-3.77 5.5a2.5 2.5 0 0 0 .86 3.28 2.4 2.4 0 0 0 3.28-.86c.41-.93.81-1.85 1.3-2.74a5 5 0 0 1 2.2-1.95 165 165 0 0 0 6.56-3.85c2.1-1.33 4.1-2.74 4.23-5.46a6.2 6.2 0 0 0-3.07-5.45c-4.28-2.4-9.92.47-13.93 2.19a20 20 0 0 0-5.51 3.25 16 16 0 0 0-3.8 5.75c-1.56 3.7-2.59 7.56-3.8 11.39-.94 2.95 3.7 4.21 4.63 1.27M143 174.44c8.72.81 17.93 1.76 26.28 2.89 2.13.28 4.25.58 6.36 1l-1.77-2.3a235 235 0 0 1-3.31 28.1 2.47 2.47 0 0 0 1.67 2.96 2.4 2.4 0 0 0 2.95-1.68 246 246 0 0 0 3.5-29.39 2.4 2.4 0 0 0-1.77-2.31c-4.4-.9-8.91-1.37-13.37-1.9q-7.65-.9-15.31-1.66l-5.23-.51a2.4 2.4 0 0 0-2.4 2.4 2.45 2.45 0 0 0 2.4 2.4" class="c"/><path d="M148.53 137.72a46 46 0 0 1 13.68-5.37 34 34 0 0 1 6.8-.95 10 10 0 0 0 1.22.14c-.26.06-.25-.3-.32-.14a6 6 0 0 0 .37.6 3 3 0 0 1-.1 2.18 2.4 2.4 0 0 0 1.68 2.95 2.46 2.46 0 0 0 2.95-1.68c1.06-2.6.21-6.55-2.3-8.09-2.44-1.5-6.13-.56-8.75-.15a50 50 0 0 0-17.65 6.37c-2.66 1.56-.25 5.7 2.42 4.14" class="c"/><path d="M155.87 142.69a55 55 0 0 1 12.59-3.2c1.28-.2 3.07-.45 4.15.03a1.7 1.7 0 0 1 .88.84c.1.2.25.8.25.79a1.2 1.2 0 0 1-.1.92 2.4 2.4 0 0 0 4.63 1.28 7.1 7.1 0 0 0-1.65-6.77 8.3 8.3 0 0 0-6.68-2.08 61 61 0 0 0-7.6 1.24 42 42 0 0 0-7.75 2.32 2.5 2.5 0 0 0-1.68 2.95 2.4 2.4 0 0 0 2.95 1.68Z" class="c"/><path d="M158.97 149.48q5.1-1.13 10.24-2.05a14 14 0 0 1 4.02-.46 3.6 3.6 0 0 1 1.69.73 1.6 1.6 0 0 1 .6 1 18 18 0 0 1 .16 4.44 41 41 0 0 1-.22 4.77 5.3 5.3 0 0 1-1.1 3c-.43.35-.7.29-1.21.12a1.4 1.4 0 0 1-.51-.65 2.47 2.47 0 0 0-2.95-1.68 2.4 2.4 0 0 0-1.68 2.95 6.2 6.2 0 0 0 3.6 3.92 5.7 5.7 0 0 0 5.4-.69c3.02-2.23 3.3-6.2 3.42-9.66q.1-2.62.06-5.25a8.5 8.5 0 0 0-1.28-4.6 7.8 7.8 0 0 0-4.42-2.96 13 13 0 0 0-5.46.15q-5.85 1-11.65 2.3a2.4 2.4 0 0 0 1.28 4.62Z" class="c"/><path d="M171.62 175.15a52 52 0 0 0 .76-10.52c0-3.36-.06-6.71-.02-10.07.03-3.09-4.77-3.09-4.8 0-.04 3.27.02 6.53.02 9.8a48 48 0 0 1-.59 9.52 2.46 2.46 0 0 0 1.68 2.95 2.4 2.4 0 0 0 2.95-1.68m-25.51-41.58a10.7 10.7 0 0 0-5 6.77c-.59 3.37.88 6.97 1.71 10.2l2.6 10.14a90 90 0 0 1 2.26 10.1 2.4 2.4 0 0 0 2.96 1.68 2.46 2.46 0 0 0 1.67-2.95c-.83-6.05-2.74-11.99-4.26-17.89-.74-2.88-1.76-5.82-2.22-8.76a5.1 5.1 0 0 1 2.7-5.14c2.6-1.65.2-5.8-2.42-4.15m94.04 53.62 7.32 26.79c.81 2.98 5.44 1.71 4.63-1.28l-7.32-26.78c-.81-2.98-5.45-1.72-4.63 1.27m48.7-92.38c3.16.92 6.73 1.78 9.97.65a8.5 8.5 0 0 0 5.57-5.94c1.45-6.75-7.27-10.06-12.47-10.85-1.43-.22-3.04-.51-4.4.18a3.6 3.6 0 0 0-1.9 4.18c.87 3.11 4.67 4.32 7.37 5.25 5.1 1.76 11.37 2.8 16.39.21a8.2 8.2 0 0 0 4.32-5.48 9.7 9.7 0 0 0-3.13-8.75c-2.2-2.1-5.02-3.44-7.73-4.78a46 46 0 0 0-7.88-3.18 29 29 0 0 0-7.94-1.02c-2.87.01-7.37.07-7.5 3.96-.12 3.17 2.96 4.96 5.37 6.26a64 64 0 0 0 7.7 3.55 61 61 0 0 0 16.32 3.4 14.4 14.4 0 0 0 8.31-1.34 8.7 8.7 0 0 0 4.63-6.98c.34-5.77-5.73-10.1-10.1-12.64a75 75 0 0 0-16.58-7.06c-4.27-1.23-10.25-2.7-14.35-.19-1.65 1-3.05 2.95-2.5 4.95a6.4 6.4 0 0 0 2.64 3.27c2.83 2.05 6.4 3.2 9.7 4.27a130 130 0 0 0 13.87 3.53 136 136 0 0 0 14.37 2.22c4.65.44 10.84-2.32 11.64-7.4.4-2.58-1.01-4.87-2.58-6.8a25 25 0 0 0-5.65-5.03 60 60 0 0 0-8.35-4.3 70 70 0 0 0-9.1-3.45 48 48 0 0 0-8.91-1.7 2.4 2.4 0 0 0-2.4 2.4 2.45 2.45 0 0 0 2.4 2.4 48 48 0 0 1 14.11 3.85c4.2 1.78 8.79 3.72 12.2 6.81a13 13 0 0 1 3.44 4.27 4 4 0 0 0 .16.65c-.08-.22 0-.03-.06.2a3.3 3.3 0 0 1-1.13 1.66c-2.67 2.28-6.1 1.67-9.28 1.24a138 138 0 0 1-23.02-5.04 37 37 0 0 1-7.77-3.14q-.37-.2-.72-.44c-.07-.05-.67-.48-.38-.25s-.25-.22-.33-.3-.5-.59-.25-.24c.26.36-.07-.13-.11-.24 0 0 .22.62.13.3-.06-.22.05-.24.04.35 0-.3-.04-.43-.16.63a2 2 0 0 1 .21-.37l.2-.15a3.5 3.5 0 0 1 1.44-.5 12 12 0 0 1 2.28-.1 27 27 0 0 1 5.98 1.01 71 71 0 0 1 13.34 5.22c3.56 1.77 7.55 3.86 9.8 7.27 1.08 1.63 1.42 3.37-.13 4.87a7 7 0 0 1-4.67 1.64 48 48 0 0 1-13.22-2A54 54 0 0 1 286 70.63a7 7 0 0 1-1.05-.66l-.64-.68v.04a1.3 1.3 0 0 1-.46.9c.04.03.15-.03.18-.01.33.2 1.78-.12 2.17-.13a25 25 0 0 1 6.12.5 44 44 0 0 1 12.11 5.12c1.88 1.07 3.82 2.42 4.48 4.6a3.1 3.1 0 0 1-1.17 3.6c-3.12 2.22-7.86 1.33-11.28.41a32 32 0 0 1-3.47-1.14q-.77-.3-1.51-.66c-.07-.04-1.3-.86-1.28-.87-.1.02-.15 1.12-.28 1.28-.51.65-.76.17-.23.29.44.1.94.08 1.39.15a21 21 0 0 1 3.75.99c1.51.54 4.35 1.57 4.86 3.31.45 1.5-1.23 2.86-2.48 3.28-2.27.75-4.9-.13-7.08-.77-2.97-.87-4.24 3.76-1.28 4.63" class="c"/></svg>
