<svg xmlns="http://www.w3.org/2000/svg" viewBox="-135.01 0 410.357 410.357"><defs><style>.a{fill:#fff}.b{fill:#211715}.c{fill:#7a7473}</style></defs><path d="M129.13 148.01c.3 6.53.63 13.36 1.15 19.54.73 9.33 3.4 30.42 5.3 41.56a3.5 3.5 0 0 1-2.23 3.84 438 438 0 0 1-20.6 7.02l-1.47.46c.2-8.21.17-15.72-.16-25.5l-1.1-5.54h-69.6c-2.34-1.22-2.53-4.07-2.2-7.1a110 110 0 0 0 .7-15.61l-2.17 1.21a21.3 21.3 0 0 1-12.09 1.9c-6.61-.7-12.17-6.1-14.18-12.44a42 42 0 0 1-1.48-9c-1.08-11.7-1.08-17.49-1.7-25.5l16.9-17.32a18.5 18.5 0 0 1 8.6-6.65c4.48-1.63 16.58-4.81 21.45-6.2 5.03 5.56 13.48 7.44 20.08 7.44 7.88 0 16.89-2.2 19.12-7.45 8.9 3.26 21 8.3 25.2 12.66 5.44 5.68 7.15 10.85 8.53 16.73 1.05 4.48 1.44 14.76 1.95 25.95" class="a"/><path d="M102.04 47.94a4.3 4.3 0 0 1 3.14-1.15 4 4 0 0 1 3.62 2.01c1.23 2.13 1.18 6.06.35 8.5a13 13 0 0 1-3.85 6.24 4.8 4.8 0 0 1-3.69 1.06l-.35-.06A28 28 0 0 1 99.99 68c-.94 2.55-6.13 11.48-12.69 14.96q.15 1.88.48 3.76c.34 1.96.24 3.71 2.97 4.7l3.4 1.6-2.9 2.52c-4.34 3.84-11.39 4.59-16.93 4.59-5.23 0-11.61-1.18-16.54-4.43l-2.86-2.43 4-1.85c2.74-.99 2.62-2.74 2.98-4.7.2-1.14.35-2.18.44-3.28a24.4 24.4 0 0 1-8.85-7.07 33 33 0 0 1-6.26-11.82 4.7 4.7 0 0 1-4-1 13 13 0 0 1-3.84-6.24c-.83-2.44-.88-6.37.35-8.5a4 4 0 0 1 3.62-2 4.3 4.3 0 0 1 3.14 1.14s-5.44-28.4 27.77-28.4 27.77 28.4 27.77 28.4m29.18 169.68-1.47-3.35c-4.19 1.5-8.48 2.95-12.57 4.28a195 195 0 0 0 1.28 20.8 3.6 3.6 0 0 0 1.33 2.26 3 3 0 0 0 2.27.44c1.57-.2 3.69-2.24 4.5-4.88l.07-.2a84 84 0 0 0 3.43 5.78 10 10 0 0 0 2.52 2.98 3.7 3.7 0 0 0 3.7.51c1.75-.87 2.09-2.45 2.03-4.4-.23-7.39-3.79-16.6-7.1-24.22" class="a"/><path d="M128.02 215.28c3.38 7.63 7.05 15.65 8.1 24.01.15 1.26.69 3.66-.2 4.76-1.2 1.53-3.05-.66-3.7-1.64a76 76 0 0 1-5.92-10.64 2 2 0 0 0-2.73-.72 2.05 2.05 0 0 0-.72 2.73 82 82 0 0 0 5.22 9.58c1.1 1.72 2.29 3.58 4.18 4.5a5.5 5.5 0 0 0 5.83-.4c3.06-2.3 2.3-6.73 1.78-10.01a63 63 0 0 0-3.21-11.65 194 194 0 0 0-5.18-12.53 2 2 0 0 0-2.73-.72 2.05 2.05 0 0 0-.72 2.74Z" class="b"/><path d="M115.18 218.54a183 183 0 0 0 1.08 19.2c.19 1.66.32 3.22 1.42 4.58a4.8 4.8 0 0 0 4.38 1.73c3.25-.33 5.48-3.49 6.44-6.34.82-2.45-3.04-3.5-3.86-1.07-.36 1.08-2.1 4.3-3.65 3.38-.69-.4-.65-1.6-.73-2.28q-.23-1.95-.38-3.89-.64-7.64-.7-15.3c-.03-2.58-4.03-2.59-4 0Z" class="b"/><path d="M62.71 398.05c2.83-1.97 5.33-3.7 6.13-4.2 5.14-3.21 4.57-7.58 4.46-10.58a97 97 0 0 0-.4-5.83c-.72.85-1.43 1.73-1.43 1.73a96 96 0 0 1-13.51 11.03 10.9 10.9 0 0 1-9.64 1.28c-2.97-1.08-5.61-3.27-5.23-6.9l.26-2.53-.49.5c-3.33 3.42-7 6.79-10.34 10.1-2.17 2.16-3.86 5.02-3.79 8.17.05 2.15 1.56 4 3.32 5.23a13.4 13.4 0 0 0 6.03 2.12 22.8 22.8 0 0 0 14.17-2.9c.79-.45 6.03-4.13 10.46-7.22" class="c"/><path d="M76.46 309.26h-2.2c-6.77.14-16.94.27-24.24.26 1.21 19.8 2.43 39.06 2.84 56.5a14.3 14.3 0 0 1-2.73 7.84 58 58 0 0 1-6.78 8.19l-.26 2.53c-.38 3.63 2.26 5.81 5.23 6.9a10.9 10.9 0 0 0 9.64-1.28 96 96 0 0 0 13.51-11.03s.53-.65 1.13-1.38h3.54l1.3 1.38a96 96 0 0 0 13.5 11.03 10.9 10.9 0 0 0 9.65 1.28c2.97-1.08 5.6-3.26 5.23-6.9l-.26-2.53a58 58 0 0 1-6.78-8.2 14.3 14.3 0 0 1-2.73-7.83c.41-17.59 1.65-37.03 2.87-57-7.35.2-14.1.24-22.46.24" class="a"/><path d="M86.2 398.05c-2.83-1.97-5.33-3.7-6.13-4.2-5.14-3.21-4.57-7.58-4.46-10.58a55 55 0 0 1 .53-5.48l1.3 1.38a96 96 0 0 0 13.5 11.03 10.9 10.9 0 0 0 9.65 1.28c2.97-1.08 5.6-3.26 5.23-6.9l-.26-2.53.48.5c3.34 3.42 7 6.79 10.34 10.1 2.17 2.16 3.87 5.02 3.8 8.17-.06 2.15-1.57 4-3.33 5.23a13.4 13.4 0 0 1-6.02 2.12 22.8 22.8 0 0 1-14.18-2.9c-.78-.45-6.02-4.13-10.45-7.22" class="c"/><path d="M87.21 396.33q-2.77-1.96-5.6-3.86a8.4 8.4 0 0 1-3.55-3.7 10 10 0 0 1-.5-4.34 58 58 0 0 1 .5-6.1l-3.34.88a78 78 0 0 0 7 6.55q2.58 2.12 5.27 4.1a25 25 0 0 0 5.4 3.31 12.6 12.6 0 0 0 11.8-1.3 8.5 8.5 0 0 0 3.34-4.37c.56-1.78.22-3.63.03-5.44l-3.42 1.41c3.05 3.13 6.24 6.11 9.36 9.16 2.28 2.22 6.19 6.12 4.23 9.67-1.93 3.49-6.77 4.16-10.36 4.05a20 20 0 0 1-10.29-3.18c-3.34-2.2-6.59-4.55-9.87-6.84-2.12-1.47-4.12 2-2.02 3.45 3.3 2.3 6.57 4.69 9.94 6.9a24 24 0 0 0 12.46 3.67c4.73.11 9.97-1.14 12.95-5.1 3.06-4.05 1.28-9.25-1.66-12.82a72 72 0 0 0-5.91-5.87 263 263 0 0 1-6-5.92c-1.13-1.15-3.6-.36-3.42 1.42.14 1.35.58 3.05.12 4.38a4.8 4.8 0 0 1-2.32 2.5 9 9 0 0 1-9.56-.58 81 81 0 0 1-14.24-11.98c-.95-1-3.13-.63-3.35.88a67 67 0 0 0-.64 7.16 14 14 0 0 0 .74 5.69 11.7 11.7 0 0 0 4.82 5.5c2.06 1.34 4.05 2.77 6.07 4.17 2.12 1.47 4.12-2 2.02-3.45" class="b"/><path d="M97.46 300.11c-.78 13.01-1.62 26.01-2.32 39.03q-.48 9-.82 18.02c-.2 5.31-.9 10.63 1.44 15.59a35 35 0 0 0 5.37 7.43c2.4 2.77 5.02 5.35 7.66 7.9 1.85 1.79 4.68-1.03 2.82-2.83-4.2-4.07-8.56-8.25-11.7-13.24-2.64-4.2-1.78-9.25-1.62-13.95.43-12.08 1.12-24.16 1.85-36.22l1.33-21.73c.15-2.57-3.85-2.56-4 0Zm-25 9.89v59.07c0 2.57 4 2.57 4 0V310c0-2.57-4-2.58-4 0m-8.74 89.78c2-1.39 3.97-2.8 6-4.12a12 12 0 0 0 4.88-5.56 14 14 0 0 0 .75-5.56q-.11-3.56-.45-7.11c-.15-1.53-2.2-2.88-3.42-1.42a49 49 0 0 1-5.94 5.9 80 80 0 0 1-8.59 6.55 9 9 0 0 1-9.4.47 4.8 4.8 0 0 1-2.32-2.5c-.45-1.33-.02-3.04.12-4.38.18-1.77-2.28-2.58-3.41-1.42-3.53 3.62-7.29 7-10.83 10.6-3.13 3.18-5.7 8.16-3.63 12.57 2.1 4.47 7.32 6.2 11.9 6.5a24.4 24.4 0 0 0 13.96-3.35c3.58-2.17 6.95-4.78 10.38-7.17 2.1-1.46.1-4.93-2.02-3.46q-4.56 3.21-9.16 6.37a21 21 0 0 1-9.27 3.53c-3.78.44-8.47.08-11.25-2.82-2.86-2.98-.29-7.12 2.08-9.5 3.52-3.51 7.2-6.87 10.67-10.43l-3.41-1.42c-.2 1.81-.54 3.66.02 5.44a8.5 8.5 0 0 0 3.35 4.38 12.6 12.6 0 0 0 11.6 1.37 24 24 0 0 0 5.6-3.38q2.52-1.86 4.94-3.86a54 54 0 0 0 7.44-7.16l-3.41-1.4c.22 2.16.33 4.33.43 6.5a12 12 0 0 1-.38 4.55 7.8 7.8 0 0 1-3.48 3.86c-1.95 1.28-3.85 2.64-5.77 3.97-2.1 1.47-.1 4.94 2.02 3.46" class="b"/><path d="M47.45 300.11c.75 12.54 1.56 25.07 2.24 37.6q.5 9.05.85 18.1.16 4.23.27 8.46a14 14 0 0 1-.96 6.12c-1.13 2.7-3.3 5.14-5.2 7.3a122 122 0 0 1-7.35 7.56c-1.85 1.79.98 4.62 2.83 2.83a90 90 0 0 0 12.14-13.76c3.08-4.52 2.57-9.75 2.4-14.92-.4-12.37-1.12-24.73-1.86-37.08l-1.36-22.2c-.15-2.57-4.15-2.58-4 0Z" class="b"/><path d="M57.85 5.8a31 31 0 0 1 16.24-3.7 30.5 30.5 0 0 1 13.38 2.37 33.5 33.5 0 0 1 17.19 16.07 29 29 0 0 1 1.9 5.06q.23.84.4 1.7c.97 4.72 2.19 14.22-.28 19.76a5 5 0 0 0-1.5-.26 4.3 4.3 0 0 0-3.14 1.15L97 46.35a62 62 0 0 1-10.05-3.92l-1.47-.8-6.88-.26c-4.16-.82-7.4-1.85-11.02-5.17-2.58-2.37-5.68-5.64-7.22-8.8a26 26 0 0 0-4.22 3.26 26 26 0 0 0-3.76 5.39 23.4 23.4 0 0 0-2.8 10.9l-3.09.98a4.3 4.3 0 0 0-3.14-1.14l-.51.04c-.05.93-1.6-5.8-1.6-5.8a41 41 0 0 1-.04-13.74c1.86-9.11 8.31-17.05 16.65-21.48" style="fill:#85807f"/><path d="M108.65 47.48c1.69-4.03 1.66-8.76 1.32-13.05a43 43 0 0 0-2.73-12.98A35.5 35.5 0 0 0 86.3 1.89 40 40 0 0 0 70.67.1a34 34 0 0 0-12.8 3.45 35 35 0 0 0-17.4 19.01c-2.87 7.75-2.26 16.74.24 24.52.79 2.44 4.65 1.4 3.86-1.06-1.93-6-2.71-12.7-1.29-18.89a30.2 30.2 0 0 1 13.5-18.4 31 31 0 0 1 11.05-4.3 30 30 0 0 1 5.9-.36 40 40 0 0 1 7.57.56 31.6 31.6 0 0 1 20.84 15.38 34 34 0 0 1 3.72 13.16c.44 4.35.66 9.12-1.07 13.24a2 2 0 0 0 1.4 2.46 2.05 2.05 0 0 0 2.46-1.4ZM53.83 95.96l4.53-2.1q.69-.3 1.37-.63c.53-.25-.68.27-.1.04a8 8 0 0 0 1.4-.66 5.7 5.7 0 0 0 2.54-3.8 54 54 0 0 0 .77-5.38 2 2 0 0 0-2-2 2.05 2.05 0 0 0-2 2l-.08.81s-.08.65-.04.28L60 85.96l-.29 1.78a6 6 0 0 1-.2.78c-.1.28-.18.18.04-.05a2 2 0 0 0-.22.4c-.17.31.31-.31.03-.04l-.31.31q-.17.14.14-.1l-.24.15q-.23.14-.47.26c-.28.15.44-.18-.1.04l-.52.21-.35.16-1.43.67-4.28 1.98a2 2 0 0 0-.72 2.73 2.06 2.06 0 0 0 2.73.72Zm31.5-12.7q.2 2.07.55 4.12a16 16 0 0 0 .4 2.12 5.4 5.4 0 0 0 1.47 2.43 6 6 0 0 0 1.3.91 11 11 0 0 0 .99.43c.64.24-.47-.23-.22-.1 1.9.97 3.88 1.83 5.81 2.75.93.43 1.85.89 2.79 1.28a2 2 0 0 0 2.46-1.4 2.06 2.06 0 0 0-1.4-2.46c1 .42.08.02-.15-.09l-1.24-.58-3.36-1.6-2.6-1.22-.28-.13-.08-.03-.48-.2c-.06-.03-.36-.17-.06-.02l-.52-.28c-.06-.04-.34-.23-.11-.07.2.15.01.02-.03-.02l-.2-.2c-.29-.25.1.08.07.1l-.3-.48c-.1-.16.1.18.09.2l-.12-.35-.12-.49-.2-1.16-.27-1.7-.08-.6-.11-1.16a2 2 0 0 0-4 0" class="b"/><path d="M47.91 46.53a6.7 6.7 0 0 0-7.34-1.1 6.4 6.4 0 0 0-3.35 4.31 16 16 0 0 0 2.32 12.62c1.65 2.45 4.24 4.65 7.39 4.25a2.07 2.07 0 0 0 2-2 2 2 0 0 0-2-2c-2.18.28-3.6-1.52-4.54-3.26a13 13 0 0 1-1.55-4.82 8.3 8.3 0 0 1 .83-5.03c-.33.52.5-.44.2-.21a2 2 0 0 1 .91-.42 2.5 2.5 0 0 1 2.3.49c1.92 1.7 4.76-1.12 2.83-2.83m55.54 2.83a2.5 2.5 0 0 1 2.17-.52 2 2 0 0 1 1.05.45c-.3-.22.52.72.2.2a8.3 8.3 0 0 1 .82 5.04 13 13 0 0 1-1.55 4.82c-.94 1.74-2.36 3.54-4.53 3.26a2 2 0 0 0-2 2 2.05 2.05 0 0 0 2 2c5.11.66 8.26-4.86 9.53-9 1.15-3.7 1.1-9.46-2.54-11.83a6.7 6.7 0 0 0-7.98.75c-1.92 1.71.91 4.54 2.83 2.83" class="b"/><path d="M99.85 61.98a28 28 0 0 1-1.26 4.21l-.57 1.37c-.2.5.15-.3-.03.06l-.17.39a36 36 0 0 1-3.1 5.14c-2.67 3.8-6.34 7.94-11.05 9.05-2.5.59-1.44 4.44 1.06 3.85 5.6-1.31 9.9-5.98 13.15-10.46a37 37 0 0 0 3.35-5.5q.3-.63.57-1.27c.21-.51-.17.36.07-.16l.43-1.03a28 28 0 0 0 1.4-4.59c.53-2.51-3.32-3.59-3.85-1.06m-55.1.96c2.4 10.53 10.33 22 21.7 23.73a2.07 2.07 0 0 0 2.47-1.4 2 2 0 0 0-1.4-2.46c-10.09-1.52-16.8-11.62-18.91-20.93-.58-2.51-4.43-1.45-3.86 1.06m24.07 8.96a12 12 0 0 0 5.74 1.34 9.5 9.5 0 0 0 5.91-1.8 2 2 0 0 0 .59-1.4 2 2 0 0 0-.59-1.42 2.06 2.06 0 0 0-2.82 0c.69-.54-.02-.02-.24.1-.17.09-.61.23.02.01q-.23.1-.47.17c-.42.14-.88.16-1.3.3a12 12 0 0 1-2.51-.01 9 9 0 0 1-1.21-.27l-.5-.17c-.45-.15.42.2.02.01l-.62-.3a2 2 0 1 0-2.02 3.44m4.46-13.19a26 26 0 0 1 .6 2.76l-.07-.53v.38l.08-.54-.04.17.2-.47-.06.1.3-.4-.08.1.4-.32-.21.12.47-.2-.36.1.53-.07h-.35l.53.07-.38-.06a1.5 1.5 0 0 0-.8-.04 1.5 1.5 0 0 0-.75.24 2 2 0 0 0-.72 2.74l.32.4a2 2 0 0 0 .88.51c.35.05.69.14 1.04.15a3.4 3.4 0 0 0 1.6-.39 2.4 2.4 0 0 0 1.31-1.59 4 4 0 0 0 0-1.65q-.24-1.32-.6-2.63a2 2 0 0 0-.91-1.2 2 2 0 0 0-2.74.71 2 2 0 0 0-.2 1.54Zm-14-7.95c-.46 1.5-.16 4.93 2.68 5.22 3.74-.02 3.94-4.17 2.68-6.13-1.03-1.6-4.07-2.27-5.36.9m29.97 0c.46 1.5.16 4.93-2.67 5.22-3.74-.02-3.94-4.17-2.68-6.13 1.03-1.6 4.06-2.27 5.35.9" class="b"/><path d="M41.91 302.47c-1.76-19.75-3.66-47.62-4.05-66.5-.37-18.3-.9-26.06 1.14-46.58h71.91c.74 17.63.58 27.63-.03 43.33-.76 19.47-2.3 52.35-5.1 76.08-10.96.4-19.53.46-31.52.46-9.75.2-26.56.37-31.7.18z" style="fill:#febe69"/><path d="M36.57 193.9c-1.37 15.52-1.06 31.03-.59 46.6a999 999 0 0 0 2.6 45.75q.87 11.61 1.98 23.19a2.06 2.06 0 0 0 2 2c6.84.24 13.7.08 20.53 0 8.83-.1 17.66-.14 26.49-.25q8.1-.1 16.2-.4a2.07 2.07 0 0 0 2-2c1.74-14.8 2.76-29.69 3.6-44.56.82-14.14 1.5-28.3 1.87-42.46q.33-13.43-.13-26.84c-.08-2.57-4.08-2.58-4 0 .51 15.16.1 30.27-.55 45.42-.63 14.66-1.4 29.31-2.5 43.94a591 591 0 0 1-2.29 24.5l2-2c-9.7.36-19.4.46-29.11.47-8.06 0-16.12.23-24.19.26-3.3 0-6.62.03-9.92-.09l2 2a1209 1209 0 0 1-3.4-43.8q-1.36-22.72-1.63-45.48a261 261 0 0 1 1.04-26.26 2 2 0 0 0-2-2 2.04 2.04 0 0 0-2 2Zm20.2-96.48c5.39 3.47 12.02 4.81 18.36 4.7 5.99-.11 12.58-1.2 17.38-5.01a2 2 0 0 0 0-2.83 2.05 2.05 0 0 0-2.83 0c-3.98 3.17-10.05 3.8-14.95 3.84a29 29 0 0 1-15.94-4.15c-2.17-1.4-4.17 2.06-2.02 3.45m-14.53 93.97h67.78c2.58 0 2.58-4 0-4H42.24c-2.58 0-2.58 4 0 4" class="b"/><path d="M91.77 94.19a166 166 0 0 1 15.27 6.24c4.2 2 8.37 4.15 11.45 7.7 6.29 7.25 7.39 16.38 7.93 25.43.7 11.33.93 22.68 1.86 34 .79 9.52 2.02 19.02 3.32 28.5q.58 4.18 1.2 8.36l.57 3.6c.15.93.56 2.07-.27 2.8a7 7 0 0 1-2.03.85l-2.66.96q-2.67.95-5.35 1.86-5.4 1.84-10.85 3.55c-2.44.78-1.4 4.64 1.07 3.86a358 358 0 0 0 20.16-6.85c3.02-1.16 4.53-3.5 4.01-6.73q-.56-3.45-1.08-6.9a606 606 0 0 1-3.81-30.68c-1.09-11.38-1.37-22.8-1.97-34.22-.5-9.42-1.05-19.26-6.39-27.42a28 28 0 0 0-6.33-7.04 46 46 0 0 0-7.13-4.25 163 163 0 0 0-17.91-7.47c-2.43-.88-3.47 2.99-1.07 3.85Z" class="b"/><path d="M37.57 138.86a150 150 0 0 0 .6 21.04c.24 2.63 1.15 12.01 1.55 16.71" style="fill:none"/><path d="M110.12 138.86c-.82 8.48-1.1 16.98-1.67 25.48a95 95 0 0 0-.27 13.6c.13 1.7.38 3.4.66 5.1l.42 2.6a9 9 0 0 0 .11 1.5q-.05.32-.05.2.3-.33.76.1c-1.91-1.72-4.75 1.1-2.83 2.82a3.5 3.5 0 0 0 4.66.1c1.55-1.3 1.56-3.26 1.3-5.1a90 90 0 0 1-1.15-9.52c-.14-4.2.2-8.4.48-12.59.22-3.53.37-7.07.56-10.6q.38-6.85 1.02-13.69a2 2 0 0 0-2-2 2.04 2.04 0 0 0-2 2m-75.39-7.55c.92 8.34 1.69 16.68 1.9 25.07.2 8.27.57 16.45-.28 24.7-.43 4.26-.4 9.04 4.44 10.59 2.46.78 3.52-3.08 1.07-3.86-1.28-.4-1.66-1.46-1.74-2.72a38 38 0 0 1 .41-5.84 112 112 0 0 0 .42-11.39c-.1-7.57-.3-15.17-.89-22.72q-.55-6.92-1.33-13.83a2.06 2.06 0 0 0-2-2 2 2 0 0 0-2 2M51.8 91.3c-5.25 1.45-10.53 2.85-15.75 4.43a34 34 0 0 0-6.8 2.58 22 22 0 0 0-6.45 5.82 2.07 2.07 0 0 0 0 2.83 2 2 0 0 0 2.83 0 19 19 0 0 1 5.81-5.28 33 33 0 0 1 6.3-2.28c5.02-1.5 10.08-2.85 15.13-4.25 2.48-.68 1.42-4.54-1.07-3.85M58 26.96c1.71 4.28 5.03 7.85 8.43 10.88a24 24 0 0 0 11.64 5.46 2.05 2.05 0 0 0 2.46-1.4 2 2 0 0 0-1.4-2.46c-3.69-.74-7.03-1.89-9.88-4.43-2.82-2.5-5.97-5.55-7.4-9.11a2.06 2.06 0 0 0-2.46-1.4A2 2 0 0 0 58 26.96m37.34 21 1.13.33a1.5 1.5 0 0 0 .8.03 1.5 1.5 0 0 0 .74-.24 2.2 2.2 0 0 0 .92-1.2l.07-.52a2 2 0 0 0-.27-1.01l-.32-.4a2 2 0 0 0-.88-.52q-.57-.15-1.13-.33a2.06 2.06 0 0 0-2.46 1.4l-.07.53a2 2 0 0 0 .27 1.01l.31.4a2 2 0 0 0 .88.52Z" class="b"/><path d="M76.74 33.32c-1.8 2.3-.36 4.63 1.68 6.16a54 54 0 0 0 5.68 3.66 58 58 0 0 0 11.24 4.81c2.46.78 3.51-3.08 1.06-3.86a51 51 0 0 1-8.58-3.47 67 67 0 0 1-6.99-4.31 5 5 0 0 1-.75-.67l-.24-.3q-.1-.15-.04-.07.3.36-.23.88a2.07 2.07 0 0 0 0-2.83 2 2 0 0 0-2.83 0m-22.01-4.07a28 28 0 0 0-5.37 8.58 28 28 0 0 0-1.77 9.12 2 2 0 0 0 4 0 23 23 0 0 1 5.96-14.87c1.75-1.89-1.07-4.72-2.82-2.83M5.3 122.85c.68 8.96.94 17.93 1.82 26.86.5 5.05 1.4 10.04 4.47 14.2a19.2 19.2 0 0 0 10.79 7.5 24 24 0 0 0 15.38-1.8 2 2 0 0 0 .71-2.73 2.05 2.05 0 0 0-2.73-.72 19.7 19.7 0 0 1-11.6 1.54 15 15 0 0 1-9.3-6.1c-2.71-3.8-3.39-8.25-3.81-12.8q-.64-6.86-1.01-13.75c-.23-4.06-.41-8.13-.72-12.2-.2-2.54-4.2-2.57-4 0" class="b"/><path d="M5.98 112.88a29 29 0 0 0-2.2-3.71 8.8 8.8 0 0 1-1.81-5.56 10 10 0 0 1 .88-3.44c2.01-3.14 3.76-5.88 5.86-8.54a23 23 0 0 1 1.62-1.77 5 5 0 0 1 3.52-1.46 4.2 4.2 0 0 1 3.03 1.67c2.76.87 3.32-.86 4.55-1.82a4.8 4.8 0 0 1 4.68-.4 12 12 0 0 1 3.9 2.94 6.7 6.7 0 0 1 1.7 3.41 2.5 2.5 0 0 1-.74 2.25 4 4 0 0 1-3.15 1.15l1.6 3.26a5 5 0 0 1 .36 1.97 3 3 0 0 1-.05.8 4 4 0 0 1-.34.8c-1.25 2.37-3.53 5.17-2.47 8.04 2.6 7.55 2.25 11.32-.2 13.45a18 18 0 0 1-6.7 3.57c-.7.14-3.85.68-4.5.38-1.25-.57-2.47-.85-3.4-1.97a9 9 0 0 1-1.53-3.22 94 94 0 0 0-2.43-7.04 52 52 0 0 0-2.18-4.77" class="a"/><path d="M18.77 89.37c-1.85-3.65-6.77-3.59-9.56-1.19-3.08 2.65-5.27 6.59-7.44 9.97a10.4 10.4 0 0 0-1 9.69 41 41 0 0 0 2.62 4.46 54 54 0 0 1 2.27 4.5 88 88 0 0 1 3.18 8.99 8.5 8.5 0 0 0 3.25 4.69 8.3 8.3 0 0 0 4.31 1.48 18 18 0 0 0 8.21-2.2c2.57-1.4 5.02-3.22 5.78-6.17.94-3.58-.18-7.55-1.3-10.95a4.3 4.3 0 0 1-.22-2.9 14 14 0 0 1 1.39-2.79 10 10 0 0 0 1.43-3.04 6.6 6.6 0 0 0-.34-3.57 2.06 2.06 0 0 0-2.46-1.4 2 2 0 0 0-1.4 2.46 3 3 0 0 1 .17 2.02 14 14 0 0 1-1.16 2.03 12 12 0 0 0-1.84 5.08c-.1 1.65.59 3.15 1.05 4.7a23 23 0 0 1 .96 4.56 8 8 0 0 1-.1 2.62 3.5 3.5 0 0 1-.97 1.82 14 14 0 0 1-6.58 3.41 12 12 0 0 1-2.85.32c-.14 0-.38-.08 0 .02a7 7 0 0 0-.8-.33 4.5 4.5 0 0 1-1.76-1.08 10 10 0 0 1-1.46-3.64q-.68-2.1-1.43-4.15a60 60 0 0 0-3.46-7.74c-1.27-2.36-3.49-4.57-3.3-7.43a7 7 0 0 1 1.39-3.64Q6.92 97.5 8.6 95.1c1.01-1.43 2.16-3.29 3.67-4.24a2.05 2.05 0 0 1 3.05.53c1.16 2.3 4.61.27 3.45-2.02" class="b"/><path d="M13.38 100.19q1.06-1.45 2.15-2.87l.64-.83c.28-.36-.27.36 0 0l.3-.4 1.03-1.3q.3-.38.62-.74l.17-.18-.14.1.26-.17q.3-.15-.06 0l.28-.09q.33-.08-.1 0l.29-.02.29.01q-.45-.06-.1 0l.28.1q-.38-.18-.08-.02c.16.1.36.24.1.03.12.1.4.28.44.43q-.23-.32-.04-.05l.15.26q.15.3-.01-.09l.1.28q.05.14.07.27.06.33-.01-.12a2 2 0 0 1-.01.54 2 2 0 0 0 2 2 2.05 2.05 0 0 0 2-2 5.5 5.5 0 0 0-2.38-4.76 4.9 4.9 0 0 0-5.3-.18 7 7 0 0 0-1.88 1.87 235 235 0 0 0-4.52 5.92 2 2 0 0 0 .72 2.73 2.06 2.06 0 0 0 2.74-.72" class="b"/><path d="M19.26 101.9a35 35 0 0 1 3.22-3.41l.87-.76.38-.32.2-.17.06-.05c.25-.22-.07.12-.15.06.02.01.6-.14.21-.06-.35.07.17.04.24.03-.3.07-.36-.08-.15-.02l.31.09c.2.04-.15-.06-.17-.08l.23.12.23.15c.03 0-.37-.22-.18-.13.06.03.22.27.03.01s-.05-.06-.02 0q.08.1.13.21l.06.12q.1.23 0 0l-.05-.12.06.18.05.19c.1.32-.03-.11-.01-.17l.01.24c.01.07-.03.28.02-.05.06-.36 0-.04-.03.05l-.07.2q.15-.32.05-.12l-.07.14a13 13 0 0 1-.99 1.58l-.15.2c.4-.56.15-.18.04-.05l-.53.65q-1.2 1.42-2.42 2.8a2 2 0 0 0 2.83 2.83q1.25-1.42 2.49-2.88a15 15 0 0 0 2.56-3.94 4.74 4.74 0 0 0-2.02-5.54 5 5 0 0 0-3.28-.59 5 5 0 0 0-2.51 1.43 36 36 0 0 0-4.3 4.35 2.05 2.05 0 0 0 0 2.83 2 2 0 0 0 2.82 0" class="b"/><path d="M20.74 91.58a10 10 0 0 0 1.26-1.1l.4-.42.3-.27-.04.03c.07-.05.62-.33.24-.17l.5-.16c.15-.04.54-.07.2-.05h.72c.42 0-.25-.08.2.02l.54.13.31.1.6.31a8 8 0 0 1 .99.66c-.26-.2.3.26.35.3l.44.4a22 22 0 0 1 1.13 1.17 9 9 0 0 1 .58 1c-.15-.3.12.37.14.45q.09.27.15.56l.02.12q-.04-.19-.02.13c.2-.54-.23.38-.05.07.16-.27-.44.48-.04.06-.08.08-.2.18-.26.27-.23.28.32-.19 0 0l-.52.3c.31-.17.03-.02-.15.03-.04.01-.6.13-.18.07a4 4 0 0 1-.8.01 2 2 0 0 0-2 2 2.05 2.05 0 0 0 2 2 6 6 0 0 0 4.74-1.85 4.8 4.8 0 0 0 1.26-2.96 7 7 0 0 0-.76-3.09 11 11 0 0 0-3.46-4.07 9 9 0 0 0-5.48-2.2 6.4 6.4 0 0 0-3.18.8 6 6 0 0 0-1.3 1l-.53.56-.21.21c-.05.04-.37.31-.12.13a2.05 2.05 0 0 0-.71 2.73 2 2 0 0 0 2.74.72" class="b"/><path d="M104.92 64.07a4.54 4.54 0 0 0-4.63 4.6 4.63 4.63 0 1 0 9.26 0 4.54 4.54 0 0 0-4.63-4.6m-61.7 0a4.54 4.54 0 0 0-4.63 4.6 4.34 4.34 0 0 0 4.64 4.7 4.3 4.3 0 0 0 4.63-4.7 4.54 4.54 0 0 0-4.63-4.6" class="a"/><path d="M104.92 62.07a6.64 6.64 0 0 0-6.38 4.76 6.9 6.9 0 0 0 2.17 7.19 7.3 7.3 0 0 0 7.67.52 6.6 6.6 0 0 0 3.13-6.48 6.6 6.6 0 0 0-2.05-4.24 6.8 6.8 0 0 0-4.54-1.75 2 2 0 0 0 0 4l.4.02c.46.01-.46-.1-.02 0l.61.16.12.04q.3.11-.14-.07l.22.1.39.22c.05.13.33.3.43.4.04.05.24.34.07.06l.05.08.32.56c.14.22-.17-.48-.04-.1l.14.46.06.23.02.12q.05.33-.02-.17a3 3 0 0 0 .02.62q0 .2-.02.39v.12l.02-.17a5 5 0 0 0-.15.68l-.11.32c-.06.18-.15.12.08-.17-.13.16-.2.38-.31.55l-.12.17c.23-.44.18-.23.04-.08q-.08.1-.18.18c-.16.15-.42.22.05-.01-.16.08-.3.2-.45.28l-.29.15c.4-.28.28-.12.07-.04l-.56.15c-.15.03-.52.03.06 0l-.37.04a7 7 0 0 1-.77 0l-.25-.02c-.44-.03.48.1.06 0l-.56-.14-.31-.11.17.07-.14-.08c-.17-.09-.32-.22-.5-.3.42.2.27.22.13.08l-.19-.18-.21-.23c-.2-.23.11.13.12.16a5 5 0 0 0-.38-.65c-.09-.17.04-.15.08.18l-.11-.32-.14-.56c-.1-.43.03.49 0 .05l-.02-.38a4 4 0 0 0 .02-.75c.09.29-.08.4-.01.11q.03-.2.1-.4l.1-.34c.14-.4-.2.4 0 .04l.39-.65c.2-.32-.34.37-.06.08l.32-.33.18-.16q-.38.29-.12.1l.2-.13.26-.15.16-.08q.3-.14-.15.05c.16.04.54-.17.72-.21l.13-.03-.15.02.54-.03a2 2 0 0 0 0-4m-61.7 0a6.64 6.64 0 0 0-6.37 4.76 6.9 6.9 0 0 0 2.17 7.19 7.3 7.3 0 0 0 7.66.52 6.5 6.5 0 0 0 3.14-6.48 6.6 6.6 0 0 0-2.05-4.24 6.8 6.8 0 0 0-4.54-1.75 2 2 0 1 0 0 4l.4.02c.46.01-.46-.1-.02 0l.61.16.12.04q.3.1-.14-.07l.22.1a4 4 0 0 1 .51.32q.26.18-.12-.1c.04.13.32.3.42.4.05.05.25.34.07.06l.05.08.32.56c.15.22-.16-.48-.04-.1l.15.46.05.23.03.12-.03-.17a3 3 0 0 0 .03.62l-.02.39-.01.12q-.04.33.03-.17a5 5 0 0 0-.16.68l-.1.32c-.06.18-.15.12.07-.17-.12.16-.2.38-.3.55l-.13.17c.24-.44.19-.23.05-.08l-.18.18c-.16.15-.42.22.04-.01-.15.08-.29.2-.44.28l-.29.15c.4-.28.28-.12.07-.04l-.56.15c-.15.03-.52.03.06 0q-.19.01-.37.04a7 7 0 0 1-.77 0l-.25-.02c-.44-.03.48.1.06 0l-.56-.14-.32-.11.18.07-.14-.08c-.17-.09-.32-.22-.5-.3.41.2.27.22.13.08l-.2-.18-.2-.23c-.21-.23.11.13.12.16a5 5 0 0 0-.38-.65c-.09-.17.04-.15.08.18l-.11-.32q-.09-.29-.14-.56c-.1-.43.03.49 0 .05q0-.19-.03-.38a4 4 0 0 0 .02-.75c.1.29-.07.4 0 .11l.1-.4.1-.34c.13-.4-.21.4 0 .04l.38-.65c.12-.22-.33.37-.05.08l.32-.33.18-.16q-.38.29-.12.1l.2-.13.25-.15.02-.03c.16.04.54-.17.72-.21l.13-.03-.15.02.54-.03a2 2 0 0 0 0-4Z" class="b"/></svg>
