<svg xmlns="http://www.w3.org/2000/svg" viewBox="-139.8 0 419.322 419.322"><defs><style>.a{fill:#7a7473}.b{fill:#fff}.c{fill:#211715}.e{fill:#7abee6}</style></defs><path d="M88.68 407.32c-2.75-1.9-5.18-3.59-5.95-4.07-5-3.12-4.43-7.36-4.33-10.27a53 53 0 0 1 .51-5.31l1.26 1.33a93 93 0 0 0 13.11 10.7 10.5 10.5 0 0 0 9.35 1.24c2.88-1.04 5.45-3.16 5.08-6.68l-.25-2.46.47.49c3.23 3.31 6.8 6.58 10.03 9.8 2.1 2.09 3.75 4.87 3.67 7.92a6.8 6.8 0 0 1-3.21 5.08 13 13 0 0 1-5.85 2.06 22 22 0 0 1-13.75-2.83c-.76-.43-5.84-4-10.14-7" class="a"/><path d="M59.83 400.51a10.4 10.4 0 0 1-7.9.43c-2.88-1.04-5.44-3.16-5.08-6.68l.26-2.46a56 56 0 0 0 6.57-7.95 14 14 0 0 0 2.64-7.6l-.1-4.14a49 49 0 0 0 20.19-1.49 49 49 0 0 0 21.94 1.22l-.12 4.41a14 14 0 0 0 2.65 7.6 56 56 0 0 0 6.57 7.95l.26 2.45c.36 3.53-2.2 5.64-5.08 6.7a10.5 10.5 0 0 1-9.35-1.25 93 93 0 0 1-13.1-10.7l-1.27-1.34-3.14-.7A18 18 0 0 1 74.4 389a93 93 0 0 1-13.1 10.7 11 11 0 0 1-1.46.81" class="b"/><path d="M65.89 407.32c2.74-1.9 5.17-3.59 5.94-4.07 5-3.12 4.44-7.36 4.33-10.27a59 59 0 0 0-.39-6.02A10 10 0 0 0 74.4 389a93 93 0 0 1-13.1 10.7 10.5 10.5 0 0 1-9.36 1.24c-2.88-1.04-5.44-3.16-5.08-6.68l.26-2.46-.48.49c-3.23 3.31-6.8 6.58-10.03 9.8-2.1 2.09-3.75 4.87-3.67 7.92a6.8 6.8 0 0 0 3.22 5.08 13 13 0 0 0 5.84 2.06 22 22 0 0 0 13.76-2.83c.75-.43 5.84-4 10.14-7" class="a"/><path d="M89.68 405.6c-1.8-1.25-3.59-2.53-5.42-3.74a8 8 0 0 1-3.42-3.54 10 10 0 0 1-.49-4.19 56 56 0 0 1 .49-5.93l-3.34.88a76 76 0 0 0 6.95 6.48c3.12 2.57 6.5 5.63 10.3 7.12a12.3 12.3 0 0 0 11.49-1.36 8.3 8.3 0 0 0 3.17-4.15c.56-1.76.24-3.57.05-5.36l-3.41 1.4c2.99 3.08 6.12 6 9.19 9 2.15 2.1 5.7 5.69 4.06 9.04-1.7 3.48-6.54 4.16-9.97 4.07a19.5 19.5 0 0 1-10.01-3.04c-3.27-2.14-6.43-4.44-9.63-6.67-2.12-1.48-4.12 1.99-2.02 3.45 3.2 2.23 6.37 4.53 9.63 6.67a23.4 23.4 0 0 0 12.25 3.6c4.66.07 9.73-1.2 12.61-5.13 2.83-3.86 1.12-8.83-1.61-12.21a66 66 0 0 0-5.85-5.85q-2.96-2.82-5.83-5.74c-1.12-1.16-3.6-.37-3.41 1.41a12 12 0 0 1 .18 4 4.4 4.4 0 0 1-2.23 2.59 8.7 8.7 0 0 1-9.28-.53 79 79 0 0 1-13.8-11.61c-.94-1-3.12-.63-3.34.88a65 65 0 0 0-.63 7 13.5 13.5 0 0 0 .74 5.53 11.5 11.5 0 0 0 4.69 5.35c2 1.3 3.93 2.68 5.88 4.04 2.11 1.47 4.11-2 2.01-3.46" class="c"/><path d="M99.54 312.3c-.76 12.68-1.58 25.34-2.26 38q-.47 8.88-.8 17.76c-.1 2.8-.31 5.62-.25 8.42a16 16 0 0 0 1.66 6.32 34 34 0 0 0 5.34 7.35c2.3 2.65 4.8 5.1 7.31 7.53 1.85 1.8 4.68-1.03 2.83-2.82-4.09-3.96-8.27-8.01-11.35-12.84-2.54-3.98-1.72-8.82-1.57-13.28.42-11.84 1.1-23.66 1.81-35.48l1.28-20.96c.15-2.57-3.85-2.56-4 0M66.9 409.06c1.97-1.37 3.94-2.76 5.95-4.08a11.3 11.3 0 0 0 4.83-5.86 15 15 0 0 0 .5-5.57c-.1-2.38-.14-4.75-.47-7.11-.25-1.77-2.88-1.85-3.66-.48a13 13 0 0 1-1.27 1.89c.49-.59-.02-.01-.11.07q-.32.3-.63.62-1.6 1.52-3.28 2.96a86 86 0 0 1-8.17 6.27 8.7 8.7 0 0 1-9.15.8 4.8 4.8 0 0 1-2.42-2.45c-.48-1.3-.05-3 .1-4.3.17-1.77-2.3-2.58-3.42-1.42-3.43 3.51-7.07 6.8-10.5 10.29-3 3.05-5.52 7.83-3.61 12.1 1.97 4.4 7.02 6.14 11.49 6.48a23.7 23.7 0 0 0 13.72-3.23c3.49-2.1 6.76-4.65 10.1-6.98 2.1-1.46.1-4.93-2.02-3.45q-4.45 3.14-8.94 6.21a20 20 0 0 1-8.97 3.39c-3.67.41-8.32.07-10.94-2.86-2.5-2.8-.18-6.62 2-8.83 3.44-3.5 7.08-6.78 10.5-10.3l-3.42-1.41c-.19 1.8-.52 3.6.05 5.37a8.4 8.4 0 0 0 3.43 4.33 12.4 12.4 0 0 0 11.9.9 28 28 0 0 0 5.38-3.5q2.47-1.85 4.84-3.84c2.51-2.1 5.14-4.21 6.79-7.09l-3.66-.47c.28 1.92.25 3.88.33 5.82a14 14 0 0 1-.27 4.46 7.3 7.3 0 0 1-3.34 3.92c-1.92 1.25-3.8 2.59-5.68 3.9-2.1 1.46-.1 4.93 2.02 3.45" class="c"/><path d="M51.02 312.3c.73 12.2 1.52 24.4 2.18 36.6q.48 8.78.83 17.6.15 4.22.26 8.44a13 13 0 0 1-1 5.69 29 29 0 0 1-4.94 6.88c-2.26 2.57-4.7 4.98-7.16 7.35-1.85 1.8.98 4.62 2.83 2.83a88 88 0 0 0 11.78-13.36c2.96-4.31 2.51-9.3 2.35-14.25-.4-12.04-1.08-24.06-1.81-36.08l-1.32-21.7c-.16-2.55-4.16-2.57-4 0m23.26 58.32v9.99a2 2 0 0 0 4 0v-10a2 2 0 0 0-4 0" class="c"/><path d="M76.4 192.42H44.08c-6.32 14.77-5.54 31.17-4.64 47.05q3.73 65.45 8.7 130.83a49 49 0 0 0 28.28.32 49 49 0 0 0 28.27-.32q4.97-65.37 8.7-130.83c.9-15.88 1.69-32.28-4.64-47.05zm-11.5-1h-4.38c-.05-25.33-.26-69.26-.2-89.48l.2.05a71 71 0 0 0 16.13 2.32c5.15.01 12.47-.8 17.5-2.8 0 20.87-.08 64.23-.1 89.9z" class="b"/><path d="M60.48 193.42H94c2.57 0 2.58-4 0-4H60.48c-2.58 0-2.58 4 0 4" class="c"/><path d="M105.07 47.97a4.3 4.3 0 0 1 3.14-1.15 4 4 0 0 1 3.62 2.01c1.23 2.13 1.18 6.07.35 8.5a13 13 0 0 1-3.85 6.25 4.8 4.8 0 0 1-3.7 1.06l-.35-.06a28 28 0 0 1-1.27 3.45c-.94 2.55-6.12 11.48-12.69 14.97q.15 1.88.48 3.76c.36 2.05.23 3.86 3.34 4.82l.02 9.93c-5.03 2-12.35 2.81-17.5 2.8A71 71 0 0 1 60.53 102l-.2-.05c.01-4.76.05-8.2.1-9.78l1.5-.7c2.74-.98 2.62-2.74 2.98-4.7.2-1.13.35-2.18.44-3.28a24.5 24.5 0 0 1-8.85-7.08 33 33 0 0 1-6.27-11.83 4.7 4.7 0 0 1-4-1 13 13 0 0 1-3.84-6.24c-.83-2.44-.88-6.37.35-8.5a4 4 0 0 1 3.62-2.02 4.4 4.4 0 0 1 3.14 1.15S45.62 22.2 77.29 22.2s27.78 25.78 27.78 25.78" class="b"/><path d="M68.7 2.85C56.74 5.65 46.6 15.48 44.2 27.3a41 41 0 0 0 .03 13.74s1.03 4.49 1.44 5.64c16.7-2.88 32.2-11.65 43.63-20.8a49 49 0 0 0 4.79 11.03c1.83 2.9 7.04 9.49 11.77 10.47a4.4 4.4 0 0 1 2.35-.57 5 5 0 0 1 1.5.27c2.47-5.55 1.26-15.05.28-19.78q-.17-.85-.4-1.7a29 29 0 0 0-1.9-5.05 33.5 33.5 0 0 0-17.2-16.1A30.5 30.5 0 0 0 77.1 2.1a30 30 0 0 0-8.4.75m47.23 65.9a15.7 15.7 0 0 0-6.17-6.63 10 10 0 0 1-1.43 1.46 4.8 4.8 0 0 1-3.7 1.06l-.35-.06a28 28 0 0 1-1.27 3.45c-.94 2.55-6.12 11.48-12.69 14.97q.15 1.88.48 3.76c.35 1.96.24 3.71 2.97 4.7.05.01.56.25 1.3.6l1.1.38 15.6 5.72a32 32 0 0 1 4.07 1.8l-.12-.23a19.4 19.4 0 0 1-.92-12.87c1.03-4.3 3.11-8.75 2.62-13.13a15 15 0 0 0-1.49-4.98" style="fill:#957f6e"/><path d="M108.75 63.85a14 14 0 0 1 5.64 6.29 13.8 13.8 0 0 1 .42 9.44c-.92 3.53-2.2 6.9-2.57 10.55a20.4 20.4 0 0 0 1.75 10.61 2 2 0 0 0 2.74.72 2.05 2.05 0 0 0 .72-2.74 17 17 0 0 1-.91-10.46c.77-3.8 2.35-7.37 2.82-11.23.81-6.68-2.89-13.26-8.6-16.63-2.21-1.32-4.23 2.14-2.01 3.45m2.93-16.34c1.7-4.04 1.67-8.77 1.32-13.07a43 43 0 0 0-2.73-12.98A35.5 35.5 0 0 0 89.32 1.9 40 40 0 0 0 73.68.1a34 34 0 0 0-12.8 3.45 35 35 0 0 0-17.4 19.02c-2.89 7.76-2.28 16.75.23 24.53.78 2.45 4.65 1.4 3.86-1.06-1.93-6-2.72-12.7-1.3-18.9A30.2 30.2 0 0 1 59.8 8.75a31 31 0 0 1 11.05-4.3 30 30 0 0 1 5.9-.36 40 40 0 0 1 7.58.56 31.6 31.6 0 0 1 20.85 15.39 34 34 0 0 1 3.72 13.17c.45 4.35.66 9.13-1.06 13.24a2 2 0 0 0 1.4 2.46 2.05 2.05 0 0 0 2.46-1.4Z" class="c"/><path d="M87.67 27.48a42 42 0 0 0 6.39 12.84c2.82 3.69 6.62 8.03 11.39 9.02a2.05 2.05 0 0 0 2.46-1.4 2 2 0 0 0-1.4-2.46c-3.82-.79-7.07-4.6-9.3-7.57a38 38 0 0 1-5.68-11.5c-.78-2.44-4.64-1.4-3.86 1.07" class="c"/><path d="M87.48 24.8c-11.52 9.1-24.95 16.23-39.36 19.38-2.51.55-1.45 4.4 1.06 3.86 15.11-3.3 29.07-10.88 41.13-20.42a2 2 0 0 0 0-2.83 2.05 2.05 0 0 0-2.83 0M53.12 97.66c.87-.3 1.71-.74 2.55-1.12l3.85-1.78 3.02-1.4.32-.14c.1-.04.27-.12-.17.06-.5.22-.06.04.07-.01q.37-.14.75-.33a5.4 5.4 0 0 0 2.41-2.23 9 9 0 0 0 .82-2.85c.22-1.46.47-2.92.6-4.4a2 2 0 0 0-2-2 2.05 2.05 0 0 0-2 2 37 37 0 0 1-.88 5.29c-.06.24.2-.31.04-.12l-.13.24c-.23.4.18-.14-.07.08l-.21.21c.21-.25.15-.1.02-.02l-.29.18c-.03.02-.45.23-.27.15s-.15.05-.15.05l-.48.2-.07.03-.3.14-6.42 2.97-1.68.76-.53.24c-.44.2.5-.19.13-.06a2 2 0 0 0 1.07 3.86M88.35 83.3q.2 2.07.55 4.12a16 16 0 0 0 .4 2.11 5.4 5.4 0 0 0 1.46 2.44 6 6 0 0 0 1.31.91 11 11 0 0 0 .99.43c.63.24-.47-.23-.22-.1 1.9.97 3.88 1.83 5.81 2.75.93.43 1.85.89 2.8 1.28a2 2 0 0 0 2.45-1.4 2.06 2.06 0 0 0-1.4-2.46c1 .42.08.02-.15-.09l-1.24-.58-3.36-1.6-2.6-1.22-.29-.13-.07-.03-.48-.2c-.06-.03-.37-.17-.06-.02l-.52-.28c-.06-.04-.35-.23-.12-.07.2.14.02.01-.02-.02l-.2-.2c-.3-.25.1.08.06.1l-.29-.48c-.1-.16.1.18.08.2l-.12-.35-.12-.49q-.11-.57-.19-1.16l-.27-1.69-.08-.62q-.07-.57-.12-1.15a2.04 2.04 0 0 0-2-2 2 2 0 0 0-2 2Z" class="c"/><path d="M50.9 46.55a6.7 6.7 0 0 0-7.34-1.09 6.4 6.4 0 0 0-3.35 4.3 16 16 0 0 0 2.33 12.64c1.64 2.45 4.24 4.65 7.39 4.24a2.07 2.07 0 0 0 2-2 2 2 0 0 0-2-2c-2.18.29-3.6-1.52-4.54-3.26a13 13 0 0 1-1.55-4.82 8.3 8.3 0 0 1 .82-5.04c-.33.53.51-.43.2-.2a2 2 0 0 1 .92-.43 2.5 2.5 0 0 1 2.3.5c1.91 1.7 4.75-1.12 2.83-2.84Zm55.58 2.83a2.5 2.5 0 0 1 2.17-.51 2 2 0 0 1 1.05.44c-.3-.22.52.72.2.21a8.3 8.3 0 0 1 .82 5.04 13 13 0 0 1-1.55 4.82c-.94 1.74-2.36 3.54-4.54 3.26a2 2 0 0 0-2 2 2.05 2.05 0 0 0 2 2c5.12.67 8.27-4.86 9.55-9 1.15-3.7 1.09-9.46-2.55-11.84a6.7 6.7 0 0 0-7.98.75c-1.92 1.72.91 4.54 2.83 2.83" class="c"/><path d="M102.88 62.01a28 28 0 0 1-1.27 4.22c-.19.5-.32.77-.56 1.36-.2.5.14-.29-.03.07l-.18.38a36 36 0 0 1-3.09 5.15c-2.68 3.8-6.35 7.95-11.06 9.05-2.5.6-1.44 4.45 1.06 3.86 5.6-1.31 9.91-5.99 13.15-10.47a37 37 0 0 0 3.36-5.5q.3-.63.56-1.27c.22-.52-.16.35.08-.17l.42-1.02a28 28 0 0 0 1.42-4.6c.52-2.5-3.34-3.58-3.86-1.06m-55.13.97C50.15 73.5 58.08 85 69.46 86.7a2.07 2.07 0 0 0 2.46-1.4 2 2 0 0 0-1.4-2.46C60.43 81.32 53.72 71.21 51.6 61.9c-.57-2.51-4.43-1.45-3.86 1.06Zm24.08 8.96a12 12 0 0 0 5.75 1.34 9.5 9.5 0 0 0 5.91-1.8 2 2 0 0 0 0-2.82 2.06 2.06 0 0 0-2.83 0c.7-.54-.01-.02-.23.1-.17.09-.62.23.01.01l-.46.17c-.42.14-.89.16-1.3.3a10 10 0 0 1-1.28.05 12 12 0 0 1-1.2-.06l-.22-.03q-.24-.02.19.03a8 8 0 0 1-1.22-.27l-.5-.17c-.45-.15.43.2.02.01l-.62-.3a2 2 0 1 0-2.02 3.45Zm4.46-13.2a25 25 0 0 1 .6 2.76l-.07-.53.01.38.07-.53-.04.17.2-.48-.06.11.31-.4-.09.09.4-.31-.21.11.48-.2-.37.11.53-.07h-.34l.53.07-.39-.07a2.2 2.2 0 0 0-1.54.2 2 2 0 0 0-.72 2.74l.31.4a2 2 0 0 0 .89.51c.34.05.68.14 1.04.15a3.4 3.4 0 0 0 1.6-.39 2.4 2.4 0 0 0 1.31-1.59 4 4 0 0 0-.01-1.65 30 30 0 0 0-.59-2.64 2 2 0 0 0-2.46-1.4 2 2 0 0 0-1.19.92 2 2 0 0 0-.2 1.54m-14-7.95c-.46 1.5-.16 4.93 2.67 5.22 3.75-.02 3.95-4.18 2.69-6.13-1.04-1.6-4.07-2.27-5.36.9m29.98 0c.46 1.5.16 4.93-2.67 5.22-3.74-.02-3.94-4.18-2.68-6.13 1.03-1.6 4.06-2.27 5.35.9m-51.52 144.7c-3.52 10.24-4.14 21.18-3.87 31.93.29 11.32 1.15 22.64 1.83 33.95q2.1 34.83 4.55 69.65 1.38 19.64 2.87 39.28a2.1 2.1 0 0 0 1.47 1.93 51.5 51.5 0 0 0 27 .94c2.5-.59 1.45-4.44-1.06-3.86a47.4 47.4 0 0 1-24.88-.94l1.47 1.93q-2.63-34.67-4.92-69.38c-1.5-22.86-3.14-45.74-4.15-68.63-.54-12.01-.4-24.24 3.55-35.73.84-2.44-3.03-3.5-3.86-1.07" class="c"/><path d="M74.09 232.65q0 11.8.03 23.58l.08 32.37.09 34.1.08 29.33.04 17.56v1.03c0 2.57 4 2.58 4 0q0-7.82-.04-15.65l-.07-28.25-.1-33.86-.07-32.96-.04-25.02v-2.23c0-2.57-4-2.57-4 0" class="c"/><path d="M108.2 196.56c3.52 10.23 4.01 21.06 3.7 31.79-.33 11.26-1.17 22.52-1.85 33.76q-2.09 34.6-4.52 69.16-1.37 19.52-2.85 39.03l1.47-1.93a47.4 47.4 0 0 1-24.87.94c-2.5-.58-3.58 3.27-1.07 3.86a51.5 51.5 0 0 0 27-.94 2.1 2.1 0 0 0 1.47-1.93q2.64-34.8 4.94-69.62c1.51-23.01 3.2-46.04 4.16-69.08.52-12.12.26-24.52-3.72-36.1-.83-2.43-4.7-1.39-3.86 1.06" class="c"/><path d="M60.43 92.05a125 125 0 0 0-21.2 8.95 75 75 0 0 0-8.63 5.64l-23.2 18.1c.62 8.14.62 14.04 1.71 25.94a43 43 0 0 0 1.52 9.17c2.04 6.46 7.7 11.95 14.43 12.66a21.7 21.7 0 0 0 12.31-1.93l.5-.21-.87 8.76c-1.1 11.44-2.55 22.64-3.4 34.38 6.53 2.07 13.7 2.19 20.54 2.15a8.4 8.4 0 0 0 4.39-1.02c1.16-.86 1.95-1.17 1.95-4.7.23-8.1-.41-107.46-.05-117.9m77.13 67c-1.44-13.93-3.12-20.9-7.33-37.8a74 74 0 0 0-2.78-8.16c-1.66-4.09-3.77-7.65-7.28-10.35a32 32 0 0 0-8.4-4.57c-5.05-1.84-14-5.15-17.64-6.45.05 9.06 0 45.23-.05 75.52l-.54.23-6.47 2.71a.85.85 0 0 0-.47 1.12c1.26 3.08 4.64 11.12 7.1 17.37l.36.88c-.02 12.17-.03 20.82 0 22.05.12 1.65.54 2.8 1.75 3.44a8.6 8.6 0 0 0 3.98.67 80 80 0 0 0 19.18-1.88 710 710 0 0 0-2.6-26.4l.2-.08a61 61 0 0 0 13.6-7.73c3.22-2.64 5.78-6.42 6.46-9.13a27 27 0 0 0 .93-11.44" class="e"/><path d="M32.02 108.05c3.24-2.77 7.67-5.1 11.63-7.06a109 109 0 0 1 17.31-7c2.46-.73 1.42-4.6-1.06-3.87a115 115 0 0 0-18.27 7.42 60 60 0 0 0-12.44 7.68c-1.96 1.67.88 4.5 2.83 2.83M60 103.92a66 66 0 0 0 17.52 2.39 50 50 0 0 0 17.17-2.87 2.06 2.06 0 0 0 1.4-2.46 2 2 0 0 0-2.46-1.4c-10.24 3.98-22.13 3.23-32.56.48-2.5-.66-3.56 3.2-1.07 3.86" class="c"/><path d="M58.43 92.05c-.2 5.93-.11 11.88-.12 17.81q0 16.04.06 32.08l.11 34.92q.06 13.17.05 26.34.01 3.2-.04 6.37v.37a12 12 0 0 1-.08 1.57c-.03.18-.22.88-.15.69l-.14.24c-.18.25.18-.24 0-.01a1 1 0 0 1-.24.22c-.24.17.25-.19 0 0a4.5 4.5 0 0 1-2.17.9 39 39 0 0 1-6.86.08 74 74 0 0 1-7.63-.5 42 42 0 0 1-7.1-1.54l1.47 1.92c1.02-13.8 2.73-27.54 4.1-41.3.44-4.44 1.01-8.9 1.16-13.37a37 37 0 0 0-.38-5.1c-.35-3.27-.74-6.52-1.08-9.78-.72-6.79-1.25-13.6-1.72-20.4-.17-2.55-4.17-2.57-4 0 .41 6 .86 12.01 1.47 18q.53 5.1 1.11 10.2c.24 2.1.56 4.22.6 6.33a101 101 0 0 1-.96 12.03c-.6 6.06-1.18 12.12-1.83 18.17-.9 8.4-1.85 16.8-2.47 25.22a2 2 0 0 0 1.47 1.93 57 57 0 0 0 15.32 2.18c4.03.1 8.99.77 12.26-2.08 2.4-2.1 1.86-6.06 1.88-9.01.04-7.92 0-15.83-.02-23.75l-.11-34.86-.08-34.02c0-6.92-.05-13.85.09-20.78l.03-1.06c.08-2.58-3.92-2.58-4 0Zm56.09 96.73c.9 8.33 1.89 16.67 2.45 25.04l1.47-1.93a77 77 0 0 1-13.6 1.74 36 36 0 0 1-6.97-.02c-1.34-.22-1.75-.79-1.82-2.11-.07-1.58 0-3.18 0-4.76q0-11.82.02-23.63l.04-33.7q.03-16.66.04-33.33.02-11.25 0-22.52v-1.54c-.02-2.57-4.02-2.58-4 0q.03 10.54 0 21.08 0 16.7-.03 33.4l-.05 34.8-.02 24.82c0 1.76-.05 3.52 0 5.27a8 8 0 0 0 .81 3.44c1.1 2 3.36 2.67 5.5 2.82a71 71 0 0 0 14.14-.67q3.53-.47 7-1.23a2 2 0 0 0 1.47-1.93c-.56-8.37-1.54-16.7-2.45-25.04a2.06 2.06 0 0 0-2-2 2 2 0 0 0-2 2" class="c"/><path d="M5.4 124.74c.67 8.95.94 17.93 1.8 26.87.5 5.22 1.33 10.42 4.48 14.76a19.5 19.5 0 0 0 11.07 7.77 24.2 24.2 0 0 0 15.62-1.83 2 2 0 0 0 .72-2.74 2.05 2.05 0 0 0-2.74-.71 20 20 0 0 1-11.83 1.57 15.2 15.2 0 0 1-9.6-6.38c-2.78-3.98-3.38-8.64-3.81-13.37q-.62-6.76-.99-13.54c-.23-4.14-.42-8.27-.73-12.4-.2-2.55-4.2-2.57-4 0Z" class="c"/><path d="M6.04 114.58a30 30 0 0 0-2.23-3.78 9 9 0 0 1-1.85-5.66 10 10 0 0 1 .9-3.5c2.05-3.19 3.82-5.98 5.96-8.68a23 23 0 0 1 1.66-1.81 5.2 5.2 0 0 1 3.58-1.48 4.3 4.3 0 0 1 3.08 1.7c2.81.89 3.39-.88 4.64-1.86a4.9 4.9 0 0 1 4.76-.4 12 12 0 0 1 3.97 3 7 7 0 0 1 1.73 3.47 2.6 2.6 0 0 1-.76 2.29 4.1 4.1 0 0 1-3.2 1.17l1.63 3.32a5 5 0 0 1 .37 2 3 3 0 0 1-.06.82 4 4 0 0 1-.34.81c-1.27 2.41-3.59 5.26-2.51 8.18 2.65 7.68 2.28 11.52-.2 13.7a18 18 0 0 1-6.83 3.62c-.7.15-3.92.7-4.57.4-1.27-.58-2.51-.87-3.46-2a9 9 0 0 1-1.56-3.28 95 95 0 0 0-2.48-7.17 53 53 0 0 0-2.23-4.86" class="b"/><path d="M19.03 90.67c-1.87-3.7-6.85-3.63-9.67-1.2a27 27 0 0 0-4.06 4.87 139 139 0 0 0-3.54 5.3 10.6 10.6 0 0 0-.89 10.03 50 50 0 0 0 2.66 4.45 54 54 0 0 1 2.36 4.75c1.28 2.93 2.13 6 3.16 9.03a8.35 8.35 0 0 0 7.85 6.05 18.6 18.6 0 0 0 8.42-2.4c2.5-1.4 4.81-3.23 5.55-6.12.95-3.72-.26-7.81-1.42-11.34a4 4 0 0 1-.13-2.77 14 14 0 0 1 1.35-2.7 11 11 0 0 0 1.51-3.19 6.7 6.7 0 0 0-.34-3.62 2.06 2.06 0 0 0-2.46-1.4 2 2 0 0 0-1.4 2.46 3 3 0 0 1 .17 2.1 14 14 0 0 1-1.13 1.96 13 13 0 0 0-1.89 4.96c-.19 1.78.53 3.35 1.02 5.03a24 24 0 0 1 .98 4.56c.17 1.79-.01 3.55-.96 4.53a13.4 13.4 0 0 1-6.65 3.6 22 22 0 0 1-2.87.34c-.12.01-.71-.1-.24.03a9 9 0 0 0-.8-.34 4.5 4.5 0 0 1-1.83-1.11 10 10 0 0 1-1.38-3.38 99 99 0 0 0-1.47-4.3 61 61 0 0 0-3.6-8.13c-1.3-2.42-3.57-4.67-3.37-7.6a7 7 0 0 1 1.38-3.66q1.64-2.6 3.41-5.11c1.02-1.43 2.16-3.27 3.67-4.22a2.13 2.13 0 0 1 3.16.54c1.16 2.3 4.61.28 3.45-2.02Z" class="c"/><path d="M13.55 101.65q1.07-1.48 2.19-2.92l.65-.85c.29-.37-.27.35.01 0q.15-.22.31-.4l1.04-1.34q.3-.4.63-.76l.18-.18c-.21.23 0 .03.13-.07q.3-.15-.06 0l.3-.1q.32-.07-.1 0l.3-.02.3.01q-.45-.06-.1 0l.28.1q-.37-.17-.07-.02c.15.1.37.25.11.04l.45.44c-.34-.36.05.12.11.22q.15.3 0-.08l.17.56q.06.34-.01-.11c.05.02 0 .49-.01.55a2 2 0 0 0 2 2 2.05 2.05 0 0 0 2-2 5.5 5.5 0 0 0-2.4-4.82 4.9 4.9 0 0 0-5.35-.18 7 7 0 0 0-1.91 1.9 215 215 0 0 0-4.6 6 2 2 0 0 0 .72 2.74 2.06 2.06 0 0 0 2.74-.71Z" class="c"/><path d="M19.54 103.38a36 36 0 0 1 3.28-3.47l.88-.77.39-.33.2-.17.08-.05c.23-.25-.07.13-.15.05.01.01.61-.15.22-.06-.36.07.18.04.24.02-.28.08-.35-.07-.14 0l.32.08c.2.04-.15-.06-.17-.08l.24.13.23.14c.02.01-.37-.2-.18-.12.07.03.22.27.04.02-.18-.24-.05-.06-.02 0q.08.1.13.22l.06.11q.11.24 0 0l-.05-.11q.04.09.06.19c.02.1.04.12.06.18.1.34-.04-.1-.01-.15l.01.24c.01.07-.03.28.02-.05.06-.35 0-.03-.03.06l-.07.21.05-.12-.07.14a13 13 0 0 1-1.01 1.61l-.16.21-.51.61q-1.2 1.45-2.46 2.85a2 2 0 1 0 2.83 2.83q1.28-1.45 2.53-2.94a15 15 0 0 0 2.6-3.99 4.8 4.8 0 0 0-2.03-5.6 5 5 0 0 0-3.31-.59 5 5 0 0 0-2.54 1.44 37 37 0 0 0-4.38 4.44 2.04 2.04 0 0 0 0 2.82 2 2 0 0 0 2.83 0Z" class="c"/><path d="M21.05 92.87a10 10 0 0 0 1.28-1.11l.42-.44.29-.27q-.2.14-.03.03c.07-.05.62-.34.25-.18l.52-.17c.13-.03.55-.06.2-.04q.38-.02.75 0c.42 0-.24-.08.2.02l.55.13.36.12q-.23-.1-.03-.01.32.14.62.32a9 9 0 0 1 1 .66c-.24-.19.32.28.37.32l.45.41a20 20 0 0 1 1.15 1.19l.32.5.27.53c-.14-.3.13.38.15.46l.15.57q.07.32.02.13-.04-.19-.02.13c.17-.53-.22.38-.05.1.15-.28-.44.47-.05.06-.08.08-.2.18-.27.27-.23.29.32-.18 0 0l-.53.3c.3-.15 0 0-.16.05-.04 0-.6.13-.2.07a4 4 0 0 1-.81 0 2 2 0 0 0-2 2 2.05 2.05 0 0 0 2 2 6 6 0 0 0 4.8-1.86 4.8 4.8 0 0 0 1.27-2.99 7 7 0 0 0-.77-3.12A11.4 11.4 0 0 0 30 88.9a9 9 0 0 0-5.56-2.24 6.5 6.5 0 0 0-3.22.8 6 6 0 0 0-1.3 1.03q-.29.29-.55.58l-.21.2c-.05.05-.37.32-.13.14a2.05 2.05 0 0 0-.72 2.74 2 2 0 0 0 2.74.71Z" class="c"/><path d="M49.68 160.5c2.53-2.1 27.37-20.71 32.32-23.9 10.67 13.82 29.24 40.49 32.37 45.17-4.22 3.4-27.73 21.22-32.79 24.8-4.5-6.27-26.77-37.86-31.9-46.08" class="b"/><path d="m51.09 161.9.51-.4c.17-.13.94-.73.5-.4l2.46-1.87q3.43-2.61 6.9-5.2a1173 1173 0 0 1 15.88-11.72c1.87-1.35 3.73-2.73 5.68-3.98l-2.74-.72c9.85 12.76 19.1 26 28.3 39.24q2.06 2.94 4.07 5.93l.32-2.43c-3.68 2.96-7.31 5.67-11.23 8.65q-7.76 5.9-15.57 11.74-2.77 2.09-5.58 4.1l2.73.72q-13.46-18.7-26.41-37.78c-1.87-2.75-3.74-5.49-5.5-8.3-1.37-2.17-4.83-.17-3.45 2.02 3.74 5.97 7.83 11.73 11.84 17.52q7.4 10.67 14.9 21.27 2.56 3.65 5.17 7.29a2.03 2.03 0 0 0 2.74.71c9.42-6.68 18.56-13.81 27.72-20.85q2.76-2.1 5.47-4.26a2 2 0 0 0 .31-2.42 1051 1051 0 0 0-32.37-45.17 2.04 2.04 0 0 0-2.74-.72c-4.3 2.78-8.38 5.94-12.5 8.97q-7.77 5.74-15.48 11.57-2.42 1.78-4.76 3.67c-1.99 1.64.86 4.45 2.83 2.83Zm44.54-67.53 14.74 5.4c5.36 1.96 10.27 4.9 13.22 9.92 3.22 5.48 4.66 11.84 6.16 17.94a319 319 0 0 1 3.48 15.27 185 185 0 0 1 2.33 16.14 2.06 2.06 0 0 0 2 2 2 2 0 0 0 2-2 231 231 0 0 0-5.6-31.03c-1.6-6.52-3.12-13.17-6.26-19.16-2.98-5.7-7.93-9.53-13.8-11.99-5.62-2.35-11.48-4.26-17.21-6.35-2.42-.88-3.47 2.98-1.06 3.86" class="c"/><path d="M115.29 159.04c.25-5.42.71-10.82 1.09-16.24.4-5.73.4-11.46.4-17.2 0-2.57-4-2.57-4 0 0 5.75 0 11.47-.4 17.2-.38 5.41-.84 10.82-1.09 16.24-.12 2.58 3.88 2.57 4 0" class="c"/><path d="M86.76 173.35c-1.5-1.51-2.88-1.97-5.42-3.02a33 33 0 0 0-3.74-.8c-1.63-.24-2.82-.5-4.47-.62-2.17-.17-3.43-.38-4.32.52a2.5 2.5 0 0 0-.66 2c.16 3 5.46 4.76 7.93 6.5a29 29 0 0 1-7.2 2.24 41 41 0 0 1-4.5-1.43 3.1 3.1 0 0 0-3.35 1.31 2.8 2.8 0 0 0 .69 3.54 12 12 0 0 0 1.7 1.06 5.8 5.8 0 0 0 .32 4.34 7 7 0 0 0 2.58 2.98 15 15 0 0 0 3.67 7.01 7 7 0 0 0 4.3 1.38c7.12-1.6 12.76-5.46 18.4-10.1" class="b"/><path d="M75.07 176.2a27 27 0 0 1-6.73 2.04h1.06a37 37 0 0 1-4.36-1.37 5 5 0 0 0-5.6 1.97 4.85 4.85 0 0 0 .58 5.9 13 13 0 0 0 5.83 2.96c2.5.67 3.56-3.19 1.07-3.85a12 12 0 0 1-2.88-1.13l-.68-.41-.38-.26a.7.7 0 0 1-.28-.46l-.02-.09q.02-.34-.01-.15c-.08.29.15-.56.1-.33q-.04.14.07-.1-.2.27.04 0c-.3.14.23-.14.26-.16.2-.1.46-.23.63-.15-.3-.14.12.08.2.1q.29.12.56.2 1.21.44 2.44.8.54.17 1.08.3a5 5 0 0 0 1.99-.01 32 32 0 0 0 7.05-2.34 2 2 0 0 0 .72-2.73 2.05 2.05 0 0 0-2.74-.72Z" class="c"/><path d="M61.48 184.12a8.6 8.6 0 0 0 3.83 9.58l-.92-1.2a17 17 0 0 0 4.32 8.03c2.01 1.87 5.05 2.08 7.55 1.4 6.75-1.87 12.49-5.87 17.84-10.25 2-1.63-.85-4.44-2.83-2.83a61 61 0 0 1-8.78 6.17 33 33 0 0 1-4.71 2.21q-1.18.44-2.38.78-.61.18-1.24.32c-.95.24.09.11-.42.06a4.2 4.2 0 0 1-2.62-1.14 12 12 0 0 1-2.2-3.64c-.27-.71-.42-1.46-.67-2.17-.35-.99-1.27-1.26-1.88-2.03a4.5 4.5 0 0 1-1.03-4.23c.67-2.49-3.19-3.55-3.86-1.06m26.7-12.19a16 16 0 0 0-6.66-3.63 46 46 0 0 0-8.55-1.4 11 11 0 0 0-3.72.04 4.2 4.2 0 0 0-2.9 2.83c-.76 2.52.63 4.7 2.56 6.18s4.19 2.34 6.16 3.71a2 2 0 0 0 2.74-.72 2.04 2.04 0 0 0-.72-2.73c-1.78-1.24-3.83-2.03-5.6-3.3a7 7 0 0 1-.9-.78l-.26-.3q.18.22-.01-.06l-.18-.32q.13.3.02-.02c-.1-.5.01.53-.02-.3 0-.1.1-.36.09-.29q-.25.15.04-.04l-.14.05.37-.1q-.29.04.1 0a34 34 0 0 1 8.35 1.05 13.3 13.3 0 0 1 6.4 2.95c1.84 1.8 4.67-1.02 2.83-2.83Z" class="c"/><path d="M137.56 159.04a27 27 0 0 1-.93 11.45c-.68 2.7-3.24 6.49-6.46 9.12a61 61 0 0 1-13.6 7.73 176 176 0 0 1-19.79 7.11.9.9 0 0 1-1.06-.54c-.5-1.4-1.2-3.24-2-5.25-2.48-6.25-5.86-14.29-7.12-17.37a.85.85 0 0 1 .47-1.12l6.47-2.7c6.68-2.84 13.8-5.9 19.75-8.43" class="e"/><path d="M135.56 159.04a29 29 0 0 1-.6 9.92 17 17 0 0 1-5.4 8.55 43 43 0 0 1-9.97 6.26 124 124 0 0 1-11.51 4.83q-3.23 1.2-6.5 2.27-1.37.46-2.75.88l-1.26.39-.45.13-.44.13q-.4.09.22.07l.72.72a20 20 0 0 1-1.19-3.05l-1.29-3.27q-1.28-3.2-2.6-6.4l-2.37-5.75-.93-2.25a6 6 0 0 1-.68-1.71l-.27 1q-.6.35.15 0l.84-.36 1.72-.72 3.55-1.49 6.7-2.85 13.05-5.57a2 2 0 0 0 .72-2.74 2.06 2.06 0 0 0-2.74-.71c-8.44 3.57-16.86 7.22-25.32 10.75-1.86.78-2.93 2.2-2.1 4.22l1.65 3.97q2.26 5.45 4.48 10.94 1.21 3 2.35 6.02a6 6 0 0 0 1.34 2.55 3 3 0 0 0 2.92.53 108 108 0 0 0 10.7-3.54c7.93-2.9 16.16-6.1 22.84-11.38 3.27-2.58 6.31-6.28 7.42-10.36a33 33 0 0 0 1-11.98 2.06 2.06 0 0 0-2-2 2 2 0 0 0-2 2" class="c"/></svg>
