<svg viewBox="-54.51 0 318.964 318.964" xmlns="http://www.w3.org/2000/svg"><defs><style>.a{fill:#ffffff;}.b{fill:#c6c6c6;}.c{fill:#211715;}.d{fill:#a095c1;}.e{fill:#febe69;}</style></defs><path class="a" d="M149.276,79.921a7.376,7.376,0,0,1,5.332-1.951,6.842,6.842,0,0,1,6.147,3.415c2.089,3.622,2,10.3.6,14.428-.993,2.924-2.619,7.4-6.54,10.607a8.127,8.127,0,0,1-6.268,1.809l-.6-.1a48.224,48.224,0,0,1-2.159,5.853c-1.578,4.283-10.228,19.2-21.215,25.232,0,1.112.029,2.123.159,4.009a14.467,14.467,0,0,0,.67,3.94,9.664,9.664,0,0,0,2.89,4.21c2.94,2.36,5.95,3.49,9.67,4.89l3.877,1.524c-9.805,6.689-25.993,10.449-39.724,10.758-13.537-.309-29.529-3.969-39.35-10.5l4.537-1.783c3.72-1.4,6.73-2.53,9.67-4.89a9.664,9.664,0,0,0,2.89-4.21,14.467,14.467,0,0,0,.67-3.94c.12-1.638.15-2.608.149-3.564-5.028-2.443-9.552-6.3-13.863-11.462A56.072,56.072,0,0,1,56.176,108.12a7.979,7.979,0,0,1-6.782-1.7c-3.921-3.208-5.548-7.683-6.541-10.607-1.4-4.131-1.49-10.806.6-14.428A6.839,6.839,0,0,1,49.6,77.97a7.372,7.372,0,0,1,5.331,1.951s-9.827-43.8,47.173-43.8S149.276,79.921,149.276,79.921Z"/><path class="b" d="M141,57.318a46.5,46.5,0,0,0-8.239-10.356l-8.114-6.286c-4.47,5.97-11.45,10.031-17.893,12.649-8.392,3.409-14.108,2.632-23.226.434-2.069,1.061-4.272,1.973-6.183,2.722-4.293,1.682-9.249,2.453-13.19,4.848a16.876,16.876,0,0,0-6.716,8.9c-.777,2.167-2.006,7.506-2.505,9.691A7.372,7.372,0,0,0,49.6,77.97a8.884,8.884,0,0,0-2.222.343,58.51,58.51,0,0,1-3.353-18.248c-.03-19.906,8.418-33.564,17.985-39.434C70.616,8.654,85.969,1.605,102.172,2.413a56.647,56.647,0,0,1,28.613,9.369l9.988,7.828c9.745,7.635,17.377,21.107,18.178,40.077a60.071,60.071,0,0,1-2.25,18.587,9.1,9.1,0,0,0-2.093-.3,7.376,7.376,0,0,0-5.332,1.951l-1.846,1.774-.487-5.266A46.027,46.027,0,0,0,141,57.318Z"/><path class="c" d="M56.627,78.224a10.416,10.416,0,0,0-11.376-1.651,9.978,9.978,0,0,0-5.165,6.868C38.32,90.318,40.1,98.3,44.1,104.105c2.872,4.167,6.939,7.156,12.2,6.439a2.415,2.415,0,0,0,1.676-2.953,2.465,2.465,0,0,0-2.952-1.676c-3.731.509-6.614-3.6-8.093-6.43a22.652,22.652,0,0,1-2.638-8.816,19.488,19.488,0,0,1,.264-5.272,10.612,10.612,0,0,1,.683-2.263,6.872,6.872,0,0,1,.365-.676c.056-.091.5-.712.161-.281a5.363,5.363,0,0,1,7.467-.559c2.286,2.068,5.691-1.316,3.394-3.394Z"/><path class="c" d="M150.974,81.618a5.362,5.362,0,0,1,7.466.559c-.333-.419.061.112.116.209.142.247.291.488.41.748a10.555,10.555,0,0,1,.683,2.263,19.446,19.446,0,0,1,.265,5.272,22.673,22.673,0,0,1-2.638,8.816c-1.48,2.834-4.363,6.939-8.093,6.43a2.482,2.482,0,0,0-2.952,1.676,2.417,2.417,0,0,0,1.676,2.953c8.614,1.176,13.629-7.288,15.859-14.393a24.811,24.811,0,0,0,.643-11.329,11.137,11.137,0,0,0-4.455-7.7,10.339,10.339,0,0,0-12.375,1.1c-2.3,2.077,1.108,5.463,3.395,3.394Z"/><path class="c" d="M146.519,104.027a45.3,45.3,0,0,1-1.7,5.922c-.521,1.48-.957,2.4-1.5,3.789.045-.113.185-.4-.036.076-.091.2-.179.393-.272.588-.228.48-.469.956-.717,1.427-.576,1.1-1.193,2.172-1.837,3.231a58.84,58.84,0,0,1-12.651,15.076,23.412,23.412,0,0,1-9.465,4.934c-3.009.695-1.735,5.324,1.276,4.629,7.173-1.657,13.141-6.9,17.821-12.346a63.7,63.7,0,0,0,9.99-15.116q.229-.516.444-1.039c.063-.153.349-.821.075-.191.4-.923.793-1.849,1.146-2.793a46.552,46.552,0,0,0,2.055-6.911,2.46,2.46,0,0,0-1.676-2.953,2.424,2.424,0,0,0-2.953,1.677Z"/><path class="c" d="M52.923,105.135a59.1,59.1,0,0,0,8.4,19.7c4.27,6.388,9.872,12.377,16.655,16.121A33.007,33.007,0,0,0,89.1,144.737a2.479,2.479,0,0,0,2.952-1.676,2.417,2.417,0,0,0-1.676-2.952c-13.946-2.06-24.349-14.1-29.685-26.473a55.877,55.877,0,0,1-3.137-9.777c-.682-3.011-5.311-1.737-4.629,1.276Z"/><path class="c" d="M93.347,119.76A19.215,19.215,0,0,0,102.6,121.9a15.061,15.061,0,0,0,9.339-2.754,2.413,2.413,0,0,0,0-3.394,2.46,2.46,0,0,0-3.394,0c.727-.567.161-.133-.026-.013s-.377.229-.572.332c-.1.053-.2.1-.307.152-.382.2.092,0,.1-.031-.01.078-.7.26-.79.287a13.816,13.816,0,0,1-2.21.5c.354-.053-.069,0-.211.018q-.325.033-.651.054-.785.049-1.571.044c-.469,0-.938-.019-1.406-.051-.215-.015-.43-.032-.645-.053-.023,0-.8-.111-.312-.034a15.847,15.847,0,0,1-2.064-.459c-.289-.086-.571-.19-.857-.287-.613-.21.352.181-.2-.08q-.531-.251-1.049-.523a2.452,2.452,0,0,0-3.284.861,2.426,2.426,0,0,0,.861,3.283Z"/><path class="c" d="M100.552,97.954a43.478,43.478,0,0,1,1.023,4.678l-.086-.638a2.9,2.9,0,0,1,.018.645l.085-.638a1.526,1.526,0,0,1-.071.291l.242-.574a1.165,1.165,0,0,1-.1.187l.375-.486a.95.95,0,0,1-.153.151l.486-.375a2.982,2.982,0,0,1-.371.2l.574-.242a2.716,2.716,0,0,1-.625.182l.638-.086a2.444,2.444,0,0,1-.586,0l.638.086c-.221-.031-.438-.084-.659-.114a1.812,1.812,0,0,0-.957-.043,1.774,1.774,0,0,0-.892.285,2.4,2.4,0,0,0-.861,3.283,2.3,2.3,0,0,0,1.434,1.1c.5.068.992.2,1.5.219a4.809,4.809,0,0,0,2.216-.527,3.2,3.2,0,0,0,1.773-2.109,5.284,5.284,0,0,0-.023-2.27c-.254-1.507-.6-3-.99-4.479a2.4,2.4,0,0,0-4.629,1.276Z"/><path class="c" d="M76.653,84.706c-.782,2.539-.272,8.379,4.537,8.876,6.356-.038,6.694-7.1,4.555-10.418C83.993,80.446,78.841,79.316,76.653,84.706Z"/><path class="c" d="M127.554,84.707c.781,2.538.272,8.378-4.537,8.875-6.356-.039-6.695-7.1-4.555-10.418C120.213,80.446,125.365,79.316,127.554,84.707Z"/><path class="c" d="M60.794,18.561c-14.228,8.829-19.986,27.6-19.109,43.552a59.037,59.037,0,0,0,3.073,16.01A2.46,2.46,0,0,0,47.71,79.8a2.424,2.424,0,0,0,1.677-2.953,54.485,54.485,0,0,1-2.248-26.5c1.208-7.455,3.889-14.963,8.623-20.884a29.521,29.521,0,0,1,7.454-6.759c2.62-1.626.212-5.78-2.422-4.145Z"/><path class="c" d="M134.646,11.5A61.7,61.7,0,0,0,107.593.529a53.389,53.389,0,0,0-30.426,4.53,46.5,46.5,0,0,0-13.2,9.49c-2.153,2.217,1.238,5.615,3.395,3.394C80.735,4.17,101.768,1.664,119.2,8.456a62.352,62.352,0,0,1,13.023,7.183,2.419,2.419,0,0,0,3.283-.861,2.448,2.448,0,0,0-.861-3.283Z"/><path class="c" d="M159.213,78.123A68.363,68.363,0,0,0,161.4,63.184a69.531,69.531,0,0,0-1.308-14.421,54.977,54.977,0,0,0-9.434-22.289,44.68,44.68,0,0,0-8.183-8.561,2.476,2.476,0,0,0-3.394,0,2.417,2.417,0,0,0,0,3.394c12.046,9.511,17.276,24.975,17.521,39.933a61.069,61.069,0,0,1-2.013,15.607c-.734,3,3.893,4.28,4.629,1.276Z"/><path class="c" d="M131.06,48.659a43.948,43.948,0,0,1,13.483,27.77,2.466,2.466,0,0,0,2.4,2.4,2.417,2.417,0,0,0,2.4-2.4,49.054,49.054,0,0,0-14.889-31.164c-2.23-2.138-5.629,1.251-3.394,3.394Z"/><path class="c" d="M123.614,37.964c-3.537,5.407-9.093,9.131-14.841,11.866a34.683,34.683,0,0,1-9.591,3.182,29.5,29.5,0,0,1-9.724-.406,2.467,2.467,0,0,0-2.952,1.676,2.421,2.421,0,0,0,1.676,2.952,36.138,36.138,0,0,0,11.683.495,39.031,39.031,0,0,0,10.988-3.593c6.647-3.109,12.846-7.542,16.906-13.75,1.7-2.593-2.459-5-4.145-2.422Z"/><path class="c" d="M97.048,38.588a49.221,49.221,0,0,1-8.179,8.561,35.033,35.033,0,0,1-5.263,3.842,49.79,49.79,0,0,1-5.861,2.762c-4.265,1.72-8.833,2.586-13.006,4.544a18.336,18.336,0,0,0-8.949,9.622,65.662,65.662,0,0,0-3.174,11.364c-.687,3.007,3.94,4.291,4.628,1.276a89.358,89.358,0,0,1,2.47-9.589,14.288,14.288,0,0,1,7.82-8.7c4-1.753,8.348-2.581,12.388-4.258a55.056,55.056,0,0,0,6.283-2.977,39.242,39.242,0,0,0,5.429-3.969,55.639,55.639,0,0,0,9.559-10.057,2.416,2.416,0,0,0-.861-3.283,2.456,2.456,0,0,0-3.284.861Z"/><path class="c" d="M85.114,112.478a30.149,30.149,0,0,0-2.936,6.82,2.4,2.4,0,0,0,4.628,1.276,27.95,27.95,0,0,1,1.062-3l-.242.573a27.765,27.765,0,0,1,1.633-3.247,2.4,2.4,0,1,0-4.145-2.423Z"/><path class="c" d="M115.666,114.759q.889,1.337,1.7,2.727a27.946,27.946,0,0,1,1.478,2.783l-.242-.574c.04.1.078.193.115.29a2.6,2.6,0,0,0,1.1,1.435,2.451,2.451,0,0,0,1.85.241,2.424,2.424,0,0,0,1.434-1.1,2.355,2.355,0,0,0,.242-1.85,24.45,24.45,0,0,0-1.724-3.454q-.855-1.489-1.808-2.919a2.547,2.547,0,0,0-1.434-1.1,2.452,2.452,0,0,0-1.849.242,2.4,2.4,0,0,0-.861,3.284Z"/><path class="c" d="M62.849,160.577q3.371-1.325,6.747-2.628a35.7,35.7,0,0,0,7.107-3.42,13.4,13.4,0,0,0,5.25-6.184c1.1-2.654,1.121-5.844,1.128-8.693.007-3.088-4.793-3.093-4.8,0-.006,2.623.019,5.635-1.219,7.879-1.267,2.3-3.935,3.714-6.377,4.821-2.878,1.305-6.093,2.41-9.112,3.6A2.471,2.471,0,0,0,59.9,158.9a2.418,2.418,0,0,0,2.952,1.677Z"/><path class="c" d="M122.171,139.222a33.7,33.7,0,0,0,.627,7.613,12.2,12.2,0,0,0,4.534,6.809c3.413,2.608,7.489,3.949,11.441,5.5l3.64,1.43a2.417,2.417,0,0,0,2.952-1.677,2.456,2.456,0,0,0-1.676-2.952c-3.113-1.223-6.357-2.319-9.371-3.715-2.477-1.148-5.021-2.579-6.252-4.954-1.177-2.27-1.09-5.43-1.095-8.057-.006-3.088-4.806-3.093-4.8,0Z"/><path class="d" d="M161.2,165.912a193.627,193.627,0,0,0-18.8-7.867l-.6-.235c-9.8,6.674-25.968,10.425-39.682,10.734-14.135-.322-30.946-4.3-40.607-11.388-7.045,2.783-19.072,8.027-25.3,12.138-13.546,8.935-20.239,23.433-24.408,39a251.278,251.278,0,0,0-8.333,46.089C1.9,270.685,1.905,284.2,4.605,294.642c1.019,3.943,5.689,19,22.523,21.025A29.574,29.574,0,0,0,39.7,314.505a5.733,5.733,0,0,0,.167,1.5,1.234,1.234,0,0,0,1.121.553c4.83.027,112-.1,122.167-.1a1.139,1.139,0,0,0,1.357-1.239c.062-2.351.076-4.81.079-7.266a49.4,49.4,0,0,0,9.648,3.9c5.895,1.64,14.222,2.334,19.868-.515,11.253-5.677,13.416-17.54,13.416-26.285,0-6.7-.412-13.378-.951-20.056-1.319-16.338-3.961-46.1-7.879-57.733a92.164,92.164,0,0,0-10.1-19.8,58.68,58.68,0,0,0-18.423-16.805C167.768,169.231,164.688,167.6,161.2,165.912Z"/><path class="c" d="M61.435,160.037c9.221,6.124,20.631,8.877,31.482,10.222a72.392,72.392,0,0,0,16.78.187,96.523,96.523,0,0,0,17.169-3.347,58.431,58.431,0,0,0,16.23-7.276c2.542-1.724.143-5.885-2.423-4.145-8.53,5.784-19.231,8.531-29.348,9.78a71.926,71.926,0,0,1-15.971.272,90.253,90.253,0,0,1-15.92-3.025,55.346,55.346,0,0,1-15.576-6.813c-2.581-1.714-4.987,2.442-2.423,4.145Z"/><path class="c" d="M162.193,305.689c0,2.634,0,5.268-.046,7.9a5.324,5.324,0,0,0-.035,1.631c.654,1.224.441-1.389,1.043-1.161-.028-.011-.067.007-.1,0a2.262,2.262,0,0,0-.507,0h-2.67l-9.085.008-28.724.028-34.3.034q-15.115.015-30.229.026c-5.35,0-10.7.017-16.05,0a1.864,1.864,0,0,0-.308,0c-.392.069-.045-.349.383.149l.617,1.059c-.178-.448,0,.452-.065-.285-.016-.192-.01-.387-.013-.579-.045-3.086-4.845-3.1-4.8,0a7.362,7.362,0,0,0,.249,2.14,3.6,3.6,0,0,0,3.436,2.315c.2.009.4,0,.593,0q1.189,0,2.381,0l8.929,0q14.735-.009,29.468-.024l35.728-.035q15.421-.015,30.845-.03,5.069-.006,10.138-.009l3.081,0c.333,0,.672.019,1,0a3.951,3.951,0,0,0,2.983-1.333,5.93,5.93,0,0,0,.805-3.7c.051-2.712.05-5.424.05-8.136,0-3.089-4.8-3.094-4.8,0Z"/><path class="c" d="M139.3,159.4c13.757,5.362,28.577,10.5,39.636,20.695a61.454,61.454,0,0,1,12.441,16.663,67.1,67.1,0,0,1,6.638,17.322c2.846,13.06,4.01,26.532,5.21,39.824.671,7.433,1.34,14.878,1.681,22.335.314,6.867.675,13.748-1.4,20.279-1.829,5.764-6,11.23-11.882,13.28-6.71,2.34-14.434.809-20.889-1.644a37.149,37.149,0,0,1-4.937-2.271c-2.7-1.509-5.122,2.635-2.422,4.145a43.282,43.282,0,0,0,22.476,5.621,22.973,22.973,0,0,0,11.408-3.337,24.973,24.973,0,0,0,7.746-7.692c3.445-5.379,4.728-11.913,4.893-18.219.226-8.626-.58-17.291-1.3-25.877-1.2-14.3-2.475-28.671-4.994-42.806a72.374,72.374,0,0,0-5.116-17.353,77.481,77.481,0,0,0-11.84-19.215c-11.245-12.926-27.983-19.582-43.644-25.431-.814-.3-1.621-.632-2.431-.947a2.417,2.417,0,0,0-2.952,1.676A2.455,2.455,0,0,0,139.3,159.4Z"/><path class="a" d="M192.72,168.044l-79.49-19.819c-5.5,22.065-19.6,78.6-27.776,111.4l79.49,19.819Z"/><path class="e" d="M102.006,149.67,75.226,257.078l10.229,2.55c7.845-31.467,23.788-95.413,27.775-111.4L103,145.675Z"/><path class="c" d="M87.968,259.465q5.824-23.359,11.648-46.718,5.9-23.679,11.807-47.358,2.061-8.264,4.121-16.526c.747-3-3.881-4.277-4.629-1.276q-4.41,17.691-8.821,35.382Q95.8,208.22,89.5,233.47q-3.081,12.36-6.163,24.719c-.747,3,3.881,4.277,4.629,1.276Z"/><path class="c" d="M100.446,146.007l-2.322,9.312L92.449,178.08l-7.188,28.831-6.767,27.14-4.5,18.059c-.272,1.093-.593,2.185-.819,3.289a3.51,3.51,0,0,0,2.458,4.253c.409.128.839.209,1.255.313l17.147,4.275,27.96,6.971,26.847,6.694c4.723,1.178,9.433,2.467,14.182,3.536a3.712,3.712,0,0,0,4.645-2.994l1.195-4.791,5.018-20.125,7-28.056,7.039-28.231,5.238-21.01,1.366-5.481c.086-.342.186-.684.257-1.03a3.513,3.513,0,0,0-2.466-4.255c-4.139-1.294-8.489-2.117-12.694-3.165l-26.4-6.581-28.185-7.028-18.448-4.6c-2.09-.521-4.758-1.327-5.9,1.339a2.481,2.481,0,0,0,.861,3.283,2.417,2.417,0,0,0,3.284-.861c-.16.372-2,.069-1.3.424a2.918,2.918,0,0,0,.577.144l2.156.538,7.869,1.961,25.007,6.235,28.128,7.014,20.163,5.027,2.481.618a3.641,3.641,0,0,0,1.148.287c-.686.165-.541-2.547-.99-1.358a14.1,14.1,0,0,0-.383,1.538l-3.914,15.7-6.4,25.681-7.113,28.528-6.044,24.241-3.2,12.821a1.749,1.749,0,0,0-.109.437c.064.833,1.318-1.224,1.7-.8-.115-.127-.664-.165-.823-.2l-5.744-1.432L135.5,269.631l-28.39-7.078L84.025,256.8l-6.084-1.517a5.2,5.2,0,0,0-1.075-.267c1.644.011.611,2.627,1.021,1.312,1.245-4,2.042-8.191,3.054-12.25l5.969-23.939,7.105-28.5,6.462-25.918,4.04-16.206.558-2.235C105.822,144.285,101.194,143.007,100.446,146.007Z"/><path class="c" d="M159.216,230.76l-46.589-11.616c-3-.747-4.276,3.88-1.276,4.629l46.589,11.616c3,.747,4.277-3.881,1.276-4.629Z"/><path class="e" d="M163.268,212.542l-46.407-11.57,7.232-29,46.407,11.57Z"/><path class="c" d="M163.906,210.228,117.5,198.658l1.677,2.952,6.319-25.344.912-3.66-2.952,1.676,46.407,11.571-1.677-2.953-6.319,25.344-.912,3.66c-.748,3,3.88,4.277,4.628,1.276l6.319-25.343.913-3.661a2.437,2.437,0,0,0-1.676-2.952l-46.407-11.57a2.435,2.435,0,0,0-2.952,1.676l-6.319,25.344-.913,3.66a2.436,2.436,0,0,0,1.676,2.952l46.407,11.571C165.628,215.6,166.907,210.976,163.906,210.228Z"/><path class="c" d="M61.045,154.773A201.043,201.043,0,0,0,40,164.291,53.439,53.439,0,0,0,22.329,179.2a73.679,73.679,0,0,0-10.739,21.4,214.225,214.225,0,0,0-6.227,24.116C3.616,233.116,2.4,241.62,1.488,250.157A200.22,200.22,0,0,0,.079,278.308c.383,10.989,2.042,22.67,9.7,31.131a27.6,27.6,0,0,0,17.964,8.695c8.6.863,16.78-2.179,23.885-6.822,1.881-1.23,3.693-2.558,5.471-3.931a2.48,2.48,0,0,0,.861-3.283,2.415,2.415,0,0,0-3.284-.861c-6.227,4.81-13.3,9.437-21.352,10.14-6.492.568-13.325-1.1-18.155-5.36a23.274,23.274,0,0,1-4.724-5.649,31.748,31.748,0,0,1-1.576-2.909c-.1-.215-.2-.43-.3-.647-.063-.141-.36-.839-.145-.32q-.258-.623-.493-1.257a54.705,54.705,0,0,1-2.851-15.053,161.691,161.691,0,0,1,.62-26.1c.763-8.456,1.791-16.893,3.335-25.244,1.444-7.815,3.3-15.568,5.43-23.223a83.567,83.567,0,0,1,8.658-21.063,47.246,47.246,0,0,1,15.146-15.738A135.491,135.491,0,0,1,57.9,161.2q2.2-.923,4.419-1.8A2.472,2.472,0,0,0,64,156.449a2.415,2.415,0,0,0-2.952-1.676Z"/><path class="c" d="M31.2,272.715c5.469-4.052,11.2-7.745,16.666-11.793a2.473,2.473,0,0,0,.861-3.284,2.417,2.417,0,0,0-3.283-.861c-5.472,4.049-11.2,7.741-16.667,11.793a2.474,2.474,0,0,0-.861,3.284,2.418,2.418,0,0,0,3.284.861Z"/><path class="c" d="M35.994,209.828a294.685,294.685,0,0,0,8.33,32.382c.971,2.916,5.608,1.666,4.628-1.277a294.606,294.606,0,0,1-8.329-32.381c-.637-3.02-5.265-1.742-4.629,1.276Z"/><path class="a" d="M165.864,240.442a18.2,18.2,0,0,0-8.222-.51c-2.477.593-4.31,3.1-3.4,5.481a7.207,7.207,0,0,0,3.161,3.176,94.314,94.314,0,0,0,17.207,8.629q-10.452-1.41-20.906-2.813a15.85,15.85,0,0,0-4.436-.177,5.351,5.351,0,0,0-3.745,2.159,5.646,5.646,0,0,0,.32,5.855,6.5,6.5,0,0,0,2.667,2.092l-1.688.247a4.819,4.819,0,0,0-3.985,4.912,6,6,0,0,0,3.391,5.235,20.258,20.258,0,0,0,4.906,1.7c-.746.837-1.22,1.372-1.22,1.372a4.983,4.983,0,0,0-.265,5.674c2.5,4.276,9.946,5.313,15.31,6.082a23.533,23.533,0,0,0,10.777-.906c5.467-1.837,8.9-4.077,11.984-9.9,2.09-3.95,2.682-8.4,2.753-13.1a30.011,30.011,0,0,0-1.759-10.118,13.081,13.081,0,0,0-4.428-5.848c-1.442-1.078-3.141-2.248-4.991-3.4A49.083,49.083,0,0,0,165.864,240.442Z"/><path class="c" d="M172.545,253.833a95.833,95.833,0,0,1-13.346-6.945c-1.054-.661-3.42-1.838-2.649-3.386.584-1.174,2.081-1.383,3-1.43,3.69-.187,7.429,1.017,10.819,2.353a54.343,54.343,0,0,1,11.576,6.5A12.6,12.6,0,0,1,186,255.31a20.28,20.28,0,0,1,1.776,6.2,29.732,29.732,0,0,1-.781,12.636,18.269,18.269,0,0,1-5.949,9.263,20.9,20.9,0,0,1-10.191,3.889,36.384,36.384,0,0,1-13.324-1.576,12.506,12.506,0,0,1-4.814-2.28c-.9-.791-2.132-2.658-1.1-3.936a2.472,2.472,0,0,0,0-3.394,2.418,2.418,0,0,0-3.394,0c-3.534,4.4-1.02,9.913,3.45,12.406,3.836,2.141,8.367,2.765,12.654,3.361a27.942,27.942,0,0,0,15.939-2.445,20.618,20.618,0,0,0,9.339-9.109,30.923,30.923,0,0,0,3.252-16c-.235-5.323-1.513-11.163-5.388-15.057a37.05,37.05,0,0,0-6.563-4.817,51.947,51.947,0,0,0-6.811-3.634c-4.379-1.931-9.24-3.651-14.094-3.56-2.571.048-5.132.716-6.829,2.78a6.272,6.272,0,0,0,.037,8.2c1.937,2.32,5.168,3.825,7.765,5.271a96.1,96.1,0,0,0,9.158,4.47,2.481,2.481,0,0,0,3.283-.861,2.417,2.417,0,0,0-.861-3.284Z"/><path class="c" d="M172.873,254.581q-9.426-1.266-18.853-2.533c-2.849-.382-5.852-.615-8.4.992a6.874,6.874,0,0,0-3.124,6.641c.479,4.652,4.311,7,8.488,8.106,2.965.786,5.975,1.422,8.969,2.087q4.581,1.018,9.171,2c3.012.647,4.3-3.98,1.276-4.629-5.155-1.107-10.311-2.218-15.443-3.427-2.126-.5-4.837-.907-6.57-2.326-1.011-.828-1.634-2.743-.791-3.9,1.17-1.6,4.042-1.06,5.666-.852,6.117.784,12.226,1.643,18.338,2.464a2.484,2.484,0,0,0,2.952-1.676,2.417,2.417,0,0,0-1.676-2.953Z"/><path class="c" d="M146.181,262.266a7.267,7.267,0,0,0-5.747,7.058,8.625,8.625,0,0,0,5.04,7.711c4.405,2.146,9.65,2.619,14.43,3.506,2.039.378,4.077.768,6.121,1.125a2.47,2.47,0,0,0,2.952-1.677,2.42,2.42,0,0,0-1.676-2.952c-4.17-.728-8.325-1.54-12.487-2.3-2.66-.489-6.142-.856-8.285-2.666-1.86-1.57-1.744-4.67.928-5.171a2.423,2.423,0,0,0,1.677-2.952,2.453,2.453,0,0,0-2.953-1.677Z"/><path class="a" d="M60.008,244.287c1.731-5.2,4.067-10.869,6.422-13.728a18.53,18.53,0,0,1,2.339-2.547c.786-.637,3.062-2.214,3.062-2.214a41.279,41.279,0,0,1,17.087-4.353,10.774,10.774,0,0,1,6.134,1.356,4.088,4.088,0,0,1,1.867,4.615,3.75,3.75,0,0,1-2.618,2.61,41.969,41.969,0,0,0-4.067,1.3,48.742,48.742,0,0,0-9.47,4.252l-.612,3.892a126.889,126.889,0,0,1,12.889,2.811,29.454,29.454,0,0,1,6.751,2.633,7.39,7.39,0,0,1,3.544,3.118,5.517,5.517,0,0,1,.638,3.316,3.7,3.7,0,0,1-2.3,3.059,6.749,6.749,0,0,1-4.411.458l-3.14-.714,1.293.92c1.829,1.3,2.084,2.487,2.589,4.093a4.556,4.556,0,0,1-.462,3.45,5.407,5.407,0,0,1-5.189,1.647l-4.48-1.145,1.822,1.3c2.993,2.14,2.225,7.109-.342,7.934-2.087.671-5.512.082-9.165-.2-.385,5.079-5.406,10.062-7.169,11.061a17.25,17.25,0,0,1-7.187,2.111c-5.55-.1-10.158-3.921-13.233-8.532a11.725,11.725,0,0,1-.385-10.847,65.994,65.994,0,0,0,5.706-14.586C58.417,249.4,59.136,246.9,60.008,244.287Z"/><path class="c" d="M73.042,227.87a42.594,42.594,0,0,1,11.825-3.722,26.582,26.582,0,0,1,5.658-.263c1.321.086,3.243.384,3.946,1.676a1.471,1.471,0,0,1-.808,2.151c-1.7.622-3.472,1.078-5.178,1.708a60.948,60.948,0,0,0-8.933,4.084c-2.69,1.518-.274,5.666,2.423,4.144a53.065,53.065,0,0,1,7.963-3.665c1.594-.588,3.189-1.139,4.825-1.6a6.238,6.238,0,0,0,4.115-3.423c1.654-3.643-.448-7.429-3.94-8.922s-7.679-1.09-11.347-.521a47.4,47.4,0,0,0-12.972,4.206,2.42,2.42,0,0,0-.861,3.283,2.452,2.452,0,0,0,3.284.861Z"/><path class="c" d="M64.733,228.862c-3.582,4.443-5.554,10.2-7.3,15.567-.866,2.667-1.534,5.381-2.314,8.072A62.361,62.361,0,0,1,51,263.093c-1.474,2.944-2.568,5.7-2.271,9.076a15,15,0,0,0,4.007,8.738c4.2,4.907,10.56,8.078,17.03,6.207a15.993,15.993,0,0,0,6.884-3.751,20.4,20.4,0,0,0,5.559-8.837c.854-2.975-3.777-4.245-4.629-1.277a15.211,15.211,0,0,1-3.9,6.294,9.112,9.112,0,0,1-4.132,2.6,9.982,9.982,0,0,1-7.392.014,15.9,15.9,0,0,1-5.9-4.5,9.665,9.665,0,0,1-2.77-6.225c-.09-2.92,1.269-5.015,2.463-7.579a70.235,70.235,0,0,0,3.677-9.632c.724-2.436,1.31-4.907,2.068-7.334.846-2.71,1.778-5.4,2.881-8.02.534-1.267,1.119-2.517,1.767-3.729.29-.544.594-1.08.92-1.6.3-.485.68-1.042.869-1.277a2.472,2.472,0,0,0,0-3.394,2.418,2.418,0,0,0-3.394,0Z"/><path class="c" d="M79.514,241.782a122.739,122.739,0,0,1,12.307,2.652,31.64,31.64,0,0,1,5.121,1.729c1.323.616,3.07,1.278,3.974,2.474.732.966,1.078,2.666.135,3.389-1.5,1.153-3.616.422-5.241.03-4.467-1.079-8.907-2.269-13.45-2.994a2.473,2.473,0,0,0-2.952,1.676,2.419,2.419,0,0,0,1.676,2.952c4.256.68,8.424,1.764,12.606,2.789a17.771,17.771,0,0,0,6.027.9,7.824,7.824,0,0,0,5.336-2.63c2.558-3.179,1.257-8.052-1.755-10.436a27.243,27.243,0,0,0-9.619-4.353,120.166,120.166,0,0,0-12.889-2.811,2.475,2.475,0,0,0-2.953,1.677,2.42,2.42,0,0,0,1.677,2.952Z"/><path class="c" d="M94.209,257.142a4.391,4.391,0,0,1,.478.436c.281.285.056-.006.271.325a5.267,5.267,0,0,1,.287.52c.109.22-.065-.208.071.187.157.458.321.923.434,1.394-.085-.351,0,.034,0,.206a4.7,4.7,0,0,1-.026.66c.049-.345-.114.372-.113.367q.139-.277.024-.07c-.077.136-.067.116.031-.058a5.91,5.91,0,0,1-.894.619,3.513,3.513,0,0,1-2.527.027,123.972,123.972,0,0,0-14.167-2.607,2.411,2.411,0,0,0-2.4,2.4,2.461,2.461,0,0,0,2.4,2.4c2.82.367,5.63.82,8.414,1.4,2.845.593,5.94,1.91,8.853,1.232a7.727,7.727,0,0,0,3.9-2.272,5.994,5.994,0,0,0,1.307-4.1A9.273,9.273,0,0,0,96.632,253a2.418,2.418,0,0,0-3.284.861,2.458,2.458,0,0,0,.861,3.284Z"/><path class="c" d="M88.49,266.489c-.546-.4.008.031.114.14q.108.111.207.228c-.215-.288-.248-.33-.1-.123.09.149.178.3.27.449.308.5-.105-.395.027.037.058.188.123.372.168.565.023.095.043.19.06.287.041.26.033.192-.027-.2a4.372,4.372,0,0,0,.005,1.009c-.018.432.125-.6-.02.061-.029.135-.064.269-.1.4-.027.087-.056.173-.087.259q-.137.354.088-.2a3.291,3.291,0,0,0-.248.458c-.291.491.061-.1.079-.077s-.345.343-.341.349c.333-.245.4-.3.2-.156-.066.044-.133.085-.2.123-.294.241.579-.146.071-.034-.167.037-.33.091-.5.125-.679.138.307,0-.146.027-.41.024-.815.051-1.226.05-1.014,0-2.026-.088-3.035-.181a67.9,67.9,0,0,0-6.966-.456,2.4,2.4,0,0,0,0,4.8,59.4,59.4,0,0,1,6.308.393,24.012,24.012,0,0,0,5.242.158,5.941,5.941,0,0,0,4.587-2.591,7.261,7.261,0,0,0,1.091-4.515,7.451,7.451,0,0,0-3.1-5.523,2.407,2.407,0,0,0-3.283.861,2.469,2.469,0,0,0,.861,3.283Z"/></svg>
