<svg xmlns="http://www.w3.org/2000/svg" viewBox="0 -19.07 349.005 349.005"><defs><style>.b{fill:#fff}.c{fill:#211715}</style></defs><path d="M243.5 125.06c4.44-2.34 5.82-6.9 5.99-10.43.31-6.94-1.74-11.5-3.06-16.28-2.69-9.68-4.94-19.36-5.4-30.15-.15-3.46-.21-14.55-.35-18.72-.35-11.86-6.62-24.28-14.18-31.95l-6.4-5.36a36 36 0 0 0-9.3-5.32 58 58 0 0 0-21.85-4.4 51.6 51.6 0 0 0-34.14 11.57c-12.72 10.82-18.78 26.08-17.3 51.23 3.66 19.26.55 32.53 1.39 49.68.23 4.68 6.38 13.85 12.6 12.58Z" style="fill:#a98a75"/><path d="M196.14 38.58c-6.86 8.08-17.27 14.36-28.51 17.9a1.02 1.02 0 0 1-1.3-1.17c.56-2.98.94-5.83 1.21-8.8-6.91 7.68-19.18 16.94-27.59 20.84 1.21 7.16 2.03 14.39 2.94 21 1.44 10.52 4.92 19.98 12.48 25.84a35 35 0 0 0 15.1 7.07l-1.3.74a65 65 0 0 1-7.2 2.94v.04l.83 4.24c.93 4.85 4.66 8.86 9.1 11s9.55 2.62 14.48 2.34c16.32-.95 30.25-9.8 41.66-20.96a61 61 0 0 1-7.6-3.56 11.4 11.4 0 0 1-5.02-4.98 18 18 0 0 1-.96-3.65l-.5-4.08-.17-1.03a65 65 0 0 0 3.75-5.33s1.83-3 2.6-4.7l.48-.92a13 13 0 0 0 6.21-1.64 17.6 17.6 0 0 0 6.43-7.99c1.54-3.33 2.12-8.88.57-12.06a6 6 0 0 0-5.11-3.34 6.7 6.7 0 0 0-4.82 1.2l-8.4-1.72c-5.48-2.62-11.64-11-13.99-15.9a125 125 0 0 1-5.27-13.06m-15.37 198.93c6.57 20.87 15.2 48.35 19.9 63.37a5.64 5.64 0 0 1-2.58 6.58l-.54.3.57-.23c12.08-5.04 51.2-22.43 58.63-25.84L254.09 269s-62.31-27.4-73.21-31.23" class="b"/><path d="M224.57 19c5.49 5.21 9.48 12.44 11.75 19.6a41 41 0 0 1 1.98 11.17c.08 2.78.1 5.56.14 8.34a161 161 0 0 0 1.2 20.58 160 160 0 0 0 5.66 24.21c1.94 6.34 4.12 16.18-3 20.08-2.72 1.48-.3 5.63 2.41 4.14 7.36-4.02 8-12.87 6.58-20.26-.7-3.63-2-7.11-2.96-10.67-1.2-4.42-2.3-8.87-3.16-13.36a128 128 0 0 1-1.9-22.23c-.1-6.93.15-13.92-1.58-20.68-2.27-8.87-7.04-17.96-13.73-24.32-2.24-2.12-5.64 1.27-3.4 3.4Z" class="c"/><path d="M227.95 276.45c-4.15 3.34-7.3 7.87-11.6 12.35-.61.65-3.14 2.34-5.1.83-1.28-.99-1.46-3.48-1-4.49 2.54-5.53 3.57-7.2 5.45-11.07-2.29 2.41-4.08 4.43-6.79 7.17l-2.76 2.8-8.15 8.24c-2.9-9.27-6.5-20.75-10.1-32.18 3.13-4 5.97-8.42 9.83-11.81a18.3 18.3 0 0 1 10.23-4.82 25 25 0 0 1 4.75.16q4.5.47 8.98 1.18c5.42.86 11.5 1.88 15.84-1.8 5.62 4.98 10.72 14.8 13.54 23.96a22 22 0 0 0-2.92 1.7c-.62.43-2.64 2.21-3.31 2.58a46 46 0 0 1-16.55 5.11" class="b"/><path d="M248.13 259.09c-2.85-6.5-6.6-12.52-10.62-16.08-4.33 3.68-10.4 2.66-15.83 1.8q-4.47-.71-8.98-1.18a25 25 0 0 0-4.75-.16 18.3 18.3 0 0 0-10.23 4.82 55 55 0 0 0-7.48 8.71l-83.78-46.71c-3.67-9.4-5.9-16.18-8.72-25.7 6.26-2.05 21.74-6.52 29.57-9.5a148 148 0 0 1 2.6-14.56c1.33-6.5 4.61-16.45 10.89-23.74 4.11-4.77 12.44-8.78 20-11.38q.31-.14.94-.35l1.06 4.16c.94 4.85 4.66 8.86 9.11 11s9.54 2.62 14.47 2.34c16.69-.98 30.87-10.2 42.42-21.71 16.11 4.6 28.88 9.33 37.89 22.33 7.85 11.34 13.33 32.32 15.55 40.55 2.3 8.47 4.68 17.06 6.36 26.87.93 5.1 2.64 15.46 2.75 19.3.1 3.06-.43 9.94-1.3 12.71a28.8 28.8 0 0 1-10 14.87c-7.77 6.24-19.78 11.55-27.66 14.52a70 70 0 0 0-4.26-12.91" style="fill:#f8b8b4"/><path d="m97.51 129.6.35-.05a16 16 0 0 1 2.4-.1l-.85-2.1-5.28-12.42a17 17 0 0 1-1.1-3.14 6.5 6.5 0 0 1 .93-5.16c1.02-1.32 3.1-1.46 4.72-.85 1.78.67 2.77 2.08 3.88 3.86 3.6 5.78 8.34 17.31 10.39 23.84l.52 1.66c2.24-.81 4.64-1.24 6.67-.12a8.6 8.6 0 0 1 3.42 4.56 29 29 0 0 1-1.32 24.16 89 89 0 0 1 3.96 11.36l.1.36c-6.18 2.28-16.09 5.26-23.09 7.41l-.25-.93c-.42-1.56-2.92-9.4-4.24-11.3a24 24 0 0 0-4.22-4.19 91 91 0 0 1-7.48-7.58c-1.3-1.37-2.78-4.8-2.44-6.85a12.5 12.5 0 0 1 2.88-6.65 4.2 4.2 0 0 1 3.27-1.15l-.16-.34a5.4 5.4 0 0 1-1.02-4.38c.51-2.04 1.45-2.46 3.14-2.9l.12-.02.02-1.95a4.3 4.3 0 0 1 1.27-3.15 5.8 5.8 0 0 1 3.41-1.88m112.44-5.83q.08-.04 0 0" class="b"/><path d="M288.13 253.08q9.89 0 19.77-.02l31.03-.04 7.76-.01c3.09 0 3.1-4.8 0-4.8l-20.28.02-30.88.04-7.4.01c-3.09 0-3.1 4.8 0 4.8m-285.81 0q17.77-.01 35.55-.06l5.63-.01c3.1 0 3.1-4.8 0-4.8-11.99 0-23.97.05-35.96.07H2.32c-3.09 0-3.1 4.8 0 4.8" class="c"/><path d="M230.05 123.71c12.33 3.61 24.6 8.16 32.92 18.47 3.82 4.74 6.47 10.42 8.7 16.05a192 192 0 0 1 5.97 17.86 357 357 0 0 1 9.32 38.97c1.77 10.45 3.9 22.01-1.21 31.9-3.24 6.27-8.95 10.37-14.91 13.83a127 127 0 0 1-18.05 8.5q-1.8.7-3.63 1.35a2.46 2.46 0 0 0-1.68 2.95 2.4 2.4 0 0 0 2.95 1.67 149 149 0 0 0 18.13-7.77c6.56-3.35 13.42-7.34 18.08-13.18a32 32 0 0 0 5.02-8.98 34 34 0 0 0 1.77-8.61 46 46 0 0 0 .25-8.06c-.23-2.99-.69-5.96-1.14-8.92a266 266 0 0 0-4-21.3c-1.56-6.63-3.38-13.2-5.19-19.77a233 233 0 0 0-5.49-17.6 88 88 0 0 0-8.41-18.06 47 47 0 0 0-14.28-14.13 79 79 0 0 0-18.6-8.2q-2.62-.84-5.25-1.6c-2.97-.87-4.24 3.76-1.28 4.62Z" class="c"/><path d="M236.97 237.48c4.92-2.1 9.66-4.53 14.47-6.86a2.4 2.4 0 0 0 .86-3.28 2.46 2.46 0 0 0-3.28-.86c-4.81 2.33-9.55 4.76-14.47 6.85a2.4 2.4 0 0 0-.87 3.29 2.5 2.5 0 0 0 3.29.86m3.18-45.22 7.32 26.78c.81 2.98 5.44 1.72 4.63-1.27l-7.32-26.79c-.81-2.97-5.45-1.71-4.63 1.28m-4.77 49.38c-3.4 2.18-7.64 1.7-11.45 1.1-4.71-.71-9.53-1.65-14.32-1.72-9.74-.13-16.14 7.64-21.44 14.77a2.4 2.4 0 0 0 .86 3.28 2.46 2.46 0 0 0 3.28-.86c2.5-3.37 5.1-6.93 8.56-9.39a17 17 0 0 1 5.3-2.6 18 18 0 0 1 6.3-.2c4.45.43 8.84 1.27 13.28 1.78 4.13.47 8.46.28 12.06-2.02 2.6-1.65.19-5.8-2.43-4.14m-37.05 17.47-7.34 7.28a2.4 2.4 0 0 0 3.4 3.4l7.33-7.28a2.4 2.4 0 0 0-3.4-3.4ZM199 280c3.7-4.32 7.75-8.35 11.8-12.35a2.4 2.4 0 0 0-3.4-3.4c-4.05 4-8.1 8.03-11.8 12.36A2.4 2.4 0 0 0 199 280m5.36 9.24c2.72-2.75 5.48-5.48 8.16-8.28 2.36-2.48 4.65-5.03 7.06-7.46a2.4 2.4 0 1 0-3.4-3.4c-2.4 2.44-4.7 4.98-7.06 7.46-2.67 2.8-5.44 5.54-8.16 8.29a2.4 2.4 0 0 0 3.4 3.4Zm23.91-10.48a52 52 0 0 0 14.25-3.74 22 22 0 0 0 5.34-3.07l.98-.8.49-.4c.3-.24-.27.2-.04.03a26 26 0 0 1 2.99-1.75 2.4 2.4 0 0 0-2.43-4.14 25 25 0 0 0-4.61 3.04 17 17 0 0 1-1.43 1.13 22 22 0 0 1-2.93 1.48 44 44 0 0 1-12.6 3.42 2.5 2.5 0 0 0-2.4 2.4 2.4 2.4 0 0 0 2.4 2.4Z" class="c"/><path d="M234.95 243.99c3.87 2.88 6.68 7.5 8.92 11.76a69 69 0 0 1 6 16c.72 3 5.35 1.73 4.63-1.27a73 73 0 0 0-6.68-17.5c-2.64-4.95-5.92-9.76-10.45-13.14a2.4 2.4 0 0 0-3.29.86 2.46 2.46 0 0 0 .86 3.29Zm-22.05 30.33c-.98 1.96-2 3.9-2.96 5.87a41 41 0 0 0-2.03 4.38 7 7 0 0 0-.04 3.9 5.48 5.48 0 0 0 7.5 3.7c2.89-1.14 4.79-3.92 6.75-6.2a61 61 0 0 1 7.53-7.82 2.4 2.4 0 0 0 0-3.4 2.46 2.46 0 0 0-3.4 0c-4.42 3.6-7.64 8.36-11.63 12.4-.06.06-.4.32-.13.13.29-.21-.32.18-.38.22-.11.07-.57.27-.22.13-.14.06-.71.22-.58.2a.6.6 0 0 1-.61-.1c.23.13-.14-.23.08.1l-.21-.38c.1.23.04.16 0-.03l-.16-.65c.08.45.02-.17.01-.33l.01-.3c0 .06-.12.4-.02.18l.05-.25c.12-.35-.1.22.08-.17q.79-1.7 1.6-3.39c.94-1.93 1.94-3.83 2.9-5.75a2.46 2.46 0 0 0-.86-3.29 2.4 2.4 0 0 0-3.28.86Zm-3.92-161.4a58 58 0 0 0 8.78-9.96 47 47 0 0 0 4.45-7.48 2.47 2.47 0 0 0-.87-3.28 2.4 2.4 0 0 0-3.28.86 47 47 0 0 1-4.28 7.25 53 53 0 0 1-8.2 9.22 2.4 2.4 0 0 0 3.4 3.4m-11.5 1.14c-10.24 5.04-22.46 7.7-33.27 2.74a30 30 0 0 1-12.65-10.18 41 41 0 0 1-5.77-15.32c-1.44-7.55-2.03-15.27-3.23-22.86a2.4 2.4 0 0 0-2.95-1.68 2.46 2.46 0 0 0-1.68 2.95c1.14 7.2 1.79 14.5 3.01 21.68a46 46 0 0 0 6.08 17.04c6.64 10.46 19.34 16.33 31.56 15.78 7.53-.35 14.6-2.7 21.32-6a2.4 2.4 0 0 0 .86-3.29 2.45 2.45 0 0 0-3.28-.86" class="c"/><path d="M225.12 71.6a4.8 4.8 0 0 1 4.46-.64 4 4 0 0 1 1.42.82c.08.07.52.57.21.18a5 5 0 0 1 .4.63c1.34 2.48.79 6.21-.03 8.84a16 16 0 0 1-4.82 7.38c-1.89 1.59-5.37 2.95-7.92 1.86a2.5 2.5 0 0 0-3.28.86 2.4 2.4 0 0 0 .86 3.29 13.2 13.2 0 0 0 10.76-.57c3.1-1.44 5.56-4.4 7.17-7.33a22 22 0 0 0 2.77-9.64c.14-3.08-.4-6.53-2.64-8.81a9.55 9.55 0 0 0-11.8-1.01 2.46 2.46 0 0 0-.85 3.28 2.4 2.4 0 0 0 3.28.86Zm-31.04 1.92c.75 2.1.53 7.03-3.49 7.62-5.34.2-5.88-5.73-4.2-8.6 1.37-2.34 5.66-3.47 7.7.98m-32.17.45c.7 2.04.51 6.82-3.17 7.38-4.9.17-5.42-5.58-3.9-8.35 1.26-2.27 5.19-3.36 7.07.97m8.22 9.47a46 46 0 0 0-2.01 4.23l.24-.58a5 5 0 0 0-.6 2.17 3.1 3.1 0 0 0 1.16 2.46 4.4 4.4 0 0 0 1.93 1c.47.09.93.1 1.4.14a2.4 2.4 0 0 0 1.7-.7 2.4 2.4 0 0 0 0-3.4 2.7 2.7 0 0 0-1.7-.7q-.34 0-.69-.04l.64.09a2 2 0 0 1-.48-.13l.57.24a3 3 0 0 1-.46-.27l.49.38-.3-.27.38.49-.11-.2.24.58-.04-.15.09.64v-.31l-.09.63a3 3 0 0 1 .2-.64l-.25.57.38-.9-.24.57c.5-1.19 1.1-2.34 1.7-3.48a2.5 2.5 0 0 0 .24-1.85 2.4 2.4 0 0 0-4.38-.57Zm10.46 26.23a18 18 0 0 0 2.24-2.38 21 21 0 0 0 1.7-2.59c1.18-2.16 2.68-5.66-.09-7.3-1.36-.81-3.22-.43-4.72-.3a189 189 0 0 0-10.1 1.1 2.4 2.4 0 0 0-1.68 2.96 2.5 2.5 0 0 0 2.95 1.67l.54-.07c-.73.11-.22.03-.05 0l1.13-.13 2.54-.3a173 173 0 0 1 7.23-.6l.36-.02a1.4 1.4 0 0 1-1.19-.74 1.6 1.6 0 0 1-.18-.95 4 4 0 0 0-.2.7l-.16.46q-.16.4-.03.11a17 17 0 0 1-1.75 2.98l-.44.6c.26-.32-.2.2-.26.27q-.6.59-1.23 1.14a2.4 2.4 0 0 0 0 3.4 2.45 2.45 0 0 0 3.39 0Zm18.27 200.43c7.83-3.27 15.6-6.7 23.36-10.12q13.45-5.92 26.86-11.91 4.5-2 8.98-4.05a2.4 2.4 0 0 0 .86-3.28 2.46 2.46 0 0 0-3.28-.86 2585 2585 0 0 1-47.24 20.94q-3.17 1.39-6.35 2.75l-2.66 1.14-.76.32-1.05.44a2.5 2.5 0 0 0-1.67 2.95 2.4 2.4 0 0 0 2.95 1.68" class="c"/><path d="M40.55 212.3c30.79.52 101.07.68 126.17.85a8.8 8.8 0 0 1 8.33 6.14c5.97 18.88 19.4 61.64 25.72 81.85a5.63 5.63 0 0 1-5.4 7.32c-27.2-.1-100.47-.36-128.64-.93a5.6 5.6 0 0 1-5.26-3.97 16431 16431 0 0 0-26.39-83.9 5.64 5.64 0 0 1 5.47-7.35" class="b"/><path d="M40.55 214.7c14.38.24 28.76.34 43.14.43q25.2.16 50.4.26l21.2.1 8.28.04c3.07.01 6.22-.17 8.25 2.62a15 15 0 0 1 1.76 4.44l1.41 4.48 3.37 10.7 7.81 24.84 7.69 24.5 3.23 10.32c.78 2.48 3.06 6.79-.32 8.33-1.14.52-2.6.3-3.83.29l-3.98-.01-9.17-.04-21.92-.1q-24.94-.1-49.88-.3c-13.5-.1-26.99-.2-40.48-.46-1.5-.03-2.92-.39-3.61-1.9a32 32 0 0 1-1.2-3.81l-2.9-9.3q-3.63-11.62-7.29-23.23-7.17-22.82-14.4-45.62c-.42-1.33-1.2-2.86-.77-4.24a3.3 3.3 0 0 1 3.21-2.33c3.09-.04 3.1-4.84 0-4.8a8.13 8.13 0 0 0-7.95 9.71 47 47 0 0 0 1.42 4.62l1.57 4.96q3.76 11.85 7.5 23.71 7.4 23.5 14.74 47.01c1.1 3.55 1.85 7.46 5.56 9.21 2.8 1.32 6.54.86 9.6.9q10.26.17 20.53.26 25.37.24 50.74.35 22.46.12 44.93.2l4.05.01a13 13 0 0 0 5.08-.56 8.1 8.1 0 0 0 4.78-5.2c.65-2.15.12-4.15-.53-6.21q-3.46-11.09-6.94-22.17-7.82-24.93-15.68-49.85c-1.01-3.22-1.78-6.73-3.21-9.78-2.03-4.33-6.35-6.31-10.93-6.34l-17.94-.1q-24.9-.1-49.8-.23c-16.19-.09-32.38-.18-48.57-.38q-4.48-.05-8.95-.13c-3.09-.05-3.09 4.75 0 4.8M193.93 39.48c1.99 5.95 4.28 12.15 7.69 17.46 3.16 4.91 7.32 10.29 12.67 12.94a2.46 2.46 0 0 0 3.29-.86 2.4 2.4 0 0 0-.87-3.29c-4.74-2.34-8.36-7.13-11.13-11.5-3.1-4.9-5.2-10.55-7.03-16.02-.97-2.91-5.61-1.66-4.62 1.28Z" class="c"/><path d="M194.44 36.89a52 52 0 0 1-12.3 10.38 68 68 0 0 1-7.49 3.98q-1.82.83-3.68 1.53a22 22 0 0 1-4.29 1.43h1.28q.71 2.1.82 1.03l.08-.46.2-1.16.33-2.3q.33-2.4.56-4.81c.2-2.07-2.76-3.17-4.1-1.7a93 93 0 0 1-25.06 19.45c-2.73 1.45-.3 5.6 2.42 4.15a96 96 0 0 0 13.8-9.13 94 94 0 0 0 12.23-11.08l-4.1-1.7q-.3 3.4-.87 6.76c-.22 1.31-.61 2.6.06 3.85a3.4 3.4 0 0 0 2.35 1.72 6 6 0 0 0 3.18-.57q1.6-.54 3.16-1.16 2.93-1.14 5.75-2.51a59 59 0 0 0 19.06-14.31 2.46 2.46 0 0 0 0-3.4 2.4 2.4 0 0 0-3.39 0Zm34.75 82.58a53 53 0 0 1-6.5-2.94c-2-1.06-3.76-2.15-4.78-3.88a6 6 0 0 1-.41-.8c.17.42-.1-.32-.1-.33q-.26-.89-.44-1.8c-.02-.12-.2-.6-.14-.72-.07.14.07.6.03.28l-.08-.63-.4-3.32a2.5 2.5 0 0 0-2.4-2.4 2.4 2.4 0 0 0-2.4 2.4c.4 3.32.5 7.06 2.33 9.96a16 16 0 0 0 6.15 5.27 62 62 0 0 0 7.86 3.54 2.4 2.4 0 0 0 2.95-1.68 2.45 2.45 0 0 0-1.67-2.95" class="c"/><path d="M160.49 129.85a18.3 18.3 0 0 0 8.58 11.55c4.75 2.9 10.52 3.77 16 3.62 10.43-.3 20.5-3.9 29.3-9.42a92 92 0 0 0 13.83-10.82c2.25-2.11-1.14-5.5-3.4-3.4-6.7 6.3-14.34 11.88-22.95 15.26a51 51 0 0 1-13.41 3.36c-4.84.48-9.94.4-14.5-1.48-4.3-1.77-7.86-5.3-8.83-9.94-.62-3.02-5.25-1.74-4.62 1.28Z" class="c"/><path d="M293.1 99.66a3.3 3.3 0 0 1-.38-2.44 72 72 0 0 1 4.15-13.34s.28-.42.66-1a87 87 0 0 0 16.21 6.58l-.03 1.2c.4.98-2.79 8.83-4.43 12.03a6 6 0 0 1-1.12 1.53 5.4 5.4 0 0 1-3.15 1 62 62 0 0 1-9.08-3.43 7 7 0 0 1-2.76-2z" class="b"/><path d="M327.87 53.9q.65.72 1.26 1.55a19.1 19.1 0 0 1 2.23 19.76 24 24 0 0 1-5.47 7.78 27 27 0 0 1-5.7 4.42 26 26 0 0 1-5.45 2.32 83 83 0 0 1-18.35-7.5c-3.04-2.84-4.5-9.58-4.3-13.23a27 27 0 0 1 1.4-7.85 23 23 0 0 1 4.58-7.51 19.6 19.6 0 0 1 9.9-6.17 22.6 22.6 0 0 1 12.62 1.14 21 21 0 0 1 7.28 5.28" style="fill:#ffda71"/><path d="M326.17 55.59a17.4 17.4 0 0 1 3.03 18.61 24.4 24.4 0 0 1-15.1 13.22h1.28a76 76 0 0 1-14.86-5.67 9 9 0 0 1-3.03-1.84 11 11 0 0 1-1.56-2.83 21 21 0 0 1-1.46-7.04 21.3 21.3 0 0 1 5.3-14.7c3.41-3.72 7.74-6.07 12.9-5.94a18 18 0 0 1 3.34.37q.93.18 1.84.43.61.17 1.21.38l.9.34q-.65-.27-.29-.11a22 22 0 0 1 6.5 4.78c2.09 2.3 5.47-1.11 3.4-3.4-6.5-7.13-17.34-9.8-26.2-5.6a24 24 0 0 0-8.6 7.3 26.3 26.3 0 0 0-5.1 15.36 22.4 22.4 0 0 0 3.51 12.86 8 8 0 0 0 2.61 2.55q1.65.93 3.35 1.75a93 93 0 0 0 13.75 5.3 5 5 0 0 0 3.09.15 29 29 0 0 0 14.18-10.03 24 24 0 0 0 5.36-15.36 23 23 0 0 0-5.95-14.27c-2.04-2.34-5.42 1.07-3.4 3.39m-31.26 38.57a147 147 0 0 0 14.77 5.53 2.4 2.4 0 0 0 2.95-1.68 2.45 2.45 0 0 0-1.68-2.95q-3.5-1.1-6.94-2.39-1.83-.67-3.65-1.4-.88-.34-1.75-.7l-.42-.18q.34.14-.05-.03l-.8-.34a2.47 2.47 0 0 0-3.28.86 2.43 2.43 0 0 0 .86 3.28Z" class="c"/><path d="M294.8 82.66c-1.54 2.75-2.35 6.1-3.21 9.1a44 44 0 0 0-1.18 4.82 6.26 6.26 0 0 0 3.5 6.87 49 49 0 0 0 5.53 2.41 27 27 0 0 0 4.93 1.68 6.7 6.7 0 0 0 6.28-2.55 22 22 0 0 0 2.25-4.42 84 84 0 0 0 2.38-6c.46-1.32 1.2-3.13.75-4.55-.95-2.92-5.58-1.67-4.63 1.28.03.09-.05-.77-.06-.2 0-.36.06-.4-.05.09q-.2.85-.5 1.68a68 68 0 0 1-3.24 7.92 9 9 0 0 1-.98 1.65c.1-.12.47-.25.06-.08q-.22.1-.44.23c-.63.3-.27.12-.2.1-.03 0-.68.26-.48.16-.25.13-.33-.02-.03.03l-.36-.08-.96-.28q-1.24-.41-2.47-.9a85 85 0 0 1-4.25-1.76 8 8 0 0 1-1.99-1.1c-.43-.39-.44-.64-.34-1.28a38 38 0 0 1 1.06-4.3q.75-2.63 1.64-5.2.34-1 .72-1.98l.16-.42-.03.07.28-.56c1.51-2.7-2.63-5.12-4.14-2.42Zm45.47-43.53q-2.62 2-5.27 3.97a2.6 2.6 0 0 0-1.1 1.43 2.5 2.5 0 0 0 .24 1.85 2.4 2.4 0 0 0 1.44 1.1 2.3 2.3 0 0 0 1.84-.24q2.65-1.97 5.28-3.97a2.7 2.7 0 0 0 1.1-1.44 2.5 2.5 0 0 0-.24-1.85 2.4 2.4 0 0 0-1.44-1.1 2.3 2.3 0 0 0-1.85.25m-11.72-1.7q.42-1.13.89-2.24l-.24.58q.64-1.52 1.36-3.01a2.6 2.6 0 0 0 .24-1.85 2.5 2.5 0 0 0-1.1-1.44 2.4 2.4 0 0 0-1.85-.24 2.4 2.4 0 0 0-1.43 1.1 76 76 0 0 0-2.5 5.81 2.4 2.4 0 0 0 .24 1.85 2.4 2.4 0 0 0 3.28.86l.49-.37a2.4 2.4 0 0 0 .61-1.06Zm-12.32-2.32c-.3-2.2-.65-4.41-1.14-6.59a2.4 2.4 0 0 0-2.95-1.67 2.45 2.45 0 0 0-1.68 2.95c.5 2.17.84 4.38 1.14 6.59a2.4 2.4 0 0 0 1.1 1.43 2.5 2.5 0 0 0 1.85.24 2.4 2.4 0 0 0 1.44-1.1l.24-.57a2.4 2.4 0 0 0 0-1.28m5.9 40.24a10.4 10.4 0 0 0-2.79-6.4c-1.5-1.74-3.54-3.68-5.88-4.08-4.95-.85-9.72 3.67-8.1 8.71a6.7 6.7 0 0 0 4.74 4.43 6 6 0 0 0 3.44.06 7.5 7.5 0 0 0 3.11-2.18 7.3 7.3 0 0 0 1.67-6.78 10.7 10.7 0 0 0-3.76-5.36 10.8 10.8 0 0 0-7.9-2.62 10.6 10.6 0 0 0-7.12 4.18 2.5 2.5 0 0 0 0 3.4 2.4 2.4 0 0 0 3.39 0c1.73-2.2 4-3.62 6.8-2.4a8 8 0 0 1 3.22 2.58c-.07-.09.32.53.38.63l.24.47.21.83c-.01-.14-.09.87-.02.56a2 2 0 0 1-.24.69 3 3 0 0 1-.34.52 6 6 0 0 1-.62.6c-.01.01-.85.45-.51.32.47-.18-.41-.05-.15-.01a6 6 0 0 1-.9-.23c-.4-.12.3.17-.07-.03l-.44-.25c.05.04-.4-.43-.24-.2a2.3 2.3 0 0 1-.42-1.13 2 2 0 0 1 .25-1.07l.39-.4c.03-.03.27-.21.04-.04-.25.19.1-.06.17-.1l.38-.21c.33-.2-.3.1.06-.04a6 6 0 0 1 .82-.24c-.39.08.33 0 .37-.01a2.3 2.3 0 0 1 1.42.66 18 18 0 0 1 1.93 1.81 8 8 0 0 1 1.24 1.76 4 4 0 0 1 .43 1.58 2.45 2.45 0 0 0 2.4 2.4 2.4 2.4 0 0 0 2.4-2.4Zm-197.57 89.16a32 32 0 0 0 3.43-15.07c-.12-4.8-1.18-10.53-4.23-14.38-3.74-4.72-9.52-3.01-14.17-.87-4.47 2.06-9.27 6.08-7.96 11.62a6.7 6.7 0 0 0 5.53 5.12 11 11 0 0 0 4.49-.78l4.76-1.54c2.93-.94 1.68-5.58-1.27-4.63-2.08.68-4.15 1.43-6.25 2.01-1.19.33-2.08.13-2.54-1.13-1.21-3.35 3.8-5.7 6.06-6.7a12.5 12.5 0 0 1 4.9-1.42c1.7 0 2.69 1.04 3.45 2.45a23.5 23.5 0 0 1 2.44 10.68 26.5 26.5 0 0 1-2.79 12.22c-1.38 2.75 2.76 5.18 4.15 2.42" class="c"/><path d="M120.3 165.26a79 79 0 0 1 3.6 10.48 2.4 2.4 0 1 0 4.62-1.28 79 79 0 0 0-3.6-10.47 2.6 2.6 0 0 0-1.1-1.44 2.5 2.5 0 0 0-1.85-.24c-1.1.36-2.18 1.71-1.67 2.95" class="c"/><path d="M128.21 172.16c-10.07 4.14-20.76 6.74-31.1 10.12a2.44 2.44 0 0 0-1.67 2.95 325 325 0 0 0 8.71 25.7 2.47 2.47 0 0 0 2.95 1.67 2.4 2.4 0 0 0 1.68-2.95 322 322 0 0 1-8.72-25.7l-1.68 2.95c10.35-3.37 21.03-5.98 31.1-10.11a2.5 2.5 0 0 0 1.68-2.96 2.4 2.4 0 0 0-2.95-1.67m-26.73-46.03c-1.78-4.19-3.62-8.36-5.34-12.57-.62-1.53-1.32-3.4-.56-5.02.46-.99 1.69-.8 2.53-.4 1.2.59 1.93 1.97 2.6 3.07a58 58 0 0 1 2.13 3.87q2.25 4.48 4.15 9.14c1.34 3.25 2.6 6.54 3.65 9.9.93 2.93 5.56 1.68 4.63-1.28a128 128 0 0 0-8.99-21.53c-1.74-3.26-3.83-7.28-7.8-8.08a6.4 6.4 0 0 0-6.21 1.7 8.3 8.3 0 0 0-1.7 6.47c.35 2.94 1.9 5.72 3.05 8.42l3.72 8.74a2.4 2.4 0 0 0 3.28.86 2.46 2.46 0 0 0 .86-3.29" class="c"/><path d="M94.68 156.91c2.72 2.15 6.82 5.62 10.45 3.73a6.54 6.54 0 0 0 2.31-8.98 27 27 0 0 0-4.94-4.88 22 22 0 0 0-8.41-4.47c-2.72-.83-6.47-.85-8.44 1.52-2.07 2.48-3.76 6.06-3.49 9.37.29 3.46 2.06 6.16 4.35 8.62a87 87 0 0 0 7.11 7.03 14 14 0 0 1 3.42 3.65 23 23 0 0 1 1.31 3.12c.85 2.29 1.66 4.6 2.3 6.96.81 2.98 5.44 1.71 4.63-1.28a64 64 0 0 0-3.87-10.76c-1.15-2.4-3.24-4.08-5.2-5.78a73 73 0 0 1-5.78-5.76c-1.6-1.74-3.14-3.28-3.47-5.8a8 8 0 0 1 .67-3.53 7 7 0 0 1 1.7-2.8c-.22.18.35-.16.15-.07l.57-.15a6 6 0 0 1 1.57 0 17 17 0 0 1 3.23.97 16 16 0 0 1 4.91 3.13q1.39 1.19 2.69 2.47a9 9 0 0 1 1.04 1.11c-.24-.34.05.2.06.57.01.75-.27 1.5-.93 1.44a7 7 0 0 1-2.21-1.19 25 25 0 0 1-2.33-1.63 2.5 2.5 0 0 0-3.4 0 2.4 2.4 0 0 0 0 3.4Z" class="c"/><path d="M92.27 142.18c.39.49.04.03-.03-.1-.04-.06-.3-.64-.12-.18l-.2-.65c-.02-.04-.12-.73-.08-.3a4 4 0 0 1 0-.72c-.04.4.06-.21.08-.3.02-.06.18-.62.07-.27-.1.31.11-.2.15-.27l.12-.2q-.32.4-.14.2c.1-.05.36-.45.13-.14-.2.28-.03 0 .12-.04.46-.14-.48.15-.03 0 .33-.1.67-.17.99-.29q-.39.03-.1 0h.33q.34 0 .67.02a11 11 0 0 1 2.4.42q1.33.33 2.61.77c.51.18-.15-.1.29.12q.3.15.61.33c.01 0 .61.41.27.15a5 5 0 0 1 .5.46c.08.08.45.57.2.2l.35.57c.22.36-.01-.09.07.14a7 7 0 0 1 .21.75 2.4 2.4 0 0 0 2.96 1.68 2.45 2.45 0 0 0 1.67-2.95 8.6 8.6 0 0 0-5.63-6 19 19 0 0 0-7.4-1.47c-2.22.13-4.56 1.14-5.54 3.23a7.7 7.7 0 0 0 1.07 8.23 2.4 2.4 0 0 0 3.4 0 2.47 2.47 0 0 0 0-3.4Z" class="c"/><path d="M95.23 134.64v-.48c-.03.23.13-.35.05-.17-.04.1.2-.36.24-.44 0-.01.23-.34.1-.17a6 6 0 0 1 .74-.75c.16-.15.18-.12 0 0q.23-.16.45-.28c.07-.04.51-.25.15-.1q.24-.1.47-.16l.65-.15c.43-.08-.25.02.2-.03a16 16 0 0 1 2.65-.03l.52.04c.06 0 .7.09.39.04l.3.05.68.12a15 15 0 0 1 2.05.5 5 5 0 0 1 .6.32c.07.04.5.38.23.14l.35.33.17.19q-.13-.2 0 .01l.28.44c.04.08.22.52.13.24l.14.5c-.08-.33.01.33.01.39a2.4 2.4 0 0 0 4.8 0 7.6 7.6 0 0 0-3.69-6.38 16 16 0 0 0-6.95-1.72 11.3 11.3 0 0 0-6.83 1.29 7.4 7.4 0 0 0-3.68 6.26 2.4 2.4 0 0 0 4.8 0m34.64 39.09c.55-4.32 1.5-8.58 2.41-12.84a59 59 0 0 1 4-12.33c1.96-4.3 4.45-8.7 8.01-11.88 3.65-3.25 8.3-5.5 12.8-7.33 1.44-.58 2.9-1.07 4.35-1.63.08-.03 1.04-.42.31-.13l.61-.24 1.31-.49a48 48 0 0 0 6.72-2.79c2.7-1.5.28-5.64-2.43-4.14-3.65 2.02-7.79 3.06-11.55 4.55a55 55 0 0 0-14.54 7.99c-3.95 3.19-6.84 7.73-9.06 12.24a64 64 0 0 0-4.87 13.61 153 153 0 0 0-2.87 15.41 2.4 2.4 0 0 0 2.4 2.4 2.46 2.46 0 0 0 2.4-2.4" class="c"/><path d="M221.3 10.1C209.2 1.12 192.56-1.65 177.88.9a51.6 51.6 0 0 0-30.5 17.15c-7.67 9.08-11.19 20.4-12.17 32.12a99 99 0 0 0-.28 10.52 40 40 0 0 0 .45 6.17q.56 3.05.9 6.14a150 150 0 0 1 .43 22.46c-.14 3.6-.3 7.22-.34 10.83-.05 3.41-.34 7.15.4 10.51 1.15 5.34 5.6 11.18 10.93 12.82a9 9 0 0 0 4.45.2 2.4 2.4 0 0 0 1.67-2.96 2.45 2.45 0 0 0-2.95-1.67 5 5 0 0 1-2.52-.43 10 10 0 0 1-2.82-2.07 16 16 0 0 1-3.83-6.06 11 11 0 0 1-.38-1.46c.07.39-.01-.1-.02-.24l-.07-1.73q-.1-2.64-.08-5.27.05-5.15.28-10.29a184 184 0 0 0 0-20.87c-.3-3.98-1.08-7.87-1.53-11.82a72 72 0 0 1-.14-10.57c.4-10.9 2.81-21.77 9.27-30.7a45.8 45.8 0 0 1 25.04-17 56 56 0 0 1 21.61-1.37 50 50 0 0 1 18.16 5.59 49 49 0 0 1 5.05 3.35 2.4 2.4 0 0 0 3.29-.86 2.46 2.46 0 0 0-.86-3.29Zm-88.59 169.88a339 339 0 0 0 4.69 13.9 2.4 2.4 0 1 0 4.63-1.27 355 355 0 0 1-4.7-13.9 2.4 2.4 0 1 0-4.62 1.27" class="c"/></svg>
