<svg viewBox="0 0 32 32" fill="none" xmlns="http://www.w3.org/2000/svg"><path d="M15.3477 3.66632C16.921 3.66632 18.2968 3.66626 19.4922 3.70538C20.0441 3.72345 20.4769 4.18577 20.459 4.73761C20.4409 5.2896 19.9787 5.72247 19.4268 5.70441C18.2675 5.66646 16.9232 5.66632 15.334 5.66632C12.4774 5.66632 10.4355 5.66866 8.88379 5.87726C7.36092 6.082 6.46072 6.46935 5.79883 7.13116C5.13694 7.79305 4.74969 8.69323 4.54492 10.2161C4.3363 11.7678 4.33398 13.8098 4.33398 16.6663C4.33398 19.523 4.33629 21.5657 4.54492 23.1175C4.7497 24.6402 5.13699 25.5406 5.79883 26.2025C6.46071 26.8642 7.36104 27.2516 8.88379 27.4564C10.4355 27.665 12.4774 27.6663 15.334 27.6663C18.1905 27.6663 20.2324 27.665 21.7842 27.4564C23.3069 27.2516 24.2073 26.8642 24.8691 26.2025C25.531 25.5406 25.9183 24.6402 26.123 23.1175C26.3317 21.5657 26.334 19.523 26.334 16.6663C26.334 15.0772 26.3338 13.7328 26.2959 12.5735C26.2779 12.0216 26.7108 11.5594 27.2627 11.5413C27.8146 11.5233 28.2768 11.9562 28.2949 12.5081C28.334 13.7035 28.334 15.0794 28.334 16.6526V16.7425C28.334 19.5063 28.334 21.6827 28.1055 23.3831C27.8709 25.1278 27.3795 26.5211 26.2842 27.6165C25.1887 28.712 23.7956 29.2032 22.0508 29.4378C20.3504 29.6664 18.1741 29.6663 15.4102 29.6663H15.2578C12.4939 29.6663 10.3176 29.6664 8.61719 29.4378C6.87242 29.2032 5.47924 28.712 4.38379 27.6165C3.28845 26.5211 2.79707 25.1278 2.5625 23.3831C2.33393 21.6827 2.33397 19.5063 2.33398 16.7425V16.5911C2.33397 13.8271 2.33388 11.65 2.5625 9.94952C2.79707 8.20503 3.28862 6.81245 4.38379 5.7171C5.47924 4.62165 6.87242 4.12942 8.61719 3.89484C10.3176 3.66624 12.494 3.6663 15.2578 3.66632H15.3477ZM21.2939 13.2933C21.6845 12.9028 22.3175 12.9028 22.708 13.2933C23.0982 13.6838 23.0984 14.3169 22.708 14.7073L18.9844 18.431C18.0732 19.3422 16.5948 19.3422 15.6836 18.431L13.5693 16.3167C13.4392 16.1867 13.2288 16.1867 13.0986 16.3167L9.37402 20.0403C8.98349 20.4307 8.35043 20.4308 7.95996 20.0403C7.56965 19.6499 7.56965 19.0168 7.95996 18.6263L11.6836 14.9026C12.5948 13.9914 14.0732 13.9914 14.9844 14.9026L17.0986 17.0169C17.2287 17.1467 17.4392 17.1467 17.5693 17.0169L21.2939 13.2933ZM26.001 2.33331C28.0259 2.33349 29.667 3.97537 29.667 6.00031C29.6668 8.02509 28.0258 9.66614 26.001 9.66632C23.976 9.66632 22.3342 8.0252 22.334 6.00031C22.334 3.97526 23.9759 2.33331 26.001 2.33331ZM26.001 4.33331C25.0805 4.33331 24.334 5.07983 24.334 6.00031C24.3342 6.92063 25.0806 7.66632 26.001 7.66632C26.9212 7.66614 27.6668 6.92052 27.667 6.00031C27.667 5.07994 26.9213 4.33349 26.001 4.33331Z" fill="currentColor"/></svg>
