<svg xmlns="http://www.w3.org/2000/svg" fill="currentColor" preserveAspectRatio="xMidYMid" viewBox="0 0 31.812 31.906"><path d="M23.26 9.97h4.56a1 1 0 0 1 1 1c0 .55-.36.94-.91.94h-6.76q-.15.05-.29.05a1 1 0 0 1-.7-.29 1 1 0 0 1-.25-.9V3.91c0-.56.4-.92.95-.92a1 1 0 0 1 1 1v4.57L30.1.29a1 1 0 0 1 1.4 0 1 1 0 0 1 0 1.4zM11.91 27.92a1 1 0 1 1-1.98 0v-4.58l-8.25 8.27a1 1 0 0 1-1.4 0 1 1 0 0 1 0-1.4l8.24-8.28H3.96a1 1 0 0 1 0-1.99h6.96a1 1 0 0 1 1 1zm-.99-15.96a1 1 0 0 1-.3-.05h-6.7a.9.9 0 0 1-.94-.94 1 1 0 0 1 .99-1h4.56L.27 1.7a1 1 0 0 1 0-1.41 1 1 0 0 1 1.41 0l8.25 8.27V3.99a1 1 0 1 1 1.98 0v6.98a1 1 0 0 1-.99 1m9.25 8.26a1 1 0 0 1 .7-.28h6.95a1 1 0 0 1 0 2h-4.56l8.25 8.26a1 1 0 0 1-.7 1.7q-.4 0-.7-.29l-8.25-8.27v4.58a1 1 0 0 1-1 1c-.55 0-.95-.46-.95-1.01v-6.78a1 1 0 0 1 .25-.9z"/></svg>
