<svg xmlns="http://www.w3.org/2000/svg" viewBox="0 0 32 32"><defs><style>.cls-2{fill:#17061c}</style></defs><g id="verify"><path id="bg" d="M0 0h32v32H0z" style="fill:none"/><path d="m16.11 30-9.53-5.74V5.61a2.9 2.9 0 0 1 2.76-3h13.55a2.9 2.9 0 0 1 2.77 3v18.74Zm-7.53-6.9 7.54 4.57 7.54-4.49V5.61a.9.9 0 0 0-.77-1H9.34c-.41 0-.76.46-.76 1Z" class="cls-2"/><path d="M15.52 20.72a1 1 0 0 1-.6-.2l-3-2.24a1 1 0 0 1-.2-1.4 1 1 0 0 1 1.4-.2l3 2.24a1 1 0 0 1-.6 1.8" class="cls-2"/><path d="M15.52 20.72a1 1 0 0 1-.61-.21 1 1 0 0 1-.17-1.4l4.18-5.35A1 1 0 1 1 20.49 15l-4.18 5.34a1 1 0 0 1-.79.38" class="cls-2"/><path d="M9.58 3.61h13.08a2 2 0 0 1 2 2v4.25H7.58V5.61a2 2 0 0 1 2-2" style="fill:#ff4a64"/><path d="M25.66 10.86H6.58V5.61a3 3 0 0 1 3-3h13.08a3 3 0 0 1 3 3Zm-17.08-2h15.08V5.61a1 1 0 0 0-1-1H9.58a1 1 0 0 0-1 1Z" class="cls-2"/></g></svg>
