<svg xmlns="http://www.w3.org/2000/svg" viewBox="0 0 32 32"><defs><style>.cls-2{fill:#17061c}</style></defs><g id="favorite"><path id="bg" d="M.01-.24h32v32h-32z" style="fill:none"/><path d="M25.89 30.68 16 25l-9.86 5.68V4.55a3 3 0 0 1 3-3h13.75a3 3 0 0 1 3 3ZM9.14 3.55a1 1 0 0 0-1 1v22.68L16 22.72l7.88 4.51V4.55a1 1 0 0 0-1-1Z" class="cls-2"/><path d="M9.14 2.55h13.75a2 2 0 0 1 2 2v4.07H7.14V4.55a2 2 0 0 1 2-2" style="fill:#ff4a64"/><path d="M25.89 9.62H6.14V4.55a3 3 0 0 1 3-3h13.75a3 3 0 0 1 3 3Zm-17.75-2h15.75V4.55a1 1 0 0 0-1-1H9.14a1 1 0 0 0-1 1ZM16 20.25a1 1 0 0 1-1-1v-5.18a1 1 0 0 1 2 0v5.18a1 1 0 0 1-1 1" class="cls-2"/><path d="M18.6 17.66h-5.18a1 1 0 1 1 0-2h5.18a1 1 0 0 1 0 2" class="cls-2"/></g></svg>
