<svg xmlns="http://www.w3.org/2000/svg" fill="none" viewBox="0 0 16 16"><g clip-path="url(#clip0_2826_29192)"><path fill="currentColor" d="M11.49 8.03q-.46-.22-.94-.38a4.25 4.25 0 1 0-5.1 0 8.1 8.1 0 0 0-5.4 6.06A1.9 1.9 0 0 0 1.9 16h7.7a.62.62 0 1 0 0-1.25H1.9a.65.65 0 0 1-.63-.79 6.9 6.9 0 0 1 9.68-4.8.63.63 0 0 0 .54-1.13m-3.34-.78h-.3a3 3 0 1 1 .3 0"/><path fill="currentColor" d="M15.38 12.4h-1.72v-1.7a.62.62 0 1 0-1.25 0v1.72h-1.72a.63.63 0 0 0 0 1.25h1.72v1.72a.63.63 0 0 0 1.25 0v-1.72h1.72a.62.62 0 1 0 0-1.25"/></g><defs><clipPath id="clip0_2826_29192"><path fill="currentColor" d="M0 0h16v16H0z"/></clipPath></defs></svg>
