<svg xmlns="http://www.w3.org/2000/svg" fill="none" viewBox="0 0 24 24"><path fill="none" stroke="currentColor" stroke-width="1.5" d="M3.21 9.07a4.14 4.14 0 0 1 5.86-5.86L20.8 14.93a4.14 4.14 0 0 1-5.86 5.86z"/><path fill="none" stroke="currentColor" stroke-width="1.5" d="m12 17.86-2.93 2.93a4.14 4.14 0 0 1-5.86-5.86L6.14 12zm0-11.72 2.93-2.93a4.14 4.14 0 0 1 5.86 5.86L17.86 12z"/><path fill="currentColor" d="M15.84 12.87A.79.79 0 1 1 14.73 14a.79.79 0 0 1 1.11-1.12m-3.71-3.71a.79.79 0 1 0-1.11 1.11.79.79 0 0 0 1.1-1.11m4.64 6.5a.79.79 0 1 1-1.11 1.11.79.79 0 0 1 1.11-1.11M9.34 8.23a.79.79 0 1 0-1.1 1.11.79.79 0 0 0 1.1-1.1m3.72 3.71a.79.79 0 1 1-1.12 1.12.79.79 0 0 1 1.12-1.12m.93 2.79a.79.79 0 1 1-1.12 1.11.79.79 0 0 1 1.12-1.11m-3.72-3.71a.79.79 0 1 0-1.11 1.1.79.79 0 0 0 1.11-1.1"/></svg>
