<svg xmlns="http://www.w3.org/2000/svg" fill="none" viewBox="0 0 40 41"><g fill="none" clip-path="url(#clip0_9067_87917)"><path stroke="currentColor" stroke-width="1.5" fill="none" d="M9 1.05h17.04l8.21 7.53V36.3c0 1.8-1.46 3.25-3.25 3.25H9a3.25 3.25 0 0 1-3.25-3.25v-32c0-1.8 1.46-3.25 3.25-3.25Z"/><mask id="path-2-inside-1_9067_87917" fill="currentColor"><path d="M25 1.3h8.5v8.5H26a1 1 0 0 1-1-1z"/></mask><path fill="currentColor" d="M25 1.3h8.5zm8.5 9.5H26a2 2 0 0 1-2-2h9.5zm-7.5 0a2 2 0 0 1-2-2V1.3h2zm7.5-9.5v8.5z" mask="url(#path-2-inside-1_9067_87917)"/><rect width="24" height="13" x="1" y="20.297" fill="none" stroke="currentColor" rx="2"/><path fill="currentColor" d="M8.48 29.06H5.86l-.42 1.24h-1.8l2.55-7.02h1.98l2.54 7.02H8.9zm-.44-1.32-.87-2.57-.86 2.57zm5.15-3.1v1.43h2.3v1.32h-2.3v1.54h2.6v1.37h-4.3v-7.02h4.3v1.37zm9.05.9q0 .6-.28 1.12-.28.5-.86.8-.59.32-1.44.32H18.6v2.52h-1.7v-7.02h2.76q.84 0 1.42.29a2 2 0 0 1 .87.8q.3.51.3 1.17m-2.7.88q.48 0 .72-.23a1 1 0 0 0 .24-.65q0-.42-.24-.65t-.73-.23h-.93v1.76z"/></g><defs><clipPath id="clip0_9067_87917"><path fill="currentColor" d="M0 .3h40v40H0z"/></clipPath></defs></svg>
