<svg xmlns="http://www.w3.org/2000/svg" fill="none" viewBox="0 0 24 24"><path stroke="currentColor" stroke-width="2" d="M13 8a1 1 0 1 1-2 0 1 1 0 0 1 2 0Z"/><path stroke="currentColor" stroke-linecap="round" stroke-width="2" d="M16 11a4.24 4.24 0 0 0 0-6m-8 6a4.24 4.24 0 0 1 0-6m11 8a7.07 7.07 0 0 0 0-10M5 13A7.07 7.07 0 0 1 5 3"/><path stroke="currentColor" stroke-linecap="round" stroke-linejoin="round" stroke-width="2" d="M10.77 22h2.46a2 2 0 0 0 1.9-2.63L13.32 14a1.4 1.4 0 0 0-2.66 0l-1.8 5.37a2 2 0 0 0 1.9 2.63"/></svg>
