<svg viewBox="0 0 20 20" fill="none" xmlns="http://www.w3.org/2000/svg"><path d="M8.33333 5.20825C8.07181 5.20825 7.83793 5.37108 7.74718 5.61635L7.3173 6.77807C6.73378 8.35502 6.49665 8.95736 6.06038 9.39363C5.6241 9.8299 5.02176 10.067 3.44481 10.6506L2.2831 11.0804C2.03783 11.1712 1.875 11.4051 1.875 11.6666C1.875 11.9281 2.03783 12.162 2.2831 12.2527L3.44481 12.6826C5.02176 13.2661 5.62411 13.5033 6.06038 13.9395C6.49665 14.3758 6.73378 14.9782 7.31731 16.5551L7.74718 17.7168C7.83794 17.9621 8.07181 18.1249 8.33333 18.1249C8.59486 18.1249 8.82873 17.9621 8.91949 17.7168L9.34936 16.5551C9.93289 14.9782 10.17 14.3758 10.6063 13.9395C11.0426 13.5033 11.6449 13.2661 13.2219 12.6826L14.3836 12.2527C14.6288 12.162 14.7917 11.9281 14.7917 11.6666C14.7917 11.4051 14.6288 11.1712 14.3836 11.0804L13.2219 10.6506C11.6449 10.067 11.0426 9.8299 10.6063 9.39363C10.17 8.95736 9.93289 8.35501 9.34936 6.77807L8.91949 5.61635C8.82873 5.37108 8.59486 5.20825 8.33333 5.20825Z" fill="currentColor"/><path d="M15 8.125C15.2615 8.125 15.4952 7.96207 15.5859 7.7168L15.7705 7.21875C16.0318 6.5125 16.1078 6.34532 16.2266 6.22656C16.3453 6.10781 16.5125 6.03185 17.2188 5.77051L17.7168 5.58594C17.9621 5.49518 18.125 5.26153 18.125 5C18.125 4.73847 17.9621 4.50482 17.7168 4.41406L17.2188 4.22949C16.5125 3.96815 16.3453 3.89219 16.2266 3.77344C16.1078 3.65468 16.0318 3.4875 15.7705 2.78125L15.5859 2.2832C15.4952 2.03793 15.2615 1.875 15 1.875C14.7385 1.875 14.5048 2.03793 14.4141 2.2832L14.2295 2.78125C13.9682 3.4875 13.8922 3.65468 13.7734 3.77344C13.6547 3.89219 13.4875 3.96815 12.7812 4.22949L12.2832 4.41406C12.0379 4.50482 11.875 4.73847 11.875 5C11.875 5.26153 12.0379 5.49518 12.2832 5.58594L12.7812 5.77051C13.4875 6.03185 13.6547 6.10781 13.7734 6.22656C13.8922 6.34532 13.9682 6.5125 14.2295 7.21875L14.4141 7.7168C14.5048 7.96207 14.7385 8.125 15 8.125Z" fill="currentColor"/></svg>
