<svg xmlns="http://www.w3.org/2000/svg" fill="none" viewBox="0 0 40 41"><g fill="none" clip-path="url(#clip0_9067_87809)"><path stroke="currentColor" stroke-width="1.5" fill="none" d="M9 1.05h17.04l8.21 7.53V36.3c0 1.8-1.46 3.25-3.25 3.25H9a3.25 3.25 0 0 1-3.25-3.25v-32c0-1.8 1.46-3.25 3.25-3.25Z"/><mask id="path-2-inside-1_9067_87809" fill="currentColor"><path d="M25 1.3h8.5v8.5H26a1 1 0 0 1-1-1z"/></mask><path fill="currentColor" d="M25 1.3h8.5zm8.5 9.5H26a2 2 0 0 1-2-2h9.5zm-7.5 0a2 2 0 0 1-2-2V1.3h2zm7.5-9.5v8.5z" mask="url(#path-2-inside-1_9067_87809)"/><rect width="15" height="13" x="1" y="20.297" fill="none" stroke="currentColor" rx="2"/><path fill="currentColor" d="M8.33 29.06H5.7l-.42 1.24h-1.8l2.55-7.02h1.98l2.54 7.02h-1.8zm-.44-1.32-.87-2.57-.86 2.57zm5.15-4.46v7.02h-1.7v-7.02z"/></g><defs><clipPath id="clip0_9067_87809"><path fill="currentColor" d="M0 .3h40v40H0z"/></clipPath></defs></svg>
