<svg xmlns="http://www.w3.org/2000/svg" fill="none" viewBox="0 0 24 24"><path fill="currentColor" fill-rule="evenodd" d="M8.25 6.75c0-.83.67-1.5 1.5-1.5h4c.61 0 1.25.59 1.25 1.5zm-1.5 0a3 3 0 0 1 3-3h4c1.6 0 2.75 1.43 2.75 3h3.75l.75.75v12l-.75.75H3.75L3 19.5v-12l.75-.75zm12.75 6v-4.5h-15v4.5h3V12l.75-.75h1.5v-1.5L10.5 9h3l.75.75v1.5h1.5l.75.75v.75zm-3 1.5h3v4.5h-15v-4.5h3V15l.75.75h1.5v1.5l.75.75h3l.75-.75v-1.5h1.5l.75-.75zm-1.5 0v-1.5h-2.25V10.5h-1.5v2.25H9v1.5h2.25v2.25h1.5v-2.25z" clip-rule="evenodd"/></svg>
