<svg xmlns="http://www.w3.org/2000/svg" fill="none" viewBox="0 0 24 24"><path stroke="currentColor" stroke-linecap="round" stroke-width="1.5" d="M18 11.5v-.2a1 1 0 0 1 1-1 3 3 0 0 0 3-3V4.85A3 3 0 0 0 19.15 2h-.9a5 5 0 0 0-4.74 4.75l-.01.56v6.19"/><path stroke="currentColor" stroke-width="1.5" d="M10.5 19v.75a2.25 2.25 0 0 1-4.5 0V19m4.5 0V8.75a5 5 0 0 0-4.75-4.74L5.19 4h-.34A3 3 0 0 0 2 6.85V9.3a3 3 0 0 0 3 3 1 1 0 0 1 1 1V19m4.5 0H6"/><path stroke="currentColor" stroke-linecap="round" stroke-width="1.5" d="M19.5 5v2.5M4.5 7v2.5"/><circle fill="none" cx="18" cy="18" r="4" stroke="currentColor" stroke-width="1.5"/><path stroke="currentColor" stroke-linecap="round" stroke-linejoin="round" stroke-width="1.5" d="M18 16.5 17 18h2l-1 1.5"/></svg>
