<svg xmlns="http://www.w3.org/2000/svg" fill="none" viewBox="0 0 24 24"><path stroke="currentColor" stroke-width="1.5" d="M2 18.67v.83a2.5 2.5 0 0 0 5 0v-.83m-5 0V7.56A5.6 5.6 0 0 1 7.56 2h.1A3.35 3.35 0 0 1 11 5.34V8a3 3 0 0 1-3 3 1 1 0 0 0-1 1v6.67m-5 0h5"/><path stroke="currentColor" stroke-linecap="round" stroke-width="1.676" d="M8 5v3"/><circle cx="5.5" cy="5.5" r="5.5" stroke="currentColor" stroke-width="1.5" transform="matrix(-1 0 0 1 21 11)"/><path stroke="currentColor" stroke-linecap="round" stroke-linejoin="round" stroke-width="1.5" d="M14 14v5h3"/><path stroke="currentColor" stroke-linecap="round" stroke-width="1.5" d="M14 5.1A5 5 0 0 1 17.9 9"/></svg>
