<svg xmlns="http://www.w3.org/2000/svg" fill="none" viewBox="0 0 24 24"><path stroke="currentColor" stroke-linecap="round" stroke-linejoin="round" stroke-miterlimit="10" stroke-width="1.5" d="M6.72 9.56h-.94A3.8 3.8 0 0 1 2 5.78C2 3.7 3.7 2 5.78 2h1.89a2.84 2.84 0 0 1 2.83 2.83V17.1a1.9 1.9 0 0 1-1.89 1.89 1.9 1.9 0 0 1-1.89-1.89z"/><path stroke="currentColor" stroke-linecap="round" stroke-linejoin="round" stroke-miterlimit="10" stroke-width="1.5" d="M5.78 6.72a.94.94 0 1 1 0-1.88m11.5 4.72h.94c2.08 0 3.78-1.7 3.78-3.78S20.3 2 18.22 2h-1.89a2.84 2.84 0 0 0-2.83 2.83V17.1a1.9 1.9 0 0 0 1.89 1.89 1.9 1.9 0 0 0 1.89-1.89z"/><path stroke="currentColor" stroke-linecap="round" stroke-linejoin="round" stroke-miterlimit="10" stroke-width="1.5" d="M18.22 6.72a.94.94 0 1 0 0-1.88M8.5 22v-3m7 3v-3"/></svg>
