<svg xmlns="http://www.w3.org/2000/svg" fill="none" viewBox="0 0 24 24"><path stroke="currentColor" stroke-linecap="round" stroke-linejoin="round" stroke-width="1.5" d="M2.62 15.75v-7.5q0-1.15.11-2.07C3.1 2.89 4.65 2 8.88 2h6.25c4.22 0 5.78.89 6.14 4.18q.12.92.11 2.07v7.5q0 1.15-.11 2.08C20.9 21.11 19.35 22 15.12 22H8.88c-4.22 0-5.78-.89-6.14-4.17q-.13-.93-.12-2.08m18.61-6.83h-4.1m-10.26 0h-4.1"/><path stroke="currentColor" stroke-linecap="round" stroke-linejoin="round" stroke-width="1.5" d="M17.13 8.92c0 1.13-.92 2.05-2.05 2.05H8.92c-.56 0-1.08-.23-1.45-.61a2.05 2.05 0 0 1 1.45-3.49h6.15c.56 0 1.08.23 1.45.61a2 2 0 0 1 .61 1.44"/></svg>
