<svg xmlns="http://www.w3.org/2000/svg" fill="none" viewBox="0 0 24 24"><path stroke="currentColor" stroke-linecap="round" stroke-linejoin="round" stroke-width="2" d="m9.6 19-.09.14c-.22.38.05.86.49.86h4c.44 0 .71-.48.49-.86L14.4 19l-1.8-3a.7.7 0 0 0-1.2 0z"/><path stroke="currentColor" stroke-linecap="round" stroke-linejoin="round" stroke-width="2" d="M7 16H6v0c-.93 0-1.4 0-1.77-.15a2 2 0 0 1-1.08-1.08C3 14.4 3 13.93 3 13V8c0-1.89 0-2.83.59-3.41C4.17 4 5.1 4 7 4h10c1.89 0 2.83 0 3.41.59C21 5.17 21 6.1 21 8v5c0 .93 0 1.4-.15 1.77a2 2 0 0 1-1.08 1.08c-.37.15-.84.15-1.77.15v0h-1"/></svg>
