<svg xmlns="http://www.w3.org/2000/svg" fill="none" viewBox="0 0 24 24"><path stroke="currentColor" stroke-linecap="round" stroke-linejoin="round" stroke-width="1.5" d="m9.86 19 1.68-1.42a.8.8 0 0 1 .93 0L14.14 19c.39.2.87 0 1-.42l.33-.96a.8.8 0 0 0-.17-.74l-1.64-1.65a1 1 0 0 1-.21-.51v-1.85c0-.42.3-.62.7-.46l3.35 1.44c.55.24 1-.06 1-.66v-.93c0-.48-.35-1.04-.8-1.23l-3.94-1.7a.5.5 0 0 1-.3-.46V6.8c0-.68-.5-1.48-1.1-1.79a.8.8 0 0 0-.7 0 2.2 2.2 0 0 0-1.1 1.79v2.07c0 .18-.13.39-.29.46l-3.94 1.7c-.44.19-.81.75-.81 1.23v.93c0 .6.45.9 1.01.66l3.35-1.44c.38-.17.7.04.7.46v1.85c0 .17-.1.4-.21.51L8.7 16.87a.8.8 0 0 0-.17.74l.32.96c.14.43.61.63 1.01.43"/><path stroke="currentColor" stroke-linecap="round" stroke-linejoin="round" stroke-width="1.5" d="M9 22h6c5 0 7-2 7-7V9c0-5-2-7-7-7H9C4 2 2 4 2 9v6c0 5 2 7 7 7"/></svg>
