<svg xmlns="http://www.w3.org/2000/svg" fill="none" viewBox="0 0 24 24"><path fill="currentColor" d="M8.45 7.32a1 1 0 1 0-1.9-.64 5.7 5.7 0 0 0 0 3.64 1 1 0 1 0 1.9-.64 3.7 3.7 0 0 1 0-2.36"/><path fill="currentColor" fill-rule="evenodd" d="M10 1.41c-4.4 0-7 3.27-7 6.72v.68c0 .83.23 1.94.48 2.96.23.95.52 1.92.72 2.62l.05.17c.43 1.49 1.8 5.1 2.32 6.38a3 3 0 0 0 3.5 1.7c1.68-.42 2.72-2.15 2.06-3.8-.37-.9-1.12-2.92-1.64-4.42l.4.01a9 9 0 0 0 5.2-1.55c.82.62 1.98.78 3 .2l1.25-.7A3.3 3.3 0 0 0 22 9.55V6.39c0-1.18-.63-2.26-1.66-2.83l-1.24-.7a2.74 2.74 0 0 0-3.29.44A10.3 10.3 0 0 0 10 1.4m7 7.54v-3.7c0-.57.62-.93 1.12-.65l1.24.7c.4.22.64.64.64 1.09v3.16c0 .45-.24.87-.64 1.09l-1.24.7a.75.75 0 0 1-1.12-.65zm-2-3.7v-.06a8.3 8.3 0 0 0-5-1.78c-3.22 0-5 2.3-5 4.72v.68c0 .56.17 1.46.42 2.48.23.91.5 1.83.7 2.54l.05.17c.4 1.38 1.73 4.9 2.25 6.19.15.35.63.64 1.18.5.62-.15.83-.7.67-1.1a100 100 0 0 1-2.15-5.98 1.06 1.06 0 0 1 1.22-1.33q.74.15 1.55.15c1.53 0 2.9-.43 3.94-1.12v-.03q.06-.36.1-.88c.05-.67.07-1.34.07-1.45z" clip-rule="evenodd"/></svg>
