<svg xmlns="http://www.w3.org/2000/svg" fill="none" viewBox="0 0 24 24"><path fill="currentColor" fill-rule="evenodd" d="M7.9 2.64a.75.75 0 1 0-.8-1.28l-4 2.5a.75.75 0 0 0 .8 1.28zm9-1.28a.75.75 0 1 0-.8 1.28l4 2.5a.75.75 0 1 0 .8-1.28zM3.75 13a8.25 8.25 0 1 1 16.5 0 8.25 8.25 0 0 1-16.5 0M12 3.25a9.75 9.75 0 1 0 0 19.5 9.75 9.75 0 0 0 0-19.5m-2.48 5h-.04l-.58.01q-.27 0-.57.12A1.8 1.8 0 0 0 7.26 9.9l-.01.58v5.04l.01.58q0 .27.12.57a1.8 1.8 0 0 0 1.52 1.07l.58.01h.04l.58-.01q.27 0 .57-.12a1.8 1.8 0 0 0 1.07-1.52l.01-.58v-5.04l-.01-.58a1.75 1.75 0 0 0-1.64-1.64zM8.77 9.9q.04-.09.13-.13l.1-.01a8 8 0 0 1 1.1.01q.09.04.13.13l.01.1.01.5v5l-.02.6a.3.3 0 0 1-.13.13l-.1.01a8 8 0 0 1-1.1-.01.3.3 0 0 1-.13-.13l-.01-.1-.01-.5v-5z" clip-rule="evenodd"/><path fill="currentColor" fill-rule="evenodd" d="M14.56 8.24h-.04l-.58.01q-.27 0-.57.12A1.8 1.8 0 0 0 12.3 9.9l-.01.58v5.62q.02.26.13.57a1.8 1.8 0 0 0 1.52 1.07h1.2q.26 0 .57-.12a1.8 1.8 0 0 0 1.07-1.52V9.9a1.75 1.75 0 0 0-1.64-1.64zm-.62 1.52a.3.3 0 0 0-.13.13l-.02.1v5.5l.02.6q.04.09.13.13l.1.01a8 8 0 0 0 1.1-.01q.08-.04.13-.13v-.1q.02-.15.02-.5v-5l-.02-.6a.3.3 0 0 0-.13-.13l-.1-.01a8 8 0 0 0-1.1 0" clip-rule="evenodd"/></svg>
