<svg xmlns="http://www.w3.org/2000/svg" fill="none" viewBox="0 0 24 24"><path fill="currentColor" fill-rule="evenodd" d="M8.14 1.6c.22.35.1.82-.24 1.04l-4 2.5a.75.75 0 0 1-.8-1.28l4-2.5a.75.75 0 0 1 1.04.24m7.72 0a.75.75 0 0 1 1.04-.24l4 2.5a.75.75 0 1 1-.8 1.28l-4-2.5a.75.75 0 0 1-.24-1.04M12 4.75a8.25 8.25 0 1 0 0 16.5 8.25 8.25 0 0 0 0-16.5M2.25 13a9.75 9.75 0 1 1 19.5 0 9.75 9.75 0 0 1-19.5 0M9 10.75a.75.75 0 0 1 0-1.5h6a.75.75 0 0 1 .53 1.28l-4.72 4.72H15a.75.75 0 0 1 0 1.5H9a.75.75 0 0 1-.53-1.28l4.72-4.72z" clip-rule="evenodd"/></svg>
