<svg xmlns="http://www.w3.org/2000/svg" fill="none" viewBox="0 0 24 24"><path fill="currentColor" fill-rule="evenodd" d="M8.14 1.6c.22.35.1.82-.24 1.04l-4 2.5a.75.75 0 0 1-.8-1.28l4-2.5a.75.75 0 0 1 1.04.24m7.72 0a.75.75 0 0 1 1.04-.24l4 2.5a.75.75 0 1 1-.8 1.28l-4-2.5a.75.75 0 0 1-.24-1.04M12 4.75a8.25 8.25 0 1 0 0 16.5 8.25 8.25 0 0 0 0-16.5M2.25 13a9.75 9.75 0 1 1 19.5 0 9.75 9.75 0 0 1-19.5 0M12 8.25c.41 0 .75.34.75.75v3.69l2.28 2.28a.75.75 0 1 1-1.06 1.06l-2.5-2.5a.8.8 0 0 1-.22-.53V9c0-.41.34-.75.75-.75" clip-rule="evenodd"/></svg>
