<svg xmlns="http://www.w3.org/2000/svg" fill="none" viewBox="0 0 24 24"><path fill="currentColor" fill-rule="evenodd" d="M8.7 1.25h6.6q.32 0 .54.02a2.75 2.75 0 0 1 2.45 2.6 2.9 2.9 0 0 1 2.05 2.89q.6.26 1.05.77c.62.7.8 1.57.82 2.57 0 .97-.16 2.2-.36 3.73l-.42 3.11c-.16 1.2-.29 2.17-.49 2.93-.2.79-.52 1.44-1.1 1.95-.58.5-1.27.73-2.08.83-.78.1-1.75.1-2.96.1H9.2c-1.2 0-2.18 0-2.96-.1-.81-.1-1.5-.32-2.08-.83a3.7 3.7 0 0 1-1.1-1.95c-.2-.76-.33-1.73-.5-2.93l-.4-3.1a30 30 0 0 1-.37-3.74c.01-1 .2-1.87.82-2.57q.45-.51 1.05-.77A2.9 2.9 0 0 1 5.7 3.87a2.75 2.75 0 0 1 2.45-2.6q.22-.02.54-.02m-1.47 2.5h9.54c-.1-.52-.54-.93-1.1-1H8.33c-.55.07-.98.48-1.09 1M5.18 6.37c.94-.12 2.14-.12 3.61-.12h6.42a31 31 0 0 1 3.6.12 1.4 1.4 0 0 0-1.35-1.12H6.54c-.69 0-1.24.5-1.36 1.12m.07 1.5c-.82.12-1.24.33-1.52.65s-.43.76-.44 1.6c0 .85.15 1.97.36 3.57l.06.43.42-.3a3.1 3.1 0 0 1 3.73.1l3.83 3.18c.37.3 1 .35 1.44.1l.27-.16a3.9 3.9 0 0 1 4.16.21l2.08 1.55q.15-.82.31-2.1l.4-3c.21-1.61.36-2.73.36-3.59 0-.83-.16-1.27-.44-1.6-.28-.31-.7-.52-1.53-.64s-1.97-.12-3.6-.12H8.86c-1.62 0-2.75 0-3.6.12m13.92 12.45-2.5-1.87a2.4 2.4 0 0 0-2.52-.12l-.26.16c-.97.56-2.29.48-3.15-.24L6.9 15.08a1.6 1.6 0 0 0-1.9-.05l-1.07.78.12.88c.17 1.26.29 2.14.46 2.8.17.63.37.97.63 1.2.27.24.63.39 1.29.47.67.09 1.55.09 2.82.09h5.5c1.27 0 2.15 0 2.82-.09s1.02-.23 1.29-.47q.16-.15.3-.37m-2.67-9.57a.75.75 0 1 0 0 1.5.75.75 0 0 0 0-1.5m-2.25.75a2.25 2.25 0 1 1 4.5 0 2.25 2.25 0 0 1-4.5 0" clip-rule="evenodd"/></svg>
