<svg xmlns="http://www.w3.org/2000/svg" fill="none" viewBox="0 0 24 24"><path stroke="currentColor" stroke-linecap="round" stroke-width="1.5" d="M2 3h20"/><path stroke="currentColor" stroke-width="1.5" d="M7.5 7c-.93 0-1.4 0-1.75.2a1.5 1.5 0 0 0-.55.55C5 8.1 5 8.57 5 9.5v9c0 .93 0 1.4.2 1.75q.2.35.55.55c.35.2.82.2 1.75.2s1.4 0 1.75-.2q.35-.2.55-.55c.2-.35.2-.82.2-1.75v-9c0-.93 0-1.4-.2-1.75a1.5 1.5 0 0 0-.55-.55C8.9 7 8.43 7 7.5 7Zm9 0c-.93 0-1.4 0-1.75.2a1.5 1.5 0 0 0-.55.55c-.2.35-.2.82-.2 1.75v6c0 .93 0 1.4.2 1.75q.2.35.55.55c.35.2.82.2 1.75.2s1.4 0 1.75-.2q.35-.2.55-.55c.2-.35.2-.82.2-1.75v-6c0-.93 0-1.4-.2-1.75a1.5 1.5 0 0 0-.55-.55C17.9 7 17.43 7 16.5 7Z"/></svg>
