<svg xmlns="http://www.w3.org/2000/svg" fill="none" viewBox="0 0 24 24"><path fill="currentColor" fill-rule="evenodd" d="M1.25 3c0-.41.34-.75.75-.75h20a.75.75 0 0 1 0 1.5H2A.75.75 0 0 1 1.25 3m6.7 4.25h8.1c.9 0 1.65 0 2.24.08.63.08 1.2.27 1.65.73.46.45.65 1.02.73 1.65q.1.89.08 2.24v.1q.02 1.35-.08 2.24c-.08.63-.27 1.2-.73 1.65-.45.46-1.02.65-1.65.73q-.89.1-2.24.08h-8.1q-1.35.02-2.24-.08a2.7 2.7 0 0 1-1.65-.73 2.7 2.7 0 0 1-.73-1.65c-.08-.59-.08-1.34-.08-2.24v-.1c0-.9 0-1.65.08-2.24.08-.63.27-1.2.73-1.65a2.7 2.7 0 0 1 1.65-.73c.59-.08 1.34-.08 2.24-.08M5.9 8.82c-.47.06-.66.17-.8.3-.12.13-.23.32-.3.79s-.06 1.13-.06 2.09 0 1.61.07 2.1c.06.46.17.65.3.78s.32.24.79.3c.48.07 1.13.07 2.09.07h8c.96 0 1.61 0 2.1-.07.46-.06.65-.17.78-.3s.24-.32.3-.79c.07-.48.07-1.13.07-2.09s0-1.61-.07-2.1c-.06-.46-.17-.65-.3-.78s-.32-.24-.79-.3c-.48-.07-1.13-.07-2.09-.07H8c-.96 0-1.61 0-2.1.07M1.25 21c0-.41.34-.75.75-.75h20a.75.75 0 0 1 0 1.5H2a.75.75 0 0 1-.75-.75" clip-rule="evenodd"/></svg>
