<svg viewBox="0 0 20 20" fill="none" xmlns="http://www.w3.org/2000/svg"><path d="M10.832 1.45801C11.1771 1.458 11.4569 1.73797 11.457 2.08301C11.457 2.42819 11.1772 2.708 10.832 2.70801H9.99902C8.11559 2.70801 6.7658 2.70968 5.73926 2.84766C4.73066 2.98326 4.1278 3.24037 3.68359 3.68457C3.23939 4.12877 2.98228 4.73163 2.84668 5.74023C2.7087 6.76678 2.70703 8.11655 2.70703 10C2.70703 11.8834 2.70871 13.2332 2.84668 14.2598C2.98228 15.2684 3.2394 15.8712 3.68359 16.3154C4.1278 16.7596 4.73065 17.0167 5.73926 17.1523C6.7658 17.2903 8.11557 17.292 9.99902 17.292C11.8825 17.292 13.2322 17.2903 14.2588 17.1523C15.2674 17.0167 15.8702 16.7596 16.3145 16.3154C16.7586 15.8712 17.0158 15.2684 17.1514 14.2598C17.2893 13.2332 17.291 11.8834 17.291 10C17.291 9.72621 17.29 9.51902 17.2891 9.38086C17.2886 9.3119 17.2875 9.26 17.2871 9.22559V9.17578C17.2826 8.83078 17.5584 8.54677 17.9033 8.54199C18.2484 8.53746 18.5324 8.81317 18.5371 9.1582V9.21289C18.5375 9.24869 18.5386 9.30259 18.5391 9.37305C18.54 9.51395 18.541 9.72358 18.541 10V10.0479C18.541 11.8734 18.5411 13.3073 18.3906 14.4268C18.2364 15.574 17.9134 16.4841 17.1982 17.1992C16.4831 17.9144 15.573 18.2374 14.4258 18.3916C13.3063 18.5421 11.8724 18.542 10.0469 18.542H9.95117C8.12568 18.542 6.69174 18.5421 5.57227 18.3916C4.42508 18.2374 3.51496 17.9144 2.7998 17.1992C2.08465 16.4841 1.76166 15.574 1.60742 14.4268C1.45691 13.3073 1.45702 11.8734 1.45703 10.0479V9.95215C1.45702 8.12667 1.45691 6.69271 1.60742 5.57324C1.76166 4.42606 2.08466 3.51593 2.7998 2.80078C3.51496 2.08564 4.42508 1.76264 5.57227 1.6084C6.69174 1.45789 8.12568 1.458 9.95117 1.45801H10.832ZM5.41602 11.458C5.76094 11.4582 6.04084 11.7381 6.04102 12.083V14.583C6.04102 14.9281 5.76104 15.2078 5.41602 15.208C5.07084 15.208 4.79102 14.9282 4.79102 14.583V12.083C4.79119 11.738 5.07095 11.458 5.41602 11.458ZM9.58203 6.45801C9.9271 6.45801 10.2069 6.73798 10.207 7.08301V14.583C10.207 14.9282 9.92721 15.208 9.58203 15.208C9.237 15.2078 8.95703 14.9281 8.95703 14.583V7.08301C8.95721 6.73809 9.23711 6.45818 9.58203 6.45801ZM13.749 10.625C14.0942 10.625 14.374 10.9048 14.374 11.25V14.583C14.374 14.9282 14.0942 15.208 13.749 15.208C13.4038 15.208 13.124 14.9282 13.124 14.583V11.25C13.124 10.9048 13.4038 10.625 13.749 10.625ZM15.416 1.45801C17.1416 1.45818 18.5408 2.85738 18.541 4.58301C18.541 6.30879 17.1418 7.70783 15.416 7.70801C13.6901 7.70801 12.291 6.3089 12.291 4.58301C12.2912 2.85727 13.6902 1.45801 15.416 1.45801ZM15.416 2.70801C14.3806 2.70801 13.5412 3.54762 13.541 4.58301C13.541 5.61854 14.3805 6.45801 15.416 6.45801C16.4514 6.45783 17.291 5.61843 17.291 4.58301C17.2908 3.54773 16.4513 2.70818 15.416 2.70801Z" fill="currentColor"/></svg>
