<svg viewBox="0 0 20 20" fill="none" xmlns="http://www.w3.org/2000/svg"><path d="M2.5 1.875C2.84518 1.875 3.125 2.15482 3.125 2.5V11.667C3.125 13.0594 3.12669 14.0413 3.22656 14.7842C3.31702 15.4566 3.48041 15.8512 3.73633 16.1377C3.88274 15.8445 4.04308 15.4839 4.22559 15.0703C4.26152 14.9889 4.2991 14.9057 4.33691 14.8203C4.61244 14.1981 4.92989 13.497 5.29785 12.8428C5.66357 12.1926 6.09825 11.5529 6.62109 11.0703C7.14938 10.5828 7.80432 10.2236 8.58887 10.2236C9.65913 10.2238 10.331 10.9112 10.8027 11.3936C10.8159 11.407 10.8289 11.4204 10.8418 11.4336C11.3751 11.978 11.6944 12.2684 12.1777 12.2686C12.6421 12.2686 12.9662 12.0856 13.2646 11.7588C13.5804 11.4131 13.834 10.9444 14.1406 10.377C14.1515 10.3569 14.1629 10.3367 14.1738 10.3164L14.1787 10.3057C14.768 9.21566 15.5836 7.70801 17.5 7.70801C17.8451 7.70801 18.1248 7.98798 18.125 8.33301C18.125 8.67819 17.8452 8.95801 17.5 8.95801C16.4116 8.95801 15.9162 9.72118 15.2734 10.9102C15.2539 10.9464 15.2338 10.9835 15.2139 11.0205C14.9333 11.5412 14.6121 12.1387 14.1885 12.6025C13.7061 13.1307 13.0648 13.5186 12.1777 13.5186C11.1299 13.5184 10.4664 12.838 10.001 12.3613C9.98351 12.3434 9.96613 12.3259 9.94922 12.3086C9.42175 11.7701 9.09137 11.4737 8.58887 11.4736C8.21385 11.4736 7.84749 11.6397 7.46875 11.9893C7.08454 12.3439 6.72494 12.8547 6.38672 13.4561C6.05082 14.0533 5.75423 14.7057 5.47949 15.3262C5.44341 15.4077 5.40778 15.4893 5.37207 15.5703C5.1921 15.9785 5.01507 16.3746 4.84766 16.709C4.96052 16.7327 5.08251 16.7555 5.21582 16.7734C5.95869 16.8733 6.94058 16.875 8.33301 16.875H17.5C17.8452 16.875 18.125 17.1548 18.125 17.5C18.125 17.8452 17.8452 18.125 17.5 18.125H8.28711C6.95168 18.125 5.88569 18.1251 5.0498 18.0127C4.18625 17.8966 3.47473 17.6505 2.91211 17.0879C2.34949 16.5253 2.10341 15.8137 1.9873 14.9502C1.87494 14.1143 1.87498 13.0483 1.875 11.7129V2.5C1.875 2.15482 2.15482 1.875 2.5 1.875ZM9.16699 5.20801C9.51191 5.20818 9.79182 5.48809 9.79199 5.83301C9.79199 6.17808 9.51202 6.45783 9.16699 6.45801H5.83301C5.48798 6.45783 5.20801 6.17808 5.20801 5.83301C5.20818 5.48809 5.48809 5.20818 5.83301 5.20801H9.16699ZM6.66699 2.70801C7.01191 2.70818 7.29182 2.98809 7.29199 3.33301C7.29199 3.67808 7.01202 3.95783 6.66699 3.95801H5.83301C5.48798 3.95783 5.20801 3.67808 5.20801 3.33301C5.20818 2.98809 5.48809 2.70818 5.83301 2.70801H6.66699Z" fill="currentColor"/></svg>
