<svg xmlns="http://www.w3.org/2000/svg" fill="none" viewBox="0 0 24 24"><path stroke="currentColor" stroke-width="2" d="M14 17.5c0-1.4 0-2.1.34-2.61a2 2 0 0 1 .55-.55c.5-.34 1.2-.34 2.61-.34 1.4 0 2.1 0 2.61.34a2 2 0 0 1 .55.55c.34.5.34 1.2.34 2.61 0 1.4 0 2.1-.34 2.61a2 2 0 0 1-.55.55c-.5.34-1.2.34-2.61.34-1.4 0-2.1 0-2.61-.34a2 2 0 0 1-.55-.55c-.34-.5-.34-1.2-.34-2.61Zm-11 0c0-1.4 0-2.1.34-2.61a2 2 0 0 1 .55-.55C4.39 14 5.09 14 6.5 14c1.4 0 2.1 0 2.61.34a2 2 0 0 1 .55.55c.34.5.34 1.2.34 2.61 0 1.4 0 2.1-.34 2.61a2 2 0 0 1-.55.55c-.5.34-1.2.34-2.61.34-1.4 0-2.1 0-2.61-.34a2 2 0 0 1-.55-.55C3 19.61 3 18.91 3 17.5Zm0-11c0-1.4 0-2.1.34-2.61a2 2 0 0 1 .55-.55C4.39 3 5.09 3 6.5 3c1.4 0 2.1 0 2.61.34a2 2 0 0 1 .55.55c.34.5.34 1.2.34 2.61 0 1.4 0 2.1-.34 2.61a2 2 0 0 1-.55.55c-.5.34-1.2.34-2.61.34-1.4 0-2.1 0-2.61-.34a2 2 0 0 1-.55-.55C3 8.61 3 7.91 3 6.5Z"/><path stroke="currentColor" stroke-linecap="round" stroke-linejoin="round" stroke-width="2" d="M14 6.5h7M17.5 3v7"/></svg>
