<svg xmlns="http://www.w3.org/2000/svg" fill="none" viewBox="0 0 24 24"><path stroke="currentColor" stroke-linecap="round" stroke-linejoin="round" stroke-width="1.5" d="M12 21v-9m0 0 3 3.33M12 12l-3 3.33"/><path stroke="currentColor" stroke-linecap="round" stroke-width="1.5" d="M20.5 7v6c0 3.77 0 5.66-1.17 6.83S16.27 21 12.5 21h-1c-3.77 0-5.66 0-6.83-1.17S3.5 16.77 3.5 13V7"/><path stroke="currentColor" stroke-width="1.5" d="M2 5c0-.94 0-1.41.3-1.7C2.58 3 3.05 3 4 3h16c.94 0 1.41 0 1.7.3.3.29.3.76.3 1.7s0 1.41-.3 1.7c-.29.3-.76.3-1.7.3H4c-.94 0-1.41 0-1.7-.3C2 6.42 2 5.95 2 5Z"/></svg>
