<svg xmlns="http://www.w3.org/2000/svg" fill="none" viewBox="0 0 24 24"><path stroke="currentColor" stroke-width="1.5" d="M2 12c0-4.71 0-7.07 1.46-8.54C4.93 2 7.3 2 12 2s7.07 0 8.54 1.46C22 4.93 22 7.3 22 12"/><path stroke="currentColor" stroke-width="1.5" d="M2 14c0-2.8 0-4.2.54-5.27a5 5 0 0 1 2.19-2.19C5.8 6 7.2 6 10 6h4c2.8 0 4.2 0 5.27.54a5 5 0 0 1 2.18 2.19C22 9.8 22 11.2 22 14s0 4.2-.55 5.27a5 5 0 0 1-2.18 2.18C18.2 22 16.8 22 14 22h-4c-2.8 0-4.2 0-5.27-.55a5 5 0 0 1-2.19-2.18C2 18.2 2 16.8 2 14Z"/><path stroke="currentColor" stroke-linecap="round" stroke-linejoin="round" stroke-width="1.5" d="M12 17v-6m0 0 2.5 2.5M12 11l-2.5 2.5"/></svg>
