<svg xmlns="http://www.w3.org/2000/svg" fill="none" viewBox="0 0 24 24"><path stroke="currentColor" stroke-linecap="round" stroke-linejoin="round" stroke-width="1.5" d="m9.5 14.4 1.43 1.6 3.57-4"/><path stroke="currentColor" stroke-linecap="round" stroke-width="1.5" d="M2 12c0-4.71 0-7.07 1.46-8.54C4.71 2.22 6.6 2.03 10 2m12 10c0-4.71 0-7.07-1.46-8.54C19.29 2.22 17.4 2.03 14 2"/><path stroke="currentColor" stroke-linecap="round" stroke-width="1.5" d="M10 22c-2.8 0-4.2 0-5.27-.55a5 5 0 0 1-2.19-2.18C2 18.2 2 16.8 2 14s0-4.2.54-5.27a5 5 0 0 1 2.19-2.19C5.8 6 7.2 6 10 6h4c2.8 0 4.2 0 5.27.54a5 5 0 0 1 2.18 2.19C22 9.8 22 11.2 22 14s0 4.2-.55 5.27a5 5 0 0 1-2.18 2.18C18.2 22 16.8 22 14 22"/></svg>
