<svg xmlns="http://www.w3.org/2000/svg" fill="none" viewBox="0 0 24 24"><path stroke="currentColor" stroke-linecap="round" stroke-linejoin="round" stroke-width="1.5" d="m9.5 13.4 1.43 1.6 3.57-4"/><path stroke="currentColor" stroke-linecap="round" stroke-width="1.5" d="M20.5 7v6c0 3.77 0 5.66-1.17 6.83S16.27 21 12.5 21h-1m-8-14v6c0 3.77 0 5.66 1.17 6.83.7.7 1.67.98 3.15 1.1M12 3H4c-.94 0-1.41 0-1.7.3C2 3.58 2 4.05 2 5s0 1.41.3 1.7c.29.3.76.3 1.7.3h16c.94 0 1.41 0 1.7-.3.3-.29.3-.76.3-1.7s0-1.41-.3-1.7C21.42 3 20.95 3 20 3h-4"/></svg>
