<svg viewBox="0 0 16 16" fill="none" xmlns="http://www.w3.org/2000/svg"><path d="M3.9739 4.00067C3.82149 4.16502 3.73696 4.38186 3.68378 4.56647C3.62705 4.7634 3.58837 4.98866 3.56128 5.22062C3.507 5.68547 3.49344 6.23057 3.49784 6.74075C3.50228 7.25381 3.52507 7.74526 3.54663 8.10749C3.55744 8.28892 3.56797 8.43865 3.57584 8.54336C3.57977 8.59574 3.58304 8.63689 3.58534 8.66515L3.58804 8.6977L3.58877 8.70634L3.58906 8.7097C3.61303 8.9848 3.85547 9.18838 4.13057 9.16442C4.40565 9.14045 4.6092 8.89765 4.58526 8.62257L4.58511 8.62089L4.5845 8.61362L4.58204 8.58395C4.5799 8.55765 4.57679 8.5186 4.57303 8.46847C4.56549 8.36817 4.55532 8.22364 4.54487 8.04806C4.52392 7.6963 4.50204 7.22281 4.49781 6.73211C4.49354 6.23853 4.50731 5.74104 4.55453 5.3366C4.55719 5.31389 4.55993 5.29164 4.56275 5.26985L11.6461 12.3532C11.8414 12.5485 12.158 12.5485 12.3532 12.3532C12.5485 12.158 12.5485 11.8414 12.3532 11.6461L5.26822 4.5611C5.27778 4.55993 5.28745 4.55877 5.29721 4.55762C5.6971 4.51076 6.19738 4.49677 6.69738 4.50061C7.19424 4.50442 7.67677 4.52568 8.0361 4.54611C8.21545 4.5563 8.36338 4.56625 8.46616 4.57362C8.51754 4.5773 8.55759 4.58034 8.5846 4.58244L8.61511 4.58485L8.62477 4.58564C8.89994 4.60849 9.14156 4.40396 9.16443 4.12877C9.18731 3.85358 8.98244 3.61192 8.70724 3.58904L8.70419 3.58879L8.69538 3.58808L8.66214 3.58545C8.63326 3.5832 8.5912 3.58002 8.53769 3.57618C8.43071 3.56851 8.27781 3.55823 8.09285 3.54772C7.72358 3.52673 7.22364 3.50462 6.70506 3.50064C6.1896 3.49667 5.64146 3.51044 5.18082 3.56442C4.95131 3.59132 4.72832 3.62986 4.53558 3.68708C4.35994 3.73923 4.13436 3.82764 3.9739 4.00067Z" fill="currentColor"/></svg>
