<svg xmlns="http://www.w3.org/2000/svg" fill="currentColor" style="fill-rule:evenodd;clip-rule:evenodd;stroke-linejoin:round;stroke-miterlimit:2" viewBox="0 0 64 64"><path id="Icons" d="M-256-192h1280v800H-256z" style="fill:none"/><g id="Icons1"><path id="caret-up" d="M32.16-45.22 8.09-21.15l3 3L32.17-39.2l21.06 21.06 3.01-3.01z" style="fill-rule:nonzero"/><path id="arrow-left" d="m15.67 29.95 7.4-7.41-2.82-2.84L8 31.95 20.25 44.2l2.83-2.83-7.41-7.42H56v-4z"/><path d="m15.67 29.95 7.4-7.41-2.82-2.84L8 31.95 20.25 44.2l2.83-2.83-7.41-7.42H56v-4zm4.58-7.41-9.42 9.41 9.42 9.42-6-6 1.42-3.42H54 15.67l-1.42-3.41z"/></g></svg>
