<svg fill="currentColor" viewBox="0 0 64 64" xmlns="http://www.w3.org/2000/svg" style="fill-rule:evenodd;clip-rule:evenodd;stroke-linejoin:round;stroke-miterlimit:2;"><rect id="Icons" x="-384" y="-192" width="1280" height="800" style="fill:none;"/><g id="Icons1"><path id="arrow-up" d="M29.991,15.547l-7.413,7.413l-2.832,-2.832l12.246,-12.246l0.001,0.001l0.001,-0.001l12.246,12.246l-2.832,2.832l-7.411,-7.411l0,40.334l-4.006,0l0,-40.336Z"/><path d="M29.991,15.547l-7.413,7.413l-2.832,-2.832l12.246,-12.246l0.002,0l12.246,12.246l-2.832,2.832l-7.411,-7.411l0,40.334l-4.006,0l0,-40.336Zm2.001,-4.837l-9.418,9.418l0.004,0.004l5.999,-5.999l3.414,1.414l0,38.336l0.006,0l0,-38.334l3.414,-1.415l5.997,5.998l0.004,-0.004l-9.418,-9.418l-0.002,0Z"/></g></svg>
