<svg xmlns="http://www.w3.org/2000/svg" viewBox="-15.52 0 266.88 266.88"><defs><style>.a{fill:#fff}.c{fill:#211715}</style></defs><path d="M189.24 264.4c-8-9-13.1-34.75-12.84-37.58 1.23-12.84 16.97-25.52 25.57-34.9 13.25-14.46 32.53-42.64 31.43-81.84-.61-21.66-8.84-43.54-19.18-58.75-26.6-39.12-56.61-45.85-75.11-48.15s-36.41.7-52.55 6.33c-33.81 11.8-49.33 35.75-51.98 41.08-5.77 11.6-8.84 20.19-9.72 35.26a114 114 0 0 0-.7 19.56c-.44 14.85-.99 35.45-14.57 42.8a14 14 0 0 0-6.3 6.34c-3.25 7.4 3.12 10.7 7.07 14.96a23 23 0 0 1 5.16 9.64 141 141 0 0 0 3.02 21.4 60 60 0 0 0 4.85 14.34c4.33 8.2 9.87 12.3 15.6 14.4 11.25 4.1 26.63 5.57 36.6 2.87a4.93 4.93 0 0 1 5.82 2.9c.15.38 6.4 16.62 6.03 29.34" class="a"/><path d="M158.55 172.91a56 56 0 0 1-4-5.53 9 9 0 0 1-.77-1.68 8 8 0 0 1-.33-1.84c0-5.36.03-8.47.03-12.24 5.24 0 19.53-.06 21.02-.06 1.14-1.2 8.55-9.6 11.49-13.22l2.94-3.62 2.45-2.27q7.82-7.24 15.08-15.05c0-8.5-.57-27.83-.57-34.92v-4.85l-2.49-3.47-15.1-21.01-2.13-2.97-4.82-2.52c-3.77-1.98-21.9-11.73-24.7-13.2l-4-2.1-4.83.5c-9.7 1-52.12 5.67-59.41 6.51l-3.81.45-3.86 3.78c-6.6 6.46-13.6 13.54-19.95 19.95l-3.85 3.88-.13 3.3c-.12 2.8-.43 12.36-.57 16.59l-.19 5.45 2.04 3.49 10.78 18.45a2 2 0 0 0 .57.7 3 3 0 0 0 1.16.25c6.47 1.1 10.1 1.7 17.17 2.31l6.27 10.93a4 4 0 0 0 .7 1 4 4 0 0 0 1.95.87c9.14 2.22 21.28 5.18 28.54 6.33 1.85 4.02 8.97 19.18 10.95 23.79.9 3.62 2.54 10.59 3.34 14.59" style="fill:#95cbeb"/><path d="m117.25 67.73.03 38.2c9.2-.08 27.33-.13 38.3-.17 0-11.1-.07-26.33-.07-38.13-1.36 0-29.4.03-38.26.1" class="a"/><path d="m125.2 76.61.02 20.38a1 1 0 0 0 1 1c5.32-.05 14.34-.07 20.42-.1a1 1 0 0 0 1-.99c0-6.07-.04-13.94-.04-20.34a1 1 0 0 0-1-.99c-3.52 0-15.2.02-20.41.05a1 1 0 0 0-.99 1" class="c"/><path d="M190.94 262.7a16 16 0 0 1-1.58-2.1 36 36 0 0 1-1.82-3.16 60 60 0 0 1-2.97-6.9 120 120 0 0 1-4.34-15 98 98 0 0 1-1.3-6.88c-.1-.57.06.56 0 .01l-.06-.42a9 9 0 0 1-.07-1.3 18 18 0 0 1 2.24-7.1 45 45 0 0 1 5.14-7.77c7.1-8.8 15.9-16.02 22.96-24.87a125 125 0 0 0 16.97-27.87 116 116 0 0 0 9.52-39.2 112 112 0 0 0-7-45.72 124 124 0 0 0-22.68-37.82 108 108 0 0 0-28.88-24.02C158.82 2.4 136.92-1.46 116.22.48c-26.57 2.5-52.77 13.39-71.47 32.73a72 72 0 0 0-11.94 15.56 95 95 0 0 0-6.65 15.58 83 83 0 0 0-3.57 19.59c-.29 3.86-.76 7.7-.9 11.56-.13 3.84.14 7.67.03 11.5a138 138 0 0 1-1.23 16.86c-.84 5.4-2.19 10.9-5.1 15.58a19 19 0 0 1-4.83 5.34c-2.49 1.83-5.26 3-7.3 5.42a11.23 11.23 0 0 0 .65 16.44c1.88 1.96 4.1 3.6 5.77 5.76a16.6 16.6 0 0 1 3.56 8.64 134 134 0 0 0 3.56 22.55c1.84 7.32 4.65 14.41 9.76 20.1 4.12 4.58 9.37 7.28 15.2 9.03a78 78 0 0 0 21.04 3.2 57 57 0 0 0 10-.72c1.26-.2 2.6-.73 3.86-.81a2.5 2.5 0 0 1 1.48.36 2 2 0 0 1 .6.5c.08.08.64 1.07.37.47a65 65 0 0 1 3.28 10.36 66 66 0 0 1 2.65 18.32c-.07 3.09 4.73 3.09 4.8 0a71 71 0 0 0-2.82-19.6 93 93 0 0 0-3.28-10.33 7.4 7.4 0 0 0-7.44-4.85c-1.5.13-2.95.64-4.43.9a41 41 0 0 1-4.63.5 70 70 0 0 1-20.2-1.85c-5.66-1.34-11.2-3.15-15.5-7.23-5.28-5-8.05-11.76-9.87-18.67a125 125 0 0 1-3.6-21.88 18 18 0 0 0-.74-4.5 27 27 0 0 0-2.33-5.15A31 31 0 0 0 9.11 165c-1.68-1.55-3.6-3.25-4.17-5.42-.66-2.52.9-5.35 2.79-7.12 2.06-1.95 4.8-3.02 6.97-4.87a25 25 0 0 0 5.15-6.27c5.83-9.85 6.28-22.2 6.63-33.34.11-3.51-.1-7.02-.04-10.54.07-3.89.46-7.72.82-11.58.33-3.58.55-7.14 1.17-10.7a71 71 0 0 1 2.13-8.83A72 72 0 0 1 40.84 45.2l.72-.97.38-.5.15-.19q.92-1.17 1.88-2.31 2-2.38 4.17-4.62a95 95 0 0 1 11.53-10.17A108 108 0 0 1 95.57 9.2a112 112 0 0 1 44.93-3.44l.8.1 1.25.2q1.4.21 2.81.46 2.78.49 5.52 1.12a95 95 0 0 1 12.6 3.83 93 93 0 0 1 26.95 16.33 121 121 0 0 1 26.65 32.82 112 112 0 0 1 13.46 42.46 108 108 0 0 1-4.2 41.92 117 117 0 0 1-15.05 31.25 118 118 0 0 1-8.25 10.85c-3.54 4.14-7.44 7.92-11.26 11.78-4.63 4.66-9.23 9.49-12.83 15.01-2.52 3.88-5.29 9.07-4.92 13.86a71 71 0 0 0 2.02 11 113 113 0 0 0 4.58 14.89c1.73 4.42 3.75 8.86 6.91 12.46 2.04 2.33 5.42-1.08 3.4-3.4" class="c"/><path d="m114.85 67.73.03 38.2a2.43 2.43 0 0 0 2.4 2.4c12.77-.11 25.54-.12 38.3-.17a2.44 2.44 0 0 0 2.4-2.4c0-12.7-.07-25.42-.06-38.13a2.44 2.44 0 0 0-2.4-2.4q-15.1 0-30.18.06l-8.1.04c-3.08.02-3.1 4.82 0 4.8 11.34-.1 22.68-.09 34.02-.1h4.25l-2.4-2.4c0 12.7.07 25.42.07 38.13l2.4-2.4c-12.77.05-25.54.06-38.3.17l2.4 2.4-.03-38.2c0-3.1-4.8-3.1-4.8 0m-60.44 3c-.22 5.53-.38 11.06-.57 16.58a2.4 2.4 0 0 0 4.8 0q.25-8.28.57-16.58a2.4 2.4 0 1 0-4.8 0m1.6 26.74c3.52 6 7 12.03 10.54 18.02a4.5 4.5 0 0 0 3.64 2.52c1.45.22 2.9.5 4.34.73q4.36.7 8.76 1.2a2.4 2.4 0 0 0 2.4-2.4 2.46 2.46 0 0 0-2.4-2.4q-3.16-.36-6.3-.85-1.63-.25-3.26-.53a19 19 0 0 1-3.66-.66l1.06.62a10 10 0 0 1-1.2-1.94l-1.25-2.15-2.88-4.93-5.64-9.66c-1.56-2.66-5.7-.25-4.14 2.43ZM87.1 121.6c1.62 2.84 3.2 5.7 4.87 8.5a5.8 5.8 0 0 0 3.22 2.72c1.27.44 2.63.68 3.93 1a661 661 0 0 0 17.2 4c3.02.65 4.3-3.98 1.28-4.63a625 625 0 0 1-15.93-3.69l-3.73-.9a5 5 0 0 1-1.4-.37 3.4 3.4 0 0 1-.79-1.18l-4.51-7.87c-1.54-2.68-5.69-.26-4.15 2.43Zm36.44 17.5 6.35 13.67q1.58 3.4 3.13 6.82l.6 1.34.24.53c.04.11.2.59.15.4.21.88.6 2.65.9 3.86.82 3.45 1.62 6.9 2.32 10.39a2.4 2.4 0 0 0 2.95 1.67 2.45 2.45 0 0 0 1.68-2.95 296 296 0 0 0-2.07-9.3 40 40 0 0 0-2.15-7.32c-2.16-4.84-4.41-9.64-6.65-14.45l-3.3-7.09a2.4 2.4 0 0 0-3.28-.86 2.46 2.46 0 0 0-.86 3.28Zm29.95 14.9q8.5 0 17-.04c1.82 0 4.52.47 5.9-.91 1.65-1.65 3.14-3.51 4.68-5.27 2.23-2.56 4.47-5.12 6.62-7.75a2.47 2.47 0 0 0 0-3.4 2.4 2.4 0 0 0-3.4 0c-3.67 4.52-7.48 9-11.48 13.22l1.7-.7c-7 0-14.01.06-21.02.06-3.09 0-3.1 4.8 0 4.8Zm39.6-19.87q5.55-5.15 10.84-10.58 1.32-1.36 2.62-2.74c.94-1 2.22-1.97 2.32-3.42.1-1.38-.01-2.8-.03-4.18-.09-7.08-.27-14.15-.4-21.23q-.12-4.76-.14-9.5c0-3.1-4.8-3.1-4.8 0 0 11.63.56 23.27.57 34.9l.7-1.7q-7.26 7.8-15.08 15.06c-2.27 2.1 1.13 5.5 3.4 3.4ZM88.42 41.77c6.82-.8 13.64-1.53 20.47-2.29q14.25-1.57 28.51-3.12l10.42-1.1a2.47 2.47 0 0 0 2.4-2.4 2.4 2.4 0 0 0-2.4-2.4q-11.1 1.14-22.18 2.38l-28.04 3.1-9.18 1.03a2.47 2.47 0 0 0-2.4 2.4 2.4 2.4 0 0 0 2.4 2.4" class="c"/><path d="m151.08 151.62-.03 11.61c0 4.46 3.1 8.1 5.8 11.38a2.4 2.4 0 0 0 3.4 0 2.46 2.46 0 0 0 0-3.4 49 49 0 0 1-3.52-4.89 6 6 0 0 1-.8-1.9l-.1-.54c.03.21.03.14.03-.02v-1.82l.02-10.42c0-3.09-4.8-3.1-4.8 0m4.36-115.09c8.26 4.36 16.43 8.87 24.7 13.2 2.74 1.43 5.17-2.7 2.43-4.14-8.28-4.33-16.45-8.85-24.7-13.2-2.73-1.44-5.16 2.7-2.43 4.14m30.8 17.83q7.53 10.51 15.1 21.01a2.47 2.47 0 0 0 3.28.86 2.4 2.4 0 0 0 .86-3.28l-15.1-21.01a2.47 2.47 0 0 0-3.29-.86 2.4 2.4 0 0 0-.86 3.28m-66.82 8.4.03 4.4a2.5 2.5 0 0 0 .7 1.7 2.4 2.4 0 0 0 3.4 0 2.5 2.5 0 0 0 .7-1.7l-.04-4.4a2.5 2.5 0 0 0-.7-1.7 2.4 2.4 0 0 0-3.4 0 2.5 2.5 0 0 0-.7 1.7m9.55 0 .03 4.4a2.5 2.5 0 0 0 .7 1.7 2.4 2.4 0 0 0 3.39 0 2.5 2.5 0 0 0 .7-1.7l-.03-4.4a2.5 2.5 0 0 0-.7-1.7 2.4 2.4 0 0 0-3.4 0 2.5 2.5 0 0 0-.7 1.7m9.54 0 .03 4.4a2.5 2.5 0 0 0 .7 1.7 2.4 2.4 0 0 0 3.4 0 2.5 2.5 0 0 0 .7-1.7l-.03-4.4a2.5 2.5 0 0 0-.7-1.7 2.4 2.4 0 0 0-3.4 0 2.5 2.5 0 0 0-.7 1.7m9.55 0 .03 4.4a2.5 2.5 0 0 0 .7 1.7 2.4 2.4 0 0 0 3.4 0 2.5 2.5 0 0 0 .7-1.7l-.04-4.4a2.5 2.5 0 0 0-.7-1.7 2.4 2.4 0 0 0-3.39 0 2.5 2.5 0 0 0-.7 1.7m-28.64 44.15.03 4.4a2.5 2.5 0 0 0 .7 1.7 2.4 2.4 0 0 0 3.4 0 2.5 2.5 0 0 0 .7-1.7l-.04-4.4a2.5 2.5 0 0 0-.7-1.7 2.4 2.4 0 0 0-3.4 0 2.5 2.5 0 0 0-.7 1.7m9.55 0 .03 4.4a2.5 2.5 0 0 0 .7 1.7 2.4 2.4 0 0 0 3.39 0 2.5 2.5 0 0 0 .7-1.7l-.03-4.4a2.5 2.5 0 0 0-.7-1.7 2.4 2.4 0 0 0-3.4 0 2.5 2.5 0 0 0-.7 1.7m9.54 0 .03 4.4a2.5 2.5 0 0 0 .7 1.7 2.4 2.4 0 0 0 3.4 0 2.5 2.5 0 0 0 .7-1.7l-.03-4.4a2.5 2.5 0 0 0-.7-1.7 2.4 2.4 0 0 0-3.4 0 2.5 2.5 0 0 0-.7 1.7m9.55 0 .03 4.4a2.5 2.5 0 0 0 .7 1.7 2.4 2.4 0 0 0 3.4 0 2.5 2.5 0 0 0 .7-1.7l-.04-4.4a2.5 2.5 0 0 0-.7-1.7 2.4 2.4 0 0 0-3.39 0 2.5 2.5 0 0 0-.7 1.7m12.37-36.61-4.4.03a2.5 2.5 0 0 0-1.7.7 2.4 2.4 0 0 0 0 3.4 2.5 2.5 0 0 0 1.7.7l4.4-.04a2.5 2.5 0 0 0 1.7-.7 2.4 2.4 0 0 0 0-3.39 2.5 2.5 0 0 0-1.7-.7m0 9.55-4.4.03a2.5 2.5 0 0 0-1.7.7 2.4 2.4 0 0 0 0 3.39 2.5 2.5 0 0 0 1.7.7l4.4-.03a2.5 2.5 0 0 0 1.7-.7 2.4 2.4 0 0 0 0-3.4 2.5 2.5 0 0 0-1.7-.7m0 9.54-4.4.03a2.5 2.5 0 0 0-1.7.7 2.4 2.4 0 0 0 0 3.4 2.5 2.5 0 0 0 1.7.7l4.4-.03a2.5 2.5 0 0 0 1.7-.7 2.4 2.4 0 0 0 0-3.4 2.5 2.5 0 0 0-1.7-.7m0 9.55-4.4.03a2.5 2.5 0 0 0-1.7.7 2.4 2.4 0 0 0 0 3.4 2.5 2.5 0 0 0 1.7.7l4.4-.03a2.5 2.5 0 0 0 1.7-.7 2.4 2.4 0 0 0 0-3.4 2.5 2.5 0 0 0-1.7-.7m-44.1-28.63-4.4.03a2.5 2.5 0 0 0-1.7.7 2.4 2.4 0 0 0 0 3.4 2.5 2.5 0 0 0 1.7.7l4.4-.04a2.5 2.5 0 0 0 1.7-.7 2.4 2.4 0 0 0 0-3.39 2.5 2.5 0 0 0-1.7-.7m0 9.55-4.4.03a2.5 2.5 0 0 0-1.7.7 2.4 2.4 0 0 0 0 3.39 2.5 2.5 0 0 0 1.7.7l4.4-.03a2.5 2.5 0 0 0 1.7-.7 2.4 2.4 0 0 0 0-3.4 2.5 2.5 0 0 0-1.7-.7m0 9.54-4.4.03a2.5 2.5 0 0 0-1.7.7 2.4 2.4 0 0 0 0 3.4 2.5 2.5 0 0 0 1.7.7l4.4-.03a2.5 2.5 0 0 0 1.7-.7 2.4 2.4 0 0 0 0-3.4 2.5 2.5 0 0 0-1.7-.7m0 9.55-4.4.03a2.5 2.5 0 0 0-1.7.7 2.4 2.4 0 0 0 0 3.4 2.5 2.5 0 0 0 1.7.7l4.4-.03a2.5 2.5 0 0 0 1.7-.7 2.4 2.4 0 0 0 0-3.4 2.5 2.5 0 0 0-1.7-.7m62.27 13.5h15.56a2.4 2.4 0 1 0 0-4.8h-15.56a2.4 2.4 0 0 0 0 4.8" class="c"/><path d="M177.45 106.16a3.8 3.8 0 0 0-3.87 3.85 3.74 3.74 0 0 0 3.87 3.92 3.7 3.7 0 0 0 3.88-3.92 3.8 3.8 0 0 0-3.88-3.85M92.68 75.12V59.57a2.4 2.4 0 1 0-4.8 0v15.55a2.4 2.4 0 0 0 4.8 0m-12.1 23.1v-12.7a2.4 2.4 0 0 0-4.8 0v12.7a2.4 2.4 0 1 0 4.8 0m81.09 40.36v-17.21a2.4 2.4 0 0 0-4.8 0v17.21a2.4 2.4 0 0 0 4.8 0m10.06 0v-17.21a2.4 2.4 0 0 0-4.8 0v17.21a2.4 2.4 0 1 0 4.8 0m-20.13 0v-17.21a2.4 2.4 0 0 0-4.8 0v17.21a2.4 2.4 0 0 0 4.8 0" class="c"/><path d="m79.86 83.73-6.45-6.45a2.4 2.4 0 0 0-3.4 3.4l6.46 6.44a2.4 2.4 0 1 0 3.39-3.39m96.36-6.55V64.47a2.4 2.4 0 0 0-4.8 0v12.7a2.4 2.4 0 0 0 4.8 0" class="c"/><path d="m175.54 66.08 7.27-7.28a2.4 2.4 0 1 0-3.4-3.4l-7.27 7.28a2.4 2.4 0 0 0 3.4 3.4m-70.51-.86 15-15a2.4 2.4 0 1 0-3.4-3.4l-15 15a2.4 2.4 0 1 0 3.4 3.4m-2.29 52.15 6.23-6.23a2.4 2.4 0 0 0-3.4-3.4l-6.22 6.24a2.4 2.4 0 0 0 3.4 3.39m78.92-27 6.22-6.22a2.4 2.4 0 1 0-3.39-3.4l-6.23 6.23a2.4 2.4 0 0 0 3.4 3.4M62.49 65.26c6.62-6.68 13.23-13.38 19.95-19.96 2.2-2.16-1.19-5.55-3.4-3.39-6.72 6.58-13.33 13.27-19.95 19.95-2.18 2.2 1.22 5.6 3.4 3.4m11.86 33.62a3.66 3.66 0 0 0 3.71 3.73 3.6 3.6 0 0 0 3.78-3.73 3.56 3.56 0 0 0-3.78-3.74 3.66 3.66 0 0 0-3.7 3.74m12.18-40.83a3.66 3.66 0 0 0 3.71 3.73 3.6 3.6 0 0 0 3.78-3.73 3.56 3.56 0 0 0-3.78-3.73 3.66 3.66 0 0 0-3.7 3.73" class="c"/></svg>
