<svg viewBox="0 0 20 20" fill="none" xmlns="http://www.w3.org/2000/svg"><path fill-rule="evenodd" clip-rule="evenodd" d="M3.33301 1.875C4.13831 1.875 4.79182 2.52774 4.79199 3.33301L4.79199 15C4.79199 15.097 4.76894 15.1925 4.72559 15.2793L3.47559 17.7793C3.36976 17.9909 3.1536 18.1249 2.91699 18.125C2.68026 18.125 2.46329 17.991 2.35742 17.7793L1.10742 15.2793C1.06411 15.1926 1.04199 15.0969 1.04199 15L1.04199 3.33301C1.04217 2.52774 1.69469 1.875 2.5 1.875L3.33301 1.875ZM13.3779 1.875C14.3217 1.87498 15.0932 1.87519 15.7021 1.95703C16.3388 2.04263 16.8915 2.22739 17.332 2.66797C17.7726 3.10859 17.9574 3.66116 18.043 4.29785C18.1248 4.90686 18.125 5.67818 18.125 6.62207L18.125 10.001C18.125 10.3462 17.8452 10.626 17.5 10.626C17.1548 10.626 16.875 10.3462 16.875 10.001V6.66699C16.875 5.66724 16.8741 4.9799 16.8047 4.46387C16.7377 3.96596 16.6178 3.72138 16.4482 3.55176C16.2786 3.38213 16.0341 3.26228 15.5361 3.19531C15.0201 3.12593 14.3328 3.125 13.333 3.125L10.833 3.125C9.83359 3.125 9.14676 3.12597 8.63086 3.19531C8.13303 3.26225 7.88836 3.38221 7.71875 3.55176C7.54916 3.72138 7.42927 3.96598 7.3623 4.46387C7.29294 4.9799 7.29199 5.66724 7.29199 6.66699L7.29199 13.335C7.29199 14.3348 7.29293 15.022 7.3623 15.5381C7.42927 16.0361 7.54913 16.2806 7.71875 16.4502C7.86396 16.5954 8.06176 16.7025 8.41895 16.7725C8.79364 16.8459 9.29188 16.8689 10.0049 16.875C10.3499 16.8779 10.6277 17.1599 10.625 17.5049C10.6221 17.8499 10.3401 18.1277 9.99512 18.125C9.28621 18.119 8.68072 18.0974 8.17871 17.999C7.65933 17.8973 7.2067 17.7057 6.83496 17.334C6.3944 16.8934 6.20864 16.3408 6.12305 15.7041C6.04123 15.0951 6.04197 14.3237 6.04199 13.3799L6.04199 6.62207C6.04197 5.67822 6.04121 4.90685 6.12305 4.29785C6.20864 3.66116 6.3944 3.10859 6.83496 2.66797C7.27545 2.22755 7.82743 2.04264 8.46387 1.95703C9.07293 1.87513 9.84504 1.87498 10.7891 1.875L13.3779 1.875ZM18.0537 11.9414C18.3624 11.787 18.7382 11.912 18.8926 12.2207C19.0469 12.5294 18.922 12.9052 18.6133 13.0596C17.0673 13.8325 15.994 14.9973 15.3037 15.9834C14.9598 16.4748 14.7147 16.9163 14.5566 17.2324C14.4779 17.3899 14.4212 17.5161 14.3848 17.6006C14.3666 17.6428 14.3528 17.6751 14.3447 17.6953L14.3369 17.7168L14.335 17.7197C14.2525 17.939 14.0541 18.0943 13.8213 18.1211C13.5884 18.1478 13.3605 18.0417 13.2305 17.8467C12.8757 17.3145 12.4281 16.9558 12.0645 16.7285C11.8838 16.6156 11.7276 16.5371 11.6191 16.4883C11.5651 16.464 11.5231 16.4466 11.4971 16.4365C11.4841 16.4315 11.4745 16.4285 11.4697 16.4268L11.4668 16.4258C11.1411 16.3156 10.9654 15.9623 11.0742 15.6357C11.1834 15.3085 11.5369 15.1313 11.8643 15.2402L11.8652 15.2412L11.875 15.2441L11.8926 15.25C11.9064 15.255 11.9248 15.2618 11.9473 15.2705C11.9928 15.2881 12.0557 15.3144 12.1318 15.3486C12.2838 15.417 12.4919 15.5207 12.7275 15.668C12.9944 15.8348 13.3011 16.0605 13.6045 16.3555C13.7746 16.0427 13.9987 15.6689 14.2803 15.2666C15.0483 14.1695 16.2667 12.835 18.0537 11.9414ZM2.29199 6.45801L2.29199 14.8525L2.91699 16.1025L3.54199 14.8525L3.54199 6.45801L2.29199 6.45801ZM14.167 8.54199C14.512 8.54217 14.792 8.82192 14.792 9.16699C14.7918 9.51191 14.5119 9.79182 14.167 9.79199L10 9.79199C9.65493 9.79199 9.37518 9.51202 9.375 9.16699C9.375 8.82181 9.65482 8.54199 10 8.54199L14.167 8.54199ZM14.167 5.20801C14.5119 5.20818 14.7918 5.48809 14.792 5.83301C14.792 6.17808 14.512 6.45783 14.167 6.45801L10 6.45801C9.65482 6.45801 9.375 6.17819 9.375 5.83301C9.37518 5.48798 9.65493 5.20801 10 5.20801L14.167 5.20801ZM2.5 3.125C2.38505 3.125 2.29217 3.2181 2.29199 3.33301L2.29199 5.20801H3.54199L3.54199 3.33301C3.54182 3.2181 3.44796 3.125 3.33301 3.125L2.5 3.125Z" fill="currentColor"/></svg>
