<svg xmlns="http://www.w3.org/2000/svg" fill="currentColor" style="fill-rule:evenodd;clip-rule:evenodd;stroke-linejoin:round;stroke-miterlimit:2" viewBox="0 0 64 64"><path id="Icons" d="M-832 0H448v800H-832z" style="fill:none"/><g id="Icons1"><path id="_-" d="M52.95 31.26q-.3 6.4-3.15 10.09a9.2 9.2 0 0 1-7.7 3.7q-4.62 0-6.18-3.94a9 9 0 0 1-3.03 2.91 7 7 0 0 1-3.62.97 6.3 6.3 0 0 1-5.66-3.06q-1.93-3.08-1.47-8.21.4-4.17 2.03-7.52a13.6 13.6 0 0 1 4.12-5.17 8.8 8.8 0 0 1 5.3-1.83q2.16 0 3.8.53 1.66.54 3.87 2.23l-1.33 14.4q-.48 5.05 2.92 5.05 2.6 0 4.28-2.8t1.83-7.24q.43-9.44-3.64-14.45t-12.26-5.01a16 16 0 0 0-8.89 2.5 17.3 17.3 0 0 0-6.15 7.25 27 27 0 0 0-2.5 10.8q-.3 6.16 1.47 10.63 1.77 4.46 5.44 6.79 3.68 2.32 8.97 2.32 2.14 0 4.48-.5 2.34-.52 3.98-1.39l.97 3.5a13 13 0 0 1-4.2 1.65q-2.66.63-5.34.63-6.5 0-11.14-2.75a17 17 0 0 1-6.98-7.96q-2.4-5.4-2.13-12.91.32-7 3.15-12.6a21.5 21.5 0 0 1 7.76-8.67 20.6 20.6 0 0 1 11.21-3.1q6.37 0 10.95 2.8a17 17 0 0 1 6.87 8.05q2.27 5.25 1.97 12.31m-25.8 2.46q-.33 3.48.62 5.28a3.2 3.2 0 0 0 3.01 1.8q1.39 0 2.61-1.21a9 9 0 0 0 2-3.34l1.14-12.6a7 7 0 0 0-2.48-.5q-2.84 0-4.62 2.68-1.8 2.67-2.28 7.89" style="fill-rule:nonzero"/></g></svg>
