<svg xmlns="http://www.w3.org/2000/svg" fill="none" viewBox="0 0 24 24"><path fill="currentColor" fill-rule="evenodd" d="m4.59 11.41 7.52-7.52a.66.66 0 0 1 .93 0l4.18 4.18c.26.26.26.68 0 .94L9.7 16.52a.66.66 0 0 1-.93 0l-4.18-4.17a.66.66 0 0 1 0-.94m-1.2 2.14a2.36 2.36 0 0 1 0-3.34l7.51-7.52a2.36 2.36 0 0 1 3.35 0l4.17 4.18c.92.92.92 2.42 0 3.34l-1.49 1.5 3.35 3.34a3.2 3.2 0 0 1-4.54 4.53l-3.34-3.35-1.5 1.5c-.92.92-2.41.92-3.34 0zm10.2 1.48 3.35 3.35a1.5 1.5 0 0 0 2.13-2.13l-3.34-3.35z" clip-rule="evenodd"/><path stroke="currentColor" stroke-linecap="round" stroke-width="1.7" d="M2.9 21.1h4.72"/></svg>
