<svg viewBox="0 0 32 32" fill="none" xmlns="http://www.w3.org/2000/svg"><path fill-rule="evenodd" clip-rule="evenodd" d="M22 16.3643C23.652 16.3643 24.5201 17.1557 24.9668 17.8184C25.7785 19.025 25.7583 20.7524 25.3184 21.835C24.9304 22.7909 24.7765 23.6644 24.6885 24.5684L27.4316 25.4404C28.3689 25.7364 28.9998 26.6336 29 27.6748V29.3369C28.9998 29.8887 28.5519 30.3369 28 30.3369V30.335H16C15.448 30.335 15 29.887 15 29.335V27.6738C15 26.6339 15.6307 25.7355 16.5693 25.4395L19.3096 24.5703C19.2202 23.7303 19.0534 22.8283 18.6494 21.835C18.2135 20.7643 18.1978 19.0449 19.0137 17.833C19.4643 17.1637 20.348 16.3643 22 16.3643ZM14.667 1.66699C19.9653 1.66699 22.6239 1.66667 24.4785 3.52246C26.3331 5.37576 26.333 8.03589 26.333 13.333V14C26.333 14.552 25.885 15 25.333 15C24.7812 14.9998 24.333 14.5519 24.333 14V13.333C24.333 8.5883 24.3334 6.20555 23.0645 4.9375C21.7951 3.66686 19.4134 3.66699 14.667 3.66699C9.92073 3.66699 7.53895 3.66654 6.26953 4.93555C5.00023 6.20485 5 8.58656 5 13.333V21.333C5 23.6819 4.99996 24.8622 5.3291 25.6582C5.77177 26.7262 6.60547 27.5603 7.6748 28.0029C8.4708 28.3335 9.65087 28.333 12 28.333C12.5519 28.333 12.9998 28.7812 13 29.333C13 29.885 12.552 30.333 12 30.333C9.38533 30.333 8.07318 30.3333 6.90918 29.8506C5.34659 29.2039 4.12907 27.9864 3.48242 26.4238C2.99986 25.2599 3 23.9475 3 21.333V13.333C3 8.03589 2.99986 5.37576 4.85449 3.52246C6.70916 1.66647 9.36834 1.66699 14.667 1.66699ZM20.5361 26.335C20.4162 26.335 20.2963 26.3543 20.1816 26.3916L17.1729 27.3457C17.089 27.3726 17 27.5048 17 27.6738V28.335H27V27.6738C27 27.5046 26.9108 27.3724 26.8281 27.3457L23.8203 26.3916C23.7043 26.3543 23.5839 26.335 23.4639 26.335H20.5361ZM22.001 18.3633C21.3798 18.3634 20.9381 18.554 20.6729 18.9473C20.2505 19.5752 20.3031 20.5894 20.5029 21.0801C20.9909 22.2826 21.1919 23.3684 21.2959 24.335H22.7012C22.8038 23.3017 22.9922 22.2486 23.4668 21.082C23.6695 20.582 23.7276 19.5563 23.3076 18.9336C23.0489 18.5499 22.6221 18.3633 22.001 18.3633ZM14.667 13.667C15.2188 13.6672 15.667 14.1151 15.667 14.667C15.6668 15.2187 15.2187 15.6668 14.667 15.667H9.33301C8.78127 15.6668 8.33318 15.2187 8.33301 14.667C8.33301 14.1151 8.78116 13.6672 9.33301 13.667H14.667ZM20 8.33301C20.5519 8.33301 20.9998 8.78116 21 9.33301C21 9.88501 20.552 10.333 20 10.333H9.33301C8.78116 10.3328 8.33301 9.8849 8.33301 9.33301C8.33318 8.78127 8.78127 8.33318 9.33301 8.33301H20Z" fill="currentColor"/></svg>
