<svg xmlns="http://www.w3.org/2000/svg" fill="none" viewBox="0 0 24 24"><path fill="none" stroke="currentColor" stroke-width="1.7" d="M4.2 18v-7a3 3 0 0 1 3-3h9.6a3 3 0 0 1 3 3v7a3 3 0 0 1-3 3H7.2a3 3 0 0 1-3-3Z"/><path fill="none" stroke="currentColor" stroke-linecap="round" stroke-width="1.7" d="M12 5v3"/><path fill="none" stroke="currentColor" stroke-width="1.7" d="M20 12h1a2 2 0 0 1 2 2v1.45a2 2 0 0 1-1.26 1.85L20 18M4 12H3a2 2 0 0 0-2 2v1.45a2 2 0 0 0 1.26 1.85L4 18"/><path fill="currentColor" fill-rule="evenodd" d="M16 11.15c.47 0 .85.38.85.85v2a.85.85 0 1 1-1.7 0v-2c0-.47.38-.85.85-.85m-8 0c.47 0 .85.38.85.85v2a.85.85 0 1 1-1.7 0v-2c0-.47.38-.85.85-.85" clip-rule="evenodd"/><circle fill="none" cx="12" cy="3" r="2" fill="currentColor"/><path fill="none" stroke="currentColor" stroke-linecap="round" stroke-width="1.7" d="M10 17h4m8-5v-2M2 12v-2"/></svg>
