<svg xmlns="http://www.w3.org/2000/svg" viewBox="0 -25.32 334.458 334.458"><defs><style>.a{fill:#fff}.c{fill:#ffe9aa}.d{fill:#211715}</style></defs><path d="M278.31 105.7c-1.83 3.02-7.63 5.02-12.34 8.39-5.32 3.8-9.21 9.4-6.37 17.94a178 178 0 0 0 28.55 2.08 177 177 0 0 0 28.56-2.08c2.83-8.54-1.06-14.14-6.38-17.94-5.49-3.93-12.45-5.99-12.9-9.98l-.03-12.08a11.8 11.8 0 0 0-2.1-7.11 10.1 10.1 0 0 0-14.3 0 11.8 11.8 0 0 0-2.1 7.11l-.03 12.08a4 4 0 0 1-.56 1.59m44.83 156.26a28 28 0 0 1-4.17 2.24c-8.57 2.46-18.57 3.08-30.82 3.08-11.77 0-22.39-.62-29.81-2.9-6.7-2.85-11.04-7.07-12.76-13.92-1.15-4.6-.71-11.33-.32-20 .54-11.9 2.55-51.4 2.92-60.42a28 28 0 0 1 2.1-9.31 17 17 0 0 1 3.66-5.55l.02-.02a18 18 0 0 0 4.91 1.53 176 176 0 0 0 29.28 2.2 176 176 0 0 0 29.5-2.24 16 16 0 0 0 5.3-1.47 17 17 0 0 1 3.65 5.55 28 28 0 0 1 2.1 9.3c.38 9.02 2.39 48.54 2.93 60.43.39 8.67.83 15.4-.33 20a18.5 18.5 0 0 1-8.16 11.5M2.4 98.49c0-11.42 7.1-22.87 16.28-28.88 13.12-8.6 31.97-17 70.38-17s57.26 8.4 70.38 17c9.18 6.01 16.28 17.46 16.28 28.88s-7.1 22.87-16.28 28.89c-13.12 8.6-31.97 17-70.38 17s-57.26-8.4-70.38-17C9.5 121.36 2.4 109.92 2.4 98.49" class="a"/><path d="M175.72 98.5c0 11.42-7.1 22.86-16.28 28.88-13.12 8.6-31.97 17-70.38 17s-57.26-8.4-70.38-17C9.25 121.2 2 109.28 2.42 97.56c-.06-15.38.04 84.19 0 130.17v7.8c0 11.42 7.1 22.86 16.27 28.88 13.12 8.6 31.97 17 70.38 17s57.27-8.4 70.39-17c9.08-5.96 16.14-17.24 16.27-28.55-.05-31.84 0-107.96 0-132.3" style="fill:#bbdef2"/><path d="M22.88 114.28a33 33 0 0 0 7 5.3c11.23 6.24 28.17 11.76 59.23 11.76 32.9 0 49.03-6.1 60.27-12.34a29 29 0 0 0 3.47-2.27c2.92-11.9-8.76-21.03-18.9-23.15-8.33-1.74-19.91-2.28-28.4-2.78-13.24-.78-22.54-3.78-36.21-5.7a47 47 0 0 0-15.4.4c-10.38 2.04-26.62 17.72-34.5 24.78a33 33 0 0 0 3.44 4" class="c"/><path d="m173.34 103.57-.02 36.83-.01 49.86.02 43a35 35 0 0 1-1.78 12.03 35 35 0 0 1-7.3 11.9c-4.36 4.7-10.12 7.98-15.82 10.8a92 92 0 0 1-18.07 6.58 143 143 0 0 1-25.92 3.95 225 225 0 0 1-33.21-.19 137 137 0 0 1-25.34-4.27 99 99 0 0 1-9.71-3.2 82 82 0 0 1-7.79-3.54c-6.03-3.11-11.8-6.7-16.14-12.02a34 34 0 0 1-6.4-12.4c-1.08-3.93-1.03-7.84-1.03-11.88v-23.25q.01-26.2 0-52.4l-.02-44.72v-7.08c0-3.09-4.8-3.1-4.8 0l.01 40.21.02 53.56v36.73a37 37 0 0 0 1.9 12.35 41.3 41.3 0 0 0 17.42 21.26 93 93 0 0 0 15.68 7.85c16.78 6.53 35.22 8.21 53.08 8.28 18.12.07 36.84-1.46 53.93-7.86a93 93 0 0 0 16.07-7.83 45 45 0 0 0 9.27-7.25 41 41 0 0 0 8.17-12.66 35 35 0 0 0 2.58-13.62v-8.94q-.02-10.98-.02-21.97l.01-50.64.02-42.6v-6.87c0-3.09-4.8-3.1-4.8 0" class="d"/><path d="M161.63 74.28a35.5 35.5 0 0 1 10.62 16.7 28.4 28.4 0 0 1-1.3 18.77 35 35 0 0 1-11.5 14.71 76 76 0 0 1-9.6 5.77 97 97 0 0 1-25.53 8.68c-13.43 2.72-27.27 3.31-40.94 3-12.42-.28-24.9-1.48-36.92-4.73a88 88 0 0 1-22.75-9.49 41 41 0 0 1-11.59-9.58A32.7 32.7 0 0 1 4.9 100.8c-1.01-12.32 6.46-23.77 16.6-30.15a91 91 0 0 1 9.58-5.28 87 87 0 0 1 11.87-4.56c11.27-3.46 23.05-4.98 34.8-5.54q5.66-.26 11.3-.26c3.1 0 3.1-4.8 0-4.8-13.7.01-27.55.99-40.91 4.2a97 97 0 0 0-25.48 9.94 50 50 0 0 0-11.9 8.8 39.5 39.5 0 0 0-9.93 18.2c-3.13 13.88 3.6 28.27 14.66 36.7 6.66 5.07 14.63 8.78 22.49 11.54 11.2 3.93 23.07 5.78 34.88 6.63a211 211 0 0 0 45.22-1.38 112 112 0 0 0 29.98-8.43c9.05-4.09 17.75-9.42 23.46-17.75a36.5 36.5 0 0 0 6.59-19.4 36 36 0 0 0-6.25-20.44 41 41 0 0 0-6.84-7.93c-2.3-2.06-5.7 1.32-3.4 3.39Z" class="d"/><path d="M160.92 98.03c-.07 6.64-4.2 12.7-9.32 16.66a53 53 0 0 1-11.35 6.13 87 87 0 0 1-5.9 2.2q-3.48 1.16-7.06 2.04a124 124 0 0 1-17.51 2.94 214 214 0 0 1-24.03.92 185 185 0 0 1-22.35-1.51 114 114 0 0 1-16.5-3.42 76 76 0 0 1-12.08-4.56c-5.22-2.52-10-5.75-13.42-10.53a21 21 0 0 1-3.97-8.9 16.4 16.4 0 0 1 1.73-9.58 25 25 0 0 1 3-4.69 2.47 2.47 0 0 0 0-3.4 2.4 2.4 0 0 0-3.4 0c-5 6.14-7.87 14.12-5.2 21.9 2.45 7.13 8.02 13.24 14.45 17.04 8.65 5.1 18.59 8.08 28.41 9.86 15.67 2.85 31.93 3.2 47.8 2.13 11.98-.8 24.1-2.65 35.34-7.01a79 79 0 0 0 11.71-5.56c6.41-3.8 11.84-10.06 13.75-17.35a22 22 0 0 0 .7-5.3c.03-3.1-4.77-3.1-4.8 0Z" class="d"/><path d="M21.14 111.98c6.28-5.63 12.42-11.46 19.2-16.5A55 55 0 0 1 51 88.93c4.1-1.77 9.49-2.06 14.12-1.82 5.82.29 11.63 1.6 17.33 2.71a231 231 0 0 0 16.32 2.77c10.75 1.3 21.65 1.02 32.35 2.9a28 28 0 0 1 13.28 5.66c3.63 2.99 6.43 7.06 6.49 11.9.04 3.08 4.84 3.09 4.8 0-.12-10.25-8.9-17.8-17.96-20.9-4.95-1.7-10.44-2.13-15.62-2.61-5.52-.52-11.05-.8-16.58-1.13-11.87-.72-23.35-3.88-35.08-5.55-5.99-.85-12.45-1.03-18.33.6A39 39 0 0 0 41 89.13c-8.38 5.7-15.74 12.7-23.27 19.46-2.3 2.06 1.1 5.45 3.4 3.39Z" class="d"/><path d="M54.75 188.32c5.15-13.76 20.61-20.04 34.75-19.62 8.24.24 17.04 2.29 23.2 6.56 6.4 4.45 10.37 9.01 11.92 16.64a33 33 0 0 1 .2 12.9s-.6 2.84-1.1 5.24a6 6 0 0 1 2.75-.63 4.2 4.2 0 0 1 3.33 1.56 5 5 0 0 1 .68 2.21 15.3 15.3 0 0 1-1.36 9.16 12 12 0 0 1-3.08 3.86 14 14 0 0 1-4.63 2.2l-.32.08c-2.88 10.1-11.84 17.49-21.55 20.56-5.93 1.88-15.39 2.26-21.84.32-9.58-2.88-18.23-10.79-20.55-20.88l-.44-.07a14 14 0 0 1-4.62-2.2 12 12 0 0 1-3.08-3.87 15.3 15.3 0 0 1-1.36-9.16 5 5 0 0 1 .68-2.21 4.2 4.2 0 0 1 3.33-1.56 6 6 0 0 1 3.92 1.4l-.96-5.62a25 25 0 0 1-.6-14.5q.32-1.23.73-2.37" class="a"/><path d="M83.2 234.43c1.76 1.74 4.47 2.32 6.84 2.32s5.08-.6 6.84-2.36a2.46 2.46 0 0 0 0-3.44 2.5 2.5 0 0 0-3.45.06c-.09.1-.43.37-.02.05s-.02 0-.14.07l-.4.23-.3.14c.1-.06.6-.23.22-.1a10 10 0 0 1-1.36.38l-.23.04q-.28.05.26-.03l-.42.05a12 12 0 0 1-1.92.01l-.5-.05c.22 0 .48.07.1 0a8 8 0 0 1-1.37-.37c-.2-.07-.51-.27.15.08l-.23-.11q-.24-.12-.46-.26l-.32-.22c.7.45.35.3.16.1a2.42 2.42 0 1 0-3.44 3.4Zm-10.4-20.36c-.56 1.75-.22 5.88 3.15 6.34 4.44.13 4.7-4.84 3.2-7.2-1.22-1.94-4.82-2.85-6.36.86m33.53-.05c.55 1.75.2 5.88-3.16 6.35-4.44.14-4.7-4.82-3.2-7.2 1.22-1.93 4.82-2.85 6.36.85m17.44-1.24a3.4 3.4 0 0 1 2.4-.94 2.2 2.2 0 0 1 1.63.68c-.25-.29.08.2.06.14a5 5 0 0 1 .21.85c.03.19.08.85.1 1.22a17 17 0 0 1-.06 3.3 10.7 10.7 0 0 1-2.55 5.48 9 9 0 0 1-4.78 2.61 2.7 2.7 0 0 0-1.7 3.14 2.27 2.27 0 0 0 2.99 1.43c6.36-1.57 10.47-7.56 10.94-13.84.22-3 .13-6.84-2.33-8.62a7.9 7.9 0 0 0-9.35.6 2.64 2.64 0 0 0-.87 3.4 2.3 2.3 0 0 0 3.32.55Zm-66.96-3.96a7.9 7.9 0 0 0-9.35-.58c-2.47 1.77-2.55 5.6-2.33 8.6.47 6.3 4.58 12.28 10.94 13.85a2.3 2.3 0 0 0 2.99-1.43 2.7 2.7 0 0 0-1.7-3.14 9 9 0 0 1-4.68-2.5 9 9 0 0 1-1.58-2.27 10 10 0 0 1-1.07-3.31 17 17 0 0 1-.07-3.15c.02-.4.07-1.18.1-1.37a4 4 0 0 1 .31-1.04 1.3 1.3 0 0 1 .68-.45 3 3 0 0 1 .94-.2 3.5 3.5 0 0 1 2.36.96 2.3 2.3 0 0 0 3.32-.56 2.63 2.63 0 0 0-.87-3.4Z" class="d"/><path d="M54.5 226.27c.31 6.62 4.35 13.09 9.24 17.63a36 36 0 0 0 10.45 6.75 20 20 0 0 0 2.85 1.03c1.38.34.57.16.36.1l.71.19q.83.2 1.66.36a44 44 0 0 0 6.4.74 41 41 0 0 0 14.02-1.7c2.62-.85 2.14-4.84-.64-4.76h-.01l.65 4.76a37 37 0 0 0 16.72-10.67c3.36-3.8 6.15-8.6 6.87-13.57a2.27 2.27 0 0 0-1.7-2.82 2.7 2.7 0 0 0-2.98 1.96 21.7 21.7 0 0 1-5.63 11.25 32 32 0 0 1-14.58 9.2c-2.63.8-2.12 4.83.65 4.75h.01l-.65-4.76a36 36 0 0 1-10.67 1.53 43 43 0 0 1-5.68-.34 27 27 0 0 1-2.41-.42q-.64-.14-1.27-.3c-.27-.07-.58-.1-.84-.2-.99-.32.4.12-.28-.13a33 33 0 0 1-9.55-5.26 28 28 0 0 1-6.05-6.92 21 21 0 0 1-2-4.14 14 14 0 0 1-.79-3.81c-.15-3.13-5-3.6-4.85-.45Zm2.46-21.5c-2.8-7.17-.99-15.23 2.86-21.04A26.5 26.5 0 0 1 74.4 173.4c13.56-4.07 32.05-2.54 42.42 8.56 5.44 5.81 6.81 14.26 5.67 22.43-.18 1.32.32 2.59 1.7 2.83a2.74 2.74 0 0 0 2.98-2.01 41 41 0 0 0 .02-13.05 26 26 0 0 0-4.6-11.2c-5.2-6.89-13.3-11.25-21.87-13.28-14.79-3.5-33.3-.33-43.6 11.23-5.72 6.43-8.06 18.58-4.83 26.69a2.8 2.8 0 0 0 2.99 2 2.22 2.22 0 0 0 1.7-2.83Z" class="d"/><path d="M84.52 192.9a13 13 0 0 1-.48 1.5l.24-.59a8 8 0 0 1-1.05 1.78l.38-.49a8 8 0 0 1-1.48 1.44l.5-.37a8 8 0 0 1-1.8 1l.57-.22a8 8 0 0 1-2 .5l.65-.07-.41.03a2.5 2.5 0 0 0-1.73.66 2.4 2.4 0 0 0-.7 1.7 2.55 2.55 0 0 0 2.43 2.5 10.4 10.4 0 0 0 6.26-2.5 10.7 10.7 0 0 0 3.32-5.56 2.44 2.44 0 0 0-4.7-1.32Zm9.81 1.49a7 7 0 0 1-.05 1l.09-.65a8 8 0 0 1-.53 1.92l.24-.58a8 8 0 0 1-.96 1.64l.38-.5a8 8 0 0 1-1.33 1.36l.5-.38a7 7 0 0 1-1.55.92l.59-.25-.19.08a2.7 2.7 0 0 0-1.46 1.12 2.5 2.5 0 0 0-.24 1.88 2.5 2.5 0 0 0 1.12 1.44 2.4 2.4 0 0 0 1.87.23 11 11 0 0 0 2.88-1.71 10 10 0 0 0 1.9-2.18 10 10 0 0 0 1.62-5.45 2.4 2.4 0 0 0-2.44-2.37 2.53 2.53 0 0 0-2.43 2.48Z" class="d"/><path d="M169.7 20.25a88 88 0 0 1-11.3 2.8c-11.05.03-25.68 1.36-36.68 6.88-6.48 3-16.46 8.2-20.2 14.14-1.2 1.88-.75 4.4.31 6.35 10.02 14.35 23.7 21.14 31.5 21.44 8.71.34 16.14-4.05 27.49-11.12 1.67-1.17 3.12-2.06 4.1-3.82 3.34-6.03 4.97-13.84 8.91-18.64 12.56-12.38 33.82-19.35 52.01-28.56V7.04c-4.4-1.8-8.82-6.66-13.7-3.79-10.4 4.8-28.18 12.62-42.44 17" class="a"/><path d="M169.06 17.94c-4 1.22-8.24 2.66-12.45 2.73q-6.05.08-12.08.74a91 91 0 0 0-13.04 2.36 69 69 0 0 0-11.69 4.41 93 93 0 0 0-9.93 5.33 37 37 0 0 0-8.85 7.23 9.5 9.5 0 0 0-2.6 5.5 10 10 0 0 0 1.97 6.28 63 63 0 0 0 8.72 9.81 50 50 0 0 0 17.73 10.7 26.6 26.6 0 0 0 17.8-.78 72 72 0 0 0 10.71-5.36q3.06-1.8 6.05-3.69a18 18 0 0 0 4.95-4.11 26 26 0 0 0 2.81-5.56c.83-1.97 1.58-3.96 2.38-5.94a42 42 0 0 1 2.53-5.41 15 15 0 0 1 3.3-3.92c5.97-5.32 13.13-9.23 20.27-12.75 7.77-3.83 15.77-7.2 23.6-10.89q2.93-1.38 5.8-2.83a2.4 2.4 0 0 0 1.2-2.07V7.04a2.4 2.4 0 0 0-1.2-2.07c-3.55-1.52-6.56-4.35-10.5-4.9-3.76-.52-7.28 1.88-10.59 3.37a434 434 0 0 1-23.04 9.66 214 214 0 0 1-13.85 4.83c-2.94.91-1.69 5.55 1.27 4.63a269 269 0 0 0 23.63-8.74q5.6-2.32 11.14-4.77 2.5-1.1 4.97-2.23a32 32 0 0 1 4.25-1.93c1.66-.46 3.33.37 4.76 1.15a63 63 0 0 0 5.54 3.07l-1.18-2.07v2.68l1.19-2.07c-14.56 7.34-30.34 12.7-43.87 21.95a49 49 0 0 0-8.63 6.98c-2.64 2.9-4.1 6.9-5.52 10.48-.72 1.82-1.4 3.66-2.2 5.44-.73 1.67-1.45 3.5-2.84 4.73a36 36 0 0 1-5.02 3.33 185 185 0 0 1-5.6 3.33c-5.58 3.16-11.68 6.05-18.22 5.54l-.83-.09a23 23 0 0 1-2.07-.44 31 31 0 0 1-3.77-1.23 43 43 0 0 1-8.01-4.36 53 53 0 0 1-8.23-6.96 59 59 0 0 1-4.1-4.67c-1.13-1.44-2.44-2.93-2.51-4.85-.05-1.44 1.04-2.58 1.96-3.56a28 28 0 0 1 3.81-3.37 70 70 0 0 1 9.72-5.85 75 75 0 0 1 9.94-4.41 73 73 0 0 1 11.83-2.86 105 105 0 0 1 11.82-1.18q2.7-.13 5.4-.15a27 27 0 0 0 6.05-1.05q3.32-.82 6.6-1.83c2.94-.9 1.69-5.54-1.28-4.63" class="d"/><path d="M116.28 43.67c.8-5.7 3.55-12.8 7.07-16.21 3.98-3.85 7.57-5.58 11.45-6.16 2.72-.4 6.5.27 9.57 1.15 7.64 2.2 13.32 11.29 16.25 16.11-.54 1.44-.94 2.6-1.4 3.94a10.6 10.6 0 0 1-4.96 5.83q-4.01 2.18-8.22 3.97a59 59 0 0 1-4.89 1.86c-4.46 1.45-8.37 2.57-13.07 2.5a12 12 0 0 1-5.12-1.74 68 68 0 0 1-7-5.21l.1-3.5a24 24 0 0 1 .22-2.54" class="c"/><path d="M161.7 35.73a52 52 0 0 0-8.05-10.32 23.4 23.4 0 0 0-12.51-6.17 20 20 0 0 0-13.9 2.2 24 24 0 0 0-9.6 10.05 36 36 0 0 0-3.98 14.72c-.12 3.09 4.68 3.08 4.8 0a31 31 0 0 1 2.63-10.8 20 20 0 0 1 7.07-8.87 15.2 15.2 0 0 1 10.88-2.8 19 19 0 0 1 10.68 4.56 45 45 0 0 1 7.83 9.84c1.64 2.62 5.8.2 4.14-2.42Z" class="d"/><path d="M109.75 43.8c-.3 2.43.86 4.34 2.6 5.93a75 75 0 0 0 5.51 4.54c3.7 2.78 7.28 5 12.06 4.76a47 47 0 0 0 13.89-3.26 90 90 0 0 0 7.16-3.08 34 34 0 0 0 6.06-3.32c4-3.04 5.01-7.93 6.75-12.38a2.4 2.4 0 0 0-1.67-2.96 2.46 2.46 0 0 0-2.96 1.68q-.96 2.48-1.84 4.98a10 10 0 0 1-2.23 4.04 16 16 0 0 1-4.58 2.87q-2.86 1.45-5.82 2.7a56 56 0 0 1-11.89 3.62 16 16 0 0 1-5.24.28 12 12 0 0 1-4.5-2.1 63 63 0 0 1-5.27-3.97c-.91-.77-1.86-1.54-2.7-2.4a1.9 1.9 0 0 1-.53-1.93 2.4 2.4 0 0 0-2.4-2.4 2.46 2.46 0 0 0-2.4 2.4" class="d"/><path d="M260.18 264.9q-.95-.25-1.84-.52c-6.7-2.85-11.04-7.07-12.76-13.92-1.15-4.6-.71-11.33-.32-20 .33-7.29 1.21-24.94 1.93-39.6 5.54.9 11.45 1.91 11.45 1.91a176 176 0 0 0 29.5 2.24 176 176 0 0 0 29.52-2.23l12-2.6c.73 14.78 1.63 32.88 1.97 40.28.39 8.67.83 15.4-.33 20-1.68 6.7-5.87 10.9-12.33 13.74-8.57 2.46-18.57 3.08-30.82 3.08-10.83 0-20.68-.53-27.97-2.39" class="c"/><path d="m318.11 131.89-.5-.01a176 176 0 0 1-29.46 2.22 174 174 0 0 1-29.37-2.22 7.6 7.6 0 0 0-5.62 2.97c-1.63 2.17-2.12 4.98-2.47 7.68a45 45 0 0 0-.53 7.07c-.04 1.56 1.63 4.2 2.63 4.88a16 16 0 0 0 6.08 2.2 176 176 0 0 0 29.28 2.2 176 176 0 0 0 29.5-2.23 14 14 0 0 0 6.44-2.18c1-.67 2.67-3.3 2.64-4.87a45 45 0 0 0-.54-7.08c-.35-2.7-.83-5.5-2.47-7.67a7.6 7.6 0 0 0-5.6-2.96" style="fill:#7abee6"/><path d="M261.8 131.07c-1.07-3.55-1.07-7.14.93-10.36 1.91-3.07 5.03-5.1 8.1-6.86 3.25-1.86 7.39-3.53 9.48-6.82 1.21-1.92.97-4.13.97-6.3l.02-7.73a12 12 0 0 1 1.07-5.81 6.1 6.1 0 0 1 4.37-2.72 8 8 0 0 1 5.54 1.02c1.6.96 2.2 2.6 2.54 4.37a38 38 0 0 1 .2 7v3.87a23 23 0 0 0 .12 4.13c.69 3.63 4.47 5.7 7.4 7.35 3.69 2.07 7.68 4.04 10.33 7.46 2.6 3.38 2.84 7.4 1.63 11.4-.9 2.96 3.73 4.22 4.63 1.27a17 17 0 0 0-.94-13.24c-1.94-3.63-5.25-6.33-8.7-8.46-2-1.23-4.1-2.3-6.13-3.5-1.3-.79-2.9-1.78-3.46-2.97-.14-.3 0 .37-.06-.22v-.33c-.06-.63 0-1.3 0-1.93l-.01-4.59a52 52 0 0 0-.27-7.94 11.4 11.4 0 0 0-2.98-6.4 12 12 0 0 0-6.33-3.03c-4.82-.75-10.35 1.2-12.42 5.87a18 18 0 0 0-1.33 7.4l-.02 8.45c0 .72.05 1.46 0 2.17 0 .1-.13.75 0 .44a4 4 0 0 1-1.31 1.58 32 32 0 0 1-5.18 3.18c-4.27 2.38-8.5 5.03-11.22 9.2-2.8 4.3-3.05 9.5-1.58 14.32.9 2.95 5.53 1.69 4.63-1.28Zm-9.56 22.41c-4.53 4.12-6.22 11.16-6.48 17.04l-.4 8.7q-.65 13.59-1.33 27.18-.58 11.63-1.13 23.27c-.48 10.59-2.37 23.17 5.95 31.4a25 25 0 0 0 6.6 4.6 29 29 0 0 0 8.02 2.37 126 126 0 0 0 19.61 1.59c6.94.12 13.92.08 20.84-.49q4.66-.36 9.26-1.16a31 31 0 0 0 8.35-2.35 22.4 22.4 0 0 0 11.09-11.5c2.06-5.02 1.93-10.6 1.75-15.94-.29-8.37-.76-16.73-1.17-25.1l-1.39-28.12-.52-10.98c-.2-4.21-.39-8.35-1.8-12.38a19.6 19.6 0 0 0-4.84-8.14c-2.28-2.07-5.69 1.31-3.4 3.4 3.77 3.42 4.9 9.32 5.1 14.17l.41 8.78q.63 13.13 1.29 26.26.57 11.45 1.11 22.9c.25 5.34.67 10.71.44 16.06-.2 4.43-1.36 8.9-4.59 12.27a21 21 0 0 1-5.9 4.17c-2.27 1.13-5.08 1.5-7.57 1.93a120 120 0 0 1-18.14 1.41c-6.83.13-13.69.08-20.5-.44a83 83 0 0 1-8.52-1.04 25 25 0 0 1-7.15-2.14 17.3 17.3 0 0 1-8.93-10c-1.53-4.78-1.1-10.12-.88-15.16.33-7.85.73-15.7 1.11-23.54l1.33-26.97.52-10.76c.16-3.5.2-6.95 1.16-10.35.78-2.72 1.97-5.62 4.1-7.56 2.3-2.08-1.1-5.46-3.4-3.4Z" class="d"/><path d="M317.02 190.46a184 184 0 0 1-46.35 1.44q-5.72-.49-11.39-1.44a2.47 2.47 0 0 0-2.95 1.68 2.4 2.4 0 0 0 1.67 2.95 189 189 0 0 0 48.03 1.57q6.16-.55 12.26-1.57a2.4 2.4 0 0 0 1.68-2.95 2.46 2.46 0 0 0-2.96-1.68ZM258 158.96a190 190 0 0 0 42.6 1.97 140 140 0 0 0 19.35-2.22 11.5 11.5 0 0 0 7.47-4.42c1.72-2.5 1.8-5.08 1.6-8-.43-6.23-1.4-14.01-8.23-16.32-2.93-.99-5.98-.02-8.94.36q-4.98.63-9.99.95a192 192 0 0 1-42.1-1.64c-3.89-.61-7.78 1.97-9.52 5.37-1.67 3.28-2.02 7.2-2.34 10.81-.26 3.05-.24 5.86 1.56 8.47 2.05 2.98 5.4 4.03 8.8 4.72a2.46 2.46 0 0 0 2.95-1.68 2.4 2.4 0 0 0-1.67-2.95 21 21 0 0 1-3.75-1 4 4 0 0 1-2.37-1.78 7 7 0 0 1-.66-1.24 2 2 0 0 1-.2-1.18q.02-1.68.14-3.36c.35-4.02.98-12.31 6.86-11.38a191 191 0 0 0 38.83 1.83 168 168 0 0 0 17.75-1.74 6 6 0 0 1 3.37.07 5 5 0 0 1 2.6 2.13c1.47 2.39 1.68 5.46 1.99 8.19.2 1.85.6 4.28-.13 5.79a7 7 0 0 1-.87 1.42l-.36.37c.1-.1.48-.28-.15.1a12 12 0 0 1-3.91 1.48 128 128 0 0 1-16.8 1.97 185 185 0 0 1-42.6-1.72 2.47 2.47 0 0 0-2.95 1.68 2.4 2.4 0 0 0 1.67 2.95" class="d"/></svg>
