<svg xmlns="http://www.w3.org/2000/svg" viewBox="-32.38 0 334.456 334.456"><defs><style>.a{fill:#fff}.c{fill:#211715}</style></defs><path d="m53.35 288.69-1.78.08-.94.04c-.45 3.69-1.72 13.8-2.05 16.97-1.48 7.4-1.82 10.64-2.9 17.61h127.7l.03-34.66c-4.11 0-18.11.1-18.11.1-33.38-1.5-73.39-1.48-101.95-.14" class="a"/><path d="M145.96 148.65c9-5.5 8.43-12.09 8.07-16.04a44 44 0 0 0-4.11-15.22c-2.9-6.6-8.36-20.04-10.64-44.68a119 119 0 0 0-1.2-15.62c-.31-2.42-.61-4.46-.82-5.8-2.47-15.96-13.67-33.45-26.36-39.36-15.6-9.77-28.8-10.82-41.53-8.5C51.3 6.71 37.58 15.66 29.28 28.5c-4.79 7.4-7.6 17.63-8.02 26.47a90 90 0 0 0 4.48 30.1c4.01 19.04.66 40.02 3.9 55.61 1 4.96 4.2 10.7 11.67 14.67Z" style="fill:#a98a75"/><path d="M45.16 62.35q3.97-4.02 7.8-8.04a.46.46 0 0 1 .78.41 33 33 0 0 0-.6 8 2.07 2.07 0 0 0 2.88 1.8c12.61-5.29 23.97-13.56 31.14-23.55a141 141 0 0 0 7.27 14.52c3.1 5.32 10.8 14.2 17.22 16.65l10.4 1.03a7.8 7.8 0 0 1 5.44-1.9c3.9.14 5.56 2.14 6.27 3.32 2.13 3.53 2.04 10.01.6 14.03a20.4 20.4 0 0 1-6.59 9.92 15 15 0 0 1-7.1 2.55l-.39 1.12c-.7 2.05-2.5 5.7-2.5 5.7a67 67 0 0 1-7.81 12.12l2.29 6.93a27 27 0 0 0 2.17 5.28c2.6 4.43 15.18 5.99 19.1 6.61l.9.17-.2.2-2.2 2.38a78 78 0 0 1-43.85 20.99c-6.28.79-12.77.8-18.96-1.1a30 30 0 0 1-14.65-9.99c3.63-1.87 7.62-3.89 10.13-5.43 2.75-1.4 6.14-3.82 5.61-7.23-8.06.2-15.48-2.04-22.88-6.76-8.97-5.73-13.96-15.67-16.8-27.07q-.2-.76-.37-1.53c-1.6-6.94-3.18-14.5-5.09-22.02l-.1-.39 1.58-1.37c.66-.57 1.7-1.39 2.55-2.15 5.23-4.6 10.65-9.85 15.96-15.2" class="a"/><path d="M115.08 17.24c8.08 6.06 13.96 15.42 17.32 24.84a72 72 0 0 1 3.29 15q.56 4.22.9 8.46c.23 2.87.14 5.76.42 8.61A165 165 0 0 0 142.5 104q1.34 4.62 3.07 9.11c1.13 2.91 2.48 5.73 3.57 8.65a38 38 0 0 1 2.65 14.55 11 11 0 0 1-1.3 4.72 16 16 0 0 1-5.73 5.56c-2.62 1.63-.2 5.78 2.43 4.14 4.23-2.63 7.95-6.38 9.02-11.4.83-3.93.26-8.2-.5-12.08a45 45 0 0 0-2.58-8.39q-.66-1.6-1.36-3.2l-.31-.71-.13-.3c-.16-.37.18.44-.08-.2q-1.68-4.05-3.05-8.23a147 147 0 0 1-5.97-28.33c-.7-5.97-.69-12-1.39-17.98a93 93 0 0 0-2.92-16.44c-3.57-11.72-10.54-22.96-20.41-30.36a2.4 2.4 0 0 0-3.28.86 2.46 2.46 0 0 0 .86 3.29ZM22.64 82.31c2.9 11.19 2.88 22.81 2.96 34.29.04 5.34.07 10.68.52 16 .38 4.51.88 9.14 2.74 13.31a25 25 0 0 0 11.24 11.5c2.72 1.47 5.15-2.67 2.43-4.14a21 21 0 0 1-9.28-9.23c-1.65-3.45-2.03-7.78-2.35-11.63-.89-10.78-.25-21.62-.88-32.42a99 99 0 0 0-2.75-18.95c-.77-2.99-5.4-1.72-4.63 1.28Zm42.11 37.02a10 10 0 0 1 1.3-.77l.33-.17c.05-.02.44-.18.16-.07l.26-.1q.19-.08.38-.13a17 17 0 0 1 1.68-.48q.4-.09.82-.16l.41-.07c.38-.07-.57.06.09-.01a18 18 0 0 1 2.5-.08l.38.03c.07 0 .48.07.14.01-.37-.06.2.04.22.05a9 9 0 0 1 1.27.34q1.05.36 2.11.7a2.4 2.4 0 0 0 2.96-1.67 2.45 2.45 0 0 0-1.68-2.95 28 28 0 0 0-4.24-1.18 15 15 0 0 0-3.87-.03 17 17 0 0 0-7.64 2.6 2.45 2.45 0 0 0-.86 3.27 2.43 2.43 0 0 0 3.28.87m11.02-31.5c-.97-2.42-.94-8.15 3.7-9.02 6.2-.48 7.1 6.37 5.28 9.78-1.49 2.79-6.41 4.31-8.98-.77m-36.66 4.2c-.91-2.42-.95-8.16 3.3-9 5.67-.41 6.57 6.46 4.94 9.86-1.34 2.78-5.84 4.25-8.24-.86M59 95.31a62 62 0 0 0-2 4.95 5 5 0 0 0-.32 1.81 3.4 3.4 0 0 0 .45 1.6 4 4 0 0 0 1.23 1.2 5 5 0 0 0 2.28.77c.32.03.64 0 .96.01a2.4 2.4 0 0 0 2.4-2.4 2.45 2.45 0 0 0-2.4-2.4c-.32 0-.64.03-.96-.01l.63.08a3 3 0 0 1-.58-.16l.57.24a3 3 0 0 1-.58-.34l.49.37-.23-.2.38.49-.08-.14.24.57-.08-.24.1.64a2 2 0 0 1 0-.44l-.1.64a10 10 0 0 1 .63-1.94q.41-1.05.85-2.09l-.24.58q.24-.6.5-1.17a2.6 2.6 0 0 0 .24-1.85 2.4 2.4 0 0 0-1.1-1.44 2.4 2.4 0 0 0-1.85-.24A2.3 2.3 0 0 0 59 95.3m49.9 29.57a64 64 0 0 0 13.7-22.04 2.4 2.4 0 1 0-4.63-1.27 53 53 0 0 1-4 8.36 62 62 0 0 1-8.47 11.56c-2.1 2.26 1.29 5.66 3.4 3.4Z" class="c"/><path d="M107.3 7.08A57.7 57.7 0 0 0 76.88.1a71 71 0 0 0-27.9 7.62A57 57 0 0 0 29.07 24.6c-6 8.13-9.15 18.18-10.05 28.18a72 72 0 0 0 .58 15.77 91 91 0 0 0 3.97 17.52c1 2.9 5.63 1.66 4.63-1.28-5.97-17.43-7.25-38.6 2.96-54.77 9.12-14.45 25.5-22.77 42.14-24.8a52 52 0 0 1 14.99.2 56 56 0 0 1 16.6 5.8c2.73 1.42 5.16-2.72 2.42-4.15Z" class="c"/><path d="M96.56 127.7a59 59 0 0 1-19.18 7.95 37.6 37.6 0 0 1-20.2-1.33 35 35 0 0 1-15.57-10.72c-3.9-4.83-6.31-10.78-8-16.7-2.44-8.57-3.94-17.42-6.13-26.07-.75-3-5.38-1.73-4.62 1.27 2.06 8.14 3.57 16.42 5.7 24.55 1.73 6.54 4.26 13.08 8.3 18.57 8.7 11.87 24.05 17.54 38.47 15.6 8.5-1.14 16.36-4.53 23.65-8.98 2.63-1.6.22-5.76-2.42-4.14m27.18-52.84a5.5 5.5 0 0 1 3.75-1.18 6 6 0 0 1 2.12.4 4 4 0 0 1 .65.32l.47.3q.26.23.5.47l.2.24c-.3-.34-.07-.12-.01-.03a7 7 0 0 1 .71 1.25 13 13 0 0 1 .85 4.23c.3 5.6-1.9 12.26-6.57 15.72-2.28 1.7-5.78 2.7-8.54 1.8-2.94-.96-4.2 3.67-1.27 4.63 3.8 1.24 8.34.11 11.68-1.92 3.46-2.1 5.9-5.72 7.45-9.38a24 24 0 0 0 2.03-11.23c-.24-3.42-1.13-7.16-3.92-9.41a10.75 10.75 0 0 0-13.5.4 2.4 2.4 0 0 0 0 3.4 2.45 2.45 0 0 0 3.4 0ZM85.2 42.46c2.74 6.4 5.83 12.99 10.08 18.53 4.14 5.4 9.28 10.91 15.73 13.46a2.4 2.4 0 0 0 2.95-1.67 2.46 2.46 0 0 0-1.68-2.96 24 24 0 0 1-7.05-4.92 52 52 0 0 1-6.41-7.14c-3.96-5.34-6.88-11.64-9.48-17.71a2.4 2.4 0 0 0-3.28-.87 2.46 2.46 0 0 0-.86 3.29" class="c"/><path d="M85.07 39.77c-6.4 8.86-15.55 15.57-25.27 20.39q-1.9.94-3.83 1.78a4 4 0 0 0-.59.26c-.48.32-.33-.17.06.16.02 0 0 .03.02.04q.15.7.07-.17l-.01-.72a31 31 0 0 1 .24-4.48c.24-1.7.89-3.72-.95-4.81-1.64-.98-3.03-.13-4.19 1.07l-3.27 3.4q-3.5 3.6-7.04 7.12a282 282 0 0 1-15.36 14.2 2.4 2.4 0 0 0 0 3.4 2.45 2.45 0 0 0 3.4 0q6.78-5.81 13.15-12.04 3.32-3.25 6.58-6.56l3.32-3.4 1.48-1.53a11 11 0 0 1 1.51-1.62l-1.21.33h.22l-1.2-.33.2.1-.87-.86.13.19-.33-1.21a18 18 0 0 1-.4 2.78q-.2 1.65-.21 3.3c-.04 2-.06 4 1.56 5.41 1.7 1.47 3.64 1.18 5.53.37q2.62-1.12 5.16-2.41a79 79 0 0 0 18.25-12.65 63 63 0 0 0 8-9.08 2.4 2.4 0 0 0-.86-3.28 2.45 2.45 0 0 0-3.29.86Zm22.7 81.25 2.18 6.58a27 27 0 0 0 2.4 5.85c1.4 2.24 3.77 3.48 6.15 4.44 4.58 1.85 9.54 2.51 14.4 3.28a2.47 2.47 0 0 0 2.95-1.68 2.4 2.4 0 0 0-1.68-2.95c-4.5-.71-9.08-1.34-13.4-2.9a13 13 0 0 1-2.76-1.29q-.37-.22-.75-.5c.33.25-.06-.06-.16-.15l-.4-.37-.2-.3c-1.83-3.55-2.85-7.5-4.1-11.29-.96-2.92-5.6-1.67-4.63 1.28m-39.86 17.82c.21 1.73-.77 2.87-2.37 3.96-1.68 1.14-3.54 2.1-5.32 3.06-4.04 2.18-8.2 4.15-12.2 6.4-2.7 1.53-.27 5.67 2.42 4.15 4.34-2.44 8.87-4.55 13.22-6.97 4-2.21 9.72-5.13 9.05-10.6a2.5 2.5 0 0 0-2.4-2.4 2.4 2.4 0 0 0-2.4 2.4m12.03-66.72a12.3 12.3 0 0 0 7.2 2.23 2.5 2.5 0 0 0 1.7-.7 2.4 2.4 0 0 0-1.7-4.1 10 10 0 0 1-1.39-.07l.64.09a11 11 0 0 1-2.63-.72l.57.24a10 10 0 0 1-1.97-1.12 2.4 2.4 0 0 0-1.85-.24 2.4 2.4 0 0 0-1.68 2.96l.24.57a2.4 2.4 0 0 0 .86.86Zm16.37 11a57 57 0 0 0 .53 6.66c.28 1.95.58 4.2 1.97 5.72a5.9 5.9 0 0 0 5.93 1.41 6.3 6.3 0 0 0 4.15-4.56 2.4 2.4 0 1 0-4.63-1.28l-.14.45c-.16.5.25-.45 0 0l-.23.42c-.2.37.24-.24.05-.05l-.33.34c-.17.18.42-.22.04-.04l-.3.16.26-.12-.47.14c-.5.14.51 0-.01 0h-.5c-.44 0 .34.1.08 0-.1-.04-.61-.09-.25-.05.31.03-.03-.04-.15-.1-.44-.2.32.3-.01-.01s.2.42 0-.01l-.12-.22.07.17a3 3 0 0 1-.28-.9l-.22-1.04q-.13-.63-.23-1.28l-.03-.22-.08-.63c-.19-1.65-.26-3.3-.3-4.97a2.4 2.4 0 0 0-4.8 0Z" class="c"/><path d="M7.8 264.6a619 619 0 0 1-5.44 37.33h46.66c.51-4.34 1.28-10.44 1.61-13.12l.93-.04c28.67-1.42 69.66-1.46 103.73.07l7.31-31.91c-.99-2.95-2.12-6.72-3.49-12.27-1.51-6.16-6.07-43-6.02-53.72l.93.75c11.17 9 24.34 17.14 25.7 32.06a13.7 13.7 0 0 1-1.09 7.57 1.99 1.99 0 0 0 2.15 2.74 17 17 0 0 1 1.82-.18 29 29 0 0 1 8.72 1.56 32 32 0 0 1 7.98 5.09 66 66 0 0 1 10.4 12.35 2 2 0 0 0 3.07.33c3.7-3.61 6.16-6.23 9-9.5 6.56-7.5 8.25-15.37 7.63-24.77-1.26-19.04-14.42-30.85-26.9-44.87a115 115 0 0 0-24.15-21.13 85 85 0 0 0-23.75-11.2 93 93 0 0 0-18.84-4.15l-1.52 1.64-2.21 2.37a78 78 0 0 1-43.85 20.99c-6.28.79-12.77.79-18.96-1.1a30 30 0 0 1-15.93-11.7c-12.83 6.91-20.41 10.74-27.8 20.26-5.94 7.64-8.09 13.06-9.75 21.63-3.68 24.26-4.55 39.9-6.96 63.82q-.45 4.49-.98 9.1" style="fill:#f8b8b4"/><path d="M51.57 291.17c26.82-1.32 53.74-1.35 80.59-.71q11.57.27 23.14.78c3.08.13 3.08-4.67 0-4.8q-41.64-1.86-83.37-.8-10.19.24-20.36.73c-3.08.15-3.1 4.95 0 4.8m99.15-101.4a81 81 0 0 0 .4 9.94q.6 7.38 1.42 14.75c1.02 9.24 2.08 18.5 3.65 27.67a105 105 0 0 0 4.1 15.44c.97 2.91 5.6 1.66 4.62-1.28a106 106 0 0 1-3.9-14.31 237 237 0 0 1-1.71-11.36l-.1-.8-.25-1.9-.48-3.8q-.48-3.94-.93-7.9a517 517 0 0 1-1.48-14.9 90 90 0 0 1-.54-11.55c.14-3.09-4.66-3.08-4.8 0" class="c"/><path d="M199.3 240.53a32 32 0 0 0-7.98-5.09 31 31 0 0 0-7.34-1.51l-1.43.57c-2.74 4.31-9.63 15.53-15.05 20.03-2.24 2.2-8.38 3.6-10.78 6.6a13 13 0 0 0-2.3 4.2 14 14 0 0 0-.61 3.44 109 109 0 0 0 2.95 26.45 15 15 0 0 0 2.02 5.25 5.7 5.7 0 0 0 4.73 2.64c1.89-.1 3.67-1.85 3.4-3.71l1.18-.23c1.2 6.25 2.06 12.09 3.63 19.68.68 3.3 1.51 8.4 3.48 11.14a4.5 4.5 0 0 0 3.04 2.06c2.27.24 3.96-2.08 4.77-4.22 2.14-5.67 2.48-11.26 2.07-17.57-.78-11.97-2.28-29.2-2.22-30.94a16 16 0 0 1 1.62-6.67c9.38-8.63 16.42-15.82 23.4-22.4a65 65 0 0 0-8.58-9.72" class="a"/><path d="M162.95 287.27c2.2 8.4 3.59 16.95 5.16 25.5.75 4.1 1.46 8.27 2.51 12.31.95 3.65 2.72 8.55 6.98 9.29 4.76.82 7.22-4.06 8.38-7.82a42 42 0 0 0 1.63-13.73c-.23-7.75-1.06-15.5-1.65-23.23-.4-5.27-1.45-11.23-.04-16.44.81-2.99-3.82-4.26-4.63-1.28-1.18 4.36-.79 8.97-.46 13.4.51 6.89 1.07 13.77 1.56 20.67a85 85 0 0 1 .33 12.03 33 33 0 0 1-1 6.03 13 13 0 0 1-2 4.88c-2.27 2.7-3.95-3.19-4.37-4.7-1-3.67-1.63-7.46-2.33-11.19-1.7-9.03-3.1-18.1-5.43-27-.78-2.98-5.41-1.71-4.63 1.28Z" class="c"/><path d="M165.8 252.83a8 8 0 0 1-1.6 1.06q-1.22.64-2.47 1.2a27 27 0 0 0-5.2 2.93c-3.92 3.03-5.16 7.96-5.13 12.69a114 114 0 0 0 1.37 16.58q.63 4.07 1.57 8.1a17 17 0 0 0 2.97 7.09 7.6 7.6 0 0 0 7.2 2.9 5.9 5.9 0 0 0 4.8-5.98 2.46 2.46 0 0 0-2.4-2.4 2.4 2.4 0 0 0-2.4 2.4c.1 1.23-1.2 1.55-2.18 1.1-1.56-.7-2.3-2.5-2.75-4.01a80 80 0 0 1-2.56-13.2 109 109 0 0 1-.82-13.55c0-3.18 1.1-6.6 3.9-8.4 2.92-1.87 6.52-2.71 9.09-5.12 2.26-2.1-1.14-5.5-3.4-3.39Z" class="c"/><path d="M169.2 256.22c3.48-2.92 6.23-6.76 8.82-10.45a229 229 0 0 0 6.6-10.06c1.66-2.62-2.49-5.03-4.14-2.43-2.1 3.31-4.19 6.62-6.44 9.83a49 49 0 0 1-8.24 9.72 2.4 2.4 0 0 0 0 3.4 2.45 2.45 0 0 0 3.4 0Zm16.11 18.92c8.26-7.57 16.15-15.53 24.3-23.22 2.26-2.12-1.14-5.51-3.4-3.4-8.15 7.7-16.03 15.65-24.3 23.23-2.27 2.09 1.13 5.48 3.4 3.4M54.06 146.64c-8.66 4.7-17.8 9.05-25.02 15.9a51.6 51.6 0 0 0-15.03 25.75 187 187 0 0 0-2.75 18.52q-1.04 8.45-1.87 16.9c-1.15 11.66-2.1 23.34-3.33 34.98a604 604 0 0 1-6.01 42.6 2.47 2.47 0 0 0 1.68 2.95 2.4 2.4 0 0 0 2.95-1.67c4.33-24.25 6.67-48.7 8.97-73.2a662 662 0 0 1 3.9-33.66 53 53 0 0 1 3.9-14.79 51 51 0 0 1 8.56-12.52c7.26-7.94 17.16-12.56 26.47-17.6 2.72-1.48.3-5.63-2.42-4.15Z" class="c"/><path d="M31.31 204.59c-1.97 9.22-.8 18.7 1.9 27.66 2.56 8.44 6.51 16.27 10.25 24.23a59 59 0 0 1 4.5 11.93 48 48 0 0 1 .97 12.35c-.25 6.51-1.33 13.02-2.11 19.48-.92 7.53-2.3 14.99-3.46 22.51a2.5 2.5 0 0 0 1.68 2.96 2.4 2.4 0 0 0 2.96-1.68c.57-3.69 1.07-7.39 1.69-11.07.56-3.34 1.22-6.65 1.61-10.01.7-6 1.62-11.98 2.16-17.99.78-8.62.1-17.25-3.32-25.29-3.39-7.95-7.61-15.52-10.6-23.64-3.51-9.58-5.77-20.02-3.6-30.17.65-3.01-3.98-4.3-4.62-1.27Zm20.25-53.11a33.5 33.5 0 0 0 14.84 11.55c6.57 2.6 13.92 2.85 20.87 2.07a79.6 79.6 0 0 0 35.56-13.08 75 75 0 0 0 13.11-11.1c2.1-2.26-1.28-5.66-3.4-3.4a74 74 0 0 1-25.13 17.45 75 75 0 0 1-17.04 4.89c-6.38 1.05-13.08 1.32-19.37-.37a28 28 0 0 1-15.29-10.44 2.47 2.47 0 0 0-3.28-.86 2.4 2.4 0 0 0-.86 3.29Zm90.3-10.56a101 101 0 0 1 24.62 7.94 101 101 0 0 1 19.85 12.85c6.82 5.54 12.6 12.07 18.52 18.54 5.64 6.16 11.45 12.3 15.8 19.48a43.3 43.3 0 0 1 6.47 23.4 30 30 0 0 1-2.23 11.36c-1.73 4.01-4.5 7.26-7.42 10.45q-2.24 2.45-4.6 4.8l-1.3 1.28-.16.16q-.6.5-.23.27c.06.05.2-.25.28-.03.24.66.12-.23.11-.04.01-.17-.28-.44-.4-.6q-.53-.8-1.1-1.58a61 61 0 0 0-9.51-10.76 27 27 0 0 0-10.05-5.78 36 36 0 0 0-5.9-1.08 14 14 0 0 0-2.49-.07 7 7 0 0 0-1.67.18c.18-.44.47.43.39.39.14.07-.23.5.12-.15a7 7 0 0 0 .3-.74q.2-.52.36-1.06a15 15 0 0 0 .56-3.19 25 25 0 0 0-.5-6.37 29 29 0 0 0-4.48-10.7c-4.42-6.58-10.75-11.5-16.94-16.3a354 354 0 0 1-4.54-3.57 2.47 2.47 0 0 0-3.4 0 2.4 2.4 0 0 0 0 3.39c6.34 5.1 13.2 9.76 18.52 16 4.55 5.33 8.5 13.7 5.72 20.72-.95 2.4-.22 5.11 2.37 6.08a7 7 0 0 0 3.19.12 15 15 0 0 1 2.82.1 27 27 0 0 1 5.27 1.18 23 23 0 0 1 5.04 2.81 44 44 0 0 1 9.54 9.67 65 65 0 0 1 2.12 2.96 7 7 0 0 0 2.43 2.65 4.4 4.4 0 0 0 3.52.23 10 10 0 0 0 3.25-2.62c6.4-6.39 12.84-13.12 14.9-22.22a44.7 44.7 0 0 0-2.52-26.44c-3.38-8.15-8.86-15.09-14.68-21.64-2.99-3.37-6.07-6.65-9.08-10a152 152 0 0 0-10.12-10.44 117 117 0 0 0-19.4-14.45 101 101 0 0 0-25.23-10.23q-3.4-.92-6.84-1.57a2.47 2.47 0 0 0-2.95 1.67 2.4 2.4 0 0 0 1.67 2.95" class="c"/><path d="M214.95 296.43c8.42 1.6 16.89 2.86 25.3 4.48l-1.43-3.53c-1.6 3.78-3.53 7.41-5.2 11.16-.56 1.24-.25 3.27 1.43 3.53 8.78 1.34 17.57 2.6 26.35 3.93a2.5 2.5 0 0 0 2.96-1.68 2.4 2.4 0 0 0-1.68-2.95c-8.78-1.33-17.57-2.6-26.35-3.93l1.43 3.52c1.68-3.74 3.6-7.37 5.2-11.16.55-1.3.26-3.2-1.43-3.52-8.41-1.61-16.88-2.89-25.3-4.48a2.46 2.46 0 0 0-2.95 1.68 2.4 2.4 0 0 0 1.67 2.95m-5.87-15.13c10.48-3.27 20.5-7.9 30.98-11.14l-3.04-2.32c.37 4.09.37 8.2.65 12.3a2.43 2.43 0 0 0 3.04 2.32c9.03-3.16 18.19-5.94 27.21-9.11a2.46 2.46 0 0 0 1.68-2.95 2.4 2.4 0 0 0-2.95-1.68c-9.03 3.17-18.19 5.95-27.22 9.1l3.04 2.32c-.28-4.1-.28-8.2-.65-12.3a2.43 2.43 0 0 0-3.04-2.31c-10.48 3.24-20.5 7.87-30.98 11.14-2.93.92-1.68 5.55 1.28 4.63" style="fill:#f2635f"/></svg>
