<svg xmlns="http://www.w3.org/2000/svg" viewBox="-37.65 0 355.79 355.79"><defs><style>.a{fill:#fff}.c{fill:#211715}</style></defs><path d="M48.42 312.77q.02 9.16-.73 18.73H185.1l-.31-1.78c-.65-4.7-2.17-12.15-4-20.55h-22.16c-36.34-1.62-80.03-1.54-110.24 0zM115.54 73a7.8 7.8 0 0 1 5.43-1.9c3.9.12 5.56 2.12 6.28 3.3 2.13 3.52 2.05 10 .63 14.01a20.4 20.4 0 0 1-6.56 9.92 15 15 0 0 1-7.1 2.56l-.38 1.12a68 68 0 0 1-2.49 5.71 74 74 0 0 1-4.56 7.78l2.07 6.22a27 27 0 0 0 2.21 5.35c2.65 4.49 8.36 7.07 13.99 8.24l.82.2a76 76 0 0 1-41.6 22.56c-5.96 1.03-12.15 1.33-18.13-.2a28 28 0 0 1-15.03-9.58c3.35-1.62 6.82-3.3 9.1-4.65a11 11 0 0 0 4.96-4.97c-8.5.47-16.29-1.73-24.05-6.66-9.38-5.96-14.41-16.52-17.22-28.54C22.3 96.55 20.71 89 18.8 81.5c0 0-17.56-38.67 32.27-43.1 65.66-5.84 64.47 34.6 64.47 34.6" class="a"/><path d="M103.44 67.68c-13.15-17.22-28-20.1-31.24-20.88a50 50 0 0 0-8.46-.52l-1.33.5C52.3 50.51 43.98 60 39.47 63.64a1.73 1.73 0 0 1-2.76-1.4 9 9 0 0 0-.78-3.25c-.58-1.31-1.73-1.71-2.48-1.14-6.35 4.9-13.98 20.03-14.15 25.16l-.05 1.7a90 90 0 0 1-4.43-29.7c.41-8.83 3.2-19.04 7.96-26.45 8.27-12.84 21.95-21.8 40-25.12 11.39-2.1 23.14-1.5 36.69 5.64l8.42 4.43 1.65 1.16c8.3 5.86 12.96 13.18 16.6 22.4a48 48 0 0 1 3.28 14.5c.35 5.27 1.56 17.49-1.32 24.71a9 9 0 0 0-.85-1.89c-.72-1.17-2.38-3.17-6.28-3.3a7.8 7.8 0 0 0-5.43 1.9 34 34 0 0 1-3.5.58c-.6-.35-6.43-3.56-8.56-5.88" style="fill:#85807f"/><path d="M104.48 116.15c.91 2.76 1.77 5.55 2.77 8.27a18 18 0 0 0 4.12 6.88c3.49 3.44 8.33 5.32 13.05 6.33a2.46 2.46 0 0 0 2.95-1.68 2.4 2.4 0 0 0-1.67-2.95c-3.94-.84-8.08-2.27-10.94-5.1a13 13 0 0 1-3.06-5.26c-.9-2.57-1.73-5.18-2.6-7.76a2.46 2.46 0 0 0-2.95-1.68 2.4 2.4 0 0 0-1.67 2.95M71.56 49.11a49 49 0 0 1 21.3 10.76 61 61 0 0 1 8.51 9.02 2.5 2.5 0 0 0 3.28.86 2.4 2.4 0 0 0 .87-3.28c-7.4-9.61-17.13-17.45-28.85-21q-1.9-.54-3.83-1c-3-.71-4.29 3.91-1.28 4.64m-49.85 33.9q0-.23.03-.47c-.04.57-.04.25-.02.1l.2-.97a25 25 0 0 1 .76-2.53 47 47 0 0 1 2.38-5.51 53 53 0 0 1 7.24-11.31 24 24 0 0 1 1.91-1.97l.38-.33c.5-.45.45-.06-.05-.06-1.07 0-.89-.4-.55.68.36 1.13.25 2.38.8 3.44a4.2 4.2 0 0 0 3.6 2.33c2.16.07 3.88-1.97 5.35-3.31q2.44-2.29 4.9-4.51c4.3-3.8 9-7.46 14.4-9.5a2.47 2.47 0 0 0 1.69-2.96 2.4 2.4 0 0 0-2.96-1.68 51 51 0 0 0-14.62 9.1q-2.83 2.42-5.53 4.97-1.03.97-2.08 1.9-.45.42-.92.83c-.55.48-1.17.66.17.42.41-.07.4.73.18-.72a10 10 0 0 0-.41-1.78 5.6 5.6 0 0 0-2.71-3.56c-2.6-1.25-4.72.9-6.37 2.68a54 54 0 0 0-8.12 12.03c-1.98 3.84-4.26 8.29-4.45 12.7-.14 3.08 4.66 3.08 4.8 0m36.69 36.22a10 10 0 0 1 1.29-.78l.34-.16c.05-.03.43-.19.15-.08-.31.14.26-.1.26-.1l.38-.13a17 17 0 0 1 1.68-.47q.4-.1.82-.17l.4-.07c.39-.07-.56.06.1-.01q.8-.1 1.61-.1l.88.02q.2 0 .38.03c.07 0 .49.06.15 0a8 8 0 0 1 1.49.39l2.1.7a2.4 2.4 0 0 0 2.96-1.68 2.45 2.45 0 0 0-1.68-2.95 28 28 0 0 0-4.23-1.17 15 15 0 0 0-3.87-.02 16.6 16.6 0 0 0-7.63 2.6 2.45 2.45 0 0 0-.86 3.29 2.43 2.43 0 0 0 3.28.86m10.94-31.5c-.97-2.4-.96-8.13 3.68-9.01 6.18-.5 7.1 6.35 5.3 9.76-1.49 2.78-6.4 4.31-8.98-.75M32.74 92c-.92-2.42-.97-8.16 3.27-9 5.67-.42 6.58 6.44 4.96 9.84-1.33 2.78-5.83 4.26-8.24-.84m19.86 3.22a61 61 0 0 0-1.99 4.96 5 5 0 0 0-.31 1.8 3.4 3.4 0 0 0 .45 1.6 4 4 0 0 0 1.23 1.2 5 5 0 0 0 2.27.76c.33.04.64 0 .96.02a2.4 2.4 0 0 0 2.4-2.4 2.45 2.45 0 0 0-2.4-2.4c-.32-.01-.64.02-.96-.02l.64.09a3 3 0 0 1-.59-.16l.58.24a3 3 0 0 1-.58-.34l.48.37-.22-.2.38.49-.09-.14.24.57-.07-.24.09.64a2 2 0 0 1 0-.44l-.09.64a10 10 0 0 1 .66-2.02q.41-1.1.87-2.17l-.24.57.43-1A2.6 2.6 0 0 0 57 95.8a2.4 2.4 0 0 0-2.96-1.68 2.3 2.3 0 0 0-1.43 1.1Z" class="c"/><path d="M102.51 124.7a64 64 0 0 0 13.65-22.04 2.4 2.4 0 1 0-4.63-1.28 53 53 0 0 1-3.99 8.36 62 62 0 0 1-8.42 11.56c-2.1 2.26 1.28 5.67 3.39 3.4M100.68 7.02A57.6 57.6 0 0 0 70.28.1a71 71 0 0 0-27.82 7.64 57 57 0 0 0-20 17.05c-5.96 8.16-9.07 18.25-9.9 28.26a72 72 0 0 0 .62 15.55 90 90 0 0 0 4 17.5c1 2.9 5.64 1.65 4.63-1.28-6-17.4-7.33-38.56 2.83-54.72C33.77 15.59 50.18 7.28 66.88 5.22a53 53 0 0 1 31.38 5.94c2.73 1.43 5.16-2.71 2.42-4.14" class="c"/><path d="M90.2 127.52a59 59 0 0 1-19.14 7.98 37.6 37.6 0 0 1-20.17-1.28 35 35 0 0 1-15.59-10.68c-3.9-4.81-6.33-10.75-8.02-16.65-2.46-8.56-3.97-17.4-6.18-26.04-.76-2.99-5.4-1.72-4.63 1.28 2.08 8.13 3.6 16.4 5.76 24.5 1.73 6.54 4.28 13.07 8.32 18.55 8.74 11.84 24.06 17.46 38.46 15.5 8.5-1.15 16.35-4.56 23.61-9.01 2.63-1.62.22-5.77-2.42-4.15M73.63 72.27a12.3 12.3 0 0 0 7.24 2.26 2.5 2.5 0 0 0 1.7-.7 2.4 2.4 0 0 0-1.7-4.1 10 10 0 0 1-1.39-.08l.64.09a11 11 0 0 1-2.65-.73l.57.25a10 10 0 0 1-1.98-1.14 2.4 2.4 0 0 0-1.85-.24 2.4 2.4 0 0 0-1.68 2.95l.24.58a2.4 2.4 0 0 0 .86.86M90.1 83.4a57 57 0 0 0 .51 6.7c.28 1.96.58 4.23 1.97 5.75a5.9 5.9 0 0 0 5.95 1.43 6.4 6.4 0 0 0 4.17-4.58 2.4 2.4 0 1 0-4.63-1.28l-.14.46c-.16.5.26-.45 0 0l-.23.42c-.2.38.24-.24.05-.04l-.33.33c-.18.18.4-.2.03-.03l-.3.15.26-.11-.47.14c-.5.13.5 0-.02 0a2 2 0 0 1-.5 0c0 .02.6.12.07 0l-.26-.06c.35.08-.05-.05-.14-.1-.46-.2.34.28-.02-.01q-.21-.23 0 0c.2.23.12.16 0-.02l-.11-.22q-.11-.24.07.17a3 3 0 0 1-.28-.9q-.13-.52-.22-1.05-.13-.64-.23-1.3l-.03-.22-.08-.64a58 58 0 0 1-.29-5 2.4 2.4 0 1 0-4.8 0Z" class="c"/><path d="M45.56 153.75c3.75-2 7.63-3.76 11.43-5.67 4.02-2.02 8.12-4 10.25-8.2a2.46 2.46 0 0 0-.86-3.28 2.4 2.4 0 0 0-3.28.86c-1.8 3.55-5.69 5.05-9.08 6.75-3.62 1.8-7.31 3.48-10.88 5.39-2.73 1.46-.3 5.6 2.42 4.14m71.67-79.05a5.5 5.5 0 0 1 3.74-1.2 6 6 0 0 1 2.12.4 4 4 0 0 1 .65.31l.47.3a5 5 0 0 1 .5.47c.12.14.47.62.2.21a7 7 0 0 1 .7 1.25 13 13 0 0 1 .87 4.22c.3 5.6-1.88 12.24-6.53 15.72-2.27 1.7-5.77 2.71-8.52 1.82-2.95-.96-4.2 3.68-1.28 4.63 3.8 1.23 8.34.1 11.67-1.94 3.46-2.12 5.88-5.72 7.43-9.39a24 24 0 0 0 2-11.21c-.24-3.43-1.14-7.15-3.93-9.4a10.74 10.74 0 0 0-13.48.42 2.4 2.4 0 0 0 0 3.4 2.45 2.45 0 0 0 3.4 0Z" class="c"/><path d="M216.35 189.72c-10.2-13.74-18.44-23.06-33.1-33.77a122 122 0 0 0-21.35-12.7c-8.69-3.78-15.57-5.41-24.55-8.2l-11.47.45a76 76 0 0 1-41.6 22.57c-5.96 1.04-12.14 1.33-18.13-.2a27.8 27.8 0 0 1-15.7-10.47c-15.84 7.76-30.47 16.76-37.77 27.08-5.58 7.9-7.72 18.67-8.83 28-2.16 18.13-.83 25.91-.83 52.36 0 16.13.27 37.43-.6 54.29H49.5c30.16-1.5 73.25-1.55 109.16.05l11.86-4.99 19.27-8.1c2.35 2.34 2.9 4.06 5.74 1.72a225 225 0 0 0 15.44-14.06 187 187 0 0 0 16.56-19.52c7.19-9.63 9.66-12.39 9.83-22.62.34-20.73-8.85-35.5-21-51.89m-40.46 64.56-5.88 6.1-.1-.54c-1.44-12.48-5.6-43.17-7.45-59.38l3.35 3.84c8.9 10.4 16.64 21.37 16.75 35.1.05 6.35-2.38 9.47-6.67 14.88" class="a"/><path d="M108.33 16.76c7.1 5.05 11.96 12.21 15.2 20.23 3.32 8.17 4.01 16.97 4.04 25.7.01 4.47-.2 9.13-1.92 13.3a2.4 2.4 0 0 0 1.67 2.96 2.46 2.46 0 0 0 2.95-1.68c1.65-3.98 2-8.5 2.08-12.76.08-3.95-.17-7.88-.45-11.81a58 58 0 0 0-9.71-28.54 46 46 0 0 0-11.44-11.54 2.4 2.4 0 0 0-3.29.86 2.45 2.45 0 0 0 .87 3.28M48.37 148.6c15.08 20.66 45.79 12.62 64.05 1.02a83 83 0 0 0 15.16-12.42c2.14-2.22-1.24-5.62-3.4-3.4a76 76 0 0 1-25.86 17.75c-9.88 4-21.75 6.78-32.26 3.8a25.3 25.3 0 0 1-13.55-9.17 2.47 2.47 0 0 0-3.28-.86 2.4 2.4 0 0 0-.86 3.28m112.4 53.55c5.21 5.92 10.4 11.96 14.23 18.9a43 43 0 0 1 4.22 10.65c.83 3.47 1.4 7.44.68 10.97-.78 3.85-3.33 6.91-5.7 9.92a2.5 2.5 0 0 0 0 3.39 2.4 2.4 0 0 0 3.39 0c2.52-3.18 5.16-6.35 6.46-10.25 1.35-4.02 1.02-8.48.35-12.6-1.38-8.42-5.66-16.08-10.7-22.84-3-4-6.24-7.8-9.54-11.53-2.05-2.32-5.43 1.08-3.4 3.39" class="c"/><path d="M136.72 137.37c7.78 2.4 15.7 4.44 23.23 7.63a107 107 0 0 1 18.12 10.22 141 141 0 0 1 32.02 30.18c8.85 11.32 17.94 23.49 22.22 37.4a59 59 0 0 1 2.51 21.62 22 22 0 0 1-1.77 7.38 46 46 0 0 1-4.77 7.41 223 223 0 0 1-16.12 19.8 201 201 0 0 1-18.85 17.46c-.28.23-.2-.12-.1.04l.28.03c.02-.02.16.07.16.1l-.42-.4c-.61-.6-1.16-1.25-1.77-1.86-2.17-2.2-5.56 1.2-3.39 3.4 1.2 1.22 2.34 2.85 4.06 3.36 2.02.6 3.77-.57 5.26-1.8 3.6-2.93 7.07-6.04 10.45-9.22a177 177 0 0 0 18.4-20.32c2.59-3.32 5.15-6.68 7.59-10.1a33 33 0 0 0 4.4-7.96 31 31 0 0 0 1.5-9.55 67 67 0 0 0-.8-12.05c-2.4-15.4-10.92-28.65-20-40.96a201 201 0 0 0-14.5-17.84 136 136 0 0 0-17.15-15.37 133 133 0 0 0-20.97-13.3c-7.02-3.5-14.52-5.83-22.03-8.05q-3.15-.92-6.3-1.89c-2.95-.9-4.22 3.72-1.27 4.63Z" class="c"/><path d="M159.4 194.25c1.78 18.64 4.57 37.2 6.91 55.77.47 3.76.76 7.59 1.44 11.31.65 3.58 1.43 7.13 2.2 10.68 2.2 9.97 4.53 19.9 6.77 29.86 2.12 9.43 4.43 18.9 5.76 28.49a2.4 2.4 0 0 0 2.96 1.68 2.47 2.47 0 0 0 1.67-2.96c-1.15-8.28-3.09-16.48-4.9-24.64-2.24-10.04-4.58-20.05-6.82-30.09q-1.37-5.98-2.57-12l-.41-2.12c-.03-.17-.22-1.28-.12-.58l-.15-1.27q-.32-2.72-.66-5.43c-1.23-9.9-2.53-19.77-3.8-29.65-1.23-9.67-2.55-19.35-3.48-29.05a2.47 2.47 0 0 0-2.4-2.4 2.4 2.4 0 0 0-2.4 2.4" class="c"/><path d="M172.6 329.5c-.5-3.45-.95-6.7-1.5-10.08l-1.2.3c.23 1.91-1.64 3.63-3.56 3.68a5.8 5.8 0 0 1-4.74-2.84 16 16 0 0 1-1.9-5.41 111 111 0 0 1-2.19-27.06 12 12 0 0 1 .45-3.28 15 15 0 0 1 2.75-4.42c2.55-2.97 4.83-4.2 7.89-5.86a10 10 0 0 1 5.15-1.4 7 7 0 0 1 3.06 1.22 30.7 30.7 0 0 1 11.63 13.15c-1.25 1.69.3 5.38.3 5.38-.5 1.53-1.4 1.9-1.5 3.5-.11 1.78-.84 5.42-.5 7.17 2.32 12.02.94 15.58 1.36 27.8.22 6.45-.3 12.14-2.66 17.85-.9 2.16-2.68 4.47-5 4.16a4.6 4.6 0 0 1-3.03-2.2c-1.92-2.86-2.61-8.08-3.2-11.47-.65-3.72-1.15-7.04-1.61-10.19" class="a"/><path d="M166.32 307.3c1.92 8.39 3.07 16.88 4.34 25.38.6 4.05 1.22 8.1 2.02 12.12.73 3.62 1.85 8.2 5.3 10.2 4.2 2.43 8.07-1.12 9.65-4.86a39 39 0 0 0 2.83-12.98c.22-4-.04-8.01-.2-12l-.52-11.56q-.25-5.16-.46-10.33-.07-1.45-.09-2.9a15 15 0 0 1 1.03-4.63c.96-2.95-3.67-4.2-4.63-1.28a21 21 0 0 0-1.17 7.2q.12 3.65.3 7.3c.32 6.94.66 13.88.92 20.83a55 55 0 0 1-.49 11.81 35 35 0 0 1-1.56 5.75c-.41 1.13-1.13 3.19-2.44 3.6-1.13.35-2-1.41-2.37-2.23a22 22 0 0 1-1.36-4.64c-.8-3.76-1.36-7.58-1.94-11.38-1.37-8.92-2.52-17.85-4.54-26.66-.69-3.01-5.32-1.74-4.63 1.27Z" class="c"/><path d="M192.39 293.75c-1.27-6.35-4.98-12.4-9.3-17.13a20 20 0 0 0-7.3-5.45c-3.62-1.38-7.33.63-10.4 2.4a25 25 0 0 0-7.6 6.74 12 12 0 0 0-2.38 4.88 36 36 0 0 0-.37 5.83 114 114 0 0 0 2.4 24.98c.82 3.91 2.47 7.93 6.52 9.41 3.83 1.4 8.6-1.37 8.35-5.68-.17-3.07-4.97-3.1-4.8 0a1.2 1.2 0 0 1-1.16 1.27 3 3 0 0 1-2.4-1.27c-1.76-2.08-2.02-5.5-2.48-8.08a108 108 0 0 1-1.65-20.16 47 47 0 0 1 .17-4.74 7.3 7.3 0 0 1 1.57-3.54 19 19 0 0 1 5.62-5.13c1.93-1.16 4.88-3.32 7.23-2.31a16 16 0 0 1 5.15 4.11 32.5 32.5 0 0 1 8.2 15.14 2.4 2.4 0 0 0 2.95 1.68 2.45 2.45 0 0 0 1.68-2.95" class="c"/><path d="M49.48 311.52c13.32-.65 26.66-.95 40-1.07q22.3-.2 44.62.3 12.28.29 24.54.82c3.09.14 3.08-4.66 0-4.8q-22.04-.95-44.1-1.13-21.74-.19-43.48.3-10.8.26-21.58.78c-3.07.15-3.1 4.95 0 4.8" class="c"/><path d="M225.75 319.72c8.42 1.6 16.89 2.87 25.3 4.48l-1.43-3.53c-1.6 3.79-3.53 7.42-5.2 11.16-.55 1.25-.25 3.27 1.44 3.53 8.77 1.34 17.57 2.6 26.35 3.93a2.5 2.5 0 0 0 2.95-1.68 2.4 2.4 0 0 0-1.68-2.95c-8.78-1.33-17.57-2.59-26.35-3.93l1.44 3.53c1.67-3.75 3.6-7.38 5.2-11.16.54-1.3.25-3.2-1.44-3.53-8.41-1.61-16.88-2.88-25.3-4.48a2.46 2.46 0 0 0-2.95 1.68 2.4 2.4 0 0 0 1.67 2.95m-5.87-15.12c10.48-3.27 20.5-7.9 30.98-11.14l-3.04-2.32c.37 4.09.37 8.2.65 12.3a2.43 2.43 0 0 0 3.04 2.32c9.03-3.16 18.19-5.94 27.22-9.11a2.46 2.46 0 0 0 1.67-2.95 2.4 2.4 0 0 0-2.95-1.68c-9.03 3.17-18.19 5.95-27.22 9.1l3.04 2.32c-.28-4.1-.28-8.2-.65-12.3a2.43 2.43 0 0 0-3.03-2.31c-10.49 3.24-20.5 7.87-30.98 11.14-2.94.92-1.69 5.55 1.27 4.63" style="fill:#f2635f"/><path d="M49.26 145.31c-11.88 5.84-24.11 12.43-33.53 21.9a43 43 0 0 0-9.84 15.2 81 81 0 0 0-4.3 18.91 191 191 0 0 0-1.33 27.09c.18 11.99.34 23.96.38 35.95.04 14.99.14 30-.64 44.98-.16 3.08 4.64 3.08 4.8 0 .69-13.16.68-26.34.65-39.5-.02-12.28-.06-24.56-.3-36.83a224 224 0 0 1 .64-26.3c1.1-11.34 2.91-23.9 10.45-32.95a68 68 0 0 1 15.09-12.9 183 183 0 0 1 20.35-11.4 2.4 2.4 0 0 0 .86-3.29 2.45 2.45 0 0 0-3.28-.86" class="c"/><path d="M32.58 219.8a237 237 0 0 1 3.93 16.86 842 842 0 0 1 4.17 21.6 758 758 0 0 1 3.2 18.9l.51 3.46.1.67.02.14.16 1.3c.42 3.48.55 7 .75 10.5a279 279 0 0 1-.13 38.27 2.4 2.4 0 0 0 2.4 2.4 2.45 2.45 0 0 0 2.4-2.4 268 268 0 0 0 .34-34.31c-.31-6.47-.67-12.9-1.62-19.3a763 763 0 0 0-7.1-39.73 263 263 0 0 0-4.5-19.64c-.85-2.96-5.49-1.7-4.64 1.28Z" class="c"/></svg>
