<svg xmlns="http://www.w3.org/2000/svg" fill="none" viewBox="0 0 24 24"><path fill="currentColor" fill-rule="evenodd" d="M9 3.75 9.75 3h4.5l.75.75v1.5h2.25L18 6v3c0 .67-.29 1.27-.75 1.68v3.57h1.5l.75.75v3.75l-.75.75h-1.5v.75l-.75.75h-9l-.75-.75v-.75h-1.5l-.75-.75V15l.75-.75h1.5v-3.57A2.2 2.2 0 0 1 6 9V6l.75-.75H9zm1.5 1.5h3V4.5h-3zm-2.25 6v4.5h7.5v-4.5h-1.5v1.5h-1.5v-1.5h-1.5v1.5h-1.5v-1.5zm1.5-1.5h-1.5A.75.75 0 0 1 7.5 9V6.75h9V9c0 .41-.34.75-.75.75h-1.5V9h-1.5v.75h-1.5V9h-1.5zm6 7.5h-7.5v2.25h7.5zm-9 .75v-2.25H6V18zm10.5-2.25V18H18v-2.25z" clip-rule="evenodd"/></svg>
