<svg xmlns="http://www.w3.org/2000/svg" viewBox="0 -9.67 325.654 325.654"><defs><style>.a{fill:#7a7473}.b{fill:#211715}.c{fill:#fff}.e{fill:#4d4544}</style></defs><path d="M270.56 257.84q-.9.79-1.94 1.57c-9.6 7.17-25 13.17-33.4 15.95h-8.32L82.63 207.47c2.52-14.57 11.6-60.94 17.35-65.45l-.04.33c4.08 4.34 9.74 6.41 15.84 6.52a43 43 0 0 0 5.58-.21c1.1-3.36 2.4-6.94 2.82-7.83 5.37-1.45 7.4-4.08 8.96-9.72l.16-.43a54 54 0 0 1 8.69-13.79c7.67 5.53 15.8 7.08 25.37 6.24 5.9-.52 13.4-3.39 17.03-5.21a52 52 0 0 0 8.87-5.83 40 40 0 0 0 9.31-9.77c.49 1.94 1 4.15 1.66 6.78 1 4.21 1.22 5.22 2.08 6.42l.43.54c1.27 1.56 5.9 4.01 8.9 4.68 6.08 2.08 11.13 3.58 17.99 6.33 7.68 3.07 14.13 6.47 19.84 12.45 5.12 5.37 10.5 15.74 13.92 27.67 6.78 23.67 8.59 31.89 10.8 44.14 1 5.22 2.66 16.21 2.52 20.04-.11 2.96-.88 10.03-1.84 12.88-1.5 4.4-3.12 9.03-8.3 13.59" class="a"/><path d="M120.33 183.17c2.56 8.29 5.47 16.48 8.28 24.69q.74 2.2 1.53 4.41a2.46 2.46 0 0 0 2.95 1.68 2.4 2.4 0 0 0 1.67-2.95c-2.87-8.06-5.55-16.2-8.25-24.33q-.8-2.38-1.56-4.77c-.9-2.95-5.54-1.69-4.63 1.27Z" class="b"/><path d="m128.27 89.98-.28-2.12c-2.33-.78-4.54-1.28-6.65-.71a11 11 0 0 0-4.68 2.42 24 24 0 0 0-2.42 2.53 7 7 0 0 0-3.64 2.05 9 9 0 0 0-2.02 3.5 3 3 0 0 1-2 1.8 10.2 10.2 0 0 0-5.9 5.03 3 3 0 0 0-.29.7 14 14 0 0 0-.47 2.9v.36c.26 11.31 1.28 22.62.02 33.9 4.07 4.35 9.74 6.42 15.84 6.53a43 43 0 0 0 5.58-.22c1.1-3.36 2.4-6.93 2.82-7.83 5.37-1.44 7.4-4.07 8.96-9.7l.16-.44a53 53 0 0 1 8.7-13.79q-.57-.39-1.13-.82c-7.63-5.91-11.14-15.46-12.6-26.09" class="c"/><path d="M129.21 95.3a6 6 0 0 1-2.31.57 14 14 0 0 0-3.04.24 85 85 0 0 1-.03 8.84 2.8 2.8 0 0 1-.5 1.8 3.04 3.04 0 0 1-3.68.57c-1.13-.52-1.6-1.15-2.83-1.1-1.34.06-1.75 2.62-1.94 4.15-.32 2.4-.5 5.2-.76 7.48 1.54 2.3 3.36 4.79 5.2 7.26a3.4 3.4 0 0 0 4.96.56c2.15-1.85 4.3-3.79 6.4-5.72 2.48-2.3 4.88-4.58 7.11-6.7-4.42-4.74-7.06-10.99-8.58-17.95" class="a"/><path d="M142.17 113.24a49 49 0 0 0-7.77 10.07 59 59 0 0 0-3 5.77c-.69 1.53-1.01 3.22-1.73 4.72a8 8 0 0 1-5.3 4.47 3.3 3.3 0 0 0-2.39 1.64 22 22 0 0 0-.83 2.06q-1.12 3-2.1 6.04c-.97 2.95 3.67 4.2 4.63 1.28q.76-2.33 1.59-4.65a81 81 0 0 1 .93-2.48c.2-.5-.12.25.05-.12l-1.43 1.1a15 15 0 0 0 6.6-3.52 16 16 0 0 0 3.63-6.5 42 42 0 0 1 10.51-16.5c2.21-2.17-1.18-5.56-3.39-3.4Z" class="b"/><path d="M123.03 98.79c3.23-.92 7.1-.16 9.7-2.82 2.78-2.86 1.53-7.25-1.47-9.31a15 15 0 0 0-5.43-1.88 12 12 0 0 0-5.92.29 16.5 16.5 0 0 0-7.36 5.34l1.05-.62a9.5 9.5 0 0 0-6.42 5.08c-.48.95-.52 2.04-1.59 2.38a11 11 0 0 0-3.67 2.05 11 11 0 0 0-4.18 6.89c-.47 3.16-.1 6.45.03 9.64.25 6.38.53 12.77.3 19.16q-.09 2.46-.3 4.91a23 23 0 0 0-.23 2.45 3.3 3.3 0 0 0 1.25 2.27 22 22 0 0 0 6.56 4.43c5.98 2.61 12.7 2.68 19.04 1.58a2.4 2.4 0 0 0 1.68-2.95 2.46 2.46 0 0 0-2.96-1.68c-7.57 1.31-15.92.45-21.48-5.34l.7 1.7a139 139 0 0 0 .5-19.4c-.1-3.2-.25-6.4-.36-9.59-.06-1.63-.18-3.28-.16-4.92a6.4 6.4 0 0 1 .82-3.4 9 9 0 0 1 2-2.2c1.06-.84 2.32-.98 3.45-1.65 2.37-1.42 2.32-4.46 4.52-6.03a5 5 0 0 1 1.45-.7 3.5 3.5 0 0 0 1.81-1.16 17 17 0 0 1 2.24-2.24 7.7 7.7 0 0 1 6.17-1.61 10 10 0 0 1 3.96 1.29c.67.51 1.06 1.1.59 1.81s-2.21.9-3.03.91a18 18 0 0 0-4.55.7c-2.96.83-1.7 5.46 1.28 4.62Z" class="b"/><path d="M112.24 119.34q1.37 2.02 2.8 3.98a33 33 0 0 0 2.9 3.85 5.85 5.85 0 0 0 7.78.4c4.85-3.86 9.27-8.35 13.77-12.61 2.24-2.13-1.16-5.52-3.4-3.4a452 452 0 0 1-11.5 10.65c-1.07.95-2.24 2.68-3.43 1.38a37 37 0 0 1-2.38-3.25q-1.22-1.7-2.4-3.42a2.46 2.46 0 0 0-3.28-.86 2.4 2.4 0 0 0-.86 3.28" class="b"/><path d="M104.64 116.75c.02 2.64.15 6.1 2.37 7.9a5.9 5.9 0 0 0 5.24.96 5.6 5.6 0 0 0 3.53-3.74 21 21 0 0 0 .82-4.82c.21-1.96.35-3.94.58-5.9a14 14 0 0 1 .3-1.89 6 6 0 0 0 .25-.88c-.01.2.05-.22.1-.19a6 6 0 0 1-.6.38c-.47.32-.31-.16-.02.11.1.1-.98-.44.13.1.37.18.72.43 1.1.6a6.4 6.4 0 0 0 2.9.69 4.9 4.9 0 0 0 4.8-4.26 53 53 0 0 0 .2-7.38c-.06-3.08-4.86-3.1-4.8 0q.03 1.86 0 3.72a11 11 0 0 1-.1 3.02c.02-.06.3.18-.26.13l-.3-.09c-.84-.18-1.55-.9-2.39-1.16-4.83-1.45-5.74 3.83-6.13 7.3-.24 2.08-.38 4.18-.62 6.27-.13 1.13-.24 2.71-.95 3.48.23-.25-.28 0-.67-.1-.33-.1-.26-.2-.09-.02q-.2-.39-.07-.05l-.12-.4a20 20 0 0 1-.4-3.79c-.03-3.08-4.83-3.1-4.8 0Zm-8.06 25.7a45 45 0 0 0-3.73 9.1c-1.42 4.37-2.6 8.8-3.72 13.26a573 573 0 0 0-6.54 29.77q-1.2 6.12-2.27 12.25a2.47 2.47 0 0 0 1.67 2.95 2.4 2.4 0 0 0 2.96-1.67 643 643 0 0 1 4.8-24.62c2.06-9.64 4.22-19.3 7.12-28.74q.92-3.01 2.03-5.96l.51-1.28c-.22.53.25-.56.33-.75a21 21 0 0 1 .99-1.88c1.58-2.67-2.57-5.08-4.15-2.43" class="b"/><path d="M215.74 250.76c-6.32 1.27-11.71 2.39-17.92.8a39 39 0 0 1-9.39-4c-2.84-1.64-6.22-2.8-9.38-1.92-3.62 1.02-6 4.4-8.09 7.52l8.26 26.31a10 10 0 0 0 5.62-2.97l-.17.3a4.7 4.7 0 0 0 0 5.46c1.13 1.5 3.89 1.78 5.4.9 4.57-2.7 8.27-6.08 13.13-8.84a19.6 19.6 0 0 0 11.33 3.98c2.82.07 4.79-.01 6.7-.93a11 11 0 0 0 2.65-1.84 23 23 0 0 0 4.33-6.28c.46-1.06 1.03-3.64.65-4.74-1.65-4.78-6.15-11.3-10.12-14.34zM124.99 67l-.06-.41a5 5 0 0 0 3.18.74 579 579 0 0 1 25.87-.88c18.77-.24 39.14 0 52.27.28 3.17.06 8.8 1.66 11.25 3.55v.25a5.6 5.6 0 0 1 2.58 2.6c1.56 3.22.97 8.82-.59 12.19a17.7 17.7 0 0 1-6.48 8.06 13 13 0 0 1-6.93 1.62c1.94-1.49-2.45 5.7-2.45 5.7a41 41 0 0 1-10.37 11.38 52 52 0 0 1-8.87 5.83c-3.63 1.82-11.13 4.69-17.03 5.2-10.03.89-18.48-.85-26.49-7.05-7.63-5.91-11.14-15.46-12.6-26.09-.87-6.35-1.66-13.28-2.79-20.17q-.27-1.39-.49-2.8" class="c"/><path d="M223.45 285.13a2846 2846 0 0 1-41.34 18.09l-.59.25.57-.34a5.6 5.6 0 0 0 2.5-6.53l-5.37-17.12a10 10 0 0 0 5.62-2.98l.15-.14-.32.43a4.7 4.7 0 0 0 0 5.47c1.13 1.5 3.89 1.79 5.4.91 3.25-1.92 6.06-4.18 9.15-6.32l8.6.07a20 20 0 0 0 6.71 1.38c2.82.07 4.79 0 6.7-.92l.59-.31.07-.04 4.53.04c3.3.03 7.2.05 10.26.06a1 1 0 0 1 .41 1.9l-10.67 4.79Z" class="b"/><path d="M221.82 279.42q4.37.06 8.74.08l4.69.02a7 7 0 0 0 1.08 0h.35q.4-3.2-.97-2.48a8 8 0 0 0-1.2.54q-6.03 2.7-12.07 5.38-14.64 6.51-29.32 12.93l-6.76 2.93-2.93 1.25-.57.24-.32.14-1.14.48a2.5 2.5 0 0 0-1.68 2.95 2.4 2.4 0 0 0 2.96 1.68c9.29-3.88 18.49-7.97 27.7-12.04q8.02-3.53 16.02-7.1l6.8-3.02 2.94-1.32a12 12 0 0 0 2.64-1.3 3.4 3.4 0 0 0-.29-5.52c-1.55-.95-3.99-.55-5.74-.55q-5.46-.01-10.93-.1c-3.1-.04-3.1 4.76 0 4.8Zm-91.07-255.7c-5.38 6.95-7.93 15.3-8.82 23.96a77 77 0 0 0 1.88 25.68c.73 3 5.36 1.73 4.63-1.27a74 74 0 0 1-1.78-23.7c.67-7.5 2.83-15.26 7.49-21.28a2.5 2.5 0 0 0 0-3.4 2.4 2.4 0 0 0-3.4 0m91.97 52.3c1.98-4.35 2.62-9.18 3.03-13.9a59 59 0 0 0-.02-12.5c-1.19-9.37-3.84-18.47-9.75-25.97A56 56 0 0 0 190.41 5.2c-7.89-2.69-16.08-3.02-24.28-1.95a59 59 0 0 0-15.86 4.06 41 41 0 0 0-12.93 8.85c-2.18 2.19 1.2 5.58 3.4 3.4 6.2-6.2 13.98-9.54 22.53-11.06 7.54-1.35 15.2-1.59 22.58.34A50 50 0 0 1 210.02 24a39 39 0 0 1 6.92 10.34 54 54 0 0 1 3.51 12.27 55 55 0 0 1 .67 13.27c-.29 4.52-.65 9.53-2.54 13.7a2.47 2.47 0 0 0 .86 3.3 2.4 2.4 0 0 0 3.28-.87" class="b"/><path d="M123.3 71.18c.81 5.19 1.46 10.4 2.15 15.62a82 82 0 0 0 2.57 13.5 39 39 0 0 0 5.32 11.25 33 33 0 0 0 9.39 8.74c14.97 9.38 35.3 5.85 49.09-4.12a53 53 0 0 0 10.44-9.42 47 47 0 0 0 6.06-9.57 2.47 2.47 0 0 0-.86-3.29 2.4 2.4 0 0 0-3.29.87c-6.1 13.28-19.26 22.29-33.3 25.39-7.64 1.69-16.3 1-23.3-2.62a29 29 0 0 1-9.15-7.17 31 31 0 0 1-5.24-9.7 69 69 0 0 1-2.9-13.63c-.76-5.72-1.46-11.44-2.36-17.13a2.4 2.4 0 0 0-2.96-1.68 2.46 2.46 0 0 0-1.67 2.95Z" class="b"/><path d="M211.26 73.06a4.9 4.9 0 0 1 4.53-.64 3.2 3.2 0 0 1 2.07 1.65c1.36 2.53.8 6.29-.04 8.94a16.4 16.4 0 0 1-4.86 7.46c-1.92 1.61-5.45 2.98-8.03 1.88a2.5 2.5 0 0 0-3.28.86 2.4 2.4 0 0 0 .86 3.29 13.3 13.3 0 0 0 10.84-.58c3.12-1.45 5.6-4.43 7.23-7.39a22 22 0 0 0 2.8-9.72c.14-3.1-.4-6.57-2.67-8.87a9.6 9.6 0 0 0-11.87-1.02 2.47 2.47 0 0 0-.86 3.28 2.4 2.4 0 0 0 3.28.86" class="b"/><path d="M179.26 75.42c.7 2.14.39 7.1-3.68 7.62-5.4.09-5.82-5.9-4.07-8.76 1.44-2.34 5.79-3.4 7.75 1.14m-32.48-.2c.66 2.08.38 6.9-3.35 7.38-4.95.07-5.36-5.73-3.76-8.5 1.31-2.27 5.3-3.28 7.11 1.12" style="fill:none"/><path d="M154.88 85a50 50 0 0 0-1.88 3.7 5 5 0 0 0-.6 2.13 3.1 3.1 0 0 0 1.15 2.47 4.4 4.4 0 0 0 1.93 1.02c.47.1.94.1 1.4.16a2.4 2.4 0 0 0 1.7-.7 2.4 2.4 0 0 0 0-3.4l-.48-.37a2.4 2.4 0 0 0-1.21-.32l-.64-.06.64.09a2 2 0 0 1-.55-.15l.58.24a3 3 0 0 1-.46-.28l.49.38-.3-.28.37.49-.08-.13.24.57-.06-.21.09.64v-.32l-.08.64a3 3 0 0 1 .17-.58l-.24.58a44 44 0 0 1 1.97-3.88 2.5 2.5 0 0 0 .24-1.85 2.4 2.4 0 0 0-4.39-.58" class="b"/><path d="M131.14 72.45c3.5-.35 17.2-.3 27.07-.64 4.42-.15 29.42-.08 36.34.27a3.5 3.5 0 0 1 3.05 2.57 6 6 0 0 1-1.01 5.28c-5.21 6.28-14.14 9.52-21.02 9.22-5.8-.26-10.48-2.1-14.55-6.44a5.4 5.4 0 0 0-7.77-.23c-2.75 2.72-6.4 4.82-10.21 4.63-6.26-.31-10.6-2.34-13.48-9.5a5.7 5.7 0 0 1-.43-3.47 2.4 2.4 0 0 1 2.01-1.69m85.49-49.63a43 43 0 0 1 8.42 22.53 61 61 0 0 1-.66 18.79c-.67 3.08-3.76 6.56-6.89 6.15-2.45-1.89-8.08-3.49-11.25-3.55-13.13-.28-33.5-.52-52.27-.28-12.1.15-20.83.6-25.87.88-2.95.16-4.58-1.33-4.81-3.94a55 55 0 0 1-.13-4.96c.14-13.17 1.67-22.69 5.13-29.45 5-9.8 9.9-15.1 18.76-20.25a48.4 48.4 0 0 1 21.27-6.11 65 65 0 0 1 22.96 2.14 46 46 0 0 1 25.34 18.05" class="b"/><path d="M214.56 24.03a44 44 0 0 1 5.46 9.77 45 45 0 0 1 2.63 11.55 65 65 0 0 1 .03 14.62c-.34 2.8-1.24 8.27-5.18 7.92l1.22.33a23 23 0 0 0-9.58-3.57 70 70 0 0 0-10.2-.45q-12.53-.2-25.07-.24c-9.04-.02-18.1.01-27.14.23q-5.6.14-11.2.38c-2.64.12-5.32.43-7.95.38-1.16-.02-1.6-.32-1.81-1.26a25 25 0 0 1-.19-5.73 123 123 0 0 1 .73-12.55 57 57 0 0 1 1.97-9.88 40 40 0 0 1 3.78-8.47 41 41 0 0 1 13.07-14.3 47 47 0 0 1 22.83-7.7 63 63 0 0 1 25.75 3 43.5 43.5 0 0 1 17.93 12.32 47 47 0 0 1 2.92 3.66 2.47 2.47 0 0 0 3.28.86 2.4 2.4 0 0 0 .87-3.29 50 50 0 0 0-22.35-17.67c-10.4-4.07-22.12-4.72-33.1-3.16a49.5 49.5 0 0 0-27.12 13.02 48 48 0 0 0-12.97 22.16 77 77 0 0 0-2.09 14.12q-.29 4.28-.31 8.58c-.02 2.3-.22 4.95.65 7.12a6.3 6.3 0 0 0 5.32 3.91 31 31 0 0 0 4.94-.13q6.56-.33 13.12-.51c11.58-.32 23.17-.32 34.75-.26q7.96.05 15.93.16l7.08.12a35 35 0 0 1 5.8.3 24 24 0 0 1 6.18 1.94c1 .5 1.83 1.28 2.96 1.39a7 7 0 0 0 3.74-.8c5.2-2.56 6-8.66 6.43-13.8.85-10.3-.43-21.43-5.31-30.64a53 53 0 0 0-3.66-5.85 2.47 2.47 0 0 0-3.28-.86 2.4 2.4 0 0 0-.86 3.28m-60.58 82.92a27 27 0 0 0 10.01-.88 2 2 0 0 0-1.06-3.85 22 22 0 0 1-2.25.53l-.66.11-.14.02-1.19.12a27 27 0 0 1-4.71-.06 2 2 0 0 0-2 2 2.05 2.05 0 0 0 2 2m46.27-4q.88 3.51 1.72 7.02a36 36 0 0 0 1.37 5.04c1.38 3.42 4.7 5.33 7.95 6.73 4.17 1.82 8.69 2.95 12.99 4.43a128 128 0 0 1 13.76 5.42 47 47 0 0 1 11.22 7.2 39 39 0 0 1 7.49 9.22c5.23 8.76 7.98 18.46 10.7 28.2a381 381 0 0 1 8.97 38.74c1.15 6.78 2.3 13.61 1.57 20.5-.77 7.33-2.76 14.68-8.28 19.92a52 52 0 0 1-11.25 7.56 132 132 0 0 1-12.23 5.77q-5.37 2.22-10.88 4.1c-.28.09-.86.24-.16.16h-8.29c-3.09 0-3.1 4.8 0 4.8h6.73a8 8 0 0 0 2.86-.3q2.53-.85 5.02-1.78c8.58-3.2 17.15-6.88 24.87-11.82a35 35 0 0 0 10.6-9.7 34 34 0 0 0 4.5-10.3 64 64 0 0 0 1.58-11.57 52 52 0 0 0-.7-9.9 306 306 0 0 0-7.96-38.98c-2.64-9.9-5.1-19.97-9.2-29.38a66 66 0 0 0-6.63-12.02 42 42 0 0 0-9.33-9.39c-7.87-5.84-17.53-9.06-26.74-12.12-4.13-1.38-8.52-2.39-12.25-4.7a5.6 5.6 0 0 1-2.45-2.5c.25.52-.03-.11-.1-.3q-.15-.45-.26-.91-.44-1.7-.84-3.4-.84-3.51-1.71-7.01c-.76-3-5.39-1.73-4.63 1.27Z" class="b"/><path d="M196.77 126.23q.06-.04 0 0" class="c"/><path d="M274.78 255.54q8.13 0 16.25-.02l25.84-.04 6.47-.01c3.08 0 3.09-4.8 0-4.8q-8.38 0-16.76.03l-25.7.03-6.1.01c-3.09 0-3.1 4.8 0 4.8m-272.46.01c8.08 0 16.16-.05 24.24-.07l4.13-.01c3.08 0 3.1-4.8 0-4.8q-12.33.02-24.66.07l-3.71.01c-3.09 0-3.1 4.8 0 4.8m221.46-15.61c4.93-2.1 9.67-4.53 14.48-6.86a2.4 2.4 0 0 0 .86-3.28 2.46 2.46 0 0 0-3.29-.86c-4.8 2.33-9.54 4.76-14.47 6.85a2.4 2.4 0 0 0-.86 3.29 2.5 2.5 0 0 0 3.28.86m3.19-45.22 7.32 26.78c.8 2.98 5.44 1.72 4.62-1.27l-7.31-26.79c-.81-2.97-5.44-1.71-4.63 1.28m-75.68-70.66a2.4 2.4 0 0 0 2.32-1.76c.1-.52.17-1.06.3-1.57s.33-.5.02-.45c.75-.1 1.7 1.06 2.2 1.47a13 13 0 0 0 7.2 2.82 34 34 0 0 0 7.4-.38 46 46 0 0 0 8.6-1.54c2.91-.97 1.66-5.61-1.28-4.63a44 44 0 0 1-8.96 1.56c-2.56.28-5.3.58-7.78-.25-2.62-.88-4-3.58-6.96-3.82a4.6 4.6 0 0 0-4.05 1.76 8 8 0 0 0-1.33 3.76l2.32-1.77h-.01c-3.1 0-3.1 4.8 0 4.8Zm21.85 130.16c1.8-2.68 4.04-6.11 7.58-6.46a10.5 10.5 0 0 1 5.75 1.46c2.09 1.1 4.12 2.23 6.3 3.14a29.5 29.5 0 0 0 13 2.33c4.6-.24 9.1-1.35 13.6-2.2l-2.33-.62a29 29 0 0 1 6.23 7.02 37 37 0 0 1 2.47 4.32 13 13 0 0 1 .75 1.79 2.5 2.5 0 0 1 .05 1.26 8 8 0 0 1-1.3 3.52 18 18 0 0 1-2.63 3.64c-2.04 2.09-4.29 2.52-7.1 2.5a18.3 18.3 0 0 1-11.2-3.73 2.4 2.4 0 0 0-3.27.86 2.46 2.46 0 0 0 .86 3.28 22 22 0 0 0 11.35 4.3c3.3.3 6.93.18 9.85-1.54a19 19 0 0 0 6.78-7.8 14 14 0 0 0 1.42-4.74 9 9 0 0 0-.98-4.8 40 40 0 0 0-5.86-9.27 27 27 0 0 0-3.53-3.6 3.4 3.4 0 0 0-3.07-.98c-1.16.2-2.32.46-3.48.69a47 47 0 0 1-11.77 1.31 28 28 0 0 1-11.44-3.57c-4.05-2.14-8.4-4.44-13.1-2.9-4.13 1.36-6.75 4.92-9.07 8.37-1.73 2.57 2.42 4.97 4.14 2.42" class="b"/><path d="m175.17 265.16 4.48-4.32a2.4 2.4 0 0 0 0-3.4 2.4 2.4 0 0 0-1.7-.7 2.5 2.5 0 0 0-1.7.7l-4.48 4.32a2.4 2.4 0 0 0 0 3.4 2.4 2.4 0 0 0 1.7.7 2.5 2.5 0 0 0 1.7-.7m5.25 16.5a14 14 0 0 0 3.73-1.53 19 19 0 0 0 3.04-2.56c2.05-1.97 4.19-3.86 6.22-5.84a2.4 2.4 0 0 0-3.4-3.4c-1.92 1.89-3.94 3.68-5.9 5.54q-.71.7-1.44 1.39c-.08.07-.59.41-.58.5 0-.05.43-.32.13-.1l-.3.2-.64.39-.5.25c.35-.17-.1.04-.18.07a15 15 0 0 1-1.46.45 2.4 2.4 0 1 0 1.28 4.63Zm1.98-19.12a101 101 0 0 1-6.78 6.68 2.4 2.4 0 0 0 0 3.4 2.45 2.45 0 0 0 3.4 0c2.34-2.14 4.64-4.34 6.77-6.68a2.4 2.4 0 1 0-3.39-3.4" class="b"/><path d="M182.6 275.58a7.2 7.2 0 0 0-.13 7.72 6.7 6.7 0 0 0 6.91 2.62 9 9 0 0 0 3.23-1.5q1.81-1.17 3.55-2.44c2.3-1.65 4.55-3.33 6.95-4.82a2.4 2.4 0 0 0-2.42-4.14c-3.9 2.4-7.4 5.37-11.3 7.76l-.62.36c-.2.12.37-.06-.06.02-.18.04-.6.13-.18.08a5 5 0 0 1-.65.02c-.06 0-.64-.06-.34-.01s-.27-.07-.32-.1c-.1-.02-.64-.28-.23-.06-.11-.06-.59-.4-.21-.08a1.7 1.7 0 0 1-.57-1.14 3 3 0 0 1 .02-.76 2.3 2.3 0 0 1 .51-1.1 2.4 2.4 0 0 0-.86-3.29 2.45 2.45 0 0 0-3.28.86M24.37 207.77c30.78.5 101.07.67 126.16.84a8.8 8.8 0 0 1 8.33 6.14c5.97 18.88 19.4 61.64 25.72 81.85a5.63 5.63 0 0 1-5.4 7.32c-27.2-.1-100.46-.36-128.63-.93a5.6 5.6 0 0 1-5.26-3.96c-5.56-17.97-19.82-63.24-26.4-83.92a5.64 5.64 0 0 1 5.48-7.34" class="b"/><path d="M24.37 210.17c14.38.24 28.76.33 43.14.42q25.2.16 50.4.26l21.2.1 8.28.04c3.07.02 6.22-.17 8.25 2.62a15 15 0 0 1 1.75 4.44l1.42 4.48 3.36 10.7q3.92 12.42 7.82 24.85l7.68 24.49 3.24 10.33c.78 2.48 3.05 6.78-.32 8.33-1.14.51-2.6.29-3.83.28l-3.98-.01-9.17-.03-21.93-.1q-24.94-.11-49.88-.3c-13.49-.1-26.98-.2-40.47-.47-1.5-.03-2.93-.38-3.62-1.89a32 32 0 0 1-1.2-3.82l-2.9-9.3q-3.63-11.62-7.28-23.22-7.18-22.82-14.4-45.62c-.42-1.33-1.2-2.86-.77-4.25a3.3 3.3 0 0 1 3.2-2.33c3.1-.04 3.1-4.84 0-4.8a8.14 8.14 0 0 0-7.95 9.72 47 47 0 0 0 1.43 4.62l1.57 4.95 7.49 23.72q7.4 23.5 14.75 47c1.1 3.55 1.84 7.47 5.56 9.22 2.8 1.32 6.54.85 9.59.9q10.27.16 20.54.25 25.36.25 50.73.36l44.94.2h4.05a13 13 0 0 0 5.08-.56 8.1 8.1 0 0 0 4.78-5.2c.65-2.14.11-4.15-.53-6.2l-6.94-22.17-15.68-49.86c-1.01-3.21-1.78-6.72-3.21-9.78-2.04-4.32-6.35-6.3-10.94-6.34q-8.96-.06-17.93-.1l-49.8-.22c-16.19-.1-32.38-.19-48.57-.38l-8.95-.13c-3.1-.05-3.1 4.75 0 4.8" class="b"/><path d="M78.02 253.83c-.2-2.29 1.5-4.17 3.76-4.9a7.7 7.7 0 0 1 6.24.68 6.7 6.7 0 0 1 3.22 5.47 6 6 0 0 1-2.28 4.04 6 6 0 0 1-3.83 1.29 6.8 6.8 0 0 1-4.37-1.74 11 11 0 0 1-2.57-3.94 5 5 0 0 1-.17-.9m34.09 0c-.88-2.29-3.46-4.17-6.06-4.9-2.14-.6-4.5-.54-5.93.68s-1.6 3.55-.64 5.47a12 12 0 0 0 4.18 4.04 9 9 0 0 0 4.43 1.29 4.2 4.2 0 0 0 3.55-1.74 5 5 0 0 0 .47-1.12 6 6 0 0 0 .25-2.82 5 5 0 0 0-.25-.9" class="e"/><path d="M117.07 240.56c-9.4-8.01-22.78-11.18-34.89-8.93-6.48 1.21-12.98 4.45-16.42 10.3-3.54 6-2.94 13.15.27 19.13a33 33 0 0 0 7.37 9.06 27 27 0 0 0 10.8 6.25l-1.67-1.67 2.04 6.72a4 4 0 0 0 1.72 2.5 8 8 0 0 0 3.4.72c2.23.1 4.47.05 6.7.05 5.26.01 10.52.04 15.77-.03 2.18-.04 5.4-.32 5.45-3.19a21 21 0 0 0-.6-3.73l-.73-4.32-1.68 2.95c6.96-2.04 11.3-9.51 11.77-16.43.52-7.58-3.79-14.54-9.31-19.38-2.31-2.03-5.72 1.35-3.4 3.4 4.41 3.86 8.08 9.08 7.95 15.17-.11 5-3.18 11.11-8.28 12.61a2.47 2.47 0 0 0-1.68 2.95l.6 3.61.3 1.67.15.94q.07.87.13.16l.62-1.06c.5-.47.19-.22-.25-.18q-.52.03-1.04.03h-1.04l-2.65.02-7.27.02-7.22-.02-2.59-.01a8 8 0 0 1-2.9-.24l.86.86a13 13 0 0 1-.69-2.13l-.82-2.68a13 13 0 0 0-.93-2.83c-.62-1.07-1.83-1.17-2.88-1.54a25 25 0 0 1-8.32-5.58c-4.38-4.16-8.36-10.1-7.53-16.43.78-5.97 5.54-10.07 10.98-11.92a37 37 0 0 1 14.32-1.48 35.3 35.3 0 0 1 20.19 8.05 2.46 2.46 0 0 0 3.4 0 2.4 2.4 0 0 0 0-3.4" class="e"/><path d="m102.83 277.26 1.03 4.73a2.4 2.4 0 0 0 4.39.57 2.6 2.6 0 0 0 .24-1.84l-1.04-4.74a2.4 2.4 0 0 0-4.38-.57 2.6 2.6 0 0 0-.24 1.85m-10.25 0 1.2 4.73a2.4 2.4 0 0 0 2.95 1.68 2.4 2.4 0 0 0 1.44-1.1 2.5 2.5 0 0 0 .24-1.85l-1.2-4.74a2.4 2.4 0 0 0-2.95-1.67 2.4 2.4 0 0 0-1.44 1.1 2.5 2.5 0 0 0-.24 1.85" class="e"/></svg>
