<svg xmlns="http://www.w3.org/2000/svg" fill="none" viewBox="0 0 24 24"><path stroke="currentColor" stroke-width="1.5" d="M3.8 12.03c.53-2.69.8-4.03 1.69-4.9a4 4 0 0 1 .53-.43C7.04 6 8.4 6 11.15 6h1.7c2.74 0 4.11 0 5.13.7a4 4 0 0 1 .53.44c.89.86 1.16 2.2 1.7 4.89.77 3.86 1.15 5.78.27 7.15a4 4 0 0 1-.56.68C18.75 21 16.78 21 12.85 21h-1.7c-3.93 0-5.9 0-7.07-1.14a4 4 0 0 1-.55-.68c-.9-1.37-.5-3.3.26-7.15Z"/><circle fill="none" cx="15" cy="9" r="1" fill="currentColor"/><circle fill="none" cx="9" cy="9" r="1" fill="currentColor"/><path fill="none" stroke="currentColor" stroke-linecap="round" stroke-width="1.5" d="M9 6V5a3 3 0 1 1 6 0v1"/></svg>
