<svg viewBox="0 0 1024 1024" xmlns="http://www.w3.org/2000/svg"><path d="M853.333333 874.666667c0 35.328-28.672 64-64 64H234.666667c-35.328 0-64-28.672-64-64V448c0-35.328 28.672-64 64-64h554.666666c35.328 0 64 28.672 64 64v426.666667z" fill="#37474F" /><path d="M704 234.666667H426.666667V149.333333h106.666666v42.666667l42.666667-42.666667h42.666667v42.666667l42.666666-42.666667h42.666667l42.666667 21.290667V213.333333z" fill="#FFA000" /><path d="M384 85.333333c-58.922667 0-106.666667 47.744-106.666667 106.666667s47.744 106.666667 106.666667 106.666667 106.666667-47.744 106.666667-106.666667-47.744-106.666667-106.666667-106.666667z m-42.666667 128a21.333333 21.333333 0 1 1 0-42.666666 21.333333 21.333333 0 1 1 0 42.666666z" fill="#FFA000" /><path d="M533.333333 234.666667V149.333333h-51.669333a105.792 105.792 0 0 1 0 85.333334H533.333333z" fill="#D67C05" /><path d="M554.666667 426.666667h-85.333334a42.666667 42.666667 0 0 0-42.666666 42.666666v64a21.333333 21.333333 0 0 0 21.333333 21.333334h21.333333v-85.333334h85.333334v85.333334h21.333333a21.333333 21.333333 0 0 0 21.333333-21.333334v-64a42.666667 42.666667 0 0 0-42.666666-42.666666" fill="#BDBDBD" /><path d="M725.333333 512H298.666667a42.666667 42.666667 0 0 0-42.666667 42.666667v256a42.666667 42.666667 0 0 0 42.666667 42.666666h426.666666a42.666667 42.666667 0 0 0 42.666667-42.666666V554.666667a42.666667 42.666667 0 0 0-42.666667-42.666667" fill="#FF8F00" /><path d="M341.333333 512h42.666667v341.333333h-42.666667zM640 512h42.666667v341.333333h-42.666667z" fill="#D67C05" /></svg>
