<svg xmlns="http://www.w3.org/2000/svg" fill="currentColor" viewBox="0 0 32 32"><path d="M24.65 2.15a.8.8 0 0 0-.66-.2c-.09.02-1.35.25-3.1.82-5.44-2.92-8.82-.9-9.9-.04-1.69-.54-2.9-.77-2.99-.78-.24-.04-.49.03-.66.2s-.25.42-.21.66L9 13.92l.27 1.78L9.22 30a.75.75 0 0 0 .75.75h12.66c.41 0 .75-.34.75-.75V15.66q0-.95-.17-1.84l1.64-11.01a.8.8 0 0 0-.22-.65Zm-7.16 3.64a29 29 0 0 1 5.74-2.13l-1.05 7.06a14 14 0 0 0-4.69-4.94Zm1.43-2.3c-.93.38-1.93.84-2.91 1.39a27 27 0 0 0-3.22-1.51c1.14-.58 3.19-1.08 6.14.12Zm-10.11.18a28 28 0 0 1 6.83 2.72q5.28 3.06 6.11 7.56.09.47.13.95H10.67zm1.93 25.58.03-8.72h5.97c.41 0 .75-.34.75-.75s-.34-.75-.75-.75h-5.97v-2.64H21.9v2.64h-2.03c-.41 0-.75.34-.75.75s.34.75.75.75h2.03v8.72z"/></svg>
