<svg xmlns="http://www.w3.org/2000/svg" fill="currentColor" viewBox="0 0 32 32"><path d="M28.38 10.4a.75.75 0 0 0-1.02-.04l-2.37 2.01a.7.7 0 0 0-.68.06l-1.99 1.29a.7.7 0 0 0-.57-.28H10.27a.8.8 0 0 0-.58.29l-2.01-1.31a.7.7 0 0 0-.67-.06l-2.37-2.01a.75.75 0 0 0-1.02.04l-2.15 2.14a.76.76 0 0 0-.08.97l4.24 5.96.04.03q.1.12.23.2l2.66 1.39q0 .27.17.47.23.25.56.26h13.42q.34 0 .56-.26.17-.2.17-.47l2.65-1.39a1 1 0 0 0 .24-.21l.02-.02 4.24-5.96a.76.76 0 0 0-.08-.97l-2.15-2.14Zm-7.27 4.55.58 4.14.17 1.22h-11.7l.75-5.26v-.1zm-16.92-3 2.19 1.86-.18 1.04-.39 2.27-2.83-3.97zm3.46 3.32.16-.95 1.54 1-.45 3.2-.14.98-1.68-.88zm15.6 4.23-.32-2.26-.27-1.94 1.51-.98.74 4.31zm2.93-2.37-.57-3.31 2.19-1.86 1.21 1.2z"/></svg>
