<svg viewBox="0 0 32 32" fill="none" xmlns="http://www.w3.org/2000/svg"><path fill-rule="evenodd" clip-rule="evenodd" d="M14.3337 6.66667C14.3337 5.74667 15.0803 5 16.0003 5C16.9203 5 17.667 5.74667 17.667 6.66667C17.667 7.58667 16.9203 8.33333 16.0003 8.33333C15.0803 8.33333 14.3337 7.58667 14.3337 6.66667ZM17.0003 10.2002C18.227 9.85353 19.187 8.89333 19.5337 7.66667H26.667C27.2137 7.66667 27.667 7.21333 27.667 6.66667C27.667 6.12 27.2137 5.66667 26.667 5.66667H19.5337C19.0937 4.13333 17.6803 3 16.0003 3C14.3203 3 12.907 4.13333 12.467 5.66667H5.33366C4.78699 5.66667 4.33366 6.12 4.33366 6.66667C4.33366 7.21333 4.78699 7.66667 5.33366 7.66667H12.467C12.8136 8.89333 13.7737 9.85353 15.0003 10.2002V27H9.33366C8.78699 27 8.33366 27.4533 8.33366 28C8.33366 28.5467 8.78699 29 9.33366 29H22.667C23.2137 29 23.667 28.5467 23.667 28C23.667 27.4533 23.2137 27 22.667 27H17.0003V10.2002ZM23.747 10.2799C23.8937 9.90661 24.267 9.66667 24.667 9.66667H26.0003C26.4003 9.66667 26.7737 9.90661 26.9203 10.2799L30.2537 18.2799C30.307 18.3999 30.3337 18.5333 30.3337 18.6667C30.3337 21.4267 28.0937 23.6667 25.3337 23.6667C22.5737 23.6667 20.3337 21.4267 20.3337 18.6667C20.3337 18.5333 20.3603 18.3999 20.4137 18.2799L23.747 10.2799ZM25.3337 11.6667L22.827 17.6667H27.8403L25.3337 11.6667ZM22.507 19.6667C22.9203 20.8267 24.027 21.6667 25.3337 21.6667C26.6403 21.6667 27.747 20.8267 28.1603 19.6667H22.507ZM6.00033 9.66667C5.60033 9.66667 5.22699 9.90661 5.08032 10.2799L1.74699 18.2799C1.69366 18.3999 1.66699 18.5333 1.66699 18.6667C1.66699 21.4267 3.90699 23.6667 6.66699 23.6667C9.42699 23.6667 11.667 21.4267 11.667 18.6667C11.667 18.5333 11.6403 18.3999 11.587 18.2799L8.25366 10.2799C8.107 9.90661 7.73366 9.66667 7.33366 9.66667H6.00033ZM4.17367 17.6667L6.66699 11.6667L9.17367 17.6667H4.17367ZM6.66699 21.6667C5.36033 21.6667 4.25367 20.8267 3.84033 19.6667H9.49365C9.08032 20.8267 7.97366 21.6667 6.66699 21.6667Z" fill="currentColor"/></svg>
