<svg xmlns="http://www.w3.org/2000/svg" viewBox="0 -28.97 284.802 284.802"><path d="M142.4 2.4C59.64 2.4 2.42 53.09 2.42 112.4c0 25.66 8.75 48.23 24.18 66.26a4.5 4.5 0 0 1 .85 4.47c-3.41 9.5-7.26 20.17-11.12 31.08a1 1 0 0 0 1.28 1.29c12.48-4.41 24.63-8.81 35.1-12.56a4.5 4.5 0 0 1 3.76.36c23.19 13.54 52.64 21.17 85.95 21.17 84.7 0 140-46.13 140-112.06 0-59.72-57.52-110.01-140-110.01" style="fill:#fff"/><path d="M142.4 0a188 188 0 0 0-46.1 5.6 154 154 0 0 0-38.6 15.47 127 127 0 0 0-29.83 23.4 106 106 0 0 0-19.7 29.6 96 96 0 0 0-8.05 33.95 105 105 0 0 0 8.49 46.49 100 100 0 0 0 11.9 20.38q1.85 2.45 3.8 4.8a3.2 3.2 0 0 1 .98 1.73 7 7 0 0 1-.82 2.9l-4.65 12.94q-2.46 6.86-4.9 13.73c-.74 2.09-1.9 4.6.3 6.25 2.04 1.54 4.63 0 6.7-.73q13.46-4.78 26.9-9.64l2.96-1.06a6 6 0 0 1 2.73-.7 7 7 0 0 1 2.19 1.1q1.28.72 2.57 1.42 5.09 2.74 10.39 5.04a160 160 0 0 0 22.67 7.92 196 196 0 0 0 52.06 6.27 203 203 0 0 0 44.16-5.03 153 153 0 0 0 37.2-13.68 120 120 0 0 0 28.89-21.2 103 103 0 0 0 19.81-27.86 106 106 0 0 0 9.61-33.57 101 101 0 0 0-1.95-35.55 99 99 0 0 0-14.19-31.8 116 116 0 0 0-25.32-26.79 142 142 0 0 0-34.65-19.51 170 170 0 0 0-42.68-10.54A196 196 0 0 0 142.4 0c-3.1 0-3.1 4.8 0 4.8a178 178 0 0 1 56.03 8.7 137 137 0 0 1 43.34 23.31 108 108 0 0 1 28.36 34.56 91 91 0 0 1 9.87 41.37 102 102 0 0 1-8.84 42.07 100.5 100.5 0 0 1-25.2 33.71 125 125 0 0 1-39.43 22.96 179 179 0 0 1-51.99 10.26c-21.28 1.15-42.82-.63-63.37-6.45a147 147 0 0 1-27.42-10.72c-2.12-1.1-4.16-2.36-6.28-3.45-2.67-1.36-5-.65-7.65.3l-16.32 5.86-8.17 2.93-4.43 1.58a28 28 0 0 1-4.28 1.45h1.27l.67.67v1.28a29 29 0 0 1 1.53-4.48l1.83-5.13 3.4-9.51 3.27-9.09c1.06-2.95 2.3-5.82.57-8.81a27 27 0 0 0-2.58-3.24q-1.34-1.64-2.6-3.34-2.46-3.35-4.66-6.9a95 95 0 0 1-7.43-14.67c-7.32-18.37-9.27-39.23-4.6-58.5A98 98 0 0 1 30.12 49.1C42.25 35.71 57.48 25.46 74 18.25c18.83-8.23 39.38-12.39 59.87-13.27q4.27-.18 8.55-.18c3.09 0 3.09-4.8 0-4.8" style="fill:#211715"/></svg>
