<svg xmlns="http://www.w3.org/2000/svg" viewBox="0 -9.11 289.383 289.383"><path d="M268.89 92.05a78 78 0 0 0 .7-10.4c0-42.01-32.4-71.3-70.86-71.3a84 84 0 0 0-25.77 3.88 66 66 0 0 0-38.36-11.8c-38 0-64.45 28.93-65.37 63.18q-.11 1.58-.16 3.18c-19.87 11.1-32.1 31.91-32.1 58.9 0 22.33 8.95 41.09 24.08 53.17A43 43 0 0 0 59.37 193c0 21.78 15.44 37.38 37.85 37.38a37.7 37.7 0 0 0 21.03-6.33c12.15 14.52 30.8 23.25 53.36 23.25 25.44 0 48.28-13.6 59.69-35.5 31.37-7.1 55.67-34.13 55.67-70.85 0-19.54-6.89-36.37-18.08-48.9M37.33 227.6c-7.83 0-13.24 5.75-13.24 12.48 0 7.54 5.53 12.72 13.24 12.72 8 0 13.24-5.23 13.24-12.72 0-6.77-5.44-12.48-13.24-12.48M10.17 254a7.4 7.4 0 0 0-7.75 7.31c0 4.41 3.24 7.45 7.75 7.45 4.7 0 7.75-3.07 7.75-7.45a7.4 7.4 0 0 0-7.75-7.31" style="fill:#fff"/><path d="M271.29 92.05c2.64-20.15-2.41-40.9-15.07-56.92a72.4 72.4 0 0 0-45.58-26.25 85 85 0 0 0-38.31 3.04l1.85.24c-17.66-12.36-41.3-15.37-61.71-8.7a66 66 0 0 0-39.11 34.5 69 69 0 0 0-4.92 14.42 90 90 0 0 0-1.77 16.41l1.19-2.07a64.5 64.5 0 0 0-30.1 38.01c-5.3 17.75-4.22 37.92 3.58 54.77a64 64 0 0 0 18.01 23.05l-.61-2.33c-3.56 12.35-1.94 26.82 5.93 37.24 7.25 9.62 18.51 14.75 30.42 15.28a41 41 0 0 0 24.37-6.6l-2.9-.38c11.78 14 29 21.84 47.03 23.57 18 1.73 36.38-2.8 50.82-13.88a68 68 0 0 0 18.96-22.43l-1.43 1.1a74 74 0 0 0 45.2-31.1c11.6-17.56 14.89-40 10.16-60.38a74 74 0 0 0-16.71-32.29c-2.06-2.31-5.44 1.1-3.4 3.4 13.15 14.8 18.8 34.7 17.07 54.3a69.4 69.4 0 0 1-21.4 44.51 69 69 0 0 1-20.24 13.12 98 98 0 0 1-11.63 3.74c-1.5.42-1.93 1.53-2.63 2.79q-.89 1.59-1.86 3.13a60 60 0 0 1-3.81 5.38 65.2 65.2 0 0 1-46.57 24.05c-18.64 1.18-37.97-4.41-51.6-17.51a63 63 0 0 1-4.57-4.9 2.4 2.4 0 0 0-2.9-.37 37.8 37.8 0 0 1-35.44 2.95A32.8 32.8 0 0 1 63 202.9a41 41 0 0 1 .38-21.41 2.4 2.4 0 0 0-.62-2.34A62.3 62.3 0 0 1 41.2 144.4a75.4 75.4 0 0 1 2.7-42.9 58.7 58.7 0 0 1 23.5-28.92c1.69-1.06 3.94-1.75 4.09-4.02.12-1.87.15-3.74.27-5.61a63 63 0 0 1 1.28-9.13 63 63 0 0 1 6.35-17.12 61 61 0 0 1 25.6-24.95 66.2 66.2 0 0 1 40.16-6.13 63 63 0 0 1 21.72 7.57c1.62.93 3.13 2.05 4.74 3 1.17.7 2.23.27 3.44-.09q1.55-.47 3.12-.87a79 79 0 0 1 12.6-2.14c13.17-1.15 26.48.71 38.44 6.5A67 67 0 0 1 256 42.97a70 70 0 0 1 11.16 36.47 80 80 0 0 1-.67 12.61 2.4 2.4 0 0 0 2.4 2.4 2.46 2.46 0 0 0 2.4-2.4M37.33 225.2c-6.65.08-12.76 3.9-14.92 10.33a15.1 15.1 0 0 0 5.23 16.69c4.99 3.71 12.48 3.93 17.9 1.02 5.57-3 8.17-9.46 7.22-15.57-1.18-7.54-8.06-12.38-15.43-12.47-3.09-.04-3.09 4.76 0 4.8 4.5.05 8.9 2.49 10.34 6.94 1.27 3.96.11 8.68-3.04 11.2a12.5 12.5 0 0 1-12.76 1.06 10.1 10.1 0 0 1-5.31-10.4c.7-5.4 5.57-8.73 10.77-8.8 3.09-.04 3.1-4.84 0-4.8m-27.16 26.4a10.1 10.1 0 0 0-9.68 6.76 9.85 9.85 0 0 0 3.46 10.88 11.2 11.2 0 0 0 11.53.63 9.8 9.8 0 0 0 4.69-10.2c-.72-4.87-5.27-8.02-10-8.08a2.4 2.4 0 0 0 0 4.8l.69.03c.69.01-.26-.07.13 0a11 11 0 0 1 1.14.28l.4.14c-.51-.17.09.04.17.08a9 9 0 0 1 1.03.62c-.44-.3.28.27.4.39l.26.28c.07.08.43.58.1.11a9 9 0 0 1 .52.82s.28.57.12.23c-.14-.29.13.37.15.44a9 9 0 0 1 .23.95c-.12-.6-.01.03 0 .14v.4a9 9 0 0 1-.05 1.02c.06-.6-.02.03-.04.14l-.14.55-.18.54c-.15.41-.01 0 .03-.07l-.49.88c-.07.12-.34.44 0 .02a9 9 0 0 1-.6.66c-.06.04-.6.48-.32.27.3-.22-.18.12-.2.13q-.23.15-.47.28l-.34.17c-.54.28.47-.12-.13.05q-.48.16-.95.27l-.5.1q-.26.04.12-.01l-.43.03a10 10 0 0 1-1.09.01l-.53-.03c-.4-.02.55.12-.08-.02q-.48-.1-.97-.24l-.55-.19c.52.18-.03-.02-.13-.07l-.8-.48c-.5-.31.33.33-.1-.08L6.3 265l-.38-.4c-.02-.02-.38-.49-.16-.19s-.12-.2-.13-.2q-.17-.28-.32-.57c-.07-.12-.23-.52-.03-.03l-.2-.54q-.14-.46-.22-.96c-.03-.13 0-.42 0 .04l-.04-.62v-.42c0-.14.12-.96 0-.34a8 8 0 0 1 .29-1.13l.13-.36c-.22.56.12-.19.17-.3s.13-.21.2-.32l.2-.29q.39-.43.82-.82c.09-.08.36-.24-.02 0q.32-.23.67-.42a8 8 0 0 1 .72-.37q-.34.15-.1.05c.42-.1.81-.25 1.23-.34.12-.02.6-.06.13-.02q.45-.04.9-.05a2.4 2.4 0 1 0 0-4.8Z" style="fill:#211715"/></svg>
