<svg xmlns="http://www.w3.org/2000/svg" viewBox="0 -31.39 306.839 306.839"><defs><style>.a{fill:#fff}.b{fill:#211715}</style></defs><path d="M189.2 53.23a5 5 0 0 0-2.6.78 11.1 11.1 0 0 0-5.1 8.87 3.5 3.5 0 0 0 1.4 3.2l4.3 2.5.03.01a16.6 16.6 0 0 1 7.2-12.74l-.04-.02-3.88-2.24a3 3 0 0 0-1.31-.37m-38.39 166.19-15.03-8.67-.37-.22 33.28-19.23 15.56 8.98c-8.86 5.13-25.1 14.5-33.29 19.23Z" class="a"/><path d="M205.69 81.47a32 32 0 0 0 6.12 17.86c4.14 5.77 10.75 11.65 18.24 11.8a14 14 0 0 0 8.67-2.86 14.5 14.5 0 0 0 5.14-8.84 31 31 0 0 0 .3-6.06V43.5c0-2.57-4-2.58-4 0v48.69c0 3.51.21 6.83-1.5 10.02a9.2 9.2 0 0 1-5.95 4.63c-6.33 1.56-12.4-3.42-16.2-7.94a28.2 28.2 0 0 1-6.82-17.42c-.02-2.57-4.02-2.58-4 0Z" class="b"/><path d="M199.75 54.33a6.8 6.8 0 0 0-4.26.86 16.6 16.6 0 0 0-8.3 14.37v.58a8 8 0 0 0 4 6.93l22.93 13.24a3.5 3.5 0 0 0 3.48 0l6.94-4a6 6 0 0 0 3.02-5.23v-7.83a6 6 0 0 0-3.01-5.21L202.3 55.19a7 7 0 0 0-2.55-.86m14.8 57.42v-.15l-75.94-43.84a3.2 3.2 0 0 0-3.2 0L3.66 143.82a3.2 3.2 0 0 0-1.6 2.77v49.44a3.2 3.2 0 0 0 1.6 2.77l74.42 42.97a3.2 3.2 0 0 0 3.2 0l131.67-76.03a3.2 3.2 0 0 0 1.6-2.78Z" class="a"/><path d="M214.56 109.3 195.2 98.1l-35.92-20.74-13.94-8.04c-1.9-1.1-3.77-2.28-5.71-3.3-2.9-1.54-5.1-.08-7.5 1.3l-8.2 4.74-28.72 16.59-36.71 21.2-33.66 19.43L4.56 141c-2.3 1.33-4.39 2.55-4.5 5.68-.13 3.84 0 7.7 0 11.54v36.31c0 2.08.12 4.04 1.9 5.51A15 15 0 0 0 4 201.32l10.18 5.87L49 227.3l26.4 15.25a13 13 0 0 0 2.46 1.26 6.5 6.5 0 0 0 5.29-.78l5.5-3.18 25.54-14.75 35.65-20.59 35.4-20.44 24.1-13.92c1.5-.86 3.03-1.69 4.5-2.6a5.5 5.5 0 0 0 2.72-4.84v-48.37c0-2.02-.1-3.7-2-5.04-2.1-1.48-4.1 1.99-2.01 3.46.22.15 0 2.23 0 2.53v44.3c0 1.1.1 2.24 0 3.33-.06.78-.48 1.04-1.05 1.37l-15.94 9.2-31.28 18.06-36.46 21.06-31.2 18.02q-7.78 4.52-15.58 9c-1.63.93-2.9-.11-4.31-.94L66 232.5l-34.7-20.04-25.5-14.72c-.66-.38-1.6-.73-1.74-1.56a17 17 0 0 1 0-2.83v-44a25 25 0 0 1 0-2.74c.14-1.29 2.43-2.1 3.4-2.66l8.44-4.87 28.87-16.68L81 101.48l33.23-19.18 20.1-11.61c.97-.56 2.26-1.7 3.4-1.13 2.3 1.14 4.5 2.6 6.72 3.88l32.24 18.61 30.85 17.81 5 2.9c2.23 1.28 4.25-2.18 2.02-3.47" class="b"/><path d="m30.23 141.26 102.69-59.3a6 6 0 0 1 6 0l46.8 27.03a3.96 3.96 0 0 1 0 6.85L83.78 174.71a6 6 0 0 1-6 0l-47.56-27.46a3.46 3.46 0 0 1 0-5.99" style="fill:#7abee6"/><path d="M135.08 93.93v27.67c0 2.57 4 2.58 4 0V93.93c0-2.57-4-2.58-4 0m-57.4 96.54v35.66c0 2.57 4 2.58 4 0v-35.66c0-2.58-4-2.58-4 0" class="b"/><path d="m80.7 188.12-22.85-13.2-36.42-21.02-8.35-4.82c-2.23-1.29-4.25 2.17-2.02 3.45l22.85 13.2 36.42 21.02 8.35 4.82c2.23 1.3 4.25-2.16 2.02-3.45" class="b"/><path d="m206.06 114.56-12.76 7.36-30.39 17.55-36.72 21.21-31.84 18.39c-5.14 2.97-10.42 5.79-15.46 8.93l-.21.12c-2.23 1.29-.22 4.74 2.02 3.45l12.75-7.36 30.39-17.55 36.72-21.21 31.84-18.39c5.14-2.97 10.42-5.79 15.46-8.93l.21-.12c2.23-1.29.22-4.74-2.02-3.45ZM32.03 142.52l21.31-12.3 28.99-16.73 28.76-16.61 20.63-11.92c2.32-1.34 4.64-2.1 7.18-.69 3.01 1.67 5.97 3.45 8.96 5.18l20.43 11.8 10.9 6.28q2.62 1.5 5.25 3.04a2.1 2.1 0 0 1 1.16 2.28c-.27 1.19-1.53 1.63-2.48 2.18l-4 2.3-8.15 4.7-36.5 21.08-36.05 20.82-7.82 4.51c-2.41 1.4-4.8 3.05-7.34 4.22-2.86 1.33-5.27-.14-7.7-1.55l-6.7-3.87-35.2-20.32c-.93-.53-2.23-.97-2.55-2.1a2 2 0 0 1 .92-2.3c2.18-1.37.17-4.83-2.02-3.46a6.1 6.1 0 0 0-2.1 8.33 9.5 9.5 0 0 0 3.72 2.98l4.49 2.6 18.93 10.93 16.58 9.57c2.32 1.35 4.74 3.14 7.43 3.58 3.78.61 6.65-1.16 9.78-2.96l35.08-20.26 38.92-22.47 17.72-10.24 4.02-2.31a12 12 0 0 0 3.93-2.9 6.04 6.04 0 0 0-1.35-8.33 59 59 0 0 0-5.37-3.16l-5.53-3.19-11.26-6.5-20.51-11.85c-3.34-1.93-6.44-3.97-10.5-3.22-2.08.39-3.88 1.61-5.7 2.66L118.46 88l-27.9 16.1-31.12 17.98L34.3 136.6l-4.28 2.47c-2.22 1.29-.21 4.75 2.02 3.45m181.48-69.66-17.22-9.94c-2.23-1.29-4.25 2.17-2.02 3.45l17.22 9.95c2.23 1.29 4.25-2.17 2.02-3.46" class="b"/><path d="M199.75 52.33c-5.2-.5-9.9 3.97-12.23 8.23-2.19 4-3.32 9.49-1.38 13.8a11.3 11.3 0 0 0 5.08 5.04l6.4 3.7 13.35 7.7c2.33 1.35 4.56 2.7 7.28 1.42.93-.43 1.8-1.01 2.69-1.52 2.43-1.4 5.47-2.67 7.16-5.01 1.61-2.24 1.46-4.84 1.46-7.46 0-2.56.4-5.48-.56-7.9-1.54-3.85-6.1-5.56-9.48-7.5l-11.5-6.64c-2.36-1.37-4.98-3.34-7.73-3.78a2.06 2.06 0 0 0-2.46 1.4 2 2 0 0 0 1.4 2.46c1.92.3 3.58 1.53 5.24 2.48L213 63.7l9.13 5.27c1.43.82 2.83 1.54 3.29 3.26a12 12 0 0 1 .14 3.03v3.83c0 1.98.13 3.95-1.64 5.26a22 22 0 0 1-2.12 1.25l-3.65 2.1a7 7 0 0 1-2.09 1.09c-.86.12-1.8-.7-2.51-1.1l-2.66-1.54-5.83-3.36-11.97-6.91c-1.95-1.12-3.53-2.52-3.85-4.88a14 14 0 0 1 .66-5.91c1.27-4 5.17-9.2 9.85-8.74a2 2 0 0 0 2-2 2.05 2.05 0 0 0-2-2.01" class="b"/><path d="m188.21 66.85-3.26-1.89a12 12 0 0 1-1.19-.7c.33.25.01 0 0-.04.02.15.1.14 0-.04-.29-.5.04.18-.08-.16l-.11-.4a5 5 0 0 1-.04-1.35l.03-.32c-.05.46 0 .07.02-.05l.15-.68a11 11 0 0 1 .5-1.51c-.13.3.04-.08.08-.16l.17-.35.4-.71a8 8 0 0 1 .85-1.18 5.7 5.7 0 0 1 2.72-1.97l.45-.11c.35-.07-.24 0 .1 0 .05 0 .46.02.22-.01s.13.04.19.05c.19.05-.2-.14.1.05l.21.12 3.66 2.11c2.23 1.3 4.25-2.16 2.02-3.45l-3.7-2.13c-2.78-1.6-5.88-.25-8.06 1.76a13.2 13.2 0 0 0-3.92 7.12c-.49 2.61-.16 5.59 2.34 7.06l4.13 2.4c2.23 1.29 4.25-2.17 2.02-3.46" class="b"/><path d="M226.06 73.64c-.96-.55-2.32-.5-3.91.43a11.1 11.1 0 0 0-5.06 8.9 3.5 3.5 0 0 0 1.4 3.2l6.69 3.83c.9.51 2.22.41 3.94-.6a10.7 10.7 0 0 0 5.15-8.78 3.5 3.5 0 0 0-1.53-3.16Z" class="a"/><path d="m226.16 88.28-4.24-2.45-2.2-1.27-.2-.11c-.1-.07-.27-.26-.07-.05-.3-.32-.07-.1-.04-.05 0 .01-.25-.58-.15-.27a3 3 0 0 1-.17-1.14 8 8 0 0 1 .05-.85c-.05.44.09-.44.12-.56q.11-.5.27-.97l.14-.4.16-.4a9 9 0 0 1 2.6-3.47 5 5 0 0 1 1.87-.96c.64-.15-.19-.01.41-.04.05 0 .4.04.1 0 .33.04 0-.07.3.1l1.74 1 4.9 2.83c2.23 1.29 4.25-2.17 2.02-3.45l-4.9-2.83q-.89-.53-1.77-1.02a6.1 6.1 0 0 0-6.14.54 13 13 0 0 0-5.74 8.92c-.28 1.98-.14 4.26 1.34 5.77a9 9 0 0 0 2.09 1.4l5.5 3.18c2.22 1.29 4.24-2.17 2.01-3.46Z" class="b"/><path d="M231.73 79.2c.39.23-.1-.2.04.01l.28.29c-.27-.32.06.15.12.3-.15-.37.07.34.1.47.05.33.01-.45 0 .16v.55l-.06.69c.06-.47-.07.33-.1.42a10 10 0 0 1-.33 1.13c-.03.09-.2.52-.07.2a11 11 0 0 1-.78 1.47q-.22.36-.48.7c-.2.29.3-.33-.09.12l-.37.42a11 11 0 0 1-1.15 1.08c-.27.22.38-.24-.11.08l-.3.2a11 11 0 0 1-.94.53c-.62.3.14-.04-.2.08a6 6 0 0 1-.81.22c.08-.02.4 0 .04-.02h-.3c.45-.02.22.07.05 0-.37-.15-.03.1.04.04-.06.06-.5-.43-.06 0l-.2-.2c.05.05.2.34.04.03l-.16-.27c.2.37.03.06 0-.06s-.15-.82-.12-.45a7 7 0 0 1-.03-.85l.04-.58c0-.29-.1.51 0 .06l.04-.28a11 11 0 0 1 .37-1.38q.11-.35.24-.68c.14-.35.02-.04 0 .03q.07-.19.17-.38a12 12 0 0 1 .8-1.4l.2-.28c.25-.38-.17.18.1-.15a13 13 0 0 1 1.29-1.31c.07-.07.38-.3.08-.08l.44-.3a7 7 0 0 1 .91-.5c-.23.1.08-.03.11-.04l.56-.15c.39-.1.07 0 0 0h.48c-.52-.02-.07-.06 0 .02l.22.07q-.37-.17-.09-.02a2 2 0 0 0 2.02-3.45c-3.16-1.7-6.81.43-8.85 2.94a13.6 13.6 0 0 0-3.11 7.6 6.4 6.4 0 0 0 1.32 4.56 4.6 4.6 0 0 0 4.43 1.33c3.19-.58 6-3.43 7.4-6.24 1.56-3.15 2.35-8.02-1.19-10.2a2 2 0 1 0-2.02 3.46Z" class="b"/><path d="M259.91 44.15v96.13l44.93 25.93V67.36L259.9 41.43Z" class="a"/><path d="M257.91 44.15v96.13a2 2 0 0 0 1 1.73L295.28 163l8.54 4.93a2.02 2.02 0 0 0 3-1.73V67.36a2 2 0 0 0-.98-1.72L260.92 39.7a2.02 2.02 0 0 0-3 1.73zc0 2.57 4 2.57 4 0v-2.72l-3.02 1.72 44.93 25.94-1-1.73v98.85l3.02-1.73-36.39-21-8.54-4.93 1 1.73V44.15c0-2.58-4-2.58-4 0M167.7 193.03q7.79 4.48 15.55 8.97l-.99-1.72 1-1.72-33.3 19.22h2.02l-15.18-8.76c-2.23-1.29-4.25 2.17-2.02 3.45l10.68 6.16 3.78 2.19.69.4c1.12.56 1.98.06 2.95-.5l22.18-12.8 6.05-3.5 2.7-1.55c1.04-.61 2.45-1.15 2.45-2.59a2 2 0 0 0-.99-1.73l-15.55-8.97c-2.23-1.28-4.25 2.17-2.02 3.46Z" class="b"/><path d="M237.1 23.19v17.69c0 1.63 2.28 2.94 5.1 2.94s5.1-1.31 5.1-2.94V16.17" class="a"/><path d="M235.1 23.19v16.5c0 2 .4 3.63 2.22 4.84 2.98 1.98 8.3 1.86 10.82-.88 1.13-1.22 1.16-2.58 1.16-4.1V16.17c0-2.58-4-2.58-4 0v20.7c0 1.2.09 2.46 0 3.66-.03.36.03.24-.08.39-.8 1.03-3 1.01-4.1.83a4 4 0 0 1-1.84-.73c-.18-.16-.2-.21-.18-.18a4 4 0 0 1 0-1.16v-16.5c0-2.57-4-2.57-4 0Z" class="b"/><path d="m232.53 2.87-4.24 3.57c-1.29 1.07-1.62 3.08-1.27 5.13a15.2 15.2 0 0 0 9.54 10.99c2.38.87 4.24.69 5.39-.27l4.34-3.66c1.11-.92 1.57-2.6 1.17-4.87-.72-4.1-4.84-9.5-9.72-11.27-2.35-.86-4.01-.62-5.07.26Z" class="a"/><path d="m231.11 1.46-3.95 3.32c-2.12 1.8-2.51 4.51-2.1 7.15.85 5.31 5.05 10.04 9.9 12.12 2.78 1.2 5.93 1.66 8.43-.37q1.74-1.44 3.45-2.9a6.8 6.8 0 0 0 2.73-4.9 13 13 0 0 0-2.37-7.85 19 19 0 0 0-6.99-6.62c-2.9-1.53-6.4-2.22-9.1.05a2 2 0 0 0 0 2.83 2.05 2.05 0 0 0 2.83 0 1 1 0 0 1 .45-.24 3 3 0 0 1 1.18-.07 8 8 0 0 1 3.14 1.17 15 15 0 0 1 4.71 4.42 10.5 10.5 0 0 1 2.18 5.54c.03 1.44-.46 1.89-1.46 2.73l-3.2 2.7q-.16.15-.34.29c-.1.08-.17.08.15-.12.07-.04-.54.3-.38.24a4.7 4.7 0 0 1-3.27-.32 13.1 13.1 0 0 1-7.94-8.66 5.3 5.3 0 0 1-.03-3.38 3.5 3.5 0 0 1 1.07-1.15l3.74-3.15a2 2 0 0 0 0-2.83 2.04 2.04 0 0 0-2.83 0" class="b"/><path d="m235.38 10.57.23.09-.48-.2a7 7 0 0 1 1.48.88l-.4-.32a11 11 0 0 1 1.83 1.88l-.31-.4a13 13 0 0 1 1.65 2.8l-.2-.48.05.12a2.2 2.2 0 0 0 .92 1.2 2 2 0 0 0 1.54.2 2 2 0 0 0 1.2-.92 2 2 0 0 0 .2-1.54c-1.28-3.07-3.44-5.97-6.64-7.17a2 2 0 0 0-1.54.2 2 2 0 0 0-.72 2.74 2.3 2.3 0 0 0 1.2.92" class="b"/></svg>
