<svg xmlns="http://www.w3.org/2000/svg" fill="none" viewBox="0 0 24 24"><path stroke="currentColor" stroke-linecap="round" stroke-width="1.5" d="M7 9s.5.9.5 3-.5 3-.5 3m3.5-6s.5.9.5 3-.5 3-.5 3"/><path stroke="currentColor" stroke-width="1.5" d="M20 10c.94 0 1.41 0 1.7.3.3.29.3.76.3 1.7s0 1.41-.3 1.7c-.29.3-.76.3-1.7.3z"/><path stroke="currentColor" stroke-linecap="round" stroke-width="1.5" d="M2 12c0-3.77 0-5.66 1.17-6.83S6.23 4 10 4h1.5c3.77 0 5.66 0 6.83 1.17S19.5 8.23 19.5 12s0 5.66-1.17 6.83S15.27 20 11.5 20H10c-3.77 0-5.66 0-6.83-1.17-.65-.65-.94-1.53-1.07-2.83"/></svg>
