<svg xmlns="http://www.w3.org/2000/svg" viewBox="0 -2.72 253.649 253.649"><defs><style>.a{fill:#fff}.c{fill:#211715}</style></defs><path d="M5.72 245.9c1.83-5.52 5.3-13.83 6.37-16.13a49 49 0 0 1 12.45-16.67c6.23-5.28 11.61-8.42 19.51-12.01 9.98-4.1 23.9-9.5 33.3-12.4 9.8 10.18 28.39 18.11 48.04 18.11 19.9 0 38.24-7.93 48.03-18.1 9.84 3.5 23.33 8.3 33.3 12.4 7.9 3.58 13.28 6.72 19.51 12a49 49 0 0 1 12.46 16.67 202 202 0 0 1 6.36 16.14Z" class="a"/><path d="M183.16 94.48a9 9 0 0 1 6.52-2.39c4.68.17 6.67 2.7 7.53 4.18 2.56 4.44 2.45 12.61.73 17.67-1.21 3.58-3.2 9.06-8 12.99a10 10 0 0 1-7.68 2.22l-.73-.13a60 60 0 0 1-2.65 7.17c-1.87 5.08-11.88 22.39-24.74 30.18.37 3.16.47 5.47.68 8.88a9.5 9.5 0 0 0 6.03 8.66c1.56.8 9.71 3.82 12.58 4.81-9.81 10.16-28.14 18.09-48.04 18.09-19.66 0-38.24-7.94-48.04-18.1 2.91-1 10.97-4 12.53-4.8a9.5 9.5 0 0 0 6.02-8.66c.22-3.45.32-5.77.7-8.98a55 55 0 0 1-14.42-12.67 69 69 0 0 1-13.03-24.59 9.8 9.8 0 0 1-8.3-2.07c-4.8-3.93-6.8-9.41-8.01-13-1.72-5.05-1.83-13.23.73-17.66.86-1.49 2.85-4.02 7.53-4.18a9 9 0 0 1 6.53 2.39s-1.34-51.81 59.86-51.81c62 0 55.67 51.8 55.67 51.8" class="a"/><path d="M89.46 74.17a173 173 0 0 0-12.6 12.56l-9.24 7.75a9 9 0 0 0-6.53-2.39 11 11 0 0 0-2.81.45 76 76 0 0 1-2.83-22.84c1.16-27.56 15.72-44.59 28.58-54.15 11.07-8.23 24.9-13.14 41.2-13.14a68.4 68.4 0 0 1 41.54 13.39c13.3 9.6 27.08 26.58 28.23 53.9.33 7.83-.59 14.22-2.75 22.76a11 11 0 0 0-2.57-.37 9 9 0 0 0-6.53 2.39L174 87.22c-2.96-7.45-9.64-15.67-16.6-21.67a37 37 0 0 0-10.57-6.65l-11.48-1.4c-7.74 3.26-18.66 10.11-24.79 13.51a2.1 2.1 0 0 1-2.98-2.25 11 11 0 0 0-.27-4.02c-.4-1.68-1.7-2.4-2.7-1.87-4.48 2.35-9.95 6.63-15.14 11.3" style="fill:#85807f"/><path d="M69.32 92.78a12.2 12.2 0 0 0-13.65-1.76c-3.23 1.64-5.03 4.95-5.81 8.37-1.87 8.13.17 17.27 4.8 24.17 3.33 4.98 8.23 8.79 14.5 7.9a2.4 2.4 0 0 0 1.67-2.95 2.46 2.46 0 0 0-2.95-1.68c-3.73.53-6.93-2.57-8.87-5.38a31 31 0 0 1-3.96-8.44 26 26 0 0 1-.95-9.98 15 15 0 0 1 1.11-4.74 11 11 0 0 1 .7-1.25l.22-.31c-.02.03-.23.29-.05.07a9 9 0 0 1 .63-.68c2.25-2.15 6.72-2.22 9.22.06 2.28 2.08 5.68-1.3 3.4-3.4Zm103.48 98.24a1483 1483 0 0 1 18.83 6.8 181 181 0 0 1 18.49 7.54 69 69 0 0 1 15.42 10.32 47 47 0 0 1 11.08 15.3 147 147 0 0 1 6.12 15.57c.97 2.92 5.6 1.67 4.63-1.28a179 179 0 0 0-6.18-15.75 52 52 0 0 0-10.36-15.42A67 67 0 0 0 215 202.5a152 152 0 0 0-19.06-8.17c-7.26-2.73-14.56-5.33-21.87-7.93a2.4 2.4 0 0 0-2.95 1.67 2.45 2.45 0 0 0 1.67 2.95ZM8.04 246.55a164 164 0 0 1 5.77-14.8 48 48 0 0 1 10.15-14.87c9.38-9.19 21.62-13.98 33.65-18.61a319 319 0 0 1 20.36-7.25c2.95-.9 1.69-5.54-1.27-4.63a306 306 0 0 0-18.6 6.57c-6.43 2.45-12.96 4.84-19.14 7.89a76 76 0 0 0-16.62 11 51 51 0 0 0-12.18 16.4 151 151 0 0 0-6.75 17.02c-.98 2.94 3.66 4.2 4.63 1.28" class="c"/><path d="M77.97 191.02q5.45-1.87 10.8-4.04a20 20 0 0 0 5.37-2.86 11.5 11.5 0 0 0 3.76-6.13c.76-3.08.6-6.43.88-9.58a2.4 2.4 0 0 0-2.4-2.4 2.45 2.45 0 0 0-2.4 2.4q-.22 2.48-.36 4.97a14 14 0 0 1-.56 4.09c-.69 2.12-2.33 3.45-4.65 4.5l-.47.2c-.44.2.44-.17-.02.01l-1.48.6-3.45 1.32a253 253 0 0 1-6.29 2.3 2.46 2.46 0 0 0-1.67 2.95 2.4 2.4 0 0 0 2.95 1.68Zm96.06-4.63a253 253 0 0 1-9.74-3.61l-1.4-.57c-.58-.24.3.15-.1-.04l-.47-.2c-2.31-1.05-3.96-2.39-4.64-4.5a14 14 0 0 1-.57-4.1q-.14-2.47-.35-4.96a2.46 2.46 0 0 0-2.4-2.4 2.4 2.4 0 0 0-2.4 2.4c.47 5.23-.1 11.03 3.92 15.06a16 16 0 0 0 5.5 3.27q2.64 1.1 5.33 2.08 3 1.14 6.05 2.2a2.4 2.4 0 0 0 1.27-4.63m10.82-90.21a7.25 7.25 0 0 1 8.7-.5 5 5 0 0 1 1.58 1.8 13 13 0 0 1 1.4 4.38 27.5 27.5 0 0 1-3.95 18.33c-1.97 3.25-5.42 7.24-9.69 6.63a2.5 2.5 0 0 0-2.95 1.68 2.4 2.4 0 0 0 1.68 2.95c10.21 1.45 16.2-8.96 18.78-17.32a30 30 0 0 0 .81-13.2c-.55-3.58-1.98-7.08-5.01-9.24a12.1 12.1 0 0 0-14.74 1.09c-2.3 2.08 1.11 5.47 3.39 3.39Z" class="c"/><path d="M180.3 124.14a75 75 0 0 1-3.95 11.98c.29-.76-.03.06-.1.22l-.35.74-.85 1.7a73 73 0 0 1-2.32 4.05 72 72 0 0 1-15.68 18.58 29 29 0 0 1-11.63 6.02c-3.01.7-1.74 5.32 1.28 4.63 8.7-2 15.94-8.4 21.6-15.01a78 78 0 0 0 12.1-18.29l.53-1.24c.07-.17.4-.95.12-.3q.7-1.58 1.3-3.19a57 57 0 0 0 2.58-8.61 2.46 2.46 0 0 0-1.68-2.95 2.4 2.4 0 0 0-2.95 1.67m-114.61 1.07a72 72 0 0 0 10.3 24.1c5.16 7.69 11.9 14.89 20.07 19.41a40 40 0 0 0 13.55 4.61 2.5 2.5 0 0 0 2.95-1.68 2.4 2.4 0 0 0-1.68-2.95c-17.26-2.53-30.17-17.51-36.74-32.82a69 69 0 0 1-3.82-11.94c-.68-3.01-5.31-1.74-4.63 1.27m99.28-113.55A71.6 71.6 0 0 0 131.8.28 75 75 0 0 0 95.26 6.2a72.3 72.3 0 0 0-38.58 42.87 76.7 76.7 0 0 0-1 43.07c.78 2.98 5.4 1.72 4.64-1.28a72 72 0 0 1-.14-36.71 65 65 0 0 1 13.2-25.37 65.9 65.9 0 0 1 53.86-23.95 67.3 67.3 0 0 1 35.3 10.97c2.6 1.69 5-2.47 2.42-4.15Zm29.83 80.48a83 83 0 0 0 2.65-18.05 80 80 0 0 0-1.67-17.69 69 69 0 0 0-11.7-26.72 71 71 0 0 0-9.64-10.75c-2.29-2.08-5.69 1.3-3.4 3.39a65 65 0 0 1 14.9 19.76 70 70 0 0 1 6.72 29.84 75 75 0 0 1-2.49 18.94c-.73 3 3.9 4.27 4.63 1.27Zm-79.86 50.66a23 23 0 0 0 11.06 2.55c3.9-.03 7.92-.77 11.06-3.21a2.4 2.4 0 0 0 0-3.4 2.46 2.46 0 0 0-3.4 0c.69-.54.03-.04-.14.07q-.35.22-.7.4c-.15.08-.93.43-.4.2q-.47.2-.96.36a18 18 0 0 1-5.83.78 18 18 0 0 1-5.56-.75q-.53-.16-1.05-.36l-.34-.13c.59.22.07.03-.04-.02q-.65-.3-1.28-.64a2.45 2.45 0 0 0-3.29.86 2.43 2.43 0 0 0 .86 3.29Zm10.09-26.38a54 54 0 0 1 1.25 5.73l-.09-.64a4 4 0 0 1 .03.79l.08-.64-.09.36.25-.58-.13.23.38-.48-.19.18.49-.37-.46.24.57-.25a3 3 0 0 1-.76.23l.64-.09a3 3 0 0 1-.72 0l.64.09-.8-.14a2.7 2.7 0 0 0-1.86.24 2.4 2.4 0 0 0-.86 3.28 2.3 2.3 0 0 0 1.44 1.1c.56.08 1.12.23 1.7.25a5 5 0 0 0 2.44-.57 3.4 3.4 0 0 0 1.92-2.26 6 6 0 0 0-.03-2.5 63 63 0 0 0-1.21-5.48 2.4 2.4 0 0 0-4.63 1.28m-30.64-16c-.93 3.03-.33 9.99 5.4 10.58 7.58-.05 7.98-8.46 5.43-12.41-2.09-3.24-8.22-4.59-10.83 1.83m62 0c.93 3.03.32 9.99-5.4 10.58-7.58-.05-7.98-8.46-5.43-12.41 2.08-3.24 8.22-4.59 10.83 1.83M145.6 60.98a47 47 0 0 1 14.97 10.9c4.46 4.63 8.68 9.97 11.1 15.98a2.5 2.5 0 0 0 2.96 1.67 2.4 2.4 0 0 0 1.67-2.95 58 58 0 0 0-12.03-17.77 51 51 0 0 0-16.25-11.98 2.5 2.5 0 0 0-3.28.87 2.4 2.4 0 0 0 .86 3.28" class="c"/><path d="M78.55 88.43c6.87-7.64 14.47-15.1 22.98-20.89q1.34-.91 2.73-1.73a14 14 0 0 0 1.25-.73c-.01-.06-1.01.28-.67-.1 0 0 .05.01.04.03-.08.08.33 1.62.35 1.91a15 15 0 0 1-.05 1.68 4.7 4.7 0 0 0 1.93 4.24c2.43 1.71 4.76.2 6.95-1.06l6.45-3.75a146 146 0 0 1 16.04-8.46 2.4 2.4 0 0 0 .86-3.28 2.46 2.46 0 0 0-3.28-.86 135 135 0 0 0-14.37 7.49l-6.85 3.98-2.84 1.64-.49.27c-.42.32-.17.04.14.06.44.04.21.6.28-.42.17-2.65-.17-6.15-2.73-7.61-2.49-1.43-5 .5-7.05 1.83a101 101 0 0 0-12.54 9.88 167 167 0 0 0-12.52 12.48c-2.06 2.3 1.32 5.7 3.4 3.4m-2.91 101.95c9.59 9.88 23.5 15.55 36.9 17.74a79 79 0 0 0 44.78-5.7 57 57 0 0 0 17.82-12.04c2.15-2.22-1.24-5.61-3.4-3.4-8.78 9.07-21.36 14.15-33.6 16.33a73.5 73.5 0 0 1-42.22-5.05 53 53 0 0 1-16.89-11.27c-2.15-2.22-5.54 1.17-3.4 3.4" class="c"/><path d="M89.62 222.4a77 77 0 0 1-13.17-4.79c1.76-7.2 4-18.44 5.8-26.06a22 22 0 0 1 1.84-5.13c-9.89-8.79-20.27-18.44-23.41-32.35-.77-3.39-2.73-31.76-2-37.71a10 10 0 0 1 1.15-3.45 5.6 5.6 0 0 1 4.14-2.4 4 4 0 0 1 3.57 1.28c1.02 1.02 1.85 3.73 2.2 5.13l.78 3.05a6 6 0 0 1 3.56 1.83c1.42 1.47 1.83 3.42 2.6 5.32 2.17 5.43 4.44 14.17 7.27 20.17a12 12 0 0 0 2.35 3.37 72 72 0 0 0 16.25 12.5c2.74 1.6 6.07 3.7 7.08 5.34 2.67 4.31 2.68 9.13 1.4 14.54-1.16 13.32-1.7 28.6-3.53 42.35a90 90 0 0 1-17.88-2.98" class="a"/><path d="M74.88 154.24a111 111 0 0 1-4.23-14.56c-.99-4.62-1.71-9.28-2.56-13.92-.28-1.48.3-3.61 2.2-3.41 2.17.23 3.02 2.52 3.65 4.27 1.6 4.43 3.07 8.88 4.6 13.34A97 97 0 0 0 81.2 147a19 19 0 0 0 4.33 6.26 79 79 0 0 0 10.95 8.95c2.04 1.36 4.17 2.57 6.26 3.84 1.75 1.07 4.06 2.36 5.02 4a13 13 0 0 1 1.69 6.3c.05 2.72-.71 5.3-.94 8-1.06 12.73-1.56 25.5-3.06 38.2a2.4 2.4 0 0 0 2.4 2.4 2.46 2.46 0 0 0 2.4-2.4c1.43-12.11 1.96-24.3 2.92-36.45.23-2.87.95-5.67 1.06-8.55a18.6 18.6 0 0 0-1.44-8.13c-2.14-4.96-7.22-7.17-11.58-9.87a71 71 0 0 1-11.68-9.1 20 20 0 0 1-2.49-2.58 17 17 0 0 1-1.75-3.41c-1-2.4-1.84-4.87-2.66-7.33-.83-2.49-1.61-4.99-2.47-7.46a67 67 0 0 0-2.7-7.12c-2.46-5.1-9.73-7.11-13.11-1.77a7.6 7.6 0 0 0-1.2 4.35 45 45 0 0 0 .82 4.8c.48 2.73.94 5.46 1.47 8.19a114 114 0 0 0 4.8 17.38 2.46 2.46 0 0 0 2.96 1.68 2.4 2.4 0 0 0 1.67-2.95Z" class="c"/><path d="M72.07 116.29c-1.03-3.98-3.17-8.69-8.1-8.18a8.2 8.2 0 0 0-6.03 3.3 12 12 0 0 0-1.72 5.46c-.43 5.08.01 10.32.28 15.4.3 5.9.68 11.8 1.26 17.68a39 39 0 0 0 .7 5.16 43 43 0 0 0 5.16 12.38c5.08 8.36 12.43 15 19.68 21.43 2.3 2.04 5.71-1.34 3.4-3.4-5.81-5.15-11.76-10.37-16.38-16.65a44 44 0 0 1-5.71-10.13 34 34 0 0 1-1.63-5.4q-.07-.32-.11-.64c-.04-.2-.1-.74 0 .07l-.07-.54c-.57-4.8-.88-9.64-1.18-14.47-.35-5.54-.67-11.1-.7-16.67q-.02-1.62.04-3.24l.08-1.16a8 8 0 0 1 .67-2.2c.6-1.2 2.52-2.16 3.75-1.33 1.17.8 1.6 2.98 1.97 4.4.77 3 5.4 1.73 4.63-1.27Z" class="c"/><path d="M79.06 217.01c1.19-5.01 2.24-10.05 3.33-15.09q.8-3.73 1.64-7.45a28 28 0 0 1 2.03-6.63c1.4-2.74-2.73-5.18-4.15-2.43-2.32 4.51-3 9.92-4.06 14.82-1.12 5.18-2.2 10.36-3.42 15.5-.7 3 3.92 4.3 4.63 1.28" class="c"/><path d="M72.78 218.4a72 72 0 0 0 16.56 6.41 90 90 0 0 0 20.55 3.08c3.09.09 3.09-4.71 0-4.8a84 84 0 0 1-19.28-2.9 67 67 0 0 1-15.41-5.93c-2.7-1.51-5.12 2.63-2.42 4.14" class="c"/><path d="M107.57 224.86c-.92 6.34-1.87 12.69-2.75 19.04a2.5 2.5 0 0 0 1.68 2.96 2.4 2.4 0 0 0 2.95-1.68c.87-6.36 1.83-12.7 2.75-19.05a2.5 2.5 0 0 0-1.67-2.95 2.4 2.4 0 0 0-2.96 1.68" class="c"/><path d="M236.81 86.75a.8.8 0 0 1-1.55.02c-.87-3.37-2.23-7.4-4.3-9.8-2.51-2.94-6.15-4.19-9.53-4.9a.8.8 0 0 1 0-1.57c3.34-.7 7.03-1.95 9.47-4.6 2.34-2.51 3.65-7.57 4.39-11a.8.8 0 0 1 1.55-.03c.83 3.44 2.29 8.51 4.62 11.03 2.43 2.62 5.93 3.87 9.17 4.58a.8.8 0 0 1-.02 1.56c-3.45.7-7.24 1.88-9.76 4.8-2.06 2.41-3.24 6.5-4.04 9.91m-216.7 97.38a.88.88 0 0 1-1.72.02c-.97-3.74-2.47-8.2-4.76-10.87-2.79-3.25-6.82-4.63-10.56-5.43a.88.88 0 0 1 0-1.73c3.7-.78 7.78-2.16 10.5-5.09 2.58-2.79 4.04-8.4 4.85-12.2a.88.88 0 0 1 1.73-.02c.9 3.8 2.52 9.43 5.11 12.22 2.69 2.9 6.57 4.28 10.16 5.07a.88.88 0 0 1-.02 1.73c-3.83.77-8.03 2.08-10.82 5.33-2.28 2.66-3.6 7.2-4.47 10.97" style="fill:#ffda71"/><path d="m234.5 86.11-.1.25.62-1.06q2.98 1.72 2.36.1l-.2-.75q-.23-.77-.48-1.52a38 38 0 0 0-1.22-3.21 17 17 0 0 0-3.08-4.96 15 15 0 0 0-4.84-3.43 24 24 0 0 0-3.02-1.16c-.89-.27-1.85-.4-2.71-.72l1.05.61v2.03l-1.06.62c.95-.36 2-.5 2.98-.8a25 25 0 0 0 3.27-1.28 14 14 0 0 0 5.3-4.19 20 20 0 0 0 2.7-5.44c.67-1.93.9-4.03 1.63-5.92l-.62 1.06-2.03-.02-.62-1.06c.72 1.77 1 3.76 1.64 5.57a22 22 0 0 0 2.82 5.68 14.4 14.4 0 0 0 5.11 4.21 24 24 0 0 0 3.08 1.28c1.03.35 2.15.5 3.16.9l-1.06-.63v-2.02l1.05-.62c-.89.33-1.87.44-2.79.7a25 25 0 0 0-3.1 1.13 15 15 0 0 0-4.92 3.4c-2.81 3.05-4 7.31-4.92 11.26-.7 3 3.92 4.28 4.63 1.27.78-3.34 1.64-7.26 4.24-9.7a12 12 0 0 1 4.44-2.45c1.71-.57 4.26-.58 5.32-2.23a3.24 3.24 0 0 0-2.04-4.88 24 24 0 0 1-5-1.73 9.4 9.4 0 0 1-3.61-3.11 20 20 0 0 1-2.08-4.63 39 39 0 0 0-1.45-4.95 3.2 3.2 0 0 0-5.26-.76c-1.12 1.23-1.22 3.63-1.67 5.19a22 22 0 0 1-1.86 4.71c-1.72 3-5.07 4.3-8.27 5.09a5 5 0 0 0-2.49 1.04 3.2 3.2 0 0 0-.9 3.05c.56 2.22 2.75 2.38 4.6 2.92a13 13 0 0 1 5.07 2.59 12.5 12.5 0 0 1 3.08 4.6 32 32 0 0 1 1.07 3.03 11 11 0 0 0 1.16 3.3 3.1 3.1 0 0 0 3 1.25 3.3 3.3 0 0 0 2.65-2.33 2.4 2.4 0 0 0-1.67-2.95 2.46 2.46 0 0 0-2.96 1.67M17.8 183.5v-.14l.86-.86a2 2 0 0 1 1.53.2l.62 1.06c-.83-2.02-1.23-4.23-2.07-6.27a21 21 0 0 0-3.55-6.05 16 16 0 0 0-5.44-3.93 27 27 0 0 0-3.2-1.23q-.71-.22-1.43-.4l-.88-.21c-.17-.04-.59-.26-.4-.12l.86.86a2.3 2.3 0 0 1 0 1.17l-.86.86c-.25.19.25-.07.41-.1l.9-.22q.84-.21 1.65-.47a28 28 0 0 0 3.45-1.35 15.5 15.5 0 0 0 5.8-4.51 22 22 0 0 0 3.05-6.18q.54-1.58.95-3.18.22-.85.41-1.7l.15-.63.1-.47q.05-.29.03-.02l-.87.86a2 2 0 0 1-1.51-.2l-.62-1.06c.78 1.99 1.1 4.19 1.83 6.2a24 24 0 0 0 3.03 6.13 16 16 0 0 0 5.5 4.56 25 25 0 0 0 3.6 1.49q.81.27 1.64.49.36.1.73.18c.17.04.75.29.59.16l-.86-.86a2.3 2.3 0 0 1-.01-1.17l.86-.86c.19-.13-.08.04-.24.07q-.36.06-.72.15-.83.2-1.65.42a27 27 0 0 0-3.29 1.18 16 16 0 0 0-5.59 3.82c-3.07 3.34-4.35 8.02-5.36 12.33-.7 3 3.92 4.29 4.63 1.28.87-3.7 1.82-8.05 4.68-10.78a13 13 0 0 1 4.93-2.8c1.84-.63 4.74-.64 5.9-2.38 1.4-2.11.05-4.52-2.24-5.1a24 24 0 0 1-5.52-1.94 10.5 10.5 0 0 1-4-3.46 22 22 0 0 1-2.23-4.89c-.6-1.76-.94-3.6-1.53-5.37a3.3 3.3 0 0 0-5.65-1.12 5.5 5.5 0 0 0-.94 2.52 58 58 0 0 1-.75 2.92 25 25 0 0 1-2.02 5.2c-1.82 3.31-5.3 4.88-8.81 5.8a9 9 0 0 0-2.83.92A3.2 3.2 0 0 0 0 167.2c.14 2.73 2.86 2.97 4.91 3.58a15 15 0 0 1 5.63 2.8 14 14 0 0 1 3.66 5.38q.64 1.57 1.14 3.2a22 22 0 0 0 .96 3.14 3.3 3.3 0 0 0 3.07 1.88 3.4 3.4 0 0 0 3.05-2.43 2.4 2.4 0 0 0-1.67-2.95 2.46 2.46 0 0 0-2.96 1.68" class="c"/></svg>
