<svg xmlns="http://www.w3.org/2000/svg" fill="none" viewBox="0 0 24 24"><path fill="currentColor" d="M13 11a1 1 0 1 1-2 0 1 1 0 0 1 2 0m0-6a1 1 0 1 1-2 0 1 1 0 0 1 2 0m0 12a1 1 0 1 1-2 0 1 1 0 0 1 2 0"/><path fill="currentColor" fill-rule="evenodd" d="M9.94 1.25h4.12c1.83 0 3.29 0 4.43.15 1.17.16 2.12.5 2.87 1.24.75.75 1.08 1.7 1.24 2.87a21 21 0 0 1 .14 2.6l.01 1.83v3.96l-.01.23q-.02 1.35-.14 2.36a4.7 4.7 0 0 1-1.24 2.87q-.7.68-1.63.97l.02.17V22a.75.75 0 0 1-1.5 0v-1.37c-1.1.12-2.48.12-4.2.12h-4.1c-1.72 0-3.1 0-4.2-.12V22a.75.75 0 0 1-1.5 0v-1.5q0-.1.02-.17-.93-.28-1.63-.97a4.7 4.7 0 0 1-1.24-2.87 21 21 0 0 1-.14-2.6l-.01-1.83V9.94l.01-2.07q.02-1.35.14-2.36a4.7 4.7 0 0 1 1.24-2.87A4.7 4.7 0 0 1 5.51 1.4c1.14-.15 2.6-.15 4.43-.15m-7.19 7.5v4.5h18.5v-4.5zm18.47-1.5H2.78q.02-.88.11-1.54c.14-1 .39-1.58.81-2 .43-.43 1-.68 2.01-.82A36 36 0 0 1 10 2.75h4a36 36 0 0 1 4.29.14c1 .14 1.58.39 2 .81.43.43.69 1 .82 2.01q.1.67.11 1.54m0 7.5H2.78q.02.88.11 1.54c.14 1 .39 1.58.81 2 .43.43 1 .69 2.01.82 1.03.14 2.38.14 4.29.14h4c1.9 0 3.26 0 4.29-.14 1-.13 1.58-.39 2-.81.43-.43.69-1 .82-2.01q.1-.67.11-1.54" clip-rule="evenodd"/></svg>
