<svg xmlns="http://www.w3.org/2000/svg" fill="none" viewBox="0 0 11 11"><g clip-path="url(#clip0_3689_32425)"><path fill="none" stroke="currentColor" stroke-linecap="round" stroke-linejoin="round" d="M4.29 9.63a1.83 1.83 0 0 0 2.42 0m1.54-5.96a2.75 2.75 0 1 0-5.5 0c0 1.41-.36 2.38-.76 3.02-.33.55-.5.82-.5.9.01.08.03.1.1.16q.07.05.88.04h6.06q.8.01.88-.04c.07-.05.09-.08.1-.17 0-.07-.17-.34-.5-.89a5.6 5.6 0 0 1-.76-3.02"/></g><defs><clipPath id="clip0_3689_32425"><path fill="currentColor" d="M0 0h11v11H0z"/></clipPath></defs></svg>
