<svg xmlns="http://www.w3.org/2000/svg" fill="none" viewBox="0 0 24 24"><path stroke="currentColor" stroke-width="2" d="M15 10a3 3 0 1 1-6 0 3 3 0 0 1 6 0Z"/><path stroke="currentColor" stroke-linecap="round" stroke-width="2" d="M6.9 17.32C7.82 16.34 9.4 16 12 16c2.62 0 4.21.32 5.14 1.32"/><path stroke="currentColor" stroke-linecap="round" stroke-linejoin="round" stroke-width="2" d="M16.28 5c.86.33 1.9.58 2.72.75a2 2 0 0 1 1.66 1.76c.41 6-2.09 10.55-7.92 13.17-.47.22-1.01.22-1.48 0-5.83-2.62-8.33-7.17-7.92-13.15A2 2 0 0 1 5 5.76c.9-.16 2-.42 2.89-.76 1.43-.56 3.2-1.5 3.85-1.86a.5.5 0 0 1 .5 0h.02c.7.35 2.58 1.3 4.01 1.86"/></svg>
