<svg xmlns="http://www.w3.org/2000/svg" fill="none" viewBox="0 0 24 24"><path fill="currentColor" fill-rule="evenodd" d="M15 2.75a1.25 1.25 0 1 0 0 2.5 1.25 1.25 0 0 0 0-2.5M12.25 4a2.75 2.75 0 1 1 5.5 0 2.75 2.75 0 0 1-5.5 0m-.09 3.11.04.04.57.57c.91.9 1.23 1.2 1.6 1.36.39.16.82.17 2.1.17h2.03a.75.75 0 0 1 0 1.5h-2.17c-1.08 0-1.83 0-2.52-.28a7 7 0 0 1-2-1.58l-.1-.1-.57-.58c-.41-.4-.66-.65-.86-.8l-.19-.1-.16.13c-.17.19-.37.47-.7.95L8 10.15a10 10 0 0 0-.65 1.01l-.07.2v.01q.03.04.17.13c.22.13.54.28 1.08.51l1.52.66q.98.42 1.61.77c.45.26.83.57 1.08 1.04.25.46.31.95.29 1.46q-.04.73-.23 1.78l-.06.4a.75.75 0 1 1-1.48-.24l.06-.36c.12-.75.2-1.25.21-1.64.02-.36-.03-.55-.1-.68-.08-.14-.2-.28-.53-.46-.33-.2-.8-.4-1.5-.7l-1.51-.67q-.74-.3-1.23-.6a1.7 1.7 0 0 1-.83-1c-.14-.48 0-.91.18-1.28q.28-.5.73-1.15l.03-.04L8 7.53l.03-.04q.43-.65.8-1.07c.28-.3.63-.57 1.13-.61s.9.16 1.22.4c.3.22.62.55.98.9M6 15.75a2.25 2.25 0 1 0 0 4.5 2.25 2.25 0 0 0 0-4.5M2.25 18a3.75 3.75 0 1 1 7.5 0 3.75 3.75 0 0 1-7.5 0M18 15.75a2.25 2.25 0 1 0 0 4.5 2.25 2.25 0 0 0 0-4.5M14.25 18a3.75 3.75 0 1 1 7.5 0 3.75 3.75 0 0 1-7.5 0" clip-rule="evenodd"/></svg>
