<svg xmlns="http://www.w3.org/2000/svg" fill="none" viewBox="0 0 24 24"><path stroke="currentColor" stroke-linecap="round" stroke-linejoin="round" stroke-width="1.5" d="M4.47 11.42 2.73 9.68 1 11.42m18.53 1.16 1.74 1.74 1.74-1.74"/><path stroke="currentColor" stroke-linecap="round" stroke-linejoin="round" stroke-width="1.5" d="M21.26 14.32V12A9.26 9.26 0 0 0 4.77 6.21M2.74 9.68V12a9.26 9.26 0 0 0 16.49 5.79"/><path stroke="currentColor" stroke-linecap="round" stroke-linejoin="round" stroke-miterlimit="10" stroke-width="1.5" d="M9 8.5h4.38c.97 0 1.75.88 1.75 1.75 0 .97-.78 1.75-1.75 1.75H9zM9 12h5c1.1 0 2 .78 2 1.75s-.9 1.75-2 1.75H9zm2.8 3.5v1.75m0-10.5V8.5"/></svg>
