<svg xmlns="http://www.w3.org/2000/svg" fill="none" viewBox="0 0 24 24"><path fill="currentColor" fill-rule="evenodd" d="M10.01 13.9a5 5 0 0 1-1.08-1.45 8 8 0 0 1-.59-4.56C8.8 4.7 11 1.25 15.31 1.25a.75.75 0 0 1 0 1.5c-3.28 0-5.09 2.56-5.48 5.36q-.16 1.16 0 2.2l.27-.3a5 5 0 0 1 1.45-1.08 8 8 0 0 1 4.56-.59c3.2.46 6.64 2.66 6.64 6.97a.75.75 0 0 1-1.5 0c0-3.28-2.56-5.09-5.36-5.48q-1.03-.14-1.99-.03a4.3 4.3 0 0 1 1.48 1.75c.63 1.29.82 2.94.59 4.56-.46 3.2-2.65 6.64-6.97 6.64a.75.75 0 0 1 0-1.5c3.28 0 5.09-2.56 5.48-5.36.12-.85.1-1.69-.04-2.43-.4.86-1.12 1.5-1.99 1.92a8 8 0 0 1-4.56.59C4.7 15.5 1.25 13.32 1.25 9a.75.75 0 0 1 1.5 0c0 3.28 2.56 5.09 5.36 5.48.9.13 1.8.1 2.57-.07q-.37-.2-.67-.5m2.12-.66q-.6-.04-1.08-.42a1.3 1.3 0 0 1-.3-.69q.06-.6.43-1.08a1.25 1.25 0 0 1 2.07.95c0 .65-.49 1.18-1.12 1.24" clip-rule="evenodd"/></svg>
