<svg xmlns="http://www.w3.org/2000/svg" fill="none" viewBox="0 0 24 24"><circle fill="none" cx="12" cy="12" r="2" stroke="currentColor" stroke-width="1.5"/><path fill="currentColor" fill-rule="evenodd" d="M7.85 2.17c.29.29.29.76 0 1.06a6 6 0 0 0-.62.72A.75.75 0 0 1 6 3.08q.33-.48.78-.91c.29-.3.76-.3 1.06 0m10.67 4.11a5 5 0 0 0-1.86-.1.75.75 0 1 1-.18-1.5q1.2-.16 2.41.15a.75.75 0 1 1-.37 1.45M5.9 4.72c.4.1.65.51.55.91a5 5 0 0 0-.11 1.86.75.75 0 1 1-1.49.18q-.15-1.2.14-2.4c.1-.4.51-.65.91-.55m9.3.98c.17.38 0 .82-.38 1q-.9.39-1.68 1a.75.75 0 0 1-.92-1.18q.91-.72 2-1.2c.38-.17.82 0 .99.38m4.84.32a.75.75 0 0 1 1.05-.17q.47.35.9.78a.75.75 0 1 1-1.05 1.06 6 6 0 0 0-.73-.62.75.75 0 0 1-.17-1.05m-8.41 2.02c.33.24.4.72.14 1.05l-.18.26a.75.75 0 0 1 .23 1.43q-.34.14-.65.45a.75.75 0 0 1-1 .05.75.75 0 0 1-.7-.95 7 7 0 0 1 1.1-2.15.75.75 0 0 1 1.06-.14m-5.76.92c.38-.17.82 0 .99.38q.4.9 1 1.68a.75.75 0 0 1-1.17.93 9 9 0 0 1-1.2-2 .75.75 0 0 1 .38-1m7.04.86c.11-.4.53-.63.93-.52q1.12.34 2.14 1.11a.75.75 0 0 1-.9 1.2l-.26-.19a.75.75 0 0 1-1.44.23q-.15-.33-.44-.64a.75.75 0 0 1-.06-1zm3.68 2.1c.33-.25.8-.2 1.06.13q.71.91 1.2 2a.75.75 0 0 1-1.37.6q-.4-.9-1.01-1.67a.75.75 0 0 1 .12-1.05m-6.62.03c.38-.16.82.02.98.4q.14.33.44.64c.27.28.3.7.06 1a.75.75 0 0 1-.95.7 7 7 0 0 1-2.15-1.1.75.75 0 0 1 .9-1.2l.26.19a.8.8 0 0 1 .46-.63m4.19.77a.75.75 0 0 0-1 .05q-.3.3-.65.44a.75.75 0 0 0 .23 1.44l-.18.26a.75.75 0 0 0 1.2.9q.77-1.01 1.1-2.14a.75.75 0 0 0-.7-.95m4.49 2.95c.41-.05.78.25.83.66q.16 1.2-.14 2.4a.75.75 0 0 1-1.46-.36q.23-.92.11-1.86a.75.75 0 0 1 .66-.84m-16.32.64c.3-.3.77-.3 1.06 0q.36.36.73.62a.75.75 0 1 1-.87 1.22 7 7 0 0 1-.92-.78.75.75 0 0 1 0-1.06m9.91.12c.26.32.2.8-.13 1.05q-.91.72-2 1.2a.75.75 0 0 1-.6-1.37q.9-.4 1.68-1.01c.32-.26.8-.2 1.05.13M4.9 18.26c.1-.4.5-.64.9-.54q.93.22 1.87.1a.75.75 0 0 1 .18 1.5q-1.2.14-2.4-.15a.75.75 0 0 1-.55-.9m13.25 1.61c.34.25.42.71.17 1.05a7 7 0 0 1-.77.91.75.75 0 0 1-1.06-1.06q.35-.36.62-.73a.75.75 0 0 1 1.04-.17" clip-rule="evenodd"/><path fill="currentColor" fill-rule="evenodd" d="M10.73 12.5q.63.74 1.58.75.24 0 .41.12.53-.57.53-1.37 0-.36.27-.57a2 2 0 0 0-1.52-.68 1 1 0 0 1-.4-.11q-.84.66-.85 1.67 0 .1-.02.19m-.9-2.15a8 8 0 0 1 0-2.24c.4-2.8 2.2-5.36 5.48-5.36a.75.75 0 0 0 0-1.5C11 1.25 8.8 4.69 8.34 7.89a8 8 0 0 0 .59 4.56 4 4 0 0 0 1.82 1.95c-.79.18-1.7.22-2.64.08-2.8-.4-5.36-2.2-5.36-5.48a.75.75 0 0 0-1.5 0c0 4.32 3.44 6.51 6.64 6.97 1.62.23 3.27.04 4.56-.59a4 4 0 0 0 2-1.92c.13.74.15 1.58.03 2.43-.4 2.8-2.2 5.36-5.48 5.36a.75.75 0 0 0 0 1.5c4.32 0 6.51-3.44 6.97-6.64a8 8 0 0 0-.59-4.56A4.3 4.3 0 0 0 13.9 9.8q.95-.11 2 .03c2.79.4 5.35 2.2 5.35 5.48a.75.75 0 0 0 1.5 0c0-4.31-3.44-6.51-6.64-6.97a8 8 0 0 0-4.56.59c-.7.33-1.3.81-1.71 1.42" clip-rule="evenodd"/></svg>
