<svg xmlns="http://www.w3.org/2000/svg" fill="currentColor" viewBox="0 0 32 32"><path d="M8.07 30.75h15.14c.41 0 .75-.34.75-.75v-5.33a.7.7 0 0 0-.25-.56l-1.95-1.72v-3.24l4.26-2.6a.8.8 0 0 0 .36-.64V8.92c0-.32-.2-.6-.5-.71l-4.12-1.46v-.97a.76.76 0 0 0-.75-.75h-1.8V2a.76.76 0 0 0-.75-.75h-5.65a.76.76 0 0 0-.75.75v3.03h-1.77a.76.76 0 0 0-.75.75v16.61l-1.95 1.72a.8.8 0 0 0-.25.56V30c0 .41.34.75.75.75Zm13.68-20.03.96.29v3.1l-.96.57zm3.12-1.27v6.03l-3.12 1.91v-.97l2.09-1.25a.8.8 0 0 0 .37-.64v-4.08a.8.8 0 0 0-.54-.72l-1.92-.57v-.81zm-11.32-6.7h4.15v2.28h-4.15zm-2.52 3.78h9.22v2.39h-1.94c-.41 0-.75.34-.75.75s.34.75.75.75h1.94v2.93h-1.94c-.41 0-.75.34-.75.75s.34.75.75.75h1.94v2.93h-1.94c-.41 0-.75.34-.75.75s.34.75.75.75h1.94v2.71h-9.22zM8.82 25.01l1.74-1.53h10.15l1.74 1.53v4.24H8.82z"/></svg>
