<svg xmlns="http://www.w3.org/2000/svg" fill="currentColor" viewBox="0 0 512 512"><path d="M93.24 220.97H265.7a8.08 8.08 0 1 0 0-16.17H93.24a8.08 8.08 0 1 0 0 16.17m0-43.12h97a8.08 8.08 0 1 0 0-16.16h-97a8.08 8.08 0 1 0 0 16.16m21.56 220.43h280.25a29.7 29.7 0 0 0 29.64-29.64v-91.08a29.6 29.6 0 0 0-3.97-14.82 8.08 8.08 0 1 0-14 8.09 13.5 13.5 0 0 1 1.8 6.73v91.08c0 7.43-6.04 13.48-13.47 13.48H114.8a13.5 13.5 0 0 1-13.48-13.48v-91.08c0-7.43 6.05-13.47 13.48-13.47h150.9a8.08 8.08 0 1 0 0-16.17H114.8a29.7 29.7 0 0 0-29.65 29.64v91.08a29.7 29.7 0 0 0 29.65 29.64"/><path d="M477.07 412.24a51 51 0 0 0 2.6-16.11V158.99a51.26 51.26 0 0 0-51.2-51.2h-45.82V29.64A29.7 29.7 0 0 0 353.01 0h-21.56a29.7 29.7 0 0 0-29.64 29.64v78.15H83.54a51.26 51.26 0 0 0-51.2 51.2v237.14a51 51 0 0 0 2.6 16.1A51.1 51.1 0 0 0 0 460.8 51.26 51.26 0 0 0 51.2 512h409.6a51.26 51.26 0 0 0 51.2-51.2 51.1 51.1 0 0 0-34.93-48.56m-159.1-382.6c0-7.43 6.05-13.47 13.48-13.47h21.56c7.43 0 13.47 6.04 13.47 13.47v13.48h-48.5zm48.51 29.64v188.64h-16.16V59.28zm-48.5 0h16.17v188.64h-16.17zm0 204.8h48.5v20.66a2.7 2.7 0 0 1-.54 1.62L344.4 315.1a2.6 2.6 0 0 1-2.16 1.08c-.5 0-1.45-.14-2.16-1.08l-21.55-28.74a2.7 2.7 0 0 1-.54-1.62zM48.5 158.98a35.07 35.07 0 0 1 35.04-35.02H301.8v37.72h-57.67a8.08 8.08 0 1 0 0 16.17h57.67v106.9a19 19 0 0 0 3.77 11.31l21.56 28.74a18.7 18.7 0 0 0 15.1 7.55c5.99 0 11.49-2.75 15.08-7.55l21.56-28.74a19 19 0 0 0 3.78-11.32v-63.77h33.95a8.08 8.08 0 1 0 0-16.17h-33.95v-26.95h33.95a8.08 8.08 0 1 0 0-16.17h-33.95v-37.72h45.8a35.07 35.07 0 0 1 35.04 35.03v237.14a35.07 35.07 0 0 1-35.03 35.03H83.54a35.07 35.07 0 0 1-35.03-35.03zm412.3 336.85H51.2a35.07 35.07 0 0 1-35.03-35.03 35 35 0 0 1 26.42-33.96 51.2 51.2 0 0 0 40.95 20.49h344.92c16.72 0 31.6-8.06 40.95-20.5a35 35 0 0 1 26.42 33.97 35.07 35.07 0 0 1-35.03 35.03"/><path d="M235.52 463.5h-1.08a8.08 8.08 0 1 0 0 16.16h1.08a8.08 8.08 0 1 0 0-16.17m198.33 0H272.17a8.08 8.08 0 1 0 0 16.16h161.68a8.08 8.08 0 1 0 0-16.17m-231.75 0h-1.07a8.08 8.08 0 1 0 0 16.16h1.07a8.08 8.08 0 1 0 0-16.17m-37.72 0H78.15a8.08 8.08 0 1 0 0 16.16h86.23a8.08 8.08 0 1 0 0-16.17"/></svg>
