<svg xmlns="http://www.w3.org/2000/svg" fill="currentColor" viewBox="0 0 32 32"><path d="M18 32H3.24a1 1 0 0 1-1-1V1a1 1 0 0 1 1-1h17.41A7 7 0 0 1 24 .79a8 8 0 0 1 2.46 2A9 9 0 0 1 28 5.55a9 9 0 0 1 .54 3.14 9 9 0 0 1-1.2 4.53 8 8 0 0 1-1.9 2.22 9 9 0 0 1 2.56 2.2 9 9 0 0 1 1.72 5.67 7.5 7.5 0 0 1-3.6 6.69 12 12 0 0 1-3.75 1.5A20 20 0 0 1 18 32M4.24 30H18a18 18 0 0 0 3.94-.42 10 10 0 0 0 3.13-1.24 5.6 5.6 0 0 0 2.7-5 7 7 0 0 0-1.28-4.43 7 7 0 0 0-3.58-2.3 1 1 0 0 1-.13-1.87 5.7 5.7 0 0 0 2.77-2.47 7 7 0 0 0 .95-3.55 7 7 0 0 0-.43-2.48 7 7 0 0 0-1.2-2.14A6 6 0 0 0 23 2.56 5 5 0 0 0 20.65 2H4.24ZM18 25.07h-6.52a1 1 0 0 1-1-1V19a1 1 0 0 1 1-1h6.8a2.9 2.9 0 0 1 2.3 1.12 3.8 3.8 0 0 1 .82 2.46 3.3 3.3 0 0 1-1 2.56 3.4 3.4 0 0 1-2.4.93m-5.51-2H18a1.5 1.5 0 0 0 1-.37 1.3 1.3 0 0 0 .38-1.08 2 2 0 0 0-.38-1.21.9.9 0 0 0-.74-.37h-5.8Zm4.62-9.45h-5.63a1 1 0 0 1-1-1V8a1 1 0 0 1 1-1h5.87a3 3 0 0 1 2.06.79 3.2 3.2 0 0 1 .93 2.5A3 3 0 0 1 19.2 13a3.7 3.7 0 0 1-2.1.62Zm-4.62-2h4.61a1.7 1.7 0 0 0 1-.3c.13-.08.26-.39.26-1a1.5 1.5 0 0 0-.26-1 1 1 0 0 0-.75-.32h-4.87Z"/></svg>
