<svg xmlns="http://www.w3.org/2000/svg" fill="none" viewBox="0 0 24 24"><path stroke="currentColor" stroke-linecap="round" stroke-width="1.5" d="M10 16h2"/><path fill="currentColor" d="M14 12.5c0 .83-.45 1.5-1 1.5s-1-.67-1-1.5.45-1.5 1-1.5 1 .67 1 1.5"/><ellipse cx="9" cy="12.5" fill="currentColor" rx="1" ry="1.5"/><path stroke="currentColor" stroke-linecap="round" stroke-width="1.5" d="m17 7-2 2"/><path fill="none" stroke="currentColor" stroke-width="1.5" d="M17.98 2.35a.56.56 0 0 1 1.04 0l.65 1.66q.1.23.32.32l1.66.65c.47.19.47.85 0 1.04l-1.66.65a.6.6 0 0 0-.32.32l-.65 1.66a.56.56 0 0 1-1.04 0l-.65-1.66a.6.6 0 0 0-.32-.32l-1.66-.65a.56.56 0 0 1 0-1.04l1.66-.65a.6.6 0 0 0 .32-.32z"/><path fill="none" stroke="currentColor" stroke-linecap="round" stroke-width="1.5" d="M5.75 8A7.5 7.5 0 1 1 3 10.75"/></svg>
