<svg xmlns="http://www.w3.org/2000/svg" fill="currentColor" viewBox="0 0 32 32"><path d="M29.75.05 16.53 3.63c-.33.09-1.06.09-1.4 0L2.25.06A1.76 1.76 0 0 0 0 1.76v24.3c0 1.01.76 1.97 1.73 2.24l12.88 3.57a5 5 0 0 0 2.45.01l13.23-3.58A2.4 2.4 0 0 0 32 26.07V1.75a1.77 1.77 0 0 0-2.26-1.7M15 29.9 2.22 26.37c-.1-.03-.23-.2-.23-.3v-24l12.6 3.48.4.09zm15.01-3.83c0 .1-.16.27-.26.3L17 29.82V5.57l.06-.01L30 2.06zm-9.95-14.62q.14 0 .27-.04l7-1.97a1 1 0 1 0-.54-1.93l-7 1.97a1 1 0 0 0 .27 1.97m0 6q.15 0 .28-.04l7-1.97a1 1 0 1 0-.55-1.93l-7 1.97a1 1 0 0 0 .27 1.97m0 6q.15 0 .28-.04l7-1.97a1 1 0 0 0-.55-1.93l-7 1.97a1 1 0 0 0 .27 1.97M12.33 9.48l-7-1.97a1 1 0 0 0-.54 1.93l7 1.97q.13.04.27.04a1 1 0 0 0 .27-1.97m0 6-7-1.97c-.52-.14-1.08.16-1.23.7s.16 1.08.7 1.23l6.99 1.97q.13.04.27.04a1 1 0 0 0 .27-1.97m0 6-7-1.97a1 1 0 0 0-.54 1.93l7 1.97q.13.04.27.04a1 1 0 0 0 .27-1.97"/></svg>
