<svg viewBox="0 0 32 32" fill="none" xmlns="http://www.w3.org/2000/svg"><path fill-rule="evenodd" clip-rule="evenodd" d="M26.6787 2.99999C27.5449 2.99435 28.3197 3.19677 29.0234 3.7998C29.7469 4.41974 30.0592 5.21754 30.2012 6.1289C30.3333 6.9776 30.3331 8.04649 30.333 9.3164L30.333 19.0644C30.333 20.2378 30.333 21.2007 30.25 21.9619C30.1643 22.7469 29.9782 23.4672 29.4941 24.0664C28.9903 24.69 28.2532 25.0181 27.4434 25.2588C26.6387 25.4979 25.5793 25.6997 24.2686 25.9492L24.2129 25.96C21.8891 26.4024 20.0967 27.1032 18.8223 27.791L18.7979 27.8037C18.1463 28.1553 17.6253 28.4372 17.2266 28.6289C17.0237 28.7265 16.8275 28.8126 16.6455 28.876C16.4749 28.9353 16.2472 29 16 29C15.7528 29 15.5251 28.9353 15.3545 28.876C15.1725 28.8126 14.9763 28.7265 14.7734 28.6289C14.3747 28.4372 13.8537 28.1553 13.2022 27.8037L13.1777 27.791C11.9033 27.1032 10.1109 26.4024 7.78711 25.96L7.73145 25.9492C6.42074 25.6997 5.36135 25.4979 4.55664 25.2588C3.74678 25.0181 3.00968 24.69 2.50586 24.0664C2.0218 23.4673 1.83566 22.7469 1.75 21.9619C1.66697 21.2007 1.66697 20.2378 1.667 19.0644L1.667 9.3164C1.66694 8.04649 1.66669 6.97761 1.79883 6.1289C1.94077 5.21754 2.25313 4.41974 2.97657 3.7998C3.6803 3.19678 4.45515 2.99435 5.32129 2.99999C6.09771 3.00508 7.02124 3.18148 8.07813 3.3828C8.10568 3.38805 8.1334 3.39315 8.16114 3.39843C11.9577 4.12129 14.5796 5.50837 16 6.65917C17.4204 5.50837 20.0423 4.12129 23.8389 3.39843L23.9219 3.3828C24.9788 3.18148 25.9023 3.00508 26.6787 2.99999ZM5.3086 4.99999C4.80613 4.9967 4.53557 5.0989 4.27832 5.31933C4.04103 5.52276 3.87273 5.80534 3.77442 6.43652C3.66903 7.11339 3.667 8.02477 3.667 9.39452L3.667 19.0068C3.667 20.2525 3.66849 21.1053 3.73828 21.7451C3.80685 22.3733 3.92892 22.6454 4.06153 22.8096C4.1745 22.9494 4.42471 23.1331 5.12696 23.3418C5.823 23.5486 6.78195 23.7325 8.16114 23.9951C10.6792 24.4745 12.6662 25.242 14.127 26.0303C14.4643 26.2123 14.7527 26.3672 15 26.498L15 8.43652C14.0439 7.56346 11.6818 6.10485 7.78711 5.36327C6.62216 5.14147 5.8805 5.00377 5.3086 4.99999ZM26.6914 4.99999C26.1195 5.00377 25.3778 5.14147 24.2129 5.36327C20.3182 6.10485 17.9561 7.56346 17 8.43652L17 26.498C17.2473 26.3672 17.5357 26.2123 17.873 26.0303C19.3338 25.242 21.3209 24.4745 23.8389 23.9951C25.2181 23.7325 26.177 23.5486 26.873 23.3418C27.5753 23.1331 27.8255 22.9494 27.9385 22.8096C28.0711 22.6454 28.1932 22.3733 28.2617 21.7451C28.3315 21.1053 28.333 20.2525 28.333 19.0068L28.333 9.39452C28.333 8.02477 28.331 7.11338 28.2256 6.43651C28.1273 5.80533 27.959 5.52276 27.7217 5.31933C27.4644 5.09889 27.1939 4.9967 26.6914 4.99999Z" fill="currentColor"/></svg>
