<svg xmlns="http://www.w3.org/2000/svg" viewBox="0 -0.46 321.395 321.395"><defs><style>.a{fill:#fff}.b{fill:#7abee6}.c{fill:#211715}.d{fill:#ffda71}</style></defs><path d="M304.42 238.9c-.02-11.95-.08-36.41-.08-45.1v-.36a93144 93144 0 0 1-171.9-99.24 61450 61450 0 0 1-130.4 75.22c0 10.14.08 40.18.07 49.09 33.15 19.2 119.96 69.37 173.33 100.06a65725 65725 0 0 0 128.97-74.45z" class="a"/><path d="M131.7 94.6A61237 61237 0 0 1 2.46 169.2a68976 68976 0 0 0 172.22 99.38c33.5-19.2 106.86-61.58 129.67-74.78v-.36a93144 93144 0 0 1-171.91-99.25Z" class="b"/><path d="m306.42 238.9-.05-24.2c-.01-7.08-.18-14.18-.02-21.26a2 2 0 0 0-1-1.73q-35.7-20.53-71.36-41.13-35.37-20.42-70.73-40.87l-29.83-17.25a2 2 0 0 0-2.01 0l-47.54 27.48q-27.84 16.08-55.7 32.14L1.04 167.69a2 2 0 0 0-.99 1.73q0 17.33.06 34.65v8.56a39 39 0 0 0 .05 6.14c.23 1.36 1.72 1.9 2.8 2.53l2.74 1.59 6.03 3.49 30.35 17.55 37.33 21.57q19.84 11.46 39.69 22.9 19.07 11.01 38.16 22c5.65 3.26 11.22 6.81 17.01 9.8 1.71.88 3.32-.56 4.78-1.4l4.2-2.41 8.84-5.1q19.7-11.33 39.36-22.7l39.5-22.8 32.33-18.7c1.15-.67 2.87-1.28 3.1-2.71a34 34 0 0 0 .04-5.49c0-2.57-4-2.57-4 0v5.22l.99-1.73-45.72 26.44-55.4 31.98-27.86 16.03h2.02Q140 295.88 103.6 274.85q-35.95-20.76-71.9-41.55L3.13 216.78l.99 1.72q-.01-19.96-.06-39.94v-9.14l-1 1.73q25.62-14.72 51.2-29.5 27.34-15.77 54.67-31.57l24.5-14.17h-2.02q29.6 17.13 59.2 34.23 37.08 21.42 74.17 42.81 19.27 11.12 38.56 22.22l-1-1.73c-.15 7.08.02 14.18.03 21.26l.05 24.2c0 2.57 4 2.58 4 0" class="c"/><path d="M173.07 268.44q0 20.74.07 41.48l.01 8.38c0 2.58 4 2.58 4 0q-.02-20.25-.07-40.5l-.01-9.36c0-2.57-4-2.58-4 0" class="c"/><path d="m3.43 172.07 24.23 14.02 34.08 19.7 38.7 22.35q19.04 10.99 38.09 21.96 16.1 9.28 32.23 18.53l3.3 1.9c2.24 1.29 4.26-2.17 2.02-3.45q-15.58-8.93-31.15-17.9-18.83-10.84-37.64-21.7l-38.91-22.46-34.94-20.2-25.72-14.9-2.27-1.3c-2.23-1.3-4.25 2.15-2.02 3.45m171.66 111.5q-13.44-7.71-26.86-15.45l-32.75-18.87-33.76-19.5-30.46-17.6-22.33-12.92-1.99-1.15c-2.23-1.3-4.25 2.16-2.02 3.45l21.02 12.17q14.86 8.6 29.73 17.18l33.58 19.4 33.14 19.1q13.9 8.01 27.82 16l2.86 1.64c2.24 1.29 4.26-2.17 2.02-3.45m-10.97 9.88q-13.02-7.47-26-15c-2.24-1.3-4.25 2.16-2.02 3.45q12.98 7.52 26 15c2.23 1.28 4.25-2.17 2.02-3.45" class="c"/><path d="m249.42 281.53-26.4 15.22c-6.58-3.77-18.23-10.5-26.94-15.52l26.43-15.22c8.93 5.16 20.66 11.93 26.91 15.52" class="d"/><path d="m196.08 283.23-1-.27q12.54 7.26 25.1 14.48a8 8 0 0 0 2.56 1.27c1 .14 1.93-.6 2.76-1.09l4.73-2.72 10.75-6.2 9.44-5.44a2.02 2.02 0 0 0 0-3.46q-13.47-7.73-26.91-15.51c-2.24-1.3-4.25 2.16-2.02 3.45q13.45 7.77 26.91 15.52v-3.46q-13.21 7.59-26.4 15.23h2.02l-13.2-7.6-7.4-4.27-3.67-2.12c-1.03-.6-2.46-1.8-3.68-1.8-2.57 0-2.58 4 0 4Z" class="c"/><path d="M286.81 226.56q-18.46 10.69-36.93 21.35-24.84 14.34-49.7 28.66l-25.72 14.78c-2.24 1.28-.22 4.74 2.02 3.46q23.76-13.6 47.45-27.31 23.48-13.54 46.95-27.1l17.95-10.4c2.23-1.29.21-4.74-2.02-3.45ZM175.9 270.18q26.07-14.94 52.09-29.97 28.06-16.19 56.11-32.4l21.25-12.29c2.22-1.29.21-4.75-2.02-3.45q-22.16 12.83-44.34 25.63-29.14 16.83-58.3 33.62-13.4 7.72-26.8 15.4c-2.24 1.29-.23 4.74 2.01 3.46" class="c"/><path d="M262.25 165.59c-.01-8.93-.06-27.18-.06-33.68v-.26a67988 67988 0 0 1-128.34-74.1c-23.3 13.48-70.2 40.58-97.33 56.17 0 7.56.05 29.99.05 36.64 24.75 14.33 89.55 51.79 129.4 74.7a45875 45875 0 0 0 96.29-55.58v-.34z" class="a"/><path d="M132.1 58.56a45575 45575 0 0 1-95.58 55.16c0 7.57.05 29.99.05 36.64 10.76 6.23 29.1 16.84 49.67 28.72-.02-9.13-.06-29.3-.06-36.98 41.83-24.17 77.07-44.54 96.95-56.05l-49.28-28.5Z" class="d"/><path d="M264.25 165.59c-.02-11.3-.3-22.64-.05-33.94a2 2 0 0 0-1-1.73q-26.64-15.33-53.26-30.7l-52.8-30.5-22.28-12.9a2 2 0 0 0-2.02 0L97.3 76.37 55.82 100.3 35.51 112a2 2 0 0 0-1 1.72q0 13.09.05 26.17v6.34c0 1.42-.3 3.28.08 4.66.4 1.48 3.19 2.51 4.45 3.24l4.6 2.67q25.28 14.63 50.58 29.23 29.01 16.76 58.04 33.49l6.62 3.8 3.05 1.76a25 25 0 0 0 3.2 1.8c1.33.52 2.56-.54 3.66-1.17l3.33-1.91 6.73-3.88q14.65-8.43 29.29-16.88 26.81-15.48 53.61-30.99c1.1-.63 2.35-1.12 2.45-2.57.09-1.28 0-2.6 0-3.9 0-2.57-4-2.58-4 0v3.9l.99-1.72-34.06 19.69q-20.71 11.97-41.45 23.92l-20.78 11.96h2.02q-27.17-15.62-54.32-31.3l-53.62-30.98q-10.73-6.2-21.45-12.42l.99 1.73q-.01-14.87-.05-29.73v-6.91l-1 1.72q19.15-11 38.28-22.04l40.71-23.51 18.35-10.61h-2.02l44.18 25.55q27.67 15.99 55.36 31.95l28.8 16.6-.98-1.73c-.25 11.3.03 22.64.05 33.94 0 2.57 4 2.58 4 0" class="c"/><path d="M163.68 187.64c0 8.47.06 16.93.06 25.4 0 2.57 4 2.57 4 0 0-8.47-.06-16.93-.06-25.4 0-2.57-4-2.57-4 0" class="c"/><path d="M167.08 186.4q-22.77-13.05-45.49-26.18-24.5-14.14-49-28.31-9.29-5.36-18.56-10.74c-2.23-1.29-4.25 2.17-2.02 3.46l38.72 22.4q25.45 14.7 50.91 29.37 11.7 6.74 23.42 13.46c2.24 1.28 4.25-2.17 2.02-3.45" class="c"/><path d="M166.56 189.38q16.45-9.43 32.88-18.92 17.65-10.18 35.29-20.38l13.5-7.81c2.24-1.29.23-4.75-2-3.45q-14 8.1-28 16.17-18.32 10.58-36.65 21.14l-17.04 9.8c-2.23 1.27-.22 4.73 2.02 3.45M87.3 143.76l43.9-25.37 35.66-20.62 15.25-8.82c2.22-1.29.21-4.75-2.02-3.45l-29.5 17.06-39.67 22.93-25.64 14.82c-2.22 1.28-.21 4.74 2.02 3.45" class="c"/><path d="M84.17 142.08q.05 17.02.07 34.03c0 2.57 4 2.58 4 0q-.02-17.01-.07-34.03c0-2.57-4-2.58-4 0" class="c"/><path d="M147.3 142.76a16 16 0 0 1-1.6 6.16c-1.99 3.9-5.82 6.57-9.85 8.27s-4.62 1.26-8.8 2.58c-3.25 1.02-6.65 2.5-8.05 5.8a19 19 0 0 0-1.03 5.23c-.3 6.75-.25 13.77-.33 20.71a2.3 2.3 0 0 1-1.57 2.19 32 32 0 0 1-14.65.78 3 3 0 0 1-1.3-.87 4 4 0 0 1-1.1-1.83c-.38-3.15-.56-6.2-.67-9.23-3.5.77-7.48 2.11-11.2 1.2-2.58-.62-5-2.6-5.4-5.22l-.33-2.17c-.57-10.62-1.15-9.29-1.73-19.9-.2-3.58-.35-7.34 1.29-10.53a18 18 0 0 1 5.66-5.9 69 69 0 0 1 14.46-8.11s39.52 9.47 46.2 10.84" class="b"/><path d="M139.22 146.32c2.3-1.3 5.26-2.74 8.12-4.45 4.75-2.84 9.26-6.43 10.2-11.25a20 20 0 0 0-.03-6.29c-.92-7.37-2.66-16.78-7.26-22.85-2.8-3.7-7.22-8.5-11.53-10.7 0 0-7.47-3.62-14.74-4.1-11.66-.76-17.63 4.21-17.63 4.21a35.3 35.3 0 0 0-13.2 20.8l-2.03 11.72-.74 4.23Zm-46.75 57.7a7.4 7.4 0 0 1 1.43-6.01 18 18 0 0 1 5.44-4.38c2.1 1.65 10.63 1.96 16.73.07a2 2 0 0 0 .59-.28l.12 1.15c.64 5.8-2.88 8.14-5.1 9.46a34 34 0 0 1-8.5 3.58 14 14 0 0 1-5.55.55A6.5 6.5 0 0 1 93 205.3a5 5 0 0 1-.53-1.28m-17.86-12.56a8 8 0 0 1 1.14-2.13 19 19 0 0 1 5.9-4.62 10 10 0 0 1 3.8-1.58 8 8 0 0 0 1.71.63c3.72.9 7.7-.43 11.2-1.2q.11 3.26.39 6.6l-1.57.26c.12 2.5-2.1 4.45-4.25 5.73a33 33 0 0 1-8.22 3.46 13 13 0 0 1-5.36.52 6.2 6.2 0 0 1-4.47-2.75 5.8 5.8 0 0 1-.27-4.92" class="a"/><path d="M114.78 194.58a7.2 7.2 0 0 1-2.6 6.74 28 28 0 0 1-9.54 4.36c-2.78.74-8.3 1.22-8.35-3.03-.04-3.8 3.88-6 6.71-7.68 2.22-1.3.2-4.77-2.02-3.45-3.35 1.98-6.7 4.2-8.12 8a7.65 7.65 0 0 0 3.41 9.61c3.84 2.01 8.38.94 12.24-.47a29 29 0 0 0 8.71-4.68 10.7 10.7 0 0 0 3.56-9.4 2.05 2.05 0 0 0-2-2 2 2 0 0 0-2 2" class="c"/><path d="M84.65 181.24a16 16 0 0 0-4.94 2.3 24 24 0 0 0-4.18 3.05c-2.47 2.34-4.08 6-3 9.4 1.16 3.58 4.92 5.33 8.48 5.23 3.84-.1 7.77-1.63 11.15-3.36 3.33-1.7 7.05-4.28 7.02-8.44-.01-2.57-4.01-2.58-4 0 .02 2.94-4.31 4.71-6.5 5.7a29 29 0 0 1-4.9 1.67 9 9 0 0 1-5.22.09c-2.89-1.08-2.81-4.23-1.17-6.42a13 13 0 0 1 3.73-3.09 15 15 0 0 1 4.6-2.27c2.52-.51 1.46-4.37-1.06-3.86Z" class="c"/><path d="M100.58 129.99a70 70 0 0 0-15.94 9.05 17.5 17.5 0 0 0-5.74 6.66 20 20 0 0 0-1.29 8.82c.15 4.31.56 8.6 1.08 12.88.47 3.87.45 7.81 1.14 11.65a8.6 8.6 0 0 0 5.24 6.1c3.36 1.44 7.06.9 10.51.12 2.51-.57 1.45-4.43-1.06-3.86-3.73.85-10.03 1.5-10.86-3.61-.55-3.38-.54-6.86-.96-10.29q-.66-5.38-.98-10.8a27 27 0 0 1 .25-7.65 11.4 11.4 0 0 1 4.13-6.09 60 60 0 0 1 15.54-9.12 2.07 2.07 0 0 0 1.4-2.46 2 2 0 0 0-2.46-1.4" class="c"/><path d="M100.16 149.28c-3.42 2.38-4.28 6.11-4.34 10.04-.07 3.98.14 7.96.27 11.94.16 5.22.14 10.45.49 15.66.16 2.41-.02 5.37 1.52 7.37 1.47 1.92 3.27 2.32 5.55 2.56a33 33 0 0 0 6.58-.02 26 26 0 0 0 6.69-1.32c2.6-1.01 2.72-3.52 2.74-5.94l.07-8.24q.02-4.08.15-8.16a21 21 0 0 1 .87-6.58c1.34-3.62 6.08-4.8 9.41-5.61 4.33-1.05 8.5-2.4 12.1-5.13a17.7 17.7 0 0 0 7.08-13.98c.1-2.58-3.9-2.57-4 0a13.5 13.5 0 0 1-5.2 10.6 24 24 0 0 1-9.67 4.33c-3.56.8-7.35 1.8-10.27 4.1-3.24 2.55-4.04 6.45-4.24 10.38-.27 4.95-.24 9.93-.27 14.9l-.03 3.64a7 7 0 0 1-.02 1.7c-.11.32-.06.2-.28.31a10 10 0 0 1-2.86.68 29 29 0 0 1-3.07.39 32 32 0 0 1-5.78-.05 5 5 0 0 1-1.83-.38c-.93-.55-.9-1.62-1-2.56-.46-4.7-.53-9.44-.63-14.16-.09-4.5-.32-8.98-.38-13.47-.02-1.7-.05-3.4.08-5.08l.04-.42c.04-.4-.03.12.01-.07a9 9 0 0 1 .43-1.56 5 5 0 0 1 1.8-2.42c2.1-1.46.1-4.93-2.01-3.45m5.18-60.11a37.6 37.6 0 0 0-14.11 21.99c-.54 2.5 3.32 3.58 3.85 1.06a33.4 33.4 0 0 1 12.28-19.6 2.07 2.07 0 0 0 .72-2.74 2 2 0 0 0-2.74-.71" class="c"/><path d="M93.07 131.91c-2.22-1.38-3.15-3.73-3.5-6.21-.42-2.8.06-6.34 4.12-7.36a5.8 5.8 0 0 1 4.22.8 7.9 7.9 0 0 1 3.9 7.68c-.28 3.3-3.4 6.33-6.68 5.85a5 5 0 0 1-2.06-.76" class="a"/><path d="M94.08 130.19a5 5 0 0 1-1.2-1.1c.18.23-.08-.12-.12-.17l-.27-.44-.2-.36s-.24-.57-.13-.29a11 11 0 0 1-.52-1.82l-.1-.53c-.03-.13-.08-.62-.02-.08l-.07-.76a11 11 0 0 1 .03-1.4c.03-.37 0 0 0 .07l.07-.39q.1-.41.24-.82c-.14.45.09-.16.16-.3s.48-.63.19-.3l.51-.53c.24-.21-.39.22.08-.05q.22-.16.46-.28l.42-.19a8 8 0 0 1 .9-.24c-.45.08.19.01.35.02l.5.03h-.02l.31.06a4 4 0 0 1 1.6.78c.03.01.3.22.1.06l.32.26a9 9 0 0 1 .78.77 5.4 5.4 0 0 1 1.26 2.53c0-.03.12.59.07.31s.04.36.03.33a9 9 0 0 1 .02.92q0 .27-.03.53c.01-.08.08-.34 0 .07a8 8 0 0 1-.28.98c-.2.6.1-.15-.07.18q-.14.28-.3.54a3 3 0 0 1-.47.66 7 7 0 0 1-.73.7c.22-.17-.04.03-.08.05l-.5.32a3.4 3.4 0 0 1-1.44.4 3 3 0 0 1-1.85-.53 2 2 0 0 0-2.02 3.45c3.7 2.2 8 .71 10.33-2.69a9.5 9.5 0 0 0-.04-10.19c-1.98-3.05-5.7-5.31-9.4-4.28a7.5 7.5 0 0 0-5.49 7.08c-.24 3.83 1.32 7.96 4.6 10.08a2 2 0 1 0 2.02-3.45Zm11.86-24.67v22.3c0 2.57 4 2.57 4 0v-22.3c0-2.57-4-2.58-4 0" class="c"/><path d="M107.24 131.6c-6.15 1.05-12.43 3.45-21.5 4.96 5.6 2.69 16.1 7.87 26.16 12.9 8.74-3.56 11.23-4.18 16.7-6.28-9.15-4.72-21.34-11.58-21.36-11.57" class="a"/><path d="M106.71 129.68c-7.25 1.25-14.23 3.72-21.5 4.95-1.66.28-1.97 2.93-.48 3.65q8.86 4.29 17.68 8.68l5.29 2.63q1.38.7 2.77 1.38a3.2 3.2 0 0 0 3.08-.03q4.14-1.67 8.33-3.2c2.42-.86 4.84-1.7 7.25-2.63 1.47-.56 2.13-2.8.47-3.65-4.73-2.45-9.42-5-14.1-7.56-2.4-1.33-4.77-2.83-7.25-4.02-2.3-1.11-4.34 2.34-2.02 3.46 2.48 1.19 4.85 2.69 7.26 4.01q7 3.87 14.1 7.56l.47-3.65c-5.55 2.12-11.17 4.03-16.69 6.27l1.54.2c-8.7-4.35-17.4-8.68-26.16-12.9l-.48 3.66c7.27-1.23 14.25-3.7 21.5-4.95a2 2 0 0 0 1.4-2.46 2.05 2.05 0 0 0-2.46-1.4" class="c"/><path d="M123.35 140.87c.59-4.78 5.59-8.76 12.01-6 .97 2.98 2.66 7.49 3.7 11.26l-2.64 2.13c-2.07 2.5-6.63 2.05-9.11.54a8.3 8.3 0 0 1-3.96-7.93" class="a"/><path d="M134.67 132.49a11 11 0 0 0-8.11.6 10 10 0 0 0-4.66 5.36c-1.98 5.2 1.15 11.05 6.24 12.92 3.12 1.14 7.38.98 9.7-1.7a2.05 2.05 0 0 0 0-2.83 2 2 0 0 0-2.83 0l-.3.32c-.07.08-.37.32-.06.08a5 5 0 0 1-.67.4c-.1.06-.45.17-.08.05l-.34.11a7 7 0 0 1-.88.2c.4-.06 0 0-.1 0l-.47.02-.84-.02c-.1 0-.51-.05-.12 0l-.37-.06a10 10 0 0 1-.98-.24q-.39-.11-.76-.25c.38.14-.27-.13-.37-.19a7 7 0 0 1-.67-.41c-.48-.34.16.14-.1-.09l-.41-.35q-.29-.26-.55-.54l-.23-.25s-.34-.42-.16-.18l-.13-.19-.17-.26a8 8 0 0 1-.42-.74l-.16-.35c.03.07.14.4.03.07l-.22-.7-.13-.57c-.01-.03-.08-.5-.03-.15.04.33-.01-.17-.02-.23a11 11 0 0 1 .03-1.33c-.03.45-.01.07.03-.16a8 8 0 0 1 .2-.8l.18-.52c.14-.43-.16.26 0 .03l.14-.31.3-.54c.08-.12.56-.77.2-.33a8 8 0 0 1 .86-.92c.07-.07.55-.47.33-.3-.26.2.12-.07.14-.09l.36-.23q.3-.19.63-.34c.02-.02.46-.2.15-.08-.28.12.19-.06.24-.08a8 8 0 0 1 .8-.23c.17-.04.86-.13.37-.08a13 13 0 0 1 1.78-.02c.08 0 .39.05-.03-.01a9 9 0 0 1 1.59.36 2 2 0 1 0 1.06-3.86Z" class="c"/><path d="M140.8 118.46c-.08-.53-.04-.23 0 .08a69 69 0 0 1 .18 3.03 71 71 0 0 1 .06 5.9c-.02.18-.03.9-.03.36 0 .53-.18 0 .08-.04-.28.05-.82.63-1.11.86-2.02 1.63-3.97 3.32-5.98 4.94a2 2 0 0 0-.52 1.94c1.25 3.8 2.66 7.53 3.72 11.38a2.02 2.02 0 0 0 2.94 1.2c8.29-4.64 19.88-9.37 19.63-20.62a65 65 0 0 0-2.32-14.64 35 35 0 0 0-5.68-12.65c-3.28-4.3-7.19-8.6-12.03-11.15-2.28-1.2-4.3 2.25-2.02 3.46 3.86 2.04 7.02 5.32 9.76 8.66a30.5 30.5 0 0 1 5.58 10.83 75 75 0 0 1 2.48 12.58c.29 2.38.51 4.95-.42 7.22a13 13 0 0 1-3.5 4.57c-3.93 3.57-8.92 5.72-13.5 8.28l2.93 1.2c-1.05-3.85-2.46-7.58-3.71-11.37l-.52 1.94c2.16-1.73 4.24-3.55 6.4-5.27 1.5-1.19 1.77-2.35 1.84-4.19a54 54 0 0 0-.4-9.56 2 2 0 0 0-2.46-1.4 2.05 2.05 0 0 0-1.4 2.46" class="c"/><path d="M107.1 71.36a23 23 0 0 0 5.48 16.04 19.9 19.9 0 0 0 27.92 2.02 11.5 11.5 0 0 0 7.64-2.39 7.3 7.3 0 0 0 2.77-6.5 5.3 5.3 0 0 0-3.09-3.89 19 19 0 0 0-6.57-22.17c-8.9-6.32-21.47-5.45-28.78 2.86a22.5 22.5 0 0 0-5.38 14.03" class="a"/><path d="M109.99 60.83a23 23 0 0 0-2.6 7.5 38 38 0 0 0 15.64-1.88 1 1 0 0 1 .86.07c.63.36-.13 1.73-.49 2.36 2.24.63 7.73-.4 10.15-1.73 1.35 3.28 2.72 4.98 5.37 6.22L146 76.2a5 5 0 0 1 1.81.45 19 19 0 0 0-6.57-22.18c-8.9-6.32-21.48-5.45-28.79 2.86a21 21 0 0 0-2.47 3.5" class="a"/><path d="M150.06 76.33a21.1 21.1 0 0 0-7-23 24.3 24.3 0 0 0-23.62-3.3c-8.2 3.36-13.34 11.02-14.24 19.73a24.6 24.6 0 0 0 10.02 22.63c8.18 5.72 20.02 4.71 27.26-2.07 1.88-1.77-.95-4.59-2.83-2.83a18.2 18.2 0 0 1-20.04 2.86c-6.73-3.36-10.5-10.58-10.53-17.96-.04-7.09 3.33-13.99 9.58-17.57a20.1 20.1 0 0 1 19.62.13 17.2 17.2 0 0 1 7.92 20.31c-.8 2.46 3.07 3.5 3.86 1.06Z" class="c"/><path d="M146.01 78.2c.47.03-.22-.09.2.02l.53.14c.1.04.51.23.21.08l.49.26c.07.05.46.33.2.12l.4.37.38.42c-.23-.3.07.13.11.2l.26.49c-.16-.36.04.14.06.22l.12.55c-.05-.4 0 .16 0 .24q0 .3-.02.59c-.02.44.07-.16-.04.24-.09.33-.26.96-.32 1.1a7 7 0 0 1-1.06 1.63 6 6 0 0 1-1.74 1.34 8 8 0 0 1-2.14.88 12 12 0 0 1-1.28.29q-.21.03 0 0a9 9 0 0 1-1.05.07 2 2 0 0 0 0 4c4.77-.12 9.59-2.7 11.21-7.38a7.5 7.5 0 0 0-.69-6.52 7.6 7.6 0 0 0-5.83-3.35 2 2 0 0 0-2 2 2.05 2.05 0 0 0 2 2m-26.3.44a3.2 3.2 0 0 1-1.3 2.38 2.5 2.5 0 0 1-1.8.34 2.8 2.8 0 0 1-2-1.5 3.2 3.2 0 0 1 .8-3.71 2.56 2.56 0 0 1 3.48.19 3 3 0 0 1 .82 2.3m12.16 2.48a3.2 3.2 0 0 1-1.3 2.38 2.5 2.5 0 0 1-1.8.35 2.8 2.8 0 0 1-2-1.5 3.2 3.2 0 0 1 .8-3.72 2.55 2.55 0 0 1 3.48.2 3 3 0 0 1 .82 2.3m-.25-13.44a17 17 0 0 0 2.7 4.73 11 11 0 0 0 3.6 2.69 2.2 2.2 0 0 0 1.53.2 2 2 0 0 0 .48-3.65 11 11 0 0 1-1.91-1.15l.4.31a9 9 0 0 1-1.55-1.56l.31.4a15 15 0 0 1-1.78-3.23l.2.48-.12-.28a2.2 2.2 0 0 0-.92-1.2 2 2 0 0 0-2.74.72 2 2 0 0 0-.2 1.54" class="c"/><path d="M132.54 65.43c-2.28 1.2-6.18 2.13-8.6 1.53l1.2 2.93c.76-1.37 1.6-3.28.31-4.65-1.48-1.57-3.6-.46-5.3 0a38 38 0 0 1-12.1 1.14c-2.58-.14-2.57 3.86 0 4a44 44 0 0 0 8.11-.28q1.9-.24 3.78-.67.96-.23 1.92-.5l1.06-.34.43-.14q.42-.14 0 0l-.87-.51.14.13-.51-.88c-.2-.48.17-.44-.05-.04l-.39.73a2.02 2.02 0 0 0 1.2 2.93 15 15 0 0 0 5.9-.1 19 19 0 0 0 5.8-1.83c2.27-1.2.25-4.65-2.03-3.45m10.34 60.06a118 118 0 0 0 14.02 1.41 2 2 0 0 0 0-4 111 111 0 0 1-12.96-1.26 2.06 2.06 0 0 0-2.46 1.4 2 2 0 0 0 1.4 2.46Zm-48.3-19.18 11.58 7.53a2 2 0 0 0 2.73-.72 2.05 2.05 0 0 0-.71-2.74l-11.58-7.52a2 2 0 0 0-2.74.71 2.05 2.05 0 0 0 .72 2.74" class="c"/><path d="M204.27 29.35q.52 0 1.02.05a15.28 15.28 0 0 1 26.6 1.3q.72-.06 1.48-.07a14.6 14.6 0 0 1 14.88 14.79c0 8.92-6.21 15.06-14.88 15.06a15 15 0 0 1-9.87-3.33 11.7 11.7 0 0 1-7.66 2.66c-5.38 0-9.3-2.85-10.85-7.29q-.35.04-.72.04c-7 0-11.56-4.82-11.56-11.71a11.33 11.33 0 0 1 11.56-11.5m80.9 60.6q.38 0 .8.04a11.9 11.9 0 0 1 20.7 1.01q.57-.05 1.15-.06a11.36 11.36 0 0 1 11.6 11.52c0 6.95-4.85 11.73-11.6 11.73a11.7 11.7 0 0 1-7.68-2.6 9 9 0 0 1-5.97 2.08c-4.19 0-7.25-2.22-8.45-5.68l-.56.03c-5.45 0-9-3.76-9-9.12a8.8 8.8 0 0 1 9-8.95" class="a"/><path d="M19.57 2.43a18.8 18.8 0 0 1 22.74 14.6c2.4 11.25-3.76 20.66-14.68 23-11.34 2.44-20.42-3.79-22.81-14.96A18.8 18.8 0 0 1 19.57 2.43" class="d"/><path d="M20.1 4.36a17 17 0 0 1 18.51 8.37c3.33 6.09 3.06 14.46-1.61 19.8a18.9 18.9 0 0 1-19.55 5.17c-6.61-2.2-10.7-9.02-11.05-15.78A17 17 0 0 1 9.68 10.8 17.5 17.5 0 0 1 20.1 4.36C22.61 3.8 21.55-.06 19.04.5A21 21 0 0 0 2.47 18.97C1.64 27.35 6 36.6 13.67 40.43c7.79 3.88 17.89 2.29 24.41-3.35 6.61-5.7 8.34-15.48 5.3-23.49a21.2 21.2 0 0 0-9.19-10.92A21.6 21.6 0 0 0 19.04.5c-2.52.52-1.46 4.37 1.06 3.86m18.4 60.51-2.61-10.24a2 2 0 0 0-3.86 1.06l2.61 10.24a2 2 0 0 0 3.86-1.06m-26.06-8.16-2.43 26.1a2 2 0 0 0 2 2 2.04 2.04 0 0 0 2-2l2.43-26.1a2 2 0 0 0-2-2 2.04 2.04 0 0 0-2 2m58.43-46.12-11.2 2.08a2 2 0 0 0-1.4 2.46 2.05 2.05 0 0 0 2.47 1.4l11.19-2.08a2 2 0 0 0 1.4-2.46 2.05 2.05 0 0 0-2.46-1.4M83.5 38.61l-23.8-7.36c-2.46-.76-3.52 3.1-1.06 3.86l23.8 7.36c2.46.76 3.52-3.1 1.06-3.86M63.57 60.03 50.73 46.72a2 2 0 0 0-2.83 2.83l12.84 13.31a2 2 0 0 0 2.83-2.83m140.7-28.68q.51.01 1.02.05a2 2 0 0 0 1.73-.99 13.2 13.2 0 0 1 12.37-6.1 13 13 0 0 1 10.77 7.4 2 2 0 0 0 1.72.99 13.5 13.5 0 0 1 9.66 2.68 12.8 12.8 0 0 1 4.61 8.28c.85 6.53-2.82 12.86-9.35 14.44a14 14 0 0 1-11.88-2.37 2.1 2.1 0 0 0-2.83 0c-4.81 3.95-13 2.24-15.16-3.74a2.05 2.05 0 0 0-1.93-1.46 10 10 0 0 1-7.18-2.15 9.5 9.5 0 0 1-3.08-6.67 9.54 9.54 0 0 1 9.54-10.36c2.57-.03 2.58-4.03 0-4a13.5 13.5 0 0 0-12.97 9.44c-1.67 5.4.07 11.8 4.65 15.2a14 14 0 0 0 9.04 2.53l-1.93-1.47a12.8 12.8 0 0 0 8.5 8.18 14.6 14.6 0 0 0 13.35-2.67h-2.83c6.94 5.68 18.44 5.29 24.3-1.85a17.75 17.75 0 0 0-.86-23.09 17 17 0 0 0-13.64-4.92l1.73 1a17 17 0 0 0-14.22-9.4 17.2 17.2 0 0 0-15.83 8.1l1.73-1-1.02-.05c-2.58-.05-2.58 3.95 0 4m80.9 60.6q.38 0 .8.04a2 2 0 0 0 1.71-.99 9.8 9.8 0 0 1 9.13-4.54 9.7 9.7 0 0 1 8.13 5.56 2 2 0 0 0 1.73.99 9.8 9.8 0 0 1 8.73 3.49 10.2 10.2 0 0 1 1.64 8.92 8.9 8.9 0 0 1-5.45 6.13 10.6 10.6 0 0 1-10.04-1.37 2.1 2.1 0 0 0-2.83 0c-3.5 2.85-9.48 1.61-11.07-2.71a2.05 2.05 0 0 0-1.93-1.47c-4 .23-7.3-2.28-7.55-6.4a7 7 0 0 1 7-7.64c2.56-.05 2.57-4.05 0-4a11 11 0 0 0-11 11.64 10.8 10.8 0 0 0 11.55 10.4l-1.93-1.47a10.5 10.5 0 0 0 7.01 6.7 11.9 11.9 0 0 0 10.75-2.21h-2.83c5.56 4.52 14.66 4.32 19.44-1.32a14.26 14.26 0 0 0-.56-18.73A13.7 13.7 0 0 0 306.66 89l1.73 1a13.7 13.7 0 0 0-11.58-7.55 13.8 13.8 0 0 0-12.58 6.53l1.73-1q-.4-.03-.8-.03c-2.57-.08-2.57 3.92 0 4" class="c"/><path d="M221.24 122.17c0 3.2-2.23 6.37-6.41 8.78a31.7 31.7 0 0 1-30.74.11c-4.57-2.64-6.81-5.86-6.67-9.08.04-3.1 2.28-6.16 6.67-8.7l30.74.11c4.18 2.42 6.41 5.57 6.41 8.78" class="a"/><path d="M212.31 111.44c-2.9-3.59-7.4-5.72-12.98-5.72-7.53 0-13.4 4.16-15.64 10.7a5 5 0 0 0 1.19 1.39 6 6 0 0 0 3.64 1.01 13 13 0 0 1 1.31.1 17.9 17.9 0 0 0 19.3-.02 8 8 0 0 1 1.01-.08 6 6 0 0 0 3.65-1.01 5 5 0 0 0 1.2-1.43 16 16 0 0 0-2.68-4.94" class="d"/><path d="M217.95 122.54c-.06-7.3-3.64-14.26-10.56-17.22-7.1-3.03-16.2-1.8-21.62 3.89a19.4 19.4 0 0 0-5.05 13.18c-.05 2.58 3.95 2.58 4 0 .12-6.74 4-12.6 10.72-14.22 5.57-1.35 12.15.19 15.65 4.95a16 16 0 0 1 2.85 9.42c.02 2.58 4.02 2.58 4 0" class="c"/><path d="M193.76 110.23a57 57 0 0 0-5.28-8.9 2.05 2.05 0 0 0-2.73-.71 2 2 0 0 0-.72 2.73 57 57 0 0 1 5.28 8.9 2 2 0 0 0 2.73.71 2.05 2.05 0 0 0 .72-2.74m-4.13 10.93a20.2 20.2 0 0 0 19.4.16c2.27-1.22.25-4.68-2.02-3.45a16 16 0 0 1-15.36-.17c-2.24-1.27-4.26 2.19-2.02 3.46m24.19-6.04q.74.42 1.43.9l.36.26.14.11c-.24-.19.09.07.14.1l.32.28a14 14 0 0 1 1.02.97l.47.53.2.24c.12.15-.28-.38-.02-.02a10 10 0 0 1 .67 1.05l.28.56c.14.3-.03.01-.05-.12l.12.3a8 8 0 0 1 .3 1.15c.02.09.06.42.02.05s0-.03 0 .05q.03.31.03.64a2 2 0 0 0 4 0c-.04-4.7-3.6-8.28-7.41-10.5a2 2 0 0 0-2.02 3.45m-30.74-3.57c-3.82 2.23-7.62 5.75-7.66 10.51a2 2 0 0 0 4 0l.03-.6c0-.08.04-.4 0-.03s0 .05.01-.04a7 7 0 0 1 .3-1.1l.12-.3c-.16.54-.1.24-.03.08s.16-.33.25-.49a11 11 0 0 1 .72-1.11c.15-.2-.28.34-.05.07l.24-.28q.23-.27.47-.52a15 15 0 0 1 1.09-1.01l.27-.23c.08-.06.41-.39.05-.04a5 5 0 0 1 .67-.48q.75-.52 1.54-.98a2 2 0 1 0-2.02-3.45" class="c"/><path d="M177.98 127.26a26 26 0 0 1-.56-5.09v.1c0 3.13 2.24 6.23 6.67 8.79a31.7 31.7 0 0 0 30.74-.11c4.18-2.42 6.42-5.58 6.42-8.78v-.13c-.1 12.93-8.74 21.96-21.92 21.96-10.13 0-18-5.7-20.8-14.64q-.32-1.02-.55-2.1" class="b"/><path d="M219.24 121.82c-.04 7.82-3.7 15.31-11.14 18.5-7.54 3.25-17.34 1.96-23.18-3.98a20.6 20.6 0 0 1-5.5-14.32c-.04-2.57-4.04-2.58-4 0a25.2 25.2 0 0 0 5.39 15.71 22.5 22.5 0 0 0 12 7.49c9.4 2.34 20-.45 25.88-8.42a25.4 25.4 0 0 0 4.55-14.98c.01-2.58-3.99-2.58-4 0" class="c"/><path d="M175.42 122.28c.18 8.15 10.01 12.57 16.82 13.97a33.7 33.7 0 0 0 23.98-3.8c3.7-2.25 6.93-5.74 7.02-10.28.06-2.58-3.94-2.58-4 0-.06 2.9-2.36 5.13-4.66 6.6a28 28 0 0 1-9.46 3.65 29.2 29.2 0 0 1-19.85-2.99c-2.62-1.49-5.78-3.83-5.85-7.15-.06-2.57-4.06-2.58-4 0" class="c"/></svg>
