<svg xmlns="http://www.w3.org/2000/svg" fill="none" viewBox="0 0 24 24"><path fill="none" stroke="currentColor" stroke-width="1.5" d="M4 8c0-2.83 0-4.24.88-5.12S7.18 2 10 2h4c2.83 0 4.24 0 5.12.88S20 5.18 20 8v8c0 2.83 0 4.24-.88 5.12S16.82 22 14 22h-4c-2.83 0-4.24 0-5.12-.88S4 18.82 4 16z"/><path stroke="currentColor" stroke-width="1.5" d="M19.9 16h-12c-.93 0-1.4 0-1.78.1A3 3 0 0 0 4 18.22"/><path stroke="currentColor" stroke-linecap="round" stroke-width="1.5" d="M8 7h8m-8 3.5h5m0 5.5v3.53c0 .28 0 .41-.1.47-.09.06-.22 0-.48-.13l-1.24-.59q-.12-.06-.18-.06-.07 0-.18.06l-1.24.6c-.26.11-.39.18-.49.12S9 19.8 9 19.53v-3.08"/></svg>
