<svg xmlns="http://www.w3.org/2000/svg" viewBox="0 -17.23 306.525 306.525"><defs><style>.a{fill:#fff}.c{fill:#211715}</style></defs><path d="M304.42 190.49c-.02-11.95-.08-36.41-.08-45.1v-.36c-53.9-31-135.05-77.91-171.91-99.25A62830 62830 0 0 1 2.04 121c0 10.14.08 40.17.07 49.09a84317 84317 0 0 0 173.33 100.05c37.88-21.77 99.82-57.57 128.97-74.44v-5.22" class="a"/><path d="M131.7 46.2A61237 61237 0 0 1 2.46 120.77a68696 68696 0 0 0 172.22 99.39 50801 50801 0 0 0 129.67-74.78v-.36c-53.9-31-135.05-77.92-171.91-99.25Z" style="fill:#f4c058"/><path d="m306.42 190.49-.05-24.2c-.01-7.08-.18-14.18-.02-21.26a2 2 0 0 0-1-1.73q-35.7-20.54-71.36-41.13-35.37-20.42-70.73-40.87l-29.83-17.25a2 2 0 0 0-2.02 0L83.89 71.53q-27.84 16.08-55.7 32.14L1.04 119.28a2 2 0 0 0-.99 1.73q0 17.33.06 34.65v8.56a39 39 0 0 0 .05 6.14c.23 1.36 1.72 1.9 2.8 2.53l2.74 1.59 6.03 3.49 30.35 17.55 37.33 21.57L119.1 240l38.16 22c5.65 3.25 11.22 6.8 17.01 9.8 1.71.87 3.32-.57 4.78-1.4l4.2-2.42 8.84-5.1q19.7-11.33 39.36-22.7l39.5-22.8 32.33-18.7c1.15-.67 2.87-1.27 3.1-2.71a34 34 0 0 0 .04-5.48c0-2.58-4-2.58-4 0v5.21l.99-1.72-45.72 26.43-55.4 31.98-27.86 16.03h2.02Q140 247.47 103.6 226.44q-35.95-20.75-71.9-41.54L3.14 168.37l.99 1.73c0-13.31-.05-26.63-.06-39.94L4.06 121l-1 1.73q25.62-14.71 51.2-29.49 27.34-15.78 54.67-31.58l24.5-14.17h-2.02q29.6 17.13 59.2 34.23 37.08 21.42 74.17 42.81 19.27 11.12 38.56 22.22l-1-1.73c-.15 7.08.02 14.18.03 21.26l.05 24.2c0 2.57 4 2.58 4 0" class="c"/><path d="M173.07 220.04q0 20.73.07 41.47l.01 8.39c0 2.57 4 2.57 4 0q-.02-20.25-.07-40.5l-.01-9.37c0-2.57-4-2.58-4 0Z" class="c"/><path d="M3.43 123.66q12.11 7.02 24.23 14.02l34.08 19.7 38.7 22.35q19.04 10.99 38.09 21.96 16.1 9.28 32.23 18.53l3.3 1.9c2.24 1.29 4.26-2.17 2.02-3.45q-15.58-8.93-31.15-17.9-18.83-10.84-37.64-21.7L68.38 156.6l-34.94-20.2-25.72-14.88-2.27-1.32c-2.23-1.3-4.25 2.16-2.02 3.45Zm171.66 111.5q-13.44-7.7-26.86-15.45l-32.75-18.87-33.76-19.5-30.46-17.6-22.33-12.92-1.99-1.15c-2.23-1.3-4.25 2.16-2.02 3.45l21.02 12.17 29.73 17.18 33.58 19.39 33.14 19.1q13.9 8.02 27.82 16l2.86 1.65c2.24 1.28 4.26-2.17 2.02-3.45m-10.97 9.88q-13.02-7.47-26-15c-2.24-1.3-4.25 2.16-2.02 3.45q12.98 7.52 26 15c2.23 1.29 4.25-2.17 2.02-3.45" class="c"/><path d="m249.42 233.12-26.4 15.22c-6.58-3.77-18.23-10.5-26.94-15.51l26.43-15.23c8.93 5.16 20.66 11.93 26.91 15.52" style="fill:#ea6d67"/><path d="m196.08 234.83-1-.28q12.54 7.26 25.1 14.48a8 8 0 0 0 2.56 1.28c1 .13 1.93-.62 2.76-1.1l4.73-2.72 10.75-6.2 9.44-5.44a2.02 2.02 0 0 0 0-3.46q-13.47-7.73-26.91-15.51c-2.24-1.3-4.25 2.16-2.02 3.45q13.45 7.77 26.91 15.52v-3.46q-13.21 7.6-26.4 15.23h2.02l-13.2-7.6-7.4-4.27-3.67-2.12c-1.03-.6-2.46-1.8-3.68-1.8-2.57 0-2.58 4 0 4" class="c"/><path d="M286.81 178.15q-18.46 10.7-36.93 21.35-24.84 14.34-49.7 28.66l-25.72 14.78c-2.24 1.28-.22 4.74 2.02 3.46q23.76-13.6 47.45-27.31 23.48-13.54 46.95-27.1l17.95-10.39c2.23-1.28.21-4.74-2.02-3.45M175.9 221.77q26.07-14.94 52.09-29.97 28.06-16.19 56.11-32.4l21.25-12.29c2.22-1.29.21-4.74-2.02-3.45q-22.16 12.83-44.34 25.63-29.14 16.83-58.3 33.62-13.4 7.71-26.81 15.4c-2.23 1.29-.22 4.74 2.02 3.46" class="c"/><path d="M262.25 117.18c-.01-8.92-.06-27.18-.06-33.67v-.27a69735 69735 0 0 1-128.34-74.1c-23.3 13.48-70.2 40.58-97.33 56.17 0 7.57.05 29.99.05 36.64 24.75 14.33 89.55 51.8 129.4 74.7a45875 45875 0 0 0 96.29-55.58v-.34z" class="a"/><path d="M132.1 10.15a46195 46195 0 0 1-95.58 55.16c0 7.57.05 29.99.05 36.64 10.76 6.24 29.1 16.84 49.67 28.72-.02-9.13-.06-29.3-.06-36.98 41.83-24.16 77.08-44.54 96.95-56.05l-49.28-28.5Z" style="fill:#8ac46e"/><path d="M264.25 117.18c-.02-11.3-.3-22.64-.05-33.94a2 2 0 0 0-1-1.73q-26.64-15.33-53.26-30.7l-52.8-30.5-22.28-12.9a2 2 0 0 0-2.02 0L97.3 27.97 55.82 51.89 35.51 63.6a2 2 0 0 0-1 1.72q0 13.08.05 26.17v6.34c0 1.42-.3 3.28.08 4.67.4 1.47 3.19 2.5 4.45 3.23l4.6 2.67q25.28 14.63 50.58 29.24 29.01 16.75 58.04 33.48l6.62 3.8 3.05 1.76a25 25 0 0 0 3.2 1.81c1.33.51 2.56-.55 3.66-1.18l3.33-1.91 6.73-3.87q14.65-8.44 29.29-16.9 26.81-15.47 53.61-30.98c1.1-.63 2.35-1.12 2.45-2.57.09-1.28 0-2.6 0-3.9 0-2.57-4-2.57-4 0v3.9l.99-1.72-34.06 19.69q-20.71 11.97-41.45 23.92l-20.78 11.96h2.02q-27.17-15.62-54.32-31.3l-53.62-30.98-21.45-12.41.99 1.72q-.01-14.86-.05-29.73V65.3l-1 1.72Q56.68 56.04 75.8 45l40.71-23.51 18.35-10.61h-2.02l44.18 25.55q27.67 15.99 55.36 31.95l28.8 16.6-.98-1.73c-.25 11.3.03 22.64.05 33.94 0 2.57 4 2.58 4 0" class="c"/><path d="M163.68 139.24c0 8.46.06 16.92.06 25.39 0 2.57 4 2.57 4 0 0-8.47-.06-16.93-.06-25.4 0-2.57-4-2.57-4 0" class="c"/><path d="M167.08 138q-22.77-13.05-45.49-26.19-24.5-14.14-49-28.31L54.02 72.77c-2.23-1.3-4.25 2.16-2.02 3.45l38.72 22.4q25.45 14.7 50.91 29.37 11.7 6.74 23.42 13.46c2.24 1.29 4.25-2.17 2.02-3.45" class="c"/><path d="M166.56 140.97q16.45-9.43 32.88-18.92 17.65-10.18 35.29-20.38l13.5-7.8c2.24-1.3.23-4.76-2-3.46q-14 8.1-28 16.17-18.32 10.59-36.65 21.14l-17.04 9.8c-2.23 1.28-.22 4.73 2.02 3.45M87.3 95.35l43.91-25.37q17.83-10.3 35.65-20.62 7.63-4.4 15.25-8.82c2.23-1.29.22-4.75-2.02-3.45L150.6 54.15l-39.67 22.93L85.28 91.9c-2.22 1.29-.21 4.75 2.02 3.45" class="c"/><path d="M84.17 93.67q.05 17.02.07 34.03c0 2.58 4 2.58 4 0q-.02-17-.07-34.03c0-2.57-4-2.57-4 0" class="c"/><path d="M147.46 94.43a16 16 0 0 1-1.6 6.16c-1.98 3.9-5.82 6.57-9.85 8.27s-4.61 1.26-8.79 2.58c-3.25 1.03-6.66 2.5-8.06 5.8a19 19 0 0 0-1.03 5.23c-.3 6.75-.24 13.77-.33 20.71a2.3 2.3 0 0 1-1.57 2.19 32 32 0 0 1-14.65.78 3 3 0 0 1-1.3-.87 4 4 0 0 1-1.1-1.83c-.38-3.15-.56-6.2-.67-9.23-3.5.78-7.48 2.12-11.2 1.2-2.58-.62-5-2.6-5.4-5.22l-.33-2.17c-.57-10.62-1.15-9.28-1.73-19.9-.19-3.57-.35-7.34 1.29-10.53a18 18 0 0 1 5.67-5.9 69 69 0 0 1 14.46-8.1s39.5 9.47 46.2 10.83" style="fill:#a0a0a0"/><path d="M139.38 97.99c2.3-1.3 5.26-2.74 8.12-4.45 4.75-2.84 9.26-6.43 10.2-11.25a20 20 0 0 0-.04-6.29c-.9-7.37-2.65-16.78-7.25-22.85-2.8-3.7-7.22-8.5-11.53-10.7 0 0-7.47-3.62-14.74-4.1-11.66-.76-17.63 4.21-17.63 4.21a35.3 35.3 0 0 0-13.2 20.8l-2.03 11.72-.74 4.22ZM92.63 155.7a7.4 7.4 0 0 1 1.43-6.02 18 18 0 0 1 5.44-4.38c2.1 1.65 10.63 1.96 16.74.07a2 2 0 0 0 .58-.28l.12 1.15c.64 5.8-2.87 8.13-5.1 9.46a34 34 0 0 1-8.5 3.58 14 14 0 0 1-5.55.54 6.5 6.5 0 0 1-4.62-2.85 5 5 0 0 1-.54-1.27m-17.86-12.57A8 8 0 0 1 75.9 141a19 19 0 0 1 5.9-4.61 10 10 0 0 1 3.8-1.58 8 8 0 0 0 1.7.62c3.72.91 7.71-.43 11.2-1.2q.11 3.27.4 6.6l-1.57.26c.12 2.5-2.1 4.45-4.25 5.73a33 33 0 0 1-8.22 3.46 13 13 0 0 1-5.36.52 6.2 6.2 0 0 1-4.47-2.75 5.8 5.8 0 0 1-.27-4.92" class="a"/><path d="M107.25 23.03a23 23 0 0 0 5.49 16.04 19.9 19.9 0 0 0 27.92 2.03 11.5 11.5 0 0 0 7.63-2.4 7.3 7.3 0 0 0 2.77-6.5 5.3 5.3 0 0 0-3.08-3.9 19 19 0 0 0-6.57-22.16C132.5-.18 119.93.69 112.62 9a22.5 22.5 0 0 0-5.37 14.03" class="a"/><path d="M110.15 12.5a23 23 0 0 0-2.6 7.5 38 38 0 0 0 15.64-1.88 1 1 0 0 1 .86.07c.63.36-.13 1.73-.49 2.36 2.24.63 7.73-.4 10.15-1.73 1.35 3.28 2.72 4.98 5.36 6.22l7.1 2.83a5 5 0 0 1 1.8.44 19 19 0 0 0-6.56-22.18C132.5-.18 119.93.7 112.62 9a21 21 0 0 0-2.47 3.5" class="a"/><path d="M114.94 146.25a7.2 7.2 0 0 1-2.6 6.74 28 28 0 0 1-9.55 4.36c-2.77.74-8.28 1.22-8.34-3.03-.04-3.8 3.88-6 6.7-7.68 2.22-1.3.2-4.77-2.01-3.45-3.35 1.98-6.7 4.2-8.12 8a7.65 7.65 0 0 0 3.41 9.61c3.84 2.02 8.37.94 12.24-.47a29 29 0 0 0 8.71-4.68 10.7 10.7 0 0 0 3.56-9.4 2.05 2.05 0 0 0-2-2 2 2 0 0 0-2 2" class="c"/><path d="M84.81 132.91a16 16 0 0 0-4.94 2.3 24 24 0 0 0-4.18 3.05c-2.47 2.35-4.08 6.01-3 9.4 1.16 3.59 4.92 5.33 8.48 5.23 3.84-.1 7.77-1.63 11.15-3.36 3.33-1.7 7.05-4.28 7.02-8.44-.01-2.57-4.01-2.58-4 0 .02 2.94-4.31 4.71-6.5 5.7a29 29 0 0 1-4.9 1.67 9 9 0 0 1-5.22.09c-2.9-1.08-2.82-4.23-1.17-6.42a13 13 0 0 1 3.72-3.09 15 15 0 0 1 4.6-2.27c2.53-.51 1.46-4.37-1.06-3.86" class="c"/><path d="M100.74 81.66a70 70 0 0 0-15.94 9.06 17.5 17.5 0 0 0-5.74 6.65 20 20 0 0 0-1.3 8.81c.15 4.32.57 8.6 1.08 12.89.47 3.87.45 7.81 1.14 11.65a8.6 8.6 0 0 0 5.24 6.1c3.36 1.44 7.06.9 10.52.12 2.5-.57 1.45-4.42-1.06-3.86-3.74.85-10.04 1.5-10.87-3.61-.54-3.38-.54-6.86-.95-10.29-.43-3.6-.79-7.18-.99-10.8a27 27 0 0 1 .26-7.65 11.4 11.4 0 0 1 4.12-6.09 60 60 0 0 1 15.55-9.12 2.07 2.07 0 0 0 1.4-2.46 2 2 0 0 0-2.46-1.4" class="c"/><path d="M100.32 100.95c-3.42 2.38-4.28 6.11-4.35 10.04-.06 3.98.15 7.96.28 11.94.16 5.22.14 10.45.49 15.66.16 2.41-.02 5.37 1.51 7.37 1.47 1.92 3.28 2.32 5.56 2.56a33 33 0 0 0 6.58-.02 25 25 0 0 0 6.68-1.32c2.61-1.01 2.73-3.52 2.75-5.94l.07-8.24q.02-4.08.15-8.16a21 21 0 0 1 .87-6.58c1.34-3.62 6.08-4.8 9.41-5.61 4.33-1.05 8.5-2.4 12.1-5.13a17.7 17.7 0 0 0 7.08-13.98c.1-2.58-3.9-2.58-4 0a13.5 13.5 0 0 1-5.2 10.6 24 24 0 0 1-9.67 4.34c-3.56.79-7.35 1.8-10.27 4.1-3.24 2.55-4.04 6.44-4.25 10.37-.26 4.96-.23 9.94-.26 14.9l-.03 3.64a7 7 0 0 1-.02 1.7c-.12.32-.07.2-.28.32a10 10 0 0 1-2.86.68 29 29 0 0 1-3.07.38 32 32 0 0 1-5.78-.04 5 5 0 0 1-1.84-.38c-.93-.56-.9-1.63-1-2.56-.45-4.7-.53-9.44-.62-14.17-.1-4.49-.32-8.97-.38-13.47-.02-1.69-.05-3.39.08-5.08l.04-.42c.04-.4-.03.12 0-.06a9 9 0 0 1 .44-1.57 5 5 0 0 1 1.8-2.41c2.1-1.46.1-4.93-2.02-3.46Zm5.18-60.11a37.6 37.6 0 0 0-14.12 21.99c-.53 2.5 3.32 3.58 3.86 1.06a33.4 33.4 0 0 1 12.28-19.6 2.07 2.07 0 0 0 .72-2.74 2 2 0 0 0-2.74-.71" class="c"/><path d="M93.23 83.58c-2.22-1.38-3.15-3.73-3.51-6.21-.4-2.8.07-6.34 4.13-7.36a5.8 5.8 0 0 1 4.22.8 7.9 7.9 0 0 1 3.9 7.68c-.28 3.3-3.4 6.33-6.68 5.85a5 5 0 0 1-2.06-.76" class="a"/><path d="M94.24 81.86a5 5 0 0 1-1.2-1.1c.18.23-.08-.12-.12-.17l-.27-.44-.2-.37s-.24-.56-.13-.28a11 11 0 0 1-.52-1.82l-.1-.53c-.02-.13-.08-.62-.02-.08q-.04-.37-.06-.76a11 11 0 0 1 .03-1.4c.02-.37 0 0-.01.07l.07-.39q.1-.41.24-.82c-.14.45.09-.16.16-.3s.49-.64.19-.3l.52-.53c.23-.21-.4.22.07-.06l.46-.27.34-.17c-.28.12.03 0 .08-.02a8 8 0 0 1 .9-.24c-.44.08.19.01.35.02l.5.03h-.02l.32.06a4 4 0 0 1 1.6.78c.02.01.3.22.1.06l.31.26a9 9 0 0 1 .78.77 5.4 5.4 0 0 1 1.27 2.53c-.01-.03.1.59.06.3l.04.34a9 9 0 0 1 .01.92q0 .27-.02.53c0-.09.07-.34-.01.07a8 8 0 0 1-.27.98c-.2.6.08-.15-.08.18q-.14.28-.3.54a3 3 0 0 1-.47.66 7 7 0 0 1-.73.7c.22-.18-.04.03-.07.05l-.51.32a3.4 3.4 0 0 1-1.44.4 3 3 0 0 1-1.85-.53 2 2 0 0 0-2.02 3.46c3.7 2.2 8 .7 10.33-2.7a9.5 9.5 0 0 0-.04-10.2c-1.98-3.04-5.7-5.3-9.4-4.27a7.5 7.5 0 0 0-5.48 7.08c-.25 3.83 1.31 7.96 4.6 10.08a2 2 0 0 0 2.02-3.45Zm11.85-24.67v22.3c0 2.57 4 2.57 4 0v-22.3c0-2.57-4-2.57-4 0" class="c"/><path d="M107.4 83.28c-6.15 1.04-12.43 3.44-21.5 4.95 5.6 2.7 16.1 7.87 26.16 12.9 8.74-3.56 11.23-4.18 16.7-6.28-9.15-4.72-21.34-11.57-21.36-11.57" class="a"/><path d="M106.87 81.35c-7.25 1.26-14.23 3.72-21.5 4.95-1.67.28-1.97 2.93-.48 3.65q8.86 4.29 17.68 8.68l5.29 2.63q1.38.7 2.77 1.38a3.2 3.2 0 0 0 3.08-.03q4.13-1.67 8.33-3.2c2.42-.86 4.84-1.7 7.24-2.63 1.48-.56 2.14-2.8.48-3.65-4.73-2.45-9.42-5-14.1-7.56-2.4-1.33-4.77-2.83-7.25-4.02-2.3-1.11-4.34 2.34-2.02 3.45 2.48 1.2 4.85 2.7 7.25 4.02q7.01 3.87 14.1 7.56l.48-3.65c-5.55 2.12-11.18 4.03-16.69 6.27l1.54.2c-8.7-4.35-17.4-8.68-26.16-12.9l-.48 3.65c7.27-1.22 14.25-3.69 21.5-4.94a2 2 0 0 0 1.4-2.46 2.05 2.05 0 0 0-2.46-1.4" class="c"/><path d="M123.5 92.54c.6-4.78 5.6-8.77 12.02-6 .97 2.98 2.65 7.5 3.7 11.26l-2.64 2.13c-2.07 2.5-6.63 2.05-9.11.54a8.3 8.3 0 0 1-3.97-7.93" class="a"/><path d="M134.83 84.16a11 11 0 0 0-8.11.6 10 10 0 0 0-4.67 5.36c-1.98 5.2 1.16 11.06 6.25 12.92 3.12 1.14 7.38.98 9.7-1.7a2.05 2.05 0 0 0 0-2.83 2 2 0 0 0-2.84 0l-.3.32c-.06.08-.37.32-.05.08a5 5 0 0 1-.67.4c-.1.06-.45.17-.08.05l-.34.11a7 7 0 0 1-.88.2c.4-.06 0 0-.1 0l-.47.03-.84-.03c-.1 0-.51-.05-.12 0l-.37-.06a10 10 0 0 1-.98-.23l-.76-.26c.38.14-.27-.13-.38-.18a7 7 0 0 1-.66-.42c-.49-.34.16.14-.1-.08a11 11 0 0 1-1.2-1.15s-.33-.42-.15-.18l-.13-.19-.17-.26a8 8 0 0 1-.42-.74l-.16-.34c.02.06.14.4.03.06l-.23-.7-.12-.56c-.01-.04-.08-.5-.04-.16.05.33 0-.16 0-.23a11 11 0 0 1 .02-1.33c-.03.45-.01.07.03-.15a8 8 0 0 1 .2-.8l.18-.53c.14-.43-.16.27 0 .03l.14-.3q.14-.29.3-.55c.08-.11.56-.76.2-.33a8 8 0 0 1 .86-.92c.07-.07.55-.46.33-.3-.26.2.12-.07.14-.09l.36-.23q.3-.18.63-.34c.02-.01.46-.2.15-.08-.28.12.19-.06.24-.08a8 8 0 0 1 .8-.22c.17-.04.86-.13.37-.09a13 13 0 0 1 1.78-.02c.08 0 .39.05-.03 0l.52.08q.54.11 1.06.27a2 2 0 1 0 1.07-3.86Z" class="c"/><path d="M140.95 70.13c-.07-.53-.03-.23 0 .08l.06.78a94 94 0 0 1 .22 7.18q0 .5-.04.97c0 .19-.02.9-.02.36 0 .53-.18 0 .08-.04-.28.05-.82.63-1.12.86-2 1.63-3.96 3.32-5.98 4.94a2 2 0 0 0-.51 1.94c1.25 3.8 2.66 7.53 3.72 11.38a2.02 2.02 0 0 0 2.93 1.2c8.3-4.64 19.89-9.37 19.64-20.62a65 65 0 0 0-2.32-14.64 35 35 0 0 0-5.68-12.65c-3.28-4.3-7.19-8.6-12.03-11.15-2.28-1.2-4.3 2.25-2.02 3.46 3.86 2.04 7.02 5.32 9.76 8.66a30.5 30.5 0 0 1 5.58 10.83 75 75 0 0 1 2.48 12.58c.28 2.38.51 4.95-.42 7.22a13 13 0 0 1-3.5 4.57c-3.93 3.57-8.92 5.72-13.5 8.28l2.93 1.2c-1.05-3.85-2.46-7.58-3.71-11.37l-.52 1.94c2.16-1.73 4.24-3.54 6.4-5.27 1.5-1.19 1.77-2.35 1.84-4.19a54 54 0 0 0-.4-9.55 2 2 0 0 0-2.47-1.4 2.05 2.05 0 0 0-1.4 2.46Z" class="c"/><path d="M150.22 28a21.1 21.1 0 0 0-7-23 24.3 24.3 0 0 0-23.62-3.3c-8.2 3.36-13.34 11.02-14.23 19.73a24.6 24.6 0 0 0 10 22.64c8.2 5.71 20.03 4.7 27.27-2.08 1.88-1.76-.95-4.59-2.83-2.83a18.2 18.2 0 0 1-20.04 2.87c-6.73-3.37-10.49-10.6-10.53-17.97-.04-7.08 3.33-13.98 9.58-17.57a20.1 20.1 0 0 1 19.62.13 17.2 17.2 0 0 1 7.92 20.32c-.79 2.45 3.07 3.5 3.86 1.06" class="c"/><path d="M146.17 29.87c.47.03-.22-.09.2.02q.27.06.53.14c.1.03.51.23.21.07l.49.27c.07.05.46.33.2.12l.4.37.38.42c-.23-.3.07.13.11.2l.26.49c-.16-.36.04.14.06.22l.12.55c-.05-.4 0 .15 0 .24q0 .3-.02.58c-.02.45.07-.15-.04.25-.09.33-.26.96-.32 1.1a7 7 0 0 1-1.06 1.63 6 6 0 0 1-1.74 1.34 8 8 0 0 1-2.15.88 12 12 0 0 1-1.27.28q-.21.04 0 0a9 9 0 0 1-1.05.07 2 2 0 0 0 0 4c4.77-.11 9.59-2.7 11.21-7.38a7.5 7.5 0 0 0-.69-6.5 7.6 7.6 0 0 0-5.83-3.36 2 2 0 0 0-2 2 2.05 2.05 0 0 0 2 2m-26.3.44a3.2 3.2 0 0 1-1.3 2.38 2.5 2.5 0 0 1-1.8.34 2.8 2.8 0 0 1-2-1.5 3.2 3.2 0 0 1 .8-3.71 2.56 2.56 0 0 1 3.48.19 3 3 0 0 1 .82 2.3m12.16 2.48a3.2 3.2 0 0 1-1.3 2.38 2.5 2.5 0 0 1-1.8.35 2.8 2.8 0 0 1-2-1.5 3.2 3.2 0 0 1 .8-3.72 2.55 2.55 0 0 1 3.47.2 3 3 0 0 1 .83 2.3m-.25-13.43a17 17 0 0 0 2.69 4.72 11 11 0 0 0 3.6 2.69 2.2 2.2 0 0 0 1.54.2 2 2 0 0 0 .48-3.66 11 11 0 0 1-1.92-1.14l.4.3a9 9 0 0 1-1.54-1.55l.31.4a15 15 0 0 1-1.78-3.22l.2.47-.12-.28a2.2 2.2 0 0 0-.92-1.2 2 2 0 0 0-2.74.72 2 2 0 0 0-.2 1.54Z" class="c"/><path d="M132.7 17.1c-2.28 1.2-6.19 2.13-8.6 1.53l1.2 2.94c.76-1.38 1.6-3.3.31-4.65-1.48-1.57-3.6-.47-5.3 0a38 38 0 0 1-12.11 1.13c-2.57-.14-2.56 3.86 0 4a43 43 0 0 0 8.12-.28 39 39 0 0 0 3.77-.68q.97-.22 1.92-.5a27 27 0 0 0 1.5-.47l-.88-.51.15.13-.51-.88c-.2-.48.17-.43-.06-.03l-.38.72a2.02 2.02 0 0 0 1.2 2.94 15 15 0 0 0 5.9-.1 19 19 0 0 0 5.8-1.84c2.27-1.2.26-4.65-2.02-3.45Z" class="c"/></svg>
