<svg xmlns="http://www.w3.org/2000/svg" viewBox="-30.73 0 371.183 371.183"><defs><style>.a{fill:#fff}.b{fill:#85807f}.f{fill:#211715}</style></defs><path d="M88.17 197.94c-12.53-17.62-22.33-39.77-28.98-61.64 1.54-2.28 3.68-6.53 5.45-9.33.76.5 15.54 8.26 19.6 10.57l1.76-.35c3.7-3.57 16.9-16.52 17.55-17.2 2.25 1.84 5.1 4.6 7.32 6.48l2.3 2.22a364 364 0 0 0-23.9 69.11Z" class="a"/><path d="M117.4 66.47a6.5 6.5 0 0 1 4.53-2.14 6 6 0 0 1 5.69 2.5c2.13 3.03 2.58 8.9 1.68 12.65-.64 2.66-1.71 6.73-4.9 9.86a7.2 7.2 0 0 1-5.37 2.1l-.54-.04a42 42 0 0 1-1.42 5.32c-.93 3.43-6.02 14.57-13.5 21.4V120A4299 4299 0 0 1 86 137.19l-1.76.35c-4.07-2.3-18.84-10.07-19.6-10.57v-1.55c-5.71-1.47-10.88-4.83-15.93-9.86a50 50 0 0 1-10.97-16.81 7 7 0 0 1-6.1-.95c-3.71-2.51-5.5-6.32-6.6-8.81-1.57-3.53-2.19-9.4-.64-12.75a6 6 0 0 1 5.14-3.5 6.5 6.5 0 0 1 4.84 1.3S22.71 45.8 68.27 35.8s49.13 30.67 49.13 30.67m49.37 214.19c-1.98-5.4-3.47-10.01-6-17.76a606 606 0 0 1-10.5-36.15 48 48 0 0 0 22.5 4.76 48 48 0 0 0 21.55-4.31 610 610 0 0 1-10.39 35.7c-4.11 12.63-5.46 16.91-10.72 29.9h-1.7a395 395 0 0 1-4.74-12.14" class="a"/><path d="M35.81 73.97c-.61-6.5 1.91-14.54 8.1-20.86a22.4 22.4 0 0 1 9.77-5.78l9.28-3.08c6.96 2.74 20.64 4.68 28.43 2.28a3.3 3.3 0 0 1 3.27.87c2.67 2.73 6.43 7.23 7.45 7.78 1.6.87 8.3-1.1 9.48.2 1.67 1.82 3.59 10.1 4.28 12.47l.08.28 1.45-1.66a6.5 6.5 0 0 1 4.53-2.14 8 8 0 0 1 2.3.19c1-6.38 1.3-11.1.46-16.77-2.79-18.84-8.6-26.56-20.78-33.92C93.75 4.14 81.46 1.52 69.38 2.65A51.6 51.6 0 0 0 38.78 16c-11.74 10.5-16.7 29.05-15.2 41.25a65 65 0 0 0 3.54 16.2 8 8 0 0 1 2.41-.7 6.5 6.5 0 0 1 4.85 1.28" class="b"/><path d="M66.85 158.03a262 262 0 0 1-7.79-22.12 117 117 0 0 0-31.2 17.05 61 61 0 0 0-14.4 17.57c-5.85 11.64-8.98 25.28-10.58 38.09-1.37 10.95.48 35.21 2.43 41.71 4.95 16.5 14.48 38.02 35.7 43.55 1.27 13.9 2.1 23.55 1.79 21.67 15.26.04 31.34.08 41.25.14h69.96V145.87a56 56 0 0 0-11.22-7.96c-7.93-3.89-15.78-6.74-29-10.57a365 365 0 0 0-24.5 70.45l-1.11.15a197 197 0 0 1-21.33-39.91" style="fill:#b3b3b3"/><path d="m78.46 167.84 3.3-11.08c-1.8-2.03-4.86-5.14-7.03-7.76l-.46-.56a143 143 0 0 1 9.97-10.9l1.76-.35c3.26 2.75 6.47 5.53 9.79 8.39-1.62 3.06-2.16 4.9-3.59 7.88a1.4 1.4 0 0 0 0 1.54l5.77 12.1a356 356 0 0 0-8.69 30.7l-1.1.15a173 173 0 0 1-12.53-20.7Z" style="fill:#3d8dcc"/><path d="M102.4 339.56c-5.31 0-11.12-3.15-13.52-6.45a26 26 0 0 1-4.84-17.4c1.92-23.4 2.75-31.3 4.52-46.93 1.3-11.36 4.28-21.3 9.1-28.6 8.1-12.3 21.82-18.03 37.79-25.85l1.33 2.3a81 81 0 0 1 9.35-7.04 608 608 0 0 0 14.65 53.31c4.12 12.63 5.47 16.91 10.73 29.9h1.7c5.26-12.99 6.61-17.27 10.72-29.9a609 609 0 0 0 14.66-53.31 81 81 0 0 1 9.34 7.04l1.34-2.3c15.97 7.81 29.7 13.55 37.8 25.84 4.81 7.31 7.8 17.25 9.1 28.6 1.76 15.63 4.6 34.29 4.5 44.19a25 25 0 0 1-5.24 13.97c-1.68 2.1-6.92 6.7-11.02 8.38Z" style="fill:#7abee6"/><path d="M56.6 136.06a237 237 0 0 0 21.38 50.43q3.77 6.51 8.12 12.66a2.47 2.47 0 0 0 3.28.87 2.4 2.4 0 0 0 .86-3.29c-10.3-14.53-18.1-30.77-24.2-47.46q-2.61-7.18-4.8-14.49c-.9-2.95-5.53-1.7-4.64 1.28" class="f"/><path d="M91.6 198.43a364 364 0 0 1 17.83-55.25q3.14-7.6 6.62-15.05a2.47 2.47 0 0 0-.86-3.28 2.4 2.4 0 0 0-3.29.86 378 378 0 0 0-20.7 55.2q-2.3 8.08-4.24 16.25c-.7 3 3.92 4.28 4.63 1.27m-38.12-63.17a41 41 0 0 0-7.18 12.97 2.45 2.45 0 0 0 1.68 2.95c2.8 1.08 5.59 2.18 8.3 3.46l-.48-3.77q-2.61 3.28-5.15 6.62l-2.03 2.65c-.87 1.11-2.13 2.27-2.52 3.66-.63 2.29 1.17 4.37 2.31 6.18q1.77 2.8 3.62 5.57a759 759 0 0 0 16.23 23.27q3.97 5.5 7.91 11a2.47 2.47 0 0 0 3.28.86 2.4 2.4 0 0 0 .87-3.28c-9.8-13.71-19.98-27.2-28.83-41.55-.19-.3-.47-1.05-.76-1.24-.4-.28.07.58-.02.54a6 6 0 0 0 .65-.78q1.3-1.64 2.56-3.3 2.6-3.43 5.27-6.8c.88-1.09 1.05-3.05-.48-3.77-3.1-1.45-6.27-2.7-9.46-3.94l1.67 2.96a35 35 0 0 1 5.95-10.86 2.47 2.47 0 0 0 0-3.4 2.4 2.4 0 0 0-3.4 0Zm63.32 4.1a56 56 0 0 1 7.81 12.6l.86-3.3a66 66 0 0 0-7.21 3.7q-1.75 1.03-3.42 2.17c-1.2.82-2.22 1.63-2.44 3.14a3.7 3.7 0 0 0 1.14 3.26c.96.91 2.52 1.25 3.74 1.7l6.54 2.5-1.67-2.95a162 162 0 0 1-17.25 34.92q-2.89 4.34-5.93 8.6a2.4 2.4 0 0 0 .86 3.27 2.45 2.45 0 0 0 3.29-.86c7.28-10.24 13.85-20.81 18.83-32.38q2.6-6.06 4.82-12.27a2.45 2.45 0 0 0-1.67-2.95l-4.69-1.8q-1.45-.56-2.91-1.1l-.42-.16q-.7-.36-.25 0a1.1 1.1 0 0 1 .18 1.27q-.27.37.07.08a6 6 0 0 0 1.3-.88q.57-.37 1.15-.72 1.33-.84 2.71-1.6a66 66 0 0 1 5.65-2.8c1.27-.55 1.35-2.21.87-3.28a61 61 0 0 0-8.57-13.56 2.4 2.4 0 0 0-3.39 0 2.46 2.46 0 0 0 0 3.4" class="f"/><path d="M111.87 129.29a215 215 0 0 1 23.33 7.79c6.2 2.59 12.22 5.78 17.1 10.49 2.22 2.15 5.62-1.24 3.4-3.4-8.36-8.05-19.6-12.27-30.43-15.82a342 342 0 0 0-12.13-3.7c-2.98-.85-4.25 3.79-1.28 4.64Zm-52.24 3.87a124 124 0 0 0-21.57 10.03c-6 3.55-11.92 7.5-16.73 12.56a69 69 0 0 0-7 8.63 59 59 0 0 0-5.47 10.47 115 115 0 0 0-6.8 23.41A108 108 0 0 0 .02 217.2c-.06 6.14.25 12.3.77 18.42a94 94 0 0 0 1.98 14.48 93 93 0 0 0 5.65 15.56c5.1 11.32 12.9 22.13 24.3 27.69a45 45 0 0 0 4.84 2 2.4 2.4 0 0 0 1.28-4.63c-11.42-3.98-19.34-13.55-24.64-24.05a101 101 0 0 1-6.1-15.41 60 60 0 0 1-2.2-12.06c-1.16-11.16-1.85-22.68-.2-33.82a131 131 0 0 1 5.35-22.86c2.42-7.12 5.58-13.85 10.38-19.67a63 63 0 0 1 6.33-6.7q.6-.54 1.22-1.06c.45-.38-.1.07.26-.2l1.46-1.1q2.35-1.72 4.77-3.33a114 114 0 0 1 20.17-10.69q2.6-1.05 5.26-2a2.46 2.46 0 0 0 1.67-2.95 2.4 2.4 0 0 0-2.95-1.68Zm26.35-29.35q-.42.28-.86.53l-.58.31-.3.14c-.45.21-.04-.06.04-.01a4 4 0 0 0-.76.28q-.48.16-.97.28-.56.14-1.13.24l-.36.06-.54.06a18 18 0 0 1-2.51.08l-.61-.04-.25-.02c.38.04-.14-.02-.21-.03l-.49-.1-.71-.2q-.2-.05-.38-.12c-.28-.09-.33-.26.12.07-.27-.2-.62-.3-.9-.48a2.4 2.4 0 0 0-3.28.86 2.45 2.45 0 0 0 .86 3.28c2.4 1.55 5.6 1.77 8.36 1.5a17 17 0 0 0 7.88-2.54 2.4 2.4 0 1 0-2.42-4.15m-8.5-14.69q.37 1.02.7 2.07a16 16 0 0 1 .62 2.2l-.08-.64a2 2 0 0 1 .01.44l.09-.64-.08.26.25-.58-.07.12.38-.5-.15.15.49-.37a3 3 0 0 1-.5.27l.57-.24a2 2 0 0 1-.43.12l.63-.09a5 5 0 0 1-.96-.02 2.4 2.4 0 0 0-2.4 2.4 2.45 2.45 0 0 0 2.4 2.4 8 8 0 0 0 .8.04 4.6 4.6 0 0 0 2.13-.63 3.1 3.1 0 0 0 1.56-2.06 5 5 0 0 0-.11-2.15q-.53-1.95-1.23-3.83A2.6 2.6 0 0 0 81 86.4a2.4 2.4 0 0 0-3.28.87 2.4 2.4 0 0 0-.24 1.85M54.9 79.56c-.48 2.3.43 7.4 4.7 7.45 5.59-.54 5.32-6.78 3.17-9.53-1.75-2.25-6.37-2.84-7.87 2.08m44.96-4.1c.9 2.18.91 7.36-3.28 8.18-5.6.47-6.46-5.71-4.84-8.8 1.32-2.53 5.77-3.94 8.12.63m-64.27-3.5a9.4 9.4 0 0 0-10.1-.36 9 9 0 0 0-4.14 6.66 23.7 23.7 0 0 0 5.28 18.15c2.77 3.43 6.8 5.8 11.3 4.79 3.02-.68 1.74-5.31-1.27-4.63-3.17.72-5.89-2.3-7.42-4.7a21 21 0 0 1-3.1-7.7c-.42-2.38-.55-5.4.77-7.5.26-.42-.18.14.16-.22.09-.1.57-.55.48-.48a4 4 0 0 1 1.46-.69 4.6 4.6 0 0 1 4.16.83 2.4 2.4 0 0 0 3.28-.87 2.46 2.46 0 0 0-.86-3.28" class="f"/><path d="M34.3 96.27c5.07 15.58 18.34 31.38 35.72 32.37 3.08.18 3.07-4.62 0-4.8-7.73-.44-14.26-4.63-19.61-9.98A47.4 47.4 0 0 1 38.94 95c-.95-2.93-5.6-1.67-4.63 1.28Zm84.8-28.1a4.5 4.5 0 0 1 4.06-1.43 3.4 3.4 0 0 1 2.3 1.22c.44.45-.22-.36.08.09a9 9 0 0 1 .55.9 9 9 0 0 1 .65 1.75 17 17 0 0 1 .6 4.57 20 20 0 0 1-1.71 8c-1.18 2.73-3.28 5.9-6.6 5.77-3.1-.13-3.09 4.67 0 4.8 7.5.3 11.42-7.92 12.69-14.17 1.07-5.33.56-13.54-4.74-16.6a9.4 9.4 0 0 0-11.28 1.7c-2.1 2.27 1.29 5.67 3.4 3.4" class="f"/><path d="M116.59 88.28a44 44 0 0 1-2.02 8.39q-.16.5-.35 1l-.23.58-.2.52-.22.49q-.14.36-.32.72l-.78 1.64a51 51 0 0 1-9.78 14.03 21 21 0 0 1-7.66 5.02c-2.92.96-1.67 5.6 1.27 4.63 6.4-2.11 11.23-7.2 15.07-12.53a57 57 0 0 0 7.64-14.28 47 47 0 0 0 2.38-10.21 2.4 2.4 0 0 0-2.4-2.4 2.46 2.46 0 0 0-2.4 2.4m-13.1-78.04A44.4 44.4 0 0 0 77.33.08 56.4 56.4 0 0 0 50.69 5.2a50.3 50.3 0 0 0-20.13 16.63 56 56 0 0 0-8.9 22.52 59.4 59.4 0 0 0 2.93 29.17 2.46 2.46 0 0 0 2.95 1.67 2.4 2.4 0 0 0 1.68-2.95 56 56 0 0 1-3.26-24.11 52 52 0 0 1 6.8-20.81c8.29-14.2 24.46-22.12 40.6-22.49 9.7-.22 19.2 2.57 26.74 8.81a2.47 2.47 0 0 0 3.39 0 2.4 2.4 0 0 0 0-3.4m23.18 54.11a61 61 0 0 0 .81-12.97 73 73 0 0 0-2-12.24 43 43 0 0 0-8.08-17.28 40 40 0 0 0-7.22-6.73 2.4 2.4 0 0 0-3.28.86 2.46 2.46 0 0 0 .86 3.29 32.5 32.5 0 0 1 9.74 11.53 56 56 0 0 1 5.03 18.89 53 53 0 0 1-.5 13.38 2.5 2.5 0 0 0 1.68 2.95 2.4 2.4 0 0 0 2.95-1.68ZM73.04 150.7c2.23 2.68 4.7 5.16 7.02 7.76l-.61-2.34-5.37 18c-.89 2.96 3.74 4.23 4.63 1.27l4.87-16.34c.49-1.63.9-2.8-.33-4.22q-1.02-1.14-2.07-2.24a125 125 0 0 1-4.75-5.28 2.4 2.4 0 0 0-3.4 0 2.45 2.45 0 0 0 0 3.39m20.42-5.84c-.8 1.56-1.5 3.24-2.16 4.8-.76 1.78-2.17 3.74-1.53 5.74a24 24 0 0 0 1.33 2.86l1.3 2.73 2.77 5.81a2.4 2.4 0 0 0 3.29.86 2.45 2.45 0 0 0 .86-3.28l-4.73-9.91-.33-.69a.5.5 0 0 1 .03.5c-.04.93.32-.33.44-.58l.89-2.05a69 69 0 0 1 1.98-4.37 2.46 2.46 0 0 0-.86-3.28 2.4 2.4 0 0 0-3.28.86m.69-42.8a10 10 0 0 1 .96.65l-.48-.38a10 10 0 0 1 1.68 1.68l-.37-.48a10 10 0 0 1 .6.87 2.5 2.5 0 0 0 1.43 1.1 2 2 0 0 0 .96.05 2 2 0 0 0 .9-.29 2.4 2.4 0 0 0 1.1-1.43 2.5 2.5 0 0 0-.25-1.85 12.5 12.5 0 0 0-4.11-4.07 2.5 2.5 0 0 0-1.85-.24 2.7 2.7 0 0 0-1.43 1.1 2.4 2.4 0 0 0-.25 1.84 2.5 2.5 0 0 0 1.1 1.44Z" class="f"/><path d="M62.04 136.3c1.6-2.68 3.01-5.47 4.67-8.12l-3.28.86c2.72 1.73 5.72 3.1 8.56 4.61 3.69 1.97 7.4 3.9 11.04 5.96l-.49-3.77a147 147 0 0 0-11.68 13.02 2.47 2.47 0 0 0 0 3.4 2.4 2.4 0 0 0 3.4 0 147 147 0 0 1 11.68-13.03 2.42 2.42 0 0 0-.49-3.77c-3.64-2.05-7.35-3.99-11.04-5.95-2.83-1.52-5.84-2.89-8.56-4.6a2.44 2.44 0 0 0-3.28.85c-1.66 2.65-3.07 5.43-4.68 8.11-1.6 2.66 2.55 5.07 4.14 2.42" class="f"/><path d="M112.57 124.78c-2.48-2.12-4.8-4.41-7.32-6.48a2.45 2.45 0 0 0-3.4 0c-5.71 5.85-11.66 11.5-17.54 17.2a2.4 2.4 0 0 0 0 3.39q5.64 4.79 11.24 9.64a2.46 2.46 0 0 0 3.4 0 2.4 2.4 0 0 0 0-3.39q-5.6-4.85-11.25-9.65v3.4c5.88-5.7 11.83-11.34 17.55-17.2h-3.4c2.52 2.07 4.85 4.35 7.32 6.48a2.46 2.46 0 0 0 3.4 0 2.4 2.4 0 0 0 0-3.4ZM84.05 313.29q-18.47-.1-36.94-.13l-36.22-.08-8.17-.01c-3.09 0-3.09 4.8 0 4.8q10.88 0 21.76.04l40.46.1 19.1.08c3.1.02 3.1-4.78 0-4.8m176.72 5.77c15.54.07 31.09.14 46.63.12 3.09 0 3.1-4.8 0-4.8-15.54.02-31.09-.05-46.63-.12-3.1-.01-3.1 4.79 0 4.8" class="f"/><path d="M231.2 164.03c-1.6-8.89-3.93-16.11-6.15-26.67-1.87-8.9-2.82-20.29-6.53-27.98-2.78-5.76-8.54-14.64-17.4-18.73l-5.62-3.23-1.23-.71a59 59 0 0 0-23.85-4.64c-16.43 0-30.03 7.64-36.52 13.94-7.26 7.85-10.25 15.69-13.66 30.47a683 683 0 0 0-6.17 31.2c-1.5 8.82-1.65 17.68 2.48 25.5 4.72 8.95 13.55 13.23 26.87 14.82l57.2.77c12.6.58 21.7-4.75 26.92-13.95a31.5 31.5 0 0 0 3.66-20.47" class="b"/><path d="m155.6 200.91.03-1.15a39 39 0 0 1-13.21-10.63 48 48 0 0 1-8.88-16.53 6.7 6.7 0 0 1-5.77-1.46c-3.3-2.75-4.67-6.57-5.5-9.07-1.18-3.52-1.23-9.22.55-12.3a5.8 5.8 0 0 1 5.2-2.89 7 7 0 0 1 1.18.07 6 6 0 0 1 3.33 1.61l6.05-3.43c8.09-2.47 14.36-4.33 23.31-8.58 16.43-7.8 21.36-11 30.45-18.58a220 220 0 0 1 14.34 24.87l5.37 5.78a6.3 6.3 0 0 1 4.63-1.74 5.9 5.9 0 0 1 5.27 2.93c1.8 3.1 1.71 8.82.51 12.36-.85 2.5-2.24 6.34-5.6 9.1a6.9 6.9 0 0 1-5.74 1.47c-.63 1.86-1.43 3.51-1.7 4.33-1.37 3.7-8.98 16.8-18.57 21.71 0 1.23 0 2.07.13 4a12 12 0 0 0 .58 3.33 8 8 0 0 0 2.44 3.56 19 19 0 0 0 4 2.45 578 578 0 0 1-3.69 15.08 48 48 0 0 1-21.55 4.31 48 48 0 0 1-22.49-4.76q-1.81-7.03-3.4-13.93a22 22 0 0 0 5.6-3.15 8 8 0 0 0 2.45-3.56 12 12 0 0 0 .57-3.33c.06-.77.09-1.36.11-1.87" class="a"/><path d="M174.44 168.55a37 37 0 0 1 .87 3.95l-.09-.64a2 2 0 0 1 .02.55l.08-.64-.06.25.24-.58-.08.16.37-.49-.13.13.49-.37-.32.16.58-.24a2 2 0 0 1-.53.15l.64-.08a2 2 0 0 1-.5 0l.64.08q-.28-.04-.55-.1a2 2 0 0 0-.96-.04 2 2 0 0 0-.9.29 2.4 2.4 0 0 0-.85 3.28 2.3 2.3 0 0 0 1.43 1.1c.46.06.9.18 1.37.2a4.4 4.4 0 0 0 2.06-.5 3 3 0 0 0 1.67-2 5 5 0 0 0-.02-2.12q-.34-1.9-.84-3.78a2.4 2.4 0 0 0-2.95-1.67 2.44 2.44 0 0 0-1.68 2.95m-20.52-11.28c-.66 2.14-.23 7.07 3.83 7.5 5.37-.04 5.66-6 3.85-8.8-1.48-2.3-5.83-3.25-7.68 1.3m42.98 0c.66 2.14.23 7.07-3.83 7.5-5.37-.04-5.65-6-3.85-8.8 1.48-2.3 5.83-3.25 7.68 1.3m-85.15-.24c-1.83 10.95-1.64 22.76 5.67 31.79 5.68 7.01 14.7 9.97 23.33 11.23a61 61 0 0 0 8.86.35c3.08 0 3.09-4.8 0-4.8-2.05 0-4.12.11-6.16 0a38 38 0 0 1-6.35-1.09 44 44 0 0 1-6.04-1.8 23.3 23.3 0 0 1-14.68-16.74c-1.4-5.77-.97-11.86 0-17.66a2.47 2.47 0 0 0-1.68-2.95 2.4 2.4 0 0 0-2.95 1.67" class="f"/><path d="M196.7 85.35a41 41 0 0 0-10.17-3.77 64 64 0 0 0-14.25-1.88 59.4 59.4 0 0 0-28.23 6.39 53 53 0 0 0-9.67 6.3 37 37 0 0 0-6.99 7.97c-4.52 6.73-6.85 14.66-8.75 22.46-2.75 11.3-4.84 22.77-6.89 34.22a2.47 2.47 0 0 0 1.68 2.95 2.4 2.4 0 0 0 2.95-1.68 684 684 0 0 1 5.76-29.35c1.76-7.85 3.58-16 7.52-23.1a40 40 0 0 1 5.72-7.9 35 35 0 0 1 7.75-5.88 53.6 53.6 0 0 1 24.6-7.53 60 60 0 0 1 15.74 1.24 57 57 0 0 1 6.56 1.87q1.49.53 2.95 1.11c.68.27.24.12.11.05l.47.27.72.4c2.68 1.55 5.1-2.6 2.42-4.14m32.18 79.64a28.7 28.7 0 0 1-6.68 23.22c-4.94 5.51-11.91 8.1-19.22 8.2-2.5.04-5-.04-7.5-.04-3.08 0-3.08 4.8 0 4.8 6.73 0 13.42.29 19.77-2.33a30.4 30.4 0 0 0 16.9-18.49 34 34 0 0 0 1.36-16.64 2.4 2.4 0 0 0-2.95-1.67 2.46 2.46 0 0 0-1.68 2.95" class="f"/><path d="M202.67 94.2c7.52 4.7 13.15 12.98 15.64 21.42a134 134 0 0 1 3.2 15.74c.9 5.38 2.07 10.7 3.38 16 1.42 5.74 2.93 11.47 4 17.3a2.4 2.4 0 0 0 2.95 1.68 2.45 2.45 0 0 0 1.67-2.95c-1.99-10.93-5.37-21.54-7.23-32.5a155 155 0 0 0-3.12-15.79 45 45 0 0 0-5.78-12.6 41 41 0 0 0-12.29-12.44c-2.63-1.64-5.04 2.51-2.42 4.14m-12.02 22.07a101 101 0 0 1-14.9 10.56 172 172 0 0 1-23.86 11.4c-4.57 1.74-9.26 3.16-13.94 4.59-2.94.9-1.69 5.53 1.28 4.62 4.23-1.29 8.47-2.57 12.63-4.09a154 154 0 0 0 13.84-5.97 138 138 0 0 0 19.5-10.83c3.06-2.15 5.97-4.5 8.84-6.88a2.4 2.4 0 0 0 0-3.4 2.45 2.45 0 0 0-3.4 0Z" class="f"/><path d="M190.28 119.18a228 228 0 0 1 14.33 24.86c1.38 2.77 5.52.34 4.14-2.42a227 227 0 0 0-14.33-24.86c-1.71-2.55-5.87-.15-4.14 2.42m4.24 29.4a12 12 0 0 0 3.03 2.28 9 9 0 0 0 4.13 1.16 2.5 2.5 0 0 0 1.7-.7 2.4 2.4 0 0 0-1.7-4.1l-.57-.04.64.09a7 7 0 0 1-1.66-.47l.57.24a10 10 0 0 1-2.16-1.28l.49.37a10 10 0 0 1-1.07-.95 2.4 2.4 0 0 0-3.4 3.4m-48.34 21.06c-.13 3.55-.65 7.56 1.33 10.75a6.6 6.6 0 0 0 4.37 3.09c2.2.37 4.75-.03 6.23-1.85 1.63-2 1.67-4.52 1.3-6.95a2.4 2.4 0 0 0-2.96-1.68 2.47 2.47 0 0 0-1.67 2.95c.06.44-.05-.52 0 .03l.04.51a11 11 0 0 1-.01 1.07c-.03.58.1-.42 0-.02l-.1.45-.14.43c.07-.46.2-.42.1-.23l-.12.22-.14.2c.01-.04.4-.44.15-.2l-.27.27c.16-.3.41-.28.19-.15l-.23.14-.18.1c-.18.11.55-.17.12-.07l-.51.12c-.27.07.24-.05.23-.03l-.33.03h-.55c-.56-.01.44.12-.08 0l-.45-.12-.18-.06c-.28-.08.47.25.23.1l-.36-.2c-.47-.3.26.27.02.03-.12-.11-.41-.51-.55-.55.02 0 .35.51.17.22l-.09-.13-.22-.37-.17-.32c-.23-.44.08.22.06.15l-.24-.69a11 11 0 0 1-.26-1.17c-.04-.22-.07-.12 0 .06a3 3 0 0 1-.06-.8 21 21 0 0 1-.03-1.63c.02-1.23.11-2.46.16-3.69a2.4 2.4 0 0 0-2.4-2.4 2.45 2.45 0 0 0-2.4 2.4Zm63.44-.85a22 22 0 0 1-1.5 5.15l-.78 1.89-.25.65c-.16.47 0 .04 0 .03a44 44 0 0 1-2.63 4.9 49 49 0 0 1-10.6 12.55 19.4 19.4 0 0 1-7.82 4.05c-3 .7-1.73 5.32 1.28 4.63 6.07-1.42 11.14-5.8 15.12-10.4a56 56 0 0 0 8.58-12.82 34 34 0 0 0 3.23-9.36 2.5 2.5 0 0 0-1.67-2.95 2.4 2.4 0 0 0-2.95 1.68Zm-79.3 1.12a50.6 50.6 0 0 0 11.1 21.74c5.32 6.1 12.4 11.3 20.57 12.53a2.5 2.5 0 0 0 2.95-1.68 2.4 2.4 0 0 0-1.67-2.95c-7.47-1.12-13.6-5.73-18.46-11.3a45.5 45.5 0 0 1-9.85-19.62c-.7-3-5.33-1.74-4.63 1.27Z" class="f"/><path d="M134.35 146.86a9.3 9.3 0 0 0-10.12-1.5 8.9 8.9 0 0 0-4.6 6.05c-1.56 5.88-.08 12.62 3.2 17.68 2.3 3.5 5.97 6.7 10.45 6.12a2.5 2.5 0 0 0 2.4-2.4 2.4 2.4 0 0 0-2.4-2.4c-3.35.43-5.6-2.32-7.04-5a19 19 0 0 1-2.34-7.33c-.2-2.46-.17-5.38 1.27-7.5.27-.4-.21.19.14-.16l.5-.46a4 4 0 0 1 1.37-.57 4.3 4.3 0 0 1 3.77.86c2.3 2.05 5.7-1.33 3.4-3.4Zm79.47 3.4a4.2 4.2 0 0 1 3.77-.87 4 4 0 0 1 1.41.61c-.2-.14.31.28.38.34l.23.25-.06-.08c1.51 2.08 1.52 5.12 1.31 7.58a19 19 0 0 1-2.24 7.17c-1.45 2.73-3.72 5.6-7.13 5.16a2.4 2.4 0 0 0-2.4 2.4 2.46 2.46 0 0 0 2.4 2.4c7.24.94 11.69-7 13.43-12.86 1.53-5.13 1.53-13.06-3.39-16.43a9.2 9.2 0 0 0-11.11.93c-2.3 2.06 1.1 5.45 3.4 3.4" class="f"/><path d="M213.65 171.34c-3.2 0-5.42 2.26-5.42 4.9 0 2.94 2.27 4.97 5.42 4.97 3.28 0 5.42-2.05 5.42-4.98 0-2.65-2.22-4.89-5.42-4.89" class="a"/><path d="M213.65 168.94a7.8 7.8 0 0 0-7.46 5.08 7.3 7.3 0 0 0 2.76 8.21 8.8 8.8 0 0 0 8.8.4 7.3 7.3 0 0 0 3.58-7.78c-.62-3.64-4.18-5.87-7.68-5.91a2.4 2.4 0 0 0 0 4.8l.49.02c.43 0-.12 0-.17-.04.11.1.58.11.75.16l.42.14c.39.12-.15-.04-.17-.08.1.14.57.3.73.41.06.04.45.29.1.06s0 .02.06.08l.46.48c-.38-.28-.24-.34-.1-.1l.17.27.16.3-.11-.27.09.24a4 4 0 0 0 .16.65c-.02-.04-.05-.63-.04-.24l.02.4v.3c-.02.24-.16.51.03-.1-.08.24-.1.5-.16.73l-.1.3c.04-.45.2-.4.06-.15q-.14.27-.32.54c-.14.24-.27.14.11-.13l-.17.19q-.12.15-.27.26c-.23.21-.33.12.1-.05-.2.08-.38.25-.56.35l-.36.17c.04-.03.56-.2.19-.09l-.68.2a2 2 0 0 0-.44.08l.34-.05-.3.02a7 7 0 0 1-.8.01l-.3-.02c-.54-.02.57.12.04.01q-.34-.07-.7-.17l-.26-.09q-.36-.14.19.09l-.25-.12q-.3-.16-.57-.34c-.27-.18-.1-.2.17.14l-.3-.26c-.08-.09-.48-.58-.24-.24s0-.01-.03-.07q-.12-.16-.2-.34c-.13-.24-.09-.45.02.1l-.1-.25q-.1-.32-.17-.65c-.11-.5.03.6.02.08l-.02-.3v-.41c.03-.34.17-.3-.02.1a7 7 0 0 0 .2-.76c.11-.36-.06.17-.09.2a3 3 0 0 0 .25-.46l.14-.22c.23-.38-.4.41 0 .01.13-.14.44-.34.52-.52l-.27.21.58-.38q.17-.07.32-.16.24-.12-.24.1l.27-.1a8 8 0 0 1 .88-.23c.36-.07-.15.09-.17.03l.64-.03a2.4 2.4 0 0 0 0-4.8ZM147.6 215.1c3.2-1.33 6.6-2.96 8.52-6 1.75-2.79 1.86-6.14 1.9-9.34a2.4 2.4 0 0 0-4.8 0 52 52 0 0 1-.21 4.03l-.02.15a9 9 0 0 1-.24 1.11l-.15.43c-.22.62.13-.22-.04.1q-.22.48-.48.93l-.22.34c-.11.17-.26.36-.05.1a7 7 0 0 1-.71.76l-.32.28c.29-.26-.1.06-.15.1q-.45.33-.92.63a20 20 0 0 1-1.78 1q-.48.25-.97.47l-.4.18c-.03.01-.69.3-.24.1a2.46 2.46 0 0 0-1.67 2.95c.36 1.11 1.7 2.2 2.95 1.68m40.86-16.28c0 3.1 0 6.33 1.32 9.2 1.41 3.1 4.39 4.98 7.39 6.35a2.46 2.46 0 0 0 3.28-.86 2.43 2.43 0 0 0-.86-3.28 21 21 0 0 1-3.7-2.1c-.1-.07-.43-.34-.2-.14l-.4-.35a7 7 0 0 1-.63-.69c.22.26.07.08-.04-.1l-.22-.34q-.25-.44-.48-.92c-.23-.48.1.34 0 0l-.2-.57a10 10 0 0 1-.23-1.07q-.05-.25 0 .03l-.03-.24-.04-.48a54 54 0 0 1-.17-4.44 2.4 2.4 0 1 0-4.8 0Z" class="f"/><path d="M160.59 292.14c-9.44-16.36-18.77-32.79-27.47-49.55-.55-1.06-1.03-2.21-1.66-3.22-.33-.52-.16-.5-.26-.18-.07.26.35-.37.42-.46q.64-.68 1.29-1.34 2.85-2.91 5.84-5.67a2.42 2.42 0 0 0-.49-3.77l-3.63-2.08-1.7-.97-.86-.49-.43-.24q-.46-.3.05.13l.32 1.21c-.02.47.22-.26.36-.49q.3-.5.64-.97a20 20 0 0 1 1.44-1.78 48 48 0 0 1 4.26-4.15 74 74 0 0 1 8.63-6.47l-3.53-1.43a612 612 0 0 0 19.32 67.38 352 352 0 0 0 6.06 15.83 2.5 2.5 0 0 0 2.95 1.68 2.4 2.4 0 0 0 1.68-2.95 521 521 0 0 1-20.38-62.79q-2.68-10.17-5-20.42a2.42 2.42 0 0 0-3.53-1.44 71 71 0 0 0-13.16 10.61 33 33 0 0 0-2.7 3.26 8 8 0 0 0-1.82 3.75c-.13 2.16 1.67 3 3.27 3.92l5.34 3.05-.49-3.77q-2.71 2.53-5.35 5.17c-2.64 2.64-4.1 3.72-3.44 6.51a16 16 0 0 0 1.58 3.4l1.68 3.23q1.77 3.39 3.57 6.76c4.76 8.9 9.67 17.7 14.64 26.48q4.18 7.36 8.41 14.69c1.54 2.67 5.7.26 4.15-2.43" class="f"/><path d="M134.23 212.26c-10.07 4.92-20.59 9.42-29.36 16.53a45 45 0 0 0-10.04 11.36 58 58 0 0 0-6.27 15.32c-2.5 9.48-3.14 19.44-4.14 29.17a1507 1507 0 0 0-2.7 30.08 29.3 29.3 0 0 0 4.4 18.62 20.2 20.2 0 0 0 16.28 8.62c3.09.04 3.1-4.76 0-4.8a15.2 15.2 0 0 1-12.34-6.57 24.5 24.5 0 0 1-3.62-14.89c.6-9.8 1.63-19.6 2.61-29.38 1.84-18.24 2.53-39.06 17.05-52.28 8.7-7.93 20.1-12.53 30.56-17.64a2.4 2.4 0 0 0 .86-3.28 2.45 2.45 0 0 0-3.29-.87Zm54.04 82.3c10-17.34 19.89-34.76 29.02-52.57a5.5 5.5 0 0 0 .78-4.25 9 9 0 0 0-2.55-3.41q-3.02-3.09-6.17-6l-.48 3.76 5.12-2.92c1.66-.95 3.6-1.8 3.49-4.04a8 8 0 0 0-1.81-3.75 33 33 0 0 0-2.72-3.26 71 71 0 0 0-13.16-10.61 2.42 2.42 0 0 0-3.52 1.43 612 612 0 0 1-19.32 67.38 354 354 0 0 1-6.06 15.83 2.4 2.4 0 0 0 1.67 2.96 2.46 2.46 0 0 0 2.96-1.68 520 520 0 0 0 20.38-62.79q2.68-10.16 5-20.42l-3.53 1.43a74 74 0 0 1 8.63 6.47 48 48 0 0 1 4.15 4.03 21 21 0 0 1 1.46 1.77q.35.48.65.98l.29.48c.12.18.16.59.14.13l.33-1.21c.2-.39.29-.24-.17-.01l-.85.49-1.92 1.1-3.63 2.07a2.42 2.42 0 0 0-.49 3.77q2.56 2.38 5.02 4.84.66.66 1.3 1.33c.32.33.73.99 1.12 1.19.46.23.13.2.1.12-.13-.46-.1-.03-.25.17a10 10 0 0 0-.83 1.6q-3.23 6.27-6.58 12.48-6.8 12.6-13.9 25.03-3.88 6.84-7.82 13.66c-1.55 2.68 2.6 5.1 4.14 2.43Z" class="f"/><path d="M149.98 229.26a54 54 0 0 0 22.78 4.65 53.5 53.5 0 0 0 22.79-4.65 2.4 2.4 0 0 0 .86-3.28 2.46 2.46 0 0 0-3.29-.86 48 48 0 0 1-20.36 4 48 48 0 0 1-20.36-4 2.47 2.47 0 0 0-3.28.86 2.4 2.4 0 0 0 .86 3.28" class="f"/><path d="M172.86 266.73c-29.1.21-58.07.38-68.36.41a2.96 2.96 0 0 0-2.94 2.97c.06 16.72.86 74.55 1.48 95.8a2.96 2.96 0 0 0 3 2.88c9.3-.14 38.1-.06 66.82.04 28.73-.1 57.52-.18 66.82-.04a2.96 2.96 0 0 0 3.01-2.88c.61-21.25 1.42-79.08 1.48-95.8a2.96 2.96 0 0 0-2.95-2.97c-10.28-.03-39.25-.2-68.36-.41" class="a"/><path d="M104.5 264.74a5.6 5.6 0 0 0-4.57 2.57 7 7 0 0 0-.77 3.78q0 2.41.03 4.82.05 6.4.13 12.81.19 16.7.45 33.39.25 16.17.58 32.35l.15 6.45a37 37 0 0 0 .25 5.98 5.5 5.5 0 0 0 5.66 4.3l1.79-.02q7.38-.05 14.76-.05 11.84-.03 23.68-.03l27.84-.01 27.58.01 22.9.03q6.74.01 13.47.05a9 9 0 0 0 2.87-.22 5.5 5.5 0 0 0 3.6-3.73 14 14 0 0 0 .24-3.23q.17-6.38.3-12.76.33-16.55.57-33.1.24-16.33.43-32.65l.1-11.9c.02-1.85.3-3.98-.48-5.7a5.6 5.6 0 0 0-5.47-3.13l-12.59-.02H125.16l-16.77.01zc-3.09.02-3.1 4.82 0 4.8h10.9l20.61-.01h98.21l5.46.01a8 8 0 0 1 1.56 0c.96.21.52 2.68.51 3.49q-.09 13.15-.28 26.32-.21 16.8-.5 33.59-.23 14.47-.57 28.96l-.07 2.69c-.02.46.16 1.44-.3 1.73-.35.22-1.25.06-1.66.05l-5.25-.02q-9.09-.04-18.17-.05l-25.11-.02h-27.6l-26.1.02-20.14.04-6.61.02-2.14.02c-.42 0-1.28.15-1.6-.1-.46-.36-.25-1.54-.26-2.08l-.07-2.73-.15-6.1q-.16-7.42-.29-14.84-.3-16.78-.53-33.56-.2-14.57-.34-29.14l-.04-4.88c0-.72-.42-3.34.53-3.4 3.07-.2 3.1-5 0-4.8" class="f"/><path d="M115.47 358.9c14.07-.09 28.14-.01 42.2.03 16.96.05 33.93-.03 50.89-.05q10.1-.03 20.2.02c3.1.02 3.1-4.78 0-4.8-13.75-.09-27.5-.01-41.26.03-17.13.06-34.25-.03-51.38-.05q-10.32-.03-20.64.02c-3.1.02-3.1 4.82 0 4.8Zm48.16-48.48v5.74c0 2.14-.3 4.5 1.37 6.16 1.62 1.6 3.84 1.34 5.92 1.34h5.66a6 6 0 0 0 3.14-.6 4.6 4.6 0 0 0 2.2-2.88 15 15 0 0 0 .15-3.14v-5.79a6 6 0 0 0-.7-3.26 4.6 4.6 0 0 0-3.2-2.1 20 20 0 0 0-2.66-.07h-6.3a6 6 0 0 0-3.48.74 4.8 4.8 0 0 0-2.1 3.85 2.4 2.4 0 0 0 2.4 2.4 2.45 2.45 0 0 0 2.4-2.4v-.19q-.06.5.04.1l-.1.25q.22-.34-.06.05c.15-.09.28-.13-.08.03.5-.22-.48 0 .08-.05-.67.06.27.02.44.02h8.02a3 3 0 0 1 .89 0l-.27-.02q.38.13-.07-.04c.38.33-.33-.18.07.06l-.16-.2q.2.34 0-.1l.06.18q-.04-.5-.02-.09v8.09q-.02.29 0 .57c-.03-.51.02-.12-.05.1.04-.15.04-.44 0-.1l.15-.2q-.29.26.08-.04c-.56.12.37-.06 0 .02s.6.02 0 0h-8.86a2 2 0 0 1-.53 0c.78.34-.38-.37.34.07-.51-.32.44.27-.07-.06q.27.4.06.06l.1.24c-.07-.2-.03-.6-.05-.09v-8.66a2.4 2.4 0 0 0-4.8 0Zm44.42-94.02c9.03 4.41 18.44 8.45 26.6 14.4a42 42 0 0 1 9.3 9.09 46 46 0 0 1 6.16 12.18c3.47 10.17 4.14 21.02 5.46 31.61 1.18 9.42 2.65 18.97 2.7 28.48a22 22 0 0 1-4.15 12.53 24 24 0 0 1-4.42 4.43 27 27 0 0 1-6.5 4.12 2.4 2.4 0 0 0-.87 3.29 2.47 2.47 0 0 0 3.29.86 29 29 0 0 0 6.31-3.95 35 35 0 0 0 4.78-4.33 26.3 26.3 0 0 0 6.04-13.03c.63-3.96.23-8.04-.1-12a398 398 0 0 0-1.7-15.69c-.68-5.57-1.4-11.13-2.06-16.7a114 114 0 0 0-2.96-17.02c-2.65-9.62-7.35-18.42-14.99-24.97-8.93-7.66-20-12.33-30.47-17.45a2.46 2.46 0 0 0-3.28.86 2.4 2.4 0 0 0 .86 3.29m-162.8 98.94c-.2-3.97-.63-7.93-.98-11.88q-1-11.26-2.05-22.52-2.31-24.81-4.78-49.6c-.49-4.86-.88-9.76-1.6-14.6a2.4 2.4 0 0 0-2.95-1.67 2.46 2.46 0 0 0-1.68 2.95c.11.71-.08-.7.01.04l.12.96.3 2.6.8 7.61q1.14 11.26 2.21 22.51 2.4 24.8 4.64 49.62c.41 4.65.92 9.3 1.16 13.97.15 3.08 4.95 3.1 4.8 0Z" class="f"/><path d="M238.57 229.84c-.2-6.39-6.34-14.66-12.91-18.88-6.28-4.04-9.6-5.67-16.11-4.3a13 13 0 0 0-7.85 4.82 1.5 1.5 0 0 0 .2 1.94l4.4 3.37.5.47-2.17 4.34a12 12 0 0 0-1.69 5.31c.02 3.9 4.61 7 8.24 5.57a5.8 5.8 0 0 0 4.07 4.02c1.93.5 3.84.4 5.25-1.03a7 7 0 0 0 5.52 3.56 14.4 14.4 0 0 0 8.16-1.97 7.2 7.2 0 0 0 4.4-7.22" class="a"/><path d="M240.97 229.84c-.21-4.63-2.45-8.94-5.2-12.57a40 40 0 0 0-11.58-10.06c-4.07-2.42-8.24-3.86-13.01-3.24a18 18 0 0 0-7.7 2.62c-2.1 1.37-4.96 3.72-4.36 6.54.37 1.75 1.96 2.67 3.28 3.68l1.93 1.47.59.45c.48.38-.74-.63.19.23l-.38-2.91c-1.95 3.91-5.42 8.77-3.75 13.32 1.54 4.2 6.49 7 10.84 5.42l-2.95-1.68c1.7 5.5 8.9 8.18 13.33 4.06l-3.77-.49c2.79 5.02 8.89 5.54 13.85 3.9a15 15 0 0 0 6.3-3.82 10 10 0 0 0 2.4-6.92c-.05-3.09-4.85-3.1-4.8 0 .04 3.26-2.2 5.13-5.17 6.12-2.87.94-6.72 1.4-8.44-1.7a2.43 2.43 0 0 0-3.77-.48c-1.73 1.6-4.69.05-5.3-1.94a2.4 2.4 0 0 0-2.96-1.68c-2.02.74-4.89-.52-5.19-2.95-.2-1.59.86-3.4 1.57-4.81l1.96-3.93a2.5 2.5 0 0 0-.38-2.9c-1.53-1.43-3.31-2.62-4.97-3.9-.07-.05-.26-.24-.35-.26.02 0 .41 1.28.65 1.2.3-.1.77-.84 1.02-1.07a8 8 0 0 1 1.21-.91 14 14 0 0 1 5.5-1.91c3.73-.51 6.87.67 10.03 2.53a36 36 0 0 1 9.55 7.86c2.46 2.95 4.85 6.84 5.03 10.73.15 3.07 4.95 3.09 4.8 0m2.55-37.72q-2.57 3.22-5.37 6.25a2.5 2.5 0 0 0-.7 1.7 2.4 2.4 0 0 0 4.1 1.7q2.8-3.02 5.37-6.25a2.6 2.6 0 0 0 .7-1.7 2.4 2.4 0 0 0-.7-1.7 2.4 2.4 0 0 0-1.7-.7 2.3 2.3 0 0 0-1.7.7m12.53 10q-5.52 2.2-11.02 4.44a2.6 2.6 0 0 0-1.43 1.1 2.4 2.4 0 0 0 2.7 3.52q5.5-2.24 11.03-4.44a2.6 2.6 0 0 0 1.43-1.1 2.5 2.5 0 0 0 .25-1.85 2.4 2.4 0 0 0-2.96-1.67m-8.15 19.65q4.65.18 9.27.7a2.4 2.4 0 0 0 1.7-.7 2.4 2.4 0 0 0 0-3.39 2.8 2.8 0 0 0-1.7-.7q-4.62-.52-9.27-.7a2.4 2.4 0 0 0-2.4 2.4 2.45 2.45 0 0 0 2.4 2.4Zm-77.28-33.56q.82-.13 1.63-.28l.3-.04c-.09.02-.54.05-.21.03l.61-.02c.4 0 .03.01-.15-.04l.3.05q.44.1.87.17a8 8 0 0 0 2.53.04c.45-.08.86-.25 1.3-.35l.37-.07c.3-.08-.5.04-.19.02l.68-.04c.33-.01.45.02.67.02.28 0-.48-.11-.23-.02l.26.06.3.1c-.04 0-.53-.24-.25-.1.34.19-.35-.33-.18-.14s-.36-.55-.15-.2a2.4 2.4 0 1 0 4.15-2.42c-1.48-2.35-4.81-2.43-7.2-1.7l-.37.13c-.08.02-.56.17-.2.05.3-.1-.1-.02-.21-.02-.08 0-.6-.05-.23-.01s-.23-.05-.25-.05l-.47-.1a9 9 0 0 0-1.2-.17 18 18 0 0 0-3.75.47 2.4 2.4 0 0 0-1.67 2.96 2.5 2.5 0 0 0 2.95 1.67Zm-85.76-28.06a24 24 0 0 1 2.26-1.14l-.58.24a9 9 0 0 1 2.11-.6l-.64.1a6 6 0 0 1 1.05-.05 2.4 2.4 0 0 0 2.4-2.4 2.45 2.45 0 0 0-2.4-2.4c-2.39-.1-4.59.99-6.63 2.1a2.4 2.4 0 1 0 2.43 4.15M53.05 45.02a27.3 27.3 0 0 0-14.68 11.12 28.3 28.3 0 0 0-4.96 17.83 2.46 2.46 0 0 0 2.4 2.4 2.4 2.4 0 0 0 2.4-2.4A24 24 0 0 1 42.3 58.9a22 22 0 0 1 12.03-9.26c2.93-.95 1.68-5.59-1.27-4.63m9.27 1.54a56 56 0 0 0 14.54 3.15 54 54 0 0 0 7.78.26 45 45 0 0 0 7.25-1.09c.97-.2 1.36.5 2 1.18q1.36 1.47 2.7 2.96c1.27 1.4 2.57 3.18 4.21 4.18 1.6.96 3.74.59 5.48.4.98-.1 1.96-.24 2.94-.27a7 7 0 0 1 1.16.02c-.64-.08-.1-.04-.07 0q.4.13-.14-.07a1 1 0 0 1-.46-.45 8 8 0 0 0 .6 1.04 7 7 0 0 1 .46 1.11q.64 1.74 1.14 3.52c.59 1.99 1.07 4 1.64 6 .86 2.95 5.5 1.7 4.63-1.29-1.14-3.96-1.91-8.14-3.77-11.86a4.8 4.8 0 0 0-4.7-2.83c-2-.02-3.98.46-5.98.49h-.45c-.61 0-.14-.1-.12 0l-.15-.04q.5.24.22.08c.05.04.43.41.14.1-.73-.75-1.5-1.47-2.21-2.24-1.76-1.92-3.44-4.3-5.56-5.84-2.56-1.85-5.1-.6-7.87-.18a39 39 0 0 1-7.5.27 53 53 0 0 1-16.63-3.23 2.4 2.4 0 0 0-2.95 1.68 2.46 2.46 0 0 0 1.67 2.95" class="f"/></svg>
