<svg xmlns="http://www.w3.org/2000/svg" viewBox="0 -44.44 455.4 455.4"><defs><style>.a{fill:#85807f}.b{fill:#fff}.c{fill:#7abee6}.e{fill:#211715}.f{fill:#3d8dcc}</style></defs><path d="M176.6 124.65c-1.57-8.73-3.86-15.82-6.04-26.19-1.83-8.72-2.76-19.91-6.4-27.47-2.73-5.65-8.39-14.37-17.08-18.38l-5.53-3.17-1.2-.7a58 58 0 0 0-23.42-4.55c-16.13 0-29.47 7.5-35.84 13.69-7.14 7.7-10.07 15.4-13.41 29.9a670 670 0 0 0-6.06 30.62c-1.47 8.66-1.63 17.37 2.43 25.04 4.63 8.79 13.3 13 26.38 14.55l56.14.76c12.38.57 21.31-4.66 26.44-13.7a31 31 0 0 0 3.6-20.1" class="a"/><path d="M103.4 188.72a44 44 0 0 1-6.24-2.5 598 598 0 0 1-3.34-13.67 22 22 0 0 0 5.5-3.1 8 8 0 0 0 2.4-3.5 12 12 0 0 0 .57-3.27c.1-1.36.12-2.17.12-2.96a38 38 0 0 1-12.96-10.43 47 47 0 0 1-8.67-16.08 6.8 6.8 0 0 1-5.57-1.46c-3.3-2.7-4.67-6.47-5.5-8.93-1.18-3.47-1.26-9.09.5-12.13a5.8 5.8 0 0 1 5.17-2.87 6.5 6.5 0 0 1 2.94.59c11.99-3.89 18.94-5.37 30.25-10.74 16.12-7.66 20.97-10.8 29.9-18.24a216 216 0 0 1 14.06 24.41l5.34 5.62a6.2 6.2 0 0 1 4.49-1.64 5.8 5.8 0 0 1 5.17 2.87c1.75 3.04 1.68 8.66.5 12.13-.84 2.46-2.2 6.23-5.5 8.93a6.8 6.8 0 0 1-5.28 1.52l-.36-.06c-.62 1.82-1.4 3.44-1.67 4.24-1.34 3.64-8.81 16.5-18.22 21.31 0 1.21 0 2.03.13 3.93a12 12 0 0 0 .56 3.27 8 8 0 0 0 2.4 3.5 19 19 0 0 0 3.92 2.4 575 575 0 0 1-3.62 14.8 47 47 0 0 1-21.15 4.24 48 48 0 0 1-15.84-2.18" class="b"/><path d="M113.35 239.13c-1.94-5.3-3.4-9.82-5.88-17.43a597 597 0 0 1-10.31-35.48 47 47 0 0 0 22.07 4.67 47 47 0 0 0 21.16-4.23 595 595 0 0 1-10.2 35.04c-4.03 12.4-5.36 16.6-10.53 29.35H118c-2-4.93-3.42-8.58-4.65-11.92" class="c"/><path d="M358.14 273.55h-83.18l-.79-1.56-26.23-51.86-.2-.55a16 16 0 0 1-.9-7.26c.75-6.83 2.04-19.95 2.63-24.43a136 136 0 0 1 9.72-35.66 93 93 0 0 1 5.85-10.37c2.07-3.3 6.73-7.2 9.36-8.85 6.93-4.4 17.52-8.5 26.17-11.44l3.87-1.32.42 4.7c1 11.37 9.29 47.71 14.32 61.39 2.84 7.7 4.38 11.38 7.94 20.37-1.83 5.92 17.66-40.08 25.74-64.72 2.89-8.83 6.4-17.89 8.66-28.32 2.94 2.14 7.73 5.54 9.1 6 6.77 2.26 15.44 5.4 22.23 7.85 7.95 2.88 14.63 6.45 20.46 12.57 5.24 5.5 9.82 16.12 12.54 25.46l2.01 8.47c1.41 4.52 3.5 13.51 5.21 22.03 2.79 16.98 3.22 31.7-4.92 47.9-1.87 3.73-5.51 9.47-8.58 12.37a34 34 0 0 1-8.07 5.7l.32 1.2c.9 3.33 1.84 6.83 2.8 10.33Z" style="fill:#b3b3b3"/><path d="M251.79 188.52a136 136 0 0 1 9.56-35.29 59 59 0 0 1 3.59-6.63 35 35 0 0 1 3.95-5.8 42 42 0 0 1 12.79-9.09 161 161 0 0 1 19.53-7.83c2.9-1 1.66-5.63-1.28-4.63a186 186 0 0 0-18.42 7.24 52 52 0 0 0-14.4 9.28c-3.93 3.75-6.77 8.72-9.2 13.55a101 101 0 0 0-6.08 16.16 148 148 0 0 0-4.67 21.76 2.5 2.5 0 0 0 1.68 2.95 2.4 2.4 0 0 0 2.95-1.67" class="e"/><path d="M355.27 226.03c5.85-3.3 15.78-8.32 22-11.52-30.51 0-66.84-.88-97.51-.91a9 9 0 0 0-3.36.64c-8.27 3.31-31.45 13.93-38.07 18.25-.61.37-1.71 1.51-1.71 1.88v30.75c0 1.26.49 1.68 1.76 1.68l96.06 2.22 1.35.03V235.7a636 636 0 0 0 10.1-5.61Z" class="f"/><path d="m343.63 99.14 15.5 12.76 2.3 1.7-.25 1.54c-2.26 9.82-5.58 18.43-8.33 26.84-6.38 19.48-19.9 52.29-24.38 62.28l-2.16.42c-3-7.57-4.52-11.25-7.13-18.35-5.04-13.67-13.33-50.01-14.33-61.39Z" class="b"/><path d="M380.99 267.36c8.1 1.13 16.45 1.57 24.44-.52a34.7 34.7 0 0 0 18.27-11.54 63 63 0 0 0 11.58-23.47 75 75 0 0 0 1.48-26.4 188 188 0 0 0-5.32-27.55c-1.1-4.25-2.14-8.5-3.22-12.76a78 78 0 0 0-3.75-10.73 67 67 0 0 0-5.9-11.48c-4.57-6.83-11.44-11.83-18.86-15.2-3.97-1.8-8.1-3.2-12.2-4.68a954 954 0 0 0-12.84-4.53q-1.51-.53-3.03-1.03l-.46-.16c-.03 0 .53.26.31.13l-.59-.3a40 40 0 0 1-3-1.91 195 195 0 0 1-6.37-4.53l-1.17-.87a2.4 2.4 0 0 0-3.29.86 2.46 2.46 0 0 0 .86 3.28 109 109 0 0 0 10.24 7.13 19 19 0 0 0 3.5 1.44q2.97 1 5.93 2.05 6.2 2.18 12.38 4.43c7.51 2.7 14.69 5.94 20.48 11.58 5.62 5.47 8.9 13.14 11.44 20.43 1.54 4.41 2.45 8.9 3.61 13.4 1.9 7.38 3.9 14.74 5.26 22.25a92 92 0 0 1 1.37 25.66 58 58 0 0 1-7.9 23.73 39 39 0 0 1-6.75 8.9 32 32 0 0 1-8.26 5.48c-6.48 2.97-13.85 3.37-20.86 2.9q-3.06-.2-6.1-.62a2.5 2.5 0 0 0-2.95 1.67 2.4 2.4 0 0 0 1.68 2.96Z" class="e"/><path d="m416.93 272.9-2.79-10.32a2.4 2.4 0 0 0-4.63 1.27l2.8 10.33a2.4 2.4 0 0 0 4.62-1.27" class="e"/><path d="M453.08 273.15h-74.22c-3.09 0-3.1 4.8 0 4.8h74.22c3.09 0 3.1-4.8 0-4.8" class="e"/><path d="M378.5 215.43c-.7 9.05-.92 21.07-.58 32.47 0 0 .74 3.51 1.46 7.05-1.18 8.48-1.15 18.49-.89 27.59l-.43 8.22c0 6.9.23 19.05.46 26.72-12.38 7.18-24.62 13.63-38.05 21.01h-3.25v-34.16l-1.05-2.57v-30.93l-.38-4V235.6l1.05-.52c2.21-1.16 6.6-3.6 9.06-5l9.37-4.04c5.85-3.29 15.78-8.31 22-11.52" class="b"/><path d="M322.2 151.44q4.26-.2 8.52-.28a2.4 2.4 0 0 0 0-4.8q-4.26.09-8.52.28a2.4 2.4 0 0 0 0 4.8" class="e"/><path d="M333.28 193.04c1.53-3.64 3.23-7.79 5-12.19l-1.7-6.84c-.99-3.98-4.16-22.94-4.2-24.2 1.06-3.8 2.26-8.22 3.5-12-4-2.72-8.6-5.5-11.23-7.22-2.7 2.35-4.82 4.27-7.2 6.72l.23.65c1.02 2.88 2.87 7.6 3.96 10.2-.64 3.31-1.44 6.95-1.85 10.04a176 176 0 0 0-2.02 23.96q.73 2.33 1.41 4.17c2.62 7.1 4.13 10.78 7.13 18.34l2.17-.41c1.12-2.5 2.8-6.43 4.8-11.22" class="f"/><path d="M315.36 138.6a210 210 0 0 0 3.96 10.2v-1.29a200 200 0 0 0-3.77 29.81c-.14 3.1 4.66 3.09 4.8 0a177 177 0 0 1 1.93-19.72q.47-2.86 1.06-5.72c.2-1.02.45-2.05.61-3.09a4 4 0 0 0-.45-2.38q-1.86-4.5-3.5-9.09a2.46 2.46 0 0 0-2.96-1.67 2.4 2.4 0 0 0-1.68 2.95m18.2-1.43q-.96 2.99-1.82 6a43 43 0 0 0-1.72 6.32 17 17 0 0 0 .52 4.3q1.15 7.37 2.5 14.7c.37 2.06.72 4.13 1.22 6.16.74 3 5.37 1.73 4.63-1.27-1-4.09-1.62-8.29-2.34-12.43l-1.19-7.16q-.22-1.35-.42-2.72l-.13-.91c-.07-.46.03.31.03.2l-.04-.32c0-.06.02-.3 0-.1-.05.34.13-.33.12-.31q.17-.53.3-1.05l.9-3.26a201 201 0 0 1 2.06-6.87c.95-2.95-3.68-4.21-4.63-1.28Z" class="e"/><path d="M316.93 141.35a117 117 0 0 1 9.4-9.06l-2.9.38c4.5 2.92 9.12 5.64 13.47 8.8a2.4 2.4 0 0 0 3.28-.87 2.45 2.45 0 0 0-.86-3.28c-4.34-3.15-8.97-5.87-13.47-8.8a2.45 2.45 0 0 0-2.9.38 117 117 0 0 0-9.41 9.06c-2.1 2.27 1.3 5.67 3.4 3.39m54.98-12.66a31 31 0 0 1 2.72 4.77 12 12 0 0 1 1.16 3.2v-1.28q1-1.36.51-.92.58-.43.26-.21l-.34.21q-.57.34-1.16.64-1.68.88-3.38 1.7-3.43 1.66-6.87 3.3a2.42 2.42 0 0 0-.49 3.78q2.01 2.14 4 4.3a40 40 0 0 1 3.97 4.47c.74 1.1-.18 1.9-.79 2.83q-1.24 1.89-2.45 3.79c-4.23 6.57-8.4 13.2-12.6 19.79-1.66 2.61 2.5 5.02 4.15 2.42 4.52-7.1 8.99-14.21 13.55-21.28.8-1.24 1.68-2.45 2.44-3.73a5.9 5.9 0 0 0-.06-6.07 32 32 0 0 0-4.21-4.95q-2.28-2.5-4.6-4.97l-.49 3.77c3.76-1.82 7.67-3.46 11.28-5.57a4.3 4.3 0 0 0 1.67-1.42c.6-1.06.2-2.28-.18-3.34a33 33 0 0 0-3.94-7.66 2.46 2.46 0 0 0-3.29-.86 2.4 2.4 0 0 0-.86 3.28Zm-69.46-3.75c.87 9.6 3.16 19.15 5.29 28.51a321 321 0 0 0 8.33 31.24c2.35 6.97 5.21 13.78 7.93 20.62a2.47 2.47 0 0 0 2.95 1.68 2.4 2.4 0 0 0 1.68-2.95c-2.52-6.35-5.12-12.67-7.4-19.1a181 181 0 0 1-4.04-13.3q-4.5-16.57-7.8-33.45-.76-3.92-1.42-7.85l-.24-1.58-.13-.84-.07-.5-.06-.53-.08-.63-.14-1.32a2.46 2.46 0 0 0-2.4-2.4 2.4 2.4 0 0 0-2.4 2.4" class="e"/><path d="M358.88 114.5c-1.83 7.84-4.48 15.42-7.06 23.02-1.96 5.78-3.9 11.56-6 17.28a950 950 0 0 1-19.41 48.24 2.5 2.5 0 0 0 .86 3.29 2.4 2.4 0 0 0 3.28-.86c4.19-9.33 8-18.83 11.79-28.32a637 637 0 0 0 13.1-35.33c2.86-8.64 6-17.17 8.07-26.04.7-3-3.93-4.3-4.63-1.28m-69.76 16.98a33 33 0 0 0-3.66 5.42c-.81 1.52-2.07 3.52-1.76 5.32.41 2.39 3.37 3.1 5.3 3.96a5 5 0 0 0 1.11.5c.03 0 .17.1.2.08-.43.24-.28-1.06-.28-1.07.13.23-3.78 4.02-4.24 4.52-1.54 1.69-3.37 3.44-2.3 5.9.74 1.71 1.79 3.34 2.7 4.97 2.6 4.69 5.33 9.3 7.8 14.06l5.8 11.16 4.52 8.68c1.43 2.74 5.57.32 4.15-2.42L299 174.37c-1.88-3.6-3.88-7.13-5.87-10.69l-2.9-5.2-1.34-2.44-.54-.98a3 3 0 0 0-.26-.47q-.25-.67-.21.11-.2.7.1.26c.33-.14.82-.93 1.06-1.19l.94-1.02q1.12-1.2 2.25-2.37c1.39-1.46 2.9-3 2.41-5.2-.57-2.59-3.52-3.28-5.63-4.22a4 4 0 0 0-.84-.37l-.3-.13c-.1.07.8 1.33.57 1.4a8 8 0 0 0 .49-1.17 28 28 0 0 1 3.6-5.81 2.47 2.47 0 0 0 0-3.4 2.4 2.4 0 0 0-3.4 0Zm-42.05 56.4c-.63 4.77-1.07 9.57-1.57 14.35l-.83 8.01a22 22 0 0 0 .76 9.98 2.46 2.46 0 0 0 2.95 1.68 2.4 2.4 0 0 0 1.68-2.95c-1.09-3.09-.88-5.97-.55-9.15l.83-7.92c.48-4.67.92-9.34 1.53-14a2.4 2.4 0 0 0-2.4-2.4 2.46 2.46 0 0 0-2.4 2.4" class="e"/><path d="M158.3 175.36a473 473 0 0 0-11.85-4.75q-1-.7-1.87-1.25a598 598 0 0 1-14.39 52.34c-4.24 13.03-5.5 17.01-11.36 31.39-5.87-14.38-7.12-18.36-11.36-31.39a598 598 0 0 1-14.39-52.34l-1.13.74c-21.92 9.16-37.11 15.1-46.45 29.29-4.73 7.18-7.66 16.93-8.93 28.08-1.8 15.78-2.6 23.55-4.6 48.08H205.7c-2-24.53-2.8-32.3-4.6-48.08-1.27-11.15-4.2-20.9-8.93-28.08-7.41-11.26-19.12-17.82-33.86-24.03" style="fill:#bdbdbd"/><path d="M59.3 117.76c-1.54 9.2-1.74 18.9 2.9 27.3 3.28 5.98 8.76 10.03 15.07 12.4a57 57 0 0 0 13.15 2.93 2.4 2.4 0 0 0 2.4-2.4 2.46 2.46 0 0 0-2.4-2.4c-6.33-.77-12.88-2.31-18.14-6.1-5.18-3.74-8.12-9.95-8.94-16.25a49 49 0 0 1 .59-14.2 2.47 2.47 0 0 0-1.68-2.96 2.4 2.4 0 0 0-2.95 1.68" class="e"/><path d="M142.76 47.36a40 40 0 0 0-10.14-3.73 63 63 0 0 0-13.83-1.82 58.4 58.4 0 0 0-27.82 6.3 51 51 0 0 0-9.62 6.3 36 36 0 0 0-6.73 7.76c-4.41 6.59-6.7 14.34-8.55 21.97-2.7 11.1-4.76 22.37-6.77 33.62a2.47 2.47 0 0 0 1.68 2.95 2.4 2.4 0 0 0 2.95-1.67 668 668 0 0 1 5.64-28.79c1.72-7.68 3.5-15.65 7.34-22.6a39 39 0 0 1 5.65-7.84 34 34 0 0 1 7.5-5.7 52.6 52.6 0 0 1 24.18-7.45 58 58 0 0 1 15.5 1.22 56 56 0 0 1 6.38 1.81q1.48.53 2.94 1.1c.68.27.24.12.1.05l.47.26.7.41c2.69 1.54 5.1-2.6 2.43-4.14Zm31.52 78.24c2.01 12.26-4.87 25.74-17.03 29.51a31 31 0 0 1-10.69 1.24c-3.08-.12-3.08 4.68 0 4.8 6.97.29 14.16-1.18 19.91-5.28a31.3 31.3 0 0 0 11.94-17.99 34 34 0 0 0 .5-13.56 2.4 2.4 0 0 0-2.95-1.67 2.46 2.46 0 0 0-1.68 2.95" class="e"/><path d="M148.57 56.14c7.4 4.62 12.92 12.78 15.36 21.08a131 131 0 0 1 3.1 15.27c.9 5.36 2.06 10.65 3.36 15.93 1.39 5.6 2.86 11.18 3.9 16.87a2.4 2.4 0 0 0 2.94 1.67 2.45 2.45 0 0 0 1.68-2.95c-1.95-10.69-5.25-21.07-7.08-31.79a152 152 0 0 0-3.11-15.7 44 44 0 0 0-5.7-12.39A40 40 0 0 0 150.98 52c-2.63-1.64-5.04 2.51-2.42 4.15Zm-11.8 21.6a100 100 0 0 1-14.68 10.38 169 169 0 0 1-23.31 11.14c-4.51 1.71-9.13 3.1-13.73 4.52-2.95.9-1.7 5.53 1.27 4.63 4.16-1.28 8.33-2.53 12.42-4.03 4.65-1.7 9.16-3.73 13.62-5.88a135 135 0 0 0 19.18-10.66c2.98-2.1 5.82-4.38 8.62-6.71a2.4 2.4 0 0 0 0-3.4 2.45 2.45 0 0 0-3.4 0Z" class="e"/><path d="M136.39 80.64a224 224 0 0 1 14.07 24.4c1.38 2.77 5.52.34 4.14-2.41a223 223 0 0 0-14.07-24.41c-1.71-2.55-5.87-.15-4.14 2.42m18.98 48.66a21 21 0 0 1-1.47 5.06l-.77 1.85c-.09.23-.53 1.33-.22.6a40 40 0 0 1-2.6 4.88 49 49 0 0 1-10.4 12.3 19 19 0 0 1-7.66 3.96c-3 .7-1.73 5.33 1.28 4.63 6-1.4 11.02-5.75 14.95-10.31a54 54 0 0 0 8.36-12.55 34 34 0 0 0 3.16-9.14 2.5 2.5 0 0 0-1.68-2.95 2.4 2.4 0 0 0-2.95 1.67m-77.83 1.13a50 50 0 0 0 10.9 21.37c5.23 6 12.18 11.1 20.2 12.3a2.5 2.5 0 0 0 2.96-1.68 2.4 2.4 0 0 0-1.68-2.95c-7.31-1.1-13.33-5.6-18.08-11.06a45 45 0 0 1-9.68-19.26c-.7-3-5.32-1.73-4.62 1.28" class="e"/><path d="M81.56 107.76a9.2 9.2 0 0 0-10.08-1.43 8.9 8.9 0 0 0-4.5 6.07 22.6 22.6 0 0 0 3.3 17.38c2.26 3.4 5.84 6.45 10.19 5.88a2.5 2.5 0 0 0 2.4-2.4 2.4 2.4 0 0 0-2.4-2.4c-3.2.42-5.37-2.16-6.8-4.73a19 19 0 0 1-2.34-7.14c-.23-2.47-.2-5.32 1.17-7.47q.14-.2-.07.08l.22-.25c.06-.06.54-.51.36-.37a4 4 0 0 1 1.42-.65 4.1 4.1 0 0 1 3.73.82c2.3 2.05 5.7-1.33 3.39-3.4Zm78 3.39a4.1 4.1 0 0 1 3.73-.82 4 4 0 0 1 1.42.65c-.13-.1.77.91.45.46 1.47 2.1 1.46 5.1 1.23 7.55a19 19 0 0 1-2.26 6.99c-1.42 2.62-3.6 5.3-6.88 4.88a2.4 2.4 0 0 0-2.4 2.4 2.46 2.46 0 0 0 2.4 2.4c7.1.92 11.41-6.78 13.19-12.5 1.57-5.08 1.56-12.96-3.3-16.32a9.1 9.1 0 0 0-10.97.92c-2.3 2.06 1.1 5.44 3.4 3.39Z" class="e"/><path d="M159.38 131.82c-3.15 0-5.32 2.21-5.32 4.8 0 2.9 2.22 4.9 5.32 4.9 3.21 0 5.31-2.02 5.31-4.9 0-2.6-2.18-4.8-5.31-4.8" class="b"/><path d="M159.38 129.42a7.7 7.7 0 0 0-7.37 5.02 7.2 7.2 0 0 0 2.73 8.11 8.6 8.6 0 0 0 8.67.4 7.2 7.2 0 0 0 3.54-7.69c-.61-3.6-4.13-5.8-7.58-5.83a2.4 2.4 0 0 0 0 4.8l.48.02c.42 0-.12 0-.17-.04a3 3 0 0 0 .73.16l.41.13c.38.12-.15-.04-.18-.08.13.15.55.28.73.4.05.04.44.29.08.05-.34-.22 0 .01.06.07.16.15.29.35.45.48-.4-.3-.23-.34-.1-.12l.17.28.15.29-.12-.28.1.25a4 4 0 0 0 .15.63c-.02-.03-.05-.64-.03-.25l.01.4v.28c-.02.25-.16.53.03-.1-.07.23-.09.48-.16.7l-.1.3c.06-.47.2-.4.07-.16l-.32.54c-.14.23-.27.15.12-.14l-.16.18-.27.27c-.22.2-.34.13.1-.06-.2.08-.36.24-.55.34l-.35.17c.04-.03.56-.2.2-.1l-.67.2a2 2 0 0 0-.43.07l.35-.04-.3.02a7 7 0 0 1-.78 0l-.3-.01c-.53-.02.57.11.06 0q-.34-.06-.69-.16l-.26-.08c-.4-.13.53.27-.04-.03q-.3-.15-.57-.34c-.27-.19-.11-.21.18.15l-.29-.26c-.09-.09-.48-.57-.23-.23s0 0-.04-.06l-.2-.33c-.12-.23-.08-.46.03.1l-.09-.24q-.1-.32-.16-.65c-.12-.48.02.6.01.1l-.02-.29.01-.41c.02-.33.16-.31-.02.11a7 7 0 0 0 .2-.75c.1-.36-.07.19-.1.22a3 3 0 0 0 .24-.46l.14-.22c.23-.37-.4.42-.01.02a3 3 0 0 0 .52-.5l-.28.2.22-.15.36-.22q.16-.07.3-.16l-.25.1.27-.1a8 8 0 0 1 .87-.22c.35-.07-.12.1-.19.03a4 4 0 0 0 .64-.03 2.4 2.4 0 0 0 0-4.8" class="e"/><path d="M79.37 131.82c-3.14 0-5.32 2.21-5.32 4.8 0 2.9 2.22 4.9 5.32 4.9 3.22 0 5.32-2.02 5.32-4.9 0-2.6-2.19-4.8-5.32-4.8" class="b"/><path d="M79.37 129.42a7.7 7.7 0 0 0-7.36 5.02 7.2 7.2 0 0 0 2.73 8.11 8.6 8.6 0 0 0 8.67.4 7.2 7.2 0 0 0 3.53-7.69c-.6-3.6-4.12-5.8-7.57-5.83a2.4 2.4 0 0 0 0 4.8l.48.02c.42 0-.12 0-.18-.04a3 3 0 0 0 .73.16l.42.13c.38.12-.15-.04-.18-.08.12.15.54.28.72.4.06.04.44.29.09.05-.35-.22 0 .01.06.07.15.15.28.35.45.48-.4-.3-.24-.34-.1-.12l.16.28.15.29q.12.25-.11-.28l.09.25a4 4 0 0 0 .16.63c-.02-.03-.05-.64-.04-.25l.02.4v.28c-.02.25-.16.53.02-.1-.06.23-.08.48-.15.7l-.1.3c.06-.47.2-.4.06-.16l-.31.54c-.14.23-.27.15.12-.14l-.17.18q-.12.14-.26.27c-.23.2-.35.13.09-.06-.19.08-.36.24-.54.34l-.36.17c.04-.03.57-.2.2-.1l-.67.2a2 2 0 0 0-.42.07l.34-.04-.3.02a7 7 0 0 1-.77 0l-.3-.01c-.53-.02.57.11.06 0q-.35-.06-.7-.16l-.25-.08c-.4-.13.53.27-.05-.03q-.29-.15-.56-.34c-.27-.19-.12-.21.18.15l-.29-.26c-.1-.09-.49-.57-.24-.23s.01 0-.03-.06l-.2-.33c-.12-.23-.1-.46.02.1l-.09-.24q-.1-.32-.16-.65c-.12-.48.02.6.01.1l-.01-.29v-.41c.02-.33.16-.31-.02.11a7 7 0 0 0 .2-.75c.1-.36-.07.19-.1.22a3 3 0 0 0 .24-.46l.14-.22c.23-.37-.4.42-.01.02a3 3 0 0 0 .52-.5l-.28.2a5 5 0 0 1 .58-.37q.16-.07.3-.16l-.24.1.27-.1a8 8 0 0 1 .86-.22c.35-.07-.12.1-.18.03a4 4 0 0 0 .63-.03 2.4 2.4 0 0 0 0-4.8m15.18 45.4c3.16-1.32 6.5-2.92 8.39-5.92 1.72-2.74 1.83-6.04 1.87-9.19a2.4 2.4 0 1 0-4.8 0 51 51 0 0 1-.21 3.95c-.02.18-.07.49-.01.14a9 9 0 0 1-.24 1.09l-.14.42c-.22.6.13-.22-.04.1l-.48.9-.2.34c-.13.18-.26.34-.05.08a7 7 0 0 1-.7.75q-.15.14-.32.27c.3-.26-.07.06-.13.1q-.44.32-.9.62a20 20 0 0 1-1.75.99q-.47.24-.96.45l-.39.18c-.03.02-.68.29-.22.1a2.47 2.47 0 0 0-1.68 2.95c.36 1.11 1.71 2.2 2.96 1.68m40.05-16.03c0 3.05.01 6.23 1.3 9.04 1.4 3.05 4.32 4.92 7.27 6.26a2.46 2.46 0 0 0 3.29-.86 2.43 2.43 0 0 0-.87-3.28 21 21 0 0 1-3.63-2.07c-.1-.07-.42-.33-.18-.13l-.39-.34a7 7 0 0 1-.62-.68c.21.26.08.1-.04-.08l-.22-.34-.47-.9c-.24-.45.11.34 0 0l-.19-.55a10 10 0 0 1-.23-1.05q-.04-.26.01.04l-.02-.23-.05-.48q-.05-.58-.08-1.17a54 54 0 0 1-.08-3.18 2.4 2.4 0 0 0-4.8 0" class="e"/><path d="M107.32 250.38A1257 1257 0 0 1 80.49 202l-1.66-3.22c-.04-.08-.42-.9-.33-.47.04.18-.5.63.24-.15q.65-.7 1.31-1.38a178 178 0 0 1 5.82-5.66 2.42 2.42 0 0 0-.48-3.77l-3.57-2.03-1.67-.96-.84-.48-.42-.24q-.46-.3.06.14l.33 1.22c-.03.56.22-.26.35-.47q.3-.5.64-.97a20 20 0 0 1 1.44-1.77 47 47 0 0 1 4.13-4.01 73 73 0 0 1 8.46-6.34L90.77 170a601 601 0 0 0 18.96 66.12 348 348 0 0 0 5.95 15.56 2.5 2.5 0 0 0 2.96 1.68 2.4 2.4 0 0 0 1.67-2.95 511 511 0 0 1-20.03-61.75q-2.62-9.92-4.88-19.94a2.42 2.42 0 0 0-3.53-1.43 69 69 0 0 0-12.97 10.47 33 33 0 0 0-2.6 3.13 8 8 0 0 0-1.8 3.73c-.12 2.21 1.8 3.06 3.43 4l5.03 2.88-.48-3.77a194 194 0 0 0-5.49 5.31c-1.75 1.8-3.85 3.64-3.1 6.4a17 17 0 0 0 1.51 3.17l1.79 3.43q1.66 3.17 3.34 6.33a1192 1192 0 0 0 14.37 26q4.1 7.23 8.27 14.43c1.54 2.68 5.7.27 4.15-2.42" class="e"/><path d="M81.39 171.95C66.51 178.27 50.8 185.44 42.3 200c-4.67 8-6.85 17.22-8 26.33a769 769 0 0 0-2.13 19.73 1583 1583 0 0 0-2.43 27.48 2.4 2.4 0 0 0 2.4 2.4 2.45 2.45 0 0 0 2.4-2.4c1.18-14.41 2.49-28.8 4.1-43.18.97-8.56 2.43-17.2 6.24-25.02A44 44 0 0 1 58.87 189c7.61-5.49 16.35-9.25 24.94-12.9a2.4 2.4 0 0 0 .86-3.29 2.46 2.46 0 0 0-3.28-.86m53.1 80.86c9.78-16.96 19.45-33.99 28.39-51.4.69-1.35 1.35-2.69.94-4.24a8.5 8.5 0 0 0-2.48-3.44 164 164 0 0 0-6.16-6l-.48 3.77 5.03-2.87c1.64-.94 3.57-1.79 3.44-4a7.6 7.6 0 0 0-1.72-3.62 32 32 0 0 0-2.68-3.24 69 69 0 0 0-12.98-10.48 2.42 2.42 0 0 0-3.52 1.44 601 601 0 0 1-18.96 66.12 347 347 0 0 1-5.96 15.56 2.4 2.4 0 0 0 1.68 2.95 2.46 2.46 0 0 0 2.95-1.67 512 512 0 0 0 20.04-61.75q2.61-9.93 4.88-19.94l-3.53 1.43a73 73 0 0 1 8.46 6.35 47 47 0 0 1 4.13 4 20 20 0 0 1 1.44 1.78q.34.47.64.97c.13.2.38 1.02.35.47l.33-1.21c.2-.39.32-.26-.15-.03l-.84.48-1.88 1.08-3.57 2.03a2.42 2.42 0 0 0-.48 3.77q2.62 2.45 5.15 4.97l1.16 1.2c.33.35.98.8 1.14 1.22-.2-.51-.22-.1-.41.27l-.82 1.6q-3.12 6.05-6.36 12.04-6.66 12.35-13.62 24.54-3.82 6.73-7.7 13.42c-1.54 2.68 2.6 5.1 4.15 2.43" class="e"/><path d="M207.92 273.54a1444 1444 0 0 0-4.17-43.8c-1.04-9.19-2.7-18.27-6.74-26.65a49 49 0 0 0-15.36-17.95c-7.85-5.82-16.94-9.76-25.95-13.43a2.4 2.4 0 0 0-2.95 1.67 2.46 2.46 0 0 0 1.68 2.95c14.32 5.85 29.68 13 37.42 27.2 4.12 7.58 5.97 16.26 6.94 24.76q1.06 9.23 1.98 18.5c.88 8.9 1.62 17.83 2.35 26.75a2.46 2.46 0 0 0 2.4 2.4 2.4 2.4 0 0 0 2.4-2.4M96.85 188.72a53 53 0 0 0 22.38 4.57 52.5 52.5 0 0 0 22.4-4.57 2.4 2.4 0 0 0 .85-3.28 2.46 2.46 0 0 0-3.28-.86 47 47 0 0 1-19.97 3.91 47 47 0 0 1-19.96-3.91 2.47 2.47 0 0 0-3.28.86 2.4 2.4 0 0 0 .86 3.28" class="e"/><path d="M242.42 273.15H2.32c-3.09 0-3.1 4.8 0 4.8h240.1c3.09 0 3.1-4.8 0-4.8" class="e"/><path d="M48.4 222.16a3.03 3.03 0 0 0-3.02 3.04c.06 17.1.89 76.3 1.52 98.07a3.03 3.03 0 0 0 3.08 2.94c9.52-.14 127.29-.14 136.8 0a3.03 3.03 0 0 0 3.08-2.94 6457 6457 0 0 0 1.52-98.07 3.03 3.03 0 0 0-3.02-3.04c-10.53-.04-129.43-.04-139.96 0" class="b"/><path d="M48.4 219.76a5.6 5.6 0 0 0-4.6 2.56 6.7 6.7 0 0 0-.82 3.78l.04 4.88q.05 6.57.13 13.14.2 17.09.46 34.17.26 16.58.6 33.16l.15 6.7a38 38 0 0 0 .25 6.08 5.56 5.56 0 0 0 5.73 4.37l1.82-.01q7.55-.05 15.09-.05 12.11-.03 24.23-.03l28.52-.01 28.38.01 23.34.03q6.91 0 13.83.06a9 9 0 0 0 2.97-.27 5.5 5.5 0 0 0 3.57-3.78 15 15 0 0 0 .23-3.3q.18-6.51.3-13.02.35-17.04.6-34.08.24-16.64.43-33.28.07-6.11.11-12.22c.02-1.93.31-4.15-.57-5.92a5.7 5.7 0 0 0-5.45-2.97q-6.46-.02-12.93-.02H69.46l-17.07.01zc-3.08.02-3.09 4.82 0 4.8h11.15l21.23-.01h81.46l19.02.01 5.58.01a9 9 0 0 1 1.54-.01c1.07.23.6 2.66.6 3.56q-.1 13.47-.29 26.93-.23 17.3-.52 34.59-.23 14.82-.59 29.64l-.07 2.68c-.01.57.17 1.55-.4 1.82a5 5 0 0 1-1.65.03l-5.35-.02q-9.3-.04-18.6-.05l-25.73-.02h-28.42l-26.72.02q-10.29.01-20.57.04-3.36 0-6.7.02c-.78 0-3.47.41-3.94-.21-.33-.45-.16-1.55-.17-2.12l-.07-2.74-.15-6.35q-.16-7.57-.3-15.15-.31-17.28-.54-34.57-.2-14.82-.35-29.65l-.04-5.06c0-.8-.45-3.31.6-3.37 3.07-.19 3.09-4.99 0-4.81" class="e"/><path d="M59.63 316.03c14.34-.09 28.69-.01 43.04.03 17.46.05 34.92-.03 52.38-.05q10.27-.03 20.55.02c3.1.02 3.1-4.78 0-4.8-14.02-.09-28.04-.01-42.07.03-17.63.06-35.27-.03-52.9-.05q-10.5-.03-21 .02c-3.09.02-3.1 4.82 0 4.8m49.79-51.08v5.52c0 2.1-.28 4.38 1.35 6 1.57 1.56 3.73 1.31 5.76 1.3h5.43a6 6 0 0 0 3.08-.57 4.5 4.5 0 0 0 2.16-2.84 14 14 0 0 0 .15-3.04v-2.9c0-1.87.35-4.2-.69-5.85a4.5 4.5 0 0 0-3.15-2.06 19 19 0 0 0-2.57-.07h-6.06a6 6 0 0 0-3.39.72 4.7 4.7 0 0 0-2.07 3.79 2.4 2.4 0 0 0 2.4 2.4 2.45 2.45 0 0 0 2.4-2.4c.03-.6-.14.5.03-.07-.2.64.25-.18-.17.33.09-.1.33-.25-.1.05.4-.28-.44.01.06-.04-.7.07.22.02.39.02h7.72a3 3 0 0 1 .85 0l-.28-.02q.38.12-.1-.05c.43.18-.21-.29.06.04-.42-.51.03.31-.18-.33.17.54.05-.52.04.07v3.14l-.01 4.64a2 2 0 0 1 0 .55l.05-.28-.1.34c.02 0 .28-.5.02-.1.36-.56-.28.1.26-.27-.43.3.33-.06.02 0-.35.08.6.03.02 0h-8.52c-.1 0-.43.06-.51 0q.47.08.2 0c-.27-.08-.11-.03.17.08-.45-.2.25.34-.05-.04q.28.4.07.07l.1.26-.05-.17q-.09-.4.01.1a3 3 0 0 1 0-.75v-7.58a2.4 2.4 0 1 0-4.8 0Zm8.22-117.92.87-.44c.51-.24-.52.19.07-.02l.64-.22a16 16 0 0 1 1.79-.4c-.34.06-.23.03.04 0a15 15 0 0 1 1.8-.1 21 21 0 0 1 1.75.07c.08.01.77.12.17.02a13 13 0 0 1 1.76.4c.25.07.48.2.73.26-.06-.02-.5-.25-.23-.1l.3.16q.23.11.44.25c.2.12.73.53-.02-.05a2.47 2.47 0 0 0 3.4 0c.79-.86 1.05-2.57 0-3.4a13 13 0 0 0-8.04-2.4 16.4 16.4 0 0 0-7.9 1.83 2.4 2.4 0 0 0-.85 3.29 2.45 2.45 0 0 0 3.28.86Zm4.06-19.65a36 36 0 0 1 .85 3.88l-.09-.64a2 2 0 0 1 .02.54l.08-.64-.05.24.24-.57-.09.15.38-.48-.13.12.49-.37-.31.16.57-.24a2 2 0 0 1-.52.15l.64-.09a2 2 0 0 1-.48 0l.63.09-.54-.1a2 2 0 0 0-.96-.04 2 2 0 0 0-.9.28 2.4 2.4 0 0 0-.85 3.29 2.3 2.3 0 0 0 1.43 1.1c.45.06.9.17 1.36.2a4.4 4.4 0 0 0 2.04-.5 3 3 0 0 0 1.66-2 5 5 0 0 0-.02-2.1q-.33-1.86-.82-3.71a2.4 2.4 0 0 0-2.95-1.68 2.45 2.45 0 0 0-1.68 2.96m-19.42-11.15a49 49 0 0 1 5.18.35l-.64-.09q1.64.23 3.25.58a2.4 2.4 0 0 0 1.27-4.62 49 49 0 0 0-9.06-1.02 2.4 2.4 0 0 0-2.4 2.4 2.45 2.45 0 0 0 2.4 2.4m-1.4 9.09c3.17-.04 6.35-.09 9.52 0a2.4 2.4 0 0 0 2.4-2.4 2.45 2.45 0 0 0-2.4-2.4c-3.17-.09-6.35-.04-9.53 0a2.4 2.4 0 1 0 0 4.8m35.54-9.36q3.8.61 7.54 1.58a2.4 2.4 0 0 0 1.27-4.63q-3.73-.97-7.53-1.58a2.6 2.6 0 0 0-1.85.25 2.4 2.4 0 0 0-.86 3.28 2.3 2.3 0 0 0 1.43 1.1m.56 9.25q3.31.13 6.62.29a2.4 2.4 0 0 0 2.4-2.4 2.45 2.45 0 0 0-2.4-2.4q-3.3-.16-6.62-.29a2.4 2.4 0 0 0-2.4 2.4 2.45 2.45 0 0 0 2.4 2.4m-47.39 4.92c-.12 3.49-.64 7.44 1.32 10.57a6.5 6.5 0 0 0 4.32 3.06c2.17.37 4.68-.03 6.15-1.83 1.61-1.98 1.66-4.46 1.28-6.87a2.4 2.4 0 0 0-2.95-1.67 2.47 2.47 0 0 0-1.68 2.95c.07.43-.04-.53 0 .01l.04.5a10 10 0 0 1 0 1.05c-.03.58.1-.43 0-.03q-.03.23-.1.44l-.13.42c.07-.48.2-.42.09-.23l-.12.21-.13.2c.01-.04.4-.44.15-.2l-.26.26c.18-.31.41-.28.19-.15l-.22.13-.18.1c-.17.12.56-.17.13-.07q-.26.05-.5.12c-.26.07.24-.05.24-.03s-.35.02-.33.02h-.54c-.55 0 .46.13-.06 0l-.44-.11-.18-.06c-.28-.08.47.25.24.1l-.36-.2c-.47-.3.27.28.02.04-.12-.12-.38-.49-.53-.55.02.01.35.52.18.23l-.1-.13-.21-.36-.17-.32-.08-.18c-.03-.05.21.56.14.34l-.23-.67a10 10 0 0 1-.26-1.15c-.04-.24-.07-.1.01.07a3 3 0 0 1-.07-.79q-.04-.8-.02-1.6c.02-1.2.1-2.41.15-3.62a2.4 2.4 0 0 0-2.4-2.4 2.45 2.45 0 0 0-2.4 2.4" class="e"/><path d="m334.3 269.02-4.98-.12-91.08-2.1-.7-.02v31.04l2.63 2.28.57.01 95.43 2.96v-34Z" class="c"/><path d="M238.59 333.04v-30.53c0-1.46.68-2.4 2.15-2.4l96.48 3v35.4c-32.55-.35-66.4-1.4-96.93-2.52a1.77 1.77 0 0 1-1.7-1.79Z" class="f"/><path d="M334.82 304.33v33.1c0 3.1 4.8 3.1 4.8 0v-33.1c0-3.08-4.8-3.1-4.8 0" class="e"/><path d="M333.77 270.83v30.93c0 3.09 4.8 3.1 4.8 0v-30.93c0-3.09-4.8-3.1-4.8 0" class="e"/><path d="M380.16 279.28c-14.42 6.95-28.3 14.95-42.8 21.77l1.21-.32c-3.06 0-6.13-.18-9.2-.27l-21.7-.67-26.86-.84-24.45-.75-14.39-.45q-.56-.03-1.13-.04a4.4 4.4 0 0 0-4.52 3.53c-.46 2.23-.14 4.78-.14 7.04v23.89c0 .67-.03 1.35 0 2.02a4.3 4.3 0 0 0 2.58 3.86c1.76.73 4.17.43 6.05.5q12.8.46 25.6.87 26.4.83 52.83 1.3c4.14.06 8.28.15 12.42.17a33 33 0 0 0 5.13-.04 11 11 0 0 0 3.06-1.48l3.23-1.76c7.5-4.1 15.02-8.14 22.48-12.3q5.46-3.03 10.86-6.16c2.67-1.55.26-5.7-2.42-4.15-12.76 7.42-25.81 14.31-38.74 21.42l1.2-.33c-16.64 0-33.3-.44-49.93-.89q-12.9-.34-25.8-.77-6.3-.2-12.59-.42l-6.19-.22-2.95-.1-1.58-.07-.68-.02c-.63 0-.26-.15-.1.05.37.45.3.76.35.22.03-.38 0-.78 0-1.16v-27.96a22 22 0 0 0 0-2.2c-.09-.82.05.09-.24-.04.06.03.15-.02.2 0a4 4 0 0 0 1.29.05l2.4.07 7.44.23 22.55.7 26.62.83 23.36.72 12.75.4.67.02c1.83.03 3.65-1.22 5.26-2q2.92-1.42 5.82-2.89c7.58-3.83 15.05-7.86 22.59-11.76q5.4-2.8 10.89-5.46a2.4 2.4 0 0 0 .86-3.28 2.45 2.45 0 0 0-3.28-.87Zm-41.73-7.8c13.47-6.93 26.89-13.96 40.37-20.87 2.75-1.41.32-5.56-2.43-4.15-13.48 6.91-26.9 13.95-40.36 20.88-2.75 1.42-.32 5.56 2.42 4.15" class="e"/><path d="M333.39 237.38v29.45c0 3.09 4.8 3.1 4.8 0v-29.45c0-3.09-4.8-3.09-4.8 0m46.93 10.52a314 314 0 0 1 .57-32.47 2.4 2.4 0 0 0-2.4-2.4 2.45 2.45 0 0 0-2.4 2.4 314 314 0 0 0-.57 32.47c.09 3.08 4.89 3.1 4.8 0" class="e"/><path d="M377.48 251.66c-1.77 10.17-1.68 20.6-1.39 30.88.09 3.08 4.89 3.1 4.8 0-.28-9.84-.47-19.88 1.22-29.6a2.47 2.47 0 0 0-1.68-2.96 2.4 2.4 0 0 0-2.95 1.68m-1.82 39.1c0 8.57.2 17.14.43 25.7.09 3.09 4.89 3.1 4.8 0-.24-8.56-.43-17.13-.43-25.7 0-3.08-4.8-3.09-4.8 0" class="e"/><path d="M324.78 245.16c-12.04-.5-25.66-.74-36.77-1v12.99c11.4.56 25.47.59 36.77 1.14Z" class="b"/><path d="M323.74 242.72c-9.84-.39-19.69-.6-29.54-.82l-3.2-.07c-1.2-.03-2.55-.22-3.65.42a3.8 3.8 0 0 0-1.73 3.48c-.04 2.3 0 4.61 0 6.92 0 2.27-.5 5.27 1.89 6.55a8.5 8.5 0 0 0 3.62.49l3.42.12q3.55.12 7.09.2l14.58.36c2.34.07 4.68.2 7.02.25a3.6 3.6 0 0 0 3.95-3.54c.12-2.28 0-4.6 0-6.88 0-2.6.67-6.7-2.8-7.4a2.46 2.46 0 0 0-2.96 1.68 2.4 2.4 0 0 0 1.68 2.95c-2.33-.46-.56-1.73-.72-1.04a2 2 0 0 0 0 .5v6.74a16 16 0 0 0 0 3.4c.16.7 1.92-.98 1.06-1.2a10 10 0 0 0-1.86-.08l-4.71-.16c-6.12-.18-12.25-.29-18.37-.46l-4.39-.13-2.14-.08a10 10 0 0 0-2.1-.08c-1.38.28 1.22-1.02.54 1.24v-.09a2 2 0 0 0 0-.45v-7.38a24 24 0 0 1 .04-3.17l-.33 1.2q-1.64.42-.8.4l.41.02 1.05.02 2.12.05 4.15.1 8.84.2q8.93.2 17.84.54c3.09.12 3.08-4.68 0-4.8" class="e"/><path d="M325.84 279.38c-12.05-.5-25.67-.74-36.77-1v12.98c11.4.56 25.46.6 36.77 1.14Z" class="b"/><path d="M324.94 276.94c-10-.4-20.01-.6-30.02-.83l-3.23-.07c-1.39-.03-2.83-.18-3.93.84a4 4 0 0 0-1.1 3.13v7.2c0 2.22-.5 5.3 2.08 6.33a10 10 0 0 0 3.28.36l3.84.14 7.07.2c4.92.12 9.84.21 14.75.36 2.26.07 4.52.2 6.78.25a3.46 3.46 0 0 0 3.78-3.46c.1-2.4 0-4.8 0-7.2 0-2.48.66-6.5-2.66-7.16a2.46 2.46 0 0 0-2.95 1.68 2.4 2.4 0 0 0 1.67 2.95c-.24-.05-.68-1.66-.86-1.27-.05.1 0 .28 0 .38-.03.42 0 .85 0 1.27v8.95c0 1.17-.15-.32.52-.63l1.2-.33a30 30 0 0 1-4.46-.13l-4.77-.15-9.85-.24q-4.78-.1-9.57-.25l-4.49-.16-1.04-.04c-1.64-.07.9-.05.48 1.4v-.33c.13-1.34 0-2.76 0-4.1v-5a12 12 0 0 0 0-1.44v-.24l-1.03 1.46.84.02 1.27.03 9.78.22q11.31.24 22.62.66c3.09.12 3.08-4.68 0-4.8" class="e"/><path d="M325.84 314.12c-12.05-.5-25.67-.74-36.77-1v12.99c11.4.56 25.46.6 36.77 1.14Z" class="b"/><path d="M324.24 311.66c-9.59-.37-19.18-.58-28.78-.8l-3.22-.06a6.3 6.3 0 0 0-3.64.56 4.3 4.3 0 0 0-1.94 3.8c-.04 2.18 0 4.37 0 6.55 0 2.46-.3 5.3 2.44 6.52a9 9 0 0 0 3.25.43l3.48.12q3.6.12 7.2.2 7.2.17 14.36.36c2.22.06 4.49.29 6.7.23a4.17 4.17 0 0 0 4.15-4.07c.1-2.15 0-4.33 0-6.47 0-2.76.38-6.77-3.36-7.29a2.5 2.5 0 0 0-2.96 1.68 2.4 2.4 0 0 0 1.68 2.95c1.05.15-.89-.34-.16-.64v.1a2 2 0 0 0 0 .72v2.72c0 1.91-.07 3.84 0 5.75 0 .08-.06.4 0 .47-.1-.1.27-.52.32-.59.15-.21.55.04.13-.13a3 3 0 0 0-.85-.04q-2.93-.12-5.87-.2l-12.3-.3q-6.05-.14-12.1-.35a7 7 0 0 0-1.49-.06 1 1 0 0 0-.32.01c.08-.12.47.5.38.42.29.24.06.35.12-.05a16 16 0 0 0 0-2.26v-6.06a4 4 0 0 0 0-.8v-.2c.15.07-.42.53-.45.58-.19.31-.28.03.17.12a6 6 0 0 0 .84.02l1.28.03 3.04.07c9.3.2 18.6.41 27.9.77 3.09.1 3.08-4.7 0-4.81m24.4-23.96a188 188 0 0 1 18.57-10.26 2.4 2.4 0 0 0 .86-3.29 2.45 2.45 0 0 0-3.28-.86 188 188 0 0 0-18.57 10.26c-2.6 1.65-.2 5.8 2.43 4.15m2.03-10.33a188 188 0 0 1 18.57-10.27 2.4 2.4 0 0 0 .86-3.28 2.45 2.45 0 0 0-3.29-.86 188 188 0 0 0-18.56 10.26c-2.6 1.64-.2 5.8 2.42 4.14Zm0 47.2a281 281 0 0 1 27.85-15.4 2.4 2.4 0 0 0 .86-3.28 2.45 2.45 0 0 0-3.28-.86 281 281 0 0 0-27.85 15.39c-2.6 1.64-.2 5.8 2.42 4.14m-100.44-45.85v11.7a2.4 2.4 0 1 0 4.8 0v-11.7a2.4 2.4 0 1 0-4.8 0m1.05 34.74v11.7a2.4 2.4 0 1 0 4.8 0v-11.7a2.4 2.4 0 0 0-4.8 0m126.44-101.34c-17.07 0-34.13-.25-51.2-.48q-12.94-.18-25.9-.32l-12.76-.1-6.2-.02a16 16 0 0 0-5.98.76c-4.85 1.89-9.6 4.08-14.32 6.25a419 419 0 0 0-16.6 7.96 118 118 0 0 0-6.14 3.32c-1.86 1.1-4.28 2.55-4.4 4.94-.14 2.65 0 5.33 0 7.98 0 7.5-.19 15.03 0 22.54a3.97 3.97 0 0 0 4.17 4.25l.87.02 5.4.12 21.36.5 28.1.65 25.55.59 14.12.32.65.02c3.1.07 3.1-4.73 0-4.8l-9.53-.22-22.9-.53-27.72-.64-24-.56-11.73-.27h-.18c-.38.07-.42-.19.14.28l.38.3q.16.78.12.3c.23-.82 0-.1 0-.16V237.4a15 15 0 0 0 0-2.87c-.01-.04.02-.12 0-.16.2.5-.66 1.16-.08.76a5 5 0 0 0 .6-.57 25 25 0 0 1 2.21-1.33c9.73-5.56 20.12-10.14 30.39-14.61l1.65-.71.77-.33.14-.06.23-.1a23 23 0 0 1 3.34-1.26A25 25 0 0 1 284 216l6.04.03q12.52.08 25.05.26c16.97.2 33.93.48 50.9.58q5.87.04 11.73.04c3.1 0 3.1-4.8 0-4.8Z" class="e"/><path d="M235.14 268.78v28.48a3.4 3.4 0 0 0 1.5 2.95l1.85 1.6c2.33 2 5.74-1.38 3.4-3.4l-2.66-2.3.7 1.7v-29.03c0-3.09-4.8-3.1-4.8 0Zm101.03-35.4-28.26-.95-45-1.5-10.28-.35c-3.09-.1-3.09 4.7 0 4.8l28.26.95 45 1.5 10.28.35c3.1.1 3.09-4.7 0-4.8" class="e"/><path d="M338.05 237.14c3.05-1.6 6.06-3.29 9.06-4.99a2.4 2.4 0 1 0-2.43-4.14q-4.49 2.57-9.05 4.99a2.4 2.4 0 0 0-.86 3.28 2.46 2.46 0 0 0 3.28.86m18.44-9.03c7.2-4.06 14.63-7.74 21.99-11.52a2.4 2.4 0 0 0-2.43-4.15c-7.35 3.79-14.77 7.47-21.99 11.52-2.7 1.51-.28 5.66 2.42 4.14m-143.7 118.84q3.57-1.6 7.15-3.15c2.31-1 4.25-1.83 6.67-2.79a2.46 2.46 0 0 0 1.68-2.95 2.4 2.4 0 0 0-2.95-1.68 395 395 0 0 0-14.98 6.43 2.4 2.4 0 0 0-.86 3.28 2.47 2.47 0 0 0 3.29.87m11.73 13.73 8.89-8.29a2.4 2.4 0 0 0 0-3.39 2.45 2.45 0 0 0-3.4 0l-8.88 8.29a2.4 2.4 0 0 0 0 3.4 2.45 2.45 0 0 0 3.4 0m138.67-14.95c4.98 1.27 10.01 2.32 14.96 3.7a2.4 2.4 0 1 0 1.27-4.63c-4.94-1.38-9.97-2.44-14.95-3.7a2.4 2.4 0 1 0-1.28 4.63m-7.6 10.03q4.47 5.14 9.17 10.08a2.4 2.4 0 0 0 3.39 0 2.45 2.45 0 0 0 0-3.4 310 310 0 0 1-9.17-10.07 2.4 2.4 0 0 0-3.4 0 2.46 2.46 0 0 0 0 3.4" class="e"/><path d="M249.41 211.01a24.9 24.9 0 0 1 20.59-5.16 7 7 0 0 1 2.6.95c1.86 1.27 2.37 3.76 2.72 5.99a6.4 6.4 0 0 1 .03 2.81 3.9 3.9 0 0 1-2.9 2.51 6 6 0 0 1-3.9-.6 5 5 0 0 0-1.91-.72 4 4 0 0 0-2.19.9 91 91 0 0 0-9.12 6.85 22 22 0 0 1-4.1 3.23 12 12 0 0 1-5.22 1.28c-1.8.08-3.82-.18-5-1.56-1.67-1.93-.82-4.92.38-7.17a31 31 0 0 1 7.11-8.82Z" class="b"/><path d="M251.11 212.7a22.5 22.5 0 0 1 14.54-4.93c2.03.03 5.4-.03 6.45 2.07a11 11 0 0 1 .8 2.87c.14.79.5 2.01-.13 2.65-.71.73-2.02.48-2.83.15-1.54-.63-2.77-1.44-4.52-.96a13 13 0 0 0-3.67 2.1q-2.07 1.42-4.09 2.93-1.88 1.41-3.68 2.95a30 30 0 0 1-3.2 2.72 9 9 0 0 1-3.73 1.32 7 7 0 0 1-3.64-.23c-2.2-1.06-.11-4.57.69-5.92a29 29 0 0 1 6.1-7.23c2.35-2.03-1.06-5.41-3.38-3.4a33 33 0 0 0-6.87 8.2c-1.72 2.92-3.22 6.7-1.5 9.97 1.75 3.3 5.8 3.77 9.14 3.34a14 14 0 0 0 5.25-1.68 30 30 0 0 0 4.37-3.55q2.1-1.82 4.34-3.44c2.24-1.62 3.26-2 4.63-3.21.26-.23.25-.25.42-.23a5 5 0 0 1 1.11.54 10 10 0 0 0 2.83.8 6.8 6.8 0 0 0 4.92-1.24c3.12-2.33 2.63-6.3 1.67-9.65a9 9 0 0 0-2.42-4.22 9.4 9.4 0 0 0-4.85-2.04 27.6 27.6 0 0 0-22.14 5.92 2.4 2.4 0 0 0 0 3.4 2.46 2.46 0 0 0 3.4 0Z" class="e"/><path d="M362.6 71.1a7 7 0 0 1 5.02-1.11 6.3 6.3 0 0 1 5.2 3.57c1.53 3.33.79 9.06-.9 12.46a18 18 0 0 1-6.84 8.1 13 13 0 0 1-7.14 1.5l-.53 1.1a56 56 0 0 1-2.63 4.5 58 58 0 0 1-6.44 8.1 56 56 0 0 1-12.98 9.34 64 64 0 0 1-13.12 4.52 48 48 0 0 1-4.79.67c-10.27.94-18.79-1.74-26.83-8.29-7.68-6.25-11.03-16.12-12.26-27.04-.7-6.3-1.33-13.15-2.25-19.99 0 0-8.36-30.13 33.87-30.13 61.42 0 52.63 32.7 52.63 32.7" class="b"/><path d="m289.76 48-.53.39c-6.46 4.9-9.83 11.85-10.14 17.84l-2.95 1.8a81 81 0 0 1-1.43-15.27c-.25-12.46 5.54-24.66 10.64-31.44a52 52 0 0 1 9.84-9.05c9.93-7.07 20.5-9.93 32.87-9.82 12.57.12 25.31 3.3 34.37 14.82 10.74 9.6 15.59 17.11 15.17 37.15a48 48 0 0 1-3.97 16.93c-1.12 7 1.15-.3-6.01-1.37a7 7 0 0 0-5.01 1.12l-10.06.32c-.32-2.25-.94-10.02-2.22-11.9-.9-1.33-7.23-.44-8.57-1.45-.85-.63-3.66-5.22-5.71-8.06a3 3 0 0 0-2.86-1.23c-7.4 1.14-19.54-2.46-25.49-5.88l-8.82 1.56a21 21 0 0 0-9.12 3.53" class="a"/><path d="M324.88 99.38a20 20 0 0 1 1.37 2.66l-.24-.58q.21.5.4 1.02a2.7 2.7 0 0 0 1.1 1.43 2.5 2.5 0 0 0 1.85.24 2.4 2.4 0 0 0 1.43-1.1 2.4 2.4 0 0 0 .24-1.85 23 23 0 0 0-2-4.24 2.5 2.5 0 0 0-1.44-1.1 2 2 0 0 0-.96-.05 2 2 0 0 0-.9.29 2.4 2.4 0 0 0-1.1 1.43 2.5 2.5 0 0 0 .25 1.85M320.2 79.3c-.6-2.23 0-7.29 4.2-7.59 5.52.22 5.61 6.36 3.66 9.19-1.6 2.31-6.11 3.15-7.86-1.6m-32.84-.02c-.56-2.24 0-7.32 3.84-7.62 5.06.21 5.14 6.38 3.36 9.22-1.47 2.32-5.6 3.16-7.2-1.6m16.88 5q-1.08 1.8-2 3.7a6 6 0 0 0-.65 2.15 3.1 3.1 0 0 0 1.06 2.47 5 5 0 0 0 1.96 1.1 11 11 0 0 0 1.43.2l-.64-.09.06.01a2.6 2.6 0 0 0 1.84-.24 2.4 2.4 0 0 0 .87-3.29 2.3 2.3 0 0 0-1.44-1.1l-1.22-.14.64.08a2 2 0 0 1-.55-.14l.57.24a3 3 0 0 1-.45-.27l.48.38a3 3 0 0 1-.38-.35l.38.48-.08-.13.24.57-.06-.22.1.64v-.24l-.1.64a3 3 0 0 1 .17-.59l-.24.58a38 38 0 0 1 2.15-4.01 2.4 2.4 0 1 0-4.14-2.43m59.58-11.12a5 5 0 0 1 4.7-.5 4 4 0 0 1 1.48.92c.07.07.48.6.2.22a5 5 0 0 1 .4.66c1.33 2.68.63 6.5-.3 9.2a16.6 16.6 0 0 1-5.2 7.54c-2.05 1.6-5.68 2.88-8.35 1.66a2.47 2.47 0 0 0-3.29.86 2.4 2.4 0 0 0 .87 3.29 13.5 13.5 0 0 0 11.05-.38c3.23-1.44 5.8-4.39 7.55-7.4a22.6 22.6 0 0 0 3.07-9.86c.23-3.17-.27-6.7-2.53-9.1a9.8 9.8 0 0 0-12.08-1.26c-2.55 1.7-.15 5.87 2.43 4.15m-58.65 31.7a15 15 0 0 0 7 1.74 16 16 0 0 0 3.6-.32 20 20 0 0 0 3.28-1.12 2.46 2.46 0 0 0 1.67-2.95 2.43 2.43 0 0 0-2.95-1.67 22 22 0 0 1-2.96 1.04l-.65.14q-.16.01-.33.05c.57-.14.2-.03.04-.02a14 14 0 0 1-1.52.06q-.73-.02-1.45-.1c-.47-.04.3.06 0 0l-.35-.06q-.36-.06-.7-.14a12 12 0 0 1-1.4-.4l-.3-.11c-.42-.16.3.17.05.02l-.6-.31a2.4 2.4 0 0 0-2.42 4.14Z" class="e"/><path d="M336.57 120.73a56 56 0 0 0 13.26-9.51 53 53 0 0 0 5.8-7.01 45 45 0 0 0 3.86-6.29 2.46 2.46 0 0 0-.87-3.28 2.4 2.4 0 0 0-3.28.86c-4.52 9.26-12.2 16.37-21.19 21.09-2.73 1.43-.31 5.58 2.42 4.14" class="e"/><path d="M273.71 68.53c1.03 7.66 1.54 15.39 2.64 23.03a48 48 0 0 0 5.88 17.85c6.62 11 19.7 17.32 32.35 17 7.72-.19 15.03-2.46 22-5.68a2.4 2.4 0 0 0 .85-3.28 2.46 2.46 0 0 0-3.28-.86c-10.66 4.92-23.28 7.33-34.3 2.05a31.3 31.3 0 0 1-12.9-10.73 42 42 0 0 1-5.65-15.65c-1.37-7.83-1.73-15.85-2.78-23.73a2.5 2.5 0 0 0-2.4-2.4c-1.17 0-2.58 1.1-2.4 2.4Z" class="e"/><path d="M362.38 13.5A41 41 0 0 0 339.3 1.1a66 66 0 0 0-26.92.65 55.6 55.6 0 0 0-22.77 11.88 42 42 0 0 0-8.37 9.46 61 61 0 0 0-5.81 11.99c-3.92 10.87-3.67 22.37-1.6 33.6a2.4 2.4 0 0 0 2.96 1.68 2.45 2.45 0 0 0 1.67-2.95c-1.67-9.1-2.12-18.61.47-27.59 2.2-7.6 5.94-15.2 11.73-20.7a51 51 0 0 1 19.95-11.9 60 60 0 0 1 24.68-1.92c9.07 1.1 17.49 4.82 23.71 11.61 2.1 2.28 5.48-1.12 3.4-3.4Zm13.93 57.58a53 53 0 0 0 3.47-13.44 64 64 0 0 0-.04-12.56c-.55-6.25-2-12.43-5.3-17.83a44 44 0 0 0-6.06-7.63c-2.15-2.22-5.54 1.17-3.4 3.4a33 33 0 0 1 8.08 12.58c2.1 6.34 2.46 13.35 2.1 19.98a46 46 0 0 1-3.48 14.22 2.4 2.4 0 0 0 1.68 2.95 2.46 2.46 0 0 0 2.95-1.67" class="e"/><path d="M298.24 42.14a24.7 24.7 0 0 0-14.75 8.3 26.5 26.5 0 0 0-6.8 15.79 2.4 2.4 0 0 0 4.8 0 21.8 21.8 0 0 1 5.63-12.65 22 22 0 0 1 5.26-4.42 21 21 0 0 1 7.14-2.39 2.4 2.4 0 0 0 1.67-2.95 2.46 2.46 0 0 0-2.95-1.68m8.25 2.84a52 52 0 0 0 12.96 4.93 54 54 0 0 0 7.39 1.3 32 32 0 0 0 3.25.18q.8 0 1.6-.05a11 11 0 0 1 1.85-.2c.68.08 1.05.94 1.41 1.47q1.03 1.5 2.04 3.03c1 1.48 2.01 3.51 3.56 4.5 1.44.92 3.44.84 5.09.9.87.04 1.75.05 2.62.15-.38-.04.56.17.67.16-.16.02-.33-.29-.1-.04-.09-.09-.77-.5-.41-.32l.07.15q-.18-.43-.02-.03a13 13 0 0 1 .5 1.9q.33 1.62.56 3.26c.25 1.82.44 3.87.7 5.78a2.4 2.4 0 0 0 2.95 1.67 2.47 2.47 0 0 0 1.68-2.95l-.05-.44-.14-1.2q-.2-1.76-.43-3.52a31 31 0 0 0-1.08-5.57 4.5 4.5 0 0 0-3.56-3.46 56 56 0 0 0-6-.45c-.1 0-.5-.08-.07 0l-.5-.1c-.25-.04-.39-.26.04.04.69.48.26.25.2.14a3 3 0 0 0-.33-.38l-.04-.05q-.52-.7-1-1.43c-1.37-2-2.6-4.18-4.16-6.04a5.4 5.4 0 0 0-3.83-1.95c-1.2-.07-2.22.22-3.5.23a34 34 0 0 1-6.75-.66 49 49 0 0 1-14.76-5.1c-2.69-1.53-5.1 2.62-2.42 4.14Z" class="e"/><path d="M342.9 192.54a7 7 0 0 0-.92.08c-3.18.52-5.69 1.29-7.84 3.17a30 30 0 0 0-5.58 6.07 97 97 0 0 0-5.95 9.94c-.98 1.9-1.9 3.97-1.73 6.1a4.15 4.15 0 0 0 3.98 3.57 4.6 4.6 0 0 0 3.25-2.03l.7-1.23-1 2.7c-.53 1.44.67 3.94 2.21 4.54a4.8 4.8 0 0 0 4.62-1.04l1.95-1.6-.17.57a4.14 4.14 0 0 0 2.5 4.54c1.24.42 3.88.4 4.6-.7l1.96-2.97-.03 1.27c-.04 1.78 1.08 2.86 2.61 3.54a4.2 4.2 0 0 0 3.29-.3c4.05-1.74 6.27-6.04 9.33-9.22a21 21 0 0 1 6.84-4.69c1.92-.8 4.15-2.08 4.15-4.16a15 15 0 0 0-1.03-5.1 14.5 14.5 0 0 0-4.12-6.3 22 22 0 0 0-7.56-4.72c-3.07-.42-12.1-2.16-16.05-2.03" class="b"/><path d="M336.21 202.96c-2.7 3.6-5.34 7.23-7.7 11.06q-.91 1.48-1.78 2.99a4 4 0 0 1-1.77 1.99c-.36.19-.46.17-1-.24a1.7 1.7 0 0 1-.7-1.71c.17-2.28 1.62-4.5 2.7-6.44a98 98 0 0 1 3.71-6.09 30 30 0 0 1 4.17-5.2 14 14 0 0 1 4.64-3.38 19 19 0 0 1 2.92-.8l1-.18c.66-.13-.4.03-.02 0l.89-.03a36 36 0 0 1 4.61.35c3.15.38 6.29.96 9.43 1.45 3.63.57 7.55 3.57 9.57 6.59a15 15 0 0 1 2.01 4.7c.2.78.66 2.2.3 2.95a4 4 0 0 1-1.5 1.15c-1.06.58-2.2.98-3.27 1.56a24 24 0 0 0-3.27 2.21 32 32 0 0 0-5.05 5.37 20 20 0 0 1-4.69 4.75 3.8 3.8 0 0 1-2.44.83 1.4 1.4 0 0 1-1.13-1.32c-.05-3.09-4.85-3.1-4.8 0a6.3 6.3 0 0 0 4.38 5.85c2.92 1.03 6-.72 8.22-2.53a37 37 0 0 0 4.9-5.5 21 21 0 0 1 5.94-5.3c2.17-1.25 4.66-1.89 6.3-3.92 1.92-2.39 1.33-5.67.44-8.4a20.8 20.8 0 0 0-9.64-11.62 19 19 0 0 0-3.79-1.77 17 17 0 0 0-2.23-.4q-2.92-.48-5.86-.93c-4-.6-7.97-1.26-11.97-.4-5.42 1.17-9.6 4.92-12.76 9.34a85 85 0 0 0-4.63 7.3c-1.44 2.5-3.13 5.24-3.66 8.12-.6 3.18.37 6.3 3.4 7.85a6.34 6.34 0 0 0 8-2.42c1.71-2.63 3.17-5.41 4.92-8.01 1.7-2.53 3.52-4.97 5.35-7.4a2.4 2.4 0 0 0-.86-3.29 2.46 2.46 0 0 0-3.29.86Z" class="e"/><path d="M325.5 220.28a6.5 6.5 0 0 0 3.89 7.5 7.1 7.1 0 0 0 7.36-2.1c2.69-3.17 4.86-6.8 7.35-10.1.71-.95 1.38-1.8 2.27-2.86a32 32 0 0 1 2.5-2.67c2.26-2.12-1.14-5.51-3.39-3.4a64 64 0 0 0-7.8 9.6l-3.28 4.63-.6.82-.26.35c-.31.43.25-.29.02-.02a5 5 0 0 1-.73.74 5 5 0 0 1-.61.34 3 3 0 0 1-.65.18 2 2 0 0 1-.63-.05c.1.01-.06-.02-.07-.03a3 3 0 0 1-.68-.98c.05.14-.15-.72-.1-.25v-.34c.02-.37-.14.5.04-.08.9-2.97-3.73-4.23-4.63-1.28" class="e"/><path d="M334.11 222.75a6.55 6.55 0 0 0 3.2 7.07 7.6 7.6 0 0 0 6.92-.07c1.5-.89 2.43-2.94 3.39-4.35a114 114 0 0 1 3.76-5.23 39 39 0 0 1 4.76-5.28 2.4 2.4 0 1 0-3.39-3.4c-3.6 3.2-6.45 7.35-9.15 11.3l-1.59 2.37-.32.48c-.06.09-.4.46-.16.25a1 1 0 0 1 .28-.28q-.36.18.03 0c-.08.02-.77.18-.52.14s-.5.02-.6.02-.85-.05-.56-.01-.38-.1-.45-.1q-.34-.11.02.02l-.28-.17.02.01-.34-.34c.19.22-.22-.36-.27-.45q-.11-.22-.02-.01l-.14-.49q.04.35.01-.1-.08.33.03-.1a2.4 2.4 0 0 0-4.63-1.28" class="e"/></svg>
