<svg xmlns="http://www.w3.org/2000/svg" viewBox="0 -50.83 455.4 455.4"><defs><style>.a{fill:#fff}.b{fill:#bdbdbd}.c{fill:#7abee6}.d{fill:#85807f}.e{fill:#211715}.g{fill:#3d8dcc}</style></defs><path d="m121.76 159.96-3.9-.55c-1.23-.87-17.42-13.64-18.22-14.29v-1.51a38 38 0 0 1-10.73-9.27 49 49 0 0 1-9.23-17.41 7 7 0 0 1-5.88-1.48c-3.4-2.78-4.81-6.66-5.67-9.2-1.22-3.58-1.3-9.37.52-12.51a6 6 0 0 1 5.33-2.96 6.4 6.4 0 0 1 4.62 1.69S71.31 59.2 119.31 59.2c43.71 0 41.12 33.27 41.12 33.27a6.4 6.4 0 0 1 4.63-1.69 6 6 0 0 1 5.33 2.96c1.81 3.15 1.73 8.94.52 12.52-.86 2.53-2.27 6.42-5.68 9.2a7 7 0 0 1-5.43 1.57l-.52-.1a42 42 0 0 1-1.87 5.09c-1.38 3.72-8.91 16.7-18.47 21.92v1.19c-.8.64-17 13.41-18.22 14.28m237.85-47.12a186 186 0 0 1-5.74 18.86 58 58 0 0 1-20.03 6.28l-.78.14a56.4 56.4 0 0 1-27.38-2.02c-.78-4.5-1.43-9.1-1.88-13.69l9.81-15.86 35.84-1.48Z" class="a"/><path d="M426.63 184.57c4.32 18.87 6.92 34.68-.56 49.78-1.72 3.47-5.06 8.82-7.89 11.52a26.5 26.5 0 0 1-10.74 6.13q1.15 4.4 2.48 8.77H291.69l-36.94-62.06a36 36 0 0 1 .4-11.9c2.08-11.27 4.59-22.74 6.42-28.06 2.18-6.31 4.67-16.58 11.04-23.92 4.17-4.8 12.62-8.85 20.27-11.47l8.35-2.46 1.4-.41c1.66 18.55 6.6 37.2 10.54 49.87 1.48 4.76 2.81 8.67 3.78 11.42a197 197 0 0 0 8.3 19.44c1.67-3.41 6.91-15.59 12.45-29.29 4.64-11.49 9.49-24.05 12.6-33.44 2.9-8.72 6.43-17.66 8.67-28l3.7 1.8 9.97 4.85c15.9 4.75 29.08 10.74 38.12 24.08 8.2 12.11 13.55 34.56 15.87 43.35" class="b"/><path d="M377.27 201.73c-6.22 3.2-16.15 8.23-22 11.52l-9.48 4.1a392 392 0 0 1-8.95 4.94l-1.05.58v31.18l.38 4v30.92l1.05 2.58v34.16h3.25c13.43-7.38 25.67-13.83 38.05-21.01-.23-7.68-.46-19.83-.46-26.72l.43-8.22c-.29-10.07-.29-21.26 1.3-30.25l-1.87-4.4c-.34-11.4-.12-23.41.57-32.47" class="a"/><path d="M332.02 137.57a56.4 56.4 0 0 1-27.39-2.03 281 281 0 0 0 8.55 34.82 348 348 0 0 0 3.77 11.42 197 197 0 0 0 8.3 19.44c1.67-3.41 6.92-15.58 12.45-29.29 4.64-11.48 9.5-24.05 12.61-33.44q1.22-3.62 2.52-7.34a58 58 0 0 1-20.03 6.28z" class="c"/><path d="M351.8 112.38c12.3.46 21.14-4.45 26.17-12.9a27.2 27.2 0 0 0 3.48-18.72c-1.6-8.53-3.91-15.45-6.13-25.57-1.87-8.53-2.84-19.46-6.5-26.83-2.44-4.92-7.21-12.21-14.35-16.48l-8.2-4.48-1.2-.67A58 58 0 0 0 321.8 2.4c-16.01.08-29.21 7.48-35.51 13.56-7.03 7.57-9.9 15.11-13.15 29.32-2.11 9.3-4.2 20.59-5.86 29.96-1.4 8.08-1.52 16.19 2.53 23.32 3.2 5.57 8.23 9.15 15.26 11.28Z" class="d"/><path d="M333 116.79a55 55 0 0 0 12.78-9.17 57 57 0 0 0 6.35-7.96s1.83-2.83 2.6-4.44l.52-1.08a13 13 0 0 0 7.04-1.46 18 18 0 0 0 6.75-7.95c1.65-3.35 2.4-8.99.9-12.27a6.2 6.2 0 0 0-5.12-3.53 6.8 6.8 0 0 0-4.93 1.1l-7.18 1.28c-3.58-1.55-5.33-4-7.3-7.85-3-5.85-4.07-13.37-8.16-18.03a10.5 10.5 0 0 0-8.87-3.83s-4.52-.03-6.41-.05c-3.69-2.6-9.75-1.03-14.08.76a18 18 0 0 0-4.93 3.22c-5 4.37-8.26 10.08-12.7 14.9-4.2 4.56-9 6.46-15.62 5.96q.55 4.09.98 8.15c.48 4.29.88 8.5 1.32 12.48.87 7.87 2.87 15.2 6.84 20.98a27 27 0 0 0 5.18 5.66c7.9 6.46 16.3 9.1 26.4 8.2q2.42-.22 4.71-.65a63 63 0 0 0 12.93-4.43Z" class="a"/><path d="M318.13 78.03c-.6-2.2.01-7.17 4.14-7.46 5.44.22 5.53 6.27 3.6 9.05-1.58 2.27-6.02 3.09-7.74-1.59m-32.32-.08c-.55-2.2.01-7.2 3.8-7.49 4.97.22 5.05 6.29 3.28 9.08-1.44 2.28-5.51 3.1-7.08-1.6m16.57 4.94a48 48 0 0 0-1.97 3.63 5 5 0 0 0-.65 2.13 3.1 3.1 0 0 0 1.05 2.46 5 5 0 0 0 1.94 1.1 11 11 0 0 0 1.42.2l-.63-.1.05.01a2.6 2.6 0 0 0 1.85-.24 2.4 2.4 0 0 0 .86-3.28 2.3 2.3 0 0 0-1.43-1.1l-1.22-.15.64.09a2 2 0 0 1-.54-.14l.58.24a3 3 0 0 1-.45-.27l.48.38a3 3 0 0 1-.37-.35l.38.49-.08-.13.24.57-.05-.22.08.64v-.24l-.09.64a3 3 0 0 1 .17-.57l-.24.57a37 37 0 0 1 2.12-3.94 2.4 2.4 0 1 0-4.14-2.42m58.72-10.8a5 5 0 0 1 4.6-.48 3.3 3.3 0 0 1 2.03 1.77c1.28 2.61.59 6.37-.32 9.03a16.3 16.3 0 0 1-5.14 7.4c-2 1.54-5.54 2.8-8.17 1.6a2.47 2.47 0 0 0-3.28.86 2.4 2.4 0 0 0 .86 3.29 13.3 13.3 0 0 0 10.92-.36 17.4 17.4 0 0 0 7.45-7.28 22 22 0 0 0 3.05-9.72c.22-3.14-.27-6.61-2.5-8.99a9.7 9.7 0 0 0-11.92-1.26c-2.56 1.7-.16 5.86 2.42 4.14" class="e"/><path d="M334.2 118.86a55 55 0 0 0 13.07-9.35 52 52 0 0 0 5.72-6.9 44 44 0 0 0 3.81-6.18 2.46 2.46 0 0 0-.86-3.28 2.4 2.4 0 0 0-3.28.86c-4.48 9.13-12.03 16.08-20.88 20.7-2.74 1.43-.32 5.58 2.42 4.15" class="e"/><path d="M331.78 114.71c-10.17 4.7-22.17 7.06-32.8 2.4a31 31 0 0 1-13.35-10.65c-3.26-4.88-4.93-10.59-5.87-16.34-1.23-7.53-1.62-15.2-2.6-22.77a2.5 2.5 0 0 0-2.4-2.4 2.4 2.4 0 0 0-2.4 2.4c.95 7.34 1.47 14.74 2.47 22.08.88 6.42 2.59 12.88 6 18.45 6.63 10.8 19.54 16.92 32.03 16.54 7.5-.23 14.58-2.45 21.34-5.56a2.4 2.4 0 0 0 .86-3.29 2.46 2.46 0 0 0-3.28-.86" class="e"/><path d="M293.85 259.29c.75 5.54-.05 12.13.54 18.29m93.21-23.99q-3.53-.26-7.16-.8" style="fill:none"/><path d="M424.32 185.2c2.83 12.4 5.8 25.67 3 38.36a46 46 0 0 1-7.07 15.96 24.3 24.3 0 0 1-12.43 9.83c-6.48 2.23-13.45 2.34-20.22 1.84a2.4 2.4 0 0 0-2.4 2.4 2.45 2.45 0 0 0 2.4 2.4c12.67.93 26.7-.77 34.95-11.51a51 51 0 0 0 8.73-16.99 57 57 0 0 0 1.75-19.46 158 158 0 0 0-4.09-24.1c-.68-3.01-5.31-1.74-4.63 1.28ZM300.6 118.6c-3.24.96-6.54 1.8-9.72 2.94-6.94 2.5-14.69 5.76-19.74 11.36-4.95 5.48-7.72 12.54-10 19.45a195 195 0 0 0-5.13 18.2 423 423 0 0 0-2.99 14.68 40 40 0 0 0-.58 14.12 2.4 2.4 0 0 0 2.95 1.68 2.45 2.45 0 0 0 1.68-2.95 32 32 0 0 1 .5-11.1q1.15-6.3 2.5-12.56a183 183 0 0 1 4.9-18.27c2.01-6.32 4.16-12.67 8.11-18.08 4.1-5.61 10.98-8.81 17.3-11.25 3.75-1.44 7.65-2.46 11.5-3.6 2.95-.87 1.7-5.5-1.28-4.62m41.41 86.06a520 520 0 0 0 17.25-25.94q4.12-6.57 8.1-13.23 1.95-3.29 3.86-6.6c1.07-1.9 2.56-3.93 3.18-6.02.98-3.35-1.26-5.79-3.29-8.12q-2.99-3.4-6.05-6.74l-.49 3.77c3.72-1.84 7.6-3.5 11.17-5.64a4.4 4.4 0 0 0 1.66-1.43c.61-1.06.2-2.3-.18-3.35a34 34 0 0 0-3.9-7.76 2.46 2.46 0 0 0-3.28-.86 2.4 2.4 0 0 0-.86 3.28 32 32 0 0 1 2.69 4.84 12 12 0 0 1 1.15 3.25v-1.28q.99-1.36.51-.92l.26-.2-.33.2q-.57.35-1.15.66-1.66.89-3.35 1.72l-6.81 3.35a2.43 2.43 0 0 0-.49 3.77q2.6 2.84 5.16 5.7c.82.93 1.67 1.85 2.43 2.82a1.7 1.7 0 0 1 .38 1.97 53 53 0 0 1-3.06 5.44q-1.84 3.19-3.72 6.34-7.58 12.7-15.74 25.06-4.5 6.85-9.24 13.5a2.4 2.4 0 0 0 .86 3.29 2.45 2.45 0 0 0 3.29-.86Z" class="e"/><path d="M300.36 121.86a231 231 0 0 0 6.56 35.37 277 277 0 0 0 8.75 28 222 222 0 0 0 6.78 15.67 2.4 2.4 0 0 0 3.29.86 2.46 2.46 0 0 0 .86-3.29 217 217 0 0 1-10.24-26 293 293 0 0 1-8.12-30.7 198 198 0 0 1-3.08-19.91 2.47 2.47 0 0 0-2.4-2.4 2.4 2.4 0 0 0-2.4 2.4m128.58 62.07c-3.61-13.7-7-27.93-13.96-40.4a52 52 0 0 0-16.2-17.55c-6.77-4.62-14.52-7.68-22.3-10.16l-1.68-.53q-.37-.13-.76-.23c-.82-.2-.27-.02-.21 0q-.36-.16-.7-.34l-3.37-1.64-5.88-2.86a2.46 2.46 0 0 0-3.28.86 2.4 2.4 0 0 0 .86 3.29c3.31 1.6 6.6 3.3 9.95 4.83a54 54 0 0 0 5.46 1.79q3 .98 5.91 2.12a72 72 0 0 1 10.43 5.01 47.6 47.6 0 0 1 16.32 15.62c4 6.38 6.63 13.57 8.94 20.7 2.23 6.85 4.01 13.81 5.84 20.77.8 2.99 5.42 1.72 4.63-1.27Z" class="e"/><path d="M310.43 139.6a64 64 0 0 0 22.82.17 74 74 0 0 0 10.73-2.32 60 60 0 0 0 10.06-4.23c2.73-1.45.3-5.59-2.43-4.14a56 56 0 0 1-18.8 5.95 78 78 0 0 1-10.44.96 54 54 0 0 1-10.67-1.02 2.46 2.46 0 0 0-2.95 1.67 2.4 2.4 0 0 0 1.68 2.95" class="e"/><path d="M356.25 111.65a194 194 0 0 1-5.73 18.86c-1.9 5.47-3.72 10.97-5.7 16.42a849 849 0 0 1-14.43 36.54c-2.05 4.89-4.1 9.77-6.3 14.6a2.47 2.47 0 0 0 .86 3.28 2.4 2.4 0 0 0 3.28-.86c9.86-21.66 18.33-43.96 26.13-66.44a217 217 0 0 0 6.52-21.12c.7-3-3.92-4.29-4.63-1.28m-68.18 18.82a31 31 0 0 0-4.32 6.82c-1.02 2.24-1.55 4.72 1.13 6q1.51.69 3.05 1.35c.17.07 1.05.61 1.25.55-.19.06-.25-.72-.32-.94-.1-.28.35-.32-.04-.09a6 6 0 0 0-.94 1q-1.38 1.42-2.74 2.88c-.92 1-2.2 2.1-2.63 3.42-.74 2.31 1.37 4.88 2.44 6.81q3.94 7.15 8 14.24 4.46 7.85 9 15.65c1.56 2.66 5.71.25 4.15-2.42q-7.78-13.29-15.26-26.74-1.63-2.91-3.23-5.84a4 4 0 0 0-.42-.77l-.09-.16q-.4 1.38.06.75a8 8 0 0 0 1.22-1.37l2.73-2.9c1.64-1.7 3.37-3.73 2-6.2-.66-1.23-1.9-1.63-3.08-2.16l-1.93-.85a5 5 0 0 0-.68-.3c-.5-.14-.64-.7-.14.57.57 1.45.12.71.44.34a5 5 0 0 0 .45-.98q.44-.9.93-1.76a25 25 0 0 1 2.36-3.5 2.47 2.47 0 0 0 0-3.4 2.4 2.4 0 0 0-3.4 0Zm-2.35-22.94c-4.72-1.46-9.22-3.85-12.29-7.84-3.58-4.65-4.76-10.55-4.61-16.32.16-6.13 1.61-12.24 2.73-18.25 1.18-6.28 2.4-12.56 3.82-18.8 2.08-9.22 4.49-18.83 10.56-26.3 5.87-7.21 15.14-11.6 24.09-13.78a56 56 0 0 1 20.56-.95 53 53 0 0 1 8.54 1.87q2.03.62 4 1.37l.66.25c.88.34-.23-.14.3.15q.5.26.97.54c2.7 1.5 5.13-2.64 2.43-4.15A44 44 0 0 0 333.38.9a64 64 0 0 0-20.1-.18 58 58 0 0 0-17.07 5.54 44 44 0 0 0-11.61 8.01c-7.22 7.3-10.58 17.21-12.96 26.96a387 387 0 0 0-4.12 19.5c-1.25 6.54-2.76 13.16-3.34 19.8-.63 7.26.43 14.95 4.7 21.03 3.78 5.39 9.36 8.7 15.56 10.6 2.96.92 4.22-3.71 1.28-4.62Z" class="e"/><path d="M353.26 13.95c6.18 3.76 11.04 10 13.95 16.59 3.33 7.55 3.9 16.17 5.56 24.18 1.77 8.55 4.42 16.9 6.13 25.47a25.2 25.2 0 0 1-5.67 21.76c-5.48 6.12-13.41 8.3-21.42 8.03-3.1-.1-3.09 4.7 0 4.8 8.15.27 16.3-1.78 22.55-7.2a29.7 29.7 0 0 0 9.9-23.18c-.17-4.33-1.36-8.65-2.4-12.83-1.15-4.6-2.4-9.15-3.48-13.76-2.07-8.78-2.75-18.01-5.77-26.55-3.02-8.58-9.13-16.71-16.93-21.45-2.65-1.61-5.06 2.54-2.42 4.14m-32.18 24.49c-3.68-1.3-7.87-.52-11.47.67a25 25 0 0 0-10.22 6.49 116 116 0 0 0-7.8 9.55c-2.16 2.73-4.41 5.5-7.5 7.19-3.28 1.79-7.02 1.92-10.65 1.53a2.4 2.4 0 0 0-2.4 2.4 2.46 2.46 0 0 0 2.4 2.4 23 23 0 0 0 10.26-.93 21 21 0 0 0 8.4-5.77c2.69-2.93 4.95-6.21 7.45-9.3 2.45-3.03 5.21-6.2 8.77-7.93 3.32-1.62 7.88-2.94 11.5-1.67a2.4 2.4 0 0 0 1.27-4.63Z" class="e"/><path d="M328.37 44c7.39-.62 10.03 7.66 11.97 13.24 2.15 6.17 4.77 13.27 11.16 16.15a2.47 2.47 0 0 0 3.28-.87 2.4 2.4 0 0 0-.86-3.28c-6.2-2.79-7.87-10.43-10-16.25-1.25-3.42-2.72-6.88-5.25-9.57a13 13 0 0 0-10.3-4.22 2.46 2.46 0 0 0-2.4 2.4 2.4 2.4 0 0 0 2.4 2.4m83.86 216.13q-1.21-4-2.29-8.04a2.4 2.4 0 0 0-4.63 1.27q1.08 4.04 2.3 8.04a2.4 2.4 0 1 0 4.62-1.27M303.34 103.2a15 15 0 0 0 6.9 1.72 15 15 0 0 0 3.55-.31 19 19 0 0 0 3.23-1.1 2.46 2.46 0 0 0 1.67-2.95 2.43 2.43 0 0 0-2.95-1.68 22 22 0 0 1-2.92 1.03q-.31.08-.63.13l-.33.05c.6-.13.22-.03.05-.01a14 14 0 0 1-1.49.05q-.71-.02-1.43-.1c-.72-.07.32.07.01 0l-.35-.05-.68-.14a12 12 0 0 1-1.38-.4l-.3-.11c-.42-.16.32.17.07.02l-.6-.3a2.4 2.4 0 1 0-2.42 4.14Zm18.63-4.44a20 20 0 0 1 1.37 2.66l-.24-.58q.21.5.4 1.02a2.7 2.7 0 0 0 1.1 1.43 2.5 2.5 0 0 0 1.85.24 2.4 2.4 0 0 0 1.43-1.1 2.4 2.4 0 0 0 .24-1.84 23 23 0 0 0-2.01-4.25 2.5 2.5 0 0 0-1.43-1.1 2 2 0 0 0-.96-.05 2 2 0 0 0-.9.29 2.4 2.4 0 0 0-1.1 1.43 2.5 2.5 0 0 0 .25 1.85" class="e"/><path d="M118.38 241.7c-5.62-13.9-7.07-18.48-11.47-31.98a654 654 0 0 1-14.61-52.4 6 6 0 0 1 1.34-4.92c1.83-2.12 4.13-5.19 6-7.28.8.65 16.99 13.42 18.22 14.29h2.85c1.23-.87 17.43-13.64 18.22-14.29 1.87 2.1 4.17 5.16 6 7.28a6 6 0 0 1 1.34 4.92 654 654 0 0 1-14.6 52.4c-4.4 13.5-5.85 18.09-11.48 31.97Z" class="a"/><path d="M113.5 229.18c1.3 3.51 2.8 7.37 4.88 12.51h1.82a349 349 0 0 0 10.48-28.92c-1.78-15.21-4.12-33.3-4.12-33.84a13 13 0 0 1 .43-2.84q.17-.63.3-1.27c.46-2.11.55-3.2 1.1-5.43l.03-.11c-2.61-3.53-5.77-7.7-7.7-9.87h-2.85a174 174 0 0 0-7.64 9.78l.25.68a28 28 0 0 1 1.33 4.34 18 18 0 0 1 1.06 5.04c.01.9-2.46 18.05-4.75 34.19 2.07 6.35 3.5 10.68 5.37 15.74" class="g"/><path d="M23.88 260.41c1.8-16.45 3.94-35.06 5.38-46.13 1.98-12.89 4.92-22.78 9.85-30.27 8.9-13.51 26.22-19.22 45.98-26.96a87 87 0 0 1 6.14-4.36 652 652 0 0 0 15.68 57.03c4.62 14.2 5.99 18.54 12.37 34.2 6.4-15.66 7.76-20 12.39-34.2a651 651 0 0 0 15.67-57.03 87 87 0 0 1 6.14 4.36c19.76 7.74 37.09 13.45 45.98 26.96 4.93 7.49 7.87 17.38 9.86 30.27 1.44 11.07 3.58 29.68 5.38 46.13Z" style="fill:#b3b3b3"/><path d="M136.17 243.5c10.73-18.61 21.47-37.29 31.17-56.48a5.4 5.4 0 0 0 .73-4.06 9 9 0 0 0-2.5-3.45c-2.2-2.3-4.5-4.49-6.83-6.66l-.48 3.77 5.59-3.2c1.68-.95 3.67-1.83 3.53-4.1-.09-1.44-1.16-2.92-2-4.05a36 36 0 0 0-2.86-3.41 76 76 0 0 0-13.97-11.25 2.42 2.42 0 0 0-3.52 1.44 654 654 0 0 1-20.69 72.11c-1.99 5.7-4.2 11.3-6.46 16.9a2.4 2.4 0 0 0 1.67 2.94 2.46 2.46 0 0 0 2.96-1.67c8.86-21.9 15.86-44.58 21.86-67.41q2.83-10.75 5.28-21.6l-3.52 1.44a80 80 0 0 1 9.27 6.94 52 52 0 0 1 4.45 4.32 22 22 0 0 1 1.58 1.92q.34.48.66 1l.36.6c.1.14.18.56.16.18l.33-1.21c.19-.37.17-.16-.21.03q-.55.3-1.08.62l-1.93 1.1-3.88 2.2a2.42 2.42 0 0 0-.48 3.78q2.88 2.69 5.66 5.46l1.16 1.2c.32.34 1.17.95 1.3 1.39.04.12 0-.36-.08-.1a14 14 0 0 1-.93 1.81q-3.44 6.68-7 13.29-7.3 13.54-14.92 26.9-4.24 7.46-8.53 14.88c-1.54 2.68 2.6 5.1 4.15 2.43" class="e"/><path d="M106.56 241.08c-10.14-17.58-20.17-35.24-29.51-53.25L76.1 186a8 8 0 0 1-.93-1.8c-.02-.14-.41.46.24-.26q.65-.7 1.31-1.38c2.1-2.18 4.3-4.26 6.5-6.32a2.42 2.42 0 0 0-.5-3.77l-3.86-2.21-1.72-.99-1.08-.6-.43-.26q-.43-.28 0 .1l.33 1.2c-.01.28-.03.1.1-.06l.34-.6q.3-.51.65-.99a22 22 0 0 1 1.56-1.92 51 51 0 0 1 4.56-4.45 80 80 0 0 1 9.26-6.94l-3.52-1.43a654 654 0 0 0 20.68 72.1c2 5.7 4.2 11.3 6.47 16.9a2.5 2.5 0 0 0 2.95 1.68 2.4 2.4 0 0 0 1.67-2.96c-8.86-21.9-15.86-44.58-21.86-67.4q-2.83-10.76-5.28-21.6a2.42 2.42 0 0 0-3.53-1.44 76 76 0 0 0-13.97 11.25c-1.79 1.88-4.34 4.47-4.82 7.14-.43 2.42 1.75 3.43 3.5 4.43l5.59 3.2-.49-3.78a192 192 0 0 0-6 5.8c-1.75 1.8-4.08 3.78-3.35 6.6a17 17 0 0 0 1.59 3.38l1.89 3.65q1.82 3.49 3.68 6.96c5.13 9.6 10.42 19.1 15.78 28.56q4.47 7.87 9 15.7c1.54 2.68 5.69.26 4.14-2.42Z" class="e"/><path d="M97.95 143.43c-1.14 1.28-2.2 2.61-3.28 3.95-1.12 1.39-2.38 2.72-3.4 4.19a7.4 7.4 0 0 0-.6 7.86 90 90 0 0 0 8.13 11.59 28 28 0 0 0 6.08 5.85 2.46 2.46 0 0 0 3.28-.86c3.74-5 7.26-10.22 11.4-14.9a2.44 2.44 0 0 0-.49-3.77l-.41-.31-.37-.29-2.15-1.67-5.96-4.67q-4.44-3.46-8.84-6.97a2.47 2.47 0 0 0-3.4 0 2.4 2.4 0 0 0 0 3.4q4.52 3.59 9.06 7.13c3.2 2.52 6.34 5.15 9.65 7.52l-.48-3.77c-4.41 5-8.17 10.56-12.16 15.88l3.29-.86a16 16 0 0 1-2.72-2.4 50 50 0 0 1-2.98-3.44 92 92 0 0 1-6.58-9.52 7 7 0 0 1-.47-.81c-.11-.26.04-.02.05.07a3 3 0 0 1 0-.8c.26-1.63 1.7-2.87 2.7-4.1 1.32-1.65 2.63-3.32 4.04-4.9 2.04-2.31-1.34-5.72-3.4-3.4" class="e"/><path d="M137.24 146.82c1.4 1.6 2.71 3.26 4.05 4.91.99 1.23 2.43 2.47 2.68 4.1a3 3 0 0 1 .02.79c0-.01.16-.34.04-.06a7 7 0 0 1-.47.8q-.8 1.3-1.62 2.58a90 90 0 0 1-4.97 6.96 50 50 0 0 1-2.97 3.43 17 17 0 0 1-2.72 2.4l3.28.86c-3.98-5.32-7.74-10.89-12.15-15.88l-.48 3.77c3.3-2.37 6.45-5 9.65-7.52q4.55-3.54 9.05-7.14a2.4 2.4 0 0 0 0-3.4 2.46 2.46 0 0 0-3.4 0c-2.91 2.36-5.89 4.66-8.84 6.98l-5.95 4.67-2.15 1.68c.61-.48-.2.15-.37.28l-.42.3a2.45 2.45 0 0 0-.48 3.78c4.14 4.68 7.66 9.9 11.4 14.9a2.45 2.45 0 0 0 3.28.86c4.37-2.87 7.6-7.57 10.55-11.8a95 95 0 0 0 3.41-5.22 7.3 7.3 0 0 0 .24-7.24 24 24 0 0 0-3.35-4.43c-1.29-1.6-2.56-3.21-3.92-4.75-2.05-2.32-5.43 1.09-3.4 3.4m79.86 113.59q-1.6-14.56-3.3-29.1c-1-8.49-1.81-17.05-3.57-25.42-1.65-7.93-4.09-15.96-8.53-22.82-4.24-6.56-10.42-11.47-17.17-15.27-8.7-4.91-18.19-8.32-27.48-11.92a2.4 2.4 0 0 0-2.95 1.67 2.46 2.46 0 0 0 1.68 2.96c8 3.1 16.1 6.07 23.74 10.03 6.31 3.27 12.52 7.36 16.8 13.16 4.55 6.17 7.02 13.59 8.74 20.98 1.85 7.95 2.69 16.07 3.65 24.17q1.87 15.77 3.58 31.56a2.47 2.47 0 0 0 2.4 2.4 2.4 2.4 0 0 0 2.4-2.4Zm-91.17-85.52c-4.22 0-8.44-.09-12.66-.09a2.4 2.4 0 1 0 0 4.8c4.22 0 8.44.09 12.66.09a2.4 2.4 0 0 0 0-4.8" class="e"/><path d="M126.07 168.75c-.4 1.65-.66 3.33-1 5a22 22 0 0 0-.91 5.24c.04 1.14.26 2.3.4 3.44l2.23 17.92 1.5 12.48a2.47 2.47 0 0 0 2.4 2.4 2.4 2.4 0 0 0 2.4-2.4q-1.24-10.6-2.57-21.19c-.51-4.1-1.2-8.23-1.53-12.35a12 12 0 0 1 .52-3.4c.44-1.94.73-3.92 1.2-5.86.7-3-3.92-4.28-4.64-1.27Zm-15.52 44.53q1.9-13.3 3.76-26.6c.32-2.3.72-4.62.91-6.94a13 13 0 0 0-.56-4.36 44 44 0 0 0-2.11-6.72 2.4 2.4 0 0 0-3.29-.87 2.46 2.46 0 0 0-.86 3.29 20 20 0 0 1 .89 3.03c.26 1 .61 1.99.86 3a8 8 0 0 1 .25 2.84c-.26 2.4-.5 3.92-.85 6.4q-1.8 12.83-3.63 25.65a2.5 2.5 0 0 0 1.67 2.95 2.4 2.4 0 0 0 2.96-1.68Zm-84.27 47.13q1.54-14.14 3.2-28.27c.94-8.05 1.7-16.17 3.31-24.13 1.56-7.69 3.75-15.42 7.96-22.1 3.82-6.07 9.54-10.49 15.71-13.97 8.35-4.7 17.43-7.98 26.34-11.43a2.47 2.47 0 0 0 1.67-2.96 2.4 2.4 0 0 0-2.95-1.67c-8.39 3.25-16.9 6.36-24.89 10.51-6.9 3.58-13.37 8.12-18.12 14.35-4.8 6.3-7.54 14.03-9.38 21.66-2.05 8.42-2.95 17.05-3.97 25.64q-1.93 16.18-3.68 32.37a2.4 2.4 0 0 0 2.4 2.4 2.46 2.46 0 0 0 2.4-2.4" class="e"/><path d="M242.42 260.36H2.32c-3.09 0-3.1 4.8 0 4.8h240.1c3.09 0 3.1-4.8 0-4.8m210.66 0h-74.22c-3.09 0-3.1 4.8 0 4.8h74.22c3.09 0 3.1-4.8 0-4.8" class="e"/><path d="M118.38 206.8c-30.4.22-60.67.4-71.42.43a3.1 3.1 0 0 0-3.08 3.1c.06 17.46.9 77.88 1.55 100.1a3.1 3.1 0 0 0 3.14 3c9.71-.16 39.8-.07 69.81.04 30.02-.1 60.1-.2 69.8-.05a3.1 3.1 0 0 0 3.16-3c.64-22.2 1.48-82.63 1.54-100.09a3.1 3.1 0 0 0-3.08-3.1c-10.74-.03-41-.2-71.42-.43" class="a"/><path d="M46.96 204.84a5.7 5.7 0 0 0-4.74 2.72 7 7 0 0 0-.73 3.76q0 2.5.03 4.99.05 6.78.13 13.56.2 17.44.48 34.87.26 16.88.6 33.77l.16 6.8a32 32 0 0 0 .28 6.25 5.65 5.65 0 0 0 5.82 4.26l1.88-.01q7.75-.05 15.51-.05l24.72-.04h57.92l23.85.04q7.03 0 14.06.05a9 9 0 0 0 3.02-.26 5.6 5.6 0 0 0 3.61-3.83 15 15 0 0 0 .23-3.42q.18-6.64.3-13.29.36-17.37.6-34.75.26-17.03.45-34.05.07-6.21.12-12.43c0-1.98.32-4.29-.66-6.08a5.9 5.9 0 0 0-5.51-2.87l-13.2-.01H51.02zc-3.08 0-3.1 4.8 0 4.8l11.34-.02h124.13l5.74.01a9 9 0 0 1 1.63 0c1.16.23.67 2.66.67 3.6q-.1 13.8-.3 27.57-.22 17.64-.52 35.27-.24 15.12-.6 30.24l-.07 2.78c-.02.6.18 1.58-.45 1.88a5 5 0 0 1-1.7.04l-5.44-.03q-9.51-.03-19.03-.04l-26.2-.02h-28.93l-27.23.01-21.08.04-6.85.03-2.27.01c-.48 0-1.36.16-1.71-.14-.5-.42-.29-1.56-.3-2.17l-.07-2.83-.15-6.46q-.17-7.7-.3-15.42-.32-17.62-.56-35.25-.21-15.2-.36-30.42l-.04-5.17c0-.81-.48-3.45.67-3.52 3.06-.17 3.08-4.97 0-4.8" class="e"/><path d="M58.42 300.59c11.66-.07 35.9 0 59.96.08 24.07-.08 46.74-.15 58.4-.08" class="b"/><path d="M58.42 302.99c14.67-.1 29.34-.02 44 .03 17.77.05 35.54-.03 53.3-.05q10.53-.04 21.06.02c3.09.02 3.09-4.78 0-4.8-14.34-.09-28.68-.01-43.01.03-17.95.06-35.9-.03-53.84-.06-7.17 0-14.34-.02-21.51.03-3.1.02-3.1 4.82 0 4.8m50.86-52.08v5.63c0 2.12-.28 4.45 1.36 6.09 1.6 1.58 3.8 1.32 5.85 1.32h5.55a6 6 0 0 0 3.1-.59 4.6 4.6 0 0 0 2.2-2.86 15 15 0 0 0 .14-3.1v-5.67a6 6 0 0 0-.69-3.22 4.5 4.5 0 0 0-3.18-2.09 20 20 0 0 0-2.61-.07h-6.2a6 6 0 0 0-3.43.73 4.7 4.7 0 0 0-2.09 3.82 2.4 2.4 0 0 0 2.4 2.4 2.45 2.45 0 0 0 2.4-2.4c.03-.6-.14.5.04-.07l-.1.25q.21-.33-.07.06c.16-.1.27-.13-.09.04.5-.23-.49 0 .07-.05-.68.07.25.02.42.02h7.88a3 3 0 0 1 .87 0l-.28-.02q.38.13-.08-.04c.5.2-.34-.2.06.05l-.16-.21q.2.35 0-.1c.17.54.05-.52.03.08v7.93a2 2 0 0 1 0 .57l.04-.27-.09.34c.1-.1.07-.46 0-.1l.16-.2q-.29.26.09-.05c-.55.15.38-.06 0 .02-.34.07.6.02.02 0h-8.7a2 2 0 0 1-.52 0q.45.07.2 0c-.26-.07-.12-.03.16.07-.54-.22.41.28-.07-.05q.28.4.07.07l.1.25-.05-.17q-.1-.4 0 .1c-.06-.07 0-.66 0-.77v-7.74a2.4 2.4 0 1 0-4.8 0" class="e"/><path d="m334.3 256.24-4.98-.12-91.08-2.1-.7-.03v31.05l2.63 2.27.57.02 95.43 2.96v-34.01Z" class="c"/><path d="M238.59 320.26v-30.53c0-1.46.68-2.4 2.15-2.4l96.48 2.99v35.4c-32.55-.34-66.4-1.4-96.93-2.52a1.77 1.77 0 0 1-1.7-1.78Z" class="g"/><path d="M334.82 291.55v33.1c0 3.09 4.8 3.1 4.8 0v-33.1c0-3.09-4.8-3.1-4.8 0" class="e"/><path d="M333.77 258.05v30.93c0 3.08 4.8 3.1 4.8 0v-30.93c0-3.09-4.8-3.1-4.8 0" class="e"/><path d="M380.16 266.5c-14.42 6.94-28.3 14.94-42.8 21.77l1.21-.33c-3.06 0-6.13-.17-9.2-.27l-21.69-.67-26.86-.83-24.46-.76-14.38-.45-1.13-.03a4.4 4.4 0 0 0-4.53 3.52c-.45 2.24-.13 4.79-.13 7.04v23.89c0 .67-.03 1.35 0 2.02a4.3 4.3 0 0 0 2.57 3.86c1.76.73 4.18.44 6.05.5q12.8.46 25.6.87 26.41.84 52.83 1.3 6.22.12 12.43.17a33 33 0 0 0 5.12-.04 11 11 0 0 0 3.07-1.48l3.22-1.76c7.5-4.08 15.02-8.13 22.48-12.28q5.46-3.04 10.87-6.18c2.67-1.55.25-5.7-2.43-4.14-12.75 7.41-25.8 14.3-38.74 21.41l1.21-.33c-16.65 0-33.3-.44-49.94-.88q-12.9-.34-25.79-.77-6.3-.2-12.6-.43-3.1-.1-6.19-.22l-2.95-.1-1.58-.06-.68-.02c-.63 0-.26-.15-.1.04.37.46.3.77.35.23.03-.38 0-.78 0-1.16v-27.97a22 22 0 0 0 0-2.19c-.09-.83.05.08-.24-.04.06.02.15-.02.2 0a4 4 0 0 0 1.29.04l2.4.08 7.44.23 22.55.7 26.62.82 23.36.73 12.75.4.67.01c1.83.03 3.65-1.21 5.26-2q2.92-1.41 5.82-2.88c7.58-3.83 15.05-7.86 22.59-11.76q5.4-2.81 10.89-5.46a2.4 2.4 0 0 0 .86-3.29 2.45 2.45 0 0 0-3.28-.86Z" class="e"/><path d="M377.27 201.73c-6.22 3.2-16.15 8.23-22 11.52l-9.48 4.1a392 392 0 0 1-8.95 4.94l-1.05.57v33.41l-1.35-.03-96.07-2.22c-1.26 0-1.76-.42-1.76-1.69v-30.75c0-.36 1.1-1.5 1.71-1.87 6.63-4.33 29.8-14.94 38.08-18.25a9 9 0 0 1 3.35-.65c30.83.04 67.36.92 97.97.92" class="g"/><path d="M338.43 258.7c13.47-6.93 26.89-13.96 40.37-20.88 2.75-1.4.32-5.55-2.43-4.14-13.48 6.91-26.9 13.94-40.36 20.88-2.75 1.41-.32 5.56 2.42 4.14" class="e"/><path d="M333.39 224.6v29.45c0 3.08 4.8 3.09 4.8 0V224.6c0-3.09-4.8-3.1-4.8 0m46.93 10.52a314 314 0 0 1 .57-32.47 2.4 2.4 0 0 0-2.4-2.4 2.45 2.45 0 0 0-2.4 2.4 314 314 0 0 0-.57 32.47c.09 3.08 4.89 3.09 4.8 0" class="e"/><path d="M377.48 238.87c-1.77 10.18-1.68 20.6-1.39 30.89.09 3.08 4.89 3.1 4.8 0-.28-9.84-.47-19.88 1.22-29.61a2.47 2.47 0 0 0-1.68-2.95 2.4 2.4 0 0 0-2.95 1.67m-1.82 39.11c0 8.57.2 17.14.43 25.7.09 3.08 4.89 3.1 4.8 0-.24-8.56-.43-17.14-.43-25.7 0-3.09-4.8-3.1-4.8 0" class="e"/><path d="M324.78 232.38c-12.04-.5-25.66-.74-36.77-1v12.98c11.4.56 25.47.6 36.77 1.14Z" class="a"/><path d="M323.74 229.93c-9.84-.38-19.69-.6-29.54-.81l-3.2-.07c-1.2-.03-2.55-.22-3.65.42a3.8 3.8 0 0 0-1.73 3.48c-.04 2.3 0 4.61 0 6.92 0 2.27-.5 5.27 1.89 6.55a8.5 8.5 0 0 0 3.62.48l3.42.13 7.09.2c4.86.12 9.72.21 14.58.36 2.34.06 4.68.2 7.02.25a3.6 3.6 0 0 0 3.95-3.54c.12-2.28 0-4.6 0-6.88 0-2.61.67-6.71-2.8-7.4a2.46 2.46 0 0 0-2.96 1.68 2.4 2.4 0 0 0 1.68 2.95c-2.33-.46-.56-1.73-.72-1.04a2 2 0 0 0 0 .5v6.74a16 16 0 0 0 0 3.4c.16.7 1.92-.99 1.06-1.2a10 10 0 0 0-1.86-.08q-2.36-.1-4.71-.16c-6.12-.19-12.25-.3-18.37-.46l-4.39-.13-2.14-.08a10 10 0 0 0-2.1-.09c-1.38.28 1.22-1.02.54 1.24v-.08a2 2 0 0 0 0-.45v-7.38a24 24 0 0 1 .04-3.18l-.33 1.21q-1.64.42-.8.4l.41.01 1.05.03 2.12.05 4.15.09 8.84.2q8.93.21 17.84.55c3.09.11 3.08-4.69 0-4.8" class="e"/><path d="M325.84 266.6c-12.05-.5-25.67-.74-36.77-1v12.98c11.4.56 25.46.6 36.77 1.14Z" class="a"/><path d="M324.94 264.16c-10-.4-20.01-.6-30.02-.83l-3.23-.07c-1.39-.04-2.83-.18-3.93.83a4 4 0 0 0-1.1 3.14v7.2c0 2.22-.5 5.3 2.08 6.33a10 10 0 0 0 3.28.36l3.84.13q3.54.12 7.07.2 7.38.16 14.75.37c2.26.07 4.52.2 6.78.24a3.46 3.46 0 0 0 3.78-3.46c.1-2.38 0-4.8 0-7.19 0-2.49.66-6.5-2.66-7.16a2.46 2.46 0 0 0-2.95 1.67 2.4 2.4 0 0 0 1.67 2.96c-.24-.05-.68-1.66-.86-1.27-.05.09 0 .28 0 .37-.03.42 0 .86 0 1.28v8.94c0 1.17-.15-.32.52-.63l1.2-.33a30 30 0 0 1-4.46-.13q-2.38-.09-4.77-.15l-9.85-.24q-4.78-.1-9.57-.25l-4.49-.16-1.04-.04c-1.64-.07.9-.05.48 1.4v-.33c.13-1.34 0-2.76 0-4.1v-5a12 12 0 0 0 0-1.44v-.24l-1.03 1.46.84.02 1.27.03 9.78.22q11.31.24 22.62.66c3.09.13 3.08-4.67 0-4.8" class="e"/><path d="M325.84 301.34c-12.05-.5-25.67-.74-36.77-1v12.99c11.4.56 25.46.59 36.77 1.14Z" class="a"/><path d="M324.24 298.88c-9.59-.37-19.18-.58-28.78-.8l-3.22-.07a6.3 6.3 0 0 0-3.64.57 4.3 4.3 0 0 0-1.94 3.8c-.04 2.18 0 4.37 0 6.55 0 2.46-.3 5.3 2.44 6.51a9 9 0 0 0 3.25.43l3.48.13q3.6.12 7.2.2c4.8.12 9.58.21 14.36.35 2.22.07 4.49.3 6.7.24a4.17 4.17 0 0 0 4.15-4.07c.1-2.15 0-4.33 0-6.48 0-2.76.38-6.76-3.36-7.28a2.5 2.5 0 0 0-2.96 1.68 2.4 2.4 0 0 0 1.68 2.95c1.05.14-.89-.35-.16-.64v.1a2 2 0 0 0 0 .72v2.72c0 1.91-.07 3.84 0 5.75 0 .08-.06.4 0 .47-.1-.1.27-.52.32-.6.15-.2.55.05.13-.12a3 3 0 0 0-.85-.04q-2.93-.12-5.87-.2-6.15-.17-12.3-.3-6.05-.14-12.1-.35a7 7 0 0 0-1.49-.06c.07-.02-.3-.03-.32.01.08-.13.47.5.38.42.29.23.06.34.12-.06a16 16 0 0 0 0-2.25v-6.06a4 4 0 0 0 0-.8v-.21c.15.08-.42.54-.45.58-.19.32-.28.04.17.13a6 6 0 0 0 .84.02l1.28.03 3.04.06c9.3.21 18.6.42 27.9.77 3.09.11 3.08-4.69 0-4.8m24.4-23.96a188 188 0 0 1 18.57-10.27 2.4 2.4 0 0 0 .86-3.28 2.45 2.45 0 0 0-3.28-.86 188 188 0 0 0-18.57 10.26c-2.6 1.64-.2 5.8 2.43 4.15m2.03-10.34a188 188 0 0 1 18.57-10.26 2.4 2.4 0 0 0 .86-3.28 2.45 2.45 0 0 0-3.29-.86 188 188 0 0 0-18.56 10.26c-2.6 1.64-.2 5.8 2.42 4.14m0 47.2a281 281 0 0 1 27.85-15.4 2.4 2.4 0 0 0 .86-3.28 2.45 2.45 0 0 0-3.28-.86 281 281 0 0 0-27.85 15.4c-2.6 1.64-.2 5.8 2.42 4.14m-100.44-45.85v11.7a2.4 2.4 0 1 0 4.8 0v-11.7a2.4 2.4 0 1 0-4.8 0m1.05 34.75v11.7a2.4 2.4 0 1 0 4.8 0v-11.7a2.4 2.4 0 0 0-4.8 0m126.44-101.35c-17.07 0-34.13-.25-51.2-.48q-12.94-.17-25.9-.31l-12.76-.1-6.2-.02a16 16 0 0 0-5.98.75c-4.85 1.9-9.6 4.1-14.32 6.25a419 419 0 0 0-16.6 7.97 118 118 0 0 0-6.14 3.32c-1.86 1.1-4.28 2.55-4.4 4.94-.14 2.64 0 5.33 0 7.98 0 7.5-.19 15.03 0 22.53a3.97 3.97 0 0 0 4.17 4.25l.87.03 5.4.12 21.36.5 28.1.64 25.55.6 14.12.32.65.02c3.1.07 3.1-4.73 0-4.8l-9.53-.23-22.9-.52-27.72-.65-24-.55-11.73-.27h-.18c-.38.07-.42-.2.14.28l.38.3q.16.78.12.3c.23-.82 0-.1 0-.17v-27.71a15 15 0 0 0 0-2.87c-.01-.05.02-.12 0-.16.2.5-.66 1.15-.08.75a5 5 0 0 0 .6-.56 25 25 0 0 1 2.21-1.33c9.73-5.56 20.12-10.15 30.39-14.61l1.65-.72.77-.33.14-.06.23-.1a22 22 0 0 1 3.34-1.25 25 25 0 0 1 5.73-.16l6.04.03q12.52.08 25.05.25c16.97.22 33.93.49 50.9.6q5.87.03 11.73.03c3.1 0 3.1-4.8 0-4.8" class="e"/><path d="M235.14 256v28.48a3.4 3.4 0 0 0 1.5 2.95l1.85 1.6c2.33 2 5.74-1.37 3.4-3.4l-2.66-2.29.7 1.7V256c0-3.09-4.8-3.1-4.8 0Zm101.03-35.4-28.26-.95-45-1.51-10.28-.35c-3.09-.1-3.09 4.7 0 4.8l28.26.95 45 1.52 10.28.34c3.1.1 3.09-4.7 0-4.8" class="e"/><path d="M338.05 224.36a306 306 0 0 0 8.95-4.93 2.4 2.4 0 1 0-2.43-4.15 304 304 0 0 1-8.94 4.93 2.4 2.4 0 0 0-.86 3.29 2.46 2.46 0 0 0 3.28.86m18.44-9.04c7.2-4.05 14.63-7.73 21.99-11.52a2.4 2.4 0 0 0-2.43-4.14c-7.35 3.79-14.77 7.47-21.99 11.52-2.7 1.51-.28 5.66 2.42 4.14m-143.7 118.84q3.57-1.6 7.15-3.16c2.31-1 4.25-1.82 6.67-2.78a2.46 2.46 0 0 0 1.68-2.96 2.4 2.4 0 0 0-2.95-1.67 397 397 0 0 0-14.98 6.43 2.4 2.4 0 0 0-.86 3.28 2.47 2.47 0 0 0 3.29.86m11.73 13.73 8.89-8.29a2.4 2.4 0 0 0 0-3.4 2.45 2.45 0 0 0-3.4 0l-8.88 8.3a2.4 2.4 0 0 0 0 3.4 2.45 2.45 0 0 0 3.4 0m138.67-14.95c4.98 1.26 10.01 2.32 14.96 3.7a2.4 2.4 0 1 0 1.27-4.63c-4.94-1.39-9.97-2.44-14.95-3.7a2.4 2.4 0 1 0-1.28 4.63m-7.6 10.03q4.47 5.15 9.17 10.07a2.4 2.4 0 0 0 3.39 0 2.45 2.45 0 0 0 0-3.39 312 312 0 0 1-9.17-10.07 2.4 2.4 0 0 0-3.4 0 2.46 2.46 0 0 0 0 3.4" class="e"/><path d="m342.69 179.76-.71.08c-3.18.52-5.69 1.28-7.84 3.17a30 30 0 0 0-5.58 6.06 97 97 0 0 0-5.95 9.95c-.98 1.9-1.9 3.97-1.73 6.1a4.15 4.15 0 0 0 3.98 3.57 4.6 4.6 0 0 0 3.25-2.03l.7-1.23-1 2.7c-.53 1.44.67 3.94 2.21 4.54a4.8 4.8 0 0 0 4.62-1.05l1.95-1.6-.17.58a4.14 4.14 0 0 0 2.5 4.53c1.24.43 3.88.4 4.6-.7l1.96-2.96-.03 1.27c-.04 1.78 1.08 2.86 2.61 3.54a4.2 4.2 0 0 0 3.29-.3c4.05-1.74 6.27-6.04 9.33-9.22a21 21 0 0 1 6.84-4.69c1.92-.8 2.93-3.14 3.62-5.1.6-1.68 0-3.12-.29-4.7-.44-2.41-1.2-3.36-4.33-5.76a29 29 0 0 0-7.56-4.72c-3.12-.43-12.44-2.23-16.27-2.03" class="a"/><path d="M336.21 190.18c-2.7 3.6-5.34 7.23-7.7 11.06q-.91 1.48-1.78 2.99a4 4 0 0 1-1.77 1.99c-.36.19-.46.17-1-.24a1.7 1.7 0 0 1-.7-1.71c.17-2.28 1.62-4.5 2.7-6.44a100 100 0 0 1 3.71-6.09 30 30 0 0 1 4.17-5.2 14 14 0 0 1 4.64-3.37 19 19 0 0 1 2.92-.8l1-.18c.66-.14-.4.02-.02 0l.89-.04a36 36 0 0 1 4.61.35c3.15.39 6.29.96 9.43 1.46 3.63.57 7.55 3.57 9.57 6.58a15 15 0 0 1 2.01 4.7c.2.79.66 2.2.3 2.96a4 4 0 0 1-1.5 1.14c-1.06.58-2.2.99-3.27 1.57a24 24 0 0 0-3.27 2.2 32 32 0 0 0-5.05 5.37 20 20 0 0 1-4.68 4.76 3.8 3.8 0 0 1-2.45.83 1.4 1.4 0 0 1-1.13-1.33c-.05-3.08-4.85-3.1-4.8 0a6.3 6.3 0 0 0 4.38 5.85c2.92 1.03 6-.71 8.22-2.53a37 37 0 0 0 4.9-5.5 21 21 0 0 1 5.94-5.3c2.17-1.24 4.66-1.89 6.3-3.91 1.92-2.4 1.33-5.68.44-8.4a20.8 20.8 0 0 0-9.64-11.62 19 19 0 0 0-3.79-1.77 17 17 0 0 0-2.23-.4q-2.92-.48-5.86-.94c-4-.6-7.97-1.26-11.97-.4-5.42 1.17-9.6 4.93-12.76 9.35a85 85 0 0 0-4.63 7.3c-1.44 2.5-3.13 5.24-3.66 8.11-.6 3.19.37 6.3 3.4 7.86a6.34 6.34 0 0 0 8-2.43c1.71-2.62 3.17-5.4 4.92-8 1.7-2.53 3.52-4.97 5.35-7.4a2.4 2.4 0 0 0-.86-3.3 2.46 2.46 0 0 0-3.29.87Z" class="e"/><path d="M325.5 207.5a6.5 6.5 0 0 0 3.89 7.5 7.1 7.1 0 0 0 7.36-2.1c2.69-3.17 4.86-6.8 7.35-10.1.71-.94 1.38-1.8 2.27-2.86a32 32 0 0 1 2.5-2.67c2.26-2.12-1.14-5.51-3.39-3.4a64 64 0 0 0-7.8 9.61l-3.28 4.62-.6.82-.26.35c-.31.43.25-.28.02-.02a5 5 0 0 1-.73.74 5 5 0 0 1-.61.35 3 3 0 0 1-.65.17 2 2 0 0 1-.63-.05c.1.02-.06-.01-.07-.03a3 3 0 0 1-.68-.98c.05.14-.15-.72-.1-.25v-.34c.02-.37-.14.5.04-.08.9-2.96-3.73-4.23-4.63-1.28" class="e"/><path d="M334.11 209.96a6.55 6.55 0 0 0 3.2 7.08 7.6 7.6 0 0 0 6.92-.07c1.5-.89 2.43-2.94 3.39-4.35a112 112 0 0 1 3.76-5.23 39 39 0 0 1 4.76-5.29 2.4 2.4 0 0 0-3.39-3.4c-3.6 3.2-6.45 7.35-9.15 11.3l-1.59 2.38-.32.47c-.06.1-.4.47-.16.26a1 1 0 0 1 .28-.28q-.36.18.03 0c-.08.02-.77.18-.52.14s-.5.02-.6.02-.85-.05-.56-.01-.38-.1-.45-.1q-.34-.12.02.02l-.28-.18.02.02-.34-.35c.19.22-.22-.36-.27-.45q-.11-.22-.02 0l-.14-.5q.04.34.01-.1-.08.34.03-.1a2.4 2.4 0 0 0-4.63-1.28" class="e"/><path d="M167.9 62.2a48 48 0 0 0-19.67-27.63 49 49 0 0 0-28.83-8.87 49 49 0 0 0-29.69 9.48A49.9 49.9 0 0 0 69.12 74.2a55 55 0 0 0 2.23 17.12 7 7 0 0 1 2.63-.54 6.4 6.4 0 0 1 4.62 1.69l1.98-.02 4.56-5.47c4.9-5.47 13.57-13.71 19.65-16.9.71-.37 1.63.13 1.91 1.32a8 8 0 0 1 .2 2.85 1.48 1.48 0 0 0 2.1 1.6c4.35-2.41 12.08-7.26 17.56-9.57l2.28-.96a59 59 0 0 1 5.85 1.95 26 26 0 0 1 7.49 4.71c4.93 4.25 9.67 10.07 11.76 15.35l4.14 5.36 2.35-.22a6.4 6.4 0 0 1 4.62-1.7 7 7 0 0 1 2.48.49c1.68-6.49 2.4-11.22 2.15-17.06a56 56 0 0 0-1.78-12" class="d"/><path d="M118.19 131.67q.45-.24.9-.45c.53-.25-.5.17.1-.04l.67-.23a15 15 0 0 1 1.87-.42c-.35.06-.17.02.08 0a15 15 0 0 1 1.88-.1q.63 0 1.25.02l.57.05c.07 0 .78.1.2.01a14 14 0 0 1 1.85.42c.25.07.5.21.76.27-.07-.02-.5-.24-.21-.09l.32.16q.23.12.45.26c.2.13.75.55 0-.03a2.47 2.47 0 0 0 3.4 0c.8-.86 1.06-2.57 0-3.4a13.4 13.4 0 0 0-8.32-2.48 17 17 0 0 0-8.19 1.9 2.4 2.4 0 0 0-.86 3.29 2.45 2.45 0 0 0 3.28.86m4.4-20.47a38 38 0 0 1 .88 4.06l-.08-.64a3 3 0 0 1 .01.56l.09-.64-.06.25.24-.57-.09.16.38-.48-.14.13.49-.38-.32.17.57-.24a2 2 0 0 1-.54.16l.64-.09a2 2 0 0 1-.51 0l.64.09-.57-.1a2 2 0 0 0-.96-.05 2 2 0 0 0-.9.29 2.4 2.4 0 0 0-.85 3.28 2.3 2.3 0 0 0 1.43 1.1c.46.06.92.18 1.39.2a4.5 4.5 0 0 0 2.08-.5 3 3 0 0 0 1.69-2.02 5 5 0 0 0-.02-2.14 45 45 0 0 0-.86-3.88 2.4 2.4 0 1 0-4.63 1.28m-20.4-11.73a54 54 0 0 1 5.1.32c.52.07-.54-.07-.03 0l.97.15q1.07.18 2.12.41a2.4 2.4 0 0 0 1.28-4.62 51 51 0 0 0-9.44-1.06 2.4 2.4 0 0 0-2.4 2.4 2.45 2.45 0 0 0 2.4 2.4m-1.48 9.5c3.32-.05 6.65-.1 9.97 0a2.4 2.4 0 0 0 2.4-2.4 2.45 2.45 0 0 0-2.4-2.4c-3.32-.1-6.65-.05-9.97 0a2.4 2.4 0 0 0 0 4.8m37.19-9.78q3.97.63 7.87 1.65a2.4 2.4 0 0 0 1.28-4.63 83 83 0 0 0-7.87-1.65 2.6 2.6 0 0 0-1.85.25 2.4 2.4 0 0 0-.86 3.28 2.3 2.3 0 0 0 1.43 1.1m.55 9.66c2.3.11 4.62.18 6.92.3a2.4 2.4 0 0 0 2.4-2.4 2.45 2.45 0 0 0-2.4-2.4c-2.3-.12-4.61-.19-6.92-.3a2.4 2.4 0 0 0-2.4 2.4 2.45 2.45 0 0 0 2.4 2.4M80.3 90.77a9.4 9.4 0 0 0-10.2-1.5 9 9 0 0 0-4.64 6.03c-1.62 6-.09 12.97 3.33 18.1 2.32 3.47 5.99 6.62 10.45 6.03a2.5 2.5 0 0 0 2.4-2.4c0-1.17-1.11-2.58-2.4-2.4-3.33.44-5.6-2.25-7.07-4.92a19 19 0 0 1-2.46-7.65c-.2-2.48-.18-5.54 1.35-7.63l-.06.08q.15-.18.31-.34c.05-.04.53-.42.3-.26a4 4 0 0 1 1.62-.65 4.3 4.3 0 0 1 3.67.91c2.3 2.06 5.7-1.33 3.4-3.4m81.83 3.4a4.3 4.3 0 0 1 3.5-.95 4 4 0 0 1 1.78.68c-.14-.1.83.86.51.45 1.6 2.06 1.6 5.23 1.4 7.7a19 19 0 0 1-2.37 7.5c-1.47 2.72-3.76 5.53-7.15 5.08a2.4 2.4 0 0 0-2.4 2.4 2.46 2.46 0 0 0 2.4 2.4c7.3.96 11.8-7.08 13.57-12.98 1.56-5.23 1.54-13.3-3.53-16.69a9.3 9.3 0 0 0-11.1 1.02c-2.3 2.06 1.1 5.45 3.4 3.4Z" class="e"/><path d="M157.74 113.3a51 51 0 0 1-2.78 8.41c-.13.34.24-.49 0 0l-.24.52q-.3.63-.63 1.25-.75 1.44-1.6 2.82a51 51 0 0 1-10.91 12.98 20 20 0 0 1-8.06 4.19c-3 .7-1.73 5.32 1.28 4.63 6.26-1.46 11.48-6 15.57-10.76a56 56 0 0 0 8.7-13.13l.45-1.04c.04-.1.25-.6.1-.27s.02-.02.05-.07l.39-.93.5-1.28a41 41 0 0 0 1.8-6.05c.63-3.02-4-4.3-4.62-1.28m-81.19 1.12a52 52 0 0 0 11.22 22.28c5.32 6.17 12.18 11.08 20.38 12.3a2.5 2.5 0 0 0 2.95-1.68 2.4 2.4 0 0 0-1.67-2.95c-7.5-1.11-13.4-5.43-18.26-11.06a47 47 0 0 1-9.99-20.16c-.68-3-5.31-1.73-4.63 1.28Z" class="e"/><path d="M89.03 114.1c-.12 3.63-.66 7.74 1.37 11a6.7 6.7 0 0 0 4.44 3.14c2.24.38 4.82-.04 6.33-1.89 1.65-2.03 1.7-4.59 1.31-7.06a2.4 2.4 0 0 0-2.95-1.68 2.47 2.47 0 0 0-1.68 2.95c.07.43-.04-.51 0 .04l.05.53a11 11 0 0 1-.01 1.1c-.03.59.1-.4 0 0l-.1.46-.14.44c.04-.43.2-.42.08-.22l-.12.22-.14.21c.02-.04.4-.44.14-.18l-.27.26c.13-.27.41-.27.18-.14l-.23.14-.18.1c-.19.12.54-.16.1-.06l-.53.13c-.27.06.24-.05.23-.03l-.35.02H96c-.56 0 .43.13-.09 0l-.46-.12-.19-.07c-.28-.07.46.25.22.1q-.18-.12-.37-.21c-.48-.3.25.26 0 .02-.1-.09-.44-.55-.56-.57.03 0 .36.52.17.22l-.09-.13-.23-.38-.17-.33c-.23-.44.07.21.05.14l-.24-.7a11 11 0 0 1-.27-1.2c-.04-.21 0-.18 0 .04l-.07-.83q-.05-.83-.03-1.67c.02-1.26.12-2.52.16-3.78a2.4 2.4 0 0 0-2.4-2.4 2.45 2.45 0 0 0-2.4 2.4Zm59.35-82.3a54.2 54.2 0 0 0-50.83-3.97 52.8 52.8 0 0 0-28.22 31.42 56 56 0 0 0-.69 31.3c.77 2.98 5.4 1.72 4.63-1.28-3.9-15.23-1.1-31.81 9.17-43.98a48.6 48.6 0 0 1 63.52-9.35c2.6 1.68 5-2.47 2.42-4.15m21.8 58.74a61 61 0 0 0 1.94-13.05 58 58 0 0 0-1.18-12.78 50 50 0 0 0-8.55-19.69 52 52 0 0 0-7.05-7.88c-2.28-2.08-5.69 1.3-3.4 3.4 9.94 9.02 15.15 21.64 15.38 35a54 54 0 0 1-1.76 13.73c-.74 3 3.9 4.28 4.63 1.27m-36.7-21.2a33 33 0 0 1 10.5 7.66 36 36 0 0 1 7.65 10.96 2.5 2.5 0 0 0 2.95 1.68 2.4 2.4 0 0 0 1.68-2.95 42 42 0 0 0-8.64-12.83 37 37 0 0 0-11.72-8.66 2.5 2.5 0 0 0-3.28.86 2.4 2.4 0 0 0 .86 3.28" class="e"/><path d="M86.84 88.68a91 91 0 0 1 16.36-14.84q.93-.62 1.9-1.19a3 3 0 0 0 .52-.3c.37-.36 0 .06.03-.04l-1.23-.3-.02-.03c-.05.17.08.36.1.54.13.9-.1 1.8.08 2.7a4 4 0 0 0 1.72 2.58c1.89 1.18 3.6.3 5.32-.68l4.74-2.76a105 105 0 0 1 11.41-6.02 2.4 2.4 0 0 0 .86-3.28 2.46 2.46 0 0 0-3.28-.86 97 97 0 0 0-10.23 5.34l-4.95 2.87-1.89 1.09a3 3 0 0 0-.49.27l1.05-.03.41.52c.13-.06.1-.8.1-.97-.02-2.1-.6-4.57-2.74-5.45-1.9-.78-3.6.4-5.15 1.4a71 71 0 0 0-8.93 7 119 119 0 0 0-9.09 9.04c-2.06 2.29 1.32 5.7 3.4 3.4" class="e"/><path d="M252.42 199.02a22.6 22.6 0 0 1 19.06-2.97 7 7 0 0 1 2.27 1.08c1.6 1.3 1.85 3.6 1.98 5.64a6 6 0 0 1-.21 2.55 3.5 3.5 0 0 1-2.83 2.04 5.5 5.5 0 0 1-3.48-.88 4.4 4.4 0 0 0-1.67-.8 3.5 3.5 0 0 0-2.05.63 83 83 0 0 0-8.83 5.45 20 20 0 0 1-3.97 2.59 11 11 0 0 1-4.83.73c-1.65-.08-3.46-.49-4.41-1.83-1.35-1.89-.33-4.53.94-6.46a28 28 0 0 1 7.17-7.4" class="a"/><path d="M253.63 201.1a20.7 20.7 0 0 1 13.47-3.48c1.7.14 4.81.38 5.67 2.1a7 7 0 0 1 .52 2.5c.07.8.42 2.15-.42 2.6a2.5 2.5 0 0 1-2.27-.31c-1.36-.75-2.5-1.47-4.13-1.15a12 12 0 0 0-3.43 1.57 117 117 0 0 0-3.87 2.26c-2.3 1.42-4.37 3.27-6.73 4.6-1.69.96-4.62 1.43-6.44.51-2.01-1.01.25-4.03 1.05-5.16a25 25 0 0 1 5.72-5.68 2.47 2.47 0 0 0 .86-3.29 2.4 2.4 0 0 0-3.28-.86 32 32 0 0 0-7.07 6.9c-1.84 2.47-3.6 5.7-2.57 8.85 1.07 3.28 4.45 4.37 7.6 4.43a13 13 0 0 0 5.02-.83 21 21 0 0 0 4.55-2.83 68 68 0 0 1 8.82-5.45c.77-.4.52-.28 1.3.17a10 10 0 0 0 2.05.92 6.7 6.7 0 0 0 5.24-.5c3.2-1.84 3.09-5.47 2.58-8.68a7.8 7.8 0 0 0-6.14-6.67 25 25 0 0 0-20.52 3.33c-2.55 1.71-.15 5.87 2.42 4.14Z" class="e"/></svg>
