<svg xmlns="http://www.w3.org/2000/svg" fill="none" viewBox="0 0 24 24"><path stroke="currentColor" stroke-linecap="round" stroke-linejoin="round" stroke-width="1.5" d="M3.17 7.44 12 12.55l8.77-5.08M12 21.61v-9.07"/><path stroke="currentColor" stroke-linecap="round" stroke-linejoin="round" stroke-width="1.5" d="M9.93 2.48 4.59 5.44a4.7 4.7 0 0 0-2.2 3.73v5.65c0 1.38.99 3.06 2.2 3.73l5.34 2.97a4.8 4.8 0 0 0 4.15 0l5.34-2.97a4.7 4.7 0 0 0 2.2-3.73V9.17c0-1.38-.99-3.06-2.2-3.73l-5.34-2.97a4.8 4.8 0 0 0-4.15.01"/></svg>
