<svg xmlns="http://www.w3.org/2000/svg" preserveAspectRatio="xMidYMid" viewBox="0 0 255 255"><defs><linearGradient id="linear-gradient-1" x1="101.109" x2="101.109" y1="136.594" y2="-.312" gradientUnits="userSpaceOnUse"><stop offset="0" stop-color="#ff5134"/><stop offset="1" stop-color="#fd7507"/></linearGradient><style>.cls-4{fill:#ff5134}</style></defs><g id="boxing_glove"><path id="path-1" fill-rule="evenodd" d="m133.87 8.8 22.67 21.15L54.93 136.92l-4.4-4.1c-3.22-3-3.76-6.58-3.94-11.88-.16-4.3-4.86-55.85 38.11-101.93 24.64-26.42 37.86-20.75 49.17-10.2" style="fill:url(#linear-gradient-1)"/><path id="path-2" fill-rule="evenodd" d="m181.3 9.27 62.16 57.97c12.92 12.05 15.09 33.67 6.7 50-31.06 60.44-114.45 86.07-114.45 86.07-4.72 1.64-8.56 2.95-13.5-1.65l-71.67-66.84a8 8 0 0 1-.4-11.3l85.93-112.67a32 32 0 0 1 45.22-1.58" class="cls-4"/><path id="path-3" fill-rule="evenodd" d="m55.46 137.55 67.29 62.75a8 8 0 0 1 .4 11.3l-38.2 40.96a8 8 0 0 1-11.3.4L6.34 190.2a8 8 0 0 1-.39-11.3l38.2-40.96a8 8 0 0 1 11.3-.4" style="fill:#fc0231"/><path id="path-4" fill-rule="evenodd" d="m35.48 133.59 73.13 68.2a8 8 0 0 1 .4 11.3l-24.55 26.34a8 8 0 0 1-11.31.39L.01 171.62z" class="cls-4"/><path id="path-5" fill-rule="evenodd" d="m30.02 139.44 69.48 64.8a5 5 0 0 1 .25 7.06l-17.73 19a5 5 0 0 1-7.07.25L5.47 165.77z" style="fill:#1c8cea"/></g></svg>
