<svg xmlns="http://www.w3.org/2000/svg" fill="currentColor" style="fill-rule:evenodd;clip-rule:evenodd;stroke-linejoin:round;stroke-miterlimit:2" viewBox="0 0 64 64"><path id="Icons" d="M-704 0H576v800H-704z" style="fill:none"/><g id="Icons1"><path id="codeblock" d="M38.15 56.26q5.52-1.23 8.3-4.04 2.8-2.81 2.8-7.43V39.9q0-5.96 6.61-5.96v-3.56q-6.6 0-6.61-5.95v-5.1q-.06-4.5-2.8-7.26-2.72-2.76-8.3-4.01l-1.19 2.82q6.52 1.64 6.52 8.57v4.96q0 5.57 5.2 7.76-5.2 2.2-5.2 7.83v5.06q-.1 6.76-6.52 8.37zm-12.44-.03Q20.19 55 17.4 52.2t-2.8-7.42V39.9q0-5.97-6.6-5.97v-3.56q6.6 0 6.6-5.93v-5.11q.07-4.5 2.8-7.25t8.3-4.01l1.2 2.82q-6.52 1.65-6.52 8.56v4.96q0 5.57-5.21 7.76 5.2 2.2 5.2 7.83v5.05q.1 6.75 6.52 8.37z" style="fill-rule:nonzero"/></g></svg>
