<svg viewBox="0 0 56 56" fill="none" xmlns="http://www.w3.org/2000/svg"><path d="M5.25918 25.7769C9.73643 33.92 19.3611 37.0389 27.9998 37.0389C36.6388 37.0389 46.2638 33.9197 50.741 25.7764C50.7501 25.8628 50.7522 25.9504 50.7482 26.0384L50.3851 33.7013C50.1989 37.6038 50.0503 40.7151 49.5939 43.1495C49.1216 45.6699 48.2802 47.7041 46.5407 49.2873C44.8122 50.8604 42.6735 51.5541 40.0482 51.8841C37.4907 52.2056 34.235 52.2056 30.1187 52.2056H25.8812C21.7651 52.2056 18.5094 52.2056 15.9518 51.8841C13.3266 51.5541 11.1879 50.8604 9.45949 49.2873C7.7198 47.7041 6.87859 45.6699 6.40613 43.1495C5.94978 40.7151 5.80131 37.6038 5.61511 33.7013L5.25202 26.0384C5.24787 25.9506 5.25006 25.8632 5.25918 25.7769Z" fill="currentColor"/><path fill-rule="evenodd" clip-rule="evenodd" d="M29.1506 3.79268C30.3606 3.79613 31.4541 3.81681 32.3873 3.9409C33.6258 4.10585 34.8083 4.4763 35.8679 5.36716C36.8967 6.23224 37.5108 7.33885 37.988 8.53554C38.4168 9.61105 38.8088 10.9601 39.261 12.542H45.1541C48.5351 12.542 50.542 15.0455 51.3752 17.5792C52.2019 20.0927 52.1077 23.1863 50.9048 25.4737C46.5028 33.8451 36.7457 37.042 27.9994 37.042C19.2532 37.042 9.4963 33.8451 5.09402 25.4737C3.89117 23.1863 3.79705 20.0927 4.62364 17.5792C5.45688 15.0455 7.46378 12.542 10.8448 12.542H16.741C17.1933 10.9601 17.5853 9.61105 18.0142 8.53554C18.4914 7.33885 19.1055 6.23224 20.1342 5.36716C21.1937 4.4763 22.3763 4.10585 23.6148 3.9409C24.7346 3.79199 26.0854 3.79199 27.5911 3.79199L29.1506 3.79268ZM28.0102 23.6253C26.7063 23.6253 25.6663 24.67 25.6663 25.9587C25.6663 27.2474 26.7063 28.292 27.9892 28.292C29.293 28.292 30.333 27.2474 30.333 25.9587C30.333 24.67 29.293 23.6253 28.0102 23.6253ZM29.3058 8.46042H26.6962C25.5946 8.46566 24.8339 8.48639 24.2309 8.56672C23.5404 8.65867 23.3004 8.80208 23.1376 8.93888C22.9443 9.10149 22.6906 9.40709 22.3489 10.264C22.1141 10.8531 21.8817 11.5827 21.5991 12.542H34.403C34.1205 11.5827 33.8881 10.8531 33.6531 10.264C33.3115 9.40709 33.0579 9.10149 32.8644 8.93888C32.7018 8.80208 32.4617 8.65867 31.7713 8.56672C31.1682 8.48639 30.4073 8.46566 29.3058 8.46042Z" fill="currentColor"/></svg>
