<svg xmlns="http://www.w3.org/2000/svg" fill="none" viewBox="0 0 24 24"><path stroke="currentColor" stroke-linejoin="round" stroke-width="2" d="M3 10c0-.93 0-1.4.15-1.77a2 2 0 0 1 1.08-1.08C4.6 7 5.07 7 6 7h12c.93 0 1.4 0 1.77.15a2 2 0 0 1 1.08 1.08c.15.37.15.84.15 1.77v7c0 1.89 0 2.83-.59 3.41-.58.59-1.52.59-3.41.59H7c-1.89 0-2.83 0-3.41-.59C3 19.83 3 18.9 3 17zm5-3V5c0-1.1.9-2 2-2h4a2 2 0 0 1 2 2v2"/><path stroke="currentColor" stroke-linecap="round" stroke-width="2" d="M3 10a7.4 7.4 0 0 0 1.56 3.57A9.5 9.5 0 0 0 12 17c3.08 0 5.8-1.36 7.44-3.43A7.4 7.4 0 0 0 21 10"/><path stroke="currentColor" stroke-linecap="round" stroke-linejoin="round" stroke-width="2" d="M11.5 13h1"/></svg>
