<svg xmlns="http://www.w3.org/2000/svg" viewBox="0 -25.73 364.179 364.179"><defs><style>.a{fill:#fff}.c{fill:#211715}</style></defs><path d="m154.15 159.44-13.92-16.78a83 83 0 0 0 4.34-27.04c0-38.36-29.21-70.66-71.1-70.66-42.04 0-71.1 32.56-71.1 70.66 0 42.62 29.69 71.98 71.1 71.98 27.43 0 48.77-12.07 60.64-31.78Z" class="a"/><path d="M315.53 155.96c9.6-4.36 9.83-10.98 9.96-14.95a44 44 0 0 0-2.25-15.6c-2.07-6.9-5.87-20.9-5.16-45.64a119 119 0 0 0 .71-15.65c-.02-2.44-.07-4.5-.12-5.85-.52-16.15-9.51-34.87-21.4-42.27C282.98 4.42 270 1.78 257.08 2.54c-18.33 1.07-33.03 8.29-42.82 20.02-5.65 6.78-9.67 16.58-11.17 25.3a90 90 0 0 0 .81 30.42c1.68 19.4-4.19 39.81-2.87 55.68.4 5.04 2.88 11.13 9.82 15.97Z" style="fill:#a98a75"/><path d="M300.53 21.57c7.43 7.12 12.14 17.01 14.43 26.95a70 70 0 0 1 1.43 15.11q.06 4.17-.1 8.32c-.15 4.15-.48 5.54-.62 8.3a149 149 0 0 0 1.88 31.25q.79 4.82 1.98 9.56c.8 3.15 1.86 6.23 2.59 9.39a40 40 0 0 1 1 9.63 51 51 0 0 1-.22 3.8c.06-.53-.1.58-.14.76a10.4 10.4 0 0 1-1.99 4.53 17 17 0 0 1-6.45 4.71 2.4 2.4 0 0 0-.86 3.29 2.46 2.46 0 0 0 3.28.86c4.46-2.07 8.26-5.3 10.03-9.98 1.31-3.49 1.29-7.64 1.07-11.3-.45-7.8-3.49-15.15-4.99-22.77A147 147 0 0 1 320.4 85c.02-6.06.77-12.06.8-18.13a95 95 0 0 0-.91-16.14c-2-11.93-7.56-24.12-16.37-32.56-2.23-2.14-5.62 1.25-3.39 3.4" class="c"/><path d="m297.12 77.29-6.39-1.43c-6.07-3.22-12.65-12.96-15.08-18.61a140 140 0 0 1-5.46-15.3c-8.32 9.05-20.6 15.89-33.76 19.6a2.07 2.07 0 0 1-2.63-2.13 33 33 0 0 1 1.56-7.86.46.46 0 0 0-.72-.5c-8.55 7-17.8 14.29-26.4 20.19-.94.65-2.08 1.34-2.8 1.83l-1.73 1.17.05.4c.98 7.69 1.63 15.39 2.38 22.47q.08.79.18 1.57c1.45 11.65 5.2 22.13 13.4 28.9 6.78 5.58 13.87 8.7 21.9 9.48.11 3.44-3.55 5.44-6.44 6.49-3.23 1.49-8.7 3.4-13.03 5.04 3.53 5.57 8.89 9.15 14.78 11.48a49 49 0 0 0 18.51 3.09c17.38-.18 35.3-5.97 47.65-19.23-5.7-2.03-14.8-3.34-16.87-8.09a27 27 0 0 1-1.52-5.5l-1.43-7.16a67 67 0 0 0 9.22-11.08s2.23-3.41 3.17-5.36l.52-1.06a15 15 0 0 0 7.36-1.67 20.4 20.4 0 0 0 7.75-9.05c1.9-3.82 2.78-10.24 1.1-14-.57-1.26-1.98-3.45-5.83-4.05a7.8 7.8 0 0 0-5.64 1.21Z" class="a"/><path d="M201.12 74.83c1.51 11.46.18 23-1.14 34.42-.62 5.42-1.27 10.85-1.48 16.3-.18 4.38-.29 9.06 1.02 13.28a25.7 25.7 0 0 0 10.1 13.17 2.4 2.4 0 0 0 3.3-.86 2.45 2.45 0 0 0-.87-3.28 20.3 20.3 0 0 1-7.8-10.02c-1.26-3.86-1.11-8.09-.95-12.28.43-10.67 2.33-21.22 3.02-31.87a96 96 0 0 0-.4-18.86 2.5 2.5 0 0 0-2.4-2.4c-1.16 0-2.57 1.1-2.4 2.4m37.6 42.07.63-.31c-.47.24.1-.03.3-.1a14 14 0 0 1 1.62-.45l.82-.15c.36-.07-.39.04-.01 0l.42-.04a18 18 0 0 1 1.8-.09q.83.02 1.65.1c-.5-.03.17.03.35.06q.37.07.75.17s.47.14.7.22l.34.13.25.12 1.9.89a2.46 2.46 0 0 0 3.28-.86 2.43 2.43 0 0 0-.86-3.28 32 32 0 0 0-4.25-1.82 16 16 0 0 0-4.11-.52 17 17 0 0 0-8 1.79 2.4 2.4 0 0 0-.87 3.28 2.45 2.45 0 0 0 3.29.86m14.5-29.82c-.67-2.5.04-8.19 4.76-8.5 6.2.28 6.27 7.19 4.06 10.35-1.82 2.6-6.89 3.5-8.83-1.85m-36.9-.25c-.61-2.52.05-8.22 4.36-8.53 5.69.27 5.74 7.2 3.71 10.37-1.66 2.6-6.3 3.52-8.07-1.84m19.18 5.9a54 54 0 0 0-2.27 4.13 6 6 0 0 0-.7 2.27 3.2 3.2 0 0 0 1.1 2.57 5 5 0 0 0 2.06 1.17 12 12 0 0 0 1.53.21l-.64-.08h.06a2.6 2.6 0 0 0 1.85-.24 2.4 2.4 0 0 0 .86-3.28 2.3 2.3 0 0 0-1.43-1.1l-1.3-.16.64.09a3 3 0 0 1-.62-.17l.58.24a3 3 0 0 1-.51-.3l.48.38a3 3 0 0 1-.42-.4l.38.48-.1-.15.25.58-.06-.25.08.63v-.27l-.08.64a3 3 0 0 1 .2-.65l-.24.57a43 43 0 0 1 2.44-4.49 2.4 2.4 0 0 0-4.15-2.42Zm46.33 34.96a67 67 0 0 0 10.37-11.06 55 55 0 0 0 5.54-8.67 2.46 2.46 0 0 0-.87-3.28 2.4 2.4 0 0 0-3.28.86 60 60 0 0 1-15.15 18.76 2.4 2.4 0 0 0 0 3.4 2.45 2.45 0 0 0 3.4 0Z" class="c"/><path d="M294.05 10.59A57.6 57.6 0 0 0 264.83.13 70 70 0 0 0 236.4 4.3a57 57 0 0 0-22 14.46 56 56 0 0 0-13.3 26.72c-2.26 10.98-1.75 22.91.56 33.84.64 3.02 5.27 1.74 4.63-1.28a83 83 0 0 1-1.1-28.2c1.3-9.07 4.87-18.5 10.76-25.58 11.08-13.33 28.25-19.49 45.28-19.44a53 53 0 0 1 30.4 9.91 2.4 2.4 0 0 0 3.28-.86 2.45 2.45 0 0 0-.86-3.28" class="c"/><path d="M268.77 129.31c-12.05 5.48-26.26 8.1-38.66 2.15-5.73-2.74-11.09-6.78-14.59-12.15-3.51-5.4-5.36-11.67-6.4-17.98-.7-4.16-1-8.39-1.42-12.58-.47-4.7-.95-9.4-1.54-14.1a2.5 2.5 0 0 0-2.4-2.4 2.4 2.4 0 0 0-2.4 2.4c1.09 8.56 1.61 17.2 2.79 25.75.96 6.98 2.84 13.99 6.46 20.09 7.27 12.24 21.7 19.36 35.73 19.17 8.7-.11 16.97-2.62 24.85-6.2a2.4 2.4 0 0 0 .86-3.28 2.46 2.46 0 0 0-3.28-.86Zm33.36-49.1a6 6 0 0 1 7.42.72l.23.26.3.54a5 5 0 0 1 .46 1.2 14 14 0 0 1 .3 4.45c-.4 5.58-3.57 11.7-8.5 14.56-2 1.15-5.82 2.03-8.31.87a2.47 2.47 0 0 0-3.28.86 2.4 2.4 0 0 0 .86 3.28c3.84 1.8 8.34 1.3 12.15-.37 3.54-1.56 6.38-4.76 8.32-8.02a25 25 0 0 0 3.53-10.8c.3-3.5-.15-7.43-2.58-10.14a10.7 10.7 0 0 0-13.31-1.56c-2.57 1.7-.17 5.86 2.42 4.15Zm-34.17-37.32c1.97 6.76 4.28 13.8 7.84 19.9 3.33 5.7 7.8 11.92 13.72 15.14 2.72 1.48 5.14-2.67 2.43-4.14a25 25 0 0 1-6.65-5.83 52 52 0 0 1-5.53-7.9c-3.26-5.67-5.35-12.17-7.18-18.45-.86-2.96-5.5-1.7-4.63 1.28" class="c"/><path d="M268.48 40.27c-7.52 8.1-17.42 13.82-27.8 17.43q-1.82.63-3.66 1.18c-.21.07-1.63.4-1 .4-.04 0 .07.22.17.14.15-.1.12-1.19.14-1.35a30 30 0 0 1 .82-4.18c.42-1.53 1.14-3.14-.19-4.47-1.38-1.37-3.07-.82-4.39.25l-4.02 3.27q-3.72 2.99-7.48 5.92a278 278 0 0 1-16.85 12.16c-2.56 1.7-.16 5.86 2.42 4.14q7.53-5 14.7-10.5 3.75-2.86 7.44-5.8l3.71-2.97 1.84-1.5a10 10 0 0 1 1.73-1.35l-1.2.33.22.02-1.21-.32.18.12-.86-.86.1.2-.33-1.21a20 20 0 0 1-.71 2.37q-.33 1.42-.53 2.85c-.3 2.06-.76 4.29.79 5.98a4.8 4.8 0 0 0 5.16 1.18q2.77-.8 5.47-1.8a79 79 0 0 0 19.71-10.3 63 63 0 0 0 9.03-7.94c2.1-2.26-1.3-5.66-3.4-3.4Zm12.55 83.93c.7 3.49 1.2 7.1 2.23 10.5a10.7 10.7 0 0 0 4.67 6.35c4.31 2.75 9.62 3.51 14.39 5.16a2.4 2.4 0 1 0 1.27-4.63c-4.28-1.48-9.1-2.23-12.83-4.42l-.6-.38c-.07-.04-.59-.42-.26-.17a8 8 0 0 1-1.1-1.05c.32.37-.08-.13-.12-.19l-.3-.54a15 15 0 0 1-.7-2.13c-.86-3.2-1.38-6.52-2.03-9.78a2.4 2.4 0 0 0-4.63 1.28ZM259 71.79a12 12 0 0 0 3.24 2.2 14 14 0 0 0 2.04.76 13 13 0 0 0 2.14.36 2.4 2.4 0 0 0 1.7-.7 2.4 2.4 0 0 0 0-3.4 2.7 2.7 0 0 0-1.7-.7q-.18 0-.34-.04l.64.1a10 10 0 0 1-2.42-.68l.57.24a10 10 0 0 1-2.25-1.3l.48.37q-.37-.28-.7-.6a2.5 2.5 0 0 0-1.7-.7 2.4 2.4 0 0 0-1.7.7 2.4 2.4 0 0 0-.7 1.7 2.4 2.4 0 0 0 .7 1.7Zm15.15 13.4a52 52 0 0 0-.3 6.14c.05 1.94.05 4.26 1.16 5.96a5.9 5.9 0 0 0 6.04 2.28 6 6 0 0 0 4.33-3.69 2.7 2.7 0 0 0 .25-1.85 2.5 2.5 0 0 0-1.1-1.43c-1.03-.55-2.77-.38-3.29.86a7 7 0 0 1-.44.88c-.04.07-.33.44-.1.16s-.07.07-.13.13l-.18.16q-.2.18.17-.12l-.45.25c.04-.13.47-.16 0-.04-.45.1-.08-.07.05 0a3 3 0 0 0-.51.02c-.53.01.47.15-.04 0l-.41-.11c-.26-.05.38.25.03 0l-.29-.16.23.17-.18-.18q-.19-.2.12.18s-.31-.52-.1-.13c.18.32-.05-.18-.07-.28l-.1-.42-.05-.26.03.22a6 6 0 0 1-.1-1.12q-.08-1.25-.08-2.5c.01-1.71.14-3.41.3-5.12a2.4 2.4 0 0 0-2.4-2.4 2.47 2.47 0 0 0-2.4 2.4Zm-34.94 51.88a2.4 2.4 0 0 1-.66 1.75 8 8 0 0 1-2.22 1.63 50 50 0 0 1-5.25 2.25c-4.28 1.68-8.65 3.13-12.9 4.89a2.5 2.5 0 0 0-1.68 2.95 2.4 2.4 0 0 0 2.95 1.68c4.73-1.96 9.6-3.53 14.34-5.47a30 30 0 0 0 6.24-2.93c2.3-1.6 3.98-3.84 3.98-6.75 0-3.1-4.8-3.1-4.8 0" class="c"/><path d="M228.23 296.61c-10.99-2.53-18.66-4-30.84-6.53-19.56-4.06-30.2-14.54-30.2-14.54 3.02-24.36 8.6-61.9 13.27-86.1a48 48 0 0 1 11.9-23.61c8.1-8.93 15.94-12.17 29.26-18.09 3.51 6.07 9.12 9.9 15.3 12.34a49 49 0 0 0 18.52 3.1c17.7-.18 35.97-6.2 48.33-19.97 12.07 2.44 29.02 12.27 35.91 20.87 13.93 17.38 17.85 39.56 20.19 60.28 2.41 21.43 3.35 47.48-2.8 60.72-2.87 6.18-6.6 9.8-13.51 13.87-9.69 5.71-29.3 8.59-43.98 7.26 0 0-53.2-5.42-71.35-9.6" style="fill:#f8b8b4"/><path d="M301.73 145.26c6.87 1.13 13.42 4.05 19.45 7.42 5.88 3.28 11.75 7.2 16.18 12.34a70 70 0 0 1 11.72 20.47 126 126 0 0 1 6.26 23.59 278 278 0 0 1 2.97 23.65 231 231 0 0 1 .97 25.06c-.27 12.9-1.3 28.1-12.6 36.28a48 48 0 0 1-18.57 7.83 98 98 0 0 1-22.97 2.2q-2.78-.05-5.56-.3a2.4 2.4 0 0 0-2.4 2.4 2.45 2.45 0 0 0 2.4 2.4 100 100 0 0 0 24.3-1.04c7.05-1.11 14.41-2.82 20.65-6.4 6.46-3.71 11.86-8.58 14.9-15.5 2.85-6.51 3.82-13.73 4.33-20.77 1.22-16.85-.4-34.01-2.78-50.7s-6.68-33.61-16.46-47.62a48 48 0 0 0-7.1-8.32 70 70 0 0 0-8.94-6.78 79 79 0 0 0-20.72-9.76 41 41 0 0 0-4.75-1.08 2.47 2.47 0 0 0-2.95 1.67 2.4 2.4 0 0 0 1.67 2.96m-79.27-.5c-8.64 3.86-17.64 7.36-25.18 13.22a52.4 52.4 0 0 0-17.52 24.62 102 102 0 0 0-3.05 13.9q-1.3 7.23-2.5 14.47-2.64 15.86-4.95 31.77-2.41 16.38-4.46 32.8a2.4 2.4 0 0 0 2.4 2.4 2.46 2.46 0 0 0 2.4-2.4 1546 1546 0 0 1 8.53-58.98c1.52-9.35 2.9-18.81 4.98-28.05a47.5 47.5 0 0 1 15.21-25.2c7.61-6.69 17.44-10.33 26.57-14.4a2.4 2.4 0 0 0 .86-3.3 2.46 2.46 0 0 0-3.28-.85Z" class="c"/><path d="M219.86 149.46c7.11 11.44 21.1 15.93 33.96 16.11a74.5 74.5 0 0 0 34.98-7.9 59 59 0 0 0 16.3-12.35c2.09-2.27-1.3-5.67-3.4-3.4a58 58 0 0 1-28.41 16.53c-11.25 2.92-24.02 3.68-35.06-.43-5.72-2.13-10.96-5.73-14.22-10.98-1.63-2.61-5.79-.2-4.15 2.43Z" class="c"/><path d="M80.32 112.53c.44-.75.8-1.4.9-1.62a63 63 0 0 0-2-3.8h17.35a11.4 11.4 0 0 1 8.9-9.95 10.6 10.6 0 0 1 11.3 5.16 9.7 9.7 0 0 1 .64 7.11 9 9 0 0 1-1.68 3.3c-.65.8-1.1 1.47-1.33 1.79l-.28.41a7 7 0 0 1 2.75 3.48 10.4 10.4 0 0 1-.35 7.73 8.4 8.4 0 0 1-2.66 3.29 10 10 0 0 1-4.86 1.62 13 13 0 0 1-8.38-1.77 10 10 0 0 1-3.24-3.49 9 9 0 0 1-.8-2.12c-.11-.45-.01-1.62-.34-1.96-1.38.01-9.92-.19-13.17-.19-1.47-2.07-2.84-4.28-4.35-6.21zm-42.35 27.82a6.6 6.6 0 0 1-4.91-.97 10.4 10.4 0 0 1-4.4-6.36 8.4 8.4 0 0 1 .12-4.23 10 10 0 0 1 2.87-4.24 13 13 0 0 1 7.74-3.67 10 10 0 0 1 4.7.8 9 9 0 0 1 1.92 1.2c.36.3.99 1.29 1.46 1.37 1.09-.85 8.25-6.12 10.83-8.09 1.26.59 3.28 1.56 3.85 1.9.09.55.39 3.52.53 5.04 2.36.68 4.76 1.63 7.17 2.45l-13.8 10.48a11.4 11.4 0 0 1-1.02 13.3 10.6 10.6 0 0 1-12.12 2.76 9.7 9.7 0 0 1-4.82-5.26 9 9 0 0 1-.67-3.65c.02-1.02-.01-1.83-.03-2.22m26.04-39.3c-2.45-2.6-4.8-5.27-7.25-7.85a2.43 2.43 0 0 0-3.77.48c-.96 1.41-1.8 2.9-2.74 4.33l3.77-.49q-3.65-4.16-7.29-8.34a2.4 2.4 0 1 0-3.4 3.4l7.3 8.34a2.42 2.42 0 0 0 3.77-.49c.93-1.43 1.78-2.91 2.74-4.32l-3.77.48c2.45 2.58 4.8 5.26 7.25 7.85a2.4 2.4 0 1 0 3.39-3.4m10 .07c-.2-4.56.16-9.13-.05-13.69a2.43 2.43 0 0 0-3.04-2.31c-1.64.44-3.25 1.02-4.9 1.5l3.04 2.3c-.05-3.97-.26-7.95-.3-11.93-.04-3.08-4.84-3.1-4.8 0 .04 3.98.25 7.96.3 11.94a2.43 2.43 0 0 0 3.04 2.31c1.64-.48 3.25-1.05 4.9-1.5l-3.04-2.3c.21 4.55-.15 9.12.05 13.68.13 3.08 4.93 3.1 4.8 0" style="fill:#88c5e9"/><path d="m155.84 157.74-13.91-16.77.62 2.33c5.4-15.85 6.06-33.8 1.12-49.87a72 72 0 0 0-22.72-34.26 73.6 73.6 0 0 0-40.06-16.26 76.6 76.6 0 0 0-43.87 8.77A71 71 0 0 0 8.4 81.02 77 77 0 0 0 .29 123c1.16 13.9 5.66 27.6 14.05 38.85a69 69 0 0 0 31.89 23.56c14.3 5.19 30.35 5.87 45.19 2.77 14.8-3.09 28.6-10.71 38.41-22.31a69 69 0 0 0 6.36-8.84l-2.7 1.1 20.02 3.62a2.47 2.47 0 0 0 2.95-1.68 2.4 2.4 0 0 0-1.68-2.95l-20.02-3.62a2.5 2.5 0 0 0-2.71 1.1 62.2 62.2 0 0 1-33.15 26.56 79.3 79.3 0 0 1-45.05 1.6 65 65 0 0 1-32.72-20.06c-8.73-10.05-13.97-22.94-15.67-36.12-1.8-13.98-.06-28.39 6.09-41.16a67 67 0 0 1 27.33-29.29c12.92-7.26 28.03-9.87 42.71-8.35a66.6 66.6 0 0 1 58.53 50.81 75 75 0 0 1 1.89 22.48 80 80 0 0 1-2.14 14.32c-.55 2.23-1.45 4.4-1.95 6.64-.37 1.61.94 2.72 1.88 3.86l2.69 3.24 9.96 12a2.4 2.4 0 0 0 3.4 0 2.45 2.45 0 0 0 0-3.39" class="c"/><path d="M230.62 258.89c4.57 1.38 10.8 2.68 15.64 3.65l-.59-1.24a52 52 0 0 1-2.38-5.96 5 5 0 0 1-.34-1.93c.14-1.63 1.84-2.77 3.47-2.83a9 9 0 0 1 4.61 1.46l.98.55-.73-2.02c-9.61-27.57-20.35-73.96-26.2-105.48a1.85 1.85 0 0 0-2.39-1.43l-3.64 1.15a1.9 1.9 0 0 0-1.33 1.91c1.78 37.67 4.28 74.29 12.65 111.04Z" class="a"/><path d="M253.6 249.93c-4.44-12.74-8.04-25.77-11.4-38.83q-5.65-21.88-10.3-44.01-2.12-10.05-4.04-20.13c-.34-1.77-.45-3.61-1.95-4.83a4.4 4.4 0 0 0-4.23-.67c-2.3.7-5.34 1.22-6.15 3.85-.59 1.9-.08 4.32.02 6.28q.16 3.4.34 6.79.36 6.76.79 13.52.82 13.33 2.08 26.62a489 489 0 0 0 7.83 53.23q.7 3.33 1.46 6.65c.68 3.01 5.3 1.74 4.62-1.28a449 449 0 0 1-8.3-50.72c-1.85-17-2.97-34.09-3.84-51.17l-.32-6.56-.07-1.46c-.05-.73.1-.36-.2-.21-.6.3.2-.02.36-.07a14 14 0 0 0 2.8-.88c.54-.33-.54-.15-.32-.35-.16.15.31 1.81.36 2.03q1.8 9.57 3.82 19.1 4.45 21.2 9.76 42.22a555 555 0 0 0 10.88 38.13q.67 2.02 1.37 4.03a2.46 2.46 0 0 0 2.95 1.67 2.4 2.4 0 0 0 1.67-2.95Z" class="c"/><path d="M229.21 291.43c3.4-9.41 18.62-23.23 29.29-34.55l-.87-.6a56 56 0 0 0-6.6-4.24 9 9 0 0 0-4.61-1.46c-1.63.06-3.33 1.2-3.47 2.83a5 5 0 0 0 .34 1.93 52 52 0 0 0 2.38 5.96s.23.48.6 1.24c-6.43-1.3-15.3-3.15-19.5-5.03-6.1-2.74-8.5-1.9-9.72-.18a3.55 3.55 0 0 0 .05 4c-3.93-1.74-7.76-3.35-9.62.01-1.64 2.96.8 5.62 3.44 7.3l-.43-.2c-2.04-.97-3.72-.54-5.03 1.52a3.8 3.8 0 0 0 1.73 5.3q1.42 1.03 2.6 1.83c-1.96-.86-3.86-.53-4.96 1.06a4.1 4.1 0 0 0-.32 3.98c1.3 2.02 3.59 3.4 5.47 4.76a88 88 0 0 0 13.73 8.15 31 31 0 0 0 4.52 1.38 16 16 0 0 1 .98-4.99" class="a"/><path d="M230.36 294.27c-2.72-.04-5.42-1.25-7.8-2.47a87 87 0 0 1-8.28-4.84c-2.4-1.6-5.16-3.2-7.14-5.33a1.53 1.53 0 0 1-.4-2 1.45 1.45 0 0 1 1.94-.41 2.5 2.5 0 0 0 3.29-.86 2.4 2.4 0 0 0-.86-3.29c-2.01-.85-4.21-1.25-6.23-.13a6.2 6.2 0 0 0-3.03 4.4c-.76 4.42 3.13 6.97 6.31 9.2a102 102 0 0 0 10.83 6.8c3.5 1.86 7.31 3.67 11.37 3.73 3.09.03 3.09-4.77 0-4.8m20.77-33.2c-3.86-.78-7.74-1.53-11.6-2.4a72 72 0 0 1-11.47-3.2l-.07-.03-.87-.38a33 33 0 0 0-1.97-.78 16 16 0 0 0-3.07-.79 7.8 7.8 0 0 0-5.03.66c-4.13 2.34-3.66 8.1.14 10.52a71 71 0 0 0 13.27 6.72 2.4 2.4 0 0 0 2.95-1.67 2.45 2.45 0 0 0-1.68-2.95 55 55 0 0 1-10.03-4.92c-.91-.58-3.04-1.38-2.84-2.77a2 2 0 0 1 .27-.54c-.28.52-.01.08.13-.1.17-.24-.38.15.14-.1s-.18-.07.32-.13c.17-.02.72-.09.25-.06a8 8 0 0 1 .94 0 4 4 0 0 1 .75.12q.76.16 1.48.39c1.7.53 3.3 1.35 4.98 1.94a92 92 0 0 0 10.32 2.74c3.8.85 7.6 1.58 11.42 2.36a2.46 2.46 0 0 0 2.95-1.67 2.4 2.4 0 0 0-1.68-2.95Z" class="c"/><path d="M217.81 259.04c-2.63-1.15-5.46-2.45-8.4-1.91a6.3 6.3 0 0 0-4.84 6.57c.27 3.22 2.83 5.61 5.44 7.2q3.3 1.97 6.66 3.85c2.8 1.58 5.62 3.13 8.55 4.47a2.47 2.47 0 0 0 3.28-.86 2.4 2.4 0 0 0-.86-3.28 143 143 0 0 1-15.33-8.4 8 8 0 0 1-2.7-2.5q-.18-.4-.08-.13l-.16-.49-.05-.24q.06.33.03-.12.01-.45.02-.14.16-.4.04-.23c.06-.11.54-.83.35-.62l.33-.32q-.29.23.06 0 .37-.19.01-.01l.42-.1c-.5.1.13 0 .25 0l.47.02.1.02a20 20 0 0 1 4 1.36 2.5 2.5 0 0 0 3.28-.86 2.4 2.4 0 0 0-.86-3.28Z" class="c"/><path d="M223.63 282.47c-4.1-2.24-8.2-4.44-12.07-7.06a145 145 0 0 1-3.39-2.35q-.37-.26-.11-.07l-.33-.33q-.29-.32-.04-.02l-.22-.36q-.18-.38 0 .02l-.1-.38q-.09-.41 0 .08l-.01-.37q.03-.42-.03.1l.09-.35q.13-.37-.06.1l.17-.3c.16-.3.14-.2.42-.53q.33-.29.03-.06l.36-.23c-.5.3.6-.06-.05-.01h.41q-.42-.09.01 0c.09.02.84.28.56.15a2.47 2.47 0 0 0 3.29-.86 2.4 2.4 0 0 0-.86-3.28 6.8 6.8 0 0 0-4.45-.67 6 6 0 0 0-3.37 2.37 6 6 0 0 0-.21 7.17 12 12 0 0 0 3.14 2.7q1.2.85 2.4 1.67 2.22 1.5 4.54 2.86 3.7 2.13 7.45 4.15a2.4 2.4 0 0 0 2.42-4.14Z" class="c"/><path d="M307.36 143.38a3.33 3.33 0 0 0-4.05 1.97c-6.21 16.1-22.39 77.35-39.39 105.53-1.33 2.2-3.35 3.8-5.1 5.67-10.69 11.38-26.18 25.37-29.6 34.88-.93 2.56-1.67 6.7.04 8.43 5.17 5.25 16.83 7.98 25.8 7.76 5.2-.13 11.47-1.55 14.72-.63 14.58 4.17 27.8 4.37 40.6 1.18 10.22-3.05 7.53-22.23 8.38-43.44.39-5.82.15-30.61.07-35.45-.42-24.77-.95-53.67-1.96-78.87a6 6 0 0 0-4.27-5.49Z" class="a"/><path d="M308 141.06a5.9 5.9 0 0 0-5.89 1.72 11 11 0 0 0-1.7 3.51q-1 2.76-1.91 5.57c-1.7 5.17-3.32 10.37-4.96 15.57a1084 1084 0 0 1-13.37 40.54c-4.65 12.98-9.6 26.01-16.26 38.1q-1.03 1.94-2.18 3.78c-1.18 1.86-2.95 3.27-4.46 4.84q-4.44 4.64-8.94 9.22c-5.83 5.94-11.76 11.88-16.72 18.59a33 33 0 0 0-4.71 8.3c-1.26 3.46-1.97 8.24.97 11.06a27 27 0 0 0 9.9 5.52 51 51 0 0 0 12.18 2.47 66 66 0 0 0 12.59-.48 26 26 0 0 1 5.85-.22c1.94.24 4.36 1.14 6.45 1.6a80 80 0 0 0 29.17 1.13c3.65-.55 7.76-.98 10.73-3.37a14 14 0 0 0 4.22-6.77 42 42 0 0 0 1.63-9.83c.3-4.08.32-8.19.34-12.29.07-12.93.5-25.84.41-38.78-.1-14.94-.41-29.87-.74-44.8q-.31-14.8-.76-29.58-.23-7.27-.5-14.53c-.1-2.16-.27-4.2-1.55-6.03a8.7 8.7 0 0 0-4.59-3.3c-1.72-.55-3.47-1.03-5.2-1.54-2.98-.87-4.25 3.76-1.28 4.63 1.72.5 3.48.95 5.18 1.53a3.6 3.6 0 0 1 2.4 2.31 10 10 0 0 1 .24 2.62l.13 3.52q.52 14.15.86 28.3c.4 16.34.77 32.7.95 49.04.11 10.51.41 21.1-.11 31.6-.43 8.46-.02 16.93-.46 25.39a45 45 0 0 1-1.24 9.32 10.3 10.3 0 0 1-3.08 5.6l.07-.06q-.16.13-.34.24-.36.24-.73.43l-.29.14c-.34.16.33-.12-.03 0a13 13 0 0 1-1.37.39q-3.27.78-6.6 1.26a71 71 0 0 1-13.34.56 79 79 0 0 1-14.03-2.02 51 51 0 0 0-6.55-1.51 29 29 0 0 0-5.64.2 69 69 0 0 1-12.23.55 46 46 0 0 1-11.3-2.29 28 28 0 0 1-4.77-2.08 12 12 0 0 1-3.48-2.54c-.6-.77-.33-2.72-.08-3.88a18 18 0 0 1 .68-2.35 12 12 0 0 1 .7-1.54c3.21-6.35 8.47-11.7 13.33-16.8 5.75-6.05 11.61-12 17.48-17.94a35 35 0 0 0 5.64-8.4q2.17-4.04 4.09-8.2a302 302 0 0 0 8-19.06 728 728 0 0 0 13.89-40.3c3.26-10.23 6.27-20.55 9.81-30.68q.39-1.1.8-2.19c.24-.66.41-1.4 1.41-1.16 3 .72 4.29-3.9 1.28-4.63" class="c"/><path d="M247.74 260.09a38 38 0 0 1-2.28-5.86c-.03-.1-.16-.76-.11-.33l-.01-.25q.02-.5-.02.02l.06-.19q-.2.42-.01.06c.24-.38-.14.2.02-.05l.2-.2-.1.08.52-.3q.23-.12-.12.05l.29-.1.29-.06q-.42.04-.15.02h.61q.45.04.12.02l.25.05.74.21s.72.29.4.15a28 28 0 0 1 2.8 1.5q1.4.82 2.74 1.72a29 29 0 0 0 2.43 1.72 2.4 2.4 0 0 0 2.43-4.15 15 15 0 0 1-1.43-1.03q-.83-.58-1.68-1.13-1.6-1.02-3.25-1.94c-2.32-1.29-5.08-2.5-7.77-1.64a5.57 5.57 0 0 0-4.05 6.32 20 20 0 0 0 1.16 3.57q.8 2.11 1.78 4.17a2.4 2.4 0 0 0 3.28.86 2.47 2.47 0 0 0 .86-3.29" class="c"/></svg>
