<svg xmlns="http://www.w3.org/2000/svg" fill="currentColor" viewBox="0 0 32 32"><path d="M31.13 4H.87a1 1 0 0 0-1 1v22a1 1 0 0 0 1 1h30.26a1 1 0 0 0 1-1V5a1 1 0 0 0-1-1m-1 5.5H13.47a2.4 2.4 0 0 0 .78-1.75A2.3 2.3 0 0 0 13.47 6h16.66ZM11.88 8.12a.37.37 0 0 1-.38-.37.38.38 0 1 1 .75 0 .37.37 0 0 1-.37.37M9.81 6.59A2 2 0 0 0 9.34 6h.94a3 3 0 0 0-.47.59M7.75 8.12a.37.37 0 0 1-.38-.37.38.38 0 0 1 .76 0 .37.37 0 0 1-.38.37M5.69 6.59A3 3 0 0 0 5.22 6h.94a2 2 0 0 0-.47.59m-2.07.78a.4.4 0 0 1 .38.38.38.38 0 0 1-.75 0 .4.4 0 0 1 .37-.38M5.69 8.9a2 2 0 0 0 .47.6h-.94a3 3 0 0 0 .47-.6m4.12 0a3 3 0 0 0 .47.6h-.94a2 2 0 0 0 .47-.6M2 6l-.16.16V6Zm0 3.5h-.13v-.16ZM1.87 26V11.5h28.26V26Z"/></svg>
