<svg xmlns="http://www.w3.org/2000/svg" fill="none" viewBox="0 0 24 24"><path stroke="currentColor" stroke-linecap="round" stroke-linejoin="round" stroke-width="1.5" d="M10.97 2h-2c-5 0-7 2-7 7v6c0 5 2 7 7 7h6c5 0 7-2 7-7v-2"/><path stroke="currentColor" stroke-linecap="round" stroke-linejoin="round" stroke-width="1.5" d="M21.88 3.56a27 27 0 0 1-6.9 9.32l-1.58 1.26q-.3.23-.63.36l-.03-.46a3 3 0 0 0-.93-1.83 3.3 3.3 0 0 0-1.89-.95q-.24-.02-.48-.01.13-.38.39-.67L11.09 9a27 27 0 0 1 9.32-6.92 1.13 1.13 0 0 1 1.47 1.48"/><path stroke="currentColor" stroke-linecap="round" stroke-linejoin="round" stroke-width="1.5" d="M12.78 14.49a3.3 3.3 0 0 1-2.91 3.29l-1.97.21a1.7 1.7 0 0 1-1.87-1.88l.21-1.97a3.25 3.25 0 0 1 3.21-2.9q.24-.01.48.01c.68.09 1.34.4 1.89.95a3 3 0 0 1 .96 2.29m3.04-2.51a3.8 3.8 0 0 0-3.79-3.79"/></svg>
