<svg xmlns="http://www.w3.org/2000/svg" fill="none" viewBox="0 0 24 24"><path stroke="currentColor" stroke-linecap="round" stroke-linejoin="round" stroke-miterlimit="10" stroke-width="1.5" d="m9.41 15.95-2.39-2.39q-1.2-1.2 0-2.39l3.99-3.99 4.39 4.39c.22.22.22.58 0 .8l-3.59 3.59q-1.2 1.19-2.4-.01m.8-9.57.8.8m-4.55 5.15 9.03-.39"/><path stroke="currentColor" stroke-linecap="round" stroke-linejoin="round" stroke-width="1.5" d="M16.47 14.17s-1.1 1.2-1.1 1.93c0 .61.5 1.1 1.1 1.1s1.1-.5 1.1-1.1c.01-.74-1.1-1.93-1.1-1.93"/><path fill="none" stroke="currentColor" stroke-linecap="round" stroke-linejoin="round" stroke-width="1.5" d="M12 22a10 10 0 1 0 0-20 10 10 0 0 0 0 20"/></svg>
