<svg xmlns="http://www.w3.org/2000/svg" fill="currentColor" viewBox="0 0 32 32"><path d="M29.51 21.52a1 1 0 0 0 0-2h-5V16.8l5.25-1.32a1 1 0 0 0-.49-1.94l-4.86 1.22A8.6 8.6 0 0 0 20 8.52V7a4 4 0 0 0-.75-2.33l3.41-2.92a1 1 0 1 0-1.3-1.51l-3.67 3.15A4 4 0 0 0 16 3a4 4 0 0 0-1.68.39L10.65.24a1 1 0 0 0-1.31 1.52l3.41 2.92A4 4 0 0 0 12 7v1.52a8.6 8.6 0 0 0-4.41 6.24l-4.86-1.22a1 1 0 0 0-.49 1.94l5.25 1.32v2.72h-5a1 1 0 0 0 0 2h5v2.72l-5.25 1.32a1 1 0 0 0 .25 2h.24l4.87-1.28a8.5 8.5 0 0 0 3.31 5.52 1 1 0 0 0 .61.2h.16a1 1 0 0 0 .67-.43l.51-.77a8 8 0 0 0 6.28 0l.51.77a1 1 0 0 0 .67.43h.16a1 1 0 0 0 .61-.2 8.5 8.5 0 0 0 3.31-5.52l4.87 1.21h.24a1 1 0 0 0 .25-2l-5.25-1.32v-2.65ZM14 7a2 2 0 1 1 4 0v.74h-.06l-.24-.06h-.07A9 9 0 0 0 16 7.51a9 9 0 0 0-1.62.17h-.08l-.24.06H14Zm2.5 2.53v.1a8 8 0 0 0-1 0v-.1a6 6 0 0 1 1 .01Zm-3 1.22v15.47L11.67 29l-.35.53A6.4 6.4 0 0 1 9.49 25v-9a6.5 6.5 0 0 1 3.9-5.95h.1Zm.5 18.34 1.34-2a1 1 0 0 0 .17-.56v-14.9a6 6 0 0 1 1 0v14.89a1 1 0 0 0 .17.56l1.34 2a6 6 0 0 1-4.02.01M22.51 25a6.4 6.4 0 0 1-1.83 4.48l-.35-.48-1.83-2.78V10h.1a6.5 6.5 0 0 1 3.9 6Z"/></svg>
