<svg viewBox="0 0 24 24" fill="none" xmlns="http://www.w3.org/2000/svg"><path fill-rule="evenodd" clip-rule="evenodd" d="M15 1.25C15.8436 1.25 16.5718 1.29303 17.182 1.42709C17.8008 1.56303 18.3452 1.80257 18.7713 2.22867C19.1974 2.65476 19.437 3.19917 19.5729 3.81795C19.707 4.42823 19.75 5.15644 19.75 6L19.75 21.25H21C21.4142 21.25 21.75 21.5858 21.75 22C21.75 22.4142 21.4142 22.75 21 22.75L3 22.75C2.58579 22.75 2.25 22.4142 2.25 22C2.25 21.5858 2.58579 21.25 3 21.25H4.25L4.25 6C4.25 5.15644 4.29303 4.42823 4.42709 3.81795C4.56303 3.19917 4.80257 2.65476 5.22867 2.22867C5.65477 1.80257 6.19918 1.56303 6.81795 1.42709C7.42823 1.29303 8.15644 1.25 9 1.25L15 1.25ZM15 2.75L9 2.75C8.1889 2.75 7.58977 2.79331 7.1398 2.89216C6.69832 2.98914 6.44957 3.12909 6.28933 3.28933C6.12909 3.44957 5.98914 3.69832 5.89216 4.1398C5.79331 4.58977 5.75 5.1889 5.75 6L5.75 21.25H8.25L8.25 19C8.25 18.5701 8.27144 18.1737 8.34728 17.8285C8.42498 17.4748 8.56966 17.1287 8.84917 16.8492C9.12868 16.5697 9.4748 16.425 9.82851 16.3473C10.1737 16.2714 10.5701 16.25 11 16.25H13C13.4299 16.25 13.8263 16.2714 14.1715 16.3473C14.5252 16.425 14.8713 16.5697 15.1508 16.8492C15.4303 17.1287 15.575 17.4748 15.6527 17.8285C15.7286 18.1737 15.75 18.5701 15.75 19L15.75 21.25H18.25L18.25 6C18.25 5.1889 18.2067 4.58977 18.1078 4.1398C18.0109 3.69832 17.8709 3.44957 17.7107 3.28933C17.5504 3.12909 17.3017 2.98914 16.8602 2.89216C16.4102 2.79331 15.8111 2.75 15 2.75ZM13 17.75H11C10.6026 17.75 10.3353 17.7717 10.1504 17.8123C9.97395 17.8511 9.92348 17.8962 9.90983 17.9098C9.89618 17.9235 9.8511 17.9739 9.81234 18.1504C9.77172 18.3353 9.75 18.6026 9.75 19L9.75 21.25H14.25L14.25 19C14.25 18.6026 14.2283 18.3353 14.1877 18.1504C14.1489 17.9739 14.1038 17.9235 14.0902 17.9098C14.0765 17.8962 14.0261 17.8511 13.8496 17.8123C13.6647 17.7717 13.3974 17.75 13 17.75ZM10.5 5.25C10.0858 5.25 9.75 5.58579 9.75 6C9.75 6.41421 10.0858 6.75 10.5 6.75L13.5 6.75C13.9142 6.75 14.25 6.41421 14.25 6C14.25 5.58579 13.9142 5.25 13.5 5.25L10.5 5.25ZM10.5 8.75C10.0858 8.75 9.75 9.08579 9.75 9.5C9.75 9.91421 10.0858 10.25 10.5 10.25L13.5 10.25C13.9142 10.25 14.25 9.91421 14.25 9.5C14.25 9.08579 13.9142 8.75 13.5 8.75L10.5 8.75ZM10.5 12.25C10.0858 12.25 9.75 12.5858 9.75 13C9.75 13.4142 10.0858 13.75 10.5 13.75L13.5 13.75C13.9142 13.75 14.25 13.4142 14.25 13C14.25 12.5858 13.9142 12.25 13.5 12.25L10.5 12.25Z" fill="currentColor"/></svg>
