<svg xmlns="http://www.w3.org/2000/svg" fill="none" viewBox="0 0 24 24"><path stroke="currentColor" stroke-linecap="round" stroke-width="1.5" d="M22 22H2"/><path stroke="currentColor" stroke-width="1.5" d="M17 22V6c0-1.89 0-2.83-.59-3.41C15.83 2 14.9 2 13 2h-2c-1.89 0-2.83 0-3.41.59C7 3.17 7 4.1 7 6v16"/><path stroke="currentColor" stroke-linecap="round" stroke-width="1.5" d="M12 22v-3m-2-7h4m-8.5-1H7m-1.5 3H7m10-3h1.5M17 14h1.5m-13-6H7m10 0h1.5"/><circle fill="none" cx="12" cy="7" r="2" stroke="currentColor" stroke-width="1.5"/><path fill="currentColor" d="M20.25 11.5a.75.75 0 0 0 1.5 0zm-.14-3.16-.42.62zm.55.55-.62.42zm1.09 6.61a.75.75 0 0 0-1.5 0zM17.5 8.75c.72 0 1.2 0 1.57.04.35.03.52.1.62.17l.84-1.25q-.6-.37-1.31-.41-.69-.06-1.72-.05zm4.25 2.75q.01-1.03-.05-1.72a3 3 0 0 0-.41-1.3l-1.25.83c.07.1.14.27.17.62.04.37.04.85.04 1.57zm-2.06-2.54q.21.14.35.35l1.25-.84q-.3-.46-.76-.76zm.56 6.54V22h1.5v-6.5zM3.89 8.34l.42.62zm-.55.55.62.42zM3.75 20a.75.75 0 0 0-1.5 0zm-1.5-4a.75.75 0 0 0 1.5 0zM6.5 7.25q-1.03-.01-1.72.05-.71.04-1.3.41l.83 1.25c.1-.07.27-.14.62-.17.37-.04.85-.04 1.57-.04zM3.75 11.5c0-.72 0-1.2.04-1.57.03-.35.1-.52.17-.62l-1.25-.84q-.37.6-.41 1.31-.06.69-.05 1.72zm-.28-3.79q-.46.3-.76.76l1.25.84q.14-.21.35-.35zM2.25 20v2h1.5v-2zm0-8.5V16h1.5v-4.5z"/><path stroke="currentColor" stroke-linecap="round" stroke-width="1.5" d="M10 15h.5m3.5 0h-1.5"/></svg>
