<svg xmlns="http://www.w3.org/2000/svg" fill="none" viewBox="0 0 24 24"><path stroke="currentColor" stroke-linecap="round" stroke-linejoin="round" stroke-miterlimit="10" stroke-width="1.5" d="M2 22h20m-6.99-.01-12 .02L3 7.07a2 2 0 0 1 .89-1.66l4-2.67a2 2 0 0 1 2.22 0l4 2.67c.56.37.89.99.89 1.66zm4.97.02V18m.02-6a2 2 0 0 0-2 2v2c0 1.1.9 2 2 2a2 2 0 0 0 2-2v-2a2 2 0 0 0-2-2M3 14h12m-6 8v-3.75"/><path stroke="currentColor" stroke-linecap="round" stroke-linejoin="round" stroke-miterlimit="10" stroke-width="1.5" d="M9 10.5a1.5 1.5 0 1 0 0-3 1.5 1.5 0 0 0 0 3"/></svg>
