<svg viewBox="0 0 1024 1024" xmlns="http://www.w3.org/2000/svg"><path d="M512 218.069333V341.333333" fill="none" /><path d="M405.333333 288a106.666667 74.666667 0 1 0 213.333334 0 106.666667 74.666667 0 1 0-213.333334 0Z" fill="none" /><path d="M213.333333 437.333333a298.666667 138.666667 0 1 0 597.333334 0 298.666667 138.666667 0 1 0-597.333334 0Z" fill="#455A64" /><path d="M448 448.021333L469.333333 448c-20.522667-71.829333-54.549333-112.064-86.826666-135.488-20.586667 4.608-39.914667 10.197333-57.536 16.768 63.445333 24.682667 106.304 91.797333 123.029333 118.741333zM576 448.021333L554.666667 448c20.522667-71.829333 54.549333-112.064 86.826666-135.488 20.586667 4.608 39.914667 10.197333 57.536 16.768-63.445333 24.682667-106.304 91.797333-123.029333 118.741333z" fill="#263238" /><path d="M917.333333 533.333333a106.666667 106.666667 0 0 1-106.666666 106.666667H201.706667a106.666667 106.666667 0 0 1-106.666667-106.666667 106.666667 106.666667 0 0 1 106.666667-106.666666H810.666667a106.666667 106.666667 0 0 1 106.666666 106.666666z" fill="#FF5722" /><path d="M95.04 533.333333c0 7.317333 0.746667 14.464 2.154667 21.354667H915.2a108.202667 108.202667 0 0 0-0.021333-42.666667H97.194667a106.346667 106.346667 0 0 0-2.154667 21.312z" fill="#D84315" /><path d="M938.666667 640c-64 0-85.333333-42.666667-85.333334-42.666667s-21.333333 42.666667-85.333333 42.666667-85.333333-42.666667-85.333333-42.666667-21.333333 42.666667-85.333334 42.666667-85.333333-42.666667-85.333333-42.666667-21.333333 42.666667-85.333333 42.666667-85.333333-42.666667-85.333334-42.666667-21.333333 42.666667-85.333333 42.666667-85.333333-42.666667-85.333333-42.666667-21.333333 42.666667-85.333334 42.666667v170.666667h853.333334v-170.666667z" fill="#90CAF9" /><path d="M938.666667 725.333333c-64 0-85.333333-42.666667-85.333334-42.666666s-21.333333 42.666667-85.333333 42.666666-85.333333-42.666667-85.333333-42.666666-21.333333 42.666667-85.333334 42.666666-85.333333-42.666667-85.333333-42.666666-21.333333 42.666667-85.333333 42.666666-85.333333-42.666667-85.333334-42.666666-21.333333 42.666667-85.333333 42.666666-85.333333-42.666667-85.333333-42.666666-21.333333 42.666667-85.333334 42.666666v85.333334h853.333334v-85.333334z" fill="#2196F3" /></svg>
