<svg xmlns="http://www.w3.org/2000/svg" fill="none" viewBox="0 0 24 24"><path fill="currentColor" fill-rule="evenodd" d="m5.25 3.75-.75.75v2.25c-1.24 0-2.25 1-2.25 2.25v1.5c0 1.24 1 2.25 2.25 2.25v7.64l.75.75h3.38l.74-.75v-.89h5.26v.89l.74.75h3.38l.75-.75v-7.64c1.24 0 2.25-1 2.25-2.25V9c0-1.24-1-2.25-2.25-2.25V4.5l-.75-.75zm14.25 4.5v3c.41 0 .75-.34.75-.75V9a.75.75 0 0 0-.75-.75m-15 3v-3a.75.75 0 0 0-.75.75v1.5c0 .41.34.75.75.75M6 19.64V5.25h.75V12c0 1.24 1 2.25 2.25 2.25h6c1.24 0 2.25-1 2.25-2.25V5.25H18v14.39h-1.87v-.89l-.75-.75H8.62l-.74.75v.89zm9.75-14.39h-7.5V12c0 .41.34.75.75.75h6c.41 0 .75-.34.75-.75zm-6 2.25h4.5V6h-4.5zm0 8.63a1.13 1.13 0 1 1-2.25 0 1.13 1.13 0 0 1 2.25 0m5.63 1.12a1.13 1.13 0 1 0 0-2.25 1.13 1.13 0 0 0 0 2.25" clip-rule="evenodd"/></svg>
