<svg xmlns="http://www.w3.org/2000/svg" viewBox="-138.93 0 417.594 417.594"><defs><style>.a{fill:#fff}.d{fill:#211715}.e{fill:#b3b3b3}</style></defs><path d="M58.8 398.1a10.8 10.8 0 0 1-7.99.31c-3.02-1.1-5.7-3.32-5.33-7.02l.27-2.57a59 59 0 0 0 6.9-8.34 14.6 14.6 0 0 0 2.78-7.98c-.41-17.76-1.65-37.36-2.89-57.51 7.44 0 17.79-.12 24.67-.27 9.56 0 16.98-.03 25.11-.25-1.24 20.33-2.5 40.12-2.91 58.03a14.6 14.6 0 0 0 2.77 7.98 59 59 0 0 0 6.9 8.33l.27 2.58c.38 3.7-2.3 5.92-5.33 7.02a11 11 0 0 1-9.82-1.31 97 97 0 0 1-13.75-11.22l-1.33-1.4h-3.9a12 12 0 0 0-.85 1.4 97 97 0 0 1-13.74 11.22 12 12 0 0 1-1.83 1m18.07-256.77c-3.08-7.22-4.56-10.4-7.21-17.84-2.11-5.91-4.55-12.2-6.71-18.48l.37.12a59 59 0 0 0 13.53 1.95c4.31 0 10.45-.67 14.66-2.35l.54-.21c-2.2 6.44-4.71 12.9-6.88 18.97-2.65 7.44-4.13 10.62-7.2 17.84" class="a"/><path d="M47.53 97.5c-7.3.19-12.06-5.2-12.02-10.15A58 58 0 0 1 37.28 75c1.37-4.91 2.35-13.55 2.35-25.52-.59-17.67 4.07-30.48 11.39-37.5A39.8 39.8 0 0 1 76.56 2 41 41 0 0 1 92.8 5.1l.84.48 4.56 2.59a35 35 0 0 1 4.75 3.97c5.6 5.4 9.48 15.1 10.1 23.79a101 101 0 0 1 .2 13.54c.2 14.92 2.94 23.27 4.36 27.38a27 27 0 0 1 1.72 9.34c.05 5.58-6.88 12.81-14.86 9.95Z" style="fill:#957f6e"/><path d="M88.66 24.77c-3.91 6.17-30.85 21.99-39.2 23.88a4.3 4.3 0 0 0-3.15-1.15 4 4 0 0 0-3.62 2.01c-1.23 2.14-1.18 6.07-.35 8.5a13 13 0 0 0 3.85 6.25 4.7 4.7 0 0 0 4 1 33 33 0 0 0 6.27 11.83 24.5 24.5 0 0 0 8.84 7.06 38 38 0 0 1-.44 3.3c-.35 1.95-.23 3.7-2.97 4.7-.06.01-1.14.51-2.55 1.17 1 3.84 2.26 7.78 3.62 11.72l.36.1a59 59 0 0 0 13.53 1.94c4.31.01 10.45-.67 14.66-2.34l.54-.22c1.33-3.88 2.55-7.75 3.52-11.52l-1.84-.86c-2.73-.99-2.62-2.74-2.97-4.7q-.33-1.88-.48-3.76c6.57-3.49 11.75-12.42 12.7-14.97a28 28 0 0 0 1.26-3.45l.36.06a4.8 4.8 0 0 0 3.69-1.06 13 13 0 0 0 3.85-6.25c.83-2.43.88-6.37-.35-8.5a4 4 0 0 0-3.62-2.01 4.5 4.5 0 0 0-2.14.45l-2.82-2.2c-2.08-1.6-5.62-3.94-8.37-7.66a35 35 0 0 1-6.04-12.42" class="a"/><path d="M89.37 405.1c-2.88-2-5.42-3.77-6.24-4.27-5.23-3.27-4.65-7.72-4.53-10.77a56 56 0 0 1 .53-5.58l1.32 1.4A97 97 0 0 0 94.2 397.1a11 11 0 0 0 9.82 1.3c3.02-1.1 5.7-3.32 5.32-7.01l-.27-2.58.5.51c3.4 3.48 7.14 6.9 10.53 10.29 2.2 2.2 3.94 5.1 3.86 8.3-.05 2.2-1.59 4.08-3.38 5.34a14 14 0 0 1-6.13 2.16 23.2 23.2 0 0 1-14.44-2.96c-.8-.46-6.13-4.2-10.64-7.34m-23.91 0c2.88-2 5.42-3.77 6.24-4.27 5.23-3.27 4.65-7.72 4.53-10.77a62 62 0 0 0-.4-6.32 10 10 0 0 0-1.45 2.14 97 97 0 0 1-13.75 11.22 11 11 0 0 1-9.82 1.3c-3.02-1.1-5.7-3.32-5.32-7.01l.26-2.58-.5.51c-3.38 3.48-7.12 6.9-10.52 10.29-2.2 2.2-3.93 5.1-3.85 8.3.05 2.2 1.58 4.08 3.37 5.34a14 14 0 0 0 6.14 2.16 23.2 23.2 0 0 0 14.43-2.96c.8-.46 6.13-4.2 10.64-7.34" style="fill:#7a7473"/><path d="M90.38 403.38q-2.84-2.01-5.72-3.95a8.5 8.5 0 0 1-3.62-3.79 11 11 0 0 1-.5-4.44 58 58 0 0 1 .51-6.2l-3.34.9a79 79 0 0 0 6.99 6.53q2.56 2.12 5.23 4.1a27 27 0 0 0 5.56 3.49 12.8 12.8 0 0 0 12.17-1.24 8.6 8.6 0 0 0 3.4-4.43c.56-1.81.2-3.7.02-5.53l-3.42 1.41c3.16 3.24 6.46 6.33 9.7 9.49 2.34 2.29 6.2 6.3 4.04 9.88-2.09 3.46-6.92 4.11-10.59 3.98a20.6 20.6 0 0 1-10.43-3.27c-3.38-2.24-6.67-4.61-10-6.93-2.11-1.48-4.12 1.99-2.02 3.45 3.35 2.34 6.66 4.73 10.07 6.98a24.5 24.5 0 0 0 12.6 3.77c4.75.13 10.05-1.06 13.12-4.97 3.19-4.05 1.61-9.25-1.33-12.95a65 65 0 0 0-6.05-6.07 269 269 0 0 1-6.27-6.19c-1.13-1.15-3.6-.36-3.42 1.42.15 1.37.59 3.11.12 4.46a5.2 5.2 0 0 1-2.67 2.73c-3.18 1.7-6.72 1.09-9.63-.85a83 83 0 0 1-14.35-12.1c-.95-1-3.12-.63-3.35.89a69 69 0 0 0-.65 7.25 14 14 0 0 0 .74 5.78 12 12 0 0 0 4.9 5.61c2.1 1.36 4.13 2.82 6.18 4.24 2.1 1.48 4.11-1.99 2.01-3.45" class="d"/><path d="M100.87 305.4c-.8 13.3-1.66 26.57-2.37 39.86q-.49 9.2-.83 18.41c-.2 5.37-.92 10.76 1.5 15.75a37 37 0 0 0 5.61 7.68c2.4 2.74 5 5.3 7.6 7.82 1.86 1.8 4.69-1.03 2.83-2.82-4.28-4.15-8.68-8.4-11.9-13.45-2.69-4.24-1.84-9.33-1.68-14.08.43-12.35 1.14-24.7 1.89-37.03l1.35-22.13c.15-2.57-3.85-2.57-4 0Zm-25.45 10.07v68.26c0 2.58 4 2.58 4 0v-68.26c0-2.57-4-2.58-4 0" class="d"/><path d="M66.47 406.83c2.07-1.44 4.13-2.9 6.24-4.28a11.8 11.8 0 0 0 5.03-6.12 17 17 0 0 0 .51-5.93c-.1-2.44-.15-4.87-.49-7.3-.2-1.48-2.42-1.92-3.34-.88a13 13 0 0 0-1.5 2.04c-.06.12-.5.73-.1.26q-.24.27-.5.5a66 66 0 0 1-3.27 3 95 95 0 0 1-8.79 6.82c-3 2.05-6.6 2.85-9.95 1.07a5.2 5.2 0 0 1-2.67-2.73c-.46-1.35-.02-3.1.12-4.46.18-1.78-2.29-2.58-3.42-1.42-3.63 3.73-7.52 7.2-11.15 10.93-3.15 3.24-5.7 8.37-3.48 12.79 2.24 4.47 7.53 6.15 12.17 6.43a25 25 0 0 0 14.02-3.41c3.65-2.21 7.08-4.87 10.57-7.3 2.1-1.47.1-4.93-2.02-3.46q-4.62 3.26-9.27 6.45a21.4 21.4 0 0 1-9.45 3.62c-3.8.46-8.55.13-11.4-2.73-3-3-.65-7.19 1.82-9.7 3.62-3.65 7.43-7.1 11.03-10.78l-3.42-1.42c-.32 3.13-.52 5.93 1.7 8.47a12 12 0 0 0 8.37 3.73c3.7.18 6.83-1.44 9.76-3.52a112 112 0 0 0 8.02-6.3 70 70 0 0 0 3.44-3.14c.9-.89 1.38-1.97 2.2-2.9l-3.34-.88c.29 2.02.26 4.08.35 6.12a14 14 0 0 1-.28 4.7 7.7 7.7 0 0 1-3.55 4.18c-2.02 1.32-3.99 2.73-5.97 4.1-2.1 1.46-.11 4.93 2 3.45" class="d"/><path d="M49.96 305.4c.77 12.82 1.6 25.63 2.3 38.45q.49 9.23.86 18.47.16 4.33.27 8.65a14 14 0 0 1-1.03 6.1 30 30 0 0 1-5.14 7.2c-2.4 2.75-4.99 5.3-7.6 7.83-1.86 1.79.97 4.62 2.83 2.83a93 93 0 0 0 12.33-13.98 16 16 0 0 0 2.49-6.6 48 48 0 0 0-.03-8.45 1400 1400 0 0 0-1.9-37.87l-1.38-22.62c-.15-2.56-4.15-2.58-4 0Z" class="d"/><path d="M44.29 307.8c-1.8-20.1-3.73-48.47-4.12-67.68-.39-18.64-.93-26.54 1.15-47.43h73.2c.75 17.95.6 28.13-.03 44.11-.77 19.82-2.34 53.29-5.19 77.44-11.16.42-19.88.48-32.1.48-9.91.2-27.03.37-32.26.17z" class="e"/><path d="M38.89 197.28c-1.4 15.79-1.09 31.55-.6 47.37.46 15.5 1.46 31 2.63 46.46q.89 11.9 2.03 23.79a2.06 2.06 0 0 0 2 2c6.92.25 13.86.08 20.78 0 9.03-.1 18.06-.14 27.1-.25q8.24-.1 16.48-.4a2.07 2.07 0 0 0 2-2c1.77-15.04 2.8-30.16 3.66-45.27a1434 1434 0 0 0 1.9-42.99q.36-13.83-.12-27.65c-.1-2.57-4.1-2.58-4 0 .52 15.48.08 30.93-.58 46.4-.63 14.84-1.41 29.66-2.52 44.47a603 603 0 0 1-2.34 25.03l2-2c-9.88.37-19.77.47-29.67.48-8.22 0-16.45.24-24.67.26-3.34 0-6.68.03-10.02-.09l2 2a1215 1215 0 0 1-3.45-44.67q-1.4-23.04-1.67-46.12a266 266 0 0 1 1.06-26.81 2 2 0 0 0-2-2 2.04 2.04 0 0 0-2 2Z" class="d"/><path d="M137.56 159.85a27 27 0 0 1-.93 11.44c-.68 2.7-3.24 6.49-6.46 9.12a59 59 0 0 1-12.7 7.35 696 696 0 0 1 1.68 18.5 1.1 1.1 0 0 1-1 1.19c-6.22.47-17.75 1.18-23.78.2-4.22-.69-7.1-1.49-9.77-3.73a17 17 0 0 1-5.64-8.2 87 87 0 0 1-1.87-8.96.63.63 0 0 0-1.24 0 80 80 0 0 1-1.75 8.59 15.7 15.7 0 0 1-5.97 8.34c-2.05 1.52-6.21 3.18-10.92 3.91a95 95 0 0 1-20.45.34 1.2 1.2 0 0 1-1.07-1.3 762 762 0 0 1 2.46-25.02c.24-3.13.47-6.6.63-10.94a22 22 0 0 1-13.72 2.63c-6.73-.7-12.39-6.2-14.43-12.66a43 43 0 0 1-1.51-9.16c-1.1-11.9-1.1-17.8-1.72-25.95l23.2-18.1a75 75 0 0 1 8.63-5.63 143 143 0 0 1 15.8-7.13 26 26 0 0 1 3.95-2.78c2.55 10.35 7.08 21.52 10.68 31.59 2.65 7.44 4.13 10.62 7.2 17.84h1.1c3.08-7.22 4.56-10.4 7.22-17.84 3.59-10.07 8.12-21.24 10.67-31.59a26 26 0 0 1 3.73 2.6l12.2 4.47a32 32 0 0 1 8.4 4.57c3.5 2.7 5.61 6.26 7.28 10.35a74 74 0 0 1 2.77 8.16c4.22 16.9 5.89 23.87 7.34 37.8" class="e"/><path d="M115.04 159.47c.24-5.51.18-11.04.4-16.55s.35-11 .35-16.51c0-2.58-4-2.58-4 0q0 8.25-.35 16.5c-.22 5.52-.15 11.04-.4 16.56-.11 2.57 3.89 2.57 4 0m-80.03-32.61c.02 8.15.86 16.26 1.21 24.4.15 3.47.44 6.93.62 10.4.2 3.9 0 7.8-.18 11.69q-.24 5.18-.69 10.35c-.22 2.57 3.78 2.55 4 0a174 174 0 0 0 .93-20.56c-.12-3.56-.54-7.1-.64-10.67-.11-3.82-.43-7.64-.67-11.45-.3-4.72-.57-9.44-.58-14.16-.01-2.58-4.01-2.58-4 0m51.92-103.1c-.04.06-.39.55-.2.3s-.23.28-.3.36q-.5.56-1.04 1.07a38 38 0 0 1-2.81 2.45 99 99 0 0 1-7.71 5.44 162 162 0 0 1-18.5 10.45 36 36 0 0 1-7.45 2.89c-2.5.58-1.44 4.43 1.07 3.85a38 38 0 0 0 7.14-2.7 132 132 0 0 0 9.17-4.69 143 143 0 0 0 18.36-11.83 24 24 0 0 0 5.72-5.58c1.4-2.16-2.06-4.17-3.45-2.01" class="d"/><path d="M104.63 44.34c-3.48-2.69-6.77-5.25-9.27-8.95a38 38 0 0 1-4.63-10.25c-.76-2.46-4.62-1.41-3.86 1.06a42 42 0 0 0 5.04 11.2 32 32 0 0 0 5.15 6.03 48 48 0 0 0 3.9 3.11l.56.42.28.21a2.07 2.07 0 0 0 2.83 0 2 2 0 0 0 0-2.83m10.6 5.13a82 82 0 0 0-.07-11.6 50 50 0 0 0-1.77-11.04 37 37 0 0 0-13.62-20 2 2 0 0 0-2.73.72 2.05 2.05 0 0 0 .71 2.74c6.18 4.5 10.02 11.08 12 18.38a47 47 0 0 1 1.45 9.8 80 80 0 0 1 .03 11c-.21 2.56 3.79 2.55 4 0M53.08 98.35c.87-.3 1.71-.74 2.55-1.13l3.85-1.77 3.02-1.4.32-.15-.17.07c-.5.22-.06.04.07-.02q.37-.14.75-.32a5.4 5.4 0 0 0 2.41-2.23 9 9 0 0 0 .82-2.85c.22-1.47.47-2.92.6-4.4a2 2 0 0 0-2-2 2.05 2.05 0 0 0-2 2 37 37 0 0 1-.88 5.28c-.06.25.2-.3.04-.1l-.13.22c-.23.4.17-.13-.07.1l-.21.2c.21-.26.15-.1.02-.03l-.29.18c-.04.02-.45.23-.27.15s-.15.05-.15.05l-.48.2-.07.03-.3.14-6.43 2.97-1.67.76-.53.24c-.44.2.5-.19.13-.06a2 2 0 0 0 1.07 3.86ZM88.3 84q.2 2.07.55 4.11a16 16 0 0 0 .4 2.12 5.4 5.4 0 0 0 1.46 2.43 6 6 0 0 0 1.31.92 11 11 0 0 0 .99.43c.63.24-.47-.23-.22-.1 1.9.97 3.88 1.83 5.81 2.75.93.43 1.85.89 2.8 1.28a2 2 0 0 0 2.45-1.4 2.06 2.06 0 0 0-1.4-2.46c1 .42.08.02-.15-.09l-1.24-.58-3.36-1.6-2.6-1.22-.28-.13-.08-.04-.48-.2c-.06-.02-.36-.17-.06-.01l-.52-.29c-.06-.03-.35-.22-.12-.06.2.14.02.01-.02-.02l-.2-.2c-.29-.25.1.08.06.1l-.28-.48c-.11-.16.08.18.07.2l-.11-.35-.12-.49q-.12-.57-.2-1.16l-.27-1.7-.08-.6-.12-1.16a2.04 2.04 0 0 0-2-2 2 2 0 0 0-2 2ZM50.87 47.23a6.7 6.7 0 0 0-7.35-1.1 6.4 6.4 0 0 0-3.35 4.32 16 16 0 0 0 2.33 12.63c1.64 2.44 4.24 4.65 7.39 4.24a2.07 2.07 0 0 0 2-2 2 2 0 0 0-2-2c-2.18.28-3.6-1.52-4.54-3.26a13 13 0 0 1-1.55-4.82 8.3 8.3 0 0 1 .82-5.04c-.32.52.52-.44.2-.21a2 2 0 0 1 .92-.42 2.5 2.5 0 0 1 2.3.49c1.92 1.7 4.76-1.11 2.83-2.83" class="d"/><path d="M106.44 50.06a2.5 2.5 0 0 1 2.17-.52 2 2 0 0 1 1.05.45c-.3-.22.52.72.2.21a8.3 8.3 0 0 1 .82 5.04 13 13 0 0 1-1.55 4.82c-.94 1.74-2.36 3.54-4.54 3.26a2 2 0 0 0-2 2 2.05 2.05 0 0 0 2 2c5.12.66 8.27-4.86 9.55-9 1.14-3.71 1.09-9.46-2.55-11.84a6.7 6.7 0 0 0-7.98.75c-1.92 1.72.91 4.54 2.83 2.83" class="d"/><path d="M102.84 62.69a28 28 0 0 1-1.27 4.22c-.19.5-.32.76-.56 1.36-.2.5.14-.3-.03.07l-.18.38a36 36 0 0 1-3.09 5.15c-2.68 3.8-6.35 7.94-11.06 9.05-2.5.59-1.45 4.45 1.06 3.86 5.6-1.32 9.9-6 13.15-10.47a37 37 0 0 0 3.36-5.5q.3-.63.56-1.28c.22-.5-.16.36.08-.16q.23-.5.42-1.03a28 28 0 0 0 1.42-4.6c.52-2.5-3.34-3.58-3.86-1.05m-55.14.96C50.1 74.2 58.05 85.67 69.43 87.4a2.07 2.07 0 0 0 2.46-1.4 2 2 0 0 0-1.4-2.46C60.4 82.01 53.68 71.9 51.56 62.59c-.57-2.5-4.43-1.45-3.86 1.06m24.09 8.97a12 12 0 0 0 5.74 1.34 9.5 9.5 0 0 0 5.92-1.8 2 2 0 0 0 0-2.82 2.06 2.06 0 0 0-2.83 0c.7-.54-.01-.02-.23.1-.17.09-.62.23.01.01l-.46.17c-.42.13-.89.16-1.3.3.21-.07.33-.04.03-.01a10 10 0 0 1-1.3.06 12 12 0 0 1-1.22-.07l-.21-.02q-.24-.02.19.03a8 8 0 0 1-1.22-.27l-.5-.17c-.45-.16.42.2.02 0l-.62-.3a2 2 0 0 0-2.02 3.45m4.46-13.2a26 26 0 0 1 .6 2.76l-.07-.53v.38l.08-.53-.04.17.2-.48-.06.1.31-.4-.09.1.4-.32-.22.12.48-.2-.37.1.53-.07a1 1 0 0 1-.34 0l.53.07-.39-.06a1.5 1.5 0 0 0-.8-.04 1.5 1.5 0 0 0-.74.24 2 2 0 0 0-.72 2.73l.31.4a2 2 0 0 0 .89.52c.34.05.68.14 1.04.15a3.4 3.4 0 0 0 1.6-.39 2.4 2.4 0 0 0 1.31-1.59 4 4 0 0 0 0-1.65q-.23-1.34-.58-2.64a2 2 0 0 0-2.46-1.4 2 2 0 0 0-1.2.92 2 2 0 0 0-.2 1.54m-14-7.96c-.46 1.5-.16 4.94 2.67 5.23 3.74-.02 3.94-4.18 2.68-6.13-1.03-1.6-4.06-2.27-5.35.9m29.98 0c.46 1.5.16 4.94-2.67 5.23-3.75-.02-3.94-4.18-2.68-6.13 1.03-1.6 4.06-2.27 5.35.9m-50.6-1.99c-.33-10.84 1-22.6 7.22-31.82C54.41 9.4 65.08 4.56 74.81 4.05a40 40 0 0 1 10.35.77 28 28 0 0 1 7.46 2.5c2.24 1.26 4.26-2.2 2.02-3.46C89.62 1 83.18.1 77.5 0a41 41 0 0 0-19.3 4.64 33 33 0 0 0-11.32 8.96 41 41 0 0 0-6.8 13.76 71 71 0 0 0-2.45 22.1c.08 2.57 4.08 2.58 4 0" class="d"/><path d="M37.63 49.47c0 7.86-.13 16.01-1.95 23.7a79 79 0 0 0-2 11.2c-.33 3.57-.03 6.81 2.21 9.76a14.2 14.2 0 0 0 11.64 5.38c2.57-.03 2.58-4.03 0-4a10.3 10.3 0 0 1-8.46-3.76c-1.94-2.56-1.61-5.47-1.28-8.5a94 94 0 0 1 1.9-9.71 76 76 0 0 0 1.33-9.19c.46-4.94.6-9.91.61-14.87 0-2.58-4-2.58-4 0Zm73.6 0a93 93 0 0 0 3 23.36c1.59 5.69 5.42 12.77 1.25 18.13a9.3 9.3 0 0 1-10.5 3.25c-2.43-.83-3.48 3.04-1.05 3.86a13 13 0 0 0 12.38-2.32 12.8 12.8 0 0 0 5-9.79c-.02-4.15-1.27-7.92-2.5-11.82a70 70 0 0 1-2.15-8.66 97 97 0 0 1-1.43-16c-.04-2.58-4.04-2.59-4 0" class="d"/><path d="M32.02 108.85c3.24-2.76 7.67-5.1 11.63-7.05a109 109 0 0 1 17.31-7.01c2.47-.73 1.42-4.59-1.06-3.86a115 115 0 0 0-18.27 7.41 60 60 0 0 0-12.44 7.68c-1.96 1.68.88 4.5 2.83 2.83m-26.63 16.7c.68 8.95.95 17.92 1.8 26.87.5 5.22 1.34 10.41 4.5 14.75a19.5 19.5 0 0 0 11.06 7.77 24.2 24.2 0 0 0 15.62-1.83 2 2 0 0 0 .72-2.73 2.05 2.05 0 0 0-2.74-.72 20 20 0 0 1-11.83 1.57 15.2 15.2 0 0 1-9.6-6.37c-2.78-3.99-3.38-8.65-3.81-13.37q-.62-6.76-.99-13.55c-.23-4.13-.42-8.27-.73-12.4-.2-2.55-4.2-2.57-4 0Z" class="d"/><path d="M6.04 115.38a30 30 0 0 0-2.23-3.77 9 9 0 0 1-1.85-5.66 10 10 0 0 1 .9-3.5c2.05-3.2 3.82-5.98 5.96-8.69a23 23 0 0 1 1.66-1.8 5.2 5.2 0 0 1 3.58-1.49 4.3 4.3 0 0 1 3.08 1.7c2.81.9 3.39-.87 4.64-1.85a4.9 4.9 0 0 1 4.76-.41 12 12 0 0 1 3.97 3 7 7 0 0 1 1.73 3.47 2.6 2.6 0 0 1-.76 2.3 4.1 4.1 0 0 1-3.2 1.17l1.63 3.31a5 5 0 0 1 .37 2 3 3 0 0 1-.06.82 4 4 0 0 1-.34.81c-1.27 2.42-3.59 5.26-2.51 8.18 2.65 7.69 2.28 11.52-.2 13.7a18 18 0 0 1-6.83 3.63c-.7.14-3.92.69-4.57.4-1.27-.6-2.51-.88-3.46-2.02a9 9 0 0 1-1.56-3.27 95 95 0 0 0-2.48-7.17 53 53 0 0 0-2.23-4.86" class="a"/><path d="M19.03 91.47c-1.87-3.69-6.85-3.63-9.67-1.2a27 27 0 0 0-4.06 4.88 136 136 0 0 0-3.54 5.3 10.6 10.6 0 0 0-.89 10.03 51 51 0 0 0 2.66 4.45 54 54 0 0 1 2.36 4.75c1.28 2.93 2.13 6 3.16 9.02a8.35 8.35 0 0 0 7.85 6.06 18.6 18.6 0 0 0 8.42-2.4c2.5-1.4 4.81-3.23 5.55-6.12.95-3.72-.26-7.82-1.42-11.34a4 4 0 0 1-.13-2.78 14 14 0 0 1 1.35-2.7 11 11 0 0 0 1.51-3.18 6.7 6.7 0 0 0-.34-3.62 2.06 2.06 0 0 0-2.46-1.4 2 2 0 0 0-1.4 2.46 3 3 0 0 1 .17 2.1 14 14 0 0 1-1.13 1.96 13 13 0 0 0-1.89 4.96c-.19 1.78.53 3.35 1.02 5.03a24 24 0 0 1 .98 4.56c.17 1.78-.01 3.55-.96 4.53a13.4 13.4 0 0 1-6.65 3.59 22 22 0 0 1-2.87.35c-.12.01-.71-.1-.24.03l-.8-.34a4.5 4.5 0 0 1-1.83-1.11 10 10 0 0 1-1.38-3.39 97 97 0 0 0-1.47-4.29 61 61 0 0 0-3.6-8.13c-1.3-2.41-3.57-4.66-3.37-7.59a7 7 0 0 1 1.38-3.67q1.64-2.6 3.41-5.11c1.02-1.43 2.16-3.27 3.67-4.22a2.13 2.13 0 0 1 3.16.54c1.16 2.3 4.61.28 3.45-2.01" class="d"/><path d="M13.55 102.45q1.07-1.47 2.19-2.91l.65-.86c.29-.36-.27.36.01 0l.31-.4 1.04-1.33q.3-.4.63-.77l.18-.17c-.21.23 0 .03.13-.08q.3-.15-.06 0l.3-.1q.33-.06-.1 0l.3-.02.3.01q-.45-.05-.1.01l.28.1q-.37-.17-.07-.02c.15.1.37.24.11.03l.45.44c-.34-.36.05.12.11.22q.15.3 0-.07l.16.44c.05.03 0 .49-.01.55a2 2 0 0 0 2 2 2.05 2.05 0 0 0 2-2 5.5 5.5 0 0 0-2.4-4.81 4.9 4.9 0 0 0-5.36-.19 7 7 0 0 0-1.91 1.9q-1.2 1.5-2.36 3.04-1.13 1.48-2.24 2.97a2 2 0 0 0 .72 2.74 2.06 2.06 0 0 0 2.74-.72" class="d"/><path d="M19.54 104.19a36 36 0 0 1 3.28-3.47l.88-.78.39-.33.2-.17c.07-.07.32-.3.08-.07-.23.2-.04.06 0 .02.23-.24-.07.13-.15.06.01 0 .61-.15.22-.07-.36.08.18.05.24.03-.28.07-.35-.08-.14-.02l.32.1c.2.04-.15-.06-.17-.08l.24.12.23.15c.02 0-.37-.2-.18-.12.07.02.22.27.04.01s-.05-.05-.02 0l.13.22.06.12q.11.24 0 0l-.05-.12.06.2c.02.1.04.12.06.18.1.33-.04-.1-.01-.16l.01.24c.01.07-.03.29.02-.04.06-.36 0-.04-.03.05l-.07.21.05-.12-.07.14a13 13 0 0 1-1.01 1.62l-.16.2-.51.61q-1.2 1.45-2.46 2.86a2 2 0 1 0 2.83 2.83q1.28-1.45 2.53-2.94a15 15 0 0 0 2.6-3.99 4.8 4.8 0 0 0-2.03-5.6 5 5 0 0 0-3.31-.6 5 5 0 0 0-2.54 1.44 37 37 0 0 0-4.38 4.44 2.05 2.05 0 0 0 0 2.83 2 2 0 0 0 2.83 0Z" class="d"/><path d="M21.05 93.67a10 10 0 0 0 1.28-1.11l.42-.43q.14-.15.29-.27l-.03.02c.07-.05.62-.33.25-.18l.52-.16c.13-.03.55-.07.2-.05h.75c.42 0-.24-.08.2.02q.29.06.55.14l.36.12q-.23-.1-.03-.02.32.14.62.32a9 9 0 0 1 1 .66c-.24-.18.32.28.37.33a17 17 0 0 1 1.56 1.54q-.17-.24.04.05l.32.5.27.54c-.14-.3.13.38.15.45q.09.28.15.57.07.32.02.13-.04-.18-.02.13c.17-.52-.22.39-.05.1.15-.27-.44.47-.05.06-.08.08-.2.18-.27.28-.23.28.32-.18 0 0l-.53.3c.3-.16 0 0-.16.04-.04.01-.6.14-.2.08a4 4 0 0 1-.81 0 2 2 0 0 0-2 2 2.05 2.05 0 0 0 2 2 6 6 0 0 0 4.8-1.87 4.8 4.8 0 0 0 1.27-2.99 7 7 0 0 0-.77-3.12A11.4 11.4 0 0 0 30 89.7a9 9 0 0 0-5.56-2.23 6.5 6.5 0 0 0-3.22.8 6 6 0 0 0-1.3 1.02q-.29.29-.55.58l-.21.2c-.05.05-.37.32-.13.14a2.05 2.05 0 0 0-.72 2.74 2 2 0 0 0 2.74.71m74.58 1.5q7.38 2.72 14.74 5.4c5.36 1.96 10.27 4.9 13.22 9.93 3.22 5.47 4.66 11.83 6.16 17.93a319 319 0 0 1 3.48 15.28 185 185 0 0 1 2.33 16.14 2.06 2.06 0 0 0 2 2 2 2 0 0 0 2-2 231 231 0 0 0-5.6-31.04c-1.6-6.51-3.12-13.16-6.26-19.15-2.98-5.7-7.93-9.53-13.8-11.99-5.62-2.36-11.48-4.27-17.21-6.35-2.42-.88-3.47 2.98-1.06 3.85m-32.84 11.9a56 56 0 0 0 14.91 2 42 42 0 0 0 14.35-2.41 2.06 2.06 0 0 0 1.4-2.46 2 2 0 0 0-2.47-1.4c-8.54 3.3-18.42 2.7-27.12.4-2.5-.66-3.56 3.2-1.07 3.85Zm52.37 77.63c.6 5.88 1.2 11.76 1.68 17.65l.16 1.97a7 7 0 0 0 .14 1.76c.19.48 1.2-.48.45-.59a3 3 0 0 0-.57.04l-1.84.13q-3.55.25-7.1.38a69 69 0 0 1-13.19-.32 22 22 0 0 1-7-1.98 15 15 0 0 1-5.24-4.86 18 18 0 0 1-2.35-5.97q-.4-1.77-.73-3.55c-.27-1.38-.21-3.38-1.3-4.41a2.7 2.7 0 0 0-3.21-.31c-1.37.85-1.32 2.75-1.57 4.17a43 43 0 0 1-1.55 6.72c-3.6 10.09-16.31 10.7-25.34 10.8-2.83.02-5.67-.04-8.49-.27a3 3 0 0 0-.69-.06q-.9-.2.26.64l.05-.53.16-1.92q.15-1.86.32-3.71.8-8.72 1.77-17.42a2 2 0 0 0-2-2 2.05 2.05 0 0 0-2 2q-.93 8.29-1.7 16.58-.16 1.76-.3 3.53a26 26 0 0 0-.29 3.8c.22 3.34 4.16 3.12 6.6 3.24a89 89 0 0 0 16-.47c5.42-.7 11.05-2.3 15.08-6.17a18 18 0 0 0 4.66-7.68c.36-1.18.6-2.4.85-3.61a43 43 0 0 1 .97-5.21l-.51.88-.34.21h-1.07l-.34-.21-.51-.89a34 34 0 0 1 .84 4.44q.36 1.92.85 3.82a19.3 19.3 0 0 0 9.4 12.04 26 26 0 0 0 7.67 2.22 76 76 0 0 0 14.99.43q3.65-.15 7.3-.4a9 9 0 0 0 3.3-.49c1.44-.73 1.78-2.13 1.66-3.62a779 779 0 0 0-1.93-20.8 2.06 2.06 0 0 0-2-2 2 2 0 0 0-2 2" class="d"/><path d="M79.7 142.34c1.57-3.7 3.19-7.37 4.68-11.1 1.6-3.98 3-8.03 4.48-12.05 3.25-8.82 6.65-17.63 8.92-26.76l-2.94 1.2a27 27 0 0 1 5.2 3.92 16 16 0 0 1 3.93 4.83l-.27-1v.22l.28-1.01-.15.2.72-.71q-2.45 1.55-4.91 3.08a2.03 2.03 0 0 0 0 3.45l2.72 1.84q.56.37 1.09.8l.63.55q.55.45.2.24v-1.06a6 6 0 0 1-.96 1.9q-.58 1.04-1.18 2.06-1.12 1.92-2.26 3.81-2.53 4.22-5.16 8.38a996 996 0 0 1-10.53 16.3c-1.41 2.15 2.05 4.16 3.46 2.01 4.6-7 9.18-14.03 13.57-21.18a332 332 0 0 0 6.08-10.28 4.3 4.3 0 0 0 .84-3 4.2 4.2 0 0 0-1.54-2.29 57 57 0 0 0-4.94-3.53v3.45q1.45-.9 2.88-1.83a9 9 0 0 0 2.74-1.96c1.2-1.78-.57-3.78-1.66-5.15a31 31 0 0 0-8.75-7.5 2.02 2.02 0 0 0-2.94 1.2c-2.24 8.99-5.57 17.66-8.77 26.33-1.47 4-2.86 8.02-4.43 11.98-1.42 3.58-2.98 7.1-4.49 10.64a2.07 2.07 0 0 0 .72 2.74 2 2 0 0 0 2.74-.72" class="d"/><path d="M78.6 140.32c-1.5-3.49-3.02-6.95-4.43-10.47-1.6-4.02-3-8.1-4.5-12.15-3.2-8.68-6.52-17.34-8.76-26.33a2.02 2.02 0 0 0-2.94-1.2 31 31 0 0 0-8.75 7.5c-1.09 1.36-2.86 3.37-1.66 5.15a9 9 0 0 0 2.73 1.95q1.45.94 2.89 1.84v-3.45a56 56 0 0 0-4.94 3.53 4.2 4.2 0 0 0-1.54 2.29 4.3 4.3 0 0 0 .84 3q2.94 5.2 6.08 10.28a826 826 0 0 0 13.57 21.18c1.4 2.14 4.87.14 3.45-2.02a990 990 0 0 1-10.52-16.3q-2.56-4.06-5.05-8.18-1.2-1.99-2.37-4l-1.08-1.87a7 7 0 0 1-1.07-2.09v1.06q-.34.21.2-.24.31-.28.64-.55.53-.43 1.09-.8l2.72-1.84a2.03 2.03 0 0 0 0-3.45l-4.9-3.08.71.72-.15-.21.27 1 .01-.22-.27 1.01a16 16 0 0 1 3.93-4.83 27 27 0 0 1 5.2-3.92l-2.94-1.2c2.27 9.13 5.67 17.94 8.92 26.75 1.48 4.03 2.88 8.08 4.48 12.06 1.5 3.72 3.11 7.4 4.69 11.1a2 2 0 0 0 2.73.71 2.05 2.05 0 0 0 .72-2.73" class="d"/><path d="M49.68 161.3c2.53-2.09 27.37-20.7 32.32-23.9 10.68 13.82 29.24 40.5 32.38 45.17-4.22 3.4-27.74 21.23-32.8 24.8-4.5-6.26-26.76-37.85-31.9-46.07" class="a"/><path d="m51.09 162.71.51-.41c.17-.14.94-.72.5-.39l2.46-1.88q3.43-2.6 6.9-5.19a1173 1173 0 0 1 15.88-11.72c1.87-1.36 3.73-2.73 5.68-3.99l-2.74-.72c9.85 12.77 19.1 26 28.3 39.24q2.06 2.95 4.07 5.93l.32-2.42c-3.68 2.96-7.31 5.66-11.23 8.64q-7.76 5.9-15.57 11.74-2.77 2.09-5.58 4.1l2.73.72q-13.47-18.7-26.42-37.78c-1.86-2.74-3.74-5.48-5.5-8.29-1.36-2.18-4.83-.17-3.45 2.02 3.74 5.97 7.83 11.73 11.84 17.52q7.4 10.67 14.9 21.27 2.56 3.65 5.17 7.29a2.03 2.03 0 0 0 2.74.71c9.43-6.68 18.56-13.82 27.72-20.86q2.76-2.09 5.47-4.25a2 2 0 0 0 .31-2.43 1051 1051 0 0 0-32.37-45.16 2.04 2.04 0 0 0-2.74-.72c-4.3 2.78-8.37 5.93-12.5 8.97q-7.77 5.74-15.47 11.57c-1.6 1.2-3.22 2.4-4.77 3.67-1.99 1.63.86 4.45 2.83 2.83Z" class="d"/><path d="M86.76 174.15c-1.5-1.5-2.88-1.97-5.42-3.01a33 33 0 0 0-3.74-.8c-1.63-.25-2.82-.5-4.47-.63-2.17-.17-3.43-.37-4.32.53a2.5 2.5 0 0 0-.66 2c.16 3 5.46 4.75 7.93 6.5a29 29 0 0 1-7.2 2.24 41 41 0 0 1-4.5-1.43 3.1 3.1 0 0 0-3.35 1.3 2.8 2.8 0 0 0 .69 3.54 12 12 0 0 0 1.7 1.07 5.8 5.8 0 0 0 .32 4.33 7 7 0 0 0 2.58 2.99 15 15 0 0 0 3.67 7 7 7 0 0 0 4.3 1.39c7.12-1.61 12.76-5.46 18.4-10.1" class="a"/><path d="M75.07 177.01a27 27 0 0 1-6.73 2.04h1.06a37 37 0 0 1-4.36-1.38 5 5 0 0 0-5.6 1.97 4.85 4.85 0 0 0 .58 5.91 13 13 0 0 0 5.83 2.96c2.5.67 3.56-3.2 1.07-3.86a12 12 0 0 1-2.88-1.13l-.68-.4-.38-.26a.7.7 0 0 1-.28-.47l-.02-.08q.02-.34-.01-.16c-.08.3.15-.55.1-.32q-.04.13.07-.1-.2.27.04 0c-.3.14.23-.15.26-.16.2-.1.46-.24.63-.16-.3-.13.12.08.2.11l.56.2q1.21.44 2.44.8.54.17 1.08.3a5 5 0 0 0 1.99-.02 32 32 0 0 0 7.05-2.34 2 2 0 0 0 .72-2.74 2.05 2.05 0 0 0-2.74-.72Z" class="d"/><path d="M61.48 184.92a8.6 8.6 0 0 0 3.83 9.58l-.92-1.2a17 17 0 0 0 4.32 8.03c2.01 1.87 5.05 2.08 7.55 1.4 6.75-1.87 12.49-5.87 17.84-10.25 2-1.63-.85-4.44-2.83-2.83a61 61 0 0 1-8.78 6.17 33 33 0 0 1-4.71 2.22q-1.18.43-2.38.77-.61.18-1.24.32c-.95.24.09.12-.42.06a4.2 4.2 0 0 1-2.62-1.14 12 12 0 0 1-2.2-3.64c-.27-.71-.42-1.46-.67-2.17-.35-.99-1.27-1.26-1.88-2.03a4.5 4.5 0 0 1-1.03-4.23c.67-2.49-3.19-3.55-3.86-1.06m26.7-12.18a16 16 0 0 0-6.66-3.63 46 46 0 0 0-8.55-1.41 11 11 0 0 0-3.72.05 4.2 4.2 0 0 0-2.9 2.82c-.76 2.52.63 4.7 2.56 6.19s4.19 2.34 6.16 3.7a2 2 0 0 0 2.74-.71 2.04 2.04 0 0 0-.72-2.74c-1.78-1.23-3.83-2.03-5.6-3.29a7 7 0 0 1-.9-.79l-.26-.3q.18.22-.01-.05l-.18-.32q.13.3.02-.03c-.1-.49.01.53-.02-.3 0-.1.1-.36.09-.28q-.25.15.04-.04l-.14.05.37-.1q-.29.04.1 0a34 34 0 0 1 8.35 1.04 13.3 13.3 0 0 1 6.4 2.96c1.84 1.8 4.67-1.03 2.83-2.83Z" class="d"/><path d="M137.56 159.85a27 27 0 0 1-.93 11.44c-.68 2.7-3.24 6.49-6.46 9.12a61 61 0 0 1-13.6 7.74 176 176 0 0 1-19.79 7.1.9.9 0 0 1-1.06-.53c-.5-1.41-1.2-3.24-2-5.25-2.48-6.25-5.86-14.3-7.12-17.37a.85.85 0 0 1 .47-1.12l6.47-2.71c6.68-2.83 13.8-5.9 19.75-8.42" class="e"/><path d="M135.56 159.85a29 29 0 0 1-.6 9.91 17 17 0 0 1-5.4 8.56 43 43 0 0 1-9.97 6.25 123 123 0 0 1-11.51 4.83q-3.23 1.2-6.5 2.28-1.37.45-2.75.88l-1.26.38-.45.14-.44.12q-.4.1.22.07l.72.72a20 20 0 0 1-1.19-3.04q-.63-1.65-1.29-3.27-1.28-3.21-2.6-6.4l-2.37-5.75-.93-2.25a6 6 0 0 1-.68-1.72l-.27 1.01q-.6.34.15-.01l.84-.35 1.72-.72 3.55-1.5q3.35-1.41 6.7-2.85l13.05-5.57a2 2 0 0 0 .72-2.73 2.05 2.05 0 0 0-2.74-.72c-8.44 3.58-16.86 7.22-25.32 10.76-1.86.77-2.93 2.2-2.1 4.22l1.65 3.96q2.26 5.45 4.48 10.94 1.21 3 2.35 6.02a6 6 0 0 0 1.34 2.55 3 3 0 0 0 2.92.53 108 108 0 0 0 10.7-3.53c7.93-2.91 16.16-6.1 22.84-11.38 3.27-2.59 6.31-6.28 7.42-10.37a33 33 0 0 0 1-11.97 2.06 2.06 0 0 0-2-2 2 2 0 0 0-2 2" class="d"/></svg>
