<svg xmlns="http://www.w3.org/2000/svg" viewBox="0 -3.14 291.714 291.714"><defs><style>.a{fill:#fff}.d{fill:#c6c6c6}.e{fill:#211715}</style></defs><path d="M198.75 124.85a844 844 0 0 1-10.39-2.17 62 62 0 0 1-10.12 5.6 69 69 0 0 1-14.43 3.83 52 52 0 0 1-5.2.36 40 40 0 0 1-13.2-1.83 203 203 0 0 0 2.18 17.56 63 63 0 0 0 30.77 2.06 64 64 0 0 0 22.07-6.84c1.98-5.8 3.97-11.82 5.55-18.32a42 42 0 0 1-6.93-.2z" class="a"/><path d="M169.37 219.91a207 207 0 0 1-8.23-19.74 331 331 0 0 1-13.55-51.98 63 63 0 0 0 30.77 2.07 64 64 0 0 0 22.07-6.84q-1.58 4.58-3.05 9.03c-6.87 20.95-21.4 56.26-26.24 67.01Z" style="fill:#7abee6"/><path d="m198.62 148.72-1.24 3.73c-7.44 22.7-23.89 62.25-27.23 69.16a219 219 0 0 1-9-21.44c-3.84-11.08-13.06-39.38-15.55-67.48-9.4 2-25.12 7.59-31.52 14.8-6.91 7.8-9.62 18.7-11.99 25.4-2.64 7.48-7.16 28.34-9.17 44.02-1.97 15.4-1.99 24.23.18 34.47 1.09 5.11 5.32 12.65 12.12 15.73 6.54 2.95 13.96 3.42 20.17.61l.57 2.08a18 18 0 0 0 17.34 13.25h133.2a32.6 32.6 0 0 0 11.35-16.87c.98-3.15 1.58-10.94 1.48-14.42-.13-4.35-2.08-16.1-3.12-21.88-1.91-11.13-4.62-20.87-7.22-30.48-2.52-9.33-8.15-32.26-17.06-45.12-9.81-14.17-24.14-20.53-41.4-25.57l-10.84-5.15-3.02-1.44c-2.12 9.71-5.23 18.3-8.05 26.6" style="fill:#b3b3b3"/><path d="M56.37 80.46a55 55 0 0 1 9.52 1.94c7.53 2.68 11.81 8.18 11.71 16.18-.04 2.97-.67 7.15-3.23 9.97-1.05 1.16-2.24 2.34-3.58 3.67a3.24 3.24 0 0 0-.19 4.34 21 21 0 0 1 4.84 14.52c-.14 2.47-1.62 4.73-2.69 6.33a11 11 0 0 1-1.68 1.98 3.24 3.24 0 0 0 .22 4.98c3.67 2.75 7.75 6.98 7.96 10.18.2 2.97-.85 5.44-2.96 6.29a6 6 0 0 1-3.89-.07c-6.16-2.14-12.73-5.02-27.78-5.42l-.21-.02c-8.05-.76-16.86-1.87-20.44-11.4a21 21 0 0 1-.9-10.93q.26-1.39.56-2.82c1.27-5.95-.65-11.07-7.33-12.8l-3.4-.89C3.97 114.11-.37 106.57.02 97.16a16 16 0 0 1 2.88-8.64 18 18 0 0 1 6.8-5.71c11.9-4.6 30.52-3.89 46.67-2.35" class="d"/><path d="M135.47 133c-6.62 2.23-13.39 4.98-19.02 9.2-5.36 4-8.93 9.7-11.56 15.8a170 170 0 0 0-9.45 30.96c-2.95 13.5-5.43 27.31-6.21 41.14a84 84 0 0 0 .78 17.73 35 35 0 0 0 1.84 7.58 30 30 0 0 0 4.65 7.84c7.97 9.66 24.1 11.77 34.13 4.12a23 23 0 0 0 3.65-3.47 2.47 2.47 0 0 0 0-3.4 2.4 2.4 0 0 0-3.4 0 18.6 18.6 0 0 1-14.51 6.7c-5.45 0-11.16-1.84-15.04-5.76-3.71-3.74-5.55-8.35-6.45-13.45a75 75 0 0 1-.95-15.83c.5-13.01 2.8-26.02 5.45-38.75a215 215 0 0 1 8-28.72c2.2-6.16 5.09-12.7 10.04-17.15 5.35-4.8 12.61-7.65 19.32-9.91 2.92-.98 1.67-5.62-1.27-4.63m82.58 5.05a33 33 0 0 1 2.92 5.14 13 13 0 0 1 1.27 3.48v-1.27q.98-1.37.5-.92.59-.44.28-.22l-.44.28q-.58.33-1.15.63-1.83.96-3.69 1.86l-7.4 3.56a2.42 2.42 0 0 0-.48 3.77q2.76 2.96 5.5 5.96c.92 1.02 1.88 2.04 2.75 3.12a1.8 1.8 0 0 1 .51 2.09 46 46 0 0 1-2.46 4.3q-1.48 2.54-3 5.05-7.5 12.47-15.54 24.6-4.82 7.3-9.85 14.45a2.4 2.4 0 0 0 .86 3.29 2.45 2.45 0 0 0 3.29-.86 640 640 0 0 0 17.93-26.97q3.88-6.15 7.63-12.38 1.58-2.63 3.12-5.28a26 26 0 0 0 2.71-5.08c1.06-3.47-1.23-5.98-3.35-8.38-2.2-2.48-4.47-4.88-6.72-7.31l-.48 3.77c4-1.95 8.16-3.71 12.02-5.93a5 5 0 0 0 1.81-1.5c.64-1.06.24-2.29-.14-3.36a35 35 0 0 0-4.26-8.32 2.46 2.46 0 0 0-3.28-.86 2.4 2.4 0 0 0-.87 3.28Zm-74.73-3.94a261 261 0 0 0 7.7 41.14 324 324 0 0 0 8.5 27.5 237 237 0 0 0 7.77 18.37 2.4 2.4 0 0 0 3.29.86 2.46 2.46 0 0 0 .86-3.28 239 239 0 0 1-10.69-27.28 331 331 0 0 1-8.96-33.77 225 225 0 0 1-3.67-23.54 2.47 2.47 0 0 0-2.4-2.4 2.4 2.4 0 0 0-2.4 2.4" class="e"/><path d="M278.2 284.74a35.8 35.8 0 0 0 12.08-18.33 50 50 0 0 0 1.3-9.73 46 46 0 0 0-.07-7.79 290 290 0 0 0-8.9-45.3c-3.43-12.72-6.65-25.53-11.81-37.68a66 66 0 0 0-10.85-18.05 59 59 0 0 0-16.75-12.99 114 114 0 0 0-20.88-8.14c-.13-.04-1.08-.28-.6-.1l-.13-.07q-.4-.17-.78-.37l-2.71-1.29-6.05-2.88-1.14-.54a2.47 2.47 0 0 0-3.29.86 2.4 2.4 0 0 0 .86 3.29l9.77 4.64a56 56 0 0 0 6.92 2.36 112 112 0 0 1 9.87 3.65A62 62 0 0 1 252.39 147a53 53 0 0 1 11.87 16.06c5.62 11.33 8.88 23.7 12.13 35.87 2.11 7.91 4.31 15.8 6.01 23.81a323 323 0 0 1 3.66 20.98c1.65 11.4 1.38 24-6.58 33.16a37 37 0 0 1-4.67 4.46 2.4 2.4 0 0 0 0 3.39 2.46 2.46 0 0 0 3.4 0ZM154.1 152.4a72 72 0 0 0 24.93.17 71 71 0 0 0 22.6-7.08c2.74-1.43.32-5.58-2.42-4.14a62 62 0 0 1-20.63 6.47 87 87 0 0 1-11.6 1.05 60 60 0 0 1-11.6-1.1 2.46 2.46 0 0 0-2.95 1.68 2.4 2.4 0 0 0 1.67 2.95" class="e"/><path d="M131.74 174.17a105 105 0 0 1-4.58-13.13c-.64-2.35-.72-4.1-2.62-5.38-1.65-1.11-4.44-1.2-5.89.35a10.3 10.3 0 0 0-2.58 5.8 14 14 0 0 0-.05 3.6l-3.57-12.25a4.3 4.3 0 0 0-1.08-3.32 3.4 3.4 0 0 0-1.54-.9 10 10 0 0 0-7.55 2.75 16 16 0 0 0-4.23 7.02l-1 3.28-2.7 10.66c.08 5.03-.2 8.65-.12 13.68a19 19 0 0 0 1.67 7.1 21 21 0 0 0 6.34 7.41c2.48 1.84 2.32 5.04 1.5 8.02q-.2.71-.47 1.48a6.3 6.3 0 0 0 1.74 6.82c3.93 3.53 8.55 4.03 14.2 3.3a31 31 0 0 0 5.98-1.17 8.3 8.3 0 0 0 4.57-5.49c.65-2.09.52-4.1.68-6.55.23-3.28.01-5.45 1.24-8.5.81-2.02 2.05-3.86 2.78-5.91 2.2-6.1-.28-12.78-2.73-18.78" class="a"/><path d="M204.03 122.92c-2 8.59-4.92 16.89-7.74 25.23-2.1 6.17-4.17 12.35-6.43 18.46a1028 1028 0 0 1-20.79 51.64 2.47 2.47 0 0 0 .87 3.28 2.4 2.4 0 0 0 3.28-.86 777 777 0 0 0 12.6-30.25 670 670 0 0 0 14.08-37.94c3.1-9.38 6.53-18.65 8.77-28.28.7-3.01-3.93-4.3-4.63-1.28ZM91.94 172.65c.13 8.21-1.59 17.11 3.3 24.33A22 22 0 0 0 99 201.3c1.2 1.05 2.67 1.74 2.86 3.46.2 1.85-.53 3.57-1.02 5.3a9 9 0 0 0 .64 6.37c1.7 3.43 5.9 5.64 9.52 6.33a33 33 0 0 0 12.06-.45 10.3 10.3 0 0 0 8.72-7.05c1.53-3.93.84-8.41 1.32-12.53a19 19 0 0 1 2.37-6.29 19 19 0 0 0 2.2-7.49c.39-5.37-1.63-10.64-3.62-15.52a2.5 2.5 0 0 0-2.96-1.68 2.4 2.4 0 0 0-1.67 2.95c1.59 3.9 3.3 8.01 3.47 12.27a13 13 0 0 1-.94 5.76c-.81 1.9-1.92 3.66-2.66 5.6-1.4 3.6-1.2 7.72-1.37 11.52-.13 2.87-1.06 6.44-3.97 7.33a29 29 0 0 1-10.36 1.12c-2.7-.2-6.42-1.4-7.8-3.96-.85-1.57-.32-2.9.15-4.48a15 15 0 0 0 .7-5.26 7.8 7.8 0 0 0-2.17-4.99c-1.24-1.24-2.73-2.17-3.91-3.51a15.4 15.4 0 0 1-3.93-9.51c-.22-4.64.17-9.3.1-13.94-.04-3.08-4.84-3.1-4.8 0Z" class="e"/><path d="M97.84 178.01a62 62 0 0 1 14.97-1.33c2.02.01 3.72.21 4.89 1.62.65.78 1.43 1.9.98 2.86a3 3 0 0 1-1.14 1.05q-1.08.7-2.09 1.5a2.4 2.4 0 0 0 0 3.4 2.46 2.46 0 0 0 3.4 0 23 23 0 0 0 3.2-2.45 6.3 6.3 0 0 0 1.45-5.13 9.5 9.5 0 0 0-4.83-6.5 14 14 0 0 0-6.46-1.15q-3.5.04-7 .3a53 53 0 0 0-8.65 1.2c-3 .75-1.73 5.38 1.28 4.63" class="e"/><path d="M103.95 188.08c2.25-.6 4.49-1.33 6.8-1.71l.45-.07c-.04 0-.35.03-.07.01l.8-.07a13 13 0 0 1 1.68.01l.45.04c.29.03-.03 0-.07 0l.63.13c.48.06-.4-.2-.06-.04l.2.13c-.05.01-.42-.4-.2-.16l.3.31c.17.14-.19-.21-.18-.24l.14.22.22.4c.13.19-.1-.26-.1-.27l.1.33q.08.23.13.47c.03.12.1.65.06.25l.02.26.01.58-.03.51c-.03.55.1-.4 0 .01l-.28 1.02c-.05.23.1-.25.12-.26l-.12.25-.23.39c-.25.42.31-.28.03-.04-.22.18-.4.42-.6.63q-.55.54-1.15 1.04l-.28.24c.13-.12.27-.21.05-.05l-.59.43q-1.45 1-2.93 1.94a2.4 2.4 0 0 0 2.42 4.14 38 38 0 0 0 5.66-4.14 8 8 0 0 0 1.88-2.4 9 9 0 0 0 .83-3.27 8 8 0 0 0-1.66-5.69c-1.54-1.87-4.19-2.1-6.45-1.97a47 47 0 0 0-9.25 2.01 2.4 2.4 0 1 0 1.27 4.63m10.9-34.92c-.02-2.47-.88-4.82-3.16-6.05-2.33-1.27-5.42-.46-7.7.57-4.24 1.93-6.94 6.17-8.28 10.49l-.97 3.18a2.4 2.4 0 0 0 1.68 2.96 2.45 2.45 0 0 0 2.95-1.68l.94-3.1a15 15 0 0 1 .83-2.18 17 17 0 0 1 .84-1.55l.41-.63.3-.4q-.2.22.08-.11a14 14 0 0 1 1.2-1.27c.07-.07.71-.59.49-.42a9 9 0 0 1 1.5-.93l.45-.21q-.22.09.01 0a9 9 0 0 1 1.8-.5c-.4.07.35-.02.36-.02h1c0 .03-.9-.27-.23-.01l.26.16q-.33-.28-.05-.04l.26.27q-.23-.3 0 .02c.3.44-.05-.36.09.15.03.12.15.93.1.37q.04.47.04.93a2.4 2.4 0 0 0 4.8 0" class="e"/><path d="M82.99 172.34a3.2 3.2 0 0 0-1.16 4.38l1.57 2.68a3.2 3.2 0 0 0 4.38 1.15l3.76-2.23-4.8-8.2Z" class="d"/><path d="m130.2 152.97-2.68-4.58a2.1 2.1 0 0 0-2.88-.75l-11.05 6.55 4.8 8.2 11.05-6.55a2.1 2.1 0 0 0 .75-2.87" style="fill:#febe69"/><path d="m86.74 170.1 4.8 8.22 26.85-15.92-4.8-8.2Z" class="a"/><path d="m120.42 161.12-4.8-8.21a2.4 2.4 0 1 0-4.15 2.42l4.8 8.2a2.4 2.4 0 1 0 4.15-2.41" class="e"/><path d="m89 182.62 19.21-11.4c7.37-4.37 14.81-8.64 22.12-13.12a4.67 4.67 0 0 0 1.85-6.5q-.92-1.6-1.86-3.17a7 7 0 0 0-2.57-2.98c-2.97-1.55-6.3 1.29-8.76 2.74l-26.98 16-9.37 5.56a6.7 6.7 0 0 0-3.35 3.59 6.2 6.2 0 0 0 .84 5.22 14 14 0 0 0 2.22 3.32 5.7 5.7 0 0 0 6.64.74c2.75-1.42.32-5.56-2.42-4.15-.85.44-1.22-.5-1.58-1.11-.33-.56-1.23-1.6-1.21-2.27.02-.65.99-1.02 1.46-1.3l8.82-5.23 25.57-15.16 4.23-2.51c.38-.23 1.73-.73 1.93-1.15.05-.1.39.03-.2 0 .08 0-.12-.18-.14-.13s.21.36.24.41c.55 1.06 1.2 2.07 1.8 3.1.12.2.38.87.58.98.3.16-.2-.45.15-.32-.06-.02-.4.23-.45.27l-20.59 12.2c-6.74 4-13.56 7.9-20.25 12l-.36.22c-2.66 1.58-.24 5.73 2.42 4.15" class="e"/><path d="m84.69 171.34 4.8 8.21a2.4 2.4 0 0 0 4.14-2.42l-4.8-8.2a2.4 2.4 0 0 0-4.15 2.41Z" class="e"/><path d="M117.58 169.77a12.4 12.4 0 0 1-1.5-7.96 10.3 10.3 0 0 1 2.57-5.8c1.45-1.55 4.24-1.47 5.89-.36 1.9 1.28 1.98 3.03 2.62 5.38a91 91 0 0 0 4.57 13.02" class="a"/><path d="M119.21 167.63a16 16 0 0 1-.63-1.73l-.2-.82q-.06-.42 0 0l-.04-.46a12 12 0 0 1 .5-4.27 8 8 0 0 1 .95-1.93q.26-.36.56-.7.32-.3.07-.1l.41-.25c-.31.15.48-.12.59-.14-.39.06.5.01.6.02a3 3 0 0 1 1.02.3 1 1 0 0 1 .42.28l.33.35q-.2-.28.02.06.13.2.22.4l.02.05q.16.45.28.9c.43 1.6.82 3.2 1.3 4.8a110 110 0 0 0 3.8 10.41 2.5 2.5 0 0 0 2.95 1.68 2.4 2.4 0 0 0 1.68-2.96 112 112 0 0 1-3.54-9.58 74 74 0 0 1-1.31-4.63 11 11 0 0 0-1.37-3.68 7.5 7.5 0 0 0-7.94-2.98c-3.21.76-5.16 4.17-5.9 7.16a14.5 14.5 0 0 0 .58 9.1 2.5 2.5 0 0 0 2.95 1.67 2.4 2.4 0 0 0 1.68-2.95" class="e"/><path d="M126.39 117.04c-7.51-2.87-12.74-7.17-15.8-13.49-3.88-8.1-3.14-16.93-.99-25.65a736 736 0 0 1 8.68-32.27c4.63-15.26 8.35-23.28 16.6-31 7.34-6.16 22.32-13.23 39.8-12.1a64 64 0 0 1 25.07 6.5l1.25.82 5.79 3.79c9.15 4.89 14.68 14.6 17.24 20.82 3.43 8.32 3.66 20.34 5.05 29.79 1.65 11.22 3.64 18.95 4.74 28.39a29.8 29.8 0 0 1-5.22 20.18c-6.15 8.83-16.18 13.52-29.56 12.08Z" style="fill:#85807f"/><path d="M178.24 128.27a69 69 0 0 1-14.43 3.84 52 52 0 0 1-5.2.35c-11.1.22-20.03-3.31-28.16-10.96-7.76-7.3-10.6-18.15-11.08-29.97-.28-7.16-.42-14.97-.94-22.76a183 183 0 0 0 25.71-9.37c14.27-6.45 20.65-11.42 29.61-21.06 6.4 8.18 15.93 23.07 20.86 35.36l1.43 1.96 15.1 3.66a7.5 7.5 0 0 1 5.47-.81c3.65.82 4.86 3 5.32 4.24 1.37 3.7.14 9.78-1.93 13.3a19.6 19.6 0 0 1-7.97 8.17 14 14 0 0 1-7.78 1.05l-.65 1.14a61 61 0 0 1-3.17 4.65 63 63 0 0 1-7.54 8.2 60 60 0 0 1-14.65 9.02" class="a"/><path d="M165 84.87c-.49-2.44.55-7.82 5.08-7.82 5.91.65 5.54 7.26 3.23 10.14-1.9 2.36-6.8 2.91-8.32-2.32m-35.26-2.56c-.42-2.44.56-7.85 4.71-7.87 5.42.61 5.04 7.24 2.9 10.15-1.75 2.38-6.25 2.96-7.6-2.28m17.8 6.92a51 51 0 0 0-2.43 3.81 5 5 0 0 0-.76 2.25 3.3 3.3 0 0 0 1.11 2.58 5 5 0 0 0 1.95 1.15c.28.09.58.11.86.17a2.5 2.5 0 0 0 1.85-.24 2.4 2.4 0 0 0-.57-4.38 6 6 0 0 1-1.08-.26l.57.25a3 3 0 0 1-.44-.27l.49.38a4 4 0 0 1-.47-.45l.37.48-.1-.15.24.58-.07-.25.09.63v-.27l-.08.64.14-.46-.24.57a18 18 0 0 1 1.35-2.29q.67-1.03 1.36-2.05a2.4 2.4 0 0 0-2.7-3.52 2.7 2.7 0 0 0-1.44 1.1m64.82-7.84a5.9 5.9 0 0 1 6.02.43l.39.34.33.36q.19.26.35.55c.04.08.3.6.16.3s.12.34.15.45a8 8 0 0 1 .26 1.1 13 13 0 0 1-.11 4.1c-.9 5.34-4.24 10.82-9.25 13.2.42-.2-.22.08-.37.13q-.44.16-.92.27a12 12 0 0 1-1.89.35 8 8 0 0 1-4.54-.67c-2.71-1.49-5.14 2.66-2.42 4.15 3.33 1.83 7.63 1.73 11.17.49a19 19 0 0 0 8.78-7.15 23 23 0 0 0 4.13-9.88c.52-3.36.57-7.23-1.56-10.1a10.34 10.34 0 0 0-13.1-2.57c-2.68 1.53-.27 5.68 2.42 4.15" class="e"/><path d="M179.45 130.35c10.75-4.7 20.29-12.5 26.22-22.73 1.56-2.68-2.59-5.1-4.14-2.42a46 46 0 0 1-4.17 5.87 54 54 0 0 1-6.39 6.67l-.65.54-.4.32c-.4.32.25-.19-.16.13q-1.56 1.18-3.19 2.26a62 62 0 0 1-9.54 5.21 2.4 2.4 0 0 0-.86 3.29 2.46 2.46 0 0 0 3.29.86Z" class="e"/><path d="M116.1 69.9c.5 8.16.42 16.37 1.04 24.53.52 6.84 1.88 13.68 5 19.84 6.11 12.08 19.38 19.67 32.66 20.51 8.26.52 16.39-1.29 24.08-4.2a2.47 2.47 0 0 0 1.68-2.95 2.4 2.4 0 0 0-2.95-1.67 56 56 0 0 1-20.01 4.11 35.6 35.6 0 0 1-17.49-4.36 34 34 0 0 1-13.04-12.4c-3.05-5.36-4.46-11.56-5.02-17.66-.8-8.54-.62-17.18-1.15-25.75-.18-3.07-4.98-3.09-4.8 0" class="e"/><path d="M172.05 36.64a81 81 0 0 1-15.99 13.81 128 128 0 0 1-23.38 11.12c-4.53 1.7-9.14 3.15-13.77 4.55-2.95.9-1.7 5.53 1.28 4.63a204 204 0 0 0 25.98-9.65 88 88 0 0 0 20.22-12.28 103 103 0 0 0 9.06-8.79c2.1-2.25-1.28-5.66-3.4-3.39" class="e"/><path d="M172.05 40.03a161 161 0 0 1 10.6 15.65 132 132 0 0 1 9.64 18.65 2.5 2.5 0 0 0 2.95 1.68 2.4 2.4 0 0 0 1.68-2.96 154 154 0 0 0-21.47-36.41 2.4 2.4 0 0 0-3.4 0 2.46 2.46 0 0 0 0 3.4" class="e"/><path d="M127.02 114.72c-5.05-1.95-9.8-5.01-12.8-9.62-3.61-5.55-4.42-12.16-3.76-18.62.69-6.82 2.85-13.57 4.58-20.18a558 558 0 0 1 5.44-19.64c3-9.97 6.43-20.18 13.65-27.9a38 38 0 0 1 11.35-8.04 59 59 0 0 1 16.66-5.23 61 61 0 0 1 22.11.7c5.28 1.1 11 2.76 15.55 5.74 2.6 1.7 5-2.46 2.43-4.15a36 36 0 0 0-6.24-3.03 61 61 0 0 0-8.39-2.72A68 68 0 0 0 166.18.2a64 64 0 0 0-19.32 4.67 49 49 0 0 0-13.67 8.05c-8.38 7.37-12.72 17.93-16.05 28.3a416 416 0 0 0-5.93 20.74c-1.84 6.98-4 14.03-5.12 21.17-1.26 8.11-.77 16.63 3.6 23.8 3.7 6.05 9.56 9.92 16.06 12.43a2.4 2.4 0 0 0 2.95-1.68 2.46 2.46 0 0 0-1.68-2.95Zm81.4-97.27c6.37 4.5 11.32 11.98 13.83 19.01 3.13 8.75 3.14 18.35 4.39 27.47 1.28 9.34 3.54 18.53 4.69 27.9a28 28 0 0 1-7.9 23.43c-6.5 6.43-15.55 8.15-24.38 7.24a2.4 2.4 0 0 0-2.4 2.4 2.45 2.45 0 0 0 2.4 2.4c8.93.93 18.05-.8 25.23-6.41a32.4 32.4 0 0 0 12.11-24.26c.15-4.75-.87-9.6-1.7-14.27-.88-5-1.88-9.97-2.7-14.98-1.6-9.83-1.63-20.05-4.31-29.68a45.5 45.5 0 0 0-16.83-24.4 2.4 2.4 0 0 0-3.29.86 2.45 2.45 0 0 0 .86 3.29" class="e"/><path d="M206.25 105.45a4.4 4.4 0 0 0-4.75 4.17c-.04 2.56 1.9 4.34 4.63 4.38 2.84.04 4.71-1.71 4.75-4.25a4.4 4.4 0 0 0-4.63-4.3" class="a"/><path d="M206.25 103.05a7.1 7.1 0 0 0-6.81 4.58 6.5 6.5 0 0 0-.07 4 6.7 6.7 0 0 0 2.54 3.49 7.9 7.9 0 0 0 7.93.42 6.6 6.6 0 0 0 3.31-7.07c-.53-3.3-3.74-5.34-6.9-5.42a2.4 2.4 0 0 0-2.4 2.4 2.45 2.45 0 0 0 2.4 2.4l.42.02c.4.02-.2-.01-.23-.03a5 5 0 0 0 .64.15l.36.12c-.45-.07-.42-.2-.23-.1l.64.37c.37.23-.36-.34-.16-.12l.22.2c.18.17.47.67.09.03q.17.23.3.48l.14.26c.08.13-.22-.62-.06-.1.04.12.18.45.13.56 0 .02-.05-.68-.04-.29v.6c-.02.26-.16.48.03-.16-.06.2-.08.42-.15.62q-.04.14-.1.27c.18-.62.2-.41.1-.22l-.3.47c-.13.25.44-.49.15-.18l-.15.16-.23.23c-.3.3.49-.33.13-.1l-.48.29c-.21.1-.47.1.15-.05l-.22.08-.6.16c-.23.05-.51-.02.14 0l-.4.03h-.68l-.27-.02c.55-.06.41.07.13.01l-.6-.15-.23-.08c-.4-.13.58.29.03 0-.12-.06-.44-.19-.5-.3 0-.01.5.42.22.17l-.25-.23c-.08-.08-.46-.54-.18-.18s.04.04 0-.03l-.17-.3c-.12-.23-.07-.43.06.16l-.08-.22c-.06-.18-.07-.39-.14-.57.2.58.05.44.03.16v-.62c0-.43-.13.6-.02.18.05-.22.14-.44.18-.66-.1.52-.2.45-.1.26l.21-.4.13-.2c.23-.35-.43.46-.05.09l.46-.44c-.4.45-.3.23-.1.1l.32-.2.27-.13-.28.12.23-.08c.24-.08.54-.09.77-.19-.04.02-.63.05-.24.04l.56-.02a2.4 2.4 0 1 0 0-4.8Zm-56.28 8.6c.17-.23.53-.77.83-.87q-.37.27-.15.12l.21-.15.53-.3c.55-.28-.33.09.13-.07l.5-.17q.6-.17 1.2-.28c.5-.1-.47.04.08-.01l.52-.04a12 12 0 0 1 1.36-.02q.3 0 .61.05c-.56-.07.05.03.17.06l.4.11-.1-.04c.12-.01.37.18.46.24.13.08.59.26.08.02a2 2 0 0 1 .44.41l.18.2q.25.3-.06-.09s.27.42.28.44l.16.3-.1-.25c.12.14.14.51.2.69.14.47 0-.44.01.1v.56c0 .49.11-.43-.03.19a2 2 0 0 1-.18.63l.07-.15-.13.25a2 2 0 0 1-.3.48q.3-.36.04-.06l-.25.25c-.32.34.35-.18-.09.06l-.23.14q-.24.12.17-.07l-.34.1q.52-.05.11-.02a2.4 2.4 0 1 0 0 4.8 6.1 6.1 0 0 0 5.16-3.5 7.6 7.6 0 0 0 .1-6.46 7.4 7.4 0 0 0-4.3-3.81 12 12 0 0 0-5.93-.15 8.6 8.6 0 0 0-5.2 2.9 2.6 2.6 0 0 0-.7 1.7 2.5 2.5 0 0 0 .7 1.7c.86.8 2.57 1.07 3.4 0Zm81.45 100.16 8.05 29.47c.81 2.97 5.45 1.71 4.63-1.28l-8.05-29.46c-.81-2.98-5.45-1.72-4.63 1.27" class="e"/></svg>
