<svg xmlns="http://www.w3.org/2000/svg" viewBox="-138.57 0 442.537 442.537"><defs><style>.a{fill:#fff}.c{fill:#211715}.d{fill:#b3b3b3}</style></defs><path d="M85.68 128.27a443 443 0 0 1-8.99-32.62c-.05.13 5.58 9.33 9.3 11.72 1.11-1.49 5.74-7.91 7.95-10.4h1.93c2.21 2.49 6.84 8.91 7.96 10.4 3.72-2.39 9.34-11.6 9.3-11.72a441 441 0 0 1-9.86 35.31c-3.12 9.6-4.04 12.53-8.37 23.1-4.31-10.57-5.23-13.5-8.36-23.1z" class="a"/><path d="M123.03 63.97a30 30 0 0 1-1.86 5.68c-.97 2.64-6.34 11.89-13.14 15.5q.15 1.94.5 3.89c.36 2.03.25 3.84 3.08 4.87.18.07 8.2 3.88 8.49 4 0 0-6.63 15.18-27.9 15.18S68.98 98.34 68.98 98.34c.55-.18 9.5-4.37 9.68-4.43 2.82-1.02 2.7-2.84 3.07-4.87.2-1.18.36-2.27.46-3.4a25 25 0 0 1-9.16-7.32 34 34 0 0 1-6.5-12.24 4.9 4.9 0 0 1-4.13-1.04 13.6 13.6 0 0 1-3.99-6.47c-.85-2.51-.9-6.59.37-8.8a4.2 4.2 0 0 1 3.74-2.08 4.5 4.5 0 0 1 3.26 1.2s-3.4-27.31 28.76-27.31c35.53 0 28.77 27.3 28.77 27.3a4.5 4.5 0 0 1 3.25-1.19 4.2 4.2 0 0 1 3.75 2.09c1.27 2.2 1.22 6.27.36 8.8a13.6 13.6 0 0 1-3.98 6.46 5 5 0 0 1-3.83 1.1" class="a"/><path d="M117.9 433.53c-2.9-2.4-5.7-4.78-9-7.22-1.63-1.2-3.67-2.04-5.22-3.35a9 9 0 0 1-2.1-2.8c-1.83-3.49-1.66-10-.97-13.87l.2-1.1c4.53.52 10.18.78 14.21.82a54 54 0 0 0 9.75-.95l1.8 2.82c1.3 1.46 3.72 4.37 5.13 5.73 4.2 4.05 5.7 5.97 8.76 9.36 2.34 2.6 4.4 7.81 3.8 11.48-.45 2.82-3.17 4.37-5.82 5.46a21 21 0 0 1-7.72.4 21 21 0 0 1-9.09-3.82q-1.93-1.47-3.72-2.96m-44.45-.2c2.9-2.28 5.63-4.58 9.84-6.25 2.15-.86 4.4-1.18 6.05-2.8a8.7 8.7 0 0 0 2.05-4.1 33.5 33.5 0 0 0 .13-13.56s-.12-.57-.3-1.51a146 146 0 0 1-14.97.9 55 55 0 0 1-10.7-1.13l-3.1 4.93-13.68 15.27c-6.73 6.9-4.42 13.88 3.38 15.14a21.4 21.4 0 0 0 12.1-1.82 30 30 0 0 0 6.77-3.25q1.26-.9 2.43-1.83" style="fill:#7a7473"/><path d="M123.03 406.07c2.64 4.9 7.15 8.66 10.9 12.65 3.82 4.04 9.07 8.94 8.4 15.1-.26 2.4-3.2 4-5.37 4.41a18 18 0 0 1-8.43-.5c-3.64-1.08-6.41-3.32-9.3-5.7-3.17-2.6-6.28-5.35-9.66-7.69-1.59-1.1-3.53-1.82-4.9-3.2a8.5 8.5 0 0 1-2.1-4.19 27 27 0 0 1-.03-10.13 2.06 2.06 0 0 0-1.4-2.46 2 2 0 0 0-2.46 1.4c-1.18 6.76-1.24 15.56 5.14 19.77 1.75 1.16 3.57 2.11 5.24 3.4q2.65 2.04 5.23 4.2c3.24 2.68 6.44 5.73 10.35 7.42 6.01 2.6 14.4 3.25 19.45-1.76 2.73-2.7 2.6-6.65 1.58-10.1-1.05-3.6-3.06-6.27-5.5-9.02-2.49-2.81-5.14-5.43-7.74-8.15a36 36 0 0 1-5.95-7.47c-1.22-2.26-4.67-.25-3.45 2.02m-33.44 1.08a32 32 0 0 1 .04 11.54 8 8 0 0 1-1.48 3.93c-1.03 1.25-2.79 1.62-4.25 2.12a31 31 0 0 0-8.58 4.62c-2.6 1.94-5.03 4.18-7.98 5.61-3.26 1.59-6.97 3.12-10.61 3.42-2.7.22-6 .06-8.21-1.74-5.04-4.12 1.82-10.2 4.54-13.24 2.92-3.27 5.78-6.58 8.7-9.85a40 40 0 0 0 5.32-7.67c1.23-2.26-2.22-4.28-3.45-2.02a39 39 0 0 1-5.16 7.39c-2.87 3.2-5.67 6.47-8.55 9.67-2.6 2.9-5.6 5.55-6.71 9.42a8.9 8.9 0 0 0 1.6 8.22c2.14 2.57 5.51 3.54 8.72 3.81 4.36.38 8.3-.9 12.29-2.45a31 31 0 0 0 5.67-2.69c1.47-.95 2.83-2.08 4.21-3.16a32 32 0 0 1 9.07-5.42c2.01-.7 4.06-1.27 5.69-2.7a10 10 0 0 0 2.82-5.09 36 36 0 0 0 .17-14.78c-.5-2.53-4.35-1.46-3.86 1.06" class="c"/><path d="M95.74 211.71a.71.71 0 0 0-1.4.04 91 91 0 0 1-2 9.78 18 18 0 0 1-6.8 9.5c-2.34 1.74-7.07 3.63-12.44 4.46a107 107 0 0 1-19.07.7l.5 13c2.21 53.84 3.4 102.32 5.5 154.33a59 59 0 0 0 16.17 2.5c5.85-.06 15.12-.58 19.4-1.68 4.27 1.1 13.52 1.62 19.37 1.68a59 59 0 0 0 16.15-2.5c2.11-51.88 3.28-100.24 5.5-153.92l.52-13.78v-.14c-7.13.43-16.33.73-21.7-.14-4.81-.79-8.1-1.7-11.14-4.25a19.4 19.4 0 0 1-6.42-9.35 99 99 0 0 1-2.14-10.23" class="d"/><path d="M95.06 406.27c5.6 1.4 11.65 1.54 17.4 1.7a60 60 0 0 0 19.2-2.52 2.1 2.1 0 0 0 1.47-1.93c1-24.95 1.83-49.91 2.66-74.87.83-25.36 1.68-50.72 2.7-76.06q.35-8.4.65-16.77c.1-2.58-3.9-2.57-4 0-.64 16.89-1.33 33.77-1.93 50.66-.88 24.93-1.66 49.85-2.51 74.77q-.73 21.14-1.57 42.27l1.46-1.93a56 56 0 0 1-18.13 2.38c-5.4-.15-11.08-.24-16.34-1.56-2.5-.63-3.56 3.23-1.06 3.85Z" class="c"/><path d="M95.05 402.41c-5.26 1.32-10.94 1.4-16.34 1.55a56 56 0 0 1-18.14-2.37l1.47 1.93c-1-24.86-1.83-49.73-2.65-74.6a10086 10086 0 0 0-2.7-75.75q-.35-8.68-.67-17.35c-.1-2.57-4.1-2.58-4 0 .65 16.99 1.34 33.98 1.94 50.97.88 24.82 1.66 49.66 2.51 74.48q.73 21.13 1.57 42.25a2.1 2.1 0 0 0 1.47 1.93 60 60 0 0 0 19.2 2.51c5.75-.15 11.8-.29 17.4-1.7 2.5-.62 1.44-4.48-1.06-3.85" class="c"/><path d="M93.58 257.94V404.2c0 2.57 4 2.57 4 0V257.94c0-2.58-4-2.58-4 0m27.52-194.5a29 29 0 0 1-1.31 4.37c-.2.5-.36.84-.58 1.4-.2.51.13-.27-.04.1l-.19.4a37 37 0 0 1-3.2 5.32c-2.78 3.95-6.6 8.26-11.49 9.4-2.5.6-1.44 4.45 1.06 3.86 5.78-1.35 10.23-6.18 13.58-10.8a38 38 0 0 0 3.47-5.7q.31-.64.58-1.3l.08-.18.44-1.05a29 29 0 0 0 1.46-4.75c.52-2.52-3.33-3.59-3.86-1.07m-57.07.96C66.5 75.28 74.7 87.15 86.46 88.92a2.06 2.06 0 0 0 2.46-1.4 2 2 0 0 0-1.4-2.46C77.05 83.5 70.09 73 67.88 63.34c-.57-2.51-4.43-1.45-3.85 1.06m24.9 9.24a12 12 0 0 0 5.9 1.38 9.7 9.7 0 0 0 6.08-1.84 2 2 0 0 0 0-2.83 2.06 2.06 0 0 0-2.83 0c.7-.53-.03 0-.25.12-.17.08-.63.23 0 .02l-.48.17q-.3.1-.63.17a5 5 0 0 0-.72.14c.2-.1.32-.04.01-.01a10 10 0 0 1-1.36.06 12 12 0 0 1-1.25-.06l-.22-.03.18.02c-.12.06-.52-.09-.65-.12q-.3-.06-.61-.15l-.53-.18c-.45-.16.42.2 0 0l-.64-.31a2 2 0 1 0-2.01 3.45Zm4.65-13.62a27 27 0 0 1 .62 2.85l-.07-.53a2 2 0 0 1 .01.4l.07-.54-.04.18.2-.48-.06.12.3-.4-.08.08.4-.3-.23.11.48-.2-.38.11.53-.07h-.35l.53.07-.4-.07a1.5 1.5 0 0 0-.8-.03 1.5 1.5 0 0 0-.75.23 2 2 0 0 0-.71 2.74 2 2 0 0 0 1.2.92c.35.05.7.14 1.06.15a3.5 3.5 0 0 0 1.62-.4 2.5 2.5 0 0 0 1.32-1.6 4 4 0 0 0 0-1.67q-.26-1.38-.6-2.73a2 2 0 0 0-.93-1.2 2 2 0 0 0-2.73.72 2 2 0 0 0-.2 1.54ZM79 51.8c-.47 1.55-.16 5.1 2.77 5.41 3.88-.02 4.08-4.33 2.78-6.35-1.07-1.66-4.21-2.35-5.55.94m31.04 0c.48 1.55.17 5.1-2.76 5.41-3.88-.02-4.09-4.33-2.78-6.35 1.07-1.66 4.2-2.35 5.54.94" class="c"/><path d="M120.06 44.14a24 24 0 0 0-2.87-6.63c-2.46-3.34-3.4-4.33-8.3-5.46l-16.57-2.49a59 59 0 0 0-11.38-.37 8 8 0 0 0-4.3 1.5c-1.58 1.32-2.12 3.5-3.05 5.38-1.6 3.24-5.37 4.91-5.97 8.55a49 49 0 0 0-.56 5.16l-1.29-.9a4.5 4.5 0 0 0-3.25-1.19 5 5 0 0 0-1.71.33 45 45 0 0 1-1.4-11.38c-.24-8.48 2.95-17.03 6.95-20.94a32 32 0 0 1 6.16-6.42 35.4 35.4 0 0 1 21.89-7.2c7.8 0 15.71 1.84 21.67 8.48l4.6 4.08a26 26 0 0 1 4.94 5.8c2.33 3.86 3.56 8.71 3.88 16.2a37 37 0 0 1-1.36 11.34 5 5 0 0 0-1.59-.29 4.5 4.5 0 0 0-3.25 1.2Z" style="fill:#85807f"/><path d="M67.18 47.47a6.9 6.9 0 0 0-7.52-1.12 6.6 6.6 0 0 0-3.43 4.42 16.5 16.5 0 0 0 2.4 13.02c1.69 2.51 4.36 4.77 7.59 4.35a2.07 2.07 0 0 0 2-2 2 2 0 0 0-2-2c-2.28.3-3.77-1.58-4.76-3.4a13 13 0 0 1-1.62-5.03 8.6 8.6 0 0 1 .87-5.25c-.32.5.51-.45.23-.25a2 2 0 0 1 .97-.44 2.7 2.7 0 0 1 2.45.53c1.91 1.7 4.75-1.11 2.83-2.83Zm57.53 2.83a2.7 2.7 0 0 1 2.32-.55 2 2 0 0 1 1.1.47c-.28-.2.54.73.24.24a5 5 0 0 1 .78 2.12 12 12 0 0 1 .08 3.13 13 13 0 0 1-1.62 5.03c-.98 1.82-2.48 3.7-4.75 3.4a2 2 0 0 0-2 2 2.05 2.05 0 0 0 2 2c5.26.7 8.5-5 9.8-9.25 1.18-3.82 1.14-9.74-2.6-12.18a6.9 6.9 0 0 0-8.17.76c-1.93 1.72.9 4.54 2.83 2.83Z" class="c"/><path d="M117.5 9.14c-8.4-9.2-22.52-10.9-34.05-7.56a36.6 36.6 0 0 0-24.4 23.33 44 44 0 0 0-.29 23.21c.63 2.5 4.49 1.44 3.86-1.06a40.5 40.5 0 0 1-.38-18.63 29 29 0 0 1 2.9-7.75 36 36 0 0 1 4.45-5.86c7.33-8.33 18.46-11.66 29.34-10.5a24.4 24.4 0 0 1 15.73 7.65c1.74 1.9 4.56-.93 2.83-2.83m12.66 38.98a45 45 0 0 0 0-21.77 26.3 26.3 0 0 0-8.08-13.13c-1.9-1.72-4.74 1.1-2.83 2.83a22.5 22.5 0 0 1 7.06 11.36 41 41 0 0 1 0 19.65c-.61 2.5 3.24 3.56 3.85 1.06" class="c"/><path d="M92.85 27.63a51 51 0 0 0-9.73-.56c-3.63.08-7.27.68-9.37 3.97-.98 1.54-1.38 3.37-2.4 4.9a37 37 0 0 1-3.2 3.57 10 10 0 0 0-2.46 4.58 57 57 0 0 0-.69 6.33c-.2 2.57 3.8 2.55 4 0a46 46 0 0 1 .54-5.27 6.6 6.6 0 0 1 1.87-3.3 39 39 0 0 0 3.11-3.49 29 29 0 0 0 2.15-4.34 4.4 4.4 0 0 1 3.27-2.67 18 18 0 0 1 3.78-.29 47 47 0 0 1 8.06.43 2.06 2.06 0 0 0 2.46-1.4 2 2 0 0 0-1.4-2.46Zm15.52 6.35q1.2.27 2.39.64a3 3 0 0 1 .94.35l-.17-.08.18.08.44.22q.34.18.66.4a1 1 0 0 1 .32.22c-.25-.37-.2-.17-.04-.03a13 13 0 0 1 1.17 1.18l.59.73c-.33-.41 0-.01.04.06l.33.43a12 12 0 0 1 1.03 1.62q.27.52.51 1.04l.15.33-.02-.04.25.63q.55 1.44 1 2.91a2 2 0 0 0 3.86-1.06 34 34 0 0 0-2.29-5.83 20 20 0 0 0-2.62-3.65 10 10 0 0 0-2.92-2.4 19 19 0 0 0-4.74-1.6 2 2 0 1 0-1.06 3.85m-4.55-4.29a9.5 9.5 0 0 0-3.58-4.94 18 18 0 0 0-8.93-3.51 2 2 0 0 0-2 2 2.06 2.06 0 0 0 2 2c-.45-.06.18.03.27.05l.6.1q.49.1.98.24.54.15 1.07.33c.15.05.8.18.87.32l-.07-.03.13.06.46.22q.4.2.8.43s.5.3.73.45l.37.26c.13.1.33.36 0-.02.32.37.77.65 1.11 1q.23.23.43.47l.23.27c.1.11-.31-.44-.05-.06a8 8 0 0 1 .58.97l.1.2c-.3-.51-.14-.38-.09-.2q.08.23.13.45a2 2 0 0 0 2.47 1.4 2.04 2.04 0 0 0 1.4-2.46ZM69.5 100.27c.9-.31 1.77-.76 2.63-1.16q2-.91 3.98-1.84l3.13-1.45.33-.15-.16.07c-.52.22-.06.03.07-.02q.4-.14.76-.33a5.6 5.6 0 0 0 2.47-2.28 9 9 0 0 0 .84-2.94c.23-1.5.5-3 .63-4.53a2 2 0 0 0-2-2 2.05 2.05 0 0 0-2 2 38 38 0 0 1-.92 5.49c-.06.25.19-.3.03-.1l-.14.24c-.22.4.17-.1-.08.1l-.22.22c.22-.25.14-.09.02-.01l-.3.18-.3.16c-.14.07-.7.29-1.02.44l-6.65 3.08q-.86.4-1.73.78l-.55.25c-.45.2.5-.18.12-.05a2.05 2.05 0 0 0-1.4 2.46 2 2 0 0 0 2.46 1.4Zm36.56-14.8q.21 2.14.57 4.24a17 17 0 0 0 .4 2.2 5.5 5.5 0 0 0 1.5 2.48 6 6 0 0 0 1.35.94 11 11 0 0 0 1 .43c.65.26-.46-.22-.21-.1 1.97 1.02 4.02 1.9 6.02 2.85.95.45 1.9.92 2.87 1.32a2 2 0 0 0 2.46-1.4 2.06 2.06 0 0 0-1.4-2.46c1 .42.06.01-.18-.1l-1.28-.6-3.48-1.65-2.7-1.27-.29-.14-.07-.03-.49-.2-.62-.32c-.05-.03-.34-.23-.12-.07.2.14 0 0-.03-.03-.15-.14-.4-.47-.15-.1l-.3-.5c-.12-.18.1.16.08.18l-.13-.36-.12-.5q-.12-.6-.2-1.21c-.2-1.32-.38-2.3-.5-3.6a2 2 0 1 0-4 0Z" class="c"/><path d="M95.52 152.57a239 239 0 0 0 7.08-19.54c-1.2-10.28-2.78-22.5-2.78-22.87a9 9 0 0 1 .3-1.92l.2-.86c.31-1.43.37-2.16.74-3.67l.02-.07c-1.76-2.38-3.9-5.2-5.2-6.67h-1.94c-1.3 1.46-3.42 4.27-5.18 6.64l.2.43a19 19 0 0 1 .9 2.93 12 12 0 0 1 .7 3.4c.01.6-1.66 12.2-3.2 23.1 2.37 7.28 3.5 10.63 6.93 19.1" style="fill:#3d8dcc"/><path d="M51.23 207.54c.8-8.93 1.63-17.7 2.45-24.33-2.59 5.08-8.94 7.98-13.88 7.11a19.2 19.2 0 0 1-12.4-8.06c-4.95-7.41-9.88-26.78-14.18-36.87l22-21.1c1.48-6.35 3.64-12.39 8.5-16.32a68 68 0 0 1 6.47-3.86c4.72-2.4 11.93-6 16.25-7.67l7.86-2.9q.9-.63 1.65-1.11a440 440 0 0 0 10.6 38.53c2.97 9.13 3.95 12.23 7.75 21.6h1.22c3.8-9.37 4.78-12.47 7.76-21.6a440 440 0 0 0 10.59-38.53q.65.4 1.39.92l3.64 1.4c4.4 1.7 15.61 5.47 20.42 7.91a53 53 0 0 1 5.7 3.52c4.87 3.93 7.44 9.31 8.79 15.69 4.02 19.13 6.72 30.03 9.12 45.77.62 6.08.63 11.34-.74 14.45-1.28 2.91-5.46 8.31-9.57 10.56-4.03 2.2-8.14 4.2-12.16 6l.97 10.75a863 863 0 0 1 2.27 24.57 1.25 1.25 0 0 1-1.16 1.35c-7.07.54-20.2 1.34-27.08.22-4.8-.78-8.09-1.7-11.13-4.25a19.4 19.4 0 0 1-6.43-9.34 99 99 0 0 1-2.12-10.2.71.71 0 0 0-1.41 0 91 91 0 0 1-2 9.78 18 18 0 0 1-6.8 9.5c-2.34 1.73-7.07 3.62-12.44 4.45a108 108 0 0 1-23.3.39 1.37 1.37 0 0 1-1.22-1.47 835 835 0 0 1 2.62-26.86" class="d"/><path d="M37.16 124.82a36 36 0 0 1 4.12-11.06 17 17 0 0 1 3.87-4.38c-.4.3.08-.04.16-.1l.83-.53q1-.62 2.04-1.22c2.8-1.64 5.7-3.06 8.61-4.5 3.35-1.64 6.7-3.3 10.18-4.66a2.06 2.06 0 0 0 1.4-2.46 2 2 0 0 0-2.46-1.4 167 167 0 0 0-16.93 7.97 53 53 0 0 0-5.85 3.46 20.5 20.5 0 0 0-5.96 6.93 43 43 0 0 0-3.87 10.88c-.59 2.5 3.27 3.58 3.86 1.07" class="c"/><path d="M86.63 151.96q-6.57-11.36-12.92-22.86-3.15-5.74-6.19-11.53l-1.47-2.83a6 6 0 0 1-.62-1.2q-.18.72.2.18l.62-.66a118 118 0 0 1 4.56-4.44 2.02 2.02 0 0 0-.4-3.14c-1.73-.99-3.57-1.89-5.21-3l.71.71-.16-.26.27 1.01c-.02.48.12-.06.24-.25l.49-.74a15 15 0 0 1 1.02-1.24 35 35 0 0 1 3-2.92 53 53 0 0 1 6.19-4.63l-2.94-1.2a443 443 0 0 0 13.95 48.63 255 255 0 0 0 4.4 11.51 2.06 2.06 0 0 0 2.46 1.4 2 2 0 0 0 1.4-2.46 376 376 0 0 1-14.73-45.35q-1.94-7.36-3.62-14.8a2.02 2.02 0 0 0-2.94-1.19 50 50 0 0 0-9.88 8.05c-1.16 1.27-3.02 3.2-3.04 5.05-.01 1.55 1.27 2.22 2.45 2.9l3.91 2.22-.4-3.14c-1.76 1.66-3.57 3.3-5.18 5.11a4.3 4.3 0 0 0-1.34 2.76 7 7 0 0 0 1.14 3.1q3.19 6.19 6.53 12.3c4.56 8.37 9.28 16.67 14.05 24.93 1.29 2.23 4.75.22 3.46-2.02Zm12.77-44.9c-2.85 0-5.7-.07-8.56-.07a2 2 0 0 0 0 4c2.86 0 5.7.06 8.56.06a2 2 0 0 0 0-4" class="c"/><path d="M99.12 103.18c-.33 1.43-.56 2.88-.88 4.31a10 10 0 0 0-.4 2.98c.12 1.55.38 3.1.58 4.64q1.13 8.98 2.19 17.95a2.06 2.06 0 0 0 2 2 2 2 0 0 0 2-2q-1.05-8.82-2.16-17.64l-.58-4.75a6 6 0 0 1 .17-1.9c.33-1.5.59-3.03.94-4.53.59-2.5-3.27-3.57-3.86-1.06" class="c"/><path d="M81.63 87.32c-1.26 1.41-2.82 3.48-4.05 4.91a3.9 3.9 0 0 0-.85 3.5c.47.96 5.72 9.37 9.26 11.64 1.11-1.49 5.74-7.91 7.95-10.4a1387 1387 0 0 1-12.3-9.65m26.55 0c1.27 1.41 2.82 3.48 4.06 4.91a4 4 0 0 1 .85 3.5c-.48.96-5.73 9.37-9.26 11.64-1.12-1.49-5.74-7.91-7.96-10.4.83-.59 11.78-9.22 12.31-9.65" class="a"/><path d="M89.37 133.47q1.29-9.05 2.56-18.11c.21-1.55.51-3.13.61-4.7a10 10 0 0 0-.39-2.96 32 32 0 0 0-1.47-4.67 2 2 0 0 0-2.74-.72 2.05 2.05 0 0 0-.72 2.74 24 24 0 0 1 1.18 4.14 5 5 0 0 1 .12 1.68c-.14 1.54-.36 2.82-.58 4.37l-2.43 17.17a2.07 2.07 0 0 0 1.4 2.46 2 2 0 0 0 2.46-1.4" class="c"/><path d="M80.22 85.9c-1.07 1.21-2.06 2.49-3.08 3.74a10 10 0 0 0-2.38 3.86c-.52 2.12.39 3.6 1.47 5.27q1.86 2.9 4 5.62a21 21 0 0 0 4.75 4.7 2.05 2.05 0 0 0 2.73-.7c2.51-3.36 4.88-6.86 7.65-10a2.04 2.04 0 0 0-.4-3.15l-.74-.56c.54.41-.28-.22-.4-.32l-.75-.58L89 90.6q-3-2.33-5.96-4.7a2.06 2.06 0 0 0-2.83 0 2 2 0 0 0 0 2.83c4.18 3.37 8.35 6.84 12.72 9.97l-.41-3.14c-3 3.4-5.56 7.18-8.27 10.8l2.74-.72a11 11 0 0 1-1.71-1.5q-1-1.06-1.91-2.2a60 60 0 0 1-4.5-6.47q-.16-.26-.3-.53l-.1-.17c.12.5.12-.17.13-.18a5 5 0 0 1 .57-1.16q.58-.74 1.2-1.47c.88-1.08 1.74-2.18 2.67-3.23 1.7-1.92-1.12-4.76-2.83-2.83m26.42 68.08c4.77-8.26 9.49-16.56 14.05-24.93q3.33-6.12 6.53-12.3a7 7 0 0 0 1.14-3.1 4.3 4.3 0 0 0-1.34-2.76c-1.62-1.8-3.42-3.45-5.18-5.1l-.4 3.13 3.7-2.11c1.16-.66 2.63-1.32 2.66-2.87.05-1.9-1.85-3.88-3.04-5.19a50 50 0 0 0-9.88-8.05 2.02 2.02 0 0 0-2.94 1.2A444 444 0 0 1 98 140.53c-1.36 3.88-2.86 7.7-4.4 11.5a2 2 0 0 0 1.4 2.47 2.05 2.05 0 0 0 2.46-1.4 377 377 0 0 0 14.72-45.34q1.94-7.37 3.62-14.8l-2.94 1.2a54 54 0 0 1 6.19 4.63 35 35 0 0 1 2.89 2.79 15 15 0 0 1 1.14 1.37q.26.36.49.74c.1.17.26.78.24.25l.27-1.01-.17.26.72-.72c-1.65 1.12-3.48 2.02-5.2 3a2.02 2.02 0 0 0-.41 3.14 123 123 0 0 1 5.18 5.11q.38.53.2-.19a11 11 0 0 1-.62 1.2l-1.47 2.83q-3.04 5.8-6.2 11.54c-4.2 7.67-8.54 15.28-12.92 22.86-1.29 2.23 2.17 4.25 3.46 2.02Z" class="c"/><path d="M106.77 88.73c.93 1.05 1.79 2.15 2.67 3.23a8 8 0 0 1 1.76 2.6c.03.08.07.56.09.3.01-.16.02-.05-.03.05a5 5 0 0 1-.33.57q-.54.88-1.11 1.75a60 60 0 0 1-3.3 4.62q-.94 1.19-1.99 2.29a16 16 0 0 1-1.38 1.28c.29-.23-.27.18-.33.22l2.74.72c-2.71-3.63-5.27-7.4-8.27-10.8l-.4 3.14c4.36-3.13 8.54-6.6 12.71-9.97a2 2 0 0 0 0-2.82 2.05 2.05 0 0 0-2.82 0q-2.98 2.37-5.97 4.7l-4.05 3.17-.75.59c-.14.1-.94.73-.4.32l-.74.55a2.04 2.04 0 0 0-.4 3.14c2.77 3.15 5.13 6.65 7.64 10a2.04 2.04 0 0 0 2.74.72 21 21 0 0 0 4.74-4.71q2.14-2.71 4-5.62c1.09-1.67 2-3.15 1.47-5.27a10 10 0 0 0-2.38-3.85c-1.02-1.25-2-2.53-3.08-3.74-1.71-1.94-4.53.9-2.83 2.82M11.49 146.4c3.78 8.91 6.17 18.37 9.67 27.39 1.56 4 3.2 8.12 6 11.44 3.4 4.06 8.95 7.2 14.34 7.25a16 16 0 0 0 13.9-8.25c1.2-2.27-2.24-4.3-3.45-2.02a12 12 0 0 1-10.28 6.27c-4.61.02-9.39-3-12.09-6.59-2.24-2.98-3.61-6.67-4.92-10.12-1.69-4.44-3.17-8.96-4.67-13.46a190 190 0 0 0-5.04-13.93 2 2 0 0 0-2.74-.72 2.05 2.05 0 0 0-.72 2.74" class="c"/><path d="M35.66 119.97c.15 3.18-1.46 7.3-2.3 9.04a13 13 0 0 1-1.14 2c-.95 1.34-.5 2.8-.4 4.55.06.95.32 1.78.4 2.45-3.05 1.79-11.99 4.35-16.13 5.6a66 66 0 0 0-4.92-7.03c-3.12-2.08-7.34-7.83-8.82-13.89l-.32-2.28c-.12-.81.09-3.2 1.64-3.94a3.2 3.2 0 0 1 3.64.65l.03-2.09a3.7 3.7 0 0 1 2.45-3.1c1.33-.48 2.03.29 2.9 1.08a3.6 3.6 0 0 1 .95-3.39c1.47-1.18 4.67-1.82 5.33 1.87-2.08-6.1-4.52-13.59-4.88-15.3a4.14 4.14 0 0 1 2.69-4.5c1.86-.6 4.38 1.81 4.83 3 2.19 5.68 3.63 9.83 5.82 16.81 1.15.06 2.25.15 3.48.25a4.5 4.5 0 0 1 2.62 1.4 9.8 9.8 0 0 1 2.13 6.81" class="a"/><path d="M29.2 110.43q-2.24-7.15-4.85-14.16c-.83-2.2-1.55-3.94-3.49-5.37a5.1 5.1 0 0 0-5.96-.52 6.2 6.2 0 0 0-2.85 5.53 15 15 0 0 0 .76 3.16c.97 3.23 2.04 6.44 3.11 9.64q1.7 5.14 3.53 10.2c.88 2.4 4.74 1.37 3.86-1.06a429 429 0 0 1-6.75-20.23 9 9 0 0 1-.53-2.01c-.04-1.1.91-2.33 2-1.8 1.56.76 1.97 2.2 2.53 3.7q2.58 6.92 4.78 13.98c.77 2.44 4.63 1.4 3.85-1.06Z" class="c"/><path d="M.29 122.67a28 28 0 0 0 8.15 14.3 16 16 0 0 0 1.3 1.04c.45.33-.14-.2.23.22.04.04.33.41.1.1q.15.23.32.43l.76 1.05a55 55 0 0 1 3.21 4.8 2 2 0 0 0 2.26.92c2.89-.86 5.78-1.7 8.64-2.64a43 43 0 0 0 7.96-3.15 2.1 2.1 0 0 0 .92-2.26c-.12-.86-.3-1.7-.37-2.56a8 8 0 0 1-.12-2.25 9 9 0 0 1 1.07-1.92q.42-.81.78-1.66a22 22 0 0 0 2.16-9.12c-.07-2.57-4.07-2.58-4 0a18 18 0 0 1-2.21 8.4c-.83 1.63-1.82 2.84-1.83 4.76a37 37 0 0 0 .66 5.41l.92-2.25a39 39 0 0 1-7.34 2.85c-2.75.89-5.53 1.7-8.3 2.54l2.26.92a53 53 0 0 0-3.04-4.57 16 16 0 0 0-3.02-3.48c-3.9-3.04-6.54-8.22-7.61-12.95-.58-2.5-4.43-1.44-3.86 1.07" class="c"/><path d="M8.71 115.7a5.2 5.2 0 0 0-6.87-.38A6.2 6.2 0 0 0 0 120.06a14 14 0 0 0 1.46 5.36 8 8 0 0 0 1.78 2.7 5 5 0 0 0 3.15 1.25c2.5.1 4.48-2.02 5.12-4.27a2 2 0 0 0-3.86-1.06q-.08.22-.14.46c-.05.2.05-.17.08-.18-.02 0-.07.15-.08.17l-.23.37c0-.01.28-.3.12-.15l-.2.2q-.18.2-.4.37c-.04.04-.25.15-.04.04s0-.04-.02 0c-.04.09-.27.04.02 0l-.04.02-.18.04c-.3.09.13-.06.16-.02h-.44c-.22 0 .21 0 .21.02l-.19-.04-.18-.06c-.38-.1.13.03.11.05.03-.05-.59-.24-.24-.12.31.1-.25-.08-.2-.2.01-.02.22.34.1.14l-.14-.24q-.36-.57-.67-1.18l-.27-.57c-.1-.2.03.06.04.09l-.1-.24q-.2-.51-.35-1.04a17 17 0 0 1-.4-1.83c-.06-.4.02.46.02.11v-.56c0-.1.06-.52 0-.15-.05.38.02-.1.04-.19l.08-.34.14-.4c.04-.2-.07.19-.09.2.03-.01.1-.19.11-.22l.13-.21c.14-.26-.04.12-.1.11l.12-.13.09-.08q.17-.15-.17.12c-.01 0 .5-.26.23-.15s.6-.14.25-.07c-.26.05-.02 0 .04 0h.3c.33 0-.09.03-.08-.01l.3.07c.04.01.29.1.05.01s.07.04.11.07l.27.17c.24.13-.33-.3.04.04a2 2 0 1 0 2.85-2.83" class="c"/><path d="M14.1 111.6a5.7 5.7 0 0 0-3.07-1.77 5 5 0 0 0-3.79 1.34c-1.75 1.5-2.05 3.58-1.8 5.75a21 21 0 0 0 1.93 6.83 7 7 0 0 0 1.41 2.1 5.4 5.4 0 0 0 3.48 1.4 5.2 5.2 0 0 0 3.65-1.5 4.5 4.5 0 0 0 1.73-3.32 2 2 0 0 0-4 0q.01.31.05-.18-.1.3.04-.08l-.16.27q.23-.27 0 0l-.36.37-.24.22c-.05.03-.51.34-.27.16l-.19.05h-.45q.33.03-.03-.04c-.1-.04-.5-.23-.2-.06l-.3-.18q.27.23.02.02c-.26-.35.2.38-.08-.1q-.27-.42-.5-.86l-.3-.6-.08-.2q-.28-.7-.51-1.42a21 21 0 0 1-.65-2.89 15 15 0 0 1-.1-1.65l.01-.33q-.08.52-.02.19l.13-.43-.06.15a4 4 0 0 1 .3-.5l.37-.35c-.32.26.29-.14.37-.18q-.28.12.1-.02.38-.09.05-.01c-.4-.03.19.13-.19-.06l.3.17.01.02.57.51a2 2 0 1 0 2.83-2.82" class="c"/><path d="M18.85 107.54c-1.97-1.5-4.85-.8-6.62.67-1.8 1.51-1.88 4.2-1.21 6.26q.96 2.95 2.16 5.82a5.3 5.3 0 0 0 1.84 2.75 6 6 0 0 0 3.25.9 5.2 5.2 0 0 0 3.66-1.66 8 8 0 0 0 1.34-2.77 2 2 0 0 0-1.4-2.46 2.05 2.05 0 0 0-2.46 1.4q-.16.45-.3.91-.1.3.07-.12a3 3 0 0 1-.26.46q.26-.33.04-.08-.24.21.04-.01l-.3.18q-.3.15-.05.05l-.36.1c.39-.1-.27 0-.4-.01.43.01-.24-.06-.35-.1l-.32-.1q.34.14.05 0l-.24-.14q.35.28.13.08c.33.37.17.26.09.03-.03-.07-.31-.72-.14-.31q-.6-1.45-1.15-2.91-.55-1.45-1.03-2.9-.18-.55-.32-1.1c.12.49 0-.17 0-.3s.13-.78.01-.32c.03-.1.26-.74.06-.32l.15-.3q.2-.27-.01.02.25-.23-.05 0l.26-.17c.1-.05.7-.34.26-.17l.65-.2q.35-.06-.02 0l.34-.02q.35.03-.03-.01l.33.08c-.4-.12.17.14.28.22a2 2 0 0 0 2.73-.71 2.06 2.06 0 0 0-.71-2.74Z" class="c"/><path d="M37.66 119.97a12 12 0 0 0-2.06-7.33 6.4 6.4 0 0 0-3.17-2.54 13 13 0 0 0-3.89-.52c-2.62-.18-5.42-.35-7.5 1.56a5.1 5.1 0 0 0-.7 6.53 6.7 6.7 0 0 0 3.64 2.78 32 32 0 0 0 4.22.98 2.06 2.06 0 0 0 2.46-1.4 2 2 0 0 0-1.4-2.46q-1.47-.26-2.92-.61-.66-.16-1.3-.37l-.3-.1c-.32-.11.22.13-.07-.03l-.26-.15c.17.1-.04-.02-.1-.07a5 5 0 0 1-.45-.47c.12.14-.15-.23-.18-.3-.07-.1-.23-.52-.13-.21l-.1-.33c-.07-.23 0-.13 0 .04v-.47c0 .33 0 .16.05-.07.07-.32-.16.19.04-.08l.12-.2c.12-.2-.31.27.03-.02.12-.1.36-.3.09-.11l.43-.27c.3-.19-.15.02.19-.08q.32-.1.65-.17c.32-.07-.28.01.07-.02l.32-.02h.76a42 42 0 0 1 3.37.19l.8.06.4.03c.37.02-.2-.11 0 0 .05.05.5.17.36.11-.19-.07.1.06.12.06l.34.2c.11.06.44.33.2.11l.18.17c.17.22-.17-.25.04.06a16 16 0 0 1 .88 1.46l.26.54.2.55.19.72c.02.1.12.66.09.42a10 10 0 0 1 .03 1.83 2 2 0 0 0 4 0m15.57 87.57q.77-8.68 1.65-17.32.38-3.63.82-7.25a63 63 0 0 0 .26-7.56c.02-10.5-1.06-20.96-2.1-31.39a697 697 0 0 1-1.75-19.24c-.19-2.56-4.2-2.58-4 0 .8 11.06 2.15 22.07 3.05 33.12.43 5.2.74 10.4.8 15.6q.03 3.82-.13 7.65c-.1 2.38-.48 4.76-.74 7.14a949 949 0 0 0-1.86 19.25 2 2 0 0 0 2 2 2.04 2.04 0 0 0 2-2" class="c"/><path d="M138.42 198.65c.74 9.41 1.84 18.8 2.66 28.2q.23 2.59.43 5.18l.1 1.17a7 7 0 0 0 .05.77c-.02 0 .69-.46.45-.62-.3-.18-1.53.11-1.9.14q-4.52.32-9.06.5c-5.95.22-12.01.37-17.87-.86a17 17 0 0 1-8.04-3.64 18 18 0 0 1-5.32-7.7 64 64 0 0 1-2.02-9.2c-.3-1.7-.86-3.51-2.98-3.44-2.15.08-2.5 2.04-2.8 3.74a49 49 0 0 1-2.14 9.34 16 16 0 0 1-5.56 7.15c-5.03 3.65-11.92 4.42-17.95 4.76q-5.1.29-10.23.13a94 94 0 0 1-4.9-.25 4 4 0 0 0-1.04-.1c-.3.1-.05-.03.1.17.36.48.13.3.21-.04a14 14 0 0 0 .2-2.27q.76-9.17 1.74-18.33l.64-5.9a2 2 0 0 0-2-2 2.05 2.05 0 0 0-2 2q-1.05 9.33-1.9 18.7c-.25 2.68-.7 5.46-.7 8.16-.02 3.85 4.39 3.62 7.14 3.77a102 102 0 0 0 18.45-.55c6.07-.8 12.4-2.61 16.9-6.97a20 20 0 0 0 5.19-8.59c.39-1.27.65-2.58.92-3.88q.32-1.53.6-3.07a12 12 0 0 1 .48-2.77l-.72.72-1.3-.14-.51-.89a25 25 0 0 1 .6 3.22q.3 1.6.63 3.19a39 39 0 0 0 1.17 4.6 22 22 0 0 0 6.59 9.53c5.51 4.7 13.27 5.4 20.24 5.52 3.72.06 7.44-.06 11.15-.24q2.58-.13 5.16-.3c1.6-.1 3.74.1 5.06-.88 1.83-1.33 1.25-3.7 1.1-5.62q-.24-3.03-.52-6.06-.6-6.82-1.32-13.63a530 530 0 0 1-1.17-12.7c-.2-2.56-4.2-2.58-4 0Zm-.03-74.37c-1 13.75-1.88 27.52-1.95 41.31-.02 2.57 3.98 2.58 4 0 .07-13.8.96-27.56 1.95-41.3.18-2.58-3.82-2.57-4 0" class="c"/><path d="M164.86 167.11c-2.02-13.2-4.95-26.23-7.75-39.29-1.5-6.97-2.69-13.91-7.27-19.62-3.26-4.07-7.98-6.71-12.72-8.72-5.8-2.45-11.8-4.4-17.7-6.65a2 2 0 0 0-2.46 1.4 2.05 2.05 0 0 0 1.4 2.46c4.97 1.9 10.03 3.58 14.98 5.54a47 47 0 0 1 6.04 2.76 62 62 0 0 1 4.05 2.5l.31.23a21 21 0 0 1 1.8 1.65c4.8 4.92 6 11.5 7.37 17.95 1.42 6.66 2.9 13.3 4.28 19.96a398 398 0 0 1 3.8 20.9 2 2 0 0 0 2.46 1.4 2.05 2.05 0 0 0 1.4-2.46Z" class="c"/><path d="M61.78 170.19c2.94-2.43 31.84-24.08 37.6-27.78 12.4 16.06 33.98 47.08 37.63 52.51a1787 1787 0 0 1-38.12 28.84c-5.25-7.28-31.13-44.02-37.11-53.57" class="a"/><path d="m63.2 171.6.6-.48.4-.32.23-.18q1.38-1.07 2.78-2.13 4-3.04 8.03-6.05 9.22-6.92 18.55-13.69c2.17-1.57 4.33-3.17 6.58-4.62l-2.73-.72c11.45 14.84 22.22 30.24 32.9 45.64q2.4 3.42 4.74 6.88l.31-2.43c-9.93 8-20.76 15.96-31.25 23.78q-3.2 2.41-6.47 4.75l2.74.72c-4.45-6.18-8.81-12.42-13.18-18.65a2190 2190 0 0 1-17.5-25.25 306 306 0 0 1-6.43-9.67c-1.36-2.18-4.82-.18-3.45 2.01 4.33 6.91 9.06 13.58 13.7 20.28q8.63 12.44 17.37 24.8 2.99 4.25 6.04 8.5a2.03 2.03 0 0 0 2.73.71c10.94-7.74 21.53-16.02 32.16-24.19q3.2-2.44 6.37-4.96a2 2 0 0 0 .31-2.42 1218 1218 0 0 0-37.64-52.52 2.05 2.05 0 0 0-2.74-.71c-4.97 3.21-9.7 6.86-14.46 10.38q-9.07 6.69-18.06 13.5c-1.84 1.39-3.7 2.75-5.47 4.21-2 1.64.85 4.46 2.82 2.83Z" class="c"/><path d="M104.57 185.6c-1.74-1.74-3.33-2.28-6.27-3.49a38 38 0 0 0-4.32-.92c-1.88-.29-3.27-.58-5.17-.72-2.5-.2-3.97-.44-5 .6a3 3 0 0 0-.77 2.32c.2 3.47 6.32 5.5 9.18 7.52a33 33 0 0 1-8.34 2.58 47 47 0 0 1-5.2-1.65 3.6 3.6 0 0 0-3.87 1.51 3.3 3.3 0 0 0 .8 4.09 13 13 0 0 0 1.96 1.23 6.7 6.7 0 0 0 .38 5.01 8 8 0 0 0 2.97 3.45 17 17 0 0 0 4.24 8.1c.87.98 4.01 1.82 4.97 1.6 8.24-1.86 14.75-6.31 21.28-11.67" class="a"/><path d="M91.22 189.18a32 32 0 0 1-7.86 2.39h1.06a43 43 0 0 1-5.04-1.6 5.5 5.5 0 0 0-6.13 2.14 5.3 5.3 0 0 0 .63 6.45c1.66 1.74 4.34 2.73 6.6 3.34 2.5.67 3.56-3.19 1.07-3.86a15 15 0 0 1-3.4-1.33 8 8 0 0 1-1.29-.82 1.2 1.2 0 0 1-.4-.68 1 1 0 0 1 .08-.85c.07-.14.2-.25.57-.45.74-.38 1-.15 1.85.16q1.4.5 2.82.93.61.18 1.24.34a5 5 0 0 0 2.14-.03 37 37 0 0 0 8.08-2.67 2 2 0 0 0 .71-2.74 2.05 2.05 0 0 0-2.73-.72" class="c"/><path d="M75.65 198.14a9.7 9.7 0 0 0 4.27 10.72l-.91-1.2c.88 3.32 2.33 6.75 4.9 9.14a8.6 8.6 0 0 0 4.08 1.85 9.3 9.3 0 0 0 4.74-.41c7.6-2.19 14.06-6.71 20.1-11.66 2-1.63-.84-4.44-2.82-2.83a72 72 0 0 1-10.13 7.14 39 39 0 0 1-5.44 2.57q-1.47.55-2.98.98l-1.43.37-.24.06-.45-.02a5 5 0 0 1-3.3-1.65 14 14 0 0 1-2.5-4.36 16 16 0 0 0-.87-2.71c-.46-.79-1.49-1.18-2.05-1.94a5.5 5.5 0 0 1-1.11-4.98c.68-2.49-3.18-3.55-3.86-1.07m30.33-13.95a18 18 0 0 0-7.56-4.12 52 52 0 0 0-9.8-1.62c-2.88-.24-6.3-.3-7.34 3.1-.86 2.79.72 5.18 2.85 6.82 2.2 1.7 4.82 2.7 7.09 4.27a2 2 0 0 0 2.74-.72 2.04 2.04 0 0 0-.72-2.74c-2.06-1.43-4.44-2.33-6.48-3.8a8 8 0 0 1-1.1-.96 2.3 2.3 0 0 1-.58-.94q-.25-1.12.82-1.17a24 24 0 0 1 4.63.35c1.7.24 3.42.5 5.1.86 2.65.56 5.56 1.57 7.53 3.5 1.85 1.8 4.68-1.02 2.83-2.83Z" class="c"/><path d="M138.16 165.72c-9.78 4.12-23.91 10.24-35.04 14.85 1.32 3.31 8.81 21 11.1 27.63a196 196 0 0 0 38.4-15.55c4.11-2.25 8.28-7.65 9.57-10.56 1.37-3.1 1.35-8.37.74-14.45" class="d"/><path d="M137.63 163.8c-9.76 4.1-19.47 8.3-29.23 12.41l-3.43 1.44c-1.3.55-2.81.93-3.34 2.41-.56 1.57.43 3.16 1.02 4.6l4.6 11.12a362 362 0 0 1 4.41 11.2 4.5 4.5 0 0 0 1.6 2.55 4 4 0 0 0 3.42.05q2.82-.83 5.6-1.76a193 193 0 0 0 30.1-12.77 27.5 27.5 0 0 0 11.15-11.15c2.56-4.84 1.92-11 1.4-16.25a2.06 2.06 0 0 0-2-2 2 2 0 0 0-2 2 44 44 0 0 1 .17 10.87 14.4 14.4 0 0 1-3.44 6.96 25 25 0 0 1-7.9 6.45q-5.3 2.8-10.78 5.2a198 198 0 0 1-19.5 7.4q-1.86.6-3.73 1.15a5 5 0 0 0-.9.27c.01-.1.77.85.88.53.02-.07-.1-.26-.12-.33a12 12 0 0 0-.64-1.7 427 427 0 0 0-3.09-7.81q-1.86-4.6-3.76-9.17l-1.56-3.76-.65-1.58-.3-.7-.1-.25c-.16-.23.06-.25-.02-.06l-.52.89a7 7 0 0 1 1.82-.82l2.1-.88 4.38-1.85q4.5-1.9 8.99-3.82l16.44-7a2.07 2.07 0 0 0 1.4-2.46 2 2 0 0 0-2.46-1.4Z" class="c"/></svg>
