<svg xmlns="http://www.w3.org/2000/svg" viewBox="0 -89.55 427.962 427.962"><defs><style>.b{fill:#fff}.c{fill:#b3b3b3}.d{fill:#211715}</style></defs><path d="M277.27 73.08c0 15.57-1.27 26.8-3.06 33.19a76 76 0 0 0-2.3 16.08c-.05 6.44 6.13 13.43 15.63 13.2l74.04-1.77c10.37 3.72 19.4-5.68 19.33-12.94a36 36 0 0 0-2.24-12.16c-1.85-5.34-5.43-16.2-5.68-35.6a131 131 0 0 0-.26-17.6c-.8-11.3-5.85-23.93-13.12-30.94a47 47 0 0 0-5.44-4.66l-7.77-4.5a53 53 0 0 0-21.1-4.03c-14.54 0-27.48 7.49-33.22 12.98-9.53 9.12-15.57 25.78-14.8 48.76" style="fill:#957f6e"/><path d="M356.91 133.27c-.35-.14-10.28-4.87-10.51-4.95-3.5-1.27-3.37-3.52-3.8-6.04a51 51 0 0 1-.75-6.7c8.91-4.22 16.05-16.47 17.3-19.89.25-.73.97-2.22 1.54-3.9l.34.05a6.3 6.3 0 0 0 4.85-1.4c3.04-2.48 4.3-5.95 5.07-8.22 1.09-3.2 1.16-8.37-.46-11.18a5.3 5.3 0 0 0-4.76-2.64 5.7 5.7 0 0 0-3.9 1.31l-1.87-1.45c-2.7-2.1-7.31-5.14-10.9-9.97-5.5-7.4-6.52-12.03-8.15-17.15-4.2 6.09-19.25 14.5-30 16.93l-1.42.32a89 89 0 0 1-8.26 5.48c-.98.58-7.68 3.49-10.09 4.61l-2.01.93a6 6 0 0 0-3.53-1.01 5.3 5.3 0 0 0-4.76 2.64c-1.62 2.81-1.55 7.98-.46 11.18.76 2.27 2.03 5.74 5.06 8.22a6.2 6.2 0 0 0 5.13 1.35 43 43 0 0 0 7.99 14.81 36 36 0 0 0 11.54 9.42 47 47 0 0 1-.73 6.27c-.44 2.52-.3 4.77-3.8 6.03-.24.09-11.31 5.27-11.99 5.5 0 0 0 20.8 32.23 20.8s31.1-21.35 31.1-21.35" class="b"/><path d="M318.41 184.97c-1.1-2.88-2.23-6-3.57-9.92-3.43-10.06-7.48-20.86-10.86-31.53l1.96.74a54.6 54.6 0 0 0 40.58.26l.94-.25c-3.33 10.42-7.27 20.95-10.62 30.78-3.77 11-5.87 15.72-10.22 26.4h-1.56c-2.8-6.87-4.67-11.28-6.65-16.48M144.13 63.23a6 6 0 0 1 4.24-1.55 5.5 5.5 0 0 1 4.9 2.72c1.67 2.88 1.6 8.2.48 11.49-.79 2.33-2.08 5.9-5.2 8.45a6.5 6.5 0 0 1-5 1.44l-.48-.08a38 38 0 0 1-1.72 4.66c-1.26 3.42-8.17 15.35-16.96 20.12v3.86c-.73.59-15.6 12.32-16.73 13.12h-2.62c-1.13-.8-16-12.53-16.73-13.12v-4.15a35 35 0 0 1-9.85-8.5 45 45 0 0 1-8.48-16 6.4 6.4 0 0 1-5.4-1.35c-3.12-2.56-4.42-6.12-5.2-8.45-1.13-3.29-1.2-8.6.47-11.5a5.5 5.5 0 0 1 4.9-2.71 6 6 0 0 1 4.24 1.55s-4.43-35.3 36.46-35.3c48.44 0 38.68 35.3 38.68 35.3" class="b"/><path d="M125.12 149.02a587 587 0 0 0 6.99-27.74 79 79 0 0 1 5.7 4.05c18.1 7.1 33.96 12.33 42.1 24.72 4.53 6.87 7.23 15.95 9.06 27.79 2.3 17.68 6.53 56.3 7.68 69.02H55.61L55.43 231l-2.98 2a75 75 0 0 1-8.86 6.18c-4.74 2.51-8.74 4.6-16.22 3.45-6.36-.98-11.48-6.45-13.13-12.68a41 41 0 0 1-1.01-8.78c-.49-11.36-.13-16.98-1.3-27.9l10.32-36.53 21.78-16.44c8.26-6.3 19.16-10.9 30.63-14.78a80 80 0 0 1 5.92-4.22 598 598 0 0 0 14.4 52.36c4.04 12.4 5.37 16.61 10.53 29.36h1.67c5.16-12.75 6.5-16.95 10.53-29.36a582 582 0 0 0 7.41-24.63" class="c"/><path d="M279.27 73.08c-.44-14.17 1.33-29.56 9.43-41.61a37 37 0 0 1 12.17-11.13 49.4 49.4 0 0 1 22.24-6.94 53 53 0 0 1 13.65 1.06 51 51 0 0 1 5.87 1.64 21 21 0 0 1 3.86 1.63c2.24 1.27 4.26-2.18 2.01-3.45a36 36 0 0 0-9.06-3.3 57 57 0 0 0-12.74-1.62 53 53 0 0 0-24.87 5.9 43 43 0 0 0-14.79 11.7 53 53 0 0 0-8.7 17.85 92 92 0 0 0-3.07 28.28c.08 2.56 4.08 2.58 4 0Zm95.72 0a96 96 0 0 0 .07-12.02 91 91 0 0 0-.9-10.4 53.4 53.4 0 0 0-9.2-22.94 44 44 0 0 0-9.78-9.56 2 2 0 0 0-2.74.71 2.05 2.05 0 0 0 .72 2.74 40.6 40.6 0 0 1 13.59 17.5 56 56 0 0 1 3.4 11.63 74 74 0 0 1 .87 9.44 99 99 0 0 1-.03 12.9c-.21 2.57 3.79 2.55 4 0" class="d"/><path d="M275.27 73.08c0 10.2-.2 20.73-2.5 30.71a110 110 0 0 0-2.6 14.14c-.44 4.54-.32 8.77 2.5 12.59a17.9 17.9 0 0 0 14.87 7.03c2.57-.03 2.57-4.03 0-4a14 14 0 0 1-11.42-5.05 10.5 10.5 0 0 1-2.17-5.04 28 28 0 0 1 .3-6.28 117 117 0 0 1 2.48-12.8 97 97 0 0 0 1.77-12.15c.58-6.36.77-12.76.78-19.15 0-2.57-4-2.57-4 0Zm95.72 0a119 119 0 0 0 3.98 30.57c2.14 7.54 6.97 16.77 1.35 23.83a12.7 12.7 0 0 1-14.21 4.37c-2.44-.84-3.49 3.02-1.06 3.86a16.2 16.2 0 0 0 15.65-2.97 16 16 0 0 0 6.2-12.8c-.17-5.17-1.73-9.83-3.27-14.7a91 91 0 0 1-2.78-11.27 127 127 0 0 1-1.86-20.89c-.04-2.57-4.04-2.57-4 0m-62.93 43.74a47 47 0 0 1-.6 4.77 28 28 0 0 1-.51 2.9c-.04.14-.27.7-.1.35l-.3.54c-.17.26.19-.21-.02.03l-.2.2a1.3 1.3 0 0 1-.5.39c-.52.3-1.07.5-1.6.74q-4.16 1.9-8.3 3.84l-2.15.98-.77.34c-.5.22.47-.17.04-.02a2.05 2.05 0 0 0-1.4 2.46 2 2 0 0 0 2.46 1.4c1.11-.4 2.19-.95 3.26-1.45l5.1-2.35 3.77-1.75.3-.13s-.75.3-.32.14l.62-.25a8 8 0 0 0 1.1-.55 6.5 6.5 0 0 0 2.63-3.18 15 15 0 0 0 .69-3.21c.33-2.06.64-4.11.79-6.19a2 2 0 0 0-4 0Zm31.8-.93a65 65 0 0 0 1.13 8.94 7 7 0 0 0 4.6 5.31c.73.3-.52-.25 0 0l.56.25 1.75.83 4.75 2.25c1.08.51 2.16 1.06 3.26 1.53a2.07 2.07 0 0 0 2.73-.72 2 2 0 0 0-.72-2.73c-2.33-1-4.6-2.17-6.9-3.26q-1.65-.8-3.33-1.57a14 14 0 0 1-1.69-.8 2 2 0 0 1-.97-1.36 28 28 0 0 1-.6-3.31 48 48 0 0 1-.57-5.36 2.04 2.04 0 0 0-2-2 2 2 0 0 0-2 2m-21.38-15.8a15 15 0 0 0 7.15 1.65 11.7 11.7 0 0 0 7.25-2.15 2 2 0 0 0 0-2.82 2.06 2.06 0 0 0-2.83 0c.61-.48.17-.14.01-.04l-.43.25-.24.12c-.17.09-.3.03.11-.04a5 5 0 0 0-.6.22 11 11 0 0 1-1.68.38c.3-.04.04 0-.12.01l-.5.04a17 17 0 0 1-2.77-.04c-.05 0-.65-.1-.19-.02a15 15 0 0 1-1.58-.35l-.65-.22c-.5-.17.33.16-.11-.05l-.8-.4a2 2 0 0 0-2.02 3.46m6.06-16.75a33 33 0 0 1 .78 3.57l-.07-.53a2 2 0 0 1 0 .5l.08-.54-.05.22.2-.48-.08.14.31-.4-.12.12.4-.31-.28.15.48-.2a2 2 0 0 1-.48.14l.53-.08a2 2 0 0 1-.44 0l.53.08-.5-.1a1.5 1.5 0 0 0-.8-.03 1.5 1.5 0 0 0-.74.24 2 2 0 0 0-.72 2.74 2 2 0 0 0 1.2.92c.4.05.78.15 1.19.17a4 4 0 0 0 1.77-.43 2.6 2.6 0 0 0 1.43-1.7 4 4 0 0 0-.02-1.83 39 39 0 0 0-.75-3.42 2 2 0 0 0-2.46-1.4 2.04 2.04 0 0 0-1.4 2.46Zm-18.72-10.16c-.6 1.94-.21 6.4 3.46 6.77 4.85-.02 5.11-5.41 3.48-7.95-1.34-2.07-5.27-2.94-6.94 1.18m38.86 0c.6 1.94.2 6.4-3.47 6.77-4.85-.02-5.1-5.41-3.47-7.95 1.33-2.07 5.27-2.94 6.94 1.18" class="d"/><path d="M359.5 88.25a24 24 0 0 1-1.83 5.79l-.58 1.46c.22-.55-.04.09-.09.2l-.3.62a49 49 0 0 1-4.03 6.6c-3.56 5-8.4 10.42-14.62 11.87-2.5.59-1.44 4.44 1.06 3.86 5.47-1.28 10.02-5.22 13.6-9.36a50 50 0 0 0 7.78-11.65 31 31 0 0 0 2.86-8.33 2.07 2.07 0 0 0-1.4-2.46 2 2 0 0 0-2.46 1.4Zm-71.7.92a45.6 45.6 0 0 0 9.9 19.5c4.82 5.55 11.2 10.25 18.61 11.37a2.07 2.07 0 0 0 2.46-1.4 2 2 0 0 0-1.4-2.46c-6.8-1.03-12.42-5.24-16.84-10.34a41.4 41.4 0 0 1-8.88-17.74c-.58-2.5-4.44-1.44-3.85 1.06Z" class="d"/><path d="M291.15 68.49a8.2 8.2 0 0 0-8.9-1.34 7.8 7.8 0 0 0-4.12 5.29 20.4 20.4 0 0 0 2.99 16.13c2.05 3.05 5.26 5.78 9.18 5.27a2.07 2.07 0 0 0 2-2 2 2 0 0 0-2-2c-3.09.4-5.18-2.13-6.52-4.6a18 18 0 0 1-2.13-6.66c-.19-2.24-.2-5.03 1.18-6.94-.17.23.43-.46.49-.5a3.5 3.5 0 0 1 1.36-.62 4 4 0 0 1 3.63.8c1.92 1.7 4.76-1.11 2.83-2.83ZM363 71.32a4 4 0 0 1 3.47-.84 4 4 0 0 1 1.53.65c-.15-.12.35.35.3.3.05.05.4.5.19.2 1.36 1.92 1.36 4.72 1.17 6.95-.37 4.25-3.36 11.95-8.65 11.26a2 2 0 0 0-2 2 2.05 2.05 0 0 0 2 2c6.44.84 10.34-6.17 11.95-11.36 1.42-4.6 1.46-11.9-3.06-14.87a8.2 8.2 0 0 0-9.73.88c-1.93 1.72.9 4.54 2.83 2.83" class="d"/><path d="M319.87 44.86c-4 6.13-9.73 10.92-15.8 14.9a50 50 0 0 1-6.84 3.8c-2.36 1.07-4.75 2.1-7.1 3.19a2 2 0 0 0-.71 2.73 2.05 2.05 0 0 0 2.73.72c2.4-1.11 4.83-2.16 7.24-3.25a52 52 0 0 0 7.41-4.22c6.4-4.27 12.3-9.37 16.53-15.85 1.41-2.16-2.05-4.17-3.45-2.02Z" class="d"/><path d="M339.3 39.95c-2.65 3.92-7.75 6.93-11.94 9.3a65 65 0 0 1-16.99 6.89c-2.5.57-1.44 4.43 1.06 3.85a69 69 0 0 0 18.27-7.48c4.74-2.7 9.94-5.94 13.05-10.54 1.45-2.14-2.02-4.15-3.45-2.02" class="d"/><path d="M361.38 66.84c-1.96-1.51-3.97-2.95-5.84-4.57a37 37 0 0 1-6.25-7.11 50 50 0 0 1-6.14-13.56c-.76-2.45-4.63-1.4-3.86 1.06a54 54 0 0 0 6.54 14.52 41 41 0 0 0 6.6 7.67c1.94 1.73 4.06 3.23 6.12 4.82a2.07 2.07 0 0 0 2.82 0 2 2 0 0 0 0-2.82Z" class="d"/><path d="M244.43 246.87c2.52-19.45 6.77-52.97 9.92-68.36 1.33-6.55 4.37-17.67 8.7-24.25 6.78-10.29 17.9-15.47 30.96-21.78a38 38 0 0 1 5.7-4.19c3.62 15.32 10.04 31.86 15.14 46.76 3.76 11 5.86 15.72 10.22 26.4h1.55c4.36-10.68 6.46-15.4 10.22-26.4 5.1-14.9 11.52-31.44 15.13-46.76a34 34 0 0 1 4.33 3.04l5.19 1.51a73 73 0 0 1 17.04 8.78l15.95 11.22 16.67 36.61c1.25 6.76 2.7 12.83 5.13 23.93a41 41 0 0 1 1.26 8.74c0 6.45-3.54 13.07-9.45 15.62-4.62 1.98-11.2 2.06-16.56.81-3.68-.86-9.76-2.79-14.18-5.79l-3.5-1.74c-.06 7.21-.07 13.94-.08 15.84Z" class="c"/><path d="M105.51 203.01c-5.16-12.75-6.5-16.96-10.53-29.36-5-15.37-9.69-32.15-13.42-48.11a5.5 5.5 0 0 1 1.23-4.52c1.68-1.95 3.8-4.76 5.52-6.68.73.59 15.6 12.32 16.73 13.11h2.62c1.13-.8 16-12.52 16.73-13.11 1.71 1.92 3.83 4.73 5.51 6.68a5.5 5.5 0 0 1 1.23 4.52 600 600 0 0 1-13.41 48.11c-4.04 12.4-5.37 16.61-10.54 29.36Z" class="b"/><path d="M101.02 191.52c1.2 3.23 2.58 6.77 4.5 11.5h1.66a320 320 0 0 0 9.62-26.56c-1.63-13.97-3.78-30.59-3.78-31.08a12 12 0 0 1 .4-2.6q.15-.59.27-1.18c.43-1.94.5-2.93 1-4.98l.04-.1c-2.4-3.24-5.3-7.08-7.07-9.07h-2.62a161 161 0 0 0-7.01 8.98l.22.63a26 26 0 0 1 1.23 3.99 17 17 0 0 1 .97 4.62c.01.82-2.26 16.58-4.36 31.4 1.9 5.83 3.22 9.8 4.93 14.45" style="fill:#3d8dcc"/><path d="M94.48 202.55c-9.22-15.98-18.33-32.03-26.84-48.4q-.84-1.61-1.66-3.23c-.36-.68-.54-.54-.03-1.1q.64-.71 1.31-1.39 2.85-2.89 5.83-5.66a2.02 2.02 0 0 0-.4-3.14l-3.58-2.04-1.67-.95-.84-.48-.42-.24q-.37-.25-.09 0l.28 1a7 7 0 0 1 1.04-1.64 21 21 0 0 1 1.5-1.85 47 47 0 0 1 4.13-4.01A74 74 0 0 1 81.6 123l-2.94-1.2a601 601 0 0 0 18.97 66.16 348 348 0 0 0 5.96 15.57 2.06 2.06 0 0 0 2.46 1.4 2 2 0 0 0 1.4-2.46A512 512 0 0 1 87.4 140.7q-2.62-9.93-4.88-19.95a2.02 2.02 0 0 0-2.94-1.2 69 69 0 0 0-12.9 10.41 32 32 0 0 0-2.53 3.05 7.6 7.6 0 0 0-1.76 3.54c-.12 2.03 1.74 2.8 3.25 3.65l5.03 2.88-.4-3.14q-2.8 2.6-5.49 5.31c-1.63 1.66-3.73 3.43-3 6.02a17 17 0 0 0 1.47 3.07l1.79 3.44q1.65 3.17 3.34 6.33 7.04 13.09 14.38 26 4.1 7.24 8.27 14.45c1.29 2.23 4.75.22 3.46-2.02Zm17.97-60.68c-3.88 0-7.76-.08-11.63-.08a2 2 0 1 0 0 4c3.87 0 7.75.08 11.63.08a2 2 0 0 0 0-4" class="d"/><path d="M112.77 136.09c-.49 2.04-.8 4.1-1.28 6.15a12 12 0 0 0-.43 3.56c.18 2.1.5 4.2.77 6.3q1.53 12.2 2.98 24.4a2.06 2.06 0 0 0 2 2 2 2 0 0 0 2-2q-1.43-12.05-2.94-24.1-.42-3.2-.8-6.41a8 8 0 0 1 .28-2.68c.47-2.04.79-4.12 1.28-6.16.59-2.5-3.27-3.57-3.86-1.06m-14.65 40.78q1.75-12.21 3.46-24.42c.29-2.1.67-4.23.83-6.36a12 12 0 0 0-.47-3.75 40 40 0 0 0-1.96-6.29 2 2 0 0 0-2.74-.72 2.05 2.05 0 0 0-.71 2.74 18 18 0 0 1 .81 2.76c.27 1.02.63 2.01.86 3.04a7 7 0 0 1 .18 2.54c-.23 2.06-.5 3.84-.8 5.93q-1.63 11.73-3.31 23.47a2.07 2.07 0 0 0 1.4 2.46 2 2 0 0 0 2.46-1.4Zm-45.62-6.53q.33 14.97.53 29.94.25 17.03.45 34.06l.13 12.52c.02 2.58 4.02 2.58 4 0q-.12-13.18-.3-26.35-.23-17.52-.51-35.05-.13-7.56-.3-15.12c-.06-2.57-4.06-2.57-4 0m107.13 76.53q.07-13.32.22-26.63.17-17.4.4-34.78.1-7.56.25-15.11c.05-2.58-3.95-2.58-4 0q-.28 14.88-.43 29.76-.2 16.96-.35 33.92l-.1 12.84c-.01 2.57 3.99 2.57 4 0Z" class="d"/><path d="M9.93 193.26c.62 5.88.87 11.76 1 17.66q.1 4.65.26 9.26a46 46 0 0 0 1.17 10.46 19.8 19.8 0 0 0 9.97 12.42 21.6 21.6 0 0 0 16.55.53c5.56-2.08 10.37-5.54 14.99-9.19a2 2 0 0 0 0-2.83 2.05 2.05 0 0 0-2.83 0c-7.1 5.61-16.55 12.14-26.03 8.33a15.7 15.7 0 0 1-8.79-10.32 41 41 0 0 1-1.03-9.4q-.16-4.35-.25-8.69a218 218 0 0 0-1-18.23 2.06 2.06 0 0 0-2-2 2 2 0 0 0-2 2Zm369.6-53.37a79 79 0 0 0-17.51-8.97 2 2 0 0 0-2.46 1.4 2.04 2.04 0 0 0 1.4 2.46 75 75 0 0 1 16.56 8.57 2 2 0 0 0 2.02-3.46Zm-4.98 34.9c-.02 9.78-1.26 19.5-1.73 29.25s-.91 19.5-.99 29.28l-.07 13.54c-.01 2.58 3.99 2.58 4 0 .1-18.5.32-36.99 1.9-55.44.48-5.53.87-11.07.88-16.63.01-2.58-3.99-2.58-4 0Zm-100.46 0c.02 9.78 1.25 19.5 1.73 29.25s.9 19.5.98 29.28l.07 13.54c.01 2.58 4.01 2.58 4 0-.1-18.5-.31-36.99-1.9-55.44-.48-5.53-.87-11.07-.88-16.63 0-2.57-4-2.58-4 0" class="d"/><path d="M409.22 189.99c.8 4.3 1.73 8.58 2.68 12.86l1.84 8.27a63 63 0 0 1 1.76 9.6 16.2 16.2 0 0 1-5.25 13.35c-4.05 3.49-10.3 3.7-15.34 3.07a40 40 0 0 1-16.55-6.1c-2.15-1.44-4.16 2.02-2.02 3.45a44 44 0 0 0 16.22 6.31c5.83 1.04 12.69 1 17.96-2.06a18.9 18.9 0 0 0 8.77-13.58 29 29 0 0 0-.6-10.03c-.66-3.3-1.43-6.57-2.16-9.85-1.2-5.44-2.44-10.88-3.46-16.36-.46-2.52-4.32-1.45-3.85 1.07m-162.79 56.88c2.28-17.62 4.5-35.25 7.23-52.8a198 198 0 0 1 4.3-22.05 73 73 0 0 1 4.85-13.29 35 35 0 0 1 7.9-10.26c8.04-7.25 18.55-11.42 28.15-16.13 2.31-1.13.29-4.58-2.02-3.45-9 4.41-18.42 8.4-26.38 14.6a41 41 0 0 0-9.22 9.9 56 56 0 0 0-5.84 13.22 155 155 0 0 0-5.06 22.97c-1.47 9.07-2.74 18.18-3.98 27.3q-2.01 15-3.93 30a2 2 0 0 0 2 2 2.05 2.05 0 0 0 2-2Zm58.98-100.68a56.3 56.3 0 0 0 41.64.25 2.06 2.06 0 0 0 1.4-2.46 2 2 0 0 0-2.46-1.4 53 53 0 0 1-39.52-.25 2 2 0 0 0-2.46 1.4 2.05 2.05 0 0 0 1.4 2.46" class="d"/><path d="M425.5 160.62a11 11 0 0 1 .41 1.7 12.3 12.3 0 0 1-1.75 7.96 65 65 0 0 0-4.9 12.37c-.93 3.22-2.08 8.14-2.42 10.12a12 12 0 0 1-1.69 4.67c-1.13 1.68-2.78 2.25-4.45 3.22-.84.5-5.3.18-6.28.08a25 25 0 0 1-9.8-4.03c-3.7-2.63-4.7-7.81-2.13-18.65.5-1.95-.24-4.35-1.5-6.5l-2.66 1.32a67 67 0 0 1-3.1-6.05 5.2 5.2 0 0 1 .92-5.53 8 8 0 0 1 1.93-1.35l1.2-2.41a5.7 5.7 0 0 1-4.63-1.15 3.5 3.5 0 0 1-1.34-3.03 9.4 9.4 0 0 1 1.9-4.97 17 17 0 0 1 5-4.62 6.7 6.7 0 0 1 6.56-.09c.92.59 1.63 1.46 2.59 2l3.8.35c.48-1.6 2.75-3.05 4.15-3.18a7 7 0 0 1 5.09 1.54 31 31 0 0 1 2.5 2.24c3.29 3.4 6.08 6.96 9.32 11.04a11 11 0 0 1 1.28 2.95" class="b"/><path d="M405.09 146.56c.56-1.52 2.65-1.94 4.01-1.61 1.96.46 3.51 2.16 4.85 3.57a100 100 0 0 1 4.79 5.47q1.15 1.41 2.29 2.85a14 14 0 0 1 1.93 2.65 10.4 10.4 0 0 1 1.04 4.91c-.1 2.18-1.09 3.9-2.07 5.78a62 62 0 0 0-4.32 10.97 104 104 0 0 0-2.66 10.88c-.36 1.95-.8 4.14-2.53 5.36a28 28 0 0 1-2.56 1.44c-.5.29.3-.04 0 .01-.06 0-.4.04-.22.04-.14 0-.7.04-1 .04a20 20 0 0 1-9.13-1.75 26 26 0 0 1-2.78-1.47 8 8 0 0 1-1.6-1.16 6 6 0 0 1-1.5-2.38c-1.13-3.59-.47-7.65.28-11.3.54-2.62 1.05-4.84.14-7.45a19 19 0 0 0-4.03-6.45c-1.76-1.9-4.58.94-2.83 2.83a12.4 12.4 0 0 1 3.4 6.1 8 8 0 0 1-.35 3.02 58 58 0 0 0-.73 3.97c-.55 3.77-.87 7.85.7 11.44 1.45 3.31 4.63 5.15 7.82 6.54a25 25 0 0 0 10.89 2.06 10.7 10.7 0 0 0 9.55-8.2c1.05-4.1 1.74-8.29 2.95-12.36a57 57 0 0 1 4.7-11.48 14.2 14.2 0 0 0 .18-13.67 24 24 0 0 0-2.59-3.4 208 208 0 0 0-3-3.68 54 54 0 0 0-6.06-6.47c-2.22-1.9-4.85-3.24-7.87-2.75a7.4 7.4 0 0 0-5.55 4.58c-.9 2.42 2.97 3.46 3.86 1.06Z" class="d"/><path d="M413.27 156.09q-3.08-3.44-6.29-6.74a18 18 0 0 0-2.22-2.13 6 6 0 0 0-6.87-.12 6.9 6.9 0 0 0-2.86 7.01 2 2 0 0 0 2.46 1.4 2.04 2.04 0 0 0 1.4-2.46q-.07-.35 0-.04-.03-.2 0-.4.02-.37-.02-.08l.09-.4s.2-.6.08-.33a4 4 0 0 1 .43-.76 2.4 2.4 0 0 1 1.81-.97 2 2 0 0 1 .95.26c.22.12.55.42.26.16l.12.1 1.05 1.06q3.46 3.57 6.79 7.27a2 2 0 0 0 2.83-2.83Z" class="d"/><path d="M404.85 158.76a51 51 0 0 0-6.05-5.12 10 10 0 0 0-3.05-1.78 5.8 5.8 0 0 0-6.96 7.1 11 11 0 0 0 2.22 3.56 18 18 0 0 0 1.4 1.55q2.12 2.1 4.33 4.14a2 2 0 0 0 2.82-2.83 56 56 0 0 1-6.1-6.16 10 10 0 0 1-.75-1.15c-.16-.3.12.2-.04-.08-.04-.08-.03-.17-.07-.24.13.26 0 .27.02.06v-.42c0-.3-.08.3 0 0l.06-.26c.02-.13.27-.73.1-.37l.3-.52c.07-.2-.04.06-.08.1 0-.01.33-.34.18-.2s.12-.08.17-.11l.24-.14c.32-.19.1-.06.02-.03l.34-.1.26-.07c.28-.1-.29-.01 0 0h.26c.45-.03-.15-.1.06-.02l.32.09c.2.01-.04-.01-.1-.05l.56.36 1.3.9a46 46 0 0 1 5.41 4.62 2 2 0 0 0 2.83-2.83" class="d"/><path d="M392.55 158.62a6.3 6.3 0 0 0-4.17-.81 7 7 0 0 0-3.25 1.74 6.8 6.8 0 0 0-2.27 5.8 13 13 0 0 0 1.65 4.6 31 31 0 0 0 2.1 3.95 2.05 2.05 0 0 0 2.73.71 2 2 0 0 0 .72-2.73 27 27 0 0 1-1.75-3.24l-.85-1.75-.3-.63-.15-.32c-.05-.1-.06-.28.03.05l-.15-.49-.07-.33q.04.32.02.1l-.02-.63c0-.05.06-.63 0-.18l.1-.52c.02-.08.26-.77.09-.36l.23-.46c.05-.07.37-.46.09-.15l.42-.41a7 7 0 0 1 .74-.56c.14-.1.47-.26.12-.11.09-.04.83-.2.5-.17a3 3 0 0 1 .6 0c-.37-.05.25.1.26.1l.13.05.42.21a2 2 0 0 0 2.02-3.45Z" class="d"/><path d="M400.37 143.94c-.95-.56-1.72-1.46-2.7-2.05a8 8 0 0 0-3.76-1.03 10.7 10.7 0 0 0-7.06 2.82 17 17 0 0 0-4.52 5.65c-1.08 2.46-1.62 5.38.16 7.66a7.6 7.6 0 0 0 7.32 2.47 2 2 0 0 0 1.4-2.46 2.05 2.05 0 0 0-2.46-1.4 3.6 3.6 0 0 1-2.4-.47l-.44-.29c.42.31-.14-.15-.22-.24a1 1 0 0 1-.26-.39c.07.15-.12-.34-.12-.38a6 6 0 0 1 .6-2.74 11 11 0 0 1 1.9-2.72c1.42-1.61 3.15-3.22 5.36-3.5a4 4 0 0 1 2.38.4c1 .55 1.79 1.52 2.8 2.12 2.22 1.32 4.24-2.14 2.02-3.45" class="d"/><path d="M28.64 148.87c.95-.53 1.67-1.4 2.59-1.99a6.7 6.7 0 0 1 6.55.09 17 17 0 0 1 5.01 4.62 9.4 9.4 0 0 1 1.9 4.97 3.5 3.5 0 0 1-1.35 3.03 5.7 5.7 0 0 1-4.62 1.14l1.2 2.42a8 8 0 0 1 1.93 1.35 5.2 5.2 0 0 1 .91 5.53 67 67 0 0 1-3.1 6.05l-2.74-1.17c-1.2 2.11-1.9 4.44-1.4 6.35 2.57 10.84 1.55 16.02-2.14 18.65a25 25 0 0 1-9.8 4.03c-.98.1-5.44.41-6.28-.08-1.66-.97-3.32-1.53-4.45-3.21a12 12 0 0 1-1.69-4.68c-.34-1.98-1.5-6.9-2.4-10.11a65 65 0 0 0-4.92-12.37 12.3 12.3 0 0 1-1.75-7.97 14 14 0 0 1 1.69-4.66c3.23-4.07 6.03-7.63 9.32-11.04a31 31 0 0 1 2.5-2.23 7 7 0 0 1 5.08-1.54c1.4.13 3.67 1.57 4.16 3.18Z" class="b"/><path d="M26.77 148.7c-1.82-4.94-8.06-5.88-12.03-2.96-4.29 3.16-7.6 7.7-10.89 11.84a20 20 0 0 0-2.15 2.84 16 16 0 0 0-1.13 2.88 13.3 13.3 0 0 0-.18 7.04c.55 2.29 1.85 4.2 2.84 6.3a63 63 0 0 1 2.42 6.06 98 98 0 0 1 3.33 12.5c.46 2.24.83 4.52 2.14 6.46a12 12 0 0 0 5.75 4.18 14 14 0 0 0 4.83.24 21 21 0 0 0 5.02-.79c3.66-1.1 7.9-2.91 10.18-6.14 2.25-3.19 2.26-7.5 1.84-11.22q-.24-2.04-.63-4.07a18 18 0 0 1-.75-4.24c.16-2.47 1.82-4.87 3.45-6.62 1.75-1.89-1.07-4.72-2.83-2.83-2.93 3.15-5.35 7.45-4.34 11.86.84 3.67 1.72 7.77 1.17 11.5a8 8 0 0 1-1.09 3.18 6.6 6.6 0 0 1-2.3 2.1 20.4 20.4 0 0 1-9.58 3.26 37 37 0 0 1-3.4.02c.04 0-.59-.15-.14.04a7.7 7.7 0 0 1-4.47-3.87 32 32 0 0 1-1.26-5.33q-.66-2.98-1.44-5.93a78 78 0 0 0-3.9-11.14c-1.53-3.53-4.07-6.8-3-10.87a12 12 0 0 1 .92-2.55 21 21 0 0 1 2.25-2.94c1.72-2.15 3.46-4.28 5.3-6.33 1.52-1.67 3.29-3.93 5.45-4.8 1.5-.6 4.08-.45 4.76 1.4.88 2.4 4.75 1.35 3.85-1.07Z" class="d"/><path d="M17.56 162.12q3.32-3.7 6.78-7.26.54-.53 1.06-1.07l.11-.1c-.29.27.05-.03.27-.15a2 2 0 0 1 .6-.23c.32-.09 0-.06.35-.04a2.4 2.4 0 0 1 1.8.97 4 4 0 0 1 .39.66q.09.19 0 .02a5 5 0 0 1 .21.8q-.04-.28 0 .09l-.01.4q.06-.32-.01.04a2.05 2.05 0 0 0 1.4 2.46 2 2 0 0 0 2.46-1.4 6.9 6.9 0 0 0-2.02-6.34 6.1 6.1 0 0 0-6.98-1 10 10 0 0 0-2.6 2.2 273 273 0 0 0-6.64 7.12 2.05 2.05 0 0 0 0 2.83 2 2 0 0 0 2.83 0" class="d"/><path d="M25.98 164.8a48 48 0 0 1 4.71-4.11l1.3-.92a8 8 0 0 0 1.19-.81c.12-.13-.03 0-.1.03l.31-.1c.15-.04.3.03-.03 0h.26c.06 0 .43.04.17 0-.24-.02.05.02.09.03l.34.1c.35.1-.07-.06.11.05a4 4 0 0 1 .55.33c-.34-.26.27.3.07.07-.16-.17.14.26.2.35.17.32.04.09 0 0q.09.23.14.44c.05.2.1.64.08.26v.67c0-.06.1-.31 0-.16-.03.05-.14.4-.06.21s-.08.14-.08.13l-.28.46a13 13 0 0 1-1.34 1.74q-.7.75-1.44 1.47-1.86 1.79-3.74 3.55a2 2 0 0 0 0 2.83 2.04 2.04 0 0 0 2.83 0q1.96-1.8 3.85-3.67a18 18 0 0 0 3.67-4.54 5.78 5.78 0 0 0-5.42-8.3 6.4 6.4 0 0 0-3.4 1.41 53 53 0 0 0-6.82 5.66 2 2 0 0 0 2.83 2.83Z" class="d"/><path d="M37.47 165.28q.2-.12.42-.22-.21.08.13-.04c.07-.02.63-.15.26-.1a3 3 0 0 1 .6 0c-.34-.03.31.1.4.13q.25.08-.08-.04a4 4 0 0 1 .8.52c-.28-.2.13.12.18.17a5 5 0 0 1 .49.47c-.23-.26 0 .02.08.15l.24.46c-.17-.4.04.18.06.27l.13.6c-.05-.35-.01.05 0 .19l-.02.53q-.03.36.01 0l-.07.33-.14.5c.12-.41-.05.1-.1.21l-.32.67q-.41.89-.85 1.76a27 27 0 0 1-1.75 3.24 2 2 0 0 0 .72 2.73 2.05 2.05 0 0 0 2.73-.72 31 31 0 0 0 2.1-3.95 13 13 0 0 0 1.66-4.6 6.8 6.8 0 0 0-2.28-5.8 7 7 0 0 0-3.25-1.73 6.3 6.3 0 0 0-4.16.81 2 2 0 1 0 2.01 3.46" class="d"/><path d="M29.65 150.6c1.02-.6 1.8-1.57 2.8-2.12a4 4 0 0 1 2.38-.4c2.21.27 3.94 1.88 5.36 3.5a11 11 0 0 1 1.85 2.6 6 6 0 0 1 .65 2.86c0 .07-.2.57-.12.38 0 0-.36.52-.19.31-.07.09-.72.64-.29.32l-.44.29-.48.25-.62.17a4 4 0 0 1-1.3.05 2.06 2.06 0 0 0-2.46 1.4 2 2 0 0 0 1.4 2.46 7.8 7.8 0 0 0 6.73-1.8c2.05-1.91 2.06-4.72 1.2-7.22a16 16 0 0 0-4.29-6.14 11.6 11.6 0 0 0-6.85-3.4 8 8 0 0 0-4.2.75c-1.2.57-2.05 1.65-3.15 2.3-2.2 1.3-.2 4.77 2.02 3.45Z" class="d"/><path d="M147.16 26.09a34 34 0 0 0-6.46-7.58l-6-5.34c-7.78-8.66-18.12-11.06-28.3-11.06a46.2 46.2 0 0 0-28.59 9.4 42 42 0 0 0-8.05 8.39c-5.23 5.1-9.4 16.28-9.08 27.35A58 58 0 0 0 62.5 62.1a7 7 0 0 1 2.24-.43 6 6 0 0 1 4.25 1.55l1.68 1.18a63 63 0 0 1 .73-6.75c.78-4.74 5.7-6.93 7.8-11.17 1.2-2.44 1.92-5.29 3.99-7.02a10 10 0 0 1 5.62-1.96 102 102 0 0 1 17.07.78c2.96.17 5.83.76 10.05 1.3 2.3.3 6.55 1.05 8.17 1.37 6.4 1.47 8.84 3.07 12.05 7.42a31 31 0 0 1 3.75 8.66l4.22 6.2a6 6 0 0 1 4.25-1.56 7 7 0 0 1 2.08.37 48 48 0 0 0 1.77-14.8c-.4-9.79-2.02-16.12-5.06-21.16" style="fill:#85807f"/><path d="M100.18 95.04a15.4 15.4 0 0 0 7.41 1.72 12 12 0 0 0 7.5-2.22 2 2 0 0 0 0-2.83 2.06 2.06 0 0 0-2.83 0c.62-.48.16-.12 0-.02l-.45.26-.25.12c-.23.12-.17-.04.1-.03a3 3 0 0 0-.62.23 11 11 0 0 1-1.76.4c.3-.05-.01 0-.15 0q-.25.04-.52.05-.62.04-1.25.04-.56 0-1.12-.04l-.51-.05c-.04 0-.66-.1-.23-.02a15 15 0 0 1-1.64-.36l-.68-.23c-.5-.18.31.16-.14-.06q-.43-.2-.84-.42a2 2 0 0 0-2.02 3.46m6.36-17.42a35 35 0 0 1 .81 3.72l-.07-.53a2 2 0 0 1 .02.52l.07-.54-.06.24.2-.48-.08.15.31-.4-.12.12.4-.32-.3.16.48-.2a2 2 0 0 1-.5.14l.53-.07a2 2 0 0 1-.46 0l.53.08-.53-.1a1.5 1.5 0 0 0-.8-.03 1.5 1.5 0 0 0-.74.24 2 2 0 0 0-.72 2.73 2 2 0 0 0 1.2.92c.4.06.8.16 1.22.18a4 4 0 0 0 1.8-.43 2.6 2.6 0 0 0 1.46-1.73 4 4 0 0 0-.02-1.86q-.31-1.8-.79-3.57a2 2 0 1 0-3.85 1.07Zm-19.7-10.58c-.61 2.03-.2 6.68 3.62 7.07 5.07-.03 5.33-5.65 3.63-8.3-1.39-2.16-5.5-3.06-7.24 1.23m40.7 0c.63 2.03.22 6.68-3.6 7.07-5.07-.03-5.34-5.65-3.64-8.3 1.4-2.16 5.5-3.06 7.25 1.23M70.4 61.82a8.4 8.4 0 0 0-9.08-1.37 8 8 0 0 0-4.2 5.4c-1.49 5.48-.07 11.87 3.07 16.54 2.1 3.12 5.37 5.9 9.38 5.38a2.07 2.07 0 0 0 2-2 2 2 0 0 0-2-2c-5.47.71-8.56-7.23-8.94-11.63-.2-2.3-.2-5.2 1.22-7.16-.2.28.19-.22.2-.23.07-.07.26-.27.32-.31a4 4 0 0 1 1.4-.64 4.2 4.2 0 0 1 3.8.84c1.92 1.71 4.75-1.1 2.83-2.83Zm75.14 2.83a4.2 4.2 0 0 1 3.62-.88 4 4 0 0 1 1.59.67c-.12-.09.38.37.32.32.05.05.4.5.2.22 1.41 1.97 1.4 4.86 1.21 7.17-.38 4.4-3.47 12.34-8.94 11.63a2 2 0 0 0-2 2 2.05 2.05 0 0 0 2 2c6.6.85 10.58-6.33 12.23-11.65 1.45-4.7 1.5-12.18-3.12-15.21a8.35 8.35 0 0 0-9.94.9c-1.92 1.71.91 4.54 2.83 2.83" class="d"/><path d="M141.85 82.4a44 44 0 0 1-2.56 7.76c.21-.5-.14.31-.22.48l-.6 1.17q-.7 1.33-1.48 2.62A47 47 0 0 1 127 106.3a19 19 0 0 1-7.54 3.95c-2.51.58-1.45 4.44 1.06 3.85 5.73-1.33 10.5-5.5 14.24-9.85a51 51 0 0 0 7.95-12.03l.48-1.14c.1-.22.59-1.38.8-1.94a38 38 0 0 0 1.7-5.68c.52-2.51-3.33-3.58-3.86-1.06Zm-74.55.94a47 47 0 0 0 10.3 20.41c4.86 5.63 11.1 10.07 18.58 11.2a2.07 2.07 0 0 0 2.46-1.4 2 2 0 0 0-1.4-2.47c-6.89-1.03-12.34-4.98-16.81-10.16a43 43 0 0 1-9.27-18.65c-.57-2.5-4.43-1.45-3.86 1.07m68.81-71.58C125.37-.06 107.27-2.22 92.48 1.96a46 46 0 0 0-19.78 11.4 51 51 0 0 0-4.2 4.85c-1.02 1.31-2.17 2.5-3.11 3.9a38 38 0 0 0-4.75 10.48 56.7 56.7 0 0 0-.22 29.49c.63 2.5 4.5 1.43 3.86-1.07a53.6 53.6 0 0 1-.59-24.25 39 39 0 0 1 3.85-10.5 23 23 0 0 1 2.48-3.71c1.14-1.35 2.21-2.74 3.37-4.07C83.04 7.4 97.8 2.9 112.24 4.4a32.4 32.4 0 0 1 21.04 10.19c1.74 1.9 4.56-.93 2.83-2.83m16.4 50.32a56 56 0 0 0 1.75-11.79 69 69 0 0 0-.77-11.27 35.6 35.6 0 0 0-5.56-15.4 39 39 0 0 0-5.82-6.53c-1.9-1.72-4.74 1.1-2.83 2.83a30 30 0 0 1 7.98 10.79c2.27 5.59 2.92 11.88 3 17.87a49 49 0 0 1-1.61 12.44c-.62 2.5 3.24 3.56 3.85 1.06Z" class="d"/><path d="M106.4 36.36a72 72 0 0 0-9.38-.83 52 52 0 0 0-9.01.07 11.5 11.5 0 0 0-6.38 2.57 14 14 0 0 0-3.24 5.26 16 16 0 0 1-2.7 4.64c-1.24 1.4-2.64 2.65-3.8 4.11a12 12 0 0 0-2.56 5.85c-.36 2.4-.54 4.8-.73 7.2-.2 2.58 3.8 2.56 4 0 .26-3.3.05-7.3 2.05-10.1 1.97-2.76 4.85-4.69 6.36-7.8a50 50 0 0 1 2.38-5.06 6.2 6.2 0 0 1 4.55-2.64 39 39 0 0 1 8.1-.14 74 74 0 0 1 9.3.73 2.06 2.06 0 0 0 2.47-1.4 2 2 0 0 0-1.4-2.46Zm17.17 6.52a41 41 0 0 1 4.55 1.33l.85.37a11 11 0 0 1 3.59 2.58 16 16 0 0 1 2.92 3.95 38 38 0 0 1 2.5 6.46c.75 2.45 4.62 1.4 3.85-1.06a44 44 0 0 0-2.9-7.42 21 21 0 0 0-3.55-4.76c-2.91-3-6.75-4.37-10.75-5.3a2 2 0 1 0-1.06 3.86Zm-5.48-4.55c-.59-2.5-2.54-4.65-4.51-6.18a23 23 0 0 0-11.23-4.41 2 2 0 0 0-2 2 2.05 2.05 0 0 0 2 2 23 23 0 0 1 5.1 1.38l.24.1.6.29q.53.26 1.03.56.5.28.96.6l.48.33.11.08a15 15 0 0 1 1.47 1.3l.56.6.3.36-.12-.15.14.2a10 10 0 0 1 .77 1.26c.03.05.08.25.13.27-.16-.07-.17-.47-.06-.12q.1.3.17.59a2 2 0 0 0 3.86-1.06m210.46 163.65c3.45-8.45 6.93-16.86 9.9-25.5 3.49-10.12 7.2-20.16 10.5-30.34a225 225 0 0 0 4.95-17.32l-2.94 1.2a39 39 0 0 1 7.47 5.9c2.18 2.12 4.55 4.56 5.76 7.4l-.27-1.01.01.33.28-1c.24-.44-.11-.03-.34.11l-.86.54-1.77 1.17q-1.73 1.18-3.49 2.32a2.03 2.03 0 0 0 0 3.45c1.57 1.15 3.22 2.2 4.75 3.38q.57.45 1.1.92c.19.16 1.02.75 1.07 1.02-.06-.33-.3.33-.36.43l-.8 1.49q-3 5.5-6.17 10.93a900 900 0 0 1-13.43 22.29q-3.85 6.2-7.75 12.38c-1.37 2.18 2.09 4.2 3.46 2.02 4.97-7.9 9.92-15.83 14.74-23.82q3.67-6.08 7.22-12.22c2.2-3.82 4.53-7.65 6.48-11.6 1.3-2.64-.09-4.46-2.1-6.15-1.95-1.65-4.13-3-6.19-4.52v3.45q1.93-1.26 3.84-2.55a22 22 0 0 0 3.61-2.4c2.07-2.12-1-5.5-2.33-7.19a44 44 0 0 0-11.91-10.52 2.02 2.02 0 0 0-2.94 1.2 308 308 0 0 1-9.54 30.82c-3.3 9.38-6.4 18.85-10.03 28.12-1.86 4.76-3.85 9.47-5.78 14.2a2 2 0 0 0 1.4 2.47 2.05 2.05 0 0 0 2.46-1.4" class="d"/><path d="M327 200.92c-3.46-8.45-6.95-16.87-9.92-25.5-3.48-10.12-7.2-20.16-10.5-30.34a225 225 0 0 1-4.94-17.32 2.02 2.02 0 0 0-2.94-1.2 44 44 0 0 0-11.91 10.53c-1.35 1.7-4.37 5.04-2.34 7.18a20 20 0 0 0 3.43 2.29q2 1.35 4.03 2.67v-3.46c-1.8 1.32-3.66 2.52-5.4 3.89-1.63 1.27-3.62 2.78-3.45 5.06a7 7 0 0 0 1.16 2.83l1.64 3q1.65 2.98 3.34 5.94a824 824 0 0 0 14.51 24.23q4.15 6.7 8.35 13.36c1.37 2.18 4.83.17 3.46-2.02-9.13-14.5-18.24-29.06-26.52-44.09l-1.63-2.99c-.05-.08-.28-.76-.33-.49 0-.03-.24.54.12-.09a6 6 0 0 1 1.22-1.14c1.74-1.48 3.7-2.67 5.54-4.02a2.03 2.03 0 0 0 0-3.46q-1.75-1.14-3.48-2.31a108 108 0 0 0-2.47-1.61c-.2-.13-.79-.74-.5-.22l.27 1 .02-.33-.27 1.01c1.2-2.84 3.58-5.28 5.75-7.4a39 39 0 0 1 7.48-5.9l-2.94-1.2a307 307 0 0 0 9.54 30.83c3.3 9.38 6.41 18.86 10.03 28.12 1.86 4.76 3.85 9.47 5.78 14.2a2.06 2.06 0 0 0 2.46 1.4 2 2 0 0 0 1.4-2.45Zm-240.1-88c-1.42 1.6-2.72 3.28-4.07 4.93-1.24 1.54-2.59 2.91-3.12 4.88-.75 2.76.46 4.61 1.86 6.79a97 97 0 0 0 5.4 7.56 28 28 0 0 0 6.24 6.23 2.05 2.05 0 0 0 2.74-.71c3.45-4.6 6.7-9.41 10.5-13.73a2.04 2.04 0 0 0-.4-3.14l-.98-.75-.2-.15-.4-.31-1.09-.85-5.54-4.35q-4.08-3.18-8.11-6.4a2.06 2.06 0 0 0-2.83 0 2 2 0 0 0 0 2.83c2.75 2.22 5.54 4.38 8.32 6.56 2.92 2.3 5.8 4.7 8.81 6.87l-.4-3.14c-4.04 4.57-7.48 9.66-11.13 14.54l2.74-.72a25 25 0 0 1-5.25-5.36 83 83 0 0 1-6.06-8.76c-.45-.74-.56-.81-.45-1.58.24-1.63 1.71-2.89 2.7-4.11 1.17-1.45 2.32-2.9 3.55-4.3 1.7-1.92-1.13-4.76-2.84-2.83m34.77 91.65c9.78-16.96 19.46-34 28.4-51.43.64-1.24 1.28-2.49.9-3.93a8 8 0 0 0-2.38-3.26 163 163 0 0 0-6.15-6l-.4 3.14 5.03-2.88c1.5-.85 3.37-1.62 3.24-3.65a7.4 7.4 0 0 0-1.66-3.42 31 31 0 0 0-2.63-3.17 69 69 0 0 0-12.9-10.41 2.02 2.02 0 0 0-2.94 1.2 601 601 0 0 1-18.97 66.16 346 346 0 0 1-5.96 15.57 2 2 0 0 0 1.4 2.46 2.05 2.05 0 0 0 2.46-1.4 512 512 0 0 0 20.05-61.78q2.62-9.93 4.88-19.95l-2.93 1.2a74 74 0 0 1 8.54 6.4 47 47 0 0 1 4.13 4.02 21 21 0 0 1 1.5 1.85 7 7 0 0 1 1.05 1.65l.27-1.01c.16-.3-.1 0-.3.12l-.83.48-1.89 1.07-3.57 2.04a2.02 2.02 0 0 0-.4 3.14q2.62 2.44 5.15 4.98l1.17 1.2c.25.26 1.1.88 1.14 1.21.06.57-.88 1.79-1.18 2.37q-3.12 6.04-6.35 12.03-6.66 12.37-13.63 24.56-3.82 6.73-7.7 13.43c-1.28 2.23 2.17 4.25 3.46 2.02Z" class="d"/><path d="M122.97 115.75q1.83 2.11 3.55 4.3c.99 1.23 2.46 2.48 2.7 4.12.11.75.03.79-.41 1.51q-.75 1.23-1.53 2.43a84 84 0 0 1-4.57 6.4 25 25 0 0 1-5.25 5.35l2.74.72c-3.65-4.87-7.1-9.97-11.13-14.54l-.4 3.14c3.02-2.16 5.9-4.57 8.82-6.86q4.17-3.26 8.32-6.56a2 2 0 0 0 0-2.83 2.05 2.05 0 0 0-2.83 0q-4.03 3.22-8.11 6.4l-5.47 4.28-1.1.85-.47.38-.28.21-.5.39-.4.3a2.04 2.04 0 0 0-.4 3.13c3.81 4.32 7.05 9.13 10.5 13.73a2.04 2.04 0 0 0 2.74.72 28 28 0 0 0 6.25-6.23 96 96 0 0 0 5.39-7.57c1.4-2.17 2.61-4.03 1.86-6.79-.53-1.96-1.88-3.34-3.12-4.87-1.35-1.65-2.65-3.34-4.06-4.93-1.72-1.94-4.54.9-2.84 2.82m75.69 131.12a1997 1997 0 0 0-5.54-51.44c-1.1-9.35-1.94-18.83-4.12-28-2.36-9.94-6.43-19.56-14.4-26.28-9.64-8.12-22.1-12.25-33.68-16.74a2 2 0 0 0-2.46 1.4 2.05 2.05 0 0 0 1.4 2.46c10.1 3.92 20.73 7.54 29.6 13.92a35 35 0 0 1 9.42 9.96 52 52 0 0 1 5.57 13.61c2.44 8.96 3.32 18.22 4.4 27.41q1.68 14.26 3.22 28.53c.9 8.38 1.83 16.77 2.59 25.17a2.05 2.05 0 0 0 2 2 2 2 0 0 0 2-2M45.04 142c8.97-6.77 19.6-11 30.16-14.58 2.42-.82 1.38-4.68-1.06-3.85-10.87 3.68-21.9 8.01-31.12 14.98a2.06 2.06 0 0 0-.72 2.73 2 2 0 0 0 2.74.72" class="d"/></svg>
