<svg xmlns="http://www.w3.org/2000/svg" viewBox="-6.88 0 357.246 357.246"><defs><style>.a{fill:#fff}.b{fill:#211715}</style></defs><path d="M171.22 173.6c-.96-.42-14.9-8.46-17.48-14.85-1.12-2.78-1.36-6.23-1.4-9.6 11.02-7.14 19.52-21.88 21.14-26.29a52 52 0 0 0 2.35-6.36l.65.11a8.8 8.8 0 0 0 6.81-1.96c4.27-3.5 6.03-8.35 7.11-11.53 1.53-4.5 1.62-11.75-.65-15.68-.76-1.32-2.53-3.57-6.68-3.71a8 8 0 0 0-5.8 2.12s5.31-46.43-49.85-46.43c-59.34 0-52.68 46.43-52.68 46.43a8 8 0 0 0-5.8-2.12c-4.15.14-5.92 2.39-6.68 3.7-2.27 3.94-2.17 11.2-.65 15.69 1.08 3.18 2.85 8.04 7.11 11.53a8.7 8.7 0 0 0 7.37 1.84 61 61 0 0 0 11.57 21.82 49 49 0 0 0 12.8 11.24c-.02 3.6-.2 7.34-1.41 10.32-2.6 6.39-14.34 13.31-15.3 13.73 0 0 4.11 29.82 40.56 29.82s46.91-29.82 46.91-29.82" class="a"/><path d="M149.94 149.42c.08 4.05.3 8.6 2.55 12.1a28 28 0 0 0 6.08 6.42 78 78 0 0 0 7.33 5.3 34 34 0 0 0 4.11 2.43 2.47 2.47 0 0 0 3.28-.86 2.4 2.4 0 0 0-.86-3.28 32 32 0 0 1-3.7-2.18 71 71 0 0 1-6.3-4.43 43 43 0 0 1-3.3-2.9 21 21 0 0 1-2.23-2.52 11 11 0 0 1-.92-1.57c.26.55-.2-.52-.2-.57a17 17 0 0 1-.44-1.58 31 31 0 0 1-.6-6.36c-.05-3.08-4.85-3.1-4.8 0m-64.99 26.26a29 29 0 0 0 3.96-2.42 59 59 0 0 0 6.77-5.24 22 22 0 0 0 5.24-6.48c1.76-3.73 1.91-8.03 1.93-12.09.02-3.08-4.78-3.09-4.8 0a44 44 0 0 1-.29 5.76 15 15 0 0 1-1.22 4.36 20 20 0 0 1-4.72 5.47 52 52 0 0 1-5.75 4.35 27 27 0 0 1-3.54 2.14 2.4 2.4 0 0 0-.86 3.29 2.46 2.46 0 0 0 3.28.86" class="b"/><path d="M90.6 162.55a61 61 0 0 0-11.03 9.02l-2.65 1.11c-11.4 4.76-25.94 10.75-37.07 16.12-3.43 1.66-8.35 3.23-11.32 5.6s-5.63 5.93-7.4 11.85C14.94 226.85 7.29 287 2.4 354.55h201.25c-.02-11.12-.6-18.43-.6-28.29 0-7.54-.13-14.45.36-21.56l2.3 2.39c5.42 5.6 14.1 15.12 21.54 19.5a33 33 0 0 0 28.9 2.4c12.52-4.66 18.72-16.73 22.86-29.43 5.96-18.28 9.58-37.64 13.3-55.68-11.2-1.29-29.46-7.55-41-12.24-2.24 7.58-4.3 14.6-6.45 21.69-6.72-18.31-8.3-29.68-15.63-48.77a29 29 0 0 0-6.04-9.85c-2.59-2.78-6.6-3.56-10.03-5.22-11.13-5.37-25.67-11.36-37.08-16.12l-1.94-.82a62 62 0 0 0-11.96-10c-4.98 21.36-13.84 44.42-20.85 65.2L127.2 269.6c-6.28-15.57-10.43-26.05-15.76-41.83-7.02-20.78-15.87-43.84-20.85-65.2" style="fill:#b3b3b3"/><path d="M263.99 189.56c2.93-7.05 5.23-11.37 9.02-18.68.24-.46 1.92-2.8 3.52-3.27a4.1 4.1 0 0 1 4.09 1.05 5.3 5.3 0 0 1 1.67 3.8 50 50 0 0 1-2.24 14.66c8.5-1.14 25.5-9.22 34.57-14.01 2.18-1.15 4.35-2.47 6.8-2.82 2.52-.37 7 1.38 7.87 3.8 3.45-1.66 5.33-1.63 7.47-.82 2.55.98 3.3 2 3.8 3.43a6.2 6.2 0 0 1-.22 4.97 2 2 0 0 0-.23.69 1.4 1.4 0 0 0 .25.7 7.7 7.7 0 0 1-1.8 8.96 4.3 4.3 0 0 1-.45 5c-6.57 7.46-30.04 21.15-43.44 26.32a6 6 0 0 0-2.06 1.1 6 6 0 0 0-1.33 2.37c-.83 2.3-1.46 3.9-2.14 5.97-6.1-1.7-20.66-5.81-28.81-8.86a48 48 0 0 0 1.61-7.14l.16-1.83c-1.45-7.92-1.99-15.78 1.03-23.3z" class="a"/><path d="M283.35 188.92c6.36-1.54 12.48-4.2 18.43-6.88q4.68-2.1 9.26-4.4c2.83-1.41 5.6-3.18 8.52-4.36a6.2 6.2 0 0 1 4.4-.34 8 8 0 0 1 2.08.96 4 4 0 0 1 .58.47c.02.01.4.43.27.28-.08-.11.23.42.1.08a2.46 2.46 0 0 0 3.52 1.43c1.75-.82 3.37-1.3 5.06-.77a6 6 0 0 1 2.16 1.12 2 2 0 0 1 .48.72c-.1-.24 0 0 .04.11a6 6 0 0 1 .27.95c.22 1.26-.41 2.1-.69 3.25-.31 1.34.4 2.27.7 3.43a5.4 5.4 0 0 1-1.19 4.88c-2.04 2.3 1.34 5.71 3.4 3.4a10.6 10.6 0 0 0 2.68-5.98 10 10 0 0 0-.12-2.96c-.17-.91-.69-1.71-.88-2.59V183a29 29 0 0 0 .91-3.37 9 9 0 0 0-.46-3.56 7.4 7.4 0 0 0-3.16-4.04 11.3 11.3 0 0 0-5.45-1.7 14 14 0 0 0-6.18 1.69l3.53 1.44c-1.36-3.29-4.83-5.07-8.23-5.51-4.02-.53-7.6 1.85-11 3.63a216 216 0 0 1-19.56 9.1 79 79 0 0 1-10.75 3.61c-3 .73-1.73 5.36 1.27 4.63Z" class="b"/><path d="M341.27 192.29c-.41-3.07-4.2-4.24-6.83-3.71a17 17 0 0 0-4.04 1.77l-4.23 2.14c-5.45 2.76-10.93 5.6-16.8 7.3-2.96.87-1.7 5.5 1.27 4.64a91 91 0 0 0 14.8-6.2l7.2-3.63c.9-.45 2.06-1.33 3.09-1.39a4 4 0 0 1 .77.13s.35.24.22.14-.14-.42-.07.09a2.4 2.4 0 0 0 2.95 1.68 2.47 2.47 0 0 0 1.68-2.96Zm.05-11.94a6 6 0 0 0-4.58-1.75 10 10 0 0 0-4.33 1.24c-3.3 1.49-6.5 3.16-9.82 4.61-5.42 2.37-11.03 5.04-16.33 7.2a2.5 2.5 0 0 0-1.68 2.95 2.4 2.4 0 0 0 2.96 1.68c5.32-2.18 10.53-4.65 15.8-6.96q4.4-1.95 8.75-4.05c1.2-.58 2.42-1.2 3.67-1.7a2.4 2.4 0 0 1 2.17.18 2.4 2.4 0 0 0 3.39 0 2.45 2.45 0 0 0 0-3.4" class="b"/><path d="M336.64 193.57c.44 1.6-1.04 2.66-2.11 3.65a54 54 0 0 1-3.7 3.08c-3.56 2.69-7.3 5.13-11.1 7.46a172 172 0 0 1-24.18 12.66 27 27 0 0 0-3.52 1.48 7.6 7.6 0 0 0-3.06 4.28 135 135 0 0 0-2.96 8.56c-.9 2.96 3.73 4.23 4.62 1.27.8-2.62 1.73-5.19 2.68-7.76.37-1.02.58-1.98 1.63-2.46.96-.43 1.97-.77 2.94-1.18 4.23-1.78 8.35-3.8 12.4-5.94a165 165 0 0 0 24.13-15.12c3.54-2.75 8.26-6.15 6.87-11.26-.81-2.98-5.44-1.71-4.63 1.27Zm-71.72 23.41a60 60 0 0 1-1.52-15.48c.3-5.09 2.14-9.67 4.18-14.28 1.8-4.04 3.8-7.97 5.83-11.9.92-1.78 3.53-8.02 6-4.36a5 5 0 0 1 .44 3.1 55 55 0 0 1-.3 4.02 44 44 0 0 1-1.89 8.66c-.94 2.95 3.69 4.21 4.63 1.28a50 50 0 0 0 1.98-9.28c.31-2.57.87-5.74.15-8.26a7.3 7.3 0 0 0-6.05-5.38c-2.66-.28-4.8 1.14-6.4 3.13a37 37 0 0 0-3.58 6.35 228 228 0 0 0-3.34 6.7c-2.44 5.15-5.1 10.53-6 16.2-1.1 6.96-.14 13.93 1.25 20.78a2.4 2.4 0 0 0 2.95 1.68 2.45 2.45 0 0 0 1.67-2.96m63.16-44.96c-4.32 2.02-8.47 4.42-12.78 6.49-5.04 2.41-9.92 5.14-14.88 7.71-2.74 1.43-.32 5.57 2.42 4.15 4.96-2.58 9.85-5.3 14.88-7.72 4.31-2.06 8.46-4.46 12.79-6.49a2.4 2.4 0 0 0 .86-3.28 2.45 2.45 0 0 0-3.29-.86" class="b"/><path d="M296.43 191.02q7.18 5.98 13.76 12.63a2.4 2.4 0 1 0 3.4-3.4q-6.57-6.64-13.76-12.63a2.45 2.45 0 0 0-3.4 0 2.43 2.43 0 0 0 0 3.4" class="b"/><path d="M308.57 200.1q-4.2.1-8.4.43a34 34 0 0 0-7.99 1.23 17.2 17.2 0 0 0-10 8.65 2.46 2.46 0 0 0 .86 3.28 2.4 2.4 0 0 0 3.29-.86 12.5 12.5 0 0 1 7.85-6.66 36 36 0 0 1 6.7-.9q3.85-.28 7.7-.36c3.08-.07 3.1-4.87 0-4.8Zm-49.03 16.68c-.02.21-.13.84.01-.02l-.08.51-.23 1.21q-.31 1.41-.68 2.8-.7 2.6-1.44 5.2a2.4 2.4 0 1 0 4.63 1.28c.99-3.6 2.25-7.24 2.59-10.98a2.4 2.4 0 0 0-2.4-2.4 2.46 2.46 0 0 0-2.4 2.4" class="b"/><path d="M290.53 233.17c-5.29-1.46-24.14-6.72-32.25-10.05-.78 1.96-2.36 6.73-3.35 9.3l-.22.56c10.25 3.99 24.08 8.6 34.15 10.38l.06-.2c.99-3.14 2.4-8.75 2.74-9.68Z" class="a"/><path d="M247.18 252.67c-5.14-14.03-8.45-28.64-13.41-42.73a67 67 0 0 0-4.69-11.33c-1.83-3.16-4.25-6.33-7.5-8.11a42 42 0 0 0-4.95-2.14c-1.63-.63-3.18-1.4-4.76-2.15a430 430 0 0 0-10.45-4.72c-8.19-3.59-16.44-7-24.7-10.44a2.4 2.4 0 0 0-2.95 1.67 2.46 2.46 0 0 0 1.68 2.96c6.92 2.88 13.84 5.75 20.72 8.72 6.84 2.96 13.51 6.35 20.44 9.08a15 15 0 0 1 4.07 2.14 17 17 0 0 1 3.22 3.75 45 45 0 0 1 4.62 10.11c2.5 6.89 4.59 13.9 6.6 20.94 2.27 7.91 4.6 15.8 7.43 23.53a2.47 2.47 0 0 0 2.96 1.68 2.4 2.4 0 0 0 1.67-2.96" class="b"/><path d="M129.03 171.8a1 1 0 0 0-.2.2h-4.64a6 6 0 0 0-2.05-1.16c-10.57-4.25-19.38-10.74-23.25-15.93-3.8 3.5-5.01 6.21-7.5 10.96 5.1 20.41 13.4 42.17 20.06 61.88 5.33 15.78 9.48 26.26 15.76 41.83l14.12-41.83c6.7-19.81 15.05-41.69 20.13-62.19-2.38-4.55-3.61-7.22-7.34-10.65-3.86 5.2-12.68 11.68-23.24 15.93a9 9 0 0 0-1.85.95" class="a"/><path d="M144.81 189.66a104 104 0 0 0 16-25.33c-1.98-3.83-3.32-6.31-6.7-9.42-3.86 5.2-12.67 11.68-23.24 15.93a6 6 0 0 0-2.05 1.16c-.25.47.24.89.47 1.26.37.58 2.15 2.07 5.19 5.4 3.45 3.78 7.48 7.6 10.33 11m-36.61 0a104 104 0 0 1-16-25.33c1.99-3.83 3.32-6.31 6.7-9.42 3.86 5.2 12.67 11.68 23.24 15.93a6 6 0 0 1 2.05 1.16c.25.47-.24.89-.47 1.26-.37.58-2.15 2.07-5.19 5.4-3.45 3.78-7.48 7.6-10.33 11" class="a"/><path d="M129.45 175h-7.4c-.87.86-2.05 2.05-3.52 3.66q-1.19 1.3-2.43 2.6c.58 3.01.99 4.92 1.63 7.66q.15.72.35 1.44a13 13 0 0 1 .51 3.17c0 .62-3.02 22.66-5.13 40.1 4.42 12.7 8.28 22.4 13.75 35.95l12.95-38.37c-2.66-17.78-5.47-36.35-5.45-37.33a19 19 0 0 1 1.24-5.63c.74-2.28 1.2-4.28 1.69-6.25a155 155 0 0 1-3.16-3.34 96 96 0 0 0-3.53-3.67Z" style="fill:#3d8dcc"/><path d="M119.33 195.79c4.96 0 9.93-.11 14.9-.12a2.4 2.4 0 0 0 0-4.8c-4.97 0-9.94.11-14.9.11a2.4 2.4 0 0 0 0 4.8" class="b"/><path d="M114.02 183.1q.64 3.24 1.4 6.46a15 15 0 0 1 .76 4.19c-.1 1.48-.37 2.97-.57 4.44l-2.66 20.35q-.9 7-1.76 14a2.4 2.4 0 0 0 2.4 2.4 2.46 2.46 0 0 0 2.4-2.4q1.5-12.15 3.1-24.32c.63-4.76 1.47-9.56 1.87-14.35a14 14 0 0 0-.63-4.4q-.94-3.8-1.68-7.66a2.4 2.4 0 0 0-2.96-1.67 2.45 2.45 0 0 0-1.67 2.95Zm16.64-10.5-8.84.01a2.4 2.4 0 1 0 0 4.8l8.84-.02a2.4 2.4 0 0 0 0-4.8m11.81 57.96L139 207.3l-1.27-8.64-.43-3.09c-.03-.18.06.44 0-.05l-.07-.44-.09-.79a9 9 0 0 1 .46-3.28c.58-2.1 1.3-4.16 1.84-6.29.75-3-3.88-4.27-4.63-1.27-.85 3.38-2.64 6.99-2.5 10.53.06 1.48.37 2.98.58 4.45q1.37 9.6 2.83 19.2l2.12 14.2a2.4 2.4 0 0 0 2.96 1.67 2.46 2.46 0 0 0 1.67-2.95m-19 42.62a51 51 0 0 0-2.8 16.5c.08 3.53.47 7.08.7 10.61.67 10.78 1.12 21.57 1.87 32.35q.77 11.1 1.75 22.2a2.46 2.46 0 0 0 2.4 2.4 2.4 2.4 0 0 0 2.4-2.4c-1.86-21.16-2.79-42.35-4.23-63.53a45 45 0 0 1 2.53-16.86c.96-2.95-3.67-4.2-4.63-1.28Z" class="b"/><path d="M159.87 161.91c-3.4 14.53-8.19 28.7-13.08 42.78q-7.48 21.52-14.76 43.1l-8.57 25.38c-.99 2.94 3.64 4.2 4.63 1.28l15.4-45.6c4.73-14 9.85-27.88 14.34-41.96a310 310 0 0 0 6.67-23.7c.7-3-3.92-4.3-4.63-1.28" class="b"/><path d="M160.97 164.62a55 55 0 0 1 10.1 8.2 56 56 0 0 1 4.57 5.12 33 33 0 0 1 2.42 3.57l.3.54.2.4q.17.34-.05-.18l.33-1.21q.25-.25-.11 0l-.65.36-.86.47-2.37 1.3-4.52 2.5a2.42 2.42 0 0 0-.48 3.77q3.35 3 6.57 6.13l1.35 1.33a9 9 0 0 1 1.64 1.68c.09.2.12-.05-.03.3-.32.75-.79 1.47-1.17 2.2q-4.04 7.55-8.22 15.03-8.63 15.44-17.62 30.65-4.95 8.42-9.96 16.8c-1.6 2.65 2.56 5.07 4.14 2.41 12.59-21.05 25.04-42.2 36.55-63.87.83-1.57 1.54-3.1.94-4.89-.52-1.58-1.9-2.73-3.05-3.87-2.5-2.51-5.12-4.91-7.75-7.3l-.48 3.78 6.02-3.33c1.75-.96 4.41-1.88 4.53-4.23.08-1.58-1.04-3.14-1.86-4.41a45 45 0 0 0-2.99-4.03 61 61 0 0 0-15.07-13.35c-2.64-1.62-5.05 2.53-2.42 4.14Zm-72.7-1.43c3.41 14.53 8.2 28.7 13.09 42.78 4.72 13.6 9.24 27.28 14.3 40.75 2.8 7.46 5.75 14.86 8.73 22.24a2.5 2.5 0 0 0 2.95 1.68 2.4 2.4 0 0 0 1.68-2.95 760 760 0 0 1-14.95-39.66c-4.74-14-9.84-27.89-14.35-41.97-2.55-7.97-4.9-16-6.8-24.15-.7-3-5.34-1.73-4.64 1.28Z" class="b"/><path d="M89.38 160.48a61 61 0 0 0-15.07 13.35 46 46 0 0 0-2.9 3.89c-.85 1.3-2.03 2.93-1.95 4.54.12 2.37 2.78 3.27 4.53 4.24l6.03 3.33-.49-3.77c-2.45 2.22-4.9 4.46-7.25 6.79a18 18 0 0 0-3.14 3.45 5.1 5.1 0 0 0 .11 5c2.65 5.32 5.67 10.48 8.6 15.65a1189 1189 0 0 0 19.46 32.83q5.5 9.01 11.1 17.98c1.62 2.62 5.77.21 4.14-2.42-12.6-20.28-25.14-40.61-36.54-61.59q-1.12-2.05-2.22-4.12a4 4 0 0 1-.47-.9c-.05-.31-.1.18.04-.14.28-.6 1.18-1.22 1.65-1.69 2.55-2.57 5.23-5.02 7.91-7.45a2.42 2.42 0 0 0-.48-3.77l-4.52-2.5-2.15-1.18-1.08-.6c-.17-.1-.95-.72-.75-.35l.32 1.21c.02.39-.14.33.09-.09l.3-.53q.34-.62.73-1.22.77-1.2 1.64-2.34a63 63 0 0 1 14.78-13.46c2.63-1.6.22-5.76-2.42-4.14m57.13 30.88a110 110 0 0 0 12.86-18.7q1.31-2.46 2.5-4.97a18 18 0 0 0 1.26-2.72c.32-1.2-.45-2.27-.99-3.27a32 32 0 0 0-6.33-8.48 2.45 2.45 0 0 0-3.77.49c-4.02 5.33-10.91 9.6-17.06 12.66-2 1-4.08 1.77-6.09 2.74-2.09 1-3.31 2.98-1.83 5.13 1.56 2.27 3.86 4.1 5.72 6.12 3.4 3.7 7.09 7.16 10.33 11a2.4 2.4 0 0 0 3.4 0 2.45 2.45 0 0 0 0-3.4c-3.05-3.6-6.5-6.86-9.72-10.33q-2.06-2.24-4.2-4.4-.6-.57-1.17-1.16c-.16-.15-.5-.66 0 .04-.07-.08-.39-.63-.35-.47v1.28l.07-.28-.62 1.06c-.24.29.25-.17.43-.27s.38-.19.56-.27c.81-.37 1.65-.68 2.46-1.03q2.14-.94 4.22-2a70 70 0 0 0 7.38-4.37 44 44 0 0 0 10.62-9.63l-3.77.49a31 31 0 0 1 6.32 8.93v-2.43a110 110 0 0 1-15.63 24.85 2.47 2.47 0 0 0 0 3.4 2.4 2.4 0 0 0 3.4-.01" class="b"/><path d="M109.9 187.96a110 110 0 0 1-15.63-24.84v2.42a31 31 0 0 1 6.32-8.93l-3.77-.48a44 44 0 0 0 10.62 9.62 70 70 0 0 0 7.38 4.37q1.98 1.02 4.01 1.91l2.45 1.04q.4.15.78.36c.16.08.72.6.43.26l-.62-1.05.07.27v-1.27c.04-.17-.28.38-.34.47.5-.7.15-.2 0-.05l-1.17 1.17a147 147 0 0 0-4.21 4.4c-3.21 3.46-6.67 6.71-9.72 10.33a2.47 2.47 0 0 0 0 3.4 2.4 2.4 0 0 0 3.4 0c2.85-3.39 6.06-6.45 9.1-9.67 1.4-1.5 2.77-3.02 4.22-4.47.7-.7 1.46-1.37 2.1-2.13 1.37-1.65 1.99-3.84-.03-5.3-1.65-1.2-3.82-1.79-5.66-2.65a70 70 0 0 1-10.89-6.33 38 38 0 0 1-7.77-7.11 2.45 2.45 0 0 0-3.77-.49 32 32 0 0 0-6.33 8.48c-.48.92-1.17 1.87-1.02 2.95a11 11 0 0 0 1.2 2.85q1.24 2.6 2.6 5.16a110 110 0 0 0 12.86 18.7 2.4 2.4 0 0 0 3.39 0 2.45 2.45 0 0 0 0-3.39M52.18 354.85c.02-9.94.58-19.87.6-29.81.02-11 .05-21.95-1.9-32.82q-5.53-30.74-9.47-61.74a1097 1097 0 0 1-3.67-31.93 2.47 2.47 0 0 0-2.4-2.4 2.4 2.4 0 0 0-2.4 2.4 1219 1219 0 0 0 7.47 59.34q2.32 15.6 5.04 31.13a150 150 0 0 1 2.18 15.83c.36 5.37.37 10.75.36 16.13-.03 11.3-.6 22.57-.61 33.87 0 3.08 4.8 3.09 4.8 0M215.5 200.44a1149 1149 0 0 1-7.49 58.8q-2.36 15.51-5.1 30.96a134 134 0 0 0-2 16.03c-.3 5.23-.3 10.47-.28 15.7.04 10.98.6 21.94.61 32.92 0 3.09 4.8 3.1 4.8 0-.01-9.54-.59-19.06-.6-28.6 0-10.53-.25-21.14 1.53-31.57 3.52-20.63 6.9-41.25 9.6-62q2.11-16.1 3.73-32.24a2.4 2.4 0 0 0-2.4-2.4 2.45 2.45 0 0 0-2.4 2.4" class="b"/><path d="M76.28 170.37q-22.07 9.2-43.84 19.05a23 23 0 0 0-8.17 5.77 28 28 0 0 0-5.19 9.55 108 108 0 0 0-2.84 11.28 478 478 0 0 0-5.52 32.91c-2.1 15.11-3.88 30.27-5.45 45.44Q2.5 320.96.52 347.62L0 354.55a2.4 2.4 0 0 0 2.4 2.4 2.45 2.45 0 0 0 2.4-2.4q1.93-26.56 4.55-53.07c1.52-15.3 3.23-30.57 5.26-45.81a575 575 0 0 1 5.42-34.23c.77-3.94 1.6-7.88 2.63-11.77 1.34-5.07 3.23-10.34 7.6-13.6 2.87-2.12 6.44-3.24 9.66-4.67 3.46-1.54 6.86-3.23 10.32-4.78 7.31-3.27 14.7-6.37 22.1-9.45q2.6-1.1 5.22-2.18a2.5 2.5 0 0 0 1.67-2.95 2.4 2.4 0 0 0-2.95-1.68Zm67.19 112.73c.26.24.48.53.74.77q-.37-.48-.15-.18l.34.56c.1.19.21.6-.02-.11l.15.42a6 6 0 0 1 .18.83l-.09-.64a6 6 0 0 1 0 1.52l.09-.64a7 7 0 0 1-.17.84l-.11.34c-.04.12-.23.6-.04.13s0-.02-.05.09l-.17.3-.18.28c-.24.39.42-.48.15-.17-.1.1-.5.65-.65.62.02 0 .56-.39.19-.15l-.18.11q-.2.13-.41.24l-.2.09c-.33.17.5-.19.23-.1l-.4.14a7 7 0 0 1-1 .22l.63-.09a7 7 0 0 1-1.81 0l.64.1a8 8 0 0 1-1.4-.37c.72.24.4.18.2.08l-.34-.18-.24-.16c-.33-.21.51.44.13.1a9 9 0 0 1-.63-.62c-.28-.31.35.5 0-.02l-.2-.3-.15-.32c-.19-.36.22.63.03.05a5 5 0 0 1-.17-.75l.09.64a5 5 0 0 1 0-1.3l-.09.64a6 6 0 0 1 .2-.91l.14-.42c.17-.45-.24.5-.02.07a9 9 0 0 1 .46-.83l.25-.37.13-.18c-.07.06-.39.47-.13.18l.28-.3c.1-.1.46-.4.1-.11s.04-.02.14-.09l.41-.23c.03-.01.17-.1.2-.1 0 0-.6.23-.28.12l.42-.14a7 7 0 0 1 .98-.2l-.64.08a7 7 0 0 1 1.58 0l-.64-.09.66.14.27.08c.1.03.5.19.08.01-.4-.17-.07-.03.02.02l.3.16.28.18c.34.22-.46-.38-.13-.1a2.6 2.6 0 0 0 1.7.7 2.4 2.4 0 0 0 1.7-4.1 7.6 7.6 0 0 0-4.9-1.86 8 8 0 0 0-4.52 1.24 8.6 8.6 0 0 0-3.6 8.65 7.5 7.5 0 0 0 3.05 4.35 8.37 8.37 0 0 0 11.58-2.63 8.4 8.4 0 0 0 .97-4.49 8 8 0 0 0-2.58-5.25 2.4 2.4 0 0 0-3.4 3.4Zm147.77-39.3c.99-3.2 1.66-6.52 2.73-9.69a2.43 2.43 0 0 0-1.67-2.95c-8.7-2.4-17.39-4.85-25.96-7.68-2.5-.83-4.98-1.68-7.42-2.67-1.29-.53-2.52.59-2.95 1.67-1.21 3.07-2.17 6.23-3.35 9.3a2.4 2.4 0 0 0 1.67 2.95 2.45 2.45 0 0 0 2.95-1.67c1.18-3.08 2.15-6.24 3.36-9.3l-2.95 1.67c9.4 3.84 19.38 6.45 29.15 9.19l4.22 1.17-1.67-2.95c-1.08 3.17-1.75 6.48-2.74 9.68-.92 2.96 3.71 4.22 4.63 1.28" class="b"/><path d="M238.85 280.06c5.33-15.8 10.05-31.8 14.79-47.79l-2.95 1.68q10.24 4.15 20.81 7.45a117 117 0 0 0 20.82 4.87l-2.32-3.03c-2.28 11.03-4.43 22.09-7.04 33.05a314 314 0 0 1-4.43 16.75 119 119 0 0 1-4.7 13.6c-3.3 7.6-8.06 14.86-15.57 18.8a30.9 30.9 0 0 1-28.24-.05c-4.5-2.36-8.36-5.76-12.02-9.24s-7.1-7.14-10.59-10.76c-2.15-2.23-5.54 1.17-3.4 3.4 6.6 6.81 13.08 14.24 21.16 19.35a35.8 35.8 0 0 0 30.72 3.49c8.98-3.1 15.56-9.87 19.96-18.14 4.98-9.37 7.72-19.94 10.32-30.16 3.27-12.84 5.78-25.85 8.46-38.82a2.45 2.45 0 0 0-2.32-3.04c-6.6-.78-13.46-2.8-19.92-4.82q-10.36-3.24-20.43-7.33A2.43 2.43 0 0 0 249 231c-4.74 16-9.46 31.98-14.8 47.79-.98 2.93 3.65 4.2 4.64 1.27Z" class="b"/><path d="M181.4 35.16a46 46 0 0 0-8.81-10.34l-8.19-7.28c-10.61-11.83-24.72-15.1-38.63-15.1a63 63 0 0 0-39 12.82 57 57 0 0 0-11 11.45c-7.12 6.97-12.8 22.21-12.38 37.32a79 79 0 0 0 2.5 20.29 9 9 0 0 1 3.05-.6 8 8 0 0 1 5.8 2.13l2.3 1.61a86 86 0 0 1 1-9.21c1.06-6.48 7.78-9.46 10.63-15.24 1.65-3.33 2.63-7.22 5.44-9.6 2.12-1.77 4.95-2.38 7.67-2.67 4.23-.44 18.51.2 23.3 1.08 4.04.22 7.95 1.03 13.72 1.76a218 218 0 0 1 11.14 1.87c8.73 2 12.07 4.18 16.45 10.12 1.68 2.28 3.47 6.43 5.12 11.83l5.76 8.45a8 8 0 0 1 5.8-2.12 10 10 0 0 1 2.84.5c1.9-7.55 2.7-13.24 2.42-20.2-.57-13.35-2.77-22-6.92-28.87" style="fill:#85807f"/><path d="M117.46 128.97a21 21 0 0 0 9.96 2.3c3.55-.03 7.15-.72 10-2.93a2.4 2.4 0 0 0 0-3.4 2.46 2.46 0 0 0-3.4 0c.72-.55.12-.1-.07.02q-.3.2-.62.36c-.15.08-.9.39-.28.16q-.42.16-.86.3a14 14 0 0 1-5.1.69 15 15 0 0 1-4.86-.66l-.93-.31-.3-.12c.6.18.19.09.03.01q-.58-.27-1.14-.57a2.45 2.45 0 0 0-3.29.87 2.43 2.43 0 0 0 .86 3.28m8.84-23.58a48 48 0 0 1 1.11 5.09l-.08-.64a3 3 0 0 1 .01.7l.09-.64-.08.32.25-.58-.12.2.38-.48-.17.16.49-.37-.4.2.57-.23a3 3 0 0 1-.68.2l.64-.09a3 3 0 0 1-.64 0l.64.09-.71-.13a2.7 2.7 0 0 0-1.85.24 2.4 2.4 0 0 0-.86 3.29 2.3 2.3 0 0 0 1.43 1.1c.53.07 1.04.2 1.58.23a5 5 0 0 0 2.3-.55 3.3 3.3 0 0 0 1.83-2.16 5.5 5.5 0 0 0-.03-2.36 56 56 0 0 0-1.07-4.87 2.4 2.4 0 0 0-4.63 1.28M99.1 91.05c-.84 2.76-.3 9.1 4.94 9.65 6.9-.05 7.28-7.72 4.95-11.33-1.9-2.95-7.5-4.18-9.88 1.68m55.54 0c.85 2.76.3 9.1-4.93 9.65-6.9-.05-7.27-7.72-4.95-11.33 1.9-2.95 7.5-4.18 9.88 1.68m-78.21-6.9a11.1 11.1 0 0 0-12.2-1.72c-3 1.43-4.72 4.39-5.48 7.52-1.77 7.34.09 15.7 4.3 21.92 3.04 4.51 7.45 7.85 13.12 7.06a2.4 2.4 0 0 0 1.68-2.95 2.46 2.46 0 0 0-2.95-1.68c-3.2.44-5.96-2.3-7.6-4.7a28 28 0 0 1-3.47-7.42A22 22 0 0 1 63 93.4a14 14 0 0 1 .9-3.94 9 9 0 0 1 .7-1.25c.08-.13.35-.45.1-.15q.26-.3.54-.58a5 5 0 0 1 1.4-.9 7 7 0 0 1 1.87-.43 6 6 0 0 1 4.52 1.4c2.28 2.07 5.69-1.31 3.4-3.4Zm102.54 3.4a5.66 5.66 0 0 1 8.2.35c.31.33-.1-.19.13.16q.2.3.37.6a11 11 0 0 1 1.2 3.76 24.2 24.2 0 0 1-3.45 16.09c-1.67 2.77-4.65 6.3-8.3 5.8a2.5 2.5 0 0 0-2.96 1.67 2.4 2.4 0 0 0 1.68 2.95c9.26 1.28 14.68-8 17.02-15.62a27 27 0 0 0 .67-11.98c-.52-3.24-1.89-6.34-4.64-8.25a11 11 0 0 0-13.32 1.08c-2.29 2.08 1.11 5.46 3.4 3.4Z" class="b"/><path d="M174.48 112.1a67 67 0 0 1-3.51 10.64c.1-.28.1-.24-.08.15l-.27.59-.76 1.51a66 66 0 0 1-2.08 3.63 64 64 0 0 1-13.84 16.41 25.5 25.5 0 0 1-10.23 5.3c-3.01.7-1.74 5.32 1.27 4.63 7.76-1.79 14.21-7.47 19.27-13.35a70 70 0 0 0 10.79-16.3l.48-1.12.18-.45.13-.29.4-.93q.33-.79.63-1.59a51 51 0 0 0 2.25-7.56 2.46 2.46 0 0 0-1.68-2.95 2.4 2.4 0 0 0-2.95 1.67Zm-101.73 1.1a64 64 0 0 0 9.02 21.22c4.6 6.93 10.65 13.42 17.98 17.5a36 36 0 0 0 12.17 4.18 2.5 2.5 0 0 0 2.96-1.68 2.4 2.4 0 0 0-1.68-2.95c-15.24-2.25-26.62-15.45-32.43-28.97a61 61 0 0 1-3.39-10.57c-.68-3.02-5.3-1.74-4.63 1.27m93.35-97.36a47.7 47.7 0 0 0-27.33-14.7 72 72 0 0 0-31.94 1.44 62 62 0 0 0-26.85 15.5 57 57 0 0 0-5.67 6.57c-1.27 1.73-2.83 3.24-4.06 5.03a52 52 0 0 0-6.52 14.18 65 65 0 0 0-2.75 19.72 89 89 0 0 0 2.38 20.6c.77 3 5.4 1.72 4.63-1.27a76 76 0 0 1-2.17-17.2 66 66 0 0 1 1.45-16.44 53 53 0 0 1 5.26-14.14 32 32 0 0 1 3.49-5.15c.69-.81 1.44-1.53 2.07-2.4q1.2-1.65 2.55-3.19A56.4 56.4 0 0 1 104.67 8.3a67 67 0 0 1 29.56-3c10.93 1.21 21.03 5.73 28.47 13.94 2.08 2.3 5.47-1.11 3.4-3.4m22.29 68.34a75 75 0 0 0 2.38-16.22 94 94 0 0 0-1.08-15.29c-1.06-7.36-3.27-14.65-7.57-20.8a52 52 0 0 0-7.83-8.75c-2.29-2.07-5.7 1.31-3.4 3.4 4.69 4.25 8.61 9.03 10.95 14.8 3.1 7.68 4 16.27 4.14 24.49a67 67 0 0 1-2.22 17.1c-.74 3 3.9 4.28 4.63 1.28Z" class="b"/><path d="M125.7 49.5a95 95 0 0 0-12.48-1.12 74 74 0 0 0-11.83 0c-3.11.36-6.17 1.09-8.67 3.09-2.3 1.83-3.58 4.48-4.7 7.12a24 24 0 0 1-3.76 6.62c-1.63 1.87-3.5 3.52-5.05 5.45a16.5 16.5 0 0 0-3.7 8.3c-.48 3.2-.72 6.4-.97 9.62a2.4 2.4 0 0 0 2.4 2.4 2.45 2.45 0 0 0 2.4-2.4c.36-4.64.08-10.18 2.94-14.1 2.8-3.83 6.76-6.53 8.8-10.96 1.09-2.36 1.88-5 3.46-7.1 1.53-2.02 3.9-2.78 6.32-3.16a57 57 0 0 1 10.73-.15 186 186 0 0 1 10.73.72l.61.07.37.05q.57.08 1.13.18a2.47 2.47 0 0 0 2.96-1.68 2.4 2.4 0 0 0-1.68-2.95Zm23.6 8.27a39 39 0 0 1 7.45 2.34 16 16 0 0 1 4.97 3.58c3.86 3.98 5.83 9.02 7.47 14.35.9 2.94 5.54 1.68 4.63-1.28a59 59 0 0 0-3.92-10.04 28 28 0 0 0-4.79-6.43c-3.94-4.06-9.13-5.9-14.53-7.15-3-.7-4.29 3.93-1.28 4.63m-7.87-5.82c-.8-3.36-3.43-6.23-6.08-8.29a30.7 30.7 0 0 0-15.1-5.92 2.4 2.4 0 0 0-2.4 2.4 2.46 2.46 0 0 0 2.4 2.4 28 28 0 0 1 7.06 1.9l1.21.56q.73.37 1.43.77.66.39 1.3.81l.66.46c.08.05.6.44.22.15a20 20 0 0 1 2 1.78q.4.4.77.83l.4.49q.16.2-.11-.15l.2.28a14 14 0 0 1 1.04 1.72l.18.37c-.33-.58-.1-.27-.05-.08q.14.4.24.8a2.4 2.4 0 0 0 4.63-1.28" class="b"/></svg>
