<svg xmlns="http://www.w3.org/2000/svg" viewBox="-43.17 0 278.734 278.734"><defs><style>.b{fill:#fff}.c{fill:#211715}</style></defs><path d="M167.47 96.45c-1.84-10.2-4.5-18.5-7.06-30.6-2.14-10.2-3.23-23.29-7.49-32.12-3.19-6.6-9.8-16.8-19.97-21.49l-6.46-3.71-1.41-.81A68 68 0 0 0 97.71 2.4c-18.85 0-34.45 8.76-41.9 16-8.34 9-11.76 18-15.67 34.97a782 782 0 0 0-7.08 35.79c-1.73 10.12-1.9 20.3 2.83 29.27 5.42 10.27 15.56 15.19 30.84 17.01l65.63.88c14.48.67 24.92-5.44 30.9-16.01a36 36 0 0 0 4.21-23.49" style="fill:#85807f"/><path d="M45.5 100.86a17 17 0 0 0 3.44 3.89 7.9 7.9 0 0 0 6.5 1.7 55 55 0 0 0 10.14 18.8q.68.8 1.38 1.58l.67 3.13.71 3.3c.73 3.25 1.56 6.76 2.47 10.4 8.2 7.92 19.3 11.54 30.45 11.24q1.5.04 2.98-.02c.24-9.04 3.03-16.62 14.71-20.48a36.5 36.5 0 0 0 19.87-25.12c.9-3.24 2.57-15.22 7.31-12.38l.97-4.05s1.36-5.7 4.28-7.25a4.2 4.2 0 0 1 4.34.01 4.8 4.8 0 0 1 2.15 3l.32 2.56c.57-3.79.26-8.31-1.33-11.05a6.7 6.7 0 0 0-6.04-3.36 7.3 7.3 0 0 0-5.24 1.92l-6.25-6.57A253 253 0 0 0 122.9 43.6c-10.43 8.7-16.1 12.37-34.95 21.32-10.27 4.88-17.47 7.01-26.75 9.85l-6.8 3.93a7.3 7.3 0 0 0-5.25-1.92 6.7 6.7 0 0 0-6.05 3.36c-2.05 3.56-1.96 10.12-.59 14.19a29 29 0 0 0 3 6.54" class="b"/><path d="M30.74 88.51c-1.78 10.62-2.02 21.83 3.3 31.54 3.81 6.96 10.17 11.67 17.51 14.42a66 66 0 0 0 15.18 3.36 2.4 2.4 0 0 0 2.4-2.4 2.46 2.46 0 0 0-2.4-2.4c-7.48-.9-15.22-2.71-21.43-7.2s-9.73-11.9-10.65-19.44a58 58 0 0 1 .72-16.6 2.47 2.47 0 0 0-1.68-2.96 2.4 2.4 0 0 0-2.95 1.68" class="c"/><path d="M127.7 6.46a47 47 0 0 0-11.73-4.33A73 73 0 0 0 99.37.01a67.6 67.6 0 0 0-32.08 7.47 59 59 0 0 0-10.92 7.19 42 42 0 0 0-7.97 9.27c-5.1 7.74-7.71 16.82-9.87 25.75-3.1 12.83-5.48 25.83-7.8 38.82a2.47 2.47 0 0 0 1.68 2.96 2.4 2.4 0 0 0 2.95-1.68 782 782 0 0 1 6.62-33.76c2.02-8.96 4.1-18.23 8.56-26.34a46 46 0 0 1 6.75-9.36 40 40 0 0 1 8.79-6.68 62 62 0 0 1 28.5-8.77 69 69 0 0 1 17.94 1.37 65 65 0 0 1 7.66 2.16q1.83.64 3.61 1.36c.1.04.6.3.12.04l.46.26.91.53c2.68 1.54 5.1-2.6 2.42-4.14m7.2 9.55c8.8 5.47 15.32 15.16 18.19 25a157 157 0 0 1 3.61 17.9 251 251 0 0 0 3.95 18.62c1.6 6.5 3.3 12.97 4.5 19.56a2.4 2.4 0 0 0 2.96 1.67 2.45 2.45 0 0 0 1.67-2.95c-2.26-12.44-6.11-24.51-8.24-36.98a184 184 0 0 0-3.61-18.34 51 51 0 0 0-6.53-14.34 46.5 46.5 0 0 0-14.07-14.29c-2.63-1.64-5.04 2.52-2.42 4.15Z" class="c"/><path d="M7.04 187.02a260 260 0 0 0-4.53 45.27c-.3 12.82 3 23.66 8.14 29.58 8.97 10.34 27.04 12.42 39.68 12.3a709 709 0 0 0 38.17-1.3 1 1 0 0 0 .95-.98c-.28-12.13-.46-29.42-.7-38.46a69 69 0 0 0 14.86-2.45l.7-.22c.48 4.05.98 7.73 1.5 10.6a55 55 0 0 0 6.61 19.13c4.14 6.8 9.22 11.25 17.2 13.96l.4.13c9.7 3.17 21.3 2.13 30-3.4a45 45 0 0 0 16.92-18.45c9.72-20.64 13.61-43.8 12.93-67.12-.57-19.3-5.4-28.3-12.1-36.36-6.07-6.56-13.62-10.98-22.7-14.69-2.52 7.36-6.92 11.4-15.03 17.52a27 27 0 0 1-3.95 2.37 7.3 7.3 0 0 0-3.75 7.49q.16 1.14.3 1.95c-9.46 1.05-19.12 1.69-28.6 3.14a3 3 0 0 0-2.27 3.03c-.38 10.2-.35 20.03.05 29.95.21 5.45.76 13.27 1.48 21h-4.7a356 356 0 0 1-15.42-36.34 445 445 0 0 1-14.84-51.4l-.7-3.3-.69-3.16-.25.07-9.32 2.58c-14.33 4.45-26.12 10.1-34.43 18.81-7.04 8.22-12.27 19.86-15.91 38.75" style="fill:#b3b3b3"/><path d="m98.52 220.86.08.15h4.7a425 425 0 0 1-1.49-21 388 388 0 0 1-.04-29.94 3 3 0 0 1 2.27-3.04l.79-.12a116 116 0 0 1-.58-12.01q-1.5.05-2.99 0c-11.15.3-22.25-3.3-30.45-11.22 3.43 13.63 8.02 29.22 12.37 41a356 356 0 0 0 15.34 36.17" class="b"/><path d="M165.16 97.46c2.4 14.53-5.76 30.49-20.16 34.98a37 37 0 0 1-12.64 1.48c-3.09-.13-3.08 4.67 0 4.8 8.1.33 16.46-1.38 23.13-6.17a36.2 36.2 0 0 0 13.72-20.77 39 39 0 0 0 .58-15.6 2.4 2.4 0 0 0-2.96-1.68 2.46 2.46 0 0 0-1.67 2.95Z" class="c"/><path d="m88.9 239.76-.13-6.33a67 67 0 0 0 15.55-2.67c.47 4.05.98 7.73 1.48 10.6 1.6 9.74 5.3 18.36 9.28 22.78a25.4 25.4 0 0 1-11 3.29c-4.66.07-9.9.15-14.75.2-.17-9.08-.3-19.74-.44-27.87" class="b"/><path d="M91.46 116.87a19 19 0 0 0 9 2.09 14.7 14.7 0 0 0 9.1-2.7 2.4 2.4 0 0 0 0-3.39 2.5 2.5 0 0 0-3.4 0c.74-.57.19-.14 0-.02a8 8 0 0 1-.86.47c-.32.16-.1-.1.11-.04-.14-.04-.61.23-.76.28a14 14 0 0 1-2.14.49c.36-.06-.03 0-.19.01q-.31.04-.63.06a22 22 0 0 1-2.88-.01l-.63-.05c-.04 0-.79-.12-.28-.03a18 18 0 0 1-2-.45q-.42-.12-.83-.28c-.6-.2.37.2-.18-.07l-1.01-.5a2.4 2.4 0 0 0-2.43 4.14ZM99.2 95.7a42 42 0 0 1 .99 4.53l-.09-.64a3 3 0 0 1 .02.63l.09-.64-.07.28.24-.57-.1.18.38-.49-.15.15.48-.37-.35.18.57-.24a3 3 0 0 1-.6.18l.64-.09a3 3 0 0 1-.57 0l.64.09-.64-.11a2 2 0 0 0-.96-.04 2 2 0 0 0-.9.28 2.4 2.4 0 0 0-.85 3.28 2.3 2.3 0 0 0 1.43 1.1c.5.07.98.2 1.48.22a5 5 0 0 0 2.18-.52 3.2 3.2 0 0 0 1.75-2.09 5 5 0 0 0-.02-2.24 50 50 0 0 0-.96-4.34 2.4 2.4 0 1 0-4.63 1.28M75.32 82.84c-.76 2.46-.26 8.12 4.4 8.6 6.16-.03 6.49-6.87 4.41-10.09-1.7-2.63-6.69-3.73-8.81 1.5m49.32 0c.75 2.46.26 8.12-4.4 8.6-6.16-.03-6.49-6.87-4.41-10.09 1.7-2.63 6.69-3.73 8.8 1.5m-3.45-40.95a117 117 0 0 1-17.13 12.14 216 216 0 0 1-12.29 6.38c-5 2.44-10.02 4.82-15.23 6.79-5.25 1.98-10.62 3.6-15.99 5.25-2.94.9-1.69 5.53 1.28 4.62 4.85-1.48 9.71-2.95 14.48-4.69a175 175 0 0 0 15.86-6.84c7.67-3.7 15.33-7.5 22.31-12.4a150 150 0 0 0 10.1-7.85 2.4 2.4 0 0 0 0-3.4 2.45 2.45 0 0 0-3.4 0Z" class="c"/><path d="M120.81 44.8a261 261 0 0 1 16.45 28.53c1.39 2.77 5.53.34 4.15-2.42a261 261 0 0 0-16.45-28.53c-1.71-2.55-5.87-.15-4.15 2.42m22.16 57.84a23 23 0 0 1-1.8 5.65l-.79 1.9-.25.7c-.16.44-.1.22-.03.08a51 51 0 0 1-3.1 5.75 57 57 0 0 1-12.24 14.41 22.5 22.5 0 0 1-9.02 4.65c-3.01.7-1.74 5.33 1.28 4.63 7.03-1.63 12.88-6.78 17.46-12.13a63 63 0 0 0 9.61-14.55 41 41 0 0 0 3.68-11.09 2.4 2.4 0 0 0-2.4-2.4 2.46 2.46 0 0 0-2.4 2.4m-90.91.46c3.28 14.14 12.15 27.87 24.95 35.13a32 32 0 0 0 11.13 3.95 2.5 2.5 0 0 0 2.95-1.67 2.4 2.4 0 0 0-1.67-2.96c-13.68-2.03-24.27-14.11-29.6-26.18a54 54 0 0 1-3.14-9.55c-.7-3-5.32-1.73-4.62 1.28" class="c"/><path d="M56.08 77a10.3 10.3 0 0 0-11.47-1.53 10 10 0 0 0-4.94 7 26 26 0 0 0 4.14 20.17c2.84 4.04 6.8 6.9 11.93 6.2a2.4 2.4 0 0 0 1.67-2.95 2.46 2.46 0 0 0-2.95-1.68c-3.53.49-6.3-3.31-7.75-6A22 22 0 0 1 44 89.62c-.24-2.9-.21-6.43 1.56-8.88-.3.42.09-.1.17-.18s.62-.56.46-.44a5 5 0 0 1 2.01-.85 5.2 5.2 0 0 1 4.5 1.11c2.28 2.07 5.69-1.32 3.39-3.39m24.12 76a49.5 49.5 0 0 0 21.06 4.3 50 50 0 0 0 21.06-4.3 2.4 2.4 0 0 0 .86-3.28 2.46 2.46 0 0 0-3.28-.86 44 44 0 0 1-18.64 3.65 44 44 0 0 1-18.64-3.65 2.47 2.47 0 0 0-3.28.86 2.4 2.4 0 0 0 .86 3.28m-14.88-22.4a415 415 0 0 0 21.26 69.5q4.59 11.23 9.95 22.12a2.4 2.4 0 0 0 3.28.86 2.45 2.45 0 0 0 .86-3.29c-11.78-24-20.53-49.24-27.13-75.12q-1.95-7.64-3.6-15.35c-.65-3.02-5.28-1.74-4.63 1.28ZM9.35 187.65c2-10.36 4.73-20.86 10-30.09a39 39 0 0 1 7.6-9.86 59 59 0 0 1 12.68-8.64 112 112 0 0 1 18.39-7.29c2.94-.92 1.68-5.55-1.28-4.63-11.25 3.5-22.46 8.08-31.56 15.74-7.29 6.13-11.87 14.7-15.12 23.52a128 128 0 0 0-5.34 19.98 2.46 2.46 0 0 0 1.68 2.95 2.4 2.4 0 0 0 2.95-1.68" class="c"/><path d="M4.72 186.38a264 264 0 0 0-3.84 28.7c-.71 8.6-1.36 17.5-.38 26.1.92 8.06 3.2 16.61 8.78 22.76 5.33 5.88 13.17 9 20.76 10.7 7.78 1.72 15.7 2 23.63 1.9q13.55-.16 27.08-.83c2.67-.14 5.43-.1 8.07-.46a3.4 3.4 0 0 0 2.78-2.13 10 10 0 0 0 .2-3.44q-.13-6.25-.22-12.51c-.13-7.76-.22-15.52-.41-23.28l-.12-3.72c-.09-2.4-1.4-3.87-3.85-3.91-3.03-.06-6.07.03-9.1.03q-13.34 0-26.67.03l-8.24.02c-3.1.02-3.1 4.82 0 4.8q14.03-.06 28.06-.04l10.46-.01 4.02-.02a5 5 0 0 0 1.68-.02c-2.96 1.38-1.03-2.1-1.17-1.14l.02.35.03.87c.22 6.62.29 13.25.39 19.87l.2 12.3.11 5.86.03 1.39.01.68c.16 1.17-.54-1.63.98-.71-.27-.17-1.43.08-1.71.1l-2.14.11q-12.93.72-25.88.95c-7.53.13-15.1.31-22.57-.85-7-1.1-14.32-3.07-20.03-7.47-5.72-4.43-8.4-11.36-9.78-18.32-1.56-7.97-1.12-16.32-.63-24.37a267 267 0 0 1 2.9-26.41q.54-3.31 1.18-6.6a2.46 2.46 0 0 0-1.67-2.96 2.4 2.4 0 0 0-2.96 1.68" class="c"/><path d="M39.1 181.01c.9 7.5 1.45 15.02 2.48 22.5.88 6.44 2.28 12.8 3.03 19.25a2.47 2.47 0 0 0 2.4 2.4 2.4 2.4 0 0 0 2.4-2.4c-.77-6.6-2.15-13.1-3.09-19.67-1.04-7.33-1.55-14.72-2.42-22.07a2.47 2.47 0 0 0-2.4-2.4 2.4 2.4 0 0 0-2.4 2.4Zm50.23 89.03 13.5-.2a29 29 0 0 0 11.42-2.61 2.4 2.4 0 0 0 .86-3.29 2.46 2.46 0 0 0-3.29-.86 24 24 0 0 1-9.84 1.98l-12.66.18c-3.08.03-3.1 4.83 0 4.8Zm-.56-34.21a68 68 0 0 0 15.48-2.54 2.4 2.4 0 0 0-1.27-4.63 55 55 0 0 1-7.13 1.6l-1.42.21-.13.02-1.8.22q-1.86.2-3.73.32a2.4 2.4 0 0 0 0 4.8" class="c"/><path d="M103.57 242.5c1.52 8.7 4.64 17.29 10.3 24.16a34 34 0 0 0 20.9 11.54c8.83 1.42 18.25.06 25.97-4.63a47.5 47.5 0 0 0 17.84-18.73c8.81-17.52 12.83-37.58 13.62-57.06.64-15.5.03-32.3-9.1-45.49a49.5 49.5 0 0 0-15.44-14.2c-7.17-4.33-15.13-7.27-23.06-9.87q-3.3-1.09-6.63-2.1c-2.96-.92-4.22 3.72-1.28 4.62 7.87 2.43 15.8 4.94 23.2 8.58 6.2 3.05 12.45 6.98 16.84 12.42a50 50 0 0 1 4.31 6.27 40 40 0 0 1 3.41 7.69c2.49 7.6 3.03 15.64 3.1 23.59.15 18.7-2.73 37.48-9.55 54.95a65 65 0 0 1-5.64 11.8 42 42 0 0 1-7.96 8.97c-6.21 5.34-13.55 8.67-21.8 8.93-7.47.24-15.48-1.8-21.32-6.63-5.92-4.89-9.43-11.98-11.52-19.25a66 66 0 0 1-1.56-6.83 2.4 2.4 0 0 0-2.95-1.68 2.45 2.45 0 0 0-1.68 2.95m43.7-162.11a5.2 5.2 0 0 1 4.5-1.12 5 5 0 0 1 2.01.85c-.2-.14.31.3.37.36.08.08.56.68.25.26 1.78 2.45 1.8 6 1.57 8.88a22 22 0 0 1-2.73 8.6c-1.45 2.67-4.21 6.47-7.75 6a2.5 2.5 0 0 0-2.95 1.67 2.4 2.4 0 0 0 1.68 2.95c8.41 1.15 13.26-6.97 15.55-13.88a24 24 0 0 0 .78-11.1c-.46-3.04-1.68-5.98-4.24-7.8a10.2 10.2 0 0 0-12.43.94c-2.3 2.07 1.1 5.45 3.4 3.39Z" class="c"/><path d="M147.34 104.84c-3.68 0-6.22 2.58-6.22 5.61 0 3.39 2.6 5.72 6.22 5.72 3.76 0 6.21-2.36 6.21-5.72 0-3.05-2.55-5.61-6.21-5.61" class="b"/><path d="M147.34 102.44a8.6 8.6 0 0 0-8.22 5.57 8 8 0 0 0 3 9.02 9.7 9.7 0 0 0 9.73.46 8 8 0 0 0 3.95-8.53c-.68-4.02-4.6-6.47-8.47-6.52a2.4 2.4 0 0 0 0 4.8l.56.02c.46.01-.03-.03-.1-.03a3 3 0 0 1 .86.19l.37.1c.15-.04.7.38.84.47l.13.1q.26.18.01 0l-.12-.1a6 6 0 0 1 .76.77c-.06.04-.3-.48-.06-.06l.2.33.18.33-.1-.23.1.29a4 4 0 0 0 .2.74c-.04-.02-.05-.62-.03-.18l.02.47-.01.33-.01.16q-.05.4.03-.17c-.1.1-.13.67-.18.83-.02.05-.14.31-.12.35-.08-.15.25-.48.03-.1l-.36.63c-.22.35-.13-.05.07-.08l-.2.22-.3.3-.17.14q-.2.18.2-.14c-.08-.02-.52.33-.64.4l-.4.2c-.02-.04.57-.2.13-.07l-.79.22a2 2 0 0 1-.5.1l.3-.05-.35.03a8 8 0 0 1-.9.01l-.35-.02c-.6-.03.53.11-.04 0l-.8-.2-.3-.1q-.38-.14.12.07l-.28-.14q-.34-.17-.66-.39c-.29-.18.14-.01.13.1l-.34-.3-.2-.21c-.06-.07-.29-.43-.1-.1.2.35-.04-.07-.08-.12l-.23-.38c-.24-.46.07-.1 0 .02l-.1-.28q-.13-.37-.2-.76c-.13-.53.01.56 0 0l-.02-.33v-.48q0-.11.03-.23.03-.28-.04.26a5 5 0 0 0 .24-.88c.12-.42-.04.15-.07.15a4 4 0 0 0 .28-.53l.16-.26c.24-.39-.36.37.05-.05.05-.06.55-.63.6-.6l-.23.18q.12-.1.26-.18.2-.14.4-.25l.37-.19q.24-.11-.2.08l.32-.12a9 9 0 0 1 1-.26c.24-.05.2-.14-.1.02a2 2 0 0 1 .75-.04 2.4 2.4 0 0 0 0-4.8Z" class="c"/><path d="M158.16 90.93q-.12-1.05-.3-2.3a4.8 4.8 0 0 0-2.14-3 4.2 4.2 0 0 0-4.34 0c-2.92 1.53-4.28 7.25-4.28 7.25l-.96 4.04c-4.74-2.85-6.42 9.14-7.3 12.38a36.5 36.5 0 0 1-19.87 25.12c-16.6 5.48-15.27 18.47-14.13 32.5 9.22-1.37 18.6-2 27.8-3.03-.1-.6-.18-1.19-.29-1.95a7.3 7.3 0 0 1 3.75-7.49 28 28 0 0 0 3.95-2.36c8.5-6.42 12.91-10.54 15.38-18.59 2.43-7.94 3.27-18.6 3.3-31.38-.1-4.14-.1-6.28-.38-9.42z" class="b"/><path d="M107.19 166.4a108 108 0 0 1-.55-11.48 24 24 0 0 1 1.83-9.34 15.5 15.5 0 0 1 6.8-7c2-1.1 4.21-1.7 6.23-2.76a38 38 0 0 0 5.8-3.81c7.32-5.76 11.84-13.75 14-22.7.34-1.38.61-2.78.95-4.16q.3-1.21.68-2.43a19 19 0 0 1 .75-2.07q.23-.49.51-.96c.08-.14.55-.76.25-.4q.17-.2.34-.37l.07-.07q-.37.27-.05.05c.04.25.4-.9-.1.01.08-.16.75 0 .02-.03.19 0 .2.08 0-.03l.45.1c.66.19-.28-.06.11.04.1.03.5.32.1.02.13.1.62.63.33.26a5 5 0 0 1 .53.92c-.16-.35.16.52.2.7l.24 1.09a22 22 0 0 1 .11 2.36 38 38 0 0 1-.26 4.02 149 149 0 0 1-2.67 17.38c-.7 3 3.93 4.29 4.62 1.27a152 152 0 0 0 2.79-18.1 29 29 0 0 0-.04-8.6c-.67-3.44-3.56-7.06-7.49-6.12-3.59.86-4.95 5.37-5.8 8.47-.97 3.54-1.5 7.19-2.75 10.64a34 34 0 0 1-7.41 11.81 33 33 0 0 1-5.34 4.55 33 33 0 0 1-6.3 3.24 23 23 0 0 0-10.38 7.81c-5.19 7.34-4.05 17.26-3.37 25.69a2.46 2.46 0 0 0 2.4 2.4 2.4 2.4 0 0 0 2.4-2.4" class="c"/><path d="M149.4 93.5a13 13 0 0 1 1.94-4.6 2.7 2.7 0 0 1 2.4-1.48c1.43.13 1.77 1.5 1.9 2.59a130 130 0 0 1 .48 21.72c-.3 6.83-.89 13.76-2.78 20.35a26 26 0 0 1-3.5 7.64 33 33 0 0 1-5.79 6.12 98 98 0 0 1-4.69 3.76c-1.66 1.26-3.56 2.06-5.25 3.25a10 10 0 0 0-3.66 4.75 12 12 0 0 0-.23 6.28 2.4 2.4 0 0 0 2.95 1.68 2.46 2.46 0 0 0 1.68-2.96 6 6 0 0 1 .61-4.4c.9-1.44 2.52-2 3.92-2.82a57 57 0 0 0 9.4-7.33 33 33 0 0 0 6.04-7.2 34 34 0 0 0 3.58-9.09c1.88-7.47 2.4-15.3 2.63-22.98q.18-6.19-.05-12.37-.1-2.48-.36-4.95c-.21-1.9-.24-3.94-1.34-5.59a6.9 6.9 0 0 0-11.2-.57 17.4 17.4 0 0 0-3.3 6.92c-.73 3 3.9 4.29 4.63 1.28Z" class="c"/><path d="M153.97 216.28c-2.19-11.02-4.27-22.06-6.37-33.1l-2.89-15.2c-.47-2.46-.64-5.2-3-6.63-1.5-.9-3.02-.6-4.64-.4q-2.6.34-5.22.62c-6.87.75-13.76 1.3-20.63 2.1q-2.72.32-5.43.7c-1.63.23-3.26.31-4.55 1.45-2.5 2.2-1.95 6.17-2.03 9.16q-.45 17.8.82 35.58c.79 10.92 1.62 22.02 3.7 32.79a2.4 2.4 0 0 0 2.96 1.67 2.45 2.45 0 0 0 1.67-2.95 246 246 0 0 1-3.14-26.5 378 378 0 0 1-1.32-32.1q.01-4.98.15-9.96l.08-2.46a4 4 0 0 1 .11-1.37c.37-.72 2.25-.6 3.06-.71 6.49-.9 13.02-1.44 19.54-2.08q4.89-.47 9.76-1.07c.54-.07 2.37-.56 2.72-.27.42.34.49 2.25.59 2.8l2.67 14.02c2.22 11.74 4.43 23.48 6.76 35.2a2.4 2.4 0 0 0 2.96 1.67 2.45 2.45 0 0 0 1.67-2.95Z" class="c"/></svg>
