<svg xmlns="http://www.w3.org/2000/svg" viewBox="-137.55 0 442.537 442.537"><defs><style>.b{fill:#211715}.c{fill:#b3b3b3}.d{fill:#fff}</style></defs><path d="M120.37 433.53c-2.91-2.4-5.71-4.78-9-7.22-1.64-1.2-3.67-2.04-5.22-3.35a9 9 0 0 1-2.1-2.8c-1.83-3.49-1.67-10-.97-13.87l.2-1.1c4.52.52 10.18.78 14.2.82a54 54 0 0 0 9.75-.95l1.8 2.82c1.3 1.46 3.73 4.37 5.13 5.73 4.2 4.05 5.71 5.97 8.76 9.36 2.35 2.6 4.4 7.81 3.81 11.48-.45 2.82-3.17 4.37-5.82 5.46a21 21 0 0 1-7.72.4 21 21 0 0 1-9.1-3.82q-1.92-1.47-3.72-2.96m-44.45-.2c2.9-2.28 5.63-4.58 9.83-6.25 2.16-.86 4.41-1.18 6.06-2.8a8.7 8.7 0 0 0 2.04-4.1 33.5 33.5 0 0 0 .14-13.56s-.12-.57-.3-1.51a146 146 0 0 1-14.97.9 55 55 0 0 1-10.7-1.13l-3.1 4.93-13.68 15.27c-6.73 6.9-4.42 13.88 3.38 15.13a21.4 21.4 0 0 0 12.1-1.81 30 30 0 0 0 6.77-3.26q1.25-.9 2.43-1.82" style="fill:#7a7473"/><path d="M125.5 406.07c2.64 4.9 7.14 8.66 10.9 12.65 3.81 4.04 9.07 8.94 8.4 15.1-.26 2.4-3.21 4-5.37 4.41a18 18 0 0 1-8.43-.5c-3.65-1.08-6.42-3.32-9.3-5.7-3.18-2.6-6.28-5.35-9.66-7.69-1.59-1.1-3.54-1.82-4.9-3.2a8.5 8.5 0 0 1-2.1-4.19 27 27 0 0 1-.04-10.13 2.06 2.06 0 0 0-1.4-2.46 2 2 0 0 0-2.46 1.4c-1.17 6.76-1.24 15.56 5.15 19.77 1.75 1.16 3.56 2.11 5.24 3.4q2.65 2.04 5.22 4.2c3.25 2.68 6.45 5.73 10.35 7.42 6.02 2.6 14.4 3.25 19.45-1.76 2.74-2.7 2.6-6.65 1.59-10.1-1.05-3.6-3.06-6.27-5.5-9.02-2.49-2.81-5.15-5.43-7.75-8.15a36 36 0 0 1-5.94-7.47c-1.22-2.26-4.68-.25-3.46 2.02Zm-33.44 1.08a32 32 0 0 1 .04 11.54 8 8 0 0 1-1.48 3.93c-1.03 1.25-2.8 1.62-4.25 2.12a31 31 0 0 0-8.58 4.62c-2.61 1.94-5.03 4.18-7.98 5.61-3.26 1.59-6.97 3.12-10.62 3.42-2.7.22-6 .06-8.2-1.74-5.05-4.12 1.82-10.2 4.53-13.24 2.93-3.27 5.8-6.58 8.71-9.85a40 40 0 0 0 5.32-7.67c1.22-2.26-2.23-4.28-3.46-2.02a39 39 0 0 1-5.15 7.39c-2.87 3.2-5.68 6.47-8.56 9.67-2.6 2.9-5.6 5.55-6.7 9.42a8.9 8.9 0 0 0 1.6 8.22c2.14 2.57 5.5 3.54 8.71 3.81 4.36.38 8.3-.9 12.3-2.45a31 31 0 0 0 5.66-2.69c1.47-.95 2.84-2.08 4.22-3.16a32 32 0 0 1 9.07-5.42c2-.7 4.06-1.27 5.69-2.7a10 10 0 0 0 2.82-5.09 36 36 0 0 0 .17-14.78c-.5-2.53-4.36-1.46-3.86 1.06" class="b"/><path d="M98.2 211.71a.71.71 0 0 0-1.4.04 91 91 0 0 1-1.99 9.78 18 18 0 0 1-6.8 9.5c-2.34 1.74-7.08 3.63-12.44 4.46a107 107 0 0 1-19.08.7l.5 13c2.22 53.84 3.4 102.32 5.51 154.33a59 59 0 0 0 16.16 2.5c5.85-.06 15.12-.58 19.4-1.68 4.28 1.1 13.53 1.62 19.37 1.68a59 59 0 0 0 16.16-2.5c2.1-51.88 3.28-100.24 5.5-153.92l.51-13.78.01-.14c-7.14.44-16.34.74-21.71-.14-4.8-.79-8.1-1.7-11.13-4.25a19.3 19.3 0 0 1-6.43-9.35 99 99 0 0 1-2.13-10.23" class="c"/><path d="M97.52 406.27c5.6 1.4 11.66 1.54 17.4 1.7a60 60 0 0 0 19.2-2.52 2.1 2.1 0 0 0 1.47-1.93c1.01-24.95 1.84-49.91 2.66-74.87.84-25.36 1.68-50.72 2.72-76.06l.63-16.77c.1-2.58-3.9-2.57-4 0-.63 16.89-1.32 33.77-1.92 50.66-.88 24.93-1.66 49.85-2.52 74.77q-.73 21.14-1.57 42.27l1.47-1.93a56 56 0 0 1-18.14 2.38c-5.39-.15-11.07-.24-16.33-1.56-2.5-.63-3.56 3.23-1.06 3.85Z" class="b"/><path d="M97.52 402.41c-5.26 1.32-10.95 1.4-16.34 1.55a56 56 0 0 1-18.14-2.37l1.47 1.93c-1-24.86-1.83-49.73-2.66-74.6-.83-25.25-1.67-50.5-2.69-75.75l-.68-17.35c-.1-2.57-4.1-2.58-4 0 .66 16.99 1.35 33.98 1.95 50.97.88 24.82 1.65 49.66 2.5 74.48q.74 21.13 1.58 42.25a2.1 2.1 0 0 0 1.47 1.93 60 60 0 0 0 19.2 2.51c5.74-.15 11.8-.29 17.4-1.7 2.5-.62 1.43-4.48-1.07-3.85Z" class="b"/><path d="M96.05 257.94V404.2c0 2.57 4 2.57 4 0V257.94c0-2.58-4-2.58-4 0" class="b"/><path d="M97.04 96.16h-1c-2.18 2.47-6.77 8.83-7.88 10.3-3.45-2.2-8.54-10.32-9.15-11.47C83 110.95 94.2 148.4 96.92 155.88c2.54-4.38 14.05-44.47 18.1-60.92-.55 1.06-5.7 9.28-9.17 11.5-1.1-1.47-5.7-7.84-7.89-10.3Z" class="d"/><path d="M124.5 63.97a30 30 0 0 1-1.86 5.68c-.97 2.64-6.34 11.89-13.13 15.5q.15 1.94.5 3.89c.35 2.03.24 3.84 3.07 4.87.19.07 8.2 3.88 8.49 4 0 0-6.63 15.18-27.9 15.18S70.45 98.34 70.45 98.34c.55-.18 9.5-4.37 9.68-4.43 2.83-1.02 2.7-2.84 3.07-4.87.2-1.18.36-2.27.46-3.4a25 25 0 0 1-9.16-7.32A34 34 0 0 1 68 66.08a4.9 4.9 0 0 1-4.14-1.04 13.6 13.6 0 0 1-3.98-6.47c-.86-2.51-.91-6.59.36-8.8A4.2 4.2 0 0 1 64 47.7a4.5 4.5 0 0 1 3.25 1.2s-3.4-27.31 28.77-27.31c35.52 0 28.76 27.3 28.76 27.3a4.5 4.5 0 0 1 3.25-1.19 4.2 4.2 0 0 1 3.75 2.09c1.27 2.2 1.22 6.27.36 8.8a13.6 13.6 0 0 1-3.98 6.46 5 5 0 0 1-3.83 1.1" class="d"/><path d="M122.57 63.44a29 29 0 0 1-1.3 4.37c-.2.5-.36.84-.6 1.4-.2.51.14-.27-.03.1l-.18.4a37 37 0 0 1-3.2 5.32c-2.79 3.95-6.6 8.26-11.5 9.4-2.5.6-1.44 4.45 1.07 3.86 5.77-1.35 10.22-6.18 13.57-10.8a38 38 0 0 0 3.47-5.7q.31-.64.58-1.3l.08-.18.44-1.05a29 29 0 0 0 1.46-4.75c.52-2.52-3.33-3.59-3.86-1.07m-57.07.96c2.48 10.88 10.67 22.75 22.43 24.52a2.07 2.07 0 0 0 2.46-1.4 2 2 0 0 0-1.4-2.46C78.53 83.5 71.56 73 69.36 63.34c-.58-2.51-4.43-1.45-3.86 1.06m24.9 9.24a12 12 0 0 0 5.9 1.38 9.7 9.7 0 0 0 6.08-1.84 2 2 0 0 0 0-2.83 2.06 2.06 0 0 0-2.82 0c.68-.53-.04 0-.26.12-.17.08-.63.23 0 .02l-.48.17q-.3.1-.63.17a5 5 0 0 0-.72.14c.2-.1.32-.04.01-.01a10 10 0 0 1-1.35.06 12 12 0 0 1-1.26-.06l-.22-.03.18.02c-.12.06-.52-.09-.65-.12l-.61-.15-.52-.18c-.46-.16.41.2 0 0l-.64-.31a2 2 0 0 0-2.02 3.45Zm4.65-13.62a27 27 0 0 1 .62 2.85l-.07-.53a2 2 0 0 1 .01.4l.07-.54-.04.18.2-.48-.06.12.31-.4-.1.08.4-.3-.22.11.48-.2-.38.11.53-.07h-.36l.53.07-.4-.07a2.3 2.3 0 0 0-1.54.2 2 2 0 0 0-.72 2.74 2 2 0 0 0 1.2.92c.36.05.7.14 1.06.15a3.5 3.5 0 0 0 1.63-.4 2.5 2.5 0 0 0 1.32-1.6 4 4 0 0 0-.01-1.67q-.25-1.38-.6-2.73a2 2 0 0 0-.92-1.2 2 2 0 0 0-1.54-.2 2 2 0 0 0-1.2.92 2 2 0 0 0-.2 1.54M80.49 51.8c-.48 1.55-.17 5.1 2.76 5.41 3.88-.02 4.08-4.33 2.78-6.35-1.07-1.66-4.21-2.35-5.55.94m31.03 0c.48 1.55.17 5.1-2.76 5.41-3.88-.02-4.09-4.33-2.78-6.35 1.07-1.66 4.2-2.35 5.54.94" class="b"/><path d="M121.54 44.14a24 24 0 0 0-2.88-6.63c-2.45-3.34-3.4-4.33-8.29-5.46L93.8 29.56a59 59 0 0 0-11.38-.37 8 8 0 0 0-4.3 1.5c-1.58 1.32-2.13 3.5-3.05 5.38-1.6 3.24-5.37 4.91-5.97 8.55a49 49 0 0 0-.57 5.16l-1.28-.9A4.5 4.5 0 0 0 64 47.69a5 5 0 0 0-1.72.33 45 45 0 0 1-1.4-11.38c-.24-8.48 2.95-17.03 6.95-20.94A32 32 0 0 1 74 9.28a35.4 35.4 0 0 1 21.89-7.2c7.8 0 15.71 1.84 21.67 8.48l4.6 4.08a26 26 0 0 1 4.94 5.8c2.33 3.86 3.56 8.71 3.88 16.2a37 37 0 0 1-1.35 11.34 5 5 0 0 0-1.6-.29 4.5 4.5 0 0 0-3.25 1.2Z" style="fill:#85807f"/><path d="M68.65 47.47a6.9 6.9 0 0 0-7.51-1.12 6.6 6.6 0 0 0-3.44 4.41 16.5 16.5 0 0 0 2.4 13.03c1.69 2.51 4.36 4.77 7.59 4.35a2.07 2.07 0 0 0 2-2 2 2 0 0 0-2-2c-2.28.3-3.77-1.58-4.76-3.4a13 13 0 0 1-1.62-5.03 8.6 8.6 0 0 1 .87-5.25c-.32.5.51-.45.23-.25a2 2 0 0 1 .97-.44 2.7 2.7 0 0 1 2.45.53c1.91 1.7 4.75-1.11 2.83-2.83Zm57.53 2.83a2.7 2.7 0 0 1 2.32-.55 2 2 0 0 1 1.1.47c-.28-.2.55.73.24.24a5 5 0 0 1 .78 2.12 12 12 0 0 1 .08 3.13 13 13 0 0 1-1.62 5.03c-.98 1.82-2.48 3.7-4.76 3.4a2 2 0 0 0-2 2 2.05 2.05 0 0 0 2 2c5.27.7 8.5-5 9.82-9.25 1.17-3.82 1.13-9.74-2.6-12.18a6.9 6.9 0 0 0-8.18.76c-1.93 1.72.9 4.54 2.82 2.83" class="b"/><path d="M118.96 9.14c-8.4-9.2-22.51-10.9-34.04-7.56a36.6 36.6 0 0 0-24.4 23.33 44 44 0 0 0-.29 23.21c.63 2.5 4.5 1.44 3.86-1.06a40.5 40.5 0 0 1-.38-18.63 29 29 0 0 1 2.9-7.75 36 36 0 0 1 4.45-5.86c7.33-8.33 18.46-11.66 29.35-10.5a24.4 24.4 0 0 1 15.73 7.65c1.74 1.9 4.56-.93 2.83-2.83Zm12.68 38.98a45 45 0 0 0 0-21.77 26.3 26.3 0 0 0-8.09-13.13c-1.9-1.72-4.73 1.1-2.82 2.83a22.5 22.5 0 0 1 7.05 11.36 41 41 0 0 1 0 19.65c-.61 2.5 3.25 3.56 3.86 1.06" class="b"/><path d="M94.32 27.63a51 51 0 0 0-9.73-.56c-3.63.08-7.27.68-9.37 3.97-.98 1.54-1.38 3.37-2.4 4.9a37 37 0 0 1-3.2 3.57 10 10 0 0 0-2.46 4.58 57 57 0 0 0-.68 6.33c-.2 2.57 3.8 2.55 4 0a46 46 0 0 1 .54-5.27 6.6 6.6 0 0 1 1.87-3.3A39 39 0 0 0 76 38.36a29 29 0 0 0 2.15-4.34 4.4 4.4 0 0 1 3.27-2.67 18 18 0 0 1 3.78-.29 47 47 0 0 1 8.06.43 2.06 2.06 0 0 0 2.46-1.4 2 2 0 0 0-1.4-2.46m15.52 6.35q1.2.27 2.39.64a3 3 0 0 1 .95.35l-.18-.08.18.08.44.22q.34.18.66.4a1 1 0 0 1 .33.22c-.25-.37-.21-.17-.05-.03a13 13 0 0 1 1.17 1.18l.6.73c-.34-.41-.02-.01.04.06l.32.43a12 12 0 0 1 1.03 1.62 18 18 0 0 1 .66 1.37l-.02-.04a38 38 0 0 1 1.25 3.54 2 2 0 1 0 3.86-1.06 34 34 0 0 0-2.29-5.83 20 20 0 0 0-2.62-3.65 10 10 0 0 0-2.91-2.4 19 19 0 0 0-4.74-1.6 2 2 0 1 0-1.07 3.85m-4.55-4.29a9.5 9.5 0 0 0-3.58-4.94 18 18 0 0 0-8.93-3.51 2 2 0 0 0-2 2 2.06 2.06 0 0 0 2 2c-.45-.06.18.03.27.05l.6.1q.5.1.98.24.54.15 1.08.33c.14.05.79.18.86.32l-.07-.03.14.06q.23.1.45.22.4.2.8.43s.5.3.73.45l.37.26c.14.1.33.36 0-.02.32.37.77.65 1.11 1q.23.23.43.47l.23.27c.1.11-.3-.44-.05-.06a8 8 0 0 1 .59.97q.03.1.1.2c-.3-.51-.15-.38-.1-.2l.14.45a2 2 0 0 0 2.46 1.4 2.04 2.04 0 0 0 1.4-2.46Zm-34.32 70.58c.9-.31 1.77-.76 2.63-1.16q2-.91 3.99-1.84l3.12-1.45.33-.15-.16.07c-.52.22-.06.03.07-.02q.4-.14.76-.33a5.6 5.6 0 0 0 2.47-2.28 9 9 0 0 0 .84-2.94c.23-1.5.5-3 .63-4.53a2 2 0 0 0-2-2 2.05 2.05 0 0 0-2 2 38 38 0 0 1-.92 5.49c-.06.25.19-.3.03-.1l-.13.24c-.23.4.16-.1-.08.1l-.22.22c.21-.25.13-.09.01-.01l-.3.18-.3.16c-.14.07-.7.29-1.01.44l-6.66 3.08q-.86.4-1.73.78l-.55.25c-.45.2.5-.18.12-.05a2.05 2.05 0 0 0-1.4 2.46 2 2 0 0 0 2.46 1.4Zm36.56-14.8q.21 2.14.57 4.24a16 16 0 0 0 .4 2.2 5.5 5.5 0 0 0 1.5 2.48 6 6 0 0 0 1.35.94 11 11 0 0 0 1 .43c.65.26-.46-.22-.21-.1 1.97 1.02 4.02 1.9 6.02 2.85.95.45 1.9.92 2.87 1.32a2 2 0 0 0 2.46-1.4 2.06 2.06 0 0 0-1.4-2.46c1 .42.06.01-.17-.1l-1.29-.6-3.48-1.65-2.7-1.27-.28-.14-.08-.03-.48-.2c-.05-.02-.37-.17-.08-.03l-.54-.29c-.06-.03-.35-.23-.13-.07.2.14 0 0-.03-.03-.14-.14-.39-.47-.15-.1q-.14-.26-.3-.5c-.12-.18.1.16.08.18l-.13-.36-.12-.5q-.11-.6-.2-1.21c-.2-1.32-.37-2.3-.49-3.6a2.04 2.04 0 0 0-2-2 2 2 0 0 0-2 2Z" class="b"/><path d="M143.86 209.4a863 863 0 0 1 2.27 24.57 1.25 1.25 0 0 1-1.15 1.35c-7.08.54-20.2 1.34-27.08.22-4.8-.78-8.1-1.69-11.13-4.25a19.3 19.3 0 0 1-6.43-9.34 98 98 0 0 1-2.13-10.2.71.71 0 0 0-1.4 0 91 91 0 0 1-2 9.78 18 18 0 0 1-6.8 9.5c-2.34 1.73-7.08 3.63-12.44 4.46a108 108 0 0 1-23.3.38 1.37 1.37 0 0 1-1.22-1.48c.7-8.59 1.3-15.08 2.62-26.86.82-9.29 1.7-18.4 2.54-25.11q.33-6.11.37-12.27H31.51c1.78-16.75 3.1-25.51 8.26-45.22 1.47-6.35 3.63-12.39 8.5-16.32a68 68 0 0 1 6.46-3.86c4.72-2.4 11.94-6 16.25-7.67l.19-.07a58 58 0 0 1 7.04-5.36c2.83 12.56 14.49 51.84 18.19 62.72h1.21c3.77-9.3 15.36-50.16 18.19-62.72.9.58 1.97 1.32 3.1 2.15l2.47.95c4.4 1.7 15.62 5.47 20.42 7.91a54 54 0 0 1 5.7 3.52c4.87 3.93 7.32 9.34 8.78 15.69 5.16 19.7 7.35 29.02 9.13 45.77a30 30 0 0 1-.88 10.07 17.4 17.4 0 0 1-5.25 8.5 19 19 0 0 1-11.98 4.53q-2.57.07-5.12.04c.54 5.67 1.05 12.08 1.7 18.62" class="c"/><path d="M93.46 145.22c-1.17-3.8-2.52-8.23-3.93-12.93 1.53-10.8 3.18-22.24 3.17-22.84a12 12 0 0 0-.7-3.37 19 19 0 0 0-.9-2.91s-.08-.16-.2-.4a119 119 0 0 1 5.15-6.6h1.91c1.3 1.44 3.4 4.24 5.16 6.6l-.02.07c-.37 1.5-.43 2.23-.74 3.64l-.2.86a9 9 0 0 0-.3 1.9c0 .36 1.63 12.85 2.82 23.13-2.9 9.8-5.59 18.34-7.07 22H96.4a385 385 0 0 1-2.94-9.15" style="fill:#3d8dcc"/><path d="M55.67 207.54q.74-8.56 1.63-17.1.37-3.65.82-7.29c.3-2.5.3-5.08.37-7.6.29-10.6-.03-21.19-.6-31.76-.34-6.5-.79-13-1.26-19.5-.18-2.56-4.18-2.58-4 0 .8 11.13 1.54 22.27 1.84 33.44q.2 7.83.07 15.66-.08 3.88-.27 7.75c-.11 2.39-.49 4.77-.74 7.15a949 949 0 0 0-1.86 19.25 2 2 0 0 0 2 2 2.04 2.04 0 0 0 2-2" class="b"/><path d="M140.17 190.78c.8 8.35 1.52 16.7 2.35 25.06q.59 5.9 1.1 11.82.23 2.67.43 5.35a3 3 0 0 0 .05.58c.36 1.17.25-.61.6-.25-.06-.07-.71.05-.83.06l-2.12.15a156 156 0 0 1-19.74.42 37 37 0 0 1-9.15-1.6 16.6 16.6 0 0 1-7.6-5.38 19 19 0 0 1-3.65-8.14q-.66-2.88-1.16-5.8c-.32-1.77-.65-3.9-2.95-3.9-2.33 0-2.63 2.18-2.94 3.97q-.5 2.95-1.16 5.85a17.4 17.4 0 0 1-3.65 7.77c-4.5 5.13-11.67 6.66-18.18 7.22a112 112 0 0 1-16.13.17q-1.17-.07-2.33-.17c-1.06-.1.12.39-.07.44a8 8 0 0 0 .1-1.24q.83-9.76 1.86-19.5l.67-6.12a2 2 0 0 0-2-2 2.05 2.05 0 0 0-2 2q-1.06 9.34-1.92 18.7c-.24 2.68-.7 5.46-.7 8.16 0 3.86 4.4 3.63 7.15 3.78a102 102 0 0 0 18.45-.55c6.07-.8 12.4-2.62 16.9-6.97a20 20 0 0 0 5.2-8.6c.38-1.26.65-2.58.92-3.88q.31-1.52.59-3.06a11 11 0 0 1 .48-2.78l-.71.72h-1.04l-.72-.71c.36.46.43 2.35.57 3.13q.36 1.87.76 3.73a30 30 0 0 0 1.41 4.93 22 22 0 0 0 8.15 9.94c3.38 2.26 7.57 3.07 11.54 3.59a78 78 0 0 0 11.35.42q6.01-.12 12.02-.55c1.8-.13 4.09.1 5.34-1.44 1.33-1.63.54-4.5.38-6.43-.75-9.08-1.76-18.14-2.6-27.22-.35-3.89-.65-7.77-1.02-11.66a2.06 2.06 0 0 0-2-2 2 2 0 0 0-2 2Zm.7-66.5a682 682 0 0 0-1.9 36.38c-.06 2.58 3.94 2.58 4 0a682 682 0 0 1 1.9-36.38c.18-2.57-3.82-2.55-4 0" class="b"/><path d="M83.84 86.59c-1.25 1.4-2.8 3.45-4.02 4.87a3.9 3.9 0 0 0-.84 3.48c.47.94 5.67 9.28 9.18 11.53 1.1-1.48 5.7-7.84 7.89-10.31-.82-.58-11.67-9.14-12.2-9.57m26.33 0c1.25 1.4 2.8 3.45 4.02 4.87a3.9 3.9 0 0 1 .84 3.48c-.47.94-5.68 9.28-9.18 11.53-1.1-1.48-5.7-7.84-7.89-10.31.82-.58 11.67-9.14 12.2-9.57" class="d"/><path d="M88.82 150.67a1239 1239 0 0 1-12.72-22.5q-3.05-5.55-6-11.15l-1.48-2.84c-.19-.36-.42-1.17-.73-1.41q-.2-.5-.12.22l.56-.58q2.33-2.42 4.79-4.7a2.02 2.02 0 0 0-.4-3.15c-1.72-.97-3.54-1.86-5.17-2.97l.72.72-.17-.26.27 1.01c-.02.49.12-.04.24-.24q.23-.38.49-.73a15 15 0 0 1 1.01-1.23 35 35 0 0 1 2.98-2.9 53 53 0 0 1 6.12-4.6l-2.93-1.2c1.8 7.96 4.1 15.8 6.35 23.64q4.07 14.24 8.43 28.4c1.1 3.57 2.2 7.15 3.4 10.69.83 2.42 4.7 1.38 3.86-1.07-2.51-7.41-4.73-14.93-6.97-22.43-2.85-9.55-5.63-19.12-8.25-28.73a272 272 0 0 1-2.96-11.54 2.02 2.02 0 0 0-2.94-1.2 50 50 0 0 0-9.8 7.99c-1.15 1.26-3 3.19-3.01 5.02-.02 1.54 1.26 2.2 2.43 2.88l3.88 2.21-.4-3.14c-1.75 1.63-3.53 3.26-5.12 5.04a4 4 0 0 0-1.33 3.08 8 8 0 0 0 1.11 2.8q3.2 6.2 6.55 12.32c4.5 8.26 9.15 16.43 13.85 24.58 1.29 2.22 4.74.21 3.46-2.02Zm12.63-44.53c-2.82 0-5.65-.06-8.48-.06a2 2 0 0 0 0 4c2.83 0 5.66.05 8.48.06a2 2 0 1 0 0-4" class="b"/><path d="M101.17 102.31c-.34 1.42-.56 2.86-.88 4.28a10 10 0 0 0-.39 2.96c.11 1.52.37 3.05.56 4.56a2324 2324 0 0 1 2.18 17.83 2.06 2.06 0 0 0 2 2 2 2 0 0 0 2-2 2289 2289 0 0 0-2.14-17.52c-.2-1.57-.44-3.15-.58-4.72a6 6 0 0 1 .22-2.05c.33-1.42.55-2.86.88-4.28.6-2.5-3.26-3.57-3.85-1.06m-9.64 30.04 2.54-18c.21-1.52.5-3.07.6-4.61a9 9 0 0 0-.38-2.95 32 32 0 0 0-1.46-4.64 2 2 0 0 0-2.74-.71 2.05 2.05 0 0 0-.72 2.73 24 24 0 0 1 1.17 4.1 5 5 0 0 1 .11 1.68c-.15 1.5-.35 2.73-.57 4.28q-1.19 8.53-2.41 17.06a2.07 2.07 0 0 0 1.4 2.46 2 2 0 0 0 2.46-1.4" class="b"/><path d="M82.43 85.17c-1.06 1.2-2.04 2.47-3.05 3.72A10 10 0 0 0 77 92.7c-.51 2.1.39 3.57 1.46 5.24q1.85 2.88 3.97 5.57a21 21 0 0 0 4.71 4.68 2.05 2.05 0 0 0 2.74-.72c2.49-3.33 4.83-6.8 7.57-9.9a2.04 2.04 0 0 0-.4-3.15l-.73-.55-.4-.31-.74-.58-4.02-3.15q-2.97-2.32-5.9-4.67a2.06 2.06 0 0 0-2.84 0 2 2 0 0 0 0 2.83c4.15 3.34 8.3 6.78 12.61 9.88l-.4-3.14c-2.97 3.37-5.5 7.13-8.2 10.72l2.74-.72a11 11 0 0 1-1.7-1.5 32 32 0 0 1-1.88-2.16 59 59 0 0 1-4.45-6.42q-.16-.25-.31-.53l-.1-.17c.13.5.13-.15.13-.16a5 5 0 0 1 .57-1.15c.37-.5.8-.96 1.19-1.45.87-1.08 1.72-2.16 2.64-3.2a2.05 2.05 0 0 0 0-2.83 2 2 0 0 0-2.84 0m26.22 67.52c4.7-8.15 9.35-16.32 13.85-24.57q3.34-6.13 6.55-12.32a8 8 0 0 0 1.11-2.8 4 4 0 0 0-1.32-3.08c-1.61-1.77-3.38-3.4-5.12-5.04l-.4 3.14 3.67-2.1c1.15-.65 2.6-1.32 2.65-2.86.04-1.89-1.84-3.85-3.03-5.15a50 50 0 0 0-9.8-7.99 2.02 2.02 0 0 0-2.93 1.2c-1.84 8.14-4.13 16.19-6.37 24.22a889 889 0 0 1-8.38 28.44c-1.07 3.37-2.12 6.78-3.44 10.06a2 2 0 0 0 1.4 2.46 2.05 2.05 0 0 0 2.46-1.4c2.86-7.09 4.88-14.57 7.04-21.9q4.29-14.48 8.2-29.08c1.03-3.9 2.06-7.8 2.95-11.74l-2.94 1.2a53 53 0 0 1 6.12 4.6 35 35 0 0 1 2.87 2.76 16 16 0 0 1 1.13 1.36q.26.35.48.73c.1.18.26.78.24.24l.27-1.01-.16.26.71-.72c-1.63 1.1-3.45 2-5.16 2.97a2.02 2.02 0 0 0-.4 3.14 123 123 0 0 1 5.35 5.3l-.03-.44a8 8 0 0 1-.82 1.62l-1.48 2.84q-2.94 5.6-6 11.15-6.24 11.32-12.72 22.5c-1.29 2.23 2.17 4.25 3.46 2.02Z" class="b"/><path d="M108.75 88q1.36 1.58 2.65 3.2a8 8 0 0 1 1.74 2.57c.02.07.07.54.09.28.01-.16.02-.05-.02.05a5 5 0 0 1-.33.56l-1.1 1.74a60 60 0 0 1-3.27 4.58 32 32 0 0 1-2.9 3.16l-.45.38c.3-.23-.26.18-.32.22l2.74.71c-2.7-3.59-5.23-7.34-8.2-10.71l-.4 3.14c4.32-3.1 8.46-6.54 12.6-9.88a2 2 0 0 0 0-2.83 2.05 2.05 0 0 0-2.82 0q-2.95 2.34-5.92 4.66l-4.01 3.15-.75.58-.4.31-.72.56a2.04 2.04 0 0 0-.4 3.14c2.74 3.11 5.08 6.58 7.57 9.9a2.04 2.04 0 0 0 2.74.72 21 21 0 0 0 4.7-4.67q2.13-2.7 3.98-5.58c1.07-1.66 1.97-3.13 1.46-5.23a10 10 0 0 0-2.37-3.83c-1-1.24-1.99-2.51-3.05-3.71a2 2 0 0 0-2.84 2.83m12.08 8.68c6.5 2.49 13.28 4.44 19.53 7.5a27 27 0 0 1 7.91 5.46 25.4 25.4 0 0 1 5.6 10.85 406 406 0 0 1 6.42 26.4q1.15 5.72 1.98 11.49a79 79 0 0 1 1.24 12.01c-.06 4.35-.9 9.03-3.79 12.44a16.5 16.5 0 0 1-12.43 5.9c-2.57.04-2.57 4.04 0 4a20.4 20.4 0 0 0 13.3-5 21 21 0 0 0 6.26-11.02c.95-4.5.61-8.88.07-13.4q-.75-6.43-1.88-12.8c-1.61-9.05-3.9-17.95-6.21-26.82-1.2-4.62-2.34-9.25-4.95-13.31a26 26 0 0 0-8.98-8.26c-7.1-4.2-15.33-6.36-23-9.3a2 2 0 0 0-2.45 1.4 2.05 2.05 0 0 0 1.4 2.46Z" class="b"/><path d="M76.55 157.69q-.56.48-1.2 1.1c.88 7.36 1.8 15.27 2.6 22.29l5.31-2.75 1.96-1.02c1.88-.97 3.17-1.73 4.76-2.6-2.1 2.2-3.12 3.05-5.97 6.16a3 3 0 0 0-.3 3.13c.96 1.39 2.96.82 3.5.54 3.74-2.01 6.73-4.3 10.14-5.6a32 32 0 0 0 9.74.5c.86-6.46 1.81-14.95 2.37-19.85-3.27.8-6.62-.95-9.65-2.49q-2.76-1.4-5.58-2.65a17 17 0 0 0-3.05-1.1 12.5 12.5 0 0 0-7.66.97c-2.79 1.2-4.15.94-6.97 3.37" class="d"/><path d="M33.51 170.16a273 273 0 0 1 5.4-33.49q1.2-5.14 2.54-10.25a56 56 0 0 1 2.78-9.03 20 20 0 0 1 5.16-7.12c.9-.79-.27.17.3-.22l.55-.37q.57-.38 1.16-.73 1.64-.99 3.31-1.91a141 141 0 0 1 16.8-8.02 2.06 2.06 0 0 0 1.4-2.46 2 2 0 0 0-2.45-1.4 173 173 0 0 0-16.73 7.86 62 62 0 0 0-5.7 3.33 20 20 0 0 0-5.85 6.35 36 36 0 0 0-3.66 9c-.97 3.54-1.83 7.13-2.7 10.7a245 245 0 0 0-3.74 17.84c-1.1 6.6-1.86 13.25-2.56 19.9a2 2 0 0 0 2 2 2.05 2.05 0 0 0 2-2Z" class="b"/><path d="M4.43 127.53a7888 7888 0 0 1 67 11.68 2.1 2.1 0 0 1 1.71 1.82c1.63 12.35 4.33 35.79 5.91 49.76a2.13 2.13 0 0 1-2.45 2.34c-16.01-2.6-54.68-9.98-66.02-12.47a2.1 2.1 0 0 1-1.64-1.71C6.8 166.8 3.22 139.23 1.95 129.9a2.13 2.13 0 0 1 2.47-2.38" class="d"/><path d="M3.9 129.46q22.76 3.88 45.51 7.86 10.03 1.74 20.05 3.56a6 6 0 0 1 1.44.26c.51.27.43 1.26.51 1.94q.4 3.03.77 6.06.9 7.3 1.76 14.62.88 7.45 1.73 14.91l.81 7.06.37 3.24.14 1.22c.02.2.17.76.08.94.08-.17-.2.1 0 0-.38.18-1.33-.16-1.74-.22q-1.23-.2-2.45-.42-2.57-.43-5.13-.89-6-1.06-12-2.17-12.88-2.37-25.73-4.87-5.54-1.08-11.07-2.2l-4.3-.88a22 22 0 0 1-3.39-.71c-.42-.17-.26.1-.38-.35a11 11 0 0 1-.2-1.13q-.22-1.24-.42-2.49-.46-2.87-.89-5.74-.97-6.47-1.87-12.94-1.64-11.91-3.22-23.82l-.3-2.22c-.08-.59-.22-.62.44-.55a2 2 0 0 0 2-2 2.04 2.04 0 0 0-2-2c-2.97-.29-4.74 2.39-4.37 5.08l.12.9.08.6c-.04-.32 0 .03 0 .08l.35 2.52 1.69 12.6c1.24 9.12 2.48 18.24 3.92 27.34a32 32 0 0 0 .95 5.28c.7 2.08 2.56 2.59 4.47 3q4.65.97 9.3 1.9 13.08 2.6 26.19 5.04c8.3 1.56 16.6 3.1 24.93 4.51a23 23 0 0 0 5.23.74 4.2 4.2 0 0 0 3.24-2.05 5.8 5.8 0 0 0 .36-3.8l-1.69-14.73a2596 2596 0 0 0-3.65-30.45c-.28-2.21-.18-4.99-2.33-6.29a12 12 0 0 0-4.15-1.05q-4.97-.9-9.93-1.77-25.03-4.41-50.1-8.68l-4.07-.7A2.06 2.06 0 0 0 2.5 127a2 2 0 0 0 1.4 2.46" class="b"/><path d="M79.99 193.9c1.1-.91 2.11-1.92 3.14-2.91q2.48-2.4 4.94-4.83a2 2 0 0 0-2.83-2.83q-2.46 2.43-4.94 4.83c-1.03.99-2.05 2-3.14 2.91a2 2 0 0 0 0 2.83 2.06 2.06 0 0 0 2.83 0" class="b"/><path d="M29 171.83a2.8 2.8 0 0 0-2.53-2.36 3.9 3.9 0 0 0-3.92 2.23 46 46 0 0 0-1.5 11.1c-.17 3.83 3.27 7.76 6.94 8.72 1.86.7 12.45 2.37 15.74 1.85 1.76.42 5.33-1.07 5.91-2.78s.27-5.36.28-9.01c0-2.57-.84-3.57-2.34-4.44a3.2 3.2 0 0 0-4 .73c.35-2 .83-6.6-3.09-7.11a3.1 3.1 0 0 0-3.69 2.01c.1-2.68-.82-5.12-3.55-5.5s-4.06 2.64-4.18 3.75" class="d"/><path d="M45.32 178.91c.72-.57 1.75.17 2.12.6.6.72.47 2.35.49 3.54.02 1.76.11 3.54.03 5.3a5 5 0 0 1-.22 1.6c0 .02-.1.12-.08.1a4 4 0 0 1-.58.48 5 5 0 0 1-2.95.9c.53.03-1.22.03-.8 0a17 17 0 0 1-1.7.04 56 56 0 0 1-6.96-.66 32 32 0 0 1-6.15-1.22 2 2 0 0 0-2.46 1.4 2.04 2.04 0 0 0 1.4 2.46 38 38 0 0 0 7.87 1.46 33 33 0 0 0 8.93.4H43.2a8.5 8.5 0 0 0 7.12-2.25c2.04-1.93 1.7-5.2 1.65-7.76-.05-2.85.46-6.36-1.7-8.6a5.6 5.6 0 0 0-7.78-.6 2 2 0 0 0 0 2.82 2.05 2.05 0 0 0 2.83 0Z" class="b"/><path d="M45.24 185.74q.18-4.32.48-8.62c.16-2.38.1-4.93-1.66-6.76a5.9 5.9 0 0 0-7.71-.4c-1.54 1.34-1.73 3.22-1.98 5.11-.4 3-.58 6-.82 9.01a2 2 0 0 0 2 2 2.04 2.04 0 0 0 2-2c.18-2.21.32-4.43.54-6.64a36 36 0 0 1 .47-3.54l.1-.4c.1-.4.15-.01-.05.07.06-.02.15-.3.19-.37.13-.23.3-.3.02-.06l.36-.35c-.27.25-.1.1.12-.02s-.33.08-.06.03l.4-.1c-.42.08.3.01.42.01-.01 0 .34.04.16.01-.2-.02.2.05.25.06.13.03.61.25.3.08l.3.17c.42.23-.12-.13.05.05l.23.23c.19.2-.17-.28-.03-.03l.26.49c-.2-.4.04.14.07.28l.08.32c.01.05.08.51.04.22l.03.39v.65q-.02.8-.09 1.6-.29 4.25-.46 8.5a2 2 0 0 0 4 0Z" class="b"/><path d="M38.8 172.91a8.3 8.3 0 0 0-1.65-5.7 5.7 5.7 0 0 0-5.71-1.8 6.1 6.1 0 0 0-3.8 3.52 16 16 0 0 0-.87 5.49c-.19 2.6-.3 5.22-.47 7.82a2 2 0 0 0 4 0c.16-2.45.27-4.91.43-7.36a91 91 0 0 1 .31-3.64q.06-.52-.02.13l.08-.3.15-.48c-.17.52 0 .03.06-.1a6 6 0 0 1 .45-.71q-.23.29-.01.03l.34-.34c-.32.32.16-.09.26-.15.36-.22-.27.03.15-.05q.34-.08-.01-.02l.37-.02c.38-.02-.1-.07.26.04.1.02.76.3.41.11.06.03.56.35.39.22s.25.26.3.31c-.3-.31.12.2.17.3.03.06.22.55.1.17l.2.7c.02.1.11.57.06.22a9 9 0 0 1 .05 1.6 2 2 0 0 0 4 0Z" class="b"/><path d="M30.92 171.3c-.58-3.58-4.98-4.7-7.8-3.05-3.13 1.82-3.32 5.99-3.7 9.22-.4 3.37-.83 6.85.76 9.99a12 12 0 0 0 7.28 5.98c2.48.7 3.54-3.15 1.06-3.86a8 8 0 0 1-4.48-3.43c-1.23-1.98-1-3.99-.84-6.22q.12-1.9.4-3.78.17-1.03.4-2.06a8 8 0 0 1 .48-1.86c-.12.22.32-.31.4-.37a2 2 0 0 1 .99-.43 1.03 1.03 0 0 1 1.2.93 2 2 0 0 0 2.46 1.4 2.05 2.05 0 0 0 1.4-2.46Zm47.74-12.75a28 28 0 0 1 6.4-2.7 10.4 10.4 0 0 1 8.16.33c2.72 1.18 5.31 2.61 8 3.85 2.82 1.29 5.67 2.13 8.77 1.49 2.52-.53 1.45-4.38-1.06-3.86-2.85.6-5.67-1.05-8.11-2.29a48 48 0 0 0-8.66-3.84 14 14 0 0 0-8.57.61c-2.33.9-4.86 1.52-6.95 2.95-2.11 1.45-.12 4.91 2.02 3.46m2.82 2.66-4.84 2.44a2 2 0 0 0 .48 3.66 2.2 2.2 0 0 0 1.54-.2l4.84-2.45a2 2 0 0 0-.47-3.66 2.2 2.2 0 0 0-1.55.2Zm-1.24 13.05c2.6-1.6 5.35-2.98 8.08-4.35a2 2 0 0 0 .72-2.74 2.05 2.05 0 0 0-2.74-.72 111 111 0 0 0-8.08 4.36 2 2 0 1 0 2.02 3.45m1.57 7.07c1.92-1 3.86-1.97 5.76-3 1.7-.92 3.39-1.9 5.1-2.79a2 2 0 0 0 .72-2.73 2.05 2.05 0 0 0-2.73-.72c-1.72.9-3.4 1.86-5.1 2.79q-2.86 1.52-5.77 3a2 2 0 0 0-.71 2.73 2.05 2.05 0 0 0 2.73.72m15.1-.43a35 35 0 0 0 10.19.54 2.05 2.05 0 0 0 2-2 2 2 0 0 0-2-2 31 31 0 0 1-4.92.13q-1.13-.07-2.24-.2-.36-.05.02 0l-.25-.04-.58-.09q-.58-.09-1.15-.2a2 2 0 0 0-1.06 3.86" class="b"/><path d="M87.69 174.22q-1.66 1.64-3.29 3.31a19 19 0 0 0-2.23 2.48 5 5 0 0 0-.76 3.02 4.1 4.1 0 0 0 4.58 3.84c2.08-.2 3.84-1.5 5.58-2.55q1.6-.99 3.23-1.93a30 30 0 0 1 3.06-1.5 2.06 2.06 0 0 0 1.4-2.46 2 2 0 0 0-2.46-1.4 43 43 0 0 0-6.73 3.52 97 97 0 0 1-3.2 1.88c-.05.04-.74.38-.73.4q.52-.2.21-.1l-.22.07c-.14.04-.7.1-.13.06q-.3.03-.6.02.4.07.07 0-.32-.1.03.04-.28-.17 0 .04-.23-.24-.04.02-.17-.3-.01.02-.08-.34-.03.01c0-.12.09-.79 0-.37.02-.11.27-.76.05-.32.06-.13.32-.47-.03-.05.4-.49.87-.94 1.31-1.4 1.23-1.3 2.52-2.56 3.78-3.84a2 2 0 0 0-2.83-2.83Zm59.6 14.52a141 141 0 0 1-32.99-3.1 123 123 0 0 1-5.93-1.39c-.53-.14-.64-.38-.31.39.4.94.16.44.3.06a5 5 0 0 0 .15-.98l.39-2.77q.84-6.28 1.56-12.58l.74-6.5.3-2.65.12-1.05.06-.46.03-.26q.03-.39.03.12l-.72.71-.18-.03.5.07.97.13 1.95.27 3.85.55 7.74 1.12q7.3 1.08 14.58 2.2a2.07 2.07 0 0 0 2.46-1.4 2 2 0 0 0-1.4-2.46c-8.4-1.28-16.79-2.56-25.2-3.73l-3.16-.44a7.5 7.5 0 0 0-3.4-.13c-1.65.57-1.92 2.13-2.1 3.64l-.81 7.2c-.67 5.8-1.31 11.61-2.17 17.39-.2 1.43-.68 2.98.33 4.21.97 1.18 2.78 1.36 4.2 1.7q4.8 1.16 9.69 1.98a144 144 0 0 0 28.42 2.19c2.57-.08 2.58-4.08 0-4" class="b"/></svg>
