<svg xmlns="http://www.w3.org/2000/svg" viewBox="-34.97 0 324.608 324.608"><defs><style>.a{fill:#fff}.c{fill:#211715}</style></defs><path d="M197.18 169.44a461 461 0 0 0-8.08-3.47l-18.7-6.44-.73-.26a8 8 0 0 0-1.62-3.3c-2.22-2.57-5.01-6.28-7.28-8.82-.96.78-20.61 16.27-22.1 17.33h-3.46a2463 2463 0 0 1-22.1-17.33c-2.27 2.54-5.06 6.25-7.28 8.82a8 8 0 0 0-1.6 3.2l-1.37.5s-15.5 5.54-17.46 6.32c-18.06 7.25-34.15 15.28-42.73 28.32-3.66 5.58-6.66 13.5-8.85 20.88l-21.58 12.5c.66 13 1.38 22.84 2.3 34.28.6 7.24 1.21 14.48 2.19 21.67a81 81 0 0 0 3.56 16.76c2.9 8.85 9.36 17.46 18.74 20.07 9.45 2.63 22.6 1.26 29.26-7.95l.11 9.7h183.87c-3.57-48.73-4-58.37-6.62-82.95-1.67-15.72-6.84-35.86-12.82-44.95-7.13-10.86-20.59-18.22-35.65-24.88" class="a"/><path d="M113.12 147.15c-2.27 2.54-5.07 6.26-7.29 8.83-1.3 1.51-2.26 4.29-1.52 6.3.85 1.7 10.27 16.8 16.62 20.87 2-2.67 10.31-14.2 14.28-18.67a2448 2448 0 0 1-22.1-17.33m47.65 0c2.27 2.54 5.07 6.26 7.29 8.83 1.3 1.51 2.26 4.29 1.52 6.3-.85 1.7-10.28 16.8-16.62 20.87-2-2.67-10.31-14.2-14.28-18.67 1.48-1.06 21.13-16.55 22.1-17.33" class="a"/><path d="M185.63 81.63a7.6 7.6 0 0 1 5.5-2.02 7.1 7.1 0 0 1 6.35 3.53c2.15 3.73 2.06 10.62.61 14.89-1.02 3.02-2.7 7.63-6.75 10.94a8.4 8.4 0 0 1-6.47 1.87l-.62-.1a49 49 0 0 1-2.22 6.04c-1.6 4.34-10.22 19.24-21.26 25.68v4.7c-.96.78-20.6 16.27-22.1 17.33h-3.46a2463 2463 0 0 1-22.1-17.33v-4.77a46 46 0 0 1-12.59-10.93 58 58 0 0 1-10.98-20.72 8.2 8.2 0 0 1-7-1.76c-4.05-3.31-5.73-7.93-6.75-10.95-1.45-4.26-1.54-11.15.62-14.89a7.1 7.1 0 0 1 6.34-3.52 7.6 7.6 0 0 1 5.5 2.01s-5.67-45.15 48.69-45.15c54.22 0 48.7 45.15 48.7 45.15" class="a"/><path d="M123.85 284.6a53 53 0 0 1-4.48-5.26c2.4-22 9.8-89.72 9.78-90.8a22 22 0 0 0-1.28-6.1c-.38-1.22-1.24-3.76-1.93-6.08 3.15-4.25 6.95-9.27 9.27-11.88h3.46c2.46 2.75 6.55 8.2 9.8 12.59-.56 2.04-1.1 4.3-1.43 5.37a22 22 0 0 0-1.29 6.1c0 1.07 7.22 67.46 9.72 90.08 0 0-12.5 14.41-18.06 18.69a136 136 0 0 1-13.56-12.71" style="fill:#3d8dcc"/><path d="M145 183.66c-5.12 0-10.24.1-15.36.1a2.4 2.4 0 1 0 0 4.8c5.12 0 10.24-.1 15.36-.1a2.4 2.4 0 0 0 0-4.8" class="c"/><path d="M123.62 177c1 3.31 2.4 6.62 3 10.04a8 8 0 0 1 .07 2.27q-.27 2.81-.57 5.62-1.22 11.6-2.49 23.21l-3.25 29.98-2.86 26.2c-.17 1.56-.43 3.14-.52 4.7-.08 1.35.77 2.22 1.56 3.21q1.03 1.27 2.14 2.5a139 139 0 0 0 12.17 11.94q1.39 1.2 2.84 2.34a2.5 2.5 0 0 0 3.4 0 89 89 0 0 0 10.2-9.97c2.6-2.79 5.2-5.6 7.66-8.5 1.2-1.41.78-2.94.6-4.64l-.62-5.59-1.48-13.54q-1.72-15.7-3.42-31.41l-2.88-26.8-.81-7.8q-.12-.94-.19-1.87c-.12-2.08.68-4.1 1.25-6.06.5-1.7.9-3.42 1.36-5.13.81-2.98-3.82-4.26-4.62-1.27-.78 2.86-1.71 5.73-2.35 8.62a14 14 0 0 0-.44 3.84c.08 1.2.24 2.42.37 3.62q.84 8.2 1.74 16.4 2.57 24 5.2 48l2.39 21.71.7-1.7q-3.4 3.93-6.95 7.74c-3.5 3.8-7.02 7.78-11.11 10.95h3.4a109 109 0 0 1-10.08-9.12 138 138 0 0 1-4.65-4.84 77 77 0 0 1-2.56-2.98c.32.4-.3-.4-.39-.54l.33 1.21q2.39-21.82 4.76-43.66c1.52-13.98 3.06-27.96 4.52-41.96.16-1.56.36-3.12.47-4.69a14 14 0 0 0-.37-3.74c-.67-3.25-1.93-6.4-2.9-9.57-.88-2.95-5.52-1.7-4.62 1.28" class="c"/><path d="M111.42 145.46c-1.46 1.64-2.83 3.36-4.2 5.07-1.3 1.62-2.81 3.16-3.95 4.9a8.5 8.5 0 0 0-.51 8.98 111 111 0 0 0 9.76 13.88 33 33 0 0 0 7.2 6.93 2.46 2.46 0 0 0 3.28-.86c4.57-6.1 8.86-12.47 13.9-18.18a2.45 2.45 0 0 0-.48-3.77l-.9-.68-.34-.27c-.3-.22.4.32-.03-.01l-1-.78q-2.61-2.03-5.21-4.08-5.62-4.4-11.21-8.82l-2.93-2.31a2.47 2.47 0 0 0-3.4 0 2.4 2.4 0 0 0 0 3.4c6.27 5.04 12.64 9.97 18.99 14.92 1.2.93 2.37 1.9 3.6 2.77l-.49-3.77c-5.32 6.02-9.85 12.74-14.66 19.16l3.29-.86a18 18 0 0 1-.99-.71q-.74-.63-1.44-1.3-1.46-1.43-2.8-2.98a87 87 0 0 1-5.26-6.85 126 126 0 0 1-5.1-7.85l-.13-.24c.15.37.01-.02.03-.22a6 6 0 0 1 .44-2.15c.77-1.74 2.4-3.22 3.59-4.69 1.42-1.76 2.83-3.54 4.33-5.23 2.06-2.31-1.33-5.72-3.38-3.4" class="c"/><path d="M159.08 148.85c1.31 1.48 2.55 3.03 3.8 4.57 1.14 1.43 2.41 2.8 3.5 4.27a6 6 0 0 1 .9 1.89 4 4 0 0 1 .16.99c0 .17-.14 1.02.05.54a10 10 0 0 1-.8 1.39 105 105 0 0 1-8.91 12.63 50 50 0 0 1-3.2 3.55q-.75.75-1.56 1.44a8 8 0 0 1-1.27.96l3.29.86c-4.81-6.42-9.34-13.14-14.66-19.16l-.49 3.77c2.8-2 5.45-4.2 8.15-6.33q5.73-4.49 11.44-9l3-2.37a2.4 2.4 0 0 0 0-3.4 2.46 2.46 0 0 0-3.4 0c-6.19 5-12.48 9.87-18.75 14.76l-1.15.9-.5.39c-.32.24.39-.3-.07.05l-1.14.86a2.45 2.45 0 0 0-.49 3.77c5.05 5.71 9.34 12.09 13.91 18.18a2.45 2.45 0 0 0 3.28.86c5.2-3.4 9.06-9.03 12.56-14.05q2.14-3.06 4.1-6.25a11 11 0 0 0 1.07-2 8.6 8.6 0 0 0-.6-6.23c-.92-2.07-2.68-3.74-4.09-5.5-1.55-1.92-3.09-3.87-4.73-5.73-2.06-2.32-5.45 1.09-3.4 3.4" class="c"/><path d="M254.67 322.2c-1.15-15.66-2.24-31.33-3.4-47q-1.06-14.53-2.5-29.04c-1.6-15.78-4.07-31.69-10.38-46.36a44.6 44.6 0 0 0-13.5-17.44c-6.98-5.55-14.91-9.7-22.98-13.4a180 180 0 0 0-16.37-6.74l-13.52-4.66-.98-.34c-2.93-1.01-4.18 3.62-1.27 4.63 7.83 2.7 15.77 5.15 23.38 8.44 8.23 3.55 16.45 7.34 23.93 12.3 6.09 4.03 11.73 9.03 15.21 15.54 3.7 6.91 5.86 14.7 7.66 22.3a179 179 0 0 1 3.74 22.97q1.46 14.13 2.51 28.29c1.09 14.3 2.07 28.6 3.11 42.9l.56 7.62a2.46 2.46 0 0 0 2.4 2.4 2.4 2.4 0 0 0 2.4-2.4ZM64.54 221.14c.27 11.85.45 23.7.63 35.56q.32 21.52.57 43.05l.26 22.47c.04 3.09 4.84 3.1 4.8 0q-.23-20.64-.5-41.29-.27-20.73-.6-41.47-.16-9.16-.37-18.32c-.07-3.08-4.87-3.1-4.8 0Z" class="c"/><path d="M208.2 322.2q.15-18.92.34-37.85.21-22.04.5-44.09.13-9.56.3-19.13c.07-3.09-4.73-3.09-4.8 0-.25 12.59-.4 25.17-.54 37.75q-.25 22.06-.44 44.12l-.16 19.2c-.03 3.1 4.77 3.1 4.8 0M36.14 215.84c2.19-7.33 4.8-14.84 9.2-21.17a52 52 0 0 1 14.1-13.16c10.14-6.72 21.56-11.4 32.96-15.53l11.1-3.99a2.46 2.46 0 0 0 1.69-2.95 2.4 2.4 0 0 0-2.96-1.68c-7.79 2.79-15.6 5.49-23.23 8.7-13.23 5.6-27.16 12.4-36.19 24-5.55 7.15-8.73 15.91-11.3 24.5-.88 2.97 3.75 4.24 4.63 1.28m-26.3 11.85q.74 14.6 1.9 29.17c.82 10.33 1.67 20.66 3.16 30.92 1.21 8.34 3.4 17 8.43 23.92a31 31 0 0 0 9.25 8.63 29 29 0 0 0 11.62 3.53c8.86.97 18.66-1.42 24.73-8.29 2.03-2.3-1.35-5.71-3.4-3.4-4.83 5.47-12.2 7.4-19.28 7.05a25 25 0 0 1-10.13-2.42 25 25 0 0 1-8.32-7.08c-4.84-6.35-6.92-14.4-8.11-22.16-1.48-9.61-2.25-19.32-3.02-29.01q-1.22-15.42-2.03-30.86c-.15-3.07-4.95-3.09-4.8 0" class="c"/><path d="M189.56 33.5a44 44 0 0 0-8.38-9.83l-7.77-6.92C163.33 5.52 149.93 2.42 136.73 2.42A60 60 0 0 0 99.69 14.6a54 54 0 0 0-10.44 10.87c-6.77 6.62-12.17 21.1-11.76 35.44a75 75 0 0 0 2.36 19.26 9 9 0 0 1 2.9-.55 7.6 7.6 0 0 1 5.5 2.01l2.18 1.53a82 82 0 0 1 .95-8.75c1.02-6.15 7.4-8.98 10.1-14.47 1.57-3.16 2.5-6.86 5.17-9.1 2.01-1.7 4.7-2.28 7.28-2.55 4.01-.42 17.58.18 22.12 1.02 3.84.22 7.56.98 13.03 1.68 2.97.38 8.48 1.35 10.59 1.77 8.28 1.9 11.45 3.98 15.61 9.61 1.6 2.16 3.3 6.1 4.87 11.24l5.47 8.02a7.6 7.6 0 0 1 5.5-2.01 9 9 0 0 1 2.7.48 63 63 0 0 0 2.3-19.19c-.53-12.68-2.62-20.9-6.56-27.42" style="fill:#85807f"/><path d="M136.7 47a91 91 0 0 0-11.9-1.08 71 71 0 0 0-11.25.01 15.7 15.7 0 0 0-8.29 2.96 16.4 16.4 0 0 0-4.45 6.68 23 23 0 0 1-3.6 6.38c-1.53 1.75-3.27 3.31-4.75 5.11a15.4 15.4 0 0 0-3.54 7.65c-.49 3.16-.72 6.33-.97 9.52a2.4 2.4 0 0 0 2.4 2.4 2.45 2.45 0 0 0 2.4-2.4c.35-4.45.06-9.77 2.88-13.49 2.7-3.55 6.35-6.13 8.26-10.28 1.02-2.21 1.76-4.66 3.23-6.64 1.42-1.92 3.63-2.65 5.9-3.01a53 53 0 0 1 10.32-.15 176 176 0 0 1 10.08.68l.6.07.26.03 1.14.18a2.47 2.47 0 0 0 2.95-1.67 2.4 2.4 0 0 0-1.68-2.96Zm22.34 8.07a38 38 0 0 1 7.05 2.22 20 20 0 0 1 2.67 1.57l.32.24.52.44q.6.54 1.17 1.13c3.62 3.73 5.5 8.5 7.07 13.57.91 2.94 5.55 1.69 4.63-1.28a56 56 0 0 0-3.73-9.56 27 27 0 0 0-4.57-6.13c-3.76-3.88-8.7-5.63-13.86-6.83-3-.7-4.28 3.93-1.27 4.63m-7.33-5.67c-.76-3.21-3.28-5.95-5.8-7.92a29.3 29.3 0 0 0-14.42-5.66 2.4 2.4 0 0 0-2.4 2.4 2.46 2.46 0 0 0 2.4 2.4 28 28 0 0 1 6.67 1.8l.35.16q.39.17.77.36.69.34 1.35.73.63.36 1.24.77l.62.43c.09.06.59.44.19.13a19 19 0 0 1 1.9 1.69q.38.38.73.79.17.23.38.46l-.12-.16.19.26a13 13 0 0 1 .99 1.63c.03.07.18.29.16.36.02-.07-.2-.57-.05-.11q.12.37.22.76a2.4 2.4 0 0 0 4.63-1.28M87.55 23.77c-4.85 4.82-7.86 11.4-9.82 17.86a69 69 0 0 0-2.5 23.95 75 75 0 0 0 2.1 14.5c.77 2.99 5.4 1.72 4.64-1.28A75 75 0 0 1 80 55.54a54 54 0 0 1 5.43-20.43 30 30 0 0 1 5.52-7.95c2.2-2.18-1.2-5.57-3.4-3.4" class="c"/><path d="M175.1 15.06C166.33 5.38 154.1.9 141.26.15c-12.97-.76-26.44 1.33-37.75 8a44 44 0 0 0-9.11 6.9 69 69 0 0 0-7.22 9.2 2.4 2.4 0 0 0 .86 3.29 2.45 2.45 0 0 0 3.29-.86 66 66 0 0 1 5.9-7.63 36 36 0 0 1 7.13-5.8 52 52 0 0 1 16.63-6.84 73 73 0 0 1 18-1.56 55 55 0 0 1 16.44 2.78 39 39 0 0 1 16.29 10.82c2.08 2.3 5.46-1.1 3.39-3.4Zm21.2 65.01a71 71 0 0 0 2.26-15.26 89 89 0 0 0-1.01-14.67c-1-7.01-3.11-13.97-7.2-19.83a50 50 0 0 0-7.47-8.34c-2.28-2.07-5.69 1.31-3.4 3.4 4.5 4.06 8.24 8.63 10.44 14.16 2.9 7.28 3.75 15.37 3.86 23.14a64 64 0 0 1-2.1 16.13c-.74 3 3.89 4.28 4.63 1.27Zm-106.35-.14a10.7 10.7 0 0 0-11.78-1.63 10.4 10.4 0 0 0-5.2 7.17A27.2 27.2 0 0 0 77 106.34c2.93 4.36 7.17 7.56 12.64 6.81a2.4 2.4 0 0 0 1.68-2.95 2.46 2.46 0 0 0-2.95-1.67c-3.83.52-6.8-3.59-8.35-6.51a23.5 23.5 0 0 1-2.82-9.22 20 20 0 0 1 .24-5.38 11 11 0 0 1 1.36-3.6c-.15.2.33-.36.39-.42a2 2 0 0 1 .5-.45 5 5 0 0 1 2.08-.84 5.6 5.6 0 0 1 4.78 1.22c2.29 2.06 5.69-1.32 3.4-3.4" class="c"/><path d="M187.33 83.32a5.6 5.6 0 0 1 7.81.58c-.32-.42.13.22.18.3a7 7 0 0 1 .5.95 12 12 0 0 1 .62 2.26 20 20 0 0 1 .24 5.38 23.5 23.5 0 0 1-2.73 9.07c-1.56 2.97-4.54 7.2-8.44 6.66a2.5 2.5 0 0 0-2.95 1.68 2.4 2.4 0 0 0 1.68 2.95c8.84 1.2 13.97-7.5 16.27-14.79a25.5 25.5 0 0 0 .69-11.53 11.6 11.6 0 0 0-4.37-7.87 10.56 10.56 0 0 0-12.9.96c-2.3 2.08 1.11 5.47 3.4 3.4" class="c"/><path d="M182.86 106.52a47 47 0 0 1-1.81 6.3c-.23.64-.63 1.71-.8 2.12l-.54 1.2c-.04.1-.26.68-.1.29.16-.41-.1.23-.14.31l-.28.6-.77 1.52a61 61 0 0 1-1.92 3.35 61 61 0 0 1-13.07 15.5 24 24 0 0 1-9.7 5.04c-3.01.69-1.74 5.32 1.27 4.62 7.36-1.7 13.48-7.06 18.29-12.64a67 67 0 0 0 10.29-15.5l.72-1.7c-.31.75.41-.94.43-.99l.58-1.44a48 48 0 0 0 2.18-7.3 2.46 2.46 0 0 0-1.68-2.96 2.4 2.4 0 0 0-2.95 1.68m-96.6 1.1a61 61 0 0 0 8.63 20.27c4.4 6.6 10.17 12.76 17.15 16.64a34 34 0 0 0 11.5 3.92 2.5 2.5 0 0 0 2.95-1.68 2.4 2.4 0 0 0-1.67-2.95c-14.46-2.14-25.27-14.67-30.75-27.51a58 58 0 0 1-3.18-9.96c-.68-3.01-5.31-1.74-4.63 1.28Zm41.69 15.06a20 20 0 0 0 9.5 2.2 15.5 15.5 0 0 0 9.6-2.82 2.4 2.4 0 0 0 0-3.4 2.46 2.46 0 0 0-3.4 0c.72-.56.14-.12-.04 0s-.4.24-.6.35c-.15.08-.87.37-.23.13l-.81.3a14 14 0 0 1-2.29.52 19 19 0 0 1-2.53.12 21 21 0 0 1-2.11-.1c-.01 0-.8-.12-.35-.04a16 16 0 0 1-2.13-.48q-.45-.14-.88-.3l-.29-.1c.49.32.26.1.06.01l-1.08-.54a2.45 2.45 0 0 0-3.28.86 2.43 2.43 0 0 0 .86 3.29m8.33-22.46a45 45 0 0 1 1.05 4.82l-.08-.63a3 3 0 0 1 .01.66l.09-.64-.07.3.24-.57-.1.2.37-.5-.16.16.49-.37-.39.2.58-.24a3 3 0 0 1-.65.18l.64-.08a3 3 0 0 1-.6 0l.64.08-.68-.11a2.7 2.7 0 0 0-1.85.24 2.4 2.4 0 0 0-.86 3.28 2.3 2.3 0 0 0 1.43 1.1c.52.07 1.01.2 1.53.22a5 5 0 0 0 2.25-.53 3.2 3.2 0 0 0 1.8-2.13 5 5 0 0 0-.03-2.3q-.4-2.33-1.02-4.62a2.4 2.4 0 0 0-4.63 1.27Zm-25.6-13.66c-.8 2.62-.28 8.65 4.68 9.16 6.56-.04 6.9-7.32 4.7-10.75-1.8-2.8-7.12-3.97-9.38 1.6m52.53 0c.8 2.62.28 8.65-4.68 9.16-6.56-.04-6.91-7.32-4.7-10.75 1.8-2.8 7.12-3.97 9.38 1.6" class="c"/><path d="M48.38 175.7c2.05.46 3.98 1 6.13 1.64a8 8 0 0 1 4.9 4.71c1.58 3.92 1.63 6.37.44 10.8a50 50 0 0 1-6.9 14.57 22 22 0 0 1-2.6 3.02c-2.05 1.96-1.78 4.6-2.17 7.6-.22 1.62-.05 3.11-.14 4.28-5.76 2.02-21.77 3.42-29.2 4.16-1.1-3.36-5.5-13.03-6.03-13.55-4.75-4.7-10.19-16.4-10.4-27.46l.24-.02a27 27 0 0 1 0-2.97c.07-1.42 1.37-5.02 4.26-5.76a5.1 5.1 0 0 1 5.77 1.91l.27.02a27 27 0 0 1 .5-3.53 6.3 6.3 0 0 1 5.17-4.45c2.41-.38 3.35 1.15 4.56 2.8.01-2.06.87-4.46 2.74-5.45 2.04-1.07 5.45-1.4 7.25.78l.61-.08c-1.34-10.03-2.62-20.69-2.65-23.33a7.16 7.16 0 0 1 6.05-6.76c3.34-.39 6.82 4.53 7.21 6.7a446 446 0 0 1 4.2 29.46Z" class="a"/><path d="M51 174.8c-.97-8.4-2.06-16.79-3.44-25.13a39 39 0 0 0-1-5.56 13 13 0 0 0-2.45-4.19c-2.49-3.05-6.05-4.62-9.82-2.91a9.6 9.6 0 0 0-5.55 8.6c.04 1.66.25 3.33.42 4.98.6 5.8 1.35 11.56 2.11 17.33.8 6.06 1.6 12.12 2.57 18.15a2.4 2.4 0 0 0 2.95 1.68 2.46 2.46 0 0 0 1.67-2.95 707 707 0 0 1-4.74-36.68c-.13-1.43-.43-3 .18-4.34a5 5 0 0 1 2.9-2.62 1.6 1.6 0 0 1 1.37-.02 6 6 0 0 1 1.23.8 9.5 9.5 0 0 1 2.45 3.24c.12.27.02.05 0 0l.1.3q.12.45.2.9l.52 3.01a471 471 0 0 1 3.52 25.4 2.47 2.47 0 0 0 2.4 2.4 2.4 2.4 0 0 0 2.4-2.4Zm-36.25 2.62a7.6 7.6 0 0 0-4.49-3.14 8.3 8.3 0 0 0-5.34.65 9.3 9.3 0 0 0-4.54 6.53 22 22 0 0 0 .7 9.2 13 13 0 0 0 2.27 5.08 7.3 7.3 0 0 0 4.01 2.34c3.69.72 7.18-1.63 8.8-4.85a2.46 2.46 0 0 0-.86-3.29 2.4 2.4 0 0 0-3.28.87 10 10 0 0 1-.7 1.2c.23-.34-.15.15-.25.25-.08.08-.57.48-.3.28a9 9 0 0 1-1.44.85c.37-.17-.08 0-.23.04-.04.01-.38.05-.1.03s-.19-.02-.23-.02q-.17 0-.33-.02c.43.05.06.01-.03-.02l-.66-.2c.35.14-.15-.12-.25-.17 0 0-.33-.2-.14-.07.16.11-.18-.16-.21-.19-.1-.09-.43-.46-.36-.37s-.2-.36-.26-.47a15 15 0 0 1-.65-1.92A20 20 0 0 1 5 183.4l.02-.69c.01-.4.07-.33-.03.03.11-.38.17-.77.3-1.14.05-.17.21-.55.05-.18a9 9 0 0 1 .8-1.42c.23-.3-.2.23.06-.04l.3-.33c.04-.03.37-.32.2-.19-.09.07.38-.24.52-.31l-.03.01.48-.14a2 2 0 0 1 .62-.09 2.5 2.5 0 0 1 1.38.2 3 3 0 0 1 .93.73 2.5 2.5 0 0 0 3.28.86 2.4 2.4 0 0 0 .86-3.28Z" class="c"/><path d="M25.26 172.25a10 10 0 0 0-3.53-3.5 7.1 7.1 0 0 0-5.96.32 9 9 0 0 0-3.75 3.36 12 12 0 0 0-1.35 5 33 33 0 0 0 .82 11.7 14 14 0 0 0 1.5 3.92 8 8 0 0 0 4.93 3.36c3.87.84 9.03-1.84 9.57-6a2.4 2.4 0 0 0-2.4-2.4 2.46 2.46 0 0 0-2.4 2.4c.11-.86.17-.52-.1-.22a5 5 0 0 1-.66.62 9 9 0 0 1-1.29.77 3.1 3.1 0 0 1-3.41-.85 3 3 0 0 1-.5-.9q-.34-.9-.58-1.83a26 26 0 0 1-.75-4.4 31 31 0 0 1 0-5.54 18 18 0 0 1 .4-2.48l.13-.38q-.14.3-.01.07a6 6 0 0 1 .44-.73c-.17.22.28-.3.33-.34a4 4 0 0 1 .66-.54 4 4 0 0 1 1.63-.63c.53-.06.67-.02.98.25a8 8 0 0 1 1.15 1.39 2.47 2.47 0 0 0 3.28.86 2.4 2.4 0 0 0 .86-3.28Z" class="c"/><path d="M34.87 167.1c-2.45-2.77-6.66-2.8-9.81-1.31-3.2 1.51-4.57 5.4-4.2 8.76.4 3.74 1.04 7.47 1.78 11.16.33 1.66.5 3.3 1.73 4.58a9 9 0 0 0 4.63 2.44 8 8 0 0 0 6.47-1.59 12 12 0 0 0 2.5-3.5c1.55-2.68-2.6-5.1-4.15-2.42-.28.47-.51.97-.8 1.45-.05.08-.54.75-.26.42-.06.08-.64.6-.4.43a3.4 3.4 0 0 1-3.37.2 5 5 0 0 1-1.03-.61q.21.13-.12-.14-.3-.33-.05-.01-.21-.37.03.12l-.12-.58-.27-1.24q-.53-2.61-.97-5.25-.43-2.43-.73-4.86a6.5 6.5 0 0 1 .34-3.87 3.5 3.5 0 0 1 5.4-.78c2.06 2.32 5.44-1.09 3.4-3.4" class="c"/><path d="M48.88 187.45c-2.36-.93-5.2-1.82-7.23-3.4a5.4 5.4 0 0 1-1.7-2.62 3 3 0 0 1-.18-1.23c.02-.7-.1.17.05-.48 0 0 .22-.66.13-.45.67-1.5 2.45-2.06 4.27-1.95 2.91.18 5.97 1.24 8.76 2.07a6.3 6.3 0 0 1 4.43 4.09 12 12 0 0 1 .56 7 43 43 0 0 1-6.49 14.89c-1.65 2.45-4.2 4.2-5 7.15-.84 3.16-.64 6.57-.84 9.8l1.77-2.31c-4.3 1.47-9.02 1.94-13.51 2.49-5.01.61-10.04 1.08-15.06 1.58l2.32 1.76a91 91 0 0 0-5.77-13.26 8 8 0 0 0-1.34-1.82 22 22 0 0 1-2.4-3.17 46 46 0 0 1-6.85-22.12c-.08-3.09-4.88-3.1-4.8 0a50 50 0 0 0 6.25 22.4 35 35 0 0 0 2.55 4.02q.7.95 1.49 1.86l.55.6c.3.3.12.38.12.07 0 .12-.18-.38-.1-.11a16 16 0 0 0 1.03 2q.82 1.7 1.59 3.41a77 77 0 0 1 3.04 7.4 2.44 2.44 0 0 0 2.32 1.76c5.14-.5 10.28-.98 15.4-1.62 4.79-.59 9.85-1.05 14.44-2.62a2.5 2.5 0 0 0 1.76-2.31c.1-1.71.06-3.4.24-5.1a13 13 0 0 1 .67-4.14c.56-1.2 1.9-2.17 2.72-3.2a34 34 0 0 0 2.54-3.66 57 57 0 0 0 4.26-8.78 28 28 0 0 0 2.2-9.67 15.5 15.5 0 0 0-3.09-9.4c-2.05-2.56-4.87-3.41-7.92-4.24-3.26-.88-6.8-2-10.2-1.45a8.2 8.2 0 0 0-6.18 4.4c-1.49 3.26-.43 6.97 1.82 9.6a13 13 0 0 0 4.55 3.04q2.74 1.27 5.55 2.35a2.4 2.4 0 0 0 2.96-1.68 2.46 2.46 0 0 0-1.68-2.95" class="c"/></svg>
