<svg xmlns="http://www.w3.org/2000/svg" viewBox="-132.51 0 417.594 417.594"><defs><style>.a{fill:#fff}.d{fill:#211715}.e{fill:#b3b3b3}</style></defs><path d="M109.38 398.3a12 12 0 0 1-2.34-1.2 97 97 0 0 1-13.75-11.22l-1.33-1.4h-3.9a12 12 0 0 0-.85 1.4 97 97 0 0 1-13.74 11.22 11 11 0 0 1-9.82 1.3c-3.02-1.1-5.7-3.32-5.32-7.01l.26-2.58a59 59 0 0 0 6.9-8.34 14.6 14.6 0 0 0 2.78-7.98c-.42-17.75-1.66-37.36-2.9-57.5 7.44 0 17.8-.13 24.68-.27 9.56 0 16.98-.04 25.1-.25-1.24 20.33-2.5 40.12-2.91 58.02a14.6 14.6 0 0 0 2.78 7.98 59 59 0 0 0 6.9 8.34l.26 2.58c.39 3.7-2.3 5.92-5.32 7.02a10.8 10.8 0 0 1-7.48-.11M89.62 141.54c-3.07-7.21-4.55-10.4-7.21-17.84-2.1-5.9-4.54-12.2-6.7-18.48l.36.13a59 59 0 0 0 13.53 1.94c4.31.01 10.45-.67 14.66-2.35l.54-.21c-2.2 6.44-4.7 12.9-6.87 18.97-2.66 7.44-4.14 10.63-7.21 17.84" class="a"/><path d="M60.37 97.5c-7.31.19-12.06-5.2-12.02-10.15A58 58 0 0 1 50.1 75c1.38-4.91 2.36-13.55 2.36-25.52-.59-17.66 4.06-30.47 11.38-37.49A39.8 39.8 0 0 1 89.4 2a41 41 0 0 1 16.23 3.1l.84.48 4.56 2.59a35 35 0 0 1 4.75 3.98c5.6 5.39 9.48 15.1 10.1 23.78a100 100 0 0 1 .19 13.54c.2 14.92 2.95 23.27 4.37 27.38a27 27 0 0 1 1.72 9.34c.05 5.59-6.89 12.82-14.86 9.95Z" style="fill:#957f6e"/><path d="M101.5 24.77c-3.91 6.17-30.85 21.99-39.2 23.88a4.3 4.3 0 0 0-3.15-1.15 4 4 0 0 0-3.62 2.01c-1.23 2.14-1.18 6.07-.35 8.5a13 13 0 0 0 3.85 6.25 4.7 4.7 0 0 0 4 1 33 33 0 0 0 6.26 11.83 24.5 24.5 0 0 0 8.85 7.06c-.1 1.1-.25 2.15-.44 3.3-.36 1.95-.24 3.7-2.97 4.7-.06.01-1.14.51-2.55 1.17 1 3.84 2.25 7.78 3.61 11.72l.37.1a59 59 0 0 0 13.52 1.94c4.32.01 10.45-.67 14.67-2.34l.54-.22c1.33-3.88 2.55-7.74 3.52-11.51l-1.84-.87c-2.73-.98-2.63-2.74-2.97-4.7q-.33-1.87-.48-3.76c6.56-3.48 11.75-12.41 12.69-14.96a28 28 0 0 0 1.27-3.45l.35.06a4.8 4.8 0 0 0 3.7-1.06 13 13 0 0 0 3.85-6.25c.82-2.44.88-6.37-.35-8.5A4 4 0 0 0 121 47.5a4.5 4.5 0 0 0-2.14.46l-2.82-2.2c-2.08-1.61-5.62-3.95-8.38-7.66a35 35 0 0 1-6.03-12.43" class="a"/><path d="M102.2 405.1c-2.87-2-5.42-3.77-6.23-4.27-5.24-3.27-4.65-7.72-4.54-10.77a56 56 0 0 1 .54-5.58l1.32 1.4a97 97 0 0 0 13.75 11.22 11 11 0 0 0 9.82 1.3c3.02-1.1 5.7-3.32 5.32-7.01l-.27-2.58.5.51c3.4 3.48 7.14 6.9 10.53 10.29 2.2 2.2 3.94 5.1 3.86 8.3-.06 2.2-1.59 4.08-3.38 5.34a14 14 0 0 1-6.13 2.16 23.2 23.2 0 0 1-14.44-2.96c-.8-.46-6.13-4.2-10.64-7.34m-23.9 0c2.88-2 5.43-3.77 6.24-4.27 5.24-3.27 4.65-7.72 4.54-10.77a62 62 0 0 0-.4-6.32 10 10 0 0 0-1.46 2.14 97 97 0 0 1-13.75 11.22 11 11 0 0 1-9.82 1.3c-3.02-1.1-5.7-3.32-5.32-7.01l.26-2.58-.5.51c-3.4 3.48-7.12 6.9-10.52 10.29-2.2 2.2-3.93 5.1-3.86 8.3.06 2.2 1.59 4.08 3.38 5.34a14 14 0 0 0 6.13 2.16 23.2 23.2 0 0 0 14.44-2.96c.79-.46 6.13-4.2 10.64-7.34" style="fill:#7a7473"/><path d="M103.22 403.38q-2.84-2.01-5.72-3.95a8.5 8.5 0 0 1-3.62-3.79 11 11 0 0 1-.5-4.44 58 58 0 0 1 .5-6.2l-3.33.9a79 79 0 0 0 6.98 6.53q2.56 2.12 5.23 4.1a27 27 0 0 0 5.56 3.49 12.8 12.8 0 0 0 12.18-1.24 8.6 8.6 0 0 0 3.38-4.43c.57-1.81.22-3.7.03-5.53l-3.41 1.41c3.15 3.24 6.45 6.33 9.69 9.49 2.34 2.29 6.2 6.3 4.04 9.88-2.08 3.46-6.92 4.11-10.59 3.98a20.5 20.5 0 0 1-10.43-3.27c-3.38-2.24-6.67-4.61-10-6.93-2.11-1.48-4.11 1.99-2.02 3.45 3.35 2.34 6.66 4.73 10.07 6.98a24.5 24.5 0 0 0 12.6 3.77c4.75.13 10.05-1.06 13.12-4.97 3.2-4.05 1.62-9.25-1.33-12.95a64 64 0 0 0-6.05-6.07 271 271 0 0 1-6.27-6.19c-1.13-1.15-3.6-.36-3.42 1.42.15 1.37.59 3.11.12 4.46a5.2 5.2 0 0 1-2.67 2.73c-3.18 1.7-6.72 1.09-9.63-.85a83 83 0 0 1-14.35-12.1c-.95-1-3.12-.63-3.34.89a68 68 0 0 0-.66 7.25 14 14 0 0 0 .75 5.78 12 12 0 0 0 4.89 5.61c2.1 1.36 4.13 2.82 6.18 4.24 2.12 1.48 4.12-1.99 2.02-3.45" class="d"/><path d="M113.7 305.4c-.8 13.3-1.65 26.57-2.36 39.86q-.5 9.2-.84 18.41c-.19 5.37-.91 10.76 1.51 15.75a37 37 0 0 0 5.6 7.68c2.4 2.74 5 5.3 7.61 7.82 1.86 1.8 4.69-1.03 2.83-2.82-4.28-4.15-8.68-8.4-11.9-13.45-2.7-4.24-1.85-9.33-1.68-14.08.43-12.35 1.14-24.7 1.89-37.03l1.35-22.13c.15-2.57-3.85-2.57-4 0Zm-25.45 10.07v68.26c0 2.58 4 2.58 4 0v-68.26c0-2.57-4-2.58-4 0" class="d"/><path d="M79.3 406.83c2.08-1.44 4.14-2.9 6.25-4.28a11.8 11.8 0 0 0 5.03-6.12 17 17 0 0 0 .51-5.93c-.1-2.44-.15-4.87-.5-7.3-.2-1.48-2.41-1.92-3.33-.88a13 13 0 0 0-1.5 2.04c-.06.12-.5.73-.1.26l-.5.5a66 66 0 0 1-3.27 3 94 94 0 0 1-8.79 6.82c-3.01 2.05-6.6 2.85-9.96 1.07a5.2 5.2 0 0 1-2.66-2.73c-.47-1.35-.03-3.1.12-4.46.18-1.78-2.29-2.58-3.42-1.42-3.64 3.73-7.52 7.2-11.16 10.93-3.14 3.24-5.7 8.37-3.47 12.79 2.24 4.47 7.52 6.15 12.17 6.43a25 25 0 0 0 14.02-3.42c3.65-2.2 7.07-4.86 10.57-7.3 2.1-1.46.1-4.93-2.02-3.45-3.09 2.15-6.16 4.33-9.28 6.45a21.4 21.4 0 0 1-9.44 3.62c-3.8.46-8.55.12-11.4-2.74-3-3-.65-7.18 1.82-9.68 3.61-3.66 7.43-7.11 11.02-10.8l-3.4-1.41c-.33 3.13-.53 5.93 1.7 8.47a12 12 0 0 0 8.36 3.72c3.7.19 6.83-1.43 9.76-3.51 2.77-1.97 5.44-4.1 8.01-6.3a70 70 0 0 0 3.45-3.14c.9-.9 1.38-1.97 2.2-2.9l-3.34-.89c.29 2.03.26 4.09.35 6.13a14 14 0 0 1-.28 4.7 7.7 7.7 0 0 1-3.55 4.18c-2.02 1.32-3.99 2.72-5.97 4.1-2.11 1.46-.11 4.93 2 3.45" class="d"/><path d="M62.8 305.4c.77 12.82 1.6 25.63 2.3 38.45q.49 9.23.86 18.47.16 4.33.27 8.65a14 14 0 0 1-1.03 6.1 30 30 0 0 1-5.14 7.2c-2.39 2.75-4.99 5.3-7.6 7.83-1.85 1.79.98 4.62 2.83 2.83a93 93 0 0 0 12.33-13.98 16 16 0 0 0 2.48-6.6 48 48 0 0 0-.02-8.45c-.42-12.63-1.14-25.25-1.9-37.87L66.8 305.4c-.15-2.56-4.15-2.58-4 0" class="d"/><path d="M57.13 307.8c-1.8-20.1-3.73-48.46-4.13-67.68-.38-18.64-.93-26.54 1.15-47.42h73.2c.76 17.94.6 28.12-.03 44.1-.77 19.82-2.34 53.29-5.18 77.45-11.17.41-19.9.47-32.1.47-9.92.21-27.04.37-32.27.18z" class="e"/><path d="M51.72 197.28c-1.4 15.79-1.08 31.55-.6 47.37.47 15.5 1.47 31 2.64 46.46q.89 11.9 2.03 23.79a2.05 2.05 0 0 0 2 2c6.91.25 13.86.08 20.77 0 9.04-.1 18.07-.14 27.1-.25q8.25-.1 16.49-.4a2.06 2.06 0 0 0 2-2c1.76-15.04 2.8-30.16 3.66-45.27.82-14.32 1.5-28.65 1.9-42.99q.36-13.83-.13-27.65c-.08-2.57-4.08-2.58-4 0 .52 15.48.1 30.93-.57 46.4-.63 14.84-1.41 29.66-2.53 44.47a600 600 0 0 1-2.33 25.03l2-2c-9.89.37-19.77.47-29.67.48-8.22 0-16.45.24-24.67.26-3.34 0-6.68.03-10.02-.09l2 2a1216 1216 0 0 1-3.45-44.67q-1.4-23.04-1.67-46.13a266 266 0 0 1 1.06-26.81 2 2 0 0 0-2-2 2.04 2.04 0 0 0-2 2Z" class="d"/><path d="M111.88 208.07a41 41 0 0 1-4.68-.42c-4.22-.7-7.1-1.49-9.77-3.74a17 17 0 0 1-5.64-8.2 87 87 0 0 1-1.87-8.95.63.63 0 0 0-1.24 0 79 79 0 0 1-1.74 8.59 15.7 15.7 0 0 1-5.98 8.34c-2.05 1.52-6.2 3.18-10.91 3.9a95 95 0 0 1-20.46.35 1.2 1.2 0 0 1-1.07-1.3 761 761 0 0 1 2.46-25.03c.2-2.44.37-5.1.52-8.22l-1.44 3.45c-1.52 3.63-6.29 5.68-10.35 4.96a18.3 18.3 0 0 1-11.85-7.7c-4.74-7.1-11.9-25.93-15.46-36.97l3.58-1.19 15.59-14.7 11.87-13.8a61 61 0 0 1 7.37-5.3 142 142 0 0 1 21.34-8.95c2.6 9.98 6.9 20.65 10.34 30.3 2.66 7.44 4.14 10.62 7.21 17.84h1.1c3.08-7.22 4.56-10.4 7.21-17.84 3.6-10.07 8.13-21.24 10.68-31.59a26 26 0 0 1 3.74 2.6l12.19 4.47a32 32 0 0 1 8.4 4.57c3.5 2.7 5.62 6.26 7.28 10.35a74 74 0 0 1 2.77 8.16c4.22 16.9 5.9 23.86 7.34 37.8a27 27 0 0 1-.93 11.44c-.69 2.71-3.25 6.5-6.46 9.13a59 59 0 0 1-12.7 7.34 687 687 0 0 1 1.68 18.5 1.1 1.1 0 0 1-1.01 1.19 180 180 0 0 1-19.11.62" class="e"/><path d="M128.07 49.47a83 83 0 0 0-.07-11.6 50 50 0 0 0-1.77-11.04 37 37 0 0 0-13.62-20 2 2 0 0 0-2.74.72 2.05 2.05 0 0 0 .72 2.74c6.18 4.5 10.01 11.08 12 18.38a47 47 0 0 1 1.44 9.8 80 80 0 0 1 .03 11c-.2 2.56 3.8 2.55 4 0ZM65.9 98.35c.87-.3 1.72-.74 2.56-1.13l3.85-1.77 3.02-1.4.32-.15c.1-.05.26-.12-.17.07-.51.22-.07.04.07-.02q.38-.14.75-.32a5.4 5.4 0 0 0 2.4-2.23 9 9 0 0 0 .82-2.85c.23-1.47.48-2.92.61-4.4a2 2 0 0 0-2-2 2.05 2.05 0 0 0-2 2 38 38 0 0 1-.89 5.28c-.06.25.2-.3.04-.1l-.13.22c-.22.4.18-.13-.07.1l-.2.2c.2-.26.15-.1.02-.03l-.3.18c-.03.02-.45.23-.27.15s-.14.05-.14.05l-.49.2-.06.03-.3.14-6.43 2.97-1.67.76-.53.24c-.45.2.5-.19.13-.06a2 2 0 0 0 1.06 3.86ZM101.14 84q.2 2.07.56 4.11a16 16 0 0 0 .39 2.12 5.4 5.4 0 0 0 1.47 2.43 6 6 0 0 0 1.3.92l.77.33c1.9.97 3.89 1.83 5.82 2.75.93.43 1.85.89 2.79 1.28a2 2 0 0 0 2.46-1.4 2.06 2.06 0 0 0-1.4-2.46c1 .42.08.02-.15-.09l-1.24-.58-3.36-1.6-2.6-1.22-.28-.13-.08-.03c-.14-.06-.33-.15-.48-.2-.06-.03-.36-.17-.06-.02l-.52-.28c-.06-.03-.35-.22-.12-.06.2.14.02 0-.02-.03l-.2-.2c-.29-.25.1.09.06.1l-.28-.47c-.11-.17.08.17.08.2l-.12-.36-.13-.48q-.11-.58-.19-1.17l-.27-1.69-.08-.61-.12-1.15a2 2 0 0 0-4 0ZM63.71 47.23a6.7 6.7 0 0 0-7.35-1.1 6.4 6.4 0 0 0-3.35 4.32 16 16 0 0 0 2.32 12.63c1.65 2.44 4.25 4.65 7.4 4.24a2.07 2.07 0 0 0 2-2 2 2 0 0 0-2-2c-2.19.28-3.6-1.52-4.55-3.26a13 13 0 0 1-1.55-4.82 8.3 8.3 0 0 1 .83-5.04c-.33.52.5-.44.2-.21a2 2 0 0 1 .92-.42 2.5 2.5 0 0 1 2.3.49c1.91 1.7 4.75-1.11 2.83-2.83" class="d"/><path d="M119.28 50.06a2.5 2.5 0 0 1 2.17-.52 2 2 0 0 1 1.05.45c-.3-.22.52.72.2.21a8.3 8.3 0 0 1 .82 5.04 13 13 0 0 1-1.55 4.82c-.94 1.74-2.36 3.54-4.54 3.26a2 2 0 0 0-2 2 2.05 2.05 0 0 0 2 2c5.12.66 8.26-4.86 9.54-9 1.15-3.71 1.1-9.46-2.54-11.84a6.7 6.7 0 0 0-7.98.75c-1.93 1.72.91 4.54 2.83 2.83" class="d"/><path d="M115.68 62.69a28 28 0 0 1-1.27 4.22l-.56 1.36c-.2.5.14-.3-.03.07l-.18.38a36 36 0 0 1-3.1 5.15c-2.67 3.8-6.34 7.94-11.05 9.05-2.5.59-1.45 4.45 1.06 3.86 5.6-1.32 9.9-6 13.15-10.47a37 37 0 0 0 3.36-5.5q.3-.63.56-1.28l.07-.16q.24-.5.43-1.03a28 28 0 0 0 1.41-4.6c.53-2.5-3.33-3.58-3.85-1.05m-55.14.96c2.4 10.54 10.34 22.02 21.72 23.74a2.06 2.06 0 0 0 2.46-1.4 2 2 0 0 0-1.4-2.46C73.23 82.01 66.52 71.9 64.4 62.59c-.57-2.5-4.43-1.45-3.86 1.06m24.08 8.97a12 12 0 0 0 5.75 1.34 9.5 9.5 0 0 0 5.92-1.8 2 2 0 0 0 0-2.82 2.06 2.06 0 0 0-2.83 0c.7-.54-.02-.02-.23.1-.17.09-.62.23.01.01l-.46.17c-.43.13-.9.16-1.3.3.2-.07.33-.04.03-.01a10 10 0 0 1-1.31.06 12 12 0 0 1-1.21-.07l-.22-.02.2.03a8 8 0 0 1-1.22-.27l-.5-.17c-.45-.16.42.2.02 0l-.62-.3a2 2 0 1 0-2.02 3.45Zm4.47-13.2a26 26 0 0 1 .6 2.76l-.07-.53v.38l.08-.53-.04.17.2-.48-.06.11.31-.4-.09.09.4-.32-.22.12.48-.2-.37.1.54-.06a1 1 0 0 1-.35 0l.53.07-.39-.07a1.5 1.5 0 0 0-.8-.04 1.5 1.5 0 0 0-.74.24 2 2 0 0 0-.72 2.74l.32.4a2 2 0 0 0 .88.52c.35.05.68.13 1.04.15a3.4 3.4 0 0 0 1.6-.4 2.4 2.4 0 0 0 1.31-1.59 4 4 0 0 0 0-1.65 31 31 0 0 0-.58-2.64 2 2 0 0 0-2.46-1.4 2 2 0 0 0-1.2.92 2 2 0 0 0-.2 1.54m-14-7.96c-.46 1.5-.16 4.94 2.67 5.23 3.74-.02 3.94-4.18 2.68-6.13-1.03-1.6-4.06-2.27-5.35.9m29.98 0c.46 1.5.16 4.94-2.67 5.23-3.75-.02-3.95-4.18-2.69-6.13 1.04-1.6 4.07-2.27 5.36.9m-50.6-1.99c-.33-10.84 1-22.6 7.22-31.82C67.25 9.4 77.92 4.56 87.65 4.05a40 40 0 0 1 10.34.77 28 28 0 0 1 7.47 2.49c2.24 1.27 4.26-2.19 2.01-3.46C102.46 1.01 96.03.1 90.35.01a41 41 0 0 0-19.3 4.64A33 33 0 0 0 59.7 13.6a41 41 0 0 0-6.8 13.76 71 71 0 0 0-2.44 22.1c.08 2.57 4.08 2.58 4 0" class="d"/><path d="M50.47 49.47c-.01 7.86-.13 16.01-1.95 23.7a80 80 0 0 0-2 11.2c-.33 3.57-.03 6.81 2.21 9.76a14.2 14.2 0 0 0 11.64 5.38c2.57-.03 2.58-4.03 0-4a10.3 10.3 0 0 1-8.46-3.76c-1.94-2.56-1.62-5.48-1.28-8.5a93 93 0 0 1 1.9-9.72 76 76 0 0 0 1.33-9.18c.46-4.95.6-9.91.6-14.88 0-2.57-4-2.58-4 0m73.6 0a92 92 0 0 0 3 23.36c1.58 5.69 5.42 12.77 1.24 18.13a9.3 9.3 0 0 1-10.49 3.25c-2.44-.83-3.49 3.04-1.06 3.86a13 13 0 0 0 12.39-2.32 12.8 12.8 0 0 0 5-9.79c-.03-4.15-1.28-7.92-2.52-11.82a70 70 0 0 1-2.14-8.66 97 97 0 0 1-1.43-16c-.04-2.58-4.04-2.59-4 0Zm-24.3-25.71c-.04.06-.39.55-.2.3s-.24.28-.3.36q-.5.56-1.04 1.07-1.36 1.3-2.82 2.45a99 99 0 0 1-7.7 5.44 162 162 0 0 1-18.5 10.45 36 36 0 0 1-7.44 2.89c-2.5.58-1.45 4.43 1.06 3.85a38 38 0 0 0 7.14-2.7c3.13-1.42 6.17-3.02 9.18-4.69A143 143 0 0 0 97.5 31.35a24 24 0 0 0 5.72-5.58c1.4-2.16-2.05-4.17-3.45-2.01Z" class="d"/><path d="M117.47 44.34c-3.48-2.69-6.78-5.25-9.27-8.95a38 38 0 0 1-4.63-10.25c-.76-2.46-4.63-1.41-3.86 1.06a42 42 0 0 0 5.04 11.2 32 32 0 0 0 5.14 6.03 47 47 0 0 0 2.67 2.17q.6.48 1.23.94l.57.42c.04.04.51.4.28.21a2.07 2.07 0 0 0 2.83 0 2 2 0 0 0 0-2.83m-72.61 64.51a54 54 0 0 1 13-7.94A118 118 0 0 1 73.8 94.8c2.47-.73 1.42-4.59-1.06-3.86a125 125 0 0 0-16.9 6.53 56 56 0 0 0-7.66 3.96 62 62 0 0 0-6.15 4.6c-1.96 1.69.88 4.5 2.83 2.83m63.6-13.67 14.75 5.4c5.36 1.95 10.27 4.9 13.22 9.92 3.22 5.47 4.66 11.83 6.16 17.93a317 317 0 0 1 3.47 15.28 184 184 0 0 1 2.34 16.14 2.06 2.06 0 0 0 2 2 2 2 0 0 0 2-2 231 231 0 0 0-5.6-31.04c-1.6-6.51-3.12-13.16-6.26-19.15-2.99-5.7-7.93-9.53-13.8-11.99-5.62-2.36-11.48-4.27-17.21-6.35-2.43-.88-3.47 2.98-1.07 3.85Zm-93.01 38.84-3.58 1.18a2.03 2.03 0 0 0-1.4 2.46 277 277 0 0 0 10.1 26.64 78 78 0 0 0 5.2 10.27 20.6 20.6 0 0 0 11.93 8.84c5.18 1.39 11.73-.3 14.09-5.56a2.06 2.06 0 0 0-.72-2.73 2 2 0 0 0-2.74.71c-1.75 3.91-6.38 4.7-10.11 3.56a16.7 16.7 0 0 1-9.41-7.54c-4.14-6.88-7.03-14.61-9.85-22.1q-2.47-6.5-4.63-13.15l-1.4 2.46 3.58-1.18c2.43-.8 1.4-4.67-1.06-3.86" class="d"/><path d="M35.27 113.29c.15 3.13-1.45 7.2-2.28 8.93a13 13 0 0 1-1.13 1.98c-.94 1.32-.5 2.77-.39 4.5.06.94.32 1.76.4 2.43-3.02 1.76-11.85 4.3-15.94 5.52a66 66 0 0 0-4.87-6.94c-3.08-2.05-7.25-7.74-8.71-13.73l-.32-2.25c-.12-.8.09-3.16 1.63-3.9a3.2 3.2 0 0 1 3.59.65l.03-2.07a3.6 3.6 0 0 1 2.42-3.06c1.31-.48 2 .28 2.87 1.07a3.5 3.5 0 0 1 .94-3.36c1.45-1.16 4.62-1.8 5.27 1.85-2.06-6.04-4.47-13.43-4.82-15.12a4.1 4.1 0 0 1 2.65-4.46c1.84-.58 4.33 1.8 4.78 2.97 2.16 5.62 3.58 9.72 5.75 16.62 1.14.06 2.22.15 3.44.25a4.4 4.4 0 0 1 2.59 1.38 9.7 9.7 0 0 1 2.1 6.73" class="a"/><path d="M28.9 103.85a281 281 0 0 0-4.79-14c-.78-2.08-1.45-3.77-3.25-5.17-1.78-1.37-3.95-1.93-5.99-.74a6.2 6.2 0 0 0-2.96 5.56 15 15 0 0 0 .73 3.06q1.46 4.77 3.06 9.47 1.7 5.14 3.52 10.22c.88 2.4 4.75 1.36 3.86-1.07a424 424 0 0 1-6.7-20.06 7 7 0 0 1-.48-2.07 2.2 2.2 0 0 1 .76-1.5c.5-.42.75-.34 1.31-.02 1.44.82 1.8 2.1 2.35 3.57a281 281 0 0 1 4.72 13.81c.78 2.44 4.64 1.4 3.86-1.06" class="d"/><path d="M.28 115.96a28 28 0 0 0 8.07 14.14 16 16 0 0 0 1.28 1.03c.46.33-.15-.2.23.22.04.04.33.4.09.1l.32.42.76 1.04a54 54 0 0 1 3.17 4.75 2 2 0 0 0 2.26.92c2.85-.86 5.7-1.7 8.54-2.62a43 43 0 0 0 7.87-3.11 2.1 2.1 0 0 0 .92-2.26c-.12-.85-.3-1.67-.37-2.53a7 7 0 0 1-.12-2.22 9 9 0 0 1 1.05-1.88q.43-.8.78-1.64a22 22 0 0 0 2.14-9.03c-.07-2.57-4.07-2.58-4 0a18 18 0 0 1-2.19 8.3c-.81 1.6-1.8 2.8-1.8 4.7a36 36 0 0 0 .65 5.36l.92-2.26a39 39 0 0 1-7.25 2.82q-4.1 1.3-8.2 2.51l2.25.92a53 53 0 0 0-3-4.52 16 16 0 0 0-3-3.44c-3.85-3-6.45-8.12-7.51-12.78-.57-2.51-4.43-1.45-3.86 1.06" class="d"/><path d="M8.65 109.05a5.16 5.16 0 0 0-6.82-.38 6.1 6.1 0 0 0-1.83 4.7 14 14 0 0 0 1.44 5.31 8 8 0 0 0 1.76 2.67 5 5 0 0 0 3.14 1.25c2.49.11 4.45-2 5.08-4.24a2 2 0 0 0-3.86-1.06l-.14.46c-.04.2.06-.18.09-.19-.03.01-.07.14-.08.17l-.23.37c-.01-.02.28-.3.12-.15l-.19.2-.4.36c-.05.05-.25.15-.04.04.28-.14-.03-.02-.01 0 .06.04-.42.07.02 0 .3-.03.05 0-.04 0l-.17.05c-.3.09.13-.06.16-.02h-.44c-.2 0 .22 0 .22.03l-.19-.05-.18-.05c-.37-.1.13.03.12.05l-.17-.1-.12-.06.05.04c.15.03.1.1 0 0l-.19-.2c.01-.02.22.35.1.14l-.14-.23a14 14 0 0 1-.65-1.17l-.27-.56c-.1-.2.03.06.04.09l-.1-.23q-.19-.5-.34-1.03a17 17 0 0 1-.4-1.81c-.06-.4.02.47.02.12V113c0-.1.06-.51 0-.15-.05.38.02-.09.04-.18l.08-.34.13-.4c.05-.19-.06.2-.08.2.03-.01.09-.18.1-.21l.13-.2c.14-.27-.04.1-.1.1l.12-.12c.13-.29.25.13-.08.03 0 0 .5-.25.22-.14-.3.12.6-.14.24-.07-.26.05-.02 0 .04 0h.3c.32 0-.09.04-.09-.01l.3.07c.04.02.28.1.04.01s.07.04.11.07l.27.16c.24.14-.33-.29.03.04a2 2 0 1 0 2.83-2.82Z" class="d"/><path d="M13.98 105a5.7 5.7 0 0 0-3.05-1.75 5 5 0 0 0-3.77 1.32c-1.72 1.49-2.02 3.56-1.79 5.7a20 20 0 0 0 1.92 6.77 7 7 0 0 0 1.4 2.08 5.4 5.4 0 0 0 3.46 1.38 5.2 5.2 0 0 0 3.62-1.47 4.5 4.5 0 0 0 1.72-3.31 2 2 0 0 0-4 0q0 .31.04-.18-.1.3.05-.09l-.16.27q.23-.28 0-.01a8 8 0 0 1-.61.6q.29-.21.02-.02c-.05.03-.5.35-.25.16l-.2.05h-.04l-.39-.01q.33.03-.02-.03c-.12-.05-.5-.23-.2-.06l-.3-.17q.27.23.03.01c-.27-.33.2.39-.08-.09q-.27-.41-.5-.84l-.29-.6c-.03-.07-.23-.55-.08-.18a19 19 0 0 1-1.12-4.1l-.02-.16a15 15 0 0 1-.1-1.63l.01-.33q-.08.53-.02.2l.13-.43q.08-.21-.07.16a4 4 0 0 1 .31-.52q-.23.29 0 .03.17-.18.36-.35c-.33.26.27-.14.35-.18q-.29.12.1-.01l.04-.01c-.4-.05.2.13-.2-.07l.3.18q-.26-.22 0 0l.56.52a2 2 0 0 0 2.84-2.83" class="d"/><path d="M18.67 100.98c-1.96-1.5-4.82-.8-6.58.67-1.78 1.5-1.86 4.16-1.2 6.2a75 75 0 0 0 2.15 5.75 5.2 5.2 0 0 0 1.82 2.74 5.7 5.7 0 0 0 3.22.88 5.2 5.2 0 0 0 3.64-1.63 8 8 0 0 0 1.33-2.75 2 2 0 0 0-1.4-2.46 2.05 2.05 0 0 0-2.46 1.4l-.3.9q-.1.3.07-.13a3 3 0 0 1-.26.45q.27-.33.05-.08-.24.21.05-.01l-.3.18q-.3.15-.05.04l-.35.1c.4-.1-.26 0-.39-.01.44.01-.22-.06-.34-.09l-.31-.1q.34.14.05 0l-.24-.14q.35.29.13.08c.33.37.18.27.1.04-.04-.07-.31-.72-.14-.3q-.6-1.43-1.14-2.88-.54-1.42-1.02-2.88-.18-.53-.3-1.08c.11.5 0-.15 0-.28s.12-.77 0-.31c.03-.1.26-.74.05-.31l.16-.29q.19-.28-.02.02.25-.23-.05 0l.25-.17c.08-.05.7-.34.25-.17l.65-.2q.34-.06-.03 0h.33q.36.02-.03-.02l.32.08c-.4-.13.16.13.27.22a2 2 0 0 0 2.74-.72 2.06 2.06 0 0 0-.72-2.74" class="d"/><path d="M37.27 113.29a11.8 11.8 0 0 0-2.05-7.27 6.3 6.3 0 0 0-3.13-2.51 13 13 0 0 0-3.86-.52c-2.6-.18-5.37-.34-7.43 1.55a5.1 5.1 0 0 0-.7 6.49 6.6 6.6 0 0 0 3.61 2.75 32 32 0 0 0 4.17.97 2.05 2.05 0 0 0 2.46-1.4 2 2 0 0 0-1.4-2.46q-1.45-.25-2.88-.6-.65-.16-1.28-.37l-.3-.1c-.32-.1.22.14-.07-.02l-.25-.15c.17.1-.03-.01-.1-.07a5 5 0 0 1-.44-.46c.13.16-.15-.22-.18-.28-.07-.11-.22-.53-.12-.22l-.1-.32c-.07-.23 0-.12 0 .05v-.47c0 .33 0 .17.05-.06.07-.32-.16.2.03-.07l.13-.2c.07-.17-.28.24.02-.01.12-.1.36-.3.08-.11l.44-.27c.28-.18-.17.02.17-.08q.31-.1.64-.16c.32-.07-.27.01.07-.02l.31-.01h.76a41 41 0 0 1 3.33.17l.78.07q.2 0 .4.03c.37.02-.2-.12-.01 0 .06.04.5.16.36.1-.2-.07.1.05.1.06l.35.19c.11.07.43.34.2.11l.17.17c.17.21-.18-.26.03.06a16 16 0 0 1 .87 1.43l.26.54.19.54q.11.36.19.71l.07.3c.01.1.05.33.02.1a10 10 0 0 1 .03 1.8 2 2 0 0 0 4 0Zm90.6 46.18c.25-5.51.18-11.04.4-16.55s.35-11 .35-16.51c0-2.58-4-2.58-4 0q0 8.25-.35 16.5c-.22 5.52-.15 11.04-.4 16.56-.1 2.57 3.9 2.57 4 0m-80.03-32.61c.02 8.15.87 16.26 1.22 24.4.15 3.47.44 6.93.61 10.4.2 3.9.01 7.8-.17 11.69q-.24 5.18-.7 10.35c-.21 2.57 3.79 2.55 4 0a174 174 0 0 0 .94-20.56c-.12-3.56-.55-7.1-.65-10.67-.1-3.82-.42-7.64-.67-11.45-.3-4.72-.56-9.44-.58-14.16 0-2.58-4-2.58-4 0m27.79-19.8a56 56 0 0 0 14.9 2.01 42 42 0 0 0 14.35-2.41 2.06 2.06 0 0 0 1.4-2.46 2 2 0 0 0-2.46-1.4c-8.55 3.3-18.42 2.7-27.13.4-2.49-.66-3.55 3.2-1.06 3.85Z" class="d"/><path d="M128 184.7c.6 5.88 1.19 11.76 1.68 17.65l.16 1.97a7 7 0 0 0 .13 1.76c.2.48 1.2-.48.46-.59a3 3 0 0 0-.57.04l-1.84.13q-3.56.25-7.1.38a69 69 0 0 1-13.19-.32 22 22 0 0 1-7-1.98 15 15 0 0 1-5.24-4.86 18 18 0 0 1-2.35-5.97 100 100 0 0 1-.74-3.55c-.26-1.38-.2-3.38-1.29-4.41a2.7 2.7 0 0 0-3.21-.31c-1.37.85-1.32 2.75-1.58 4.17a43 43 0 0 1-1.55 6.72c-3.6 10.09-16.3 10.7-25.33 10.8a94 94 0 0 1-8.49-.27 3 3 0 0 0-.69-.06q-.9-.2.26.64l.04-.53.16-1.92.33-3.71q.78-8.72 1.77-17.42a2 2 0 0 0-2-2 2.05 2.05 0 0 0-2 2q-.94 8.29-1.7 16.58l-.31 3.53a26 26 0 0 0-.28 3.8c.22 3.34 4.15 3.12 6.6 3.24a89 89 0 0 0 16-.47c5.42-.7 11.05-2.3 15.08-6.17a18 18 0 0 0 4.66-7.68c.36-1.18.6-2.4.85-3.61a43 43 0 0 1 .98-5.21l-.52.88-.34.21h-1.07l-.34-.21-.52-.89a34 34 0 0 1 .84 4.44q.38 1.92.85 3.82a19.3 19.3 0 0 0 9.4 12.03 26 26 0 0 0 7.67 2.22 76 76 0 0 0 15 .44q3.64-.15 7.3-.41a9 9 0 0 0 3.3-.49c1.44-.73 1.77-2.13 1.66-3.62a775 775 0 0 0-1.94-20.8 2.06 2.06 0 0 0-2-2 2 2 0 0 0-2 2Zm-35.47-42.36c1.57-3.7 3.2-7.37 4.69-11.1 1.6-3.98 3-8.03 4.48-12.05 3.24-8.82 6.65-17.63 8.92-26.76l-2.94 1.2a27 27 0 0 1 5.2 3.92 16 16 0 0 1 3.93 4.83l-.28-1 .01.22.28-1.01-.16.2.72-.71q-2.44 1.55-4.9 3.08a2.03 2.03 0 0 0 0 3.45l2.71 1.84q.56.37 1.1.8l.63.55q.55.45.2.24v-1.06a6 6 0 0 1-.96 1.9l-1.19 2.06q-1.1 1.92-2.25 3.81-2.54 4.22-5.16 8.38-5.19 8.2-10.53 16.3c-1.42 2.15 2.04 4.16 3.45 2.01 4.6-7 9.19-14.03 13.57-21.18q3.14-5.09 6.09-10.28a4.3 4.3 0 0 0 .84-3 4.2 4.2 0 0 0-1.55-2.29 57 57 0 0 0-4.94-3.53v3.45q1.46-.9 2.9-1.83a9 9 0 0 0 2.73-1.96c1.2-1.78-.58-3.78-1.67-5.15a31 31 0 0 0-8.75-7.5 2.02 2.02 0 0 0-2.94 1.2c-2.23 8.99-5.56 17.65-8.76 26.33-1.47 4-2.86 8.02-4.44 11.98-1.42 3.58-2.97 7.1-4.48 10.64a2.07 2.07 0 0 0 .71 2.74 2 2 0 0 0 2.74-.72" class="d"/><path d="M91.43 140.32c-1.49-3.49-3.02-6.95-4.42-10.47-1.6-4.02-3-8.1-4.5-12.15-3.2-8.68-6.53-17.34-8.76-26.33a2.02 2.02 0 0 0-2.94-1.2 31 31 0 0 0-8.75 7.5c-1.1 1.36-2.87 3.37-1.67 5.15a9 9 0 0 0 2.74 1.95q1.44.94 2.89 1.84v-3.45a56 56 0 0 0-4.94 3.53 4.2 4.2 0 0 0-1.55 2.29 4.3 4.3 0 0 0 .84 3q2.95 5.2 6.09 10.28a826 826 0 0 0 13.57 21.18c1.4 2.14 4.87.14 3.45-2.02a990 990 0 0 1-10.53-16.3q-2.56-4.06-5.04-8.18-1.2-1.99-2.37-4-.55-.93-1.08-1.87a7 7 0 0 1-1.07-2.09v1.06q-.35.21.2-.24.31-.28.64-.55.52-.43 1.09-.8l2.72-1.84a2.03 2.03 0 0 0 0-3.45q-2.47-1.53-4.91-3.08l.72.72-.15-.21.27 1v-.22l-.26 1.01a16 16 0 0 1 3.92-4.83 27 27 0 0 1 5.2-3.92l-2.93-1.2c2.27 9.13 5.67 17.94 8.91 26.75 1.49 4.03 2.89 8.08 4.48 12.06 1.5 3.72 3.12 7.4 4.7 11.1a2 2 0 0 0 2.73.71 2.06 2.06 0 0 0 .72-2.73Z" class="d"/><path d="M62.51 161.3c2.53-2.09 27.38-20.7 32.33-23.9 10.67 13.82 29.24 40.5 32.37 45.17a1542 1542 0 0 1-32.78 24.8c-4.51-6.26-26.78-37.85-31.92-46.07" class="a"/><path d="m63.93 162.71.51-.41.5-.39 2.46-1.88q3.43-2.6 6.89-5.19 7.9-5.93 15.88-11.72c1.87-1.36 3.74-2.73 5.68-3.99l-2.73-.72c9.84 12.77 19.1 26 28.3 39.24q2.05 2.95 4.07 5.93l.31-2.42c-3.67 2.96-7.3 5.66-11.22 8.64q-7.76 5.9-15.57 11.74-2.77 2.09-5.59 4.1l2.74.72q-13.47-18.7-26.42-37.78c-1.86-2.74-3.74-5.48-5.5-8.29-1.36-2.18-4.82-.17-3.45 2.02 3.74 5.97 7.84 11.73 11.85 17.52q7.39 10.67 14.88 21.27 2.58 3.65 5.18 7.29a2.03 2.03 0 0 0 2.74.71c9.43-6.68 18.56-13.82 27.72-20.86q2.76-2.09 5.47-4.25a2 2 0 0 0 .31-2.43 1051 1051 0 0 0-32.37-45.16 2.04 2.04 0 0 0-2.74-.72c-4.3 2.78-8.38 5.93-12.5 8.97q-7.77 5.74-15.47 11.57c-1.6 1.2-3.22 2.4-4.76 3.67-2 1.63.85 4.45 2.83 2.83Z" class="d"/><path d="M99.6 174.15c-1.5-1.5-2.88-1.97-5.42-3.01a33 33 0 0 0-3.74-.8c-1.63-.25-2.83-.5-4.47-.63-2.17-.17-3.43-.37-4.32.53a2.5 2.5 0 0 0-.66 2c.16 3 5.46 4.75 7.93 6.5a29 29 0 0 1-7.2 2.24 41 41 0 0 1-4.5-1.43 3.1 3.1 0 0 0-3.35 1.3 2.8 2.8 0 0 0 .69 3.54 11 11 0 0 0 1.7 1.07 5.8 5.8 0 0 0 .33 4.33 7 7 0 0 0 2.57 2.99 15 15 0 0 0 3.66 7 7 7 0 0 0 4.3 1.39c7.13-1.61 12.77-5.46 18.41-10.1" class="a"/><path d="M87.91 177.01a27 27 0 0 1-6.73 2.04h1.06a37 37 0 0 1-4.36-1.38 5 5 0 0 0-5.6 1.97 4.85 4.85 0 0 0 .58 5.91 13 13 0 0 0 5.83 2.96c2.5.67 3.56-3.2 1.07-3.86a12 12 0 0 1-2.88-1.13l-.68-.4-.38-.26a.7.7 0 0 1-.28-.47l-.02-.08q.02-.34 0-.16c-.1.3.14-.55.08-.32q-.03.13.08-.1-.2.27.04 0c-.3.14.23-.15.26-.16.2-.1.46-.24.63-.16-.3-.13.12.08.2.11l.56.2q1.21.44 2.44.8.53.17 1.07.3a5 5 0 0 0 2-.02 32 32 0 0 0 7.05-2.34 2 2 0 0 0 .72-2.74 2.05 2.05 0 0 0-2.74-.72Z" class="d"/><path d="M74.32 184.92a8.65 8.65 0 0 0 3.83 9.58l-.92-1.2a17 17 0 0 0 4.32 8.03c2 1.87 5.05 2.08 7.54 1.4 6.75-1.87 12.5-5.87 17.85-10.25 1.99-1.63-.85-4.44-2.83-2.83a61 61 0 0 1-8.78 6.17 33 33 0 0 1-4.72 2.22q-1.17.43-2.38.77-.6.18-1.23.32c-.95.24.09.12-.42.06a4.2 4.2 0 0 1-2.62-1.14 12 12 0 0 1-2.21-3.64c-.26-.71-.41-1.46-.67-2.17-.35-.99-1.26-1.26-1.87-2.03a4.5 4.5 0 0 1-1.03-4.23c.67-2.49-3.2-3.55-3.86-1.06m26.7-12.18a16 16 0 0 0-6.67-3.63 46 46 0 0 0-8.55-1.41 11 11 0 0 0-3.71.05 4.2 4.2 0 0 0-2.9 2.82c-.77 2.53.63 4.7 2.56 6.19 1.91 1.47 4.18 2.34 6.16 3.7a2 2 0 0 0 2.73-.7 2.04 2.04 0 0 0-.71-2.75c-1.79-1.23-3.83-2.03-5.6-3.28a7 7 0 0 1-.9-.8q-.15-.14-.26-.3.18.23-.02-.05l-.17-.32q.13.3.01-.02c-.1-.5.02.53-.01-.31 0-.1.1-.36.08-.28q-.24.15.05-.04l-.14.05.37-.1q-.3.04.1 0a34 34 0 0 1 8.35 1.05 13.3 13.3 0 0 1 6.4 2.95c1.84 1.8 4.67-1.02 2.83-2.83Z" class="d"/><path d="M150.4 159.85a27 27 0 0 1-.93 11.44c-.68 2.7-3.24 6.49-6.46 9.12a61 61 0 0 1-13.6 7.74 176 176 0 0 1-19.79 7.1.9.9 0 0 1-1.06-.53c-.5-1.41-1.2-3.24-2-5.25-2.48-6.25-5.86-14.3-7.12-17.37a.85.85 0 0 1 .47-1.12l6.47-2.71c6.68-2.83 13.8-5.9 19.75-8.42" class="e"/><path d="M148.4 159.85a29 29 0 0 1-.61 9.91 17 17 0 0 1-5.4 8.56 43 43 0 0 1-9.96 6.25 123 123 0 0 1-11.51 4.83q-3.23 1.2-6.5 2.28-1.37.45-2.75.88l-1.26.38-.45.14-.44.12q-.4.1.22.07l.72.72a20 20 0 0 1-1.19-3.04l-1.29-3.27q-1.28-3.21-2.6-6.4-1.18-2.88-2.38-5.75l-.93-2.25a6 6 0 0 1-.68-1.72l-.27 1.01q-.6.34.15-.01l.84-.35 1.72-.72 3.55-1.5q3.36-1.41 6.7-2.85l13.05-5.56a2 2 0 0 0 .72-2.74 2.05 2.05 0 0 0-2.73-.72c-8.45 3.58-16.87 7.22-25.33 10.76-1.85.77-2.92 2.2-2.1 4.22l1.65 3.96q2.26 5.45 4.48 10.94 1.21 3 2.35 6.02a6 6 0 0 0 1.34 2.55 3 3 0 0 0 2.92.53 107 107 0 0 0 10.7-3.53c7.93-2.91 16.16-6.1 22.85-11.38 3.27-2.59 6.3-6.28 7.41-10.37a33 33 0 0 0 1-11.97 2.06 2.06 0 0 0-2-2 2 2 0 0 0-2 2Z" class="d"/></svg>
