<svg xmlns="http://www.w3.org/2000/svg" viewBox="-145.82 0 442.537 442.537"><defs><style>.a{fill:#fff}.c{fill:#211715}.d{fill:#b3b3b3}</style></defs><path d="M52.84 68.52a34 34 0 0 0 5.67 9.8 25 25 0 0 0 9.16 7.32c-.1 1.14-.25 2.22-.45 3.4-.37 2.03-.25 3.85-3.08 4.87-.18.07-9.13 4.25-9.68 4.43 0 0 1.98 14.75 23.24 14.75s27.9-15.18 27.9-15.18c-.3-.12-8.31-3.93-8.5-4-2.83-1.03-2.72-2.84-3.07-4.87q-.35-1.95-.5-3.9c6.8-3.6 12.16-12.85 13.13-15.49a29 29 0 0 0 1.32-3.57l.36.06a5 5 0 0 0 3.83-1.1 13.6 13.6 0 0 0 3.98-6.46c.86-2.52.91-6.6-.36-8.8a4.2 4.2 0 0 0-3.75-2.09 4.5 4.5 0 0 0-3.25 1.2s6.76-27.31-28.77-27.31c-32.17 0-28.76 27.3-28.76 27.3a4.5 4.5 0 0 0-3.25-1.19 4.2 4.2 0 0 0-3.75 2.09c-1.27 2.2-1.22 6.28-.37 8.8a13.6 13.6 0 0 0 4 6.46 4.9 4.9 0 0 0 4.13 1.04q.34 1.17.82 2.44" class="a"/><path d="M80.06 96.16h-.99c-2.2 2.47-6.78 8.83-7.89 10.3-3.45-2.2-8.54-10.31-9.15-11.47 4 15.96 15.2 53.42 17.92 60.89 2.53-4.38 14.04-44.47 18.09-60.92-.55 1.06-5.7 9.28-9.17 11.5-1.1-1.47-5.7-7.84-7.89-10.3Z" class="a"/><path d="M103.35 433.53c-2.92-2.4-5.72-4.78-9-7.22-1.64-1.2-3.67-2.04-5.22-3.35a9 9 0 0 1-2.1-2.8c-1.83-3.49-1.67-10-.98-13.87l.2-1.1c4.53.52 10.18.78 14.21.82a54 54 0 0 0 9.75-.95l1.79 2.82c1.3 1.46 3.73 4.38 5.14 5.74 4.2 4.05 5.7 5.97 8.76 9.35 2.34 2.6 4.4 7.82 3.8 11.48-.45 2.83-3.17 4.38-5.82 5.46a21 21 0 0 1-7.72.4 21 21 0 0 1-9.09-3.81q-1.92-1.5-3.72-2.97m-44.46-.2c2.9-2.28 5.64-4.58 9.84-6.25 2.15-.86 4.4-1.18 6.05-2.8a8.7 8.7 0 0 0 2.05-4.1 33.5 33.5 0 0 0 .13-13.56s-.11-.57-.3-1.51a146 146 0 0 1-14.97.9 55 55 0 0 1-10.7-1.13l-3.1 4.93-13.68 15.27c-6.72 6.9-4.42 13.88 3.38 15.14a21.4 21.4 0 0 0 12.1-1.82 30 30 0 0 0 6.78-3.25q1.26-.9 2.42-1.83" style="fill:#7a7473"/><path d="M108.48 406.07c2.63 4.9 7.14 8.66 10.9 12.65 3.81 4.04 9.06 8.94 8.4 15.1-.26 2.4-3.22 4-5.37 4.41a18 18 0 0 1-8.44-.5c-3.64-1.08-6.41-3.32-9.3-5.7-3.17-2.6-6.28-5.35-9.65-7.69-1.6-1.1-3.54-1.82-4.91-3.2a8.5 8.5 0 0 1-2.1-4.19 27 27 0 0 1-.03-10.13 2.06 2.06 0 0 0-1.4-2.46 2 2 0 0 0-2.46 1.4c-1.17 6.76-1.24 15.56 5.14 19.77 1.75 1.16 3.57 2.11 5.24 3.4q2.65 2.04 5.23 4.2c3.24 2.68 6.44 5.73 10.35 7.42 6.02 2.6 14.4 3.25 19.45-1.76 2.73-2.7 2.6-6.65 1.58-10.1-1.05-3.6-3.05-6.27-5.49-9.02-2.5-2.81-5.15-5.43-7.75-8.15a36 36 0 0 1-5.95-7.47c-1.22-2.26-4.67-.25-3.45 2.02Zm-33.45 1.08a32 32 0 0 1 .05 11.54 8 8 0 0 1-1.49 3.93c-1.02 1.25-2.79 1.62-4.25 2.12a31 31 0 0 0-8.58 4.62c-2.6 1.94-5.03 4.18-7.97 5.61-3.27 1.59-6.97 3.12-10.62 3.42-2.7.22-6 .06-8.2-1.74-5.05-4.12 1.82-10.2 4.53-13.24 2.92-3.27 5.79-6.58 8.71-9.85a40 40 0 0 0 5.31-7.67c1.23-2.26-2.22-4.28-3.45-2.02a39 39 0 0 1-5.16 7.39c-2.87 3.2-5.67 6.47-8.55 9.67-2.6 2.9-5.6 5.55-6.71 9.42a8.9 8.9 0 0 0 1.6 8.22c2.14 2.57 5.51 3.54 8.72 3.81 4.36.38 8.3-.9 12.3-2.45a31 31 0 0 0 5.66-2.69c1.47-.95 2.84-2.08 4.21-3.16a32 32 0 0 1 9.08-5.42c2-.7 4.05-1.27 5.68-2.7a10 10 0 0 0 2.82-5.09 36 36 0 0 0 .17-14.78c-.5-2.53-4.35-1.46-3.86 1.06" class="c"/><path d="M81.23 211.71a.72.72 0 0 0-1.4.04 90 90 0 0 1-2 9.78 18 18 0 0 1-6.8 9.5c-2.33 1.74-7.07 3.63-12.43 4.46a107 107 0 0 1-19.08.7l.5 13c2.22 53.84 3.4 102.32 5.52 154.33a59 59 0 0 0 16.16 2.5c5.84-.06 15.11-.58 19.39-1.68 4.28 1.1 13.53 1.62 19.37 1.68a59 59 0 0 0 16.16-2.5c2.1-51.88 3.28-100.24 5.5-153.92l.52-13.78v-.14c-7.14.44-16.33.74-21.71-.14-4.8-.79-8.09-1.7-11.13-4.25a19.3 19.3 0 0 1-6.43-9.35 99 99 0 0 1-2.14-10.23" class="d"/><path d="M106.6 63.44a29 29 0 0 1-1.31 4.37c-.2.5-.36.84-.58 1.4-.2.51.13-.27-.04.1l-.19.4a37 37 0 0 1-3.2 5.32c-2.78 3.95-6.6 8.26-11.49 9.4-2.5.6-1.44 4.45 1.06 3.86 5.78-1.35 10.23-6.18 13.58-10.8a38 38 0 0 0 3.47-5.7q.31-.64.58-1.3l.08-.18.44-1.05a29 29 0 0 0 1.46-4.75c.52-2.52-3.33-3.59-3.86-1.07m-57.08.96C52 75.28 60.2 87.15 71.95 88.92a2.06 2.06 0 0 0 2.46-1.4 2 2 0 0 0-1.4-2.46C62.55 83.5 55.58 73 53.38 63.34c-.57-2.51-4.43-1.45-3.86 1.06m24.9 9.24a12 12 0 0 0 5.91 1.38 9.7 9.7 0 0 0 6.08-1.84 2 2 0 0 0 0-2.83 2.06 2.06 0 0 0-2.83 0c.69-.53-.04 0-.26.12-.17.08-.62.23 0 .02l-.48.17q-.3.1-.62.17a5 5 0 0 0-.73.14c.2-.1.32-.04.02-.01a10 10 0 0 1-1.36.06 12 12 0 0 1-1.25-.06l-.23-.03.18.02c-.11.06-.52-.09-.64-.12q-.31-.06-.62-.15l-.52-.18c-.45-.16.42.2 0 0l-.64-.31a2 2 0 1 0-2.02 3.45Zm4.65-13.62a27 27 0 0 1 .63 2.85l-.08-.53a2 2 0 0 1 .01.4l.08-.54-.05.18.2-.48-.06.12.31-.4-.09.08.4-.3-.22.11.48-.2-.38.11.53-.07h-.36l.53.07-.4-.07a2.2 2.2 0 0 0-1.54.2 2 2 0 0 0-.72 2.74 2 2 0 0 0 1.2.92c.35.04.7.13 1.06.15a3.5 3.5 0 0 0 1.62-.4 2.5 2.5 0 0 0 1.33-1.6 4 4 0 0 0-.01-1.67q-.25-1.38-.6-2.73a2 2 0 0 0-.92-1.2 2 2 0 0 0-2.74.71 2 2 0 0 0-.2 1.55ZM64.51 51.8c-.48 1.55-.17 5.1 2.76 5.41 3.88-.02 4.09-4.33 2.78-6.35-1.06-1.66-4.2-2.35-5.54.94m31.04 0c.47 1.55.16 5.1-2.77 5.41-3.87-.02-4.08-4.33-2.78-6.35 1.07-1.66 4.21-2.35 5.55.94" class="c"/><path d="M105.56 44.14a24 24 0 0 0-2.87-6.63c-2.46-3.34-3.4-4.33-8.3-5.46l-16.58-2.49a59 59 0 0 0-11.37-.37 8 8 0 0 0-4.3 1.5c-1.58 1.32-2.13 3.5-3.05 5.38-1.6 3.24-5.37 4.91-5.97 8.55a49 49 0 0 0-.57 5.16l-1.28-.9a4.5 4.5 0 0 0-3.25-1.19 5 5 0 0 0-1.72.33 45 45 0 0 1-1.4-11.38c-.24-8.48 2.95-17.03 6.95-20.94a32 32 0 0 1 6.17-6.42 35.4 35.4 0 0 1 21.88-7.2c7.8 0 15.72 1.84 21.67 8.48l4.6 4.08a26 26 0 0 1 4.94 5.8c2.33 3.86 3.57 8.71 3.88 16.2a37 37 0 0 1-1.35 11.34 5 5 0 0 0-1.6-.29 4.5 4.5 0 0 0-3.25 1.2Z" style="fill:#85807f"/><path d="M52.68 47.47a6.9 6.9 0 0 0-7.52-1.12 6.6 6.6 0 0 0-3.43 4.42 16.5 16.5 0 0 0 2.4 13.02c1.68 2.51 4.35 4.77 7.58 4.35a2.07 2.07 0 0 0 2-2 2 2 0 0 0-2-2c-2.28.3-3.77-1.58-4.76-3.4a13 13 0 0 1-1.61-5.03 8.6 8.6 0 0 1 .86-5.25c-.32.5.51-.45.24-.25a2 2 0 0 1 .96-.44 2.7 2.7 0 0 1 2.45.53c1.92 1.7 4.76-1.11 2.83-2.83m57.53 2.83a2.7 2.7 0 0 1 2.32-.55 2 2 0 0 1 1.1.47c-.28-.2.54.73.23.24a5 5 0 0 1 .79 2.12 12 12 0 0 1 .07 3.13 13 13 0 0 1-1.61 5.03c-.99 1.82-2.48 3.7-4.76 3.4a2 2 0 0 0-2 2 2.05 2.05 0 0 0 2 2c5.26.7 8.5-5 9.81-9.25 1.18-3.82 1.13-9.74-2.6-12.18a6.9 6.9 0 0 0-8.18.76c-1.92 1.72.91 4.54 2.83 2.83" class="c"/><path d="M102.99 9.14c-8.4-9.2-22.52-10.9-34.05-7.56a36.6 36.6 0 0 0-24.4 23.33 44 44 0 0 0-.28 23.21c.63 2.5 4.48 1.44 3.85-1.06a40.5 40.5 0 0 1-.38-18.63 29 29 0 0 1 2.9-7.75 36 36 0 0 1 4.45-5.86c7.33-8.33 18.46-11.66 29.35-10.5a24.4 24.4 0 0 1 15.73 7.65c1.74 1.9 4.56-.93 2.83-2.83m12.67 38.98a45 45 0 0 0 0-21.77 26.3 26.3 0 0 0-8.08-13.13c-1.9-1.72-4.74 1.1-2.83 2.83a22.5 22.5 0 0 1 7.05 11.36 41 41 0 0 1 0 19.65c-.6 2.5 3.25 3.56 3.86 1.06" class="c"/><path d="M78.34 27.63a51 51 0 0 0-9.72-.56c-3.64.08-7.27.68-9.38 3.97-.98 1.54-1.38 3.37-2.39 4.9a37 37 0 0 1-3.21 3.57 10 10 0 0 0-2.46 4.58 57 57 0 0 0-.68 6.33c-.2 2.57 3.8 2.55 4 0a47 47 0 0 1 .54-5.27 6.6 6.6 0 0 1 1.87-3.3 39 39 0 0 0 3.1-3.49 29 29 0 0 0 2.16-4.34 4.4 4.4 0 0 1 3.27-2.67 18 18 0 0 1 3.78-.29 47 47 0 0 1 8.06.43 2.06 2.06 0 0 0 2.46-1.4 2 2 0 0 0-1.4-2.46m15.52 6.35q1.2.27 2.4.64a3 3 0 0 1 .94.35l-.17-.08.17.08q.23.1.45.22.33.18.65.4a1 1 0 0 1 .33.22c-.25-.37-.2-.17-.05-.03a13 13 0 0 1 1.17 1.18l.6.73c-.34-.41-.01-.01.04.06l.33.43a12 12 0 0 1 1.03 1.62q.27.52.5 1.04l.15.33-.02-.04.25.63q.55 1.44 1 2.91a2 2 0 0 0 3.86-1.06 34 34 0 0 0-2.28-5.83 20 20 0 0 0-2.63-3.65 10 10 0 0 0-2.91-2.4 19 19 0 0 0-4.74-1.6 2 2 0 0 0-1.06 3.85Zm-4.55-4.29a9.5 9.5 0 0 0-3.58-4.94 18 18 0 0 0-8.93-3.51 2 2 0 0 0-2 2 2.06 2.06 0 0 0 2 2c-.45-.06.18.03.27.05l.6.1q.5.1.98.24.55.15 1.08.33c.15.05.8.18.86.32l-.07-.03.14.06a15 15 0 0 1 1.99 1.1l.36.26c.14.1.34.36 0-.02.32.37.77.65 1.12 1l.43.47.22.27c.1.11-.3-.44-.05-.06a8 8 0 0 1 .59.97l.1.2c-.3-.51-.15-.38-.1-.2l.14.45a2 2 0 0 0 2.46 1.4 2.04 2.04 0 0 0 1.4-2.46ZM55 100.27c.9-.31 1.77-.76 2.63-1.16q2-.91 3.99-1.84l3.13-1.45.32-.15-.16.07c-.52.22-.06.03.08-.02q.37-.14.76-.33a5.6 5.6 0 0 0 2.47-2.28 9 9 0 0 0 .83-2.94c.24-1.5.5-3 .63-4.53a2 2 0 0 0-2-2 2.05 2.05 0 0 0-2 2 38 38 0 0 1-.92 5.49c-.06.25.2-.3.03-.1l-.13.24c-.22.4.16-.1-.08.1l-.22.22c.21-.25.13-.09.01-.01l-.3.18c-.04.02-.45.23-.29.16-.14.07-.7.29-1.02.44l-6.66 3.08q-.86.4-1.73.78l-.55.25c-.45.2.5-.18.12-.05a2.05 2.05 0 0 0-1.4 2.46 2 2 0 0 0 2.46 1.4Zm36.57-14.8q.2 2.14.56 4.24a17 17 0 0 0 .41 2.2 5.5 5.5 0 0 0 1.5 2.48 6 6 0 0 0 1.34.94 11 11 0 0 0 1 .43c.66.26-.46-.22-.2-.1 1.96 1.02 4.01 1.9 6.01 2.85.96.45 1.9.92 2.87 1.32a2 2 0 0 0 2.46-1.4 2.06 2.06 0 0 0-1.4-2.46c1 .42.06.01-.17-.1l-1.29-.6-3.48-1.65-2.69-1.27-.3-.14-.07-.03-.48-.2c-.05-.02-.37-.17-.08-.03l-.54-.29c-.06-.03-.35-.23-.13-.07.2.14 0 0-.03-.03-.14-.14-.39-.47-.14-.1l-.3-.5c-.12-.18.1.16.07.18l-.12-.36-.13-.5q-.12-.6-.2-1.21c-.2-1.32-.37-2.3-.49-3.6a2 2 0 1 0-4 0Z" class="c"/><path d="M148.42 167.64c-2.4-15.74-5.1-26.64-9.12-45.77-1.34-6.38-3.92-11.76-8.79-15.69a53 53 0 0 0-5.7-3.52c-4.8-2.44-16.01-6.21-20.42-7.9l-2.47-.96a55 55 0 0 0-3.1-2.14C96 104.22 84.4 145.07 80.63 154.37h-1.21c-3.7-10.87-15.36-50.15-18.19-62.71a57 57 0 0 0-7.98 6.22 128 128 0 0 0-24.2 11.65L7.6 143.73c.62 8.16.63 14.05 1.72 25.95a43 43 0 0 0 1.51 9.17c2.05 6.46 7.7 11.95 14.44 12.66a21.7 21.7 0 0 0 12.3-1.93l.89-.41a1078 1078 0 0 0-1.77 18.37 837 837 0 0 0-2.62 26.86 1.37 1.37 0 0 0 1.22 1.48 108 108 0 0 0 23.3-.39c5.37-.83 10.1-2.72 12.44-4.46a18 18 0 0 0 6.8-9.5 90 90 0 0 0 1.99-9.78.72.72 0 0 1 1.41 0 99 99 0 0 0 2.13 10.2 19.3 19.3 0 0 0 6.42 9.35c3.05 2.56 6.33 3.46 11.13 4.25 6.88 1.12 20.01.31 27.09-.23a1.25 1.25 0 0 0 1.15-1.34 850 850 0 0 0-2.27-24.57l-1.03-10.71c4.05-1.8 8.2-3.82 12.25-6.04 4.12-2.25 8.3-7.65 9.58-10.57 1.37-3.1 1.36-8.37.74-14.44" class="d"/><path d="M123.92 198.65c.74 9.41 1.84 18.8 2.66 28.2l.43 5.18.09 1.17a7 7 0 0 0 .06.77c-.02 0 .69-.46.44-.62-.3-.18-1.52.11-1.89.14q-4.53.32-9.07.5c-5.95.22-12 .37-17.86-.86a17 17 0 0 1-8.04-3.64 18 18 0 0 1-5.32-7.7 64 64 0 0 1-2.02-9.2c-.3-1.7-.86-3.51-2.98-3.44-2.15.08-2.5 2.04-2.8 3.74a49 49 0 0 1-2.14 9.34 16 16 0 0 1-5.56 7.15c-5.03 3.64-11.92 4.42-17.95 4.76a120 120 0 0 1-15.13-.13 4 4 0 0 0-1.04-.09c-.31.1-.05-.04.1.16.36.49.12.3.2-.03a14 14 0 0 0 .2-2.27q.77-9.18 1.74-18.33l.65-5.9a2 2 0 0 0-2-2 2.05 2.05 0 0 0-2 2q-1.06 9.33-1.91 18.7c-.24 2.68-.7 5.46-.7 8.16 0 3.85 4.4 3.62 7.14 3.76a102 102 0 0 0 18.45-.54c6.07-.8 12.4-2.62 16.9-6.97a20 20 0 0 0 5.2-8.6c.38-1.26.65-2.57.92-3.87q.31-1.53.59-3.07a12 12 0 0 1 .48-2.77l-.71.71-1.3-.14-.52-.88a25 25 0 0 1 .6 3.21q.3 1.6.64 3.2a39 39 0 0 0 1.16 4.6 22 22 0 0 0 6.6 9.53c5.51 4.7 13.27 5.4 20.24 5.51 3.72.07 7.43-.05 11.14-.23q2.59-.13 5.17-.3c1.59-.1 3.73.09 5.06-.88 1.82-1.34 1.25-3.7 1.1-5.62l-.52-6.06q-.61-6.82-1.32-13.63a530 530 0 0 1-1.18-12.71c-.2-2.55-4.2-2.57-4 0Z" class="c"/><path d="M76.49 145.22c-1.18-3.8-2.53-8.23-3.93-12.93 1.53-10.8 3.17-22.24 3.16-22.84a12 12 0 0 0-.7-3.37 19 19 0 0 0-.9-2.91s-.07-.16-.2-.4a119 119 0 0 1 5.16-6.6h1.9c1.3 1.44 3.42 4.24 5.17 6.6l-.03.07c-.36 1.5-.42 2.23-.73 3.64l-.2.86a9 9 0 0 0-.3 1.9c0 .36 1.63 12.85 2.82 23.13-2.9 9.8-5.59 18.34-7.07 22h-1.22c-.72-2.11-1.74-5.3-2.93-9.15" style="fill:#3d8dcc"/><path d="M38.69 207.54q.74-8.56 1.63-17.1.38-3.65.82-7.29c.31-2.5.3-5.08.37-7.6.3-10.6-.02-21.19-.6-31.76q-.53-9.75-1.25-19.5c-.19-2.56-4.19-2.58-4 0 .8 11.13 1.54 22.27 1.83 33.44q.22 7.83.07 15.66-.08 3.88-.26 7.75c-.12 2.39-.5 4.77-.75 7.15a949 949 0 0 0-1.86 19.25 2 2 0 0 0 2 2 2.04 2.04 0 0 0 2-2" class="c"/><path d="M5.6 143.74c.68 8.95.95 17.93 1.8 26.87.5 5.22 1.34 10.42 4.5 14.76a19.5 19.5 0 0 0 11.05 7.77 24.2 24.2 0 0 0 15.63-1.83 2 2 0 0 0 .72-2.74 2.05 2.05 0 0 0-2.74-.72 20 20 0 0 1-11.84 1.58 15.2 15.2 0 0 1-9.59-6.38c-2.78-3.98-3.38-8.64-3.82-13.37q-.62-6.76-.98-13.54c-.23-4.14-.42-8.27-.73-12.4-.2-2.55-4.2-2.57-4 0" class="c"/><path d="M66.87 86.59c-1.26 1.4-2.8 3.45-4.03 4.87a3.9 3.9 0 0 0-.84 3.48c.47.94 5.68 9.28 9.18 11.53 1.1-1.48 5.7-7.84 7.89-10.31-.82-.58-11.67-9.14-12.2-9.57m26.32 0c1.25 1.4 2.8 3.45 4.02 4.87a3.9 3.9 0 0 1 .84 3.48c-.47.94-5.67 9.28-9.18 11.53-1.1-1.48-5.7-7.84-7.89-10.31.83-.58 11.68-9.14 12.2-9.57" class="a"/><path d="M71.84 150.67a1239 1239 0 0 1-12.72-22.5q-3.05-5.55-6-11.15l-1.48-2.84c-.18-.36-.42-1.17-.72-1.41q-.2-.5-.13.22l.56-.58q2.33-2.42 4.8-4.7a2.02 2.02 0 0 0-.41-3.15c-1.72-.97-3.54-1.86-5.17-2.97l.72.72-.17-.26.28 1.01c-.02.49.11-.04.23-.24q.23-.38.49-.73a15 15 0 0 1 1.01-1.23 35 35 0 0 1 2.98-2.9 53 53 0 0 1 6.13-4.6l-2.94-1.2c1.8 7.96 4.1 15.8 6.35 23.64q4.08 14.24 8.43 28.4c1.1 3.57 2.2 7.15 3.4 10.69.83 2.42 4.7 1.38 3.86-1.07-2.51-7.41-4.73-14.93-6.96-22.43a1252 1252 0 0 1-8.26-28.73 272 272 0 0 1-2.96-11.54 2.02 2.02 0 0 0-2.94-1.2 50 50 0 0 0-9.8 7.99c-1.15 1.26-3 3.19-3.01 5.02-.01 1.54 1.26 2.2 2.43 2.88l3.88 2.21-.4-3.14c-1.74 1.63-3.53 3.26-5.12 5.04a4 4 0 0 0-1.33 3.08 8 8 0 0 0 1.11 2.8q3.2 6.2 6.55 12.32c4.5 8.26 9.15 16.43 13.85 24.58 1.29 2.22 4.75.21 3.46-2.02Zm12.64-44.53c-2.83 0-5.66-.06-8.49-.06a2 2 0 0 0 0 4c2.83 0 5.66.05 8.49.06a2 2 0 0 0 0-4" class="c"/><path d="M84.2 102.31c-.34 1.42-.57 2.86-.89 4.28a10 10 0 0 0-.39 2.96c.11 1.52.38 3.05.56 4.56q1.13 8.92 2.18 17.83a2.06 2.06 0 0 0 2 2 2 2 0 0 0 2-2q-1.03-8.76-2.14-17.52c-.2-1.57-.44-3.15-.58-4.72a6 6 0 0 1 .23-2.05c.32-1.42.54-2.86.88-4.28.59-2.5-3.27-3.57-3.86-1.06m-9.65 30.04q1.29-9 2.55-18c.2-1.52.5-3.07.6-4.61a9 9 0 0 0-.39-2.95 32 32 0 0 0-1.46-4.64 2 2 0 0 0-2.74-.71 2.05 2.05 0 0 0-.71 2.73 24 24 0 0 1 1.16 4.1 5 5 0 0 1 .12 1.68c-.16 1.5-.36 2.73-.57 4.28l-2.42 17.06a2.07 2.07 0 0 0 1.4 2.46 2 2 0 0 0 2.46-1.4" class="c"/><path d="M65.45 85.17c-1.06 1.2-2.04 2.47-3.05 3.72a10 10 0 0 0-2.37 3.82c-.5 2.1.39 3.57 1.46 5.24q1.86 2.88 3.98 5.57a21 21 0 0 0 4.7 4.68 2.05 2.05 0 0 0 2.74-.72c2.5-3.33 4.83-6.8 7.58-9.9a2.04 2.04 0 0 0-.4-3.15l-.74-.55-.4-.31-.74-.58-4.02-3.15q-2.97-2.32-5.9-4.67a2.06 2.06 0 0 0-2.84 0 2 2 0 0 0 0 2.83c4.15 3.34 8.29 6.78 12.61 9.88l-.4-3.14c-2.97 3.37-5.51 7.13-8.2 10.72l2.73-.72a11 11 0 0 1-1.69-1.5 32 32 0 0 1-1.89-2.16 59 59 0 0 1-4.45-6.42q-.16-.25-.31-.53l-.1-.17c.13.5.13-.15.14-.16a5 5 0 0 1 .56-1.15q.58-.73 1.2-1.45 1.27-1.63 2.64-3.2a2.05 2.05 0 0 0 0-2.83 2 2 0 0 0-2.84 0m26.22 67.52c4.7-8.15 9.35-16.32 13.86-24.57q3.34-6.13 6.54-12.32a8 8 0 0 0 1.12-2.8 4 4 0 0 0-1.33-3.08c-1.6-1.77-3.38-3.4-5.12-5.04l-.4 3.14 3.67-2.1c1.15-.65 2.6-1.32 2.64-2.86.05-1.89-1.83-3.85-3.02-5.15a50 50 0 0 0-9.8-7.99 2.02 2.02 0 0 0-2.93 1.2c-1.84 8.14-4.13 16.19-6.37 24.22a892 892 0 0 1-8.38 28.44c-1.07 3.37-2.12 6.78-3.44 10.06a2 2 0 0 0 1.4 2.46 2.05 2.05 0 0 0 2.46-1.4c2.86-7.09 4.88-14.57 7.04-21.9q4.29-14.48 8.2-29.08c1.03-3.9 2.06-7.8 2.95-11.74l-2.94 1.2a53 53 0 0 1 6.12 4.6 35 35 0 0 1 2.87 2.76 15 15 0 0 1 1.13 1.36q.25.35.48.73c.11.18.26.78.24.24l.27-1.01-.17.26.72-.72c-1.63 1.1-3.45 2-5.16 2.97a2.02 2.02 0 0 0-.4 3.14 122 122 0 0 1 5.35 5.3l-.02-.44a8 8 0 0 1-.83 1.62l-1.48 2.84q-2.94 5.6-6 11.15-6.24 11.32-12.72 22.5c-1.28 2.23 2.17 4.25 3.46 2.02Z" class="c"/><path d="M91.78 88q1.35 1.58 2.64 3.2a8 8 0 0 1 1.75 2.57c.02.07.06.54.08.28.02-.16.02-.05-.02.05a5 5 0 0 1-.33.56l-1.1 1.74a59 59 0 0 1-3.27 4.58 32 32 0 0 1-2.9 3.16l-.45.38c.3-.23-.25.18-.31.22l2.73.71c-2.69-3.59-5.23-7.34-8.2-10.71l-.4 3.14c4.32-3.1 8.47-6.54 12.6-9.88a2 2 0 0 0 0-2.83 2.05 2.05 0 0 0-2.82 0q-2.94 2.34-5.91 4.66-2 1.58-4.02 3.15l-.74.58-.4.31-.73.56a2.04 2.04 0 0 0-.4 3.14c2.74 3.11 5.08 6.58 7.57 9.9a2.04 2.04 0 0 0 2.74.72 21 21 0 0 0 4.7-4.67q2.13-2.7 3.98-5.58c1.07-1.66 1.97-3.13 1.46-5.23a10 10 0 0 0-2.37-3.83c-1-1.24-1.99-2.51-3.05-3.71A2 2 0 0 0 91.78 88M80.55 406.27c5.6 1.4 11.65 1.54 17.4 1.7a60 60 0 0 0 19.2-2.52 2.1 2.1 0 0 0 1.47-1.93c1-24.95 1.83-49.91 2.66-74.87.83-25.36 1.68-50.72 2.7-76.06q.35-8.4.65-16.77c.1-2.58-3.9-2.57-4 0-.64 16.89-1.33 33.77-1.93 50.66-.88 24.93-1.66 49.85-2.51 74.77q-.73 21.14-1.57 42.27l1.46-1.93a56 56 0 0 1-18.13 2.38c-5.4-.15-11.08-.24-16.34-1.56-2.5-.63-3.56 3.23-1.06 3.85Z" class="c"/><path d="M80.54 402.41c-5.26 1.32-10.94 1.4-16.34 1.55a56 56 0 0 1-18.14-2.37l1.47 1.93c-1-24.86-1.83-49.73-2.65-74.6a9582 9582 0 0 0-2.7-75.75q-.35-8.68-.67-17.35c-.1-2.57-4.1-2.58-4 0 .65 16.99 1.34 33.98 1.94 50.97.88 24.82 1.66 49.66 2.51 74.48q.73 21.13 1.57 42.25a2.1 2.1 0 0 0 1.47 1.93 60 60 0 0 0 19.2 2.51c5.75-.15 11.8-.29 17.4-1.7 2.5-.62 1.44-4.47-1.06-3.85" class="c"/><path d="M79.08 257.94V404.2c0 2.57 4 2.57 4 0V257.94c0-2.58-4-2.58-4 0m-26.35-162a133 133 0 0 0-24.7 11.86c-2.18 1.35-.17 4.8 2.03 3.45A128 128 0 0 1 53.79 99.8c2.4-.86 1.37-4.73-1.06-3.86m71.15 28.34c-.99 13.75-1.88 27.52-1.95 41.31-.01 2.57 3.99 2.58 4 0 .07-13.8.96-27.56 1.95-41.3.19-2.58-3.81-2.57-4 0" class="c"/><path d="M150.35 167.11c-2.01-13.2-4.94-26.23-7.74-39.29-1.5-6.97-2.7-13.91-7.27-19.62-3.27-4.07-7.99-6.71-12.72-8.72-5.81-2.45-11.81-4.4-17.7-6.65a2 2 0 0 0-2.46 1.4 2.05 2.05 0 0 0 1.4 2.46c4.97 1.9 10.02 3.58 14.97 5.54a47 47 0 0 1 6.04 2.76 62 62 0 0 1 4.06 2.5l.31.23a21 21 0 0 1 1.8 1.65c4.8 4.92 5.99 11.5 7.37 17.95 1.42 6.66 2.9 13.3 4.28 19.96a398 398 0 0 1 3.8 20.9 2 2 0 0 0 2.46 1.4 2.05 2.05 0 0 0 1.4-2.46Z" class="c"/><path d="M6.09 133.63a30 30 0 0 0-2.26-3.82 9 9 0 0 1-1.87-5.73 11 11 0 0 1 .9-3.54c2.08-3.23 3.87-6.05 6.04-8.79a23 23 0 0 1 1.68-1.83 5.2 5.2 0 0 1 3.62-1.5 4.3 4.3 0 0 1 3.12 1.72c2.84.9 3.42-.88 4.69-1.87a4.9 4.9 0 0 1 4.82-.42 12 12 0 0 1 4.02 3.04 7 7 0 0 1 1.75 3.51 2.6 2.6 0 0 1-.77 2.32 4.2 4.2 0 0 1-3.23 1.18l1.65 3.36a5 5 0 0 1 .37 2.02 3 3 0 0 1-.06.83 4 4 0 0 1-.34.82c-1.3 2.44-3.64 5.32-2.55 8.28 2.68 7.77 2.31 11.65-.2 13.85a18 18 0 0 1-6.92 3.68c-.7.15-3.96.7-4.61.4-1.3-.6-2.55-.89-3.5-2.04a9 9 0 0 1-1.58-3.31c-.4-1.43-1.6-4.96-2.51-7.25a53 53 0 0 0-2.26-4.9" class="a"/><path d="M19.22 109.45c-1.94-3.82-7.06-3.62-9.9-1.08-3.15 2.82-5.4 6.84-7.67 10.36a10.6 10.6 0 0 0-.67 10.17c.71 1.58 1.87 2.95 2.7 4.46s1.6 3.07 2.3 4.66c1.29 2.95 2.14 6.04 3.18 9.08a8.4 8.4 0 0 0 7.93 6.11 19 19 0 0 0 8.67-2.52c2.5-1.44 4.79-3.3 5.47-6.23.86-3.65-.25-7.63-1.4-11.1a4.4 4.4 0 0 1-.2-3.04A14 14 0 0 1 31 127.6a12 12 0 0 0 1.5-2.95 7 7 0 0 0-.32-3.92 2.06 2.06 0 0 0-2.46-1.4 2 2 0 0 0-1.4 2.46 3 3 0 0 1 .17 2.14 14 14 0 0 1-1.14 1.99 13 13 0 0 0-1.9 5c-.2 1.79.52 3.36 1.01 5.04a25 25 0 0 1 1 4.55 9 9 0 0 1-.07 2.9 4 4 0 0 1-.9 1.83 13.6 13.6 0 0 1-6.74 3.63 23 23 0 0 1-2.9.36c-.13 0-.73-.11-.26.02.14.04-.81-.34-.82-.34a4.5 4.5 0 0 1-1.85-1.14 10 10 0 0 1-1.4-3.43q-.7-2.19-1.49-4.34a62 62 0 0 0-3.54-8.03c-1.33-2.5-3.72-4.87-3.51-7.88a7.3 7.3 0 0 1 1.4-3.73q1.67-2.62 3.45-5.17c1.03-1.45 2.2-3.32 3.73-4.28a2.18 2.18 0 0 1 3.22.56c1.16 2.3 4.62.27 3.45-2.02Z" class="c"/><path d="M13.67 120.53q1.09-1.49 2.21-2.95l.66-.86c.29-.37-.27.35.02-.01l.3-.4 1.07-1.35q.3-.4.63-.77l.18-.18c-.22.23 0 .02.14-.08q.3-.15-.06 0l.3-.1q.33-.07-.1-.01a3 3 0 0 1 .6 0q-.42-.06-.09 0l.3.1q-.37-.15-.07-.01c.14.1.38.25.12.04l.45.44c-.33-.36.06.13.12.23q.15.3 0-.07l.17.56q.06.34-.01-.1c.06.03 0 .48-.01.55a2 2 0 0 0 2 2 2.05 2.05 0 0 0 2-2 5.6 5.6 0 0 0-2.42-4.85 5 5 0 0 0-5.39-.19 8 8 0 0 0-1.93 1.92l-2.39 3.07q-1.15 1.5-2.26 3a2 2 0 0 0 .72 2.74 2.06 2.06 0 0 0 2.74-.72" class="c"/><path d="M19.73 122.29a36 36 0 0 1 3.32-3.52l.9-.78.39-.33.2-.18.08-.05c.23-.26-.06.15-.14.05 0 .01.61-.15.22-.06-.35.07.2.04.25.02-.27.08-.35-.08-.13 0l.32.08c.2.04-.15-.05-.16-.07l.24.12.23.15c.02 0-.37-.2-.18-.12.07.02.23.27.04.02-.17-.24-.04-.05-.01 0l.13.22.06.12q.11.24 0 0l-.04-.1.06.18.05.2c.1.33-.03-.1 0-.16v.24c.02.07-.02.29.03-.04.05-.35 0-.03-.04.06 0 .02-.04.2-.07.21l.05-.11-.07.14a14 14 0 0 1-1.02 1.63l-.16.21c.39-.56.14-.17.03-.04l-.55.67q-1.22 1.46-2.49 2.88a2 2 0 1 0 2.83 2.83q1.3-1.47 2.56-2.97a15 15 0 0 0 2.62-4.03 4.8 4.8 0 0 0-2.05-5.64 5 5 0 0 0-3.33-.6 5 5 0 0 0-2.56 1.45 37 37 0 0 0-4.43 4.49 2.05 2.05 0 0 0 0 2.83 2 2 0 0 0 2.82 0" class="c"/><path d="M21.26 111.64a10 10 0 0 0 1.3-1.12l.42-.44.29-.27q-.19.13-.02.02c.07-.05.62-.34.26-.18l.52-.17c.13-.03.56-.07.2-.04q.38-.02.76-.01c.42 0-.23-.08.22.02l.55.14.36.12-.02-.01.62.32a9 9 0 0 1 1.01.67c-.23-.18.33.29.38.33q.23.2.45.42a19 19 0 0 1 1.17 1.2l.32.51s.2.35.28.54c-.13-.28.14.39.16.46a6 6 0 0 1 .17.72q-.05-.19-.02.13c.15-.51-.22.39-.06.1.16-.26-.43.48-.05.08-.08.08-.2.18-.27.28-.23.28.31-.18-.02 0q-.26.16-.53.3c.32-.15 0 0-.16.05-.04.01-.6.13-.2.07a4 4 0 0 1-.83.01 2 2 0 0 0-2 2 2.05 2.05 0 0 0 2 2 6.1 6.1 0 0 0 4.84-1.89 4.8 4.8 0 0 0 1.28-3 7 7 0 0 0-.77-3.15 11.5 11.5 0 0 0-3.55-4.18 9.2 9.2 0 0 0-5.61-2.25 6.5 6.5 0 0 0-3.25.8 6 6 0 0 0-1.32 1.03l-.55.59-.22.21c-.04.04-.36.3-.13.14a2.05 2.05 0 0 0-.72 2.74 2 2 0 0 0 2.74.71" class="c"/><path d="M47.28 170.19c2.94-2.43 31.83-24.08 37.59-27.78 12.4 16.06 33.99 47.08 37.64 52.51a1790 1790 0 0 1-38.13 28.84c-5.24-7.28-31.13-44.02-37.1-53.57" class="a"/><path d="m48.69 171.6.6-.48.4-.32.23-.18 2.78-2.13q4-3.04 8.03-6.05 9.21-6.92 18.55-13.69c2.17-1.57 4.34-3.17 6.59-4.62l-2.74-.72c11.46 14.84 22.22 30.24 32.91 45.64q2.4 3.42 4.74 6.88l.3-2.43c-9.93 8-20.75 15.96-31.24 23.78q-3.21 2.41-6.47 4.75l2.74.72q-6.66-9.29-13.19-18.65a2178 2178 0 0 1-17.5-25.25c-2.18-3.2-4.37-6.4-6.42-9.67-1.37-2.18-4.83-.18-3.46 2.01 4.33 6.91 9.07 13.58 13.71 20.28q8.62 12.44 17.36 24.8 3 4.25 6.04 8.5a2.03 2.03 0 0 0 2.74.71c10.93-7.74 21.53-16.02 32.15-24.19q3.22-2.44 6.38-4.96a2 2 0 0 0 .3-2.42 1218 1218 0 0 0-37.64-52.52 2.05 2.05 0 0 0-2.73-.71c-4.98 3.21-9.7 6.86-14.46 10.38q-9.08 6.69-18.07 13.5c-1.83 1.39-3.7 2.75-5.47 4.21-1.99 1.64.86 4.46 2.83 2.83Z" class="c"/><path d="M90.07 185.6c-1.74-1.74-3.34-2.28-6.28-3.49a38 38 0 0 0-4.31-.92c-1.89-.29-3.27-.58-5.17-.72-2.51-.2-3.97-.44-5 .6a3 3 0 0 0-.77 2.32c.2 3.47 6.32 5.5 9.17 7.52a33 33 0 0 1-8.33 2.58 47 47 0 0 1-5.2-1.65 3.6 3.6 0 0 0-3.87 1.51 3.3 3.3 0 0 0 .79 4.09 13 13 0 0 0 1.96 1.23 6.7 6.7 0 0 0 .38 5.01 8 8 0 0 0 2.98 3.45 17 17 0 0 0 4.24 8.1c.87.98 4 1.82 4.96 1.6 8.24-1.86 14.76-6.31 21.29-11.67" class="a"/><path d="M76.71 189.18a32 32 0 0 1-7.86 2.39h1.06a43 43 0 0 1-5.03-1.6 5.5 5.5 0 0 0-6.13 2.14 5.3 5.3 0 0 0 .62 6.45c1.66 1.74 4.35 2.73 6.61 3.34 2.49.67 3.55-3.19 1.06-3.86a15 15 0 0 1-3.4-1.33 8 8 0 0 1-1.28-.82 1.2 1.2 0 0 1-.4-.68 1 1 0 0 1 .08-.85c.07-.14.19-.25.57-.45.74-.38 1-.15 1.84.16q1.4.5 2.83.93.6.18 1.24.34a5 5 0 0 0 2.13-.03 37 37 0 0 0 8.08-2.67 2 2 0 0 0 .72-2.74 2.05 2.05 0 0 0-2.74-.72" class="c"/><path d="M61.14 198.14a9.7 9.7 0 0 0 4.28 10.72l-.92-1.2c.89 3.32 2.34 6.75 4.9 9.14a8.6 8.6 0 0 0 4.09 1.85 9.3 9.3 0 0 0 4.74-.41c7.59-2.19 14.06-6.71 20.1-11.66 2-1.63-.85-4.44-2.83-2.83a72 72 0 0 1-10.12 7.14 39 39 0 0 1-5.45 2.57q-1.46.55-2.97.98l-1.44.37q-.72.17-.23.06l-.46-.02a5 5 0 0 1-3.3-1.65 14 14 0 0 1-2.5-4.36 16 16 0 0 0-.87-2.71c-.46-.79-1.49-1.18-2.05-1.94a5.5 5.5 0 0 1-1.11-4.98c.68-2.49-3.18-3.55-3.86-1.07m30.34-13.95a18 18 0 0 0-7.56-4.12 52 52 0 0 0-9.8-1.62c-2.89-.24-6.32-.3-7.35 3.1-.85 2.79.72 5.18 2.85 6.82 2.2 1.7 4.82 2.7 7.09 4.27a2 2 0 0 0 2.74-.72 2.04 2.04 0 0 0-.72-2.74c-2.06-1.43-4.44-2.33-6.48-3.8a8 8 0 0 1-1.1-.96 2.3 2.3 0 0 1-.58-.94q-.25-1.12.82-1.17a24 24 0 0 1 4.63.35c1.7.24 3.42.5 5.1.86 2.65.56 5.56 1.57 7.53 3.5 1.85 1.8 4.68-1.02 2.83-2.83" class="c"/><path d="M123.66 165.72c-9.78 4.12-23.92 10.24-35.04 14.85 1.32 3.31 8.8 21 11.1 27.63a196 196 0 0 0 38.39-15.55c4.11-2.25 8.29-7.65 9.57-10.56 1.37-3.1 1.36-8.37.74-14.45" class="d"/><path d="M123.13 163.8c-9.76 4.1-19.48 8.3-29.23 12.41l-3.43 1.44c-1.31.55-2.82.93-3.34 2.41-.56 1.57.42 3.16 1.02 4.6l4.59 11.12a362 362 0 0 1 4.42 11.2 4.5 4.5 0 0 0 1.6 2.55 4 4 0 0 0 3.42.05q2.81-.83 5.6-1.76a193 193 0 0 0 30.1-12.77 27.5 27.5 0 0 0 11.14-11.15c2.57-4.84 1.92-11 1.4-16.25a2.06 2.06 0 0 0-2-2 2 2 0 0 0-2 2 44 44 0 0 1 .17 10.87 14.4 14.4 0 0 1-3.43 6.96 25 25 0 0 1-7.91 6.45q-5.29 2.8-10.77 5.2a198 198 0 0 1-19.5 7.4q-1.86.6-3.74 1.15a5 5 0 0 0-.9.27c.02-.1.78.85.88.53.02-.07-.1-.26-.12-.33a12 12 0 0 0-.63-1.7 427 427 0 0 0-3.1-7.81q-1.85-4.6-3.76-9.17l-1.56-3.76-.65-1.58-.3-.7-.1-.25c-.16-.23.06-.25-.02-.06l-.51.89a7 7 0 0 1 1.81-.82l2.1-.88 4.39-1.85q4.5-1.9 8.98-3.82l16.44-7a2.07 2.07 0 0 0 1.4-2.46 2 2 0 0 0-2.46-1.4Z" class="c"/></svg>
