<svg xmlns="http://www.w3.org/2000/svg" viewBox="-1.07 0 285.832 285.832"><defs><style>.b{fill:#fff}.e{fill:#211715}</style></defs><path d="m186.23 152.05-.07.22c-6.71 20.07-20.73 53.55-25.89 64.96l-2.93.69c-3.07-7.6-4.69-11.49-7.44-18.8-5.42-14.46-14.35-52.95-15.4-64.89-3.82-4.12-3.87-3.88-4.52-3.63-9.61 3.3-22.76 8.49-30.25 13.24a29 29 0 0 0-8.65 8.3c-1.66 2.66-5.08 8.92-6.14 12.27-4.6 14.88-7.5 27.22-10.65 48.44-2.29 15.36-2.85 26.16-.77 36.76a24.6 24.6 0 0 0 7.88 13.55c7.54 6.9 19.02 7.77 27.84 3.41 1.28 3.02 2.63 6.28 3.98 9.6a11.6 11.6 0 0 0 10.74 7.24H268c7.44-5.57 9.44-11.28 11.28-16.69 1.06-3.13 2.03-10.9 2.03-14.16 0-13.28-5.8-42.8-14.66-70.6-4.14-13-9.77-25.29-15.41-31.2-6.28-6.58-13.46-10.43-22.02-13.52-7.3-2.65-16.63-6.02-23.92-8.45-1.48-.5-6.63-4.16-9.8-6.46-2.42 10.96-6.16 20.46-9.27 29.72" style="fill:#b3b3b3"/><path d="M119.34 144.8a3 3 0 0 0-.62.27l-4.08 2.3-.42.24a8 8 0 0 1 1.3 1.59l2.36 4.19.12-.07 5.26-2.96a1.93 1.93 0 0 0 .73-2.63l-.8-1.42a3.3 3.3 0 0 0-3.85-1.51m78.28-65.58a7.5 7.5 0 0 1 5.46-.82c3.65.8 4.86 2.99 5.32 4.22 1.38 3.7.16 9.78-1.9 13.31a19.5 19.5 0 0 1-7.95 8.18 14 14 0 0 1-7.77 1.06l-.65 1.14a61 61 0 0 1-3.17 4.65 63 63 0 0 1-7.52 8.2 60 60 0 0 1-14.62 9.05 69 69 0 0 1-14.42 3.86 52 52 0 0 1-5.19.36c-11.09.23-20.03-3.28-28.17-10.9-7.77-7.29-10.63-18.13-11.13-29.95-.28-6.8-.43-14.2-.9-21.61 0 0-9.94-34.19 47.62-34.19s45 43.44 45 43.44" class="b"/><path d="M146.43 188.34c-5.11-17.6-11.05-44.36-11.92-54.03l-.2-3.02a41 41 0 0 0 10.9 1.14 52 52 0 0 0 5.19-.36 69 69 0 0 0 14.42-3.86 60 60 0 0 0 14.62-9.05 58 58 0 0 0 5.43-5.62l8.07 6.9s1.06.8 2.57 1.9l-.37 1.58c-2.44 10.37-6.01 19.47-8.98 28.35-6.71 20.07-20.73 53.55-25.89 64.96l-2.93.69c-3.07-7.6-4.69-11.49-7.44-18.8a157 157 0 0 1-3.47-10.78" class="b"/><path d="M171.35 51.18a27 27 0 0 1 12.3 12.47 39 39 0 0 1 3.28 10.62l10.7 4.95a7.5 7.5 0 0 1 5.45-.82c3.64.8 4.86 2.98 5.32 4.22 3.3-6.23 6.1-13 6.78-20.22 2-21.52-2.62-29.98-13.43-41.14-8.85-13.1-22.3-17.51-35.82-18.61a58.7 58.7 0 0 0-36.47 8.46 51 51 0 0 0-10.84 9.34c-7 5.65-13.28 18.74-13.99 32.17a88 88 0 0 0 .4 17l2.75-2.42c6.13-5.43 16.84-13.5 24.15-16.42.86-.34 1.88.26 2.12 1.55a8 8 0 0 1 0 3.05 1.7 1.7 0 0 0 2.34 1.85c5.23-2.22 14.6-6.77 21.15-8.8a19 19 0 0 1 6.88.48 63 63 0 0 1 6.93 2.27" style="fill:#85807f"/><path d="M152.5 205.9c-.8-2.04-1.63-4.2-2.6-6.78q-.7-1.85-1.45-4.17a185 185 0 0 1 2.14-24.68c.44-3.33 1.3-7.24 2-10.81-1.17-2.8-3.17-7.87-4.27-10.97l-.25-.7c2.56-2.64 4.84-4.7 7.75-7.23 2.83 1.85 7.78 4.83 12.08 7.76-1.33 4.07-2.62 8.84-3.76 12.92.05 1.35 3.46 21.75 4.53 26.04l1.24 7.38a834 834 0 0 1-9.63 22.58l-2.94.68c-1.99-4.92-3.37-8.28-4.84-12.02" style="fill:#3d8dcc"/><path d="M146 149.13a227 227 0 0 0 4.26 10.96v-1.27a215 215 0 0 0-4.05 32.03c-.14 3.09 4.66 3.08 4.8 0a193 193 0 0 1 2.06-21.17q.5-3.05 1.13-6.09.31-1.53.6-3.07a4.4 4.4 0 0 0-.37-2.81 226 226 0 0 1-3.8-9.86 2.46 2.46 0 0 0-2.95-1.68 2.4 2.4 0 0 0-1.68 2.96m19.58-1.45q-1.07 3.32-2.01 6.68a45 45 0 0 0-1.79 6.55 18 18 0 0 0 .55 4.54q1.24 7.94 2.7 15.85c.4 2.21.78 4.44 1.32 6.62.74 3 5.37 1.73 4.63-1.28-1.07-4.36-1.74-8.85-2.5-13.28q-.67-3.9-1.3-7.8l-.44-2.83-.16-1.07c-.07-.5.04.52.02.15a1 1 0 0 1-.04-.32c.01-.03.03-.36 0-.12-.05.34.13-.34.13-.32q.16-.52.29-1.05l1.03-3.7a217 217 0 0 1 2.2-7.34c.95-2.95-3.68-4.2-4.63-1.28" class="e"/><path d="M153.19 162.8c3.06-.12 6.11-.25 9.17-.3a2.4 2.4 0 0 0 0-4.8c-3.06.05-6.12.18-9.17.3a2.4 2.4 0 1 0 0 4.8m-5.8-10.8a126 126 0 0 1 10.12-9.75l-2.9.38c4.83 3.15 9.8 6.07 14.5 9.46a2.4 2.4 0 0 0 3.27-.86 2.45 2.45 0 0 0-.86-3.28c-4.67-3.4-9.66-6.32-14.5-9.47a2.45 2.45 0 0 0-2.9.38 126 126 0 0 0-10.13 9.75c-2.09 2.27 1.3 5.67 3.4 3.39M269.2 285.48a33 33 0 0 0 8.24-8.67 41 41 0 0 0 3.84-8.6 45 45 0 0 0 1.84-8.87 52 52 0 0 0 .56-8 129 129 0 0 0-1.9-17.39 322 322 0 0 0-4.63-23.03q-3.05-12.87-6.92-25.53a153 153 0 0 0-9.4-24.4c-3.26-6.43-7.3-12.09-13.03-16.56-6.25-4.89-13.37-7.85-20.78-10.52q-5.8-2.1-11.63-4.17l-5.86-2.04-2.5-.85a8 8 0 0 0-1.15-.38c.26.04.43.22.04 0a106 106 0 0 1-10.88-7.43l-.9-.67a2.4 2.4 0 0 0-3.29.86 2.46 2.46 0 0 0 .87 3.29 185 185 0 0 0 9.05 6.44 25 25 0 0 0 5.93 2.84q5.59 1.91 11.15 3.9c7.14 2.55 14.54 4.8 21.16 8.58a40.4 40.4 0 0 1 14.54 13.55 104 104 0 0 1 9.74 21.61c2.8 8.24 5.16 16.64 7.33 25.06 3.54 13.78 6.79 27.9 7.99 42.11a59 59 0 0 1-.7 15.3c-.96 5.48-3.06 11.16-6.78 15.39a30 30 0 0 1-4.35 4.04 2.5 2.5 0 0 0-.87 3.28 2.4 2.4 0 0 0 3.29.86m-49-73.3 8.06 29.46c.81 2.98 5.44 1.72 4.63-1.27l-8.05-29.47c-.82-2.98-5.45-1.71-4.63 1.28ZM151.5 84.85c-.48-2.43.55-7.82 5.07-7.83 5.91.65 5.55 7.25 3.25 10.14-1.9 2.36-6.8 2.92-8.32-2.3m-35.24-2.5c-.43-2.43.54-7.84 4.69-7.87 5.41.6 5.04 7.23 2.91 10.14-1.74 2.38-6.24 2.97-7.6-2.26m17.8 6.89a51 51 0 0 0-2.4 3.78 5 5 0 0 0-.77 2.23 3.3 3.3 0 0 0 1.07 2.59 5 5 0 0 0 1.94 1.17 9 9 0 0 0 .9.19 2.5 2.5 0 0 0 1.85-.24 2.4 2.4 0 0 0-.57-4.4 7 7 0 0 1-1.05-.23l.57.24a3 3 0 0 1-.45-.26l.48.38a4 4 0 0 1-.49-.46l.38.48-.1-.15.24.57-.07-.25.09.64v-.27l-.08.64a2 2 0 0 1 .14-.46l-.24.57a18 18 0 0 1 1.35-2.3q.66-1.03 1.35-2.04a2.4 2.4 0 0 0-2.7-3.53 2.7 2.7 0 0 0-1.44 1.1Zm64.77-7.95a5.9 5.9 0 0 1 6.02.42l.39.34.33.35.35.55c.04.08.3.6.16.3s.12.34.15.45a8 8 0 0 1 .26 1.09 13 13 0 0 1-.1 4.1c-.88 5.35-4.22 10.82-9.22 13.23.43-.2-.21.07-.36.12q-.45.16-.92.28a12 12 0 0 1-1.9.35 8 8 0 0 1-4.53-.66c-2.71-1.48-5.14 2.66-2.43 4.15 3.34 1.82 7.64 1.72 11.17.47a19 19 0 0 0 8.77-7.16 23 23 0 0 0 4.11-9.88c.52-3.37.56-7.23-1.57-10.09a10.3 10.3 0 0 0-13.1-2.55c-2.68 1.53-.27 5.68 2.42 4.14" class="e"/><path d="M166.03 130.28c10.73-4.7 20.25-12.52 26.17-22.76 1.55-2.68-2.6-5.1-4.15-2.42a45 45 0 0 1-4.15 5.87 54 54 0 0 1-6.38 6.69l-.65.53-.56.45q-1.55 1.2-3.18 2.27a62 62 0 0 1-9.53 5.23 2.4 2.4 0 0 0-.86 3.28 2.46 2.46 0 0 0 3.29.86" class="e"/><path d="M102.6 69.97c.51 8.16.45 16.36 1.08 24.51.53 6.84 1.9 13.68 5.03 19.83 6.13 12.07 19.4 19.63 32.68 20.45 8.26.5 16.38-1.31 24.06-4.23a2.47 2.47 0 0 0 1.68-2.96 2.4 2.4 0 0 0-2.95-1.67 56 56 0 0 1-20 4.14 35.6 35.6 0 0 1-17.48-4.32 34 34 0 0 1-13.06-12.37c-3.06-5.35-4.48-11.54-5.05-17.64-.8-8.54-.65-17.18-1.19-25.74a2.46 2.46 0 0 0-2.4-2.4 2.4 2.4 0 0 0-2.4 2.4" class="e"/><path d="M201.73 17.2a44 44 0 0 0-23.37-14.9 68 68 0 0 0-29.23-1.28 57.4 57.4 0 0 0-25.87 11.64 50 50 0 0 0-5.26 4.87c-1.37 1.48-2.92 2.79-4.24 4.33a45 45 0 0 0-7.22 12.06c-4.65 11.1-5.26 23.4-3.95 35.24a2.47 2.47 0 0 0 2.4 2.4 2.4 2.4 0 0 0 2.4-2.4c-1.1-9.94-.94-20.27 2.23-29.84a46 46 0 0 1 5.87-11.92 27 27 0 0 1 3.56-4.15c1.56-1.48 2.98-3.07 4.55-4.54 13.33-12.48 32.64-16.2 50.21-12.56 9.7 2 18.33 6.6 24.53 14.44a2.4 2.4 0 0 0 3.39 0 2.46 2.46 0 0 0 0-3.39m10.4 63.36a58 58 0 0 0 4.84-13.88 71 71 0 0 0 1.06-13.9c-.06-6.87-1.2-13.7-4.35-19.86a47 47 0 0 0-5.97-8.67 2.4 2.4 0 0 0-3.4 0 2.45 2.45 0 0 0 0 3.39 36 36 0 0 1 7.67 14.26c1.76 6.95 1.61 14.64.66 21.69a50 50 0 0 1-4.66 14.55 2.46 2.46 0 0 0 .86 3.28 2.4 2.4 0 0 0 3.28-.86m-5.29 57.85a34 34 0 0 1 2.93 5.15 13 13 0 0 1 1.27 3.48v-1.28q.98-1.37.52-.93.58-.43.27-.22l-.44.28q-.56.33-1.14.63-1.83.96-3.69 1.86-3.7 1.8-7.43 3.57a2.42 2.42 0 0 0-.49 3.77q2.47 2.63 4.91 5.3 1.07 1.17 2.12 2.36c.66.75 1.74 1.6 1.93 2.63.13.65-.36 1.14-.7 1.66l-1.42 2.18q-1.53 2.36-3.03 4.74c-4.7 7.44-9.32 14.94-14.07 22.35q-4.64 7.25-9.46 14.39c-1.73 2.56 2.42 4.97 4.15 2.42a880 880 0 0 0 16.98-26.3q3.44-5.54 6.94-11.06 1.53-2.41 3.08-4.81c1.14-1.76 2.5-3.43 2.35-5.65-.2-3.02-2.67-5.2-4.57-7.31s-3.87-4.2-5.81-6.3l-.49 3.78c4.02-1.95 8.18-3.72 12.06-5.95a4.6 4.6 0 0 0 1.8-1.48c.62-1.06.23-2.29-.16-3.35a35 35 0 0 0-4.27-8.33 2.47 2.47 0 0 0-3.28-.86 2.4 2.4 0 0 0-.86 3.28m-74.73-4.1c.92 10.04 3.36 20.05 5.62 29.85a340 340 0 0 0 8.9 32.9c2.47 7.28 5.51 14.37 8.4 21.49a2.5 2.5 0 0 0 2.94 1.68 2.4 2.4 0 0 0 1.68-2.96c-2.67-6.62-5.45-13.21-7.85-19.94-1.65-4.6-3-9.33-4.3-14.05q-4.79-17.39-8.31-35.11-.82-4.1-1.5-8.2-.28-1.67-.51-3.33l-.04-.32-.08-.63-.15-1.39a2.47 2.47 0 0 0-2.4-2.4 2.4 2.4 0 0 0-2.4 2.4Z" class="e"/><path d="M162.35 218.45a834 834 0 0 0 12.73-30.15 692 692 0 0 0 13.87-36.8c3.03-8.93 6.33-17.76 8.5-26.94.72-3-3.9-4.29-4.62-1.28a247 247 0 0 1-7.46 23.89c-2.1 6.06-4.16 12.12-6.41 18.13a988 988 0 0 1-20.76 50.72 2.47 2.47 0 0 0 .86 3.29 2.4 2.4 0 0 0 3.28-.86m7.78-165.2a25.5 25.5 0 0 1 9.54 8.37 35 35 0 0 1 4.95 13.29 2.4 2.4 0 0 0 2.95 1.67 2.45 2.45 0 0 0 1.67-2.95 38 38 0 0 0-5.6-14.7 30.5 30.5 0 0 0-11.08-9.82c-2.72-1.46-5.15 2.68-2.43 4.15M109.47 68.9a106 106 0 0 1 19.92-14.28q1.16-.61 2.36-1.17a7 7 0 0 0 .82-.36c-.01.08-.79-.3-.82-.26a1 1 0 0 0 .03.38 6 6 0 0 0 .01 1.2 12 12 0 0 0-.14 1.6 4 4 0 0 0 1.91 3.14c2.05 1.24 3.99.2 5.93-.66l5.5-2.47a122 122 0 0 1 13.18-5.27c2.94-.92 1.69-5.56-1.27-4.63A120 120 0 0 0 144.53 51l-5.8 2.6-2.5 1.1q-.28.11-.54.24c-.43.23-.14-.1.08.03a4 4 0 0 1 .57.38c.2.16-.05.73.13-.01.58-2.28-.1-5.43-2.28-6.61-2.02-1.1-4.19.21-6.02 1.12a80 80 0 0 0-10.77 6.69 141 141 0 0 0-11.32 8.95c-2.32 2.05 1.09 5.43 3.4 3.4Zm27 42.76c.17-.22.53-.76.83-.86q-.37.27-.15.12l.21-.15.52-.3c.56-.28-.32.09.14-.07l.5-.17q.6-.17 1.2-.28c.5-.1-.48.04.07 0l.53-.05a13 13 0 0 1 1.35-.02q.3 0 .62.05c-.56-.07.04.03.17.06l.39.12q.37.13-.1-.05c.13-.01.37.19.46.24.14.08.59.26.08.02a2 2 0 0 1 .45.41l.17.2q.25.3-.05-.09s.26.42.27.44l.16.3-.1-.25c.13.14.15.51.2.69.14.47 0-.44.01.1v.56c0 .49.11-.43-.03.19a2 2 0 0 1-.18.63q.18-.39.06-.15l-.12.25a2 2 0 0 1-.3.48q.29-.36.03-.06l-.25.25c-.31.34.35-.17-.08.06l-.24.14q-.23.12.17-.07l-.34.1q.53-.05.12-.02a2.4 2.4 0 1 0 0 4.8 6.1 6.1 0 0 0 5.15-3.5 7.6 7.6 0 0 0 .1-6.45 7.4 7.4 0 0 0-4.3-3.82 12 12 0 0 0-5.93-.15 8.6 8.6 0 0 0-5.2 2.91 2.6 2.6 0 0 0-.7 1.7 2.4 2.4 0 0 0 .7 1.7c.86.79 2.57 1.06 3.4 0Zm-23.8 149.8c-8.68 7.5-22.56 7.12-30.64-1.02a22 22 0 0 1-5.2-7.9 36 36 0 0 1-1.77-8.55 94 94 0 0 1 .08-18.72c.7-7.5 1.88-14.98 3.14-22.4 1.08-6.34 2.3-12.65 3.77-18.9a276 276 0 0 1 4.48-16.56 56 56 0 0 1 6.85-14.4c3.4-5.17 9.11-8.27 14.53-10.92a187 187 0 0 1 18.63-7.74c1.44-.52 2.88-1 4.32-1.53a2.47 2.47 0 0 0 1.67-2.95 2.4 2.4 0 0 0-2.95-1.68c-6.72 2.45-13.42 4.88-19.95 7.81-6 2.7-12.14 5.65-16.88 10.33a33 33 0 0 0-5.45 7.53 74 74 0 0 0-4.16 8.5 87 87 0 0 0-2.6 8.42q-1.25 4.34-2.35 8.72a321 321 0 0 0-7.6 43.23 101 101 0 0 0-.46 20.05 51 51 0 0 0 1.58 9.56 27 27 0 0 0 5.13 9.5c8.5 10.4 23.91 12.74 35.37 5.84a28 28 0 0 0 3.84-2.83c2.34-2.02-1.06-5.4-3.4-3.4Z" class="e"/><path d="M57.16 51.86a53 53 0 0 1 9.26 1.88c7.33 2.62 11.28 7.64 11.18 15.42a17.4 17.4 0 0 1-3.25 9.68 30 30 0 0 1-3.16 3.93 3.15 3.15 0 0 0-.18 4.22c3.46 4.33 4.27 8.08 4 13.13-.14 2.4-.86 5.61-1.9 7.17a3.3 3.3 0 0 0-.58 2.23c.16 2.2 2.85 6.57 11.59 6.57q1.65 0 3.2-.13c3.34-.26 6.2-.71 8.3-.22 1.76.41 2.47 1.17 2.76 2.46.42 1.83-.31 3.26-2.04 4.64a21 21 0 0 1-6.52 3.03 39 39 0 0 1-6.09 1.25c-10.44 1.48-27.46.75-39.6.42l-.2-.01c-7.84-.75-14.8-4.63-18.3-13.9a20.3 20.3 0 0 1-.87-10.63q.23-1.35.53-2.75c1.24-5.8-2.92-10.78-9.43-12.45l-3.31-.87C3.86 84.61-.35 77.27.02 68.11a15.3 15.3 0 0 1 2.8-8.4 17.6 17.6 0 0 1 6.61-5.56c11.58-4.48 32.01-3.8 47.73-2.3" style="fill:#c6c6c6"/><path d="M119.93 173.3c2.45 6 4.93 12.68 2.73 18.77-.74 2.06-1.97 3.9-2.78 5.91-1.23 3.05-1.01 5.22-1.24 8.5-.17 2.45-.04 4.46-.69 6.56a8.3 8.3 0 0 1-4.57 5.49 31 31 0 0 1-5.97 1.17c-5.66.72-10.27.23-14.2-3.3a6.3 6.3 0 0 1-1.75-6.83q.28-.76.47-1.47c.83-2.99 1-6.18-1.5-8.02a21 21 0 0 1-6.33-7.41 19 19 0 0 1-1.68-7.1c-.08-5.04.2-8.65.12-13.69l2.7-10.65 1-3.29a16 16 0 0 1 4.23-7.01 10 10 0 0 1 7.56-2.76 3.5 3.5 0 0 1 1.54.9 4.3 4.3 0 0 1 1.07 3.33l3.53 9.76q.03-.5.1-1.12a10.3 10.3 0 0 1 2.57-5.8c1.45-1.54 4.24-1.45 5.9-.35 1.9 1.28 1.98 3.03 2.61 5.38a105 105 0 0 0 4.58 13.13" class="b"/><path d="M80.14 171.88c.12 8.22-1.6 17.12 3.3 24.33a22 22 0 0 0 3.76 4.32c1.2 1.05 2.66 1.74 2.86 3.47.2 1.84-.54 3.56-1.03 5.3a9 9 0 0 0 .64 6.36c1.7 3.43 5.9 5.64 9.52 6.33a33 33 0 0 0 12.07-.45 10.3 10.3 0 0 0 8.72-7.05c1.52-3.93.83-8.41 1.32-12.53a19 19 0 0 1 2.37-6.29 19 19 0 0 0 2.2-7.49c.38-5.37-1.64-10.64-3.63-15.52a2.5 2.5 0 0 0-2.95-1.68 2.4 2.4 0 0 0-1.68 2.95c1.6 3.9 3.3 8.02 3.48 12.27a13 13 0 0 1-.95 5.76c-.8 1.9-1.91 3.66-2.66 5.6-1.39 3.6-1.19 7.72-1.36 11.52-.13 2.87-1.06 6.44-3.97 7.33a29 29 0 0 1-10.37 1.12c-2.7-.2-6.4-1.4-7.8-3.96-.84-1.57-.31-2.9.16-4.48a15 15 0 0 0 .7-5.26 7.8 7.8 0 0 0-2.17-4.98c-1.25-1.25-2.73-2.18-3.92-3.52a15.4 15.4 0 0 1-3.92-9.51c-.22-4.63.17-9.3.1-13.93-.04-3.1-4.84-3.1-4.8 0Z" class="e"/><path d="M86.04 177.25a62 62 0 0 1 14.96-1.33c2.02.01 3.72.2 4.9 1.62.64.78 1.42 1.9.97 2.86a3 3 0 0 1-1.13 1.04q-1.08.72-2.1 1.51a2.4 2.4 0 0 0 0 3.4 2.46 2.46 0 0 0 3.4 0 23 23 0 0 0 3.2-2.46 6.3 6.3 0 0 0 1.45-5.13 9.5 9.5 0 0 0-4.83-6.5 14 14 0 0 0-6.45-1.14q-3.5.02-7 .3a53 53 0 0 0-8.65 1.2c-3 .74-1.73 5.37 1.27 4.63Z" class="e"/><path d="M92.14 187.32c2.26-.6 4.5-1.34 6.8-1.72l.46-.07c-.05 0-.35.03-.07.02l.79-.07a13 13 0 0 1 1.69 0l.45.05c.28.02-.03 0-.07-.01l.63.13c.48.07-.4-.2-.07-.03l.21.12c-.06.02-.42-.4-.2-.15l.3.3c.16.15-.19-.2-.18-.23l.14.21.21.4c.13.2-.1-.25-.1-.26l.11.32q.08.24.13.48c.03.11.1.65.06.24s0 .15.01.26q.03.3.01.59l-.02.5c-.04.55.09-.4 0 .02-.08.34-.21.68-.28 1.02-.05.23.1-.25.11-.26l-.12.24-.23.4c-.24.42.32-.29.03-.05-.21.19-.4.43-.6.63q-.55.55-1.15 1.05l-.28.23c.14-.12.28-.2.05-.04l-.58.43q-1.46.99-2.93 1.93a2.4 2.4 0 1 0 2.42 4.15 38 38 0 0 0 5.65-4.14 8 8 0 0 0 1.89-2.4 10 10 0 0 0 .83-3.27 8 8 0 0 0-1.66-5.7c-1.54-1.87-4.2-2.1-6.46-1.96a47 47 0 0 0-9.25 2 2.4 2.4 0 1 0 1.28 4.63Zm10.9-34.93c-.02-2.46-.87-4.81-3.16-6.05-2.32-1.26-5.42-.46-7.69.58-4.24 1.93-6.94 6.16-8.29 10.48l-.96 3.19a2.4 2.4 0 0 0 1.67 2.95 2.45 2.45 0 0 0 2.96-1.67l.93-3.1a15 15 0 0 1 .84-2.2 17 17 0 0 1 .84-1.53l.4-.63.3-.41.08-.1a14 14 0 0 1 1.2-1.27l.5-.42a10 10 0 0 1 1.5-.93l.45-.22q-.23.1 0 0a9 9 0 0 1 1.81-.49c-.4.07.34-.02.35-.02h1c0 .03-.9-.27-.22-.01l.25.16q-.32-.28-.04-.04l.26.27q-.23-.31 0 .02c.3.43-.06-.36.08.15.03.12.15.93.1.37q.04.46.04.92a2.4 2.4 0 0 0 4.8 0" class="e"/><path d="M64.47 176.62a5.1 5.1 0 0 1 2.23-6.05l8.57-5.06 33.86-19.08a3.4 3.4 0 0 1 2.32-.24 4.6 4.6 0 0 1 2.35 1.06 8 8 0 0 1 1.71 1.94l2.53 4.49.15.27a9 9 0 0 1-.34 3.61 3 3 0 0 1-1.37 1.91l-33.86 19.08-8.38 4.95c-2.45 1.45-5.38.46-7.01-1.86a30 30 0 0 1-2.37-4.17 8 8 0 0 1-.39-.85" style="fill:#7a7473"/><path d="m115.85 149.44 2.98-1.68 1.1-.62c-.02 0 .25-.14.24-.12l-.34.14.24-.08a1 1 0 0 1 .37-.08s-.66.03-.26.05h.37c.46 0-.6-.15-.15-.02l.35.1c.38.1-.55-.3-.01 0q.15.12.3.2c-.47-.21-.3-.24-.1-.04s.15.36-.04-.1l.21.33.38.67.41.72.07.14-.15-.34.06.23-.05-.4v.24q.1-.66.03-.29l-.07.23.14-.36-.12.2.23-.3-.18.17c.21-.35.4-.27.15-.14l-.35.2-1.64.92-3.24 1.83a2.4 2.4 0 1 0 2.42 4.14l3.08-1.73c1.36-.77 3.08-1.47 3.83-2.92a4.6 4.6 0 0 0-.2-4.49 11 11 0 0 0-1.53-2.3 5.7 5.7 0 0 0-4.39-1.69 7 7 0 0 0-2.9.97l-3.66 2.06a2.4 2.4 0 0 0 2.42 4.15Z" class="e"/><path d="M66.79 175.98c-.79-2.53 1.36-3.48 3.16-4.54l6.12-3.6c1.9-1.13 3.86-2.2 5.79-3.28l25.79-14.54a14 14 0 0 1 2.68-1.5c1.25-.34 2.52.94 3.11 1.89.97 1.53 1.8 3.17 2.68 4.75l-.32-1.2c.1.95.22 2.77-.59 3.47a5 5 0 0 1-.75.42l-3.77 2.13-12.78 7.2c-5.96 3.36-11.97 6.63-17.85 10.1l-6.61 3.9a2.8 2.8 0 0 1-2.76.35 4.7 4.7 0 0 1-2-2.02 25 25 0 0 1-1.9-3.53 2.5 2.5 0 0 0-2.96-1.67 2.4 2.4 0 0 0-1.67 2.95c1.79 4.3 4.76 9.84 10.26 9.27 2.52-.26 4.77-1.99 6.9-3.24q3.49-2.08 7.02-4.08l26.77-15.09 3.98-2.24c2.57-1.44 3.58-4.1 3.57-7.02 0-1.98-1.21-3.57-2.15-5.24a12 12 0 0 0-4.16-4.9 7 7 0 0 0-7.1.02l-25.26 14.24q-3.98 2.2-7.91 4.45-2.38 1.38-4.73 2.8c-2.13 1.25-4.7 2.38-6.18 4.42a7.5 7.5 0 0 0-1.01 6.61c.9 2.94 5.54 1.69 4.63-1.28" class="e"/><path d="M105.78 169a12.4 12.4 0 0 1-1.51-7.96 10.3 10.3 0 0 1 2.58-5.8c1.45-1.54 4.24-1.46 5.88-.35 1.9 1.28 1.99 3.03 2.63 5.38a91 91 0 0 0 4.57 13.02" class="b"/><path d="M107.4 166.86a16 16 0 0 1-.63-1.73l-.19-.82q-.07-.42 0 0l-.04-.45a12 12 0 0 1 .5-4.27 8 8 0 0 1 .95-1.93c.17-.26.36-.46.56-.71q.32-.3.07-.1l.41-.25c-.31.15.48-.12.59-.13-.39.06.5 0 .6.01a3 3 0 0 1 1.01.3 1 1 0 0 1 .42.29l.34.34q-.21-.28.02.07l.24.44q.16.45.28.91c.43 1.6.82 3.2 1.3 4.79a110 110 0 0 0 3.8 10.41 2.5 2.5 0 0 0 2.95 1.68 2.4 2.4 0 0 0 1.67-2.95 112 112 0 0 1-3.53-9.58 72 72 0 0 1-1.32-4.63 11 11 0 0 0-1.37-3.69 7.5 7.5 0 0 0-7.93-2.98c-3.22.76-5.17 4.18-5.9 7.17a14.5 14.5 0 0 0 .59 9.09 2.5 2.5 0 0 0 2.95 1.67 2.4 2.4 0 0 0 1.67-2.95Zm-23.7-6.28 7.34 13.04a2.4 2.4 0 0 0 4.14-2.43l-7.34-13.04a2.4 2.4 0 1 0-4.15 2.43" class="e"/></svg>
