<svg xmlns="http://www.w3.org/2000/svg" viewBox="-28.93 0 326.261 326.261"><defs><style>.b{fill:#fff}.c{fill:#211715}</style></defs><path d="M158.26 168.3c8.58-1.87 14.56-10.47 14.5-18a53 53 0 0 0-2.94-17.09c-2.4-7.51-7.09-22.76-7.42-50.04.67-7.68-.03-18.77-.33-23.03-1.05-14.78-7.66-31.28-17.16-40.45-4.11-3.96-5.3-5.81-9.78-8.24L124.39 6.2c-6.6-2.55-12.75-3.77-24.34-3.77-19.01 0-35.93 9.8-43.44 16.98-12.46 11.93-20.36 33.7-19.37 63.74.01 21.9-1.66 37.68-4 46.65a69 69 0 0 0-.95 4.28 56 56 0 0 0-2.73 16.3c-.09 4.74.73 10.07 4.53 12.92 2.53 2.22 6.83 4.88 11.46 5Z" style="fill:#957f6e"/><path d="M79.9 148.33a43 43 0 0 0 .3-6.9 41.6 41.6 0 0 1-15.24-11.91 49 49 0 0 1-9.45-18.53 11.7 11.7 0 0 1-7.49-2.67 18.5 18.5 0 0 1-4.77-6.26A29 29 0 0 1 40.3 86.7a10 10 0 0 1 1.01-3.9 6.9 6.9 0 0 1 4.93-3.27 7.2 7.2 0 0 1 5.43 1.4c3.51-1.43 13.3-5.93 15.9-7.47a118 118 0 0 0 12.26-8.24 50 50 0 0 0 6.46-1.19 49 49 0 0 0 4.8-1.26c12.33-4 26.18-12.53 32.4-20.14 1.32 7.07 3.34 14.07 10.43 24.13 3.44 4.89 8.44 11 15.44 14.47a7.3 7.3 0 0 1 5.8-1.7 6.9 6.9 0 0 1 4.92 3.27 10 10 0 0 1 1.01 3.9 29 29 0 0 1-2.96 15.37 18.5 18.5 0 0 1-4.76 6.26 12 12 0 0 1-5.69 2.56l-.97.15c-.47 1.75-1 3.22-1.25 4-1.7 4.63-11.48 20.99-23.63 26.2-.02 3.28-.1 7.05 1.06 9.89.87 2.15 4.95 5.34 9.24 8.24 0 0 2.2 34.13-31.47 34.13-32.11 0-31.18-34.34-31.18-34.34 4.58-2.84 8.83-5.93 9.68-8.03a13 13 0 0 0 .73-2.79" class="b"/><path d="M34.84 83.16c0 12.76-.35 25.86-2.35 38.36a86 86 0 0 1-1.2 6.18c-.31 1.32-.66 2.62-.95 3.94-.41 1.92-1 3.78-1.47 5.68a60 60 0 0 0-1.67 11.89 27 27 0 0 0 1.02 9.5c2.3 6.95 10.22 11.7 17.34 12 3.08.12 3.08-4.68 0-4.8a16 16 0 0 1-8.42-3.22 10.6 10.6 0 0 1-4.45-5.76 26 26 0 0 1-.63-8.9A53 53 0 0 1 33.92 137a152 152 0 0 0 4.97-30.24c.56-7.85.75-15.72.75-23.6 0-3.09-4.8-3.09-4.8 0m125.16 0a184 184 0 0 0 4.28 39.15q1.24 5.34 2.91 10.56a75 75 0 0 1 2.45 9.24 32 32 0 0 1 .59 10.22 17 17 0 0 1-12.6 13.66c-3.01.7-1.74 5.32 1.27 4.63a21.6 21.6 0 0 0 14.69-12.81c2.84-6.77 1.47-14.88-.4-21.74-1.1-4.02-2.5-7.95-3.54-12a143 143 0 0 1-3.03-15.4 199 199 0 0 1-1.82-25.5c-.04-3.09-4.84-3.1-4.8 0Z" class="c"/><path d="M151.05 82.92a4.75 4.75 0 0 1 6.77.79 8 8 0 0 1 .95 4.29 26 26 0 0 1-.3 5.26c-1.07 6.35-4.37 14.08-11.43 15.31a2.4 2.4 0 0 0-1.68 2.95 2.46 2.46 0 0 0 2.96 1.68c9.7-1.7 14.35-12.7 15.15-21.48.4-4.24.28-9.54-3.3-12.47a9.7 9.7 0 0 0-12.51.27 2.4 2.4 0 0 0 0 3.4 2.45 2.45 0 0 0 3.39 0" class="c"/><path d="M145.2 105.49a24 24 0 0 1-1.13 6.02q-.35 1.16-.73 2.3l-.24.7c-.16.47-.1.24-.03.1a51 51 0 0 1-3.24 5.92 58 58 0 0 1-12.83 14.8 24 24 0 0 1-9.47 4.78c-3 .7-1.73 5.32 1.28 4.63 7.3-1.69 13.43-6.95 18.24-12.46a63 63 0 0 0 10.02-14.92A32 32 0 0 0 150 105.5c.1-3.1-4.7-3.09-4.8 0M53.73 79.52a9.7 9.7 0 0 0-12.52-.27c-3.58 2.93-3.69 8.23-3.3 12.48.8 8.76 5.45 19.78 15.16 21.47a2.47 2.47 0 0 0 2.95-1.68 2.4 2.4 0 0 0-1.67-2.95c-7.07-1.23-10.37-8.96-11.44-15.3a26 26 0 0 1-.3-5.27 8.3 8.3 0 0 1 .95-4.3 4.75 4.75 0 0 1 6.78-.79 2.46 2.46 0 0 0 3.39 0 2.4 2.4 0 0 0 0-3.39" class="c"/><path d="M52.18 107.44c3.07 14.52 11.64 28.67 25.32 35.38a34 34 0 0 0 11.66 3.34 2.4 2.4 0 0 0 2.4-2.4 2.45 2.45 0 0 0-2.4-2.4c-13.46-1.4-24.48-13.04-29.32-25.05a61 61 0 0 1-3.03-10.14c-.64-3.02-5.27-1.74-4.63 1.27M125.03 3.9C116.28.55 106.73-.33 97.41.1a70 70 0 0 0-30.72 9.13 54 54 0 0 0-17.62 15.26 70 70 0 0 0-10.5 22.72c-3.2 11.66-4.1 23.9-3.72 35.96.1 3.08 4.9 3.1 4.8 0-.58-18.2 1.65-37.86 11.7-53.53a47 47 0 0 1 14.8-14.5A66 66 0 0 1 93.5 5.22a79 79 0 0 1 17.94.18 51 51 0 0 1 12.3 3.13 2.4 2.4 0 0 0 2.96-1.68 2.45 2.45 0 0 0-1.68-2.95m39.77 79.27a126 126 0 0 0 .06-16.47 106 106 0 0 0-1.44-14.62c-2.08-11.13-6.63-22.25-13.94-30.98-1.92-2.3-4.13-4.35-6.24-6.46a31 31 0 0 0-6.9-5.26c-2.7-1.5-5.13 2.65-2.42 4.14a25 25 0 0 1 5.45 4.05c1.87 1.83 3.78 3.64 5.54 5.58a52 52 0 0 1 8.46 13.13 71 71 0 0 1 5.11 15.5A89 89 0 0 1 160 65.51a131 131 0 0 1 0 17.66 2.4 2.4 0 0 0 2.4 2.4 2.45 2.45 0 0 0 2.4-2.4m-45.38 58.06a51 51 0 0 0 .21 6.34 12.5 12.5 0 0 0 1.7 5.67c2.37 3.42 6.2 5.89 9.58 8.19a2.4 2.4 0 1 0 2.43-4.15 65 65 0 0 1-4.73-3.45 29 29 0 0 1-2.7-2.5l-.38-.43c-.24-.29.27.44-.06-.09q-.23-.34-.41-.69c-.14-.26.13.39-.01-.04l-.22-.67a14 14 0 0 1-.45-2.3 54 54 0 0 1-.16-5.88c.02-3.09-4.78-3.1-4.8 0" class="c"/><path d="M77.8 141.44a51 51 0 0 1-.16 5.76 14 14 0 0 1-.49 2.36l-.22.66c.06-.15.14-.23.02-.04-.08.13-.55.81-.21.39-2.2 2.77-5.51 4.65-8.48 6.5a2.4 2.4 0 1 0 2.42 4.14 72 72 0 0 0 5.67-3.84 21 21 0 0 0 4.28-4.05 11 11 0 0 0 1.7-5.2 48 48 0 0 0 .27-6.68c-.02-3.09-4.82-3.1-4.8 0m15.28-93.57A65 65 0 0 1 77.3 64.13 99 99 0 0 1 60.14 74.5q-2.48 1.17-4.97 2.3l-2.2.98-.98.42-.33.15-.24.1a2.5 2.5 0 0 0-1.67 2.95 2.4 2.4 0 0 0 2.95 1.68 147 147 0 0 0 15.81-7.4A98 98 0 0 0 88.55 60.8a63 63 0 0 0 8.68-10.52c1.69-2.6-2.47-5-4.15-2.42" class="c"/><path d="M79.91 67.6c13.58-1.62 26.75-7.78 37.53-16.07a48 48 0 0 0 7.58-7 2.47 2.47 0 0 0 0-3.4 2.4 2.4 0 0 0-3.4 0c-5.02 5.96-11.9 10.37-18.73 13.98-7.14 3.77-14.9 6.73-22.98 7.68a2.5 2.5 0 0 0-2.4 2.4 2.4 2.4 0 0 0 2.4 2.4" class="c"/><path d="M150.56 79.15c-7.2-3.64-12.4-10.06-16.68-16.74A56 56 0 0 1 126 43.08a2.4 2.4 0 1 0-4.63 1.27 57 57 0 0 0 5.51 15.63A69 69 0 0 0 138.6 76.2a37 37 0 0 0 9.54 7.08c2.75 1.39 5.18-2.75 2.42-4.15Zm-57.73 41.19a19.4 19.4 0 0 0 9.35 2.16 15.2 15.2 0 0 0 9.43-2.78 2.4 2.4 0 0 0 0-3.39 2.46 2.46 0 0 0-3.4 0c.73-.57.16-.13-.03 0s-.38.22-.58.33c-.16.08-.87.36-.22.12l-.8.3a14 14 0 0 1-2.23.5c.35-.05-.09.01-.22.02a21 21 0 0 1-4.33 0l-.32-.04a16 16 0 0 1-2.08-.46q-.44-.14-.87-.3c-.61-.2.35.19-.2-.07l-1.07-.53a2.45 2.45 0 0 0-3.28.86 2.43 2.43 0 0 0 .86 3.28Zm8.15-22.04a44 44 0 0 1 1.03 4.73l-.08-.64a3 3 0 0 1 .01.66l.09-.64-.07.3.24-.58-.1.19.38-.49-.16.15.49-.37-.38.2.57-.24a3 3 0 0 1-.63.18l.64-.08a3 3 0 0 1-.6 0l.65.08-.67-.11a2 2 0 0 0-.96-.05 2 2 0 0 0-.89.29 2.4 2.4 0 0 0-.86 3.28 2.3 2.3 0 0 0 1.43 1.1c.51.07 1 .2 1.52.22a5 5 0 0 0 2.22-.53 3.2 3.2 0 0 0 1.78-2.11 5 5 0 0 0-.02-2.29 53 53 0 0 0-1-4.53 2.4 2.4 0 1 0-4.63 1.28M75.93 84.9c-.79 2.57-.28 8.48 4.59 8.98 6.43-.04 6.77-7.18 4.6-10.54-1.76-2.75-6.98-3.9-9.19 1.56m51.5 0c.78 2.57.27 8.48-4.6 8.98-6.43-.04-6.77-7.18-4.6-10.54 1.77-2.75 6.98-3.9 9.2 1.56" class="c"/><path d="M98.65 242.9q1.31 3.56 2.59 7.1c4.93-13.77 8.55-23.52 13.4-37.05 6.42-17.88 14.07-38.47 18.55-56.8l4.49 3.05.78.6c9.85 6.29 23.43 9.72 34.33 14.99 2.98 1.44 6.46 2.11 8.72 4.52a25 25 0 0 1 5.24 8.55c7.1 18.56 7.98 28.7 15.87 48.32 2.94-7.01 5.69-13.83 8.73-21.3 9.68 5.1 25.11 12.17 34.79 14.27-4.83 15.45-9.67 32.07-16.47 47.54-4.72 10.75-11.2 20.77-22.55 23.76a29 29 0 0 1-25.07-4.6c-6.13-4.49-12.89-13.57-17.14-18.94l-.24-.3v2.81c0 6.94 2.54 30.24 3.58 44.44H2.4c2.96-58.96 5.73-110.22 11.33-128.89 1.6-5.37 3.64-10.11 6.32-12.26s7.15-3.58 10.25-5.07c9.05-4.37 20.95-9.72 28.55-14.3a60 60 0 0 1 4.63-3.93l4.6-3.11.07-.06c5.95 17.68 12.79 38.09 19.18 55.9 3.6 10.02 7.55 20.51 11.31 30.75" style="fill:#b3b3b3"/><path d="M100.3 181.95h-.63a102 102 0 0 1-23.18-3.33l-.89-.31c3.88 11.44 7.9 23.1 11.74 33.84 4.43 12.34 9.4 25.4 13.9 37.84 4.93-13.77 8.56-23.52 13.41-37.04 4.06-11.32 8.62-23.72 12.55-35.96l-2.4.94c-7.02 2.8-17.14 3.97-24.5 4.02m131.24-18.88c1.96-7.74 7.45-27.05 9.47-29.63 1.45-1.85 3.17-3.28 6.36-1.92 2.73 1.17 2.29 4.32 1.77 6.93a558 558 0 0 1-5.93 23.44 5.4 5.4 0 0 1 6.14-1.4c2.17 1 3 2.85 2.76 4.18l-.47 2.55a5.3 5.3 0 0 1 5.07.03c1.87 1 3.76 3.68 2.84 5.62l-1.24 2.59.38-.32c2.38-1.95 6.5-.75 7.18 1.86.51 2-.35 4.36-1.47 6.19l-.42.69-.22.67c-1.5 4.67-4.45 11.82-8.85 16.9-2.04 2.36-4.4 4.7-6.26 7.24s-2.31 5.34-3.21 8.37l-.4 1.34c-4.8-1.77-18.27-6.8-25.44-10.22l.26-.72c.7-3.25 1.48-7.48 1.02-10.24a70 70 0 0 0-3.11-9.12 17 17 0 0 1-1.3-7.63c.32-2.97 1.1-7.2 3.3-10.3a6 6 0 0 1 1.6-1.52l.23-.14c2.63-1.6 6.08-1.62 9.06-1.49l.25-1.26c.1-.53.32-1.47.63-2.7" class="b"/><path d="M246.25 218.85c-3.29-1.21-20.92-7.7-28.17-11.41-.82 1.65-2.56 5.71-3.62 7.9l-.46.92c8.58 4.37 20.3 9.63 29 12.1.25-.6.42-1.05.44-1.11.93-2.75 2.76-7.5 3.12-8.29Z" class="b"/><path d="M245.76 227.88q.92-2.33 1.77-4.69l.74-2.04.33-.88c.07-.18.39-.93.02-.1a2.45 2.45 0 0 0-1.43-3.53q-6.08-2.24-12.13-4.57a171 171 0 0 1-15.77-6.71 2.43 2.43 0 0 0-3.28.86c-1.28 2.6-2.36 5.3-3.62 7.9a2.47 2.47 0 0 0 .86 3.29 2.4 2.4 0 0 0 3.28-.87c1.26-2.6 2.34-5.3 3.63-7.9l-3.29.87c5.36 2.72 11.03 4.89 16.62 7.07q6.19 2.41 12.42 4.7l-1.43-3.53c-1.26 2.89-2.17 5.93-3.35 8.85a2.4 2.4 0 0 0 1.67 2.96 2.46 2.46 0 0 0 2.95-1.68ZM75.85 180.94a94 94 0 0 0 25.2 3.4c8.14-.13 16.76-1.1 24.39-4.1a2.47 2.47 0 0 0 1.68-2.95 2.4 2.4 0 0 0-2.96-1.67c-7.26 2.84-15.35 3.8-23.11 3.92a89 89 0 0 1-23.92-3.23c-2.99-.8-4.26 3.83-1.28 4.63m13.74 79.88a6 6 0 0 1 .73.78l-.37-.48a5 5 0 0 1 .6 1.01l-.24-.57a5 5 0 0 1 .34 1.22l-.09-.64a5 5 0 0 1 0 1.36l.09-.64a6 6 0 0 1-.4 1.44l.24-.57a5 5 0 0 1-.57 1.01l.37-.48a4 4 0 0 1-.75.75l.48-.38a5 5 0 0 1-1.07.62l.57-.24a6 6 0 0 1-1.4.37l.64-.08a6 6 0 0 1-1.64 0l.64.08a6 6 0 0 1-1.34-.36l.57.25a5 5 0 0 1-.91-.53l.48.38a5 5 0 0 1-.89-.89l.38.49a5 5 0 0 1-.6-1.02l.24.57a4 4 0 0 1-.25-.96l.08.64a5 5 0 0 1 0-1.17l-.09.64a6 6 0 0 1 .4-1.42l-.24.57a7 7 0 0 1 .93-1.55l-.38.49a5 5 0 0 1 .72-.74l-.49.38a5 5 0 0 1 .98-.58l-.57.25a6 6 0 0 1 1.44-.4l-.64.1a6 6 0 0 1 1.42 0l-.63-.1a5 5 0 0 1 1.16.32l-.57-.24a4 4 0 0 1 .96.55l-.49-.37za2.6 2.6 0 0 0 1.7.7 2.4 2.4 0 0 0 1.7-4.1 7 7 0 0 0-4.59-1.75 7.5 7.5 0 0 0-4.18 1.14 8 8 0 0 0-3.36 8.07 7 7 0 0 0 2.86 4.06 7.8 7.8 0 0 0 10.76-2.45 8 8 0 0 0 .9-4.17 7.4 7.4 0 0 0-2.4-4.9 2.4 2.4 0 0 0-3.4 3.4Zm12.53 63.04c2-18.37 4.23-36.68 5.06-55.14a45 45 0 0 0-.28-8.38 41 41 0 0 0-2.5-8.67 2.47 2.47 0 0 0-2.96-1.68 2.4 2.4 0 0 0-1.68 2.95 43 43 0 0 1 2.35 7.62 34 34 0 0 1 .3 7.15c-.18 4.97-.53 9.94-.88 14.9-.61 8.9-1.6 17.78-2.58 26.65l-1.63 14.6a2.4 2.4 0 0 0 2.4 2.4 2.46 2.46 0 0 0 2.4-2.4m38.64-159.93c6.08 3.23 12.58 5.58 19 8.02a183 183 0 0 1 9.14 3.67c1.44.64 2.85 1.35 4.3 1.95 1.34.56 2.74 1.01 4.05 1.66 5.59 2.76 7.56 10.03 9.43 15.45 2.05 5.9 3.77 11.92 5.5 17.93 2.01 7.03 4.2 14 6.8 20.83a2.47 2.47 0 0 0 2.95 1.68 2.4 2.4 0 0 0 1.68-2.96c-4.64-12.14-7.59-24.8-11.73-37.1-2.12-6.28-4.2-13.77-9.5-18.21-2.45-2.06-5.53-2.8-8.37-4.13a154 154 0 0 0-9.27-3.97c-7.24-2.84-14.67-5.3-21.56-8.96-2.72-1.45-5.15 2.69-2.42 4.14M4.8 323.86c1.45-28.63 2.77-57.3 5.2-85.86.84-9.93 1.8-19.94 3.33-29.55.55-3.46 1.18-6.91 2.03-10.3a61 61 0 0 1 2.02-6.51c.92-2.47 2.09-5.31 4.17-7.05 2.53-2.11 6.04-3.1 9.01-4.43 3.3-1.47 6.53-3.1 9.78-4.65 6.66-3.16 13.37-6.29 19.7-10.07 2.65-1.59.24-5.74-2.42-4.15-5.72 3.42-11.76 6.3-17.77 9.16l-9 4.28c-2.9 1.4-5.94 2.53-8.83 3.97a15.5 15.5 0 0 0-6.63 5.94 41 41 0 0 0-3.83 9.26 85 85 0 0 0-2.3 9.93c-1.7 9.54-2.7 19.2-3.59 28.84-1.2 13-2.06 26.02-2.85 39.04A5059 5059 0 0 0 0 323.86c-.16 3.09 4.64 3.08 4.8 0" class="c"/><path d="M130.78 155.89c-3.06 12.37-7.1 24.49-11.32 36.5-4.2 11.96-8.54 23.88-12.87 35.79q-3.63 9.96-7.22 19.93a2.4 2.4 0 0 0 1.68 2.95 2.45 2.45 0 0 0 2.95-1.67c8.6-23.95 17.8-47.74 25.58-71.97a309 309 0 0 0 5.83-20.25c.74-3-3.89-4.28-4.63-1.28" class="c"/><path d="M118.86 244.57q9.05-12.94 17.49-26.3 4.26-6.76 8.36-13.62c2.67-4.47 5.45-8.93 7.86-13.55a4.5 4.5 0 0 0 .18-4.32 14 14 0 0 0-2.82-3.17q-3.2-3.12-6.55-6.08l-.49 3.77c1.98-1.18 3.93-2.4 5.95-3.51 1.97-1.08 4.77-1.98 4.05-4.85a16 16 0 0 0-2.85-4.99 40 40 0 0 0-3.7-4.4 75 75 0 0 0-12.05-9.54c-2.56-1.74-4.96 2.42-2.42 4.15l2.9 1.96a38 38 0 0 1 3.43 2.52 53 53 0 0 1 5.84 5.47 28 28 0 0 1 2.31 2.9q.5.73.95 1.49.26.42.5.85c.05.1.38.83.38.62l.33-1.21-.17.26.87-.86a42 42 0 0 1-4.2 2.28c-1.53.88-3.02 1.81-4.54 2.7a2.42 2.42 0 0 0-.48 3.78q2.71 2.43 5.36 4.94 1.27 1.22 2.5 2.47c.06.06.52.63.65.67-.08-.02.02-.5 0-.47q-.4.78-.87 1.54-3.7 6.53-7.56 12.97-7.6 12.7-15.79 25.05-4.7 7.09-9.57 14.05a2.4 2.4 0 0 0 .86 3.28 2.45 2.45 0 0 0 3.29-.86Zm-81.3 79.3c.76-10.14 1.8-20.25 2.67-30.37.34-3.98.7-7.97.87-11.97a55 55 0 0 0-.43-8.48c-1.98-17.45-5.83-34.6-8.59-51.93-.93-5.9-1.82-11.8-2.8-17.68a93 93 0 0 0-2.42-11.92c-.9-2.94-5.53-1.69-4.62 1.28a82 82 0 0 1 2.11 10.16c.88 5.1 1.66 10.23 2.46 15.35 1.41 9 3.05 17.95 4.68 26.91a494 494 0 0 1 4.07 25.29 69 69 0 0 1 .79 9.22c-.03 3.5-.36 7.01-.65 10.5-.91 11.22-2.1 22.4-2.93 33.63a2.4 2.4 0 0 0 4.8 0m137.76-132.94c-2.49 18.43-4.85 36.83-8.18 55.12a506 506 0 0 0-4.2 25.63 57 57 0 0 0-.66 8.71c.09 3.55.4 7.1.7 10.64.9 10.95 2.06 21.88 2.87 32.83a2.46 2.46 0 0 0 2.4 2.4 2.4 2.4 0 0 0 2.4-2.4c-.72-9.8-1.72-19.56-2.57-29.34-.59-6.7-1.39-13.42-.66-20.12.86-7.93 2.4-16.21 3.85-24.28 1.6-8.87 3.18-17.73 4.49-26.65q1.34-9.28 2.55-18.58l.95-7.42.4-3.16.19-1.35.1-.75a2.5 2.5 0 0 0-1.68-2.95 2.4 2.4 0 0 0-2.95 1.67M65.91 157.1c8.37 24.91 16.84 49.78 25.98 74.43q4 10.7 7.87 21.44a2.46 2.46 0 0 0 2.95 1.68 2.4 2.4 0 0 0 1.68-2.95c-4.58-12.77-9.42-25.44-14.03-38.2a1939 1939 0 0 1-12.9-37.15l-6.91-20.55c-.97-2.91-5.61-1.66-4.62 1.28Z" class="c"/><path d="M86.62 242.67q-17.06-24.37-31.86-50.2l-1.06-1.87-.47-.82c-.06-.11-.42-.93-.38-.6 0 .06.04.3-.02.35.34-.3.66-.68.98-1l1.33-1.32a205 205 0 0 1 6.2-5.76 2.42 2.42 0 0 0-.48-3.77q-2.25-1.37-4.53-2.7a42 42 0 0 1-4.2-2.29l.86.86-.16-.26.32 1.21c0 .18.25-.37.3-.45l.47-.86q.5-.86 1.04-1.68a31 31 0 0 1 2.26-3 48 48 0 0 1 5.76-5.63 34 34 0 0 1 3.42-2.55l2.9-1.96c2.54-1.72.14-5.88-2.43-4.14a67 67 0 0 0-11.97 9.68 42 42 0 0 0-3.63 4.52 18 18 0 0 0-2.82 5.04c-.74 2.77 1.93 3.7 3.84 4.74 2.1 1.13 4.1 2.4 6.15 3.61l-.48-3.76a212 212 0 0 0-5.88 5.43c-1.73 1.67-4.15 3.48-3.98 6.15a8 8 0 0 0 1.45 3.39l2.13 3.72q1.9 3.3 3.85 6.58 8.1 13.66 16.85 26.92 4.94 7.5 10.1 14.84a2.47 2.47 0 0 0 3.28.87 2.4 2.4 0 0 0 .86-3.29m109.72 13.94c6.12-13.55 11.71-27.32 17.32-41.09l-3.52 1.44q8.61 4.53 17.58 8.33a103 103 0 0 0 17.78 6.17l-1.67-2.95c-2.95 9.43-5.78 18.88-9 28.22-3.02 8.74-6.16 17.68-10.7 25.77-3.55 6.35-8.47 12.44-15.53 14.98a27.1 27.1 0 0 1-23.79-2.65c-3.78-2.42-6.89-5.83-9.8-9.2s-5.64-6.92-8.4-10.41a2.4 2.4 0 0 0-3.4 0 2.46 2.46 0 0 0 0 3.39c5.24 6.62 10.31 13.74 17.09 18.9a31.7 31.7 0 0 0 25.7 5.67c18.69-3.87 25.9-24.24 31.65-40.07 3.99-10.98 7.32-22.17 10.8-33.32a2.4 2.4 0 0 0-1.67-2.95 98 98 0 0 1-17-5.84q-8.77-3.73-17.21-8.18a2.45 2.45 0 0 0-3.53 1.43c-5.45 13.38-10.9 26.76-16.84 39.94a2.47 2.47 0 0 0 .86 3.28 2.4 2.4 0 0 0 3.28-.86m36.88-90.21c.64-3.18 1.57-6.32 2.44-9.45q1.96-7.12 4.22-14.15.9-2.86 1.97-5.65l.23-.58c.18-.45-.03.08.02-.03l.4-.9.35-.64.14-.22-.02.03c-.2.26.18-.21.22-.25.76-.83 1.25-1.33 2.36-1.12a2.5 2.5 0 0 1 1.34.64 2 2 0 0 1 .23 1.11 25 25 0 0 1-.99 5.69q-2.3 9.71-4.94 19.35c-.82 2.98 3.8 4.25 4.63 1.27q2.57-9.37 4.82-18.84a36 36 0 0 0 1.28-7 6.6 6.6 0 0 0-6.77-7.07c-5.2-.08-7.2 5.15-8.63 9.19a238 238 0 0 0-4.57 14.64c-1.2 4.2-2.5 8.42-3.36 12.7a2.46 2.46 0 0 0 1.68 2.96 2.4 2.4 0 0 0 2.95-1.68m28.23 17.51c-1.75 5.37-4.13 10.84-7.72 15.24-2.23 2.72-4.78 5.15-6.88 7.97-2.06 2.76-2.78 6.06-3.73 9.3-.87 2.97 3.76 4.24 4.63 1.28.9-3.07 1.52-6.02 3.57-8.56 2.22-2.76 4.79-5.2 6.92-8.02a54 54 0 0 0 7.84-15.93c.95-2.95-3.68-4.2-4.63-1.28" class="c"/><path d="M232.7 184.29a23 23 0 0 1 .6-2.68 13 13 0 0 1 .64-2.48c.5-.97 1.94-.95 2.92-1.09a5.75 5.75 0 0 0 5.81-6.17 7.8 7.8 0 0 0-1.8-4.75 7 7 0 0 0-4.14-1.92 39 39 0 0 0-10.63-.46c-3.27.37-6.43 1.43-8.4 4.22a24 24 0 0 0-3.14 17.1 15 15 0 0 0 1.23 3.46c.06.11.25.58.02.01a31 31 0 0 1 .74 1.96q.65 1.82 1.25 3.66a15 15 0 0 0 .71 2.42c.2.35-.05-.62-.04-.35.03.46.12.9.13 1.37a20 20 0 0 1-.1 2.73 49 49 0 0 1-.96 5.5c-.65 3.02 3.98 4.3 4.63 1.28a42 42 0 0 0 1.24-9.14 17 17 0 0 0-.17-2.05c.1.73-.06-.45-.12-.73-.16-.7-.4-1.38-.62-2.06a87 87 0 0 0-1.92-5.49 20 20 0 0 1-1.64-5.24 18 18 0 0 1 .54-6.45c.56-2.32 1.4-5.36 3.67-6.55a7 7 0 0 1 1.7-.6q.56-.14 1.1-.23c.99-.17-.8.04.61-.07a37 37 0 0 1 4.97-.02 37 37 0 0 1 3.92.36 6 6 0 0 1 1.76.43c.11.07.28.28.13.08a4 4 0 0 1 .45 1.06 2 2 0 0 1-.25 1.53c-.59 1.09-.26.35-.19.28.35-.33.09-.1-.25-.03a28 28 0 0 0-4.15.82 6 6 0 0 0-3.53 3.54 28 28 0 0 0-1.35 5.47 2.5 2.5 0 0 0 1.68 2.95 2.4 2.4 0 0 0 2.95-1.67m17.54-.73c-.8 2.8 1.19 6.24 3.71 7.49a8.2 8.2 0 0 0 8.86-1.6 19 19 0 0 0 2.77-3.61 23 23 0 0 0 2.15-4.06c1.07-2.78 1.05-6.3-1.45-8.31a7.6 7.6 0 0 0-4.6-1.7 7 7 0 0 0-4.68 1.67 2.4 2.4 0 0 0 0 3.4 2.47 2.47 0 0 0 3.4 0c-.38.3-.04.06.15-.06.48-.3-.26.04.12-.06.07-.01.6-.21.65-.16.02.03-.5.02-.22.03l.42-.02c.14 0 .69-.04.35 0-.32.05-.04 0 .1.03l.24.05c.1.03.57.11.62.2.02.03-.43-.24-.2-.08l.36.2.26.17c0 .03-.36-.33-.17-.14l.38.38c.32.31-.12-.1-.1-.13l.16.26c.06.08.09.28 0-.02-.1-.38.01.06.03.14l.1.42c-.02-.06 0-.36-.04-.1s0 .51 0 .77c-.03.47-.02.12 0 .02a9 9 0 0 1-.84 2.45q-.4.73-.84 1.43l-.79 1.25q-.24.37-.5.73c-.07.1-.55.74-.28.4a10 10 0 0 1-.95 1.05l-.28.25c.07-.06.41-.27.04-.04l-.7.38c.43-.2-.12.03-.28.08l-.7.16c-.46.1-.06 0 .03 0l-.4.02a6 6 0 0 1-.79-.03c.7.08-.27-.03-.26-.1 0-.1.5.28.17.07l-.33-.2c-.25-.13.18.12.15.12-.07-.01-.26-.24-.32-.3l-.24-.27c-.1-.1-.29-.44-.03-.01l-.4-.63-.16-.33c.09.15.12.35.05.07l-.1-.33c-.14-.4-.06.29 0 .07l-.01-.24c-.03-.5-.12.5.01.04a2.4 2.4 0 0 0-4.62-1.27" class="c"/><path d="m252.6 169.56.34-.35c-.04.04-.22.17 0 .03l.32-.18c-.1.05-.34.16.12 0 0 0 .4-.1.17-.06s.17-.01.18-.01c.16 0 .9.03.64 0a3.3 3.3 0 0 1 2.47 1.5 3 3 0 0 1 .49.96l.09.38c-.04-.4-.03.07-.04.1.01-.03.1-.33-.02-.05-.17.4.28-.49-.13.26-.68 1.25-1.33 2.5-2.1 3.7-1.16 1.83-2.47 3.6-3.7 5.4q-.43.63-.9 1.28l-.27.37c-.01.02-.24.31-.08.11l-.4.48-.44.45c-.29.3-.23.06.04 0a2 2 0 0 0-.49.27c-.06.02-.63.17-.86.21-.28.06-.1.02-.04.02q-.28.03-.55.02l-.54-.02c.25.04-.05-.03-.13-.04-.05-.01-.44-.16-.13-.02l-.37-.22-.08-.06c.23.2-.2-.2-.23-.24-.01-.01-.25-.28-.1-.1s-.21-.34-.2-.33-.19-.35-.1-.15c.07.16-.08-.25-.1-.3a1.4 1.4 0 0 1-.1-.7 3 3 0 0 1 .17-1.06c.82-2.99-3.8-4.26-4.63-1.28-1 3.68.7 8.18 4.72 9.12a8.6 8.6 0 0 0 5.87-.8 10 10 0 0 0 2.92-2.93c.84-1.13 1.61-2.31 2.4-3.49.8-1.2 1.7-2.35 2.48-3.57a22 22 0 0 0 2.7-5.1c.62-2.08-.3-4.24-1.58-5.85-2.6-3.25-8.14-4.52-11.2-1.15a2.45 2.45 0 0 0 0 3.4 2.4 2.4 0 0 0 3.39 0" class="c"/><path d="M233.5 176.3c-.2 4.05 2.9 7.9 7.15 7.7 4.46-.22 6.63-5.4 8.7-8.63 1.16-1.8 2.35-3.6 3.34-5.5a13 13 0 0 0 1.86-5.6c.1-4.59-5.07-7.3-9.1-6.38-2.3.53-3.85 2.12-5.25 3.89a55 55 0 0 0-3.57 4.94c-1.64 2.63 2.52 5.04 4.15 2.43a27 27 0 0 1 4.45-5.88 3 3 0 0 1 2.91-.67 3 3 0 0 1 1.25.82c.23.26.08.06.23.36.24.45.08.17.05.08l.11.43c-.1-.58-.04-.02-.03-.01l.02-.12a9 9 0 0 1-.22.9 10 10 0 0 1-.66 1.7 42 42 0 0 1-2.4 4.18l-2.84 4.45a16 16 0 0 1-2.28 3.26 2 2 0 0 1-1 .56l-.36-.02c.46.06-.05-.04-.14-.07l-.33-.1c.37.14-.1-.07-.16-.11a2 2 0 0 1-.83-.86 4 4 0 0 1-.25-1.75 2.4 2.4 0 0 0-4.8 0" class="c"/></svg>
