<svg xmlns="http://www.w3.org/2000/svg" viewBox="0 -2.24 289.91 289.91"><defs><style>.a{fill:#fff}.d{fill:#211715}</style></defs><path d="M196.95 124.85c-1.22-.23-5.88-1.21-10.4-2.17a62 62 0 0 1-10.11 5.6A69 69 0 0 1 162 132.1a52 52 0 0 1-5.19.35 40 40 0 0 1-13.2-1.82 203 203 0 0 0 2.17 17.56 63 63 0 0 0 30.77 2.06 64 64 0 0 0 22.08-6.84 215 215 0 0 0 5.55-18.33 42 42 0 0 1-6.94-.19z" class="a"/><path d="M167.56 219.91a207 207 0 0 1-8.22-19.74 331 331 0 0 1-13.55-51.98 63 63 0 0 0 30.76 2.07 64 64 0 0 0 22.08-6.84q-1.57 4.58-3.06 9.03c-6.86 20.95-21.4 56.26-26.23 67.01Z" style="fill:#7abee6"/><path d="M196.82 148.72q-.64 1.87-1.25 3.73c-7.43 22.7-23.88 62.25-27.22 69.16a219 219 0 0 1-9.01-21.44c-3.84-11.08-13.06-39.38-15.55-67.48-9.4 2-25.11 7.59-31.51 14.8-6.92 7.8-9.63 18.7-12 25.4-2.63 7.48-7.16 28.34-9.16 44.02-1.98 15.4-1.99 24.23.18 34.47 1.08 5.11 5.32 12.65 12.12 15.73 6.53 2.95 13.96 3.42 20.17.61l.57 2.08a18 18 0 0 0 17.33 13.24H274.7a32.6 32.6 0 0 0 11.34-16.86c.99-3.15 1.58-10.95 1.48-14.43-.12-4.35-2.07-16.1-3.12-21.88-1.9-11.13-4.61-20.86-7.21-30.47-2.52-9.33-8.15-32.27-17.06-45.13-9.82-14.16-24.15-20.53-41.41-25.57l-10.84-5.15-3.02-1.43c-2.11 9.71-5.23 18.3-8.04 26.6" style="fill:#b3b3b3"/><path d="M133.67 133c-6.62 2.23-13.4 4.98-19.02 9.2-5.37 4-8.94 9.7-11.56 15.8a170 170 0 0 0-9.46 30.96c-2.94 13.5-5.42 27.31-6.2 41.14a84 84 0 0 0 .78 17.73 35 35 0 0 0 1.83 7.58 30 30 0 0 0 4.65 7.84c7.97 9.66 24.11 11.77 34.13 4.12a23 23 0 0 0 3.66-3.47 2.46 2.46 0 0 0 0-3.4 2.4 2.4 0 0 0-3.4 0 18.6 18.6 0 0 1-14.52 6.7c-5.45 0-11.15-1.84-15.04-5.76-3.7-3.74-5.54-8.35-6.44-13.45a75 75 0 0 1-.96-15.83c.5-13.01 2.8-26.02 5.46-38.75a215 215 0 0 1 8-28.72c2.2-6.16 5.08-12.7 10.04-17.15 5.34-4.8 12.6-7.65 19.32-9.91 2.91-.98 1.66-5.62-1.28-4.63Zm82.57 5.05a33 33 0 0 1 2.93 5.14 13 13 0 0 1 1.27 3.48v-1.27q.98-1.37.5-.92.58-.44.28-.22l-.45.28q-.56.33-1.15.63-1.83.96-3.68 1.86l-7.4 3.56a2.42 2.42 0 0 0-.49 3.77q2.78 2.96 5.5 5.96c.93 1.02 1.88 2.04 2.76 3.12a1.8 1.8 0 0 1 .5 2.09 46 46 0 0 1-2.45 4.3q-1.48 2.54-3 5.05-7.5 12.47-15.55 24.6-4.82 7.3-9.84 14.45a2.4 2.4 0 0 0 .86 3.29 2.45 2.45 0 0 0 3.28-.86 640 640 0 0 0 17.93-26.97q3.89-6.15 7.64-12.38 1.58-2.63 3.12-5.28a26 26 0 0 0 2.71-5.08c1.05-3.47-1.23-5.98-3.36-8.38-2.19-2.48-4.46-4.88-6.7-7.31l-.5 3.77c4.01-1.95 8.16-3.71 12.03-5.93a5 5 0 0 0 1.81-1.5c.63-1.06.24-2.29-.14-3.36a35 35 0 0 0-4.26-8.32 2.47 2.47 0 0 0-3.29-.86 2.4 2.4 0 0 0-.86 3.28Zm-74.72-3.94a261 261 0 0 0 7.7 41.14 324 324 0 0 0 8.49 27.5c2.27 6.25 5 12.33 7.78 18.37a2.4 2.4 0 0 0 3.28.86 2.46 2.46 0 0 0 .86-3.28 238 238 0 0 1-10.68-27.28 331 331 0 0 1-8.97-33.77 224 224 0 0 1-3.66-23.54 2.47 2.47 0 0 0-2.4-2.4 2.4 2.4 0 0 0-2.4 2.4" class="d"/><path d="M276.4 284.74a35.8 35.8 0 0 0 12.08-18.33 50 50 0 0 0 1.3-9.73 46 46 0 0 0-.07-7.79 290 290 0 0 0-8.9-45.3c-3.43-12.72-6.65-25.53-11.81-37.68a66 66 0 0 0-10.85-18.05 59 59 0 0 0-16.76-12.98 114 114 0 0 0-20.89-8.15c-.12-.04-1.07-.27-.6-.1l-.12-.07q-.4-.17-.78-.37l-2.71-1.29-6.05-2.87-1.15-.54a2.47 2.47 0 0 0-3.28.86 2.4 2.4 0 0 0 .86 3.28l9.77 4.64a56 56 0 0 0 6.91 2.37c3.34 1.08 6.66 2.25 9.88 3.64a62 62 0 0 1 17.35 10.73 53 53 0 0 1 11.86 16.06c5.62 11.33 8.89 23.7 12.14 35.87 2.11 7.91 4.3 15.8 6.01 23.81a323 323 0 0 1 3.66 20.98c1.64 11.4 1.38 24-6.58 33.17a37 37 0 0 1-4.67 4.45 2.4 2.4 0 0 0 0 3.4 2.46 2.46 0 0 0 3.4 0ZM152.3 152.4a72 72 0 0 0 24.93.17 71 71 0 0 0 22.6-7.08c2.74-1.43.32-5.58-2.42-4.14a62 62 0 0 1-20.63 6.47 87 87 0 0 1-11.6 1.05 60 60 0 0 1-11.6-1.1 2.46 2.46 0 0 0-2.95 1.68 2.4 2.4 0 0 0 1.67 2.95" class="d"/><path d="M129.93 174.17a105 105 0 0 1-4.57-13.13c-.64-2.35-.73-4.1-2.63-5.38-1.64-1.11-4.43-1.2-5.88.35a10.3 10.3 0 0 0-2.58 5.8 14 14 0 0 0-.05 3.6l-3.58-12.25a4.3 4.3 0 0 0-1.07-3.32 3.4 3.4 0 0 0-1.54-.9 10 10 0 0 0-7.56 2.75 16 16 0 0 0-4.22 7.02l-1 3.28-2.71 10.66c.08 5.03-.2 8.65-.12 13.68a19 19 0 0 0 1.68 7.1 21 21 0 0 0 6.33 7.41c2.49 1.84 2.33 5.04 1.5 8.02q-.2.71-.46 1.48a6.3 6.3 0 0 0 1.73 6.82c3.94 3.53 8.56 4.03 14.21 3.3a31 31 0 0 0 5.98-1.17 8.3 8.3 0 0 0 4.56-5.49c.66-2.09.52-4.1.7-6.55.22-3.28 0-5.45 1.23-8.5.81-2.02 2.04-3.86 2.78-5.91 2.2-6.1-.28-12.78-2.73-18.78" class="a"/><path d="M202.23 122.92c-2 8.59-4.92 16.89-7.75 25.23-2.1 6.17-4.17 12.35-6.42 18.46a1030 1030 0 0 1-20.79 51.64 2.47 2.47 0 0 0 .86 3.28 2.4 2.4 0 0 0 3.29-.86 777 777 0 0 0 12.6-30.25 674 674 0 0 0 14.08-37.94c3.1-9.38 6.52-18.65 8.77-28.28.7-3.01-3.93-4.3-4.63-1.28Zm-112.1 49.73c.13 8.21-1.58 17.11 3.3 24.33a22 22 0 0 0 3.77 4.32c1.2 1.05 2.67 1.74 2.86 3.46.2 1.85-.53 3.57-1.02 5.3a9 9 0 0 0 .64 6.37c1.7 3.43 5.9 5.64 9.52 6.33a33 33 0 0 0 12.06-.45 10.3 10.3 0 0 0 8.72-7.05c1.53-3.93.84-8.41 1.32-12.53a19 19 0 0 1 2.37-6.29 19 19 0 0 0 2.2-7.49c.39-5.37-1.63-10.64-3.62-15.52a2.5 2.5 0 0 0-2.96-1.68 2.4 2.4 0 0 0-1.67 2.95c1.59 3.9 3.3 8.01 3.47 12.27a13 13 0 0 1-.94 5.76c-.81 1.9-1.92 3.66-2.67 5.6-1.39 3.6-1.18 7.72-1.36 11.52-.13 2.87-1.06 6.44-3.97 7.33a29 29 0 0 1-10.36 1.12c-2.7-.2-6.42-1.4-7.8-3.96-.85-1.57-.32-2.9.15-4.48a15 15 0 0 0 .7-5.26 7.8 7.8 0 0 0-2.16-4.99c-1.25-1.24-2.74-2.17-3.92-3.51a15.4 15.4 0 0 1-3.93-9.51c-.22-4.64.17-9.3.1-13.94-.04-3.08-4.84-3.1-4.8 0" class="d"/><path d="M96.04 178.01a62 62 0 0 1 14.97-1.33c2.01.01 3.71.21 4.89 1.62.65.78 1.42 1.9.97 2.86a3 3 0 0 1-1.13 1.05q-1.07.7-2.1 1.5a2.4 2.4 0 0 0 0 3.4 2.46 2.46 0 0 0 3.4 0 23 23 0 0 0 3.2-2.45 6.3 6.3 0 0 0 1.45-5.13 9.5 9.5 0 0 0-4.83-6.5 14 14 0 0 0-6.45-1.15q-3.5.04-7 .3a53 53 0 0 0-8.66 1.2c-3 .75-1.72 5.38 1.28 4.63Z" class="d"/><path d="M102.14 188.08c2.26-.6 4.5-1.33 6.8-1.71l.46-.07c-.05 0-.36.03-.07.01l.79-.07a13 13 0 0 1 1.69.01l.45.04c.28.03-.03 0-.08 0l.64.13c.48.06-.4-.2-.07-.04l.21.13c-.06.01-.42-.4-.2-.16l.3.31c.16.14-.19-.21-.18-.24l.14.22.21.4c.13.19-.1-.26-.1-.27l.11.33.13.47c.03.12.1.65.06.25s0 .14.01.26q.03.3.01.58l-.02.51c-.04.55.09-.4 0 .01-.08.34-.21.68-.28 1.02-.05.23.1-.25.11-.26l-.11.25-.23.39c-.25.42.3-.28.02-.04-.21.18-.4.42-.6.63q-.55.54-1.14 1.04l-.29.24c.14-.12.28-.21.05-.05l-.59.43q-1.44 1-2.92 1.94a2.4 2.4 0 1 0 2.42 4.14 38 38 0 0 0 5.65-4.14 8 8 0 0 0 1.88-2.4 9 9 0 0 0 .84-3.27 8 8 0 0 0-1.66-5.69c-1.54-1.87-4.2-2.1-6.46-1.97a47 47 0 0 0-9.25 2.01 2.4 2.4 0 1 0 1.28 4.63Zm10.9-34.92c-.02-2.47-.87-4.82-3.15-6.05-2.33-1.27-5.43-.46-7.7.57-4.24 1.93-6.94 6.17-8.28 10.49l-.97 3.18a2.4 2.4 0 0 0 1.67 2.96 2.45 2.45 0 0 0 2.96-1.68q.45-1.54.94-3.1a15 15 0 0 1 .83-2.18 17 17 0 0 1 .84-1.55l.4-.63.3-.4.09-.11a14 14 0 0 1 1.2-1.27c.07-.07.71-.59.48-.42q.3-.23.63-.43.43-.27.88-.5l.45-.21q-.22.09 0 0a9 9 0 0 1 1.81-.5c-.4.07.34-.02.36-.02h1c-.01.03-.91-.27-.23-.01l.26.16q-.33-.28-.05-.04l.26.27q-.23-.3 0 .02c.3.44-.06-.36.08.15.03.12.15.93.1.37q.04.47.04.93a2.4 2.4 0 0 0 4.8 0" class="d"/><path d="M124.58 117.04c-7.5-2.87-12.74-7.17-15.8-13.49-3.87-8.1-3.13-16.93-.98-25.65a735 735 0 0 1 8.68-32.27c4.63-15.26 8.35-23.28 16.6-31 7.34-6.16 22.32-13.23 39.8-12.1a64 64 0 0 1 25.07 6.5l1.25.82 5.79 3.79c9.15 4.89 14.68 14.6 17.24 20.82 3.43 8.32 3.66 20.34 5.05 29.79 1.65 11.22 3.63 18.95 4.74 28.39a29.8 29.8 0 0 1-5.22 20.18c-6.15 8.84-16.17 13.53-29.56 12.08Z" style="fill:#85807f"/><path d="M176.44 128.27a69 69 0 0 1-14.44 3.84 52 52 0 0 1-5.19.35c-11.1.22-20.04-3.31-28.17-10.96-7.75-7.3-10.6-18.15-11.07-29.97-.29-7.16-.43-14.97-.95-22.76a183 183 0 0 0 25.72-9.37c14.27-6.45 20.64-11.42 29.6-21.06 6.4 8.18 15.93 23.07 20.86 35.36l1.44 1.96 15.1 3.66a7.5 7.5 0 0 1 5.46-.81c3.65.82 4.86 3 5.32 4.24 1.38 3.7.14 9.78-1.92 13.3a19.5 19.5 0 0 1-7.97 8.17 14 14 0 0 1-7.78 1.05l-.65 1.14a61 61 0 0 1-3.18 4.65 62 62 0 0 1-7.53 8.2 60 60 0 0 1-14.65 9.02" class="a"/><path d="M163.19 84.87c-.48-2.44.56-7.82 5.08-7.82 5.92.65 5.55 7.26 3.23 10.14-1.9 2.36-6.8 2.91-8.31-2.32m-35.25-2.56c-.43-2.44.56-7.85 4.7-7.87 5.42.61 5.04 7.24 2.9 10.15-1.75 2.38-6.25 2.96-7.6-2.28m17.8 6.92a51 51 0 0 0-2.44 3.81 5 5 0 0 0-.75 2.25 3.3 3.3 0 0 0 1.1 2.58 5 5 0 0 0 1.95 1.15c.28.09.58.11.87.17a2.5 2.5 0 0 0 1.85-.24 2.4 2.4 0 0 0-.58-4.38 6 6 0 0 1-1.08-.26l.58.25a3 3 0 0 1-.45-.26l.5.37a4 4 0 0 1-.48-.45l.38.48-.1-.15.24.58-.07-.25.08.63.01-.27-.08.64a2 2 0 0 1 .14-.46l-.24.57a18 18 0 0 1 1.35-2.29q.66-1.03 1.36-2.05a2.4 2.4 0 0 0-2.71-3.52 2.7 2.7 0 0 0-1.44 1.1Zm64.82-7.84a5.9 5.9 0 0 1 6.02.43l.38.34.34.36.34.55c.05.08.3.6.17.3s.11.34.15.45a8 8 0 0 1 .25 1.1 13 13 0 0 1-.1 4.1c-.9 5.34-4.24 10.82-9.26 13.2.43-.2-.21.08-.36.13q-.45.16-.92.27a12 12 0 0 1-1.9.35 8 8 0 0 1-4.54-.67c-2.7-1.49-5.13 2.66-2.42 4.15 3.34 1.83 7.64 1.73 11.17.49a19 19 0 0 0 8.79-7.15 23 23 0 0 0 4.13-9.88c.52-3.36.56-7.23-1.56-10.1a10.34 10.34 0 0 0-13.1-2.57c-2.69 1.53-.27 5.68 2.42 4.15" class="d"/><path d="M177.65 130.35c10.75-4.7 20.29-12.5 26.22-22.73 1.55-2.68-2.6-5.1-4.15-2.42a46 46 0 0 1-4.17 5.87 54 54 0 0 1-6.38 6.67l-.65.54-.4.32c-.4.32.25-.19-.17.13q-1.55 1.18-3.18 2.26a62 62 0 0 1-9.54 5.21 2.4 2.4 0 0 0-.86 3.29 2.46 2.46 0 0 0 3.28.86" class="d"/><path d="M114.3 69.9c.5 8.16.42 16.37 1.04 24.53.52 6.84 1.88 13.68 5 19.84 6.11 12.08 19.38 19.67 32.66 20.51 8.27.52 16.39-1.29 24.08-4.2a2.47 2.47 0 0 0 1.68-2.95 2.4 2.4 0 0 0-2.95-1.67 56 56 0 0 1-20.01 4.11 35.6 35.6 0 0 1-17.49-4.36 34 34 0 0 1-13.04-12.4c-3.05-5.36-4.46-11.56-5.02-17.66-.8-8.54-.62-17.18-1.15-25.75-.18-3.07-4.99-3.09-4.8 0" class="d"/><path d="M170.25 36.64a81 81 0 0 1-15.99 13.81 128 128 0 0 1-23.38 11.12 228 228 0 0 1-13.77 4.55c-2.95.9-1.7 5.53 1.27 4.63a204 204 0 0 0 25.98-9.65 88 88 0 0 0 20.23-12.28 103 103 0 0 0 9.05-8.79c2.1-2.25-1.28-5.66-3.39-3.39" class="d"/><path d="M170.25 40.03a161 161 0 0 1 10.6 15.65 132 132 0 0 1 9.64 18.65 2.5 2.5 0 0 0 2.95 1.68 2.4 2.4 0 0 0 1.67-2.96 154 154 0 0 0-21.47-36.41 2.4 2.4 0 0 0-3.39 0 2.46 2.46 0 0 0 0 3.4" class="d"/><path d="M125.22 114.72c-5.05-1.95-9.81-5.01-12.81-9.62-3.61-5.55-4.41-12.16-3.76-18.62.7-6.82 2.86-13.57 4.58-20.18a556 556 0 0 1 5.45-19.64c3-9.97 6.43-20.18 13.65-27.9a38 38 0 0 1 11.35-8.04 59 59 0 0 1 16.66-5.24 61 61 0 0 1 22.1.7c5.29 1.1 11 2.76 15.56 5.74 2.6 1.7 5-2.46 2.42-4.14a36 36 0 0 0-6.23-3.03 61 61 0 0 0-8.4-2.73A68 68 0 0 0 164.38.2a64 64 0 0 0-19.32 4.67 49 49 0 0 0-13.67 8.06c-8.38 7.36-12.72 17.92-16.05 28.3a415 415 0 0 0-5.93 20.73c-1.85 6.98-4.01 14.03-5.12 21.18-1.26 8.1-.77 16.62 3.6 23.8 3.7 6.04 9.56 9.9 16.05 12.42a2.4 2.4 0 0 0 2.96-1.68 2.46 2.46 0 0 0-1.68-2.95Zm81.4-97.27c6.36 4.5 11.32 11.98 13.83 19.01 3.12 8.75 3.13 18.35 4.39 27.47 1.28 9.34 3.53 18.53 4.69 27.9a28 28 0 0 1-7.9 23.43c-6.5 6.43-15.55 8.15-24.39 7.24a2.4 2.4 0 0 0-2.4 2.4 2.45 2.45 0 0 0 2.4 2.4c8.94.93 18.06-.8 25.24-6.41a32.4 32.4 0 0 0 12.1-24.26c.16-4.75-.87-9.6-1.7-14.27-.88-5-1.87-9.97-2.7-14.98-1.6-9.83-1.62-20.05-4.3-29.68a45.5 45.5 0 0 0-16.84-24.4 2.4 2.4 0 0 0-3.28.86 2.45 2.45 0 0 0 .86 3.29" class="d"/><path d="M204.44 105.45a4.4 4.4 0 0 0-4.75 4.17c-.03 2.56 1.9 4.34 4.63 4.38 2.84.04 4.72-1.71 4.75-4.25a4.4 4.4 0 0 0-4.63-4.3" class="a"/><path d="M204.44 103.05a7.1 7.1 0 0 0-6.8 4.58 6.5 6.5 0 0 0-.07 4 6.7 6.7 0 0 0 2.54 3.49 7.9 7.9 0 0 0 7.93.42 6.6 6.6 0 0 0 3.3-7.07c-.53-3.3-3.74-5.34-6.9-5.42a2.4 2.4 0 0 0-2.4 2.4 2.45 2.45 0 0 0 2.4 2.4l.42.02c.4.02-.2-.01-.23-.03a5 5 0 0 0 .64.15l.37.12c-.46-.07-.43-.2-.23-.1l.63.37c.38.23-.36-.34-.15-.12l.22.2c.18.17.47.67.08.03l.31.48.13.26c.08.13-.22-.62-.05-.1.03.12.18.45.13.56-.01.02-.05-.68-.05-.29l.01.35v.25c-.02.26-.16.48.03-.16l-.15.62-.1.27c.17-.62.2-.41.09-.22q-.16.23-.28.47c-.14.25.42-.49.14-.18l-.15.16-.24.23c-.3.3.5-.33.14-.1l-.48.29c-.22.1-.47.1.15-.05l-.23.08-.59.16c-.24.05-.52-.02.13 0l-.4.03h-.68l-.26-.02c.55-.06.4.07.12.01l-.6-.15-.23-.08c-.39-.13.58.29.03 0-.11-.06-.44-.19-.49-.3 0-.01.5.42.22.17l-.25-.23c-.08-.08-.47-.54-.18-.18s.04.04 0-.03l-.17-.3c-.12-.23-.07-.43.05.16l-.07-.22-.14-.57c.2.58.05.44.03.16l-.01-.25v-.37c0-.43-.12.6-.02.18l.19-.66c-.1.52-.2.45-.11.26l.22-.4.13-.2c.22-.35-.43.46-.06.09l.47-.44c-.41.45-.31.23-.1.1l.31-.2.28-.13-.29.12.24-.08c.24-.08.54-.09.76-.19-.04.02-.63.05-.23.04l.56-.02a2.4 2.4 0 1 0 0-4.8Zm-56.28 8.6c.18-.23.54-.77.83-.87q-.36.27-.14.12l.2-.15.53-.3c.55-.28-.32.09.14-.07l.5-.17q.6-.17 1.2-.28c.5-.1-.48.04.07-.01l.52-.04a12 12 0 0 1 1.36-.02q.3 0 .61.05c-.56-.07.05.03.17.06l.4.11q.37.14-.09-.04c.12-.01.36.18.46.24.13.08.58.26.07.02a2 2 0 0 1 .45.41l.17.2q.26.3-.05-.09s.26.42.27.44l.16.3-.1-.25c.13.14.15.51.2.69.14.47.01-.44.02.1v.56c0 .49.1-.43-.03.19a2 2 0 0 1-.18.63q.17-.39.06-.15l-.12.25a2 2 0 0 1-.3.48q.29-.36.03-.06l-.25.25c-.32.34.35-.18-.09.06l-.23.14q-.24.12.17-.07l-.34.1q.52-.05.11-.02a2.4 2.4 0 0 0 0 4.8 6.1 6.1 0 0 0 5.16-3.5 7.6 7.6 0 0 0 .1-6.46 7.4 7.4 0 0 0-4.3-3.81 12 12 0 0 0-5.93-.15 8.6 8.6 0 0 0-5.2 2.9 2.6 2.6 0 0 0-.7 1.7 2.5 2.5 0 0 0 .7 1.7c.86.8 2.57 1.07 3.39 0Zm81.46 100.16 8.05 29.47c.8 2.97 5.44 1.71 4.63-1.28l-8.06-29.46c-.8-2.98-5.44-1.72-4.62 1.27" class="d"/><path d="M57.16 54.63a53 53 0 0 1 9.26 1.88c7.33 2.61 11.28 7.64 11.18 15.42a17.4 17.4 0 0 1-3.25 9.68 30 30 0 0 1-3.16 3.92 3.15 3.15 0 0 0-.18 4.23c3.46 4.33 4.27 8.07 4 13.12-.14 2.4-.86 5.62-1.9 7.17a3.3 3.3 0 0 0-.58 2.24c.16 2.2 2.85 6.57 11.59 6.57q1.65-.01 3.2-.13c3.34-.26 6.2-.72 8.3-.22 1.76.4 2.47 1.17 2.76 2.46.42 1.82-.31 3.26-2.04 4.64a21 21 0 0 1-6.52 3.03 39 39 0 0 1-6.09 1.25c-10.44 1.48-27.46.74-39.6.41h-.2c-7.84-.75-14.8-4.63-18.3-13.9a20.3 20.3 0 0 1-.86-10.64q.23-1.35.53-2.75c1.24-5.8-2.92-10.77-9.42-12.45l-3.32-.86C3.86 87.37-.36 80.04.02 70.87a15.3 15.3 0 0 1 2.8-8.4 17.6 17.6 0 0 1 6.61-5.56c11.58-4.48 32.01-3.78 47.73-2.28" style="fill:#c6c6c6"/><path d="M129.64 145.48a3 3 0 0 0-.92.35l-4.08 2.3-.42.24a8 8 0 0 1 1.3 1.59l2.36 4.2.12-.08 5.26-2.96a1.93 1.93 0 0 0 .73-2.63l-.8-1.42a3.3 3.3 0 0 0-3.55-1.59" class="a"/><path d="M74.47 177.39a5.1 5.1 0 0 1 2.23-6.05l8.57-5.06 33.86-19.08a3.4 3.4 0 0 1 2.32-.24 4.6 4.6 0 0 1 2.35 1.05 8 8 0 0 1 1.72 1.95l2.52 4.48.16.28a9 9 0 0 1-.35 3.6 3.2 3.2 0 0 1-1.37 1.92l-33.86 19.08-8.38 4.94c-2.45 1.45-5.38.47-7.01-1.86a30 30 0 0 1-2.37-4.17 8 8 0 0 1-.39-.84" style="fill:#7a7473"/><path d="m93.7 161.34 7.34 13.04a2.4 2.4 0 0 0 4.14-2.42l-7.34-13.04a2.4 2.4 0 0 0-4.15 2.42m32.15-11.14 2.98-1.68 1.1-.62.23-.12-.33.14.24-.08a1 1 0 0 1 .37-.08s-.66.03-.27.05h.37c.47 0-.6-.15-.15-.02l.36.1c.38.1-.56-.3-.02.01l.31.2c-.48-.22-.3-.25-.1-.05s.15.36-.04-.1l.2.33.39.67.4.72.08.14-.15-.34.06.23-.05-.4v.24q.1-.66.03-.29l-.07.23.14-.36-.12.2.22-.3-.17.17c.2-.35.4-.27.15-.14l-.36.2-1.64.92-3.23 1.83a2.4 2.4 0 1 0 2.42 4.14l3.07-1.73c1.36-.77 3.08-1.47 3.83-2.92a4.6 4.6 0 0 0-.2-4.49 11 11 0 0 0-1.52-2.3 5.7 5.7 0 0 0-4.4-1.69 7 7 0 0 0-2.89.97l-3.67 2.06a2.4 2.4 0 1 0 2.43 4.15Z" class="d"/><path d="M76.79 176.75c-.79-2.54 1.36-3.48 3.16-4.54l6.12-3.61c1.9-1.13 3.86-2.19 5.79-3.28l25.79-14.53a14 14 0 0 1 2.68-1.5c1.25-.35 2.52.93 3.11 1.88.97 1.54 1.8 3.18 2.68 4.76l-.32-1.21c.1.96.22 2.78-.59 3.48a5 5 0 0 1-.75.42l-3.77 2.12-12.78 7.21c-5.95 3.35-11.96 6.62-17.85 10.1l-6.61 3.9a2.8 2.8 0 0 1-2.76.35 5 5 0 0 1-2-2.02 25 25 0 0 1-1.9-3.53 2.5 2.5 0 0 0-2.96-1.68 2.4 2.4 0 0 0-1.67 2.96c1.79 4.3 4.76 9.84 10.26 9.27 2.52-.27 4.77-1.99 6.9-3.25q3.49-2.06 7.02-4.07l26.77-15.09 3.98-2.24c2.57-1.45 3.58-4.11 3.57-7.02 0-1.98-1.21-3.57-2.15-5.25a12 12 0 0 0-4.16-4.9 7 7 0 0 0-7.1.02L92 159.74c-2.64 1.49-5.29 2.95-7.91 4.46q-2.38 1.38-4.73 2.79c-2.13 1.25-4.7 2.38-6.18 4.43a7.5 7.5 0 0 0-1.01 6.6c.9 2.95 5.54 1.7 4.63-1.27" class="d"/><path d="M115.78 169.77a12.4 12.4 0 0 1-1.5-7.96 10.3 10.3 0 0 1 2.57-5.8c1.45-1.55 4.24-1.47 5.89-.36 1.9 1.28 1.98 3.03 2.62 5.38a91 91 0 0 0 4.57 13.02" class="a"/><path d="M117.4 167.63a16 16 0 0 1-.63-1.73l-.19-.82q-.07-.42 0 0l-.04-.46a12 12 0 0 1 .5-4.27 8 8 0 0 1 .94-1.93q.26-.36.56-.7.32-.3.07-.1l.42-.25c-.32.15.47-.12.58-.14-.38.06.5.01.6.02a3 3 0 0 1 1.02.3 1 1 0 0 1 .42.28l.33.35q-.21-.28.03.06l.23.45q.16.45.28.9c.43 1.6.82 3.2 1.3 4.8a110 110 0 0 0 3.8 10.41 2.5 2.5 0 0 0 2.95 1.68 2.4 2.4 0 0 0 1.68-2.96 112 112 0 0 1-3.54-9.58 74 74 0 0 1-1.31-4.63 11 11 0 0 0-1.37-3.68 7.5 7.5 0 0 0-7.94-2.98c-3.21.76-5.16 4.17-5.9 7.16a14.5 14.5 0 0 0 .59 9.1 2.5 2.5 0 0 0 2.95 1.67 2.4 2.4 0 0 0 1.68-2.95Z" class="d"/></svg>
