<svg xmlns="http://www.w3.org/2000/svg" viewBox="0 -4.84 295.502 295.502"><defs><style>.a{fill:#fff}.c{fill:#211715}.f{fill:#c6c6c6}</style></defs><path d="M209.43 79.22a7.5 7.5 0 0 1 5.45-.82c3.65.8 4.86 2.99 5.33 4.22 1.38 3.7.15 9.78-1.9 13.31a19.5 19.5 0 0 1-7.96 8.18 14 14 0 0 1-7.77 1.06l-.65 1.14a61 61 0 0 1-3.16 4.65 62 62 0 0 1-7.52 8.2 60 60 0 0 1-14.63 9.05 69 69 0 0 1-14.42 3.86 52 52 0 0 1-5.18.36c-11.1.24-20.04-3.27-28.18-10.9-7.76-7.28-10.62-18.13-11.12-29.94-.29-6.82-.44-14.2-.91-21.62 0 0-9.93-34.18 47.62-34.18s45 43.43 45 43.43" class="a"/><path d="M158.23 188.34c-5.1-17.6-11.05-44.36-11.91-54.03l-.2-3.02a41 41 0 0 0 10.9 1.14 52 52 0 0 0 5.18-.36 69 69 0 0 0 14.42-3.86 60 60 0 0 0 14.63-9.05 58 58 0 0 0 5.42-5.62l8.07 6.9 2.58 1.9-.37 1.58c-2.44 10.37-6.02 19.47-8.99 28.35-6.7 20.07-20.72 53.55-25.88 64.96l-2.94.69c-3.07-7.6-4.68-11.49-7.43-18.8a151 151 0 0 1-3.48-10.78" class="a"/><path d="m198.03 152.05-.07.22c-6.7 20.07-20.72 53.55-25.88 64.96l-2.94.69c-3.07-7.6-4.69-11.49-7.44-18.8-5.42-14.46-14.34-52.95-15.4-64.89-3.82-4.12-3.87-3.88-4.51-3.63-9.62 3.3-22.76 8.49-30.25 13.24a29 29 0 0 0-8.65 8.3c-1.66 2.66-5.08 8.92-6.15 12.27-4.6 14.88-7.5 27.22-10.65 48.44-2.29 15.36-2.85 26.16-.77 36.76a24.6 24.6 0 0 0 7.89 13.54c7.54 6.9 19.02 7.77 27.83 3.41 1.29 3.03 2.64 6.28 3.99 9.6a11.6 11.6 0 0 0 10.74 7.24H279.8c7.44-5.57 9.44-11.28 11.28-16.68 1.06-3.14 2.03-10.9 2.03-14.17 0-13.27-5.8-42.8-14.66-70.6-4.14-13-9.77-25.28-15.41-31.2-6.28-6.58-13.46-10.43-22.02-13.52-7.3-2.64-16.63-6.01-23.92-8.45-1.48-.49-6.63-4.15-9.8-6.46-2.41 10.97-6.16 20.47-9.27 29.73" style="fill:#b3b3b3"/><path d="M124.47 261.46c-8.68 7.5-22.56 7.12-30.63-1.02a22 22 0 0 1-5.2-7.9 36 36 0 0 1-1.77-8.55 94 94 0 0 1 .08-18.72c.7-7.5 1.88-14.98 3.14-22.4 1.08-6.34 2.3-12.65 3.77-18.9a276 276 0 0 1 4.48-16.56 56 56 0 0 1 6.85-14.4c3.4-5.17 9.11-8.27 14.53-10.92a187 187 0 0 1 18.63-7.74c1.44-.52 2.89-1 4.32-1.53a2.47 2.47 0 0 0 1.68-2.95 2.4 2.4 0 0 0-2.96-1.68c-6.72 2.45-13.42 4.88-19.95 7.81-6 2.7-12.14 5.65-16.88 10.33a33 33 0 0 0-5.45 7.53 74 74 0 0 0-4.16 8.5 86 86 0 0 0-2.6 8.42q-1.25 4.34-2.35 8.73a321 321 0 0 0-7.6 43.22 101 101 0 0 0-.46 20.05 51 51 0 0 0 1.57 9.56 27 27 0 0 0 5.13 9.5c8.51 10.4 23.92 12.74 35.38 5.84a28 28 0 0 0 3.84-2.83c2.34-2.02-1.07-5.4-3.4-3.39Z" class="c"/><path d="M183.15 51.18a27 27 0 0 1 12.3 12.47 40 40 0 0 1 3.29 10.62l10.69 4.95a7.5 7.5 0 0 1 5.46-.82c3.64.8 4.85 2.98 5.32 4.22 3.29-6.23 6.1-13 6.77-20.22 2.01-21.52-2.61-29.98-13.43-41.14-8.84-13.1-22.3-17.51-35.81-18.61a58.7 58.7 0 0 0-36.47 8.46 51 51 0 0 0-10.85 9.34c-7 5.65-13.28 18.74-13.98 32.16a88 88 0 0 0 .4 17.01l2.74-2.42c6.13-5.43 16.84-13.5 24.15-16.42.86-.34 1.89.26 2.13 1.55a8 8 0 0 1 0 3.05 1.7 1.7 0 0 0 2.34 1.85c5.23-2.22 14.6-6.77 21.14-8.8a19 19 0 0 1 6.88.48 63 63 0 0 1 6.93 2.27" style="fill:#85807f"/><path d="M164.3 205.9c-.8-2.04-1.62-4.2-2.6-6.78q-.68-1.85-1.44-4.17a185 185 0 0 1 2.13-24.68c.45-3.33 1.3-7.24 2-10.81a266 266 0 0 1-4.26-10.97l-.25-.7a120 120 0 0 1 7.74-7.23c2.83 1.85 7.79 4.83 12.08 7.76-1.32 4.07-2.62 8.84-3.75 12.92.05 1.35 3.46 21.75 4.52 26.04l1.25 7.38a834 834 0 0 1-9.64 22.58l-2.93.68c-2-4.92-3.37-8.28-4.84-12.02" style="fill:#3d8dcc"/><path d="M157.8 149.13q2 5.53 4.27 10.96v-1.27a215 215 0 0 0-4.06 32.03c-.13 3.09 4.67 3.08 4.8 0a193 193 0 0 1 2.07-21.17c.32-2.04.72-4.06 1.12-6.09q.32-1.53.62-3.07a4.4 4.4 0 0 0-.38-2.81 226 226 0 0 1-3.8-9.86 2.46 2.46 0 0 0-2.95-1.68 2.4 2.4 0 0 0-1.68 2.96Zm19.58-1.45q-1.06 3.32-2 6.68a45 45 0 0 0-1.8 6.55 18 18 0 0 0 .55 4.54q1.24 7.94 2.7 15.85c.4 2.21.79 4.44 1.32 6.62.74 3 5.37 1.73 4.63-1.28-1.07-4.36-1.74-8.85-2.5-13.28q-.67-3.9-1.3-7.8l-.44-2.83-.15-1.07c-.08-.5.04.52.02.15a1 1 0 0 1-.04-.32c0-.03.03-.36 0-.12-.06.34.13-.34.12-.32q.16-.52.3-1.05.5-1.85 1.03-3.7a217 217 0 0 1 2.2-7.34c.95-2.95-3.69-4.2-4.63-1.28Z" class="c"/><path d="M165 162.8c3.06-.12 6.11-.25 9.17-.3a2.4 2.4 0 0 0 0-4.8c-3.06.05-6.11.18-9.17.3a2.4 2.4 0 0 0 0 4.8m-5.8-10.8a126 126 0 0 1 10.11-9.75l-2.9.38c4.83 3.15 9.81 6.07 14.5 9.46a2.4 2.4 0 0 0 3.28-.86 2.45 2.45 0 0 0-.86-3.28c-4.68-3.4-9.66-6.32-14.5-9.47a2.45 2.45 0 0 0-2.91.38 126 126 0 0 0-10.12 9.75c-2.1 2.27 1.3 5.67 3.4 3.39M281 285.48a33 33 0 0 0 8.24-8.67 41 41 0 0 0 3.85-8.6 45 45 0 0 0 1.84-8.87 52 52 0 0 0 .55-8 129 129 0 0 0-1.89-17.39 323 323 0 0 0-4.64-23.03q-3.04-12.87-6.92-25.53a153 153 0 0 0-9.4-24.4c-3.26-6.43-7.3-12.09-13.02-16.56-6.25-4.89-13.38-7.85-20.78-10.52q-5.81-2.1-11.64-4.17-2.92-1.03-5.86-2.04l-2.5-.85a8 8 0 0 0-1.14-.38c.26.04.43.22.03 0a106 106 0 0 1-10.88-7.43l-.9-.67a2.4 2.4 0 0 0-3.28.86 2.46 2.46 0 0 0 .86 3.29 185 185 0 0 0 9.06 6.44 25 25 0 0 0 5.93 2.84q5.58 1.91 11.14 3.9c7.15 2.55 14.55 4.8 21.17 8.58a40.4 40.4 0 0 1 14.53 13.55 104 104 0 0 1 9.74 21.61c2.8 8.24 5.16 16.64 7.33 25.06 3.54 13.78 6.79 27.9 8 42.11a59 59 0 0 1-.7 15.3c-.96 5.48-3.07 11.16-6.79 15.39a30 30 0 0 1-4.35 4.04 2.5 2.5 0 0 0-.86 3.28 2.4 2.4 0 0 0 3.28.86m-48.99-73.3 8.05 29.46c.81 2.98 5.45 1.72 4.63-1.27l-8.05-29.47c-.81-2.98-5.44-1.71-4.63 1.28M163.3 84.85c-.48-2.43.55-7.82 5.07-7.83 5.91.65 5.55 7.25 3.25 10.14-1.9 2.36-6.8 2.92-8.32-2.3m-35.24-2.5c-.43-2.43.55-7.84 4.7-7.87 5.4.6 5.04 7.23 2.9 10.14-1.74 2.38-6.23 2.97-7.6-2.26m17.8 6.89a51 51 0 0 0-2.4 3.78 5 5 0 0 0-.76 2.23 3.3 3.3 0 0 0 1.06 2.59 5 5 0 0 0 1.95 1.17 9 9 0 0 0 .9.19 2.5 2.5 0 0 0 1.85-.24 2.4 2.4 0 0 0-.58-4.4 7 7 0 0 1-1.04-.23l.57.24a3 3 0 0 1-.46-.26l.49.38a4 4 0 0 1-.5-.46l.38.48-.1-.15.25.57-.07-.25.08.64.01-.27-.08.64a2 2 0 0 1 .14-.46l-.25.57a19 19 0 0 1 1.35-2.3q.66-1.03 1.35-2.04a2.4 2.4 0 0 0-2.7-3.53 2.7 2.7 0 0 0-1.44 1.1Zm64.78-7.95a5.9 5.9 0 0 1 6.02.42l.38.34.34.35.34.55c.05.08.3.6.17.3s.12.34.15.45a8 8 0 0 1 .26 1.09 13 13 0 0 1-.1 4.1c-.88 5.35-4.22 10.82-9.22 13.23.42-.2-.22.07-.37.12q-.44.16-.92.28a12 12 0 0 1-1.89.35 8 8 0 0 1-4.54-.66c-2.7-1.48-5.13 2.66-2.42 4.15 3.34 1.82 7.64 1.72 11.17.47a19 19 0 0 0 8.77-7.16 23 23 0 0 0 4.1-9.88c.53-3.37.56-7.23-1.57-10.09a10.3 10.3 0 0 0-13.1-2.55c-2.68 1.53-.26 5.68 2.43 4.14" class="c"/><path d="M177.83 130.28c10.74-4.7 20.26-12.52 26.17-22.76 1.55-2.68-2.6-5.1-4.14-2.42a45 45 0 0 1-4.16 5.87 54 54 0 0 1-6.37 6.69l-.65.53-.56.45q-1.56 1.2-3.18 2.27a62 62 0 0 1-9.53 5.23 2.4 2.4 0 0 0-.86 3.28 2.46 2.46 0 0 0 3.28.86" class="c"/><path d="M114.4 69.97c.52 8.16.45 16.36 1.09 24.51.53 6.84 1.9 13.68 5.03 19.83 6.12 12.07 19.4 19.63 32.68 20.45 8.26.5 16.38-1.31 24.06-4.23a2.47 2.47 0 0 0 1.68-2.96 2.4 2.4 0 0 0-2.96-1.67 56 56 0 0 1-19.99 4.14 35.6 35.6 0 0 1-17.48-4.32 34 34 0 0 1-13.06-12.37c-3.06-5.35-4.48-11.54-5.06-17.64-.8-8.54-.65-17.18-1.18-25.74a2.46 2.46 0 0 0-2.4-2.4 2.4 2.4 0 0 0-2.4 2.4" class="c"/><path d="M213.53 17.2a44 44 0 0 0-23.37-14.9 68 68 0 0 0-29.23-1.28 57.5 57.5 0 0 0-25.87 11.64 50 50 0 0 0-5.26 4.87c-1.37 1.48-2.92 2.79-4.24 4.33a45 45 0 0 0-7.22 12.06c-4.65 11.1-5.26 23.39-3.95 35.23a2.47 2.47 0 0 0 2.4 2.4 2.4 2.4 0 0 0 2.4-2.4c-1.1-9.94-.94-20.27 2.23-29.83a46 46 0 0 1 5.88-11.92 27 27 0 0 1 3.56-4.15c1.55-1.48 2.98-3.07 4.54-4.54 13.33-12.48 32.65-16.2 50.22-12.56 9.69 2 18.32 6.6 24.52 14.44a2.4 2.4 0 0 0 3.4 0 2.46 2.46 0 0 0 0-3.39Zm10.4 63.36a58 58 0 0 0 4.85-13.88 71 71 0 0 0 1.06-13.9c-.06-6.87-1.2-13.7-4.36-19.86a47 47 0 0 0-5.96-8.67 2.4 2.4 0 0 0-3.4 0 2.45 2.45 0 0 0 0 3.39 36 36 0 0 1 7.66 14.26c1.77 6.95 1.62 14.64.67 21.69a50 50 0 0 1-4.66 14.55 2.47 2.47 0 0 0 .86 3.28 2.4 2.4 0 0 0 3.28-.86m-5.28 57.85a34 34 0 0 1 2.92 5.15 13 13 0 0 1 1.27 3.48v-1.28q.99-1.37.52-.93.58-.43.28-.22l-.44.28q-.57.33-1.15.63-1.82.96-3.68 1.86-3.71 1.8-7.43 3.57a2.42 2.42 0 0 0-.49 3.77q2.47 2.63 4.9 5.3 1.07 1.17 2.12 2.36c.66.75 1.74 1.6 1.94 2.63.12.65-.36 1.14-.7 1.66l-1.43 2.18q-1.53 2.36-3.03 4.74c-4.7 7.44-9.32 14.94-14.07 22.35q-4.64 7.25-9.45 14.39c-1.74 2.56 2.42 4.97 4.14 2.42a880 880 0 0 0 16.98-26.3q3.46-5.54 6.94-11.06 1.53-2.41 3.09-4.81c1.14-1.76 2.5-3.43 2.34-5.65-.2-3.02-2.66-5.2-4.57-7.31s-3.86-4.2-5.8-6.3l-.5 3.78c4.03-1.95 8.19-3.72 12.06-5.95a4.6 4.6 0 0 0 1.8-1.48c.62-1.06.23-2.29-.15-3.35a36 36 0 0 0-4.27-8.33 2.47 2.47 0 0 0-3.28-.86 2.4 2.4 0 0 0-.86 3.28m-74.73-4.1c.92 10.04 3.35 20.05 5.62 29.85a340 340 0 0 0 8.9 32.9c2.47 7.28 5.51 14.37 8.4 21.49a2.5 2.5 0 0 0 2.94 1.68 2.4 2.4 0 0 0 1.68-2.96c-2.67-6.62-5.45-13.21-7.85-19.94-1.65-4.6-3-9.33-4.3-14.05q-4.8-17.39-8.31-35.11-.82-4.1-1.5-8.2-.28-1.67-.52-3.33l-.04-.32-.07-.63-.15-1.39a2.47 2.47 0 0 0-2.4-2.4 2.4 2.4 0 0 0-2.4 2.4Z" class="c"/><path d="M174.15 218.45a834 834 0 0 0 12.74-30.15 692 692 0 0 0 13.86-36.8c3.04-8.93 6.33-17.76 8.51-26.94.72-3-3.91-4.29-4.63-1.28a246 246 0 0 1-7.46 23.89c-2.1 6.06-4.16 12.12-6.4 18.13A988 988 0 0 1 170 216.02a2.47 2.47 0 0 0 .87 3.29 2.4 2.4 0 0 0 3.28-.86m7.79-165.2a25.5 25.5 0 0 1 9.54 8.37 35 35 0 0 1 4.94 13.29 2.4 2.4 0 0 0 2.95 1.67 2.45 2.45 0 0 0 1.68-2.95 38 38 0 0 0-5.6-14.7 30.5 30.5 0 0 0-11.09-9.82c-2.72-1.46-5.15 2.68-2.42 4.15M121.28 68.9a106 106 0 0 1 19.91-14.28q1.16-.61 2.36-1.17a6 6 0 0 0 .82-.36c0 .08-.78-.3-.81-.26a1 1 0 0 0 .02.38 6 6 0 0 0 .02 1.2 11 11 0 0 0-.15 1.6 4 4 0 0 0 1.92 3.14c2.04 1.24 3.98.2 5.92-.66l5.5-2.47a122 122 0 0 1 13.19-5.27c2.94-.92 1.68-5.56-1.28-4.63A120 120 0 0 0 156.33 51l-5.8 2.6-2.5 1.1q-.28.11-.54.24c-.42.23-.13-.1.08.03a4 4 0 0 1 .58.38c.19.16-.06.73.13-.01.58-2.28-.1-5.43-2.28-6.61-2.03-1.1-4.2.21-6.03 1.12a80 80 0 0 0-10.77 6.69 141 141 0 0 0-11.31 8.95c-2.33 2.05 1.08 5.43 3.39 3.4Zm26.99 42.76c.18-.22.53-.76.83-.86q-.36.27-.15.12l.22-.15.52-.3c.55-.28-.32.09.14-.07l.5-.17q.6-.17 1.2-.28c.5-.1-.49.04.06 0l.53-.05a13 13 0 0 1 1.35-.02q.3 0 .62.05c-.56-.07.05.03.17.06l.4.12q.37.13-.1-.05c.12-.01.37.19.46.24.14.08.59.26.08.02a2 2 0 0 1 .44.41l.18.2q.25.3-.05-.09s.26.42.27.44l.16.3-.1-.25c.13.14.15.51.2.69.14.47 0-.44.01.1v.56c0 .49.11-.43-.02.19a2 2 0 0 1-.18.63q.17-.39.06-.15l-.13.25a2 2 0 0 1-.3.48q.3-.36.04-.06l-.26.25c-.3.34.36-.17-.08.06l-.23.14q-.24.12.17-.07l-.34.1q.52-.05.11-.02a2.4 2.4 0 1 0 0 4.8 6.1 6.1 0 0 0 5.16-3.5 7.6 7.6 0 0 0 .1-6.45 7.4 7.4 0 0 0-4.3-3.82 12 12 0 0 0-5.94-.15 8.6 8.6 0 0 0-5.2 2.91 2.6 2.6 0 0 0-.7 1.7 2.4 2.4 0 0 0 .7 1.7c.86.79 2.57 1.06 3.4 0Z" class="c"/><path d="M56.37 79.7a55 55 0 0 1 9.52 1.93c7.53 2.69 11.81 8.19 11.71 16.18-.04 2.97-.67 7.15-3.23 9.98-1.05 1.15-2.24 2.33-3.58 3.66a3.24 3.24 0 0 0-.19 4.34 21 21 0 0 1 4.84 14.53c-.14 2.47-1.62 4.73-2.69 6.33a11 11 0 0 1-1.68 1.98 3.24 3.24 0 0 0 .22 4.97c3.67 2.75 7.75 6.98 7.96 10.18.2 2.98-.85 5.45-2.96 6.3a6 6 0 0 1-3.89-.08c-6.16-2.14-12.72-5.02-27.78-5.42l-.21-.02c-8.05-.76-16.86-1.87-20.44-11.4a21 21 0 0 1-.9-10.93q.26-1.39.56-2.82c1.27-5.95-.65-11.07-7.32-12.8l-3.41-.89C3.97 113.35-.37 105.81.02 96.4a16 16 0 0 1 2.88-8.63 18 18 0 0 1 6.8-5.72c11.9-4.6 30.52-3.89 46.67-2.34" class="f"/><path d="M131.74 173.4a105 105 0 0 1-4.58-13.13c-.64-2.35-.72-4.1-2.62-5.38-1.65-1.1-4.44-1.19-5.89.36a10.3 10.3 0 0 0-2.58 5.8q-.09.8-.12 1.47l-3.5-10.13a4.3 4.3 0 0 0-1.08-3.32 3.5 3.5 0 0 0-1.54-.9 10 10 0 0 0-7.55 2.75 16 16 0 0 0-4.23 7.02l-1 3.29-2.7 10.65c.08 5.03-.2 8.65-.12 13.68a19 19 0 0 0 1.67 7.1 21 21 0 0 0 6.34 7.41c2.49 1.85 2.32 5.04 1.5 8.03q-.2.7-.47 1.47a6.3 6.3 0 0 0 1.74 6.82c3.93 3.53 8.55 4.03 14.2 3.31a31 31 0 0 0 5.98-1.18 8.3 8.3 0 0 0 4.57-5.49c.65-2.09.52-4.1.69-6.55.22-3.28 0-5.45 1.23-8.5.82-2.02 2.05-3.86 2.79-5.9 2.2-6.1-.28-12.79-2.73-18.79" class="a"/><path d="M91.94 171.88c.13 8.22-1.59 17.12 3.3 24.33a22 22 0 0 0 3.76 4.32c1.2 1.05 2.67 1.74 2.86 3.47.2 1.84-.53 3.56-1.02 5.3a9 9 0 0 0 .64 6.36c1.7 3.43 5.9 5.64 9.52 6.33a33 33 0 0 0 12.06-.45 10.3 10.3 0 0 0 8.72-7.05c1.53-3.93.84-8.41 1.32-12.53a19 19 0 0 1 2.37-6.29 19 19 0 0 0 2.2-7.49c.39-5.37-1.63-10.64-3.62-15.52a2.5 2.5 0 0 0-2.96-1.68 2.4 2.4 0 0 0-1.67 2.95c1.59 3.9 3.3 8.02 3.47 12.27a13 13 0 0 1-.94 5.76c-.81 1.9-1.92 3.66-2.66 5.6-1.4 3.6-1.2 7.72-1.37 11.52-.13 2.87-1.06 6.44-3.97 7.33a29 29 0 0 1-10.36 1.12c-2.7-.2-6.42-1.4-7.8-3.96-.85-1.57-.32-2.9.15-4.48a15 15 0 0 0 .7-5.26 7.8 7.8 0 0 0-2.17-4.98c-1.24-1.25-2.73-2.18-3.91-3.52a15.4 15.4 0 0 1-3.93-9.51c-.22-4.63.17-9.3.1-13.93-.04-3.1-4.84-3.1-4.8 0Z" class="c"/><path d="M97.84 177.25a62 62 0 0 1 14.97-1.33c2.02.01 3.72.2 4.89 1.62.65.78 1.43 1.9.98 2.86a3 3 0 0 1-1.14 1.04q-1.08.72-2.09 1.51a2.4 2.4 0 0 0 0 3.4 2.46 2.46 0 0 0 3.4 0 23 23 0 0 0 3.2-2.46 6.3 6.3 0 0 0 1.45-5.13 9.5 9.5 0 0 0-4.83-6.5 14 14 0 0 0-6.46-1.14q-3.5.02-7 .3a53 53 0 0 0-8.65 1.2c-3 .74-1.73 5.37 1.28 4.63" class="c"/><path d="M103.95 187.32c2.25-.6 4.49-1.34 6.8-1.72l.45-.07c-.04 0-.35.03-.07.02l.8-.07a13 13 0 0 1 1.68 0l.45.05c.29.02-.03 0-.07-.01l.63.13c.48.07-.4-.2-.06-.03l.2.12c-.05.02-.42-.4-.2-.15l.3.3c.17.15-.19-.2-.18-.23l.14.21.22.4c.13.2-.1-.25-.1-.26l.1.32q.08.24.13.48c.03.11.1.65.06.24l.02.26.01.59q0 .26-.03.5c-.03.55.1-.4 0 .02l-.28 1.02c-.05.23.1-.25.12-.26l-.12.24-.23.4c-.25.42.31-.29.03-.05-.22.19-.4.43-.6.63q-.55.55-1.15 1.05l-.28.23c.13-.12.27-.2.05-.04l-.59.43q-1.45.99-2.93 1.93a2.4 2.4 0 0 0 2.42 4.15 38 38 0 0 0 5.66-4.14 8 8 0 0 0 1.88-2.4 9 9 0 0 0 .83-3.27 8 8 0 0 0-1.66-5.7c-1.54-1.87-4.19-2.1-6.45-1.96a47 47 0 0 0-9.25 2 2.4 2.4 0 1 0 1.27 4.63Zm10.9-34.93c-.02-2.46-.88-4.81-3.16-6.05-2.33-1.26-5.42-.46-7.7.58-4.24 1.93-6.94 6.16-8.28 10.48l-.97 3.19a2.4 2.4 0 0 0 1.68 2.95 2.45 2.45 0 0 0 2.95-1.67l.94-3.1a15 15 0 0 1 .83-2.2 17 17 0 0 1 .84-1.53l.41-.63q.14-.21.3-.41-.2.23.08-.1a14 14 0 0 1 1.2-1.27l.49-.42a10 10 0 0 1 1.5-.93l.45-.22q-.22.1.01 0a9 9 0 0 1 1.8-.49c-.4.07.35-.02.36-.02h1c0 .03-.9-.27-.23-.01l.26.16q-.33-.28-.05-.04l.26.27q-.23-.31 0 .02c.3.43-.05-.36.09.15.03.12.15.93.1.37q.04.46.04.92a2.4 2.4 0 0 0 4.8 0" class="c"/><path d="M82.99 171.57a3.2 3.2 0 0 0-1.16 4.38l1.57 2.68a3.2 3.2 0 0 0 4.38 1.15l3.76-2.23-4.8-8.2Z" class="f"/><path d="m130.2 152.2-2.68-4.58a2.1 2.1 0 0 0-2.88-.75l-11.05 6.55 4.8 8.21 11.05-6.55a2.1 2.1 0 0 0 .75-2.87" style="fill:#febe69"/><path d="m86.74 169.34 4.8 8.21 26.85-15.92-4.8-8.2Z" class="a"/><path d="m120.42 160.35-4.8-8.21a2.4 2.4 0 0 0-4.15 2.42l4.8 8.21a2.4 2.4 0 1 0 4.15-2.42" class="c"/><path d="m89 181.85 19.21-11.4c7.37-4.37 14.81-8.64 22.12-13.11a4.67 4.67 0 0 0 1.85-6.5q-.92-1.6-1.86-3.18a7 7 0 0 0-2.57-2.98c-2.97-1.54-6.3 1.29-8.76 2.75l-26.98 16-9.37 5.55a6.7 6.7 0 0 0-3.35 3.6 6.2 6.2 0 0 0 .84 5.21 14 14 0 0 0 2.22 3.33 5.7 5.7 0 0 0 6.64.73c2.75-1.41.32-5.56-2.42-4.14-.85.43-1.22-.5-1.58-1.12-.33-.56-1.23-1.6-1.21-2.27.02-.65.99-1.02 1.46-1.3l8.82-5.23 25.57-15.16 4.23-2.5c.38-.23 1.73-.74 1.93-1.15.05-.1.39.02-.2 0 .08 0-.12-.19-.14-.13s.21.36.24.4c.55 1.06 1.2 2.08 1.8 3.1.12.2.38.88.58.99.3.16-.2-.45.15-.33-.06-.02-.4.23-.45.27l-20.59 12.2c-6.75 4-13.57 7.9-20.25 12.01l-.36.22c-2.66 1.57-.24 5.72 2.42 4.14" class="c"/><path d="m84.69 170.58 4.8 8.2a2.4 2.4 0 0 0 4.14-2.42l-4.8-8.2a2.4 2.4 0 0 0-4.15 2.42Z" class="c"/><path d="M117.58 169a12.4 12.4 0 0 1-1.5-7.96 10.3 10.3 0 0 1 2.57-5.8c1.45-1.54 4.24-1.46 5.89-.35 1.9 1.28 1.98 3.03 2.62 5.38a91 91 0 0 0 4.57 13.02" class="a"/><path d="M119.21 166.86a16 16 0 0 1-.63-1.73l-.2-.82q-.06-.42 0 0l-.04-.45a12 12 0 0 1 .5-4.27 8 8 0 0 1 .95-1.93c.17-.26.36-.46.56-.71q.32-.3.07-.1l.41-.25c-.31.15.48-.12.59-.13-.39.06.5 0 .6.01a3 3 0 0 1 1.02.3 1 1 0 0 1 .42.29l.33.34q-.2-.27.02.07l.24.44q.16.45.28.91c.43 1.6.82 3.2 1.3 4.79a110 110 0 0 0 3.8 10.41 2.5 2.5 0 0 0 2.95 1.68 2.4 2.4 0 0 0 1.68-2.95 112 112 0 0 1-3.54-9.58 73 73 0 0 1-1.31-4.63 11 11 0 0 0-1.37-3.69 7.5 7.5 0 0 0-7.94-2.98c-3.21.76-5.16 4.18-5.9 7.17a14.5 14.5 0 0 0 .58 9.09 2.5 2.5 0 0 0 2.95 1.67 2.4 2.4 0 0 0 1.68-2.95" class="c"/></svg>
