<svg xmlns="http://www.w3.org/2000/svg" viewBox="-13.73 0 326.261 326.261"><defs><style>.a{fill:#211715}.b{fill:#b3b3b3}.c{fill:#fff}</style></defs><path d="M259.12 139.35a2.8 2.8 0 0 0-1.54-3.55q-1.05-.45-2.15-.89a3.17 3.17 0 0 0-4.1 1.8 992 992 0 0 0-7.08 18.43l-1.73 4.38a14 14 0 0 1 4.11-1.34 27 27 0 0 1 5.61-.43l.7-1.67c1.78-4.54 4.42-11.95 6.18-16.73" class="a"/><path d="M286.65 45.1c-3.7 9.75-7.27 19.55-10.86 29.33q-7.61 20.78-15.06 41.62-3.35 9.34-6.54 18.72c-.98 2.93 3.65 4.2 4.63 1.27 4.16-12.3 8.59-24.53 13.01-36.75Q279 79.5 286.3 59.74q2.47-6.7 4.98-13.36a2.4 2.4 0 0 0-1.68-2.95 2.45 2.45 0 0 0-2.95 1.68Z" class="a"/><path d="m296 40.1-1.83 4.5a2.7 2.7 0 0 1-3.5 1.5l-3.04-1.22a2.7 2.7 0 0 1-1.5-3.5l1.79-4.5c.93-2.33 4.03-4.4 6.03-3.74 1.73.57 3.15 4.26 2.05 6.96" class="b"/><path d="m293.68 39.47-.74 1.83-.72 1.76-.18.44c-.27.69.14-.15-.05.13-.19.25-.01.35.04 0l-.12.13q-.29.27.1-.05c0 .05-.25.17-.27.18-.46.3.35-.17.04-.02-.49.22.09-.07.06.01 0 .04-.34-.03-.33 0-.04-.1.52.16.13 0q-.28-.08-.57-.2l-1.17-.46-1.17-.47c-.1-.04-.43-.23-.06-.02l-.3-.17.21.18-.18-.18c-.19-.29.26.52.02.03 0-.01-.17-.24-.16-.29q.2.48.07.1l-.03-.15.04.3v-.33c.04-.01-.17.62 0 .13q.14-.45.32-.9l.7-1.75.45-1.13a6 6 0 0 0 .38-.95c-.01.07-.28.56-.07.17l.21-.38c.1-.17.58-.72.19-.32q.3-.34.63-.66l.27-.25c.45-.4-.4.25.1-.07q.37-.24.76-.46l.32-.15c-.16.2-.37.13-.1.05l.47-.13c.33-.1-.02.14-.17.01l.3-.02c.55 0 .02.09-.06-.03l.13.03q.4.12-.22-.11l.32.18c-.07.02-.44-.41-.19-.12l.29.3c-.25-.04-.27-.4-.07-.05l.24.4a1 1 0 0 1 .18.38c-.08-.53-.06-.13 0 .07q.13.42.22.86c.15.58 0-.52.02.08l.02.55v.37q0 .14-.03.27-.02.28.03-.18a3 3 0 0 1-.3 1.05 2.4 2.4 0 0 0 1.68 2.96 2.47 2.47 0 0 0 2.95-1.68c1.17-3.05.21-7.54-2.63-9.4-3.18-2.08-7.25.5-9.16 3.13a15 15 0 0 0-1.52 3.26 14 14 0 0 0-1.46 4.49 5.1 5.1 0 0 0 2.87 4.73c.95.43 1.95.79 2.92 1.18a6 6 0 0 0 3.32.45 5 5 0 0 0 2.66-1.42 10 10 0 0 0 1.7-3.24l1.3-3.18a2.4 2.4 0 0 0-1.68-2.95 2.47 2.47 0 0 0-2.95 1.68" class="a"/><path d="M219.97 206c1.05-13.8 1.55-27.22 4-31.03 1.78-2.74 3.88-4.64 5.6-6.7a13 13 0 0 0 3.04-5.77c.81-3.7 2.78-8.58 6.72-8.81 2.62-.15 3.43 1.84 3.77 3.01l.67 2.25a16 16 0 0 1 2.86-.77c6.83-1.26 14.3.25 14.55 3.8.3 1.75-.14 3.31-1.53 6.09a7 7 0 0 1 1.54 4.6 1.2 1.2 0 0 1-.37.85l-.6 1.78a4.6 4.6 0 0 1 4.48 1.38c1.4 1.54 2.47 4.85.78 6.06q-1.1.8-2.04 1.59l.1-.01c2.84-1 6.79 1.52 6.55 4.11-.18 2-1.75 3.85-3.39 5.15l-.23.18-1.17 1.93a45 45 0 0 1-10.84 12.27c-1.22.96-2.5 1.86-3.68 2.87a25 25 0 0 0-5.01 5.81s-.42.73-.96 1.68c-4.95-1.83-18.01-6.72-25.11-10.08z" class="c"/><path d="M253.94 188.73c-1.64 2.26-.7 5.8.93 7.79 1.77 2.18 5.45 2.81 8.03 2.01a14 14 0 0 0 4.24-2.27 17 17 0 0 0 3.42-3.17 8.6 8.6 0 0 0 1.93-4.55 5.5 5.5 0 0 0-1.25-3.75 8 8 0 0 0-8.33-2.8 2.4 2.4 0 1 0 1.28 4.63c.1-.03.7-.24.37-.12-.29.1.16 0 .3-.01.25 0 .65.06.17-.03l.72.16.52.18c-.53-.18.04.03.18.11q.28.16.54.34c.06.03.27.22.05.02-.24-.21.05.06.1.1q.2.23.42.44c-.02-.02-.24-.37-.12-.15l.17.27.12.22c-.03.02-.14-.48-.1-.21a1 1 0 0 0 .1.3c.1.2 0-.42-.02-.19-.02.15-.1.59.02.17l-.16.62c-.03.09-.18.42 0 .04l-.15.3a8 8 0 0 1-.47.78l-.2.28c.03-.04.19-.24.01-.03l-.55.6a14 14 0 0 1-1.2 1.07l-.1.08-.3.23-.7.5a14 14 0 0 1-1.49.9c-.08.03-.62.27-.32.15a6 6 0 0 1-.75.24l-.28.07c.43-.12.18-.02.03-.01h-.83c-.46-.02.26.07-.2-.02q-.36-.07-.7-.17c-.1-.03-.62-.24-.39-.13.28.14-.09-.06-.15-.1l-.32-.2c-.27-.13.17.1.15.13 0 .02-.22-.23-.25-.25-.23-.16.2.17.13.18-.04 0-.2-.32-.21-.35-.12-.21-.23-.58-.1-.14q-.12-.33-.21-.68l-.07-.26c-.1-.44-.12-.1 0 .01-.09-.09-.02-.57-.02-.68 0-.3.06-.02 0-.01q-.04.26 0 .08l.04-.15c.14-.28-.28.36-.07.15l.2-.3a2.4 2.4 0 0 0-.87-3.3 2.47 2.47 0 0 0-3.28.87Z" class="a"/><path d="M259.37 178.15a5 5 0 0 1 .82-.36l.53-.14c.04-.02.47-.08.11-.04a5 5 0 0 1 .83-.02c.38.02-.34-.09.02 0l.52.15c-.42-.13.13.07.27.15.06.04.41.3.18.11s.1.1.15.15c.11.12.47.56.2.2a8 8 0 0 1 .5.82c.04.05.24.46.13.21s.06.18.08.23q.11.37.2.75c.14.43.03.12.02 0l.02.41c.02.21-.08.44.04-.05l-.04.19q-.1.32 0 .06c-.03-.07.07-.19-.04.03.22-.45.17-.12.02-.07.25-.09-.13.08-.18.12l-.74.57-1.87 1.51c-.75.6-1.67 1.14-2.52 1.76l-2.25 1.69a30 30 0 0 1-2.62 1.8l-.5.3c-.56.32.25-.09-.06.03-.14.05-.56.1-.1.06a8 8 0 0 1-.89 0h-.06q-.3-.04-.57-.12l-.46-.14c-.23-.07.19.13-.17-.07l-.39-.23c-.36-.21.05.08-.1-.1-.05-.05-.32-.38-.13-.13s-.15-.26-.15-.26c-.04-.06-.2-.4-.03 0l-.14-.42-.1-.44c.07.42.01-.1.02-.2 0-.05.04-.54 0-.3-.03.21.11-.39.13-.45a8 8 0 0 1 .6-1.02 2.4 2.4 0 0 0-.86-3.28 2.45 2.45 0 0 0-3.28.86c-2.35 3.3-1.62 8.36 2.21 10.22a8.3 8.3 0 0 0 5.58.7 11 11 0 0 0 3.32-1.81q1.57-1.14 3.12-2.32c1.21-.9 2.49-1.69 3.68-2.64 1.48-1.2 3.45-2.26 4.07-4.17a7.4 7.4 0 0 0-.69-5.4 7.5 7.5 0 0 0-4.13-3.85 8.4 8.4 0 0 0-6.73.81 2.4 2.4 0 1 0 2.42 4.15Z" class="a"/><path d="M252.55 183.57c3.2-2.59 6.26-5.33 9.44-7.93 1.74-1.42 1.85-3.4 1.33-5.47a7.5 7.5 0 0 0-3.59-5c-4.66-2.43-9.54.95-13.04 3.91-3.18 2.7-7.1 6.9-6.3 11.43a7.4 7.4 0 0 0 4.82 5.68c2.83.8 5.26-.93 7.33-2.61a2.4 2.4 0 0 0 0-3.4 2.46 2.46 0 0 0-3.39 0l-.43.35c-.3.24.25-.18-.1.07a11 11 0 0 1-.99.65 2 2 0 0 1-.76.33.5.5 0 0 1-.33.01 2 2 0 0 1-.42-.26c-.06-.06-.61-.7-.42-.43l-.33-.53c-.04-.08-.24-.55-.11-.2l-.15-.47c-.15-.44-.06.2-.06-.3v-.46c-.03.41 0 .05.04-.04.12-.3.24-.69.3-.82a11 11 0 0 1 1.23-2.1c-.16.22.1-.13.11-.14l.45-.52a27 27 0 0 1 2.8-2.75 24 24 0 0 1 4.2-2.83l.57-.3c.02-.01.5-.2.2-.1l.49-.15c.68-.23-.16-.02.25-.06q.31-.02.64-.02c.04 0 .47.02.12-.02l.5.1c.02.01.66.27.36.11l.43.25c-.25-.16.07.06.1.1-.03-.03.45.53.22.22s.14.26.14.26l.2.38c-.18-.36-.01-.03.01.05a10 10 0 0 1 .33 1.1s.1.7.06.32a5 5 0 0 1-.02.64c0-.06.1-.54 0-.17-.02.06.32-.68.34-.64l-.44.36-.88.72c-2.9 2.41-5.73 4.9-8.66 7.28a2.4 2.4 0 0 0 0 3.4 2.46 2.46 0 0 0 3.4 0m-7.12-27.5a6.4 6.4 0 0 0-3.8-4.45 7.1 7.1 0 0 0-6.82 1.5 13 13 0 0 0-3.55 5.53c-.74 1.92-.93 4.04-1.94 5.85-2.1 3.77-6.13 6.22-7.9 10.2-1.64 3.66-1.95 7.92-2.36 11.84-.66 6.47-1 12.98-1.49 19.46a2.4 2.4 0 0 0 2.4 2.4 2.45 2.45 0 0 0 2.4-2.4c.4-5.26.71-10.53 1.15-15.79a70 70 0 0 1 1.57-11.49 17 17 0 0 1 .56-1.79c.16-.43.02-.06-.02.03l.16-.34q.34-.57.72-1.12a51 51 0 0 1 4.01-4.65 20 20 0 0 0 3.42-4.86c.84-1.86 1.13-3.85 1.83-5.76.55-1.49 1.46-3.32 2.93-3.97a1.8 1.8 0 0 1 1.57 0c-.2-.12.09.1.11.14-.2-.24.17.3.19.32.03.06.2.43.04.05l.19.57c.9 2.95 5.54 1.7 4.63-1.27" class="a"/><path d="M242.3 168.02c-.42 3.47-1.95 6.75-2.95 10.07-1.08 3.58-1.63 7.38-.56 11.03.86 2.96 5.5 1.7 4.63-1.27-.94-3.22-.1-6.47.9-9.57a54 54 0 0 0 2.77-10.27 2.4 2.4 0 0 0-2.4-2.4 2.46 2.46 0 0 0-2.4 2.4" class="a"/><path d="M248.45 164.85a18 18 0 0 1-4.2.14l-.37-.04c-.41-.04.34.06-.01 0q-.26-.03-.5-.09a3 3 0 0 1-.86-.29 1.4 1.4 0 0 1-.5-.6c.07.17-.07-.7-.04-.25v-.37l.02-.09a1.4 1.4 0 0 1 .3-.62 5 5 0 0 1 .83-.7c2.35-1.42 5.32-1.77 8.04-1.8a19 19 0 0 1 3.87.3 10 10 0 0 1 2.93.96c.13.08.73.53.4.24.09.08.5.53.34.32-.19-.25.03.02.03.05-.02.3.2.02-.01-.09l.08.26q.06.26-.02-.2l.09.63c-.03-.28 0 .41 0 .53a1 1 0 0 1-.06.56 11 11 0 0 1-.82 2.3 2.47 2.47 0 0 0 .87 3.28 2.4 2.4 0 0 0 3.28-.86 12 12 0 0 0 1.52-5.8l-.09-.7-.06-.44a5 5 0 0 0-.23-1 6 6 0 0 0-1.32-2.04c-2.45-2.43-6.5-3-9.79-3.09-3.86-.1-8.42.37-11.7 2.6-2.93 1.98-4.5 5.85-2.25 9.01 2.52 3.53 7.73 3.12 11.5 2.52a2.4 2.4 0 0 0 1.67-2.95 2.46 2.46 0 0 0-2.95-1.68Zm14.79 29.63A44 44 0 0 1 254.3 205c-1.87 1.6-3.93 2.96-5.76 4.6a28 28 0 0 0-4.83 5.82c-1.66 2.61 2.49 5.03 4.14 2.42a24 24 0 0 1 4.64-5.33c1.86-1.59 3.9-2.96 5.74-4.59a48 48 0 0 0 9.16-11.03c1.6-2.65-2.54-5.06-4.15-2.42Z" class="a"/><path d="M158.26 168.3c8.58-1.87 14.56-10.47 14.5-18a53 53 0 0 0-2.94-17.09c-2.4-7.51-7.09-22.76-7.42-50.04.67-7.68-.03-18.77-.33-23.03-1.05-14.78-7.66-31.28-17.16-40.45-4.11-3.96-5.3-5.81-9.78-8.24L124.39 6.2c-6.6-2.55-12.75-3.77-24.34-3.77-19.01 0-35.93 9.8-43.44 16.98-12.46 11.93-20.36 33.7-19.37 63.74.01 21.9-1.66 37.68-4 46.65a69 69 0 0 0-.95 4.28 56 56 0 0 0-2.73 16.3c-.09 4.74.73 10.07 4.53 12.92 2.53 2.22 6.83 4.88 11.46 5Z" style="fill:#957f6e"/><path d="M79.9 148.33a43 43 0 0 0 .3-6.9 41.6 41.6 0 0 1-15.24-11.91 49 49 0 0 1-9.45-18.53 11.7 11.7 0 0 1-7.49-2.67 18.5 18.5 0 0 1-4.77-6.26A29 29 0 0 1 40.3 86.7a10 10 0 0 1 1.01-3.9 6.9 6.9 0 0 1 4.93-3.27 7.2 7.2 0 0 1 5.43 1.4c3.51-1.43 13.3-5.93 15.9-7.47a118 118 0 0 0 12.26-8.24 50 50 0 0 0 6.46-1.19 49 49 0 0 0 4.8-1.26c12.33-4 26.18-12.53 32.4-20.14 1.32 7.07 3.34 14.07 10.43 24.13 3.44 4.89 8.44 11 15.44 14.47a7.3 7.3 0 0 1 5.8-1.7 6.9 6.9 0 0 1 4.92 3.27 10 10 0 0 1 1.01 3.9 29 29 0 0 1-2.96 15.37 18.5 18.5 0 0 1-4.76 6.26 12 12 0 0 1-5.69 2.56l-.97.15c-.47 1.75-1 3.22-1.25 4-1.7 4.63-11.48 20.99-23.63 26.2-.02 3.28-.1 7.05 1.06 9.89.87 2.15 4.95 5.34 9.24 8.24 0 0 2.2 34.13-31.47 34.13-32.11 0-31.18-34.34-31.18-34.34 4.58-2.84 8.83-5.93 9.68-8.03a13 13 0 0 0 .73-2.79" class="c"/><path d="M34.84 83.16c0 12.76-.35 25.86-2.35 38.36a86 86 0 0 1-1.2 6.18c-.31 1.32-.66 2.62-.95 3.94-.41 1.92-1 3.78-1.47 5.68a60 60 0 0 0-1.67 11.89 27 27 0 0 0 1.02 9.5c2.3 6.95 10.22 11.7 17.34 12 3.08.12 3.08-4.68 0-4.8a16 16 0 0 1-8.42-3.22 10.6 10.6 0 0 1-4.45-5.76 26 26 0 0 1-.63-8.9A53 53 0 0 1 33.92 137a152 152 0 0 0 4.97-30.24c.56-7.85.75-15.72.75-23.6 0-3.09-4.8-3.09-4.8 0m125.16 0a184 184 0 0 0 4.28 39.15q1.24 5.34 2.91 10.56a75 75 0 0 1 2.45 9.24 32 32 0 0 1 .59 10.22 17 17 0 0 1-12.6 13.66c-3.01.7-1.74 5.32 1.27 4.63a21.6 21.6 0 0 0 14.69-12.81c2.84-6.77 1.47-14.88-.4-21.74-1.1-4.02-2.5-7.95-3.54-12a143 143 0 0 1-3.03-15.4 199 199 0 0 1-1.82-25.5c-.04-3.09-4.84-3.1-4.8 0Z" class="a"/><path d="M151.05 82.92a4.75 4.75 0 0 1 6.77.79 8 8 0 0 1 .95 4.29 26 26 0 0 1-.3 5.26c-1.07 6.35-4.37 14.08-11.43 15.31a2.4 2.4 0 0 0-1.68 2.95 2.46 2.46 0 0 0 2.96 1.68c9.7-1.7 14.35-12.7 15.15-21.48.4-4.24.28-9.54-3.3-12.47a9.7 9.7 0 0 0-12.51.27 2.4 2.4 0 0 0 0 3.4 2.45 2.45 0 0 0 3.39 0" class="a"/><path d="M145.2 105.49a24 24 0 0 1-1.13 6.02q-.35 1.16-.73 2.3l-.24.7c-.16.47-.1.24-.03.1a51 51 0 0 1-3.24 5.92 58 58 0 0 1-12.83 14.8 24 24 0 0 1-9.47 4.78c-3 .7-1.73 5.32 1.28 4.63 7.3-1.69 13.43-6.95 18.24-12.46a63 63 0 0 0 10.02-14.92A32 32 0 0 0 150 105.5c.1-3.1-4.7-3.09-4.8 0M53.73 79.52a9.7 9.7 0 0 0-12.52-.27c-3.58 2.93-3.69 8.23-3.3 12.48.8 8.76 5.45 19.78 15.16 21.47a2.47 2.47 0 0 0 2.95-1.68 2.4 2.4 0 0 0-1.67-2.95c-7.07-1.23-10.37-8.96-11.44-15.3a26 26 0 0 1-.3-5.27 8.3 8.3 0 0 1 .95-4.3 4.75 4.75 0 0 1 6.78-.79 2.46 2.46 0 0 0 3.39 0 2.4 2.4 0 0 0 0-3.39" class="a"/><path d="M52.18 107.44c3.07 14.52 11.64 28.67 25.32 35.38a34 34 0 0 0 11.66 3.34 2.4 2.4 0 0 0 2.4-2.4 2.45 2.45 0 0 0-2.4-2.4c-13.46-1.4-24.48-13.04-29.32-25.05a61 61 0 0 1-3.03-10.14c-.64-3.02-5.27-1.74-4.63 1.27M125.03 3.9C116.28.55 106.73-.33 97.41.1a70 70 0 0 0-30.72 9.13 54 54 0 0 0-17.62 15.26 70 70 0 0 0-10.5 22.72c-3.2 11.66-4.1 23.9-3.72 35.96.1 3.08 4.9 3.1 4.8 0-.58-18.2 1.65-37.86 11.7-53.53a47 47 0 0 1 14.8-14.5A66 66 0 0 1 93.5 5.22a79 79 0 0 1 17.94.18 51 51 0 0 1 12.3 3.13 2.4 2.4 0 0 0 2.96-1.68 2.45 2.45 0 0 0-1.68-2.95m39.77 79.27a126 126 0 0 0 .06-16.47 106 106 0 0 0-1.44-14.62c-2.08-11.13-6.63-22.25-13.94-30.98-1.92-2.3-4.13-4.35-6.24-6.46a31 31 0 0 0-6.9-5.26c-2.7-1.5-5.13 2.65-2.42 4.14a25 25 0 0 1 5.45 4.05c1.87 1.83 3.78 3.64 5.54 5.58a52 52 0 0 1 8.46 13.13 71 71 0 0 1 5.11 15.5A89 89 0 0 1 160 65.51a131 131 0 0 1 0 17.66 2.4 2.4 0 0 0 2.4 2.4 2.45 2.45 0 0 0 2.4-2.4m-45.38 58.06a51 51 0 0 0 .21 6.34 12.5 12.5 0 0 0 1.7 5.67c2.37 3.42 6.2 5.89 9.58 8.19a2.4 2.4 0 1 0 2.43-4.15 65 65 0 0 1-4.73-3.45 29 29 0 0 1-2.7-2.5l-.38-.43c-.24-.29.27.44-.06-.09q-.23-.34-.41-.69c-.14-.26.13.39-.01-.04l-.22-.67a14 14 0 0 1-.45-2.3 54 54 0 0 1-.16-5.88c.02-3.09-4.78-3.1-4.8 0" class="a"/><path d="M77.8 141.44a51 51 0 0 1-.16 5.76 14 14 0 0 1-.49 2.36l-.22.66c.06-.15.14-.23.02-.04-.08.13-.55.81-.21.39-2.2 2.77-5.51 4.65-8.48 6.5a2.4 2.4 0 1 0 2.42 4.14 72 72 0 0 0 5.67-3.84 21 21 0 0 0 4.28-4.05 11 11 0 0 0 1.7-5.2 48 48 0 0 0 .27-6.68c-.02-3.09-4.82-3.1-4.8 0m15.28-93.57A65 65 0 0 1 77.3 64.13 99 99 0 0 1 60.14 74.5q-2.48 1.17-4.97 2.3l-2.2.98-.98.42-.33.15-.24.1a2.5 2.5 0 0 0-1.67 2.95 2.4 2.4 0 0 0 2.95 1.68 147 147 0 0 0 15.81-7.4A98 98 0 0 0 88.55 60.8a63 63 0 0 0 8.68-10.52c1.69-2.6-2.47-5-4.15-2.42" class="a"/><path d="M79.91 67.6c13.58-1.62 26.75-7.78 37.53-16.07a48 48 0 0 0 7.58-7 2.47 2.47 0 0 0 0-3.4 2.4 2.4 0 0 0-3.4 0c-5.02 5.96-11.9 10.37-18.73 13.98-7.14 3.77-14.9 6.73-22.98 7.68a2.5 2.5 0 0 0-2.4 2.4 2.4 2.4 0 0 0 2.4 2.4" class="a"/><path d="M150.56 79.15c-7.2-3.64-12.4-10.06-16.68-16.74A56 56 0 0 1 126 43.08a2.4 2.4 0 1 0-4.63 1.27 57 57 0 0 0 5.51 15.63A69 69 0 0 0 138.6 76.2a37 37 0 0 0 9.54 7.08c2.75 1.39 5.18-2.75 2.42-4.15Z" class="a"/><path d="M98.65 242.9q1.31 3.56 2.59 7.1c4.93-13.77 8.55-23.52 13.4-37.05 6.42-17.88 14.07-38.47 18.55-56.8l4.49 3.05.78.6c9.85 6.29 23.43 9.72 34.33 14.99 2.98 1.44 6.46 2.11 8.72 4.52a25 25 0 0 1 5.24 8.55c7.1 18.56 7.98 28.7 15.87 48.32 2.94-7.01 5.69-13.83 8.73-21.3 9.68 5.1 25.11 12.17 34.79 14.27-4.83 15.45-9.67 32.07-16.47 47.54-4.72 10.75-11.2 20.77-22.55 23.76a29 29 0 0 1-25.07-4.6c-6.13-4.49-12.89-13.57-17.14-18.94l-.24-.3v2.81c0 6.94 2.54 30.24 3.58 44.44H2.4c2.96-58.96 5.73-110.22 11.33-128.89 1.6-5.37 3.64-10.11 6.32-12.26s7.15-3.58 10.25-5.07c9.05-4.37 20.95-9.72 28.55-14.3a60 60 0 0 1 4.63-3.93l4.6-3.11.07-.06c5.95 17.68 12.79 38.09 19.18 55.9 3.6 10.02 7.55 20.51 11.31 30.75" class="b"/><path d="M100.3 181.95h-.63a102 102 0 0 1-23.18-3.33l-.89-.31c3.88 11.44 7.9 23.1 11.74 33.84 4.43 12.34 9.4 25.4 13.9 37.84 4.93-13.77 8.56-23.52 13.41-37.04 4.06-11.32 8.62-23.72 12.55-35.96l-2.4.94c-7.02 2.8-17.14 3.97-24.5 4.02m145.95 36.9c-3.29-1.21-20.92-7.7-28.17-11.41-.82 1.65-2.56 5.71-3.62 7.9l-.46.92c8.58 4.37 20.3 9.63 29 12.1.25-.6.42-1.05.44-1.11.93-2.75 2.76-7.5 3.12-8.29Z" class="c"/><path d="M245.76 227.88q.92-2.33 1.77-4.69l.74-2.04.33-.88c.07-.18.39-.93.02-.1a2.45 2.45 0 0 0-1.43-3.53q-6.08-2.24-12.13-4.57a171 171 0 0 1-15.77-6.71 2.43 2.43 0 0 0-3.28.86c-1.28 2.6-2.36 5.3-3.62 7.9a2.47 2.47 0 0 0 .86 3.29 2.4 2.4 0 0 0 3.28-.87c1.26-2.6 2.34-5.3 3.63-7.9l-3.29.87c5.36 2.72 11.03 4.89 16.62 7.07q6.19 2.41 12.42 4.7l-1.43-3.53c-1.26 2.89-2.17 5.93-3.35 8.85a2.4 2.4 0 0 0 1.67 2.96 2.46 2.46 0 0 0 2.95-1.68ZM75.85 180.94a94 94 0 0 0 25.2 3.4c8.14-.13 16.76-1.1 24.39-4.1a2.47 2.47 0 0 0 1.68-2.95 2.4 2.4 0 0 0-2.96-1.67c-7.26 2.84-15.35 3.8-23.11 3.92a89 89 0 0 1-23.92-3.23c-2.99-.8-4.26 3.83-1.28 4.63m13.74 79.88a6 6 0 0 1 .73.78l-.37-.48a5 5 0 0 1 .6 1.01l-.24-.57a5 5 0 0 1 .34 1.22l-.09-.64a5 5 0 0 1 0 1.36l.09-.64a6 6 0 0 1-.4 1.44l.24-.57a5 5 0 0 1-.57 1.01l.37-.48a4 4 0 0 1-.75.75l.48-.38a5 5 0 0 1-1.07.62l.57-.24a6 6 0 0 1-1.4.37l.64-.08a6 6 0 0 1-1.64 0l.64.08a6 6 0 0 1-1.34-.36l.57.25a5 5 0 0 1-.91-.53l.48.38a5 5 0 0 1-.89-.89l.38.49a5 5 0 0 1-.6-1.02l.24.57a4 4 0 0 1-.25-.96l.08.64a5 5 0 0 1 0-1.17l-.09.64a6 6 0 0 1 .4-1.42l-.24.57a7 7 0 0 1 .93-1.55l-.38.49a5 5 0 0 1 .72-.74l-.49.38a5 5 0 0 1 .98-.58l-.57.25a6 6 0 0 1 1.44-.4l-.64.1a6 6 0 0 1 1.42 0l-.63-.1a5 5 0 0 1 1.16.32l-.57-.24a4 4 0 0 1 .96.55l-.49-.37za2.6 2.6 0 0 0 1.7.7 2.4 2.4 0 0 0 1.7-4.1 7 7 0 0 0-4.59-1.75 7.5 7.5 0 0 0-4.18 1.14 8 8 0 0 0-3.36 8.07 7 7 0 0 0 2.86 4.06 7.8 7.8 0 0 0 10.76-2.45 8 8 0 0 0 .9-4.17 7.4 7.4 0 0 0-2.4-4.9 2.4 2.4 0 0 0-3.4 3.4Zm12.53 63.04c2-18.37 4.23-36.68 5.06-55.14a45 45 0 0 0-.28-8.38 41 41 0 0 0-2.5-8.67 2.47 2.47 0 0 0-2.96-1.68 2.4 2.4 0 0 0-1.68 2.95 43 43 0 0 1 2.35 7.62 34 34 0 0 1 .3 7.15c-.18 4.97-.53 9.94-.88 14.9-.61 8.9-1.6 17.78-2.58 26.65l-1.63 14.6a2.4 2.4 0 0 0 2.4 2.4 2.46 2.46 0 0 0 2.4-2.4m38.64-159.93c6.08 3.23 12.58 5.58 19 8.02a183 183 0 0 1 9.14 3.67c1.44.64 2.85 1.35 4.3 1.95 1.34.56 2.74 1.01 4.05 1.66 5.59 2.76 7.56 10.03 9.43 15.45 2.05 5.9 3.77 11.92 5.5 17.93 2.01 7.03 4.2 14 6.8 20.83a2.47 2.47 0 0 0 2.95 1.68 2.4 2.4 0 0 0 1.68-2.96c-4.64-12.14-7.59-24.8-11.73-37.1-2.12-6.28-4.2-13.77-9.5-18.21-2.45-2.06-5.53-2.8-8.37-4.13a154 154 0 0 0-9.27-3.97c-7.24-2.84-14.67-5.3-21.56-8.96-2.72-1.45-5.15 2.69-2.42 4.14M4.8 323.86c1.45-28.63 2.77-57.3 5.2-85.86.84-9.93 1.8-19.94 3.33-29.55.55-3.46 1.18-6.91 2.03-10.3a61 61 0 0 1 2.02-6.51c.92-2.47 2.09-5.31 4.17-7.05 2.53-2.11 6.04-3.1 9.01-4.43 3.3-1.47 6.53-3.1 9.78-4.65 6.66-3.16 13.37-6.29 19.7-10.07 2.65-1.59.24-5.74-2.42-4.15-5.72 3.42-11.76 6.3-17.77 9.16l-9 4.28c-2.9 1.4-5.94 2.53-8.83 3.97a15.5 15.5 0 0 0-6.63 5.94 41 41 0 0 0-3.83 9.26 85 85 0 0 0-2.3 9.93c-1.7 9.54-2.7 19.2-3.59 28.84-1.2 13-2.06 26.02-2.85 39.04A5059 5059 0 0 0 0 323.86c-.16 3.09 4.64 3.08 4.8 0" class="a"/><path d="M130.78 155.89c-3.06 12.37-7.1 24.49-11.32 36.5-4.2 11.96-8.54 23.88-12.87 35.79q-3.63 9.96-7.22 19.93a2.4 2.4 0 0 0 1.68 2.95 2.45 2.45 0 0 0 2.95-1.67c8.6-23.95 17.8-47.74 25.58-71.97a309 309 0 0 0 5.83-20.25c.74-3-3.89-4.28-4.63-1.28" class="a"/><path d="M118.86 244.57q9.05-12.94 17.49-26.3 4.26-6.76 8.36-13.62c2.67-4.47 5.45-8.93 7.86-13.55a4.5 4.5 0 0 0 .18-4.32 14 14 0 0 0-2.82-3.17q-3.2-3.12-6.55-6.08l-.49 3.77c1.98-1.18 3.93-2.4 5.95-3.51 1.97-1.08 4.77-1.98 4.05-4.85a16 16 0 0 0-2.85-4.99 40 40 0 0 0-3.7-4.4 75 75 0 0 0-12.05-9.54c-2.56-1.74-4.96 2.42-2.42 4.15l2.9 1.96a38 38 0 0 1 3.43 2.52 53 53 0 0 1 5.84 5.47 28 28 0 0 1 2.31 2.9q.5.73.95 1.49.26.42.5.85c.05.1.38.83.38.62l.33-1.21-.17.26.87-.86a42 42 0 0 1-4.2 2.28c-1.53.88-3.02 1.81-4.54 2.7a2.42 2.42 0 0 0-.48 3.78q2.71 2.43 5.36 4.94 1.27 1.22 2.5 2.47c.06.06.52.63.65.67-.08-.02.02-.5 0-.47q-.4.78-.87 1.54-3.7 6.53-7.56 12.97-7.6 12.7-15.79 25.05-4.7 7.09-9.57 14.05a2.4 2.4 0 0 0 .86 3.28 2.45 2.45 0 0 0 3.29-.86Zm-81.3 79.3c.76-10.14 1.8-20.25 2.67-30.37.34-3.98.7-7.97.87-11.97a55 55 0 0 0-.43-8.48c-1.98-17.45-5.83-34.6-8.59-51.93-.93-5.9-1.82-11.8-2.8-17.68a93 93 0 0 0-2.42-11.92c-.9-2.94-5.53-1.69-4.62 1.28a82 82 0 0 1 2.11 10.16c.88 5.1 1.66 10.23 2.46 15.35 1.41 9 3.05 17.95 4.68 26.91a494 494 0 0 1 4.07 25.29 69 69 0 0 1 .79 9.22c-.03 3.5-.36 7.01-.65 10.5-.91 11.22-2.1 22.4-2.93 33.63a2.4 2.4 0 0 0 4.8 0m137.76-132.94c-2.49 18.43-4.85 36.83-8.18 55.12a506 506 0 0 0-4.2 25.63 57 57 0 0 0-.66 8.71c.09 3.55.4 7.1.7 10.64.9 10.95 2.06 21.88 2.87 32.83a2.46 2.46 0 0 0 2.4 2.4 2.4 2.4 0 0 0 2.4-2.4c-.72-9.8-1.72-19.56-2.57-29.34-.59-6.7-1.39-13.42-.66-20.12.86-7.93 2.4-16.21 3.85-24.28 1.6-8.87 3.18-17.73 4.49-26.65q1.34-9.28 2.55-18.58l.95-7.42.4-3.16.19-1.35.1-.75a2.5 2.5 0 0 0-1.68-2.95 2.4 2.4 0 0 0-2.95 1.67M65.91 157.1c8.37 24.91 16.84 49.78 25.98 74.43q4 10.7 7.87 21.44a2.46 2.46 0 0 0 2.95 1.68 2.4 2.4 0 0 0 1.68-2.95c-4.58-12.77-9.42-25.44-14.03-38.2a1939 1939 0 0 1-12.9-37.15l-6.91-20.55c-.97-2.91-5.61-1.66-4.62 1.28Z" class="a"/><path d="M86.62 242.67q-17.06-24.37-31.86-50.2l-1.06-1.87-.47-.82c-.06-.11-.42-.93-.38-.6 0 .06.04.3-.02.35.34-.3.66-.68.98-1l1.33-1.32a205 205 0 0 1 6.2-5.76 2.42 2.42 0 0 0-.48-3.77q-2.25-1.37-4.53-2.7a42 42 0 0 1-4.2-2.29l.86.86-.16-.26.32 1.21c0 .18.25-.37.3-.45l.47-.86q.5-.86 1.04-1.68a31 31 0 0 1 2.26-3 48 48 0 0 1 5.76-5.63 34 34 0 0 1 3.42-2.55l2.9-1.96c2.54-1.72.14-5.88-2.43-4.14a67 67 0 0 0-11.97 9.68 42 42 0 0 0-3.63 4.52 18 18 0 0 0-2.82 5.04c-.74 2.77 1.93 3.7 3.84 4.74 2.1 1.13 4.1 2.4 6.15 3.61l-.48-3.76a212 212 0 0 0-5.88 5.43c-1.73 1.67-4.15 3.48-3.98 6.15a8 8 0 0 0 1.45 3.39l2.13 3.72q1.9 3.3 3.85 6.58 8.1 13.66 16.85 26.92 4.94 7.5 10.1 14.84a2.47 2.47 0 0 0 3.28.87 2.4 2.4 0 0 0 .86-3.29m109.72 13.94c6.12-13.55 11.71-27.32 17.32-41.09l-3.52 1.44q8.61 4.53 17.58 8.33a103 103 0 0 0 17.78 6.17l-1.67-2.95c-2.95 9.43-5.78 18.88-9 28.22-3.02 8.74-6.16 17.68-10.7 25.77-3.55 6.35-8.47 12.44-15.53 14.98a27.1 27.1 0 0 1-23.79-2.65c-3.78-2.42-6.89-5.83-9.8-9.2s-5.64-6.92-8.4-10.41a2.4 2.4 0 0 0-3.4 0 2.46 2.46 0 0 0 0 3.39c5.24 6.62 10.31 13.74 17.09 18.9a31.7 31.7 0 0 0 25.7 5.67c18.69-3.87 25.9-24.24 31.65-40.07 3.99-10.98 7.32-22.17 10.8-33.32a2.4 2.4 0 0 0-1.67-2.95 98 98 0 0 1-17-5.84q-8.77-3.73-17.21-8.18a2.45 2.45 0 0 0-3.53 1.43c-5.45 13.38-10.9 26.76-16.84 39.94a2.47 2.47 0 0 0 .86 3.28 2.4 2.4 0 0 0 3.28-.86M92.84 120.34a19.4 19.4 0 0 0 9.34 2.16 15.2 15.2 0 0 0 9.43-2.78 2.4 2.4 0 0 0 0-3.39 2.46 2.46 0 0 0-3.4 0c.73-.57.16-.13-.03 0s-.38.22-.58.33c-.16.08-.87.36-.22.12l-.8.3a14 14 0 0 1-2.23.5c.35-.05-.09.01-.22.02a21 21 0 0 1-4.33 0l-.32-.04a16 16 0 0 1-2.08-.46q-.44-.14-.87-.3c-.61-.2.35.19-.2-.07l-1.07-.53a2.45 2.45 0 0 0-3.28.86 2.43 2.43 0 0 0 .86 3.28m8.14-22.04a44 44 0 0 1 1.03 4.73l-.08-.64a3 3 0 0 1 .01.66l.09-.64-.07.3.24-.58-.1.19.38-.49-.16.15.49-.37-.38.2.57-.24a3 3 0 0 1-.63.18l.64-.08a3 3 0 0 1-.6 0l.65.08-.67-.11a2 2 0 0 0-.96-.05 2 2 0 0 0-.89.29 2.4 2.4 0 0 0-.86 3.28 2.3 2.3 0 0 0 1.43 1.1c.51.07 1 .2 1.52.22a5 5 0 0 0 2.22-.53 3.2 3.2 0 0 0 1.78-2.11 5 5 0 0 0-.02-2.29 53 53 0 0 0-1-4.53 2.4 2.4 0 1 0-4.63 1.28M75.93 84.9c-.79 2.57-.28 8.48 4.59 8.98 6.43-.04 6.77-7.18 4.6-10.54-1.76-2.75-6.98-3.9-9.19 1.56m51.5 0c.78 2.57.27 8.48-4.6 8.98-6.43-.04-6.77-7.18-4.6-10.54 1.77-2.75 6.98-3.9 9.2 1.56" class="a"/></svg>
