<svg xmlns="http://www.w3.org/2000/svg" fill="currentColor" style="fill-rule:evenodd;clip-rule:evenodd;stroke-linejoin:round;stroke-miterlimit:2" viewBox="0 0 1069 1069"><path id="Power" d="M1.17 1.59h1066.67v1066.67H1.17z" style="fill:none"/><path d="M667.32 424.8a176.4 176.4 0 0 1 44.26 117.07c0 97.73-79.35 177.08-177.08 177.08S357.42 639.6 357.42 541.87c0-45.33 17.07-86.71 45.13-118.05a31.26 31.26 0 0 0-2.43-44.12 31.27 31.27 0 0 0-44.13 2.43 238.7 238.7 0 0 0-61.07 159.74c0 132.23 107.35 239.58 239.58 239.58S774.08 674.1 774.08 541.87a238.6 238.6 0 0 0-59.9-158.42 31.26 31.26 0 0 0-44.1-2.76 31.27 31.27 0 0 0-2.76 44.11" style="fill-opacity:.5"/><path d="M534.5 87C287.29 87 86.58 287.72 86.58 534.93s200.7 447.92 447.92 447.92c247.21 0 447.92-200.7 447.92-447.92 0-247.2-200.7-447.91-447.92-447.91m0 62.5c212.72 0 385.42 172.7 385.42 385.42s-172.7 385.4-385.42 385.4-385.42-172.7-385.42-385.42c0-212.71 172.7-385.41 385.42-385.41m31.25 427.09v-250a31.26 31.26 0 0 0-62.5 0v250a31.26 31.26 0 0 0 62.5 0"/></svg>
