<svg xmlns="http://www.w3.org/2000/svg" fill="currentColor" viewBox="0 0 32 32"><path d="M1 32h30a1 1 0 0 0 1-1V1a1 1 0 0 0-1-1H1a1 1 0 0 0-1 1v30a1 1 0 0 0 1 1M2 2h28v28H2Z"/><path d="M25.55 5.45H6.45a1 1 0 0 0-1 1v2.73a1 1 0 0 0 1 1h19.1a1 1 0 0 0 1-1V6.45a1 1 0 0 0-1-1m-1 2.73H7.45v-.73h17.1ZM9.18 13.64H6.45a1 1 0 0 0-1 1v2.72a1 1 0 0 0 1 1h2.73a1 1 0 0 0 1-1v-2.72a1 1 0 0 0-1-1m-1 2.72h-.73v-.72h.73Zm9.18-2.72h-2.72a1 1 0 0 0-1 1v2.72a1 1 0 0 0 1 1h2.72a1 1 0 0 0 1-1v-2.72a1 1 0 0 0-1-1m-1 2.72h-.72v-.72h.72Zm9.19-2.72h-2.73a1 1 0 0 0-1 1v10.91a1 1 0 0 0 1 1h2.73a1 1 0 0 0 1-1V14.64a1 1 0 0 0-1-1m-1 10.91h-.73v-8.91h.73ZM9.18 21.82H6.45a1 1 0 0 0-1 1v2.73a1 1 0 0 0 1 1h2.73a1 1 0 0 0 1-1v-2.73a1 1 0 0 0-1-1m-1 2.73h-.73v-.73h.73Zm9.18-2.73h-2.72a1 1 0 0 0-1 1v2.73a1 1 0 0 0 1 1h2.72a1 1 0 0 0 1-1v-2.73a1 1 0 0 0-1-1m-1 2.73h-.72v-.73h.72Z"/></svg>
