<svg xmlns="http://www.w3.org/2000/svg" fill="none" viewBox="0 0 24 24"><path fill="currentColor" d="M7 11a1 1 0 1 1 2 0 1 1 0 0 1-2 0m0 5a1 1 0 1 1 2 0 1 1 0 0 1-2 0m4-5a1 1 0 1 1 2 0 1 1 0 0 1-2 0m0 5a1 1 0 1 1 2 0 1 1 0 0 1-2 0m4-5a1 1 0 1 1 2 0 1 1 0 0 1-2 0m0 5a1 1 0 1 1 2 0 1 1 0 0 1-2 0"/><path fill="currentColor" fill-rule="evenodd" d="M8 2a1 1 0 0 1 1 1v1h6V3a1 1 0 1 1 2 0v1a5 5 0 0 1 5 5v8a5 5 0 0 1-5 5H7a5 5 0 0 1-5-5V9a5 5 0 0 1 5-5V3a1 1 0 0 1 1-1M7 6a3 3 0 0 0-3 3v8a3 3 0 0 0 3 3h10a3 3 0 0 0 3-3V9a3 3 0 0 0-3-3 1 1 0 1 1-2 0H9a1 1 0 1 1-2 0" clip-rule="evenodd"/></svg>
