<svg xmlns="http://www.w3.org/2000/svg" fill="none" viewBox="0 0 24 24"><path stroke="currentColor" stroke-linecap="round" stroke-linejoin="round" stroke-miterlimit="10" stroke-width="1.5" d="M8 2v3m8-3v3M3.5 9.09h17M18 23a4 4 0 1 0 0-8 4 4 0 0 0 0 8m1.49-3.95h-2.98M18 17.59v2.99"/><path stroke="currentColor" stroke-linecap="round" stroke-linejoin="round" stroke-miterlimit="10" stroke-width="1.5" d="M21 8.5v7.86A3.98 3.98 0 0 0 14 19a4 4 0 0 0 1.37 3H8c-3.5 0-5-2-5-5V8.5c0-3 1.5-5 5-5h8c3.5 0 5 2 5 5"/></svg>
