<svg xmlns="http://www.w3.org/2000/svg" viewBox="0 0 32 32"><defs><style>.cls-2{fill:#17061c}</style></defs><g id="calendar"><path id="bg" d="M.02-.29h32v32h-32z" style="fill:none"/><path d="M25 29H7a5 5 0 0 1-5-5V10.51a5 5 0 0 1 5-5h18a5 5 0 0 1 5 5V24a5 5 0 0 1-5 5M7 7.51a3 3 0 0 0-3 3V24a3 3 0 0 0 3 3h18a3 3 0 0 0 3-3V10.51a3 3 0 0 0-3-3Z" class="cls-2"/><path d="M13 7.51c-1 0-1-.76-1-3v-.42a3 3 0 0 1 0-.75 1 1 0 0 1 1-.93c1.08 0 1.08 1.28 1.08 2.1.02 2.3.02 3-1.08 3m6 0c-1 0-1-.76-1-3v-.42a3 3 0 0 1 0-.75 1 1 0 0 1 1-.93c1.08 0 1.08 1.28 1.08 2.1.02 2.3.02 3-1.08 3m10 4H3a1 1 0 1 1 0-2h26a1 1 0 0 1 0 2" class="cls-2"/><circle cx="15.6" cy="18.06" r="2.7" style="fill:#ff4a64"/><path d="M15.6 21.76a3.7 3.7 0 1 1 3.7-3.7 3.7 3.7 0 0 1-3.7 3.7m0-5.4a1.7 1.7 0 1 0 1.7 1.7 1.7 1.7 0 0 0-1.7-1.7" class="cls-2"/><path d="M20.36 24.48a1 1 0 0 1-.78-.36l-2.86-3.5a1 1 0 0 1 1.55-1.27l2.86 3.5a1 1 0 0 1-.14 1.4 1 1 0 0 1-.63.23" class="cls-2"/></g></svg>
