<svg xmlns="http://www.w3.org/2000/svg" fill="none" viewBox="0 0 24 24"><path stroke="currentColor" stroke-miterlimit="10" stroke-width="1.5" d="M21.97 18.33q0 .54-.25 1.09-.25.54-.68 1.02a4.5 4.5 0 0 1-1.64 1.18q-.9.38-1.95.38a8 8 0 0 1-3.26-.73 18 18 0 0 1-3.44-1.98 29 29 0 0 1-3.28-2.8 28 28 0 0 1-2.79-3.27 18 18 0 0 1-1.96-3.41A8 8 0 0 1 2 6.54q0-1.02.36-1.93a5 5 0 0 1 1.15-1.67A3 3 0 0 1 5.59 2q.43 0 .81.18.4.17.67.56l2.32 3.27q.27.37.4.7.14.32.14.61 0 .36-.21.71a3 3 0 0 1-.56.71l-.76.79a.5.5 0 0 0-.16.4q0 .12.03.23l.08.2q.27.5.93 1.28.67.78 1.45 1.58.8.8 1.59 1.47.78.66 1.29.92l.18.08q.12.04.25.04.25 0 .41-.17l.76-.75q.38-.38.72-.56.34-.21.71-.21.28 0 .61.13t.7.39l3.31 2.35q.39.27.55.64t.16.78Z"/><path stroke="currentColor" stroke-linecap="round" stroke-linejoin="round" stroke-width="1.5" d="M18.5 9c0-.6-.47-1.52-1.17-2.27-.64-.69-1.49-1.23-2.33-1.23M22 9a7 7 0 0 0-7-7"/></svg>
