<svg xmlns="http://www.w3.org/2000/svg" fill="currentColor" viewBox="0 0 32 32"><path d="M31.26 24.11c-.49-.34-5.85-3.9-6.5-4.3a2 2 0 0 0-1.02-.26 3.4 3.4 0 0 0-1.56.42c-.51.27-2.07 1.16-2.84 1.6a38 38 0 0 1-4.74-4.18 38 38 0 0 1-4.18-4.75c.44-.76 1.33-2.32 1.6-2.84.5-.97.57-1.94.15-2.59-.39-.61-3.94-6-4.3-6.5a2 2 0 0 0-1.64-.73c-.52 0-1.09.16-1.57.5C4.6.5-.1 3.92-.04 5.86c.18 5.45 5.48 11.86 9.89 16.27s10.82 9.72 16.3 9.89h.04c1.91 0 5.28-4.65 5.31-4.7.89-1.25.56-2.65-.24-3.2zm-1.38 2.05c-1.27 1.76-3.07 3.6-3.77 3.86-3.76-.18-9.02-3.47-14.84-9.3S2.13 9.64 1.97 5.9c.25-.7 2.09-2.52 3.83-3.78a1 1 0 0 1 .44-.14h.08c.56.82 3.58 5.4 4.13 6.25 0 .09-.03.32-.2.64-.18.35-.75 1.36-1.56 2.78l-.63 1.1.73 1.04c.54.77 1.84 2.45 4.4 5.01a40 40 0 0 0 5 4.4l1.04.73 1.1-.63 2.78-1.56a1.4 1.4 0 0 1 .66-.2c.77.49 5.44 3.59 6.26 4.15a.7.7 0 0 1-.15.47m-9.76-14.4a.7.7 0 0 0 .51.21H21l.02-.01 7.17.03c.4 0 .74-.34.75-.75v-.51a.8.8 0 0 0-.84-.75h-4.74l8.19-8.18A1 1 0 0 0 30.13.38l-8.2 8.2.02-4.84a.7.7 0 0 0-.71-.75h-.52c-.4.02-.73.26-.74.66l-.02 7.22.02.02-.04.36q0 .31.18.52z"/></svg>
