<svg xmlns="http://www.w3.org/2000/svg" fill="none" viewBox="0 0 24 24"><path stroke="currentColor" stroke-linecap="round" stroke-width="1.5" d="M15 13H9m3-3v6m7-6h-1M2 13.36c0-3.06 0-4.6.75-5.7a4 4 0 0 1 1.23-1.2c.72-.47 1.62-.64 3-.7a1.4 1.4 0 0 0 1.35-1.12A2.06 2.06 0 0 1 10.37 3h3.26c1 0 1.84.68 2.04 1.64.13.63.7 1.12 1.35 1.12 1.38.06 2.28.23 3 .7q.73.49 1.23 1.2c.75 1.1.75 2.64.75 5.7s0 4.6-.75 5.7a4 4 0 0 1-1.23 1.2c-1.12.74-2.68.74-5.8.74H9.78c-3.12 0-4.68 0-5.8-.74a4 4 0 0 1-1.23-1.2A3 3 0 0 1 2.28 18"/></svg>
