<svg xmlns="http://www.w3.org/2000/svg" viewBox="0 0 32 32"><defs><style>.cls-3{fill:#17061c}</style></defs><g id="camera"><path id="bg" d="M0 0h32v32H0z" style="fill:none"/><path d="m10.88 17.67-8.09 5.42V12.25z" style="fill:#ff4a64"/><path d="M2.79 24.09a1 1 0 0 1-.47-.09 1 1 0 0 1-.53-.88V12.25a1 1 0 0 1 1.55-.83l8.1 5.42a1 1 0 0 1 .44.83 1 1 0 0 1-.44.83l-8.1 5.42a1 1 0 0 1-.55.17m1-10v7.1l5.29-3.55Z" class="cls-3"/><path d="M27.21 25H12.88a3 3 0 0 1-3-3v-8.67a3 3 0 0 1 3-3h14.33a3 3 0 0 1 3 3V22a3 3 0 0 1-3 3M12.88 12.33a1 1 0 0 0-1 1V22a1 1 0 0 0 1 1h14.33a1 1 0 0 0 1-1v-8.67a1 1 0 0 0-1-1Z" class="cls-3"/><path d="M24.24 12.33a1 1 0 0 1-1-1V9h-6.48a1 1 0 0 1 0-2h7.48a1 1 0 0 1 1 1v3.34a1 1 0 0 1-1 .99" class="cls-3"/></g></svg>
