<svg xmlns="http://www.w3.org/2000/svg" fill="none" viewBox="0 0 24 24"><circle fill="none" cx="12" cy="13" r="3" stroke="currentColor" stroke-width="1.5"/><path stroke="currentColor" stroke-linecap="round" stroke-width="1.5" d="M3 13c0-2.8 0-4.21.67-5.22a4 4 0 0 1 1.1-1.1C5.8 6 7.2 6 10 6h4c2.8 0 4.21 0 5.22.67a4 4 0 0 1 1.1 1.1C21 8.8 21 10.2 21 13s0 4.21-.67 5.22a4 4 0 0 1-1.1 1.1C18.2 20 16.8 20 14 20h-4c-2.8 0-4.21 0-5.22-.67a4 4 0 0 1-1.1-1.1 3 3 0 0 1-.5-1.23M18 10h-.5m-3-6.5h-5"/></svg>
