<svg viewBox="0 0 24 24" fill="none" xmlns="http://www.w3.org/2000/svg"><path d="M10.3105 5.25C10.7204 5.25014 11.0505 5.57056 11.0605 5.98047C11.0703 6.40016 10.7303 6.74985 10.3105 6.75C9.51069 6.75 8.71062 6.77056 8.31055 6.81055C7.80078 6.86052 7.50069 6.97 7.26074 7.12988C7.02074 7.28988 6.81055 7.53047 6.56055 7.98047C6.30059 8.44045 6.04009 9.07064 5.66016 9.98047L5.03027 11.4805L6.12012 11.75H19.0801L20.3203 10.8203L21.5498 9.90039C21.8798 9.65039 22.3506 9.71981 22.6006 10.0498C22.8506 10.3798 22.7802 10.8506 22.4502 11.1006L21.0205 12.1797L21.3506 12.6602C21.9504 13.5698 22.3498 14.1601 22.5498 14.8398C22.7498 15.5098 22.75 16.2205 22.75 17.3105V22C22.75 22.41 22.41 22.75 22 22.75H19.75C19.3401 22.7498 19 22.4099 19 22V21C19 20.51 19.0007 20.21 18.9707 20C18.9607 19.85 18.82 19.7903 18.75 19.7803C18.5394 19.7503 17.4898 19.75 17 19.75H7C6.49989 19.75 5.45996 19.7503 5.25 19.7803C5.1799 19.7904 5.04026 19.8402 5.03027 20C5.00027 20.21 5 20.51 5 21V22C5 22.41 4.66 22.75 4.25 22.75H2C1.59012 22.7498 1.25 22.4099 1.25 22V17.3105C1.25 16.2205 1.2502 15.5098 1.4502 14.8398C1.65021 14.16 2.04049 13.57 2.65039 12.6602L2.98047 12.1797L1.5498 11.1006C1.21986 10.8506 1.15041 10.3798 1.40039 10.0498C1.65043 9.71999 2.12027 9.65044 2.4502 9.90039L3.68066 10.8203L4.29004 9.37012C4.65004 8.50012 4.94023 7.79977 5.24023 7.25977C5.55016 6.67994 5.9101 6.21983 6.41992 5.87988C6.92992 5.53988 7.49062 5.39031 8.14062 5.32031C8.61061 5.27035 9.49012 5.25001 10.2998 5.25H10.3105ZM6 15C5.45013 15.0002 5 15.4501 5 16C5 16.5599 5.45013 17.0096 6 17.0098C6.55 17.0098 7 16.5598 7 16.0098V16C7 15.45 6.55 15 6 15ZM18 15C17.4502 15.0002 17.0001 15.45 17 16.0098C17 16.5597 17.4501 17.0096 18 17.0098C18.55 17.0098 19 16.56 19 16C19 15.45 18.55 15 18 15ZM17 1.25C19.62 1.25 21.75 3.38 21.75 6C21.75 8.62 19.62 10.75 17 10.75C14.38 10.75 12.25 8.62 12.25 6C12.25 3.38 14.38 1.25 17 1.25ZM17 7.5C16.59 7.5 16.25 7.84 16.25 8.25C16.25 8.67 16.59 9.00977 17 9.00977C17.41 9.00977 17.75 8.66977 17.75 8.25977V8.25C17.75 7.84 17.41 7.5 17 7.5ZM17 3C16.59 3 16.25 3.34 16.25 3.75V5.75C16.25 6.16 16.59 6.5 17 6.5C17.41 6.5 17.75 6.16 17.75 5.75V3.75C17.75 3.34 17.41 3 17 3Z" fill="currentColor"/></svg>
