<svg viewBox="0 0 16 16" fill="none" xmlns="http://www.w3.org/2000/svg"><path d="M6.99946 3.49707C7.27279 3.49707 7.49946 3.72374 7.49946 3.99707C7.4993 4.27028 7.2727 4.49707 6.99946 4.49707C5.80661 4.49707 5.21343 4.49689 4.83345 4.75C4.47344 4.99667 4.2594 5.47706 3.76606 6.65039L3.34614 7.65039L3.79927 7.76367C3.94582 7.80364 4.01292 7.81675 4.07954 7.83008H11.9594C11.9861 7.83008 12.0535 7.8097 12.1801 7.77637L13.2133 7.5166C13.4199 7.46345 13.6333 7.55039 13.7465 7.72363L14.186 8.37695C14.626 9.03695 14.8927 9.43062 15.0327 9.89062C15.1659 10.3439 15.1665 10.7974 15.1665 11.6172V13.6699C15.1665 14.0366 15.166 14.2369 15.0727 14.4502C14.9594 14.7367 14.7331 14.9572 14.4399 15.0771C14.2332 15.1705 14.0196 15.1699 13.6596 15.1699L13.6733 15.1631C13.32 15.1631 13.1062 15.1636 12.8862 15.0703C12.6062 14.957 12.3792 14.7298 12.2592 14.4365C12.1727 14.23 12.1733 14.0296 12.1733 13.6631C12.1733 13.4902 12.1729 13.3107 12.1596 13.2637C12.1396 13.2237 12.1127 13.1968 12.0727 13.1768C12.019 13.1635 11.8462 13.1631 11.6733 13.1631H4.3393C4.16653 13.1631 3.99387 13.1635 3.94673 13.1768C3.90006 13.1968 3.87298 13.2237 3.85298 13.2637C3.83973 13.3107 3.8393 13.4902 3.8393 13.6631C3.8393 14.0297 3.83982 14.2301 3.74653 14.4434C3.6332 14.73 3.40608 14.9503 3.11274 15.0703C2.90624 15.1635 2.69303 15.1631 2.33345 15.1631C1.97346 15.1631 1.76633 15.1636 1.54634 15.0703C1.26634 14.957 1.03938 14.7299 0.919383 14.4365C0.832834 14.23 0.833445 14.0296 0.833445 13.6631V11.6104C0.833445 10.7905 0.833009 10.337 0.966258 9.88379C1.10626 9.42379 1.37294 9.03011 1.81294 8.37012L1.98677 8.11035L1.03266 7.39648C0.813101 7.22981 0.766732 6.91712 0.933054 6.69727C1.09972 6.47727 1.41325 6.43001 1.63325 6.59668L2.45259 7.20996L2.84614 6.26367C3.36611 5.02374 3.64647 4.337 4.27973 3.91699C4.91303 3.49702 5.65294 3.49707 6.99946 3.49707ZM12.4467 8.7373C12.2601 8.78396 12.173 8.80307 12.0864 8.81641C11.9531 8.82973 11.8598 8.83008 11.6801 8.83008H4.33345C4.14678 8.83008 4.05959 8.82991 3.96626 8.82324C3.833 8.80325 3.75299 8.78315 3.58637 8.74316L2.89302 8.57031L2.65278 8.92969C2.2328 9.56299 2.02639 9.87677 1.93305 10.1768C1.83972 10.4834 1.8393 10.857 1.8393 11.6104V13.6631C1.8393 13.8364 1.83966 14.0167 1.85298 14.0635C1.87298 14.1035 1.89989 14.1304 1.93989 14.1504C2.04718 14.1836 2.64544 14.177 2.73286 14.1504C2.77953 14.1304 2.80661 14.1035 2.82661 14.0635C2.83991 14.0166 2.8393 13.8363 2.8393 13.6631C2.8393 13.2968 2.83985 13.097 2.93305 12.8838C3.04639 12.5971 3.27351 12.3768 3.56684 12.2568C3.77336 12.1637 3.98648 12.1631 4.34614 12.1631H11.6733C12.0264 12.1631 12.2395 12.1636 12.4594 12.2568C12.7394 12.3702 12.9664 12.5973 13.0864 12.8906C13.1729 13.0971 13.1733 13.2969 13.1733 13.6631C13.1733 13.8363 13.1727 14.0166 13.186 14.0635C13.206 14.1035 13.2329 14.1304 13.2729 14.1504C13.3796 14.1837 13.9802 14.1771 14.0668 14.1504C14.1133 14.1304 14.1397 14.1034 14.1596 14.0635C14.1729 14.0168 14.1733 13.8364 14.1733 13.6631V11.6104C14.1733 10.8637 14.1729 10.4834 14.0795 10.1768C13.9862 9.87678 13.7798 9.56296 13.3598 8.92969L13.1196 8.57031L12.4467 8.7373ZM4.0063 10.0039C4.37277 10.0041 4.6722 10.2968 4.67231 10.6699C4.67231 11.0432 4.37284 11.3436 4.0063 11.3438V11.3369C3.63963 11.3369 3.3393 11.0366 3.3393 10.6699C3.33942 10.3033 3.6397 10.0039 4.0063 10.0039ZM12.0063 10.0039C12.3728 10.0041 12.6722 10.2968 12.6723 10.6699C12.6723 11.0432 12.3728 11.3436 12.0063 11.3438V11.3369C11.6396 11.3369 11.3393 11.0366 11.3393 10.6699C11.3394 10.3033 11.6397 10.0039 12.0063 10.0039ZM11.3393 0.830078C13.086 0.830078 14.5063 2.2504 14.5063 3.99707C14.5061 5.74361 13.0859 7.16309 11.3393 7.16309C9.59275 7.16306 8.17247 5.74359 8.17231 3.99707C8.17231 2.25042 9.59266 0.830104 11.3393 0.830078ZM11.3393 1.83008C10.146 1.8301 9.17231 2.80375 9.17231 3.99707C9.17247 5.19026 10.1461 6.16306 11.3393 6.16309C12.5325 6.16309 13.5061 5.19027 13.5063 3.99707C13.5063 2.80374 12.5326 1.83008 11.3393 1.83008ZM11.3393 4.83008C11.6126 4.83008 11.8393 5.0501 11.8393 5.33008C11.8393 5.61008 11.6126 5.83691 11.3393 5.83691V5.83008C11.066 5.83005 10.8393 5.6034 10.8393 5.33008C10.8393 5.05678 11.066 4.8301 11.3393 4.83008ZM11.3393 2.16309C11.6125 2.16309 11.8391 2.38992 11.8393 2.66309V3.99707C11.8391 4.27028 11.6125 4.49707 11.3393 4.49707C11.0661 4.49704 10.8395 4.27026 10.8393 3.99707V2.66309C10.8395 2.38993 11.0661 2.16311 11.3393 2.16309Z" fill="currentColor"/></svg>
