<svg xmlns="http://www.w3.org/2000/svg" fill="none" viewBox="0 0 24 24"><path stroke="currentColor" stroke-linecap="round" stroke-linejoin="round" stroke-miterlimit="10" stroke-width="1.5" d="M2 8.5h9.5m-5.5 8h2m2.5 0h4"/><path stroke="currentColor" stroke-linecap="round" stroke-linejoin="round" stroke-width="1.5" d="M22 12.03v4.08c0 3.51-.9 4.39-4.44 4.39H6.44C2.89 20.5 2 19.62 2 16.11V7.89c0-3.51.89-4.39 4.44-4.39h8.06"/><path stroke="currentColor" stroke-linecap="round" stroke-linejoin="round" stroke-miterlimit="10" stroke-width="1.5" d="m19.08 4.13-3.71 3.71a1.3 1.3 0 0 0-.31.62l-.2 1.42c-.07.51.29.87.8.8l1.42-.2c.2-.03.48-.17.62-.31l3.7-3.71c.65-.64.95-1.38 0-2.32-.94-.95-1.68-.65-2.32-.01"/><path stroke="currentColor" stroke-linecap="round" stroke-linejoin="round" stroke-miterlimit="10" stroke-width="1.5" d="M18.55 4.66a3.4 3.4 0 0 0 2.32 2.32"/></svg>
