<svg xmlns="http://www.w3.org/2000/svg" fill="none" viewBox="0 0 24 24"><path stroke="currentColor" stroke-linecap="round" stroke-width="1.5" d="M10 4C6.23 4 4.34 4 3.17 5.17S2 8.23 2 12s0 5.66 1.17 6.83S6.23 20 10 20h1.5M14 4c3.77 0 5.66 0 6.83 1.17C21.89 6.23 21.99 7.9 22 11"/><path stroke="currentColor" stroke-linecap="round" stroke-linejoin="round" stroke-width="1.5" d="M15.5 14v6m0 0 2-2m-2 2-2-2m6.5 2v-6m0 0 2 2m-2-2-2 2"/><path stroke="currentColor" stroke-linecap="round" stroke-width="1.5" d="M10 16H6m-4-6h5m15 0H11"/></svg>
