<svg xmlns="http://www.w3.org/2000/svg" fill="none" viewBox="0 0 24 24"><path fill="currentColor" fill-rule="evenodd" d="M9.94 3.25h4.12c1.83 0 3.29 0 4.43.15 1.17.16 2.12.5 2.87 1.24.75.75 1.08 1.7 1.24 2.87a21 21 0 0 1 .14 2.6l.01 1.83V12a.75.75 0 0 1-1.5 0v-1.25H2.75V12c0 1.9 0 3.26.14 4.29.14 1 .39 1.58.81 2 .43.43 1 .69 2.01.82 1.03.14 2.38.14 4.29.14h4a.75.75 0 0 1 0 1.5H9.94c-1.83 0-3.29 0-4.43-.15a4.7 4.7 0 0 1-2.87-1.24 4.7 4.7 0 0 1-1.24-2.87c-.15-1.14-.15-2.6-.15-4.43v-.12l.01-2.07q.02-1.35.14-2.36a4.7 4.7 0 0 1 1.24-2.87A4.7 4.7 0 0 1 5.51 3.4c1.14-.15 2.6-.15 4.43-.15m-7.16 6h18.44a16 16 0 0 0-.11-1.54c-.13-1-.39-1.58-.81-2-.43-.43-1-.68-2.01-.82A36 36 0 0 0 14 4.75h-4a36 36 0 0 0-4.29.14c-1 .14-1.58.39-2 .81-.43.43-.68 1-.82 2.01q-.1.67-.11 1.54m16.22 4c.41 0 .75.34.75.75v4.19l.72-.72a.75.75 0 1 1 1.06 1.06l-2 2c-.3.3-.77.3-1.06 0l-2-2a.75.75 0 1 1 1.06-1.06l.72.72V14c0-.41.34-.75.75-.75M5.25 16c0-.41.34-.75.75-.75h4a.75.75 0 0 1 0 1.5H6a.75.75 0 0 1-.75-.75m6.5 0c0-.41.34-.75.75-.75h.5a.75.75 0 0 1 0 1.5h-.5a.75.75 0 0 1-.75-.75" clip-rule="evenodd"/></svg>
