<svg xmlns="http://www.w3.org/2000/svg" viewBox="0 -6.41 359.214 359.214"><defs><style>.a{fill:#fff}.b{fill:#211715}.c{fill:#b3b3b3}.d{fill:#3d8dcc}.e{fill:#85807f}.g{fill:#ffda71}</style></defs><path d="M87.35 131.65a4.75 4.75 0 0 0-5.37-2.21s3.59-16.82-19.53-16.82c-21.96 0-19.37 16.9-19.37 16.9a4.74 4.74 0 0 0-5.44 2.03 6.5 6.5 0 0 0 .23 6.27 10.2 10.2 0 0 0 5.42 4.37 22 22 0 0 0 4.43 7.62 19 19 0 0 0 3.98 3.4v1.43c.44.33 9.32 6.74 10 7.17h2.12c.67-.43 9.55-6.84 9.99-7.17v-1.74a20 20 0 0 0 3.57-3.24 22 22 0 0 0 4.34-7.64l.2-.08a10.3 10.3 0 0 0 5.01-4.03 6.5 6.5 0 0 0 .42-6.26m17.8 130.11c.82-.22 1.6-1 2.3-2.52.34-5.62-2.55-14.82-4.65-21.48H89.15l.13 6.39 1.09 3.85c-.66 4 .82 9.88 5.93 6.04l1.2-.85c1.48 3.52 4.78 9.37 7.65 8.57" class="a"/><path d="M100.73 237.82c1.16 3.7 2.33 7.4 3.27 11.15a35 35 0 0 1 1.45 10.27l.27-1.01a8 8 0 0 1-.65 1.17c.1-.13-.48.65-.23.3-.1.15-.36.05-.16.12.25.08-.14.05-.16.04.68.33 0-.26-.01-.02 0-.12.45.25.05 0-.2-.12-.24-.08 0 .03l-.42-.22-.35-.23c-.17-.13.2.17-.07-.08s-.51-.48-.75-.74l-.33-.38-.2-.25a25 25 0 0 1-2.37-3.95l-.49-1.01-.2-.44c-.25-.56.14.35-.08-.18q-.3-.73-.54-1.48c-.76-2.45-4.63-1.4-3.86 1.06a29 29 0 0 0 2.8 6.1c1.2 2.01 2.75 4.31 4.96 5.3 2.73 1.24 5.17-.4 6.4-2.88.73-1.5.4-3.54.21-5.16a55 55 0 0 0-1-5.71c-1-4.35-2.35-8.61-3.7-12.87-.77-2.44-4.63-1.4-3.85 1.07Z" class="b"/><path d="M88.44 247.47a14 14 0 0 0-.2 3.08 11 11 0 0 0 .52 2.9 6 6 0 0 0 1.59 2.65 4.4 4.4 0 0 0 3.07 1.2 7 7 0 0 0 3.89-1.52 2.2 2.2 0 0 0 .92-1.2 2 2 0 0 0-.2-1.54 2 2 0 0 0-1.2-.92 2 2 0 0 0-1.54.2 8 8 0 0 1-1.6.95l.48-.2a4 4 0 0 1-1 .27l.53-.07a3 3 0 0 1-.7 0l.53.07a3 3 0 0 1-.58-.16l.48.2a3 3 0 0 1-.5-.3l.4.31a3 3 0 0 1-.54-.54l.32.4a5 5 0 0 1-.55-.95l.2.48a8 8 0 0 1-.52-1.98l.07.53a12 12 0 0 1 0-3.02l-.07.53.05-.31a2.2 2.2 0 0 0-.2-1.54 2 2 0 0 0-2.74-.72 2 2 0 0 0-.92 1.2Z" class="b"/><path d="M20.22 261.76c-.82-.22-1.6-1-2.3-2.52-.34-5.62 2.55-14.82 4.65-21.48h13.65l-.12 6.39L35 248c.66 4-.82 9.88-5.93 6.04l-1.2-.85c-1.48 3.52-4.78 9.37-7.65 8.57" class="a"/><path d="M20.79 236.75a191 191 0 0 0-3.32 11.33c-.87 3.5-1.77 7.28-1.56 10.9.16 2.78 3.08 5.42 5.9 4.73 2.37-.6 4.07-2.86 5.32-4.8a29 29 0 0 0 3.34-6.94c.76-2.47-3.1-3.52-3.86-1.07q-.24.76-.54 1.48l-.04.1-.2.43q-.23.51-.48 1.01a25 25 0 0 1-2.42 4.04l-.47.56q-.35.4-.74.76c-.1.1-.3.26-.07.08l-.42.28-.34.19c-.2.1.33-.05 0-.02-.43.04-.1.17-.03.02l-.14.01c.35-.03-.1.02-.14-.07q.35.16.15.05l-.2-.13c.33.44-.38-.48-.17-.2a7 7 0 0 1-.71-1.26l.27 1a35 35 0 0 1 1.44-10.26c.95-3.76 2.12-7.46 3.28-11.16.78-2.46-3.08-3.5-3.85-1.06" class="b"/><path d="m33.07 248.54.05.3-.07-.52a12 12 0 0 1 0 3.01l.07-.53a8 8 0 0 1-.52 1.98l.2-.48a5 5 0 0 1-.54.96l.3-.4a3 3 0 0 1-.52.54l.4-.31a3 3 0 0 1-.5.3l.48-.2a3 3 0 0 1-.58.16l.53-.07a3 3 0 0 1-.7 0l.53.07a4 4 0 0 1-1-.28l.48.2a8 8 0 0 1-1.6-.95 2 2 0 0 0-1.55-.2 2 2 0 0 0-1.2.92 2 2 0 0 0-.2 1.54 2.3 2.3 0 0 0 .92 1.2c1.8 1.33 4.41 2.22 6.4.76 1.82-1.32 2.45-3.5 2.64-5.65a14 14 0 0 0-.17-3.4 2 2 0 0 0-.92-1.2 2 2 0 0 0-2.74.7 2.3 2.3 0 0 0-.2 1.55Z" class="b"/><path d="M54.23 176.4c-1.9-4.68-3.71-9.52-5.3-14.22-1.36-.63-.94-2.6-.2-3.55.93-1.16 2.08-2.84 3.03-4 .43.33 9.31 6.74 9.99 7.17h2.12c.67-.43 9.56-6.84 10-7.17.93 1.16 2.1 2.83 3.01 4a3.5 3.5 0 0 1 .66 1.56 248 248 0 0 1-8.59 22.42c-2.35 5.33-3.13 7.14-6.05 12.6-2.91-5.46-3.69-7.27-6.04-12.6q-1.35-3.04-2.63-6.2m24.45 165.27q-.62-.42-1.2-.88a28 28 0 0 0-7.03-3.93c-1.6-.6-3.92-1-5.18-1.96-1.76-1.35-1.66-3.92-1.66-5.75l-.04-6.5c7.14-.08 14.21-.18 18.56-.25l1.33 1.27a84 84 0 0 1 11.81 9.93 6.4 6.4 0 0 1 1.74 6.28 4.3 4.3 0 0 1-2.02 3.05 11 11 0 0 1-4.46 1.3 20 20 0 0 1-10.49-1.78 11 11 0 0 1-1.36-.78m-48.83.6a5 5 0 0 1-1.16-2.39 6.4 6.4 0 0 1 1.74-6.28 84 84 0 0 1 11.81-9.93s.38-.34.89-.8c4.15-.03 11.45-.1 18.88-.2v6.48c0 1.83.18 4.4-1.58 5.75-1.26.97-3.58 1.36-5.18 1.96a28 28 0 0 0-7.02 3.94 14 14 0 0 1-2.57 1.65 20 20 0 0 1-10.5 1.77 11 11 0 0 1-4.45-1.3 4 4 0 0 1-.86-.65M313.81 34.74a4.75 4.75 0 0 0-5.38-2.2s1.81-17-19.52-17-19.37 17.07-19.37 17.07a4.74 4.74 0 0 0-5.44 2.04 6.5 6.5 0 0 0 .22 6.28 10.2 10.2 0 0 0 5.42 4.36 22 22 0 0 0 4.43 7.62 19 19 0 0 0 4 3.4v1.43c.43.33 9.3 6.73 9.98 7.17h2.13c.67-.44 9.55-6.84 9.99-7.17V56a20 20 0 0 0 3.56-3.24 22 22 0 0 0 4.34-7.64l.2-.08A10.3 10.3 0 0 0 313.4 41a6.5 6.5 0 0 0 .42-6.27" class="a"/><path d="M280.63 79.5c-1.9-4.69-3.71-9.53-5.3-14.23-1.36-.62-.94-2.6-.2-3.54.93-1.17 2.08-2.85 3.03-4 .43.32 9.32 6.73 9.99 7.16h2.12c.68-.43 9.56-6.84 10-7.16.94 1.15 2.1 2.83 3.01 4a3.5 3.5 0 0 1 .66 1.55 247 247 0 0 1-8.58 22.42c-2.36 5.33-3.14 7.15-6.05 12.6-2.92-5.46-3.7-7.27-6.05-12.6q-1.34-3.02-2.63-6.2m69.39 167.93H228.4v96.9h121.62Z" class="a"/><path d="M305.14 244.76q-.63-.4-1.2-.87a28 28 0 0 0-7.03-3.93c-1.6-.6-3.92-1-5.18-1.97-1.76-1.35-1.66-3.92-1.66-5.75l-.04-6.49c7.14-.09 14.2-.18 18.56-.26l1.33 1.27a84 84 0 0 1 11.82 9.93 6.4 6.4 0 0 1 1.73 6.29 4.3 4.3 0 0 1-2.02 3.04 11 11 0 0 1-4.45 1.3 20 20 0 0 1-10.5-1.78 11 11 0 0 1-1.36-.78m-48.83.6a5 5 0 0 1-1.16-2.38 6.4 6.4 0 0 1 1.74-6.29 84 84 0 0 1 11.81-9.93l.89-.8c4.15-.03 11.45-.1 18.88-.2v6.48c0 1.83.18 4.4-1.58 5.75-1.26.97-3.58 1.36-5.18 1.96a28 28 0 0 0-7.03 3.94 14 14 0 0 1-2.56 1.65 20 20 0 0 1-10.5 1.77 11 11 0 0 1-4.45-1.3 4 4 0 0 1-.86-.64m75.29-80.5c.82-.23 1.6-1 2.3-2.53.34-5.61-2.54-14.82-4.65-21.47H315.6l.13 6.39 1.09 3.85c-.66 4 .82 9.88 5.93 6.04l1.2-.85c1.49 3.52 4.79 9.37 7.65 8.57" class="a"/><path d="M301.87 148.54q-.5-.05-.92-.12a17 17 0 0 1-6.7-2.34 9.4 9.4 0 0 1-3.66-5 49 49 0 0 1-1.45-8.34 49 49 0 0 1-1.44 8.35 9.4 9.4 0 0 1-3.67 4.99 17 17 0 0 1-6.7 2.34 89 89 0 0 1-12.64.23c.48 21.16 1.48 49.65 1.95 76.77v.56c4.87 0 39.2-.39 45.35-.56.47-27.4 1.47-55.68 1.96-76.78a112 112 0 0 1-12.08-.1" class="c"/><path d="M327.18 140.91c1.17 3.7 2.34 7.4 3.28 11.16a35 35 0 0 1 1.45 10.26l.27-1a8 8 0 0 1-.65 1.17l-.23.3c-.11.14-.36.05-.16.11.25.09-.14.06-.16.05.68.32 0-.26-.01-.03 0-.11.45.25.05 0-.2-.12-.24-.07-.01.03l-.41-.22-.35-.23c-.17-.12.2.18-.07-.07a12 12 0 0 1-1.08-1.12l-.2-.25a25 25 0 0 1-2.38-3.95q-.25-.5-.48-1.01l-.2-.44c-.25-.56.14.35-.08-.19q-.3-.72-.54-1.47c-.77-2.45-4.63-1.4-3.86 1.06a29 29 0 0 0 2.8 6.09c1.2 2.02 2.75 4.32 4.97 5.32 2.72 1.23 5.17-.4 6.39-2.9.74-1.5.41-3.53.22-5.15a55 55 0 0 0-1.02-5.72c-1-4.35-2.34-8.6-3.68-12.86-.78-2.44-4.64-1.4-3.86 1.06" class="b"/><path d="M314.9 150.57a14 14 0 0 0-.2 3.07 11 11 0 0 0 .52 2.92 6 6 0 0 0 1.59 2.63 4.4 4.4 0 0 0 3.07 1.2 7 7 0 0 0 3.89-1.52 2.2 2.2 0 0 0 .92-1.2 2 2 0 0 0-.2-1.54 2 2 0 0 0-1.2-.92 2 2 0 0 0-1.54.2 8 8 0 0 1-1.6.95l.48-.2a4 4 0 0 1-1 .28l.53-.07a3 3 0 0 1-.7 0l.52.07a3 3 0 0 1-.57-.16l.47.2a3 3 0 0 1-.5-.3l.41.31a3 3 0 0 1-.53-.54l.31.4a5 5 0 0 1-.55-.95l.2.47a8 8 0 0 1-.51-1.98l.07.54a12 12 0 0 1 0-3.02l-.07.53.04-.31a2.2 2.2 0 0 0-.2-1.54 2 2 0 0 0-2.73-.72 2 2 0 0 0-.92 1.2" class="b"/><path d="M264.85 68.23a59 59 0 0 1 9.78-5.1 246 246 0 0 0 8.63 22.57c2.35 5.34 3.13 7.15 6.05 12.6 2.91-5.46 3.7-7.27 6.05-12.6a246 246 0 0 0 8.6-22.45c7.02 3 13.85 6.96 18.08 13.26 4.3 6.39 5.51 14.32 6.29 21.98 1.28 12.72 2.13 27.7 2.93 40.98a1.3 1.3 0 0 1-1.31 1.39H315.6l.12 6.38a1.35 1.35 0 0 1-1.29 1.38c-2.97.1-10.1.3-13.49-.2a17 17 0 0 1-6.7-2.35 9.4 9.4 0 0 1-3.66-4.99 49 49 0 0 1-1.45-8.34 49 49 0 0 1-1.44 8.34 9.4 9.4 0 0 1-3.67 5 17 17 0 0 1-6.7 2.34c-3.39.5-10.04.33-13.14.21a1.56 1.56 0 0 1-1.5-1.59c.24-12.6.43-23.18.54-34.68a14 14 0 0 1-8 1.29c-4.32-.46-7.94-3.97-9.25-8.11a28 28 0 0 1-.97-5.88c-.7-7.62-.7-11.4-1.1-16.62l10.02-2.34a28 28 0 0 1 2.31-4.2 31 31 0 0 1 8.6-8.27" class="c"/><path d="M301.17 64.26c5.83 2.33 11.7 5.2 16.18 9.7 4.64 4.65 6.82 10.77 7.98 17.1 1.24 6.78 1.63 13.75 2.24 20.6q.95 10.78 1.68 21.57l.21 3.14c.02.34-.03 3 .2 3.1l.68-.62h-.28a6 6 0 0 0-1.2 0h-11.13c-2.57 0-2.58 4 0 4h8.36c2.82 0 7.48.72 7.56-3.39.04-1.9-.24-3.88-.36-5.78l-.42-5.92q-.43-5.88-.93-11.76c-.64-7.62-1.2-15.29-2.25-22.87-1.01-7.23-3.05-14.4-7.78-20.1-5.07-6.12-12.44-9.74-19.67-12.63a2 2 0 0 0-2.46 1.4 2.05 2.05 0 0 0 1.4 2.46Z" class="b"/><path d="M312.96 92.72c0 13.15.22 26.29.48 39.43l.2 10.24.05 2.4a15 15 0 0 0 .04 2.46l.48-.6q.1-.11-.2-.01a2 2 0 0 0-.5.01l-1.72.05c-4.91.12-10.24.52-14.8-1.4a7.8 7.8 0 0 1-4.6-5.2 37 37 0 0 1-1.24-7.36c-.15-2.56-4.16-2.57-4 0a46 46 0 0 0 1.22 7.76 12 12 0 0 0 4.14 6.75c4.58 3.63 11.04 3.55 16.6 3.5q1.8-.02 3.59-.07c1.4-.04 2.88.06 3.98-.96 1.27-1.17 1.05-2.87 1.02-4.43l-.1-5.75q-.23-10.85-.42-21.7-.2-12.56-.21-25.12c0-2.57-4-2.57-4 0ZM276.05 60.4c-9.78 3.9-19.29 9.3-23.85 19.29a2.06 2.06 0 0 0 .72 2.74 2 2 0 0 0 2.74-.72 27 27 0 0 1 8.96-10.9 58 58 0 0 1 12.5-6.55 2.06 2.06 0 0 0 1.4-2.46 2 2 0 0 0-2.47-1.4" class="b"/><path d="M289.3 98.3c2.69-5 3.56-6.94 5.5-11.35a431 431 0 0 1-1.86-11.55 22 22 0 0 1 .81-4.02l.33-1.16a96 96 0 0 0-3.8-5.32h-2.13a93 93 0 0 0-3.8 5.3l.33 1.16a24 24 0 0 1 .8 4.04c0 .22-1.61 7.08-2.22 10.3 2.35 5.33 3.13 7.15 6.05 12.6" class="d"/><path d="M302.07 62.57a217 217 0 0 1-14.49 34.73c-1.2 2.27 2.24 4.3 3.46 2.02a223 223 0 0 0 14.89-35.68c.8-2.46-3.06-3.5-3.86-1.07m-.37 35.78q4.48-6.35 8.57-12.95a57 57 0 0 0 3.04-4.86c.78-1.59-.06-2.86-1.02-4.1q-1.39-1.73-2.82-3.45v2.83c1.52-1.87 3-3.78 4.64-5.55 1.74-1.9-1.08-4.73-2.83-2.83-1.63 1.77-3.11 3.68-4.63 5.55a2.1 2.1 0 0 0 0 2.83q.86 1.04 1.71 2.1c.4.48 1.25 1.22 1.36 1.84v-1.07a6 6 0 0 1-1.02 1.7l-1.21 1.92-2.46 3.92q-3.26 5.14-6.78 10.1a2 2 0 0 0 .71 2.74 2.04 2.04 0 0 0 2.74-.72" class="b"/><path d="M272.69 63.63a223 223 0 0 0 14.9 35.69c1.2 2.27 4.66.25 3.45-2.02a217 217 0 0 1-14.5-34.73c-.8-2.44-4.65-1.4-3.85 1.06m7.85 34.49q-3.74-5.25-7.19-10.7l-2.61-4.17-1.28-2.03a7 7 0 0 1-1.1-1.84v1.07c.12-.7 1-1.45 1.46-2.01q.9-1.12 1.83-2.22a2.1 2.1 0 0 0 0-2.83c-1.62-1.98-3.19-4.01-4.92-5.9-1.75-1.9-4.57.94-2.83 2.84s3.3 3.9 4.92 5.89v-2.83q-1.51 1.81-2.98 3.66c-1.05 1.34-1.89 2.66-1 4.34.94 1.8 2.2 3.49 3.27 5.21a267 267 0 0 0 8.97 13.54 2.06 2.06 0 0 0 2.74.72 2 2 0 0 0 .71-2.74Zm-17.85 50.53c.45 19.57 1.1 39.12 1.58 58.69q.21 9.04.37 18.08c.04 2.57 4.04 2.58 4 0-.35-20.6-1-41.18-1.56-61.76l-.4-15c-.05-2.57-4.05-2.58-4 0Zm49.26-.01c-.45 19.54-1.11 39.07-1.58 58.6q-.22 9.1-.38 18.18c-.05 2.58 3.95 2.58 4 0 .36-20.62 1-41.24 1.58-61.86l.38-14.92c.06-2.58-3.94-2.58-4 0m-24.64 10.3v67.04c0 2.57 4 2.58 4 0v-67.04c0-2.58-4-2.58-4 0" class="b"/><path d="M266.64 227.98c12.57 0 25.14-.23 37.7-.42q3.82-.05 7.65-.14c2.56-.07 2.57-4.07 0-4-12.8.35-25.6.39-38.39.51q-3.48.04-6.96.05c-2.58 0-2.58 4 0 4m25.18-157.13a16 16 0 0 0-.87 4.59 29 29 0 0 0 .42 2.9q.7 4.58 1.51 9.14a2 2 0 0 0 2.46 1.4 2.04 2.04 0 0 0 1.4-2.46q-.78-4.4-1.46-8.8l-.26-1.7-.08-.6-.03-.2c-.06-.33.1.33.04.35l.01-.42c0 .3-.03.19.01-.05a29 29 0 0 1 .71-3.08c.7-2.49-3.17-3.55-3.86-1.07" class="b"/><path d="M292.25 73.51h-6.07a2 2 0 0 0 0 4h6.07a2 2 0 0 0 0-4" class="b"/><path d="M282.75 71.9q.3 1.08.53 2.18l.2 1.09c-.11-.51.03-.07 0 .03v.16q0 .32.07-.46a15 15 0 0 0-.49 2.22c-.6 2.67-1.22 5.35-1.73 8.05a2.05 2.05 0 0 0 1.4 2.46 2 2 0 0 0 2.46-1.4c.53-2.8 1.18-5.57 1.8-8.34a13 13 0 0 0 .5-2.5 17 17 0 0 0-.88-4.57c-.67-2.48-4.53-1.42-3.86 1.07Z" class="b"/><path d="M300.27 57.74c.94 1.15 2.1 2.83 3.02 4a3.1 3.1 0 0 1 .54 2.78c-.4.73-4.8 7.16-7.65 8.82-.83-1.2-4.25-6.4-5.9-8.43.67-.44 9.55-6.85 9.99-7.17m-22.1 0c-.95 1.15-2.1 2.83-3.03 4a3.1 3.1 0 0 0-.55 2.78c.4.73 4.81 7.16 7.66 8.82.83-1.2 4.25-6.4 5.9-8.43-.67-.44-9.55-6.85-9.99-7.17" class="a"/><path d="M298.85 59.15c.6.74 1.22 1.61 1.83 2.43.34.46.74.9 1.05 1.39a2 2 0 0 1 .27.73c-.02-.1-.11.34.04-.05.1-.25.04-.07-.01-.01q-.15.2-.28.43-.45.69-.93 1.34l-.65.89-.33.43-.15.2a45 45 0 0 1-1.56 1.9q-.79.9-1.64 1.72-.37.35-.77.68c-.35.3.26-.14-.08.07l-.47.3 2.74.71c-2.03-2.96-3.95-6.03-6.22-8.83l-.4 3.14c3.42-2.24 6.7-4.74 10-7.17a2.06 2.06 0 0 0 .71-2.73 2 2 0 0 0-2.74-.72c-3.28 2.42-6.57 4.93-9.98 7.16a2.04 2.04 0 0 0-.4 3.15c.06.07.44.57.13.16l.4.53q.4.53.77 1.06.86 1.22 1.7 2.45l2.58 3.82a2.04 2.04 0 0 0 2.74.72 17 17 0 0 0 3.95-3.62q1.8-2.1 3.4-4.38c.97-1.38 1.7-2.6 1.31-4.42a8 8 0 0 0-1.72-3.08q-1.19-1.65-2.45-3.24a2 2 0 0 0-2.83 0 2.05 2.05 0 0 0 0 2.84" class="b"/><path d="M276.75 56.32c-.86 1.06-1.65 2.15-2.46 3.24a8 8 0 0 0-1.72 3.08c-.38 1.81.35 3.04 1.32 4.42a58 58 0 0 0 3.4 4.38 17 17 0 0 0 3.95 3.62 2.05 2.05 0 0 0 2.74-.72l2.58-3.82q.84-1.23 1.7-2.44l.77-1.07.4-.53c-.31.4.07-.09.13-.16a2.04 2.04 0 0 0-.4-3.14c-3.42-2.24-6.7-4.75-10-7.17a2 2 0 0 0-2.73.72 2.05 2.05 0 0 0 .72 2.73c3.29 2.43 6.57 4.93 9.99 7.17l-.4-3.14c-2.27 2.8-4.18 5.87-6.21 8.83l2.73-.71-.4-.27c-.37-.23.04.05-.09-.05l-.83-.73a25 25 0 0 1-1.57-1.65q-.84-.96-1.63-1.98l-.15-.2-.33-.43-.64-.88q-.49-.68-.94-1.35l-.26-.4-.08-.14c.22-.1 0 .76.1.14-.03.2.17-.56.1-.4s.34-.58.16-.3c.31-.48.7-.92 1.05-1.38.6-.82 1.23-1.7 1.83-2.43a2.06 2.06 0 0 0 0-2.83 2 2 0 0 0-2.83 0m9.72 169.45v5.32c0 1.44.24 3.1-.24 4.48-.57 1.6-3.02 1.79-4.42 2.24a27 27 0 0 0-6.38 3.1c-2.07 1.36-3.8 2.86-6.2 3.63a18 18 0 0 1-6.95.83c-1.7-.12-4.32-.42-5-2.26a4.6 4.6 0 0 1 .91-4.89 75 75 0 0 1 11.53-9.73c2.09-1.47.1-4.94-2.02-3.45a81 81 0 0 0-12.34 10.36c-3.64 3.85-3.23 10.77 2.01 12.93 5.07 2.09 11.85 1.25 16.54-1.47 1.25-.73 2.33-1.7 3.54-2.49a27 27 0 0 1 4-2.16c2.17-.93 4.74-1.16 6.65-2.64 2.25-1.74 2.37-4.56 2.36-7.17v-6.63c0-2.57-4-2.58-4 0Z" class="b"/><path d="m288.03 225.75.04 5.88c0 2.15-.09 4.45 1.05 6.38 1.3 2.2 3.84 2.81 6.12 3.5a24 24 0 0 1 7.35 3.85 20.6 20.6 0 0 0 16.64 3.6c2.69-.6 5-1.94 5.92-4.63a8.7 8.7 0 0 0-.66-7.35c-1.4-2.29-3.81-4.14-5.8-5.89a91 91 0 0 0-7.76-6.06c-2.11-1.48-4.11 1.99-2.02 3.46a86 86 0 0 1 10.44 8.66c1.34 1.3 2.55 2.59 2.32 4.61a4 4 0 0 1-.76 2.17 6 6 0 0 1-3.16 1.27 16.8 16.8 0 0 1-13.14-3.3 29 29 0 0 0-6.53-3.62c-.93-.38-1.87-.65-2.82-.94a6 6 0 0 1-2.38-.99c-1.21-1.08-.8-3.53-.81-4.98l-.04-5.62c0-2.58-4-2.58-4 0" class="b"/><path d="M265.12 19.9a22.5 22.5 0 0 1 4.83-9.8c4.28-4.81 9.4-7.4 17.2-7.97 6.03-.44 13.02 1.51 15.94 5.32a21 21 0 0 1 4.08 2.85c5.28 5.4 7.27 14.1 4.68 22.58a4.8 4.8 0 0 0-3.33-.36h-1.54a24 24 0 0 0-5.7-8.36 13 13 0 0 0-3.61-2.57l-7.7-.67c-2.63 1.2-6.36 3.7-8.45 4.94-.5.3-1.09-.18-1.02-.82a4 4 0 0 0-.09-1.47c-.14-.62-.58-.88-.92-.69-2.93 1.65-7.43 6.25-9.95 9.73a4.8 4.8 0 0 0-4.3.76 28 28 0 0 1-.12-13.47" class="e"/><path d="M313.97 32.78a26 26 0 0 0-2-19.33 18 18 0 0 0-6.44-6.85c-1.2-.74-2.07-1.77-3.2-2.62a17 17 0 0 0-3.77-2.07c-11.06-4.56-25.47-.74-32.04 9.43-3.94 6.1-4.9 13.93-3.57 20.97.47 2.53 4.33 1.46 3.85-1.06-1.9-10.1 2.36-21.44 12.37-25.4a25.4 25.4 0 0 1 15.86-.94 13 13 0 0 1 6.26 3.49 17 17 0 0 0 3.26 2.32 12 12 0 0 1 2.78 2.86c3.75 5.26 4.43 12 2.78 18.14-.67 2.49 3.19 3.55 3.86 1.06" class="b"/><path d="m308.96 34.47.5-.12c-.46.1.03.01.13.01l.5.02c-.28-.02-.15-.03.06.02q.25.05.49.13c.17.06.32.14.07.02l.45.23c.05.04.48.35.15.08l.37.34c.07.07.37.46.13.12a5 5 0 0 1 .35.6q-.09-.25-.01-.05a5 5 0 0 1 .27 1c-.07-.4 0 .2 0 .24v.58c0 .08-.07.63 0 .24a5 5 0 0 1-.27 1.05c-.03.1-.15.42-.04.16a6 6 0 0 1-.56 1.02s-.35.5-.15.23q-.18.23-.38.45a10 10 0 0 1-.78.78l-.38.33c.25-.2-.2.13-.24.17a11 11 0 0 1-1.02.62l-.53.27c-.37.18.19-.07-.23.09a2.05 2.05 0 0 0-1.4 2.46 2 2 0 0 0 2.46 1.4c4.03-1.52 7.57-5.12 7.53-9.66a7 7 0 0 0-2.83-5.69 6.8 6.8 0 0 0-5.7-1 2 2 0 0 0 1.06 3.86m-38.89-3.8a6.8 6.8 0 0 0-5.72.88 7 7 0 0 0-2.96 5.63c-.18 4.55 3.33 8.2 7.29 9.85a2 2 0 0 0 2.46-1.4 2.06 2.06 0 0 0-1.4-2.46c.35.14-.21-.11-.23-.12l-.52-.28a11 11 0 0 1-.91-.6q-.17-.12 0 .01a7 7 0 0 1-.61-.53 12 12 0 0 1-.83-.87c-.4-.46.17.28-.17-.22q-.18-.24-.33-.49l-.24-.42-.13-.26.01.03a7 7 0 0 1-.3-1.03c-.01-.03-.1-.63-.06-.24l-.04-.58.02-.58c0-.38-.03.08.01-.14a6 6 0 0 1 .28-1c-.14.36.09-.13.13-.2s.35-.48.08-.16l.34-.37c.08-.07.47-.36.12-.12l.36-.22c.05-.03.52-.27.29-.17s.18-.06.23-.07l.5-.13c.5-.12-.38 0 .13-.01h.5c.42 0-.3-.1.14 0l.49.14a2 2 0 0 0 2.46-1.4 2.04 2.04 0 0 0-1.4-2.46Z" class="b"/><path d="M306.25 44.58a20 20 0 0 1-6.5 9.35 17.2 17.2 0 0 1-10.5 3.26A18 18 0 0 1 278.3 54a19.4 19.4 0 0 1-6.63-9.27c-.84-2.41-4.71-1.37-3.86 1.07 2.38 6.8 7.62 12.78 14.8 14.6 7.2 1.84 15.28.65 20.88-4.42a24.5 24.5 0 0 0 6.61-10.34c.83-2.44-3.03-3.49-3.86-1.06Zm-12.48-7.34a4 4 0 0 1 .97-3.14 3 3 0 0 1 2.05-.88 3.2 3.2 0 0 1 2.68 1.26 3.9 3.9 0 0 1-.08 4.6 3.06 3.06 0 0 1-4.12.67 3.4 3.4 0 0 1-1.5-2.5m-15.6 0a4 4 0 0 1 .96-3.14 3 3 0 0 1 2.05-.88 3.2 3.2 0 0 1 2.68 1.26 3.9 3.9 0 0 1-.08 4.6 3.06 3.06 0 0 1-4.12.67 3.4 3.4 0 0 1-1.5-2.5m18.49-13.92a16 16 0 0 1 1.95 1.14c.17.12.12.09-.01-.02l.4.34a23 23 0 0 1 2.6 2.63l.54.67c.39.47-.1-.16.1.13l.29.38q.56.77 1.06 1.58.5.78.9 1.6l.34.73c.1.21-.1-.28.04.07l.17.48a2.1 2.1 0 0 0 1.93 1.47h1.65a2 2 0 0 0 0-4h-1.65l1.93 1.46a24 24 0 0 0-4.36-7.25 18.5 18.5 0 0 0-5.87-4.86 2 2 0 1 0-2.02 3.45Zm-25.4 10.3a44 44 0 0 1 4.52-5.15q1.19-1.18 2.47-2.27.52-.45 1.08-.84.3-.22.6-.4l.2-.13q.5-.26-.28 0l-1-.26q-.48-.8-.33-.35v.42a5 5 0 0 0 .06 1.2 3 3 0 0 0 1.3 1.75c1.49.87 2.82-.1 4.06-.87a65 65 0 0 1 7.05-4.07 2 2 0 0 0 .72-2.74 2.05 2.05 0 0 0-2.74-.71 43 43 0 0 0-4.43 2.44l-2.13 1.32-.95.6-.44.27c-.5.38-.32-.17.4.1l.89.52c.17.14.13.92.22.33a3 3 0 0 0-.03-.72 5 5 0 0 0-.35-1.54 2.65 2.65 0 0 0-2.75-1.66c-1.52.2-3.08 1.75-4.2 2.7a47 47 0 0 0-7.38 8.04 2 2 0 0 0 .72 2.73 2.05 2.05 0 0 0 2.73-.71Zm-9.94 59.1q-.02 21.3-.41 42.61c-.06 3.75-.21 7.5-.2 11.25a3.8 3.8 0 0 0 1.88 3.64c1.2.63 2.77.46 4.09.5 5.72.14 11.84.4 17.12-2.19 5.84-2.86 7-9.93 7.34-15.79.16-2.57-3.84-2.56-4 0a40 40 0 0 1-1.08 6.7 8 8 0 0 1-3.47 5.2c-4.3 2.63-10.09 2.19-14.93 2.1a12 12 0 0 0-2.99-.09c-.83.25.34-.39 0 .25l.03.15.02-.94.05-2.78.17-9.73q.15-9.18.26-18.35.12-11.27.12-22.53c0-2.57-4-2.58-4 0" class="b"/><path d="M241.92 83.05c.25 3.4.38 6.8.6 10.2q.22 3.44.54 6.88a25 25 0 0 0 1.3 6.8 14 14 0 0 0 8.08 8.12c3.77 1.39 8.13.73 11.69-.9a2 2 0 0 0 .72-2.74 2.05 2.05 0 0 0-2.74-.72 11.3 11.3 0 0 1-8.95.36 10.4 10.4 0 0 1-5.65-7.59 78 78 0 0 1-1.07-11.47c-.17-2.98-.3-5.96-.52-8.94-.2-2.55-4.2-2.57-4 0" class="b"/><path d="M242.07 77.4a20 20 0 0 0-1.45-2.43 6 6 0 0 1-1.26-3.86 7 7 0 0 1 .61-2.39c1.4-2.17 2.61-4.08 4.07-5.92a16 16 0 0 1 1.13-1.23 3.5 3.5 0 0 1 2.44-1.02 14 14 0 0 1 3.12 1.75l.96-.74c.45-.3.76-.78 1.19-1.11a3.1 3.1 0 0 1 3.3.04 13 13 0 0 1 2.57 1.99 3.7 3.7 0 0 1 1.13 2.14 1.6 1.6 0 0 1-.38 1.53 2.8 2.8 0 0 1-2.2.8 4.8 4.8 0 0 1 1.38 3.62 3 3 0 0 1-.04.56 2 2 0 0 1-.24.56c-.86 1.64-2.45 3.58-1.71 5.57 1.8 5.25 1.56 7.86-.14 9.34a12 12 0 0 1-4.66 2.48 11 11 0 0 1-3.11.27 6 6 0 0 1-2.36-1.37 6 6 0 0 1-1.07-2.24 65 65 0 0 0-1.7-4.89 36 36 0 0 0-1.58-3.45" class="a"/><path d="M258.32 65.22a99 99 0 0 0-7.44-5.2 11 11 0 0 0-2.5-1.33 5 5 0 0 0-4.33 1.2 19 19 0 0 0-3.05 3.65 25 25 0 0 0-3.05 4.82 8 8 0 0 0-.56 3.5 10.3 10.3 0 0 0 1.96 4.8 36 36 0 0 1 3.47 7.73 22 22 0 0 0 1.4 3.91 6.6 6.6 0 0 0 4.14 3.02 9 9 0 0 0 3.55-.21 11 11 0 0 0 3.4-1.27c2.38-1.27 4.23-2.97 4.55-5.75a13 13 0 0 0-.39-4.44c-.23-.99-.61-1.93-.86-2.91a2.7 2.7 0 0 1 .4-2.08c.8-1.51 1.74-2.73 1.66-4.51a7.4 7.4 0 0 0-1.94-4.62c-1.66-1.97-4.48.87-2.83 2.83a3 3 0 0 1 .77 2.21c-.05.78.16-.2-.08.27l-.46.8a18 18 0 0 0-1.02 1.94 6 6 0 0 0-.47 3.85c.35 1.47.96 2.85 1.2 4.35a8 8 0 0 1 .03 2.13 1.8 1.8 0 0 1-.74 1.28 9 9 0 0 1-5.1 2.18 5 5 0 0 0-.76.04c-.23.07-.41-.2.14.06a4 4 0 0 1-1.52-.83c-.67-.77-.84-2.19-1.16-3.15a50 50 0 0 0-2.75-6.73c-.93-1.82-2.9-3.86-2.58-5.91a7.4 7.4 0 0 1 1.57-3.08c.78-1.2 1.58-2.43 2.48-3.55a7 7 0 0 1 1.33-1.4c.18-.12.44-.13.6-.24q.54-.02-.16-.07.2.07-.02 0c-.04.04-.1-.07.2.1l.55.3 1.42.89q3.56 2.3 6.93 4.88a2 2 0 0 0 2.74-.72 2.05 2.05 0 0 0-.72-2.74" class="b"/><path d="M252.7 63.29a8 8 0 0 0 1-.86l.28-.3.2-.19-.2.16.2-.12q.28-.15-.16.07a1 1 0 0 0 .34-.1q-.48.06-.24.04h.18a1 1 0 0 0 .37.02q-.5-.08-.17-.02l.24.06.35.1c.4.14-.38-.2-.03 0l.34.2a5 5 0 0 1 .83.55c-.36-.34-.01 0 .06.06l.4.35q.38.32.74.66.12.15.25.28-.28-.37-.1-.11l.1.15.08.16q.14.28-.05-.15l.12.35.1.37c.1.4-.08-.44-.01.06q-.01.25.04-.23l-.05.21.11-.28q-.16.26.13-.14l-.18.19c-.19.23.46-.27.08-.07a1 1 0 0 0-.31.18l.27-.11-.23.07c-.47.14.02-.03.04.03h-.56a2 2 0 0 0-2 2 2.05 2.05 0 0 0 2 2 4.7 4.7 0 0 0 3.72-1.46 4.3 4.3 0 0 0 .34-4.83 8.6 8.6 0 0 0-2.75-2.95A7.4 7.4 0 0 0 254.6 58a4.5 4.5 0 0 0-2.44.53 4 4 0 0 0-1 .77l-.38.4c-.1.1-.53.44-.1.13a2.2 2.2 0 0 0-.92 1.2 2 2 0 0 0 2.94 2.26" class="b"/><path d="M218.68 141.09c-9.46 5.1-19.71 11.03-30.47 13.7a1 1 0 0 0 0 1.95l9.3 2.26a1 1 0 0 1 .54 1.61c-14.9 18.14-42.55 35.04-66.8 45.04a1.21 1.21 0 0 0 .71 2.3c15.68-2.95 34.46-9.13 43.49-13.98 11.78-6.33 23.64-14.15 30.53-23.22a.96.96 0 0 1 1.59.18c1.42 2.48 3.49 5.77 5.4 8.97a1 1 0 0 0 1.84-.3 365 365 0 0 0 5.33-37.54 1 1 0 0 0-1.46-.97" style="fill:#64a4d6"/><path d="M350.02 245.43H228.4a2.03 2.03 0 0 0-2 2v96.9a2.03 2.03 0 0 0 2 2h121.62a2.03 2.03 0 0 0 2-2v-96.9c0-2.58-4-2.58-4 0v96.9l2-2H228.4l2 2v-96.9l-2 2h121.62c2.57 0 2.57-4 0-4M1.93 346.33h121.62c2.57 0 2.57-4 0-4H1.92c-2.57 0-2.58 4 0 4" class="b"/><path d="M216.2 109.56a21 21 0 0 1 4.73-8.49 15 15 0 0 1 8.47-4.59 16 16 0 0 1-8.93-4.66c-2.47-2.68-4-8.55-4.26-9.06-.21.51-2.03 6.43-4.5 9.1a15.4 15.4 0 0 1-8.7 4.62 14 14 0 0 1 8.58 4.62 24 24 0 0 1 4.62 8.46" class="g"/><path d="M216.2 111.56a2 2 0 0 0 1.94-1.47 15.4 15.4 0 0 1 11.8-11.68 2 2 0 0 0 1.46-1.93 2 2 0 0 0-1.47-1.93c-3.46-.55-7.12-2.36-8.97-5.44-1.4-2.32-1.93-4.92-3.02-7.36-.78-1.75-3.1-.92-3.66.48a42 42 0 0 1-3.04 6.92 12.7 12.7 0 0 1-8.77 5.4 2 2 0 0 0-1.47 1.93 2 2 0 0 0 1.47 1.93 13 13 0 0 1 7.56 3.95 19 19 0 0 1 4.25 7.73c.6 2.5 4.46 1.44 3.85-1.06a23 23 0 0 0-5.27-9.5 16.3 16.3 0 0 0-9.32-4.98l1.46 1.93-1.46 1.92a16.5 16.5 0 0 0 10.81-6.7c1.76-2.57 2.66-5.54 3.8-8.41l-3.66.48c-.22-.49-.13-.31-.02.03l.23.7q.36 1.12.78 2.22a23 23 0 0 0 2.54 5.19 17 17 0 0 0 10.85 6.5l-1.47-1.93 1.47-1.93c-7.09 1.32-12.98 7.49-14.6 14.47l1.93-1.46c-2.57-.02-2.57 3.98 0 4" class="b"/><path d="M344.02 47.29a21 21 0 0 1 4.72-8.49 15 15 0 0 1 8.47-4.6 16 16 0 0 1-8.92-4.65c-2.48-2.68-4.01-8.55-4.27-9.06-.21.51-2.03 6.43-4.5 9.1a15.4 15.4 0 0 1-8.7 4.62 14 14 0 0 1 8.58 4.62 24 24 0 0 1 4.62 8.46" class="g"/><path d="M344.02 49.29a2 2 0 0 0 1.93-1.47 15.4 15.4 0 0 1 11.8-11.68 2 2 0 0 0 1.46-1.93 2 2 0 0 0-1.46-1.93c-3.47-.55-7.12-2.36-8.98-5.44-1.4-2.32-1.93-4.92-3.02-7.36-.78-1.75-3.1-.92-3.65.48a42 42 0 0 1-3.05 6.92 12.7 12.7 0 0 1-8.76 5.4 2 2 0 0 0-1.47 1.93 2 2 0 0 0 1.47 1.93 13 13 0 0 1 7.56 3.95 19 19 0 0 1 4.24 7.73c.6 2.5 4.46 1.44 3.86-1.06a23 23 0 0 0-5.28-9.5 16.3 16.3 0 0 0-9.32-4.98l1.47 1.92-1.47 1.93a16.5 16.5 0 0 0 10.81-6.7c1.76-2.57 2.66-5.55 3.8-8.41l-3.66.48c-.22-.48-.13-.3-.02.04l.23.69q.36 1.12.78 2.23a23 23 0 0 0 2.54 5.18 17 17 0 0 0 10.85 6.5l-1.46-1.93 1.46-1.92c-7.08 1.32-12.97 7.49-14.59 14.47l1.93-1.47c-2.58-.02-2.58 3.98 0 4" class="b"/><path d="M50.06 245.43a107 107 0 0 1-11.83.12c.78 21.14 1.49 49.65 1.95 76.77l.01.56c4.87 0 39.2-.38 45.34-.56.47-27.4.98-55.7 1.97-76.78-3.21.11-9.8.27-13-.21a17 17 0 0 1-6.7-2.35 9.4 9.4 0 0 1-3.67-5 49 49 0 0 1-1.45-8.34 49 49 0 0 1-1.44 8.35 9.4 9.4 0 0 1-3.66 5 17 17 0 0 1-6.7 2.34z" class="c"/><path d="M99.12 180.75a30 30 0 0 0-3.54-7.34c-4.23-6.3-11.06-10.26-18.09-13.25a245 245 0 0 1-8.59 22.45c-2.36 5.33-3.13 7.14-6.05 12.6-2.91-5.46-3.7-7.27-6.05-12.6a246 246 0 0 1-8.63-22.57c-7.14 3-14.1 6.99-18.38 13.37s-5.52 14.33-6.29 21.99c-1.28 12.72-1.83 27.67-2.43 40.98a1.3 1.3 0 0 0 1.31 1.39h13.8l-.09 6.38a1.35 1.35 0 0 0 1.3 1.38c2.97.1 10.1.3 13.49-.2a17 17 0 0 0 6.7-2.35 9.4 9.4 0 0 0 3.66-4.99 49 49 0 0 0 1.44-8.35 49 49 0 0 0 1.45 8.35 9.4 9.4 0 0 0 3.66 5 17 17 0 0 0 6.7 2.34c3.39.5 10.52.3 13.5.2a1.35 1.35 0 0 0 1.29-1.38l-.12-6.38h14.06a1.3 1.3 0 0 0 1.3-1.4c-.73-13.33-1.37-28.25-2.65-40.97a68 68 0 0 0-2.75-14.65" class="c"/><path d="M74.72 161.17c5.7 2.28 11.45 5.08 15.9 9.42 4.56 4.45 6.97 10.36 8.2 16.54 1.32 6.62 1.41 13.51 1.87 20.24q.73 10.65 1.39 21.3l.34 5.92a6 6 0 0 0 .08 1.34q-.12 1.05.71-.17H91.28c-2.58 0-2.58 4 0 4h8.68a14 14 0 0 0 4.39-.21c2.05-.7 2.2-2.67 2.1-4.52q-.67-11.76-1.47-23.53c-.5-7.42-.72-14.94-1.77-22.3-1.01-7.07-3.32-14.07-8.01-19.57-5.07-5.93-12.3-9.48-19.42-12.32a2 2 0 0 0-2.46 1.4 2.05 2.05 0 0 0 1.4 2.46" class="b"/><path d="M86.5 189.63q.23 19.78.52 39.56l.16 9.67c0 .4 0 5.28.1 5.29l.48-.6.01-.02a4 4 0 0 0-.72.03l-1.72.04c-4.9.12-10.23.52-14.8-1.4a7.8 7.8 0 0 1-4.6-5.2 37 37 0 0 1-1.24-7.35c-.15-2.56-4.15-2.58-4 0a46 46 0 0 0 1.23 7.76 12 12 0 0 0 4.14 6.74c4.58 3.64 11.04 3.55 16.59 3.5q1.94-.02 3.87-.07c1.32-.04 2.67 0 3.7-.96 1.38-1.27 1.05-3.22 1.02-4.9l-.1-5.68q-.19-10.74-.33-21.48l-.3-24.94c-.03-2.57-4.03-2.58-4 0ZM49.6 157.3c-6.32 2.52-12.58 5.55-17.53 10.31-5.12 4.93-8 11.56-9.37 18.44-1.46 7.27-1.58 14.81-2.06 22.2q-.75 11.78-1.35 23.58l-.16 3.18a5.5 5.5 0 0 0 .33 2.97c.96 1.81 2.8 1.77 4.6 1.77H34.1c2.57 0 2.58-4 0-4H22.7q-.9-.1.37.61a11 11 0 0 0 .1-2.25l.15-2.97q.54-10.87 1.25-21.73c.42-6.71.54-13.57 1.6-20.2 1-6.18 2.98-12.45 7.22-17.2 4.6-5.15 10.95-8.33 17.27-10.85a2.06 2.06 0 0 0 1.4-2.46 2 2 0 0 0-2.47-1.4Z" class="b"/><path d="M34.86 189.63q-.28 21.82-.61 43.65l-.08 5.58a53 53 0 0 0-.05 5.6c.33 3.43 4.02 3.1 6.56 3.16 5.65.12 11.79.38 16.95-2.33 5.6-2.94 6.71-9.91 7.05-15.65.16-2.57-3.84-2.56-4 0a40 40 0 0 1-1.08 6.7 8 8 0 0 1-3.36 5.13c-4.14 2.68-9.8 2.24-14.56 2.17l-3.1-.07a4 4 0 0 0-.96-.02l.48.6.01-.97.02-1.46.15-10.26.27-19.1.32-22.73c.03-2.58-3.97-2.58-4 0Z" class="b"/><path d="M62.85 195.21c2.68-5 3.55-6.95 5.5-11.36a430 430 0 0 1-1.86-11.54 22 22 0 0 1 .8-4.02l.33-1.16a96 96 0 0 0-3.8-5.32H61.7a93 93 0 0 0-3.79 5.3l.32 1.15a24 24 0 0 1 .8 4.04c0 .23-1.61 7.08-2.22 10.3 2.36 5.34 3.14 7.15 6.05 12.6" class="d"/><path d="M75.61 159.47a217 217 0 0 1-14.49 34.73c-1.2 2.27 2.25 4.3 3.46 2.02a223 223 0 0 0 14.9-35.68c.8-2.46-3.07-3.5-3.87-1.07m-.36 35.78c3-4.22 5.82-8.56 8.57-12.95a57 57 0 0 0 3.04-4.86c.77-1.58-.06-2.85-1.03-4.09q-1.39-1.74-2.81-3.45v2.82c1.52-1.86 3-3.78 4.63-5.55 1.75-1.9-1.08-4.73-2.82-2.83-1.64 1.78-3.12 3.69-4.64 5.56a2.1 2.1 0 0 0 0 2.82l1.72 2.1c.4.49 1.24 1.23 1.35 1.84v-1.06a6 6 0 0 1-1.02 1.69l-1.2 1.92-2.47 3.93q-3.26 5.14-6.78 10.1a2 2 0 0 0 .72 2.73 2.04 2.04 0 0 0 2.74-.71Z" class="b"/><path d="M46.23 160.54a223 223 0 0 0 14.9 35.68c1.2 2.27 4.66.25 3.45-2.02a217 217 0 0 1-14.5-34.73c-.8-2.43-4.65-1.39-3.85 1.07m7.85 34.48q-3.74-5.25-7.18-10.7-1.32-2.07-2.62-4.17L43 178.12a7 7 0 0 1-1.1-1.83v1.06c.13-.7 1-1.44 1.47-2q.9-1.12 1.82-2.23a2.1 2.1 0 0 0 0-2.83c-1.61-1.98-3.19-4.01-4.92-5.89-1.75-1.9-4.57.94-2.83 2.83s3.3 3.9 4.92 5.89v-2.83q-1.5 1.82-2.98 3.67c-1.05 1.33-1.89 2.65-1 4.34.95 1.79 2.2 3.48 3.28 5.2a269 269 0 0 0 8.96 13.54 2.06 2.06 0 0 0 2.74.72 2 2 0 0 0 .72-2.74m-17.85 50.54c.72 19.55 1.2 39.12 1.61 58.68q.19 9.04.34 18.08c.05 2.57 4.05 2.58 4 0q-.53-30.89-1.45-61.77-.23-7.5-.5-15c-.1-2.56-4.1-2.57-4 0Zm49.27-.02a2113 2113 0 0 0-1.64 58.6l-.32 18.18c-.05 2.57 3.95 2.57 4 0 .35-20.62.69-41.25 1.37-61.87q.25-7.46.59-14.91c.12-2.58-3.88-2.57-4 0m-24.65 10.3v67.04c0 2.58 4 2.58 4 0v-67.04c0-2.57-4-2.58-4 0" class="b"/><path d="M40.18 324.88c12.57 0 25.14-.23 37.7-.42q3.82-.04 7.65-.14c2.57-.07 2.58-4.07 0-4-12.8.36-25.6.4-38.39.51q-3.48.05-6.96.05c-2.57 0-2.58 4 0 4m25.18-157.13a16 16 0 0 0-.87 4.59 29 29 0 0 0 .43 2.91q.69 4.58 1.5 9.13a2 2 0 0 0 2.46 1.4 2.04 2.04 0 0 0 1.4-2.46q-.78-4.38-1.45-8.8l-.26-1.7-.1-.59-.02-.2c-.05-.34.1.32.04.34l.02-.42c-.02.3-.04.19 0-.05l.11-.58q.26-1.26.6-2.5c.7-2.48-3.16-3.54-3.85-1.06Z" class="b"/><path d="M65.8 170.42h-6.08a2 2 0 0 0 0 4h6.07a2 2 0 0 0 0-4" class="b"/><path d="M56.29 168.8q.3 1.09.53 2.19l.2 1.09c-.1-.51.03-.07 0 .03l.01.15q0 .33.07-.45a15 15 0 0 0-.49 2.22c-.6 2.67-1.22 5.35-1.73 8.05a2.05 2.05 0 0 0 1.4 2.46 2 2 0 0 0 2.46-1.4c.53-2.8 1.17-5.57 1.8-8.34a13 13 0 0 0 .5-2.5 17 17 0 0 0-.88-4.57c-.67-2.48-4.53-1.43-3.86 1.07Z" class="b"/><path d="M73.8 154.64c.95 1.15 2.1 2.83 3.03 4a3.1 3.1 0 0 1 .55 2.78c-.4.73-4.81 7.16-7.66 8.82-.83-1.2-4.25-6.4-5.9-8.43.67-.44 9.55-6.85 9.99-7.17m-22.1 0c-.94 1.15-2.1 2.83-3.02 4a3.1 3.1 0 0 0-.55 2.78c.4.73 4.8 7.16 7.66 8.82.83-1.2 4.24-6.4 5.9-8.43-.67-.44-9.55-6.85-9.99-7.17" class="a"/><path d="M72.4 156.05c.6.74 1.21 1.62 1.82 2.43.34.47.74.91 1.05 1.4a2 2 0 0 1 .27.73c-.02-.1-.12.34.04-.05.1-.25.03-.08-.01-.02l-.28.44-.93 1.34-.65.88-.33.44-.15.2a45 45 0 0 1-1.57 1.9q-.78.9-1.63 1.72l-.77.68c-.35.3.26-.15-.08.06q-.23.16-.47.3l2.74.72c-2.03-2.97-3.95-6.04-6.22-8.84l-.4 3.15c3.42-2.24 6.7-4.75 10-7.17a2.06 2.06 0 0 0 .7-2.74 2 2 0 0 0-2.73-.71c-3.28 2.42-6.57 4.92-9.99 7.16a2.04 2.04 0 0 0-.4 3.14l.13.17.4.53q.4.53.77 1.06.87 1.22 1.7 2.45l2.58 3.82a2.04 2.04 0 0 0 2.74.72 17 17 0 0 0 3.96-3.63q1.8-2.1 3.39-4.37c.97-1.39 1.7-2.61 1.32-4.42a8 8 0 0 0-1.72-3.08c-.81-1.09-1.6-2.19-2.46-3.24a2 2 0 0 0-2.83 0 2.05 2.05 0 0 0 0 2.83" class="b"/><path d="M50.29 153.23q-1.26 1.59-2.45 3.24a8 8 0 0 0-1.72 3.07c-.4 1.82.34 3.04 1.32 4.43a58 58 0 0 0 3.39 4.37 17 17 0 0 0 3.95 3.62 2.05 2.05 0 0 0 2.74-.71l2.58-3.83 1.7-2.44.77-1.06.4-.54c-.31.41.07-.08.13-.16a2.04 2.04 0 0 0-.4-3.14c-3.42-2.24-6.7-4.74-9.99-7.17a2 2 0 0 0-2.73.72 2.05 2.05 0 0 0 .71 2.74c3.29 2.42 6.57 4.92 9.99 7.16l-.4-3.14c-2.26 2.8-4.18 5.87-6.21 8.84l2.73-.72-.4-.26c-.37-.24.04.05-.09-.06l-.82-.73a25 25 0 0 1-1.57-1.65q-.84-.96-1.64-1.98l-.15-.19-.32-.43-.65-.89q-.48-.66-.93-1.34l-.27-.41-.08-.13c.22-.1.01.76.1.13-.03.2.17-.56.1-.4s.34-.57.16-.3c.31-.48.7-.92 1.05-1.38.6-.82 1.23-1.7 1.83-2.43a2.06 2.06 0 0 0 0-2.83 2 2 0 0 0-2.83 0m9.72 169.44V328c0 1.44.25 3.1-.24 4.48-.57 1.6-3.02 1.78-4.41 2.23a27 27 0 0 0-6.38 3.11c-2.07 1.35-3.8 2.86-6.2 3.63a18 18 0 0 1-6.96.83c-1.7-.13-4.32-.42-5-2.26a4.6 4.6 0 0 1 .91-4.9 75 75 0 0 1 11.52-9.72c2.1-1.47.1-4.94-2.02-3.45A81 81 0 0 0 28.9 332.3c-3.64 3.85-3.22 10.77 2.01 12.93 5.07 2.09 11.85 1.25 16.54-1.47 1.25-.73 2.33-1.7 3.54-2.49a27 27 0 0 1 4-2.16c2.17-.93 4.74-1.16 6.65-2.64 2.25-1.74 2.37-4.56 2.37-7.18v-6.62c0-2.57-4-2.58-4 0" class="b"/><path d="m61.57 322.65.04 5.88c.01 2.15-.09 4.46 1.05 6.38 1.3 2.21 3.84 2.81 6.12 3.5a24 24 0 0 1 7.35 3.85 20.6 20.6 0 0 0 16.64 3.61c2.69-.6 5-1.95 5.92-4.64a8.7 8.7 0 0 0-.65-7.35c-1.4-2.28-3.82-4.14-5.8-5.89a91 91 0 0 0-7.77-6.05c-2.1-1.49-4.1 1.98-2.02 3.45a86 86 0 0 1 10.44 8.67c1.35 1.3 2.55 2.58 2.33 4.6a4 4 0 0 1-.76 2.17 6 6 0 0 1-3.17 1.26 16.8 16.8 0 0 1-13.13-3.29 29 29 0 0 0-6.54-3.63c-.92-.37-1.87-.65-2.82-.93a6 6 0 0 1-2.37-.99c-1.22-1.08-.8-3.53-.82-4.98l-.04-5.63c0-2.57-4-2.57-4 0Z" class="b"/><path d="M38.67 116.8a22.5 22.5 0 0 1 4.82-9.8c4.29-4.82 9.41-7.4 17.2-7.97 6.04-.45 13.02 1.5 15.94 5.31a21 21 0 0 1 4.09 2.86c5.27 5.4 7.27 14.1 4.68 22.58a4.8 4.8 0 0 0-3.33-.36h-1.55a24 24 0 0 0-5.69-8.36 13 13 0 0 0-3.62-2.56l-7.7-.67c-2.63 1.19-6.36 3.69-8.45 4.93-.5.3-1.08-.17-1.02-.82a4 4 0 0 0-.09-1.47c-.14-.61-.58-.87-.92-.68-2.93 1.64-7.42 6.25-9.95 9.72a4.8 4.8 0 0 0-4.3.76 28 28 0 0 1-.12-13.47" class="e"/><path d="M87.51 129.68a26 26 0 0 0-2-19.33 18 18 0 0 0-6.44-6.85c-1.2-.74-2.07-1.77-3.2-2.62a17 17 0 0 0-3.77-2.07c-11.06-4.56-25.47-.74-32.03 9.43-3.94 6.1-4.9 13.93-3.58 20.97.48 2.53 4.33 1.46 3.86-1.06-1.9-10.1 2.35-21.44 12.37-25.4a25.4 25.4 0 0 1 15.86-.94 13 13 0 0 1 6.26 3.5 17 17 0 0 0 3.26 2.3 12 12 0 0 1 2.78 2.87c3.75 5.26 4.43 12 2.78 18.14-.68 2.49 3.18 3.55 3.85 1.06" class="b"/><path d="M82.5 131.37q.25-.07.5-.11c-.45.1.04 0 .14 0l.5.02c-.28-.01-.16-.02.05.02l.49.13c.17.06.32.14.07.02l.45.24c.05.03.48.35.15.07l.38.34c.06.07.36.47.12.12a5 5 0 0 1 .36.6q-.1-.24-.02-.04a5 5 0 0 1 .27 1c-.07-.4 0 .19 0 .23v.58c0 .08-.07.63 0 .24a5 5 0 0 1-.27 1.05c-.03.1-.14.42-.04.16a6 6 0 0 1-.56 1.02s-.35.5-.14.23q-.19.24-.39.46a10 10 0 0 1-.78.77l-.38.33c.25-.2-.19.14-.24.17a11 11 0 0 1-1.02.63l-.53.26c-.37.18.2-.07-.23.1a2 2 0 1 0 1.06 3.85c4.03-1.52 7.57-5.12 7.53-9.66a7 7 0 0 0-2.83-5.69 6.8 6.8 0 0 0-5.7-1 2 2 0 0 0 1.06 3.86m-38.88-3.79a6.8 6.8 0 0 0-5.73.88 7 7 0 0 0-2.95 5.63c-.2 4.55 3.32 8.2 7.28 9.84a2 2 0 0 0 2.46-1.4 2.06 2.06 0 0 0-1.4-2.46c.35.15-.21-.1-.23-.12l-.51-.27a11 11 0 0 1-.92-.6q-.16-.13 0 0l-.6-.52a12 12 0 0 1-.83-.87c-.4-.47.17.28-.18-.22l-.32-.5q-.13-.2-.24-.41l-.13-.26.01.03a7 7 0 0 1-.31-1.03 7 7 0 0 1-.09-.83l.02-.58c0-.37-.03.08 0-.14a5 5 0 0 1 .29-1c-.15.36.08-.13.12-.2s.36-.48.08-.15l.35-.38c.07-.07.47-.35.12-.11l.35-.23c.05-.03.52-.26.3-.16s.18-.06.23-.08q.24-.07.5-.12c.5-.12-.39 0 .13-.02h.5c.42 0-.3-.1.14.01l.49.13a2 2 0 0 0 2.46-1.4 2.04 2.04 0 0 0-1.4-2.46Z" class="b"/><path d="M79.79 141.48a20 20 0 0 1-6.5 9.35 17.2 17.2 0 0 1-10.49 3.27 18 18 0 0 1-10.96-3.2 19.4 19.4 0 0 1-6.63-9.26c-.85-2.41-4.71-1.38-3.86 1.06 2.38 6.82 7.62 12.79 14.8 14.61 7.2 1.83 15.28.65 20.88-4.43a24.5 24.5 0 0 0 6.62-10.33c.82-2.44-3.04-3.5-3.86-1.06Zm-12.47-7.33a4 4 0 0 1 .97-3.15 3 3 0 0 1 2.04-.87 3.2 3.2 0 0 1 2.69 1.25 3.9 3.9 0 0 1-.09 4.6 3.06 3.06 0 0 1-4.12.67 3.4 3.4 0 0 1-1.5-2.5m-15.62 0a4 4 0 0 1 .97-3.15 3 3 0 0 1 2.05-.87 3.2 3.2 0 0 1 2.68 1.25 3.9 3.9 0 0 1-.08 4.6 3.06 3.06 0 0 1-4.12.67 3.4 3.4 0 0 1-1.5-2.5m18.5-13.93a15 15 0 0 1 1.95 1.15c.17.11.12.08-.01-.02l.4.33a23 23 0 0 1 2.6 2.64l.54.66c.39.48-.1-.15.1.13l.29.38q.56.77 1.07 1.58.48.8.9 1.6.16.38.34.73c.1.22-.1-.27.03.08l.18.47a2.1 2.1 0 0 0 1.92 1.47h1.65a2 2 0 1 0 0-4h-1.64l1.93 1.47a24 24 0 0 0-4.36-7.25 18.5 18.5 0 0 0-5.87-4.87 2 2 0 1 0-2.02 3.45m-25.39 10.3a44 44 0 0 1 4.5-5.14q1.2-1.2 2.48-2.27a16 16 0 0 1 1.69-1.25l.19-.13q.5-.26-.28.01l-1-.27q-.47-.8-.33-.35v.43a5 5 0 0 0 .07 1.19 3 3 0 0 0 1.3 1.75c1.48.87 2.81-.09 4.05-.86a65 65 0 0 1 7.05-4.08 2 2 0 0 0 .72-2.73 2.05 2.05 0 0 0-2.74-.72 43 43 0 0 0-4.43 2.45l-2.13 1.32-.95.6-.44.26c-.5.39-.31-.16.4.1l.89.52c.17.14.14.92.22.33a3 3 0 0 0-.03-.71 5 5 0 0 0-.35-1.55 2.65 2.65 0 0 0-2.74-1.66c-1.53.2-3.08 1.75-4.2 2.7a47 47 0 0 0-7.39 8.04 2 2 0 0 0 .72 2.74 2.05 2.05 0 0 0 2.74-.72Z" class="b"/></svg>
