<svg xmlns="http://www.w3.org/2000/svg" viewBox="0 -8.13 359.214 359.214"><defs><style>.a{fill:#fff}.b{fill:#211715}.c{fill:#b3b3b3}.d{fill:#957f6e}.f{fill:#ffda71}</style></defs><path d="M297.43 62.45c-1.77-.64-1.7-1.77-1.92-3.05-.2-1.11-.24-1.84-.3-2.52a17 17 0 0 1-2.49.73 27 27 0 0 1-4.89.5 31 31 0 0 1-4.51-.44 17 17 0 0 1-3.95-1.2l-.01.18c0 .44-.27 2.7-.37 3.22-.24 1.27-.16 2.4-1.93 3.05-.06.02-.35.12-.65.2l-.85.26q.82 2.55 1.77 5.14a19.8 19.8 0 0 0 20.96-.94q.75-2.14 1.44-4.24l-.64-.24zM99.82 245.92a2.4 2.4 0 0 0 1.53-2.28c.08-5.01-2.38-12.79-4.51-19.08-3.4.18-8.72.31-10.92.37l-1.09.02v.93l-.06 7.07a38 38 0 0 0 .18 3.87 3.3 3.3 0 0 0 1.22 2.64 3 3 0 0 0 1.75.61 4.4 4.4 0 0 0 3.64-2.6 48 48 0 0 0 2.87 5.41 9 9 0 0 0 1.83 2.4 3.6 3.6 0 0 0 2.85.86 3 3 0 0 0 .7-.22" class="a"/><path d="M93.99 222.4c2.03 5.92 4.3 12 5.16 18.23q.12.92.17 1.85c.02.34.18 1.04 0 1.35-.65 1.04-2.04-.27-2.47-.85a36 36 0 0 1-3.9-7.33 2.07 2.07 0 0 0-2.47-1.4 2 2 0 0 0-1.4 2.46 47 47 0 0 0 2.11 4.53 25 25 0 0 0 3.1 4.91 5.7 5.7 0 0 0 5.96 1.73 4.6 4.6 0 0 0 3.1-4.39c.1-3.59-.9-7.33-1.86-10.76a196 196 0 0 0-3.65-11.4c-.83-2.42-4.7-1.38-3.86 1.06" class="b"/><path d="M89.2 237.38a2 2 0 0 1-.48.4l-.37.21-.09.03-.36.09q.36-.05.02-.04.2.06-.14-.02l-.38-.11q.31.13.02-.03.32.28 0-.02l-.3-.3q.18.23 0-.04l-.09-.15q.13.35.02.02l-.08-.33q.03.34 0-.05-.2-2.32-.19-4.65l.05-6.51a2 2 0 0 0-4 0l-.05 5.89c0 .98-.02 1.97.03 2.96.1 2.22.13 4.44 1.86 6.07 2.2 2.06 5.37 1.35 7.36-.58a2 2 0 0 0-2.83-2.83Z" class="b"/><path d="M23.8 245.92a2.4 2.4 0 0 1-1.53-2.28c-.08-5.01 2.38-12.79 4.51-19.08 3.39.18 8.71.31 10.92.37l1.08.02.01.93.05 7.07a37 37 0 0 1-.17 3.87 3.3 3.3 0 0 1-1.22 2.64 3 3 0 0 1-1.75.61 4.4 4.4 0 0 1-3.64-2.6 48 48 0 0 1-2.87 5.41 9 9 0 0 1-1.83 2.4 3.6 3.6 0 0 1-2.85.86 3 3 0 0 1-.71-.22" class="a"/><path d="M25.77 221.33a199 199 0 0 0-3.6 11.21c-.97 3.49-2.01 7.3-1.9 10.96.15 4.81 5.88 5.95 8.93 2.8a23 23 0 0 0 3.22-5.05 47 47 0 0 0 2.12-4.54 2 2 0 0 0-1.4-2.46 2.05 2.05 0 0 0-2.46 1.4 39 39 0 0 1-3.8 7.18c-.42.6-1.88 2.11-2.57 1-.18-.3-.03-1-.01-1.34q.05-.93.17-1.85c.86-6.24 3.13-12.31 5.17-18.24.83-2.44-3.03-3.5-3.86-1.07Z" class="b"/><path d="M31.59 240.21c1.74 1.69 4.32 2.5 6.55 1.2a5.3 5.3 0 0 0 2.2-2.7 11 11 0 0 0 .43-3.24c.15-2.29.06-4.6.04-6.9l-.02-2.69a2 2 0 0 0-4 0l.05 6.5a53 53 0 0 1-.18 4.66q-.05.38 0 .05l-.1.33q-.09.3-.01.07c.08-.23.04-.12-.05.06q-.19.28-.01.04l-.29.3q-.32.3 0 .03-.3.14.01.02l-.37.11q-.35.08-.14.02-.34-.01.02.04l-.37-.09q-.33-.11-.08-.03l-.37-.2a2 2 0 0 1-.48-.4 2 2 0 0 0-2.83 2.82" class="b"/><path d="M75.23 337.5a26 26 0 0 0-6.4-3.56c-1.47-.56-3.62-.92-4.8-1.82-1.63-1.25-1.53-3.63-1.53-5.32l-.04-6.01v-2.27q6.8-.01 13.36-.13c5.43 3.2 11.72 8.96 15.65 12.84 1.36 1.35 2.58 3.07 1.95 5.5a4 4 0 0 1-1.87 2.83 11 11 0 0 1-4.13 1.2 18.4 18.4 0 0 1-9.71-1.64 13 13 0 0 1-2.38-1.53Zm-44.05 1.4a5 5 0 0 1-1.01-2.16c-.63-2.44.84-4.1 2.2-5.46a89 89 0 0 1 15.82-12.74l12.83-.01v8.28c0 1.69.17 4.07-1.46 5.32-1.17.9-3.32 1.25-4.8 1.81a26 26 0 0 0-6.5 3.65 13 13 0 0 1-2.38 1.52 18.4 18.4 0 0 1-9.71 1.65 11 11 0 0 1-4.13-1.2 4 4 0 0 1-.86-.67" class="a"/><path d="M40.04 218.4a137 137 0 0 0-1.15 24.64c.5 14.94 1.96 58.2 4.03 75.48 5.51.05 12.54 0 18.88 0q9.98-.01 19.4-.24c1.4-17.47 3.94-60.44 4.43-75.24a137 137 0 0 0-1.14-24.64" class="a"/><path d="M59.02 320.8v4.95c0 1.32.3 3.07-.28 4.29-.64 1.32-3.1 1.48-4.34 1.92a26 26 0 0 0-6.14 3.16 19 19 0 0 1-5.5 3.05 16.5 16.5 0 0 1-6.59.59c-1.67-.2-3.58-.57-4.02-2.4-.41-1.7.78-2.82 1.91-3.93a95 95 0 0 1 11.67-9.91c2.08-1.47.09-4.94-2.02-3.46a100 100 0 0 0-12.61 10.68c-1.61 1.59-3.07 3.46-3.07 5.84a6.6 6.6 0 0 0 3.19 5.8c4.7 2.57 11.47 1.7 16.04-.73 2.26-1.2 4.13-2.96 6.45-4.09 2.19-1.06 4.87-1.3 6.86-2.71 2.24-1.59 2.46-4.24 2.45-6.76v-6.28c0-2.58-4-2.58-4 0Z" class="b"/><path d="m60.46 320.8.04 5.6c0 2.03-.06 4.27 1.13 6.02 1.47 2.17 4.04 2.54 6.34 3.33a28 28 0 0 1 7 4.04 18.6 18.6 0 0 0 15.77 2.3 6.5 6.5 0 0 0 4.62-4.82 7.5 7.5 0 0 0-2-6.96 73 73 0 0 0-6.03-5.7 91 91 0 0 0-7.69-6.13c-2.1-1.49-4.1 1.98-2.01 3.45a94 94 0 0 1 10.44 8.78c1.18 1.12 3 2.4 3.43 4.06a2.8 2.8 0 0 1-2.03 3.54 14.8 14.8 0 0 1-12.64-2.09 31 31 0 0 0-5.94-3.58 25 25 0 0 0-2.92-1.07 8 8 0 0 1-2.66-.99c-1.16-.93-.8-3.1-.8-4.41l-.04-5.38c0-2.57-4-2.58-4 0Z" class="b"/><path d="M59.8 243.96v74.12c0 2.57 4 2.58 4 0v-74.12c0-2.58-4-2.58-4 0" class="b"/><path d="M43.69 320.52q18.05.15 36.1-.2c2.58-.06 2.59-4.06 0-4q-18.04.37-36.1.2c-2.58-.02-2.58 3.98 0 4" class="b"/><path d="M82.56 218.94c1.92 13.68 1 27.5.29 41.23q-1.05 20.05-2.37 40.08c-.4 6.03-.8 12.05-1.28 18.06-.2 2.57 3.8 2.55 4 0 .97-12 1.69-24.03 2.4-36.05.73-12.08 1.44-24.17 1.93-36.27a157 157 0 0 0-1.11-28.11 2 2 0 0 0-2.46-1.4 2.06 2.06 0 0 0-1.4 2.46m-44.45-1.06c-1.94 13.89-1.16 27.83-.63 41.79.5 13.4 1.06 26.8 1.9 40.18.38 6.08.78 12.17 1.48 18.23a2.06 2.06 0 0 0 2 2 2 2 0 0 0 2-2c-1.36-11.82-1.86-23.75-2.42-35.63A2552 2552 0 0 1 41 246.33a158 158 0 0 1 .97-27.4 2.07 2.07 0 0 0-1.4-2.45 2 2 0 0 0-2.46 1.4M1.93 342.86h121.62c2.57 0 2.57-4 0-4H1.92c-2.57 0-2.58 4 0 4m49-122.45h21.75c2.58 0 2.58-4 0-4H50.93c-2.57 0-2.57 4 0 4" class="b"/><path d="m58.1 181.84-1.38-3.12c-1.87-4.24-3.69-8.8-5.3-13.29a19.8 19.8 0 0 0 20.96-.94c-1.7 4.8-3.63 9.69-5.63 14.23-1.96 4.42-2.6 5.92-5.02 10.45a109 109 0 0 1-3.63-7.33" class="a"/><path d="M85.32 224.6c-2.79.1-9.45.28-12.61-.2a16 16 0 0 1-6.26-2.18 8.8 8.8 0 0 1-3.42-4.67 46 46 0 0 1-1.35-7.8 46 46 0 0 1-1.36 7.8 8.8 8.8 0 0 1-3.42 4.67 16 16 0 0 1-6.26 2.19c-3.16.47-9.82.28-12.6.18l-.34.34c-2.86-.07-10.94-.27-13.28-.55a1.56 1.56 0 0 1-1.3-1.68c.48-8.36 3.4-41.41 8.86-50.46a21 21 0 0 1 5.6-6.3c3.15-2.35 8.4-4.4 12.05-5.74 2 6.12 4.49 12.62 7.09 18.52 1.95 4.42 2.6 5.92 5.02 10.45 2.41-4.53 3.06-6.03 5.01-10.45a205 205 0 0 0 7.11-18.57c3.66 1.33 8.99 3.41 12.18 5.8a21 21 0 0 1 5.6 6.29c5.45 9.05 8.38 42.1 8.86 50.46a1.56 1.56 0 0 1-1.3 1.68c-2.35.28-10.43.48-13.28.55Z" class="c"/><path d="M350.02 243.95H228.4v96.9h121.62Z" class="a"/><path d="M257.1 241.99a5 5 0 0 1-1.01-2.15c-.63-2.44.84-4.11 2.2-5.46a89 89 0 0 1 15.8-12.75c4.12.01 8.62 0 12.84 0v8.28c0 1.69.17 4.07-1.46 5.32-1.16.9-3.31 1.26-4.79 1.81a26 26 0 0 0-6.5 3.65 13 13 0 0 1-2.38 1.53 18.4 18.4 0 0 1-9.72 1.64 10.5 10.5 0 0 1-4.12-1.2 4 4 0 0 1-.86-.67m44.04-1.39a26 26 0 0 0-6.4-3.56c-1.47-.56-3.62-.92-4.79-1.82-1.63-1.25-1.53-3.63-1.53-5.32l-.04-6.01v-2.27q6.8-.01 13.36-.13c5.43 3.2 11.72 8.96 15.65 12.84 1.37 1.35 2.58 3.07 1.95 5.5a4 4 0 0 1-1.87 2.83 10.5 10.5 0 0 1-4.13 1.2 18.4 18.4 0 0 1-9.71-1.65 13 13 0 0 1-2.38-1.53Zm24.6-91.59a2.4 2.4 0 0 0 1.52-2.28c.08-5-2.37-12.78-4.51-19.08-3.39.19-8.71.32-10.92.37l-1.08.03v.92l-.06 7.07a38 38 0 0 0 .17 3.88 3.3 3.3 0 0 0 1.22 2.64 3 3 0 0 0 1.76.6 4.4 4.4 0 0 0 3.63-2.6 48 48 0 0 0 2.88 5.42 9 9 0 0 0 1.82 2.4 3.6 3.6 0 0 0 2.86.86 3 3 0 0 0 .7-.23" class="a"/><path d="M319.9 125.49c2.03 5.93 4.3 12 5.16 18.24q.13.92.18 1.85c.01.33.17 1.04-.01 1.34-.65 1.05-2.04-.26-2.46-.84a36 36 0 0 1-3.92-7.34 2.07 2.07 0 0 0-2.46-1.4 2 2 0 0 0-1.4 2.46 47 47 0 0 0 2.12 4.54 25 25 0 0 0 3.1 4.9 5.7 5.7 0 0 0 5.95 1.74 4.6 4.6 0 0 0 3.1-4.39c.11-3.6-.9-7.34-1.85-10.77a197 197 0 0 0-3.65-11.4c-.83-2.42-4.7-1.38-3.86 1.07" class="b"/><path d="M315.12 140.48a2 2 0 0 1-.48.4l-.38.21-.08.03-.36.08q.36-.05.02-.03.2.05-.14-.02l-.38-.11q.31.12.02-.03.32.28 0-.03l-.3-.3q.18.24 0-.03l-.09-.15q.13.34.02.02l-.09-.34q.04.34 0-.04-.2-2.32-.18-4.66l.05-6.5a2 2 0 1 0-4 0l-.05 5.88q-.02 1.49.02 2.97c.1 2.22.14 4.44 1.87 6.06 2.2 2.07 5.36 1.35 7.36-.58a2 2 0 1 0-2.83-2.83" class="b"/><path d="M297.05 127.2a14 14 0 0 1-4.69-1.89 8.8 8.8 0 0 1-3.42-4.66 46 46 0 0 1-1.35-7.8 46 46 0 0 1-1.35 7.8 8.8 8.8 0 0 1-3.42 4.66 16 16 0 0 1-6.26 2.2 82 82 0 0 1-11.13.23 85 85 0 0 0-1.03 15.99c.5 14.93 1.96 60.65 4.03 77.88 5.57.06 12.8.01 19.29.01q9.65-.02 18.8-.23c1.35-15.52 4.11-62.12 4.63-77.66a109 109 0 0 0-.75-16.01 87 87 0 0 1-11.77-.22q-.82-.12-1.58-.3" class="a"/><path d="M284.94 223.9v4.95c0 1.31.3 3.06-.29 4.28-.64 1.32-3.1 1.48-4.33 1.92a26 26 0 0 0-6.14 3.16 19 19 0 0 1-5.5 3.06 16.5 16.5 0 0 1-6.6.58c-1.66-.2-3.58-.56-4.02-2.39-.4-1.7.8-2.82 1.92-3.93a94 94 0 0 1 11.66-9.92c2.1-1.47.1-4.94-2.01-3.45a100 100 0 0 0-12.61 10.67c-1.62 1.6-3.07 3.47-3.08 5.85a6.6 6.6 0 0 0 3.2 5.8c4.7 2.57 11.46 1.7 16.04-.73 2.25-1.2 4.12-2.96 6.45-4.1 2.19-1.06 4.86-1.28 6.86-2.7 2.23-1.6 2.46-4.24 2.45-6.77v-6.28c0-2.57-4-2.58-4 0" class="b"/><path d="m286.38 223.89.04 5.61c0 2.03-.07 4.27 1.13 6.02 1.47 2.17 4.04 2.53 6.34 3.33a28 28 0 0 1 7 4.04 18.6 18.6 0 0 0 15.77 2.3 6.5 6.5 0 0 0 4.61-4.82 7.5 7.5 0 0 0-1.99-6.97 73 73 0 0 0-6.03-5.69 91 91 0 0 0-7.69-6.13c-2.1-1.5-4.1 1.98-2.02 3.45a94 94 0 0 1 10.44 8.78c1.18 1.12 3 2.4 3.44 4.06a2.8 2.8 0 0 1-2.03 3.54 14.8 14.8 0 0 1-12.64-2.1 31 31 0 0 0-5.95-3.57 25 25 0 0 0-2.9-1.08 8 8 0 0 1-2.67-.98c-1.16-.94-.8-3.1-.81-4.42l-.04-5.37c0-2.58-4-2.58-4 0m20.95-104.27a145 145 0 0 1 1.76 25.85q-.31 7.7-.73 15.38-1.05 20.05-2.36 40.09-.58 9.03-1.28 18.06c-.21 2.56 3.8 2.55 4 0 .96-12 1.69-24.04 2.4-36.06.72-12.08 1.43-24.17 1.92-36.26.16-3.93.22-7.85-.02-11.78a201 201 0 0 0-1.83-16.34 2 2 0 0 0-2.46-1.4 2.05 2.05 0 0 0-1.4 2.46m-42.92 1.35c-.65 4.53-1.4 9.06-1.79 13.62a93 93 0 0 0-.16 10.9l.55 15.82c.5 13.82 1.06 27.64 1.9 41.44.37 6.15.77 12.3 1.47 18.43a2.06 2.06 0 0 0 2 2 2 2 0 0 0 2-2c-1.39-12.06-1.85-24.25-2.41-36.36-.57-12.44-1.02-24.89-1.44-37.34-.11-3.55-.25-7.1-.06-10.66.27-4.96 1.1-9.87 1.8-14.78a2.07 2.07 0 0 0-1.4-2.46 2 2 0 0 0-2.46 1.4Z" class="b"/><path d="M285.72 147.05v74.12c0 2.58 4 2.58 4 0v-74.12c0-2.57-4-2.58-4 0" class="b"/><path d="M269.6 223.62q18.05.14 36.11-.21c2.57-.06 2.58-4.06 0-4q-18.05.38-36.11.21c-2.57-.02-2.58 3.98 0 4m7.25-100.12h21.75c2.57 0 2.58-4 0-4h-21.75c-2.57 0-2.58 4 0 4" class="b"/><path d="M244.1 77.95c.38 5.01.39 8.63 1.06 15.95a26 26 0 0 0 .93 5.63c1.25 3.97 4.73 7.35 8.87 7.78a13.4 13.4 0 0 0 8.16-1.48l-.37 20.72a1.25 1.25 0 0 0 1.2 1.14c2.78.1 9.44.29 12.6-.19a16 16 0 0 0 6.27-2.19 8.8 8.8 0 0 0 3.42-4.66 46 46 0 0 0 1.35-7.8 46 46 0 0 0 1.35 7.8 8.8 8.8 0 0 0 3.42 4.66 16 16 0 0 0 6.26 2.2c3.16.47 9.83.28 12.61.18l.6.33c2.86-.07 10.94-.26 13.28-.55a1.57 1.57 0 0 0 1.3-1.67c-.48-8.37-3.4-41.42-8.86-50.47a21 21 0 0 0-5.6-6.29c-3.2-2.38-8.52-4.46-12.18-5.79-2 6.13-4.5 12.65-7.1 18.56-1.96 4.43-2.6 5.93-5.02 10.46-2.42-4.53-3.06-6.03-5.02-10.46-2.6-5.9-5.1-12.4-7.09-18.51-3.66 1.33-8.9 3.39-12.06 5.74a21 21 0 0 0-5.59 6.3 18 18 0 0 0-1.26 2.61Z" class="c"/><path d="M288.44 71.02a19 19 0 0 1-11.1-2.51c1.6 4.5 3.42 9.06 5.3 13.3 1.95 4.42 2.6 5.93 5 10.45 2.43-4.52 3.07-6.03 5.03-10.45 2-4.54 3.93-9.43 5.63-14.23a19 19 0 0 1-9.86 3.44" class="a"/><path d="M312.25 27.62a7.5 7.5 0 0 1 9.66 5.55c.8 5.12 1.35 12.76 6.16 14.48-.97 3.1-6.55 3.97-8.55 4.03a13.7 13.7 0 0 1-6.91-2 12.6 12.6 0 0 1-5.26-4.93 4 4 0 0 1-.3-.65" class="d"/><path d="M294.9 17.02a24 24 0 0 0 4.26 8.07 29 29 0 0 0 7.75 6.81 4.7 4.7 0 0 1 4.56 1.2c.46-3.28 1.02-5.5.79-7.8-.58-5.8-3.22-12.67-7.48-16.56a38 38 0 0 0-2.8-2.4 20 20 0 0 0-3.98-2.3 27 27 0 0 0-10.84-2.08 26.6 26.6 0 0 0-17.07 6.68c-5.03 4.81-8.39 12.53-6.5 24.96a4.7 4.7 0 0 1 4.7-1.74c5.13-.82 20.16-8.74 26.6-14.84" class="d"/><path d="M277.37 56.66a21 21 0 0 1-.26 2.53l.07-.53a10 10 0 0 1-.48 2.41l.2-.48-.16.32c-.12.18-.22.15.14-.17l-.13.13-.15.14c0-.06.47-.32.16-.14l-.48.25.48-.2q-.74.28-1.5.5a2 2 0 1 0 1.07 3.86 10 10 0 0 0 2.63-1.08 4.5 4.5 0 0 0 1.84-3q.2-1.24.37-2.49a19 19 0 0 0 .2-2.05 2 2 0 0 0-4 0m15.86.23q.1 1.41.32 2.81a9 9 0 0 0 .39 1.91 4.3 4.3 0 0 0 2.07 2.4c.56.28 1.16.48 1.74.7l1.45.57a2 2 0 0 0 1.54-.2 2 2 0 0 0 .71-2.74 2.3 2.3 0 0 0-1.19-.92l-2.48-.96.48.2a3 3 0 0 1-.71-.4l.4.3a3 3 0 0 1-.37-.36l.3.4a2 2 0 0 1-.27-.47l.2.48a10 10 0 0 1-.5-2.53l.07.53q-.1-.86-.16-1.72a2.2 2.2 0 0 0-.59-1.42 2 2 0 0 0-3.41 1.42Zm-16.9 13.35a21.7 21.7 0 0 0 22.97-.92 2.06 2.06 0 0 0 .72-2.74 2 2 0 0 0-2.74-.72 17.8 17.8 0 0 1-18.94.92c-2.22-1.3-4.23 2.15-2.02 3.46m33.61 14.3c.2 11.15.24 22.3.38 33.46l.05 4.02.03 2.17.02 1.23v.49q-.13 1.14.6-.21c-.24-.23-1.92.05-2.26.06q-1.58.04-3.16.05c-3.97.02-8.3.18-11.8-1.94a7.2 7.2 0 0 1-3.17-4.66 37 37 0 0 1-1.04-6.36 2 2 0 0 0-4 0 37 37 0 0 1-.86 5.58 8.3 8.3 0 0 1-2.12 4.46c-2.9 2.85-7.49 2.87-11.27 2.91q-2.97.04-5.94-.06a3 3 0 0 0-1.02-.04c-.3.12-.22-.07 0 .1.7.5.26.15.4-.24a9 9 0 0 0 .03-2.2l.05-2.44q.14-8.5.3-16.99l.35-19.4c.04-2.57-3.96-2.57-4 0q-.33 19.3-.7 38.58c-.02 1.47-.4 3.4.29 4.75a3.5 3.5 0 0 0 3.17 1.84c2.12.12 4.25.12 6.37.1 4.52-.01 9.75-.16 13.52-3 4.26-3.22 5.13-8.92 5.43-13.95h-4a44 44 0 0 0 1.07 6.92 12 12 0 0 0 2.83 5.68c3.43 3.68 8.9 4.25 13.65 4.34 2.26.05 4.52 0 6.78-.06a6 6 0 0 0 2.94-.5c1.59-1 1.58-2.64 1.56-4.3q-.15-9.51-.22-19-.09-10.7-.25-21.39c-.05-2.57-4.05-2.58-4 0Z" class="b"/><path d="M298.75 65a62 62 0 0 1 10.14 4.43 19 19 0 0 1 7.1 7.2 24 24 0 0 1 2.12 5.42c.77 2.6 1.37 5.25 1.9 7.9a269 269 0 0 1 4.22 33.14l.1 1.44c.02.24-.06.95.08 1.14.08.12.78-.08.3-.15a4 4 0 0 0-.81.06q-1.13.09-2.24.13-4.9.22-9.83.31c-2.57.06-2.58 4.06 0 4q4.61-.1 9.23-.28c1.3-.06 2.6-.1 3.9-.25a3.67 3.67 0 0 0 3.44-3.95c-.15-4.8-.75-9.62-1.27-14.39a273 273 0 0 0-2.78-19.77c-.98-5.32-2.04-10.87-4.4-15.78-3.88-8.14-12.15-11.57-20.14-14.46-2.43-.87-3.47 2.99-1.06 3.86m-23.11-3.86c-4.23 1.53-8.63 3.12-12.4 5.63a23.3 23.3 0 0 0-8.54 10.65 2 2 0 0 0 1.4 2.46 2.05 2.05 0 0 0 2.46-1.4 19 19 0 0 1 3.46-5.42 17 17 0 0 1 3.71-3.14A56 56 0 0 1 276.7 65a2.05 2.05 0 0 0 1.4-2.46 2 2 0 0 0-2.46-1.4m-10.2-28.56c-.7-5.45-.66-11.3 1.7-16.39a19.7 19.7 0 0 1 8.5-9.07c10.07-5.61 24.08-3.7 30.56 6.44a28 28 0 0 1 3.61 8.99 17 17 0 0 1 .49 4.47 48 48 0 0 1-.68 5.03 2.06 2.06 0 0 0 1.4 2.46 2 2 0 0 0 2.46-1.4c.51-3.4 1.05-6.54.5-9.97a32 32 0 0 0-3-9.26 25 25 0 0 0-14.15-12.4c-11.47-3.9-25.79.03-32.13 10.75-3.61 6.1-4.14 13.44-3.26 20.35a2.06 2.06 0 0 0 2 2 2 2 0 0 0 2-2" class="b"/><path d="M294.9 17.02c-6.45 6.1-21.49 14.02-26.61 14.84a4.7 4.7 0 0 0-4.95 2.11 6.4 6.4 0 0 0 .22 6.17 10 10 0 0 0 5.32 4.3 22 22 0 0 0 4.36 7.49 17.4 17.4 0 0 0 10.1 5.74 31 31 0 0 0 4.51.44 27 27 0 0 0 4.9-.5 17 17 0 0 0 9.64-5.83 22 22 0 0 0 4.27-7.52l.2-.08a10 10 0 0 0 4.93-3.95 6.4 6.4 0 0 0 .41-6.16 4.66 4.66 0 0 0-5.29-2.17 29 29 0 0 1-7.75-6.8 24 24 0 0 1-4.26-8.1" class="a"/><path d="m307.44 33.83.48-.1c-.45.1.02 0 .13 0l.5.02c-.28-.01-.18-.03.04.02l.48.13c.19.06.32.13.07 0l.44.24c.06.04.48.35.14.07l.37.34c.07.07.36.46.11.1a5 5 0 0 1 .35.6l-.02-.06a6 6 0 0 1 .27 1c-.08-.42 0 .16 0 .2v.58c0 .09-.08.63-.01.23a6 6 0 0 1-.26 1.03c-.04.11-.14.41-.04.15a6 6 0 0 1-.54 1s-.36.5-.14.22l-.38.45a10 10 0 0 1-.77.76l-.38.32c.27-.21-.17.12-.22.16a10 10 0 0 1-1 .62l-.52.26c-.38.18.2-.08-.22.08a2.05 2.05 0 0 0-1.4 2.46 2 2 0 0 0 2.46 1.4c3.97-1.5 7.47-5.04 7.42-9.52a6.9 6.9 0 0 0-2.8-5.62 6.7 6.7 0 0 0-5.63-1 2 2 0 0 0 1.06 3.86Zm-38.22-3.79a6.7 6.7 0 0 0-5.66.87 7 7 0 0 0-2.91 5.56c-.19 4.49 3.27 8.1 7.18 9.7a2 2 0 0 0 2.46-1.4 2.06 2.06 0 0 0-1.4-2.45c.36.15-.2-.1-.21-.11l-.51-.28a11 11 0 0 1-.9-.58q-.17-.13 0 .01l-.59-.52a12 12 0 0 1-.81-.85c-.4-.46.17.28-.17-.21l-.32-.48-.23-.42-.13-.25.01.03a7 7 0 0 1-.3-1c-.01-.05-.09-.64-.05-.24q-.03-.28-.04-.57c0-.3.01-.38.02-.57 0-.37-.05.08 0-.12a8 8 0 0 1 .28-.99c-.15.36.08-.12.12-.19s.35-.47.07-.15q.16-.19.35-.36c.07-.08.46-.35.1-.11l.35-.23.29-.15c-.23.1.17-.06.22-.08l.49-.12c.5-.12-.39 0 .12-.01h.5c.42 0-.31-.11.13 0l.48.13a2 2 0 0 0 2.46-1.4 2.04 2.04 0 0 0-1.4-2.46" class="b"/><path d="M304.73 43.73a19.4 19.4 0 0 1-6.6 9.32 17 17 0 0 1-10.28 3.06 17.6 17.6 0 0 1-10.54-3.14 19 19 0 0 1-6.5-9.09c-.85-2.41-4.71-1.37-3.86 1.07 2.32 6.65 7.4 12.47 14.38 14.33 7.05 1.88 15.06.73 20.6-4.18a24 24 0 0 0 6.66-10.3c.83-2.45-3.04-3.5-3.86-1.07m-12.23-7.2a4 4 0 0 1 .95-3.1 3 3 0 0 1 2.01-.85 3.2 3.2 0 0 1 2.64 1.24 3.9 3.9 0 0 1-.08 4.5 3 3 0 0 1-4.05.67 3.3 3.3 0 0 1-1.47-2.46m-15.34 0a4 4 0 0 1 .95-3.1 3 3 0 0 1 2.01-.85 3.2 3.2 0 0 1 2.64 1.24 3.9 3.9 0 0 1-.08 4.5 3 3 0 0 1-4.05.67 3.3 3.3 0 0 1-1.47-2.46m16.32-20.93a64 64 0 0 1-12.86 8.8c-3.86 2.14-7.99 4.42-12.31 5.43-2.5.59-1.45 4.45 1.06 3.86 4.65-1.08 9.13-3.54 13.26-5.84a68 68 0 0 0 13.68-9.42c1.88-1.76-.96-4.59-2.83-2.83" class="b"/><path d="M307.92 30.18a23 23 0 0 1-3.72-2.7q-1-.87-1.9-1.8-.44-.45-.86-.93l-.35-.41-.2-.25a30 30 0 0 1-2.8-4.38q-.21-.4-.4-.83c-.02-.04-.25-.58-.08-.17l-.16-.4q-.34-.9-.62-1.83a2 2 0 1 0-3.86 1.07 28.8 28.8 0 0 0 12.93 16.08c2.23 1.3 4.25-2.16 2.02-3.45" class="b"/><path d="M312.78 29.55a5.8 5.8 0 0 1 6.2 1.87c1.23 1.58 1.21 3.79 1.52 5.78.74 4.8 2 10.44 7.04 12.38l-1.4-2.46c-.7 1.95-4.88 2.5-6.55 2.56a12 12 0 0 1-6.14-1.81c-1.72-.93-3.71-2.42-4.48-4.3a2.06 2.06 0 0 0-2.46-1.4 2 2 0 0 0-1.4 2.46 13.6 13.6 0 0 0 5.81 6.4 16.4 16.4 0 0 0 8.67 2.64c3.88-.15 8.96-1.44 10.4-5.5a2.04 2.04 0 0 0-1.4-2.45c-1.9-.74-2.75-3.07-3.27-4.86a60 60 0 0 1-1.4-7.68 9 9 0 0 0-3.42-5.83 10 10 0 0 0-8.8-1.66c-2.5.62-1.43 4.48 1.07 3.85Zm-14.87 32.99a179 179 0 0 1-11.99 28.71c-1.2 2.28 2.25 4.3 3.46 2.02a186 186 0 0 0 12.38-29.67c.8-2.45-3.06-3.5-3.85-1.06m.31 29.93q3.75-5.3 7.16-10.81a27 27 0 0 0 2.58-4.2 3.3 3.3 0 0 0-.83-3.34q-1.24-1.56-2.51-3.09v2.83c1.26-1.55 2.5-3.14 3.84-4.6 1.74-1.9-1.08-4.74-2.83-2.84-1.35 1.48-2.58 3.06-3.84 4.61a2.1 2.1 0 0 0 0 2.83l1.43 1.73c.3.39.96 1 1.03 1.38v-1.06a6 6 0 0 1-.78 1.27l-1 1.57q-1.02 1.65-2.07 3.31-2.7 4.27-5.63 8.4a2 2 0 0 0 .72 2.73 2.04 2.04 0 0 0 2.74-.72" class="b"/><path d="M273.54 63.6a186 186 0 0 0 12.38 29.67c1.22 2.28 4.67.26 3.46-2.02a179 179 0 0 1-11.98-28.71c-.8-2.44-4.66-1.4-3.86 1.06m7.13 28.34q-3.1-4.37-5.97-8.9l-2.2-3.51-.97-1.54a6 6 0 0 1-.92-1.5v1.06c.08-.45.82-1.14 1.12-1.52l1.52-1.84a2.1 2.1 0 0 0 0-2.83c-1.34-1.64-2.65-3.32-4.08-4.88-1.75-1.9-4.57.93-2.83 2.83 1.44 1.56 2.74 3.24 4.08 4.88v-2.83q-1.28 1.53-2.52 3.1c-.8 1-1.49 2-1.1 3.35a10 10 0 0 0 1.35 2.32l1.48 2.35a229 229 0 0 0 7.59 11.47 2.06 2.06 0 0 0 2.73.72 2 2 0 0 0 .72-2.73M242.1 77.95c.24 3.23.37 6.45.57 9.68q.2 3.14.49 6.27a26 26 0 0 0 1.24 6.84 13.5 13.5 0 0 0 7.64 7.9 15 15 0 0 0 11.08-.6 2 2 0 0 0 .72-2.74 2.05 2.05 0 0 0-2.74-.71 10.4 10.4 0 0 1-8.48-.04 10.2 10.2 0 0 1-5.06-7.4 85 85 0 0 1-.97-10.92c-.16-2.76-.28-5.52-.49-8.28-.19-2.55-4.2-2.57-4 0" class="b"/><path d="m243.01 73.93-.61-1.25a20 20 0 0 0-1.46-2.47 6 6 0 0 1-1.21-3.7 7 7 0 0 1 .58-2.29c1.35-2.09 2.5-3.91 3.9-5.68a15 15 0 0 1 1.1-1.18 3.4 3.4 0 0 1 2.34-.98 2.8 2.8 0 0 1 2.01 1.12c1.84.58 2.22-.58 3.03-1.22a3 3 0 0 1 3.17.04 13 13 0 0 1 2.47 1.91 3.5 3.5 0 0 1 1.08 2.06 1.6 1.6 0 0 1-.37 1.46 2.7 2.7 0 0 1-2.1.76l1.07 2.17a3 3 0 0 1 .24 1.31 2 2 0 0 1-.03.54 2 2 0 0 1-.23.53c-.83 1.58-2.35 3.44-1.65 5.35 1.74 5.03 1.5 7.54-.13 8.96a12 12 0 0 1-4.47 2.38 11 11 0 0 1-2.98.25 5.5 5.5 0 0 1-2.27-1.31 6 6 0 0 1-1.02-2.14 63 63 0 0 0-1.62-4.7c-.2-.53-.5-1.21-.84-1.92" class="a"/><path d="M257.96 60.79a98 98 0 0 0-7.05-4.94 11 11 0 0 0-2.5-1.33 4.7 4.7 0 0 0-3.84.86 15 15 0 0 0-3.09 3.49 35 35 0 0 0-2.98 4.5 7.9 7.9 0 0 0 .86 8.06 31 31 0 0 1 3.44 7.34c.42 1.21.72 2.5 1.25 3.67a6.2 6.2 0 0 0 3.7 3.29c2.17.92 5.2-.08 7.17-1.1 2.11-1.1 4.03-2.64 4.48-5.1a12 12 0 0 0-.26-4.7c-.37-1.64-1.35-3.13-.56-4.75.72-1.48 1.69-2.59 1.68-4.3a7.2 7.2 0 0 0-1.9-4.68c-1.65-1.98-4.46.86-2.83 2.83a2.8 2.8 0 0 1 .72 2.2c-.03.27.32-.37-.16.24a6 6 0 0 0-.38.66 16 16 0 0 0-1.02 1.99 6 6 0 0 0-.27 3.92 30 30 0 0 1 1.07 4.02 6 6 0 0 1-.04 1.97c-.14.6-.23.7-.85 1.2a9.5 9.5 0 0 1-5.07 1.92c-.34.04-.7-.17-.12.07l-.69-.29a1.8 1.8 0 0 1-1-.94 27 27 0 0 1-1-3.01 46 46 0 0 0-2.75-6.5c-.92-1.75-2.6-3.46-2.15-5.41a8 8 0 0 1 1.44-2.63 41 41 0 0 1 2.37-3.4 5 5 0 0 1 1.45-1.44c.1-.05.5-.06.56-.12-.09.09-.48-.06-.52-.1a5 5 0 0 0 .96.53q.67.4 1.32.82 3.35 2.18 6.54 4.61a2 2 0 0 0 2.74-.72 2.05 2.05 0 0 0-.72-2.73" class="b"/><path d="M252.57 59.08a7 7 0 0 0 .98-.84q.13-.16.27-.28l.19-.18-.22.16.2-.11q.28-.14-.18.07a1 1 0 0 0 .33-.09q-.49.06-.25.04h.17l.35.01q-.5-.07-.18-.02l.23.06.34.1c.38.13-.4-.21-.05-.01l.33.18a4 4 0 0 1 .8.54c-.34-.35-.06-.04.03.04l.4.34q.35.3.7.64.1.14.23.26-.28-.38-.1-.12l.09.14.08.15q.15.3-.05-.16l.11.33.1.36c.08.4-.08-.46-.02.04q0 .25.05-.25l-.06.2.12-.28q-.15.26.14-.15l-.17.18c-.19.23.46-.28.1-.08l-.31.17.28-.12-.22.08-.23.05.29-.03a3 3 0 0 0-.53 0 2 2 0 0 0-2 2 2.05 2.05 0 0 0 2 2 4.6 4.6 0 0 0 3.62-1.42 4.2 4.2 0 0 0 .34-4.73 8 8 0 0 0-2.67-2.85 7 7 0 0 0-3.85-1.64 4.4 4.4 0 0 0-2.39.51 4 4 0 0 0-.98.76l-.36.37c-.1.1-.52.45-.08.12a2.2 2.2 0 0 0-.92 1.2 2 2 0 0 0 .2 1.54 2 2 0 0 0 2.74.72Z" class="b"/><path d="M86.33 124.53a7.5 7.5 0 0 1 9.66 5.55c.81 5.12 1.35 12.76 6.16 14.48-.97 3.1-6.55 3.97-8.55 4.03a13.7 13.7 0 0 1-6.9-2 12.6 12.6 0 0 1-5.27-4.93 4 4 0 0 1-.3-.65" class="d"/><path d="M68.98 113.92a24 24 0 0 0 4.27 8.08 29 29 0 0 0 7.74 6.81 4.7 4.7 0 0 1 4.56 1.2c.46-3.28 1.02-5.5.8-7.8-.58-5.8-3.23-12.67-7.49-16.56a38 38 0 0 0-2.79-2.4 20 20 0 0 0-3.99-2.3 27 27 0 0 0-10.84-2.08 26.6 26.6 0 0 0-17.07 6.67c-5.03 4.82-8.39 12.53-6.5 24.96a4.7 4.7 0 0 1 4.7-1.73c5.13-.83 20.16-8.75 26.6-14.85" class="d"/><path d="M71.53 159.36c-1.77-.64-1.7-1.77-1.92-3.05-.2-1.11-.24-1.84-.3-2.52a18 18 0 0 1-2.49.73 28 28 0 0 1-4.89.5 31 31 0 0 1-4.51-.44 17 17 0 0 1-3.95-1.2l-.01.19c0 .44-.28 2.69-.37 3.21-.24 1.27-.16 2.41-1.93 3.05-.06.03-.35.12-.65.21l-.85.26q.83 2.55 1.77 5.14a19.8 19.8 0 0 0 20.96-.95q.75-2.13 1.44-4.23l-.64-.25z" class="a"/><path d="M51.46 153.56a21 21 0 0 1-.27 2.54l.07-.53a10 10 0 0 1-.47 2.4l.2-.47-.16.31c-.12.19-.22.16.14-.17l-.13.14-.15.13c0-.05.46-.32.16-.14l-.49.25.48-.2q-.74.28-1.49.5a2 2 0 1 0 1.07 3.87 10 10 0 0 0 2.63-1.09 4.5 4.5 0 0 0 1.84-3q.2-1.24.36-2.48a18 18 0 0 0 .2-2.06 2 2 0 0 0-4 0m15.85.23q.1 1.42.32 2.82a10 10 0 0 0 .4 1.9 4.3 4.3 0 0 0 2.07 2.4c.55.28 1.16.48 1.73.7l1.45.58a2 2 0 0 0 1.54-.2 2 2 0 0 0 .72-2.74 2.3 2.3 0 0 0-1.2-.92l-2.48-.97.48.2a3 3 0 0 1-.71-.4l.4.32a2 2 0 0 1-.37-.37l.31.4a2 2 0 0 1-.27-.47l.2.48a10 10 0 0 1-.5-2.53l.07.54q-.1-.87-.17-1.73a2 2 0 0 0-.58-1.41 2 2 0 0 0-3.42 1.41Zm-15.89 13.64-1-.27a21.7 21.7 0 0 0 22.96-.94 2.06 2.06 0 0 0 .72-2.74 2 2 0 0 0-2.74-.72 17 17 0 0 1-9.79 3.21 18 18 0 0 1-5.15-.6 16 16 0 0 1-2.25-.76c-.86-.38-1.8-1.18-2.76-1.18-2.57 0-2.57 4 0 4m32.65 16.88c.18 10.3.21 20.58.34 30.88l.04 3.81.04 2.12.02 1.2v.5q-.14 1.14.6-.22c-.25-.22-1.92.06-2.26.07l-3.17.04c-3.97.02-8.29.18-11.79-1.93a7.2 7.2 0 0 1-3.18-4.66 37 37 0 0 1-1.04-6.37 2 2 0 0 0-4 0 37 37 0 0 1-.86 5.59 8.3 8.3 0 0 1-2.12 4.45c-2.9 2.85-7.49 2.88-11.26 2.92q-2.98.03-5.95-.07a3 3 0 0 0-1.01-.03c-.3.12-.23-.08 0 .09.7.51.25.16.39-.23a9 9 0 0 0 .04-2.19l.04-2.37.29-16.12.33-18.64c.04-2.57-3.96-2.57-4 0q-.31 18.45-.66 36.9c-.02 1.45-.4 3.37.28 4.71a3.5 3.5 0 0 0 3.18 1.84c2.11.13 4.25.12 6.37.11 4.52-.02 9.74-.17 13.51-3.01 4.26-3.22 5.13-8.92 5.44-13.95h-4a44 44 0 0 0 1.06 6.93 12 12 0 0 0 2.83 5.67c3.44 3.69 8.9 4.26 13.65 4.35q3.4.04 6.79-.06a6 6 0 0 0 2.94-.51c1.58-.98 1.58-2.63 1.55-4.3q-.14-8.8-.2-17.62-.07-9.94-.23-19.9c-.04-2.57-4.04-2.58-4 0" class="b"/><path d="M72.83 161.9a62 62 0 0 1 10.15 4.43 19 19 0 0 1 7.1 7.2 24 24 0 0 1 2.11 5.42c.77 2.6 1.37 5.25 1.9 7.9a269 269 0 0 1 4.23 33.13l.1 1.45c.02.24-.06.95.07 1.14.09.12.8-.08.3-.15a4 4 0 0 0-.8.06q-1.12.09-2.25.13-4.9.2-9.83.31c-2.57.06-2.58 4.06 0 4q4.62-.1 9.23-.28c1.3-.06 2.6-.1 3.9-.25a3.67 3.67 0 0 0 3.44-3.95c-.15-4.8-.75-9.62-1.27-14.39a273 273 0 0 0-2.78-19.77c-.98-5.32-2.04-10.87-4.4-15.78-3.88-8.14-12.15-11.57-20.14-14.46-2.43-.87-3.47 2.99-1.06 3.86m-23.1-3.86a67 67 0 0 0-11.1 4.84 23.4 23.4 0 0 0-8.38 8.35c-2.6 4.37-3.63 9.78-4.62 14.7a277 277 0 0 0-4.42 35.27c-.11 1.57-.19 3.07 1.06 4.26 1.22 1.17 3.3 1.04 4.88 1.12q5.28.25 10.55.35c2.57.06 2.57-3.94 0-4q-4.3-.1-8.6-.26c-1.33-.06-2.66-.1-4-.22-.14-.01-.91-.03-.27.08.53.1.14.26.3-.08a4 4 0 0 0 .08-1.17q.5-7.13 1.3-14.24a248 248 0 0 1 2.6-17.99q.74-4.18 1.81-8.28.46-1.77 1.04-3.5a25 25 0 0 1 1-2.58 18.7 18.7 0 0 1 6.46-7.6 53 53 0 0 1 11.36-5.19c2.4-.87 1.37-4.73-1.06-3.86Zm-10.2-28.56c-.7-5.44-.66-11.3 1.69-16.38a19.7 19.7 0 0 1 8.5-9.08c10.07-5.6 24.09-3.7 30.56 6.45a28 28 0 0 1 3.62 8.98 17 17 0 0 1 .49 4.47 49 49 0 0 1-.69 5.03 2.07 2.07 0 0 0 1.4 2.46 2 2 0 0 0 2.46-1.4c.52-3.4 1.06-6.53.5-9.97a32 32 0 0 0-3-9.26 25 25 0 0 0-14.15-12.4c-11.46-3.9-25.78.03-32.12 10.75-3.62 6.1-4.14 13.45-3.27 20.35a2.06 2.06 0 0 0 2 2 2 2 0 0 0 2-2" class="b"/><path d="M68.98 113.92c-6.45 6.1-21.48 14.02-26.6 14.85a4.7 4.7 0 0 0-4.96 2.1 6.4 6.4 0 0 0 .23 6.18 10 10 0 0 0 5.32 4.3 22 22 0 0 0 4.36 7.48 17.4 17.4 0 0 0 10.1 5.75 31 31 0 0 0 4.5.43 28 28 0 0 0 4.9-.5 17 17 0 0 0 9.65-5.83 22 22 0 0 0 4.26-7.52l.2-.08a10 10 0 0 0 4.93-3.95 6.4 6.4 0 0 0 .41-6.16A4.66 4.66 0 0 0 81 128.8a29 29 0 0 1-7.75-6.8 24 24 0 0 1-4.27-8.08" class="a"/><path d="m81.53 130.74.48-.12c-.46.1.02.02.13.02l.5.01c-.28-.01-.18-.03.04.02l.48.13c.18.06.31.13.06.01l.44.23c.06.04.48.36.14.07l.37.34c.07.07.36.46.12.1a5 5 0 0 1 .35.6l-.02-.05a6 6 0 0 1 .26.98v.79c.01.09-.07.63 0 .23l-.1.48-.16.55c-.04.12-.14.41-.04.15a6 6 0 0 1-.54 1c0 .01-.36.5-.14.22q-.18.23-.38.45a10 10 0 0 1-.77.76l-.38.32-.22.17a11 11 0 0 1-1 .61l-.52.26c-.38.18.2-.07-.22.09a2.05 2.05 0 0 0-1.4 2.46 2 2 0 0 0 2.46 1.4c3.97-1.5 7.47-5.05 7.42-9.53a6.9 6.9 0 0 0-2.8-5.62 6.7 6.7 0 0 0-5.63-1 2 2 0 1 0 1.07 3.87m-38.23-3.8a6.7 6.7 0 0 0-5.65.87 7 7 0 0 0-2.92 5.56c-.19 4.5 3.27 8.1 7.18 9.71a2 2 0 0 0 2.46-1.4 2.06 2.06 0 0 0-1.4-2.46c.36.15-.2-.1-.21-.1l-.51-.28a11 11 0 0 1-.9-.59q-.16-.12.01.01l-.23-.19-.37-.32a12 12 0 0 1-.81-.86c-.4-.46.17.28-.17-.2l-.32-.49-.23-.41-.11-.22a7 7 0 0 1-.3-1.01c-.01-.04-.1-.64-.06-.23l-.03-.58.01-.57c.01-.37-.04.09.02-.12a8 8 0 0 1 .27-.99c-.15.37.08-.11.12-.18s.35-.48.07-.15l.34-.37c.08-.07.47-.35.11-.1l.35-.23c.05-.03.52-.27.28-.16s.18-.06.23-.07l.48-.13c.5-.12-.38 0 .13-.01h.5c.42 0-.32-.1.12 0l.48.13a2 2 0 0 0 2.46-1.4 2.04 2.04 0 0 0-1.4-2.46" class="b"/><path d="M78.81 140.64a19.4 19.4 0 0 1-6.59 9.32A17 17 0 0 1 61.93 153a17.6 17.6 0 0 1-10.54-3.14 19 19 0 0 1-6.5-9.08c-.84-2.42-4.7-1.38-3.86 1.06 2.32 6.65 7.4 12.48 14.38 14.34 7.05 1.87 15.06.73 20.6-4.19a24 24 0 0 0 6.66-10.3c.83-2.44-3.03-3.5-3.85-1.06Zm-12.22-7.2a4 4 0 0 1 .95-3.1 3 3 0 0 1 2.01-.86 3.2 3.2 0 0 1 2.64 1.24 3.9 3.9 0 0 1-.08 4.51 3 3 0 0 1-4.06.66 3.3 3.3 0 0 1-1.46-2.46m-15.35 0a4 4 0 0 1 .95-3.1 3 3 0 0 1 2.02-.86 3.2 3.2 0 0 1 2.63 1.24 3.9 3.9 0 0 1-.08 4.51 3 3 0 0 1-4.05.66 3.3 3.3 0 0 1-1.47-2.46m16.32-20.93a64 64 0 0 1-12.86 8.79c-3.85 2.13-7.98 4.42-12.3 5.43-2.51.59-1.45 4.44 1.06 3.86 4.64-1.09 9.12-3.54 13.26-5.84a68 68 0 0 0 13.67-9.42c1.88-1.76-.95-4.59-2.83-2.83Z" class="b"/><path d="M82 127.08a23 23 0 0 1-3.71-2.7q-1-.86-1.92-1.8-.43-.46-.84-.93l-.36-.41s-.38-.5-.2-.25a30 30 0 0 1-2.8-4.38q-.21-.4-.4-.83c-.02-.04-.25-.58-.08-.17l-.16-.4q-.34-.9-.62-1.83a2 2 0 1 0-3.86 1.06A28.8 28.8 0 0 0 80 130.54c2.23 1.3 4.25-2.16 2.02-3.46Z" class="b"/><path d="M86.87 126.46a5.8 5.8 0 0 1 6.2 1.87c1.23 1.58 1.2 3.78 1.51 5.77.75 4.8 2 10.45 7.04 12.39l-1.4-2.46c-.7 1.94-4.88 2.49-6.54 2.55a12 12 0 0 1-6.15-1.8c-1.72-.94-3.7-2.43-4.47-4.3a2.06 2.06 0 0 0-2.46-1.4 2 2 0 0 0-1.4 2.46 13.6 13.6 0 0 0 5.8 6.4 16.3 16.3 0 0 0 8.67 2.64c3.88-.15 8.96-1.44 10.4-5.5a2.04 2.04 0 0 0-1.4-2.46c-1.9-.73-2.75-3.06-3.26-4.86A60 60 0 0 1 98 130.1a9 9 0 0 0-3.42-5.83 10 10 0 0 0-8.78-1.66c-2.5.63-1.44 4.48 1.06 3.86m-14.88 32.98A179 179 0 0 1 60 188.17c-1.21 2.27 2.24 4.3 3.45 2.02a186 186 0 0 0 12.39-29.68c.8-2.45-3.06-3.5-3.86-1.06m.32 29.93q3.73-5.3 7.15-10.8a27 27 0 0 0 2.58-4.2 3.2 3.2 0 0 0-.83-3.34q-1.23-1.56-2.5-3.1v2.83c1.25-1.55 2.49-3.13 3.84-4.6 1.74-1.9-1.09-4.73-2.83-2.83-1.35 1.47-2.58 3.06-3.85 4.6a2.1 2.1 0 0 0 0 2.84l1.43 1.73c.31.38.97 1 1.03 1.38v-1.06a6 6 0 0 1-.78 1.27l-.99 1.57-2.07 3.31q-2.7 4.27-5.63 8.39a2 2 0 0 0 .71 2.74 2.04 2.04 0 0 0 2.74-.72Z" class="b"/><path d="M47.62 160.5a186 186 0 0 0 12.39 29.68c1.21 2.27 4.67.25 3.45-2.02a179 179 0 0 1-11.98-28.72c-.8-2.43-4.66-1.4-3.86 1.07m7.14 28.34q-3.11-4.37-5.98-8.9l-2.2-3.5-.97-1.55a6 6 0 0 1-.92-1.5v1.06c.08-.44.83-1.14 1.13-1.51l1.51-1.84a2.1 2.1 0 0 0 0-2.83c-1.33-1.65-2.64-3.33-4.08-4.89-1.74-1.9-4.56.94-2.82 2.83 1.43 1.56 2.74 3.24 4.07 4.89v-2.83q-1.27 1.53-2.52 3.1c-.79 1-1.49 2-1.1 3.35a10 10 0 0 0 1.35 2.32l1.48 2.35c2.43 3.9 4.93 7.74 7.6 11.47a2.06 2.06 0 0 0 2.73.72 2 2 0 0 0 .71-2.74Zm295.26 53.11H228.4a2.03 2.03 0 0 0-2 2v96.9a2.03 2.03 0 0 0 2 2h121.62a2.03 2.03 0 0 0 2-2v-96.9c0-2.57-4-2.57-4 0v96.9l2-2H228.4l2 2v-96.9l-2 2h121.62c2.57 0 2.57-4 0-4" class="b"/><path d="M218.68 137.62c-9.46 5.1-19.71 11.03-30.47 13.7a1 1 0 0 0 0 1.95l9.3 2.26a1 1 0 0 1 .54 1.61c-14.9 18.14-42.55 35.04-66.8 45.04a1.21 1.21 0 0 0 .71 2.3c15.68-2.95 34.46-9.13 43.49-13.98 11.78-6.33 23.64-14.15 30.53-23.22a.96.96 0 0 1 1.59.18c1.42 2.48 3.49 5.77 5.4 8.97a1 1 0 0 0 1.84-.3 365 365 0 0 0 5.33-37.54 1 1 0 0 0-1.46-.97" style="fill:#64a4d6"/><path d="M216.2 106.09a21 21 0 0 1 4.73-8.49 15 15 0 0 1 8.47-4.6 16 16 0 0 1-8.93-4.65c-2.47-2.68-4-8.55-4.26-9.06-.21.51-2.03 6.43-4.5 9.1a15.4 15.4 0 0 1-8.7 4.62 14 14 0 0 1 8.58 4.62 24 24 0 0 1 4.62 8.46" class="f"/><path d="M216.2 108.09a2 2 0 0 0 1.94-1.47 15.4 15.4 0 0 1 11.8-11.68A2 2 0 0 0 231.4 93a2 2 0 0 0-1.46-1.93c-3.47-.55-7.12-2.36-8.98-5.44-1.4-2.32-1.93-4.92-3.02-7.36-.78-1.75-3.1-.92-3.65.48a42 42 0 0 1-3.04 6.92 12.7 12.7 0 0 1-8.77 5.4 2 2 0 0 0-1.47 1.93 2 2 0 0 0 1.47 1.93 13 13 0 0 1 7.56 3.95 19 19 0 0 1 4.24 7.73c.6 2.5 4.46 1.44 3.86-1.06a23 23 0 0 0-5.28-9.5 16.3 16.3 0 0 0-9.32-4.98l1.47 1.92-1.47 1.93a16.5 16.5 0 0 0 10.81-6.7c1.76-2.57 2.66-5.55 3.8-8.41l-3.66.48c-.22-.5-.13-.31-.02.03l.23.7q.36 1.11.78 2.22a23 23 0 0 0 2.54 5.19 17 17 0 0 0 10.85 6.5L227.4 93l1.47-1.93c-7.09 1.32-12.98 7.49-14.6 14.47l1.93-1.47c-2.57-.01-2.57 3.99 0 4" class="b"/><path d="M344.02 43.82a21 21 0 0 1 4.72-8.49 15 15 0 0 1 8.47-4.6 16 16 0 0 1-8.93-4.65c-2.47-2.68-4-8.55-4.26-9.06-.21.51-2.03 6.43-4.5 9.1a15.4 15.4 0 0 1-8.7 4.62 14 14 0 0 1 8.58 4.62 24 24 0 0 1 4.62 8.46" class="f"/><path d="M344.02 45.82a2 2 0 0 0 1.93-1.47 15.4 15.4 0 0 1 11.8-11.68 2 2 0 0 0 1.46-1.93 2 2 0 0 0-1.46-1.93c-3.47-.55-7.12-2.36-8.98-5.44-1.4-2.32-1.93-4.92-3.02-7.36-.78-1.75-3.1-.92-3.65.48a42 42 0 0 1-3.05 6.92 12.7 12.7 0 0 1-8.76 5.4 2 2 0 0 0-1.47 1.93 2 2 0 0 0 1.47 1.93 13 13 0 0 1 7.56 3.95 19 19 0 0 1 4.24 7.73c.6 2.5 4.46 1.44 3.86-1.06a23 23 0 0 0-5.28-9.5 16.3 16.3 0 0 0-9.32-4.98l1.47 1.92-1.47 1.93a16.5 16.5 0 0 0 10.81-6.7c1.76-2.58 2.66-5.55 3.8-8.41l-3.66.47c-.22-.48-.13-.3-.02.04l.23.7q.36 1.11.78 2.22a23 23 0 0 0 2.54 5.19 17 17 0 0 0 10.85 6.5l-1.47-1.93 1.47-1.93c-7.09 1.32-12.97 7.49-14.59 14.47l1.93-1.46c-2.58-.02-2.58 3.98 0 4" class="b"/></svg>
