<svg xmlns="http://www.w3.org/2000/svg" fill="none" viewBox="0 0 24 24"><path stroke="currentColor" stroke-linecap="round" stroke-width="1.5" d="m2 3 .26.09c1.32.44 1.98.66 2.36 1.18C5 4.8 5 5.5 5 6.88V9.5c0 2.83 0 4.24.88 5.12s2.3.88 5.12.88h8"/><path stroke="currentColor" stroke-width="1.5" d="M7.5 18a1.5 1.5 0 1 1 0 3 1.5 1.5 0 0 1 0-3Zm9 0a1.5 1.5 0 1 1 0 3 1.5 1.5 0 0 1 0-3Z"/><path stroke="currentColor" stroke-linecap="round" stroke-width="1.5" d="M11 9H8"/><path stroke="currentColor" stroke-width="1.5" d="M5 6h11.45c2.06 0 3.08 0 3.53.67.44.68.04 1.62-.77 3.51l-.43 1c-.38.88-.57 1.32-.94 1.57-.38.25-.86.25-1.82.25H5"/></svg>
