<svg xmlns="http://www.w3.org/2000/svg" fill="none" viewBox="0 0 24 24"><path stroke="currentColor" stroke-width="1.5" d="M14 6h-4q-2.02-.01-3.4.05c-1.63.1-2.68.37-3.43 1.12C2 8.34 2 10.23 2 14s0 5.66 1.17 6.83S6.23 22 10 22h4c3.77 0 5.66 0 6.83-1.17S22 17.77 22 14s0-5.66-1.17-6.83c-.75-.75-1.8-1.02-3.44-1.12Q16.02 6 14 6Z"/><path stroke="currentColor" stroke-width="1.5" d="M6.6 6.05a2.05 2.05 0 0 0 1.87-1.47l.03-.08.09-.25A2 2 0 0 1 10.32 3h3.36a2 2 0 0 1 1.73 1.25l.09.25.03.08.03.1c.28.77 1 1.35 1.83 1.37"/><path stroke="currentColor" stroke-linecap="round" stroke-width="1.5" d="M21.66 8.72c-3 1.96-4.51 2.93-6.1 3.43a12 12 0 0 1-7.12 0c-1.59-.5-3.1-1.47-6.1-3.43M8 11v2m8-2v2"/></svg>
