<svg viewBox="0 0 20 20" fill="none" xmlns="http://www.w3.org/2000/svg"><path d="M10.0068 2.70416C10.4483 2.70416 10.7149 2.70435 10.9814 2.81256C11.3398 2.96256 11.6234 3.24622 11.7734 3.60455C11.8816 3.87112 11.8818 4.13766 11.8818 4.57916V15.4122C11.8818 15.8538 11.8818 16.1211 11.7734 16.3878C11.6234 16.746 11.3397 17.0288 10.9814 17.1788C10.7148 17.287 10.4484 17.2872 10.0068 17.2872L9.99805 17.296C9.55665 17.296 9.29001 17.2954 9.02344 17.1788C8.67361 17.0371 8.38191 16.7459 8.24023 16.3878C8.1319 16.1211 8.13184 15.8538 8.13184 15.4122V4.57916C8.13184 4.13766 8.13202 3.87112 8.24023 3.60455C8.39023 3.24622 8.66556 2.96256 9.03223 2.81256C9.29879 2.70436 9.56534 2.70416 10.0068 2.70416ZM4.16699 6.04401C4.60848 6.04401 4.87504 6.0442 5.1416 6.1524C5.49993 6.3024 5.78359 6.58606 5.93359 6.9444C6.0418 7.21096 6.04199 7.47752 6.04199 7.91901V15.419C6.04199 15.8605 6.04181 16.127 5.93359 16.3936C5.78359 16.7519 5.49993 17.0356 5.1416 17.1856C4.87504 17.2938 4.60848 17.294 4.16699 17.294C3.7255 17.294 3.45894 17.2938 3.19238 17.1856C2.83405 17.0356 2.55039 16.7519 2.40039 16.3936C2.29218 16.127 2.29199 15.8605 2.29199 15.419V7.91901C2.29199 7.47752 2.29219 7.21096 2.40039 6.9444C2.55039 6.58606 2.83405 6.3024 3.19238 6.1524C3.45894 6.0442 3.7255 6.04401 4.16699 6.04401ZM15.834 8.54401C16.2754 8.54401 16.542 8.54411 16.8086 8.6524C17.1669 8.8024 17.4506 9.08606 17.6006 9.4444C17.7087 9.71092 17.709 9.97758 17.709 10.419V15.419C17.709 15.8604 17.7088 16.1271 17.6006 16.3936C17.4506 16.7519 17.1669 17.0356 16.8086 17.1856C16.542 17.2939 16.2754 17.294 15.834 17.294C15.3923 17.294 15.1251 17.2939 14.8584 17.1856C14.5002 17.0356 14.2173 16.7519 14.0674 16.3936C13.9591 16.127 13.959 15.8606 13.959 15.419V10.419C13.959 9.97746 13.9591 9.71099 14.0674 9.4444C14.2173 9.08614 14.5002 8.80243 14.8584 8.6524C15.1251 8.54407 15.3923 8.54401 15.834 8.54401ZM9.99805 3.96295C9.78152 3.96295 9.55634 3.9629 9.49805 3.97955C9.44834 3.99634 9.41554 4.03813 9.39062 4.08795C9.37405 4.13849 9.37305 4.36336 9.37305 4.58795V15.421C9.37305 15.6376 9.37396 15.8626 9.39062 15.921C9.40731 15.9707 9.44829 16.0126 9.49805 16.0294C9.61456 16.0626 10.3798 16.0626 10.498 16.0294C10.548 16.0127 10.5897 15.9709 10.6064 15.921C10.6231 15.871 10.623 15.6454 10.623 15.4288V4.59576C10.623 4.37912 10.6231 4.15409 10.6064 4.09576C10.5897 4.04585 10.548 4.00401 10.498 3.98737C10.4472 3.97085 10.2229 3.97076 10.0068 3.97076L9.99805 3.96295ZM4.16699 7.29401C3.95034 7.29401 3.72535 7.29395 3.66699 7.31061C3.61699 7.32727 3.58359 7.36901 3.55859 7.41901C3.54194 7.46905 3.54199 7.69404 3.54199 7.91901V15.419C3.54199 15.6356 3.54193 15.8606 3.55859 15.919C3.57526 15.969 3.61699 16.0107 3.66699 16.0274C3.77538 16.0607 4.55028 16.0607 4.66699 16.0274C4.71699 16.0107 4.75039 15.969 4.77539 15.919C4.79205 15.869 4.79199 15.644 4.79199 15.419V7.91901C4.79199 7.70237 4.79205 7.47737 4.77539 7.41901C4.75872 7.36901 4.71699 7.32727 4.66699 7.31061C4.61696 7.29395 4.39197 7.29401 4.16699 7.29401ZM15.834 9.79401C15.6177 9.79401 15.3928 9.79403 15.334 9.81061C15.284 9.82726 15.2506 9.86905 15.2256 9.91901C15.2089 9.96901 15.209 10.194 15.209 10.419V15.419C15.209 15.6357 15.2089 15.8607 15.2256 15.919C15.2423 15.969 15.284 16.0107 15.334 16.0274C15.4435 16.0606 16.2174 16.0607 16.334 16.0274C16.3838 16.0107 16.4174 15.9689 16.4424 15.919C16.459 15.8688 16.459 15.6438 16.459 15.419V10.419C16.459 10.2025 16.459 9.97751 16.4424 9.91901C16.4257 9.8691 16.3839 9.82734 16.334 9.81061C16.284 9.79395 16.0589 9.79401 15.834 9.79401Z" fill="currentColor"/></svg>
