<svg xmlns="http://www.w3.org/2000/svg" fill="none" viewBox="0 0 24 24"><path stroke="currentColor" stroke-linecap="round" stroke-linejoin="round" stroke-width="2" d="M16 10h.01"/><path stroke="currentColor" stroke-linejoin="round" stroke-width="2" d="M21 13V7c0-1.89 0-2.83-.59-3.41C19.83 3 18.9 3 17 3H7c-1.89 0-2.83 0-3.41.59C3 4.17 3 5.1 3 7v6c0 1.89 0 2.83.59 3.41C4.17 17 5.1 17 7 17h.5c.28 0 .5.22.5.5v2.65c0 .35.4.56.69.35l4.4-3.2q.42-.3.91-.3h3c1.89 0 2.83 0 3.41-.59.59-.58.59-1.52.59-3.41Z"/></svg>
