<svg xmlns="http://www.w3.org/2000/svg" fill="none" viewBox="0 0 24 24"><path stroke="currentColor" stroke-linecap="round" stroke-width="1.5" d="M12 15.33c1.1 0 2-.74 2-1.66S13.1 12 12 12s-2-.75-2-1.67.9-1.66 2-1.66m0 6.66c-1.1 0-2-.74-2-1.66m2 1.66V16m0-8v.67m0 0c1.1 0 2 .74 2 1.66"/><path stroke="currentColor" stroke-linecap="round" stroke-width="1.5" d="M17 3.34A10 10 0 0 0 3.04 16.45c.18.36.24.77.14 1.15l-.6 2.23a1.3 1.3 0 0 0 1.6 1.59l2.22-.6c.38-.1.8-.04 1.15.14A10 10 0 0 0 20.66 7"/></svg>
