<svg xmlns="http://www.w3.org/2000/svg" fill="none" viewBox="0 0 24 24"><path fill="currentColor" d="m10.03 14.94-.49.57zM12 9.5l-.54.53a.75.75 0 0 0 1.08 0zm1.97 5.44-.48-.57zM12 16v-.75zm-1.49-1.62c-.58-.5-1.16-1.07-1.6-1.66a3 3 0 0 1-.66-1.6h-1.5c0 .92.43 1.77.95 2.49.53.72 1.21 1.38 1.84 1.91zm-2.26-3.26c0-1.1.5-1.7 1-1.88.52-.2 1.35-.1 2.21.8l1.08-1.05C11.38 7.8 9.95 7.36 8.73 7.82c-1.24.46-1.98 1.72-1.98 3.29zm6.2 4.4a11 11 0 0 0 1.85-1.91c.52-.72.95-1.57.95-2.5h-1.5q0 .7-.67 1.61a9 9 0 0 1-1.6 1.66zm2.8-4.4c0-1.57-.74-2.83-1.98-3.29-1.22-.46-2.65-.02-3.8 1.16l1.07 1.05c.86-.9 1.69-1 2.2-.8s1.01.77 1.01 1.88zm-7.7 4.4c.77.67 1.4 1.23 2.45 1.23v-1.5c-.41 0-.62-.13-1.49-.87zm3.94-1.14c-.87.74-1.08.87-1.49.87v1.5c1.06 0 1.68-.56 2.46-1.23z"/><path fill="none" stroke="currentColor" stroke-linecap="round" stroke-width="1.5" d="M17 3.34A10 10 0 0 0 3.04 16.45c.18.36.24.77.14 1.15l-.6 2.23a1.3 1.3 0 0 0 1.6 1.59l2.22-.6c.38-.1.8-.04 1.15.14A10 10 0 0 0 20.66 7"/></svg>
