<svg viewBox="0 0 20 20" fill="none" xmlns="http://www.w3.org/2000/svg"><path fill-rule="evenodd" clip-rule="evenodd" d="M10 1.45703C10.905 1.45703 11.688 1.4578 12.3896 1.47363C12.7344 1.48139 13.0075 1.76749 13 2.1123C12.9925 2.4573 12.7054 2.73197 12.3604 2.72363C11.673 2.70781 10.8973 2.70703 10 2.70703C6.445 2.70703 4.66124 2.70776 3.68457 3.68359C2.70874 4.65943 2.70801 6.44403 2.70801 9.99902C2.70801 13.554 2.70874 15.3378 3.68457 16.3145C4.66124 17.2903 6.445 17.291 10 17.291C13.555 17.291 15.3388 17.2903 16.3154 16.3145C17.2913 15.3386 17.292 13.554 17.292 9.99902C17.292 8.77739 17.2915 7.72327 17.249 6.86328C17.2324 6.51828 17.4978 6.22467 17.8428 6.20801C18.1877 6.19067 18.4804 6.45685 18.4971 6.80176C18.5412 7.69255 18.542 8.76163 18.542 9.99902C18.542 13.899 18.5417 15.8566 17.1992 17.1982C15.8567 18.5407 13.8992 18.541 10 18.541C6.10083 18.541 4.14328 18.5407 2.80078 17.1982C1.45829 15.8557 1.45801 13.8982 1.45801 9.99902C1.45801 6.09986 1.45829 4.14147 2.80078 2.7998C4.14328 1.4573 6.10083 1.45703 10 1.45703ZM17.6992 2.74609C18.0225 2.62621 18.3829 2.79195 18.5029 3.11523C18.6226 3.43845 18.457 3.79803 18.1338 3.91797C16.5664 4.49973 14.6923 6.20485 12.7158 8.84961C11.1883 10.8929 10.1409 12.7816 10.1309 12.8008C10.0217 12.9982 9.81369 13.1214 9.58789 13.123H9.58398L9.58301 13.124C9.35898 13.1239 9.15179 13.0035 9.04102 12.8086C7.65386 10.3808 6.68233 10.201 6.66699 10.2168C6.66699 10.2168 5.96238 10.2016 6.05078 9.50098C6.1195 8.95731 6.66699 8.95703 6.66699 8.95703C6.90763 8.95713 8.07208 9.08251 9.56641 11.2881C10.8497 9.16892 14.2467 4.02693 17.6992 2.74609Z" fill="currentColor"/></svg>
