<svg xmlns="http://www.w3.org/2000/svg" fill="none" viewBox="0 0 24 24"><path fill="currentColor" d="M4.56 12.4a.75.75 0 1 0-1.12 1zm2.58 4.1-.56.5a.75.75 0 0 0 1.13 0zM15.56 8a.75.75 0 1 0-1.12-1zm-5.05 3.5a.75.75 0 0 0 1.13 1zm-.84 3.24a.75.75 0 1 0-1.13-.98zM3.44 13.4 6.58 17l1.13-.98-3.15-3.6zM7.7 17l1.96-2.25-1.13-.98L6.58 16zm3.93-4.5 1.96-2.25-1.13-.98-1.96 2.25zm1.96-2.25L15.57 8l-1.13-.98-1.97 2.25z"/><path stroke="currentColor" stroke-linecap="round" stroke-linejoin="round" stroke-width="1.5" d="m20 7.56-4.29 4.5M11 16l.43.56 2.14-2.25"/></svg>
