<svg viewBox="0 0 32 32" fill="none" xmlns="http://www.w3.org/2000/svg"><path d="M16 1.66663C17.4964 1.66663 18.9413 1.89621 20.2998 2.32288C20.8267 2.48837 21.1196 3.04988 20.9541 3.57678C20.7885 4.10358 20.227 4.39656 19.7002 4.23108C18.5334 3.86467 17.2906 3.66663 16 3.66663C9.18875 3.6668 3.66717 9.18838 3.66699 15.9996C3.66699 22.811 9.18864 28.3334 16 28.3336C22.8115 28.3336 28.334 22.8111 28.334 15.9996C28.334 14.709 28.136 13.4662 27.7695 12.2994C27.6041 11.7725 27.8969 11.211 28.4238 11.0455C28.9505 10.8803 29.5121 11.1732 29.6777 11.6998C30.1044 13.0583 30.334 14.5033 30.334 15.9996C30.334 23.9157 23.9161 30.3336 16 30.3336C8.08407 30.3334 1.66699 23.9156 1.66699 15.9996C1.66717 8.08381 8.08418 1.6668 16 1.66663ZM27.2578 3.33069C27.6273 2.92055 28.2595 2.88712 28.6699 3.25647C29.0803 3.62585 29.1133 4.25808 28.7441 4.66858L16.7432 18.0026C16.5597 18.2062 16.3004 18.3254 16.0264 18.3326C15.7522 18.3398 15.4869 18.2346 15.293 18.0406L10.627 13.3737C10.2364 12.9831 10.2364 12.3501 10.627 11.9596C11.0175 11.5692 11.6505 11.5691 12.041 11.9596L15.9619 15.8805L27.2578 3.33069Z" fill="currentColor"/></svg>
