<svg xmlns="http://www.w3.org/2000/svg" fill="currentColor" viewBox="0 0 32 32"><path d="M8.49 12.68v4.61c0 .34.23.61.53.71v5.48c0 .13-.14 3.21 1.88 5.34q1.84 1.93 5.09 1.94c3.25.01 3.88-.65 5.09-1.94 2.02-2.13 1.89-5.21 1.88-5.3V18c.3-.1.53-.37.53-.71v-4.61a4.66 4.66 0 0 0-3.21-8.76c-1.09-1.67-2.93-2.68-4.94-2.68s-3.68.91-4.79 2.46a4.65 4.65 0 0 0-2.09 8.97ZM20 27.79q-1.4 1.46-4 1.46c-2.6 0-3.07-.49-4-1.46-1.58-1.66-1.48-4.21-1.48-4.28v-5.48h10.96v5.51s.1 2.58-1.48 4.24Zm2.01-14.77v3.51H9.99v-3.51zM10.23 5.19q.31 0 .59.05c.3.05.61-.09.77-.35a4.4 4.4 0 0 1 7.73.3.8.8 0 0 0 .43.38q.3.1.57-.04.69-.35 1.44-.35a3.17 3.17 0 0 1 0 6.34H10.23a3.17 3.17 0 0 1 0-6.34Z"/><path d="M14.26 5.25a3.2 3.2 0 0 1 2.59 3.11c0 .41.34.75.75.75s.75-.34.75-.75c0-2.24-1.6-4.17-3.81-4.59a.76.76 0 0 0-.88.6c-.08.41.19.8.6.88"/><circle cx="13.32" cy="20.07" r="1.25"/><circle cx="18.68" cy="20.07" r="1.25"/><path d="M17.56 24.5h-3.12c-.41 0-.75.34-.75.75s.34.75.75.75h3.12c.41 0 .75-.34.75-.75s-.34-.75-.75-.75"/></svg>
