<svg xmlns="http://www.w3.org/2000/svg" fill="none" viewBox="0 0 24 24"><path stroke="currentColor" stroke-linejoin="round" stroke-width="2" d="M5 9c0-1.89 0-2.83.59-3.41C6.17 5 7.1 5 9 5h6c1.89 0 2.83 0 3.41.59C19 6.17 19 7.1 19 9v6c0 1.89 0 2.83-.59 3.41-.58.59-1.52.59-3.41.59H9c-1.89 0-2.83 0-3.41-.59C5 17.83 5 16.9 5 15z"/><path stroke="currentColor" stroke-linejoin="round" stroke-width="2" d="M9 12c0-.93 0-1.4.15-1.77a2 2 0 0 1 1.08-1.08C10.6 9 11.07 9 12 9s1.4 0 1.77.15a2 2 0 0 1 1.08 1.08c.15.37.15.84.15 1.77s0 1.4-.15 1.77a2 2 0 0 1-1.08 1.08c-.37.15-.84.15-1.77.15s-1.4 0-1.77-.15a2 2 0 0 1-1.08-1.08C9 13.4 9 12.93 9 12Z"/><path stroke="currentColor" stroke-linecap="round" stroke-width="2" d="M8 5V3m0 18v-2m13-3h-2M5 16H3M16 5V3m0 18v-2m5-11h-2M5 8H3"/></svg>
