<svg xmlns="http://www.w3.org/2000/svg" viewBox="-12.04 0 314.15 314.15"><defs><style>.a{fill:#fff}.b{fill:#211715}.d{fill:#ffda71}.e{fill:#f2635f}</style></defs><path d="M172.54 312.18v-30.53c-9.1.02-59.65.14-80.16.14v30.43Z" class="a"/><path d="M108.46 264.24v-2.77h48v20.22l-48 .09zM224.04 79.23a28 28 0 0 0 5.68-1.34 8 8 0 0 0 4.06-3.7 16 16 0 0 0 1.31-5.95 17 17 0 0 0 1.34 5.95 8 8 0 0 0 4.07 3.7 25 25 0 0 0 5.52 1.34 26 26 0 0 0-5.52 1.34 8 8 0 0 0-4.07 3.7 16 16 0 0 0-1.3 5.95 17 17 0 0 0-1.35-5.95 8 8 0 0 0-4.07-3.7 27 27 0 0 0-5.68-1.34M2 131.55c2.9-.52 6.9-1.07 9.89-2.34a14 14 0 0 0 7.08-6.44c1.68-3.4 1.94-6.58 2.28-10.36.44 3.83.65 6.97 2.33 10.36a14 14 0 0 0 7.09 6.44 44 44 0 0 0 9.6 2.34 45 45 0 0 0-9.6 2.34 14 14 0 0 0-7.09 6.44c-1.68 3.4-1.93 6.58-2.27 10.36-.44-3.83-.66-6.97-2.34-10.36a14 14 0 0 0-7.08-6.44c-3-1.27-7.04-1.85-9.9-2.34m269.53 89.14a.07.07 0 0 0 .15 0c.29-4.66 1.61-8.79 5.15-11.96a21 21 0 0 1 11.18-4.94.1.1 0 0 0 0-.19 21 21 0 0 1-11.18-4.94c-3.54-3.17-4.79-7.23-5.14-11.94a.07.07 0 0 0-.14 0c-.3 4.7-1.61 8.77-5.15 11.94a21 21 0 0 1-11.18 4.94.1.1 0 0 0 0 .19 21 21 0 0 1 11.18 4.94c3.54 3.17 4.77 7.3 5.13 11.96m-59.6-148.84a.07.07 0 0 0 .14 0c.3-4.66 1.62-8.79 5.16-11.96a21 21 0 0 1 11.18-4.94.1.1 0 0 0 0-.19 21 21 0 0 1-11.18-4.94c-3.54-3.17-4.79-7.23-5.14-11.94a.07.07 0 0 0-.14 0c-.3 4.7-1.61 8.77-5.15 11.94a21 21 0 0 1-11.18 4.94.1.1 0 0 0 0 .19 21 21 0 0 1 11.18 4.93c3.53 3.18 4.77 7.32 5.13 11.97" class="a"/><path d="M154.46 256.12v24.57c0 2.57 4 2.58 4 0v-24.57c0-2.58-4-2.58-4 0m-44 24.55v-24.55c0-2.58-4-2.58-4 0v24.55c0 2.57 4 2.58 4 0" class="b"/><path d="M174.54 312.18q.02-15.27 0-30.53a2.03 2.03 0 0 0-2-2l-25.3.06-37.69.07-17.17.01a2.03 2.03 0 0 0-2 2q-.02 15.22 0 30.43c0 2.57 4 2.58 4 0v-30.43l-2 2q16.72 0 33.44-.04l35.43-.07 11.29-.03-2-2v30.53c0 2.57 4 2.58 4 0" class="b"/><path d="m170.37 104.3 22.05-.06a1.25 1.25 0 0 0 1-1.98 6968 6968 0 0 0-59.05-80.05 1.24 1.24 0 0 0-2 0 8112 8112 0 0 0-59.06 80.05 1.25 1.25 0 0 0 1.01 1.98l22.05.05a1.25 1.25 0 0 1 1 1.98l-53.52 74.17a1.25 1.25 0 0 0 1.01 1.97c5.71 0 15.65.05 25.07.07a1.25 1.25 0 0 1 1 2c-7.87 10.4-38.54 51.21-56.34 75a1.25 1.25 0 0 0 1 2h235.55a1.25 1.25 0 0 0 1-2c-17.35-23-49.02-65.31-56.32-75a1.25 1.25 0 0 1 1-2c9.4-.03 19.32-.07 25.04-.07a1.25 1.25 0 0 0 1-1.99c-10.64-14.52-45.75-63.4-53.5-74.16a1.25 1.25 0 0 1 1.01-1.97" style="fill:#74c66d" transform="translate(-.904)"/><path d="M116.83 38.53Q97.16 65.02 77.68 91.65l-6.6 9.05a3.6 3.6 0 0 0-.8 3.15 3.25 3.25 0 0 0 2.85 2.36c1.93.19 3.95.04 5.9.04l15.7.04a4 4 0 0 0 .74 0c-1.04.83-.68-1.05-.72-1.03-.1.03-.24.34-.31.44l-.76 1.05-1.73 2.39L68 142.34l-23.92 33.14-1.73 2.4c-.68.94-1.55 1.87-1.61 3.08a3.3 3.3 0 0 0 1.67 3.05 7 7 0 0 0 3.4.4l7.58.02 9.03.03 4.5.01a9 9 0 0 0 2.12 0c-.33.48-.98-.95-.77-.95-.06 0-.25.32-.28.37l-4.3 5.7q-15.26 20.25-30.48 40.54l-16.65 22.2-3.7 4.96a5 5 0 0 0-1.4 2.84 3.3 3.3 0 0 0 2.15 3.14 13 13 0 0 0 3.91.2h231.53a7 7 0 0 0 2.29-.2 3.2 3.2 0 0 0 2.12-2.74c.11-1.32-.57-2.18-1.32-3.17q-16.1-21.35-32.13-42.76l-14.72-19.62-5.4-7.2-2.05-2.73-.83-1.1c-.05-.07-.26-.44-.33-.43.34-.01-.62 1.46-.76.96a12 12 0 0 0 1.42 0l17.86-.05h3.26a12 12 0 0 0 3.59-.2c2.43-.83 2.55-3.56 1.24-5.36q-5.18-7.08-10.3-14.2-14.1-19.48-28.12-39.01l-11.23-15.6-1.96-2.73-.78-1.08c-.15-.22-.47-.88-.7-.98l.01.49q-1.32.65-.35.54a4 4 0 0 0 .75 0h5.95l7.92-.03 6.34-.01a4 4 0 0 0 3-.95 3.3 3.3 0 0 0 .6-3.78 43 43 0 0 0-3.66-5.1l-4.11-5.64q-9.51-13.04-19.1-26.02-9.86-13.4-19.78-26.74a2.06 2.06 0 0 0-2.73-.72 2 2 0 0 0-.72 2.74q19.77 26.59 39.3 53.35l3.98 5.46 1.79 2.46.9 1.24a3 3 0 0 0 .35.49q.25.49.17 0-.1-.62.72-.79c-.27-.26-2.1 0-2.5 0l-3.46.02-7.59.01-7.75.02a3.7 3.7 0 0 0-3.44 1.45 3.3 3.3 0 0 0-.05 3.54c1 1.63 2.28 3.16 3.4 4.71l25.2 35.04c8.04 11.15 16.06 22.3 24.16 33.4a5 5 0 0 0 .47.65c.02.01.14.23.18.24l.1.12q-.2-.79.71-1.02c-.14-.14-.96 0-1.2 0h-1.98l-7.74.02-8.92.03c-1.58 0-3.15-.04-4.73 0a3.5 3.5 0 0 0-3.31 1.69c-1.35 2.51 1.39 5.02 2.8 6.9l5.26 7.02L232 237.24q7.73 10.3 15.48 20.58l1.53 2.03c.08.1.37.63.5.66.05.01-.26-1.91.72-1.01-.04-.05-.3 0-.36 0a10 10 0 0 0-1.47 0H15.33c-.7 0-.84-.23.08.53.28.23-.39.7.18.25a3 3 0 0 0 .35-.47l.9-1.2 1.83-2.45 3.88-5.17q16.64-22.2 33.31-44.38l12.6-16.74 2.17-2.87c.92-1.22 1.98-2.4 1.53-4.09-.82-3.05-4.52-2.41-6.92-2.42l-9.26-.02-8.13-.03h-3c-.15 0-.62-.08-.75 0h-.14q.92.24.71 1.03c.11-.04.25-.34.32-.44l3.52-4.87L59.3 161.2l26.72-37.03 9.95-13.8c1.36-1.87 3.75-4.2 2.18-6.61a3.6 3.6 0 0 0-3.25-1.45l-4.08-.01-7.87-.02-6.89-.02h-1.42a4 4 0 0 0-1.11 0c-.4.19 1.26.82.6 1.03.08-.02.19-.3.27-.36a8 8 0 0 0 .83-1.15q3.32-4.58 6.67-9.15 9.15-12.54 18.35-25.01 10-13.56 20.04-27.08a2 2 0 0 0-.72-2.74 2.05 2.05 0 0 0-2.74.72" class="b"/><path d="M114.46 31.65c2.18-3.02 4.14-6.2 6.02-9.05a.2.2 0 0 0 0-.18c-1.89-2.85-3.85-6.05-6.03-9.07a.15.15 0 0 1 .12-.25c3.14 0 7.84-.1 11.24-.11a.2.2 0 0 0 .14-.09q2.7-5.55 5.94-10.83a.16.16 0 0 1 .27 0c1.06 1.8 4.99 8.46 6.15 10.83a.14.14 0 0 0 .14.09c3.42 0 8.55.1 11.9.11a.15.15 0 0 1 .12.25c-2.18 3.03-4.14 6.22-6.04 9.08a.2.2 0 0 0 0 .17c1.89 2.85 3.85 6.03 6.02 9.05a.15.15 0 0 1-.12.25c-3.36 0-8.51.12-11.93.11a.14.14 0 0 0-.14.09 257 257 0 0 1-6.1 10.75.16.16 0 0 1-.27 0q-3.2-5.23-5.9-10.75a.2.2 0 0 0-.13-.09c-3.4 0-8.12-.1-11.28-.11a.15.15 0 0 1-.12-.25" class="d"/><path d="M116.19 32.66q1.74-2.46 3.37-4.97l1.7-2.63a5 5 0 0 0 1.22-2.55 5 5 0 0 0-1.23-2.55l-1.58-2.44a132 132 0 0 0-3.5-5.18l.27 1.01-.01-.16-1 1.72.14-.08-1 .27q2.85 0 5.72-.06l3.26-.03a12 12 0 0 0 2.79-.1c1.11-.3 1.5-1.34 1.96-2.28q.85-1.7 1.76-3.37 1.69-3.14 3.55-6.18l-.72.71.14-.08h-2.01l.13.08-.72-.71c1.93 3.25 3.87 6.5 5.64 9.83.5.95.94 1.84 2.11 2.04a26 26 0 0 0 4 .06q4.09.07 8.17.1l-1-.28.13.09-.99-1.73-.02.16.28-1q-1.75 2.45-3.38 4.97l-1.7 2.64a5 5 0 0 0-1.23 2.55 5 5 0 0 0 1.22 2.55q.79 1.2 1.58 2.44a136 136 0 0 0 3.49 5.16l-.28-1.01.02.16 1-1.72-.15.08 1.01-.27c-2.73 0-5.46.06-8.2.09-1.23.01-2.5-.07-3.73.02-1.32.1-1.82 1.02-2.37 2.06-1.76 3.31-3.69 6.54-5.6 9.77l.72-.72-.13.08h2.02l-.14-.08.72.72q-1.84-3.02-3.53-6.14-.89-1.66-1.74-3.34c-.46-.94-.84-1.97-1.96-2.28a11 11 0 0 0-2.78-.08l-3.27-.04-5.76-.06 1.01.28-.14-.1 1 1.74.01-.17a2 2 0 0 0-2-2 2.05 2.05 0 0 0-2 2l-.02.17a2 2 0 0 0 1 1.72 5.5 5.5 0 0 0 2.9.37l3.17.04q3.17.05 6.35.06l-1.01-.27.13.09-.71-.72q2.17 4.45 4.68 8.73c.7 1.2 1.41 3.09 3.07 3.09 1.22 0 1.8-.96 2.34-1.88 1.93-3.27 3.94-6.54 5.63-9.94l-.72.72.14-.09-1.01.27q3.3 0 6.6-.06l3.2-.03c1.04-.01 2.36.2 3.28-.38a2 2 0 0 0 .99-1.72 5.7 5.7 0 0 0-1.36-2.7q-.85-1.23-1.67-2.5-1.63-2.52-3.28-5.03l.27 1.01v-.17l-.27 1 3.29-5.04q.82-1.26 1.67-2.5a5.7 5.7 0 0 0 1.37-2.7 2 2 0 0 0-1-1.73c-.87-.55-2.08-.36-3.07-.37q-1.7-.01-3.38-.04-3.3-.05-6.6-.06l1.02.27-.14-.08.72.71c-1.7-3.43-3.73-6.72-5.67-10.02-.5-.86-1-1.68-2.08-1.85-1.8-.27-2.61 1.81-3.35 3.08q-2.53 4.3-4.72 8.8l.72-.72-.14.09 1.01-.27q-3.16 0-6.34.06l-3.15.04a5.5 5.5 0 0 0-2.9.37 2 2 0 0 0-.99 1.72 6 6 0 0 0 1.36 2.7q.85 1.24 1.68 2.5l3.28 5.05-.27-1v.16l.27-1.01c-2 3.02-3.9 6.1-6.02 9.05a2 2 0 0 0 .72 2.74 2.04 2.04 0 0 0 2.74-.72m108.38 48.5c3.26-.58 6.53-1.12 9.05-3.46 2.66-2.48 3.16-6.03 3.47-9.47h-4c.38 3.34.79 6.73 3.27 9.24 2.45 2.47 5.83 3.13 9.13 3.69V77.3c-3.3.57-6.69 1.2-9.13 3.69-2.46 2.5-2.93 5.89-3.23 9.23h4c-.4-3.43-.84-6.97-3.51-9.46-2.5-2.34-5.8-2.9-9.05-3.46a2.06 2.06 0 0 0-2.46 1.4 2 2 0 0 0 1.4 2.46c2.36.4 5.11.63 7.04 2.21 2.05 1.69 2.3 4.39 2.58 6.86a2 2 0 0 0 4 0c.21-2.38.46-4.92 2.3-6.64 1.87-1.75 4.72-2.01 7.13-2.43 1.9-.33 1.91-3.53 0-3.86-2.41-.4-5.26-.68-7.13-2.43-1.84-1.72-2.07-4.26-2.34-6.63a2 2 0 0 0-4 0c-.22 2.48-.5 5.16-2.54 6.85-1.92 1.59-4.68 1.8-7.04 2.21a2 2 0 0 0-1.4 2.46 2.05 2.05 0 0 0 2.46 1.4M2.52 133.48c5.31-.94 10.72-1.72 14.9-5.45 4.5-4.01 5.31-9.94 5.82-15.62h-4c.62 5.38 1.24 10.9 5.2 14.97 4.07 4.16 9.8 5.17 15.3 6.1v-3.86c-5.43.95-11.09 1.9-15.16 5.97-4.06 4.04-4.79 9.67-5.28 15.1h4c-.64-5.62-1.33-11.44-5.75-15.5-4.15-3.82-9.67-4.66-15.03-5.57a2.06 2.06 0 0 0-2.46 1.4 2 2 0 0 0 1.4 2.46c4.42.75 9.47 1.23 12.99 4.3 3.8 3.3 4.32 8.2 4.86 12.91a2 2 0 0 0 4 0c.4-4.49.9-9.27 4.37-12.54 3.5-3.3 8.6-3.88 13.13-4.67 1.9-.33 1.91-3.53 0-3.86-4.6-.78-9.76-1.4-13.26-4.8-3.37-3.26-3.8-8-4.3-12.4a2 2 0 0 0-4 0c-.43 4.77-1.03 9.76-4.94 13.04-3.53 2.95-8.48 3.4-12.84 4.17a2 2 0 0 0-1.4 2.46 2.05 2.05 0 0 0 2.45 1.39m267.6 88.62.07.07a2.03 2.03 0 0 0 2.83 0c.84-.84.67-2.14.82-3.24a19 19 0 0 1 .7-3.06 13 13 0 0 1 3.28-5.33 17 17 0 0 1 5.77-3.6 22 22 0 0 1 2.9-.86c1-.23 2.3-.19 3.02-.97a2.05 2.05 0 0 0 0-2.83c-.7-.76-1.89-.72-2.85-.93a22 22 0 0 1-2.9-.84 17 17 0 0 1-5.94-3.67 12.5 12.5 0 0 1-3.19-5.12 20 20 0 0 1-.72-3.05c-.18-1.13 0-2.58-.87-3.43a2.03 2.03 0 0 0-2.83 0c-.84.84-.67 2.15-.82 3.25a19 19 0 0 1-.7 3.05 13 13 0 0 1-3.28 5.3 17 17 0 0 1-5.76 3.6 22 22 0 0 1-2.91.87c-1 .23-2.28.18-3.02.97a2.05 2.05 0 0 0 0 2.83c.69.73 1.77.7 2.69.9a22 22 0 0 1 2.71.75 17 17 0 0 1 5.7 3.24c3.16 2.77 4.38 6.61 4.72 10.7.2 2.54 4.2 2.56 4 0-.4-4.82-1.74-9.53-5.3-12.98a22.8 22.8 0 0 0-13.02-5.93l1.42.59-.1-.1v2.83l.1-.09-.89.52a22.3 22.3 0 0 0 12.63-6c3.47-3.44 4.84-8.05 5.17-12.81l-.58 1.41.07-.07h-2.83l.07.07-.59-1.42c.38 4.76 1.7 9.37 5.16 12.82a22.2 22.2 0 0 0 12.63 6l-.89-.52.1.1v-2.83l-.1.09 1.42-.59a23 23 0 0 0-13.02 5.93c-3.56 3.45-4.98 8.14-5.31 12.97l.58-1.42-.07.07h2.83l-.07-.06c-1.85-1.8-4.68 1.03-2.83 2.82M210.5 73.26l.07.07a2.03 2.03 0 0 0 2.83 0c.84-.84.66-2.14.82-3.24a19 19 0 0 1 .7-3.06 13 13 0 0 1 3.28-5.33 17 17 0 0 1 5.76-3.6 22 22 0 0 1 2.91-.86c1-.23 2.29-.19 3.02-.97a2.05 2.05 0 0 0 0-2.83c-.7-.76-1.9-.72-2.85-.93a22 22 0 0 1-2.9-.84A17 17 0 0 1 218.2 48a12.5 12.5 0 0 1-3.2-5.13 20 20 0 0 1-.71-3.05c-.18-1.13 0-2.58-.87-3.43a2.03 2.03 0 0 0-2.83 0c-.84.84-.67 2.15-.83 3.25a19 19 0 0 1-.7 3.06 13 13 0 0 1-3.27 5.3 17 17 0 0 1-5.77 3.6 22 22 0 0 1-2.9.86c-1 .23-2.29.18-3.02.97a2.04 2.04 0 0 0 0 2.83c.68.73 1.76.7 2.68.9a22 22 0 0 1 2.72.74 17 17 0 0 1 5.7 3.25c3.15 2.76 4.37 6.6 4.71 10.69.21 2.54 4.21 2.57 4 0-.4-4.81-1.73-9.52-5.3-12.98a22.8 22.8 0 0 0-13.01-5.92l1.41.58-.09-.09v2.83l.1-.1-.89.52a22.2 22.2 0 0 0 12.63-5.99c3.47-3.44 4.83-8.05 5.17-12.82l-.59 1.42.07-.07h-2.82l.07.07-.59-1.42c.38 4.75 1.7 9.37 5.16 12.82a22.2 22.2 0 0 0 12.63 6l-.89-.52.09.1v-2.84l-.09.1 1.42-.6a23 23 0 0 0-13.02 5.93c-3.56 3.45-4.98 8.15-5.32 12.98l.59-1.42-.07.07h2.83l-.07-.07c-1.85-1.79-4.69 1.03-2.83 2.83" class="b"/><path d="M76.82 248.89c.06-3.3.83-6.22 3.27-8.41a13 13 0 0 1 7.46-3.15q.03-.02 0-.03a13.2 13.2 0 0 1-7.45-3.15c-2.45-2.2-3.16-5.07-3.28-8.4-.08 3.33-.83 6.2-3.28 8.4a13.2 13.2 0 0 1-7.46 3.15q-.03.02 0 .03a13 13 0 0 1 7.46 3.15c2.44 2.2 3.14 5.12 3.27 8.4" class="a"/><path d="M78.82 248.89c.06-2.41.53-4.85 2.3-6.62a10.8 10.8 0 0 1 6.43-2.94 2.05 2.05 0 0 0 2-2v-.03a2.05 2.05 0 0 0-2-2 10.8 10.8 0 0 1-6.43-2.94c-1.76-1.77-2.2-4.22-2.3-6.62a2 2 0 0 0-4 0c-.08 2.41-.54 4.84-2.3 6.62a10.8 10.8 0 0 1-6.44 2.94 2.05 2.05 0 0 0-2 2v.02a2.05 2.05 0 0 0 2 2 10.7 10.7 0 0 1 6.43 2.94c1.75 1.77 2.19 4.23 2.3 6.62.12 2.56 4.12 2.58 4 0-.17-3.46-.96-6.9-3.48-9.45a15 15 0 0 0-9.26-4.1l2 2v-.03l-2 2a15 15 0 0 0 9.26-4.11c2.53-2.54 3.37-5.97 3.48-9.45h-4c.15 3.47.94 6.9 3.47 9.45a15 15 0 0 0 9.27 4.11l-2-2v.02l2-2a15 15 0 0 0-9.27 4.11c-2.52 2.54-3.37 5.98-3.47 9.45-.07 2.58 3.93 2.58 4 0" class="b"/><path d="M222.88 217.78c-12.54 7.03-22.6 9.63-36.59 12.64a102 102 0 0 1-44.37-.34c-13-3.02-25.3-8.59-38.32-11.52-20.28-4.58-41.46-2.6-61.94.97l5.48-9.75a5.1 5.1 0 0 1 3.48-2.51c19.41-3.78 37-6.48 56.6-2.82 10.67 2 20.9 5.82 31.34 8.76a88 88 0 0 0 42.84 1.83c11.34-2.35 18.58-5.97 27.7-11.88a3.37 3.37 0 0 1 4.64.95Z" class="d"/><path d="M221.88 216.05a113 113 0 0 1-30.11 11.1 132 132 0 0 1-17.7 3.12 102 102 0 0 1-18.77-.02c-12.42-1.17-24.05-5.26-35.8-9.17a150 150 0 0 0-17.7-4.95 117 117 0 0 0-18.64-2.15c-14.1-.52-28.17 1.21-42.03 3.62l2.26 2.94 4.8-8.54.67-1.2c.87-1.44 2.21-1.6 3.75-1.9q6.28-1.22 12.59-2.22a146 146 0 0 1 24.6-1.96 104 104 0 0 1 24.93 3.48c8.16 2.13 16.1 4.98 24.24 7.2a95 95 0 0 0 24.6 3.46 88 88 0 0 0 24.17-3.31 76 76 0 0 0 18.73-8.38q1.13-.68 2.24-1.39a8 8 0 0 1 1.9-1.14 1.4 1.4 0 0 1 1.5.61c.82 1.02 1.49 2.23 2.21 3.31l6.4 9.57.43.65c1.43 2.13 4.9.13 3.46-2.02l-5.33-7.97-3.1-4.63c-1-1.5-2.02-2.89-3.88-3.37a6 6 0 0 0-4.92 1.1q-2.36 1.52-4.8 2.93a71 71 0 0 1-8.93 4.48 78 78 0 0 1-23.1 5.3 86 86 0 0 1-25.17-1.76c-8.5-1.84-16.7-4.82-25.04-7.24a118 118 0 0 0-25.62-4.7 132 132 0 0 0-25.62 1.2q-6.4.87-12.76 2.05c-3.85.7-8.53.79-10.83 4.46-1.8 2.87-3.35 5.94-5.02 8.9l-.56 1a2.03 2.03 0 0 0 2.27 2.95c12.35-2.14 24.85-3.7 37.4-3.56a115 115 0 0 1 18.81 1.65 132 132 0 0 1 17.8 4.66c11.89 3.86 23.53 8.15 36.01 9.7a109 109 0 0 0 37.24-2.14 163 163 0 0 0 17.31-4.6 103 103 0 0 0 17.13-7.67c2.24-1.25.23-4.7-2.03-3.45" class="b"/><path d="M141.65 61.43a8.65 8.65 0 0 0-8.68 8.9c0 5.37 3.62 9.07 8.68 9.07 5.25 0 8.68-3.73 8.68-9.07a8.64 8.64 0 0 0-8.68-8.9M93.2 155.65a8.65 8.65 0 0 0-8.67 8.9c0 5.37 3.62 9.07 8.67 9.07 5.26 0 8.68-3.73 8.68-9.07a8.64 8.64 0 0 0-8.67-8.9" class="e"/><path d="M191.72 134.55c-17.67 10.47-35.62 14.22-56.82 13.6a110.6 110.6 0 0 1-58.6-18.43l4.44-8.48a2.64 2.64 0 0 1 3.69-1.05c14.75 8.87 32.15 12 49.45 11.53s30.74-3.38 44.62-12.94a2.64 2.64 0 0 1 3.72.77Z" class="d"/><path d="M190.7 132.83a96 96 0 0 1-42.98 13.12 118 118 0 0 1-46.76-6.08 106 106 0 0 1-23.65-11.88l.72 2.74 3.52-6.73c.28-.53.78-2.12 1.5-2.2.38-.04.83.39 1.12.56q.85.5 1.71.96 2 1.1 4.07 2.08a93 93 0 0 0 34.7 8.21c11.14.57 22.76-.1 33.54-3.08a69 69 0 0 0 14.69-5.94q1.77-.96 3.49-2.03.87-.54 1.74-1.11c.47-.31 1.14-1.03 1.69-1.12.66-.1.9.57 1.2 1.03l8.99 14.2c1.37 2.17 4.83.16 3.45-2.02l-8.46-13.36q-.5-.83-1.03-1.64a4.8 4.8 0 0 0-3.05-2.12 5.3 5.3 0 0 0-4.11 1.1 67 67 0 0 1-14.6 7.55c-10.7 3.87-22.29 4.86-33.59 4.68-12.24-.2-24.64-2.34-35.84-7.44q-2.37-1.09-4.67-2.33c-1.45-.8-2.91-1.99-4.6-2.14-2.25-.2-3.85 1.19-4.83 3.05l-4.09 7.82a2.05 2.05 0 0 0 .72 2.73 111 111 0 0 0 44.98 17.36c15.83 2.4 32.53 2.02 48.04-2.15a98 98 0 0 0 24.42-10.37c2.21-1.3.2-4.77-2.02-3.45m-49.05-73.4a10.7 10.7 0 0 0-10.18 7.56c-1.3 4.13-.11 9.25 3.32 12.02a11.25 11.25 0 0 0 12.45.95c3.93-2.3 5.57-7.01 4.94-11.37a10.7 10.7 0 0 0-10.53-9.16c-2.58-.04-2.58 3.97 0 4a6.6 6.6 0 0 1 6.4 4.83 7.6 7.6 0 0 1-2.12 7.77 7.4 7.4 0 0 1-7.64.56 7.2 7.2 0 0 1-3.28-7.17 6.67 6.67 0 0 1 6.64-5.99c2.57-.03 2.58-4.03 0-4" class="b"/><path d="M120.66 183.55a5.6 5.6 0 0 0-5.64 5.79 5.53 5.53 0 0 0 5.64 5.89c3.41 0 5.64-2.43 5.64-5.9a5.6 5.6 0 0 0-5.64-5.78" class="a"/><path d="M93.2 153.65a10.7 10.7 0 0 0-10.18 7.56c-1.29 4.13-.1 9.25 3.33 12.02a11.3 11.3 0 0 0 12.45.95c3.93-2.29 5.56-7.01 4.94-11.37a10.7 10.7 0 0 0-10.53-9.16c-2.58-.03-2.58 3.97 0 4a6.6 6.6 0 0 1 6.39 4.83 7.6 7.6 0 0 1-2.1 7.77 7.4 7.4 0 0 1-7.66.56 7.2 7.2 0 0 1-3.28-7.16 6.67 6.67 0 0 1 6.65-6c2.57-.03 2.57-4.03 0-4m27.46 27.9a7.7 7.7 0 0 0-7.3 5.43 8.1 8.1 0 0 0 2.35 8.5 7.67 7.67 0 0 0 12.47-7.46 7.64 7.64 0 0 0-7.52-6.46 2 2 0 0 0 0 4l.5.02c.51.01-.27-.08.03 0l.83.21c.1.03.35.16-.05-.03l.4.2.26.15c.1.06.58.47.2.12q.28.25.53.5l.2.23c-.33-.37-.02-.02.04.07l.37.65c.22.4-.06-.28 0 0l.17.5a7 7 0 0 1 .16.75c-.09-.54 0 .26 0 .4q0 .4-.04.8c.04-.51 0-.01-.02.1a9 9 0 0 1-.33 1.12c.2-.51-.13.22-.2.35l-.2.29c-.24.39.3-.3-.02.02a7 7 0 0 0-.53.53c-.17.2.39-.25.02-.02l-.34.22-.25.14-.12.06.09-.04c-.11.13-.55.18-.7.22l-.36.08.16-.02-.31.03a7 7 0 0 1-.8 0l-.38-.02c-.3 0 .47.11 0 0l-.7-.2-.14-.04q-.3-.12.08.04a2 2 0 0 1-.37-.2 6 6 0 0 1-.59-.38c.44.33-.11-.12-.22-.23l-.28-.32c.31.35.09.13.02.01-.15-.24-.27-.52-.42-.75s.14.45 0 0l-.14-.43q-.1-.37-.17-.75c.01.07.04.43.01.05l-.02-.5v-.32c0-.12.08-.8 0-.24a7 7 0 0 1 .2-.9l.1-.28q.12-.31-.03.06l.13-.27a7 7 0 0 1 .47-.75c-.04.06-.28.31-.04.06l.41-.43.22-.2c-.38.36.1-.05.2-.11l.26-.15c.06-.03.58-.26.3-.16l.2-.06.53-.14c.12-.02.48-.06.03-.02l.66-.03a2 2 0 1 0 0-4Z" class="b"/><path d="M120 94.67a5.6 5.6 0 0 0-5.64 5.78 5.53 5.53 0 0 0 5.64 5.9c3.4 0 5.64-2.43 5.64-5.9a5.6 5.6 0 0 0-5.64-5.78" class="a"/><path d="M120 92.67a7.7 7.7 0 0 0-7.3 5.42 8.1 8.1 0 0 0 2.35 8.5 7.67 7.67 0 0 0 12.46-7.45 7.64 7.64 0 0 0-7.51-6.47 2 2 0 0 0 0 4l.5.02c.5.02-.28-.07.02 0l.84.22c.1.02.34.15-.06-.04l.41.2.26.15c.1.07.58.47.2.12l.53.51.2.22c-.34-.37-.03-.02.03.07q.2.32.37.65c.23.4-.05-.28.01 0l.17.5a7 7 0 0 1 .16.75c-.09-.54 0 .26 0 .4q0 .41-.04.81c.04-.52 0-.02-.02.08l-.1.44-.23.7c.2-.52-.13.2-.21.34l-.19.29c-.25.39.3-.3-.02.03l-.54.52c-.16.2.4-.25.03-.02l-.35.22-.24.14-.13.06q-.3.14.1-.03c-.12.12-.55.18-.7.21l-.36.08.15-.02-.3.03a7 7 0 0 1-.8.01l-.39-.03c-.3 0 .47.11.01 0l-.7-.2-.14-.04q-.31-.12.08.04a2 2 0 0 1-.38-.2 6 6 0 0 1-.58-.38c.44.33-.12-.12-.22-.23l-.28-.32c.3.35.09.13.02.01-.15-.24-.27-.52-.43-.75s.14.45 0 0l-.14-.43q-.1-.37-.16-.75c.01.07.03.43 0 .05l-.02-.49v-.33c0-.1.09-.8 0-.24a7 7 0 0 1 .2-.9l.1-.28q.13-.31-.02.06l.13-.27a7 7 0 0 1 .47-.75c-.04.06-.28.31-.04.06l.41-.43.22-.19c-.38.35.1-.06.2-.12l.26-.15c.06-.03.58-.26.3-.16l.2-.06q.26-.08.53-.14c.12-.02.48-.06.03-.02l.66-.03a2 2 0 0 0 0-4Z" class="b"/><path d="M207.6 237.22a5.6 5.6 0 0 0-5.64 5.78 5.53 5.53 0 0 0 5.64 5.9c3.41 0 5.64-2.43 5.64-5.9a5.6 5.6 0 0 0-5.64-5.78" class="a"/><path d="M207.6 235.22a7.7 7.7 0 0 0-7.29 5.42 8.1 8.1 0 0 0 2.34 8.5 7.67 7.67 0 0 0 12.47-7.45 7.64 7.64 0 0 0-7.52-6.47 2 2 0 0 0 0 4l.5.02c.52.02-.27-.07.03 0l.83.22c.1.03.35.15-.05-.04l.67.36c.1.06.58.46.2.12q.27.23.53.5l.2.23c-.34-.38-.03-.02.03.07q.2.3.37.64c.23.4-.06-.27 0 0q.1.25.17.5a6 6 0 0 1 .17.75c-.1-.54 0 .26 0 .4q-.01.42-.04.81c.03-.52 0-.02-.03.09l-.1.44-.23.69c.2-.52-.12.21-.2.34l-.2.3c-.24.38.3-.3-.02.02l-.53.52c-.16.21.4-.25.03-.02l-.35.23-.25.13-.12.06q-.3.14.09-.03c-.11.12-.54.18-.7.21l-.36.08q-.22.04.16-.01l-.31.03a7 7 0 0 1-.8 0l-.38-.03c-.3 0 .47.12.01 0q-.37-.09-.7-.2l-.15-.04q-.3-.12.09.04a2 2 0 0 1-.38-.2 6 6 0 0 1-.59-.37c.44.32-.1-.13-.22-.24s-.18-.2-.28-.31c.31.35.1.12.02 0-.14-.23-.26-.52-.42-.74s.14.44 0 0l-.14-.43q-.1-.37-.17-.76c.02.08.04.44.02.06l-.03-.5v-.32c0-.11.09-.8 0-.25a7 7 0 0 1 .2-.89l.1-.28q.12-.32-.03.06l.13-.27a7 7 0 0 1 .47-.76c-.04.06-.27.32-.03.06l.4-.42.23-.2c-.38.35.1-.06.2-.12l.26-.15c.05-.03.58-.26.3-.16l.2-.06.53-.14c.12-.02.48-.06.02-.02q.33-.03.67-.03a2 2 0 0 0 0-4Z" class="b"/><path d="m149.62 160.59-.26.73q-.3.83-.54 1.67a3 3 0 0 0-.13.98 4 4 0 0 0 .89 1.38s.1.12.26.3l29.32.03.2-.3a3.5 3.5 0 0 0 .93-1.41 3 3 0 0 0-.13-.98q-.24-.84-.54-1.67c-.43-1.24-1.01-2.8-2.21-3.3a3.7 3.7 0 0 0-2.53.14 51 51 0 0 0-9.9 4.54 1.1 1.1 0 0 1-1.04 0 61 61 0 0 0-9.84-4.54 3.7 3.7 0 0 0-2.53-.14 4 4 0 0 0-1.88 2.4Z" class="e"/><path d="M151.25 164.24c-.1-.1-.34-.5-.48-.56q-.22-.45-.1.16l.07-.32c.43-.79.54-1.83.92-2.66.21-.46.4-.93.9-1a7 7 0 0 1 2.51.75 46 46 0 0 1 5.06 2.36c1.48.76 3.3 2.22 5.05 1.78a11 11 0 0 0 2.4-1.2q1.2-.64 2.41-1.25a38 38 0 0 1 5-2.07c.48-.16 1.33-.59 1.8-.24a3.5 3.5 0 0 1 .8 1.55l.46 1.36c.06.2.22 1.21.3.75.06-.44-.41.35-.55.53q-.19.24-.36.5c-1.46 2.12 2 4.12 3.46 2.01.89-1.3 1.64-2.2 1.28-3.9a15 15 0 0 0-1.73-4.55c-2.45-3.92-6.85-1.9-10.2-.45a60 60 0 0 0-5.08 2.53 4 4 0 0 1-.79.44c.06-.01.5.06-.02-.09a7 7 0 0 1-1.2-.63q-1.3-.69-2.61-1.35a42 42 0 0 0-5.48-2.32c-1.79-.59-3.7-.83-5.27.42s-2.22 3.4-2.78 5.25a4.2 4.2 0 0 0-.07 2.95 8 8 0 0 0 1.48 2.08c1.7 1.94 4.52-.9 2.83-2.83Z" class="b"/><path d="m144.5 165.65 39.99.03-.05 29.97-39.95-.03c0-1.27.03-23.24.02-29.97" class="a"/><path d="M168.91 166.84v-1.14c-2.91-.03-5.96-.03-8.9-.04l.01 11.88c.02 7.66.04 12.75.04 18.1h8.91c0-5.34-.02-10.43-.04-18.1z" class="e"/><path d="M166.91 165.7c0 9.97.05 19.94.06 29.91 0 2.58 4 2.58 4 0 0-9.97-.06-19.94-.06-29.91 0-2.57-4-2.58-4 0m-8.9 0 .05 29.91c0 2.57 4 2.58 4 0 0-9.97-.06-19.94-.06-29.91 0-2.57-4-2.58-4 0" class="b"/><path d="M144.5 167.65q17.02 0 34.02.03h5.97l-2-2-.05 29.97 2-2q-16.26 0-32.53-.03h-7.42l2 2q0-11.79.02-23.57v-6.4c0-2.57-4-2.58-4 0q.02 13.21-.02 26.42v3.55a2.03 2.03 0 0 0 2 2q17 0 34 .03h5.96a2.03 2.03 0 0 0 2-2q0-14.99.04-29.97a2.03 2.03 0 0 0-2-2q-16.3 0-32.59-.03h-7.39c-2.58 0-2.58 4 0 4" class="b"/></svg>
