<svg xmlns="http://www.w3.org/2000/svg" viewBox="0 -172.63 483.864 483.864"><defs><style>.a{fill:#fff}.b{fill:#211715}.c{fill:#74c66d}.d{fill:#ffda71}.e{fill:#f2635f}</style></defs><path d="M121.35 2a4.24 4.24 0 0 0-4.25 4.36 4.17 4.17 0 0 0 4.25 4.44 4.12 4.12 0 0 0 4.25-4.44A4.23 4.23 0 0 0 121.35 2M325.6 37.12a4.24 4.24 0 0 0-4.25 4.35 4.17 4.17 0 0 0 4.25 4.45 4.12 4.12 0 0 0 4.25-4.45 4.23 4.23 0 0 0-4.25-4.35m-309.92 35a4.24 4.24 0 0 0-4.25 4.36 4.17 4.17 0 0 0 4.25 4.44 4.12 4.12 0 0 0 4.25-4.44 4.23 4.23 0 0 0-4.25-4.36m446.59-51.77a4.24 4.24 0 0 0-4.25 4.36 4.17 4.17 0 0 0 4.25 4.44 4.12 4.12 0 0 0 4.25-4.44 4.23 4.23 0 0 0-4.25-4.36" class="a"/><path d="M121.35 0a6.3 6.3 0 0 0-5.97 4.45 6.6 6.6 0 0 0 1.89 6.88 6.6 6.6 0 0 0 7.33.63 6.5 6.5 0 0 0 2.89-6.72A6.25 6.25 0 0 0 121.35 0a2 2 0 0 0-2 2 2.04 2.04 0 0 0 2 2l.37.02c.43 0-.37-.08-.1-.02l.62.16c.17.05.17.16-.15-.07l.3.15.24.13c.09.13.3.25.4.38l.15.16-.18-.23.13.19q.15.23.28.48c.19.35-.1-.36-.04-.11l.12.38c.05.18.06.39.13.56-.17-.47-.04-.28-.03-.06v.24a4 4 0 0 0-.02.6l.04-.3-.12.57q-.1.25-.17.52c.11-.5.11-.27.02-.09l-.13.23-.14.22c-.21.33.33-.36.06-.08l-.4.4c-.17.18.43-.3.12-.1l-.27.17-.18.1c-.22.12-.34.04.1-.02-.18.02-.36.12-.53.16l-.28.06.25-.03-.23.02h-.6l-.3-.02c-.26 0 .53.11.15.01q-.27-.05-.54-.14c-.22-.07-.28-.22.08.05l-.28-.15c-.16-.08-.3-.2-.45-.28.46.25.23.17.09.04l-.15-.15-.21-.23c.33.27.2.28.09.1s-.2-.38-.32-.56c-.14-.22.17.5.05.12l-.1-.32a3 3 0 0 0-.12-.57c.02.03.04.51.02.17l-.02-.37v-.25l.02-.24q.03-.32-.04.19c.08-.21.09-.46.16-.68l.07-.21q.12-.3-.07.16l.1-.2.35-.57c-.01.04-.32.37-.1.15l.3-.32.17-.15-.14.11a4 4 0 0 1 .56-.33c-.3.16.02 0 .09-.02q.2-.07.4-.1c.27-.06.19.08-.11 0a2 2 0 0 0 .5-.03 2.03 2.03 0 0 0 2-2 2.03 2.03 0 0 0-2.01-2M325.6 35.12a6.3 6.3 0 0 0-5.97 4.45 6.6 6.6 0 0 0 1.9 6.88 6.27 6.27 0 0 0 10.21-6.1 6.25 6.25 0 0 0-6.14-5.24 2 2 0 0 0 0 4l.38.02c.42.01-.38-.08-.11-.02l.62.16c.17.05.18.16-.15-.07l.3.15.2.11.18.13q.26.18-.13-.11c.08.14.29.26.4.38l.14.17-.17-.23.12.18q.16.24.28.49c.2.34-.1-.37-.04-.12l.12.38c.06.18.07.39.13.56-.17-.47-.04-.28-.03-.06v.24a4 4 0 0 0-.02.6l.04-.3-.12.57c-.04.17-.13.34-.17.52.11-.5.12-.27.02-.09l-.13.23-.14.22c-.21.33.33-.36.06-.08l-.4.4c-.17.19.43-.29.12-.1l-.26.18-.19.1c-.21.1-.34.03.1-.03-.18.02-.36.12-.53.16l-.27.06q-.24.04.25-.03l-.24.02h-.6l-.29-.02c-.27 0 .53.11.14.02l-.53-.15c-.23-.07-.29-.22.07.05l-.28-.15c-.16-.08-.3-.2-.44-.28.45.25.22.17.08.04l-.15-.15-.21-.23c.34.27.2.28.09.1s-.2-.38-.32-.56c-.14-.22.17.5.05.12l-.1-.32a3 3 0 0 0-.12-.57c.02.03.04.51.03.17l-.02-.37v-.48l-.02.18c.07-.21.08-.46.15-.67l.07-.22q.12-.3-.07.16l.1-.2.35-.56c-.01.03-.32.37-.1.14l.31-.32.17-.15q-.4.3-.14.11l.19-.12.2-.12.17-.09c-.31.16.02 0 .08-.02l.4-.1c.28-.06.2.08-.11 0a2 2 0 0 0 .5-.03 2 2 0 0 0 0-4Zm-309.92 35a6.3 6.3 0 0 0-5.97 4.45 6.6 6.6 0 0 0 1.89 6.89 6.6 6.6 0 0 0 7.33.62 6.5 6.5 0 0 0 2.9-6.72 6.24 6.24 0 0 0-6.15-5.24 2 2 0 0 0 0 4l.38.02c.42.01-.38-.08-.11-.02l.62.16c.17.05.17.16-.15-.07q.13.08.3.15l.2.11.04.02c.09.14.3.26.4.38l.15.17-.17-.23.12.18q.16.24.28.49c.2.34-.1-.37-.04-.12l.12.38.13.57c-.17-.48-.04-.29-.03-.07v.24a4 4 0 0 0-.02.6l.04-.3-.04.24-.08.33q-.1.27-.17.52c.11-.5.11-.27.02-.09l-.13.23-.14.22c-.21.33.33-.36.06-.08l-.4.4c-.17.19.43-.29.12-.09l-.27.17-.18.1c-.22.1-.34.03.1-.03-.18.02-.36.12-.53.16q-.14.02-.27.06l.24-.03-.23.02h-.6l-.29-.01c-.27-.01.52.1.14 0l-.54-.13c-.22-.08-.28-.23.08.04l-.28-.14-.45-.3c.46.26.23.19.09.05l-.15-.14-.21-.24c.33.27.2.29.09.1l-.32-.56c-.14-.22.17.5.05.12l-.1-.32a3 3 0 0 0-.13-.57c.02.04.05.51.03.17l-.02-.37v-.25l.01-.23q.03-.33-.03.18c.07-.21.09-.46.15-.67l.08-.22q.11-.3-.08.17l.1-.2.36-.57c-.02.03-.32.37-.1.14l.3-.32.17-.14-.14.1.39-.23c.06-.04.5-.27.17-.1-.31.16.02 0 .09-.02l.4-.1c.27-.05.18.09-.12 0a2 2 0 0 0 .5-.02 2 2 0 0 0 0-4Zm446.59-51.77a6.3 6.3 0 0 0-5.98 4.45 6.34 6.34 0 0 0 9.23 7.5 6.5 6.5 0 0 0 2.89-6.72 6.25 6.25 0 0 0-6.15-5.23 2 2 0 0 0 0 4l.38.01c.43.02-.38-.08-.1-.01l.62.16c.17.05.17.16-.16-.08l.3.16.25.12a3 3 0 0 0 .4.39l.15.16-.18-.23.13.19.28.48c.19.34-.11-.37-.05-.11l.13.37c.05.19.06.4.12.57-.16-.47-.03-.28-.02-.06v.24a4 4 0 0 0-.03.6l.04-.3q-.01.12-.04.23l-.07.33c-.05.18-.14.35-.18.53.12-.5.12-.27.03-.1l-.13.24-.15.22c-.2.32.33-.36.06-.08l-.4.4c-.17.18.43-.3.12-.1l-.26.17-.18.1c-.22.11-.34.04.09-.03-.17.03-.35.13-.52.17l-.28.05q-.23.04.25-.02l-.23.02h-.6l-.3-.02c-.27 0 .53.11.14.01q-.27-.05-.53-.14c-.23-.07-.29-.22.08.05l-.29-.15-.44-.29c.45.26.22.18.08.05l-.15-.15-.2-.23c.33.27.2.28.08.1s-.2-.38-.31-.56c-.14-.22.17.5.05.12l-.1-.32a3 3 0 0 0-.13-.57c.02.03.04.5.02.17l-.02-.37v-.25l.01-.24-.03.19c.08-.22.09-.46.16-.68l.07-.21q.12-.3-.07.16l.1-.2.35-.57c-.01.04-.32.37-.1.15l.31-.32.17-.15-.14.11.38-.24c.07-.03.5-.26.17-.1-.3.17.02 0 .09-.01l.4-.1c.27-.06.19.08-.11 0a2 2 0 0 0 .5-.03 2 2 0 0 0 0-4" class="b"/><path d="M444.31 121.63h22.16a.9.9 0 0 0 .72-1.43l-16.8-22.38-2.31 1.47c-2.7 1.83-6.4 1.5-9.38.17s-5.47-3.52-8.14-5.4-5.72-3.52-8.98-3.47c-1.59.02-3.14.44-4.72.52-6.2.34-11.38-4.34-15.79-8.7l-1.17-1.17-4.81 6.71a115 115 0 0 0 .79 17.24 490 490 0 0 0 2.09 16.44Z" class="c"/><path d="M416.86 91.11c1.58-.08 3.13-.5 4.72-.53 3.26-.04 6.31 1.6 8.98 3.47s5.17 4.08 8.15 5.4 6.67 1.67 9.37-.16l2.32-1.47-2.59-3.45a.9.9 0 0 1 .72-1.44l7.33-.02a.9.9 0 0 0 .72-1.42 6339 6339 0 0 1-18.4-25.53.9.9 0 0 1 .72-1.42l6.28-.02a.9.9 0 0 0 .72-1.42 2574 2574 0 0 0-21.3-28.85c-6.75 9-16.88 22.77-21.3 28.85a.9.9 0 0 0 .73 1.42l6.23.02a.9.9 0 0 1 .72 1.43c-2.12 2.87-6.63 9.1-11.1 15.31l1.2 1.12c4.4 4.37 9.59 9.04 15.78 8.71m-3.44 30.86h-.47v14.63l23-.02-.01-2.04v-12.57a5280 5280 0 0 1-22.52 0" class="a"/><path d="M433.93 123v11.54a2 2 0 0 0 4 0v-11.55a2 2 0 0 0-4 0m-22.98 0v11.54a2 2 0 0 0 4 0v-11.55a2 2 0 1 0-4 0m-11.3-39.18c4.87 4.8 10.8 10.04 18.16 9.2 1.85-.2 3.68-.67 5.54-.27a15 15 0 0 1 4.96 2.2c3.1 1.98 5.82 4.6 9.2 6.15 3.65 1.69 8.04 2.17 11.58-.08 2.17-1.38.16-4.84-2.02-3.45-3.63 2.31-7.88.2-11.02-1.96-3.58-2.48-6.89-5.53-11.23-6.62-2.4-.6-4.6-.25-7.01.04a11.4 11.4 0 0 1-5.69-.74c-3.76-1.5-6.8-4.5-9.63-7.3-1.83-1.8-4.66 1.02-2.83 2.83Z" class="b"/><path d="M413.38 40.13c1.32-1.83 2.5-3.77 3.66-5.5a.1.1 0 0 0 0-.1c-1.15-1.73-2.34-3.66-3.66-5.5a.1.1 0 0 1 .07-.15c1.9 0 4.76-.06 6.82-.06a.1.1 0 0 0 .08-.06q1.64-3.37 3.6-6.57a.1.1 0 0 1 .17 0c.64 1.09 3.02 5.13 3.73 6.57a.1.1 0 0 0 .08.06c2.07 0 5.19.06 7.22.07a.1.1 0 0 1 .08.15c-1.33 1.83-2.52 3.77-3.67 5.5a.1.1 0 0 0 0 .1c1.15 1.73 2.34 3.66 3.65 5.49a.1.1 0 0 1-.07.15c-2.04 0-5.16.07-7.24.07a.1.1 0 0 0-.08.05 162 162 0 0 1-3.7 6.52.1.1 0 0 1-.17 0q-1.93-3.17-3.57-6.52a.1.1 0 0 0-.08-.05c-2.06 0-4.93-.07-6.84-.07a.1.1 0 0 1-.08-.15" class="d"/><path d="M415.1 41.14a85 85 0 0 0 2.14-3.16c.62-.95 1.8-2.21 1.8-3.4 0-1.15-1.09-2.3-1.68-3.22a91 91 0 0 0-2.26-3.34l.27 1v-.1l-1 1.74.09-.06-1.01.28 3.75-.04c1.16-.02 2.76.24 3.84-.2 1.25-.51 1.72-2.27 2.32-3.38a86 86 0 0 1 2.32-4.07l-.72.72.09-.05h-2.02l.08.05-.72-.72q1.79 3.07 3.51 6.15c.94 1.66 2.33 1.46 4.04 1.48l5.21.06-1-.27.08.05-1-1.73v.1l.27-1a85 85 0 0 0-2.14 3.15c-.62.96-1.8 2.22-1.8 3.4 0 1.15 1.08 2.3 1.67 3.21a89 89 0 0 0 2.25 3.34l-.27-1 .01.1 1-1.73-.1.05 1.02-.27q-2.52.01-5.03.05c-1.76.02-3.27-.24-4.24 1.48q-1.72 3.06-3.48 6.1l.72-.72-.09.05h2.02l-.08-.05.72.72a87 87 0 0 1-2.31-4.03c-.59-1.11-1.06-2.85-2.3-3.36-1.1-.44-2.69-.19-3.85-.2q-1.88-.04-3.77-.04l1.01.27-.08-.05.99 1.73v-.1a2 2 0 0 0-2-2 2.05 2.05 0 0 0-2 2v.1a2 2 0 0 0 .99 1.72c1 .63 2.72.34 3.85.36l4.08.04-1-.27.08.05-.72-.72q1.43 2.92 3.1 5.73c.53.9 1.08 1.83 2.28 1.83a2.3 2.3 0 0 0 1.93-1.23 66 66 0 0 0 3.58-6.33l-.71.72.08-.05-1.01.27q2.12 0 4.24-.04c1.2-.02 3.04.3 4.09-.35a2 2 0 0 0 1-1.73c-.14-1.27-1.13-2.3-1.82-3.34l-2.12-3.26.27 1v-.1l-.27 1.02 2.13-3.27c.69-1.05 1.68-2.07 1.81-3.34a2 2 0 0 0-.99-1.73c-1.04-.65-2.88-.34-4.08-.35l-4.23-.05 1 .28-.08-.05.72.71a66 66 0 0 0-3.61-6.38 2.3 2.3 0 0 0-1.93-1.23c-1.2 0-1.75.94-2.3 1.84q-1.67 2.82-3.1 5.77l.7-.71-.08.05 1.01-.27q-2.03 0-4.07.04c-1.14.01-2.84-.28-3.84.35a2 2 0 0 0-.99 1.73c.13 1.26 1.13 2.3 1.81 3.33l2.13 3.28-.27-1.01v.1l.27-1.01c-1.2 1.83-2.37 3.7-3.65 5.49a2 2 0 0 0 .72 2.74 2.04 2.04 0 0 0 2.74-.72m-19.93 22.4c-2.26-3.05-4.4-6.26-6.83-9.18a2.94 2.94 0 0 0-4.73.2q-1.47 1.94-2.9 3.9-5.6 7.52-11.14 15.1c-1.01 1.4-1.73 3.05-.33 4.52a3.6 3.6 0 0 0 2.79.88h2.58q1.11.09-.7-1.42c-1.25 2.26 2.2 4.28 3.45 2.02a3.05 3.05 0 0 0-1.04-4.2 4.6 4.6 0 0 0-2.31-.4 8 8 0 0 0-2.34 0q.2 2.37.79 1.4l.14-.19.43-.59 1.03-1.42 2.32-3.15q2.67-3.65 5.36-7.28l2.64-3.55 1.27-1.7.71-.97.3-.4q.44-.55-.08.03h-1.06q-.5-.55-.04.03l.45.6.7.93 1.59 2.13 3.5 4.73a2.06 2.06 0 0 0 2.73.71 2 2 0 0 0 .72-2.73m1.64 25.42q6.02-8.42 12.1-16.79l2.35-3.22a9 9 0 0 0 1.8-2.85c.5-2.05-1.17-3.47-3.05-3.56-1-.05-2.03 0-3.04 0h-2.16q-.98-.14.24.58v1.06c.05-.35.53-.83.76-1.14l1.09-1.5 2.54-3.47 6.06-8.25a2 2 0 0 0-.71-2.74 2.05 2.05 0 0 0-2.74.72q-4.62 6.27-9.22 12.56a10 10 0 0 0-1.5 2.25 2.9 2.9 0 0 0 .94 3.31c1.03.79 2.37.61 3.6.62h3.66q.72.09-.3-.58V64.9c-.08.49-.8 1.19-1.11 1.6l-1.6 2.2-4.09 5.63q-4.55 6.3-9.07 12.62a2 2 0 0 0 .72 2.74 2.05 2.05 0 0 0 2.73-.72Zm36.88-39.15 5.8 7.9 2.55 3.48 1.16 1.6c.25.34.88.98.94 1.38v-1.06c.07-.42.92-.33.44-.58-.2-.1-.6 0-.83 0h-1.32c-1.16 0-2.37-.08-3.53 0a2.93 2.93 0 0 0-2.69 3.93 11 11 0 0 0 1.64 2.47l2.09 2.9 10.32 14.34 2.6 3.59 1.14 1.57c.25.34.77.85.83 1.23V91.5c.06-.38.96-.34.5-.58a2 2 0 0 0-.56 0h-4.35c-1.84.01-4.06-.08-4.68 2.1-.6 2.13 1.84 4.37 3.01 5.92l10.9 14.52 3.1 4.15 1.4 1.86c.34.44 1.2 1.27 1.3 1.8v-1.07c.13-.82 1.62-.52.55-.57q-.7-.02-1.4 0h-66.63c-2.58 0-2.58 4 0 4h65.66a17 17 0 0 0 3.37-.07 2.9 2.9 0 0 0 2.06-4.11 24 24 0 0 0-2.34-3.19l-5.63-7.49-10.11-13.48c-.38-.5-1.33-1.39-1.43-2v1.07c-.1.6-1.11.35-.07.57a4 4 0 0 0 .7 0h1.63l2.96-.01a4.7 4.7 0 0 0 2.64-.46 3 3 0 0 0 1.34-2.43c0-1.32-1.04-2.38-1.77-3.38l-2.2-3.04q-5.33-7.36-10.63-14.74l-2.44-3.4c-.47-.65-1.68-1.82-1.78-2.58v1.06l-.55.59h.48a5 5 0 0 0 1.18 0h1.84c1.13 0 2.55.2 3.6-.33a2.9 2.9 0 0 0 1.56-2.83c-.08-1.14-.96-2.04-1.6-2.92q-4.63-6.35-9.29-12.66a2.06 2.06 0 0 0-2.74-.72 2 2 0 0 0-.71 2.73Z" class="b"/><path d="m357.4 90.1-.14-.46a1.34 1.34 0 0 1 1.74-1.6 11 11 0 0 0 3.86.83c1.16-.03 2.78-.9 4.06-.74 1.26.15 2.28.3 3.5.53a1.37 1.37 0 0 1 1.04 2c-.56 1.24-1.14 3.14-2.03 3.95l1.83 5.94c4.38 3.1 5.68 6.68 5.88 10.12a80 80 0 0 1-19.48-6.37l-.13-.07a12 12 0 0 1 2.23-4.83l1.13-3.64c-1.79-1.18-2.86-3.57-3.5-5.66" class="a"/><path d="M347.03 125.44q-.62 3.76-1.08 7.54a2 2 0 0 0 .59 1.42 2 2 0 0 0 2.83 0 2.3 2.3 0 0 0 .58-1.42l.26-2.07-.07.54q.34-2.48.75-4.95a2.2 2.2 0 0 0-.2-1.54 2 2 0 0 0-3.66.48m34.15 7.01q-.48-3.08-1.09-6.14a2 2 0 0 0-2.46-1.4 2.05 2.05 0 0 0-1.4 2.46q.61 3.06 1.09 6.14a2 2 0 0 0 .92 1.2 2 2 0 0 0 1.54.2 2 2 0 0 0 1.2-.92 2.3 2.3 0 0 0 .2-1.54" class="b"/><path d="M388.6 128.29c-1.74 3.13-5.54 2.7-8.64 2.7H338.2c-2.57 0-2.58 4 0 4h41.93c4.59 0 9.41-.17 11.93-4.68 1.26-2.25-2.2-4.27-3.45-2.02Z" class="b"/><path d="M340.16 117.7a15 15 0 0 1-.44-2.66 27 27 0 0 1 2.11-11.84 7 7 0 0 1 1.65-2.37c2.59-2.35 5.27-1.04 7.56.27 9.72 5.56 18.6 13.7 30.8 13.31a3.7 3.7 0 0 1 3.71 3.37 6.7 6.7 0 0 1-.83 4.14c-2.66 4.92-8.64 5.72-13.66 5.98a81 81 0 0 1-19.66-1.38c-2.84-.55-5.76-1.31-7.94-3.21a11 11 0 0 1-3.3-5.6" class="c"/><path d="M342.08 117.17a21 21 0 0 1 .96-11.55c.51-1.52 1.2-3.48 2.92-3.99 1.45-.43 3.03.6 4.24 1.3 6.17 3.54 11.84 7.98 18.43 10.78a33 33 0 0 0 10.55 2.65c1.15.08 3.15-.4 3.95.62a3.7 3.7 0 0 1 .06 3.56c-1.23 2.84-4.2 4.15-7.04 4.77a47 47 0 0 1-10.63.7 75 75 0 0 1-14.6-1.62 14 14 0 0 1-5.81-2.3 9 9 0 0 1-3.03-4.92c-.68-2.48-4.54-1.43-3.85 1.06a13.1 13.1 0 0 0 8.8 9.25c4.7 1.6 9.97 2.08 14.88 2.38a66 66 0 0 0 13.64-.4c3.63-.55 7.37-1.88 9.73-4.83 2.4-2.98 3.58-8.02.3-10.87-1.73-1.5-3.68-1.27-5.8-1.37a25 25 0 0 1-6-1.05c-8.02-2.36-14.57-7.9-21.73-11.97-2.03-1.16-4.24-2.15-6.62-1.72a7.8 7.8 0 0 0-5.48 4.9 25.5 25.5 0 0 0-1.72 15.68c.6 2.5 4.47 1.45 3.85-1.06" class="b"/><path d="M344.75 97.86a2.9 2.9 0 0 0-2.92 1.17 2.8 2.8 0 0 0-.32 2.65 5 5 0 0 0 1.66 2.22c8.39 6.67 27.64 14.38 39.86 12.96a4.7 4.7 0 0 0 2.6-1.1 2.8 2.8 0 0 0 .76-2.35 2.4 2.4 0 0 0-2.04-1.77c-6.26-.31-18.39-3.12-26.69-7.35-8.84-4.49-11-6.29-12.91-6.43" class="a"/><path d="M361.9 94.03q-.28-.2-.07-.04l-.3-.27a6 6 0 0 1-.55-.6 10 10 0 0 1-.62-1 12 12 0 0 1-1.06-2.63l-.1-.38a1 1 0 0 1 0 .32.7.7 0 0 1-.26.4c-.26.2-.66 0-.22.22a6 6 0 0 0 1.02.33 9 9 0 0 0 4.11.37 16 16 0 0 0 1.53-.39l1.06-.26q-.27.04.09.01c1.15.06 2.17.35 3.37.47.37.04-.06-.03-.19-.26a.8.8 0 0 1-.05-.56q-.1.34 0 .05l-.27.65-.3.74a11 11 0 0 1-.46 1.05l-.38.68q-.21.3 0 .03l-.23.23a2 2 0 0 0 2.83 2.83 9 9 0 0 0 1.77-2.94l.34-.82.15-.38.02-.05a4.4 4.4 0 0 0 .49-1.97 3.4 3.4 0 0 0-2.65-3.13 26 26 0 0 0-4.04-.6 11 11 0 0 0-3.55.64c-.11.03-.7.11-.33.09a5 5 0 0 1-.96-.02 10 10 0 0 1-1.8-.47c-1.42-.47-2.87-.63-4.05.53a3.6 3.6 0 0 0-.73 3.85 12 12 0 0 0 4.38 6.73 2 2 0 1 0 2.02-3.45Z" class="b"/><path d="M372.24 99.25a1 1 0 0 0 .26-.2 1 1 0 0 0 .14-.62 13 13 0 0 0-.15-2.1c-.1-.58-.33-1.27-.91-1.4a2 2 0 0 0-.78.1 24.5 24.5 0 0 1-11.37.52 1.63 1.63 0 0 0-1.94 1.59q0 .62.04 1.16a1.9 1.9 0 0 0 1.67 1.74c3 .32 9.48.72 12.87-.7z" class="b"/><path d="m370.25 102.28.38.28c.19.13-.17-.15.11.08q.35.27.68.57a15 15 0 0 1 1.17 1.16c.1.12.47.42.5.6-.04-.19-.17-.23 0 0l.22.3a12 12 0 0 1 .73 1.22l.3.61c.13.27.01-.07-.04-.1l.14.36a12 12 0 0 1 .37 1.17q.15.61.25 1.24c.06.33-.02.06 0-.1l.03.3.05.68a2 2 0 1 0 4 0 15 15 0 0 0-1.64-6.18 16.6 16.6 0 0 0-5.23-5.64 2 2 0 0 0-2.73.71 2.06 2.06 0 0 0 .71 2.74" class="b"/><path d="M344.75 95.86a5 5 0 0 0-4.84 2.45c-1.18 2.07-.44 4.62 1.07 6.3a21 21 0 0 0 4.13 3.12q2.22 1.43 4.57 2.66a77 77 0 0 0 23.05 7.98c3.61.6 7.55 1.07 11.19.37a5.3 5.3 0 0 0 4.4-3.91 4.3 4.3 0 0 0-2.77-4.93c-1.43-.52-3.2-.4-4.7-.61a75 75 0 0 1-5.6-1.07 84 84 0 0 1-12.27-3.72 106 106 0 0 1-12.23-6.16c-1.88-1.04-3.82-2.3-6-2.48-2.57-.21-2.56 3.79 0 4 .32.03-.5-.13-.1-.01l.35.09.38.12c.37.11.18.07.12.04q1.11.52 2.19 1.12c2.83 1.55 5.65 3.11 8.52 4.58a78 78 0 0 0 20.79 6.87q2.33.44 4.68.73c.52.06 2.67 0 2.77.5.32 1.59-6.54 1.08-7.42 1a64 64 0 0 1-19.73-5.3 69 69 0 0 1-9.53-4.91 23 23 0 0 1-3.59-2.55c-.46-.42-1.07-1.17-.8-1.84.21-.53.74-.46 1.37-.43 2.57.1 2.57-3.9 0-4" class="b"/><path d="M259.97 116.25a16 16 0 0 1 1.22-4.74c1.74-3.88 5.17-9.02 10.72-10.12-4.38-3.76-5.84-10.79-3.62-16.19 2.36-5.74 8.87-8.6 14.82-8.6 6.53 0 12.48 2.86 14.84 8.6 2.21 5.4.77 12.39-3.6 16.16l.88.26c4.98 1.49 8.11 6.24 9.74 9.9 2.8 6.28 1 15.97-3.63 20.43a18 18 0 0 1-3.34 2.55 9 9 0 0 1-4.73 1.23H272.9a10 10 0 0 1-4.73-1.23 18 18 0 0 1-3.35-2.54c-3.58-3.45-5.46-10-4.85-15.71" class="a"/><path d="m302.8 112.7 8.57-7.09a2 2 0 0 0 0-2.83 2.06 2.06 0 0 0-2.83 0l-8.57 7.1a2 2 0 0 0 0 2.83 2.06 2.06 0 0 0 2.83 0" class="b"/><path d="M321.6 99.69a5.3 5.3 0 0 0-2.44-4.57 4.3 4.3 0 0 0-5.36.8 2 2 0 0 0-2.26-1.56 3.2 3.2 0 0 0-2.3 1.82 6.6 6.6 0 0 0-.56 3.53 2.7 2.7 0 0 0-.96 1.52c0 .61 1.42 2.11 2 2.74.94 1 1.97 2.04 2.63 2a7 7 0 0 0 1.51-.44l2.84-1.06a12 12 0 0 0 3.54-1.8 3.3 3.3 0 0 0 1.33-2.52q.03-.22.03-.46m-77.1 1.94a5.3 5.3 0 0 1 2.44-4.56 4.3 4.3 0 0 1 5.36.79 2 2 0 0 1 2.26-1.55 3.2 3.2 0 0 1 2.3 1.82 6.6 6.6 0 0 1 .56 3.53 2.7 2.7 0 0 1 .96 1.52c0 .61-1.42 2.1-2 2.73-.94 1.01-1.97 2.05-2.63 2.01a7 7 0 0 1-1.51-.44l-2.84-1.07a12 12 0 0 1-3.54-1.8 3.3 3.3 0 0 1-1.33-2.52q-.03-.22-.03-.46" class="e"/><path d="M323.6 99.69a7.2 7.2 0 0 0-3.94-6.55 6.3 6.3 0 0 0-7.27 1.36l3.34.88c-.53-2.78-4-3.76-6.23-2.36s-3.04 4.18-2.82 6.7l.59-1.42c-.96.93-1.83 2.24-1.44 3.64a7 7 0 0 0 1.55 2.41c1.24 1.45 2.95 3.68 5.04 3.62a11 11 0 0 0 3.27-1c1.19-.44 2.4-.87 3.55-1.39a9 9 0 0 0 2.89-1.93 5.8 5.8 0 0 0 1.47-3.96 2 2 0 0 0-4 0 2 2 0 0 1-.07.64c0 .04-.21.5-.09.33a3 3 0 0 1-1.17.94 20 20 0 0 1-3.13 1.33l-1.94.73-.7.24-.37.1a1 1 0 0 1 .5.01q.36.17.03 0-.27-.2-.1-.06a8 8 0 0 1-.7-.65 35 35 0 0 1-1.88-2.05q-.22-.27-.01 0l-.19-.27c-.11-.18-.26-.67-.1-.1a1.2 1.2 0 0 1-.07.84q.2-.29.04-.12c.22-.33.55-.53.76-.88a5 5 0 0 0 .25-2.27q.02-.2-.01-.04a7 7 0 0 1 .2-.88q.13-.35.03-.14a3 3 0 0 1 .4-.72c-.24.3.5-.38.16-.14l.34-.2q-.25.12.1 0-.32.03.02.02-.35-.06 0 .02-.3-.14.01.02-.24-.22.02.02-.19-.28-.01.01-.14-.31-.05.03a2 2 0 0 0 3.35.88l.4-.4c-.28.24.14-.07.2-.12.36-.26-.23.03.2-.1l.55-.15c.5-.11-.3-.03.22-.01l.57.01c-.4-.03.17.05.22.06.03.01.57.22.23.06a2.6 2.6 0 0 1 1.33 1.23 4 4 0 0 1 .46 1.79 2 2 0 1 0 4 0Zm-57.47 12.13-8.57-7.1a2.05 2.05 0 0 0-2.83 0 2 2 0 0 0 0 2.84l8.57 7.1a2.05 2.05 0 0 0 2.83 0 2.03 2.03 0 0 0 0-2.83Z" class="b"/><path d="M246.5 101.63a3.4 3.4 0 0 1 .46-1.79 2.6 2.6 0 0 1 1.33-1.22c-.31.14.15-.04.23-.06s.62-.1.22-.06l.57-.02c.4-.02-.2-.09.22.02l.55.14c.33.1-.06-.04.12.06.06.04.48.32.34.2q-.15-.12.09.1l.25.27a2 2 0 0 0 3.35-.88q.09-.34-.05-.03.18-.29 0-.01.25-.24 0-.02.32-.16.02-.02.35-.08 0-.02.34 0 .03-.02.34.12.09 0l.34.2c-.33-.24.4.45.15.14a3 3 0 0 1 .41.72q-.1-.22.03.14l.12.43c0-.02.09.66.06.38.08.8-.17 1.65.26 2.38.2.35.54.55.76.88q-.15-.16.04.12a1.2 1.2 0 0 1-.07-.84c.16-.57.01-.08-.1.1l-.19.26q.2-.26-.01.01a35 35 0 0 1-1.88 2.05 7 7 0 0 1-.7.65q.18-.14-.1.05-.32.18.04.01a1 1 0 0 1 .5-.01l-.37-.1q-.36-.11-.7-.24l-1.82-.69a21 21 0 0 1-3.26-1.37 3 3 0 0 1-1.17-.94c.12.17-.08-.29-.1-.33a2 2 0 0 1-.06-.64 2 2 0 1 0-4 0 5.8 5.8 0 0 0 1.47 3.96 9 9 0 0 0 2.89 1.93c1.16.52 2.36.95 3.55 1.4a11 11 0 0 0 3.27.99c2.1.06 3.8-2.17 5.04-3.62a7 7 0 0 0 1.55-2.4c.42-1.39-.5-2.74-1.43-3.65l.58 1.41c.22-2.5-.6-5.29-2.82-6.69s-5.7-.42-6.23 2.36l3.34-.88a6.3 6.3 0 0 0-7.27-1.36 7.2 7.2 0 0 0-3.94 6.55 2 2 0 0 0 4 0M289 87.74a2.2 2.2 0 0 0-2.2 2.25 2.15 2.15 0 0 0 2.2 2.28 2.12 2.12 0 0 0 2.18-2.28 2.2 2.2 0 0 0-2.19-2.25m-11.42 0a2.2 2.2 0 0 0-2.19 2.25 2.15 2.15 0 0 0 2.19 2.28 2.12 2.12 0 0 0 2.19-2.28 2.2 2.2 0 0 0-2.2-2.25" class="b"/><path d="M273.28 99.94a12.7 12.7 0 0 1-3.9-11.17 11.4 11.4 0 0 1 7.14-8.85c7.09-3 17.7-.99 20 7.3a12.7 12.7 0 0 1-3.57 12.72c-1.92 1.72.91 4.54 2.83 2.83a16.6 16.6 0 0 0 5-14.71 15.2 15.2 0 0 0-8.9-11.63c-9.32-4.17-23.2-1.03-26.08 9.9a16.7 16.7 0 0 0 4.66 16.44c1.91 1.7 4.75-1.11 2.82-2.83" class="b"/><path d="M270.4 99.7c-7.97 2.52-12.83 11.54-12.52 19.56.32 8.44 5.52 18.32 15.06 18.47 6.1.09 12.22 0 18.33 0a18 18 0 0 0 5.4-.48 16 16 0 0 0 6.3-4.09 20 20 0 0 0 5-10.73 21 21 0 0 0-1.92-13.27c-2.2-4.25-5.62-7.98-10.28-9.46-2.46-.78-3.51 3.08-1.06 3.86 6.5 2.06 9.96 9.87 9.56 16.23a18 18 0 0 1-3.17 9.41 13 13 0 0 1-4.11 3.57 9.3 9.3 0 0 1-4.89.95h-17.43a23 23 0 0 1-2.7-.05 10 10 0 0 1-5.42-2.83 15.5 15.5 0 0 1-4.34-8.61 17 17 0 0 1 1.21-10.78c1.72-3.4 4.27-6.7 8.04-7.9 2.44-.78 1.4-4.64-1.07-3.86Z" class="b"/><path d="M299 113.8a50 50 0 0 0-5.05-8.46 15 15 0 0 0 2.55-2.24 4 4 0 0 0 1.05-3.09c-.1-1.3-1.37-1.93-2.76-1.57a61 61 0 0 1-25.22 1.14c-1.77.57-2.38 3.09-.85 4.17a27 27 0 0 0 5.46 2.67 29 29 0 0 0 14.63 1.12v.09c.22 2.64.34 4.79.32 7.7a.6.6 0 0 0 .14.44.7.7 0 0 0 .54.13 57 57 0 0 0 8.69-1.11c.28-.06.6-.16.67-.44a1 1 0 0 0-.16-.55" class="e"/><path d="M286.81 107.5q.26 3.08.31 6.18v1.6a2.5 2.5 0 0 0 1.8 2.4 6 6 0 0 0 1.82.04q.88-.06 1.77-.15 1.92-.2 3.85-.5a14 14 0 0 0 3.27-.7 2.4 2.4 0 0 0 1.5-1.89 4 4 0 0 0-.57-2.17q-.66-1.39-1.4-2.73a64 64 0 0 0-3.63-5.57 2.04 2.04 0 0 0-2.74-.72 2 2 0 0 0-.71 2.74q1.52 2.1 2.9 4.33.64 1.06 1.22 2.15l.58 1.14.33.68.17.36q.3.66-.09-.9l.52-.88c-.3.38.86-.3.37-.2l-.53.1-1.23.23-1.14.2-.62.09-.3.04q.22-.03 0 0-1.19.15-2.38.26l-1.25.1-.52.02-.31.02q-.54 0 .47.15l.72.71q.14.92.13.47v-.72l-.01-1.1-.06-1.94a110 110 0 0 0-.25-3.84 2 2 0 1 0-4 0Z" class="b"/><path d="M269.04 101.38a67 67 0 0 0 13.78.79q3.3-.18 6.57-.7 1.61-.25 3.2-.58a23 23 0 0 1 2.93-.68c.2-.02.14.06.05-.1.1.18-.03.58-.1.79a5.4 5.4 0 0 1-1.72 1.97 12 12 0 0 1-5.15 2.55 25.8 25.8 0 0 1-16.42-2.14c-.23-.1-3.32-1.42-2.08-1.9a2.06 2.06 0 0 0 1.4-2.46 2 2 0 0 0-2.46-1.4 4.65 4.65 0 0 0-3.09 5.28c.53 2.48 3.33 3.58 5.42 4.48a31 31 0 0 0 13.95 2.57 20 20 0 0 0 7.74-1.77 14 14 0 0 0 5.65-4.74c1.26-2.07 1.3-5.27-1.04-6.6a4.8 4.8 0 0 0-3.4-.35c-1.53.32-3.02.72-4.56 1a60 60 0 0 1-19.6.13 2.06 2.06 0 0 0-2.46 1.4 2 2 0 0 0 1.39 2.46" class="b"/><path d="M298.75 67.4a20 20 0 0 0-2.99-3.45 11.6 11.6 0 0 0-8.56-2.76 15.4 15.4 0 0 0-8.3 3.77 46 46 0 0 0-6.23 6.8l.65.14a22 22 0 0 1 2.87-1.1 25 25 0 0 1 10.41-.26c3.7 1.06 7.13 2.63 9.2 4.56q1.4 1.28 2.28 2.26l1.2.26a4.1 4.1 0 0 1 5.05-.91 66 66 0 0 0-5.58-9.3" class="e"/><path d="M274.08 73.17c3.78-4.7 8.91-11.17 15.79-9.88 3.16.59 5.33 2.6 7.16 5.13a67 67 0 0 1 5.58 9.3l2.73-2.74a6.2 6.2 0 0 0-7.48 1.23c-1.72 1.9 1.1 4.74 2.83 2.83a2.15 2.15 0 0 1 2.64-.6 2.02 2.02 0 0 0 2.73-2.74 64 64 0 0 0-6.32-10.3 14.6 14.6 0 0 0-9.2-6.04c-8.41-1.4-14.51 5.04-19.28 10.99a2.06 2.06 0 0 0 0 2.83 2 2 0 0 0 2.83 0Z" class="b"/><path d="M295.8 75.1c-2.07-1.93-5.5-3.5-9.2-4.56a25 25 0 0 0-10.4.26 19 19 0 0 0-6.86 3.64c-1.7 1.6-2.8 3.15-2.9 5.48a4 4 0 0 0 1.13 2.99 2.5 2.5 0 0 0 2.78.16c6.07-3.9 12.67-4.7 18.83-1.44 2.39 1.26 4.56 3.1 7.23 3.53a3 3 0 0 0 2.15-.32 2.7 2.7 0 0 0 .88-1.24 6 6 0 0 0-.12-4.33c-.4-1.19-1.64-2.44-3.51-4.17" class="a"/><path d="M297.22 73.68a23.2 23.2 0 0 0-15.91-5.57c-5.76.16-12.36 2.37-15.58 7.5-1.57 2.51-1.99 6.53.42 8.7 2.97 2.7 6.2-.42 9.07-1.53a15.6 15.6 0 0 1 9.45-.77c3.15.8 5.55 2.84 8.44 4.16a8 8 0 0 0 5.32.9 4.9 4.9 0 0 0 3.26-4.24c.62-3.97-1.8-6.65-4.47-9.15-1.88-1.75-4.71 1.07-2.83 2.83 1.62 1.51 3.53 2.98 3.4 5.36-.02.33-.09 1.12-.4 1.32-.27.18-.95-.05-1.24-.13a14 14 0 0 1-3.5-1.7 25 25 0 0 0-7.12-3.25 19 19 0 0 0-7.75-.2 23 23 0 0 0-7.66 2.95c-.89.53-1.44.9-1.65-.39a4.3 4.3 0 0 1 .72-2.85c2.31-3.7 7.45-5.3 11.57-5.49 4.79-.2 9.99 1.1 13.63 4.38 1.91 1.72 4.75-1.1 2.83-2.83" class="b"/><path d="M305.32 73.79a3.7 3.7 0 0 0-3.72 3.8 3.64 3.64 0 0 0 3.71 3.88 3.6 3.6 0 0 0 3.72-3.88 3.7 3.7 0 0 0-3.71-3.8" class="a"/><path d="M305.32 71.79a5.75 5.75 0 0 0-5.46 4.07 5.79 5.79 0 0 0 8.43 6.84 6 6 0 0 0 2.63-6.16 5.7 5.7 0 0 0-5.6-4.75 2 2 0 0 0 0 4h.32c.4.02-.42-.07-.16-.01l.55.14c.15.04.24.17-.2-.1q.13.08.27.14l.17.1.16.1-.17-.13.35.34.13.14c-.37-.32-.2-.27-.09-.1q.14.22.25.43c.17.32-.13-.4-.07-.16l.11.33q.07.25.1.5c-.14-.57-.03-.32-.02-.12v.2c0 .18-.04.36-.03.54-.02-.54.05-.34.01-.13l-.06.29-.16.45c.19-.63.05-.12-.06.07l-.13.19c-.2.3.34-.38.1-.12q-.19.16-.36.34c-.16.18.45-.3.16-.12l-.23.15-.16.09c-.19.1-.38.07.14-.05l-.46.14-.24.05q-.24.05.29-.04l-.2.02h-.52l-.26-.01c-.26 0 .55.1.19.02q-.24-.05-.47-.13c-.2-.06-.33-.21.13.07l-.25-.13-.38-.25c.54.34.14.1-.01-.05l-.18-.2c.37.35.21.3.12.14l-.28-.5c-.13-.2.18.52.07.17l-.1-.28a2 2 0 0 1-.1-.5s.04.55.03.22l-.02-.33v-.21c0-.2.14-.6-.03.02l.14-.59.06-.19c.1-.32-.24.49 0 .03a2 2 0 0 1 .31-.5s-.35.4-.13.18l.27-.28.15-.13-.01.03.17-.1c.06-.03.48-.23.12-.07-.34.14-.02.01.05 0l.34-.1c.2-.04.32.04-.16.02l.44-.02a2 2 0 0 0 0-4" class="b"/><path d="m124.63 136.13.21.39h17.67v-9.38l-6.3-.05c-5.2.02-7.05.42-9.33 1.52-3.1 1.48-3.41 5.37-2.28 7.46Zm51.4-88.78a1458 1458 0 0 0-49.95 43.53 3 3 0 0 0-.23 4.18c2.2 2.54 4.9 5.58 7.12 8a3 3 0 0 0 4.23.18Q156.27 85.7 176 68.88a3 3 0 0 1 3.9 0q19.72 16.82 38.79 34.36a3 3 0 0 0 4.23-.18c2.22-2.42 4.92-5.46 7.12-8a3 3 0 0 0-.22-4.17 1454 1454 0 0 0-49.95-43.54 3 3 0 0 0-3.84 0" class="a"/><path d="M207.62 93.17Q192.97 80 177.94 67.22q-17.98 15.28-35.43 31.16v38.13l70.53-.06V98.1q-2.7-2.47-5.42-4.92" class="e"/><path d="M162.93 95.34v29.89h29.9v-29.9zm34.45-44.1v7.1h15.66v-7.1a1 1 0 0 0-1-1h-13.66a1 1 0 0 0-1 1" class="a"/><path d="M213.04 74.23v-15.9h-15.66v3.86q7.88 6.76 15.66 13.62z" class="e"/><path d="M213.04 122.93v13.52l17.12-.01c.11-1.01.21-1.93.2-1.74.28-3.04.26-6.68-2.44-8.37a17 17 0 0 1-2.26-1.29c-1.24-1.08-1.27-2.87-1.85-4.36a6.9 6.9 0 0 0-8.27-3.66l-2.5.74Z" class="a"/><path d="M211.04 98.09v36.52c0 2.57 4 2.58 4 0V98.1c0-2.58-4-2.58-4 0m-70.53.81v35.66c0 2.57 4 2.58 4 0V98.9c0-2.57-4-2.58-4 0m70.53-40.57v15.9c0 2.58 4 2.58 4 0v-15.9c0-2.57-4-2.58-4 0" class="b"/><path d="M216.07 118.95a5.1 5.1 0 0 1 4.65.87 3.7 3.7 0 0 1 1.33 1.87 20 20 0 0 0 1.13 3.38 6 6 0 0 0 2.83 2.5 3.5 3.5 0 0 1 1.88 1.6 6 6 0 0 1 .56 2.39 22 22 0 0 1-.09 3.14h4l.07-1.22a2 2 0 1 0-4 0l-.07 1.22a2 2 0 0 0 2 2 2.04 2.04 0 0 0 2-2 13.7 13.7 0 0 0-.91-7.34 7 7 0 0 0-2.77-2.9 13 13 0 0 1-1.6-.83 2 2 0 0 1-.62-1.03 21 21 0 0 0-1.21-3.55 8 8 0 0 0-2.76-2.86 9.1 9.1 0 0 0-7.48-1.1c-2.45.74-1.4 4.6 1.07 3.86Zm-12.4-84.89c-1.2-.56-1.4-2.48-1.17-3.66a3.9 3.9 0 0 1 2.95-2.73 2.03 2.03 0 0 0 .88-3.34 2.6 2.6 0 0 1-.18-2.7 3.1 3.1 0 0 1 2.68-1.34c1.58-.09 2.83-2.21 1.42-3.41-.02-.02.13.26.13.22-.02-.27-.15-.55-.19-.82a14 14 0 0 1 0-2 7.3 7.3 0 0 1 1.86-4.5 8 8 0 0 1 4.94-2.28 8 8 0 0 1 2.38.15 6 6 0 0 1 1.58.61 2.07 2.07 0 0 0 2.83 0 2 2 0 0 0 0-2.83c-4.27-3.34-10.88-2.17-14.55 1.52a11.6 11.6 0 0 0-3.03 7.33c-.14 1.62-.16 4.26 1.22 5.43l1.41-3.42c-2.54.15-5.1 1.21-6.3 3.62a6.8 6.8 0 0 0 .97 7.25l.88-3.34a7.8 7.8 0 0 0-5.82 5.96c-.44 2.7.35 6.45 3.09 7.74a2.06 2.06 0 0 0 2.73-.72 2 2 0 0 0-.71-2.74M230.5 9.9q.17.07.35.12c-.52-.16-.14-.06 0 0l.7.4c.2.13.3.23.05.03l.34.3q.16.14.32.32c.16.18.28.37.09.1a7 7 0 0 1 .53.87c.04.08.22.52.1.2l.2.56a8 8 0 0 1 .34 2.61 8 8 0 0 1-1.28 4.51l-.16.23.03-.05a8 8 0 0 1-.71.75l-.24.2c.21-.16-.2.13-.24.16l-.4.23c-.05.03-.5.24-.2.12s-.22.07-.27.08a2.04 2.04 0 0 0-1.4 2.46 2 2 0 0 0 2.46 1.4c4.28-1.37 6.39-5.83 6.4-10.09.02-4.13-1.86-8.02-5.95-9.37a2 2 0 0 0-1.06 3.86m-10.16 15.37.05.26c-.02 0-.02-.47-.02-.12v.46c.01-.28 0 .04-.02.1l-.08.3-.1.31c-.07.26.15-.25 0 0l-.4.7c-.07.09-.18.2-.04.05l-.27.3-.57.55c.1-.1.24-.16.04-.04l-.33.21-.57.3c-.26.12.3-.1.03-.02l-.31.1a10 10 0 0 1-1.33.33c-.25.05-.07 0 .07 0l-.3.02-.55.02c-.11 0-.7-.05-.35 0s-.15-.04-.24-.07c-1.36-.43-3.03 1.03-2.46 2.46l.1.32.04.18q.04.23-.02-.2c.1.09.03.63.02.75q0 .24-.03.47c.03-.49 0-.01-.03.1l-.1.37c-.03.1-.24.46-.07.24l-.13.16a5 5 0 0 1-.45.47c.21-.2-.1.07-.16.11l-.4.22c.42-.2-.1 0-.16.02l-.55.1a2 2 0 0 0-1.4 2.46 2.06 2.06 0 0 0 2.46 1.4 6 6 0 0 0 4.31-3.09 6.8 6.8 0 0 0 .42-5.15l-2.46 2.46a8 8 0 0 0 3.5.04 9 9 0 0 0 3.4-1.28 7.2 7.2 0 0 0 3.3-7.44 2 2 0 0 0-2.46-1.4 2.04 2.04 0 0 0-1.4 2.46Zm-24.96 25.96v7.1a2.03 2.03 0 0 0 2 2h15.66a2.03 2.03 0 0 0 2-2v-5.12c0-.65.03-1.3 0-1.96a3.07 3.07 0 0 0-3.08-3.02c-3.68-.12-7.37 0-11.05 0h-2.25a3.1 3.1 0 0 0-3.28 3 2 2 0 0 0 2 2 2.04 2.04 0 0 0 2-2c-.04.43-.46 1.15-.98 1h13.21a2 2 0 0 0 .4 0c.26-.06.73 1.56-.67-.29-.06-.07-.2-.84-.3-.64a2 2 0 0 0 0 .7v6.33l2-2h-15.66l2 2v-7.1c0-2.57-4-2.58-4 0" class="b"/><path d="M174.6 45.93a1494 1494 0 0 0-45.26 39.27c-2.83 2.57-8.38 6.13-5.43 10.6a48 48 0 0 0 4.38 5.05c1.35 1.52 2.78 3.71 4.63 4.63a5.1 5.1 0 0 0 5.7-.83c1.98-1.68 3.85-3.53 5.77-5.28q5.6-5.1 11.27-10.13 5.75-5.12 11.56-10.17 2.86-2.49 5.73-4.96l2.78-2.39c.59-.5 1.5-1.7 2.38-1.55.85.14 1.79 1.33 2.42 1.87l2.97 2.55q2.87 2.47 5.73 4.96 5.8 5.05 11.55 10.18t11.44 10.3c1.82 1.65 3.56 3.53 5.52 5a5 5 0 0 0 5.67.2 13 13 0 0 0 2.3-2.28l2.33-2.6c1.36-1.53 3.25-3.15 4.18-5a5.1 5.1 0 0 0-.76-5.64 67 67 0 0 0-5.44-4.99Q214.84 74.6 203.4 64.73q-5.63-4.86-11.3-9.68l-5.8-4.9c-1.83-1.53-3.6-3.29-5.58-4.63a5 5 0 0 0-5.71.1 2.06 2.06 0 0 0-.72 2.74 2 2 0 0 0 2.74.72c.55-.41.92-.57 1.53-.22a21 21 0 0 1 2.57 2.16l5.23 4.4q5.4 4.56 10.74 9.16 10.58 9.09 20.98 18.37c3.38 3.04 6.9 6 10.14 9.2 1.28 1.26-.36 2.37-1.27 3.4q-2.16 2.46-4.36 4.9c-.44.48-.97 1.39-1.64 1.55-.75.2-1.28-.56-1.76-1q-2.61-2.4-5.23-4.78-5.25-4.76-10.54-9.48-10.68-9.5-21.56-18.79c-1.57-1.34-3.38-2.24-5.48-1.53-2.04.69-3.74 2.7-5.34 4.07q-5.38 4.62-10.7 9.3-10.75 9.41-21.3 19.06l-2.53 2.31c-.46.43-.94 1.06-1.65.82-.67-.23-1.25-1.19-1.71-1.7q-1.1-1.2-2.18-2.43l-2.05-2.3c-.52-.6-1.5-1.38-1.75-2.13-.2-.58.11-.9.5-1.28.8-.83 1.72-1.59 2.58-2.37a1421 1421 0 0 1 41.98-36.64l5.2-4.37c1.98-1.65-.86-4.47-2.82-2.83m-48.27 89.14-.1-.2.07.16a2 2 0 0 0-.15-.45l-.12-.48c-.1-.56 0 .28 0-.09s-.02-.7 0-1.04-.1.44.01-.13q.05-.27.13-.52c.03-.1.08-.45.17-.51q-.18.4-.04.1l.13-.25.33-.5.4-.4q.25-.2-.06.04l.24-.17a7 7 0 0 1 .94-.48l.2-.09-.2.08c.01-.04.35-.13.4-.15q.4-.15.8-.27a14 14 0 0 1 1.68-.38c.58-.1-.26.02.12-.02l.56-.06 1.24-.1a62 62 0 0 1 3.12-.07 2 2 0 0 0 0-4c-5.17.02-13.1.45-14.08 7.01a8 8 0 0 0 .75 4.98 2 2 0 0 0 2.74.72 2.05 2.05 0 0 0 .71-2.74Z" class="b"/><path d="M160.83 95.34v29.89a2.03 2.03 0 0 0 2 2h29.9a2.03 2.03 0 0 0 2-2v-29.9a2.03 2.03 0 0 0-2-2h-29.9c-2.57 0-2.58 4 0 4h29.9l-2-2v29.9l2-2h-29.9l2 2v-29.9c0-2.56-4-2.57-4 0" class="b"/><path d="M192.72 108.29h-29.89c-2.57 0-2.58 4 0 4h29.9c2.57 0 2.57-4 0-4" class="b"/><path d="M175.78 95.34v29.89c0 2.57 4 2.58 4 0V95.34c0-2.57-4-2.58-4 0" class="b"/><path d="M42.89 121.9H23.66a.9.9 0 0 1-.71-1.44 12741 12741 0 0 1 19.41-25.85.9.9 0 0 0-.71-1.44l-7.38-.02a.9.9 0 0 1-.73-1.41c3.85-5.43 9.42-13.17 13.65-19.01a10.2 10.2 0 0 0 9.96 2.26c1.67-.48 3.22-1.33 4.9-1.74a12.4 12.4 0 0 1 9.64 1.45c3.03 1.71 5.55 3.67 9.06 4.35a10.2 10.2 0 0 0 6.8-1.27 3526 3526 0 0 0 10.08 13.94.9.9 0 0 1-.73 1.43l-7.34.02a.9.9 0 0 0-.72 1.44c3.3 4.4 13.38 17.85 19.4 25.85a.9.9 0 0 1-.72 1.43Z" class="c"/><path d="M57.15 75c1.67-.49 3.22-1.34 4.9-1.75a12.4 12.4 0 0 1 9.64 1.45c3.03 1.71 5.55 3.67 9.06 4.35a10.2 10.2 0 0 0 6.8-1.27L79.2 66.17a.9.9 0 0 1 .73-1.43l6.28-.01a.9.9 0 0 0 .72-1.43c-5.24-7.22-14.5-19.78-20.53-27.81a1 1 0 0 0-1.6 0 2664 2664 0 0 0-20.52 27.8.9.9 0 0 0 .72 1.44l6.24.01a.9.9 0 0 1 .73 1.44c-1.08 1.46-2.79 3.8-4.79 6.56l.08.06a10.2 10.2 0 0 0 9.9 2.2m-2.57 46.97h-.46v14.63l22.98-.02v-14.61a5279 5279 0 0 1-22.52 0" class="a"/><path d="M53.53 47.34q-4.78 6.46-9.52 12.96c-1.23 1.68-2.97 3.78-.96 5.66 1.02.97 2.51.77 3.8.77h3.68q.72.1-.31-.57V65.1c-.09.6-1.03 1.5-1.41 2.02l-2.11 2.9-5.02 6.94-5.55 7.71-2.55 3.58c-.78 1.08-2.08 2.37-2.17 3.75a2.9 2.9 0 0 0 1.11 2.54 4 4 0 0 0 2.65.61l6.48.02-1.73-1 .72 1.45V93.6q-5.59 7.4-11.15 14.83l-6.6 8.8c-1.07 1.42-2.63 2.88-1.9 4.81a3 3 0 0 0 2.73 1.85c4.38.26 8.85 0 13.24 0H92.6c4.9 0 9.82.18 14.7 0h.22a2 2 0 0 0 1.73-.99l.73-1.43a2 2 0 0 0 0-2.02q-5.43-7.2-10.84-14.42L94.1 98.3q-1.04-1.4-2.09-2.78c-.38-.51-1.33-1.4-1.43-2v1.07q-1.02.66-.3.57h4.61l3.78-.01a2 2 0 0 0 1.73-1 2 2 0 0 0 0-2.01c-5.4-7.3-10.66-14.71-15.96-22.09l-2.03-2.83c-.4-.55-1.37-1.49-1.46-2.13v1.07l-.55.58h.48a5 5 0 0 0 1.19 0h1.83c1.14 0 2.56.21 3.6-.33a2.9 2.9 0 0 0 1.56-2.82c-.08-1.15-.97-2.06-1.61-2.95q-4.69-6.45-9.42-12.85a2.06 2.06 0 0 0-2.73-.72 2 2 0 0 0-.72 2.74l5.89 8q1.3 1.76 2.58 3.53l1.18 1.61c.25.35.89 1 .95 1.41V63.3c.22-1.3 1.04-.33.23-.58a4 4 0 0 0-.84 0H83a15 15 0 0 0-3.9.13 2.95 2.95 0 0 0-1.4 4.62c1.34 1.96 2.78 3.87 4.17 5.8q5.47 7.62 10.96 15.22l4.11 5.66v-2.02l1.73-1-4.64.02H91a5.5 5.5 0 0 0-3 .46c-3 1.87-.22 4.89 1.15 6.71l10.98 14.65 6.39 8.49v-2.02l-.73 1.43 1.73-.99h-83.1a4 4 0 0 0-.57 0c-.66.12.6-.85.84.58v1.07c.06-.46.75-1.1 1.04-1.49l1.32-1.77 2.6-3.47 5.64-7.5 8.79-11.7a2 2 0 0 0 0-2.01l-.72-1.44a2 2 0 0 0-1.72-1H34.8q-.82-.08.61.84L35.14 93a33 33 0 0 1 2.99-4.28l3.4-4.74 6.73-9.34 5.11-7.02c1.22-1.65.9-4.1-1.3-4.76a14 14 0 0 0-3.65-.13H45.8q-.99-.14.24.58v1.06c.06-.4.59-.9.85-1.26l1.09-1.5 2.66-3.64L57 49.36a2 2 0 0 0-.72-2.74 2.05 2.05 0 0 0-2.74.72Z" class="b"/><path d="M75.1 123v11.54a2 2 0 0 0 4 0v-11.55a2 2 0 0 0-4 0m-22.98 0v11.54a2 2 0 0 0 4 0v-11.55a2 2 0 0 0-4 0" class="b"/><path d="M54.54 40.13c1.32-1.83 2.51-3.77 3.66-5.5a.1.1 0 0 0 0-.1c-1.15-1.73-2.34-3.66-3.66-5.5a.1.1 0 0 1 .07-.15c1.9 0 4.76-.06 6.82-.06a.1.1 0 0 0 .08-.06q1.65-3.37 3.6-6.57a.1.1 0 0 1 .17 0c.64 1.09 3.02 5.13 3.73 6.57a.1.1 0 0 0 .08.06c2.08 0 5.19.06 7.22.07a.1.1 0 0 1 .08.15c-1.33 1.83-2.52 3.77-3.67 5.5a.1.1 0 0 0 0 .1c1.15 1.73 2.34 3.66 3.65 5.49a.1.1 0 0 1-.07.15c-2.04 0-5.16.07-7.24.07a.1.1 0 0 0-.08.05 162 162 0 0 1-3.7 6.52.1.1 0 0 1-.17 0q-1.93-3.17-3.57-6.52a.1.1 0 0 0-.08-.05c-2.06 0-4.93-.07-6.84-.07a.1.1 0 0 1-.08-.15" class="d"/><path d="M56.27 41.14a85 85 0 0 0 2.13-3.16c.62-.95 1.8-2.21 1.8-3.4 0-1.15-1.08-2.3-1.68-3.22a92 92 0 0 0-2.26-3.34l.28 1-.01-.1-1 1.74.09-.06-1.01.28q1.88-.01 3.75-.04c1.16-.02 2.76.24 3.84-.2 1.25-.51 1.72-2.27 2.32-3.38a84 84 0 0 1 2.32-4.07l-.72.72.09-.05h-2.02l.08.05-.72-.72q1.8 3.07 3.51 6.15C68 31 69.4 30.8 71.11 30.82l5.2.06-1.01-.27.08.05-.99-1.73v.1l.27-1a84 84 0 0 0-2.14 3.15c-.62.96-1.8 2.22-1.8 3.4 0 1.15 1.08 2.3 1.67 3.21a89 89 0 0 0 2.25 3.34l-.27-1 .01.1.99-1.73-.08.05 1-.27q-2.5.01-5.02.05c-1.76.02-3.27-.24-4.24 1.48q-1.72 3.06-3.48 6.1l.71-.72-.08.05h2.02l-.08-.05.71.72a87 87 0 0 1-2.3-4.03c-.59-1.11-1.06-2.85-2.3-3.36-1.1-.44-2.69-.19-3.85-.2q-1.88-.04-3.77-.04l1.01.27-.08-.05.99 1.73v-.1a2 2 0 0 0-2-2 2.05 2.05 0 0 0-2 2v.1a2 2 0 0 0 .99 1.72c1 .63 2.72.34 3.85.36l4.08.04-1-.27.08.05-.72-.72q1.43 2.92 3.1 5.73c.53.9 1.08 1.83 2.28 1.83a2.3 2.3 0 0 0 1.93-1.23 66 66 0 0 0 3.58-6.33l-.71.72.08-.05-1.01.27q2.12 0 4.24-.04c1.2-.02 3.04.3 4.09-.35a2 2 0 0 0 .99-1.73c-.13-1.27-1.12-2.3-1.8-3.34l-2.13-3.26.27 1v-.1l-.27 1.02 2.13-3.27c.69-1.05 1.68-2.07 1.81-3.34a2 2 0 0 0-.99-1.73c-1.04-.65-2.88-.34-4.08-.35l-4.23-.05 1 .28-.08-.05.72.71a67 67 0 0 0-3.61-6.38 2.3 2.3 0 0 0-1.92-1.23c-1.2 0-1.75.93-2.3 1.84q-1.67 2.82-3.11 5.77l.72-.72-.09.05 1.01-.27-4.07.04c-1.14.02-2.84-.27-3.84.35a2 2 0 0 0-1 1.73c.14 1.27 1.13 2.3 1.82 3.34l2.13 3.27-.27-1v.1l.27-1.02c-1.2 1.84-2.37 3.7-3.65 5.5a2 2 0 0 0 .72 2.73 2.04 2.04 0 0 0 2.73-.71M45.85 74.22a12.7 12.7 0 0 0 10.6 3c2-.37 3.77-1.37 5.71-1.93a10.3 10.3 0 0 1 5.5-.12c3.68.97 6.63 3.77 10.18 5.12a12.3 12.3 0 0 0 10.76-.82c2.2-1.32.2-4.78-2.01-3.45C80 80 74.41 72.6 68.32 71.22a14 14 0 0 0-5.32-.18 25 25 0 0 0-5.16 1.6c-3.26 1.22-6.42 1-9.17-1.25-1.98-1.62-4.82 1.2-2.83 2.83M1.93 138.6h26.73l41.39-.03 52-.04 59.1-.04 62.78-.05 62.23-.05 58.26-.05 50.82-.04 39.24-.02 24.22-.02h3.23c2.58 0 2.58-4 0-4l-19.97.01-36.07.03-48.18.03-56.73.05-61.86.04-62.78.05-60.28.05-54.3.04-44.18.03H1.93c-2.57 0-2.58 4 0 4" class="b"/></svg>
