<svg xmlns="http://www.w3.org/2000/svg" viewBox="0 -64.66 448.147 448.147"><defs><style>.a{fill:#fff}.b{fill:#211715}.c{fill:#f2635f}.d{fill:#74c66d}.e{fill:#febe69}.g{fill:#ad7b59}.h{fill:#85807f}.i{fill:#ffda71}.k{fill:#f8b8b4}</style></defs><path d="M372.55 249.95c-10.2-4.58-21.58-9.1-32.29-13.45a2.7 2.7 0 0 0-2.04 0c-10.17 4.13-20.94 8.4-30.72 12.75a2.7 2.7 0 0 0-1.62 2.5v32.31a2.7 2.7 0 0 0 1.61 2.49c9.1 4.04 19.06 8.02 28.59 11.88a8.4 8.4 0 0 0 6.32 0c10.08-4.08 20.63-8.3 30.15-12.58a2.7 2.7 0 0 0 1.6-2.48v-30.94a2.7 2.7 0 0 0-1.6-2.48" class="a"/><path d="M345.87 264.15q10.84-4.1 21.43-8.86a2 2 0 0 0 .72-2.73 2.05 2.05 0 0 0-2.74-.72q-10.1 4.54-20.47 8.46a2.06 2.06 0 0 0-1.4 2.46 2 2 0 0 0 2.46 1.4Zm-6.37-1.33c-8.33-3.43-16.7-6.75-24.9-10.47a2.06 2.06 0 0 0-2.74.72 2 2 0 0 0 .71 2.74c8.52 3.86 17.22 7.31 25.87 10.86a2 2 0 0 0 2.46-1.4 2.05 2.05 0 0 0-1.4-2.46Z" class="b"/><path d="M337.24 265.13v9.29a2 2 0 0 0 4 0v-9.29a2 2 0 0 0-4 0" class="b"/><path d="M352.47 241.64c-11.06 4.5-23.1 9.24-34 14.1v35.51q3.1 1.3 6.25 2.58V259.6c11.74-4.79 24.48-9.8 35.72-14.87l-7.74-3.19Z" class="c"/><path d="M326.72 293.82V259.6l-1.47 1.93c11.96-4.88 24-9.6 35.78-14.88a2 2 0 0 0 .72-2.74 2.05 2.05 0 0 0-2.74-.72c-11.47 5.15-23.18 9.73-34.82 14.48a2.1 2.1 0 0 0-1.47 1.93v34.22c0 2.57 4 2.58 4 0" class="b"/><path d="M351.25 240c-11.3 4.6-22.64 9.06-33.78 14.02a2 2 0 0 0-1 1.73v35.24c0 2.57 4 2.58 4 0v-35.24l-.98 1.73c10.82-4.83 21.85-9.17 32.82-13.63a2.06 2.06 0 0 0 1.4-2.46 2 2 0 0 0-2.46-1.4Z" class="b"/><path d="M373.56 248.22a717 717 0 0 0-23.75-10l-5.96-2.41c-1.92-.78-3.84-1.92-5.96-1.3a63 63 0 0 0-5.92 2.38l-6 2.43q-6 2.44-11.98 4.96-2.91 1.23-5.81 2.5c-1.84.8-3.57 1.62-4.14 3.74a12 12 0 0 0-.16 2.98v29.61a5.7 5.7 0 0 0 1.23 4.13c1.28 1.4 3.5 1.98 5.2 2.71 8 3.45 16.07 6.7 24.14 9.97a12 12 0 0 0 5.86 1.06 23 23 0 0 0 5.93-1.95q6.1-2.47 12.2-4.97 5.91-2.43 11.78-5c1.7-.74 3.82-1.31 4.98-2.85a6 6 0 0 0 .96-3.86v-15.26c0-4.85.18-9.74 0-14.58a4.9 4.9 0 0 0-2.6-4.29c-2.27-1.2-4.3 2.25-2.01 3.46.8.42.6 1.17.6 1.97v28.11c0 .66.23 1.7-.3 2.2a9 9 0 0 1-2.4 1.1l-2.53 1.1q-2.79 1.21-5.58 2.39-5.52 2.31-11.07 4.55l-5.32 2.16c-1.75.7-3.58 1.73-5.5 1.78a11 11 0 0 1-4.61-1.25l-5.78-2.34q-5.57-2.26-11.12-4.57-2.6-1.08-5.19-2.2l-2.56-1.11c-.6-.26-1.93-.55-2.24-1.18a7 7 0 0 1-.08-2.42v-27.73a10 10 0 0 1 .02-2.66c.21-.6.92-.74 1.45-.98l2.98-1.3q5.44-2.34 10.92-4.58 6-2.46 12-4.87l3.07-1.25c1.12-.42 1.64-.08 2.72.36l6.16 2.5c8.16 3.3 16.32 6.61 24.35 10.21a2.06 2.06 0 0 0 2.74-.72 2 2 0 0 0-.72-2.73" class="b"/><path d="M343.18 250.95c3.5 3.2 10.42 6.15 15 7.42a4 4 0 0 0 .83.21 3.1 3.1 0 0 0 2.73-.81c1.27-1.52 2.06-5.44 1.72-9.14a8.4 8.4 0 0 0-1.84-4.66 6 6 0 0 0-1.84-1.3 16 16 0 0 0-7.16-1.12 20.5 20.5 0 0 0-8.3 3.27l-5.62-1.28a19 19 0 0 0-3.54-6.79 15 15 0 0 0-3.8-3.1 6.3 6.3 0 0 0-4.75-.58 11.5 11.5 0 0 0-5.34 3.78 9 9 0 0 0-1.94 5.3 4 4 0 0 0 .26 1.74c2.43 3.69 7.6 5.39 12.13 5.3Z" class="c"/><path d="M345.33 246.55c2.7-1.77 5.92-3.22 9.21-3.04a12 12 0 0 1 4.46 1 4.4 4.4 0 0 1 2.28 3.2 12.6 12.6 0 0 1-1.04 8.73c.15-.24-.2.1-.03.04a2 2 0 0 1-.7.1 7 7 0 0 1-1.93-.47q-2.19-.68-4.3-1.56a30 30 0 0 1-8.68-5.01c-1.91-1.72-4.75 1.1-2.83 2.83a35 35 0 0 0 10.15 5.91 51 51 0 0 0 5.11 1.84c1.93.57 4.14.8 5.78-.62a8.5 8.5 0 0 0 2.29-4.8 20 20 0 0 0 .26-6.88 9.3 9.3 0 0 0-2.56-5.5 11 11 0 0 0-5.76-2.51 16 16 0 0 0-6.57.12 23 23 0 0 0-7.15 3.16c-2.15 1.4-.14 4.87 2.02 3.46Z" class="b"/><path d="M354.19 247.12a36 36 0 0 0-4.18-.69 2 2 0 0 0-1.42.59 2 2 0 0 0 0 2.83l.4.3a2 2 0 0 0 1.01.28l.53.07-.53-.07a32 32 0 0 1 3.12.55 2 2 0 0 0 1.54-.2 2 2 0 0 0-.48-3.66Z" class="b"/><path d="M338.32 245.1a27 27 0 0 0-3.42 1.93 2.7 2.7 0 0 0-1.12 1.23 2 2 0 0 0 .12 1.91 3 3 0 0 0 1.01.58c2.1.7 4.44 1.52 6.38.45a23 23 0 0 0 2.86-1.97c.94-.71 1.32-1.56.55-2.53a6.8 6.8 0 0 0-4.05-1.8 3.3 3.3 0 0 0-2.33.2" class="c"/><path d="M340.63 243.02a20 20 0 0 0-5.21-8.85 12 12 0 0 0-5.05-3.05 8.3 8.3 0 0 0-5.64.56 12.5 12.5 0 0 0-7.05 7.94c-.42 1.61-.66 3.75.18 5.27a11 11 0 0 0 3.44 3.43 18.4 18.4 0 0 0 10.41 2.88c2.58-.03 2.58-4.03 0-4a15 15 0 0 1-6.72-1.37 10 10 0 0 1-2.72-1.83 5 5 0 0 1-.96-1.12c.14.27.03 0 .03-.13a11 11 0 0 1 .03-1.23 8.2 8.2 0 0 1 4.1-5.74 5 5 0 0 1 3.35-.9 7 7 0 0 1 3.52 1.9 16 16 0 0 1 4.43 7.3c.76 2.45 4.62 1.4 3.86-1.06" class="b"/><path d="M332.42 241.02a12 12 0 0 0-2.32-1.23 9 9 0 0 0-2.53-.55 2 2 0 0 0-1.41.59 2 2 0 0 0 0 2.82l.4.32a2 2 0 0 0 1 .27l.33.04-.54-.08a7 7 0 0 1 1.76.48l-.47-.2a10 10 0 0 1 1.76 1 2 2 0 0 0 2.93-2.27 2.2 2.2 0 0 0-.91-1.2Zm4.9 2.35c-2.13 1.16-5.1 2.23-5.61 4.9a3.5 3.5 0 0 0 1.59 3.92 13 13 0 0 0 3.42 1.2 9 9 0 0 0 4.1.13 10 10 0 0 0 3.45-1.9c1.13-.84 2.35-1.65 2.74-3.1a3.8 3.8 0 0 0-1.6-3.88 9 9 0 0 0-3.79-1.6 6 6 0 0 0-4.3.33 2 2 0 0 0 2.01 3.45c.3-.17-.33.14.11-.03.22-.09-.15 0-.15 0a1 1 0 0 1 .31 0l.47.01c0 .03-.4-.07-.09 0l.31.06a12 12 0 0 1 1.24.28l.6.2.25.1q-.26-.12 0 0c.25.12.33.18.5.28l.1.07c-.2-.16 0 0 .03.03l.2.2c-.03-.03-.17-.28-.07-.08.11.22-.02-.09-.02-.11.02.34.03-.12.02-.24-.03-.2.02-.12-.02 0 .02-.05.14-.43 0-.09.03-.05.24-.23.08-.1l-.18.18c-.05.04-.29.24-.02.03l-.22.16-.6.45q-.5.38-1.03.73-.3.2-.6.37l-.35.2c-.21.15.23-.06-.02.01l-.6.17-.08.01c.26-.02-.11 0-.17 0l-.63-.01c-.02 0-.32-.03-.1 0l-.19-.03a18 18 0 0 1-2.62-.74l-.47-.16c0-.05.35.19.06 0l-.2-.11c-.2-.11.12.08.13.1a1 1 0 0 1 .27.4c0 .02 0 .4.02.17.03-.42.04-.04-.04.01.02-.01.15-.56.15-.55.1.13-.47.57 0 .14l.18-.16c.2-.19-.38.27.02-.01l.6-.41c.9-.58 1.89-1.01 2.83-1.53a2 2 0 0 0 .71-2.73 2.04 2.04 0 0 0-2.74-.72" class="b"/><path d="M261.57 264.83q-1.11-.87-2.28-1.68a26 26 0 0 1 7.81-5.19 13 13 0 0 1 1.73-5.7 7.7 7.7 0 0 1 4.68-3.5 5.6 5.6 0 0 1 5.45 1.7 4.4 4.4 0 0 1 .05 5.52l-1.59 1.78 1.48-.13a4 4 0 0 1 3.43 1.74 6.4 6.4 0 0 1 1.05 3.83 5.3 5.3 0 0 1-.84 2.97 5 5 0 0 1-3.53 1.86 15 15 0 0 1-4.09-.31l-3.36-.57a1.3 1.3 0 0 0-1.32.34l-3.48 2.77a20 20 0 0 0-1.53-1.98 28 28 0 0 0-3.66-3.45m-31.05 50.65c-23.1 0-52.91-6.66-52.91-21.05a16 16 0 0 1 1.14-6.56c2.32-5.29 7.37-8 12.45-10.16 23.1-9.8 60.22-8.84 82.23.18 4.53 1.86 11.07 6.82 11.07 13.65 0 6.3-2.2 10.28-7.55 14.07-6.85 4.85-19.7 9.87-46.43 9.87" class="a"/><path d="M262.66 306.88a37 37 0 0 0 8.75-3.38c2.44-1.38 5.01-3.27 6.24-5.87a2.06 2.06 0 0 0-.72-2.74 2 2 0 0 0-2.74.72 7 7 0 0 1-.36.69l-.24.37c-.08.13-.15.2-.02.04a10 10 0 0 1-1.22 1.28 10 10 0 0 1-1.29 1.02 23 23 0 0 1-3.8 2.12l-.35.15c-.18.08.17-.06-.15.07a39 39 0 0 1-5.16 1.67 2 2 0 1 0 1.06 3.86m-79-10.43c1.73 2.98 4.68 5.08 7.68 6.65a55 55 0 0 0 11.93 4.34 113 113 0 0 0 27.38 3.4 148 148 0 0 0 21.22-1.49 2 2 0 0 0 1.4-2.46 2.05 2.05 0 0 0-2.46-1.4 130 130 0 0 1-30.83.77c-8.34-.82-17.13-2.27-24.82-5.75a27 27 0 0 1-5.15-2.94 11 11 0 0 1-2.89-3.15c-1.29-2.23-4.75-.21-3.45 2.02Z" class="b"/><path d="M230.52 313.48a122 122 0 0 1-25.8-2.67c-6.95-1.52-14.55-3.62-20.24-8.08a18 18 0 0 1-2.85-2.79 10 10 0 0 1-1.66-3.12 12.7 12.7 0 0 1 2.35-10.98c2.71-3.26 6.77-5.15 10.63-6.7a79 79 0 0 1 11.9-3.64 120 120 0 0 1 26.91-2.77 129 129 0 0 1 26.6 2.71 91 91 0 0 1 11.75 3.3 22.6 22.6 0 0 1 9.14 5.52 11.6 11.6 0 0 1 2.96 10.75c-.76 3.85-3.18 6.7-6.33 8.91a42 42 0 0 1-12.87 5.87 103 103 0 0 1-24.18 3.5q-4.16.19-8.31.18c-2.57 0-2.58 4 0 4 9.88-.01 19.88-.6 29.54-2.79a53 53 0 0 0 16.23-6.24 23 23 0 0 0 8.03-7.65 17.4 17.4 0 0 0 1.66-12.88c-2.58-8.65-11.65-12.25-19.5-14.55a121 121 0 0 0-27.76-4.44 134 134 0 0 0-29.55 1.65 92 92 0 0 0-13.18 3.23 50 50 0 0 0-12.32 5.58 17.1 17.1 0 0 0-7.97 12.83 13.8 13.8 0 0 0 2.22 9.4c4.2 6.02 11.77 9.1 18.53 11.18a113 113 0 0 0 27.3 4.51q3.38.18 6.77.18c2.57 0 2.57-4 0-4" class="b"/><path d="M276.5 303.88a83 83 0 0 1-34.35 10.45c-13.18 1.17-27.06.56-39.86-2.98a58 58 0 0 1-16.67-7.38c-2.16-1.42-4.17 2.05-2.02 3.46 10.24 6.75 22.5 9.62 34.58 10.76 13.82 1.3 28.15.77 41.57-2.98a82 82 0 0 0 18.77-7.88c2.23-1.28.22-4.74-2.02-3.45" class="b"/><path d="M206.82 282.64a8 8 0 0 0 1.36-6.16c-1.13-2.51-2.62-4.95-5.31-5.8-1.73-.55-4.86-.82-5.77 1.29-2.96-2.15-6.04-1.5-9.07.35-1.28.79-1.47 1.45-2.86 2.36-.85.56-3.16 1.02-5.75 2.17-3.52 3.06-.3 8.8 3.9 7.85-.62 2.35 1.36 3.75 3.7 3.97a14 14 0 0 0 4.47-.26c1.12-.29 1.74-1.16 2.72-1.63 3.9 5.05 11.04 1.8 12.41-3.92z" class="d"/><path d="M209.9 275.47c-1.37-3.02-3.4-5.84-6.74-6.8-2.7-.76-6.37-.56-7.79 2.28l2.74-.71c-3.48-2.37-7.65-1.83-11.09.35-1.18.75-2.1 2.07-3.35 2.6-1.69.72-3.68.96-5.26 1.93-2.67 1.65-3.03 5.47-1.72 8.05a6.5 6.5 0 0 0 7.16 3.46l-2.46-2.46c-.69 3.23 1.42 5.78 4.58 6.36a15 15 0 0 0 5.08 0c1.72-.27 2.7-1.23 4.17-2.02 2.27-1.22.25-4.67-2.02-3.45a19 19 0 0 1-2.24 1.42 8 8 0 0 1-2.96.26c-.89-.03-3.04-.14-2.75-1.5a2.03 2.03 0 0 0-2.46-2.46 2.57 2.57 0 0 1-2.78-2.02 2.3 2.3 0 0 1 .17-1.74c.53-.95 2.14-1.17 3.12-1.49a15 15 0 0 0 2.8-1.07 25 25 0 0 0 2.58-2.18c2.25-1.72 5.02-2.2 7.41-.58a2 2 0 0 0 2.74-.72c.6-1.2 2.85-.68 3.85-.25 1.93.84 2.95 2.96 3.77 4.77a2 2 0 0 0 2.74.71 2.05 2.05 0 0 0 .72-2.73Z" class="b"/><path d="M201.52 285.58c-.52-4.3 1.82-9.57 5.62-13.05 1.96-1.8 5.05-4.02 12.4-5.76a45 45 0 0 1 10.75-1.15c2.77 0 6.7 1.12 10.7 1.36 6.78.42 12.3-.41 18.48-3.7a32 32 0 0 1 5.76 5 18 18 0 0 1 3.41 5.62c-1.91 3.17-4.54 9.17-6.55 13.64-1.96 4.34-6.48 7.63-10.8 9.44a62 62 0 0 1-19.03 3.9c-11.56.55-20.45-1.17-25.43-5.38a15.6 15.6 0 0 1-5.3-9.83Z" class="e"/><path d="m191.66 281.9 2.48-1.36a1.5 1.5 0 0 0 .56-.52 2.1 2.1 0 0 0 .16-2.22 2 2 0 0 0-1.2-.92 2 2 0 0 0-1.54.2l-2.48 1.36a1.9 1.9 0 0 0-.96 1.99 1.5 1.5 0 0 0 .24.74 2 2 0 0 0 1.2.92 2 2 0 0 0 1.54-.2Zm22.6 1.27a47 47 0 0 1 4.97-2.46 2 2 0 0 0 .92-1.2 2 2 0 0 0-.2-1.53 2 2 0 0 0-1.2-.92l-.53-.07a2 2 0 0 0-1.01.27 47 47 0 0 0-4.97 2.45 2 2 0 0 0-.92 1.2 2 2 0 0 0 2.94 2.26m6.02 5.31a34 34 0 0 1 3.77-2.21q2.89-1.56 5.82-3.04c3.05-1.54 6.1-3.08 9.19-4.53a2 2 0 0 0 .72-2.74 2.05 2.05 0 0 0-2.74-.71 336 336 0 0 0-15 7.56 34 34 0 0 0-3.78 2.22 2.06 2.06 0 0 0-.71 2.74 2 2 0 0 0 2.73.71m16.26-.97a92 92 0 0 1 5.39-2.73q1.38-.65 2.77-1.26l.3-.13-.1.04.63-.26.94-.35a2 2 0 0 0-1.06-3.86 54 54 0 0 0-5.36 2.3 93 93 0 0 0-5.53 2.8 2 2 0 0 0-.72 2.73 2.04 2.04 0 0 0 2.74.72" class="b"/><path d="M230.76 277.53c1.06 2.13 2.3 4.18 3.49 6.25a122 122 0 0 1 2.6 4.79l.32.7c.2.43-.15-.4 0 0q.07.15.12.32a2 2 0 1 0 3.86-1.06 43 43 0 0 0-3.38-6.64c-1.2-2.12-2.47-4.2-3.56-6.38a2 2 0 0 0-2.73-.72 2.05 2.05 0 0 0-.72 2.74m-11.28-3.24a56 56 0 0 0 4.44 7.72c1.96 3.18 3.81 6.42 5.75 9.62 1.33 2.2 4.8.19 3.46-2.02-1.9-3.14-3.73-6.33-5.66-9.46l-2.57-4.2a72 72 0 0 1-1.43-2.5c-.09-.17-.44-.98-.13-.23a2.07 2.07 0 0 0-2.46-1.4 2 2 0 0 0-1.4 2.46Z" class="b"/><path d="M257.27 262.16a32.4 32.4 0 0 1-17.24 2.75c-3.04-.29-6.01-1.11-9.06-1.27a43 43 0 0 0-8.34.5 36 36 0 0 0-13.98 4.72 20.8 20.8 0 0 0-8.17 10.1 16 16 0 0 0 2.45 15.28c2.83 3.74 6.97 5.91 11.43 7.13a56 56 0 0 0 16.5 1.56 65 65 0 0 0 14.38-2c6.17-1.63 12.37-3.92 16.47-9.08 1.93-2.42 3-5.31 4.26-8.1s2.55-5.63 4.07-8.3c1.28-2.25-2.18-4.27-3.45-2.03-2.52 4.44-4.2 9.27-6.56 13.78-2.4 4.59-7.24 7.24-12 8.74a63 63 0 0 1-28.82 2.39c-3.76-.62-7.73-1.68-10.77-4.08-3.63-2.87-5.81-7.92-4.66-12.49 2.22-8.84 10.76-12.25 18.99-13.62a36 36 0 0 1 8.56-.49c3.24.25 6.4 1.11 9.65 1.32a36 36 0 0 0 18.3-3.37c2.32-1.1.3-4.56-2.02-3.45Z" class="b"/><path d="M260.82 264.46a25 25 0 0 1 7.29-4.77 2 2 0 0 0 .99-1.73c.27-2.94 1.67-6.61 4.94-7.27a3.6 3.6 0 0 1 3.32.97 2.4 2.4 0 0 1 .23 2.9 2.06 2.06 0 0 0 0 2.83 2 2 0 0 0 2.83 0 6.45 6.45 0 0 0 .72-7.26 7.3 7.3 0 0 0-6.5-3.52 9 9 0 0 0-6.7 3.5 14.3 14.3 0 0 0-2.84 7.85l.99-1.72a28 28 0 0 0-8.1 5.39c-1.88 1.77.96 4.6 2.83 2.83" class="b"/><path d="M278.9 259.64a1.9 1.9 0 0 1 1.6.63 3 3 0 0 1 .5.74 5 5 0 0 1 .34 1.18 7 7 0 0 1 .02 1.5 5 5 0 0 1-.18.85 2.1 2.1 0 0 1-1.35 1.26 4 4 0 0 1-1.1.26 11 11 0 0 1-1.77-.04c-1.06-.1-2.13-.33-3.18-.52a8 8 0 0 0-3.56-.26c-1.18.35-2.23 1.5-3.18 2.26a2 2 0 0 0 0 2.83 2.05 2.05 0 0 0 2.83 0c.13-.1 1.53-1.3 1.57-1.26.12.1-.96-.07-.13.05l.98.17c1.46.25 2.91.53 4.38.7 2.53.29 5.42-.17 7.15-2.22 3.42-4.05 1.05-12.41-4.92-12.13a2.04 2.04 0 0 0-2 2 2 2 0 0 0 2 2" class="b"/><path d="M256.68 263.8a34 34 0 0 1 7.14 5.9 17 17 0 0 1 2.31 3.43 13 13 0 0 1 1.25 3.86 2.07 2.07 0 0 0 2 2 2 2 0 0 0 2-2c-.97-7.56-6.62-12.68-12.69-16.64a2 2 0 1 0-2.01 3.45" class="b"/><path d="M122.43 243.36c-10.88 0-26.44 3.35-35.94 8.08a18 18 0 0 0-4.7 3.12c-6.5 6.4-.58 15.56 4.64 20.56a53.04 53.04 0 0 0 72 0c5.22-5 11.14-14.15 4.65-20.56a18 18 0 0 0-4.71-3.12c-9.5-4.73-25.06-8.08-35.94-8.08" class="a"/><path d="M97.17 271.02a33 33 0 0 1-3.5-1.4l-.37-.18.21-3.74a3.1 3.1 0 0 1-.95-3.56 8 8 0 0 1 1.19-1.9 9 9 0 0 1 1.49-1.42 29 29 0 0 1 7.99-4.14 11 11 0 0 1 3.44-1.84 12 12 0 0 1 4.03-.49 9.5 9.5 0 0 0 5.43-1.48 8 8 0 0 1 3.53-1.17 10 10 0 0 1 5.2.62 8 8 0 0 0 4.07.96 14 14 0 0 1 4.86.67 10 10 0 0 0 3.6.55 14.5 14.5 0 0 1 6.64 1.18 9 9 0 0 1 2.73 1.71 26 26 0 0 1 4.05 2.13c1.36.88 3.29 3.12 3.48 4.33a3.6 3.6 0 0 1-1.64 3.44s0 2.09 0 4.1l-.48.24c-5.13 2.47-16.5 5.34-29.5 5.34a83 83 0 0 1-25.5-3.95" style="fill:#ffe59c"/><path d="m94.93 264.29-.37-.38c.22.25 0 0-.07-.14-.04-.06-.19-.46-.1-.2s-.04-.14-.05-.2c-.13-.41-.02.38 0-.06v-.22q0-.23-.03.16c-.04-.07.08-.3.1-.36.04-.21-.17.3.01-.03a10 10 0 0 1 .5-.88l.16-.23c-.14.2.15-.18.19-.22a9 9 0 0 1 .79-.8l.24-.21.3-.23a26 26 0 0 1 3.4-2.08 39 39 0 0 1 1.87-.89l.18-.07.55-.22q.56-.22 1.12-.41a2 2 0 1 0-1.06-3.86 29 29 0 0 0-9.22 4.96 9 9 0 0 0-2.94 4.25 5.2 5.2 0 0 0 1.59 5.15 2 2 0 1 0 2.83-2.83Zm50.9-7.14.23.1.5.23q.49.22.96.46a26 26 0 0 1 2.37 1.36c.36.25-.03.02-.01-.02l.3.25a12 12 0 0 1 1.2 1.22l.28.34c.26.3-.2-.32.03.04q.23.32.44.66l.17.32c.17.31-.11-.44-.03-.09l.07.27c-.1-.1-.03-.55-.02-.07 0 .05-.03.39-.02.4-.05-.03.1-.5-.03 0l-.1.32c-.04.16.19-.37-.02.03l-.2.35-.1.17q.25-.33.1-.16c-.05.03-.4.34-.11.14s-.14.06-.2.09a2 2 0 0 0-.71 2.73 2.05 2.05 0 0 0 2.73.72 5.4 5.4 0 0 0 2.64-4.4 6 6 0 0 0-1.63-4.13c-2-2.55-4.83-3.97-7.77-5.18a2 2 0 0 0-2.46 1.4 2.06 2.06 0 0 0 1.4 2.46Zm-29.18 9.63.6-.84-.3.4a16 16 0 0 1 2.9-2.9l-.4.3.2-.15a2.2 2.2 0 0 0 .92-1.2 2 2 0 0 0-.2-1.54 2 2 0 0 0-1.2-.92 2 2 0 0 0-1.53.2 19 19 0 0 0-2.4 2.09 20 20 0 0 0-2.04 2.54 2 2 0 0 0 2.26 2.94 2.2 2.2 0 0 0 1.2-.92Z" class="b"/><path d="M115.12 258.27a36 36 0 0 0 3.97 5.86c1.58 1.95 3.15 3.91 4.88 5.74a2 2 0 0 0 2.83 0 2.04 2.04 0 0 0 0-2.83c-1.69-1.78-3.23-3.69-4.77-5.6l-.5-.63-.27-.33-.15-.19-.13-.18-.23-.31-.41-.57a28 28 0 0 1-1.77-2.98 2 2 0 0 0-2.73-.71 2.05 2.05 0 0 0-.72 2.73m13.36 1.2a47 47 0 0 0 4.37 5.73 2 2 0 0 0 3.42-1.41 2.2 2.2 0 0 0-.6-1.42q-1.06-1.22-2.05-2.5l.32.4q-1.07-1.36-2-2.81a2 2 0 0 0-1.2-.92 2 2 0 0 0-2.26 2.94Z" class="b"/><path d="M141.93 262.18c-.57-3.03-3.24-4.02-5.61-3.5-2.04.5-4.05 1.86-3.6 4.92.31 2.14 2.1 3.85 5.4 3.22 1.82-.35 4.26-2.23 3.81-4.64" class="d"/><path d="M143.86 261.64a6.2 6.2 0 0 0-5.1-4.98 7.4 7.4 0 0 0-6.69 2.23 6 6 0 0 0-1.41 3.91 6.4 6.4 0 0 0 1 3.55 6.6 6.6 0 0 0 7.24 2.35 7.3 7.3 0 0 0 3.56-2.19 5.7 5.7 0 0 0 1.4-4.86 2 2 0 0 0-2.46-1.4 2.06 2.06 0 0 0-1.4 2.46c-.1-.62-.02.1-.02.28 0 .28.12-.5 0-.1l-.09.34c-.07.31.03-.11.08-.15l-.17.32-.16.26c-.24.4.25-.25-.01.02q-.2.23-.43.43l-.27.24c.17-.25.28-.2.11-.1q-.27.18-.56.34l-.25.13c-.35.18.46-.15.01 0l-.56.15-.25.05c-.5.1.44-.02-.06 0q-.34.04-.69.03l-.38-.02c-.4-.02.44.1.04 0q-.28-.06-.55-.14c-.24-.08-.29-.23.07.04l-.24-.12-.22-.13c-.19-.12-.25-.3.07.07q-.2-.21-.43-.41c-.2-.22.12.15.13.17l-.16-.24-.23-.44c.28.45.12.3.05.11l-.06-.18c-.05-.2-.06-.41-.13-.6.16.43.03.12.02-.05v-.35l.02-.33-.04.28q0-.12.04-.24a4 4 0 0 0 .17-.56c-.02.35-.18.34-.05.12l.2-.33c.18-.32-.27.29-.1.11l.18-.2q.2-.17.38-.36c-.3.37-.24.19-.06.07l.22-.14.56-.3c.23-.12-.5.2-.13.07q.15-.07.3-.1.24-.1.5-.16l.28-.05c.26-.07-.55.05-.15.02l.65-.02.33.02c.4.01-.5-.1-.1-.02l.63.15.3.1c-.44-.08-.3-.13-.09-.02.19.1.36.26.55.33-.39-.15-.25-.2-.07-.03l.24.23c.16.17.13.32-.03-.06l.2.28.2.35q.13.4.22.83a2 2 0 0 0 2.46 1.4 2.05 2.05 0 0 0 1.39-2.46m-36.24-.8.23-.18-.4.31a16 16 0 0 1 2.98-1.83 2 2 0 0 0 .92-1.2 2 2 0 0 0-.2-1.54 2 2 0 0 0-1.2-.92l-.53-.07a2 2 0 0 0-1.01.28 19 19 0 0 0-3.62 2.32 2.2 2.2 0 0 0-.59 1.41 2 2 0 0 0 .59 1.42 2 2 0 0 0 1.41.58l.54-.07a2 2 0 0 0 .88-.51" class="b"/><path d="M122.43 241.36a91 91 0 0 0-21.37 2.89 86 86 0 0 0-10.52 3.26c-3.38 1.3-6.93 2.76-9.68 5.18a11.3 11.3 0 0 0-3.9 9.2 19 19 0 0 0 3.6 9.37c4.14 6.05 10.34 10.75 16.84 14.02a56 56 0 0 0 44.74 2.34 50.6 50.6 0 0 0 18.98-12.38c4.27-4.59 8.65-11.62 6.05-18.08-1.52-3.77-4.83-6.03-8.38-7.73a70 70 0 0 0-9.64-3.7 100 100 0 0 0-21.8-4.17q-2.45-.19-4.91-.2c-2.58 0-2.58 4 0 4a86 86 0 0 1 19.33 2.51c6.16 1.46 12.87 3.27 18.24 6.78a7.8 7.8 0 0 1 3.89 7.41 16.6 16.6 0 0 1-3.46 7.77c-3.83 5.29-9.57 9.32-15.36 12.18a52 52 0 0 1-40.53 2.03 47 47 0 0 1-17.28-10.9c-3.47-3.5-8.17-9.69-5.72-14.9 1.45-3.08 4.83-4.62 7.76-5.93a68 68 0 0 1 8.77-3.12 95 95 0 0 1 19.8-3.66q2.28-.16 4.56-.17c2.56 0 2.57-4 0-4" class="b"/><path d="M85.64 265.25c2.02 4.3 7.23 6.46 11.47 7.86a79 79 0 0 0 15.74 3.28 87 87 0 0 0 34.6-2.87c4.64-1.4 10.56-3.59 12.75-8.27a2.06 2.06 0 0 0-.71-2.74 2 2 0 0 0-2.74.72c-1.68 3.58-6.29 5.15-9.76 6.25a74 74 0 0 1-13.62 2.84 85 85 0 0 1-32.85-2.35 38 38 0 0 1-5.53-1.93c-2.27-1.05-4.79-2.45-5.9-4.81a2 2 0 0 0-2.73-.72 2.04 2.04 0 0 0-.72 2.74" class="b"/><path d="M100.9 262.2a31 31 0 0 1 2.57-4.92 7.3 7.3 0 0 1 3.6-2.47c1.9-.64 3.85-.3 5.8-.61 1.92-.3 3.35-1.3 5.08-2.05a8.6 8.6 0 0 1 5.34-.3c.83.24 1.58.69 2.4.96a10 10 0 0 0 3.24.46 22 22 0 0 1 5.43.91c2 .46 4.03.11 6.03.47 1.7.3 3.88.93 5.07 2.28a8 8 0 0 1 1.16 3.11c.67 2.48 4.53 1.43 3.85-1.06a14 14 0 0 0-1.34-3.8 9 9 0 0 0-4.1-3.23 17 17 0 0 0-6.77-1.47 12 12 0 0 1-3.29-.27 26 26 0 0 0-3.3-.78 29 29 0 0 0-3.18-.15 8 8 0 0 1-2.97-.85 12.3 12.3 0 0 0-6.58-.65 10 10 0 0 0-3.15.98 16 16 0 0 1-2.79 1.32c-2.1.59-4.31.13-6.44.7a12.3 12.3 0 0 0-5.46 3.11c-1.66 1.69-2.7 4.16-3.66 6.3a2.06 2.06 0 0 0 .72 2.73 2 2 0 0 0 2.74-.71Z" class="b"/><path d="M128.39 249.8c-.57-3.02-3.24-4.02-5.61-3.5-2.04.51-4.06 1.86-3.6 4.93.3 2.14 2.1 3.85 5.4 3.22 1.81-.35 4.26-2.24 3.8-4.65" class="c"/><path d="M130.32 249.27a6.2 6.2 0 0 0-5.1-4.98 7.4 7.4 0 0 0-6.69 2.22 6 6 0 0 0-1.42 3.92 6.4 6.4 0 0 0 1.01 3.55 6.6 6.6 0 0 0 7.24 2.34 7.3 7.3 0 0 0 3.56-2.19 5.7 5.7 0 0 0 1.4-4.86 2 2 0 0 0-2.46-1.4 2.06 2.06 0 0 0-1.4 2.46c-.1-.62-.02.1-.03.28 0 .27.13-.5.02-.1q-.06.16-.1.34c-.08.31.03-.11.07-.15l-.16.32-.16.25c-.25.42.25-.24-.02.03q-.2.23-.42.43l-.28.24c.17-.26.29-.2.12-.1l-.56.34-.26.13c-.34.18.47-.15.02 0l-.56.15-.25.05c-.5.1.44-.02-.06 0q-.34.04-.69.03l-.39-.02c-.39-.02.45.1.05 0l-.56-.14c-.23-.08-.28-.23.07.04l-.23-.12-.23-.13c-.18-.12-.24-.3.08.07-.13-.14-.3-.28-.43-.41-.2-.22.12.15.13.17l-.17-.24q-.1-.22-.23-.44c.29.45.13.3.06.11l-.06-.18c-.06-.2-.06-.41-.13-.6.15.44.02.12.02-.05v-.35l.01-.33-.04.28.05-.24a4 4 0 0 0 .16-.56c-.01.35-.17.34-.04.12l.19-.32c.19-.33-.27.28-.1.1l.18-.2c.12-.12.28-.23.39-.35-.31.36-.25.18-.07.06l.22-.14.57-.3c.23-.12-.5.2-.14.07l.3-.1.51-.15.27-.06c.26-.06-.54.05-.15.02l.66-.02.33.02c.4.01-.5-.1-.1-.02l.62.15.3.1c-.43-.08-.29-.13-.08-.02.18.1.36.26.55.33-.4-.15-.26-.2-.07-.03l.23.23c.17.17.14.32-.02-.06l.19.28.19.35q.13.4.23.83a2 2 0 0 0 2.46 1.4 2.05 2.05 0 0 0 1.4-2.45" class="b"/><path d="M107.82 261.73c-.57-3.02-3.24-4.01-5.61-3.5-2.04.51-4.06 1.86-3.6 4.93.3 2.14 2.1 3.85 5.4 3.22 1.81-.35 4.26-2.24 3.8-4.65" class="d"/><path d="M109.75 261.2a6.2 6.2 0 0 0-5.1-4.98 7.4 7.4 0 0 0-6.69 2.22 6 6 0 0 0-1.42 3.92 6.4 6.4 0 0 0 1.01 3.55 6.6 6.6 0 0 0 7.24 2.34 7.3 7.3 0 0 0 3.56-2.19 5.7 5.7 0 0 0 1.4-4.86 2 2 0 0 0-2.46-1.4 2.06 2.06 0 0 0-1.4 2.46c-.1-.62-.02.11-.02.29 0 .27.12-.51 0-.12l-.09.35c-.08.31.03-.11.07-.15-.06.05-.12.25-.16.32l-.16.26c-.25.41.25-.25-.02.02q-.2.23-.42.44l-.28.23c.17-.25.29-.2.12-.1q-.28.19-.56.34l-.26.13c-.34.18.47-.15.02 0l-.56.16-.25.04c-.5.1.44-.01-.06.01l-.69.03-.39-.03c-.39-.01.45.1.05 0q-.28-.05-.56-.14c-.23-.08-.28-.23.07.04l-.23-.12-.23-.13c-.18-.12-.24-.3.08.07l-.43-.41c-.2-.22.12.15.13.17l-.17-.24q-.1-.22-.23-.44c.28.45.13.3.06.12l-.06-.2c-.05-.18-.06-.4-.13-.58.15.43.02.11.02-.06v-.35l.01-.33-.04.28.05-.24a4 4 0 0 0 .16-.56c-.01.35-.17.34-.04.12l.2-.32c.18-.33-.28.28-.1.1l.17-.2c.12-.13.28-.23.39-.36-.31.36-.25.18-.07.06l.23-.14.56-.29c.23-.12-.5.19-.13.06l.3-.1.5-.15.27-.05c.26-.07-.54.05-.15.02l.66-.02.33.01c.4.02-.5-.1-.1-.02l.62.15.3.11c-.43-.09-.29-.13-.08-.03.18.1.36.26.54.34-.38-.16-.25-.2-.06-.04l.23.23c.17.18.14.33-.02-.06l.19.29a3 3 0 0 1 .27.53l-.08-.19q.13.41.23.84a2 2 0 0 0 2.46 1.4 2.05 2.05 0 0 0 1.4-2.45" class="b"/><path d="M183.87 199.85c15.16-.09 62.1-.47 75.24-.46a5.6 5.6 0 0 1 4.89 2.84c3.71 6.48 12 21.73 14.97 27.89a6 6 0 0 1 .56 2.45v1.21a5.65 5.65 0 0 1-5.62 5.65c-19.7.09-78.98.45-98.5.54a5.65 5.65 0 0 1-5.67-5.65v-1.45a6 6 0 0 1 .2-1.5c1.1-4.02 6.16-19.86 8.58-27.57a5.6 5.6 0 0 1 5.35-3.95" class="a"/><path d="M183.87 201.85q25.8-.15 51.59-.35 11.19-.09 22.37-.1c1.93 0 3.49.2 4.55 2.03q1.56 2.69 3.04 5.42 3.74 6.77 7.37 13.6 1.59 3 3.12 6 .61 1.15 1.16 2.32a6 6 0 0 1 .46 2.83 3.7 3.7 0 0 1-3.62 3.84c-1.4.06-2.8 0-4.19.02l-24.3.12-57.13.32-10.21.05c-1.58.01-3.44.32-4.8-.64-1.8-1.28-1.84-3.85-1.3-5.8 2.37-8.64 5.3-17.16 8-25.71.65-2.04 1.43-3.86 3.89-3.95 2.57-.1 2.58-4.1 0-4a7.7 7.7 0 0 0-7.03 4.77c-.88 2.16-1.46 4.48-2.16 6.7q-2.42 7.62-4.8 15.25c-1.26 4.1-3.33 8.83-1.4 13.04a7.7 7.7 0 0 0 6.93 4.36c1.48.03 2.98-.02 4.46-.02l56.94-.32 27.9-.15 5.32-.03a35 35 0 0 0 5.1-.13c5.95-.93 7.7-7.73 5.4-12.57-4.2-8.82-9.07-17.4-13.87-25.9-1.33-2.36-2.82-4.5-5.62-5.2a21 21 0 0 0-5.02-.25q-5.55.01-11.1.05-28.37.15-56.73.38l-4.31.02c-2.58.01-2.59 4.01-.01 4" class="b"/><path d="M268.87 231.32c-5.08 0-84.19.79-90.34.79" class="a"/><path d="M268.87 229.32c-10.4 0-20.8.17-31.2.27l-46.15.42q-6.5.08-13 .1c-2.56 0-2.57 4 0 4 10.66 0 21.32-.17 31.97-.27l45.94-.42q6.22-.08 12.44-.1c2.57 0 2.58-4 0-4" class="b"/><path d="m192.84 215.28 5.7 4.58a15 15 0 0 0 3.5 2.32c4.4 1.86 9.45-.67 14.17 0a19 19 0 0 0 3.8.52 2.94 2.94 0 0 0 2.86-2.13 4 4 0 0 0-.8-2.52 49 49 0 0 0-11.04-12.54 16 16 0 0 0-6.8-3.08 28 28 0 0 0-6.6-.52 64 64 0 0 0-6.77.58c-2.46.38-5.46.52-6.24 2.88-.74 2.23.88 4.5 2.4 6.29Z" class="g"/><path d="m225.84 218.84 6.4.12a11 11 0 0 0 3.87-.38 9 9 0 0 0 3.57-2.64 3 3 0 0 0 .95-1.92 3.2 3.2 0 0 0-1.1-1.94l-11.04-11.6A26 26 0 0 0 222 195a2 2 0 0 0-.58-.2c-.33-.03-1.63-.23-1.96-.25a68 68 0 0 0-12.59 1.46 11 11 0 0 0-3.58 1.75c-1.33 1.13-2.29 2.14-1.32 3.58l17.8 16.96Z" class="g"/><path d="M257.96 208.17a2.3 2.3 0 0 0 2.76-1.45 3.7 3.7 0 0 0-.6-3.27c-1.45-2.1-4.2-2.88-6.74-3.11-2.43-.23-4.93-.11-7.23-.91-2.77-.97-5-3.18-7.83-3.93a8.3 8.3 0 0 0-8.3 2.57l-2.95 4.51s9.33 11.83 9.5 11.78 6.25-1.33 6.25-1.33c2.44-.69 7.55-2.22 10-2.91Z" class="g"/><path d="M188.45 210.25c-.96-1.15-3.32-4.05-1.04-5.05a19 19 0 0 1 5.62-.97c5.2-.53 11.02-.83 15.63 2.04a32 32 0 0 1 6.01 5.34 46 46 0 0 1 4.75 6c.37.55 1.68 2.03 1.45 2.74-.16.48-1.82.34-2.43.22a23 23 0 0 0-3.9-.5 31 31 0 0 0-4.37.4c-2.65.36-5.6.92-8.06-.48a29 29 0 0 1-3.68-2.76l-4.18-3.36a2.06 2.06 0 0 0-2.82 0 2 2 0 0 0 0 2.83l4.55 3.66a30 30 0 0 0 4.3 3.18c3.04 1.65 6.37 1.42 9.68.96a32 32 0 0 1 4.58-.43c1.78.01 3.49.7 5.27.64 3.24-.1 6.01-2.82 4.75-6.15a19 19 0 0 0-2.41-4.03q-1.5-2.15-3.21-4.15a44 44 0 0 0-7.4-6.97c-5.51-4.02-12.95-3.85-19.41-3.09-2.75.33-6.3.44-8.32 2.6-3 3.21-.46 7.43 1.8 10.15 1.66 1.98 4.48-.86 2.84-2.82" class="b"/><path d="m205.91 218.17 1.03-.18.55-.08-.21.03.32-.04q1-.12 2-.17a31 31 0 0 1 4.08.06 2 2 0 0 0 2-2 2.05 2.05 0 0 0-2-2 33 33 0 0 0-8.82.53 2 2 0 0 0-1.4 2.46 2.05 2.05 0 0 0 2.46 1.4Zm-2.22-17.84c-.2-.33-.15.04.03-.25a4 4 0 0 1 .98-.9 8 8 0 0 1 2.13-1.08 27 27 0 0 1 4.36-.85 35 35 0 0 1 8.68-.66l1.14.16c.55.06.06.02-.03-.02q.38.2.74.42a16 16 0 0 1 2.48 1.87c1.67 1.5 3.17 3.18 4.72 4.8l4.85 5.1 2.5 2.64a13 13 0 0 1 2.27 2.42c.24.47.07.15.08.07-.04.22-.35.47-.49.63a10 10 0 0 1-1.17 1.15 5 5 0 0 1-2.98 1.13c-2.69.16-5.44-.07-8.14-.12-2.57-.05-2.57 3.95 0 4a67 67 0 0 0 9.01.04 10 10 0 0 0 6.8-4.2 4.1 4.1 0 0 0 .86-3.56 8 8 0 0 0-2.4-3.33l-6.19-6.5c-2.02-2.13-4-4.32-6.1-6.36-1.8-1.74-4.02-3.8-6.57-4.14-3.8-.51-7.8.09-11.62.68a18 18 0 0 0-6.44 1.94c-2.5 1.47-4.61 4.06-2.96 6.95 1.28 2.23 4.74.22 3.46-2.02Z" class="b"/><path d="M231.43 199.49a6.4 6.4 0 0 1 6.74-1.95c2.81.89 5.02 3.1 7.88 3.95 3.05.92 6.3.39 9.36 1.22a5.5 5.5 0 0 1 2.92 1.67c.17.21 1.02 2.1.16 1.86-2.48-.67-3.54 3.18-1.06 3.86a4.3 4.3 0 0 0 4.88-2.08 5.5 5.5 0 0 0-.67-5.87c-2.58-3.49-7.05-3.74-11.01-3.99a13 13 0 0 1-5.99-1.67 28 28 0 0 0-5.4-2.81 10.4 10.4 0 0 0-10.64 2.98c-1.71 1.9 1.1 4.75 2.83 2.83" class="b"/><path d="M243.35 214.96c3.34-.95 6.66-1.96 10-2.91a2 2 0 0 0-1.06-3.86c-3.34.95-6.66 1.97-10 2.92a2 2 0 1 0 1.06 3.85m.75-6.5a25 25 0 0 1 4.25-1.18l.51-.09c-.55.04.02 0 .14 0q.53-.06 1.06-.08a18 18 0 0 1 2.28.06 2 2 0 0 0 2-2 2.05 2.05 0 0 0-2-2 22 22 0 0 0-9.3 1.43 2 2 0 0 0 1.06 3.86" class="b"/><path d="m240.88 199.45.13-.2c0-1.55-1.87-2.37-2.82-2.24a6 6 0 0 0-2.57 1.24c-3.95 2.88-8.39 9.24-9.2 12.3a2.6 2.6 0 0 0 .21 1.71 6 6 0 0 0 1.74 1.8.7.7 0 0 0 .46.1c.35-.05.48-.46.69-.74 3.78-5.04 7.92-9.04 11.36-13.97" class="d"/><path d="M242.6 200.46c1.24-1.78-.41-4.1-2.05-4.91a5.2 5.2 0 0 0-5.34.57 29 29 0 0 0-7.4 7.62 28 28 0 0 0-2.37 3.91 7 7 0 0 0-.93 4.73 6 6 0 0 0 1.69 2.48 3.5 3.5 0 0 0 3.16 1.22c1.15-.29 1.61-1.31 2.28-2.17q.91-1.2 1.87-2.33c3.07-3.68 6.33-7.2 9.09-11.12a2 2 0 0 0-.72-2.73 2.04 2.04 0 0 0-2.73.71 91 91 0 0 1-5.74 7.12q-1.54 1.76-3.03 3.55-.76.92-1.5 1.86l-.9 1.18-.31.44q-.18.33-.08.08l.89-.51c.62-.23.94.27.46-.2q-.22-.22-.4-.46c-.18-.2-.23-.35-.16-.12-.03-.09.08-.76 0-.43a5 5 0 0 1 .33-.9c-.16.38.06-.12.1-.2l.26-.54a30 30 0 0 1 3.2-4.89 27 27 0 0 1 4.21-4.33 9 9 0 0 1 1.37-.89c.15-.07.46-.12.59-.2h-.05q.22 0-.14-.04a3 3 0 0 1 .5.14c-.37-.14.11.08.19.13-.28-.2.11.12.17.18a.3.3 0 0 1-.13-.22q.09.35.02.06l.28-1-.14.2a2 2 0 0 0 .72 2.73 2.04 2.04 0 0 0 2.74-.72" class="b"/><path d="M199.22 216.4a3 3 0 0 0 .2-.88 4 4 0 0 0-.4-1.53c-.4-.96-.93-2.03-1.93-2.3-1.1-.28-2.16.57-3.02 1.33a39 39 0 0 1-8.55 5.68 1.66 1.66 0 0 0-.58 2.5 6 6 0 0 0 1.67 1.58 14 14 0 0 0 5.7 1.2 5 5 0 0 0 2.4-.46 6 6 0 0 0 2.08-2.28 34 34 0 0 0 2.3-4.54z" class="e"/><path d="M201.14 216.94a6 6 0 0 0-1.01-5.2 4.1 4.1 0 0 0-4.65-1.92c-1.66.5-2.88 1.9-4.2 2.94a36 36 0 0 1-4.04 2.76c-1.38.81-3.25 1.38-4.12 2.8-1.1 1.77-.28 3.63 1 5a8.6 8.6 0 0 0 4.49 2.24 14 14 0 0 0 5.47.27c2.06-.37 3.4-1.87 4.45-3.58a34 34 0 0 0 2.62-5.31 2 2 0 0 0-1.4-2.46 2.05 2.05 0 0 0-2.46 1.4 27 27 0 0 1-1.55 3.2q-.43.78-.9 1.54a4 4 0 0 1-.79.97c-.63.52-1.82.44-2.8.36a11 11 0 0 1-3.61-.89c-.05-.02-.4-.22-.2-.1s-.07-.06-.1-.08l-.3-.3a6 6 0 0 1-.5-.56l.06.16-.03-.1a.2.2 0 0 1 0 .18c0 .25.15-.19.02 0l-.12.19c-.02.05-.37.18.06-.02l.34-.17q.86-.43 1.7-.91a42 42 0 0 0 6.42-4.5 11 11 0 0 1 1.4-1.1c.1-.05.42-.2.26-.1-.03 0-.14-.04-.15-.06-.16-.14.24.2-.01-.02l.26.27c-.14-.17-.03-.01.02.08q.2.36.37.71a3 3 0 0 1 .27.77l.03.13h-.03c.01-.23-.12.33-.13.35a2 2 0 1 0 3.86 1.06" class="b"/><path d="M263.94 217.63a3 3 0 0 0-1.38-2.56c-1.06-.63-2.29-.29-3.4-.03a45 45 0 0 0-8.62 2.55c-.97.4-1.31 1.59-1.51 2.71a3.5 3.5 0 0 0 .88 2.55 10.5 10.5 0 0 0 4.44 2.39 5 5 0 0 0 2.42.33 6 6 0 0 0 2.7-1.48 25 25 0 0 0 3.65-3.56 5 5 0 0 0 .82-2.9" class="e"/><path d="M265.94 217.63a5 5 0 0 0-3.08-4.61c-1.72-.65-3.55-.07-5.25.32a58 58 0 0 0-4.26 1.09q-1.17.36-2.31.81a7 7 0 0 0-2.53 1.37 5.62 5.62 0 0 0 1.2 8.65 14 14 0 0 0 4.1 1.9 6.4 6.4 0 0 0 5.52-.48 22 22 0 0 0 4.52-3.91 7.3 7.3 0 0 0 2.1-5.14c-.02-2.58-4.02-2.58-4 0 0 .12-.02.57 0 .46.02-.23-.04.2-.05.25l-.07.32a2 2 0 0 1-.15.43 3 3 0 0 1-.48.65 26 26 0 0 1-2.82 2.67c-.75.64-1.45 1.3-2.42 1.2a8 8 0 0 1-1.54-.46 11 11 0 0 1-1.34-.53 8 8 0 0 1-1.25-.75l-.4-.35-.17-.16c.3.22.11.18.01-.02-.04-.08-.25-.56-.17-.33l-.11-.41c0 .05.02.23.02 0 0-.33-.06.26.01-.08l.07-.32c.04-.13.24-.72.14-.51l.2-.35c-.16.2-.02-.05.05-.03-.07-.02-.27.15.12-.01a32 32 0 0 1 5.12-1.64c1.3-.32 2.63-.7 3.96-.9a2 2 0 0 1 .7-.04c-.15-.03.35.15.13.01a.9.9 0 0 1 .44.9 2.05 2.05 0 0 0 2 2 2 2 0 0 0 1.99-2" class="b"/><path d="M303.62 223.72a8 8 0 0 1-.74-1.46l-.2-.8c4.16 1.7 9.25 1.8 13.38 1.74a33 33 0 0 0 7.9-.93q.81-.22 1.57-.5c-.18 2.05-1.29 3.53-3.48 4.81a12.5 12.5 0 0 1-6.5 1.67c-3.5.08-6.92-.43-8.64-1.41a9.6 9.6 0 0 1-3.3-3.12" class="a"/><path d="M323.97 222.27a33 33 0 0 1-7.9.93c-5.89.1-13.73-.18-18.05-4.86a6.4 6.4 0 0 1-1.82-5.51 7.7 7.7 0 0 1 3.39-4.3c4.35-3.1 9.48-4.16 14.74-4.16a30 30 0 0 1 13.57 3.16c2.17 1.16 4.27 3.01 4.57 5.46a6 6 0 0 1-.56 3.25 11 11 0 0 1-6.22 5.47 18 18 0 0 1-1.72.56" class="a"/><path d="M323.43 220.34a34 34 0 0 1-8.34.87 45 45 0 0 1-6.86-.36 18 18 0 0 1-6.52-2.1c-1.8-1.06-4-3.06-3.58-5.4s3.49-3.9 5.4-4.83a22 22 0 0 1 7.83-2.03c5.31-.44 11.16.26 15.85 2.94 2.32 1.33 4.1 3.4 2.82 6.13-1.23 2.62-3.94 4.03-6.6 4.78-2.47.69-1.42 4.55 1.07 3.85a14.6 14.6 0 0 0 8.22-5.36c2-2.82 2.48-6.6.37-9.5-1.94-2.65-5-4.13-8.02-5.19a33 33 0 0 0-10.34-1.77 31 31 0 0 0-10.44 1.53c-3.02 1.06-6.28 2.7-8.35 5.23a7.6 7.6 0 0 0-.16 9.6 15 15 0 0 0 7.22 4.98 33 33 0 0 0 10.04 1.49 43 43 0 0 0 11.45-1c2.5-.64 1.44-4.5-1.06-3.86" class="b"/><path d="M301.15 223.27c2.67 4.46 8.68 4.89 13.32 4.93a23 23 0 0 0 7.56-.98c2.28-.78 4.55-1.94 5.35-4.38.8-2.45-3.05-3.5-3.85-1.06a2.4 2.4 0 0 1-1.03.92 11 11 0 0 1-2.38.93 21 21 0 0 1-6.08.56 23 23 0 0 1-6-.66 7 7 0 0 1-2.34-1.14 4 4 0 0 1-1.1-1.14c-1.32-2.2-4.78-.2-3.45 2.02" class="b"/><path d="M114.62 224.38a8 8 0 0 1-.74-1.45l-.2-.8c4.16 1.69 9.25 1.8 13.38 1.74a33 33 0 0 0 7.9-.94q.81-.2 1.57-.49c-.18 2.04-1.29 3.53-3.48 4.8a12.5 12.5 0 0 1-6.5 1.68c-3.5.08-6.92-.43-8.64-1.41a9.6 9.6 0 0 1-3.3-3.13" class="a"/><path d="M134.97 222.93a33 33 0 0 1-7.9.94c-5.89.1-13.73-.18-18.05-4.86a6.4 6.4 0 0 1-1.82-5.52 7.7 7.7 0 0 1 3.38-4.3c4.36-3.09 9.49-4.15 14.75-4.15a30 30 0 0 1 13.57 3.16c2.18 1.16 4.27 3.01 4.58 5.46a6 6 0 0 1-.56 3.25 11 11 0 0 1-6.22 5.47 18 18 0 0 1-1.73.55" class="a"/><path d="M134.43 221a34 34 0 0 1-8.34.88 45 45 0 0 1-6.86-.36 18 18 0 0 1-6.52-2.1c-1.8-1.06-4-3.06-3.58-5.4s3.49-3.9 5.4-4.83a22 22 0 0 1 7.83-2.03c5.31-.45 11.16.25 15.85 2.94 2.32 1.33 4.1 3.39 2.82 6.13-1.23 2.62-3.94 4.03-6.6 4.77-2.47.7-1.42 4.55 1.07 3.86a14.6 14.6 0 0 0 8.22-5.36c2-2.82 2.48-6.6.37-9.5-1.94-2.66-5-4.14-8.02-5.2a33 33 0 0 0-10.34-1.76 31 31 0 0 0-10.43 1.53c-3.02 1.05-6.3 2.7-8.35 5.22a7.6 7.6 0 0 0-.17 9.6 15 15 0 0 0 7.22 4.99 33 33 0 0 0 10.04 1.49 43 43 0 0 0 11.45-1c2.5-.65 1.44-4.5-1.06-3.87" class="b"/><path d="M112.15 223.94c2.67 4.46 8.68 4.89 13.32 4.93a23 23 0 0 0 7.56-.98c2.28-.78 4.55-1.95 5.35-4.38.8-2.45-3.05-3.5-3.85-1.06a2.4 2.4 0 0 1-1.03.92 11 11 0 0 1-2.38.93 21 21 0 0 1-6.08.56 23 23 0 0 1-6-.66 7 7 0 0 1-2.34-1.15 4 4 0 0 1-1.1-1.13c-1.32-2.2-4.78-.2-3.45 2.02" class="b"/><path d="M250.8 68a4.3 4.3 0 0 1 3.45-1 4 4 0 0 1 2.93 1.94 6 6 0 0 1 .6 2.32 17 17 0 0 1-1.76 9.12 11 11 0 0 1-2.83 3.72 3.3 3.3 0 0 1-3.31.77l-.5-.15c-.3 1.2-.7 2.25-.89 2.76-.98 2.5-6.53 11.4-13.5 14.57.07.55.16 1.17.3 2 .37 2.12.97 4.52 3.79 6.08.1.03 1.06.48 2.03.94-4.3 4.21-11.4 6.1-18.7 6.1-5.7 0-13.3-1.2-18.62-5.78 1.16-.54 2.6-1.22 2.72-1.26 2.81-1.56 3.41-3.96 3.78-6.08q.14-.75.2-1.3a27 27 0 0 1-9.8-7.24 31 31 0 0 1-6.13-10.43l-.73.2a4.1 4.1 0 0 1-3.73-1.18 11 11 0 0 1-2.83-3.71 17 17 0 0 1-1.76-9.14 6 6 0 0 1 .6-2.3 4 4 0 0 1 2.93-1.95 4.3 4.3 0 0 1 3.45 1s-5.86-26.93 28.81-26.93S250.8 68 250.8 68" class="a"/><path d="M202.88 113.99c1.42-.59 2.79-1.3 4.18-1.93l.31-.14-.35.15.58-.26a9 9 0 0 0 1.87-1.39 9 9 0 0 0 2.16-3.45 17 17 0 0 0 .8-3.71 2.2 2.2 0 0 0-.2-1.54 2 2 0 0 0-3.65.48 21 21 0 0 1-.6 3.1l-.23.66-.06.16.09-.2q-.1.18-.18.37a7 7 0 0 1-.4.67c-.04.07-.29.4-.1.16s-.12.12-.18.19q-.28.3-.58.56c-.28.24.27-.18-.05.04l-.44.29c-.37.23-.02.03.11 0a3 3 0 0 0-.52.23l-.26.11-1.98.93-1.14.53c-.24.11-1.22.53-.24.13a2.2 2.2 0 0 0-1.2.92 2 2 0 0 0 2.26 2.93ZM233 102.04c.34 2.6.68 5.32 2.34 7.46a9 9 0 0 0 1.58 1.58 8 8 0 0 0 1.01.69 4 4 0 0 0 .64.29c.1.04-.62-.27-.34-.14l1.99.92q1 .49 2.02.94a2.2 2.2 0 0 0 1.54.2 2 2 0 0 0 .48-3.65c-.75-.32-1.48-.69-2.21-1.03l-1.37-.64-.43-.2-.58-.24c-.15.03.43.23.2.05l-.47-.3q-.28-.2.03.02l-.24-.19c-.2-.18-.7-.54-.78-.82l.07.09-.15-.22-.27-.45c-.03-.06-.17-.44-.22-.46l-.03-.1a12 12 0 0 1-.49-1.87l-.2-1.17-.1-.62q0-.15-.03-.28.06.45.01.14a2.05 2.05 0 0 0-2-2c-.96.04-2.14.88-2 2" class="b"/><path d="m185.65 185.35.5-15.74.04-1.44c-3.4 3.34-7.4 5.78-10.47 6.2-5.27.72-11.09-1.8-13.2-6.39a29 29 0 0 1-1.74-10.36c.86-11.78 6.16-21.04 12.94-30.93a48 48 0 0 1 6.56-7.25 52 52 0 0 1 7.86-4.5 55 55 0 0 1 14.56-4.57c5.33 5.43 13.61 6.8 19.72 6.8 7.67 0 15.11-2.09 19.33-6.75a55 55 0 0 1 14.3 4.51 52 52 0 0 1 7.86 4.51 48 48 0 0 1 6.56 7.25c6.78 9.89 12.08 19.15 12.94 30.93a29 29 0 0 1-1.74 10.36c-2.1 4.6-7.93 7.11-13.2 6.4-3.08-.43-7.1-2.9-10.51-6.25l-.66-.65.05 1.97q.23 7.95.5 15.9" class="a"/><path d="M189.21 55.9a31 31 0 0 1 13.28-22.64 32.6 32.6 0 0 1 19.33-5.95 34 34 0 0 1 11.4 1.87 33 33 0 0 1 4.82 2.16 38 38 0 0 1 5.51 3.65c.66.58 1.63 1.52 2.27 2.16a30 30 0 0 1 4.18 5.3 31.6 31.6 0 0 1 4.56 15.31 43 43 0 0 1-.6 9.21 4.3 4.3 0 0 0-2.55.6l-1.24.73a4 4 0 0 1-2.67.54 2 2 0 0 1-1.2-1.04 7 7 0 0 1-.57-1.73 27 27 0 0 0-5.64-12.66 7 7 0 0 0-2.32-3.5 4 4 0 0 0-3.25-.75 52 52 0 0 1-6.04 2.49c-1.51.52-3.52.9-4.63-.06-1.05-.91-.62-2.57-1.87-3.31a4.2 4.2 0 0 0-3.05-.07c-10.68 2.67-17.11 9.16-21.07 17.39 0 0-1.07 2.18-2.47 2.5a10 10 0 0 1-2.9-.1 4.2 4.2 0 0 0-2.62-1.04c.2 1.92-.97-5.08-.8-9.2q.05-.95.14-1.86" class="h"/><path d="M252.22 69.42a2.2 2.2 0 0 1 3.23.53 5.4 5.4 0 0 1 .38 2.4 14 14 0 0 1-.2 2.88 15 15 0 0 1-2.05 5.41 8 8 0 0 1-1.6 1.89 1.5 1.5 0 0 1-1.57.41c-2.49-.66-3.55 3.2-1.06 3.86 3.16.84 5.64-1.19 7.36-3.65a18.4 18.4 0 0 0 3-8.31c.33-2.77.32-6.27-1.92-8.28a6.36 6.36 0 0 0-8.4.03 2 2 0 0 0 0 2.83 2.04 2.04 0 0 0 2.83 0" class="b"/><path d="M247.77 82.19a14 14 0 0 1-.94 4.03l-.26.73c-.11.33.22-.41.04-.1q-.23.4-.42.83a34 34 0 0 1-3.16 4.84c-2.83 3.67-6.6 7.48-11.29 8.5-2.51.56-1.45 4.42 1.06 3.86 5.56-1.21 10.01-5.58 13.37-9.94 2.88-3.72 5.39-7.92 5.6-12.75.12-2.58-3.88-2.57-4 0m-53.87-15.6a6.36 6.36 0 0 0-8.4-.04c-2.3 2.07-2.25 5.7-1.88 8.52a18 18 0 0 0 3.13 8.32c1.78 2.44 4.43 4.51 7.61 3.81a2 2 0 1 0-1.06-3.85c-1.35.3-2.78-1.48-3.43-2.46a15 15 0 0 1-2.18-5.5 14 14 0 0 1-.24-2.85 6 6 0 0 1 .4-2.59 2.2 2.2 0 0 1 3.22-.53 2.05 2.05 0 0 0 2.83 0 2 2 0 0 0 0-2.83" class="b"/><path d="M191.54 81.63a33 33 0 0 0 7.61 15.13c4 4.54 9.35 8.29 15.44 9.15a2.07 2.07 0 0 0 2.46-1.4 2 2 0 0 0-1.4-2.46c-10.49-1.5-18.22-11.6-20.25-21.48-.52-2.52-4.38-1.46-3.86 1.06m64.39-14.35c1.45-8.95.56-18.44-4.44-26.22a34.6 34.6 0 0 0-20.63-14.67 37 37 0 0 0-25.58 2.81 34.5 34.5 0 0 0-14.05 13.54 33 33 0 0 0-3.95 12.48 44 44 0 0 0 .57 12.07 2 2 0 0 0 2.46 1.4 2.05 2.05 0 0 0 1.4-2.46c-1.04-6.44-.9-13.11 1.8-19.15a30.4 30.4 0 0 1 11.06-12.82c13.04-8.55 31.5-5.75 41.5 6.14 6.01 7.14 7.47 16.83 6 25.82a2.06 2.06 0 0 0 1.4 2.47 2 2 0 0 0 2.47-1.4Zm-14.7 45.06a53 53 0 0 1 17.9 6.43 22 22 0 0 1 4.24 2.92 55 55 0 0 1 4.1 4.34 71 71 0 0 1 6.03 9.01 55 55 0 0 1 7.54 19.31 25 25 0 0 1-.07 8.69c-.5 2.68-1.12 5.02-3.24 6.85a11.6 11.6 0 0 1-8.96 2.51c-3.6-.53-6.87-3.24-9.4-5.69-1.84-1.8-4.68 1.03-2.82 2.83a26 26 0 0 0 9.73 6.36 15 15 0 0 0 10.03-.6 13 13 0 0 0 7.38-7 28 28 0 0 0 1.73-9.24 36 36 0 0 0-1.68-10.98 58 58 0 0 0-4.37-10.75 106 106 0 0 0-6.2-10.21 46 46 0 0 0-3.58-4.75 29 29 0 0 0-4.81-4.75 57 57 0 0 0-22.5-9.14 2.06 2.06 0 0 0-2.45 1.4 2 2 0 0 0 1.4 2.46m-39.33-3.86a57 57 0 0 0-20.12 7.6 26 26 0 0 0-4.82 3.78 47 47 0 0 0-4.3 4.87 94 94 0 0 0-6.47 10.08 54.5 54.5 0 0 0-7.36 22.16 28 28 0 0 0 1.04 9.44 12.8 12.8 0 0 0 5.53 7.64 15.7 15.7 0 0 0 11.28 2.17c4.2-.82 7.97-3.78 10.96-6.68 1.85-1.8-.98-4.62-2.83-2.83-2.36 2.3-5.2 4.59-8.43 5.48a11.3 11.3 0 0 1-8.06-1.06 8.9 8.9 0 0 1-4.63-5.94 25 25 0 0 1-.86-8.22 49 49 0 0 1 6.5-19.6 122 122 0 0 1 5.87-9.32 29 29 0 0 1 7.42-7.77 55 55 0 0 1 20.34-7.94 2 2 0 0 0 1.4-2.46 2.05 2.05 0 0 0-2.46-1.4" class="b"/><path d="M236.1 46.12a51 51 0 0 1-5.37 2.57c-1.46.59-3.43 1.65-5.06 1.5-.6-.06-.47-.01-.66-.56a7 7 0 0 0-.98-2.16c-1.3-1.61-3.37-1.66-5.24-1.28a32 32 0 0 0-16.83 9.67 37 37 0 0 0-5.82 8.74c-1.13 2.3 2.32 4.33 3.45 2.01a30 30 0 0 1 11.18-12.9 28 28 0 0 1 9.08-3.66 3 3 0 0 1 .92-.1c.26.05.13 0 .17.03.17.19.22.77.3 1a6 6 0 0 0 .5 1.16 4.6 4.6 0 0 0 4.28 2.04 18 18 0 0 0 5.98-1.72 60 60 0 0 0 6.12-2.9c2.26-1.23.24-4.69-2.02-3.45Zm2.35 8.42a28 28 0 0 1 1.9 2.72 28 28 0 0 1 1.62 3 24 24 0 0 1 1.05 2.86 25 25 0 0 1 .76 3.31 2 2 0 0 0 2.46 1.4 2.06 2.06 0 0 0 1.4-2.46 29 29 0 0 0-6.36-13.66 2 2 0 0 0-2.83 0 2.06 2.06 0 0 0 0 2.83" class="b"/><path d="M191.48 69.73a5 5 0 0 0 2.45.63 5 5 0 0 0 2.03-.32 6 6 0 0 0 2.21-1.4 7 7 0 0 0 1.42-2.03 2.2 2.2 0 0 0 .2-1.54 2 2 0 0 0-2.46-1.4 2 2 0 0 0-1.2.92 6 6 0 0 1-.7 1.17l.31-.4a5 5 0 0 1-.78.8l.4-.32a4 4 0 0 1-.89.52l.48-.2a4 4 0 0 1-.89.24l.53-.07a4 4 0 0 1-1.01 0l.53.06a4 4 0 0 1-.93-.22l.48.2-.17-.1a2 2 0 0 0-2.94 2.26 2.2 2.2 0 0 0 .92 1.2Zm52.26-3.56a4.5 4.5 0 0 0 2.24 3.91 6.2 6.2 0 0 0 5.84-.35 2 2 0 0 0 .71-2.73 2.05 2.05 0 0 0-2.73-.72l-.52.25.48-.2a6 6 0 0 1-1.36.4l.53-.08a4 4 0 0 1-1.04 0l.53.08a3 3 0 0 1-.64-.17l.48.2a3 3 0 0 1-.62-.37l.4.32a2 2 0 0 1-.4-.4l.32.4a2 2 0 0 1-.29-.48l.2.48a3 3 0 0 1-.18-.66l.07.53-.03-.4a2 2 0 0 0-.58-1.42 2 2 0 0 0-3.42 1.41Zm-9.05-14.73.4.14-.49-.2a8 8 0 0 1 1.73 1.07l-.4-.32a18 18 0 0 1 2.52 2.4 2 2 0 0 0 3.41-1.4 2.2 2.2 0 0 0-.58-1.42 18 18 0 0 0-2.2-2.15 10 10 0 0 0-3.32-1.98 2 2 0 0 0-2.46 1.4 2.04 2.04 0 0 0 1.4 2.47Zm-33.02 60.72c5.38 5.05 12.92 6.9 20.13 7 7.51.12 16.05-1.6 21.37-7.34 1.74-1.88-1.08-4.72-2.83-2.83-4.61 4.98-12.05 6.27-18.55 6.17-6.12-.1-12.7-1.53-17.29-5.83-1.88-1.76-4.71 1.06-2.83 2.83m58.19 73.19c-.36-10.83-.73-21.65-.84-32.48-.03-2.58-4.03-2.58-4 0 .1 10.83.48 21.65.84 32.48.08 2.57 4.08 2.58 4 0m-72.21 0c.35-10.71.72-21.43.83-32.15.02-2.58-3.98-2.58-4 0-.11 10.72-.48 21.43-.83 32.15-.09 2.57 3.91 2.57 4 0m19.1-113.6c-.46 1.5-.15 4.97 2.7 5.26 3.75-.02 3.95-4.2 2.69-6.16-1.04-1.61-4.09-2.28-5.38.9" class="b"/><path d="M197.4 31.5a70 70 0 0 0-10.93 23.97 15 15 0 0 1 4.32-4.05c3.7-2.5 10.15-4.76 15.08-5.91 6.94-1.62 18.82-1.8 23.15-1.1 8.27 1.34 15.97 3.44 20.67 6.18 4.1 2.39 6.88 4.13 7.9 5.81a10.8 10.8 0 0 1 12.09-1.67 172 172 0 0 0-15.34-23.86 51 51 0 0 0-8.1-8.8 30.4 30.4 0 0 0-22.6-6.51c-8 .97-15.33 5.16-21.37 10.5a36 36 0 0 0-4.87 5.44" class="c"/><path d="M236.75 71.76c.46 1.5.16 4.95-2.69 5.25-3.76-.02-3.96-4.2-2.7-6.16 1.04-1.61 4.1-2.28 5.39.9m-48-17.11a69 69 0 0 1 9.37-20.73 41 41 0 0 1 15.3-13.13 29.6 29.6 0 0 1 21.25-2.44 28 28 0 0 1 9.72 4.77 46 46 0 0 1 8.22 8.75 173 173 0 0 1 15.34 23.86l2.74-2.74a12.8 12.8 0 0 0-15.57 3.12 2.06 2.06 0 0 0 0 2.83 2 2 0 0 0 2.82 0 8.8 8.8 0 0 1 10.73-2.5 2.02 2.02 0 0 0 2.73-2.73 174 174 0 0 0-14.5-22.75 62 62 0 0 0-8.4-9.6 32.4 32.4 0 0 0-33.78-5.51 44 44 0 0 0-18.03 13.3 70 70 0 0 0-11.8 24.44c-.68 2.48 3.17 3.54 3.86 1.06" class="b"/><path d="M249.69 50.58c-4.7-2.74-12.4-4.84-20.67-6.18-4.33-.7-16.2-.52-23.15 1.1-4.93 1.15-11.38 3.41-15.08 5.9s-5.63 5.04-5.72 8.52a5.3 5.3 0 0 0 2.55 4.67 8.4 8.4 0 0 0 6.45.5c13.55-6.9 27.34-8.76 41.19-4.3 5.36 1.72 10.28 4.32 16.22 4.78a9 9 0 0 0 4.78-.63 4.5 4.5 0 0 0 1.89-1.9c1.24-2.25.72-4.25-.47-6.47-.93-1.74-3.75-3.52-8-5.99" class="a"/><path d="M250.7 48.85c-5.1-2.92-11.04-4.43-16.77-5.59a64 64 0 0 0-14.78-1.2 68 68 0 0 0-15.63 1.97c-5.53 1.49-11.3 3.52-15.8 7.18-3.96 3.23-6.57 9.23-2.84 13.68 1.93 2.29 5.32 2.9 8.15 2.47a17 17 0 0 0 4.67-1.81q2.36-1.08 4.8-1.96a52 52 0 0 1 19.6-3.17c6.74.28 12.84 2.35 19.1 4.65 5.53 2.04 16.04 5.52 19.09-1.92a8.8 8.8 0 0 0-1.98-9.05c-2.07-2.23-5.03-3.74-7.62-5.25-2.22-1.3-4.24 2.16-2.02 3.46a37 37 0 0 1 6.26 4.08c1.41 1.27 2.56 3.64 1.49 5.64-1.22 2.27-4.77 1.67-6.86 1.3a46 46 0 0 1-8.1-2.42 64 64 0 0 0-17.36-4.37 53 53 0 0 0-17.38 1.56 63 63 0 0 0-8.8 3.01c-2.59 1.09-5.1 2.94-8.03 2.22a3.5 3.5 0 0 1-2.77-4.12 8 8 0 0 1 3.13-4.93c3.87-3.26 9.15-4.97 13.96-6.3a61 61 0 0 1 13.48-1.87 89 89 0 0 1 7.46-.04 39 39 0 0 1 6.58.83c5.76 1.1 11.81 2.47 16.95 5.4 2.23 1.29 4.25-2.16 2.02-3.45" class="b"/><path d="M271.6 44.95a8.4 8.4 0 0 0-8.14 8.89c.16 5.2 3.78 8.67 8.68 8.52 5.08-.15 8.3-3.87 8.13-9.04a8.4 8.4 0 0 0-8.67-8.37" class="a"/><path d="M271.6 42.95a10.4 10.4 0 0 0-9.74 7.62 11.2 11.2 0 0 0 3.77 11.81 10.9 10.9 0 0 0 11.92.45c3.79-2.37 5.24-6.94 4.54-11.21a10.4 10.4 0 0 0-10.49-8.67c-2.57.05-2.58 4.05 0 4a6.3 6.3 0 0 1 6.32 4.39 7.3 7.3 0 0 1-1.73 7.54c-.05.05-.38.33-.15.14l-.5.35a7 7 0 0 1-.92.5 10 10 0 0 1-1.28.37l-.49.08a9 9 0 0 1-1.18.05q-.3 0-.58-.03c-.06 0-.53-.06-.25-.02a7 7 0 0 1-1.96-.6 5.7 5.7 0 0 1-2.69-2.74 8 8 0 0 1-.7-4.3 9 9 0 0 1 .57-2.03 6 6 0 0 1 1.34-1.92 6.4 6.4 0 0 1 4.2-1.77 2.04 2.04 0 0 0 2-2 2 2 0 0 0-2-2" class="b"/><path d="M255.62 124.92c4.1-13.61-6.56-11.45 1.2-35.85 4.57-.35 13.87 1.64 15.5 2.23.56 13.27-.96 17.7-8.5 27.74-1.56 8.33-3.9 30.37-6.82 36.82-12.14 6.8-2.28-21.7-1.38-30.94" class="i"/><path d="M257.55 125.46a20.5 20.5 0 0 0 .11-12.04c-.48-1.6-1.02-3.19-1.36-4.83a15 15 0 0 1-.35-2.7 28 28 0 0 1 .04-3.77 56 56 0 0 1 2.76-12.52l-1.93 1.47a37 37 0 0 1 8.49.72 41 41 0 0 1 6.49 1.44l-1.47-1.93c.2 4.76.32 9.67-1.07 14.29-1.28 4.3-3.92 8.06-6.56 11.64-1.12 1.52-1.19 3.47-1.47 5.3q-.48 3.16-.93 6.33c-.69 4.76-1.38 9.52-2.2 14.26-.42 2.31-.85 4.62-1.4 6.91a49 49 0 0 1-1.11 3.98l-.2.53-.12.33q.14-.32 0-.02l.72-.71q-.42.23-.84.43a1 1 0 0 1-.37.14q-.34.1-.7.18c-.27.07.37.02-.2 0s.06.08-.13 0c-.44-.17.16.17-.03 0-.28-.23-.03.16-.03 0 0 .03-.15-.15-.15-.15l.03.05-.23-.43c.26.48.01.03-.04-.14l-.14-.56c-.03-.13-.13-.89-.08-.41a20 20 0 0 1-.04-3.33c.35-5.56 1.87-11.28 3.1-16.86a72 72 0 0 0 1.48-8.14 2 2 0 0 0-2-2 2.05 2.05 0 0 0-2 2l-.18 1.3q-.18 1.08-.4 2.16-.48 2.42-1.03 4.83c-.77 3.47-1.57 6.94-2.17 10.45a37 37 0 0 0-.8 9.25c.21 2.4 1.02 5.15 3.65 5.84a6 6 0 0 0 3.56-.34 5 5 0 0 0 2.47-1.54 11 11 0 0 0 .85-2.17 77 77 0 0 0 2.43-10.83c.8-4.54 1.45-9.09 2.1-13.64l.86-5.84.4-2.5a8 8 0 0 1 .44-2.16 39 39 0 0 1 2.5-3.5q1.06-1.54 1.99-3.16a31 31 0 0 0 2.75-6.16c1.56-5.03 1.5-10.42 1.29-15.62a2.1 2.1 0 0 0-1.47-1.93 42 42 0 0 0-6.82-1.49 40 40 0 0 0-9.22-.8 2.1 2.1 0 0 0-1.93 1.46c-1.99 6.28-3.65 13.01-2.7 19.64a33 33 0 0 0 1.25 5.14q.36 1.12.66 2.26.15.55.26 1.12l.1.53c.1.57 0-.14.05.34a17 17 0 0 1-.83 6.83c-.72 2.47 3.13 3.53 3.87 1.06" class="b"/><path d="M262.1 100.18c.43-2.87.94-5.72 1.4-8.59a2.2 2.2 0 0 0-.2-1.54 2 2 0 0 0-3.65.48c-.47 2.86-.98 5.72-1.4 8.59a2.2 2.2 0 0 0 .2 1.54 2 2 0 0 0 3.66-.48Zm5.67.44q.83-4.94 1.43-9.9a2 2 0 0 0-2-2 2.06 2.06 0 0 0-2 2l-.14 1.11-.08.59c0 .1-.1.78-.02.21q-.16 1.24-.35 2.47-.33 2.23-.7 4.45a2.05 2.05 0 0 0 1.4 2.46 2.03 2.03 0 0 0 2.46-1.4Z" class="b"/><path d="M175.1 89.33a7 7 0 0 1 .06-3.84c.83-1.6 2.39-3.18 4.27-3.18a4 4 0 0 1 3.07 1.98 69 69 0 0 1 3.48 7.68c2.38 7.37 6.25 17.38 5.98 25.17a11 11 0 0 1-1.24 3.58 9.3 9.3 0 0 0-.81 6.55c1.67 7.26 4.04 16.94 4.62 22.96a2.6 2.6 0 0 1-.23 1.36 3.8 3.8 0 0 1-6.97-.78c-1.93-6.6-3.6-17.6-4.95-25.15-2.45-9.4-5.66-25.5-7.34-36.5" class="i"/><path d="M177.04 88.8a3.7 3.7 0 0 1 .43-3.25c.53-.68 1.46-1.52 2.38-1.11 1.25.55 1.9 2.7 2.41 3.83a102 102 0 0 1 4.12 11.25c1.62 4.98 3.27 10.15 3.56 15.41a9 9 0 0 1-.3 3.32c-.47 1.41-1.32 2.63-1.67 4.1-.66 2.78-.01 5.38.62 8.09 1.2 5.17 2.44 10.35 3.34 15.59q.27 1.47.46 2.95c.1.79.41 1.77-.32 2.34-1.4 1.08-2.63-.38-2.98-1.63-2.58-9.21-3.43-18.8-5.66-28.08a402 402 0 0 1-6.46-32.97 2 2 0 0 0-2.46-1.4 2.05 2.05 0 0 0-1.4 2.46 403 403 0 0 0 6.46 32.97c1.24 5.17 2.04 10.42 2.99 15.65q.75 4.25 1.68 8.46c.55 2.44.91 5.39 2.78 7.2a5.8 5.8 0 0 0 6.53 1.06 5 5 0 0 0 2.47-2.44 6.7 6.7 0 0 0 .33-3.95c-.76-5.84-2.12-11.59-3.45-17.31-.62-2.67-1.75-5.6-.97-8.33.4-1.43 1.28-2.66 1.7-4.1a13 13 0 0 0 .28-4.36c-.41-6.05-2.29-11.92-4.19-17.65-1.49-4.5-2.92-9.14-5.3-13.28-1.6-2.78-4.8-4.2-7.76-2.57a8 8 0 0 0-3.23 3.43 8.5 8.5 0 0 0-.25 5.38c.47 2.53 4.32 1.46 3.85-1.06Z" class="b"/><path d="M187.3 155.55c-1.82 2.5-4.38 3.3-7.47 3.11-2.18-.12-3.28-1.23-4.7-2.9a9 9 0 0 1-2.13-4.05c-.48-2.06.1-4.4.71-6.42 1.32-4.33 1.91-7.3 4.63-10.91 2.48-3.3 6.57-4.5 10.7-4.78l1.73-.06c2-.07 3.63.37 4.57 1.85a3.84 3.84 0 0 1-.39 4.58c1.9-.12 3.24.7 3.56 2.37s-.3 3.59-1.77 4.12a3.1 3.1 0 0 1 1.81 2.94c-.07 1.1-.8 2.98-2.08 3.28 1.35.31 1.59 2.43.82 3.83s-2.48 1.84-4.06 2.07-4.42.34-5.5.87" class="a"/><path d="M185.58 154.54c-1.58 2.06-5.45 3.11-7.6 1.35a9 9 0 0 1-2.84-3.94 9.3 9.3 0 0 1 .32-5.51c.97-3.38 1.83-6.87 3.77-9.85 1.97-3.02 5.01-4.43 8.53-4.88a16 16 0 0 1 4.35-.12c1.9.32 2.17 1.95 1.12 3.37-.91 1.23.31 3.06 1.72 3.01.72-.02 1.4-.03 1.6.75a1.64 1.64 0 0 1-.82 2.02c-1.74.76-.94 3.12.48 3.65-.33-.12.14.2.22.36a1.4 1.4 0 0 1 .13.63c-.02.3-.28 1.26-.62 1.37a2.02 2.02 0 0 0 0 3.86c-.5-.17-.08-.29-.21.16a3 3 0 0 1-.23.87c-.5.73-1.84.87-2.63.99-2.07.3-4.2.25-6.15 1.1a2 2 0 0 0-.72 2.73 2.05 2.05 0 0 0 2.74.71 18 18 0 0 1 3.93-.51 10 10 0 0 0 4.97-1.6c2.7-2.04 3.03-7.1-.63-8.3v3.85c4.48-1.48 4.69-8.42.26-10.08l.48 3.66c2.4-1.06 3.25-4.14 2.65-6.54-.63-2.53-2.97-3.76-5.45-3.68l1.73 3.01a5.85 5.85 0 0 0-.12-7.29c-1.46-1.75-3.73-2.2-5.91-2.15-4.5.12-9.18.96-12.58 4.16-3.63 3.41-4.92 8.46-6.28 13.05-.76 2.56-1.34 5.25-.62 7.89a13 13 0 0 0 3.99 6.08 8.8 8.8 0 0 0 7.42 1.81 9.7 9.7 0 0 0 6.45-3.97 2 2 0 0 0-.71-2.74 2.05 2.05 0 0 0-2.74.72" class="b"/><path d="M194.95 133.97a37 37 0 0 0-3.89.21 16 16 0 0 0-4.22.8 2.2 2.2 0 0 0-1.2.92 2 2 0 0 0 2.26 2.94 9 9 0 0 1 1.63-.44l.49-.08a2 2 0 0 0 .5-.08c-.08.04-.51.07-.16.02l.27-.03.53-.06a37 37 0 0 1 3.79-.2 2 2 0 0 0 0-4m1.25 6.66a28 28 0 0 0-4.25.05 17 17 0 0 0-4.3.8 2 2 0 1 0 1.06 3.85 10 10 0 0 1 1.71-.45l.47-.08.23-.04c.43-.06-.36.04-.1.02l1.06-.11a28 28 0 0 1 4.12-.04 2 2 0 0 0 2-2 2.05 2.05 0 0 0-2-2m-.48 5.8q-1.6.06-3.2.2a15 15 0 0 0-3.53.67 2.2 2.2 0 0 0-1.2.92 2 2 0 0 0 2.26 2.94 11 11 0 0 1 2.27-.51l-.53.07c1.3-.17 2.62-.22 3.93-.3a2 2 0 0 0 0-4Z" class="b"/><path d="M257.07 158.46c1.74 2.57 4.26 3.46 7.35 3.4 2.19-.04 3.33-1.1 4.82-2.71a9 9 0 0 0 2.27-3.97c.56-2.05.07-4.4-.47-6.45-1.15-4.38-1.63-7.36-4.2-11.08-2.36-3.38-6.4-4.75-10.5-5.18l-1.74-.12c-2-.15-3.64.23-4.64 1.67a3.84 3.84 0 0 0 .21 4.6c-1.88-.2-3.25.56-3.64 2.22s.16 3.6 1.61 4.2a3.1 3.1 0 0 0-1.92 2.86c.03 1.1.68 3 1.95 3.36-1.36.26-1.68 2.37-.97 3.79s2.42 1.94 3.98 2.23 4.4.5 5.47 1.07" class="a"/><path d="M255.34 159.47c2.6 3.67 7.95 5.75 12.22 3.65a12.6 12.6 0 0 0 4.8-4.8 11.4 11.4 0 0 0 1.1-8 61 61 0 0 0-1.9-7.4 23 23 0 0 0-3-6.28c-2.93-4.14-7.83-5.87-12.74-6.2-2.24-.16-4.54-.23-6.4 1.27a5.85 5.85 0 0 0-.97 7.91l1.73-3a5.1 5.1 0 0 0-5.53 3.54c-.7 2.4.13 5.45 2.49 6.6l.47-3.65c-4.56 1.52-4.3 8.46.03 10.08v-3.86c-3.71 1.07-3.41 6.24-.82 8.3a9.5 9.5 0 0 0 4.55 1.7 19 19 0 0 1 4.27.75c2.32 1.1 4.35-2.35 2.02-3.45-1.91-.91-4.06-.9-6.11-1.31a4 4 0 0 1-2.45-.99c-.26-.34-.2-.65-.26-1.03-.08-.46.28-.23-.14-.11a2.02 2.02 0 0 0 0-3.86c.3.11-.13-.25-.24-.48a3 3 0 0 1-.23-.7c-.03-.34.05-1.05.45-1.18 1.5-.5 2.12-2.85.48-3.66a1.66 1.66 0 0 1-.65-2.08c.27-.73.97-.66 1.67-.6a2.01 2.01 0 0 0 1.72-3.03c-.78-1.15-.84-2.64.7-3.14a10 10 0 0 1 3.73 0c3.25.3 6.77 1.48 8.77 4.2 2.14 2.9 2.92 6.35 3.8 9.76.47 1.87 1.12 3.86.78 5.81a8 8 0 0 1-2.62 4.3 4.5 4.5 0 0 1-4.24 1.27 5.7 5.7 0 0 1-4.02-2.35c-1.48-2.08-4.95-.09-3.46 2.02" class="b"/><path d="M250.17 140.61a32 32 0 0 1 3.2.27l.26.04a25 25 0 0 1 2.75.57l.36.1.18.07c.29.1-.5-.21-.21-.09a2.2 2.2 0 0 0 1.54.2 2 2 0 0 0 .48-3.65 16 16 0 0 0-4.19-1.08 42 42 0 0 0-4.36-.43 2 2 0 0 0-2 2 2.04 2.04 0 0 0 2 2Zm-1.5 6.61a28 28 0 0 1 4.13.2l.25.02-.17-.02.55.09q.5.08.98.19a11 11 0 0 1 1.72.52 2 2 0 0 0 1.54-.2 2 2 0 0 0 .72-2.74 2.4 2.4 0 0 0-1.2-.91 17 17 0 0 0-4.27-.94 28 28 0 0 0-4.24-.2 2 2 0 0 0 0 4Zm.26 5.8q1.53.13 3.05.32l-.53-.07a13 13 0 0 1 3.12.73 2 2 0 0 0 1.54-.2 2 2 0 0 0 .72-2.74 2.3 2.3 0 0 0-1.2-.92 13 13 0 0 0-3.07-.72q-1.81-.24-3.63-.4a2 2 0 0 0-1.41.59 2 2 0 0 0 0 2.83 2.3 2.3 0 0 0 1.41.58M242.95 82a70 70 0 0 1 5.69-9.27l.6-.8.16-.2.3-.38q.62-.75 1.28-1.46a2 2 0 1 0-2.83-2.83 56 56 0 0 0-8.65 12.92 2 2 0 1 0 3.45 2.02m-50.43-11.6q.65.7 1.25 1.44l.57.7.14.2.29.37q1.2 1.65 2.34 3.35 1.82 2.8 3.52 5.66a2 2 0 1 0 3.45-2.01 73 73 0 0 0-8.73-12.54 2 2 0 0 0-2.83 0 2.04 2.04 0 0 0 0 2.83" class="b"/><path d="M221.58 78.9a135 135 0 0 0-16.09 1.53c-.84.13-2.93.31-3.48.93-1.03 1.16-.64 3.62-.77 5.02a36 36 0 0 0 .2 6.72c.3 2.96.45 6.1 2.48 8.4 3.74 4.27 12.41 6.53 18.11 6.53a35 35 0 0 0 11.15-2.01 14.5 14.5 0 0 0 7.64-5.67c1.53-2.54 1.47-5.08 1.8-7.96a30 30 0 0 0 .12-6.12c-.14-1.4.21-3.68-.83-4.84-.55-.63-2.27-.88-3.12-.99a151 151 0 0 0-17.21-1.53" class="a"/><path d="M221.58 76.9a105 105 0 0 0-13 1.1c-2.09.28-3.7.38-5.62.81a4.3 4.3 0 0 0-3.56 3.89 41 41 0 0 0-.24 6.29 62 62 0 0 0 .57 6.83 13 13 0 0 0 2.2 6.39 15 15 0 0 0 4.44 3.75c7.63 4.43 17.16 5.04 25.51 2.58 4.4-1.3 8.96-3.65 11.08-7.95a19 19 0 0 0 1.53-6.93 45 45 0 0 0 .25-7.39c-.15-2.13.2-4.57-1.4-6.26-1.5-1.6-4.42-1.56-6.42-1.82a126 126 0 0 0-15.34-1.29c-2.58 0-2.58 4 0 4a107 107 0 0 1 11.5.83q2.8.28 5.58.7.56.06 1.1.2c.14.02.9.29.68.12-.1-.08.12.33.17.56a6 6 0 0 1 .08 1.12 58 58 0 0 1-.48 11.73c-.7 3.9-3.6 6.4-7.19 7.78a30 30 0 0 1-21.95-.12c-2.96-1.19-6.07-3-6.97-6.25a39 39 0 0 1-.84-11.6c.04-.83-.06-1.7.05-2.53a2 2 0 0 1 .26-.86c-.28.47-.2.24.3.11a48 48 0 0 1 5.1-.74 103 103 0 0 1 12.6-1.05c2.58 0 2.59-4 0-4" class="b"/><path d="M38.96 127.73c-8.27-2.05-8.92-6.91-9.29-9.74a29 29 0 0 1 .47-10.45c.93-4.7 2.53-14.2.46-30.5a100 100 0 0 1-1.78-14.17c-.7-10.7 4.02-23.63 11.39-29.3 8.71-8.6 17.11-11.18 25.71-11.52 12.2-.47 22.37 3.34 29.6 10.47a37.5 37.5 0 0 1 9.02 16 60 60 0 0 1 1.43 20.15c.15 12.92 5.35 26.04 5.5 36.6.06 3.37-1.18 7.55-5.45 11.2l-2.84 2.31Z" style="fill:#a98a75"/><path d="M39.5 125.8a13 13 0 0 1-5.06-2.23 7.5 7.5 0 0 1-2.1-2.75 10 10 0 0 1-.44-1.48l-.15-.78-.08-.54-.03-.27-.1-.9q-.1-.98-.13-1.97a27 27 0 0 1 .16-3.79c.32-2.78 1-5.51 1.36-8.29a81 81 0 0 0 .67-9.55 118 118 0 0 0-1-16.22 2.1 2.1 0 0 0-1.47-1.93l1.4 1.4a74 74 0 0 1-1.44-10.15 50 50 0 0 1-.15-9.2c.67-6.84 3.2-14.04 7.69-19.3 1.66-1.95-1.15-4.8-2.83-2.84-5.08 5.95-7.86 13.65-8.78 21.35a49 49 0 0 0 .07 9.99 81 81 0 0 0 1.59 11.21 2 2 0 0 0 1.4 1.4l-1.48-1.92a101 101 0 0 1 .37 25.5c-.4 2.96-1.22 6.27-1.48 9.4a23 23 0 0 0 1.11 10.23c1.7 4.2 5.6 6.4 9.83 7.49 2.5.64 3.56-3.21 1.06-3.86Z" class="b"/><path d="M84.58 124.55a34 34 0 0 1-5.77.95 49 49 0 0 1-30.13-6.93q1.22-.71 1.92-1.15a7 7 0 0 0 2.76-3.17 59 59 0 0 0 2.99-10.83 45 45 0 0 1-6.74-6.66s-4.03-5.02-2.42-4.09a10 10 0 0 1-5.41-.55 13.6 13.6 0 0 1-5.7-5.48c-1.51-2.4-2.5-6.59-1.63-9.18a4.7 4.7 0 0 1 3.59-3.05 5.2 5.2 0 0 1 3.8.44l6.15-1.3a9 9 0 0 1 2.62-4 121 121 0 0 0 12.72-10.67l1 1.42c1.47 2.11 6.14.62 7.83-.07a61 61 0 0 0 7.91-3.93 47 47 0 0 0 12.8-10.78c2.29 1.19 4.23 3.8 6.78 8.01a32 32 0 0 1 3.68 12.95l2.49.1c-.15 5.04-.08 10.05-.12 14.68-.06 8.2-1.8 15.79-7 21.02a27 27 0 0 1-10.43 6.75l.25 2.5a4 4 0 0 0 .29 1.09 3 3 0 0 0 .72.84 19 19 0 0 0 6.68 3.83 21 21 0 0 1-11.63 7.26" class="a"/><path d="M54.03 104.85a58 58 0 0 1-1.92 6.99 7.4 7.4 0 0 1-1.53 3.04 8 8 0 0 1-1.63 1.2 176 176 0 0 1-9.91 5.44c-2.28 1.19-.26 4.64 2.02 3.45 3.43-1.79 6.88-3.58 10.18-5.6a11 11 0 0 0 2.57-2.1 12 12 0 0 0 2-3.92 59 59 0 0 0 2.07-7.44 2.05 2.05 0 0 0-1.4-2.46 2 2 0 0 0-2.46 1.4Zm32.56 7.21a4.4 4.4 0 0 0 1.36 2.67 23 23 0 0 0 2.24 1.77 21 21 0 0 0 4.56 2.39 2 2 0 0 0 1.54-.2 2 2 0 0 0 .72-2.74 2.3 2.3 0 0 0-1.2-.92l-.54-.21.48.2a19 19 0 0 1-3.15-1.7q-.38-.25-.74-.52l-.2-.14.12.09-.33-.27-.68-.57-.3-.32.1.13-.1-.2.2.47a4 4 0 0 1-.23-.99 2 2 0 0 0-.92-1.2 2 2 0 0 0-1.54-.2 2 2 0 0 0-1.2.92 2.3 2.3 0 0 0-.2 1.54ZM104 66.36c-.3 9.33 2.1 18.42 3.96 27.49a55 55 0 0 1 1.51 11.85c-.06 3.78-2.1 6.92-4.86 9.35-1.95 1.7.9 4.52 2.82 2.83a17.5 17.5 0 0 0 5.5-8.33 23 23 0 0 0 .22-8.8c-.88-7.27-2.87-14.34-4.12-21.55A63 63 0 0 1 108 66.36c.08-2.57-3.92-2.57-4 0M73.94 77.67c.28-1.7-.56-5.4-3.7-5.3-4.08.58-3.68 5.15-2 7.1 1.36 1.59 4.77 1.86 5.7-1.8m24.37-2.56c.24-1.7-.56-5.42-3.43-5.35-3.74.55-3.33 5.13-1.78 7.1 1.26 1.6 4.4 1.91 5.21-1.75" class="b"/><path d="M59.68 103.4a40 40 0 0 1-6.93-6.08 42 42 0 0 1-2.08-2.42l-.21-.28a36 36 0 0 1-1.56-2.22 2 2 0 1 0-3.46 2.03 39 39 0 0 0 4.48 5.72 45 45 0 0 0 7.74 6.7 2 2 0 0 0 2.74-.71 2.05 2.05 0 0 0-.72-2.74M44.36 32.47a35 35 0 0 1 16.9-7.98 43 43 0 0 1 17.36.82A34 34 0 0 1 92.8 32.7a33.7 33.7 0 0 1 9.6 15.58 53 53 0 0 1 1.54 20.65 2 2 0 0 0 2 2 2.05 2.05 0 0 0 2-2c1.45-13.17-1.25-28.19-11-37.84-9.04-8.93-22.32-12.27-34.73-10.74a39 39 0 0 0-20.68 9.29c-1.97 1.66.87 4.48 2.83 2.83" class="b"/><path d="M65.2 109.97c9.22 3.13 19.6 3.87 28.31-1.14a27.6 27.6 0 0 0 10.06-9.64 32.5 32.5 0 0 0 3.93-13.62c.58-6.4.14-12.9.33-19.31.07-2.58-3.93-2.58-4 0-.16 5.41.01 10.83-.15 16.25a33 33 0 0 1-2.54 12.7c-3.46 7.51-11.38 12.54-19.53 13.2a38 38 0 0 1-15.34-2.3c-2.45-.83-3.5 3.04-1.07 3.86M42.85 73.12a7.6 7.6 0 0 0-8.79 1.25 8 8 0 0 0-1.86 6.7c.6 5.36 4 10.97 9.17 13.03a10.2 10.2 0 0 0 8.57-.38c2.2-1.3.2-4.77-2.02-3.45a5.3 5.3 0 0 1-3.32.52 9 9 0 0 1-1.4-.28l-.64-.21c.62.23-.46-.26-.57-.33a12 12 0 0 1-4.59-5.04 10.3 10.3 0 0 1-1.03-6.94c.14-.49-.16.18.05-.1q.15-.28.32-.54c-.25.34.22-.23.3-.29a2 2 0 0 1 .48-.33 3.5 3.5 0 0 1 3.3-.16c2.28 1.2 4.3-2.25 2.03-3.45" class="b"/><path d="M92.08 47.36c2.64 1.54 4.71 5.04 6.2 7.8a28.5 28.5 0 0 1 3.05 11.32 2.05 2.05 0 0 0 2 2 2 2 0 0 0 2-2 33 33 0 0 0-3.6-13.34 40 40 0 0 0-3.62-5.49 14 14 0 0 0-4.01-3.74c-2.23-1.3-4.24 2.15-2.02 3.45m-25.7 4.93a59 59 0 0 1-10.5 10.6 226 226 0 0 1-6.14 4.8 11 11 0 0 0-3.68 5.32c-.8 2.46 3.06 3.5 3.85 1.06.63-1.93 1.93-2.97 3.46-4.15q3.13-2.37 6.15-4.88a61 61 0 0 0 10.3-10.74 2 2 0 0 0-.71-2.73 2.05 2.05 0 0 0-2.74.71Z" class="b"/><path d="M91.34 44.25a47 47 0 0 1-13.7 11.13 42 42 0 0 1-7.3 3.38c-1.25.4-3.74 1.24-4.6.13a2 2 0 0 0-2.84 0 2.05 2.05 0 0 0 0 2.83c1.66 2.1 4.82 1.81 7.13 1.28a36 36 0 0 0 7.99-3.29 51 51 0 0 0 16.15-12.63c1.63-1.97-1.19-4.81-2.83-2.83" class="b"/><path d="m119.9 133.1-3.06-4.34c-3.87-4.93-8.03-7.55-13.66-9.98-1.05-.45-4.3-1.53-4.3-1.53l-2.12-.7c-4.36 6.04-10.9 8.36-17.95 8.94a49 49 0 0 1-30.55-7.19c-11.34 5.38-20.72 12.68-25.59 25.08-2.89 7.37-5.5 25.27-5.83 35.48-.3 9.5-2.15 22.8-1.97 33.74l.08 9.72c13.23-8.36 46.55-19.78 95.08-27.44a20 20 0 0 1 .86-4.88 81 81 0 0 0 2.34-9.62l.94 2.09c1.07 2.4 3.95 4.82 6.7 6.07 3.46 1.58 7.92.38 11.87-2.84 3.97-3.25 7.66-13.17 9.33-21.17Z" class="k"/><path d="M128.38 159.4c-2.17-.6-5.63-1.36-7.57-2.5a1.8 1.8 0 0 1 .75-3.34 14 14 0 0 1 4.7.33l3.59.95Zm-1.66-44.46a25.3 25.3 0 0 1-6.53-15.66 36.6 36.6 0 0 1 2.94-16.25 3.6 3.6 0 0 1 2.61-2.19 42 42 0 0 1 12.23-.17A41 41 0 0 1 148.7 83a5 5 0 0 1 2.82 3.17 26.8 26.8 0 0 1-12.72 30.87Z" class="a"/><path d="M128.13 113.52a24 24 0 0 1-6-16.55 34 34 0 0 1 1.6-9.7c.36-1.18.71-3.09 1.6-4.01.83-.88 2.7-.78 3.83-.86a51 51 0 0 1 10.2.43 35 35 0 0 1 8.1 1.83c2.6 1.02 2.8 4.25 3 6.7a26 26 0 0 1-.98 9.48 25 25 0 0 1-11.7 14.48c-2.24 1.28-.23 4.73 2.02 3.46a29.4 29.4 0 0 0 12.98-15.2 29 29 0 0 0 1.74-11.1c-.13-3.32-.47-7.8-3.17-10.1-2.3-2-5.9-2.57-8.8-3.07a60 60 0 0 0-11.83-.98c-3.37.1-7.68.17-9.32 3.7a38 38 0 0 0-3.06 11.5c-.94 8.19 1.29 16.71 6.96 22.83 1.76 1.89 4.58-.95 2.83-2.83Zm2.52 8.7q-3.22 15.59-6 31.26a2.06 2.06 0 0 0 1.4 2.46 2 2 0 0 0 2.46-1.4q2.78-15.67 6-31.26c.52-2.52-3.33-3.6-3.86-1.07Z" class="b"/><path d="M126.8 151.96a16 16 0 0 0-5.02-.42 4.3 4.3 0 0 0-2.61 1.01 3.7 3.7 0 0 0-1.1 1.85 3.8 3.8 0 0 0 1.77 4.25 18 18 0 0 0 3.86 1.54c1.37.42 2.77.75 4.15 1.13a2 2 0 1 0 1.07-3.85c-1.05-.3-2.1-.55-3.14-.84a40 40 0 0 1-2.82-.9l-.2-.08-.16-.07-.36-.18-.3-.15c-.1-.05-.44-.3-.14-.07.4.3-.05-.07-.04-.07s.3.45.17.21l-.06-.1c-.05-.07-.13-.27.02.07s.06.16.05.09l-.04-.15c-.08-.28.02.5.03.27v-.27c0 .01-.1.56-.03.31l.02-.11.05-.15c.03-.14-.13.3-.13.3l.15-.26c-.23.46-.29.34-.17.22l.11-.1c.05-.06.2-.17-.08.05s-.11.08-.04.04l.1-.06c.24-.14-.23.13-.24.1l.16-.04c.25-.1-.26.02-.27.02a4 4 0 0 1 1.21-.06q.6 0 1.2.04l.55.05c.12.01.37.08-.14-.02l.26.04q.55.09 1.1.22a2 2 0 0 0 1.06-3.86" class="b"/><path d="M140.07 108.51a16 16 0 0 0 2.42-2.58 1.85 1.85 0 0 0-.44-2.62 19.3 19.3 0 0 0-13.4-3.18 1.95 1.95 0 0 0-1.59 2.4 15 15 0 0 0 2.31 5.16 4.6 4.6 0 0 0 2.58 1.74l1.73.46a7 7 0 0 0 6.4-1.38" class="k"/><path d="M128.26 89.55a19.5 19.5 0 0 0 17.87 1.07 2 2 0 0 0 .71-2.74 2.05 2.05 0 0 0-2.73-.71 15.3 15.3 0 0 1-13.83-1.07c-2.2-1.33-4.22 2.12-2.02 3.45" class="b"/><path d="M131.8 112.12a4.2 4.2 0 0 0-3.27-.05 2.7 2.7 0 0 0-1.6 3.15 6 6 0 0 0 1.75 2.41c4.06 3.27 9 7.21 12.66 10.05-3.92-1.77-6.73-3.15-10.12-3.72a27 27 0 0 0-10.1-.86c-1.57.26-2.86.93-3.14 2.31a3.15 3.15 0 0 0 1.12 3.35 12 12 0 0 0 1.52.93 3.2 3.2 0 0 0-2.78 2.22 3.25 3.25 0 0 0 1.6 3.67c.67.4 1.9.89 2.92 1.37-1.74-.26-3.14-.14-3.77 1.43a3.7 3.7 0 0 0 1.07 3.8c2.67 1.69 4.94 3.03 8.06 4.97a22 22 0 0 0 2.9 13.5 4 4 0 0 0 1.13 1.48c3.6 2.07 9.26 2.99 13 1.16a3.7 3.7 0 0 0 1.72-1.43c.59-1.1.12-2.43-.2-3.64-1.64-6.12 1.05-10.68 2.78-16.78.26-1.5 1.94-5.1 1.6-8.3a26 26 0 0 0-1.87-6.53 13 13 0 0 0-3.05-4.72 97 97 0 0 0-13.58-9.6z" class="a"/><path d="M142.1 125.84a52 52 0 0 0-8.9-3.51 40 40 0 0 0-9.77-1.42c-2.76.04-6.36.6-7.3 3.69a5.5 5.5 0 0 0 .15 3.64 6.7 6.7 0 0 0 3.33 3.18c2.26 1.24 4.28-2.21 2.02-3.46-.9-.5-2.67-1.65-1.3-2.55a6 6 0 0 1 2.7-.49 22 22 0 0 1 3.66.19 42 42 0 0 1 6.67 1.42 57 57 0 0 1 6.72 2.76 2.06 2.06 0 0 0 2.74-.72 2 2 0 0 0-.72-2.73" class="b"/><path d="M137.83 132.1a64 64 0 0 0-7.42-3.2 27 27 0 0 0-9.29-1.24c-2.9.16-5.5 2.15-5.37 5.27a5.2 5.2 0 0 0 1.73 3.66 14 14 0 0 0 3.72 2.02 2.06 2.06 0 0 0 2.74-.72 2 2 0 0 0-.72-2.73 16 16 0 0 1-2.95-1.43 1.3 1.3 0 0 1-.52-1.22c0-.06.15-.42.02-.13.1-.23.02-.08.12-.2a1.3 1.3 0 0 1 .7-.45 9 9 0 0 1 3.12-.04 26 26 0 0 1 6.65 1.4c1.88.68 3.64 1.63 5.45 2.47a2.06 2.06 0 0 0 2.74-.72 2 2 0 0 0-.72-2.74" class="b"/><path d="M134.23 139.47a46 46 0 0 0-6.47-3.09c-2.4-.95-5.27-1.9-7.88-1.4-2.78.51-3.95 3.5-3.23 6.02a5.2 5.2 0 0 0 2.19 3.03q1.35.86 2.71 1.68 3.56 2.18 7.11 4.38a2 2 0 0 0 2.02-3.45q-2.73-1.7-5.47-3.38l-2.35-1.44-1.18-.73-.55-.34-.28-.18c-.2-.12-.16-.17-.02 0-.04-.05-.14-.23-.07-.06.1.22-.06-.12-.09-.17l-.13-.25c.02.05.09.25.03.04l-.15-.57c-.05-.24 0 .02 0 .05v-.37c0-.34 0 0 0 0-.05-.03.15-.27.02-.1s.26-.42.13-.23c-.12.18.06-.07.08-.06l-.06.05q-.13.1.01.01c.03.02.1-.03-.08.03l.34-.09c-.37.08.2 0 .33 0q.35 0 .7.04a10 10 0 0 1 1.46.27 24 24 0 0 1 3.23 1.04c1.1.43 1.68.66 2.66 1.12q1.52.74 2.98 1.61a2 2 0 1 0 2.02-3.45Z" class="b"/><path d="M142.2 125.83q-4.49-3.5-8.92-7.05c-1.31-1.05-3.05-2.07-4.03-3.45-.74-1.02-.23-1.63 1.06-1.55a5 5 0 0 1 2 .93q1.35.8 2.65 1.64a89 89 0 0 1 4.62 3.24c2.6 1.94 5.3 3.7 6.82 6.64a18 18 0 0 1 2.3 7.92 18 18 0 0 1-1.08 4.98c-.46 1.45-.83 2.92-1.3 4.37-1.14 3.42-2.45 6.83-2.56 10.48a21 21 0 0 0 .85 5.8c.18.7.26 1.1-.37 1.51a6 6 0 0 1-2.15.79 12.5 12.5 0 0 1-5.23-.15c-1.34-.3-3.57-.72-4.33-1.95a20.3 20.3 0 0 1-2.88-10.87c.01-2.58-3.99-2.58-4 0a25.5 25.5 0 0 0 3.04 12.17 7 7 0 0 0 1.65 2.26 11 11 0 0 0 2.95 1.49 19 19 0 0 0 5.85 1.22c3.78.2 9.87-1.08 9.59-5.96a21 21 0 0 0-.7-3.27 13 13 0 0 1-.26-3.25 23 23 0 0 1 1.37-6.16c.67-2.02 1.38-4 1.92-6.05a49 49 0 0 0 1.45-5.45c.54-3.68-.62-7.38-2.1-10.72a15 15 0 0 0-3.05-4.72 56 56 0 0 0-5.07-4.02 89 89 0 0 0-5.68-4c-1.83-1.17-3.87-2.76-6.12-2.88a5.2 5.2 0 0 0-5.47 3.5c-.65 2.19.62 4.37 2.25 5.77 3.9 3.35 8.05 6.46 12.1 9.61a2.07 2.07 0 0 0 2.82 0 2 2 0 0 0 0-2.82ZM44 168.46a104 104 0 0 0-2.54 19.72 150 150 0 0 0-.11 19.02c.19 2.55 4.19 2.57 4 0a149 149 0 0 1 .09-18.64 99 99 0 0 1 2.41-19.04c.63-2.5-3.23-3.57-3.85-1.06m67.48-18.54c.3 7.17 1.23 14.35.84 21.53a72 72 0 0 1-1.63 11.46c-.84 3.83-2.32 7.54-2.63 11.46-.2 2.57 3.8 2.56 4 0a26 26 0 0 1 1.16-5.21q.85-2.9 1.47-5.87a79 79 0 0 0 1.63-11.84c.4-7.18-.55-14.36-.84-21.53-.11-2.56-4.11-2.58-4 0m-63.46-29.4a51 51 0 0 0 21.64 6.97c6.43.56 13.36.2 19.35-2.35a22 22 0 0 0 8.86-6.76 2.07 2.07 0 0 0 0-2.83 2 2 0 0 0-2.83 0c-4.89 6.3-12.47 8.03-20.1 8.13a47 47 0 0 1-24.9-6.62c-2.22-1.33-4.23 2.13-2.02 3.45" class="b"/><path d="M16.87 212.6c-.12-8.03.7-16.05 1.35-24.04.54-6.68.67-13.38 1.42-20.05a145 145 0 0 1 3.37-19.45A39 39 0 0 1 31.18 133c4.96-5.73 11.4-9.79 18.19-13.02 2.32-1.1.3-4.55-2.02-3.45a60 60 0 0 0-17.2 11.7 42 42 0 0 0-10.24 17.03 121 121 0 0 0-3.8 19.42c-.9 6.73-1.12 13.45-1.6 20.2-.67 9.24-1.77 18.46-1.64 27.73.03 2.57 4.03 2.58 4 0Zm81.48-93.42a46 46 0 0 1 8.07 3.38 29 29 0 0 1 9 7.61 2 2 0 0 0 2.83 0 2.05 2.05 0 0 0 0-2.82 32 32 0 0 0-9.8-8.25 54 54 0 0 0-9.03-3.77 2 2 0 0 0-1.07 3.85m14.08 64.3a15.4 15.4 0 0 0 7.59 6.86 11.7 11.7 0 0 0 9.42-.3 17 17 0 0 0 7.1-5.64 37 37 0 0 0 4.17-8.25 71 71 0 0 0 3.29-11.09c.53-2.5-3.32-3.58-3.86-1.06a71 71 0 0 1-3.14 10.72 28 28 0 0 1-4.5 8.4 11.8 11.8 0 0 1-8.53 4.11c-3.25-.07-6.73-2.94-8.09-5.76-1.1-2.32-4.56-.3-3.45 2.01" class="b"/><path d="M15.95 156.6a19 19 0 0 0-13.16 7.76c-2.63 3.8-2.67 8-2.68 12.42q-.02 13.94-.08 27.89L0 215.69c0 2.57 4 2.58 4 0l.06-22.22q.03-6.84.04-13.7c.01-3.6-.55-7.75.88-11.15 2.05-4.87 7.02-7.45 12.03-8.17a2 2 0 0 0 1.4-2.46 2.05 2.05 0 0 0-2.46-1.4Z" class="b"/><path d="M105.66 80.99c-.03-.98-1.32-1.25-2.32-1.07-6 1.07-37.87 4-45.01 4.9-1.9.24-2.92 1.98-3.06 3.83-.09 1.22-.15 4.01-.26 4.92-.35 2.9-.64 3.93-1.16 6.76a4.5 4.5 0 0 0 1.6 4.01c6.7 5.58 14.18 8.04 25.53 6.99 8.49-.78 15.35-5.08 19.05-9.74 3.94-4.95 5.94-11.53 5.63-20.6" class="a"/><path d="M57.26 83.9c-2.11-1.65-4.14-3.4-6.22-5.07a48 48 0 0 0-6.43-4.67 2 2 0 0 0-2.02 3.45 27 27 0 0 1 2.8 1.85l.81.6.22.17.29.23 1.64 1.31c2.03 1.64 4.02 3.35 6.08 4.95a2.05 2.05 0 0 0 2.83 0 2 2 0 0 0 0-2.83" class="b"/><path d="M107.6 80.45c-.48-2.78-3.56-2.64-5.67-2.31l-.82.11-.42.06q-1.22.16-2.45.3-6.03.7-12.1 1.32c-8.34.87-16.7 1.65-25.03 2.57-1.55.17-3.37.17-4.77.88-2.68 1.34-3.05 4.33-3.16 7a51 51 0 0 1-.95 7.75 9 9 0 0 0-.16 4.56 7.7 7.7 0 0 0 2.9 3.82 31.7 31.7 0 0 0 14.7 6.55 39.6 39.6 0 0 0 19.1-1.41 28 28 0 0 0 14.62-11.4c3.53-5.75 4.46-12.63 4.26-19.27-.07-2.57-4.07-2.58-4 0 .16 5.29-.34 10.78-2.77 15.57a22.6 22.6 0 0 1-9.76 9.72c-5.06 2.7-10.76 3.46-16.44 3.27a29 29 0 0 1-13.86-3.82 32 32 0 0 1-2.76-1.84c-.93-.7-2.11-1.47-2.26-2.72a14 14 0 0 1 .61-3.65 48 48 0 0 0 .61-4.12c.1-1 .11-2.01.16-3.01a5.7 5.7 0 0 1 .5-2.97c.6-.88 1.9-.74 2.98-.86 7.4-.83 14.82-1.53 22.23-2.29q6.57-.66 13.14-1.4 2.4-.27 4.83-.58 1.04-.13 2.06-.29l.7-.1c.09-.02.27-.1.02-.02.76-.25.22.41.09-.36a2 2 0 0 0 2.46 1.4 2.05 2.05 0 0 0 1.4-2.46" class="b"/><path d="M395.05 209.09q2.75.83 5.32 1.65c9.3-2.99 19.03-8 24.41-14.16a38 38 0 0 0 7.95-15.04c2.49-9.09 1.86-19.11-.6-28.32s-5.27-22.94-9.9-31c-7.97-13.87-18.57-19.15-33-25.35a44.6 44.6 0 0 1-27.57 9.26c-9.67-.1-16.16-3.31-21.05-10.83a97 97 0 0 0-12.19 4.93s-15.1 11.67-21.43 24-9.33 29.07-7.89 38.87c.73 4.97 4.2 8.6 7.28 10.8 5.29 3.76 10.72 3.81 16.84 1.44l6.14-2.14q.13 10.7-.14 21.38a493 493 0 0 1 65.83 14.5" class="a"/><path d="M433.45 223.42c-4.55-3.9-10.42-6.3-15.89-8.57a257 257 0 0 0-29.47-9.87c-30.95-8.62-62.89-13.79-94.83-16.96a745 745 0 0 0-128-1.45c-33.5 2.46-67.04 7.03-99.66 15.2a296 296 0 0 0-32.64 9.94c-6.83 2.57-13.83 5.39-19.93 9.47a34 34 0 0 0-2.98 2.24c-1.97 1.66.87 4.48 2.83 2.82l.59-.48.36-.27q.8-.58 1.61-1.11a54 54 0 0 1 3.57-2.12 101 101 0 0 1 9.63-4.56 246 246 0 0 1 29.67-9.89c30.62-8.39 62.21-13.24 93.79-16.15a748 748 0 0 1 126.18-.96c33.4 2.59 66.77 7.4 99.27 15.62a320 320 0 0 1 32.35 9.81c6.37 2.36 12.91 4.9 18.64 8.6q.67.43 1.3.9a6 6 0 0 1 .78.61c1.95 1.67 4.8-1.15 2.83-2.82" class="b"/><path d="M393.82 54.85a5.3 5.3 0 0 1 3.84-.57 4.8 4.8 0 0 1 3.76 2.98c.97 2.6.1 6.9-1.35 9.38a14 14 0 0 1-5.6 5.77 10 10 0 0 1-5.05.8c-.23.4-.38.7-.38.7-.72 1.27-2.37 3.48-2.37 3.48a47 47 0 0 1-5.52 6.03 52 52 0 0 0 1.85 8.45 6.5 6.5 0 0 0 2.37 3.13 24 24 0 0 0 3.5 2.16 44.7 44.7 0 0 1-27.21 8.98c-9.45-.1-15.87-3.17-20.73-10.35a9 9 0 0 0 4.98-3.17 7 7 0 0 0 .78-1.8 28 28 0 0 1-9.72-6.15c-5.48-5.13-7.5-12.78-7.84-21.12-.2-4.8-.3-10.02-.64-15.24 0 0-.41-25.9 33.59-25.9s31.74 32.44 31.74 32.44" class="a"/><path d="M342.86 36.52a7 7 0 0 0-.15-1c-.22-.94-.93-1.35-1.5-1.06-4.84 2.45-11.81 11.54-12.57 14.92l-.25 1.13a61 61 0 0 1 .8-20.28 38 38 0 0 1 8.62-16.57c7.1-7.49 17.32-11.71 29.73-11.65a36.3 36.3 0 0 1 23.66 8.37l5.04 4 .94.99c4.78 4.93 6.95 10.38 8.2 16.96a33 33 0 0 1 .36 10.05c-.43 3.53-1.17 11.8-3.99 16.24a6 6 0 0 0-.33-1.36 4.8 4.8 0 0 0-3.75-2.98 5.3 5.3 0 0 0-3.85.57 19 19 0 0 0-2.46.03c-.55.12-4.9-5.09-4.9-5.09C379.9 36.7 370.4 32.92 368.34 32a46 46 0 0 0-6.5-1.25c-7.18 1.22-13.9 6.47-17.36 8.33a1.17 1.17 0 0 1-1.65-1.29 6 6 0 0 0 .03-1.27" class="h"/><path d="m384.51 213.95-3.5.43c.73-3.17.06-6.48-.74-9.64-.77-3.08-1.76-6.28-4.07-8.46a14 14 0 0 0-3.14-2.2l2.45-3.15c5.52-1.14 10.03-1.75 17.47-5.4 3.23-1.57 6.66-3.63 7.71-7.06a13 13 0 0 0 .06-5.77c-.57-3.76-2.46-14.07-3.45-17.74l34.82-1.82.02.08c2.45 9.2 3.08 19.23.59 28.32a38 38 0 0 1-7.95 15.04c-7.48 8.56-23.38 14.91-34.8 16.69Z" class="a"/><path d="m335.74 206.52 14.8 17.77c.5 1.25 2.17 1.71 3.77 1.15 1.35-.48 2.83-2.25 4.22-2.62 2.54-.7 6.46-.05 9.1-.6 3.52-.71 7.55-1.6 9.08-4.84l4.3-3c.73-3.18.06-6.48-.74-9.64-.77-3.08-1.76-6.28-4.08-8.46a14.6 14.6 0 0 0-7.08-3.58c-3.84-.7-14.5-1.68-16.85-1.48a20 20 0 0 0-14.53 8.34 10 10 0 0 0-2.14 6.27" class="a"/><path d="M325.3 130.82a581 581 0 0 1 2 59.72c-.04 2.57 3.96 2.57 4 0a581 581 0 0 0-2-59.72c-.23-2.54-4.23-2.56-4 0m12.5-36.66a100 100 0 0 0-10.39 4.35 2 2 0 0 0-.71 2.73 2.05 2.05 0 0 0 2.73.72q1.18-.58 2.38-1.12l1.14-.5.5-.22.34-.15q-.3.13.02 0 2.5-1.04 5.06-1.95a2 2 0 1 0-1.07-3.86m57.57 61.33a171 171 0 0 1 3.3 16.84 14 14 0 0 1 .2 5.18 7 7 0 0 1-2.72 3.84c-2.98 2.34-6.88 3.86-10.43 5.06a90 90 0 0 1-10.75 2.6c-2.52.51-1.45 4.37 1.07 3.85a94 94 0 0 0 10.21-2.42 43 43 0 0 0 11.54-5.36 13 13 0 0 0 4.08-4.3 11 11 0 0 0 1.07-6.52c-.32-3.18-.97-6.35-1.55-9.5-.65-3.45-1.27-6.93-2.17-10.33-.66-2.49-4.52-1.43-3.86 1.06Z" class="b"/><path d="M389.16 99c8.46 3.66 17.07 7.6 23.72 14.19a45 45 0 0 1 8.33 11.32 72 72 0 0 1 4.97 13.7c1.36 4.83 2.5 9.72 3.77 14.59a63 63 0 0 1 2.34 17.86c-.3 10.8-4.47 21.65-13.13 28.44a57 57 0 0 1-14.19 7.87 73 73 0 0 1-15.53 4.37 2 2 0 0 0-1.4 2.46 2.05 2.05 0 0 0 2.46 1.4 72 72 0 0 0 28.37-10.97 37 37 0 0 0 10.82-10.9 42 42 0 0 0 6.07-16.63 58 58 0 0 0-.66-19.5c-1.02-5.26-2.53-10.48-3.88-15.67a115 115 0 0 0-4.84-15.27 49 49 0 0 0-7.97-12.97c-7.2-8.5-17.2-13.4-27.24-17.74a2.07 2.07 0 0 0-2.74.72 2 2 0 0 0 .73 2.73" class="b"/><path d="M431.14 151.46a15.2 15.2 0 0 1 10.22 6.14 15 15 0 0 1 2.42 5.8 31 31 0 0 1 .26 5.82q.01 13.6.08 27.2l.03 11.26c0 2.58 4 2.58 4 0q-.02-12.33-.08-24.67l-.03-14.1c0-4.66-.4-9.06-3.04-13.07a19 19 0 0 0-12.8-8.24 2.06 2.06 0 0 0-2.46 1.4 2 2 0 0 0 1.4 2.46m-43.02-56.24a41.7 41.7 0 0 1-20.34 8.53c-6.16.87-13.12.64-18.6-2.62a22 22 0 0 1-6.97-7.03c-1.4-2.15-4.86-.14-3.46 2.02 3.81 5.87 9.27 10.05 16.22 11.37a46 46 0 0 0 35.98-9.44 2 2 0 0 0 0-2.83 2.05 2.05 0 0 0-2.83 0" class="b"/><path d="M390.77 95.87a28 28 0 0 1-3.65-2.08 5.5 5.5 0 0 1-2.19-2.38c.09.2.02.03 0-.08l-.23-.78-.34-1.22a52 52 0 0 1-1.27-6.44 2 2 0 0 0-2.47-1.4 2.05 2.05 0 0 0-1.4 2.46q.32 2.3.81 4.56a22 22 0 0 0 1.54 5.1c1.38 2.73 4.52 4.43 7.18 5.7a2.06 2.06 0 0 0 2.73-.7 2 2 0 0 0-.72-2.75Zm-49.31 1.85a24 24 0 0 0 2.38-.94 10 10 0 0 0 2.1-1.34 8 8 0 0 0 2.68-4.1 2 2 0 1 0-3.86-1.07 8 8 0 0 1-.29.84l.2-.48a5 5 0 0 1-.62 1.13l.31-.4a8 8 0 0 1-1.28 1.28l.4-.31a9 9 0 0 1-2.05 1.17l.48-.2q-.76.3-1.53.56a2 2 0 0 0-1.2.92 2 2 0 0 0 2.26 2.94Zm41.48 117.19a22 22 0 0 0-.41-9.34 28 28 0 0 0-2.7-7.82c-2.53-4.43-7.27-6.6-12.14-7.28q-5.92-.82-11.89-1.17a22.4 22.4 0 0 0-11.89 2.3c-5.11 2.62-10.53 8.1-10.33 14.23.09 2.57 4.09 2.58 4 0-.14-4.47 4.08-8.39 7.67-10.4a17.5 17.5 0 0 1 9.66-2.18c3.45.17 6.91.5 10.35.9 3.64.44 7.46 1.16 10.07 4.1 1.62 1.84 2.31 4.33 2.91 6.64.75 2.9 1.46 5.96.84 8.95-.52 2.51 3.33 3.59 3.86 1.07" class="b"/><path d="M351.24 199.26a22 22 0 0 0-7.76 2.74 17 17 0 0 0-5.28 5.2 2 2 0 0 0 .72 2.74 2.05 2.05 0 0 0 2.73-.72l.54-.75c.2-.26-.02.02.1-.14q.15-.2.32-.38a13 13 0 0 1 1.08-1.16q.21-.2.44-.39l.26-.21a17 17 0 0 1 1.24-.81q.68-.4 1.38-.73l.4-.18c.2-.1-.26.1.1-.04q.42-.18.85-.33a23 23 0 0 1 3.94-.98 2 2 0 0 0 1.4-2.46 2.06 2.06 0 0 0-2.46-1.4m.85 8.17a12 12 0 0 0-5.36 1.84 12 12 0 0 0-4.17 4.14 2 2 0 0 0 3.45 2.02l.28-.46.2-.26c.14-.22-.08.09-.12.14q.38-.45.8-.89a12 12 0 0 1 .8-.7l.28-.21.5-.33q.49-.3 1-.57l.53-.24c.36-.17-.34.13-.12.05l.26-.1a9 9 0 0 1 1.08-.33l.5-.1c.24-.05-.52.06-.2.03l.3-.03a2 2 0 0 0 0-4m1.93 7.46a6 6 0 0 0-1.4.41 9 9 0 0 0-1.89.98 8.6 8.6 0 0 0-2.96 3.44 2.2 2.2 0 0 0-.2 1.54 2 2 0 0 0 .91 1.2 2 2 0 0 0 1.55.2 2 2 0 0 0 1.19-.92 7 7 0 0 1 .77-1.3l-.32.4a7 7 0 0 1 1.27-1.26l-.4.32a8 8 0 0 1 1.6-.94l-.48.2a6 6 0 0 1 1.43-.42 2 2 0 0 0 1.2-.92 2 2 0 0 0 .2-1.54 2 2 0 0 0-.92-1.2l-.48-.2a2 2 0 0 0-1.06 0Z" class="b"/><path d="M374.98 216.37c-.88 1.74-2.55 2.54-4.36 3.09a22 22 0 0 1-6.56 1c-2.32 0-5.02-.24-7.14.87-.79.41-3.88 3.5-4.66 1.95-1.15-2.3-4.6-.27-3.45 2.02 1.46 2.91 5.32 2.85 7.7 1.2 1.03-.72 1.92-1.7 3.21-1.9a27 27 0 0 1 4.34-.13c4.94 0 11.9-1.2 14.37-6.08 1.16-2.3-2.29-4.32-3.45-2.02m-77.8-52.73c1.76 5.28 4.85 10.2 9.78 13 5.29 3.02 11.24 2.74 16.8.63a2.06 2.06 0 0 0 1.4-2.46 2 2 0 0 0-2.47-1.4c-4.55 1.73-9.31 2.28-13.7-.22-4.03-2.3-6.52-6.32-7.96-10.62-.8-2.43-4.67-1.39-3.85 1.06Zm98.58-146.86c5.55 5.8 8.28 14.04 8.21 22a61 61 0 0 1-1.04 9.61c-.55 3.23-1.24 6.64-3.05 9.42-1.4 2.17 2.06 4.18 3.46 2.02 3.02-4.65 3.6-10.71 4.24-16.1a40 40 0 0 0-2.76-20.41 31 31 0 0 0-6.23-9.38c-1.78-1.86-4.6.97-2.83 2.83Zm-28.43 16.94a33 33 0 0 1 12.9 9.92 41 41 0 0 1 4.5 7.16 2 2 0 0 0 3.46-2.01c-3.65-7.22-9.22-13.64-16.46-17.4q-1.17-.6-2.38-1.13a2.06 2.06 0 0 0-2.74.72 2 2 0 0 0 .72 2.73Zm-36.76 16.2a8 8 0 0 1 1.09-2.42 35 35 0 0 1 2.24-3.35 36 36 0 0 1 6.17-6.56 14 14 0 0 1 1.29-.91c.12-.08.6-.27.65-.38.9-2.16-1.33.03-1.23-.24a3 3 0 0 0 .1.69 6 6 0 0 0 .28 2.65 3.3 3.3 0 0 0 1.96 1.67c1.53.44 2.87-.54 4.1-1.3q1.88-1.19 3.77-2.34a34 34 0 0 1 11.38-4.76 2 2 0 0 0 1.4-2.46 2.04 2.04 0 0 0-2.46-1.4 35 35 0 0 0-10.9 4.31c-1.5.86-2.97 1.8-4.45 2.72q-.82.53-1.67 1.03l-.32.18c-.34.35-.5-.1.16.29-.22-.13.93.26.7.44.1-.09.05-.73.05-.85-.01-1.85-.65-4.03-2.7-4.49-1.5-.34-2.94.79-4.07 1.65a38 38 0 0 0-6.85 6.98c-1.78 2.28-3.84 4.9-4.54 7.78-.61 2.5 3.25 3.56 3.85 1.06Zm30.71 8.9c-.34-1.73.39-5.52 3.58-5.53 4.17.46 3.91 5.12 2.29 7.15-1.34 1.67-4.8 2.06-5.87-1.63m-24.85-1.78c-.3-1.72.39-5.53 3.3-5.55 3.83.43 3.57 5.1 2.06 7.15-1.23 1.68-4.4 2.1-5.36-1.6m42.32 30.89a46 46 0 0 0 7.65-7.07 40 40 0 0 0 4.36-5.94 2 2 0 0 0-3.45-2.02 33 33 0 0 1-1.94 2.9l-.33.45c-.27.37.34-.42-.03.04l-1.44 1.75a43 43 0 0 1-6.84 6.44 2.05 2.05 0 0 0-.72 2.73 2 2 0 0 0 2.74.72" class="b"/><path d="M392.61 8.97a39.5 39.5 0 0 0-18.96-8.5A48 48 0 0 0 353.9 1.8a39 39 0 0 0-16.1 9.06 38 38 0 0 0-10.18 17.5 57 57 0 0 0-1.08 23.2 2 2 0 0 0 2.46 1.4 2.05 2.05 0 0 0 1.4-2.47c-1.73-12.06.14-26.24 8.84-35.42C347.25 6.6 359.1 3.3 370.52 4.13a35 35 0 0 1 19.26 7.67 2.07 2.07 0 0 0 2.83 0 2 2 0 0 0 0-2.83" class="b"/><path d="M370.13 87.47c-8.42 3.19-18 4.47-26.2-.1a23.6 23.6 0 0 1-9.1-8.64 30.5 30.5 0 0 1-3.51-12.3c-.56-6.01-.45-12.1-.83-18.13-.16-2.56-4.16-2.57-4 0 .36 5.77.31 11.56.76 17.31a37 37 0 0 0 3.6 14.16c4.36 8.55 13.76 13.92 23.17 14.54a41 41 0 0 0 17.18-2.98 2.06 2.06 0 0 0 1.4-2.46 2 2 0 0 0-2.46-1.4Zm24.7-30.89a3.6 3.6 0 0 1 3.4-.02 2.4 2.4 0 0 1 1.05.85c-.28-.34.1.2.14.27.3.45.01-.12.07.1a9 9 0 0 1 .24 3.67 12.8 12.8 0 0 1-5.49 8.78q-.45.27-.9.5c.47-.24-.2.07-.3.1a9 9 0 0 1-1.7.4 5.6 5.6 0 0 1-3.13-.43c-2.26-1.24-4.28 2.22-2.02 3.45a10.3 10.3 0 0 0 8.09.38 13.7 13.7 0 0 0 6.42-5.23 16.6 16.6 0 0 0 2.93-7.14c.38-2.59.3-5.42-1.41-7.54a7.6 7.6 0 0 0-9.41-1.59c-2.24 1.28-.22 4.74 2.02 3.45" class="b"/><path d="m297.7 119.64-1.16-7.34a1.9 1.9 0 0 1 .5-1.6c.49-.5 1.02-1.06 1.57-1.54a2 2 0 0 0 .64-1.4q0-.84-.04-1.6a2 2 0 0 1 1.64-1.98c4.04-.64 14.74-2.3 21.32-3.35a1.9 1.9 0 0 1 2.1 1.34q.2.72.47 1.52a2 2 0 0 0 1.04 1.13c.67.29 1.35.65 1.97.98a1.9 1.9 0 0 1 .98 1.35c.88 5.46 4.13 25.22 4.94 30.27.27 1.66 1.25 7.08 1.29 8.76s.15 3.35-1 4.57c-1.2 1.28-5 2.5-6.63 2.88a110 110 0 0 1-14.76 2.6c-1.64.19-3.68.55-5.14-.23-1.43-.75-2.12-2.48-2.52-4.04Z" style="fill:#c6c6c6"/><path d="M302.98 152.49a8.7 8.7 0 0 0 2.67 4.7 7.3 7.3 0 0 0 5.44 1.2 113 113 0 0 0 11.8-1.73 47 47 0 0 0 9.54-2.66 7.5 7.5 0 0 0 3.7-2.84 9.4 9.4 0 0 0 .82-5.32 88 88 0 0 0-1.35-8.96 2 2 0 0 0-2.46-1.4 2.05 2.05 0 0 0-1.4 2.46 71 71 0 0 1 1.21 8.07c.07 1.4.27 3-1 3.76a18 18 0 0 1-4.48 1.75 94 94 0 0 1-11.04 2.22 50 50 0 0 1-6.5.73c-2.03.02-2.62-1.26-3.1-3.05-.67-2.48-4.53-1.43-3.85 1.06Z" class="b"/><path d="M296.72 149.24a15 15 0 0 0 4.66 1 23 23 0 0 0 6.62-.5 20 20 0 0 0 5-1.78 5.7 5.7 0 0 0 3.06-3.66 3.5 3.5 0 0 0-2.06-4 4.8 4.8 0 0 0 4.22-3.06c.55-1.76-.67-3.98-2.51-4.08a3.27 3.27 0 0 0 1.72-5.4c-.96-1.04-2.51-1.1-3.92-1.27a44 44 0 0 0-11.6.37l.27-.13a58 58 0 0 0 6.83-5.13 3.15 3.15 0 0 0 .56-4.21 3.6 3.6 0 0 0-2.87-1.43c-3.1-.23-8.74 3.27-11 5.15-4.03 3.06-6.07 9.95-5.85 15 .21 4.92.77 8.1 4.3 11.53a8 8 0 0 0 2.57 1.6" class="a"/><path d="M301.42 129a40 40 0 0 1 10.17-.67 11 11 0 0 1 4 .55c1.18.6.67 2.06-.42 2.36-2.32.64-1.6 3.67.54 3.92.57.07.7 1.15.58 1.55a2.8 2.8 0 0 1-2.29 1.59 2.01 2.01 0 0 0-.53 3.93c.77.3.75 1.5.5 2.1-.57 1.34-2.09 2.03-3.33 2.53a21 21 0 0 1-8.79 1.4c-2.52-.12-5.06-.7-6.83-2.59a11 11 0 0 1-2.92-6.27c-.71-5-.04-10.4 2.87-14.63a15 15 0 0 1 4.81-4.09c1.86-1.15 4.2-2.61 6.44-2.72.77-.03 1.98.25 1.93 1.23-.04.92-1.35 1.73-1.98 2.24a36 36 0 0 1-5 3.59c-2.26 1.23-.24 4.68 2.02 3.45a42 42 0 0 0 6.12-4.47 7.4 7.4 0 0 0 2.6-3.4 4.9 4.9 0 0 0-1.53-5.23c-2.75-2.39-6.47-1.24-9.4.12a27 27 0 0 0-7.66 5.06c-5.03 4.97-6.07 12.9-5.12 19.58a15 15 0 0 0 4.4 8.8c2.66 2.6 6.55 3.31 10.13 3.37 4.25.06 9.45-.89 12.81-3.66 3.46-2.84 3.52-8.5-1-10.26l-.54 3.92c2.87-.36 5.76-2.03 6.27-5.13a5.17 5.17 0 0 0-4.56-6l.53 3.92a5.26 5.26 0 0 0-.77-10.36 42 42 0 0 0-15.11.4c-2.52.51-1.45 4.37 1.06 3.86Z" class="b"/><path d="M302.2 137.32a53 53 0 0 1 12.87-2.05 2 2 0 0 0 0-4 59 59 0 0 0-13.93 2.2 2 2 0 0 0 1.06 3.85m1.57 7.24q2.33-.4 4.64-.86a50 50 0 0 0 5.43-1.27 2 2 0 0 0-1.06-3.86 50 50 0 0 1-5.43 1.27q-2.31.47-4.64.86a2 2 0 0 0-1.4 2.46 2.06 2.06 0 0 0 2.46 1.4m-4.14-25.45-.77-4.88-.26-1.6-.08-.53c-.1-.33.08-.22-.07.02a20 20 0 0 1 1.84-1.84 4 4 0 0 0 .96-2.51 9 9 0 0 0-.02-1.22c-.03-.3.06-.5-.06-.38.18-.2.88-.17 1.14-.21l16.75-2.63 1.72-.27c.39-.06 1.38-.41 1.74-.25-.27-.12-.15-.25-.08.25a6 6 0 0 0 .37 1.16 4.3 4.3 0 0 0 1.68 2.17c.56.36 1.87.59 2.25 1.13a2 2 0 0 1 .15.75l.4 2.48 2.28 13.92 2.17 13.28a2 2 0 0 0 2.46 1.4 2.05 2.05 0 0 0 1.4-2.46q-2.27-13.97-4.57-27.95c-.12-.77-.2-1.57-.37-2.32a4 4 0 0 0-1.4-2.2c-.75-.59-1.82-.77-2.53-1.34-.4-.33-.46-1.26-.66-1.77a4 4 0 0 0-1.88-2.09c-1.53-.78-3.38-.19-4.98.07l-18.08 2.83a4.2 4.2 0 0 0-3.8 3.05c-.2.75.15 2.03-.14 2.57-.2.38-.81.78-1.11 1.09a7 7 0 0 0-1.07 1.3c-.75 1.31-.4 2.75-.17 4.15l.93 5.9a2 2 0 0 0 2.46 1.4 2.05 2.05 0 0 0 1.4-2.47" class="b"/><path d="m304.36 114.44 17.29-2.73a2 2 0 0 0 1.4-2.46 2.05 2.05 0 0 0-2.46-1.4c-5.76.92-11.53 1.8-17.3 2.73a2 2 0 0 0-1.4 2.46 2.05 2.05 0 0 0 2.47 1.4" class="b"/><path d="M328.82 62.86c.01-1.02 1.35-1.31 2.39-1.14 6.23 1.01 39.3 3.52 46.7 4.34 1.98.22 3.07 2 3.24 3.91.1 1.27.22 4.16.35 5.1.41 3 .73 4.06 1.31 6.98a4.7 4.7 0 0 1-1.6 4.19c-6.85 5.88-14.55 8.55-26.33 7.65-8.8-.67-15.98-5-19.9-9.77-4.15-5.07-6.34-11.85-6.17-21.26" class="a"/><path d="M381.89 67.94a110 110 0 0 1 6.15-5.53q.83-.7 1.68-1.37l.76-.6c-.3.24.17-.13.19-.14l.44-.33q1.42-1.08 2.95-2.01a2 2 0 0 0-2.02-3.46 55 55 0 0 0-6.67 4.95 107 107 0 0 0-6.31 5.66 2 2 0 1 0 2.83 2.83" class="b"/><path d="m330.74 63.39.04-.26q-.95.8-.21.53c.12.05.58.04.2 0l.54.08q1.02.15 2.05.26 2.1.25 4.21.46 5.81.57 11.63 1.07c8.14.72 16.28 1.37 24.41 2.11q1.86.16 3.7.35a1.6 1.6 0 0 1 1.44.8 7 7 0 0 1 .53 3.19 50 50 0 0 0 .92 7.3 16 16 0 0 1 .68 3.55c-.05 1.3-1.2 2.12-2.12 2.86a29 29 0 0 1-13.1 5.87 37 37 0 0 1-17.58-1.06 24.6 24.6 0 0 1-13.23-9.98c-3.28-5.28-4.12-11.54-4.04-17.66.04-2.57-3.96-2.57-4 0-.08 6.28.8 12.68 3.78 18.28a27.3 27.3 0 0 0 12 11.39 38 38 0 0 0 19.74 3.43 33.6 33.6 0 0 0 16.15-5.17c2.43-1.58 5.4-3.48 6.18-6.45a9.4 9.4 0 0 0-.26-4.45 80 80 0 0 1-.85-4.46c-.38-2.47.05-5.24-.86-7.6-1-2.58-3.03-3.59-5.65-3.86-8.18-.83-16.38-1.44-24.57-2.15q-7.46-.62-14.9-1.35-2.48-.25-4.95-.55c-.13-.01-.61-.08 0 0l-.48-.07a11 11 0 0 0-1.52-.17c-1.62 0-3.49.88-3.73 2.65a2.07 2.07 0 0 0 1.4 2.46 2 2 0 0 0 2.45-1.4" class="b"/></svg>
