<svg xmlns="http://www.w3.org/2000/svg" viewBox="0 -13.47 351.702 351.702"><defs><style>.a{fill:#f2635f}.b{fill:#fff}.c{fill:#211715}.d{fill:#74c66d}</style></defs><path d="M241.96 303.72v-26.83c13.43-11.84 29.2-25.6 40.53-35.13a4 4 0 0 1 5.13-.01 2161 2161 0 0 1 40.72 34.87v45.32h-86.38zm86.37-74.14h-19.18v4.4a1769 1769 0 0 1 19.18 16.63z" class="a"/><path d="M266.84 273.84v36.6h36.6v-36.6z" class="b"/><path d="M226.72 264.36c14.59-12.97 39.66-35.06 55.77-48.6a4 4 0 0 1 5.13-.01 1929 1929 0 0 1 60.8 52.84 4 4 0 0 1 .3 5.59 984 984 0 0 1-7.57 8.5 4 4 0 0 1-5.62.31 2067 2067 0 0 0-47.92-41.24 4 4 0 0 0-5.13.01 2925 2925 0 0 0-47.37 41.16 4 4 0 0 1-5.62-.32c-2.5-2.77-5.16-5.76-7.64-8.6a4 4 0 0 1 .34-5.61zm82.43-43.7v8.92h19.18v-8.92a1 1 0 0 0-1-1h-17.18a1 1 0 0 0-1 1" class="b"/><path d="M326.33 229.58v18.9c0 2.58 4 2.58 4 0v-18.9c0-2.57-4-2.58-4 0" class="c"/><path d="M307.15 220.66v8.92a2.03 2.03 0 0 0 2 2h19.18a2.03 2.03 0 0 0 2-2v-6.32c0-.85.04-1.72 0-2.58a3.1 3.1 0 0 0-3.14-3.02c-4.56-.15-9.15 0-13.72 0h-2.87a3.2 3.2 0 0 0-3.45 3 2 2 0 0 0 2 2 2.05 2.05 0 0 0 2-2c-.2 1.74-1.55.91-.78 1a7 7 0 0 0 .76 0h15.6c.12 0 .43.06.53 0 .08-.04-.85-1.1-.93-.91a3 3 0 0 0 0 .84v8l2-2h-19.18l2 2v-8.93c0-2.57-4-2.57-4 0" class="c"/><path d="M228.14 265.77q21.7-19.3 43.67-38.3 5.23-4.5 10.5-8.96a6 6 0 0 1 2.37-1.66c1.23-.25 2.11.8 2.96 1.5l6.87 5.79q14.37 12.11 28.53 24.47 7.07 6.2 14.08 12.46 3.38 3.02 6.74 6.06a42 42 0 0 1 3.28 2.99 2 2 0 0 1 .37 2.31 17 17 0 0 1-2.7 3.17l-3.18 3.57c-.75.83-1.55 2.16-2.6 2.65s-1.86-.05-2.62-.73q-7.04-6.26-14.15-12.44-14.31-12.45-28.85-24.65l-3.29-2.76a9 9 0 0 0-3.63-2.25c-2.89-.72-4.92.93-6.98 2.67q-5.57 4.7-11.08 9.47-12.37 10.65-24.61 21.45l-6.08 5.36-2.62 2.31c-.73.64-1.5 1.62-2.54 1.67s-1.63-.7-2.27-1.4l-3.22-3.6-2.92-3.3c-.68-.78-1.5-1.5-1.27-2.63.19-1 1.2-1.63 1.91-2.26zc1.93-1.72-.9-4.54-2.82-2.83l-3.33 2.95a9 9 0 0 0-2.73 3.38 6 6 0 0 0-.16 3.73 10 10 0 0 0 2.4 3.6q3.12 3.57 6.3 7.07a6.14 6.14 0 0 0 7.45 1.56 15 15 0 0 0 2.85-2.28l3.07-2.71 6.42-5.66q6.54-5.75 13.1-11.47 6.41-5.58 12.85-11.12l6.09-5.2 2.72-2.3c.72-.61 1.54-1.58 2.53-1.67 1.28-.12 2.27 1.12 3.16 1.86l4.02 3.38q3.78 3.18 7.55 6.38 7.72 6.55 15.38 13.18 7.6 6.57 15.13 13.22c2.13 1.88 4.37 4.73 7.36 5.1 3.2.4 5.05-1.78 6.98-3.95q1.6-1.77 3.18-3.56a27 27 0 0 0 3.25-3.82 6.1 6.1 0 0 0-.79-7.19c-1.02-1.13-2.28-2.1-3.4-3.12l-3.9-3.5-7.14-6.4q-15-13.3-30.28-26.3-7.43-6.31-14.9-12.57a11 11 0 0 0-3.63-2.45 6 6 0 0 0-4.17.24c-2.08.9-3.89 2.95-5.6 4.4a2999 2999 0 0 0-47.12 41.09l-4.64 4.12c-1.93 1.72.9 4.54 2.82 2.83" class="c"/><path d="M239.96 278.27v43.67a2.03 2.03 0 0 0 2 2h86.37a2.03 2.03 0 0 0 2-2v-44.67c0-2.58-4-2.58-4 0v44.67l2-2h-86.37l2 2v-43.67c0-2.58-4-2.58-4 0" class="c"/><path d="M264.84 273.84v36.6a2.03 2.03 0 0 0 2 2h36.6a2.03 2.03 0 0 0 2-2v-36.6a2.03 2.03 0 0 0-2-2h-36.6c-2.58 0-2.58 4 0 4h36.6l-2-2v36.6l2-2h-36.6l2 2v-36.6c0-2.57-4-2.58-4 0" class="c"/><path d="M303.45 290.15h-36.6c-2.58 0-2.59 4 0 4h36.6c2.57 0 2.57-4 0-4" class="c"/><path d="M283.15 273.84v36.6c0 2.58 4 2.58 4 0v-36.6c0-2.57-4-2.57-4 0" class="c"/><path d="M91.55 229.13c2.04-1.85 3.36-6.16 4.63-8.98a3.1 3.1 0 0 0-2.36-4.54c-2.77-.52-5.1-.86-7.97-1.2-2.91-.34-6.58 1.62-9.21 1.68a25 25 0 0 1-8.77-1.89 3.04 3.04 0 0 0-3.96 3.65c1.39 4.98 3.88 11.03 8.26 13.9l-6.38 9.32a46 46 0 0 0-6.97 6.96q2.75 1.45 6 3.1c13.07 6.65 30.24 11.99 44.29 14.87-.38-7.6-3.03-15.5-12.17-22.48l-6.14-5.08Z" class="b"/><path d="M73.18 230.02c-2.97-2.01-4.8-5.48-6.05-8.75q-.49-1.28-.9-2.6c-.18-.58-.62-1.42-.35-2.02a1.1 1.1 0 0 1 1.1-.62 6 6 0 0 1 1.48.5q1.02.35 2.05.65a18 18 0 0 0 6.77.87 47 47 0 0 0 5.74-1.37 16 16 0 0 1 6.1.17q1.52.22 3.04.5c.66.1 1.8.11 2.22.76.34.53.02 1.14-.19 1.64q-.6 1.5-1.23 2.99a14 14 0 0 1-2.83 4.98c-1.86 1.78.97 4.61 2.83 2.83a17 17 0 0 0 3.5-5.87c.81-1.94 2.23-4.27 2.04-6.43a5.25 5.25 0 0 0-4.6-4.64 63 63 0 0 0-8.4-1.22c-2.45-.13-4.81.84-7.16 1.42-2.66.67-5.34-.01-7.9-.83-2.47-.8-4.93-1.63-7.07.44-1.98 1.92-1.63 4.3-.88 6.66 1.63 5.1 4.11 10.31 8.68 13.4 2.13 1.44 4.14-2.02 2.02-3.46Z" class="c"/><path d="M92.52 238.48a1.4 1.4 0 0 0 .48-.37 2 2 0 0 0 .27-1.16 24 24 0 0 0-.3-3.9c-.16-1.1-.6-2.39-1.7-2.61a3 3 0 0 0-1.44.18 46 46 0 0 1-22.18.76 2.14 2.14 0 0 0-2.59 1.98 29 29 0 0 0 .11 4.21 2.5 2.5 0 0 0 2.24 2.28c5.15.6 18.14 1.58 24.78-1.22z" class="a"/><path d="M93.53 240.2c1.42-.87 1.75-2.14 1.74-3.74a17 17 0 0 0-.57-4.86 4.6 4.6 0 0 0-2.13-2.8c-1.5-.8-3.1-.13-4.62.25a45 45 0 0 1-19.3.5c-2.95-.55-5.4.89-5.6 4.05-.15 2.59-.24 5.93 2.18 7.53 1.57 1.03 3.99.93 5.81 1.07q3.4.27 6.8.31c5.2.05 10.88-.1 15.69-2.3a2 2 0 0 0 .72-2.74 2.05 2.05 0 0 0-2.74-.71c-3.02 1.38-6.69 1.58-9.95 1.7a90 90 0 0 1-10.8-.28l-1.94-.18c-.4-.04-1.1.02-1.4-.2-.5-.37-.34-1.47-.36-2.01q-.04-.86-.02-1.72c.02-.45-.08-.6.13-.73.1-.07.07-.02-.04-.02a8 8 0 0 1 .91.18q.92.18 1.84.32 1.89.29 3.78.44a46 46 0 0 0 7.7-.05 48 48 0 0 0 8.34-1.47 4 4 0 0 0 .85-.24c.47-.25.29.18.07-.25a3 3 0 0 1 .35.88 13 13 0 0 1 .24 1.86l.05.98c.02.4-.27 1.11.26.79-2.2 1.35-.19 4.8 2 3.45m17.6 26.26a32 32 0 0 0-2.98-12.7 34 34 0 0 0-10.2-11.96 2 2 0 0 0-2.74.72 2.05 2.05 0 0 0 .72 2.73 29.4 29.4 0 0 1 8.77 10.53 27 27 0 0 1 2.43 10.68c.1 2.57 4.1 2.58 4 0" class="c"/><path d="M64.37 239.66a47 47 0 0 0-6.8 6.75 2.2 2.2 0 0 0-.58 1.41 2 2 0 0 0 3.41 1.42 47 47 0 0 1 6.8-6.76 2 2 0 0 0 .59-1.41 2 2 0 0 0-.59-1.41 2 2 0 0 0-1.41-.59 2.3 2.3 0 0 0-1.42.59m11.25 1.02a40 40 0 0 0-1.88 7.27 2.2 2.2 0 0 0 .2 1.54 2 2 0 0 0 3.66-.48 39 39 0 0 1 1.88-7.27 2 2 0 0 0-1.4-2.46 2.05 2.05 0 0 0-2.46 1.4m6.8 1.1a14 14 0 0 0 .86 4.13 2.2 2.2 0 0 0 .92 1.2 2 2 0 0 0 2.74-.72 2 2 0 0 0 .2-1.54 12 12 0 0 1-.7-2.74l.07.54q-.06-.44-.08-.87a2 2 0 0 0-.59-1.42 2 2 0 0 0-2.83 0 2 2 0 0 0-.58 1.42Z" class="c"/><path d="M111.88 305.71q-.31-1.64-.67-3.27a55 55 0 0 1-9.5 1.8q.92 4.55 1.55 9.14h9.88q-.53-3.85-1.26-7.67" class="a"/><path d="M108.33 313.38h15.33a9.7 9.7 0 0 0 8.16-4.6 5.5 5.5 0 0 1 5.01-2.41h.1a5.48 5.48 0 0 1 4.38 7.99 15 15 0 0 1-2.45 3.43c-3.23 3.34-7.96 4.94-15.2 4.94H22.88a4.67 4.67 0 0 1-5.05-4.81c0-2.3 1.29-4.54 4.77-4.54z" class="a"/><path d="M44.72 303.28q-.87 5.01-1.37 10.1h10.1q.64-5.51 1.72-10.92-2.3-.38-4.58-.83a83 83 0 0 1-5.35-1.2q-.28 1.42-.52 2.85" class="a"/><path d="M43.17 300.64q-1 5.3-1.6 10.66a2 2 0 0 0 2 2 2.06 2.06 0 0 0 2-2q.14-1.28.31-2.55c-.05.4.03-.23.04-.25l.08-.59.18-1.26q.38-2.48.85-4.95a2 2 0 0 0-3.86-1.06m71.76 11.25q-.83-5.78-2.12-11.47a2 2 0 0 0-2.46-1.4 2.05 2.05 0 0 0-1.4 2.46q1.29 5.69 2.12 11.47a2 2 0 0 0 2.46 1.4 2.06 2.06 0 0 0 1.4-2.46m-9.88 0q-.83-5.78-2.12-11.47a2 2 0 0 0-2.46-1.4 2.05 2.05 0 0 0-1.4 2.46q1.29 5.69 2.12 11.47a2 2 0 0 0 2.46 1.4 2.06 2.06 0 0 0 1.4-2.46m-51.96-9.23q-.92 4.86-1.52 9.76a2 2 0 0 0 2 2 2.06 2.06 0 0 0 2-2l.15-1.16.03-.27q-.05.36 0 0l.08-.53q.15-1.12.33-2.23.35-2.26.79-4.5a2 2 0 1 0-3.86-1.07" class="c"/><path d="M25.05 281.6a33 33 0 0 1-.98-6.05 61 61 0 0 1 4.62-26.5c1.72-4.03 4.94-7.78 9.24-8.57 4.13-.76 8.2 1.31 11.85 3.4 22.07 12.62 42.24 31.13 69.95 30.24 5.7-.1 7.92 4.48 8.45 7.65a15 15 0 0 1-1.89 9.41c-6.06 11.18-19.63 12.98-31.03 13.58a183 183 0 0 1-44.67-3.13c-6.45-1.25-13.09-3-18.04-7.3a25 25 0 0 1-7.5-12.73" class="d"/><path d="M26.98 281.07c-2.26-8.94-.75-18.9 2.14-27.53 1.23-3.66 2.8-7.66 6.2-9.85 4.15-2.7 8.76-.7 12.66 1.47 14.66 8.17 27.87 18.8 43.43 25.34a69 69 0 0 0 24.82 5.63c1.96.05 4.17-.34 6.04.4a5.8 5.8 0 0 1 2.85 2.53c1.87 3.17 1.37 7.16-.17 10.37-3.24 6.73-9.92 10.17-16.9 11.77-8.26 1.9-17.05 1.93-25.47 1.79a180 180 0 0 1-31.66-3.32 47 47 0 0 1-12.64-3.9 21 21 0 0 1-9.07-8.9 27 27 0 0 1-2.23-5.8c-.66-2.48-4.52-1.42-3.86 1.07a28 28 0 0 0 6.6 12.24 29 29 0 0 0 12.32 7.22 99 99 0 0 0 15.23 3.22q8.47 1.31 17.02 1.85a150 150 0 0 0 30.14-.76c7.7-1.09 15.8-3.69 20.95-9.86 2.99-3.6 5.2-8.25 4.94-13.02a12 12 0 0 0-4.66-9.17 10 10 0 0 0-5.74-1.73c-2.38-.02-4.73.02-7.1-.18a62 62 0 0 1-13.18-2.66c-17.2-5.38-31.53-16.94-46.87-25.99-4.32-2.55-9.17-5.51-14.4-4.9-4.58.55-8.2 3.77-10.42 7.66-2.35 4.09-3.66 8.98-4.62 13.56A60 60 0 0 0 22 274.37a39 39 0 0 0 1.13 7.76c.63 2.5 4.48 1.44 3.85-1.06" class="c"/><path d="M35.48 236.52c-3.74 0-5.58.88-6.62 2.65a7.1 7.1 0 0 0-.74 6.03 10.5 10.5 0 0 0 3.77 5.04c18.28 13.75 64.74 31.44 90.55 29.45a10 10 0 0 0 5.93-2.5c1.47-1.3 2.28-3.96 1.9-5.27-.6-2.1-2.49-3.2-4.96-3.63-14.22-.7-39.38-7.2-58.23-16.8-20.08-10.21-27.25-14.97-31.6-14.97" class="b"/><path d="M35.48 234.52c-4.27-.23-8.26 1.7-9.5 6.06-1.36 4.82 1.89 9.2 5.55 11.87a115 115 0 0 0 18.1 10.45 206 206 0 0 0 49.06 16.74 92 92 0 0 0 22.43 2.13c4.62-.23 9.37-2.05 10.87-6.84 1.45-4.58-2.25-8.22-6.68-8.64-3.48-.34-6.92-.64-10.37-1.22q-6.43-1.1-12.76-2.69a195 195 0 0 1-27.39-8.87c-8.61-3.54-16.8-8.1-24.95-12.6C46 238.8 42 236.05 37.7 234.9a12 12 0 0 0-2.22-.37c-2.56-.2-2.55 3.81 0 4 .73.06-.25-.1.4.05l.86.2.92.3.46.18c.57.21-.13-.07.25.1a76 76 0 0 1 5.45 2.8c6.95 3.8 13.87 7.67 20.97 11.2a166 166 0 0 0 25.03 9.75 189 189 0 0 0 24.7 5.93c3.38.56 6.77.9 10.18 1.22 1.34.13 3.09.63 3.6 2.05.4 1.12-.67 3-1.74 3.8-2.82 2.12-6.79 1.8-10.13 1.72a87 87 0 0 1-10.13-.9c-15.85-2.32-31.45-7.36-46.15-13.62a168 168 0 0 1-19.63-9.76 71 71 0 0 1-7.44-4.88c-2.8-2.18-4.84-6.37-1.88-9.14 1.1-1.03 2.76-1.07 4.28-1 2.57.15 2.57-3.85 0-4m72.85 80.86h10.16c2.93 0 6.15.37 8.95-.65a12 12 0 0 0 3.89-2.35c1.14-1 1.83-2.54 3.05-3.41a3.6 3.6 0 0 1 5.26 1.44c1.13 2.53-1.27 5.22-3.04 6.76a14.4 14.4 0 0 1-6.68 3.02c-3.44.71-7.01.54-10.51.54H23.49c-1.77 0-3.48-.47-3.66-2.51-.2-2.26 1.43-2.84 3.41-2.84zc2.57 0 2.57-4 0-4H23.91c-2.21 0-4.42.12-6.14 1.7a6.95 6.95 0 0 0-1.4 7.6c1.15 2.75 3.82 4.03 6.7 4.05h94.6c3.19 0 6.42.13 9.59-.15 6.21-.56 12.05-2.9 15.36-8.48a7.52 7.52 0 0 0-12.32-8.64 10 10 0 0 1-3.13 3.02c-2.51 1.4-5.75.9-8.52.9h-10.33c-2.57 0-2.58 4 0 4" class="c"/><path d="M271.32 140.8v-12.53h27.94v15.53H271.3z" class="b"/><path d="m297.25 129.62.01 13.53a2 2 0 0 0 4 0v-13.53a2 2 0 0 0-4 0m-27.93 0v13.53a2 2 0 0 0 4 0v-13.53a2 2 0 0 0-4 0" class="c"/><path d="M265.61 151.84v-8.68l-2 2h43.34l-2-2v8.68c0 2.57 4 2.58 4 0v-8.68a2.03 2.03 0 0 0-2-2h-43.34a2.03 2.03 0 0 0-2 2v8.68c0 2.57 4 2.58 4 0" class="c"/><path d="M345.49 127.82c-8.58-9.93-23.2-26.97-27.68-32.18a.94.94 0 0 1 .71-1.56l11.3-.02a.94.94 0 0 0 .71-1.54c-3.1-3.7-9.1-10.97-14.72-17.78l-.73.7c-1.7 1.65-5.68 2.04-8.54 1.56-4.95-.83-8.5-3.25-12.77-5.35a19.7 19.7 0 0 0-13.58-1.78c-2.37.5-4.55 1.55-6.9 2.14-5.73 1.46-10.77.62-13.26-3.76a3420 3420 0 0 0-20.04 24.28.94.94 0 0 0 .73 1.53l11.34.02a.94.94 0 0 1 .71 1.55c-5.19 6.01-22.71 26.4-27.7 32.19a.94.94 0 0 0 .72 1.55h118.99a.94.94 0 0 0 .7-1.55" class="d"/><path d="M270.86 38.9c-6.67 7.9-13.08 15.52-15.74 18.7a.94.94 0 0 0 .71 1.53l9.76.03a.94.94 0 0 1 .72 1.54l-6.28 7.55c2.48 4.38 7.53 5.22 13.26 3.76 2.35-.6 4.53-1.64 6.9-2.14a19.7 19.7 0 0 1 13.58 1.78c4.27 2.1 7.82 4.52 12.76 5.35 2.86.48 6.84.09 8.55-1.56l.73-.7-11.57-14.05a.94.94 0 0 1 .72-1.53l9.78-.02a.94.94 0 0 0 .71-1.55A5181 5181 0 0 0 286 22.74a.94.94 0 0 0-1.42 0 2649 2649 0 0 0-13.72 16.15" class="b"/><path d="M259.28 70.69a11.6 11.6 0 0 0 9.62 3.98 23 23 0 0 0 6.23-1.1 55 55 0 0 1 6.25-1.9 18.6 18.6 0 0 1 11.94 2c3.59 1.8 7.07 3.91 11 4.91 3.89.99 9 1.12 12.18-1.72 1.92-1.72-.91-4.54-2.83-2.83a6.6 6.6 0 0 1-3.9 1.15 15 15 0 0 1-5-.62c-3.56-1.02-6.69-3.02-9.99-4.63a22.7 22.7 0 0 0-11.34-2.51 24 24 0 0 0-5.96 1.13 53 53 0 0 1-5.96 1.82c-3.44.68-7.1.4-9.41-2.51a2 2 0 0 0-2.83 0 2.05 2.05 0 0 0 0 2.83" class="c"/><path d="m296.5 38.16 10.36 12.3 4.1 4.89 1.65 1.96.66.78.3.36c.44.53.28.65.57-.45.28-1.08.41-.86-.36-.86h-6.66c-1.19 0-2.62-.2-3.68.44a3 3 0 0 0-1.34 3.14c.26 1.18 1.42 2.23 2.18 3.15l2.6 3.17 13.9 16.84 6.18 7.45 1.23 1.48a5 5 0 0 0 .58.7c.06.04.18.28.24.29l.47-1.74h-.52l-7.54.02c-2.2 0-5.7-.35-5.82 2.8-.06 1.55 1.22 2.65 2.16 3.75l6.12 7.12 16.04 18.66 1.84 2.14a12 12 0 0 0 1.83 2.12c.54.36.03.88.7-.48 1.13-2.26.62-.63.28-.82a1 1 0 0 0-.4 0h-114.2a23 23 0 0 0-3.88 0c-.82.15.07 2.01.55 1.7a3 3 0 0 0 .46-.54l1.09-1.26 2.54-2.95 6.52-7.6 13.6-15.79 2.36-2.75c1.01-1.18 2.19-2.37 1.63-4.08-.87-2.66-4.25-2.02-6.41-2.03h-6.83a3 3 0 0 0-.6 0l.28.82q.06 1.31.47.62a5 5 0 0 0 .74-.91l1.77-2.16 3.78-4.6 7.95-9.62q3.6-4.35 7.22-8.69l2.85-3.41c.75-.9 1.98-2 2.33-3.13a3 3 0 0 0-.77-3c-1-.98-2.4-.83-3.7-.83l-3.95-.01h-1.75a8 8 0 0 0-2.01 0l.22.85q-.03 1.3.36.7a2 2 0 0 0 .29-.34l.63-.75 1.71-2.03 4.1-4.89q5.12-6.08 10.25-12.14c1.65-1.96-1.16-4.8-2.83-2.83q-5.4 6.38-10.77 12.78l-4.09 4.85c-.94 1.12-2.6 2.55-3.04 3.96a3 3 0 0 0 .76 3c.98.96 2.32.83 3.59.83l3.72.01h3.06c.88 0 1 .33.8-.87s-.15-.9-.6-.37l-.47.58-1.25 1.5-3.1 3.72q-7.91 9.51-15.78 19.06l-3.72 4.53c-1.25 1.53-3.1 3.24-1.84 5.34 1.17 1.94 3.94 1.42 5.85 1.42l3.5.01h1.95c.37 0 1.86.24 2.14 0 .02-.01-.2-1.76-.5-1.63-.07.03-.14.19-.2.24a7 7 0 0 0-.51.6l-1.17 1.35-2.75 3.2-7 8.13-13.49 15.68-2.13 2.48a3.5 3.5 0 0 0-1.05 2.45 3 3 0 0 0 2.11 2.68 18 18 0 0 0 4.4.11h114.71c1.58 0 3.15-.52 3.56-2.26.49-2.07-1.62-3.73-2.83-5.14l-8.13-9.44-15.15-17.64-1.14-1.32-.56-.65c-.5-.58-.44-.88-.66.3-.21 1.18-.14.86.81.86h6.87c2.13 0 5.15.44 5.83-2.27.45-1.8-1.1-3.15-2.14-4.4q-6.78-8.14-13.5-16.31l-6.9-8.36-2.77-3.36-.99-1.2a4 4 0 0 0-.48-.58l-.05-.07q-.65-.88-.4 1.64c.22.15.94 0 1.2 0 2.56 0 5.15.09 7.72-.01a3.2 3.2 0 0 0 2.96-1.54 3 3 0 0 0-.46-3.42c-2.37-2.95-4.88-5.81-7.32-8.71q-5.1-6.08-10.22-12.14c-1.66-1.97-4.48.87-2.83 2.83Z" class="c"/><path d="m295.7 37.22.8.94a2.05 2.05 0 0 0 2.83 0l.31-.4a2 2 0 0 0 .27-1.02l-.07-.53a2 2 0 0 0-.51-.88l-.8-.94a2.05 2.05 0 0 0-2.83 0l-.31.4a2 2 0 0 0-.28 1.01l.07.53a2 2 0 0 0 .52.89" class="c"/><path d="M269.26 28.39c1.94-2.68 3.68-5.52 5.36-8.06a.14.14 0 0 0 0-.15c-1.68-2.54-3.43-5.38-5.37-8.08a.14.14 0 0 1 .1-.22c2.8 0 6.99-.09 10.01-.1a.14.14 0 0 0 .13-.08q2.4-4.94 5.28-9.64a.14.14 0 0 1 .25 0c.94 1.6 4.43 7.53 5.47 9.64a.1.1 0 0 0 .12.08c3.05 0 7.61.1 10.6.1a.14.14 0 0 1 .1.22c-1.93 2.7-3.68 5.54-5.36 8.08a.14.14 0 0 0 0 .15c1.68 2.54 3.42 5.37 5.35 8.06a.14.14 0 0 1-.1.22c-3 0-7.58.1-10.63.1a.1.1 0 0 0-.12.08 228 228 0 0 1-5.43 9.57.14.14 0 0 1-.24 0q-2.85-4.66-5.25-9.57a.1.1 0 0 0-.12-.08c-3.02 0-7.23-.1-10.04-.1a.14.14 0 0 1-.11-.22" style="fill:#ffda71"/><path d="M270.99 29.4q1.63-2.3 3.15-4.67l1.36-2.1a4.6 4.6 0 0 0 1.12-2.37 4 4 0 0 0-1-2.2l-1.48-2.29a123 123 0 0 0-3.17-4.68l.28 1.01-.02-.14-.99 1.72.12-.07-1 .27q2.66-.01 5.32-.05l2.43-.03a12 12 0 0 0 2.78-.09c1.03-.28 1.42-1.2 1.85-2.07q.7-1.39 1.43-2.76 1.58-2.95 3.33-5.81l-.72.71.12-.07h-2.02l.13.07-.72-.71c1.72 2.92 3.47 5.84 5.06 8.84.47.89.91 1.65 2 1.83a24 24 0 0 0 3.57.06q3.64.05 7.3.08l-1.02-.27.12.08-.99-1.73-.01.15.27-1.01q-1.64 2.3-3.16 4.67l-1.37 2.1a4.6 4.6 0 0 0-1.12 2.38 4 4 0 0 0 1 2.2q.75 1.13 1.48 2.28 1.53 2.37 3.16 4.67l-.28-1.01.02.14.99-1.72-.12.07 1-.27q-3.56.02-7.1.08c-1.12 0-2.24-.03-3.35.02a2.6 2.6 0 0 0-2.38 1.78c-1.58 3-3.34 5.93-5.07 8.86l.72-.72-.12.07h2.01l-.12-.07.72.72q-1.73-2.84-3.3-5.77-.68-1.25-1.32-2.52c-.46-.93-.84-1.97-1.95-2.28a11 11 0 0 0-2.58-.08l-2.64-.04q-2.67-.04-5.35-.05l1.01.27-.12-.07 1 1.72v-.14a2 2 0 0 0-2-2 2.05 2.05 0 0 0-2 2v.14a2 2 0 0 0 .98 1.73 4.7 4.7 0 0 0 2.52.36q1.47 0 2.94.03 2.85.05 5.71.06l-1-.27.12.08-.72-.72q1.93 3.94 4.15 7.74c.65 1.11 1.24 2.64 2.68 2.85 1.2.19 1.9-.68 2.45-1.6 1.75-2.96 3.57-5.91 5.1-9l-.72.72.12-.07-1.01.27q2.97-.01 5.94-.05l2.94-.04a5.5 5.5 0 0 0 2.87-.36 2 2 0 0 0 1-1.72c-.18-1.7-1.77-3.27-2.69-4.66-1-1.51-1.96-3.04-2.96-4.56l.27 1.01v-.15l-.27 1.01 2.97-4.57c.91-1.38 2.52-2.98 2.69-4.66a2 2 0 0 0-1-1.73 5.5 5.5 0 0 0-2.86-.36l-2.93-.03q-2.97-.05-5.93-.06l1 .27-.11-.07.71.71c-1.52-3.07-3.34-6.03-5.08-8.99a2.8 2.8 0 0 0-1.97-1.67c-1.67-.26-2.4 1.48-3.1 2.66q-2.3 3.92-4.3 8l.72-.72-.13.08 1.01-.27q-2.85 0-5.7.06l-2.74.03a5 5 0 0 0-2.7.36 2 2 0 0 0-.99 1.72c.18 1.7 1.77 3.27 2.69 4.67l2.97 4.57-.27-1.01v.15l.27-1.01c-1.78 2.7-3.48 5.43-5.36 8.06a2 2 0 0 0 .72 2.73 2.04 2.04 0 0 0 2.74-.71" class="c"/><path d="M33 108.4a34 34 0 0 1 2.72-12.79c3.5-7.84 10.45-18.22 21.65-20.46-8.85-7.59-11.8-21.78-7.31-32.69C54.83 30.86 68 25.1 80.01 25.1c13.18 0 25.2 5.78 29.97 17.37 4.43 10.75 1.63 24.68-6.91 32.35 5.9 1.13 10.65 6.03 10.65 6.03a43 43 0 0 1 10.45 14.77c5.67 12.7 2.3 32.58-7.33 41.3-7.78 7.05-17.9 11.66-36.98 11.66-18.64 0-28.76-4.28-36.8-11.66-6.73-6.16-10.42-17.75-10.07-28.51" class="b"/><path d="m118.34 96.58 17.31-14.33a2 2 0 0 0 0-2.83 2.05 2.05 0 0 0-2.83 0l-17.3 14.33a2 2 0 0 0 0 2.83 2.05 2.05 0 0 0 2.82 0" class="c"/><path d="M157.77 71.73a10.7 10.7 0 0 0-4.94-9.23c-3.41-2.02-8.28-1.46-10.82 1.6-.27-2.04-2.54-3.4-4.57-3.13a6.5 6.5 0 0 0-4.65 3.68 13.3 13.3 0 0 0-1.13 7.13c-.89.83-1.91 2.08-1.92 3.06-.02 1.25 2.86 4.27 4.04 5.53 1.9 2.05 3.99 4.13 5.3 4.06a14 14 0 0 0 3.06-.9l5.73-2.15a25 25 0 0 0 7.16-3.63 6.7 6.7 0 0 0 2.7-5.08zM2 75.65a10.7 10.7 0 0 1 4.94-9.22c3.4-2.02 8.28-1.46 10.81 1.6.27-2.04 2.55-3.4 4.58-3.13a6.5 6.5 0 0 1 4.64 3.68 13.3 13.3 0 0 1 1.14 7.12c.88.83 1.9 2.09 1.92 3.07.02 1.24-2.86 4.26-4.04 5.53-1.9 2.04-3.99 4.13-5.3 4.06a14 14 0 0 1-3.06-.9l-5.73-2.15a25 25 0 0 1-7.16-3.63 8 8 0 0 1-1.95-2.29 8 8 0 0 1-.75-2.8Q2 76.12 2 75.65" class="a"/><path d="M159.77 71.73c-.07-4.64-2.47-9.46-6.84-11.42a10.7 10.7 0 0 0-12.33 2.37l3.34.88c-.81-4.37-6.26-5.71-9.67-3.49-3.81 2.49-5 7.4-4.6 11.7l.58-1.41c-1.38 1.34-2.93 3.26-2.4 5.33a11 11 0 0 0 2.66 4.05 56 56 0 0 0 3.78 4.02c1.36 1.28 3.05 2.8 5.05 2.64 2.04-.17 4.1-1.22 5.98-1.93 2.25-.85 4.53-1.65 6.73-2.63a16 16 0 0 0 5.49-3.73 9.6 9.6 0 0 0 2.23-6.39c.06-2.57-3.94-2.57-4 0a5.6 5.6 0 0 1-2.16 4.61 19 19 0 0 1-5.08 2.67q-3.01 1.16-6.04 2.28c-1 .37-2.84 1.36-3.65 1.03a8 8 0 0 1-2.04-1.69q-.98-.97-1.9-1.99a29 29 0 0 1-2.6-3.02c-.18-.25-.32-.54-.5-.78-.12-.15.02-.18-.07.01a8 8 0 0 1 1.34-1.65c.8-.91.5-1.96.5-3.06a12 12 0 0 1 .34-2.74c.42-1.67 1.32-3.52 3.01-4.23a2.2 2.2 0 0 1 3.16 1.47 2 2 0 0 0 3.34.88 6.7 6.7 0 0 1 7.8-1.6c2.97 1.35 4.5 4.69 4.54 7.82.04 2.57 4.04 2.58 4 0M44.25 97.68l-17.3-14.33a2.06 2.06 0 0 0-2.84 0 2 2 0 0 0 0 2.83l17.32 14.33a2.06 2.06 0 0 0 2.82 0 2 2 0 0 0 0-2.83" class="c"/><path d="M4 75.66c.04-3.14 1.57-6.47 4.55-7.83a6.7 6.7 0 0 1 7.79 1.6 2 2 0 0 0 3.34-.88 2.1 2.1 0 0 1 2.47-1.67c1.54.24 2.68 1.7 3.26 3.05a12.5 12.5 0 0 1 .73 5.36c-.03 1.33.6 1.72 1.35 2.67a6 6 0 0 1 .5.72c.03.06.07-.1.04-.04a16 16 0 0 1-2.42 3.13 45 45 0 0 1-3.6 3.67 6 6 0 0 1-.94.7c-.1.06-.54.22-.38.21a6 6 0 0 1-2-.62c-1.95-.7-3.88-1.46-5.82-2.19a29 29 0 0 1-6.1-2.84A5.7 5.7 0 0 1 4 75.65c-.06-2.57-4.06-2.57-4 0a9.6 9.6 0 0 0 2.23 6.4 16 16 0 0 0 5.5 3.72c2.2.98 4.47 1.78 6.72 2.63 1.89.7 3.94 1.76 5.98 1.93 2 .16 3.69-1.36 5.04-2.64a56 56 0 0 0 3.79-4.02 11 11 0 0 0 2.65-4.05c.54-2.07-1-4-2.4-5.33l.6 1.41c.38-4.3-.8-9.21-4.62-11.7-3.4-2.22-8.85-.88-9.66 3.49l3.34-.88a10.7 10.7 0 0 0-12.33-2.37C2.46 66.2.06 71.02 0 75.66c-.03 2.57 3.97 2.57 4 0m87.89-27.6a3.95 3.95 0 0 0-3.96 4.06 3.9 3.9 0 0 0 3.96 4.14 3.84 3.84 0 0 0 3.96-4.13 3.94 3.94 0 0 0-3.96-4.07m-23.06 0a3.95 3.95 0 0 0-3.96 4.06 3.9 3.9 0 0 0 3.96 4.14 3.84 3.84 0 0 0 3.96-4.13 3.94 3.94 0 0 0-3.96-4.07" class="c"/><path d="M58.71 73.68c-6.72-5.9-9.7-15.42-8.48-24.2a23.5 23.5 0 0 1 5.1-11.95 28 28 0 0 1 10.5-7.6c15.5-6.65 38.41-1.84 43.3 16.23 2.6 9.63-.22 20.85-7.8 27.5-1.94 1.7.9 4.53 2.83 2.83 7.71-6.78 10.96-17.72 9.56-27.73a28.7 28.7 0 0 0-17-22.27c-17.7-7.84-44.24-1.96-49.7 18.8-2.87 10.87.3 23.68 8.87 31.22 1.92 1.69 4.76-1.13 2.82-2.83" class="c"/><path d="M54.86 73.7c-7.6 2.34-13.41 8.05-17.55 14.66a40 40 0 0 0-6.32 20.15 45.4 45.4 0 0 0 4.68 21.7 33.7 33.7 0 0 0 13.31 13.61 50 50 0 0 0 19.6 6.13 91 91 0 0 0 26.6-.6 46 46 0 0 0 18.02-7.03 36 36 0 0 0 6.72-5.69 32 32 0 0 0 5.44-8.8 45.6 45.6 0 0 0 3.36-22.23 41.5 41.5 0 0 0-9-21.3 36 36 0 0 0-4.58-4.88c-1.92-1.7-4.76 1.13-2.83 2.83a38 38 0 0 1 11.64 18.92 41 41 0 0 1-.58 20.3 29.7 29.7 0 0 1-9.59 15.45 39 39 0 0 1-14.55 7.42c-7.64 2.11-15.72 2.46-23.6 2.16-6.9-.27-13.95-1.22-20.34-3.95a34 34 0 0 1-13.3-9.72c-4.02-5.19-6.12-11.94-6.79-18.4a35.7 35.7 0 0 1 2.93-19.28c2.93-6.05 7.07-11.9 12.93-15.42a22 22 0 0 1 4.86-2.17c2.45-.75 1.4-4.62-1.06-3.86" class="c"/><path d="M91.52 87.5c.43 5.35.68 9.67.63 15.57a1.2 1.2 0 0 0 .29.89 1.4 1.4 0 0 0 1.08.25 116 116 0 0 0 17.57-2.24c.56-.11 1.23-.33 1.36-.9a2 2 0 0 0-.32-1.09 103 103 0 0 0-10.51-17.48" class="a"/><path d="M89.52 87.5c.33 4.15.59 8.31.63 12.48.02 2.11-.54 5.36 2.12 6.1a10 10 0 0 0 3.15.01q1.79-.12 3.57-.29 3.63-.36 7.23-.92 1.67-.27 3.33-.58a14 14 0 0 0 3.04-.73 3 3 0 0 0 1.82-2.23 5.3 5.3 0 0 0-.9-3.09 91 91 0 0 0-2.85-5.52 130 130 0 0 0-7.32-11.25 2.05 2.05 0 0 0-2.73-.72 2 2 0 0 0-.72 2.74 151 151 0 0 1 5.85 8.74q1.3 2.15 2.48 4.36.6 1.14 1.17 2.29l.67 1.38.34.72q.27.64.03-.23l.52-.88c-.28.36.35.05-.15.1-.35.03-.73.15-1.07.22q-1.24.25-2.5.47-2.32.41-4.67.72-2.41.31-4.83.52l-2.52.2-1.06.06-.63.03q-.55 0-.07.02l.71.72q-.02.3 0-.09v-1.47q0-1.1-.03-2.2-.03-1.97-.11-3.93-.19-3.9-.5-7.76a2.05 2.05 0 0 0-2-2 2 2 0 0 0-2 2Z" class="c"/><path d="M52.65 71.24a124 124 0 0 0 50.95-2.29c2.8-.73 5.37.53 5.58 3.17a8 8 0 0 1-2.13 6.24 28.7 28.7 0 0 1-12.96 8.36c-10.88 3.02-24.94 1.23-32.15-1.67-3.7-1.49-7.75-3.09-11.02-5.39-3.1-2.18-1.86-7.27 1.73-8.42" class="a"/><path d="M52.11 73.17a131 131 0 0 0 29.68 1.38 126 126 0 0 0 14.76-1.95q3.59-.7 7.13-1.6c1.08-.27 2.77-.57 3.37.7.67 1.41-.14 3.52-.96 4.68a21 21 0 0 1-4.21 4.1 26.5 26.5 0 0 1-11.6 5.07 55 55 0 0 1-23.83-1.12 53 53 0 0 1-12.13-5c-1.36-.76-3.17-1.51-3.16-3.29a3.2 3.2 0 0 1 2.02-2.97c2.4-.85 1.37-4.72-1.07-3.85-3.6 1.27-5.94 5.31-4.56 9.06.79 2.15 2.66 3.31 4.57 4.4a61 61 0 0 0 7.29 3.4 58 58 0 0 0 25.98 3.97 36 36 0 0 0 14.07-3.43 32 32 0 0 0 6.3-4.3 17 17 0 0 0 4.45-5.18c1.86-3.86 1.23-9.5-3.74-10.37-2.46-.42-4.92.56-7.3 1.1q-4.01.9-8.09 1.53a123 123 0 0 1-37.9-.2 2.06 2.06 0 0 0-2.46 1.4 2 2 0 0 0 1.4 2.47" class="c"/><path d="M78.52 26.22c7.09 5.41 16.66 9.46 25.49 9.63a1.2 1.2 0 0 0 1.17-.95c1.03-5.1 2.59-16.64 3.23-22.51a1.2 1.2 0 0 0-.58-1.15 55 55 0 0 0-15.79-5.97 1.2 1.2 0 0 0-1.13.44c-2 2.55-8.89 12.83-12.67 18.96a1.2 1.2 0 0 0 .28 1.55" class="a"/><path d="M77.51 27.95a48.5 48.5 0 0 0 22.12 9.52c1.7.24 4.27.87 5.86 0 1.55-.84 1.71-2.46 1.99-4.02.56-3.16 1.02-6.35 1.47-9.53q.7-5.03 1.3-10.05c.2-1.83.18-3.34-1.55-4.44a37 37 0 0 0-4.8-2.4c-3.64-1.6-7.62-3.26-11.6-3.73-2.75-.33-4.34 3.03-5.7 4.97a393 393 0 0 0-6.06 9.07q-1.5 2.3-2.98 4.63a11 11 0 0 0-1.28 2.24 3.2 3.2 0 0 0 .83 3.42c1.79 1.86 4.61-.97 2.83-2.83l.16.19-.27 1.01a36 36 0 0 1 3.1-5q1.8-2.8 3.65-5.56 1.64-2.46 3.32-4.9.64-.94 1.3-1.86a11 11 0 0 0 1.13-1.56c.1-.23.31-.16 0 0-.36.19-.66 0-.02.23.5.18 1.09.24 1.61.37q2.08.54 4.1 1.25a57 57 0 0 1 6.68 2.86q.64.32 1.26.66a5 5 0 0 0 .59.32c-.4-.15.01-.7-.18-.03a19 19 0 0 0-.32 2.75q-.37 3.03-.78 6.05-.49 3.57-1.04 7.13-.25 1.63-.53 3.26l-.24 1.34-.1.49-.06.35q-.1.48.03-.07l1.01-.27a20 20 0 0 1-6.3-.66 44 44 0 0 1-6.69-2 49 49 0 0 1-11.82-6.65 2 2 0 0 0-2.73.72 2.05 2.05 0 0 0 .71 2.73" class="c"/></svg>
