<svg xmlns="http://www.w3.org/2000/svg" viewBox="-4.51 0 318.673 318.673"><defs><style>.a{fill:#f2635f}.b{fill:#74c66d}.c{fill:#211715}.e{fill:#ffda71}</style></defs><path d="M289.37 210.45c1.33-1.44 2.32-2.68 2.44-3.56a5 5 0 0 0-.28-2.13 62 62 0 0 0-1.18-3.65c-.95-2.71-2.2-6.13-4.84-7.23-1.76-.73-3.72-.25-5.53.32-7.63 2.37-14.8 6.06-21.64 9.91a2.4 2.4 0 0 1-2.29.04c-7-3.66-13.89-7.58-21.52-9.95-1.81-.57-3.78-1.05-5.54-.32-2.63 1.1-3.88 4.52-4.84 7.23q-.63 1.8-1.18 3.65a5 5 0 0 0-.27 2.13c.17 1.32 3.16 4.4 2.48 3.56Z" class="a"/><path d="M307.6 211.83a1.37 1.37 0 0 0-1.38-1.37l-99.74-.02a1.36 1.36 0 0 0-1.37 1.36c0 5.45-.06 21.54-.07 26.35a1.36 1.36 0 0 0 1.36 1.37h5.79c.06 15.05.25 42.34.25 54.8 16.52 0 78.17.63 88.37.63 0-7.89.05-40.6.08-55.46h5.41a1.36 1.36 0 0 0 1.37-1.38c-.02-4.47-.07-18.7-.08-26.28" class="b"/><path d="M211.23 241.52h89.67c2.57 0 2.58-4 0-4h-89.66c-2.58 0-2.59 4 0 4m14.82-33.01c-.64-.75-1.5-1.55-1.3-2.58a31 31 0 0 1 1.5-4.77c.67-1.87 1.57-4.78 3.69-5.5 1.3-.44 2.8.08 4.06.47q2.41.75 4.75 1.7c2.95 1.18 5.8 2.58 8.62 4.03q2.03 1.04 4.05 2.11a30 30 0 0 0 4.47 2.28c1.65.53 3.05-.17 4.45-.96a197 197 0 0 1 4.6-2.5c2.84-1.48 5.7-2.89 8.65-4.13 2.84-1.19 6-2.64 9.06-3.08 3.09-.45 4.38 2.3 5.31 4.77a54 54 0 0 1 1.64 4.95 3 3 0 0 1 .18 1.43 6 6 0 0 1-1.43 1.87c-1.7 1.91 1.11 4.75 2.83 2.83a10 10 0 0 0 2.5-3.78c.5-1.87-.35-3.95-.93-5.7-.96-2.9-1.96-6.2-4.2-8.39-2.85-2.76-6.54-2.13-9.98-1a91 91 0 0 0-10.3 4.12 155 155 0 0 0-10.14 5.27c-.92.51-.94.55-1.88.06l-2.41-1.28q-2.62-1.4-5.26-2.74a102 102 0 0 0-10.04-4.52c-3.33-1.25-7.42-2.97-10.85-1.18-3.08 1.6-4.38 5.22-5.47 8.3-.68 1.94-1.7 4.2-1.52 6.3.15 1.74 1.44 3.2 2.52 4.45 1.69 1.96 4.5-.88 2.83-2.83" class="c"/><path d="M247.9 210.45c.03 19.27.13 61.45.15 84.1l17.56.14c-.03-22.6-.13-64.92-.15-84.23z" class="a"/><path d="M212.17 237.52h-5.28c-.38.05-.72-.24-.17.31.49.5.32.16.32-.25v-2.64l.03-9.72.03-9.95v-2.74c0-.47.2-.88-.32-.4s-.16.3.25.3h.85l25.2.01h37.15l30.36.02h4.51a4 4 0 0 0 .82 0c.05-.02.15.02.2 0h.04q.5.01-.59-.63c-.12.13 0 .92 0 1.1l.01 5.23.04 11.42q0 2.5.02 4.99v1.94c0 .24-.15 1.44.01 1.6-.3-.28 1.18-.33.4-.62a2 2 0 0 0-.54 0h-4.61a2.03 2.03 0 0 0-2 2q0 8.27-.03 16.55l-.05 28.1-.01 10.8 2-2c-9.91 0-19.83-.13-29.74-.2q-21.15-.19-42.3-.34-8.17-.07-16.33-.08l2 2c0-16.26-.14-32.52-.24-48.77l-.03-6.03c0-2.58-4-2.58-4 0 0 14.52.18 29.04.24 43.56l.03 11.24a2.03 2.03 0 0 0 2 2c11.42 0 22.84.12 34.25.21l41.04.34q6.54.06 13.08.07a2.03 2.03 0 0 0 2-2q0-11.34.03-22.68l.05-26.41.01-6.36-2 2h3.52a9 9 0 0 0 3.02-.21c2.02-.7 2.23-2.62 2.22-4.45l-.04-10.34-.03-12.08c0-1.95.33-4.3-1.63-5.46a5.7 5.7 0 0 0-3.07-.5h-68.6l-28.19-.01c-.51 0-1.03-.03-1.55 0-2.39.12-3.43 1.9-3.43 4.1l-.03 9.58-.04 11c0 2.8-.93 7.97 3.03 8.36 2 .2 4.09.04 6.09.04 2.57 0 2.58-4 0-4" class="c"/><path d="M263.45 211.67q0 14.27.06 28.54l.08 37.61.02 16.19c0 2.57 4 2.58 4 0q0-16.04-.05-32.07l-.09-36.64-.02-13.63c0-2.58-4-2.58-4 0m-17.55 0q0 14.27.05 28.54l.09 37.61.02 16.19c0 2.57 4 2.58 4 0q0-16.04-.06-32.07l-.08-36.64-.02-13.63c0-2.58-4-2.58-4 0" class="c"/><path d="M82.28 236.91V205.8c0-8.09-4.98-13.32-11.97-13.42-6.72-.09-12.42 3.76-12.42 11.81 0 5-4.5 7.66-9.2 7.66-4.15 0-8.7-3.58-8.7-9.56 0-10.27 2.93-15.35 6.95-20.65 5.21-6.88 13.81-9.85 23.29-9.85 8.3 0 15.08 2.43 19.96 6.7 6.28 5.48 8.89 14.3 8.89 27.3v101.8c0 5.94-3.95 9.09-8.65 9.09-4.14 0-8.15-2.33-8.15-8.59z" style="fill:#fff"/><path d="m65.65 192.6.12.38a10.5 10.5 0 0 0-6.52 5.2h-.02c-5.4-2.96-11.55-6.54-16.71-9.42a37 37 0 0 1 4.42-7.13 24 24 0 0 1 12.72-8.43c1.64 5.38 4.93 15.96 6 19.4m24.54-14.13a23 23 0 0 1 6.76 10.74c-5.14 2.89-11.12 6.37-16.37 9.24a11.3 11.3 0 0 0-6.49-5.48c1.12-3.56 4.54-14.63 6.16-19.84a26 26 0 0 1 9.94 5.34m8.89 33.13v20.33c-5.25.89-11.78 2.03-16.8 2.84v-20.33c5.02-.82 11.55-1.96 16.8-2.84m0 40.68v20.33c-5.25.86-11.78 2.01-16.8 2.84v-20.33c5.02-.83 11.55-1.97 16.8-2.84m0 54.95v.36c0 5.93-3.96 9.08-8.65 9.08-4.14 0-8.16-2.32-8.16-8.58v-12.3c5.03-.83 11.56-1.96 16.8-2.84Z" class="a"/><path d="M84.28 236.91v-24.68c0-6.32.53-13.14-4.35-17.98-4.1-4.07-10.7-4.89-15.96-2.75a12.5 12.5 0 0 0-6.38 5.53 13 13 0 0 0-1.45 4.26c-.24 1.52-.02 3.2-.54 4.66-.85 2.42-3.5 3.64-5.9 3.85a6.8 6.8 0 0 1-6.2-2.68c-2.02-2.7-1.62-6.35-1.28-9.5a26 26 0 0 1 2.3-8.46c2.5-5.2 6.28-9.82 11.5-12.43 6.1-3.05 13.75-3.65 20.4-2.44 5.87 1.06 11.76 3.84 15.31 8.8 3.47 4.84 4.7 10.9 5.14 16.73s.2 11.78.2 17.65v85.84c0 2.45.37 5.25-.58 7.57-1.67 4.1-8.32 5.37-11.05 1.6-1.63-2.26-1.17-5.46-1.17-8.09zc0-2.57-4-2.58-4 0v70.02c0 3.21.41 6.4 2.72 8.84a10.3 10.3 0 0 0 7.59 2.9 10.5 10.5 0 0 0 7.83-3.43c2.18-2.51 2.66-5.57 2.66-8.8v-97.02c0-6.76-.03-13.63-2.01-20.17a26 26 0 0 0-10.36-14.41c-6.24-4.17-14.07-5.47-21.45-4.96-7.04.48-14.12 2.71-19.33 7.66a32.4 32.4 0 0 0-8.94 15.41c-1.57 6.57-2.19 15 4.18 19.21 5.12 3.37 13.48 1.5 15.98-4.32.72-1.69.63-3.35.81-5.14a10 10 0 0 1 1.24-3.92 9 9 0 0 1 5.95-4.1c5.48-1.26 10.9 1.31 12.54 6.83.95 3.18.6 6.65.6 9.92v25.48c0 2.58 4 2.58 4 0" class="c"/><path d="m57.72 173.74 6 19.4c.77 2.45 4.63 1.4 3.86-1.07l-6-19.4c-.76-2.45-4.62-1.4-3.86 1.07M76.1 193c0 .8.07.05.16-.23l.28-.91.69-2.21 1.68-5.44 3.28-10.54c.76-2.46-3.1-3.52-3.86-1.06l-3.35 10.8-1.68 5.4-.67 2.17a7 7 0 0 0-.53 2.02c0 2.57 4 2.58 4 0m-16.85 3.19 1 .27c-5.6-3.08-11.13-6.3-16.72-9.42-2.25-1.26-4.27 2.2-2.02 3.45q4.35 2.44 8.67 4.9 2.2 1.26 4.41 2.5l2.1 1.17a6 6 0 0 0 2.57 1.12c2.57 0 2.57-4 0-4Zm36.7-8.71c-5.46 3.07-10.88 6.23-16.38 9.24-2.26 1.24-.24 4.7 2.02 3.46 5.5-3.02 10.92-6.17 16.38-9.25 2.25-1.26.23-4.71-2.02-3.45M82.81 297.72c5.6-.92 11.2-1.9 16.8-2.84a2 2 0 0 0 1.4-2.46 2.05 2.05 0 0 0-2.46-1.4c-5.6.93-11.2 1.92-16.8 2.84a2 2 0 0 0-1.4 2.46 2.05 2.05 0 0 0 2.46 1.4m0-20.34c5.6-.92 11.2-1.9 16.8-2.84a2 2 0 0 0 1.4-2.47 2.05 2.05 0 0 0-2.46-1.4c-5.6.94-11.2 1.92-16.8 2.85a2 2 0 0 0-1.4 2.46 2.05 2.05 0 0 0 2.46 1.4m0-20.33q8.4-1.41 16.8-2.85a2 2 0 0 0 1.4-2.46 2.05 2.05 0 0 0-2.46-1.4c-5.6.94-11.2 1.92-16.8 2.85a2 2 0 0 0-1.4 2.46 2.05 2.05 0 0 0 2.46 1.4m0-20.34c5.6-.92 11.2-1.9 16.8-2.85a2 2 0 0 0 1.4-2.46 2.05 2.05 0 0 0-2.46-1.4c-5.6.95-11.2 1.93-16.8 2.85a2 2 0 0 0-1.4 2.46 2.05 2.05 0 0 0 2.46 1.4m0-20.34c5.6-.92 11.2-1.9 16.8-2.84a2 2 0 0 0 1.4-2.46 2.05 2.05 0 0 0-2.46-1.4c-5.6.94-11.2 1.92-16.8 2.85a2 2 0 0 0-1.4 2.46 2.05 2.05 0 0 0 2.46 1.4Z" class="c"/><path d="M273.84 4.23a8 8 0 0 0-1.7 2.74l-.58 2.6a29 29 0 0 1 8.27 1.6 31 31 0 0 1 7.33 3.91l1.27-2.32c1.45-3.98-.25-8.18-5.52-10.1-3.81-1.39-7.05-.52-9.07 1.57" class="e"/><path d="M298.99 91.53a38 38 0 0 0-.36-8.7 16 16 0 0 1 .18-6.18c2.99-12.41 5.64-32.28 1.32-44.4-3.41-9.6-11.3-17.81-20.3-21.09-8.07-2.93-20.3-2.04-29.08 3.12-11.1 6.5-21.84 23.42-27.52 34.86a16 16 0 0 1-3.85 4.86 37 37 0 0 0-5.96 6.56 8.3 8.3 0 0 0-2.48 3.5c-3.6 9.87 7.95 20.55 38.08 31.52 31.17 11.34 45.95 9.86 49.52.05a9 9 0 0 0 .45-4.1" class="e"/><path d="M300.91 92.1a8 8 0 0 0 .17-2.28q.04-1.36-.03-2.72c-.08-1.91-.44-3.78-.6-5.69-.24-3.11.76-6.1 1.36-9.11a134 134 0 0 0 2.4-17.95 70 70 0 0 0-.86-17.83 37 37 0 0 0-7.45-15.82 36 36 0 0 0-14.18-10.93A34 34 0 0 0 264.6 7.8a37 37 0 0 0-17.02 6.17 60 60 0 0 0-12.35 12.28A127 127 0 0 0 224 43.39c-1.5 2.71-2.64 5.79-4.81 8.05-1.34 1.4-2.86 2.6-4.18 4.02-1.2 1.29-2.9 2.9-3.5 4.57-.9 2.43 2.97 3.47 3.85 1.07-.17.45.58-.6.54-.55q.36-.47.76-.93.72-.85 1.48-1.66c1.23-1.3 2.64-2.4 3.88-3.7 1.97-2.06 3.12-4.54 4.44-7.03a133 133 0 0 1 8.85-14.43 75 75 0 0 1 11.2-12.9 32.4 32.4 0 0 1 14.18-7.38 34.5 34.5 0 0 1 16.42-.1 29.4 29.4 0 0 1 13.43 8.2 33.5 33.5 0 0 1 8.36 14.32 55 55 0 0 1 1.47 16.25 120 120 0 0 1-2.2 19c-.58 3.06-1.61 6.18-1.74 9.3a51 51 0 0 0 .55 6.2q.11 1.38.12 2.78a16 16 0 0 1-.03 2.56c-.88 2.42 2.98 3.47 3.85 1.06Z" class="c"/><path d="M261.04 62.05c-9.79-3.55-20.06-6.5-30.5-7.1-6.09-.37-13.29-.04-18.25 3.96a11.5 11.5 0 0 0-3.36 12.46c1.93 5.8 7.14 9.97 12.04 13.22 8.58 5.68 18.35 9.6 27.98 13.08 9.4 3.4 19.1 6.46 29.08 7.56 5.56.61 11.97.67 16.94-2.32a12.2 12.2 0 0 0 6.08-10.88c-.37-5.44-4.27-9.96-8.24-13.34-6.9-5.88-15.22-9.94-23.52-13.42a187 187 0 0 0-8.25-3.22c-2.42-.89-3.46 2.98-1.06 3.85 8.93 3.27 17.84 7.07 25.75 12.42a41 41 0 0 1 7.25 6.06 18 18 0 0 1 2.16 2.72 16 16 0 0 1 1.15 2.09c.16.35.03.07 0 0l.18.47a11 11 0 0 1 .42 1.4l.11.6c.07.37 0-.01 0-.07l.04.44v1.33c-.03.51.03-.1-.03.2q-.06.35-.15.7a10 10 0 0 1-.42 1.28c.16-.4-.04.07-.12.22q-.16.34-.35.67l-.4.63c-.07.11-.44.58-.13.2a11 11 0 0 1-.97 1.06l-.51.46-.25.2c.06-.05.34-.25.03-.04a14 14 0 0 1-1.3.8l-.67.35-.31.14c.35-.16.07-.03 0 0a17 17 0 0 1-1.64.54 25 25 0 0 1-7.7.76c-8.2-.24-16.36-2.51-24.14-4.99a169 169 0 0 1-29.12-11.9c-5.32-2.89-11.43-6.64-14.65-11.53a16 16 0 0 1-.85-1.44 6 6 0 0 1-.5-1.12 11 11 0 0 1-.4-1.43q-.07-.3-.12-.63c.08.51-.01-.25-.02-.4a13 13 0 0 1 .02-1.41l.04-.31c-.06.45-.03.16 0 .06l.16-.77a10 10 0 0 1 .44-1.37c-.18.44.07-.11.13-.23l.4-.67.23-.32c.18-.25-.31.36.03-.03l.43-.47.53-.51.26-.22c.09-.07-.2.13.14-.1a14 14 0 0 1 1.29-.8l.76-.38a4 4 0 0 1 .61-.25 25 25 0 0 1 8.3-1.44c8.71-.26 17.46 1.79 25.75 4.3q4.1 1.27 8.15 2.74c2.41.87 3.46-3 1.05-3.86m29.32-48.76A9.3 9.3 0 0 0 287.4 2.9c-3.54-2.8-8.74-3.97-12.85-1.7a9.8 9.8 0 0 0-4.33 5.24 2 2 0 0 0 1.4 2.46 2.05 2.05 0 0 0 2.46-1.4q.13-.34.03-.1l.17-.36q.14-.27.3-.52c.04-.07.46-.65.27-.41q.19-.23.4-.45a4 4 0 0 1 .8-.7q.3-.2.6-.36c.07-.03.65-.29.37-.18a5.6 5.6 0 0 1 2.67-.43 9 9 0 0 1 3.06.74A9 9 0 0 1 285 6.07q.32.28.6.59c.05.04.41.47.2.21a8 8 0 0 1 .71 1.16c.21.4-.03-.17.1.22l.2.71q.08.27.11.55c-.06-.44 0 .32.01.4l-.01.57-.03.38q.04-.32-.02.04a12 12 0 0 1-.36 1.33 2 2 0 0 0 1.4 2.46 2.04 2.04 0 0 0 2.46-1.4Z" class="c"/><path d="M249.17 60.55c-3.23 3.71-2.61 8.87.6 12.38a16.3 16.3 0 0 0 7.75 4.4 13 13 0 0 0 8.9-.34 8.7 8.7 0 0 0 5.01-8.16c-.03-2.57-4.03-2.58-4 0a5 5 0 0 1-.73 2.87 4 4 0 0 1-1.9 1.65 4 4 0 0 1-.96.35 6 6 0 0 1-1.26.23 11 11 0 0 1-3.34-.3 13.5 13.5 0 0 1-6.08-2.96 6.4 6.4 0 0 1-2.16-3.83c.07.37-.01-.15-.02-.28v-.7c0-.47-.04.06.02-.26a8 8 0 0 1 .33-1.17c-.14.35.06-.12.12-.23l.32-.53c.01-.02.18-.26.05-.08-.14.19.19-.22.18-.21a2.05 2.05 0 0 0 0-2.83 2 2 0 0 0-2.83 0" class="c"/><path d="M85.13 66.87a33 33 0 0 1 15.43-3.18c6.4.31 11.46.96 16.67 4.35.2-7.82.45-13.31 5.42-18.76 3.93-4.3 7.94-6.07 14.8-6.58a32.7 32.7 0 0 1-3.9-17.6 46 46 0 0 1 4.03-15.82c-6.02 2.05-11.42 3.3-16.44 3.15-6.11-.2-10.83-1.83-17.35-4.01-1.74 6.34-3.61 11.2-7.45 14.32-4.6 3.74-9.78 5.06-17.2 5.05a49 49 0 0 1 1.59 15.94c-.49 6.72-1.8 11.2-5.85 16.7Zm-31.2 0a33 33 0 0 0-15.43-3.18c-6.4.31-11.46.96-16.67 4.35-.2-7.82-.45-13.31-5.42-18.76-3.93-4.3-7.93-6.07-14.8-6.58a32.7 32.7 0 0 0 3.9-17.6A46 46 0 0 0 1.49 9.28c6.03 2.05 11.43 3.3 16.44 3.15 6.12-.2 10.83-1.84 17.36-4.01 1.73 6.34 3.6 11.19 7.45 14.32 4.59 3.74 9.78 5.05 17.2 5.05a49 49 0 0 0-1.59 15.94c.48 6.72 1.8 11.2 5.85 16.7Z" class="b"/><path d="M40.45 61.63a39 39 0 0 0-9.85.78 31 31 0 0 0-4.54 1.3q-1.18.45-2.31.98-.44.2-.88.43c-.21.1-1.11.4-.65.43l1.01.28.05.01.51.88a15 15 0 0 1-.09-2.5q-.05-1.12-.15-2.23a34 34 0 0 0-.69-4.67 21 21 0 0 0-4.15-8.42 21 21 0 0 0-6.85-5.7 21 21 0 0 0-4.17-1.58 24 24 0 0 0-2.3-.48 16 16 0 0 1-2.63-.4l.88.52-.19-.2.52.88-.07-.27v1.07a36 36 0 0 1 1.56-3.66 33 33 0 0 0 1.23-4.2 35 35 0 0 0 .9-8.3 44 44 0 0 0-1-8.18 44 44 0 0 0-1.14-4.33 34 34 0 0 1-1.57-4.4v1.06l.08-.25-.51.89.17-.2-.88.52c-.33.13.51.27.63.3l1.16.35q1.02.3 2.05.58 2.07.54 4.18.92a36 36 0 0 0 8.26.53 43 43 0 0 0 7.91-1.26q1.96-.52 3.88-1.12 1.08-.34 2.15-.7A9 9 0 0 1 35 10.6l-1-.27.26.14-.71-.71a11 11 0 0 1 .69 2.24q.36 1.15.77 2.28a35 35 0 0 0 1.83 4.22 19 19 0 0 0 5.43 6.41 23 23 0 0 0 7.52 3.7 30 30 0 0 0 4.3.84q1.17.15 2.35.23a16 16 0 0 1 2.48.1l-.89-.51v-.01l-.27-1.01a16 16 0 0 1-.56 2.64q-.25 1.32-.44 2.64a50 50 0 0 0-.52 5.6 47 47 0 0 0 .98 11.12c.53 2.52 4.4 1.45 3.86-1.06a43 43 0 0 1-.83-10.29 42 42 0 0 1 .46-4.97q.17-1.1.39-2.2a21 21 0 0 0 .66-3.22c.06-1.82-1.4-2.65-3-2.73-1.58-.08-3.14-.11-4.7-.34a21 21 0 0 1-7.46-2.46 15.4 15.4 0 0 1-5.43-5 31 31 0 0 1-3.32-7.84c-.47-1.55-.84-3.46-2.85-3.54a8 8 0 0 0-2.67.7l-2.59.83a47 47 0 0 1-9.23 2.12 33 33 0 0 1-9.55-.43q-2.5-.49-4.91-1.2c-2.41-.7-3.77-1.66-5.26-.27S.27 11.45.85 13a46 46 0 0 1 1.56 5.04 38 38 0 0 1 1.18 9.31 32 32 0 0 1-1.45 9.09 31 31 0 0 1-1.64 4.1c-.77 1.62-.61 3.66 1.47 4.16 1.35.32 2.78.33 4.15.65a17 17 0 0 1 3.58 1.23 18 18 0 0 1 5.82 4.7 17 17 0 0 1 3.63 7.77 33 33 0 0 1 .51 4.42c.1 1.58-.3 3.95.8 5.2 1.4 1.6 3.06.59 4.6-.19a25 25 0 0 1 4.78-1.78 34 34 0 0 1 10.61-1.08c2.58.13 2.57-3.87 0-4Zm55.96 4.14c5.98-.49 12.88.1 18.23 3.04 1.34.74 2.78 1.21 3.97-.14 1.03-1.17.69-3.19.76-4.63a28 28 0 0 1 1.23-7.58 17.4 17.4 0 0 1 10.07-10.44 22 22 0 0 1 3.7-.96c1.37-.24 3.06-.05 4.07-1.17 1.3-1.45.25-3-.4-4.45a29 29 0 0 1-1.57-4.6 35 35 0 0 1 .5-18.04q.63-2.27 1.49-4.46a4.5 4.5 0 0 0 .58-2.67 2.6 2.6 0 0 0-1.64-1.84c-1.5-.52-3.38.51-4.84.92a54 54 0 0 1-5.31 1.23c-6.3 1.09-12.35-.08-18.35-1.98-1.47-.47-3.27-1.46-4.84-1.4-2.15.09-2.47 2.32-2.97 3.94a29 29 0 0 1-3.37 7.73c-3.27 4.91-9.25 6.98-14.9 7.4-1.54.1-3.62-.28-4.81.93-1.4 1.42-.27 3.9.04 5.57a46 46 0 0 1 .68 11.56c-.18 2.57 3.82 2.56 4 0a46 46 0 0 0-.13-7.92q-.2-1.92-.53-3.82a25 25 0 0 1-.76-3.75l-.27 1.01v.01l-.89.52a14 14 0 0 1 2.28-.09q1.18-.07 2.37-.22a30 30 0 0 0 4.48-.86 23 23 0 0 0 7.52-3.7 19 19 0 0 0 5.43-6.41 34 34 0 0 0 1.76-4.04q.42-1.12.78-2.26a12 12 0 0 1 .75-2.44l-.72.71.28-.14-1.01.27a10 10 0 0 1 2.05.7l1.93.63q1.93.62 3.9 1.13a43 43 0 0 0 8.1 1.32 35 35 0 0 0 8.05-.5q2.1-.36 4.17-.9 1.14-.3 2.27-.63l.93-.28s1.1-.28.87-.38l-.89-.5.18.18-.52-.88.08.24V9.67a31 31 0 0 1-1.5 4.2 44 44 0 0 0-1.17 4.32 44 44 0 0 0-1.04 8.4 35 35 0 0 0 .86 8.1 34 34 0 0 0 1.2 4.2 40 40 0 0 1 1.63 3.85v-1.07l-.07.27.52-.88-.19.2.88-.51a16 16 0 0 1-2.63.4q-1.07.16-2.13.43a20 20 0 0 0-11.19 7.32 21 21 0 0 0-4.11 8.26 33 33 0 0 0-.71 4.65q-.11 1.2-.17 2.42a14 14 0 0 1-.1 2.5l.52-.89.05-.01 1.01-.27c.4-.04-.54-.39-.73-.49q-.62-.32-1.26-.6-1.12-.5-2.28-.91a28 28 0 0 0-4.88-1.2 48 48 0 0 0-11.29-.58c-2.54.2-2.57 4.2 0 4Z" class="c"/><path d="M97.22 47a107 107 0 0 1 19.57-12.95c2.3-1.18.27-4.63-2.02-3.45A112 112 0 0 0 94.4 44.17a2 2 0 0 0 0 2.83 2.05 2.05 0 0 0 2.83 0Zm-52.54-2.83a112 112 0 0 0-20.39-13.58c-2.28-1.17-4.3 2.28-2.02 3.46A107 107 0 0 1 41.85 47a2.06 2.06 0 0 0 2.83 0 2 2 0 0 0 0-2.83" class="c"/><path d="M78.2 69.5c-8.56 0-14.47 6.3-14.47 13.68 0 8.25 6.04 13.93 14.46 13.93 8.75 0 14.46-5.73 14.46-13.93 0-7.42-5.94-13.67-14.46-13.67" class="a"/><path d="M64.08 91.8c3.9 6.05 11.23 8.25 18.1 6.92a15.2 15.2 0 0 0 12.07-11.74 16.3 16.3 0 0 0-2.18-12.36c-1.4-2.15-4.87-.15-3.45 2.02 3.58 5.46 2.33 13.47-3.54 16.8-5.62 3.2-13.94 1.93-17.55-3.67-1.39-2.16-4.85-.15-3.45 2.02" class="c"/><path d="M74.4 48.87c-8.54 0-14.45 6.3-14.45 13.68 0 8.25 6.04 13.93 14.46 13.93 8.75 0 14.46-5.74 14.46-13.93 0-7.43-5.94-13.68-14.46-13.68" class="a"/><path d="M76.01 78.4c6.72-.62 12.56-4.62 14.3-11.36A16 16 0 0 0 84 49.7a17.6 17.6 0 0 0-19.6.3 15.9 15.9 0 0 0-5.7 17.63c2.36 7.5 9.76 11.33 17.31 10.78 2.56-.19 2.58-4.19 0-4-5.18.38-10.4-1.44-12.84-6.3a12 12 0 0 1 2-13.53 13.5 13.5 0 0 1 14.7-2.63 11.8 11.8 0 0 1 6.95 11.97c-.48 5.88-5.05 9.95-10.8 10.49a2.06 2.06 0 0 0-2 2 2 2 0 0 0 2 2Z" class="c"/><path d="M54.8 60.91c-8.54 0-14.45 6.3-14.45 13.67 0 8.25 6.03 13.93 14.46 13.93 8.74 0 14.45-5.73 14.45-13.93 0-7.42-5.94-13.67-14.46-13.67" class="a"/><path d="M54.8 58.91c-6.96.08-13.36 4.05-15.66 10.77a15.9 15.9 0 0 0 5.3 17.57c5.28 4 13.23 4.31 19.01 1.2 5.9-3.18 8.61-10.03 7.58-16.49-1.26-7.9-8.5-12.96-16.23-13.05-2.57-.03-2.57 3.97 0 4 5.23.06 10.27 2.94 11.9 8.11 1.44 4.55.14 10.07-3.75 13.02a14.3 14.3 0 0 1-14.44 1.06 11.7 11.7 0 0 1-6.05-12.22c.93-6.11 6.4-9.9 12.35-9.97 2.57-.03 2.57-4.03 0-4" class="c"/></svg>
