<svg xmlns="http://www.w3.org/2000/svg" fill="none" viewBox="0 0 24 24"><path fill="none" stroke="currentColor" stroke-linecap="round" stroke-linejoin="round" stroke-width="1.5" d="M12 22a10 10 0 1 0 0-20 10 10 0 0 0 0 20"/><path stroke="currentColor" stroke-linecap="round" stroke-linejoin="round" stroke-width="1.5" d="M12 16a4 4 0 1 0 0-8 4 4 0 0 0 0 8m9.17-8A21.5 21.5 0 0 0 12 8"/><path stroke="currentColor" stroke-linecap="round" stroke-linejoin="round" stroke-width="1.5" d="m3.95 6.06.02.06A24 24 0 0 0 8.54 14m2.34 7.94a22 22 0 0 0 4.55-7.86l.03-.08"/></svg>
