<svg fill="currentColor" viewBox="0 0 64 64" xmlns="http://www.w3.org/2000/svg" style="fill-rule:evenodd;clip-rule:evenodd;stroke-linejoin:round;stroke-miterlimit:2;"><g transform="matrix(1,0,0,1,-640,-320)"><rect id="Icons" x="0" y="0" width="1280" height="800" style="fill:none;"/><g id="Icons1"><g id="radio-check" transform="matrix(1,0,0,0.99911,0,0.24916)"><path id="radio-check1" d="M672.021,328C685.279,328 696.043,338.764 696.043,352.021C696.043,365.279 685.279,376.043 672.021,376.043C658.764,376.043 648,365.279 648,352.021C648,338.764 658.764,328 672.021,328ZM687.751,342.828L665.123,365.456L656,356.332L658.767,353.566L665.062,359.861L684.922,340C685.865,340.943 686.808,341.886 687.751,342.828Z"/></g></g></g></svg>
