<svg xmlns="http://www.w3.org/2000/svg" fill="currentColor" style="fill-rule:evenodd;clip-rule:evenodd;stroke-linejoin:round;stroke-miterlimit:2" viewBox="0 0 64 64"><path id="Icons" d="M-448-320H832v800H-448z" style="fill:none"/><path id="Icons1" d="M32.14 56.04a24.4 24.4 0 0 0 16.7-6.96 24.4 24.4 0 0 0 6.98-20.1A23.76 23.76 0 0 0 31.99 8c-9.08 0-17.9 5.68-21.77 13.9a24.1 24.1 0 0 0 0 20.23 24.6 24.6 0 0 0 21.61 13.91zm-.28-4c-9.23-.09-17.84-7.23-19.55-16.38a20.3 20.3 0 0 1 5.81-18.01 20.3 20.3 0 0 1 21.5-4.11 20.5 20.5 0 0 1 12.23 15.95 20.3 20.3 0 0 1-5.57 16.48 20.2 20.2 0 0 1-14.16 6.07z" style="fill-rule:nonzero"/></svg>
