<svg xmlns="http://www.w3.org/2000/svg" fill="none" viewBox="0 0 24 24"><path fill="currentColor" fill-rule="evenodd" d="M7 1.25c.41 0 .75.34.75.75v1.75h.29q.66-.01 1.16.04c.35.05.73.16 1.04.47.3.31.42.69.47 1.04q.05.5.04 1.16v1.42l.2.18c.45.45.64 1.02.72 1.65q.08.64.08 1.54h.5V7.71c0-1.26 0-2.29.12-3.07.12-.82.38-1.54 1.06-2.01.68-.48 1.46-.47 2.26-.3.78.17 1.74.53 2.92.97l.1.04q.9.32 1.5.61c.41.22.78.47 1.05.87q.39.6.44 1.3.06.66.05 1.61v13.52H22a.75.75 0 0 1 0 1.5H2a.75.75 0 0 1 0-1.5h.25v-9.3c0-.9 0-1.65.08-2.24a2.7 2.7 0 0 1 .92-1.83V6.46q-.01-.66.04-1.16c.05-.35.16-.73.47-1.04.31-.3.69-.42 1.04-.47q.5-.05 1.16-.04h.29V2c0-.41.34-.75.75-.75M4.75 7.32q.88-.09 2.2-.07h.1q1.32-.02 2.2.07V6.5a9 9 0 0 0-.07-1.17l-.02-.01L9 5.28c-.21-.03-.5-.03-1-.03H6a9 9 0 0 0-1.17.07l-.01.02-.04.16c-.03.21-.03.5-.03 1zm-1 13.93h2.5v-5.3c0-.9 0-1.65.08-2.24.08-.63.27-1.2.73-1.65a2.7 2.7 0 0 1 1.65-.73q.64-.08 1.54-.08 0-.84-.07-1.34c-.06-.47-.17-.66-.3-.8-.13-.12-.32-.23-.79-.3S7.96 8.76 7 8.76s-1.61 0-2.1.07c-.46.06-.65.17-.78.3s-.24.32-.3.79c-.07.48-.07 1.13-.07 2.09zm4 0h8.5V16c0-.96 0-1.61-.07-2.1-.06-.46-.17-.65-.3-.78s-.32-.24-.79-.3c-.48-.07-1.13-.07-2.09-.07h-2c-.96 0-1.61 0-2.1.07-.46.06-.65.17-.78.3s-.24.32-.3.79c-.07.48-.07 1.13-.07 2.09zm10 0h2.5V7.77c0-.69 0-1.14-.04-1.49-.04-.33-.1-.49-.18-.6a1.3 1.3 0 0 0-.5-.4c-.32-.15-.75-.31-1.39-.55a23 23 0 0 0-2.76-.93c-.64-.14-.91-.07-1.1.06-.17.12-.34.35-.43 1-.1.66-.1 1.58-.1 2.91v3.48q.9 0 1.54.08c.63.08 1.2.27 1.65.73.46.45.65 1.02.73 1.65q.1.89.08 2.24zM9.25 15c0-.41.34-.75.75-.75h4a.75.75 0 0 1 0 1.5h-4a.75.75 0 0 1-.75-.75m0 3c0-.41.34-.75.75-.75h4a.75.75 0 0 1 0 1.5h-4a.75.75 0 0 1-.75-.75" clip-rule="evenodd"/></svg>
