<svg xmlns="http://www.w3.org/2000/svg" fill="none" viewBox="0 0 24 24"><path fill="none" stroke="currentColor" stroke-linecap="round" stroke-width="1.5" d="M10 22c-3.41-.03-5.3-.22-6.54-1.46C2 19.07 2 16.7 2 12s0-7.07 1.46-8.54C4.93 2 7.3 2 12 2s7.07 0 8.54 1.46c.97.98 1.3 2.35 1.4 4.54"/><path fill="currentColor" d="M2.5 7.25a.75.75 0 0 0 0 1.5zm19.5 0H2.5v1.5H22z"/><path stroke="currentColor" stroke-linecap="round" stroke-width="1.5" d="M10.5 2.5 7 8m10-5.5L13.5 8"/><path stroke="currentColor" stroke-width="1.5" d="m18.56 13.94.42-.42a1.77 1.77 0 1 1 2.5 2.5l-.42.42m-2.5-2.5s.05.88.84 1.66c.78.79 1.66.84 1.66.84m-2.5-2.5-3.83 3.83c-.26.26-.4.39-.5.53q-.2.25-.34.55c-.08.16-.14.34-.25.68l-.37 1.12-.13.36m7.92-4.57-3.83 3.83c-.26.26-.39.4-.53.5q-.25.2-.55.34c-.16.08-.34.14-.68.25l-1.12.37-.36.13m0 0-.36.12a.48.48 0 0 1-.6-.6l.11-.37m.85.85-.85-.85"/></svg>
