<svg xmlns="http://www.w3.org/2000/svg" fill="none" viewBox="0 0 24 24"><path fill="currentColor" d="m12 11.7-.52.53c.3.28.75.28 1.04 0zm0 4.13v-.75zm-.51-1.07c-.42-.3-.88-.69-1.23-1.1-.37-.42-.51-.75-.51-.96h-1.5c0 .77.44 1.45.87 1.95.46.52 1.02.98 1.48 1.32zM9.75 12.7c0-.58.26-.83.5-.91s.7-.06 1.23.44l1.04-1.08c-.83-.79-1.86-1.1-2.77-.78-.94.33-1.5 1.23-1.5 2.33zm3.65 3.27c.46-.34 1.02-.8 1.48-1.32.43-.5.87-1.18.87-1.95h-1.5q.02.32-.5.97c-.36.4-.82.78-1.24 1.1zm2.35-3.27c0-1.1-.56-2-1.5-2.33-.9-.32-1.94-.01-2.77.78l1.04 1.08c.52-.5.99-.53 1.24-.44.23.08.49.33.49.9zm-5.15 3.27c.37.27.78.6 1.4.6v-1.5l-.1-.02-.41-.29zm1.91-1.2-.42.28q-.07.04-.09.03v1.5c.62 0 1.03-.34 1.4-.61z"/><path fill="none" stroke="currentColor" stroke-width="1.5" d="M8 3.5C8 2.67 8.67 2 9.5 2h5c.83 0 1.5.67 1.5 1.5v1c0 .83-.67 1.5-1.5 1.5h-5A1.5 1.5 0 0 1 8 4.5z"/><path stroke="currentColor" stroke-linecap="round" stroke-width="1.5" fill="none" d="M21 16c0 2.83 0 4.24-.88 5.12S17.82 22 15 22H9c-2.83 0-4.24 0-5.12-.88S3 18.82 3 16v-3m13-9c2.18.01 3.35.11 4.12.88.88.88.88 2.3.88 5.12v2M8 4c-2.18.01-3.35.11-4.12.88S3 6.83 3 9"/></svg>
