<svg xmlns="http://www.w3.org/2000/svg" fill="none" viewBox="0 0 24 24"><path stroke="currentColor" stroke-linejoin="round" stroke-width="2" d="M15 3c1.89 0 2.83 0 3.41.59C19 4.17 19 5.1 19 7v10c0 1.89 0 2.83-.59 3.41-.58.59-1.52.59-3.41.59H9c-1.89 0-2.83 0-3.41-.59C5 19.83 5 18.9 5 17V7c0-1.89 0-2.83.59-3.41C6.17 3 7.1 3 9 3z"/><path stroke="currentColor" stroke-linecap="round" stroke-linejoin="round" stroke-width="2" d="M9 3v3c0 1.1.9 2 2 2h2a2 2 0 0 0 2-2V3M9 15l1.5 1.5v0a.7.7 0 0 0 1 0v0L15 13"/></svg>
