<svg fill="currentColor" viewBox="0 0 64 64" xmlns="http://www.w3.org/2000/svg" style="fill-rule:evenodd;clip-rule:evenodd;stroke-linejoin:round;stroke-miterlimit:2;"><g transform="matrix(1,0,0,1,-768,-320)"><rect id="Icons" x="0" y="0" width="1280" height="800" style="fill:none;"/><g id="Icons1" serif:id="Icons"><g id="clipboard-copy" transform="matrix(1,0,0,1,62,0)"><g id="clipboard1" serif:id="clipboard" transform="matrix(1,0,0,1,-62,0)"><path d="M817.979,360L817.958,370.005C817.958,373.314 815.271,376 811.963,376L783.974,376C780.665,376 777.979,373.314 777.979,370.005L778,338.535C778,335.226 780.686,332.54 783.995,332.54L788.474,332.54C788.474,332.54 788.474,332.713 788.474,332C788.474,331.731 788.581,331.472 788.772,331.282C788.962,331.091 789.221,330.984 789.49,330.984C791.343,330.984 795.08,330.984 795.08,330.984C795.08,330.984 795.15,328.028 797.979,328.028C800.808,328.028 800.85,330.984 800.85,330.984L806.365,330.984C806.926,330.984 807.381,331.439 807.381,332C807.381,332.713 807.381,332.54 807.381,332.54L811.984,332.54C815.293,332.54 817.979,335.226 817.979,338.535L817.979,349.255L813.981,349.255L813.98,339.529C813.98,337.88 812.641,336.541 810.991,336.54L807.381,336.54L807.381,337.513C807.381,338.075 806.926,338.529 806.365,338.529C803.081,338.529 792.774,338.529 789.49,338.529C788.929,338.529 788.474,338.075 788.474,337.513C788.474,336.647 788.474,336.54 788.474,336.54L784.988,336.54C783.338,336.541 781.999,337.88 781.999,339.529L781.978,369.01C781.978,370.66 783.317,371.999 784.967,371.999L810.97,371.999C812.619,371.999 813.959,370.66 813.959,369.01L813.98,360L817.979,360ZM797.979,329.382C798.818,329.382 799.499,330.064 799.499,330.903C799.499,331.742 798.818,332.423 797.979,332.423C797.14,332.423 796.458,331.742 796.458,330.903C796.458,330.064 797.14,329.382 797.979,329.382Z"/></g><g transform="matrix(2.91775,0,0,1,170.164,76)"><rect x="189.816" y="267" width="4.627" height="2" style="fill-rule:nonzero;"/></g><g transform="matrix(2.91775,0,0,1,170.164,81.2438)"><rect x="189.816" y="267" width="3.584" height="2" style="fill-rule:nonzero;"/></g><g transform="matrix(2.91775,0,0,1,170.143,86.4877)"><rect x="189.816" y="267" width="2.749" height="2" style="fill-rule:nonzero;"/></g><g transform="matrix(2.91775,0,0,1,170.164,91.7315)"><rect x="189.816" y="267" width="3.584" height="2" style="fill-rule:nonzero;"/></g><g transform="matrix(2.91775,0,0,1,170.164,96.9753)"><rect x="189.816" y="267" width="4.627" height="2" style="fill-rule:nonzero;"/></g><g transform="matrix(6.12323e-17,-1,1,6.12323e-17,390.613,642.488)"><path d="M290.004,369.387L285.998,369.387L285.998,350.278L278.585,357.691L275.753,354.859L287.999,342.613L288,342.614L288.001,342.613L300.247,354.859L297.415,357.691L290.004,350.28L290.004,369.387Z" style="fill-rule:nonzero;"/></g></g></g></g></svg>
