<svg xmlns="http://www.w3.org/2000/svg" fill="none" viewBox="0 0 24 24"><path fill="currentColor" fill-rule="evenodd" d="M7.26 3.26A2.25 2.25 0 0 1 9.5 1.25h5c1.16 0 2.12.88 2.24 2q1.14.02 1.98.17c.76.14 1.4.4 1.93.93.6.6.86 1.36.98 2.26.12.86.12 1.97.12 3.33v6.11c0 1.37 0 2.47-.12 3.34-.12.9-.38 1.66-.98 2.26s-1.36.86-2.26.98c-.87.12-1.97.12-3.34.12h-6.1c-1.37 0-2.47 0-3.34-.12a3.7 3.7 0 0 1-2.26-.98c-.6-.6-.86-1.36-.98-2.26-.12-.87-.12-1.97-.12-3.34v-6.1c0-1.37 0-2.48.12-3.34.12-.9.38-1.66.98-2.26a3.5 3.5 0 0 1 1.93-.93q.84-.15 1.98-.16m0 1.5q-1.06.01-1.71.13c-.57.1-.9.27-1.14.52-.28.27-.46.66-.56 1.4-.1.75-.1 1.75-.1 3.19v6c0 1.43 0 2.43.1 3.19.1.73.28 1.12.56 1.4s.66.46 1.4.56c.75.1 1.75.1 3.19.1h6c1.44 0 2.44 0 3.2-.1.73-.1 1.11-.28 1.4-.56.27-.28.45-.67.55-1.4.1-.76.1-1.76.1-3.2v-6c0-1.43 0-2.43-.1-3.18-.1-.74-.28-1.13-.56-1.4a2 2 0 0 0-1.14-.52q-.65-.12-1.71-.13a2.25 2.25 0 0 1-2.24 1.99h-5c-1.15 0-2.1-.87-2.24-2m2.24-2a.75.75 0 0 0-.75.75v1c0 .41.34.75.75.75h5c.41 0 .75-.34.75-.75v-1a.75.75 0 0 0-.75-.75zm2.5 6.5c.41 0 .75.34.75.75v2.25H15a.75.75 0 0 1 0 1.5h-2.25V16a.75.75 0 0 1-1.5 0v-2.25H9a.75.75 0 0 1 0-1.5h2.25V10c0-.41.34-.75.75-.75" clip-rule="evenodd"/></svg>
