<svg xmlns="http://www.w3.org/2000/svg" fill="none" viewBox="0 0 24 24"><path fill="none" stroke="currentColor" stroke-width="1.5" d="M8 3.5C8 2.67 8.67 2 9.5 2h5c.83 0 1.5.67 1.5 1.5v1c0 .83-.67 1.5-1.5 1.5h-5A1.5 1.5 0 0 1 8 4.5z"/><path stroke="currentColor" stroke-linecap="round" stroke-width="1.5" d="m14.5 11-5 5m0-5 5 5m6.5 0c0 2.83 0 4.24-.88 5.12S17.82 22 15 22H9c-2.83 0-4.24 0-5.12-.88S3 18.82 3 16v-3m13-9c2.18.01 3.35.11 4.12.88.88.88.88 2.3.88 5.12v2M8 4c-2.18.01-3.35.11-4.12.88S3 6.83 3 9"/></svg>
