<svg fill="currentColor" viewBox="0 0 64 64" xmlns="http://www.w3.org/2000/svg" style="fill-rule:evenodd;clip-rule:evenodd;stroke-linejoin:round;stroke-miterlimit:2;"><g transform="matrix(1,0,0,1,-704,-320)"><rect id="Icons" x="0" y="0" width="1280" height="800" style="fill:none;"/><g id="Icons1"><g id="clipboard"><g id="clipboard1" transform="matrix(1,0,0,1,-0.0212163,0)"><path d="M750.005,376L722.016,376C718.707,376 716.021,373.314 716.021,370.005L716.042,338.535C716.042,335.226 718.728,332.54 722.037,332.54L726.517,332.54C726.517,332.54 726.517,332.713 726.517,332C726.517,331.731 726.624,331.472 726.814,331.282C727.005,331.091 727.263,330.984 727.533,330.984C729.385,330.984 733.122,330.984 733.122,330.984C733.122,330.984 733.192,328.028 736.021,328.028C738.85,328.028 738.893,330.984 738.893,330.984L744.408,330.984C744.969,330.984 745.424,331.439 745.424,332C745.424,332.713 745.424,332.54 745.424,332.54L750.026,332.54C753.335,332.54 756.021,335.226 756.021,338.535L756,370.005C756,373.314 753.314,376 750.005,376ZM749.012,371.999C750.662,371.999 752.001,370.66 752.001,369.01L752.022,339.529C752.022,337.88 750.683,336.541 749.033,336.54L745.424,336.54L745.424,337.513C745.424,338.075 744.969,338.529 744.408,338.529C741.124,338.529 730.817,338.529 727.533,338.529C726.971,338.529 726.517,338.075 726.517,337.513C726.517,336.647 726.517,336.54 726.517,336.54L723.03,336.54C721.38,336.541 720.041,337.88 720.041,339.529L720.02,369.01C720.02,370.66 721.359,371.999 723.009,371.999L749.012,371.999ZM736.021,329.382C736.86,329.382 737.542,330.064 737.542,330.903C737.542,331.742 736.86,332.423 736.021,332.423C735.182,332.423 734.501,331.742 734.501,330.903C734.501,330.064 735.182,329.382 736.021,329.382Z"/></g><g transform="matrix(2.91775,0,0,1,170.164,76)"><rect x="189.816" y="267" width="8.226" height="2" style="fill-rule:nonzero;"/></g><g transform="matrix(2.91775,0,0,1,170.164,81.2438)"><rect x="189.816" y="267" width="8.226" height="2" style="fill-rule:nonzero;"/></g><g transform="matrix(2.91775,0,0,1,170.143,86.4877)"><rect x="189.816" y="267" width="8.226" height="2" style="fill-rule:nonzero;"/></g><g transform="matrix(2.91775,0,0,1,170.164,91.7315)"><rect x="189.816" y="267" width="8.226" height="2" style="fill-rule:nonzero;"/></g><g transform="matrix(2.91775,0,0,1,170.164,96.9753)"><rect x="189.816" y="267" width="8.226" height="2" style="fill-rule:nonzero;"/></g></g></g></g></svg>
