<svg xmlns="http://www.w3.org/2000/svg" fill="none" viewBox="0 0 24 24"><path stroke="currentColor" stroke-linecap="round" stroke-width="1.5" d="M19 22v-.5M5 22v-.5m7-.5V2m3 6v2"/><path stroke="currentColor" stroke-width="1.5" d="M2 10c0-3.77 0-5.66 1.17-6.83S6.23 2 10 2h4c3.77 0 5.66 0 6.83 1.17S22 6.23 22 10v3c0 3.77 0 5.66-1.17 6.83S17.77 21 14 21h-4c-3.77 0-5.66 0-6.83-1.17S2 16.77 2 13z"/><path stroke="currentColor" stroke-linecap="round" stroke-width="1.5" d="M2 8h10M2 15h20m-7 3h2M7 18h2"/></svg>
