<svg xmlns="http://www.w3.org/2000/svg" fill="currentColor" viewBox="0 0 32 32"><path d="M23.85 8.12c-1.4-3.7-4.4-6.04-8.93-6.04-5.76 0-9.79 4.28-10.14 9.86C2.01 12.83 0 15.66 0 18.87c0 3.93 3.09 7.25 6.74 7.25h2.9a1 1 0 0 0 0-2h-2.9c-2.57 0-4.77-2.4-4.77-5.25 0-2.51 1.76-4.78 3.97-5.16l.9-.16-.07-.91v-.01c0-4.88 3.2-8.55 8.15-8.55 3.97 0 6.2 1.96 7.24 5.3l.21.68.72.02c3.72.08 6.98 3.1 6.98 6.84 0 3.4-2.26 7.2-5.68 7.2H22.1a1 1 0 0 0 0 2h2.28c5-.13 7.6-4.9 7.6-9.2 0-4.62-3.61-8.3-8.14-8.8m-7.1 7.97-.01-.01-.25-.27a.7.7 0 0 0-.51-.22.7.7 0 0 0-.51.22l-.25.27-.01.01-3.61 4a.77.77 0 0 0 0 1.05l.25.17c.28.3.73.2 1-.1L15 18.85v10.08a1 1 0 0 0 2 0V18.85l2.2 2.43c.27.3.73.39 1 .1l.26-.18a.77.77 0 0 0 0-1.05z"/></svg>
