<svg xmlns="http://www.w3.org/2000/svg" fill="none" viewBox="0 0 24 24"><path stroke="currentColor" stroke-linecap="round" stroke-linejoin="round" stroke-miterlimit="10" stroke-width="1.5" d="M5.54 11.12c-4.68.33-4.68 7.14 0 7.47h1.92m-1.87-7.47C2.38 2.19 15.92-1.38 17.47 8c4.33.55 6.08 6.32 2.8 9.19a5.3 5.3 0 0 1-3.64 1.4h-.09"/><path stroke="currentColor" stroke-linecap="round" stroke-linejoin="round" stroke-miterlimit="10" stroke-width="1.5" d="M17 16.53a4.7 4.7 0 0 1-.73 2.57 4.96 4.96 0 0 1-8.81-.51A5 5 0 1 1 17 16.53"/><path stroke="currentColor" stroke-linecap="round" stroke-linejoin="round" stroke-width="1.5" d="m10.44 16.53.99.99 2.13-1.97"/></svg>
