<svg xmlns="http://www.w3.org/2000/svg" fill="none" viewBox="0 0 24 24"><path stroke="currentColor" stroke-linecap="round" stroke-linejoin="round" stroke-miterlimit="10" stroke-width="1.5" d="M20.27 18.68a5.3 5.3 0 0 1-3.64 1.4H5.53c-4.66-.34-4.67-7.14 0-7.48h.06c-2.7-7.54 6.53-11.26 10.4-6.57v.01c.71.86 1.24 2 1.48 3.45a5 5 0 0 1 3.18 1.74c1.75 2.07 1.9 5.45-.38 7.45"/><path stroke="currentColor" stroke-linecap="round" stroke-linejoin="round" stroke-miterlimit="10" stroke-width="1.5" d="M7.26 13.01a4 4 0 0 0-1.67-.41m10.26-2.68q.79-.4 1.67-.41"/><path stroke="currentColor" stroke-linecap="round" stroke-linejoin="round" stroke-miterlimit="10" stroke-width="1.5" d="M21.97 8.5c0 1.1-.51 2.09-1.32 2.73a5 5 0 0 0-3.18-1.74A7 7 0 0 0 16 6.04v-.01a3.5 3.5 0 0 1 5.97 2.47"/></svg>
