<svg xmlns="http://www.w3.org/2000/svg" fill="currentColor" style="fill-rule:evenodd;clip-rule:evenodd;stroke-linejoin:round;stroke-miterlimit:2" viewBox="0 0 64 64"><g transform="translate(-1152 -256)"><path id="Icons" d="M0 0h1280v800H0z" style="fill:none"/><g id="Icons1"><path id="coffee-bean-filled" d="M737.67 327.53c.82-.17 1.66.2 2.09.92l.35.57s5.1 8.86-.68 23.06c-2.35 5.78-2.94 13.3-1 18.9a1.95 1.95 0 0 1-2.7 2.4c-5.54-2.7-13.7-9.02-13.7-22.08-.01-11.77 6.78-21.72 15.64-23.77m7.75 47.52c-.86.18-1.73-.2-2.17-.96l-.33-.52s-5.1-8.86.68-23.06c2.33-5.72 2.93-13.16 1.05-18.74a2.02 2.02 0 0 1 2.82-2.47c5.54 2.75 13.53 9.07 13.54 22 0 11.74-6.76 21.67-15.59 23.75" transform="rotate(30 1081.636 1145.934)"/></g></g></svg>
