<svg xmlns="http://www.w3.org/2000/svg" fill="currentColor" style="fill-rule:evenodd;clip-rule:evenodd;stroke-linejoin:round;stroke-miterlimit:2" viewBox="0 0 64 64"><g transform="translate(-1088 -256)"><path id="Icons" d="M0 0h1280v800H0z" style="fill:none"/><g id="Icons1"><g id="coffee-beans" transform="translate(474.123 -.133)scale(.81286)"><path id="coffee-bean1" d="M737.05 327.69c1.16-.3 2.37.21 2.97 1.24l.09.1s5.1 8.85-.68 23.05c-2.15 5.28-2.82 12.02-1.44 17.41a2.7 2.7 0 0 1-3.93 3.01c-5.37-3.1-12.03-9.4-12.04-21.2 0-11.5 6.48-21.25 15.03-23.61m0 3.91c-6.95 2.94-11.03 10.55-11.03 19.7 0 7.27 4.18 13.11 8.1 16.32a29.3 29.3 0 0 1 1.6-17.05 30.4 30.4 0 0 0 1.33-18.97m8.99 43.29a2.74 2.74 0 0 1-3.05-1.28l-.07-.04s-5.1-8.86.68-23.06c2.17-5.33 2.84-12.14 1.4-17.56a2.62 2.62 0 0 1 3.8-2.95c5.4 3.07 12.2 9.37 12.2 21.3.01 11.46-6.43 21.2-14.96 23.59m-.06-3.9c6.95-2.94 11.03-10.54 11.03-19.7 0-7.27-4.18-13.1-8.1-16.31a29.3 29.3 0 0 1-1.6 17.04 30.4 30.4 0 0 0-1.33 18.97" transform="rotate(30 670.664 585.246)scale(.90676)"/><path d="M792.01 368.38c.87-.01 1.63-.6 1.86-1.44l.04-.1s1.95-7.28-4.88-16.28c-2.52-3.34-4.29-7.99-4.34-12.08a2 2 0 0 0-3.41-1.4 17.2 17.2 0 0 0-4.49 17.35c2.2 8.2 8.67 13.9 15.22 13.95m4.54-4.38c.78.44 1.41.63 2.33.47a6 6 0 0 1-1.5 2.1.79.79 0 0 1-1.28-.71c.03-.5.15-1.1.45-1.86m-5.3 1.6c-5.5-.78-9.87-5.41-11.61-11.93-1.39-5.18.47-10.13 2.64-13.16a21.6 21.6 0 0 0 4.4 11.83 22.4 22.4 0 0 1 4.57 13.25m1.9-13.51q-.4-.63-.84-1.21c-6.83-9-4.88-16.29-4.88-16.29l.02-.1c.23-.85.98-1.44 1.85-1.46 3.88.04 7.74 2.05 10.7 5.39q-1.08 1.05-1.96 2.05a12.6 12.6 0 0 0-7.95-4.63c-.03 2.15.48 7.16 3.74 12.1q-.54 1.94-.68 4.15" style="fill:#404040" transform="translate(-189.709 -77.66)scale(1.23023)"/></g></g></g></svg>
