<svg xmlns="http://www.w3.org/2000/svg" fill="none" viewBox="0 0 24 24"><path stroke="currentColor" stroke-linecap="round" stroke-linejoin="round" stroke-width="1.5" d="M18.5 12.65v3.7c0 3.12-2.91 5.65-6.5 5.65s-6.5-2.53-6.5-5.65v-3.7C5.5 15.77 8.41 18 12 18s6.5-2.23 6.5-5.35"/><path stroke="currentColor" stroke-linecap="round" stroke-linejoin="round" stroke-width="1.5" d="M18.5 7.65a4.7 4.7 0 0 1-.69 2.47C16.74 11.88 14.54 13 12 13s-4.74-1.12-5.81-2.88a4.7 4.7 0 0 1-.69-2.47 5.3 5.3 0 0 1 1.9-3.99A7 7 0 0 1 12 2c1.8 0 3.42.63 4.6 1.65a5.3 5.3 0 0 1 1.9 4"/><path stroke="currentColor" stroke-linecap="round" stroke-linejoin="round" stroke-width="1.5" d="M18.5 7.65v5c0 3.12-2.91 5.35-6.5 5.35s-6.5-2.23-6.5-5.35v-5C5.5 4.53 8.41 2 12 2c1.8 0 3.42.63 4.6 1.65a5.3 5.3 0 0 1 1.9 4"/></svg>
