<svg xmlns="http://www.w3.org/2000/svg" fill="none" viewBox="0 0 24 24"><path stroke="currentColor" stroke-linejoin="round" stroke-width="2" d="M17 8c1.89 0 2.83 0 3.41.59.59.58.59 1.52.59 3.41v4c0 1.89 0 2.83-.59 3.41-.58.59-1.52.59-3.41.59H7c-1.89 0-2.83 0-3.41-.59C3 18.83 3 17.9 3 16v-4c0-1.89 0-2.83.59-3.41C4.17 8 5.1 8 7 8z"/><path stroke="currentColor" stroke-linecap="round" stroke-linejoin="round" stroke-width="2" d="M6 8V5.71C6 4.77 6.77 4 7.71 4v0h8.58v0c.94 0 1.71.77 1.71 1.71V8"/></svg>
