<svg xmlns="http://www.w3.org/2000/svg" fill="none" viewBox="0 0 24 24"><path stroke="currentColor" stroke-linejoin="round" stroke-width="2" d="M3 7c0-1.89 0-2.83.59-3.41C4.17 3 5.1 3 7 3s2.83 0 3.41.59C11 4.17 11 5.1 11 7v10c0 1.89 0 2.83-.59 3.41C9.83 21 8.9 21 7 21s-2.83 0-3.41-.59C3 19.83 3 18.9 3 17zm8 .5 1.67-1.67c1.33-1.33 2-2 2.83-2s1.5.67 2.83 2l.84.84c1.33 1.33 2 2 2 2.83s-.67 1.5-2 2.83L11 20.5"/><path stroke="currentColor" stroke-linejoin="round" stroke-width="2" d="M7 21h10c1.89 0 2.83 0 3.41-.59.59-.58.59-1.52.59-3.41v-1.5c0-.46 0-.7-.04-.89a2 2 0 0 0-1.57-1.57c-.2-.04-.43-.04-.89-.04"/><path stroke="currentColor" stroke-linecap="round" stroke-linejoin="round" stroke-width="2" d="M7 17.01V17"/></svg>
