<svg xmlns="http://www.w3.org/2000/svg" fill="none" viewBox="0 0 24 24"><path stroke="currentColor" stroke-linecap="round" stroke-linejoin="round" stroke-width="1.5" d="M13.2 14.4A3.6 3.6 0 0 1 9.6 18a3.6 3.6 0 0 1-.95-7.07 3.6 3.6 0 0 0 4.3 2.15q.24.6.25 1.32"/><path stroke="currentColor" stroke-linecap="round" stroke-linejoin="round" stroke-width="1.5" d="M15.6 9.6q0 .71-.25 1.33a3.61 3.61 0 1 1 .25-1.33"/><path stroke="currentColor" stroke-linecap="round" stroke-linejoin="round" stroke-width="1.5" d="M18 14.4a3.6 3.6 0 0 1-6 2.68 3.55 3.55 0 0 0 .95-4.01c1.1-.3 1.99-1.1 2.4-2.15A3.6 3.6 0 0 1 18 14.4"/><path stroke="currentColor" stroke-linecap="round" stroke-linejoin="round" stroke-width="1.5" d="M9 22h6c5 0 7-2 7-7V9c0-5-2-7-7-7H9C4 2 2 4 2 9v6c0 5 2 7 7 7"/></svg>
