<svg xmlns="http://www.w3.org/2000/svg" fill="none" viewBox="0 0 24 24"><path fill="currentColor" fill-rule="evenodd" d="M5 2a3 3 0 0 0-3 3v3a3 3 0 0 0 3 3h3a3 3 0 0 0 3-3V5a3 3 0 0 0-3-3zM4 5a1 1 0 0 1 1-1h3a1 1 0 0 1 1 1v3a1 1 0 0 1-1 1H5a1 1 0 0 1-1-1zm12-3a3 3 0 0 0-3 3v3a3 3 0 0 0 3 3h3a3 3 0 0 0 3-3V5a3 3 0 0 0-3-3zm-1 3a1 1 0 0 1 1-1h3a1 1 0 0 1 1 1v3a1 1 0 0 1-1 1h-3a1 1 0 0 1-1-1zM2 16a3 3 0 0 1 3-3h3a3 3 0 0 1 3 3v3a3 3 0 0 1-3 3H5a3 3 0 0 1-3-3zm3-1a1 1 0 0 0-1 1v3a1 1 0 0 0 1 1h3a1 1 0 0 0 1-1v-3a1 1 0 0 0-1-1zm11-2a3 3 0 0 0-3 3v3a3 3 0 0 0 3 3h3a3 3 0 0 0 3-3v-3a3 3 0 0 0-3-3zm-1 3a1 1 0 0 1 1-1h3a1 1 0 0 1 1 1v3a1 1 0 0 1-1 1h-3a1 1 0 0 1-1-1z" clip-rule="evenodd"/></svg>
