<svg xmlns="http://www.w3.org/2000/svg" fill="currentColor" style="fill-rule:evenodd;clip-rule:evenodd;stroke-linejoin:round;stroke-miterlimit:2" viewBox="0 0 1069 1069"><path id="Sound-card" d="M1.12.14h1066.67v1066.67H1.12z" style="fill:none"/><path d="M1023.6 337.91a114.6 114.6 0 0 0-114.58-114.58h-625c-63.29 0-114.59 51.3-114.59 114.58v391.13a114.6 114.6 0 0 0 114.59 114.58h356.1c31.23 0 61.12-12.75 82.73-35.31l69.54-72.59A52 52 0 0 1 830 719.67h79.02c63.28 0 114.58-51.3 114.58-114.59zm-62.5 0v267.17a52.1 52.1 0 0 1-52.08 52.09H830a114.6 114.6 0 0 0-82.74 35.31l-69.53 72.59a52 52 0 0 1-37.62 16.05h-356.1a52.1 52.1 0 0 1-52.08-52.08V337.9a52.1 52.1 0 0 1 52.09-52.08h625a52.1 52.1 0 0 1 52.08 52.08M310.01 741.8h113.9a31.26 31.26 0 0 0-.01-62.5H310.02a31.26 31.26 0 0 0 0 62.5m219.56-403.72a31.25 31.25 0 0 0-43.56 28.72v250a31.25 31.25 0 0 0 45.6 27.76l145.83-75.4a31.3 31.3 0 0 0 16.9-27.75V429.3c0-12.5-7.45-23.8-18.94-28.72zm18.94 76.11 83.33 35.72v72.47l-83.33 43.09zm166.67 15.1a31.25 31.25 0 0 1 29.64-31.2h.27q.85-.04 1.76-.04h30.91l1.61.01 1.6.05 1.6.08 1.6.1a83 83 0 0 1 34.59 10.54l1.3.76 1.72 1.04 1.7 1.08 1.65 1.12 1.64 1.16 1.6 1.2 1.57 1.24 1.54 1.27 1.88 1.64 1.84 1.7 1.78 1.75 1.73 1.8 1.67 1.85 1.62 1.9 1.56 1.96 1.5 2 1.45 2.04 1.38 2.09 1.33 2.13 1.26 2.18 1.2 2.21.9 1.8.87 1.83.82 1.85.78 1.87.73 1.9.7 1.92.63 1.94.6 1.96.55 1.98.5 2 .45 2.01.4 2.04.36 2.06.3 2.07.25 2.08.2 2.1.15 2.12.1 2.14.04 2.14v.7a83.25 83.25 0 0 1-83.25 83.26l-32.94-.04a31.25 31.25 0 0 1-29.64-31.21zm62.58 31.26h-.08v41.67h.08c8.75 0 16.24-5.42 19.29-13.1l.45-1.26.15-.47q.26-.86.44-1.74l.22-1.3.14-1.3.06-1.32v-.43a20.7 20.7 0 0 0-6.22-14.81l-.04-.04a20.7 20.7 0 0 0-14.49-5.9" style="fill-opacity:.5"/><path d="M149.03 970.98V383.2a31.26 31.26 0 0 0-62.5 0v587.78a31.26 31.26 0 0 0 62.5 0m187.5-127.36v47.67a31.26 31.26 0 0 0 62.5 0v-47.67h145.4v47.67a31.26 31.26 0 0 0 62.5 0v-47.67h33.19c31.24 0 61.13-12.75 82.74-35.31l69.54-72.59a52 52 0 0 1 37.6-16.05h79.02c63.28 0 114.58-51.3 114.58-114.58v-133a31.26 31.26 0 0 0-62.5 0v133a52.1 52.1 0 0 1-52.08 52.08h-79.01a114.6 114.6 0 0 0-82.75 35.31l-69.53 72.59a52 52 0 0 1-37.61 16.05h-356.1a52.1 52.1 0 0 1-52.08-52.08V337.9a52.1 52.1 0 0 1 52.08-52.08h501.64a31.26 31.26 0 0 0 0-62.5H284.02c-63.28 0-114.58 51.3-114.58 114.58v391.13a114.6 114.6 0 0 0 114.58 114.58zm-19-268.48a33.1 33.1 0 0 1 33.07 33.08 33.1 33.1 0 0 1-33.08 33.07 33.1 33.1 0 0 1-33.07-33.07 33.1 33.1 0 0 1 33.07-33.08m0-107.81a33.1 33.1 0 0 1 33.07 33.07 33.1 33.1 0 0 1-33.08 33.08 33.1 33.1 0 0 1-33.07-33.08 33.1 33.1 0 0 1 33.07-33.07m0-107.81a33.1 33.1 0 0 1 33.07 33.07 33.1 33.1 0 0 1-33.08 33.07 33.1 33.1 0 0 1-33.07-33.07 33.1 33.1 0 0 1 33.07-33.07"/></svg>
