<svg xmlns="http://www.w3.org/2000/svg" fill="none" viewBox="0 0 24 24"><path fill="currentColor" fill-rule="evenodd" d="M10.94 2.44a1.5 1.5 0 0 1 2.12 0l2.85 2.85a1.5 1.5 0 0 1 0 2.12l-2.85 2.85a1.5 1.5 0 0 1-2.12 0L8.1 7.41a1.5 1.5 0 0 1 0-2.12zM12 4.2 9.86 6.35 12 8.49l2.14-2.14zM5.3 8.09a1.5 1.5 0 0 1 2.1 0l2.86 2.85a1.5 1.5 0 0 1 0 2.12L7.41 15.9a1.5 1.5 0 0 1-2.12 0l-2.85-2.85a1.5 1.5 0 0 1 0-2.12zm1.05 1.77L4.21 12l2.14 2.14L8.49 12zm10.24-1.77a1.5 1.5 0 0 1 2.12 0l2.85 2.85a1.5 1.5 0 0 1 0 2.12l-2.85 2.85a1.5 1.5 0 0 1-2.12 0l-2.85-2.85a1.5 1.5 0 0 1 0-2.12zm1.06 1.77L15.51 12l2.14 2.14L19.79 12zm-6.7 3.88a1.5 1.5 0 0 1 2.1 0l2.86 2.85a1.5 1.5 0 0 1 0 2.12l-2.85 2.85a1.5 1.5 0 0 1-2.12 0L8.1 18.71a1.5 1.5 0 0 1 0-2.12zM12 15.5l-2.14 2.14L12 19.79l2.14-2.14z" clip-rule="evenodd"/></svg>
