<svg xmlns="http://www.w3.org/2000/svg" fill="none" viewBox="0 0 24 24"><path fill="currentColor" fill-rule="evenodd" d="M16.7 3.07a73 73 0 0 0-7.2 2.65c-1.4.56-1.92.78-2.33 1.14l-.3.3c-.36.41-.58.94-1.14 2.33a73 73 0 0 0-2.65 7.22c-.47 1.76-.4 2.7.02 3.31q.36.53.89.89c.6.41 1.55.49 3.31.02a73 73 0 0 0 7.22-2.65c1.4-.56 1.92-.78 2.33-1.14l.45.53-.45-.53.3-.3.53.46-.53-.46c.36-.41.58-.94 1.14-2.33a73 73 0 0 0 2.65-7.22c.47-1.76.4-2.7-.02-3.31a3 3 0 0 0-.89-.89c-.6-.41-1.55-.49-3.31-.02m-.38-1.45c1.83-.48 3.36-.58 4.55.23q.76.52 1.28 1.28c.8 1.2.71 2.72.23 4.55A73 73 0 0 1 19.69 15l-.02.06-.05.12c-.49 1.23-.8 2.01-1.35 2.63q-.21.24-.45.45c-.62.55-1.4.86-2.63 1.35l-.12.05-.06.02c-3.1 1.24-5.49 2.2-7.33 2.69s-3.36.58-4.55-.23q-.76-.52-1.28-1.28l.62-.42-.62.42c-.8-1.2-.71-2.72-.23-4.55.49-1.84 1.45-4.23 2.69-7.33l.02-.06.05-.12c.49-1.23.8-2.01 1.35-2.63q.21-.24.45-.45c.62-.55 1.4-.86 2.63-1.35l.12-.05L9 4.3c3.1-1.24 5.49-2.2 7.33-2.69M12 9.75a2.25 2.25 0 1 0 0 4.5 2.25 2.25 0 0 0 0-4.5M8.25 12a3.75 3.75 0 1 1 7.5 0 3.75 3.75 0 0 1-7.5 0" clip-rule="evenodd"/></svg>
