<svg xmlns="http://www.w3.org/2000/svg" fill="none" viewBox="0 0 24 24"><path fill="currentColor" d="M5.25 8.5c0-.41.34-.75.75-.75h12a.75.75 0 0 1 0 1.5H6a.75.75 0 0 1-.75-.75M6 5.25a.75.75 0 0 0 0 1.5h12a.75.75 0 0 0 0-1.5z"/><path fill="currentColor" fill-rule="evenodd" d="M7.52 1.25h8.96c1.16 0 2.1 0 2.85.09.78.09 1.44.28 2 .73q.34.25.6.6c.45.56.64 1.22.73 2 .09.75.09 1.69.09 2.85v.1c0 1.57 0 2.81-.11 3.8a5 5 0 0 1-.93 2.54q-.33.42-.75.75c-.7.56-1.53.8-2.54.93-.99.11-2.23.11-3.8.11H9.38c-1.57 0-2.81 0-3.8-.11a5 5 0 0 1-2.54-.93 5 5 0 0 1-.75-.75c-.56-.7-.8-1.53-.93-2.54-.11-.99-.11-2.23-.11-3.8v-.1c0-1.16 0-2.1.09-2.85.09-.78.28-1.44.73-2q.25-.35.6-.6a4 4 0 0 1 2-.73c.75-.09 1.69-.09 2.85-.09M4.84 2.83c-.64.07-.99.2-1.24.41q-.2.16-.36.36c-.2.25-.34.6-.41 1.24-.08.65-.08 1.5-.08 2.73 0 1.63 0 2.78.1 3.67.1.88.3 1.4.6 1.79q.24.28.52.51c.32.25.7.42 1.29.53q0-.61.2-1.12c.28-.68.81-1.21 1.49-1.5q.43-.16.9-.18.46-.02 1.12-.02h6.6q.58-.01.97.05a2.75 2.75 0 0 1 2.2 2.77 2.8 2.8 0 0 0 1.8-1.04c.31-.4.5-.91.6-1.79.1-.89.11-2.04.11-3.67 0-1.22 0-2.08-.08-2.73s-.2-.99-.41-1.24q-.16-.2-.36-.36c-.25-.2-.6-.34-1.24-.41a27 27 0 0 0-2.73-.08H7.57c-1.22 0-2.08 0-2.73.08m12.4 11.39-.01-.46c-.1-.5-.5-.89-.99-.99-.1-.02-.24-.02-.74-.02H9q-.7 0-1.04.02t-.44.08q-.47.2-.68.67c-.04.12-.07.28-.08.7q1.06.04 2.67.03h5.14q1.6 0 2.68-.03" clip-rule="evenodd"/><path fill="currentColor" d="M7.42 16.88c.34.23.43.7.2 1.04l-.3.46a.57.57 0 0 0 .13.77c.88.66 1.09 1.9.48 2.8l-.3.47a.75.75 0 1 1-1.25-.84l.3-.46a.57.57 0 0 0-.13-.77 2.07 2.07 0 0 1-.48-2.8l.3-.47a.75.75 0 0 1 1.05-.2m5 0c.34.23.43.7.2 1.04l-.3.46a.57.57 0 0 0 .13.77c.88.66 1.09 1.9.48 2.8l-.3.47a.75.75 0 1 1-1.25-.84l.3-.46a.57.57 0 0 0-.13-.77 2.07 2.07 0 0 1-.48-2.8l.3-.47a.75.75 0 0 1 1.05-.2m5 0c.34.23.43.7.2 1.04l-.3.46a.57.57 0 0 0 .13.77c.88.66 1.09 1.9.48 2.8l-.3.47a.75.75 0 1 1-1.25-.84l.3-.46a.57.57 0 0 0-.13-.77 2.07 2.07 0 0 1-.48-2.8l.3-.47a.75.75 0 0 1 1.05-.2"/></svg>
