<svg xmlns="http://www.w3.org/2000/svg" fill="none" viewBox="0 0 24 24"><path fill="currentColor" fill-rule="evenodd" d="M12 2.75a9.25 9.25 0 1 0 0 18.5 9.25 9.25 0 0 0 0-18.5M1.25 12a10.75 10.75 0 1 1 21.5 0 10.75 10.75 0 0 1-21.5 0" clip-rule="evenodd"/><path fill="currentColor" fill-rule="evenodd" d="M7.4 8.55a.75.75 0 0 1 1.05-.15l2 1.5a.75.75 0 0 1 0 1.2l-2 1.5a.75.75 0 1 1-.9-1.2l1.2-.9-1.2-.9a.75.75 0 0 1-.15-1.05m9.2 0a.75.75 0 0 0-1.05-.15l-2 1.5a.75.75 0 0 0 0 1.2l2 1.5a.75.75 0 1 0 .9-1.2l-1.2-.9 1.2-.9c.33-.25.4-.72.15-1.05m-1.07 7.98c-.3.3-.77.3-1.06 0l-.47-.47-.47.47a.75.75 0 0 1-1.06 0l-.47-.47-.47.47a.75.75 0 0 1-1.06 0l-.47-.47-.47.47a.75.75 0 0 1-1.06-1.06l1-1a.75.75 0 0 1 1.06 0l.47.47.47-.47a.75.75 0 0 1 1.06 0l.47.47.47-.47a.75.75 0 0 1 1.06 0l1 1c.3.3.3.77 0 1.06" clip-rule="evenodd"/></svg>
