<svg xmlns="http://www.w3.org/2000/svg" viewBox="0 0 1024 1024"><path fill="currentColor" d="M20.02 512a491.99 491.99 0 1 0 983.97 0 491.99 491.99 0 1 0-983.97 0"/><path d="M382.79 561.1a20.01 20.01 0 0 1-8.01-38.36l82.1-35.8-82.18-36.3a20.02 20.02 0 0 1 16.16-36.61l123.92 54.7a20.01 20.01 0 1 1-.08 36.66l-123.92 54.04a20 20 0 0 1-8 1.68m508.98-12.01a20 20 0 0 1-18.35 12.02 20 20 0 0 1-8-1.67L741.52 505.4a20.01 20.01 0 0 1-.08-36.66l123.92-54.7a20.01 20.01 0 1 1 16.16 36.62l-82.19 36.28 82.11 35.8a20 20 0 0 1 10.34 26.35"/><path fill="currentColor" d="M617.43 931.35c-271.71 0-491.98-220.26-491.98-491.98 0-145.17 62.88-275.63 162.89-365.68-159.28 81.43-268.32 247.14-268.32 438.3 0 271.72 220.26 492 491.98 492 126.55 0 241.92-47.8 329.1-126.3a490 490 0 0 1-223.67 53.66"/><path d="M490.76 793.1a20 20 0 0 1-14.16-5.86 20 20 0 0 1 0-28.3l32.4-32.4a20 20 0 0 1 28.3 0l17.2 17.2 24.85-24.86a20 20 0 0 1 28.3 0l25.56 25.55 28.34-28.34a20 20 0 0 1 28.3 0l23.47 23.46 18.94-18.93a20 20 0 0 1 28.3 0L794 754.05a20 20 0 1 1-28.3 28.31l-19.3-19.29-18.93 18.94a20 20 0 0 1-28.3 0l-23.47-23.47-28.34 28.35a20 20 0 0 1-28.3 0l-25.56-25.56-24.86 24.86a20 20 0 0 1-28.3 0l-17.2-17.2-18.23 18.25a20 20 0 0 1-14.15 5.86"/><path d="M940.97 232.39A513 513 0 0 0 726.1 46.78a20 20 0 0 0-26.56 9.8 20 20 0 0 0 9.8 26.55 473 473 0 0 1 198.13 171.15c50.05 76.64 76.51 165.76 76.51 257.72 0 260.25-211.73 471.97-471.97 471.97S40.03 772.25 40.03 512 251.76 40.03 512 40.03A20.01 20.01 0 1 0 512 0C229.68 0 0 229.68 0 512s229.68 512 512 512 512-229.68 512-512c0-99.76-28.71-196.44-83.03-279.61"/><path d="m509 726.53-32.4 32.4a20.02 20.02 0 0 0 28.3 28.3L523.16 769l17.2 17.2a20 20 0 0 0 28.3 0l24.85-24.86 25.56 25.55a20 20 0 0 0 28.3 0l28.34-28.34 23.47 23.47a20.03 20.03 0 0 0 28.3 0l18.94-18.94 19.29 19.28a20.01 20.01 0 1 0 28.3-28.3l-33.44-33.44a20 20 0 0 0-28.3 0l-18.94 18.94-23.46-23.46a20 20 0 0 0-28.3 0l-28.35 28.34-25.55-25.56a20 20 0 0 0-28.3 0l-24.86 24.86-17.2-17.2a20.03 20.03 0 0 0-28.3 0m120.48-686.5a20.01 20.01 0 1 0 40.02 0 20.01 20.01 0 1 0-40.02 0"/></svg>
