<svg xmlns="http://www.w3.org/2000/svg" fill="currentColor" viewBox="0 0 64 64"><path id="connection" d="M61 32c0-2.6-2-4.7-4.5-5-.6-3.2-1.9-6.1-3.7-8.9 1.6-2 1.6-4.9-.3-6.7a5 5 0 0 0-6.7-.2c-2.7-1.8-5.7-3-8.9-3.7A4.9 4.9 0 0 0 32 3c-2.6 0-4.7 2-5 4.5-3.2.6-6.1 1.9-8.9 3.7-2-1.6-4.9-1.6-6.7.3a5.05 5.05 0 0 0-.3 6.7c-1.8 2.7-3 5.7-3.7 8.9C5 27.3 3 29.4 3 32s2 4.7 4.5 5c.6 3.2 1.9 6.1 3.7 8.9-1.6 2-1.6 4.9.3 6.7 1 1 2.3 1.5 3.5 1.5 1.1 0 2.3-.4 3.2-1.2 2.7 1.8 5.7 3 8.9 3.7.3 2.5 2.4 4.5 5 4.5s4.7-2 5-4.5c3.2-.6 6.1-1.9 8.9-3.7.9.8 2 1.2 3.2 1.2 1.3 0 2.6-.5 3.5-1.5 1.8-1.8 1.9-4.8.3-6.7 1.8-2.7 3-5.7 3.7-8.9 2.3-.3 4.3-2.4 4.3-5M49 44c-1 0-1.9.3-2.8.8L44 42.6c2.3-2.6 3.7-5.9 4-9.6h3.2c.4 1.8 1.7 3.2 3.4 3.7-.6 2.8-1.7 5.4-3.2 7.8-.8-.3-1.6-.5-2.4-.5m-16 7.1v-3.2c3.7-.2 7-1.7 9.6-4l2.3 2.3c-1 1.5-1.1 3.4-.3 5-2.4 1.6-5 2.7-7.8 3.2-.6-1.6-2-2.9-3.8-3.3m-5.7 3.4c-2.8-.6-5.4-1.7-7.8-3.2.8-1.6.7-3.5-.3-5l2.3-2.3c2.6 2.3 5.9 3.7 9.6 4v3.2c-1.9.3-3.3 1.6-3.8 3.3m-14.6-9.9c-1.6-2.4-2.7-5-3.2-7.8 1.7-.5 3-2 3.4-3.7h3.2c.2 3.7 1.7 7 4 9.6L17.8 45a4.7 4.7 0 0 0-5.1-.4M15 20c1 0 1.9-.3 2.8-.8l2.3 2.3a16.3 16.3 0 0 0-4 9.6h-3.2c-.4-1.8-1.7-3.2-3.4-3.7.6-2.8 1.7-5.4 3.2-7.8.8.2 1.5.4 2.3.4m16-7.1v3.2c-3.7.2-7 1.7-9.6 4l-2.3-2.3c1-1.5 1.1-3.4.3-5 2.4-1.6 5-2.7 7.8-3.2.6 1.6 2 2.9 3.8 3.3m5.7-3.4c2.8.6 5.4 1.7 7.8 3.2-.8 1.6-.7 3.5.3 5L42.6 20a16.3 16.3 0 0 0-9.6-4v-3.2c1.8-.3 3.2-1.6 3.7-3.3m14.6 9.9c1.6 2.4 2.7 5 3.2 7.8-1.7.5-3 2-3.4 3.7h-3.2c-.2-3.7-1.7-7-4-9.6l2.3-2.3c.9.7 1.8 1 2.8 1 .8 0 1.6-.2 2.3-.6M32 46c-1.1 0-2.5-2.4-3.3-6.6 1.1-.3 2.2-.4 3.3-.4s2.2.2 3.3.4c-.8 4.2-2.2 6.6-3.3 6.6m0-9c-1.2 0-2.5.2-3.6.4-.2-1.3-.3-2.8-.3-4.4h8c0 1.6-.2 3.1-.3 4.4-1.3-.2-2.6-.4-3.8-.4m-4-6c0-1.6.2-3.1.3-4.4 1.2.3 2.4.4 3.6.4s2.5-.2 3.6-.4c.2 1.3.3 2.8.3 4.4zm4-6c-1.1 0-2.2-.2-3.3-.4.8-4.2 2.2-6.6 3.3-6.6s2.5 2.4 3.3 6.6c-1.1.2-2.2.4-3.3.4m3.3-6.6c2.2.5 4.2 1.6 5.9 3.1-1.2 1.1-2.5 1.9-4 2.5-.4-2.2-1-4.2-1.9-5.6M26.8 24c-1.4-.6-2.8-1.4-4-2.5 1.7-1.5 3.7-2.5 5.9-3.1-.9 1.4-1.5 3.4-1.9 5.6m-5.4-1.1c1.5 1.3 3.2 2.4 5 3.1-.2 1.6-.4 3.3-.4 5h-8c.3-3.1 1.5-5.9 3.4-8.1M26 33c0 1.7.2 3.4.4 5-1.8.7-3.5 1.7-5 3.1-1.9-2.2-3.1-5-3.3-8.1zm.8 7c.4 2.2 1.1 4.2 1.9 5.6-2.2-.5-4.2-1.6-5.9-3.1 1.2-1.1 2.5-1.9 4-2.5m10.4 0c1.4.6 2.8 1.4 4 2.5-1.7 1.5-3.7 2.5-5.9 3.1.9-1.4 1.5-3.4 1.9-5.6m5.4 1.1a17 17 0 0 0-5-3.1c.2-1.6.4-3.3.4-5h8c-.3 3.1-1.5 5.9-3.4 8.1M38 31c0-1.7-.2-3.4-.4-5 1.8-.7 3.5-1.7 5-3.1 1.9 2.2 3.1 5 3.3 8.1zm21 1c0 1.7-1.3 3-3 3s-3-1.3-3-3 1.3-3 3-3 3 1.3 3 3m-7.9-19.1q.9.9.9 2.1c0 1.2-.3 1.6-.9 2.1a3.1 3.1 0 0 1-4.2 0c-.6-.5-.9-1.3-.9-2.1s.3-1.6.9-2.1q.9-.9 2.1-.9c1.2 0 1.6.3 2.1.9M32 5c1.7 0 3 1.3 3 3s-1.3 3-3 3-3-1.3-3-3 1.3-3 3-3m-19.1 7.9a2.9 2.9 0 0 1 4.2 0 2.9 2.9 0 0 1 0 4.2 2.9 2.9 0 0 1-4.2 0 2.9 2.9 0 0 1 0-4.2M5 32c0-1.7 1.3-3 3-3s3 1.3 3 3-1.3 3-3 3-3-1.3-3-3m7.9 19.1a2.9 2.9 0 0 1 0-4.2 2.9 2.9 0 0 1 4.2 0 2.9 2.9 0 0 1 0 4.2 2.9 2.9 0 0 1-4.2 0M32 59c-1.7 0-3-1.3-3-3s1.3-3 3-3 3 1.3 3 3-1.3 3-3 3m19.1-7.9a3.1 3.1 0 0 1-4.2 0c-.6-.5-.9-1.3-.9-2.1s.3-1.6.9-2.1q.9-.9 2.1-.9c1.2 0 1.6.3 2.1.9q.9.9.9 2.1c0 1.2-.3 1.6-.9 2.1"/></svg>
