<svg xmlns="http://www.w3.org/2000/svg" fill="none" viewBox="0 0 24 24"><path stroke="currentColor" stroke-linecap="round" stroke-linejoin="round" stroke-width="2" d="M5 7V5c0-1.1.9-2 2-2h12a2 2 0 0 1 2 2v14a2 2 0 0 1-2 2H7a2 2 0 0 1-2-2z"/><path stroke="currentColor" stroke-width="2" d="M16 12a3 3 0 1 1-6 0 3 3 0 0 1 6 0Z"/><path stroke="currentColor" stroke-linecap="round" stroke-width="2" d="M9 21c.43-2.3 1.52-3 4-3s3.57.64 4 2.95"/><path stroke="currentColor" stroke-linecap="round" stroke-linejoin="round" stroke-width="2" d="M3 7h2M3 17h2m-2-5h2"/></svg>
