<svg viewBox="0 0 28 28" fill="none" xmlns="http://www.w3.org/2000/svg"><path fill-rule="evenodd" clip-rule="evenodd" d="M12.5116 4.20225C13.4795 4.20384 14.1729 4.22295 14.7683 4.4166C15.626 4.69561 16.3645 5.22848 16.8971 5.92864C17.0212 6.09174 17.0832 6.17331 17.1567 6.20972C17.2301 6.24613 17.3212 6.24613 17.5034 6.24613L18.8046 6.24613C19.6066 6.24611 20.2934 6.24608 20.8632 6.30368C21.4723 6.36526 22.0419 6.49945 22.5855 6.8245C23.1291 7.14955 23.5172 7.58799 23.8601 8.09568C24.1809 8.57068 24.5066 9.17606 24.8867 9.88294L26.4019 12.7002C26.5012 12.8847 26.5459 13.0841 26.5413 13.2798V15.6526L26.5412 16.0848C26.5399 17.2132 26.5286 18.1519 26.4268 18.9106C26.307 19.8028 26.0476 20.5764 25.4308 21.1938C25.2529 21.3721 25.0552 21.5223 24.8436 21.6488C24.5454 21.8273 24.3963 21.9165 24.2758 21.8425C24.1554 21.7687 24.1695 21.5618 24.1977 21.1483C24.2045 21.0484 24.208 20.9474 24.208 20.8456C24.208 18.4267 22.2493 16.4658 19.833 16.4658C17.4167 16.4658 15.458 18.4267 15.458 20.8456C15.458 21.1203 15.4833 21.3891 15.5316 21.6499C15.5883 21.9557 15.6167 22.1086 15.5475 22.1926C15.4783 22.2767 15.336 22.278 15.0514 22.2806C14.3505 22.2871 13.6489 22.2871 12.9479 22.2806C12.6634 22.278 12.521 22.2767 12.4519 22.1926C12.3827 22.1086 12.411 21.9557 12.4677 21.6499C12.516 21.3891 12.5413 21.1203 12.5413 20.8456C12.5413 18.4267 10.5826 16.4658 8.16634 16.4658C5.75009 16.4658 3.79134 18.4267 3.79134 20.8456C3.79134 20.9474 3.79481 21.0484 3.80163 21.1483C3.82983 21.5619 3.84392 21.7687 3.7235 21.8425C3.60308 21.9165 3.45398 21.8273 3.15579 21.6488C2.94409 21.5223 2.74652 21.3721 2.56857 21.1938C1.95175 20.5764 1.69243 19.8028 1.5726 18.9106C1.45801 18.0569 1.45801 16.9758 1.45801 15.6526L1.45817 10.4232C1.45942 9.29474 1.47074 8.35613 1.5726 7.59737C1.69243 6.70511 1.95175 5.93151 2.56857 5.31402C3.18538 4.69653 3.95811 4.43691 4.84938 4.31695C5.70205 4.20215 6.78207 4.20215 8.1037 4.20215L12.5116 4.20225ZM6.99983 8.57715C6.3555 8.57715 5.83316 9.09949 5.83316 9.74382V12.0772C5.83316 12.7215 6.3555 13.2438 6.99983 13.2438C7.64417 13.2438 8.16649 12.7215 8.16649 12.0772V9.74382C8.16649 9.09949 7.64417 8.57715 6.99983 8.57715ZM11.6665 8.57715C11.0222 8.57715 10.4998 9.09949 10.4998 9.74382V12.0772C10.4998 12.7215 11.0222 13.2438 11.6665 13.2438C12.3108 13.2438 12.8331 12.7215 12.8331 12.0772V9.74382C12.8331 9.09949 12.3108 8.57715 11.6665 8.57715ZM19.2879 8.58272L18.2629 8.58206C18.0355 8.58206 17.9218 8.58206 17.8533 8.65145C17.7848 8.72084 17.7862 8.83659 17.7889 9.06808C17.7907 9.22342 17.7912 9.38632 17.7914 9.55772L17.7924 10.2486C17.7963 10.8936 17.8123 11.2136 17.8627 11.3692C18.0069 11.8136 18.3551 12.1621 18.799 12.3065C18.9567 12.3579 19.1678 12.3735 19.7965 12.3771L22.7973 12.378C23.146 12.378 23.3203 12.378 23.3882 12.2642C23.4562 12.1504 23.3735 11.9967 23.2082 11.6894L22.8584 11.039C22.4448 10.2701 22.1743 9.76993 21.9272 9.40418C21.6949 9.06027 21.5363 8.91801 21.389 8.82994C21.2418 8.74186 21.0414 8.66951 20.6288 8.6278C20.2875 8.59329 19.868 8.58479 19.2879 8.58272ZM8.16634 17.9105C6.55551 17.9105 5.24967 19.2163 5.24967 20.8272C5.24967 22.438 6.55551 23.7438 8.16634 23.7438C9.77717 23.7438 11.083 22.438 11.083 20.8272C11.083 19.2163 9.77717 17.9105 8.16634 17.9105ZM19.833 17.9105C18.2222 17.9105 16.9163 19.2163 16.9163 20.8272C16.9163 22.438 18.2222 23.7438 19.833 23.7438C21.4438 23.7438 22.7497 22.438 22.7497 20.8272C22.7497 19.2163 21.4438 17.9105 19.833 17.9105Z" fill="currentColor"/></svg>
