<svg xmlns="http://www.w3.org/2000/svg" fill="none" viewBox="0 0 24 24"><path fill="currentColor" d="m18.26 13.48-.53.53zm-7.74-7.74.53-.53zm3.1-3.1-.54.53zm7.74 7.74-.53.53zM1.47 21.47a.75.75 0 1 0 1.06 1.06zm3.08-2.02-.53-.53zm.22-1.24-.68.32zm-.95-2-.68.31zm.79-.7-.4.63zm6.7 4.25.4-.63zm.75-.77-.62.43zm-5.6-8.03-.61.43zm.77-.76.42-.61zm5.54 3.87-.43.61zm.78-.74-.64.4zm-.64-1.05.64-.39zm2.01-2.14a.75.75 0 1 0-1.06-1.06zm-6.96 7.5-.4.63zm.68-2.23a.75.75 0 0 0 1.23-.86zm3.34 2.16a.75.75 0 1 0-1.23.86zm-3.42-3.6.61-.43zm9.97-7.5a.75.75 0 0 0-1.06 1.06zm-4.06-1.92a.75.75 0 1 0 1.06-1.06zM10 6.27 17.73 14l1.06-1.06-7.74-7.74zM17.73 14a2.94 2.94 0 0 0 4.16 0l-1.06-1.06c-.56.56-1.48.56-2.04 0zM10 2.11a2.94 2.94 0 0 0 0 4.16l1.06-1.06a1.44 1.44 0 0 1 0-2.04zm4.16 0a2.94 2.94 0 0 0-4.16 0l1.06 1.06a1.44 1.44 0 0 1 2.03 0zm6.68 8.8c.56.57.56 1.48 0 2.04l1.06 1.06a2.94 2.94 0 0 0 0-4.16zM2.53 22.54l2.55-2.55-1.06-1.06-2.55 2.55zm2.91-4.65-.94-2-1.36.64.95 2zm1.36-7.06 5.54 3.86.86-1.23L7.65 9.6zm7.4 2.12-.65-1.05-1.28.79.64 1.05zm-.6-1.47 1.32-1.33-1.06-1.06-1.33 1.32zm-.05.42a.35.35 0 0 1 .05-.42l-1.07-1.07c-.6.6-.71 1.55-.26 2.28zm-1.2 2.8c1.15.8 2.58-.55 1.84-1.75l-1.28.79a.2.2 0 0 1-.02-.15l.06-.1a.2.2 0 0 1 .11-.06q.1 0 .14.03zm-5.27-4.15q.04.04.03.14l-.05.11a.2.2 0 0 1-.12.06.2.2 0 0 1-.14-.03l.85-1.23c-1.18-.83-2.63.62-1.8 1.8zm3.83 9.86c1.2.76 2.57-.68 1.76-1.84l-1.23.86a.2.2 0 0 1-.03-.15q.01-.08.05-.1a.2.2 0 0 1 .11-.06q.1-.01.15.02zM4.5 15.88a.2.2 0 0 1-.05.24l-.11.04q-.08.01-.14-.02l.8-1.27c-1.09-.7-2.42.48-1.86 1.65zm.58 4.1c.55-.55.7-1.4.36-2.1l-1.35.65q.08.21-.07.39zm-.88-3.84 3.36 2.13.8-1.27-3.35-2.13zm3.36 2.13 3.35 2.13.8-1.27L8.37 17zm5.11.29-.69-.99-1.23.86.7.99zm-2.8-4.01-.7-1-1.23.85.7 1zm-.7-1-2.1-3.01-1.22.85 2.1 3.01zm12.72-3.7-3.36-3.38-1.06 1.06 3.36 3.38zM15.53 3.5l-1.39-1.4-1.04 1.07 1.38 1.38z"/><path stroke="currentColor" stroke-width="1.5" d="M22 12a2.15 2.15 0 1 1-4.3 0 2.15 2.15 0 0 1 4.3 0Z"/></svg>
