<svg xmlns="http://www.w3.org/2000/svg" viewBox="-97.03 0 437.543 437.543"><defs><style>.a{fill:#fff}.c{fill:#211715}.h{fill:#7a7473}</style></defs><path d="M209.47 398.43a3.8 3.8 0 0 1-1.34-2.13c-.21-.83-.22-6.6-.25-7.45v-.23a83 83 0 0 1-13.87 1.74q-1.8.09-3.92 0l-.02.31-.16 6.12v.15l2.09.05c2.03.05 6.1.85 7.57 5.12a2.46 2.46 0 0 0 3.7 1.24 43 43 0 0 1 7.34-4.1ZM163 394.18a8.8 8.8 0 0 0-5.66-2.12v-3.08a82 82 0 0 0 14.93-1.49v.62c.02 1.7.51 5.55 1.62 7l.07.1a60 60 0 0 0-5.35 3.2 2.46 2.46 0 0 1-3.7-1.24 7 7 0 0 0-1.91-2.99m39.8-342.73a5 5 0 0 1 3.54-.54 4.4 4.4 0 0 1 3.47 2.73c.9 2.4.12 6.36-1.21 8.65a12.7 12.7 0 0 1-5.16 5.33 9.6 9.6 0 0 1-4.41.8c-.66 1.18-2.18 3.21-2.18 3.21a45 45 0 0 1-4.34 4.9 49 49 0 0 0 .43 6.7 14 14 0 0 0 .87 3.37c.6 1.44 2.23 2.6 4.15 3.52a33 33 0 0 1-14.27 7.6 35 35 0 0 1-14.9.53 17.4 17.4 0 0 1-10.43-6.11c1.39-.48 2.68-.94 3.61-1.36 1.78-.6 4.03-1.79 4-3.89v-1.5a24.4 24.4 0 0 1-14.89-6.92c-5.06-4.72-6.93-11.76-7.27-19.44-.2-4.42-.3-9.23-.63-14.04 0 0-3.94-24.22 26.34-24.22 36.88 0 33.28 30.68 33.28 30.68" class="a"/><path d="M214.91 380.53q.2-4.03.37-8.13c2.17-51.32 2.62-109.52 3.72-160.21h-80l-.18 5.82c-.56 30.25 5.11 149.28 5.65 167.81a2.6 2.6 0 0 0 2.26 2.47c7.29 1.26 19 .74 26.62-1.04l7.12-.47a3 3 0 0 0 2.38 2.7 49 49 0 0 0 11.16.88 72 72 0 0 0 18.42-2.98 3.4 3.4 0 0 0 2.3-3.05z" style="fill:#3d8dcc"/><path d="M136.82 218.01c-.19 10.25.13 20.52.41 30.77.4 14.86.94 29.71 1.5 44.57q.88 23.03 1.86 46.05l1.49 35.62.38 10.14a5 5 0 0 0 2.32 4.52c1.83 1.06 4.58 1 6.64 1.14a83 83 0 0 0 15.59-.48 67 67 0 0 0 6.88-1.16c2.5-.57 1.44-4.43-1.07-3.85a72 72 0 0 1-14.5 1.63q-3.63.1-7.26-.16a42 42 0 0 1-3.02-.32c-.65-.1-1.4-.06-1.57-.78a22 22 0 0 1-.13-3.9l-.21-5.46q-.69-17.05-1.43-34.1-.94-22.41-1.81-44.82a4595 4595 0 0 1-1.54-44.54c-.31-10.75-.64-21.52-.56-32.27q0-1.3.03-2.6c.04-2.57-3.96-2.57-4 0m35.53 66.42q.55 30.09 2.78 60.1c.72 9.84 1.52 19.68 2.32 29.52l.65 8.14c.2 2.41-.11 5.53 1.5 7.5 1.6 1.96 4.3 2.04 6.61 2.33a47 47 0 0 0 7.43.36 79 79 0 0 0 15.62-2.02c2.14-.52 4.73-.95 6.2-2.74 1.6-1.92 1.34-4.58 1.45-6.93q.72-15.3 1.2-30.62c.7-21.39 1.15-42.79 1.55-64.19.38-21.13.7-42.26 1.13-63.39l.15-7.41c.05-2.57-3.95-2.57-4 0-.43 20.28-.75 40.56-1.1 60.85-.37 20.71-.77 41.43-1.36 62.13q-.43 15.13-1.03 30.25-.3 7.27-.64 14.52c-.04.78.1 1.74-.5 2.34-.65.63-2 .78-2.85 1a61 61 0 0 1-7.42 1.48 62 62 0 0 1-14.7.5 38 38 0 0 1-3.5-.5c-.84-.16-1.26-.32-1.4-1.21-.38-2.63-.42-5.36-.63-8.01-.79-9.74-1.59-19.47-2.32-29.21a1130 1130 0 0 1-2.96-56.77q-.1-4-.17-8.01c-.04-2.57-4.05-2.58-4 0Z" class="c"/><path d="M144.67 25.62q-.3.93-.53 1.84a56 56 0 0 0-1.09 18.74l.26-1.04c.75-3.12 7.35-11.4 11.86-13.58.53-.26 1.19.13 1.37 1a6 6 0 0 1 .07 2.1 1.08 1.08 0 0 0 1.5 1.2c2.53-1.3 6.94-4.48 11.93-6.28a47 47 0 0 1 10.25.15c1.88.9 10.6 4.55 16.45 16.77.52 1.05 4.58 4.48 6.32 4.8a5 5 0 0 1 3.28-.4 4.4 4.4 0 0 1 3.47 2.73 7 7 0 0 1 .38 2.11l.54-.82c2.68-4.06 3.5-11.69 3.96-14.95a30 30 0 0 0-.15-9.3c-1.05-6.1-2.97-11.17-7.3-15.81l-.86-.92-4.59-3.8a33.5 33.5 0 0 0-21.73-8.13C168.6 1.76 159.08 5.5 152.4 12.3a26 26 0 0 0-2.12 2.44 37 37 0 0 0-5.6 10.88" style="fill:#85807f"/><path d="M205.82 16.28c5.01 5.44 7.36 13.12 7.15 20.45a56 56 0 0 1-1.1 8.66c-.57 3-1.27 6.16-3 8.72-1.44 2.14 2.03 4.15 3.46 2.02 1.91-2.84 2.77-6.35 3.39-9.67a60 60 0 0 0 1.26-10.2 33.2 33.2 0 0 0-8.33-22.8c-1.75-1.9-4.57.93-2.83 2.82m-26.54 15.2a34 34 0 0 1 4.67 2.59l.78.55.4.3c.25.18-.14-.12.2.16q.96.75 1.86 1.59a34 34 0 0 1 3.68 4.01 40 40 0 0 1 4.15 6.85 2 2 0 0 0 2.73.71 2.04 2.04 0 0 0 .72-2.73c-3.26-6.75-8.32-12.77-14.96-16.39q-1.09-.58-2.2-1.1a2.06 2.06 0 0 0-2.75.72 2 2 0 0 0 .72 2.73Zm-34.04 14.21a8 8 0 0 1 1.05-2.2 30 30 0 0 1 2.01-2.9 33 33 0 0 1 5.82-6 14 14 0 0 1 1.2-.81 5 5 0 0 0 .65-.37l-.68-.15q-.8-.5-.65-.02a3 3 0 0 0 .03.65c-.02 1.72.24 3.45 2.2 4 1.4.38 2.63-.45 3.79-1.14q1.81-1.1 3.64-2.17a31 31 0 0 1 10.54-4.17 2 2 0 0 0 1.4-2.46 2.05 2.05 0 0 0-2.46-1.4 32 32 0 0 0-10.2 3.84c-1.38.75-2.72 1.57-4.06 2.38l-1.58.93c-.55.31-.92.22.02.66 1.1.52.5.44.69 0a2 2 0 0 0 .03-.65c-.03-1.8-.74-3.86-2.77-4.17-1.38-.22-2.7.77-3.75 1.55a35 35 0 0 0-6.38 6.27c-1.7 2.13-3.69 4.56-4.4 7.26-.65 2.5 3.2 3.55 3.86 1.06Z" class="c"/><path d="M203.2 8.74A36.5 36.5 0 0 0 185.64.53a45 45 0 0 0-18.5 1 36.4 36.4 0 0 0-14.87 8.1 35.4 35.4 0 0 0-9.62 15.8 52 52 0 0 0-1.52 21.25 2.06 2.06 0 0 0 2 2 2 2 0 0 0 2-2c-1.4-11.18.28-24.03 8.28-32.56 7.46-7.96 18.66-10.87 29.28-9.96a32.3 32.3 0 0 1 17.7 7.4 2.06 2.06 0 0 0 2.83 0 2 2 0 0 0 0-2.82ZM190.58 78.8a36 36 0 0 0 .66 6.2 8.4 8.4 0 0 0 2.63 4.88c2.7 2.26 6.21 3.35 9.53 4.36a2 2 0 0 0 1.06-3.86 55 55 0 0 1-4.25-1.44 19 19 0 0 1-1.87-.86l-.94-.55-.44-.29c-.08-.05-.48-.36-.14-.09a8 8 0 0 1-.7-.64l-.3-.34c.31.38.03.01-.03-.07l-.2-.37c.17.34-.1-.35-.11-.35a13 13 0 0 1-.39-1.44q-.15-.72-.25-1.45c.05.34-.03-.21-.03-.28l-.07-.58q-.13-1.41-.16-2.83a2 2 0 1 0-4 0m-26.6 8.1q-.03.31 0 .1c.03-.22.02-.12-.02.08l-.05.17.04-.08-.23.38c.16-.24.03-.04-.08.07l-.33.3c.3-.25-.15.1-.19.13a8 8 0 0 1-.81.46l-.27.12c.23-.1-.22.09-.27.1q-.4.14-.8.32c-.34.15.22-.08-.02.02q-.9.36-1.8.68c-2.68.96-5.41 1.76-8.06 2.8a2.06 2.06 0 0 0-1.4 2.46 2 2 0 0 0 2.46 1.4c2.95-1.16 6-2.01 8.96-3.13q.5-.18.98-.38l.7-.3q.2-.08-.1.06l.24-.1a11 11 0 0 0 2.22-1.05 5.6 5.6 0 0 0 2.83-4.62 2 2 0 0 0-4 0Z" class="c"/><path d="M189.66 81.5a42 42 0 0 0 7.1-6.58 37 37 0 0 0 4-5.49 2 2 0 1 0-3.46-2.02 30 30 0 0 1-1.78 2.67l-.3.42c-.24.33.25-.32.05-.06q-.65.82-1.34 1.65a41 41 0 0 1-2.96 3.15q-.79.75-1.62 1.45-.46.4-.94.78l-.26.2-.5.38a2.05 2.05 0 0 0-.73 2.74 2 2 0 0 0 2.74.71m-8.05-.69c-7.67 2.92-16.42 4.17-23.9.06a21.6 21.6 0 0 1-8.4-7.83 28 28 0 0 1-3.3-11.16c-.56-5.6-.47-11.27-.83-16.9-.17-2.55-4.17-2.56-4 0 .35 5.43.3 10.89.77 16.3a34 34 0 0 0 3.46 12.99c4.07 7.73 12.64 12.59 21.2 13.18a38 38 0 0 0 16.06-2.78 2.06 2.06 0 0 0 1.4-2.46 2 2 0 0 0-2.46-1.4" class="c"/><path d="M161.01 72.5a11 11 0 0 0 5.12 1.37 11 11 0 0 0 2.66-.22 6 6 0 0 0 1.1-.34l.97-.41.28-.12c-.47.2.03 0 .1-.03a2.05 2.05 0 0 0 1.4-2.46 2 2 0 0 0-2.46-1.4q-.45.17-.91.37l-.28.12-.19.08-.1.04-.26.1q-.23.08-.47.14l-.52.1c-.27.06.1-.02.17-.02l-.25.03a10 10 0 0 1-1.09.02q-.26 0-.52-.03l-.27-.02c-.06-.01-.37-.05-.06 0s0 0-.06-.02l-.26-.04-.57-.13-.85-.25-.2-.1-.44-.24a2 2 0 0 0-2.02 3.45Zm12.44-17.92c-.31-1.57.34-5.03 3.25-5.04 3.8.4 3.57 4.65 2.1 6.5-1.22 1.53-4.37 1.9-5.35-1.46m-22.61-1.6c-.28-1.54.33-4.94 2.94-4.97 3.41.38 3.19 4.55 1.85 6.38-1.1 1.51-3.93 1.88-4.8-1.4m10.87 4.26a33 33 0 0 0-1.56 2.46 4 4 0 0 0-.55 1.67 2.6 2.6 0 0 0 .82 2 4 4 0 0 0 1.46.87l.59.12a2 2 0 0 0 1.54-.2 2 2 0 0 0 .72-2.74 2 2 0 0 0-1.2-.91 4 4 0 0 1-.68-.16l.48.2a2 2 0 0 1-.35-.2l.4.3-.26-.25.3.4-.06-.1.2.48-.04-.16.07.53v-.18l-.07.54.1-.3-.2.47a12 12 0 0 1 .87-1.49q.42-.68.87-1.33a2 2 0 0 0 .2-1.54 2 2 0 0 0-.92-1.2 2 2 0 0 0-1.54-.2 2.2 2.2 0 0 0-1.2.92Zm42.1-4.07a3.1 3.1 0 0 1 2.97-.03 2 2 0 0 1 .95.76c-.32-.37.04.13.1.21.3.45-.01-.17.05.07a8 8 0 0 1 .26 3.08 13 13 0 0 1-.87 3.25 11 11 0 0 1-4.09 4.95q-.42.26-.86.49c.5-.28-.1.03-.24.07a9 9 0 0 1-1.57.37c.2-.03-.51.02-.6.03a7 7 0 0 1-.95-.03 5 5 0 0 1-1.2-.37c-2.27-1.23-4.3 2.22-2.03 3.46a9.6 9.6 0 0 0 7.58.34 13 13 0 0 0 6.02-4.94 15.6 15.6 0 0 0 2.7-6.86c.33-2.36.19-4.9-1.38-6.82a7.2 7.2 0 0 0-8.86-1.48c-2.23 1.28-.22 4.74 2.02 3.45" class="c"/><path d="M114.3 119.43c5.9-1.62 6.58-6.27 6.7-8.67a63 63 0 0 0-1.06-10.58c-.87-4.76-2.5-9.71-1.67-24.66.24-3.43.62-6.57.67-9.45.03-1.47.03-2.72.02-3.54-.06-9.4-4.83-20.37-11.49-25.33C99 29.14 91.06 26.95 83 26.92c-11.11-.03-20.25 3.79-26.6 10.5a34 34 0 0 0-7.68 14.87c-1.15 4.9-.78 10.25-.58 16.2-.02 8.32-.44 17.5-1.07 25.6-.35 4.43-1.27 8.06-1.2 12.01a11.2 11.2 0 0 0 6.59 10.45Z" style="fill:#957f6e"/><path d="m55.47 66.52.13-.04A87 87 0 0 0 86.66 50.7a74 74 0 0 0 3.53 9.84c1.58 3.52 6.06 9.69 10.42 11.9l4.9 2.47 1.16-.72a4.7 4.7 0 0 1 3.45-.53 4.3 4.3 0 0 1 3.37 2.66c.88 2.33.11 6.18-1.18 8.4a12.3 12.3 0 0 1-5.01 5.19 9 9 0 0 1-4.57.73l-.29.62c-.64 1.15-2.12 3.13-2.12 3.13a43 43 0 0 1-4.37 4.9 41 41 0 0 0 .4 5.48 14 14 0 0 0 .87 3.37c1.23 2.96 6.88 4.71 10.39 5.78a46.8 46.8 0 0 1-29.7 10.4c-3.87-.06-7.98-.2-11.62-1.74a15.5 15.5 0 0 1-7.92-7.43c2.71-.93 6.1-2 8.02-2.84 1.95-.67 4.48-2.03 3.9-4.54a23.8 23.8 0 0 1-14.46-6.74c-4.92-4.59-6.74-11.44-7.08-18.9-.19-4.3-.3-8.97-.6-13.65l-.02-.25q3.67-.68 7.34-1.71" class="a"/><path d="M93.36 104.03a41 41 0 0 0 6.9-6.41 36 36 0 0 0 3.9-5.35 2 2 0 1 0-3.44-2.01 29 29 0 0 1-1.73 2.6l-.3.4c-.24.33.26-.33.05-.07l-1.3 1.6a40 40 0 0 1-2.88 3.06q-.76.73-1.56 1.41-.45.39-.92.76l-.24.19-.5.37a2.05 2.05 0 0 0-.71 2.74 2 2 0 0 0 2.73.71m12.27-71.08a37 37 0 0 0-13.1-6.83 40 40 0 0 0-13.3-1.05C70.62 25.75 62.28 28.93 56 35c-6.75 6.54-10 15.96-10.06 25.22-.03 5.11.25 10.21.12 15.33q-.2 7.85-.76 15.68-.3 4.17-.87 8.3a32 32 0 0 0-.46 7.8 13.3 13.3 0 0 0 7.5 10.95 2.06 2.06 0 0 0 2.73-.72 2 2 0 0 0-.71-2.73 9.3 9.3 0 0 1-5.55-7.84c-.36-4.44.84-8.92 1.19-13.33a257 257 0 0 0 .9-28.71c-.15-4.44-.26-8.93.93-13.25a32 32 0 0 1 5.52-11.28c4.7-6.02 11.9-9.6 19.31-10.91a38 38 0 0 1 13.63 0 32 32 0 0 1 13.39 6.26 2.06 2.06 0 0 0 2.83 0 2 2 0 0 0 0-2.82Z" class="c"/><path d="M85.49 103.26c-7.42 2.82-15.87 4.04-23.14.09a21 21 0 0 1-8.3-7.8 27 27 0 0 1-3.13-10.95c-.5-5.35-.43-10.75-.77-16.11-.17-2.56-4.17-2.58-4 0 .33 5.16.3 10.35.72 15.5a34 34 0 0 0 3.28 12.78c3.98 7.74 12.53 12.57 21.07 13.07a37 37 0 0 0 15.33-2.72 2.06 2.06 0 0 0 1.4-2.46 2 2 0 0 0-2.46-1.4m-.61-51.47a49 49 0 0 0 5.23 12.74c2.37 3.72 5.5 7.55 9.49 9.63 2.28 1.2 4.3-2.26 2.02-3.45-3.47-1.81-6.17-5.18-8.21-8.44a45 45 0 0 1-4.67-11.54c-.71-2.47-4.57-1.42-3.86 1.06m9.1 48.54a36 36 0 0 0 .66 6.2 8.4 8.4 0 0 0 2.63 4.87c2.7 2.27 6.22 3.35 9.54 4.36a2 2 0 1 0 1.06-3.86 55 55 0 0 1-4.25-1.43 19 19 0 0 1-1.87-.87 14 14 0 0 1-1.39-.83c-.08-.05-.47-.37-.13-.09a7 7 0 0 1-.7-.64l-.3-.35c.31.39.03.02-.02-.07l-.2-.37c.16.35-.12-.34-.12-.35a13 13 0 0 1-.39-1.44q-.15-.71-.25-1.44c.05.34-.02-.22-.03-.28l-.06-.58q-.14-1.43-.17-2.84a2 2 0 0 0-4 0Z" class="c"/><path d="M84.87 49.6C74.19 58.2 61 63.73 47.6 66.31c-2.52.5-1.46 4.35 1.06 3.86A89.5 89.5 0 0 0 87.7 52.42a2 2 0 0 0 0-2.82 2.05 2.05 0 0 0-2.83 0M65.45 95.28a11 11 0 0 0 5.01 1.34 11 11 0 0 0 2.6-.22 6 6 0 0 0 1.07-.33l.95-.4.27-.12c-.48.19 0 0 .08-.02a2.2 2.2 0 0 0 1.2-.92 2 2 0 0 0 .2-1.55 2 2 0 0 0-2.46-1.4l-.9.37-.27.12c-.02 0-.46.2-.17.08.25-.12-.05.01-.1.03l-.26.1a4 4 0 0 1-.95.24 1.78 1.78 0 1 0 .18-.03l-.25.03a9 9 0 0 1-1.06.02l-.76-.05c-.07 0-.38-.05-.06 0s.02 0-.05-.01a10 10 0 0 1-1.62-.4l-.2-.1-.42-.23a2 2 0 0 0-2.02 3.45Zm12.12-17.47c-.3-1.52.33-4.89 3.16-4.9 3.7.4 3.48 4.52 2.04 6.33-1.18 1.47-4.24 1.83-5.2-1.43M55.6 76.25c-.27-1.5.32-4.8 2.86-4.83 3.32.37 3.1 4.42 1.8 6.2-1.07 1.47-3.82 1.83-4.66-1.37m10.52 4.11q-.8 1.17-1.52 2.4a4 4 0 0 0-.54 1.66 2.6 2.6 0 0 0 .82 1.98 4 4 0 0 0 1.44.86l.57.11a2 2 0 0 0 1.54-.2 2 2 0 0 0 .72-2.73 2 2 0 0 0-1.2-.92 4 4 0 0 1-.66-.15l.48.2-.34-.2.4.31-.26-.25.31.4-.06-.1.2.48-.04-.15.07.53v-.17l-.07.53.09-.3-.2.48a12 12 0 0 1 .85-1.45q.41-.65.85-1.3a2 2 0 0 0-2.26-2.93 2.2 2.2 0 0 0-1.2.91Zm41.57-4.45a3 3 0 0 1 2.84-.03c.08.04.7.47.43.24a4 4 0 0 1 .47.49c-.32-.38.04.1.1.2.3.44-.02-.2.04.05a7 7 0 0 1 .25 2.98 12 12 0 0 1-.33 1.63 12 12 0 0 1-.51 1.5 10.5 10.5 0 0 1-3.95 4.8q-.42.25-.84.47c.5-.28-.08.02-.22.07a9 9 0 0 1-1.52.35l-.58.03a7 7 0 0 1-.91-.02 6 6 0 0 1-1.15-.36c-2.27-1.22-4.29 2.23-2.02 3.46a9.4 9.4 0 0 0 7.4.34 12.5 12.5 0 0 0 5.9-4.83 15 15 0 0 0 2.63-6.69c.32-2.31.17-4.8-1.36-6.68a7 7 0 0 0-8.69-1.44c-2.23 1.28-.22 4.74 2.02 3.45Z" class="c"/><path d="m37.65 253.44 4.6-28.32a53 53 0 0 1-6.68-30.03h-9.15c-2.28-2.44-4.06-11.73-1.2-19.84 4.97-14.03 3.48-21.7 7.23-36.2a39 39 0 0 1 7.58-13.77c4.94-5.94 10.54-7.84 18.19-10.43a15.5 15.5 0 0 0 8.06 7.74c3.65 1.54 7.76 1.67 11.62 1.73a46.8 46.8 0 0 0 30.16-10.76c8.92 2.3 18.8 9.47 21.41 13.39 4.38 6.55 5.85 11.82 6.8 19.59a158 158 0 0 1 1.12 24.1c-.22 5.93-.33 10.97-1.06 17.87-.81 7.68-3.17 19.65-11.54 20.36l19.6 115.27c.48 2.83.95 5.8.02 8.52a13.7 13.7 0 0 1-5.03 6.14c-12.48 9.41-29.65 8.51-45.22 7.18-22.8-1.95-40.85-19.62-61.02-30.4l-4.1-9.15Z" style="fill:#7abee6"/><path d="M68.38 108.42q-.02.34 0 .1c.03-.24.03-.1-.01.1l-.05.16q.13-.27.03-.08l-.22.38c.16-.24.03-.04-.08.07l-.33.3c.29-.25-.16.1-.2.13a8 8 0 0 1-.8.46c-.05.02-.5.22-.27.13l-.27.1q-.4.14-.8.32c-.35.15.21-.09-.03 0q-.9.37-1.8.7c-2.68.95-5.41 1.75-8.05 2.8a2.06 2.06 0 0 0-1.4 2.45 2 2 0 0 0 2.46 1.4c2.94-1.16 6-2.01 8.96-3.13l.97-.38.7-.3q.2-.08-.1.06l.24-.1a11 11 0 0 0 2.22-1.05 5.6 5.6 0 0 0 2.83-4.61 2 2 0 0 0-4 0Zm39.82-67.94c4.44 4.5 7.1 10.69 8.25 16.84 1.3 6.95-.06 14.06-.32 21.03a86 86 0 0 0 .7 16.12c.59 3.86 1.52 7.63 1.91 11.53a36 36 0 0 1 .27 4.44 8 8 0 0 1-.31 2.35 6.6 6.6 0 0 1-4.93 4.71c-2.47.72-1.42 4.58 1.06 3.86a10.8 10.8 0 0 0 6.77-5.07 13 13 0 0 0 1.41-5.96c.07-4.9-1-9.78-1.92-14.58a71 71 0 0 1-1.04-14.2c.1-7.58 1.6-15.26.64-22.82-.98-7.7-4.17-15.5-9.66-21.08-1.81-1.84-4.64.99-2.83 2.83" class="c"/><path d="M108.26 115.68a45 45 0 0 1 16.96 9.57c4.22 3.83 6.76 9.63 8.03 15.3 1.67 7.37 2.06 15.2 2.2 22.73a210 210 0 0 1-.82 22.15 66 66 0 0 1-1.6 10.66c-.81 3.17-1.97 6.48-4.31 8.85-1.82 1.83 1.01 4.66 2.82 2.83 4.67-4.71 5.94-11.99 6.69-18.3a203 203 0 0 0 1.25-23.16 136 136 0 0 0-1.98-24.96 41 41 0 0 0-3.11-9.82 29 29 0 0 0-4.99-7.8 43 43 0 0 0-8.59-6.65 48 48 0 0 0-11.48-5.25c-2.47-.73-3.53 3.13-1.06 3.85Zm-50.57-2.76c-5.76 1.95-11.59 3.94-16.23 8.02a38 38 0 0 0-10.94 17.57c-1.8 6.3-2.43 12.89-3.3 19.35a93 93 0 0 1-1.66 9.25c-.86 3.56-2.3 6.96-3.1 10.53a31 31 0 0 0-.34 11.45c.4 2.58 1.1 5.41 2.89 7.41 1.71 1.93 4.53-.9 2.82-2.83-.37-.41.2.34-.14-.18l-.33-.56a8 8 0 0 1-.5-1.16 20 20 0 0 1-.88-3.74 27 27 0 0 1 .25-8.9c.68-3.32 2.04-6.48 2.89-9.76a84 84 0 0 0 1.7-8.65c.9-6 1.47-12.02 2.79-17.95a37 37 0 0 1 8.85-17.22c4.39-4.72 10.34-6.75 16.29-8.77 2.42-.82 1.38-4.68-1.06-3.85Z" class="c"/><path d="M56.5 115.86a17.7 17.7 0 0 0 7.08 7.62c3.51 2 7.52 2.59 11.5 2.77a50.4 50.4 0 0 0 22.98-4.19 52 52 0 0 0 11.51-7.17 2 2 0 0 0 0-2.83 2.05 2.05 0 0 0-2.83 0 46 46 0 0 1-18.73 9.2 43 43 0 0 1-10.32 1.06c-3.56-.05-7.28-.15-10.6-1.55a14 14 0 0 1-7.15-6.92c-1.13-2.31-4.58-.29-3.45 2.02Z" class="c"/><path d="M46.65 124.59a32 32 0 0 1 5.26-7.49c1.6-1.58 4.86-2.57 8.58-2.8a47 47 0 0 0-4.85 7.43 98 98 0 0 0-9.3 26.81c-3.9 5.92-5.04 16.04-3.12 22.15-8.94 13.96-10.87 35.48-2.09 52.42a45.5 45.5 0 0 1-19.55 8.69 8 8 0 0 1-3.73.01 5.6 5.6 0 0 1-3.45-4.7 15 15 0 0 1 .83-6.05c3.47-12 8.96-23.3 13.1-35.07 3.79-10.8 7.8-21.72 9.26-33.06a88 88 0 0 1 9.06-28.34" class="a"/><path d="M39.59 152.93a80 80 0 0 1 4.62-17.98c1.92-5.2 4.25-10.71 7.82-15.01a8 8 0 0 1 2.9-2.44 17 17 0 0 1 5.56-1.2l-1.41-3.42a68 68 0 0 0-9.2 16.63 99 99 0 0 0-5.62 19.3c-.47 2.52 3.39 3.6 3.86 1.07a99 99 0 0 1 5.28-18.46 63 63 0 0 1 8.51-15.7c.95-1.23.5-3.56-1.41-3.42-3.47.24-7.38.9-10 3.4a29 29 0 0 0-4.9 6.67 84 84 0 0 0-7.77 19.36 77 77 0 0 0-2.24 11.2 2 2 0 0 0 2 2 2.05 2.05 0 0 0 2-2" class="c"/><path d="M35.59 152.93a115 115 0 0 1-5.11 20.7 360 360 0 0 1-7.21 20.14c-2.58 6.54-5.34 13-7.67 19.63a65 65 0 0 0-2.99 9.89c-.57 3.2-.23 6.73 2.3 9.04 2.87 2.62 6.88 1.59 10.25.73A49 49 0 0 0 36 228.82c2.27-1.2.25-4.66-2.02-3.45a44 44 0 0 1-8.58 3.48 43 43 0 0 1-4.54 1.05c-1.2.2-2.45.3-3.36-.64-2.09-2.14-.92-5.67-.2-8.13q1.4-4.71 3.12-9.3c2.27-6.16 4.84-12.2 7.23-18.3a359 359 0 0 0 6.7-18.84 121 121 0 0 0 5.25-21.76 2 2 0 0 0-2-2 2.05 2.05 0 0 0-2 2Z" class="c"/><path d="M42.77 151.1c-2.56 6.1-3.42 13.73-1.48 20.12l.2-1.54c-7.61 12-9.7 27.35-6.8 41.16a54 54 0 0 0 4.09 12.02c1.1 2.33 4.56.3 3.45-2.02a53.7 53.7 0 0 1-1.26-41.27 44 44 0 0 1 2.77-5.87c.5-.87 1.48-1.98 1.48-3.01a26 26 0 0 0-.7-3.32 29.4 29.4 0 0 1 2.1-15.2 2 2 0 0 0-1.4-2.47 2.05 2.05 0 0 0-2.45 1.4" class="c"/><path d="M34.82 169.4c-2.7-1.86-4.08-7.9-2.88-12.47 1.11-4.26 2.51-8.15 6.29-10.87 3.44-2.48 7.41-2.5 11.55-1.52l1.72.47c2 .55 3.82 1.56 4.3 3.3a3.53 3.53 0 0 1-2.14 4.3c1.7.94 2.7 2.1 2.5 3.84s-1.12 3-2.73 3.09c1 .63 1 2.33.6 3.38s-1.4 2.75-2.76 2.65c.82.88.31 2.3-.31 3.62a5.7 5.7 0 0 1-3.83 2.52 16.7 16.7 0 0 1-12.3-2.3" class="a"/><path d="M35.83 167.68c-1.06-.78-1.58-2.45-1.9-3.68a14 14 0 0 1-.32-5.3c.47-3.31 1.84-7.14 4.16-9.6 2.97-3.12 7-3.66 11.06-2.73a13 13 0 0 1 4.09 1.38c.92.6 1.65 2.35.2 2.93a2.03 2.03 0 0 0-.47 3.66c.73.42 1.5.86 1.54 1.77.02.45-.2 1.37-.75 1.43-1.5.15-2.93 2.22-1.42 3.41.76.6-.33 2.6-.74 2.62-1.37.04-2.67 1.72-1.72 3 .52.72-.54 2.08-1.25 2.55a8.4 8.4 0 0 1-4.54.9 14.3 14.3 0 0 1-7.94-2.34c-2.14-1.44-4.14 2.02-2.01 3.45a18.4 18.4 0 0 0 12.67 2.7 8.6 8.6 0 0 0 5.64-2.82c1.35-1.66 2.26-4.58.88-6.45l-1.73 3c4-.1 7-6.72 3.57-9.44l-1.41 3.42a5.04 5.04 0 0 0 4.65-4.56c.41-2.75-1.13-4.77-3.42-6.1l-.48 3.66a5.63 5.63 0 0 0 1.32-9.84 14 14 0 0 0-4.69-1.95 20 20 0 0 0-6.67-.78c-8.9.62-14.15 9.39-14.62 17.65-.23 4.07.85 8.97 4.29 11.51a2 2 0 0 0 2.73-.71 2.05 2.05 0 0 0-.72-2.74" class="c"/><path d="M54.19 150.68a37 37 0 0 0-4.63-1.04 50 50 0 0 0-3.07-.45 11 11 0 0 0-2.04-.1 2 2 0 0 0 0 4 11 11 0 0 1 1.98.1l.6.07-.13-.02.35.05q.68.1 1.36.23a37 37 0 0 1 4.52 1.02 2 2 0 0 0 2.46-1.4 2.04 2.04 0 0 0-1.4-2.46m-.81 6.93a34 34 0 0 0-9.62-2.06 2 2 0 0 0-2 2 2.05 2.05 0 0 0 2 2l1.09.1.27.03c.27.04-.4-.06-.12-.01l.56.08q1.23.2 2.44.47a30 30 0 0 1 4.32 1.24 2 2 0 0 0 2.46-1.4 2.06 2.06 0 0 0-1.4-2.46Zm-1.1 6.23a18 18 0 0 0-4.14-1.36 33 33 0 0 0-5.06-.7 2 2 0 0 0-2 2 2.05 2.05 0 0 0 2 2 26 26 0 0 1 1.6.14l.27.03c.28.03-.4-.06-.13-.02q1.14.17 2.26.4a24 24 0 0 1 2.82.8l.23.09c.23.08-.42-.2-.22-.1l.36.17a2 2 0 1 0 2.02-3.45" class="c"/><path d="M93.7 225.99a19 19 0 0 0 3.55-1.38c3.67-1.98 10.9-7.65 12.17-11.1.84-4.1.04-8.1-1.68-12.3a12 12 0 0 0-1.5-2.27 15 15 0 0 0-3.2-2.56 7 7 0 0 0-2.45-1.19 20 20 0 0 0-2.25-.46c-1.78-.11-3.56-.23-5.7-.26-3.16-.06-5.49-.1-6.76.6a2.7 2.7 0 0 0-1.18 1.69 2.4 2.4 0 0 0 .76 2.24 13 13 0 0 0 4.45 2.16l1.52.4c-4.3 1.57-7.52 2.38-11.2 3.57-4.06 1.31-4.05 2.45-4.07 3.79a1.86 1.86 0 0 0 2.2 2.01l-1.43.12c-2.95.18-4.44 1.23-4.35 3.35.09 2.19 2.85 2.39 4.56 2.36l-.08.2a2.65 2.65 0 1 0 .46 5.3l1.5-.01c-1.36.16-1.8.88-1.8 2.14a2.6 2.6 0 0 0 1.25 2.21 10 10 0 0 0 4.64.4c3.68-.29 6.6-.55 10.05-.88z" class="a"/><path d="M91.99 199.23a128 128 0 0 1-8.3 2.75q-1.87.55-3.74 1.15a13 13 0 0 0-3.67 1.6 4.8 4.8 0 0 0-2.12 4.37 3.9 3.9 0 0 0 2.07 3.41c1.38.68 2.88.35 4.33.15a119 119 0 0 0 9.54-1.81 2 2 0 1 0-1.06-3.86c-2.46.54-4.92 1.07-7.4 1.49a49 49 0 0 1-3.54.46c.25-.01-.18.04-.14-.02 0 0 .18.08.17.11 0 0 .03.09-.07-.07 0 .01.18.2.14.21l.02.09-.05-.17q-.06-.3-.02-.08.02.18 0 0c0-.23.04-.45.03-.68 0-.34-.05.49-.02.15.01-.08.14-.5.02-.14s.02-.06.1-.13q-.31.31-.01.03c.13-.13.29-.23.03-.05l.6-.37a33 33 0 0 1 6.1-2.06c2.7-.81 5.4-1.67 8.05-2.67a2.06 2.06 0 0 0 1.4-2.46 2 2 0 0 0-2.46-1.4" class="c"/><path d="M76.93 209.05c-2.12.15-4.45.66-5.66 2.6a4.5 4.5 0 0 0 .84 5.84 8 8 0 0 0 5.13 1.28c1.8-.03 3.6-.18 5.4-.33q3.55-.27 7.09-.7a2.06 2.06 0 0 0 2-2 2 2 0 0 0-2-2 121 121 0 0 1-12.34 1.03 15 15 0 0 1-1.73-.06c.42.04-.11-.02-.2-.04a5 5 0 0 1-.7-.2c.31.13-.04-.02-.16-.08q-.28-.2.01 0l-.11-.11q.21.3.03 0 .13.33.03-.02l.02.15v-.38c0 .41.03-.05.05-.17q.1-.32-.03.02l.17-.27c-.37.33.11-.07.13-.08-.37.23.18-.08.26-.12q.18-.09-.03 0l.4-.12a6 6 0 0 1 1.4-.23 2.05 2.05 0 0 0 2-2 2 2 0 0 0-2-2Z" class="c"/><path d="M90.34 219.3a153 153 0 0 1-12.37.94l-.67.04h-.22q.24.03.03-.01c-.19-.04.13.11-.15-.06l-.1-.07q.15.12-.07-.09c-.17-.31.04.09-.07-.1-.1-.16-.14-.33-.06-.06l-.09-.3.03.22c-.09-.1-.01-.24.02-.34-.07.22.04-.12.1-.2q.1-.17 0 0l.15-.15c-.23.18.23-.14.26-.15-.32.14.36-.05-.07 0a2.06 2.06 0 0 0 2-2 2 2 0 0 0-2-2 4.65 4.65 0 1 0 .58 9.28c4.25-.2 8.47-.48 12.7-.96a2.06 2.06 0 0 0 2-2 2 2 0 0 0-2-2Z" class="c"/><path d="M90.44 199.23c-1.05-.3-2.85-.75-3.57-1.64-.6-.74.36-.94.97-1.04a39 39 0 0 1 8 .03 21 21 0 0 1 3.6.4 10 10 0 0 1 3.66 1.85 9 9 0 0 1 3.38 4.7 18.5 18.5 0 0 1 1.12 8.78 2 2 0 0 1-.27.96 11 11 0 0 1-.68 1.04 20 20 0 0 1-2.1 2.3c-3.02 2.94-6.72 6-10.82 7.28a21 21 0 0 1-4.45.6q-2.61.24-5.22.44c-1.34.1-3.03.44-4.33 0-.56-.19-.4-.24-.5-.83 0-.02-.02.02-.02.02a.5.5 0 0 1-.27.2 3 3 0 0 1 .6-.13 2 2 0 0 0 1.4-2.46 2.05 2.05 0 0 0-2.46-1.4c-3.62.59-4.24 5.3-1.69 7.55 1.38 1.21 3.63 1.27 5.37 1.19 1.95-.1 3.9-.3 5.85-.47a41 41 0 0 0 6.03-.63 18 18 0 0 0 4.72-1.91 45 45 0 0 0 7.01-5.14c1.97-1.72 4.14-3.71 5.25-6.12a12 12 0 0 0 .7-5.66 24 24 0 0 0-1.16-6 14 14 0 0 0-5.28-7.65 13 13 0 0 0-4.77-2.36 30 30 0 0 0-5.54-.58 60 60 0 0 0-6.42-.06 6.7 6.7 0 0 0-4.62 1.62 4.5 4.5 0 0 0-.3 5.86c1.35 1.65 3.76 2.56 5.75 3.13 2.48.7 3.54-3.16 1.06-3.86Z" class="c"/><path d="m124.48 199.18-6.08-9.05a29 29 0 0 1-5.57-13.53 52 52 0 0 1-.42-7.7c.27-5.68 1.52-14.63 3.48-25.77 2.04-10.23 5.64-21.49 12.08-30.46s14.05-15.68 25.86-19.82l4.05-1.4a17 17 0 0 0 10.92 6.8 35 35 0 0 0 14.88-.53 33 33 0 0 0 15.12-8.39c17.88 6.07 30.7 15.08 37.08 31.1 6.84 17.2 6.63 41.04 3.45 59.27-.74 4.24-3.58 11.07-5.64 14.84-2.69 4.93-7.71 10.56-12.9 14.94-3.9 3.3-6.27 6.36-11.43 4.23Zm27.68 222.59c-3.3.97-10.33 2.28-14.06 1.66-7.05-1.16-9.03-4.28-9.77-9.42-.4-2.82 1.65-6.09 3.97-7.9 2.66-2.07 9.3-5.02 12.78-7.25 3.88-2.5 5.46-6.75 12.27-6.8 2.03.05 6.1.84 7.57 5.12a2.46 2.46 0 0 0 3.7 1.23 41 41 0 0 1 7.56-4.17c2.08 1.68 2.76 7.15 2.89 11.18a5.6 5.6 0 0 1-2.77 5.03 35 35 0 0 1-6.9 3.32c-6.79 2.07-10.66 5.92-16.85 7.88z" class="a"/><path d="M188 426.32q-.38.14-.8.26c-3.1.98-8.57 1.85-12.46 1.2-7.05-1.15-10.39-4.61-11.12-9.75-.4-2.82 3-5.75 5.32-7.56 2.66-2.08 7.32-4.44 10.8-6.68 3.87-2.49 5.46-6.75 12.26-6.8 2.03.05 6.1.85 7.57 5.12a2.46 2.46 0 0 0 3.7 1.24 41 41 0 0 1 7.57-4.18c2.08 1.68 2.75 7.16 2.88 11.19a5.6 5.6 0 0 1-2.76 5.03 35 35 0 0 1-6.9 3.31c-6.5 1.99-10.33 5.59-16.06 7.62" class="a"/><path d="M151.63 419.84a46 46 0 0 1-8.72 1.63 16.5 16.5 0 0 1-8.4-1.1 6.6 6.6 0 0 1-3.78-4.58 7 7 0 0 1-.28-3.68 9 9 0 0 1 2.58-4c2.09-1.94 5.02-3.14 7.52-4.45a39 39 0 0 0 7.59-4.64c1.76-1.52 3.3-3.44 5.52-4.32a8.3 8.3 0 0 1 6.67.05 5.4 5.4 0 0 1 2.65 2.95 4.6 4.6 0 0 0 4.2 3.12c1.94.05 3.57-1.45 5.15-2.4a23 23 0 0 1 4.38-2.26l-1.95-.52a6 6 0 0 1 1.5 3.15 28 28 0 0 1 .71 4.87c.1 1.41.3 2.88-.6 4.1-1.05 1.42-3.23 2.21-4.78 2.97-1.74.85-3.6 1.33-5.38 2.05a48 48 0 0 0-4.97 2.4c-3.14 1.72-6.17 3.6-9.61 4.65-2.46.75-1.41 4.61 1.06 3.86 5.37-1.65 9.8-5.16 14.97-7.2 5-1.98 12.69-3.75 13.36-10.18a26 26 0 0 0-.74-7.9c-.42-1.98-1.2-4.8-3.1-5.9-1.12-.66-2.46.11-3.5.6a42 42 0 0 0-3.53 1.96q-.83.5-1.64 1.02c-.28.18-.96.8-1.28.76-.69-.1-.88-1.47-1.16-1.99-2.24-3.97-6.93-5.24-11.18-4.6a13 13 0 0 0-6.08 2.78c-1.42 1.12-2.61 2.51-4.05 3.61-3.76 2.87-8.46 4.41-12.42 7a14 14 0 0 0-5.03 5.53 10.4 10.4 0 0 0-.54 7.29c2.81 11.4 17.3 9.72 25.93 7.22 2.46-.71 1.41-4.57-1.07-3.85m40.28-23.05.16-6.12a2 2 0 0 0-2-2 2.04 2.04 0 0 0-2 2l-.16 6.12a2 2 0 0 0 2 2 2.04 2.04 0 0 0 2-2" class="c"/><path d="M170.27 388.11a24 24 0 0 0 .48 4.12 14 14 0 0 0 .5 1.96 7 7 0 0 0 .92 1.92 2.2 2.2 0 0 0 1.2.92 2 2 0 0 0 1.54-.2 2 2 0 0 0 .92-1.2 2 2 0 0 0-.2-1.54 5 5 0 0 1-.49-.86c.34.69.03.05-.03-.14l-.2-.64a20 20 0 0 1-.52-2.63l.07.54a20 20 0 0 1-.19-2.25 2 2 0 0 0-4 0m-17.2.53q.19.86.3 1.72l-.06-.53q.11.86.17 1.73a2 2 0 0 0 .58 1.42 2 2 0 0 0 2.83 0 2 2 0 0 0 .59-1.42 28 28 0 0 0-.54-3.98 2 2 0 0 0-3.66-.48 2.2 2.2 0 0 0-.2 1.54Zm34.4 35.75c-5.45 1.87-12.45 2.69-17.66-.28a8 8 0 0 1-3.88-4.8 3.6 3.6 0 0 1 .1-3.08 14 14 0 0 1 3.23-3.47c4.64-3.88 10.5-5.9 14.92-10.07 1.7-1.62 3.37-3.01 5.73-3.5a7.2 7.2 0 0 1 5.91 1c1.3.94 1.49 2.23 2.3 3.5a4.5 4.5 0 0 0 4.53 2c1.7-.3 3.21-1.67 4.67-2.53a21 21 0 0 1 4.04-2.06l-1.94-.52c1.83 1.6 2 5.34 2.18 7.66.11 1.39.36 2.9-.38 4.16-.88 1.46-2.9 2.22-4.36 2.96a55 55 0 0 1-5.41 2.13 44 44 0 0 0-4.87 2.25c-3.01 1.61-5.9 3.48-9.12 4.64-2.4.87-1.36 4.74 1.07 3.86 4.99-1.8 9.24-5.1 14.18-6.97a58 58 0 0 0 8.23-3.57c2.5-1.41 4.36-3.3 4.71-6.27a26 26 0 0 0-.58-7.38c-.38-2.08-1-4.4-2.5-5.98-1.82-1.92-4.6.1-6.44 1.15a60 60 0 0 0-3.13 1.9c-.44.3-1.03.96-1.51.46-.37-.39-.51-1.3-.78-1.78a9 9 0 0 0-.95-1.35 9 9 0 0 0-2.52-2.08 11.4 11.4 0 0 0-5.08-1.37 13 13 0 0 0-6.69 1.59 23 23 0 0 0-4.42 3.54c-3.5 3.3-8.11 5.1-12.04 7.82a25 25 0 0 0-5.68 5.15 7.5 7.5 0 0 0-1.4 6.73c2.79 11.38 17.68 11.48 26.6 8.41 2.42-.83 1.38-4.7-1.07-3.85M40.84 221.37l-10.7 65.86-3.04 18.67a2.06 2.06 0 0 0 1.4 2.46 2 2 0 0 0 2.46-1.4l10.7-65.85 3.04-18.68a2.06 2.06 0 0 0-1.4-2.46 2 2 0 0 0-2.46 1.4m153.43-131.4c9.19 2.82 18.43 6.53 25.98 12.61a46.4 46.4 0 0 1 15.1 22.3c3.4 10.58 4.3 21.89 4.07 32.96a143 143 0 0 1-1.32 16.83 54 54 0 0 1-3.93 14.28A49 49 0 0 1 224 203.78c-2.3 2.32-4.78 4.47-7.27 6.58a9 9 0 0 1-3.02 1.88 5.7 5.7 0 0 1-3.83-.46 2 2 0 0 0-2.46 1.4 2.05 2.05 0 0 0 1.4 2.46 9 9 0 0 0 7.87-.36c2.4-1.32 4.47-3.45 6.52-5.25a55 55 0 0 0 12.2-14.47 56 56 0 0 0 5.67-14.44 114 114 0 0 0 2.08-17.07c.76-11.91.24-24.14-2.68-35.75-2.5-9.95-7.14-19.18-14.71-26.23-8.52-7.91-19.45-12.59-30.43-15.95-2.47-.76-3.53 3.1-1.07 3.86Zm-30.7-2.58c-8.43 2.94-17 5.4-24.28 10.75a59 59 0 0 0-16.05 18.18 86 86 0 0 0-9.21 25.88 200 200 0 0 0-3.56 25.4 42 42 0 0 0 .74 11.24 33 33 0 0 0 5.45 12.3c1.46 2.1 4.93.1 3.45-2.01a30 30 0 0 1-4.69-9.78 37 37 0 0 1-1.04-10c.16-7.54 1.63-15.15 2.88-22.56 2.8-16.47 9.01-32.82 22.2-43.76a47 47 0 0 1 10.69-6.58c4.66-2.1 9.65-3.51 14.48-5.2 2.41-.84 1.37-4.7-1.07-3.85Zm-28.06 75.97v24.15c0 2.58 4 2.58 4 0v-24.15c0-2.58-4-2.58-4 0" class="c"/><path d="M210.83 155.94a48 48 0 0 1-3.68 17.32c-2.32 5.19-6.25 9.57-9.77 13.97a2.06 2.06 0 0 0 0 2.83 2 2 0 0 0 2.83 0c3.8-4.75 8.1-9.5 10.55-15.13a54 54 0 0 0 4.07-18.99c.13-2.57-3.87-2.56-4 0m-54.7-63.47c4.98 6.96 13.58 8.94 21.74 8.22a36.3 36.3 0 0 0 22.34-9.94c1.85-1.8-.98-4.63-2.83-2.83a32 32 0 0 1-19.05 8.72c-6.68.68-14.54-.31-18.75-6.19a2.06 2.06 0 0 0-2.73-.72 2 2 0 0 0-.72 2.74" class="c"/><path d="M175.86 204.16H141.4c-.4 0 0 8.03 0 8.03h42.82l-.1-8.03Z" class="a"/><path d="m205.88 388.85.08 4.86c.03.77.04 1.55.13 2.32a6 6 0 0 0 2.38 4.13 2 2 0 0 0 2.74-.72 2.06 2.06 0 0 0-.72-2.73c.4.3-.01-.07-.1-.15l.09.11q-.09-.12-.16-.26l-.08-.13q-.15-.3.01.07a2 2 0 0 1-.15-.44c-.07-.25-.06-.66-.01.12l-.04-.36q-.08-1.19-.1-2.38l-.06-4.44a2 2 0 0 0-4 0Z" class="c"/><path d="M26.56 354.76a52 52 0 0 1-2.71-15 94 94 0 0 1 .6-12.18 4.04 4.04 0 0 1 3.66-3.78c4.75-.2 10.09-.33 15.69-.36l5.35-7.41q4.56-6.8 9.39-13.42l-3.43-7.56s-2.55-5.63-3.47-8.14c-4.27-11.66-2.12-23.7 7.08-33.15a27 27 0 0 1 8.35-5.64V243c14.07-10.07 35.7-11.26 60.82-2.62 7.56 2.6 20.1 10.5 26.07 20.57l4.7 5.53c5.26 12.75 8.07 26.83 3.48 40.29-3.9 11.44-9.56 22.45-15.13 33.16a274 274 0 0 1-18.9 31.06c-4.45 6.32-9.68 13.13-16.27 17.35l-13.16 3.33c-4.25.53-6.54 1.22-11.7 1.04a94 94 0 0 1-15.95-1.58 63.6 63.6 0 0 1-28.94-13.9 51 51 0 0 1-11.45-13.4 49 49 0 0 1-4.08-9.07" class="a"/><path d="m32.95 315.6-4.84.36v7.84c17.5-.74 42.86-.52 60.45 1.99a21 21 0 0 1 6.06 2.24 29 29 0 0 1 6.7 5.05c5.4 5.74 13 14.3 17.96 20.2l4.26-8.61a393 393 0 0 0-16.25-18.29 40 40 0 0 0-6.94-5.8 21 21 0 0 0-6.4-2.54c-18-2.85-43.31-3.2-60.81-2.46Z" class="a"/><path d="M56.8 301.6q-4.53 6.24-8.84 12.64a2 2 0 0 0 .72 2.74 2.05 2.05 0 0 0 2.73-.72q4.3-6.4 8.85-12.64a2 2 0 0 0-.71-2.74 2.06 2.06 0 0 0-2.74.72" class="c"/><path d="M33.14 317.58c12.38-.51 24.8-.46 37.17.18 6.2.32 12.38.8 18.53 1.56a30 30 0 0 1 7.95 1.68 26 26 0 0 1 7.55 5.28c2.86 2.69 5.46 5.71 8.09 8.62q4.05 4.5 7.96 9.11c1.66 1.97 4.48-.87 2.82-2.83a334 334 0 0 0-14.8-16.51c-4.36-4.5-9.44-7.92-15.71-8.83a289 289 0 0 0-38.77-2.57q-10.4-.12-20.79.31c-2.56.11-2.58 4.11 0 4" class="c"/><path d="m158.66 266.48-4.7-5.53c-5.98-10.07-18.51-17.97-26.07-20.57-25.13-8.64-46.75-7.45-60.81 2.63v5.12A37 37 0 0 1 86 245.26c6.04.73 12.42 2.48 16.63 4.74 11.14 5.97 14.43 9.18 22.35 20.27 4.55 6.36 9 17.06 12.35 25.95l4.06 12.32c-7.51 15.23-15.13 30.65-22.1 44.75l-.97-1.14a555 555 0 0 0-17-19.07 29 29 0 0 0-6.7-5.05 21 21 0 0 0-6.06-2.24c-17.59-2.5-42.95-2.73-60.45-1.99a4.04 4.04 0 0 0-3.66 3.78 94 94 0 0 0-.6 12.18 52 52 0 0 0 6.8 24.07 51 51 0 0 0 11.44 13.4 63.6 63.6 0 0 0 28.94 13.9 94 94 0 0 0 15.94 1.58c5.17.18 7.46-.51 11.7-1.04l13.17-3.32c6.59-4.22 11.82-11.04 16.27-17.36a274 274 0 0 0 18.9-31.06c5.57-10.7 11.22-21.72 15.13-33.16 4.6-13.46 1.78-27.53-3.48-40.29l-4.7-5.53" style="fill:#febe69"/><path d="M92.23 409.67c2.57 0 2.58-4 0-4s-2.58 4 0 4m47.03-113.98a207 207 0 0 0-7.02-16.73 81 81 0 0 0-8.34-13.55 57 57 0 0 0-8.6-9.6 64 64 0 0 0-10.97-7.17 50 50 0 0 0-16.91-5.2 39 39 0 0 0-16.35 1.11 31.5 31.5 0 0 0-13.52 7.56 34 34 0 0 0-8.7 14.29 33 33 0 0 0-.12 17.97 77 77 0 0 0 4.65 11.7 2 2 0 0 0 2.74.71 2.05 2.05 0 0 0 .72-2.73c-1.26-2.78-2.56-5.56-3.55-8.44a30 30 0 0 1-1.4-14.64 28.3 28.3 0 0 1 17.86-21.79 35 35 0 0 1 14.73-2.07 46 46 0 0 1 15.84 3.97 59 59 0 0 1 11.04 6.65 46 46 0 0 1 7.7 7.9 80 80 0 0 1 8.98 13.84 183 183 0 0 1 7.36 17.28 2.06 2.06 0 0 0 2.46 1.4 2 2 0 0 0 1.4-2.46M156.73 267c3.3 8.07 5.72 16.64 5.72 25.42 0 9.09-3.27 17.45-6.9 25.65a348 348 0 0 1-12.26 24.6q-6.46 11.95-14.09 23.22c-5.12 7.57-10.57 15.65-18.37 20.72-2.15 1.4-.14 4.86 2.02 3.45 7.16-4.65 12.42-11.55 17.26-18.45a274 274 0 0 0 15.04-24.02c4.56-8.2 8.87-16.59 12.78-25.12 3.88-8.47 7.74-17.27 8.4-26.67.73-10.24-1.89-20.45-5.74-29.86a2.06 2.06 0 0 0-2.46-1.4 2 2 0 0 0-1.4 2.46" class="c"/><path d="M92.23 407.67c12.57-24.82 79.47-160.42 92.02-186.33l8.21 4.07c-12.28 25.34-77.71 157.98-90 182.26" class="a"/><path d="M166.76 408.13c-8.65-18-17.22-40.45-30.86-67.79l-6.12 12.37c12.4 25.39 20.54 46.4 28.71 63.46" class="a"/><path d="M68.08 244.73c9.54-6.77 21.4-8.67 32.88-8a95 95 0 0 1 21.36 3.97 57 57 0 0 1 15.34 6.91c5.7 3.73 11.04 8.47 14.58 14.35 1.32 2.2 4.78.2 3.45-2.02a49 49 0 0 0-13.61-14.13 56 56 0 0 0-15.28-7.9c-13.62-4.48-28.5-6.92-42.73-4.14a46.5 46.5 0 0 0-18 7.5 2.06 2.06 0 0 0-.72 2.74 2 2 0 0 0 2.74.72Zm114.44-24.4q-6.34 13.08-12.78 26.12-10.17 20.7-20.37 41.4l-23.02 46.64q-10.44 21.11-20.9 42.2-6.95 14-13.94 27.98l-1.01 2c-1.16 2.29 2.29 4.32 3.45 2.02q6.45-12.79 12.79-25.62 10.2-20.55 20.37-41.12 11.53-23.32 23.03-46.64 10.46-21.21 20.9-42.44 6.98-14.21 13.93-28.45l1-2.07c1.12-2.3-2.33-4.34-3.45-2.02m8.22 4.07q-6.23 12.84-12.54 25.63-9.92 20.2-19.87 40.36-11.24 22.81-22.5 45.61-10.23 20.7-20.5 41.38-6.8 13.7-13.64 27.39l-.96 1.9c-1.16 2.29 2.28 4.32 3.45 2.02 4.23-8.36 8.38-16.75 12.55-25.14q9.95-20.04 19.86-40.1 11.27-22.79 22.51-45.59 10.26-20.8 20.49-41.6 6.84-13.93 13.64-27.86l.96-1.98c1.12-2.3-2.33-4.33-3.45-2.02" class="c"/><path d="M134.32 341.64c8.97 18.02 16.79 36.54 24.95 54.93q2.78 6.34 5.76 12.57c1.11 2.32 4.56.3 3.45-2.02-7.9-16.5-14.71-33.53-22.39-50.15q-4.03-8.73-8.31-17.35c-1.15-2.3-4.6-.28-3.46 2.02m-5.6 13.44c8.06 16.62 15.2 33.63 22.71 50.5q2.59 5.83 5.34 11.6c1.1 2.32 4.56.3 3.45-2.02-7.3-15.26-13.65-30.96-20.65-46.36q-3.6-7.91-7.4-15.74c-1.12-2.31-4.57-.29-3.45 2.02m-96.95 13.54q-8.44 12.42-16.34 25.19c-1.37 2.19 2.1 4.2 3.45 2.02q7.92-12.76 16.35-25.2c1.45-2.13-2.02-4.13-3.46-2.01m2.83 12.93q-4.66 6.7-8.95 13.62a2 2 0 0 0 3.45 2.02q4.29-6.93 8.95-13.62a2 2 0 0 0-.71-2.74 2.04 2.04 0 0 0-2.74.72m75.32-159.5a266 266 0 0 0-10.48 10.75 2 2 0 0 0 2.83 2.83 266 266 0 0 1 10.47-10.75 2 2 0 1 0-2.82-2.83" class="c"/><path d="M162.61 401.51c-7.19 1.62-10.74 9.05-9.08 16.43 1.86 8.26 8.22 12.8 15.3 11.2 7.36-1.65 10.87-8.47 9.02-16.68-1.66-7.43-8.07-12.56-15.24-10.95m-60.91 3.75c-7.82-1.4-14.44 4.5-15.87 12.53-1.6 8.98 2.83 16.14 10.53 17.5 8 1.43 14.33-3.88 15.92-12.8 1.44-8.08-2.79-15.85-10.58-17.24" class="h"/><path d="M162.08 399.59c-6.48 1.55-10.54 7.34-10.92 13.83-.37 6.26 2.7 13.27 8.33 16.36a14.4 14.4 0 0 0 16.71-2.39c4.52-4.49 5.1-11.78 2.97-17.55-2.61-7.11-9.43-11.87-17.09-10.25-2.52.53-1.45 4.38 1.06 3.85 10.42-2.19 16.87 12.3 11.16 20.07a10.4 10.4 0 0 1-11.63 3.35c-4.47-1.66-7.11-6.65-7.48-11.2-.46-5.52 2.33-10.87 7.95-12.22 2.5-.6 1.45-4.45-1.06-3.85" class="c"/><path d="M164.7 410.77c-2.38.53-3.55 2.99-3 5.42.61 2.73 2.72 4.23 5.06 3.7 2.43-.54 3.59-2.8 2.98-5.5-.56-2.46-2.68-4.16-5.04-3.62" class="a"/><path d="M164.17 408.84a6.2 6.2 0 0 0-4.6 5.9 7.2 7.2 0 0 0 3.42 6.52 6.1 6.1 0 0 0 7.17-1.02 6.9 6.9 0 0 0 1.28-7.13 7 7 0 0 0-2.82-3.58 6 6 0 0 0-4.45-.7 2 2 0 0 0-1.4 2.47 2.05 2.05 0 0 0 2.46 1.4l.12-.03-.16.02.24-.02h.36c.19 0 .2.12-.18-.03.17.07.39.08.57.13.06.02.4.17.09.02s.12.07.17.1l.2.12.1.07q.26.18-.12-.1c.08.13.29.25.4.36l.2.22c.28.3-.2-.3-.06-.07q.2.29.36.58c.02.04.12.32.16.34-.04-.02-.16-.46-.06-.12q.1.3.18.63l.07.33c.07.3-.04-.51 0-.07a7 7 0 0 1 .02.77l-.01.24c-.02.42.09-.38.02-.11l-.12.5-.1.33c-.1.31.05-.14.07-.17a4 4 0 0 0-.32.57c-.2.33.27-.26.08-.1l-.18.2c-.08.1-.1.1-.16.15l-.08.08.14-.11a3 3 0 0 0-.48.28c-.16.1-.21 0 .16-.05l-.4.13a3 3 0 0 0-.52.13l.3-.04-.46.02-.33-.01c-.2 0-.14-.12.2.03l-.63-.17c-.3-.09.15.06.17.08l-.29-.15-.18-.11c-.22-.14-.19-.28.04.05l-.41-.39-.15-.17c-.27-.29.22.35.02.03l-.31-.52-.17-.34c.04 0 .17.47.06.12l-.2-.65-.07-.33c-.1-.5 0 .36 0-.04q-.02-.34-.02-.7l.03-.3-.03.22.04-.18a4 4 0 0 0 .2-.69c.02.22-.17.37-.06.16q.1-.21.23-.41l.12-.2c.22-.33-.28.3-.02.04l.24-.25.13-.11-.17.13a4 4 0 0 0 .6-.36c-.07.14-.38.14-.13.06l.48-.14a2 2 0 0 0 1.4-2.46 2.04 2.04 0 0 0-2.45-1.4m-61.94-5.51a15.6 15.6 0 0 0-16.62 8.8c-3.02 6.17-3 14.26 1.35 19.8a15.3 15.3 0 0 0 17.26 4.6c6.5-2.65 10-9.59 10.32-16.34.36-7.77-4.4-15.35-12.3-16.86-2.52-.48-3.6 3.37-1.07 3.85a11.6 11.6 0 0 1 9.33 10.75c.45 5.07-1.51 11.15-5.98 13.98a11.3 11.3 0 0 1-13.1-1.05c-4.07-3.6-4.67-9.63-3.16-14.61 1.7-5.57 6.84-10.06 12.91-9.07a2.06 2.06 0 0 0 2.46-1.4 2 2 0 0 0-1.4-2.45" class="c"/><path d="M100 414.8c-2.84-.5-5.26 1.64-5.78 4.57-.58 3.27 1.03 5.88 3.84 6.38 2.91.52 5.22-1.42 5.8-4.67.52-2.94-1.02-5.77-3.86-6.28" class="a"/><path d="M100.54 412.88a7 7 0 0 0-4.61.72 7.3 7.3 0 0 0-2.92 3.14 8.3 8.3 0 0 0 .74 8.7 6.8 6.8 0 0 0 7.75 1.88 7.9 7.9 0 0 0 4.45-7.08 7.1 7.1 0 0 0-5.41-7.37 2 2 0 1 0-1.07 3.86q.37.08.72.19c.45.12-.36-.21.05.01l.25.14.3.18c.24.08-.33-.3-.02-.02.14.13.55.4.58.59 0-.01-.27-.4-.07-.07l.2.29a2 2 0 0 1 .28.56c-.11-.5-.04-.07 0 .05l.08.28.1.42c.1.4-.01-.4 0 .06q.04.37.03.75l-.02.3c-.01.52.1-.41 0 .1a6 6 0 0 1-.44 1.5l-.18.31-.22.36c-.07.12-.1.29.07-.07a2 2 0 0 1-.45.5l-.2.18q-.25.2.1-.07l-.21.14-.51.28c-.22.15.46-.14.06-.03l-.25.08-.38.09c-.39.09.13-.04.13-.02a5 5 0 0 1-.83.02c-.45 0 .31.09.03 0l-.34-.06c-.18-.04-.63-.11-.66-.2 0-.01.45.23.11.04l-.35-.19-.22-.14c-.35-.21.27.26 0 0l-.46-.46c-.3-.31.23.38 0 0l-.14-.22-.16-.29-.03-.06q-.14-.3.04.11c-.15-.13-.21-.61-.25-.79l-.06-.28c-.1-.46.01.34 0 .03l-.03-.67q0-.4.04-.79c-.05.51.01-.02.03-.1l.11-.47.1-.3.1-.29q-.17.37-.03.06.17-.33.36-.65l.25-.36c-.35.38 0 .02.06-.04l.26-.26.15-.14q.26-.2-.07.05c.11-.18.48-.3.66-.4l.06-.03q.3-.15-.09.03a2 2 0 0 1 .4-.13l.35-.08q.23-.04-.18.01a4 4 0 0 1 .58-.02c.12 0 .77.1.22 0a2.05 2.05 0 0 0 2.46-1.4 2 2 0 0 0-1.4-2.46" class="c"/><path d="M18.2 401.58c-7.82-1.4-14.44 4.5-15.87 12.53-1.6 8.98 2.83 16.14 10.53 17.51 8 1.42 14.33-3.9 15.92-12.81 1.43-8.08-2.79-15.85-10.58-17.23" class="h"/><path d="M18.73 399.65a15.6 15.6 0 0 0-16.62 8.8c-3.02 6.17-3 14.26 1.35 19.8a15.3 15.3 0 0 0 17.26 4.6c6.5-2.65 10-9.59 10.32-16.34.36-7.77-4.4-15.35-12.3-16.86-2.52-.48-3.6 3.37-1.07 3.85A11.6 11.6 0 0 1 27 414.25c.45 5.07-1.51 11.15-5.98 13.98a11.3 11.3 0 0 1-13.1-1.04c-4.07-3.62-4.67-9.64-3.16-14.62 1.7-5.57 6.84-10.06 12.91-9.07a2.06 2.06 0 0 0 2.46-1.4 2 2 0 0 0-1.4-2.45" class="c"/><path d="M16.5 411.12c-2.84-.5-5.26 1.65-5.78 4.57-.58 3.27 1.03 5.88 3.84 6.38 2.91.52 5.22-1.42 5.8-4.67.52-2.94-1.02-5.77-3.86-6.28" class="a"/><path d="M17.04 409.2a7 7 0 0 0-4.61.72 7.3 7.3 0 0 0-2.92 3.15 8.3 8.3 0 0 0 .74 8.7 6.8 6.8 0 0 0 7.75 1.87 7.9 7.9 0 0 0 4.45-7.08 7.1 7.1 0 0 0-5.41-7.37 2 2 0 1 0-1.07 3.86q.37.08.72.19c.45.12-.36-.21.05.01l.25.14.3.18c.24.08-.33-.3-.02-.02.14.13.55.4.58.59 0-.01-.27-.4-.07-.07l.2.29a2 2 0 0 1 .28.56c-.11-.5-.04-.07 0 .05l.08.28.1.42c.1.4-.01-.4 0 .06q.04.37.03.75l-.02.3c-.01.52.1-.41 0 .1a6 6 0 0 1-.44 1.5l-.18.31-.22.36c-.07.12-.1.29.07-.07a2 2 0 0 1-.45.5l-.2.18q-.25.2.1-.07l-.22.14-.5.28c-.22.15.46-.14.05-.03l-.24.08-.39.09c-.38.1.14-.04.14-.01a5 5 0 0 1-.83 0c-.46 0 .31.1.03.02l-.35-.07c-.12-.03-.62-.11-.65-.2 0 0 .45.23.1.04l-.34-.19-.22-.14c-.35-.21.27.26 0 0l-.46-.45c-.3-.32.23.37 0-.01l-.14-.22-.16-.29-.03-.06q-.14-.3.04.11c-.15-.13-.21-.6-.25-.79l-.06-.28c-.1-.45.02.34 0 .03l-.03-.67q0-.4.04-.79l.14-.57.1-.3.1-.28q-.16.36-.03.05.17-.33.36-.65l.25-.36c-.35.38 0 .02.06-.04l.26-.26.16-.14q.25-.2-.08.05c.12-.18.48-.3.66-.4l.06-.03q.3-.14-.09.03a2 2 0 0 1 .4-.13l.35-.08q.23-.04-.18.02l.58-.03c.12 0 .77.1.22 0a2.05 2.05 0 0 0 2.46-1.4 2 2 0 0 0-1.4-2.46m11.07-83.4c13.19-.55 26.42-.53 39.6.13 6.38.32 12.77.79 19.1 1.62a20 20 0 0 1 7.86 2.84 35 35 0 0 1 7.48 6.52q7.59 8.22 14.84 16.75c1.66 1.97 4.48-.88 2.82-2.83q-6.66-7.86-13.64-15.45a49 49 0 0 0-7.23-6.96 27 27 0 0 0-8.72-4.33 60 60 0 0 0-9.11-1.2q-5.04-.48-10.1-.79-10.43-.6-20.88-.66-11.01-.09-22.02.36c-2.57.1-2.58 4.1 0 4" class="c"/><path d="M28.11 321.8a6 6 0 0 0-4.69 2.77c-1.05 1.7-1.07 3.77-1.23 5.7a72 72 0 0 0-.17 12.43 53 53 0 0 0 7.63 23.35c8.81 14.14 24.37 23.51 40.44 26.92a94 94 0 0 0 16.16 1.71 75 75 0 0 0 12.43-1.01 2.06 2.06 0 0 0 2-2 2 2 0 0 0-2-2 83 83 0 0 1-9.69 1.06 97 97 0 0 1-12.92-.78 63 63 0 0 1-21.65-6.79 59 59 0 0 1-18.18-14.7 47 47 0 0 1-9.27-19.72 53 53 0 0 1-1.1-13q.1-3.16.4-6.28c.1-1.25.12-3.5 1.84-3.66a2.05 2.05 0 0 0 2-2 2 2 0 0 0-2-2" class="c"/><path d="M90.63 260.63c-7.77-.92-15.13 1.71-19.78 8a21 21 0 0 0-2.6 6.06c-1.06 4.13-.04 8.44-.53 12.63-.46 3.93-1.5 7.88.06 11.71 1.96 4.8 6.93 7.08 11.51 8.7a26.4 26.4 0 0 0 11.85 1.08 17 17 0 0 0 11.03-5.77 6 6 0 0 0 2.96.76 7.5 7.5 0 0 0 3.23-1.03 19 19 0 0 0 2.22-1.38 7.3 7.3 0 0 0 2.56-6.9 4.7 4.7 0 0 0-2.89-3.4l.9-1.74c1.84-2.86 2.15-8.77 1.83-12.23a19 19 0 0 0-.76-4.08c-1.95-6.12-8-10.15-14.2-11.78Z" class="a"/><path d="M90.63 258.63a23.7 23.7 0 0 0-17.23 4.55 20.3 20.3 0 0 0-7.65 16.63c.02 1.88.16 3.76.1 5.64-.05 1.85-.38 3.67-.62 5.5-.47 3.58-.38 7.2 1.47 10.4a16 16 0 0 0 6.37 5.87 32 32 0 0 0 8.67 3.25c7.39 1.48 15.84.33 21.25-5.32 1.78-1.86-1.05-4.7-2.83-2.83-4.04 4.22-10.08 5.2-15.68 4.56a26 26 0 0 1-7.8-2.31 15 15 0 0 1-5.84-4.19c-1.82-2.35-2.05-5.2-1.77-8.07a76 76 0 0 0 .76-9.68c-.1-3.15-.16-6.13.88-9.14a15 15 0 0 1 3.96-6.16c4.3-4.05 10.2-5.34 15.96-4.7a2 2 0 0 0 2-2 2.05 2.05 0 0 0-2-2" class="c"/><path d="M108.64 292.77c-.49.07.24.03.33.03q.35.03-.02-.01l.33.07.5.17c-.43-.18.2.15.28.19q.28.2.02-.01.15.1.26.23l.37.38c-.28-.3.15.23.2.32l.16.31q-.12-.3 0 .03l.15.5.03.34a7 7 0 0 1-.04 1.23c.06-.47-.06.27-.08.36l-.2.7c-.02.03-.23.58-.06.2l-.32.64-.38.6c-.23.34.2-.16-.12.14l-.48.48q-.25.23 0 0l-.24.17a16 16 0 0 1-2.2 1.3l-.81.39c.24-.1-.41.14-.48.16s-.62.14-.27.09a4 4 0 0 1-.59.02l-.4-.02c-.5-.03.27.1-.18-.03a5 5 0 0 1-1.3-.48 2 2 0 0 0-2.02 3.46 7.6 7.6 0 0 0 6.01.76 16 16 0 0 0 5.24-2.93c2.89-2.45 4.02-7.7 1.74-10.89a6.6 6.6 0 0 0-6.5-2.75 2 2 0 0 0-1.4 2.46 2.06 2.06 0 0 0 2.46 1.4Z" class="c"/><path d="M97.49 263.18c5.1 1.38 10.48 4.46 12.53 9.6a20 20 0 0 1 1.04 8.35c-.1 2.4-.35 5.1-1.63 7.2-1.35 2.2 2.1 4.21 3.45 2.01 1.62-2.65 2.03-6 2.17-9.04a24 24 0 0 0-1.37-10.06c-2.6-6.28-8.78-10.2-15.13-11.92-2.49-.68-3.55 3.18-1.06 3.85ZM80.73 286.7c.18 1.29-.53 4.06-2.87 3.9-3.05-.53-2.65-3.96-1.37-5.38 1.06-1.17 3.62-1.3 4.24 1.48m14.17 2.37c.18 1.29-.53 4.06-2.88 3.9-3.04-.53-2.65-3.95-1.36-5.38 1.06-1.16 3.62-1.29 4.24 1.48m-16.75 10.58a6.6 6.6 0 0 0 3.99 2.59 7 7 0 0 0 5.12-.4 2 2 0 0 0-2.02-3.46l-.3.15.47-.2a4 4 0 0 1-.92.24l.54-.07a6 6 0 0 1-1.5-.02l.53.07a8 8 0 0 1-1.9-.5l.48.2a5 5 0 0 1-1.09-.64l.4.32a3 3 0 0 1-.57-.55l.32.4-.1-.15a2 2 0 0 0-3.46 2.02Zm9.11-26.79a8 8 0 0 0 1.88 5.06 8 8 0 0 0 3.98 2.61 2 2 0 1 0 1.06-3.85 6 6 0 0 1-.7-.25l.48.2a6 6 0 0 1-1.28-.75l.4.31a7 7 0 0 1-1.17-1.16l.32.4a6 6 0 0 1-.79-1.36l.2.48a6 6 0 0 1-.38-1.46l.07.53-.07-.76a2 2 0 0 0-.59-1.42 2 2 0 0 0-3.4 1.42Z" class="c"/><path d="M60.19 314.27c-1.87.32-4.56.16-5.97-1.28a5.5 5.5 0 0 1-1.34-3 5.6 5.6 0 0 1 .29-2.9 6 6 0 0 1 2.95-2.82 7 7 0 0 1 4.38-.43 7 7 0 0 1 3.65 1.89 4 4 0 0 1 1.12 1.91 4 4 0 0 1-.44 2.75 6.8 6.8 0 0 1-4.64 3.88m38.87 8.01a6 6 0 0 1 3.06-5.02 8.6 8.6 0 0 1 7.92.2c2.38 1.42 4.51 3.45 4.76 6.58a6.15 6.15 0 0 1-5.32 5.64c-3.23.17-4.07-.28-6.52-2.4-1-.86-3.14-1.63-3.6-2.87a5 5 0 0 1-.3-2.13" class="a"/><path d="M79.95 271.55a7.6 7.6 0 0 0 3.3 7.96 2 2 0 0 0 2.74-.72 2.04 2.04 0 0 0-.72-2.73l-.4-.29.4.32a6 6 0 0 1-.91-.93l.31.4a6 6 0 0 1-.74-1.28l.2.48a6 6 0 0 1-.39-1.42l.07.53a6 6 0 0 1 0-1.4l-.07.54q.02-.2.07-.4a2 2 0 0 0-.2-1.54 2 2 0 0 0-3.66.48m-20.3 40.79c-.36.06 0 0 .07 0l-.33.03a10 10 0 0 1-1.38.03l-.36-.03c-.57-.04.38.1-.17-.02l-.6-.13-.34-.1c-.05-.02-.4-.15-.16-.05s-.1-.05-.15-.08l-.29-.16c-.05-.04-.33-.24-.13-.08s-.13-.13-.17-.17c-.25-.24-.13-.13-.06-.04l-.21-.33c-.05-.07-.33-.71-.22-.4a8 8 0 0 1-.22-.77l-.08-.38c-.1-.56-.02.3-.03-.29a7 7 0 0 1 .02-.85l.02-.1.1-.4c.02-.06.14-.39.01-.08l.17-.33.15-.23c.1-.16-.14.13.1-.12q.27-.28.56-.55c.29-.26.13-.1.05-.05l.32-.22a6 6 0 0 1 .65-.37 4 4 0 0 1 .74-.25 5.5 5.5 0 0 1 2.93.11l.35.11c.06.02.41.16.18.06-.17-.07.3.15.39.2q.3.17.58.36l.29.2c-.33-.24.14.13.16.15.1.08.51.5.32.27a3 3 0 0 1 .41.68c-.16-.37.03.4 0 .12l.02.4c.03.37.04-.04 0 .15q-.03.19-.1.38c-.02.09-.15.41-.05.18a8 8 0 0 1-.45.82q-.21.35-.45.67c-.19.25.18-.2-.03.02l-.3.34q-.27.29-.58.55c-.23.2.24-.16-.01.02l-.37.24-.3.17c-.09.04-.55.19-.18.09za2 2 0 0 0-1.4 2.46 2.05 2.05 0 0 0 2.46 1.4 9 9 0 0 0 6.36-6.03c1.07-3.32-1.17-6.33-4.13-7.62a9.2 9.2 0 0 0-9.83 1.34c-2.63 2.27-2.91 6.2-1.3 9.17 1.72 3.19 5.66 3.67 8.9 3.14a2 2 0 0 0 1.4-2.46 2.06 2.06 0 0 0-2.45-1.4m45.4-6.72a37 37 0 0 1 8 7.94 23 23 0 0 1 2.82 4.61 7 7 0 0 1 .58 2.68 4 4 0 0 1-.15 1.18c-.05.18-.18.39-.2.57-.12.68-.67-1.2.94.03l.71.72-.12-.2c-1.28-2.23-4.74-.22-3.45 2.01a2.86 2.86 0 0 0 4.03.97 5.5 5.5 0 0 0 2.07-3.54c.58-2.93-.44-5.79-1.93-8.28a42 42 0 0 0-11.27-12.14 2 2 0 0 0-2.74.71 2.05 2.05 0 0 0 .72 2.74Z" class="c"/><path d="M101.06 322.28c.05-.68-.05.18.02-.22l.1-.43.14-.54s.13-.35.05-.15a4 4 0 0 1 .92-1.4 3 3 0 0 1 1.33-.73 7 7 0 0 1 2-.4 6.3 6.3 0 0 1 3.79 1.01 9 9 0 0 1 2.47 2.23 5 5 0 0 1 .74 1.52l.11.45c.08.34.06.29.05.18a2 2 0 0 1-.04.78l-.19.62a6 6 0 0 1-.48.81c.12-.17-.27.32-.36.4l-.3.3c-.02.01-.49.38-.23.2a4 4 0 0 1-1.23.66c-.16.05-.75.15-.31.1a11 11 0 0 1-1.13.04l-.93-.02c-.1 0-.51-.08-.1 0l-.33-.07-.62-.18c.43.14-.25-.13-.4-.22a7 7 0 0 1-1.37-1.02 15 15 0 0 0-1.88-1.39l-1-.6-.35-.24q-.16-.12 0 0l-.21-.19c-.04-.04-.28-.34-.14-.14.06.09 0-.08-.02-.15a4 4 0 0 1-.1-1.21 2 2 0 0 0-4 0 7 7 0 0 0 .63 3.3 6 6 0 0 0 2.08 2.02c.62.41 1.3.75 1.9 1.2-.4-.3.24.2.26.23l.36.3q.66.55 1.37 1.05a8.9 8.9 0 0 0 9.2.2 8.6 8.6 0 0 0 3.55-4.33 7.3 7.3 0 0 0-.54-5.67 11.6 11.6 0 0 0-9.49-6.18 10 10 0 0 0-6.6 2.02 8.4 8.4 0 0 0-2.73 5.86 2 2 0 0 0 2 2 2.04 2.04 0 0 0 2.01-2" class="c"/><path d="M124.5 220.3a14 14 0 0 1-5.41-4.96 13.3 13.3 0 0 1-2.62-8.02 22 22 0 0 1 .65-5.03 20 20 0 0 1 4.93-7.65c2.03-2.08 4.98-2.77 6.9-3.48a28 28 0 0 1 6.36-.93 13 13 0 0 1 5.83 1.2c3.37 1.5 5.87 4.43 7.86 7.52 1 1.56 1.94 3.5 1.15 5.2h-4.92c-1.08 3.42-.6 5.8.52 8.9a13 13 0 0 1 .37 1.29c.27 2.98-2.3 4.32-4.9 2.38q-.61-.45-1.18-.9c-.77 1.08-4.29 2.63-5.82 2.44a6 6 0 0 1-4.85 2.44 5 5 0 0 1-3.69.13q-.62-.25-1.18-.53m64.32-23.31c-2.92.2-5.86.32-8.15 1.89-1.55 1.06-4.29 4.32-6.06 7.1a15 15 0 0 0-2.2 6.28c-.11 1.96 1.24 4.15 3.2 4.2 1.78.04 2.9-1.52 3.87-3.1-2.5 1.49-1.9 5.73-.18 7.01a3.8 3.8 0 0 0 3.98.32 5 5 0 0 0 1.9-1.93c.4 1.55.49 3.1 1.5 4.27a3.6 3.6 0 0 0 3.04 1.04 3.7 3.7 0 0 0 2.69-1.57l1.94-2.96c-.81 2.23-.79 3.42-.2 5a3.5 3.5 0 0 0 2.13 1.52 4 4 0 0 0 2.39-.44c1.79-1.27 5.24-5.46 6.13-6.6 1.57-2.03 3.91-3.35 5.48-5.38.76-1 2.16-5.05.22-7.8-1.55-2.37-3.15-4.8-5.48-6.4-2.15-1.48-5.54-4.77-9.82-3.75a17 17 0 0 1-6.38 1.3" class="a"/><path d="M182.93 204.96a59 59 0 0 0-3.36 4.5c-.88 1.31-1.59 2.78-2.56 4.02-.6.77-1.43 1.43-2.17.44-.82-1.1-.32-2.66.05-3.83a22.5 22.5 0 0 1 5.6-8.4c2.14-2.18 4.85-2.47 7.88-2.68a32 32 0 0 0 5.16-.63c1.56-.38 2.77-1.15 4.43-.77a11 11 0 0 1 3.89 1.96 28 28 0 0 1 3.3 2.54 23 23 0 0 1 3.17 4.04 5.4 5.4 0 0 1 1.1 3.97c-.4 3.01-3.06 4.36-5.1 6.41-2.07 2.1-3.71 4.57-5.85 6.62q-.33.32-.7.63c-.26.22.06.08-.35.2a1.4 1.4 0 0 1-1.47-.32c-.26-.24-.01-.02.02.05a3 3 0 0 1-.17-.57 3 3 0 0 1-.08-.88 9 9 0 0 1 .73-2.67 2 2 0 0 0-1.4-2.46 2.05 2.05 0 0 0-2.46 1.4 9.3 9.3 0 0 0-.57 5.96 5 5 0 0 0 4.41 3.58c3.72.24 6.25-3.4 8.38-5.93a34 34 0 0 1 3.37-3.74c1.44-1.28 3.2-2.52 4.12-4.27a10.6 10.6 0 0 0 1.17-5.05c-.05-2.33-1.09-4.08-2.38-5.95a27 27 0 0 0-8.74-7.99 11 11 0 0 0-6.01-1.63 12 12 0 0 0-3.01.78 15 15 0 0 1-3.09.59c-4.05.38-8.3.26-11.58 3.04a29 29 0 0 0-4.19 4.75 22 22 0 0 0-3.19 5.62c-.85 2.28-1.31 4.81-.2 7.08a5.14 5.14 0 0 0 5.67 2.97c2.24-.52 3.57-2.53 4.69-4.37a55 55 0 0 1 4.31-6.18 2.06 2.06 0 0 0 0-2.83 2 2 0 0 0-2.83 0Z" class="c"/><path d="M175.98 215.14a7.1 7.1 0 0 0 1.68 6.44 5.8 5.8 0 0 0 6.87.69c1.82-1.13 2.65-3.06 3.68-4.84q.87-1.48 1.86-2.88c.69-.99 1.22-1.67 1.98-2.59a2.05 2.05 0 0 0 0-2.83 2 2 0 0 0-2.82 0 50 50 0 0 0-3.57 4.8q-.75 1.17-1.4 2.4l-.54.98-.29.47c-.03.06-.37.55-.26.4s-.2.23-.24.27c-.06.07-.53.46-.2.22l-.46.28c-.32.19.17 0-.23.08-.06 0-.61.07-.22.05h-.57c.4.03-.13-.03-.22-.06l-.36-.12q.23.1.04 0l-.24-.15.07.06c-.08-.08-.4-.5-.16-.14l-.27-.45c-.25-.45.08.31-.08-.2l-.16-.55c-.02-.09-.08-.59-.05-.24a6 6 0 0 1 .02-1.02 2 2 0 1 0-3.86-1.07" class="c"/><path d="M183.56 220.66c.47 2.2 1.45 4.16 3.63 5.03a5.9 5.9 0 0 0 5.5-.69c1.57-1.14 2.45-3.1 3.47-4.71a23 23 0 0 1 3.2-4.2 2 2 0 0 0-2.82-2.82 49 49 0 0 0-5.61 7.83c-.03.05-.35.53-.2.32.1-.15-.21.22-.26.27-.15.15.23-.11-.08.06-.04.02-.55.29-.15.12l-.52.16c-.05.01-.53.09-.27.06.24-.02-.32-.01-.38 0-.2.02.23.07-.11-.02l-.54-.16c.36.15-.15-.12-.18-.14.23.15.02 0-.08-.1q-.12-.15 0 .02l-.1-.16-.29-.52c.15.34-.07-.23-.07-.25q-.17-.57-.29-1.16a2 2 0 0 0-2.46-1.4 2.05 2.05 0 0 0-1.4 2.46Zm-37.65-14.5h29.95c2.57 0 2.57-4 0-4H145.9c-2.58 0-2.58 4 0 4m1.18 8.03h25.32c2.57 0 2.58-4 0-4h-25.32c-2.57 0-2.58 4 0 4" class="c"/><path d="M134.66 207.66a19 19 0 0 0 2.09 7.15 7.6 7.6 0 0 0 2.22 2.7 10 10 0 0 0 3.13 1.89 4.55 4.55 0 0 0 5.46-2.15 5.6 5.6 0 0 0 .47-3.52c-.18-.95-.6-1.86-.88-2.78a16 16 0 0 1-.43-1.8l-.07-.55q-.03-.4-.03-.8a8 8 0 0 1 .14-1.57 16 16 0 0 1 .58-2.09 2 2 0 0 0-1.4-2.46 2.05 2.05 0 0 0-2.46 1.4 14 14 0 0 0-.77 6.11 18 18 0 0 0 .64 3.03l.46 1.37a6 6 0 0 0 .34 1.09c-.03 0-.03-.56-.03-.25l.01.29c0 .16-.05.53.02.17-.03.18-.12.36-.14.54-.02.2.02-.09.06-.13l-.15.25c.04-.07.3-.3.06-.08l-.15.15c-.1.15.08-.09.13-.1-.06.02-.11.08-.17.1-.21.08.17-.07.16-.07l-.26.08c-.1.03-.25 0-.02.01l-.1-.01-.23-.01c.1 0 .4.1.06 0l-.48-.16c.31.12-.1-.07-.2-.13a8 8 0 0 1-.67-.46 6 6 0 0 1-1.52-1.43 13 13 0 0 1-1.19-2.75 17 17 0 0 1-.47-1.64q-.1-.42-.17-.86c0 .04.03.23 0 0l-.04-.53a2 2 0 0 0-4 0" class="c"/><path d="M152.11 204.62c1.16-3.27-1.08-6.47-2.98-8.95a19 19 0 0 0-6.98-5.96c-4.56-2.07-9.9-1.78-14.57-.19a18 18 0 0 0-7.52 4.25 21.5 21.5 0 0 0-4.87 7.99 18 18 0 0 0-.62 7.55 17.4 17.4 0 0 0 4.08 8.74c1.87 2.3 4.76 4.66 7.82 5.01a8 8 0 0 0 2.6-.18c.91-.21 1.87-.3 2.76-.58a7.8 7.8 0 0 0 4.11-3.03l-1.72.99a9 9 0 0 0 4.32-1.07 7.4 7.4 0 0 0 3.3-2.48c1.41-2.16-2.05-4.17-3.45-2.02.18-.27-.24.18-.4.28a9 9 0 0 1-1.37.73 5 5 0 0 1-2.4.56 2 2 0 0 0-1.72.99 3.8 3.8 0 0 1-2.49 1.39c-1.14.2-2.51.73-3.65.33a11 11 0 0 1-4.63-3.46 13.3 13.3 0 0 1-2.83-12.24 16 16 0 0 1 3.45-6.1 12 12 0 0 1 5.37-3.48c3.26-1.13 6.96-2 10.4-1.19a13 13 0 0 1 6.6 4.08 24 24 0 0 1 2.34 3.04c.77 1.17 1.7 2.5 1.2 3.93-.86 2.43 3 3.48 3.86 1.06Z" class="c"/><path d="M128.65 210.3a28 28 0 0 0 1.59 4.37 13 13 0 0 0 2.4 3.69 2 2 0 1 0 2.83-2.83l-.28-.31-.16-.19c-.18-.22.14.15.13.17a6 6 0 0 0-.53-.77 16 16 0 0 1-.94-1.78l-.19-.42c-.16-.38.14.33.05.1l-.09-.22-.36-.96q-.34-.95-.6-1.91a2 2 0 0 0-3.85 1.06m-6.05 2.17a18 18 0 0 0 1.97 4.48 11 11 0 0 0 3.08 3.42 2 2 0 0 0 2.74-.71 2.05 2.05 0 0 0-.72-2.74c-.15-.1-.4-.36.1.08l-.25-.21a7 7 0 0 1-.88-.94c-.22-.26.32.42 0 0l-.2-.3a16 16 0 0 1-1.57-2.87l.2.48a15 15 0 0 1-.62-1.76 2 2 0 0 0-3.85 1.06Z" class="c"/></svg>
