<svg xmlns="http://www.w3.org/2000/svg" fill="none" viewBox="0 0 24 24"><path fill="currentColor" fill-rule="evenodd" d="M9 1.25c.41 0 .75.34.75.75v1.26l1.5-.01V2a.75.75 0 0 1 1.5 0v1.25l1.5.01V2a.75.75 0 0 1 1.5 0v1.33l.74.07c1.17.16 2.12.5 2.87 1.24.75.75 1.08 1.7 1.24 2.87l.07.74H22a.75.75 0 0 1 0 1.5h-1.26l.01 1.5H22a.75.75 0 0 1 0 1.5h-1.25l-.01 1.5H22a.75.75 0 0 1 0 1.5h-1.33l-.07.74a4.7 4.7 0 0 1-1.24 2.87 4.7 4.7 0 0 1-2.87 1.24l-.74.07V22a.75.75 0 0 1-1.5 0v-1.26l-1.5.01V22a.75.75 0 0 1-1.5 0v-1.25l-1.5-.01V22a.75.75 0 0 1-1.5 0v-1.33l-.74-.07a4.7 4.7 0 0 1-2.87-1.24 4.7 4.7 0 0 1-1.24-2.87l-.07-.74H2a.75.75 0 0 1 0-1.5h1.26l-.01-1.5H2a.75.75 0 0 1 0-1.5h1.25l.01-1.5H2a.75.75 0 0 1 0-1.5h1.33l.07-.74a4.7 4.7 0 0 1 1.24-2.87A4.7 4.7 0 0 1 7.51 3.4l.74-.07V2c0-.41.34-.75.75-.75M7.71 4.89c-1 .14-1.58.39-2 .81-.43.43-.68 1-.82 2.01A36 36 0 0 0 4.75 12c0 1.9 0 3.26.14 4.29.14 1 .39 1.58.81 2 .43.43 1 .69 2.01.82 1.03.14 2.38.14 4.29.14 1.9 0 3.26 0 4.29-.14 1-.13 1.58-.39 2-.81.43-.43.69-1 .82-2.01.14-1.03.14-2.38.14-4.29 0-1.9 0-3.26-.14-4.29-.13-1-.39-1.58-.81-2-.43-.43-1-.68-2.01-.82A36 36 0 0 0 12 4.75a36 36 0 0 0-4.29.14m2.24 1.36h4.1q1-.01 1.7.06c.49.07.96.22 1.34.6s.53.85.6 1.34q.07.7.06 1.7v4.1q.02 1-.06 1.7c-.07.49-.22.96-.6 1.34s-.85.53-1.34.6q-.7.07-1.7.06h-4.1q-1 .02-1.7-.06a2.3 2.3 0 0 1-1.34-.6 2.2 2.2 0 0 1-.6-1.34q-.07-.7-.06-1.7v-4.1q-.01-1 .06-1.7c.07-.49.22-.96.6-1.34s.85-.53 1.34-.6q.7-.07 1.7-.06M8.45 7.8c-.32.04-.42.11-.48.17s-.13.16-.17.48c-.05.35-.05.82-.05 1.55v4c0 .73 0 1.2.05 1.55.04.32.11.42.17.48s.16.13.48.17c.35.05.82.05 1.55.05h4c.73 0 1.2 0 1.55-.05.32-.04.42-.11.48-.17s.13-.16.17-.48c.05-.35.05-.82.05-1.55v-4c0-.73 0-1.2-.05-1.55-.04-.32-.11-.42-.17-.48s-.16-.13-.48-.17c-.35-.05-.82-.05-1.55-.05h-4c-.73 0-1.2 0-1.55.05m4.41 1.59c.34.24.42.7.18 1.05l-.58.81H13a.75.75 0 0 1 .61 1.19l-1.43 2a.75.75 0 1 1-1.22-.88l.58-.81H11a.75.75 0 0 1-.61-1.19l1.43-2a.75.75 0 0 1 1.04-.17" clip-rule="evenodd"/></svg>
