<svg xmlns="http://www.w3.org/2000/svg" fill="none" viewBox="0 0 24 24"><path stroke="currentColor" stroke-width="1.5" fill="none" d="M2 12c0-4.71 0-7.07 1.46-8.54C4.93 2 7.3 2 12 2s7.07 0 8.54 1.46C22 4.93 22 7.3 22 12s0 7.07-1.46 8.54C19.07 22 16.7 22 12 22s-7.07 0-8.54-1.46C2 19.07 2 16.7 2 12Z"/><path stroke="currentColor" stroke-linecap="round" stroke-width="1.5" d="M11 15.67q-.8.32-1.71.33C6.92 16 5 14.2 5 12s1.92-4 4.29-4q.92 0 1.71.33m8 7.34q-.79.32-1.71.33C14.92 16 13 14.2 13 12s1.92-4 4.29-4q.91 0 1.71.33"/></svg>
