<svg xmlns="http://www.w3.org/2000/svg" viewBox="-55.15 0 354.163 354.163"><defs><style>.f{fill:#211715}.h{fill:#f2635f}.i{fill:#3d8dcc}</style></defs><path d="M241.93 260.16v94h-240v-94Z" style="fill:#fedeb3"/><path d="M199.19 334.78h-36.01a5 5 0 0 1-5-5v-12a5 5 0 0 1 5-5h36a5 5 0 0 1 5 5v12a5 5 0 0 1-5 5m-59.25 0h-36.01a5 5 0 0 1-5-5v-12a5 5 0 0 1 5-5h36a5 5 0 0 1 5 5v12a5 5 0 0 1-5 5m-59.25 0H44.68a5 5 0 0 1-5-5v-12a5 5 0 0 1 5-5h36a5 5 0 0 1 5 5v12a5 5 0 0 1-5 5m-28.85-33H14.02a4.37 4.37 0 0 1-4.09-4.6v-12.8a4.4 4.4 0 0 1 4.1-4.6h37.8a4.4 4.4 0 0 1 4.1 4.6v12.8a4.37 4.37 0 0 1-4.09 4.6m177.1 0h-36.01a5 5 0 0 1-5-5v-12a5 5 0 0 1 5-5h36a5 5 0 0 1 5 5v12a5 5 0 0 1-5 5m-59.34 0h-36a5 5 0 0 1-5-5v-12a5 5 0 0 1 5-5h36a5 5 0 0 1 5 5v12a5 5 0 0 1-5 5m-59.33 0h-36a5 5 0 0 1-5-5v-12a5 5 0 0 1 5-5h36a5 5 0 0 1 5 5v12a5 5 0 0 1-4.99 5" style="fill:#f9bfbc"/><path d="M62.68 320.27a3.43 3.43 0 0 0-3.5 3.48 3.4 3.4 0 0 0 3.5 3.54 3.34 3.34 0 0 0 3.5-3.54 3.43 3.43 0 0 0-3.5-3.48m59.25 0a3.43 3.43 0 0 0-3.5 3.48 3.4 3.4 0 0 0 3.5 3.54 3.34 3.34 0 0 0 3.5-3.54 3.43 3.43 0 0 0-3.5-3.48m59.25 0a3.43 3.43 0 0 0-3.5 3.48 3.4 3.4 0 0 0 3.5 3.54 3.34 3.34 0 0 0 3.5-3.54 3.43 3.43 0 0 0-3.5-3.48m29.75-33a3.43 3.43 0 0 0-3.5 3.48 3.4 3.4 0 0 0 3.5 3.54 3.34 3.34 0 0 0 3.5-3.54 3.43 3.43 0 0 0-3.5-3.48m-59.33 0a3.43 3.43 0 0 0-3.5 3.48 3.4 3.4 0 0 0 3.5 3.54 3.34 3.34 0 0 0 3.5-3.54 3.43 3.43 0 0 0-3.5-3.48m-59.33 0a3.43 3.43 0 0 0-3.5 3.48 3.4 3.4 0 0 0 3.5 3.54 3.34 3.34 0 0 0 3.5-3.54 3.43 3.43 0 0 0-3.5-3.48m-59.34 0a3.43 3.43 0 0 0-3.5 3.48 3.4 3.4 0 0 0 3.5 3.54 3.34 3.34 0 0 0 3.5-3.54 3.43 3.43 0 0 0-3.5-3.48" style="fill:#ea918f"/><path d="M241.93 166.16v94h-240v-94Z" style="fill:#fdece1"/><path d="M92.35 199.51a49 49 0 0 1-14.98-1.47c-1.65-.49-3.7-2.3-3.76-4.22a2.57 2.57 0 0 1 2.58-2.88 131 131 0 0 0 16 .9 120 120 0 0 0 16.54-1.94 2.34 2.34 0 0 1 2.65 2.53c.06 1.92-1.64 3.8-4.07 4.84-3.31 1.4-8.62 2.05-14.96 2.24m-26 49.02a49 49 0 0 1-15.05.3c-1.69-.3-3.94-1.85-4.22-3.75a2.57 2.57 0 0 1 2.22-3.17 131 131 0 0 0 15.99-.97 120 120 0 0 0 16.2-3.87 2.34 2.34 0 0 1 2.92 2.2c.29 1.9-1.17 3.97-3.47 5.28-3.11 1.79-8.31 3.05-14.6 3.98m90.48-5.23a49 49 0 0 1-15.04.78c-1.7-.24-4-1.73-4.34-3.62a2.57 2.57 0 0 1 2.13-3.23 131 131 0 0 0 15.95-1.49 121 121 0 0 0 16.07-4.38 2.34 2.34 0 0 1 3 2.11c.34 1.89-1.05 4-3.3 5.38-3.07 1.89-8.23 3.31-14.47 4.45M27.1 231.17a49 49 0 0 1-14.22-4.94c-1.48-.87-3.05-3.11-2.65-4.99a2.58 2.58 0 0 1 3.18-2.2 131 131 0 0 0 15.34 4.64 120 120 0 0 0 16.54 2 2.34 2.34 0 0 1 1.97 3.08c-.39 1.88-2.48 3.31-5.08 3.74-3.55.6-8.86-.03-15.08-1.33m189.1-20.89a49 49 0 0 1-15.05.26c-1.7-.3-3.94-1.87-4.22-3.77a2.58 2.58 0 0 1 2.24-3.16 131 131 0 0 0 15.99-.92 120 120 0 0 0 16.21-3.83 2.34 2.34 0 0 1 2.92 2.21c.28 1.9-1.19 3.97-3.48 5.27-3.13 1.78-8.33 3.03-14.61 3.94m-5.8 36.33a49 49 0 0 1-13.98-5.59c-1.43-.93-2.9-3.24-2.42-5.1a2.57 2.57 0 0 1 3.28-2.05 131 131 0 0 0 15.11 5.33 121 121 0 0 0 16.43 2.75 2.34 2.34 0 0 1 1.84 3.16c-.48 1.86-2.63 3.2-5.25 3.51-3.58.43-8.86-.43-15-2.01M106.4 232.3a49 49 0 0 1-14.28-4.76c-1.49-.84-3.1-3.07-2.72-4.95a2.57 2.57 0 0 1 3.16-2.24 131 131 0 0 0 15.39 4.44 121 121 0 0 0 16.56 1.77 2.34 2.34 0 0 1 2.02 3.06c-.37 1.88-2.44 3.34-5.04 3.81-3.54.64-8.86.09-15.09-1.13m-74.57-40.07a49 49 0 0 1-15.06-.11c-1.68-.34-3.89-1.96-4.12-3.87a2.57 2.57 0 0 1 2.31-3.1 131 131 0 0 0 16.02-.54 120 120 0 0 0 16.3-3.42 2.34 2.34 0 0 1 2.86 2.28c.23 1.9-1.29 3.94-3.61 5.18-3.17 1.7-8.4 2.82-14.7 3.58m121.91-1.37a49 49 0 0 1-15.03-.79c-1.66-.42-3.8-2.14-3.94-4.05a2.58 2.58 0 0 1 2.45-3 131 131 0 0 0 16.01.19 120 120 0 0 0 16.45-2.69 2.34 2.34 0 0 1 2.75 2.41c.15 1.91-1.46 3.87-3.84 5.01-3.24 1.56-8.52 2.44-14.85 2.92" style="fill:#f9cbac"/><path d="M1.93 262.16h240c2.58 0 2.58-4 0-4h-240c-2.57 0-2.58 4 0 4" class="f"/><path d="M155.18 24.15a17.76 17.76 0 0 0-18.11 18c0 10.86 7.56 18.33 18.1 18.33 10.96 0 18.11-7.54 18.11-18.33a17.74 17.74 0 0 0-18.1-18" style="fill:#febe69"/><path d="M153.23 2v8.93a2 2 0 0 0 4 0V2a2 2 0 0 0-4 0m4 80.67v-8.93a2 2 0 1 0-4 0v8.93a2 2 0 0 0 4 0M114.9 44.34h8.93a2 2 0 0 0 0-4h-8.93a2 2 0 0 0 0 4m80.66-4h-8.92a2 2 0 0 0 0 4h8.92a2 2 0 0 0 0-4M182.34 12.4l-6.32 6.31a2 2 0 1 0 2.83 2.83l6.31-6.31a2 2 0 1 0-2.82-2.83m-54.22 59.87 6.32-6.31a2 2 0 1 0-2.83-2.83l-6.31 6.31a2 2 0 0 0 2.83 2.83Zm-2.82-57.04 6.31 6.31a2 2 0 1 0 2.83-2.83l-6.32-6.31a2 2 0 0 0-2.82 2.83m59.86 54.21-6.3-6.31a2 2 0 1 0-2.84 2.83l6.31 6.3a2 2 0 1 0 2.83-2.82m-29.98-47.29a20 20 0 0 0-19.22 13.99c-2.4 7.78-.01 17.07 6.48 22.14a21.7 21.7 0 0 0 23.57 1.42c7.13-4.2 10.18-12.77 9.02-20.74-1.44-9.86-10.06-16.72-19.85-16.81-2.58-.02-2.58 3.98 0 4a15.9 15.9 0 0 1 15.35 11.03c1.92 6.2.28 13.78-4.9 17.95-5.03 4.05-13 4.45-18.6 1.4-5.95-3.23-8.76-10.18-7.8-16.75a16 16 0 0 1 15.95-13.63c2.57-.02 2.57-4.02 0-4" class="f"/><path d="m135.18 204.96-8.85 11.1h2.82l-8.85-11.1a2 2 0 0 0-2.83 0 2.05 2.05 0 0 0 0 2.83l8.86 11.1a2 2 0 0 0 2.82 0l8.86-11.1a2.06 2.06 0 0 0 0-2.83 2 2 0 0 0-2.83 0" class="h"/><path d="M129.74 217.47V98.46c0-2.58-4-2.58-4 0v119.01c0 2.58 4 2.58 4 0" class="h"/><path d="m193.35 140.14-8.86-11.1a2 2 0 0 0-2.83 0l-8.85 11.1a2.06 2.06 0 0 0 0 2.83 2 2 0 0 0 2.83 0l8.85-11.1h-2.83l8.86 11.1a2 2 0 0 0 2.83 0 2.05 2.05 0 0 0 0-2.83" class="i"/><path d="M181.08 130.46v89.01c0 2.58 4 2.58 4 0v-89.01c0-2.58-4-2.58-4 0m-110.03 9.68-8.85-11.1a2 2 0 0 0-2.83 0l-8.85 11.1a2.06 2.06 0 0 0 0 2.83 2 2 0 0 0 2.83 0l8.85-11.1h-2.83l8.85 11.1a2 2 0 0 0 2.83 0 2.05 2.05 0 0 0 0-2.83" class="i"/><path d="M58.78 130.46v89.01c0 2.58 4 2.58 4 0v-89.01c0-2.58-4-2.58-4 0" class="i"/><path d="M72.73 166.83a66 66 0 0 0 20.12-.3 2 2 0 0 0 1.4-2.46 2.05 2.05 0 0 0-2.46-1.4 59 59 0 0 1-17.99.3 2.07 2.07 0 0 0-2.46 1.4 2 2 0 0 0 1.4 2.46Zm26.28-3.78c5.88 3 12.35 4.04 18.88 4.33a2 2 0 1 0 0-4c-5.8-.25-11.63-1.11-16.86-3.78-2.29-1.17-4.31 2.28-2.02 3.46m41.39 3.87a83 83 0 0 0 25.5-.38 2 2 0 0 0 1.4-2.46 2.05 2.05 0 0 0-2.45-1.4 77 77 0 0 1-23.38.38 2.07 2.07 0 0 0-2.46 1.4 2 2 0 0 0 1.4 2.46Zm56.42-.37a369 369 0 0 0 35.34 1.48c2.57 0 2.57-4 0-4-11.8 0-23.6-.34-35.34-1.48a2 2 0 0 0-2 2 2.04 2.04 0 0 0 2 2m-187.64 1.6c12.28 0 24.61.1 36.76-1.95a2 2 0 0 0 1.4-2.46 2.05 2.05 0 0 0-2.47-1.4c-11.77 1.99-23.79 1.81-35.69 1.81-2.57 0-2.57 4 0 4M98.26 57.02l-1.33 5a1.1 1.1 0 0 0 .87 1.34l4.34.7a1.36 1.36 0 0 1 .46 2.51l-3.8 2.2a1.1 1.1 0 0 0-.33 1.57l2.7 3.72a1.29 1.29 0 0 1-1.37 2l-4.44-1.18a1.1 1.1 0 0 0-1.34.87l-.6 3.77a1.56 1.56 0 0 1-2.9.54l-1.91-3.3a1.1 1.1 0 0 0-1.57-.33l-4.19 3.04a1.08 1.08 0 0 1-1.68-1.15l1.34-5a1.1 1.1 0 0 0-.88-1.35l-4.5-.71a1.3 1.3 0 0 1-.44-2.4l3.94-2.3a1.1 1.1 0 0 0 .33-1.56l-3.04-4.2a1.08 1.08 0 0 1 1.15-1.68l5 1.34a1.1 1.1 0 0 0 1.35-.88l.62-3.92a1.5 1.5 0 0 1 2.8-.52l1.99 3.44a1.1 1.1 0 0 0 1.56.33l4.2-3.04a1.08 1.08 0 0 1 1.67 1.15" class="f"/></svg>
