<svg xmlns="http://www.w3.org/2000/svg" fill="none" viewBox="0 0 40 41"><g clip-path="url(#clip0_9067_87815)"><path stroke="currentColor" stroke-width="1.5" fill="none" d="M9 1.05h17.04l8.21 7.53V36.3c0 1.8-1.46 3.25-3.25 3.25H9a3.25 3.25 0 0 1-3.25-3.25v-32c0-1.8 1.46-3.25 3.25-3.25Z"/><mask id="path-2-inside-1_9067_87815" fill="currentColor"><path d="M25 1.3h8.5v8.5H26a1 1 0 0 1-1-1z"/></mask><path fill="currentColor" d="M25 1.3h8.5zm8.5 9.5H26a2 2 0 0 1-2-2h9.5zm-7.5 0a2 2 0 0 1-2-2V1.3h2zm7.5-9.5v8.5z" mask="url(#path-2-inside-1_9067_87815)"/><rect stroke="currentColor" fill="none" width="24" height="13" x="1" y="20.297" rx="2"/><path fill="currentColor" d="M3.37 26.78q0-1.04.45-1.85t1.25-1.27 1.83-.46q1.25 0 2.14.66t1.19 1.8H8.35a1.5 1.5 0 0 0-.6-.67 2 2 0 0 0-.87-.23q-.79 0-1.28.55-.5.54-.5 1.47 0 .91.5 1.47.49.54 1.28.55.5 0 .87-.23.39-.24.6-.67h1.88q-.3 1.14-1.2 1.8-.88.65-2.13.65a4 4 0 0 1-1.83-.45q-.8-.45-1.25-1.27a4 4 0 0 1-.45-1.85m10.45 3.59q-.78 0-1.38-.25-.62-.26-.98-.74a2 2 0 0 1-.38-1.18h1.82a1 1 0 0 0 .27.6q.22.2.6.2.37 0 .6-.17a.6.6 0 0 0 .22-.5.6.6 0 0 0-.18-.42q-.18-.17-.43-.28a7 7 0 0 0-.72-.25 8 8 0 0 1-1.11-.42 2 2 0 0 1-.74-.62q-.31-.41-.31-1.07 0-.99.7-1.53a3 3 0 0 1 1.86-.56q1.16 0 1.87.56.7.54.76 1.54h-1.85a.7.7 0 0 0-.25-.53 1 1 0 0 0-.6-.2q-.3 0-.5.17-.18.15-.18.47 0 .33.32.53.31.19 1 .4.68.23 1.1.45.42.21.74.6.3.4.3 1.04a2 2 0 0 1-.3 1.09q-.3.48-.88.78t-1.37.29m6.15 0q-.77 0-1.38-.25-.6-.26-.98-.74a2 2 0 0 1-.38-1.18h1.82a1 1 0 0 0 .27.6q.23.2.6.2.38 0 .6-.17a.6.6 0 0 0 .22-.5.6.6 0 0 0-.18-.42q-.17-.17-.43-.28a7 7 0 0 0-.72-.25 8 8 0 0 1-1.11-.42 2 2 0 0 1-.74-.62q-.3-.41-.31-1.07 0-.99.7-1.53a3 3 0 0 1 1.86-.56q1.16 0 1.87.56.71.54.76 1.54h-1.85a.7.7 0 0 0-.25-.53 1 1 0 0 0-.6-.2q-.3 0-.5.17-.18.15-.18.47 0 .33.32.53.32.19 1 .4.68.23 1.1.45.43.21.74.6.3.4.3 1.04a2 2 0 0 1-.3 1.09q-.3.48-.88.78t-1.37.29"/></g><defs><clipPath id="clip0_9067_87815"><path fill="currentColor" d="M0 .3h40v40H0z"/></clipPath></defs></svg>
