<svg xmlns="http://www.w3.org/2000/svg" fill="none" viewBox="0 0 40 40"><path stroke="currentColor" stroke-width="1.5" d="M9 .75h17.04l8.21 7.54V36c0 1.8-1.46 3.25-3.25 3.25H9A3.25 3.25 0 0 1 5.75 36V4C5.75 2.2 7.21.75 9 .75Z"/><mask id="path-2-inside-1_csv" fill="currentColor"><path d="M25 1h8.5v8.5H26a1 1 0 0 1-1-1z"/></mask><path fill="currentColor" d="M25 1h8.5zm8.5 9.5H26a2 2 0 0 1-2-2h9.5zm-7.5 0a2 2 0 0 1-2-2V1h2zM33.5 1v8.5z" mask="url(#path-2-inside-1_csv)"/><rect width="25" height="13" x="1" y="20" fill="none" stroke="currentColor" rx="2"/><path fill="currentColor" d="M5.3 22.98q1.11 0 1.94.44.84.44 1.28 1.24.46.8.46 1.83 0 1.04-.46 1.83-.45.8-1.29 1.24-.83.45-1.93.44H2.67v-7.02zm-.1 5.54q.96 0 1.5-.53t.54-1.5-.54-1.51a2 2 0 0 0-1.5-.54h-.82v4.08zm8.06 1.55a4 4 0 0 1-1.82-.46 3.5 3.5 0 0 1-1.8-3.14q0-1.03.49-1.85a3.5 3.5 0 0 1 1.3-1.28 4 4 0 0 1 1.83-.46q.99 0 1.8.46.85.45 1.3 1.28.5.82.49 1.85 0 1.03-.48 1.86-.48.82-1.3 1.28t-1.81.46m0-1.56q.84 0 1.34-.56t.5-1.48a2 2 0 0 0-.5-1.48 1.7 1.7 0 0 0-1.34-.56q-.85 0-1.36.55-.5.55-.5 1.49t.5 1.49q.52.55 1.36.55z"/></svg>
