<svg xmlns="http://www.w3.org/2000/svg" fill="none" viewBox="0 0 24 24"><path stroke="currentColor" stroke-linecap="round" stroke-linejoin="round" stroke-width="1.5" d="m11 8 1.5-1.5v4"/><path stroke="currentColor" stroke-width="1.5" d="m19 5 .95.32c.99.33 1.48.5 1.77.88.28.4.28.92.28 1.96v.07c0 .87 0 1.3-.2 1.65s-.6.56-1.34.98L17.5 12.5M5 5l-.95.32c-.99.33-1.48.5-1.77.88C2 6.6 2 7.12 2 8.16v.07c0 .87 0 1.3.2 1.65s.6.56 1.34.98L6.5 12.5"/><path stroke="currentColor" stroke-linecap="round" stroke-width="1.5" d="M12 16v3"/><path stroke="currentColor" stroke-linecap="round" stroke-linejoin="round" stroke-width="1.5" d="M15.5 22h-7l.34-1.7a1 1 0 0 1 .98-.8h4.36a1 1 0 0 1 .98.8z"/><path stroke="currentColor" stroke-linecap="round" stroke-width="1.5" d="M18 22H6M17 2.46c.74.14 1.18.3 1.56.76.48.59.45 1.22.4 2.49C18.78 10.26 17.76 16 12 16S5.22 10.26 5.04 5.7c-.05-1.26-.08-1.9.4-2.48s1.04-.68 2.18-.87A26 26 0 0 1 14 2.07"/></svg>
