<svg xmlns="http://www.w3.org/2000/svg" fill="none" viewBox="0 0 24 24"><path fill="currentColor" d="M20.92 5.73a.75.75 0 0 0-1.42.48zm-17.13.24.71.24zm.04-.1-.71-.25zM7 18.57l-.74.1zm10 0 .74.1zm-.92 2.93.49.57zM3.48 7.76l.68-.31zm.22.3.52-.54zm16.82-.3.68.32zm-.22.3-.52-.54zm-2.4-4.98a.75.75 0 1 0 .79-1.27zM7.92 21.51l-.49.57zM5.71 2.44l-.4-.63zm-.36.26.48.58zM10 22l-.01.75H10zm4 0v.75h.01zM9.19 2.75h5.62v-1.5H9.2zM4.5 6.21l.04-.11-1.42-.48-.04.11zm14 1.38h-13v1.5h13zm-13.74.86 1.5 10.24 1.48-.22-1.5-10.24zm12.98 10.24 1.5-10.24-1.48-.22-1.5 10.24zm-1.48-.22c-.12.84-.2 1.4-.32 1.8s-.22.57-.35.68l.98 1.13c.44-.38.66-.86.81-1.4q.21-.8.36-2zM3.08 5.73c-.15.46-.3.87-.36 1.2-.07.35-.1.75.08 1.15l1.36-.63c.02.03-.02.01.03-.21.05-.23.15-.54.31-1.03zM5.5 7.6c-.52 0-.85 0-1.08-.03-.22-.03-.23-.07-.2-.04L3.18 8.61c.32.3.71.4 1.06.44q.53.05 1.26.04zm-2.7.49q.15.3.38.53l1.04-1.09-.06-.07zM19.5 6.2c.16.5.26.8.31 1.03s.01.24.03.2l1.36.64c.18-.4.15-.8.08-1.14q-.11-.52-.36-1.2zm-1 2.88q.74.01 1.26-.04c.35-.04.74-.14 1.06-.44l-1.04-1.09c.03-.03.02.01-.2.04-.23.03-.56.03-1.08.03zm1.34-1.64-.06.07 1.04 1.09q.24-.23.38-.53zm-5.03-4.7c.94 0 1.58 0 2.09.05.49.05.77.14 1 .28l.79-1.27a4 4 0 0 0-1.64-.5q-.89-.08-2.24-.06zM6.26 18.69q.15 1.2.36 1.99c.15.54.37 1.02.81 1.4l.98-1.13c-.13-.11-.24-.28-.35-.68s-.2-.96-.32-1.8zM9.19 1.25q-1.34-.02-2.24.06a4 4 0 0 0-1.64.5l.79 1.27a2 2 0 0 1 1-.28c.5-.05 1.15-.05 2.09-.05zM4.54 6.1c.3-.89.5-1.5.7-1.96s.39-.7.6-.86l-.97-1.15a4 4 0 0 0-1 1.4q-.35.81-.75 2.1zm.77-4.3q-.23.14-.44.33l.96 1.15.27-.2zm4.7 19.45c-1.06-.02-1.39-.12-1.6-.3l-.98 1.13c.67.58 1.55.65 2.56.67zm4 1.5c1.01-.02 1.89-.09 2.56-.67l-.98-1.13c-.21.18-.54.28-1.6.3zm-4.01 0h4v-1.5h-4z"/><path stroke="currentColor" stroke-linecap="round" stroke-width="1.5" d="M6.5 12H12m5.5 0H16m-9 5h10"/></svg>
