<svg xmlns="http://www.w3.org/2000/svg" fill="currentColor" viewBox="0 0 32 32"><path d="M26.02 13 24 12.97v-2a2 2 0 0 0-2-2H1.99a2 2 0 0 0-2 2V26a6 6 0 0 0 6 6h12.02a5.97 5.97 0 0 0 5.97-6v-1.03l2.04.01a6 6 0 0 0 0-11.98m-4.03 13c0 2.21-1.77 4-3.97 4H5.99a4 4 0 0 1-4-4V10.99h20.02zm4.03-2.98h-2.03l.01-8.03h2.02c2.28 0 4.02 1.71 4.02 4s-1.74 4.03-4.02 4.03M18 7a1 1 0 0 0 1-1V1a1 1 0 0 0-2 0v5a1 1 0 0 0 1 1M6 7a1 1 0 0 0 1-1V1a1 1 0 0 0-2 0v5a1 1 0 0 0 1 1m6 0a1 1 0 0 0 1-1V1a1 1 0 0 0-2 0v5a1 1 0 0 0 1 1"/></svg>
