<svg xmlns="http://www.w3.org/2000/svg" fill="none" viewBox="0 0 24 24"><path fill="currentColor" fill-rule="evenodd" d="M12.31 4.5a4.2 4.2 0 0 0-3.96 2.96L8.19 8h-.56c-1.24 0-2.38 1.15-2.38 2.75s1.14 2.75 2.38 2.75H17c.89 0 1.75-.84 1.75-2.05S17.89 9.4 17 9.4h-.75v-.75c0-2.32-1.8-4.15-3.94-4.15M7.08 6.54A5.7 5.7 0 0 1 12.3 3c1.65 0 3.12.76 4.11 1.95q.7-.44 1.58-.45a3 3 0 0 1 1.89 5.33q.35.76.36 1.62c0 1.57-.97 3-2.38 3.42L16.34 21H7.66l-1.58-6.35a4.3 4.3 0 0 1-2.33-3.9c0-2.07 1.39-3.91 3.33-4.2m11.9 2.1a1.5 1.5 0 0 0-1.76-2.42q.38.83.5 1.76.71.18 1.26.65M11.25 15h1.5v4.5h-1.5zm3 4.5V15h2.04l-1.13 4.5zM9.75 15H7.71l1.13 4.5h.91z" clip-rule="evenodd"/></svg>
