<svg xmlns="http://www.w3.org/2000/svg" viewBox="0 0 24 24"><g id="surface1"><path d="M22 3.55V7a1 1 0 0 1-1 1h-3.5a1 1 0 0 1-1-1.15c.1-.5.54-.86 1.05-.85h1.15a9 9 0 0 0-15.65 5.1 1 1 0 0 1-1 .9 1 1 0 0 1-1-1.1A11 11 0 0 1 20 4.45V3.5a1 1 0 0 1 1.15-1c.5.1.86.54.85 1.05M2 20.45V17a1 1 0 0 1 1-1h3.5a1 1 0 0 1 1 1.15c-.1.5-.54.86-1.05.85H5.3a9 9 0 0 0 15.65-5.1 1 1 0 0 1 1-.9 1 1 0 0 1 1 1.1A11 11 0 0 1 4 19.55v.95a1 1 0 0 1-1.15 1c-.5-.1-.86-.54-.85-1.05m0 0" style="stroke:none;fill-rule:nonzero;fill:currentColor;fill-opacity:1"/><path d="M12.35 11c-1.75-.35-1.75-.65-1.75-.9s.1-.3.25-.45q.43-.23.9-.2.89 0 1.65.45a.9.9 0 0 0 1.35-.25.95.95 0 0 0-.2-1.4q-.72-.45-1.55-.6V6.5a1 1 0 0 0-2 0v1.1c-1.5.25-2.5 1.25-2.5 2.6s1.65 2.45 3.25 2.75 1.65.65 1.65.9-.55.7-1.25.7a3.3 3.3 0 0 1-2.05-.65q-.35-.23-.76-.15-.42.1-.64.45a1 1 0 0 0-.2.68 1 1 0 0 0 .35.62q.98.68 2.15.9v1.1a1 1 0 0 0 2 0v-1.1q.84-.12 1.5-.65c.64-.47 1-1.21 1-2 0-1.85-1.7-2.45-3.15-2.75m0 0" style="stroke:none;fill-rule:nonzero;fill:currentColor;fill-opacity:1"/></g></svg>
