<svg xmlns="http://www.w3.org/2000/svg" fill="currentColor" viewBox="0 0 32 32"><path d="M30.4 25.42a4.92 4.92 0 0 0-7.71-2.25l-5.06-3.87.26-.2 3.81 2.09a1 1 0 0 0 .48.12 1 1 0 0 0 .88-.52L30 7.93A5.6 5.6 0 0 0 27.79.31l-.34-.19a1 1 0 0 0-.77-.12 1 1 0 0 0-.59.48L17 17.25 16 18l-1-.79L5.9.52A1 1 0 0 0 5.3 0a1 1 0 0 0-.76.08l-.35.23A5.6 5.6 0 0 0 2 7.92l7 12.87a1 1 0 0 0 .6.48h.28a1 1 0 0 0 .48-.12l3.81-2.09.26.2-5 3.87a5 5 0 0 0-1.43-.7 5 5 0 0 0-6.24 6.82 5 5 0 0 0 2.82 2.58 5 5 0 0 0 1.71.31 5 5 0 0 0 4.7-3.3 5 5 0 0 0-.18-3.84l-.2-.34 5.39-4.1 5.38 4.12-.2.34a5 5 0 1 0 9.23.4Zm-3.06-23a3.6 3.6 0 0 1 1.22 1.81 3.6 3.6 0 0 1-.3 2.77l-6.48 12-2.63-1.44ZM10.2 19 3.72 7a3.6 3.6 0 0 1 .92-4.55l8.19 15.1Zm-1.1 9.16a3 3 0 0 1-1.55 1.69 3 3 0 0 1-4.09-3.74A3 3 0 0 1 5 24.41a3 3 0 0 1 1.27-.28 3 3 0 0 1 1 .18 3 3 0 0 1 1.83 3.85M26.73 30a3 3 0 0 1-2.3-.1 3 3 0 0 1 1.27-5.72 3 3 0 0 1 1 5.82Z"/></svg>
