<svg viewBox="0 0 24 24" fill="none" xmlns="http://www.w3.org/2000/svg"><path fill-rule="evenodd" clip-rule="evenodd" d="M2.75 13C2.75 7.89137 6.89137 3.75 12 3.75C17.1086 3.75 21.25 7.89137 21.25 13C21.25 13.4142 21.5858 13.75 22 13.75C22.4142 13.75 22.75 13.4142 22.75 13C22.75 7.06294 17.9371 2.25 12 2.25C6.06294 2.25 1.25 7.06294 1.25 13C1.25 13.4142 1.58579 13.75 2 13.75C2.41421 13.75 2.75 13.4142 2.75 13ZM12 9.25C12.4142 9.25 12.75 9.58579 12.75 10V14.325C14.4617 14.6725 15.75 16.1858 15.75 18C15.75 20.0711 14.0711 21.75 12 21.75C9.92893 21.75 8.25 20.0711 8.25 18C8.25 16.1858 9.53832 14.6725 11.25 14.325V10C11.25 9.58579 11.5858 9.25 12 9.25ZM12 15.75C10.7574 15.75 9.75 16.7574 9.75 18C9.75 19.2426 10.7574 20.25 12 20.25C13.2426 20.25 14.25 19.2426 14.25 18C14.25 16.7574 13.2426 15.75 12 15.75Z" fill="currentColor"/></svg>
