<svg xmlns="http://www.w3.org/2000/svg" fill="none" viewBox="0 0 24 24"><path fill="none" fill-rule="evenodd" d="M8.62 5.94c-.87.43-1.12.9-1.12 1.18 0 .3.25.76 1.12 1.19.83.41 2.02.69 3.38.69s2.55-.28 3.38-.69c.87-.43 1.12-.9 1.12-1.19s-.25-.75-1.12-1.18A8 8 0 0 0 12 5.25c-1.36 0-2.55.28-3.38.69M16.5 9.4l-.45.25c-1.08.54-2.5.85-4.05.85a9 9 0 0 1-4.05-.85L7.5 9.4v.97c0 .35.28.84 1.14 1.29.82.43 2 .71 3.36.71s2.54-.28 3.36-.71c.86-.45 1.14-.94 1.14-1.28zM18 7.12v9.26c0 1.17-.9 2.06-1.94 2.6-1.08.57-2.51.9-4.06.9a9 9 0 0 1-4.06-.9C6.9 18.44 6 17.55 6 16.38V7.12c0-1.16.92-2 1.95-2.52A9 9 0 0 1 12 3.75c1.54 0 2.97.31 4.05.85C17.08 5.1 18 5.96 18 7.13m-10.5 8.6v.65c0 .35.28.84 1.14 1.29.82.43 2 .71 3.36.71s2.54-.28 3.36-.71c.86-.45 1.14-.94 1.14-1.28v-.65q-.21.14-.44.25c-1.08.57-2.51.9-4.06.9a9 9 0 0 1-4.06-.9q-.23-.11-.44-.25M16.06 13q.23-.11.44-.25v.64c0 .35-.28.84-1.14 1.29-.82.43-2 .71-3.36.71a7.5 7.5 0 0 1-3.36-.71c-.86-.45-1.14-.94-1.14-1.28v-.65q.21.14.44.25c1.08.57 2.51.9 4.06.9s2.98-.33 4.06-.9" clip-rule="evenodd"/></svg>
