<svg xmlns="http://www.w3.org/2000/svg" fill="currentColor" style="fill-rule:evenodd;clip-rule:evenodd;stroke-linejoin:round;stroke-miterlimit:2" viewBox="0 0 1069 1069"><path id="Flashdisk-small" d="M.31.14h1066.67v1066.67H.31z" style="fill:none"/><path d="m136.2 616.77 1.61.04h31.25a83.33 83.33 0 0 0 0-166.67h-30.83c-33.66-.1-31.66 25.77-31.67 31.25-.03 104.14 0 104.17 0 104.17a31.25 31.25 0 0 0 29.65 31.2m32.86-62.46a20.83 20.83 0 1 0 0-41.67z" style="fill-opacity:.5"/><path d="M762.81 252.23H221.15c-63.29 0-114.59 51.3-114.59 114.58v333.33q0 6.53.72 12.87c5.5 49.22 42.17 89.02 89.83 99.2l.25.04.34.08.2.03a115 115 0 0 0 21.4 2.35h.36l.41.01h542.74a197.9 197.9 0 0 0 197.92-197.91V450.14a197.9 197.9 0 0 0-197.92-197.91m-211.98 62.5H356.56V679.3a31.26 31.26 0 0 1-62.5 0V314.73h-72.91a52 52 0 0 0-39 17.56l-.18.2-.17.2-.83.97-.27.33-.14.17-.2.25-.19.24a52 52 0 0 0-11.1 32.16v333.34a52.1 52.1 0 0 0 52.08 52.08h329.68a114.6 114.6 0 0 1 110.24-83.34h15.76a52.1 52.1 0 0 0 52.08-52.08V450.14a52.1 52.1 0 0 0-52.08-52.08h-15.76a114.6 114.6 0 0 1-110.24-83.33m68.57 0a52 52 0 0 0 41.67 20.83h15.76c63.28 0 114.58 51.3 114.58 114.58v166.67c0 63.28-51.3 114.58-114.58 114.58h-15.76a52 52 0 0 0-41.67 20.84h143.4a135.4 135.4 0 0 0 128.85-93.75h-34.88a31.26 31.26 0 0 1 0-62.5h41.45v-31.25h-41.67a31.26 31.26 0 0 1 0-62.5h41.67v-31.25h-41.45a31.26 31.26 0 0 1 0-62.5h34.88a135.4 135.4 0 0 0-128.85-93.75zm47.84 247.83a33.1 33.1 0 0 1 33.07 33.07 33.1 33.1 0 0 1-33.07 33.07 33.1 33.1 0 0 1-33.07-33.07 33.1 33.1 0 0 1 33.07-33.07"/></svg>
