<svg viewBox="0 0 20 20" fill="none" xmlns="http://www.w3.org/2000/svg"><path d="M10.0557 1.04199C10.4661 1.04198 10.8149 1.04148 11.1045 1.06739C11.4118 1.09489 11.6982 1.15454 11.9766 1.29883C12.0866 1.35594 12.1926 1.42196 12.292 1.4961C12.5435 1.68369 12.722 1.91595 12.8809 2.18067C13.0305 2.43002 13.1823 2.74385 13.3613 3.11328L13.7715 3.95801H17.5C17.8451 3.95801 18.1248 4.23798 18.125 4.58301C18.125 4.92819 17.8452 5.20801 17.5 5.20801H16.8379L16.5391 10.0439C16.5177 10.3883 16.2213 10.65 15.877 10.6289C15.5325 10.6076 15.2698 10.3113 15.291 9.9668L15.585 5.20801H4.41406L4.87793 12.8994C4.94318 13.9813 4.98962 14.7492 5.08301 15.3438C5.17482 15.9282 5.30346 16.2839 5.49512 16.5596C5.70999 16.8686 5.98756 17.1292 6.30859 17.3252C6.71502 17.5732 7.25797 17.6784 8.35059 17.709C8.69555 17.7186 8.96754 18.0057 8.95801 18.3506C8.94835 18.6956 8.66047 18.9677 8.31543 18.958C7.21055 18.9271 6.36945 18.8264 5.65723 18.3916C5.1879 18.1051 4.78271 17.724 4.46875 17.2725C4.12572 16.779 3.95502 16.2145 3.84863 15.5371C3.74489 14.8765 3.69469 14.0491 3.63184 13.0068L3.16113 5.20801H2.5C2.15482 5.20801 1.875 4.92819 1.875 4.58301C1.87518 4.23798 2.15493 3.95801 2.5 3.95801H6.30859L6.6582 3.19239C6.83281 2.8093 6.98046 2.48409 7.12793 2.22559C7.28445 1.95126 7.46318 1.70996 7.71777 1.51465C7.81811 1.43772 7.9245 1.36893 8.03613 1.30957C8.31933 1.15899 8.61236 1.09701 8.92676 1.06836C9.22317 1.04138 9.58088 1.04198 10.002 1.04199H10.0557ZM16.2246 12.0576C16.4686 11.8138 16.8644 11.8139 17.1084 12.0576C17.3525 12.3017 17.3525 12.6983 17.1084 12.9424L14.6338 15.417L17.1084 17.8916C17.3525 18.1357 17.3525 18.5313 17.1084 18.7754C16.8643 19.0193 16.4686 19.0194 16.2246 18.7754L13.75 16.3008L11.2754 18.7754C11.0313 19.0193 10.6356 19.0184 10.3916 18.7744C10.1477 18.5303 10.1476 18.1347 10.3916 17.8906L12.8662 15.417L10.3916 12.9424C10.1475 12.6983 10.1475 12.3027 10.3916 12.0586C10.6357 11.8146 11.0313 11.8145 11.2754 12.0586L13.75 14.5332L16.2246 12.0576ZM10.0283 2.29199C9.57331 2.292 9.27301 2.29227 9.04004 2.31348C8.8191 2.33363 8.70659 2.36964 8.62305 2.41407C8.57241 2.44101 8.52403 2.47194 8.47852 2.50684C8.40342 2.56445 8.32389 2.65192 8.21387 2.84473C8.0979 3.04799 7.97301 3.3211 7.78418 3.73535L7.68262 3.95801H12.3818L12.248 3.68262C12.0544 3.28317 11.927 3.02 11.8096 2.82422C11.6981 2.63843 11.6183 2.55353 11.5439 2.49805C11.4989 2.46453 11.4512 2.43503 11.4014 2.40918C11.319 2.36647 11.2088 2.33181 10.9932 2.3125C10.7657 2.29216 10.4725 2.29199 10.0283 2.29199Z" fill="currentColor"/></svg>
