<svg xmlns="http://www.w3.org/2000/svg" fill="none" viewBox="0 0 24 24"><path fill="currentColor" d="M7.5 15.26a.75.75 0 0 0 1.45-.4zM6.09 7.27l.72-.2zM4.7 5.92l-.2.72zm-1.5-1.2a.75.75 0 1 0-.4 1.45zm16.99 11a.75.75 0 1 0-.38-1.45zm-10 1.84a2.13 2.13 0 0 1-1.57 2.61L9 21.63a3.63 3.63 0 0 0 2.64-4.47zm-1.57 2.61a2.24 2.24 0 0 1-2.74-1.51l-1.44.4A3.74 3.74 0 0 0 9 21.63zm-2.74-1.51a2.13 2.13 0 0 1 1.58-2.62l-.38-1.45a3.63 3.63 0 0 0-2.64 4.47zm1.58-2.62a2.24 2.24 0 0 1 2.74 1.52l1.44-.4a3.74 3.74 0 0 0-4.56-2.57zm1.5-1.17L6.8 7.07l-1.45.4 2.16 7.8zM4.9 5.2l-1.7-.48-.4 1.45 1.7.47zm1.9 1.87A2.7 2.7 0 0 0 4.9 5.2l-.4 1.44c.43.12.75.44.85.83zm4.3 11.02 9.09-2.36-.38-1.46-9.08 2.36z"/><path stroke="currentColor" stroke-linecap="round" stroke-width="1.5" fill="none" d="M19.16 6.24c-.48-1.76-.72-2.64-1.44-3.04-.7-.4-1.61-.16-3.42.31l-1.92.5c-1.81.47-2.72.7-3.13 1.4-.41.69-.17 1.56.32 3.32l.51 1.86c.48 1.76.73 2.64 1.44 3.04s1.62.16 3.43-.31l1.92-.5c1.8-.47 2.71-.7 3.13-1.4.22-.38.25-.81.15-1.42"/></svg>
