<svg xmlns="http://www.w3.org/2000/svg" fill="none" viewBox="0 0 24 24"><path stroke="currentColor" stroke-linecap="round" stroke-linejoin="round" stroke-width="1.5" d="M21.81 3.94a34 34 0 0 1-8.63 11.65l-1.97 1.58q-.37.28-.78.45 0-.28-.04-.57a4 4 0 0 0-1.16-2.29 4 4 0 0 0-2.36-1.19q-.3-.03-.6-.01.17-.47.49-.84l1.56-1.97c2.58-3.23 7.82-7.11 11.65-8.64a1.4 1.4 0 0 1 1.52.31c.38.37.56.94.32 1.52"/><path stroke="currentColor" stroke-linecap="round" stroke-linejoin="round" stroke-width="1.5" d="M10.43 17.62c0 1.1-.42 2.15-1.21 2.95a4 4 0 0 1-2.43 1.16L4.33 22A2.1 2.1 0 0 1 2 19.65l.27-2.46a4.1 4.1 0 0 1 4.01-3.63q.3-.01.6.01c.85.11 1.68.5 2.36 1.19a4 4 0 0 1 1.16 2.29zm3.81-3.15a4.73 4.73 0 0 0-4.73-4.73"/><path stroke="currentColor" stroke-linecap="round" stroke-width="1.5" d="m20.12 12.73.74.73q2.23 2.23 0 4.45l-2.96 2.96q-2.21 2.2-4.43 0M3.11 10.51q-2.2-2.22 0-4.45L6.07 3.1q2.22-2.2 4.43 0l.74.74m.01.01-3.7 3.7m12.57 5.18-2.96 2.95"/></svg>
