<svg xmlns="http://www.w3.org/2000/svg" fill="none" viewBox="0 0 24 24"><path stroke="currentColor" stroke-linejoin="round" stroke-width="2" d="M3 7c0-1.89 0-2.83.59-3.41C4.17 3 5.1 3 7 3h10c1.89 0 2.83 0 3.41.59C21 4.17 21 5.1 21 7v6c0 1.89 0 2.83-.59 3.41-.58.59-1.52.59-3.41.59H7c-1.89 0-2.83 0-3.41-.59C3 15.83 3 14.9 3 13z"/><path stroke="currentColor" stroke-linecap="round" stroke-linejoin="round" stroke-width="2" d="m13.33 17 1.34 2v0c.57.85-.05 2-1.07 2h-3.2a1.29 1.29 0 0 1-1.07-2v0l1.34-2"/><path stroke="currentColor" stroke-linecap="round" stroke-width="2" d="M3 13h18"/></svg>
