<svg xmlns="http://www.w3.org/2000/svg" fill="none" viewBox="0 0 24 24"><path stroke="currentColor" stroke-linecap="round" stroke-linejoin="round" stroke-miterlimit="10" stroke-width="1.5" d="M20 12.2v1.7c0 3.15-1.8 4.5-4.5 4.5h-9c-2.7 0-4.5-1.35-4.5-4.5V8.5C2 5.35 3.8 4 6.5 4h2.7Q9 4.57 9 5.25v3.9c0 .97.32 1.79.89 2.36s1.39.89 2.36.89v1.39c0 .51.58.82 1.01.54l2.89-1.93h2.6q.68 0 1.25-.2"/><path stroke="currentColor" stroke-linecap="round" stroke-linejoin="round" stroke-miterlimit="10" stroke-width="1.5" d="M22 5.25v3.9c0 1.49-.76 2.61-2 3.05q-.57.2-1.25.2h-2.6l-2.89 1.93a.65.65 0 0 1-1.01-.54V12.4c-.97 0-1.79-.32-2.36-.89A3.3 3.3 0 0 1 9 9.15v-3.9q0-.68.2-1.25c.44-1.24 1.56-2 3.05-2h6.5C20.7 2 22 3.3 22 5.25M7.4 22h7.2M11 18.4V22"/></svg>
