<svg xmlns="http://www.w3.org/2000/svg" fill="none" viewBox="0 0 24 24"><path stroke="currentColor" stroke-linecap="round" stroke-linejoin="round" stroke-width="1.509" d="M15.72 9.69a5.25 5.25 0 1 1-7.44 7.44 5.25 5.25 0 1 1 7.44-7.44M12 13.41 10.41 15"/><path stroke="currentColor" stroke-miterlimit="10" d="M19.07 6.34a.4.4 0 0 1 0 .56.4.4 0 0 1-.56 0c-.16-.15-.15-.4 0-.56a.4.4 0 0 1 .56 0Z"/><path stroke="currentColor" stroke-linecap="round" stroke-linejoin="round" stroke-width="1.5" d="M19.07 6.34a.4.4 0 0 1 0 .56.4.4 0 0 1-.56 0c-.16-.15-.15-.4 0-.56a.4.4 0 0 1 .56 0"/><path stroke="currentColor" stroke-miterlimit="10" d="M5.49 19.92a.4.4 0 0 1 0 .56c-.15.16-.4.15-.56 0a.4.4 0 0 1 0-.56.4.4 0 0 1 .56 0Z"/><path stroke="currentColor" stroke-linecap="round" stroke-linejoin="round" stroke-width="1.5" d="M5.49 19.92a.4.4 0 0 1 0 .56c-.15.16-.4.15-.56 0a.4.4 0 0 1 0-.56.4.4 0 0 1 .56 0"/><path stroke="currentColor" stroke-miterlimit="10" d="M21.88 13.13a.4.4 0 0 1 0 .56.4.4 0 0 1-.56 0c-.16-.15-.15-.4 0-.56a.4.4 0 0 1 .56 0Z"/><path stroke="currentColor" stroke-linecap="round" stroke-linejoin="round" stroke-width="1.5" d="M21.88 13.13a.4.4 0 0 1 0 .56.4.4 0 0 1-.56 0c-.16-.15-.15-.4 0-.56a.4.4 0 0 1 .56 0"/><path stroke="currentColor" stroke-miterlimit="10" d="M2.67 13.13a.4.4 0 0 1 0 .56c-.15.16-.4.15-.56 0a.4.4 0 0 1 0-.56.4.4 0 0 1 .56 0Z"/><path stroke="currentColor" stroke-linecap="round" stroke-linejoin="round" stroke-width="1.5" d="M2.67 13.13a.4.4 0 0 1 0 .56c-.15.16-.4.15-.56 0a.4.4 0 0 1 0-.56.4.4 0 0 1 .56 0"/><path stroke="currentColor" stroke-miterlimit="10" d="M19.07 19.92a.4.4 0 0 1 0 .56.4.4 0 0 1-.56 0c-.16-.15-.15-.4 0-.56a.4.4 0 0 1 .56 0Z"/><path stroke="currentColor" stroke-linecap="round" stroke-linejoin="round" stroke-width="1.5" d="M19.07 19.92a.4.4 0 0 1 0 .56.4.4 0 0 1-.56 0c-.16-.15-.15-.4 0-.56a.4.4 0 0 1 .56 0"/><path stroke="currentColor" stroke-miterlimit="10" d="M5.49 6.34a.4.4 0 0 1 0 .56c-.15.16-.4.15-.56 0a.4.4 0 0 1 0-.56.4.4 0 0 1 .56 0Z"/><path stroke="currentColor" stroke-linecap="round" stroke-linejoin="round" stroke-width="1.5" d="M5.49 6.34a.4.4 0 0 1 0 .56c-.15.16-.4.15-.56 0a.4.4 0 0 1 0-.56.4.4 0 0 1 .56 0"/><path stroke="currentColor" stroke-miterlimit="10" d="M12.28 3.52a.4.4 0 0 1 0 .56c-.15.16-.4.15-.56 0s-.15-.4 0-.56a.4.4 0 0 1 .56 0Z"/><path stroke="currentColor" stroke-linecap="round" stroke-linejoin="round" stroke-width="1.5" d="M12.28 3.52a.4.4 0 0 1 0 .56c-.15.16-.4.15-.56 0s-.15-.4 0-.56a.4.4 0 0 1 .56 0"/></svg>
