<svg xmlns="http://www.w3.org/2000/svg" fill="none" viewBox="0 0 24 24"><path stroke="currentColor" stroke-linejoin="round" stroke-width="2" d="M17 4.6c0-.56 0-.84.1-1.05a1 1 0 0 1 .45-.44C17.76 3 18.04 3 18.6 3h.8c.56 0 .84 0 1.05.1a1 1 0 0 1 .44.45c.11.21.11.49.11 1.05v.8c0 .56 0 .84-.1 1.05a1 1 0 0 1-.45.44c-.21.11-.49.11-1.05.11h-.8c-.56 0-.84 0-1.05-.1a1 1 0 0 1-.44-.45C17 6.24 17 5.96 17 5.4zm-7 0c0-.56 0-.84.1-1.05a1 1 0 0 1 .45-.44C10.76 3 11.04 3 11.6 3h.8c.56 0 .84 0 1.05.1a1 1 0 0 1 .44.45c.11.21.11.49.11 1.05v.8c0 .56 0 .84-.1 1.05a1 1 0 0 1-.45.44c-.21.11-.49.11-1.05.11h-.8c-.56 0-.84 0-1.05-.1a1 1 0 0 1-.44-.45C10 6.24 10 5.96 10 5.4zm-7 0c0-.56 0-.84.1-1.05a1 1 0 0 1 .45-.44C3.76 3 4.04 3 4.6 3h.8c.56 0 .84 0 1.05.1a1 1 0 0 1 .44.45C7 3.76 7 4.04 7 4.6v.8c0 .56 0 .84-.1 1.05a1 1 0 0 1-.45.44C6.24 7 5.96 7 5.4 7h-.8c-.56 0-.84 0-1.05-.1a1 1 0 0 1-.44-.45C3 6.24 3 5.96 3 5.4zm0 7c0-.56 0-.84.1-1.05a1 1 0 0 1 .45-.44C3.76 10 4.04 10 4.6 10h.8c.56 0 .84 0 1.05.1a1 1 0 0 1 .44.45c.11.21.11.49.11 1.05v.8c0 .56 0 .84-.1 1.05a1 1 0 0 1-.45.44c-.21.11-.49.11-1.05.11h-.8c-.56 0-.84 0-1.05-.1a1 1 0 0 1-.44-.45C3 13.24 3 12.96 3 12.4zm7 0c0-.56 0-.84.1-1.05a1 1 0 0 1 .45-.44c.21-.11.49-.11 1.05-.11h.8c.56 0 .84 0 1.05.1a1 1 0 0 1 .44.45c.11.21.11.49.11 1.05v.8c0 .56 0 .84-.1 1.05a1 1 0 0 1-.45.44c-.21.11-.49.11-1.05.11h-.8c-.56 0-.84 0-1.05-.1a1 1 0 0 1-.44-.45c-.11-.21-.11-.49-.11-1.05zm0 7c0-.56 0-.84.1-1.05a1 1 0 0 1 .45-.44c.21-.11.49-.11 1.05-.11h.8c.56 0 .84 0 1.05.1a1 1 0 0 1 .44.45c.11.21.11.49.11 1.05v.8c0 .56 0 .84-.1 1.05a1 1 0 0 1-.45.44c-.21.11-.49.11-1.05.11h-.8c-.56 0-.84 0-1.05-.1a1 1 0 0 1-.44-.45c-.11-.21-.11-.49-.11-1.05zm7-7c0-.56 0-.84.1-1.05a1 1 0 0 1 .45-.44c.21-.11.49-.11 1.05-.11h.8c.56 0 .84 0 1.05.1a1 1 0 0 1 .44.45c.11.21.11.49.11 1.05v.8c0 .56 0 .84-.1 1.05a1 1 0 0 1-.45.44c-.21.11-.49.11-1.05.11h-.8c-.56 0-.84 0-1.05-.1a1 1 0 0 1-.44-.45c-.11-.21-.11-.49-.11-1.05z"/></svg>
