<svg xmlns="http://www.w3.org/2000/svg" fill="none" viewBox="0 0 24 24"><path fill="currentColor" d="m10.87 21.51.64.38zm.26-.44-.65-.38zm-2.26 0 .65-.38zm.26.44-.64.38zM1.25 12.8a.75.75 0 0 0 1.5 0zM3 16.84a.75.75 0 0 0-1.39.58zm3.29 2.75.02-.75zm-1.82-.3-.29.7zm13.23-2.16.69.29zm-4 2.47-.02-.75zm1.82-.3.29.7zM3.91 6.6l-.4-.64zM2.59 7.9l-.64-.4zm5.33 11.91-.39.65zm6.93-12.9a.75.75 0 1 0 .3-1.48zm3.7 1.93a.75.75 0 1 0-1.46.3zm-7.04 13.04.26-.44-1.29-.76-.26.44zm-3.28-.44.26.44 1.29-.76-.26-.44zm2-.32a.3.3 0 0 1-.23.12.3.3 0 0 1-.22-.12l-1.3.76a1.77 1.77 0 0 0 3.03 0zM8.8 6.75h2.4v-1.5H8.8zm8.45 6.05v.8h1.5v-.8zM6.31 18.84a4 4 0 0 1-1.55-.24L4.18 20c.6.25 1.26.32 2.09.34zm-4.7-1.42a4.8 4.8 0 0 0 2.57 2.57l.58-1.39A3.3 3.3 0 0 1 3 16.84zm15.64-3.82c0 .94 0 1.61-.04 2.14-.03.52-.1.84-.2 1.1l1.38.58q.28-.7.32-1.58.05-.87.04-2.24zm-3.52 6.73c.83-.02 1.5-.1 2.09-.34l-.58-1.39c-.33.14-.76.21-1.55.24zM17 16.84c-.33.8-.96 1.43-1.76 1.76l.58 1.39a4.8 4.8 0 0 0 2.57-2.57zM8.8 5.25c-1.3 0-2.32 0-3.14.08s-1.52.24-2.14.62l.78 1.28a3.4 3.4 0 0 1 1.5-.41 35 35 0 0 1 3-.07zM2.75 12.8c0-1.32 0-2.26.07-3 .07-.72.2-1.15.4-1.5l-1.27-.78a5 5 0 0 0-.62 2.14c-.08.82-.08 1.85-.08 3.14zm.77-6.85q-.97.6-1.57 1.57l1.28.78q.4-.66 1.07-1.07zm6 14.74q-.3-.52-.55-.87a2 2 0 0 0-.67-.64l-.77 1.29c.05.03.11.08.23.23q.16.23.47.75zm-3.25-.36q.64.02.94.06.28.03.32.08l.77-1.3q-.45-.23-.9-.27-.46-.05-1.09-.06zm5.5 1.12c.22-.36.35-.59.47-.75q.17-.2.23-.23l-.77-1.3q-.41.27-.67.65-.25.35-.55.87zm1.92-2.61q-.64 0-1.08.06-.47.03-.9.28l.76 1.29a1 1 0 0 1 .32-.08q.3-.04.94-.06zM11.2 6.75c1.8 0 2.87 0 3.65.16l.3-1.47c-.96-.2-2.22-.19-3.95-.19zm7.55 6.05c0-1.73 0-2.99-.2-3.95l-1.46.3c.16.78.16 1.85.16 3.65z"/><path stroke="currentColor" stroke-linecap="round" stroke-width="1.5" d="M7.03 6c.05-1 .19-1.66.52-2.2q.48-.77 1.24-1.25C9.7 2 10.92 2 13.37 2h2.25c1.53 0 2.59 0 3.38.13m-1 12.6a5 5 0 0 0 1.68-.27 3.8 3.8 0 0 0 2.03-2.02c.29-.7.29-1.57.29-3.31v-.75c0-1.53 0-2.59-.13-3.38"/><path stroke="currentColor" stroke-linecap="round" stroke-linejoin="round" stroke-width="2" d="M6.5 13h.02m6.98 0"/></svg>
