<svg xmlns="http://www.w3.org/2000/svg" fill="none" viewBox="0 0 24 24"><path fill="currentColor" d="M10 9a1 1 0 1 1 0 2 1 1 0 0 1 0-2m3 5a1 1 0 1 0 2 0 1 1 0 0 0-2 0m-2.3.7 4-4a1 1 0 1 0-1.4-1.4l-4 4a1 1 0 0 0 1.4 1.4"/><path fill="currentColor" fill-rule="evenodd" d="m16.31 4.07-1.14.28-.61-1a3 3 0 0 0-5.12 0l-.61 1-1.14-.28A3 3 0 0 0 4.07 7.7l.28 1.14-1 .61a3 3 0 0 0 0 5.12l1 .61-.28 1.14a3 3 0 0 0 3.62 3.62l1.14-.28.61 1a3 3 0 0 0 5.12 0l.61-1 1.14.28a3 3 0 0 0 3.62-3.62l-.27-1.14 1-.61a3 3 0 0 0 0-5.12l-1-.61.27-1.14a3 3 0 0 0-3.62-3.62m-5.16.32a1 1 0 0 1 1.7 0l1 1.62a1 1 0 0 0 1.08.45l1.85-.44a1 1 0 0 1 1.2 1.2l-.44 1.85a1 1 0 0 0 .45 1.08l1.62 1a1 1 0 0 1 0 1.7l-1.62 1a1 1 0 0 0-.45 1.08l.44 1.85a1 1 0 0 1-1.2 1.2l-1.85-.44a1 1 0 0 0-1.08.45l-1 1.62a1 1 0 0 1-1.7 0l-1-1.62a1 1 0 0 0-1.08-.45l-1.85.44a1 1 0 0 1-1.2-1.2l.44-1.85A1 1 0 0 0 6 13.85l-1.62-1a1 1 0 0 1 0-1.7l1.62-1a1 1 0 0 0 .45-1.08l-.44-1.85a1 1 0 0 1 1.2-1.2l1.85.44A1 1 0 0 0 10.15 6z" clip-rule="evenodd"/></svg>
