<svg xmlns="http://www.w3.org/2000/svg" fill="currentColor" style="fill-rule:evenodd;clip-rule:evenodd;stroke-linejoin:round;stroke-miterlimit:2" viewBox="0 0 1069 1069"><path id="Disk" d="M1.4.14h1066.67v1066.67H1.4z" style="fill:none"/><path d="M815.98 616.81A114.6 114.6 0 0 0 701.4 502.23H369.89A114.6 114.6 0 0 0 255.3 616.8v333.33c0 17.26 14 31.25 31.25 31.25h498.18a31.25 31.25 0 0 0 31.25-31.25zm-62.5 0v302.08H317.8V616.81a52.1 52.1 0 0 1 52.09-52.08h331.5a52.1 52.1 0 0 1 52.1 52.08M472.23 856.39h125a31.26 31.26 0 0 0 0-62.5h-125a31.26 31.26 0 0 0 0 62.5M253.48 320.2a33.1 33.1 0 0 0 33.07-33.07 33.1 33.1 0 0 0-33.07-33.07 33.1 33.1 0 0 0-33.07 33.07 33.1 33.1 0 0 0 33.07 33.08" style="fill-opacity:.5"/><path d="M631.46 85.56H284.73c-109.3 0-197.92 88.61-197.92 197.92v500a197.9 197.9 0 0 0 197.92 197.91h501.28c108.72-.69 196.64-89.03 196.64-197.91V439.62a198 198 0 0 0-56.68-138.64L772.7 144.83a198 198 0 0 0-82.74-50.43l-.27-.08-.46-.14-.17-.05-.14-.05-.4-.12-.28-.08-.06-.02-.23-.07-.6-.18-.7-.2-.24-.07h-.03l-.2-.07-.43-.12-.22-.06-.18-.05-.35-.1-.26-.08-.1-.02-.32-.1-.5-.13-.53-.15-.43-.11-.04-.01-.18-.05-.4-.1-.27-.08-.2-.05-.32-.08-.24-.07-.13-.03-.39-.1-.42-.1-.33-.1-.65-.16h-.05l-.16-.05-.36-.09-.32-.08-.22-.05-.29-.07-.23-.05-.16-.04-.43-.1-.37-.1-.1-.01-.96-.23-.13-.03-.34-.07-.37-.09-.23-.05-.26-.06-.22-.05-.19-.04-.46-.1-.33-.07-.09-.02-.99-.2-.12-.03-.3-.07-.42-.08-.24-.05-.24-.05-.22-.04-.2-.05-.48-.09-.3-.06-.1-.02-1-.2-.1-.01-.3-.06-.45-.08-.24-.05-.22-.04-.22-.04-.23-.04-.48-.08-.28-.05-.1-.02-1.02-.18-.1-.01-.26-.05-.5-.08-.24-.04-.2-.04-.21-.03-.26-.04-.48-.08-.27-.04-.09-.02-1.05-.16h-.07l-.25-.05-.54-.08-.24-.03-.19-.03-.2-.03-.28-.04-.49-.07-.25-.03-.1-.02-1.05-.14h-.07l-.23-.04-.57-.07-.24-.03-.18-.02-.2-.03-.3-.04-.48-.06-.25-.03h-.09l-1.07-.13h-.06l-.2-.03-.62-.07-.23-.02-.17-.02-.2-.02-.32-.04-.48-.05-.23-.02h-.1q-.54-.07-1.09-.11h-.04l-.18-.03-.66-.06-.23-.02-.16-.01-.2-.02-.34-.03-.46-.04-.23-.02h-.1l-1.1-.09h-.03l-.16-.01-.7-.05-.22-.02-.16-.01-.2-.01-.35-.03-.46-.03-.22-.01h-.1l-1.11-.07h-.03l-.12-.01-.76-.04-.2-.01-.15-.01-.2-.01-.38-.02-.44-.02-.22-.01h-.11l-1.11-.05h-.11l-.81-.03h-.2l-.14-.01h-.2l-.4-.02-.43-.01h-.21l-.12-.01-1.12-.03-.92-.01h-.53l-.41-.01h-.94zm-273.94 62.5h-72.8c-74.78 0-135.4 60.63-135.4 135.42v500a135.4 135.4 0 0 0 135.41 135.41h500.88c74.38-.47 134.54-60.92 134.54-135.41V439.62c0-35.48-13.93-69.54-38.78-94.86L728.09 188.62a135 135 0 0 0-16.14-14.04v29.21c0 63.28-51.3 114.58-114.59 114.58H472.1c-63.29 0-114.59-51.3-114.59-114.58zm62.5 0h212.76l.75.02h.3l.99.02h.05l1 .03.32.01.72.03.33.01.9.04.11.01h.05l.94.05.35.02.68.05.37.02.82.06.17.01h.1l.87.08.38.03.64.06.4.03.76.08.22.02.12.01.84.09.4.04.6.07.41.05.72.09.26.03.14.01.8.11.15.02v54.53a52.1 52.1 0 0 1-52.08 52.08H472.1A52.1 52.1 0 0 1 420 203.8z"/></svg>
