<svg xmlns="http://www.w3.org/2000/svg" fill="currentColor" viewBox="0 0 32 32"><path d="M12.98 0c9.09 0 9.16.38 10.29 1.23.6.45 1.72.76 5.83 1.03.3.02.59.13.78.37.08.1 2.14 3.1 2.14 7.9 0 4.73-1.47 6.9-1.53 7a1 1 0 0 1-.85.46c-3.38 0-8.06 4.32-11.21 11.84-.55 1.3-.66 2.16-2.66 2.16a3.9 3.9 0 0 1-3.04-1.86c-1.3-2.13-.64-6.72-.03-9.17-2.06.02-5.8.05-7.57.05-2.47 0-4.1-1.48-4.16-3.63-.02-.71.08-1.62.28-2.1-.54-.53-1.24-1.35-1.27-2.4-.04-1.37.85-2.4 1.42-3-.13-.4-.4-.91-.37-1.54.06-1.54 1.25-2.54 2-3.06a6 6 0 0 1 .02-1.83C3.6 1 7.2.01 12.98.01zm15.6 4.29c-3.59-.3-5.5-.7-6.51-1.46-.79-.59-.67-.82-9.09-.82-2.57 0-7.59.1-7.97 1.87-.16.7.59 1.4.59 1.4a1 1 0 0 1-.52 1.3s-2 .72-2.05 1.84c-.03.71.46 1.14.47 1.16.3.45.19 1.07-.25 1.38 0 0-1.3.79-1.27 1.86.02.84 1.14 1.44 1.18 1.46a1 1 0 0 1 .3 1.48s-.5.81-.49 1.57C3.01 18.95 4.75 19 5.13 19l9-.02q.54.01.84.44c.3.43.2.63.09.95-.98 2.81-1.52 7.22-.62 8.73.27.45.33.9 1.33.9.14 0 .47-.12.81-.94 3.35-8 8.34-12.62 12.43-13.04.35-.8 1.01-2.47 1.01-5.49 0-3.08-.98-5.47-1.45-6.24z"/></svg>
