<svg xmlns="http://www.w3.org/2000/svg" viewBox="0 0 1024 1024"><path fill="currentColor" d="M688.51 298.46v-6.68c0-103.14-83.6-186.75-186.75-186.75-51.58 0-98.26 20.91-132.05 54.7s-54.7 80.48-54.7 132.05v597.45a61.6 61.6 0 0 0 61.6 61.6h250.3a61.6 61.6 0 0 0 61.6-61.6V529.36a67.4 67.4 0 0 0-45.04-63.54l-138.8-48.71a132.8 132.8 0 0 1-88.82-125.33 85.6 85.6 0 0 1 25.16-60.73 85.6 85.6 0 0 1 60.75-25.17 85.6 85.6 0 0 1 60.73 25.17 85.6 85.6 0 0 1 25.17 60.73v6.68a50.43 50.43 0 1 0 100.85 0"/><path fill="currentColor" d="M600.78 570.33c-54.7-54.69-143.35-54.69-198.04 0-54.7 54.7-54.7 143.36 0 198.05s143.35 54.69 198.04 0 54.68-143.35 0-198.05m-159.9 38.14a86.1 86.1 0 0 1 97.77-16.93l-114.71 114.7a86.1 86.1 0 0 1 16.94-97.77m24 138.7 114.7-114.7a86.13 86.13 0 0 1-114.7 114.7"/><path d="M688.51 803.48a14 14 0 0 0-13.99 14v71.75a47.66 47.66 0 0 1-47.6 47.6H376.6a47.65 47.65 0 0 1-47.59-47.6V291.78a171.6 171.6 0 0 1 50.61-122.14 172 172 0 0 1 54.9-37.03 14 14 0 1 0-10.9-25.8 200 200 0 0 0-63.8 43.02A199.5 199.5 0 0 0 301 291.78v597.45a75.7 75.7 0 0 0 75.6 75.6h250.32a75.7 75.7 0 0 0 75.6-75.6v-71.74c0-7.73-6.28-14.01-14-14.01"/><path d="M638.09 362.9a64 64 0 0 0 45.56-18.87 64 64 0 0 0 18.87-45.57v-6.68c0-110.7-90.05-200.76-200.76-200.76-8.98 0-18 .6-26.82 1.78a14 14 0 1 0 3.71 27.76 176 176 0 0 1 23.11-1.54c95.27 0 172.75 77.5 172.75 172.76v6.68c0 9.73-3.78 18.89-10.67 25.76a36.2 36.2 0 0 1-25.76 10.67 36.45 36.45 0 0 1-36.41-36.43v-6.68a99.2 99.2 0 0 0-29.27-70.63c-18.85-18.88-43.94-29.28-70.64-29.28s-51.8 10.4-70.63 29.27a99.2 99.2 0 0 0-29.28 70.64 147 147 0 0 0 98.2 138.54l138.78 48.72a53.4 53.4 0 0 1 35.69 50.32v240.52a14 14 0 0 0 28 0V529.36a81.5 81.5 0 0 0-54.42-76.75l-138.79-48.72a118.9 118.9 0 0 1-79.45-112.12 71.4 71.4 0 0 1 21.08-50.85 71.3 71.3 0 0 1 50.83-21.06 71.3 71.3 0 0 1 50.84 21.08 71.4 71.4 0 0 1 21.07 50.83v6.68a64.5 64.5 0 0 0 64.4 64.46"/><path d="M365.89 706.15a14 14 0 0 0-8.1 18.07 153 153 0 0 0 35.05 54.05c29.1 29.1 67.78 45.13 108.93 45.13s79.83-16.02 108.93-45.13a153 153 0 0 0 45.12-108.92 153 153 0 0 0-45.12-108.93c-29.1-29.09-67.78-45.1-108.93-45.1s-79.84 16.02-108.93 45.1a154 154 0 0 0-44.8 99.18 14 14 0 0 0 27.95 1.77 126 126 0 0 1 36.66-81.13 125.2 125.2 0 0 1 89.12-36.92 125.2 125.2 0 0 1 89.12 36.92c23.8 23.8 36.91 55.46 36.91 89.13s-13.1 65.3-36.9 89.12a125.3 125.3 0 0 1-89.13 36.9 125.2 125.2 0 0 1-89.12-36.9 125 125 0 0 1-28.68-44.22 14 14 0 0 0-18.08-8.12"/><path d="M451.07 749.56c.78 4.5 3.69 8.31 7.8 10.26a100.25 100.25 0 0 0 113.68-19.68 100.35 100.35 0 0 0 19.69-113.67 14.03 14.03 0 0 0-22.57-3.91l-114.7 114.7a14 14 0 0 0-3.9 12.3m122-90.8a72.3 72.3 0 0 1-20.31 61.57 72.3 72.3 0 0 1-61.58 20.33zm-28.43-79.88a100.3 100.3 0 0 0-113.67 19.67 100.3 100.3 0 0 0-19.69 113.69 14 14 0 0 0 12.66 8 14 14 0 0 0 9.9-4.09l114.72-114.72a14.03 14.03 0 0 0-3.92-22.55m-114.2 101.06a72.3 72.3 0 0 1 20.34-61.57 72.2 72.2 0 0 1 61.56-20.33z"/></svg>
