<svg xmlns="http://www.w3.org/2000/svg" fill="none" viewBox="0 0 24 24"><path stroke="currentColor" stroke-linejoin="round" stroke-width="2" d="M19.69 5.7c.64.58.97.88 1.14 1.26.17.4.17.83.17 1.7V13c0 1.89 0 2.83-.59 3.41-.58.59-1.52.59-3.41.59h-4c-1.89 0-2.83 0-3.41-.59C9 15.83 9 14.9 9 13V7c0-1.89 0-2.83.59-3.41C10.17 3 11.1 3 13 3h2.17c.76 0 1.14 0 1.5.13.34.14.62.4 1.19.9z"/><path stroke="currentColor" stroke-linejoin="round" stroke-width="2" d="M9 7H7c-1.89 0-2.83 0-3.41.59C3 8.17 3 9.1 3 11v6c0 1.89 0 2.83.59 3.41C4.17 21 5.1 21 7 21h4c1.89 0 2.83 0 3.41-.59.59-.58.59-1.52.59-3.41"/></svg>
