<svg xmlns="http://www.w3.org/2000/svg" fill="none" viewBox="0 0 24 24"><path fill="currentColor" fill-rule="evenodd" d="M10.95 1.25h2.1c1.37 0 2.47 0 3.34.12.9.12 1.66.38 2.26.98q.44.45.67 1a3.8 3.8 0 0 1 2.33 1c.6.6.86 1.36.98 2.26.12.87.12 1.97.12 3.34v4.1c0 1.37 0 2.47-.12 3.34-.12.9-.38 1.66-.98 2.26a3.8 3.8 0 0 1-2.33 1q-.23.55-.67 1c-.6.6-1.36.86-2.26.98-.87.12-1.97.12-3.34.12h-2.1c-1.37 0-2.47 0-3.34-.12a3.7 3.7 0 0 1-2.26-.98q-.44-.45-.67-1a3.8 3.8 0 0 1-2.33-1c-.6-.6-.86-1.36-.98-2.26-.12-.87-.12-1.97-.12-3.34v-4.1c0-1.37 0-2.47.12-3.34.12-.9.38-1.66.98-2.26a3.8 3.8 0 0 1 2.33-1q.23-.55.67-1c.6-.6 1.36-.86 2.26-.98.87-.12 1.97-.12 3.34-.12M4.33 4.94c-.44.1-.71.26-.92.47-.28.28-.46.66-.56 1.4-.1.75-.1 1.75-.1 3.19v4c0 1.44 0 2.44.1 3.2.1.73.28 1.11.56 1.4.2.2.48.35.92.46a34 34 0 0 1-.08-3V7.94c0-1.2 0-2.2.08-3.01m15.34 14.12c.44-.1.71-.26.92-.47.28-.28.46-.66.56-1.4.1-.75.1-1.75.1-3.19v-4c0-1.44 0-2.44-.1-3.2-.1-.73-.28-1.11-.56-1.4q-.28-.3-.92-.46.1 1.2.08 3v8.11q.02 1.8-.08 3.01M7.81 2.86c-.74.1-1.12.27-1.4.55s-.46.66-.56 1.4c-.1.75-.1 1.75-.1 3.19v8c0 1.44 0 2.44.1 3.2.1.73.28 1.11.56 1.4.28.27.66.45 1.4.55.75.1 1.75.1 3.19.1h2c1.44 0 2.44 0 3.2-.1.73-.1 1.11-.28 1.4-.56.27-.28.45-.66.55-1.4.1-.75.1-1.75.1-3.19V8c0-1.44 0-2.44-.1-3.2-.1-.73-.28-1.11-.56-1.4-.28-.27-.66-.45-1.4-.55-.75-.1-1.75-.1-3.19-.1h-2c-1.44 0-2.44 0-3.2.1M8.25 9c0-.41.34-.75.75-.75h6a.75.75 0 0 1 0 1.5H9A.75.75 0 0 1 8.25 9m0 4c0-.41.34-.75.75-.75h6a.75.75 0 0 1 0 1.5H9a.75.75 0 0 1-.75-.75m0 4c0-.41.34-.75.75-.75h3a.75.75 0 0 1 0 1.5H9a.75.75 0 0 1-.75-.75" clip-rule="evenodd"/></svg>
