<svg xmlns="http://www.w3.org/2000/svg" fill="none" viewBox="0 0 24 24"><path stroke="currentColor" stroke-linecap="round" stroke-linejoin="round" stroke-width="2" d="M12 11v5m2.5-2.5h-5"/><path stroke="currentColor" stroke-linejoin="round" stroke-width="2" d="M17.83 6.83c.58.58.87.87 1.02 1.23.15.37.15.78.15 1.6V17c0 1.89 0 2.83-.59 3.41-.58.59-1.52.59-3.41.59H9c-1.89 0-2.83 0-3.41-.59C5 19.83 5 18.9 5 17V7c0-1.89 0-2.83.59-3.41C6.17 3 7.1 3 9 3h3.34c.82 0 1.23 0 1.6.15.36.15.65.44 1.23 1.02z"/></svg>
