<svg xmlns="http://www.w3.org/2000/svg" fill="none" viewBox="0 0 24 24"><path stroke="currentColor" stroke-width="1.5" d="M5 8c0-2.83 0-4.24.88-5.12S8.18 2 11 2h2c2.83 0 4.24 0 5.12.88S19 5.18 19 8v8c0 2.83 0 4.24-.88 5.12S15.82 22 13 22h-2c-2.83 0-4.24 0-5.12-.88S5 18.82 5 16zm0-3.92c-.98.1-1.63.3-2.12.8C2 5.76 2 7.18 2 10v4c0 2.83 0 4.24.88 5.12.49.5 1.14.7 2.12.8M19 4.08c.98.1 1.63.3 2.12.8.88.88.88 2.3.88 5.12v4c0 2.83 0 4.24-.88 5.12-.49.5-1.14.7-2.12.8"/><path stroke="currentColor" stroke-linecap="round" stroke-width="1.5" d="M9 13h6M9 9h6m-6 8h3"/></svg>
