<svg xmlns="http://www.w3.org/2000/svg" fill="none" viewBox="0 0 24 24"><path fill="currentColor" fill-rule="evenodd" d="M10.94 1.25h2.12c1.83 0 3.29 0 4.43.15 1.17.16 2.12.5 2.87 1.24.75.75 1.08 1.7 1.24 2.87.15 1.14.15 2.6.15 4.43v4.12c0 1.83 0 3.29-.15 4.43a4.7 4.7 0 0 1-1.24 2.87 4.7 4.7 0 0 1-2.87 1.24c-1.14.15-2.6.15-4.43.15h-2.12c-1.83 0-3.29 0-4.43-.15a4.7 4.7 0 0 1-2.87-1.24 4.7 4.7 0 0 1-1.24-2.87c-.15-1.14-.15-2.6-.15-4.43V9.94c0-1.83 0-3.29.15-4.43a4.7 4.7 0 0 1 1.24-2.87A4.7 4.7 0 0 1 6.51 1.4c1.14-.15 2.6-.15 4.43-.15M6.71 2.89c-1 .14-1.58.39-2 .81-.43.43-.68 1-.82 2.01A36 36 0 0 0 3.75 10v4c0 1.9 0 3.26.14 4.29.14 1 .39 1.58.81 2 .43.43 1 .69 2.01.82 1.03.14 2.38.14 4.29.14h2c1.9 0 3.26 0 4.29-.14 1-.13 1.58-.39 2-.81.43-.43.69-1 .82-2.01.14-1.03.14-2.38.14-4.29v-4c0-1.9 0-3.26-.14-4.29-.13-1-.39-1.58-.81-2-.43-.43-1-.68-2.01-.82A36 36 0 0 0 13 2.75h-2a36 36 0 0 0-4.29.14M12 5.25c.41 0 .75.34.75.75v1.25H14a.75.75 0 0 1 0 1.5h-1.25V10a.75.75 0 0 1-1.5 0V8.75H10a.75.75 0 1 1 0-1.5h1.25V6c0-.41.34-.75.75-.75M7.25 14c0-.41.34-.75.75-.75h8a.75.75 0 0 1 0 1.5H8a.75.75 0 0 1-.75-.75m1 4c0-.41.34-.75.75-.75h6a.75.75 0 0 1 0 1.5H9a.75.75 0 0 1-.75-.75" clip-rule="evenodd"/></svg>
