<svg xmlns="http://www.w3.org/2000/svg" fill="none" viewBox="0 0 24 24"><path stroke="currentColor" stroke-width="1.5" d="m18.18 8.04.46-.46a1.97 1.97 0 1 1 2.78 2.78l-.46.46m-2.78-2.78s.06.98.93 1.85 1.85.93 1.85.93m-2.78-2.78-4.26 4.26c-.29.29-.43.43-.56.6q-.22.27-.37.6c-.09.18-.15.37-.28.76l-.42 1.24-.13.4m8.8-5.08-4.26 4.26c-.29.29-.43.43-.6.56q-.27.22-.6.37c-.18.09-.37.15-.76.28l-1.24.42-.4.13m0 0-.4.13a.53.53 0 0 1-.67-.67l.13-.4m.94.94-.94-.94"/><path stroke="currentColor" stroke-linecap="round" stroke-width="1.5" d="M8 13h2.5M8 9h6.5M8 17h1.5M19.83 3.17C18.66 2 16.77 2 13 2h-2C7.23 2 5.34 2 4.17 3.17S3 6.23 3 10v4c0 3.77 0 5.66 1.17 6.83S7.23 22 11 22h2c3.77 0 5.66 0 6.83-1.17.94-.94 1.13-2.35 1.16-4.83"/></svg>
