<svg xmlns="http://www.w3.org/2000/svg" fill="none" viewBox="0 0 40 40"><path fill="none" stroke="currentColor" stroke-width="1.5" d="M9 .75h17.04l8.21 7.54V36c0 1.8-1.46 3.25-3.25 3.25H9A3.25 3.25 0 0 1 5.75 36V4C5.75 2.2 7.21.75 9 .75Z"/><mask id="path-2-inside-1_9067_87839" fill="currentColor"><path d="M25 1h8.5v8.5H26a1 1 0 0 1-1-1z"/></mask><path fill="currentColor" d="M25 1h8.5zm8.5 9.5H26a2 2 0 0 1-2-2h9.5zm-7.5 0a2 2 0 0 1-2-2V1h2zM33.5 1v8.5z" mask="url(#path-2-inside-1_9067_87839)"/><rect width="32" height="13" x="1" y="20" fill="none" stroke="currentColor" rx="2"/><path fill="currentColor" d="M5.3 22.98q1.11 0 1.94.44.84.44 1.28 1.24.46.8.46 1.83 0 1.04-.46 1.83-.45.8-1.29 1.24-.83.45-1.93.44H2.67v-7.02zm-.1 5.54q.96 0 1.5-.53t.54-1.5-.54-1.51a2 2 0 0 0-1.5-.54h-.82v4.08zm8.06 1.55a4 4 0 0 1-1.82-.46 3.5 3.5 0 0 1-1.8-3.14q0-1.03.49-1.85a3.5 3.5 0 0 1 1.3-1.28 4 4 0 0 1 1.83-.46q.99 0 1.8.46.85.45 1.3 1.28.5.82.49 1.85 0 1.03-.48 1.86-.48.82-1.3 1.28t-1.81.46m0-1.56q.84 0 1.34-.56t.5-1.48a2 2 0 0 0-.5-1.48 1.7 1.7 0 0 0-1.34-.56q-.85 0-1.36.55-.5.55-.5 1.49t.5 1.49q.52.55 1.36.55m4.25-2.03q0-1.04.45-1.85t1.25-1.27 1.83-.46q1.25 0 2.14.66t1.2 1.8h-1.89a1.5 1.5 0 0 0-.6-.67 2 2 0 0 0-.87-.23q-.79 0-1.28.55-.5.55-.49 1.47 0 .91.5 1.47.48.55 1.27.55.5 0 .87-.23.39-.23.6-.67h1.88q-.3 1.14-1.19 1.8-.89.65-2.14.65a4 4 0 0 1-1.83-.45q-.8-.45-1.25-1.27a4 4 0 0 1-.45-1.85M29.71 30l-1.42-2.15L27.03 30h-1.94l2.25-3.57-2.3-3.45h1.99l1.4 2.12 1.25-2.12h1.94l-2.23 3.54L31.7 30z"/></svg>
