<svg xmlns="http://www.w3.org/2000/svg" fill="currentColor" viewBox="0 0 32 32"><path d="M28.42 17.62A7.5 7.5 0 0 0 21.5 13h-11a1.5 1.5 0 0 1 0-3H27a1 1 0 0 0 1-1V5a1 1 0 0 0-1-1h-4V1a1 1 0 0 0-1-1h-4a1 1 0 0 0-1 1v3h-2V1a1 1 0 0 0-1-1h-4a1 1 0 0 0-1 1v3.15a7.5 7.5 0 0 0-6 7.35 7 7 0 0 0 .58 2.89A7.5 7.5 0 0 0 10.5 19h11a1.5 1.5 0 0 1 0 3H5a1 1 0 0 0-1 1v4a1 1 0 0 0 1 1h4v3a1 1 0 0 0 1 1h4a1 1 0 0 0 1-1v-3h2v3a1 1 0 0 0 1 1h4a1 1 0 0 0 1-1v-3.15a7.5 7.5 0 0 0 6-7.35 7 7 0 0 0-.58-2.88M19 2h2v2h-2Zm-8 0h2v2h-2Zm2 28h-2v-2h2Zm8 0h-2v-2h2Zm.5-4H6v-2h15.5a3.5 3.5 0 0 0 0-7h-11a5.5 5.5 0 0 1 0-11H26v2H10.5a3.5 3.5 0 0 0 0 7h11a5.5 5.5 0 0 1 0 11"/></svg>
