<svg xmlns="http://www.w3.org/2000/svg" fill="none" viewBox="0 0 24 24"><path fill="currentColor" fill-rule="evenodd" d="M10.73 3.75q.96.02 1.64.61A2.5 2.5 0 0 1 16.5 6.2a2.4 2.4 0 0 1-.62 1.61l-.1.1-3.4 3.35L8.87 7.8a2.4 2.4 0 0 1-.62-1.61 2.46 2.46 0 0 1 2.48-2.44m1.7 2.66-.05-.06-.06.05-.91-.89-.02-.02a1 1 0 0 0-.66-.24.96.96 0 0 0-.98.94q0 .34.21.58l2.41 2.38 2.34-2.3.06-.07a1 1 0 0 0 .23-.6.95.95 0 0 0-.98-.93 1 1 0 0 0-.66.24l-.02.02zM3.75 12H7.5v.75H12a2.25 2.25 0 0 1 0 4.5H9.75v-1.5H12a.75.75 0 0 0 0-1.5H7.5V18h1.06l.45.45c.16.16.4.24.63.2l9.12-1.2a.85.85 0 0 0-.11-1.7H15v-1.5h3.65a2.35 2.35 0 0 1 .31 4.68l-9.13 1.22c-.7.09-1.39-.15-1.88-.64l-.01-.01H7.5v.75H3.75L3 19.5v-6.75zM6 18.75V13.5H4.5v5.25z" clip-rule="evenodd"/></svg>
