<svg xmlns="http://www.w3.org/2000/svg" fill="none" viewBox="0 0 24 24"><circle fill="none" cx="12" cy="12" r="10" stroke="currentColor" stroke-width="1.5"/><circle fill="none" cx="12" cy="12" r="3" stroke="currentColor" stroke-width="1.5"/><path stroke="currentColor" stroke-width="1.5" d="M2 13s2.2 2 4 2c1.21 0 2.6-.9 3.39-1.5m4.61.72c.47.42 1.09.78 1.8.78 1.7 0 1.7-2 3.38-2 1.08 0 1.93.81 2.4 1.4"/><path stroke="currentColor" stroke-linecap="round" stroke-width="1.5" d="M14.5 7 16 5m3 2 1-1m-8-1-1-1m-.5 3-1.37.37m7.52 1.6.07 1.42m3.96-.3L19 11.56M7 5 6 4m.8 5.14-.6-1.28m-.54 4.78.84-1.14m-2.82-1.15L3.6 8.94"/></svg>
