<svg xmlns="http://www.w3.org/2000/svg" fill="none" viewBox="0 0 16 16"><path stroke="currentColor" stroke-linecap="round" stroke-linejoin="round" stroke-width="2" d="M8 4a.67.67 0 1 0 0-1.33A.67.67 0 0 0 8 4m0 4.67a.67.67 0 1 0 0-1.34.67.67 0 0 0 0 1.34m0 4.66A.67.67 0 1 0 8 12a.67.67 0 0 0 0 1.33M12.67 4a.67.67 0 1 0 0-1.33.67.67 0 0 0 0 1.33m0 4.67a.67.67 0 1 0 0-1.34.67.67 0 0 0 0 1.34m0 4.66a.67.67 0 1 0 0-1.33.67.67 0 0 0 0 1.33M3.33 4a.67.67 0 1 0 0-1.33.67.67 0 0 0 0 1.33m0 4.67a.67.67 0 1 0 0-1.34.67.67 0 0 0 0 1.34m0 4.66a.67.67 0 1 0 0-1.33.67.67 0 0 0 0 1.33"/></svg>
