<svg viewBox="0 0 16 16" fill="none" xmlns="http://www.w3.org/2000/svg"><path d="M13.8691 6.17114C14.1426 6.13386 14.3941 6.32548 14.4316 6.59888C14.4764 6.92589 14.5 7.2602 14.5 7.59985C14.5 11.3797 11.6198 14.5002 8 14.5002C4.38028 14.5002 1.5 11.3797 1.5 7.59985C1.50001 7.2602 1.52357 6.92589 1.56836 6.59888C1.60589 6.32552 1.8575 6.13394 2.13086 6.17114C2.40443 6.20862 2.59604 6.46105 2.55859 6.73462C2.51995 7.01674 2.50001 7.30568 2.5 7.59985C2.5 10.8892 4.99237 13.5002 8 13.5002C11.0077 13.5002 13.5 10.8892 13.5 7.59985C13.5 7.30568 13.4801 7.01674 13.4414 6.73462C13.404 6.46106 13.5956 6.20862 13.8691 6.17114ZM8 1.50024C8.27614 1.50024 8.5 1.7241 8.5 2.00024V7.64185C8.50127 7.64035 8.50263 7.63847 8.50391 7.63696C8.64437 7.4712 8.78252 7.2959 8.91113 7.13208C8.92108 7.11941 8.93059 7.10652 8.94043 7.09399C9.06858 6.93084 9.20389 6.75934 9.30859 6.65161C9.50108 6.45383 9.81769 6.44945 10.0156 6.64185C10.2133 6.83434 10.2178 7.15096 10.0254 7.34888C9.96626 7.40972 9.8686 7.53035 9.72656 7.71118C9.7163 7.72425 9.70589 7.73774 9.69531 7.75122C9.5686 7.91265 9.41975 8.10271 9.2666 8.28345C9.10255 8.47703 8.91888 8.67792 8.73535 8.83423C8.64332 8.91261 8.53933 8.99033 8.42773 9.05005C8.32014 9.10757 8.17197 9.16724 8 9.16724C7.828 9.16722 7.67985 9.10759 7.57227 9.05005C7.46067 8.99033 7.35668 8.91261 7.26465 8.83423C7.08113 8.67791 6.89744 8.47702 6.7334 8.28345C6.58024 8.10269 6.4314 7.91265 6.30469 7.75122C6.29413 7.73777 6.28368 7.72423 6.27344 7.71118C6.13139 7.53034 6.03372 7.40969 5.97461 7.34888C5.78216 7.15086 5.78734 6.83431 5.98535 6.64185C6.18338 6.4495 6.49995 6.45364 6.69238 6.65161C6.79706 6.75935 6.93149 6.93093 7.05957 7.09399C7.06945 7.10658 7.07985 7.11935 7.08984 7.13208C7.21839 7.29582 7.35572 7.4713 7.49609 7.63696C7.49739 7.63849 7.49871 7.64032 7.5 7.64185V2.00024C7.5 1.72413 7.72389 1.50028 8 1.50024Z" fill="currentColor"/></svg>
