<svg xmlns="http://www.w3.org/2000/svg" fill="currentColor" preserveAspectRatio="xMidYMid" viewBox="0 0 31.969 32"><path d="M31.93 17.05v.12l-.01.05A16.03 16.03 0 0 1 15.99 32 16 16 0 0 1 .14 14.02v-.08l.01-.04A16 16 0 0 1 16 0a16 16 0 0 1 10.59 4.04l.03.01A16 16 0 0 1 31.99 16q-.02.53-.06 1.05m-2.1.9a32 32 0 0 0-8.65.39c.79 2.95 1.21 6.35.96 10.23 4.07-2 7.03-5.94 7.69-10.62M15.99 30q2.13-.01 4.07-.61c.38-4.04 0-7.57-.84-10.62-3.01.79-5.4 1.95-7.17 3.07a22 22 0 0 0-5.32 4.62c2.47 2.2 5.7 3.54 9.26 3.54m-14-14c0 3.44 1.26 6.59 3.32 9.02a26 26 0 0 1 13.3-8.18 27 27 0 0 0-1.27-3 23 23 0 0 1-9.75 2.08q-2.6 0-5.56-.56L2 16m.27-2.65c5.91 1.15 10.55.3 14.09-1.3a27 27 0 0 0-7.46-8.1 14 14 0 0 0-6.63 9.4M15.99 2q-2.69.01-5.06.96a29 29 0 0 1 7.22 8.16 21 21 0 0 0 6.6-6.02A14 14 0 0 0 15.98 2M26.2 6.47a23 23 0 0 1-7.09 6.44 29 29 0 0 1 1.46 3.48c2.75-.53 5.87-.74 9.4-.43-.01-3.67-1.45-7-3.77-9.49"/></svg>
