<svg xmlns="http://www.w3.org/2000/svg" viewBox="0 0 1024 1024"><path fill="currentColor" d="m676.17 1019.9-240.7-3.28c-22 1.67-43.81-4.72-60.4-17.68-16.61-12.94-26.57-31.36-27.58-51L235.41 254.48c-1.01-5.5.78-11.12 4.87-15.34s10.06-6.62 16.32-6.55h606.98a22.4 22.4 0 0 1 16.34 6.55 17.4 17.4 0 0 1 4.86 15.34L763.97 951.22c-2.04 19.71-10.95 37.97-27.51 50.92-16.55 12.95-38.3 19.37-60.29 17.75M167.49 189.25c-8.3 0-15.59-5.93-16.93-14.24L137.9 96.66h87c9.48 0 17.17 7.56 17.17 16.89 0 9.32-7.69 16.88-17.17 16.88h-46.79l6.35 39.28a16.9 16.9 0 0 1-14.25 19.33q-1.38.22-2.72.22"/><path fill="currentColor" d="m704.43 234.08 160.98 2.5c6.92-.76 15.72 5.97 18.17 10.37 2.44 4.38 3.2 8.77 1.87 15.68l-123 695.2c-1.9 20.59-20.58 43.62-33 49.2-3.76 1.7-19.08 12.86-45.8 12.72l-7.48.14-62.73-1c-14.86.61-28.18-15.14-38.4-28.8"/><path fill="currentColor" d="M600.19 1021.1H345.75c-53.83 0-68.19-36.3-68.19-57.75l.05-1.3q.03-.34.02-.67l-115.5-714.8c-1.5-9.21 4.89-17.86 14.25-19.33 9.4-1.46 18.16 4.82 19.65 14.03L311.78 957.6l.05.67q.22 2.77.06 5.56c.16 9 4.93 23.48 33.86 23.48h254.44c30.67 0 33.73-17.48 33.86-23.55a45 45 0 0 1 .04-5.34l.17-1.5 133.57-826.5H288.65c-9.48 0-17.16-7.56-17.16-16.88s7.68-16.9 17.16-16.9h519.4L668.32 961.33q0 .45.02.89l.04 1.14c0 19.98-14.25 57.74-68.2 57.74"/></svg>
