<svg xmlns="http://www.w3.org/2000/svg" viewBox="0 -22.73 272.004 272.004"><defs><style>.a{fill:#fff}.b{fill:#7a7473}.c{fill:#211715}.d{fill:#d9d9d9}</style></defs><path d="M202.47 218.11v-.03l.02-1.9h31.05v2a6.3 6.3 0 0 1-6.32 6.32h-18.43a6.33 6.33 0 0 1-6.32-6.39m-163.97.68-.03-.71.03-1.9h31.04v2a6.3 6.3 0 0 1-6.33 6.32H44.8a6.33 6.33 0 0 1-6.29-5.71m123.97-.34v-.37l.02-1.9h31.05v2a6.3 6.3 0 0 1-6.33 6.32H168.8a6.3 6.3 0 0 1-6.32-6.05" class="a"/><path d="M122.14 40.19H97.06c-6.2 0-11.1-3.65-15.93-7.67-3.46-2.87-6.33-5.88-7.42-8.25-1.56-3.03-1.64-5.7-1.25-9.08a18 18 0 0 1 2.98-7.48c3.2-4.02 6.97-5.48 15.41-5.6 11.62-.15 28.37-.26 45.15-.3 16.79.04 33.53.16 45.15.3 8.44.12 12.2 1.58 15.41 5.6a18 18 0 0 1 2.98 7.48c.4 3.38.32 6.05-1.24 9.08-1.1 2.37-3.97 5.38-7.42 8.25-4.84 4.02-9.73 7.67-15.93 7.67h-25.09" class="b"/><path d="M122.14 38.19H103.5c-2.21 0-4.43.03-6.64 0A17.5 17.5 0 0 1 87.71 35a54 54 0 0 1-8.28-6.69c-2.28-2.22-4.3-4.65-4.97-7.85a15.4 15.4 0 0 1 1-8.66c1.8-4.55 5.6-6.78 10.3-7.39a80 80 0 0 1 9.7-.34l9.79-.04Q118.79 4 132.35 4l28.4.02q9.6 0 19.22.08c4.2.04 8.94 0 12.56 2.46 4.2 2.86 6.06 9.23 4.97 14.1-.71 3.18-2.8 5.6-5.09 7.81a54 54 0 0 1-8.29 6.65 17.4 17.4 0 0 1-9.17 3.06h-25.09c-2.57 0-2.58 4 0 4h19.73a51 51 0 0 0 8.5-.29 24 24 0 0 0 9.56-4.33 60 60 0 0 0 8.81-7.48 18 18 0 0 0 4.98-8.74 19.4 19.4 0 0 0-.78-9.9c-1.84-5.23-5.6-9.11-11.06-10.45-3.88-.95-7.94-.88-11.92-.9q-4.9-.04-9.8-.05Q153.85 0 139.81 0q-14.84 0-29.68.03c-6.34 0-12.67 0-19 .08-5.4.07-11.14.54-15.34 4.3-4.58 4.09-6.4 11.21-5.18 17.13a18 18 0 0 0 5.08 8.69 60 60 0 0 0 8.83 7.44 23.4 23.4 0 0 0 9.6 4.26 26 26 0 0 0 4.08.25h23.94c2.58 0 2.58-4 0-4" class="c"/><path d="M97.78 14.83c19.59 0 39.18-.15 58.77-.1q8.84.02 17.68.1c2.57.02 2.58-3.98 0-4-19.2-.15-38.4-.08-57.6-.03q-9.43.03-18.85.03c-2.58 0-2.58 4 0 4" class="c"/><path d="m118.92 63.84-.01-24.49a6.3 6.3 0 0 1 4.66-6.1c6.72-1.75 18.05-2.08 25.13.08a6.3 6.3 0 0 1 4.4 6.03v24.48" class="b"/><path d="M120.92 63.84V45.05a41 41 0 0 1 .04-6.39c.6-3.63 4.7-3.96 7.66-4.36a60 60 0 0 1 11.28-.38 41 41 0 0 1 5.35.62c1.5.3 3.27.53 4.43 1.59 1.3 1.17 1.42 2.7 1.42 4.3v23.4c0 2.58 4 2.59 4 0v-23.6a9.4 9.4 0 0 0-2.12-6.43c-2.58-2.98-7.31-3.35-11-3.7a60 60 0 0 0-12.46.1c-3.65.41-8.12.73-10.63 3.76-1.69 2.04-1.98 4.3-1.98 6.86v23.03c0 2.57 4 2.58 4 0Zm79.55 154.14a8.43 8.43 0 0 0 8.15 8.51c1.53.06 3.08 0 4.62 0 4.64 0 9.3.1 13.93 0a8.45 8.45 0 0 0 8.37-8.42c0-2.58-4-2.58-4 0a4.4 4.4 0 0 1-4.46 4.42H209.3c-2.66 0-4.87-1.68-4.83-4.51.04-2.58-3.96-2.58-4 0m-40 0a8.43 8.43 0 0 0 8.15 8.51c1.53.06 3.08 0 4.62 0 4.64 0 9.3.1 13.93 0a8.45 8.45 0 0 0 8.37-8.42c0-2.58-4-2.58-4 0a4.4 4.4 0 0 1-4.46 4.42H169.3c-2.66 0-4.87-1.68-4.83-4.51.04-2.58-3.96-2.58-4 0m-124 0a8.43 8.43 0 0 0 8.15 8.51c1.53.06 3.08 0 4.62 0 4.64 0 9.3.1 13.93 0a8.45 8.45 0 0 0 8.37-8.42c0-2.58-4-2.58-4 0a4.4 4.4 0 0 1-4.46 4.43H45.3c-2.66 0-4.87-1.68-4.83-4.51.04-2.58-3.96-2.58-4 0Z" class="c"/><rect width="268" height="163.414" x="2.002" y="52.761" class="b" rx="25.505"/><path d="M0 78.27v112.05a27.9 27.9 0 0 0 14.34 24.5 31 31 0 0 0 14.96 3.36h214.74A27.55 27.55 0 0 0 272 190.67V78.56a28.5 28.5 0 0 0-2.56-11.88 27.8 27.8 0 0 0-25.06-15.92H30.3a37 37 0 0 0-10.22 1.01A27.8 27.8 0 0 0 0 78.27c-.02 2.57 3.98 2.57 4 0 .09-11.97 9.39-22.46 21.45-23.43 1.93-.15 3.9-.08 5.83-.08h213.11a23.7 23.7 0 0 1 22.43 16.11C268.14 74.93 268 79 268 83.18v105.6q.02 1.32-.01 2.64a23.5 23.5 0 0 1-6.63 15.62 24.3 24.3 0 0 1-17.8 7.14H29.26c-4.93 0-9.66-.81-13.96-3.42C7.93 206.28 4 198.36 4 189.88V78.27c0-2.58-4-2.58-4 0" class="c"/><path d="M20 70.76h232v123.42H20z" class="a"/><path d="M250 70.76v118.4a47 47 0 0 0 0 4.8v.22l2-2H29.43c-3 0-6.05-.18-9.04 0H20l2 2V75.78a47 47 0 0 0 0-4.8v-.21l-2 2h222.57c3.02 0 6.04.06 9.05 0h.38c2.58 0 2.58-4 0-4H29.43c-3.01 0-6.03-.07-9.04 0H20a2.03 2.03 0 0 0-2 2v108.2c0 4.99-.19 10 0 14.99v.22a2.03 2.03 0 0 0 2 2h222.57c3.02 0 6.04.06 9.05 0h.38a2.03 2.03 0 0 0 2-2V85.96c0-4.98.2-10 0-14.98v-.22c0-2.57-4-2.58-4 0M48 208.4h10.67a2 2 0 0 0 0-4H48a2 2 0 0 0 0 4" class="c"/><path d="m193.95 166.15 33.6 18.3 7.96 4.39c2.26 1.25 4.28-2.2 2.02-3.45-11.4-6.31-22.85-12.51-34.29-18.74l-7.27-3.96c-2.26-1.23-4.28 2.22-2.02 3.46m-118.4-3.21-30.6 16.68-7.37 4.05c-2.25 1.24-.23 4.7 2.02 3.45 10.39-5.75 20.83-11.4 31.25-17.07l6.72-3.66c2.26-1.23.24-4.69-2.02-3.45" class="c"/><path d="M34.17 144.87v-3.02c14.49-1.42 38.2-3.7 42.98-4.18v11.26l-2.1.57a5623 5623 0 0 0-39.55 11.29l-1.33.4Z" class="d"/><path d="M76.53 147q-16.78 4.7-33.53 9.54l-8.03 2.32c-2.46.72-1.41 4.58 1.07 3.86a3559 3559 0 0 1 33.54-9.6q4-1.14 8.02-2.26c2.47-.7 1.42-4.56-1.07-3.86m.63-11.33c-10.8 1.08-21.58 2.1-32.37 3.15l-10.62 1.03a2.06 2.06 0 0 0-2 2 2 2 0 0 0 2 2l37.37-3.63 5.62-.55a2.06 2.06 0 0 0 2-2 2 2 0 0 0-2-2" class="c"/><path d="M71.65 149.89v5.9a2 2 0 0 0 4 0v-5.9a2 2 0 0 0-4 0m-13.02 3.75v7.09a2 2 0 0 0 4 0v-7.09a2 2 0 0 0-4 0m-19.82 5.67v10.96a2 2 0 0 0 4 0V159.3a2 2 0 0 0-4 0" class="c"/><path d="M68.34 89.36a20 20 0 0 0-8.67 1.01 13 13 0 0 0-6.72 5.42c-1.1 1.9-1.55 4.48-.15 6.18-1.89.8-2.67 3.05-2.86 5.1a7.5 7.5 0 0 0 .54 4.02 7 7 0 0 0 1.77 2.11 10.2 10.2 0 0 0 8.98 2.11 9 9 0 0 0 5.47-4.15 4.3 4.3 0 0 0 4.72-2.88c.66-1.8.53-4.39-1.3-5.41 2.65.61 4.92-1.65 5.45-3.11a7 7 0 0 0-1.01-6.95 8.4 8.4 0 0 0-5.92-3.23" style="fill:#74c66d"/><path d="M59.67 109.95v18.22c0 2.58 4 2.58 4 0v-18.22c0-2.57-4-2.58-4 0m7.78 3.3a6.6 6.6 0 0 0 6.09-5.08c.63-2.63 0-5.53-2.41-7.03l-1.54 3.66c4.84.92 8.63-3.28 8.47-7.94-.17-5.16-4.57-8.74-9.42-9.27a2 2 0 0 0-2 2 2.05 2.05 0 0 0 2 2c2.55.28 5.1 2.3 5.4 4.95a5 5 0 0 1-.17 1.95 2.3 2.3 0 0 1-.54 1.2 3 3 0 0 1-2.68 1.26 2.01 2.01 0 0 0-1.54 3.65c.79.5.76 1.7.57 2.52a2.6 2.6 0 0 1-2.24 2.14c-2.56.12-2.57 4.12 0 4Z" class="c"/><path d="M185.83 145.87c5.88 1.57 34.38 9.44 46.12 12.68a2.1 2.1 0 0 0 2.67-2.03v-42.25a1237 1237 0 0 1-29.3 5.44V94.39c-4.37 2.4-13.1 7.2-21.33 11.68a910 910 0 0 1-17.04 9.13Z" class="d"/><path d="M234.08 112.34c-10.77 1.98-21.54 4-32.32 5.93q-3.37.6-6.75 1.18a2 2 0 0 0-1.4 2.46 2.05 2.05 0 0 0 2.46 1.4c10.65-1.75 21.25-3.82 31.86-5.78l7.21-1.33c2.53-.46 1.46-4.32-1.06-3.86" class="c"/><path d="M203.31 94.4v25.3c0 2.58 4 2.58 4 0V94.4c0-2.58-4-2.58-4 0" class="c"/><path d="m204.3 92.67-22.8 12.49c-2.27 1.24-.25 4.7 2 3.45l22.82-12.49c2.26-1.24.24-4.7-2.02-3.45" class="c"/><path d="M89.68 118.46a14 14 0 0 0-2.7.84 6 6 0 0 0-1.88 1.26 8 8 0 0 0-2.11 3.58 3.4 3.4 0 0 0 .08 2.69 3.5 3.5 0 0 0 2.5 1.37 36 36 0 0 0 5.6.52h.35l2.08-2.23a9 9 0 0 0 2.05-3.54l.49-1.57q.03-.39.1-.86a2.7 2.7 0 0 0-.17-1.46 1.7 1.7 0 0 0-1.2-.93 6 6 0 0 0-1.7-.11 24 24 0 0 0-3.5.44m91.59-.2q-1.2-.17-2.44-.24a6 6 0 0 0-1.7.12 1.7 1.7 0 0 0-1.2.92 2.7 2.7 0 0 0-.17 1.46l.1.87.48 1.57a9 9 0 0 0 2.05 3.53l2.08 2.24h.36a36 36 0 0 0 5.6-.53 3.5 3.5 0 0 0 2.5-1.37 3.4 3.4 0 0 0 .08-2.7 8 8 0 0 0-2.12-3.57 6 6 0 0 0-1.87-1.26 15 15 0 0 0-3.75-1.03" class="a"/><path d="M85.97 162.26c0 3.64-.16 13.43-.03 18.43.04 1.61 1.6 3.61 3.2 3.72 2.25.15 6.52.1 8.94.03 1.86-.17 3.04-1.8 3.2-3.9.26-3.61.35-4.4.45-6.87m84.3-11.41c0 3.64.17 13.43.03 18.43-.04 1.61-1.6 3.61-3.2 3.72-2.24.15-6.52.1-8.94.03-1.86-.17-3.04-1.8-3.19-3.9-.26-3.61-.36-4.4-.46-6.87" class="c"/><path d="M83.97 162.26c.01 6.06-.26 12.15-.03 18.2a6.4 6.4 0 0 0 2.66 5.02c1.46 1.06 3.22.99 4.94 1.01q2.72.04 5.45-.02a5.9 5.9 0 0 0 4.74-1.85c1.53-1.78 1.54-4.03 1.7-6.25q.2-2.35.3-4.7c.11-2.57-3.89-2.57-4 0q-.06 1.68-.19 3.36c-.1 1.38.05 3.08-.47 4.38-.43 1.1-1.2 1.04-2.23 1.06q-2.4.05-4.8.03c-.91-.01-2.54.26-3.24-.35-.93-.82-.87-1.78-.88-2.9q-.05-4.3 0-8.6.05-4.2.05-8.39c0-2.57-4-2.58-4 0m100.06 0c0 5.3.12 10.6.07 15.91a7.5 7.5 0 0 1-.26 3.17c-.6 1.19-1.41 1.1-2.6 1.14q-2.4.05-4.81.01c-.95-.01-2.47.3-3.15-.48-.91-1.05-.67-3.06-.77-4.35q-.15-2-.24-3.99c-.1-2.56-4.1-2.57-4 0q.1 2.07.25 4.12c.15 1.88.1 3.84.92 5.58 1.77 3.72 6.09 3.15 9.53 3.14 1.64 0 3.65.2 5.22-.37a6.3 6.3 0 0 0 3.7-4.23 19 19 0 0 0 .22-4.59v-5.09q-.06-4.99-.08-9.97c0-2.58-4-2.58-4 0" class="c"/><path d="M88.1 132.58a12 12 0 0 0-1.41 2.43 12 12 0 0 0-1.19 4.18 151 151 0 0 0 .39 25.76 9.6 9.6 0 0 0 1.97 4.52 11.3 11.3 0 0 0 5.33 2.68c4.27.9 7.5.95 13.45 1.14 5.9.19 52.82.19 58.72 0 5.95-.2 9.18-.24 13.45-1.14a11.3 11.3 0 0 0 5.33-2.68 9.6 9.6 0 0 0 1.97-4.52 151 151 0 0 0 .38-25.76 12 12 0 0 0-1.18-4.18 12 12 0 0 0-1.41-2.43 158 158 0 0 0-5.51-6.09 9 9 0 0 1-2.05-3.53 146 146 0 0 0-7.55-20.3 10 10 0 0 0-2.6-3.54 9 9 0 0 0-4.9-1.95c-8-.82-17.18-.89-25.3-.89-8.7 0-16.52-.13-25.28.9a9.3 9.3 0 0 0-4.9 1.94 10 10 0 0 0-2.6 3.54 146 146 0 0 0-7.56 20.3 9 9 0 0 1-2.05 3.53 168 168 0 0 0-5.5 6.09" style="fill:#64a4d6"/><path d="M104.13 147.66a61 61 0 0 1-11.39-.42 3.3 3.3 0 0 1-2.1-.8 1.5 1.5 0 0 1-.25-.9 11.4 11.4 0 0 1 1.43-6 2.3 2.3 0 0 1 2.68-1.12l10.22 2.98a2 2 0 0 1 .64.3 2 2 0 0 1 .43.42 22 22 0 0 1 1.8 3.5 1.36 1.36 0 0 1-1.13 1.86q-1.16.12-2.33.18" class="a"/><path d="M104.13 145.66a61 61 0 0 1-10.73-.34 9 9 0 0 1-.94-.15l-.5-.14q.31-.1.41.45.04.18.01-.07v-.44a8 8 0 0 1 .07-1.17 7.6 7.6 0 0 1 1.2-3.4.5.5 0 0 1 .36-.06c.09.01.7.23.94.3l2.64.77 4.95 1.44 1.32.38q.5.19.3.07.35.2.1.08a17 17 0 0 1 1 1.89q.19.44.41.89.13.53.05-.23a.6.6 0 0 1 .34-.38q.15-.03.07-.04za2.05 2.05 0 0 0-2 2 2 2 0 0 0 2 2c1.82-.1 4.04 0 5.1-1.81 1-1.76.05-3.54-.79-5.14a9 9 0 0 0-1.35-2.16 5.4 5.4 0 0 0-2.5-1.27l-5.6-1.63-2.65-.77a8 8 0 0 0-2.81-.52c-2 .17-3.21 1.52-3.97 3.27a14 14 0 0 0-1.19 5.19c-.04 2.06.8 3.63 2.9 4.17a32 32 0 0 0 6.3.69 62 62 0 0 0 6.55-.02 2.04 2.04 0 0 0 2-2 2 2 0 0 0-2-2m-5.99-24.28c0-.5.15-1 .13-1.5a4 4 0 0 0-.65-2.12 4.5 4.5 0 0 0-3.83-1.75 22 22 0 0 0-4.2.44 15 15 0 0 0-3.82 1.22 9.4 9.4 0 0 0-4.62 5.64 5.7 5.7 0 0 0-.01 4.1 4.7 4.7 0 0 0 3 2.49 18 18 0 0 0 3.87.64q1.75.17 3.5.2a2 2 0 0 0 0-4q-1.54-.02-3.07-.16l-.86-.08-.52-.06a13 13 0 0 1-1.5-.29c-.1-.02-.76-.29-.4-.11l-.33-.18q.24.22-.01-.02c-.38-.38.07.06 0 .07q-.09-.37-.06-.08v-.42q.02-.37 0-.1l.1-.43q.1-.4.26-.8.13-.35.03-.12l.19-.37a8 8 0 0 1 .42-.73 5 5 0 0 1 2.03-1.74 14 14 0 0 1 3.23-.88 13 13 0 0 1 3.32-.17q.33.1.02-.02.3.18.01 0a.4.4 0 0 1-.14-.25q.09.36.04.08a14 14 0 0 1-.12 1.5 2 2 0 1 0 4 0Zm79.72 0a14 14 0 0 1-.13-1.5q-.04.29.04-.08a.4.4 0 0 1-.14.25q-.27.18.02 0-.32.12.01.02a13 13 0 0 1 3.32.17 14 14 0 0 1 3.23.88 5 5 0 0 1 2.03 1.74 8 8 0 0 1 .43.73q.1.18.18.37-.1-.23.04.11a11 11 0 0 1 .36 1.24q-.02-.27 0 .1v.41q.02-.27-.06.08c-.04.01.36-.43 0-.06q-.25.23-.02.02l-.32.18c.36-.18-.31.09-.4.1a13 13 0 0 1-1.5.3c.32-.05-.45.05-.52.06l-.86.08q-1.54.13-3.08.15a2 2 0 0 0 0 4 34 34 0 0 0 6.57-.62 5.5 5.5 0 0 0 3.14-1.64 4.8 4.8 0 0 0 .9-4.23 9.8 9.8 0 0 0-4.06-6.12c-2.2-1.48-5.14-1.87-7.72-2.06-1.59-.12-3.3-.02-4.5 1.16a3.7 3.7 0 0 0-1.03 2.19 14 14 0 0 0 .08 1.98 2 2 0 1 0 4 0Z" class="c"/><path d="M136 102.95c-6.97 0-14.45 0-21.37.34a5.3 5.3 0 0 0-3.54 1.4 7 7 0 0 0-1.72 2.41c-1.7 3.9-3.91 10.15-5.57 15.45a.84.84 0 0 0 .82 1.08h62.75a.84.84 0 0 0 .83-1.08 171 171 0 0 0-5.59-15.5 8 8 0 0 0-1.58-2.25 4.8 4.8 0 0 0-3.67-1.45c-6.62-.32-14.49-.4-21.36-.4" class="a"/><path d="M136 100.95c-4.85 0-9.7 0-14.54.1-2.4.06-4.84.05-7.23.27a7.8 7.8 0 0 0-4.78 2.14 13 13 0 0 0-2.74 4.84q-1.14 2.81-2.15 5.67-1.14 3.2-2.18 6.43a6 6 0 0 0-.54 3 2.9 2.9 0 0 0 2.25 2.16 25 25 0 0 0 4.8.07h40.34c5.97 0 12 .24 17.96 0a3.4 3.4 0 0 0 1.52-.33c2.41-1.31 1.22-3.95.57-5.94a158 158 0 0 0-4.35-11.92 11 11 0 0 0-3.12-4.63c-1.6-1.28-3.52-1.42-5.49-1.5q-6.82-.3-13.65-.33-3.34-.03-6.67-.03c-2.57 0-2.58 4 0 4q5.85-.01 11.69.1 2.92.05 5.83.15a23 23 0 0 1 4.9.3 4.3 4.3 0 0 1 2.47 2.57c.66 1.4 1.19 2.9 1.73 4.35q.99 2.63 1.9 5.29l.84 2.51.4 1.24.26.82q.1.75.22.12l.71-.72c.35-.21.54-.03-.01-.05h-62.16c-.3.04-.08-.17.27.05l.72.72q.1.63.22-.12l.2-.6.4-1.24q.44-1.36.9-2.71.84-2.46 1.74-4.89a87 87 0 0 1 1.74-4.43 5 5 0 0 1 2.28-2.78c1.34-.65 3.2-.42 4.66-.47q2.97-.1 5.95-.14 6.08-.08 12.15-.07c2.57 0 2.57-4-.01-4" class="c"/><path d="M126.12 158.98c0 2.93-.06 6.15-.06 9.42h19.88v-9.42Z" class="a"/><path d="M124.12 158.98c0 3.14-.05 6.28-.06 9.42a2.03 2.03 0 0 0 2 2h19.88a2.03 2.03 0 0 0 2-2v-9.42a2.03 2.03 0 0 0-2-2h-19.82c-2.58 0-2.58 4 0 4h19.82l-2-2v9.42l2-2h-19.87l2 2 .05-9.42c0-2.58-4-2.58-4 0m-31.54 8.06c9.03 1.3 18.1 1.26 27.2 1.26 2.57 0 2.57-4 0-4-8.73 0-17.48.13-26.14-1.12a2.07 2.07 0 0 0-2.47 1.4 2 2 0 0 0 1.4 2.46Zm85.73-4.13c-8.48 1.55-17.12 1.32-25.7 1.32-2.57 0-2.58 4 0 4 8.95 0 17.92.16 26.76-1.47 2.53-.46 1.46-4.32-1.06-3.85M137 152.6l-1 .01-2.63-.03a135 135 0 0 1-15.29-1.01 3.6 3.6 0 0 1-2.34-1.11 8 8 0 0 1-1.22-2.56q-.71-2.06-1.3-4.15a17 17 0 0 1-1-3.97 3 3 0 0 1 .53-1.88 3.3 3.3 0 0 1 1.92-1.16 17 17 0 0 1 3.72-.18h35.21a17 17 0 0 1 3.72.18 3.3 3.3 0 0 1 1.92 1.16 3 3 0 0 1 .53 1.88 17 17 0 0 1-1 3.97q-.59 2.1-1.3 4.15a8 8 0 0 1-1.21 2.56 3.6 3.6 0 0 1-2.35 1.1 135 135 0 0 1-15.28 1.03z" class="c"/><path d="M137 150.61q-5.9.05-11.77-.34-1.8-.1-3.59-.28a18 18 0 0 1-3.77-.5c-.8-.26-1.02-1-1.29-1.74q-.62-1.78-1.16-3.6c-.32-1.1-.71-2.18-1-3.29-.21-.8-.45-1.66.42-2.08 1.18-.59 2.96-.22 4.27-.22h33.59a17 17 0 0 1 4.1.12c1.1.27 1.08 1 .84 1.98-.29 1.18-.72 2.33-1.06 3.5-.4 1.32-.77 2.7-1.3 3.98-.46 1.13-.92 1.36-2.1 1.53a123 123 0 0 1-16.18.94c-2.57.02-2.57 4.02 0 4a135 135 0 0 0 16.45-.97 7.4 7.4 0 0 0 3.4-1.06 6.7 6.7 0 0 0 2.3-3.38 55 55 0 0 0 2.4-7.68c.56-2.6-.12-5.22-2.72-6.36-1.83-.8-3.88-.6-5.81-.6h-34.03c-1.94 0-4-.2-5.81.6-2.69 1.17-3.31 3.92-2.67 6.56a49 49 0 0 0 2.79 8.53c1.42 3.1 4.36 3.32 7.4 3.64a142 142 0 0 0 16.3.72c2.57-.02 2.58-4.02 0-4" class="c"/><path d="M86.69 131.17a16 16 0 0 0-3.22 8.44c-.19 2.24-.26 4.5-.3 6.76a133 133 0 0 0 .68 18.2 10.3 10.3 0 0 0 3.76 7.3 16.6 16.6 0 0 0 7.55 2.65 97 97 0 0 0 12.76.8c14.47.24 28.95.13 43.42.08 5.78-.02 11.56-.02 17.34-.22 5.1-.18 11.42-.15 15.72-3.32a10.3 10.3 0 0 0 3.76-7.29c.36-3.06.53-6.15.63-9.23a135 135 0 0 0-.26-15.74 15.4 15.4 0 0 0-3.1-8.28c-1.88-2.37-4.27-4.38-6.1-6.8a13 13 0 0 1-1.71-4.23q-.82-2.61-1.7-5.2a139 139 0 0 0-3.77-9.85c-1.28-3-2.54-6.1-5.27-8.1-2.74-2-6.26-2.07-9.52-2.3-6.82-.5-13.66-.55-20.48-.56-7.26 0-14.53-.1-21.77.47-3.37.26-7.14.32-9.98 2.4-2.73 1.98-3.99 5.1-5.27 8.1a139 139 0 0 0-3.76 9.84q-.82 2.37-1.57 4.77a15 15 0 0 1-1.86 4.67c-1.76 2.36-4.08 4.37-5.98 6.64-1.64 1.96 1.18 4.8 2.83 2.82 1.93-2.3 4.17-4.37 6.05-6.71 2.04-2.55 2.65-5.91 3.65-8.96s2.07-6.06 3.26-9.04q.9-2.25 1.9-4.43a13 13 0 0 1 2.24-3.76c2.26-2.3 5.98-2.15 8.96-2.38q5.07-.36 10.14-.4 10.1-.13 20.2.05 4.94.08 9.86.37c2.81.17 6.32-.03 8.75 1.63 2.38 1.64 3.43 5.1 4.49 7.66a142 142 0 0 1 3.4 9.22q.76 2.26 1.47 4.54a18 18 0 0 0 1.76 4.42c1.64 2.57 4.15 4.67 6.14 6.97 3.2 3.7 2.96 8.6 3.05 13.2a140 140 0 0 1-.6 17.44c-.24 2.28-1 4.25-3.1 5.38a19 19 0 0 1-6.93 1.67c-6.04.6-12.18.5-18.25.53q-21.84.1-43.7-.03-2.77 0-5.56-.07c-2.64-.08-5.29-.14-7.92-.35a24 24 0 0 1-7.04-1.33 6 6 0 0 1-3.9-5.04 73 73 0 0 1-.6-8.4 150 150 0 0 1 .16-15.63 12 12 0 0 1 2.11-6.55 2.07 2.07 0 0 0 0-2.82 2 2 0 0 0-2.82 0" class="c"/><path d="M167.88 147.66a61 61 0 0 0 11.38-.42 3.3 3.3 0 0 0 2.1-.8 1.5 1.5 0 0 0 .25-.9 11.4 11.4 0 0 0-1.43-6 2.3 2.3 0 0 0-2.67-1.12l-10.23 2.98a2 2 0 0 0-.64.3 2 2 0 0 0-.43.42 22 22 0 0 0-1.8 3.5 1.36 1.36 0 0 0 1.13 1.86q1.17.12 2.34.18" class="a"/><path d="M167.88 149.66a62 62 0 0 0 11.38-.42c1.85-.24 3.87-.8 4.27-2.92a11 11 0 0 0-.56-5.36c-.6-1.78-1.42-3.6-3.29-4.33-1.79-.69-3.61.13-5.34.64l-5.45 1.58c-1.88.55-3.57.88-4.65 2.66-.95 1.56-2.33 3.7-1.79 5.58.72 2.47 3.33 2.45 5.43 2.57a2 2 0 0 0 0-4l-2-.14q-.09 0 .07.03a.6.6 0 0 1 .33.38q-.08.76.05.23.22-.44.41-.89a17 17 0 0 1 1-1.89q-.24.13.1-.07-.2.11.3-.08l1.32-.38 4.95-1.44 2.64-.76c.24-.07.86-.3.94-.3a.5.5 0 0 1 .36.05 7.6 7.6 0 0 1 1.2 3.4 8 8 0 0 1 .08 1.17v.3q-.05.47 0 .22c-.38-.22 1.15-.6-.1-.31a9 9 0 0 1-.93.15 61 61 0 0 1-10.73.34 2 2 0 0 0 0 4Z" class="c"/></svg>
