<svg xmlns="http://www.w3.org/2000/svg" viewBox="0 -48.11 272.004 272.004"><defs><style>.a{fill:#fff}.c{fill:#211715}</style></defs><path d="M203.3 165.42h30.24v2a6.3 6.3 0 0 1-6.33 6.32H208.8a6.33 6.33 0 0 1-6.32-6.41l.02-1.9Zm-124.83 2.21v-.3c0-.64.02-1.24.03-1.91h31.04v2a6.3 6.3 0 0 1-6.32 6.32H84.79a6.33 6.33 0 0 1-6.32-6.1m-40 .06v-.37l.02-1.9h31.05v2a6.3 6.3 0 0 1-6.33 6.32H44.8a6.3 6.3 0 0 1-6.32-6.05" class="a"/><rect width="268" height="163.414" x="2.002" y="2.004" rx="25.505" style="fill:#7a7473"/><path d="M0 27.5v112.06a27.9 27.9 0 0 0 14.34 24.5 31 31 0 0 0 14.96 3.36h214.74A27.55 27.55 0 0 0 272 139.9V27.79a28.5 28.5 0 0 0-2.56-11.87A27.8 27.8 0 0 0 244.39 0H30.3a37 37 0 0 0-10.22 1.02A27.8 27.8 0 0 0 0 27.5c-.02 2.57 3.98 2.57 4 0 .09-11.96 9.39-22.46 21.45-23.42 1.93-.16 3.9-.09 5.83-.09h213.11a23.7 23.7 0 0 1 22.43 16.11c1.32 4.06 1.18 8.14 1.18 12.32v105.59q.02 1.32-.01 2.64a23.5 23.5 0 0 1-6.63 15.62 24.3 24.3 0 0 1-17.8 7.14H29.26c-4.93 0-9.66-.8-13.96-3.42C7.93 155.52 4 147.6 4 139.12V27.51c0-2.58-4-2.58-4 0" class="c"/><path d="M16.7 19.09a27.3 27.3 0 0 0 19.84 8.21h194.8c4.83 0 9.55-.03 14.19-1.78a26 26 0 0 0 9.78-6.43c1.76-1.88-1.06-4.72-2.83-2.83a23.3 23.3 0 0 1-17.06 7.04H41.02c-4.07 0-8.03.1-12-1.13a22 22 0 0 1-9.5-5.91c-1.76-1.89-4.59.95-2.83 2.82Z" class="c"/><path d="M190.83 40.72C160.78 40.72 140 64 140 91.24c0 30.47 21.22 51.46 50.83 51.46 30.75 0 50.83-21.18 50.83-51.46 0-27.43-20.88-50.52-50.83-50.52" style="fill:#cfcfcf"/><path d="M190.83 38.72a53.5 53.5 0 0 0-31.99 10.29 52 52 0 0 0-18.4 26.07 58 58 0 0 0-.06 33.28 50 50 0 0 0 17.02 25.43 53.5 53.5 0 0 0 29.82 10.8c10.97.65 22.33-1.48 31.9-7.03a47.8 47.8 0 0 0 19.69-22.15A60 60 0 0 0 243 82.76a52.3 52.3 0 0 0-14.22-28.6 51.7 51.7 0 0 0-29.03-14.74 61 61 0 0 0-8.92-.7c-2.57 0-2.58 4 0 4a50 50 0 0 1 29.92 9.69 47.5 47.5 0 0 1 16.65 23.82c5.83 18.77.7 41.52-14.83 54.15-7.66 6.22-17.43 9.47-27.19 10.16-10.19.72-20.61-1-29.6-5.99a45.2 45.2 0 0 1-19-20.47 54 54 0 0 1-4.2-30.54 49 49 0 0 1 12.98-26.36 48 48 0 0 1 27.21-13.87 54 54 0 0 1 8.06-.59c2.57 0 2.58-4 0-4" class="c"/><path d="M190.83 54.44c-21.97 0-37.15 17.02-37.15 36.92 0 22.28 15.51 37.62 37.15 37.62 22.48 0 37.15-15.48 37.15-37.62 0-20.04-15.26-36.92-37.15-36.92" class="a"/><path d="M190.83 52.44a39.7 39.7 0 0 0-23.78 7.7 38.7 38.7 0 0 0-13.6 19.4c-4.77 15.39-.01 33.65 12.94 43.6 12.62 9.68 31.84 10.5 45.5 2.5 14-8.2 19.98-25.14 17.57-40.74a38.45 38.45 0 0 0-32.05-31.94 46 46 0 0 0-6.58-.51c-2.57-.01-2.57 3.99 0 4a36 36 0 0 1 21.5 6.93 34 34 0 0 1 12.04 17.22c4.15 13.46.52 29.7-10.54 38.83-11 9.1-28.53 9.98-40.89 3.21-12.86-7.04-18.94-22.12-16.92-36.36a34.2 34.2 0 0 1 28.9-29.4 38 38 0 0 1 5.91-.44c2.57-.01 2.58-4.01 0-4" class="c"/><path d="M215.3 78.13a27.7 27.7 0 0 0-24.47-14.28c-2.57-.02-2.58 3.98 0 4a23.7 23.7 0 0 1 21.02 12.3c1.23 2.26 4.68.24 3.46-2.02Zm2.95 18.3a33 33 0 0 0-.1-10.07 2 2 0 0 0-2.46-1.4 2.06 2.06 0 0 0-1.4 2.46l.1.58.03.25-.02-.11q.07.54.12 1.1.08 1.07.09 2.14 0 1.09-.07 2.17l-.08 1.02-.05.5c0 .1-.1.82-.03.3a2.2 2.2 0 0 0 .2 1.54 2 2 0 0 0 3.66-.48Zm-17.78 70.8a8.43 8.43 0 0 0 8.15 8.5c1.53.06 3.08 0 4.62 0 4.64 0 9.3.1 13.93 0a8.45 8.45 0 0 0 8.37-8.42c0-2.57-4-2.58-4 0a4.4 4.4 0 0 1-4.46 4.42q-2.33.02-4.64 0H209.3c-2.66 0-4.87-1.68-4.83-4.5.04-2.58-3.96-2.59-4 0m-164 0a8.43 8.43 0 0 0 8.15 8.5c1.53.06 3.08 0 4.62 0 4.64 0 9.3.1 13.93 0a8.45 8.45 0 0 0 8.37-8.42c0-2.57-4-2.58-4 0a4.4 4.4 0 0 1-4.46 4.42q-2.33.02-4.64 0H45.3c-2.66 0-4.87-1.68-4.83-4.5.04-2.58-3.96-2.59-4 0m40 0a8.43 8.43 0 0 0 8.15 8.5c1.53.06 3.08 0 4.62 0 4.64 0 9.3.1 13.93 0a8.45 8.45 0 0 0 8.37-8.42c0-2.57-4-2.58-4 0a4.4 4.4 0 0 1-4.46 4.42q-2.33.02-4.64 0H85.3c-2.66 0-4.87-1.68-4.83-4.5.04-2.58-3.96-2.59-4 0m-40.13-44.26H93c2.57 0 2.58-4 0-4H36.34c-2.58 0-2.58 4 0 4m0-12H93c2.57 0 2.58-4 0-4H36.34c-2.58 0-2.58 4 0 4m0-12H93c2.57 0 2.58-4 0-4H36.34c-2.58 0-2.58 4 0 4" class="c"/></svg>
