<svg xmlns="http://www.w3.org/2000/svg" preserveAspectRatio="xMidYMid" viewBox="0 0 257 257"><g id="dumbbell"><path id="path-1" fill-rule="evenodd" d="m107.71 83.67 65.06 65.05-24.05 24.05-65.05-65.06z" style="fill:#1c8cea"/><path id="path-2" fill-rule="evenodd" d="m133.17 215.2-2.83-16.98c-.53-3.36-1.47-9.84 3.53-14.85l49.5-49.5c5.01-5 11.5-4.06 14.85-3.53l16.97 2.83zm-60.1-92.64c-5.02 5.01-11.5 4.07-14.85 3.54l-16.98-2.83 82.03-82.03 2.83 16.98c.53 3.36 1.47 9.83-3.54 14.84z" style="fill:#3a75c7"/><path id="path-3" fill-rule="evenodd" d="m254.08 173.47-80.6 80.61a8 8 0 0 1-11.32 0l-29.7-29.7a8 8 0 0 1 0-11.3l80.61-80.62a8 8 0 0 1 11.31 0l29.7 29.7a8 8 0 0 1 0 11.31m-210.71-49.5a8 8 0 0 1-11.32 0l-29.7-29.7a8 8 0 0 1 0-11.3L82.96 2.34a8 8 0 0 1 11.32 0l29.7 29.7a8 8 0 0 1 0 11.32z" style="fill:#ff0078"/><path id="path-4" fill-rule="evenodd" d="m244.18 218.73-25.45 25.45a4 4 0 0 1-5.66 0l-9.2-9.19L235 203.88l9.2 9.2a4 4 0 0 1 0 5.65M12.25 43.37a4 4 0 0 1 0-5.66l25.46-25.46a4 4 0 0 1 5.66 0l9.19 9.2-31.11 31.1z" style="fill:#01bef2"/></g></svg>
