<svg xmlns="http://www.w3.org/2000/svg" viewBox="0 0 122.88 121.51"><path d="M28.66 1.64h30.22L44.46 16.71h-15.8a13.5 13.5 0 0 0-9.59 4 13.5 13.5 0 0 0-4 9.59v76.14h76.14a13.5 13.5 0 0 0 9.59-4 13.5 13.5 0 0 0 4-9.59V77.3l15.07-15.74v31.29a28.6 28.6 0 0 1-8.41 20.22v.05a28.6 28.6 0 0 1-20.2 8.39H11.5a11.5 11.5 0 0 1-8.1-3.37A11.5 11.5 0 0 1 0 110V30.3a28.6 28.6 0 0 1 8.41-20.21l.05-.09a28.6 28.6 0 0 1 20.2-8.4ZM73 76.47l-29.42 6 4.25-31.31zM57.13 41.68 96.3.91a2.74 2.74 0 0 1 3.39-.53l22.48 21.76a2.4 2.4 0 0 1-.19 3.57L82.28 67z"/></svg>
