<svg viewBox="0 0 20 20" fill="none" xmlns="http://www.w3.org/2000/svg"><path fill-rule="evenodd" clip-rule="evenodd" d="M10.0479 1.45703C11.8733 1.45702 13.3073 1.45691 14.4268 1.60742C15.5739 1.76166 16.4841 2.08465 17.1992 2.7998C17.9144 3.51496 18.2374 4.42508 18.3916 5.57227C18.5421 6.69174 18.542 8.12568 18.542 9.95117V9.99902C18.542 10.3441 18.262 10.6238 17.917 10.624C17.5718 10.624 17.292 10.3442 17.292 9.99902C17.292 9.30507 17.2884 8.68361 17.2812 8.12402H10.625V10.207H13.75C14.0951 10.207 14.3748 10.487 14.375 10.832C14.375 11.1772 14.0952 11.457 13.75 11.457H10.625V17.916C10.6248 18.2179 10.4107 18.4701 10.126 18.5283L10 18.541H9.95215C8.12666 18.541 6.69271 18.5411 5.57324 18.3906C4.42605 18.2364 3.51594 17.9134 2.80078 17.1982C2.08563 16.4831 1.76264 15.573 1.6084 14.4258C1.48068 13.4759 1.46288 12.2995 1.45996 10.8496C1.45981 10.8439 1.45801 10.8378 1.45801 10.832C1.45801 10.8261 1.4598 10.8203 1.45996 10.8145C1.45951 10.5666 1.45801 10.3108 1.45801 10.0469V9.95117C1.458 8.12568 1.45789 6.69174 1.6084 5.57227C1.76264 4.42508 2.08563 3.51496 2.80078 2.7998C3.51594 2.08465 4.42605 1.76166 5.57324 1.60742C6.69271 1.45691 8.12666 1.45702 9.95215 1.45703H10.0479ZM15.9844 12.166C16.4071 11.9146 16.9293 11.9068 17.3594 12.1455C17.539 12.2453 17.6972 12.4068 17.8672 12.5811L17.9492 12.665C18.1204 12.8394 18.2783 12.9998 18.375 13.1816C18.6044 13.6129 18.5964 14.1341 18.3545 14.5586C18.2525 14.7376 18.0902 14.8933 17.9141 15.0625C17.9002 15.0758 17.8861 15.09 17.8721 15.1035L15.2715 17.6084C15.251 17.6281 15.2309 17.6477 15.2109 17.667C14.8574 18.0081 14.5781 18.2773 14.2207 18.417C13.8622 18.557 13.4763 18.5464 12.9902 18.5332C12.9627 18.5325 12.9345 18.532 12.9062 18.5312L12.8281 18.5293C12.8229 18.5292 12.8171 18.5285 12.8115 18.5283C12.7409 18.5266 12.6423 18.5242 12.5557 18.5098C12.4458 18.4914 12.2779 18.4436 12.1426 18.29C12.0087 18.1381 11.9806 17.9674 11.9746 17.8594C11.9698 17.7723 11.9777 17.674 11.9834 17.6016C11.9838 17.596 11.9849 17.5902 11.9854 17.585L11.9922 17.4893C11.9941 17.4653 11.9962 17.4413 11.998 17.418C12.031 16.991 12.0563 16.6591 12.1885 16.3545C12.3212 16.049 12.5461 15.8056 12.834 15.4941C12.8498 15.477 12.8666 15.46 12.8828 15.4424L15.4502 12.6602C15.4635 12.6457 15.4771 12.6315 15.4902 12.6172C15.6552 12.4379 15.8078 12.2711 15.9844 12.166ZM16.8564 13.0518C16.7493 12.9923 16.6203 12.9948 16.5146 13.0576C16.4864 13.0744 16.4431 13.1128 16.2119 13.3633L13.6445 16.1455C13.2863 16.5336 13.1936 16.6434 13.1396 16.7676C13.0879 16.8867 13.0697 17.0246 13.0322 17.4971C13.5622 17.5098 13.712 17.5021 13.8428 17.4512C13.9826 17.3966 14.1076 17.2901 14.5527 16.8613L17.1533 14.3564C17.3983 14.1205 17.4367 14.0755 17.4541 14.0449C17.5196 13.9297 17.5214 13.7863 17.459 13.6689C17.4424 13.6377 17.4049 13.5917 17.167 13.3486C16.9286 13.1051 16.885 13.0676 16.8564 13.0518ZM2.94141 14.791C3.09057 15.4903 3.32475 15.9546 3.68457 16.3145C4.12877 16.7587 4.73163 17.0158 5.74023 17.1514C6.64949 17.2736 7.81233 17.2872 9.375 17.2891V14.791H2.94141ZM2.71289 11.457C2.71858 12.263 2.73362 12.9487 2.77637 13.541H9.375V11.457H2.71289ZM2.71875 8.12402C2.71162 8.68361 2.70801 9.30507 2.70801 9.99902C2.70801 10.0691 2.708 10.1384 2.70801 10.207H9.375V8.12402H2.71875ZM10 2.70703C8.11655 2.70703 6.76678 2.7087 5.74023 2.84668C4.73163 2.98228 4.12877 3.23939 3.68457 3.68359C3.24037 4.1278 2.98326 4.73065 2.84766 5.73926C2.80193 6.07944 2.77259 6.45519 2.75195 6.87402H17.248C17.2274 6.45519 17.1981 6.07944 17.1523 5.73926C17.0167 4.73065 16.7596 4.1278 16.3154 3.68359C15.8712 3.23939 15.2684 2.98228 14.2598 2.84668C13.2332 2.7087 11.8834 2.70703 10 2.70703Z" fill="currentColor"/></svg>
