<svg xmlns="http://www.w3.org/2000/svg" viewBox="0 -34.8 358.509 358.509"><defs><style>.a{fill:#fff}.d{fill:#211715}.e{fill:#b3b3b3}</style></defs><path d="M100.88 152.97c2.14-2.24 4.04-4.21 5.13-5.32h2.67c1.95 1.97 6.42 6.68 10.33 10.76l-.58.27a26 26 0 0 1-10.74 2.42 28 28 0 0 1-11.9-2.8z" class="a"/><path d="M151.1 74.24a6.8 6.8 0 0 1 4.97-1.73 6.3 6.3 0 0 1 5.63 3.26c1.88 3.39 1.7 9.57.33 13.37-.97 2.7-2.54 6.8-6.22 9.72a7.5 7.5 0 0 1-5.84 1.57l-.55-.1a44 44 0 0 1-2.09 5.39c-1.43 3.68-8.74 15.89-18.08 21.88v3.06a213 213 0 0 1-20.57 17h-2.67a213 213 0 0 1-20.56-17s0-1.23 0-2.85A41 41 0 0 1 74 117.62a52 52 0 0 1-9.53-18.75 7.4 7.4 0 0 1-6.26-1.68c-3.58-3.03-5.01-7.2-5.88-9.93-1.24-3.84-1.21-10.02.78-13.34a6.3 6.3 0 0 1 5.74-3.07 6.8 6.8 0 0 1 4.9 1.9S53.36 37.4 107.3 37.4s43.81 36.83 43.81 36.83M310.74 98.5a6.8 6.8 0 0 1 4.87-1.8 6.3 6.3 0 0 1 5.63 3.11c1.92 3.3 1.85 9.41.58 13.19-.9 2.68-2.38 6.77-5.96 9.71a7.4 7.4 0 0 1-5.73 1.67l-.55-.1a43 43 0 0 1-1.96 5.36c-1.33 3.64-8.2 15.63-17.18 21.77a25 25 0 0 0 2.78 8.65c1.89 3.06 6.6 5.71 11.71 8.03l-.42 4.39-.16 3.1c-14.78 3.7-22.6 4.87-34.75 4.88-20.35 0-25.28-2.43-32.7-4.86v-9.05a43 43 0 0 0 9.35-4.08 4 4 0 0 0 1.4-1.06 3 3 0 0 0 .35-1.13l1.17-6.56c-5.02-2.18-9.48-5.87-13.73-10.92a51 51 0 0 1-9.77-18.34 7.3 7.3 0 0 1-6.2-1.54c-3.59-2.92-5.08-7.01-6-9.68-1.29-3.78-1.38-9.88.52-13.2a6.3 6.3 0 0 1 5.62-3.13 6.8 6.8 0 0 1 4.87 1.77s-7.46-41.9 44.55-41.9 41.71 41.72 41.71 41.72" class="a"/><path d="M21.8 173a30 30 0 0 0-2.1 4.2 142 142 0 0 0-7.05 25.15c-3.54 21.9-6.91 51.5-10.24 82.45h198.92v-89.75l-9.42-19.46c-1.98-4.75-4.08-7.71-8.4-12.3a48 48 0 0 0-12.2-9.77c-10.3-5.72-22.04-8.36-32.77-12.05l-20.11 17.21a26 26 0 0 1-10.74 2.42 28 28 0 0 1-11.9-2.8l-21.13-17.9a277 277 0 0 0-33.39 13.85 55 55 0 0 0-12.33 9.35 56 56 0 0 0-7.14 9.4" style="fill:#a98a75"/><path d="M176.93 286.42c.93-8.46 1.44-13.9 2.66-21.37 2.54-16.67 4.8-37.6 9.99-59.37 2.03-8.49 5.25-17.15 11.7-23.02 3.53-3.2 7.87-5.32 12.17-7.4 6.27-3.02 16.22-6.78 23.45-9.61 0 23.75.3 81.33 0 120.77Zm126.52.16c0-37.62-.52-86.53 1.06-114.1l.42-4.38.03-.27c13.94 5.98 29 12.7 36.53 25.94 4.41 7.8 5.65 16.94 6.79 25.84 1.88 14.62 7.12 58.54 7.82 66.81Z" class="a"/><path d="M303.45 286.58c0-36.25-.48-82.98.9-111-14.78 3.71-22.6 4.89-34.75 4.9-20.35 0-25.29-2.43-32.7-4.86.06 27.39.27 76.11 0 110.8Z" style="fill:#a095c1"/><path d="M4.81 284.8c2.65-24.69 5.29-49.4 8.94-73.97.75-5.1 1.52-10.19 2.74-15.2a149 149 0 0 1 4.59-15.31c3.45-9.55 10.6-17.32 19.12-22.68a68 68 0 0 1 7.69-3.88q4.56-2.13 9.19-4.11a275 275 0 0 1 18.22-6.93c2.9-1 1.65-5.64-1.28-4.63a275 275 0 0 0-33.96 14.1 50 50 0 0 0-11.6 8.48 49 49 0 0 0-10.19 13.84 93 93 0 0 0-5 14.5 134 134 0 0 0-3.45 15.92 1045 1045 0 0 0-4.69 34.58C3.29 254.59 1.63 269.7.01 284.8a2.4 2.4 0 0 0 2.4 2.4 2.46 2.46 0 0 0 2.4-2.4M137.9 143.78c8.28 2.84 16.8 5 24.91 8.32a58 58 0 0 1 11.3 6.01 55 55 0 0 1 8.96 8.24 37 37 0 0 1 6.76 10.45 2.4 2.4 0 0 0 3.29.86 2.47 2.47 0 0 0 .86-3.28c-3.19-7.54-9.09-14-15.5-18.98-7.24-5.6-16.03-8.83-24.67-11.6-4.87-1.56-9.8-2.98-14.64-4.64-2.92-1-4.18 3.63-1.27 4.63Z" class="d"/><path d="M106.01 147.65a213 213 0 0 1-20.56-17 92 92 0 0 0-9.39 9.26c4.74 7.2 9.84 15.3 15.58 22.68 4.2-4.29 11.68-12.22 14.37-14.94m2.67 0a213 213 0 0 0 20.57-17 92 92 0 0 1 9.38 9.26c-4.74 7.2-9.84 15.3-15.57 22.68-4.21-4.29-11.69-12.22-14.38-14.94" class="a"/><path d="M107.22 145.58a219 219 0 0 1-20.08-16.62 2.45 2.45 0 0 0-3.4 0 96 96 0 0 0-9.37 9.26 2.5 2.5 0 0 0-.38 2.9c5.16 7.84 10.2 15.74 15.95 23.17a2.4 2.4 0 0 0 3.4 0c4.83-4.94 9.51-10.03 14.37-14.95 2.17-2.2-1.22-5.6-3.4-3.39-4.86 4.92-9.54 10-14.38 14.94h3.4c-5.5-7.09-10.27-14.7-15.2-22.19l-.38 2.91a96 96 0 0 1 9.39-9.25h-3.4a230 230 0 0 0 21.06 17.36 2.4 2.4 0 0 0 3.28-.86 2.46 2.46 0 0 0-.86-3.28" class="d"/><path d="M109.9 149.72a230 230 0 0 0 21.05-17.36h-3.4a97 97 0 0 1 9.38 9.25l-.37-2.9c-4.93 7.48-9.7 15.1-15.2 22.18h3.39c-4.84-4.93-9.52-10.02-14.38-14.94-2.17-2.2-5.56 1.2-3.39 3.4 4.86 4.91 9.54 10 14.38 14.94a2.4 2.4 0 0 0 3.39 0c5.75-7.43 10.8-15.33 15.95-23.16a2.45 2.45 0 0 0-.38-2.91 96 96 0 0 0-9.38-9.26 2.45 2.45 0 0 0-3.4 0 220 220 0 0 1-20.07 16.62 2.5 2.5 0 0 0-.86 3.28 2.4 2.4 0 0 0 3.28.86" class="d"/><path d="M94.58 160.37a28.9 28.9 0 0 0 25.06.39 2.4 2.4 0 0 0 .86-3.29 2.45 2.45 0 0 0-3.28-.86 23.7 23.7 0 0 1-20.22-.38 2.46 2.46 0 0 0-3.28.86 2.4 2.4 0 0 0 .86 3.28m-54.85 43.48c-.17 20.93-1.38 41.84-2.15 62.76-.22 5.72-.4 11.45-.73 17.17-.19 3.09 4.61 3.08 4.8 0 .61-10.37.8-20.76 1.27-31.14q.75-16.17 1.25-32.35c.16-5.48.32-10.96.36-16.44.03-3.1-4.77-3.1-4.8 0" class="d"/><path d="M159.78 45.03a57 57 0 0 0-4.9-14.8c-8.66-17.16-27.55-27.47-46.43-27.8-12.43-.2-23.08 3.09-31.96 9.66a25.5 25.5 0 0 0-9 11.16s-1.41.1-3.16.2C57.87 29.9 54.28 41.84 54.41 54a68 68 0 0 0 1.83 17.31 8 8 0 0 1 2.61-.45 6.7 6.7 0 0 1 5.44 2.5c1.15-6.54 1.15-15.06 9.36-24.4 1.7-1.93 6.43-3.6 10.78-5.26 4.13-1.58 17.13-1.39 22.34-1.05 10.9-1.44 25.07.18 32.84 6.9a37 37 0 0 1 6.32 6.49c3.59 5.36 4.36 10.86 4.63 18.8a6.7 6.7 0 0 1 5.5-2.32 8 8 0 0 1 2.39.46c2.82-8.4 3.12-18.52 1.33-27.94" class="e"/><path d="M65.45 71.05a9.8 9.8 0 0 0-10.63-1.73 9.3 9.3 0 0 0-4.96 6.16c-1.91 6.37-.33 13.92 3.25 19.44 2.39 3.68 6.2 6.99 10.87 6.44a2.5 2.5 0 0 0 2.4-2.4 2.4 2.4 0 0 0-2.4-2.4c-3.61.42-6.03-2.6-7.57-5.5a21 21 0 0 1-2.49-8.41 18 18 0 0 1 .3-4.89 10 10 0 0 1 .6-1.96c.12-.28.3-.53.44-.8l.2-.3q-.25.3-.07.1a4.8 4.8 0 0 1 6.67-.35c2.26 2.1 5.66-1.29 3.4-3.4Zm87.35 4.88a4.7 4.7 0 0 1 4.18-.89 4 4 0 0 1 1.68.74c-.18-.13.37.36.45.44s.45.6.15.17c1.6 2.33 1.6 5.64 1.31 8.35a21 21 0 0 1-2.7 7.97c-1.39 2.46-3.99 5.9-7.25 5.4a2.5 2.5 0 0 0-2.95 1.68 2.4 2.4 0 0 0 1.67 2.96c8 1.21 12.73-6.43 15.01-12.97a23 23 0 0 0 .9-10.52c-.41-2.91-1.51-5.69-3.95-7.47a9.74 9.74 0 0 0-11.88.75c-2.34 2.02 1.06 5.4 3.39 3.4Z" class="d"/><path d="M147.99 96.5a42 42 0 0 1-1.62 5.33c-.23.63-.48 1.28-.72 1.83l-.39.84c-.1.24-.52 1.17-.19.46a46 46 0 0 1-2.9 5.29 53 53 0 0 1-11.95 13.74 22 22 0 0 1-8.78 4.36c-3.02.64-1.74 5.27 1.28 4.63 6.7-1.44 12.35-6.24 16.79-11.24a59 59 0 0 0 9.47-13.83l.26-.59a40 40 0 0 0 1.38-3.23 44 44 0 0 0 2-6.31c.67-3.01-3.96-4.3-4.63-1.28m-86.65-.36a55 55 0 0 0 7.51 18.44c3.86 5.99 8.97 11.6 15.18 15.19a31 31 0 0 0 10.32 3.7 2.47 2.47 0 0 0 2.95-1.67 2.4 2.4 0 0 0-1.68-2.95c-7.94-1.32-14.18-6.03-19.25-12.1a50 50 0 0 1-10.4-21.88c-.64-3.03-5.26-1.75-4.63 1.27m2.47-75.46c-4.72 4.07-7.62 9.97-9.4 15.84a66 66 0 0 0-2.36 21.26 68 68 0 0 0 1.7 13.5c.72 3 5.35 1.74 4.64-1.27a64 64 0 0 1-1.58-13.94 65 65 0 0 1 .83-12.5c1.3-7.12 3.94-14.63 9.56-19.49 2.35-2.02-1.06-5.4-3.4-3.4Zm19.98 20.7a35 35 0 0 0-10.06 4.38c-2.9 2.05-5.08 5.42-6.75 8.51-2.86 5.26-3.87 10.9-4.74 16.73a2.5 2.5 0 0 0 1.68 2.95 2.4 2.4 0 0 0 2.95-1.67c.76-5.11 1.5-10.22 3.88-14.88 1.31-2.57 3.07-5.72 5.4-7.5 2.54-1.93 5.9-2.98 8.91-3.9 2.95-.9 1.7-5.52-1.27-4.62m54.12 9.87c3.36 2.85 6.46 5.85 8.1 10.01 1.58 3.96 1.93 8.24 2.1 12.45.14 3.08 4.94 3.1 4.8 0-.2-4.73-.6-9.6-2.38-14.04-1.97-4.85-5.27-8.46-9.22-11.81a2.46 2.46 0 0 0-3.4 0 2.4 2.4 0 0 0 0 3.39m-43.17-8.28a11 11 0 0 1 .37-1.19c-.18.5.03-.07.08-.18a12 12 0 0 1 1.3-2.12l.13-.18a26 26 0 0 1 2.36-2.7q.61-.57 1.25-1.1c.16-.14-.45.32 0 .01l.38-.27q.4-.28.83-.54a19 19 0 0 1 1.95-1.03l.37-.16c-.27.12.34-.14.4-.16q.7-.27 1.4-.5a2.4 2.4 0 0 0-1.27-4.63 22 22 0 0 0-8.7 4.98 29 29 0 0 0-2.68 3.11 15 15 0 0 0-2.8 5.38 2.4 2.4 0 0 0 4.63 1.28m9.54 1.96a21 21 0 0 1 8.02-3.33q1.65-.37 3.33-.65l.92-.15.62-.1c-.27.04.06 0 .14 0q1.34-.17 2.69-.29a2.46 2.46 0 0 0 2.4-2.4 2.4 2.4 0 0 0-2.4-2.4c-6.29.55-12.83 1.57-18.14 5.18a2.46 2.46 0 0 0-.86 3.28 2.4 2.4 0 0 0 3.28.86" class="d"/><path d="M160.95 73.04c3.16-10.06 2.97-21.14.57-31.34a52 52 0 0 0-14.37-25.87c-14.52-14-36.55-19.2-55.9-13.65-10.6 3.04-21.2 9.47-25.84 19.86a2.5 2.5 0 0 0 .86 3.28 2.4 2.4 0 0 0 3.29-.86 25 25 0 0 1 7.86-10.09A46 46 0 0 1 89.73 7.7a53.4 53.4 0 0 1 27.96-1.88 53 53 0 0 1 23.9 11.42 46.7 46.7 0 0 1 14.38 22.25c3.1 10.36 3.62 21.89.35 32.27-.93 2.95 3.7 4.22 4.63 1.27ZM98.63 110.4a18 18 0 0 0 8.5 2.13c2.81.05 6.13-.35 8.45-2.1a2.46 2.46 0 0 0 .86-3.28 2.4 2.4 0 0 0-3.28-.86 7 7 0 0 1-.9.57l-.28.13c-.35.18-.01-.03.14-.05a6 6 0 0 0-.8.28 13 13 0 0 1-1.91.43l-.85.06q-.71.03-1.44.02-.65 0-1.31-.06l-.72-.07c.34.04.04 0-.13-.02a14 14 0 0 1-1.94-.45l-.8-.28c-.45-.17.08.09.14.06l-.34-.15q-.5-.24-.96-.5a2.4 2.4 0 1 0-2.43 4.14m7.69-20.15q.53 2.1.86 4.27l-.09-.64a3 3 0 0 1 .02.67l.08-.63-.07.26.25-.57-.1.17.37-.49-.14.14.48-.37-.34.17.57-.24a3 3 0 0 1-.58.16l.64-.09a2 2 0 0 1-.54 0l.63.08-.6-.12a2.6 2.6 0 0 0-1.85.24 2.4 2.4 0 0 0-.87 3.29 2.3 2.3 0 0 0 1.44 1.1c.48.07.94.19 1.44.22a4.6 4.6 0 0 0 2.14-.5 3.1 3.1 0 0 0 1.73-2.05 5 5 0 0 0 0-2.2q-.34-2.1-.85-4.16a2.4 2.4 0 0 0-2.95-1.68 2.45 2.45 0 0 0-1.68 2.96ZM83.7 77.5c-.76 2.34-.38 7.76 4.06 8.3 5.89.06 6.31-6.47 4.38-9.58-1.58-2.54-6.33-3.67-8.44 1.28m47.3.81c.69 2.37.12 7.76-4.34 8.15-5.88-.14-6.08-6.68-4.05-9.72 1.67-2.49 6.45-3.45 8.4 1.57M122.42 105a7 7 0 0 1 .61.69l-.37-.49a9 9 0 0 1 1.07 1.9l-.24-.57q.2.48.37.97a2.6 2.6 0 0 0 1.1 1.44 2 2 0 0 0 .9.28 2 2 0 0 0 .95-.04 2.4 2.4 0 0 0 1.43-1.1 2.4 2.4 0 0 0 .25-1.85 12 12 0 0 0-2.68-4.62 2.5 2.5 0 0 0-1.7-.7 2.4 2.4 0 0 0-1.7.7 2.4 2.4 0 0 0-.7 1.7 2.5 2.5 0 0 0 .7 1.7Zm159.06 24.03a7 7 0 0 1 .6.7l-.37-.5a9 9 0 0 1 1.08 1.9l-.24-.57q.2.48.37.98a2.6 2.6 0 0 0 1.1 1.43 2 2 0 0 0 .9.29 2 2 0 0 0 .95-.05 2.4 2.4 0 0 0 1.43-1.1 2.4 2.4 0 0 0 .24-1.85 12 12 0 0 0-2.67-4.62 2.5 2.5 0 0 0-1.7-.7 2.4 2.4 0 0 0-1.7.7 2.4 2.4 0 0 0-.7 1.7 2.5 2.5 0 0 0 .7 1.7ZM179.33 286.42c.52-4.7 1-9.43 1.6-14.13.55-4.24 1.27-8.47 1.87-12.7 1.36-9.57 2.64-19.15 4.22-28.68q1.31-8 2.94-15.94a141 141 0 0 1 3.61-14.71 43 43 0 0 1 5.8-11.91 30 30 0 0 1 10.43-8.57c8.86-4.75 18.39-8.16 27.73-11.82a2.47 2.47 0 0 0 1.67-2.95 2.4 2.4 0 0 0-2.95-1.67c-8.6 3.36-17.29 6.56-25.58 10.62-4.54 2.22-9.01 4.7-12.52 8.4a39 39 0 0 0-7.44 11.85 84 84 0 0 0-4.23 14.2 351 351 0 0 0-3.23 16.14c-1.77 10.02-3.16 20.1-4.58 30.19-.71 5.13-1.55 10.24-2.25 15.37-.74 5.42-1.3 10.87-1.9 16.32a2.4 2.4 0 0 0 2.4 2.4 2.46 2.46 0 0 0 2.4-2.4Zm125.05-116.24c9.91 4.26 20.27 8.72 28.2 16.22a36 36 0 0 1 9.17 13.57c2.2 5.88 3.15 12.13 3.96 18.32 2.08 15.99 3.95 32 5.8 48.01.77 6.7 1.62 13.4 2.2 20.12a2.46 2.46 0 0 0 2.4 2.4 2.4 2.4 0 0 0 2.4-2.4c-1.27-14.73-3.27-29.43-5.04-44.12q-1.31-11.1-2.73-22.19c-.8-6.21-1.55-12.5-3.38-18.5a42 42 0 0 0-8.65-15.78c-8.4-9.54-20.47-14.88-31.9-19.8a2.5 2.5 0 0 0-3.29.86 2.4 2.4 0 0 0 .86 3.29" class="d"/><path d="M208.75 221.1c-.18 2.51-.47 5-.6 7.52-.24 4.46-.13 8.9 0 13.36.25 9.38.44 18.76.7 28.13q.19 6.92.5 13.84c.15 3.07 4.96 3.09 4.8 0-.42-8.77-.6-17.55-.82-26.32-.22-9.2-.82-18.46-.46-27.64.12-2.98.47-5.92.68-8.89a2.4 2.4 0 0 0-2.4-2.4 2.45 2.45 0 0 0-2.4 2.4m111.2-2.12c.83 16.93 1.18 33.89.93 50.84q-.1 7.51-.37 15.03c-.11 3.09 4.69 3.08 4.8 0q.9-25.78.03-51.57-.23-7.15-.59-14.3c-.15-3.08-4.95-3.1-4.8 0m-14.1 67.6c0-17.2-.1-34.4-.08-51.6.01-16.32.07-32.65.57-48.96.19-5.99.42-11.96 1-17.92a2.4 2.4 0 0 0-2.4-2.4 2.45 2.45 0 0 0-2.4 2.4c-1.2 12.56-1.25 25.25-1.4 37.86-.22 17.35-.18 34.7-.14 52.06l.05 28.56c0 3.1 4.8 3.1 4.8 0" class="d"/><path d="M288.12 152.05c.58 3.26 1.33 6.75 3.23 9.53a19 19 0 0 0 5.68 5.1c5.04 3.17 10.74 5.25 16.23 7.5a2.4 2.4 0 0 0 2.95-1.67 2.46 2.46 0 0 0-1.67-2.95c-4.92-2.03-9.96-3.93-14.52-6.68a23 23 0 0 1-2.61-1.79 15 15 0 0 1-1.15-1.04 7 7 0 0 1-.7-.8c-1.73-2.44-2.3-5.58-2.8-8.48a2.4 2.4 0 0 0-2.96-1.67 2.45 2.45 0 0 0-1.68 2.95m-55.48 18.45a93 93 0 0 0 12.7-4.73c1.79-.89 4.07-1.99 4.76-3.98a23 23 0 0 0 .69-3.49l.7-3.94a2.47 2.47 0 0 0-1.68-2.95 2.4 2.4 0 0 0-2.95 1.68l-.61 3.44a33 33 0 0 0-.61 3.41c0 .09-.1.27-.05.27q.57-.5.22-.26l-.33.2q-.46.3-.94.58a22 22 0 0 1-2.05 1.1q-.55.27-1.12.51l-.26.11-.62.25q-1.38.56-2.8 1.05-3.15 1.1-6.33 2.12a2.45 2.45 0 0 0-1.68 2.95 2.4 2.4 0 0 0 2.96 1.68" class="d"/><path d="M219.45 57.62a52 52 0 0 1 32.16-27.48 47 47 0 0 1 15.57-1.87c7.83.25 14.7 1.3 20.79 3.64a57 57 0 0 1 9.39 4.87l.38.25 7.81 6.89a41 41 0 0 1 9.17 12.83 44 44 0 0 1 3.6 10.48c1.49 7.13 3.35 21.31-.08 30a8 8 0 0 0-2.62-.52 7 7 0 0 0-3.24.67l-3.91-1.44c-6.02-1.78-13.62-12.12-16.1-16.83-1.73-3.27-3.82-10.04-5.33-15.51a64.8 64.8 0 0 1-32.96 23.74l-9.64-.64a203 203 0 0 1-19.02 13.14 6.5 6.5 0 0 0-5.81-2.92q-.21 0-.41.03a28 28 0 0 1-2.9-8.1c-1.19-4.84-1.34-15.24-.1-21.33a44 44 0 0 1 3.25-9.9" class="e"/><path d="M312.44 100.2a4.7 4.7 0 0 1 4.12-.98 4 4 0 0 1 1.72.74c-.2-.15.3.29.3.28q.16.16.3.34-.22-.31 0 0c1.55 2.26 1.6 5.42 1.38 8.06a21 21 0 0 1-2.4 7.75c-1.56 2.96-4.04 6.07-7.73 5.6a2.4 2.4 0 0 0-2.4 2.4 2.46 2.46 0 0 0 2.4 2.4c7.64.99 12.3-7.42 14.14-13.6 1.62-5.42 1.62-13.8-3.56-17.38a9.66 9.66 0 0 0-11.66 1c-2.3 2.06 1.1 5.45 3.39 3.39" class="d"/><path d="M308.07 120.49a54 54 0 0 1-2.92 8.92s.2-.43 0 .02l-.28.59q-.3.64-.64 1.27-.78 1.5-1.66 2.94A54 54 0 0 1 291.03 148a21 21 0 0 1-8.5 4.44c-3 .7-1.73 5.33 1.28 4.63 6.6-1.55 12.08-6.37 16.37-11.4a59 59 0 0 0 9.08-13.76l.45-1.05.13-.33c-.14.33.01-.02.04-.08l.44-1.05.46-1.15a43 43 0 0 0 1.92-6.5 2.46 2.46 0 0 0-1.67-2.95 2.4 2.4 0 0 0-2.95 1.68Zm-85.57 1.31a54 54 0 0 0 7.72 18c3.9 5.84 9.02 11.3 15.2 14.74a30 30 0 0 0 10.38 3.54 2.5 2.5 0 0 0 2.95-1.67 2.4 2.4 0 0 0-1.68-2.96c-7.93-1.16-14.21-5.72-19.36-11.68a49 49 0 0 1-10.58-21.25c-.7-3-5.32-1.73-4.63 1.28m35.53 13.31a18 18 0 0 0 8.57 1.97 14 14 0 0 0 8.68-2.59 2.4 2.4 0 0 0 0-3.4 2.47 2.47 0 0 0-3.4 0c.74-.57.21-.16.02-.04q-.25.17-.52.3l-.28.15c-.19.1-.4.06.14-.05l-.72.26a14 14 0 0 1-2.02.47c.36-.06.05-.01-.14 0l-.6.06q-.7.04-1.43.04-.65 0-1.29-.04l-.59-.05c-.06 0-.78-.12-.23-.02a16 16 0 0 1-1.89-.42q-.4-.11-.78-.26l-.25-.1c-.46-.16.52.25.11.05l-.96-.48a2.4 2.4 0 1 0-2.42 4.15m7.21-20.08a40 40 0 0 1 .95 4.28l-.09-.64a3 3 0 0 1 .02.6l.09-.65-.07.27.24-.57-.1.17.38-.49-.13.14.48-.38-.34.18.58-.24a2 2 0 0 1-.57.17l.63-.09a2 2 0 0 1-.53 0l.64.09-1.25-.19a2.4 2.4 0 0 0-1.7.7 2.4 2.4 0 0 0 0 3.4l.49.37a2.4 2.4 0 0 0 1.21.33h.05l-.64-.08a10 10 0 0 0 1.45.2 5 5 0 0 0 2.15-.56 3.1 3.1 0 0 0 1.64-2.07 5 5 0 0 0-.04-2.16 50 50 0 0 0-.91-4.05 2.5 2.5 0 0 0-1.1-1.44 2.4 2.4 0 0 0-3.53 2.71m-22.44-12.1c-.7 2.31-.23 7.65 4.17 8.1 5.8-.05 6.1-6.5 4.14-9.54-1.6-2.48-6.32-3.5-8.31 1.43m46.54-.11c.72 2.32.27 7.66-4.13 8.12-5.8-.02-6.13-6.47-4.18-9.51 1.6-2.5 6.3-3.53 8.31 1.39m9.23-68.11a52 52 0 0 0-13.71-6.37 69 69 0 0 0-15.13-2.36 59 59 0 0 0-13.4.6 52 52 0 0 0-12.12 3.76c-15.08 6.67-27.68 20.94-30.5 37.44a65 65 0 0 0-.67 14.38 40 40 0 0 0 3.36 14.7 2.4 2.4 0 0 0 3.28.86 2.45 2.45 0 0 0 .86-3.28 32 32 0 0 1-2.63-11.22 69 69 0 0 1 .18-12.34 43 43 0 0 1 8.46-20.5c9.06-12.27 24.21-20.2 39.54-19.75a74 74 0 0 1 15.74 1.87 48 48 0 0 1 14.32 6.36c2.6 1.68 5.01-2.48 2.42-4.15" class="d"/><path d="M226.18 97a9.7 9.7 0 0 0-10.8-1.46 9.5 9.5 0 0 0-4.71 6.56 24.4 24.4 0 0 0 3.78 18.83c2.7 3.9 6.48 6.62 11.4 5.96a2.4 2.4 0 0 0 1.67-2.95 2.46 2.46 0 0 0-2.95-1.68c-3.26.44-5.8-3.16-7.11-5.63a20.5 20.5 0 0 1-2.46-7.92c-.2-2.61-.16-5.75 1.4-7.97l-.06.07.3-.33s.5-.45.3-.29a4 4 0 0 1 1.72-.75 4.7 4.7 0 0 1 4.13.95c2.3 2.05 5.7-1.33 3.39-3.4Zm58.64-32.38c1.94 6.93 3.93 13.9 8.05 19.87a58 58 0 0 0 6.78 8.25c2.33 2.3 5 4.52 8.17 5.51 2.96.93 4.22-3.7 1.28-4.63a12 12 0 0 1-3.32-1.85 29 29 0 0 1-3.22-2.92 53 53 0 0 1-5.89-7.29c-3.71-5.5-5.45-11.89-7.22-18.21-.83-2.97-5.46-1.71-4.63 1.27" class="d"/><path d="M255.87 72.97c-8.37 9.39-18.98 16.83-29.57 23.5-2.6 1.64-.2 5.8 2.42 4.14q8.36-5.23 16.17-11.25a105 105 0 0 0 14.37-13c2.05-2.3-1.33-5.7-3.39-3.4Zm29.17-10.69a63.6 63.6 0 0 1-31.6 22.75c-2.94.93-1.68 5.57 1.27 4.62a69 69 0 0 0 34.48-24.95 2.4 2.4 0 0 0-.86-3.28 2.46 2.46 0 0 0-3.29.86m18.81-16.66c6.01 5.37 10.07 13.33 11.9 21.1a76 76 0 0 1 2 19.07 32 32 0 0 1-1.84 10.8 2.4 2.4 0 0 0 1.68 2.94 2.46 2.46 0 0 0 2.95-1.67c2.6-6.72 2.33-14.52 1.58-21.56-.82-7.8-2.45-15.26-6.09-22.27a41 41 0 0 0-8.79-11.8c-2.3-2.06-5.7 1.32-3.4 3.4Zm-.2 127.67c-5.6 1.4-11.22 2.72-16.93 3.61a105 105 0 0 1-14.42 1.15c-8.94.15-17.94.07-26.45-2.12-2.83-.73-5.57-1.73-8.34-2.64-2.94-.97-4.2 3.67-1.28 4.63 2.52.83 5.01 1.73 7.57 2.43a66 66 0 0 0 10.3 1.85 133 133 0 0 0 31.82-.36 178 178 0 0 0 19-3.92c3-.75 1.73-5.38-1.27-4.63" class="d"/><path d="M239.3 286.42a5983 5983 0 0 0 .14-51.36q-.02-24.71-.1-49.42l-.04-20c0-3.08-4.8-3.09-4.8 0 0 13.4.06 26.78.09 40.17q.06 26.27.03 52.54-.02 14.04-.12 28.07c-.02 3.09 4.78 3.1 4.8 0" class="d"/><path d="M315.26 122.24a6.1 6.1 0 0 0-6.2 6.17c0 3.84 2.4 6.28 6.2 6.28 3.9 0 6.2-2.44 6.2-6.28a6.1 6.1 0 0 0-6.2-6.17m-94.8 0a6.1 6.1 0 0 0-6.2 6.17c0 3.84 2.4 6.28 6.2 6.28 3.9 0 6.2-2.44 6.2-6.28a6.1 6.1 0 0 0-6.2-6.17" class="a"/><path d="M315.26 119.84A8.6 8.6 0 0 0 307 126a8.9 8.9 0 0 0 2.81 9.33 9.5 9.5 0 0 0 9.95.68 8.92 8.92 0 0 0 1.4-13.91 9 9 0 0 0-5.89-2.26 2.4 2.4 0 1 0 0 4.8l.54.02c.6.01-.51-.12.06 0a8 8 0 0 1 .81.2l.16.06q.37.14-.12-.06l.3.14.41.24.27.18q.3.23-.11-.09c.07-.03.51.48.57.54l.1.12q.2.24.01 0l-.09-.12.18.25c.16.24.26.53.43.75.19.26-.19-.55-.03-.06l.2.6.07.32.03.16q.07.4-.02-.15c.08.02.04.73.04.83q0 .26-.03.51l-.01.17.02-.16-.2.92-.14.42c-.1.3-.1-.04.07-.16-.15.1-.3.57-.41.74l-.16.23c.15-.43.23-.29.02-.06l-.4.39q-.29.24.16-.12a4 4 0 0 0-.6.38 2 2 0 0 0-.38.2l.3-.13-.28.1a7 7 0 0 1-.74.2c-.2.04-.64.02 0 .02q-.26.01-.5.04a9 9 0 0 1-1.03 0q-.17 0-.33-.03c-.57-.03.54.13 0 0q-.38-.08-.75-.19a2 2 0 0 0-.42-.14q.52.22.17.06l-.2-.1a4 4 0 0 0-.65-.41c.37.1.33.29.1.07l-.25-.24-.28-.3c-.27-.3.12.1.12.15 0-.2-.4-.68-.5-.87-.15-.29.12.03.07.17a2 2 0 0 0-.15-.43q-.1-.37-.18-.75c-.13-.54.03.56 0 0l-.03-.5a4 4 0 0 1 .02-1s-.12.57 0 .08l.13-.55.15-.45c.17-.5-.25.45.01 0l.53-.88c.26-.43-.4.42-.04.06l.44-.45.24-.21q-.43.31-.11.09a6 6 0 0 1 .82-.5l-.12.05c.12-.17.74-.24.96-.29l.17-.03-.12.01a2 2 0 0 1 .71-.04 2.4 2.4 0 1 0 0-4.8Zm-94.8 0a8.6 8.6 0 0 0-8.27 6.16 8.9 8.9 0 0 0 2.81 9.34 9.5 9.5 0 0 0 9.95.68 8.92 8.92 0 0 0 1.4-13.92 9 9 0 0 0-5.89-2.26 2.4 2.4 0 0 0 0 4.8l.54.02c.6.02-.52-.11.06 0a8 8 0 0 1 .81.21l.16.06q.37.14-.12-.06l.3.14.4.24q.15.08.27.17.32.23-.1-.08c.07-.03.5.48.56.54l.1.11q.2.24.01 0l-.09-.12.18.26c.16.23.26.52.43.75.2.25-.18-.55-.02-.07l.19.61.07.32.03.16q.07.4-.02-.16c.08.03.04.73.04.84q0 .25-.03.5l-.01.17.02-.15-.2.91-.14.43c-.1.29-.1-.04.07-.17-.15.11-.3.57-.41.75l-.16.23c.15-.43.23-.3.02-.06l-.4.38q-.29.24.16-.11a4 4 0 0 0-.6.38 2 2 0 0 0-.38.19l.3-.13-.28.1a7 7 0 0 1-.74.2c-.2.04-.63.02 0 .02l-.5.05a9 9 0 0 1-1.03 0l-.33-.03c-.57-.04.54.12 0 0l-.75-.2a2 2 0 0 0-.42-.14q.52.23.17.07l-.19-.1a4 4 0 0 0-.66-.42c.37.1.33.3.1.07l-.25-.24-.28-.3c-.27-.3.12.11.12.15 0-.19-.4-.68-.5-.86-.15-.3.12.03.07.16a2 2 0 0 0-.15-.42q-.1-.37-.18-.76c-.13-.54.03.57 0 0l-.03-.5a4 4 0 0 1 .02-1s-.12.58 0 .08q.06-.28.14-.55l.14-.45c.17-.5-.25.46.01 0l.53-.88c.26-.44-.4.43-.04.06l.44-.45.24-.2-.11.08a6 6 0 0 1 .82-.49l-.12.05c.13-.18.74-.24.96-.3l.17-.02h-.12a2 2 0 0 1 .72-.03 2.4 2.4 0 1 0 0-4.8Z" class="d"/></svg>
