<svg xmlns="http://www.w3.org/2000/svg" viewBox="0 0 1024 1024"><path d="M85.06 191.8h873.53v404.17H85.06z"/><path d="M207.23 408.83h75.4v411.59h-75.4zm109.5 0h75.4v411.59h-75.4zm109.45 0h75.39v411.59h-75.4zm256.06 0h75.4v411.59h-75.4zm109.5 0h75.33v411.59h-75.33z"/><path d="M928.96 956.35h-814.2a61.44 61.44 0 0 1-61.26-61.31V226.37a61.44 61.44 0 0 1 61.25-61.31h814.21a61.44 61.44 0 0 1 61.31 61.3v668.68a61.36 61.36 0 0 1-61.31 61.31m-814.2-753.73A23.8 23.8 0 0 0 91 226.43V895.1a23.83 23.83 0 0 0 23.74 23.81h814.21a23.87 23.87 0 0 0 23.8-23.8V226.36a23.87 23.87 0 0 0-23.8-23.81h-814.2z"/><path fill="currentColor" d="M791.74 393.86a55.3 55.3 0 1 0 110.6 0 55.3 55.3 0 1 0-110.6 0m-164.74 0a55.3 55.3 0 1 0 110.6 0 55.3 55.3 0 1 0-110.6 0m-499.38-120.9h420.67v198.78H127.62z"/><path d="M209.66 312.32h35.9v120.06h-35.9zm55.62 69.44h35.9v50.62h-35.9zm55.62-31.3h35.96v81.92H320.9zm55.61-11.9h35.9v93.82h-35.9zm53.89-26.24h35.97v120.06H430.4z"/></svg>
