<svg xmlns="http://www.w3.org/2000/svg" viewBox="0 0 32 32"><defs><style>.cls-2{fill:#17061c}</style></defs><g id="washmachine"><path id="bg" d="M-.01 0h32v32h-32z" style="fill:none"/><path d="M21.57 29.5H10.41a5 5 0 0 1-5-5v-17a5 5 0 0 1 5-5h11.16a5 5 0 0 1 5 5v17a5 5 0 0 1-5 5m-11.16-25a3 3 0 0 0-3 3v17a3 3 0 0 0 3 3h11.16a3 3 0 0 0 3-3v-17a3 3 0 0 0-3-3Z" class="cls-2"/><path d="M25.57 11.5H6.41a1 1 0 0 1 0-2h19.16a1 1 0 0 1 0 2" class="cls-2"/><circle cx="15.99" cy="19.49" r="5.22" style="fill:#ff4a64"/><path d="M16 25.71a6.22 6.22 0 1 1 6.22-6.22A6.23 6.23 0 0 1 16 25.71m0-10.44a4.22 4.22 0 1 0 4.22 4.22A4.2 4.2 0 0 0 16 15.27" class="cls-2"/><circle cx="15.99" cy="19.49" r="1.82" class="cls-2"/><path d="M14.56 8.17h-4.14a1 1 0 0 1 0-2h4.14a1 1 0 0 1 0 2m7 0h-4.14a1 1 0 0 1 0-2h4.14a1 1 0 0 1 0 2" class="cls-2"/></g></svg>
