<svg xmlns="http://www.w3.org/2000/svg" fill="none" viewBox="0 0 24 24"><path fill="currentColor" d="M9.55 11.17a1 1 0 0 0-1.1 1.66l3.94 2.63a2 2 0 0 0 2.22 0l3.94-2.63a1 1 0 0 0-1.1-1.66L13.5 13.8z"/><path fill="currentColor" fill-rule="evenodd" d="M2 8a4 4 0 0 1 4-4h9a4 4 0 0 1 3.9 3.1A4 4 0 0 1 22 11v6a4 4 0 0 1-4 4H9a4 4 0 0 1-4-4v-.01a3.3 3.3 0 0 1-3-3.3zm13-2a2 2 0 0 1 1.73 1H9a4 4 0 0 0-4 4v3.96a1.3 1.3 0 0 1-1-1.27V8c0-1.1.9-2 2-2zM9 9a2 2 0 0 0-2 2v6c0 1.1.9 2 2 2h9a2 2 0 0 0 2-2v-6a2 2 0 0 0-2-2z" clip-rule="evenodd"/></svg>
