<svg viewBox="0 0 1024 1024" xmlns="http://www.w3.org/2000/svg"><path d="M754.207241 704.081911c-75.043627 0-207.539508-82.559969-329.694146-205.411874-138.095509-139.098917-245.699714-317.975779-186.754636-376.615739 10.804038-10.70984 26.138768-16.15691 45.55573-16.156911 75.133729 0 207.601965 82.559969 329.662406 205.470236 73.977762 74.435439 134.384949 153.707713 170.111379 223.151711 37.306286 72.550466 43.242773 127.021166 16.674997 153.37495-10.772298 10.740557-26.1101 16.187627-45.55573 16.187627z" fill="#79CCBF" /><path d="M754.207241 663.578031c-53.984354 0-174.704529-66.46142-300.965972-193.479514C289.948966 305.646152 244.118835 172.87587 266.334075 150.781448c3.832403-3.804758 12.293791-4.381205 16.980114-4.381205 54.046811 0 174.766986 66.46142 300.903515 193.511255 71.148767 71.575728 128.968596 147.288976 162.838722 213.143232 32.501192 63.205465 32.258531 98.077975 24.193386 106.083734-3.89486 3.863119-12.324508 4.439567-17.042571 4.439567z" fill="#F4CE73" /><path d="M657.861679 557.921257c-31.921673 0-103.313101-39.317196-177.961508-114.422257-96.557506-97.258867-123.674085-175.770394-110.527397-188.823908 2.252548-2.252548 7.272657-2.618075 10.043291-2.618074 31.953413 0 103.344841 39.316173 177.929768 114.450925 42.059161 42.330491 76.262051 87.096805 96.286176 126.017758 19.232662 37.400483 19.080103 58.032796 14.303678 62.749836-2.311933 2.281217-7.272657 2.64572-10.074008 2.64572z" fill="#FFFFFF" /><path d="M716.595837 408.077687V219.038764c0-0.42696-0.42696-0.729006-0.486345-1.09351 15.824148 6.877438 43.271442-3.409538 65.913641-25.989281 25.926824-25.929896 35.664998-58.247812 21.78828-72.123506-13.875694-13.876718-46.19361-4.138544-72.182891 21.788279-22.395444 22.457901-32.623034 49.543763-25.989282 65.489754-0.607164-0.121842-1.034124-0.669621-1.704769-0.669621H514.773705c-110.951285-85.146304-215.149023-127.143008-268.890716-105.351657-14.424496 4.440591-25.867439 12.473995-32.744876 25.562321-62.746764 119.41165 84.173613 318.917753 174.434223 409.17734 0.913306 0.913306 2.069272 1.888045 3.044011 2.860736v190.927992c-3.470971 4.443662-5.783928 9.494489-7.060713 15.095141l-171.084071 56.053626c-12.477067 3.4679-19.781464 16.310493-16.313565 28.728175 3.409538 12.473995 16.313565 19.778393 28.728175 16.368854l178.144784-58.365559c3.589742 1.884973 7.484602 2.920121 11.623146 3.589742l68.288031 125.378854c6.148431 11.380485 20.26781 15.702305 31.651368 9.616331 11.380485-6.085974 15.702305-20.26781 9.553873-31.709729l-59.768281-109.673476 120.328027 32.560577c12.41461 3.409538 25.256179-3.957317 28.60326-16.434383 3.408514-12.477067-3.954245-25.256179-16.431311-28.665718l-143.514935-38.830851c-0.121842-0.181228-0.302046-0.364503-0.423888-0.607164V589.937127c107.604204 77.293103 272.297183 153.371878 343.812501 120.383317 17.101957-7.911562 26.231942-23.308749 29.21452-43.759835 12.719727-56.297311-29.461276-154.527845-109.371431-258.482922z m-19.781464-154.712144v129.819444c-20.874974-25.381093-43.881677-50.943414-68.773354-76.199593l59.889101-59.889101 8.884253 6.26925z m-29.763323-27.144224l7.668901 7.668901-60.404114 59.462141c-24.679732-24.252772-49.665605-46.80487-74.526565-67.131042h127.261778z m-422.688531-97.533268c34.66159-34.417905 127.902731-0.364503 233.681348 77.751804H310.39698v19.781464h193.514326c30.977651 24.527173 62.629018 52.523269 94.001888 83.503992L423.510711 484.124722C276.953813 333.887981 196.796903 175.979266 244.362519 128.688051z m548.828132 552.571456c-47.686435 47.474491-206.234054-34.629849-356.046907-183.349193L611.608684 323.417729c31.769114 32.348633 60.222887 65.062793 85.205689 96.984466v191.625258h19.781464V446.543011c77.720063 106.539364 111.346505 200.207465 76.594814 234.716496z" fill="#27323A" /></svg>
