<svg xmlns="http://www.w3.org/2000/svg" fill-rule="evenodd" stroke-linejoin="round" stroke-miterlimit="2" clip-rule="evenodd" viewBox="0 0 64 64"><g id="Exp-3.-G"><path fill="currentColor" d="m42.25 31.7-10.6 10.6s3.77-1.17 9.19.71c.9.32 2.43-1.2 2.12-2.12-1.89-5.42-.7-9.2-.7-9.2"/><path fill="currentColor" d="M13.86 13.92A16.5 16.5 0 1 1 37.2 37.28a16.5 16.5 0 0 1-23.34-23.36"/><path fill="currentColor" d="M35.07 12.11A16.5 16.5 0 1 1 12.8 36.07a18.03 18.03 0 0 0 22.27-23.96"/><path fill="currentColor" d="M12.45 12.5a18.5 18.5 0 1 1 26.16 26.2 18.5 18.5 0 0 1-26.16-26.2m2.12 2.12A15.5 15.5 0 1 1 36.5 36.57a15.5 15.5 0 0 1-21.92-21.95"/><path fill="currentColor" d="M8.96 33.81A18.52 18.52 0 0 1 32.48 8.43a24 24 0 0 1 .03 3.3A15.52 15.52 0 0 0 12.26 33.6a24 24 0 0 1-3.22.22zm31.07 12.63a4.5 4.5 0 0 1 6.36-6.36l14.5 14.5c.39.39-.72 2.13-2.48 3.88s-3.5 2.87-3.89 2.48z"/><path fill="currentColor" d="M40.03 46.44a4.5 4.5 0 0 1 6.36-6.36L59.51 53.2c.4.39-.72 2.13-2.47 3.89s-3.5 2.86-3.9 2.47zm-16.62-24c-.02-.96.34-1.65.89-2.06.87-.64 2.17-.61 2.87.18q.47.51.48 1.43c.01 1.46-.67 2.32-1.34 3.2-.9 1.2-1.81 2.42-1.92 4.47a1 1 0 0 0 2 .1c.08-1.55.82-2.45 1.5-3.36.93-1.21 1.78-2.42 1.76-4.42a4 4 0 0 0-.99-2.75 4.2 4.2 0 0 0-5.55-.46 4.3 4.3 0 0 0-1.7 3.71 1 1 0 0 0 2-.05"/><circle cx="25.292" cy="33.197" r="1.23" fill="currentColor"/><path fill="currentColor" d="m43.29 8.5 3-5a1 1 0 1 0-1.72-1.03l-3 5A1 1 0 0 0 43.3 8.5m4.73 3.3 11-8a1 1 0 0 0-1.18-1.63l-11 8a1 1 0 0 0 1.18 1.62m1.65 6.15 8-2A1 1 0 1 0 57.2 14l-8 2a1 1 0 0 0 .48 1.94"/></g></svg>
