<svg xmlns="http://www.w3.org/2000/svg" fill="none" viewBox="0 0 24 24"><path stroke="currentColor" stroke-linecap="round" stroke-linejoin="round" stroke-width="1.5" d="M2.5 13.24v-1.73a3.77 3.77 0 0 1 3.76-3.76h11.48a3.77 3.77 0 0 1 3.76 3.76v1.44h-2.02a2 2 0 0 0-1.44.6 2 2 0 0 0-.6 1.63c.09 1.08 1.08 1.87 2.16 1.87h1.9v1.19A3.77 3.77 0 0 1 17.74 22h-5.48"/><path stroke="currentColor" stroke-linecap="round" stroke-linejoin="round" stroke-width="1.5" d="M2.5 12.41V7.84c0-1.19.73-2.25 1.84-2.67l7.94-3a1.9 1.9 0 0 1 2.57 1.78v3.8m7.7 6.22v2.06c0 .55-.43 1-1 1.02H19.6c-1.08 0-2.07-.79-2.16-1.87a2 2 0 0 1 .6-1.63 2 2 0 0 1 1.44-.6h2.08c.56.02 1 .47 1 1.02M7 12h7"/><path stroke="currentColor" stroke-linecap="round" stroke-linejoin="round" stroke-miterlimit="10" stroke-width="1.5" d="M3 16.5h5.34c.64 0 1.16.52 1.16 1.16v1.28"/><path stroke="currentColor" stroke-linecap="round" stroke-linejoin="round" stroke-miterlimit="10" stroke-width="1.5" d="M4.22 15.28 3 16.5l1.22 1.22m5.28 4.06H4.16c-.64 0-1.16-.52-1.16-1.16v-1.28"/><path stroke="currentColor" stroke-linecap="round" stroke-linejoin="round" stroke-miterlimit="10" stroke-width="1.5" d="m8.28 23 1.22-1.22-1.22-1.22"/></svg>
