<svg xmlns="http://www.w3.org/2000/svg" viewBox="0 -24.68 394.222 394.222"><defs><style>.a{fill:#fff}.b{fill:#211715}.c{fill:#88c5e9}</style></defs><path d="M226.43 318.55a16 16 0 0 1-5.76-1.2 12.2 12.2 0 0 1-6.76-8.19 26 26 0 0 1-1-7.62c.1-7.49.67-15.77 6.15-20.8 3.1-2.85 7.22-4.37 11.32-5.31 7.66-1.77 11.42-2.16 20.56-3.92a11 11 0 0 0 4.8-2.38c13.53-11.19 22.57-18.38 35.5-22.25 11.54-3.46 35.21-4.97 47.1-3.01s18.65 3.67 29.2 9.22c6.56 4.28 9.46 6.1 14.72 12.6 2.67 3.3 6.1 8.97 7.36 13.87a90 90 0 0 1 2.05 15.04c.47 5.96.12 14.9-4.8 19.36-2.23 2.08-6.14 3.15-10.28 3.39l-40.49.85c-16.57 0-44.95.11-58.79.11Z" class="a"/><path d="M361.47 297.12a18.9 18.9 0 0 0-19.26 19.14c0 11.55 8.04 19.5 19.26 19.5 11.65 0 19.26-8.02 19.26-19.5a18.87 18.87 0 0 0-19.26-19.14" class="b"/><path d="M361.47 310.03a6.27 6.27 0 0 0-6.39 6.35 6.16 6.16 0 0 0 6.4 6.47 6.1 6.1 0 0 0 6.38-6.47 6.26 6.26 0 0 0-6.39-6.35" class="a"/><path d="M251.26 297.12a18.9 18.9 0 0 0-19.25 19.14c0 11.55 8.04 19.5 19.25 19.5 11.66 0 19.26-8.02 19.26-19.5a18.87 18.87 0 0 0-19.26-19.14" class="b"/><path d="M251.26 310.03a6.27 6.27 0 0 0-6.39 6.35 6.16 6.16 0 0 0 6.4 6.47 6.1 6.1 0 0 0 6.39-6.47 6.26 6.26 0 0 0-6.4-6.35m-37.14-20.41a17.6 17.6 0 0 1 4.94-8.88 20 20 0 0 1 6.08-3.71c1.81.28 3.97.63 5.81 1.03a6 6 0 0 1 1.43.38 1.2 1.2 0 0 1 .76 1.52 33 33 0 0 1-3.58 7.7 5 5 0 0 1-2.99 2.3c-4.46 1.2-9.3 1.03-12.78 1.1q.14-.73.33-1.44" class="a"/><path d="M277.31 320.7q23.15-.02 46.29-.1h12.5c3.1 0 3.1-4.8 0-4.8q-23.85.02-47.7.1h-11.09c-3.09 0-3.1 4.8 0 4.8" class="b"/><path d="M290.82 275.08c-7.44.17-14.58.27-19.11.21a.95.95 0 0 1-.68-1.55 46 46 0 0 1 10.05-9.48 65 65 0 0 1 20.4-9.03 49 49 0 0 1 13.69-1.85.94.94 0 0 1 .9 1.09c-.63 3.9-2.17 12.32-3.08 19.17a.9.9 0 0 1-.87.81c-5.79.22-13.7.46-21.3.63m33.84-.84c.37-3.17 2.39-17.51 2.72-20.32a.6.6 0 0 1 .58-.54q4.25.08 8.49.55a81 81 0 0 1 15.88 3.75c6.54 2.43 14.1 8.41 17.49 15.82.13.3.06.74-.26.74z" class="c"/><path d="M388.56 315.65c6.8-6.34 5.92-17.23 5.13-25.62-.53-5.57-1.31-11.08-3.63-16.21a50 50 0 0 0-8.23-12.35c-6.11-6.89-14.3-11.62-22.8-14.94a78 78 0 0 0-13-3.7 104 104 0 0 0-13.1-1.97 144 144 0 0 0-26.28.78c-8.45.95-16.63 2.54-24.41 6.08-9.03 4.12-16.85 10.41-24.47 16.65-2.03 1.66-4.07 3.88-6.66 4.63a73 73 0 0 1-7.54 1.43c-4.29.76-8.58 1.5-12.83 2.45-5.05 1.14-10.2 2.9-13.9 6.67-3.34 3.4-4.98 8-5.67 12.62-1.35 9.1-1.75 21.32 7.25 26.68a16.6 16.6 0 0 0 8.01 2.1c3.09.1 3.09-4.7 0-4.8-4.14-.12-7.9-2.06-9.62-5.95-1.89-4.27-1.62-9.24-1.3-13.78.29-4.16 1.04-8.52 3.47-12 2.58-3.67 7.04-5.44 11.24-6.49 4.02-1 8.1-1.73 12.18-2.44l6.85-1.22a16.5 16.5 0 0 0 7.21-2.68c4.26-3.14 8.18-6.75 12.4-9.94a97 97 0 0 1 11.12-7.4 64 64 0 0 1 21.95-7.18 152 152 0 0 1 24.98-1.65 94 94 0 0 1 23.66 3.4 62 62 0 0 1 22.89 11.25c6.6 5.32 12.3 13.12 14.17 21.47a85 85 0 0 1 1.76 15.03 30 30 0 0 1-1.43 11.45 11 11 0 0 1-2.79 4.25c-2.26 2.11 1.14 5.5 3.4 3.4Z" class="b"/><path d="M290.82 272.68q-7 .17-14 .22h-4.01a3 3 0 0 0-.64 0q-1.4-.08.8 2.24l.26-.3a19 19 0 0 0 1.75-2.02q1-1.11 2.06-2.16c6.12-6 14.3-9.97 22.45-12.39a68 68 0 0 1 7.89-1.9 42 42 0 0 1 3.72-.45q.9-.07 1.82-.1l.9-.03h.45q.9.1-.01-.24l-.62-1.06q.14-.75.04-.18l-.06.38-.16.96-.32 1.87-.85 5q-.45 2.68-.87 5.36l-.4 2.7-.18 1.23-.11.8q-.08 1.08-.1.4l.86-.87c.5-.32-.19-.05-.48-.04l-1.16.04-2.43.08q-2.64.1-5.27.17-5.66.17-11.33.3c-3.08.07-3.1 4.87 0 4.8q6.9-.15 13.8-.37l6.01-.2a6.4 6.4 0 0 0 3.16-.54 3.6 3.6 0 0 0 1.63-2.89c.55-4.02 1.22-8.02 1.9-12.02l.82-4.83c.34-1.98.67-4.12-1.43-5.26a6.6 6.6 0 0 0-3.33-.38q-1.71.05-3.42.22a55 55 0 0 0-6.83 1.12 76 76 0 0 0-12.95 4.25 53 53 0 0 0-19.72 14.11 8 8 0 0 0-1.96 2.9 3.4 3.4 0 0 0 1 3.23c1.49 1.37 4.28.88 6.15.88q7.6-.04 15.17-.22c3.09-.07 3.1-4.87 0-4.8m36.24 1.56c.41-3.5.84-6.36 1.33-9.96l.81-5.99.38-2.8.1-.83.06-.4c.01-.2.19-.36.05.02l-.61 1.06.2-.2-1.06.62a7 7 0 0 1 1.53.07l1.89.1q1.88.1 3.76.3 2.56.26 5.1.78a72 72 0 0 1 10.95 2.93 30 30 0 0 1 9 5.48 32 32 0 0 1 4.09 4.21 24 24 0 0 1 1.65 2.37q.4.66.77 1.34l.35.68q.32.7.05-.04l.33-1.21-.1.18 1.43-1.1c.41-.15-.03-.01-.27-.01h-44.19c-3.09 0-3.1 4.8 0 4.8h40.74a21 21 0 0 0 4.8-.09c5.93-1.5-2.64-11.04-4.53-12.93a36 36 0 0 0-12.09-8.02 68 68 0 0 0-13.54-3.56 75 75 0 0 0-7.83-.89 25 25 0 0 0-4.57-.13 3.1 3.1 0 0 0-2.67 3c-.42 3.26-.82 6.17-1.31 9.73-.48 3.5-.99 6.99-1.4 10.49a2.4 2.4 0 0 0 2.4 2.4 2.46 2.46 0 0 0 2.4-2.4M304 285.28h6.75a2.4 2.4 0 1 0 0-4.8H304a2.4 2.4 0 1 0 0 4.8m-79.15-5.88c1.35.2 2.71.34 4.06.55a30 30 0 0 1 2.21.4q-.23-.2-.05-.04c.18.16.1.08-.05-.1q-.08-1.48-.28-.58l-.1.3-.31.9c-.2.55-.4 1.02-.64 1.55a40 40 0 0 1-1.85 3.5 3.5 3.5 0 0 1-1.63 1.7 16 16 0 0 1-3.95.76c-2.56.28-5.14.28-7.72.31-3.09.05-3.1 4.85 0 4.8a70 70 0 0 0 10.03-.61 12 12 0 0 0 4.71-1.5 10.6 10.6 0 0 0 3.2-3.9 38 38 0 0 0 2.15-4.47c.65-1.62 1.51-3.5.54-5.18-.87-1.5-2.46-2.01-4.05-2.31-1.66-.31-3.4-.47-5-.7a2.5 2.5 0 0 0-2.95 1.67 2.4 2.4 0 0 0 1.68 2.95" class="b"/><path d="M2.4 302.7v-29.52l123.53-45.87c13.04 12.8 28.14 27.56 39.16 38.56V297c-29.73 11.47-90.72 33.96-122.32 45.44A9172 9172 0 0 1 2.4 302.71" style="fill:#a98a75"/><path d="M147.63 287.75q-36.35 13.2-72.75 26.24l-16.82 5.99a2.46 2.46 0 0 0-1.67 2.95 2.4 2.4 0 0 0 2.95 1.68q34.05-12.08 68-24.42l21.56-7.81a2.46 2.46 0 0 0 1.68-2.95 2.4 2.4 0 0 0-2.95-1.68" class="b"/><path d="m82.43 245.9-1.68-1.66c-9.33 3.47-19.03 7.05-28.54 10.57 13.64 13.2 27.97 26.69 40.97 39.61v29.53c9.17-3.39 18.5-6.85 27.5-10.2v-30.18c-12.13-12.3-25.46-25.1-38.25-37.68" class="a"/><path d="M37.41 286.39c-2.64.97-3.1 2.9-1.48 4.35a7.3 7.3 0 0 0 7.46 1.1c2.77-1.03 3.25-2.7 1.41-4.38a7.7 7.7 0 0 0-7.39-1.07m11-4.04c-2.6.95-3.04 2.86-1.46 4.31a7.2 7.2 0 0 0 7.36 1.12c2.72-1.02 3.2-2.68 1.38-4.35a7.6 7.6 0 0 0-7.28-1.08m10.8-3.97c-2.54.94-2.98 2.83-1.41 4.27a7 7 0 0 0 7.24 1.12c2.69-1 3.14-2.64 1.35-4.3a7.5 7.5 0 0 0-7.17-1.09m64.52-9.26a3.56 3.56 0 0 1-.22-4.72c1.15-1.64-.44-3.45-2.07-3.61-2.5-.25-5.63-1.16-6.91-3.53a4 4 0 0 1-.47-1.37c.07.53.04-.62.01-.3 0 .12.12-.52.17-.65a4.4 4.4 0 0 1 1.84-1.9 12 12 0 0 1 8.94-.67 6.85 6.85 0 0 1 4.97 6.67 2.44 2.44 0 0 0 2.4 2.4 33 33 0 0 1 6.98.45 17 17 0 0 1 6.43 2.92 2.4 2.4 0 0 0 3.29-.86 2.45 2.45 0 0 0-.86-3.28c-4.76-3.4-10.14-4.07-15.84-4.03l2.4 2.4a11.8 11.8 0 0 0-5.2-9.8 16 16 0 0 0-10.8-1.98c-3.3.45-6.75 1.88-8.5 4.9a7.7 7.7 0 0 0 .8 8.55c2.46 3.23 6.46 4.49 10.35 4.88l-2.07-3.61a8.3 8.3 0 0 0 .97 10.54c2.29 2.07 5.7-1.32 3.4-3.4Zm-91.16 1.68c-3.36 1.16-6.74 2.26-10.1 3.44a2.4 2.4 0 0 0 1.29 4.63c3.35-1.19 6.73-2.28 10.08-3.44a2.4 2.4 0 0 0-1.27-4.63" class="b"/><path d="m11.73 284.68 30 29.53a2.4 2.4 0 0 0 2.33.61 3830 3830 0 0 0 48.64-17.48 2.46 2.46 0 0 0 1.67-2.95 2.4 2.4 0 0 0-2.95-1.67 3963 3963 0 0 1-48.64 17.48l2.34.61-30-29.52c-2.2-2.17-5.6 1.22-3.39 3.4m67.58-38.49c13.23 13.02 26.63 25.87 39.68 39.07l-.7-1.7v29.93c0 3.08 4.8 3.09 4.8 0v-21.4c0-2.81.14-5.67 0-8.48-.09-1.67-1.73-2.8-2.83-3.91q-2.4-2.42-4.82-4.82-4.93-4.9-9.89-9.76c-7.6-7.45-15.26-14.87-22.85-22.34-2.2-2.17-5.6 1.22-3.4 3.4Z" class="b"/><path d="M50.84 256.83c13.55 13.1 27.28 26 40.64 39.29l-.7-1.7v29.03c0 3.1 4.8 3.1 4.8 0V302.2c0-2.57.16-5.2 0-7.77-.1-1.9-2.56-3.56-3.84-4.82q-2.43-2.4-4.87-4.77-4.97-4.84-9.98-9.65c-7.54-7.26-15.13-14.48-22.65-21.76-2.23-2.15-5.63 1.24-3.4 3.4m104.58 11.68q-17.26 6.71-34.6 13.23a2.47 2.47 0 0 0-1.67 2.95 2.4 2.4 0 0 0 2.95 1.68q17.32-6.55 34.6-13.24a2.47 2.47 0 0 0 1.67-2.95 2.4 2.4 0 0 0-2.95-1.67" class="b"/><path d="M4.8 302.7v-29.52l-1.76 2.32 9.6-3.6 24.04-8.99 31.25-11.65q15.8-5.89 31.63-11.74 12.38-4.57 24.78-9.09l2.23-.8-2.34-.62c13.3 12.6 26.55 25.28 39.17 38.56l-.62-1.05c-.3-.7-.08-.19-.08.18l.01.88.01 1.64.02 3.84v8.81q-.01 7.57-.05 15.13l.33-1.2H163l1.44-1.1a4220 4220 0 0 1-45.63 17.2q-26.09 9.7-52.23 19.28-12.23 4.49-24.47 8.94l2.34.62c-11.02-10.73-22.08-21.4-32.97-32.26q-3.72-3.7-7.39-7.47c-2.15-2.22-5.55 1.18-3.4 3.4 10.28 10.59 20.93 20.82 31.5 31.1l8.86 8.62a2.4 2.4 0 0 0 2.33.62q18.35-6.66 36.67-13.41 21.49-7.91 42.95-15.9 18.79-7 37.53-14.13l3.8-1.45a14 14 0 0 0 1.96-.78 2.8 2.8 0 0 0 1.2-2.68l.03-8.66q.04-10.14-.02-20.3a9 9 0 0 0-.1-2.2 7 7 0 0 0-1.9-2.42q-2.1-2.2-4.24-4.36-4.52-4.62-9.12-9.16-9.82-9.73-19.85-19.25l-4.67-4.43a2.4 2.4 0 0 0-2.34-.62q-11.74 4.25-23.45 8.58-15.6 5.75-31.17 11.55L39 256.93l-25.33 9.47c-3.92 1.47-7.86 2.9-11.76 4.4l-.16.06A2.5 2.5 0 0 0 0 273.18v29.53c0 3.09 4.8 3.09 4.8 0" class="b"/><path d="M41.25 313.15v16.23a2.4 2.4 0 0 0 4.8 0v-16.24a2.4 2.4 0 0 0-4.8 0" class="b"/><path d="M368.36 115.38v36.07H243.52v-36.07zm-13.34-18.37v18.37h-98.16V97.01zM342.03 2.4V97h-72.19c0-10.23.36-80.85.36-94.6Z" style="fill:#b3b3b3"/><path d="M272.24 97.01c0-10.92.08-21.84.13-32.76l.2-45.83q.04-8.01.04-16.02l-2.4 2.4h71.82l-2.4-2.4v94.61c0 3.09 4.8 3.1 4.8 0V2.4a2.44 2.44 0 0 0-2.4-2.4h-71.82a2.44 2.44 0 0 0-2.4 2.4q-.02 17.63-.13 35.27l-.2 45.13q-.03 7.1-.04 14.21c0 3.09 4.8 3.1 4.8 0" class="b"/><path d="M259.26 115.39V97l-2.4 2.4h98.16l-2.4-2.4v18.38c0 3.08 4.8 3.09 4.8 0V97a2.43 2.43 0 0 0-2.4-2.4h-98.16a2.43 2.43 0 0 0-2.4 2.4v18.38c0 3.08 4.8 3.09 4.8 0" class="b"/><path d="M368.36 112.99H243.5a2.43 2.43 0 0 0-2.4 2.4v36.05a2.44 2.44 0 0 0 2.4 2.4h124.85a2.44 2.44 0 0 0 2.4-2.4V115.4c0-3.1-4.8-3.1-4.8 0v36.05l2.4-2.4H243.5l2.4 2.4V115.4l-2.4 2.4h124.85c3.09 0 3.1-4.8 0-4.8" class="b"/><path d="M147.58 116.55V65.92l-62.8-62.8-62.8 62.8v82.8h125.6Z" class="a"/><path d="M90.24 86.32h29.46v26.4H90.24z" class="c"/><path d="M19.57 67.43v81.3a2.44 2.44 0 0 0 2.4 2.4h110.2c5.05 0 10.15.17 15.2 0h.21a2.44 2.44 0 0 0 2.4-2.4v-81.3c0-3.09-4.8-3.1-4.8 0v81.3l2.4-2.4H27.12c-1.63 0-3.32-.13-4.94 0h-.21l2.4 2.4v-81.3c0-3.09-4.8-3.1-4.8 0" class="b"/><path d="m16.02 75.26 7.04-7.04 16.8-16.8 20.31-20.31 17.64-17.64 5.77-5.77c.9-.91 1.94-1.78 2.77-2.77l.12-.12h-3.4l7.04 7.03 16.8 16.8 20.31 20.32 17.64 17.64c2.84 2.84 5.6 5.8 8.54 8.54l.12.12c2.19 2.19 5.58-1.2 3.4-3.4l-7.04-7.03-16.8-16.8-20.31-20.32-17.64-17.63c-2.84-2.84-5.6-5.81-8.54-8.54l-.12-.12a2.44 2.44 0 0 0-3.4 0l-7.03 7.03-16.8 16.8-20.31 20.31L21.29 63.2c-2.84 2.84-5.8 5.6-8.54 8.54l-.12.12c-2.19 2.19 1.2 5.58 3.4 3.4Zm103.68 8.66H90.24a2.44 2.44 0 0 0-2.4 2.4v26.4a2.44 2.44 0 0 0 2.4 2.4h29.46a2.44 2.44 0 0 0 2.4-2.4v-26.4c0-3.1-4.8-3.1-4.8 0v26.4l2.4-2.4H90.24l2.4 2.4v-26.4l-2.4 2.4h29.46c3.09 0 3.1-4.8 0-4.8m-97.73 18H55.9l-2.4-2.4v49.21c0 3.1 4.8 3.1 4.8 0V99.52a2.44 2.44 0 0 0-2.4-2.4H21.97c-3.09 0-3.1 4.8 0 4.8" class="b"/></svg>
