<svg xmlns="http://www.w3.org/2000/svg" preserveAspectRatio="xMidYMid" viewBox="-33 0 256 256"><defs><linearGradient id="linear-gradient-1" x1="72" x2="72" y1="256" y2="83" gradientUnits="userSpaceOnUse"><stop offset="0" stop-color="#0bdfff"/><stop offset="1" stop-color="#00bcf2"/></linearGradient></defs><g id="energy_bottle"><path id="path-1" fill-rule="evenodd" d="M134 240a16 16 0 0 1-16 16H26a16 16 0 0 1-16-16L0 99a16 16 0 0 1 16-16h112a16 16 0 0 1 16 16z" style="fill:url(#linear-gradient-1)"/><path id="path-2" fill-rule="evenodd" d="M82.15 203.67c-1.2 2.75-3.62 5.33-6.95 5.33a7.2 7.2 0 0 1-7.2-7.2V177H51.2c-3.98 0-7.2-2.2-7.2-7.2s17.85-43.47 17.85-43.47c1.2-2.75 3.62-5.33 6.95-5.33a7.2 7.2 0 0 1 7.2 7.2V153h16.8c3.98 0 7.2 2.34 7.2 7.2s-17.86 43.47-17.86 43.47" style="fill:#fce202"/><path id="rect-1" d="M23 33h98v33H23z" style="fill:#ff5134"/><path id="path-3" fill-rule="evenodd" d="M157 83H18a8 8 0 0 1-8-8v-1a8 8 0 0 1 8-8h108a8 8 0 0 1 8 8v1h23a25 25 0 0 0 0-50H23v-9a8 8 0 0 1 8-8h21V7a7 7 0 0 1 7-7h26a7 7 0 0 1 7 7v1h21a8 8 0 0 1 8 8v1h36a33 33 0 1 1 0 66" style="fill:#fc0231"/></g></svg>
