<svg xmlns="http://www.w3.org/2000/svg" viewBox="0 0 1024 1024"><path fill="currentColor" d="m512 213.33 1.7.66 1.76.52 423.2 124.1v325.35L513.03 788.29l-1.64.45-1.51.55-1.69-.64-1.73-.51L85.33 664.09v-325.4l423.53-124.31 1.54-.45 1.51-.58zm0-42.66a43 43 0 0 0-15.13 2.77L70.2 298.67a42.7 42.7 0 0 0-27.52 39.89v325.7A42.7 42.7 0 0 0 69.82 704L494.4 829.08a42.8 42.8 0 0 0 30.6.17L953.74 704a42.7 42.7 0 0 0 27.58-39.91V338.43a42.7 42.7 0 0 0-27.22-39.76l-426.66-125.1a43 43 0 0 0-15.45-2.9"/><path fill="currentColor" d="M718.06 447.66c-3.4 12.95-6.79 32.53-6.79 42.26l-6.78 35.82h27.18l-6.83-35.82c0-9.7-3.37-32.51-6.78-42.26"/><path fill="currentColor" d="M512 256 128 362.5V640l384 106.67L896 640V362.6zM336.36 597.33h-54v-3.26l-47.7-188.74h54.02l12.7 78.1c3.17 19.52 6.4 42.3 9.55 65.1 3.16-22.77 6.38-42.33 9.54-65.1l9.54-78.1H384zm111.64 0h-42.67v-192H448zm88.9 0c-21.36 0-39.1-3.2-46.23-6.38l10.64-38.4c10.69 3.14 28.46 6.38 42.67 6.38 21.37 0 28.46-6.38 28.46-15.98 0-12.82-10.65-16.02-31.98-25.57-39.15-19.25-46.23-41.65-46.23-54.47 0-31.96 24.92-57.58 78.2-57.58 17.8 0 32.03 3.2 39.11 6.4l-7.08 38.4a78.5 78.5 0 0 0-32.02-6.38c-17.8 0-28.46 6.38-28.46 15.96 0 9.67 3.58 12.82 32.02 25.62 32 16 42.67 35.18 42.67 54.42 0 35.16-32.02 57.58-81.77 57.58m201.51 0-6.74-39.06h-34v3.27l-6.75 35.8H640l47.5-192h61.09l40.74 192z"/></svg>
