<svg xmlns="http://www.w3.org/2000/svg" fill="currentColor" preserveAspectRatio="xMidYMid" viewBox="0 0 31.781 31.906"><path d="M28.8 31.9H2.98A3 3 0 0 1 0 28.93v-15q0-.06.03-.1l.05-.24.02-.04.07-.12.07-.12.06-.05.02-.03.02-.02 4.63-4.03v-4.2a1 1 0 0 1 .99-1h4.98l4.3-3.74a1 1 0 0 1 1.3 0l4.3 3.75h4.98a1 1 0 0 1 1 1v4.2l4.62 4.02.02.03.02.02.06.04.07.13q.05.05.08.12v.04q.05.1.06.23l.02.1.01.04v14.97a3 3 0 0 1-2.98 2.99m-.5-1.99L15.99 18.96c-.04-.03-.16-.03-.2 0L3.48 29.92zM1.9 28.65l7.13-6.34-7.12-6.24zm.6-14.7 2.47 2.16v-4.3zM15.9 2.3l-1.93 1.68h3.84zm4.86 3.6q-.15.06-.29.07a1 1 0 0 1-.34-.06H6.9v11.9l3.62 3.17 3.95-3.52a2.2 2.2 0 0 1 2.81 0l3.96 3.52 3.66-3.2V5.9zm6.06 5.91v4.3l2.45-2.16zm3.09 4.24-7.16 6.26 7.16 6.37z"/></svg>
