<svg xmlns="http://www.w3.org/2000/svg" fill="currentColor" viewBox="0 0 32 32"><path d="M5 12.12V1a1 1 0 0 0-2 0v11.12a4.02 4.02 0 0 0 0 7.76V31a1 1 0 0 0 2 0V19.88a4.02 4.02 0 0 0 0-7.76M4.01 18h-.02a2 2 0 0 1 0-4h.02a2 2 0 0 1 0 4m13 .12V1a1 1 0 0 0-2 0v17.12a4.01 4.01 0 0 0 0 7.76V31a1 1 0 0 0 2 0v-5.12a4.02 4.02 0 0 0 0-7.76M16 24h-.02a2 2 0 0 1 0-4H16a2 2 0 0 1 0 4M29 6.12V1a1 1 0 0 0-2 0v5.12a4.01 4.01 0 0 0 0 7.76V31a1 1 0 0 0 2 0V13.88a4.02 4.02 0 0 0 0-7.76M28 12h-.02a2 2 0 0 1 0-4H28a2 2 0 0 1 0 4"/></svg>
