<svg xmlns="http://www.w3.org/2000/svg" fill="currentColor" style="fill-rule:evenodd;clip-rule:evenodd;stroke-linejoin:round;stroke-miterlimit:2" viewBox="0 0 64 64"><path id="Icons" d="M-704-64H576v800H-704z" style="fill:none"/><g id="Icons1"><path id="error-circle" d="M32.09 56.06a24.3 24.3 0 0 0 16.65-6.97A24.4 24.4 0 0 0 55.7 29 23.73 23.73 0 0 0 31.93 8.03c-9.05 0-17.85 5.67-21.71 13.9a24.2 24.2 0 0 0 0 20.23 24.6 24.6 0 0 0 21.87 13.9m-.29-4c-9.2-.1-17.8-7.23-19.5-16.38a20.4 20.4 0 0 1 5.8-18.02 20.2 20.2 0 0 1 21.45-4.1 20.5 20.5 0 0 1 12.2 15.95 20.3 20.3 0 0 1-5.56 16.48 20.2 20.2 0 0 1-14.13 6.06zm-12.38-10.3 9.73-9.73-9.74-9.74 2.8-2.8 9.75 9.74 10.08-10.08 2.8 2.8-10.07 10.09 10.1 10.1-2.8 2.8-10.1-10.1-9.74 9.73z"/></g></svg>
