<svg xmlns="http://www.w3.org/2000/svg" fill="currentColor" viewBox="0 0 32 32"><path d="M3 23h3.65A16 16 0 0 0 29 29.86a1 1 0 0 0 .47-.61 1 1 0 0 0-.1-.76l-2-3.46a1 1 0 0 0-1.37-.37A9.9 9.9 0 0 1 13.92 23H21a1 1 0 0 0 1-1v-4a1 1 0 0 0-1-1h-9.94a8 8 0 0 1 0-2H23a1 1 0 0 0 1-1v-4a1 1 0 0 0-1-1h-9.08A9.9 9.9 0 0 1 26 7.34a1 1 0 0 0 .76.1 1 1 0 0 0 .61-.44l2-3.46a1 1 0 0 0 .1-.76 1 1 0 0 0-.47-.64A16 16 0 0 0 6.65 9H3a1 1 0 0 0-1 1v4a1 1 0 0 0 1 1h2v2H3a1 1 0 0 0-1 1v4a1 1 0 0 0 1 1m18 5a12 12 0 0 0 5.11-1.14l1 1.73A14 14 0 0 1 8.91 23h2.37A12 12 0 0 0 21 28m0-26a14 14 0 0 1 6.12 1.41l-1 1.73A12 12 0 0 0 11.28 9H8.91A14 14 0 0 1 21 2M4 11h18v2H4Zm3 5v-1h2c0 .34-.05.67-.05 1s0 .66.05 1H7zm-3 3h16v2H4Z"/></svg>
