<svg xmlns="http://www.w3.org/2000/svg" fill="none" viewBox="0 0 30 30"><path fill="currentColor" d="M18.75 28.44h-7.5c-6.79 0-9.69-2.9-9.69-9.69v-7.5c0-6.79 2.9-9.69 9.69-9.69h7.5c6.79 0 9.69 2.9 9.69 9.69v7.5c0 6.79-2.9 9.69-9.69 9.69m-7.5-25c-5.76 0-7.81 2.05-7.81 7.81v7.5c0 5.76 2.05 7.81 7.81 7.81h7.5c5.76 0 7.81-2.05 7.81-7.81v-7.5c0-5.76-2.05-7.81-7.81-7.81z"/><path fill="currentColor" d="M9.16 19.05q-.3 0-.57-.2a.94.94 0 0 1-.18-1.31l2.98-3.86a2.2 2.2 0 0 1 3.09-.4l2.28 1.8q.15.1.24.07.09 0 .21-.12l2.9-3.73a.9.9 0 0 1 1.3-.16c.42.31.5.9.17 1.31l-2.9 3.73a2 2 0 0 1-1.45.82 2.2 2.2 0 0 1-1.63-.45l-2.29-1.8a.3.3 0 0 0-.23-.06q-.09-.01-.22.12L9.9 18.68a.9.9 0 0 1-.73.37"/></svg>
