<svg xmlns="http://www.w3.org/2000/svg" viewBox="-8.6 0 261.35 261.35"><defs><style>.a{fill:#fff}.b{fill:#211715}</style></defs><path d="m210.64 173.77-110.18 63.62-24.76 14.28a9.3 9.3 0 0 1-9.1 0c-14.67-8.02-42.56-24-56.32-32.51a16.3 16.3 0 0 1-7.92-12.88c-.77-14.46-.18-41.99 1-53.87C5.45 131.38 13.7 116.66 29 107.82L140.44 43.5c11.4-6.58 25.25-6.2 36.86 0 13.51 7.23 35.33 19.54 51.78 29.95 6.18 3.92 10.55 9.32 11.5 16.65 1.24 11.07 2.14 46.1 1.13 59.93a11.5 11.5 0 0 1-5.74 9.12Z" class="a"/><path d="m22.82 131.76 16.62 9.6 26.27 15.16 6.1 3.52c2.23 1.3 4.25-2.16 2.02-3.45l-16.63-9.6-26.26-15.17-6.1-3.52c-2.23-1.29-4.25 2.17-2.02 3.46m194.06 47.98-8.1-4.67-1.16-.67a2 2 0 0 0-2.02 3.45l8.1 4.68 1.16.67a2 2 0 1 0 2.02-3.46M11.96 193.15l15.58 9 24.98 14.42 5.72 3.3c2.23 1.3 4.25-2.16 2.02-3.45l-15.6-9L19.7 193l-5.72-3.3c-2.23-1.29-4.25 2.17-2.02 3.45" class="b"/><path d="M74.7 249.94c-4.25 2.32-8.1-.55-11.77-2.58q-5.55-3.08-11.07-6.2-12.27-6.96-24.45-14.09-5.47-3.2-10.9-6.46c-3.29-1.98-6.97-3.78-9.35-6.9a14 14 0 0 1-2.65-6.12 41 41 0 0 1-.32-5.53q-.19-6.34-.17-12.7-.01-13.42.65-26.83c.4-8.13 1.06-16.24 3.34-24.1a49.6 49.6 0 0 1 12.08-21.29c4.05-4.07 8.83-6.95 13.76-9.8l32.43-18.72 44.76-25.84 21.32-12.31c3.15-1.82 6.29-3.68 9.46-5.46a34 34 0 0 1 14.9-4.27 38 38 0 0 1 15.4 2.55c4.23 1.63 8.18 4.08 12.14 6.26Q197.84 57 211.2 64.89q6.8 4.03 13.53 8.2c3.86 2.4 7.76 4.77 10.44 8.55 4.05 5.73 3.87 12.89 4.2 19.62q.6 12.16.73 24.34c.09 7.44.13 14.9-.26 22.32a15 15 0 0 1-.76 4.76 9.7 9.7 0 0 1-4.12 4.73c-2.2 1.32-.2 4.78 2.02 3.46a14.1 14.1 0 0 0 6.78-11.66c.22-3.34.3-6.7.34-10.05.12-8.55 0-17.11-.25-25.66a359 359 0 0 0-1.08-21.49 25 25 0 0 0-3.66-11.66c-2.7-4.16-6.52-7.07-10.67-9.67a780 780 0 0 0-28.07-16.7q-6.7-3.81-13.45-7.53a132 132 0 0 0-12.55-6.54 40 40 0 0 0-32.1.38c-3.67 1.7-7.14 3.96-10.64 5.98l-10.48 6.05L74.8 79.08l-38.05 21.97c-3.77 2.18-7.66 4.24-11.3 6.62a50 50 0 0 0-16.96 18.74c-4.31 8.33-6.36 17.6-7.2 26.9A339 339 0 0 0 .13 178a420 420 0 0 0 .15 26.8c.22 4.87 1.61 9.24 5.02 12.86 2.79 2.96 6.65 4.87 10.1 6.95q23.5 14.12 47.55 27.33a21 21 0 0 0 5.84 2.66 11.5 11.5 0 0 0 7.91-1.21c2.26-1.24.24-4.7-2.02-3.45Z" class="b"/><path d="m198.07 85.92-9.1 5.25-22.26 12.85-27.75 16.02-25.94 14.98-16.46 9.5-1 .57c-2.23 1.3-.22 4.75 2.01 3.46l14.79-8.54 25.18-14.54 27.92-16.12 23.36-13.48c3.69-2.13 7.51-4.13 11.11-6.42l.16-.09c2.22-1.28.21-4.74-2.02-3.45Z" class="b"/><path d="M82.75 215.05a1.74 1.74 0 0 1-1.12-1.88c-.11-9.65.03-23.05 1.4-30.8.88-4.99 3.69-10.2 7.67-12.5l131.73-76.06c2.04-1.17 3.77-1.23 5.1-.46a6 6 0 0 1 2.56 4.11c1.53 6.9 1.57 20.22 1.4 30.1a5.4 5.4 0 0 1-2.78 4.92l-143.58 82.7a6 6 0 0 1-2.38-.13" style="fill:#88c5e9"/><path d="M83.76 213.33c-.36-.18-.19-.17-.12.04a4 4 0 0 1-.02-1.1l-.02-2.44.02-5.17q.03-5.42.3-10.84c.3-6.19.45-12.99 3.92-18.35 1.88-2.92 4.52-4.25 7.38-5.9l11.73-6.77 17.8-10.27 21.4-12.36 22.52-13 21.45-12.38 17.86-10.32 11.87-6.85c1.72-1 5.64-4.02 7.3-2a8 8 0 0 1 1.3 3.87q.35 2.04.52 4.1c.31 3.34.45 6.69.52 10.03q.11 5.27.04 10.54c-.01 1.54.24 3.43-.32 4.89a3.4 3.4 0 0 1-1.51 1.7c-1.48.9-3 1.73-4.5 2.6l-11.99 6.9-17.57 10.12-21.1 12.15-22.58 13-21.95 12.65-19.52 11.24-14.94 8.61-8.33 4.8-1.1.63 1.01-.27a4 4 0 0 1-1.85-.06c-2.45-.8-3.5 3.07-1.06 3.86 3.02.98 5.13-.77 7.56-2.17l11.71-6.75 17.68-10.18 21.49-12.38 23-13.25 22.57-13 19.87-11.44 14.98-8.63 7.93-4.56a9 9 0 0 0 3.27-2.82c1.81-2.74 1.26-6.69 1.27-9.82q.06-5.5-.13-10.99c-.12-3.3-.3-6.62-.72-9.91-.37-2.95-.7-6.42-3-8.58-2.57-2.41-5.94-1.76-8.72-.15l-7.73 4.46-15.36 8.87-20.32 11.73-22.88 13.2-22.79 13.16-20.11 11.61-14.85 8.58-7.02 4.05c-9.88 5.76-9.81 19.24-10.15 29.25q-.17 5.22-.17 10.42 0 2.48.03 4.95c.01 1.74.43 3.34 2.11 4.15 2.31 1.1 4.34-2.34 2.02-3.45" class="b"/><path d="M80.94 258.59c-2.07-1.2-3.35-3.76-3.35-7.4 0-7.3 5.12-16.17 11.44-19.82 3.16-1.82 6.02-2 8.1-.8s3.34 3.76 3.34 7.4c0 7.3-5.12 16.17-11.44 19.82-3.16 1.82-6.02 2-8.1.8m134.36-77.42c-2.07-1.2-3.35-3.76-3.35-7.4 0-7.3 5.12-16.17 11.44-19.82 3.16-1.82 6.02-2 8.1-.8s3.34 3.76 3.34 7.4c0 7.3-5.12 16.17-11.44 19.82-3.16 1.83-6.02 2-8.09.8" class="a"/><path d="M81.95 256.86c-3.69-2.25-2.4-8.36-1.25-11.68a23 23 0 0 1 8.2-11.37c1.83-1.26 4.37-2.59 6.64-1.78 1.74.62 2.52 2.43 2.8 4.13.77 4.6-1.27 9.58-3.74 13.36a21 21 0 0 1-5.17 5.63c-2.03 1.47-5.01 3.04-7.48 1.71-2.27-1.22-4.3 2.23-2.02 3.45 6.04 3.25 12.75-1.77 16.4-6.4 3.72-4.7 6.62-11.03 6.09-17.16-.25-2.86-1.24-5.67-3.6-7.45-2.67-2-6.17-1.76-9.1-.5-5.72 2.46-9.88 8-12.22 13.6-2.3 5.5-3.6 14.23 2.42 17.91 2.2 1.35 4.22-2.11 2.03-3.45m47.73-102.84v26.48c0 2.57 4 2.58 4 0v-26.48c0-2.58-4-2.58-4 0" class="b"/><path d="m209.63 172.04-10.94 6.32-26.38 15.23-31.8 18.36-27.5 15.88c-4.44 2.57-9.02 5-13.37 7.72l-.2.11c-2.22 1.29-.2 4.75 2.03 3.46l10.93-6.32 26.38-15.23 31.8-18.37 27.5-15.87c4.45-2.57 9.02-5 13.38-7.72l.19-.11c2.23-1.29.21-4.75-2.02-3.46m-24.52-50.03v26.48c0 2.58 4 2.58 4 0v-26.48c0-2.58-4-2.58-4 0" class="b"/><path d="M216.3 179.45c-3.68-2.26-2.38-8.37-1.24-11.68a23 23 0 0 1 8.2-11.37c1.83-1.26 4.37-2.6 6.65-1.78 1.73.62 2.51 2.42 2.8 4.12.77 4.6-1.28 9.58-3.74 13.37a21 21 0 0 1-5.17 5.62c-2.03 1.47-5.02 3.05-7.5 1.72-2.26-1.22-4.28 2.23-2.01 3.45 6.04 3.25 12.75-1.77 16.4-6.4 3.72-4.7 6.63-11.03 6.1-17.16-.26-2.86-1.25-5.68-3.6-7.45-2.68-2-6.18-1.76-9.1-.5-5.72 2.45-9.88 7.99-12.22 13.59-2.3 5.51-3.6 14.23 2.43 17.92 2.2 1.35 4.2-2.11 2-3.45m-133.64 77.8-8.1-4.67-1.16-.67a2 2 0 0 0-2.02 3.46l8.1 4.67 1.16.67a2 2 0 1 0 2.02-3.45" class="b"/><path d="M36.4 75.37a.4.4 0 0 1-.22-.39v-57.2a4 4 0 0 1 2-3.47S53 5.7 58.48 2.53a4 4 0 0 1 3.98 0l11.82 6.8a2.4 2.4 0 0 1 1.2 2.07v58.4L51.1 83.86Z" class="a"/><path d="m37.82 73.95-.16-.15.51.88c.15.56.01.01.01-.26V18.96c0-1.15-.09-2.2 1.03-2.93 1.76-1.17 3.68-2.14 5.5-3.2l9.98-5.8 4.3-2.49a2.4 2.4 0 0 1 2.24-.4 22 22 0 0 1 2.68 1.52l5.95 3.43 2.49 1.44c.63.36 1.04.44 1.13 1.15a49 49 0 0 1 0 5.69V69.8l.99-1.73-21.33 12.31-3.04 1.75h2.02l-14.7-8.49c-2.24-1.29-4.26 2.17-2.03 3.45l14.71 8.5a2 2 0 0 0 2.02 0l15.32-8.85 8.01-4.62c.78-.45 1.68-.83 1.95-1.8a6 6 0 0 0 .07-1.45v-57.2A4.7 4.7 0 0 0 76 8.13a20 20 0 0 0-3.26-2L65.5 1.97a15 15 0 0 0-3.57-1.8 6.4 6.4 0 0 0-4.79.82C53.2 3.22 49.31 5.53 45.4 7.81c-2.72 1.58-5.51 3.08-8.18 4.75-2.41 1.5-3.03 3.83-3.03 6.44v55.48a3 3 0 0 0 .8 2.3c1.84 1.82 4.67-1 2.84-2.83" class="b"/><path d="m67.38 13.12-11.62 6.71c-1.36.79-2.77 1.53-4.1 2.37a6.6 6.6 0 0 0-3 5.96V68.3c0 2.57 4 2.58 4 0V29.47a11 11 0 0 1 .07-2.59c.36-1.37 2.59-2.17 3.69-2.8l12.98-7.5c2.23-1.29.22-4.75-2.02-3.46" class="b"/><path d="m59.92 67.01 1.16-5.49a.62.62 0 0 0-.92-.66l-1.57.9a1.06 1.06 0 0 1-1.5-1.27c1.61-4.45 3-8.3 4.38-12.01a2.7 2.7 0 0 1 1.16-1.37l2.61-1.51a1.05 1.05 0 0 1 1.5 1.32c-.63 1.5-1.28 3.02-2.13 4.98a.63.63 0 0 0 .9.8l2.4-1.38a1.06 1.06 0 0 1 1.47 1.39c-2.01 4.08-5.03 10.1-7.48 15a1.05 1.05 0 0 1-1.98-.7" style="fill:#7abee6"/><path d="m40.62 21.6 3.95 2.28.56.33a2 2 0 0 0 1.55.2 2 2 0 0 0 .47-3.66l-3.95-2.28-.56-.33a2 2 0 0 0-1.55-.2 2 2 0 0 0-.47 3.66m27.89 3.57v7.87a10.5 10.5 0 0 1-4.75 8.22l-1.15.67a2.9 2.9 0 0 1-4.75-2.74v-9.35a2.8 2.8 0 0 1 1.38-2.4l6.6-3.8a1.78 1.78 0 0 1 2.67 1.53" class="b"/><path d="M64.4 38.73c4.13-1.12 8.54-.83 11.82 2.15 2.97 2.72 4.6 6.5 5.73 10.28.69 2.3 1.23 4.65 1.87 6.97a19 19 0 0 0 2.17 5.8 17.2 17.2 0 0 0 9.23 6.3c2.47.72 3.53-3.14 1.06-3.86-3.39-1-6.68-3.19-7.8-6.63-1.5-4.58-2.28-9.37-4.16-13.82a20.7 20.7 0 0 0-7.45-9.55c-4.02-2.61-9.02-2.72-13.53-1.5-2.48.67-1.43 4.53 1.06 3.86" class="b"/></svg>
