<svg fill="currentColor" viewBox="0 0 64 64" xmlns="http://www.w3.org/2000/svg" style="fill-rule:evenodd;clip-rule:evenodd;stroke-linejoin:round;stroke-miterlimit:2;"><rect id="Icons" x="-704" y="-192" width="1280" height="800" style="fill:none;"/><g id="Icons1"><path id="exclamation" d="M34.476,42.174l-5.464,0l-0.425,-34.192l6.348,0l-0.459,34.192Zm-6.118,10.405c0,-0.981 0.3,-1.805 0.9,-2.47c0.599,-0.665 1.488,-0.998 2.666,-0.998c1.178,0 2.073,0.333 2.683,0.998c0.611,0.665 0.916,1.489 0.916,2.47c0,0.982 -0.305,1.794 -0.916,2.438c-0.61,0.643 -1.505,0.965 -2.683,0.965c-1.178,0 -2.067,-0.322 -2.666,-0.965c-0.6,-0.644 -0.9,-1.456 -0.9,-2.438Z" style="fill-rule:nonzero;"/></g></svg>
