<svg xmlns="http://www.w3.org/2000/svg" preserveAspectRatio="xMidYMid" viewBox="0 0 256 256"><defs><style>.cls-3{fill:#a74920}</style></defs><g id="expander_2"><path id="path-1" fill-rule="evenodd" d="M225.82 35.88 35.84 225.78a13 13 0 1 0 18.38 18.38l56.41-56.4c2.4-2.4 8.25-5.76 14.37-5.76h14v8h-14.3c-2.17 0-6.24 1.24-8.35 3.35l-56.47 56.47a21 21 0 0 1-29.7-29.7l189.98-189.9a13 13 0 1 0-18.38-18.38l-56.41 56.4c-2.4 2.4-8.25 5.76-14.37 5.76h-14v-8h14.3c2.17 0 6.24-1.23 8.35-3.35l56.47-56.47a21 21 0 0 1 29.7 29.7" class="cls-3"/><path id="path-2" fill-rule="evenodd" d="M248 248h-28a8 8 0 0 1-8-8V132a8 8 0 0 1 8-8h28a8 8 0 0 1 8 8v108a8 8 0 0 1-8 8M36 132H8a8 8 0 0 1-8-8V16a8 8 0 0 1 8-8h28a8 8 0 0 1 8 8v108a8 8 0 0 1-8 8" style="fill:#1c8cea"/><path id="path-3" fill-rule="evenodd" d="M159 199h-14v-26h14a8 8 0 0 1 8 8v10a8 8 0 0 1-8 8M89 75V65a8 8 0 0 1 8-8h14v26H97a8 8 0 0 1-8-8" class="cls-3"/><path id="path-4" fill-rule="evenodd" d="M239 124h-29.17c-2.84 0-7.94 2.02-11.04 4.45-11.28 8.85-36.43 28.15-47.9 39.62a18.8 18.8 0 0 0-5.83 13.93v8c0 6 2.3 10.4 5.84 13.93 11.46 11.47 36.6 30.77 47.9 39.62 3.09 2.43 8.19 4.45 11.03 4.45H239a4 4 0 0 1 0 8h-27c-7.28 0-12.95-2.17-17.16-5.54-11.92-9.55-41.5-33.46-51.67-43.63-4.23-4.24-5.09-13.4-5.09-16.77V182c0-5.5.84-12.58 5.1-16.83 10.16-10.17 39.74-34.08 51.66-43.62 4.21-3.38 9.88-5.55 17.16-5.55h27a4 4 0 0 1 0 8M112.83 90.83C102.66 101 73.08 124.9 61.16 134.46 56.95 137.83 51.28 140 44 140H17a4 4 0 0 1 0-8h29.17c2.84 0 7.94-2.02 11.04-4.45 11.28-8.85 36.43-28.15 47.9-39.62A18.8 18.8 0 0 0 110.93 74v-8c0-6-2.3-10.4-5.84-13.93C93.64 40.6 68.5 21.3 57.2 12.45 54.12 10.02 49.02 8 46.18 8H17a4 4 0 0 1 0-8h27c7.27 0 12.95 2.17 17.16 5.55 11.92 9.54 41.5 33.45 51.67 43.62 4.25 4.25 5.09 11.33 5.09 16.83v8.06c0 3.38-.86 12.53-5.1 16.77" style="fill:#a4c1e9"/></g></svg>
