<svg xmlns="http://www.w3.org/2000/svg" fill="currentColor" style="fill-rule:evenodd;clip-rule:evenodd;stroke-linejoin:round;stroke-miterlimit:2" viewBox="0 0 64 64"><path id="Icons" d="M-896-256H384v800H-896z" style="fill:none"/><g id="Icons1"><g id="eye"><path d="M32.51 13.93C43.1 14.08 51.65 23.82 56 32c0 0-1.42 2.9-2.86 4.9a46 46 0 0 1-3.89 4.72c-5.23 5.5-12.75 9.6-20.7 8C19.73 47.87 12.82 40.14 8.5 32c0 0 1.24-2.96 2.69-4.96a45 45 0 0 1 3.72-4.52c4.63-4.87 10.57-8.63 17.6-8.6m-.03 4c-5.9-.03-10.8 3.26-14.67 7.35a38 38 0 0 0-3.38 4.1c-.54.75-1.06 1.8-1.45 2.59 3.77 6.46 9.29 12.32 16.36 13.74 6.56 1.31 12.69-2.3 17.02-6.85a37 37 0 0 0 3.53-4.3c.56-.77 1.14-1.76 1.59-2.56-3.94-6.66-10.65-13.94-19-14.07"/><path d="M32.16 23.95a8.02 8.02 0 1 1-.01 16.04 8.02 8.02 0 0 1 0-16.04m0 4a4.01 4.01 0 1 1 0 8.03 4.01 4.01 0 0 1 0-8.02"/></g></g></svg>
