<svg xmlns="http://www.w3.org/2000/svg" fill="none" viewBox="0 0 24 24"><path stroke="currentColor" stroke-linecap="round" stroke-width="1.5" d="M22 15c0 3.77 0 4.66-1.17 5.83S17.77 22 14 22M10 2C6.23 2 4.34 2 3.17 3.17S2 5.23 2 9m10-2a8 8 0 0 0-6.1 2.94c-.6.69-.9 1.04-.9 2.06s.3 1.37.9 2.06A8 8 0 0 0 12 17a8 8 0 0 0 6.1-2.94c.6-.69.9-1.04.9-2.06s-.3-1.37-.9-2.06A9 9 0 0 0 16 8.13"/><circle fill="none" cx="12" cy="12" r="2" stroke="currentColor" stroke-width="1.5"/><path stroke="currentColor" stroke-linecap="round" stroke-width="1.5" d="M10 22H9m-7-7c0 3.77 0 4.66 1.17 5.83.65.65 1.53.94 2.83 1.07M14 2h1m7 7c0-3.77 0-4.66-1.17-5.83-.65-.65-1.53-.94-2.83-1.07"/></svg>
