<svg xmlns="http://www.w3.org/2000/svg" fill="none" viewBox="0 0 24 24"><path stroke="currentColor" stroke-linecap="round" stroke-linejoin="round" stroke-width="2" d="m3.17 5.13 18 14"/><path stroke="currentColor" stroke-width="2" fill="none" d="M14.37 13.85A3 3 0 0 1 9.6 10.2"/><path stroke="currentColor" stroke-linecap="round" stroke-linejoin="round" stroke-width="2" fill="none" d="M9 5.63a7 7 0 0 1 7.85 1.42l3 3c.5.5.75.75.89 1.01a2 2 0 0 1 0 1.88 5 5 0 0 1-.89 1v0l-.05.06"/><path fill="currentColor" d="M7.02 8.4A1 1 0 1 0 5.6 6.98zm.64 7.84-2.12-2.12-1.42 1.42 2.12 2.12zm8.48 0a6 6 0 0 1-8.48 0l-1.42 1.42a8 8 0 0 0 11.32 0zM5.54 9.88 7.02 8.4 5.6 6.98 4.12 8.46zm11.2 5.76-.6.6 1.42 1.42.6-.6zm-11.2-1.52a18 18 0 0 1-1.42-1.5c-.26-.35-.3-.51-.3-.62h-2c0 .72.31 1.3.71 1.83q.6.75 1.6 1.7zM4.12 8.46q-.99.96-1.59 1.7a3 3 0 0 0-.7 1.84h2c0-.1.03-.27.3-.62.28-.37.72-.81 1.4-1.5z"/></svg>
