<svg xmlns="http://www.w3.org/2000/svg" fill="currentColor" viewBox="0 0 32 32"><path d="M16.1 10.04a6 6 0 1 0 .01 12 6 6 0 0 0 0-12m0 10A4.07 4.07 0 0 1 12.07 16a4 4 0 0 1 8 0 4 4 0 0 1-3.95 4.04M32 15.77q0-.08-.02-.15 0-.04-.03-.06l-.02-.09C29 8.82 22.74 4.98 16.06 4.98S3 8.81.08 15.47l-.02.09-.03.05-.02.15-.04.27c0 .13.02.18.04.27q0 .08.02.15 0 .02.03.05l.02.1C2.98 23.24 9.32 27.01 16 27.01s13.01-3.76 15.92-10.42l.02-.1.03-.04.02-.16q.03-.13.03-.27 0-.13-.03-.26zm-16 9.25a15.1 15.1 0 0 1-13.98-9 15.3 15.3 0 0 1 14.04-9.04 15.1 15.1 0 0 1 13.92 9.05 15.1 15.1 0 0 1-13.98 9"/></svg>
