<svg xmlns="http://www.w3.org/2000/svg" fill="currentColor" preserveAspectRatio="xMidYMid" viewBox="0 0 31.75 19.969"><path d="M31.75 11.98c0 1.97 0 7.99-6.94 7.99h-1.24l-.18-.02c-3.6-.25-5.6-3.81-6.26-6.32a1 1 0 0 1-.24-.47c-.08-.05-.34-.19-1-.19-.68 0-.94.14-1.02.2a1 1 0 0 1-.24.46c-.66 2.51-2.67 6.07-6.26 6.32l-.17.02H6.96C0 19.97 0 13.95 0 11.97q.02-.35.08-.65a1 1 0 0 1 .05-.83l4.96-9c.14-.2.99-1.4 2.56-1.48q2.05-.07 4.03 2.34a1 1 0 0 1-.13 1.4 1 1 0 0 1-1.4-.13C9.27 2.54 8.4 1.98 7.76 2c-.6.03-.97.54-.97.54L3.66 8.21q1.42-.24 3.3-.23c2.85 0 6.93.86 7.77 3.13a5 5 0 0 1 2.3 0c.84-2.27 4.92-3.13 7.78-3.13q1.87 0 3.29.23l-3.14-5.68c-.09-.11-.44-.5-.97-.53-.67.02-1.51.56-2.39 1.62a1 1 0 0 1-1.4.13 1 1 0 0 1-.12-1.4Q22.06-.06 24.1 0a3.4 3.4 0 0 1 2.5 1.41l5.01 9.07a1 1 0 0 1 .06.83c.02.21.07.41.07.66m-24.8-2C2 9.98 2 10.99 2 11.98c0 3.11.6 6 4.96 6h.99c3.25 0 4.96-4.46 4.96-6 0-.9-2.75-2-5.95-2m17.86 0c-3.2 0-5.95 1.1-5.95 2 0 1.54 1.7 6 4.95 6h1c4.35 0 4.95-2.89 4.95-6 0-.99 0-2-4.95-2"/></svg>
