<svg xmlns="http://www.w3.org/2000/svg" fill="currentColor" preserveAspectRatio="xMidYMid" viewBox="0 0 14.906 32"><path d="m14.87 11.17-.6 3.04a2.3 2.3 0 0 1-2.2 1.78H10V30c0 1.1-.84 2-1.95 2H5.03a2 2 0 0 1-2.01-2V16h-1A2 2 0 0 1 0 14v-3.01c0-1.1.9-2 2.01-2h1V6A6 6 0 0 1 9 .01h4.09c.56 0 .92.44.92.99v5c0 .55-.36 1-.92 1h-3.02v2h3.02c.56 0 1.09.24 1.43.65s.47.97.36 1.53M9.1 11h-.04a1 1 0 0 1-1-1V6a1 1 0 0 1 1-1h3.02V2H9.1l-.04.01a4 4 0 0 0-4.02 4v4a1 1 0 0 1-1 1l-.08-.02H2v3h2.01a1 1 0 0 1 1.01 1l-.03.15V30h3.05V15a1 1 0 0 1 1-1h3.02c.07 0 .2-.11.22-.18l.57-2.83z"/></svg>
