<svg xmlns="http://www.w3.org/2000/svg" viewBox="-55.11 0 319.606 319.606"><defs><style>.a{fill:#fff}.b{fill:#211715}</style></defs><path d="M162.67 89.41a8.4 8.4 0 0 1 3.71-.72 7.7 7.7 0 0 1 5.51 2.21 7 7 0 0 1 1.11 1.47c2.25 3.9 2.15 11.1.64 15.54-1.07 3.15-2.82 7.96-7.04 11.42a8.8 8.8 0 0 1-6.75 1.95l-.65-.1a52 52 0 0 1-2.32 6.3c-1.68 4.55-10.77 20.25-22.39 26.91a76 76 0 0 0 1.08 9.36c.65 3.74.45 7.08 5.64 8.96.3.1 12.02 5.68 14.96 7.05-10.84 5.73-29.95 10.65-44.64 10.6-15.02.05-34.66-5.09-45.35-10.98 5.1-2.33 14.19-6.57 14.44-6.67 5.2-1.87 5-5.21 5.65-8.95a72 72 0 0 0 1.03-8.37c-5.63-2.61-10.67-6.86-15.47-12.6a60 60 0 0 1-11.46-21.62 8.6 8.6 0 0 1-7.3-1.83c-4.23-3.46-5.98-8.27-7.05-11.42-1.5-4.45-1.6-11.64.65-15.54a7 7 0 0 1 .86-1.2 7.6 7.6 0 0 1 5.76-2.48 8.4 8.4 0 0 1 3.62.68s-9-50.24 54-50.24c58.67 0 51.76 50.27 51.76 50.27" class="a"/><path d="M84.89 155.64a70 70 0 0 1-.86 7.02c-.25 1.46-.38 2.97-.77 4.4a4 4 0 0 1-1.81 2.6 20 20 0 0 1-2.52 1.19c-4.1 1.86-8.19 3.8-12.29 5.68l-3.25 1.49-1.12.5c-.6.27.5-.18-.07.02a2.46 2.46 0 0 0-1.67 2.96 2.4 2.4 0 0 0 2.95 1.67c1.62-.58 3.19-1.4 4.75-2.11l7.62-3.52 5.5-2.55.45-.2c0 .02-1.24.5-.15.08q.48-.19.94-.4a10 10 0 0 0 1.42-.76 9 9 0 0 0 3.5-4.27 24 24 0 0 0 1.07-5.06c.49-2.9.9-5.8 1.1-8.75a2.4 2.4 0 1 0-4.8 0Zm47.21-1.24a96 96 0 0 0 1.62 12.9 9.8 9.8 0 0 0 6.46 7.58c1.18.47-.65-.33.18.06l.84.4 2.65 1.24 7.06 3.35c1.75.82 3.49 1.7 5.27 2.44a2.4 2.4 0 0 0 2.96-1.67 2.46 2.46 0 0 0-1.68-2.95c.44.18.65.28.18.06l-.88-.41-2.48-1.17-6.63-3.14q-2.43-1.17-4.87-2.3a16 16 0 0 1-2.53-1.21 4 4 0 0 1-1.67-2.51 48 48 0 0 1-.85-4.88 71 71 0 0 1-.83-7.79c-.16-3.07-4.96-3.1-4.8 0" class="b"/><path d="M123.03 189.55c12.96-1.74 26.77-6.02 34.76-10.7 17.73 6.85 35.42 11.68 43.31 28.16 5.5 11.51 6.17 25.31 5.72 41.61-.56 20.11-3.17 49-18.5 58.5a22 22 0 0 1-11 3.14l.02 6.94H2.41l.49-5.4c2.6-24.1 5.37-44.78 7.97-68.89 1.79-16.59 4.56-35.02 17.69-45.3a77 77 0 0 1 17-10.43c6.79-2.76 13.09-5.49 19.7-8.33 10.45 6.11 30.8 11.56 46.27 11.51a86 86 0 0 0 11.5-.81" class="a"/><path d="M109.52 56.32c-14.43-.09-30.9 7.1-38.68 20.14-5.38 9-7.03 24.96-4.35 38.38 5.13 25.67 25.26 38.6 45.14 38.03 18.68-.54 35.94-13.7 40.78-35.22 3.17-14.13 3.53-30.23-4-41.19-7.62-11.09-22.93-20.05-38.9-20.14" style="fill:#d8e8f5"/><path d="M131.43 109.43c-8.89 0-12.76-6.04-12.76-11.27 0-5.75 4.1-10.68 12.99-10.68 10 0 13.6 4.8 13.6 10.95 0 6.07-4.55 11-13.83 11m-44.2 0c-8.88 0-12.75-6.04-12.75-11.27 0-5.75 4.1-10.68 12.98-10.68 10 0 13.6 4.8 13.6 10.95 0 6.07-4.54 11-13.82 11m19.37 31.98c-8.73-1.17-11.58-5.54-11.75-9.54-.21-5.06 4.28-9.8 15.08-9.8 11.91 0 14.5 5.76 14.59 7.91.25 6.93-6 13.02-17.92 11.43" class="a"/><path d="m179.74 317.2-.02-6.94a2.4 2.4 0 0 0-4.8 0l.02 6.94a2.4 2.4 0 0 0 4.8 0m-131.63 0c0-10.5.1-21-.24-31.48a92 92 0 0 0-1.18-13.52c-1.1-6.05-1.67-12.13-2.3-18.36q-1.48-15.05-2.53-30.14a2.46 2.46 0 0 0-2.4-2.4 2.4 2.4 0 0 0-2.4 2.4c1.12 15.9 2.2 31.94 4.66 47.7q.23 1.55.54 3.1c.05.25.21 1.3.13.62l.16 1.44c.23 2.34.34 4.7.44 7.04.24 6.05.3 12.11.33 18.16.03 5.15 0 10.3 0 15.45 0 3.09 4.8 3.09 4.8 0Z" class="b"/><path d="M4.8 317.2c1.95-21.4 4.9-42.72 7.34-64.08 1.19-10.5 1.93-21.15 4.69-31.39a52 52 0 0 1 5.38-13.22 35 35 0 0 1 9.2-10.11 74 74 0 0 1 15.25-9.1c6.58-2.84 13.22-5.55 19.8-8.38h-2.41a78 78 0 0 0 16.28 6.76 122 122 0 0 0 20.3 4.35c13.27 1.69 26.62.02 39.45-3.58a82 82 0 0 0 18.93-7.53c2.67-1.55.25-5.7-2.43-4.14-6.66 3.86-14.21 6.23-21.66 8.06a97 97 0 0 1-25.23 3.1 103 103 0 0 1-25.25-4.06 99 99 0 0 1-11.56-3.94 58 58 0 0 1-4.61-2.16 13 13 0 0 0-2.38-1.24c-1.3-.36-2.87.68-4.04 1.18-16.24 6.99-35.39 13.11-44.5 29.6-3.92 7.1-5.94 15.1-7.25 23.07-1.51 9.26-2.28 18.64-3.36 27.95-2.18 18.75-4.8 37.48-6.5 56.29L0 317.2a2.4 2.4 0 0 0 2.4 2.4 2.45 2.45 0 0 0 2.4-2.4m95.7-183.66a20.5 20.5 0 0 0 9.87 2.28c3.53-.02 7.1-.7 9.93-2.9a2.4 2.4 0 0 0 0-3.4 2.46 2.46 0 0 0-3.4 0c.72-.56.13-.1-.06.01q-.3.2-.62.36c-.15.08-.89.38-.27.15q-.42.16-.85.3a14 14 0 0 1-5.05.68 23 23 0 0 1-2.2-.11s-.8-.1-.39-.04a16 16 0 0 1-2.22-.5q-.47-.14-.93-.3l-.3-.12c.6.17.2.09.04.01l-1.13-.56a2.45 2.45 0 0 0-3.28.86 2.4 2.4 0 0 0 .86 3.28m8.74-23.37a47 47 0 0 1 1.1 5.03l-.09-.63a3 3 0 0 1 .02.7l.09-.65-.08.32.24-.58-.1.2.37-.48-.17.16.49-.38-.4.21.57-.24a3 3 0 0 1-.67.2l.64-.08a3 3 0 0 1-.63 0l.63.08-.7-.12a2.7 2.7 0 0 0-1.85.24 2.4 2.4 0 0 0-.87 3.29 2.3 2.3 0 0 0 1.44 1.1c.52.07 1.03.2 1.57.22a5 5 0 0 0 2.3-.54 3.3 3.3 0 0 0 1.81-2.16 5.5 5.5 0 0 0-.02-2.35 55 55 0 0 0-1.07-4.82 2.4 2.4 0 0 0-4.62 1.28M82.32 95.95c-.84 2.73-.3 9.02 4.89 9.56 6.84-.05 7.2-7.65 4.9-11.22-1.89-2.93-7.43-4.15-9.8 1.66m55.03 0c.84 2.73.3 9.02-4.89 9.56-6.84-.05-7.2-7.65-4.9-11.22 1.88-2.93 7.43-4.15 9.79 1.66m-78.17 23.02c-3.8.52-6.83-3.32-8.49-6.2a26 26 0 0 1-3.13-8.72 18.6 18.6 0 0 1 .77-9.66c1.33-3.15 4.77-3.98 7.94-2.7a2.4 2.4 0 0 0 2.95-1.67 2.46 2.46 0 0 0-1.67-2.96 11 11 0 0 0-11.02 1.73c-2.7 2.33-3.58 6.1-3.9 9.5a28.6 28.6 0 0 0 5.57 19.38c3.03 3.97 7.1 6.63 12.26 5.93a2.4 2.4 0 0 0 1.67-2.95 2.47 2.47 0 0 0-2.95-1.68m100.03 4.63c8.53 1.17 13.75-6.72 16.3-13.76a27 27 0 0 0 1.62-9.9c-.08-3.5-.73-7.34-3-10.12-2.83-3.45-8.05-4.4-12.1-2.72a2.5 2.5 0 0 0-1.68 2.96 2.4 2.4 0 0 0 2.96 1.67c3.14-1.3 6.67-.57 8.03 2.66a18.6 18.6 0 0 1 .73 9.83 26 26 0 0 1-3.2 8.7c-1.65 2.84-4.65 6.56-8.39 6.05a2.5 2.5 0 0 0-2.95 1.68 2.4 2.4 0 0 0 1.68 2.95" class="b"/><path d="M157.85 116.8a61 61 0 0 1-3.46 10.5l.08-.2-.15.34-.27.59-.8 1.6a65 65 0 0 1-1.97 3.44 64 64 0 0 1-13.64 16.25 25.4 25.4 0 0 1-10.27 5.36c-3 .69-1.74 5.32 1.28 4.62 7.73-1.78 14.16-7.46 19.19-13.34a69 69 0 0 0 10.63-16.1q.26-.58.5-1.17c.06-.15.34-.82.07-.19q.64-1.45 1.2-2.93a50 50 0 0 0 2.23-7.49 2.46 2.46 0 0 0-1.68-2.95 2.4 2.4 0 0 0-2.95 1.67Zm-100.8 1.1a64 64 0 0 0 9 21.15c4.6 6.88 10.63 13.32 17.94 17.34a35 35 0 0 0 11.89 4.03 2.5 2.5 0 0 0 2.95-1.67 2.4 2.4 0 0 0-1.68-2.96c-15.1-2.22-26.38-15.3-32.13-28.7a61 61 0 0 1-3.34-10.47c-.69-3-5.32-1.73-4.63 1.28" class="b"/><path d="M122.68 44.55a97 97 0 0 0-6.43-3.05c-14.26 4.94-26.77 9.78-35.51 14.82C75.89 59.1 69.3 64.65 64.4 74.2a97 97 0 0 0-4.31 10.92 8.15 8.15 0 0 1-7.1 5.64q-1.06.09-2.26.22c-3.2.38-4.36.67-5.94-2.2-2.58-4.7-2.16-10.07-.29-14.94 1.06-2.75 2.72-5.24 3.84-7.97 4.13-9.97.76-22.01 5.54-31.7 3.36-6.82 10.2-11.22 17.03-14.57a111 111 0 0 1 36.16-10.54c2.39-2.58 4.38-4.5 5.64-5.16 3.4-1.78 7.88-1.7 11.95-1.2 7.87.98 15.36 3.22 22.79 5.44a19 19 0 0 1 4.86 1.97c4.4 2.91 6.2 8.38 7.56 15.68 2.5 10.87 15.33 30.7 17.83 41.38 1.34 5.76.14 11.79-1.33 17.52-.86 3.38-2.03 6.35-3.05 6.3-2.78-.16-4.74-.33-7.13-.37a6.14 6.14 0 0 1-5.89-4.82c-4.01-17.86-21.01-32.6-37.64-41.25" style="fill:#f8b8b4"/><path d="M105.73 6.82a114 114 0 0 0-24.17 5.71c-7.37 2.63-14.95 5.84-21.2 10.62a30 30 0 0 0-7.6 8.1 28 28 0 0 0-3.58 10.53c-1.1 7.51-.16 15.46-2.84 22.68-1.4 3.79-3.8 7.07-4.9 11a20 20 0 0 0 .07 11.77c1.08 3.1 2.89 6.27 6.54 6.38a40 40 0 0 0 4.94-.45 11 11 0 0 0 4.92-1.57 11 11 0 0 0 3.55-3.67 35 35 0 0 0 2.16-5.62 60 60 0 0 1 3.71-8.49A41 41 0 0 1 80 59.6c5.14-3.45 11.04-5.94 16.74-8.28 7.63-3.14 15.42-5.9 23.23-8.57l6.3-2.12c2.91-.98 1.66-5.62-1.28-4.63-14.23 4.76-28.76 9.49-42.12 16.41A46 46 0 0 0 69.8 62.2a54 54 0 0 0-10.2 17.17c-.7 1.8-1.2 3.68-1.94 5.45a6 6 0 0 1-2.32 2.72 9 9 0 0 1-4.14.99c-.7.07-1.4.18-2.1.24l-.94.05-.36-.01c.24.02.2.04-.01-.02-.34-.1.05.16-.2-.1.3.31-.24-.3-.21-.25a9 9 0 0 1-1.03-1.87 13 13 0 0 1-.98-5.19c.03-3.7 1.4-7.08 3.1-10.32a35 35 0 0 0 3.88-10.7 98 98 0 0 0 .94-11.07 47 47 0 0 1 1.37-10.44 20.4 20.4 0 0 1 4.8-8.53c4.87-5.19 11.66-8.43 18.13-11.14a110 110 0 0 1 22.74-6.72q2.68-.48 5.39-.84a2.5 2.5 0 0 0 2.4-2.4 2.4 2.4 0 0 0-2.4-2.4Z" class="b"/><path d="M116.64 44.28c13.33 6.06 26.33 15.1 34.68 27.34a46 46 0 0 1 5.02 9.36c1.28 3.34 1.48 7.52 4.38 9.95 3.22 2.7 7.72 2.17 11.66 2.4a4.1 4.1 0 0 0 4.32-2.4 26 26 0 0 0 2.11-6.06 46 46 0 0 0 1.84-13.8 31 31 0 0 0-2.3-9.68c-2.52-6.45-5.78-12.6-8.86-18.8-2.72-5.46-5.8-11.11-7.22-17.1-1.6-6.72-3.02-14.9-10.04-18.17a47 47 0 0 0-6.37-2.16q-3.36-1.01-6.73-1.93A105 105 0 0 0 125.14.37c-4.3-.56-8.86-.7-12.91 1.11-2.87 1.28-5.12 4-7.2 6.26q-2.3 2.53-4.56 5.13c-2.03 2.32 1.36 5.72 3.4 3.4 2.58-2.96 5.14-5.99 8.01-8.68a7 7 0 0 1 2.49-1.83 14 14 0 0 1 5.36-.96 55 55 0 0 1 12.67 1.7c4.26.96 8.45 2.17 12.63 3.42 3.3.98 6.47 1.78 8.52 4.67 1.87 2.63 2.74 5.87 3.44 8.99a56 56 0 0 0 2.3 8.2 127 127 0 0 0 3.87 8.77c2.88 6 6.02 11.88 8.79 17.94a62 62 0 0 1 2.97 7.55 25 25 0 0 1 .66 10.88 65 65 0 0 1-1.4 6.67 20 20 0 0 1-1.77 5.17c-.06.1-.19.3-.2.28l1.12-.45-.48-.03q-.34-.04-.7-.04l-3.13-.2c-1.48-.07-3.22.17-4.56-.59s-1.69-2.03-2.04-3.43a40 40 0 0 0-1.51-4.77 51 51 0 0 0-4.83-9.42c-7.86-12.02-19.85-21.27-32.5-27.8q-2.23-1.14-4.51-2.18a2.47 2.47 0 0 0-3.29.86 2.4 2.4 0 0 0 .86 3.29" class="b"/><path d="m150.86 210.4 13.23-4.73c-2.48-6.52-5.9-16.96-8.5-23.97a22 22 0 0 0-2.19-4.4l-.6-.96c8.34-8.98 16.91-18.83 18.59-31.89.41-3.25 2.52-26.29.55-30.37-.36-.9-1.28-1.81-1.64-2.96a12 12 0 0 0-1.4-3.13 5 5 0 0 0-3.67-2.34 4.5 4.5 0 0 0-3.55 1.7 7.5 7.5 0 0 0-1.55 3.71l-.17 1.58a5.3 5.3 0 0 0-4.3 2.33 15 15 0 0 0-2.07 5.35c-1.31 5.35-3.25 14.12-5.1 20.1a11 11 0 0 1-1.75 3.46 112 112 0 0 1-15.3 15.87 22 22 0 0 0-3.15 3.13c-3.06 4.05-2.55 9.9-.33 14.48 5.55 12.07 4.98 25.89 8.71 38.3q7.07-2.71 14.2-5.26" class="a"/><path d="M97.27 20.44c-4.15 1.1-7.31 4.05-9.8 7.43-2.6 3.54-4.34 7.62-7.02 11.12a2.4 2.4 0 0 0 .86 3.28 2.46 2.46 0 0 0 3.29-.86c2.5-3.28 4.2-7.06 6.54-10.45 1.83-2.64 4.33-5.08 7.4-5.89a2.4 2.4 0 0 0-1.27-4.63m65.17 126.18a217 217 0 0 0 2.79-15.22q.51-3.7.82-7.42a44 44 0 0 0 .38-7.42 7.3 7.3 0 0 0-4.64-5.98 7 7 0 0 0-7.1 1.87c-1.94 1.84-2.75 4.51-3.37 7.03q-.78 3.22-1.54 6.46a136 136 0 0 1-3.73 14.25c-.86 2.42-2.92 4.45-4.58 6.34a107 107 0 0 1-5.74 6.02q-2.91 2.84-5.98 5.5a17 17 0 0 0-5.06 6.46c-1.91 4.82-.65 9.93 1.38 14.46 4.99 11.13 4.71 23.8 7.77 35.46.78 2.98 5.41 1.72 4.63-1.28-2.56-9.74-2.88-19.92-5.68-29.6a54 54 0 0 0-2.76-7.41 16 16 0 0 1-1.47-5.84 9.6 9.6 0 0 1 1.38-5.6c1.28-2 3.49-3.48 5.23-5.06a115 115 0 0 0 10.73-10.91 25 25 0 0 0 4.55-6.65 54 54 0 0 0 1.86-6.32c1.15-4.4 2.16-8.82 3.22-13.23.47-2 .79-4.3 1.98-6.01.8-1.17 2.4-2.13 3.51-.82a3.4 3.4 0 0 1 .59 2.72q-.1 2-.24 3.98-.25 3.63-.7 7.25a199 199 0 0 1-2.86 15.7c-.64 3.01 3.99 4.3 4.63 1.27" class="b"/><path d="M162.45 111.7c.23-1.32.66-3.13 2.14-3.57 1.39-.4 2.4 1.13 2.88 2.2.38.83.58 1.73.98 2.56.37.73.87 1.39 1.28 2.1.46.8-.06-.4.04.07q.04.18.1.35a10 10 0 0 1 .22 1c.04.24.07.6.02.13l.06.56q.07.72.11 1.44.08 1.62.09 3.24 0 3.68-.2 7.37-.3 6.65-.96 13.3a39 39 0 0 1-4.84 15.23c-3.85 6.85-9.21 12.63-14.54 18.34-2.1 2.26 1.28 5.66 3.4 3.4 5.28-5.67 10.6-11.44 14.6-18.13a44.5 44.5 0 0 0 6.14-18.53q.74-7.21 1.05-14.47c.12-2.7.2-5.42.12-8.13a24 24 0 0 0-.64-6.02c-.42-1.5-1.5-2.62-2.02-4.06-.82-2.33-1.93-4.53-4.11-5.86a6.4 6.4 0 0 0-6.8.07 9 9 0 0 0-3.75 6.14 2.47 2.47 0 0 0 1.68 2.95 2.4 2.4 0 0 0 2.95-1.68" class="b"/><path d="M165.89 203.66c-1.72-4.66-3.32-9.37-4.95-14.06q-1.2-3.45-2.43-6.88a30 30 0 0 0-3.03-6.64c-1.73-2.54-5.89-.14-4.15 2.43a26 26 0 0 1 2.68 5.84q1.24 3.45 2.44 6.92c1.58 4.56 3.14 9.13 4.8 13.66a2.47 2.47 0 0 0 2.96 1.68 2.4 2.4 0 0 0 1.67-2.95" class="b"/><path d="M186.9 247a1519 1519 0 0 1-14.3-44.23 2.4 2.4 0 0 0-2.96-1.68c-13.8 5.11-27.8 9.73-41.4 15.37a2.47 2.47 0 0 0-1.67 2.95 583 583 0 0 0 13.72 47.37 230 230 0 0 0 9.8 24.78c2.62 5.5 5.66 11.72 10.43 15.7 8.98 7.5 23.35 7.12 32.16-.38 6.71-5.71 10.2-14.59 12.37-22.9 2.49-9.55 3.46-19.49 3.94-29.32.56-11.29.8-22.8-1.16-33.97-1.82-10.4-6.1-20.34-14.3-27.25-7.96-6.7-17.84-10.43-27.47-14.03q-3.81-1.42-7.62-2.87a2.4 2.4 0 0 0-2.95 1.68 2.46 2.46 0 0 0 1.68 2.95c9.4 3.62 19.2 6.67 27.82 12a39 39 0 0 1 10.22 8.84 38 38 0 0 1 6.35 12.9c3.22 10.8 3.17 22.32 2.87 33.48a179 179 0 0 1-2.45 27.24c-1.53 8.34-3.85 17.13-9.04 24.01a20 20 0 0 1-9.5 7.14 22.3 22.3 0 0 1-15.98-.77 16 16 0 0 1-4.77-3.28 23 23 0 0 1-1.73-1.97c-.24-.3.34.45-.04-.06l-.36-.48a61 61 0 0 1-4.9-8.19 181 181 0 0 1-9.22-22.16c-5.54-15.6-10.1-31.57-14.2-47.6l-1.04-4.13-1.67 2.95c13.6-5.63 27.6-10.25 41.4-15.37l-2.96-1.67c4.62 14.79 9.25 29.59 14.31 44.24 1 2.9 5.65 1.65 4.63-1.28Z" class="b"/></svg>
