<svg xmlns="http://www.w3.org/2000/svg" fill="none" viewBox="0 0 24 24"><path stroke="currentColor" stroke-linecap="round" stroke-width="1.5" d="M9 16a5 5 0 0 0 6 0"/><ellipse cx="15" cy="10.5" fill="currentColor" rx="1" ry="1.5"/><ellipse cx="9" cy="10.5" fill="currentColor" rx="1" ry="1.5"/><path stroke="currentColor" stroke-linecap="round" stroke-width="1.5" d="M22 14c0 3.77 0 5.66-1.17 6.83S17.77 22 14 22m-4 0c-3.77 0-5.66 0-6.83-1.17S2 17.77 2 14m8-12C6.23 2 4.34 2 3.17 3.17S2 6.23 2 10m12-8c3.77 0 5.66 0 6.83 1.17S22 6.23 22 10"/></svg>
