<svg xmlns="http://www.w3.org/2000/svg" fill="none" viewBox="0 0 24 24"><path fill="currentColor" d="M16 10.5c0 .83-.45 1.5-1 1.5s-1-.67-1-1.5.45-1.5 1-1.5 1 .67 1 1.5m-6 0c0 .83-.45 1.5-1 1.5s-1-.67-1-1.5S8.45 9 9 9s1 .67 1 1.5"/><path fill="currentColor" fill-rule="evenodd" d="M11.94 1.25h.12c2.3 0 4.11 0 5.53.19 1.44.2 2.58.6 3.48 1.5.9.89 1.3 2.03 1.49 3.47.19 1.42.19 3.22.19 5.53v.12c0 2.3 0 4.11-.19 5.53a5.7 5.7 0 0 1-1.5 3.48 5.7 5.7 0 0 1-3.47 1.49c-1.42.19-3.22.19-5.53.19h-.12c-2.3 0-4.11 0-5.53-.19a5.7 5.7 0 0 1-3.48-1.5 5.7 5.7 0 0 1-1.49-3.47c-.19-1.42-.19-3.22-.19-5.53v-.12c0-2.3 0-4.11.19-5.53a5.7 5.7 0 0 1 1.5-3.48A5.7 5.7 0 0 1 6.4 1.44c1.42-.19 3.22-.19 5.53-.19M6.61 2.93c-1.27.17-2.05.5-2.62 1.06-.56.57-.9 1.35-1.06 2.62a45 45 0 0 0-.18 5.68l.05.02 4.22 1.88 2.84-1.14a5.8 5.8 0 0 1 4.28 0l2.84 1.14 4.22-1.88.05-.02V12c0-2.38 0-4.09-.18-5.39-.17-1.27-.5-2.05-1.06-2.62-.57-.56-1.35-.9-2.62-1.06-1.3-.18-3.01-.18-5.39-.18s-4.09 0-5.39.18m14.64 11L17.7 15.5l-.22 2.9 2.85 1.21c.37-.52.6-1.22.73-2.22.13-.92.16-2.04.18-3.46M19 20.67l-1.63-.7-.09 1.12.1-.02a6 6 0 0 0 1.62-.4m-3.23.53.44-5.7-2.63-1.06a4.3 4.3 0 0 0-3.16 0L7.8 15.49l.44 5.71q1.53.06 3.77.05 2.24.01 3.77-.05m-9.05-.11-.09-1.12-1.63.7a6 6 0 0 0 1.72.42M3.66 19.6l2.85-1.22-.22-2.89-3.54-1.57c.02 1.42.05 2.54.18 3.46.13 1 .36 1.7.73 2.22" clip-rule="evenodd"/></svg>
