<svg xmlns="http://www.w3.org/2000/svg" fill="none" viewBox="0 0 24 24"><path fill="currentColor" d="M16 10.5c0 .83-.45 1.5-1 1.5s-1-.67-1-1.5.45-1.5 1-1.5 1 .67 1 1.5m-6 0c0 .83-.45 1.5-1 1.5s-1-.67-1-1.5S8.45 9 9 9s1 .67 1 1.5"/><path fill="currentColor" fill-rule="evenodd" d="M9.94 1.25H10a.75.75 0 0 1 0 1.5 36 36 0 0 0-4.29.14c-1 .14-1.58.39-2 .81-.43.43-.68 1-.82 2.01A36 36 0 0 0 2.75 10a.75.75 0 0 1-1.5 0v-.06c0-1.83 0-3.29.15-4.43a4.7 4.7 0 0 1 1.24-2.87A4.7 4.7 0 0 1 5.51 1.4c1.14-.15 2.6-.15 4.43-.15m8.35 1.64A36 36 0 0 0 14 2.75a.75.75 0 0 1 0-1.5h.06c1.83 0 3.29 0 4.43.15 1.17.16 2.12.5 2.87 1.24.75.75 1.08 1.7 1.24 2.87.15 1.14.15 2.6.15 4.43V10a.75.75 0 0 1-1.5 0c0-1.9 0-3.26-.14-4.29-.13-1-.39-1.58-.81-2-.43-.43-1-.68-2.01-.82M2 13.25c.41 0 .75.34.75.75 0 1.9 0 3.26.14 4.29.14 1 .39 1.58.81 2 .43.43 1 .69 2.01.82 1.03.14 2.38.14 4.29.14a.75.75 0 0 1 0 1.5h-.06c-1.83 0-3.29 0-4.43-.15a4.7 4.7 0 0 1-2.87-1.24 4.7 4.7 0 0 1-1.24-2.87c-.15-1.14-.15-2.6-.15-4.43V14c0-.41.34-.75.75-.75m20 0c.41 0 .75.34.75.75v.06c0 1.83 0 3.29-.15 4.43a4.7 4.7 0 0 1-1.24 2.87 4.7 4.7 0 0 1-2.87 1.24c-1.14.15-2.6.15-4.43.15H14a.75.75 0 0 1 0-1.5c1.9 0 3.26 0 4.29-.14 1-.13 1.58-.39 2-.81.43-.43.69-1 .82-2.01.14-1.03.14-2.38.14-4.29 0-.41.34-.75.75-.75m-13.6 2.3a.75.75 0 0 1 1.05-.15 4.3 4.3 0 0 0 5.1 0 .75.75 0 1 1 .9 1.2 5.8 5.8 0 0 1-6.9 0 .75.75 0 0 1-.15-1.05" clip-rule="evenodd"/></svg>
