<svg xmlns="http://www.w3.org/2000/svg" viewBox="0 -17.35 354.891 354.891"><defs><style>.a{fill:#fff}.b{fill:#211715}.d{fill:#85807f}</style></defs><path d="M298.3 94.95a6.3 6.3 0 0 1 4.59-1.66 5.9 5.9 0 0 1 5.27 2.95c1.79 3.12 1.69 8.86.47 12.4-.86 2.52-2.28 6.36-5.66 9.1a7 7 0 0 1-5.4 1.54l-.51-.09a41 41 0 0 1-1.87 5.03c-1.33 3.55-8.35 15.58-17.34 21.05.05-.57.1-.09.15.22.52 3.18 1.1 6.45 2.79 9.2 2.81 4.56 12.32 8.15 19.38 11.07l-9.25 4.74c-5.96 3.29-11.83 6.1-29.19 6.49-14.68.32-23.92-1.7-37.46-8.1l-8.7-5.09c8.53-3.04 17.08-5.22 21.18-7.97a4 4 0 0 0 1.31-1 3 3 0 0 0 .33-1.06l1.32-7.42c-4.55-2.1-8.6-5.53-12.46-10.18a48 48 0 0 1-9.08-17.3 6.9 6.9 0 0 1-5.83-1.48c-3.36-2.77-4.74-6.62-5.59-9.14-1.19-3.56-1.24-9.3.57-12.4a5.9 5.9 0 0 1 5.3-2.92 6.3 6.3 0 0 1 4.57 1.7S206.3 59.8 257.72 59.8s40.58 35.15 40.58 35.15M150.97 71.93a6.7 6.7 0 0 1 4.88-1.62 6.2 6.2 0 0 1 5.46 3.28c1.79 3.34 1.52 9.38.13 13.07-.99 2.62-2.6 6.63-6.23 9.42a7.4 7.4 0 0 1-5.73 1.45l-.54-.1a43 43 0 0 1-2.12 5.23c-1.02 2.51-4.93 9.07-10.35 14.74-8.77 5.4-12.18 16.54-12.2 26.38q-.07 2.52-.23 5C105.78 155.13 87 151.7 72 138.36c3.97-1.51 8.75-3.36 8.9-3.4 3.02-1.13 4.06-3.6 4.66-6.26a45 45 0 0 0 .9-5.05 39 39 0 0 1-11.54-10.41 51 51 0 0 1-9.05-18.49 7.2 7.2 0 0 1-6.1-1.73c-3.45-3.02-4.8-7.12-5.6-9.8-1.16-3.77-1.04-9.82.96-13.04a6.2 6.2 0 0 1 5.66-2.91 6.7 6.7 0 0 1 4.77 1.92s-15.07-40 43.38-40 42.03 42.75 42.03 42.75" class="a"/><path d="M147.53 93.68a41 41 0 0 1-1.67 5.2q-.35.93-.76 1.83l-.36.74c-.74 1.62.17-.3-.2.45a48 48 0 0 1-2.95 5.18 52 52 0 0 1-11.66 13.04 21.6 21.6 0 0 1-8.82 4.25 2.4 2.4 0 0 0 1.28 4.63c6.57-1.3 12.16-5.93 16.57-10.75a58 58 0 0 0 9.48-13.4q.16-.3.28-.58a7 7 0 0 0 .31-.72c-.18.35.07-.1.1-.18l.29-.62.6-1.44a43 43 0 0 0 2.14-6.36c.72-3-3.91-4.28-4.63-1.27" class="b"/><path d="M131.64 121.49c-5.22 5.93-7.35 14.51-7.37 22.29-.11 4.03-.45 8.05-.68 11.75-.38 6.1.65 11.86 4.65 16.08 4.24 4.47 8.66 7.31 14.7 5.06 3.64-2.4 9.22-3.54 13.73-4.22a26.6 26.6 0 0 1 18.76 4.33c6.38-3.89 10.73-9 12.92-14.32a50 50 0 0 0 3.02-21.31c-1.43-20.51-20.24-28.96-38.98-28.15a33.6 33.6 0 0 0-15.58 4.2 21 21 0 0 0-5.17 4.29" class="a"/><path d="M76.87 313.82c-23.64-2.4-41.82-6.92-49.39-9.33-10.66-3.38-17.56-11.73-21.6-19.94-4.39-8.88-3.74-26.31-2.4-34.7 3.24-20.27 5.31-30.85 9.2-50.82 1.6-8.16 4.58-25.2 11.92-35.05 5.43-7.29 14.27-12.61 24.18-17.07 7.34-3.3 15.27-6.11 22.84-8.9 15.06 13.63 34 17.17 52.42 10.78l-.46 6.75c-.37 6.1.65 11.86 4.66 16.07 3.74 3.94 7.61 6.62 12.61 5.66l1.31-.25c-6.74 3.7-12.75 8.08-17.13 15.81a55 55 0 0 0-6.3-10.32 11.5 11.5 0 0 0 1.07-7.55c-.42-2.04-1.78-4.2-3.85-4.31-1.66-.09-3.05 1.18-4.23 2.35-3.26-3.83-7.88-7.23-12.87-6.6-5.43.68-9.36 6.34-9.17 11.8.2 6.22 4.8 11.76 10.25 14.55-1.14 7.57 4.21 27.58 6.2 34.32 1.26 4.28 3.09 8.76 6.97 11.24a16 16 0 0 0 6.85 2.18l-.58 1.86c-9.58.99-16.53 12.35-13.03 21.34l1.59 3.88.32 7.47c.49 11.14-1.5 31.14-2.5 40.35a308 308 0 0 1-28.88-1.57m225.73-7.3c-16.05 0-46.31-.06-75.24-.12l-71.81-.17c3.04-28.96 11.86-103.35 11.86-103.35l24.35-23.54c4.04-4.57 9.1-8.1 14.23-11.39a50 50 0 0 1 9.52-4.18l8.76 5.1c13.54 6.42 22.78 8.44 37.46 8.12 17.36-.39 23.23-3.2 29.19-6.49l9.24-4.74a124 124 0 0 1 21.66 10.4 37.3 37.3 0 0 1 14.12 16.5 108 108 0 0 1 5.57 16.55c3.34 12.03 6.92 24.03 8.98 36.36 1.83 10.99 3.81 25.02-1.1 35.44-3.12 6.64-8.64 11.75-14.2 16.35 0 0-18.27 4.12-32.59 9.15" class="a"/><path d="M299.06 236.68a5 5 0 0 1 4-1.17 4.7 4.7 0 0 1 3.39 2.26 7 7 0 0 1 .7 2.68 20 20 0 0 1-2.04 10.6 13 13 0 0 1-3.29 4.32 3.9 3.9 0 0 1-4.4.69 34 34 0 0 1-1.05 3.23c-1.13 2.88-7.5 13.1-15.5 16.84q.06.55.19 1.25c.42 2.46 1.11 5.25 4.39 7.06.22.07 4.5 2.1 4.83 2.25l1.27.57-.3.36c-3.58 4.5-12.01 8.33-20.58 8.84a59 59 0 0 1-15.45-1.05c-5.07-1.05-10.04-3.25-13.56-7.03l-.82-.88 1.95-.81c.35-.15 4.6-2.18 4.85-2.25 3.25-1.8 3.95-4.6 4.38-7.06l.08-.43a32 32 0 0 1-11.22-8.34 36 36 0 0 1-7.3-12.63c-2.28 1.19-3.64.68-5-.4a13 13 0 0 1-3.28-4.32 20 20 0 0 1-2.04-10.6 7 7 0 0 1 .7-2.69 4.7 4.7 0 0 1 3.39-2.25 5 5 0 0 1 4 1.17s-8.28-30.14 30.14-30.14 37.57 29.93 37.57 29.93" class="a"/><path d="M215.83 304.65c-2.49 3.9-4.04 7.83-5.92 13.26H324.5a74 74 0 0 0-11.77-18.93c-4.13-4.9-12.32-9.26-20.76-12.35-3.07 4.91-12.1 9.28-21.29 9.84a59 59 0 0 1-15.46-1.06c-5.47-1.13-10.82-3.6-14.37-7.97-7.7 3.03-17.12 7.34-20.75 11.54a48 48 0 0 0-4.26 5.67m77-261.94a82 82 0 0 0-8.74-6.99 49 49 0 0 0-6.83-3.52 44.5 44.5 0 0 0-19.52-3.54c-22.37-1.32-43.77 15.42-48.17 36.6-1.2 5.72-.73 14.57-.09 19.2a29 29 0 0 0 2 7.58l.45.94.68-.05a6.4 6.4 0 0 1 4.34 1.49c3.98-4.68 8.56-6.74 16-9.81a19 19 0 0 0 2.21-.97h1.09a2.1 2.1 0 0 0 .91 2.24 8 8 0 0 0 3.12.43 20.4 20.4 0 0 0 10.77-2.54H257c-.25.84 0 1.83 1.5 2.04a17.7 17.7 0 0 0 11.5-2.94 25 25 0 0 0 6.32-7.3 30 30 0 0 0 3.49-9.68h3.77c.7 5.72 3.01 11.11 5.48 16.33 1.48 3.13 3.3 6.49 6.53 7.75l2.7 4.98a6.3 6.3 0 0 1 4.6-1.66 7 7 0 0 1 2.48.5c3.24-8.15 1.58-21.45.23-28.15a42 42 0 0 0-3.33-9.87 41 41 0 0 0-9.44-13.06" style="fill:#febe69"/><path d="M280.6 195.66c.84-5.86 5.62-8.38 10.9-9.13 5.54-.78 9.44.67 13.87 4.63a15 15 0 0 1 3.73 5.23 51 51 0 0 1 2.65 8.83c.9 4.03 1.81 6.6 4.57 9.44-4.92 1.53-9.19 1.83-13.2.15" class="d"/><path d="M233.92 238.05c-.32.12-.45-.41-.36-.74a29 29 0 0 1 5.04-10.56 19.6 19.6 0 0 1 13.39-7.73 24 24 0 0 0 7.76 6.92 5 5 0 0 0 2.04.78s13.13 0 22.83 0a21 21 0 0 1 2.86 1.04 15.2 15.2 0 0 1 8.44 10.93l.12.71 3.01-2.72a5 5 0 0 1 3.67-1.2 49 49 0 0 0 .69-10.7 37 37 0 0 0-5.29-17.77 35 35 0 0 0-4.86-6.15 57 57 0 0 0-2.63-2.5 44 44 0 0 0-6.4-4.25 38 38 0 0 0-5.59-2.5 40 40 0 0 0-13.25-2.18 38 38 0 0 0-22.44 6.9 36 36 0 0 0-15.57 28.46 54 54 0 0 0 .94 10.88 5 5 0 0 1 3.02 1.22" class="d"/><path d="M70.3 140.05c11.74 10.37 27.04 15.81 42.7 13.77a60 60 0 0 0 13.04-3.21 2.47 2.47 0 0 0 1.68-2.96 2.4 2.4 0 0 0-2.95-1.67c-13.35 4.94-28.01 4.68-40.7-2.08a54 54 0 0 1-10.37-7.25c-2.31-2.03-5.72 1.35-3.4 3.4" class="b"/><path d="M59.54 37.95a51.3 51.3 0 0 1 20.02-26.73 50 50 0 0 1 30.77-8.74 50.4 50.4 0 0 1 28.21 9.29l6.48 5.31c8.03 7.73 15.12 19.61 15.3 36.81a54 54 0 0 1-2.58 16.76 8 8 0 0 0-1.9-.34 6.7 6.7 0 0 0-4.87 1.62l-6.6-5.59c-2.01-5.57-6.76-11.81-11.77-16.4a27 27 0 0 0-7.65-5.18l-8.45-1.31c-5.8 2.23-14.04 7.03-18.65 9.4a1.55 1.55 0 0 1-2.15-1.73 8 8 0 0 0-.1-2.98c-.26-1.26-1.2-1.82-1.96-1.45-6.45 3.12-15.76 11.44-21.07 16.98l-7.01 5.51a6.7 6.7 0 0 0-4.77-1.92 8 8 0 0 0-2.1.26 56 56 0 0 1-1.54-16.94 55 55 0 0 1 2.39-12.63" class="d"/><path d="M67.25 67.48a9.6 9.6 0 0 0-10.67-1.71 9.4 9.4 0 0 0-4.81 6.22c-1.77 6.14-.38 13.24 2.92 18.63 2.29 3.73 6.04 7.08 10.7 6.6a2.47 2.47 0 0 0 2.4-2.4 2.4 2.4 0 0 0-2.4-2.4c-3.64.37-5.98-2.87-7.42-5.8a20 20 0 0 1-2.12-7.75c-.13-2.6 0-5.75 1.64-7.92-.34.45.25-.24.32-.31.32-.3-.12.03.3-.25a4 4 0 0 1 1.74-.67 4.6 4.6 0 0 1 4 1.16c2.24 2.13 5.64-1.26 3.4-3.4m85.41 6.14a4.6 4.6 0 0 1 4.11-.75 3.5 3.5 0 0 1 2.1 1.31c1.52 2.23 1.47 5.49 1.16 8.07a21 21 0 0 1-2.7 7.7c-1.4 2.43-3.99 5.8-7.21 5.27a2.47 2.47 0 0 0-2.96 1.67 2.4 2.4 0 0 0 1.68 2.96c7.88 1.3 12.67-6.26 14.96-12.7 1.91-5.36 2.2-13.89-2.94-17.6a9.6 9.6 0 0 0-11.6.68 2.4 2.4 0 0 0 0 3.4 2.45 2.45 0 0 0 3.4 0Z" class="b"/><path d="M62.8 92.08a54 54 0 0 0 7.13 18.2c3.7 5.92 8.63 11.47 14.67 15.06a30 30 0 0 0 10 3.75 2.47 2.47 0 0 0 2.96-1.68 2.4 2.4 0 0 0-1.67-2.95c-7.74-1.4-13.74-6.1-18.61-12.09a49 49 0 0 1-9.85-21.57 2.4 2.4 0 0 0-2.95-1.68 2.45 2.45 0 0 0-1.68 2.96M139.76 9.7a55.3 55.3 0 0 0-51.8-5.73A54.3 54.3 0 0 0 57.9 35.28a57.4 57.4 0 0 0-1.71 32.1c.67 3.02 5.3 1.74 4.63-1.27-3.51-15.8.01-32.72 10.97-44.88a49.9 49.9 0 0 1 65.53-7.4 2.4 2.4 0 0 0 3.29-.85 2.45 2.45 0 0 0-.87-3.28Zm20.5 60.88a63 63 0 0 0 2.38-13.19 61 61 0 0 0-.76-13.27A50 50 0 0 0 154 24.01a52 52 0 0 0-6.88-8.19c-2.22-2.15-5.62 1.24-3.4 3.4a46 46 0 0 1 10.16 14.46 52 52 0 0 1 4.02 21.77 55 55 0 0 1-2.29 13.85c-.83 2.98 3.8 4.25 4.63 1.28Zm-59.88 36.02a17.6 17.6 0 0 0 8.31 2.2c2.76.09 6.01-.28 8.32-1.96a2.46 2.46 0 0 0 .86-3.28 2.4 2.4 0 0 0-3.28-.86 7 7 0 0 1-.9.54l-.27.13c-.25.14.54-.2.15-.06l-.78.26q-.45.13-.92.23l-.46.09c-.24.04-.4.04-.07.01a20 20 0 0 1-2.65.1q-.65-.02-1.29-.08c-.03 0-.8-.1-.29-.02l-.53-.09a14 14 0 0 1-1.88-.47l-.78-.28c-.28-.1.5.24.15.05l-.33-.15-.94-.5a2.4 2.4 0 1 0-2.42 4.14m7.77-19.61q.44 1.88.73 3.8l-.09-.64.13.95-.09-.64a3 3 0 0 1 .02.73l.08-.63-.07.26.24-.58-.1.17.38-.49-.09.1.49-.38a2 2 0 0 1-.4.2l.58-.23a3 3 0 0 1-.5.13l.63-.08a2 2 0 0 1-.54 0l.64.08-.66-.13a2.6 2.6 0 0 0-1.85.24 2.4 2.4 0 0 0-.86 3.29 2.3 2.3 0 0 0 1.44 1.1c.47.08.92.2 1.41.23a4.5 4.5 0 0 0 2.22-.52 3 3 0 0 0 1.66-2.05 5 5 0 0 0-.03-2.22l.09.64a46 46 0 0 0-.84-4.62 2.4 2.4 0 0 0-2.95-1.67 2.45 2.45 0 0 0-1.68 2.95Zm-21.8-12.84c-.79 2.27-.5 7.57 3.84 8.16 5.76.15 6.27-6.23 4.43-9.3-1.51-2.51-6.14-3.68-8.28 1.13m46.07 1.48c.64 2.32 0 7.59-4.36 7.9-5.75-.22-5.86-6.62-3.82-9.57 1.66-2.4 6.36-3.28 8.18 1.67m-8.68-28.8a34 34 0 0 1 10.72 8.38 38 38 0 0 1 7.6 11.77 2.47 2.47 0 0 0 2.95 1.68 2.4 2.4 0 0 0 1.68-2.96 43 43 0 0 0-8.59-13.6 38 38 0 0 0-11.93-9.4 2.47 2.47 0 0 0-3.29.86 2.4 2.4 0 0 0 .86 3.28Z" class="b"/><path d="M74.26 65.37a96 96 0 0 1 17.45-14.83q1.02-.66 2.09-1.24l.53-.28c.33-.23.24.05.02-.08-.1-.07-1.6.55-1.05-.26-.08.12.05.4.06.53.08.87-.11 1.72-.04 2.57a4 4 0 0 0 1.64 2.88c1.95 1.39 3.8.44 5.64-.54q2.4-1.28 4.77-2.58a106 106 0 0 1 11.76-5.77 2.47 2.47 0 0 0 1.68-2.96 2.4 2.4 0 0 0-2.95-1.67 104 104 0 0 0-11.04 5.25l-5.2 2.81-2.1 1.12c-.56.3-.87.22-.13.45s.71.64.78-.31c.14-2.14-.34-4.74-2.38-5.85-1.93-1.06-3.86.2-5.52 1.17a74 74 0 0 0-9.75 7.18 125 125 0 0 0-9.65 9.01c-2.14 2.23 1.25 5.63 3.4 3.4Zm-1.62 75.3 6.43-2.47a34 34 0 0 0 3.95-1.59c4.51-2.42 5.25-8.2 5.81-12.76a2.4 2.4 0 0 0-2.4-2.4 2.47 2.47 0 0 0-2.4 2.4l-.02.17-.08.54a42 42 0 0 1-.5 2.67 21 21 0 0 1-.71 2.68l-.13.35q.18-.42.01-.05l-.25.5q-.16.28-.34.55c-.3.51.19-.14-.13.19l-.4.4-.27.25-.52.32-.5.25-.14.05-.62.23-2.1.8-5.97 2.3a2.46 2.46 0 0 0-1.68 2.94 2.43 2.43 0 0 0 2.96 1.68" class="b"/><path d="M70.5 135.88c-9.94 3.64-20.02 7.16-29.4 12.1-8.35 4.38-16.25 10.14-20.96 18.49-4.52 8.03-6.82 17.24-8.65 26.2-1.96 9.58-3.77 19.18-5.56 28.79-1.89 10.16-3.91 20.4-5.17 30.66-1.07 8.77-1.16 18.06.7 26.73 1.92 8.84 7.73 17.04 14.87 22.49 5.8 4.44 12.75 6.3 19.73 8.01a300 300 0 0 0 58.33 8.15q4.57.2 9.15.27c3.09.04 3.09-4.76 0-4.8a302 302 0 0 1-60.66-6.95q-4.71-1.03-9.38-2.28a61 61 0 0 1-7.82-2.44c-8.07-3.4-14.7-10.77-18.08-18.7a39 39 0 0 1-2.46-11.8 94 94 0 0 1-.07-13.24 119 119 0 0 1 1.64-12.7q1.26-7.72 2.63-15.42c1.8-10.1 3.8-20.16 5.74-30.22 1.58-8.15 3.24-16.33 6.27-24.1a39 39 0 0 1 6.1-10.9 44 44 0 0 1 9.98-8.56c8.37-5.41 17.77-9.04 27.07-12.49q3.63-1.34 7.27-2.66a2.47 2.47 0 0 0 1.67-2.96 2.4 2.4 0 0 0-2.95-1.67Z" class="b"/><path d="M52.81 209.95c-1.5 11.98-3.64 24.44-5.66 36.56l-1.64 9.78a2.47 2.47 0 0 0 1.68 2.95 2.4 2.4 0 0 0 2.95-1.68c2.13-12.68 4.27-25.36 6.15-38.09q.71-4.75 1.32-9.52a2.4 2.4 0 0 0-2.4-2.4 2.46 2.46 0 0 0-2.4 2.4m196.89 67c0 .04.13-.71.05-.42l-.06.27-.06.34-.16.8a13 13 0 0 1-.45 1.56c-.03.1-.23.58-.06.17s-.01.02-.06.1a8 8 0 0 1-.43.78l-.26.38c-.23.34.33-.38.05-.06a10 10 0 0 1-.67.7l-.4.33c-.19.17.2-.14.2-.14l-.2.13-.47.3c-.33.25.24-.06.24-.06a4 4 0 0 0-1.12.49l-2.3 1.07q-.98.48-1.96.92a2.4 2.4 0 0 0-1.1 1.43 2.5 2.5 0 0 0 .24 1.85 2.4 2.4 0 0 0 1.43 1.1 2.8 2.8 0 0 0 1.85-.24c1.42-.6 2.8-1.32 4.2-1.96l.4-.18c.44-.2-.6.28-.32.14a10 10 0 0 0 1.34-.72 13 13 0 0 0 1.26-.98 10 10 0 0 0 2.62-3.9 12 12 0 0 0 .58-1.83 11 11 0 0 0 .43-2.39 2.4 2.4 0 0 0-4.8 0Zm28.76-.82c.4 3.03 1.02 6 3.13 8.33a11 11 0 0 0 1.97 1.65 5 5 0 0 0 1.26.65c.17.06-.73-.32-.45-.2l.17.09q1.2.54 2.37 1.1l2.15 1.01a2.46 2.46 0 0 0 3.29-.86 2.43 2.43 0 0 0-.86-3.28c-1.38-.63-2.74-1.3-4.1-1.93l-.66-.3q-.32-.15-.63-.26c.03 0 .54.29.33.1l-.23-.14-.42-.28c-.05-.03-.28-.21-.02 0s-.01-.02-.07-.07a8 8 0 0 1-.7-.68l-.28-.33c-.01-.01.29.41.16.2l-.16-.23a8 8 0 0 1-.45-.76l-.18-.36c-.17-.35.2.51.02.02a14 14 0 0 1-.52-1.78l-.16-.85-.11-.63c-.03-.17-.14-.93-.05-.22a2.6 2.6 0 0 0-.7-1.7 2.4 2.4 0 0 0-1.7-.7c-1.16.05-2.57 1.07-2.4 2.4Zm5.07-82.19c2.52-5.17 10.49-6.42 15.4-4.29a16 16 0 0 1 7.35 6.41c1.79 3.12 2.49 6.93 3.29 10.39a20.4 20.4 0 0 0 5.05 9.9l1.05-4.01c-4 1.22-7.95 1.75-11.92.15a2.4 2.4 0 0 0-2.95 1.67 2.46 2.46 0 0 0 1.68 2.96c4.68 1.88 9.76 1.29 14.47-.15a2.43 2.43 0 0 0 1.06-4.02c-2.47-2.58-3.33-5.63-4.1-9.05-.88-3.96-2-8.37-4.42-11.7a21.6 21.6 0 0 0-9.2-7.15 18.7 18.7 0 0 0-11.07-.54c-4.07.9-7.95 3.15-9.83 7a2.46 2.46 0 0 0 .86 3.3 2.4 2.4 0 0 0 3.28-.87m17.22 44.44a2.5 2.5 0 0 1 3.63.6 6 6 0 0 1 .43 2.74 17 17 0 0 1-.23 3.34 18 18 0 0 1-2.37 6.26 9 9 0 0 1-1.84 2.16 1.6 1.6 0 0 1-1.75.47c-3-.8-4.27 3.83-1.28 4.63 3.7.99 6.62-1.39 8.64-4.27a21.5 21.5 0 0 0 3.48-9.7c.4-3.23.37-7.31-2.24-9.67a7.46 7.46 0 0 0-9.86.05 2.4 2.4 0 0 0 0 3.39 2.45 2.45 0 0 0 3.4 0m-67.72-3.19a7.5 7.5 0 0 0-9.86-.04c-2.61 2.35-2.63 6.44-2.24 9.67a21.5 21.5 0 0 0 3.48 9.7c2.03 2.88 4.93 5.25 8.64 4.26 2.98-.8 1.72-5.42-1.28-4.62a1.6 1.6 0 0 1-1.75-.48 9 9 0 0 1-1.84-2.16 18 18 0 0 1-2.37-6.26 16 16 0 0 1-.24-3.15 7 7 0 0 1 .45-2.93 2.5 2.5 0 0 1 3.62-.6 2.47 2.47 0 0 0 3.4 0 2.4 2.4 0 0 0 0-3.39" class="b"/><path d="M295.45 253.62a20 20 0 0 1-.69 2.98 15 15 0 0 0-.7 2.05c-.05.37.28-.53.07-.15q-.13.24-.24.5-.26.52-.55 1.03a42 42 0 0 1-3.6 5.38c-3.35 4.18-7.57 8.4-12.84 9.55-3.02.66-1.74 5.28 1.28 4.62 6.12-1.33 11.16-6.02 14.95-10.78 3.27-4.11 6.17-8.6 6.95-13.9a2.5 2.5 0 0 0-1.67-2.95 2.4 2.4 0 0 0-2.96 1.67m-64.9.55a39 39 0 0 0 9.5 17.08c4.51 4.74 10.34 8.59 16.93 9.52a2.5 2.5 0 0 0 2.95-1.67 2.4 2.4 0 0 0-1.68-2.96c-11.57-1.64-20.29-12.45-23.08-23.25-.78-2.99-5.4-1.72-4.63 1.28Zm74.52-18.3c1.7-10.4.66-21.4-5.1-30.44a40.3 40.3 0 0 0-24.26-17.2 43 43 0 0 0-29.67 3.39 40 40 0 0 0-16.19 15.62 39 39 0 0 0-4.63 14.59 51 51 0 0 0 .66 14.04 2.4 2.4 0 0 0 2.95 1.67 2.46 2.46 0 0 0 1.68-2.95 50 50 0 0 1-.68-10.67 33 33 0 0 1 2.84-11.65 35.6 35.6 0 0 1 12.72-14.7 37.4 37.4 0 0 1 25.1-5.44 36.2 36.2 0 0 1 23.26 12.85c6.76 8.22 8.37 19.34 6.7 29.6a2.47 2.47 0 0 0 1.67 2.96 2.4 2.4 0 0 0 2.95-1.68Zm21.24 80.22a70 70 0 0 0-12.33-19.3c-5.11-5.65-12.66-9.07-19.63-11.8a2.4 2.4 0 0 0-2.95 1.67 2.46 2.46 0 0 0 1.68 2.95c6.29 2.47 13.19 5.64 17.73 10.82a68 68 0 0 1 11.36 18.09 2.4 2.4 0 0 0 3.28.86 2.46 2.46 0 0 0 .86-3.29m-114.08 2.46c2.36-6.83 5.29-14.18 10.8-19.13a40 40 0 0 1 9.17-5.62 132 132 0 0 1 11.22-4.8 2.47 2.47 0 0 0 1.68-2.95 2.4 2.4 0 0 0-2.96-1.68c-6.34 2.42-12.79 5.02-18.52 8.69a34.5 34.5 0 0 0-11.75 13.66 82 82 0 0 0-4.27 10.55c-1.02 2.92 3.62 4.18 4.62 1.27Zm47-55.24c1.78 1.75 4.55 2.31 6.96 2.31s5.18-.56 6.97-2.31a2.4 2.4 0 0 0-3.4-3.4c-.1.1-.44.37-.04.06s-.03.01-.15.09l-.42.23-.3.14c.12-.07.58-.22.2-.1a10 10 0 0 1-1.4.4 1 1 0 0 1-.43.05 12 12 0 0 1-1.97 0l-.52-.05c.23 0 .44.07.08 0a9 9 0 0 1-1.42-.37c-.2-.07-.5-.27.13.07l-.24-.12-.47-.26-.34-.22c.7.43.34.27.15.08a2.4 2.4 0 0 0-3.4 3.4Zm6.62-13.07-.2.1.57-.25a1 1 0 0 1-.32.1l.64-.1a1 1 0 0 1-.33 0l.64.1-.19-.04q-.4-.07-.8-.11a2.47 2.47 0 0 0-2.4 2.4l.09.64a2.4 2.4 0 0 0 .61 1.05l.5.38a2.4 2.4 0 0 0 1.2.33h.01l-.63-.09.23.05.76.1h.29q.34-.03.67-.1h.04l.08-.02.19-.06a7 7 0 0 0 .77-.34 2.3 2.3 0 0 0 1.14-2.39 2 2 0 0 0-.28-.9l-.38-.48a2.4 2.4 0 0 0-1.06-.61l-.63-.09a2.4 2.4 0 0 0-1.21.33" class="b"/><path d="M248.48 239.88c-.54 1.74-.19 5.76 3.12 6.1 4.36-.03 4.6-4.88 3.13-7.16-1.2-1.87-4.75-2.64-6.25 1.06m34.82 0c.54 1.74.19 5.76-3.12 6.1-4.36-.03-4.6-4.88-3.12-7.16 1.2-1.87 4.74-2.64 6.24 1.06m-35.97-22.3a24 24 0 0 0-11.63 9.08 30 30 0 0 0-3.44 6.75 21 21 0 0 0-1.04 3.44c-.3 1.68.72 3.77 2.7 3.6a2.46 2.46 0 0 0 2.4-2.4 2.4 2.4 0 0 0-2.4-2.4l-.15.01 1.22.33-.11-.08.86.87c.17.3-.04 1.8.25.72l.21-.75q.2-.67.43-1.33a24 24 0 0 1 .91-2.3 25 25 0 0 1 2.84-4.78 18.5 18.5 0 0 1 8.22-6.14 2.46 2.46 0 0 0 1.68-2.95 2.4 2.4 0 0 0-2.96-1.68Z" class="b"/><path d="M246.8 212.59a20 20 0 0 0 5 10.04 26 26 0 0 0 4.3 3.82 13 13 0 0 0 5.7 2.67 2.4 2.4 0 0 0 2.4-2.4 2.5 2.5 0 0 0-2.4-2.4c.43.06-.28-.14-.3-.15.3.12-.11-.07-.21-.12a23 23 0 0 1-3.04-1.95c-.2-.15.2.17-.13-.1l-.52-.43q-.43-.36-.84-.74a23 23 0 0 1-1.71-1.76l-.36-.43c-.1-.12-.31-.39-.1-.12q-.38-.48-.72-1a18 18 0 0 1-1.16-1.99l-.28-.59c-.19-.4.04.12-.06-.13q-.22-.56-.4-1.14a16 16 0 0 1-.53-2.36 2.4 2.4 0 0 0-2.96-1.67 2.47 2.47 0 0 0-1.67 2.95Zm17.94 1.15a37 37 0 0 0 6.47 9.33 19.4 19.4 0 0 0 9.4 5.06c3.02.8 6.11 1.45 8.55 3.52a13.2 13.2 0 0 1 4.44 7.68 2.4 2.4 0 0 0 2.96 1.68 2.45 2.45 0 0 0 1.67-2.96 17.7 17.7 0 0 0-4.6-8.79 19 19 0 0 0-8.97-5.03c-3.27-.91-6.73-1.45-9.31-3.83a31 31 0 0 1-6.46-9.08 2.4 2.4 0 1 0-4.15 2.42m-24.78 76.33c5.43 5.71 13.16 7.8 20.77 8.6 8 .83 16.09.14 23.5-3.14a23.6 23.6 0 0 0 8.73-6.21 2.47 2.47 0 0 0 0-3.4 2.4 2.4 0 0 0-3.4 0c-5 6.1-14.07 8.11-21.55 8.25-8.51.16-18.47-1-24.65-7.49-2.14-2.24-5.53 1.16-3.4 3.4Zm60.03-193.43a4.3 4.3 0 0 1 3.8-.83 4 4 0 0 1 1.38.58l.5.46c.35.35-.13-.25.14.16 1.41 2.12 1.44 5.02 1.23 7.48a19 19 0 0 1-2.29 7.25c-1.2 2.25-3.56 5.63-6.54 5.23a2.5 2.5 0 0 0-2.95 1.67 2.4 2.4 0 0 0 1.67 2.95c7.59 1.04 12.02-6.16 14.06-12.45 1.67-5.16 1.74-13.2-3.14-16.71a9.2 9.2 0 0 0-11.25.82c-2.32 2.05 1.08 5.44 3.39 3.4Z" class="b"/><path d="M295.52 115.58a49 49 0 0 1-2.79 8.34 30 30 0 0 1-.85 1.7q-.74 1.38-1.56 2.72a50 50 0 0 1-10.91 12.91 20 20 0 0 1-8 4.12c-3.02.69-1.74 5.32 1.27 4.63 6.26-1.43 11.48-5.98 15.57-10.72a55 55 0 0 0 8.62-12.93l.44-1.04c.06-.14.3-.67.03-.07q.53-1.18 1-2.39a41 41 0 0 0 1.8-6c.64-3.01-3.99-4.3-4.62-1.28Zm-80.47.82a51 51 0 0 0 11.05 22.12c5.25 6.15 12.03 11.03 20.16 12.27a2.5 2.5 0 0 0 2.96-1.67 2.4 2.4 0 0 0-1.68-2.95c-7.42-1.14-13.26-5.44-18.05-11.04a46 46 0 0 1-9.8-20c-.68-3.02-5.3-1.75-4.63 1.27Zm33.41 12.8a17 17 0 0 0 8.12 1.91 13.3 13.3 0 0 0 8.27-2.44 2.4 2.4 0 0 0 0-3.39 2.5 2.5 0 0 0-3.39 0c.75-.58.24-.19.05-.07l-.5.29c-.24.12-.76.22-.1.07-.23.05-.45.17-.68.24a12 12 0 0 1-1.9.43c.36-.06.14-.03-.09 0l-.56.04a19 19 0 0 1-2.56-.02l-.55-.04c-.7-.06.47.09-.18-.02a14 14 0 0 1-1.77-.4l-.74-.25c-.58-.2.43.21-.1-.04l-.9-.46a2.4 2.4 0 0 0-2.41 4.15Zm6.82-18.92a37 37 0 0 1 .87 4.02l-.09-.63a2 2 0 0 1 .01.55l.09-.64-.06.25.24-.57-.09.16.38-.49-.14.13.49-.37-.32.16.57-.24a2 2 0 0 1-.53.16l.63-.09a2 2 0 0 1-.5 0l.64.09-.56-.1a2 2 0 0 0-.96-.04 2 2 0 0 0-.9.28 2.4 2.4 0 0 0-.85 3.28 2.3 2.3 0 0 0 1.43 1.1c.46.07.91.18 1.38.2a4.5 4.5 0 0 0 2.08-.5 3 3 0 0 0 1.68-2 5 5 0 0 0-.02-2.14 44 44 0 0 0-.83-3.85 2.4 2.4 0 0 0-4.63 1.27Zm-20.9-11.57c-.67 2.18-.25 7.2 3.88 7.65 5.46-.02 5.78-6.09 3.95-8.95-1.5-2.34-5.92-3.33-7.82 1.3m43.77.17c.66 2.19.2 7.2-3.93 7.62-5.47-.06-5.73-6.13-3.88-8.98 1.51-2.33 5.94-3.28 7.8 1.36m9.23-63.86a49 49 0 0 0-28.04-8.81 74 74 0 0 0-12.45.76 49 49 0 0 0-11.27 3.57c-14.03 6.28-25.95 19.65-28.55 35.07a61 61 0 0 0-.45 14.18c.3 4.57.86 9.26 2.8 13.46a2.4 2.4 0 0 0 3.28.87 2.46 2.46 0 0 0 .86-3.29c-1.54-3.34-1.83-6.88-2.1-10.34a69 69 0 0 1 0-11.77c.67-6.94 3.78-13.61 7.88-19.18 8.43-11.42 22.5-18.83 36.76-18.55 2.53.05 5.06-.04 7.58.19a41 41 0 0 1 7.4 1.39 47 47 0 0 1 13.88 6.59c2.55 1.75 4.96-2.4 2.42-4.14m20.12 59.86c2.79-6.63 2.45-14.57 1.68-21.58a78 78 0 0 0-1.6-9.85 47 47 0 0 0-5.1-12.48 45 45 0 0 0-8.53-10.5c-2.27-2.09-5.67 1.3-3.39 3.4a41.7 41.7 0 0 1 11.98 19.32 67 67 0 0 1 2.3 19.63 30 30 0 0 1-1.97 10.78 2.4 2.4 0 0 0 1.68 2.96 2.46 2.46 0 0 0 2.95-1.68m-26.32-29a55 55 0 0 0 5.05 15.94c1.99 4.3 4.14 8.54 8.73 10.47a2.4 2.4 0 0 0 2.95-1.68 2.46 2.46 0 0 0-1.68-2.95c-3.19-1.34-4.72-5.79-6.04-8.67a47 47 0 0 1-4.21-13.1 2.5 2.5 0 0 0-2.4-2.4 2.4 2.4 0 0 0-2.4 2.4Zm-87.72 115.16a59 59 0 0 1 14.4-11.41c4.94-2.87 10.73-4.45 16.15-6.14 2.94-.92 1.68-5.55-1.28-4.63-5.8 1.82-12 3.55-17.3 6.62a64 64 0 0 0-15.37 12.16c-2.05 2.3 1.33 5.7 3.4 3.4" class="b"/><path d="M218.88 92.93a9.3 9.3 0 0 0-10.13-1.52 8.9 8.9 0 0 0-4.63 5.98c-1.63 5.94-.12 12.87 3.25 17.96 2.29 3.46 5.92 6.59 10.35 6.02a2.5 2.5 0 0 0 2.4-2.4 2.4 2.4 0 0 0-2.4-2.4c-3.3.42-5.52-2.26-6.96-4.9a19 19 0 0 1-2.4-7.59 17 17 0 0 1 .16-4.42 10 10 0 0 1 .58-2.08c.07-.16.2-.37.28-.52.03-.06.4-.6.21-.36-.16.23.32-.35.38-.4s.54-.43.3-.27a4 4 0 0 1 1.6-.63 4.2 4.2 0 0 1 3.62.92c2.28 2.07 5.69-1.31 3.39-3.4Zm80.65 75.14a128 128 0 0 1 14.65 6.5c4.33 2.27 8.62 4.67 12.1 8.16 7.16 7.16 10.07 16.92 12.72 26.43 2.98 10.71 6.15 21.4 8.31 32.32 1.83 9.23 3.43 18.91 2.53 28.35a30 30 0 0 1-4.92 14.16c-3.06 4.52-7.25 8.2-11.43 11.66a2.4 2.4 0 0 0 0 3.4 2.45 2.45 0 0 0 3.4 0c7.87-6.53 15-14.06 17.07-24.43 1.95-9.8.48-19.95-1.16-29.7-1.9-11.38-5.1-22.48-8.21-33.58-2.93-10.46-5.67-21.2-12.8-29.7-3.74-4.47-8.48-7.58-13.55-10.34a135 135 0 0 0-17.44-7.86 2.4 2.4 0 0 0-2.95 1.67 2.45 2.45 0 0 0 1.67 2.95Z" class="b"/><path d="M316.05 263.48a23 23 0 0 1 7.4-.54 22 22 0 0 1 3.43.58 26 26 0 0 1 3.77 1.24 2.4 2.4 0 0 0 2.96-1.67 2.5 2.5 0 0 0-1.68-2.95 28 28 0 0 0-17.16-1.3 2.4 2.4 0 1 0 1.28 4.64m-40.41-117.63a29 29 0 0 0 2.78 9.54 16 16 0 0 0 5.35 5.29c4.83 3.2 10.43 5.2 15.76 7.4a2.4 2.4 0 0 0 2.95-1.68 2.46 2.46 0 0 0-1.68-2.95c-4.78-1.98-9.7-3.81-14.1-6.59a17 17 0 0 1-2.4-1.76 6 6 0 0 1-1.64-1.96c-1.49-2.58-1.94-5.67-2.4-8.57a2.4 2.4 0 0 0-2.95-1.67 2.46 2.46 0 0 0-1.68 2.95ZM224 163.49a85 85 0 0 0 12.1-4.52c1.79-.9 3.87-1.97 4.47-4.02a31 31 0 0 0 .6-3.27l.65-3.65a2.47 2.47 0 0 0-1.68-2.95 2.4 2.4 0 0 0-2.95 1.68c-.38 2.12-.73 4.25-1.14 6.37l-.11.55c-.01 0 .18-.34.2-.3l-.94.59a19 19 0 0 1-1.92 1.05c-.8.38-1.25.57-1.86.82q-1.32.52-2.66 1-3 1.06-6.04 2.02a2.45 2.45 0 0 0-1.68 2.96 2.43 2.43 0 0 0 2.96 1.67m-.96 7.46a96 96 0 0 0 15.82 6.08 71 71 0 0 0 15.18 2.28 116 116 0 0 0 17.4-.49 58 58 0 0 0 11.77-2.25 51 51 0 0 0 8.9-4c2.71-1.49.3-5.63-2.42-4.14a69 69 0 0 1-5.05 2.53c.47-.2-.48.19-.6.23q-.51.2-1.03.38a48 48 0 0 1-10.17 2.3c-10.14 1.22-20.92 1.37-30.91-1.02a85 85 0 0 1-16.47-6.04 2.47 2.47 0 0 0-3.28.86 2.4 2.4 0 0 0 .86 3.28m-17.61 94.08a242 242 0 0 0 7.3 23.4 2.47 2.47 0 0 0 2.95 1.68 2.4 2.4 0 0 0 1.68-2.95 242 242 0 0 1-7.3-23.41c-.77-2.99-5.4-1.72-4.63 1.28m49.25-181.9a3.9 3.9 0 0 0 1.64 4.43 8 8 0 0 0 4.44.74A21 21 0 0 0 271 85.07c4.95-3.2 8.26-8.95 10.1-14.42a39 39 0 0 0 1.66-10.85c.13-3.09-4.67-3.08-4.8 0-.23 5.8-1.38 11.25-4.64 16.05a17 17 0 0 1-7.42 6.48 16 16 0 0 1-4.67 1.15 13 13 0 0 1-2.02 0c-.05 0-.5-.02-.46-.06.13-.13.62.73.56.99.73-3-3.9-4.28-4.63-1.28" class="b"/><path d="M233.85 83.64a4.4 4.4 0 0 0 2.4 4.44 12 12 0 0 0 5.17.62 24 24 0 0 0 9.78-2.33c6.16-2.88 10.7-9.35 12.94-15.6a50 50 0 0 0 2.2-11.17 2.4 2.4 0 0 0-2.4-2.4 2.46 2.46 0 0 0-2.4 2.4 44 44 0 0 1-2.03 9.89 27 27 0 0 1-5.21 8.53 17 17 0 0 1-8.73 5.36 18 18 0 0 1-4.31.53c-.73 0-1.47.02-2.2-.04a4 4 0 0 1-.69-.06c.29.1.23.46.28-.17a2.4 2.4 0 0 0-2.4-2.4 2.45 2.45 0 0 0-2.4 2.4" class="b"/><path d="M223.04 92.12c5.27-3.52 11.7-4.8 16.74-8.63 5.1-3.87 7.6-9.77 9.09-15.83.73-3-3.9-4.28-4.63-1.28-1.3 5.28-3.3 10.48-7.9 13.71-2.46 1.73-5.24 2.68-7.97 3.86a48 48 0 0 0-7.75 4.02c-2.56 1.7-.15 5.87 2.42 4.15" class="b"/><path d="m321.16 307.43-1.64-1.64a26 26 0 0 1-7.04 7.02 4.2 4.2 0 0 1-2.62.92 4.3 4.3 0 0 1-2.33-.83 6 6 0 0 1-1.93-4.41c-2 2.07-3.2 3.17-6.07 2.72a5 5 0 0 1-2.48-1.55 5.7 5.7 0 0 1-.9-4.15s.25-.77.62-1.9a4.4 4.4 0 0 1-4.89-.47 4.2 4.2 0 0 1-.92-3.94 13 13 0 0 1 1.82-3.78l4.06-6.43.84-1.34-3.05 1.98c-3.29 2.13-6.51-1.7-5.25-5a26 26 0 0 1 3-6.06c1.98-2.65 6.69-6.2 10.33-3.72l6.78-.47c3.62-.5 6.16 1.61 9 2.9a19 19 0 0 1 6.98 6.24c2.3 3.13 3.7 6.1 3.58 8.97a20 20 0 0 1-7.88 14.94" class="a"/><path d="M303.92 272.78c-4.37-2.85-9.82.04-12.81 3.56a24 24 0 0 0-3.74 6.85 7 7 0 0 0 .51 6.78 5.8 5.8 0 0 0 7.96 1.73 2.4 2.4 0 0 0-2.43-4.14l-.38.22q.4-.15.01 0l-.37.1q.5-.06.1-.03l-.36-.01q.53.08.13 0l-.32-.12q.46.2.1.02-.15-.08-.29-.18.39.3.09.04l-.25-.26q.28.39.05.06-.19-.3-.35-.63c.25.52.03.02 0-.12l-.07-.3c0-.14.1-.92-.02-.31a10 10 0 0 1 .52-1.57l.34-.85.23-.52q.38-.84.81-1.64.44-.76.93-1.5.28-.37-.03.05l.22-.28q.24-.28.5-.55.56-.57 1.17-1.09.31-.25 0-.01a12 12 0 0 1 1.59-1.03c.08-.05.88-.4.37-.2a8 8 0 0 1 1.55-.44c-.6.1.22 0 .35 0l.34.02c.1.03.89.3.38.08a5 5 0 0 1 .74.42 2.4 2.4 0 0 0 3.29-.86 2.46 2.46 0 0 0-.86-3.29" class="b"/><path d="m298.24 282.26-5.86 9.3c-1.75 2.77-4.24 5.85-3.92 9.34a6 6 0 0 0 6.64 5.59c3.2-.32 5.62-2.63 7.67-4.94a85 85 0 0 0 6.43-8.82 2.4 2.4 0 1 0-4.15-2.42 75 75 0 0 1-5.67 7.85 18 18 0 0 1-3.18 3 3 3 0 0 1-1.42.56 1.7 1.7 0 0 1-1.06-.18c-.32-.2-.36-.32-.45-.73a3 3 0 0 1 .2-1.64 24 24 0 0 1 2.64-4.53l6.28-9.96c1.65-2.62-2.5-5.03-4.15-2.42" class="b"/><path d="M293.83 304.88a7.07 7.07 0 0 0 9.98 8.13 15 15 0 0 0 4.33-3.7q1.93-2.05 3.8-4.17 2.89-3.26 5.53-6.73a2.4 2.4 0 0 0-.86-3.29 2.46 2.46 0 0 0-3.28.87 124 124 0 0 1-8.73 10.09q-.99 1.06-2.05 2.04c-.02.02-.6.46-.23.2a7 7 0 0 1-.74.45c.43-.22-.12.04-.22.06l-.42.1q.39-.06-.06-.02c-.26-.02-.52 0-.78-.03.28.04-.6-.23-.25-.07a7 7 0 0 1-.75-.46c-.35-.22-.02.04-.23-.25-.25-.35 0 .16-.15-.31a8 8 0 0 1-.24-.87q-.04-.26 0 .02a6 6 0 0 1-.03-.9q-.08.48.01.11c.8-2.98-3.83-4.26-4.63-1.27" class="b"/><path d="M303.68 311.19a6.9 6.9 0 0 0 5.06 4.8c2.53.46 4.48-.67 6.41-2.14a32 32 0 0 0 8.73-10.56 2.4 2.4 0 0 0-4.15-2.42 28 28 0 0 1-6.3 8.23 14 14 0 0 1-1.73 1.36l-1 .65c-.18.1-.4.2-.08.07a3 3 0 0 1-.54.16l.04-.01h-.26c-.54-.22.5.17-.16-.04l-.55-.16c-.26-.09.28 0-.12-.07q.33.27.1.05l-.26-.27c-.08-.09-.23-.28-.07-.07q-.2-.28-.37-.58c-.25-.4.06.23-.13-.28a2.46 2.46 0 0 0-2.95-1.67 2.4 2.4 0 0 0-1.68 2.95Z" class="b"/><path d="M309.49 276.78a8 8 0 0 1 4.56.92c1.44.71 2.93 1.42 4.31 2.22a20.3 20.3 0 0 1 7.2 8.27c2.94 5.78-.76 13.57-5.6 17.17a2.47 2.47 0 0 0-.87 3.28 2.4 2.4 0 0 0 3.29.86c6.76-5.02 11.4-14.83 7.7-22.98a25 25 0 0 0-8.94-10.53 47 47 0 0 0-5.32-2.76 12 12 0 0 0-6.33-1.25 2.47 2.47 0 0 0-2.4 2.4 2.4 2.4 0 0 0 2.4 2.4" class="b"/><path d="M109.66 170.82c-3.02-2.83-6.8-4.93-10.8-4.43-5.43.69-9.36 6.34-9.18 11.8.22 6.71 5.55 12.63 11.55 15.16a61 61 0 0 0 15.14-6.81l2.1-3.57a11.4 11.4 0 0 0 1.33-8.02c-.41-2.03-1.77-4.2-3.85-4.3-1.66-.1-3.05 1.17-4.23 2.35a27 27 0 0 0-2.06-2.18" class="a"/><path d="M193.16 204.98c-1.88-7.55-4.87-14.8-9.7-20.82-6.65-8.3-16.28-13.3-26.78-11.71-4 .6-8.83 1.57-12.42 3.44-7.6 3.96-14.4 8.42-19.23 16.93a54 54 0 0 0-5.1-8.7 61 61 0 0 1-20.1 9.62c-.6 8.2 4.4 26.86 6.3 33.33 1.27 4.27 3.1 8.75 6.98 11.23a16 16 0 0 0 6.85 2.18l-.58 1.86c-9.58.99-16.53 12.36-13.03 21.34l5.4 13.2 44.14 6.39c14.88-1.36 27.77-12.33 34.17-25.83s7.04-29.14 4.8-43.91a94 94 0 0 0-1.7-8.55" style="fill:#7abee6"/><path d="M138.04 232.38a22.8 22.8 0 0 1-14.48 5.83 17 17 0 0 1-8.14-1.36 11.5 11.5 0 0 1-5.07-5.37c-1.73-3.4-2.58-7.31-3.55-10.98a212 212 0 0 1-3.14-13.45c-.86-4.37-1.73-8.83-1.43-13.3l-1.77 2.3a64 64 0 0 0 20.69-9.86l-3.29-.86a54 54 0 0 1 6.8 12.83 2.46 2.46 0 0 0 2.95 1.68 2.4 2.4 0 0 0 1.67-2.95 58 58 0 0 0-7.27-13.98c-.7-.98-2.16-1.68-3.29-.86a60 60 0 0 1-19.53 9.38 2.5 2.5 0 0 0-1.76 2.31c-.3 4.46.56 9.05 1.38 13.42.92 4.91 2.08 9.78 3.36 14.61 1.14 4.32 2.2 8.87 4.4 12.8a15.7 15.7 0 0 0 6.05 6.23 21 21 0 0 0 9.74 2.23 28 28 0 0 0 19.07-7.26c2.28-2.1-1.12-5.48-3.4-3.4" class="b"/><path d="M119.38 239.94a18.83 18.83 0 0 0-15.35 24.37 2.47 2.47 0 0 0 2.95 1.68 2.4 2.4 0 0 0 1.68-2.95 13.2 13.2 0 0 1 1.3-11.7 15 15 0 0 1 3.9-4.33 12 12 0 0 1 5.52-2.27 2.47 2.47 0 0 0 2.4-2.4 2.4 2.4 0 0 0-2.4-2.4m20.84-65a9 9 0 0 1-6.95-1.98 18 18 0 0 1-5.6-6.33c-2.78-5.53-1.57-12.14-1.22-18.04.2-3.1.14-6.24.48-9.34a36 36 0 0 1 1.73-7.7c1.64-4.78 4.56-9.28 8.9-12 5.3-3.33 11.7-4.26 17.86-4.2a47 47 0 0 1 14.4 2.32c8.75 2.94 15.97 9.26 18.33 18.38 1.66 6.41 1.2 13.61-.3 20a27 27 0 0 1-10.86 16.8 2.5 2.5 0 0 0-.86 3.28 2.4 2.4 0 0 0 3.29.86 33 33 0 0 0 12.22-16.6 51 51 0 0 0 1.97-21.06 30.7 30.7 0 0 0-6.4-15.62 32 32 0 0 0-12.43-9.24 49 49 0 0 0-16.34-3.81c-6.89-.45-13.97.28-20.3 3.14a25.8 25.8 0 0 0-12.76 13.08c-2.62 5.81-3.3 11.8-3.54 18.1-.28 7.1-1.84 14.7.63 21.57a21 21 0 0 0 5.67 8.33c2.32 2.16 5.1 4.13 8.27 4.72a14 14 0 0 0 5.09-.03 2.4 2.4 0 0 0 1.67-2.95 2.45 2.45 0 0 0-2.95-1.68" class="b"/><path d="M149.62 147.98a15 15 0 0 1-2.45-.11l.64.08q-.5-.06-.98-.16a2.6 2.6 0 0 0-1.85.24 2.4 2.4 0 0 0-.86 3.28 2.4 2.4 0 0 0 1.43 1.1 17 17 0 0 0 4.07.37 2.5 2.5 0 0 0 1.7-.7 2.7 2.7 0 0 0 .7-1.7 2.4 2.4 0 0 0-2.4-2.4m-18.12-1.01a12 12 0 0 1-2.58-.06l.64.09-.5-.1a2.5 2.5 0 0 0-1.85.25 2.7 2.7 0 0 0-1.1 1.43 2.4 2.4 0 0 0 1.67 2.95 10 10 0 0 0 1.22.19l.8.07a12 12 0 0 0 1.7-.02 2 2 0 0 0 .93-.21 2.5 2.5 0 0 0 1.47-2.2 2.4 2.4 0 0 0-.7-1.7 2.3 2.3 0 0 0-1.7-.7Zm5.58 16.65a22 22 0 0 0-2.93-.34 2.3 2.3 0 0 0-2.2 1.47 2 2 0 0 0-.2.93l.08.63a2.4 2.4 0 0 0 .62 1.06l.49.38a2.4 2.4 0 0 0 1.2.33q.87.05 1.72.16l-.64-.09.58.1a2 2 0 0 0 .96.04 2.5 2.5 0 0 0 2-1.72l.08-.63a2.4 2.4 0 0 0-.33-1.22l-.37-.48a2.4 2.4 0 0 0-1.06-.62m34.18-8.06c.04-.03.64-.35.21-.17a4 4 0 0 1 .66-.2c.42-.1-.07-.01.18 0 .1 0 .72.03.51 0-.27-.05.32.08.37.1.56.15-.2-.19.28.11.1.06.56.45.23.14.05.04.4.46.24.22-.2-.28.14.28 0-.01.03.05.18.74.12.34a11 11 0 0 1 .05 1.53 18 18 0 0 1-.12 2.04c.06-.4-.07.37-.07.37a10 10 0 0 1-.37 1.34 5 5 0 0 1-.46.96q-.2.34-.41.65l-.22.31c.13-.17-.26.3-.32.36q-.18.21-.4.4s-.55.47-.22.23a6 6 0 0 1-.62.41l-.42.22c-.14.07-.42.17-.12.06a14 14 0 0 1-1.34.43l-.68.14c-.52.13.35-.02-.18.03a2.4 2.4 0 1 0 0 4.8 11.3 11.3 0 0 0 7.14-3.08 12.5 12.5 0 0 0 3.46-7.38c.33-2.62.43-5.83-1.67-7.77a6.95 6.95 0 0 0-8.26-.74 2.4 2.4 0 0 0 2.43 4.14Zm-50.72 28.62c2.11-3.75 2.79-8.97.41-12.78a6.2 6.2 0 0 0-5-3.16c-2.4-.04-4.3 1.45-5.92 3.06h3.4c-4.75-5.49-12.73-10.06-19.68-5.52-6.13 4-7.88 11.91-5.1 18.46a22 22 0 0 0 8.13 9.44c2.57 1.73 4.98-2.42 2.43-4.14-5.42-3.65-9.42-10.83-5.56-16.98a7.6 7.6 0 0 1 7.54-3.78c3.6.56 6.55 3.26 8.84 5.91a2.43 2.43 0 0 0 3.4 0c.56-.55 1.6-1.85 2.52-1.65.57.12 1.05 1.02 1.27 1.56a8.6 8.6 0 0 1-.82 7.16c-1.52 2.7 2.63 5.11 4.14 2.42" class="b"/><path d="M127.94 192.63a37 37 0 0 1 12.22-11.69 43 43 0 0 1 7.25-3.84 47 47 0 0 1 9.15-2.22c11.43-1.82 21.57 4.9 27.53 14.27 6.72 10.58 9.06 23.88 9.48 36.23.44 12.53-1.72 25.5-8.55 36.2-6.41 10.05-17.02 18.1-29.14 19.28a2.47 2.47 0 0 0-2.4 2.4 2.4 2.4 0 0 0 2.4 2.4c12.22-1.18 23-8.06 30.45-17.65 8.38-10.81 11.85-24.48 12.09-38a102 102 0 0 0-1.9-20.9 68 68 0 0 0-6.58-19.47c-5.95-11.06-16.87-20.18-29.99-19.88a43 43 0 0 0-20.59 6.07 44 44 0 0 0-15.57 14.37c-1.66 2.62 2.5 5.03 4.15 2.43m10.4-64.95a14 14 0 0 1-2.3 2.45l.48-.37a8 8 0 0 1-1.44.87 2.4 2.4 0 0 0-1.1 1.43 2.4 2.4 0 0 0 1.68 2.96l.64.08a2.4 2.4 0 0 0 1.21-.32 10 10 0 0 0 2.51-1.75 17 17 0 0 0 1.72-1.96 2.7 2.7 0 0 0 .7-1.7 2.4 2.4 0 0 0-.7-1.7 2.4 2.4 0 0 0-1.7-.7l-.63.09a2.4 2.4 0 0 0-1.06.61Zm8.82 3.97q-.34.52-.7 1l.37-.48a18 18 0 0 1-3.13 3.16l.49-.38-.55.4a2.5 2.5 0 0 0-1.1 1.43 2.5 2.5 0 0 0 .24 1.85 2.4 2.4 0 0 0 3.28.86 16 16 0 0 0 2.7-2.27 20 20 0 0 0 2.55-3.14 2.4 2.4 0 0 0-.86-3.28 2.4 2.4 0 0 0-1.85-.24 2.6 2.6 0 0 0-1.44 1.1Z" class="b"/><path d="M200.12 247.58q1.07-1.08 2.08-2.3c5.63-6.8 5.33-14.32 3.51-21.81-1.54-4.22-5.96-9.03-8.8-9.7-3.83-.91-5.87-.6-9.46.31a42 42 0 0 1-13.67 1.42 32 32 0 0 0-8.76.71c-3 .64-4.3 2.41-3.95 5.2.4 3.16 3.95 5.45 7.87 5.82l5.4.5a49 49 0 0 1-7.16 3.01c-3.37 1.1-6.66 2.05-10.03 3.45a4.7 4.7 0 0 0-2.88 4.42 5 5 0 0 0 6.14 4.93l4-.66-.64 2.65a4.9 4.9 0 0 0 1.44 4.9c2.32 6.48 9.76 7.36 15.93 6.47a32 32 0 0 0 18.98-9.32" class="a"/><path d="M168.94 224.83c-2.52-.28-6.17-2.07-5.46-4.88a2 2 0 0 1 .4-.71 5 5 0 0 1 2.17-.8 30 30 0 0 1 6.33-.6c2.3.03 4.55.24 6.85.06a52 52 0 0 0 7.46-1.17 30 30 0 0 1 5.76-1.1 10 10 0 0 1 4.75.85c6.37 3.7 8.3 12.46 6.97 19.25-1.47 7.54-8.08 13.53-14.92 16.49a31 31 0 0 1-11.58 2.56c-3.46.07-7.48-.6-9.5-3.72-1.67-2.59-5.83-.18-4.15 2.42 5.13 7.95 16.58 6.8 24.36 4.18 8.82-2.98 17.62-10.03 20.1-19.32 1.28-4.77.83-9.77-.23-14.52-.96-4.33-4.32-8.49-7.9-11-3.92-2.77-9.16-2.13-13.54-1.05a46 46 0 0 1-8.3 1.38c-2.68.16-5.35-.22-8.03-.07-4.8.26-11.48 1.01-11.86 7.08-.35 5.8 5.3 8.92 10.32 9.47a2.4 2.4 0 0 0 2.4-2.4 2.46 2.46 0 0 0-2.4-2.4" class="b"/><path d="M176.83 223.6a52 52 0 0 1-10.7 4.96c-1.95.64-3.91 1.23-5.85 1.9a21 21 0 0 0-5.33 2.24 7.3 7.3 0 0 0-2.2 9.39c1.59 3.22 4.96 4.25 8.3 3.77a2.4 2.4 0 0 0 1.68-2.95 2.46 2.46 0 0 0-2.95-1.68 2.56 2.56 0 0 1-3.08-2.35c-.4-2.4 2.82-3.08 4.65-3.71 3.01-1.05 6.1-1.88 9.08-3.05a59 59 0 0 0 8.82-4.37c2.64-1.6.23-5.74-2.42-4.14Z" class="b"/><path d="M160.42 245.94a43 43 0 0 0 10.32-2.3 95 95 0 0 0 9.64-3.8 2.4 2.4 0 0 0 .86-3.29 2.46 2.46 0 0 0-3.28-.86q-.91.42-1.83.81l-.22.1-.47.19-1.09.44q-2.42.96-4.9 1.78a62 62 0 0 1-4.9 1.43q-1.15.28-2.31.48l-.5.09c-.14.02-.55.07-.2.03q-.56.07-1.13.1a2.46 2.46 0 0 0-2.4 2.4 2.4 2.4 0 0 0 2.4 2.4Z" class="b"/><path d="M122.4 269.6c1.26-1.04 3.09-1.74 5.9-2.43a123 123 0 0 0 14.62-4.83c2.42-1.05 4.45-2.97 7.01-3.55s5.7.26 6.78 2.66a5.6 5.6 0 0 1-.37 4.8 58 58 0 0 1-5.92 7.35l-.35.35.84 1.04c2.28 2.96 6.2 4.24 9.96 4.37a23 23 0 0 0 9.53-1.2c2.2-.75 5-1.3 6.69-.75s3.37 2.11 3.44 3.88c.03.94-1.06 2.62-1.53 3.44-1.05 1.81-4.12 3.46-8.07 4.86l-1.23 3.23c-2.9 7.57-10.62 13.4-19.86 15-8.56 1.34-21.11 1.61-24.76.52-1.02-.3-3.59-1.59-4.63-1.82-2-.44-6.7-.52-11.4-.85l-2.3-.15c1-10.64 2-24.46 1.4-32.27l2.68.31c2.1.25 5.1.9 6.8.73l1.1-.1a20 20 0 0 1 3.53-4.47z" class="a"/><path d="M161.46 244.89c-.65 3 .26 6.48 3.15 7.99a11 11 0 0 0 7.8.54 76 76 0 0 0 12.5-5.17 2.4 2.4 0 0 0 .85-3.28 2.45 2.45 0 0 0-3.28-.86 90 90 0 0 1-10.02 4.26 9 9 0 0 1-4.4.65l-.55-.13-.48-.16c-.07-.03-.58-.4-.4-.24-.21-.19-.12-.11-.22-.25a2.8 2.8 0 0 1-.33-2.07 2.46 2.46 0 0 0-1.68-2.96 2.4 2.4 0 0 0-2.95 1.68Zm-52.41 63.18c2.94.2 5.9.28 8.84.52a14 14 0 0 1 4.56 1.26c3.4 1.45 7 1.55 10.66 1.56a112 112 0 0 0 14.64-.9 33 33 0 0 0 14.13-4.84A26 26 0 0 0 172 293.45a2.4 2.4 0 0 0-1.67-2.95 2.46 2.46 0 0 0-2.95 1.68c-3.2 8.13-11.76 12.53-20 13.58a112 112 0 0 1-13.93.85c-1.89 0-3.78-.04-5.66-.22-.16-.01-1.12-.14-.65-.07l-.87-.16a10 10 0 0 1-1.7-.58 30 30 0 0 0-3.2-1.3 17 17 0 0 0-3.15-.46c-3.06-.27-6.13-.35-9.2-.55a2.4 2.4 0 1 0 0 4.8Z" class="b"/><path d="M149.21 276.68c2.92 3.63 7.64 4.95 12.12 5.09a29 29 0 0 0 6.87-.48c2.19-.47 4.26-1.51 6.51-1.68a3.4 3.4 0 0 1 2.33.4 3 3 0 0 1 .84.76c.07.1.28.7.28.36 0 .63-.72 1.52-1.04 2.07-.06.1-.46.72-.31.52.2-.26-.06.07-.12.12l-.36.36-.27.24-.22.17q-.42.28-.85.54a22 22 0 0 1-2.3 1.18 43 43 0 0 1-5.21 1.86 92 92 0 0 1-14.09 2.99 2.5 2.5 0 0 0-2.4 2.4c0 1.16 1.11 2.57 2.4 2.4a103 103 0 0 0 14.47-2.9c3.72-1.06 7.74-2.32 10.87-4.68a11 11 0 0 0 3.22-4 5.8 5.8 0 0 0-.71-7.07 8 8 0 0 0-6.91-2.49c-2.65.26-5.02 1.34-7.6 1.86a22 22 0 0 1-7.67.09 10 10 0 0 1-6.46-3.5 2.4 2.4 0 0 0-3.39 0 2.46 2.46 0 0 0 0 3.4" class="b"/><path d="M120.28 276.25a22 22 0 0 1 3.53-4.7 7 7 0 0 1 1.47-.92 16 16 0 0 1 2.36-.8c4.19-1.18 8.4-2.32 12.5-3.82a35 35 0 0 0 5.91-2.62c1.5-.89 3.05-2.11 4.84-2.35a4 4 0 0 1 3.32.93c.88.98.43 2.49-.2 3.49a39 39 0 0 1-5.3 6.44c-2.17 2.2 1.23 5.6 3.4 3.4a48 48 0 0 0 5.94-7.25c2.67-4.08 1.42-9.44-3.23-11.24a9.5 9.5 0 0 0-6.28-.12c-2.23.74-4.05 2.19-6.12 3.24-4.5 2.28-9.7 3.51-14.54 4.86-2.25.63-4.6 1.2-6.52 2.6-2.25 1.66-3.76 4.1-5.23 6.44-1.66 2.61 2.49 5.02 4.14 2.42Z" class="b"/><path d="m110.83 275.96.48.06-.64-.09 3.4.5a16 16 0 0 0 3.57.26 2.6 2.6 0 0 0 1.7-.7 2.4 2.4 0 0 0 0-3.4 2.4 2.4 0 0 0-1.7-.7 14 14 0 0 1-2.93-.17l.64.08c-1.51-.2-3.01-.47-4.52-.64a2.4 2.4 0 0 0-1.7.7 2.4 2.4 0 0 0 0 3.4l.48.37a2.4 2.4 0 0 0 1.21.32ZM54.9 263.02c9.04 2.08 18.29 2.82 27.45 4.13 7.6 1.1 15.25 1.46 22.89 2.24a2.4 2.4 0 0 0 2.4-2.4 2.45 2.45 0 0 0-2.4-2.4c-7.36-.75-14.73-1.08-22.06-2.13-9.01-1.3-18.11-2.02-27-4.06-3.01-.7-4.3 3.93-1.28 4.62" class="b"/><path d="M105.32 269.39c-.64-.47-.37-.29-.2-.11-.5-.5-.26-.32-.1-.05.28.42 0-.05 0-.06.04.18.13.37.18.55a13 13 0 0 1 .29 1.29l.11.7c.06.34-.05-.44 0-.08l.05.5a71 71 0 0 1 .27 8.5c-.1 7.3-.65 14.6-1.29 21.86q-.47 5.35-1.04 10.7a2.4 2.4 0 0 0 2.4 2.4 2.45 2.45 0 0 0 2.4-2.4c.75-7.12 1.4-14.26 1.86-21.4.42-6.59.93-13.38.16-19.96-.27-2.37-.59-5.08-2.67-6.59a2.4 2.4 0 0 0-3.28.87 2.45 2.45 0 0 0 .86 3.28" class="b"/></svg>
