<svg xmlns="http://www.w3.org/2000/svg" viewBox="0 -52.32 383.217 383.217"><defs><style>.a{fill:#fff}.b{fill:#211715}.c{fill:#febe69}.d{fill:#85807f}</style></defs><path d="m337.63 167.75 9.64-6.55c17.7 3.86 30.74 14.24 33.25 30.49a116.6 116.6 0 0 1-15.58 67.38 36 36 0 0 1-10.63 12.1c-4.66 3.27-11.16 5.62-16.93 4.9a22.5 22.5 0 0 1-13.6-7.54 47 47 0 0 1-8.31-13.2q-.45-1.03-.87-2.08h-53.93a81 81 0 0 0-12.48-19.84c-4.16-4.94-12.13-9.37-20.58-12.66l-3.73-.65c-.36-.16-4.99-2.36-5.22-2.43-3.56-1.97-4.3-4.98-4.76-7.65q-.14-.77-.2-1.35c8.66-4.05 15.56-15.12 16.8-18.24a36 36 0 0 0 1.12-3.5 4.2 4.2 0 0 0 4.77-.75 14 14 0 0 0 3.56-4.68 21.6 21.6 0 0 0 2.28-9.59 94 94 0 0 1 9.01-6.39 48 48 0 0 1 8.82-3.94c19.54 10.35 29.47 13.48 47.54 13.08 17.56-.39 23.5-3.24 29.52-6.56ZM145.1 71.96a6.7 6.7 0 0 1 4.89-1.6 6.2 6.2 0 0 1 5.46 3.26c1.8 3.35 1.52 9.39.13 13.09-.99 2.62-2.6 6.63-6.24 9.42a7.4 7.4 0 0 1-5.73 1.45l-.54-.1a43 43 0 0 1-2.12 5.23c-1.56 3.85-9.88 17.18-20.05 22.29a41 41 0 0 0-.43 6.62c.01 2.73.48 5.38 3.18 7.13.12.07 2.35 1.5 5.65 3.25-20.37 14.5-50.32 10.24-66.34-4.4 4.1-1.56 9.57-3.67 9.75-3.72 3.01-1.13 4.05-3.6 4.66-6.27a44 44 0 0 0 .92-5.3A42 42 0 0 1 69 113.3a51 51 0 0 1-9.05-18.5 7.2 7.2 0 0 1-6.1-1.74c-3.45-3.02-4.8-7.12-5.6-9.8-1.16-3.78-1.04-9.83.95-13.05a6.2 6.2 0 0 1 5.67-2.91 6.7 6.7 0 0 1 4.78 1.92s-6.8-34.6 47.41-34.6c48.9 0 38.04 37.34 38.04 37.34" class="a"/><path d="M132.25 140.83q-2.74-1.4-5.4-2.95l-1.51-.9-.37-.23c-.09-.05-.45-.3-.25-.15a5 5 0 0 1-.55-.49c-.03-.04-.43-.48-.27-.28.13.16-.21-.33-.26-.4l-.26-.48c-.25-.48.05.24-.09-.23l-.18-.63q-.08-.32-.13-.65c-.1-.51 0 .34-.04-.24a40 40 0 0 1 .14-6.49 2.4 2.4 0 0 0-2.4-2.4 2.45 2.45 0 0 0-2.4 2.4c-.42 4.31-.79 9.72 2.67 12.96a17 17 0 0 0 3.14 2.16q2.82 1.67 5.73 3.15a2.46 2.46 0 0 0 3.29-.86 2.4 2.4 0 0 0-.86-3.29" class="b"/><path d="M45.25 256.6a37 37 0 0 1-6.2 3.9c-6.37 3.11-14.28 4.01-20.65.91-7.35-3.58-11.11-11.5-13.13-19.1-3.85-14.55-3.3-29.85-1.4-44.75 1.65-13.03 4.6-26.56 13.37-36.7 7.89-9.1 30.02-18.91 45.6-23.4 16.23 15 47.08 19.23 67.52 3.78 13.08 3.09 22.84 6.19 32.47 13.8a29 29 0 0 1 7.22 9.22c1.66 3.17 3 8.36 3.86 11.66a248 248 0 0 1 7.03 38.7 8.5 8.5 0 0 1-3.23 3.05c-.27.08-4.87 2.27-5.26 2.44-8.64 3.29-20.31 8.37-24.57 13.3-5.81 6.73-8.04 11.86-11.03 20.5H48.43a48 48 0 0 1-3.18 2.69M253 91.96a6 6 0 0 1 4.93-2.3 6.4 6.4 0 0 1 4.63 1.71s-5.48-37.54 39.52-37.54c47.81 0 42.5 37.86 42.5 37.86a6.4 6.4 0 0 1 4.64-1.68 6 6 0 0 1 5.34 2.99c1.8 3.16 1.7 8.96.47 12.55-.88 2.53-2.3 6.42-5.72 9.2a7 7 0 0 1-5.46 1.55l-.52-.1a42 42 0 0 1-1.9 5.09c-1.47 3.96-9.96 18.36-20.4 22.77a8 8 0 0 1 .17 2 38 38 0 0 1-.75 4.98l2.78.64a5 5 0 0 1 3.49-.3 4.4 4.4 0 0 1 3.7 4.2c4.1 2.93 10.4 5.4 15.54 7.51l-8.84 5.01c-6.02 3.32-11.96 6.17-29.52 6.56-18.05.4-27.97-2.72-47.47-13.04 8.88-3.24 17.93-5.48 22.2-8.35a4 4 0 0 0 1.34-1.02 3 3 0 0 0 .32-1.07l1.34-7.5c-4.6-2.12-8.7-5.59-12.6-10.29a49 49 0 0 1-9.18-17.49 7 7 0 0 1-5.9-1.5c-3.4-2.8-4.8-6.7-5.64-9.24-1.2-3.6-1.26-9.4.57-12.54a6 6 0 0 1 .42-.66" class="a"/><path d="M238.55 178.73a60 60 0 0 1 14.57-11.54c5-2.9 10.85-4.5 16.33-6.2 2.94-.93 1.69-5.56-1.27-4.64-5.87 1.84-12.14 3.59-17.49 6.7a64 64 0 0 0-15.54 12.29c-2.05 2.3 1.33 5.7 3.4 3.4Zm-113.2-36.19c12.68 2.88 26.46 5.98 36.52 14.8a27 27 0 0 1 6.18 8.27 48 48 0 0 1 3.17 9.5 259 259 0 0 1 4.98 22.43 302 302 0 0 1 3.24 26.75 2.46 2.46 0 0 0 2.4 2.4 2.4 2.4 0 0 0 2.4-2.4 283 283 0 0 0-8.01-49.02 78 78 0 0 0-3.07-9.92 33 33 0 0 0-6.17-9.7 39 39 0 0 0-8.11-6.34 61 61 0 0 0-8.8-4.54c-7.53-3.18-15.5-5.05-23.45-6.86-3.01-.68-4.3 3.95-1.28 4.63" class="b"/><path d="M143.25 239.55c-2.69 4.23-4.37 8.49-6.4 14.36h124.1a80 80 0 0 0-12.76-20.5c-4.47-5.3-13.34-10.02-22.48-13.37-3.32 5.32-13.11 10.05-23.06 10.65a64 64 0 0 1-16.74-1.14c-5.92-1.23-11.72-3.9-15.56-8.63-8.34 3.28-18.55 7.95-22.47 12.5a52 52 0 0 0-4.63 6.13" class="c"/><path d="M233.4 165.94a5.4 5.4 0 0 1 4.33-1.27 5.1 5.1 0 0 1 3.67 2.45 7 7 0 0 1 .76 2.9 21.7 21.7 0 0 1-2.21 11.48 14 14 0 0 1-3.56 4.68 4.2 4.2 0 0 1-4.77.75c-.4 1.52-.9 2.85-1.13 3.5-1.23 3.12-8.13 14.18-16.8 18.24l.2 1.35c.47 2.67 1.2 5.68 4.76 7.65.24.07 4.87 2.27 5.23 2.43l1.38.62-.32.39c-3.89 4.86-13.02 9.02-22.3 9.58a64 64 0 0 1-16.73-1.14c-5.49-1.14-10.87-3.52-14.69-7.62l-.88-.95 2.1-.88c.39-.16 5-2.36 5.26-2.43 3.52-1.97 4.28-4.98 4.74-7.65l.09-.47a34 34 0 0 1-12.15-9.03 39 39 0 0 1-7.74-13.18 4.1 4.1 0 0 1-4.25-.94 14 14 0 0 1-3.56-4.67 21.7 21.7 0 0 1-2.21-11.49 7 7 0 0 1 .75-2.9 5.1 5.1 0 0 1 3.68-2.45 5.4 5.4 0 0 1 4.33 1.27s-6.63-29.03 34.04-29.03 37.97 28.8 37.97 28.8" class="a"/><path d="M252.09 142.08c-2.98-3.06-3.98-5.85-4.94-10.22a55 55 0 0 0-2.87-9.56 16 16 0 0 0-4.04-5.67c-4.8-4.28-9.03-5.86-15.03-5.01-4.66.66-8.95 2.59-10.87 6.71v.01q-1.5-.67-3.06-1.22a43 43 0 0 0-14.35-2.36 41 41 0 0 0-24.3 7.48c-7.59 5.44-16.18 15.13-16.86 30.82a62 62 0 0 0 1.02 11.9l.26-.07a5.4 5.4 0 0 1 4.34 1.27l1.22 1.1a16.5 16.5 0 0 1 8.96-10.98l.38-.18h23.47a30 30 0 0 0 6.18-1.8 26 26 0 0 0 8.4-7.5 21.2 21.2 0 0 1 14.5 8.38 31 31 0 0 1 5.29 10.8c1.93-.01 3.6-.04 3.6-.04a5.4 5.4 0 0 1 3.96-1.31 53 53 0 0 0 .75-11.57 42 42 0 0 0-2.13-11.55l1.8.74c4.37 1.82 9 1.5 14.32-.17" class="d"/><path d="M180.13 209.55c0 .03.13-.7.05-.4l-.06.3-.06.36-.18.87a13 13 0 0 1-.48 1.69l-.08.2c.16-.37-.03.06-.07.15a9 9 0 0 1-.47.84l-.28.4c-.24.36.3-.35.02-.02a10 10 0 0 1-.73.76l-.42.37.15-.13c-.04 0-.16.12-.2.15q-.26.15-.51.33c-.34.25.2-.05.21-.05a4 4 0 0 0-1.16.5l-2.5 1.17q-1.04.51-2.12.99a2.4 2.4 0 0 0-1.1 1.43 2.5 2.5 0 0 0 .24 1.85 2.4 2.4 0 0 0 1.43 1.1 2.8 2.8 0 0 0 1.85-.24c1.54-.66 3.03-1.43 4.55-2.12l.43-.2c.45-.2-.6.29-.3.13a15 15 0 0 0 1.4-.76 14 14 0 0 0 1.33-1.02 11 11 0 0 0 2.79-4.13 13 13 0 0 0 .62-2 12 12 0 0 0 .46-2.53 2.4 2.4 0 0 0-4.8 0Zm31.16-.89c.42 3.22 1.08 6.4 3.33 8.88a11 11 0 0 0 2.1 1.76 6 6 0 0 0 1.31.69c.17.05-.72-.33-.44-.2l.2.1q1.27.58 2.55 1.19l2.34 1.1a2.46 2.46 0 0 0 3.28-.86 2.43 2.43 0 0 0-.86-3.29c-1.5-.67-2.96-1.4-4.44-2.08l-.72-.32a4 4 0 0 0-.63-.27c.05.01.52.28.3.1l-.23-.15-.46-.3-.04-.03-.1-.08a8 8 0 0 1-.76-.74l-.3-.36s.27.4.13.18l-.17-.25a9 9 0 0 1-.49-.82l-.18-.4c-.18-.35.17.49 0-.01a15 15 0 0 1-.56-1.93 24 24 0 0 1-.3-1.6c-.03-.16-.14-.96-.05-.3a2.7 2.7 0 0 0-.7-1.7 2.4 2.4 0 0 0-1.7-.7c-1.16.06-2.58 1.07-2.4 2.4Zm5.12-89.12c1.44-2.95 4.17-4.45 7.27-5.2a15.4 15.4 0 0 1 9.68.49 17.7 17.7 0 0 1 7.82 6.66c2.06 3.37 2.88 7.6 3.75 11.42a22 22 0 0 0 5.46 10.86l1.06-4c-4.35 1.33-8.7 1.9-13.03.17a2.4 2.4 0 0 0-2.95 1.67 2.46 2.46 0 0 0 1.68 2.96c5.04 2.03 10.5 1.38 15.58-.18a2.43 2.43 0 0 0 1.06-4.01c-2.75-2.88-3.66-6.25-4.52-10.05-.97-4.23-2.16-8.9-4.75-12.46a23 23 0 0 0-9.9-7.69 20 20 0 0 0-11.86-.55c-4.35.97-8.48 3.37-10.5 7.5a2.46 2.46 0 0 0 .87 3.27 2.4 2.4 0 0 0 3.28-.86m18.68 48.1a2.9 2.9 0 0 1 4.24.69 7 7 0 0 1 .5 3.07 18 18 0 0 1-.26 3.66 19 19 0 0 1-2.59 6.83c-.9 1.43-2.37 3.41-4.12 2.95-2.98-.8-4.26 3.83-1.27 4.62 3.92 1.05 7-1.48 9.13-4.53a23 23 0 0 0 3.74-10.4c.42-3.45.42-7.83-2.37-10.34a7.9 7.9 0 0 0-10.4.05 2.4 2.4 0 0 0 0 3.4 2.45 2.45 0 0 0 3.4 0m-72-3.18a7.9 7.9 0 0 0-10.4-.04c-2.8 2.5-2.8 6.9-2.37 10.34a23 23 0 0 0 3.74 10.4c2.14 3.05 5.2 5.58 9.13 4.53 2.98-.8 1.72-5.43-1.28-4.63-1.74.47-3.22-1.52-4.11-2.94a19 19 0 0 1-2.59-6.83 18 18 0 0 1-.26-3.47 7 7 0 0 1 .5-3.27 2.9 2.9 0 0 1 4.24-.69 2.47 2.47 0 0 0 3.4 0 2.4 2.4 0 0 0 0-3.4" class="b"/><path d="M229.68 184.34a30 30 0 0 1-1.5 5.45c-.14.38.28-.53.04-.12q-.14.26-.25.54l-.6 1.11a45 45 0 0 1-3.94 5.87c-3.57 4.5-8.18 9.12-13.98 10.39-3.02.66-1.74 5.29 1.27 4.63 6.6-1.44 12.03-6.5 16.1-11.63 3.53-4.43 6.64-9.25 7.49-14.97a2.5 2.5 0 0 0-1.68-2.95 2.4 2.4 0 0 0-2.95 1.67Zm-70.3.48a42 42 0 0 0 10.18 18.34c4.88 5.14 11.19 9.33 18.32 10.34a2.5 2.5 0 0 0 2.95-1.68 2.4 2.4 0 0 0-1.67-2.95c-12.6-1.78-22.1-13.57-25.15-25.32-.77-3-5.4-1.72-4.63 1.27M239.72 165c1.83-11.18.71-23.06-5.5-32.8a43.5 43.5 0 0 0-25.68-18.42 46.4 46.4 0 0 0-32.34 3.46 43.3 43.3 0 0 0-17.68 17.1 42 42 0 0 0-4.9 15.53 55 55 0 0 0 .72 15.13 2.4 2.4 0 0 0 2.95 1.68 2.46 2.46 0 0 0 1.67-2.95c-1.28-7.89-1.13-16.68 2.38-24.35a38.7 38.7 0 0 1 13.89-16.01 40.7 40.7 0 0 1 27.65-5.84 39.4 39.4 0 0 1 24.94 13.97c7.35 8.95 9.1 21.06 7.27 32.23a2.47 2.47 0 0 0 1.68 2.95 2.4 2.4 0 0 0 2.95-1.68m23.02 87.04a76 76 0 0 0-13.29-20.83c-5.51-6.12-13.68-9.82-21.2-12.77a2.4 2.4 0 0 0-2.95 1.68 2.46 2.46 0 0 0 1.67 2.95c6.86 2.69 14.36 6.14 19.31 11.79a74 74 0 0 1 12.32 19.6 2.4 2.4 0 0 0 3.28.87 2.46 2.46 0 0 0 .86-3.29m-123.58 2.51c2.12-6.1 4.52-11.98 8.5-17.13a25 25 0 0 1 5.92-5.68 69 69 0 0 1 8.85-4.85c3.49-1.64 7.06-3.1 10.66-4.47a2.47 2.47 0 0 0 1.67-2.96 2.4 2.4 0 0 0-2.95-1.67c-6.82 2.6-13.75 5.4-19.92 9.33-5.6 3.56-9.73 8.9-12.74 14.76a88 88 0 0 0-4.62 11.4c-1 2.92 3.63 4.18 4.63 1.27" class="b"/><path d="M213.72 150.06a20 20 0 0 1 9 6.7 28 28 0 0 1 4.06 7.6q.27.8.51 1.6l.19.65.13.49q.17.78.17-.96l.86-.86-.12.08 1.21-.33h-.15a2.4 2.4 0 0 0-2.4 2.4 2.45 2.45 0 0 0 2.4 2.4c2 .17 3.03-1.96 2.73-3.65a22 22 0 0 0-1.13-3.72 33 33 0 0 0-3.7-7.27 25.7 25.7 0 0 0-12.48-9.75 2.4 2.4 0 0 0-2.95 1.67 2.45 2.45 0 0 0 1.67 2.95" class="b"/><path d="M210.8 138.51a17.4 17.4 0 0 1-5.6 10.2 27 27 0 0 1-4.8 3.53c-.15.08-.5.18.08-.02l-.54.2q-.72.25-1.45.46-1.84.54-3.7.91a2.4 2.4 0 0 0-1.68 2.95 2.45 2.45 0 0 0 2.95 1.68 25 25 0 0 0 6.75-2.04 27 27 0 0 0 5.78-4.27 22 22 0 0 0 6.85-12.33 2.5 2.5 0 0 0-1.68-2.95 2.4 2.4 0 0 0-2.95 1.68Zm-18.92.06a34 34 0 0 1-6.87 9.73c-2.83 2.67-6.54 3.3-10.17 4.3a21 21 0 0 0-9.75 5.4 19 19 0 0 0-4.98 9.47 2.46 2.46 0 0 0 1.68 2.96 2.4 2.4 0 0 0 2.95-1.68 14.5 14.5 0 0 1 4.82-8.37c2.68-2.3 6.06-3.01 9.38-3.9A21 21 0 0 0 189 151.1a40 40 0 0 0 7.02-10.11 2.46 2.46 0 0 0-.86-3.29 2.4 2.4 0 0 0-3.28.86Zm-22.35 85.06c5.77 6.07 14 8.34 22.08 9.21 8.64.94 17.4.25 25.42-3.26a25.5 25.5 0 0 0 9.61-6.77 2.47 2.47 0 0 0 0-3.4 2.4 2.4 0 0 0-3.39 0c-4.1 5.02-11.08 7.47-17.28 8.51a51 51 0 0 1-11.97.34 47 47 0 0 1-11.52-2.12 23 23 0 0 1-9.56-5.9c-2.13-2.25-5.52 1.14-3.39 3.38M341.8 112.56a49 49 0 0 1-2.81 8.43c.3-.74-.15.3-.25.52q-.3.63-.64 1.25-.76 1.44-1.62 2.82a51 51 0 0 1-10.99 12.97 20 20 0 0 1-8.1 4.16c-3 .69-1.73 5.31 1.28 4.63 6.27-1.43 11.52-5.98 15.64-10.73a56 56 0 0 0 8.78-13.12l.56-1.32c-.15.34.01-.01.04-.07l.32-.76.58-1.44a41 41 0 0 0 1.83-6.06c.64-3.02-3.99-4.3-4.62-1.28" class="b"/><path d="M332.32 33.18a50 50 0 0 0-9-4.95 45 45 0 0 0-19.76-3.57c-22.6-1.34-44.25 15.6-48.7 37.02-1.21 5.78-.74 14.72-.1 19.42.4 2.78 1.25 6.57 2.55 8.6q.3-.03.62-.04a6.4 6.4 0 0 1 4.63 1.71l4.7-6.96c3-2.02 6.56-3.56 11.25-5.5a18 18 0 0 0 3.36-1.62l-.03.64a2.1 2.1 0 0 0 .92 2.27 8 8 0 0 0 3.16.43 21 21 0 0 0 11.1-2.67q.67-.4 1.24-.8h17.71a25 25 0 0 0 6.39-7.38 30 30 0 0 0 3.53-9.8h3.81c.72 5.8 3.05 11.25 5.54 16.52 1.5 3.17 3.35 6.56 6.61 7.84l2.73 7.35a6.4 6.4 0 0 1 4.64-1.68 7 7 0 0 1 2.51.51c3.29-8.25 1.6-21.69.24-28.47a42 42 0 0 0-3.36-9.98 42 42 0 0 0-10.14-13.75Z" class="c"/><path d="M260.43 113.38a52 52 0 0 0 11.16 22.36c5.3 6.2 12.16 11.15 20.38 12.4a2.5 2.5 0 0 0 2.95-1.68 2.4 2.4 0 0 0-1.68-2.95c-7.5-1.14-13.41-5.5-18.26-11.17a47 47 0 0 1-9.93-20.24c-.67-3.02-5.3-1.74-4.62 1.27Zm73.1-82.27a49.5 49.5 0 0 0-28.57-8.9 76 76 0 0 0-12.42.78 50 50 0 0 0-11.44 3.64c-14.17 6.38-26.22 19.94-28.77 35.55a62 62 0 0 0-.44 14.1c.31 4.64.87 9.41 2.83 13.69a2.4 2.4 0 0 0 3.28.86 2.46 2.46 0 0 0 .87-3.29 24 24 0 0 1-1.58-5.77 49 49 0 0 1-.53-4.62 71 71 0 0 1-.04-11.69c.63-7.07 3.72-13.85 7.87-19.53 8.5-11.61 22.71-19.17 37.16-18.94 2.46.04 4.92-.05 7.37.15a42 42 0 0 1 7.72 1.38 48 48 0 0 1 14.27 6.73c2.55 1.75 4.96-2.4 2.42-4.14m20.33 60.5c2.8-6.68 2.47-14.68 1.7-21.74a81 81 0 0 0-1.57-9.8 48 48 0 0 0-5.11-12.67 45 45 0 0 0-8.71-10.78c-2.27-2.09-5.68 1.3-3.4 3.4a42 42 0 0 1 12.19 19.77 68 68 0 0 1 2.26 19.6 30 30 0 0 1-1.99 10.95 2.4 2.4 0 0 0 1.68 2.95 2.46 2.46 0 0 0 2.95-1.67ZM327.3 60a56 56 0 0 0 5.11 16.1c2 4.34 4.17 8.63 8.8 10.57a2.4 2.4 0 0 0 2.96-1.68 2.46 2.46 0 0 0-1.68-2.95c-3.24-1.36-4.79-5.85-6.12-8.78A47 47 0 0 1 332.1 60a2.5 2.5 0 0 0-2.4-2.4 2.4 2.4 0 0 0-2.4 2.4" class="b"/><path d="M264.25 89.67a9.4 9.4 0 0 0-10.21-1.53 9 9 0 0 0-4.71 6.19 23.2 23.2 0 0 0 3.4 18.1c2.31 3.43 5.95 6.52 10.37 5.95a2.5 2.5 0 0 0 2.4-2.4 2.4 2.4 0 0 0-2.4-2.4c-3.4.44-5.69-2.4-7.15-5.12a19 19 0 0 1-2.33-7.34c-.21-2.53-.19-5.58 1.31-7.75-.3.44.15-.16.24-.25.07-.07.56-.47.39-.35a4 4 0 0 1 1.44-.6 4.3 4.3 0 0 1 3.86.9c2.29 2.07 5.7-1.32 3.4-3.4Zm60.55 63.64c2.06 3.23 5.59 5.31 8.92 7.02 3.93 2 8.05 3.6 12.12 5.28a2.4 2.4 0 0 0 2.95-1.67 2.46 2.46 0 0 0-1.68-2.95c-3.6-1.5-7.22-2.91-10.7-4.67a37 37 0 0 1-4.75-2.78 11 11 0 0 1-1.6-1.33l-.69-.73c-.12-.14-.28-.37-.08-.1q-.18-.23-.34-.5a2.4 2.4 0 1 0-4.15 2.43m-55.35 7.67a86 86 0 0 0 12.23-4.57c1.8-.91 3.9-1.98 4.51-4.04a32 32 0 0 0 .6-3.32l.67-3.68a2.47 2.47 0 0 0-1.68-2.95 2.4 2.4 0 0 0-2.95 1.67c-.39 2.15-.74 4.3-1.15 6.45l-.12.55s.17-.32.2-.28l-.96.59a20 20 0 0 1-1.94 1.06 43 43 0 0 1-4.57 1.84q-3.05 1.07-6.11 2.05a2.45 2.45 0 0 0-1.68 2.95 2.4 2.4 0 0 0 2.95 1.68m-.94 7.55a97 97 0 0 0 15.83 6.1 72 72 0 0 0 15.58 2.35 118 118 0 0 0 17.43-.49 59 59 0 0 0 12.07-2.32 51 51 0 0 0 8.91-4c2.7-1.49.29-5.63-2.42-4.14a71 71 0 0 1-3.42 1.78q-.81.39-1.64.75c.47-.2-.45.18-.6.24q-.56.22-1.13.42a48 48 0 0 1-10.35 2.32c-10.23 1.22-21.1 1.37-31.17-1.03a86 86 0 0 1-16.67-6.12 2.47 2.47 0 0 0-3.29.86 2.4 2.4 0 0 0 .87 3.28m48.68-89.3a27.4 27.4 0 0 0 8.65-11.12 37 37 0 0 0 3.02-14.28c.12-3.09-4.68-3.08-4.8 0a40 40 0 0 1-.75 6.9 27 27 0 0 1-1.61 4.96c-1.6 3.52-3.74 7.1-6.94 9.4a2.47 2.47 0 0 0-.86 3.28 2.4 2.4 0 0 0 3.29.86m-37.75-1.3a4.4 4.4 0 0 0 2.69 4.6 13 13 0 0 0 5.05.5 24 24 0 0 0 9.8-2.38 22 22 0 0 0 7.93-6.7 32 32 0 0 0 5.11-9.05 51 51 0 0 0 2.22-11.27 2.4 2.4 0 0 0-2.4-2.4 2.46 2.46 0 0 0-2.4 2.4 44 44 0 0 1-2.1 10.16 27 27 0 0 1-5.23 8.49 17.5 17.5 0 0 1-12.92 5.95q-1.17.04-2.32-.02a4 4 0 0 1-.9-.08c.28.12.22.4.27-.2a2.4 2.4 0 0 0-2.4-2.4 2.45 2.45 0 0 0-2.4 2.4" class="b"/><path d="M268.47 86.49c5.32-3.56 11.82-4.86 16.92-8.73 5.15-3.91 7.68-9.87 9.18-16 .74-3-3.9-4.27-4.63-1.27-1.3 5.34-3.35 10.6-8 13.88-2.48 1.75-5.3 2.71-8.06 3.9a49 49 0 0 0-7.83 4.07c-2.56 1.7-.16 5.86 2.42 4.14ZM61.69 139.67c13.74 12.13 34.06 16.36 51.73 12.09a51 51 0 0 0 14.94-6.24c2.62-1.63.2-5.78-2.42-4.15-14.64 9.11-34 9.34-49.5 2.18a47 47 0 0 1-11.36-7.27c-2.3-2.04-5.72 1.34-3.4 3.39Z" class="b"/><path d="M53.62 37.97a51.3 51.3 0 0 1 20.03-26.74 50 50 0 0 1 30.79-8.75 50.4 50.4 0 0 1 28.23 9.3l6.49 5.3c8.02 7.74 15.12 19.63 15.3 36.84a55 55 0 0 1-2.58 16.77 8 8 0 0 0-1.9-.34 6.7 6.7 0 0 0-4.88 1.61l-6.6-5.58c-2-5.58-6.75-11.82-11.76-16.42a27 27 0 0 0-7.67-5.17l-8.45-1.32c-5.8 2.23-14.04 7.04-18.66 9.41a1.55 1.55 0 0 1-2.16-1.73 8 8 0 0 0-.1-2.99c-.26-1.25-1.2-1.81-1.96-1.45-6.45 3.13-15.77 11.45-21.08 16.99l-7.01 5.52a6.7 6.7 0 0 0-4.78-1.92 8 8 0 0 0-2.1.26 56 56 0 0 1-1.54-16.96 55 55 0 0 1 2.4-12.63" class="d"/><path d="M61.34 67.52a9.6 9.6 0 0 0-10.68-1.71 9.4 9.4 0 0 0-4.81 6.22c-1.76 6.14-.38 13.25 2.93 18.64 2.28 3.73 6.03 7.08 10.7 6.61a2.47 2.47 0 0 0 2.4-2.4 2.4 2.4 0 0 0-2.4-2.4c-3.64.36-5.99-2.88-7.43-5.82a20 20 0 0 1-2.11-7.75c-.13-2.6 0-5.76 1.63-7.92-.34.45.25-.24.33-.32.31-.3-.12.04.3-.25a4 4 0 0 1 1.73-.67 4.6 4.6 0 0 1 4.02 1.17c2.23 2.13 5.63-1.26 3.39-3.4m85.46 6.14a4.6 4.6 0 0 1 4.11-.75 3.5 3.5 0 0 1 2.1 1.31c1.53 2.23 1.48 5.5 1.17 8.07a21 21 0 0 1-2.7 7.7c-1.4 2.44-4 5.81-7.22 5.28a2.47 2.47 0 0 0-2.96 1.68 2.4 2.4 0 0 0 1.68 2.95c7.88 1.3 12.68-6.26 14.97-12.7 1.9-5.36 2.2-13.9-2.94-17.62a9.6 9.6 0 0 0-11.6.69 2.4 2.4 0 0 0 0 3.4 2.45 2.45 0 0 0 3.4 0Z" class="b"/><path d="M141.67 93.73a41 41 0 0 1-1.67 5.21q-.35.93-.76 1.83-.19.36-.36.73c-.74 1.63.17-.3-.2.46a48 48 0 0 1-2.96 5.18 52 52 0 0 1-11.66 13.05 21.6 21.6 0 0 1-8.83 4.25 2.4 2.4 0 1 0 1.28 4.63c6.57-1.3 12.17-5.94 16.58-10.76a58 58 0 0 0 9.49-13.4l.27-.59a7 7 0 0 0 .32-.72c-.18.35.06-.1.1-.18l.28-.61.61-1.45A43 43 0 0 0 146.3 95c.72-3-3.9-4.28-4.62-1.28Zm-84.78-1.6a54 54 0 0 0 7.13 18.22c3.7 5.91 8.64 11.47 14.68 15.06a30 30 0 0 0 10.01 3.75 2.47 2.47 0 0 0 2.96-1.68 2.4 2.4 0 0 0-1.68-2.95c-7.74-1.4-13.75-6.1-18.62-12.1a49 49 0 0 1-9.85-21.58 2.4 2.4 0 0 0-2.95-1.68 2.45 2.45 0 0 0-1.68 2.96m77-82.43a55.4 55.4 0 0 0-51.84-5.73A54.4 54.4 0 0 0 52 35.3a57.4 57.4 0 0 0-1.71 32.12c.67 3.02 5.3 1.74 4.62-1.27-3.5-15.81.02-32.74 10.98-44.91a49.95 49.95 0 0 1 65.57-7.4 2.4 2.4 0 0 0 3.29-.85 2.45 2.45 0 0 0-.87-3.29Zm20.5 60.92a63 63 0 0 0 2.38-13.2 61 61 0 0 0-.76-13.28 50 50 0 0 0-7.86-20.13 52 52 0 0 0-6.89-8.18c-2.22-2.15-5.62 1.24-3.4 3.4a46 46 0 0 1 10.16 14.47 52 52 0 0 1 4.03 21.78 55 55 0 0 1-2.29 13.86c-.83 2.98 3.8 4.26 4.63 1.28m-36.53-23.76a34 34 0 0 1 10.71 8.38A38 38 0 0 1 136.19 67a2.46 2.46 0 0 0 2.95 1.68 2.4 2.4 0 0 0 1.68-2.95 44 44 0 0 0-8.59-13.61 38 38 0 0 0-11.94-9.41 2.47 2.47 0 0 0-3.29.86 2.4 2.4 0 0 0 .87 3.28" class="b"/><path d="M68.36 65.4A96 96 0 0 1 85.8 50.56q1.02-.65 2.09-1.23l.53-.28c.34-.24.24.05.02-.1-.1-.05-1.6.57-1.04-.25-.08.12.05.4.06.54.08.86-.12 1.72-.04 2.57a4 4 0 0 0 1.63 2.88c1.95 1.39 3.8.44 5.65-.55q2.4-1.28 4.77-2.57a107 107 0 0 1 11.77-5.78 2.47 2.47 0 0 0 1.68-2.95 2.4 2.4 0 0 0-2.96-1.68 104 104 0 0 0-11.04 5.26l-5.2 2.81-2.1 1.12c-.56.3-.87.21-.13.45s.7.63.77-.31c.15-2.14-.33-4.74-2.37-5.86-1.93-1.05-3.86.2-5.52 1.18a74 74 0 0 0-9.76 7.18A124 124 0 0 0 64.96 62c-2.14 2.23 1.25 5.62 3.4 3.39Zm-3.93 74.2 6.44-2.47a34 34 0 0 0 3.95-1.59c4.52-2.42 5.26-8.2 5.82-12.77a2.4 2.4 0 0 0-2.4-2.4 2.47 2.47 0 0 0-2.4 2.4l-.02.18-.08.53a40 40 0 0 1-.5 2.67 21 21 0 0 1-.72 2.68l-.13.36q.18-.43.02-.06l-.25.5q-.16.3-.34.56c-.31.51.18-.14-.14.18l-.4.42-.26.24-.53.32-.5.25-.14.05-.62.23-2.1.8-5.97 2.3a2.46 2.46 0 0 0-1.68 2.94 2.43 2.43 0 0 0 2.95 1.68" class="b"/><path d="M60.43 135.66a168 168 0 0 0-22.58 8.77c-6.78 3.2-13.55 6.86-19.27 11.76-5.98 5.13-9.9 12.41-12.49 19.75-2.92 8.3-4.18 17.13-5.12 25.86a129 129 0 0 0-.23 29.35c1.03 8.39 2.82 17.43 7.72 24.5a23 23 0 0 0 8.72 7.83 23.3 23.3 0 0 0 12.78 2.1c9.03-1.02 16.57-6.12 22.78-12.5a122 122 0 0 0 15.2-19.24 133 133 0 0 0 9.83-19.27q1.31-3.06 2.58-6.14a2.4 2.4 0 0 0-1.68-2.95 2.46 2.46 0 0 0-2.95 1.68 184 184 0 0 1-9.1 19.52A113 113 0 0 1 54.42 244c-5.15 6.11-10.98 12.47-18.66 15.31-7.18 2.66-15.41 2.23-20.99-3.47-5.3-5.42-7.33-13.41-8.61-20.65a110 110 0 0 1-.92-27.71 138 138 0 0 1 3.86-25c1.98-7.38 5.1-14.82 10.35-20.5 4.41-4.75 10.38-8.08 16.07-11.04a155 155 0 0 1 21.16-9.02q2.5-.86 5.02-1.63c2.95-.9 1.7-5.54-1.27-4.63m141.38 54.26c-.1.09-.46.38-.06.08s-.07.03-.19.1q-.22.14-.45.26l-.32.14a1.7 1.7 0 1 0 .16-.07 11 11 0 0 1-1.51.41c-.13.03-.68.18-.06.02l-.46.05a14 14 0 0 1-2.14.01l-.56-.06c.1-.07.5.08.03 0a9 9 0 0 1-1.54-.4c-.2-.08-.5-.29.1.04l-.26-.12-.5-.28-.38-.24c.69.4.32.25.12.06a2.4 2.4 0 0 0-3.4 3.4c1.9 1.85 4.85 2.44 7.4 2.44s5.5-.59 7.4-2.45a2.4 2.4 0 0 0-3.39-3.4Zm-5.13-12.33a33 33 0 0 1 .77 3.56l-.08-.64a2 2 0 0 1 .01.5l.09-.65-.06.22.24-.57-.07.14.37-.48-.11.11.48-.37-.28.15.57-.25a2 2 0 0 1-.47.14l.64-.08a2 2 0 0 1-.45 0l.64.08-.5-.08a2 2 0 0 0-.96-.05 2 2 0 0 0-.9.29 2.4 2.4 0 0 0-.85 3.28 2.3 2.3 0 0 0 1.43 1.1c.43.06.86.17 1.3.19a4 4 0 0 0 1.98-.48 3 3 0 0 0 1.6-1.95 5 5 0 0 0 0-2.03q-.31-1.72-.76-3.41a2.5 2.5 0 0 0-1.1-1.43 2.4 2.4 0 0 0-3.28.86 2.5 2.5 0 0 0-.25 1.85m-18.06-9.51c-.58 1.89-.2 6.23 3.37 6.6 4.73-.03 4.98-5.28 3.4-7.75-1.31-2.02-5.14-2.86-6.77 1.15m37.71 0c.58 1.89.2 6.23-3.37 6.6-4.73-.03-4.98-5.28-3.4-7.75 1.31-2.02 5.14-2.86 6.77 1.15" class="b"/><path d="m309.87 211.42-1.53-5.15-.55-1.88q-.95.65-2 1.27a23 23 0 0 0-5.88 6.56l-.02.05c-5.8-2.49-13.54-5.94-18.65-9.16a89 89 0 0 0 2.36-8.83c.98-3.65 1.42-6 2.48-8.88 2.2-6 6.25-13.17 8.41-18.34 2.35-5.77 10.5-24.47 12.44-28.57a4.74 4.74 0 0 1 5.33-2.87c1.7.35 3.2 2.65 3.62 3.97l.6 1.9a4 4 0 0 1 2.44.15c2 .77 2.33 2.53 2.28 4.42a64 64 0 0 1-1.5 8.57l3.53-2.96a5 5 0 0 1 3.48-.29 4.4 4.4 0 0 1 3.56 3.28 29 29 0 0 1-.02 8.64c-1.42 8.58-2.44 16.01-3.75 24.34-.94 4.57.3 7.97 1.82 11l5.29 10.21.3.58c-7.06 3.04-15.42 6.62-21.87 9.33l-.06-.2Z" class="a"/><path d="M318.19 138.95c-1.03-2.96-3.38-5.7-6.7-5.81a7.3 7.3 0 0 0-6.76 4.4c-1.82 3.85-3.48 7.78-5.19 11.68q-3.13 7.15-6.18 14.35c-2.28 5.41-5 10.6-7.41 15.95a65 65 0 0 0-3.89 11.1c-1 3.98-1.85 8-3.15 11.9-.97 2.93 3.66 4.2 4.63 1.27 2.06-6.2 2.88-12.76 5.27-18.84 2.36-6 5.65-11.59 8.12-17.55 1.44-3.48 3.03-7.18 4.7-11.01q2.83-6.53 5.72-13.04c.63-1.42 1.21-3.49 2.28-4.65a2 2 0 0 1 1.14-.7c.7-.2-.33-.03.36-.07.2 0 .95.17.5 0a4 4 0 0 1 1.93 2.3 2.46 2.46 0 0 0 2.96 1.67 2.4 2.4 0 0 0 1.67-2.95m-3.01 34.52a75 75 0 0 1 5.05-12.71 11 11 0 0 1 .58-.96c-.53.77.15-.17.04-.12.93-.4.64 1.75.59 2.18a59 59 0 0 1-1.55 7.13c-1.3 5.14-2.84 10.22-4.05 15.38-1.29 5.49-3 11.22-6.74 15.6-1.74 2.02-3.95 3-5.97 4.7a22 22 0 0 0-5.3 6.34c-1.43 2.74 2.72 5.17 4.15 2.43a18 18 0 0 1 4.7-5.5c.74-.55 2.04-1.26 2.94-1.94a18 18 0 0 0 3.1-2.9c4.3-5.22 6.32-11.54 7.87-17.99 1.4-5.77 3.15-11.44 4.5-17.21.69-2.93 1.72-6.34.87-9.32a5.12 5.12 0 0 0-8.62-2.05c-1.77 1.92-2.69 4.74-3.65 7.1q-1.72 4.23-3.15 8.57c-.97 2.94 3.67 4.2 4.63 1.27Z" class="b"/><path d="M305.9 170.27q3.6-9.15 7.24-18.28l1.65-4.1.64-1.56.21-.5.2-.46c.35-.8.68-1.66 1.7-1.61 1.45.07 1.32 1.53 1.24 2.67a41 41 0 0 1-.83 4.95q-.7 3.44-1.56 6.84c-.74 3 3.89 4.28 4.63 1.28a84 84 0 0 0 2.54-12.87 7.5 7.5 0 0 0-1.57-5.76 6.4 6.4 0 0 0-7.29-1.27c-2.79 1.31-3.65 4.83-4.72 7.47q-2.12 5.2-4.17 10.43l-4.54 11.5a2.4 2.4 0 0 0 1.67 2.95 2.46 2.46 0 0 0 2.96-1.68" class="b"/><path d="M324.44 153.74a2 2 0 0 1 .95-.12 4 4 0 0 1 1.35.26 2 2 0 0 1 1.26 1.64 16 16 0 0 1 .18 2.35q.02 1.73-.1 3.45c-.19 2.4-.78 5.26-1.2 7.94l-1.3 8.59c-.44 2.97-.86 5.96-1.36 8.92a19 19 0 0 0 .18 8.5 41 41 0 0 0 3.5 7.76l3.63 7.03c1.42 2.75 5.57.32 4.15-2.42l-3.37-6.52c-1.31-2.52-2.84-5.05-3.46-7.85-.64-2.83.07-5.67.5-8.48q.71-4.62 1.4-9.26.72-4.84 1.5-9.67a47 47 0 0 0 .73-7.3c.01-2.62-.1-5.58-2.08-7.56-2.07-2.1-6.3-3.1-8.88-1.4s-.18 5.84 2.42 4.14m-18.41 53.16 3.17 10.73.46 1.56a2.4 2.4 0 1 0 4.63-1.28l-3.17-10.73-.46-1.56a2.4 2.4 0 0 0-4.63 1.28m-27.8-2.92a71 71 0 0 0 10.54 5.9 292 292 0 0 0 11.45 5.13 2.5 2.5 0 0 0 3.28-.86 2.4 2.4 0 0 0-.86-3.29 294 294 0 0 1-11.45-5.12 71 71 0 0 1-10.54-5.9 2.4 2.4 0 0 0-3.28.86 2.45 2.45 0 0 0 .86 3.28" class="b"/><path d="M59.54 172.46q-.47-.3-.9-.6l.29-1.19a204 204 0 0 1 6.41-27.34c1.63-5.12 3.34-11.27 6.7-14.55a30 30 0 0 1 8.35-6.41 93 93 0 0 1 20.43-7.2 9.7 9.7 0 0 1 5.75.58 3.4 3.4 0 0 1 1.67 3.53c-.22 1.6-3 3.4-5.29 4.33-5.46 2.21-10.31 4.68-15.51 7.1l-.41.2c4.37.5 9.76 1.27 13.08 1.69 1.48.19 4.66 1.53 4.35 5.14-.23 2.61-1.75 4.72-5.93 4.48l1.9.9a4.36 4.36 0 0 1 2.52 5.07c-.4 2.3-2.97 2.98-4.59 2.86l-.17-.02.96.98a5 5 0 0 1 .97 3.32c-.02 1.77-1.4 3.25-3.6 3.7-1.86.39-3.65.7-6.4 1.12-.11 3.8-.33 6.61-1.42 9.34-1.47 3.67-3.37 5.87-6.4 6.68l-3.64 7.25a250 250 0 0 1-19.12-10.96" class="a"/><path d="M83.74 132.97c2.88.26 5.76.63 8.63 1l4.48.6 1.92.26.87.11c.51.07-.31-.11.25.05l.55.16c.5.14-.16-.14.2.08l.6.35c.23.15-.03-.04-.06-.06l.4.36c.37.35.02-.01.23.3.03.06.21.4.06.07l.12.35a1 1 0 0 1 .09.55c0 .22-.13 1.08-.02.56l-.16.68c-.1.5.12-.08-.07.24-.07.1-.38.6-.22.4.2-.28-.5.47-.25.26.17-.14-.31.2-.44.26-.08.05-.4.15-.04.02l-.34.1a6 6 0 0 1-1.7.16c-1.77-.05-3.55-.34-5.31-.52q-2.83-.28-5.66-.6a2.4 2.4 0 0 0-2.4 2.4 2.46 2.46 0 0 0 2.4 2.4q2.83.32 5.66.6c1.86.19 3.76.53 5.63.53 3.29 0 6.22-1.57 7.3-4.79a7.2 7.2 0 0 0-2.88-8.47 9 9 0 0 0-3.7-1.2q-2.34-.3-4.68-.63c-3.8-.5-7.63-1.04-11.46-1.37a2.4 2.4 0 0 0-2.4 2.4 2.45 2.45 0 0 0 2.4 2.4Z" class="b"/><path d="M99.21 145.19q.34.17.66.36.33.23-.04-.05a5 5 0 0 1 .51.5q-.28-.38-.05-.06.14.23.26.47c-.29-.54.02.15.06.3q.09.4.01-.06l.02.41c0 .11-.1.94 0 .48l-.15.56q.19-.44 0-.08-.21.33.08-.07c-.13.14-.67.5-.15.2l-.6.34c.53-.3.1-.05-.06 0l-.65.15c-.43.1.52-.02-.16 0a8 8 0 0 1-.9-.03q-5.11-.4-10.21-.86a2.4 2.4 0 0 0-2.4 2.4 2.46 2.46 0 0 0 2.4 2.4q4.78.44 9.57.81a9 9 0 0 0 4.75-.7 5.9 5.9 0 0 0 3.28-5.6 6.8 6.8 0 0 0-3.81-6.02 2.4 2.4 0 0 0-2.42 4.14ZM87.7 160.45a68 68 0 0 1-.22 3.92l-.07.6c.04-.33-.01.06-.04.2a19 19 0 0 1-.46 2.15q-.16.55-.36 1.1l-.21.54c-.18.43.23-.47-.1.24a18 18 0 0 1-1.03 1.93l-.3.44c-.03.05-.38.5-.19.26s-.2.23-.2.22l-.27.3a9 9 0 0 1-.71.64c.25-.2.15-.1-.05.03l-.4.25-.58.3c.3-.13-.2.08-.26.1l-.58.18a2.4 2.4 0 1 0 1.27 4.62 11.7 11.7 0 0 0 7.34-6.63c1.7-3.63 2.1-7.43 2.22-11.4a2.4 2.4 0 0 0-2.4-2.4 2.45 2.45 0 0 0-2.4 2.4Z" class="b"/><path d="M97.45 153.7c.27.29-.31-.53 0 .02l.06.11q.17.34-.08-.22c.04.3.19.59.25.88.04.2.02.61-.01-.15l.03.34.02.65c0 .27-.13.41.04-.16l-.09.41-.05.17.1-.24-.17.32-.14.2.2-.25q-.17.16-.3.32c-.23.2-.35.14.08-.04l-.4.25c-.1.06-.36.14-.42.23l.31-.13-.28.1a8 8 0 0 1-1 .25l-1.7.34q-2.16.39-4.3.7a2.4 2.4 0 0 0-1.44 1.1 2.4 2.4 0 0 0 .86 3.29 2.8 2.8 0 0 0 1.85.24q2.42-.35 4.83-.81a10 10 0 0 0 4.75-1.92 5.9 5.9 0 0 0 2.06-4.54 7 7 0 0 0-1.67-4.86 2.4 2.4 0 0 0-3.4 0 2.45 2.45 0 0 0 0 3.4Zm-8.8-20.91c3.84-1.8 7.64-3.68 11.52-5.4 3.32-1.48 7.83-2.67 9.8-6.04 2.02-3.45-.45-7.5-4.03-8.4-3.78-.94-7.61.25-11.23 1.3a100 100 0 0 0-11.87 4.37 38 38 0 0 0-10.11 6.14 24 24 0 0 0-6.31 8.33 96 96 0 0 0-3.61 10.28 222 222 0 0 0-6.2 26.66 2.47 2.47 0 0 0 1.67 2.96 2.4 2.4 0 0 0 2.96-1.68c1.3-7.1 2.66-14.2 4.58-21.18.91-3.3 1.94-6.58 3-9.85a33 33 0 0 1 3.57-8.18 24 24 0 0 1 7.06-6.45 53 53 0 0 1 9.48-4.38 88 88 0 0 1 10.69-3.36c1.49-.36 5.48-1.42 6.24.59.16.42-.04.46-.36.8a8 8 0 0 1-2 1.4c-1.69.94-3.55 1.57-5.32 2.35-4.03 1.78-7.97 3.73-11.95 5.6a2.4 2.4 0 0 0-.86 3.28 2.45 2.45 0 0 0 3.28.86" class="b"/><path d="M54.05 171.49a102 102 0 0 0 12.64 8.11c4.38 2.53 8.8 5.02 13.38 7.18a2.47 2.47 0 0 0 3.29-.86 2.4 2.4 0 0 0-.86-3.28 183 183 0 0 1-13.1-7.02q-3.53-2.01-6.99-4.18a100 100 0 0 1-3.02-1.96l-1.16-.8-.52-.39c-.53-.38 0 .02-.27-.2a2.5 2.5 0 0 0-3.39 0 2.4 2.4 0 0 0 0 3.4m298.07 51.77q-2.97-7.08-5.88-14.17c-.98-2.41-2.03-6.32-5.52-5.2-1.88.6-3.7 1.6-5.51 2.38a2284 2284 0 0 1-23.95 10.23q-2.45 1.03-4.91 2.04a5.2 5.2 0 0 0-2.79 1.82c-.73 1.16-.47 2.4-.19 3.65 1.08 4.7 2.23 9.38 3.54 14.02 2.95 10.4 6.43 21.2 13.17 29.82a28.7 28.7 0 0 0 11.84 9.28 22.4 22.4 0 0 0 14.98.3 32.6 32.6 0 0 0 13.1-7.88 50 50 0 0 0 8.55-12.02 120 120 0 0 0 14.58-62.07 36 36 0 0 0-2.85-13.12 35 35 0 0 0-6.54-9.86c-5.7-6.1-13.38-10.09-21.32-12.44a67 67 0 0 0-6.47-1.56 2.46 2.46 0 0 0-2.95 1.68 2.4 2.4 0 0 0 1.68 2.96c13.3 2.54 27.13 9.45 31.97 23a33 33 0 0 1 1.33 4.88 39 39 0 0 1 .4 6.45 120 120 0 0 1-.5 14 114 114 0 0 1-11.31 39.5 73 73 0 0 1-6.76 11.58c-4.89 6.5-12.86 11.68-21.24 11.25-8.75-.45-15.02-8.11-18.88-15.22-4.42-8.13-7.04-17.37-9.37-26.28q-.79-3.03-1.51-6.08l-.61-2.62a5 5 0 0 0-.31-1.33c-.5-.79-.55 1.58-.94 1.19l.68-.28a828 828 0 0 0 9.18-3.83q10.66-4.5 21.28-9.12l2.33-1 1.1-.48.4-.17c.73-.36.17.2-.25.02l-1.06-.61q-.04-.28.08.1l.26.65.42 1.04.88 2.15 1.65 4q1.79 4.32 3.6 8.62a2.5 2.5 0 0 0 2.95 1.68 2.4 2.4 0 0 0 1.68-2.95Zm-57.92-99.27a17 17 0 0 0 8.2 1.93 13.4 13.4 0 0 0 8.35-2.46 2.4 2.4 0 0 0 0-3.4 2.5 2.5 0 0 0-3.4 0c.75-.57.23-.18.04-.06l-.5.29c-.24.13-.75.21-.1.07-.24.05-.47.18-.7.25a12 12 0 0 1-1.92.43c.36-.06.12-.02-.1 0l-.56.04a20 20 0 0 1-2.6-.01l-.55-.05c-.7-.06.47.09-.19-.02a14 14 0 0 1-1.8-.41l-.74-.25c-.58-.2.43.21-.1-.04l-.9-.46a2.4 2.4 0 1 0-2.43 4.14Zm6.91-19.12a38 38 0 0 1 .87 4.07l-.08-.64a2 2 0 0 1 .01.56l.09-.63-.07.25.25-.58-.1.17.38-.49-.13.13.48-.37-.32.17.58-.25a2 2 0 0 1-.55.16l.64-.09a2 2 0 0 1-.51 0l.64.09-.58-.1a2 2 0 0 0-.95-.04 2 2 0 0 0-.9.28 2.4 2.4 0 0 0-.86 3.29 2.3 2.3 0 0 0 1.44 1.1c.46.06.92.18 1.39.2a4.5 4.5 0 0 0 2.08-.5 3 3 0 0 0 1.7-2.02 5 5 0 0 0-.02-2.14 46 46 0 0 0-.85-3.9 2.5 2.5 0 0 0-1.1-1.44 2.4 2.4 0 0 0-3.53 2.71Zm-21.16-11.7c-.68 2.2-.26 7.3 3.92 7.74 5.53-.01 5.84-6.15 4-9.04-1.52-2.37-6-3.37-7.92 1.3m44.26.18c.67 2.21.2 7.29-3.98 7.7-5.52-.05-5.8-6.2-3.92-9.07 1.53-2.36 6.01-3.32 7.9 1.37m-229.73 11a17.6 17.6 0 0 0 8.31 2.2c2.77.1 6.02-.27 8.33-1.95a2.46 2.46 0 0 0 .86-3.28 2.43 2.43 0 0 0-3.28-.87 6 6 0 0 1-.9.55q-.15.06-.27.13c-.25.13.54-.2.15-.06l-.78.26a11 11 0 0 1-1.39.31c-.23.04-.4.05-.07.02a20 20 0 0 1-2.65.1q-.65-.02-1.29-.08c-.03 0-.8-.1-.28-.02l-.54-.1a14 14 0 0 1-1.88-.46l-.78-.28c-.28-.1.5.24.15.05l-.33-.15-.94-.5a2.4 2.4 0 1 0-2.42 4.14Zm7.77-19.61q.45 1.88.73 3.8l-.09-.64.13.96-.08-.64a3 3 0 0 1 .01.73l.09-.64-.07.26.24-.57-.1.16.37-.48-.09.1.49-.38a2 2 0 0 1-.4.2l.58-.24a3 3 0 0 1-.5.14l.64-.09a2 2 0 0 1-.55 0l.64.09-.66-.13a2.6 2.6 0 0 0-1.84.24 2.4 2.4 0 0 0-.87 3.28 2.3 2.3 0 0 0 1.44 1.1c.48.08.92.2 1.42.23a4.5 4.5 0 0 0 2.22-.5 3 3 0 0 0 1.65-2.06 5 5 0 0 0-.02-2.22l.09.64a46 46 0 0 0-.84-4.62 2.4 2.4 0 0 0-2.95-1.67 2.45 2.45 0 0 0-1.68 2.95M80.44 71.89c-.79 2.28-.5 7.58 3.85 8.17 5.76.15 6.27-6.23 4.43-9.3-1.51-2.52-6.14-3.69-8.28 1.13m46.1 1.48c.63 2.33 0 7.6-4.37 7.9-5.75-.21-5.85-6.61-3.82-9.56 1.67-2.41 6.37-3.28 8.2 1.66M346.28 93.4a4.3 4.3 0 0 1 3.5-.93 4 4 0 0 1 1.8.7c-.13-.1.83.86.5.45 1.6 2.08 1.59 5.25 1.38 7.73a19 19 0 0 1-2.33 7.36c-1.22 2.28-3.61 5.7-6.64 5.29a2.5 2.5 0 0 0-2.95 1.67 2.4 2.4 0 0 0 1.67 2.96c7.65 1.04 12.13-6.24 14.18-12.58a22 22 0 0 0 .66-9.93 10 10 0 0 0-3.93-7.02 9.3 9.3 0 0 0-11.24.9c-2.3 2.06 1.1 5.45 3.4 3.4" class="b"/></svg>
