<svg xmlns="http://www.w3.org/2000/svg" viewBox="0 -21.61 399.278 399.278"><defs><style>.a{fill:#211715}.b{fill:#fff}.d{fill:#85807f}.f{fill:#d9d9d9}</style></defs><path d="M378.32 323.35c.42-14.54.35-30.2.21-39.97-1.46 4.85-4.2 11-7.3 14.32-4.61 4.93-12.95 8.85-19.33 10.2-11.21 2.36-20.5 3.15-32.76 3.66.28 8.75.42 14.96 1.17 27.7.47 7.8 6.37 13.9 13.3 14.52 9.05.3 22.8.45 31.17-.1 6-.4 12.37-7.88 12.78-13.88.35-5 .6-10.63.76-16.45m-357.43-2.93c-.33-13.75-.27-28.09-.14-37.2a6.4 6.4 0 0 1 .77-2.98l.3 1.23c1.26 5.02 4.3 12.45 7.84 16.23 4.61 4.93 12.94 8.84 19.33 10.2a180 180 0 0 0 31.15 3.6c-.28 8.78-.42 15-1.17 27.76-.47 7.8-6.37 13.9-13.3 14.52-9.05.3-22.79.45-31.17-.1-6-.4-12.37-7.88-12.78-13.88-.4-5.84-.66-12.54-.83-19.38" class="a"/><path d="M28.9 120.05a52 52 0 0 0-11 3.35 24 24 0 0 0-7.03 4.72 30 30 0 0 0-7.96 13.44c-.99 3.4-1.53 6.97.3 10.1 1.88 3.2 5.77 4.43 9.4 5.15a136 136 0 0 0 21.04 1.97l8.55.1q.88-1.4 1.88-3.07a68 68 0 0 0 6.02-14.68 225 225 0 0 0 4.68-19.22c-5.56-3.04-9.24-3.59-13.6-3.31a94 94 0 0 0-12.28 1.45m339.44-.37a101 101 0 0 0-10.22-1.08 21.7 21.7 0 0 0-12.16 2.56c1.6 7.7 3.19 14.57 4.83 19.97a68 68 0 0 0 6.02 14.68l1.86 3.07 6.96-.1a136 136 0 0 0 21.05-1.97c3.62-.72 7.52-1.96 9.4-5.16 1.83-3.13 1.28-6.7.3-10.1a30 30 0 0 0-7.96-13.44 24 24 0 0 0-7.03-4.71 54 54 0 0 0-13.05-3.72" class="b"/><path d="M201.25 312.69c-47.34 0-91.04-.18-102.04-.54-22.23-.71-34.28-.89-50.22-4.26-6.38-1.34-14.72-5.26-19.33-10.19-3.53-3.78-6.57-11.2-7.83-16.22a141 141 0 0 1-3.96-24.85c-1.68-25.6-.32-36.89 1.85-51.64a73 73 0 0 1 4.6-17.93 122 122 0 0 1 7.86-13.74c3.72-5.5 6.42-8.27 11.9-17.51a68 68 0 0 0 6.02-14.68c7.79-25.5 14.34-83.9 25.6-107.16a50 50 0 0 1 7.8-12.25C96.8 5.5 117.47 2.32 136.12 2.17c15.97-.14 115.44-.3 130.12 0 19.75.4 37.59 4.95 47.9 15.67 6.69 7.85 7.96 9.71 11.07 16.13 11.25 23.26 17.8 81.65 25.59 107.16a68 68 0 0 0 6.02 14.68c5.47 9.24 8.17 12.02 11.9 17.51a122 122 0 0 1 7.85 13.74 73 73 0 0 1 4.6 17.93c2.17 14.75 3.53 26.03 1.86 51.64a141 141 0 0 1-3.96 24.85c-1.26 5.02-4.3 12.44-7.84 16.22-4.6 4.93-12.94 8.85-19.33 10.2-15.93 3.36-27.99 3.54-50.21 4.25-11 .36-54.7.54-102.04.54" style="fill:#9ec6e5"/><path d="M310.78 26.87A42 42 0 0 1 317.56 38c7.42 17.37 17.2 77.32 21.57 105 .4 2.47-1.07 4.74-3.58 4.82-34.92 1.08-85 1.33-135.1 1.18-50.12.15-100.19-.1-135.1-1.18-2.52-.08-3.98-2.35-3.59-4.83C66.13 115.32 76.7 55.37 84.11 38a42 42 0 0 1 6.78-11.13 25 25 0 0 1 1.92-1.96c10.73-9.37 24.76-10.76 43.3-12.74 25.87-2.76 109.65-2.54 134.09 0 18.55 1.92 30.94 4.82 40.58 14.7A42 42 0 0 1 317.56 38" class="b"/><path d="M223.46 69.8a3.4 3.4 0 0 1 2.68-.97 3.2 3.2 0 0 1 2.42 1.4 5 5 0 0 1 .59 1.8 13.7 13.7 0 0 1-.95 7.33 9 9 0 0 1-2.06 3.08 2.65 2.65 0 0 1-2.99.66 23 23 0 0 1-.57 2.26c-.65 2.01-4.57 9.26-9.88 12.16l.18.84c.4 1.67.99 3.54 3.3 4.64.16.04 3.16 1.24 3.4 1.33l.89.34-.18.26c-2.27 3.22-7.86 6.2-13.7 6.9a40 40 0 0 1-10.6-.06 17.4 17.4 0 0 1-9.55-4.23l-.6-.56 1.3-.64c.24-.12 3.06-1.68 3.22-1.74 2.14-1.38 2.5-3.3 2.69-5.01l.04-.3a22 22 0 0 1-8.02-5.22 25 25 0 0 1-5.52-8.32 2.74 2.74 0 0 1-3.44-.07 9 9 0 0 1-2.43-2.8 13.7 13.7 0 0 1-1.84-7.16 5 5 0 0 1 .37-1.86 3.2 3.2 0 0 1 2.22-1.69 3.4 3.4 0 0 1 2.78.63s-6.93-20.24 19.32-21.86 26.93 18.86 26.93 18.86" class="b"/><path d="M235 57.13a14 14 0 0 1-1.75-4.88 35 35 0 0 0-1.75-6.06 10 10 0 0 0-2.5-3.6c-3.02-2.75-5.67-3.77-9.47-3.28a9.2 9.2 0 0 0-6.15 2.98q-.92-.5-1.85-.94a26 26 0 0 0-3.92-1.48 27 27 0 0 0-9.14-.92 28 28 0 0 0-6.51 1.15A25.35 25.35 0 0 0 174 64.7a43 43 0 0 0 1 7.1l.08.3a3.4 3.4 0 0 1 2.13.7l1.54.2a20 20 0 0 1 3-7.43 13.4 13.4 0 0 1 8.82-5.85 16 16 0 0 0 5.6 4.4 5 5 0 0 0 1.42.45 35 35 0 0 0 8.81-.39l3.55-1.24a37 37 0 0 1 5.23 1.25 10.4 10.4 0 0 1 6.23 7.11l.12.48 1.94-1.98a3.4 3.4 0 0 1 2.45-.98l.02-.17a34 34 0 0 0 0-7.16 27 27 0 0 0-1.11-5.3l2.44 2.55a11.3 11.3 0 0 0 6.8.55 1.43 1.43 0 0 0 .94-2.17" class="d"/><path d="M171.44 122.05a44 44 0 0 0-3.02 8.44h44.44a3.55 3.55 0 0 0 3.53-3.2c.89-8.95 3.3-17.85 4.33-23.06-1.89 3.48-7.87 6.85-14.12 7.62a40 40 0 0 1-10.6-.07 17 17 0 0 1-10.13-4.8c-4.8 2.58-9 7.13-11.3 10.15a32 32 0 0 0-3.13 4.92" style="fill:#f8b8b4"/><path d="m179.02 73.5-.2-.08q.08.12.2.07" class="d"/><path d="m191.08 99.3-.02.2.07-.53-.14 1.13.07-.53a10 10 0 0 1-.28 1.36l-.2.6c.2-.63.1-.22.01-.06a5 5 0 0 1-.36.61c-.25.37.29-.32.05-.05a7 7 0 0 1-.6.6l-.16.15.13-.1c-.26.18-.3.09.17 0a3 3 0 0 0-.63.28c-1.03.53-2.02 1.14-3.06 1.66a2 2 0 0 0-.72 2.74 2.05 2.05 0 0 0 2.74.72c.92-.47 1.8-1 2.72-1.48l.45-.24c.07-.04.3-.13-.2.08-.62.26.18-.07.25-.1l.3-.2a10 10 0 0 0 .93-.74 7.4 7.4 0 0 0 1.84-2.8 11 11 0 0 0 .61-3l-.07.54a4 4 0 0 0 .1-.84 2 2 0 0 0-4 0m19.69-1.25a10 10 0 0 0 2.47 5.33 8 8 0 0 0 2.61 1.63q.83.3 1.64.64l1.55.62a2 2 0 0 0 1.54-.2 2 2 0 0 0-.47-3.66l-2.9-1.14q-.23-.1-.47-.18c-.24-.08.52.25.29.11l-.3-.16-.32-.2c-.15-.1-.46-.4-.01.01l-.47-.43-.19-.2c-.26-.31.26.37.04.04q-.17-.23-.31-.48l-.27-.54s.17.44.12.28l-.08-.2-.1-.27-.18-.6q-.2-.72-.34-1.46a2 2 0 0 0-2.46-1.4 2.05 2.05 0 0 0-1.4 2.46Zm3.57-53.56c1.32-2.6 4.5-3.37 7.22-3.3a9.6 9.6 0 0 1 7.18 4.1c2.07 2.9 2.13 6.72 3.22 10a14 14 0 0 0 .98 2.28q.16.3.34.56a.5.5 0 0 1 0-.42c.28-.45.4-.25-.17-.27-.85-.02-1.71.17-2.58.1a9 9 0 0 1-2.73-.72 2 2 0 0 0-2.46 1.4 2.05 2.05 0 0 0 1.4 2.46 12 12 0 0 0 5.52.86c1.82-.13 3.74-.36 4.62-2.18.91-1.87-.34-3.14-.95-4.82s-.85-3.48-1.3-5.21c-.92-3.53-2.3-6.66-5.2-9a12.7 12.7 0 0 0-9.2-3.1c-3.7.3-7.57 1.73-9.35 5.24-1.16 2.29 2.29 4.31 3.46 2.02m10.53 26.73a1.4 1.4 0 0 1 1.27-.38c-.22-.03 0 .01.1.04.58.2-.12-.1.2.07.07.05.38.26.18.1.04.03.35.38.25.24a5 5 0 0 1 .37 1.51 13 13 0 0 1-.02 2.57 11 11 0 0 1-1.25 4.03 6 6 0 0 1-1.24 1.64c-.07.07-.25.19-.07.06l-.26.18c.17-.12-.3.07.03.03-.07 0-.56-.05-.34-.01a2.05 2.05 0 0 0-2.46 1.4 2 2 0 0 0 1.4 2.46c5.48 1.1 7.97-6.03 8.24-10.3.14-2.3-.07-5.2-1.98-6.77a5.45 5.45 0 0 0-7.24.3 2 2 0 0 0 2.83 2.83Zm-46.65-.14a5.4 5.4 0 0 0-6.84.56c-1.9 1.86-1.7 4.81-1.28 7.21a15 15 0 0 0 2.93 6.6c1.5 1.92 3.76 3.45 6.27 2.62a2.05 2.05 0 0 0 1.4-2.46 2 2 0 0 0-2.46-1.4l-.39.12c.14-.03-.3-.06.02.01-.02 0-.47-.17-.3-.09.2.1-.24-.15-.28-.18a7 7 0 0 1-1.26-1.23 11.5 11.5 0 0 1-1.93-4.32 10 10 0 0 1-.26-2.18 3 3 0 0 1 .23-1.73c.15-.24-.25.2.13-.15.23-.2 0-.03.17-.13.07-.04.42-.2.18-.11.05-.02.53-.14.35-.11s.32 0 .37 0c.33 0 .02-.02.2.04.09.02.44.16.2.05a3 3 0 0 1 .53.33 2 2 0 0 0 2.73-.72 2.05 2.05 0 0 0-.71-2.73" class="a"/><path d="M221.32 81.86a13 13 0 0 1-.7 3.04c-.05.18-.36.84-.06.22l-.37.77a31 31 0 0 1-2.36 3.97 24 24 0 0 1-3.51 4.04 11 11 0 0 1-2.1 1.6 12 12 0 0 1-1.26.66c-.37.17.15-.04-.26.1q-.37.14-.76.25c-2.47.7-1.42 4.56 1.06 3.85 4.35-1.23 7.64-4.74 10.17-8.32a20.7 20.7 0 0 0 4.15-10.18 2 2 0 0 0-2-2 2.04 2.04 0 0 0-2 2m-44.3 2.78c2.82 8.66 10.45 16.7 19.9 17.46a2 2 0 0 0 2-2 2.04 2.04 0 0 0-2-2c-3.92-.32-7.44-2.54-10.2-5.21a23 23 0 0 1-5.84-9.3c-.8-2.44-4.66-1.4-3.86 1.06Zm50.9-15.98c.7-7.11-.6-14.61-4.9-20.46a28 28 0 0 0-17.13-10.78c-12.3-2.3-25.4 3.3-31.08 14.67-3.2 6.4-3.3 13.38-1.75 20.25.56 2.51 4.42 1.45 3.85-1.06-1.17-5.23-1.32-10.5.63-15.56a23.3 23.3 0 0 1 8.35-10.47c9.97-6.96 24.44-5.43 32.58 3.64 4.84 5.4 6.15 12.74 5.45 19.76a2 2 0 0 0 2 2 2.05 2.05 0 0 0 2-2Zm22.37 59.39a49 49 0 0 0-4.14-6.42q-2.82-3.92-5.89-7.66a30 30 0 0 0-6.25-6.12 46 46 0 0 0-11.53-5.17c-2.45-.8-3.5 3.06-1.06 3.85a42 42 0 0 1 10.57 4.77 27 27 0 0 1 5.65 5.75q2.84 3.47 5.44 7.14a47 47 0 0 1 3.76 5.88c1.15 2.3 4.6.27 3.45-2.02m-79.94 2.98c1.34-4.81 3.03-9.2 6.15-13.15a33 33 0 0 1 11.64-9.8 2 2 0 0 0 .72-2.74 2.05 2.05 0 0 0-2.73-.72c-5 2.33-9.25 6.36-12.64 10.66a34 34 0 0 0-4.21 6.65 53 53 0 0 0-2.8 8.03c-.68 2.49 3.17 3.55 3.87 1.07m26.7-41.17a7 7 0 0 0 5.14 1.46 7.3 7.3 0 0 0 4.88-1.9 2 2 0 0 0-2.82-2.83l-.15.14-.09.08c-.2.19.26-.2.26-.2-.2.1-.37.25-.57.35l-.14.07c-.3.15.5-.19.17-.07l-.4.13a7 7 0 0 1-1.1.24l.53-.07a8 8 0 0 1-2.18.01l.53.07a6 6 0 0 1-.74-.15l-.32-.1c-.08-.03-.42-.17-.04 0s-.1-.07-.2-.13l-.17-.11c-.23-.15.48.4.24.18a2 2 0 0 0-1.42-.58 2 2 0 0 0-1.41 3.41m4.2-9.75-.17.1.47-.2-.2.05.53-.07h-.3l.53.07q-.33-.06-.65-.09a2.06 2.06 0 0 0-2 2l.07.53a2 2 0 0 0 .51.89l.4.3a2 2 0 0 0 1.02.28l.1.01-.53-.07.67.09h.17l.56-.08h.05l.1-.04q.27-.1.52-.22l.05-.02.13-.07a1.9 1.9 0 0 0 .95-2 1.5 1.5 0 0 0-.24-.74l-.3-.4a2 2 0 0 0-.9-.51l-.52-.07a2 2 0 0 0-1.01.27Z" class="a"/><path d="M189.05 74.13c-.3 1.21.11 3.94 2.38 4.03 2.98-.2 2.94-3.52 1.84-5.02-.9-1.22-3.36-1.6-4.23.99m23.78-1.47c.44 1.16.37 3.92-1.87 4.3-2.98.16-3.35-3.14-2.44-4.76.74-1.33 3.13-2.01 4.31.45m-26-13.9a16.3 16.3 0 0 0-7.3 6.56 21 21 0 0 0-2.12 4.76 19 19 0 0 0-.6 2.39c-.24 1.39.52 3.17 2.2 3.02a2 2 0 0 0 0-4l-.1.01 1.4.59.4 1.22.17-.76q.12-.5.26-.98.28-.97.64-1.9c.01-.03.14-.32.06-.15l.23-.5q.22-.46.46-.9a17 17 0 0 1 1.05-1.7 11 11 0 0 1 .92-1.13 15 15 0 0 1 1.35-1.28c.06-.06.36-.3.16-.14l.33-.25q.38-.27.77-.51a13 13 0 0 1 1.74-.9 2 2 0 0 0 .72-2.73 2.05 2.05 0 0 0-2.73-.72Z" class="a"/><path d="M186.37 55.55a14 14 0 0 0 3.8 6.75 19 19 0 0 0 3.09 2.5 11 11 0 0 0 3.79 1.7 2.05 2.05 0 0 0 2.46-1.4 2.03 2.03 0 0 0-1.4-2.46 8 8 0 0 1-.97-.25c.3.1.05.03-.11-.05l-.32-.17q-.74-.38-1.44-.83-.36-.24-.71-.5l-.15-.1-.2-.15a16 16 0 0 1-1.21-1.12 8 8 0 0 1-1.04-1.18l-.03-.05a12 12 0 0 1-.7-1.07l-.35-.69q-.08-.14-.15-.32c-.2-.4.12.34-.02-.04a12 12 0 0 1-.48-1.63 2 2 0 0 0-2.46-1.4 2.05 2.05 0 0 0-1.4 2.46m12.31.13a26 26 0 0 0 4.73 6.07 13.3 13.3 0 0 0 6.69 3.27c2.17.45 4.38.73 6.21 2.07a8.5 8.5 0 0 1 3.16 4.75c.65 2.49 4.51 1.43 3.86-1.06a12.7 12.7 0 0 0-9.78-9.14c-2.28-.5-4.76-.67-6.67-2.16a20 20 0 0 1-4.74-5.82c-1.29-2.23-4.75-.22-3.46 2.02m-13.66 53.28c5.3 4.87 13.02 5.63 19.9 5.06 6.28-.53 13.23-2.78 17.1-8.08a2 2 0 0 0-.72-2.73 2.05 2.05 0 0 0-2.73.71 14 14 0 0 1-5.53 4.04 24 24 0 0 1-8.6 2.1c-5.6.4-12.23.07-16.59-3.93-1.89-1.74-4.72 1.08-2.82 2.83Z" class="a"/><path d="M220.44 119q-.93 6.06-2 12.11a2.05 2.05 0 0 0 1.4 2.46 2.03 2.03 0 0 0 2.47-1.4q1.07-6.05 2-12.12a2.05 2.05 0 0 0-1.4-2.46 2 2 0 0 0-2.47 1.4m94.27 106.45a228 228 0 0 0 42.77-1.6c3-.4 6.36-1.03 7.86-2.96a5.7 5.7 0 0 0 .96-3.36 43 43 0 0 0-5.37-22.58 8.7 8.7 0 0 0-10.05-4.18l-38.41 11.16a8 8 0 0 0-2.4 1.14 6 6 0 0 0-1.62 1.58 81 81 0 0 0-6.78 13.17 5.1 5.1 0 0 0 4.27 6.96q4.37.42 8.77.67m-151.98 31.43c0 12.11-.2 25.36-.2 38.86h74.22v-38.87Zm-78.16-31.43a228 228 0 0 1-42.76-1.6c-3.01-.4-6.37-1.03-7.86-2.96a5.7 5.7 0 0 1-.97-3.36 43 43 0 0 1 5.37-22.58 8.7 8.7 0 0 1 10.05-4.18l38.42 11.16a8 8 0 0 1 2.4 1.14 6 6 0 0 1 1.61 1.58 81 81 0 0 1 6.78 13.17 5.1 5.1 0 0 1-4.27 6.96q-4.37.42-8.77.67" class="b"/><path d="M199.64 191.59H263c4.4 0 9.09-.3 13.39.59a12 12 0 0 1 6.9 3.7 9 9 0 0 1 1.91 6.01c-.13 4.24-3.33 10.88-6.22 14.22-5.02 5.77-12.82 14.98-26.6 19.65-17.1 5.8-45.95 7.15-52.8 7.15-9 0-36.26-2.05-53.37-7.85-13.78-4.67-20.85-13.18-25.87-18.95-2.9-3.34-6.1-9.98-6.23-14.22a9 9 0 0 1 1.92-6 12 12 0 0 1 6.9-3.71c4.3-.9 8.99-.6 13.38-.6Z" class="a"/><path d="M76.88 132.57c1.47-7.34 3.56-17.53 5.08-24.68a11.34 11.34 0 0 1 10.37-8.97c4.01-.26 8.35-.52 10.45-.6 1.06-7.5 2.43-18.73 3.37-26.7a9.2 9.2 0 0 1 9.11-8.1l11.73-.01c1.57 0 6.93 0 11.72.02a9.2 9.2 0 0 1 9.11 8.1c.95 7.96 2.32 19.2 3.38 26.7 2.1.07 6.43.33 10.45.59a11.34 11.34 0 0 1 10.37 8.97c1.51 7.15 3.6 17.34 5.08 24.67a2.92 2.92 0 0 1-2.87 3.5H79.74a2.92 2.92 0 0 1-2.86-3.5m144.57 0a2802 2802 0 0 1 5.08-24.68 11.34 11.34 0 0 1 10.37-8.97c4.02-.26 8.36-.52 10.45-.6 1.06-7.5 2.43-18.73 3.38-26.7a9.2 9.2 0 0 1 9.1-8.1l11.73-.01c1.56 0 6.94 0 11.73.02a9.2 9.2 0 0 1 9.1 8.1c.95 7.96 2.32 19.2 3.38 26.7 2.1.07 6.44.33 10.45.59a11.34 11.34 0 0 1 10.37 8.97 2480 2480 0 0 1 5.08 24.67 2.92 2.92 0 0 1-2.86 3.5h-94.5a2.92 2.92 0 0 1-2.86-3.5" class="f"/><path d="M314.71 227.45a229 229 0 0 0 38.44-1.06c4.62-.52 12.27-.5 14.5-5.55 1.1-2.48.78-5.78.57-8.41a45 45 0 0 0-1.53-8.67 48 48 0 0 0-3.38-8.58 11.8 11.8 0 0 0-5.04-5.53c-5.22-2.66-10.82.04-15.98 1.54l-18.97 5.51-9.01 2.62c-2.78.8-5.59 1.57-7.38 4.03a56 56 0 0 0-4.96 8.86c-1.27 2.66-3.05 5.62-2.55 8.67a7.2 7.2 0 0 0 4.86 5.6 22 22 0 0 0 4.82.59q2.8.23 5.61.39c2.57.14 2.56-3.86 0-4-2.82-.17-5.73-.23-8.53-.65a3.2 3.2 0 0 1-2.86-2.77 5 5 0 0 1 .62-2.52 73 73 0 0 1 1.78-3.91q1.8-3.67 3.95-7.15c1.35-2.18 3.35-2.6 5.7-3.29l8.3-2.4 16.6-4.83 8.3-2.4c2.05-.6 4.1-1.46 6.25-.94a6.7 6.7 0 0 1 4.3 3.2 39 39 0 0 1 3.2 7.3 41 41 0 0 1 1.74 7.56 30 30 0 0 1 .2 7.65c-.28 2-2.16 2.6-3.9 3.02a58 58 0 0 1-7.44 1.1 229 229 0 0 1-38.2 1.03c-2.58-.15-2.57 3.85 0 4m37.56-106.5c3.3-.7 6.68-.35 10-.04a73 73 0 0 1 9.9 1.57c6.17 1.44 11.93 3.72 16.25 8.5a27 27 0 0 1 4.7 7.38 22 22 0 0 1 2.16 8.55c0 6.13-6.16 7.5-11.07 8.32a125 125 0 0 1-18.57 1.55c-2.58.04-2.58 4.04 0 4a136 136 0 0 0 18.71-1.54c5.92-.92 12.96-2.7 14.59-9.37.84-3.45 0-7.12-1.12-10.4a32 32 0 0 0-4.47-8.71 30 30 0 0 0-7.05-6.93 35 35 0 0 0-9.96-4.4 71 71 0 0 0-12.24-2.33c-4.28-.48-8.63-.92-12.89-.02-2.52.54-1.45 4.4 1.06 3.86Z" class="a"/><path d="M153.8 64.57a4 4 0 0 1 2.88-1.06 3.7 3.7 0 0 1 3.33 1.85c1.13 1.96 1.08 5.58.32 7.82a12 12 0 0 1-3.54 5.74 4.4 4.4 0 0 1-3.4.98l-.32-.06a26 26 0 0 1-1.17 3.17c-.81 2.22-5.13 9.69-10.7 13.2a29 29 0 0 0 .5 4.07c.31 1.6.82 3.1 2.67 3.83l5.86 2.52c-4.05 3.12-12.94 6.4-20.75 6.38-8.62-.02-16.5-3.54-21.41-6.76l5.09-2.14c1.78-.73 2.35-2.23 2.66-3.82a28 28 0 0 0 .48-3.55 24 24 0 0 1-7.15-6.03 30 30 0 0 1-5.77-10.87 4.3 4.3 0 0 1-3.67-.92 12 12 0 0 1-3.54-5.74c-.76-2.24-.8-5.85.32-7.81a3.7 3.7 0 0 1 3.33-1.85 4 4 0 0 1 2.89 1.06s-3.35-20.06 25.42-20.06c30.18 0 25.66 20.05 25.66 20.05" class="b"/><path d="m129.36 23.69-.55-.03a30 30 0 0 0-16.94 4.37 34 34 0 0 0-5.08 3.68c-7.86 6.77-11.97 20.55-8.21 32a5 5 0 0 1 1.24-.2 4 4 0 0 1 2.89 1.06l2.14.88c1.68-6.2 4.9-10.98 10.51-13.54V48.9a21 21 0 0 1 11.08 1.73c2.55-1.38 7.27-2.25 11.15-2.13a28 28 0 0 1 7.88 1.67c3.62 1.75 4.06 4 4.67 5.41.84 1.9 3.06 8.5 3.42 9.22.12-.1.23-.22.23-.22a4 4 0 0 1 2.89-1.05 5 5 0 0 1 1.38.24c2.5-9.97 1-22.85-6.8-29.04l-5.17-4.36c-2.72-3.26-8.1-6.21-16.73-6.67" class="d"/><path d="M155.2 65.99a2 2 0 0 1 1.85-.44 1.5 1.5 0 0 1 .92.4c-.27-.19-.02 0 .09.1s.3.47.03.03l.19.3s.25.53.14.25a7 7 0 0 1 .35 1.28 12 12 0 0 1 .06 2.72 11 11 0 0 1-.54 2.34 11 11 0 0 1-.86 2c-.85 1.57-2.1 3.18-4.04 2.93a2 2 0 0 0-2 2 2.05 2.05 0 0 0 2 2c4.78.62 7.74-4.52 8.93-8.39 1.08-3.49 1-8.84-2.4-11.07a6.3 6.3 0 0 0-7.54.72 2 2 0 1 0 2.83 2.83m-51.08-2.83a6.4 6.4 0 0 0-6.94-1.03 6 6 0 0 0-3.15 4.05 15 15 0 0 0 2.14 11.74c1.54 2.29 3.99 4.36 6.94 3.98a2.07 2.07 0 0 0 2-2 2 2 0 0 0-2-2c-1.94.25-3.19-1.36-4.04-2.92a11 11 0 0 1-.86-2.01 12 12 0 0 1-.34-1.14 8 8 0 0 1-.2-1.2 12 12 0 0 1 .06-2.72 7 7 0 0 1 .35-1.29c-.12.29.12-.22.14-.25l.18-.3c-.25.43-.06.1.04-.02.06-.06.43-.34.1-.1a1.4 1.4 0 0 1 .8-.38 2.1 2.1 0 0 1 1.95.41 2.05 2.05 0 0 0 2.83 0 2 2 0 0 0 0-2.83Z" class="a"/><path d="M114.36 50.18c-6.07 2.8-9.72 8.46-11.44 14.74a2 2 0 0 0 3.85 1.06 29 29 0 0 1 1.09-3.25c.15-.39-.08.17.1-.25l.2-.44a22 22 0 0 1 2.14-3.64c.21-.3-.05.06.08-.1a28 28 0 0 1 1.03-1.18 17 17 0 0 1 1.48-1.38c.02-.02.5-.38.18-.15l.46-.33q.38-.27.79-.52a19 19 0 0 1 2.05-1.1 2 2 0 0 0 .72-2.74 2.05 2.05 0 0 0-2.74-.71Zm30.1 1.7a7 7 0 0 1 2.38 1.67c.07.07.45.56.18.19l.35.52q.24.44.46.89c.18.35-.15-.4 0 0l.17.44.45 1.07c-.28-.68.07.18.14.36l.35.93q.82 2.24 1.61 4.48a32 32 0 0 0 1.27 3.35 2 2 0 0 0 2.74.72 2.04 2.04 0 0 0 .72-2.74c-.1-.18-.04-.32.1.26l-.12-.3-.26-.7-.76-2.12q-.8-2.29-1.65-4.57l-.33-.83-.32-.77c-.2-.46.14.37 0 .01a20 20 0 0 0-.84-1.98 10 10 0 0 0-4.63-4.33 2.05 2.05 0 0 0-2.73.72 2 2 0 0 0 .71 2.74Zm-7.71-4.14a11 11 0 0 0-2.94-3.76 11.4 11.4 0 0 0-4.3-2.42 2 2 0 1 0-1.06 3.85 7 7 0 0 1 .82.28l-.48-.2a10 10 0 0 1 2.2 1.3l-.4-.3a11 11 0 0 1 1.99 1.97l-.32-.4a9 9 0 0 1 1.03 1.7 2 2 0 0 0 1.2.92 2 2 0 0 0 1.54-.2 2 2 0 0 0 .92-1.2 2.3 2.3 0 0 0-.2-1.54" class="a"/><path d="M127.45 48.9a21 21 0 0 0-7.52-2.04 19 19 0 0 0-7.32.57 2 2 0 1 0 1.06 3.85 13 13 0 0 1 1.43-.34l.36-.06c.32-.05-.3.03.02 0l.85-.08a21 21 0 0 1 3.4.05l.8.08c-.22-.02-.04 0 .08.02l.4.07q.84.14 1.66.35a18 18 0 0 1 1.92.6l.27.11c-.2-.08.14.07.17.09l.4.19a2.05 2.05 0 0 0 2.73-.72 2 2 0 0 0-.71-2.74m24.17 28.54a26 26 0 0 1-1.16 3.87l-.52 1.26c-.2.48.18-.32 0 .02q-.1.17-.17.35a33 33 0 0 1-2.84 4.73c-2.44 3.45-5.87 7.26-10.07 8.25-2.5.59-1.45 4.45 1.06 3.86 5.19-1.22 9.18-5.55 12.18-9.7a34 34 0 0 0 3.1-5.06l.52-1.2c.21-.5-.18.39.05-.12q.22-.48.41-.98a26 26 0 0 0 1.3-4.22 2.05 2.05 0 0 0-1.4-2.46 2 2 0 0 0-2.46 1.4m-50.67.97c2.22 9.73 9.56 20.34 20.07 21.93a2.06 2.06 0 0 0 2.46-1.4 2 2 0 0 0-1.4-2.46c-9.22-1.4-15.34-10.63-17.28-19.14-.57-2.5-4.43-1.45-3.86 1.06Zm22.2 8.34a11 11 0 0 0 5.37 1.25 9 9 0 0 0 5.55-1.7 2 2 0 0 0 .59-1.41 2 2 0 0 0-.59-1.42 2 2 0 0 0-1.41-.58 2.3 2.3 0 0 0-1.42.58c.7-.54.04-.05-.18.06-.17.1-.6.23.06 0l-.43.16c-.4.13-.8.17-1.2.27.2-.05.39-.04.07-.01q-.18 0-.35.03l-.85.02a11 11 0 0 1-1.11-.06l-.2-.02q-.24-.02.21.03a3 3 0 0 0-.57-.1l-.54-.15-.47-.15c-.43-.15.45.2.06.02l-.57-.28a2 2 0 1 0-2.02 3.45Zm4.23-12.28a24 24 0 0 1 .55 2.53l-.06-.48v.35l.07-.48-.04.16.19-.43-.06.1.28-.37-.08.09.36-.29-.2.11.43-.18-.33.1.47-.07h-.31l.48.07-.36-.06a1.4 1.4 0 0 0-.72-.04 1.3 1.3 0 0 0-.67.22 1.8 1.8 0 0 0-.64 2.46 1.7 1.7 0 0 0 1.07.83c.32.04.63.12.95.13a3 3 0 0 0 1.45-.35 2.2 2.2 0 0 0 1.19-1.44 3.4 3.4 0 0 0-.01-1.5 28 28 0 0 0-.54-2.42 1.8 1.8 0 0 0-2.21-1.26 1.8 1.8 0 0 0-1.08.83 2 2 0 0 0-.18 1.38Zm-12.9-7.3c-.43 1.37-.16 4.53 2.45 4.8 3.44-.03 3.62-3.85 2.46-5.65-.95-1.46-3.73-2.08-4.92.84m27.55 0c.42 1.37.15 4.53-2.46 4.8-3.44-.03-3.62-3.85-2.46-5.65.95-1.46 3.73-2.08 4.92.84" class="a"/><path d="M105.31 109.53c1.75-.56 3.43-1.41 5.12-2.12l2.73-1.15a7 7 0 0 0 3.05-1.96c1.55-1.92 1.81-4.56 2.04-6.93a2 2 0 0 0-2-2 2.05 2.05 0 0 0-2 2l-.08.73c-.04.35.04-.26 0 .08l-.05.31q-.12.78-.29 1.56-.12.5-.28 1.01c-.03.1-.16.33.04-.07l-.1.2-.3.5c-.1.23.25-.2.05-.05l-.15.16-.22.21c.05-.05.34-.22.03-.03l-.5.3c-.3.16.35-.15.2-.09l-.58.24-5.76 2.42c-.66.28-1.32.6-2 .82a2 2 0 0 0 1.06 3.85Zm33.98-12.05a16 16 0 0 0 1.31 5.83 6 6 0 0 0 1.94 2.1c.46.31.99.44 1.47.7-.07-.03-.6-.25-.28-.11l.17.07.55.23 1.34.58 3.06 1.31q1.16.53 2.34 1a2 2 0 0 0 2.46-1.4 2.06 2.06 0 0 0-1.4-2.46l-.13-.05c-.28-.1.51.22.3.12l-.19-.08-1.03-.44-2.82-1.2-2.43-1.05a5 5 0 0 1-1-.43l-.05-.01c.4.18 0-.02-.1-.07s-.16-.1-.24-.16c-.27-.15.04.07.07.06-.05.01-.38-.37-.38-.38s.28.42.07.1l-.14-.22-.12-.23-.06-.11q-.1-.24 0 0c-.02.05.07.2 0 0l-.1-.32-.15-.57a23 23 0 0 1-.32-1.73l-.05-.34c.02.2-.02-.12-.02-.13l-.06-.6a2.05 2.05 0 0 0-2-2 2 2 0 0 0-2 2Z" class="a"/><path d="M73.45 138.1c.81-2.45 3.8-10.03 5.04-12.44 1.44-2.78 4.03-6.65 6.53-8.62 2.78-2.17 4.47-3.75 8-5.33 4.43-1.81 10.48-3.88 14.64-5.74 4.88 3.3 12.96 7.02 21.82 7.04 8 .02 17.12-3.42 21.04-6.62 4.1 1.75 9.58 3.64 13.69 5.32a36 36 0 0 1 8.22 5.25 25 25 0 0 1 6.5 8.36c.5 1 3.7 10.48 4.43 12.77" class="b"/><path d="M75.38 138.63a70 70 0 0 1 5.9-13.87 28 28 0 0 1 6.86-7.66 32 32 0 0 1 8.88-4.83c3.9-1.48 7.84-2.88 11.65-4.57h-2.02a42 42 0 0 0 23.24 7.3 40 40 0 0 0 12.36-2.23 31 31 0 0 0 9.68-4.96l-2.42.3c3.68 1.57 7.44 2.92 11.17 4.35a37 37 0 0 1 9.47 5.24 24 24 0 0 1 6.91 8.3c.04.08.3.68.15.3l.08.22.44 1.22q.63 1.72 1.21 3.46 1.29 3.7 2.5 7.43c.78 2.44 4.64 1.4 3.85-1.07a134 134 0 0 0-4.55-13.08 25 25 0 0 0-6.47-8.59 37 37 0 0 0-9.88-6.25c-4.26-1.73-8.63-3.18-12.86-4.98a2.15 2.15 0 0 0-2.43.32 25 25 0 0 1-7.34 3.74 39 39 0 0 1-10.02 2.2 36.5 36.5 0 0 1-20.12-4.87q-.89-.5-1.76-1.03a4.5 4.5 0 0 0-2.2-1.05 6 6 0 0 0-2.21.8l-2.4.96c-3.28 1.29-6.6 2.47-9.87 3.77a32.2 32.2 0 0 0-15.04 12.74 50 50 0 0 0-3.7 7.73c-1.03 2.5-2.05 5.03-2.92 7.6-.82 2.44 3.04 3.5 3.86 1.06m74.47-102.5c7.72 6.26 8.5 18.09 6.28 27.1-.61 2.5 3.25 3.56 3.86 1.05 2.52-10.28 1.5-23.83-7.31-30.97a2.06 2.06 0 0 0-2.83 0 2 2 0 0 0 0 2.82M100.5 63.18c-2.96-9.22-.98-20.5 5.48-27.84a29.7 29.7 0 0 1 26.41-9.37c4.51.65 9.23 2.23 12.27 5.8 1.67 1.96 4.5-.88 2.83-2.83-2.98-3.5-7.49-5.47-11.9-6.44a34 34 0 0 0-18.55.91 35 35 0 0 0-12.64 7.78 31 31 0 0 0-7.91 13.88 33.6 33.6 0 0 0 .15 19.18c.79 2.44 4.65 1.4 3.86-1.07m60.22 193.7c0 12.95-.19 25.9-.2 38.86a2.03 2.03 0 0 0 2 2h74.22a2.03 2.03 0 0 0 2-2v-38.87a2.03 2.03 0 0 0-2-2h-74.02c-2.57 0-2.58 4 0 4h74.02l-2-2v38.87l2-2h-74.21l2 2c0-12.95.19-25.9.19-38.86 0-2.58-4-2.58-4 0m-76.16-33.43a230 230 0 0 1-34.09-.61q-4.1-.38-8.2-.92c-1.97-.26-4.32-.5-6.03-1.62-1.8-1.19-1.36-4-1.3-5.88a39 39 0 0 1 1-7.63 42 42 0 0 1 2.48-7.5c.85-1.91 1.72-4.15 3.44-5.48A6.8 6.8 0 0 1 47 192.5a67 67 0 0 1 7.98 2.27l16.6 4.82 8.06 2.34 4.03 1.17a20 20 0 0 1 3.75 1.21 6 6 0 0 1 2.44 2.55q1.22 2 2.33 4.06a42 42 0 0 1 3.66 7.9 3.14 3.14 0 0 1-2.06 3.85 19 19 0 0 1-4.34.45q-2.44.2-4.88.33c-2.56.15-2.57 4.15 0 4a84 84 0 0 0 9.64-.78 7.1 7.1 0 0 0 5.14-4.12c1.12-2.55.41-4.79-.62-7.21a81 81 0 0 0-4-8.07c-1.42-2.52-2.77-5.13-5.46-6.5a23 23 0 0 0-4.06-1.39l-4.98-1.44-18.5-5.37-9.48-2.76c-2.73-.8-5.31-1.7-8.18-1.2-5.67.97-8.09 6.01-10.02 10.85a43 43 0 0 0-3.1 17.63c.1 2.69.78 5.03 3.14 6.58 2.1 1.38 4.74 1.79 7.18 2.12a228 228 0 0 0 43.3 1.67c2.56-.15 2.58-4.15 0-4M48.07 117.1c-3.82-.81-7.65-.51-11.5-.13a80 80 0 0 0-10.97 1.77c-6.92 1.67-13.4 4.52-18.1 10.03a32 32 0 0 0-5.32 8.8 24 24 0 0 0-2.17 9.76 10.7 10.7 0 0 0 4.28 8.39 20 20 0 0 0 8.47 3.16 125 125 0 0 0 20.89 1.91c2.57.04 2.58-3.96 0-4a133 133 0 0 1-16.51-1.24c-4.6-.64-11.6-1.3-12.93-6.74-.7-2.83.3-6 1.25-8.66a28 28 0 0 1 4.17-7.7c3.84-4.97 9.08-7.66 15.04-9.34a67 67 0 0 1 10.97-2.05c3.74-.4 7.66-.9 11.37-.1 2.51.53 3.58-3.33 1.06-3.86m315.6 160.02a70 70 0 0 1-9.89 2.13c-4.56.74-9.14 1.27-13.73 1.75a572 572 0 0 1-32.36 2.34c-13.86.64-27.73.49-41.6.5l-18.82.03c-2.57 0-2.58 4 0 4l15.95-.02 19.88-.02a555 555 0 0 0 21.19-.34 597 597 0 0 0 32.32-2.15c8.71-.83 17.64-1.62 26.14-3.8q1-.26 1.98-.56c2.45-.78 1.4-4.64-1.06-3.86m-329.12 3.86a70 70 0 0 0 10.01 2.15c4.77.76 9.57 1.34 14.37 1.84a570 570 0 0 0 32.67 2.37q11.97.55 23.95.49c6.04-.04 12.07 0 18.11.02 6.23 0 12.48.16 18.7.02h.34c2.57 0 2.58-4 0-4l-15.8-.02-20.48-.02c-6.84-.01-13.67-.04-20.52-.3a599 599 0 0 1-32.44-2.11c-8.62-.8-17.45-1.58-25.87-3.73q-.99-.25-1.98-.57c-2.46-.77-3.51 3.09-1.06 3.86m154.5-151.48h29.07c2.57 0 2.58-4 0-4h-29.07c-2.58 0-2.58 4 0 4" class="a"/><path d="M251 55.61c2.63-5.64 8.63-11.2 22-11.2 27.12 0 26.57 23.05 26.57 23.05a4 4 0 0 1 2.86-1.03 3.7 3.7 0 0 1 3.28 1.84c1.1 1.94 1.05 5.5.29 7.72a12 12 0 0 1-3.52 5.66 4.4 4.4 0 0 1-3.36.95l-.32-.06a26 26 0 0 1-1.17 3.13c-.82 2.2-5.19 9.7-10.79 13.1.03-.35.07-.05.1.13a16 16 0 0 0 1.73 5.73c1.48 2.4 5.94 4.37 9.93 6.01-4.45 2.24-8.99 5.6-21.17 6.23-11.74.6-17.4-1.7-27.74-7.15q1.56-.53 3.26-1.05c3.48-1.14 6.56-2.15 8.32-3.33a2.4 2.4 0 0 0 .82-.62 2 2 0 0 0 .2-.66l.82-4.62a22.5 22.5 0 0 1-7.75-6.33 30 30 0 0 1-5.65-10.76 4.3 4.3 0 0 1-3.63-.92 12 12 0 0 1-3.48-5.7c-.74-2.2-.77-5.78.35-7.7a3.7 3.7 0 0 1 3.3-1.82 4 4 0 0 1 2.85 1.05 23 23 0 0 1 1.9-11.65" class="b"/><path d="M296.17 34.96a51 51 0 0 0-5.44-4.35 31 31 0 0 0-4.25-2.2 28 28 0 0 0-12.15-2.2c-13.91-.81-27.23 9.6-29.97 22.79a42 42 0 0 0-.05 11.95 18 18 0 0 0 1.24 4.71l.28.58.42-.03a4 4 0 0 1 2.7.93c2.48-2.92 5.33-4.2 9.96-6.1a12 12 0 0 0 1.38-.6h.67a1.3 1.3 0 0 0 .57 1.4 5 5 0 0 0 1.94.26 12.7 12.7 0 0 0 6.7-1.58h3.7c-.15.53 0 1.14.93 1.27a11 11 0 0 0 7.17-1.83 16 16 0 0 0 3.92-4.54 19 19 0 0 0 2.17-6.02h2.35a34 34 0 0 0 3.41 10.16c.92 1.95 2.06 4.04 4.07 4.82l1.68 3.1a4 4 0 0 1 2.85-1.04 5 5 0 0 1 1.55.32c2.02-5.08.98-13.35.14-17.52a26 26 0 0 0-2.07-6.14 26 26 0 0 0-5.87-8.14" style="fill:#a98a75"/><path d="M300.98 68.88a2 2 0 0 1 1.8-.41c.1.02.7.24.43.1a3 3 0 0 1 .48.3c-.27-.2-.03-.01.08.1s.29.46.03.02a4 4 0 0 1 .66 1.8 12 12 0 0 1 .04 2.68 11 11 0 0 1-.54 2.3 11 11 0 0 1-.86 1.98c-.85 1.54-2.08 3.1-3.98 2.85-1.07-.15-2 1.02-2 2a2.05 2.05 0 0 0 2 2c4.73.63 7.67-4.46 8.87-8.28 1.08-3.46 1-8.75-2.36-10.97a6.3 6.3 0 0 0-7.47.69 2 2 0 1 0 2.83 2.83Z" class="a"/><path d="M297.35 80.16A26 26 0 0 1 296.2 84c-.2.5-.29.55-.52 1.24-.1.28.24-.48 0 .01q-.1.18-.17.35a33 33 0 0 1-2.83 4.66c-2.41 3.4-5.82 7.14-9.97 8.1-2.5.58-1.44 4.44 1.07 3.86 5.13-1.19 9.1-5.46 12.08-9.55a33 33 0 0 0 3.07-4.98q.29-.6.53-1.2c.21-.5-.18.39.05-.1q.22-.48.41-.98a26 26 0 0 0 1.3-4.17 2.05 2.05 0 0 0-1.4-2.46 2 2 0 0 0-2.46 1.4Zm-50.06.78c2.15 9.64 9.38 20.15 19.77 21.76a2.06 2.06 0 0 0 2.46-1.4 2 2 0 0 0-1.4-2.46c-9.1-1.41-15.1-10.56-16.98-18.96-.56-2.51-4.42-1.45-3.86 1.06Zm21.02 8.27a11 11 0 0 0 5.3 1.26 8.8 8.8 0 0 0 5.51-1.67 2 2 0 0 0 .59-1.41 2 2 0 0 0-.59-1.42 2 2 0 0 0-1.41-.58 2.4 2.4 0 0 0-1.42.58c.7-.54.04-.05-.17.06-.18.09-.6.21.05-.01l-.42.15c-.39.12-.79.18-1.18.27.19-.05.39-.05.07-.02a10 10 0 0 1-1.94.02l-.34-.03c-.47-.04.46.08.02 0a10 10 0 0 1-1.1-.25l-.4-.12-.55-.29a2 2 0 0 0-2.02 3.46m4.2-12.13a23 23 0 0 1 .54 2.5l-.07-.47.01.34.07-.48-.04.16.18-.43-.06.1.28-.37-.08.08.37-.28-.2.1.43-.18a1 1 0 0 1-.34.1l.48-.06h-.31l.48.06-.36-.06a1.4 1.4 0 0 0-.71-.03 1.3 1.3 0 0 0-.67.2 1.8 1.8 0 0 0-.65 2.47 1.7 1.7 0 0 0 1.08.83c.31.04.62.12.94.14a3 3 0 0 0 1.44-.35 2.2 2.2 0 0 0 1.2-1.44 3.4 3.4 0 0 0-.02-1.49q-.2-1.2-.52-2.4a1.8 1.8 0 0 0-2.21-1.26 1.8 1.8 0 0 0-1.08.83 2 2 0 0 0-.18 1.39m-12.7-7.28c-.43 1.36-.17 4.48 2.4 4.76 3.4-.01 3.6-3.79 2.46-5.57-.93-1.45-3.68-2.07-4.87.81m27.22.1c.42 1.37.13 4.5-2.44 4.75-3.4-.04-3.57-3.81-2.42-5.58.95-1.45 3.7-2.05 4.86.84m-39.75-5.25a19 19 0 0 1-1.22-6.12 44 44 0 0 1-.03-7.13 24 24 0 0 1 4.59-11.57 28 28 0 0 1 22.44-11.66 36 36 0 0 1 9.2.9 26 26 0 0 1 8.06 3.73c2.13 1.46 4.13-2 2.02-3.45a30.3 30.3 0 0 0-17.54-5.15 43 43 0 0 0-7.62.53 31 31 0 0 0-7.1 2.33c-8.83 4.03-16.33 12.61-17.82 22.4a40 40 0 0 0-.23 8.73 25 25 0 0 0 1.8 8.48 2 2 0 0 0 2.74.72 2.05 2.05 0 0 0 .72-2.74Zm48-27.77a26.7 26.7 0 0 1 7.3 15.07c.73 4.67 1.2 10.07-.65 14.54a2 2 0 0 0 1.4 2.46 2.05 2.05 0 0 0 2.46-1.4c2.11-5.12 1.48-11.33.64-16.67a30 30 0 0 0-8.32-16.83c-1.82-1.82-4.65 1-2.82 2.83Zm-6.87 12.5a35 35 0 0 0 3.22 10.17c1.3 2.82 2.73 5.49 5.73 6.75a2 2 0 0 0 2.46-1.4 2.05 2.05 0 0 0-1.4-2.47c.21.1-.39-.24-.46-.29l-.1-.07-.3-.29a5 5 0 0 1-.88-1.12 29 29 0 0 1-1.72-3.39 28 28 0 0 1-2.55-7.9 2.07 2.07 0 0 0-2-2 2 2 0 0 0-2 2Z" class="a"/><path d="M225.92 138.1a164 164 0 0 1 2.04-6.94c2.62-8.3 7.24-13.77 14.18-18.28a37 37 0 0 1 7.55-3.16c10.35 5.46 16 7.75 27.74 7.15 12.07-.62 16.64-3.92 21.05-6.16 5.52 1.96 10.57 4 15.25 7.34 3.98 2.87 6.9 5.87 8.83 10.06a72 72 0 0 1 3.76 9.98Z" class="b"/><path d="M227.85 138.63c1.82-6.75 3.81-13.4 8.71-18.6a32 32 0 0 1 7.03-5.69c3.02-1.76 6.58-2.7 9.9-3.74 2.45-.76 1.4-4.63-1.07-3.86-3.63 1.14-7.53 2.22-10.85 4.15a36 36 0 0 0-7.83 6.31c-5.4 5.73-7.74 12.92-9.74 20.36-.67 2.49 3.18 3.55 3.85 1.07m22.66-72.78a6.3 6.3 0 0 0-6.88-1.04 6 6 0 0 0-3.14 4.01 14.7 14.7 0 0 0 2.09 11.62c1.51 2.28 3.93 4.34 6.85 3.97a2.06 2.06 0 0 0 2-2 2 2 0 0 0-2-2c-1.9.24-3.1-1.32-3.94-2.9a13 13 0 0 1-1.37-4.29 13 13 0 0 1-.04-1.44 9 9 0 0 1 .11-1.24 7 7 0 0 1 .35-1.26c-.11.29.12-.21.14-.25l.19-.28c-.26.42-.08.1.03-.02.07-.07.43-.34.09-.1a1.4 1.4 0 0 1 .8-.36 2 2 0 0 1 1.9.4 2.04 2.04 0 0 0 2.82 0 2 2 0 0 0 0-2.82m49.69 47.6c5.78 2.16 11.48 4.88 15.98 9.2 4.4 4.22 6.54 10.23 8.21 15.97.72 2.47 4.58 1.42 3.86-1.06-1.86-6.4-4.34-13.05-9.24-17.75-5.02-4.81-11.31-7.81-17.75-10.21-2.41-.9-3.45 2.96-1.06 3.86Z" class="a"/><path d="M284.98 99.27a18 18 0 0 0 1.79 6.06 10.4 10.4 0 0 0 3.5 3.47c3.05 2 6.57 3.26 9.93 4.65a2 2 0 0 0 2.46-1.4 2.05 2.05 0 0 0-1.4-2.46 54 54 0 0 1-8.65-4.05q-.47-.3-.93-.62c-.46-.32.09.08-.08-.06l-.38-.33-.62-.62c-.31-.32.17.27-.05-.06l-.28-.44a15 15 0 0 1-1.43-5.21 2 2 0 0 0-2.46-1.4 2.05 2.05 0 0 0-1.4 2.46Zm-31.5 11.33a54 54 0 0 0 7.65-2.87c1.24-.62 2.6-1.38 3.02-2.8a20 20 0 0 0 .37-2.04l.4-2.26a2.05 2.05 0 0 0-1.4-2.46 2 2 0 0 0-2.46 1.4l-.7 3.96-.08.34c-.09-.06.36-.49.36-.48-.02.08-.49.3-.58.36a12 12 0 0 1-1.2.65l-.66.3c-.22.1-.22.14-.01.01l-.37.15q-.82.33-1.65.62-1.87.65-3.76 1.26a2 2 0 0 0 1.06 3.86Z" class="a"/><path d="M250.26 112.28c6.6 3.41 13.24 6.15 20.74 6.6 7.2.42 14.95-.28 21.67-3.07 2.4-1 4.63-2.27 6.94-3.44s.27-4.62-2.02-3.45c-1.78.9-3.51 1.9-5.33 2.74a34 34 0 0 1-7.71 2.4c-6.96 1.35-14.63 1.47-21.46-.56a63 63 0 0 1-10.8-4.68c-2.29-1.18-4.31 2.27-2.02 3.46Zm21.69-52.3a3 3 0 0 0 1.25 3.32 5.4 5.4 0 0 0 2.88.54 13.5 13.5 0 0 0 6.63-2c3.27-2.02 5.44-5.78 6.65-9.34a25 25 0 0 0 1.06-6.9 2 2 0 0 0-4 0 20 20 0 0 1-.86 5.67q-.2.6-.45 1.2l-.33.7a17 17 0 0 1-1.2 2.19 9.2 9.2 0 0 1-7.1 4.46 9 9 0 0 1-1.21 0l-.32-.03h.15a1.1 1.1 0 0 1 .68.76 1 1 0 0 1 .03.48c.6-2.5-3.25-3.57-3.86-1.06Z" class="a"/><path d="M258.96 60.42a3.34 3.34 0 0 0 3.26 3.6 15 15 0 0 0 3.48-.04 14.3 14.3 0 0 0 8.03-3.62 20 20 0 0 0 4.76-7 29 29 0 0 0 1.7-7.9 2 2 0 0 0-2-2 2.05 2.05 0 0 0-2 2 27 27 0 0 1-1.22 5.95 16 16 0 0 1-3.05 5.05 10 10 0 0 1-5.12 3.26 9 9 0 0 1-2.44.35q-.68.03-1.37 0h-.47c.21-.52.38 1.17.44.35a2 2 0 0 0-4 0" class="a"/><path d="M253 66.14c3.28-2.19 7.28-3 10.41-5.37 3.29-2.5 4.93-6.24 5.9-10.15a2 2 0 0 0-3.87-1.07c-.8 3.27-2 6.34-4.68 8.23a25 25 0 0 1-4.96 2.4 30 30 0 0 0-4.82 2.5 2.05 2.05 0 0 0-.72 2.74 2 2 0 0 0 2.74.72m-168.1-43c6.87-8.3 16.24-13.52 26.59-16.19 8.53-2.2 17.31-2.73 26.09-2.8q16.47-.09 32.95-.1Q194.51 4 218.5 4c13.17 0 26.34 0 39.51.08 16.07.1 33.13.71 47.27 9.28a38 38 0 0 1 5.66 4.17c1.92 1.7 4.75-1.11 2.83-2.83C299.77 2.19 279.57.27 261.6.1 249.25 0 236.9 0 224.56 0q-24.5-.01-49.01.04-18.03.03-36.06.1c-18.17.1-37.38 2.05-51.75 14.37a48 48 0 0 0-5.67 5.8c-1.63 1.97 1.18 4.81 2.83 2.83m114.74 291.55q30.05 0 60.1-.12c12.87-.05 25.75-.07 38.61-.33 14.71-.3 29.6-.53 44.18-2.65 7.96-1.15 15.71-2.75 22.75-6.83a29 29 0 0 0 9.24-8 44 44 0 0 0 5.4-11.14 91 91 0 0 0 3.2-13.51A141 141 0 0 0 385 256.9c.6-8.76.94-17.55.69-26.33a185 185 0 0 0-1.57-18.78c-1.1-8.4-2.21-16.9-5.43-24.79a86 86 0 0 0-9.9-17.04c-4.38-6.1-9.06-12.14-12.26-19-2.97-6.36-4.78-13.3-6.4-20.12a496 496 0 0 1-4.17-19.83c-2.88-14.84-5.5-29.73-8.79-44.49-2.77-12.48-5.8-25.22-11.77-36.62a57 57 0 0 0-6.59-9.59c-1.63-1.99-4.45.86-2.83 2.83 8.27 10.09 11.98 22.52 15.1 34.96 3.6 14.35 6.27 28.92 9.02 43.44 2.42 12.81 4.63 25.78 8.23 38.33a96 96 0 0 0 4.12 11.71 76 76 0 0 0 6.74 11.8c3.39 5.07 7.22 9.8 10.38 15.04a93 93 0 0 1 4.95 8.94 57 57 0 0 1 3.86 13.08 198 198 0 0 1 2.69 19.68 190 190 0 0 1 .65 20.94 195 195 0 0 1-2.27 28.9c-1.45 8.47-3.26 17.44-8.27 24.63-2.22 3.18-5.57 5.46-8.93 7.28a42 42 0 0 1-11.3 4.19c-15.66 3.28-31.64 3.54-47.57 4.04-10.86.35-21.74.36-32.62.42q-27.82.17-55.64.16l-15.48.01c-2.58 0-2.58 4 0 4" class="a"/><path d="M201.25 310.69q-29.59 0-59.17-.11c-12.9-.06-25.82-.08-38.73-.33-14.22-.26-28.65-.43-42.77-2.35-7.65-1.04-15.3-2.38-22.14-6.14-3.43-1.89-6.75-4.23-8.96-7.52a42 42 0 0 1-5.04-10.87c-2.9-9.22-4.11-19.12-4.7-28.73-.5-8.38-.8-16.79-.5-25.18a192 192 0 0 1 1.6-18.25c1.09-8.06 2.1-16.55 5.6-23.98a101 101 0 0 1 9.94-16.4c4.51-6.17 9.14-12.43 12.17-19.49 5.33-12.4 7.68-26.08 10.23-39.26 2.85-14.64 5.44-29.34 8.66-43.91 2.68-12.12 5.52-24.58 11.22-35.7a52 52 0 0 1 6.25-9.33c1.62-1.98-1.2-4.82-2.83-2.83a65 65 0 0 0-10.46 18.1 155 155 0 0 0-5.49 17.9c-3.7 14.58-6.4 29.4-9.2 44.16-2.44 12.9-4.65 25.96-8.3 38.6a81 81 0 0 1-4.38 12.13 84 84 0 0 1-6.88 11.44c-3.53 5.15-7.32 10.04-10.5 15.44a70 70 0 0 0-4.76 9.16 69 69 0 0 0-3.85 14.26 232 232 0 0 0-2.52 19.6 195 195 0 0 0-.54 21.56 196 196 0 0 0 2.63 29.72c1.53 8.5 3.56 17.6 8.78 24.71 4.78 6.51 13.18 10.63 20.88 12.51 15.56 3.8 31.89 3.93 47.8 4.43 11.26.35 22.52.41 33.79.48q28.2.17 56.4.17h15.76c2.58 0 2.58-4 0-4Z" class="a"/><path d="M199.64 193.59h61.87c3.2 0 6.41-.13 9.6 0 3.42.13 7.5.52 10.1 3.01 2.4 2.3 2.23 5.62 1.35 8.56a29 29 0 0 1-4.16 8.44 53 53 0 0 1-4.41 5.1 72 72 0 0 1-5.7 5.58 50 50 0 0 1-16.75 9.65 111 111 0 0 1-17.5 4.02 243 243 0 0 1-31.73 2.92 179 179 0 0 1-27.1-1.8 189 189 0 0 1-18.86-3.27c-6.35-1.46-12.62-3.32-18.3-6.59a55 55 0 0 1-12.85-10.6 52 52 0 0 1-4.41-5.15 29 29 0 0 1-4.17-8.65c-.82-2.92-.81-6.15 1.6-8.35 2.66-2.42 6.77-2.77 10.18-2.89 5.23-.19 10.5.01 15.74.01zc2.58 0 2.59-4 0-4h-63.11c-7.19 0-17.13-1.2-22.19 5.21-4.58 5.82-1.22 14.02 2.22 19.52a47 47 0 0 0 4.99 6.22 72 72 0 0 0 5.54 5.61 54 54 0 0 0 17.53 10.48 114 114 0 0 0 19 4.72 224 224 0 0 0 34.54 3.56A205 205 0 0 0 226.5 243c13.03-1.58 26.83-3.68 38.06-10.94a67 67 0 0 0 13.36-11.75c4.05-4.53 7.58-9.54 8.89-15.6a11.8 11.8 0 0 0-2-10.1c-2.49-3.06-6.47-4.27-10.24-4.75a92 92 0 0 0-11.9-.29h-63.03c-2.57 0-2.58 4 0 4" class="a"/><path d="M216.02 107.63c-1.06 4.3.32 9.72 4.53 11.76 2.06.73 4.33-.04 6.11-1.18 2.12-1.52 4.7-3.06 5.7-5.48a12.4 12.4 0 0 0 .73-5.9c2 .52 4.73-1.22 4.19-3.8a5 5 0 0 0-1.7-2.76c-2.68-1.94-5.12-3.13-8.53-2.2a17 17 0 0 0-6.64 3.34c-1.28 1.1-2.34 1.58-3 2.71a10 10 0 0 0-1.4 3.51" class="b"/><path d="M214.09 107.1a14 14 0 0 0 .96 9.42c1.47 3.01 4.46 5.48 7.96 5.1a11.6 11.6 0 0 0 5.44-2.23 24 24 0 0 0 3.95-3.16 12 12 0 0 0 2.63-9.92l-2.46 2.46a5.66 5.66 0 0 0 6.27-2.92c1.32-2.77-.2-5.85-2.53-7.5a11.5 11.5 0 0 0-8.11-2.5 18 18 0 0 0-8.47 3.56 20 20 0 0 0-3.55 3.03 12 12 0 0 0-2.1 4.66c-.6 2.5 3.26 3.57 3.86 1.07a8 8 0 0 1 1.41-3.32 18 18 0 0 1 2.74-2.24 13 13 0 0 1 7.2-2.85 8.3 8.3 0 0 1 5.63 2.75c.35.6.59 1.27.25 1.75a2 2 0 0 1-.74.55 2 2 0 0 1-.8.1 2.03 2.03 0 0 0-2.46 2.46 7.7 7.7 0 0 1-1.71 6.15 20 20 0 0 1-3.03 2.42 8 8 0 0 1-3.6 1.7c-2.12.29-3.69-1.6-4.44-3.4a10 10 0 0 1-.44-6.08c.58-2.5-3.28-3.57-3.86-1.06" class="a"/><path d="M317.38 79.98a1240 1240 0 0 1-39.92 42.7c-3.93 3.93-24.09 22.61-29.04 26.33q8.2-.03 16.2-.08c3.22-3.1 10.98-9.64 15.84-14.44 14.02-13.87 40.02-38.36 48.71-49.53-1-5.2-2.01-10.3-3.04-15.16-2.4 2.91-5.4 6.4-8.75 10.18" class="f"/><path d="M327.76 83.55c-6.71 8.59-14.76 16.23-22.49 23.88-8.77 8.68-17.65 17.25-26.46 25.89-5.04 4.94-10.68 9.26-15.66 14.25-1.83 1.82 1 4.65 2.83 2.83 4.4-4.4 9.32-8.27 13.85-12.53 4.2-3.95 8.27-8.06 12.4-12.09 9.24-8.98 18.51-17.94 27.45-27.22a159 159 0 0 0 10.9-12.18 2.06 2.06 0 0 0 0-2.83 2 2 0 0 0-2.82 0m-77.97 66.9c-.63.5.28-.2.43-.33l.56-.44 1.32-1.1q1.65-1.4 3.29-2.83 4.2-3.7 8.34-7.5c4.84-4.4 9.67-8.82 14.36-13.4 4.46-4.34 8.73-8.9 13.02-13.4q9.36-9.86 18.53-19.9a534 534 0 0 0 17.9-20.32c1.62-1.98-1.2-4.82-2.83-2.83-10.82 13.12-22.54 25.53-34.22 37.88-4.72 5-9.46 9.99-14.32 14.85-4.28 4.29-8.8 8.36-13.26 12.46q-4.71 4.32-9.5 8.57a257 257 0 0 1-5.29 4.54l-.63.51.1-.08-.64.5a2 2 0 0 0 0 2.83 2.05 2.05 0 0 0 2.83 0Z" class="a"/><path d="M74.1 75.44q.72-3.4 1.46-6.7c.54.68.87 1.07.87 1.07 11.88 14.43 38.78 42.96 48.66 52.86 3.93 3.94 24.09 22.62 29.05 26.35q-8.2-.03-16.2-.09c-3.23-3.1-11-9.64-15.85-14.44-14.02-13.87-40.02-38.36-48.71-49.53l-1-1.27a656 656 0 0 1 1.72-8.25" class="f"/><path d="M71.96 86.38c6.7 8.59 14.76 16.23 22.48 23.88 8.77 8.68 17.66 17.25 26.47 25.88 5.04 4.94 10.67 9.27 15.66 14.26 1.82 1.82 4.65-1 2.83-2.83-4.4-4.4-9.33-8.27-13.86-12.52-4.2-3.96-8.26-8.07-12.4-12.1-9.23-8.98-18.51-17.93-27.44-27.22a159 159 0 0 1-10.91-12.18 2 2 0 0 0-2.83 0 2.05 2.05 0 0 0 0 2.83m83.63 61.25-.44-.34a60 60 0 0 1-1.88-1.54q-1.65-1.4-3.28-2.83a598 598 0 0 1-8.35-7.5 598 598 0 0 1-14.36-13.4c-4.46-4.34-8.73-8.9-13.01-13.4q-9.37-9.86-18.54-19.9a534 534 0 0 1-17.9-20.32c-1.63-1.99-4.45.86-2.82 2.83 10.81 13.12 22.54 25.53 34.22 37.88 4.72 5 9.45 9.99 14.31 14.85 4.28 4.29 8.8 8.36 13.26 12.46q4.71 4.32 9.5 8.57a251 251 0 0 0 5.29 4.54q.3.26.63.5c.24.2 1.13.9.54.42a2.06 2.06 0 0 0 2.83 0 2 2 0 0 0 0-2.83Z" class="a"/><path d="M94.97 128.04a39.6 39.6 0 0 0-5.92 19.66h12.2a27.05 27.05 0 0 1 54.1 0h12.2c-.69-20.57-16.62-37.64-39.27-37.64-14.76 0-26.63 7.27-33.31 17.98" style="fill:#7a7473"/><path d="M169.54 147.7a41.7 41.7 0 0 0-7.56-22.73 40.3 40.3 0 0 0-19.28-14.5c-16.03-5.7-35.2-1.23-46.16 12.01a42 42 0 0 0-9.49 25.22c-.1 2.57 3.9 2.57 4 0 .55-14.84 9.87-28.43 24.02-33.42 14.71-5.19 31.9-1.21 42.02 10.86a37.4 37.4 0 0 1 8.45 22.56c.1 2.57 4.1 2.58 4 0" class="a"/><path d="M157.31 146.72a28.8 28.8 0 0 0-18.86-25.8c-11.19-4-24.65-.9-32.36 8.3a29.6 29.6 0 0 0-6.82 17.5c-.14 2.56 3.86 2.56 4 0a24.7 24.7 0 0 1 16.23-22.04c9.84-3.4 21.23-.8 28.05 7.2a25 25 0 0 1 5.76 14.84c.14 2.56 4.15 2.57 4 0" class="a"/><path d="M155.3 117.32c-3.27.19-7.46 1.67-13.21 5.47a7.7 7.7 0 0 0-3.45 3.91 5 5 0 0 0 .2 4.07 5 5 0 0 0 2.35 1.89 4.7 4.7 0 0 0 3.53-.88l.15-.1c-1 .95-.87 2.82.04 4.18a4.1 4.1 0 0 0 2.77 2 5.4 5.4 0 0 0 2.6-.8 3.65 3.65 0 0 0 .06 4.56 4.5 4.5 0 0 0 3.95 1.61 4.7 4.7 0 0 0 4.29 5.37 4.4 4.4 0 0 0 2.13-.34 20 20 0 0 0 6.01-4.43c1.9-2.09 3.18-4.02 3.5-6.41a10 10 0 0 0-.27-5.06 44 44 0 0 0-2.67-6.1c-1.35-2.63-4.65-7.26-7.42-8.28a11 11 0 0 0-4.56-.66" class="b"/><path d="M151.73 125.08q-2 1.25-4.01 2.47c-1.47.9-2.9 1.94-4.4 2.74-1.04.55-2.05.63-2.75-.48-.64-1.03-.15-2.59.5-3.5a11 11 0 0 1 3.25-2.58 45 45 0 0 1 4.42-2.46 19 19 0 0 1 6.05-1.91 8.3 8.3 0 0 1 4.36.48c2.05.82 3.63 3.05 4.83 4.81a36 36 0 0 1 3.4 6.48 10 10 0 0 1 .52 7.39c-1 2.82-3.59 5.27-6.08 6.81-1.17.73-2.41 1.68-3.85 1.12a2.7 2.7 0 0 1-1.76-2.68 2.06 2.06 0 0 0-1.4-2.46 2 2 0 0 0-2.46 1.4 6.74 6.74 0 0 0 6.06 7.87c2.06.17 3.72-.73 5.42-1.79a20 20 0 0 0 4.17-3.4c2.7-2.92 4.54-6.3 4.41-10.39-.11-3.44-1.85-6.76-3.4-9.76a24 24 0 0 0-6.03-7.68 11 11 0 0 0-7.03-2.26 21 21 0 0 0-8.57 2.2 44 44 0 0 0-5.29 2.9 14 14 0 0 0-4.49 3.9c-2.33 3.52-1.35 9.55 3.43 10.35 2.54.42 4.56-1.09 6.6-2.36s4.1-2.48 6.12-3.76c2.17-1.37.17-4.83-2.02-3.45" class="a"/><path d="M143.46 130.26c-1.67 1.69-1.57 4.33-.47 6.3.88 1.57 2.68 3.24 4.59 3.3 2.05.06 3.75-1.1 5.4-2.15q2.54-1.61 5.03-3.29a2 2 0 0 0-2.02-3.45q-2.03 1.36-4.07 2.68l-2.08 1.33q-.43.29-.89.53c-.08.04-.55.23-.14.08l-.5.17-.55.11c.35-.04-.07-.03-.12-.01.34-.15.56.13.26.02l-.27-.08c.04-.05.47.22.05 0l-.36-.22c-.34-.22.18.2-.1-.1l-.39-.38-.06-.07-.13-.18-.27-.47c-.21-.37.01.2-.07-.19l-.13-.51c.1.45 0-.12 0-.23q0-.13.02-.25-.05.35 0 .13l.06-.23q-.15.33-.05.13c.19-.44-.16.11.1-.14a2 2 0 1 0-2.83-2.83Z" class="a"/><path d="M160.48 137.16q-1.53 1.04-3.08 2.03l-1.86 1.26q-.48.32-1 .61c-.52.3.17 0-.23.1a2 2 0 0 1-.56.14c.6.01.09-.03-.02-.03l-.22-.02q-.23-.01.16.03a8 8 0 0 0-.9-.24c-.47-.16.34.2-.1-.04l-.4-.23c-.38-.22.2.23-.07-.05-.04-.04-.3-.22-.29-.3q.27.37.05.04l-.1-.16-.25-.48c.17.38-.02-.09-.05-.18-.04-.17-.08-.5-.05-.13v-.59q0-.23-.02.12l.06-.25.09-.25q-.12.28-.02.08c.14-.16.23-.37.36-.54a2 2 0 0 0-.71-2.74 2.06 2.06 0 0 0-2.74.72 5.6 5.6 0 0 0-.13 6.26 6.3 6.3 0 0 0 4.88 2.91c2.1.23 3.76-1 5.41-2.11 1.26-.85 2.55-1.65 3.8-2.51a2 2 0 0 0-2.02-3.46Z" class="a"/><path d="M101.85 117.32c3.27.19 7.46 1.67 13.21 5.47a7.7 7.7 0 0 1 3.45 3.91 5 5 0 0 1-.2 4.07 5 5 0 0 1-2.35 1.89 4.7 4.7 0 0 1-3.52-.88l-.16-.1c1.01.95.87 2.82-.04 4.18a4.1 4.1 0 0 1-2.77 2 5.4 5.4 0 0 1-2.6-.8 3.65 3.65 0 0 1-.06 4.56 4.5 4.5 0 0 1-3.94 1.61 4.7 4.7 0 0 1-4.3 5.37 4.4 4.4 0 0 1-2.13-.34 20 20 0 0 1-6.01-4.43c-1.89-2.09-3.17-4.02-3.5-6.41a10 10 0 0 1 .27-5.06 44 44 0 0 1 2.67-6.1c1.35-2.63 4.65-7.26 7.42-8.28a11 11 0 0 1 4.56-.66" class="b"/><path d="M103.4 128.53c1.73 1.1 3.49 2.14 5.23 3.21 1.86 1.15 3.69 2.66 5.91 2.93 4.34.54 7.02-4.04 6.08-7.88-.98-4.05-5.05-6.24-8.43-8.08a27 27 0 0 0-9.2-3.28 13 13 0 0 0-6.47.71c-3.15 1.26-5.49 4.42-7.26 7.2a32 32 0 0 0-4.1 8.93 12.9 12.9 0 0 0 1.95 10.62 22 22 0 0 0 4.58 4.78c1.66 1.25 3.68 2.68 5.8 2.9a6.75 6.75 0 0 0 7.31-7.87 2 2 0 0 0-2.46-1.4 2.05 2.05 0 0 0-1.4 2.46 2.6 2.6 0 0 1-1.17 2.35c-1.18.86-2.3.45-3.44-.2a17.4 17.4 0 0 1-6.22-5.7c-2.92-4.6-.39-9.86 2.1-14.06a19 19 0 0 1 4.63-5.64 6 6 0 0 1 2.08-.96 7 7 0 0 1 2.16-.26 16 16 0 0 1 5.86 1.31 32 32 0 0 1 7.96 4.51 4.7 4.7 0 0 1 1.95 3.22c.08 1.15-.66 2.48-1.9 2.38a6 6 0 0 1-2.3-1.17q-1.25-.8-2.53-1.57-2.36-1.43-4.7-2.9c-2.19-1.37-4.2 2.09-2.02 3.46" class="a"/><path d="M110.86 133.09c.32.32-.16-.27.07.07.23.37-.09-.3.03.1s.03-.3.02.1c0 .07-.04.67 0 .41s-.07.28-.1.34q-.02.13-.07.25.11-.25.02-.06-.12.24-.26.47l-.17.25-.4.4-.16.15q-.18.13-.36.22l-.12.06q-.3.15.17-.06l-.27.1c-.28.1-.14-.2.26-.03-.09-.04-.45-.03-.12 0l-.55-.1-.5-.17c.41.14-.08-.05-.14-.09q-.45-.24-.89-.52l-2-1.28q-2.09-1.34-4.15-2.73a2 2 0 0 0-2.74.71 2.05 2.05 0 0 0 .72 2.74q2.5 1.67 5.02 3.29c1.65 1.05 3.35 2.2 5.4 2.14 1.92-.06 3.72-1.72 4.6-3.3 1.1-1.97 1.2-4.6-.47-6.3a2 2 0 1 0-2.83 2.83Z" class="a"/><path d="M94.66 140.61c1.24.86 2.53 1.66 3.79 2.51 1.65 1.11 3.3 2.34 5.41 2.12a6.3 6.3 0 0 0 4.88-2.92 5.6 5.6 0 0 0-.13-6.26 2.06 2.06 0 0 0-2.73-.71 2 2 0 0 0-.72 2.73q.15.24.32.46c.25.33-.01-.19.08.17.05.17.1.49.07.13q.02.3 0 .58-.01.23.03-.1l-.06.24c-.02.06-.18.55-.1.34s-.14.27-.17.32-.36.57-.17.3-.12.1-.17.16c-.32.34.21-.09-.12.09l-.4.23c-.34.2.33-.09-.09.05a3 3 0 0 1-.9.23l.23-.03-.29.02h-.14q-.34-.03.12.03c-.09.04-.47-.1-.56-.13-.5-.16.24.15-.23-.1q-.52-.3-1-.62l-1.8-1.22q-1.58-1.02-3.14-2.07a2 2 0 0 0-2.73.71 2.05 2.05 0 0 0 .72 2.74" class="a"/><path d="M89.48 25.46c-4.77 5.33-7.6 12.02-9.72 18.77-1.89 6.04-3.4 12.2-4.85 18.35a938 938 0 0 0-9.46 46.81q-2 11.08-3.85 22.19-.77 4.6-1.5 9.2c-.31 1.95-.66 3.79.17 5.67a5.7 5.7 0 0 0 4.7 3.34c4.25.42 8.62.27 12.88.37q7 .16 14.01.28 15.51.27 31.02.4 34.36.3 68.73.19c23.3-.05 46.62.05 69.93-.08 20.5-.1 41-.31 61.5-.8 4.26-.1 8.64.06 12.88-.36a5.7 5.7 0 0 0 4.7-3.34c.82-1.84.5-3.63.2-5.53q-1.58-9.99-3.23-19.96a1299 1299 0 0 0-8.67-47.57 441 441 0 0 0-4.77-21.07 108 108 0 0 0-4.55-14.6 43 43 0 0 0-7.4-12.26c-1.72-1.93-4.54.9-2.83 2.82 4.63 5.2 6.86 11.07 8.81 17.5 1.8 5.92 3.23 11.94 4.58 17.96a944 944 0 0 1 8.86 45.86q1.9 10.94 3.66 21.9l1.47 9.14c.19 1.2.75 2.84.31 4.01-.61 1.65-2.84 1.2-4.24 1.25-19.02.55-38.06.8-57.09.95q-33.5.28-67 .17c-22.77-.04-45.55.05-68.33-.07-20.07-.1-40.15-.3-60.22-.74q-6.35-.15-12.7-.33c-1.5-.04-3.4.26-3.75-1.63-.24-1.27.3-2.89.5-4.15q1.59-9.88 3.32-19.75c2.7-15.45 5.57-30.89 8.87-46.23a462 462 0 0 1 4.8-20.37 124 124 0 0 1 4.52-14.49l.1-.25q.35-.83.73-1.65.76-1.6 1.62-3.15a33 33 0 0 1 4.11-5.93c1.71-1.92-1.1-4.75-2.83-2.83ZM19.8 279.23c-1.27 2.53-1.07 5.26-1.1 8.02l-.05 7.3q-.03 8.44.08 16.9c.08 6.01.2 12.03.45 18.04q.16 4.11.4 8.22a20 20 0 0 0 1.63 7.52c2.15 4.64 6.65 9.3 11.85 10.27a49 49 0 0 0 7.55.45q4.31.11 8.62.1 4.42 0 8.84-.08c2.68-.04 5.43.05 8.1-.24a16.7 16.7 0 0 0 12.41-8.36 20 20 0 0 0 2.45-9.08q.3-5.2.54-10.4c.24-5.44.4-10.88.58-16.32.08-2.57-3.92-2.57-4 0q-.2 6.76-.46 13.53-.16 3.9-.36 7.82c-.15 2.86-.03 5.9-.72 8.7a13.4 13.4 0 0 1-8.42 9.6 22 22 0 0 1-6.7.7q-4.1.1-8.2.12c-5.41.05-10.82.04-16.22-.2a12 12 0 0 1-6.1-1.4 16 16 0 0 1-5.1-5.05 13 13 0 0 1-2.18-6.09q-.25-3.75-.42-7.5-.37-8.34-.49-16.7-.16-9.2-.13-18.38 0-3.95.04-7.9l.04-3.64a8.6 8.6 0 0 1 .53-3.91c1.16-2.3-2.3-4.32-3.45-2.02Zm356.73 4.14q.22 14.7.01 29.4-.1 8.34-.43 16.69-.15 3.76-.37 7.52a16 16 0 0 1-1.27 6.54c-1.85 3.77-5.53 7.88-10 8.19-5.06.34-10.15.35-15.23.34q-4.2 0-8.41-.08c-2.4-.05-4.83.02-7.22-.18-4.35-.37-8.07-3.55-9.94-7.35-1.32-2.69-1.39-5.57-1.55-8.5q-.26-4.65-.46-9.3-.3-7.53-.52-15.07c-.08-2.57-4.08-2.58-4 0q.21 7.1.48 14.2.18 4.2.4 8.4a43 43 0 0 0 .88 8.85 17.5 17.5 0 0 0 9.58 11.44 19 19 0 0 0 7.34 1.39q4.08.11 8.16.16c5.74.07 11.48.08 17.2-.14 2.37-.1 4.8-.08 7.03-.97a17.5 17.5 0 0 0 6.34-4.5 21 21 0 0 0 4.24-6.93c.87-2.42.87-5.04 1-7.59.32-5.6.5-11.2.63-16.81q.39-17.85.1-35.7c-.04-2.57-4.04-2.58-4 0Z" class="a"/></svg>
