<svg xmlns="http://www.w3.org/2000/svg" viewBox="-131.68 0 418.147 418.147"><defs><style>.a{fill:#211715}.b{fill:#fff}.c{fill:#a98a75}.e{fill:#645d5c}</style></defs><path d="M68.28 97.5c.87-.3 1.71-.74 2.55-1.13l3.85-1.77 3.02-1.4.32-.15-.16.07c-.52.22-.07.04.06-.02l.75-.32a5.4 5.4 0 0 0 2.41-2.23 9 9 0 0 0 .82-2.85c.23-1.46.48-2.92.61-4.4a2 2 0 0 0-2-2 2.05 2.05 0 0 0-2 2 37 37 0 0 1-.89 5.29c-.06.24.2-.32.04-.12l-.13.23c-.22.4.18-.13-.07.1l-.21.2c.22-.26.16-.1.03-.03l-.3.18c-.03.02-.45.23-.27.15s-.14.05-.14.05l-.49.2-.06.03-.3.14-6.43 2.97-1.67.76-.54.24c-.44.2.5-.19.14-.06a2 2 0 1 0 1.06 3.87m35.23-14.36q.2 2.06.55 4.11a16 16 0 0 0 .4 2.12 5.4 5.4 0 0 0 1.47 2.43 6 6 0 0 0 1.3.92 11 11 0 0 0 .99.42c.63.25-.47-.22-.22-.1 1.9.98 3.88 1.84 5.82 2.75.92.44 1.84.9 2.78 1.29a2 2 0 0 0 2.46-1.4 2.06 2.06 0 0 0-1.4-2.46c1 .41.09.02-.15-.1l-1.24-.58-3.36-1.59q-1.3-.6-2.6-1.23l-.28-.13-.08-.03-.48-.2c-.06-.02-.36-.17-.06-.02l-.52-.28c-.06-.03-.35-.22-.12-.06.2.14.02.01-.02-.03l-.2-.19c-.29-.26.1.08.06.1l-.28-.48c-.11-.17.08.17.07.2l-.11-.35-.12-.49-.2-1.17-.27-1.69-.08-.61-.12-1.15a2 2 0 0 0-4 0Z" class="a"/><path d="m77.7 397.67-1.26.85a10.5 10.5 0 0 1-9.35 1.25c-2.88-1.05-5.44-3.17-5.08-6.69l.26-2.45a56 56 0 0 0 6.57-7.95 14 14 0 0 0 2.65-7.6l-.12-4.27a49 49 0 0 0 18.73-.74h4.68a49 49 0 0 0 18.73.74q-.07 2.15-.11 4.27a14 14 0 0 0 2.64 7.6 56 56 0 0 0 6.58 7.95l.25 2.45c.37 3.52-2.2 5.64-5.08 6.69a10.5 10.5 0 0 1-9.35-1.24 93 93 0 0 1-13.1-10.7l-1.27-1.34-3.14-.7a18 18 0 0 1-1.38 2.03 93 93 0 0 1-11.86 9.85" class="b"/><path d="m20.91 90.95-.16-.5a185 185 0 0 1 8.43-3.4c.79 2.73 1.85 6.33 2.65 9.02l.47 1.36a5.2 5.2 0 0 0-2.96-1.33 9.6 9.6 0 0 0-6.07 2.2l-.5-1.5z" class="c"/><path d="M115.15 75.29c2.38-.47 3.9-1 4.33-2.13.77-2.03 1.53-5.2 3.36-6.37 9.22-5.88 10.04-13.58 5.49-25.35-2.96-7.64-5.16-14.1-7.15-19.8-3.22-8.58-9.25-17.3-21.11-19.24-5.64-.77-12.93-.63-16.97 2.24l-5.08 2.9c-4-.66-7.87 1.22-10.34 3.45-5.22 4.7-7.19 12.91-8.94 20.67-2.13 9.08-4.38 13.8-6 20.37-1.95 7.81 3.87 21.13 15 22.43l8.63 2.07Z" style="fill:#c6c6c6"/><path d="M126.82 48.57a4 4 0 0 0-3.63-2.02 4.4 4.4 0 0 0-3.15 1.16l-.95.91c.98-3.57-.45-8.28-2.56-12.57l-4.83-.76a28 28 0 0 1-11.42-7.4l-1.62 1.37c-3.56 3.48-11.07-2.86-13.05-7.92l-6.15 2.87c-8.73 5.26-13.03 16.92-14.07 24.51l-1.05-1.01a4.4 4.4 0 0 0-3.15-1.15 4 4 0 0 0-3.63 2.01c-1.23 2.14-1.18 6.08-.35 8.52a13 13 0 0 0 3.86 6.26 4.7 4.7 0 0 0 4 1 33 33 0 0 0 6.28 11.86 25.5 25.5 0 0 0 7.86 6.59v.2c.54.43 11.44 9.03 12.27 9.62h1.92c.83-.6 11.73-9.19 12.26-9.62v-.41c6.39-3.64 11.4-12.27 12.32-14.77a28 28 0 0 0 1.27-3.46l.36.06a4.8 4.8 0 0 0 3.7-1.06 13 13 0 0 0 3.86-6.27c.83-2.44.88-6.38-.35-8.52" class="b"/><path d="M92.35 135.39a183 183 0 0 0 8.37-17.06 239 239 0 0 0 10.07-27.21l-.24.27a3.9 3.9 0 0 0-.84-3.5c-1.24-1.42-2.79-3.49-4.05-4.9-.53.44-11.43 9.03-12.26 9.62h-1.92A1352 1352 0 0 1 79.22 83c-1.26 1.4-2.81 3.47-4.04 4.9a3.9 3.9 0 0 0-.85 3.5l-.24.2c2.84 9.93 5.94 17.23 9.94 26.87a173 173 0 0 0 7.73 16.92" class="b"/><path d="M103.84 406.15a257 257 0 0 0-5.95-4.08c-5-3.11-4.43-7.36-4.32-10.26a53 53 0 0 1 .5-5.32l1.27 1.34a93 93 0 0 0 13.1 10.7 10.5 10.5 0 0 0 9.35 1.24c2.88-1.05 5.45-3.17 5.08-6.69l-.25-2.45.47.48c3.23 3.32 6.8 6.58 10.03 9.8 2.1 2.1 3.75 4.88 3.68 7.93a6.8 6.8 0 0 1-3.22 5.07 13 13 0 0 1-5.85 2.06 22 22 0 0 1-13.76-2.82c-.75-.44-5.83-4-10.13-7m-22.8 0a257 257 0 0 1 5.95-4.08c5-3.11 4.44-7.36 4.33-10.26a59 59 0 0 0-.39-6.03 10 10 0 0 0-1.38 2.05 93 93 0 0 1-13.1 10.7 10.5 10.5 0 0 1-9.36 1.24c-2.88-1.05-5.44-3.17-5.08-6.69l.26-2.45-.48.48c-3.23 3.32-6.8 6.58-10.03 9.8-2.1 2.1-3.75 4.88-3.67 7.93a6.8 6.8 0 0 0 3.22 5.07 13 13 0 0 0 5.84 2.06 22 22 0 0 0 13.76-2.82c.75-.44 5.84-4 10.14-7" class="e"/><path d="M104.85 404.42c-1.8-1.25-3.6-2.53-5.43-3.74a8 8 0 0 1-3.42-3.54 10 10 0 0 1-.48-4.19 55 55 0 0 1 .48-5.93l-3.34.88a76 76 0 0 0 6.95 6.48c3.12 2.58 6.5 5.63 10.3 7.12a12.3 12.3 0 0 0 11.49-1.36 8.3 8.3 0 0 0 3.16-4.14c.57-1.76.24-3.57.06-5.37l-3.42 1.42c3 3.07 6.13 6 9.2 9 2.14 2.1 5.7 5.68 4.05 9.03-1.7 3.48-6.54 4.16-9.96 4.07a19.5 19.5 0 0 1-10.02-3.04c-3.26-2.15-6.42-4.45-9.63-6.68-2.11-1.47-4.11 2-2.01 3.46 3.2 2.23 6.36 4.53 9.62 6.67a23.4 23.4 0 0 0 12.26 3.6c4.65.06 9.73-1.2 12.6-5.14 2.83-3.85 1.13-8.82-1.6-12.2a66 66 0 0 0-5.85-5.85q-2.97-2.83-5.83-5.75c-1.12-1.15-3.6-.36-3.41 1.42a12 12 0 0 1 .18 4 4.4 4.4 0 0 1-2.23 2.59 8.7 8.7 0 0 1-9.28-.53 79 79 0 0 1-13.8-11.61c-.95-1-3.12-.63-3.34.88a65 65 0 0 0-.63 7 13.5 13.5 0 0 0 .73 5.52 11.5 11.5 0 0 0 4.7 5.36c2 1.3 3.93 2.68 5.88 4.04 2.11 1.46 4.11-2 2.02-3.47" class="a"/><path d="M114.7 311.13c-.76 12.67-1.58 25.33-2.26 38q-.48 8.88-.8 17.76c-.1 2.79-.31 5.62-.25 8.41a16 16 0 0 0 1.66 6.33 34 34 0 0 0 5.34 7.35c2.3 2.64 4.8 5.1 7.31 7.53 1.85 1.79 4.68-1.04 2.83-2.83-4.1-3.95-8.27-8.01-11.35-12.83-2.54-3.99-1.72-8.82-1.57-13.29.42-11.83 1.1-23.66 1.81-35.47l1.28-20.96c.15-2.57-3.85-2.56-4 0m-32.64 96.75Q85 405.79 88 403.8a11.3 11.3 0 0 0 4.84-5.86 15 15 0 0 0 .5-5.57c-.1-2.38-.14-4.75-.48-7.12-.25-1.77-2.87-1.85-3.65-.48a13 13 0 0 1-1.27 1.9c.49-.6-.03-.02-.11.06l-.63.62q-1.6 1.53-3.28 2.96a86 86 0 0 1-8.17 6.28 8.7 8.7 0 0 1-9.15.79 5 5 0 0 1-2.42-2.45c-.48-1.29-.05-2.99.09-4.3.18-1.77-2.29-2.57-3.42-1.41-3.42 3.5-7.06 6.79-10.5 10.28-3 3.05-5.52 7.84-3.6 12.1 1.97 4.4 7.02 6.14 11.48 6.48a23.7 23.7 0 0 0 13.73-3.22c3.49-2.1 6.76-4.65 10.1-6.98 2.1-1.46.1-4.93-2.02-3.45-2.98 2.07-5.94 4.17-8.94 6.2a20 20 0 0 1-8.98 3.39c-3.66.42-8.31.07-10.93-2.86-2.5-2.8-.18-6.62 2-8.83 3.44-3.5 7.08-6.78 10.5-10.29l-3.42-1.41c-.18 1.8-.51 3.6.05 5.37a8.4 8.4 0 0 0 3.43 4.33 12.4 12.4 0 0 0 11.9.9 28 28 0 0 0 5.38-3.5q2.48-1.86 4.85-3.84c2.5-2.1 5.14-4.21 6.79-7.09l-3.67-.49c.27 1.93.25 3.9.33 5.83a14 14 0 0 1-.27 4.46 7.3 7.3 0 0 1-3.34 3.91c-1.93 1.26-3.8 2.6-5.69 3.91-2.09 1.46-.1 4.93 2.03 3.46" class="a"/><path d="M66.18 311.13c.73 12.2 1.52 24.39 2.18 36.59q.48 8.8.83 17.6.15 4.22.26 8.45a13 13 0 0 1-1 5.69 29 29 0 0 1-4.94 6.87c-2.26 2.58-4.7 4.98-7.16 7.36-1.85 1.8.98 4.62 2.83 2.83a88 88 0 0 0 11.78-13.36c2.96-4.31 2.52-9.3 2.35-14.25a1357 1357 0 0 0-1.8-36.08l-1.33-21.7c-.15-2.55-4.15-2.57-4 0m23.26 58.31v15.49c0 2.57 4 2.58 4 0v-15.49c0-2.57-4-2.58-4 0" class="a"/><path d="M58.87 194.85c-4.8 13.8-4.08 28.85-3.24 43.44q3.73 65.46 8.7 130.84a49 49 0 0 0 28.27.31 49 49 0 0 0 28.28-.31q4.96-65.38 8.7-130.84c.83-14.6 1.55-29.63-3.25-43.44" class="b"/><path d="M90.28 231.48q0 11.79.03 23.58l.08 32.36.1 34.1.07 29.34.04 17.55v1.03c0 2.58 4 2.58 4 0q0-7.82-.03-15.64l-.08-28.26-.09-33.86-.08-32.96q-.03-12.5-.04-25.02v-2.22c0-2.57-4-2.58-4 0" class="a"/><path d="M56.79 194.32c-3.52 10.24-4.14 21.18-3.87 31.92.28 11.33 1.15 22.65 1.83 33.95q2.1 34.84 4.54 69.65 1.39 19.65 2.88 39.29a2.1 2.1 0 0 0 1.47 1.93 51.5 51.5 0 0 0 27 .93c2.5-.58 1.44-4.44-1.07-3.85a47.4 47.4 0 0 1-24.87-.94l1.47 1.93q-2.64-34.68-4.92-69.38c-1.5-22.86-3.14-45.74-4.15-68.63-.54-12.01-.4-24.24 3.55-35.74.84-2.44-3.03-3.48-3.86-1.06" class="a"/><path d="M124.24 195.38c3.51 10.23 4.01 21.07 3.7 31.8-.33 11.25-1.17 22.51-1.85 33.76q-2.09 34.59-4.52 69.15-1.37 19.52-2.85 39.04l1.47-1.93a47.4 47.4 0 0 1-24.88.94c-2.5-.59-3.57 3.27-1.06 3.85a51.5 51.5 0 0 0 27-.93 2.1 2.1 0 0 0 1.47-1.93q2.64-34.8 4.94-69.63c1.51-23 3.2-46.04 4.16-69.08.51-12.11.26-24.52-3.72-36.1-.83-2.42-4.7-1.38-3.86 1.06" class="a"/><path d="M84.45 316.07a189 189 0 0 1-33.88-4.61 26 26 0 0 1-8.6-3 3.8 3.8 0 0 1-1.52-3.51c.74-13.46 1.65-29.87 2.56-46.73 1.45-26.97 2.88-55.07 3.56-74.03l.18-5.63c-.69 0-1.2-.02-1.2-.02s-7.3-.2-9.05-.47c-4.45-.68-8.37-3.84-9.84-11.68a91 91 0 0 1-1.38-9.17c-.98-11.9-.99-17.8-1.56-25.95l15.12-21.53c4.33-5.59 13.42-12.74 26.05-16.16 1.93-.52 7.11-2.7 7.11-2.7l1.7-.71c2.94 10.66 6.14 18.2 10.33 28.3a173 173 0 0 0 8.02 17.47 185 185 0 0 0 8.67-17.6 239 239 0 0 0 10.07-27.22l.08-.27.1.03s4.43 1.38 6.3 1.98c13.32 4.34 22.02 11.44 25.77 18.54l2.47 5.58a76 76 0 0 1 6.72 26.2c.94 13.67 1.7 28.86-6.73 35.97a27 27 0 0 1-7.28 3.83c.87 28.95 4.16 83.3 6.22 120.42a4.5 4.5 0 0 1-1.16 3.17c-1.91 2.28-6.1 4.17-10.07 5.11-15.36 3.63-26.22 4.53-41.57 4.53q-3.64 0-7.19-.14" class="e"/><path d="M136.22 182.98c.65 21.55 1.88 43.08 3.07 64.6q1 18.1 2.05 36.21l.95 16.85c.06 1.16.42 2.66.01 3.75a5.7 5.7 0 0 1-2.4 2.45 28 28 0 0 1-9.14 3.36c-26.72 6.05-55.05 5.24-81.64-1.12a25 25 0 0 1-3.76-1.15c-1.05-.43-2.62-.89-2.87-2.13a14 14 0 0 1 .1-3.37l.2-3.56.88-16q.96-17.38 1.89-34.77c1.13-21.28 2.26-42.56 3.01-63.86l.2-5.7c.07-2.58-3.93-2.57-4 0-.64 20.99-1.76 41.97-2.86 62.93q-.94 17.94-1.93 35.87l-.93 16.83-.42 7.62c-.15 2.68-.65 5.77 1.55 7.8 2.1 1.94 5.55 2.8 8.26 3.43q5.23 1.22 10.5 2.16a188 188 0 0 0 21.78 2.7 182 182 0 0 0 41.24-1.87q5.2-.88 10.35-2.07a30 30 0 0 0 9.62-3.65c2.6-1.67 4.64-3.99 4.5-7.23-.12-2.7-.3-5.4-.46-8.1l-2.06-36.47c-1.3-23-2.62-46.01-3.47-69.04q-.12-3.23-.22-6.47c-.07-2.57-4.07-2.58-4 0" class="a"/><path d="M88 181.55c-2.62-1.86-8.25-3.72-8.42-6.9a2.7 2.7 0 0 1 .7-2.14c.95-.95 2.28-.73 4.6-.55 1.74.13 3.01.4 4.74.66a35 35 0 0 1 3.96.85c2.7 1.11 4.17 1.6 5.76 3.2l.5-.2-1.49-3.58a.9.9 0 0 1 .5-1.19 2042 2042 0 0 0 16.1-6.8A934 934 0 0 0 94.57 137c-5.28 3.4-31.83 23.29-34.53 25.52a692 692 0 0 0 13.55 20.01 2.7 2.7 0 0 1 1.99-.13 43 43 0 0 0 4.77 1.52 30 30 0 0 0 7.66-2.37" style="fill:#fecb87"/><path d="M144.77 110.4c-6.62-12.37-20.7-17.55-33.28-21.45-2.46-.76-3.51 3.1-1.06 3.86C122 96.4 135.2 101 141.32 112.4c1.21 2.27 4.67.25 3.45-2.02Zm-99.21 66.14c-2.54-.07-5.1-.15-7.63-.33l-.82-.07c-.65-.05.25.09-.44-.06a13 13 0 0 1-1.97-.56 8.4 8.4 0 0 1-3.32-2.6 15 15 0 0 1-2.43-5.43 67 67 0 0 1-1.43-8.08c-.63-4.98-.83-10.04-1.1-15.05-.22-4.37-.4-8.73-.7-13.09-.17-2.55-4.17-2.57-4 0 .65 9.37.64 18.82 1.8 28.14.63 5.09 1.2 10.97 4.23 15.29a12.5 12.5 0 0 0 8.88 5.38c2.95.36 5.96.37 8.93.46 2.57.07 2.57-3.93 0-4m98.22-58.55c4.37 9.32 6.14 19.32 6.73 29.52a105 105 0 0 1 .08 13.89 30 30 0 0 1-2.86 11.72c-2.14 4.06-5.76 6.47-10.04 7.93-2.43.83-1.39 4.7 1.06 3.86 4.42-1.51 8.49-3.88 11.2-7.75a27.5 27.5 0 0 0 4.24-12.1 83 83 0 0 0 .44-15.16 111 111 0 0 0-1.7-16.44 76 76 0 0 0-5.7-17.48 2 2 0 0 0-2.73-.72 2.05 2.05 0 0 0-.72 2.73" class="a"/><path d="M94.08 136.4a240 240 0 0 0 18.64-44.75c.75-2.47-3.11-3.52-3.85-1.06a235 235 0 0 1-18.25 43.8c-1.22 2.26 2.23 4.28 3.46 2.01" class="a"/><path d="M72.16 92.13a226 226 0 0 0 8.68 23.83 268 268 0 0 0 9.2 20.44c1.18 2.29 4.63.27 3.45-2.02a262 262 0 0 1-8.96-19.9 222 222 0 0 1-8.5-23.41c-.71-2.47-4.57-1.42-3.86 1.06Z" class="a"/><path d="M40.26 111.15a44 44 0 0 1 15.05-11.8 79 79 0 0 1 10.92-4.09 81 81 0 0 0 6.3-2.46 2.07 2.07 0 0 0 1.4-2.46 2 2 0 0 0-2.46-1.4c-6 2.53-12.36 4.02-18.18 6.96a47 47 0 0 0-15.87 12.42 2.07 2.07 0 0 0 0 2.83 2 2 0 0 0 2.83 0Z" class="a"/><path d="M74.5 192.31a5 5 0 0 0 .4.97 7.6 7.6 0 0 0 2.74 3.17 16 16 0 0 0 3.89 7.45 7.3 7.3 0 0 0 4.56 1.46c7.57-1.7 13.55-5.8 19.55-10.72l1.18-.96a816 816 0 0 0-6.71-16.55l-.76-.46c-1.6-1.6-3.06-2.09-5.76-3.2a35 35 0 0 0-3.97-.85c-1.73-.26-3-.52-4.75-.66-2.3-.18-3.64-.4-4.58.56a2.7 2.7 0 0 0-.71 2.13c.18 3.18 5.8 5.04 8.43 6.9a30 30 0 0 1-7.66 2.37 43 43 0 0 1-4.77-1.52 3.3 3.3 0 0 0-3.56 1.4 3 3 0 0 0 .73 3.75 12 12 0 0 0 1.8 1.13 6.4 6.4 0 0 0-.05 3.63" class="b"/><path d="M74.5 192.31a5 5 0 0 0 .4.97 7.6 7.6 0 0 0 2.74 3.17 16 16 0 0 0 3.89 7.45 7.3 7.3 0 0 0 4.56 1.46c7.57-1.7 13.55-5.8 19.55-10.72l1.18-.96a816 816 0 0 0-6.71-16.55l-.76-.46c-1.6-1.6-3.06-2.09-5.76-3.2a35 35 0 0 0-3.97-.85c-1.73-.26-3-.52-4.75-.66-2.3-.18-3.64-.4-4.58.56a2.7 2.7 0 0 0-.71 2.13c.18 3.18 5.8 5.04 8.43 6.9a30 30 0 0 1-7.66 2.37 43 43 0 0 1-4.77-1.52 3.3 3.3 0 0 0-3.56 1.4 3 3 0 0 0 .73 3.75 12 12 0 0 0 1.8 1.13 6.4 6.4 0 0 0-.05 3.63" class="b"/><path d="M52.7 169.85c1.06-4.52 1.5-9.22 2.1-13.8.96-7.41 1.83-14.83 2.7-22.25l1.54-13.26a2 2 0 0 0-2-2 2.05 2.05 0 0 0-2 2c-1.63 14.08-3.1 28.2-5.16 42.21-.29 2.02-.57 4.05-1.03 6.03-.59 2.5 3.27 3.58 3.86 1.07Zm22.62 11.66c-4.59-6.6-9.27-13.18-13.55-20l-.31 2.43.54-.44.36-.28.28-.22 2.53-1.93q3.72-2.83 7.46-5.62 8.38-6.3 16.86-12.45c2-1.45 4-2.93 6.09-4.28l-2.74-.72a852 852 0 0 1 20.4 27.91 2.05 2.05 0 0 0 2.73.72 2 2 0 0 0 .72-2.74 853 853 0 0 0-20.4-27.9 2.04 2.04 0 0 0-2.73-.73c-4.58 2.97-8.93 6.33-13.32 9.57q-8.34 6.15-16.6 12.41c-1.68 1.27-3.39 2.52-5.01 3.86a2 2 0 0 0-.31 2.43c4.27 6.81 8.96 13.39 13.54 20 1.46 2.1 4.93.1 3.46-2.02" class="a"/><path d="M87 179.82a29 29 0 0 1-7.18 2.17h1.06a39 39 0 0 1-4.62-1.46 5.2 5.2 0 0 0-5.82 2.04 5 5 0 0 0 .6 6.12 13.6 13.6 0 0 0 6.14 3.11c2.49.67 3.55-3.19 1.06-3.86a13 13 0 0 1-3.09-1.2 11 11 0 0 1-1.14-.74 1 1 0 0 1-.33-.55c-.05-.2-.06-.2-.04-.3-.05.25.17-.56.1-.37q-.01.11.1-.12-.18.25.06-.03c-.27.14.31-.19.3-.19a1 1 0 0 1 .73-.18c-.29-.05.19.1.26.12l.58.22q1.29.46 2.6.86l1.14.31a5 5 0 0 0 2.05-.03 34 34 0 0 0 7.46-2.47 2 2 0 0 0 .71-2.74 2.05 2.05 0 0 0-2.73-.71" class="a"/><path d="M72.62 188.15a9.05 9.05 0 0 0 4 10.03l-.91-1.2a17.7 17.7 0 0 0 4.54 8.47 8 8 0 0 0 3.72 1.7 8.5 8.5 0 0 0 4.48-.33c7.02-2 13.01-6.2 18.6-10.77 2-1.63-.85-4.44-2.83-2.83a66 66 0 0 1-9.3 6.55 36 36 0 0 1-5 2.36q-1.25.46-2.54.83l-1.41.37q-.71.17-.22.06l-.33-.02a5 5 0 0 1-2.76-1.21 13 13 0 0 1-2.42-4.03 16 16 0 0 0-.88-2.7c-.4-.7-1.29-1-1.8-1.66a4.9 4.9 0 0 1-1.09-4.56c.68-2.5-3.18-3.55-3.86-1.07Z" class="a"/><path d="M129.67 156.48c-8.94 3.77-17.85 7.62-26.79 11.39l-3.26 1.36c-1.26.53-2.63.9-3.13 2.3-.51 1.45.31 2.82.86 4.13q2.09 5.02 4.15 10.06c1.55 3.8 3.1 7.59 4.5 11.44.87 2.4 4.74 1.37 3.86-1.06-1.55-4.29-3.3-8.5-5.03-12.73q-1.34-3.29-2.7-6.57l-1.06-2.53-.45-1.09-.21-.51c-.15-.32.05-.33-.06-.07l-.52.88a8 8 0 0 1 1.42-.63l1.92-.8 4.21-1.78 8.26-3.5q7.53-3.23 15.1-6.43a2.07 2.07 0 0 0 1.4-2.46 2 2 0 0 0-2.47-1.4m6.84-44.53a182 182 0 0 1-20.27 2.52 2.05 2.05 0 0 0-2 2 2 2 0 0 0 2 2 192 192 0 0 0 21.33-2.66 2 2 0 0 0 1.4-2.46 2.04 2.04 0 0 0-2.46-1.4" class="a"/><path d="M116.7 106.45c-1.41 3.75-3.29 7.64-5.1 11.5q-3.28 6.98-6.7 13.9-1.15 2.37-2.36 4.73c-1.18 2.28 2.27 4.3 3.45 2.02a497 497 0 0 0 11.97-24.96 103 103 0 0 0 2.6-6.13 2 2 0 0 0-1.4-2.46 2.04 2.04 0 0 0-2.46 1.4m-55.64 1.06c1.56 4.14 3.5 8.16 5.37 12.17q3.31 7.07 6.77 14.07 1.2 2.44 2.42 4.84c1.19 2.3 4.64.27 3.46-2.02a500 500 0 0 1-11.81-24.59c-.9-2.02-1.61-3.56-2.35-5.54a2.06 2.06 0 0 0-2.46-1.4 2 2 0 0 0-1.4 2.46Zm68.09 13.65c-.6 9.39-1.06 18.79-1.74 28.17-.2 2.57 3.81 2.55 4 0 .68-9.38 1.14-18.78 1.74-28.17.16-2.57-3.84-2.56-4 0m-12.26 4.89c-.38 9.34-.68 18.7-1.44 28.03-.21 2.56 3.8 2.55 4 0 .76-9.33 1.06-18.69 1.44-28.04.1-2.57-3.9-2.56-4 0m-16.13 49.2a17 17 0 0 0-7.02-3.81 49 49 0 0 0-9.04-1.5c-2.73-.23-5.94-.24-6.91 2.96-.8 2.63.66 4.9 2.67 6.44 2.03 1.56 4.44 2.48 6.54 3.93a2 2 0 0 0 2.73-.72 2.04 2.04 0 0 0-.72-2.74c-1.89-1.3-4.07-2.15-5.94-3.49a7 7 0 0 1-.98-.86 2 2 0 0 1-.5-.8l-.04-.18q.05.4.02-.17c.03-.13.11-.3.13-.39q-.23.12.07-.06l-.12.04a1 1 0 0 1 .54-.1 36 36 0 0 1 8.9 1.1 14 14 0 0 1 6.84 3.18c1.84 1.8 4.67-1.03 2.83-2.83m3.49-90.84q1.36 1.59 2.66 3.22a8 8 0 0 1 1.75 2.59c.03.07.07.54.1.28 0-.15.01-.04-.03.06a5 5 0 0 1-.33.56q-.54.88-1.11 1.75a60 60 0 0 1-3.29 4.6q-.94 1.18-1.98 2.27a17 17 0 0 1-1.38 1.29c.3-.24-.26.17-.32.21l2.73.72c-2.7-3.6-5.25-7.38-8.23-10.76l-.4 3.14c4.34-3.12 8.5-6.57 12.66-9.93a2 2 0 0 0 0-2.83 2.05 2.05 0 0 0-2.83 0q-2.95 2.37-5.94 4.69l-4.03 3.16-.75.58c-.14.11-.94.73-.4.32q-.37.29-.74.55a2.04 2.04 0 0 0-.4 3.15c2.76 3.13 5.11 6.61 7.61 9.95a2.04 2.04 0 0 0 2.74.72 21 21 0 0 0 4.72-4.7q2.13-2.7 4-5.6c1.08-1.67 1.98-3.14 1.47-5.25a10 10 0 0 0-2.38-3.84c-1.02-1.25-2-2.53-3.07-3.73-1.71-1.93-4.53.9-2.83 2.83" class="a"/><path d="M77.8 81.58c-1.07 1.2-2.05 2.48-3.07 3.73a10 10 0 0 0-2.37 3.84c-.52 2.11.39 3.58 1.46 5.25q1.86 2.9 4 5.6a21 21 0 0 0 4.72 4.7 2.05 2.05 0 0 0 2.74-.72c2.5-3.34 4.85-6.82 7.61-9.95a2.04 2.04 0 0 0-.4-3.14l-.73-.56-.4-.31-.75-.58-4.04-3.17q-2.98-2.33-5.94-4.68a2.06 2.06 0 0 0-2.83 0 2 2 0 0 0 0 2.83c4.17 3.35 8.33 6.8 12.67 9.92l-.4-3.14c-2.99 3.39-5.54 7.16-8.24 10.77l2.73-.72a11 11 0 0 1-1.7-1.5q-1-1.05-1.9-2.18a59 59 0 0 1-4.47-6.45l-.31-.53-.1-.17c.13.5.13-.16.13-.17a5 5 0 0 1 .57-1.16q.58-.74 1.2-1.46 1.3-1.64 2.66-3.21a2.05 2.05 0 0 0 0-2.83 2 2 0 0 0-2.84 0m13.27-23.07a26 26 0 0 1 .6 2.76l-.07-.53v.38l.08-.53-.04.17.2-.48-.07.11.32-.4-.1.1.41-.32-.22.11.48-.2-.37.11.53-.07a1 1 0 0 1-.34 0l.53.07-.39-.07a1.5 1.5 0 0 0-.8-.03 1.5 1.5 0 0 0-.74.24 2 2 0 0 0-.72 2.73l.31.4a2 2 0 0 0 .88.52c.35.05.7.14 1.05.15a3.4 3.4 0 0 0 1.6-.39 2.4 2.4 0 0 0 1.31-1.6 4 4 0 0 0-.01-1.64q-.24-1.34-.59-2.65a2 2 0 0 0-.92-1.2 2 2 0 0 0-1.54-.2 2 2 0 0 0-1.2.92 2 2 0 0 0-.2 1.54ZM87.2 72.1a17 17 0 0 0 5.28.74A13 13 0 0 0 98 71.82a2 2 0 0 0 .71-2.74 2.05 2.05 0 0 0-2.73-.71 1.66 1.66 0 1 0 .17-.07l-.35.13a8 8 0 0 1-.86.22l-.61.1c-.25.05.47-.04.09 0q-.2 0-.41.03a19 19 0 0 1-3.38 0l-.34-.04c-.32-.03-.07-.02.1.02l-.6-.1a12 12 0 0 1-1.53-.41 2 2 0 0 0-2.46 1.4 2.05 2.05 0 0 0 1.4 2.46ZM77.1 50.53c-.46 1.5-.16 4.95 2.68 5.24 3.75-.02 3.95-4.19 2.68-6.15-1.03-1.6-4.07-2.27-5.36.91m30.17 0c.46 1.5.16 4.95-2.68 5.24-3.76-.02-3.96-4.19-2.7-6.15 1.04-1.6 4.08-2.27 5.38.91M65.75 46.3a6.8 6.8 0 0 0-7.35-1.09 6.4 6.4 0 0 0-3.35 4.32 16 16 0 0 0 2.32 12.65c1.65 2.45 4.25 4.66 7.4 4.25a2.07 2.07 0 0 0 2-2 2 2 0 0 0-2-2c-2.18.28-3.6-1.52-4.55-3.27a13 13 0 0 1-1.56-4.83 8.3 8.3 0 0 1 .83-5.06c-.33.53.51-.43.2-.2a2 2 0 0 1 .92-.43 2.5 2.5 0 0 1 2.31.5c1.92 1.7 4.75-1.12 2.83-2.84m55.7 2.83a2.5 2.5 0 0 1 2.19-.52 2 2 0 0 1 1.05.45c-.3-.22.52.72.2.21a8.3 8.3 0 0 1 .82 5.06 13 13 0 0 1-1.55 4.83c-.95 1.75-2.37 3.55-4.55 3.27a2 2 0 0 0-2 2 2.05 2.05 0 0 0 2 2c5.12.67 8.28-4.87 9.56-9.01 1.15-3.72 1.09-9.49-2.55-11.87a6.7 6.7 0 0 0-8 .75c-1.93 1.72.91 4.54 2.83 2.83" class="a"/><path d="M117.85 61.78a28 28 0 0 1-1.26 4.23l-.57 1.37c-.2.5.14-.3-.03.07l-.18.38a36 36 0 0 1-3.1 5.16c-2.69 3.8-6.37 7.97-11.09 9.08-2.5.59-1.44 4.44 1.06 3.86 5.62-1.32 9.93-6 13.18-10.5a37 37 0 0 0 3.37-5.51l.56-1.27c.22-.52-.16.35.08-.17l.42-1.03a28 28 0 0 0 1.42-4.6c.52-2.51-3.33-3.58-3.86-1.06Zm-55.26.97C65 73.3 72.95 84.82 84.36 86.54a2.07 2.07 0 0 0 2.46-1.4 2 2 0 0 0-1.4-2.46c-10.12-1.53-16.85-11.66-18.97-21-.58-2.51-4.43-1.45-3.86 1.06Zm9.05-13.09a2 2 0 0 1 .48-.77 5 5 0 0 1 2.1-.82 32 32 0 0 1 10.41-.22c1.43.24 2.48.48 2.67 2.02a7 7 0 0 1-.4 3.61 4.7 4.7 0 0 1-2.64 2.26 13.5 13.5 0 0 1-8.53.28 4.8 4.8 0 0 1-3.12-1.99 7.5 7.5 0 0 1-.97-4.37 2 2 0 0 0-2-2 2.04 2.04 0 0 0-2 2 11.5 11.5 0 0 0 1.25 5.89 8 8 0 0 0 4.42 3.86 17.2 17.2 0 0 0 12.49-.01 8.4 8.4 0 0 0 4.59-4.01 10.5 10.5 0 0 0 .9-5.66 5.9 5.9 0 0 0-3.87-5.33 22 22 0 0 0-7.2-.87 28 28 0 0 0-7.92.9 6.1 6.1 0 0 0-4.66 5.24 2 2 0 0 0 2 2 2.05 2.05 0 0 0 2-2m45.83-.02c-.7-5.3-6.42-5.86-10.8-6.07a34 34 0 0 0-7.44.47c-2.35.41-4.42 1.64-5.13 4.05-1.14 3.9.2 8.54 3.78 10.63 3.65 2.14 8.58 2.29 12.57 1.14a9 9 0 0 0 5.36-3.59 11 11 0 0 0 1.66-6.63 2.05 2.05 0 0 0-2-2 2 2 0 0 0-2 2c.2 2.44-.68 5.05-2.98 6a13.7 13.7 0 0 1-8.56.45 6 6 0 0 1-3.28-1.89 5.5 5.5 0 0 1-.9-3.42c.03-1.18.14-2.26 1.4-2.65a19 19 0 0 1 5.02-.6 32 32 0 0 1 5.83.36 7 7 0 0 1 2.74.82 1.8 1.8 0 0 1 .73.93 2.07 2.07 0 0 0 2 2c.97 0 2.14-.92 2-2" class="a"/><path d="M89.85 50.9a14 14 0 0 1 1.42-.27l-.53.07a13 13 0 0 1 3.25 0l-.53-.06a13 13 0 0 1 1.78.37 2 2 0 1 0 1.06-3.86 14.6 14.6 0 0 0-7.52-.11 2 2 0 1 0 1.07 3.86m-20.59-4.54a13 13 0 0 0-3.3-.33 2 2 0 0 0-1.41.58 2.2 2.2 0 0 0-.59 1.41 2 2 0 0 0 2 2 11 11 0 0 1 1.82.1l-.53-.07q.47.06.95.17a2 2 0 0 0 1.54-.2 2.2 2.2 0 0 0 .92-1.2 2 2 0 0 0-1.4-2.46m47.56 3.86q.47-.1.95-.17l-.53.07a11 11 0 0 1 1.82-.1 2 2 0 0 0 1.41-.58 2.2 2.2 0 0 0 .59-1.41 2 2 0 0 0-.59-1.42 2 2 0 0 0-1.41-.59 13 13 0 0 0-3.3.34 2.2 2.2 0 0 0-1.2.92 1.5 1.5 0 0 0-.24.74 1.5 1.5 0 0 0 .04.8 2 2 0 0 0 .92 1.2 2.2 2.2 0 0 0 1.54.2m-16.25 18.67q.38.97.68 1.98a2.2 2.2 0 0 0 .92 1.2 2.2 2.2 0 0 0 1.54.2l.48-.2a2 2 0 0 0 .72-.72l.2-.48a2 2 0 0 0 0-1.06q-.3-1-.69-1.98a2.2 2.2 0 0 0-.92-1.19 1.5 1.5 0 0 0-.74-.24 1.5 1.5 0 0 0-.8.04l-.48.2a2 2 0 0 0-.71.72l-.2.47a2 2 0 0 0 0 1.07Zm-16.9-47.02a19 19 0 0 0 7 8.46c2.8 1.9 6.67 2.93 9.4.35a2 2 0 0 0-2.82-2.83l-.2.18.16-.12a2 2 0 0 0-.37.22c-.28.22.38-.1.04 0l-.35.1-.24.05q.5-.06.16-.03h-.37l-.39-.01c-.42 0 .4.09.01 0q-.48-.11-.94-.25l-.41-.16c.47.18.03.01-.07-.04a13 13 0 0 1-1.86-1.1l-.2-.15-.4-.32q-.44-.36-.84-.75a19 19 0 0 1-1.55-1.65c-.06-.06-.44-.55-.17-.2l-.3-.4q-.32-.44-.6-.9a13 13 0 0 1-.82-1.51 2.06 2.06 0 0 0-2.46-1.4 2 2 0 0 0-1.4 2.46Z" class="a"/><path d="M96.25 25.73c3.26 5.58 8.94 9.34 14.92 11.5a2 2 0 0 0 2.46-1.4 2.04 2.04 0 0 0-1.4-2.47 27 27 0 0 1-3.81-1.7 28 28 0 0 1-3.67-2.34l-.1-.08-.5-.4q-.4-.33-.8-.69-.72-.66-1.4-1.39a15 15 0 0 1-2.25-3.05c-1.3-2.22-4.76-.2-3.45 2.02" class="a"/><path d="M109.75 28.88a48 48 0 0 1 5.71 9.58c1.36 3.06 2.6 6.87 1.57 10.09-.8 2.46 3.07 3.5 3.85 1.06 1.35-4.17-.06-8.74-1.72-12.6a50 50 0 0 0-6.58-10.96 2 2 0 0 0-2.83 0 2.05 2.05 0 0 0 0 2.83m-31.3-6.4c-9 5.53-13.8 16.47-15.1 26.6a2 2 0 0 0 2 2 2.05 2.05 0 0 0 2-2c1.11-8.6 5.44-18.43 13.12-23.15 2.19-1.34.18-4.8-2.02-3.45" class="a"/><path d="M78.55 5.62C71.4 4.59 65.3 9.07 62 15.15c-3.37 6.2-4.36 13.25-6.2 19.98-.84 3.05-1.83 6.06-2.82 9.07a62 62 0 0 0-2.32 7.98 21.6 21.6 0 0 0 2.8 14.26 19.2 19.2 0 0 0 14.29 10.02 2 2 0 0 0 2-2 2.05 2.05 0 0 0-2-2c-8.37-1.07-14.27-10.8-13.3-18.8A40 40 0 0 1 56.26 47c.83-2.57 1.7-5.12 2.49-7.7 1.85-6.08 2.8-12.44 5.02-18.42 2.1-5.62 6.77-12.41 13.72-11.42a2.07 2.07 0 0 0 2.46-1.4 2 2 0 0 0-1.4-2.46Zm5.56.75c2.82-1.93 6.42-2.33 9.76-2.37a29 29 0 0 1 10.84 1.71c6.07 2.36 10.37 7.47 13.15 13.2a88 88 0 0 1 3.52 9.35q2.12 6.09 4.41 12.12c2.13 5.58 4.97 12.62 2.05 18.46a14 14 0 0 1-2.71 3.65c-1.3 1.27-3.01 2.08-4.29 3.35a13 13 0 0 0-2.75 5.26 4 4 0 0 1-.55 1.38c-.68.6-2.1.7-2.93.88-2.52.51-1.45 4.37 1.07 3.85 1.77-.36 3.77-.8 5-2.24 1.14-1.36 1.31-3.39 2.1-4.95.81-1.62 2.36-2.33 3.73-3.43a20 20 0 0 0 3.52-3.7c4.25-5.8 3.24-13.28 1.06-19.68-1.53-4.48-3.33-8.87-4.92-13.33-1.33-3.76-2.5-7.6-4.08-11.27-2.81-6.53-7.4-12.49-13.87-15.69A31 31 0 0 0 94.83 0c-4.28-.05-9.1.42-12.74 2.91-2.1 1.45-.1 4.92 2.02 3.46" class="a"/><path d="M44.45 112.4a83 83 0 0 1-2.77-9.05 44 44 0 0 0-2.99-9.5c-1.28-2.31-3.73-2.64-5.95-1.7l1.49 5.04-.9 1.16a7.4 7.4 0 0 0-3.2-2.1 6 6 0 0 0-.72-.15h-.07c-3.64-.16-6.82 2.53-9.2 5.03-2.53 2.7-3.77 5.63-3.27 9.06.92 6.3 5.55 13.57 7.84 18.56.8 1.5 1.43 4.02 2.71 4.15a35 35 0 0 0 6.51-.06c2.32-.2 4.7-.54 7.09-.87 1.46-.2 2.18-2.49 2.3-3.9l.26-2.71c.01-2.89 2.14-8.39.87-12.97" class="b"/><path d="M33.27 94.07c1.14-.44 2.5-.73 3.4.32a7 7 0 0 1 1.2 2.65c1.24 3.61 1.88 7.4 3 11.04.74 2.4 1.92 4.72 1.97 7.26.08 3.4-1.04 6.65-1.26 10.02a11 11 0 0 1-.7 4.24 2 2 0 0 1-.36.5c.3-.3.21-.04-.03-.06a4 4 0 0 0-.73.1q-1.8.26-3.6.47a50 50 0 0 1-6.54.41 11 11 0 0 1-1.55-.06c-.55-.1.01.13-.07.05a7 7 0 0 1-1.01-2.08c-1.37-3.16-3.1-6.15-4.62-9.24-1.58-3.2-3.41-6.85-3.6-10.48-.2-3.96 2.8-7.29 5.85-9.44 1.4-.98 3.48-2.16 5.24-1.53a5 5 0 0 1 1.7 1.2c.2.18.42.42.59.58.26.23-.04.59.3.2-1.72 1.92 1.1 4.75 2.83 2.84 3.29-3.67-1.8-8.36-5.4-8.9-4.67-.7-9.23 3.13-11.97 6.5a13 13 0 0 0-2.94 5.96 15 15 0 0 0 .59 6.88c1.3 4.57 3.64 8.79 5.8 12.99.93 1.78 1.75 3.58 2.59 5.4a6 6 0 0 0 1.44 2.15 5 5 0 0 0 3.34.96 48 48 0 0 0 8.16-.47c2.24-.28 5.26-.11 6.82-2 1.34-1.62 1.55-3.68 1.74-5.7.18-1.91.43-3.75.78-5.65a25 25 0 0 0 .56-6.84 18 18 0 0 0-1.12-4.53c-1.64-4.57-2.4-9.39-4-13.97a10.3 10.3 0 0 0-2.66-4.73 6.7 6.7 0 0 0-6.8-.9 2.06 2.06 0 0 0-1.4 2.46 2 2 0 0 0 2.46 1.4" class="a"/><path d="M27.17 105.16q1.92-.62 3.86-1.12l1.8-.4c.37-.08-.23-.01.03 0h.42c.07 0 .63.06.17-.02l.42.1.4.11c-.25-.08-.18-.07.01.04s.24.16.04-.01l.28.25a1 1 0 0 1 .25.28c-.2-.44.03.07.08.16l.22.4c.13.25-.1-.39.01.08l.1.4c.07.23 0-.39 0 0l-.01.35c0 .24.12-.4 0-.05l-.14.4c-.03.08-.11.47-.04.13.05-.25.02-.06-.05.04.07-.1.6-.54.33-.37a2 2 0 0 0 2.01 3.45 4.6 4.6 0 0 0 1.87-4.26 6.2 6.2 0 0 0-2.93-4.7 7.3 7.3 0 0 0-5.35-.46c-1.63.36-3.24.84-4.84 1.34a2 2 0 1 0 1.06 3.86m-.25-18.65L29.9 96.6a2 2 0 0 0 3.86-1.06l-2.98-10.08a2 2 0 0 0-3.86 1.06m-8.5 3.18 2.42 7.63a2 2 0 1 0 3.85-1.06l-2.42-7.63a2 2 0 1 0-3.86 1.06" class="a"/><path d="M28.64 111.15q1.95-.54 3.9-1.05l1.81-.47.43-.1c.5-.11-.32-.03.16-.01.06 0 .53.03.24 0s.23.07.3.08c.16.05.33.14.08.02.05.02.57.3.13.01.11.07.19.2.3.28.15.12-.13-.22.06.08l.32.55c.15.27-.15-.47-.07-.14l.09.34c-.08-.03-.03-.5-.03-.05 0 .23.04.26.02.02l-.08.35.1-.24-.1.17q-.11.19.11-.13c.01.05-.22.21-.25.24-.16.18.33-.2.02 0l-.63.37a2 2 0 0 0-.72 2.73 2.05 2.05 0 0 0 2.74.72 4.7 4.7 0 0 0 2.8-4.16 5.4 5.4 0 0 0-2.44-4.4 6 6 0 0 0-2.82-.84 10 10 0 0 0-2.67.48q-2.43.63-4.86 1.3a2 2 0 0 0 1.06 3.85" class="a"/><path d="M30.85 116.69q1.6-.4 3.2-.71l.5-.1.2-.04c.23-.04-.18.02-.18.02.28.02.58-.05.86-.05l.38.02c.22 0-.24-.03-.23-.03l.17.04.17.04c.3.08-.14-.04-.17-.07l.14.08c.18.07-.27-.26-.13-.11.06.06.31.35.12.09s.03.06.07.13.2.43.08.12.02.1.05.19l.09.37c.05.17-.03-.6-.05-.23 0 .16.04-.33.05-.32l-.03.13q-.03.17-.09.34l-.05.14c-.05.2.1-.29.1-.25.01.06-.11.2-.14.26-.14.28.34-.34.07-.1l.25-.2-.12.07-.8.4c-.35.16.48-.2.12-.05l-.28.1-.63.21q-.91.29-1.86.5a2 2 0 0 0-1.4 2.45 2.04 2.04 0 0 0 2.46 1.4 20 20 0 0 0 3.54-1.13 8 8 0 0 0 .96-.48 4 4 0 0 0 1.56-2.07 4.5 4.5 0 0 0-.59-4.11 4.3 4.3 0 0 0-2.32-1.73 6 6 0 0 0-2.3-.15 37 37 0 0 0-4.84.97 2 2 0 1 0 1.07 3.85Z" class="a"/><path d="M18.4 71.26a137 137 0 0 1-13.65 4.86c-2.04.48-2.86 1.68-2.77 3.44A19 19 0 0 0 3.6 86.5a22 22 0 0 0 3.9 6.64c1.2 1.24 3.05 2.16 4.66 1.31 2.54-1.32 7.73-3.74 13.38-5.99a159 159 0 0 1 13.84-4.86c1.76-.5 2.43-2.43 2.4-4.14a22 22 0 0 0-1.92-7.43 20 20 0 0 0-3.78-6.07c-1.18-1.33-2.62-1.62-4.44-.57a136 136 0 0 1-13.23 5.87" class="c"/><path d="M17.87 69.33a145 145 0 0 1-12.4 4.52c-1.58.47-3.18.79-4.32 2.1C-.07 77.37-.1 79.15.1 80.93A26 26 0 0 0 3.83 91.5c2.15 3.55 5.5 6.6 9.77 4.45a166 166 0 0 1 23.74-9.65c1.55-.5 3.34-.78 4.57-1.92a6.7 6.7 0 0 0 1.87-5.08c-.1-3.83-1.73-7.69-3.54-11a15 15 0 0 0-3.48-4.42c-1.96-1.56-4.22-1.26-6.3-.12a118 118 0 0 1-12.58 5.57 2.06 2.06 0 0 0-1.4 2.46 2 2 0 0 0 2.46 1.4c3.65-1.46 7.29-2.96 10.85-4.63 1.09-.5 2.14-1.2 3.24-1.65 1.24-.52 2.03.84 2.7 1.72a23 23 0 0 1 3.63 8.14c.31 1.25.72 2.83.2 4.08-.4.98-1.52 1.04-2.43 1.33a178 178 0 0 0-21.38 8.31q-1.99.9-3.93 1.89c-1.33.67-2.27.1-3.22-1a22 22 0 0 1-4.12-8.54c-.29-1.03-.87-3.01-.44-4.03.35-.84 1.94-.94 2.76-1.2a155 155 0 0 0 12.14-4.43 2.06 2.06 0 0 0 1.4-2.46 2 2 0 0 0-2.47-1.4" class="a"/><path d="M37.68 84.39c-1.38-6.14-4.14-11.65-6.9-17.25a2 2 0 0 0-2.73-.72 2.04 2.04 0 0 0-.72 2.74c1.32 2.67 2.7 5.33 3.87 8.07a47 47 0 0 1 2.63 8.22 2 2 0 1 0 3.85-1.06m-18.8 6.94a47 47 0 0 1-3.97-7.68c-1.1-2.77-2-5.62-2.97-8.44a2.05 2.05 0 0 0-2.46-1.4 2 2 0 0 0-1.4 2.47c2.02 5.9 3.98 11.75 7.34 17.07 1.37 2.17 4.83.17 3.45-2.02Z" class="a"/></svg>
