<svg viewBox="0 0 12 12" fill="none" xmlns="http://www.w3.org/2000/svg"><mask id="path-1-inside-1_22313_22411" fill="white"><path d="M6 11.375C5.795 11.375 5.625 11.205 5.625 11V9.875H4.5C4.295 9.875 4.125 9.705 4.125 9.5C4.125 9.295 4.295 9.125 4.5 9.125H5.625V7.35504C3.94 7.17004 2.625 5.735 2.625 4C2.625 2.14 4.14 0.625 6 0.625C7.86 0.625 9.375 2.14 9.375 4C9.375 5.735 8.06 7.16504 6.375 7.35504V9.125H7.5C7.705 9.125 7.875 9.295 7.875 9.5C7.875 9.705 7.705 9.875 7.5 9.875H6.375V11C6.375 11.205 6.205 11.375 6 11.375ZM6 1.375C4.55 1.375 3.375 2.55 3.375 4C3.375 5.45 4.55 6.625 6 6.625C7.45 6.625 8.625 5.45 8.625 4C8.625 2.55 7.45 1.375 6 1.375Z"/></mask><path d="M6 11.375C5.795 11.375 5.625 11.205 5.625 11V9.875H4.5C4.295 9.875 4.125 9.705 4.125 9.5C4.125 9.295 4.295 9.125 4.5 9.125H5.625V7.35504C3.94 7.17004 2.625 5.735 2.625 4C2.625 2.14 4.14 0.625 6 0.625C7.86 0.625 9.375 2.14 9.375 4C9.375 5.735 8.06 7.16504 6.375 7.35504V9.125H7.5C7.705 9.125 7.875 9.295 7.875 9.5C7.875 9.705 7.705 9.875 7.5 9.875H6.375V11C6.375 11.205 6.205 11.375 6 11.375ZM6 1.375C4.55 1.375 3.375 2.55 3.375 4C3.375 5.45 4.55 6.625 6 6.625C7.45 6.625 8.625 5.45 8.625 4C8.625 2.55 7.45 1.375 6 1.375Z" fill="#161616"/><path d="M5.625 9.875H7.125V8.375H5.625V9.875ZM5.625 9.125V10.625H7.125V9.125H5.625ZM5.625 7.35504H7.125V6.01072L5.7887 5.864L5.625 7.35504ZM6.375 7.35504L6.20693 5.86449L4.875 6.01468V7.35504H6.375ZM6.375 9.125H4.875V10.625H6.375V9.125ZM6.375 9.875V8.375H4.875V9.875H6.375ZM6 11.375V9.875C6.62343 9.875 7.125 10.3766 7.125 11H5.625H4.125C4.125 12.0334 4.96657 12.875 6 12.875V11.375ZM5.625 11H7.125V9.875H5.625H4.125V11H5.625ZM5.625 9.875V8.375H4.5V9.875V11.375H5.625V9.875ZM4.5 9.875V8.375C5.12343 8.375 5.625 8.87657 5.625 9.5H4.125H2.625C2.625 10.5334 3.46657 11.375 4.5 11.375V9.875ZM4.125 9.5H5.625C5.625 10.1234 5.12343 10.625 4.5 10.625V9.125V7.625C3.46657 7.625 2.625 8.46657 2.625 9.5H4.125ZM4.5 9.125V10.625H5.625V9.125V7.625H4.5V9.125ZM5.625 9.125H7.125V7.35504H5.625H4.125V9.125H5.625ZM5.625 7.35504L5.7887 5.864C4.8574 5.76175 4.125 4.9631 4.125 4H2.625H1.125C1.125 6.5069 3.0226 8.57833 5.4613 8.84608L5.625 7.35504ZM2.625 4H4.125C4.125 2.96843 4.96843 2.125 6 2.125V0.625V-0.875C3.31157 -0.875 1.125 1.31157 1.125 4H2.625ZM6 0.625V2.125C7.03157 2.125 7.875 2.96843 7.875 4H9.375H10.875C10.875 1.31157 8.68843 -0.875 6 -0.875V0.625ZM9.375 4H7.875C7.875 4.95949 7.14545 5.75866 6.20693 5.86449L6.375 7.35504L6.54307 8.8456C8.97455 8.57142 10.875 6.51051 10.875 4H9.375ZM6.375 7.35504H4.875V9.125H6.375H7.875V7.35504H6.375ZM6.375 9.125V10.625H7.5V9.125V7.625H6.375V9.125ZM7.5 9.125V10.625C6.87657 10.625 6.375 10.1234 6.375 9.5H7.875H9.375C9.375 8.46657 8.53343 7.625 7.5 7.625V9.125ZM7.875 9.5H6.375C6.375 8.87657 6.87657 8.375 7.5 8.375V9.875V11.375C8.53343 11.375 9.375 10.5334 9.375 9.5H7.875ZM7.5 9.875V8.375H6.375V9.875V11.375H7.5V9.875ZM6.375 9.875H4.875V11H6.375H7.875V9.875H6.375ZM6.375 11H4.875C4.875 10.3766 5.37657 9.875 6 9.875V11.375V12.875C7.03343 12.875 7.875 12.0334 7.875 11H6.375ZM6 1.375V-0.125C3.72157 -0.125 1.875 1.72157 1.875 4H3.375H4.875C4.875 3.37843 5.37843 2.875 6 2.875V1.375ZM3.375 4H1.875C1.875 6.27843 3.72157 8.125 6 8.125V6.625V5.125C5.37843 5.125 4.875 4.62157 4.875 4H3.375ZM6 6.625V8.125C8.27843 8.125 10.125 6.27843 10.125 4H8.625H7.125C7.125 4.62157 6.62157 5.125 6 5.125V6.625ZM8.625 4H10.125C10.125 1.72157 8.27843 -0.125 6 -0.125V1.375V2.875C6.62157 2.875 7.125 3.37843 7.125 4H8.625Z" fill="#EE46BC" mask="url(#path-1-inside-1_22313_22411)"/></svg>
