<svg viewBox="0 0 1024 1024" xmlns="http://www.w3.org/2000/svg"><path d="M362.666667 640a21.333333 21.333333 0 0 1-21.333334 21.333333h-21.333333a21.333333 21.333333 0 0 1-21.333333-21.333333v-64a21.333333 21.333333 0 0 1 21.333333-21.333333h21.333333a21.333333 21.333333 0 0 1 21.333334 21.333333v64zM768 640a21.333333 21.333333 0 0 1-21.333333 21.333333h-21.333334a21.333333 21.333333 0 0 1-21.333333-21.333333v-64a21.333333 21.333333 0 0 1 21.333333-21.333333h21.333334a21.333333 21.333333 0 0 1 21.333333 21.333333v64z" fill="#455A64" /><path d="M640 277.333333H426.666667c-77.610667 0-106.666667 159.424-106.666667 192h426.666667c0-29.824-19.669333-192-106.666667-192z" fill="#AB47BC" /><path d="M768 469.333333a21.333333 21.333333 0 0 0-21.333333-21.333333H320a21.333333 21.333333 0 0 0-21.333333 21.333333v128a21.333333 21.333333 0 0 0 21.333333 21.333334h426.666667a21.333333 21.333333 0 0 0 21.333333-21.333334v-128z" fill="#AB47BC" /><path d="M810.666667 469.333333a21.333333 21.333333 0 0 1-21.333334 21.333334H277.333333a21.333333 21.333333 0 0 1-21.333333-21.333334v-21.333333a21.333333 21.333333 0 0 1 21.333333-21.333333h512a21.333333 21.333333 0 0 1 21.333334 21.333333v21.333333z" fill="#AB47BC" /><path d="M874.666667 533.333333v74.666667a53.333333 53.333333 0 0 1-53.333334 53.333333h-554.666666a53.333333 53.333333 0 0 1-53.333334-53.333333V106.666667H106.666667v544a117.333333 117.333333 0 0 0 117.333333 117.333333h576a117.333333 117.333333 0 0 0 117.333333-117.333333V533.333333h-42.666666z" fill="#3F51B5" /><path d="M938.666667 725.333333c-64 0-85.333333-42.666667-85.333334-42.666666s-21.333333 42.666667-85.333333 42.666666-85.333333-42.666667-85.333333-42.666666-21.333333 42.666667-85.333334 42.666666-85.333333-42.666667-85.333333-42.666666-21.333333 42.666667-85.333333 42.666666-85.333333-42.666667-85.333334-42.666666-21.333333 42.666667-85.333333 42.666666-85.333333-42.666667-85.333333-42.666666-21.333333 42.666667-85.333334 42.666666v170.666667h853.333334v-170.666667z" fill="#90CAF9" /><path d="M938.666667 810.666667c-64 0-85.333333-42.666667-85.333334-42.666667s-21.333333 42.666667-85.333333 42.666667-85.333333-42.666667-85.333333-42.666667-21.333333 42.666667-85.333334 42.666667-85.333333-42.666667-85.333333-42.666667-21.333333 42.666667-85.333333 42.666667-85.333333-42.666667-85.333334-42.666667-21.333333 42.666667-85.333333 42.666667-85.333333-42.666667-85.333333-42.666667-21.333333 42.666667-85.333334 42.666667v85.333333h853.333334v-85.333333z" fill="#2196F3" /><path d="M740.586667 563.84a12.16 12.16 0 0 1-12.202667 12.16H338.282667a12.16 12.16 0 0 1-12.202667-12.16v-36.586667c0-6.741333 5.44-12.202667 12.202667-12.202666h390.08c6.741333 0 12.202667 5.461333 12.202666 12.202666v36.586667z" fill="#212121" /><path d="M356.565333 545.514667m-18.282666 0a18.282667 18.282667 0 1 0 36.565333 0 18.282667 18.282667 0 1 0-36.565333 0Z" fill="#FFEB3B" /><path d="M710.08 545.514667m-18.282667 0a18.282667 18.282667 0 1 0 36.565334 0 18.282667 18.282667 0 1 0-36.565334 0Z" fill="#FFEB3B" /><path d="M277.333333 256l-64 64H106.666667V106.666667h170.666666z" fill="#283593" /><path d="M106.666667 106.666667h170.666666v149.333333H106.666667z" fill="#5C6BC0" /><path d="M699.114667 425.365333C690.090667 377.514667 668.992 320 640 320H426.666667c-22.869333 0-46.272 58.602667-57.344 105.365333h329.792z" fill="#E3F2FD" /></svg>
