<svg viewBox="0 0 20 20" fill="none" xmlns="http://www.w3.org/2000/svg"><path fill-rule="evenodd" clip-rule="evenodd" d="M9.63281 1.04185C10.1353 1.04144 10.532 1.04138 10.9043 1.17271C10.9813 1.19988 11.0572 1.23124 11.1309 1.26646C11.487 1.43687 11.768 1.71742 12.123 2.0731C12.1432 2.09332 12.1639 2.11393 12.1846 2.13463L16.1309 6.08189C16.1549 6.10588 16.1787 6.12978 16.2021 6.15318C16.6142 6.56443 16.9407 6.88966 17.1162 7.31334C17.2917 7.73705 17.2916 8.19796 17.291 8.78013V11.7137C17.291 13.2449 17.2907 14.4578 17.1631 15.4071C17.0317 16.3841 16.7545 17.1751 16.1309 17.7987C15.5073 18.4222 14.7171 18.6995 13.7402 18.8309C12.7909 18.9586 11.5774 18.9579 10.0459 18.9579H9.95215C8.42068 18.9579 7.20716 18.9586 6.25781 18.8309C5.28099 18.6995 4.49074 18.4222 3.86719 17.7987C3.24355 17.1751 2.96632 16.3841 2.83496 15.4071C2.70739 14.4578 2.70702 13.2449 2.70703 11.7137V7.8397C2.70702 6.52171 2.70718 5.47705 2.80371 4.65025C2.90281 3.80184 3.11084 3.10237 3.58398 2.51549C3.76112 2.29578 3.96194 2.09595 4.18164 1.91881C4.76861 1.44561 5.46783 1.23761 6.31641 1.13853C7.1431 1.04201 8.18711 1.04184 9.50488 1.04185H9.63281ZM9.5459 2.29185C8.1787 2.29185 7.2068 2.29266 6.46094 2.37974C5.72888 2.46526 5.29456 2.62646 4.96582 2.89146C4.81563 3.01255 4.67874 3.1495 4.55762 3.29967C4.29251 3.62848 4.13141 4.06337 4.0459 4.79576C3.95882 5.54159 3.95703 6.51264 3.95703 7.87974V11.6669C3.95703 13.2558 3.95908 14.3847 4.07422 15.2411C4.18694 16.0794 4.39832 16.5622 4.75098 16.9149C5.10364 17.2675 5.58646 17.4789 6.4248 17.5917C7.28119 17.7068 8.41003 17.7079 9.99902 17.7079C11.588 17.7079 12.7169 17.7068 13.5732 17.5917C14.4116 17.4789 14.8944 17.2675 15.2471 16.9149C15.5997 16.5622 15.8111 16.0794 15.9238 15.2411C16.039 14.3847 16.041 13.2558 16.041 11.6669V8.88072C16.041 8.51582 16.0376 8.28492 16.0264 8.12486H15.7871C14.6475 8.12488 13.7283 8.12531 13.0059 8.02818C12.2559 7.92735 11.6246 7.71124 11.123 7.20982C10.6214 6.70822 10.4055 6.07612 10.3047 5.32603C10.2076 4.60362 10.207 3.6852 10.207 2.54576V2.3026C10.0681 2.29376 9.8671 2.29185 9.5459 2.29185ZM13.332 13.5419C13.6772 13.5419 13.957 13.8217 13.957 14.1669C13.9569 14.5119 13.6771 14.7919 13.332 14.7919H6.66602C6.32093 14.7919 6.04116 14.5119 6.04102 14.1669C6.04102 13.8217 6.32084 13.5419 6.66602 13.5419H13.332ZM9.99902 10.2079C10.3441 10.2079 10.6238 10.4879 10.624 10.8329C10.624 11.178 10.3442 11.4579 9.99902 11.4579H6.66602C6.32084 11.4579 6.04102 11.178 6.04102 10.8329C6.04123 10.4879 6.32097 10.2079 6.66602 10.2079H9.99902ZM11.458 3.17662C11.4611 4.02224 11.4753 4.65666 11.543 5.16002C11.6252 5.77146 11.7762 6.0954 12.0068 6.32603C12.2375 6.55653 12.5616 6.70674 13.1729 6.78892C13.6762 6.85656 14.3107 6.87083 15.1562 6.87388L11.458 3.17662Z" fill="currentColor"/></svg>
