<svg xmlns="http://www.w3.org/2000/svg" viewBox="0 0 24 24"><path d="M3 23h18V6.7L15.29 1H3zM15 2h.2L20 6.8V7h-5zM4 2h10v6h6v14H4zm13.32 11.82h-.16a12 12 0 0 0-2.47.33 24 24 0 0 1-2.35-2.72 12 12 0 0 0 .7-4.03 1.4 1.4 0 0 0-.93-1.24 1 1 0 0 0-.46-.08 1.5 1.5 0 0 0-1.01.4c-.84.75-.75 2.31.22 4.19q.07.12.13.27a2 2 0 0 0 .33.56 44 44 0 0 1-1.22 3.19l-.25.69a9 9 0 0 0-1.36.6c-1.67.97-2.68 1.86-2.17 3.09a1.2 1.2 0 0 0 .88.71l.23.02a2.3 2.3 0 0 0 1.62-.8 11 11 0 0 0 1.47-2.83c1.07-.37 2.48-.74 3.78-1.04A7.5 7.5 0 0 0 17.18 17a2 2 0 0 0 .43.05 1.4 1.4 0 0 0 1.08-.5 1.7 1.7 0 0 0 .14-1.7 1.7 1.7 0 0 0-1.5-1.02m-7.88 2.65C9.04 17.41 8.38 19 7.6 19l-.16-.02a.6.6 0 0 1-.37-.58c0-.29.2-1.03 1.97-1.82l.32-.15.13-.06zm1.84-9.28a.6.6 0 0 1 .37-.15l.14.03a.6.6 0 0 1 .36.54 8 8 0 0 1-.47 2.7l-.01-.01c-.8-1.53-.8-2.74-.4-3.1zm-.42 8.02 1.17-2.79a69 69 0 0 0 1.7 1.94c-.94.2-2.35.68-2.88.85zm7.09.67a.6.6 0 0 1-.48.22 3.2 3.2 0 0 1-1.94-1.15l.17-.03a8 8 0 0 1 1.3-.17.9.9 0 0 1 .96.52.7.7 0 0 1-.01.62"/></svg>
