<svg viewBox="0 0 16 16" fill="none" xmlns="http://www.w3.org/2000/svg"><mask id="path-1-inside-1_23450_76035" fill="currentColor"><path fill-rule="evenodd" clip-rule="evenodd" d="M7.70606 0.833045C8.10806 0.832711 8.42577 0.8324 8.72363 0.937537C8.78513 0.959251 8.84546 0.984592 8.9043 1.01273C9.18931 1.14911 9.41411 1.37449 9.69824 1.65922C9.71431 1.67532 9.7306 1.69157 9.74707 1.70805L12.9053 4.86722C12.9244 4.88634 12.9432 4.90522 12.9619 4.92387C13.2914 5.25289 13.552 5.51374 13.6924 5.85258C13.8327 6.19156 13.8325 6.56053 13.832 7.0264V9.33695C13.832 9.61308 13.6082 9.83695 13.332 9.83695C13.056 9.83677 12.832 9.61297 12.832 9.33695V7.10746C12.832 6.81528 12.8303 6.63014 12.8213 6.50199H12.6289C11.7173 6.502 10.9823 6.50258 10.4043 6.42484C9.80425 6.34412 9.2987 6.17098 8.89746 5.76957C8.49641 5.36823 8.32383 4.86281 8.24316 4.26273C8.16547 3.68457 8.166 2.94921 8.16602 2.03715V1.84183C8.05487 1.83475 7.89379 1.83305 7.63672 1.83305C6.54296 1.83305 5.76562 1.83464 5.16895 1.90433C4.58317 1.97276 4.23568 2.1014 3.97266 2.31351C3.8524 2.41052 3.74248 2.52034 3.64551 2.64066C3.43347 2.90385 3.30473 3.25185 3.23633 3.83793C3.16669 4.43479 3.16602 5.21186 3.16602 6.3057V9.33695C3.16602 10.6085 3.16672 11.5119 3.25879 12.1973C3.34897 12.8684 3.5186 13.2558 3.80078 13.5381C4.26474 14.0019 4.98564 14.1426 6.67285 14.167C6.94891 14.171 7.16993 14.3978 7.16602 14.6739C7.16202 14.95 6.93432 15.171 6.6582 15.167C5.04 15.1436 3.88623 15.038 3.09277 14.2442C2.59424 13.7452 2.37264 13.1127 2.26758 12.3311C2.16547 11.5713 2.16601 10.5998 2.16602 9.37406V6.27445C2.16601 5.21958 2.16594 4.38342 2.24316 3.72172C2.32243 3.04258 2.48862 2.48247 2.86719 2.01273C3.00885 1.83699 3.16904 1.67691 3.34473 1.53519C3.81427 1.15648 4.37391 0.990484 5.05273 0.91117C5.71418 0.833908 6.55011 0.833037 7.60449 0.833045H7.70606ZM12.5859 12.1729C12.8017 12.138 13.0155 12.2479 13.1133 12.4434L13.7793 13.7764C13.9028 14.0234 13.8027 14.3238 13.5557 14.4473C13.3087 14.5705 13.0082 14.4705 12.8848 14.2237L12.7188 13.8907C12.204 14.6613 11.3187 15.167 10.332 15.167C9.36899 15.1669 8.51792 14.6858 8.00684 13.9532C7.84895 13.7268 7.90473 13.4149 8.13086 13.2569C8.35735 13.0989 8.66917 13.1544 8.82715 13.3809C9.15922 13.857 9.70964 14.1669 10.332 14.167C11.2614 14.167 12.0448 13.4775 12.1709 12.5957C12.2019 12.3793 12.3701 12.2079 12.5859 12.1729ZM10.332 9.50004C11.2952 9.50004 12.1461 9.98124 12.6572 10.7139C12.8152 10.9404 12.7597 11.2522 12.5332 11.4102C12.3068 11.5679 11.9959 11.5123 11.8379 11.2862C11.5057 10.81 10.9546 10.5 10.332 10.5C9.40298 10.5002 8.62047 11.1889 8.49414 12.0703C8.46317 12.2868 8.29498 12.4582 8.0791 12.4932C7.86323 12.5282 7.64956 12.4193 7.55176 12.2237L6.88477 10.8907C6.76135 10.6438 6.86176 10.3434 7.1084 10.2198C7.35539 10.0963 7.6558 10.1964 7.7793 10.4434L7.94629 10.7764C8.46099 10.0057 9.34544 9.50018 10.332 9.50004ZM9.16602 2.54203C9.16846 3.21857 9.18028 3.72614 9.23438 4.12894C9.30015 4.6184 9.42092 4.87791 9.60547 5.06254C9.78998 5.24706 10.0491 5.36786 10.5381 5.43363C10.9408 5.48777 11.4484 5.49857 12.125 5.50101L9.16602 2.54203Z"/></mask><path fill-rule="evenodd" clip-rule="evenodd" d="M7.70606 0.833045C8.10806 0.832711 8.42577 0.8324 8.72363 0.937537C8.78513 0.959251 8.84546 0.984592 8.9043 1.01273C9.18931 1.14911 9.41411 1.37449 9.69824 1.65922C9.71431 1.67532 9.7306 1.69157 9.74707 1.70805L12.9053 4.86722C12.9244 4.88634 12.9432 4.90522 12.9619 4.92387C13.2914 5.25289 13.552 5.51374 13.6924 5.85258C13.8327 6.19156 13.8325 6.56053 13.832 7.0264V9.33695C13.832 9.61308 13.6082 9.83695 13.332 9.83695C13.056 9.83677 12.832 9.61297 12.832 9.33695V7.10746C12.832 6.81528 12.8303 6.63014 12.8213 6.50199H12.6289C11.7173 6.502 10.9823 6.50258 10.4043 6.42484C9.80425 6.34412 9.2987 6.17098 8.89746 5.76957C8.49641 5.36823 8.32383 4.86281 8.24316 4.26273C8.16547 3.68457 8.166 2.94921 8.16602 2.03715V1.84183C8.05487 1.83475 7.89379 1.83305 7.63672 1.83305C6.54296 1.83305 5.76562 1.83464 5.16895 1.90433C4.58317 1.97276 4.23568 2.1014 3.97266 2.31351C3.8524 2.41052 3.74248 2.52034 3.64551 2.64066C3.43347 2.90385 3.30473 3.25185 3.23633 3.83793C3.16669 4.43479 3.16602 5.21186 3.16602 6.3057V9.33695C3.16602 10.6085 3.16672 11.5119 3.25879 12.1973C3.34897 12.8684 3.5186 13.2558 3.80078 13.5381C4.26474 14.0019 4.98564 14.1426 6.67285 14.167C6.94891 14.171 7.16993 14.3978 7.16602 14.6739C7.16202 14.95 6.93432 15.171 6.6582 15.167C5.04 15.1436 3.88623 15.038 3.09277 14.2442C2.59424 13.7452 2.37264 13.1127 2.26758 12.3311C2.16547 11.5713 2.16601 10.5998 2.16602 9.37406V6.27445C2.16601 5.21958 2.16594 4.38342 2.24316 3.72172C2.32243 3.04258 2.48862 2.48247 2.86719 2.01273C3.00885 1.83699 3.16904 1.67691 3.34473 1.53519C3.81427 1.15648 4.37391 0.990484 5.05273 0.91117C5.71418 0.833908 6.55011 0.833037 7.60449 0.833045H7.70606ZM12.5859 12.1729C12.8017 12.138 13.0155 12.2479 13.1133 12.4434L13.7793 13.7764C13.9028 14.0234 13.8027 14.3238 13.5557 14.4473C13.3087 14.5705 13.0082 14.4705 12.8848 14.2237L12.7188 13.8907C12.204 14.6613 11.3187 15.167 10.332 15.167C9.36899 15.1669 8.51792 14.6858 8.00684 13.9532C7.84895 13.7268 7.90473 13.4149 8.13086 13.2569C8.35735 13.0989 8.66917 13.1544 8.82715 13.3809C9.15922 13.857 9.70964 14.1669 10.332 14.167C11.2614 14.167 12.0448 13.4775 12.1709 12.5957C12.2019 12.3793 12.3701 12.2079 12.5859 12.1729ZM10.332 9.50004C11.2952 9.50004 12.1461 9.98124 12.6572 10.7139C12.8152 10.9404 12.7597 11.2522 12.5332 11.4102C12.3068 11.5679 11.9959 11.5123 11.8379 11.2862C11.5057 10.81 10.9546 10.5 10.332 10.5C9.40298 10.5002 8.62047 11.1889 8.49414 12.0703C8.46317 12.2868 8.29498 12.4582 8.0791 12.4932C7.86323 12.5282 7.64956 12.4193 7.55176 12.2237L6.88477 10.8907C6.76135 10.6438 6.86176 10.3434 7.1084 10.2198C7.35539 10.0963 7.6558 10.1964 7.7793 10.4434L7.94629 10.7764C8.46099 10.0057 9.34544 9.50018 10.332 9.50004ZM9.16602 2.54203C9.16846 3.21857 9.18028 3.72614 9.23438 4.12894C9.30015 4.6184 9.42092 4.87791 9.60547 5.06254C9.78998 5.24706 10.0491 5.36786 10.5381 5.43363C10.9408 5.48777 11.4484 5.49857 12.125 5.50101L9.16602 2.54203Z" fill="currentColor"/><path d="M7.70606 0.833045V2.33305L7.7073 2.33304L7.70606 0.833045ZM8.72363 0.937537L9.22304 -0.476887L9.22289 -0.476937L8.72363 0.937537ZM8.9043 1.01273L9.55173 -0.340348L9.55152 -0.340452L8.9043 1.01273ZM9.69824 1.65922L10.76 0.59968L10.76 0.59967L9.69824 1.65922ZM9.74707 1.70805L8.68617 2.76847L8.68625 2.76854L9.74707 1.70805ZM12.9053 4.86722L13.9662 3.8068L13.9661 3.80673L12.9053 4.86722ZM12.9619 4.92387L11.902 5.98531L11.902 5.98531L12.9619 4.92387ZM13.6924 5.85258L15.0783 5.27876L15.0781 5.27829L13.6924 5.85258ZM13.832 7.0264L12.332 7.02497V7.0264H13.832ZM13.832 9.33695L15.332 9.33703V9.33695H13.832ZM13.332 9.83695L13.3311 11.337H13.332V9.83695ZM12.832 9.33695H11.332L11.332 9.33703L12.832 9.33695ZM12.8213 6.50199L14.3176 6.3972C14.2626 5.61136 13.6091 5.00199 12.8213 5.00199V6.50199ZM12.6289 6.50199V5.00199L12.6289 5.00199L12.6289 6.50199ZM10.4043 6.42484L10.2043 7.91145L10.2043 7.91145L10.4043 6.42484ZM8.89746 5.76957L7.83643 6.82985L7.83657 6.83L8.89746 5.76957ZM8.24316 4.26273L6.75653 4.46252L6.75654 4.46258L8.24316 4.26273ZM8.16602 2.03715L9.66602 2.03717V2.03715H8.16602ZM8.16602 1.84183H9.66602C9.66602 1.05047 9.05123 0.395231 8.26146 0.344874L8.16602 1.84183ZM7.63672 1.83305L7.63673 0.333045H7.63672V1.83305ZM5.16895 1.90433L4.99492 0.414464L4.99491 0.414464L5.16895 1.90433ZM3.97266 2.31351L3.03105 1.14588L3.03091 1.14599L3.97266 2.31351ZM3.64551 2.64066L2.47759 1.69941L2.47743 1.6996L3.64551 2.64066ZM3.23633 3.83793L1.74644 3.66405L1.74643 3.6641L3.23633 3.83793ZM3.16602 6.3057H1.66602V6.3057H3.16602ZM3.16602 9.33695H1.66602H3.16602ZM3.25879 12.1973L1.77214 12.397L1.77215 12.3971L3.25879 12.1973ZM3.80078 13.5381L2.73989 14.5986L2.74028 14.5989L3.80078 13.5381ZM6.67285 14.167L6.65114 15.6669L6.65115 15.6669L6.67285 14.167ZM7.16602 14.6739L8.66586 14.6956L8.66587 14.6951L7.16602 14.6739ZM6.6582 15.167L6.63649 16.6669L6.63649 16.6669L6.6582 15.167ZM3.09277 14.2442L2.03164 15.3044L2.03188 15.3046L3.09277 14.2442ZM2.26758 12.3311L0.780943 12.5309L0.780949 12.5309L2.26758 12.3311ZM2.16602 9.37406L3.66602 9.37407V9.37406H2.16602ZM2.16602 6.27445H3.66602V6.27444L2.16602 6.27445ZM2.24316 3.72172L0.753278 3.54782L0.753277 3.54784L2.24316 3.72172ZM2.86719 2.01273L1.69935 1.07138L1.69927 1.07148L2.86719 2.01273ZM3.34473 1.53519L2.40302 0.36764L2.40298 0.367671L3.34473 1.53519ZM5.05273 0.91117L4.87871 -0.5787L4.87866 -0.578695L5.05273 0.91117ZM7.60449 0.833045L7.60448 2.33305H7.60449V0.833045ZM12.5859 12.1729L12.3465 10.6921L12.3458 10.6922L12.5859 12.1729ZM13.1133 12.4434L14.4551 11.773L14.4549 11.7726L13.1133 12.4434ZM13.7793 13.7764L12.4375 14.4468L12.4377 14.4472L13.7793 13.7764ZM13.5557 14.4473L14.2255 15.7895L14.2265 15.7889L13.5557 14.4473ZM12.8848 14.2237L11.5423 14.8929L11.5431 14.8945L12.8848 14.2237ZM12.7188 13.8907L14.0612 13.2214C13.8226 12.7428 13.3472 12.4274 12.8135 12.3937C12.2798 12.3599 11.7685 12.6128 11.4714 13.0575L12.7188 13.8907ZM10.332 15.167L10.3318 16.667H10.332V15.167ZM8.00684 13.9532L6.77656 14.8113L6.77659 14.8113L8.00684 13.9532ZM8.13086 13.2569L7.27271 12.0266L7.27147 12.0275L8.13086 13.2569ZM8.82715 13.3809L7.59687 14.239L7.59688 14.2391L8.82715 13.3809ZM10.332 14.167L10.3317 15.667H10.332V14.167ZM12.1709 12.5957L10.6861 12.3828L10.686 12.3833L12.1709 12.5957ZM10.332 9.50004V8.00004L10.3318 8.00004L10.332 9.50004ZM12.6572 10.7139L13.8875 9.85576L13.8874 9.85562L12.6572 10.7139ZM12.5332 11.4102L13.3905 12.6411L13.3914 12.6405L12.5332 11.4102ZM11.8379 11.2862L10.6076 12.1443L10.6081 12.1451L11.8379 11.2862ZM10.332 10.5V9.00004H10.3317L10.332 10.5ZM8.49414 12.0703L7.00931 11.8575L7.00925 11.858L8.49414 12.0703ZM8.0791 12.4932L8.3192 13.9739L8.31924 13.9739L8.0791 12.4932ZM7.55176 12.2237L8.8934 11.5528L8.8932 11.5525L7.55176 12.2237ZM6.88477 10.8907L5.54313 11.5615L5.54332 11.5619L6.88477 10.8907ZM7.1084 10.2198L6.43758 8.87812L6.43617 8.87883L7.1084 10.2198ZM7.7793 10.4434L6.43766 11.1142L6.43844 11.1158L7.7793 10.4434ZM7.94629 10.7764L6.60544 11.4488C6.84488 11.9263 7.3202 12.2404 7.85334 12.2735C8.38649 12.3066 8.89701 12.0537 9.19368 11.6095L7.94629 10.7764ZM9.16602 2.54203L10.2267 1.48137C9.79698 1.05167 9.15049 0.923687 8.58949 1.15725C8.02849 1.39081 7.66383 1.93977 7.66603 2.54745L9.16602 2.54203ZM9.23438 4.12894L7.74772 4.3286L7.74774 4.32873L9.23438 4.12894ZM9.60547 5.06254L8.54458 6.12297L8.54478 6.12317L9.60547 5.06254ZM10.5381 5.43363L10.3381 6.92024L10.3382 6.92026L10.5381 5.43363ZM12.125 5.50101L12.1196 7.001C12.7273 7.0032 13.2762 6.63854 13.5098 6.07754C13.7433 5.51654 13.6154 4.87005 13.1857 4.44035L12.125 5.50101ZM7.70606 0.833045L7.7073 2.33304C7.9231 2.33287 8.04054 2.33365 8.13722 2.34119C8.22057 2.3477 8.23656 2.35631 8.22437 2.35201L8.72363 0.937537L9.22289 -0.476937C8.63614 -0.684043 8.04282 -0.667235 7.70481 -0.666954L7.70606 0.833045ZM8.72363 0.937537L8.22423 2.35196C8.23088 2.35431 8.24186 2.35864 8.25708 2.36592L8.9043 1.01273L9.55152 -0.340452C9.44906 -0.389455 9.33938 -0.435808 9.22304 -0.476887L8.72363 0.937537ZM8.9043 1.01273L8.25686 2.36581C8.24503 2.36015 8.26249 2.36537 8.32628 2.41997C8.40017 2.4832 8.48392 2.5659 8.63647 2.71876L9.69824 1.65922L10.76 0.59967C10.5213 0.360488 10.1132 -0.0716885 9.55173 -0.340348L8.9043 1.01273ZM9.69824 1.65922L8.63646 2.71875C8.65262 2.73495 8.67232 2.75461 8.68617 2.76847L9.74707 1.70805L10.808 0.647622C10.7889 0.628528 10.776 0.615684 10.76 0.59968L9.69824 1.65922ZM9.74707 1.70805L8.68625 2.76854L11.8444 5.92772L12.9053 4.86722L13.9661 3.80673L10.8079 0.647549L9.74707 1.70805ZM12.9053 4.86722L11.8444 5.92765C11.8631 5.94634 11.8827 5.966 11.902 5.98531L12.9619 4.92387L14.0218 3.86242C14.0038 3.84444 13.9857 3.82634 13.9662 3.8068L12.9053 4.86722ZM12.9619 4.92387L11.902 5.98531C12.0784 6.16137 12.174 6.25872 12.2456 6.34465C12.307 6.41838 12.3118 6.43918 12.3067 6.42687L13.6924 5.85258L15.0781 5.27829C14.8019 4.61179 14.2996 4.13981 14.0218 3.86242L12.9619 4.92387ZM13.6924 5.85258L12.3065 6.42639C12.3011 6.41348 12.3124 6.43113 12.3211 6.52688C12.3312 6.63858 12.3323 6.77505 12.332 7.02497L13.832 7.0264L15.332 7.02784C15.3324 6.63681 15.3546 5.94615 15.0783 5.27876L13.6924 5.85258ZM13.832 7.0264H12.332V9.33695H13.832H15.332V7.0264H13.832ZM13.832 9.33695L12.332 9.33687C12.3321 8.78472 12.7797 8.33695 13.332 8.33695V9.83695V11.337C14.4367 11.337 15.332 10.4414 15.332 9.33703L13.832 9.33695ZM13.332 9.83695L13.333 8.33695C13.8838 8.3373 14.332 8.78366 14.332 9.33687L12.832 9.33695L11.332 9.33703C11.3321 10.4423 12.2283 11.3362 13.3311 11.337L13.332 9.83695ZM12.832 9.33695H14.332V7.10746H12.832H11.332V9.33695H12.832ZM12.832 7.10746H14.332C14.332 6.82909 14.331 6.58797 14.3176 6.3972L12.8213 6.50199L11.325 6.60678C11.3295 6.6723 11.332 6.80148 11.332 7.10746H12.832ZM12.8213 6.50199V5.00199H12.6289V6.50199V8.00199H12.8213V6.50199ZM12.6289 6.50199L12.6289 5.00199C11.6769 5.002 11.0594 4.99945 10.6043 4.93823L10.4043 6.42484L10.2043 7.91145C10.9051 8.0057 11.7577 8.002 12.6289 8.00199L12.6289 6.50199ZM10.4043 6.42484L10.6043 4.93823C10.1708 4.87991 10.0345 4.78534 9.95835 4.70914L8.89746 5.76957L7.83657 6.83C8.56288 7.55662 9.43771 7.80832 10.2043 7.91145L10.4043 6.42484ZM8.89746 5.76957L9.9585 4.70928C9.88263 4.63336 9.7882 4.4974 9.72979 4.06289L8.24316 4.26273L6.75654 4.46258C6.85946 5.22822 7.11019 6.1031 7.83643 6.82985L8.89746 5.76957ZM8.24316 4.26273L9.7298 4.06295C9.66858 3.60742 9.666 2.98948 9.66602 2.03717L8.16602 2.03715L6.66602 2.03712C6.666 2.90894 6.66235 3.76171 6.75653 4.46252L8.24316 4.26273ZM8.16602 2.03715H9.66602V1.84183H8.16602H6.66602V2.03715H8.16602ZM8.16602 1.84183L8.26146 0.344874C8.09399 0.334196 7.88361 0.333047 7.63673 0.333045L7.63672 1.83305L7.63671 3.33305C7.90397 3.33305 8.01574 3.3353 8.07057 3.33879L8.16602 1.84183ZM7.63672 1.83305V0.333045C6.57819 0.333045 5.69858 0.33227 4.99492 0.414464L5.16895 1.90433L5.34297 3.3942C5.83266 3.33701 6.50772 3.33305 7.63672 3.33305V1.83305ZM5.16895 1.90433L4.99491 0.414464C4.27046 0.499088 3.60433 0.683572 3.03105 1.14588L3.97266 2.31351L4.91426 3.48115C4.90036 3.49236 4.89836 3.48718 4.94325 3.47154C5.00006 3.45175 5.11812 3.42047 5.34298 3.3942L5.16895 1.90433ZM3.97266 2.31351L3.03091 1.14599C2.82791 1.30973 2.64207 1.49531 2.47759 1.69941L3.64551 2.64066L4.81343 3.58192C4.84288 3.54537 4.87688 3.5113 4.91441 3.48104L3.97266 2.31351ZM3.64551 2.64066L2.47743 1.6996C2.01552 2.27295 1.83102 2.93936 1.74644 3.66405L3.23633 3.83793L4.72622 4.01181C4.75247 3.78685 4.78379 3.66848 4.80367 3.61135C4.81944 3.56606 4.82477 3.56784 4.81359 3.58172L3.64551 2.64066ZM3.23633 3.83793L1.74643 3.6641C1.66428 4.36826 1.66602 5.24885 1.66602 6.3057H3.16602L4.66602 6.3057C4.66602 5.17487 4.6691 4.50133 4.72622 4.01175L3.23633 3.83793ZM3.16602 6.3057H1.66602V9.33695H3.16602H4.66602V6.3057H3.16602ZM3.16602 9.33695H1.66602C1.66602 10.5649 1.66351 11.5883 1.77214 12.397L3.25879 12.1973L4.74544 11.9976C4.66994 11.4356 4.66602 10.6521 4.66602 9.33695H3.16602ZM3.25879 12.1973L1.77215 12.3971C1.88483 13.2355 2.1332 13.9916 2.73989 14.5986L3.80078 13.5381L4.86167 12.4777C4.86064 12.4767 4.86077 12.4767 4.86148 12.4776C4.86221 12.4785 4.86255 12.479 4.86232 12.4787C4.86207 12.4783 4.86046 12.4758 4.85768 12.4705C4.85486 12.4651 4.85044 12.4561 4.84481 12.4424C4.82067 12.3838 4.77997 12.2546 4.74543 11.9975L3.25879 12.1973ZM3.80078 13.5381L2.74028 14.5989C3.22981 15.0883 3.81576 15.3453 4.46394 15.4841C5.06754 15.6134 5.79586 15.6545 6.65114 15.6669L6.67285 14.167L6.69456 12.6672C5.86264 12.6551 5.3869 12.6137 5.09226 12.5506C4.95708 12.5217 4.89488 12.4949 4.87341 12.4843C4.86329 12.4793 4.86041 12.477 4.86165 12.4779C4.86298 12.4788 4.86328 12.4793 4.86128 12.4773L3.80078 13.5381ZM6.67285 14.167L6.65115 15.6669C6.10154 15.6589 5.65831 15.2072 5.66617 14.6526L7.16602 14.6739L8.66587 14.6951C8.68155 13.5884 7.79629 12.6831 6.69455 12.6672L6.67285 14.167ZM7.16602 14.6739L5.66617 14.6522C5.67417 14.0993 6.12831 13.6592 6.67991 13.6672L6.6582 15.167L6.63649 16.6669C7.74032 16.6828 8.64987 15.8007 8.66586 14.6956L7.16602 14.6739ZM6.6582 15.167L6.67992 13.6672C4.96291 13.6423 4.45419 13.4844 4.15367 13.1837L3.09277 14.2442L2.03188 15.3046C3.31826 16.5915 5.1171 16.6449 6.63649 16.6669L6.6582 15.167ZM3.09277 14.2442L4.1539 13.184C3.98014 13.0101 3.83692 12.7466 3.75421 12.1313L2.26758 12.3311L0.780949 12.5309C0.908361 13.4788 1.20834 14.4803 2.03164 15.3044L3.09277 14.2442ZM2.26758 12.3311L3.75421 12.1313C3.66861 11.4943 3.66601 10.6406 3.66602 9.37407L2.16602 9.37406L0.666016 9.37405C0.666006 10.559 0.66234 11.6483 0.780943 12.5309L2.26758 12.3311ZM2.16602 9.37406H3.66602V6.27445H2.16602H0.666016V9.37406H2.16602ZM2.16602 6.27445L3.66602 6.27444C3.66601 5.18537 3.66828 4.45063 3.73305 3.8956L2.24316 3.72172L0.753277 3.54784C0.663603 4.3162 0.666008 5.25379 0.666016 6.27446L2.16602 6.27445ZM2.24316 3.72172L3.73305 3.89561C3.79612 3.35525 3.90648 3.11359 4.03511 2.95399L2.86719 2.01273L1.69927 1.07148C1.07075 1.85136 0.848743 2.72991 0.753278 3.54782L2.24316 3.72172ZM2.86719 2.01273L4.03503 2.95409C4.10928 2.86197 4.1936 2.77764 4.28648 2.70272L3.34473 1.53519L2.40298 0.367671C2.14448 0.576182 1.90842 0.812005 1.69935 1.07138L2.86719 2.01273ZM3.34473 1.53519L4.28644 2.70275C4.44566 2.57433 4.68656 2.46416 5.22681 2.40104L5.05273 0.91117L4.87866 -0.578695C4.06125 -0.48319 3.18288 -0.261374 2.40302 0.36764L3.34473 1.53519ZM5.05273 0.91117L5.22676 2.40104C5.78189 2.3362 6.51764 2.33304 7.60448 2.33305L7.60449 0.833045L7.6045 -0.666955C6.58257 -0.666963 5.64648 -0.668382 4.87871 -0.5787L5.05273 0.91117ZM7.60449 0.833045V2.33305H7.70606V0.833045V-0.666955H7.60449V0.833045ZM12.5859 12.1729L12.8254 13.6536C12.3919 13.7238 11.9663 13.5035 11.7716 13.1142L13.1133 12.4434L14.4549 11.7726C14.0647 10.9922 13.2116 10.5522 12.3465 10.6921L12.5859 12.1729ZM13.1133 12.4434L11.7714 13.1138L12.4375 14.4468L13.7793 13.7764L15.1211 13.106L14.4551 11.773L13.1133 12.4434ZM13.7793 13.7764L12.4377 14.4472C12.1907 13.9532 12.3909 13.3527 12.8848 13.1057L13.5557 14.4473L14.2265 15.7889C15.2144 15.295 15.6149 14.0935 15.1209 13.1056L13.7793 13.7764ZM13.5557 14.4473L12.8859 13.1052C13.3784 12.8594 13.9789 13.0577 14.2264 13.5529L12.8848 14.2237L11.5431 14.8945C12.0376 15.8833 13.2391 16.2817 14.2255 15.7895L13.5557 14.4473ZM12.8848 14.2237L14.2272 13.5544L14.0612 13.2214L12.7188 13.8907L11.3763 14.5599L11.5423 14.8929L12.8848 14.2237ZM12.7188 13.8907L11.4714 13.0575C11.2251 13.4263 10.8002 13.667 10.332 13.667V15.167V16.667C11.8373 16.667 13.1828 15.8964 13.9661 14.7238L12.7188 13.8907ZM10.332 15.167L10.3323 13.667C9.88017 13.667 9.47973 13.4428 9.23709 13.095L8.00684 13.9532L6.77659 14.8113C7.5561 15.9288 8.85781 16.6668 10.3318 16.667L10.332 15.167ZM8.00684 13.9532L9.23711 13.095C9.55389 13.5492 9.4411 14.1711 8.99025 14.4863L8.13086 13.2569L7.27147 12.0275C6.36835 12.6588 6.14402 13.9045 6.77656 14.8113L8.00684 13.9532ZM8.13086 13.2569L8.98901 14.4872C8.53624 14.803 7.91298 14.6922 7.59687 14.239L8.82715 13.3809L10.0574 12.5227C9.42536 11.6166 8.17846 11.3948 7.27271 12.0266L8.13086 13.2569ZM8.82715 13.3809L7.59688 14.2391C8.19777 15.1005 9.19906 15.6668 10.3317 15.667L10.332 14.167L10.3324 12.667C10.2202 12.667 10.1207 12.6134 10.0574 12.5227L8.82715 13.3809ZM10.332 14.167V15.667C12.0003 15.667 13.4229 14.4362 13.6558 12.8081L12.1709 12.5957L10.686 12.3833C10.6773 12.4445 10.6429 12.5159 10.5732 12.576C10.505 12.6348 10.4207 12.667 10.332 12.667V14.167ZM12.1709 12.5957L13.6557 12.8086C13.5937 13.241 13.2582 13.5835 12.8261 13.6535L12.5859 12.1729L12.3458 10.6922C11.482 10.8323 10.8101 11.5177 10.6861 12.3828L12.1709 12.5957ZM10.332 9.50004V11C10.7838 11 11.1841 11.224 11.427 11.5722L12.6572 10.7139L13.8874 9.85562C13.108 8.73846 11.8065 8.00004 10.332 8.00004V9.50004ZM12.6572 10.7139L11.4269 11.5721C11.1111 11.1193 11.2219 10.496 11.6751 10.1799L12.5332 11.4102L13.3914 12.6405C14.2975 12.0084 14.5193 10.7615 13.8875 9.85576L12.6572 10.7139ZM12.5332 11.4102L11.6759 10.1793C12.1291 9.86369 12.752 9.97528 13.0676 10.4273L11.8379 11.2862L10.6081 12.1451C11.2397 13.0494 12.4845 13.272 13.3905 12.6411L12.5332 11.4102ZM11.8379 11.2862L13.0682 10.428C12.4668 9.56593 11.4645 9.00004 10.332 9.00004V10.5V12C10.4448 12 10.5446 12.054 10.6076 12.1443L11.8379 11.2862ZM10.332 10.5L10.3317 9.00004C8.66417 9.00042 7.24257 10.23 7.00931 11.8575L8.49414 12.0703L9.97897 12.2832C9.98775 12.2219 10.0221 12.1506 10.0915 12.0908C10.1594 12.0323 10.2435 12.0001 10.3324 12L10.332 10.5ZM8.49414 12.0703L7.00925 11.858C7.0712 11.4249 7.40732 11.0826 7.83896 11.0125L8.0791 12.4932L8.31924 13.9739C9.18264 13.8338 9.85514 13.1488 9.97903 12.2827L8.49414 12.0703ZM8.0791 12.4932L7.83901 11.0125C8.26831 10.9429 8.69669 11.1594 8.8934 11.5528L7.55176 12.2237L6.21012 12.8945C6.60243 13.6791 7.45816 14.1135 8.3192 13.9739L8.0791 12.4932ZM7.55176 12.2237L8.8932 11.5525L8.22621 10.2194L6.88477 10.8907L5.54332 11.5619L6.21031 12.8949L7.55176 12.2237ZM6.88477 10.8907L8.22641 10.2198C8.47417 10.7154 8.27207 11.3143 7.78062 11.5607L7.1084 10.2198L6.43617 8.87883C5.45145 9.37248 5.04853 10.5723 5.54313 11.5615L6.88477 10.8907ZM7.1084 10.2198L7.77922 11.5614C7.28524 11.8084 6.68465 11.6082 6.43766 11.1142L7.7793 10.4434L9.12094 9.77258C8.62696 8.78462 7.42554 8.38414 6.43758 8.87812L7.1084 10.2198ZM7.7793 10.4434L6.43844 11.1158L6.60544 11.4488L7.94629 10.7764L9.28714 10.104L9.12015 9.771L7.7793 10.4434ZM7.94629 10.7764L9.19368 11.6095C9.44009 11.2405 9.86437 11.0001 10.3323 11L10.332 9.50004L10.3318 8.00004C8.82651 8.00026 7.48189 8.77095 6.6989 9.94332L7.94629 10.7764ZM9.16602 2.54203L7.66603 2.54745C7.66844 3.2141 7.67878 3.81525 7.74772 4.3286L9.23438 4.12894L10.721 3.92928C10.6818 3.63702 10.6685 3.22304 10.666 2.53661L9.16602 2.54203ZM9.23438 4.12894L7.74774 4.32873C7.83615 4.9866 8.03603 5.6142 8.54458 6.12297L9.60547 5.06254L10.6664 4.00211C10.6882 4.02396 10.7106 4.05078 10.7302 4.08041C10.7494 4.10942 10.7591 4.13091 10.7622 4.13835C10.7647 4.14453 10.7598 4.13406 10.7513 4.09948C10.7428 4.0645 10.7318 4.00981 10.721 3.92916L9.23438 4.12894ZM9.60547 5.06254L8.54478 6.12317C9.0531 6.63152 9.68 6.83172 10.3381 6.92024L10.5381 5.43363L10.738 3.94702C10.6576 3.93619 10.6031 3.92527 10.5683 3.91677C10.5339 3.90836 10.5236 3.90347 10.5299 3.90608C10.5375 3.90922 10.559 3.91901 10.5881 3.93822C10.6177 3.95783 10.6444 3.98019 10.6662 4.00191L9.60547 5.06254ZM10.5381 5.43363L10.3382 6.92026C10.8526 6.98941 11.4558 6.99861 12.1196 7.001L12.125 5.50101L12.1304 4.00102C11.441 3.99854 11.029 3.98613 10.7379 3.947L10.5381 5.43363ZM12.125 5.50101L13.1857 4.44035L10.2267 1.48137L9.16602 2.54203L8.10536 3.60269L11.0643 6.56167L12.125 5.50101Z" fill="currentColor" mask="url(#path-1-inside-1_23450_76035)"/></svg>
