<svg viewBox="0 0 32 32" fill="none" xmlns="http://www.w3.org/2000/svg"><path fill-rule="evenodd" clip-rule="evenodd" d="M15.4131 1.66804C16.2172 1.66738 16.8524 1.66666 17.4482 1.87703C17.5712 1.92045 17.6919 1.97017 17.8096 2.02644C18.3796 2.29919 18.8292 2.74899 19.3975 3.31844C19.4297 3.35078 19.462 3.38396 19.4951 3.41707L25.8105 9.73543C25.849 9.77387 25.8873 9.81219 25.9248 9.84968C26.5841 10.508 27.106 11.029 27.3867 11.7071C27.4999 11.9805 27.5471 12.3407 27.5742 12.5928C27.606 12.8882 27.6265 13.2197 27.6396 13.5216C27.6528 13.8257 27.6588 14.1125 27.6621 14.3223C27.6637 14.4275 27.6646 14.5146 27.665 14.5753L27.666 14.6466V14.672C27.666 15.2241 27.2181 15.6727 26.666 15.6729C26.1138 15.6729 25.6661 15.2252 25.666 14.6729V14.6524L25.665 14.5889C25.6647 14.5333 25.6646 14.4522 25.6631 14.3536C25.66 14.1557 25.6538 13.8886 25.6416 13.6085C25.6326 13.4015 25.6202 13.1935 25.6045 13.005H25.2588C23.4355 13.005 21.9655 13.0052 20.8096 12.8497C19.6096 12.6882 18.5993 12.3428 17.7969 11.5401C16.9945 10.7374 16.6487 9.7268 16.4873 8.52644C16.3319 7.37012 16.332 5.8994 16.332 4.07527V3.68562C16.1096 3.67146 15.7879 3.66804 15.2734 3.66804C13.086 3.66804 11.5322 3.66929 10.3389 3.80867C9.16731 3.94552 8.47235 4.20378 7.94629 4.62801C7.70577 4.82202 7.48593 5.04166 7.29199 5.2823C6.86798 5.80861 6.61045 6.50401 6.47363 7.67586C6.33429 8.86981 6.33203 10.4249 6.33203 12.6134V18.6749C6.33203 21.2184 6.33433 23.0257 6.51856 24.3966C6.69892 25.7385 7.03733 26.5117 7.60156 27.0762C8.52946 28.0045 9.97126 28.2862 13.3467 28.335C13.8988 28.343 14.3399 28.7966 14.332 29.3487C14.324 29.9008 13.8704 30.3418 13.3184 30.3341C10.0818 30.2872 7.77448 30.0778 6.1875 28.4903C5.18976 27.4921 4.74629 26.226 4.53613 24.6622C4.332 23.1427 4.33201 21.2012 4.33203 18.7501V12.5489C4.33202 10.4392 4.33188 8.76779 4.48633 7.44441C4.64485 6.08617 4.97828 4.96689 5.73535 4.02742C6.01876 3.67576 6.33891 3.35491 6.69043 3.07136C7.62954 2.31391 8.74874 1.98096 10.1064 1.82234C11.4293 1.66782 13.1003 1.66803 15.209 1.66804H15.4131ZM21.999 16.3341C23.84 16.3341 25.332 17.8271 25.332 19.668V21.1192C25.74 21.2005 26.1342 21.3465 26.4922 21.6212C26.7001 21.7807 26.8864 21.967 27.0459 22.1749C27.4083 22.6472 27.5457 23.1822 27.6074 23.7296C27.6654 24.2442 27.666 24.8781 27.666 25.6134V25.7218C27.666 26.4573 27.6654 27.0918 27.6074 27.6065C27.5457 28.1537 27.4081 28.688 27.0459 29.1602C26.8863 29.3682 26.7002 29.5553 26.4922 29.7149C26.0198 30.0774 25.4849 30.2147 24.9375 30.2764C24.4229 30.3344 23.789 30.3341 23.0537 30.3341H20.9443C20.2091 30.3341 19.5751 30.3344 19.0605 30.2764C18.5131 30.2147 17.9782 30.0774 17.5059 29.7149C17.2979 29.5553 17.1117 29.3682 16.9521 29.1602C16.5899 28.688 16.4523 28.1537 16.3906 27.6065C16.3326 27.0918 16.332 26.4573 16.332 25.7218V25.6134C16.332 24.8781 16.3326 24.2442 16.3906 23.7296C16.4523 23.1822 16.5897 22.6472 16.9521 22.1749C17.1117 21.967 17.298 21.7807 17.5059 21.6212C17.8638 21.3465 18.2581 21.2005 18.666 21.1192V19.668C18.666 17.8271 20.1581 16.3341 21.999 16.3341ZM20.999 23.0011C20.1939 23.0011 19.6734 23.0021 19.2842 23.046C18.9153 23.0876 18.7898 23.1573 18.7236 23.2081C18.6544 23.2613 18.5922 23.3234 18.5391 23.3927C18.4883 23.4589 18.4195 23.5845 18.3779 23.9532C18.3341 24.3424 18.332 24.8629 18.332 25.668C18.332 26.4728 18.3341 26.9928 18.3779 27.3819C18.4195 27.751 18.4883 27.8772 18.5391 27.9434C18.5922 28.0127 18.6544 28.0749 18.7236 28.128C18.7899 28.1788 18.9157 28.2476 19.2842 28.2891C19.6734 28.333 20.1939 28.3341 20.999 28.3341H22.999C23.8041 28.3341 24.3246 28.333 24.7139 28.2891C25.0824 28.2476 25.2082 28.1788 25.2744 28.128C25.3437 28.0749 25.4058 28.0127 25.459 27.9434C25.5098 27.8772 25.5785 27.751 25.6201 27.3819C25.664 26.9928 25.666 26.4728 25.666 25.668C25.666 24.8629 25.664 24.3424 25.6201 23.9532C25.5786 23.5845 25.5098 23.4589 25.459 23.3927C25.4058 23.3234 25.3437 23.2613 25.2744 23.2081C25.2082 23.1573 25.0827 23.0876 24.7139 23.046C24.3246 23.0021 23.8041 23.0011 22.999 23.0011H20.999ZM21.999 18.3341C21.2626 18.3341 20.666 18.9317 20.666 19.668V21.0011H23.332V19.668C23.332 18.9317 22.7354 18.3341 21.999 18.3341ZM18.334 5.08406C18.3389 6.43799 18.3614 7.45393 18.4697 8.25984C18.6013 9.23843 18.842 9.75684 19.2109 10.1261C19.5799 10.4952 20.0982 10.7357 21.0762 10.8673C21.8817 10.9756 22.8974 10.9991 24.251 11.004L18.334 5.08406Z" fill="currentColor"/></svg>
