<svg xmlns="http://www.w3.org/2000/svg" fill="currentColor" style="fill-rule:evenodd;clip-rule:evenodd;stroke-linejoin:round;stroke-miterlimit:2" viewBox="0 0 64 64"><path id="Icons" d="M-192-256h1280v800H-192z" style="fill:none"/><path id="Icons1" d="M49.71 20.33v29.11a6.65 6.65 0 0 1-6.28 6.43c-7.46.1-14.92 0-22.39 0a6.65 6.65 0 0 1-6.43-6.43v-29.1h-4.44v-4h9.1v-2a6.65 6.65 0 0 1 6.28-6.43c3.08-.04 10.15-.04 13.22 0a6.65 6.65 0 0 1 6.28 6.43v2h9.1v4zm-4 0h-27.1c-.01 9.72-.12 19.44 0 29.16A2.53 2.53 0 0 0 21 51.87q11.18.15 22.34 0a2.54 2.54 0 0 0 2.38-2.45zM34.17 49.27h-4.01v-19.1l-7.41 7.4-2.84-2.83L32.16 22.5l12.25 12.24-2.83 2.83-7.41-7.4zM41 16.33v-1.97s-.06-2.42-2.34-2.45c-3-.04-10.01-.04-13.01 0a2.54 2.54 0 0 0-2.38 2.46v1.96z" style="fill-rule:nonzero"/></svg>
