<svg xmlns="http://www.w3.org/2000/svg" fill="none" viewBox="0 0 24 24"><path fill="currentColor" fill-rule="evenodd" d="M12.25 2.83c-.46-.07-1.09-.08-2.22-.08-1.91 0-3.28 0-4.31.14-1.01.14-1.6.39-2.02.81s-.67 1-.81 2.01A36 36 0 0 0 2.75 10v2.16c.02.17.2.27.36.2l.04-.03.15-.1a3.1 3.1 0 0 1 3.4 0c.79.53 1.81.53 2.6 0a3.1 3.1 0 0 1 3.4 0c.8.53 1.82.53 2.6 0a3.1 3.1 0 0 1 3.4 0c.77.51 1.77.53 2.55.04a6 6 0 0 0-.17-1.52h-3.13c-1.14 0-2.06 0-2.8-.1a3.2 3.2 0 0 1-1.95-.85 3.2 3.2 0 0 1-.85-1.96c-.1-.73-.1-1.65-.1-2.79zm1.5.78V5c0 1.2 0 2.02.08 2.64.09.6.23.9.43 1.1s.5.34 1.1.43c.62.08 1.44.08 2.64.08h2.03l-1.17-1.08-3.96-3.56zm-3.57-2.36c1.38 0 2.28 0 3.1.32.83.31 1.49.9 2.51 1.83l.1.1 3.97 3.56.12.11c1.19 1.07 1.95 1.75 2.37 2.68.31.72.38 1.47.4 2.46 0 .48-.23.91-.61 1.17a3.8 3.8 0 0 1-4.26 0 1.6 1.6 0 0 0-1.75 0 3.8 3.8 0 0 1-4.26 0 1.6 1.6 0 0 0-1.74 0 3.8 3.8 0 0 1-4.26 0 1.6 1.6 0 0 0-1.74 0l-.03.02q-.15.11-.3.19a1.75 1.75 0 0 1-2.54-1.36l-.01-.35V9.94c0-1.83 0-3.29.15-4.43a4.7 4.7 0 0 1 1.24-2.87A4.7 4.7 0 0 1 5.52 1.4c1.14-.15 2.6-.15 4.46-.15zm-4.3 16.23a1.6 1.6 0 0 0-1.75 0l-.63.42a6 6 0 0 0-.59.45v.1c0 .1.03.22.1.5.15.6.37 1.02.7 1.35.42.42 1 .68 2 .81 1.03.14 2.39.14 4.3.14h4c1.9 0 3.26 0 4.28-.14 1.01-.13 1.6-.39 2.01-.81.48-.48.73-1.14.86-2.35-1.1.34-2.3.19-3.28-.47a1.6 1.6 0 0 0-1.75 0 3.8 3.8 0 0 1-4.26 0 1.6 1.6 0 0 0-1.74 0 3.8 3.8 0 0 1-4.26 0M3.3 16.23a3.1 3.1 0 0 1 3.4 0c.79.53 1.81.53 2.6 0a3.1 3.1 0 0 1 3.4 0c.8.53 1.82.53 2.6 0a3.1 3.1 0 0 1 3.4 0c.8.53 1.82.53 2.6 0a.91.91 0 0 1 1.42.8c-.08 1.88-.33 3.3-1.36 4.33a4.7 4.7 0 0 1-2.87 1.24c-1.14.15-2.6.15-4.43.15H9.95c-1.84 0-3.3 0-4.44-.15a4.7 4.7 0 0 1-2.87-1.24 4 4 0 0 1-1.1-2.07l-.01-.09c-.1-.41-.22-.88-.01-1.4q.18-.43.5-.68.27-.23.62-.45z" clip-rule="evenodd"/></svg>
