<svg xmlns="http://www.w3.org/2000/svg" fill="none" viewBox="0 0 24 24"><path fill="currentColor" fill-rule="evenodd" d="M12.25 2.83a15 15 0 0 0-2.22-.08c-1.92 0-3.28 0-4.31.14-1.01.14-1.6.39-2.02.81s-.67 1-.81 2.01A36 36 0 0 0 2.75 10v4c0 1.9 0 3.26.14 4.29.14 1 .39 1.58.81 2 .43.43 1 .69 2.01.82 1.03.14 2.38.14 4.29.14h4c1.9 0 3.26 0 4.29-.14 1-.13 1.58-.39 2-.81.43-.43.69-1 .82-2.01.14-1.03.14-2.38.14-4.29v-.44c0-1.53-.01-2.26-.17-2.81h-3.13c-1.14 0-2.06 0-2.8-.1a3.2 3.2 0 0 1-1.95-.85 3.2 3.2 0 0 1-.85-1.96c-.1-.73-.1-1.65-.1-2.79zm1.5.78V5c0 1.2 0 2.02.08 2.64.09.6.23.9.43 1.1s.5.34 1.1.43c.62.08 1.44.08 2.64.08h2.02l-1.17-1.08-3.96-3.56zm-3.57-2.36c1.38 0 2.27 0 3.1.32.82.31 1.48.9 2.5 1.83l.11.1 3.96 3.56.13.11c1.18 1.07 1.95 1.75 2.36 2.68.41.92.41 1.95.41 3.54v.67c0 1.83 0 3.29-.15 4.43a4.7 4.7 0 0 1-1.24 2.87 4.7 4.7 0 0 1-2.87 1.24c-1.14.15-2.6.15-4.43.15H9.94c-1.83 0-3.29 0-4.43-.15a4.7 4.7 0 0 1-2.87-1.24 4.7 4.7 0 0 1-1.24-2.87c-.15-1.14-.15-2.6-.15-4.43V9.94c0-1.83 0-3.29.15-4.43a4.7 4.7 0 0 1 1.24-2.87A4.7 4.7 0 0 1 5.52 1.4c1.14-.15 2.6-.15 4.45-.15z" clip-rule="evenodd"/><path fill="currentColor" fill-rule="evenodd" d="M10.5 14.44c.3.27.34.75.06 1.06l-2.67 3a.75.75 0 0 1-1.12 0L5.44 17a.75.75 0 1 1 1.12-1l.77.87 2.1-2.37a.75.75 0 0 1 1.07-.06" clip-rule="evenodd"/></svg>
