<svg xmlns="http://www.w3.org/2000/svg" fill="none" viewBox="0 0 24 24"><path stroke="currentColor" stroke-linecap="round" stroke-linejoin="round" stroke-width="2" d="M13 3H8.2c-1.12 0-1.68 0-2.1.22a2 2 0 0 0-.88.87C5 4.52 5 5.08 5 6.2v11.6c0 1.12 0 1.68.22 2.1q.3.58.87.88c.43.22.99.22 2.11.22h7.6c1.12 0 1.68 0 2.1-.22a2 2 0 0 0 .88-.87c.22-.43.22-.99.22-2.11V9m-6-6 6 6m-6-6v4.4c0 .56 0 .84.1 1.05a1 1 0 0 0 .45.44c.21.11.49.11 1.05.11H19m-5 6v-1a2 2 0 1 0-4 0v1m.5 3h3c.47 0 .7 0 .88-.08a1 1 0 0 0 .54-.54c.08-.18.08-.41.08-.88s0-.7-.08-.88a1 1 0 0 0-.54-.54c-.18-.08-.41-.08-.88-.08h-3c-.47 0-.7 0-.88.08a1 1 0 0 0-.54.54c-.08.18-.08.41-.08.88s0 .7.08.88q.17.38.54.54c.18.08.41.08.88.08"/></svg>
