<svg viewBox="0 0 20 20" fill="none" xmlns="http://www.w3.org/2000/svg"><path d="M2 4C2 1.79086 3.79086 0 6 0H12L18 6V16C18 18.2091 16.2091 20 14 20H6C3.79086 20 2 18.2091 2 16V4Z" fill="currentColor"/><path d="M12 0L18 6H16C13.7909 6 12 4.20914 12 2V0Z" fill="currentColor"/><path d="M13.4707 13.6686C13.4579 13.5397 13.4031 13.4395 13.3061 13.3682C13.2092 13.2968 13.0776 13.2611 12.9114 13.2611C12.7985 13.2611 12.7031 13.2771 12.6254 13.309C12.5476 13.3399 12.4879 13.3831 12.4464 13.4385C12.4059 13.4939 12.3857 13.5567 12.3857 13.627C12.3835 13.6856 12.3958 13.7368 12.4224 13.7805C12.4501 13.8241 12.4879 13.8619 12.5359 13.8939C12.5838 13.9248 12.6392 13.952 12.7021 13.9754C12.7649 13.9978 12.832 14.017 12.9034 14.0329L13.1974 14.1032C13.3402 14.1352 13.4712 14.1778 13.5906 14.2311C13.7099 14.2844 13.8132 14.3499 13.9006 14.4276C13.9879 14.5054 14.0556 14.597 14.1035 14.7025C14.1525 14.808 14.1776 14.9289 14.1786 15.0653C14.1776 15.2655 14.1264 15.4392 14.0252 15.5862C13.9251 15.7322 13.7802 15.8456 13.5906 15.9266C13.402 16.0065 13.1745 16.0464 12.9082 16.0464C12.644 16.0464 12.4139 16.0059 12.2179 15.925C12.0229 15.844 11.8706 15.7242 11.7608 15.5654C11.6522 15.4056 11.5952 15.208 11.5898 14.9726H12.2594C12.2669 15.0823 12.2983 15.1739 12.3537 15.2474C12.4102 15.3199 12.4853 15.3747 12.579 15.412C12.6738 15.4482 12.7809 15.4664 12.9002 15.4664C13.0174 15.4664 13.1191 15.4493 13.2054 15.4152C13.2928 15.3811 13.3604 15.3337 13.4084 15.273C13.4563 15.2123 13.4803 15.1425 13.4803 15.0637C13.4803 14.9901 13.4585 14.9284 13.4148 14.8783C13.3722 14.8282 13.3093 14.7856 13.2262 14.7504C13.1442 14.7153 13.0435 14.6833 12.9242 14.6546L12.5678 14.5651C12.2919 14.498 12.074 14.393 11.9142 14.2503C11.7544 14.1075 11.6751 13.9152 11.6761 13.6734C11.6751 13.4752 11.7278 13.3021 11.8343 13.154C11.9419 13.0059 12.0895 12.8904 12.277 12.8073C12.4645 12.7242 12.6776 12.6826 12.9162 12.6826C13.1591 12.6826 13.3711 12.7242 13.5522 12.8073C13.7344 12.8904 13.8761 13.0059 13.9773 13.154C14.0785 13.3021 14.1307 13.4736 14.1339 13.6686H13.4707Z" fill="currentColor"/><path d="M9.1416 16.0003V12.7275H9.83354V15.4298H11.2366V16.0003H9.1416Z" fill="currentColor"/><path d="M6.57333 12.7275L7.23331 13.843H7.25888L7.92205 12.7275H8.70348L7.70472 14.3639L8.72585 16.0003H7.93004L7.25888 14.8833H7.23331L6.56214 16.0003H5.76953L6.79386 14.3639L5.78871 12.7275H6.57333Z" fill="currentColor"/></svg>
