<svg viewBox="0 0 20 20" fill="none" xmlns="http://www.w3.org/2000/svg"><path fill-rule="evenodd" clip-rule="evenodd" d="M11.6357 1.042C12.2179 1.04144 12.6788 1.04033 13.1025 1.21583C13.5262 1.39132 13.8515 1.71789 14.2627 2.12989L16.6191 4.48634C17.0311 4.89751 17.3577 5.22291 17.5332 5.64649C17.7087 6.07014 17.7076 6.53124 17.707 7.11329V10.8789C17.707 12.0186 17.7075 12.9377 17.6104 13.6602C17.5095 14.4101 17.2935 15.0414 16.792 15.543C16.3495 15.9855 15.8059 16.2054 15.1689 16.3203C14.935 17.8148 13.643 18.9578 12.083 18.958H7.87012C6.73047 18.958 5.81134 18.9585 5.08887 18.8613C4.33893 18.7605 3.70757 18.5445 3.20606 18.043C2.70455 17.5414 2.48855 16.9101 2.3877 16.1602C2.29056 15.4377 2.291 14.5186 2.29102 13.3789V6.667C2.29102 5.10674 3.43409 3.81296 4.92871 3.57911C5.04371 2.94266 5.26382 2.39928 5.70606 1.95704C6.20757 1.45558 6.83897 1.23954 7.58887 1.13868C8.31134 1.04155 9.23046 1.04198 10.3701 1.042H11.6357ZM4.81055 4.89259C4.07212 5.14439 3.54102 5.84333 3.54102 6.667V13.333C3.54102 14.5291 3.54234 15.3637 3.62695 15.9932C3.70916 16.6046 3.85923 16.9286 4.08984 17.1592C4.32048 17.3898 4.64438 17.5399 5.25586 17.6221C5.88532 17.7067 6.71985 17.708 7.91602 17.708H12.083C12.9067 17.7079 13.6038 17.1761 13.8555 16.4375C13.3475 16.4551 12.7731 16.459 12.1279 16.459H10.3701C9.23046 16.459 8.31134 16.4585 7.58887 16.3613C6.83894 16.2605 6.20757 16.0445 5.70606 15.543C5.20456 15.0414 4.98855 14.4101 4.8877 13.6602C4.79056 12.9377 4.791 12.0186 4.79102 10.8789V6.6211C4.79101 5.97547 4.79289 5.40086 4.81055 4.89259ZM10.416 2.292C9.21986 2.292 8.38531 2.29331 7.75586 2.37794C7.14441 2.46014 6.82048 2.61021 6.58984 2.84083C6.35921 3.07146 6.20917 3.39539 6.12695 4.00684C6.04233 4.6363 6.04102 5.47082 6.04102 6.667V10.833C6.04102 12.0291 6.04234 12.8637 6.12695 13.4932C6.20916 14.1046 6.35923 14.4286 6.58984 14.6592C6.82048 14.8898 7.14438 15.0399 7.75586 15.1221C8.38532 15.2067 9.21985 15.208 10.416 15.208H12.082C13.2782 15.208 14.1127 15.2067 14.7422 15.1221C15.3537 15.0399 15.6776 14.8898 15.9082 14.6592C16.1388 14.4286 16.2889 14.1046 16.3711 13.4932C16.4557 12.8637 16.457 12.0291 16.457 10.833V7.21387C16.457 7.08514 16.456 6.97312 16.4551 6.87501H15.7891C15.0403 6.87503 14.4156 6.87524 13.9199 6.8086C13.3969 6.73824 12.9244 6.58358 12.5449 6.20411C12.1655 5.82462 12.0108 5.35215 11.9404 4.82911C11.8738 4.33346 11.874 3.7087 11.874 2.95997V2.29395C11.7759 2.29302 11.6639 2.292 11.5352 2.292H10.416ZM14.166 11.875C14.511 11.8752 14.791 12.155 14.791 12.5C14.791 12.8451 14.511 13.1248 14.166 13.125H8.33203C7.987 13.1248 7.70703 12.8451 7.70703 12.5C7.70707 12.155 7.98703 11.8752 8.33203 11.875H14.166ZM11.666 8.542C12.011 8.54217 12.291 8.82193 12.291 9.167C12.2909 9.51195 12.011 9.79182 11.666 9.792H8.33203C7.98709 9.79182 7.70717 9.51195 7.70703 9.167C7.70703 8.82193 7.987 8.54218 8.33203 8.542H11.666ZM13.124 2.917C13.124 3.72013 13.1256 4.25964 13.1797 4.66212C13.2314 5.04663 13.3201 5.21172 13.4287 5.32032C13.5373 5.42892 13.7024 5.51764 14.0869 5.56934C14.4894 5.62345 15.0289 5.62501 15.832 5.62501H15.9863C15.9001 5.5358 15.7944 5.42913 15.6641 5.29884L13.4502 3.08497C13.3199 2.95464 13.2132 2.8489 13.124 2.7627V2.917Z" fill="currentColor"/></svg>
