<svg xmlns="http://www.w3.org/2000/svg" fill="none" viewBox="0 0 24 24"><path stroke="currentColor" stroke-linecap="round" stroke-linejoin="round" stroke-miterlimit="10" stroke-width="1.5" d="M21.63 14.75q-.01 1.35-.69 2.45a4.73 4.73 0 0 1-8.81-2.45 4.75 4.75 0 0 1 9.5 0m-2.97-.02h-3.55M16.88 13v3.55"/><path stroke="currentColor" stroke-linecap="round" stroke-linejoin="round" stroke-miterlimit="10" stroke-width="1.5" d="M20.69 4.02v2.22c0 .81-.51 1.82-1.01 2.33l-1.76 1.55a4.75 4.75 0 0 0-3.6 8.61v.34c0 .61-.4 1.42-.91 1.72L12 21.7c-1.31.81-3.13-.1-3.13-1.72v-5.35c0-.71-.41-1.62-.81-2.12L4.22 8.47a3.4 3.4 0 0 1-.91-2.02V4.12C3.31 2.91 4.22 2 5.33 2h13.34c1.11 0 2.02.91 2.02 2.02"/></svg>
