<svg xmlns="http://www.w3.org/2000/svg" fill="currentColor" viewBox="0 0 512 512"><path d="M288.06 435.83a7.5 7.5 0 0 0-7.5 7.5v26.12c0 .12 0 .3-.25.45-.26.15-.42.06-.52 0l-72.2-42.12a16.6 16.6 0 0 1-8.22-14.3V298.52h48.61a7.5 7.5 0 1 0 0-15h-52.9l-170-177.38h429.78l-80.03 83.5a7.5 7.5 0 1 0 10.84 10.38l83.27-86.9c7.09-7.4 11-17.12 11-27.37V50.54A23.56 23.56 0 0 0 456.4 27H23.53A23.56 23.56 0 0 0 0 50.54v35.21C0 96 3.9 105.73 11 113.13l173.37 180.9v119.45c0 11.18 6 21.62 15.65 27.25l72.21 42.13a15.5 15.5 0 0 0 7.82 2.13c2.65 0 5.3-.7 7.73-2.08a15.4 15.4 0 0 0 7.78-13.46v-26.12a7.5 7.5 0 0 0-7.5-7.5M15 50.53c0-4.7 3.83-8.52 8.53-8.52H456.4c4.7 0 8.53 3.82 8.53 8.53v35.21q0 2.75-.6 5.38H15.6q-.6-2.63-.6-5.38z"/><path d="M392.27 219.4c-66.01 0-119.72 53.7-119.72 119.72s53.7 119.73 119.72 119.73S512 405.14 512 339.12s-53.7-119.73-119.73-119.73m0 224.44c-57.74 0-104.72-46.98-104.72-104.72s46.98-104.73 104.72-104.73S497 281.37 497 339.12s-46.98 104.72-104.73 104.72"/><path d="M445.67 285.72a7.5 7.5 0 0 0-10.6 0l-42.8 42.8-42.79-42.8a7.5 7.5 0 1 0-10.6 10.6l42.79 42.8-42.8 42.8a7.5 7.5 0 1 0 10.61 10.6l42.8-42.8 42.79 42.8a7.47 7.47 0 0 0 10.6 0 7.5 7.5 0 0 0 0-10.6l-42.79-42.8 42.8-42.8a7.5 7.5 0 0 0 0-10.6"/></svg>
