<svg xmlns="http://www.w3.org/2000/svg" fill="none" viewBox="0 0 24 24"><path stroke="currentColor" stroke-linecap="round" stroke-width="1.5" d="M12 14.88c-.91 0-1.65-.74-1.65-1.65v-2.47a1.65 1.65 0 0 1 3.3 0v2.47c0 .91-.74 1.65-1.65 1.65Z"/><path stroke="currentColor" stroke-linecap="round" stroke-width="1.5" d="M16.98 13.47a5 5 0 0 1-9.98-.4v-2.14a5 5 0 0 1 9.97-.51"/><path stroke="currentColor" stroke-linecap="round" stroke-linejoin="round" stroke-miterlimit="10" stroke-width="1.5" d="M15 2h2c3 0 5 2 5 5v2M2 9V7c0-3 2-5 5-5h2m6 20h2c3 0 5-2 5-5v-2M2 15v2c0 3 2 5 5 5h2"/></svg>
