<svg xmlns="http://www.w3.org/2000/svg" fill="none" viewBox="0 0 24 24"><path fill="currentColor" fill-rule="evenodd" d="m14.45 8.49-2.27-4.55-.73.8C7.3 9.26 6 11.96 6 14.25c0 3.17 2.73 5.66 6 5.66s6-2.49 6-5.66c0-.93-.33-1.94-.76-2.88a20 20 0 0 0-1.62-2.8l-.51-.75zm-.4 2.54.83-.84q.58.9 1 1.8c.4.87.62 1.65.62 2.26 0 .84-.28 1.64-.76 2.3l.01-.18c0-.56-.23-1.13-.49-1.6-.27-.5-.62-.99-.96-1.42l-.49-.6-.33.28-1.3-2.21-.69.63c-2.35 2.18-3.24 3.6-3.24 4.92v.19a4 4 0 0 1-.75-2.31c0-1.57.83-3.72 4.32-7.68zm-.96 4.31.5-.43q.2.3.35.57.32.6.31.89c0 .75-.84 1.63-2.25 1.63s-2.25-.88-2.25-1.63c0-.55.32-1.42 2.08-3.17z" clip-rule="evenodd"/></svg>
