<svg xmlns="http://www.w3.org/2000/svg" fill="currentColor" viewBox="0 0 32 32"><path d="M16 32h.81A16 16 0 0 0 25.6 3.2a1 1 0 0 0-1.05-.09A1 1 0 0 0 24 4v1.81a12.9 12.9 0 0 0-13.53-1.57L10 1.8a1 1 0 0 0-.81-.8 1 1 0 0 0-1 .43L6.47 4H3.54L1.83 1.45A1 1 0 0 0 .71 1 1 1 0 0 0 0 2v14a16 16 0 0 0 16 16m8.23-23.3q.08.98.23 2A6 6 0 0 0 22 10a1 1 0 0 0-.93 1.37 46 46 0 0 1 1.63 4.86A7 7 0 0 0 21 16a1 1 0 0 0-.8.4 1 1 0 0 0-.16.87s.74 2.76-.49 4.39A4.2 4.2 0 0 1 16 23a5.8 5.8 0 0 1-5.67-4h3.17a2.5 2.5 0 0 0 0-5H9a1 1 0 0 0 1-1v-2h1a1 1 0 0 0 .71-.29l2-2a1 1 0 0 0 .29-.94 1 1 0 0 0-.65-.72l-2.38-.79A10.9 10.9 0 0 1 24.23 8.7M2 5.3l.17.26A1 1 0 0 0 3 6h4a1 1 0 0 0 .83-.44l.66-1L9 7.2a1 1 0 0 0 .68.8l1.47.49-.56.51H9a1 1 0 0 0-1 1v2.14A2.8 2.8 0 0 0 6 15a1 1 0 0 0 1 1h6.5a.5.5 0 0 1 0 1H9a1 1 0 0 0-.76.35 1 1 0 0 0-.23.81A8.1 8.1 0 0 0 16 25q3.54 0 5.15-2.13a7 7 0 0 0 1.07-4.7 2.4 2.4 0 0 1 1.07.54 1 1 0 0 0 1.09.21A1 1 0 0 0 25 18a22 22 0 0 0-1.37-5.52 7 7 0 0 1 1.66 1.23 1 1 0 0 0 1.66-1 28 28 0 0 1-.88-6.41A14 14 0 0 1 16.7 30 14 14 0 0 1 2 16Z"/></svg>
