<svg xmlns="http://www.w3.org/2000/svg" viewBox="0 0 1000 1000"><clipPath id="SVGID_2_"><circle id="SVGID_1_" cx="500" cy="500" r="500"/></clipPath><path fill="currentColor" d="M-255.83-62.52h1511.66v1123.8H-255.84z" clip-path="url(#SVGID_2_)"/><path fill="currentColor" d="M1086.6 1061.28 500 625.02l-587.02 436.26h-168.8V935.34l586.81-435.96-586.82-436.55V-62.52h168.81L500 373.73l586.6-436.25h169.23V62.8L669 499.38l586.82 435.93v125.97z" clip-path="url(#SVGID_2_)"/><path fill="currentColor" d="M-143.35 1061.28h-112.48l699.91-523.47-699.9-516.57v-83.76l701.67 518.4 697.3-518.4h112.68L553.98 456.02l701.85 521.5v83.76L558.49 539.65z" clip-path="url(#SVGID_2_)"/><path fill="currentColor" d="M637.2 1095H362.8V636.59h-686.04V362.17H362.8V-85h274.42v447.18h686.03v274.4H637.21z" clip-path="url(#SVGID_2_)"/><path fill="currentColor" d="M582.33 1095H417.68V581.7h-740.92V417.07h740.92V-85h164.65v502.06h740.91V581.7H582.33z" clip-path="url(#SVGID_2_)"/></svg>
