<svg xmlns="http://www.w3.org/2000/svg" fill="none" viewBox="0 0 24 24"><path stroke="currentColor" stroke-linecap="round" stroke-width="1.5" d="M15 22v-4.34c0-.82 0-1.23.15-1.6.15-.36.44-.65 1.02-1.23l3.24-3.24c.3-.3.44-.44.51-.62.08-.19.08-.39.08-.8V10c0-.94 0-1.41-.3-1.7-.29-.3-.76-.3-1.7-.3h-1M9 22v-4.34c0-.82 0-1.23-.15-1.6a4 4 0 0 0-1.02-1.23l-3.24-3.24a2 2 0 0 1-.51-.62c-.08-.19-.08-.39-.08-.8V10c0-.94 0-1.41.3-1.7C4.58 8 5.05 8 6 8h7m2 8H9m-4.5-5h15M12 5V2M8 5 6 3m10 2 2-2m-6 16v2"/></svg>
