<svg viewBox="0 0 1024 1024" xmlns="http://www.w3.org/2000/svg"><path d="M789.333333 917.333333s-51.562667-42.666667-117.333333-42.666666-117.333333 42.666667-117.333333 42.666666c-21.333333-42.645333-106.666667-85.312-106.666667-85.312 0-234.666667 128-469.333333 128-576h192c0 106.666667 128 341.333333 128 576 0 0-85.333333 42.624-106.666667 85.312z" fill="#1565C0" /><path d="M768 373.333333c0 53.013333-32.32 138.666667-85.333333 138.666667h-21.333334c-53.013333 0-85.333333-85.653333-85.333333-138.666667v-170.666666a96 96 0 0 1 192 0v170.666666z" fill="#37474F" /><path d="M672 149.333333C701.418667 149.333333 725.333333 173.248 725.333333 202.666667v85.333333c0 29.418667-23.914667 53.333333-53.333333 53.333333S618.666667 317.418667 618.666667 288v-85.333333C618.666667 173.248 642.581333 149.333333 672 149.333333" fill="" /><path d="M561.792 558.229333c-42.88-3.072-64.64 233.770667-69.845333 299.541334 24.341333 16.106667 51.84 37.802667 62.72 59.562666 0 0 63.957333-355.050667 7.125333-359.104zM778.666667 558.229333c-54.805333 3.925333 2.688 334.101333 6.869333 357.674667l2.666667 0.981333 1.557333-0.277333c10.602667-20.522667 35.733333-40.938667 58.944-56.576-4.885333-62.613333-26.666667-304.917333-70.037333-301.802667z" fill="#0D47A1" /><path d="M469.333333 917.333333s-51.562667-42.666667-117.333333-42.666666-117.333333 42.666667-117.333333 42.666666c-21.333333-42.645333-106.666667-85.312-106.666667-85.312 0-234.666667 128-469.333333 128-576h192c0 106.666667 128 341.333333 128 576 0 0-85.333333 42.624-106.666667 85.312z" fill="#42A5F5" /><path d="M448 373.333333c0 53.013333-32.32 138.666667-85.333333 138.666667h-21.333334c-53.013333 0-85.333333-85.653333-85.333333-138.666667v-170.666666a96 96 0 0 1 192 0v170.666666z" fill="#455A64" /><path d="M352 149.333333C381.418667 149.333333 405.333333 173.248 405.333333 202.666667v85.333333c0 29.418667-23.914667 53.333333-53.333333 53.333333S298.666667 317.418667 298.666667 288v-85.333333C298.666667 173.248 322.581333 149.333333 352 149.333333" fill="#263238" /><path d="M241.792 558.229333c-42.88-3.072-64.64 233.770667-69.845333 299.541334C196.288 873.877333 223.786667 895.573333 234.666667 917.333333c0 0 63.957333-355.050667 7.125333-359.104zM458.666667 558.229333c-54.805333 3.925333 2.688 334.101333 6.869333 357.674667l2.666667 0.981333 1.557333-0.277333c10.602667-20.522667 35.733333-40.938667 58.944-56.576-4.885333-62.613333-26.666667-304.917333-70.037333-301.802667z" fill="#1E88E5" /></svg>
