<svg xmlns="http://www.w3.org/2000/svg" viewBox="0 -26.78 378.777 378.777"><defs><style>.a{fill:#fff}.d{fill:#211715}.e{fill:#a095c1}</style></defs><path d="M342.59 164.11c-13-9.84-32.98-13.85-44.56-14.45a76.3 76.3 0 0 1-42.56 23.6c-5.96 1.03-12.15 1.32-18.13-.21a27.6 27.6 0 0 1-16.1-11.05c-16.06 7.83-30.97 16.92-38.35 27.38-5.59 7.9-7.73 18.66-8.84 28a552 552 0 0 0-2.12 33.41c-.52 15.87-.89 28 5.62 36.18a23.7 23.7 0 0 0 17.84 9.5c7.95.58 13.82-.72 19.04-3.57a118 118 0 0 1 4.75 30h54.11v-10.89h43.92c17.22-2.39 33.28-5.67 45.39-14.88a34 34 0 0 0 12.43-18.44c3.06-12.91.66-34.35-5.09-59.26-4.73-20.51-12.6-41.74-23.98-52.47a41 41 0 0 0-3.37-2.85" class="a"/><path d="M240.32 288.82c-2.8.75-3.81 2.84-3.66 4.39a4.5 4.5 0 0 0 3.5 4.15l1.48.34-2.1.27a5 5 0 0 0-4.58 5.87 4.8 4.8 0 0 0 3.3 3.44 13 13 0 0 0 4.27.38l-1.06.69c-2.3 1.51-1.82 5.54-.13 6.79 1.45 1.06 3.73 1.18 5.52 1.01l1.77-.17a4.4 4.4 0 0 0 1.36 5.4c1.83 1.1 3.67 1.3 6.84 1.15 7.22-.33 15.8-1.66 23.95-2.85 5.95-1.11 14.73-4.23 19.74-8.33a16.6 16.6 0 0 0 5.46-7.13c.06-.16.53-1.75 1.08-3.62-1.6-9.53-5.03-21.24-9.43-24.7-2.92.33-10.3-2.1-13.48-3.2-1.72-.6-3.55-.89-5.26-1.54a141 141 0 0 0-6.98-2.47c-2.64-.86-4.94-.54-6.26.74-1.37 1.33-1.33 2.84-.75 4.66a10.7 10.7 0 0 0 3.3 4.6 22 22 0 0 0 6.92 4.14 29 29 0 0 1-9.53 2.81c-7.72.85-17.46 1.95-24.44 3.01a8 8 0 0 0-.83.17m46.4-200.64a7.8 7.8 0 0 1 5.44-1.9c3.9.12 5.56 2.13 6.27 3.3 2.14 3.52 2.06 10 .64 14.01a20.4 20.4 0 0 1-6.57 9.93 15 15 0 0 1-7.03 2.55l-.44 1.12a68 68 0 0 1-2.49 5.71 74 74 0 0 1-4.56 7.78l2.07 6.23a27 27 0 0 0 2.21 5.34c2.65 4.49 8.36 7.07 13.98 8.25l.83.18a76 76 0 0 1-41.6 22.57c-5.96 1.04-12.15 1.33-18.13-.2a28 28 0 0 1-15.03-9.57c3.35-1.63 6.82-3.32 9.1-4.66a11 11 0 0 0 4.96-4.97c-8.51.47-16.3-1.73-24.06-6.66-9.37-5.96-14.4-16.52-17.2-28.54-1.62-6.92-3.2-14.47-5.14-21.98 0 0-16-42.58 43.32-42.58s53.43 34.1 53.43 34.1" class="a"/><path d="M192.42 69.07c-8.21 12.26-2.45 27.6-2.45 27.6.99 3.84 1.89 7.7 2.74 11.48 10.17-3.69 23.96-5.96 33.48-6.5l21.53-1.22a69 69 0 0 1 8.52-.13c4.66.31 9.2 1.58 13.76 2.58a126 126 0 0 0 16.73 2.51 20 20 0 0 0 8.18-.55 11 11 0 0 0 4.7-3.2c.86-3.93.64-9.07-1.18-12.06-.71-1.17-2.38-3.18-6.27-3.3a7.8 7.8 0 0 0-5.44 1.9s5.9-34.09-53.43-34.09c-23.72 0-35.39 6.81-40.87 14.98" style="fill:#d9d5e6"/><path d="M75.8 2.4C32.44 2.4 2.45 36 2.45 75.32c0 43.99 30.63 74.28 73.37 74.28 44.39 0 73.37-30.57 73.37-74.28 0-39.59-30.14-72.92-73.37-72.92m57.23 135.66a9.1 9.1 0 0 0-9.26 9.2c0 5.55 3.87 9.37 9.26 9.37 5.6 0 9.26-3.86 9.26-9.37a9.07 9.07 0 0 0-9.26-9.2m17.36 21.27a4.74 4.74 0 0 0-4.84 4.8 4.66 4.66 0 0 0 4.84 4.9 4.62 4.62 0 0 0 4.83-4.9 4.74 4.74 0 0 0-4.83-4.8" class="a"/><path d="M207.48 75.15q-.15-.45-.37-.97c-.57-1.31-1.72-1.71-2.47-1.14-6.35 4.9-13.98 20.03-14.15 25.15l-.06 1.72a90 90 0 0 1-4.42-29.7c.41-8.83 3.2-19.05 7.96-26.46 8.27-12.84 21.95-21.8 40-25.12 11.39-2.1 23.14-1.5 36.69 5.64l8.42 4.44 1.65 1.15c8.3 5.86 12.96 13.19 16.6 22.4a48 48 0 0 1 3.28 14.5c.34 5.26 1.55 17.47-1.32 24.7a9 9 0 0 0-.85-1.88c-.72-1.17-2.38-3.18-6.28-3.3a7.8 7.8 0 0 0-5.44 1.9s-1.48.43-3.06.87c-1.44.4-9.03-6.19-9.03-6.19-13.16-17.22-28-20.1-31.24-20.88a51 51 0 0 0-8.97-.34l-.82.3c-10.1 3.76-18.43 13.25-22.94 16.9a1.73 1.73 0 0 1-2.76-1.42 9 9 0 0 0-.42-2.27" style="fill:#7a7473"/><path d="M275.67 131.33c.92 2.76 1.77 5.55 2.78 8.27a18 18 0 0 0 4.1 6.88c3.5 3.44 8.34 5.32 13.05 6.33a2.46 2.46 0 0 0 2.96-1.67 2.43 2.43 0 0 0-1.68-2.95c-3.94-.85-8.07-2.28-10.93-5.1a13.4 13.4 0 0 1-3.06-5.27c-.9-2.57-1.73-5.18-2.6-7.76a2.46 2.46 0 0 0-2.95-1.68 2.4 2.4 0 0 0-1.67 2.95m-58.92 37.6c3.75-2 7.64-3.76 11.44-5.67 4.01-2.02 8.11-4 10.25-8.2a2.46 2.46 0 0 0-.86-3.29 2.4 2.4 0 0 0-3.29.86c-1.8 3.56-5.68 5.06-9.08 6.75-3.62 1.81-7.3 3.5-10.88 5.4-2.72 1.46-.3 5.6 2.43 4.15Zm62.76-137c7.06 5.02 11.9 12.1 15.14 20.06 3.34 8.17 4.05 16.91 4.1 25.66.03 4.42-.17 9-1.78 13.18a2.4 2.4 0 0 0 1.68 2.95 2.45 2.45 0 0 0 2.95-1.68c1.58-4.08 1.9-8.66 1.95-13 .05-3.86-.22-7.71-.48-11.57a57 57 0 0 0-9.8-28.35 46 46 0 0 0-11.33-11.39 2.4 2.4 0 0 0-3.29.86 2.45 2.45 0 0 0 .86 3.28M242.75 64.3a49 49 0 0 1 21.3 10.76 61 61 0 0 1 8.5 9.02 2.5 2.5 0 0 0 3.3.86 2.4 2.4 0 0 0 .85-3.28c-7.4-9.61-17.12-17.45-28.85-21q-1.9-.54-3.82-1c-3-.71-4.29 3.91-1.28 4.64m-49.86 33.9.04-.47c-.04.57-.04.25-.02.1q.09-.49.2-.97a25 25 0 0 1 .76-2.53 47 47 0 0 1 2.38-5.51 53 53 0 0 1 7.23-11.31 24 24 0 0 1 1.92-1.97l.38-.33c.5-.45.45-.06-.06-.06-1.06 0-.88-.4-.54.68.36 1.13.25 2.38.8 3.44a4.2 4.2 0 0 0 3.6 2.33c2.15.07 3.88-1.97 5.34-3.32 1.64-1.5 3.25-3.03 4.92-4.5 4.29-3.8 8.99-7.46 14.4-9.5a2.47 2.47 0 0 0 1.67-2.95 2.4 2.4 0 0 0-2.95-1.68 51 51 0 0 0-14.62 9.1c-1.9 1.6-3.72 3.28-5.53 4.96l-2.08 1.91q-.44.42-.92.82c-.56.48-1.17.66.16.43.42-.08.4.72.19-.72a10 10 0 0 0-.41-1.78 5.6 5.6 0 0 0-2.72-3.57c-2.6-1.24-4.71.9-6.36 2.68a54 54 0 0 0-8.12 12.03c-1.98 3.84-4.26 8.28-4.46 12.7-.14 3.08 4.66 3.07 4.8 0Zm47.64 4.72c-.97-2.4-.96-8.13 3.68-9.01 6.18-.5 7.1 6.35 5.3 9.75-1.49 2.8-6.4 4.32-8.98-.74m-36.61 4.28c-.91-2.42-.96-8.16 3.28-9 5.67-.42 6.58 6.44 4.95 9.84-1.33 2.78-5.82 4.25-8.23-.84m19.87 3.22a61 61 0 0 0-1.98 4.96 5 5 0 0 0-.32 1.8 3.4 3.4 0 0 0 .45 1.6 4 4 0 0 0 1.23 1.2 5 5 0 0 0 2.27.77c.33.03.64 0 .97.01a2.4 2.4 0 0 0 2.4-2.4 2.45 2.45 0 0 0-2.4-2.4c-.33 0-.64.03-.96-.01l.63.08a3 3 0 0 1-.59-.16l.58.24a3 3 0 0 1-.58-.34l.49.38-.23-.2.38.48-.09-.14.25.57-.08-.23.09.64a2 2 0 0 1 0-.45l-.09.64a10 10 0 0 1 .66-2.02q.42-1.1.87-2.17l-.24.58.44-1a2.6 2.6 0 0 0 .24-1.86 2.4 2.4 0 0 0-2.95-1.67 2.3 2.3 0 0 0-1.44 1.1" class="d"/><path d="M273.7 139.87a64 64 0 0 0 13.65-22.04 2.4 2.4 0 1 0-4.63-1.28 53 53 0 0 1-3.99 8.37 62 62 0 0 1-8.43 11.56c-2.1 2.26 1.29 5.67 3.4 3.4ZM271.87 22.2a57.6 57.6 0 0 0-30.4-6.91 71 71 0 0 0-27.82 7.65 57 57 0 0 0-20 17.05c-5.96 8.15-9.07 18.25-9.91 28.25a72 72 0 0 0 .62 15.56 90 90 0 0 0 4 17.49c1 2.9 5.64 1.65 4.63-1.28-5.99-17.4-7.32-38.56 2.84-54.72 9.12-14.51 25.53-22.83 42.23-24.89a53 53 0 0 1 31.38 5.95c2.74 1.42 5.17-2.72 2.42-4.15Z" class="d"/><path d="M261.39 142.7a59 59 0 0 1-19.15 7.98 37.6 37.6 0 0 1-20.17-1.28 35 35 0 0 1-15.58-10.68c-3.9-4.81-6.33-10.75-8.02-16.65-2.46-8.57-3.98-17.4-6.18-26.04-.77-2.99-5.4-1.72-4.63 1.28 2.08 8.13 3.6 16.4 5.76 24.5 1.73 6.54 4.27 13.07 8.31 18.55 8.74 11.84 24.06 17.45 38.47 15.5 8.49-1.15 16.34-4.56 23.6-9.02 2.64-1.6.23-5.76-2.42-4.14m27.03-52.82a5.5 5.5 0 0 1 3.74-1.2 6 6 0 0 1 2.12.4 4 4 0 0 1 .65.31l.47.3a6 6 0 0 1 .5.48c.12.13.47.6.19.2a7 7 0 0 1 .71 1.25 13 13 0 0 1 .87 4.22c.3 5.6-1.89 12.24-6.53 15.72-2.28 1.7-5.77 2.71-8.52 1.82-2.95-.96-4.21 3.67-1.28 4.63 3.8 1.23 8.34.1 11.67-1.94 3.45-2.12 5.88-5.72 7.43-9.39a24 24 0 0 0 2-11.22c-.24-3.42-1.15-7.14-3.93-9.4a10.7 10.7 0 0 0-13.48.42 2.4 2.4 0 0 0 0 3.4 2.45 2.45 0 0 0 3.4 0Zm-43.6-2.43a18.3 18.3 0 0 0 11 3.46 2.4 2.4 0 1 0 0-4.8 16 16 0 0 1-1.8-.07l-.3-.03q.57.08.17.02a19 19 0 0 1-2.47-.57q-.62-.2-1.22-.44-.36-.15.12.06l-.88-.42a16 16 0 0 1-2.2-1.36 2.4 2.4 0 0 0-1.85-.24 2.4 2.4 0 0 0-.57 4.39m16.46 11.13a57 57 0 0 0 .5 6.7c.29 1.97.59 4.23 1.97 5.76a5.9 5.9 0 0 0 5.96 1.43 6.4 6.4 0 0 0 4.17-4.58 2.4 2.4 0 1 0-4.63-1.28l-.14.45c-.16.5.25-.45 0 .01l-.23.42c-.2.37.24-.24.05-.05l-.34.34c-.17.18.41-.21.03-.04l-.3.16.27-.11-.48.13c-.5.14.51.01-.01 0a2 2 0 0 1-.5 0c0 .02.59.12.06 0l-.25-.05c.34.08-.05-.05-.15-.1-.45-.21.34.28-.02-.02q-.2-.22 0 .01t.01-.02l-.11-.23.07.18a3 3 0 0 1-.28-.91q-.13-.53-.23-1.05-.12-.64-.22-1.3l-.03-.22-.08-.64a57 57 0 0 1-.3-5 2.4 2.4 0 0 0-4.8 0Zm54.87 109.52A331 331 0 0 1 329 255.26a2.4 2.4 0 0 0 2.95 1.68 2.45 2.45 0 0 0 1.68-2.96 331 331 0 0 0-12.86-47.16 2.46 2.46 0 0 0-2.95-1.67 2.4 2.4 0 0 0-1.68 2.95" class="d"/><path d="M317.85 314.33c16.79-2.34 35.46-5.54 48.55-17.25a35.5 35.5 0 0 0 11.5-20.5 87 87 0 0 0 .45-21.27 232 232 0 0 0-4.12-27.47 234 234 0 0 0-7.16-27.6c-5.04-15.05-12.1-30.94-25.8-39.98a75 75 0 0 0-20.7-9.11 105 105 0 0 0-20.15-3.73q-1.92-.16-3.83-.23c-3.1-.1-3.09 4.7 0 4.8a89 89 0 0 1 17.33 2.4 83 83 0 0 1 20.09 7.16 44 44 0 0 1 15.45 13.05 90 90 0 0 1 10.96 21.23 193 193 0 0 1 7.54 25.7 270 270 0 0 1 4.91 27.2 115 115 0 0 1 .9 22.1 40 40 0 0 1-1.37 8.45 30 30 0 0 1-5.27 10.05c-4.93 6.26-12.13 10.46-19.48 13.3a121 121 0 0 1-24.57 6.11q-3.26.51-6.5.97a2.4 2.4 0 0 0-1.68 2.95 2.46 2.46 0 0 0 2.95 1.67" class="d"/><path d="M336.18 253.36a949 949 0 0 1-36.47 12.03c-2.95.9-1.7 5.53 1.28 4.63a951 951 0 0 0 36.47-12.03 2.46 2.46 0 0 0 1.68-2.95 2.4 2.4 0 0 0-2.96-1.68m-116.63-89.58c15.1 20.65 45.8 12.62 64.06 1.02a83 83 0 0 0 15.16-12.42c2.14-2.23-1.25-5.62-3.4-3.4a75.5 75.5 0 0 1-25.87 17.74c-9.88 4-21.74 6.79-32.25 3.81a25.3 25.3 0 0 1-13.55-9.18 2.47 2.47 0 0 0-3.28-.86 2.4 2.4 0 0 0-.87 3.29m10.04-29.37a10 10 0 0 1 1.28-.78l.34-.16.16-.07.26-.1.38-.14a17 17 0 0 1 1.68-.48l.81-.16.42-.07c.37-.08-.58.05.08-.01q.81-.1 1.62-.1l.88.02q.19 0 .38.03c.07 0 .48.06.14 0a8 8 0 0 1 1.49.39q1.05.36 2.11.7a2.4 2.4 0 0 0 1.28-4.63 28 28 0 0 0-4.24-1.17 15 15 0 0 0-3.87-.02 16.6 16.6 0 0 0-7.63 2.6 2.46 2.46 0 0 0-.86 3.29 2.43 2.43 0 0 0 3.29.86" class="d"/><path d="M219.46 160.2a186 186 0 0 0-19.63 10.94 79 79 0 0 0-15.4 12.53c-9.18 10.04-11.9 23.66-13.07 36.83q-.93 10.53-1.45 21.1a352 352 0 0 0-.62 22.69c.09 5.81.48 11.9 2.6 17.38a27.3 27.3 0 0 0 11.98 13.93c5.51 3.08 12.08 3.77 18.3 3.28a33.6 33.6 0 0 0 16.56-5.81 55 55 0 0 0 3.68-2.8 2.4 2.4 0 0 0 0-3.4 2.45 2.45 0 0 0-3.4 0 30.9 30.9 0 0 1-30.55 5.64 22.2 22.2 0 0 1-11.65-11.4c-2.07-4.65-2.52-10-2.68-15.06-.22-7.03.12-14.09.43-21.11q.45-10.36 1.29-20.7c.96-11.86 2.37-25.07 9.95-34.79 4.11-5.27 9.51-9.51 15.03-13.22a179 179 0 0 1 21.06-11.88 2.4 2.4 0 0 0 .86-3.28 2.45 2.45 0 0 0-3.29-.86Z" class="d"/><path d="M212.57 295.1a117 117 0 0 1 4.22 27.8c.09 3.08 4.89 3.1 4.8 0a122 122 0 0 0-4.4-29.07c-.82-2.97-5.45-1.71-4.62 1.27" class="d"/><path d="M207.12 184.8a116 116 0 0 1-5.1-33.13 21 21 0 0 1 1.06-7.9c.65-1.64 2.17-3.33 3.88-2.9 1.35.36 2.03 1.84 2.49 3.16a83 83 0 0 1 2.95 10.79l2.65-4.34c2.43-7.26 6.03-14.07 9.6-20.85 1.1-2.06 2.27-4.21 4.24-5.45s5-1.12 6.23.86l1.87 3.02.19-.35a9 9 0 0 1 2.35-3.1 4.46 4.46 0 0 1 6.92 2.43 7.7 7.7 0 0 1-.6 5.04l-1.6 3.69 2.23-2.3c1-1.03 3.75-.97 4.74-.18 2.37 1.88 1.5 5.35 1.04 6.63a141 141 0 0 1-3.02 7.3l2.39-2.49a4.3 4.3 0 0 1 4.96-.68 3.85 3.85 0 0 1 1.51 4.4c-2.04 7.16-7.53 18.83-11.24 26.43a40.6 40.6 0 0 1-10.54 14.64 41 41 0 0 0-3 3.73 9 9 0 0 0-1.44 2.67 1.3 1.3 0 0 1-.56.74 1.4 1.4 0 0 1-.78.05 40.4 40.4 0 0 1-20.72-8.54 27 27 0 0 1-2.7-3.36" class="a"/><path d="M209.44 184.17a113 113 0 0 1-4.56-23.03 89 89 0 0 1-.42-11.93 12 12 0 0 1 1-4.88c.33-.64.7-1.48 1.18-.75.98 1.48 1.35 3.62 1.84 5.31a86 86 0 0 1 1.6 6.57 2.4 2.4 0 0 0 4.63-1.28 86 86 0 0 0-1.67-6.79 29 29 0 0 0-2.17-6.1 5.1 5.1 0 0 0-4.9-2.83 6.3 6.3 0 0 0-4.74 3.6c-2.06 4.12-1.7 9.18-1.5 13.64a121 121 0 0 0 1.43 14.07 117 117 0 0 0 3.65 15.68c.9 2.94 5.54 1.69 4.63-1.28" class="d"/><path d="M217.36 151.12a120 120 0 0 1 7.62-16.95c1.2-2.28 2.25-5 4-6.92.8-.88 3.1-2.4 4.07-1a2.46 2.46 0 0 0 3.28.86 2.4 2.4 0 0 0 .86-3.28 6.85 6.85 0 0 0-8.36-2.27c-3.2 1.3-4.93 4.38-6.46 7.28-3.6 6.81-7.16 13.69-9.64 21-.99 2.94 3.65 4.2 4.63 1.28" class="d"/><path d="M225.98 154.16q3.49-6.92 7.1-13.77 1.78-3.37 3.59-6.72a47 47 0 0 1 3.6-6.44 2.17 2.17 0 0 1 3.47-.3c1.14 1.36.23 3.48-.37 4.87l-4.87 11.4a239 239 0 0 1-6.14 13.27c-1.4 2.75 2.74 5.18 4.14 2.42a234 234 0 0 0 6.23-13.46c1.88-4.34 3.93-8.67 5.6-13.1a8.8 8.8 0 0 0-.41-7.78 6.9 6.9 0 0 0-6.86-3.05c-2.72.42-4.47 2.37-5.76 4.66q-2.13 3.84-4.17 7.7-4.76 8.88-9.3 17.88c-1.38 2.76 2.76 5.19 4.15 2.43Z" class="d"/><path d="M248.18 135.17c-.33.29.18-.03.39-.06a5 5 0 0 1 .74 0 2 2 0 0 1 .64.17c-.35-.2.04.12.07.18a4 4 0 0 1 .21 2.87 46 46 0 0 1-2.86 7.21q-3.43 7.83-7.27 15.45c-1.4 2.75 2.74 5.18 4.14 2.42q3.53-7 6.71-14.17a158 158 0 0 0 3.39-8.06c.95-2.5 1.32-5.42-.02-7.86a6.37 6.37 0 0 0-9.54-1.54c-2.31 2.05 1.09 5.43 3.4 3.39" class="d"/><path d="M253.32 146.43c.48-.45 1.65-.78 2.22-.18.63.65.22 1.68-.01 2.42a90 90 0 0 1-2.76 7.53 284 284 0 0 1-7.36 16.18 2.46 2.46 0 0 0 .87 3.29 2.4 2.4 0 0 0 3.28-.86 253 253 0 0 0 9.1-20.52c1.14-3.02 2.84-6.55 1.42-9.73-1.77-4-7.17-4.34-10.15-1.52-2.25 2.12 1.15 5.51 3.4 3.39Z" class="d"/><path d="M245.04 173.1a41 41 0 0 1-7.3 11.64c-1.58 1.7-3.35 3.18-4.77 5.02q-1.06 1.34-2.05 2.72c-.61.86-.84 1.92-1.43 2.78l.86-.86c.27-.2.08-.09-.2-.16q-.51-.09-1.03-.16-.9-.15-1.8-.34-1.74-.36-3.46-.87a36 36 0 0 1-6.59-2.7 29 29 0 0 1-5.82-3.76 11 11 0 0 1-2.25-2.81c-1.44-2.73-5.58-.31-4.14 2.42s4.05 4.73 6.56 6.39a42 42 0 0 0 11.35 5.2 47 47 0 0 0 6.32 1.33 4.6 4.6 0 0 0 3.49-.4c.99-.66 1.21-1.67 1.7-2.67 1.69-3.41 4.97-5.78 7.42-8.58a45 45 0 0 0 7.3-11.76 2.5 2.5 0 0 0-.87-3.29 2.4 2.4 0 0 0-3.28.87Zm-45.64 15.67q-2.85 5.37-5.76 10.7a2.4 2.4 0 1 0 4.15 2.42q2.9-5.33 5.76-10.7a2.4 2.4 0 0 0-4.15-2.42" class="d"/><path d="M232.54 197.4c1.94 1.15 4.1 2.55 5.21 4.39a6.8 6.8 0 0 1 .57 5.16c-1.1 5.2-2.7 10.32-4.27 15.4-.91 2.95 3.72 4.22 4.63 1.27q1.32-4.3 2.53-8.63a59 59 0 0 0 2.05-8.7 10.8 10.8 0 0 0-1.58-7.27 20 20 0 0 0-6.72-5.77c-2.66-1.58-5.08 2.57-2.42 4.15m43.04 83.05c-2.91-1.15-6.2-3.17-7.85-5.9-.46-.78-1.2-2.24-.65-3.13.58-.97 2.16-.89 3.11-.7 3.67.7 7.07 2.6 10.69 3.54 2.7.7 5.3 1.7 7.98 2.47 2.73.8 5.89 1.84 8.77 1.57a2.47 2.47 0 0 0 2.4-2.4 2.4 2.4 0 0 0-2.4-2.4c-2.63.24-5.62-.82-8.31-1.64q-2.12-.64-4.21-1.37c-1.97-.67-4.02-1.06-5.97-1.8q-3.06-1.16-6.2-2.18a10.4 10.4 0 0 0-6.3-.34 6.4 6.4 0 0 0-4.21 3.97 8.3 8.3 0 0 0 .77 6.11c2.07 4.29 6.84 7.15 11.1 8.83a2.4 2.4 0 0 0 2.95-1.68 2.46 2.46 0 0 0-1.67-2.95" class="d"/><path d="M274.12 280.66c-6.74 3.16-14.4 3.2-21.68 4.08q-5.43.65-10.84 1.43c-3.13.46-6.28 1.87-7.15 5.21a7 7 0 0 0 5.07 8.3c2.99.78 4.26-3.85 1.27-4.63a2.2 2.2 0 0 1-1.74-2.26c-.02-.48-.1.2.05-.24q.14-.4.03-.1l.26-.43c-.21.28.44-.4.33-.32a3 3 0 0 1 .59-.35c1.61-.75 3.9-.75 5.64-.98q2.8-.37 5.63-.72 6.2-.75 12.41-1.43a43 43 0 0 0 6.06-.95 37 37 0 0 0 6.49-2.47 2.4 2.4 0 0 0 .86-3.28 2.45 2.45 0 0 0-3.28-.86" class="d"/><path d="M264.01 292.6q-7.97.9-15.94 1.89-4.06.5-8.12 1.03a8.4 8.4 0 0 0-6.2 3.3 7.08 7.08 0 0 0 4.29 10.88c4.18 1.02 8.9-.15 13.1-.67q7.97-.99 15.93-2.07a2.4 2.4 0 0 0 1.68-2.95 2.46 2.46 0 0 0-2.95-1.68q-11.03 1.51-22.09 2.81c-1.73.2-4.32.54-5.75-.73a3 3 0 0 1-.57-.78 2 2 0 0 1-.12-.42c.1.38 0 .04 0-.06a2.4 2.4 0 0 1 .33-1.45c.67-1.13 2.1-1.35 3.58-1.54q3.66-.48 7.33-.93 7.74-.96 15.5-1.83a2.47 2.47 0 0 0 2.4-2.4 2.4 2.4 0 0 0-2.4-2.4" class="d"/><path d="M240.26 306.28a6.84 6.84 0 0 0-2.25 8.12c1.33 3.4 4.95 4.39 8.33 4.19 7.63-.44 15.27-1.64 22.85-2.6a2.5 2.5 0 0 0 2.4-2.4 2.4 2.4 0 0 0-2.4-2.4c-6.1.77-12.21 1.54-18.34 2.17-2.5.26-5.47 1-7.87-.02a1.5 1.5 0 0 1-.66-1.2 3 3 0 0 1 .05-1.09 1 1 0 0 1 .31-.62 2.47 2.47 0 0 0 .86-3.29 2.4 2.4 0 0 0-3.28-.86m62.08 4.67c1.44 1.44 3.42 2.54 5.47 1.75a4.4 4.4 0 0 0 2.58-4.44 58 58 0 0 0-1.06-8.58 77 77 0 0 0-5.32-18.58c-1.11-2.49-2.53-5.15-4.68-6.9a2.47 2.47 0 0 0-3.4 0 2.4 2.4 0 0 0 0 3.4 11 11 0 0 1 1.16 1.11 8 8 0 0 1 .87 1.2 27 27 0 0 1 1.91 3.61 60 60 0 0 1 3.1 9.31 98 98 0 0 1 2.06 10.18q.29 1.9.47 3.98l.07 1.02q.03.3.02.59a.1.1 0 0 1 .08-.09c.04.02.86-.6.85-.32 0 .12-.85-.7-.79-.63-2.2-2.18-5.6 1.21-3.4 3.39Z" class="d"/><path d="M246.21 315.58a7 7 0 0 0 1.57 7.12 9.7 9.7 0 0 0 5.93 2.22 44 44 0 0 0 7.34-.28q4.05-.36 8.1-.9c5.1-.67 10.35-1.15 15.33-2.44a56 56 0 0 0 12.97-5.05c4.65-2.56 9.05-6.25 10.84-11.4a2.4 2.4 0 0 0-4.62-1.27c-1.22 3.48-4.46 6.05-7.52 7.88a48 48 0 0 1-10.86 4.63 84 84 0 0 1-12.36 2.32c-4.59.65-9.19 1.26-13.81 1.58-2.4.17-9.66 1.26-8.28-3.14.93-2.95-3.7-4.22-4.63-1.28ZM218.64 96.95q.3 2.02.8 4a2.4 2.4 0 0 0 2.96 1.68 2.4 2.4 0 0 0 1.43-1.1 2.5 2.5 0 0 0 .24-1.85q-.5-1.99-.8-4a2.7 2.7 0 0 0-1.1-1.44 2.5 2.5 0 0 0-1.85-.24 2.4 2.4 0 0 0-1.44 1.1l-.24.57a2.4 2.4 0 0 0 0 1.28m7.57-.27q.3 2.02.8 4a2.4 2.4 0 0 0 2.96 1.67 2.4 2.4 0 0 0 1.43-1.1 2.5 2.5 0 0 0 .24-1.85q-.5-1.98-.8-4a2.7 2.7 0 0 0-1.1-1.43 2.5 2.5 0 0 0-1.85-.24 2.4 2.4 0 0 0-1.43 1.1l-.24.57a2.4 2.4 0 0 0 0 1.28Z" class="d"/><path d="m39.55 51.63-.66-.28a2 2 0 0 1-.54-.36 4 4 0 0 1-.49-.41 2.4 2.4 0 0 1-.68-2.36c.25-.7.9-1.18 1.14-1.88.42-1.27-.76-2.92-.22-4.14a2.5 2.5 0 0 1 2.15-1.52c.78-.16 1.7-.23 2.12-.9a4 4 0 0 0 .31-1.12 2.3 2.3 0 0 1 2.26-1.87 3 3 0 0 1 1.7.3 4 4 0 0 0 1.01.57c.77.19 1.47-.43 2.13-.87a2.8 2.8 0 0 1 2.8-.5c1.17.65 1.39 2.52 2.59 3.1.66.33 1.47.2 2.13.52a2.4 2.4 0 0 1 1.2 2.14 4 4 0 0 1-.05.63 3 3 0 0 1-.12.64 4 4 0 0 0-.35 1.1c-.03.8.7 1.36 1.27 1.92a2.8 2.8 0 0 1 .93 2.68c-.4 1.27-2.09 1.82-2.43 3.11-.19.72.09 1.49-.1 2.2a2.4 2.4 0 0 1-1.85 1.6c-1.28.26-2.6-.52-3.78-.18-1.17.55-1.34 1.97-2.38 2.65a2.4 2.4 0 0 1-2.44.2c-.63-.37-.99-1.1-1.62-1.47-1.16-.67-2.74.15-3.93-.46a2.8 2.8 0 0 1-1.25-2.54c0-.8.11-1.72-.47-2.25a2 2 0 0 0-.38-.25" class="e"/><path d="M75.8 0C59.35.04 42.94 4.92 29.73 14.9A74.7 74.7 0 0 0 3.51 52.27a83.3 83.3 0 0 0-.02 47.75 71.8 71.8 0 0 0 24.55 36.48c12.23 9.47 27.25 14.46 42.62 15.36 15.74.91 32-2.13 45.72-10.08a68.5 68.5 0 0 0 28.2-31.65 86 86 0 0 0 6.04-47.05 75 75 0 0 0-20.33-40.88A74.2 74.2 0 0 0 88.6 1a86 86 0 0 0-12.78-1c-3.1 0-3.1 4.8 0 4.8a72.5 72.5 0 0 1 43.34 13.98 69 69 0 0 1 24.37 34.82 80 80 0 0 1 .22 44.74 66.3 66.3 0 0 1-21.95 33.96c-11.05 8.92-25.19 13.65-39.34 14.67-14.81 1.06-29.97-1.46-43.05-8.7a65.7 65.7 0 0 1-27.68-29.9 78 78 0 0 1-6.07-44.11 71 71 0 0 1 18.9-38.46A70 70 0 0 1 63.92 5.68 78 78 0 0 1 75.8 4.8c3.09 0 3.09-4.8 0-4.8m57.23 135.66a11.7 11.7 0 0 0-11.14 8.1 12 12 0 0 0 3.78 12.82 12.5 12.5 0 0 0 13.5.9c4.27-2.44 6.05-7.5 5.34-12.21a11.6 11.6 0 0 0-11.48-9.61c-3.09-.04-3.09 4.76 0 4.8a7 7 0 0 1 4.4 1.47c-.35-.28.24.22.25.22l.33.33.47.52c-.25-.3.06.09.12.17a6 6 0 0 1 1 2.08 8 8 0 0 1-.03 4.4q-.07.28-.17.55c-.02.04-.32.71-.1.27a10 10 0 0 1-.53.97l-.31.45c-.24.33.37-.37-.1.11q-.44.48-.93.9c.38-.31-.17.12-.22.15l-.37.24-.59.31c-.61.34.24-.07-.15.07a10 10 0 0 1-1.23.38l-.47.1q-.43.06-.1.02l-.5.04a11 11 0 0 1-1.28.02l-.74-.06c.12.01.37.08-.08-.03q-.65-.13-1.26-.32l-.54-.2c.41.18-.28-.15-.35-.2a8 8 0 0 1-1.04-.66c.32.24.02 0-.03-.05l-.48-.46a6 6 0 0 1-1.16-1.7c-.34-.62.1.38-.13-.29l-.15-.44a10 10 0 0 1-.33-1.41c.02.1.02.38 0-.11q-.05-.39-.05-.78v-.63c0-.1.08-.89.02-.46a6.6 6.6 0 0 1 2.18-4.26c0-.01.6-.5.24-.23l.58-.4q.3-.2.63-.36c.03-.02.67-.3.3-.16a9 9 0 0 1 1.44-.43 6 6 0 0 1 1.46-.13c3.09-.04 3.1-4.84 0-4.8m17.36 21.27a7.3 7.3 0 0 0-6.93 5.07 7.4 7.4 0 0 0 2.39 7.9 7.7 7.7 0 0 0 8.32.56 7.4 7.4 0 0 0 3.32-7.67 7.2 7.2 0 0 0-7.1-5.86 2.4 2.4 0 1 0 0 4.8l.42.01c.5.02-.58-.13-.1-.01l.63.16.25.09c-.54-.1-.36-.17-.11-.04l.63.4c-.55-.3-.28-.22-.11-.06l.18.17.24.28c-.4-.33-.25-.36-.12-.15l.34.58c.1.16.07.34-.09-.24l.16.47.14.62c-.17-.62-.04-.42-.04-.2l.01.33c0 .22-.05.44-.03.66-.04-.62.06-.4 0-.14a6 6 0 0 1-.18.7c-.1.26-.27.36.06-.13l-.28.51-.16.24c-.15.25.43-.48.13-.18q-.25.23-.49.48c.42-.46.33-.25.12-.1l-.2.12-.3.16c-.39.21.48-.15.19-.07l-.64.2-.25.05c-.4.09.66-.05 0-.01h-.67l-.39-.02c.01 0 .65.12.26.02q-.33-.07-.65-.17l-.29-.1c.68.2.3.13.1.02s-.36-.24-.55-.35c.63.38.16.1-.03-.08l-.2-.22c-.21-.2.36.53.13.17q-.19-.3-.36-.62c-.22-.4.2.57.05.13l-.08-.23c-.07-.23-.08-.51-.17-.74.01.03.05.64.04.25l-.03-.4v-.33c.01-.25.16-.62-.03.07l.17-.73.13-.35-.15.34.11-.22.4-.62c-.32.56-.23.28-.07.11l.26-.26c.17-.15.44-.24-.11.06l.3-.2.56-.3-.34.14c.24-.03.5-.17.75-.23l.13-.02q.38-.07-.23.02l.56-.02a2.4 2.4 0 1 0 0-4.8Z" class="d"/><path d="M115.56 63.78a8 8 0 0 0-.96-5.23l-.7-1.32c-15 4.43-33.77 11.86-45.55 19.57a73 73 0 0 0-28.44 34.41l.26.13c5.14 2.22 10.95.8 16.28-.97 5.27-1.75 10.64-3.56 15.05-6.92 9.99-7.6 13.7-22.07 24.83-27.86 4.2-2.18 11.03-4.11 15.12-6.5a7.9 7.9 0 0 0 4.11-5.31" style="fill:#f6928f"/><path d="M34.54 104.62a6 6 0 0 1 .06-1.23c.94-6.16 5.1-13.8 9.84-19.34a74 74 0 0 1 12.9-10.7c14.1-8.9 23.4-15.44 39.6-19.36 5.59-1.36 12.54-1.18 15.89 1.87a9 9 0 0 1 1.08 1.37C98.9 61.66 80.13 69.1 68.35 76.8a73.2 73.2 0 0 0-28.45 34.41c-1.61-.76-2.45-.95-3.63-2.44a7.5 7.5 0 0 1-1.73-4.15" class="a"/><path d="M41.18 109.62a9 9 0 0 1-3.34-2.08 5.3 5.3 0 0 1-1.16-4.48 34 34 0 0 1 3.74-9.68 43 43 0 0 1 6.1-8.66 63 63 0 0 1 6.9-6.12 98 98 0 0 1 8.27-5.65c3.02-1.92 6.03-3.85 9.1-5.69a99 99 0 0 1 17.96-8.78c6.23-2.2 13.7-4.73 20.27-2.52a7 7 0 0 1 4.5 5.36c.7 2.92-1.24 5.06-3.65 6.37-5.71 3.09-12.42 4.21-17.68 8.15-5 3.76-8.45 9.03-11.89 14.16s-7.04 10.28-12.45 13.5a53 53 0 0 1-10.31 4.4c-3.7 1.25-7.52 2.57-11.48 2.58a14 14 0 0 1-5.36-1.07 2 2 0 0 0-2.46 1.4 2.05 2.05 0 0 0 1.4 2.46c4.02 1.66 8.46 1.38 12.62.4a79 79 0 0 0 11.98-3.98 36 36 0 0 0 10.13-6.02 45 45 0 0 0 6.62-7.63c3.8-5.28 6.96-11.16 11.83-15.57 5.23-4.74 12.48-5.93 18.62-9.09 3.17-1.64 5.79-4.26 6.17-7.96a12 12 0 0 0-3.35-8.96c-2.39-2.34-6.08-3.07-9.3-3.25a36 36 0 0 0-11.54 1.62 93 93 0 0 0-20.7 8.68 220 220 0 0 0-9.68 5.85c-3.24 2.04-6.56 4-9.65 6.27a84 84 0 0 0-8.22 6.8 43 43 0 0 0-6.68 8.35 44 44 0 0 0-5.09 10.9 14 14 0 0 0-.81 5.36 10 10 0 0 0 2.63 5.57 12 12 0 0 0 3.94 2.46c2.31 1.1 4.34-2.34 2.02-3.45" class="d"/><path d="M42.73 109.56A72 72 0 0 1 64 82.37c9.14-7.23 20.06-12.19 30.83-16.44q9.65-3.82 19.6-6.77c2.46-.73 1.42-4.6-1.06-3.86a216 216 0 0 0-35.51 13.8c-10.51 5.28-20.14 12.1-27.74 21.15a73 73 0 0 0-10.84 17.28 2.06 2.06 0 0 0 .72 2.74 2 2 0 0 0 2.74-.72Z" class="d"/><path d="M43.62 83.8a25 25 0 0 0 .26 6.46q.34 3.23.84 6.45a2 2 0 0 0 2.47 1.4 2.06 2.06 0 0 0 1.4-2.46l-.15-.93-.08-.63-.05-.32c-.04-.35.07.53 0-.04q-.23-1.73-.42-3.47a69 69 0 0 1-.39-4.85v-.58l.01-.2c0-.42-.08.51-.04.24a2.05 2.05 0 0 0-1.4-2.46 2 2 0 0 0-2.46 1.4Zm7.27-4.6c.03 2.66.21 5.33.25 8a2 2 0 0 0 4 0c-.04-2.67-.22-5.34-.25-8a2 2 0 0 0-4 0" class="d"/><path d="M79.29 292.95q8.4 5.25 16.9 10.36c.97.58 1.94 1.2 2.94 1.74a3.54 3.54 0 0 0 4.76-.8q2.65-3.31 5.24-6.63l3.2-4.04a26 26 0 0 1 2.68-3.3l-1.06.62c-.34.14-.95-.35-.26.06q.4.24.8.44l1.73.94 4.23 2.3 4.09 2.25c1.39.77 2.87 1.9 4.54 1.48 2.07-.54 2.64-2.73 3.41-4.47l2.29-5.22a4 4 0 0 0 .4-.91c.03-.24.45-.6-.25.01-.61.54-.33.22.06.29a18 18 0 0 0 3.07-.03l5.8-.04q6.12-.01 12.24.04c3.09.04 3.09-4.76 0-4.8q-5.45-.06-10.9-.04-3.13 0-6.25.03c-1.86.01-4.28-.34-6.03.3-1.73.63-2.23 2.59-2.9 4.12q-1.21 2.78-2.44 5.55a4 4 0 0 0-.29.65l-.2.43 1.64-.55c-.02-.1-.67-.37-.78-.44l-2.05-1.13-4.5-2.46-4-2.17c-1.34-.73-2.81-1.8-4.42-1.38-1.38.37-2.1 1.57-2.93 2.62l-2.47 3.12-5.48 6.9q-.51.66-1.03 1.3c-.12.16-.9.94-.86 1.1-.13-.5 1.7.38 1.4-.25-.02-.05-.18-.09-.23-.13a4 4 0 0 0-.62-.36l-1.45-.87a977 977 0 0 1-17.6-10.79c-2.63-1.64-5.05 2.51-2.43 4.15Zm3.53-48.25q5.67 8.17 11.48 16.24.98 1.38 2 2.74a3.7 3.7 0 0 0 5.13 1.2c2.47-1.26 4.9-2.64 7.32-3.98l4.5-2.46 2.03-1.1.8-.44.27-.15c.6-.4.15.22-.38 0l-1.06-.6a34 34 0 0 1 3.82 4.73q2.28 2.9 4.53 5.83c.84 1.08 1.58 2.38 2.99 2.77 1.8.5 3.08-.68 4.3-1.8l3.28-3.12 1.39-1.32.75-.7.3-.27q.46-.47.22-.16h-1.27a23 23 0 0 1 3.8 1.6l3.6 1.6q3.88 1.7 7.79 3.36a2.5 2.5 0 0 0 3.28-.86 2.4 2.4 0 0 0-.86-3.29c-4.53-1.9-9.02-3.9-13.52-5.89-1.28-.56-2.65-1.44-4.1-1.15-1.34.27-2.27 1.33-3.24 2.23q-1.33 1.25-2.65 2.52l-1.48 1.4-.86.8-.35.33q-.45.35.25 0l1.21.33q.25.48-.12-.07l-.45-.58-.94-1.21-1.82-2.36-3.53-4.53a43 43 0 0 0-2.67-3.36c-1.53-1.59-3.4-1.04-5.1-.12q-3.86 2.09-7.71 4.22l-4.11 2.24-1.6.87-.77.41-.34.19q-.57.28.54-.12l1.06.61c.11.1-.32-.34-.42-.48l-.6-.8-1.4-1.95q-1.85-2.57-3.68-5.15-3.76-5.3-7.46-10.62a2.46 2.46 0 0 0-3.28-.86 2.4 2.4 0 0 0-.86 3.28Z" style="fill:#f2635f"/><path d="m101.33 102.22-.35-.15a1 1 0 0 1-.28-.19l-.26-.22a1.2 1.2 0 0 1-.35-1.23c.13-.37.47-.63.6-1 .22-.66-.4-1.53-.12-2.17a1.3 1.3 0 0 1 1.13-.8c.4-.08.9-.12 1.11-.47a2 2 0 0 0 .17-.6 1.2 1.2 0 0 1 1.18-.97 2 2 0 0 1 .9.16 2 2 0 0 0 .53.3c.4.1.77-.23 1.12-.46a1.5 1.5 0 0 1 1.47-.26c.61.34.72 1.32 1.36 1.63.34.16.77.1 1.12.27a1.2 1.2 0 0 1 .63 1.12l-.03.33a1 1 0 0 1-.06.34 2 2 0 0 0-.19.58c-.02.41.37.71.67 1a1.5 1.5 0 0 1 .49 1.41c-.22.67-1.1.96-1.28 1.64-.1.37.05.78-.05 1.15a1.3 1.3 0 0 1-.97.84c-.68.14-1.37-.27-2-.1-.6.3-.7 1.04-1.24 1.4a1.2 1.2 0 0 1-1.28.1c-.33-.2-.52-.58-.86-.77-.6-.35-1.43.08-2.06-.24a1.5 1.5 0 0 1-.65-1.33c0-.42.06-.9-.25-1.19z" class="e"/></svg>
