<svg xmlns="http://www.w3.org/2000/svg" viewBox="-72.78 0 364.257 364.257"><defs><style>.b{fill:#fff}.c{fill:#211715}.d{fill:#ffda71}.e{fill:#d9d9d9}.l{fill:#f6928f}.m{fill:#b3b3b3}</style></defs><path d="M132.73 77.6a7.3 7.3 0 0 0-2.7-4.02l-1.05-.86c-10.95 9.13-23.94 22.13-31 32.84a66.6 66.6 0 0 0-11.34 39.05l.27.01c5.1 0 9.44-3.28 13.26-6.7 3.77-3.37 7.6-6.82 10.08-11.23 5.59-9.97 3.46-23.4 10.68-32.27 2.72-3.34 7.73-7.42 10.29-10.9a7.2 7.2 0 0 0 1.51-5.92" style="fill:#febe69"/><path d="M31.76 191.81c1.77-17.08 45.72-22.93 81.2-22.93 36.22 0 81.25 6.1 81.25 24 0 15.47-46.15 23.17-81.25 23.15-35.1.02-81.25-7.68-81.25-23.15a11 11 0 0 1 .05-1.07" class="b"/><path d="M196.2 192.88c-.07-9.63-10.35-14.73-18.13-17.58-12.75-4.68-26.66-6.37-40.12-7.45a316 316 0 0 0-44.56-.38c-13.88.85-28.06 2.38-41.4 6.45a52 52 0 0 0-14.5 6.48c-3.35 2.32-6.44 5.45-7.42 9.53a13 13 0 0 0-.36 2.95c-.02 2.58 3.98 2.58 4 0a10 10 0 0 1 .08-1.27c-.05.36 0-.04.04-.18l.16-.7a11 11 0 0 1 .37-1.1c.1-.29-.13.27 0-.01l.12-.25.33-.65a13 13 0 0 1 3.34-3.84c3.29-2.77 7.9-4.76 12.15-6.22 12.37-4.25 25.66-5.89 38.64-6.88a317 317 0 0 1 42.61-.37c13.41.78 27.02 2.23 39.97 5.96a53 53 0 0 1 13.93 5.84 19 19 0 0 1 4.38 3.68 10 10 0 0 1 2.1 3.85l.14.6c.03.1.12.7.06.27a10 10 0 0 1 .08 1.27c.02 2.57 4.02 2.58 4 0Zm-95.31 14.8a26.6 26.6 0 0 1 28.91-1.12c2.2 1.35 4.22-2.11 2.02-3.45a30.5 30.5 0 0 0-32.95 1.1 2.06 2.06 0 0 0-.72 2.75 2 2 0 0 0 2.74.71Z" class="c"/><path d="M83.05 185.3c7.4-4.5 16.61-2.9 22.91 2.77 1.9 1.72 4.74-1.1 2.83-2.83-7.6-6.86-18.79-8.85-27.76-3.4-2.2 1.34-.19 4.8 2.02 3.46" class="c"/><path d="M87.85 181.8a10 10 0 0 1 3.37-4.15 67 67 0 0 1 9.74-6c5.56-2.87 10.79-5.28 15.25-9.21a46 46 0 0 0 8.07-9.27c4.57-7 6.33-15.51 10.82-22.55a10.3 10.3 0 0 1 4.34-3.97 5.3 5.3 0 0 0 3.22-3.6 38 38 0 0 1 1.67-5.25 11 11 0 0 1 2.85-3.89 3.23 3.23 0 0 1 4.7.58l.03.05a2.8 2.8 0 0 1 .09 3.25 17 17 0 0 0-2.7 8.08 4.5 4.5 0 0 0 1.27 3.62c4.5 4.33 5.1 11.95 4.08 19.78-.95 7.28-6.43 15.82-8.4 18.45-11.15 14.9-25.63 21.75-43.25 24.6a29 29 0 0 1-9.98-.28 7.3 7.3 0 0 1-5.5-5.37 8.4 8.4 0 0 1 .33-4.87" class="d"/><path d="M89.57 182.8c1.43-3.15 4.64-4.97 7.5-6.7 3.4-2.04 6.97-3.74 10.46-5.58a48.5 48.5 0 0 0 18.23-15.97c4.43-6.65 6.23-14.58 10.19-21.47a11 11 0 0 1 3.44-4.14c1.56-1 3.04-1.54 4.16-3.11s1.35-3.64 1.96-5.44a11 11 0 0 1 2.62-4.63c.82-.78 2.34-.79 2.34.48 0 .67-.87 1.6-1.16 2.18a19 19 0 0 0-1.16 2.88 14 14 0 0 0-.77 6.03c.3 2.04 1.56 3.1 2.75 4.63 2.01 2.58 2.71 6.02 2.9 9.2a33 33 0 0 1-1.05 11.05 47 47 0 0 1-8.72 16.14 58 58 0 0 1-15.2 13.33 66 66 0 0 1-18.54 7.32 46 46 0 0 1-10.77 1.64c-3.18-.02-7.4-.14-8.97-3.45a6.3 6.3 0 0 1 0-4.86 2 2 0 0 0-1.4-2.46 2.05 2.05 0 0 0-2.47 1.4 9.6 9.6 0 0 0 2.7 10.76c3.24 2.64 8.08 2.8 12.08 2.56a61 61 0 0 0 11.5-2.14 75 75 0 0 0 10.6-3.62 60.3 60.3 0 0 0 30.11-28.25 37 37 0 0 0 3.6-23.6 20 20 0 0 0-1.8-5.23 15 15 0 0 0-1.43-2.21 18 18 0 0 1-1.7-2c-.9-1.64.1-4.4.7-6 .74-2 2.4-3.56 2.14-5.84-.5-4.35-5.73-5.78-8.8-3.07a13 13 0 0 0-3.5 5.35q-.51 1.37-.93 2.78a9 9 0 0 1-.99 2.9 4.6 4.6 0 0 1-1.78 1.26 12 12 0 0 0-2.73 1.86 19 19 0 0 0-3.61 5.02 119 119 0 0 0-5.18 11.75c-3.33 8.03-8.29 15.27-15.63 20.15-7.13 4.75-15.68 7.4-22.17 13.12a12 12 0 0 0-2.98 3.97 2.06 2.06 0 0 0 .72 2.73 2 2 0 0 0 2.74-.71" class="c"/><path d="M142.98 144.58a25.5 25.5 0 0 1-12.15 21.56c-2.2 1.33-.2 4.79 2.02 3.45a29.6 29.6 0 0 0 14.13-25c0-2.58-4-2.58-4 0" class="c"/><path d="M181.15 154.67c-7.72 2.27-16.62 7.05-15.28 11.62 1.52 5.2 13.93 3.19 20.42 1.28 7-2.05 16.56-5.94 14.98-11.32-1.43-4.88-13.29-3.58-20.12-1.58" class="e"/><path d="M201.59 157.08c.95 3.25 2.74 8.71 4.07 12.96a3.5 3.5 0 0 1-1.24 3.6c-3.45 3.18-7.92 4.76-12.3 6.2-5.81 1.92-12.34 3.8-18.5 3.48a4.2 4.2 0 0 1-3.95-2.93c-1.28-4.44-2.93-10.28-3.93-13.72l.13-.39c1.52 5.2 13.93 3.19 20.42 1.28 7-2.05 16.56-5.94 14.99-11.32Z" style="fill:#7abee6"/><path d="M199.66 157.61c1.15 3.9 2.44 7.77 3.66 11.66.22.7.67 1.49.31 2.2a6.6 6.6 0 0 1-2.2 2.03 27 27 0 0 1-5.87 3.03 87 87 0 0 1-13.32 4.01 35 35 0 0 1-7.27.82c-1.78 0-3-.2-3.53-2.04q-1.88-6.6-3.78-13.17c-.72-2.47-4.58-1.42-3.85 1.06 1.3 4.44 2.5 8.92 3.83 13.35a6.3 6.3 0 0 0 4.44 4.54c2.51.66 5.48.21 8-.14a77 77 0 0 0 15.76-4.28 35 35 0 0 0 6.92-3.26c2-1.28 4.36-2.94 4.9-5.4a7.6 7.6 0 0 0-.55-4q-.62-2-1.26-3.97-1.22-3.74-2.34-7.5c-.72-2.47-4.59-1.42-3.86 1.06Z" class="c"/><path d="M180.62 152.74a43 43 0 0 0-11.06 4.85c-2.6 1.68-5.6 4.11-5.8 7.46-.42 6.6 8.47 6.82 12.95 6.4a55 55 0 0 0 19.22-5.4c2.66-1.34 5.63-3.19 6.91-6a5.86 5.86 0 0 0-1.92-7.38c-2.64-1.82-6.35-1.9-9.43-1.76a48 48 0 0 0-10.87 1.83c-2.47.72-1.42 4.58 1.06 3.86a44 44 0 0 1 7.68-1.53 22 22 0 0 1 7.48.18c.33.08.98.27 1.12.33l.59.3a2 2 0 0 1 .34.24 1.5 1.5 0 0 1 .56 1.52c-.21 1.82-2.69 3.38-4.32 4.3a49 49 0 0 1-15.47 5.1 32 32 0 0 1-7.64.5 9 9 0 0 1-2.96-.63 8 8 0 0 1-.84-.5c.22.18-.13-.15-.18-.2-.17-.23-.03.05-.18-.3-.09-.22-.01 0 0 .03a1 1 0 0 1-.12-.42c.02.24 0-.43 0-.33a3 3 0 0 1 .56-1.27 11 11 0 0 1 2.97-2.69 38 38 0 0 1 10.41-4.64c2.46-.72 1.41-4.58-1.06-3.85" class="c"/><path d="M45.6 146.99c-2.74.5-2.46-1.17-2.5-1.42-.63-3.25-1.4-7.46-1.56-8.35a2.17 2.17 0 0 1 1.7-2.8l10.33-1.92a2.13 2.13 0 0 1 2.57 1.85l1.6 8.49c.07.37.36 1.81-1.83 2.22z" class="b"/><path d="m57.87 216.07-.77.15c-2.69.5-6.7.53-7.95-.96-1.03-1.21-1.77-3.43-2.34-6.5-2.74-14.65-4.92-27.81-7.5-42.34a15.4 15.4 0 0 1 1.5-9.8c.28-.54.58-1.16.93-1.95.57-1.29 2.31-4.8 3.23-7.56l10.94-2.05 1.03-.2c3.53 3.51 5.07 4.84 6.07 5.84.72.72 1.3 1.25 1.82 1.7a14 14 0 0 1 4.59 7.9c2.88 14.7 5.62 27.86 8.39 42.67.66 3.54 1.22 5.99-.43 7.78-1.45 1.58-4.37 2.5-6.48 2.89Z" style="fill:#bbdef2"/><path d="m71.06 168.62-.29-1.44-.6.1c-6.2 1.15-24.4 4.58-28.86 5.41l-.86.2 2.87 16.46.34-.09a564 564 0 0 1 30.02-5.46l.4-.07z" style="fill:#3d8dcc"/><path d="M56.67 147.42c1.52 1.48 3.09 2.92 4.62 4.4 1.64 1.59 3.48 3 4.67 5 1.5 2.52 1.82 5.5 2.38 8.34l1.87 9.37q1.85 9.24 3.66 18.48.93 4.76 1.82 9.53c.25 1.32.56 2.65.7 3.99a4.3 4.3 0 0 1-.22 2.52c-1 1.79-4.08 2.33-5.88 2.68q-2.43.47-4.85.9c-3.51.66-7.15 1.68-10.72 1.88a11 11 0 0 1-3.07-.16 1.8 1.8 0 0 1-1.5-1.19c-1.23-2.34-1.48-5.27-1.96-7.83q-1.72-9.38-3.34-18.77l-1.86-10.68c-.6-3.5-1.41-7.02-1.83-10.55-.38-3.28.61-6 1.97-8.9 1.2-2.58 2.42-5.16 3.42-7.8a2 2 0 0 0-1.4-2.47 2.04 2.04 0 0 0-2.46 1.4c-2.02 5.35-5.65 10.33-5.61 16.24.02 3.29.92 6.63 1.48 9.85l1.78 10.27a2356 2356 0 0 0 3.6 20.31c.57 3.1.93 6.37 2.05 9.34.88 2.34 2.19 4.13 4.75 4.67 4.12.88 8.46-.38 12.52-1.14 4.21-.78 8.92-1.16 12.82-3.02a7 7 0 0 0 4.33-5.63c.3-2.9-.7-6.07-1.23-8.9q-1.9-10.05-3.92-20.09l-2.32-11.58-1.13-5.69a27 27 0 0 0-1.25-5.01c-1.23-3.04-3.23-5.1-5.55-7.31q-2.78-2.63-5.51-5.27c-1.84-1.8-4.67 1.02-2.83 2.83Z" class="c"/><path d="m45.06 145.06-.6.02c.07 0 .27.1.13 0-.24-.14.31.22.1.07a1 1 0 0 1 .4.6v-.18c-.07-.77-.26-1.54-.4-2.3-.4-2.13-.77-4.28-1.2-6.41-.01-.1-.02-.44-.01-.08v-.44c0 .1-.12.43 0 .12.02-.04.07-.28-.01-.03-.1.28.03-.11.1-.16l-.26.26c.04-.05.32-.14.03-.05q.25-.08.5-.13l.61-.11 4.75-.89 4.45-.83.4-.07c-.18.02.31-.09.07 0-.2.08.1.03.08.03.08-.03-.37-.05-.05.01l-.17-.13q.19.2.04.01c-.07-.26.05.18.13.25-.22-.18-.1-.37-.06-.15l.06.19.28 1.42 1.3 6.92.07.4c.08.31-.05-.55-.03-.23.01.17-.05.6.04-.04-.06.42.03-.04.2-.23-.21.24 0 .03.07 0l-.31.17c.26-.11-.42.07-.42.07l-.56.1za2 2 0 0 0-1.4 2.46 2.04 2.04 0 0 0 2.47 1.4l9.88-1.85a5 5 0 0 0 2.85-1.34 3.7 3.7 0 0 0 .84-3.28c-.4-2.4-.9-4.8-1.35-7.2a8 8 0 0 0-.93-3 4 4 0 0 0-3.88-1.75c-1.6.2-3.18.58-4.76.87l-5.47 1.02a5 5 0 0 0-2.67 1.2 4.2 4.2 0 0 0-1.13 3.35c.1 1.07.36 2.14.55 3.2l.93 4.97.1.5c.08.37.03.15.02.03l.02.3a3.5 3.5 0 0 0 .47 1.6c.99 1.6 2.88 1.66 4.54 1.38a2 2 0 0 0 1.4-2.46 2.05 2.05 0 0 0-2.46-1.4Z" class="c"/><path d="m41.02 198.42-3.92 3.05c9.56 7.06 30.5 11.55 51.93 13.48l-2.45-5.37c-1.78-6.34-7.67-10.26-10.53-11-3.87-1.02-8.52-1.54-12.27-.16-5.53-4.9-17.32-4.6-21.98-.6Z" class="b"/><path d="m41.84 174.62 28.85-5.42c2.53-.47 1.46-4.33-1.06-3.85l-28.85 5.42c-2.53.47-1.46 4.32 1.06 3.85m2.35 16.57a552 552 0 0 1 30.02-5.46 2 2 0 0 0 1.4-2.46 2.05 2.05 0 0 0-2.46-1.4 551 551 0 0 0-30.02 5.46c-2.51.55-1.45 4.4 1.06 3.86" class="c"/><path d="M191.53 81.7a12.4 12.4 0 0 1-5.47.94c-5.1-.34-11.5 3-14.66 8.76a18.6 18.6 0 0 0 8 23.25 27 27 0 0 0 11.24 2.81 19 19 0 0 0 7.7-1.2c3.54-1.34 7.69-3.54 10.22-6.56a18.7 18.7 0 0 0 4.14-15.07c-.88-5.43-3.84-10.67-9.32-12.85a15 15 0 0 0-11.85-.07" style="fill:#f2635f"/><path d="M191 79.78a12 12 0 0 1-3.43.86c-1.06.06-2.1-.07-3.17.01a18 18 0 0 0-5.87 1.57c-3.8 1.7-7.69 5.04-9.2 9.01a20.8 20.8 0 0 0 5.92 22.97 24.3 24.3 0 0 0 12.8 5.03 24.7 24.7 0 0 0 14.48-2.63 21.8 21.8 0 0 0 10.25-9.72 21.2 21.2 0 0 0 1.62-13.99 18.5 18.5 0 0 0-7.57-11.57A17.5 17.5 0 0 0 191 79.78a2.06 2.06 0 0 0-1.4 2.46 2 2 0 0 0 2.46 1.4 13.8 13.8 0 0 1 11.66.5 13.5 13.5 0 0 1 6.26 7.78 17.5 17.5 0 0 1 0 11.34 16.6 16.6 0 0 1-7.52 8.83 21 21 0 0 1-12 3.36 23 23 0 0 1-11.26-3.25 16.7 16.7 0 0 1-6.69-17.72c.99-3.97 4.1-6.95 7.73-8.66a12 12 0 0 1 4.77-1.2 20 20 0 0 0 7.05-.98 2.06 2.06 0 0 0 1.4-2.46 2 2 0 0 0-2.46-1.4" class="c"/><path d="M185.85 87.21a12 12 0 0 0-1.6 1.87 10 10 0 0 0-.98 1.74 1.5 1.5 0 0 0-.24.75 1.5 1.5 0 0 0 .04.8 2 2 0 0 0 2.46 1.4l.47-.2a2 2 0 0 0 .72-.72 10 10 0 0 1 1.21-2.05l-.3.4a10 10 0 0 1 1.06-1.16 2 2 0 0 0 0-2.83 2 2 0 0 0-1.42-.58 2.2 2.2 0 0 0-1.41.58Zm7.74 1.85q.26.17.5.36l-.4-.31a10 10 0 0 1 1.73 1.73l-.32-.4q.28.35.52.73a2 2 0 0 0 1.2.92 1.5 1.5 0 0 0 .8.03 1.5 1.5 0 0 0 .74-.23 2 2 0 0 0 .71-2.74 11.4 11.4 0 0 0-3.45-3.54 1.5 1.5 0 0 0-.75-.24 1.5 1.5 0 0 0-.8.04 2 2 0 0 0-1.2.92 2 2 0 0 0-.2 1.54l.2.48a2 2 0 0 0 .73.72Z" class="c"/><path d="M131.54 201.78c-2.27 3.62-3.98 6.98-8.85 8.96-2.52 1.02-5.4 2.41-6.32 3.46-7.87-10.17-5.03-24.75-.28-30.54a5.4 5.4 0 0 1 3.15-1.66c1.35-.27 2.72.5 4.43 1.66a23 23 0 0 1 4.2-4.75c3.33-2.34 5.48-3.4 9.47-3.9 4.34-.52 14.29 1.4 18.2 7.35l-.17.36c-1.85 3.96-3.84 7.96-6.83 11.13q-.27.3-.56.58c-3.3 3.26-8.04 5.4-12.6 4.49a3 3 0 0 0-1.38-.09 2.4 2.4 0 0 0-1.2 1.05q-.67.96-1.26 1.9" style="fill:#b9e2b6"/><path d="m148.55 193.86-.57.57c-3.3 3.26-8.04 5.4-12.59 4.5a3 3 0 0 0-1.39-.1 2.4 2.4 0 0 0-1.2 1.05c-3.04 4.3-4.4 8.54-10.11 10.86-3.1 1.26-6.76 3.07-6.6 4.13a12.9 12.9 0 0 0 7 9.2 25 25 0 0 0 10.93 2.25 45 45 0 0 0 11.91-1.98l4.43-1.37A28.46 28.46 0 0 0 163.14 184c-1.3-2.44-4.31-4.95-6.47-3.22a5 5 0 0 0-1.3 1.95c-1.85 3.96-3.84 7.95-6.82 11.13" style="fill:#74c66d"/><path d="M147.13 192.44a15 15 0 0 1-6.82 4.3 10 10 0 0 1-3.55.36c-1.54-.12-2.92-.63-4.33.31a10 10 0 0 0-2.36 2.95l-1.91 3.05a14 14 0 0 1-4.65 4.72c-2.28 1.3-4.86 1.99-7.07 3.46a6 6 0 0 0-2.04 2c-.62 1.19-.13 2.7.29 3.89a15.9 15.9 0 0 0 10.17 9.48c5.52 1.84 11.45 1.56 17.1.45a66 66 0 0 0 6.68-1.82 23 23 0 0 0 7.3-3.68 30.64 30.64 0 0 0 9.31-38.17c-1.25-2.56-3.51-5.21-6.53-5.5-3.65-.35-4.88 3.17-6.2 5.85a35 35 0 0 1-5.38 8.35c-1.74 1.89 1.08 4.72 2.83 2.83a33 33 0 0 0 4.59-6.44 64 64 0 0 0 1.8-3.51c.36-.75.83-2.58 1.6-3.01 1.4-.78 3.17 2.13 3.65 3.07a26 26 0 0 1 2.36 7.04 26.7 26.7 0 0 1-9.4 25.52 18 18 0 0 1-5.68 3.39c-1.82.56-3.64 1.17-5.5 1.64a33 33 0 0 1-15.02.79c-3.94-.86-7.7-2.85-9.52-6.63a9 9 0 0 1-.48-1.26 6 6 0 0 0-.2-.75l-.08-.4-.17.74c.07.12-.11 0 .16-.14.03 0 .48-.34.39-.28a14 14 0 0 1 1.53-.89c2.12-1.12 4.5-1.8 6.48-3.17a19 19 0 0 0 4.86-5.14q.93-1.41 1.81-2.87.47-.75.96-1.49a5 5 0 0 1 .42-.6q.22-.17-.06-.1l.4.07c5.63 1.2 11.26-1.59 15.1-5.58 1.77-1.86-1.05-4.69-2.84-2.83" class="c"/><path d="M118.1 213.2c-4.77-6.28-5.73-14.6-3.52-22.07a21 21 0 0 1 1.75-4.25c.8-1.45 1.42-2.36 3.09-2.87.56-.17-.11-.11.42-.06.3.03-.3-.14.22.03a3 3 0 0 1 1.04.44c1.12.6 2.15 1.38 3.2 2.1a28 28 0 0 0 11.82 4.87 2.07 2.07 0 0 0 2.46-1.4 2 2 0 0 0-1.4-2.46 26 26 0 0 1-11.07-4.62c-2.21-1.5-4.56-3.4-7.4-2.84-4.11.8-6.08 4.7-7.42 8.28a30.5 30.5 0 0 0-1.78 12.37 26.5 26.5 0 0 0 5.14 14.49 2.06 2.06 0 0 0 2.73.71 2 2 0 0 0 .72-2.73Zm10.78-32.56a19 19 0 0 1 6.66-3.3 16 16 0 0 1 5.76-.25c4.27.53 8.82 2.13 11.8 5.34 1.75 1.9 4.57-.94 2.82-2.82-3.64-3.94-9.12-5.83-14.33-6.49-5.42-.68-10.3.98-14.73 4.06-2.1 1.46-.1 4.93 2.02 3.46m-85.67 18.6c1.9-1.59 4.82-2.2 7.3-2.4a20 20 0 0 1 8.99 1.27 12 12 0 0 1 1.87 1c.7.44 1.3 1.15 2.14 1.28.92.14 2.03-.45 2.94-.61a16 16 0 0 1 3-.2 17 17 0 0 1 8.76 2.21 15 15 0 0 1 6.44 8.32c.73 2.46 4.6 1.41 3.86-1.06a19.3 19.3 0 0 0-9.3-11.31 20 20 0 0 0-6.81-1.9 20 20 0 0 0-9.16.66l1.95.51c-3.5-3.01-8.19-4.18-12.73-4.22-4.22-.04-8.77.86-12.08 3.62-1.99 1.64.86 4.46 2.83 2.83m121.02-164a144 144 0 0 1 25.83-31.57c1.9-1.74-.93-4.56-2.83-2.82a147 147 0 0 0-26.45 32.37c-1.33 2.21 2.12 4.22 3.45 2.02m24.4 21.17a78 78 0 0 1 28.67-15.54c2.46-.73 1.41-4.6-1.06-3.86a83 83 0 0 0-30.44 16.57c-1.96 1.67.88 4.49 2.83 2.83" class="c"/><path d="M133.27 27.33c-2.36 2.37-6.64 5.63-9.08 7.92-8.72 8.2-8.57 17.63-17.09 24.6-6.63 5.41-15.35 9.88-23.14 6.3s-14.51-14.07-17.5-22.1A18.6 18.6 0 0 1 68.8 29.4c2.62-4.35 6.81-7.53 11.18-10.13s14.62-7.42 22.7-11.55a63 63 0 0 1 10.16-4.27 28 28 0 0 1 10.04-1.4 14.3 14.3 0 0 1 7.5 2.75c4.9 3.43 9.35 8.98 8.76 14.15-.37 3.16-2.94 5.44-5.87 8.38" class="b"/><path d="M85.6 62.22c6.38-3.6 9.97-8.54 7.95-12.85-1.92-4.08-3.18-7.04-3.72-11.33-.8-6.4 2.16-9.45 5.97-13.08 2.42-2.3 7.97-5.85 13.5-8.74 7.2-3.76 17.1-6.7 25.78-3.52l2.88.5a10.4 10.4 0 0 1 1.17 5.75c-.36 3.16-2.93 5.44-5.86 8.38-2.36 2.37-6.65 5.63-9.08 7.92-8.72 8.2-8.57 17.63-17.09 24.6-6.63 5.41-15.36 9.88-23.14 6.3a19 19 0 0 1-2.87-1.65l2.73-1.35q.92-.45 1.78-.93" class="l"/><path d="M131.85 25.92c-2.2 2.18-4.67 4.09-7.03 6.1a37 37 0 0 0-6.75 7.4c-3.45 5.06-5.25 11.21-9.25 15.92a32 32 0 0 1-7.87 6.44 24 24 0 0 1-9.26 3.56c-6.42.77-11.46-3.37-15.32-8.02a48 48 0 0 1-5.24-7.86c-1.42-2.63-2.92-5.44-3.2-8.46-.68-7.21 3.62-13.44 9.24-17.51 4.75-3.44 10.16-5.91 15.4-8.5q4.67-2.3 9.32-4.63a86 86 0 0 1 9.38-4.3 29 29 0 0 1 11.14-2.04c3.68.15 6.76 2.04 9.41 4.48 2.45 2.26 4.95 5.27 5.34 8.71.42 3.75-2.92 6.33-5.3 8.7-1.83 1.82 1 4.65 2.82 2.83 2.57-2.57 5.75-5.3 6.36-9.09a13.6 13.6 0 0 0-2.72-9.77 27 27 0 0 0-8.09-7.57A18 18 0 0 0 119.2.1c-7.63.73-14.43 4.36-21.17 7.73-6.05 3.02-12.25 5.85-18.14 9.18-6.48 3.66-12.39 8.63-14.91 15.85a19 19 0 0 0-.38 11.87 46 46 0 0 0 4.4 9.05c3.4 5.6 8 11.46 14.14 14.19 7.21 3.21 15.04.5 21.26-3.64a34 34 0 0 0 8.4-7.6 54 54 0 0 0 5-8.7 44 44 0 0 1 5.4-8.81 63 63 0 0 1 7.89-7.25 60 60 0 0 0 3.6-3.23c1.83-1.8-1-4.63-2.84-2.82" class="c"/><path d="M135.61 10.78c-12.88-4.57-26.84 2.4-37.26 9.66-4.03 2.8-8.4 6.52-10 11.33-1.96 5.9.62 12.47 3.1 17.79a5 5 0 0 1 .64 2.9 7 7 0 0 1-1.5 3.2 21.5 21.5 0 0 1-7.78 5.77c-2.3 1.14-.28 4.59 2.02 3.45 4.55-2.25 10.08-5.97 11.11-11.35.55-2.86-.65-5.03-1.77-7.58a28 28 0 0 1-2.38-8.33 10.3 10.3 0 0 1 1.59-7.07 25 25 0 0 1 4.65-4.9 54 54 0 0 1 7.39-4.97 70 70 0 0 1 8.34-4.37c6.53-2.75 13.95-4.1 20.79-1.68 2.43.87 3.48-3 1.06-3.85" class="c"/><path d="M72.98 41.04a7 7 0 0 1 .84-6.2 6.5 6.5 0 0 1 5.42-2.94 2.53 2.53 0 0 1 3 2.48c.2 3.56.84 8.18 1.38 12.1a3.1 3.1 0 0 1-.95 2.83 4 4 0 0 1-2.79.52 7 7 0 0 1-2.61-1.92 23 23 0 0 1-4.29-6.87" class="l"/><path d="M74.91 40.51a5.1 5.1 0 0 1 1.95-5.91 5 5 0 0 1 2.85-.71c.48.02.2.03.12.01.05.01.36.13.1 0 .08.05.26.22.08.02.04.05.22.13.1.09-.16-.07.1.22.06.07-.07-.2.06.22.07.26.02.12.04.55.06.86.23 3.25.67 6.48 1.1 9.7.09.6.23 1.43.25 1.87v.41c-.02.35.06-.23-.02.13a.7.7 0 0 1-.19.42c.22-.15-.14.04-.26.07a2 2 0 0 1-.6.08c-.22 0-.34-.07-.16.04-.24-.15-.54-.33-.71-.46-2.3-1.82-3.82-4.75-5-7.43a2 2 0 0 0-2.73-.72 2.05 2.05 0 0 0-.72 2.74c1.47 3.35 3.46 6.77 6.5 8.92a5.4 5.4 0 0 0 5.54.28 4.8 4.8 0 0 0 2.32-4.77c-.4-4.04-1.05-8.05-1.38-12.1a4.6 4.6 0 0 0-3.15-4.28 8 8 0 0 0-5.1.49c-4.02 1.64-6.6 6.82-4.94 10.98a2.06 2.06 0 0 0 2.46 1.4 2 2 0 0 0 1.4-2.46" class="c"/><path d="m7.44 60.34-1.22-2.07c2.28-1.55 4.33-2.9 6.6-4.21.4.65 1.4 2.18 2.7 4.16l.11-.08c.9-.56 4.37-2.62 5.98-3.57l-.01-.03c-.88-1.8-1.85-3.66-2.33-4.67a184 184 0 0 1 6.42-3.57c3.15 5.04 11.06 17.75 13.58 21.87l.04.02q-6.22 3.76-12.63 7.2-6.5 3.49-13.19 6.65l-.52.26c-3.4-4.9-8.7-12.71-10.95-16.05a79 79 0 0 1 6.14-4.07l.3-.15z" class="d"/><path d="M16.06 83.23A968 968 0 0 1 3.74 65.24l-.71 2.74a77 77 0 0 1 6.14-4.08c2.2-1.32.2-4.78-2.02-3.45A76 76 0 0 0 1 64.52a2.04 2.04 0 0 0-.72 2.74 957 957 0 0 0 12.32 18 2.05 2.05 0 0 0 2.73.7 2 2 0 0 0 .72-2.73" class="c"/><path d="M28.88 74.7a643 643 0 0 1-14.33-21.65 2.04 2.04 0 0 0-2.73-.72 112 112 0 0 0-6.6 4.21 2.05 2.05 0 0 0-.72 2.74c1.34 2.46 2.89 4.83 4.35 7.21q2.86 4.7 5.8 9.34c1.39 2.16 4.85.16 3.46-2.02q-2.94-4.64-5.8-9.33c-1.47-2.4-3.02-4.76-4.36-7.22L7.23 60c2.16-1.46 4.35-2.9 6.6-4.2l-2.73-.73c4.6 7.32 9.44 14.53 14.33 21.66a2.05 2.05 0 0 0 2.74.71 2 2 0 0 0 .71-2.73" class="c"/><path d="M35.55 70.37c-3.78-5.77-7.44-11.63-11.37-17.3a2.1 2.1 0 0 0-2.74-.71 31 31 0 0 0-3 1.76q-1.91 1.13-3.81 2.3c-2.19 1.35-.18 4.8 2.02 3.45q1.9-1.16 3.81-2.3a31 31 0 0 1 3-1.76l-2.73-.72c3.93 5.67 7.6 11.53 11.37 17.3 1.4 2.14 4.86.14 3.45-2.02" class="c"/><path d="M23.33 53.53c-.77-1.56-1.58-3.1-2.33-4.67l-.72 2.74c2.1-1.27 4.26-2.42 6.42-3.57l-2.73-.72c4.54 7.28 9.1 14.55 13.58 21.87 1.34 2.2 4.8.19 3.45-2.02Q34.26 56.2 27.42 45.3a2.05 2.05 0 0 0-2.74-.71c-2.15 1.15-4.32 2.3-6.42 3.57a2.05 2.05 0 0 0-.72 2.73c.76 1.57 1.57 3.11 2.34 4.67 1.13 2.31 4.58.29 3.45-2.02Z" class="c"/><path d="M13.5 82.05q6.68-3.17 13.19-6.67Q34.1 71.4 41.29 67a2.1 2.1 0 0 1 2.92.72c5.87 9.88 11.27 19.83 16.89 29.76a2.1 2.1 0 0 1-.88 2.92 175 175 0 0 1-29.3 11.83 3 3 0 0 1-2.38-.12 3.5 3.5 0 0 1-1.12-1.28q-7.85-12.7-14.91-25.85a2.1 2.1 0 0 1 .96-2.92Z" class="b"/><path d="M14.5 83.77q12.33-5.85 24.09-12.81l2.68-1.61c.24-.14.87-.72 1.18-.69-.08 0 .18.3.28.48l3.47 5.94q3.45 6.04 6.85 12.12l3.33 5.96 1.67 2.98.84 1.48q.17.33.36.64c.2.3.06.36.15.17-.2.43-1.05.67-1.47.88q-1.42.71-2.86 1.4-2.77 1.32-5.58 2.56-5.77 2.53-11.72 4.65a133 133 0 0 1-5.83 1.91c-.58.18-1.73.78-2.32.55s-1.17-1.7-1.48-2.2q-4.03-6.58-7.84-13.27-1.85-3.24-3.65-6.51-.93-1.69-1.84-3.39c-.29-.53-.9-.96-.3-1.24 2.32-1.1.3-4.55-2.02-3.45a4.13 4.13 0 0 0-1.84 5.36c1.03 2.27 2.38 4.45 3.6 6.63q3.86 6.95 7.95 13.76a54 54 0 0 0 4.2 6.74c1.65 2 4 1.65 6.22 1 4.57-1.37 9.06-3 13.47-4.8q6.85-2.78 13.49-6.06c1.95-.98 3.9-2.09 3.8-4.6a7 7 0 0 0-1.27-3.17l-2.03-3.62q-3.92-7.03-7.87-14.04-2-3.52-4.02-7.01c-1.14-1.96-2.22-4.95-4.6-5.65-2.67-.8-5.27 1.61-7.42 2.88q-3.84 2.27-7.74 4.42-7.85 4.32-15.94 8.16c-2.33 1.1-.3 4.55 2.02 3.45" class="c"/><path d="M40.42 80.37q3.47 6.59 6.71 13.3a2 2 0 0 0 2.74.7 2.04 2.04 0 0 0 .72-2.73q-3.25-6.7-6.72-13.29a2 2 0 0 0-3.45 2.02" class="c"/><path d="M79.78 141.04a5 5 0 0 1-.4-1.05c-1.44-5.5-.73-13.38 1.23-19.74a67 67 0 0 1 6.91-13.6c8.56-12.54 13.98-21.37 26.1-30.5 4.18-3.16 10.05-5.52 13.96-4.19a8 8 0 0 1 1.4.76c-10.94 9.13-23.94 22.13-31 32.83a66.7 66.7 0 0 0-11.34 39.05c-1.63-.05-2.4.1-3.92-.73a7 7 0 0 1-2.94-2.84" class="e"/><path d="M86.91 142.62a6.7 6.7 0 0 1-3.5-.65 4.4 4.4 0 0 1-2.2-2.86 29 29 0 0 1-.44-9.3 40 40 0 0 1 1.91-9.47 49 49 0 0 1 3.32-7.2 148 148 0 0 1 9.84-15.1 98 98 0 0 1 11.02-13.42c4.34-4.31 9.42-9.07 15.5-10.65a10 10 0 0 1 3.68-.34 5 5 0 0 1 2.6 1.36c2.07 1.74 2.91 4.04 1.52 6.52-1.47 2.63-4.03 4.73-6.16 6.82a41 41 0 0 0-6.09 6.88c-3.27 5.08-4.25 11.19-5.33 17.02a64 64 0 0 1-2.3 9.52 26 26 0 0 1-5.42 8.91 75 75 0 0 1-8.32 7.75c-2.77 2.23-5.98 4.14-9.62 4.2-2.57.05-2.58 4.05 0 4 7.53-.13 13.48-5.92 18.56-10.85a35 35 0 0 0 6.77-8.55 38 38 0 0 0 3.3-9.46c1.39-6.2 1.8-12.9 4.74-18.63 3.08-6.04 9.37-9.47 13.02-15.09a8.7 8.7 0 0 0 .29-9.48 10.6 10.6 0 0 0-7.24-4.88c-7.03-.85-13.53 4.28-18.5 8.58a88 88 0 0 0-13.1 14.45q-2.92 4-5.68 8.1c-2.76 4.1-3.8 5.45-5.44 8.33a72 72 0 0 0-4.27 8.72 40 40 0 0 0-2.33 9.57 39 39 0 0 0-.05 10.8 10 10 0 0 0 1.58 4.65 9.4 9.4 0 0 0 3.83 3.06 12 12 0 0 0 4.51.69c2.58.1 2.57-3.9 0-4" class="c"/><path d="M88.6 141.98a65 65 0 0 1 8.65-31.4c5.14-9.04 12.31-16.86 19.66-24.15q6.47-6.43 13.48-12.3c1.98-1.65-.87-4.47-2.83-2.83a196 196 0 0 0-23.86 23.47c-7.05 8.32-12.81 17.5-16.08 27.97a67 67 0 0 0-3.01 19.24c-.03 2.58 3.97 2.58 4 0Z" class="c"/><path d="M79.71 120.63a12 12 0 0 0 1.03 2.39q.75 1.45 1.57 2.87 1.34 2.39 2.81 4.72a2 2 0 0 0 3.46-2.02 114 114 0 0 1-4.32-7.46q-.3-.57-.56-1.16c-.08-.16-.15-.47.08.2l-.1-.23-.11-.37a2 2 0 0 0-3.86 1.06m4.48-6.48c1 2.22 2.1 4.4 3.1 6.61a2 2 0 0 0 1.2.92 2 2 0 0 0 2.46-1.4 2.3 2.3 0 0 0-.2-1.54c-1-2.22-2.1-4.39-3.1-6.6a2 2 0 0 0-1.2-.93 2 2 0 0 0-1.55.2 2 2 0 0 0-.92 1.2 2.3 2.3 0 0 0 .2 1.54Z" class="c"/><path d="M194.2 194.85c-4.05 53.14-7.04 103.09-10.71 147.31 0 13.43-40.06 20.11-70.53 20.1-30.47.01-70.53-6.67-70.53-20.1-3.5-43.84-7.28-95.06-10.72-147.64v-1.64c0 15.47 46.15 23.17 81.25 23.15 35.1.02 81.25-7.68 81.25-23.15Z" class="e"/><path d="M29.7 192.88c.1 9.14 11.37 13.74 18.5 16.27 12.85 4.55 26.69 6.5 40.2 7.74a267 267 0 0 0 43.59.45c14-1 28.22-2.8 41.7-6.88a59 59 0 0 0 14.6-6.21c3.25-2.07 6.48-4.9 7.56-8.75a10 10 0 0 0 .36-2.62c.02-2.57-3.98-2.57-4 0l-.02.56c0 .12-.1.66-.01.16a9 9 0 0 1-.26 1.07l-.18.52c-.08.21.04-.1.05-.1l-.13.28q-.26.52-.57 1.01l-.33.5c-.26.36.05-.04-.17.22q-.41.49-.85.95a20 20 0 0 1-1.86 1.63 45 45 0 0 1-12.64 6.1c-12.43 4.15-25.66 6.04-38.68 7.2a267 267 0 0 1-41.87.41c-13.4-.92-26.94-2.64-39.89-6.34a61 61 0 0 1-14.17-5.66 19 19 0 0 1-4.45-3.34 8 8 0 0 1-1.36-1.67q-.3-.48-.56-1c-.08-.16-.19-.45-.06-.12l-.21-.6a9 9 0 0 1-.25-1.06c.06.35 0 .11 0-.09l-.03-.63c-.03-2.57-4.03-2.58-4 0Zm18.58 35.94a126 126 0 0 0 22.8 5.77 246 246 0 0 0 27 3 252 252 0 0 0 55.28-2.52c8.83-1.45 17.66-3.56 25.8-7.35a2 2 0 0 0 .72-2.74 2.05 2.05 0 0 0-2.74-.72c-6.92 3.23-14.48 5.08-21.96 6.45a206 206 0 0 1-26.87 2.95 261 261 0 0 1-53.3-2.47 132 132 0 0 1-25.67-6.23c-2.42-.9-3.46 2.97-1.07 3.86Z" class="c"/><rect width="15.029" height="97.66" x="105.444" y="248.541" class="m" rx="7.514"/><rect width="97.66" height="15.029" x="102.295" y="289.857" class="m" rx="7.514" transform="rotate(-87.591 151.123 297.37)"/><rect width="15.029" height="97.66" x="67.277" y="248.541" class="m" rx="7.514" transform="rotate(-2.409 74.803 297.415)"/><path d="M118.47 256.06v79.19q.02 1.7 0 3.4c-.08 5.01-6.42 7.52-9.74 3.59-1.3-1.54-1.29-3.3-1.29-5.15v-80.64c.01-3.5 2.83-6.5 6.5-5.83a5.6 5.6 0 0 1 4.54 5.43c.05 2.57 4.05 2.58 4 0-.16-7.15-8-11.91-14.32-8.21-3.28 1.92-4.71 5.34-4.71 9v68.36c0 4.43-.03 8.86 0 13.29a9.52 9.52 0 1 0 19.03-.02c.03-4.48 0-8.97 0-13.46v-68.95c0-2.58-4-2.58-4 0Zm25.41 82.27.43-10.2.99-23.5 1.1-26.4.8-19.02c.06-1.13.08-2.26.15-3.4a5.57 5.57 0 0 1 9.88-3.1c1.25 1.61 1.15 3.42 1.07 5.3l-.27 6.4-.94 22.4-1.13 26.73-.85 20.4-.2 4.63a5.52 5.52 0 1 1-11.03-.24c.05-2.57-3.95-2.57-4 0a9.6 9.6 0 0 0 14.03 8.69c3.37-1.79 4.86-5.2 5.02-8.84l.66-15.64 1.12-26.73 1.1-25.94c.18-4.42.4-8.85.55-13.27a9.52 9.52 0 1 0-19.02-.62q-.3 6.73-.56 13.45l-1.1 26-1.12 26.68-.65 15.46-.03.76c-.1 2.58 3.9 2.57 4 0m-57.84 0-.47-10.99-1.05-25.05-1.15-27.26-.74-17.58c-.1-2.31-.27-4.54-1.61-6.56-3.88-5.85-13-5.62-16.33.68a12 12 0 0 0-1.07 6.6l.29 6.88 1 23.96 1.17 27.63.82 19.41q.04 1.54.13 3.1c.5 7 8.46 11.49 14.57 7.55a9.7 9.7 0 0 0 4.44-8.36c-.05-2.57-4.06-2.58-4 0a5.52 5.52 0 0 1-10.6 2.46 12 12 0 0 1-.51-4l-.73-17.3-1.1-26.05-1.03-24.51c-.17-4.11-.38-8.23-.52-12.35-.15-4.18 4.06-7.43 8-5.4 2.3 1.17 2.96 3.38 3.06 5.73l.65 15.5 1.08 25.64 1.06 25.16.6 14.43.04.68c.1 2.57 4.1 2.58 4 0" class="c"/><path d="M192.2 194.85q-2.04 26.9-3.88 53.8l-3.57 50.9q-.87 12.13-1.8 24.26-.45 5.84-.92 11.67l-.47 5.85c-.05.51-.06 1.03-.11 1.54l-.04.16-.16.6q-.06.23-.16.45c.14-.37-.02.05-.09.19a11 11 0 0 1-.59 1c-.06.1-.37.5-.15.22q-.19.25-.4.49-.44.49-.92.93a22 22 0 0 1-4.76 3.2 66 66 0 0 1-15.22 5.24 194 194 0 0 1-40.51 4.83 219 219 0 0 1-41.11-2.74 120 120 0 0 1-18.21-4.3 51 51 0 0 1-6.83-2.74 25 25 0 0 1-4.96-3.15q-.5-.44-.97-.93-.2-.2-.37-.4c-.1-.1-.47-.59-.25-.3a10 10 0 0 1-.6-.91l-.27-.51-.1-.22c-.1-.22.11.32 0-.04q-.16-.49-.28-.98c-.11-.47 0 .19-.03-.17l-.03-.55c-.12-1.9-.3-3.81-.45-5.72q-.95-11.98-1.87-23.97-1.95-25.43-3.78-50.87-1.94-26.87-3.74-53.76l-.89-13.4c-.16-2.55-4.16-2.57-4 0q1.82 27.73 3.79 55.44 1.87 26.4 3.87 52.77.94 12.43 1.92 24.87l.93 11.86c.19 2.33.16 4.62 1.21 6.76 1.77 3.62 5.6 6.03 9.08 7.75a75 75 0 0 0 16.22 5.45 202 202 0 0 0 41.86 4.8 223 223 0 0 0 42.15-3.1 114 114 0 0 0 18.25-4.5c4.47-1.56 9.1-3.5 12.64-6.73a12.4 12.4 0 0 0 3.27-4.59c.89-2.24.75-4.93.94-7.3q.98-12.06 1.87-24.12 1.9-25.54 3.63-51.09 1.89-27.16 3.85-54.3.5-6.82 1.03-13.63c.2-2.57-3.8-2.56-4 0Z" class="c"/></svg>
