<svg xmlns="http://www.w3.org/2000/svg" fill="none" viewBox="0 0 24 24"><path fill="currentColor" d="m9.2 11.96.71-.22zm.35-1.1-.46-.59zm.37 3.44-.72.22zm4.14 0-.72-.23zm.37-3.43-.45.6zm.35 1.09.72.22zm-2.19-2.5.46-.6zm-1.2 0 .45.6zm8.8 8.29a.75.75 0 0 0 0-1.5zm-5.41 1.99-.71-.24zm-1.3 1.52a.75.75 0 1 0 1.42.48zM4 16.25a.75.75 0 0 0 0 1.5zm5.4 3.49.71-.24zm-.12 2a.75.75 0 0 0 1.42-.48zm-1.06-4.36-.44.6zM5.56 5.46a.75.75 0 0 0-1.45.39zm-.31 1.76-.72.19zm-1.66 4.37-.41-.63zm-1.96.4a.75.75 0 1 0 .82 1.25zm18.3-6.14a.75.75 0 0 0-1.45-.39zM18.8 7.22l-.72-.2zm1.66 4.37-.41.62zm1.14 1.65a.75.75 0 0 0 .82-1.25zm-5.5-9.4a.75.75 0 0 0-.86-1.23zm-1.75.31.43.62zM9.67 4.1l-.45.6zM8.62 2.4a.75.75 0 1 0-.9 1.2zm6.16 8.97-.72.22zm-5.58 0 .71.22zm12.03.63a9.24 9.24 0 0 1-9.24 9.25v1.5c5.93 0 10.74-4.81 10.74-10.75zm-9.24 9.25A9.24 9.24 0 0 1 2.75 12h-1.5c0 5.94 4.8 10.75 10.74 10.75zM2.75 12c0-5.1 4.14-9.25 9.24-9.25v-1.5A10.74 10.74 0 0 0 1.25 12zm9.24-9.25c5.1 0 9.24 4.14 9.24 9.25h1.5c0-5.94-4.81-10.75-10.74-10.75zm.15 7.31 1.84 1.4.9-1.19-1.83-1.4zm1.92 1.68-.72 2.33 1.43.45.73-2.34zm-.96 2.51h-2.23v1.5h2.23zm-2.46-.18-.73-2.33-1.43.44.72 2.34zm-.64-2.6 1.84-1.41-.91-1.2-1.84 1.41zm10.18 4.78h-1.61v1.5h1.61zm-6.11 3.25-.59 1.76 1.42.48.6-1.77zm4.5-3.25q-1.02-.01-1.71.05a3 3 0 0 0-1.34.47l.88 1.22c.12-.1.28-.16.63-.2.36-.04.83-.04 1.54-.04zm-3.08 3.72c.23-.67.38-1.12.53-1.45.14-.31.26-.45.38-.53l-.88-1.22q-.58.45-.86 1.12-.28.64-.6 1.6zM4 17.75h1.62v-1.5H4zm4.7 2.22.59 1.77 1.42-.48-.59-1.76zm-3.08-2.22c.71 0 1.19 0 1.55.04.34.04.5.1.62.2l.88-1.22c-.4-.3-.85-.41-1.33-.47q-.7-.06-1.72-.05zm4.5 1.75q-.3-.98-.59-1.61-.28-.68-.86-1.12l-.88 1.22c.12.08.24.22.38.53.16.33.3.78.53 1.45zm-6-13.65.42 1.56 1.44-.39-.41-1.56zm-.93 5.11L1.63 12l.82 1.25 1.56-1.03zm1.35-3.55c.18.69.3 1.14.35 1.5.05.34.03.52-.02.66l1.4.53c.18-.46.18-.93.1-1.4q-.1-.7-.39-1.68zM4 12.2q.85-.54 1.4-.98c.37-.32.68-.66.85-1.13l-1.4-.53c-.05.14-.15.29-.42.5-.27.24-.67.5-1.26.9zm14.48-6.75-.42 1.56 1.45.39.41-1.56zm1.55 6.75 1.55 1.03.82-1.25-1.55-1.03zm-1.97-5.19q-.28.98-.4 1.67c-.07.48-.07.95.1 1.41l1.41-.53a1.3 1.3 0 0 1-.02-.66c.05-.36.17-.81.36-1.5zm2.8 3.94c-.6-.39-1-.65-1.27-.88a1.3 1.3 0 0 1-.42-.51l-1.4.53c.18.47.48.81.85 1.13q.55.44 1.4.98zM15.22 2.6l-1.32.93.86 1.23 1.32-.93zm-5.12.9L8.61 2.4l-.89 1.2 1.5 1.1zm3.8.03c-.59.41-.97.68-1.3.86-.3.16-.47.2-.61.2l-.02 1.5q.73-.02 1.36-.39.61-.34 1.43-.94zM9.22 4.71q.81.61 1.41.97.62.39 1.35.42L12 4.6c-.15 0-.32-.04-.62-.22-.32-.18-.7-.46-1.27-.88zm4.76 6.75q.06.06.08.13l1.44-.44q-.16-.52-.61-.88zm.08.13q.03.08 0 .15l1.44.44q.15-.53 0-1.03zm4.13-2.45-3.7 1.53.58 1.4 3.7-1.54zm-5.14-.27a2 2 0 0 0-1.06-.36V10q.08 0 .15.05zm-1.06-.36q-.58 0-1.06.36l.9 1.19Q11.9 10 12 10zm.75.75V5.35h-1.5v3.9zm.6 4.81-.08.13.93 1.18q.42-.34.58-.86zm-.08.13a.3.3 0 0 1-.16.05v1.5q.61-.01 1.09-.37zm3.27 2.69-2.24-2.6-1.14.99 2.24 2.59zm-5.66-2.64a.3.3 0 0 1-.15-.05l-.93 1.18q.47.36 1.08.37zm-.15-.05-.08-.13-1.44.45q.17.52.6.86zm-1.9 3.64 2.03-2.6-1.18-.92-2.04 2.6zm1.1-6.1v-.15l-1.44-.44q-.15.5 0 1.03zm0-.15q.01-.08.08-.13l-.91-1.19q-.45.36-.6.88zm-.43-.91L5.85 9.14l-.58 1.39 3.64 1.53z"/></svg>
