<svg xmlns="http://www.w3.org/2000/svg" fill="currentColor" preserveAspectRatio="xMidYMid" viewBox="0 -6 44 44"><path d="M42 32H14.01a2 2 0 0 1-2-2v-2c0-.36.2-.7.52-.88l9.79-5.33c-3.28-3.55-3.32-8.56-3.32-8.8L19.01 7l.01-.16c.7-4.09 5.2-6.83 8.99-6.83 3.78 0 8.29 2.74 8.98 6.82L37 7v6c0 .22-.03 5.24-3.3 8.79l9.78 5.33A1 1 0 0 1 44 28v2a2 2 0 0 1-2 2m-10.47-9.12a1 1 0 0 1-.16-1.65c3.6-2.92 3.64-8.18 3.64-8.24V7.1c-.57-3-4.13-5.08-7-5.08s-6.44 2.08-7 5.08V13c0 .06.05 5.34 3.63 8.24a1 1 0 0 1-.16 1.65L14.01 28.6V30H42v-1.4zM18.65 2.52A7 7 0 0 0 16 2c-2.88 0-6.44 2.08-7 5.08v5.9c0 .06.05 5.34 3.63 8.24a1 1 0 0 1-.16 1.65L2 28.6V30h7a1 1 0 0 1 0 2H2a2 2 0 0 1-2-2v-2c0-.36.2-.7.52-.87l9.79-5.34c-3.28-3.55-3.32-8.56-3.32-8.8V7l.02-.16C7.71 2.74 12.21 0 16 0c1.1 0 2.25.23 3.36.66a1 1 0 1 1-.72 1.86"/></svg>
