<svg xmlns="http://www.w3.org/2000/svg" fill="none" viewBox="0 0 24 24"><circle fill="none" cx="16" cy="8" r="2" stroke="currentColor" stroke-width="1.5"/><path stroke="currentColor" stroke-linecap="round" stroke-width="1.5" d="m5 13.3.81-.75a2.3 2.3 0 0 1 3.24.11l2.65 2.81c.54.57 1.42.65 2.05.18.9-.67 2.16-.6 2.98.18L19 18"/><path fill="none" stroke="currentColor" stroke-linecap="round" stroke-width="1.5" d="M22 12c0 4.71 0 7.07-1.46 8.54C19.07 22 16.7 22 12 22s-7.07 0-8.54-1.46C2 19.07 2 16.7 2 12s0-7.07 1.46-8.54C4.93 2 7.3 2 12 2s7.07 0 8.54 1.46c.97.98 1.3 2.35 1.4 4.54"/></svg>
