<svg xmlns="http://www.w3.org/2000/svg" fill="currentColor" viewBox="0 0 32 32"><path d="m23.23 2.36-2.25-1.07A11 11 0 0 0 16.1-.03c-3.07 0-5.2 1.78-6.53 3.1L3.1 9.56C-.36 13-.91 16.54 1.3 20.98q.52 1.04 1.08 2.25c2.02 4.33 4.11 8.8 7.53 8.8l.3-.01c3.52-.28 4.52-4.83 5.4-8.84l.42-1.79c.24-.94.7-1.53 1.98-2.8l.18-.19.1-.1.3-.29c1.28-1.28 1.86-1.75 2.8-1.99q.83-.2 1.8-.4c4-.89 8.54-1.9 8.82-5.43.27-3.59-4.33-5.74-8.79-7.83zm6.72 7.65c-.2 2.5-5.77 3.23-9.1 4.06-1.46.37-2.36 1.15-3.7 2.5l-.3.28-.27.29c-1.35 1.35-2.13 2.24-2.5 3.71-.83 3.33-1.57 8.91-4.06 9.1l-.13.01c-2.64 0-4.87-6-6.83-9.92-1.99-3.99-1.14-6.57 1.42-9.13l1.85-1.85 2.74-2.75 1.85-1.85c1.59-1.59 3.19-2.52 5.12-2.52q1.77-.01 4 1.1c3.98 2 10.12 4.27 9.91 6.97m-14.99.97h2v-2h-2zm0-3h2v-2h-2zm3 0h2v-2h-2zm0 3h2v-2h-2zm-7.65 6 .76-.76a.96.96 0 0 0-1.36-1.36l-.76.76-.76-.76a.96.96 0 1 0-1.36 1.36l.77.76-.77.76A.96.96 0 1 0 8.2 19.1l.76-.76.79.78a.96.96 0 1 0 1.35-1.36z"/></svg>
