<svg xmlns="http://www.w3.org/2000/svg" fill="none" viewBox="0 0 24 24"><path fill="currentColor" fill-rule="evenodd" d="M5.66 3.45c.5-.18 1.02-.2 1.44-.2h.62a5 5 0 0 1 2.88.92l.5.35a1.6 1.6 0 0 0 1.8 0l.5-.35a5 5 0 0 1 2.88-.92h.62c.42 0 .94.02 1.44.2 1.44.52 2.59 1.7 3.34 3.6.74 1.88 1.12 4.51 1.06 8.07 0 .74-.1 1.58-.39 2.34-.3.77-.8 1.49-1.66 1.9a4 4 0 0 1-1.72.39 3.4 3.4 0 0 1-3.28-2.28.75.75 0 1 1 1.43-.45c.12.38.67 1.23 1.85 1.23q.62-.02 1.07-.24.62-.3.9-1.08c.2-.53.3-1.18.3-1.84.06-3.46-.32-5.87-.96-7.5-.63-1.6-1.5-2.39-2.44-2.72q-.38-.13-.94-.12h-.62a3.5 3.5 0 0 0-2.01.64l-.5.36a3.1 3.1 0 0 1-3.54 0l-.5-.36a3.5 3.5 0 0 0-2.01-.64H7.1q-.56 0-.94.12c-.94.33-1.8 1.12-2.44 2.73-.64 1.62-1.02 4.03-.96 7.49q0 1.01.3 1.84.28.78.9 1.08.45.23 1.07.24c1.18 0 1.73-.85 1.85-1.23a.75.75 0 0 1 1.43.45 3.4 3.4 0 0 1-3.28 2.28 4 4 0 0 1-1.72-.39 3.3 3.3 0 0 1-1.66-1.9 7 7 0 0 1-.4-2.34c-.05-3.56.33-6.2 1.07-8.07.75-1.9 1.9-3.08 3.34-3.6m1.84 4.8c.41 0 .75.34.75.75v.75H9a.75.75 0 0 1 0 1.5h-.75V12a.75.75 0 0 1-1.5 0v-.75H6a.75.75 0 0 1 0-1.5h.75V9c0-.41.34-.75.75-.75m1.97 9.28a.75.75 0 1 1 1.06-1.06L12 17.94l1.47-1.47a.75.75 0 1 1 1.06 1.06L13.06 19l1.47 1.47a.75.75 0 1 1-1.06 1.06L12 20.06l-1.47 1.47a.75.75 0 1 1-1.06-1.06L10.94 19z" clip-rule="evenodd"/><path fill="currentColor" d="M19 10.25a.75.75 0 1 1-1.5 0 .75.75 0 0 1 1.5 0m-3 0a.75.75 0 1 1-1.5 0 .75.75 0 0 1 1.5 0M16.75 8a.75.75 0 1 1 0 1.5.75.75 0 0 1 0-1.5m0 3a.75.75 0 1 1 0 1.5.75.75 0 0 1 0-1.5"/></svg>
