<svg xmlns="http://www.w3.org/2000/svg" fill="none" viewBox="0 0 24 24"><path fill="currentColor" fill-rule="evenodd" d="M15 2.25c.41 0 .75.34.75.75v1c0 .97-.78 1.75-1.75 1.75h-1a.25.25 0 0 0-.25.25v.25h.53c1.32 0 2.36 0 3.2.08.86.09 1.58.27 2.23.66q.46.3.86.66c.55.53.89 1.18 1.17 1.98.28.78.52 1.77.81 3.01l1.1 4.56c.48 2.01-.8 4-2.83 4.45a3.8 3.8 0 0 1-4.25-1.97l-.12-.25a2.7 2.7 0 0 0-2.39-1.44h-2.12c-1.03 0-1.95.57-2.39 1.44l-.12.25a3.8 3.8 0 0 1-4.25 1.97 3.7 3.7 0 0 1-2.83-4.45l1.1-4.55c.3-1.25.53-2.24.8-3.02.29-.8.63-1.45 1.18-1.98q.4-.37.86-.66c.65-.4 1.37-.57 2.23-.66.84-.08 1.88-.08 3.2-.08h.53V6c0-.97.78-1.75 1.75-1.75h1c.14 0 .25-.11.25-.25V3c0-.41.34-.75.75-.75m-4.24 5.5c-1.36 0-2.33 0-3.09.08-.74.07-1.21.2-1.6.44q-.31.2-.6.46c-.31.31-.56.72-.8 1.4-.25.7-.47 1.61-.78 2.9l-1.08 4.52a2.2 2.2 0 0 0 1.7 2.64 2.3 2.3 0 0 0 2.58-1.18l.12-.25a4.2 4.2 0 0 1 3.73-2.27h2.12c1.58 0 3.02.87 3.73 2.27l.12.25a2.3 2.3 0 0 0 2.58 1.18 2.2 2.2 0 0 0 1.7-2.64l-1.08-4.51c-.31-1.3-.53-2.2-.78-2.9a3.4 3.4 0 0 0-.8-1.4 4 4 0 0 0-.6-.47 4 4 0 0 0-1.6-.44c-.76-.08-1.72-.08-3.09-.08zm-2.26 2.5c.41 0 .75.34.75.75v.75H10a.75.75 0 0 1 0 1.5h-.75V14a.75.75 0 0 1-1.5 0v-.75H7a.75.75 0 0 1 0-1.5h.75V11c0-.41.34-.75.75-.75" clip-rule="evenodd"/><path fill="currentColor" d="M16 11a1 1 0 1 1-2 0 1 1 0 0 1 2 0m2 3a1 1 0 1 1-2 0 1 1 0 0 1 2 0"/></svg>
