<svg xmlns="http://www.w3.org/2000/svg" fill="none" viewBox="0 0 24 24"><g clip-path="url(#clip0_1276_5879)"><path fill="currentColor" d="M16 10.5a1 1 0 1 1-2 0 1 1 0 0 1 2 0m2 3a1 1 0 1 1-2 0 1 1 0 0 1 2 0"/><path fill="currentColor" fill-rule="evenodd" d="M15-.75c.41 0 .75.34.75.75v1c0 .97-.78 1.75-1.75 1.75h-1a.25.25 0 0 0-.25.25v.25h1.28c1.38 0 2.45 0 3.32.07.88.07 1.6.22 2.26.56a6 6 0 0 1 2.51 2.51c.34.66.49 1.38.56 2.26s.07 1.94.07 3.32v.06c0 1.38 0 2.45-.07 3.32-.07.88-.22 1.6-.56 2.26a6 6 0 0 1-2.51 2.51c-.66.34-1.38.49-2.26.56s-1.94.07-3.32.07H9.97c-1.38 0-2.45 0-3.32-.07a6 6 0 0 1-2.26-.56 6 6 0 0 1-2.51-2.51 6 6 0 0 1-.56-2.26c-.07-.87-.07-1.94-.07-3.32v-.06c0-1.38 0-2.45.07-3.32.07-.88.22-1.6.56-2.26a6 6 0 0 1 2.51-2.51 6 6 0 0 1 2.26-.56c.87-.07 1.94-.07 3.32-.07h1.28V3c0-.97.78-1.75 1.75-1.75h1c.14 0 .25-.11.25-.25V0c0-.41.34-.75.75-.75m-5 5.5c-1.41 0-2.43 0-3.22.07a4 4 0 0 0-1.7.4c-.8.4-1.46 1.05-1.87 1.85-.2.41-.33.92-.4 1.7-.06.8-.06 1.82-.06 3.23s0 2.43.07 3.22c.06.79.18 1.3.4 1.71.4.8 1.05 1.45 1.85 1.86.41.2.92.33 1.7.4.8.06 1.82.06 3.23.06h4c1.41 0 2.43 0 3.22-.07a4 4 0 0 0 1.71-.4c.8-.4 1.45-1.05 1.86-1.85.2-.41.33-.92.4-1.7.06-.8.06-1.82.06-3.23s0-2.43-.07-3.22a5 5 0 0 0-.4-1.7 4.3 4.3 0 0 0-1.85-1.87 5 5 0 0 0-1.7-.4c-.8-.06-1.82-.06-3.23-.06zm-2 4.5c.41 0 .75.34.75.75v1.25H10a.75.75 0 0 1 0 1.5H8.75V14a.75.75 0 0 1-1.5 0v-1.25H6a.75.75 0 0 1 0-1.5h1.25V10c0-.41.34-.75.75-.75" clip-rule="evenodd"/></g><defs><clipPath id="clip0_1276_5879"><path fill="currentColor" d="M0 0h24v24H0z"/></clipPath></defs></svg>
