<svg xmlns="http://www.w3.org/2000/svg" viewBox="0 0 24 24"><path id="surface1" d="M23.72 20.77h-9.9a.3.3 0 0 1-.28-.28v-1.26c0-.16.12-.28.28-.28h9.9q.26.02.28.28v1.26c0 .15-.12.28-.28.28m-9.63-.56h9.36v-.71h-9.36ZM.8 16.05a.3.3 0 0 1-.26-.2L0 14.26a.3.3 0 0 1 .18-.36l8.35-2.65a.3.3 0 0 1 .2.02q.1.05.14.16l.06.17 4.17-1.33-.1-.33a.3.3 0 0 1 .01-.21.3.3 0 0 1 .17-.14l.73-.23-.14-.42a.3.3 0 0 1 .02-.22q.06-.1.16-.13l.44-.14-.22-.71h-.04l-.2.04a.7.7 0 0 1-.68-.49L13 6.45a1.4 1.4 0 0 1 .9-1.75l4.39-1.4q.21-.07.42-.07c.61 0 1.14.4 1.33.97l.26.84a.7.7 0 0 1-.46.89h-.03l.23.71.44-.14a.27.27 0 0 1 .35.18L21.87 10q.04.1-.02.2a.3.3 0 0 1-.16.14l-.44.14.22.71h.04l.21-.04c.3 0 .58.2.67.5l.27.83c.11.35.08.73-.1 1.06q-.26.5-.8.69l-4.4 1.4a1.4 1.4 0 0 1-1.75-.9l-.26-.85a.7.7 0 0 1 .46-.89h.03l-.22-.71-.44.14a.27.27 0 0 1-.35-.18l-.14-.43-.73.24a.3.3 0 0 1-.35-.18l-.1-.33-4.18 1.32.06.18c.05.14-.04.3-.18.34L.87 16.04zm-.17-1.71.35 1.09 7.82-2.49-.35-1.09Zm18.22-1.72-2.85.9a.15.15 0 0 0-.1.2l.26.83a.84.84 0 0 0 1.06.54l4.39-1.4a.84.84 0 0 0 .54-1.05l-.27-.83a.15.15 0 0 0-.18-.1Zm-2.69-.51.23.7 4.58-1.45-.23-.7Zm-7.04 0 .07.23L13.35 11l-.07-.22Zm5.78-1.52.4 1.22 5.98-1.9-.89-2.8-5.99 1.91.14.43Zm-1.27-.56.45 1.4.47-.14-.45-1.41Zm1.09-2.47.22.71 4.58-1.46-.22-.7Zm4-3.77-.25.04-4.4 1.4a.84.84 0 0 0-.54 1.05l.27.83q.04.13.19.1l5.7-1.81q.13-.05.1-.2l-.27-.83a.84.84 0 0 0-.8-.58m0 0" style="stroke:none;fill-rule:nonzero;fill:currentColor;fill-opacity:1"/></svg>
