<svg xmlns="http://www.w3.org/2000/svg" fill="currentColor" viewBox="0 0 32 32"><path d="M16 0C8.84 0 3 6.24 3 13.92v17.09a1 1 0 0 0 1.75.67l3.77-4.16 2.95 4.07a1 1 0 0 0 1.61 0l2.96-3.97 2.92 3.98a1 1 0 0 0 1.61 0l2.99-4.08 3.68 4.15A1 1 0 0 0 29 31V13.92C29 6.24 23.16 0 16 0m10.99 28.38-2.76-3.1a1 1 0 0 0-1.55.07l-2.92 3.96-2.9-3.96a1 1 0 0 0-.8-.41h-.01a1 1 0 0 0-.8.4l-2.96 3.98-2.88-3.97a1 1 0 0 0-.75-.42H8.6a1 1 0 0 0-.74.33l-2.85 3.15V13.92C5 7.35 9.94 2 16 2s10.99 5.35 10.99 11.92zM21 11a2 2 0 1 0 0 3.98A2 2 0 0 0 21 11m-10 0a2 2 0 1 0 0 3.98A2 2 0 0 0 11 11"/></svg>
