<svg xmlns="http://www.w3.org/2000/svg" fill="none" viewBox="0 0 24 24"><path fill="currentColor" fill-rule="evenodd" d="M10.76 1.53A3.62 3.62 0 0 0 6.44 7q-.64-.01-1.07.05a4 4 0 0 0-3.32 3.32C2 10.7 2 11.04 2 11.52v.15q-.01.45.04.8A3 3 0 0 0 4 14.83v1.38q-.01 1.23.05 2.05.04.86.4 1.58a4 4 0 0 0 1.7 1.71q.74.36 1.6.4.81.06 2.04.05h4.42q1.23.01 2.05-.05a4 4 0 0 0 1.58-.4 4 4 0 0 0 1.71-1.7c.26-.5.36-1.02.4-1.6q.06-.81.05-2.04v-1.38a3 3 0 0 0 1.96-2.36q.05-.36.04-.8v-.15c0-.48 0-.83-.05-1.15a4 4 0 0 0-3.32-3.32q-.43-.06-1.07-.05A3.62 3.62 0 0 0 12 2.38a4 4 0 0 0-1.24-.85M11 9H6.6c-.6 0-.78 0-.91.02a2 2 0 0 0-1.67 1.67C4 10.82 4 11 4 11.6l.01.56a1 1 0 0 0 .83.83l.56.01H11zm2 4V9h4.4c.6 0 .78 0 .91.02a2 2 0 0 1 1.67 1.67c.02.13.02.31.02.91l-.01.56a1 1 0 0 1-.83.83l-.56.01zm-2 2H6v1.17c0 .87 0 1.46.04 1.92s.1.67.19.83a2 2 0 0 0 .85.85c.16.09.38.15.83.2.46.03 1.05.03 1.92.03H11zm2 5v-5h5v1.17c0 .87 0 1.46-.04 1.92s-.1.67-.19.83a2 2 0 0 1-.85.85c-.16.09-.38.15-.83.2-.46.03-1.05.03-1.92.03zm1.63-13.5H13V4.88a1.63 1.63 0 1 1 1.63 1.62m-3.9-2.53q.26.41.27.9V6.5H9.38a1.62 1.62 0 1 1 1.35-2.53" clip-rule="evenodd"/></svg>
