<svg xmlns="http://www.w3.org/2000/svg" fill="none" viewBox="0 0 24 24"><path stroke="currentColor" stroke-width="2" d="M9 6a3 3 0 1 1-6 0 3 3 0 0 1 6 0Zm12 12a3 3 0 1 1-6 0 3 3 0 0 1 6 0Z"/><path stroke="currentColor" stroke-linecap="round" stroke-linejoin="round" stroke-width="2" d="m15 3-2.94 2.94v0a.1.1 0 0 0 0 .12v0L15 9M9 21l2.95-2.95v0a.1.1 0 0 0 0-.1v0L9 15"/><path stroke="currentColor" stroke-width="2" d="M12 6c2.83 0 4.24 0 5.12.88S18 9.18 18 12v3m-6 3c-2.83 0-4.24 0-5.12-.88S6 14.82 6 12V9"/></svg>
