<svg xmlns="http://www.w3.org/2000/svg" fill="none" viewBox="0 0 24 24"><path stroke="currentColor" stroke-linecap="round" stroke-linejoin="round" stroke-width="2" d="M9.3 21v-2.56l.03-1.82a2.6 2.6 0 0 1 .64-1.53l-.02-.04v0C7.53 14.75 5 13.72 5 9.27a4.7 4.7 0 0 1 1.07-3.08v0a.14.14 0 0 0 .03-.15 4.5 4.5 0 0 1 .11-2.96A.1.1 0 0 1 6.3 3v0c.21-.03 1.08-.08 2.74 1.06l.16.11v0q.06.04.13.03 0 0 0 0a10 10 0 0 1 5.34 0q0 0 0 0 .09 0 .16-.03v0l.15-.1c1.66-1.15 2.52-1.1 2.74-1.07v0a.1.1 0 0 1 .07.07v.01a4.5 4.5 0 0 1 .12 2.96v0a.2.2 0 0 0 .03.14l.07.08c.66.84 1.02 1.9 1 3 0 4.48-2.54 5.47-4.98 5.75v.04a2.8 2.8 0 0 1 .72 2.12V21"/><path stroke="currentColor" stroke-linecap="round" stroke-linejoin="round" stroke-width="2" d="M4 17a2.5 2.5 0 0 1 1.78 1.2 2.5 2.5 0 0 0 3.4.99"/></svg>
