<svg xmlns="http://www.w3.org/2000/svg" fill="currentColor" viewBox="0 0 32 32"><path d="M29.05 12.95c0-5.27-2.78-10.06-7.44-12.8a1 1 0 1 0-1.01 1.73 12.8 12.8 0 0 1 6.45 11.07c0 7.57-5.5 13.07-13.08 13.07q-2.54 0-4.88-.94a1 1 0 1 0-.75 1.85q2.7 1.1 5.63 1.1H14v1.96h-2.9c-.58 0-1.05.45-1.05 1s.47 1 1.05 1H19c.58 0 1.05-.45 1.05-1s-.47-1-1.05-1h-3.01V27.9c7.68-.89 13.07-6.9 13.07-14.95zm-4.07.09C24.98 6.96 20.05 2 13.97 2S2.95 6.96 2.95 13.04s4.93 10.98 11.02 10.98 11.01-4.9 11.01-10.98m-20.03 0C4.95 8.07 9 4 13.97 4s9 4.07 9 9.04a9 9 0 0 1-9 8.98 9 9 0 0 1-9.02-8.98"/></svg>
