<svg xmlns="http://www.w3.org/2000/svg" fill="none" viewBox="0 0 24 24"><path fill="currentColor" fill-rule="evenodd" d="M18 1.5a.75.75 0 0 1 1.06-.06 11.06 11.06 0 0 1-6.31 19.26v.55H14a.75.75 0 0 1 0 1.5h-4a.75.75 0 0 1 0-1.5h1.25v-.5a11 11 0 0 1-7.8-3.69.75.75 0 1 1 1.1-1 9.56 9.56 0 1 0 13.5-13.5A.75.75 0 0 1 18 1.5M7.22 5.97a6.25 6.25 0 0 0 5.07 10.27 3.3 3.3 0 0 1 .34-2.07c.49-.92 1.48-1.3 2.16-1.47a6 6 0 0 1 1.32-.17h.02a2.4 2.4 0 0 0 1.43-.37q.35-.27.5-.68l.03-.06a6.3 6.3 0 0 0-1.59-5.76q-.19.56-.44.95c-.21.33-.6.66-.92.89a7 7 0 0 1-.69.44l-.46.3q-.45.28-.69.74a.4.4 0 0 0-.01.29q.1.34.1.72c0 1.12-1.04 1.77-1.9 1.76-1.98-.02-3.15-1.69-3.3-3.45a5 5 0 0 0-.97-2.33m1.1-1.03c.6.8 1.25 1.96 1.36 3.23.1 1.27.87 2.07 1.83 2.08q.16 0 .29-.1.1-.1.09-.15 0-.17-.05-.35c-.1-.37-.12-.83.1-1.3.31-.65.76-1.06 1.2-1.36l.54-.34q.04 0 .07-.04.29-.15.5-.32.48-.37.54-.48c.17-.27.36-.75.43-1.17a6.2 6.2 0 0 0-6.9.3m8.5 9.04q-.31.04-.67.05h-.07a4 4 0 0 0-.94.13c-.58.14-1.02.39-1.19.7-.2.39-.22.8-.18 1.14a6.3 6.3 0 0 0 3.05-2.02M4.25 10a7.75 7.75 0 1 1 15.5 0 7.75 7.75 0 0 1-15.5 0" clip-rule="evenodd"/></svg>
