<svg xmlns="http://www.w3.org/2000/svg" fill="none" viewBox="0 0 24 24"><path stroke="currentColor" stroke-linecap="round" stroke-linejoin="round" stroke-width="1.5" d="M22 12a10 10 0 1 0-10 10"/><path stroke="currentColor" stroke-linecap="round" stroke-linejoin="round" stroke-width="1.5" d="M8 3h1a28.4 28.4 0 0 0 0 18H8m7-18a29 29 0 0 1 1.46 9"/><path stroke="currentColor" stroke-linecap="round" stroke-linejoin="round" stroke-width="1.5" d="M3 16v-1c2.92.97 5.96 1.46 9 1.46M3 9a28.4 28.4 0 0 1 18 0m-1.5 5.7a4 4 0 0 0-1.25-.18 3.74 3.74 0 1 0 3.11 1.66m-1.32-1.38-1.25-1.43m1.25 1.43-1.46 1.06"/></svg>
