<svg xmlns="http://www.w3.org/2000/svg" fill="currentColor" viewBox="0 0 32 32"><path d="M32.03 16a16.03 16.03 0 0 0-15.6-16H16C7.16 0-.03 7.18-.03 16S7.16 32 16 32h.44q.26 0 .52-.03c8.4-.5 15.07-7.47 15.07-15.97m-2.98 5.15c-.55-.16-1.94-.5-4.38-.8a30 30 0 0 0 .12-7.82c3.1-.37 4.45-.83 4.54-.87l-.37-1.05a14 14 0 0 1 .09 10.54M8.92 16q0-1.68.21-3.26 2.43.2 5.84.24v6.94q-3.32.04-5.7.23A25 25 0 0 1 8.91 16m8.05-13.87c2.45.71 4.55 4.12 5.49 8.63q-2.26.18-5.5.23zm-2 .03v8.83q-3.2-.04-5.5-.23c.96-4.45 3.08-7.83 5.5-8.6m0 19.75v7.93c-2.26-.72-4.26-3.7-5.3-7.72q2.25-.17 5.3-.2m2 7.96V21.9q3.08.04 5.29.22c-1.02 4.07-3 7.08-5.3 7.74m0-9.95v-6.94q3.43-.04 5.82-.25a27 27 0 0 1-.13 7.43 80 80 0 0 0-5.7-.24m11.65-10.1c-.3.1-1.57.45-4.1.75-.56-3-1.58-5.56-2.9-7.41a14 14 0 0 1 7 6.66M11.2 2.83a18 18 0 0 0-3.69 7.75 34 34 0 0 1-4.16-.66 14 14 0 0 1 7.85-7.09m-8.6 8.96c.39.1 1.85.46 4.55.76a25 25 0 0 0 .15 7.78c-2.33.26-3.76.56-4.4.71a14 14 0 0 1-.3-9.25m1.17 11.1c.73-.16 2.03-.4 3.96-.6.76 2.8 2 5.18 3.47 6.88a14 14 0 0 1-7.43-6.28m17.8 5.96c1.2-1.67 2.14-3.9 2.73-6.53 1.98.23 3.23.5 3.85.66a14 14 0 0 1-6.58 5.87"/></svg>
