<svg xmlns="http://www.w3.org/2000/svg" viewBox="-56.14 0 409.191 409.191"><defs><style>.a{fill:#fff}.b{fill:#7a7473}.c{fill:#211715}.d{fill:#3d8dcc}.f{fill:#febe69}.g{fill:#f2635f}</style></defs><path d="M270.28 72.3a4.4 4.4 0 0 1 3.15-1.16 4 4 0 0 1 3.64 2.02c1.23 2.14 1.18 6.09.35 8.53a13 13 0 0 1-3.87 6.27 4.8 4.8 0 0 1-3.7 1.07l-.26-.04c-.44 1.28-.99 2.42-1.17 2.98-.96 2.6-6.34 11.84-13.08 15.12v1c-.5.4-10.74 8.48-11.51 9.03h-1.8c-.78-.55-11.01-8.62-11.51-9.03v-.83a28 28 0 0 1-8.35-6.96 33 33 0 0 1-6.1-11.3 4.8 4.8 0 0 1-3.9-1.03 13 13 0 0 1-3.88-6.28c-.82-2.44-.88-6.39.36-8.53a4 4 0 0 1 3.63-2.02 4.4 4.4 0 0 1 3.16 1.16s-6.37-28.68 26.76-28.68 28.08 28.67 28.08 28.67" class="a"/><path d="M241.75 165.62c-3.22-7.55-4.77-10.88-7.55-18.67-3.4-9.53-7.6-20.01-10.35-29.93l2.07-1.06a3.7 3.7 0 0 1 .8-3.28c1.15-1.34 2.6-3.27 3.79-4.6.5.41 10.73 8.48 11.51 9.03h1.8c.78-.55 11-8.62 11.51-9.03 1.18 1.33 2.64 3.26 3.8 4.6a3.7 3.7 0 0 1 .79 3.28l1.09.45a159 159 0 0 1-2.43 7.98c-2.49 7.55-5.48 15.2-8.03 22.32-2.78 7.79-4.33 11.12-7.54 18.67Zm.15 142.98h-2.42a146 146 0 0 1-22.13-1.75c.9 9.57 1.68 19.52 2.3 29.58a157 157 0 0 0 22.69.04 186 186 0 0 0 22.75-.03c.39-9.22 1.01-18.74 2.15-28.8-9.1.57-18.57.92-25.34.96" class="a"/><path d="M220.08 342c.57 11.08.97 22.19 1.2 33.02l.04.01c4.83 1.75 7.92 2.29 10.55 1.47a33 33 0 0 0 5.64-2.37 4.3 4.3 0 0 1 2.6-.62c1.6.33 2.69.74 2.69 2.37 0-1.63.63-2.04 2.23-2.37a4.3 4.3 0 0 1 2.6.62 33 33 0 0 0 5.64 2.37c2.63.82 5.72.28 10.55-1.47l.27-.08c.35-12.7.42-25.33.9-38.5-7.66 0-16.48.5-22.67.02-6.15.47-14.92 0-22.55-.03q.17 2.78.31 5.57" class="a"/><path d="M230.83 393.49c.56-.25 1.15-.44 1.72-.65a23 23 0 0 0 6.42-3.9c1.33-1.04 3.68-3.6 3.77-5.13.15-2.77.07-5.7.06-7.93 0-1.64-1.09-2.05-2.68-2.38a4.3 4.3 0 0 0-2.6.63 33 33 0 0 1-5.65 2.37c-2.62.81-5.72.27-10.54-1.47-2.49-.9-5.53 2.62-7.6 4.58a120 120 0 0 0-11.1 10.58 9 9 0 0 0-1.68 3.11 12 12 0 0 0-.53 3.38c-.03 2.42.28 5.06 2 6.76a8 8 0 0 0 3.6 1.85 17 17 0 0 0 8.66-.02c5.4-1.46 9.7-5.5 13.46-9.63a10 10 0 0 1 1.75-1.64 6 6 0 0 1 .94-.51" class="b"/><path d="M254.31 393.49c-.56-.25-1.14-.44-1.72-.65a23 23 0 0 1-6.42-3.9c-1.33-1.04-3.43-3.6-3.43-5.13 0-2.54.06-6.13.06-7.93 0-1.64.63-2.05 2.23-2.38a4.3 4.3 0 0 1 2.6.63 33 33 0 0 0 5.64 2.37c2.63.81 5.73.27 10.55-1.47 2.48-.9 5.52 2.62 7.59 4.58a120 120 0 0 1 11.1 10.58 9 9 0 0 1 1.68 3.11 12 12 0 0 1 .54 3.38c.03 2.42-.28 5.06-2 6.76a8 8 0 0 1-3.6 1.85 17 17 0 0 1-8.67-.02c-5.4-1.46-9.7-5.5-13.46-9.63a10 10 0 0 0-1.74-1.64 6 6 0 0 0-.95-.51" class="b"/><path d="M231.37 395.42a33 33 0 0 0 6.4-3.1 24 24 0 0 0 4.51-3.8 8.5 8.5 0 0 0 2.48-5.17c.13-2.36.08-4.73.05-7.1a4.25 4.25 0 0 0-2.93-4.35 6.6 6.6 0 0 0-5.65.65 24 24 0 0 1-5.4 2.16 10 10 0 0 1-4.44-.21 35 35 0 0 1-3.18-.93 8 8 0 0 0-2.98-.67c-2.05.13-3.78 1.44-5.26 2.75-1.54 1.37-2.98 2.84-4.53 4.21a163 163 0 0 0-5.47 4.99 30 30 0 0 0-4.73 5.24 14.5 14.5 0 0 0-.55 13 8.7 8.7 0 0 0 5.4 4 19.4 19.4 0 0 0 15.42-2.18 34 34 0 0 0 6.04-4.74c1.67-1.61 3.17-3.97 5.3-4.96a2 2 0 0 0 .72-2.74 2.05 2.05 0 0 0-2.74-.72c-1.75.82-2.91 2.3-4.21 3.68a47 47 0 0 1-4.04 3.84 18 18 0 0 1-10.07 4.53 14 14 0 0 1-6.13-.82 4.6 4.6 0 0 1-2.8-3.75 11.6 11.6 0 0 1 .25-5.2c.55-1.89 1.9-3.23 3.23-4.61 2.88-2.98 6.07-5.59 9.1-8.4a41 41 0 0 1 3.51-3.26 4 4 0 0 1 1.68-.87 6 6 0 0 1 2.02.6c3.02 1 6.34 1.83 9.52 1.07a28 28 0 0 0 5.2-1.98c1.1-.51 2.06-1.33 3.3-.97.64.2.42.13.42.83l.03 3.2q.02 1.85-.07 3.7a3 3 0 0 1-.75 1.65c-2.37 3.28-6.09 5.06-9.71 6.56a2.07 2.07 0 0 0-1.4 2.46 2 2 0 0 0 2.46 1.4" class="c"/><path d="M254.84 391.56c-3.32-1.37-6.77-2.9-9.04-5.84a4.8 4.8 0 0 1-1.06-3.76l.06-5.25a6 6 0 0 0-.04-1.12c-.13.2-.02 0 .18 0a3 3 0 0 1 .87-.06 6 6 0 0 1 1.55.72q1.17.59 2.4 1.07a15.3 15.3 0 0 0 9.52 1.16q1.24-.27 2.46-.64a13 13 0 0 1 2.89-.95c1.17-.03 2.47 1.36 3.26 2.1 2.86 2.66 5.8 5.24 8.65 7.92 2.77 2.62 5.97 5.26 6.18 9.34a9 9 0 0 1-.81 5c-.94 1.62-2.94 2.12-4.66 2.42-4.52.78-8.84-.8-12.46-3.44a37 37 0 0 1-4.68-4.2c-1.5-1.54-2.8-3.34-4.79-4.27a2.06 2.06 0 0 0-2.73.72 2 2 0 0 0 .71 2.74c1.92.9 3.23 2.91 4.7 4.38a39 39 0 0 0 5.27 4.44 20 20 0 0 0 13.37 3.71 13 13 0 0 0 6.88-2.36 8.7 8.7 0 0 0 3-5.66 16 16 0 0 0-.4-6.95 15 15 0 0 0-3.73-5.69c-3.3-3.49-7.08-6.44-10.5-9.8a19 19 0 0 0-4.54-3.67 6 6 0 0 0-2.7-.73 12 12 0 0 0-3.35.9 18 18 0 0 1-5.58 1.09 14 14 0 0 1-5.13-1.51c-1.71-.76-3.31-1.92-5.26-1.9a4.5 4.5 0 0 0-4.29 2.76 9 9 0 0 0-.24 2.8l-.03 3.54c-.03 2.32-.2 4.38 1.07 6.42a17 17 0 0 0 4.7 4.73 32 32 0 0 0 7.25 3.7 2 2 0 0 0 2.46-1.4 2.05 2.05 0 0 0-1.4-2.46" class="c"/><path d="M224.38 118.88q-.75-2.52-1.36-5a33 33 0 0 0-8.03 6.66c-.53.26-.86.4-.86.4-.33.16-3.37 1.77-4.85 2.53-3.22 1.67-6.56 3.6-8.8 6.14-3.8 4.35-5.86 11.56-7.44 18.68-.84 3.76-1.67 10-3.04 17.32-.96 5.1-1.92 10.34-1.1 15.47a12.3 12.3 0 0 0 8.65 10.12c1.26.44 5.32.4 8.82-1.47-1.03 8.66-2.42 17.7-3.22 25.43 4.76.6 19.93.68 23.36.59a16.2 16.2 0 0 0 9.63-3.25c2.48-2.09 3.53-5.3 4.48-8.33.56-1.8 1.18-4.45 1.6-6.5a64 64 0 0 0 1.6 6.5c.94 3.03 2 6.24 4.48 8.33a16.2 16.2 0 0 0 9.63 3.25c3.5.09 20.21-.2 24.63-.85-.9-8.82-2.7-19.68-3.46-30.51l-.02-.32a14 14 0 0 0 4.28.74 9.2 9.2 0 0 0 8.59-4.21c1.83-2.88 2.4-6.13 2.72-9.53 1.01-10.84-1.37-20.66-2.53-27.04-.84-4.22-3.1-11.6-6.16-14.89a30 30 0 0 0-7.9-5.97c-.42-.22-10.73-5.06-9.2-3.85a35 35 0 0 0-6.14-5.08q-.51-.34-1-.6a146 146 0 0 1-3.15 10.75c-2.49 7.55-5.48 15.2-8.03 22.32-2.96 8.32-4.53 11.55-8.22 20.27-3.62-8.54-5.19-11.79-8.13-20.03-3.2-8.94-7.1-18.7-9.84-28.07" class="d"/><path d="M264 150.64c2.9-4.63 5.77-9.29 8.5-14.02 1.18-2.05 3.12-4.5 1.18-6.7-1.6-1.83-3.94-3.03-5.92-4.42v3.46l2.8-1.79a16 16 0 0 0 2.75-1.75c1.73-1.74-.06-3.94-1.21-5.42a32 32 0 0 0-9.36-8.09 2.02 2.02 0 0 0-2.94 1.2c-2.39 9.59-5.95 18.83-9.36 28.08-1.51 4.1-2.94 8.23-4.56 12.29-1.46 3.66-3.05 7.27-4.6 10.9a2.07 2.07 0 0 0 .72 2.73 2 2 0 0 0 2.74-.72c1.58-3.72 3.21-7.43 4.73-11.19 1.67-4.12 3.13-8.33 4.67-12.5 3.46-9.4 7.1-18.79 9.52-28.52l-2.94 1.19a29 29 0 0 1 5.55 4.2 17 17 0 0 1 4.04 5l-.27-1.02.01.24.28-1-.16.21.71-.72c-1.73 1.05-3.41 2.16-5.14 3.22a2.03 2.03 0 0 0 0 3.46c.94.66 1.9 1.27 2.85 1.92q.63.43 1.23.9.32.27.62.55.55.38.21.27v-1.06a6 6 0 0 1-.92 1.86l-1.27 2.2q-1.25 2.15-2.53 4.28-2.64 4.4-5.38 8.74c-1.38 2.19 2.08 4.2 3.45 2.02" class="c"/><path d="m195.79 302.97-1.09-.2a2.5 2.5 0 0 1-2.06-2.67c3.32-32.82 8.88-66.22 13.11-83.88l.2-.83c6.27.39 17.65.43 20.55.36a16.2 16.2 0 0 0 9.64-3.25c2.48-2.09 3.53-5.3 4.48-8.33.56-1.8 1.18-4.45 1.6-6.5a64 64 0 0 0 1.6 6.5c.94 3.03 2 6.24 4.47 8.33a16.2 16.2 0 0 0 9.64 3.25c3 .08 15.73-.13 22.08-.6l.5 2.59c4.94 19.25 9.57 54.48 12.66 87.17-9.28 2.14-39.68 3.79-53.68 3.69-16.33-.11-25.75-2.35-39.9-4.95z" style="fill:#c6c6c6"/><path d="M278.57 218.27c2.4 9.39 4.04 18.97 5.54 28.53a859 859 0 0 1 4.8 36.4q1.23 10.85 2.25 21.71l1.47-1.93a87 87 0 0 1-11.04 1.55c-5.36.53-10.73.9-16.1 1.22a312 312 0 0 1-32.5.68 153 153 0 0 1-18.9-2.13c-3.03-.52-6.05-1.1-9.08-1.66q-2.45-.47-4.91-.92l-2.6-.47a8 8 0 0 1-2.6-.48c-.38-.25-.24-.68-.2-1.15q.13-1.46.3-2.9.33-3.14.69-6.28.65-5.75 1.38-11.5 1.44-11.24 3.17-22.45c2.06-13.31 4.32-26.64 7.45-39.74.6-2.5-3.26-3.57-3.86-1.07-2.82 11.83-4.91 23.83-6.83 35.83q-3.75 23.47-6.2 47.14c-.18 1.8-.21 3.47 1.17 4.84 1.3 1.3 3.2 1.38 4.91 1.69q5.1.92 10.18 1.9a212 212 0 0 0 19.08 2.87c11.52 1.09 23.15.63 34.69.05 10.21-.51 20.6-1 30.69-2.73q1.1-.2 2.19-.43a2 2 0 0 0 1.46-1.93c-2.3-24.38-5.03-48.82-9.53-72.9-.93-4.96-1.95-9.91-3.2-14.8-.64-2.5-4.5-1.44-3.86 1.06Zm-58.79 120.17a135 135 0 0 0 22.8 0c2.54-.2 2.56-4.2 0-4a135 135 0 0 1-22.8 0 2 2 0 0 0-2 2 2.04 2.04 0 0 0 2 2" class="c"/><path d="M265 334.44a156 156 0 0 1-22.92 0c-2.56-.2-2.55 3.8 0 4a156 156 0 0 0 22.92 0c2.55-.17 2.57-4.17 0-4" class="c"/><path d="M240.09 311.65c.44 8.23.42 16.49.46 24.73q.06 13.72-.01 27.44l-.04 8.52c0 2.57 4 2.58 4 0 0-16.12.17-32.24-.06-48.36a313 313 0 0 0-.36-12.33c-.13-2.56-4.14-2.58-4 0m-24.58-3.05a943 943 0 0 1 3.3 51.07q.27 7.26.44 14.52c.06 2.57 4.06 2.58 4 0q-.61-25.72-2.54-51.4-.54-7.1-1.2-14.2a2.05 2.05 0 0 0-2-2 2 2 0 0 0-2 2Zm49.63-.04c-1.87 17-2.35 34.08-2.69 51.17q-.13 6.87-.3 13.74c-.07 2.57 3.93 2.57 4 0 .44-16.59.49-33.19 1.63-49.75q.53-7.6 1.36-15.16a2 2 0 0 0-2-2 2.05 2.05 0 0 0-2 2" class="c"/><path d="M212.32 47.89A33 33 0 0 1 223.2 34.5a34.6 34.6 0 0 1 35.03-2.6c7.17-8.7 18.11-4.15 19.46 2.9.89 4.6 1.15 7.44 3.26 11.6 2.17 4.29 3.98 4.82 7.76 6.6-2.89 4.26-6.64 7.92-12.77 6.94a35 35 0 0 1-1.47 11.32 6 6 0 0 0-1.04-.13 4.4 4.4 0 0 0-3.07 1.1c-4.57-.95-9.35-5.53-12.09-9.03-2.62-3.35-4.26-7.36-5.64-11.9-4.2 4.72-11.31 8.6-19.23 12.94a109 109 0 0 1-13.34 5.22l-4.63 2.82a4.4 4.4 0 0 0-3.15-1.15 6 6 0 0 0-1.14.15 36 36 0 0 1-1.52-11.35 35 35 0 0 1 1.3-8.14 32 32 0 0 1 1.4-3.91" class="f"/><path d="M237.45 95.73a12 12 0 0 0 5.7 1.32 9.4 9.4 0 0 0 5.85-1.77 2 2 0 0 0 .59-1.42 2 2 0 0 0-.59-1.41 2.06 2.06 0 0 0-2.83 0c.7-.54 0-.03-.22.09-.17.09-.62.23.02 0l-.46.18c-.42.13-.88.16-1.29.29.21-.07.34-.04.04-.01l-.38.03q-.46.03-.91.03-.41 0-.82-.03l-.38-.03-.21-.03.2.03c-.01-.04-1.09-.23-1.2-.27q-.27-.08-.5-.17c-.45-.15.42.2.02.02l-.61-.3a2 2 0 1 0-2.02 3.45m4.4-13.05a25 25 0 0 1 .6 2.72l-.07-.53v.37l.08-.53-.04.17.2-.48-.06.11.31-.4-.09.08.4-.3-.2.1.47-.2-.36.11.53-.07a1 1 0 0 1-.34 0l.53.07-.39-.06a1.5 1.5 0 0 0-.8-.04 1.5 1.5 0 0 0-.74.24 2 2 0 0 0-.72 2.73l.32.4a2 2 0 0 0 .88.52c.34.05.68.14 1.03.15a3.4 3.4 0 0 0 1.6-.39 2.4 2.4 0 0 0 1.3-1.58 4 4 0 0 0 0-1.65q-.25-1.3-.58-2.6a2 2 0 0 0-.92-1.2 2 2 0 0 0-2.74.72 2 2 0 0 0-.2 1.54m-13.8-7.87c-.46 1.48-.16 4.87 2.63 5.16 3.7-.02 3.9-4.13 2.65-6.06-1.02-1.58-4.01-2.24-5.29.9m29.61 0c.46 1.48.16 4.87-2.64 5.16-3.7-.02-3.9-4.13-2.65-6.06 1.02-1.58 4.02-2.24 5.3.9m10.56 11.36a18 18 0 0 1-1.35 4.3l-.46 1.16c-.1.28.21-.44-.04.08l-.18.39a37 37 0 0 1-3.1 5.12c-2.66 3.73-6.29 7.79-10.9 8.87-2.5.59-1.45 4.45 1.06 3.86 5.52-1.3 9.78-5.88 13-10.3a37 37 0 0 0 3.36-5.46 24 24 0 0 0 2.47-6.96 2.07 2.07 0 0 0-1.4-2.46 2 2 0 0 0-2.46 1.4m-54.72.95a35 35 0 0 0 7.64 15.04c3.73 4.32 8.7 7.98 14.45 8.86a2.06 2.06 0 0 0 2.46-1.4 2 2 0 0 0-1.4-2.46c-10.12-1.55-17.11-11.77-19.3-21.1-.58-2.51-4.44-1.45-3.85 1.06" class="c"/><path d="M216.84 70.88a6.8 6.8 0 0 0-7.36-1.1 6.4 6.4 0 0 0-3.36 4.32 16 16 0 0 0 2.33 12.68c1.65 2.45 4.26 4.66 7.41 4.25a2.07 2.07 0 0 0 2-2 2 2 0 0 0-2-2c-2.19.29-3.61-1.53-4.56-3.28a13 13 0 0 1-1.56-4.84 8.3 8.3 0 0 1 .83-5.06c-.33.52.51-.44.2-.22a2 2 0 0 1 .93-.42 2.5 2.5 0 0 1 2.32.5c1.91 1.7 4.75-1.12 2.82-2.83m54.85 2.83a2.5 2.5 0 0 1 2.19-.52 2 2 0 0 1 1.05.45c-.3-.22.52.72.2.21a8.3 8.3 0 0 1 .84 5.06 13 13 0 0 1-1.56 4.85c-.95 1.75-2.38 3.56-4.57 3.27a2 2 0 0 0-2 2 2.05 2.05 0 0 0 2 2c5.14.67 8.3-4.87 9.58-9.02 1.15-3.73 1.1-9.5-2.55-11.88a6.7 6.7 0 0 0-8 .75c-1.93 1.72.9 4.54 2.82 2.83" class="c"/><path d="M276.67 70.7c2.2-8.9 1.52-18.43-2.88-26.6a29 29 0 0 0-6.57-8.24 41 41 0 0 0-9.46-6.4 36.8 36.8 0 0 0-26.99-1.16 35.4 35.4 0 0 0-17.38 13.51c-5.74 8.46-7 19.1-4.5 28.9.65 2.5 4.5 1.44 3.87-1.06a30.8 30.8 0 0 1 16.5-36.43 33 33 0 0 1 24.33-1.16 32 32 0 0 1 9.14 5.29 28 28 0 0 1 6.23 6.48c5.06 7.6 6 17.09 3.85 25.82-.61 2.5 3.24 3.56 3.86 1.06Z" class="c"/><path d="M259.95 32.95a10.3 10.3 0 0 1 7.48-3.81 9 9 0 0 1 6.44 2.63c2.02 2.06 2.1 4.88 2.64 7.57a28 28 0 0 0 3.72 9.84c1.86 2.84 4.48 4.15 7.46 5.55l-.71-2.74c-2.44 3.56-5.52 6.38-10.09 6.07-2.57-.18-2.56 3.83 0 4 6.02.41 10.34-3.37 13.54-8.05a2 2 0 0 0-.72-2.74c-2.57-1.2-4.9-2.16-6.4-4.7-1.94-3.28-2.7-6.9-3.38-10.6-.57-3.1-1.61-5.8-4.14-7.85a13 13 0 0 0-8.36-2.98 14.2 14.2 0 0 0-10.32 4.99c-1.71 1.9 1.11 4.75 2.83 2.82Zm-32.76 25.19c1.62 2.86 3.53 6.13 5.25 8.64a2 2 0 0 0 2.47.7l1.29-.57a2 2 0 0 0 .98-2.71 404 404 0 0 0-4.37-8.85 2.1 2.1 0 0 0-2.72-.95l-2 .92a2 2 0 0 0-.9 2.82" class="c"/><path d="M251.21 49.9c-4.59 5.09-11.01 8.34-16.93 11.59a88 88 0 0 1-14.76 6.05c-2.43.82-1.38 4.68 1.07 3.86a95 95 0 0 0 15.7-6.46c6.22-3.41 12.94-6.88 17.75-12.21 1.72-1.9-1.1-4.75-2.83-2.83" class="c"/><path d="M250.7 51.84c1.53 4.96 3.52 9.67 6.88 13.67 3.05 3.63 7 7.16 11.64 8.5 2.48.72 3.53-3.14 1.06-3.86-3.98-1.15-7.28-4.38-9.88-7.47-2.9-3.44-4.54-7.65-5.85-11.9-.76-2.45-4.62-1.4-3.86 1.07Zm-21.6 54.83c-1 1.14-1.93 2.33-2.88 3.5a9.5 9.5 0 0 0-2.27 3.66c-.49 2.02.36 3.43 1.39 5.03q1.76 2.73 3.77 5.28a20 20 0 0 0 4.46 4.43 2.05 2.05 0 0 0 2.74-.72c2.37-3.17 4.55-6.4 7.12-9.32a2.04 2.04 0 0 0-.4-3.14l-.69-.53-.35-.27-.7-.55-3.8-2.97q-2.78-2.18-5.57-4.4a2.06 2.06 0 0 0-2.82 0 2 2 0 0 0 0 2.83c3.91 3.16 7.83 6.4 11.91 9.34l-.4-3.14c-2.81 3.18-5.21 6.73-7.76 10.13l2.74-.72c-.05-.03-.51-.37-.34-.23l-.29-.25q-.5-.45-.94-.91a30 30 0 0 1-1.79-2.04 57 57 0 0 1-4.47-6.53l-.1-.16c.15.54.14-.07.15-.09a7 7 0 0 1 .5-1.01c.35-.47.75-.91 1.12-1.37q1.21-1.54 2.5-3.02c1.7-1.92-1.13-4.76-2.84-2.83" class="c"/><path d="M253.92 109.5c.87.98 1.67 2 2.5 3.02a9 9 0 0 1 1.61 2.37c-.02-.05.08.53.1.2 0-.15.04-.09-.03.03l-.3.53-1.05 1.64a58 58 0 0 1-3.06 4.3 30 30 0 0 1-2.74 2.97q-.2.2-.42.37c.33-.27-.21.13-.28.18l2.74.72c-2.54-3.4-4.94-6.95-7.75-10.13l-.4 3.14c4.08-2.93 8-6.18 11.9-9.34a2 2 0 0 0 0-2.83 2.05 2.05 0 0 0-2.82 0q-2.77 2.22-5.58 4.4l-3.78 2.97-.7.55-.36.27-.69.53a2.04 2.04 0 0 0-.4 3.14c2.58 2.92 4.76 6.15 7.13 9.32a2.04 2.04 0 0 0 2.74.71 20 20 0 0 0 4.46-4.42q2-2.55 3.77-5.28c1.02-1.6 1.88-3.01 1.38-5.03a9.5 9.5 0 0 0-2.26-3.66c-.95-1.17-1.88-2.36-2.88-3.5-1.71-1.93-4.53.9-2.83 2.83m-18.8 24.61.78.6c-.17-.14.02 0 .08.06l.41.32 1.86 1.42q.81.6 1.67 1.18a4.6 4.6 0 0 0 2.33 1.05 5 5 0 0 0 2.25-1q.85-.55 1.67-1.16l1.85-1.43c.61-.48.7-.55 1.36-1.04a2.05 2.05 0 0 0 .71-2.73 2 2 0 0 0-2.73-.72 48 48 0 0 1-6.12 4.36h2.02a48 48 0 0 1-6.12-4.36 2 2 0 0 0-2.74.72 2.06 2.06 0 0 0 .72 2.74Zm.03 31.66q-2.34-3.55-4.65-7.11a2 2 0 0 0-3.46 2.02l4.65 7.1a2 2 0 1 0 3.46-2.01" class="c"/><path d="M226.27 152.15a18 18 0 0 1-1.52-2.47l-1.55-2.45q-1.65-2.64-3.27-5.3-1.57-2.59-3.11-5.2-.7-1.17-1.37-2.35a9 9 0 0 1-1.34-2.6v1.06q-.34.1.21-.27a13 13 0 0 1 1.84-1.45c.95-.65 1.91-1.26 2.85-1.92a2.03 2.03 0 0 0 0-3.46q-2.57-1.59-5.13-3.22l.72.72-.16-.22.27 1.01v-.24l-.27 1.01a18 18 0 0 1 4.14-5.08 28 28 0 0 1 5.45-4.11l-2.94-1.2c2.38 9.56 5.94 18.77 9.34 28 1.56 4.24 3.04 8.51 4.72 12.7 1.55 3.87 3.24 7.69 4.87 11.52a2 2 0 0 0 2.74.72 2.05 2.05 0 0 0 .72-2.74c-1.6-3.74-3.24-7.45-4.74-11.23-1.63-4.11-3.08-8.3-4.61-12.46-3.35-9.09-6.84-18.16-9.18-27.57a2.02 2.02 0 0 0-2.94-1.2 32 32 0 0 0-9.12 7.81c-1.12 1.4-2.97 3.47-1.75 5.3a9 9 0 0 0 2.7 1.93q1.57 1.02 3.15 2.01v-3.46c-1.16.81-2.36 1.56-3.5 2.39a9 9 0 0 0-2.98 2.85c-.76 1.53.07 2.93.82 4.26q1.12 1.96 2.27 3.9 2.33 3.96 4.75 7.86 1.27 2.05 2.56 4.09a22 22 0 0 0 2.53 3.9c1.82 1.81 4.65-1 2.83-2.84m58.25 62.44c-1.07-10.08-2.7-20.09-3.43-30.2-.18-2.56-4.18-2.58-4 0 .72 10.11 2.36 20.12 3.43 30.2a2.06 2.06 0 0 0 2 2 2 2 0 0 0 2-2m-79.3 0c.88-8.31 2.16-16.58 3.15-24.87a2 2 0 0 0-2-2 2.05 2.05 0 0 0-2 2c-1 8.3-2.27 16.56-3.16 24.87a2 2 0 0 0 2 2 2.05 2.05 0 0 0 2-2" class="c"/><path d="M203.2 217.16a156 156 0 0 0 17.76.61c6.76.03 14.43-.03 18.68-6.25 2.6-3.8 3.6-8.88 4.5-13.31h-3.85c.8 4.23 1.85 8.93 4.09 12.67 2.45 4.1 6.9 6.11 11.52 6.7a55 55 0 0 0 7.75.15q5.02-.07 10.04-.25c3.12-.12 6.26-.22 9.36-.64a2 2 0 0 0 1.4-2.46 2.06 2.06 0 0 0-2.46-1.4c.6-.08-.11 0-.23.02l-.72.07q-.87.08-1.73.13-2.07.14-4.14.21-4.77.2-9.55.28c-5.5.1-13.07 1.07-17-3.7a17 17 0 0 1-2.76-6 61 61 0 0 1-1.71-6.85c-.37-1.92-3.47-1.9-3.86 0-.76 3.7-1.55 7.69-3.32 11.05-1.83 3.48-5.44 5.1-9.25 5.48a67 67 0 0 1-6.75.1q-4.6-.02-9.2-.14c-2.85-.08-5.72-.13-8.55-.47a2 2 0 0 0-2 2 2.05 2.05 0 0 0 2 2Zm9.92-97.94c-5.6 2.7-11.8 5.6-15.47 10.8a36 36 0 0 0-4.6 10.2 89 89 0 0 0-2.48 10.23c-.63 3.53-1.16 7.08-1.77 10.6-.75 4.32-1.72 8.63-2.08 13-.32 3.88-.14 7.96 1.5 11.54a14 14 0 0 0 6.4 6.53 11.8 11.8 0 0 0 7.74 1.03 14.6 14.6 0 0 0 8.85-4.81c1.63-1.97-1.18-4.82-2.83-2.83a11 11 0 0 1-6.53 3.68 12 12 0 0 1-2.72.23l-.58-.04c-.56-.04.37.11-.1-.02a9 9 0 0 1-1.34-.47 10.5 10.5 0 0 1-5.37-5.16c-1.45-3.17-1.3-7.02-.95-10.4.38-3.85 1.25-7.64 1.9-11.44.57-3.3 1.07-6.6 1.65-9.9 1.1-6.2 2.54-12.89 5.75-18.38a19.6 19.6 0 0 1 7.6-7 119 119 0 0 1 7.46-3.95c2.31-1.11.29-4.56-2.02-3.45Zm51.08 114.75a1907 1907 0 0 1 3.28 55.38c.1 2.56 4.1 2.58 4 0-.58-15.28-1.58-30.56-2.6-45.82l-.68-9.56c-.2-2.55-4.2-2.58-4 0m-25.86 31.62c.04 8.64 0 17.29 0 25.93 0 2.58 4 2.58 4 0 0-8.64.04-17.29 0-25.93-.02-2.57-4.02-2.58-4 0m-19.25-30.36c-1.1 16.46-2.43 32.9-3.41 49.36-.16 2.57 3.84 2.57 4 0 .98-16.46 2.3-32.9 3.4-49.36.18-2.57-3.82-2.56-4 0" class="c"/><path d="M265.32 111.64a76 76 0 0 0-13.65-6.07 2.15 2.15 0 0 0-2.66 1.14c-5.6 12.33-21.05 46.82-26.43 58.53a2.14 2.14 0 0 0 .92 2.78 118 118 0 0 0 13.48 6.05 2.15 2.15 0 0 0 2.67-1.07c6-12.2 21.44-47.17 26.57-58.6a2.16 2.16 0 0 0-.9-2.76" class="b"/><path d="M266.33 109.92a81 81 0 0 0-11.57-5.37c-1.88-.7-3.86-1.65-5.79-.58a6 6 0 0 0-2.32 3.11l-6.27 13.89-15.3 33.96-3 6.6c-1.12 2.46-2.83 5.3-.4 7.62a17 17 0 0 0 4.44 2.44q2.59 1.24 5.23 2.37c3.01 1.28 7.63 4.03 9.95.2a61 61 0 0 0 2.7-5.64q1.69-3.6 3.34-7.2 3.9-8.5 7.71-17.05 3.79-8.42 7.54-16.86l3.11-6.97a54 54 0 0 0 2.5-5.66 4.26 4.26 0 0 0-1.87-4.86c-2.14-1.44-4.15 2.02-2.02 3.46.14.1.12.1.01.4-.13.39-.34.77-.51 1.15l-1.1 2.45-2.77 6.2-6.77 15.17c-4.42 9.85-8.82 19.71-13.44 29.47l-1.24 2.6a10 10 0 0 1-.49 1.02c-.29.45-.28.4-.8.2q-4.8-1.82-9.4-4.07-1.04-.5-2.06-1.02c-.27-.14-1.3-.63-1.33-.66-.19-.42.58-1.56.78-1.99q1.29-2.81 2.56-5.63 7.03-15.5 14-31.03l6.44-14.32c.8-1.75 1.57-3.52 2.39-5.27.19-.4.15-.59.5-.57a11 11 0 0 1 2.81 1 71 71 0 0 1 10.4 4.9c2.26 1.26 4.28-2.2 2.04-3.46" class="c"/><path d="m242.6 123.35.98-.09-.25-.15a23 23 0 0 1-3.54-2.48c-2.28-1.95-.8-3.8.27-5.66 1.17-2.03 2.07-3.03 4.7-1.87 1.99.88 4.58 4.28 5.89 5.73l.22-.1c.43-.42 1.25.06 2.34.72a6 6 0 0 1 2.24 1.95l.02.05c3.91.25 8.03.74 9.24 2 1.67 2.13-.2 5.78-1.96 7.56-.51.62-1.47.72-2.68.1a16 16 0 0 1-3.89-2.5l.43.92c.87 1.73 4.35 8.64 3.09 8.68a20 20 0 0 1-6.12-.58c-.74-.15-1.48-.49-1.63-1.22-.48-2.22-2.33-7.52-2.81-9.3l-1.3.52c-2.35.92-8.67 4.16-9.76 4.2a1.65 1.65 0 0 1-1.53-1.08c-.75-1.42-3.28-5.07-1.65-5.95a43 43 0 0 1 7.23-1.42Z" class="g"/><path d="M251.98 117.32a44 44 0 0 0-4.3-4.62c-1.84-1.56-4.66-2.91-6.98-1.5a7 7 0 0 0-2.25 2.54 15 15 0 0 0-1.65 3.27 4.6 4.6 0 0 0 .82 4.21 14 14 0 0 0 3.55 2.9 20 20 0 0 0 3.75 1.9q1.48.54 2.99.94a2 2 0 1 0 1.06-3.85q-1.05-.29-2.1-.64-.7-.23-1.37-.5c.38.15-.22-.1-.31-.14l-.72-.38a26 26 0 0 1-2.78-1.82l-.06-.05-.67-.6c-.03-.03-.33-.35-.2-.18.14.16-.08-.14-.1-.18-.04-.07-.14-.38-.08-.14.07.3-.03-.2-.03-.21.05.26 0 .25.04 0 .05-.27-.12.36-.01.1q.05-.15.07-.3l.13-.38c-.03.08-.18.37 0 .04q.36-.67.75-1.32.32-.56.67-1.12a2 2 0 0 1 .32-.47c-.29.22-.17.2-.06.1l.26-.27c.24-.27-.14.11-.14.1.02-.07.16-.08.2-.13.2-.28-.1.18-.18.05 0 0 .25-.06.27-.08.2-.11-.42 0-.17.02h.25c.1 0 .35.07.08 0-.33-.08.19.06.25.08l.33.1c.04.01.4.14.2.06-.17-.06.07.04.1.06l.3.15.46.31-.05-.04.36.3a46 46 0 0 1 4.18 4.52 2 2 0 0 0 2.82 0 2.05 2.05 0 0 0 0-2.83" class="c"/><path d="M254.77 117.35a5.3 5.3 0 0 0-4.12-.43 4.7 4.7 0 0 0-2.57 2.07 11 11 0 0 0-1.34 2.87 4.1 4.1 0 0 0 .2 3.4 8 8 0 0 0 2.67 2.3 7 7 0 0 0 1.66.68 5 5 0 0 0 1.57.35c2.24-.09 3.37-2.71 3.97-4.51a9 9 0 0 0 .33-1.26q.09-.5.14-1v-.1q.01-.2-.02.14-.06.43 0-.07l.06-.5a5.1 5.1 0 0 0-2.55-3.94 2 2 0 0 0-2.73.72 2.04 2.04 0 0 0 .71 2.74c.2.11.25.27-.05-.07l.25.22c.12.1.13.13.2.2.15.18.06.24-.08-.1l.3.5c.13.22-.15-.5-.07-.16l.05.17q.06.32-.03-.27c-.02.07-.03.38.02-.04.06-.53-.04.18-.05.4-.01.1-.06.59 0 .15s-.03.08-.05.19l-.12.5q-.15.48-.32.95l-.1.26.1-.22-.26.54a7 7 0 0 1-.45.75c-.12.18-.25.18.14-.17l-.14.16-.09.09c-.27.29.4-.25.18-.13l-.14.07c-.01.02.53-.2.34-.15.5-.15.58-.05.36-.06.6.01.46.06.22-.02q-.58-.16-1.15-.35c-.21-.08-.31-.23.1.05l-.24-.13q-.27-.16-.52-.35c-.25-.19-.33-.22-.5-.33l-.24-.18c.53.36.18.14.05.02l-.11-.12c-.15-.15-.14-.3.11.17l-.12-.2c-.15-.22.1.28.1.27-.11-.32 0 .58.02.26v-.22l.01-.15c0 .66-.05.32 0 .1a7 7 0 0 1 .31-1l.08-.2c-.2.59-.1.25-.04.1l.28-.55a12 12 0 0 1 .65-1.04c-.4.6-.1.14.04 0 .15-.17.22-.06-.23.15l.18-.1c.18-.1.33-.06-.19.07l.36-.12.19-.04c.32-.08-.56.03-.01 0h.33c.37 0-.47-.1-.08 0l.34.08q.3.1-.14-.07l.22.12a2 2 0 0 0 2.02-3.45Z" class="c"/><path d="M256 123.48q1.73.13 3.44.33c.33.04-.29-.04.03 0l.46.07a24 24 0 0 1 2.12.45q.28.07.56.17l.25.1c.35.11-.1-.03-.12-.06.03.07.34.17.41.21l.23.14c.2.1-.34-.33-.14-.1-.38-.45-.04-.02.05.13.22.36-.04-.28-.02-.03l.07.26c.03.09.03.37.03.07v.44c0 .07-.04.5 0 .17.03-.3-.07.32-.1.4q-.08.34-.2.67l-.1.3c.02-.07.17-.39.01-.05a12 12 0 0 1-1.03 1.75c-.2.3 0 0 .05-.05l-.19.23c-.14.17-.32.33-.46.51-.18.24.06-.02.13-.06-.29.17.1-.01.14-.03-.37.1.14.01.14.02s-.52.02-.19.02c.28 0-.06-.02-.14-.04l-.2-.06c.28.1-.48-.2-.37-.16.02 0-.7-.3-.27-.1l-.68-.37q-.53-.3-1.02-.67l-.54-.38-.23-.18-.21-.16-.1-.07-.28-.23-.55-.45-1.73-1.46a2 2 0 0 0-2.82 2.83 57 57 0 0 0 4.44 3.55 15 15 0 0 0 2.51 1.39c.32.14-.32-.2-.02 0a4 4 0 0 0 .75.3 5 5 0 0 0 1.2.24 3.6 3.6 0 0 0 2.09-.46 8 8 0 0 0 2.4-2.7 10 10 0 0 0 1.39-3.28c.5-2.4-.14-4.97-2.53-6.04-2.68-1.18-5.78-1.35-8.65-1.55a2 2 0 0 0-2 2 2.05 2.05 0 0 0 2 2Z" class="c"/><path d="M205.51 176.95a10 10 0 0 1 .44-2.58 7 7 0 0 1 1.33-2.47c.6-.84 1.09-1.26 1.62-2 3.42-4.74 4.27-7.5 7.06-11.88a8 8 0 0 1 3.67-2.46 11 11 0 0 1 2.5-.33 14 14 0 0 1 5.9.98 17 17 0 0 1 7.23 5.83 2.6 2.6 0 0 1 .45 2.2 1.7 1.7 0 0 1-1.35 1.43l-.28.04a4.4 4.4 0 0 1 .99 2.2 4 4 0 0 1-.06 1.7 2.4 2.4 0 0 1-1.38 1.53l.93 2.16a2.8 2.8 0 0 1-.55 2.7l-.15.16c-1.26 1.63-8.63 4.5-11.72 2.73a1.7 1.7 0 0 0-1.47-.16 2 2 0 0 0-.79.74 12 12 0 0 1-3.42 3.16 13 13 0 0 1-5.94 1.38 4.8 4.8 0 0 1-4.14-3 11 11 0 0 1-.87-4.06" class="a"/><path d="M242.13 121.39a48 48 0 0 0-6 .98 7 7 0 0 0-2.41.82 3.4 3.4 0 0 0-1.2 3.85 13 13 0 0 0 1.5 3.32 8 8 0 0 0 2.14 2.9c1.95 1.3 4.3-.1 6.13-.92l3.47-1.6q.82-.4 1.67-.77l.7-.3c.34-.16-.1-.02-.13.04.01-.04.32-.13.37-.15a2.05 2.05 0 0 0 1.4-2.46 2 2 0 0 0-2.46-1.4c-1.75.7-3.46 1.53-5.17 2.33q-1.31.62-2.66 1.2l-.3.14c-.28.12.45-.18.06-.02l-.44.17q-.42.16-.87.3c-.19.06-.65.1.2 0-.09.01-.16-.03.14.05-.36-.1-.03 0 .04.03l.15.12q-.19-.2-.06-.04c.1.26-.12-.22-.12-.24q-.14-.22-.26-.46c-.46-.8-.94-1.6-1.33-2.44l-.13-.27c.21.47.02.02-.01-.07l-.16-.53c-.02-.05-.1-.47-.03-.1.05.36 0 0 0-.07.04-.17.1-.26-.03.22.09-.35-.24.41-.06.12a1.4 1.4 0 0 1-.45.45c.1-.06.3-.14-.05 0-.42.16 0 0 .1-.03q.53-.16 1.07-.27a56 56 0 0 1 4.57-.83l.24-.04c.4-.06-.46.06-.11.02l.49-.06a2.04 2.04 0 0 0 2-2 2 2 0 0 0-2-2Z" class="c"/><path d="M254.89 130.54a94 94 0 0 1 2.06 4.34c.06.14.3.8.1.22l.23.57q.26.62.47 1.26.14.46.25.94c.06.25-.01-.63-.03-.15v.14a1.5 1.5 0 0 1 .22-.79 1.8 1.8 0 0 1 1.05-.8c.7-.2.52-.05.24-.05l-1.17.01a17 17 0 0 1-1.7-.08 2 2 0 0 1-.4-.05c.42.19.18.03-.02 0l-.72-.13-.81-.16-.55-.12c-.05 0-.64-.16-.37-.08.33.1-.23-.09-.18-.1s.52.51.22.19c.2.21.1.23.07.05l-.05-.23q-.16-.66-.36-1.33l-.9-2.96-1.05-3.24-.35-1.15c-.08-.27-.23-1.23-.11-.23a2.05 2.05 0 0 0-2-2c-.98.04-2.13.89-2 2a30 30 0 0 0 1.56 5.4q.53 1.68 1.03 3.37c.4 1.38.58 2.76 1.92 3.59a7 7 0 0 0 2.23.73q1.14.25 2.3.4a17 17 0 0 0 1.73.13 9 9 0 0 0 2.5-.1c2.64-.73 1.49-3.93.8-5.64-.82-2.04-1.78-4-2.76-5.97a2 2 0 0 0-2.74-.72 2.05 2.05 0 0 0-.71 2.74m-24.49 45.53c-1.98.83-4.74 1.89-6.91 1.23-1.18-.36-2.05-.93-3.36-.5-1.33.43-2 1.79-2.95 2.73a9 9 0 0 1-5.76 2.5c-2.29.13-3.21-1.39-3.71-3.41a6.9 6.9 0 0 1 1.7-6.21 41 41 0 0 0 4.4-6.5c1.14-2.06 2.2-4.16 3.43-6.17a5.7 5.7 0 0 1 4.88-2.51 13 13 0 0 1 7.82 2.31 15 15 0 0 1 3.07 2.82q.28.33.52.69c.04.05.26.49.17.18l.05.23c.19.68-.2.35.08.28-2.5.63-1.44 4.49 1.06 3.86a3.75 3.75 0 0 0 2.82-3.36 5 5 0 0 0-1.19-3.85 19 19 0 0 0-7.48-5.9 16 16 0 0 0-9.37-.99c-3.04.59-5.02 2.71-6.5 5.25-1.54 2.62-2.84 5.36-4.48 7.92-1.71 2.65-4.2 4.83-4.9 8.01-.64 3-.12 6.92 2.09 9.22 2.04 2.13 5.06 2.44 7.8 1.8a13 13 0 0 0 4.87-2.1 13 13 0 0 0 1.7-1.48q.32-.35.62-.72.22-.25.43-.52.53-.45-.17-.27c.3.02.7.34 1 .45a7 7 0 0 0 1.44.3 10 10 0 0 0 2.5 0 20 20 0 0 0 5.4-1.44 2.07 2.07 0 0 0 1.4-2.46 2 2 0 0 0-2.46-1.4Z" class="c"/><path d="M220.58 173.44a182 182 0 0 0 8.94 4.59 6 6 0 0 0 2.18.66 5 5 0 0 0 2.2-.33 4.5 4.5 0 0 0 2.82-4.3 4.5 4.5 0 0 0-1.49-3.16 25 25 0 0 0-5.4-3.72c-1.86-1.06-3.78-2.02-5.67-3.04a2 2 0 1 0-2.02 3.46 79 79 0 0 1 9.34 5.34c.03.02.39.3.12.08l.1.09.37.31c.2.18.5.65.73.75-.3-.13-.25-.4-.13-.16l.1.17c.03.03.32.34-.07-.16.13.17.05.24.02.05.08.46.04-.08-.03.17-.02.07-.19.45-.06.2l-.22.38c-.07-.1.59-.45.26-.27-.3.16.03 0 .09-.02l-.47.14c-.09.03-.38.05.02.02q-.18 0-.35.02c-.46.05.15.09-.07 0-.29-.12.35.17-.02.02l-.58-.27q-1.4-.66-2.77-1.36-2.99-1.5-5.93-3.11a2 2 0 1 0-2.01 3.45" class="c"/><path d="M225.5 162.78a46 46 0 0 1 6.34 3.57c.16.1.31.23.07.03a8 8 0 0 1 .62.58c.26.3.1 0 .01 0 .11 0 .37.62.42.7.11.2-.1-.34 0 .02q.08.23.12.45c.02.05.07.46.05.22s0 .25 0 .3c0 .1-.07.56 0 .22l-.06.26q-.07.22.08-.16s-.25.44-.07.14c.16-.25-.07.06-.13.12-.28.3.3-.14-.07.05-.1.04-.53.23-.11.07a2.05 2.05 0 0 0-1.4 2.46 2 2 0 0 0 2.46 1.4 5 5 0 0 0 2.24-1.47 4.7 4.7 0 0 0 1.05-2.9 6.7 6.7 0 0 0-1.87-4.82 17 17 0 0 0-3.8-2.67 61 61 0 0 0-3.94-2.03 2 2 0 0 0-2.02 3.45Z" class="c"/><path d="M239.48 133.18a22 22 0 0 0-3.73-.08 2.76 2.76 0 0 0-2.6 2.27 2.5 2.5 0 0 0 .9 2.28 5 5 0 0 0 .87.42 2.5 2.5 0 0 0-2.15 2.31 2.6 2.6 0 0 0 .77 2.13c2.34 1.36 5.34 2.1 9.96 3.5-2.66.07-3.52.12-4.98.26a2.15 2.15 0 0 0-1.9 2.4c.05 1.02 1.14 1.6 2.37 2.1l3.95 1.68a11 11 0 0 1 2.81 2.43 13 13 0 0 0 5.9 3.39 7 7 0 0 0 2.92.07c2.53-3.06 6.96-7.46 9.82-10.34l-1.63-2.06c-1.47-1.84-2.67-8-3.37-10.2a4 4 0 0 0-.56-1.22c-.25-.3-.69-1.24-.96-1.53a9 9 0 0 0-4.4-2.98 25 25 0 0 0-10.22-1.07 3.4 3.4 0 0 0-2.93 2.46 3 3 0 0 0 .4 1.71s.04.1.1.26z" class="a"/><path d="M253.91 156.43a8.6 8.6 0 0 1-6-2.3c-.88-.74-1.6-1.64-2.46-2.39a12 12 0 0 0-3.45-1.84 21 21 0 0 1-3.22-1.44s-.38-.21-.34-.26a.5.5 0 0 1 .17.47v-.26c-.05.13.04-.37 0-.06.02-.14.03 0 .19-.14-.2.2.27 0-.1.04l.51-.04 1.17-.08q1.56-.08 3.12-.11c2.57-.07 2.58-4.07 0-4q-1.8.03-3.63.14a6.6 6.6 0 0 0-3.43.8 4.3 4.3 0 0 0-1.72 4.45c.38 1.6 1.86 2.5 3.27 3.1 1.38.59 2.84 1.09 4.18 1.78 1.14.59 1.94 1.85 2.92 2.68 2.47 2.07 5.53 3.68 8.83 3.46a2.05 2.05 0 0 0 2-2 2 2 0 0 0-2-2Z" class="c"/><path d="M244.03 144.08c-2.7-.8-5.37-1.58-8-2.55-.18-.06.42.2 0 0l-.4-.18-.66-.33-.32-.17c-.4-.2.38.24.29.34l-.13-.23.09.23c-.1-.1-.1-.37-.15-.49-.05-.16-.01.43 0-.01v-.2q.03-.3-.02.14c-.02-.02.12-.4.11-.4-.04 0-.18.42.02.02.16-.33-.28.24 0 0 .36-.3-.02-.07 0 0a2 2 0 0 1 .35-.2q-.39.15-.07.04l.3-.09a2 2 0 0 0-1.06-3.86 4.64 4.64 0 0 0-3.61 4.24 5 5 0 0 0 .65 2.72 4.4 4.4 0 0 0 2.02 1.62 63 63 0 0 0 9.53 3.22 2 2 0 0 0 2.46-1.4 2.04 2.04 0 0 0-1.4-2.46" class="c"/><path d="M245.66 138.48c-2.7-.6-5.41-1.05-8.08-1.71a13 13 0 0 1-2.04-.59 3 3 0 0 1-.48-.26l.2.18q-.16-.32-.06-.1l-.1-.4q.03.3.02-.05-.02.3.07-.09-.07.16.02 0c.1-.17.07-.13-.01-.01l.28-.28q-.23.18.06 0-.3.1.04-.02l.35-.09q-.42.07.11.02l.83-.02a21 21 0 0 1 2.7.12c-.35-.04.23.04.28.05q.9.14 1.78.32l6.38 1.22a2.05 2.05 0 0 0 2.46-1.4 2 2 0 0 0-1.4-2.46l-5.88-1.12a30 30 0 0 0-6.59-.73 6 6 0 0 0-3.4.85 4.7 4.7 0 0 0-2.06 3.46 4.6 4.6 0 0 0 1.21 3.46 7.6 7.6 0 0 0 3.65 1.66c2.83.73 5.73 1.21 8.59 1.84a2.05 2.05 0 0 0 2.46-1.4 2 2 0 0 0-1.4-2.46Z" class="c"/><path d="M242.45 132.1c-.2-.44-.28-.32.06-.7a2 2 0 0 1 1-.5 15 15 0 0 1 5 .06c2.82.37 6.15.97 7.95 3.44 1.13 1.55 1.54 3.84 2.05 5.82.58 2.2 1.12 4.87 2.52 6.73a2.06 2.06 0 0 0 2.74.72 2 2 0 0 0 .71-2.74c-1.2-1.6-1.63-3.92-2.15-5.92a23 23 0 0 0-2.24-6.28 11.2 11.2 0 0 0-6.93-4.89 26 26 0 0 0-9.92-.9 5.7 5.7 0 0 0-4.25 2.54c-.97 1.55-.71 3.04 0 4.64a2 2 0 0 0 2.74.72 2.05 2.05 0 0 0 .72-2.74" class="c"/><path d="M280.54 156.68c-4.37-3.93-9.05-7.53-13.66-11.18a2.05 2.05 0 0 0-2.83 0c-3.22 3.27-6.52 6.47-9.58 9.9-1.76 1.96-5.1 4.99-3.24 7.81 2.07 3.15 5.06 5.85 7.73 8.46a118 118 0 0 0 11.51 10.04c4.52 3.39 10.27 5.99 16.03 4.87 6.8-1.32 9.3-8.13 10.03-14.25a73 73 0 0 0-.9-20.38 88 88 0 0 0-3.56-15.55 27 27 0 0 0-4.3-8.24 29 29 0 0 0-7.92-6.3c-1.49-.84-3.07-1.51-4.63-2.22a45 45 0 0 0-5.7-2.4c-2.47-.73-3.53 3.13-1.06 3.86a55 55 0 0 1 8.3 3.64c4.1 2.03 7.87 5.02 9.95 9.16 2.17 4.31 3.18 9.04 4.09 13.74a99 99 0 0 1 2.1 16.79 46 46 0 0 1-.67 9.86c-.51 2.54-1.44 5.37-3.56 7.03-4.08 3.21-10.3.93-14.12-1.6a81 81 0 0 1-10.36-8.59 111 111 0 0 1-8.42-8.59l-.71-.85c-.06-.07-.38-.5-.07-.08l-.23-.32a4 4 0 0 0-.31-.5 3 3 0 0 1 .13.95c.03-.35-.24.41-.03.05l.22-.38a11 11 0 0 1 .62-.9c.37-.5 1.16-1.42 1.73-2.06 3.1-3.51 6.48-6.77 9.77-10.1h-2.83c4.6 3.64 9.29 7.24 13.66 11.17 1.91 1.72 4.75-1.1 2.83-2.83Z" class="c"/><path d="M63.83 152.23c-3.83-9.44-4.81-12.56-7.8-21.75a438 438 0 0 1-9.88-35.45A4 4 0 0 1 47 91.5c1.24-1.44 2.81-3.52 4.08-4.94.54.43 11.56 9.12 12.4 9.71h1.93c.84-.59 11.85-9.28 12.4-9.71 1.27 1.42 2.83 3.5 4.08 4.94a4 4 0 0 1 .87 3.54 447 447 0 0 1-9.9 35.45c-3 9.18-3.97 12.3-7.8 21.74Z" class="a"/><path d="M60.5 143.72a270 270 0 0 0 3.33 8.51h1.23a237 237 0 0 0 7.13-19.67c-1.21-10.34-2.8-22.65-2.8-23a9 9 0 0 1 .3-1.94l.2-.87c.31-1.44.37-2.17.74-3.7l.03-.07c-1.78-2.4-3.93-5.24-5.24-6.7h-1.94a120 120 0 0 0-5.2 6.64l.17.47a19 19 0 0 1 .91 2.95 12 12 0 0 1 .72 3.42c.01.61-1.67 12.28-3.23 23.25 1.4 4.33 2.38 7.27 3.65 10.7" class="f"/><path d="M82.2 393.88c-.6-.27-1.23-.47-1.85-.7a25 25 0 0 1-6.9-4.2c-1.44-1.11-4.14-4.05-4.62-5.61-.78-2.57-.69-6.25.5-8.44.83-1.54 1.16-2.2 2.89-2.55a4.6 4.6 0 0 1 2.8.67 36 36 0 0 0 6.07 2.55c2.82.88 6.15.3 11.34-1.58 2.67-.96 5.94 2.82 8.16 4.93a129 129 0 0 1 11.94 11.38 10 10 0 0 1 1.82 3.35 13 13 0 0 1 .57 3.63c.04 2.6-.3 5.45-2.15 7.28a8.6 8.6 0 0 1-3.87 1.98 18 18 0 0 1-9.32-.02c-5.81-1.56-10.43-5.9-14.48-10.36a11 11 0 0 0-1.88-1.77 7 7 0 0 0-1.02-.54m-34.26 0c.6-.27 1.23-.47 1.85-.7a25 25 0 0 0 6.9-4.2c1.44-1.11 4.14-4.05 4.62-5.61.78-2.57.69-6.25-.5-8.44-.83-1.54-1.17-2.2-2.89-2.55a4.6 4.6 0 0 0-2.8.67 36 36 0 0 1-6.07 2.55c-2.82.88-6.15.3-11.34-1.58-2.67-.96-5.95 2.83-8.17 4.93a129 129 0 0 0-11.94 11.38 10 10 0 0 0-1.81 3.35 13 13 0 0 0-.58 3.63c-.03 2.6.3 5.45 2.16 7.28a8.6 8.6 0 0 0 3.87 1.98 18 18 0 0 0 9.31-.01c5.82-1.57 10.44-5.91 14.49-10.37a11 11 0 0 1 1.88-1.76 7 7 0 0 1 1.02-.55" class="b"/><path d="M48.47 395.8a36 36 0 0 0 6.6-3.13 29 29 0 0 0 4.88-4 14 14 0 0 0 3.29-4.77 15 15 0 0 0 .33-6.9 9.6 9.6 0 0 0-2.63-5.36 5.7 5.7 0 0 0-6.17-.64c-3.48 1.57-6.69 3.53-10.63 2.8a28 28 0 0 1-2.92-.72 26 26 0 0 0-3.77-1.15c-2.1-.29-3.97.85-5.55 2.1-1.71 1.35-3.18 2.99-4.82 4.44q-3.02 2.62-5.94 5.35a47 47 0 0 0-5.48 5.77 13.3 13.3 0 0 0-2.43 7.26 14.6 14.6 0 0 0 1.1 6.8 8.8 8.8 0 0 0 5.23 4.5c5.54 2.02 11.84.98 16.86-1.9a35 35 0 0 0 6.58-5.08q1.43-1.36 2.76-2.8a11 11 0 0 1 3.19-2.77 2 2 0 0 0 .71-2.73 2.05 2.05 0 0 0-2.73-.72c-2.02.94-3.35 2.72-4.85 4.29a46 46 0 0 1-4.55 4.22 19 19 0 0 1-11.4 4.51 13 13 0 0 1-6.3-1.26 5.2 5.2 0 0 1-2.51-4.23 12 12 0 0 1 .61-6.08c.8-1.94 2.48-3.44 3.92-4.9 3.17-3.18 6.7-5.96 9.9-9.1a18 18 0 0 1 3.98-3.37c1.46-.77 2.96.28 4.43.72 3.31.98 6.72 1.5 10.06.37a37 37 0 0 0 5.54-2.33c1.06-.56 2.14-1.03 2.85.08a9 9 0 0 1 1.19 5.46 6.7 6.7 0 0 1-1.96 4.54 24 24 0 0 1-4.29 3.8 31 31 0 0 1-6.14 3.08 2.07 2.07 0 0 0-1.4 2.46 2 2 0 0 0 2.46 1.4m34.26-3.85a31 31 0 0 1-5.49-2.63 24 24 0 0 1-4-3.23 10 10 0 0 1-2.58-3.58 11 11 0 0 1-.1-5.16c.24-1.02.76-2.8 1.9-2.98a3.2 3.2 0 0 1 1.92.62q1.1.57 2.26 1.06a22 22 0 0 0 5.46 1.81 15 15 0 0 0 4.96-.2 27 27 0 0 0 2.72-.66 29 29 0 0 1 3.3-1.09c1.2-.19 2.45 1.01 3.27 1.74 1.44 1.28 2.78 2.67 4.22 3.95 1.7 1.51 3.43 3.02 5.1 4.58 3.1 2.89 6.9 5.9 7.22 10.44a10.6 10.6 0 0 1-.77 5.5c-.91 1.74-2.82 2.35-4.63 2.73-4.88 1.04-9.65-.48-13.65-3.27a37 37 0 0 1-5.2-4.55c-1.7-1.72-3.19-3.83-5.43-4.88a2.06 2.06 0 0 0-2.74.72 2 2 0 0 0 .72 2.73c2.16 1.02 3.67 3.34 5.35 5a40 40 0 0 0 5.62 4.66 21.3 21.3 0 0 0 14.54 3.75 13 13 0 0 0 7.18-2.74 9.4 9.4 0 0 0 2.84-5.79 16 16 0 0 0-.57-7.7 18 18 0 0 0-4.4-6.25c-3.53-3.65-7.51-6.81-11.14-10.36a17 17 0 0 0-5.21-3.87c-2.25-.9-4.11.07-6.28.73a17 17 0 0 1-5.66.97 16 16 0 0 1-5.67-1.79c-1.88-.86-3.66-2.13-5.84-1.8a5.8 5.8 0 0 0-4.35 3.52 13 13 0 0 0-1.2 7.35 11 11 0 0 0 2.74 6.21 27 27 0 0 0 5.27 4.72 35 35 0 0 0 7.26 3.6 2 2 0 0 0 2.46-1.4 2.05 2.05 0 0 0-1.4-2.46" class="c"/><path d="M30.77 351.72c-1.55-41.66-2.62-81.66-4.41-125.35 6.34.45 18.99.5 22.13.42a17 17 0 0 0 10.03-3.38c2.58-2.18 3.67-5.52 4.66-8.67.59-1.88 1.23-6.36 1.66-8.49.4 2.13 1.07 6.6 1.66 8.49.99 3.15 2.08 6.5 4.66 8.67a17 17 0 0 0 10.03 3.38c3.04.08 15.72-.13 22.48-.58-2.06 50.25-3.18 95.6-5.15 144.21a55 55 0 0 1-15.23 2.35c-5.51-.05-14.24-.54-18.28-1.58-4.04 1.04-12.77 1.53-18.28 1.58a55 55 0 0 1-15.23-2.35q-.39-9.42-.73-18.7" class="a"/><path d="M101.72 224.9q-1.19 28.8-2.11 57.62l-1.88 55.98q-.57 15.96-1.2 31.92l1.46-1.93a53 53 0 0 1-17.03 2.24c-5.1-.14-10.45-.22-15.41-1.46-2.5-.63-3.57 3.23-1.07 3.85 5.3 1.33 11.04 1.46 16.48 1.6a56 56 0 0 0 18.1-2.37 2.1 2.1 0 0 0 1.47-1.93q1.14-28.19 2.03-56.38l1.9-56.32q.6-16.41 1.26-32.82c.1-2.57-3.9-2.57-4 0" class="c"/><path d="M24.3 224.9q1.18 28.8 2.11 57.62l1.88 55.98q.57 15.96 1.2 31.92a2.1 2.1 0 0 0 1.47 1.93 56 56 0 0 0 18.1 2.38c5.44-.15 11.17-.28 16.47-1.6 2.5-.63 1.44-4.48-1.06-3.86-4.96 1.24-10.32 1.32-15.41 1.46a53 53 0 0 1-17.04-2.23l1.48 1.92q-1.14-28.18-2.04-56.37-.94-28.17-1.9-56.33-.59-16.4-1.25-32.81c-.11-2.57-4.11-2.58-4 0Z" class="c"/><path d="M63.01 237.4v133.64c0 2.57 4 2.58 4 0V237.4c0-2.57-4-2.58-4 0" class="c"/><path d="M64.6 207.51c-.4 2.31-.93 5.67-1.42 7.23-.99 3.15-2.08 6.5-4.66 8.67a17 17 0 0 1-10.03 3.38c-3.74.1-20.96 0-24.95-.72.03-9.18.42-26.19.88-43.75-4.38 3.18-10.22 3.33-11.89 2.74a14.6 14.6 0 0 1-10.13-12.1c-.96-6.12.17-12.38 1.3-18.47 1.6-8.74 2.57-16.21 3.55-20.7 1.86-8.5 4.27-17.13 8.74-22.31 2.62-3.05 6.53-5.35 10.3-7.34 1.74-.92 6.88-3.26 9.12-4.3l.14-.03a52 52 0 0 1 9.82-8.11 443 443 0 0 0 10.66 38.78c3.14 9.66 4.07 12.61 8.41 23.26 4.35-10.65 5.28-13.6 8.43-23.26A444 444 0 0 0 83.53 91.7a57 57 0 0 1 8.18 6.4l.61.17c1.76.5 13.23 5.28 13.63 5.5a35 35 0 0 1 9.27 7.14c3.58 3.93 6.24 12.75 7.23 17.79 1.35 7.62 4.15 19.35 2.96 32.3-.37 4.07-1.04 7.95-3.19 11.4a10.7 10.7 0 0 1-10.06 5.02 18 18 0 0 1-5.7-1.1c.5 19.4 1 39.16 1.04 49.47-3.21.74-22.46 1.1-26.3 1a17 17 0 0 1-10.04-3.38c-2.58-2.18-3.67-5.52-4.66-8.67-.59-1.88-1.26-6.36-1.66-8.5z" class="d"/><path d="M56.1 151.63a1217 1217 0 0 1-12.98-22.97q-3.13-5.72-6.17-11.49l-1.46-2.82a6 6 0 0 1-.72-1.4q-.18.7.2.17l.47-.5q2.31-2.39 4.74-4.64a2.02 2.02 0 0 0-.4-3.14c-1.74-1-3.59-1.9-5.24-3.02l.72.72-.17-.26.27 1c-.02.54.13-.06.23-.24q.23-.38.48-.73a15 15 0 0 1 1.11-1.34 35 35 0 0 1 2.97-2.88 54 54 0 0 1 6.23-4.66l-2.94-1.2a446 446 0 0 0 14.04 48.96c1.36 3.9 2.87 7.74 4.42 11.57a2.06 2.06 0 0 0 2.46 1.4 2 2 0 0 0 1.4-2.46 379 379 0 0 1-14.8-45.58Q49 98.68 47.3 91.17a2.02 2.02 0 0 0-2.94-1.2 51 51 0 0 0-9.89 8.05c-1.18 1.29-3.09 3.25-3.1 5.13-.02 1.55 1.28 2.23 2.45 2.9l3.94 2.25-.4-3.14c-1.77 1.66-3.6 3.32-5.22 5.14a4.3 4.3 0 0 0-1.34 2.76 7 7 0 0 0 1.14 3.1q3.22 6.27 6.6 12.45a1189 1189 0 0 0 14.12 25.04c1.29 2.23 4.74.21 3.46-2.02Z" class="c"/><path d="M66.99 152.76a378 378 0 0 0 14.76-45.44q1.99-7.51 3.7-15.1l-2.93 1.2a54 54 0 0 1 6.22 4.68 36 36 0 0 1 2.97 2.88 15 15 0 0 1 1.1 1.34q.23.3.41.61c.12.19.35.9.32.36l.27-1-.18.25.72-.71c-1.66 1.11-3.5 2.02-5.23 3.01a2.02 2.02 0 0 0-.4 3.15q2.34 2.17 4.58 4.48l.62.66q.38.53.2-.18a6 6 0 0 1-.64 1.26l-1.54 2.97q-3.19 6.07-6.5 12.07c-1.24 2.26 2.22 4.28 3.46 2.02a654 654 0 0 0 7.6-14.2c1.13-2.19 2.42-4.22.57-6.43a67 67 0 0 0-5.52-5.48l-.4 3.14 3.72-2.13c1.14-.66 2.64-1.34 2.67-2.88.04-1.94-1.9-3.94-3.11-5.27a51 51 0 0 0-9.89-8.05 2.02 2.02 0 0 0-2.94 1.2 449 449 0 0 1-14.1 49.11 255 255 0 0 1-4.37 11.42 2 2 0 0 0 1.4 2.46 2.05 2.05 0 0 0 2.46-1.4" class="c"/><path d="M93.6 47.93a4.5 4.5 0 0 1 3.26-1.2 4.2 4.2 0 0 1 3.76 2.09c1.27 2.21 1.22 6.29.36 8.81a13.6 13.6 0 0 1-4 6.48 5 5 0 0 1-3.82 1.1l-.37-.06a29 29 0 0 1-1.32 3.58c-1 2.7-6.62 12.37-13.66 15.77v2.06c-.54.44-11.56 9.12-12.4 9.71h-1.93c-.84-.59-11.85-9.27-12.4-9.71v-2.47a27 27 0 0 1-7.84-6.68 34 34 0 0 1-6.5-12.26 4.9 4.9 0 0 1-4.14-1.04 13.6 13.6 0 0 1-4-6.48c-.86-2.52-.91-6.6.37-8.81a4.2 4.2 0 0 1 3.75-2.09 4.5 4.5 0 0 1 3.26 1.2s-2.38-24.18 27.1-24.18 30.53 24.17 30.53 24.17" class="a"/><path d="M58.17 2.56a33 33 0 0 0-14.01 6 34.5 34.5 0 0 0-14.25 27 38 38 0 0 0 1.4 11.4 6 6 0 0 1 1.41-.22 4.5 4.5 0 0 1 3.26 1.19l4.6-3.87c3.46-3.85 9.56-9.65 13.84-11.9.5-.26 1.15.1 1.35.93a6 6 0 0 1 .13 2.01 1.05 1.05 0 0 0 1.49 1.12c3.06-1.7 8.5-5.11 12.36-6.74a16 16 0 0 1 5.73.7 19 19 0 0 1 5.27 3.32c3.48 3 6.8 7.1 8.28 10.8l4.57 3.63a4.5 4.5 0 0 1 3.26-1.2 6 6 0 0 1 1.28.2 37 37 0 0 0 1.37-11.36c-.57-13.63-7.44-22.1-14.08-26.89A34 34 0 0 0 64.71 2a38 38 0 0 0-6.54.56" style="fill:#85807f"/><path d="m56.1 151.63-3.73-6.5a2 2 0 0 0-3.45 2.02l3.73 6.5a2 2 0 1 0 3.46-2.02m12.86-45.2c-2.87 0-5.74-.06-8.61-.06a2 2 0 0 0 0 4c2.87 0 5.74.06 8.61.06a2 2 0 0 0 0-4" class="c"/><path d="M68.7 102.53c-.36 1.5-.6 3.04-.95 4.56a10 10 0 0 0-.34 2.69c.1 1.53.37 3.08.56 4.6q1.15 9.1 2.22 18.22a2.06 2.06 0 0 0 2 2 2 2 0 0 0 2-2q-1.06-8.97-2.18-17.91c-.2-1.58-.46-3.16-.59-4.74a6 6 0 0 1 .19-1.8c.35-1.51.6-3.05.95-4.56.59-2.5-3.27-3.57-3.86-1.06M58.85 133q1.31-9.11 2.58-18.23c.22-1.56.52-3.15.62-4.72a10 10 0 0 0-.39-2.99 32 32 0 0 0-1.48-4.7 2 2 0 0 0-2.74-.71 2.05 2.05 0 0 0-.72 2.73 24 24 0 0 1 1.2 4.17 5 5 0 0 1 .11 1.7c-.16 1.54-.37 2.84-.59 4.4q-1.2 8.64-2.44 17.28a2.07 2.07 0 0 0 1.4 2.46 2 2 0 0 0 2.46-1.4Z" class="c"/><path d="M49.67 85.14c-1.08 1.22-2.07 2.5-3.1 3.77a10 10 0 0 0-2.4 3.87c-.51 2.13.4 3.61 1.48 5.3q1.88 2.91 4.04 5.65a21 21 0 0 0 4.77 4.74 2.05 2.05 0 0 0 2.73-.72c2.53-3.37 4.9-6.9 7.7-10.06a2.04 2.04 0 0 0-.4-3.14l-.74-.57-.41-.32-.76-.59-4.08-3.2q-3-2.34-6-4.73a2.06 2.06 0 0 0-2.82 0 2 2 0 0 0 0 2.83c4.2 3.39 8.4 6.88 12.8 10.03l-.4-3.14c-3.02 3.42-5.6 7.22-8.33 10.87l2.74-.72a11 11 0 0 1-1.73-1.52 32 32 0 0 1-1.92-2.2 59 59 0 0 1-4.52-6.52l-.31-.54-.1-.17c.13.5.13-.17.13-.19a5 5 0 0 1 .58-1.18l1.21-1.47q1.31-1.66 2.69-3.25c1.68-1.92-1.14-4.76-2.85-2.83" class="c"/><path d="M76.4 87.97q1.37 1.6 2.68 3.26a8 8 0 0 1 1.78 2.61c.02.09.06.56.08.31.02-.16.02-.04-.02.06a5 5 0 0 1-.34.56q-.54.9-1.12 1.77a60 60 0 0 1-3.32 4.65q-.95 1.2-2 2.3a17 17 0 0 1-1.4 1.3c.3-.23-.27.19-.33.22l2.74.72c-2.73-3.64-5.3-7.45-8.32-10.87l-.4 3.14c4.38-3.15 8.59-6.64 12.8-10.03a2 2 0 0 0 0-2.82 2.05 2.05 0 0 0-2.83 0q-3 2.38-6 4.73l-4.08 3.2-.75.59-.42.32-.74.56a2.04 2.04 0 0 0-.41 3.14c2.8 3.16 5.17 6.69 7.7 10.06a2.04 2.04 0 0 0 2.74.72 21 21 0 0 0 4.77-4.74q2.15-2.73 4.03-5.66c1.08-1.68 2-3.16 1.48-5.29a10 10 0 0 0-2.4-3.87c-1.03-1.26-2.02-2.55-3.1-3.77-1.7-1.93-4.53.9-2.83 2.83M59.16 72.72a12 12 0 0 0 5.93 1.38 9.8 9.8 0 0 0 6.08-1.84 2 2 0 0 0 0-2.83 2.06 2.06 0 0 0-2.83 0c.7-.53-.04 0-.25.11-.17.1-.63.23 0 .02q-.24.1-.49.18l-.62.17a4 4 0 0 0-.73.14c.2-.1.32-.04.02-.01a13 13 0 0 1-1.36.06q-.43 0-.86-.03l-.44-.03c-.12.05-.52-.1-.65-.13q-.3-.06-.61-.15l-.53-.18-.64-.32a2 2 0 1 0-2.02 3.45Zm4.67-13.64a27 27 0 0 1 .62 2.86l-.07-.53a2 2 0 0 1 .01.4l.07-.54-.04.18.2-.48-.06.11.31-.4-.1.09.41-.31-.22.12.47-.2-.38.1.53-.06h-.35l.53.07-.4-.07a1.5 1.5 0 0 0-.8-.04 1.5 1.5 0 0 0-.75.24 2 2 0 0 0-.71 2.73 2 2 0 0 0 1.2.92c.35.05.7.14 1.06.16a3.5 3.5 0 0 0 1.62-.4 2.5 2.5 0 0 0 1.33-1.6 4 4 0 0 0-.02-1.68q-.23-1.38-.6-2.73a2 2 0 0 0-2.46-1.4 2 2 0 0 0-1.2.92 2 2 0 0 0-.2 1.54m-14.65-8.23c-.48 1.55-.17 5.11 2.77 5.42 3.88-.03 4.09-4.34 2.78-6.37-1.07-1.66-4.22-2.34-5.55.95m31.21 0c.48 1.55.17 5.11-2.77 5.42-3.88-.03-4.09-4.34-2.78-6.37 1.06-1.66 4.2-2.34 5.55.95m-43-4.34a6.9 6.9 0 0 0-7.53-1.12 6.6 6.6 0 0 0-3.44 4.42 16.5 16.5 0 0 0 2.4 13.04c1.69 2.52 4.36 4.79 7.6 4.37a2.07 2.07 0 0 0 2-2 2 2 0 0 0-2-2c-2.28.3-3.78-1.6-4.77-3.42a13 13 0 0 1-1.62-5.04 8.6 8.6 0 0 1 .86-5.26c-.32.5.51-.45.24-.24a2 2 0 0 1 .97-.45 2.7 2.7 0 0 1 2.45.53c1.92 1.7 4.75-1.11 2.83-2.83Zm57.62 2.83a2.7 2.7 0 0 1 2.32-.56 2 2 0 0 1 1.1.48c-.27-.2.55.73.24.24a5 5 0 0 1 .79 2.12 12 12 0 0 1 .08 3.14 13 13 0 0 1-1.62 5.04c-1 1.83-2.49 3.72-4.77 3.42a2 2 0 0 0-2 2 2.05 2.05 0 0 0 2 2c5.27.68 8.5-5.01 9.82-9.27 1.18-3.82 1.13-9.76-2.6-12.2a6.9 6.9 0 0 0-8.19.76c-1.92 1.72.92 4.54 2.83 2.83" class="c"/><path d="M91.4 62.5a29 29 0 0 1-1.3 4.38c-.2.5-.36.85-.6 1.41-.2.51.15-.27-.03.1l-.18.4a37 37 0 0 1-3.2 5.32c-2.8 3.96-6.61 8.28-11.52 9.43-2.5.59-1.44 4.45 1.07 3.86 5.78-1.37 10.23-6.2 13.58-10.83a38 38 0 0 0 3.49-5.7q.3-.64.57-1.3l.08-.19.44-1.04a29 29 0 0 0 1.46-4.77c.53-2.5-3.33-3.58-3.85-1.06Zm-57.16.97c2.48 10.9 10.68 22.78 22.47 24.56a2.06 2.06 0 0 0 2.46-1.4 2 2 0 0 0-1.4-2.46C47.28 82.59 40.3 72.08 38.1 62.4c-.57-2.5-4.43-1.45-3.86 1.06Zm50.7-57.55A37.9 37.9 0 0 0 49.36 3.2a36.8 36.8 0 0 0-19.64 21.95 39 39 0 0 0-.47 21.82c.63 2.5 4.5 1.44 3.86-1.06-2.66-10.46-.76-21.84 6.31-30.19a33.3 33.3 0 0 1 43.5-6.35c2.17 1.4 4.17-2.06 2.02-3.45m15.25 41.05a40 40 0 0 0-.66-22.49 35.5 35.5 0 0 0-9.7-14.8c-1.9-1.74-4.74 1.08-2.83 2.82a31.4 31.4 0 0 1 8.67 13.05 36 36 0 0 1 .66 20.36c-.6 2.5 3.25 3.56 3.86 1.06M74.47 31.9a22.5 22.5 0 0 1 7.33 5.34 31 31 0 0 1 3.05 3.65 26 26 0 0 1 1.85 3.05l.28.59.13.3a2.06 2.06 0 0 0 2.46 1.4 2 2 0 0 0 1.4-2.46 30 30 0 0 0-6.17-9.18 26 26 0 0 0-8.32-6.15 2.07 2.07 0 0 0-2.73.72 2 2 0 0 0 .71 2.74Z" class="c"/><path d="M42 45.47a83 83 0 0 1 7.34-7.2 45 45 0 0 1 3.68-2.9 21 21 0 0 0 1.9-1.2q1-.45-1.08-.55a2 2 0 0 1 .1.47 7 7 0 0 0-.04 1 3.08 3.08 0 0 0 3.48 3.2c1.42-.25 2.86-1.4 4.09-2.12a85 85 0 0 1 9.3-4.97 2 2 0 0 0 .72-2.74 2.05 2.05 0 0 0-2.74-.71 86 86 0 0 0-9.3 4.97l-2.05 1.2-.53.3q-1.01.43 1.03.88a2 2 0 0 0 .04-.92c-.08-1.84-.92-4.02-3.07-4.1-1.48-.06-3 1.22-4.15 2.04a56 56 0 0 0-4.2 3.33 83 83 0 0 0-7.35 7.2c-1.72 1.9 1.1 4.74 2.83 2.82m62.46 130.84c.42 16.2.93 32.4 1.03 48.6.02 2.58 4.02 2.58 4 0-.1-16.2-.6-32.4-1.03-48.6-.07-2.57-4.07-2.58-4 0" class="c"/><path d="M24.24 228.18c6.42.77 13.02.62 19.48.64a39 39 0 0 0 9.36-.65 14.6 14.6 0 0 0 10.42-8.42c1.82-4.2 2.4-8.53 3.28-12.97H62.9c.75 4.06 1.3 8.1 2.86 11.95a15 15 0 0 0 3.98 6.1 16.6 16.6 0 0 0 6.66 3.3 37 37 0 0 0 9.65.65q5.47-.06 10.93-.25a103 103 0 0 0 10.33-.68 2 2 0 0 0 1.4-2.46 2.05 2.05 0 0 0-2.46-1.4c.6-.09-.17.01-.3.03l-.74.07-1.97.14a204 204 0 0 1-4.75.24q-5.28.21-10.56.28c-2.5.04-5.05.17-7.55 0a15 15 0 0 1-6.35-1.8 9.8 9.8 0 0 1-4.16-4.7c-1.83-3.95-2.32-8.3-3.1-12.53-.36-1.93-3.49-1.9-3.86 0a78 78 0 0 1-2.32 10.5 13 13 0 0 1-2.92 5.25 12 12 0 0 1-5.66 2.84 34 34 0 0 1-8.17.5q-4.96 0-9.92-.13c-3.23-.08-6.48-.12-9.69-.5a2 2 0 0 0-2 2 2.05 2.05 0 0 0 2 2Z" class="c"/><path d="M25.54 224.92c.1-14.2.51-28.4.88-42.6.07-2.58-3.93-2.58-4 0-.37 14.2-.79 28.4-.88 42.6-.02 2.57 3.98 2.57 4 0" class="c"/><path d="M34.4 98.12c-3 1.38-6.03 2.7-8.96 4.2-4 2.07-8.19 4.5-11.1 8a36 36 0 0 0-5.98 11.52 98 98 0 0 0-3.37 13.02c-.78 4.03-1.36 8.1-2.03 12.14C2.11 152.18 1 157.32.4 162.52c-.56 4.7-.74 9.9.97 14.4a16.5 16.5 0 0 0 7.1 8.46 13 13 0 0 0 4.86 1.86 16 16 0 0 0 4.41-.16 16.8 16.8 0 0 0 10.58-5.7 2.06 2.06 0 0 0 0-2.83 2 2 0 0 0-2.83 0 13.2 13.2 0 0 1-7.99 4.53 14 14 0 0 1-3.46.23c-.1 0-.69-.07-.44-.03s-.21-.05-.3-.07a12 12 0 0 1-1.94-.8 12.5 12.5 0 0 1-6.19-6.7c-1.53-4.15-1.28-8.86-.77-13.18.55-4.7 1.59-9.34 2.36-14.01.64-3.85 1.2-7.72 1.9-11.55a107 107 0 0 1 2.79-11.6 39 39 0 0 1 4.86-11.04c2.63-3.83 6.78-6.24 10.8-8.36 3.04-1.6 6.2-2.95 9.31-4.38a2 2 0 0 0 .72-2.74 2.05 2.05 0 0 0-2.74-.72Z" class="c"/><path d="M90.54 91.03a83 83 0 0 0-14.88-6.63 2.35 2.35 0 0 0-2.9 1.24c-6.12 13.46-22.96 51.07-28.83 63.84a2.34 2.34 0 0 0 1 3.04 129 129 0 0 0 14.7 6.6 2.35 2.35 0 0 0 2.92-1.18c6.53-13.3 23.38-51.44 28.98-63.9a2.35 2.35 0 0 0-.99-3.01" class="b"/><path d="M91.55 89.3a88 88 0 0 0-12.8-5.91c-1.98-.74-4.05-1.7-6.07-.51-1.28.76-1.78 2.03-2.36 3.32l-6.86 15.2-16.6 36.85-3.21 7.07c-1.19 2.6-3.17 5.72-.65 8.22 1.2 1.2 3.15 1.88 4.65 2.6q2.73 1.32 5.53 2.52c3.3 1.42 8.62 4.67 11.1.3 1.1-1.94 1.96-4.07 2.9-6.08q1.83-3.91 3.62-7.84 4.24-9.23 8.38-18.5 4.11-9.15 8.2-18.32l3.42-7.69a63 63 0 0 0 2.71-6.11 4.45 4.45 0 0 0-1.96-5.12c-2.15-1.43-4.15 2.03-2.02 3.45.64.43-1.36 3.92-1.67 4.61L84.9 104l-7.4 16.55c-4.84 10.82-9.67 21.64-14.73 32.34l-1.33 2.78a11 11 0 0 1-.57 1.18c-.4.6-.7.34-1.32.1a120 120 0 0 1-12.39-5.52c-.4-.2-1.3-.47-1.44-.92s.7-1.69.9-2.14q1.44-3.13 2.86-6.27 7.64-16.86 15.21-33.75l7.04-15.62q1.28-2.88 2.6-5.75c.18-.4.25-.7.7-.7a6 6 0 0 1 1.4.5l1.68.61a78 78 0 0 1 11.43 5.36c2.24 1.28 4.25-2.18 2.01-3.45" class="c"/><path d="m65.22 106.17 1.06-.1-.27-.16a25 25 0 0 1-3.86-2.7c-2.49-2.14-.88-4.15.28-6.18 1.28-2.2 2.27-3.3 5.13-2.03 2.18.95 5 4.66 6.43 6.24l.24-.1c.48-.46 1.37.06 2.55.78a6.5 6.5 0 0 1 2.45 2.13l.02.05c4.27.28 8.76.8 10.08 2.18 1.82 2.33-.23 6.3-2.14 8.25-.56.68-1.6.78-2.93.1a17 17 0 0 1-4.23-2.73l.46 1.02c.95 1.89 4.74 9.42 3.37 9.46a22 22 0 0 1-6.68-.63c-.8-.17-1.6-.53-1.78-1.33-.52-2.42-2.53-8.2-3.06-10.14l-1.42.56c-2.56 1.01-9.45 4.54-10.64 4.58a1.8 1.8 0 0 1-1.67-1.17c-.82-1.55-3.57-5.53-1.8-6.49.9-.48 6.47-1.43 7.88-1.55Z" class="g"/><path d="M75.31 99.72a47 47 0 0 0-4.68-5.04c-1.95-1.64-4.94-3.1-7.4-1.6a7.5 7.5 0 0 0-2.4 2.71 16 16 0 0 0-1.77 3.51 4.9 4.9 0 0 0 .86 4.44 15 15 0 0 0 3.83 3.11 22 22 0 0 0 4.04 2.06q1.6.58 3.26 1.03a2 2 0 0 0 1.06-3.86q-1.14-.3-2.29-.69-.76-.25-1.5-.54c.35.13-.31-.15-.38-.18q-.4-.19-.78-.4a28 28 0 0 1-3.04-2l-.1-.08-.3-.27c-.2-.16-.57-.5-.65-.6.12.14-.11-.18-.13-.2-.03-.06-.17-.41-.1-.18.09.27-.04-.26-.04-.26.06.34-.04.09.04-.04.15-.22-.11.31 0 .05l.08-.32q.05-.2.14-.4c-.04.08-.17.33 0 0a29 29 0 0 1 .82-1.44q.35-.61.73-1.22l.35-.52c-.3.41.14-.1.25-.22.21-.24-.05.03-.11.07l.2-.14.11-.06-.25.1c.03-.06.24-.05.3-.08.2-.12-.4-.02-.15.01h.28c.08 0 .38.05.1 0-.3-.05.25.07.3.08a3 3 0 0 1 1.06.44l.5.33c.08.05.3.23-.01-.02l.4.33a51 51 0 0 1 4.55 4.93 2 2 0 0 0 2.82-2.83Z" class="c"/><path d="M78.4 99.79a5.6 5.6 0 0 0-4.36-.46 5 5 0 0 0-2.7 2.18 12 12 0 0 0-1.45 3.08 4.3 4.3 0 0 0 .2 3.58 8.5 8.5 0 0 0 2.86 2.45 7 7 0 0 0 1.77.71 5 5 0 0 0 1.66.37c2.34-.1 3.53-2.9 4.16-4.79a10 10 0 0 0 .35-1.36q.1-.53.15-1.04v-.11q.01-.21-.02.12-.05.42 0-.07a3 3 0 0 0 .06-.52 5.4 5.4 0 0 0-2.68-4.14 2 2 0 0 0-2.74.71 2.04 2.04 0 0 0 .72 2.74l.1.06q.25.18-.12-.1c.04.08.2.17.27.24l.2.22c.22.23-.02.13-.04-.08.01.13.26.42.33.54.12.23-.15-.49-.06-.13l.05.2q.06.3-.03-.26c-.01.06-.03.4.02-.02l-.05.42c-.01.1-.07.61-.01.18s-.03.13-.05.23l-.14.55q-.15.53-.34 1.04l-.11.28c0-.01.21-.48.08-.2l-.28.58a7 7 0 0 1-.49.82c-.13.2-.24.16.12-.14l-.15.17-.1.1c-.27.3.4-.23.16-.12l-.15.09s.53-.21.33-.15c.5-.15.57-.06.34-.06.6.01.43.05.2-.02q-.64-.18-1.26-.4l-.1-.03q-.3-.12.16.07l-.26-.14-.57-.38-.53-.36-.28-.2c.52.34.15.11.03 0l-.13-.12c-.15-.17-.14-.3.1.14l-.13-.21c-.15-.23.1.24.1.25-.12-.34 0 .56.01.23v-.24l.02-.17c0 .65-.05.3 0 .08a7 7 0 0 1 .33-1.1l.09-.21c-.17.55-.1.2-.03.06l.3-.6q.34-.59.72-1.13c-.38.57-.06.1.07-.05.15-.18.21-.04-.21.15l.19-.12c.2-.1.33-.05-.16.06l.39-.12.2-.05q.32-.06-.2.02l.24-.02h.36c.38 0-.44-.12-.04-.01l.38.1q.3.1-.11-.06l.24.13a2 2 0 1 0 2.02-3.45Z" class="c"/><path d="M79.82 106.14q1.88.13 3.76.36c.35.04-.26-.04.08 0l.5.08.76.14a19 19 0 0 1 2.15.54l.28.1c.39.13-.09-.05-.1-.04.07-.03.4.2.46.23l.25.15c.2.1-.32-.32-.12-.08-.36-.43 0 .04.09.18.22.37-.02-.24 0 0l.07.3c.02.07.06.38.03.1s0 .04 0 .1v.4c0 .06-.04.5 0 .2a7 7 0 0 1-.32 1.18l-.12.33c.02-.08.16-.35 0 0a13 13 0 0 1-1.12 1.91c-.22.3-.03.04.01-.02l-.2.25-.5.55c-.19.25.03.02.1-.03-.3.17.06 0 .11-.01-.35.1.07.03.1.02 0 0-.52 0-.22.02.25.01-.51-.15-.43-.12.25.1-.52-.23-.4-.18.02.01-.7-.3-.3-.1.34.15-.18-.1-.24-.13l-.52-.3a18 18 0 0 1-1.7-1.14l-.26-.2c-.05-.03-.46-.35-.25-.18l-.12-.1-.3-.25-.6-.49q-.95-.78-1.89-1.59a2 2 0 0 0-2.82 2.83 62 62 0 0 0 4.8 3.85 16 16 0 0 0 2.7 1.49c.34.15-.3-.17.02.01a5 5 0 0 0 .78.32 5 5 0 0 0 1.26.25 3.7 3.7 0 0 0 2.19-.47 9 9 0 0 0 2.55-2.89 11 11 0 0 0 1.5-3.52 6.6 6.6 0 0 0-.33-4.14 4.4 4.4 0 0 0-2.35-2.24c-2.88-1.28-6.23-1.46-9.34-1.68a2 2 0 0 0-2 2 2.05 2.05 0 0 0 2 2Zm-15.13-1.93a52 52 0 0 0-6.48 1.07 8 8 0 0 0-2.6.88 3.55 3.55 0 0 0-1.2 3.99 14 14 0 0 0 1.6 3.57 8.5 8.5 0 0 0 2.27 3.11c2.05 1.38 4.57-.14 6.5-1.01q1.9-.86 3.78-1.75l1.82-.83.76-.34c.13-.06.43-.18-.08.03l.4-.16a2.06 2.06 0 0 0 1.4-2.46 2 2 0 0 0-2.46-1.4c-1.9.76-3.74 1.66-5.6 2.52q-1.43.68-2.9 1.32l-.34.14c-.28.13.45-.18.03 0q-.24.08-.47.18-.48.18-.95.33c-.17.06-.7.15.16 0-.06.02-.2 0 .11.05-.48-.08.01.02 0 .02l.14.1q-.21-.21-.08-.06c.1.25-.17-.3-.16-.27l-.28-.51c-.5-.88-1.02-1.74-1.45-2.66l-.14-.3-.2-.69c-.02-.04-.08-.49-.04-.13s-.01-.07 0-.11.16-.63-.03.2c.08-.37-.24.38-.04.09a1.3 1.3 0 0 1-.43.42c.15-.1.25-.08-.03-.01-.42.1.02 0 .13-.04q.58-.17 1.17-.3a60 60 0 0 1 3.33-.64l1.65-.26.26-.04c.43-.06-.44.05-.07 0l.53-.05a2.05 2.05 0 0 0 2-2 2 2 0 0 0-2-2Z" class="c"/><path d="M78.77 113.93q1.19 2.32 2.25 4.72l.12.28.26.62q.27.68.5 1.38l.27 1.02c.07.26 0-.6-.02-.1v.14a1.4 1.4 0 0 1 .21-.76 1.8 1.8 0 0 1 1.04-.79c.71-.2.5-.05.22-.05l-1.29.01q-.92 0-1.84-.08l-.45-.05c.55.06.04 0-.06-.02a26 26 0 0 1-1.67-.32l-.6-.12c-.06-.01-.65-.17-.43-.1.29.1-.26-.1-.22-.12-.04.03.57.4.18.13.18.13.08.23.06.02l-.06-.25q-.18-.73-.4-1.45-.46-1.61-.98-3.23l-1.13-3.53-.39-1.26c-.08-.27-.25-1.3-.13-.3a2.05 2.05 0 0 0-2-2c-.98.04-2.13.89-2 2a32 32 0 0 0 1.7 5.85q.58 1.83 1.12 3.67c.41 1.45.6 2.92 2.01 3.8a7 7 0 0 0 2.39.78q1.21.25 2.46.42a19 19 0 0 0 1.89.15 10 10 0 0 0 2.68-.1c2.74-.76 1.45-4.18.74-5.93a89 89 0 0 0-2.99-6.46 2 2 0 0 0-2.73-.72 2.05 2.05 0 0 0-.72 2.73Z" class="c"/><path d="M56.56 151.03a3 3 0 0 1 .54 2.58 2 2 0 0 1-1.58 1.68l-.34.05a5 5 0 0 1 1.17 2.57 5 5 0 0 1-.05 2 3 3 0 0 1-1.62 1.8l1.1 2.52a3.3 3.3 0 0 1-.63 3.18 3.2 3.2 0 0 1-1.89.8 2.2 2.2 0 0 1-1.71 1.55 11.6 11.6 0 0 1-9.66-.17 2 2 0 0 0-1.73-.18 2.6 2.6 0 0 0-.91.87c-1.74 2.22-2.28 3.15-3.68 4.07-4.79 2.93-5.68 2.73-8.7 2.57-1.55-.08-4.27-1.1-4.63-3.15-.58-3.25-.84-5.22 0-8.17a9 9 0 0 1 1.55-2.9c.7-.98 1.27-1.47 1.9-2.34 3.98-5.57 4.97-8.82 8.22-13.96a9.3 9.3 0 0 1 4.29-2.9 13 13 0 0 1 2.93-.4 16 16 0 0 1 6.93 1.13 20 20 0 0 1 8.5 6.8 3 3 0 0 1 .53 2.58 2 2 0 0 1-1.58 1.69" class="a"/><path d="M51.01 167.82a11 11 0 0 1-4.6.9 9 9 0 0 1-2.1-.3c-.79-.22-1.45-.66-2.22-.92-3.59-1.22-4.84 2.75-6.97 4.67a15 15 0 0 1-3.37 2.04 9 9 0 0 1-1.3.53 10 10 0 0 1-1.04.25q.3-.05-.07-.01c-1.52.08-4.24.2-5.08-1.41a6 6 0 0 1-.31-1.66 18 18 0 0 1-.23-2.16 9 9 0 0 1 .8-4.5 25 25 0 0 1 2.66-3.58 49 49 0 0 0 3.04-4.61c1.46-2.48 2.7-5.07 4.15-7.55a8 8 0 0 1 2.27-3 7 7 0 0 1 3.88-1.39 15.3 15.3 0 0 1 9.66 2.5 18 18 0 0 1 4 3.57c.37.45 1.59 1.98.8 2.17-2.5.6-1.44 4.46 1.06 3.86a4.2 4.2 0 0 0 3.1-4.25c.03-1.84-.9-3.09-2-4.45a21.6 21.6 0 0 0-9.48-6.59c-3.31-1.14-7.86-1.36-11.12.06a10.5 10.5 0 0 0-4.08 3.02 35 35 0 0 0-2.8 4.73 71 71 0 0 1-5.7 9.6 23 23 0 0 0-3.2 4.51 13.5 13.5 0 0 0-1.05 5.72 15 15 0 0 0 .97 5.76 6.6 6.6 0 0 0 3.86 3.11 11.7 11.7 0 0 0 7.2.08 21 21 0 0 0 5.19-2.7 20 20 0 0 0 3.73-4.13 2 2 0 0 1 .3-.38c.37-.27-.17-.02-.08 0a11 11 0 0 1 1.37.63 12 12 0 0 0 2.99.7 14 14 0 0 0 6.83-.96 2.07 2.07 0 0 0 1.4-2.46 2 2 0 0 0-2.46-1.4" class="c"/><path d="M39.56 164.15a212 212 0 0 0 10.5 5.35 6 6 0 0 0 4.9.32 4.87 4.87 0 0 0 1.27-8.24 31 31 0 0 0-6.18-4.2c-2.2-1.24-4.45-2.35-6.67-3.53a2 2 0 0 0-2.02 3.45c3.7 1.98 7.56 3.75 10.97 6.22.13.1.56.44.22.16l.55.46c.3.26.54.58.83.83.17.15-.23-.43-.1-.12l.1.16c.04 0 .14.33.05.07-.12-.33 0 .34 0 .06a1 1 0 0 1-.16.64c.07-.15-.18.29-.19.3-.1.33.31-.24.16-.1-.08.06-.4.19-.07.06l-.39.12-.4.09c.3-.04-.16-.01-.23-.01-.4 0 .45.07-.2-.02-.07-.01-.41-.14-.03 0q-.35-.14-.68-.3-1.65-.77-3.25-1.59a212 212 0 0 1-6.97-3.63c-2.25-1.24-4.27 2.21-2.01 3.45" class="c"/><path d="M45.27 151.63a53 53 0 0 1 7.45 4.16l.42.3c-.3-.24.13.14.15.16q.17.14.32.32c.15.18.24.3.07.07a9 9 0 0 1 .5.83c.1.19-.07-.26.03.1l.14.52c.01.04.08.47.06.31s.02.34.02.39c0 0-.06.64-.01.36-.03.15-.22.56-.01.2-.03.04-.25.42-.1.2s-.14.13-.18.17c-.32.32.26-.1-.16.11-.07.04-.55.25-.2.12a2.05 2.05 0 0 0-1.4 2.46 2 2 0 0 0 2.45 1.4 5.1 5.1 0 0 0 3.6-4.8 7.5 7.5 0 0 0-2.1-5.4 20 20 0 0 0-4.4-3.06 70 70 0 0 0-4.63-2.37 2 2 0 1 0-2.01 3.46Z" class="c"/><path d="M63.53 116.41a24 24 0 0 0-4.56-.36 2.9 2.9 0 0 0-2.98 2.33 3 3 0 0 0 .92 2.72 7 7 0 0 0 1.4.72l-.73.05a2.5 2.5 0 0 0-2.1 2.19 2.4 2.4 0 0 0 .66 2.15c2.15 1.81 6.01 3.12 11.34 5.03-2.86.05-4.13.14-5.84.2a2.53 2.53 0 0 0-2.38 2.7c.01 1.2 1.25 1.95 2.67 2.62 1.5.71 2.72 1.33 4.52 2.19 1.28.61 2.17 1.98 3.15 3.01 1.94 2.04 4.9 4.26 8.2 4.6q.94-1.21 2.2-2.65c3.2-3.63 7.62-8.09 10.43-10.97-1.83-1.5-2.98-9.77-3.73-12.58a4 4 0 0 0-.58-1.46 8 8 0 0 0-.92-1.17 17 17 0 0 0-5.85-3.53c-4.19-1.47-8.37-2.53-11.97-1.94a3.9 3.9 0 0 0-2.7 2.33 2.4 2.4 0 0 0 .45 2.1l.04.1a26 26 0 0 0-1.64-.38" class="a"/><path d="M78.95 144.6a10.3 10.3 0 0 1-6.93-3.08c-.94-.85-1.7-1.84-2.57-2.75a12 12 0 0 0-3.68-2.37c-1.21-.59-2.47-1.13-3.65-1.79a3 3 0 0 1-.88-.6c.13.23-.05.06.06-.2.02-.05.2-.32.12-.22.13-.18.25-.14.68-.16l1.33-.06q2.03-.1 4.05-.14c2.57-.05 2.58-4.05 0-4q-1.91.04-3.82.13a14 14 0 0 0-3.1.25c-2.69.75-4.27 4.2-2.64 6.6a7.6 7.6 0 0 0 3.14 2.34l3.58 1.73a8 8 0 0 1 2.78 2.21 20 20 0 0 0 2.67 2.63 14 14 0 0 0 8.86 3.47c2.58-.04 2.58-4.04 0-4Z" class="c"/><path d="M68.02 129.3q-2.46-.86-4.9-1.76a60 60 0 0 1-2.05-.81c.4.17-.06-.03-.14-.07l-1.36-.64a16 16 0 0 1-1.47-.83l-.32-.22c-.05-.04-.42-.31-.15-.1s-.09-.1-.14-.13q-.15-.15.06.1-.14-.25-.05-.05c.17.3-.13-.48-.05-.14.05.25 0-.26 0-.34v.1l.06-.25q.08-.21-.04.09l.11-.21q.12-.19-.1.1l.16-.17.15-.14-.13.1c.08-.02.42-.3.15-.1q-.24.1-.02.03.33-.07-.21.01a2.05 2.05 0 0 0 2-2 2 2 0 0 0-2-2 4.6 4.6 0 0 0-4.12 4.36 4.3 4.3 0 0 0 1.15 3.3 10 10 0 0 0 1.81 1.33 30 30 0 0 0 4.58 2.13c1.97.77 3.96 1.46 5.95 2.17a2 2 0 0 0 2.46-1.4 2.05 2.05 0 0 0-1.4-2.46Z" class="c"/><path d="M70.25 123.05c-3.2-.88-6.46-1.6-9.65-2.57a11 11 0 0 1-2.14-.78c-.53-.3-.37-.21-.54-.8q.04.22.02-.13-.06.35.05-.14c.18-.32 0-.13.24-.37a2 2 0 0 1 .64-.2 26 26 0 0 1 7.63 1.12l7.02 1.76c2.5.62 3.57-3.23 1.07-3.86l-6.25-1.56a40 40 0 0 0-7.52-1.42 8.5 8.5 0 0 0-4.2.48 4.9 4.9 0 0 0-2.56 3.27 5 5 0 0 0 .87 4.04 7.7 7.7 0 0 0 4.02 2.26c3.37 1.08 6.84 1.83 10.24 2.76 2.49.68 3.55-3.18 1.07-3.86Z" class="c"/><path d="M66.86 115.68c-.77-1.07.92-1.51 1.74-1.57a19 19 0 0 1 5.6.61c3.35.82 7.3 1.91 9.72 4.55a6 6 0 0 1 1.2 3.13c.28 1.3.52 2.6.8 3.88.52 2.4 1 5.17 2.4 7.23 1.43 2.12 4.9.12 3.45-2.02a12 12 0 0 1-1.39-3.7 97 97 0 0 1-1.11-5.07 16 16 0 0 0-1.22-4.5 12 12 0 0 0-4.6-4.29 27 27 0 0 0-6.35-2.56 28 28 0 0 0-7.24-1.28c-2.2-.04-4.31.27-5.89 1.93a4.4 4.4 0 0 0-.57 5.68 2.06 2.06 0 0 0 2.74.72 2 2 0 0 0 .71-2.74Z" class="c"/><path d="M91.79 100.2a88 88 0 0 1 8.44 3.32l2.4 1 .97.4c.09.03.48.2.1.03l.42.18a26 26 0 0 1 4.47 2.6 25 25 0 0 1 5.77 5.24 25 25 0 0 1 3.13 5.92 72 72 0 0 1 3.6 13.38 146 146 0 0 1 2.37 16.14c.46 6.14.61 12.83-1.13 18.8a12.2 12.2 0 0 1-4.02 6.56 10.2 10.2 0 0 1-6.98 1.62c-5.3-.36-9.9-3.64-13.87-6.89a155 155 0 0 1-12.05-11.1q-2.41-2.43-4.7-4.99a56 56 0 0 1-1.7-2l-.24-.28-.18-.24q-.23-.3-.44-.63l.28 1c0-.1-.35-1.35-.44-1.28.05-.04.08.72.1.74.05.04-.17.18.03-.08.52-.67.9-1.44 1.43-2.11a79 79 0 0 1 4.5-5.11c2.8-3 5.7-5.9 8.55-8.86h-2.83c5.4 4.36 10.88 8.67 16.02 13.35 1.9 1.73 4.73-1.09 2.82-2.82-5.13-4.68-10.6-9-16.02-13.36a2.05 2.05 0 0 0-2.82 0c-3.18 3.3-6.41 6.53-9.5 9.9a60 60 0 0 0-4.75 5.66c-1.12 1.57-1.9 3.16-.81 4.98l-.27-1.01c0 1.41 1.67 2.92 2.53 3.92q2.02 2.35 4.17 4.56c3.57 3.7 7.29 7.27 11.17 10.63 4.13 3.57 8.38 7.02 13.58 8.86 5.63 1.98 12.47 1.8 16.67-2.97 4.4-5 4.96-12.45 5.12-18.82a101 101 0 0 0-1.7-19.64 119 119 0 0 0-3.08-14.5c-1.54-5.06-3.55-10.16-7.36-13.95a35 35 0 0 0-8.38-6.2c-1.2-.64-2.52-1.1-3.78-1.63a106 106 0 0 0-10.52-4.18c-2.48-.72-3.53 3.13-1.07 3.86" class="c"/></svg>
