<svg viewBox="0 0 20 20" fill="none" xmlns="http://www.w3.org/2000/svg"><path d="M5.03027 11.042C5.64598 11.042 6.15206 11.0421 6.56152 11.0811C6.98701 11.1215 7.37228 11.2082 7.72266 11.4229C8.07044 11.636 8.36298 11.9286 8.57617 12.2764C8.79093 12.6268 8.87848 13.0129 8.91895 13.4385C8.95784 13.848 8.95802 14.354 8.95801 14.9697V15.0312C8.95802 15.6469 8.95787 16.153 8.91895 16.5625C8.87848 16.9881 8.79093 17.3732 8.57617 17.7236C8.36296 18.0716 8.07059 18.3639 7.72266 18.5771C7.3722 18.7919 6.98713 18.8795 6.56152 18.9199C6.15206 18.9588 5.64597 18.959 5.03027 18.959H4.96875C4.35307 18.959 3.84697 18.9588 3.4375 18.9199C3.01189 18.8795 2.62585 18.7919 2.27539 18.5771C1.92766 18.364 1.63499 18.0714 1.42188 17.7236C1.20725 17.3733 1.12053 16.988 1.08008 16.5625C1.04115 16.153 1.04101 15.647 1.04102 15.0312V14.9697C1.04101 14.354 1.04118 13.848 1.08008 13.4385C1.12055 13.0129 1.20711 12.6268 1.42188 12.2764C1.63504 11.9286 1.92759 11.636 2.27539 11.4229C2.62585 11.2081 3.01189 11.1215 3.4375 11.0811C3.84698 11.0422 4.35305 11.042 4.96875 11.042H5.03027ZM15.0303 11.042C15.646 11.042 16.1521 11.0421 16.5615 11.0811C16.987 11.1215 17.3723 11.2082 17.7227 11.4229C18.0704 11.636 18.363 11.9286 18.5762 12.2764C18.7909 12.6268 18.8785 13.0129 18.9189 13.4385C18.9578 13.848 18.958 14.354 18.958 14.9697V15.0312C18.958 15.6469 18.9579 16.153 18.9189 16.5625C18.8785 16.9881 18.7909 17.3732 18.5762 17.7236C18.363 18.0716 18.0706 18.3639 17.7227 18.5771C17.3722 18.7919 16.9871 18.8795 16.5615 18.9199C16.1521 18.9588 15.646 18.959 15.0303 18.959H14.9688C14.3531 18.959 13.847 18.9588 13.4375 18.9199C13.0119 18.8795 12.6259 18.7919 12.2754 18.5771C11.9277 18.364 11.635 18.0714 11.4219 17.7236C11.2072 17.3733 11.1205 16.988 11.0801 16.5625C11.0412 16.153 11.041 15.647 11.041 15.0312V14.9697C11.041 14.354 11.0412 13.848 11.0801 13.4385C11.1205 13.0129 11.2071 12.6268 11.4219 12.2764C11.635 11.9286 11.9276 11.636 12.2754 11.4229C12.6259 11.2081 13.0119 11.1215 13.4375 11.0811C13.847 11.0422 14.3531 11.042 14.9688 11.042H15.0303ZM4.99902 12.292C4.34542 12.292 3.89899 12.2926 3.55566 12.3252C3.22155 12.357 3.04976 12.4151 2.92871 12.4893C2.7492 12.5993 2.59835 12.7502 2.48828 12.9297C2.4141 13.0507 2.35599 13.2225 2.32422 13.5566C2.2916 13.9 2.29102 14.3464 2.29102 15C2.29102 15.654 2.29157 16.1009 2.32422 16.4443C2.35599 16.7784 2.41411 16.9502 2.48828 17.0713C2.59837 17.2507 2.74922 17.4017 2.92871 17.5117C3.04976 17.5859 3.22155 17.644 3.55566 17.6758C3.89898 17.7084 4.34544 17.709 4.99902 17.709C5.65297 17.709 6.09994 17.7084 6.44336 17.6758C6.77746 17.644 6.94927 17.5859 7.07031 17.5117C7.24975 17.4017 7.4007 17.2507 7.51074 17.0713C7.58492 16.9502 7.64304 16.7784 7.6748 16.4443C7.70746 16.1009 7.70801 15.654 7.70801 15C7.70801 14.3464 7.70742 13.9 7.6748 13.5566C7.64304 13.2225 7.58492 13.0507 7.51074 12.9297C7.40072 12.7502 7.24977 12.5993 7.07031 12.4893C6.94927 12.4151 6.77744 12.357 6.44336 12.3252C6.09994 12.2925 5.65297 12.292 4.99902 12.292ZM14.999 12.292C14.3454 12.292 13.899 12.2926 13.5557 12.3252C13.2215 12.357 13.0498 12.4151 12.9287 12.4893C12.7492 12.5993 12.5983 12.7502 12.4883 12.9297C12.4141 13.0507 12.356 13.2225 12.3242 13.5566C12.2916 13.9 12.291 14.3464 12.291 15C12.291 15.654 12.2916 16.1009 12.3242 16.4443C12.356 16.7784 12.4141 16.9502 12.4883 17.0713C12.5984 17.2507 12.7492 17.4017 12.9287 17.5117C13.0498 17.5859 13.2215 17.644 13.5557 17.6758C13.899 17.7084 14.3454 17.709 14.999 17.709C15.653 17.709 16.0999 17.7084 16.4434 17.6758C16.7775 17.644 16.9493 17.5859 17.0703 17.5117C17.2498 17.4017 17.4007 17.2507 17.5107 17.0713C17.5849 16.9502 17.643 16.7784 17.6748 16.4443C17.7075 16.1009 17.708 15.654 17.708 15C17.708 14.3464 17.7074 13.9 17.6748 13.5566C17.643 13.2225 17.5849 13.0507 17.5107 12.9297C17.4007 12.7502 17.2498 12.5993 17.0703 12.4893C16.9493 12.4151 16.7774 12.357 16.4434 12.3252C16.0999 12.2925 15.653 12.292 14.999 12.292ZM5.03027 1.04199C5.64598 1.04198 6.15206 1.04213 6.56152 1.08105C6.98701 1.12151 7.37228 1.20823 7.72266 1.42285C8.07044 1.63597 8.36298 1.92864 8.57617 2.27637C8.79093 2.62683 8.87848 3.01286 8.91895 3.43848C8.95784 3.84795 8.95802 4.35405 8.95801 4.96973V5.03125C8.95802 5.64694 8.95787 6.15304 8.91895 6.5625C8.87848 6.98811 8.79093 7.37318 8.57617 7.72363C8.36296 8.07156 8.07059 8.36394 7.72266 8.57715C7.3722 8.7919 6.98713 8.87946 6.56152 8.91992C6.15206 8.95885 5.64597 8.95899 5.03027 8.95898H4.96875C4.35307 8.95899 3.84697 8.95882 3.4375 8.91992C3.01189 8.87945 2.62585 8.79191 2.27539 8.57715C1.92766 8.36396 1.63499 8.07141 1.42188 7.72363C1.20725 7.37325 1.12053 6.98799 1.08008 6.5625C1.04115 6.15304 1.04101 5.64696 1.04102 5.03125V4.96973C1.04101 4.35403 1.04118 3.84796 1.08008 3.43848C1.12055 3.01286 1.20711 2.62683 1.42188 2.27637C1.63504 1.92856 1.92759 1.63602 2.27539 1.42285C2.62585 1.20809 3.01189 1.12152 3.4375 1.08105C3.84698 1.04215 4.35305 1.04198 4.96875 1.04199H5.03027ZM15.0303 1.04199C15.646 1.04198 16.1521 1.04213 16.5615 1.08105C16.987 1.12151 17.3723 1.20823 17.7227 1.42285C18.0704 1.63597 18.363 1.92864 18.5762 2.27637C18.7909 2.62683 18.8785 3.01286 18.9189 3.43848C18.9578 3.84795 18.958 4.35405 18.958 4.96973V5.03125C18.958 5.64694 18.9579 6.15304 18.9189 6.5625C18.8785 6.98811 18.7909 7.37318 18.5762 7.72363C18.363 8.07156 18.0706 8.36394 17.7227 8.57715C17.3722 8.7919 16.9871 8.87946 16.5615 8.91992C16.1521 8.95885 15.646 8.95899 15.0303 8.95898H14.9688C14.3531 8.95899 13.847 8.95882 13.4375 8.91992C13.0119 8.87945 12.6259 8.79191 12.2754 8.57715C11.9277 8.36396 11.635 8.07141 11.4219 7.72363C11.2072 7.37325 11.1205 6.98799 11.0801 6.5625C11.0412 6.15304 11.041 5.64696 11.041 5.03125V4.96973C11.041 4.35403 11.0412 3.84796 11.0801 3.43848C11.1205 3.01286 11.2071 2.62683 11.4219 2.27637C11.635 1.92856 11.9276 1.63602 12.2754 1.42285C12.6259 1.20809 13.0119 1.12152 13.4375 1.08105C13.847 1.04215 14.3531 1.04198 14.9688 1.04199H15.0303ZM4.99902 2.29199C4.34542 2.29199 3.89899 2.29257 3.55566 2.3252C3.22155 2.35696 3.04976 2.41508 2.92871 2.48926C2.7492 2.59933 2.59835 2.75018 2.48828 2.92969C2.4141 3.05074 2.35599 3.22253 2.32422 3.55664C2.2916 3.89996 2.29102 4.34639 2.29102 5C2.29102 5.65395 2.29157 6.10092 2.32422 6.44434C2.35599 6.77841 2.41411 6.95025 2.48828 7.07129C2.59837 7.25074 2.74922 7.40169 2.92871 7.51172C3.04976 7.5859 3.22155 7.64401 3.55566 7.67578C3.89898 7.7084 4.34544 7.70898 4.99902 7.70898C5.65297 7.70898 6.09994 7.70843 6.44336 7.67578C6.77746 7.64401 6.94927 7.58589 7.07031 7.51172C7.24975 7.40167 7.4007 7.25073 7.51074 7.07129C7.58492 6.95024 7.64304 6.77843 7.6748 6.44434C7.70746 6.10092 7.70801 5.65395 7.70801 5C7.70801 4.34641 7.70742 3.89996 7.6748 3.55664C7.64304 3.22253 7.58492 3.05074 7.51074 2.92969C7.40072 2.75019 7.24977 2.59934 7.07031 2.48926C6.94927 2.41508 6.77744 2.35696 6.44336 2.3252C6.09994 2.29254 5.65297 2.29199 4.99902 2.29199ZM14.999 2.29199C14.3454 2.29199 13.899 2.29257 13.5557 2.3252C13.2215 2.35696 13.0498 2.41508 12.9287 2.48926C12.7492 2.59933 12.5983 2.75018 12.4883 2.92969C12.4141 3.05074 12.356 3.22253 12.3242 3.55664C12.2916 3.89996 12.291 4.34639 12.291 5C12.291 5.65395 12.2916 6.10092 12.3242 6.44434C12.356 6.77841 12.4141 6.95025 12.4883 7.07129C12.5984 7.25074 12.7492 7.40169 12.9287 7.51172C13.0498 7.5859 13.2215 7.64401 13.5557 7.67578C13.899 7.7084 14.3454 7.70898 14.999 7.70898C15.653 7.70898 16.0999 7.70843 16.4434 7.67578C16.7775 7.64401 16.9493 7.58589 17.0703 7.51172C17.2498 7.40167 17.4007 7.25073 17.5107 7.07129C17.5849 6.95024 17.643 6.77843 17.6748 6.44434C17.7075 6.10092 17.708 5.65395 17.708 5C17.708 4.34641 17.7074 3.89996 17.6748 3.55664C17.643 3.22253 17.5849 3.05074 17.5107 2.92969C17.4007 2.75019 17.2498 2.59934 17.0703 2.48926C16.9493 2.41508 16.7774 2.35696 16.4434 2.3252C16.0999 2.29254 15.653 2.29199 14.999 2.29199Z" fill="currentColor"/></svg>
