<svg xmlns="http://www.w3.org/2000/svg" fill="none" viewBox="0 0 24 24"><path fill="currentColor" fill-rule="evenodd" d="M5.38 2h2.24q.6 0 1.05.02.48.03.98.26.7.37 1.07 1.07c.17.33.23.66.26.98q.02.45.02 1.05v4.24q0 .6-.02 1.05-.03.48-.26.98a2.5 2.5 0 0 1-1.07 1.07 3 3 0 0 1-.98.26q-.45.02-1.05.02H5.38q-.6 0-1.05-.02a3 3 0 0 1-.98-.26 2.5 2.5 0 0 1-1.07-1.07 3 3 0 0 1-.26-.98Q2 10.22 2 9.62V5.38q0-.6.02-1.05.03-.48.26-.98.37-.7 1.07-1.07.5-.24.98-.26Q4.78 2 5.38 2m-1.1 2.05h-.01a.5.5 0 0 0-.22.23v.03l-.03.19C4 4.7 4 4.97 4 5.42v4.17a13 13 0 0 0 .06 1.14.5.5 0 0 0 .22.22h.03l.19.03c.2.02.47.02.92.02h2.17a13 13 0 0 0 1.14-.06.5.5 0 0 0 .22-.22v-.03l.03-.19c.02-.2.02-.47.02-.91V5.42a13 13 0 0 0-.06-1.15.5.5 0 0 0-.22-.22H8.7l-.19-.03C8.3 4 8.03 4 7.6 4H5.42a13 13 0 0 0-1.14.05M16.38 2h2.24q.6 0 1.05.02.48.03.98.26.7.37 1.07 1.07c.17.33.23.66.26.98q.03.45.02 1.05v.24q0 .6-.02 1.05-.03.48-.26.98-.37.7-1.07 1.07a3 3 0 0 1-.98.26q-.45.02-1.05.02h-2.24q-.6 0-1.05-.02a3 3 0 0 1-.98-.26 2.5 2.5 0 0 1-1.07-1.07 3 3 0 0 1-.26-.98Q13 6.22 13 5.62v-.24q0-.6.02-1.05.03-.48.26-.98a2.5 2.5 0 0 1 1.07-1.07q.5-.24.98-.26.45-.02 1.05-.02m-1.1 2.05a.5.5 0 0 0-.22.23v.03l-.03.19c-.02.2-.02.47-.02.92v.17a13 13 0 0 0 .06 1.14.5.5 0 0 0 .22.22h.03l.19.03c.2.02.47.02.91.02h2.18a13 13 0 0 0 1.14-.06.5.5 0 0 0 .22-.22V6.7l.03-.19c.02-.2.02-.47.02-.91v-.17a13 13 0 0 0-.06-1.15.5.5 0 0 0-.22-.22h-.03l-.19-.03C19.3 4 19.03 4 18.6 4h-2.2a13 13 0 0 0-1.13.05m1.1 6.95h2.24q.6 0 1.05.02.48.03.98.26.7.37 1.07 1.07c.17.33.23.66.26.98q.03.45.02 1.05v4.24q0 .6-.02 1.05-.03.48-.26.98-.37.7-1.07 1.07a3 3 0 0 1-.98.26q-.45.03-1.05.02h-2.24q-.6 0-1.05-.02a3 3 0 0 1-.98-.26 2.5 2.5 0 0 1-1.07-1.07 3 3 0 0 1-.26-.98q-.02-.45-.02-1.05v-4.24q0-.6.02-1.05.03-.48.26-.98a2.5 2.5 0 0 1 1.07-1.07c.33-.17.66-.23.98-.26q.45-.02 1.05-.02m-1.1 2.05a.5.5 0 0 0-.22.23v.03l-.03.19c-.02.2-.02.47-.02.91v4.18a13 13 0 0 0 .06 1.14.5.5 0 0 0 .22.22h.03l.19.03c.2.02.47.02.91.02h2.18a13 13 0 0 0 1.14-.06.5.5 0 0 0 .22-.22v-.03l.03-.19c.02-.2.02-.47.02-.91V14.4a13 13 0 0 0-.06-1.14.5.5 0 0 0-.22-.22h-.03l-.19-.03c-.2-.02-.47-.02-.91-.02H16.4a13 13 0 0 0-1.13.05M5.38 15h2.24q.6 0 1.05.02.48.03.98.26.7.37 1.07 1.07c.17.33.23.66.26.98q.02.45.02 1.05v.24q0 .6-.02 1.05-.03.48-.26.98a2.5 2.5 0 0 1-1.07 1.07 3 3 0 0 1-.98.26q-.45.03-1.05.02H5.38q-.6 0-1.05-.02a3 3 0 0 1-.98-.26 2.5 2.5 0 0 1-1.07-1.07 3 3 0 0 1-.26-.98Q2 19.22 2 18.62v-.24q0-.6.02-1.05.03-.48.26-.98.37-.7 1.07-1.07.5-.23.98-.26.45-.02 1.05-.02m-1.1 2.05h-.01a.5.5 0 0 0-.22.23v.03l-.03.19c-.02.2-.02.47-.02.91v.18a13 13 0 0 0 .06 1.14.5.5 0 0 0 .22.22h.03l.19.03c.2.02.47.02.92.02h2.17a13 13 0 0 0 1.14-.06.5.5 0 0 0 .22-.22v-.03l.03-.19c.02-.2.02-.47.02-.91v-.18a13 13 0 0 0-.06-1.14.5.5 0 0 0-.22-.22H8.7l-.19-.03C8.3 17 8.03 17 7.6 17H5.42a13 13 0 0 0-1.14.05" clip-rule="evenodd"/></svg>
