<svg xmlns="http://www.w3.org/2000/svg" fill="none" viewBox="0 0 24 24"><path stroke="currentColor" stroke-linecap="round" stroke-linejoin="round" stroke-width="1.5" d="M15 2v10a2 2 0 0 1-2 2H2V6a4 4 0 0 1 4-4z"/><path stroke="currentColor" stroke-linecap="round" stroke-linejoin="round" stroke-width="1.5" d="M22 14v3a3 3 0 0 1-3 3h-1a2 2 0 0 0-2-2 2 2 0 0 0-2 2h-4a2 2 0 0 0-2-2 2 2 0 0 0-2 2H5a3 3 0 0 1-3-3v-3h11a2 2 0 0 0 2-2V5h1.84c.72 0 1.38.39 1.74 1.01L20.29 9H19a1 1 0 0 0-1 1v3a1 1 0 0 0 1 1z"/><path stroke="currentColor" stroke-linecap="round" stroke-linejoin="round" stroke-width="1.5" d="M8 22a2 2 0 1 0 0-4 2 2 0 0 0 0 4m8 0a2 2 0 1 0 0-4 2 2 0 0 0 0 4m6-10v2h-3a1 1 0 0 1-1-1v-3a1 1 0 0 1 1-1h1.29z"/></svg>
