<svg xmlns="http://www.w3.org/2000/svg" viewBox="0 0 24 24"><path d="M22.7 19.29c-.93-1.27-2.78-3.25-4.92-5.56-2.09-2.25-4.45-4.8-6.34-7.08a3 3 0 0 1-.79-1.12 5 5 0 0 0-.17-1.01l-.05-.2a6 6 0 0 1 2.38-1.19 20 20 0 0 1 3.2-.4l1.1-.04L16 1.52l-.14-.04a19 19 0 0 0-4.05-.47 10.5 10.5 0 0 0-6.65 2.21c0 .01-1.18 1.12-1.09 1.92.06.5-.11.63-.57.97a2 2 0 0 0-.37.32 3 3 0 0 0-2.78 1.2 1.2 1.2 0 0 0-.34 1.1 4.7 4.7 0 0 0 1.8 2.47c1.05.5 2.28-.22 3.36-1.99a2 2 0 0 1 1.2-.93 11 11 0 0 1 2 .68l.26.08c3.23 3.88 5.42 6.94 7.01 9.17a46 46 0 0 0 2.6 3.44l.72.8a1.6 1.6 0 0 0 1.14.55h.07a1.6 1.6 0 0 0 1.12-.45l1.22-1.15a1.6 1.6 0 0 0 .18-2.11m-16.35-12a3 3 0 0 0-2.02 1.4c-.57.92-1.46 1.9-2.06 1.61A4 4 0 0 1 1 8.54c0-.13.03-.16.05-.18.9-.86 1.12-1 2.01-.93a1 1 0 0 0 .66-.22l.38-.3a1.85 1.85 0 0 0 .98-1.86 3 3 0 0 1 .75-1.07A9.6 9.6 0 0 1 11.82 2q.64 0 1.23.05l-.46.1A7 7 0 0 0 9.74 3.6a1 1 0 0 0-.23 1.17 4 4 0 0 1 .14.83 2.5 2.5 0 0 0 .6 1.23 8 8 0 0 0-.67.47 6 6 0 0 0-.83.73 8 8 0 0 0-2.4-.75zm15.48 13.38-1.22 1.16a.6.6 0 0 1-.45.17.6.6 0 0 1-.44-.21l-.72-.8q-.99-1.16-2.53-3.36a155 155 0 0 0-6.9-9.02 6 6 0 0 1 .61-.52 6 6 0 0 1 .75-.5c1.83 2.2 4.1 4.65 6.12 6.82a84 84 0 0 1 4.85 5.47.6.6 0 0 1-.07.8z"/></svg>
