<svg fill="currentColor" viewBox="0 0 64 64" xmlns="http://www.w3.org/2000/svg" style="fill-rule:evenodd;clip-rule:evenodd;stroke-linejoin:round;stroke-miterlimit:2;"><rect id="Icons" x="-896" y="-192" width="1280" height="800" style="fill:none;"/><g id="Icons1"><path id="hammer" d="M55.821,44.743c-1.522,1.579 -5.373,5.562 -8.547,8.764l-13.283,-14.197l7.953,-7.953l13.877,13.386Zm-24.682,-8.284l7.953,-7.953c0,0 -4.039,-3.082 -3.667,-5.007c0.372,-1.925 1.212,-4.647 7.062,-7.062c5.849,-2.414 11.306,-2.632 11.306,-2.632l0.196,-2.637c0,0 -13.444,-2.031 -20.546,0.492c-7.102,2.523 -15.135,12.021 -15.135,12.021c0,0 1.401,4.593 -0.999,6.994c-2.401,2.401 -5.628,-0.367 -5.628,-0.367l-3.681,4.674l9.289,9.288l4.665,-3.689c0,0 -2.208,-3.307 -0.026,-5.287c4.695,-4.261 9.211,1.165 9.211,1.165Z"/></g></svg>
