<svg xmlns="http://www.w3.org/2000/svg" fill="currentColor" style="fill-rule:evenodd;clip-rule:evenodd;stroke-linejoin:round;stroke-miterlimit:2" viewBox="0 0 64 64"><path id="Icons" d="M-768-192H512v800H-768z" style="fill:none"/><g id="Icons1"><path id="hammer" d="M30.65 23.54 55.9 47.88l-6.58 6.58-23.97-25.62zm-7.2 3.4 5.3-5.3s-2.7-2.06-2.45-3.34c.25-1.29.81-3.1 4.71-4.72 3.9-1.6 7.55-1.75 7.55-1.75l.13-1.76s-8.97-1.36-13.71.33c-4.74 1.68-10.1 8.02-10.1 8.02s.94 3.06-.66 4.66-3.76-.24-3.76-.24l-2.45 3.12 6.2 6.2 3.1-2.47s-1.47-2.2-.01-3.53c3.13-2.84 6.14.78 6.14.78"/></g></svg>
