<svg xmlns="http://www.w3.org/2000/svg" fill="none" viewBox="0 0 24 24"><path stroke="currentColor" stroke-linecap="round" stroke-width="1.5" d="M8.78 22a8.6 8.6 0 0 1-3.99-3.5M14.83 2.2a4.6 4.6 0 0 1 4.61 1.2"/><path fill="currentColor" d="m4.01 8.37-.37-.65zm2.5.5.64-.38zm-3.3 1.88-.66.38zM7.7 3.37 8.34 3zm.84 1.45-.65.37zm1.88 4.7a.75.75 0 0 0 1.3-.75zm-2.88 2.61a.75.75 0 1 0 1.3-.75zM4.4 5.26l-.65.38zm7.44-2.33.65-.38zm2.52 4.33.65-.38zm1.69 2.89.37.65a.75.75 0 0 0 .28-1.03zm.97-4.4a.75.75 0 1 0 1.3-.75zm3.17 3.96.65-.38zm-13.2 7.54.65-.38zm9.97 2-.37-.65zm-3.18-3.95a.75.75 0 0 0 1.3-.76zm6.57-6.81a.75.75 0 0 0-1.3.76zM8.99 20.18a.75.75 0 0 0 .72-1.32zm4.9-.63a.75.75 0 0 0 .22 1.48zM4.39 9.02c.63-.36 1.25-.14 1.46.23l1.3-.76c-.72-1.23-2.32-1.45-3.51-.77zm-.75-1.3c-1.2.68-1.8 2.18-1.09 3.41l1.3-.75c-.21-.37-.1-1 .53-1.36zm3.4-3.97.85 1.44 1.3-.75-.85-1.45zm.85 1.44 2.53 4.34 1.3-.76-2.53-4.33zm.94 6.19L7.15 8.49l-1.3.76 1.69 2.88zM7.15 8.49l-2.1-3.61-1.3.76 2.1 3.6zM5.58 3.52c.63-.36 1.25-.14 1.47.23l1.3-.76c-.72-1.22-2.33-1.45-3.52-.77zm-.75-1.3c-1.19.68-1.8 2.18-1.08 3.42l1.3-.76c-.21-.36-.1-1 .53-1.36zm6.36 1.09 2.53 4.33 1.3-.76-2.53-4.33zm2.53 4.33 1.68 2.89 1.3-.76L15 6.88zm-4-4.56c.63-.36 1.26-.14 1.47.23l1.3-.76c-.72-1.22-2.33-1.45-3.52-.77zm-.75-1.3c-1.19.68-1.8 2.18-1.08 3.41l1.3-.75c-.21-.36-.1-1 .53-1.36zm6.57 3.75c.64-.37 1.26-.14 1.48.22l1.3-.75c-.72-1.23-2.33-1.46-3.52-.78zm-.74-1.3c-1.2.67-1.8 2.18-1.08 3.41l1.3-.76c-.22-.36-.1-1 .52-1.35zm-12.25 6.9 3.8 6.5 1.29-.76-3.79-6.5zm17-1.04c1.6 2.75.4 6.59-2.96 8.51l.74 1.3c3.92-2.24 5.62-6.94 3.5-10.57zm-4.47 4.45c-.68-1.15-.2-2.86 1.34-3.74l-.74-1.3c-2.1 1.2-3.08 3.77-1.9 5.8zm3.97-5.3.5.85 1.29-.76-.5-.84zm-9.34 9.62a5.3 5.3 0 0 1-2.07-1.99l-1.3.76A7 7 0 0 0 9 20.18zm6.88-.26c-.87.5-1.8.8-2.7.95l.22 1.48a9 9 0 0 0 3.22-1.13z"/></svg>
