<svg xmlns="http://www.w3.org/2000/svg" fill="currentColor" viewBox="0 0 32 32"><path d="m31.96 29.46-2.6-15.75a4.3 4.3 0 0 0-4.15-3.7H23V7.35c0-4.07-2.9-7.38-6.97-7.38S9 3.28 9 7.35V10H6.6a4.3 4.3 0 0 0-4.14 3.66L.05 29.43q-.14 1.25.48 1.94.6.66 1.68.66h27.3c1.03 0 1.62-.41 1.93-.76.3-.32.62-.88.52-1.81M11 7.35c0-2.97 2.07-5.38 5.03-5.38S21 4.38 21 7.35V10H11zM29.6 30l-27.27.02c-.17 0-.34-.1-.3-.34l2.41-15.75A2.26 2.26 0 0 1 6.6 12H9v2.28A2 2 0 0 0 10 18a2 2 0 0 0 1-3.72V12h10v2.28A2 2 0 0 0 22 18a2 2 0 0 0 1-3.72V12h2.2c1.06 0 2.05.89 2.18 1.98l2.6 15.73c.01.13-.09.3-.38.3z"/></svg>
