<svg xmlns="http://www.w3.org/2000/svg" fill="none" viewBox="0 0 24 24"><path fill="currentColor" fill-rule="evenodd" d="M13.5 3.75c.41 0 .75.34.75.75v8.25h1.5V7.5a.75.75 0 1 1 1.5 0V15c0 2.9-2.35 5.25-5.25 5.25v1.5A6.75 6.75 0 0 0 18.75 15V7.5a2.25 2.25 0 0 0-3-2.12V4.5a2.25 2.25 0 0 0-4.42-.6A2.24 2.24 0 0 0 8.25 6v6.53l-.48-.96a2.25 2.25 0 0 0-4.04 1.98l1.3 3.23.03.06c1.1 2.2 2.4 3.46 3.68 4.15 1.27.68 2.45.76 3.26.76v-1.5c-.7 0-1.6-.07-2.55-.59-.96-.5-2.04-1.5-3.03-3.47l-1.3-3.23-.03-.05a.75.75 0 0 1 1.34-.68l1.9 3.85 1.42-.33V6a.75.75 0 1 1 1.5 0v6.75h1.5V4.5c0-.41.34-.75.75-.75" clip-rule="evenodd"/></svg>
