<svg xmlns="http://www.w3.org/2000/svg" viewBox="0 -81.05 478.169 478.169"><defs><style>.a{fill:#fff}.b{fill:#211715}</style></defs><path d="M122.31 43.77c-1.66 4.11-4 8.83-6.12 12.86 1.37.7 11.74 4.92 14.57 5.64 1.72-4.39 3.51-8.58 4.88-12.9-2.26-.84-8.68-3.84-13.33-5.6m238.45 2.78c-3.72 3.55-8.28 7.77-11.28 10.91 3.17 3 6.45 6.14 9.38 8.8 3.34-3.44 7.45-7.16 10.79-10.88-1.44-1.52-6.14-6.08-8.9-8.83m-18.61-31.4c-4.78-4.38-9.9-9-14.5-12.77-4.67 4.75-8.78 9.61-12.95 14.33a243 243 0 0 0 14.36 12.67c3.5-3.75 10.42-11.06 13.09-14.22" class="a"/><path d="M120 43.13c-1.71 4.2-3.77 8.27-5.88 12.29a2.43 2.43 0 0 0 .86 3.28c2.3 1.17 4.8 2.06 7.2 3.02a70 70 0 0 0 7.94 2.86 2.47 2.47 0 0 0 2.95-1.67c1.68-4.28 3.48-8.52 4.88-12.9a2.45 2.45 0 0 0-1.67-2.96c-1.71-.64-3.39-1.42-5.47-2.33-2.6-1.13-5.21-2.25-7.86-3.27a2.4 2.4 0 0 0-2.95 1.68 2.45 2.45 0 0 0 1.68 2.95c4.5 1.72 8.8 3.9 13.32 5.6l-1.67-2.95c-1.4 4.38-3.2 8.62-4.89 12.9l2.96-1.68a68 68 0 0 1-7.73-2.78q-2.1-.82-4.17-1.69l-.5-.2c.23.1.33.14.04.01l-.72-.31q-.47-.2-.92-.42l.86 3.28c2.3-4.39 4.5-8.84 6.37-13.43a2.4 2.4 0 0 0-1.68-2.96 2.46 2.46 0 0 0-2.95 1.68m239.06 1.72c-3.78 3.61-7.65 7.14-11.28 10.92a2.44 2.44 0 0 0 0 3.39c3.11 2.95 6.2 5.91 9.38 8.8a2.44 2.44 0 0 0 3.4 0c3.57-3.66 7.36-7.08 10.78-10.88a2.45 2.45 0 0 0 0-3.4c-2.88-3.02-5.93-5.88-8.88-8.83-2.2-2.19-5.59 1.2-3.4 3.4 2.96 2.95 6 5.81 8.9 8.83v-3.4c-3.43 3.8-7.23 7.23-10.8 10.88h3.4c-3.18-2.88-6.27-5.85-9.38-8.8v3.4c3.62-3.77 7.5-7.3 11.28-10.92 2.24-2.13-1.16-5.52-3.4-3.4m-15.21-31.39A348 348 0 0 0 329.35.68a2.46 2.46 0 0 0-3.4 0c-4.5 4.6-8.69 9.5-12.94 14.34a2.44 2.44 0 0 0 0 3.39c4.6 4.4 9.35 8.73 14.36 12.67a2.46 2.46 0 0 0 3.4 0c4.38-4.7 8.92-9.31 13.08-14.22a2.47 2.47 0 0 0 0-3.4 2.4 2.4 0 0 0-3.4 0c-4.16 4.91-8.7 9.52-13.08 14.22h3.4a200 200 0 0 1-14.37-12.66v3.39c4.26-4.83 8.44-9.73 12.95-14.33h-3.4c4.98 4.09 9.76 8.42 14.5 12.78 2.27 2.08 5.68-1.3 3.4-3.4" class="b"/><path d="M21.2 104.43c8.15 5.03 12.83 7.9 21.32 9.9 1.11.27 8.27 6.7 9.19 7.78l1.08 1.26a434 434 0 0 1 20.16-23.05q-1.59-1.73-3.12-3.5c-.6-3.83-1.91-8.91-2.8-12.66-1.2-5.05-2.44-10.18-5.1-14.64-1.94-3.29-4.76-6.45-8.55-5.91a3.4 3.4 0 0 0-1.77 1.09 3.7 3.7 0 0 0-.75 3.17c.83 3.66 1.4 5.56 2.3 8.9l-3.2-2.98c-5.07-4.7-15.42-13.28-20.49-17.98A15 15 0 0 0 25.3 53a5.7 5.7 0 0 0-5.13-.04 5.1 5.1 0 0 0-2.24 5.02 14 14 0 0 0 1.28 3.39l.48.76-3-2.71c-1.95-1.77-3.88-3.04-6.39-2.6a4.8 4.8 0 0 0-3.8 4.96c.17 2.25 1.55 4.05 3.16 5.62l2.61 2.48a13 13 0 0 0-4.33-2.5A4.64 4.64 0 0 0 2.8 69.5a5.7 5.7 0 0 0 .37 5.13 19 19 0 0 0 3.4 4.26c1.78 1.71 4.05 3.76 6.51 5.87a12 12 0 0 0-5-1.45c-2.2-.09-3.64 1-4.05 2.27a5.6 5.6 0 0 0 .83 5.16 38 38 0 0 0 5.54 5.76 92 92 0 0 0 10.8 7.93" class="a"/><path d="M55.96 83.91a60 60 0 0 0-.2-6.44 59 59 0 0 0-1.56-6.04q-.4-1.53-.76-3.07c-.18-.77-.51-1.57.12-2.22.27-.29.22-.16.37-.18a3 3 0 0 1 1.07.08 5 5 0 0 1 2.06 1.13c3.35 2.9 4.98 7.67 6.17 11.8a232 232 0 0 1 4.13 17.57 4 4 0 0 0 .77 1.98c.5.62 1.06 1.2 1.59 1.8q3.04 3.4 6.28 6.64c2.18 2.19 5.58-1.2 3.4-3.4q-4.08-4.08-7.87-8.44l.61 1.06c-.7-4.42-1.86-8.75-2.9-13.1-1.13-4.73-2.36-9.5-4.68-13.8-1.98-3.68-5-7.53-9.42-8.06a5.8 5.8 0 0 0-5.72 2.44c-1.5 2.25-.96 4.57-.37 7 .55 2.25 1.18 4.46 1.78 6.69.57 2.13.24 4.37.33 6.56.13 3.07 4.93 3.09 4.8 0M22.4 102.35a87 87 0 0 1-13.35-10.4 14 14 0 0 1-2.35-2.77 3.7 3.7 0 0 1-.36-2.96c-.07.4.15-.13-.09.1.06-.05.53-.46.23-.25a1.6 1.6 0 0 1 .92-.35 8 8 0 0 1 3.96.85 2.4 2.4 0 0 0 2.95-1.67 2.46 2.46 0 0 0-1.68-2.95c-3.09-1.27-7.3-1.78-9.77.99-2.6 2.9-1.54 7.19.62 9.97a45 45 0 0 0 7.79 7.46c2.8 2.2 5.75 4.16 8.71 6.13a2.4 2.4 0 1 0 2.42-4.14Z" class="b"/><path d="M12.38 66.97c-2.77-2.06-6.37-2.98-9.46-1-3.52 2.26-3.6 6.9-1.61 10.23 1.75 2.93 4.36 5.2 6.88 7.46q3.89 3.48 7.95 6.77c2.97 2.42 6 4.79 9.15 7a2.4 2.4 0 0 0 3.28-.87 2.45 2.45 0 0 0-.86-3.28A178 178 0 0 1 11.18 79.9c-1.2-1.07-2.4-2.14-3.51-3.3-1.16-1.2-2.66-2.8-2.9-4.54a1.9 1.9 0 0 1 1.64-2.4c1.2-.22 2.54.71 3.55 1.46a2.4 2.4 0 0 0 3.28-.86 2.46 2.46 0 0 0-.86-3.29" class="b"/><path d="M38.62 75.68Q31.9 69.84 25.26 63.9q-3.29-2.93-6.55-5.89c-2-1.8-4.13-3.43-6.9-3.67a7.2 7.2 0 0 0-6.6 3.3 7.7 7.7 0 0 0-.2 7.57c1.05 2.23 2.97 3.92 4.73 5.58q2.73 2.57 5.53 5.05 6.53 5.81 13.32 11.32a2.47 2.47 0 0 0 3.39 0 2.4 2.4 0 0 0 0-3.4 317 317 0 0 1-20.13-17.6c-1.28-1.23-2.83-2.67-2.97-4.56a2.37 2.37 0 0 1 2.56-2.48c1.9.14 3.4 1.85 4.72 3.05q2.84 2.57 5.7 5.13 6.64 5.93 13.37 11.77c2.32 2.02 5.73-1.36 3.4-3.4Z" class="b"/><path d="M51.65 72.1c-4.83-4.47-9.9-8.67-14.86-12.98-2.44-2.11-4.75-4.46-7.31-6.4-3.15-2.4-7.8-4.08-11.26-1.3a7.7 7.7 0 0 0-2.77 5.48 11 11 0 0 0 1.68 5.67c1.55 2.68 5.7.26 4.15-2.42-.7-1.22-1.38-2.76-.79-4.06.64-1.39 2.04-1.56 3.4-1.08 3.13 1.1 5.61 4.1 8.05 6.24 5.43 4.75 11.02 9.34 16.32 14.24 2.26 2.1 5.66-1.29 3.39-3.4ZM38.8 75.52C33 81.07 28.57 87.8 24.2 94.48a2.4 2.4 0 0 0 4.14 2.42c4.15-6.34 8.35-12.7 13.85-17.99 2.23-2.14-1.16-5.53-3.4-3.4Z" class="b"/><path d="M456.94 104.43c-8.16 5.03-12.83 7.9-21.32 9.9-1.11.27-8.28 6.7-9.2 7.78l-1.07 1.26a434 434 0 0 0-20.16-23.05q1.59-1.73 3.12-3.5c.6-3.83 1.91-8.91 2.8-12.66 1.2-5.05 2.44-10.18 5.09-14.64 1.95-3.29 4.77-6.45 8.55-5.91a3.4 3.4 0 0 1 1.77 1.09 3.7 3.7 0 0 1 .75 3.17c-.82 3.66-1.38 5.56-2.29 8.9l3.2-2.98c5.07-4.7 15.42-13.28 20.49-17.98a15 15 0 0 1 4.17-2.82 5.7 5.7 0 0 1 5.13-.04 5.1 5.1 0 0 1 2.24 5.02 14 14 0 0 1-1.28 3.39l-.48.76 3-2.71c1.95-1.77 3.88-3.04 6.39-2.6a4.8 4.8 0 0 1 3.8 4.96c-.18 2.25-1.55 4.05-3.17 5.62q-1.21 1.17-2.6 2.48a13 13 0 0 1 4.32-2.5 4.64 4.64 0 0 1 5.14 2.13 5.7 5.7 0 0 1-.37 5.13 19 19 0 0 1-3.4 4.26 163 163 0 0 1-6.51 5.87 12 12 0 0 1 5-1.45c2.2-.1 3.64 1 4.05 2.27a5.6 5.6 0 0 1-.82 5.16 38 38 0 0 1-5.55 5.76 92 92 0 0 1-10.8 7.93" class="a"/><path d="M426.98 83.91a47 47 0 0 1 .11-5.66c.34-2.04 1.1-4.07 1.62-6.07.54-2.1 1.46-4.54.85-6.7a5.8 5.8 0 0 0-4.98-4.29c-4.45-.42-7.87 3.03-10.06 6.5-2.63 4.14-4.04 8.94-5.2 13.67-1.2 4.9-2.53 9.83-3.32 14.83l.61-1.06q-3.78 4.36-7.86 8.44c-2.19 2.2 1.2 5.59 3.4 3.4q2.88-2.9 5.63-5.93a20 20 0 0 0 2.6-3 12 12 0 0 0 .77-3.44 261 261 0 0 1 3.24-13.7c1.13-4.34 2.54-9.1 5.55-12.56 1.02-1.17 2.42-2.5 4.1-2.39.37.03.72.14.9.8.22.87-.36 2.18-.57 3.04-.58 2.35-1.37 4.67-1.87 7.03-.5 2.34-.21 4.73-.31 7.1-.13 3.09 4.67 3.08 4.8 0Zm31.17 22.59c2.9-1.94 5.81-3.87 8.57-6.02a45 45 0 0 0 7.94-7.57c2.13-2.76 3.19-6.97.68-9.89-2.46-2.85-6.71-2.36-9.84-1.07a2.5 2.5 0 0 0-1.68 2.95 2.4 2.4 0 0 0 2.95 1.67 8 8 0 0 1 3.96-.85 1.7 1.7 0 0 1 .92.35c-.29-.2.21.24.23.26-.27-.27.02.34-.09-.11a3.5 3.5 0 0 1-.27 2.79 14 14 0 0 1-2.44 2.93 87 87 0 0 1-13.35 10.41 2.46 2.46 0 0 0-.86 3.29 2.4 2.4 0 0 0 3.28.86" class="b"/><path d="M468.18 71.11c1-.74 2.36-1.67 3.55-1.46a1.9 1.9 0 0 1 1.63 2.4c-.22 1.75-1.72 3.34-2.89 4.55-1.11 1.15-2.32 2.22-3.5 3.3a178 178 0 0 1-16.54 13.38 2.46 2.46 0 0 0-.86 3.28 2.4 2.4 0 0 0 3.28.87A189 189 0 0 0 469 84.52a46 46 0 0 0 7.03-7.1c2.2-3.02 3.33-7.66.3-10.59-3.06-2.97-7.4-2.2-10.56.14a2.5 2.5 0 0 0-.86 3.29 2.4 2.4 0 0 0 3.28.86Z" class="b"/><path d="M442.91 79.07q5.92-5.14 11.78-10.36 2.89-2.57 5.76-5.16c1.55-1.4 3.16-3.35 5.13-4.16a2.56 2.56 0 0 1 3.56 1.3c.6 1.6-.76 3.34-1.8 4.43-2.92 3.1-6.24 5.9-9.43 8.7q-5.78 5.09-11.75 9.94a2.4 2.4 0 0 0 0 3.4 2.46 2.46 0 0 0 3.4 0q5.98-4.84 11.74-9.93 2.9-2.55 5.73-5.17a39 39 0 0 0 5.1-5.22 8.6 8.6 0 0 0 1.64-7.4 7.2 7.2 0 0 0-5.29-4.95 9 9 0 0 0-7.48 2.18c-2.22 1.75-4.25 3.77-6.36 5.66q-7.5 6.73-15.12 13.35c-2.33 2.03 1.07 5.41 3.4 3.4Z" class="b"/><path d="M429.89 75.49c5.3-4.9 10.88-9.49 16.3-14.24 2.43-2.13 4.88-5.08 7.96-6.21 1.38-.51 2.85-.38 3.5 1.05.6 1.3-.08 2.84-.78 4.06-1.55 2.68 2.6 5.1 4.14 2.42 1.85-3.2 2.4-6.97.02-10.04-2.82-3.61-7.65-2.85-11.12-.69-2.74 1.72-5.06 4.23-7.49 6.35q-3.97 3.45-7.96 6.88c-2.68 2.3-5.37 4.62-7.96 7.03-2.28 2.1 1.12 5.49 3.39 3.39m6.05 3.42c5.5 5.28 9.7 11.65 13.86 18a2.45 2.45 0 0 0 3.28.85 2.43 2.43 0 0 0 .86-3.28c-4.37-6.67-8.82-13.41-14.6-18.96-2.24-2.14-5.63 1.25-3.4 3.4" class="b"/><path d="M170.65 313.75c0-23.22.2-58.8-.03-64.58-.2-5.06-.8-11.72-4.53-16.25a151 151 0 0 0-11.96-12.81c-28.66-24.47-89.83-77.14-103.46-94.13a432 432 0 0 1 24.67-28.16 1 1 0 0 1 1.32-.1c17.89 13.51 75.62 58.97 89.55 67.46 4.76 2.91 21.19 8.91 25.28 10.03l4.47 1.21 7.9 3.08c5.15 9 19.86 18.08 35.03 18.21 18.15.16 30.73-10.96 35.7-17.67l.35-.45.64-1.36c2.84-.79 7.89-2.16 11.07-3.02 4.1-1.12 20.52-7.12 25.28-10.03 13.93-8.5 71.66-53.95 89.55-67.47a1 1 0 0 1 1.32.1 432 432 0 0 1 24.67 28.17c-13.63 16.99-74.8 69.66-103.46 94.13a151 151 0 0 0-11.96 12.81c-3.74 4.53-4.33 11.2-4.53 16.25-.23 5.77-.03 41.36-.03 64.58Z" class="a"/><path d="M455.73 102.35c-3.45 2.13-6.9 4.3-10.54 6.1a43 43 0 0 1-4.8 2.01c-1.78.63-3.65.97-5.44 1.57-2.08.7-3.87 2.6-5.49 4.01a48 48 0 0 0-4.73 4.37c-2.04 2.31 1.35 5.72 3.4 3.4a47 47 0 0 1 4.51-4.2q.83-.71 1.67-1.4l.59-.5c.07-.04.8-.62.4-.32.33-.25.69-.46 1-.71.44-.34.29.1-.1-.01.24.07.85-.2 1.1-.27 7.62-1.94 14.22-5.8 20.85-9.9 2.62-1.63.21-5.78-2.42-4.15" class="b"/><path d="m285.02 103-.4.35s3.6-35.64-45.73-35.64-45.07 35.64-45.07 35.64a7 7 0 0 0-5.13-1.88 6.6 6.6 0 0 0-5.92 3.29c-2 3.49-1.92 9.91-.57 13.89.95 2.81 2.52 7.12 6.3 10.2a7.7 7.7 0 0 0 6.52 1.64 54 54 0 0 0 10.24 19.32c5.08 6.08 10.47 10.29 16.68 12.4a60 60 0 0 1-2.24 8.48c-1.94 4.11-7.91 7.42-15.88 8.74 5.1 9.02 19.86 18.15 35.07 18.28 18.15.16 30.72-10.96 35.7-17.67l.46-.6c-8-1.31-14-4.63-15.96-8.75-.66-1.4-1.37-5.1-2.16-8.58 12.38-3.9 22.63-21.36 24.33-25.98a46 46 0 0 0 2.08-5.63l.57.1a7.8 7.8 0 0 0 6.04-1.75c3.77-3.08 5.33-7.39 6.3-10.2 1.34-3.98 1.42-10.4-.59-13.89a6.6 6.6 0 0 0-5.91-3.29 7.2 7.2 0 0 0-4.73 1.53" class="a"/><path d="M232.2 31.38a61 61 0 0 1 6.9-.4 53.8 53.8 0 0 1 32.64 10.54c10.46 7.54 21.28 20.88 22.2 42.36a58 58 0 0 1-2.17 17.89 9 9 0 0 0-2.02-.3 7 7 0 0 0-5.13 1.88l-7.2-5.7c-2.32-5.86-7.57-12.32-13.05-17.03a29 29 0 0 0-8.3-5.23s-4.57-.82-8.93-1.15l-.1.04c-6.08 2.57-14.66 7.95-19.48 10.62a1.65 1.65 0 0 1-2.34-1.77 9 9 0 0 0-.21-3.16c-.32-1.32-1.34-1.88-2.13-1.47-6.74 3.54-16.35 12.69-21.8 18.75l-7.25 6.1a7 7 0 0 0-5.14-1.88 9 9 0 0 0-2.2.35 60 60 0 0 1-2.23-17.95 54.4 54.4 0 0 1 22.46-42.55 52 52 0 0 1 25.48-9.94" style="fill:#85807f"/><path d="M195.52 101.66a10.1 10.1 0 0 0-11.15-1.57 9.8 9.8 0 0 0-4.94 6.7c-1.66 6.6.03 14.19 3.82 19.78 2.79 4.1 6.77 7.03 11.91 6.34a2.4 2.4 0 0 0 1.68-2.95 2.46 2.46 0 0 0-2.95-1.68c-3.5.47-6.2-3.35-7.61-6a22 22 0 0 1-2.6-8.53c-.19-2.66 0-6.36 1.48-8.28-.17.22.33-.35.38-.4a2 2 0 0 1 .5-.42 5 5 0 0 1 1.74-.68 5 5 0 0 1 4.35 1.08c2.29 2.06 5.69-1.32 3.39-3.4Zm90.8 3.39a5.07 5.07 0 0 1 7.02.5c-.34-.42.12.19.17.28a7 7 0 0 1 .37.67 11 11 0 0 1 .65 2.23 19 19 0 0 1 .23 5.02 22 22 0 0 1-2.52 8.37c-1.4 2.7-4.14 6.64-7.69 6.16a2.5 2.5 0 0 0-2.95 1.68 2.4 2.4 0 0 0 1.68 2.95c8.35 1.12 13.2-7.02 15.37-13.92a24 24 0 0 0 .64-10.84 11 11 0 0 0-4.25-7.5 10 10 0 0 0-12.12 1c-2.3 2.07 1.1 5.46 3.4 3.4" class="b"/><path d="M281.88 126.53a57 57 0 0 1-3.09 9.36s.2-.44 0 0l-.28.59q-.3.68-.67 1.34a57 57 0 0 1-1.83 3.22 57 57 0 0 1-12.15 14.45 22.4 22.4 0 0 1-9.04 4.7c-3 .7-1.73 5.32 1.28 4.63 6.95-1.61 12.73-6.7 17.26-11.99a61 61 0 0 0 9.57-14.51l.41-.97a55 55 0 0 0 1.16-2.84 45 45 0 0 0 2-6.7 2.46 2.46 0 0 0-1.67-2.96 2.4 2.4 0 0 0-2.95 1.68m-90.08 1.11a57 57 0 0 0 8 18.85c4.12 6.2 9.52 11.99 16.07 15.63a32 32 0 0 0 10.8 3.7 2.5 2.5 0 0 0 2.96-1.68 2.4 2.4 0 0 0-1.68-2.95c-13.4-1.99-23.4-13.56-28.52-25.46a54 54 0 0 1-3-9.36c-.69-3.02-5.31-1.74-4.63 1.27m78.78-89.82a58.9 58.9 0 0 0-54.96-4.44 57.3 57.3 0 0 0-30.9 34.15 61 61 0 0 0-.78 34.11c.77 3 5.4 1.73 4.63-1.27a56 56 0 0 1-.13-28.48A51 51 0 0 1 198.7 52.1a51.3 51.3 0 0 1 41.96-18.7 52.5 52.5 0 0 1 27.5 8.56c2.6 1.68 5-2.47 2.42-4.15Zm23.69 63.83a66 66 0 0 0 2.1-14.12 63 63 0 0 0-1.28-14 55 55 0 0 0-9.28-21.34 57 57 0 0 0-7.67-8.58c-2.29-2.07-5.7 1.31-3.4 3.4 10.94 9.94 16.67 23.9 16.84 38.62a59 59 0 0 1-1.94 14.74c-.73 3 3.9 4.28 4.63 1.28m-39.42-24.18a37 37 0 0 1 11.7 8.53 40 40 0 0 1 8.55 12.28 2.5 2.5 0 0 0 2.95 1.68 2.4 2.4 0 0 0 1.68-2.95 46 46 0 0 0-9.51-14.12 40 40 0 0 0-12.95-9.57 2.5 2.5 0 0 0-3.28.86 2.4 2.4 0 0 0 .86 3.29" class="b"/><path d="M202.77 98.96c5.41-6.01 11.4-11.9 18.11-16.44q1.07-.72 2.18-1.37a3 3 0 0 0 .52-.3c.2-.18.17-.05.16-.12a7 7 0 0 1-1.01-.2c-.1.08.04.14.01.3a9 9 0 0 0 .13 1.23c0 .47-.08.94-.07 1.41a4.3 4.3 0 0 0 1.89 3.38c2.02 1.31 3.92.23 5.74-.82q2.54-1.46 5.06-2.94a117 117 0 0 1 12.76-6.74 2.4 2.4 0 0 0 .86-3.28 2.46 2.46 0 0 0-3.28-.86 108 108 0 0 0-11.42 5.95l-5.27 3.07-2.3 1.33-.49.27c.02-.26 1 .05 1.03.06.12.01.1.33.24.24.1-.06.05-.78.05-.88.04-2.23-.51-4.82-2.67-5.9-2.06-1.03-4 .38-5.7 1.47a80 80 0 0 0-10.1 7.93 132 132 0 0 0-9.82 9.8c-2.06 2.29 1.33 5.7 3.4 3.4Zm70.1 79.42-.46.61c-.4.53.3-.38-.13.16l-.68.84q-.93 1.1-1.93 2.13a46 46 0 0 1-4.52 4.07 43 43 0 0 1-12.43 6.84 42 42 0 0 1-34.41-3.46c-4.85-2.74-9.54-6.4-12.38-11.28-1.55-2.67-5.7-.25-4.14 2.43 2.85 4.9 7.32 8.78 12.08 11.79a49 49 0 0 0 18.47 7.03 46.2 46.2 0 0 0 34.28-8.48 50 50 0 0 0 10.4-10.26 2.4 2.4 0 0 0-.87-3.28 2.46 2.46 0 0 0-3.28.86" class="b"/><path d="M275.3 180.8c5.83-1.64 11.72-3.05 17.44-5.06a172 172 0 0 0 18.04-7.23 65 65 0 0 0 8.82-5.58q6.11-4.32 12.1-8.8c10.37-7.7 20.63-15.56 30.87-23.44 9.93-7.65 19.81-15.3 29.6-22.85l5.71-4.4 2.43-1.84a19 19 0 0 0 2.14-1.63c.04-.04.21-.12.24-.19l-1.25.08.33.34a13 13 0 0 0 1.3 1.37q1.4 1.47 2.77 2.96 2.6 2.8 5.15 5.67 5.14 5.77 10.07 11.72 2.38 2.86 4.72 5.76v-3.4A133 133 0 0 1 416 134.8c-4.9 4.9-9.95 9.68-15.03 14.4a1750 1750 0 0 1-38.19 34.25q-17.99 15.76-36.19 31.29a122 122 0 0 0-8.99 8.34q-2.94 3.08-5.71 6.3a25 25 0 0 0-4.25 6.23c-2.7 6.22-2.58 13.2-2.62 19.85-.1 17.28.04 34.56.06 51.83v6.45c0 3.09 4.8 3.1 4.8 0 0-17.79-.11-35.57-.08-53.35.01-5.45-.24-11.07.52-16.48a23 23 0 0 1 1.85-6.74 28 28 0 0 1 4.49-5.98 106 106 0 0 1 10.48-10.63q17.47-14.92 34.79-30a2012 2012 0 0 0 38.47-34.3c9.23-8.5 18.67-16.99 26.94-26.44q.94-1.05 1.81-2.15a2.5 2.5 0 0 0 0-3.4 449 449 0 0 0-20.25-23.5q-1.3-1.4-2.61-2.78c-.9-.95-1.82-2.25-3.1-2.68-1.68-.57-2.88.27-4.14 1.23q-2.47 1.87-4.92 3.75c-9.46 7.27-18.85 14.56-28.27 21.83a3000 3000 0 0 1-32 24.42c-7.38 5.54-14.74 11.27-22.56 16.19-4.68 2.93-9.98 4.72-15.13 6.65a199 199 0 0 1-17.45 5.47l-4.71 1.3c-2.97.84-1.7 5.47 1.28 4.63Zm-70.8.94c5.1-.87 10.34-2.6 14.29-6.05a12 12 0 0 0 3.48-4.99 62 62 0 0 0 1.99-7.85 2.45 2.45 0 0 0-1.68-2.95 2.43 2.43 0 0 0-2.95 1.68c-.56 2.5-1.05 5.03-1.86 7.46l-.2.56c-.17.51.24-.4-.02.04q-.32.57-.68 1.12c-.27.42.27-.28-.1.13l-.4.46a13 13 0 0 1-.98.95c-.06.05-.53.44-.35.3.15-.13-.41.3-.49.35q-.58.4-1.2.77a22 22 0 0 1-2.67 1.35 36 36 0 0 1-7.46 2.04 2.4 2.4 0 0 0-1.68 2.95 2.46 2.46 0 0 0 2.95 1.68Z" class="b"/><path d="M254.62 162.74a72 72 0 0 0 1.9 7.96 12 12 0 0 0 3.49 5c3.96 3.44 9.2 5.17 14.3 6.04a2.47 2.47 0 0 0 2.94-1.68 2.4 2.4 0 0 0-1.67-2.95 36 36 0 0 1-7.46-2.04q-.44-.19-1.13-.52-.79-.38-1.55-.83a20 20 0 0 1-1.75-1.17c.36.28-.22-.2-.29-.25a13 13 0 0 1-.98-.95l-.4-.45c-.42-.47.24.38-.1-.14l-.64-1.04c-.33-.56.09.34-.06-.12l-.2-.56c-.77-2.47-1.2-5.05-1.78-7.57a2.4 2.4 0 0 0-4.62 1.28ZM19.99 106.5c6.63 4.1 13.23 7.96 20.85 9.9.26.07.87.34 1.1.27-.39.11-.54-.33-.1.01l1 .71c-.4-.3.34.28.4.33l.6.49q.78.65 1.55 1.32a48 48 0 0 1 4.63 4.28c2.05 2.32 5.43-1.08 3.4-3.4a48 48 0 0 0-4.74-4.37c-1.62-1.4-3.41-3.3-5.49-4-1.78-.6-3.66-.95-5.44-1.57a43 43 0 0 1-4.8-2.02c-3.64-1.79-7.09-3.96-10.53-6.1-2.64-1.62-5.05 2.53-2.43 4.15" class="b"/><path d="M196.6 174.1a174 174 0 0 1-16.71-5.5c-4.66-1.78-9.36-3.48-13.6-6.2-7.6-4.87-14.8-10.43-22.02-15.84a2974 2974 0 0 1-30.76-23.47c-9.24-7.12-18.43-14.25-27.7-21.38q-2.55-1.97-5.12-3.93l-2.2-1.67a3.6 3.6 0 0 0-5.01.18c-3.62 3.42-6.9 7.33-10.2 11.05s-6.55 7.53-9.74 11.37q-2.3 2.77-4.56 5.57a2.5 2.5 0 0 0 0 3.4 134 134 0 0 0 9.76 10.53c4.84 4.84 9.8 9.54 14.81 14.2a1726 1726 0 0 0 37.9 34q17.9 15.69 36.01 31.15c2.96 2.53 5.88 5.03 8.6 7.82q2.93 3 5.7 6.15a26 26 0 0 1 4.28 5.83c2.65 5.6 2.24 12.39 2.27 18.45.1 17.17-.04 34.34-.06 51.5v6.45c0 3.09 4.8 3.1 4.8 0 0-17.87.12-35.75.08-53.62-.01-5.76.16-11.6-.66-17.3a28 28 0 0 0-2.05-7.38 26 26 0 0 0-4.44-6.37 104 104 0 0 0-10.86-11.29q-17.52-14.95-34.89-30.07a2014 2014 0 0 1-38.76-34.54c-9.35-8.59-18.92-17.19-27.29-26.75q-.92-1.05-1.81-2.16v3.4a452 452 0 0 1 19.12-22.27l2.6-2.8a26 26 0 0 0 2.62-2.75c-.02-.03-1.23-.16-1.2-.03.01.07.19.13.24.19l.45.34 1.14.86 4.82 3.7c9.06 6.95 17.84 13.77 26.95 20.8q15.17 11.7 30.45 23.28c7.54 5.67 15.06 11.41 22.91 16.64a66 66 0 0 0 11.86 5.92c5.21 2.12 10.52 4.2 15.92 5.8 1.68.5 3.38.92 5.07 1.38 2.98.81 4.26-3.82 1.28-4.63Zm41.84-53.37a42 42 0 0 1 .99 4.5l-.1-.64a3 3 0 0 1 .03.62l.08-.63-.07.27.25-.57-.1.18.37-.48-.15.14.49-.38-.36.2.58-.25a3 3 0 0 1-.6.18l.63-.09a2 2 0 0 1-.56 0l.64.09-.64-.11a2 2 0 0 0-.95-.05 2 2 0 0 0-.9.29 2.4 2.4 0 0 0-.86 3.28 2.3 2.3 0 0 0 1.44 1.1c.49.07.97.2 1.47.22a5 5 0 0 0 2.18-.52 3.2 3.2 0 0 0 1.74-2.08 5 5 0 0 0-.02-2.23 50 50 0 0 0-.95-4.31 2.4 2.4 0 0 0-2.95-1.68 2.44 2.44 0 0 0-1.68 2.95m-23.8-12.77c-.76 2.44-.27 8.06 4.36 8.54 6.12-.04 6.44-6.83 4.38-10.03-1.68-2.61-6.64-3.7-8.75 1.49m49.17 0c.75 2.44.26 8.06-4.37 8.54-6.12-.04-6.44-6.83-4.38-10.03 1.68-2.61 6.64-3.7 8.75 1.49m-27.57 35.56a18 18 0 0 1-2.59-3.53 10 10 0 0 1-.75-1.7 9 9 0 0 1-.29-1.1c-.11-.68.2-.88-.75.03-.9.86-.86.66-.25.66H248c.66 0 .76.22-.17-.68-.82-.81-.64-1-.8-.27l-.33 1.26a15.4 15.4 0 0 1-4.26 7.33 2.4 2.4 0 0 0 3.4 3.4 20 20 0 0 0 5.44-9.3c.6-2.03 1.28-4.61-.9-5.98-1.26-.8-2.93-.56-4.36-.56h-13.07c-1.55 0-3.14-.14-4.3 1.12-1.74 1.88-.64 4.99.26 7.02a21 21 0 0 0 3.93 5.7c2.09 2.28 5.48-1.13 3.39-3.4" class="b"/></svg>
