<svg fill="currentColor" viewBox="0 0 64 64" xmlns="http://www.w3.org/2000/svg" style="fill-rule:evenodd;clip-rule:evenodd;stroke-linejoin:round;stroke-miterlimit:2;"><rect id="Icons" x="-704" y="-128" width="1280" height="800" style="fill:none;"/><g id="Icons1" serif:id="Icons"><path id="hashtag" d="M34.06,42.597l-7.391,0l-2.508,13.529l-5.544,0l2.508,-13.529l-7.623,0l0,-5.214l8.613,0l1.914,-10.328l-8.019,0l0,-5.247l9.009,0l2.574,-13.727l5.51,0l-2.573,13.727l7.424,0l2.574,-13.727l5.511,0l-2.574,13.727l6.864,0l0,5.247l-7.854,0l-1.914,10.328l7.293,0l0,5.214l-8.283,0l-2.508,13.529l-5.51,0l2.507,-13.529Zm-6.401,-5.214l7.391,0l1.914,-10.328l-7.391,0l-1.914,10.328Z" style="fill-rule:nonzero;"/></g></svg>
