<svg xmlns="http://www.w3.org/2000/svg" fill="currentColor" viewBox="0 0 32 32"><path d="M6.33 18.45v8.59c0 .41.34.75.75.75h15.13c.41 0 .75-.34.75-.75v-8.6a5.13 5.13 0 0 0-3.53-9.62c-1.2-1.87-3.24-3.01-5.49-3.01S9.85 6.83 8.63 8.56a5.13 5.13 0 0 0-2.29 9.88Zm1.5 7.84v-1.87h13.63v1.87zm13.63-7.48v4.11H7.83v-4.11zM8.19 10.05q.27 0 .56.05h.02a3.65 3.65 0 0 1 2.97 3.57c0 .41.34.75.75.75s.75-.34.75-.75A5.1 5.1 0 0 0 10.2 9a5.02 5.02 0 0 1 8.24 1.09.8.8 0 0 0 .43.38q.3.1.57-.04.8-.4 1.65-.4a3.64 3.64 0 0 1 0 7.26H8.19a3.64 3.64 0 0 1 0-7.26Z"/></svg>
