<svg xmlns="http://www.w3.org/2000/svg" fill="none" viewBox="0 0 24 24"><path stroke="currentColor" stroke-linecap="round" stroke-width="1.5" d="M18 12h-.8c-.83 0-1.25 0-1.59.2-.34.19-.56.54-.98 1.26l-.03.05c-.4.66-.6 1-.89.99-.29 0-.48-.35-.85-1.02l-1.69-3.07c-.34-.63-.52-.95-.8-.96-.27-.02-.48.28-.9.87l-.27.4c-.44.63-.66.94-.99 1.11s-.7.17-1.47.17H6"/><path fill="currentColor" d="m8.96 18.91.47-.59zM12 5.51l-.54.51a.75.75 0 0 0 1.08 0zm3.04 13.4.46.59zM12 20.5v-.75zm-9.34-7.1a.75.75 0 0 0 1.27-.79zm3.87 2.38a.75.75 0 0 0-1.06 1.06zM2.75 9.14c0-2.8 1.26-4.54 2.83-5.14 1.58-.6 3.77-.17 5.88 2.02l1.08-1.04c-2.4-2.48-5.2-3.26-7.5-2.38S1.26 5.89 1.26 9.14zM15.5 19.5a30 30 0 0 0 4.7-4.52c1.41-1.74 2.55-3.77 2.55-5.84h-1.5c0 1.55-.87 3.24-2.21 4.9a29 29 0 0 1-4.47 4.28zm7.25-10.36c0-3.25-1.5-5.67-3.8-6.54s-5.1-.1-7.49 2.38l1.08 1.04c2.1-2.19 4.3-2.62 5.88-2.02 1.57.6 2.83 2.33 2.83 5.14zM8.5 19.5c1.27 1 2.15 1.74 3.5 1.74v-1.5c-.73 0-1.18-.32-2.57-1.42zm6.07-1.18c-1.39 1.1-1.84 1.42-2.57 1.42v1.5c1.35 0 2.23-.74 3.5-1.74zM3.93 12.6a7 7 0 0 1-1.18-3.46h-1.5c0 1.48.58 2.93 1.4 4.26zm5.5 5.72a32 32 0 0 1-2.9-2.55l-1.06 1.06A35 35 0 0 0 8.5 19.5z"/></svg>
