<svg xmlns="http://www.w3.org/2000/svg" fill="none" viewBox="0 0 24 24"><path stroke="currentColor" stroke-linecap="round" stroke-linejoin="round" stroke-miterlimit="10" stroke-width="1.5" d="M17.2 22a4.8 4.8 0 1 0 0-9.6 4.8 4.8 0 0 0 0 9.6m1.79-4.74h-3.58m1.79-1.75v3.59"/><path stroke="currentColor" stroke-linecap="round" stroke-linejoin="round" stroke-width="1.5" d="M22 8.69c0 1.97-.51 3.71-1.31 5.22a4.8 4.8 0 0 0-7.06 6.49q-.56.26-1.01.41c-.34.12-.9.12-1.24 0C8.48 19.82 2 15.69 2 8.69a5.55 5.55 0 0 1 10-3.36 5.55 5.55 0 0 1 10 3.36"/></svg>
