<svg xmlns="http://www.w3.org/2000/svg" fill="none" viewBox="0 0 24 24"><path fill="currentColor" d="m12 5.5-.54.52a.75.75 0 0 0 1.08 0zM8.96 18.91l-.46.59zM7 16.42a.75.75 0 0 0-.95 1.16zm-4.66-3a.75.75 0 1 0 1.32-.73zm15.83 6.75-.45-.6zm2.98-7.25.54-.52zm-4.65.24-.53.53c.3.29.76.29 1.06 0zm-1.67 7 .45-.6zm-2.98-7.24.55.52zm7.6 7.24a.75.75 0 0 0-.9-1.2zm1.4-3.52a.75.75 0 1 0 1.32.72zm.25-3.77-.53.53zM2.75 9.14a5.1 5.1 0 0 1 2.87-4.72c1.62-.73 3.78-.54 5.84 1.6l1.08-1.04C10.1 2.44 7.26 2.03 5 3.06a6.6 6.6 0 0 0-3.75 6.08zM8.5 19.5c.51.4 1.06.83 1.62 1.16a3.7 3.7 0 0 0 1.88.59v-1.5q-.45 0-1.13-.39a13 13 0 0 1-1.44-1.04zM22.75 9.14A6.6 6.6 0 0 0 19 3.06c-2.26-1.03-5.1-.62-7.54 1.92l1.08 1.04c2.06-2.14 4.22-2.33 5.84-1.6a5.1 5.1 0 0 1 2.87 4.72zM9.43 18.32c-.8-.63-1.6-1.22-2.43-1.9l-.95 1.16c.83.68 1.7 1.33 2.45 1.92zM3.66 12.7a7 7 0 0 1-.91-3.55h-1.5c0 1.63.42 3.04 1.1 4.27zm14.06 6.88q-.43.33-.76.52-.33.17-.46.16v1.5c.46 0 .86-.17 1.2-.35.32-.18.64-.42.92-.63zm5.03-4.51c0-1.03-.4-1.97-1.06-2.66l-1.09 1.04c.4.41.65.98.65 1.62zm-8.37 5.7q.43.35.93.64c.5.29.73.35 1.19.35v-1.5q-.14.01-.46-.16a7 7 0 0 1-.76-.52zm-2.63-5.7c0-.64.25-1.2.65-1.62l-1.1-1.05a3.8 3.8 0 0 0-1.06 2.66zm.65-1.62c.4-.43.96-.69 1.56-.69s1.3.24 2.01.94l1.06-1.07a4.4 4.4 0 0 0-3.08-1.37c-1.03 0-1.97.45-2.64 1.15zm6.22 7.33.83-.6-.9-1.21-.83.6zm3.55-3.41q.56-1 .58-2.3h-1.5q-.01.9-.4 1.58zm-6.9 2.2-.73-.54-.89 1.21.73.54zm-.73-.54c-1.51-1.11-2.79-2.2-2.79-3.96h-1.5c0 2.6 1.95 4.1 3.4 5.17zm-.88 0c-.7.49-1.22.73-1.66.73v1.5c.95 0 1.8-.5 2.53-1.01zm8.03-6.62-.06-.06-1.06 1.06.03.04zm-.06-.06a3.7 3.7 0 0 0-2.63-1.1c-1.03 0-2.09.45-3.03 1.37l1.06 1.07c.7-.69 1.4-.94 1.98-.94.6 0 1.15.24 1.56.65zm.13.87c.61-1.18.99-2.52.99-4.07h-1.5c0 1.29-.31 2.4-.82 3.38z"/></svg>
