<svg xmlns="http://www.w3.org/2000/svg" fill="none" viewBox="0 0 24 24"><path stroke="currentColor" stroke-linecap="round" stroke-linejoin="round" stroke-miterlimit="10" stroke-width="1.5" d="M22 17.2a4.8 4.8 0 1 1-1.31-3.29v.01A4.8 4.8 0 0 1 22 17.2m-3.52 1.34L15.95 16m2.5.03-2.53 2.54"/><path stroke="currentColor" stroke-linecap="round" stroke-linejoin="round" stroke-width="1.5" d="M22 8.69c0 1.97-.51 3.71-1.31 5.22a4.8 4.8 0 0 0-7.06 6.49q-.56.26-1.01.41c-.34.12-.9.12-1.24 0C8.48 19.82 2 15.69 2 8.69a5.55 5.55 0 0 1 10-3.36 5.55 5.55 0 0 1 10 3.36"/></svg>
