<svg viewBox="0 0 1024 1024" xmlns="http://www.w3.org/2000/svg"><path d="M938.666667 149.333333L654.762667 197.098667 362.666667 149.333333a42.666667 42.666667 0 0 0 0 85.333334h576a42.666667 42.666667 0 0 0 0-85.333334z" fill="#42A5F5" /><path d="M618.666667 202.666667h64V384h-64z" fill="#455A64" /><path d="M650.666667 202.666667m-32 0a32 32 0 1 0 64 0 32 32 0 1 0-64 0Z" fill="#455A64" /><path d="M149.333333 384m-106.666666 0a106.666667 106.666667 0 1 0 213.333333 0 106.666667 106.666667 0 1 0-213.333333 0Z" fill="#42A5F5" /><path d="M149.333333 384l-33.578666-100.757333C126.357333 279.701333 137.514667 277.333333 149.333333 277.333333s22.976 2.368 33.578667 5.909334L149.333333 384zM149.333333 490.666667a105.450667 105.450667 0 0 1-33.578666-5.909334L149.333333 384l33.578667 100.757333A105.450667 105.450667 0 0 1 149.333333 490.666667z" fill="#1976D2" /><path d="M810.666667 661.333333v149.333334M640 640v170.666667M960 768c0 64-64 64-64 64H469.333333" fill="none" /><path d="M746.666667 341.333333c-128-21.333333-234.666667 21.333333-234.666667 21.333334l35.562667 106.666666H448l28.010667 83.328C533.333333 704 725.333333 704 725.333333 704h128c70.677333 0 128-42.666667 128-106.666667 0-149.333333-147.925333-241.536-234.666666-256z" fill="#FFC107" /><path d="M448 469.333333L149.333333 405.333333v-42.666666h362.666667l42.666667 106.666666z" fill="#FFC107" /><path d="M149.333333 384m-21.333333 0a21.333333 21.333333 0 1 0 42.666667 0 21.333333 21.333333 0 1 0-42.666667 0Z" fill="#FFC107" /><path d="M763.541333 344.938667C851.264 367.509333 981.333333 457.301333 981.333333 597.333333a97.493333 97.493333 0 0 1-7.509333 37.717334L853.333333 614.314667l-89.792-269.376zM734.570667 392.96l-5.184-13.312a483.050667 483.050667 0 0 0-43.690667-2.112c-23.061333 0-44.906667 1.557333-64.896 3.776L661.333333 512l119.552 19.925333-46.314666-138.965333z" fill="#455A64" /></svg>
