<svg xmlns="http://www.w3.org/2000/svg" fill="none" viewBox="0 0 24 24"><path stroke="currentColor" stroke-linejoin="round" stroke-width="2" d="M2.46 12.8c-.17-.3-.25-.44-.28-.6a1 1 0 0 1 0-.4c.03-.16.11-.3.28-.6l4.08-7.06c.17-.3.25-.44.37-.54a1 1 0 0 1 .36-.21c.15-.05.32-.05.65-.05h8.16c.33 0 .5 0 .65.05a1 1 0 0 1 .36.2c.12.11.2.26.37.55l4.08 7.06c.17.3.25.44.28.6a1 1 0 0 1 0 .4c-.03.16-.11.3-.28.6l-4.08 7.06c-.17.3-.25.44-.37.54a1 1 0 0 1-.36.21c-.15.05-.32.05-.65.05H7.92c-.33 0-.5 0-.65-.05a1 1 0 0 1-.36-.2c-.12-.11-.2-.26-.37-.55z"/></svg>
