<svg xmlns="http://www.w3.org/2000/svg" fill="none" viewBox="0 0 24 24"><path fill="currentColor" fill-rule="evenodd" d="M3.61 4.21A1 1 0 0 0 2.4 5.8l2.27 1.77q-1.32 1.5-2.24 3.34l-.02.04q-.17.27-.27.7c-.04.23-.04.5 0 .72.06.29.18.52.27.7l.02.04C4.36 16.96 7.72 20 12 20a9.3 9.3 0 0 0 5.87-2.16l2.52 1.95a1 1 0 1 0 1.22-1.58zm12.63 12.36-1.8-1.4a4 4 0 0 1-6.12-4.76L6.25 8.8A13 13 0 0 0 4.1 12l.04.07.06.13C5.96 15.7 8.77 18 12 18a7.2 7.2 0 0 0 4.24-1.43m-6.22-4.84L10 12a2 2 0 0 0 2.75 1.85z" clip-rule="evenodd"/><path fill="currentColor" d="M10.95 8.14 16 12.07V12a4 4 0 0 0-5.05-3.86"/><path fill="currentColor" d="M19.8 12.2a14 14 0 0 1-1.16 1.92l1.58 1.23q.76-1.06 1.36-2.25l.02-.04q.17-.27.27-.7a2 2 0 0 0-.27-1.42l-.02-.04C19.64 7.04 16.28 4 12 4a9 9 0 0 0-4.67 1.32l1.73 1.35A7 7 0 0 1 12 6c3.23 0 6.04 2.31 7.8 5.8l.06.13.04.07-.04.07z"/></svg>
