<svg xmlns="http://www.w3.org/2000/svg" fill="none" viewBox="0 0 24 24"><path stroke="currentColor" stroke-width="1.5" fill="none" d="M2 12c0-4.71 0-7.07 1.46-8.54C4.93 2 7.3 2 12 2s7.07 0 8.54 1.46C22 4.93 22 7.3 22 12s0 7.07-1.46 8.54C19.07 22 16.7 22 12 22s-7.07 0-8.54-1.46C2 19.07 2 16.7 2 12Z"/><path fill="currentColor" d="M6.25 8a.75.75 0 0 0-1.5 0zm-1.5 8a.75.75 0 0 0 1.5 0zm6.31-8a.75.75 0 0 0-1.5 0zm-1.5 8a.75.75 0 0 0 1.5 0zm3.91-.8V8.8h-1.5v6.4zm.22.05a.3.3 0 0 1-.2-.06c-.04-.03-.02-.03-.02.01h-1.5c0 .98.9 1.55 1.72 1.55zm0 1.5c2.93 0 5.56-2 5.56-4.75h-1.5c0 1.67-1.68 3.25-4.06 3.25zm0-8c2.38 0 4.06 1.58 4.06 3.25h1.5c0-2.75-2.63-4.75-5.56-4.75zm0-1.5c-.81 0-1.72.57-1.72 1.55h1.5q-.02.06.01.01.05-.05.2-.06zM4.75 8v4h1.5V8zm0 4v4h1.5v-4zm4.81-4v4h1.5V8zm0 4v4h1.5v-4zm-4.06.75h4.81v-1.5H5.5z"/></svg>
