<svg xmlns="http://www.w3.org/2000/svg" viewBox="-29.71 0 340.72 340.72"><defs><style>.a{fill:#fff}.b{fill:#95cbeb}.c{fill:#211715}.d{fill:#957f6e}.e{fill:#74c66d}</style></defs><path d="M224.3 29.41V2.48h-.48c-59.36 0-113.73-.08-166.64-.08h-.84c-.01 15.92.09 312.06.09 335.92h167.8z" class="a"/><path d="M70.8 16.76h-.47v269.56h140l.01-269.56z" class="b"/><path d="M169.52 16.76v269.56h-12V16.76Zm-46.39 0v269.56h-12V16.76Z" class="a"/><path d="M167.12 16.76v269.56l2.4-2.4h-12l2.4 2.4V16.76l-2.4 2.4h12c3.1 0 3.1-4.8 0-4.8h-12a2.44 2.44 0 0 0-2.4 2.4v269.56a2.44 2.44 0 0 0 2.4 2.4h12a2.44 2.44 0 0 0 2.4-2.4V16.76c0-3.09-4.8-3.1-4.8 0m-46.39 0v269.56l2.4-2.4h-12l2.4 2.4V16.76l-2.4 2.4h12c3.1 0 3.1-4.8 0-4.8h-12a2.44 2.44 0 0 0-2.4 2.4v269.56a2.44 2.44 0 0 0 2.4 2.4h12a2.44 2.44 0 0 0 2.4-2.4V16.76c0-3.09-4.8-3.1-4.8 0M67.93 3.15v283.17c0 3.09 4.8 3.09 4.8 0V3.15c0-3.1-4.8-3.1-4.8 0m154-.75v11.82l-.01 24.94-.01 34.97-.01 41.85-.02 45.6-.01 46.4-.01 43.7-.02 38.03v48.61c0 3.09 4.8 3.1 4.8 0v-40.63l.01-36.2.02-42.61.01-45.9.01-46.21.02-43.05V46.81l.02-27.66V2.4c0-3.09-4.8-3.1-4.8 0" class="c"/><path d="M57.17 4.8q31.46 0 62.91.03l65.27.04 38.47.01c3.1 0 3.1-4.8 0-4.8q-33.75 0-67.51-.03L92.33.01 57.17 0c-3.09 0-3.09 4.8 0 4.8" class="c"/><path d="M53.93 2.32v36.97l.01 34.93.02 41.76.01 45.31.02 46.29.01 43.47.01 38.08.01 29.4v19.79c0 3.09 4.8 3.1 4.8 0v-41.13l-.02-36.25-.01-42.57-.02-45.62-.01-46.1-.02-42.78V47l-.01-27.7V2.32c0-3.09-4.8-3.1-4.8 0m155.76 12.04H70.86c-3.09 0-3.1 4.8 0 4.8h138.83c3.09 0 3.1-4.8 0-4.8" class="c"/><path d="M207.93 3.47v282.42c0 3.09 4.8 3.1 4.8 0V3.47c0-3.09-4.8-3.1-4.8 0" class="c"/><path d="M70.33 37.26h140v8h-140Zm0 24.5h140v8h-140Zm0 24.52h140v8h-140Zm0 24.5h140v8h-140Zm0 24.5h140v8h-140Zm0 24.51h140v8h-140Zm0 24.51h140v8h-140Zm0 24.5h140v8h-140Zm0 24.5h140v8h-140Zm0 24.51h140v8h-140Z" class="a"/><path d="M210.33 335.47v-34.6h-140v37.45h140z" class="b"/><path d="M57.01 303.28h166.72c3.09 0 3.1-4.8 0-4.8H57.01c-3.09 0-3.1 4.8 0 4.8m0-14.56h166.73c3.09 0 3.1-4.8 0-4.8H57.01c-3.09 0-3.1 4.8 0 4.8" class="c"/><path d="M207.93 303.15v34c0 3.09 4.8 3.1 4.8 0v-34c0-3.1-4.8-3.1-4.8 0m-46.77 6v22c0 3.09 4.8 3.1 4.8 0v-22c0-3.1-4.8-3.1-4.8 0m-46.45 0v22c0 3.09 4.8 3.1 4.8 0v-22c0-3.1-4.8-3.1-4.8 0m-46.78-6v34c0 3.09 4.8 3.1 4.8 0v-34c0-3.1-4.8-3.1-4.8 0m2.4-263.49h140l-2.4-2.4v8l2.4-2.4h-140l2.4 2.4v-8c0-3.08-4.8-3.09-4.8 0v8a2.44 2.44 0 0 0 2.4 2.4h140a2.43 2.43 0 0 0 2.4-2.4v-8a2.44 2.44 0 0 0-2.4-2.4h-140c-3.09 0-3.1 4.8 0 4.8m0 24.5h140l-2.4-2.4v8l2.4-2.4h-140l2.4 2.4v-8c0-3.08-4.8-3.08-4.8 0v8a2.44 2.44 0 0 0 2.4 2.4h140a2.43 2.43 0 0 0 2.4-2.4v-8a2.44 2.44 0 0 0-2.4-2.4h-140c-3.09 0-3.1 4.8 0 4.8m0 24.52h140l-2.4-2.4v8l2.4-2.4h-140l2.4 2.4v-8c0-3.1-4.8-3.1-4.8 0v8a2.44 2.44 0 0 0 2.4 2.4h140a2.44 2.44 0 0 0 2.4-2.4v-8a2.43 2.43 0 0 0-2.4-2.4h-140c-3.09 0-3.1 4.8 0 4.8m0 24.5h140l-2.4-2.4v8l2.4-2.4h-140l2.4 2.4v-8c0-3.09-4.8-3.1-4.8 0v8a2.44 2.44 0 0 0 2.4 2.4h140a2.44 2.44 0 0 0 2.4-2.4v-8a2.44 2.44 0 0 0-2.4-2.4h-140c-3.09 0-3.1 4.8 0 4.8m0 24.5h140l-2.4-2.4v8l2.4-2.4h-140l2.4 2.4v-8c0-3.08-4.8-3.09-4.8 0v8a2.44 2.44 0 0 0 2.4 2.4h140a2.43 2.43 0 0 0 2.4-2.4v-8a2.44 2.44 0 0 0-2.4-2.4h-140c-3.09 0-3.1 4.8 0 4.8m0 24.51h140l-2.4-2.4v8l2.4-2.4h-140l2.4 2.4v-8c0-3.09-4.8-3.1-4.8 0v8a2.44 2.44 0 0 0 2.4 2.4h140a2.43 2.43 0 0 0 2.4-2.4v-8a2.44 2.44 0 0 0-2.4-2.4h-140c-3.09 0-3.1 4.8 0 4.8m0 24.51h140l-2.4-2.4v8l2.4-2.4h-140l2.4 2.4v-8c0-3.09-4.8-3.1-4.8 0v8a2.44 2.44 0 0 0 2.4 2.4h140a2.44 2.44 0 0 0 2.4-2.4v-8a2.43 2.43 0 0 0-2.4-2.4h-140c-3.09 0-3.1 4.8 0 4.8m0 24.5h140l-2.4-2.4v8l2.4-2.4h-140l2.4 2.4v-8c0-3.09-4.8-3.1-4.8 0v8a2.44 2.44 0 0 0 2.4 2.4h140a2.44 2.44 0 0 0 2.4-2.4v-8a2.44 2.44 0 0 0-2.4-2.4h-140c-3.09 0-3.1 4.8 0 4.8m0 24.5h140l-2.4-2.4v8l2.4-2.4h-140l2.4 2.4v-8c0-3.08-4.8-3.09-4.8 0v8a2.44 2.44 0 0 0 2.4 2.4h140a2.43 2.43 0 0 0 2.4-2.4v-8a2.44 2.44 0 0 0-2.4-2.4h-140c-3.09 0-3.1 4.8 0 4.8m0 24.51h140l-2.4-2.4v8l2.4-2.4h-140l2.4 2.4v-8c0-3.09-4.8-3.1-4.8 0v8a2.44 2.44 0 0 0 2.4 2.4h140a2.43 2.43 0 0 0 2.4-2.4v-8a2.44 2.44 0 0 0-2.4-2.4h-140c-3.09 0-3.1 4.8 0 4.8" class="c"/><path d="M244.13 337.15v-11.63h10.29v11.63" class="d"/><path d="M252.47 289.49a4.8 4.8 0 0 0-5.9 0 29 29 0 0 0-9.15 12.24 24 24 0 0 0-1.34 4.5 38 38 0 0 0-.46 4.45c-.17 2.63-.32 5.35.63 7.81a9.5 9.5 0 0 0 4.5 4.96c2.03 1.04 6.5 1.6 8.78 1.6 1.71 0 6.75-.56 8.78-1.6a9.5 9.5 0 0 0 4.5-4.96c.95-2.46.8-5.18.63-7.8a38 38 0 0 0-.46-4.46 24 24 0 0 0-1.35-4.5 29 29 0 0 0-9.16-12.24" class="e"/><path d="M253.69 287.42a7.3 7.3 0 0 0-5.71-1.17c-1.97.4-3.53 1.8-4.96 3.11a31 31 0 0 0-6.84 9.3 32 32 0 0 0-2.99 12.47c-.25 4.2.07 8.33 2.9 11.67 2.33 2.73 5.58 3.78 9.02 4.26a30 30 0 0 0 8.82-.03c3.32-.48 6.44-1.38 8.77-3.95 2.93-3.22 3.42-7.33 3.18-11.51a39 39 0 0 0-.85-7.13 30 30 0 0 0-2.52-6.51 31 31 0 0 0-8.34-10.14 2.5 2.5 0 0 0-3.4 0 2.4 2.4 0 0 0 0 3.4c5 3.9 8.99 9.76 9.96 16.12a46 46 0 0 1 .4 5.14 14 14 0 0 1-.5 5 7 7 0 0 1-2.14 3.04 6 6 0 0 1-2.89 1.36 25 25 0 0 1-6.6.8 21 21 0 0 1-6.82-1.15 7.5 7.5 0 0 1-4.27-6.84 31 31 0 0 1 1.04-10.07 27 27 0 0 1 4.94-9.18 26 26 0 0 1 3.74-3.72 2.7 2.7 0 0 1 3.63-.13 2.4 2.4 0 0 0 3.28-.86 2.45 2.45 0 0 0-.85-3.28" class="c"/><path d="M252.02 325.52v11.63a2.4 2.4 0 1 0 4.8 0v-11.63a2.4 2.4 0 1 0-4.8 0m-10.29 0v11.63a2.4 2.4 0 1 0 4.8 0v-11.63a2.4 2.4 0 1 0-4.8 0" class="c"/><path d="M26.36 337.15v-11.63h10.28v11.63" class="d"/><path d="M34.7 289.49a4.8 4.8 0 0 0-5.9 0 29 29 0 0 0-9.15 12.24 24 24 0 0 0-1.35 4.5 38 38 0 0 0-.46 4.45c-.16 2.63-.31 5.35.63 7.81a9.5 9.5 0 0 0 4.5 4.96c2.03 1.04 6.5 1.6 8.78 1.6 1.72 0 6.75-.56 8.78-1.6a9.5 9.5 0 0 0 4.5-4.96c.95-2.46.8-5.18.63-7.8a38 38 0 0 0-.46-4.46 24 24 0 0 0-1.34-4.5 29 29 0 0 0-9.16-12.24" class="e"/><path d="M35.9 287.42a7.3 7.3 0 0 0-5.7-1.17c-1.96.4-3.53 1.8-4.96 3.11a31 31 0 0 0-6.84 9.3 32 32 0 0 0-2.99 12.47c-.25 4.2.07 8.33 2.9 11.67 2.34 2.73 5.58 3.78 9.02 4.26a30 30 0 0 0 8.83-.03c3.31-.48 6.44-1.38 8.77-3.95 2.92-3.22 3.4-7.33 3.18-11.51a39 39 0 0 0-.85-7.13 30 30 0 0 0-2.53-6.51 31 31 0 0 0-8.34-10.14 2.5 2.5 0 0 0-3.4 0 2.4 2.4 0 0 0 0 3.4c5.01 3.9 8.99 9.76 9.96 16.12a46 46 0 0 1 .4 5.14 14 14 0 0 1-.49 5 7 7 0 0 1-2.14 3.04 6 6 0 0 1-2.89 1.36 25 25 0 0 1-6.6.8 21 21 0 0 1-6.82-1.15 7.5 7.5 0 0 1-4.27-6.84 31 31 0 0 1 1.04-10.07 27 27 0 0 1 8.68-12.9 2.7 2.7 0 0 1 3.63-.13 2.4 2.4 0 0 0 3.28-.86 2.45 2.45 0 0 0-.86-3.28" class="c"/><path d="M34.24 325.52v11.63a2.4 2.4 0 0 0 4.8 0v-11.63a2.4 2.4 0 1 0-4.8 0m-10.28 0v11.63a2.4 2.4 0 0 0 4.8 0v-11.63a2.4 2.4 0 0 0-4.8 0" class="c"/><path d="M278.98 335.92H2.32c-3.09 0-3.1 4.8 0 4.8h276.66c3.1 0 3.1-4.8 0-4.8" class="c"/></svg>
