<svg xmlns="http://www.w3.org/2000/svg" fill="none" viewBox="0 0 24 24"><path fill="currentColor" fill-rule="evenodd" d="M11.94 1.25h.12c2.3 0 4.11 0 5.53.19 1.44.2 2.58.6 3.48 1.5.9.89 1.3 2.03 1.49 3.47.19 1.42.19 3.22.19 5.53v.12c0 2.3 0 4.11-.19 5.53a5.7 5.7 0 0 1-1.5 3.48 5.7 5.7 0 0 1-3.47 1.49c-1.42.19-3.22.19-5.53.19h-.12c-2.3 0-4.11 0-5.53-.19a5.7 5.7 0 0 1-3.48-1.5 5.7 5.7 0 0 1-1.49-3.47c-.19-1.42-.19-3.22-.19-5.53v-.12c0-2.3 0-4.11.19-5.53a5.7 5.7 0 0 1 1.5-3.48A5.7 5.7 0 0 1 6.4 1.44c1.42-.19 3.22-.19 5.53-.19M6.61 2.93c-1.27.17-2.05.5-2.62 1.06-.56.57-.9 1.35-1.06 2.62-.18 1.3-.18 3.01-.18 5.39s0 4.09.18 5.39c.17 1.27.5 2.05 1.06 2.62.57.56 1.35.9 2.62 1.06 1.3.18 3.01.18 5.39.18s4.09 0 5.39-.18c1.27-.17 2.05-.5 2.62-1.06.56-.57.9-1.35 1.06-2.62.18-1.3.18-3.01.18-5.39s0-4.09-.18-5.39c-.17-1.27-.5-2.05-1.06-2.62-.57-.56-1.35-.9-2.62-1.06-1.3-.18-3.01-.18-5.39-.18s-4.09 0-5.39.18" clip-rule="evenodd"/><path fill="currentColor" fill-rule="evenodd" d="M5.5 7.25c.41 0 .75.34.75.75v3.25h3.31V8a.75.75 0 1 1 1.5 0v8a.75.75 0 0 1-1.5 0v-3.25H6.25V16a.75.75 0 0 1-1.5 0V8c0-.41.34-.75.75-.75m6.47 1.55c0-.98.9-1.55 1.72-1.55 2.93 0 5.56 2 5.56 4.75s-2.63 4.75-5.56 4.75c-.81 0-1.72-.57-1.72-1.55zm1.5.02q.05-.07.2-.07c2.39 0 4.07 1.58 4.07 3.25s-1.68 3.25-4.06 3.25a.3.3 0 0 1-.22-.07z" clip-rule="evenodd"/></svg>
