<svg xmlns="http://www.w3.org/2000/svg" fill="none" viewBox="0 0 24 24"><path fill="currentColor" fill-rule="evenodd" d="M11.94 1.25h.12c2.3 0 4.11 0 5.53.19 1.44.2 2.58.6 3.48 1.5.9.89 1.3 2.03 1.49 3.47.19 1.42.19 3.22.19 5.53v.12c0 2.3 0 4.11-.19 5.53a5.7 5.7 0 0 1-1.5 3.48 5.7 5.7 0 0 1-3.47 1.49c-1.42.19-3.22.19-5.53.19h-.12c-2.3 0-4.11 0-5.53-.19a5.7 5.7 0 0 1-3.48-1.5 5.7 5.7 0 0 1-1.49-3.47c-.19-1.42-.19-3.22-.19-5.53v-.12c0-2.3 0-4.11.19-5.53a5.7 5.7 0 0 1 1.5-3.48A5.7 5.7 0 0 1 6.4 1.44c1.42-.19 3.22-.19 5.53-.19M6.61 2.93c-1.27.17-2.05.5-2.62 1.06-.56.57-.9 1.35-1.06 2.62-.18 1.3-.18 3.01-.18 5.39s0 4.09.18 5.39c.17 1.27.5 2.05 1.06 2.62.57.56 1.35.9 2.62 1.06 1.3.18 3.01.18 5.39.18s4.09 0 5.39-.18c1.27-.17 2.05-.5 2.62-1.06.56-.57.9-1.35 1.06-2.62.18-1.3.18-3.01.18-5.39s0-4.09-.18-5.39c-.17-1.27-.5-2.05-1.06-2.62-.57-.56-1.35-.9-2.62-1.06-1.3-.18-3.01-.18-5.39-.18s-4.09 0-5.39.18" clip-rule="evenodd"/><path fill="currentColor" fill-rule="evenodd" d="M16.05 7.25h.13q.55-.01.9.04c.98.15 1.88.78 2.13 1.75q.07.36.06.8v3.94q.02.43-.06.8-.06.25-.19.48l.45.35a.75.75 0 1 1-.94 1.18l-.63-.5q-.39.17-.82.24-.34.05-.9.04h-.13q-.57.01-.91-.04c-.98-.15-1.88-.78-2.13-1.75q-.08-.37-.06-.8V9.84q-.02-.44.06-.8c.25-.97 1.15-1.6 2.13-1.75q.35-.05.9-.04m1.72 6.82-.23-.18a.75.75 0 0 0-1.1.98l-1.07-.02c-.55-.09-.84-.4-.9-.64-.01-.03-.02-.1-.02-.5v-3.8c0-.4 0-.47.02-.5.06-.24.35-.55.9-.64.11-.02.27-.02.74-.02.48 0 .63 0 .74.02.56.09.85.4.9.64.01.03.02.1.02.5zM6 7.25c.41 0 .75.34.75.75v3.25h3.31V8a.75.75 0 0 1 1.5 0v7.62a.75.75 0 0 1-1.5 0v-2.87H6.75v2.87a.75.75 0 0 1-1.5 0V8c0-.41.34-.75.75-.75" clip-rule="evenodd"/></svg>
