<svg xmlns="http://www.w3.org/2000/svg" fill="none" viewBox="0 0 24 24"><path fill="currentColor" fill-rule="evenodd" d="M12.28 3.72a1 1 0 0 0-.56 0q-.06 0-.34.2t-.85.73L5.29 9.3c-.65.57-.83.74-.96.93a2 2 0 0 0-.26.6C4 11.06 4 11.3 4 12.17V16c0 .95 0 1.6.04 2.12.03.5.1.8.19 1.03a3 3 0 0 0 1.62 1.62c.23.1.52.16 1.03.2C7.4 21 8.05 21 9 21h6c.95 0 1.6 0 2.12-.04.5-.03.8-.1 1.03-.19a3 3 0 0 0 1.62-1.62c.1-.23.16-.52.2-1.03.03-.52.03-1.17.03-2.12v-3.83c0-.86 0-1.11-.07-1.33a2 2 0 0 0-.26-.6 6 6 0 0 0-.96-.93l-5.24-4.66c-.39-.35-.64-.58-.85-.73q-.28-.2-.34-.2M11.16 1.8a3 3 0 0 1 1.68 0q.56.17.99.52.42.33.95.81l5.26 4.68.09.08c.52.46.91.8 1.2 1.24a4 4 0 0 1 .54 1.2c.13.5.13 1.03.13 1.73v3.98q.01 1.34-.04 2.22-.04.9-.34 1.65a5 5 0 0 1-2.7 2.7c-.52.22-1.05.3-1.66.35q-.89.05-2.22.04H8.96q-1.34.01-2.22-.04a5 5 0 0 1-1.65-.34 5 5 0 0 1-2.7-2.7 5 5 0 0 1-.35-1.66q-.05-.89-.04-2.22v-3.98c0-.7 0-1.23.13-1.73a4 4 0 0 1 .54-1.2c.29-.43.68-.78 1.2-1.24l.09-.08 5.26-4.68q.54-.49.95-.8.43-.35 1-.53" clip-rule="evenodd"/></svg>
