<svg xmlns="http://www.w3.org/2000/svg" fill="none" viewBox="0 0 24 24"><path stroke="currentColor" stroke-linecap="round" stroke-linejoin="round" stroke-width="1.5" d="m9.02 2.84-5.39 4.2C2.73 7.74 2 9.23 2 10.36v7.41a4.23 4.23 0 0 0 4.21 4.22h11.58c2.32 0 4.21-1.9 4.21-4.21V10.5c0-1.21-.81-2.76-1.8-3.45l-6.18-4.33a4.5 4.5 0 0 0-5 .12"/><path stroke="currentColor" stroke-linecap="round" stroke-linejoin="round" stroke-width="1.5" d="M10.5 18h3a3 3 0 0 0 3-3v-3a3 3 0 0 0-3-3h-3a3 3 0 0 0-3 3v3a3 3 0 0 0 3 3M12 9v9m-4.5-4.5h9"/></svg>
