<svg xmlns="http://www.w3.org/2000/svg" fill="currentColor" viewBox="0 0 32 32"><path d="M26.01 15.24H6a.76.76 0 0 0-.75.75c0 4.24 2.47 7.91 6.05 9.66V28c0 .41.34.75.75.75h7.92c.41 0 .75-.34.75-.75v-2.35A10.8 10.8 0 0 0 26.76 16a.76.76 0 0 0-.75-.75Zm-6.79 12.01H12.8v-.99a10.6 10.6 0 0 0 6.43 0v.99Zm-3.22-2a9.3 9.3 0 0 1-8.82-6.47h14.69c.41 0 .75-.34.75-.75s-.34-.75-.75-.75H6.85l-.07-.54h18.45A9.27 9.27 0 0 1 16 25.25m9.55-20.02H14.99V5.1a1.85 1.85 0 0 0-2.95-1.48q-.47-.36-1.1-.37c-.63-.01-.79.14-1.1.37q-.47-.36-1.1-.37c-.63-.01-.79.14-1.1.37A1.84 1.84 0 0 0 4.69 5.1v3.86a1.85 1.85 0 0 0 2.95 1.48q.47.36 1.1.37c.63.01.79-.14 1.1-.37q.47.36 1.1.37c.63.01.79-.14 1.1-.37a1.84 1.84 0 0 0 2.95-1.48v-.2h10.57a1.77 1.77 0 0 0 0-3.54ZM6.53 9.32a.35.35 0 0 1-.35-.35V5.11c0-.19.16-.35.35-.35s.35.16.35.35v3.86c0 .19-.16.35-.35.35m2.2 0a.35.35 0 0 1-.35-.35V5.11c0-.19.16-.35.35-.35s.35.16.35.35v3.86c0 .19-.16.35-.35.35m2.2 0a.35.35 0 0 1-.35-.35V5.11c0-.19.16-.35.35-.35s.35.16.35.35v3.86c0 .19-.16.35-.35.35m2.55-.35c0 .19-.16.35-.35.35s-.35-.16-.35-.35V5.11c0-.19.16-.35.35-.35s.35.16.35.35zm12.07-1.7H14.99v-.53h10.57c.15 0 .27.12.27.27s-.12.27-.27.27Z"/></svg>
