<svg xmlns="http://www.w3.org/2000/svg" viewBox="-45.1 0 442.492 442.492"><defs><style>.a{fill:#fff}.b{fill:#85807f}.c{fill:#645d5c}.d{fill:#211715}.f{fill:none}.g{fill:#7a7473}.h{fill:#d9d9d9}.i{fill:#febe69}</style></defs><path d="M302.77 423.19q-.3-.17-.58-.36a93 93 0 0 1-13.1-10.7l-1.27-1.34h-3.56c-.46.7-.96 1.34-.96 1.34a93 93 0 0 1-13.1 10.7 10.5 10.5 0 0 1-9.36 1.24c-2.88-1.05-5.44-3.16-5.08-6.69 0 0 .06-1.18.14-2.33a57 57 0 0 0 6.69-8.07 14 14 0 0 0 2.65-7.6l-.11-4.14a49 49 0 0 0 17.85-.87h4.68a49 49 0 0 0 19.6.6l-.11 4.41a14 14 0 0 0 2.64 7.6 57 57 0 0 0 6.68 8.06l.15 2.34c.37 3.53-2.2 5.64-5.08 6.7a10.5 10.5 0 0 1-8.77-.9M88.1 122.85c-4.42 13.41-9.09 26.67-11.35 31.48h-1.21c-3.96-8.41-15.3-42.69-19.81-58.39H56c.53 1.04 4.8 11.3 8.7 13.79 1.23-1.64 7.82-10.63 10.26-13.37h2.35c2.44 2.74 9.04 11.73 10.27 13.37 3.89-2.5 8.17-12.75 8.7-13.79h.24a785 785 0 0 1-8.43 26.9m205.67 27.9a760 760 0 0 0 10.96-34.48h-1.5a3 3 0 0 1-1.18 2.2q-.63.44-1.3.83c-4.4 2.54-9.86 3.3-14.3 3.3-5.85 0-10.36-1.33-12.85-2.96q-2-1.32-2.5-4.9h-3.86c3.2 11.98 14.64 46.79 18.43 54.85h1.08c1.49-3.16 4.14-10.44 7.02-18.85m20.2-79.65a4.4 4.4 0 0 1 3.15-1.15 4 4 0 0 1 3.62 2.01c1.23 2.14 1.18 6.07.35 8.5a13 13 0 0 1-3.85 6.25 4.8 4.8 0 0 1-3.7 1.07l-.35-.06a28 28 0 0 1-1.27 3.44c-.96 2.6-6.35 11.87-13.1 15.19v1.97c-4.7.72-7.42 1.53-11.75 1.77a50 50 0 0 1-13.09-1.23s0-1.14 0-2.38a25 25 0 0 1-8.57-6.94 33 33 0 0 1-6.27-11.83 4.7 4.7 0 0 1-4-1 13 13 0 0 1-3.85-6.25c-.82-2.43-.87-6.36.36-8.5a4 4 0 0 1 3.62-2 4.4 4.4 0 0 1 3.14 1.14s-10.75-25.02 27.09-25.02 28.48 25.02 28.48 25.02" class="a"/><path d="M104.91 48.84a4.5 4.5 0 0 1 3.25-1.2 4.2 4.2 0 0 1 3.75 2.09c1.28 2.2 1.22 6.28.37 8.8a13.6 13.6 0 0 1-4 6.47 5 5 0 0 1-3.81 1.1l-.37-.06a29 29 0 0 1-1.31 3.57c-.92 2.47-5.7 10.78-11.9 14.77v2.29c-.6.48-12.65 9.05-13.56 9.7h-2.36c-.91-.65-12.96-9.22-13.56-9.7v-2.32a28 28 0 0 1-6.78-6.08 34 34 0 0 1-6.49-12.24A4.9 4.9 0 0 1 44.01 65a13.6 13.6 0 0 1-4-6.47c-.85-2.52-.9-6.59.37-8.8a4.2 4.2 0 0 1 3.75-2.08 4.5 4.5 0 0 1 3.25 1.19s-7.92-28.6 28.77-28.6 28.76 28.6 28.76 28.6" class="a"/><path d="M84.53 2.76a43 43 0 0 0-8.19-.72c-8.6 0-18.34 2.02-22.57 10.08-9.42 5.04-12.25 10.6-12.84 24.48a37 37 0 0 0 1.38 11.42 5 5 0 0 1 1.82-.37 4.5 4.5 0 0 1 3.1 1.05c3.39-1.66 2.7-5.96 4.37-10.23a10.4 10.4 0 0 1 4.75-5.97c2.83-1.68 5.01-2.16 9.27-2a14.6 14.6 0 0 0 7.63-1.66c5.86-3.24 15.57-2.05 20.63 1.63 6.96 5.08 7.3 20.7 12.57 17.45a5 5 0 0 1 1.72-.27 5 5 0 0 1 1.9.4c1.69-7.1 5.7-12.38 1.08-20.6-3-5.33-7.1-14.17-13.37-18.77a32 32 0 0 0-13.25-5.92" class="b"/><path d="M40.8 381.65c-1.61-43.97-2.75-86.26-4.66-132.5l-.5-12.94a105 105 0 0 0 17.5-.76c5.35-.83 10.1-2.73 12.43-4.46a18 18 0 0 0 6.8-9.5 91 91 0 0 0 2-9.78.71.71 0 0 1 1.4 0 101 101 0 0 0 2.13 10.2 19.4 19.4 0 0 0 6.42 9.34c3.05 2.56 6.33 3.46 11.13 4.25 5.79.94 16 .53 23.3.05v.23l-.52 13.78c-2.21 53.68-3.39 102.04-5.5 153.92a59 59 0 0 1-16.16 2.5c-5.84-.06-15.09-.57-19.37-1.68-4.28 1.1-13.55 1.62-19.4 1.68a59 59 0 0 1-16.15-2.5q-.45-11.01-.84-21.83" class="a"/><path d="M99.47 433.48c-2.92-2.39-5.72-4.78-9-7.21-1.64-1.21-3.67-2.05-5.22-3.36a9 9 0 0 1-2.1-2.8c-1.84-3.48-1.67-9.99-.98-13.86l.2-1.1c4.53.52 10.18.78 14.21.82a54 54 0 0 0 9.75-.95l1.8 2.82c1.3 1.46 3.72 4.37 5.13 5.73 4.2 4.05 5.7 5.97 8.76 9.36 2.34 2.6 4.4 7.82 3.8 11.48-.45 2.82-3.16 4.37-5.81 5.46a21 21 0 0 1-7.72.4 21 21 0 0 1-9.1-3.82q-1.93-1.48-3.72-2.97m-44.46-.2c2.9-2.27 5.64-4.57 9.84-6.25 2.15-.85 4.4-1.18 6.05-2.8a8.7 8.7 0 0 0 2.05-4.1 33.5 33.5 0 0 0 .13-13.55s-.11-.57-.3-1.52a146 146 0 0 1-14.97.9 55 55 0 0 1-10.7-1.13l-3.1 4.93-13.68 15.28c-6.72 6.9-4.42 13.87 3.38 15.13a21.4 21.4 0 0 0 12.1-1.82 30 30 0 0 0 6.78-3.25q1.25-.9 2.42-1.83" class="c"/><path d="M104.6 406.03c2.64 4.9 7.14 8.66 10.9 12.64 3.81 4.05 9.07 8.95 8.4 15.1-.26 2.4-3.21 4-5.37 4.41a18 18 0 0 1-8.43-.5c-3.65-1.08-6.42-3.32-9.3-5.69-3.18-2.6-6.28-5.36-9.66-7.7-1.59-1.1-3.54-1.81-4.9-3.2a8.5 8.5 0 0 1-2.1-4.18 27 27 0 0 1-.04-10.14 2.06 2.06 0 0 0-1.4-2.46 2 2 0 0 0-2.46 1.4c-1.17 6.76-1.24 15.56 5.15 19.78 1.75 1.15 3.56 2.1 5.24 3.38q2.65 2.06 5.22 4.21c3.25 2.69 6.45 5.74 10.35 7.42 6.02 2.6 14.4 3.25 19.46-1.75 2.73-2.71 2.6-6.66 1.58-10.11-1.05-3.6-3.06-6.26-5.5-9.01-2.49-2.82-5.15-5.44-7.74-8.15a36 36 0 0 1-5.95-7.47c-1.22-2.27-4.68-.25-3.46 2.02Zm-33.45 1.08a32 32 0 0 1 .05 11.54 8 8 0 0 1-1.49 3.93c-1.03 1.25-2.79 1.62-4.25 2.11a31 31 0 0 0-8.58 4.62c-2.6 1.94-5.03 4.18-7.97 5.62-3.27 1.58-6.98 3.11-10.62 3.41-2.7.22-6 .06-8.2-1.74-5.05-4.12 1.81-10.2 4.53-13.24 2.92-3.26 5.79-6.58 8.71-9.84a40 40 0 0 0 5.31-7.68c1.23-2.26-2.22-4.28-3.45-2.01a39 39 0 0 1-5.16 7.38c-2.87 3.2-5.67 6.48-8.55 9.67-2.6 2.9-5.6 5.55-6.71 9.42a8.9 8.9 0 0 0 1.6 8.23c2.14 2.56 5.51 3.54 8.72 3.8 4.36.38 8.3-.9 12.3-2.45a31 31 0 0 0 5.66-2.68c1.47-.96 2.84-2.09 4.21-3.17a32 32 0 0 1 9.08-5.42c2-.69 4.05-1.26 5.68-2.7a10 10 0 0 0 2.82-5.09 36 36 0 0 0 .17-14.78c-.5-2.52-4.35-1.45-3.86 1.06Z" class="d"/><path d="M76.67 406.22c5.6 1.4 11.65 1.54 17.4 1.7a60 60 0 0 0 19.2-2.52 2.1 2.1 0 0 0 1.46-1.93c1.02-24.95 1.84-49.91 2.67-74.87a9845 9845 0 0 1 2.7-76.06q.35-8.38.65-16.77c.1-2.57-3.9-2.57-4 0-.64 16.9-1.33 33.78-1.93 50.67-.88 24.92-1.66 49.85-2.51 74.77q-.73 21.13-1.58 42.26l1.47-1.93a56 56 0 0 1-18.13 2.38c-5.4-.15-11.08-.24-16.34-1.56-2.5-.63-3.56 3.23-1.06 3.86" class="d"/><path d="M76.66 402.37c-5.26 1.31-10.94 1.4-16.34 1.55a56 56 0 0 1-18.14-2.38l1.47 1.93c-1-24.86-1.83-49.73-2.65-74.6a10086 10086 0 0 0-2.7-75.75q-.35-8.67-.67-17.35c-.1-2.56-4.1-2.57-4 0 .65 17 1.34 33.98 1.94 50.97.88 24.83 1.66 49.66 2.51 74.49q.73 21.12 1.57 42.24a2.1 2.1 0 0 0 1.47 1.93 60 60 0 0 0 19.2 2.52c5.75-.16 11.8-.3 17.4-1.7 2.5-.62 1.44-4.48-1.06-3.85" class="d"/><path d="M75.2 257.9v146.24c0 2.57 4 2.58 4 0V257.9c0-2.57-4-2.57-4 0" class="d"/><path d="m70.34 140.9-1.86-5.3c1.58-11.17 3.37-23.57 3.36-24.2a29 29 0 0 0-1.6-6.28l-.82-1.7c2.1-2.79 4.34-5.7 5.55-7.06h2.36a143 143 0 0 1 5.29 6.71l-.45 1.83a71 71 0 0 0-1.22 6.4c0 .37 1.72 13.64 2.93 24.1-2.93 8.48-5.59 15.66-7.12 18.93h-1.22c-1.2-2.54-3.05-7.41-5.2-13.42" style="fill:#3d8dcc"/><path d="M102.71 63.4a29 29 0 0 1-1.3 4.36l-.59 1.41c-.2.5.14-.27-.04.09l-.18.4a37 37 0 0 1-3.2 5.32c-2.79 3.95-6.6 8.26-11.5 9.41-2.5.59-1.44 4.45 1.07 3.86 5.78-1.36 10.22-6.19 13.57-10.81a38 38 0 0 0 3.48-5.7q.3-.64.57-1.3c.22-.51-.14.35.09-.18l.43-1.05a29 29 0 0 0 1.46-4.75c.53-2.51-3.33-3.59-3.86-1.06m-57.07.96c2.48 10.88 10.67 22.74 22.43 24.52a2.07 2.07 0 0 0 2.46-1.4 2 2 0 0 0-1.4-2.46C58.67 83.44 51.7 72.95 49.5 63.29c-.57-2.5-4.43-1.44-3.86 1.07m24.9 9.23a12 12 0 0 0 5.91 1.38 9.7 9.7 0 0 0 6.08-1.83 2 2 0 0 0 0-2.83 2.06 2.06 0 0 0-2.83 0c.69-.54-.04 0-.26.1-.17.1-.62.24 0 .03l-.48.17q-.3.1-.62.17a5 5 0 0 0-.73.14c.2-.09.32-.04.02 0a13 13 0 0 1-1.36.05q-.43 0-.86-.03l-.4-.03-.22-.02.18.02c-.11.05-.52-.1-.64-.12l-.62-.16-.52-.18c-.45-.15.41.2 0 0q-.32-.14-.64-.31a2 2 0 1 0-2.02 3.45Zm4.65-13.61a27 27 0 0 1 .62 2.85l-.07-.53.01.39.08-.53-.05.18.2-.48-.06.11.31-.4-.09.09.4-.31-.22.12.48-.2-.38.1.53-.06h-.36l.53.07-.4-.07a1.5 1.5 0 0 0-.8-.04 1.5 1.5 0 0 0-.74.24 2 2 0 0 0-.72 2.74 2 2 0 0 0 1.2.91c.35.05.7.14 1.06.16a3.5 3.5 0 0 0 1.62-.4 2.5 2.5 0 0 0 1.33-1.6 4 4 0 0 0-.01-1.67q-.25-1.38-.6-2.73a2 2 0 0 0-2.46-1.4 2 2 0 0 0-1.2.91 2 2 0 0 0-.2 1.55Zm-14.56-8.22c-.48 1.54-.17 5.1 2.76 5.4 3.88-.02 4.09-4.32 2.78-6.34-1.07-1.66-4.2-2.35-5.54.94m31.04 0c.47 1.54.16 5.1-2.77 5.4-3.88-.02-4.08-4.32-2.78-6.35 1.07-1.65 4.21-2.34 5.55.95" class="d"/><path d="M42.3 47.54a36 36 0 0 1-1.26-10.94c.5-11.67 3.21-16.93 8.83-22" class="f"/><path d="M51.11 100.23c.9-.32 1.77-.77 2.63-1.17q2-.9 3.99-1.84l3.13-1.44.32-.15c.1-.05.27-.12-.16.06l.84-.35a5.6 5.6 0 0 0 2.47-2.28 9 9 0 0 0 .83-2.93c.24-1.51.5-3.01.63-4.54a2 2 0 0 0-2-2 2.05 2.05 0 0 0-2 2 38 38 0 0 1-.92 5.5c-.06.24.2-.3.03-.1l-.13.24c-.22.39.16-.11-.08.1l-.22.21c.21-.24.13-.08.01 0l-.3.18-.3.16c-.14.06-.7.28-1.01.43L52.2 95.4l-1.73.79-.55.24c-.45.2.5-.18.12-.05a2.05 2.05 0 0 0-1.4 2.46 2 2 0 0 0 2.46 1.4Zm36.56-14.8q.21 2.13.57 4.24a17 17 0 0 0 .41 2.19 5.5 5.5 0 0 0 1.5 2.49 6 6 0 0 0 1.34.93 11 11 0 0 0 1 .44c.66.25-.46-.23-.21-.1 1.97 1.01 4.02 1.9 6.02 2.84q1.43.7 2.87 1.33a2 2 0 0 0 2.46-1.4 2.06 2.06 0 0 0-1.4-2.46c1 .41.06 0-.17-.1l-1.29-.61-3.48-1.65-2.69-1.27-.3-.13-.07-.04-.48-.2c-.05-.02-.37-.16-.08-.02l-.54-.3c-.06-.03-.35-.22-.13-.07.2.15 0 0-.03-.03-.14-.14-.39-.47-.14-.1l-.3-.5c-.12-.17.1.17.07.19l-.12-.36-.13-.5q-.12-.6-.2-1.21c-.2-1.32-.37-2.3-.49-3.6a2 2 0 0 0-4 0Z" class="d"/><path d="M61.42 86.67c-1.4 1.55-3.11 3.83-4.47 5.41a4.3 4.3 0 0 0-.94 3.86c.53 1.05 4.8 11.3 8.7 13.79 1.23-1.64 7.82-10.63 10.26-13.37-.91-.64-12.96-9.21-13.55-9.7m29.46 0c1.4 1.55 3.1 3.83 4.47 5.41a4.3 4.3 0 0 1 .93 3.86c-.52 1.05-4.8 11.3-8.7 13.79-1.22-1.64-7.82-10.63-10.26-13.37.92-.64 12.97-9.21 13.56-9.7" class="a"/><path d="M60 85.25c-1.16 1.31-2.23 2.7-3.33 4.05-1.07 1.32-2.22 2.53-2.63 4.23-.53 2.16.46 3.92 1.35 5.8a63 63 0 0 0 3.47 6.56 17.5 17.5 0 0 0 4.84 5.57 2.05 2.05 0 0 0 2.73-.72c3.26-4.35 6.36-8.89 9.95-12.96a2.04 2.04 0 0 0-.4-3.14l-6.8-4.84-4.4-3.15-1.5-1.08c-.22-.16-1.25-.95-.45-.32a2.06 2.06 0 0 0-2.83 0 2 2 0 0 0 0 2.83c4.48 3.55 9.3 6.7 13.96 10.01l-.4-3.14c-3.82 4.33-7.11 9.15-10.57 13.77l2.73-.72a10 10 0 0 1-1.77-1.76 25 25 0 0 1-1.71-2.5 62 62 0 0 1-3.12-5.82l-.96-2.09q-.16-.32-.3-.65l-.1-.2c.08.43.1-.25.1-.27a9 9 0 0 1 1.87-2.87c1.02-1.26 2.02-2.54 3.1-3.76 1.7-1.92-1.12-4.76-2.83-2.83" class="d"/><path d="M89.47 88.08c1.03 1.17 1.99 2.4 2.97 3.6.7.88 1.8 1.8 1.97 2.96.02.1.05.59.07.4.02-.16-.02.07-.05.14l-.3.65q-.47 1.05-.96 2.09a63 63 0 0 1-3.05 5.7 15 15 0 0 1-3.54 4.38l2.74.72c-3.47-4.62-6.76-9.44-10.58-13.77l-.4 3.14c4.65-3.3 9.48-6.46 13.95-10.01a2 2 0 0 0 0-2.83 2.05 2.05 0 0 0-2.82 0c.8-.63-.2.13-.4.28l-1.56 1.12-4.4 3.14-6.8 4.84a2.04 2.04 0 0 0-.4 3.14c3.6 4.08 6.7 8.62 9.95 12.97a2.04 2.04 0 0 0 2.73.71 17.5 17.5 0 0 0 4.84-5.56 63 63 0 0 0 3.48-6.56c.88-1.88 1.87-3.64 1.34-5.8a11 11 0 0 0-2.63-4.23c-1.1-1.36-2.17-2.74-3.33-4.05-1.7-1.93-4.52.9-2.82 2.83m16.86-37.83a2.7 2.7 0 0 1 2.31-.55 2 2 0 0 1 1.1.47c-.27-.2.55.73.24.24a5 5 0 0 1 .78 2.12 12 12 0 0 1 .08 3.13 13 13 0 0 1-1.61 5.03c-.99 1.82-2.48 3.7-4.76 3.4a2 2 0 0 0-2 2 2.05 2.05 0 0 0 2 2c5.26.7 8.5-5 9.8-9.25 1.19-3.81 1.14-9.74-2.6-12.18a6.9 6.9 0 0 0-8.17.76c-1.92 1.72.91 4.54 2.83 2.83M48.8 47.42a6.9 6.9 0 0 0-7.52-1.12 6.6 6.6 0 0 0-3.43 4.42 16.5 16.5 0 0 0 2.4 13.02c1.68 2.51 4.35 4.78 7.58 4.36a2.07 2.07 0 0 0 2-2 2 2 0 0 0-2-2c-2.28.3-3.77-1.6-4.76-3.41a13 13 0 0 1-1.61-5.03 8.6 8.6 0 0 1 .86-5.25c-.31.5.52-.45.24-.24a2 2 0 0 1 .96-.45 2.7 2.7 0 0 1 2.45.53c1.92 1.7 4.76-1.11 2.83-2.83" class="d"/><path d="M64.23 28.46c-4.36.02-9 1.37-11.94 4.79a16 16 0 0 0-2.83 5.25c-.77 2.23-.92 4.63-1.74 6.84a2 2 0 0 0 1.4 2.46 2.04 2.04 0 0 0 2.46-1.4c.72-1.94.9-4.03 1.48-6.02q.24-.8.54-1.56l.1-.25a15 15 0 0 1 1.1-2.08l.2-.26a8 8 0 0 1 1.9-1.71q.61-.4 1.28-.76l.6-.3c.05-.02.58-.25.31-.14a12.5 12.5 0 0 1 5.15-.86c2.57 0 2.58-4 0-4Zm9.83 2.21a17 17 0 0 1 10.04-1.59 17 17 0 0 1 8.94 3.26c4.77 3.93 4.88 10.93 8.3 15.73a2.06 2.06 0 0 0 2.74.71 2 2 0 0 0 .72-2.73 28 28 0 0 1-2.84-6.23 35 35 0 0 0-3.77-7.66c-3.6-5.04-9.91-7.02-15.89-7.2a20 20 0 0 0-10.26 2.26c-2.24 1.25-.23 4.7 2.02 3.45" class="d"/><path d="M56.6 11.32c3.18-4.35 8.65-6.23 13.79-6.92a40 40 0 0 1 16.95 1.12 28.5 28.5 0 0 1 14 9.5c3.28 4.17 5.68 9 8.2 13.65a13.2 13.2 0 0 1 1.47 9.11c-.62 3.06-1.86 5.96-2.68 8.96-.67 2.5 3.2 3.55 3.86 1.07.78-2.9 1.96-5.69 2.6-8.62a17 17 0 0 0-.38-9.38 56 56 0 0 0-4.13-8.14 71 71 0 0 0-4.89-7.87A33 33 0 0 0 90.01 2.2 42 42 0 0 0 70.94.33c-6.88.79-13.58 3.2-17.79 8.97a2 2 0 0 0 .72 2.74 2.05 2.05 0 0 0 2.73-.72m-12.48 35.7a44 44 0 0 1-.16-19.72 17.8 17.8 0 0 1 6.8-10.98 2.06 2.06 0 0 0 .72-2.74 2 2 0 0 0-2.74-.71 21.8 21.8 0 0 0-8.57 13.06 48 48 0 0 0 .09 22.15c.6 2.5 4.47 1.44 3.86-1.07Z" class="d"/><path d="M28.83 231.87c.78-8.63 2.2-21.08 3.05-31.25l.28-3.22-2.6-1.26-.25-.11a220 220 0 0 1-17.16-9.58c-4-2.42-8-7.41-9.13-11.48a24.7 24.7 0 0 1 0-14.07c4.07-14.74 15.66-44.07 16.74-46.46 1.56-3.46 2.58-5.21 3.75-6.52.84-.81 2.01-1.78 2.01-1.78a54 54 0 0 1 5.7-3.52c4.8-2.44 16.02-6.22 20.42-7.91l3.2-1.97c3.66 13.6 16.44 52.55 20.7 61.59h1.21c4.25-9.03 16.98-47.87 20.66-61.54l3.1 1.92c4.4 1.7 15.62 5.47 20.42 7.91a53 53 0 0 1 5.7 3.52s1.17.97 2.01 1.78c1.17 1.3 2.19 3.06 3.75 6.52 1.08 2.39 12.67 31.72 16.74 46.46a24.7 24.7 0 0 1 0 14.07c-1.14 4.07-5.14 9.06-9.13 11.48a220 220 0 0 1-17.17 9.58l-.24.11-2.26.97.12 1.5c.16 2.02-.06.2.97 10.75.98 9.42 1.72 17.24 2.27 24.57a1.26 1.26 0 0 1-1.15 1.35c-7.08.54-20.21 1.34-27.1.22-4.8-.79-8.07-1.69-11.12-4.25a19.4 19.4 0 0 1-6.42-9.35 101 101 0 0 1-2.13-10.2.71.71 0 0 0-1.41.01 91 91 0 0 1-2 9.78 18 18 0 0 1-6.8 9.5c-2.33 1.73-7.07 3.63-12.43 4.46a109 109 0 0 1-23.3.38 1.35 1.35 0 0 1-1.22-1.47z" class="g"/><path d="M65.96 150.63q-6.27-10.82-12.32-21.76-3-5.44-5.91-10.93-1.4-2.62-2.75-5.26l-.42-.8q-.23-.71-.21-.21c-.2.43.73-.6.83-.7a95 95 0 0 1 2.24-2.25c1.85-1.8-.98-4.62-2.83-2.82-1.43 1.39-3.75 3.08-4.14 5.14-.37 1.93 1.27 4.05 2.12 5.67q3.16 6.09 6.47 12.1 6.6 11.99 13.46 23.83c1.29 2.23 4.75.22 3.46-2.02Zm52.49 47.98c.77 9.81 1.93 19.6 2.76 29.4l.42 5.14a2 2 0 0 0 .04.58c.34.52.38-.65.6-.43-.1-.1-.8.06-.98.07l-1.98.14q-4.72.32-9.45.47c-6.14.19-12.42.28-18.4-1.34a17.1 17.1 0 0 1-11.95-12.46c-.4-1.56-.72-3.14-1.04-4.72q-.28-1.45-.54-2.91a4.5 4.5 0 0 0-.96-2.68 2.76 2.76 0 0 0-4.26.59 9 9 0 0 0-.63 2.85q-.27 1.57-.59 3.14a25 25 0 0 1-2.77 8.32 16 16 0 0 1-6.4 5.84c-6.07 3.05-13.1 3.49-19.78 3.63q-5.22.14-10.45-.22l-1.07-.08-.51-.05c-.66.02-.23-.07-.08.15.32.45.2.12.23-.3l.1-1.12q.21-2.37.45-4.74c.72-7.32 1.52-14.64 2.2-21.96l.48-5.3c.22-2.57-3.78-2.55-4 0-.6 7.06-1.34 14.11-2.07 21.17q-.49 4.74-.93 9.5c-.13 1.4-.55 3.1-.02 4.44.7 1.74 2.31 2.05 3.98 2.2a104 104 0 0 0 19.53-.14c6.28-.63 12.98-2.18 17.87-6.4a20 20 0 0 0 5.82-8.66 35 35 0 0 0 1.12-4.4q.31-1.5.59-3.03c.13-.75.18-2.55.52-3l-.71.72-1.3-.14-.52-.89a25 25 0 0 1 .6 3.21q.3 1.6.64 3.2a39 39 0 0 0 1.16 4.6 22 22 0 0 0 6.6 9.53c5.5 4.7 13.27 5.4 20.24 5.52 3.71.06 7.43-.06 11.14-.24q2.59-.13 5.17-.3c1.59-.1 3.73.09 5.06-.88 1.82-1.34 1.25-3.7 1.1-5.62l-.52-6.06q-.62-6.82-1.33-13.63-.66-6.35-1.17-12.71c-.2-2.55-4.2-2.57-4 0ZM80.6 108.09c-2.83 0-5.66-.06-8.48-.06a2 2 0 0 0 0 4c2.82 0 5.65.06 8.48.06a2 2 0 0 0 0-4" class="d"/><path d="M80.24 104.37a39 39 0 0 0-1.27 6.65 21 21 0 0 0 .38 3.61q1.21 9.68 2.36 19.37a2.06 2.06 0 0 0 2 2 2 2 0 0 0 2-2q-1.13-9.56-2.33-19.1c-.15-1.23-.35-2.46-.43-3.69-.02-.36-.08.49 0-.07l.12-.67.31-1.66q.32-1.7.72-3.38c.6-2.5-3.26-3.57-3.86-1.06m-9.57 29.94c.92-6.51 1.87-13.01 2.75-19.53a16 16 0 0 0 .34-4.15 24 24 0 0 0-1.8-6.52 2 2 0 0 0-2.73-.72 2.05 2.05 0 0 0-.72 2.74c-.19-.43.23.68.3.9a39 39 0 0 1 .99 3.96c.11.66.03-.25.04.27a21 21 0 0 1-.38 3.26q-1.3 9.37-2.65 18.72a2.07 2.07 0 0 0 1.4 2.46 2 2 0 0 0 2.46-1.4Z" class="d"/><path d="M95.77 91.17C93.69 99.2 91.1 107.1 88.56 115a804 804 0 0 1-9.7 28.54q-1.06 2.97-2.21 5.91-.46 1.17-.94 2.33l-.08.17-.2.47-.4.89 1.73-1h-1.22l1.73 1q-.36-.78-.7-1.57c-.04-.08.1.25-.05-.1l-.2-.47-.43-1.1q-1-2.5-1.92-5.02-2.39-6.51-4.63-13.07-4.95-14.5-9.47-29.14a280 280 0 0 1-3.39-11.68c-.64-2.5-4.5-1.44-3.85 1.06 2.1 8.13 4.73 16.15 7.31 24.14 3.1 9.58 6.28 19.14 9.75 28.6 1.27 3.48 2.54 7 4.12 10.36a2 2 0 0 0 1.72 1h1.22a2 2 0 0 0 1.73-1c3.3-7.06 5.69-14.63 8.2-22q4.99-14.57 9.52-29.3c1.2-3.91 2.4-7.84 3.42-11.8.65-2.5-3.21-3.56-3.86-1.07Zm9.06 34.79q2.14-3.88 4.19-7.82c.98-1.87 2.03-3.73 2.9-5.65a3.6 3.6 0 0 0-.1-3.5 16 16 0 0 0-2.44-2.7c-1.81-1.83-4.64 1-2.83 2.83a18 18 0 0 1 1.89 1.98l-.08-.39-.22.42-.73 1.43-2.4 4.62q-1.78 3.4-3.64 6.76c-1.25 2.25 2.2 4.27 3.45 2.01Zm-15.04 26.68q4.13-7.15 8.16-14.36a2 2 0 0 0-3.45-2.02q-4.02 7.22-8.16 14.37a2 2 0 1 0 3.45 2.01m-59.76-28.4a675 675 0 0 1 1.9 36.5c.04 2.57 4.04 2.58 4 0a675 675 0 0 0-1.9-36.5c-.18-2.56-4.18-2.58-4 0m90.3 39.9c.12-13.32.98-26.62 1.93-39.9.19-2.57-3.81-2.56-4 0-.95 13.28-1.81 26.58-1.93 39.9-.02 2.58 3.98 2.58 4 0" class="d"/><path d="M112.68 123.97H96.76v6.22h15.92Z" class="h"/><path d="M111.7 121.97H99.94c-1.2 0-2.68-.23-3.76.44a3.1 3.1 0 0 0-1.42 2.6c-.04 1.06 0 2.13 0 3.18q-.02.5 0 .98a3.05 3.05 0 0 0 2.06 2.87 8 8 0 0 0 2.27.15h9.48c1.1 0 2.23.07 3.33-.02a3 3 0 0 0 2.78-2.97c.05-1.03 0-2.07 0-3.1q.02-.57 0-1.15a3.06 3.06 0 0 0-2.98-2.98 2 2 0 0 0-2 2 2.05 2.05 0 0 0 2 2c-.54-.05-1.08-.69-1.02-.95v3.04a4 4 0 0 0 0 1.06c.1.27.24-.55.3-.63l.72-.3H98.06a1 1 0 0 0-.32 0l.72.3.3.72v-.18a7 7 0 0 0 0-1.11c0-.9.07-1.83 0-2.72v-.23q0-.4-.3.7c-.66.67-.98.21-.4.3a22 22 0 0 0 3.28 0h10.36c2.58 0 2.58-4 0-4m150.33-1.17c.87-.3 1.72-.74 2.55-1.13l3.85-1.77 3.03-1.4.31-.15-.16.07c-.52.22-.07.04.06-.02q.38-.14.75-.32a5.4 5.4 0 0 0 2.41-2.23 9 9 0 0 0 .82-2.85c.22-1.47.48-2.92.6-4.4a2 2 0 0 0-2-2 2.05 2.05 0 0 0-2 2 38 38 0 0 1-.88 5.28c-.06.25.2-.3.04-.11l-.13.23c-.23.4.18-.13-.07.1l-.21.2c.21-.26.15-.1.03-.03l-.3.18c-.03.02-.45.23-.27.15s-.15.05-.15.05l-.48.2-.07.03-.3.14-6.42 2.97-1.67.76-.54.24c-.44.2.5-.19.14-.06a2 2 0 1 0 1.06 3.86Zm35.23-14.36q.2 2.07.55 4.12a16 16 0 0 0 .4 2.11 5.4 5.4 0 0 0 1.47 2.43 6 6 0 0 0 1.3.92l.77.33c1.9.97 3.88 1.83 5.82 2.75.92.43 1.84.89 2.78 1.28a2 2 0 0 0 2.46-1.4 2.06 2.06 0 0 0-1.4-2.46c1 .42.09.02-.15-.09l-1.24-.58-3.36-1.6-2.6-1.22-.28-.13-.08-.03-.48-.2c-.06-.03-.36-.17-.06-.02l-.52-.29c-.06-.03-.35-.22-.12-.06.2.14.02.01-.02-.02l-.2-.2c-.29-.25.1.08.06.1l-.28-.48c-.11-.16.08.18.07.2l-.11-.35-.12-.48q-.12-.58-.2-1.17l-.27-1.69-.08-.61-.12-1.15a2.04 2.04 0 0 0-2-2 2 2 0 0 0-2 2Z" class="d"/><path d="M297.58 430.45a251 251 0 0 0-5.94-4.07c-5-3.12-4.43-7.36-4.32-10.27a53 53 0 0 1 .5-5.32l1.26 1.34a93 93 0 0 0 13.11 10.7 10.5 10.5 0 0 0 9.35 1.24c2.88-1.04 5.44-3.16 5.08-6.68l-.26-2.46.48.49c3.23 3.31 6.8 6.58 10.03 9.8 2.1 2.09 3.75 4.87 3.67 7.92a6.8 6.8 0 0 1-3.21 5.08 13 13 0 0 1-5.85 2.06 22 22 0 0 1-13.76-2.83c-.75-.43-5.83-4-10.14-7m-22.78 0a253 253 0 0 1 5.95-4.07c4.99-3.12 4.43-7.36 4.32-10.27a59 59 0 0 0-.38-6.02 10 10 0 0 0-1.39 2.04 93 93 0 0 1-13.1 10.7 10.5 10.5 0 0 1-9.36 1.24c-2.88-1.04-5.44-3.16-5.07-6.68l.25-2.46-.47.49c-3.24 3.31-6.8 6.58-10.03 9.8-2.1 2.09-3.75 4.87-3.68 7.92a6.8 6.8 0 0 0 3.22 5.08 13 13 0 0 0 5.85 2.06 22 22 0 0 0 13.75-2.83c.75-.43 5.84-4 10.14-7" class="c"/><path d="M298.6 428.73q-2.7-1.9-5.42-3.74a8 8 0 0 1-3.42-3.54 10 10 0 0 1-.49-4.2 56 56 0 0 1 .49-5.92l-3.35.88a76 76 0 0 0 6.96 6.48c3.12 2.57 6.5 5.62 10.3 7.12a12.3 12.3 0 0 0 11.48-1.36 8.3 8.3 0 0 0 3.17-4.15c.57-1.76.24-3.57.06-5.37l-3.42 1.42c3 3.07 6.13 6 9.2 9 2.14 2.1 5.7 5.68 4.05 9.03-1.7 3.48-6.54 4.16-9.96 4.07a19.5 19.5 0 0 1-10.02-3.04c-3.26-2.15-6.42-4.45-9.62-6.68-2.12-1.47-4.12 2-2.02 3.46 3.2 2.23 6.36 4.53 9.63 6.67a23.4 23.4 0 0 0 12.25 3.59c4.66.07 9.73-1.2 12.6-5.13 2.83-3.85 1.13-8.82-1.6-12.2a66 66 0 0 0-5.85-5.85q-2.96-2.83-5.83-5.75c-1.12-1.15-3.6-.36-3.41 1.42a12 12 0 0 1 .18 4 4.4 4.4 0 0 1-2.23 2.6 8.7 8.7 0 0 1-9.28-.53 79 79 0 0 1-13.8-11.62c-.95-1-3.12-.63-3.34.88a66 66 0 0 0-.63 7 13.5 13.5 0 0 0 .74 5.53 11.5 11.5 0 0 0 4.68 5.36c2 1.29 3.94 2.68 5.89 4.04 2.1 1.45 4.1-2.01 2.01-3.47" class="d"/><path d="M308.45 335.44c-.76 12.67-1.58 25.33-2.26 38q-.47 8.88-.8 17.76c-.1 2.79-.31 5.62-.24 8.41a16 16 0 0 0 1.66 6.33 34 34 0 0 0 5.33 7.35c2.3 2.64 4.8 5.1 7.31 7.53 1.85 1.79 4.69-1.04 2.83-2.83-4.09-3.96-8.26-8.01-11.34-12.83-2.55-3.99-1.73-8.82-1.57-13.3.4-11.82 1.09-23.65 1.8-35.46l1.28-20.96c.16-2.57-3.84-2.57-4 0m-32.64 96.74c1.97-1.37 3.93-2.76 5.94-4.08a11.3 11.3 0 0 0 4.83-5.86 15 15 0 0 0 .51-5.57c-.1-2.38-.14-4.75-.48-7.12-.25-1.76-2.87-1.84-3.65-.47a13 13 0 0 1-1.27 1.89c.49-.59-.03-.02-.11.06q-.32.3-.63.63-1.6 1.53-3.28 2.96a86 86 0 0 1-8.17 6.27 8.7 8.7 0 0 1-9.15.79 5 5 0 0 1-2.42-2.44c-.48-1.3-.05-3 .09-4.3.18-1.78-2.29-2.58-3.42-1.42-3.42 3.51-7.06 6.8-10.5 10.29-3 3.05-5.52 7.83-3.6 12.1 1.97 4.4 7.02 6.14 11.48 6.48a23.7 23.7 0 0 0 13.72-3.23c3.5-2.1 6.76-4.65 10.1-6.98 2.1-1.46.1-4.93-2.02-3.45-2.98 2.07-5.94 4.17-8.94 6.2a20 20 0 0 1-8.98 3.4c-3.66.4-8.31.07-10.93-2.87-2.5-2.8-.18-6.62 2-8.83 3.44-3.49 7.08-6.77 10.5-10.28l-3.42-1.42c-.18 1.8-.51 3.6.05 5.37a8.4 8.4 0 0 0 3.43 4.33 12.4 12.4 0 0 0 11.9.9 28 28 0 0 0 5.38-3.5q2.47-1.85 4.85-3.84c2.5-2.1 5.14-4.2 6.79-7.08l-3.66-.48c.27 1.92.24 3.89.33 5.82a14 14 0 0 1-.27 4.46 7.3 7.3 0 0 1-3.35 3.92c-1.92 1.26-3.8 2.6-5.68 3.9-2.09 1.46-.1 4.93 2.03 3.45" class="d"/><path d="M259.93 335.44c.73 12.2 1.52 24.38 2.18 36.58q.48 8.8.83 17.6.15 4.23.26 8.45a12.6 12.6 0 0 1-1 5.69 29 29 0 0 1-4.94 6.88c-2.25 2.57-4.7 4.97-7.16 7.35-1.85 1.8.98 4.62 2.83 2.83a88 88 0 0 0 11.78-13.36c2.96-4.3 2.52-9.3 2.35-14.25-.4-12.03-1.08-24.06-1.8-36.08l-1.33-21.69c-.15-2.56-4.15-2.57-4 0m23.26 58.3v10a2 2 0 0 0 4 0v-10a2 2 0 0 0-4 0" class="d"/><path d="M251.59 219.15c-4.8 13.81-4.08 28.85-3.25 43.45q3.73 65.45 8.7 130.83a49 49 0 0 0 28.28.31 49 49 0 0 0 28.27-.31q4.97-65.37 8.7-130.83c.83-14.6 1.56-29.64-3.24-43.45" class="a"/><path d="M251.59 219.15c-4.8 13.81-4.08 28.85-3.25 43.45q3.73 65.45 8.7 130.83a49 49 0 0 0 28.28.31 49 49 0 0 0 28.27-.31q4.97-65.37 8.7-130.83c.83-14.6 1.56-29.64-3.24-43.45" class="a"/><path d="M319.04 219.15c4.8 13.81 4.08 28.85 3.25 43.45q-3.73 65.45-8.7 130.83a49 49 0 0 1-25.94.94" class="a"/><path d="M249.66 218.62c-3.52 10.24-4.13 21.18-3.87 31.93.29 11.32 1.16 22.64 1.84 33.95q2.1 34.83 4.54 69.65 1.38 19.64 2.87 39.28a2.1 2.1 0 0 0 1.47 1.93 51.5 51.5 0 0 0 27 .94c2.5-.59 1.44-4.45-1.06-3.86a47.4 47.4 0 0 1-24.88-.94l1.47 1.93q-2.63-34.68-4.92-69.38c-1.5-22.86-3.13-45.74-4.15-68.63-.53-12.01-.4-24.24 3.55-35.73.84-2.44-3.02-3.5-3.86-1.07" class="d"/><path d="M317.11 219.69c3.52 10.23 4.02 21.06 3.7 31.79-.33 11.26-1.17 22.52-1.85 33.76q-2.08 34.6-4.51 69.16-1.38 19.52-2.86 39.03l1.47-1.93a47.4 47.4 0 0 1-24.87.94c-2.5-.58-3.58 3.27-1.07 3.86a51.5 51.5 0 0 0 27-.94 2.1 2.1 0 0 0 1.47-1.93q2.65-34.8 4.94-69.62c1.52-23.01 3.2-46.04 4.17-69.08.5-12.12.25-24.52-3.73-36.1-.83-2.43-4.7-1.39-3.86 1.06" class="d"/><path d="M283 255.78q0 11.8.03 23.58.03 16.19.08 32.37l.09 34.1.08 29.33.04 17.56v1.03c0 2.57 4 2.58 4 0q0-7.82-.03-15.64l-.08-28.26-.1-33.86-.07-32.96L287 258v-2.22c0-2.58-4-2.58-4 0" class="d"/><path d="M252.86 121.47c4.65-1.83 10.38-3.8 13.13-4.85l1.52-.85c3.55 12.83 14.47 45.98 18.16 53.83h1.08c3.74-7.96 14.9-41.98 18.27-54.38l2.27 1.4c3.91 1.5 13.88 4.86 18.15 7.03a44 44 0 0 1 4.77 3.21 21 21 0 0 1 4.86 6.73c.87 2.18 2.56 5.67 2.9 6.7 5.41 16.36 8.68 22.43 11.45 36.07a24 24 0 0 1-.3 12.17c-1.02 3.63-4.3 8.49-7.86 10.65a197 197 0 0 1-15.23 8.5 688 688 0 0 1 1.9 20.55 1.1 1.1 0 0 1-1.02 1.18c-6.2.47-17.74 1.18-23.78.19-4.2-.69-7.1-1.48-9.77-3.73a17 17 0 0 1-5.64-8.2 89 89 0 0 1-1.86-8.95.63.63 0 0 0-1.24 0 81 81 0 0 1-1.75 8.59 15.8 15.8 0 0 1-5.97 8.34c-2.06 1.52-6.2 3.18-10.92 3.91a95 95 0 0 1-20.45.34 1.2 1.2 0 0 1-1.08-1.3c.58-6.89 1.06-12.23 2.02-20.99a199 199 0 0 1-15.07-8.43c-3.57-2.16-7.14-6.62-8.16-10.25a22 22 0 0 1 0-12.57c3.64-13.17 6.48-20.75 11.27-35.39a64 64 0 0 1 2.5-6.1c2.27-5.02 3.6-6.49 5.77-8.1a48 48 0 0 1 5.07-3.12c1.27-.65 3.04-1.4 5.01-2.18" class="g"/><path d="M269.39 216.55h33.53c2.57 0 2.58-4 0-4h-33.53c-2.57 0-2.58 4 0 4" class="d"/><path d="M258.4 71.1a4.4 4.4 0 0 0-3.14-1.15 5 5 0 0 0-.91.11c-.48-1.69-1.21-4.88-1.21-4.88a41 41 0 0 1-.03-13.74c2.95-14.53 17.57-26.05 32.9-25.21a30.5 30.5 0 0 1 13.39 2.37 33.5 33.5 0 0 1 17.2 16.09 29 29 0 0 1 1.9 5.05q.23.84.4 1.7c.92 4.5 2.07 13.3.06 18.91a5 5 0 0 0-1.84-.4 4.2 4.2 0 0 0-3.81 2.02c-.15-2.22-3.51-8.53-5-11.02-1.73-2.91-6.16-7.94-10.22-10.26-9.8 8.2-19.16 16.3-35.56 18.74Z" class="b"/><path d="M256.28 69.52a41 41 0 0 1-1.66-8.54 33 33 0 0 1 1.01-11.38 31.2 31.2 0 0 1 24.65-21.11 35 35 0 0 1 5.73-.26 35 35 0 0 1 7.22.54 31.6 31.6 0 0 1 20.57 14.89 33 33 0 0 1 3.93 12.95c.5 4.34.74 9.01-.7 13.2-.84 2.44 3.02 3.49 3.86 1.06 1.44-4.17 1.37-8.84.95-13.19a42 42 0 0 0-3.04-12.98 35.4 35.4 0 0 0-20.35-18.6 40 40 0 0 0-15.32-1.88 34 34 0 0 0-12.7 3.17 35 35 0 0 0-17.4 17.71 34 34 0 0 0-2.48 14.07 46 46 0 0 0 1.87 11.41c.69 2.48 4.55 1.43 3.86-1.06" class="d"/><path d="M298.03 53c5.96 4 10.04 10.42 12.64 17a2.06 2.06 0 0 0 2.46 1.4 2 2 0 0 0 1.4-2.46c-3.01-7.62-7.57-14.75-14.47-19.39a2 2 0 0 0-2.03 3.45" class="d"/><path d="M296.07 49.79a112 112 0 0 1-14.39 10.76 54 54 0 0 1-18.93 6.83 2 2 0 0 0-1.4 2.46 2.05 2.05 0 0 0 2.46 1.4A57 57 0 0 0 283.7 64a118 118 0 0 0 15.2-11.39c1.97-1.65-.87-4.47-2.84-2.83Zm-36.25 19.9a6.7 6.7 0 0 0-7.35-1.1 6.4 6.4 0 0 0-3.34 4.3 16 16 0 0 0 2.32 12.64c1.64 2.44 4.24 4.65 7.38 4.24a2.07 2.07 0 0 0 2-2 2 2 0 0 0-2-2c-2.17.28-3.59-1.52-4.53-3.26a13 13 0 0 1-1.56-4.82 8.3 8.3 0 0 1 .83-5.04c-.33.53.51-.43.2-.2a2 2 0 0 1 .92-.43 2.5 2.5 0 0 1 2.3.5c1.91 1.7 4.75-1.12 2.83-2.84Zm55.57 2.82a2.5 2.5 0 0 1 2.17-.51 2 2 0 0 1 1.05.45c-.3-.23.52.72.2.2a8.3 8.3 0 0 1 .82 5.05 13 13 0 0 1-1.55 4.81c-.94 1.75-2.36 3.55-4.54 3.27a2 2 0 0 0-2 2 2.05 2.05 0 0 0 2 2c5.12.66 8.27-4.86 9.55-9 1.15-3.72 1.09-9.47-2.55-11.85a6.7 6.7 0 0 0-7.98.75c-1.92 1.72.91 4.54 2.83 2.83" class="d"/><path d="M311.79 85.14a28 28 0 0 1-1.27 4.22c-.19.5-.32.76-.56 1.36-.2.5.14-.3-.03.07l-.18.38a36 36 0 0 1-3.09 5.15c-2.68 3.8-6.35 7.95-11.06 9.05-2.5.6-1.44 4.45 1.06 3.86 5.6-1.32 9.91-5.99 13.15-10.47a37 37 0 0 0 3.36-5.5q.3-.63.56-1.27c.22-.52-.16.35.08-.17l.42-1.02a28 28 0 0 0 1.42-4.6c.52-2.51-3.34-3.58-3.86-1.06m-55.13.97c2.4 10.53 10.33 22.02 21.71 23.73a2.07 2.07 0 0 0 2.46-1.4 2 2 0 0 0-1.4-2.46c-10.09-1.52-16.8-11.63-18.92-20.94-.57-2.51-4.43-1.45-3.86 1.06Zm24.08 8.96a12 12 0 0 0 5.75 1.34 9.5 9.5 0 0 0 5.91-1.8 2 2 0 0 0 0-2.82 2.06 2.06 0 0 0-2.83 0c.7-.54-.01-.02-.23.1-.17.09-.62.23.01.01l-.46.17c-.42.14-.89.16-1.3.3a12 12 0 0 1-2.49-.01l-.21-.03q-.24-.02.19.03a8 8 0 0 1-1.22-.27l-.5-.17c-.45-.15.42.2.02.01l-.62-.3a2 2 0 0 0-2.02 3.45Zm4.46-13.2a26 26 0 0 1 .6 2.76l-.07-.53v.38l.08-.53-.04.17.2-.48-.06.11.31-.4-.09.09.4-.31-.22.11.48-.2-.37.1.53-.06h-.34l.53.07-.39-.07a1.5 1.5 0 0 0-.8-.04 1.5 1.5 0 0 0-.74.24 2 2 0 0 0-.72 2.74l.31.4a2 2 0 0 0 .89.52c.35.04.68.13 1.04.15a3.4 3.4 0 0 0 1.6-.4 2.4 2.4 0 0 0 1.31-1.59 4 4 0 0 0-.01-1.65q-.24-1.32-.58-2.63a2 2 0 0 0-.92-1.2 2 2 0 0 0-2.74.71 2 2 0 0 0-.2 1.54Zm-14-7.95c-.46 1.5-.16 4.93 2.67 5.22 3.75-.02 3.95-4.18 2.69-6.13-1.04-1.6-4.07-2.27-5.36.9m29.98 0c.46 1.5.16 4.93-2.67 5.22-3.74-.02-3.94-4.18-2.68-6.13 1.03-1.6 4.06-2.27 5.35.9" class="d"/><path d="M269.44 125.12a71 71 0 0 0 16.13 2.32c5.15.01 12.47-.8 17.5-2.8" class="f"/><path d="M293.63 126.89a55 55 0 0 1-14.88.05 2.07 2.07 0 0 0-2.46 1.4 2 2 0 0 0 1.4 2.46 59 59 0 0 0 8.47.64 66 66 0 0 0 8.54-.7 2 2 0 0 0 1.4-2.45 2.05 2.05 0 0 0-2.46-1.4Zm-48.82 80.95-.07.72a2.2 2.2 0 0 0 .59 1.42 2.2 2.2 0 0 0 1.41.58l.53-.07a2 2 0 0 0 .89-.52l.3-.4a2 2 0 0 0 .28-1l.07-.73a2.05 2.05 0 0 0-2-2l-.53.07a2 2 0 0 0-.88.52l-.32.4a2 2 0 0 0-.27 1.01m81.2-30c.15-8.86.57-17.71.57-26.58 0-2.57-4-2.58-4 0 0 8.87-.42 17.72-.57 26.58-.04 2.58 3.96 2.58 4 0m-80.21-26.13c.03 8.47.96 16.88 1.24 25.33.09 2.57 4.09 2.58 4 0-.28-8.45-1.21-16.86-1.24-25.33 0-2.57-4-2.58-4 0" class="d"/><path d="M303.43 113.4c-1.86 7.17-4.16 14.23-6.43 21.27a708 708 0 0 1-8.6 25.3q-.95 2.65-1.98 5.28l-.8 2c-.21.5.16-.38-.05.1l-.17.4-.38.83 1.73-1h-1.08l1.72 1-.6-1.38-.18-.42-.48-1.18q-.88-2.23-1.7-4.47a502 502 0 0 1-4.08-11.55q-4.4-12.85-8.4-25.84c-1.04-3.43-2.1-6.86-3-10.34-.64-2.49-4.5-1.43-3.85 1.06 1.89 7.27 4.23 14.42 6.54 21.56a694 694 0 0 0 8.6 25.24c1.15 3.14 2.3 6.3 3.7 9.34a2 2 0 0 0 1.74.99h1.08a2 2 0 0 0 1.72-1c2.95-6.31 5.1-13.07 7.34-19.66q4.4-12.87 8.4-25.87c1.08-3.51 2.15-7.04 3.07-10.6.65-2.49-3.2-3.55-3.85-1.06Zm-26.4 52.8q-5.04-8.73-9.95-17.52-2.41-4.34-4.76-8.71-1.21-2.25-2.4-4.52c-.68-1.3-1.9-2.93-2.12-4.37v1.06c.08-.45.79-.99 1.12-1.32l1.59-1.59c1.85-1.8-.98-4.62-2.83-2.83-1.24 1.22-3.15 2.63-3.68 4.34-.57 1.87 1 3.94 1.83 5.51q2.8 5.39 5.73 10.7c3.9 7.15 7.94 14.22 12 21.27 1.29 2.23 4.75.22 3.46-2.02Zm34.95-22.08q2.19-4 4.3-8.03l1-1.93a13 13 0 0 0 1.12-2.42c.57-2.13-1.27-3.64-2.6-4.98-1.81-1.84-4.64 1-2.83 2.82q.78.78 1.53 1.59c.75.8-.24-.41.04-.43a8 8 0 0 0-.42.82q-.9 1.76-1.82 3.51a392 392 0 0 1-3.77 7.04 2 2 0 0 0 3.46 2.01Zm-13.56 24.1q3.18-5.5 6.25-11.06a2 2 0 1 0-3.46-2.02 572 572 0 0 1-6.24 11.05 2 2 0 0 0 3.45 2.02m25.8 41.3q.89 8.35 1.55 16.71a7 7 0 0 0 .14 1.8l.02.2q1.35-.94.44-.78a3 3 0 0 0-.57.05l-3.16.2q-3.36.23-6.73.33a64 64 0 0 1-12.67-.43 21 21 0 0 1-6.58-1.9 15 15 0 0 1-5.02-4.55 16 16 0 0 1-2.37-5.49q-.4-1.63-.72-3.27c-.27-1.37-.37-2.86-.76-4.2a2.64 2.64 0 0 0-2.81-1.96 2.7 2.7 0 0 0-2.36 2.43c-.5 2.5-.85 5.04-1.5 7.5a14 14 0 0 1-7.76 9.21c-4.37 2.03-9.25 2.57-14 2.8q-4.18.2-8.37.07a84 84 0 0 1-4.1-.22 4 4 0 0 0-.69-.06q-.67-.17-.04.3.41.7.33-.06a11 11 0 0 0 .16-1.96q.75-8.7 1.69-17.4a2 2 0 0 0-2-2 2.05 2.05 0 0 0-2 2q-.88 8.12-1.59 16.26c-.2 2.39-1.01 5.86 2.1 6.7a18 18 0 0 0 3.48.33q1.92.1 3.84.14a77 77 0 0 0 15.28-.94c4.99-.91 10.02-2.78 13.5-6.62a18 18 0 0 0 3.91-7.04c.35-1.2.6-2.43.84-3.64a40 40 0 0 1 .94-5l-.52.88-.34.21h-1.07l-.34-.21-.51-.88a30 30 0 0 1 .8 4.22q.38 1.96.85 3.9a18 18 0 0 0 2.9 6.33 20 20 0 0 0 5.94 5.52 22 22 0 0 0 7.2 2.35 69 69 0 0 0 14.36.68q3.7-.12 7.4-.36c2.15-.14 5.29.23 6.34-2.1.6-1.32.14-3.14.03-4.54l-.41-4.79q-.48-5.36-1.04-10.71a2.06 2.06 0 0 0-2-2 2 2 0 0 0-2 2Z" class="d"/><path d="M301.07 215.32a26 26 0 0 1-4.29 2.77c-5 2.28-8.82 3.77-10.82 4.47a13 13 0 0 1-3.52.68 3.2 3.2 0 0 1-3.28-2.76c-1.9.3-3.71.33-4.83-.43-1.9-1.3-.68-3.6-.64-3.67-1.51.26-2.7-.99-3.38-2a2.4 2.4 0 0 1-.35-1.01c-3.15-2.49-6.6-4.56-9.86-6.98 2.3-4.45 5-9.54 6.9-13.12l3.63.4c3.82.6 8.8.86 11.17 2.38l.71.46 1.78-.91a21 21 0 0 1 7.28-2.13c3.08-.02 6.36-.06 8.72-.01l3.27.06c2.06 3.88 4.99 9.39 7.34 13.99l-2.65 2c-1.16.87-4.25 3.59-7.18 5.8" class="a"/><path d="M270.1 195.6q1.64.25 3.29.45l.8.1.35.05c.04 0 .42.06.18.02l.27.04.36.05.79.12a26 26 0 0 1 2.77.58 15 15 0 0 1 1.09.35c.03-.01.2.1.24.11q.29.15.54.31a2 2 0 0 0 2.74-.72 2.04 2.04 0 0 0-.72-2.73 15 15 0 0 0-5.43-1.73q-1.72-.27-3.45-.48l-1.51-.2c-.25-.03.32.05-.08 0l-.34-.06-.83-.12a2.05 2.05 0 0 0-2.46 1.4 2 2 0 0 0 1.4 2.46m.3 15.6c-2.43-1.86-5.01-3.5-7.52-5.26a2 2 0 0 0-2.74.71 2.05 2.05 0 0 0 .72 2.74c2.5 1.76 5.09 3.4 7.52 5.26a2 2 0 0 0 1.54.2 2 2 0 0 0 1.4-2.46 2.4 2.4 0 0 0-.92-1.2Z" class="d"/><path d="M284.26 199.94a1.8 1.8 0 0 1-.3-1.51 1.2 1.2 0 0 1 .92-1.14c.3-.13-.03.01.18-.07l.51-.2a31 31 0 0 1 5.2-1.48c.67-.12-.33.01.28-.04.91-.07 1.84-.04 2.76-.04q3.24-.04 6.48 0c2.57.05 2.57-3.95 0-4-2.62-.05-5.25-.01-7.87 0a21 21 0 0 0-6.04 1.05c-1.88.6-4.23 1.2-5.41 2.9a6 6 0 0 0 .46 7.35c1.82 1.83 4.64-1 2.83-2.82" class="d"/><path d="M287.49 197.68c-5.02 3.02-10.34 5.52-15.12 8.92-2.17 1.54-4.3 3.07-4.44 6-.15 3 2.68 6.08 5.76 5.78l-1.73-3.01a5 5 0 0 0 .12 5.23c1.74 2.44 5 2.18 7.6 1.81l-2.52-1.92a5.3 5.3 0 0 0 2.45 4c1.72 1.07 3.84.8 5.71.35a57 57 0 0 0 9.25-3.59 36 36 0 0 0 4.7-2.25 47 47 0 0 0 3.93-2.82q1.89-1.48 3.73-3.02l1.43-1.2.66-.54.24-.19a2.07 2.07 0 0 0 .71-2.73 2 2 0 0 0-2.73-.72c-3.73 2.84-7.11 6.49-11.37 8.54a111 111 0 0 1-8.93 3.76 17 17 0 0 1-3.67 1.08 2.2 2.2 0 0 1-1.64-.11c-.25-.19-.5-.76-.47-.56a2.05 2.05 0 0 0-2.54-1.93c-.75.1-2.68.48-3.28-.24-.14-.17-.09-.3-.05-.5a4 4 0 0 1 .17-.57c-.02.08-.17.37-.04.14.66-1.22-.15-3.16-1.73-3.01-1.9.18-2.15-2-1-3.06a4 4 0 0 1 .58-.45q.55-.42 1.12-.82 1.16-.82 2.33-1.61c4.07-2.73 8.6-4.78 12.78-7.3 2.2-1.34.2-4.8-2.02-3.46Z" class="d"/><path d="M288.93 204.07c-2.03.95-3.97 2.09-5.92 3.17l-6.7 3.71a2 2 0 0 0-.72 2.74 2.04 2.04 0 0 0 2.74.72l6.7-3.72c1.95-1.08 3.9-2.22 5.92-3.16a2 2 0 0 0 .71-2.74 2.05 2.05 0 0 0-2.73-.72" class="d"/><path d="m245.2 176.06 1.82.98 1.75.94c7.02 3.77 14.43 7.75 22.4 12a.9.9 0 0 1 .36 1.18c-2.07 3.94-8.72 16.3-11.4 21.98a.85.85 0 0 1-1.12.44c-3.42-1.58-7.69-3.55-12.2-5.74l-.22-.1a197 197 0 0 1-15.33-8.56" class="g"/><path d="m244.33 177.79 12.6 6.76 6.55 3.51 3.6 1.92a26 26 0 0 1 3.45 1.89l-.72-.72c-.46-.66.32-1.15-.1-.55l-.22.42-.56 1.05-1.3 2.44q-1.63 3.06-3.24 6.13-1.65 3.13-3.27 6.28-.75 1.47-1.48 2.95a17 17 0 0 1-1.3 2.54l.71-.72-.11.04H260a22 22 0 0 1-3.78-1.7l-4.62-2.17a193 193 0 0 1-9.2-4.62 226 226 0 0 1-8.84-5.1 20 20 0 0 1-6.31-5.67 18 18 0 0 1-2.32-14.65c1.03-4.3 2.47-8.54 3.81-12.75q4.07-12.73 8.57-25.32l1.22-3.34c.1-.23.56-1.28.17-.45.54-1.14 1.06-2.3 1.67-3.4a14 14 0 0 1 3.23-3.92 26 26 0 0 1 2.39-1.61q1.34-.84 2.7-1.57c4.58-2.4 9.67-3.95 14.52-5.7a32 32 0 0 0 4.77-1.96l3.97-2.22c2.25-1.25.23-4.7-2.02-3.45l-4.81 2.68c-.24.14.02 0 .15-.05l-.84.31-2 .74-4.76 1.72c-5.87 2.14-12.18 4.5-16.86 8.25-3.66 2.93-5.4 7.52-6.96 11.8a726 726 0 0 0-5.53 15.98 531 531 0 0 0-6.15 19.24c-1.05 3.58-2 7.19-1.82 10.96a20.3 20.3 0 0 0 3.12 10.24c2.44 3.72 5.66 6.17 9.43 8.42 4.19 2.5 8.43 4.92 12.82 7.04q6 2.92 12.09 5.69a3.2 3.2 0 0 0 3.13.08 4.5 4.5 0 0 0 1.57-2.15q.98-2.02 2-4c2.85-5.58 5.92-11.04 8.73-16.62a3.3 3.3 0 0 0 .42-2.5c-.34-1.22-1.38-1.75-2.42-2.3l-6.57-3.5-12.63-6.77-5.69-3.06c-2.27-1.21-4.3 2.24-2.02 3.46m81.98-3.46q-12.44 6.68-24.89 13.34c-.98.52-2.01 1.02-2.38 2.16a3.3 3.3 0 0 0 .38 2.63q.83 1.62 1.7 3.2 2.34 4.4 4.65 8.82c1.51 2.89 3.02 5.78 4.44 8.71a4.4 4.4 0 0 0 1.38 1.96 3.1 3.1 0 0 0 3.27 0q2.98-1.36 5.96-2.77c4.29-2 8.55-4.06 12.7-6.36q3.14-1.75 6.24-3.6a34 34 0 0 0 5.33-3.63 20.7 20.7 0 0 0 6.44-9.99 25 25 0 0 0 .16-11.59c-1.4-6.34-3.7-12.58-5.72-18.74q-2.95-8.99-6.1-17.9c-1.44-4.08-2.78-8.4-5.34-11.93-3.36-4.65-9.14-7.12-14.5-9.21-3.24-1.28-6.52-2.44-9.8-3.62l-2-.74-.75-.27c-.3-.11.43.23.02 0q-1.36-.78-2.72-1.52l-2.05-1.15c-2.25-1.25-4.27 2.2-2.02 3.46a51 51 0 0 0 7.4 3.7c4.45 1.62 8.96 3.13 13.31 5a40 40 0 0 1 5.24 2.75 14 14 0 0 1 4.02 3.14 25 25 0 0 1 3.27 5.78c-.4-.82.08.23.17.46l.53 1.43a697 697 0 0 1 12.2 36.81c1.39 4.78 2.12 9.55.44 14.37-2.33 6.64-9.3 9.9-14.98 13.08a177 177 0 0 1-10.2 5.25l-4.9 2.32a26 26 0 0 1-4.56 2.05h1.07l-.12-.03.72.71a17 17 0 0 1-1.3-2.53q-.7-1.41-1.42-2.81-1.64-3.23-3.33-6.43l-3.18-6-1.36-2.57-.51-.96-.27-.5c-.42-.6.38-.16-.1.54l-.72.72a24 24 0 0 1 3.24-1.78l3.6-1.91 6.76-3.63 12.6-6.76c2.27-1.22.25-4.67-2.02-3.45Z" class="d"/><path d="M265.54 119.18a20 20 0 0 0 4.9-4.66 7 7 0 0 1-.44-1.41 7.3 7.3 0 0 1 .3-4.03c-1.36-5.47-6.6-8.34-9.64-8.87-5.17-.93-10.22-2.54-15.04-3.8a.53.53 0 0 0-.58.49c-.29 2.85-.72 5.58.37 7.52.72 1.27.72 1.47 3.08 3.14a63 63 0 0 1-7.55 2.23 1.97 1.97 0 0 0-1.24 2.88c2.62 4.39 8.32 7.95 13.01 8.87a17 17 0 0 0 12.83-2.36" class="i"/><path d="M261.36 104.7a18 18 0 0 0-12.02.39 76 76 0 0 1-7.8 2.48 5.7 5.7 0 0 0-3.05 1.44 4 4 0 0 0-1.03 3.08c.2 2.05 2.14 4.01 3.56 5.36a24 24 0 0 0 5.69 4.03 20.7 20.7 0 0 0 11.17 2.35 19.6 19.6 0 0 0 13.02-6.72c1.7-1.92-1.12-4.76-2.83-2.83a15.2 15.2 0 0 1-17.13 4.7 19.4 19.4 0 0 1-8.6-5.98q-.34-.44-.64-.9c-.15-.22-.26-.46-.28-.36.02-.11-.12.05.05-.03a12 12 0 0 1 1.8-.46 55 55 0 0 0 6.46-2.05 15 15 0 0 1 10.57-.64c2.46.76 3.52-3.1 1.06-3.86" class="d"/><path d="M248.82 105.35a4.5 4.5 0 0 1-1.99-2.79 9 9 0 0 1-.09-2.6 10 10 0 0 1 .33-2.8l-.52.89.21-.18-.88.51.27-.04h-1.07c2.78.73 5.53 1.53 8.3 2.26 2.54.67 5.18 1.03 7.7 1.76a10.6 10.6 0 0 1 7.3 7.25c.65 2.49 4.51 1.44 3.85-1.06a14.7 14.7 0 0 0-11.04-10.28c-3.95-.79-7.83-1.81-11.72-2.89-1.62-.45-4.06-1.65-5.53-.34-1.27 1.13-1.12 3.54-1.2 5.13a10 10 0 0 0 1.01 5.38 10 10 0 0 0 3.05 3.25 2 2 0 0 0 2.74-.72 2.05 2.05 0 0 0-.72-2.73" class="d"/><path d="M270.62 105.7a5 5 0 0 0-1.9 2.02 9 9 0 0 0-.85 3.24 10.3 10.3 0 0 0 1.37 5.67 2 2 0 0 0 2.74.72 2.04 2.04 0 0 0 .72-2.74l-.4-.8q-.14-.3.02.08a2 2 0 0 0-.15-.4q-.1-.26-.16-.53l-.11-.53c-.08-.42.02.4 0-.07a11 11 0 0 1-.05-1.1 1 1 0 0 1 .04-.51q-.07.43-.01.1l.05-.3a3 3 0 0 1 .31-1q-.18.42-.04.13l.12-.2.06-.1q.18-.26-.12.13a2 2 0 0 0 .31-.31q.24-.2-.13.1l.2-.14a2 2 0 1 0-2.02-3.45Z" class="d"/><path d="M300.75 119.3c-4.4 2.54-9.86 3.3-14.3 3.3-5.85 0-10.36-1.32-12.85-2.96-2.24-1.47-3.1-5.16-2.46-10.76l.08-.7 2.76.68a50 50 0 0 0 13.09 1.22c4.33-.24 7.04-1.05 11.74-1.77a3.2 3.2 0 0 1 2.5.6 6.8 6.8 0 0 1 2.01 5.29c-.1 1.1.22 3.23-1.27 4.27q-.63.45-1.3.83" class="i"/><path d="M299.74 117.58c-5.98 3.37-14.04 3.87-20.62 2.19a16 16 0 0 1-3.64-1.34 3.4 3.4 0 0 1-1.79-1.69c-1.24-2.55-.78-5.85-.47-8.55l-2.53 1.92c6.8 1.67 13.6 2.55 20.58 1.54 1.66-.25 3.31-.58 4.96-.88 1.21-.22 3.28-1.1 4.17.07a5.8 5.8 0 0 1 .9 3.82 5 5 0 0 1-.15 1.76c-.23.6-.88.84-1.41 1.15-2.21 1.31-.2 4.77 2.02 3.46 1.92-1.14 3.17-2.38 3.45-4.67a14 14 0 0 0-.2-4.93 6.8 6.8 0 0 0-3.7-4.8c-1.96-.75-4.16-.08-6.14.28a53 53 0 0 1-12.37 1.16 59 59 0 0 1-11.04-1.81 2.04 2.04 0 0 0-2.54 1.92c-.4 3.5-.63 7.35 1.02 10.58 1.37 2.67 4.4 3.9 7.13 4.68 7.76 2.23 17.31 1.58 24.4-2.41 2.23-1.27.22-4.72-2.03-3.45" class="d"/><path d="M319.21 142H303.3v6.22h15.92Z" class="h"/><path d="M318.24 140h-11.76c-1.21 0-2.69-.23-3.76.44a3.1 3.1 0 0 0-1.43 2.6c-.03 1.06 0 2.13 0 3.18v.98a3.05 3.05 0 0 0 2.07 2.87 8 8 0 0 0 2.26.15h9.48c1.1 0 2.23.07 3.33-.02a3 3 0 0 0 2.78-2.97c.05-1.03 0-2.07 0-3.1q.02-.57 0-1.15a3.06 3.06 0 0 0-2.97-2.98 2 2 0 0 0-2 2 2.05 2.05 0 0 0 2 2c-.55-.05-1.08-.7-1.03-.95v3.04a4 4 0 0 0 0 1.06c.1.27.24-.56.3-.63l.72-.3H304.6a1 1 0 0 0-.32 0l.72.3.3.71v-.17a7 7 0 0 0 0-1.12c0-.9.07-1.82 0-2.71v-.24q0-.4-.3.71c-.67.67-.98.2-.4.3a22 22 0 0 0 3.27 0h10.37c2.57 0 2.57-4 0-4" class="d"/><path d="M92.87 206.3a29 29 0 0 1-4.7 3.05 157 157 0 0 1-11.85 4.9 14 14 0 0 1-3.86.74 3.5 3.5 0 0 1-3.6-3.02c-2.07.32-4.06.37-5.28-.47-2.1-1.42-.75-3.95-.7-4.02-1.66.29-2.97-1.09-3.7-2.18a3 3 0 0 1-.4-1.12c-3.43-2.72-7.21-4.99-10.78-7.64 2.51-4.88 5.47-10.45 7.55-14.38l3.98.44c4.18.67 9.63.95 12.23 2.61l.78.5 1.94-1a23 23 0 0 1 7.97-2.33c3.38-.02 6.97-.07 9.56-.01l3.58.07c2.26 4.25 5.46 10.28 8.04 15.32l-2.9 2.19c-1.27.95-4.65 3.93-7.86 6.36" class="a"/><path d="M59 184.53q1.77.26 3.55.49l.88.11.39.05.22.03.32.05.4.05.85.13a28 28 0 0 1 3.04.64q.66.18 1.3.43c.24.08.07.04-.06-.03l.27.12.6.34a2 2 0 0 0 2.73-.72 2.04 2.04 0 0 0-.72-2.74 16 16 0 0 0-5.9-1.86q-1.86-.3-3.73-.53l-1.65-.21-.14-.02-.37-.05-.92-.14a2.05 2.05 0 0 0-2.46 1.4 2 2 0 0 0 1.4 2.46m.17 17.43c-2.66-2.04-5.49-3.84-8.23-5.76a2 2 0 0 0-2.74.72 2.05 2.05 0 0 0 .72 2.73c2.75 1.92 5.57 3.73 8.24 5.77a2 2 0 0 0 1.54.2 2 2 0 0 0 1.4-2.46 2.4 2.4 0 0 0-.92-1.2Z" class="d"/><path d="M74.32 189.6a2.3 2.3 0 0 1-.24-2.3c.26-.7.86-.86 1.44-1.1a30 30 0 0 1 5.88-1.71 45 45 0 0 1 6.91-.14q2.6.02 5.2 0c2.57-.05 2.58-4.05 0-4-2.26.03-4.52 0-6.78 0a33 33 0 0 0-8.33.72 36 36 0 0 0-3.56 1.14 9 9 0 0 0-3.19 1.62 6.36 6.36 0 0 0-.16 8.6c1.8 1.84 4.63-.99 2.83-2.83" class="d"/><path d="M78.09 187.16c-5.47 3.3-11.27 6.01-16.48 9.71-2.32 1.65-4.55 3.2-4.84 6.29-.29 3.23 2.78 6.66 6.11 6.31l-1.73-3a5.2 5.2 0 0 0 .14 5.54c1.87 2.56 5.33 2.29 8.11 1.89l-2.53-1.93a5.5 5.5 0 0 0 2.09 3.85 6.1 6.1 0 0 0 4.99 1.01c2.93-.38 5.72-1.68 8.43-2.8a51 51 0 0 0 9.46-4.52 98 98 0 0 0 7.33-5.7l1.62-1.35.65-.54c.1-.08.59-.47.4-.31l.44-.36.58-.5 1.08-.9c1.96-1.66-.88-4.48-2.83-2.83l-1.66 1.4c-.37.32.59-.45-.04.04l-.51.4-1.03.85c-1.9 1.57-3.79 3.18-5.75 4.68-4.5 3.43-9.74 5.48-15 7.45a17 17 0 0 1-4.03 1.1 2 2 0 0 1-1.7-.26 2 2 0 0 1-.38-.47c-.08-.14-.16-.48-.14-.23a2.05 2.05 0 0 0-2.53-1.93c-.86.12-3.37.57-3.9-.47a1 1 0 0 1 .02-.64c.01-.07.2-.65.1-.37-.09.26.02-.02.05-.08.66-1.21-.14-3.17-1.73-3.01-2.2.23-2.63-2.42-1.25-3.67a43 43 0 0 1 4.33-3.1c4.5-3.02 9.5-5.3 14.15-8.1 2.2-1.32.19-4.78-2.02-3.45" class="d"/><path d="M79.67 194.16c-2.22 1.04-4.35 2.28-6.5 3.46q-3.65 2.05-7.32 4.08a2 2 0 0 0 2.02 3.45l7.33-4.07c2.14-1.18 4.27-2.43 6.48-3.47a2 2 0 0 0 .72-2.73 2.05 2.05 0 0 0-2.73-.72M94.53 93.37l3.86 2.38a23 23 0 0 0 4.34 1.9c5.04 1.84 10.16 3.55 15.08 5.7a45 45 0 0 1 5.96 3.25 14 14 0 0 1 4.22 3.83 25 25 0 0 1 1.9 3.38q.43.86.81 1.72c.23.49 0-.03.02.04l1.23 3.03q5.22 13.11 9.93 26.43c1.67 4.7 3.28 9.43 4.7 14.21 1.57 5.3 2.34 10.84.31 16.15-2.8 7.34-10.33 10.92-16.74 14.52a193 193 0 0 1-11.21 5.78q-2.92 1.4-5.85 2.76l-2.69 1.24-1.09.5-.7.33q-.7.28.01.07l.88.51c-.58-.47-.95-1.84-1.3-2.53l-1.61-3.2q-1.85-3.61-3.74-7.2l-3.62-6.84-1.42-2.68-.62-1.16q-.12-.26-.27-.51c-.43-.67.24-.17-.12.35l-.72.72a27 27 0 0 1 3.73-2.05l3.84-2.04 7.46-4 14.3-7.68c2.27-1.21.25-4.66-2.02-3.45-9.4 5.03-18.79 10.1-28.2 15.1a3.8 3.8 0 0 0-2.3 2.4 4 4 0 0 0 .62 2.75l1.93 3.64q2.63 4.95 5.23 9.91a348 348 0 0 1 4.83 9.5 4.5 4.5 0 0 0 1.38 1.96c1.21.82 2.34.53 3.58-.04l6.68-3.1c4.8-2.25 9.56-4.55 14.2-7.13q3.6-2 7.13-4.12a35 35 0 0 0 5.97-4.15 23 23 0 0 0 6.84-10.84 27.4 27.4 0 0 0 .19-12.72 101 101 0 0 0-2.92-9.83 422 422 0 0 0-3.64-10.54q-3.53-9.88-7.36-19.65c-1.64-4.23-3.14-8.74-5.5-12.64-3.46-5.69-9.93-8.59-15.87-10.95-3.68-1.46-7.4-2.78-11.13-4.13l-2.28-.83-.92-.34-.42-.16c-.56-.17.14.09.05.03l-2.65-1.63-2.28-1.4c-2.2-1.36-4.2 2.1-2.02 3.45M55.6 89.92l-4.94 3.04c.56-.34-.16.05-.36.13l-.92.34-2.42.88-5.41 1.96c-6.27 2.3-13 4.6-18.14 9.04-3.87 3.35-5.58 8.47-7.42 13.11q-3.55 8.98-6.88 18.05c-2.5 6.8-4.94 13.62-7.05 20.55-1.2 3.96-2.24 7.97-2.03 12.15a22.5 22.5 0 0 0 3.35 11.22 27 27 0 0 0 4.63 5.43 38 38 0 0 0 5.87 4 190 190 0 0 0 14.01 7.73q6.94 3.39 13.98 6.59a3.3 3.3 0 0 0 3.2.1 4.6 4.6 0 0 0 1.63-2.22q1.07-2.18 2.17-4.35c3.18-6.23 6.5-12.4 9.77-18.59a4 4 0 0 0 .66-2.48c-.19-1.38-1.2-2.05-2.34-2.66l-7.5-4q-7-3.74-13.98-7.5l-6.72-3.6c-2.27-1.22-4.3 2.23-2.02 3.45l14.3 7.68 7.25 3.87 3.83 2.05a29 29 0 0 1 3.95 2.16l-.72-.72c-.4-.57.3-.98-.09-.43l-.26.5-.6 1.14-1.48 2.79q-1.82 3.42-3.62 6.85-1.89 3.58-3.74 7.18l-1.55 3.1c-.36.71-.76 2.15-1.37 2.64l.89-.51.35.09-.7-.32-1.08-.5-2.26-1.05-5.34-2.5a205 205 0 0 1-10.02-5.03 254 254 0 0 1-10.17-5.86 22.5 22.5 0 0 1-6.93-6.23 20.4 20.4 0 0 1-2.8-16.37 137 137 0 0 1 4.38-14.08 680 680 0 0 1 10.34-27.9q.8-2.04 1.63-4.09l.49-1.19c.07-.18-.23.5 0 .02l.82-1.8a16 16 0 0 1 4.22-5.84l.43-.37c.19-.14-.49.35.1-.06q.68-.48 1.37-.91 1.64-1.04 3.34-1.98c5-2.74 10.67-4.43 16.01-6.36a30 30 0 0 0 5.56-2.22l4.34-2.67c2.18-1.35.18-4.81-2.02-3.46Z" class="d"/><path d="M50.12 198.63q4.51-9.28 9.22-18.46a2.05 2.05 0 0 0-.72-2.73 2 2 0 0 0-2.74.71q-4.7 9.18-9.21 18.46a2.05 2.05 0 0 0 .71 2.73 2 2 0 0 0 2.74-.71m43.5-17.13c2.75 5.9 5.56 11.78 8.2 17.73a2 2 0 0 0 2.74.72 2.05 2.05 0 0 0 .71-2.74c-2.64-5.95-5.44-11.83-8.19-17.73a2 2 0 0 0-2.74-.72 2.05 2.05 0 0 0-.71 2.74" class="d"/></svg>
