<svg xmlns="http://www.w3.org/2000/svg" viewBox="0 -63.12 384.758 384.758"><defs><style>.a{fill:#fff}.c{fill:#7a7473}.d{fill:#211715}.e{fill:#febe69}.f{fill:#d9d9d9}.g{fill:#85807f}</style></defs><path d="M131.9 60.96a5.6 5.6 0 0 1 4.07-1.5 5.2 5.2 0 0 1 4.69 2.6c1.6 2.77 1.52 7.86.45 11-.75 2.24-2 5.65-4.98 8.1a6 6 0 0 1-5.31 1.25 41 41 0 0 1-8.25 14.81 34.6 34.6 0 0 1-26.68 12.32 56 56 0 0 1-8.28-1.1 32.2 32.2 0 0 1-18.57-10.98 41 41 0 0 1-8.06-15.03 6 6 0 0 1-5.23-1.27c-2.99-2.45-4.23-5.86-4.98-8.09-1.07-3.15-1.14-8.24.45-11a5.2 5.2 0 0 1 4.69-2.6 5.6 5.6 0 0 1 4.06 1.49s-6.15-30.24 35.97-30.24 35.97 30.24 35.97 30.24m176.92 110.46a1111 1111 0 0 0 13.84-42.44 22 22 0 0 1-2.17 1.61c-5.57 3.64-12.48 4.73-18.1 4.73-7.41 0-13.12-1.9-16.28-4.25-1.75-1.3-2.83-3.81-3.21-7.44h-4.72c5.02 17.53 17.89 56.44 22.36 65.95h1.37c1.53-3.27 4.06-10.01 6.91-18.16" class="a"/><path d="M82.92 145.45c-5.87-17.3-11.81-36.04-14.03-44.51v-3.66l.15.18a32.2 32.2 0 0 0 18.57 10.98 56 56 0 0 0 8.28 1.1 34.6 34.6 0 0 0 26.68-12.32q.48-.55.92-1.1v4.84c-4.1 15.7-20.96 66.77-26.48 78.39h-1.54c-2.55-5.36-7.52-19.1-12.55-33.9" class="a"/><path d="M90.73 132.88c.32-2.35.5-3.84.5-4.06-.03-1.45-3.46-9.11-4.11-10.5a97 97 0 0 1 5.23-6.75l1.9-2.12 1.64.1.98-.04c.3-2.08 4.46 3.26 7.85 7.92-.61 2.35-3.1 10.47-3.1 11.25 0 .45 2 15.83 3.5 28.74l.07.6c-3.37 9.57-6.38 17.54-8.17 21.33h-1.55c-1.81-3.81-4.85-11.87-8.26-21.52 1.35-9.56 2.78-19.54 3.52-24.95" style="fill:#3d8dcc"/><path d="M237.64 229.21a365 365 0 0 1-5.79-3.45c-4.52-2.74-9.04-8.38-10.33-12.98a28 28 0 0 1 0-15.9c4.61-16.68 15.8-47.7 17.03-50.39a46 46 0 0 1 7.7-12.39 32 32 0 0 1 6.64-5.12c6.87-4.08 18.3-8.99 23.94-10.3 3.43 13.55 18.74 60.34 23.71 70.9h1.37c4.97-10.58 20.3-57.54 23.69-70.99 5.5 1.2 17.26 6.22 24.27 10.39a32 32 0 0 1 6.63 5.12 46 46 0 0 1 7.71 12.39c1.22 2.7 12.42 33.7 17.02 50.38a28 28 0 0 1 0 15.9c-1.29 4.6-5.8 10.25-10.33 12.98a251 251 0 0 1-19.4 10.84l-.27.12c-5.71 2.78-11.12 5.27-15.45 7.27a1.1 1.1 0 0 1-1.41-.56 456 456 0 0 0-7.64-15h-50.7a449 449 0 0 0-7.63 15 1.1 1.1 0 0 1-1.42.56c-4.33-2-9.74-4.5-15.44-7.26l-.28-.13a214 214 0 0 1-13.62-7.38" class="c"/><path d="M351.5 198.73c.17-10.79.7-21.57.7-32.36 0-3.1-4.8-3.1-4.8 0 0 10.8-.53 21.57-.7 32.36-.05 3.1 4.75 3.1 4.8 0m-101.29-31.8c.03 10.72 1.22 21.37 1.57 32.07.1 3.08 4.9 3.1 4.8 0-.35-10.7-1.54-21.35-1.57-32.06 0-3.1-4.8-3.1-4.8 0m72.94-48.44c-2.36 9.1-5.29 18.06-8.17 27-3.45 10.7-7 21.39-10.85 31.96q-1.2 3.34-2.5 6.64-.52 1.34-1.07 2.66l-.03.07-.24.54-.45 1 2.07-1.18h-1.37l2.07 1.18q-.4-.87-.78-1.75c-.16-.38.18.43-.03-.09l-.23-.54-.47-1.17q-1.13-2.85-2.2-5.74a630 630 0 0 1-5.22-14.8q-5.56-16.24-10.61-32.65a315 315 0 0 1-3.81-13.13c-.78-2.99-5.4-1.72-4.63 1.27 2.37 9.15 5.33 18.16 8.23 27.15a885 885 0 0 0 10.95 32.16c1.44 3.94 2.88 7.91 4.66 11.71a2.4 2.4 0 0 0 2.07 1.2h1.37a2.4 2.4 0 0 0 2.07-1.2c3.73-7.97 6.42-16.5 9.26-24.8q5.6-16.4 10.7-32.95c1.34-4.4 2.69-8.81 3.84-13.27.78-2.99-3.85-4.27-4.63-1.27m-33.67 68.11a1470 1470 0 0 1-13.93-24.6q-3.39-6.16-6.68-12.36-1.6-3.03-3.17-6.08c-.16-.3-.59-1.66-.51-.49q-.37.51.16-.12l.64-.67a99 99 0 0 1 2.62-2.63c2.22-2.16-1.18-5.55-3.4-3.4a27 27 0 0 0-4.14 4.39c-1.15 1.84-.41 3.6.49 5.35q2.68 5.2 5.46 10.37 5.7 10.6 11.66 21.04 3.3 5.82 6.66 11.62c1.54 2.68 5.69.26 4.14-2.42m44.25-28.07q2.78-5.05 5.43-10.17l1.27-2.44a16 16 0 0 0 1.41-3.03c.7-2.64-1.6-4.52-3.26-6.18-2.17-2.2-5.57 1.2-3.4 3.4q1 .97 1.94 2c.94 1.03-.23-.37.08-.4a7 7 0 0 0-.54 1.05l-2.3 4.45a510 510 0 0 1-4.77 8.9c-1.49 2.71 2.66 5.13 4.14 2.42m-17.16 30.5q4.03-6.95 7.9-14a2.4 2.4 0 1 0-4.14-2.42q-3.88 7.04-7.9 14a2.4 2.4 0 1 0 4.14 2.42" class="d"/><path d="M319.63 130.9c-5.56 3.64-12.47 4.73-18.1 4.73-7.4 0-13.11-1.9-16.27-4.24-2.83-2.1-3.92-7.38-3.1-15.37l.1-1 3.5.96a57 57 0 0 0 16.55 1.75c5.48-.34 8.92-1.5 14.87-2.53a3.7 3.7 0 0 1 3.17.86 10.4 10.4 0 0 1 2.54 7.56c-.12 1.57.27 4.62-1.6 6.1q-.8.64-1.66 1.19" class="e"/><path d="M341.77 155.91h-17.68a1.24 1.24 0 0 0-1.24 1.24v5.38a1.24 1.24 0 0 0 1.24 1.25h17.67a1.24 1.24 0 0 0 1.24-1.25v-5.38a1.24 1.24 0 0 0-1.24-1.24" class="f"/><path d="M318.42 128.84c-6.24 4-14.12 4.97-21.38 4.15a24 24 0 0 1-8.87-2.59 13 13 0 0 1-1.5-.93c.28.2-.12-.1-.2-.18s-.6-.66-.34-.33a7 7 0 0 1-1.31-2.94c-.9-3.57-.53-7.4-.16-11l-3.04 2.31c6.75 1.87 13.64 3.23 20.69 2.8a74 74 0 0 0 10.74-1.69l2.7-.55a7 7 0 0 1 2.45-.33c1.14.27 1.7 2.06 1.96 3.06a17 17 0 0 1 .27 5 5 5 0 0 1-.26 1.67c-.3.7-1.11 1.12-1.75 1.54-2.56 1.7-.16 5.87 2.42 4.15 1.8-1.2 3.34-2.41 4-4.57a18 18 0 0 0 .44-4.68c.09-3.88-1.28-9.33-5.45-10.7-2.14-.7-4.52.06-6.64.49-1.98.4-3.94.85-5.93 1.2a46 46 0 0 1-12.2.46 68 68 0 0 1-12.16-2.48 2.44 2.44 0 0 0-3.04 2.32c-.63 6.18-1.25 14.74 4.6 18.74 6.26 4.27 15.09 4.85 22.38 3.94a33.4 33.4 0 0 0 14.01-4.72c2.59-1.66.19-5.82-2.43-4.14m23.34 24.67h-14.88c-1.5 0-3.36-.3-4.7.54a3.8 3.8 0 0 0-1.73 3.18c-.05 1.34 0 2.69 0 4.02q-.02.63 0 1.25a3.7 3.7 0 0 0 2.52 3.5 9 9 0 0 0 2.82.18h12c1.4 0 2.83.1 4.22-.02a3.7 3.7 0 0 0 3.4-3.62c.05-1.3 0-2.63 0-3.93v-1.45a3.74 3.74 0 0 0-3.65-3.65 2.4 2.4 0 0 0-2.4 2.4 2.45 2.45 0 0 0 2.4 2.4c-.63-.06-1.22-.83-1.16-1.07a2 2 0 0 0 0 .45v3.4a5 5 0 0 0 0 1.33c.13.33.25-.58.34-.7l.82-.33H324.5a1 1 0 0 0-.4 0c.96-.37.97 1.21 1.15 1.15v-.22a9 9 0 0 0 0-1.41c0-1.13.1-2.31 0-3.44 0-.07.03-.22 0-.29-.1-.22 4.34-3.88-.34.8-.77.77-1.1.23-.42.34a27 27 0 0 0 4.15 0h13.13c3.08-.01 3.09-4.81 0-4.81" class="d"/><path d="m321.46 218.49-2.41-.05c-3-.07-7.15-.01-11.05.01-2.52.02-6.95 1.54-9.2 2.7l-2.26 1.15-.9-.57c-3-1.93-9.3-2.25-14.14-3.02l-.3-.04c-2.53 4.77-6.57 12.36-9.7 18.5 3.1 2.14 6.23 4.16 9.16 6.48a3 3 0 0 0 .44 1.29c.86 1.27 2.37 2.86 4.28 2.52-.05.09-1.6 3 .81 4.65 1.42.96 3.72.91 6.11.55a4.05 4.05 0 0 0 4.16 3.49 16 16 0 0 0 4.46-.86c2.52-.9 7.37-2.78 13.7-5.66a33 33 0 0 0 5.42-3.52c3.7-2.8 7.62-6.24 9.09-7.35l2.12-1.6c-3.17-6.24-7.27-13.92-9.8-18.67" class="a"/><path d="M280.87 221.02q2.05.31 4.12.57l1.02.13.45.06.25.03.35.05.45.06 1 .16a33 33 0 0 1 3.51.73q.76.2 1.51.5c.29.1.05.03-.1-.04l.3.14q.36.18.7.39a2.4 2.4 0 0 0 3.28-.86 2.45 2.45 0 0 0-.86-3.28 19 19 0 0 0-6.84-2.17q-2.17-.34-4.34-.61l-1.9-.25c-.3-.03.32.05-.14-.01l-.43-.07-1.06-.16a2.46 2.46 0 0 0-2.95 1.68 2.43 2.43 0 0 0 1.68 2.95m.27 19.98c-2.73-2.09-5.6-3.96-8.43-5.91a2.4 2.4 0 0 0-3.28.86 2.46 2.46 0 0 0 .86 3.29c2.82 1.94 5.7 3.82 8.43 5.9a2.4 2.4 0 0 0 1.84.25 2.4 2.4 0 0 0 1.68-2.96 3 3 0 0 0-1.1-1.43" class="d"/><path d="M298.66 226.73a2.4 2.4 0 0 1-.4-2.03 1.7 1.7 0 0 1 1.22-1.52 41 41 0 0 1 5.45-1.8 22 22 0 0 1 5.91-.55q4.1-.04 8.2 0c3.1.06 3.1-4.74 0-4.8-3.32-.06-6.64-.01-9.96.01a26 26 0 0 0-7.6 1.32c-2.35.74-5.3 1.5-6.78 3.6a7.45 7.45 0 0 0 .56 9.16c2.18 2.2 5.58-1.2 3.4-3.4Z" class="d"/><path d="M302.9 223.9c-6.22 3.76-12.85 6.85-18.8 11.06-2.73 1.93-5.44 3.7-5.84 7.32-.42 3.82 3.11 8.02 7.12 7.57l-2.07-3.61a6.2 6.2 0 0 0 .05 6.37c2.16 3.12 6.28 2.82 9.58 2.35l-3.04-2.31a6.46 6.46 0 0 0 7 5.85 32 32 0 0 0 9.1-2.6 101 101 0 0 0 10.62-4.61 52 52 0 0 0 7.4-5.28q1.94-1.55 3.85-3.15l1.64-1.36.62-.52c.16-.12.8-.62.2-.16a2.5 2.5 0 0 0 .86-3.28 2.4 2.4 0 0 0-3.28-.86c-3.86 2.94-7.4 6.3-11.42 9.04a46 46 0 0 1-7.94 3.97q-3.75 1.62-7.6 3.03a12 12 0 0 1-4.83 1.03 1.5 1.5 0 0 1-.98-.5 2 2 0 0 1-.4-.59c.17.35-.1-.72-.04-.01a2.45 2.45 0 0 0-3.04-2.32c-1.13.17-3.42.6-4.33-.4-.13-.14-.09-.56-.06-.69q.1-.38.24-.74c-.2.61-.14.32-.05.16.8-1.44-.18-3.83-2.08-3.61a1.6 1.6 0 0 1-1.52-.53 4 4 0 0 1-.5-.55s-.38-.67-.25-.33a2.5 2.5 0 0 1 .77-2.57l.36-.3c.37-.32-.24.17.17-.14l1.5-1.1q1.47-1.05 2.96-2.05c2-1.35 4.13-2.47 6.24-3.63 3.44-1.89 6.87-3.79 10.22-5.81 2.64-1.6.23-5.75-2.42-4.15" class="d"/><path d="M304.73 231.99c-2.56 1.2-5.02 2.63-7.5 4l-8.47 4.7a2.4 2.4 0 0 0 2.42 4.15l8.48-4.7c2.47-1.37 4.93-2.81 7.49-4a2.4 2.4 0 0 0 .86-3.3 2.45 2.45 0 0 0-3.28-.85m47.32-37.57c-9.52 5.09-19 10.22-28.53 15.3l-3.47 1.84c-1.32.7-2.46 1.54-2.6 3.16-.14 1.57.9 3 1.6 4.35l4.86 9.16a794 794 0 0 1 5.53 10.64q1.14 2.23 2.24 4.48a7 7 0 0 0 1.32 2.17c1.29 1.23 2.85 1.05 4.33.38a313 313 0 0 0 28.37-14.25c4.43-2.57 8.94-5 12.37-8.9a25.3 25.3 0 0 0 6.03-11.54 31 31 0 0 0-.19-13.58c-.83-3.57-2-7.08-3.09-10.58a695 695 0 0 0-13.41-38.98 48 48 0 0 0-9.6-16.1 38 38 0 0 0-9.52-6.64 130 130 0 0 0-13.04-6.04 89 89 0 0 0-5.84-2.13c-2.95-.95-4.21 3.68-1.28 4.63a108 108 0 0 1 17.07 7.33 54 54 0 0 1 6.5 3.95 24 24 0 0 1 4.96 5 45 45 0 0 1 4.3 7.1 20 20 0 0 0 1.18 2.52c.27.39-.2-.53-.1-.25l.48 1.2q1.76 4.63 3.4 9.3c3.52 9.8 6.9 19.67 10.04 29.61 1.58 5.03 3.64 10.34 3.98 15.63a21.7 21.7 0 0 1-4.35 15.08 29 29 0 0 1-8.25 6.85 276 276 0 0 1-11.15 6.37c-3.72 2-7.52 3.83-11.33 5.63l-5.24 2.46-2.61 1.21-1.07.5-.69.31q-.78.32.22.02l1.06.61a6 6 0 0 1-.93-1.76q-.58-1.2-1.18-2.38-1.33-2.65-2.7-5.28-2.87-5.54-5.8-11.05l-2.38-4.48-.94-1.77a4 4 0 0 0-.4-.75c-.28-.3.08-.88-.35.6-.41 1.38.1.63.85.23q7.7-4.1 15.37-8.21l16.4-8.81c2.73-1.46.3-5.6-2.41-4.15Zm-103.77 4.14c9.95 5.32 19.87 10.68 29.83 15.99l1.73.92a6 6 0 0 0 1.1.59l.22.11q-.1-2.43-.52-1.56a9 9 0 0 0-.87 1.64l-2.28 4.3q-2.85 5.36-5.66 10.75-1.6 3.05-3.15 6.12-.65 1.28-1.28 2.57a8 8 0 0 1-1.16 2.25l1.06-.62.55.14-.68-.32-1.05-.48-2.21-1.03-5.17-2.41c-3.37-1.6-6.75-3.19-10.06-4.92a238 238 0 0 1-10.02-5.57c-2.88-1.68-5.97-3.24-8.45-5.5a21.6 21.6 0 0 1-7.32-14.11c-.53-5.63 1.18-10.91 2.8-16.23a719 719 0 0 1 10-30.02q1.93-5.48 3.96-10.93c.34-.93.73-1.85 1.07-2.79.08-.2-.36.64-.1.26a23 23 0 0 0 1.19-2.52q1.08-2.2 2.36-4.28a29 29 0 0 1 4.88-6.22 36 36 0 0 1 6.87-4.67 107 107 0 0 1 18.71-8.22c2.93-.95 1.68-5.59-1.27-4.63a114 114 0 0 0-12.7 5.1 77 77 0 0 0-10.92 5.89 28 28 0 0 0-4.88 3.92 44 44 0 0 0-3.43 4.3 48 48 0 0 0-5.36 9.87c-1.8 4.39-3.33 8.9-4.9 13.37q-3.87 10.92-7.47 21.93-1.76 5.4-3.38 10.81c-1.25 4.24-2.4 8.48-2.34 12.94a27 27 0 0 0 2.64 11.62 28 28 0 0 0 9.56 10.62c9.2 5.96 19.07 10.83 28.98 15.46q3.2 1.51 6.44 2.98a3.6 3.6 0 0 0 4.03-.35 7 7 0 0 0 1.45-2.27q2.42-4.93 4.97-9.79 2.73-5.24 5.52-10.46l2.19-4.13c.74-1.4 1.87-2.94 1.51-4.58a4 4 0 0 0-2.35-2.72l-4.11-2.19-7.17-3.83-14.28-7.66q-3.32-1.8-6.65-3.57c-2.72-1.46-5.15 2.68-2.42 4.14Z" class="d"/><path d="M275.07 132.09a26 26 0 0 0 6.2-5.9 8 8 0 0 1-.56-1.79 9 9 0 0 1 .38-5.1c-1.73-6.91-8.37-10.56-12.2-11.23-6.55-1.17-12.94-3.2-19.04-4.79a.67.67 0 0 0-.74.6c-.37 3.61-.9 7.07.47 9.52.91 1.62.91 1.87 3.9 3.98a80 80 0 0 1-9.56 2.83 2.5 2.5 0 0 0-1.57 3.65c3.31 5.54 10.53 10.06 16.47 11.22a21.6 21.6 0 0 0 16.25-3" class="e"/><path d="M269.74 113.9a22.5 22.5 0 0 0-14.96.41 99 99 0 0 1-9.48 3.07c-1.48.38-3.04.62-4.17 1.72a5 5 0 0 0-1.5 3.87c.19 2.73 2.87 5.35 4.77 7.1a31 31 0 0 0 6.97 4.86 26 26 0 0 0 14.19 2.9 24.6 24.6 0 0 0 16.18-8.46c2.05-2.3-1.34-5.7-3.39-3.39a20.3 20.3 0 0 1-11.38 6.84 20 20 0 0 1-10.68-.95 24.5 24.5 0 0 1-10.88-7.74 11 11 0 0 1-.81-1.19s-.21-.48-.25-.21c.07-.5 2-.67 2.44-.78a72 72 0 0 0 8.39-2.68 22 22 0 0 1 7.52-1.76 18 18 0 0 1 5.76 1.01c2.96.93 4.22-3.7 1.28-4.63Z" class="d"/><path d="M102.1 2.71q-2.84-.27-5.91-.27c-9.9 0-21 2.14-26.84 10.34-1 .85-2.18 2.2-2.95 2.8a35 35 0 0 1-3.45 2.56c-7.83 5.68-10.43 12.92-11.05 27.51a46 46 0 0 0 1.73 14.28 7 7 0 0 1 2.28-.46 5.6 5.6 0 0 1 4.06 1.49l2.45 2.34.4-1.03c.96-2.56 1.12-5.92 2.42-9.26 1.08-2.75 2.26-5.28 5.94-7.47A17 17 0 0 1 81.04 43c3.88.16 8.21-.43 11.03-1.9 7.3-4.22 19.65-2.75 26.04 1.91 6.82 4.97 8.55 18.04 12.16 21.51a5.4 5.4 0 0 1 5.7-5.05 6 6 0 0 1 2.38.51c2.11-8.9 7.12-15.5 1.35-25.77-3.74-6.66-8.89-17.71-16.71-23.46A40.3 40.3 0 0 0 102.1 2.7" class="g"/><path d="M92.74 172.86c-7.02-17.94-20.2-58.02-23.81-71.78l-2.73.96c-7.86 2.79-15.33 5.7-22.46 9.99-6.71 4.03-12.42 7.14-16.9 13.68-5.4 7.91-9.3 18.04-12.67 26.93a278 278 0 0 0-8.41 25.77c-.86 3.11-1.8 6-2.51 9.14a40 40 0 0 0 .05 16.67c1.05 5.24 6.14 12.73 11.2 15.79a280 280 0 0 0 21.72 12.13l17.5 7.89a2.2 2.2 0 0 0 2.7-.8 442 442 0 0 1 7.53-14.83h64.39c3 5.73 6.03 11.6 7.81 15.39a1.2 1.2 0 0 0 1.59.62c4.85-2.24 10.9-5.03 17.29-8.13l.31-.14c7.34-3.6 14.9-7.98 21.72-12.13 5.06-3.06 10.16-10.55 11.2-15.8a40 40 0 0 0 .06-16.66c-.71-3.15-1.66-6.03-2.51-9.14-2.5-9.1-5.1-17.03-8.41-25.77-3.37-8.9-7.27-19.02-12.68-26.93-4.48-6.54-10.18-9.65-16.9-13.68-7.71-4.64-15.84-7.68-24.43-10.68-4.27 16.14-20.9 66.48-26.38 78h-1.54c-.73-1.53-1.66-3.76-2.73-6.5" class="c"/><path d="M90.65 109.88c-3.27 3.7-5.95 7.88-8.9 11.83a2.4 2.4 0 0 0 .85 3.28 2.47 2.47 0 0 0 3.29-.86c1.26-1.69 2.46-3.43 3.7-5.13.8-1.1 1.56-2.26 2.44-3.28-.23.26-.18.24.02-.01l.28-.37q.28-.36.57-.7.56-.7 1.15-1.37a2.4 2.4 0 0 0-3.4-3.4m20.03 11.74c-3.05-4.07-5.8-8.38-9.18-12.2a2.4 2.4 0 0 0-3.4 0 2.46 2.46 0 0 0 0 3.4q.6.68 1.18 1.4l.6.74.3.39.16.2-.12-.16q1.28 1.67 2.5 3.37c1.28 1.76 2.5 3.55 3.8 5.28a2.46 2.46 0 0 0 3.3.86 2.4 2.4 0 0 0 .85-3.28ZM83.23 176a1254 1254 0 0 1-23.97-43.07l-1.6-3.06a29 29 0 0 0-1.56-3.02l-.1-.2q-.14-.4-.12-.04c.25.2-.53.43.05.12a7 7 0 0 0 1.15-1.22q1.34-1.38 2.7-2.7c2.22-2.17-1.17-5.56-3.4-3.4a30 30 0 0 0-4.6 4.87c-1.37 2.14-.24 4.2.79 6.2q3.02 5.85 6.15 11.65 6.36 11.78 12.98 23.41 3.67 6.46 7.39 12.88c1.54 2.68 5.69.26 4.14-2.42m18.64-51.24c-3.58 0-7.16-.08-10.73-.08a2.4 2.4 0 0 0 0 4.8c3.57 0 7.15.08 10.73.08a2.4 2.4 0 0 0 0-4.8" class="d"/><path d="M107.52 157.42q-1.3-11.03-2.7-22.05-.39-3.06-.74-6.1a3 3 0 0 0-.06-.5c-.1-.34-.17.65 0 .05l.76-2.88c.74-2.63 1.56-5.23 2.26-7.87.8-2.98-3.83-4.26-4.63-1.27-.62 2.31-1.33 4.6-1.99 6.91-.46 1.6-1.24 3.45-1.19 5.14.05 1.67.4 3.38.61 5.03l1.25 10.04q.83 6.75 1.63 13.5a2.47 2.47 0 0 0 2.4 2.4 2.4 2.4 0 0 0 2.4-2.4" class="d"/><path d="M121.18 100.32c-2.64 10.09-5.92 20.02-9.15 29.93a992 992 0 0 1-12.22 35.64q-1.37 3.75-2.84 7.48l-.6 1.48-.3.73c-.05.13-.39.91-.1.26q-.5 1.16-1.03 2.3l2.07-1.19h-1.54l2.08 1.2q-.48-1-.9-2.02l-.13-.3c.14.35-.14-.33-.18-.4l-.54-1.35q-1.27-3.16-2.45-6.34a699 699 0 0 1-5.85-16.34q-6.27-18.1-11.98-36.4a347 347 0 0 1-4.31-14.7c-.79-2.98-5.42-1.71-4.63 1.28 2.68 10.2 6 20.23 9.28 30.24 3.92 12 7.96 23.98 12.34 35.82 1.61 4.35 3.22 8.74 5.2 12.93a2.4 2.4 0 0 0 2.08 1.19H97a2.4 2.4 0 0 0 2.08-1.2c1.7-3.6 3.1-7.36 4.5-11.1a678 678 0 0 0 5.9-16.5q6.3-18.23 12.02-36.67c1.5-4.88 3-9.76 4.3-14.7.78-2.98-3.85-4.26-4.63-1.27Zm11.25 44.32q2.71-4.91 5.3-9.89c1.25-2.37 2.58-4.73 3.69-7.16a4.5 4.5 0 0 0-.13-4.3 20 20 0 0 0-3.08-3.38c-2.17-2.2-5.57 1.2-3.39 3.4.8.81 1.7 1.75 2.4 2.53-.3-.33.03-.6-.37.18l-.93 1.8q-1.5 2.93-3.03 5.85-2.26 4.3-4.6 8.55c-1.5 2.7 2.64 5.13 4.14 2.42m-19.03 33.78q5.23-9.06 10.33-18.19c1.5-2.7-2.64-5.12-4.15-2.42q-5.08 9.14-10.33 18.19c-1.54 2.68 2.6 5.1 4.15 2.42M38 142.83c1.11 14.9 2.12 29.83 2.4 44.78.05 3.08 4.85 3.1 4.8 0-.28-14.95-1.29-29.87-2.4-44.78a2.46 2.46 0 0 0-2.4-2.4 2.4 2.4 0 0 0-2.4 2.4" class="d"/><path d="M141.25 142.2h-17.67a1.24 1.24 0 0 0-1.25 1.24v5.38a1.24 1.24 0 0 0 1.24 1.24h17.67a1.24 1.24 0 0 0 1.25-1.24v-5.38a1.24 1.24 0 0 0-1.24-1.25" class="f"/><path d="M152.04 191.37c.15-16.2 1.24-32.38 2.44-48.53a2.4 2.4 0 0 0-4.8 0c-1.2 16.15-2.29 32.32-2.45 48.53-.03 3.09 4.77 3.09 4.8 0m-10.8-51.58h-14.88c-1.5 0-3.36-.3-4.7.54a3.8 3.8 0 0 0-1.73 3.19c-.05 1.33 0 2.68 0 4.02q-.02.62 0 1.24a3.7 3.7 0 0 0 2.52 3.5 9 9 0 0 0 2.83.18h12c1.39 0 2.82.1 4.21-.02a3.7 3.7 0 0 0 3.4-3.62c.05-1.3 0-2.62 0-3.93v-1.45a3.74 3.74 0 0 0-3.64-3.65 2.4 2.4 0 0 0-2.4 2.4 2.45 2.45 0 0 0 2.4 2.4c-.64-.06-1.23-.83-1.17-1.07a2 2 0 0 0 0 .45v3.4a5 5 0 0 0 0 1.34c.13.32.26-.6.34-.7l.82-.35h-17.26a2 2 0 0 0-.4 0c.96-.36.97 1.22 1.15 1.16v-.22a9 9 0 0 0 0-1.41c0-1.13.1-2.31 0-3.44 0-.07.03-.22 0-.29-.1-.22 4.34-3.88-.34.8-.77.76-1.1.22-.41.34a27 27 0 0 0 4.14 0h13.13c3.09 0 3.09-4.8 0-4.8m-51.7-42.44a25 25 0 0 0 6.67.82 18 18 0 0 0 6.58-.92 2.7 2.7 0 0 0 1.43-1.1 2.5 2.5 0 0 0 .24-1.85c-.36-1.11-1.71-2.2-2.95-1.68a9 9 0 0 1-1.9.53l-.34.05-.21.04.26-.04c-.1-.07-.71.08-.84.09a28 28 0 0 1-5.52-.1c.43.06 0 0-.1-.01a18 18 0 0 1-2.04-.46 2.4 2.4 0 0 0-1.28 4.63m5.3-17.5a33 33 0 0 1 .78 3.57l-.08-.63a2 2 0 0 1 0 .49l.1-.64-.06.22.24-.57-.07.14.37-.49-.12.12.49-.38-.28.15.57-.24a2 2 0 0 1-.48.14l.64-.09a2 2 0 0 1-.44 0l.63.1-.5-.1a2 2 0 0 0-.95-.04 2 2 0 0 0-.9.29 2.4 2.4 0 0 0-.86 3.28 2.3 2.3 0 0 0 1.44 1.1c.43.06.85.17 1.3.19a4 4 0 0 0 1.97-.48 3 3 0 0 0 1.62-1.95 5 5 0 0 0-.02-2.03q-.3-1.73-.76-3.41a2.4 2.4 0 0 0-2.95-1.68 2.4 2.4 0 0 0-1.44 1.1 2.5 2.5 0 0 0-.24 1.85m38.76-17.2a3.5 3.5 0 0 1 3-.71 3 3 0 0 1 1.4.6c-.3-.23.7.89.32.34 1.23 1.81 1.29 4.39 1.1 6.61a17 17 0 0 1-2.04 6.33c-1.25 2.31-3.15 4.7-6.03 4.32a2.4 2.4 0 0 0-2.4 2.4 2.46 2.46 0 0 0 2.4 2.4c6.53.85 10.53-6.22 12.17-11.5 1.46-4.72 1.42-12.09-3.2-15.12a8.5 8.5 0 0 0-10.1.94 2.4 2.4 0 0 0 3.39 3.4Zm-71.93-3.4a8.5 8.5 0 0 0-9.28-1.38 8.1 8.1 0 0 0-4.24 5.47 20.5 20.5 0 0 0 2.98 16.2c2.1 3.11 5.4 5.91 9.4 5.4a2.5 2.5 0 0 0 2.4-2.4 2.4 2.4 0 0 0-2.4-2.4c-2.88.37-4.79-2.01-6.04-4.32a17 17 0 0 1-2.03-6.33c-.19-2.22-.13-4.8 1.1-6.62-.39.56.61-.55.32-.34a3 3 0 0 1 1.24-.56 3.5 3.5 0 0 1 3.16.68 2.46 2.46 0 0 0 3.39 0 2.4 2.4 0 0 0 0-3.4" class="d"/><path d="M81.04 40.6c-5.42.03-11.2 1.7-14.86 5.95a20 20 0 0 0-3.5 6.52c-.98 2.8-1.17 5.8-2.18 8.56a2.4 2.4 0 0 0 1.67 2.96 2.45 2.45 0 0 0 2.96-1.68c.89-2.43 1.12-5.05 1.85-7.53a15 15 0 0 1 2.43-5.23 10 10 0 0 1 2.4-2.16 21 21 0 0 1 2.36-1.32c.05-.03.68-.3.41-.2a16 16 0 0 1 6.46-1.07c3.08-.01 3.1-4.81 0-4.8m12.24 2.57c5.8-3.26 13.57-2.62 19.57-.3a13.7 13.7 0 0 1 6.58 4.96 41 41 0 0 1 4.2 8.55c1.13 2.88 2.08 6.05 3.9 8.58a2.47 2.47 0 0 0 3.28.86 2.4 2.4 0 0 0 .86-3.28c-1.68-2.35-2.41-4.9-3.46-7.58a45 45 0 0 0-4.72-9.68c-4.47-6.34-12.37-8.84-19.86-9.06a24.6 24.6 0 0 0-12.77 2.8c-2.7 1.52-.27 5.67 2.42 4.15" class="d"/><path d="M71.42 14c3.99-5.5 10.92-7.86 17.4-8.72a50 50 0 0 1 21.28 1.46 35.7 35.7 0 0 1 17.41 11.87c4.15 5.25 7.22 11.37 10.36 17.24a16.5 16.5 0 0 1 1.8 11.19c-.78 3.87-2.36 7.52-3.38 11.33-.8 2.99 3.82 4.26 4.62 1.28.97-3.59 2.42-7.04 3.24-10.66a21 21 0 0 0-.44-11.7c-1.23-3.55-3.3-6.84-5.1-10.1a91 91 0 0 0-5.97-9.69 40 40 0 0 0-8.15-8.61 44 44 0 0 0-10.81-5.98C106.25.06 97.87-.47 90 .34c-8.74.9-17.4 3.87-22.74 11.23a2.4 2.4 0 0 0 .86 3.28 2.45 2.45 0 0 0 3.29-.86M55.8 58.7a54.6 54.6 0 0 1-.17-24.82c1.27-5.68 3.9-10.27 8.53-13.67a2.47 2.47 0 0 0 .86-3.28 2.4 2.4 0 0 0-3.29-.86 26.5 26.5 0 0 0-9.37 11.98c-2.26 5.84-2.77 12.49-2.89 18.7a52 52 0 0 0 1.7 13.23c.74 3 5.37 1.73 4.63-1.28m21.43 16.04a18 18 0 0 0 3.1.35 16 16 0 0 0 3.12-.31 2.4 2.4 0 0 0 1.44-1.1 2.4 2.4 0 0 0-.87-3.29 2.7 2.7 0 0 0-1.85-.24q-.39.08-.78.13l.64-.08a12 12 0 0 1-3.06 0l.64.1-1.1-.19a2.6 2.6 0 0 0-1.85.25 2.4 2.4 0 0 0-.86 3.28 2.3 2.3 0 0 0 1.43 1.1m36.11-4.63-.9.14.63-.09a12 12 0 0 1-3.06.06l.63.09-.94-.16a2.6 2.6 0 0 0-1.84.24 2.4 2.4 0 0 0-.87 3.28 2.4 2.4 0 0 0 1.44 1.1 13 13 0 0 0 3.12.32 24 24 0 0 0 3.07-.36 2.4 2.4 0 0 0 1.43-1.1 2.4 2.4 0 0 0-.86-3.28l-.57-.24a2.4 2.4 0 0 0-1.28 0M57.9 80.33a47 47 0 0 0 8.55 17.74 36 36 0 0 0 16.85 11.77 51 51 0 0 0 10.7 1.98 32 32 0 0 0 11.7-1.15 39 39 0 0 0 16.96-10 44.5 44.5 0 0 0 11.22-20.34c.76-3-3.87-4.28-4.62-1.28-2.98 11.88-11.06 22.28-22.84 26.35a33 33 0 0 1-9.67 1.71 39 39 0 0 1-9.98-1.3 30 30 0 0 1-15.17-9.09c-4.63-5-7.34-11.15-9.07-17.67-.8-2.98-5.43-1.71-4.63 1.28m27.17 39.22c.78 1.67 1.55 3.45 2.2 5.04q.67 1.57 1.23 3.19c.12.38.2.78.34 1.15.16.41.1-.44 0 .01-.37 1.59-.36 2.93-.55 4.3q-.67 4.87-1.37 9.73L85 156.5a2.5 2.5 0 0 0 1.68 2.95 2.4 2.4 0 0 0 2.95-1.67q1.64-11.4 3.23-22.82c.26-1.93.67-3.92.76-5.88.08-1.68-.78-3.44-1.4-4.97q-1.4-3.53-3.01-6.98a2.4 2.4 0 0 0-3.29-.86 2.45 2.45 0 0 0-.86 3.28Z" class="d"/><path d="M101.1 253.44q-2.92 1.16-4.64 1.76a18 18 0 0 1-4.87.94 4.43 4.43 0 0 1-4.56-3.83c-2.62.4-5.14.46-6.7-.6-2.64-1.8-.94-5-.88-5.09-2.1.37-3.75-1.37-4.69-2.76a3 3 0 0 1-.49-1.41c-4.35-3.45-9.14-6.31-13.66-9.68l-.73-.54 1.54-2.98c2.6-5.03 5.5-10.48 7.77-14.75l.98.08 5.03.56c5.3.84 12.2 1.2 15.49 3.3l.98.64.12.07a3 3 0 0 1 1.13-1.07c2.47-1.27 8.54-3.2 11.3-3.22 4.28-.02 8.83-.08 12.1-.02l1.9-.03 5-.08c2.82 5.3 6.57 12.39 9.56 18.25l-1.75 1.34-3.67 2.77c-1.6 1.22-5.89 4.99-9.95 8.06a36 36 0 0 1-5.95 3.85c-4.08 1.86-7.6 3.34-10.37 4.44" class="a"/><path d="M74.57 217.45q2.22.34 4.45.62l1.12.14.5.06.3.04 2 .3a36 36 0 0 1 3.84.8q.83.24 1.65.55l-.05-.02.34.15q.38.2.75.43a2.4 2.4 0 0 0 3.29-.86 2.45 2.45 0 0 0-.86-3.29 20 20 0 0 0-7.45-2.35q-2.33-.36-4.69-.66l-2.08-.27c-.27-.03.22.04-.2-.02L77 213l-1.16-.17a2.46 2.46 0 0 0-2.95 1.67 2.43 2.43 0 0 0 1.68 2.95m.12 22.31c-3.37-2.58-6.95-4.86-10.42-7.3a2.4 2.4 0 0 0-3.28.86 2.46 2.46 0 0 0 .86 3.29c3.47 2.43 7.05 4.71 10.42 7.3a2.4 2.4 0 0 0 1.85.24 2.4 2.4 0 0 0 1.68-2.95 3 3 0 0 0-1.1-1.43Z" class="d"/><path d="M93.83 224.09a3.1 3.1 0 0 1-.27-3.21 2.7 2.7 0 0 1 1.77-1.27 40 40 0 0 1 7.47-2.2 6 6 0 0 1 1.2-.14q1.16-.04 2.3-.02l5.24-.03c2.23 0 4.46.03 6.69 0 3.08-.05 3.09-4.85 0-4.8-2.83.04-5.65 0-8.47 0-3.56.03-6.97-.04-10.43.85a46 46 0 0 0-4.55 1.44 12 12 0 0 0-4.08 2.04 7.9 7.9 0 0 0-.26 10.74c2.19 2.19 5.58-1.2 3.4-3.4Z" class="d"/><path d="M98.77 221.02c-3.37 2.03-6.8 3.95-10.25 5.84-2.31 1.27-4.7 2.46-6.9 3.9q-3.01 1.97-5.87 4.13c-2.4 1.82-4.16 4.22-3.9 7.4.3 3.56 3.89 7.17 7.6 6.73l-2.08-3.61a6.6 6.6 0 0 0 .03 6.69c2.24 3.39 6.78 3.03 10.27 2.53l-3.04-2.31a7 7 0 0 0 2.86 4.98c2.01 1.48 4.29 1.3 6.63.95 3.66-.55 7.26-2.32 10.65-3.73 3.97-1.66 8.05-3.2 11.6-5.66 3.19-2.21 6.18-4.7 9.16-7.18l1.99-1.65.8-.65.26-.21q1.44-1.16 2.84-2.36a2.4 2.4 0 0 0 0-3.4 2.45 2.45 0 0 0-3.4 0c-.73.62-1.49 1.21-2.2 1.85l-.13.12c.2-.17.89-.7-.13.1l-.5.4q-.66.52-1.3 1.06c-2.44 2.02-4.85 4.08-7.38 6a43 43 0 0 1-8.76 5.17 184 184 0 0 1-10.36 4.26 20 20 0 0 1-5.45 1.35 2.1 2.1 0 0 1-2.25-1.17c-.03-.05-.23-.42-.06-.08-.07-.15-.12-.76-.07-.15a2.45 2.45 0 0 0-3.04-2.32c-1.32.19-4.06.68-5.02-.58a1 1 0 0 1-.05-.95c.03-.14.26-.87.14-.52s.01-.03.06-.12c.8-1.43-.17-3.84-2.07-3.6a2.9 2.9 0 0 1-2.71-1.7 3 3 0 0 1 .65-2.8 11 11 0 0 1 2.27-1.79q1.67-1.2 3.37-2.35c2.19-1.48 4.5-2.71 6.82-3.98 3.81-2.1 7.62-4.2 11.34-6.45 2.64-1.6.23-5.74-2.43-4.14Z" class="d"/><path d="M100.76 229.88c-2.8 1.32-5.5 2.9-8.2 4.39l-9.29 5.15a2.4 2.4 0 0 0 2.43 4.15q4.64-2.56 9.27-5.16c2.71-1.5 5.41-3.07 8.21-4.38a2.4 2.4 0 0 0 .86-3.29 2.45 2.45 0 0 0-3.28-.86m23.96-125.52a160 160 0 0 1 13.42 5.3 120 120 0 0 1 12.08 6.6 47 47 0 0 1 9.28 6.89 44 44 0 0 1 7.3 10.74c4.3 8.2 7.52 17 10.6 25.72q2.39 6.72 4.42 13.57c1.42 4.81 2.93 9.65 4.07 14.54a36 36 0 0 1 .47 13.5 24 24 0 0 1-3.94 10.02 28 28 0 0 1-3.78 4.5 26 26 0 0 1-4.74 3.37 314 314 0 0 1-12.88 7.4 283 283 0 0 1-13.52 6.72q-3.13 1.48-6.27 2.93l-2.96 1.37a6 6 0 0 0-1.23.57c-.59.46 1.2.91 1.14.37a2 2 0 0 0-.25-.52c-2.88-6.03-6.02-11.93-9.14-17.84q-2.25-4.27-4.53-8.54l-1.7-3.22a4 4 0 0 0-.34-.63l-.04-.08q-.38-.78-.46 1.39c.14 0 .53-.29.66-.35l3.7-1.98q12.93-6.89 25.83-13.83l6.6-3.55c2.73-1.46.3-5.6-2.41-4.15l-27.74 14.88q-3.54 1.9-7.1 3.78c-1.18.63-2.57 1.16-3.3 2.36a3.8 3.8 0 0 0 0 3.73c1.15 2.4 2.5 4.71 3.74 7.06a931 931 0 0 1 10.33 19.82q.94 1.95 1.9 3.89a3.8 3.8 0 0 0 2.55 2.13c1.34.32 2.5-.35 3.67-.9q6.74-3.09 13.43-6.3 7.23-3.45 14.23-7.4 3.48-1.97 6.92-4.02a49 49 0 0 0 5.94-3.88 29.8 29.8 0 0 0 10.81-22.28 46 46 0 0 0-2.06-15.72c-1.46-5.08-2.86-10.18-4.45-15.22a290 290 0 0 0-10.46-28.1 92 92 0 0 0-6.8-13.1 38 38 0 0 0-9.25-9.94 104 104 0 0 0-11.22-7.05 109 109 0 0 0-13.94-6.48q-3.63-1.42-7.3-2.7a2.4 2.4 0 1 0-1.28 4.62ZM53.08 242.34a4.7 4.7 0 0 0 4.71-1.01 10 10 0 0 0 1.67-2.92 301 301 0 0 1 3-5.95q3.52-6.84 7.14-13.61l3.13-5.87c.86-1.64 2.43-3.7 2.04-5.61s-1.95-2.59-3.51-3.42l-5.2-2.76-9.22-4.94-20.63-11.08c-2.73-1.45-5.15 2.69-2.42 4.15 11.25 6.01 22.47 12.08 33.74 18.08l1.96 1.05c.19.1.93.63 1.1.58l-.43-1.45-.08.15a11 11 0 0 0-1.05 1.98l-2.54 4.78q-3.25 6.1-6.46 12.24-1.73 3.34-3.43 6.7l-1.39 2.8q-.34.67-.66 1.36a2 2 0 0 1-.2.42c.22-.2.37-.19.02-.3-2.95-.94-4.21 3.69-1.28 4.63Z" class="d"/><path d="M65.57 99.73a144 144 0 0 0-19.05 7.98 90 90 0 0 0-15.37 9.78c-4.8 3.96-8.11 9.26-10.92 14.75a177 177 0 0 0-7.64 17.81 307 307 0 0 0-6.68 19.23c-1.03 3.35-1.95 6.73-2.92 10.1A77 77 0 0 0 .4 189.8a41 41 0 0 0-.2 9.9 30 30 0 0 0 1.73 8.2 31 31 0 0 0 10.25 13.45 104 104 0 0 0 9.5 5.71q5.14 2.97 10.41 5.69c6.73 3.45 13.65 6.56 20.52 9.74a2.47 2.47 0 0 0 3.28-.86 2.4 2.4 0 0 0-.86-3.29c-11.91-5.5-23.7-11.1-34.99-17.8a38 38 0 0 1-7.12-4.8 29 29 0 0 1-4.8-6.12c-2.72-4.57-3.46-9.78-3.33-15.04.16-6.7 2.58-13.24 4.43-19.62q2.72-9.4 6.1-18.6A243 243 0 0 1 22.27 139c2.45-5.35 5.2-11 9.27-15.32 4.18-4.45 9.74-7.52 15-10.52a125 125 0 0 1 20.3-8.81 2.46 2.46 0 0 0 1.67-2.96 2.4 2.4 0 0 0-2.95-1.67Zm-2.38 135.63q5.7-11.74 11.66-23.36c1.41-2.74-2.73-5.17-4.14-2.42q-5.96 11.61-11.67 23.36a2.46 2.46 0 0 0 .86 3.28 2.4 2.4 0 0 0 3.29-.86m55.3-21.68c3.47 7.47 7.02 14.91 10.36 22.44a2.4 2.4 0 0 0 3.28.86 2.46 2.46 0 0 0 .86-3.28c-3.34-7.53-6.89-14.97-10.37-22.44a2.4 2.4 0 0 0-3.28-.86 2.45 2.45 0 0 0-.86 3.28m135.34-98.98a11 11 0 0 1-1.1-.9l-.35-.37c-.18-.2.13.23-.1-.13a8 8 0 0 1-1.01-2.19 11 11 0 0 1-.15-3.06 16 16 0 0 1 .39-3.78l-.62 1.06-.09.04-1.2.33a9 9 0 0 1 2.24.6l2.66.73q2.7.76 5.43 1.47 2.75.73 5.52 1.33c1.35.3 2.74.47 4.07.86a14 14 0 0 1 5.29 2.96 12.6 12.6 0 0 1 3.96 6.3c.79 2.98 5.42 1.72 4.63-1.28a18.4 18.4 0 0 0-13.88-12.91c-4.79-.95-9.48-2.18-14.18-3.49l-3.32-.9c-1.26-.34-2.53-.8-3.75-.09-2.04 1.19-1.81 4.49-1.93 6.55a12.7 12.7 0 0 0 1.17 6.78 12 12 0 0 0 3.9 4.23 2.4 2.4 0 0 0 3.29-.86 2.46 2.46 0 0 0-.87-3.29Z" class="d"/><path d="M281.56 115.15a6.5 6.5 0 0 0-2.36 2.5 11 11 0 0 0-1.06 4.04 13 13 0 0 0 1.73 7.1 2.4 2.4 0 0 0 3.28.87 2.45 2.45 0 0 0 .86-3.29l-.34-.66-.16-.34q-.16-.36.02.06a4 4 0 0 1-.4-1.18q-.09-.34-.14-.67c-.1-.51.02.44-.02-.12a14 14 0 0 1-.05-1.4 2 2 0 0 1 .05-.65q-.07.5-.01.1l.07-.37a5 5 0 0 1 .4-1.26c-.33.6.03-.03.1-.14l.08-.12q.21-.32-.13.14c.11-.04.3-.3.4-.4q.28-.24-.15.1l.25-.16a2.4 2.4 0 1 0-2.42-4.15" class="d"/><path d="M336.38 77.56a5.5 5.5 0 0 1 3.97-1.46 5.1 5.1 0 0 1 4.58 2.55c1.56 2.7 1.5 7.67.45 10.75-.74 2.18-1.95 5.52-4.88 7.91a5.9 5.9 0 0 1-5.2 1.23 40 40 0 0 1-8.06 14.48 33.8 33.8 0 0 1-26.09 12.05 54 54 0 0 1-8.1-1.08 31.5 31.5 0 0 1-18.16-10.74 40 40 0 0 1-7.87-14.7 5.9 5.9 0 0 1-5.12-1.24c-2.92-2.4-4.13-5.73-4.87-7.91-1.05-3.08-1.12-8.06.44-10.76a5.1 5.1 0 0 1 4.58-2.54 5.5 5.5 0 0 1 3.98 1.45s-10.34-31.09 35.17-31.09 35.18 31.1 35.18 31.1" class="a"/><path d="M342.04 51.58a36 36 0 0 0-2.34-6.2 42.4 42.4 0 0 0-21.77-20.34 38.4 38.4 0 0 0-16.95-3c-19.4-1.08-37.9 13.52-41.65 31.9a52 52 0 0 0 .04 17.4s.65 2.8 1.22 4.97a7 7 0 0 1 1.47-.2 5.5 5.5 0 0 1 3.97 1.45l6.17 1.54c20.18-3.25 31.84-13.34 44.07-23.57 5.14 2.93 10.74 9.3 12.94 12.98a82 82 0 0 1 5.73 11.62 5.2 5.2 0 0 1 5.41-4.03 6 6 0 0 1 2.67.67c2.07-7.12.7-17.44-.41-22.83q-.22-1.09-.51-2.15z" class="g"/><path d="M294.94 113.2a24 24 0 0 0 6.52.8 27 27 0 0 0 4.4-.35 9 9 0 0 0 2.05-.54 2.6 2.6 0 0 0 1.44-1.1 2.5 2.5 0 0 0 .24-1.85c-.36-1.11-1.71-2.2-2.95-1.68a9 9 0 0 1-1.86.51l-.33.06-.2.03.26-.04a3 3 0 0 0-.82.09 28 28 0 0 1-5.27-.08c-.1 0-.55-.06-.12 0s.01 0-.08-.02a18 18 0 0 1-2-.45 2.4 2.4 0 1 0-1.28 4.62m5.14-17.14a33 33 0 0 1 .76 3.48l-.08-.63a2 2 0 0 1 0 .48l.1-.64-.06.21.24-.57-.07.14.37-.48-.11.1.48-.37-.27.15.57-.24a2 2 0 0 1-.46.13l.63-.08a2 2 0 0 1-.43 0l.63.08-.49-.08a2 2 0 0 0-.95-.05 2 2 0 0 0-.9.29 2.4 2.4 0 0 0-.86 3.28 2.3 2.3 0 0 0 1.44 1.1c.43.06.84.17 1.28.19a4 4 0 0 0 1.96-.48 3 3 0 0 0 1.6-1.94 5 5 0 0 0-.02-2.01 39 39 0 0 0-.73-3.34 2.4 2.4 0 0 0-2.96-1.68 2.4 2.4 0 0 0-1.43 1.1 2.5 2.5 0 0 0-.24 1.85Zm-17.19-4.97a18 18 0 0 0 3.06.35 16 16 0 0 0 3.05-.32 2.4 2.4 0 0 0 1.44-1.1 2.4 2.4 0 0 0-.86-3.28 2.7 2.7 0 0 0-1.85-.24q-.38.08-.77.13l.64-.09a12 12 0 0 1-3 .01l.65.09q-.55-.08-1.08-.18a2.6 2.6 0 0 0-1.85.24 2.4 2.4 0 0 0-.86 3.29 2.3 2.3 0 0 0 1.43 1.1m35.32-4.63-.9.14.65-.09a11 11 0 0 1-3 .06l.64.08-.92-.15a2.6 2.6 0 0 0-1.85.24 2.4 2.4 0 0 0-.86 3.28 2.4 2.4 0 0 0 1.43 1.1 13 13 0 0 0 3.06.32 24 24 0 0 0 3.02-.36 2.4 2.4 0 0 0 1.44-1.1 2.4 2.4 0 0 0-.86-3.28l-.58-.24a2.4 2.4 0 0 0-1.27 0m-55.31-10.8a49 49 0 0 1-1.88-11.9 39 39 0 0 1 1.92-13.88 39 39 0 0 1 17.72-20.55 38 38 0 0 1 13.44-4.63 47 47 0 0 1 6.87-.26 44 44 0 0 1 9.38.72 40.2 40.2 0 0 1 25.25 17.76 41 41 0 0 1 5.52 16.5c.73 5.46 1.1 11.35-.42 16.71-.83 2.98 3.8 4.25 4.63 1.28 1.53-5.43 1.36-11.3.73-16.86a50 50 0 0 0-4.29-16.38 45 45 0 0 0-25.33-22.27c-6.12-2.17-12.62-2.57-19.06-2.3a43 43 0 0 0-15.34 3.67 44.4 44.4 0 0 0-22.02 21.21 41 41 0 0 0-3.8 17.04 54 54 0 0 0 .5 8.62 63 63 0 0 0 1.55 6.8c.79 3 5.42 1.72 4.63-1.27Z" class="d"/><path d="M316.26 58.34c7.58 5.09 12.75 13.23 16.06 21.59a2.47 2.47 0 0 0 2.95 1.67 2.4 2.4 0 0 0 1.68-2.95c-3.8-9.6-9.56-18.6-18.27-24.46a2.4 2.4 0 0 0-2.42 4.15" class="d"/><path d="M313.8 54.47c-9.28 7.78-18.8 15.35-30.39 19.36a72 72 0 0 1-11.84 2.95 2.4 2.4 0 0 0-1.68 2.95 2.46 2.46 0 0 0 2.96 1.68 72 72 0 0 0 20.34-6.52 94 94 0 0 0 15.88-10.37 302 302 0 0 0 8.12-6.65 2.4 2.4 0 0 0 0-3.4 2.45 2.45 0 0 0-3.39 0m24.27 24.78a3.3 3.3 0 0 1 2.88-.68 3 3 0 0 1 1.35.58c-.32-.25.69.88.3.31 1.17 1.76 1.25 4.26 1.06 6.44a16 16 0 0 1-1.98 6.17c-1.21 2.24-3.05 4.56-5.85 4.2a2.4 2.4 0 0 0-2.4 2.4 2.46 2.46 0 0 0 2.4 2.4c6.41.83 10.35-6.1 11.95-11.3 1.43-4.64 1.38-11.86-3.16-14.84a8.35 8.35 0 0 0-9.95.93 2.4 2.4 0 0 0 3.4 3.4Zm-70.34-3.39a8.4 8.4 0 0 0-9.14-1.36 8 8 0 0 0-4.18 5.37 20 20 0 0 0 2.93 15.89c2.05 3.06 5.3 5.81 9.24 5.3a2.5 2.5 0 0 0 2.4-2.4 2.4 2.4 0 0 0-2.4-2.4c-2.8.37-4.65-1.95-5.86-4.19a16 16 0 0 1-1.98-6.17c-.19-2.18-.11-4.69 1.06-6.44-.4.58.62-.55.3-.31a2.6 2.6 0 0 1 1.2-.55 3.4 3.4 0 0 1 3.04.65 2.45 2.45 0 0 0 3.4 0 2.4 2.4 0 0 0 0-3.4Z" class="d"/><path d="M263.95 96.52a46 46 0 0 0 8.5 17.53 35 35 0 0 0 16.67 11.45 52 52 0 0 0 10.19 1.86 32 32 0 0 0 11.63-1.19 38 38 0 0 0 16.55-9.85 43.6 43.6 0 0 0 10.87-19.8c.75-3-3.87-4.28-4.63-1.28-2.9 11.58-10.77 21.73-22.26 25.72a32 32 0 0 1-9.43 1.68 38 38 0 0 1-9.82-1.27 29.5 29.5 0 0 1-14.77-8.86c-4.53-4.88-7.18-10.9-8.87-17.27-.8-2.98-5.43-1.72-4.63 1.28" class="d"/></svg>
