<svg xmlns="http://www.w3.org/2000/svg" viewBox="-38.81 0 429.965 429.965"><defs><style>.a{fill:#fff}.b{fill:#645d5c}.c{fill:#211715}.d{fill:#7a7473}.f{fill:#d9d9d9}.g{fill:#85807f}.h{fill:none}.i{fill:#febe69}</style></defs><path d="M301.93 410.1a93 93 0 0 1-12.8-10.5l-1.27-1.33-3.14-.7a18 18 0 0 1-1.38 2.04 93 93 0 0 1-13.11 10.7 10.5 10.5 0 0 1-9.35 1.24c-2.88-1.05-5.45-3.16-5.08-6.69 0 0 .06-1.2.14-2.34a57 57 0 0 0 6.69-8.06 14 14 0 0 0 2.64-7.6l-.1-4.14a49 49 0 0 0 17.84-.87h4.68a49 49 0 0 0 19.61.6l-.12 4.4a14 14 0 0 0 2.65 7.61 56 56 0 0 0 6.69 8.07c.08 1.14.14 2.33.14 2.33.36 3.52-2.2 5.64-5.08 6.69a10.5 10.5 0 0 1-9.35-1.24Z" class="a"/><path d="M297.62 417.93a253 253 0 0 0-5.94-4.08c-5-3.12-4.44-7.36-4.33-10.27a53 53 0 0 1 .5-5.31l1.27 1.33a93 93 0 0 0 13.1 10.7 10.5 10.5 0 0 0 9.36 1.25c2.88-1.05 5.44-3.17 5.08-6.7l-.26-2.44.47.48c3.24 3.32 6.8 6.58 10.04 9.8 2.1 2.1 3.75 4.87 3.67 7.92a6.8 6.8 0 0 1-3.22 5.08 13 13 0 0 1-5.84 2.06 22 22 0 0 1-13.76-2.82c-.75-.44-5.84-4-10.14-7m-22.79 0c2.75-1.92 5.17-3.6 5.95-4.08 4.99-3.12 4.43-7.36 4.32-10.27a59 59 0 0 0-.38-6.02 10 10 0 0 0-1.38 2.04 93 93 0 0 1-13.11 10.7 10.5 10.5 0 0 1-9.35 1.25c-2.88-1.05-5.45-3.17-5.08-6.7l.25-2.44-.47.48c-3.23 3.32-6.8 6.58-10.03 9.8-2.1 2.1-3.75 4.87-3.68 7.92a6.8 6.8 0 0 0 3.22 5.08 13 13 0 0 0 5.85 2.06 22 22 0 0 0 13.75-2.82c.76-.44 5.84-4 10.14-7" class="b"/><path d="M298.63 416.2c-1.8-1.25-3.6-2.53-5.42-3.74a8 8 0 0 1-3.42-3.54 10 10 0 0 1-.49-4.19 56 56 0 0 1 .49-5.93l-3.35.88a76 76 0 0 0 6.96 6.48c3.12 2.57 6.5 5.63 10.3 7.12a12.3 12.3 0 0 0 11.49-1.36 8.3 8.3 0 0 0 3.17-4.15c.56-1.76.23-3.57.05-5.36l-3.42 1.4c3 3.08 6.13 6 9.2 9 2.14 2.1 5.7 5.69 4.06 9.04-1.7 3.48-6.55 4.16-9.97 4.07a19.5 19.5 0 0 1-10.01-3.04c-3.27-2.14-6.43-4.44-9.63-6.67-2.12-1.48-4.12 1.99-2.02 3.45 3.2 2.23 6.36 4.53 9.63 6.67a23.4 23.4 0 0 0 12.25 3.6c4.66.07 9.73-1.2 12.6-5.14 2.84-3.85 1.13-8.82-1.6-12.2a66 66 0 0 0-5.85-5.85q-2.96-2.82-5.83-5.74c-1.12-1.16-3.6-.37-3.41 1.41a12 12 0 0 1 .18 4 4.4 4.4 0 0 1-2.23 2.6 8.7 8.7 0 0 1-9.28-.53 79 79 0 0 1-13.8-11.62c-.94-1-3.12-.63-3.34.89a66 66 0 0 0-.63 7 13.5 13.5 0 0 0 .74 5.52 11.5 11.5 0 0 0 4.69 5.36c2 1.3 3.93 2.68 5.88 4.04 2.11 1.46 4.11-2 2.01-3.47" class="c"/><path d="M308.49 322.91c-.76 12.67-1.59 25.33-2.26 38q-.48 8.88-.8 17.75c-.1 2.8-.32 5.63-.25 8.42a16 16 0 0 0 1.66 6.33 34 34 0 0 0 5.34 7.35c2.3 2.64 4.8 5.1 7.31 7.53 1.85 1.79 4.68-1.04 2.83-2.83-4.1-3.96-8.27-8.01-11.35-12.84-2.54-3.98-1.72-8.82-1.57-13.28.41-11.84 1.1-23.66 1.81-35.48q.63-10.48 1.28-20.95c.15-2.58-3.85-2.57-4 0m-32.65 96.74c1.98-1.37 3.94-2.76 5.95-4.07a11.3 11.3 0 0 0 4.83-5.87 15 15 0 0 0 .5-5.56c-.1-2.39-.14-4.76-.47-7.12-.25-1.77-2.87-1.85-3.66-.48a13 13 0 0 1-1.27 1.9c.5-.6-.02-.02-.1.06l-.64.62q-1.59 1.53-3.28 2.96a86 86 0 0 1-8.16 6.27 8.7 8.7 0 0 1-9.15.8 5 5 0 0 1-2.43-2.45c-.47-1.3-.04-3 .1-4.3.18-1.77-2.29-2.57-3.42-1.41-3.42 3.5-7.07 6.79-10.5 10.28-3 3.05-5.52 7.83-3.6 12.1 1.97 4.4 7.01 6.14 11.48 6.48a23.7 23.7 0 0 0 13.72-3.22c3.5-2.1 6.77-4.66 10.1-6.98 2.1-1.47.1-4.93-2.01-3.46-2.98 2.08-5.94 4.18-8.94 6.21a20 20 0 0 1-8.98 3.39c-3.66.41-8.31.07-10.94-2.86-2.5-2.8-.18-6.62 2-8.83 3.44-3.5 7.08-6.78 10.5-10.29l-3.41-1.41c-.19 1.79-.52 3.6.05 5.36a8.4 8.4 0 0 0 3.43 4.34 12.4 12.4 0 0 0 11.9.9 28 28 0 0 0 5.38-3.5q2.47-1.86 4.84-3.84c2.51-2.1 5.14-4.21 6.8-7.1l-3.66-.47c.27 1.93.24 3.89.32 5.83a14 14 0 0 1-.26 4.46 7.3 7.3 0 0 1-3.35 3.91c-1.92 1.26-3.8 2.6-5.68 3.91-2.1 1.45-.1 4.92 2.01 3.44" class="c"/><path d="M259.97 322.91c.73 12.2 1.52 24.39 2.18 36.59q.49 8.8.82 17.6.16 4.22.27 8.45a13 13 0 0 1-1 5.68 29 29 0 0 1-4.94 6.88c-2.26 2.57-4.7 4.98-7.16 7.36-1.86 1.79.98 4.61 2.83 2.82a88 88 0 0 0 11.78-13.35c2.96-4.31 2.51-9.31 2.35-14.25-.4-12.04-1.09-24.07-1.81-36.09l-1.32-21.69c-.16-2.55-4.16-2.57-4 0m23.26 58.3v10a2 2 0 0 0 4 0v-10a2 2 0 0 0-4 0" class="c"/><path d="M251.63 206.63c-4.81 13.8-4.08 28.84-3.25 43.44q3.73 65.46 8.7 130.83a49 49 0 0 0 28.28.32 49 49 0 0 0 28.27-.32q4.97-65.37 8.7-130.83c.83-14.6 1.56-29.63-3.25-43.44" class="a"/><path d="M319.08 206.63c4.8 13.8 4.08 28.84 3.24 43.44q-3.73 65.46-8.7 130.83a49 49 0 0 1-25.93.94" class="a"/><path d="M249.7 206.1c-3.52 10.24-4.14 21.18-3.87 31.93.29 11.32 1.15 22.64 1.83 33.95q2.1 34.83 4.55 69.65 1.38 19.64 2.87 39.28a2.1 2.1 0 0 0 1.47 1.93 51.5 51.5 0 0 0 27 .93c2.5-.58 1.44-4.44-1.07-3.85a47.4 47.4 0 0 1-24.87-.94l1.47 1.93q-2.63-34.68-4.92-69.38c-1.5-22.86-3.13-45.74-4.15-68.63-.54-12.01-.4-24.24 3.55-35.74.84-2.44-3.03-3.48-3.86-1.06" class="c"/><path d="M317.15 207.16c3.52 10.23 4.01 21.06 3.7 31.79-.33 11.26-1.17 22.52-1.85 33.77q-2.09 34.58-4.52 69.15-1.37 19.52-2.85 39.03l1.47-1.92a47.4 47.4 0 0 1-24.88.93c-2.5-.58-3.57 3.27-1.06 3.86a51.5 51.5 0 0 0 27-.94 2.1 2.1 0 0 0 1.47-1.93q2.64-34.8 4.94-69.62c1.51-23 3.2-46.04 4.16-69.08.51-12.12.26-24.52-3.72-36.1-.83-2.42-4.7-1.38-3.86 1.06" class="c"/><path d="M283.04 243.26q0 11.79.03 23.58l.07 32.36.1 34.1.07 29.33.04 17.56v1.03c0 2.57 4 2.58 4 0q0-7.82-.03-15.64l-.07-28.26-.1-33.86-.07-32.96-.04-25.02v-2.22c0-2.58-4-2.58-4 0" class="c"/><path d="M321.33 107.35q1.82.94 3.35 1.85a25 25 0 0 1 5.24 4.04 36 36 0 0 1 6.09 9.79c.96 2.13 9.8 26.63 13.45 39.8a22 22 0 0 1 0 12.57c-1.02 3.63-4.6 8.09-8.16 10.25a197 197 0 0 1-15.33 8.56l-.22.1-.47.23.69 5.02c.72 7 1.57 12.46 2 18.14a1.1 1.1 0 0 1-1.01 1.18c-6.21.47-17.74 1.18-23.78.2-4.21-.7-7.1-1.49-9.77-3.74a17 17 0 0 1-5.64-8.2 89 89 0 0 1-1.86-8.95.63.63 0 0 0-1.24 0 81 81 0 0 1-1.75 8.6 15.8 15.8 0 0 1-5.97 8.33c-2.06 1.52-6.21 3.18-10.92 3.91a95 95 0 0 1-20.45.34 1.2 1.2 0 0 1-1.08-1.3c.55-6.56 1.21-10.63 2.08-18.67l.56-5.02-.15-.07-.22-.1a197 197 0 0 1-15.33-8.56c-3.57-2.16-7.14-6.62-8.16-10.25a22 22 0 0 1 0-12.57c3.64-13.17 12.49-37.67 13.45-39.8a36 36 0 0 1 6.1-9.79 25 25 0 0 1 5.23-4.04c5.43-3.23 14.47-7.1 18.92-8.15 2.7 10.71 14.8 47.68 18.73 56.02h1.08c3.92-8.36 16.04-45.45 18.72-56.08 3.55.78 10.4 3.57 15.81 6.36" class="d"/><path d="M104.36 48.26a4.5 4.5 0 0 1 3.21-1.17 4.1 4.1 0 0 1 3.7 2.05c1.26 2.19 1.2 6.2.36 8.7a13.4 13.4 0 0 1-3.94 6.38 4.8 4.8 0 0 1-4.2 1 32 32 0 0 1-6.5 11.7 27.3 27.3 0 0 1-21.09 9.73 44 44 0 0 1-6.54-.88 25.5 25.5 0 0 1-14.67-8.67 32 32 0 0 1-6.36-11.87 4.8 4.8 0 0 1-4.13-1 13.4 13.4 0 0 1-3.94-6.4c-.84-2.48-.9-6.5.36-8.69a4.1 4.1 0 0 1 3.7-2.05 4.5 4.5 0 0 1 3.21 1.17s-2.62-25.61 28.41-25.61 28.42 25.61 28.42 25.61" class="a"/><path d="M65.82 115.47c-4.7-13.8-9.47-28.85-11.24-35.62v-2.89l.11.14a25.5 25.5 0 0 0 14.68 8.67 44 44 0 0 0 6.54.88 27.3 27.3 0 0 0 21.08-9.73l.73-.87v3.82c-3.25 12.4-16.57 52.75-20.93 61.93h-1.21c-2-4.18-5.85-14.81-9.76-26.33m212.9 22.9a824 824 0 0 1-10.3-32.06h2.82q.58 3.44 2.4 4.79c2.48 1.85 7 3.35 12.85 3.35 4.44 0 9.9-.86 14.3-3.73q.67-.44 1.3-.94a4 4 0 0 0 1.2-2.9h.57c-4.28 14.59-13.7 43-17.08 50.18h-1.08c-1.47-3.14-4.12-10.35-6.98-18.7M95.5 224.97c-4.8-.79-8.08-1.69-11.13-4.25a19.4 19.4 0 0 1-6.42-9.35 100 100 0 0 1-2.13-10.2.71.71 0 0 0-1.41.01 91 91 0 0 1-2 9.78 18 18 0 0 1-6.8 9.5c-2.33 1.73-7.07 3.63-12.43 4.46a105 105 0 0 1-17.42.76l.43 10.94c1.9 46.24 3.04 88.53 4.66 132.5q.4 10.83.85 21.82a59 59 0 0 0 16.16 2.5c5.84-.06 15.11-.57 19.39-1.68 4.28 1.1 13.53 1.62 19.37 1.68a59 59 0 0 0 16.16-2.5c2.1-51.88 3.28-100.24 5.5-153.92l.45-12c-7.31.48-17.46.89-23.23-.05" class="a"/><path d="M99.5 420.96c-2.9-2.4-5.71-4.79-9-7.22-1.63-1.2-3.67-2.05-5.22-3.36a9 9 0 0 1-2.1-2.79c-1.83-3.49-1.67-10-.97-13.87l.2-1.1c4.52.53 10.17.78 14.2.82a54 54 0 0 0 9.75-.95l1.8 2.82c1.3 1.46 3.72 4.38 5.13 5.73 4.2 4.05 5.7 5.97 8.76 9.36 2.35 2.6 4.4 7.82 3.81 11.48-.46 2.83-3.17 4.37-5.82 5.46a21 21 0 0 1-7.72.4 21 21 0 0 1-9.1-3.82 150 150 0 0 1-3.71-2.96m-44.45-.21c2.9-2.27 5.63-4.57 9.84-6.24 2.15-.86 4.4-1.18 6.05-2.8a8.7 8.7 0 0 0 2.05-4.1 33.5 33.5 0 0 0 .13-13.56s-.12-.57-.3-1.5a146 146 0 0 1-14.97.9 55 55 0 0 1-10.7-1.14l-3.1 4.93-13.68 15.27c-6.73 6.9-4.42 13.87 3.38 15.13a21.4 21.4 0 0 0 12.1-1.81 30 30 0 0 0 6.78-3.26q1.25-.9 2.42-1.82" class="b"/><path d="M104.63 393.5c2.64 4.9 7.15 8.66 10.9 12.65 3.82 4.04 9.07 8.94 8.4 15.09-.26 2.4-3.21 4-5.37 4.42a18 18 0 0 1-8.43-.5c-3.64-1.08-6.41-3.32-9.3-5.7-3.18-2.6-6.28-5.36-9.66-7.69-1.59-1.1-3.53-1.82-4.9-3.2a8.5 8.5 0 0 1-2.1-4.18 27 27 0 0 1-.04-10.14 2.06 2.06 0 0 0-1.4-2.46 2 2 0 0 0-2.46 1.4c-1.17 6.76-1.23 15.56 5.15 19.78 1.75 1.15 3.57 2.1 5.24 3.38 1.78 1.36 3.5 2.79 5.23 4.21 3.24 2.68 6.44 5.74 10.35 7.42 6.01 2.6 14.4 3.25 19.45-1.76 2.73-2.7 2.6-6.65 1.58-10.1-1.05-3.6-3.06-6.26-5.5-9.02-2.49-2.81-5.14-5.43-7.74-8.14a36 36 0 0 1-5.95-7.47c-1.22-2.27-4.68-.25-3.45 2.01m-33.44 1.08a32 32 0 0 1 .04 11.54 8 8 0 0 1-1.48 3.93c-1.03 1.25-2.8 1.62-4.25 2.11a31 31 0 0 0-8.58 4.62c-2.6 1.95-5.03 4.19-7.98 5.62-3.26 1.59-6.97 3.12-10.61 3.41-2.71.23-6 .07-8.21-1.73-5.04-4.12 1.82-10.2 4.54-13.24 2.92-3.27 5.78-6.59 8.7-9.85a40 40 0 0 0 5.32-7.67c1.23-2.26-2.23-4.29-3.46-2.02a39 39 0 0 1-5.15 7.39c-2.87 3.2-5.68 6.47-8.56 9.67-2.6 2.89-5.6 5.54-6.7 9.42a8.9 8.9 0 0 0 1.6 8.22c2.14 2.56 5.51 3.54 8.72 3.81 4.35.37 8.3-.9 12.29-2.45a31 31 0 0 0 5.66-2.7c1.48-.95 2.84-2.08 4.22-3.16a32 32 0 0 1 9.07-5.42c2-.69 4.06-1.26 5.69-2.7a10 10 0 0 0 2.82-5.08 36 36 0 0 0 .17-14.79c-.5-2.52-4.36-1.45-3.86 1.07" class="c"/><path d="M76.7 393.7c5.6 1.4 11.66 1.54 17.4 1.7a60 60 0 0 0 19.2-2.53 2.1 2.1 0 0 0 1.47-1.92c1.01-24.96 1.84-49.92 2.66-74.88a9845 9845 0 0 1 2.71-76.06q.34-8.37.64-16.76c.1-2.58-3.9-2.57-4 0-.63 16.89-1.32 33.77-1.92 50.66-.89 24.92-1.66 49.85-2.52 74.77q-.73 21.14-1.57 42.27l1.47-1.93a56 56 0 0 1-18.14 2.38c-5.4-.15-11.07-.24-16.34-1.56-2.5-.63-3.56 3.23-1.06 3.86" class="c"/><path d="M76.7 389.84c-5.26 1.32-10.94 1.4-16.34 1.55a56 56 0 0 1-18.14-2.37l1.47 1.93c-1-24.87-1.83-49.73-2.65-74.6-.84-25.26-1.68-50.51-2.7-75.76l-.68-17.34c-.1-2.57-4.1-2.58-4 0 .66 16.99 1.35 33.97 1.95 50.96.88 24.83 1.65 49.66 2.5 74.5q.74 21.12 1.58 42.24a2.1 2.1 0 0 0 1.47 1.92 60 60 0 0 0 19.2 2.52c5.74-.16 11.8-.3 17.4-1.7 2.5-.62 1.44-4.48-1.07-3.85Z" class="c"/><path d="M75.23 245.37V391.6c0 2.57 4 2.58 4 0V245.37c0-2.57-4-2.58-4 0" class="c"/><path d="M29.04 219.4c.78-8.14 1.96-18.41 2.75-27.8l.44-6.43-3.22-1.55-.24-.11a220 220 0 0 1-17.16-9.59c-4-2.41-8.03-8.33-8.85-12.47a31.5 31.5 0 0 1-.04-13.17c.56-2.49 1.3-4.76 1.98-7.22a219 219 0 0 1 6.64-20.36c2.66-7.03 5.74-15.03 10.02-21.28 3.54-5.17 8.04-7.62 13.34-10.8a96 96 0 0 1 17.75-7.9l2.15-.76c3.3 12.53 16.62 52.68 20.97 61.84h1.22c4.32-9.1 17.47-48.87 20.84-61.63 6.79 2.38 13.2 4.78 19.3 8.44 5.3 3.19 9.81 5.64 13.35 10.81 4.28 6.25 7.36 14.25 10.02 21.28 2.62 6.9 4.67 13.16 6.64 20.36.68 2.45 1.43 4.73 1.99 7.22a31.5 31.5 0 0 1-.05 13.17c-.82 4.14-4.85 10.05-8.84 12.47a221 221 0 0 1-17.17 9.58l-.24.12-2.57 1.23.7 6.88c.16 2.02-.33-3.46.7 7.1.98 9.42 1.72 17.24 2.27 24.57a1.26 1.26 0 0 1-1.15 1.35c-7.08.54-20.2 1.34-27.09.22-4.8-.8-8.08-1.7-11.13-4.25a19.4 19.4 0 0 1-6.42-9.35 101 101 0 0 1-2.13-10.2.71.71 0 0 0-1.4 0 91 91 0 0 1-2 9.79 18 18 0 0 1-6.8 9.5c-2.34 1.73-7.08 3.63-12.44 4.46a109 109 0 0 1-23.3.38 1.35 1.35 0 0 1-1.22-1.47q.17-2.09.4-4.43" class="d"/><path d="M70.98 130.05q-1.13-3.14-2.36-6.68c1.55-10.98 3.27-22.89 3.26-23.5a29 29 0 0 0-1.6-6.28l-.58-1.2c.87-1.14 2.45-4.04 3.19-4.86h6.08c.7.79 2.91 3.83 3.72 4.88l-.48 1.96a71 71 0 0 0-1.23 6.4c0 .36 1.57 12.42 2.76 22.6-2.86 8.26-5.44 15.23-6.95 18.43h-1.21c-1.08-2.3-2.71-6.51-4.6-11.75" style="fill:#3d8dcc"/><path d="M71.7 86.84c-2.6 2.93-4.72 6.24-7.06 9.37a2 2 0 0 0 .72 2.73 2.06 2.06 0 0 0 2.74-.71c1-1.34 1.94-2.71 2.92-4.06l.92-1.25.5-.67a4 4 0 0 0 .51-.67l-.16.2.15-.2.23-.28.45-.56.9-1.07a2 2 0 0 0-2.82-2.83m15.98 9.3c-2.41-3.23-4.6-6.64-7.27-9.66a2 2 0 0 0-2.83 0 2.05 2.05 0 0 0 0 2.83q.48.54.93 1.1L79 91l.24.3c.28.36-.1-.13 0 .02q1.02 1.32 2 2.66c1 1.39 1.97 2.8 3 4.17a2.2 2.2 0 0 0 1.19.92 2 2 0 0 0 1.54-.2 2 2 0 0 0 .71-2.73M65.99 139.1a1308 1308 0 0 1-12.32-21.76q-3-5.44-5.9-10.92-1.4-2.63-2.76-5.27l-.4-.8q-.24-.7-.23-.2c-.2.43.74-.6.83-.7a95 95 0 0 1 2.25-2.25c1.84-1.8-.99-4.63-2.83-2.83-1.43 1.4-3.75 3.09-4.15 5.15-.37 1.93 1.28 4.05 2.12 5.67q3.17 6.09 6.48 12.1 6.6 11.98 13.46 23.83c1.29 2.23 4.74.21 3.45-2.02m52.77 52.63.04.5 3.41-1.42.52.89c.17.86.05.57.05.34l-3.42 1.42-.51-.88c-.19-1.06-.03-.18 0 .09l.26 2.6 1.1 10.91q.52 5.25.98 10.5l.4 4.78.08 1.17.03.39q-.07.95.61-.25c-.23-.19-1.7.13-2.02.15a199 199 0 0 1-17.6.6c-5.28-.12-11.38-.47-15.9-3.47a18 18 0 0 1-5.79-6.48 30 30 0 0 1-2.35-7.99c-.32-1.61-.45-3.36-.9-4.94a2.75 2.75 0 0 0-3.96-1.73c-1.59.88-1.5 3.02-1.78 4.57q-.47 2.64-1.07 5.24a16.7 16.7 0 0 1-9.84 11.95c-5.83 2.48-12.25 2.91-18.5 3.05a112 112 0 0 1-11.7-.32l-.68-.07a.7.7 0 0 1 .44.5 14 14 0 0 0 .22-2.46q.24-2.72.52-5.43c.82-8.12 1.72-16.22 2.4-24.34.23-2.57-3.78-2.55-4 0-.61 7.29-1.4 14.57-2.14 21.85q-.5 4.67-.9 9.35c-.15 1.61.03 3.1 1.54 4.04 1.26.79 3.31.63 4.76.72a103 103 0 0 0 18.55-.42c6.16-.74 12.63-2.47 17.27-6.8a20 20 0 0 0 5.36-8.5 38 38 0 0 0 1.04-4.23q.31-1.53.59-3.06a12 12 0 0 1 .48-2.78l-.72.72-1.3-.14-.51-.88a56 56 0 0 1 1.15 6c.3 1.42.6 2.86 1 4.26a21 21 0 0 0 5.38 8.92 20 20 0 0 0 8.76 5.22 44 44 0 0 0 9.52 1.52 158 158 0 0 0 20.05-.43c1.37-.1 3.19.06 4.4-.63 1.95-1.11 1.66-3.17 1.5-5.07q-.45-5.77-1.01-11.52l-1.4-14c-.14-1.4.03-3.95-.96-5.12-1.16-1.35-3.42-.22-3.42 1.42a2.1 2.1 0 0 0 .6 1.6 2.03 2.03 0 0 0 3.42-1.42l-.04-.5c-.2-2.54-4.2-2.57-4 0ZM80.63 98.56c-2.82 0-5.65-.06-8.48-.06a2 2 0 0 0 0 4c2.83 0 5.66.06 8.48.06a2 2 0 0 0 0-4" class="c"/><path d="M81.01 92.13c-.58 2.34-1.34 4.63-1.98 6.95a10 10 0 0 0-.43 4.15c.86 7.08 1.77 14.16 2.6 21.24a2.06 2.06 0 0 0 2 2 2 2 0 0 0 2-2c-.82-7.02-1.72-14.03-2.58-21.05a15 15 0 0 0-.19-1.63c-.06-.28-.15.55-.02.19l.1-.42q.19-.78.41-1.54c.64-2.27 1.38-4.53 1.95-6.83.63-2.5-3.23-3.56-3.85-1.06Z" class="c"/><path d="M95.78 79.33c-2.08 7.96-4.67 15.8-7.22 23.63a786 786 0 0 1-9.64 28.14q-1.09 2.97-2.25 5.91c-.66 1.68-.87 2.23-1.6 3.78l1.72-.99h-1.21l1.72 1a54 54 0 0 1-.85-1.93l-.06-.14-.48-1.16q-1-2.5-1.94-5.03a554 554 0 0 1-4.67-13.06q-4.92-14.24-9.4-28.62c-1.2-3.83-2.38-7.66-3.4-11.54-.65-2.49-4.51-1.43-3.86 1.06 2.11 8.03 4.73 15.93 7.3 23.82 3.12 9.5 6.3 18.99 9.79 28.37 1.27 3.44 2.54 6.92 4.11 10.24a2 2 0 0 0 1.73.99h1.22a2 2 0 0 0 1.72-1c3.3-7 5.7-14.5 8.22-21.8q4.98-14.42 9.51-29c1.2-3.85 2.38-7.7 3.4-11.6.65-2.5-3.2-3.56-3.86-1.06Zm9.08 35.1q2.15-3.88 4.2-7.81c.98-1.88 2.03-3.74 2.91-5.66a3.6 3.6 0 0 0-.1-3.5 16 16 0 0 0-2.45-2.7c-1.81-1.82-4.64 1-2.82 2.84a18 18 0 0 1 1.88 1.98l-.08-.4-.22.43-.73 1.43-2.4 4.62q-1.78 3.4-3.64 6.75c-1.25 2.26 2.2 4.28 3.45 2.02m-15.03 26.69q4.13-7.16 8.16-14.37a2 2 0 0 0-3.46-2.02q-4.01 7.22-8.15 14.37a2 2 0 1 0 3.45 2.02m-59.76-28.17a634 634 0 0 1 1.89 35.37c.05 2.57 4.05 2.58 4 0a634 634 0 0 0-1.89-35.37c-.19-2.56-4.2-2.57-4 0m90.3 38.34c.12-12.8.98-25.57 1.93-38.34.19-2.56-3.82-2.55-4 0-.95 12.77-1.8 25.54-1.93 38.34-.03 2.58 3.97 2.58 4 0" class="c"/><path d="M111.59 112.44H97.93a1.14 1.14 0 0 0-1.13 1.14v3.94a1.13 1.13 0 0 0 1.13 1.14h13.65a1.14 1.14 0 0 0 1.14-1.14v-3.94a1.13 1.13 0 0 0-1.13-1.14" class="f"/><path d="M111.74 110.44H99.98c-1.2 0-2.69-.23-3.76.44a3.1 3.1 0 0 0-1.42 2.61c-.04 1.06 0 2.12 0 3.18v.98a3.05 3.05 0 0 0 2.07 2.86 8 8 0 0 0 2.26.15h9.47c1.1 0 2.23.07 3.33-.02a3 3 0 0 0 2.78-2.96c.05-1.03 0-2.08 0-3.1q.02-.58 0-1.15a3.06 3.06 0 0 0-2.98-2.98 2 2 0 0 0-2 2 2.05 2.05 0 0 0 2 2c-.54-.06-1.07-.7-1.02-.96v3.04a4 4 0 0 0 0 1.06c.1.28.24-.55.3-.63l.72-.3H97.78l.72.3.3.72v-.17a7 7 0 0 0 0-1.12c0-.9.07-1.82 0-2.72v-.23q0-.4-.3.7c-.67.67-.98.21-.4.3a22 22 0 0 0 3.27 0h10.37c2.57 0 2.58-4 0-4" class="c"/><path d="M64.17 33.08a13.4 13.4 0 0 0-7.78 2.01 10.3 10.3 0 0 0-4.7 5.9c-1.4 3.57-1.12 7.17-3.04 9.18a4.2 4.2 0 0 0-4.33-3.08 5 5 0 0 0-1.8.37 37 37 0 0 1-1.36-11.29c.57-13.7 3.37-19.2 12.67-24.18 4.19-7.96 13.81-9.95 22.31-9.95 8.2 0 14.63 1.75 21.18 6.56 6.18 4.54 10.24 13.27 13.2 18.53 4.56 8.12.6 13.33-1.07 20.36a5 5 0 0 0-1.88-.4 4.5 4.5 0 0 0-3.21 1.18l-1.59 1.52-.23-.32c-2.52-3.41-4.04-12.7-9.09-16.38s-14.8-4.84-20.56-1.5Z" class="g"/><path d="M104.1 63.17a30 30 0 0 1-1.84 5.6c-1.1 3-8 14.7-16.15 16.52m-38.4-22.22a34 34 0 0 0 6.98 14.27c4.06 4.86 8.44 7.81 13.8 8.57" class="h"/><path d="M70.87 77.11a20 20 0 0 0 5.29.66 22 22 0 0 0 3.57-.3 8 8 0 0 0 1.65-.43 2.2 2.2 0 0 0 1.2-.92 2 2 0 0 0 .2-1.54 2 2 0 0 0-2.46-1.4 7 7 0 0 1-1.5.41l-.26.05c-.24.03-.37-.06.06-.01a4 4 0 0 0-.67.07 23 23 0 0 1-4.25-.06c-.08-.01-.45-.06-.1-.01s.03 0-.05-.01a14 14 0 0 1-1.62-.37 2 2 0 1 0-1.06 3.86m4.1-13.89a26 26 0 0 1 .62 2.82l-.07-.53.01.39.07-.53-.04.17.2-.48-.06.12.31-.4-.09.09.4-.32-.22.12.48-.2-.38.11.53-.07a1 1 0 0 1-.35 0l.53.07-.4-.07a1.5 1.5 0 0 0-.8-.03 1.5 1.5 0 0 0-.74.23 2 2 0 0 0-.72 2.74 2 2 0 0 0 1.2.92c.35.05.7.13 1.05.15a3.5 3.5 0 0 0 1.61-.4 2.5 2.5 0 0 0 1.33-1.6 4 4 0 0 0-.02-1.65q-.23-1.36-.6-2.7a2 2 0 0 0-2.46-1.4 2 2 0 0 0-1.2.91 2 2 0 0 0-.2 1.55Z" class="c"/><path d="M54.52 10.4c5.89-6.55 13.7-8.37 21.41-8.37a35 35 0 0 1 21.62 7.11 32 32 0 0 1 6.09 6.35c3.95 3.86 7.1 12.3 6.87 20.68a45 45 0 0 1-1.27 10.81m-66.73 0a36 36 0 0 1-1.25-10.8c.5-11.53 3.18-16.73 8.73-21.74" class="h"/><path d="M105.77 49.68a2.6 2.6 0 0 1 2.27-.54 2 2 0 0 1 1.08.46c-.29-.21.53.73.22.23a5 5 0 0 1 .77 2.09 12 12 0 0 1 .08 3.09 13 13 0 0 1-1.6 4.95c-.96 1.79-2.43 3.65-4.67 3.35a2 2 0 0 0-2 2 2.05 2.05 0 0 0 2 2c5.21.68 8.41-4.95 9.71-9.16 1.17-3.78 1.12-9.64-2.58-12.06a6.8 6.8 0 0 0-8.1.76c-1.93 1.72.9 4.54 2.82 2.83m-56.83-2.83a6.8 6.8 0 0 0-7.45-1.11 6.5 6.5 0 0 0-3.4 4.38A16.3 16.3 0 0 0 40.45 63c1.68 2.49 4.32 4.73 7.52 4.32a2.07 2.07 0 0 0 2-2 2 2 0 0 0-2-2c-2.24.29-3.7-1.57-4.68-3.36A13 13 0 0 1 41.7 55a12 12 0 0 1 .08-3.1 5 5 0 0 1 .77-2.08c-.32.5.51-.44.22-.23a2 2 0 0 1 .95-.44 2.6 2.6 0 0 1 2.4.52c1.92 1.7 4.76-1.11 2.83-2.83Z" class="c"/><path d="M64.17 32.08c-4.3.02-8.9 1.35-11.8 4.73a16 16 0 0 0-2.8 5.2c-.77 2.2-.92 4.57-1.73 6.77a2 2 0 0 0 1.4 2.45 2.04 2.04 0 0 0 2.46-1.4c.7-1.92.9-3.98 1.46-5.94q.24-.79.54-1.55c0-.01.23-.58.09-.24a14 14 0 0 1 1.1-2.05s.35-.48.17-.25a8 8 0 0 1 1.87-1.69q.62-.4 1.28-.75l.59-.3c.05-.02.58-.25.3-.14a12 12 0 0 1 5.07-.84c2.57-.01 2.58-4.01 0-4m9.73 2.22a16.7 16.7 0 0 1 9.73-1.59c3.07.3 6.57 1.24 8.99 3.24 4.7 3.89 4.82 10.79 8.2 15.52a2.06 2.06 0 0 0 2.73.72 2 2 0 0 0 .72-2.74 28 28 0 0 1-2.8-6.11 34 34 0 0 0-3.8-7.68c-3.56-4.93-9.78-6.88-15.67-7.04a19.6 19.6 0 0 0-10.12 2.23c-2.25 1.26-.23 4.71 2.02 3.45" class="c"/><path d="M56.66 11.21c3.13-4.3 8.53-6.13 13.6-6.82a39.5 39.5 0 0 1 16.91 1.16 28 28 0 0 1 13.64 9.33c3.2 4.06 5.51 8.75 7.98 13.26a13.2 13.2 0 0 1 1.6 9.04c-.6 3.08-1.86 5.99-2.68 9.01-.67 2.49 3.2 3.55 3.86 1.07.79-2.92 1.98-5.72 2.61-8.68a17 17 0 0 0-.55-9.47 63 63 0 0 0-4.12-8 69 69 0 0 0-4.66-7.47 32.7 32.7 0 0 0-15.2-11.47A41.5 41.5 0 0 0 71.08.3c-6.9.74-13.65 3.11-17.87 8.9a2 2 0 0 0 .71 2.74 2.05 2.05 0 0 0 2.74-.72M44.33 46.45a43 43 0 0 1-.13-19.56 17.5 17.5 0 0 1 6.69-10.73 2.06 2.06 0 0 0 .71-2.73 2 2 0 0 0-2.73-.72 21.6 21.6 0 0 0-8.46 12.81 47.4 47.4 0 0 0 .06 22c.61 2.5 4.47 1.44 3.86-1.06Zm16.8 12.8a14 14 0 0 0 2.49.29 13 13 0 0 0 2.49-.26 2 2 0 0 0 .47-3.65 2.2 2.2 0 0 0-1.54-.2q-.3.06-.62.1l.53-.07a9 9 0 0 1-2.41 0l.53.08-.87-.14a2.2 2.2 0 0 0-1.54.2 2 2 0 0 0-.72 2.73 2 2 0 0 0 1.2.92Zm28.54-3.86-.72.12.53-.08a9 9 0 0 1-2.42.05l.53.07q-.38-.05-.74-.13a2 2 0 0 0-1.54.2 2 2 0 0 0-.72 2.74 2 2 0 0 0 1.2.92 11 11 0 0 0 2.49.26 20 20 0 0 0 2.46-.3 2 2 0 0 0 1.2-.91 2 2 0 0 0 .2-1.54 2 2 0 0 0-.92-1.2l-.48-.2a2 2 0 0 0-1.06 0ZM45.79 63.6a37.5 37.5 0 0 0 6.88 14.2 28.3 28.3 0 0 0 13.43 9.24c5.57 1.72 11.97 2.25 17.61.59a30.7 30.7 0 0 0 13.53-8.03 35.3 35.3 0 0 0 8.78-16c.63-2.5-3.23-3.56-3.86-1.06-2.32 9.24-8.56 17.4-17.71 20.65a26.4 26.4 0 0 1-27.5-6.55 32 32 0 0 1-7.3-14.1c-.67-2.49-4.53-1.43-3.86 1.06" class="c"/><path d="m98.57 171.76-1.74-3.28-3.28 1.34-1.5.02c-2.59-.05-6.18 0-9.56.01-2.18.02-6.98 1.55-8.93 2.55a2.4 2.4 0 0 0-.9.84l-.86-.56c-2.6-1.66-8.06-1.94-12.24-2.6l-4.79-.42a999 999 0 0 0-7.43 14.19l2.63 1.55c2.97 2.09 6.03 4.01 8.85 6.25a3 3 0 0 0 .4 1.12c.73 1.1 2.04 2.47 3.7 2.18-.05.07-1.4 2.6.7 4.02 1.22.84 3.2.79 5.28.47a3.5 3.5 0 0 0 3.6 3.02 14 14 0 0 0 3.86-.74c2.18-.77 6.37-2.4 11.85-4.9 3.62-1.65 10.6-7.93 12.56-9.4l1.79-1.52 2.3-2.1c-1.96-3.84-4.3-8.3-6.3-12.04" class="a"/><path d="M71.05 124.78c1.02-7.16 2.1-14.32 3.02-21.49a8.4 8.4 0 0 0-.7-4.47 89 89 0 0 0-2.68-6.27c-1.1-2.32-4.55-.3-3.45 2.02a73 73 0 0 1 2.83 6.86l.16.57c.14.38-.02 0 0-.1l-.19 1.58c-.85 6.52-1.9 13.54-2.85 20.23a2.07 2.07 0 0 0 1.4 2.46 2 2 0 0 0 2.46-1.4ZM59.03 172q1.78.27 3.55.49l.88.11.4.06c.03 0 .41.05.22.02l.32.05.38.05.87.14a28 28 0 0 1 3.03.63q.66.19 1.3.43c.24.09.07.04-.05-.03l.26.13.6.33a2 2 0 0 0 2.73-.72 2.04 2.04 0 0 0-.71-2.73 16 16 0 0 0-5.91-1.87q-1.87-.29-3.73-.52-.83-.1-1.65-.22l-.14-.02-.37-.05q-.46-.06-.91-.14a2.05 2.05 0 0 0-2.46 1.4 2 2 0 0 0 1.4 2.46Zm.18 17.44c-2.66-2.04-5.49-3.85-8.23-5.77a2 2 0 0 0-2.74.72 2.05 2.05 0 0 0 .72 2.73c2.74 1.93 5.57 3.73 8.23 5.77a2 2 0 0 0 1.54.2 2 2 0 0 0 1.4-2.46 2.4 2.4 0 0 0-.92-1.2Z" class="c"/><path d="M74.36 177.07a2.3 2.3 0 0 1-.25-2.3c.26-.69.87-.86 1.45-1.1a30 30 0 0 1 5.88-1.71 45 45 0 0 1 6.9-.14c1.74 0 3.47.03 5.2 0 2.58-.05 2.59-4.05 0-4-2.25.04-4.51 0-6.77 0a33 33 0 0 0-8.34.72 36 36 0 0 0-3.56 1.14 9 9 0 0 0-3.18 1.62 6.36 6.36 0 0 0-.17 8.6c1.81 1.84 4.64-.99 2.83-2.83Z" class="c"/><path d="M78.13 174.63c-5.47 3.3-11.27 6.01-16.49 9.72-2.31 1.64-4.55 3.2-4.83 6.28-.3 3.23 2.78 6.66 6.1 6.32l-1.72-3.01a5.2 5.2 0 0 0 .13 5.54c1.88 2.56 5.34 2.29 8.12 1.9l-2.53-1.94A5.5 5.5 0 0 0 69 203.3a6.1 6.1 0 0 0 4.99 1c2.93-.37 5.72-1.67 8.43-2.8a51 51 0 0 0 9.46-4.52 98 98 0 0 0 7.33-5.7l1.62-1.35.66-.54.38-.3.45-.37q.3-.24.58-.49l1.08-.9c1.97-1.67-.88-4.49-2.83-2.83l-1.66 1.4c-.37.32.59-.45-.04.04l-.5.4q-.54.41-1.04.84c-1.9 1.58-3.79 3.19-5.75 4.69-4.49 3.43-9.73 5.48-15 7.45a17 17 0 0 1-4.03 1.1 2 2 0 0 1-1.7-.26 2 2 0 0 1-.38-.47c-.08-.14-.16-.49-.14-.24a2.05 2.05 0 0 0-2.53-1.93c-.86.13-3.37.58-3.9-.46a1 1 0 0 1 .02-.64c.01-.07.2-.66.1-.37-.09.25.02-.03.05-.09.66-1.2-.14-3.17-1.73-3-2.2.22-2.63-2.43-1.25-3.67a43 43 0 0 1 4.34-3.1c4.49-3.02 9.5-5.3 14.14-8.1 2.2-1.33.19-4.79-2.02-3.45Z" class="c"/><path d="M79.7 181.63c-2.21 1.04-4.34 2.29-6.48 3.47l-7.34 4.07a2 2 0 0 0 2.02 3.45l7.33-4.07c2.14-1.18 4.27-2.42 6.49-3.46a2 2 0 0 0 .72-2.74 2.05 2.05 0 0 0-2.74-.72m18.96-98.98a107 107 0 0 1 14.1 5.9 66 66 0 0 1 11.4 7.16c3.52 2.91 5.87 6.73 7.94 10.74a131 131 0 0 1 5.76 13.42c1.82 4.78 3.53 9.6 5.04 14.48q1.18 3.83 2.24 7.7c1.06 3.87 1.57 5.1 2.06 7.72a25 25 0 0 1-.89 13.28 19.7 19.7 0 0 1-7.67 9.37c-5 3.06-10.1 5.99-15.32 8.63q-3.96 1.96-7.96 3.82-1.9.9-3.8 1.77l-1.85.86-.71.33-.35.16q-.7.29 0 .07l.89.52c-.59-.48-.96-1.84-1.3-2.53q-.8-1.61-1.62-3.21-1.84-3.61-3.73-7.2-1.8-3.42-3.63-6.84l-1.42-2.68-.61-1.16-.27-.5c-.44-.68.23-.18-.13.35l-.71.71a27 27 0 0 1 3.73-2.04l3.83-2.05 7.46-4 14.3-7.67c2.27-1.21.25-4.67-2.02-3.45l-21.75 11.67-5.8 3.08c-1.76.94-3.63 2.08-2.84 4.4a43 43 0 0 0 3.06 5.88c2.76 5.21 5.54 10.43 8.18 15.7.54 1.07 1.03 2.15 1.57 3.2.97 1.87 2.67 2.19 4.48 1.37q5.36-2.45 10.67-5 5.7-2.7 11.22-5.78c3.46-1.94 7.22-3.8 10.35-6.26a25 25 0 0 0 6.51-8.02 24 24 0 0 0 2.45-9.68 35 35 0 0 0-1.42-12.08c-1.14-4.06-2.28-8.13-3.54-12.16a230 230 0 0 0-8.4-22.68c-2.99-6.86-6.5-13.58-12.58-18.18a84 84 0 0 0-20.1-10.85 190 190 0 0 0-5.76-2.13c-2.43-.86-3.47 3-1.06 3.86M51.92 78.8a114 114 0 0 0-15.05 6.3 72 72 0 0 0-12.08 7.67c-3.77 3.08-6.39 7.19-8.6 11.47a136 136 0 0 0-6.11 14.18 244 244 0 0 0-5.34 15.3c-.83 2.72-1.57 5.45-2.36 8.17a60 60 0 0 0-2.02 8.24c-.63 4.48-.54 9.7 1.11 13.99a24.7 24.7 0 0 0 8.29 10.97 87 87 0 0 0 7.61 4.58q4.1 2.36 8.31 4.52c5.25 2.68 10.63 5.1 15.98 7.58a2.06 2.06 0 0 0 2.74-.72 2 2 0 0 0-.72-2.74 302 302 0 0 1-27.53-14 31 31 0 0 1-5.61-3.74 22 22 0 0 1-3.87-4.89c-2.17-3.65-2.75-7.83-2.62-12.04.15-5.21 2.05-10.32 3.48-15.28q2.19-7.54 4.9-14.9c1.7-4.6 3.44-9.22 5.5-13.68 1.93-4.2 4.11-8.65 7.34-12.03 3.31-3.46 7.69-5.88 11.82-8.22A99 99 0 0 1 53 82.65c2.4-.85 1.36-4.72-1.07-3.86Z" class="c"/><path d="M28.34 185.23c3.07 1.4 6.08 2.9 9.13 4.33l3.92 1.81c1.47.68 3.04 1.24 4.36-.15a9 9 0 0 0 1.33-2.42q.73-1.49 1.48-2.96 1.61-3.18 3.27-6.34 3.1-5.9 6.22-11.76c1.06-1.99 2.26-4.25-.17-5.86-1.48-.97-3.2-1.7-4.77-2.54l-4.65-2.48-19.66-10.55c-2.27-1.21-4.29 2.24-2.01 3.45l14.3 7.68 7.24 3.88 3.84 2.05a29 29 0 0 1 3.94 2.16l-.71-.72c-.4-.58.3-.99-.09-.43l-.26.5-.6 1.14-1.49 2.79-3.62 6.84q-1.88 3.59-3.73 7.2-.79 1.53-1.56 3.08c-.35.72-.75 2.16-1.36 2.65l.88-.51c.24-.1.54.2.01-.07q-.43-.22-.88-.4l-1.47-.69-3.54-1.65c-2.45-1.14-4.87-2.36-7.33-3.48a2.06 2.06 0 0 0-2.73.72 2 2 0 0 0 .71 2.73" class="c"/><path d="M50.16 186.1q4.5-9.28 9.22-18.45a2.05 2.05 0 0 0-.72-2.74 2 2 0 0 0-2.74.72q-4.7 9.17-9.22 18.45a2.05 2.05 0 0 0 .72 2.74 2 2 0 0 0 2.73-.72Zm43.5-17.12c2.75 5.9 5.55 11.77 8.2 17.72a2 2 0 0 0 2.73.72 2.05 2.05 0 0 0 .72-2.73c-2.64-5.95-5.45-11.83-8.2-17.73a2 2 0 0 0-2.73-.72 2.05 2.05 0 0 0-.72 2.74m175.77 35.04h33.53c2.57 0 2.57-4 0-4h-33.53c-2.58 0-2.58 4 0 4" class="c"/><path d="M269.48 112.6a71 71 0 0 0 16.13 2.31c5.15.01 12.47-.8 17.5-2.8" class="h"/><path d="M326.07 164.3c.13-8.53.54-17.04.55-25.57 0-2.57-4-2.58-4 0 0 8.53-.42 17.04-.55 25.57-.04 2.58 3.96 2.58 4 0m-80.23-25.12c.02 8.47.96 16.88 1.24 25.33.08 2.57 4.08 2.58 4 0-.28-8.45-1.22-16.86-1.24-25.33-.01-2.57-4.01-2.58-4 0m57.63-38.3c-1.86 7.16-4.17 14.22-6.43 21.26a708 708 0 0 1-8.6 25.3q-.96 2.66-1.98 5.28l-.8 2c-.22.5.16-.38-.05.1l-.17.4-.38.83 1.73-.99h-1.09l1.73 1-.61-1.39-.18-.42-.47-1.18q-.88-2.22-1.7-4.47a504 504 0 0 1-4.08-11.55q-4.4-12.85-8.4-25.83c-1.05-3.44-2.1-6.87-3-10.35-.64-2.49-4.5-1.43-3.85 1.07 1.88 7.26 4.23 14.42 6.53 21.55a697 697 0 0 0 8.6 25.25c1.15 3.13 2.3 6.3 3.72 9.33a2 2 0 0 0 1.72 1h1.08a2 2 0 0 0 1.73-1c2.95-6.32 5.09-13.08 7.34-19.67q4.4-12.86 8.4-25.86c1.08-3.52 2.15-7.04 3.07-10.6.65-2.5-3.2-3.56-3.86-1.07Zm-26.41 53.79q-5.04-8.73-9.95-17.52-2.4-4.34-4.75-8.71l-2.4-4.52c-.69-1.3-1.91-2.93-2.12-4.37v1.06c.08-.46.79-.99 1.12-1.33q.78-.8 1.59-1.58c1.84-1.8-.99-4.63-2.83-2.83-1.25 1.21-3.15 2.63-3.68 4.34-.58 1.87 1 3.93 1.83 5.51q2.8 5.39 5.72 10.7 5.89 10.7 12.01 21.26c1.29 2.23 4.74.22 3.45-2.02Zm34.96-22.07q2.18-4 4.29-8.03l1-1.94a13 13 0 0 0 1.13-2.42c.57-2.12-1.27-3.63-2.6-4.98-1.82-1.83-4.64 1-2.83 2.83q.78.77 1.52 1.58c.74.81-.23-.4.05-.42a8 8 0 0 0-.43.81l-1.81 3.52a392 392 0 0 1-3.77 7.03 2 2 0 0 0 3.45 2.02m-13.56 24.09a572 572 0 0 0 6.24-11.06 2 2 0 1 0-3.45-2.02 572 572 0 0 1-6.24 11.06 2 2 0 0 0 3.45 2.02m25.5 42.87c.57 5.4 1.35 10.77 1.84 16.17a7 7 0 0 0 .15 1.78l.01.2q1.35-.95.45-.78a3 3 0 0 0-.57.04l-3.16.21q-3.37.21-6.73.32a64 64 0 0 1-12.68-.43 21 21 0 0 1-6.57-1.9 15 15 0 0 1-5.02-4.55 16 16 0 0 1-2.38-5.49q-.39-1.62-.7-3.27c-.28-1.37-.39-2.86-.77-4.2a2.64 2.64 0 0 0-2.82-1.96 2.7 2.7 0 0 0-2.35 2.43c-.5 2.51-.85 5.04-1.5 7.51a14 14 0 0 1-7.76 9.21c-4.37 2.03-9.26 2.57-14.01 2.8q-4.18.2-8.36.07a84 84 0 0 1-4.1-.22 4 4 0 0 0-.69-.06q-.67-.18-.04.3.4.7.33-.06a11 11 0 0 0 .17-1.91c.52-5.47 1.28-10.91 1.88-16.37a2 2 0 0 0-2-2 2.05 2.05 0 0 0-2 2c-.56 5.1-1.26 10.17-1.77 15.27-.24 2.37-1 5.77 2.08 6.6a18 18 0 0 0 3.48.33q1.92.11 3.84.15a77 77 0 0 0 15.28-.94c4.98-.92 10.02-2.79 13.49-6.63a18 18 0 0 0 3.92-7.04c.35-1.2.59-2.42.84-3.64a40 40 0 0 1 .93-5l-.51.88-.35.22h-1.06l-.34-.22-.52-.88a30 30 0 0 1 .8 4.22q.39 1.96.86 3.9a18 18 0 0 0 2.9 6.34 20 20 0 0 0 5.93 5.5 22 22 0 0 0 7.2 2.37 69 69 0 0 0 14.36.67q3.7-.11 7.4-.36c2.15-.14 5.29.23 6.35-2.1.59-1.3.13-3.1 0-4.49q-.24-2.3-.52-4.6c-.41-3.46-.85-6.92-1.2-10.39a2.06 2.06 0 0 0-2-2 2 2 0 0 0-2 2Z" class="c"/><path d="M300.79 110.72c-4.4 2.87-9.86 3.73-14.3 3.73-5.86 0-10.37-1.5-12.86-3.35-2.24-1.66-3.1-5.83-2.45-12.15l.08-.79 2.76.77a45 45 0 0 0 13.08 1.38c4.33-.27 7.04-1.18 11.74-2a2.9 2.9 0 0 1 2.5.68 8.2 8.2 0 0 1 2.02 5.97c-.1 1.24.21 3.65-1.28 4.83q-.62.5-1.3.93" class="i"/><path d="M299.78 109c-6.01 3.82-14.4 4.46-21.14 2.34a14 14 0 0 1-3.58-1.67 3.7 3.7 0 0 1-1.4-1.91c-1.1-3-.72-6.49-.4-9.6l-2.53 1.93c6.9 1.91 13.83 2.9 20.96 1.67 1.67-.29 3.33-.67 5-1.01a9 9 0 0 1 2.82-.49c.6.1.9.68 1.18 1.2a9 9 0 0 1 .65 4.25 6 6 0 0 1-.18 1.94c-.23.67-.8.96-1.38 1.34-2.13 1.43-.13 4.9 2.02 3.46 1.9-1.27 3.14-2.56 3.43-4.9a17 17 0 0 0-.15-5.51 8 8 0 0 0-2.97-5c-1.98-1.31-4.35-.58-6.49-.15a49 49 0 0 1-12.35 1.43 52 52 0 0 1-11.48-2.08 2.03 2.03 0 0 0-2.53 1.93c-.37 3.64-.67 7.66.74 11.14 1.24 3.08 3.9 4.6 6.92 5.67 7.8 2.74 17.88 1.93 24.88-2.53 2.16-1.38.16-4.85-2.02-3.46" class="c"/><path d="M318.04 130.47h-13.5a1.2 1.2 0 0 0-1.21 1.22v3.78a1.2 1.2 0 0 0 1.21 1.22h13.5a1.2 1.2 0 0 0 1.22-1.22v-3.78a1.2 1.2 0 0 0-1.22-1.22" class="f"/><path d="M289.46 207.67a94 94 0 0 1-3.46 1.3 13 13 0 0 1-3.52.68 3.2 3.2 0 0 1-3.28-2.75c-1.9.29-3.7.33-4.83-.43-1.9-1.3-.68-3.6-.64-3.68-1.51.27-2.7-.98-3.38-1.99a2.4 2.4 0 0 1-.35-1.02c-2.31-1.83-4.8-3.43-7.24-5.11 2.48-4.86 5.68-10.86 7.68-14.62l.23.03c3.82.61 8.8.87 11.17 2.39l.8.5a2 2 0 0 1 .81-.76 26 26 0 0 1 8.16-2.33c3.08-.01 6.36-.06 8.72 0l1.91.03c1.99 3.75 5.22 9.8 7.72 14.7l-1.67 1.3c-1.78 1.35-8.15 7.08-11.46 8.59-2.9 1.32-5.4 2.38-7.37 3.17" class="a"/><path d="M318.27 128.47h-11.76c-1.2 0-2.68-.23-3.76.44a3.1 3.1 0 0 0-1.42 2.6c-.04 1.07 0 2.13 0 3.19v.98a3.05 3.05 0 0 0 2.07 2.86 8 8 0 0 0 2.26.15h9.48c1.1 0 2.23.07 3.33-.02a3 3 0 0 0 2.78-2.96c.05-1.03 0-2.08 0-3.1q.02-.58 0-1.15a3.06 3.06 0 0 0-2.98-2.99 2 2 0 0 0-2 2 2.05 2.05 0 0 0 2 2c-.54-.05-1.07-.69-1.02-.95v3.04a4 4 0 0 0 0 1.06c.1.28.24-.55.3-.63l.72-.3h-13.96l.72.3.3.72v-.18a7 7 0 0 0 0-1.11c0-.9.07-1.82 0-2.72v-.23q0-.4-.3.7c-.66.67-.98.21-.4.3a22 22 0 0 0 3.28 0h10.37c2.57 0 2.57-4 0-4m-48.14 53.54q1.65.25 3.29.45l.8.1.36.05.18.02.27.04.35.05.79.12a26 26 0 0 1 2.77.58 16 16 0 0 1 1.1.35c.02-.01.2.1.23.11l.55.31a2 2 0 0 0 2.73-.72 2.04 2.04 0 0 0-.71-2.73 15 15 0 0 0-5.44-1.72q-1.72-.28-3.45-.5l-1.5-.2c-.26-.02.3.05-.08 0l-.34-.05-.84-.12a2.05 2.05 0 0 0-2.46 1.4 2 2 0 0 0 1.4 2.46m.3 15.6c-2.43-1.86-5.01-3.5-7.52-5.26a2 2 0 0 0-2.73.72 2.05 2.05 0 0 0 .71 2.73c2.51 1.76 5.1 3.4 7.52 5.26a2 2 0 0 0 1.54.2 2 2 0 0 0 1.4-2.46 2.4 2.4 0 0 0-.92-1.19" class="c"/><path d="M284.3 186.35a1.8 1.8 0 0 1-.3-1.5 1.2 1.2 0 0 1 .92-1.14c.3-.14-.03 0 .17-.08l.52-.2 1.14-.4a33 33 0 0 1 4.07-1.08c.66-.11-.34.01.26-.04.92-.07 1.85-.03 2.76-.04q3.25-.05 6.49 0c2.57.05 2.57-3.95 0-4-2.63-.05-5.25-.01-7.87 0a21 21 0 0 0-6.04 1.06c-1.89.59-4.23 1.2-5.41 2.88a6 6 0 0 0 .45 7.37c1.82 1.82 4.65-1 2.83-2.83" class="c"/><path d="M287.52 184.1c-5.01 3.02-10.33 5.51-15.1 8.91-2.18 1.55-4.3 3.07-4.46 6-.14 3 2.69 6.08 5.77 5.78l-1.73-3a5 5 0 0 0 .11 5.22c1.74 2.44 5 2.19 7.61 1.82l-2.52-1.93a5.3 5.3 0 0 0 2.46 4.01c1.71 1.07 3.83.79 5.7.34a57 57 0 0 0 9.25-3.58 36 36 0 0 0 4.7-2.25 46 46 0 0 0 3.93-2.82q1.89-1.49 3.73-3.03l1.43-1.19.67-.54c.07-.07.69-.54.23-.2a2.07 2.07 0 0 0 .71-2.73 2 2 0 0 0-2.73-.72c-3.72 2.85-7.11 6.49-11.37 8.55a111 111 0 0 1-8.93 3.76 17 17 0 0 1-3.66 1.08 2.2 2.2 0 0 1-1.65-.12c-.25-.18-.5-.75-.47-.56a2.05 2.05 0 0 0-2.53-1.93c-.75.1-2.7.48-3.29-.23-.14-.17-.09-.31-.05-.51a4 4 0 0 1 .17-.56c-.02.07-.17.36-.04.13.66-1.22-.14-3.16-1.73-3-1.9.18-2.14-2.01-1-3.06a4 4 0 0 1 .58-.46l1.12-.81q1.16-.83 2.34-1.62c4.06-2.72 8.59-4.78 12.78-7.3 2.2-1.33.19-4.8-2.02-3.46Z" class="c"/><path d="M288.96 190.49c-2.02.94-3.96 2.08-5.92 3.16l-6.7 3.72a2 2 0 0 0-.7 2.73 2.04 2.04 0 0 0 2.73.72l6.7-3.72c1.94-1.08 3.9-2.21 5.91-3.16a2 2 0 0 0 .72-2.74 2.06 2.06 0 0 0-2.74-.71m37.39-29.68-22.32 11.96c-1.67.89-4.53 1.74-5.03 3.8-.32 1.3.52 2.49 1.1 3.6l3.8 7.16q2.25 4.24 4.43 8.51.92 1.8 1.8 3.6c.78 1.6 1.89 3.18 3.95 2.55a43 43 0 0 0 5.18-2.39q2.89-1.34 5.76-2.72 5.91-2.84 11.59-6.11c3.43-1.98 7.05-3.86 9.8-6.75a20.3 20.3 0 0 0 5.26-9.15 25 25 0 0 0 .2-10.51 82 82 0 0 0-2.43-8.62 543 543 0 0 0-10.78-31.4 40 40 0 0 0-7.43-12.62 28 28 0 0 0-7.56-5.38 102 102 0 0 0-10.44-4.86 71 71 0 0 0-4.7-1.72c-2.45-.8-3.5 3.07-1.06 3.86a86 86 0 0 1 13.35 5.72c3.6 1.9 6.8 3.99 9.26 7.29a36 36 0 0 1 3.33 5.56c.3.62.56 1.24.87 1.85.15.32-.22-.57-.06-.13l.36.9q1.43 3.74 2.75 7.52a632 632 0 0 1 7.92 23.4c1.24 3.96 2.85 8.12 3.08 12.28a17 17 0 0 1-3.54 11.82 23 23 0 0 1-6.63 5.38 215 215 0 0 1-8.69 4.95c-2.82 1.52-5.7 2.9-8.59 4.28l-4.41 2.07a22 22 0 0 1-3.78 1.7h1.06l-.11-.04.71.72a17 17 0 0 1-1.3-2.54l-1.41-2.8q-1.65-3.23-3.34-6.43l-3.17-6-1.36-2.57-.52-.97-.26-.5c-.42-.59.38-.15-.1.55l-.72.72a24 24 0 0 1 3.24-1.78l3.6-1.92 6.76-3.62 12.6-6.77c2.26-1.21.25-4.66-2.03-3.45Z" class="c"/><path d="m245.24 162.48 1.82.98 1.75.94c7.02 3.77 14.43 7.75 22.4 11.99a.9.9 0 0 1 .36 1.19c-2.07 3.94-8.72 16.29-11.4 21.98a.85.85 0 0 1-1.12.44c-3.42-1.58-7.7-3.55-12.2-5.74l-.22-.1a197 197 0 0 1-15.33-8.56" class="d"/><path d="m244.37 164.26 12.6 6.76 6.55 3.51 3.59 1.92a26 26 0 0 1 3.45 1.9l-.71-.73c-.46-.66.31-1.15-.1-.55l-.23.42-.55 1.05-1.3 2.44q-1.63 3.06-3.24 6.13-1.65 3.13-3.27 6.28l-1.49 2.95a17 17 0 0 1-1.3 2.54l.72-.72-.11.04h1.06a18 18 0 0 1-3.21-1.43l-3.74-1.75c-2.6-1.23-5.22-2.45-7.78-3.78q-4.04-2.1-7.97-4.4a43 43 0 0 1-6.76-4.28 17 17 0 0 1-6.1-11.12c-.5-4.51.87-8.75 2.16-13a560 560 0 0 1 7.9-23.69 514 514 0 0 1 3.1-8.6l.87-2.25c.15-.42-.25.45-.06.14.31-.52.51-1.12.78-1.66a42 42 0 0 1 1.79-3.33 20.8 20.8 0 0 1 9.25-8.83 84 84 0 0 1 14.99-6.6c2.44-.8 1.4-4.66-1.06-3.86a91 91 0 0 0-10.19 4.1 60 60 0 0 0-8.63 4.69c-5.05 3.44-8.45 8.69-10.73 14.29-3.8 9.31-6.9 18.98-9.98 28.54q-1.36 4.2-2.6 8.41a32 32 0 0 0-1.68 10.45 21.4 21.4 0 0 0 10.23 17.26 228 228 0 0 0 22.85 12.1 35 35 0 0 0 5.35 2.42c2 .53 3.03-1.04 3.78-2.58q1.96-3.97 4-7.88 2.15-4.1 4.32-8.17l1.71-3.23c.62-1.16 1.45-2.35 1.06-3.72-.54-1.96-3.37-2.8-4.99-3.67l-5.85-3.13-11.35-6.09-5.11-2.74c-2.27-1.22-4.3 2.24-2.02 3.45" class="c"/><path d="M265.58 111.65a20 20 0 0 0 4.9-4.65 7 7 0 0 1-.45-1.41 7.3 7.3 0 0 1 .3-4.03c-1.36-5.47-6.6-8.35-9.63-8.88-5.17-.93-10.23-2.53-15.05-3.78a.53.53 0 0 0-.58.48c-.29 2.85-.71 5.57.38 7.51.71 1.28.72 1.48 3.07 3.15a63 63 0 0 1-7.55 2.23 1.97 1.97 0 0 0-1.24 2.88c2.62 4.39 8.32 7.95 13.02 8.87a17 17 0 0 0 12.83-2.37" class="i"/><path d="M261.4 97.18a18 18 0 0 0-12.02.38 76 76 0 0 1-7.81 2.49 5.7 5.7 0 0 0-3.05 1.44 4 4 0 0 0-1.02 3.08c.2 2.05 2.14 4 3.56 5.36a24 24 0 0 0 5.68 4.02 20.7 20.7 0 0 0 11.17 2.36 19.6 19.6 0 0 0 13.02-6.73c1.7-1.91-1.11-4.75-2.83-2.82a15.2 15.2 0 0 1-17.13 4.7 19.4 19.4 0 0 1-8.6-5.98 12 12 0 0 1-.64-.9c-.15-.23-.25-.46-.27-.36.02-.12-.12.04.04-.03a12 12 0 0 1 1.81-.46 55 55 0 0 0 6.46-2.05 15 15 0 0 1 10.57-.65c2.46.77 3.51-3.09 1.06-3.85" class="c"/><path d="M248.85 97.82a4.5 4.5 0 0 1-1.98-2.79 9 9 0 0 1-.1-2.6 10 10 0 0 1 .33-2.8l-.51.89.21-.18-.88.5.26-.03h-1.06c2.77.73 5.53 1.53 8.3 2.26 2.54.67 5.18 1.03 7.69 1.76a10.6 10.6 0 0 1 7.3 7.25c.66 2.49 4.52 1.43 3.86-1.06a14.7 14.7 0 0 0-11.04-10.27c-3.96-.8-7.84-1.82-11.73-2.9-1.62-.44-4.06-1.65-5.53-.34-1.27 1.14-1.12 3.55-1.2 5.14a10 10 0 0 0 1.02 5.37 10 10 0 0 0 3.04 3.26 2 2 0 0 0 2.74-.72 2.05 2.05 0 0 0-.72-2.74" class="c"/><path d="M270.65 98.18a5 5 0 0 0-1.9 2.01 9 9 0 0 0-.85 3.24 10.3 10.3 0 0 0 1.38 5.67 2 2 0 0 0 2.74.72 2.04 2.04 0 0 0 .71-2.74l-.4-.79.03.07a2 2 0 0 0-.15-.4l-.17-.53-.1-.53c-.08-.42.02.4-.01-.06a11 11 0 0 1-.04-1.11 1 1 0 0 1 .03-.51q-.06.43 0 .1.01-.15.05-.29a3 3 0 0 1 .3-1q-.17.41-.03.13l.11-.21.06-.1-.1.13.3-.3q.24-.2-.14.1l.2-.14a2 2 0 1 0-2.02-3.46" class="c"/><path d="M314.02 68.57a4.3 4.3 0 0 1 3.14-1.15 4 4 0 0 1 3.62 2.01c1.23 2.14 1.18 6.07.35 8.5a13 13 0 0 1-3.85 6.25 4.6 4.6 0 0 1-4.1.97 31 31 0 0 1-6.38 11.44 26.7 26.7 0 0 1-20.61 9.52 43 43 0 0 1-6.4-.86 25 25 0 0 1-14.35-8.48 31 31 0 0 1-6.22-11.6 4.7 4.7 0 0 1-4.05-1 13 13 0 0 1-3.85-6.24c-.83-2.43-.88-6.36.35-8.5a4 4 0 0 1 3.62-2.01 4.3 4.3 0 0 1 3.14 1.15s-2.1-21.83 27.91-21.83 27.68 21.83 27.68 21.83" class="a"/><path d="M313.76 83.15a29 29 0 0 1-1.8 5.48c-1.09 2.94-7.82 14.37-15.8 16.15m-37.54-21.73A33 33 0 0 0 265.44 97c3.98 4.75 8.26 7.63 13.5 8.38" class="h"/><path d="M281.25 96.83a19 19 0 0 0 5.19.64 21 21 0 0 0 3.5-.29 7 7 0 0 0 1.61-.43 2.2 2.2 0 0 0 1.2-.92 2 2 0 0 0 .2-1.54 2 2 0 0 0-2.46-1.4 7 7 0 0 1-1.47.4l-.26.05c-.2.03-.41-.03.08 0a5 5 0 0 0-.65.06 21 21 0 0 1-3.44 0l-.72-.06c-.08 0-.45-.05-.08 0s.02 0-.06-.02a14 14 0 0 1-1.58-.35 2 2 0 1 0-1.06 3.85Zm3.99-13.62a26 26 0 0 1 .6 2.76l-.07-.53v.38l.08-.54-.04.18.2-.48-.06.1.31-.4-.09.1.4-.32-.21.12.48-.2-.37.1.53-.06a1 1 0 0 1-.35 0l.54.07-.4-.07a1.5 1.5 0 0 0-.8-.03 1.5 1.5 0 0 0-.74.23 2 2 0 0 0-.71 2.74l.3.4a2 2 0 0 0 .9.51c.34.05.68.14 1.03.15a3.4 3.4 0 0 0 1.6-.39 2.4 2.4 0 0 0 1.32-1.59 4 4 0 0 0-.02-1.65q-.23-1.34-.58-2.64a2 2 0 0 0-2.46-1.4 2 2 0 0 0-1.2.92 2 2 0 0 0-.2 1.54Zm-13.5-3.85a14 14 0 0 0 2.44.28 13 13 0 0 0 2.44-.25 2 2 0 0 0 .48-3.66 2.2 2.2 0 0 0-1.55-.2l-.6.1.53-.07a9 9 0 0 1-2.36.01l.53.07-.85-.14a1.5 1.5 0 0 0-.8-.03 1.5 1.5 0 0 0-.75.23 2 2 0 0 0-.72 2.74 2 2 0 0 0 1.2.92Zm27.9-3.86-.7.11.53-.07a9 9 0 0 1-2.37.04l.53.08-.73-.13a2 2 0 0 0-1.54.2 2 2 0 0 0-.72 2.74 2 2 0 0 0 1.2.92 11 11 0 0 0 2.45.25 19 19 0 0 0 2.42-.28 2 2 0 0 0 1.2-.92 2 2 0 0 0-.73-2.74l-.47-.2a2 2 0 0 0-1.07 0" class="c"/><path d="M256.7 83.58a37 37 0 0 0 6.72 13.88 27.7 27.7 0 0 0 13.11 9.05c5.47 1.71 11.77 2.23 17.31.6a30 30 0 0 0 13.22-7.83 34.6 34.6 0 0 0 8.62-15.7c.63-2.5-3.22-3.56-3.85-1.06-2.27 9-8.34 16.96-17.25 20.15a25.8 25.8 0 0 1-26.87-6.37 31 31 0 0 1-7.16-13.79c-.66-2.48-4.52-1.43-3.86 1.07" class="c"/><path d="M258.44 68.57a4.3 4.3 0 0 0-3.14-1.15 5 5 0 0 0-.91.11c-.48-1.69-1.21-4.88-1.21-4.88a41 41 0 0 1-.03-13.74c2.95-14.53 17.57-26.05 32.9-25.21a30.5 30.5 0 0 1 13.39 2.37 33.5 33.5 0 0 1 17.2 16.09 29 29 0 0 1 1.9 5.05q.22.84.4 1.7c.92 4.5 2.06 13.3.06 18.91a5 5 0 0 0-1.85-.4 4.2 4.2 0 0 0-3.8 2.02c-.16-2.22-3.52-5.53-5-8.02-1.74-2.91-6.16-7.94-10.23-10.26-9.8 8.21-19.15 16.3-35.55 18.74Z" class="g"/><path d="M256.32 68a41 41 0 0 1-1.66-8.54 33 33 0 0 1 1.01-11.39 30.5 30.5 0 0 1 13.83-17.2 31 31 0 0 1 10.82-3.9 35 35 0 0 1 5.73-.27 35 35 0 0 1 7.22.54 31.6 31.6 0 0 1 20.57 14.89 33 33 0 0 1 3.92 12.96c.5 4.33.75 9-.7 13.2-.84 2.43 3.02 3.48 3.86 1.06 1.44-4.17 1.37-8.85.96-13.2a42 42 0 0 0-3.04-12.98 35.4 35.4 0 0 0-20.35-18.6 40 40 0 0 0-15.32-1.88 34 34 0 0 0-12.7 3.17 35 35 0 0 0-17.4 17.72 34 34 0 0 0-2.48 14.06 46 46 0 0 0 1.87 11.42c.69 2.48 4.55 1.43 3.86-1.06" class="c"/><path d="M298.07 53.47c5.96 4 10.03 10.42 12.64 17a2.06 2.06 0 0 0 2.46 1.4 2 2 0 0 0 1.4-2.46c-3.02-7.61-7.57-14.74-14.48-19.38a2 2 0 0 0-2.02 3.45Z" class="c"/><path d="M296.1 50.26a112 112 0 0 1-14.38 10.76 54 54 0 0 1-18.94 6.84 2 2 0 0 0-1.4 2.46 2.05 2.05 0 0 0 2.46 1.4 57 57 0 0 0 19.9-7.24 118 118 0 0 0 15.18-11.39c1.98-1.65-.86-4.47-2.82-2.83m19.33 19.72a2.5 2.5 0 0 1 2.17-.51 2 2 0 0 1 1.05.44c-.3-.22.52.72.2.22a8.3 8.3 0 0 1 .82 5.03 13 13 0 0 1-1.55 4.82c-.94 1.74-2.36 3.55-4.54 3.26a2 2 0 0 0-2 2 2.05 2.05 0 0 0 2 2c5.12.67 8.27-4.85 9.54-8.99 1.15-3.72 1.1-9.47-2.54-11.84a6.7 6.7 0 0 0-7.98.75c-1.93 1.71.91 4.53 2.83 2.82m-55.57-2.82a6.7 6.7 0 0 0-7.35-1.1 6.4 6.4 0 0 0-3.35 4.31A16 16 0 0 0 251.48 83c1.65 2.45 4.25 4.65 7.4 4.24a2.07 2.07 0 0 0 2-2 2 2 0 0 0-2-2c-2.18.29-3.6-1.52-4.55-3.26a13 13 0 0 1-1.55-4.82 8.3 8.3 0 0 1 .83-5.03c-.33.52.5-.44.2-.22a2 2 0 0 1 .92-.41 2.5 2.5 0 0 1 2.3.48c1.91 1.71 4.75-1.1 2.82-2.82Z" class="c"/></svg>
