<svg xmlns="http://www.w3.org/2000/svg" fill="none" viewBox="0 0 40 41"><g clip-path="url(#clip0_9067_87779)"><path stroke="currentColor" stroke-width="1.5" fill="none" d="M9 1.05h17.04l8.21 7.53V36.3c0 1.8-1.46 3.25-3.25 3.25H9a3.25 3.25 0 0 1-3.25-3.25v-32c0-1.8 1.46-3.25 3.25-3.25Z"/><mask id="path-2-inside-1_9067_87779" fill="currentColor"><path d="M25 1.3h8.5v8.5H26a1 1 0 0 1-1-1z"/></mask><path fill="currentColor" d="M25 1.3h8.5zm8.5 9.5H26a2 2 0 0 1-2-2h9.5zm-7.5 0a2 2 0 0 1-2-2V1.3h2zm7.5-9.5v8.5z" mask="url(#path-2-inside-1_9067_87779)"/><rect width="32" height="13" x="1" y="20.297" fill="currentColor" rx="2"/><path fill="currentColor" d="M10.12 23.28v7.02H8.4v-2.9H5.75v2.9H4.04v-7.02h1.7v2.75h2.67v-2.75zm6.28 0v1.37h-1.86v5.65h-1.7v-5.65h-1.87v-1.37zm8.8 0v7.02h-1.7v-4.21l-1.57 4.2h-1.38l-1.58-4.21v4.22h-1.71v-7.02h2.02l1.97 4.86 1.95-4.86zm2.95 5.7h2.24v1.32h-3.95v-7.02h1.7z"/></g><defs><clipPath id="clip0_9067_87779"><path fill="currentColor" d="M0 .3h40v40H0z"/></clipPath></defs></svg>
