<svg xmlns="http://www.w3.org/2000/svg" viewBox="0 0 1024 1024"><path fill="currentColor" d="M384.34 159.74a74.41 53.16 90 1 0 106.33 0 74.41 53.16 90 1 0-106.33 0M278.76 866.86c36.7 53.67 79.64 85.37 135.17 66.15l3.76-1.3c55.5-19.22 86.63-75.2 65.83-135.78s-111.3-58.59-140.67-176.9c-29.38-118.34 124.1-146.18 125.82-268.05-4.35-106.4-127.14-66.16-127.14-66.16L190.8 339.86s-97.03 28.01-50.8 150.8c0 0 102.06 322.52 138.75 376.2m254.57-707.12a74.41 53.16 90 1 0 106.33 0 74.41 53.16 90 1 0-106.33 0m211.9 707.12c-36.69 53.67-79.63 85.37-135.16 66.15l-3.76-1.3c-55.5-19.22-86.63-75.2-65.83-135.78s111.3-58.59 140.67-176.9c29.38-118.34-124.1-146.18-125.82-268.05 4.35-106.4 127.14-66.16 127.14-66.16l150.72 55.04s97.03 28.01 50.8 150.8c0 0-102.06 322.52-138.75 376.2"/><path fill="currentColor" d="M405.33 170.67s4.38-42.1 32.2-42.1 31.8 42.1 31.8 42.1 11.63 45.54-14.18 59.41c20.65-10.33 35.52-37.9 35.52-70.34 0-41.08-23.79-74.4-53.14-74.4-29.38 0-53.17 33.32-53.17 74.4 0 32.39 14.85 59.95 35.46 70.32-25.81-13.91-14.49-59.4-14.49-59.4m-80.62-42.82c-20.94 0-37.95 23.92-37.95 53.42 0 29.48 17 53.4 37.95 53.4s37.96-23.92 37.96-53.4c0-29.5-17-53.42-37.96-53.42M234.67 192c-17.65 0-31.9 19.11-31.9 42.7s14.25 42.74 31.9 42.74 31.89-19.11 31.89-42.73c0-23.6-14.25-42.71-31.9-42.71M106.58 306.26c-11.75 0-21.25 14.36-21.25 32.04s9.5 32.05 21.25 32.05c11.78 0 21.27-14.36 21.27-32.05s-9.5-32.04-21.27-32.04m57.58-59.16c-15.57 0-28.2 16.94-28.2 37.83s12.63 37.82 28.2 37.82c15.62 0 28.25-16.94 28.25-37.82s-12.61-37.83-28.25-37.83m11 158.38c9.57-17.58 27.57-24.64 27.5-24.64h-.01l1.4-.4 1.39-.51 149.72-54.68A137 137 0 0 1 390.6 320c28.68 0 34.33 9.75 35.4 31.5-1.05 40.35-27.06 67.74-57.14 99.42-39.46 41.58-72.08 76.97-50.98 162.05C339 698.05 417.83 731.4 453.87 756.93c-35.7-29.25-89.58-51.56-111.02-137.9-29.38-118.34 124.1-146.18 125.82-268.05-2.45-60.61-43.33-73.65-78.06-73.65a176 176 0 0 0-49.06 7.5l-150.72 55.03s-97.03 28.01-50.8 150.8c0 0 102.04 322.52 138.75 376.2 2.44 3.56 4.93 6.87 7.45 10.22-24.24-38-140.46-417.52-111.06-471.6m443.5-234.81s-4.37-42.1-32.19-42.1-31.8 42.1-31.8 42.1-11.63 45.54 14.18 59.41c-20.65-10.33-35.52-37.9-35.52-70.34 0-41.08 23.79-74.4 53.14-74.4 29.38 0 53.17 33.32 53.17 74.4 0 32.39-14.85 59.95-35.46 70.32 25.81-13.91 14.49-59.4 14.49-59.4m80.63-42.82c20.94 0 37.95 23.92 37.95 53.42 0 29.48-17 53.4-37.95 53.4s-37.96-23.92-37.96-53.4c0-29.5 17-53.42 37.96-53.42M789.33 192c17.65 0 31.9 19.11 31.9 42.7s-14.25 42.74-31.9 42.74-31.89-19.11-31.89-42.73c0-23.6 14.25-42.71 31.9-42.71m128.09 114.26c11.75 0 21.25 14.36 21.25 32.04s-9.5 32.05-21.25 32.05c-11.78 0-21.27-14.36-21.27-32.05s9.5-32.04 21.27-32.04m-57.58-59.16c15.57 0 28.2 16.94 28.2 37.83s-12.63 37.82-28.2 37.82c-15.62 0-28.25-16.94-28.25-37.82s12.61-37.83 28.25-37.83m-11 158.38c-9.57-17.58-27.57-24.64-27.5-24.64h.01l-1.4-.4-1.39-.51-149.72-54.68A137 137 0 0 0 633.4 320c-28.68 0-34.33 9.75-35.4 31.5 1.05 40.35 27.06 67.74 57.14 99.42 39.46 41.58 72.08 76.97 50.98 162.05C685 698.05 606.17 731.4 570.13 756.93c35.7-29.25 89.58-51.56 111.02-137.9 29.38-118.34-124.1-146.18-125.82-268.05 2.45-60.61 43.33-73.65 78.06-73.65a176 176 0 0 1 49.06 7.5l150.72 55.03s97.03 28.01 50.8 150.8c0 0-102.04 322.52-138.75 376.2-2.44 3.56-4.93 6.87-7.45 10.22 24.24-38 140.46-417.52 111.06-471.6"/></svg>
