<svg xmlns="http://www.w3.org/2000/svg" viewBox="0 -94.2 430.083 430.083"><defs><style>.a{fill:#211715}.b{fill:#fff}.c{fill:#c6c6c6}.e{fill:#7a7473}.f{fill:#5199d1}</style></defs><path d="M135.37 71.88c10.04 5.38 20.02 10.88 30.03 16.34q23.13 12.62 46.25 25.27l20.23 11.08c2.25 1.24 4.28-2.21 2.02-3.45q-20.08-11.02-40.18-22L150.3 75.44q-6.44-3.52-12.92-7c-2.27-1.21-4.29 2.24-2.02 3.46Z" class="a"/><path d="M188.59 63.08a16 16 0 0 1 .5 3.54c.24 2.19 2.27 10.25 2.17 10.79a21 21 0 0 1-.19 3.2 9 9 0 0 1-.54 2.17 4.2 4.2 0 0 1-2.13 2.32 10 10 0 0 1-5.37.87.75.75 0 0 0-.82.5 21 21 0 0 0-.94 3.42l.09-.08c-.3 2.3 1.55 5.08 2.19 8.03a60 60 0 0 1 1.55 9.67 56 56 0 0 1-.34 8.3c2.61-3.94 3.88-4.75 5.75-8.28a2.9 2.9 0 0 0-.2-3 9 9 0 0 1-1.44-3.13 5.6 5.6 0 0 1 1.93-5.13 5.5 5.5 0 0 1 4.94-.96 3.4 3.4 0 0 1 2.09 2.03l.51-.54c1.07-1.14 6.14 1.38 7.27 2.34a5 5 0 0 1 1.6 3.27 5 5 0 0 1-2.01 4.02v.1a10 10 0 0 1-1.4 3.26 5 5 0 0 1-2.47 1.87 4 4 0 0 1-1.94-.3l-.17.76c-.62 2.83-2.85 5.68-4.38 8.07a99 99 0 0 1-8 11q-.83.96-1.7 1.9a4.4 4.4 0 0 1-2.49 1.24c-.16.05-.44-.02-.36-.18l-1.2-.28q-.5 2.4-.78 4.8c-.4 3.33-.71 9.66-1.12 13.21a15 15 0 0 1 3.17 1.7c1 .75 2.24 1.97 2.2 2.99a5 5 0 0 1-1.1 1.76 8 8 0 0 1 1.6 2.57 2.3 2.3 0 0 1-.24 1.29 8 8 0 0 1-1.66 2.45c1.44 2.84 2.77 5.68 4.52 9.43a39 39 0 0 1 3.35 9.25 31 31 0 0 1 .31 9.2c-1.3 10.49-3.19 28.93-2.55 31.31-.77 1.44 5.96 4.19 9.1 5.5 2.23.94 4.6 1.67 5.4 3.95a4 4 0 0 1-1.8 4.48 7.6 7.6 0 0 1-5.02.9c-1.72-.2-3.4-.72-5.1-1.02a67 67 0 0 0-9.03-.43c-3.04-.1-6.58-.87-7.84-3.63-1.08-2.36-.1-5.05 1.24-7.26a13 13 0 0 0 1.3-2.9 16 16 0 0 0-.22-3.25c-1.67-11.33-2.43-15.16-2.17-24.67.07-2.67.25-4.24-.61-6.58a13 13 0 0 0-2.76-4.16c-1.21 3.31-1 5.9-1.94 9.05a20 20 0 0 1-1.82 4.19 16 16 0 0 1-4.62 4.66c-9.27 6.27-16.9 11.58-26.53 17.25-1.1 2.4.32 5.24 2.04 6.7.93.79 2.06 1.33 3 2.1a3.8 3.8 0 0 1 1.61 3.12 3.3 3.3 0 0 1-1.84 2.43 9 9 0 0 1-3.05.8 16 16 0 0 1-3.74.18 9.2 9.2 0 0 1-6.21-3.35c-.78-.96-1.36-2.08-2.09-3.08-1.2-1.65-2.82-2.96-4.16-4.52a7.8 7.8 0 0 1-2.24-5.54 7.3 7.3 0 0 1 2.63-4.93 11 11 0 0 1 5-2.08c1.13-.38 2.76-.62 3.42-1.34.6-.65 1.1-1.43 1.67-2.13 1.05-1.31 3.89-4.95 5.01-6.2 3.19-3.5 5.55-6.56 9.47-9.2 1.53-1.05 2.84-1.4 4.16-2.39 1.5-1.13 2.24-1.63 2.41-3.5.12-1.22.29-6.24.37-8.4a130 130 0 0 1 1.2-13l-.64-.92c-1.84-2.82-3.7-5.71-4.5-8.98-1.12-4.54-.06-9.33 1.42-13.76.37-1.12.87-2.34 2.28-2.46l-1.46-2.72a33 33 0 0 1-3.46-8.45c-.9-4.35-.05-8.85.8-13.22 1.32-6.76 2.64-13.53 4.6-20.14a17 17 0 0 1 4.1-6.86 15.4 15.4 0 0 1 7.43-3.88l.93-.27c-.87-.88-1.91-1.67-2.65-2.35a17.3 17.3 0 0 1-5.64-11.7 17 17 0 0 1 2.12-8.91c3.45-6.1 7.8-7.47 10.5-8.03a17 17 0 0 1 7.84.3 14 14 0 0 1 8.18 5.43 12 12 0 0 1 1.88 5.18" class="b"/><path d="M188.24 72.52a11 11 0 0 0-2.8-1.5.4.4 0 0 1 .01-.7c1.25-.62 2.55-1.15 3.33-1.54l.63-.28c.37 1.9.98 4.53 1.4 6.44l-1.56-1.27a4 4 0 0 0-1-1.16" class="a"/><path d="M298.11 90.56h-.24a124 124 0 0 0-4.85-12.28 21 21 0 0 0-2.17-2.99l1.11-2.77.95-2.36a23 23 0 0 0 .84-2.68.85.85 0 0 1 .99-.52 11.7 11.7 0 0 0 6.26-.64 5 5 0 0 0 .85-.44q.87 1.2 1.96 2.77a1 1 0 0 0 .44.36l-2.38 2.1a8 8 0 0 0 .22 1.97 16 16 0 0 0 1.5 3.92l-1.34-.04-2.76.06c1.5 4.11 3.43 9.95 3.65 13.54z" class="b"/><path d="M137.8 68.79c-2.47-2.93-6.1-7.24-8.43-9.56a14 14 0 0 0-2.75-2.63c-2.73-1.58-12.19-2.19-14.27-1.94-.23.03-.88.12-1.01.37a1.5 1.5 0 0 0-.12 1.15 38 38 0 0 0 4.54 10.31 7 7 0 0 0 2.93 2.08c2.2.76 13.05 3.28 17.13 4.19" class="c"/><path d="M54.95 237.68a22 22 0 0 1-4.04.3 7 7 0 0 1-3.63-1.56 5.2 5.2 0 0 1-1.13-3.19c-.12-1.57 1.51-5.48 2-8.58l.14-.89.29.26c1.6 1.38 10.08 2.29 12.61 1 1.69 2.76 4.01 3.9 7.06 5.52 2 1.05 3.05 1.3 3.86 2.73a4.3 4.3 0 0 1 .13 3.2c-.95 1.45-2.01 2.19-6.41 2.24-3.66.05-6.25-.81-9.64-1.06a8 8 0 0 0-1.24.03m-48.14-7.76a43 43 0 0 0-4.4-9.15c-2.21-3.5 4.39-8.2 7.83-10.45a19.5 19.5 0 0 0 9.1 8.52c-.83 3.23-2.2 6.22-.11 9.02a13 13 0 0 1 1.8 3.46 8 8 0 0 1 .38 3.53 3.1 3.1 0 0 1-2.24 2.45 9.3 9.3 0 0 1-5.64-.12c-1.75-.58-5.58-1.92-6.43-6.08q-.1-.57-.3-1.18m295.95-188.7c-.52-6.94-4.69-10.58-8.1-12.64a16 16 0 0 0-10.1-2.15 19.3 19.3 0 0 0-11.2 4.9A20.5 20.5 0 0 0 267 42.88a20 20 0 0 0 .68 8.97 24 24 0 0 0 5.05 8.15c2.56 2.57 4.7 4.2 5.02 6.45a1.4 1.4 0 0 1 .72.13 75 75 0 0 1 6.67 4.04 23 23 0 0 1 5.71 4.66l1.12-2.76.95-2.36a23 23 0 0 0 .83-2.68.85.85 0 0 1 .99-.52 11.7 11.7 0 0 0 6.26-.64 5 5 0 0 0 2.62-2.54 10 10 0 0 0 .77-2.48 24 24 0 0 0 .43-3.68 4 4 0 0 1 .84-1.67c.66-.75 1.74-1.34 1.15-2.6a2.4 2.4 0 0 0-1.1-1.06c-2.36-1.2-2.54-4.73-2.68-7.28a19 19 0 0 0-.33-4.11" class="b"/><path d="M290.5 26.84a16 16 0 0 0-5.93-.42 19.3 19.3 0 0 0-11.2 4.91A20.5 20.5 0 0 0 267 42.88a20 20 0 0 0 .68 8.97 24 24 0 0 0 5.05 8.15c1.26 1.27 2.42 2.3 3.31 3.3q.97-.32 1.9-.69a7.9 7.9 0 0 0 4.93-5.83l.04-.3a6.2 6.2 0 0 1-1.7-4 3.6 3.6 0 0 1 1.1-2.97 2.4 2.4 0 0 1 2.04-.37 3 3 0 0 1 1.59.97 26 26 0 0 1 6.13-6.43.94.94 0 0 1 1.2.01.9.9 0 0 0 1.15.06c1.71-1.27 6.1-4.36 7.07-6.28l.34-.68a16 16 0 0 0-7.17-8.2 16 16 0 0 0-4.15-1.75" style="fill:#85807f"/><path d="M316.35 63.37a4 4 0 0 0-.32-.71 6 6 0 0 0-1.32-1.41l-1.86-1.64-10.98 11.5a8 8 0 0 0 .22 1.97 16 16 0 0 0 1.5 3.92c2.74.11 7.6.5 11.33.82a6 6 0 0 1 .13-.97l1.32-6.27a16 16 0 0 0 .13-6.65z" class="b"/><path d="M309.5 57.6c-1.04-1.62-2.1-3.24-3-4.71a2 2 0 0 1 .31.46c.59 1.26-.49 1.85-1.15 2.6a4 4 0 0 0-.85 1.67 24 24 0 0 1-.43 3.68 10 10 0 0 1-.77 2.48 5 5 0 0 1-1.76 2.1q.87 1.2 1.96 2.77a1.14 1.14 0 0 0 1.63.21 332 332 0 0 0 6.77-5.06 1.1 1.1 0 0 0 .27-1.44 132 132 0 0 0-2.97-4.76" class="c"/><path d="M417.11 117.36a97 97 0 0 1 3.24 18.53c.33 4.33.37 8.68.3 13.01a263 263 0 0 1-6.56 54.24 7.7 7.7 0 0 0 1.66 6.11c2.72 2.9 4.55 4.5 7.89 7.86a16.5 16.5 0 0 1 4.15 7.07 15 15 0 0 1-1.8 10.87c-1.54 2.54-5.5 3.53-9.35 3.53-12.78 0-31.42-.1-43.54-.1-2.53 0-5.46-.4-7.18-2.25a12.3 12.3 0 0 1-3.07-5.74c-1.03-5.87 2.4-9.1 6.33-13.6a53 53 0 0 0 9.3-15.83c2.58-7.34 2.32-16.74 1.65-21.67q-.52-3.66-.95-7.34a176 176 0 0 1-.42-35.94 39 39 0 0 1 3.23-13.36l3.65-10.01c.07.22.46.13.52-.1a1 1 0 0 0-.2-.65c-2.25-3.57-3.85-23.5-4.6-27.58a56 56 0 0 1-.24-20.79c1.02-5.64 5.3-9.65 8.37-10.39a19 19 0 0 1 11.06.08 22 22 0 0 1 4.06 1.41 21.7 21.7 0 0 1 9.79 10.12 43 43 0 0 1 3.78 13.77 85 85 0 0 1-1.7 30.75Z" class="b"/><path d="M393.34 46.1c-.16 2.1-.45 4.43-.63 6.4l-.01.1a19 19 0 0 1 7.84.72 22 22 0 0 1 4.06 1.41 18 18 0 0 1 2.04 1.14l.17-1.59c.15-1.48.34-4.22.34-5.62v-2.49c-4.82.38-8.4-.37-13.69-2.58q0 1.15-.12 2.51" class="c"/><path d="M382.26 33.25a17 17 0 0 1-2-7.25 28 28 0 0 1 2.3-13.3 19 19 0 0 1 4.26-5.62 19.5 19.5 0 0 1 18.14-4.5A20.4 20.4 0 0 1 418.8 16.6c.73 2.5 1.56 4.4 2.22 6.69a26 26 0 0 1 .9 3.6 25 25 0 0 1-1.15 9.2c-1.14 3.14-1.62 3.76-4.14 6.26a16 16 0 0 1-7.17 3.58c-6.61.9-10.54.1-17.65-3.04a23 23 0 0 1-4.6-2.88 22 22 0 0 1-4.95-6.76" class="b"/><path d="M165.06 82.26a20 20 0 0 0-6.72 3.03 17.5 17.5 0 0 0-5.08 6.28 42 42 0 0 0-2.63 8.4q-1.08 4.43-1.97 8.91c-1.16 5.74-2.9 11.87-2.25 17.77.63 5.67 3.72 10.71 6.44 15.6 3.15 5.65 6.5 11.19 10.18 16.5 1.46 2.1 4.93.1 3.45-2.01-3-4.33-5.77-8.82-8.4-13.38q-1.98-3.42-3.83-6.9a41 41 0 0 1-3.2-6.93c-1.65-5.35-.24-10.95.8-16.28 1.09-5.5 2.22-11 3.74-16.4a16.3 16.3 0 0 1 3.99-7.36 14 14 0 0 1 6.54-3.36c2.48-.7 1.42-4.55-1.06-3.86Z" class="a"/><path d="M111.97 58.6q-.38-1.13-.75-2.42a1.5 1.5 0 0 1 .11-1.16c.14-.24.78-.34 1.02-.36 2.08-.25 11.53.36 14.27 1.94a14 14 0 0 1 2.74 2.63c2.34 2.31 5.96 6.63 8.44 9.56-.67 1.31-1.43 2.82-1.99 3.97-4.07-.91-14.91-3.43-17.12-4.19a7 7 0 0 1-2.93-2.08 37 37 0 0 1-3.79-7.89" class="c"/><path d="M139.21 67.38c-1.93-2.29-3.85-4.58-5.84-6.8q-1.22-1.36-2.49-2.66a16 16 0 0 0-3.25-3.05 16 16 0 0 0-5.57-1.56 63 63 0 0 0-6.86-.67c-1.59-.06-3.89-.32-5.15.84-1.31 1.22-.85 3-.39 4.48a44 44 0 0 0 1.72 4.57c1.13 2.58 2.41 5.43 4.84 7.02A16 16 0 0 0 121 71.3c4.74 1.22 9.51 2.32 14.28 3.39 2.51.56 3.58-3.3 1.07-3.86a439 439 0 0 1-14.4-3.42c-1.92-.5-3.83-.84-4.92-2.67a36 36 0 0 1-2.3-4.46q-.44-1.1-.83-2.2c-.21-.65-.85-1.97-.64-2.52l-.51.88q-.56.32-.05.17-.39.05-.17.03l.43-.02 1.27-.01q1.6.03 3.2.17a34 34 0 0 1 7.07 1.11 4.5 4.5 0 0 1 2.4 1.62c1 1.08 2.02 2.11 3 3.2a244 244 0 0 1 6.49 7.5c1.66 1.97 4.48-.88 2.83-2.83Z" class="a"/><path d="M136.96 74.98c1-2.18 2.12-4.31 3.21-6.45a2 2 0 1 0-3.45-2.02c-1.1 2.14-2.2 4.27-3.21 6.45a2.2 2.2 0 0 0-.2 1.54 2 2 0 0 0 3.65.48" class="a"/><path d="M133.45 74.94c1.48-3.19 3.1-6.31 4.7-9.44a2 2 0 0 0-3.45-2.02c-1.6 3.13-3.23 6.25-4.7 9.44a2.05 2.05 0 0 0 .72 2.74 2 2 0 0 0 2.73-.72" class="a"/><path d="M129.97 74.27c1.73-3.76 3.65-7.43 5.53-11.11a2 2 0 0 0-3.46-2.02c-1.88 3.68-3.79 7.35-5.52 11.1a2.05 2.05 0 0 0 .71 2.74 2.03 2.03 0 0 0 2.74-.71" class="a"/><path d="M177.36 52.84a19 19 0 0 0-6.5.08 14 14 0 0 0-8.27 4.81 15.2 15.2 0 0 0-4.78 8.25 39 39 0 0 0-.5 11.24c.15 2.5.34 5.02.28 7.52a4.4 4.4 0 0 0 3.68 4.5c1.77.28 3.63.5 5.92.65.43-2.96 4.55-9.97 5.1-12.14l.05-.2a5.3 5.3 0 0 1-1.7-3.4 3 3 0 0 1 .8-2.6 2.1 2.1 0 0 1 1.74-.43l.42.11c1.54-.31 1.96-1.76 2.5-3a12 12 0 0 1 2-3.15 3 3 0 0 1 .65-.59 4 4 0 0 1 1.5-.46c2.85-.35 5.24-.45 8.43-.82A20 20 0 0 0 187 57.9c-.58-1.22-2.86-3.67-7.86-4.75q-.85-.19-1.78-.31" class="e"/><path d="M391.46 43.95c-.07 2.86-.49 5.7-.75 8.54a2 2 0 0 0 2 2 2.05 2.05 0 0 0 2-2c.26-2.84.68-5.68.75-8.54a2 2 0 0 0-2-2 2.04 2.04 0 0 0-2 2m13.69 4.7a55 55 0 0 1-.34 5.63 2 2 0 0 0 .58 1.41 2 2 0 0 0 2.83 0 2.3 2.3 0 0 0 .59-1.41 55 55 0 0 0 .34-5.62 2 2 0 1 0-4 0m8.37-26.07c.46 1.09.55 3.7-1.45 4.16-2.69.28-3.2-2.84-2.46-4.41.6-1.3 2.71-2.04 3.91.25" class="a"/><path d="M384.22 114.15a2.3 2.3 0 0 0 3.5-.29c.8-1.11.3-2.22-.26-3.28-.12-.23.09.3-.07-.18l-.27-.79q-.29-.96-.5-1.96c-.77-3.38-1.23-6.85-1.67-10.3-.42-3.32-.78-6.65-1.19-9.98-.32-2.66-.88-5.29-1.17-7.95a52 52 0 0 1 .45-15.27c.68-3.6 3.16-7.93 6.86-8.96a19.8 19.8 0 0 1 14.72 1.79c4.47 2.48 7.53 6.96 9.24 11.68 2.24 6.16 2.88 12.93 2.98 19.45a83 83 0 0 1-2.31 20.71c-.6 2.5 3.25 3.57 3.86 1.07 2.94-12.27 3.54-25.66.6-38-1.3-5.45-3.68-10.77-7.67-14.78a24 24 0 0 0-14.89-6.6c-4.58-.45-9.48.73-12.76 4.06-4.04 4.08-4.9 9.5-5.29 15.01a59 59 0 0 0 .73 13.6c.46 2.82.7 4.55 1.05 7.58.5 4.36 1 8.72 1.69 13.06.5 3.23.98 6.59 2.54 9.5l-.27-1 .03.33.58-1.42-.15.18.89-.51-.22.04 1.94.51-.15-.12c-1.95-1.66-4.79 1.15-2.83 2.82Z" class="a"/><path d="M382.61 73.78a128 128 0 0 0-1.09 16.38 202 202 0 0 0 .21 16.07c.16 2.55 4.16 2.57 4 0a201 201 0 0 1-.21-15.7 125 125 0 0 1 .95-15.68 2.06 2.06 0 0 0-1.4-2.46 2 2 0 0 0-2.46 1.4Zm21.59 2.2c-1.15 9.33-3.3 18.5-4.02 27.89-.2 2.57 3.8 2.55 4 0 .72-9.38 2.87-18.56 4.02-27.89a2 2 0 0 0-2-2 2.05 2.05 0 0 0-2 2" class="a"/><path d="M381.85 111.28q.22 1.11.45 2.1a2.15 2.15 0 0 0 2.6 1.78 168 168 0 0 0 17.86-6.38 2.7 2.7 0 0 0 1.2-3.33v-.05a2.1 2.1 0 0 0-2.38-1.49 376 376 0 0 0-18.15 4.42 2.54 2.54 0 0 0-1.58 2.95" class="c"/><path d="M265.77 226.34c-1.73-1.65-3.34-3.69-3.47-6.07l-.07-1.42q-.06 0-.1-.03-3.11-1.36-6.03-2.6l-4.46-1.2-3.5 1.11c-2.74.87-4.41 3.44-5.47 6.15a6 6 0 0 0-.41 2.89 5.6 5.6 0 0 0 3.25 4.75c2.63 1.33 4.94 2.58 7.15 3.77 3.08 1.67 5.98 3.24 9.34 4.84a12 12 0 0 0 4.48 1.18 5.3 5.3 0 0 0 4.23-1.54c1.6-1.78 1.27-4.64.02-6.68s-3.22-3.5-4.96-5.15" class="e"/><path d="M260.3 220.27c.4 4.55 3.82 7.09 6.86 10.05a7.3 7.3 0 0 1 2.6 4.42 2.6 2.6 0 0 1-2.57 2.96c-2.06.18-3.99-.78-5.77-1.67q-2.82-1.4-5.57-2.89-2.9-1.57-5.81-3.12c-1.6-.85-3.9-1.54-5.06-3-2.23-2.79.74-7.94 3.68-8.97 2.42-.84 1.38-4.7-1.06-3.85a11.7 11.7 0 0 0-7.36 10.96 7.7 7.7 0 0 0 3.36 5.95 71 71 0 0 0 6.92 3.7q3.47 1.89 6.98 3.72c2.28 1.17 4.62 2.52 7.17 2.97a8.2 8.2 0 0 0 7.06-1.55 6.9 6.9 0 0 0 1.85-6.64c-.57-2.8-2.57-4.93-4.62-6.78-1.84-1.66-4.42-3.58-4.66-6.27a2.05 2.05 0 0 0-2-2 2 2 0 0 0-2 2Z" class="a"/><path d="M341.86 218.79c-.4-2.36-2.86-3.88-5.23-4.17s-4.75.36-7.11.7a10.3 10.3 0 0 1-6.36-.7 1.7 1.7 0 0 1-.7.78 151 151 0 0 1-10.98 5.41l-.15.04-.76 1.98c-1.01 2.7-.03 5.6 1.44 8.1a6 6 0 0 0 2 2.12 5.6 5.6 0 0 0 5.75.4c2.68-1.24 5.08-2.28 7.4-3.28 3.2-1.38 6.24-2.69 9.58-4.32a12 12 0 0 0 3.7-2.79 5.3 5.3 0 0 0 1.42-4.28" class="e"/><path d="M321.6 216c3.71 2.44 7.92 1.18 11.97.67a7.2 7.2 0 0 1 5.12.79 2.53 2.53 0 0 1 .71 3.64c-.99 1.65-2.8 2.6-4.47 3.4a160 160 0 0 1-5.37 2.46l-5.57 2.41a49 49 0 0 1-5.73 2.5c-4.37 1.25-6.9-5.16-5.76-8.51.83-2.45-3.03-3.5-3.86-1.07-1.52 4.46.82 10.73 5.07 12.91 2.5 1.3 5.04.88 7.5-.24q3.46-1.56 6.95-3.07 3.44-1.46 6.84-3.02a22 22 0 0 0 6.27-3.78 7.7 7.7 0 0 0 2.51-6.84 7 7 0 0 0-3.83-4.68c-2.73-1.36-5.69-1.07-8.6-.58-2.57.43-5.4 1.08-7.74-.45-2.16-1.41-4.16 2.05-2.02 3.46Z" class="a"/><path d="M295.86 192.93q.57 1.11 1.14 2.13a709 709 0 0 1 12.58 24.73 1.6 1.6 0 0 0 .76.87 1.5 1.5 0 0 0 1.14.15c3.54-1.6 7.46-3.47 10.98-5.41a1.76 1.76 0 0 0 .8-2.07c-5.03-16.5-8.55-26.14-14.91-44.6-3.12-9.02-7.88-22.6-8.88-32.04l-31.89 1.44a30 30 0 0 0 .72 4.02l-.92 4.24c-3.7 21.98-11.13 43.78-17.94 64.99a2.2 2.2 0 0 0 .14 1.3 2.2 2.2 0 0 0 1.3 1.42c3.56 1.37 7.25 3 11.25 4.73a1.93 1.93 0 0 0 2.5-1.1c8.2-17.97 13.05-33.02 18.26-47.96 3.2 4.97 5.56 9.27 8.5 14.48 1.48 2.61 2.98 5.82 4.47 8.68" class="f"/><path d="M311.44 61.03a20 20 0 0 1 2.77 2.5 5 5 0 0 1 .56 2.72 19 19 0 0 1-.48 4.5 57 57 0 0 0-1.38 7.15 2 2 0 0 0 2 2 2.04 2.04 0 0 0 2-2 24 24 0 0 1 .58-2.95l.76-3.62a20 20 0 0 0 .41-6.41 7.3 7.3 0 0 0-1.37-3.9 24 24 0 0 0-3.02-2.83 2.05 2.05 0 0 0-2.83 0 2 2 0 0 0 0 2.83Z" class="a"/><path d="M303.63 52c1.1 1.93 2.33 3.8 3.54 5.67l1.88 2.92.93 1.48.64 1.06q.24.5.09-.1a.7.7 0 0 1 .32-.84l-.18.14a6 6 0 0 0-.56.43l-1.24.94-2.67 2q-.61.46-1.23.9a3 3 0 0 0-.55.4l-.17.13a6 6 0 0 1 .73.1l.18.12-.38-.54-.46-.65q-.54-.77-1.1-1.53a2.06 2.06 0 0 0-2.73-.72 2 2 0 0 0-.72 2.74q.7.95 1.37 1.91a7 7 0 0 0 1.64 2c1.49.98 2.91.45 4.21-.5 2.1-1.53 4.22-3.06 6.25-4.7 1.5-1.2 1.42-2.96.51-4.48q-1.12-1.87-2.32-3.7c-1.53-2.38-3.12-4.74-4.52-7.2-1.28-2.23-4.74-.22-3.46 2.02m-16.28-3.3a5 5 0 0 0-4.78-1.5 4.6 4.6 0 0 0-3.18 3.42 8 8 0 0 0 2.11 7.29 10 10 0 0 0 3.77 2.3 2 2 0 0 0 2.46-1.4 2.06 2.06 0 0 0-1.4-2.45l-.13-.06-.35-.16a8 8 0 0 1-.75-.43l-.3-.2c-.35-.23.35.3.03.03q-.3-.26-.58-.55l-.23-.25c-.25-.28.27.4 0 0q-.2-.3-.37-.62c-.04-.06-.22-.51-.1-.17l-.06-.2a7 7 0 0 1-.21-.74 2 2 0 0 0-.08-.43l.03.28-.02-.26-.02-.37a2 2 0 0 0 .02-.51l-.03.27.05-.25.1-.38-.05.12.11-.22.07-.11q.18-.26-.1.1s.25-.25.25-.26q-.36.27-.08.08.3-.14-.1.04l.13-.04q.33-.07-.11 0h.43q-.41-.07-.08 0l.21.05c.49.15-.22-.16.09.05l.16.1q.2.12-.14-.12c.06-.02.35.32.39.37a2 2 0 1 0 2.83-2.83Z" class="a"/><path d="M280.95 56.21a8 8 0 0 1-.46 1.55l.2-.47a8 8 0 0 1-1.02 1.73l.31-.4a9 9 0 0 1-1.44 1.43l.4-.31a9 9 0 0 1-1.84 1.08l.47-.2q-.82.32-1.65.62a2 2 0 0 0-1.19.92 2 2 0 0 0 2.27 2.93 19 19 0 0 0 2.97-1.24 10 10 0 0 0 2.23-1.71 9.5 9.5 0 0 0 2.6-4.86 2.2 2.2 0 0 0-.2-1.54 2 2 0 0 0-3.66.47Zm6.7-5.1a19 19 0 0 1 3.93-4.45q.53-.46 1.07-.9l.47-.39a.5.5 0 0 1-.45.1q-1.4-.72-.4-.04a3 3 0 0 0 3.42-.15 84 84 0 0 0 4.12-3.14 13 13 0 0 0 3.4-3.66 2 2 0 0 0-3.45-2.02l-.24.4c-.26.42.16-.16-.12.15q-.36.41-.74.79-.96.94-2.01 1.77c-.71.58-1.07.85-1.85 1.43l-.83.6-.35.27-.21.15a.9.9 0 0 1 1.01.1q.59.38-.15-.16a1 1 0 0 0-.42-.22 3 3 0 0 0-1.18-.27 3 3 0 0 0-1.77.6 28 28 0 0 0-2.5 2.09 22 22 0 0 0-4.2 4.93c-1.3 2.22 2.15 4.24 3.46 2.02Z" class="a"/><path d="M304.76 41.22a18 18 0 0 0-8.03-13.69 19.3 19.3 0 0 0-16.03-2.43c-11.69 3.13-18.95 16.41-14.74 27.89a25 25 0 0 0 5.71 8.78 25 25 0 0 1 3.57 3.73c.72 1.09.55 2.03.3 3.31-.5 2.52 3.35 3.6 3.86 1.07.5-2.56.53-4.79-1.1-6.95-1.76-2.35-4.21-4.06-5.92-6.46-3.02-4.25-4.46-9.42-3.12-14.58a18.3 18.3 0 0 1 9.1-11.62 16 16 0 0 1 3.4-1.31q.67-.18 1.35-.31l.48-.09c.07-.01.91-.13.5-.08a15 15 0 0 1 7.97.98 14.2 14.2 0 0 1 8.71 11.75c.22 2.55 4.22 2.57 4 0Z" class="a"/><path d="M299.79 48.46c.39.93.46 3.16-1.25 3.54-2.28.24-2.71-2.41-2.09-3.76.51-1.1 2.31-1.73 3.34.22" class="a"/><path d="M300.77 41.43c.67 3.61-.27 7.78 2.07 10.94.25.34 1.6 1.99 2.1 1.78-.04.02.62-.75-.04-.27a5 5 0 0 0-.9.96c-1.49 1.86-1.13 4.2-1.64 6.39-.48 2.04-1.3 3.11-3.34 3.61a10 10 0 0 1-2.57.3 8 8 0 0 0-2.84-.03c-1.9.64-2 2.91-2.62 4.52l-.95 2.36a2 2 0 0 0 1.4 2.46 2.05 2.05 0 0 0 2.46-1.4l.86-2.14a24 24 0 0 0 .78-2.36l.1-.38-.08.28-.88.5q-.4-.01.17.05.44.07.88.11a10 10 0 0 0 1.1.03 16 16 0 0 0 2.68-.32 8.6 8.6 0 0 0 4.43-2.08 9.3 9.3 0 0 0 2.37-4.9 28 28 0 0 0 .4-2.8 2.8 2.8 0 0 1 .57-1.9c1.15-1.31 2.11-2.48 1.46-4.32a4.7 4.7 0 0 0-2.03-2.26 2.4 2.4 0 0 1-.9-.96 10 10 0 0 1-.73-3.68 46 46 0 0 0-.45-5.56c-.48-2.53-4.33-1.46-3.86 1.06Z" class="a"/><path d="M270.49 75.52c-1.38.88-2.63 2.1-3.93 3.09-3 2.28-10.46 12.07-12.52 15a16.8 16.8 0 0 0-3.45 9.95c.19 6 4.25 11.3 8.48 15.56 2.12 2.13 3.77 3.9 5.51 5.72l-3.11 8.8a2.7 2.7 0 0 0-.22 1.62 2.4 2.4 0 0 0 1.27 1.3c2.39 1.25 6.85 2.55 11.74 4.04 6.24 1.89 14.94 3.4 20.27.83 2.9-1.4 4.01-2.41 4.72-5.67a42 42 0 0 0 .18-5.98 137 137 0 0 1 .79-14.8c.4-2.95.75-5.04 1.09-7.15 3.32 1.57 6.5 2.22 9.79.29 5.17-3.05 5.3-9.46 6.04-14.76.18-1.23 1.85-15.17 1.55-15.2-3.59-.36-13.56-1.2-16.44-1.2h-2.78c1.44 3.97 3.31 9.58 3.64 13.22l.03.38h-5.27a124 124 0 0 0-4.85-12.29 21.6 21.6 0 0 0-7.88-7.65 75 75 0 0 0-6.68-4.04 1.76 1.76 0 0 0-2.22.94c-.7 1.11-2.19 3.22-2.87 4.28Z" class="f"/><path d="M299.87 71.12a11 11 0 0 0 .6 3.6 19 19 0 0 0 1.43 3.34 2 2 0 0 0 2.73.72 2.04 2.04 0 0 0 .72-2.73q-.4-.73-.72-1.48l.2.47a14 14 0 0 1-.97-3.36l.07.53a7 7 0 0 1-.06-1.09 2 2 0 0 0-2-2 2.04 2.04 0 0 0-2 2" class="a"/><path d="M84.47 160.34a35 35 0 0 0 1.55-5.43 6 6 0 0 0-1.1-4.47c-2.25-2.86-3.36-3.5-5.78-6.21a3.6 3.6 0 0 1 .21-4.27c2.76-2.6 7.01-6.88 8.56-9.28l.17-.26a24 24 0 0 1 2.15 1.28 11 11 0 0 1 2.71 2.72c.54.77 1.04 1.49 1.65 2.25.74.94 2.25 1.04 2.93 2.02.9 1.31.07 3.06-.47 4.56a1 1 0 0 0-.09.64 1.3 1.3 0 0 0 .47.6 15 15 0 0 1 3.64 4.77 8.4 8.4 0 0 1 .67 4.93 7 7 0 0 1-2.2 3.96 10.3 10.3 0 0 1-5.94 2.18c-.63.07-2.7.2-4.67.37a7 7 0 0 0-2.4.64 3.2 3.2 0 0 0-1.79 2.88Z" class="b"/><path d="M43.1 145.05a90 90 0 0 0-10.16 8.64c-5.47 5.15-11.3 11.15-11.48 18.66-.23 6.48 3.39 14.28 4.24 16.19a38 38 0 0 1 2.46 10.35 5 5 0 0 1-2.43 4.68 31 31 0 0 1-4.3 1.37c-4.55 1.25-8.18 2.82-11.19 5.4a19.6 19.6 0 0 0 8.8 8.36 110 110 0 0 0 17.57-4.7 7.4 7.4 0 0 0 3.87-3.97 12 12 0 0 0 .87-3.94c.2-1.96.45-4.7.66-7.33 2.1 1 4.82 2.42 5.43 2.82 2.63 1.73 3.06 5.07 2.74 7.59-.24 4.4-.94 9.7-1.6 14.85 1.57 1.35 9.67 2.25 12.42 1.1 1-6.45 6.48-20.5 6-25.47-.35-3.72-.95-5.22-1.9-6.9a33 33 0 0 0-3.2-4.7 71 71 0 0 0-4.92-5.37c3.55-2.08 7.41-4.8 10.82-7.02l-.64 9.49a17 17 0 0 0 .33 6.2 17 17 0 0 0 3.44 5.54l4.75 5.84c3.09 3.8 6.29 10.05 7.56 12.75.84 1.97 1.7 4.05 1.43 6.18a10 10 0 0 1-.85 2.74q-.46 1.06-1 2.08a5 5 0 0 0 1.37 6.26 20 20 0 0 0 1.7 1.23c1.18.74 2.52 1.07 3.3.23 2.83-3.06 6.3-9.35 5.6-13.85a24 24 0 0 0-1.6-5.93c-1.17-3.9-2.58-7.19-3.75-11.09a128 128 0 0 1-3.6-14c-1.27-7.08-1.17-20.52-1.1-25.1l.1-4.76a21 21 0 0 0 1.18-4.55 6 6 0 0 0-1.1-4.48c-2.25-2.85-3.36-3.5-5.78-6.21a3.6 3.6 0 0 1 .21-4.27c2.76-2.6 7.01-6.87 8.56-9.27l.17-.26a16.6 16.6 0 0 0-11.46-1.78 17 17 0 0 0-6.58 2.55 19 19 0 0 0-4.62 4.98l-3.78 3.52c-4.2-.16-11.06.86-15.83 3.63q-1.4.81-2.71 1.72" class="e"/><path d="M84.15 232.7a5 5 0 0 1-1.33-6.23q.54-1.02 1-2.08a12 12 0 0 0 .75-2.15 13 13 0 0 0 10.27.24c-.38 4.18-3.25 9.11-5.66 11.7-.78.85-2.11.52-3.3-.22a20 20 0 0 1-1.7-1.23Z" class="b"/><path d="M93.33 138.87c-.84.5-1.79 1.05-2.72 1.63a.46.46 0 0 0 .17.84c1.85.27 4.73.8 6.2 2.17l.07-.26c.54-1.5 1.38-3.25.47-4.56a4.4 4.4 0 0 0-1.82-1.2l-.72.38q-.67.44-1.65 1m-7.15-9.2a47 47 0 0 1-6.54 7.24c-1.15 1.13-2.41 2.08-2.86 3.7a5.5 5.5 0 0 0 .63 4.62 34 34 0 0 0 3.6 3.8 11 11 0 0 1 2.8 3.5c.85 2.32-.48 4.88-1.27 7.27-.8 2.46 3.06 3.5 3.86 1.07s1.84-4.92 1.61-7.55c-.3-3.52-2.93-5.9-5.3-8.25-.84-.84-2.37-1.78-2.14-3.1.2-1.13 1.89-2.2 2.68-3a48 48 0 0 0 6.39-7.28c1.42-2.15-2.04-4.16-3.45-2.01Z" class="a"/><path d="M93.97 136.15q-1.33.83-2.7 1.61-.85.48-1.67 1.01a2.5 2.5 0 0 0-1.1 2.83 2.5 2.5 0 0 0 2.05 1.71l1.35.24a15 15 0 0 1 2.77.8l-.48-.2a7 7 0 0 1 1.52.86l-.4-.3.36.31a2 2 0 0 0 2.83-2.83 9 9 0 0 0-3.86-2.08 18 18 0 0 0-1.8-.44l-.86-.16a4 4 0 0 1-.8-.14l.48.2-.06-.03.4.31-.09-.09.31.41-.06-.1.2.47-.04-.12.08.53v-.13l-.07.54.03-.13-.2.48.07-.11-.31.4.05-.04-.4.3a28 28 0 0 1 2.42-1.46q1.02-.58 2-1.2a2 2 0 0 0-2.01-3.45Z" class="a"/><path d="m65.98 172.96-.76 11.2c-.23 3.5-.38 6.87 1.35 10.06 1.6 2.95 4.1 5.5 6.21 8.1a58 58 0 0 1 5.16 7.37 77 77 0 0 1 3.48 6.6 12 12 0 0 1 1.3 4.46c.02 1.7-.92 3.23-1.63 4.72a7.1 7.1 0 0 0 1.68 8.68c2.34 2 5.76 3.86 8.22 1.02 3.5-4.04 6.53-9.86 5.73-15.35a54 54 0 0 0-2.94-9.96c-1.2-3.42-2.36-6.82-3.37-10.3a80 80 0 0 1-3.38-17.7c-.3-5.03-.36-10.07-.32-15.1a16 16 0 0 1 .04-2.63c.27-1.53 2.32-1.45 3.54-1.54 3.08-.24 6.33-.28 9.08-1.89a9.1 9.1 0 0 0 4.44-8.66 11 11 0 0 0-1.8-5.2 19 19 0 0 0-1.49-2.04c-.52-.62-1.45-1.22-1.84-1.92l.28 1a5 5 0 0 1 .44-1.26 10 10 0 0 0 .42-1.58 5 5 0 0 0-.39-3.02 4.7 4.7 0 0 0-2.2-2.01 4 4 0 0 1-1.77-1.47 18 18 0 0 0-4.23-4.57 22 22 0 0 0-5.62-2.75 19.8 19.8 0 0 0-12.39.24 18 18 0 0 0-9.53 7.7c-1.4 2.18 2.07 4.19 3.45 2.02a13.8 13.8 0 0 1 8.14-6.16 15.5 15.5 0 0 1 10.55.53 14 14 0 0 1 4.52 2.87c1.27 1.3 2.01 3.16 3.5 4.26.46.35 1.62.63 1.94 1.1s-.07 1.27-.25 1.78a5 5 0 0 0-.55 2.6 4.3 4.3 0 0 0 1.6 2.3c2.28 2.2 4.37 5.75 2.65 8.9-1.44 2.61-4.6 2.92-7.29 3.11-3.59.26-8.35.42-9.12 4.87a41 41 0 0 0-.13 6.96 134 134 0 0 0 .96 18.06c1.12 7.95 3.86 15.66 6.49 23.22.68 1.97 1.44 3.96 2 5.96a14 14 0 0 1 .7 4.74c-.24 3.05-1.82 6.04-3.52 8.53a17 17 0 0 1-1.18 1.54l-.29.32c-.22.26.05.02.16.02a2.4 2.4 0 0 1-1.13-.45c-1.28-.78-2.63-1.79-2.65-3.42a5 5 0 0 1 .82-2.36 23 23 0 0 0 1.2-2.87 10 10 0 0 0-.03-5.83 43 43 0 0 0-3.9-8.43 58 58 0 0 0-5.69-8.56l-4-4.93a19 19 0 0 1-2.99-4.36 12.4 12.4 0 0 1-.54-5.66q.21-3.27.44-6.52l.43-6.33c.17-2.57-3.83-2.56-4 0Z" class="a"/><path d="M54.23 182.75c4.44 4.4 9.77 9.35 10.65 15.74a18 18 0 0 1-.75 7.3c-.78 3.17-1.73 6.3-2.65 9.41a76 76 0 0 0-2.41 9.38l1.4-1.4a13 13 0 0 1-5.81.34 22 22 0 0 1-2.95-.45 14 14 0 0 1-1.4-.38c-.04-.02-.62-.33-.32-.1l.59 1.42c.5-3.97 1.04-7.94 1.39-11.93.26-3.08.66-6.2-.73-9.1-1.1-2.25-3.1-3.37-5.23-4.47a33 33 0 0 0-5.84-2.7c-2.49-.7-3.54 3.15-1.07 3.85q.24.06.48.16c.01 0 .27.12.1.04l.23.1 1.9.9q1.89.92 3.71 1.92a4.6 4.6 0 0 1 2.26 2.2 10 10 0 0 1 .37 4.8q-.23 3.27-.6 6.53c-.28 2.4-.76 4.83-.9 7.24-.2 3.3 4.87 3.63 7.24 3.9a25 25 0 0 0 4.65.14c1.29-.1 3.45-.2 4.19-1.47a7 7 0 0 0 .48-1.97q.23-1.05.5-2.1.61-2.34 1.3-4.66c.95-3.26 1.96-6.5 2.8-9.78a26 26 0 0 0 1.22-7.8 20 20 0 0 0-3.47-10.14 62 62 0 0 0-8.5-9.76c-1.82-1.81-4.65 1.02-2.82 2.83Z" class="a"/><path d="M61.64 137.7a32.8 32.8 0 0 0-20.03 5.96 91 91 0 0 0-9.43 8 70 70 0 0 0-7.76 8.2 23 23 0 0 0-4.62 9.5 25 25 0 0 0 .7 10.8 57 57 0 0 0 3.07 8.5 33 33 0 0 1 2.47 9.08c.19 1.5.24 3.3-1.32 4.1a28 28 0 0 1-4.87 1.46 30 30 0 0 0-11.02 5.63 2 2 0 0 0-.31 2.42A21.7 21.7 0 0 0 17 219.9a8 8 0 0 0 1.5.73 4.5 4.5 0 0 0 2-.17l3.46-.72q3.13-.7 6.22-1.58a114 114 0 0 0 6.5-2.08 9 9 0 0 0 4.88-3.88 14 14 0 0 0 1.82-6.46q.34-3.5.63-6.99c.2-2.56-3.8-2.55-4 0-.23 2.8-.35 5.65-.8 8.42a7.6 7.6 0 0 1-1.43 3.5 5.7 5.7 0 0 1-3.06 1.86 119 119 0 0 1-16.21 4.24l1.54.2a18 18 0 0 1-8.08-7.63l-.31 2.42a25 25 0 0 1 9.05-4.53c3-.9 6.57-1.28 8.37-4.17 1.95-3.14.86-7.34-.04-10.66a68 68 0 0 0-2.74-7.47c-2.42-6.07-4.29-12.87-1.07-19a35 35 0 0 1 6.44-8.22c2.77-2.78 5.66-5.49 8.66-8.02a32 32 0 0 1 10.55-6.4 32 32 0 0 1 10.75-1.59c2.58.09 2.57-3.91 0-4Zm-3.2 46.44c3.41-2.04 6.67-4.33 9.99-6.5a2 2 0 0 0-2.02-3.46c-3.32 2.18-6.58 4.46-9.99 6.5a2 2 0 0 0 2.02 3.46" class="a"/><path d="M17.41 218.3c-.54 2.07-1.33 4.16-1.28 6.33a8 8 0 0 0 .75 3.18c.51 1.1 1.33 2.02 1.85 3.13a7 7 0 0 1 .73 2.98c0 1.03-.39 1.38-1.39 1.62a8.4 8.4 0 0 1-5.1-.68 8 8 0 0 1-2.93-2.02c-1.08-1.36-1.19-3.28-1.79-4.87a45 45 0 0 0-2.53-5.5q-.58-1.06-1.2-2.11c-.35-.57-.6-.81-.55-1.28.13-1.21 1.67-2.67 2.64-3.55a36 36 0 0 1 4.5-3.4c2.15-1.42.14-4.88-2.01-3.46-3.28 2.16-7.37 4.83-8.78 8.69a5.6 5.6 0 0 0 .8 5.13 44 44 0 0 1 2.96 5.75c.84 2.02 1.05 4.35 2.24 6.22a10.4 10.4 0 0 0 4.47 3.79c3.68 1.69 10.66 2.78 12.38-2.2 1.02-2.91-.36-6.43-1.97-8.86a4.7 4.7 0 0 1-1.03-3.53 34 34 0 0 1 1.1-4.3c.66-2.49-3.2-3.55-3.85-1.06Zm42.56 8.5c2.3 3 5.53 4.57 8.82 6.25 1.11.57 1.95 1.1 1.7 2.42-.05.3-.66.7-.9.8a13 13 0 0 1-4.92.44 57 57 0 0 1-5.83-.75 22 22 0 0 0-5.83-.04c-1.27.14-3.1.2-4.15-.74-1.13-1.04-.67-2.72-.35-3.92.54-2.02 1.22-4 1.57-6.08a2.06 2.06 0 0 0-1.4-2.46 2 2 0 0 0-2.46 1.4c-.67 3.95-3.2 8.17-1.37 12.14a6.7 6.7 0 0 0 4.8 3.52c2.22.55 4.32-.23 6.54-.12 4.66.23 9.18 1.8 13.88.64a5.47 5.47 0 0 0 4.05-7.37c-.81-2.22-2.92-3.1-4.86-4.1-2.06-1.08-4.39-2.15-5.84-4.04a2.07 2.07 0 0 0-2.74-.72 2 2 0 0 0-.71 2.74Zm24.73-2.35a15 15 0 0 0 9.74.3 2 2 0 0 0-1.06-3.86 10 10 0 0 1-2.08.48l-.68.04q-.54.03-1.07 0-.53 0-1.07-.07c-.51-.06.44.08-.07-.02l-.6-.1a13 13 0 0 1-2.05-.62 2 2 0 0 0-2.46 1.4 2.06 2.06 0 0 0 1.4 2.46Zm112.59-112.87a18 18 0 0 1-2.89 5.64c-1.27 1.9-2.5 3.84-3.8 5.73s-2.67 3.76-4.12 5.54q-1.18 1.48-2.47 2.85a4 4 0 0 1-.78.7l-.37.14c-.39.2-.6-.08-.02.15l1.4 1.4-.02-.12a2 2 0 0 0-2.46-1.4 2.04 2.04 0 0 0-1.4 2.46c.32 1.68 2.11 1.8 3.43 1.4a6.7 6.7 0 0 0 3.05-1.9 69 69 0 0 0 5.67-7.01c1.69-2.33 3.23-4.76 4.83-7.15 1.54-2.3 3.14-4.65 3.8-7.37.6-2.5-3.25-3.57-3.85-1.07Zm-15.86 54.06c2.16 4.27 4.37 8.6 6.12 13.06a29.4 29.4 0 0 1 1.68 14.69 452 452 0 0 0-2.3 22.62 38 38 0 0 0-.12 8.14 2 2 0 0 0 2.46 1.4 2.05 2.05 0 0 0 1.4-2.46c.11.79 0-.37-.01-.61v-1.53q.08-2.17.24-4.35.4-5.73 1.01-11.45c.89-8.7 3-17.74-.02-26.25a134 134 0 0 0-7-15.28c-1.16-2.3-4.61-.28-3.45 2.02Zm-29.72-27.65c-1.98 1.37-2.52 3.8-3.13 6a29 29 0 0 0-1.16 7.68c0 5.29 2.44 9.69 5.24 14 1.4 2.16 4.86.15 3.45-2.02-2.2-3.4-4.46-6.9-4.67-11.08a22 22 0 0 1 .66-6.19q.37-1.55.86-3.07c.15-.5.3-1.54.77-1.86 2.1-1.46.1-4.93-2.02-3.45Z" class="a"/><path d="M152.94 166.3c-.48 3.92-.93 7.83-1.1 11.78l-.17 4.89a30 30 0 0 1-.2 4.01c-.25 1.37-1.94 2.18-3.09 2.78a28 28 0 0 0-5.6 3.75 70 70 0 0 0-8.07 8.7q-1.72 2.11-3.4 4.24a14 14 0 0 1-2 2.55 10 10 0 0 1-2.66.86c-2.43.82-1.4 4.68 1.06 3.86.85-.29 1.74-.46 2.58-.78a6 6 0 0 0 2.75-2.21q1.6-2.1 3.26-4.16a94 94 0 0 1 8.12-9.14 23 23 0 0 1 5.64-4.05 11 11 0 0 0 4.64-3.68 9.4 9.4 0 0 0 .87-4.45q.12-2.64.21-5.3c.17-4.59.61-9.1 1.16-13.66a2 2 0 0 0-2-2 2.05 2.05 0 0 0-2 2Z" class="a"/><path d="M134.44 219.38c-1.37 3.39.53 7.16 3.28 9.21.8.6 3.45 1.72 3.32 3.02-.12 1.28-2.65 1.43-3.53 1.53a9.5 9.5 0 0 1-5.14-.47 8 8 0 0 1-3.53-3.31 27 27 0 0 0-3.66-4.55 13 13 0 0 1-3.22-4.17 4.7 4.7 0 0 1 1-4.7 8.2 8.2 0 0 1 4.62-2.23c2.52-.52 1.46-4.38-1.06-3.85-4.2.87-7.99 3.53-8.72 8a8.8 8.8 0 0 0 1.68 6.53c1.37 1.92 3.23 3.36 4.7 5.19 1.42 1.77 2.32 3.79 4.14 5.23a11.4 11.4 0 0 0 6.07 2.43c3.87.35 10.96-.69 10.63-5.95-.19-2.9-2.66-4.32-4.79-5.8-1.63-1.14-2.72-3.1-1.93-5.05a2 2 0 0 0-1.4-2.46 2.05 2.05 0 0 0-2.46 1.4m52.37 4c-.6 2.91 3.03 4.5 5.15 5.51q2.2 1.04 4.45 1.97a18 18 0 0 1 4.11 1.92 1.9 1.9 0 0 1-.06 3.24c-1.6 1.19-4.02.66-5.8.27a39 39 0 0 0-7.09-1.01c-2.2-.08-4.43.08-6.61-.18-1.54-.18-3.49-.6-4.43-1.97-1.24-1.78-.03-4.2.92-5.82 1.32-2.22-2.14-4.23-3.45-2.01a11 11 0 0 0-1.86 7.27 7 7 0 0 0 3.54 5.03c4.28 2.46 9.59 1.3 14.26 1.83 4.74.54 10.76 3.18 14.3-1.61a5.7 5.7 0 0 0 .3-6.49c-1.18-1.84-3.17-2.72-5.12-3.52-1.83-.76-3.66-1.51-5.44-2.37a25 25 0 0 1-2.61-1.4l-.61-.43c-.08-.06-.24-.3-.32-.32.34.07.23 1.16.23 1.15.52-2.51-3.34-3.59-3.86-1.06" class="a"/><path d="M152.66 165.67a137 137 0 0 0 9.17 11.55l5 5.6a42 42 0 0 1 4.54 5.23 10.2 10.2 0 0 1 1.3 6.11c-.06 2.23-.11 4.46-.06 6.68a98 98 0 0 0 1 11.21q.54 3.84 1.12 7.67a12 12 0 0 1 .29 3.68c.04-.22-.36.62-.42.74q-.31.57-.6 1.15c-1.12 2.31 2.33 4.34 3.45 2.02.4-.83.87-1.61 1.22-2.47a7 7 0 0 0 .32-3.06c-.14-2.5-.68-5-1.04-7.46a115 115 0 0 1-1.29-11.68q-.14-3.17-.05-6.34c.05-2.39.28-4.8-.4-7.13a16 16 0 0 0-3.9-6.26q-2.66-2.9-5.3-5.86a146 146 0 0 1-10.9-13.4c-1.47-2.09-4.94-.09-3.46 2.02Z" class="a"/><path d="M137.38 221.64c7.48-4.41 14.7-9.23 21.9-14.1 3.4-2.31 7.23-4.43 9.6-7.91 2.44-3.6 2.77-7.74 3.61-11.87.51-2.51-3.34-3.59-3.85-1.06-.78 3.8-.94 7.88-3.37 11.11a16 16 0 0 1-3.77 3.39l-5.37 3.65a392 392 0 0 1-20.77 13.33c-2.21 1.31-.2 4.77 2.02 3.46m25.65-62.9c.85 1.44 1.8 2.8 2.73 4.19.88 1.3 1.67 2.65 2.55 3.94a13 13 0 0 0 3.05 3.5 7.5 7.5 0 0 0 4.82.8 11 11 0 0 0 4.51-2.06 23 23 0 0 0 3.83-3.01 8.2 8.2 0 0 0 2.5-4.55c.16-1.72-.89-2.96-1.84-4.24l-.32 2.43c1.29-1.44 2.17-3.03 1.26-4.92a9.3 9.3 0 0 0-3.88-3.7 14 14 0 0 0-8.5-1.97 2.07 2.07 0 0 0-2 2 2 2 0 0 0 2 2 10 10 0 0 1 5.1.73 10 10 0 0 1 2.82 1.69l.9 1.04c-.2.03.34-.68-.01-.42a7 7 0 0 0-.51.72 2.04 2.04 0 0 0-.32 2.42c.4.54 1.42 1.44 1.24 2.12a6.4 6.4 0 0 1-2.17 2.66 26 26 0 0 1-2.77 1.97 5 5 0 0 1-3.2 1.13 3 3 0 0 1-1.2-.14 4 4 0 0 1-.92-1 23 23 0 0 1-1.82-2.63c-1.42-2.27-3.02-4.4-4.4-6.7-1.31-2.21-4.77-.2-3.45 2.02Z" class="a"/><path d="M168.09 105.9c-1.47 3.42-3.63 6.48-5.25 9.82a20 20 0 0 0-1.94 5.35 15 15 0 0 0 .95 6.73c2.52 8.3 6.79 15.9 10.14 23.86a2.07 2.07 0 0 0 2.46 1.4 2 2 0 0 0 1.4-2.46c-3.17-7.55-7.18-14.76-9.73-22.56-.6-1.84-1.54-4.04-1.33-6.01a15 15 0 0 1 1.75-4.78c1.6-3.15 3.61-6.08 5-9.33a2.07 2.07 0 0 0-.71-2.73 2 2 0 0 0-2.74.71m19.32 9.55a73 73 0 0 0 4.33-6.02 5.8 5.8 0 0 0 .96-4.4c-.33-1.37-1.44-2.37-1.78-3.74a3.42 3.42 0 0 1 2.97-4.2 3 3 0 0 1 .76 0c.1.02.8.27.43.1a1.7 1.7 0 0 1 .78.58c-.04-.06.13.6 0 .54-.07-.03.17-.24.2-.2.06.1-.08.01-.13 0a2.05 2.05 0 0 0-2.46 1.4 2 2 0 0 0 1.4 2.46 4 4 0 0 0 3.98-1.07 4.5 4.5 0 0 0 .93-4.04c-.73-2.7-3.73-4.03-6.32-3.72a7.4 7.4 0 0 0-6.2 9.81 13 13 0 0 0 1 2.07c.2.33.6.74.6 1.16 0 .64-.72 1.5-1.04 2.02q-.55.86-1.15 1.67c-.9 1.2-1.84 2.36-2.71 3.57a2 2 0 0 0 .72 2.74 2.05 2.05 0 0 0 2.73-.72Z" class="a"/><path d="M197.74 104.73a5.7 5.7 0 0 0 2.88.68l.35.03c.14 0-.5-.1-.14-.01.37.1-.44-.16-.5-.3l.1.1c.14.15-.2-.36-.12-.15.1.23.26.45.37.68l.34.75a3.7 3.7 0 0 0 3.24 2.24 4.3 4.3 0 0 0 3.17-1.68 7.5 7.5 0 0 0 1.65-3.24 6.4 6.4 0 0 0-.44-3.8 6.5 6.5 0 0 0-2.48-2.97 17 17 0 0 0-2.26-1.21c-1.96-.9-5.11-2.3-6.97-.48a2 2 0 0 0 2.82 2.83c.2-.19-.48.33-.24.19s-.55.2-.28.11c.48-.15-.52 0-.1 0l.46.02c.17 0 .2.12-.29-.04l.35.06a10 10 0 0 1 1.13.32l.8.3c.5.2-.3-.14.01 0a21 21 0 0 1 2.12 1.09l.68.44c.24.16-.43-.37-.23-.18l.26.23c.08.08.26.22.29.32l-.1-.13.11.18q.12.17.2.35l.06.11q.14.3-.05-.12a3 3 0 0 0 .22.68l.07.32c.08.38-.03-.44-.02-.18l.01.6c-.01.37.1-.53.02-.15l-.06.3-.18.55c-.07.25.23-.48.06-.13l-.14.29q-.19.32-.4.63c-.21.33.32-.36.06-.07l-.2.23-.35.32c.4-.4.27-.18.1-.1l-.22.13c.18-.2.48-.18.18-.09-.45.13.45 0 .15-.02-.3 0 .33.05.3.05-.3-.04-.02-.16.18.1l-.22-.13c.2.02.4.32.13.06s.18.38.08.1l-.14-.25-.28-.62a6 6 0 0 0-1.05-1.7 3.3 3.3 0 0 0-2.2-.92 4 4 0 0 0-1.02-.03c-.15.03.7.13.42.05l-.33-.07-.32-.1c-.35-.1.41.24-.02-.02a2 2 0 0 0-2.02 3.45" class="a"/><path d="M203.2 106.52c.1-.8.02-.2-.04 0q-.07.27-.17.52l-.11.27c.05-.08.2-.46.07-.15l-.23.49a9 9 0 0 1-.49.88l-.1.16-.3.33-.45.42c-.3.27.39-.26.05-.04l-.28.17a1 1 0 0 1-.3.16l.27-.12-.22.08c.06.04.53-.02.13-.01h-.35c-.24 0 .47.1.12.01l-.35-.08-.34-.1c-.4-.13.41.2.04.01l-.61-.32-.23-.16c-.39-.26.3.26.03.04a2.2 2.2 0 0 0-1.42-.59 2 2 0 0 0-1.4 3.41 7.4 7.4 0 0 0 3.99 1.76 5.1 5.1 0 0 0 3.9-1.58 8 8 0 0 0 1.72-2.33 10 10 0 0 0 1.07-3.23 2 2 0 0 0-.59-1.41 2 2 0 0 0-2.82 0 2.3 2.3 0 0 0-.6 1.41Zm-22.01 45.36c.38-3.44.56-6.9.84-10.34a80 80 0 0 1 2.08-12.05c2.04-8.53 3.85-17.2 2.56-26a49 49 0 0 0-1.53-7.44c-.63-2-1.96-4.1-1.78-6.24.2-2.57-3.8-2.55-4 0-.17 1.99.65 3.86 1.34 5.68a38 38 0 0 1 1.64 6.3 45 45 0 0 1 .55 12.63c-.77 8.75-3.94 17.06-4.75 25.81-.35 3.88-.52 7.78-.95 11.65a2 2 0 0 0 2 2 2.05 2.05 0 0 0 2-2" class="a"/><path d="M183.2 90.42a10 10 0 0 1 .92-3.24l-.72.72.3-.18-1.02.27c.8-.05 1.6.1 2.42 0a14 14 0 0 0 2.43-.45 7.2 7.2 0 0 0 3.98-2.5c1.69-2.27 2.07-5.86 1.63-8.6-.33-2.08-.87-4.14-1.32-6.2q-.37-1.6-.67-3.23-.06-.31-.1-.63c.09.73-.02-.66-.03-.72a21 21 0 0 0-.5-3.11c-.62-2.5-4.47-1.44-3.86 1.06.37 1.5.38 3.04.65 4.56q.31 1.66.68 3.28l.83 3.73.3 1.45c.06.24.14 1.35.13.6a16 16 0 0 1-.32 4.01c-.4 1.61-1.3 2.15-2.83 2.55-1.5.38-3.42-.2-4.71.65-1.4.93-1.75 3.41-2.04 4.92-.49 2.51 3.37 3.6 3.85 1.06" class="a"/><path d="M190.68 63.3a17 17 0 0 0-2.32-7.02 11 11 0 0 0-4.18-3.46 21.4 21.4 0 0 0-16.06-1.22 17 17 0 0 0-6.63 4.36 20 20 0 0 0-4.82 6.97c-2.35 5.98-1.35 12.53-1.12 18.76.12 3.17-.2 6.24 2.65 8.36a8 8 0 0 0 4 1.33q2.56.35 5.13.53c2.57.17 2.56-3.83 0-4a75 75 0 0 1-3.63-.33 8 8 0 0 1-2.86-.57c-1.84-.99-1.23-3.61-1.29-5.32-.2-5.28-1.08-10.78.4-15.96a13.4 13.4 0 0 1 3.17-5.77 18 18 0 0 1 5.37-4.23c3.87-1.7 8.61-1.38 12.51.04a9 9 0 0 1 4 2.66c-.23-.29.15.25.22.38a11 11 0 0 1 .6 1.44 21 21 0 0 1 1 4.12 2 2 0 0 0 2.47 1.4 2.05 2.05 0 0 0 1.4-2.46Z" class="a"/><path d="M170.36 77.22q-.15.49-.34.96c-.19.47.2-.45.04-.09l-.14.32-.28.62-1.5 3.1a39 39 0 0 0-2.73 6.5 2 2 0 1 0 3.85 1.07q.2-.7.46-1.37l.3-.77c.14-.35-.12.25-.01.01l.18-.4a96 96 0 0 1 1.55-3.3 33 33 0 0 0 2.47-5.59 2 2 0 0 0-3.85-1.06m17.39-15.91q-2.31.23-4.62.42a16 16 0 0 0-5 .85 8 8 0 0 0-3.26 3.6q-.28.51-.52 1.05l-.3.74c-.03.05-.2.45-.07.14a8 8 0 0 1-.38.77c-.06.11-.24.34-.05.12-.06.07-.45.39-.15.18a2.05 2.05 0 0 0-.72 2.73 2 2 0 0 0 2.74.72 5.5 5.5 0 0 0 1.59-1.65 7 7 0 0 0 .43-.85l.27-.66.12-.29.38-.78q.25-.47.54-.91l.33-.48.11-.16.38-.44c.03-.04.33-.3.18-.2a2 2 0 0 1 .69-.2c.36-.07-.23.03.15-.02l.6-.07q1.02-.11 2.05-.2l4.5-.4a2.05 2.05 0 0 0 2-2 2 2 0 0 0-2-2Z" class="a"/><path d="M176 70.46a4.6 4.6 0 0 0-4.43-1.21 4.2 4.2 0 0 0-2.85 3.28 7.2 7.2 0 0 0 2.2 6.45 9 9 0 0 0 3.43 1.89 2 2 0 0 0 2.46-1.4 2.05 2.05 0 0 0-1.4-2.47l-.42-.14c-.14-.05-.46-.23.07.04q-.34-.15-.66-.33-.3-.16-.56-.34c-.37-.25.33.28.06.04q-.12-.09-.22-.2l-.46-.48c-.24-.27.28.41.08.1l-.19-.28-.29-.56c.3.5.1.24.04.06a6 6 0 0 1-.28-1.07c-.07-.37.03.49.02.1v-.55l-.02.2.07-.33.1-.32q-.2.46-.06.19l.1-.19-.18.24.14-.16c.23-.27-.34.23-.03.04q.28-.15-.15.06l.23-.06q-.46.05-.22.03h.19c.4-.03-.44-.12.04 0q.09 0 .18.04.3.11-.16-.07l.3.18q.25.18-.14-.11l.17.15a2 2 0 0 0 2.84-2.82" class="a"/><path d="M187.13 80.46a5.8 5.8 0 0 1-4.32-.44 7 7 0 0 0-3.3-.81l-.76-.02c-1.55 0-1-1.27-1.91-2.24-.92-1-3.01-.28-3.8.76-.97 1.29-1.11 3 .8 4.48a26 26 0 0 0 6.52 3.5 21 21 0 0 0 2.1.44.7.7 0 0 1 .58-.16 10 10 0 0 0 5.36-.87 4.2 4.2 0 0 0 2.13-2.32l.2-.6c-.19-1.4-1.71-2.16-3.6-1.72m228.05 37.43c2.97 10.81 3.7 21.78 3.43 32.95a259 259 0 0 1-2.92 33.22q-1.27 8.25-3.06 16.42c-.51 2.33-.95 4.43-.2 6.77.7 2.22 2.15 3.71 3.75 5.33 2.9 2.94 6.63 5.65 8.55 9.38a11.7 11.7 0 0 1 1.35 6 11 11 0 0 1-2.06 6.41c-1.15 1.39-3.31 1.86-5 2.08a49 49 0 0 1-6.3.13q-6.87-.01-13.73-.04l-14.2-.04c-4.2-.01-8.42.14-12.62-.04-2.12-.09-4.04-.56-5.4-2.29a9.2 9.2 0 0 1-2.1-5.62c-.04-4.07 3.16-7.09 5.64-9.93a54 54 0 0 0 8.38-12.93 41 41 0 0 0 3.65-13.77c.88-9.63-1.35-19.13-1.96-28.7q-.54-8.5-.26-17.01a90 90 0 0 1 1.48-15.96 32 32 0 0 1 2.11-6.5 2.06 2.06 0 0 0-.72-2.73 2 2 0 0 0-2.73.72 45 45 0 0 0-3.56 14.87 176 176 0 0 0 .47 35.44c.53 4.68 1.35 9.3 1.4 14.01a43 43 0 0 1-1.9 14.1 48 48 0 0 1-7.46 13.56c-2.77 3.58-6.47 6.65-7.96 11.05a12.9 12.9 0 0 0 3.38 13c3.26 3.24 8.36 2.7 12.57 2.72q7.05 0 14.1.03l14.85.05h6.94a47 47 0 0 0 6.86-.24 12.5 12.5 0 0 0 6.21-2.48c1.87-1.53 2.92-4.1 3.47-6.38a16.3 16.3 0 0 0-2.56-13.37 41 41 0 0 0-5.03-5.37 181 181 0 0 1-4.6-4.6 5.7 5.7 0 0 1-1.21-5.4q.96-4.25 1.77-8.54a267 267 0 0 0 4.25-34.4c.66-11.5.82-23.1-1.26-34.49a100 100 0 0 0-1.94-8.47c-.68-2.48-4.54-1.43-3.86 1.06Z" class="a"/><path d="M386.64 202.3c5.95 1.44 12.08 1.55 18.16 1.61 2.57.03 2.58-3.97 0-4-5.73-.06-11.5-.11-17.1-1.46-2.5-.6-3.56 3.25-1.06 3.86" class="a"/><path d="M411.17 147.18q-.55-.15-.98-.3c-1.53-.56-3.05-1.05-4.51-1.63-2.76-1.1-5.26-2.5-7.01-5.23a125 125 0 0 1-12.64-25.2 176 176 0 0 0 15.83-5.65l8.62 19.6 1.55 2.85c3.37 1.53 7.72 3.43 9.52 4.59a2 2 0 0 1 .74.65 2 2 0 0 1 .19 1.22 35 35 0 0 1-1.13 7.3 3 3 0 0 1-.77 1.54 2.3 2.3 0 0 1-1.21.59 15 15 0 0 1-4.36.32 30 30 0 0 1-3.84-.65" class="b"/><path d="M391.6 63.6c-.35.28.23-.1.31-.14-.41.2.25-.05.34-.07s.82-.14.33-.08l.75-.07a13 13 0 0 1 1.38 0q.4 0 .79.06c-.4-.05.36.07.44.09l.76.2c.08.03.8.3.36.11a8 8 0 0 1 1.05.56c.08.04.64.47.28.18q.27.22.5.45l.46.5c-.3-.35.12.21.17.28a2 2 0 0 0 3.45-2.01 9.4 9.4 0 0 0-6.17-4.17c-2.68-.53-5.82-.47-8.04 1.29a2 2 0 0 0 0 2.83 2.06 2.06 0 0 0 2.83 0Zm8.6 46.72 8.56 19.47a2 2 0 0 0 2.73.71 2.05 2.05 0 0 0 .72-2.73l-8.56-19.47a2 2 0 0 0-2.74-.72 2.05 2.05 0 0 0-.72 2.74Zm-15.91 5.53c1.8 4.59 3.7 9.15 5.93 13.55 2.03 4 4.35 7.83 6.72 11.63 1.36 2.18 4.82.18 3.45-2.02-2.31-3.7-4.57-7.44-6.57-11.33a141 141 0 0 1-5.67-12.9 2.06 2.06 0 0 0-2.46-1.4 2 2 0 0 0-1.4 2.46Z" class="a"/><path d="M407.49 131.66c2.13 1.14 4.37 2.07 6.57 3.07a42 42 0 0 1 6.54 3.26c.2.13-.11-.18-.11-.22l-.02.54a31 31 0 0 1-.52 4.2 10 10 0 0 1-.63 2.68c-.32.58-1.05.49-1.7.58-3.01.45-5.95-.5-8.76-1.48-3.2-1.12-6.5-2.33-8.47-5.28-1.41-2.13-4.88-.13-3.45 2.02 2.26 3.4 5.6 5.21 9.35 6.59 3.62 1.32 7.46 2.66 11.38 2.15 2.23-.28 4.36-.62 5.3-2.94a25 25 0 0 0 1.36-6.79 10 10 0 0 0 .07-3.11 4 4 0 0 0-1.91-2.49 31 31 0 0 0-3.54-1.84c-3.13-1.49-6.39-2.76-9.44-4.39-2.27-1.21-4.3 2.24-2.02 3.45m-27.57-19.84c.47 2.44 1.34 5.42 4.41 5.42 1.69 0 3.57-.89 5.15-1.4a157 157 0 0 0 12.55-4.58 9 9 0 0 0 2.63-1.37 4.7 4.7 0 0 0 1.48-3.52 4.36 4.36 0 0 0-4.56-4.46 41 41 0 0 0-4.91 1.06q-3.04.7-6.08 1.44-3.18.75-6.33 1.6a7 7 0 0 0-3 1.32 4.6 4.6 0 0 0-1.4 3.95 2.07 2.07 0 0 0 2 2 2 2 0 0 0 2-2c-.08-.54-.14-.82.3-1.07a8 8 0 0 1 1.75-.5l4.39-1.12q4.68-1.15 9.39-2.21l1.67-.38a4 4 0 0 1 .75-.16c-.47-.02-.1-.07-.08.15.04.46-.02-.35.06.14l.05.24a1 1 0 0 1-.1.5c-.3.4-1.26.6-1.72.8a150 150 0 0 1-9.72 3.58q-2.42.83-4.88 1.58l-.97.29c-.13.03-.55.07-.36.13a7 7 0 0 1-.24-.73q-.2-.9-.37-1.77a2 2 0 0 0-2.46-1.4 2.04 2.04 0 0 0-1.4 2.47M187.77 67.05c-.98.49-2 .9-2.99 1.37a2.6 2.6 0 0 0-1.2 1.03 2.5 2.5 0 0 0-.26 1.86 2.3 2.3 0 0 0 1.34 1.53l.78.32-.48-.2a10 10 0 0 1 2.19 1.22l-.4-.32a5 5 0 0 1 .8.8l-.3-.4.28.43a2 2 0 1 0 3.45-2.02c-1.03-1.87-3.11-2.84-5.02-3.58l.48.2-.08-.05.4.32-.03-.04.31.4-.05-.08.2.48-.02-.1.07.53v-.1l-.07.53.04-.15-.2.48.05-.09-.31.4.07-.06-.4.31a19 19 0 0 1 1.85-.86l1.52-.7a2 2 0 0 0-.48-3.66 2.2 2.2 0 0 0-1.54.2m109.7 69.64c1.3 11.83 5.72 23.24 9.58 34.42 3.89 11.23 7.86 22.44 11.48 33.77q.79 2.46 1.55 4.93l.8 2.6a5 5 0 0 0 .32 1.04q.06.64.15.37.3-.38-.3.07c-1.8.72-3.53 1.86-5.3 2.72q-1.22.6-2.47 1.18a12 12 0 0 1-2.7 1.15h1.06c-.05 0-.61-.18-.3.03.26.16 0-.06-.04-.19a4 4 0 0 0-.24-.52l-.54-1.13-1.37-2.79q-1.72-3.49-3.5-6.96a601 601 0 0 0-6.28-12.15c-3.13-5.83-6.08-11.74-9.36-17.5-3.57-6.27-7.6-12.17-11.62-18.16-4.33-6.44-7.97-13.61-8.81-21.45a2.06 2.06 0 0 0-2-2 2 2 0 0 0-2 2 49 49 0 0 0 6.9 19.64c3.56 5.92 7.8 11.39 11.35 17.31 1.93 3.22 3.76 6.5 5.6 9.77s3.38 6.66 5.14 9.95a672 672 0 0 1 12.2 23.77c.37.74.7 1.51 1.08 2.24a3.6 3.6 0 0 0 4.4 1.83 52 52 0 0 0 5.32-2.47q2.69-1.3 5.3-2.71c1.65-.9 2.75-2.35 2.39-4.3a47 47 0 0 0-1.56-5.19q-1.46-4.67-2.99-9.32c-2-6.09-4.1-12.14-6.2-18.2-2.29-6.6-4.61-13.2-6.83-19.82a159 159 0 0 1-5.53-19.62 52 52 0 0 1-.68-4.31 2.06 2.06 0 0 0-2-2 2 2 0 0 0-2 2" class="a"/><path d="M265.45 145.86c-3.26 19.2-9.17 37.82-15.14 56.32l-2.21 6.84a7 7 0 0 0-.6 3.53 4.6 4.6 0 0 0 1.4 2.62 9 9 0 0 0 2.84 1.4q1.52.6 3.04 1.24c2.2.93 4.36 1.96 6.58 2.84a4 4 0 0 0 5.1-2.14c1.06-2.17 1.99-4.42 2.94-6.64q2.73-6.4 5.22-12.88c3.34-8.72 6.34-17.57 9.4-26.4.84-2.43-3.02-3.48-3.86-1.06-2.5 7.2-4.94 14.42-7.58 21.56q-2.09 5.66-4.35 11.25c-1.64 4.05-3.2 8.27-5.22 12.15-.08.17-.26.49-.22.48-.17.03-.79-.37-.97-.45l-3.21-1.39q-2.9-1.25-5.8-2.42c-.57-.23-1.44-.32-1.42-1a7 7 0 0 1 .5-1.4l.6-1.82 2.06-6.4a761 761 0 0 0 7.9-25.65 278 278 0 0 0 6.87-29.52 2.06 2.06 0 0 0-1.4-2.46 2 2 0 0 0-2.46 1.4Zm30.73-72.03c.93 2.49 1.86 4.98 2.7 7.5a40 40 0 0 1 2.25 9.1c.35 4.37-.5 8.8-1.15 13.1-.55 3.65-1.18 7.28-1.69 10.92a2.07 2.07 0 0 0 1.4 2.46 2 2 0 0 0 2.46-1.4c.52-3.7 1.16-7.4 1.72-11.1.7-4.59 1.64-9.34 1.27-13.98-.5-6.08-2.97-12-5.1-17.66a2.06 2.06 0 0 0-2.47-1.4 2 2 0 0 0-1.4 2.46Z" class="a"/><path d="m262.6 124.43-1.7 4.79a35 35 0 0 0-1.6 4.69c-.65 3.29 2.4 4.6 4.92 5.56 2.8 1.07 5.7 1.9 8.57 2.77a63 63 0 0 0 8.05 1.96c5.23.85 10.8 1.08 15.6-1.5a8.6 8.6 0 0 0 4.24-4.68 18 18 0 0 0 .76-6.63 152 152 0 0 1 .77-16.41 2 2 0 0 0-2-2 2.05 2.05 0 0 0-2 2q-.66 6.44-.76 12.9c-.03 2.1.06 4.2-.04 6.3a6.2 6.2 0 0 1-1.37 3.96c-2.83 2.85-7.82 2.85-11.5 2.53-5.05-.44-9.9-2.02-14.72-3.52q-2.03-.63-4.04-1.35c-.4-.15-2.53-.75-2.65-1.22.07.28.64-1.16.26-.42a12 12 0 0 0 .49-1.37l.8-2.28 1.78-5.02c.87-2.43-3-3.48-3.85-1.06Z" class="a"/><path d="M306.4 119.3c-3.37-5.86-8.9-15.81-11.7-20.66a2.36 2.36 0 0 0-3.16-.9 2062 2062 0 0 0-35.06 19.25 2.35 2.35 0 0 0-.92 3.13c2.74 5.25 8.72 16.19 11.48 21.17a2.35 2.35 0 0 0 3.18.93c11.32-6.1 28.47-15.75 35.31-19.69a2.35 2.35 0 0 0 .87-3.22" class="c"/><path d="M308.12 118.23q-4.12-7.2-8.18-14.46c-1.16-2.06-2.26-4.2-3.53-6.2a4.5 4.5 0 0 0-3.76-2.17 6.4 6.4 0 0 0-3.1 1.06q-12.25 6.56-24.4 13.31l-5.82 3.24c-1.53.85-3.56 1.65-4.8 2.9-2.27 2.3-.83 4.94.41 7.27q1.81 3.41 3.66 6.8l3.93 7.22 1.72 3.12a12 12 0 0 0 1.79 2.86c2.5 2.48 5.37.6 7.84-.74s4.95-2.7 7.42-4.07q8.5-4.69 16.93-9.46l6.58-3.73a10 10 0 0 0 2.88-1.99 4.5 4.5 0 0 0 .43-4.96c-1.12-2.31-4.57-.29-3.45 2.02.23.48-.61.75-1.07 1.01l-2.36 1.35q-2.8 1.6-5.61 3.18-6.64 3.75-13.31 7.45l-7 3.86-3 1.64-1.5.82c-.42.23-1.14.83-1.61.87s-.77-.82-1.04-1.3l-1.55-2.8-3.52-6.44q-1.7-3.12-3.37-6.24l-1.47-2.74c-.25-.48-1.1-1.66-.97-2.04.16-.43 1.2-.8 1.58-1l2.26-1.28 4.96-2.76Q277.5 107.5 289 101.3l2.3-1.24c.43-.23 1.16-.85 1.55-.6.3.2.58.95.75 1.26l.88 1.54 1.83 3.23c2.78 4.92 5.53 9.86 8.35 14.77 1.27 2.22 4.73.21 3.45-2.03" class="a"/><path d="m284.96 138.12-.27.2a5.43 5.43 0 0 1-8.04-1.1c-1.24-1.74-1.78-2.46-2.51-3.5l-.75-1.09c-1.51-2.28-2.82-3.37-3.66-4.75 2.45-2.04 5.82-5.1 8.26-7.46l1.16.61a4 4 0 0 0 2.23.48l3.28-.2c1.16-.16 2.47 2 3.75 2.95 1.55 1.16 2.6 2.56.75 4.43.9.6 1.86 1.22 2.96 1.97a2.24 2.24 0 0 1 .58 3.19 2.7 2.7 0 0 1-2.85 1.16 4 4 0 0 1-3.43 2.66 2.7 2.7 0 0 0-1.46.45" class="b"/><path d="M291.3 129.24a4.2 4.2 0 0 0-.38-5.4 6 6 0 0 0-.74-.71l-.68-.54.1.08-.23-.2q-.75-.74-1.46-1.51a4.5 4.5 0 0 0-3.38-1.64l-2.45.15q-.45.04-.89.05h-.38c.2 0 .12.02-.04-.02l-.28-.07c-.03-.01-.38-.13-.21-.06.19.07-.1-.06-.11-.06l-.35-.19-.7-.37a2 2 0 0 0-2.02 3.45 10 10 0 0 0 2.99 1.22 8 8 0 0 0 1.73.07c.91-.06 1.85-.06 2.76-.17h.09c.36-.1-.48-.15-.12-.05s-.47-.14 0 .03l.17.11q-.34-.26-.08-.05l1.68 1.72a13 13 0 0 0 1.09.91c-.32-.25.23.2.28.25a5 5 0 0 1 .46.49c-.29-.36-.03.01.03.1q-.14-.38-.03-.07.08.33 0-.1-.01.33.04-.1l-.09.32c.14-.41-.19.24-.25.33a2 2 0 0 0 .71 2.74 2.06 2.06 0 0 0 2.74-.72Z" class="a"/><path d="M284.7 127.92a87 87 0 0 0 5.24 3.69c.33.21.98.49 1.19.81.06.1-.03.33.02.12a1 1 0 0 1-.35.47c-.35.24-.08.02-.27.06-.08.02-.54-.04-.15.02a2.1 2.1 0 0 0-2.46 1.4 2 2 0 0 1-1.44 1.17c-.5.13-1.02.09-1.52.26a6 6 0 0 0-1.44.8 3.5 3.5 0 0 1-4.64 0 24 24 0 0 1-3.08-4.11 76 76 0 0 0-3.8-4.97 2 2 0 0 0-2.83 0 2.05 2.05 0 0 0 0 2.83 97 97 0 0 1 3.97 5.28c1.46 2.01 2.74 4.21 5.11 5.24a7 7 0 0 0 4 .52 7 7 0 0 0 1.89-.56c.67-.3 1.18-.76 1.82-1.1a6 6 0 0 1 1.59-.34 6 6 0 0 0 1.58-.66 6.5 6.5 0 0 0 2.65-3.31l-2.46 1.4a4.9 4.9 0 0 0 4.14-.97 4.5 4.5 0 0 0 1.51-4.58c-.51-1.77-2.03-2.6-3.48-3.55-1.34-.89-2.69-1.76-3.96-2.75a2.07 2.07 0 0 0-2.83 0 2 2 0 0 0 0 2.83" class="a"/><path d="M270.49 75.52c-1.38.88-2.63 2.1-3.93 3.09-3 2.28-10.46 12.07-12.52 15a16.8 16.8 0 0 0-3.45 9.95c.19 6 4.25 11.3 8.48 15.56 3.2 3.22 5.34 5.6 8.31 8.64a1.73 1.73 0 0 0 2.34.13c2.65-2.2 6.38-5.6 8.84-8.02a1.7 1.7 0 0 0 .06-2.39c-3.57-3.88-5.87-6.3-9.28-10.64-.95-1.21-1.94-2.63-1.7-4.15.22-1.36 1.45-2.25 2.42-3.22 2.12-2.1 4.21-4.12 6.95-6.62" class="f"/><path d="M269.48 73.8c-5.52 3.66-9.6 8.85-13.61 14.04a53 53 0 0 0-5.03 7.14 16.8 16.8 0 0 0-1.52 13 29 29 0 0 0 6.8 10.94c3 3.27 6.14 6.43 9.23 9.6 1.66 1.73 3.76 2.4 5.8.78 1.54-1.24 3.01-2.59 4.48-3.92s3.02-2.64 4.35-4.1c1.8-1.96 1.05-4.14-.56-5.88q-2.39-2.58-4.72-5.21a41 41 0 0 1-4.62-5.76 1.7 1.7 0 0 1 .3-2.5l2.49-2.41q2.73-2.68 5.56-5.26c1.9-1.74-.94-4.56-2.83-2.83q-2.32 2.12-4.57 4.3c-1.33 1.28-2.8 2.53-4 3.93-3.37 3.95.29 7.93 2.88 11.06q1.83 2.2 3.76 4.32.94 1.04 1.9 2.07l1.02 1.11a4 4 0 0 0 .4.44c.21.17.03-.02.16-.2a15 15 0 0 1-1.84 1.77l-2.2 2.05c-1.4 1.27-2.8 2.56-4.28 3.76-.49.4-.3.1-.06.28a11 11 0 0 1-.9-.93l-2.16-2.27q-2.1-2.22-4.23-4.4c-2.78-2.85-5.51-5.73-7.3-9.33a13 13 0 0 1-.54-11.04 34 34 0 0 1 4.54-6.99c3.88-5.11 7.9-10.51 13.32-14.11 2.13-1.42.13-4.89-2.02-3.46Zm7.9 3.58a16 16 0 0 1 2.63 2.64l-.31-.4q.39.5.73 1.03a2 2 0 0 0 1.2.92 2 2 0 0 0 1.54-.2 2 2 0 0 0 .72-2.74 17 17 0 0 0-3.68-4.08 2.2 2.2 0 0 0-1.41-.59 2 2 0 0 0-1.42.6 2 2 0 0 0-.58 1.4 2 2 0 0 0 .58 1.42m24.87 1.59c5.47.02 11 .65 16.44 1.2l-1-.28-.72-.7c-.06-.15-.1-1.17-.24-.78v.3q-.06.5-.07 1-.12 1.5-.28 2.98-.38 3.53-.8 7.07-.14 1.35-.32 2.68l-.1.74-.03.23-.18 1.4c-.37 2.94-.63 6.14-2.13 8.77a7.3 7.3 0 0 1-4.1 3.43c-2.18.69-4.4.02-6.4-.9a2.06 2.06 0 0 0-2.74.7 2 2 0 0 0 .72 2.75c3.04 1.4 6.39 2.36 9.7 1.24a11.5 11.5 0 0 0 6.43-5.49c2.07-3.89 2.29-8.52 2.82-12.8q.65-5.14 1.18-10.3a30 30 0 0 0 .3-3.78c-.07-2.39-2.32-2.3-4.13-2.47-4.76-.43-9.57-.98-14.35-1-2.58-.01-2.58 3.99 0 4Z" class="a"/><path d="M299.8 90.03a148 148 0 0 0-4.39-11.35 21 21 0 0 0-6.25-7.71c-1.56-1.22-3.27-2.2-4.93-3.29a26 26 0 0 0-5.23-3.02c-1.98-.7-3.57.5-4.62 2.08l-2.74 4.05c-1.42 2.15 2.04 4.16 3.46 2.02.72-1.1 1.49-2.19 2.22-3.29.15-.21.65-1.06.72-1.1-.36.19.27.32.55.47q.55.3 1.09.63a52 52 0 0 1 8.06 5.45c4.57 4.13 6.2 10.5 8.2 16.12.86 2.41 4.72 1.37 3.86-1.06M285 120.74c-1.24 1.19-4.72 2.65-6.36.18-1.77-3.47 2.18-5.77 4.68-5.6 2.06.15 4.16 2.62 1.68 5.42m98.99-88.5a21 21 0 0 1-1.38-12.96 18.6 18.6 0 0 1 5.5-10.67 17.36 17.36 0 0 1 22.3-1.08 19.3 19.3 0 0 1 6.46 9.6c1.17 3.87 3.16 7.81 3.08 11.77-.07 3.38-.67 7.5-2.95 10.17a13.7 13.7 0 0 1-9.18 5.05 27.4 27.4 0 0 1-13.32-2.24 21 21 0 0 1-6.38-3.71 21 21 0 0 1-4.13-5.93c-1.16-2.3-4.61-.27-3.46 2.02a21.6 21.6 0 0 0 10.71 10.55c4.45 1.95 9.02 3.51 13.94 3.45 4.63-.05 9.26-1.17 12.75-4.4a16 16 0 0 0 3.58-4.39 22 22 0 0 0 2.1-6.65 21 21 0 0 0 .1-7.24 54 54 0 0 0-2.06-6.7 54 54 0 0 0-2.63-7.06 23 23 0 0 0-4.17-5.68 21.3 21.3 0 0 0-26.83-2.53 21.8 21.8 0 0 0-9 13.32 33 33 0 0 0-.77 8.38 21 21 0 0 0 2.28 8.95c1.13 2.32 4.58.3 3.46-2.02" class="a"/><path d="M395 15.17a8.3 8.3 0 0 0-8.03 6.57 10.4 10.4 0 0 0 2.45 9.81 8.3 8.3 0 0 0 10.74.48c2.73-2.17 3.51-6 3.04-9.3a9.5 9.5 0 0 0-2.4-5.16 8 8 0 0 0-5.81-2.4 2 2 0 0 0 0 4l.64.02c-.3-.02.03 0 .08.01a9 9 0 0 1 .93.25c.53.17-.26-.18.2.1q.16.07.32.17l.44.3c-.34-.26.1.1.13.13.09.08.62.7.38.37a6 6 0 0 1 .47.73c.06.11.39.86.25.48a10 10 0 0 1 .32 1.01 9 9 0 0 1 .17.88c-.06-.45.02.39.03.53l-.01.87-.04.53c-.04.44.07-.3-.03.16a11 11 0 0 1-.47 1.67c.16-.4-.17.33-.24.45l-.27.43c-.21.35.2-.2-.1.13l-.6.6c-.39.36.2-.13-.07.05l-.37.23-.39.2c-.3.14.43-.11-.11.04l-.46.13c-.07.02-.7.13-.35.09a7 7 0 0 1-1.06.04c.04 0-.63-.05-.35-.01s-.35-.07-.32-.07a5 5 0 0 1-.9-.27c.35.14-.01-.02-.1-.07l-.53-.33c-.32-.2-.08-.06-.02 0a7 7 0 0 1-.63-.62c-.03-.04-.36-.5-.12-.14a8 8 0 0 1-.47-.76l-.16-.32q-.15-.31-.02-.01l-.12-.34a9 9 0 0 1-.25-.87c-.04-.14-.15-.96-.12-.55a10 10 0 0 1 .01-1.98c0 .08-.07.37 0-.01l.13-.62q.13-.49.3-.95c.18-.54-.2.3.08-.19l.25-.47.28-.45c.22-.35-.18.16.12-.16a7 7 0 0 1 .76-.74c-.3.23.03 0 .1-.05l.57-.3c.34-.19.11-.05.03-.03a7 7 0 0 1 .75-.21l.4-.08c-.33.05.45 0 .53 0a2 2 0 0 0 0-4Z" class="a"/></svg>
