<svg xmlns="http://www.w3.org/2000/svg" fill="currentColor" viewBox="0 0 32 32"><path d="M29.22 13.95h-.28v-2.07c0-4.75-5.76-8.61-12.84-8.61S3.26 7.14 3.26 11.88v2.07h-.48c-.84 0-1.52.68-1.52 1.52v1.06c0 .84.68 1.52 1.52 1.52h.48v2.07c0 4.74 5.76 8.6 12.84 8.6s12.84-3.86 12.84-8.6v-2.07h.28c.84 0 1.52-.68 1.52-1.52v-1.06c0-.84-.68-1.52-1.52-1.52M16.1 4.78c5.85 0 10.68 2.79 11.28 6.36H4.82c.6-3.57 5.43-6.36 11.28-6.36M4.76 12.63h22.68v1.32H4.76zM16.1 27.21c-5.85 0-10.68-2.79-11.28-6.35h12.49l1.8 3q.23.35.64.36c.41.01.51-.14.64-.36l1.8-3h5.17c-.6 3.56-5.43 6.35-11.28 6.35Zm11.34-7.85h-5.66a.8.8 0 0 0-.64.36l-1.38 2.29-1.38-2.29a.7.7 0 0 0-.64-.36H4.76v-1.32h22.68zm1.78-2.82-26.46-.02.02-1.08h26.43l.02.02z"/></svg>
