<svg xmlns="http://www.w3.org/2000/svg" fill="none" viewBox="0 0 96 51"><path fill="currentColor" d="m39.9 41.55-6.98-11.78-.17-.28-8.58-14.36-3.8-6.37h-6.55q-.28.55-.8.88a2.1 2.1 0 0 1-2.65-.35 2.4 2.4 0 0 1-.64-1.64c0-.62.23-1.21.64-1.65a2.1 2.1 0 0 1 2.65-.35q.52.32.8.89h5.24L15.74.96H.03l8.44 14.13 2.67 4.47h6.83q.29-.57.8-.89a2.1 2.1 0 0 1 2.65.35 2.4 2.4 0 0 1 .36 2.78l9.6 16.14q.6-.03 1.13.25t.86.82c.3.52.4 1.15.28 1.75-.13.6-.47 1.12-.96 1.45s-1.07.43-1.64.3a2.2 2.2 0 0 1-1.36-1.02 2.4 2.4 0 0 1-.06-2.38l-9.6-16.14h-.14q-.6 0-1.12-.33a2.3 2.3 0 0 1-.8-.9h-5.51L29.9 50.96h5.47l4.53-7.23a2.4 2.4 0 0 1 0-2.17"/><path fill="currentColor" d="M51.55 40.14 45.06 51h-7.78l3.78-6.01q.74.07 1.36-.35c.49-.33.83-.85.96-1.45a2.5 2.5 0 0 0-.28-1.74q-.32-.53-.85-.83a2 2 0 0 0-1.14-.25l-2.7-4.55 5.27-8.83zm7.61-22.81 2.92 4.87-3.14 5.26-5.71-10.06-.04-.07zm-14.59-8.7-3.35 4.82L33.81 1h32.83L63.9 5.36q-.6-.05-1.13.21a2.2 2.2 0 0 0-.98.99H48.47a2.3 2.3 0 0 0-.8-.89 2.1 2.1 0 0 0-2.66.36 2.4 2.4 0 0 0-.44 2.6"/><path fill="currentColor" d="M49.13 16.23c0 .61.23 1.2.64 1.64.4.44.96.68 1.54.68h.1l6.25 10.99-3.5 5.83-7.85-13.15-4.04-6.76 3.82-5.5.3.03q.6 0 1.12-.32.51-.33.8-.89h13.32q.24.5.7.82c.48.34 1.07.47 1.63.35a2.2 2.2 0 0 0 1.39-.98 2.4 2.4 0 0 0 .1-2.37l3.5-5.58h5.73l-8.44 14.13H53.21a2.3 2.3 0 0 0-.8-.89 2 2 0 0 0-1.12-.32c-.57 0-1.11.24-1.52.67s-.63 1.01-.64 1.62m37.02-7.47q-.3.55-.8.88-.52.33-1.11.33h-.19l-3.17 5.16a2.5 2.5 0 0 1-.1 2.37c-.32.51-.81.87-1.38 1-.56.12-1.14 0-1.63-.33q-.46-.33-.72-.84H70.5l-5.9 9.88-7.85 13.16-6.35 10.64h6.82L71.3 27.45a2.5 2.5 0 0 1 .06-2.37c.3-.51.8-.88 1.36-1.01a2 2 0 0 1 1.64.3 2.44 2.44 0 0 1 .67 3.19q-.32.54-.86.83-.53.28-1.13.24L59.67 51h6.45l6.36-10.64 15.07-25.24 3.8-6.37z"/><path fill="currentColor" d="m96 1-3.32 5.58h-6.55a2.3 2.3 0 0 0-.8-.89 2.1 2.1 0 0 0-2.65.36 2.4 2.4 0 0 0-.37 2.74l-3.18 5.16q-.6-.06-1.13.22a2.2 2.2 0 0 0-.97.98H71.8l8.44-14.12z"/></svg>
