<svg xmlns="http://www.w3.org/2000/svg" fill="none" viewBox="0 0 24 24"><path stroke="currentColor" stroke-linecap="round" stroke-linejoin="round" stroke-width="2" d="M18 12h-3m6-4H3m15 8h-3m-2 3a4 4 0 0 0-4-3 4 4 0 0 0-4 2.98m0 0q.45.02 1.19.02h11.6c1.12 0 1.68 0 2.1-.22a2 2 0 0 0 .88-.87c.22-.43.22-.99.22-2.11V8.2c0-1.12 0-1.68-.22-2.1a2 2 0 0 0-.87-.88C19.48 5 18.92 5 17.8 5H6.2c-1.12 0-1.68 0-2.1.22a2 2 0 0 0-.88.87C3 6.52 3 7.08 3 8.2v7.6c0 1.12 0 1.68.22 2.1q.3.58.87.88.34.18.91.2M10 12a1 1 0 1 1-2 0 1 1 0 0 1 2 0"/></svg>
