<svg xmlns="http://www.w3.org/2000/svg" fill="none" viewBox="0 0 24 24"><path stroke="currentColor" stroke-linecap="round" stroke-linejoin="round" stroke-width="2" d="M3 15h2.93a2 2 0 0 1 1.66.9l.82 1.2a2 2 0 0 0 1.66.9h3.86a2 2 0 0 0 1.66-.9l.82-1.2a2 2 0 0 1 1.66-.9H21"/><path stroke="currentColor" stroke-linejoin="round" stroke-width="2" d="M3 7c0-1.89 0-2.83.59-3.41C4.17 3 5.1 3 7 3h10c1.89 0 2.83 0 3.41.59C21 4.17 21 5.1 21 7v10c0 1.89 0 2.83-.59 3.41-.58.59-1.52.59-3.41.59H7c-1.89 0-2.83 0-3.41-.59C3 19.83 3 18.9 3 17z"/></svg>
