<svg xmlns="http://www.w3.org/2000/svg" fill="none" viewBox="0 0 24 24"><path stroke="currentColor" stroke-width="1.5" d="M21 17.5a3.5 3.5 0 1 1-7 0 3.5 3.5 0 0 1 7 0Z"/><path stroke="currentColor" stroke-linecap="round" stroke-width="1.5" d="M2 11h12m8 0h-4M4 11l.61-2.46c.55-2.18.82-3.27 1.64-3.9C7 4.04 8.04 4 10 4m10 7-.61-2.46c-.55-2.18-.82-3.27-1.64-3.9C17 4.04 15.96 4 14 4"/><path stroke="currentColor" stroke-width="1.5" d="M10 17.5a3.5 3.5 0 1 1-7 0 3.5 3.5 0 0 1 7 0Z"/><path stroke="currentColor" stroke-linecap="round" stroke-width="1.5" d="m10 17.5.66-.33a3 3 0 0 1 2.68 0l.66.33"/></svg>
