<svg xmlns="http://www.w3.org/2000/svg" fill="currentColor" style="fill-rule:evenodd;clip-rule:evenodd;stroke-linejoin:round;stroke-miterlimit:2" viewBox="0 0 64 64"><path id="Icons" d="M-576-64H704v800H-576z" style="fill:none"/><g id="Icons1"><g id="info"><path d="M32.17 56.03a24.4 24.4 0 0 0 16.7-6.97 24.4 24.4 0 0 0 6.97-20.1A23.76 23.76 0 0 0 32.01 8c-9.07 0-17.9 5.67-21.76 13.9a24.1 24.1 0 0 0 0 20.23 24.6 24.6 0 0 0 21.61 13.9zm-.29-4c-9.23-.1-17.84-7.23-19.55-16.38a20.3 20.3 0 0 1 5.82-18.02 20.3 20.3 0 0 1 21.5-4.1 20.5 20.5 0 0 1 12.22 15.95 20.3 20.3 0 0 1-5.56 16.48 20.2 20.2 0 0 1-14.17 6.06z" style="fill-rule:nonzero"/><path d="M33.99 44.03h-3.91v-17.4h3.9zm-4.15-21.91q0-.9.57-1.5t1.63-.6q1.05 0 1.64.6t.58 1.5a2 2 0 0 1-.58 1.47q-.58.58-1.64.58-1.05 0-1.63-.58-.57-.6-.57-1.47" style="fill-rule:nonzero"/></g></g></svg>
