<svg xmlns="http://www.w3.org/2000/svg" fill="none" viewBox="0 0 24 24"><path fill="currentColor" fill-rule="evenodd" d="M8 3a1 1 0 0 1 1-1h6a1 1 0 1 1 0 2h-2v16h2a1 1 0 1 1 0 2H9a1 1 0 1 1 0-2h2V4H9a1 1 0 0 1-1-1m-.21 3H8a1 1 0 1 1 0 2h-.17c-.87 0-1.46 0-1.92.04s-.67.1-.83.19a2 2 0 0 0-.85.85c-.09.16-.15.38-.2.83C4 10.37 4 10.96 4 11.83v.34c0 .87 0 1.46.04 1.92s.1.67.19.83a2 2 0 0 0 .85.85c.16.09.38.15.83.2.46.03 1.05.03 1.92.03H8a1 1 0 1 1 0 2h-.21q-1.23.01-2.05-.05a4 4 0 0 1-1.58-.4 4 4 0 0 1-1.71-1.7 4 4 0 0 1-.4-1.6q-.06-.81-.05-2.04v-.42q-.01-1.23.05-2.05c.04-.57.14-1.1.4-1.58a4 4 0 0 1 1.7-1.71c.5-.26 1.02-.36 1.6-.4q.81-.06 2.04-.05m10.3 2.04C17.63 8 17.04 8 16.17 8H16a1 1 0 1 1 0-2h.21q1.23-.01 2.05.05c.57.04 1.1.14 1.58.4a4 4 0 0 1 1.71 1.7q.36.74.4 1.6.06.81.05 2.04v.42q.01 1.23-.05 2.05a4 4 0 0 1-.4 1.58 4 4 0 0 1-1.7 1.71q-.74.36-1.6.4-.81.06-2.04.05H16a1 1 0 1 1 0-2h.17c.87 0 1.46 0 1.92-.04s.67-.1.83-.19a2 2 0 0 0 .85-.85c.09-.16.15-.38.2-.83.03-.46.03-1.05.03-1.92v-.34c0-.87 0-1.46-.04-1.92s-.1-.67-.19-.83a2 2 0 0 0-.85-.85 2 2 0 0 0-.83-.2" clip-rule="evenodd"/></svg>
