<svg xmlns="http://www.w3.org/2000/svg" fill="none" viewBox="0 0 24 24"><path fill="currentColor" d="M12.75 12a.75.75 0 0 0-1.5 0v1.25H10a.75.75 0 0 0 0 1.5h1.25V16a.75.75 0 0 0 1.5 0v-1.25H14a.75.75 0 0 0 0-1.5h-1.25z"/><path fill="currentColor" fill-rule="evenodd" d="M7.48 1.25h9.04l.58.01q.27 0 .57.12a1.8 1.8 0 0 1 1.07 1.52l.01.58v.04l-.01.58q0 .27-.12.57a1.8 1.8 0 0 1-1.46 1.06l1.83 1.49a4.8 4.8 0 0 1 1.76 3.69v6.65c0 1.1-.38 2.17-1.08 3.02l-.36.44a4.8 4.8 0 0 1-3.67 1.73H8.9c-.52 0-.85 0-1.17-.04a5 5 0 0 1-2.56-1.2 9 9 0 0 1-.78-.88l-.04-.04a4.8 4.8 0 0 1-1.1-3.04v-6.63c0-1.44.66-2.8 1.78-3.7l1.85-1.48A1.75 1.75 0 0 1 5.26 4.1l-.01-.58v-.04l.01-.58q0-.27.12-.57A1.8 1.8 0 0 1 6.9 1.26zm2.92 4.5h3.24c.76 0 .95.01 1.13.07s.33.18.92.65l2.35 1.91q.45.38.76.87H5.2q.3-.5.76-.87l2.4-1.92c.59-.46.74-.58.92-.64a4 4 0 0 1 1.11-.07m-5.65 5h14.5v6.5H4.75zm.23 8h14.05q-.2.48-.52.88l-.36.44a3.3 3.3 0 0 1-2.5 1.18h-6.7c-.58 0-.81 0-1.02-.03a3.3 3.3 0 0 1-1.75-.82 8 8 0 0 1-.68-.77q-.34-.4-.52-.88M16.5 4.25h-9l-.6-.02a.3.3 0 0 1-.13-.13L6.76 4a8 8 0 0 1 .01-1.1q.04-.09.13-.13l.1-.01.5-.01h9l.6.02q.09.04.13.13l.01.1a8 8 0 0 1-.01 1.1.3.3 0 0 1-.13.13l-.1.01z" clip-rule="evenodd"/></svg>
