<svg xmlns="http://www.w3.org/2000/svg" fill="none" viewBox="0 0 40 40"><path stroke="currentColor" stroke-width="1.5" d="M9 .75h17.04l8.21 7.54V36c0 1.8-1.46 3.25-3.25 3.25H9A3.25 3.25 0 0 1 5.75 36V4C5.75 2.2 7.21.75 9 .75Z"/><mask id="path-2-inside-1_9067_87833" fill="currentColor"><path d="M25 1h8.5v8.5H26a1 1 0 0 1-1-1z"/></mask><path fill="currentColor" d="M25 1h8.5zm8.5 9.5H26a2 2 0 0 1-2-2h9.5zm-7.5 0a2 2 0 0 1-2-2V1h2zM33.5 1v8.5z" mask="url(#path-2-inside-1_9067_87833)"/><rect width="30" height="13" x="1" y="20" fill="none" stroke="currentColor" rx="2"/><path fill="currentColor" d="M8.5 22.98v4.78q0 1.11-.63 1.71t-1.68.6a2.5 2.5 0 0 1-1.78-.63q-.67-.63-.67-1.79h1.7q0 .45.18.67t.52.22a.6.6 0 0 0 .48-.2q.16-.2.17-.58v-4.78zm6.73 2.26q0 .6-.28 1.12-.29.5-.86.81-.58.3-1.44.31h-1.06V30H9.88v-7.02h2.77q.84 0 1.42.29a2 2 0 0 1 .87.8q.29.51.29 1.17m-2.71.88q.49 0 .73-.23a1 1 0 0 0 .24-.65q0-.42-.24-.65t-.73-.23h-.93v1.76zm5.3-1.77v1.42h2.3v1.32h-2.3v1.54h2.6V30h-4.3v-7.02h4.3v1.37zm8.37.85a1.2 1.2 0 0 0-.55-.53 2 2 0 0 0-.83-.19q-.84 0-1.33.55-.5.54-.5 1.45 0 .97.52 1.52.52.54 1.45.54.63 0 1.06-.32t.64-.92h-2.17v-1.26h3.72v1.59q-.2.64-.65 1.19-.46.55-1.15.89-.7.34-1.58.34a4 4 0 0 1-1.86-.45q-.82-.45-1.27-1.27a4 4 0 0 1-.45-1.85q0-1.04.45-1.85t1.27-1.27q.8-.46 1.85-.46 1.26 0 2.12.61.87.6 1.15 1.69z"/></svg>
