<svg xmlns="http://www.w3.org/2000/svg" fill="none" viewBox="0 0 40 41"><g clip-path="url(#clip0_9067_87785)"><path stroke="currentColor" stroke-width="1.5" fill="none" d="M9 1.05h17.04l8.21 7.53V36.3c0 1.8-1.46 3.25-3.25 3.25H9a3.25 3.25 0 0 1-3.25-3.25v-32c0-1.8 1.46-3.25 3.25-3.25Z"/><mask id="path-2-inside-1_9067_87785" fill="currentColor"><path d="M25 1.3h8.5v8.5H26a1 1 0 0 1-1-1z"/></mask><path fill="currentColor" d="M25 1.3h8.5zm8.5 9.5H26a2 2 0 0 1-2-2h9.5zm-7.5 0a2 2 0 0 1-2-2V1.3h2zm7.5-9.5v8.5z" mask="url(#path-2-inside-1_9067_87785)"/><rect width="32" height="13" x="1" y="20.297" fill="none" stroke="currentColor" rx="2"/><path fill="currentColor" d="M8.36 23.28v4.78q0 1.1-.63 1.7-.61.6-1.68.6a2.5 2.5 0 0 1-1.78-.62q-.66-.63-.67-1.8h1.7q0 .45.18.68.19.21.52.22a.6.6 0 0 0 .48-.2q.18-.2.17-.58v-4.78zm3.92 7.09q-.76 0-1.38-.25-.6-.26-.98-.74a2 2 0 0 1-.38-1.18h1.82a1 1 0 0 0 .27.6q.24.2.6.2.39 0 .6-.17a.6.6 0 0 0 .22-.5.6.6 0 0 0-.18-.42q-.16-.17-.43-.28-.24-.12-.72-.25a8 8 0 0 1-1.1-.42 2 2 0 0 1-.75-.62q-.3-.41-.3-1.07 0-.99.7-1.53a3 3 0 0 1 1.85-.56q1.17 0 1.87.56.72.54.76 1.54H12.9a.7.7 0 0 0-.25-.53 1 1 0 0 0-.59-.2q-.3 0-.5.17-.19.15-.19.47 0 .33.32.53.33.19 1 .4.69.23 1.1.45.45.21.74.6.31.4.31 1.04a2 2 0 0 1-.3 1.09q-.3.48-.89.78-.57.3-1.37.29m6.94 0a4 4 0 0 1-1.82-.46 3.5 3.5 0 0 1-1.8-3.14q0-1.03.49-1.85a3.5 3.5 0 0 1 1.3-1.28 4 4 0 0 1 1.83-.46q.99 0 1.8.46.85.45 1.3 1.28.5.81.49 1.85 0 1.02-.48 1.86-.48.81-1.3 1.28-.82.45-1.81.46m0-1.56q.84 0 1.34-.56t.5-1.48a2 2 0 0 0-.5-1.48 1.7 1.7 0 0 0-1.34-.56q-.85 0-1.36.55-.5.54-.5 1.49 0 .93.5 1.49.5.54 1.36.55m10.82 1.49h-1.71l-2.86-4.33v4.33h-1.71v-7.02h1.7l2.87 4.35v-4.35h1.7z"/></g><defs><clipPath id="clip0_9067_87785"><path fill="currentColor" d="M0 .3h40v40H0z"/></clipPath></defs></svg>
