<svg xmlns="http://www.w3.org/2000/svg" viewBox="0 0 1024 1024"><path fill="currentColor" d="M944.5 177.8c9.3 9.4 14.3 21.8 14.1 34.9-.5 33.4-13.4 65.2-36.2 89.5a133.4 133.4 0 0 1-82 41.3c-1.9.6-3.9.9-5.9.9-21.1 0-38.3 17.2-38.3 38.3v93.1h29.2a50.87 50.87 0 0 1 49 64.3 52.6 52.6 0 0 1 20.9 42c0 29.1-23.7 52.7-52.7 52.7h-84.5c-.7 43.2-19.9 83.7-53.1 111.6a149 149 0 0 1-95.7 34.9q-5.25 0-10.2 1.2-5.1 1.2-9.6 3.6h59.8c38.6 0 70.1 31.4 70.1 70.1 0 .8-.1 1.5-.1 2.3 15.1 12.9 24.7 32 24.7 53.3 0 18.6-15.1 33.7-33.7 33.7H83.8a19 19 0 0 1-6.6-36.8L305.7 824V648c0-129.5 105.4-234.9 234.9-234.9h51.1c17.2 0 31.2-14 31.2-31.2V239.1c0-24.2 11.4-45.8 29.1-59.8-1.3-1.1-2.6-2.3-3.8-3.6a80.2 80.2 0 0 1-20.7-77.1 17.2 17.2 0 0 1 12.1-12.1c20.4-5.5 41.9-2.5 59.8 7.6 2.5-4 5.2-7.7 8.3-11.2 4.1-4.6 10.3-6.6 16.3-5.4a80 80 0 0 1 59.5 53.1c3.5 10.5 4.7 21.5 3.7 32.2H909c13.6.2 26.1 5.5 35.5 15"/><path fill="currentColor" d="M917.5 204.5c1.2 1.2 3.2 3.8 3.1 7.6-.7 49.5-47.9 94.4-90.8 94.4-39.9 2.5-71.6 35.7-71.6 76.2l.1 165.7a19 19 0 0 0 19 19h65.3c8.1 0 14.7 6.6 14.7 14.7s-6.6 14.7-14.7 14.7h-113c-22.1 0-40-18-40-40v-26.7a19 19 0 1 0-38 0v26.7c0 39.8 30 72.7 68.5 77.5a110.5 110.5 0 0 1-39.5 83.1c-19.9 16.7-45.2 26-71.3 26-6.5 0-12.9.8-19.1 2.2a81.2 81.2 0 0 0-62.4 79.2v36a19 19 0 0 0 19 19h127c16.2 0 29.6 12.1 31.7 27.7H461.9V791.3a19 19 0 1 0-38 0v116.2h-234L331.3 855a19 19 0 0 0 12.4-17.8V648c0-108.6 88.3-196.9 196.9-196.9h51.1c38.2 0 69.2-31.1 69.2-69.2V239.1c0-21 17.1-38.1 38.1-38.1h210c3.3 0 6.2 1.3 8.5 3.5"/><path fill="currentColor" d="M842 526.7c0 .9-.1 1.8-.2 2.7h-45.4v-19.3h29.1c9.1 0 16.5 7.4 16.5 16.6m-41.3-312.3c9.4 0 17 7.6 17 16.9 0 9.4-7.6 17-17 17s-16.9-7.6-16.9-17c0-9.3 7.6-16.9 16.9-16.9m-49.6-72.9a45 45 0 0 1 1.7 21.5h-12.7c-.2-16.1-5.2-31.9-14.5-45.1.5-1.1 1-2.2 1.6-3.3 11.2 5.2 20 14.9 23.9 26.9m-58.5-10.1c8.5 8.5 13.1 19.9 13.3 31.6 0 0-11 .1-13.1.3-7.6-2.1-14.6-6-20.3-11.7a45.8 45.8 0 0 1-13.3-33.4c12.3-.4 24.4 4.3 33.4 13.2m-43.3 692.7c12.5 0 23.4 7.2 28.6 17.8-1.3-.1-112.1-.1-112.1-.1v-17.6zM540.7 498.3a19 19 0 1 1 0 38C479.1 536.4 429 586.5 429 648a19 19 0 1 1-38 0c0-82.5 67.1-149.7 149.7-149.7"/></svg>
