<svg xmlns="http://www.w3.org/2000/svg" fill="none" viewBox="0 0 24 24"><path fill="currentColor" d="m20.31 3.69.53-.53zm0 8.14.53.53zm-9.86-1.77-.53-.53zm-3.09 3.09.53.53zm3.49 3.49-.53-.53zm3.1-3.1-.54-.53zM7 14.17l-.75.08zm.2 1.74-.75.08zm.9.9-.1.74zm1.73.2.08-.75zm-2.4-.61.53-.53zm.17.17-.53.53zm3.06-7.37-.73.19zm4.14 4.14-.19.73zm-3.86.3A.75.75 0 0 0 9.9 14.7zm4.57-5.15a.9.9 0 0 1 0-1.3l-1.06-1.06a2.4 2.4 0 0 0 0 3.42zm1.3 0a.9.9 0 0 1-1.3 0l-1.06 1.06a2.4 2.4 0 0 0 3.42 0zm0-1.3c.35.36.35.94 0 1.3l1.06 1.06c.94-.94.94-2.47 0-3.42zm1.06-1.06a2.4 2.4 0 0 0-3.42 0l1.06 1.07a.9.9 0 0 1 1.3 0zm1.9-1.9a5 5 0 0 1 0 7.08l1.06 1.06a6.5 6.5 0 0 0 0-9.2zm1.06-1.06a6.5 6.5 0 0 0-9.2 0l1.06 1.06a5 5 0 0 1 7.08 0zM9.92 9.53l-3.09 3.09 1.06 1.06 3.1-3.1zm1.46 7.64 1.03-1.03-1.06-1.07-1.03 1.04zm1.03-1.03 2.06-2.06L13.41 13l-2.06 2.06zm-6.15-1.9.2 1.74 1.49-.16-.2-1.74zm1.76 3.3 1.74.2.16-1.5-1.74-.19zm-1.11-.62.17.17 1.06-1.06-.17-.17zm1.27-.87-.04-.02-1.06 1.07q.39.39.94.45zm-1.72-.07q.06.55.45.94l1.06-1.06-.02-.04zm3.86.13q-.16.15-.4.14l-.16 1.49c.6.06 1.2-.14 1.62-.57zm-3.49-3.49a2 2 0 0 0-.57 1.62l1.5-.16a.5.5 0 0 1 .13-.4zm4.57-3.61a5 5 0 0 1 1.3-4.8l-1.06-1.05a6.5 6.5 0 0 0-1.7 6.22zm8.38 2.29A5 5 0 0 1 15 12.6l-.37 1.46a6.5 6.5 0 0 0 6.22-1.7zm-5.3 2.78.04-.03h.1L15 12.6a1.7 1.7 0 0 0-1.58.41zm-3.5-3.5c.44-.43.55-1.05.42-1.57l-1.46.37v.1q0 .04-.02.05zm1.43 4.5-1.46-1.45L9.9 14.7l1.46 1.44z"/><path stroke="currentColor" stroke-linecap="round" stroke-width="1.5" d="M2 11.99c0 4.72 0 7.08 1.47 8.54C4.93 22 7.29 22 12 22s7.08 0 8.54-1.47c1.13-1.11 1.4-2.73 1.46-5.53M9 2c-2.79.06-4.42.33-5.53 1.45-.98.97-1.3 2.35-1.42 4.55"/></svg>
