<svg xmlns="http://www.w3.org/2000/svg" fill="none" viewBox="0 0 24 24"><path fill="currentColor" d="M14.38 17.65v.75c.42 0 .75-.34.75-.75zm5.24-5.18v.75a.75.75 0 0 0 .74-.87zm-1-5.95-.74.12zm-4.24-3.27a.75.75 0 0 0 0 1.5zm3.78 1.59-.62.42zm-.8-.68.3-.68zm-2.23 13.49c0-2.44 2-4.43 4.49-4.43v-1.5a5.96 5.96 0 0 0-5.99 5.93zm-.75-.75H6.76v1.5h7.62zm5.98-4.55-1-5.96-1.48.25 1 5.96zm-4.75-9.1h-1.23v1.5h1.23zm3.74 3.14q-.1-.65-.2-1.1t-.36-.87l-1.25.84c.05.07.1.17.15.39.06.23.1.53.19 1zm-3.74-1.64c.47 0 .78 0 1.02.02q.33.03.42.08l.61-1.37a3 3 0 0 0-.92-.2q-.45-.04-1.13-.03zm3.18-.33a2.7 2.7 0 0 0-1.13-.94l-.6 1.37q.3.14.48.4z"/><path fill="currentColor" d="M6.01 17.65c0 .87-.72 1.6-1.63 1.6v1.5a3.1 3.1 0 0 0 3.13-3.1zm-1.63 1.6c-.9 0-1.63-.73-1.63-1.6h-1.5c0 1.72 1.41 3.1 3.13 3.1zm-1.63-1.6c0-.88.72-1.6 1.63-1.6v-1.5a3.1 3.1 0 0 0-3.13 3.1zm1.63-1.6c.91 0 1.63.72 1.63 1.6h1.5a3.1 3.1 0 0 0-3.13-3.1zm16.87 1.6c0 .87-.72 1.6-1.63 1.6v1.5a3.1 3.1 0 0 0 3.13-3.1zm-1.63 1.6c-.91 0-1.63-.73-1.63-1.6h-1.5a3.1 3.1 0 0 0 3.13 3.1zm-1.63-1.6c0-.88.72-1.6 1.63-1.6v-1.5a3.1 3.1 0 0 0-3.13 3.1zm1.63-1.6c.9 0 1.63.72 1.63 1.6h1.5a3.1 3.1 0 0 0-3.13-3.1z"/></svg>
