<svg xmlns="http://www.w3.org/2000/svg" viewBox="0 -20.27 285.251 285.251"><defs><style>.a{fill:#fff}.d{fill:#211715}</style></defs><path d="M83.02 173.48a4 4 0 0 1-4 0l-60.15-34.74-.28.08v60.63a2 2 0 0 0 1 1.73l71.6 41.34a2 2 0 0 0 1.98 0L275.5 137.25a2 2 0 0 0 1-1.73v-72.7l-3.73 1.1Z" class="a"/><path d="m205.85 2.44 76.27 43.52a2 2 0 0 1 1 1.74v9.1a2 2 0 0 1-.98 1.71L83.02 173.48a4 4 0 0 1-4 0l-76-43.9a2 2 0 0 1-1-1.72V119a2 2 0 0 1 1-1.74L201.87 2.45a4 4 0 0 1 3.98-.01" class="a"/><path d="m152.08 108.68-64 36.95a1 1 0 0 1-1 0l-43.63-25.2a1 1 0 0 1 0-1.73l64-36.95a1 1 0 0 1 1 0l43.63 25.2a1 1 0 0 1 0 1.73" style="fill:#d9d9d9"/><path d="m247.25 53.74-57.5 33.2a5 5 0 0 1-5 0L147.6 65.5a4 4 0 0 1 0-6.93l57.5-33.2a5 5 0 0 1 5 0l37.14 21.45a4 4 0 0 1 0 6.91" style="fill:#7abee6"/><path d="M16.6 138.82v59.5c0 .38-.03.75 0 1.12.1 2.18 1.54 3.2 3.23 4.19l7.72 4.45 24.78 14.3 25.81 14.9 8.96 5.18q1.34.8 2.73 1.57a4.6 4.6 0 0 0 4.96-.14l9.58-5.53 16.57-9.57 21.76-12.56 24.87-14.35 26.15-15.1 25.67-14.82 23.03-13.3 18.63-10.76 12.35-7.13a21 21 0 0 0 3.8-2.3c1.54-1.44 1.3-3.46 1.3-5.34v-70.3c0-2.58-4-2.58-4 0v70.05c0 .66.26 2.25-.13 2.72a6 6 0 0 1-1.42.82l-1.92 1.1-5.34 3.09-15.74 9.08L229 161.8l-24.32 14.04-25.85 14.92-25.53 14.74-23.37 13.5-19.35 11.17-13.5 7.8-3.98 2.3c-.63.36-.77.6-1.37.27l-2.73-1.6-21-12.12-26.8-15.47-19.1-11.03c-.38-.22-1.34-.6-1.5-.93a5 5 0 0 1 0-1.47v-59.1c0-2.57-4-2.57-4 0" class="d"/><path d="M90.18 169.9v72.88c0 2.58 4 2.58 4 0v-72.87c0-2.58-4-2.58-4 0M198.5 50.59l-24.23 13.98-3.4 1.97c-2.22 1.28-.21 4.74 2.02 3.45l24.16-13.95 3.47-2c2.23-1.29.22-4.75-2.02-3.46Zm7.45-16.34v10.83a2 2 0 1 0 4 0V34.24a2 2 0 1 0-4 0" class="d"/><path d="m204.84 4.17 20.14 11.49 37.18 21.22 13.92 7.94 3.89 2.22c1.41.8 1.16.55 1.16 2.59v4.7c0 .6.24 2.08-.05 2.48-.17.24-.77.45-1.03.6l-3.02 1.74-9.54 5.51-30.33 17.51L197.63 105l-42.14 24.33-38.09 21.99-27.37 15.8c-2.52 1.46-5.03 2.97-7.58 4.38a2.8 2.8 0 0 1-3.17-.19l-3.45-2-31.5-18.18-33.57-19.38-4.68-2.7c-.5-.29-1.66-.68-2-1.16-.15-.2.15.48-.06-.31a6 6 0 0 1 0-1.38v-5.12c0-.46-.26-1.74 0-2.08l.04-.02c.13-.2.66-.38.86-.5l14.06-8.12L46.2 94.64l35.27-20.37 38.34-22.13 36.03-20.8 28.74-16.6 16.37-9.45c1.16-.67 2.52-1.8 3.9-1.12 2.3 1.13 4.32-2.31 2-3.46-2.97-1.48-5.25-.41-7.73 1.02l-6.26 3.6-23.35 13.49-33.57 19.39-38.4 22.17-37.75 21.8L27.7 100.7 7.01 112.65l-4.5 2.6a5 5 0 0 0-1.86 1.6c-.8 1.27-.64 2.78-.64 4.23V126c0 2.13.02 4.05 2.02 5.33 2.12 1.35 4.38 2.53 6.56 3.78l15.02 8.68 37.41 21.6 13.25 7.65 3.22 1.86a6.6 6.6 0 0 0 6.78.17c6.57-3.65 13.03-7.52 19.54-11.28l34.22-19.76 41.53-23.98 42.23-24.38 35.81-20.68 22.38-12.92 2.7-1.56a4.4 4.4 0 0 0 2.45-3.85 81 81 0 0 0-.02-9.14c-.23-3.16-4.3-4.61-6.7-5.98l-32.56-18.58-33.43-19.08-5.56-3.17c-2.24-1.28-4.26 2.18-2.02 3.46" class="d"/><path d="M246.24 52 231 60.8l-28.12 16.24-10.65 6.15-3.02 1.74a5 5 0 0 1-1.79.83 4.7 4.7 0 0 1-2.5-1.03l-4.2-2.42-13.4-7.74-13.2-7.62-4.22-2.44a6 6 0 0 1-1.97-1.36c-1.5-2.22 1.77-3.5 3.24-4.34l9.58-5.53 27.96-16.14c5.88-3.4 11.68-7.04 17.69-10.22a2.4 2.4 0 0 1 2.46.04l2.95 1.7 12.05 6.95c7.37 4.26 14.8 8.46 22.13 12.79 1.4.82 1.76 2.65.24 3.6-2.18 1.37-.17 4.83 2.02 3.46a6.06 6.06 0 0 0 .5-10.03 24 24 0 0 0-2.16-1.3l-11.3-6.53-24.14-13.94a6.5 6.5 0 0 0-6.56-.3q-.67.36-1.31.75l-8.66 5-28.5 16.46c-6.4 3.7-12.84 7.36-19.23 11.1a6.03 6.03 0 0 0 .1 10.79l9.16 5.29 26.13 15.08q.96.58 1.95 1.12a6.4 6.4 0 0 0 6.4-.21q3.45-1.98 6.89-3.98l27.64-15.97 21.91-12.65 1.18-.68c2.22-1.29.21-4.74-2.02-3.45m-95.17 54.95-16.2 9.36-30.43 17.56-11.95 6.9-3.73 2.16a7 7 0 0 0-1.65.95c.23-.3 1.32.34.76-.1a9 9 0 0 0-1.06-.61l-4.18-2.42-13.88-8.01-15.03-8.68c-2.94-1.7-5.83-3.6-8.87-5.12l-.3-.17-.08-.04c.89.05.31 1.7-.02 1.7.1 0 .26-.16.34-.2a27 27 0 0 0 2.46-1.41l10.18-5.88L87.5 95.58l20.42-11.8c.05-.02.5-.22.5-.28-.03.43-1.34-.42-.72.12a18 18 0 0 0 2.92 1.69l12.56 7.25 26.33 15.2c.39.22.77.48 1.17.68l.31.17c.57.12-.92-.89-.32-1.35a2 2 0 0 0 0 2.83 2.05 2.05 0 0 0 2.83 0 3.02 3.02 0 0 0-.42-4.89q-.35-.22-.7-.4l-3.74-2.16-13.92-8.04c-8.28-4.78-16.5-9.69-24.86-14.35a3.5 3.5 0 0 0-3.58-.14q-1.1.62-2.18 1.26l-10.2 5.9L63 105.1c-6.75 3.89-13.62 7.62-20.26 11.69-2.05 1.26-2.45 3.93-.28 5.38.7.46 1.48.85 2.2 1.27l12.17 7.02 27.54 15.9a14 14 0 0 0 2.18 1.19c1.37.48 2.39-.11 3.5-.75l8.4-4.86 30.15-17.4 23.27-13.43 1.22-.71c2.23-1.3.22-4.75-2.02-3.46" class="d"/><path d="m61.24 120.88 16.13-9.31 25.57-14.76 5.88-3.4c2.23-1.3.22-4.75-2.02-3.46l-16.13 9.31-25.57 14.77-5.88 3.4c-2.23 1.29-.22 4.75 2.02 3.46Zm65.92-12.37c-.09 3.08-4.61 4.63-7.23 5.16-4.08.83-8.95.41-12.5-1.91a4.6 4.6 0 0 1-2.28-3.04 3.8 3.8 0 0 1 1.48-2.84c3-2.67 7.82-3.14 11.64-2.77 2.94.28 8.79 1.81 8.89 5.4.07 2.57 4.07 2.58 4 0-.14-5.17-5.51-8.02-9.97-8.97-5.37-1.14-11.88-.64-16.41 2.72a8.3 8.3 0 0 0-3.52 5.23 7.2 7.2 0 0 0 2.13 6.1c3.85 3.98 10.45 4.9 15.7 4.24 5.04-.64 11.9-3.3 12.07-9.32.07-2.57-3.93-2.57-4 0m145.52-57.93-5.17 2.98-13.99 8.07-20.76 11.99-25.23 14.57-27.63 15.95-28 16.17-26.01 15.02-22.06 12.73-15.8 9.13c-2.5 1.44-5.04 2.83-7.5 4.33l-.33.19c-2.23 1.28-.22 4.74 2.02 3.45l5.16-2.98 13.99-8.08 20.76-11.98 25.24-14.57L175 111.59l28-16.16 26-15.02 22.06-12.74 15.8-9.12c2.5-1.44 5.04-2.84 7.5-4.33l.33-.2c2.23-1.28.22-4.74-2.02-3.45Z" class="d"/><path d="m81.48 161.7-23.22-13.4-37.03-21.38L12.7 122c-2.23-1.29-4.25 2.17-2.02 3.45l23.22 13.4 37.03 21.39 8.53 4.92c2.24 1.3 4.25-2.16 2.02-3.45m18.32-37.4c-.09 3.08-4.62 4.64-7.23 5.16-4.08.83-8.95.41-12.5-1.9a4.6 4.6 0 0 1-2.28-3.05 3.8 3.8 0 0 1 1.48-2.84c3-2.67 7.82-3.14 11.64-2.77 2.94.28 8.79 1.81 8.89 5.4.07 2.58 4.07 2.59 4 0-.15-5.16-5.51-8.01-9.98-8.96-5.36-1.15-11.87-.64-16.4 2.72a8.3 8.3 0 0 0-3.52 5.22 7.2 7.2 0 0 0 2.13 6.1c3.85 3.99 10.45 4.9 15.7 4.24 5.03-.63 11.9-3.3 12.07-9.31.08-2.58-3.92-2.57-4 0" class="d"/><path d="M181.04 30.89V6.23c0-2.1-2.93-3.79-6.56-3.79s-6.56 1.7-6.56 3.79v24.66c0 2.1 2.94 3.79 6.56 3.79s6.56-1.7 6.56-3.8" class="a"/><path d="M179.04 6.23v23.76a6 6 0 0 1 0 .9 2 2 0 0 1-.62.77 6 6 0 0 1-2.47.91 7.5 7.5 0 0 1-5.37-.9c-.54-.38-.64-.55-.66-1.02-.2-4 0-8.08 0-12.1V6.24c0-2.57-4-2.58-4 0 0 8.15-.23 16.33 0 24.47.1 3.57 3.51 5.38 6.68 5.83 3.77.53 10.06-.63 10.43-5.4.1-1.17.01-2.38.01-3.55V6.23c0-2.57-4-2.58-4 0" class="d"/><path d="M169.92 6.23c0-.38-.04.13-.04.14s.04-.25.06-.25l.04-.12-.1.23L170 6l.15-.23c-.05.07-.28.29-.04.07l.22-.21c.24-.26-.17.09.02-.03s.37-.25.56-.36l.32-.16c.04-.03.38-.18.17-.1-.2.1.1-.02.11-.03l.36-.12a10 10 0 0 1 .98-.25l.4-.07.11-.01a12 12 0 0 1 2.11-.01c.1 0 .49.06.21.02a10 10 0 0 1 1.57.38l.36.13c-.08-.03-.31-.16.03.01q.35.18.68.38l.27.19c.23.14-.19-.23-.03-.02.04.05.49.5.3.28s.1.19.15.25c.18.28-.02-.04-.04-.11.02.07.13.3.1.38 0-.02-.06-.52-.04-.15.02.31.04-.14.04-.14.09.14-.33.65 0 .14l-.24.41c-.12.22.25-.22.04-.07l-.26.26c-.22.25-.03.04.04 0l-.26.18-.6.34-.32.15c.08-.03.33-.11-.04.01q-.42.15-.84.26a5 5 0 0 1-1.34.22 12 12 0 0 1-1.89-.02c-.04 0-.4-.06-.1-.01a11 11 0 0 1-1.39-.32l-.36-.13c-.35-.1.06.05-.13-.04a7 7 0 0 1-.69-.37l-.28-.18c-.4-.26.22.25-.08-.08l-.22-.21c-.26-.23.08.19 0 .01l-.11-.17c-.14-.23-.07-.35-.03 0 0-.08-.06-.17-.07-.25-.08-.4.02.45 0 .02a2 2 0 0 0-4 0c.1 3.04 2.99 4.86 5.68 5.46 2.96.66 6.57.4 9.1-1.42a5.3 5.3 0 0 0 2.27-3.25 4.6 4.6 0 0 0-1.3-4.01c-2.08-2.23-5.71-2.84-8.6-2.49-3.14.38-7.04 2.03-7.14 5.7a2 2 0 0 0 2 2 2.04 2.04 0 0 0 2-2" class="d"/><path d="M189.64 18.18v-.5a2.1 2.1 0 0 0-1.05-1.82l-6-3.47a2.1 2.1 0 0 0-2.11 0l-2.45 1.42a2.1 2.1 0 0 0-1.06 1.82v.5a2.1 2.1 0 0 0 1.06 1.83l6 3.47a2.1 2.1 0 0 0 2.1 0l2.45-1.41a2.1 2.1 0 0 0 1.06-1.84" class="a"/><path d="M191.64 18.18a5 5 0 0 0-.6-2.64 6 6 0 0 0-2.29-1.9l-4.5-2.6a5 5 0 0 0-3-.9 5 5 0 0 0-2.15.76 18 18 0 0 0-2.78 1.72 4.6 4.6 0 0 0 .2 6.7 17 17 0 0 0 1.94 1.2c1.56.9 3.11 1.96 4.75 2.73a4.3 4.3 0 0 0 3.96-.1q.64-.35 1.26-.73.6-.32 1.17-.67a4.3 4.3 0 0 0 2.05-3.56 2 2 0 0 0-2-2 2.04 2.04 0 0 0-2 2v.2q.03-.35-.06 0l.05-.15q-.18.3-.02.03c.24-.24-.04.02-.13.08l-1.02.59-1.13.65-.2.11c.13-.06.2.01-.1.03q.31-.03-.05-.01.3.04-.06-.05c.2.16-.06-.06-.14-.1l-.9-.53-2.39-1.38-2.1-1.21-.35-.2c-.39-.24-.06-.06-.03-.03l.08.12q-.17-.3-.06 0l-.05-.18v-.54c.1-.4-.17.14.1-.18-.08.1-.38.3-.04.1l.15-.08 1.19-.69q.5-.26.97-.56c.06-.04.2-.2.04-.05l.19-.06q-.3.03.06.02c-.33-.16.26.17-.06 0 1.42.73 2.78 1.6 4.15 2.4l1.85 1.07c.35.2.04 0-.04-.1q.16.31.05.01.08.35.05 0a5 5 0 0 1 0 .7 2 2 0 1 0 4 0Z" class="d"/></svg>
