<svg xmlns="http://www.w3.org/2000/svg" fill="currentColor" viewBox="0 0 32 32"><path d="M14.96 6.82h-2.13V5.6a4.35 4.35 0 0 0-8.7 0v1.22H2a.76.76 0 0 0-.75.75V30c0 .41.34.75.75.75h12.96c.41 0 .75-.34.75-.75V7.57a.76.76 0 0 0-.75-.75M5.63 5.6a2.86 2.86 0 0 1 5.7 0v1.22h-5.7zm8.58 23.65H2.75V8.32h11.46z"/><path d="M6.29 10.02H4.14c-.41 0-.75.34-.75.75s.34.75.75.75h2.15c.41 0 .75-.34.75-.75s-.34-.75-.75-.75m3.63.75c0 .41.34.75.75.75h2.15c.41 0 .75-.34.75-.75s-.34-.75-.75-.75h-2.15a.76.76 0 0 0-.75.75m-3.63 2.46H4.14c-.41 0-.75.34-.75.75s.34.75.75.75h2.15c.41 0 .75-.34.75-.75s-.34-.75-.75-.75m6.53 0h-2.15c-.41 0-.75.34-.75.75s.34.75.75.75h2.15c.41 0 .75-.34.75-.75s-.34-.75-.75-.75m-6.53 3.2H4.14c-.41 0-.75.34-.75.75s.34.75.75.75h2.15c.41 0 .75-.34.75-.75s-.34-.75-.75-.75m6.53 0h-2.15c-.41 0-.75.34-.75.75s.34.75.75.75h2.15c.41 0 .75-.34.75-.75s-.34-.75-.75-.75m-6.53 3.21H4.14c-.41 0-.75.34-.75.75s.34.75.75.75h2.15c.41 0 .75-.34.75-.75s-.34-.75-.75-.75m6.53 0h-2.15c-.41 0-.75.34-.75.75s.34.75.75.75h2.15c.41 0 .75-.34.75-.75s-.34-.75-.75-.75m-6.53 3.2H4.14c-.41 0-.75.34-.75.75s.34.75.75.75h2.15c.41 0 .75-.34.75-.75s-.34-.75-.75-.75m6.53 0h-2.15c-.41 0-.75.34-.75.75s.34.75.75.75h2.15c.41 0 .75-.34.75-.75s-.34-.75-.75-.75m-6.53 3.21H4.14c-.41 0-.75.34-.75.75s.34.75.75.75h2.15c.41 0 .75-.34.75-.75s-.34-.75-.75-.75m6.53 0h-2.15c-.41 0-.75.34-.75.75s.34.75.75.75h2.15c.41 0 .75-.34.75-.75s-.34-.75-.75-.75m17.9-.21-.04-.14v-.02l-1.97-4.01a.75.75 0 0 0-.95-.37l-10.04 4-.18.12-.07.04-.06.09-.1.15-.02.11-.03.17v4c0 .41.34.75.75.75h12.01c.41 0 .75-.34.75-.75v-4.01l-.03-.15Zm-1.92-.58h-6.9l5.77-2.31zm.45 3.99H18.74v-2.5h10.51z"/><circle cx="21.25" cy="28" r=".61"/><circle cx="26" cy="28" r=".61"/><circle cx="26.71" cy="24.34" r=".61"/></svg>
