<svg xmlns="http://www.w3.org/2000/svg" fill="currentColor" viewBox="0 0 32 32"><path d="M17.6 1.25H6.53a.76.76 0 0 0-.75.75v28c0 .41.34.75.75.75H8.5c.41 0 .75-.34.75-.75a2.84 2.84 0 0 1 5.68 0c0 .41.34.75.75.75h1.92c.41 0 .75-.34.75-.75V2a.76.76 0 0 0-.75-.75m-.75 28h-.48a4.35 4.35 0 0 0-8.56 0h-.54V2.75h9.58zm3.66-28a.76.76 0 0 0-.75.75v27.99c0 .41.34.75.75.75h2.7c.41 0 .75-.34.75-.75V18.93c.5-1.32 4.06-11.13 1.06-15.52q-1.47-2.15-4.51-2.15Zm.75 27.99v-9.7h1.2v9.7zm1.43-11.2h-1.43V2.79q1.69.2 2.52 1.45c2.13 3.13.07 10.6-1.1 13.79Z"/><path d="M8.59 4.75h2.22c.41 0 .75-.34.75-.75s-.34-.75-.75-.75H8.59c-.41 0-.75.34-.75.75s.34.75.75.75m4.56 0h2.22c.41 0 .75-.34.75-.75s-.34-.75-.75-.75h-2.22c-.41 0-.75.34-.75.75s.34.75.75.75M8.59 7.88h2.22c.41 0 .75-.34.75-.75s-.34-.75-.75-.75H8.59c-.41 0-.75.34-.75.75s.34.75.75.75m4.56 0h2.22c.41 0 .75-.34.75-.75s-.34-.75-.75-.75h-2.22c-.41 0-.75.34-.75.75s.34.75.75.75m-4.56 3.13h2.22c.41 0 .75-.34.75-.75s-.34-.75-.75-.75H8.59c-.41 0-.75.34-.75.75s.34.75.75.75m4.56 0h2.22c.41 0 .75-.34.75-.75s-.34-.75-.75-.75h-2.22c-.41 0-.75.34-.75.75s.34.75.75.75m-4.56 3.12h2.22c.41 0 .75-.34.75-.75s-.34-.75-.75-.75H8.59c-.41 0-.75.34-.75.75s.34.75.75.75m4.56 0h2.22c.41 0 .75-.34.75-.75s-.34-.75-.75-.75h-2.22c-.41 0-.75.34-.75.75s.34.75.75.75m-4.56 3.13h2.22c.41 0 .75-.34.75-.75s-.34-.75-.75-.75H8.59c-.41 0-.75.34-.75.75s.34.75.75.75m4.56 0h2.22c.41 0 .75-.34.75-.75s-.34-.75-.75-.75h-2.22c-.41 0-.75.34-.75.75s.34.75.75.75m-4.56 3.12h2.22c.41 0 .75-.34.75-.75s-.34-.75-.75-.75H8.59c-.41 0-.75.34-.75.75s.34.75.75.75m4.56 0h2.22c.41 0 .75-.34.75-.75s-.34-.75-.75-.75h-2.22c-.41 0-.75.34-.75.75s.34.75.75.75m-4.56 3.13h2.22c.41 0 .75-.34.75-.75s-.34-.75-.75-.75H8.59c-.41 0-.75.34-.75.75s.34.75.75.75m4.56 0h2.22c.41 0 .75-.34.75-.75s-.34-.75-.75-.75h-2.22c-.41 0-.75.34-.75.75s.34.75.75.75"/></svg>
