<svg viewBox="0 0 20 20" fill="none" xmlns="http://www.w3.org/2000/svg"><path d="M10.7151 0.799805C10.7306 0.820277 10.8196 1.15741 10.8318 1.20714C10.925 1.58773 10.9765 1.79407 11.2434 2.04931C11.3349 1.96356 11.4219 1.85174 11.5055 1.75035C11.9477 1.21414 12.7816 1.3819 13.1942 1.88127C13.3202 2.03374 13.4393 2.19964 13.4383 2.42359C13.1712 2.36508 12.7357 2.13566 12.4953 2.15229C12.1201 2.17825 11.8638 2.50419 11.6399 2.82047C11.6875 2.87859 11.722 2.92496 11.7658 2.98745C12.0577 2.7606 12.2241 2.6479 12.5807 2.60545C13.0221 2.55289 13.2584 2.73758 13.5883 3.07026C13.83 3.31386 14.0335 3.62638 14.054 4.01984C13.829 3.94073 13.4655 3.79703 13.2532 3.68699C13.0498 3.5815 12.8288 3.42087 12.6163 3.31283C12.4655 3.35382 12.4422 3.37111 12.3568 3.51885C12.5205 3.67968 12.6904 3.8682 12.8475 4.03505C13.2016 4.41131 13.4961 4.72822 13.6052 5.30592C13.6297 5.43599 13.6409 5.52495 13.6535 5.65326C13.6856 5.97937 13.666 6.03198 13.5293 6.29747C13.4052 6.11933 13.1741 5.82411 13.0431 5.65363C12.7837 5.31595 12.3419 4.6466 11.973 4.49655L11.8009 4.57583C11.8029 4.64662 11.8028 4.72128 11.8037 4.79245L12.191 5.30016C12.3885 5.55781 12.5918 5.8075 12.7353 6.11331C12.8329 6.32133 12.8347 6.47439 12.7841 6.70155C12.719 6.99399 12.6036 7.19379 12.3786 7.33253C12.1779 6.85696 12.028 6.04365 11.5277 5.89092C11.4433 5.92024 11.3457 5.96108 11.2614 5.99399C11.3564 6.19398 11.5463 6.75671 11.6231 6.98078C11.665 7.10308 11.6442 7.72167 11.6434 7.90166C11.5466 7.90389 11.4496 7.90391 11.3528 7.90176C11.2821 7.78093 11.1247 7.57286 11.0372 7.44889C10.8333 7.15792 10.6274 6.86881 10.4197 6.58155C10.431 6.82358 10.4262 7.12356 10.4262 7.36767L10.4255 12.5489C10.7819 12.5613 11.1583 12.5514 11.5174 12.5557C11.0968 13.0906 10.4584 13.707 9.94547 14.1404C9.6568 13.8456 9.36162 13.4863 9.06862 13.1767C8.89645 13.0014 8.72211 12.8117 8.55321 12.6313L9.62752 12.6281C9.62163 11.7211 9.63228 10.7922 9.63756 9.88452L9.65111 6.75721C9.54941 6.85077 9.42225 6.99998 9.32417 7.10702C9.05247 7.40359 8.84123 7.62982 8.62649 7.9874C8.5346 7.99188 8.43163 7.98835 8.33891 7.98758C8.34289 7.82953 8.33222 7.28198 8.34476 7.17867C8.37318 6.94452 8.63222 6.34508 8.72797 6.10462C8.64119 6.06207 8.57954 6.03212 8.48841 6.00069C8.3837 6.03319 8.3101 6.07164 8.22252 6.15083C7.94528 6.40151 7.71983 7.02163 7.67065 7.43137C7.61745 7.40087 7.56637 7.36539 7.51789 7.32526C7.36671 7.19958 7.22048 6.99046 7.19664 6.77012C7.11491 6.01506 7.86135 5.45166 8.17223 4.92641L8.18142 4.91069L8.18164 4.64973C8.12622 4.62741 8.06896 4.59268 8.00916 4.60225C7.61639 4.66509 6.72679 6.0287 6.47917 6.42069C6.44599 6.38363 6.41124 6.34219 6.38053 6.3023C6.26767 6.15568 6.31144 5.89306 6.32502 5.70344C6.35553 5.27721 6.52979 4.81996 6.7797 4.51148C6.87845 4.38962 7.03659 4.23824 7.15015 4.12385C7.3166 3.95438 7.48454 3.78701 7.65395 3.62174C7.53299 3.48242 7.53859 3.47486 7.38193 3.3827C7.18376 3.48861 6.95192 3.65414 6.76051 3.75708C6.57896 3.85472 6.1222 4.05303 5.93492 4.09832C5.95513 3.89551 6.00034 3.68551 6.10049 3.52478C6.41661 3.01743 6.79 2.61035 7.35564 2.66968C7.80484 2.71679 7.82753 2.80253 8.18091 3.07174C8.23769 3.01482 8.2899 2.95731 8.34434 2.89747C8.21445 2.70901 8.10478 2.50164 7.9325 2.36348C7.60175 2.09822 7.31378 2.26614 6.96095 2.38342C6.82699 2.42785 6.69239 2.46948 6.55719 2.50829C6.55622 2.48567 6.55563 2.46305 6.55542 2.44041C6.55454 2.26653 6.70492 2.08926 6.79726 1.96993C7.20987 1.43672 7.97885 1.2848 8.45335 1.78278C8.53808 1.87168 8.62951 2.01045 8.71278 2.11119C9.13556 1.75901 9.03478 1.41394 9.23726 0.859449C9.64935 1.00513 9.69084 1.34085 9.82297 1.75568C9.86445 1.88626 9.94453 2.01426 10.0176 2.12342C10.2669 1.62432 10.1673 1.02141 10.7151 0.799805Z" fill="currentColor"/><path d="M4.2167 11.7111C4.29332 11.6992 4.41614 11.7023 4.49568 11.7C4.958 11.6875 5.32668 11.8255 5.76424 11.952C6.64926 12.1997 7.49824 12.6514 8.18398 13.3728C8.60791 13.8306 9.01099 14.3174 9.42401 14.7897C9.67729 15.0793 9.77785 15.1856 10.0994 15.3708C10.3689 15.2402 10.7566 14.66 10.9677 14.3974C11.1503 14.1663 11.3412 13.9449 11.54 13.7336C12.0399 13.2149 12.6059 12.7942 13.2171 12.4874C13.6929 12.245 13.9331 12.1837 14.4092 12.0424C15.2051 11.8062 15.8959 11.7532 16.6828 12.0771C16.902 12.1675 17.1164 12.2741 17.3337 12.3777C17.0997 12.4361 16.9331 12.4514 16.6968 12.469C14.3239 12.6454 12.3107 14.1399 10.6773 16.1592C11.0797 16.6172 11.4001 17.07 11.8965 17.399C11.8675 17.1537 11.8116 16.8971 11.7821 16.6554C11.7454 16.2741 11.8885 16.325 12.1141 16.2935C12.5694 16.23 12.5807 16.6836 12.404 17.0394C12.3132 17.2221 12.2325 17.2409 12.1819 17.4744C12.3555 17.7249 12.4399 17.827 12.6653 18.0263C12.8498 17.9537 12.9769 17.8105 13.1238 17.6747C13.4002 17.4082 13.9696 17.3624 14.1783 17.7685C14.4469 18.2907 14.2615 18.5887 13.8955 18.8862C13.7193 19.0322 13.5251 19.1464 13.3106 19.1836C12.5787 19.3107 12.1674 18.6624 11.6381 18.1918C11.5149 18.4984 11.3387 19.0163 10.9945 18.9661C10.8013 18.9379 10.5237 18.729 10.5527 18.4628C10.5791 18.2202 10.9018 18.2243 11.046 18.1611C11.1446 18.121 11.1857 18.0994 11.2736 18.0246L11.2675 18.016C11.0807 17.7614 10.8658 17.6026 10.6399 17.4022C10.3797 17.1713 10.1761 16.9617 9.88918 16.7815C9.52158 17.0618 9.00799 17.5325 8.71771 17.9212C8.78174 17.9798 8.80868 17.9965 8.88104 18.0357C9.02154 18.1119 9.49437 18.1433 9.42008 18.4372C9.35138 18.7091 9.01492 18.9006 8.79519 18.8181C8.56064 18.7301 8.44026 18.3046 8.33729 18.0595C7.79629 18.5777 7.34936 19.2425 6.56861 19.0413C6.10975 18.9233 5.59151 18.5017 5.72973 17.8696C5.81586 17.4755 6.01031 17.334 6.3358 17.34C6.83779 17.2912 6.97907 17.8005 7.33417 17.8972C7.45693 17.8357 7.61705 17.6835 7.69981 17.5572C8.02906 17.0916 7.49908 17.0539 7.47683 16.6835C7.45241 16.2772 7.73349 16.1093 8.03411 16.1654C8.3194 16.2188 8.22317 16.5779 8.20463 16.8154C8.19331 16.9674 8.18616 17.1198 8.18319 17.2722C8.24559 17.2118 8.3086 17.1514 8.37225 17.0929C8.72163 16.7714 9.04233 16.4105 9.37321 16.0622C9.27916 15.9723 9.07927 15.7239 8.98233 15.6126C8.74732 15.342 8.50407 15.0819 8.25303 14.8326C7.76746 14.3562 7.28742 13.9374 6.73641 13.5695C5.50603 12.748 4.06026 12.3968 2.66699 12.2272C3.18311 11.9774 3.66072 11.7754 4.2167 11.7111Z" fill="currentColor"/></svg>
