<svg xmlns="http://www.w3.org/2000/svg" fill="none" viewBox="0 0 24 24"><path fill="currentColor" fill-rule="evenodd" d="M3.3 3.3a1 1 0 0 0 0 1.4l1 1a1 1 0 0 0 1.4-1.4l-1-1a1 1 0 0 0-1.4 0m16 0a1 1 0 1 1 1.4 1.4l-1 1a1 1 0 1 1-1.4-1.4zm.4 11 1 1a1 1 0 0 1-1.4 1.4l-1-1a1 1 0 0 1 1.4-1.4M3.3 16.7a1 1 0 0 1 0-1.4l1-1a1 1 0 0 1 1.4 1.4l-1 1a1 1 0 0 1-1.4 0M20.4 11a1 1 0 1 0 0-2H20a1 1 0 0 0 0 2zM2 10.2a1 1 0 0 0 1 1h.41a1 1 0 1 0 0-2H3a1 1 0 0 0-1 1m13.44 4.72a6 6 0 1 0-6.88 0q-.54.66-.56 1.58a2.5 2.5 0 0 0 2 2.45V19a1 1 0 0 0 1 1h2a1 1 0 0 0 1-1.05 2.5 2.5 0 0 0 1.44-4.03M12 14a4 4 0 1 0 0-8 4 4 0 0 0 0 8m0 2h-1.5a.5.5 0 0 0 0 1h3a.5.5 0 0 0 0-1z" clip-rule="evenodd"/></svg>
