<svg xmlns="http://www.w3.org/2000/svg" viewBox="0 0 24 24"><path d="M8 15H3.5A2.5 2.5 0 0 1 1 12.5v-9A2.5 2.5 0 0 1 3.5 1h9A2.5 2.5 0 0 1 15 3.5V8h-1V3.5A1.5 1.5 0 0 0 12.5 2h-9A1.5 1.5 0 0 0 2 3.5v9A1.5 1.5 0 0 0 3.5 14H8zm-.04-4.81a10 10 0 0 1-3.76 1.8L3.95 11a9 9 0 0 0 3.29-1.53A9.3 9.3 0 0 1 4.89 5H4V4h3.28l-.55-.54.71-.71L8.7 4H12v1h-.91a10 10 0 0 1-1.31 3.15 4 4 0 0 0-1.82 2.04M8 8.8A8 8 0 0 0 10.06 5H5.92A8 8 0 0 0 8 8.8m15 11.65v-8.9A2.53 2.53 0 0 0 20.48 9h-8.93A2.56 2.56 0 0 0 9 11.55v8.9A2.56 2.56 0 0 0 11.55 23h8.9A2.56 2.56 0 0 0 23 20.45M20.48 10A1.5 1.5 0 0 1 22 11.52v8.96A1.5 1.5 0 0 1 20.48 22h-8.96A1.5 1.5 0 0 1 10 20.48v-8.96A1.5 1.5 0 0 1 11.52 10zm-2.08 8h-4.8l-1.16 2.23-.88-.46L16 11.22l4.44 8.55-.88.46zm-.52-1L16 13.39 14.12 17z"/></svg>
