<svg xmlns="http://www.w3.org/2000/svg" x="0" y="0" viewBox="0 0 473.68 473.68"><path d="M41.71 102.64A236 236 0 0 0 7.8 176.45h107.74zm128.8-93.16A236 236 0 0 0 95.7 46.65l74.81 74.81zm-69.25 421.5a236 236 0 0 0 69.25 33.21V361.74zm-90.75-124.2a236 236 0 0 0 35.17 69.82l69.83-69.83z" style="fill:#29337a"/><path d="M45.62 97.14a242 242 0 0 0-3.9 5.5l73.8 73.82H7.8a237 237 0 0 0-4.34 20.28h141.77zm50.15 329.93q2.71 2 5.49 3.91l69.25-69.24v102.45a231 231 0 0 0 20.28 4.97V332.05zM5.25 286.5a235 235 0 0 0 5.26 20.28h105L45.68 376.6a238 238 0 0 0 25.16 29.12L190.08 286.5zM170.51 9.48v111.98L95.7 46.66a238 238 0 0 0-28.9 25.4l124 123.98V4.5a238 238 0 0 0-20.29 4.97" style="fill:#fff"/><path d="m170.51 306.06-.71.71h.71zm19.57-19.57h.71v-.72zm91.15-89.75h-.69v.69zm-110.02-20.28-.7-.7v.7zm19.59 19.58v.7h.7z" style="fill:#d32030"/><path d="M300.83 411.76v53.1a236 236 0 0 0 70.2-32.9l-57.52-57.53c-4.6 16.15-6.28 24.5-12.69 37.33m12.98-303.29 62.8-62.8a236 236 0 0 0-75.79-36.85v54.54c7.39 14.79 8.01 26.02 13 45.11m113.22 269.51a236 236 0 0 0 36.15-71.2H355.82zm38.86-201.52a236 236 0 0 0-34.9-75.2l-75.2 75.2z" style="fill:#252f6c"/><path d="m327.64 290.5 16.27 16.27 77.9 77.9q2.67-3.29 5.22-6.68l-71.21-71.21h107.36a236 236 0 0 0 5.25-20.29H329.16c-.23 2.88-1.25 1.15-1.52 4.01m-16.29-170.15 70.6-70.62a246 246 0 0 0-5.34-4.06l-62.8 62.8c.65 2.48-3.06 9.34-2.46 11.88m-10.53-61.36V8.81a236 236 0 0 0-20.28-4.72v24.47c7.55 8.18 14.31 18.46 20.28 30.43m25.22 137.75h144.2a236 236 0 0 0-4.35-20.29H355.8l75.2-75.19a238 238 0 0 0-24.58-29.7l-84.7 84.7a416 416 0 0 1 4.33 40.48M310.1 371l60.95 60.96a238 238 0 0 0 28.6-23.19l-80.18-80.17c-2.56 14.82-5.6 29.14-9.37 42.4m-29.54 71.3v27.28a234 234 0 0 0 20.28-4.73v-53.09c-5.98 11.98-12.74 22.37-20.28 30.54" style="fill:#e7e7e7"/><path d="m321.7 156.26 84.7-84.7a237 237 0 0 0-24.44-21.83L315.4 116.3c2.95 12.37 4.3 26.52 6.3 39.97" style="fill:#d71f28"/><path d="M236.84 473.68c14.94 0 29.53-1.45 43.7-4.1V442.3c-12.44 13.49-27 31.38-43.7 31.38" style="fill:#d32030"/><path d="M470.23 196.74H327.91a636 636 0 0 1-.68 89.75h141.2a238 238 0 0 0 5.25-49.65c0-13.68-1.22-27.06-3.45-40.1m-142.6 93.76c-1.3 14-5.9 24.9-8.17 38.1l80.17 80.17a239 239 0 0 0 22.18-24.1l-77.9-77.9z" style="fill:#d71f28"/><path d="M280.55 30.32V4.1A238 238 0 0 0 236.84 0c16.7 0 31.26 16.84 43.7 30.32" style="fill:#d32030"/><path d="M300.83 422c6.4-12.83 11.9-27.6 16.5-43.75l-16.5-16.5zm18.55-319.1c-5-19.08-11.17-36.43-18.55-51.22v69.77z" style="fill:#29337a"/><path d="M332.23 295.1q.4-4.3.75-8.61h-9.35zm-31.4-173.65V51.67c-5.98-11.97-12.74-22.25-20.29-30.42v129.9l40.74-40.73q-.94-3.81-1.9-7.52zm-19.6 75.29h52.43a572 572 0 0 0-4.95-47.49zm-.69 255.7c7.55-8.19 14.31-18.47 20.29-30.44v-60.25l16.5 16.5a409 409 0 0 0 9.52-42.26l-46.3-46.3z" style="fill:#fff"/><path d="M280.55 452.43V289.68l46.3 46.3c2.28-13.2 4.07-26.9 5.38-40.89l-8.6-8.6h9.34c2.34-29.5 2.57-60.05.68-89.75h-52.42l47.48-47.49c-2-13.45-4.48-26.46-7.44-38.83l-40.72 40.73V21.25C268.1 7.76 253.55 0 236.84 0q-5.91 0-11.82.3a238 238 0 0 0-34.23 4.2v191.54L66.81 72.06a239 239 0 0 0-21.2 25.08l79.32 79.32 20.3 20.28H3.44A239 239 0 0 0 0 236.84a238 238 0 0 0 5.25 49.65h184.83L70.85 405.72a239 239 0 0 0 24.92 21.35l95.02-95.02v137.12a239 239 0 0 0 46.04 4.51c16.72 0 31.27-7.76 43.72-21.25" style="fill:#e51d35"/></svg>
