<svg xmlns="http://www.w3.org/2000/svg" fill="none" viewBox="0 0 24 24"><path fill="currentColor" fill-rule="evenodd" d="M8.95 2.25h6.1c1.37 0 2.47 0 3.34.12.9.12 1.66.38 2.26.98s.86 1.36.98 2.26c.12.87.12 1.97.12 3.34v5.1q.02 1.35-.08 2.24c-.08.63-.27 1.2-.73 1.65-.45.46-1.02.65-1.65.73q-.89.1-2.24.08H6.95q-1.35.02-2.24-.08a2.7 2.7 0 0 1-1.65-.73 2.7 2.7 0 0 1-.73-1.65c-.08-.59-.08-1.34-.08-2.24v-5.1c0-1.37 0-2.47.12-3.34.12-.9.38-1.66.98-2.26s1.36-.86 2.26-.98c.87-.12 1.97-.12 3.34-.12M5.8 3.85c-.74.1-1.12.28-1.4.56s-.46.66-.56 1.4c-.1.75-.1 1.75-.1 3.19v5c0 .96 0 1.61.07 2.1.06.46.17.65.3.78s.32.24.79.3c.48.07 1.13.07 2.09.07h10c.96 0 1.61 0 2.1-.07.46-.06.65-.17.78-.3s.24-.32.3-.79c.07-.48.07-1.13.07-2.09V9c0-1.44 0-2.44-.1-3.2-.1-.73-.28-1.11-.56-1.4-.28-.27-.66-.45-1.4-.55-.75-.1-1.75-.1-3.19-.1H9c-1.44 0-2.44 0-3.2.1M8.25 15c0-.41.34-.75.75-.75h6a.75.75 0 0 1 0 1.5H9a.75.75 0 0 1-.75-.75m-7 6c0-.41.34-.75.75-.75h20a.75.75 0 0 1 0 1.5H2a.75.75 0 0 1-.75-.75" clip-rule="evenodd"/></svg>
