<svg xmlns="http://www.w3.org/2000/svg" fill="currentColor" style="fill-rule:evenodd;clip-rule:evenodd;stroke-linejoin:round;stroke-miterlimit:2" viewBox="0 0 1069 1069"><path id="Fan" d="M.31 1.59h1066.67v1066.67H.31z" style="fill:none"/><path d="M533.65 87C286.44 87 85.73 287.72 85.73 534.93s200.7 447.92 447.92 447.92c247.2 0 447.91-200.7 447.91-447.92 0-247.2-200.7-447.91-447.91-447.91M189.9 951.6v-84a31.26 31.26 0 0 0-62.5 0v83.99a31.26 31.26 0 0 0 62.5 0m750 0V867.6a31.26 31.26 0 0 0-62.5 0v83.99a31.26 31.26 0 0 0 62.5 0M533.65 149.5c212.71 0 385.41 172.7 385.41 385.41s-172.7 385.42-385.41 385.42-385.42-172.7-385.42-385.42c0-212.71 172.7-385.41 385.42-385.41"/><path d="M460.02 558.99a108 108 0 0 1-43.14 9.02h-.05a107.7 107.7 0 0 1-85.8-42.6 31.25 31.25 0 0 0-51.1 1.85 170 170 0 0 0-27.53 92.83v.06a170.2 170.2 0 0 0 170.2 170.2h.06a170.2 170.2 0 0 0 170.21-170.2v-.06a170 170 0 0 0-2.87-31.12 108 108 0 0 1 29.02 32.58l.03.05a107.7 107.7 0 0 1 6.01 95.6 31.25 31.25 0 0 0 27.15 43.32 170 170 0 0 0 94.16-22.56l.05-.03a170.2 170.2 0 0 0 62.27-232.56 170.2 170.2 0 0 0-232.51-62.3l-.05.02a171 171 0 0 0-26.3 18.73 108 108 0 0 1 13.85-42.64l.03-.05a107.7 107.7 0 0 1 79.79-53 31.25 31.25 0 0 0 23.94-45.17 170 170 0 0 0-66.62-70.27q-.02 0-.05-.03a170.2 170.2 0 0 0-232.51 62.3l-.03.05a170.2 170.2 0 0 0 62.3 232.51l.05.03c9.43 5.45 19.3 9.94 29.44 13.44m66.25 31.7c2.7 9.48 4.1 19.37 4.1 29.4v.06a107.7 107.7 0 0 1-107.7 107.7h-.06a107.7 107.7 0 0 1-107.71-107.7v-.06c0-7.39.76-14.7 2.25-21.83a170 170 0 0 0 99.67 32.25h.06a170.2 170.2 0 0 0 109.4-39.82m168.81 102.1a170 170 0 0 0-21.9-102.44l-.03-.05a170 170 0 0 0-89.18-74.82 107 107 0 0 1 23.41-18.26q.02 0 .05-.03a107.7 107.7 0 0 1 147.14 39.43l.02.05a107.7 107.7 0 0 1-39.42 147.13l-.05.03c-6.4 3.7-13.12 6.7-20.04 8.97M587.35 317.7a170 170 0 0 0-77.77 70.19l-.02.05a170 170 0 0 0-20.21 114.64 107 107 0 0 1-27.52-11.14l-.05-.03a107.7 107.7 0 0 1-39.42-147.14l.03-.05a107.7 107.7 0 0 1 147.13-39.42q.02 0 .05.03c6.4 3.7 12.36 8 17.78 12.87" style="fill-opacity:.5"/></svg>
