<svg xmlns="http://www.w3.org/2000/svg" fill="none" viewBox="0 0 24 24"><path fill="currentColor" fill-rule="evenodd" d="M9.45 3.25h5.1c1.37 0 2.47 0 3.34.12.9.12 1.66.38 2.26.98s.86 1.36.98 2.26c.12.87.12 1.97.12 3.34v4.32c.85.12 1.5.85 1.5 1.73v1A3.75 3.75 0 0 1 19 20.75H5A3.75 3.75 0 0 1 1.25 17v-1c0-.88.65-1.61 1.5-1.73V9.95c0-1.37 0-2.47.12-3.34.12-.9.38-1.66.98-2.26s1.36-.86 2.26-.98c.87-.12 1.97-.12 3.34-.12M3 15.75a.25.25 0 0 0-.25.25v1c0 1.24 1 2.25 2.25 2.25h14c1.24 0 2.25-1 2.25-2.25v-1a.25.25 0 0 0-.25-.25h-4.33q-.42 0-.75.25l-.94.7a2.7 2.7 0 0 1-1.65.55h-2.66c-.6 0-1.18-.2-1.65-.55l-.94-.7a1.3 1.3 0 0 0-.75-.25zm16.75-1.5h-3.08c-.6 0-1.18.2-1.65.55l-.94.7q-.33.25-.75.25h-2.66q-.42 0-.75-.25l-.94-.7a3 3 0 0 0-1.65-.55H4.25V10c0-1.44 0-2.44.1-3.2.1-.73.28-1.11.56-1.4.28-.27.66-.45 1.4-.55.75-.1 1.75-.1 3.19-.1h5c1.44 0 2.44 0 3.2.1.73.1 1.11.28 1.4.56.27.28.45.66.55 1.4.1.75.1 1.75.1 3.19z" clip-rule="evenodd"/></svg>
