<svg xmlns="http://www.w3.org/2000/svg" viewBox="-52.56 0 360.887 360.887"><defs><style>.a{fill:#fff}.d{fill:#211715}</style></defs><path d="M185.58 82.95a7.6 7.6 0 0 1 5.5-2.01 7.1 7.1 0 0 1 6.34 3.52c2.16 3.74 2.07 10.62.62 14.88-1.02 3.02-2.7 7.63-6.74 10.94a8.4 8.4 0 0 1-6.47 1.87l-.62-.1a49 49 0 0 1-2.22 6.04c-1.75 4.73-11.85 22.03-24.32 27.2v6.9c-5.93 4.67-17.65 13.9-18.79 14.7h-3.46c-1.12-.8-12.42-9.68-18.44-14.43v-6.94c-6.06-2.41-11.4-6.73-16.45-12.77a58 58 0 0 1-10.98-20.71 8.2 8.2 0 0 1-7-1.76c-4.04-3.3-5.72-7.92-6.74-10.94-1.45-4.26-1.54-11.14.61-14.88a7.1 7.1 0 0 1 6.35-3.52 7.6 7.6 0 0 1 5.5 2.01s-8.8-49.14 48.66-49.14 48.65 49.14 48.65 49.14" class="a"/><path d="M129.62 250.32c-2.45-6.7-4.35-12.61-7.52-22.32a791 791 0 0 1-19.04-69.28c-2.3 1.47-5.2 3.5-8.13 5.82l-2.25.88-7.52 2.96c-18.25 7.66-35.41 15.6-43.8 28.39l-29.12 33.42a1056 1056 0 0 0 2.3 34.34c.6 7.24 1.22 14.5 2.2 21.7A81 81 0 0 0 20.3 303c2.9 8.87 9.38 17.5 18.76 20.1 9.37 2.6 22.36 1.3 29.1-7.67l.1 9.42h95.42c1.47 4 2.98 8.08 4.41 11.86a355 355 0 0 1 3.7 10.06 1.7 1.7 0 0 0 2 1.06 335 335 0 0 0 37.94-13.03c8.18-3.36 18.83-8.56 26.16-14.4 6.2-4.93 11.46-12.7 13.06-17.79 2.05-6.5 2.76-11.76 2.3-22.2-1.92-15.54-3.89-28.31-6.3-39.47-3.55-16.42-8.02-35.08-14.01-44.19-8.4-12.78-25.56-20.73-43.8-28.38l-7.53-2.96-2.25-.88a106 106 0 0 0-8.13-5.82A783 783 0 0 1 152.2 228c-5.34 16.4-7.1 21.97-13.94 38.84h-2.2a471 471 0 0 1-6.43-16.52" style="fill:#7a7473"/><path d="M75.15 51.1c-.14 1.2-.25 2.3-.32 3.2-.9 10.85 1.59 19.5 4.93 27.24a9 9 0 0 1 3-.6 7.6 7.6 0 0 1 5.5 2l2.4 2.3.08-1a81 81 0 0 1 1.64-11.15c.86-4.07 1.95-8.29 5.63-11.67l7.97-5.6c2.12-.12 4.6-.44 6.28-.38 15.2.5 30.67-2.38 42.44-7.9l9.36 5.45a63 63 0 0 1 14.58 18.31c1.2 2.25 3.95 9.9 5.91 12.94a7.3 7.3 0 0 1 6.53-3.3 9 9 0 0 1 3.13.64c3.82-20 4.62-32.1-3.11-47.7a47 47 0 0 0-5.72-8.43 38 38 0 0 0-14.37-9.88L160.48 11C149.93.7 130.87.7 117.74 5.56c-12.31 4.55-18.97 10.98-26.95 16.99a26 26 0 0 1-9.62 4.85l-3 10.67c-1.45 2.56-2.48 8.56-3.02 13.03" style="fill:#85807f"/><path d="M127.93 123.98a20 20 0 0 0 9.5 2.2 15.5 15.5 0 0 0 9.59-2.82 2.4 2.4 0 0 0 0-3.4 2.46 2.46 0 0 0-3.4 0c.73-.56.15-.11-.04 0l-.59.35c-.16.08-.88.37-.24.13q-.4.16-.81.3a14 14 0 0 1-2.28.52c.35-.05-.11.01-.24.02a19 19 0 0 1-2.29.1q-.72 0-1.45-.05l-.66-.05c-.01 0-.8-.11-.35-.04a16 16 0 0 1-2.13-.47l-.88-.3-.28-.11c.48.32.25.11.05.02l-1.08-.54a2.45 2.45 0 0 0-3.28.86 2.43 2.43 0 0 0 .86 3.28m8.32-22.45a45 45 0 0 1 1.06 4.83l-.09-.64a3 3 0 0 1 .02.66l.09-.63-.08.3.25-.58-.11.2.38-.49-.16.15.48-.37-.38.2.57-.24a3 3 0 0 1-.64.19l.64-.09a3 3 0 0 1-.6 0l.64.09-.68-.12a2.7 2.7 0 0 0-1.85.24 2.4 2.4 0 0 0-.86 3.28 2.3 2.3 0 0 0 1.43 1.1c.51.07 1.01.2 1.53.23a5 5 0 0 0 2.25-.54 3.2 3.2 0 0 0 1.8-2.13 5 5 0 0 0-.03-2.3q-.4-2.33-1.02-4.62a2.4 2.4 0 0 0-4.63 1.28ZM110.57 87.9c-.8 2.61-.28 8.64 4.68 9.15 6.56-.04 6.9-7.32 4.7-10.75-1.81-2.8-7.12-3.97-9.38 1.6m52.7 0c.81 2.61.29 8.64-4.67 9.15-6.56-.04-6.9-7.32-4.7-10.75 1.8-2.8 7.12-3.97 9.38 1.6m-73.31-6.64a10.7 10.7 0 0 0-11.78-1.62 10.4 10.4 0 0 0-5.2 7.16 27.2 27.2 0 0 0 4.04 20.86c2.92 4.36 7.17 7.56 12.64 6.82a2.4 2.4 0 0 0 1.67-2.96 2.47 2.47 0 0 0-2.95-1.67c-3.83.52-6.8-3.58-8.35-6.5a23.5 23.5 0 0 1-2.8-9.22 20 20 0 0 1 .23-5.38 11 11 0 0 1 1.36-3.6c-.15.2.33-.36.39-.42a2 2 0 0 1 .5-.45 5 5 0 0 1 2.08-.84 5.6 5.6 0 0 1 4.77 1.21c2.29 2.07 5.7-1.31 3.4-3.39m97.32 3.4a5.6 5.6 0 0 1 7.81.57c-.33-.41.13.22.18.3a7 7 0 0 1 .5.96 12 12 0 0 1 .62 2.26 20 20 0 0 1 .24 5.38 23.5 23.5 0 0 1-2.74 9.06c-1.55 2.97-4.53 7.19-8.42 6.66a2.5 2.5 0 0 0-2.96 1.67 2.4 2.4 0 0 0 1.68 2.96c8.84 1.2 13.97-7.5 16.26-14.78a25.5 25.5 0 0 0 .7-11.53 11.6 11.6 0 0 0-4.37-7.87 10.56 10.56 0 0 0-12.9.96c-2.3 2.08 1.1 5.47 3.4 3.4" class="d"/><path d="M182.81 107.84a47 47 0 0 1-1.81 6.28 53 53 0 0 1-.8 2.12l-.53 1.2c-.04.1-.26.68-.1.3.16-.42-.1.23-.14.3l-.28.6q-.37.77-.77 1.52a61 61 0 0 1-1.92 3.35A61 61 0 0 1 163.4 139a24 24 0 0 1-9.7 5.03c-3 .7-1.74 5.33 1.28 4.63 7.35-1.7 13.47-7.06 18.28-12.64a67 67 0 0 0 10.28-15.48q.38-.85.73-1.72c-.32.76.4-.93.43-.98q.3-.71.57-1.44a48 48 0 0 0 2.18-7.3 2.46 2.46 0 0 0-1.68-2.95 2.4 2.4 0 0 0-2.95 1.68Zm-96.54 1.1a61 61 0 0 0 8.62 20.26c4.4 6.59 10.16 12.75 17.14 16.62a34 34 0 0 0 11.5 3.92 2.5 2.5 0 0 0 2.95-1.68 2.4 2.4 0 0 0-1.67-2.95c-14.45-2.13-25.26-14.66-30.74-27.5a58 58 0 0 1-3.17-9.95c-.69-3-5.32-1.73-4.63 1.28m84.1-91.06a36 36 0 0 1 18.27 16.47 50.5 50.5 0 0 1 5.99 23.51 92 92 0 0 1-1.31 15.02 2.5 2.5 0 0 0 1.68 2.95 2.4 2.4 0 0 0 2.95-1.68c1.47-9.3 2.25-18.72.16-28-1.98-8.82-6.17-17.75-12.68-24.15a42 42 0 0 0-13.78-8.75 2.4 2.4 0 0 0-2.95 1.68 2.46 2.46 0 0 0 1.68 2.95Zm-8.2-8.6C153.7 1.15 141.03-.93 129.7.37a58 58 0 0 0-17.74 5 80 80 0 0 0-15.63 9.86c-2.46 1.9-4.87 3.88-7.38 5.71a27 27 0 0 1-8.42 4.15c-2.94.9-1.68 5.54 1.28 4.63a31 31 0 0 0 7.85-3.44c2.35-1.52 4.53-3.32 6.73-5.05a102 102 0 0 1 13.92-9.67c9.86-5.4 21.46-8.08 32.66-6.2 5.83.98 11.5 3.18 15.8 7.33 2.23 2.14 5.63-1.25 3.4-3.4ZM76.12 36.86c-1.56 2.84-2.14 6.23-2.67 9.39a83 83 0 0 0-1.16 10.38 58 58 0 0 0 4.62 24.25 2.5 2.5 0 0 0 2.95 1.67 2.4 2.4 0 0 0 1.68-2.95 55 55 0 0 1-4.46-22.5 71 71 0 0 1 1-9.57c.46-2.73 1.02-6.1 2.19-8.24 1.48-2.72-2.67-5.14-4.15-2.43m77.38 8.6a84 84 0 0 1-22.9 6.57 100 100 0 0 1-12.57 1.04c-2.08.05-4.17-.04-6.25-.03-1.94 0-3.86.27-5.79.39-3.07.19-3.09 4.99 0 4.8 1.98-.13 3.97-.4 5.96-.4 2.1.01 4.2.09 6.31.04a110 110 0 0 0 13.61-1.21 88 88 0 0 0 24.05-7.05 2.4 2.4 0 0 0 .86-3.28 2.46 2.46 0 0 0-3.28-.86ZM96.3 59.73c-3.44 3.25-5.11 7.53-6.1 12.06a102 102 0 0 0-1.86 12.46 2.4 2.4 0 0 0 2.4 2.4 2.45 2.45 0 0 0 2.4-2.4 90 90 0 0 1 1.62-10.85c.83-3.87 1.98-7.49 4.94-10.27 2.25-2.12-1.15-5.51-3.4-3.4m66.05-5.04A63 63 0 0 1 174.55 69c2.79 4.55 4.42 9.57 6.75 14.34a2.4 2.4 0 0 0 3.28.86 2.45 2.45 0 0 0 .86-3.28c-2.39-4.9-4.07-10.03-6.96-14.69a67 67 0 0 0-12.74-14.94c-2.31-2.03-5.72 1.35-3.4 3.4Z" class="d"/><path d="M138.25 266.84c6.83-16.86 8.6-22.43 13.94-38.84a794 794 0 0 0 17.75-63.66 7.3 7.3 0 0 0-1.64-5.97c-2.22-2.57-5.02-6.3-7.29-8.84-.96.78-20.64 16.3-22.13 17.36h-3.47a2468 2468 0 0 1-22.13-17.36c-2.27 2.54-5.07 6.27-7.3 8.84a7.3 7.3 0 0 0-1.63 5.97A794 794 0 0 0 122.1 228c5.35 16.4 7.1 21.97 13.94 38.84Z" class="a"/><path d="M144.19 251.64a517 517 0 0 1-5.94 15.2h-2.2c-6.3-15.53-8.29-21.48-12.73-35.13 2.15-18.48 5-40.46 5-41.1a15 15 0 0 0-.52-3.46q-.2-.78-.36-1.55c-.57-2.57-.68-3.88-1.34-6.6l-.04-.13c3.18-4.28 7.02-9.36 9.36-11.99h3.46c2.32 2.61 6.12 7.62 9.27 11.88l-.3.83a34 34 0 0 0-1.62 5.28 22 22 0 0 0-1.28 6.11c-.02 1.09 2.98 21.93 5.76 41.53a482 482 0 0 1-6.52 19.13" style="fill:#3d8dcc"/><path d="M121.23 266.36c-12.27-21.28-24.4-42.66-35.73-64.47-.76-1.46-1.61-2.92-2.28-4.43-.29-.63-.29-.51.2-1.06q.88-.97 1.81-1.9c2.5-2.59 5.11-5.07 7.74-7.53a2.42 2.42 0 0 0-.5-3.77l-4.86-2.77-2.32-1.33-1.27-.72-.42-.24q-.53-.34.08.07l.33 1.2-.06.13a10 10 0 0 1 .52-.95q.4-.68.86-1.34a27 27 0 0 1 1.92-2.4 61 61 0 0 1 5.53-5.42 97 97 0 0 1 11.5-8.64l-3.53-1.44q5.32 23.57 12.1 46.77c4 13.71 8.3 27.37 13.03 40.86 2.42 6.9 5.1 13.71 7.85 20.5a2.5 2.5 0 0 0 2.95 1.67 2.4 2.4 0 0 0 1.68-2.95 541 541 0 0 1-12.9-35.63 837 837 0 0 1-13.63-46.12q-3.45-13.12-6.45-26.37a2.42 2.42 0 0 0-3.53-1.44 92 92 0 0 0-16.82 13.54 42 42 0 0 0-3.48 4.15 12 12 0 0 0-2.27 4.11c-.62 2.78 2.06 3.93 4.02 5.04l6.76 3.87-.48-3.77c-2.45 2.3-4.88 4.6-7.23 7-2.3 2.35-5.2 4.83-3.68 8.43 1.21 2.86 2.84 5.6 4.28 8.34q2.26 4.31 4.56 8.6 9.17 17.08 18.76 33.92 5.37 9.47 10.82 18.9c1.54 2.68 5.7.26 4.15-2.42Zm87.42 14.53q.25-23.77.6-47.54.07-4.86.17-9.72c.07-3.09-4.73-3.09-4.8 0-.3 14.27-.45 28.55-.61 42.82l-.16 14.44c-.03 3.09 4.77 3.1 4.8 0m-79.57-89.88c5.12 0 10.25-.11 15.38-.11a2.4 2.4 0 0 0 0-4.8c-5.13 0-10.25.1-15.38.1a2.4 2.4 0 1 0 0 4.8" class="d"/><path d="M123.79 179.64c.48 2.04.8 4.11 1.23 6.16a20 20 0 0 1 .9 4.9c-.07 1.45-.34 2.91-.52 4.35q-1.35 10.77-2.67 21.54-.93 7.6-1.82 15.19a2.4 2.4 0 0 0 2.4 2.4 2.46 2.46 0 0 0 2.4-2.4q1.53-13.11 3.18-26.2c.6-4.9 1.5-9.84 1.81-14.76a19 19 0 0 0-.83-5.27c-.53-2.38-.89-4.8-1.46-7.18-.71-3-5.34-1.73-4.62 1.28Zm29.1 51.28-3.6-25.43q-.68-4.77-1.33-9.53c-.03-.17-.1-.8-.1-.69l-.08-.6-.18-1.39q-.13-.94-.22-1.89a12 12 0 0 1 .59-3.94 46 46 0 0 1 1.96-6.64 2.47 2.47 0 0 0-.86-3.29 2.4 2.4 0 0 0-3.29.86 50 50 0 0 0-2 6.28 21 21 0 0 0-1.23 6.36 39 39 0 0 0 .48 3.99q1.44 10.7 2.99 21.39l2.24 15.8a2.4 2.4 0 0 0 2.95 1.68 2.46 2.46 0 0 0 1.68-2.96" class="d"/><path d="M157.2 268.78c12.84-22.26 25.54-44.63 37.3-67.49.88-1.72 1.93-3.44 1.46-5.46-.4-1.73-1.83-2.99-3.01-4.21a216 216 0 0 0-8.24-8.04l-.48 3.77 6.77-3.86c1.95-1.12 4.64-2.27 4.01-5.04a12 12 0 0 0-2.26-4.12 42 42 0 0 0-3.48-4.15 92 92 0 0 0-16.83-13.53 2.42 2.42 0 0 0-3.52 1.43q-5.32 23.57-12.11 46.76c-4 13.72-8.3 27.38-13.03 40.86a456 456 0 0 1-7.84 20.5 2.4 2.4 0 0 0 1.67 2.96 2.46 2.46 0 0 0 2.95-1.68 541 541 0 0 0 12.9-35.63 839 839 0 0 0 13.63-46.12q3.46-13.13 6.45-26.38l-3.52 1.44a97 97 0 0 1 11.5 8.64 61 61 0 0 1 5.41 5.3 27 27 0 0 1 2.03 2.52 20 20 0 0 1 1.2 1.93l.12.24q.24.47 0 0l.33-1.22q.56-.36.2-.14l-.55.31-1.27.73-2.32 1.32-4.87 2.78a2.42 2.42 0 0 0-.48 3.77 253 253 0 0 1 6.9 6.66l1.67 1.72c.37.4 1.1.9 1.3 1.4.26.66-.96 2.35-1.36 3.13q-4.18 8.1-8.51 16.13-8.8 16.35-18.02 32.47-5.09 8.96-10.24 17.88c-1.55 2.68 2.6 5.1 4.14 2.42" class="d"/><path d="M159.31 151.23c1.32 1.48 2.56 3.03 3.8 4.57 1.16 1.44 2.44 2.82 3.52 4.3a6 6 0 0 1 .94 2.05 4 4 0 0 1 .12.81c0 .16-.14 1.03.04.55a10 10 0 0 1-.84 1.44 106 106 0 0 1-8.85 12.57 51 51 0 0 1-3.27 3.62q-.75.75-1.54 1.43a8 8 0 0 1-1.26.94l3.29.86c-4.82-6.43-9.36-13.15-14.68-19.18l-.5 3.77c2.8-2 5.47-4.22 8.17-6.34q5.74-4.5 11.46-9.01l3-2.38a2.4 2.4 0 0 0 0-3.4 2.46 2.46 0 0 0-3.4 0c-6.2 5-12.5 9.88-18.78 14.78l-1.15.9-.5.39c-.31.24.39-.3-.07.05q-.56.45-1.14.87a2.45 2.45 0 0 0-.49 3.77c5.06 5.72 9.36 12.1 13.93 18.2a2.45 2.45 0 0 0 3.29.87c5.16-3.38 9-8.96 12.47-13.94q2.19-3.1 4.17-6.34a14 14 0 0 0 .99-1.78 8.2 8.2 0 0 0-.41-6.35c-.94-2.15-2.71-3.86-4.17-5.67-1.56-1.93-3.1-3.88-4.74-5.74-2.06-2.32-5.44 1.08-3.4 3.39" class="d"/><path d="M111.58 147.84c-1.46 1.64-2.83 3.36-4.2 5.07-1.3 1.62-2.81 3.18-3.96 4.9a8.5 8.5 0 0 0-.51 8.99 111 111 0 0 0 9.75 13.87 34 34 0 0 0 7.24 6.99 2.46 2.46 0 0 0 3.28-.87c4.58-6.1 8.88-12.49 13.93-18.2a2.45 2.45 0 0 0-.48-3.78l-.9-.68-.35-.26c-.3-.23.41.32-.02-.02l-1-.78q-2.62-2.03-5.23-4.08-5.62-4.41-11.22-8.84l-2.93-2.31a2.47 2.47 0 0 0-3.4 0 2.4 2.4 0 0 0 0 3.39c6.28 5.06 12.66 10 19.01 14.95 1.2.93 2.38 1.9 3.61 2.78l-.48-3.77c-5.33 6.03-9.87 12.75-14.68 19.18l3.28-.86-.63-.43c-.2-.15 0 0 .03.03a24 24 0 0 1-1.8-1.59q-1.52-1.46-2.87-3.06a88 88 0 0 1-5.23-6.8 128 128 0 0 1-5.11-7.88l-.14-.24c.11.27.04.05.04-.22a5 5 0 0 1 .36-1.99c.73-1.81 2.46-3.35 3.67-4.85 1.42-1.77 2.83-3.55 4.34-5.25 2.04-2.3-1.34-5.71-3.4-3.4" class="d"/><path d="M114.57 147.24v3.83a2.5 2.5 0 0 0 .7 1.7 2.4 2.4 0 0 0 3.4 0 2.5 2.5 0 0 0 .7-1.7v-3.83a2.5 2.5 0 0 0-.7-1.7 2.4 2.4 0 0 0-3.4 0 2.5 2.5 0 0 0-.7 1.7m40.69-.23v3.96a2.5 2.5 0 0 0 .7 1.7 2.4 2.4 0 0 0 3.4 0 2.5 2.5 0 0 0 .7-1.7v-.22a2.5 2.5 0 0 0-.7-1.7 2.4 2.4 0 0 0-3.4 0 2.5 2.5 0 0 0-.7 1.7v.22a2.5 2.5 0 0 0 .7 1.7 2.4 2.4 0 0 0 3.4 0 2.5 2.5 0 0 0 .7-1.7V147a2.5 2.5 0 0 0-.7-1.7 2.4 2.4 0 0 0-3.4 0 2.5 2.5 0 0 0-.7 1.7m100.2 129.9a231 231 0 0 0-4.8-31.55c-2.29-10.6-4.58-21.22-7.84-31.58-2.8-8.86-6.2-17.58-12.75-24.38-6.98-7.25-16.03-12.29-25.02-16.59a342 342 0 0 0-22.8-9.7 2.4 2.4 0 0 0-2.96 1.68 2.46 2.46 0 0 0 1.68 2.95 366 366 0 0 1 17.78 7.42c8.92 4.05 18 8.57 25.35 15.16a39 39 0 0 1 8 9.69 71 71 0 0 1 5.15 12.14c3.43 10.16 5.77 20.66 8.05 31.14a243 243 0 0 1 5.36 33.63 2.46 2.46 0 0 0 2.4 2.4 2.4 2.4 0 0 0 2.4-2.4Z" class="d"/><path d="M178.08 194.3a5.26 5.26 0 0 0-5.36 5.33 5.17 5.17 0 0 0 5.36 5.42 5.12 5.12 0 0 0 5.36-5.42 5.25 5.25 0 0 0-5.36-5.33" style="fill:#febe69"/><path d="M178.08 191.9a7.8 7.8 0 0 0-7.42 5.43 7.9 7.9 0 0 0 2.55 8.48 8.2 8.2 0 0 0 8.93.6 7.9 7.9 0 0 0 3.56-8.2 7.7 7.7 0 0 0-7.62-6.31 2.4 2.4 0 1 0 0 4.8l.47.02c.53 0-.56-.13-.04-.01q.35.07.7.18l.27.1-.31-.14.25.13c.24.12.46.33.7.44-.48-.21-.27-.22-.07-.03l.2.19a2 2 0 0 0 .27.3c-.33-.2-.26-.38-.09-.11l.38.64c.1.18.02.28-.08-.2.04.18.13.35.18.52.06.22.07.47.15.68-.19-.51-.03-.4-.03-.14l.01.36a4 4 0 0 0-.04.73l.05-.36a6 6 0 0 1-.26 1.06l-.04.12q-.14.36.09-.2l-.31.56q-.1.12-.18.26c-.15.26.41-.47.1-.14-.16.17-.4.34-.54.52.33-.41.32-.23.08-.07l-.22.13q-.16.1-.34.18c-.4.22.46-.13.16-.06l-.71.22-.28.06.22-.03-.3.03h-.73l-.43-.03c.04 0 .6.12.22.02q-.38-.07-.73-.18-.15-.07-.32-.12c.64.15.26.1.04-.01s-.4-.27-.6-.39c.49.27.32.27.19.14l-.28-.27-.21-.24c-.23-.2.34.52.1.13l-.4-.67c-.24-.43.18.55.03.08l-.1-.26a5 5 0 0 0-.19-.82c.03.04.06.62.04.2l-.03-.44v-.37l.01-.21-.03.22c.09-.25.1-.55.18-.81l.14-.39c-.03.25-.2.45-.01.08.12-.23.32-.45.43-.69-.23.5-.2.27-.03.07l.29-.29c.2-.18.41-.18-.07.03l.34-.23a5 5 0 0 1 .61-.33l-.3.13a4 4 0 0 0 .82-.25l.15-.03q.39-.06-.2.02a2 2 0 0 0 .63-.03 2.4 2.4 0 1 0 0-4.8m-134.66 6.08c4.7-7.06 11.82-12.12 19.08-16.26a185 185 0 0 1 23.96-11.29l6.86-2.7A2.47 2.47 0 0 0 95 164.8a2.4 2.4 0 0 0-2.95-1.68 410 410 0 0 0-17.16 7.1c-8.97 4-17.85 8.44-25.57 14.58a47 47 0 0 0-10.04 10.76c-1.7 2.58 2.45 5 4.15 2.43Zm20.96 25.65c.31 13.2.5 26.4.7 39.62q.33 22.52.6 45.05.1 8.28.17 16.56c.03 3.08 4.83 3.1 4.8 0q-.16-17.45-.4-34.88-.3-23.19-.68-46.38a3024 3024 0 0 0-.38-19.97c-.08-3.09-4.88-3.1-4.8 0Z" class="d"/><path d="M9.84 230.19q.73 14.62 1.9 29.2c.82 10.41 1.68 20.82 3.19 31.15 1.23 8.42 3.49 17.15 8.63 24.07a30 30 0 0 0 9.2 8.44 29 29 0 0 0 11.6 3.46c8.83.93 18.6-1.46 24.65-8.31 2.03-2.31-1.35-5.72-3.4-3.4-4.82 5.46-12.16 7.39-19.23 7.06a25 25 0 0 1-9.9-2.27 25 25 0 0 1-8.55-7.1c-4.9-6.31-7.01-14.4-8.22-22.17-1.49-9.61-2.25-19.32-3.02-29.02q-1.24-15.54-2.05-31.11c-.16-3.08-4.96-3.1-4.8 0" class="d"/><path d="M59.96 195.24c-.78 5.44-4.88 11.9-6.88 14.61a23 23 0 0 1-2.6 3.03c-2.05 1.96-1.77 4.6-2.16 7.6-.21 1.64-.04 3.12-.14 4.3-5.76 2.03-21.79 3.47-29.24 4.22-1.1-3.35-5.53-13.03-6.06-13.55-4.62-4.56-9.9-15.73-10.43-26.5l.2-3.98c.07-1.43 1.2-5.41 4.09-6.16a5.6 5.6 0 0 1 5.96 2.3l.75-3.54a6.4 6.4 0 0 1 5.17-4.47c2.41-.38 3.36 1.15 4.58 2.79 0-2.06.85-4.46 2.73-5.45 2.88-1.52 8.54-1.57 8.45 4.93-1.54-11.07-3.24-24.59-3.28-27.6a7.2 7.2 0 0 1 6.04-6.79c3.35-.4 6.85 4.52 7.24 6.7a445 445 0 0 1 4.38 30.48c1.93.47 3.76 1 5.82 1.56a7.8 7.8 0 0 1 4 3.24c1.9 4.16 2.56 7.84 1.38 12.28" class="a"/><path d="M51.04 177.18c-.97-8.41-2.08-16.8-3.48-25.16a39 39 0 0 0-1.02-5.56 13 13 0 0 0-2.45-4.19c-2.5-3.06-6.07-4.62-9.84-2.9a9.6 9.6 0 0 0-5.54 8.62c.04 1.66.25 3.33.43 4.99.62 5.79 1.37 11.57 2.15 17.34.8 6.07 1.62 12.14 2.6 18.18a2.4 2.4 0 0 0 2.95 1.68 2.46 2.46 0 0 0 1.67-2.96 709 709 0 0 1-4.82-36.72c-.14-1.43-.44-3.02.17-4.35a5 5 0 0 1 2.9-2.64 1.6 1.6 0 0 1 1.37-.02 6 6 0 0 1 1.24.8 10 10 0 0 1 2.46 3.24c.12.26.02.05 0 0l.1.3q.13.45.2.9.28 1.5.53 3.01c1.45 8.45 2.6 16.93 3.58 25.44a2.47 2.47 0 0 0 2.4 2.4 2.4 2.4 0 0 0 2.4-2.4m-36.28 2.7a7.7 7.7 0 0 0-4.5-3.13 8.3 8.3 0 0 0-5.34.65 9.3 9.3 0 0 0-4.54 6.55 22 22 0 0 0 .71 9.21 13 13 0 0 0 2.29 5.08 7.3 7.3 0 0 0 4.01 2.34c3.7.72 7.19-1.64 8.8-4.87a2.46 2.46 0 0 0-.85-3.28 2.4 2.4 0 0 0-3.29.86 10 10 0 0 1-.69 1.2c.23-.33-.14.16-.24.26-.08.08-.57.49-.3.29a9 9 0 0 1-1.44.85c.36-.17-.09 0-.24.04-.04.02-.38.05-.1.03s-.18-.01-.23-.01l-.33-.02c.43.04.06 0-.03-.02l-.66-.2c.34.14-.16-.12-.26-.17l-.14-.08c.16.12-.18-.15-.21-.18-.1-.09-.42-.46-.36-.38s-.2-.35-.26-.46a15 15 0 0 1-.66-1.92 20 20 0 0 1-.88-6.63l.02-.7c0-.4.07-.33-.03.03.1-.38.16-.77.29-1.14.05-.17.21-.55.05-.18q.13-.3.28-.57a7 7 0 0 1 .53-.85c.22-.3-.21.22.05-.05l.3-.33c.04-.03.37-.32.2-.19-.08.07.38-.24.52-.31l-.03.01.48-.14a2 2 0 0 1 .62-.1 2.5 2.5 0 0 1 1.38.2 3 3 0 0 1 .93.73 2.5 2.5 0 0 0 3.29.86 2.4 2.4 0 0 0 .86-3.28" class="d"/><path d="M25.27 174.68a10 10 0 0 0-3.54-3.5 7.1 7.1 0 0 0-5.96.33 9 9 0 0 0-3.76 3.37 12 12 0 0 0-1.34 5 33 33 0 0 0 .84 11.72 14 14 0 0 0 1.5 3.93 8 8 0 0 0 4.94 3.36c3.88.82 9.04-1.86 9.58-6.03a2.4 2.4 0 0 0-2.4-2.4 2.46 2.46 0 0 0-2.4 2.4c.11-.86.17-.51-.09-.2a5 5 0 0 1-.66.6 9 9 0 0 1-1.3.78 3.1 3.1 0 0 1-3.42-.83 3 3 0 0 1-.5-.9q-.34-.9-.58-1.84a26 26 0 0 1-.77-4.4 31 31 0 0 1 0-5.55 18 18 0 0 1 .4-2.49l.1-.31a6 6 0 0 1 .46-.73c-.17.22.28-.3.32-.34a4.2 4.2 0 0 1 2.3-1.19 1 1 0 0 1 .99.25 8 8 0 0 1 1.15 1.4 2.47 2.47 0 0 0 3.28.85 2.4 2.4 0 0 0 .86-3.28" class="d"/><path d="M34.88 169.51c-2.46-2.77-6.67-2.8-9.82-1.3-3.2 1.52-4.56 5.42-4.2 8.77a136 136 0 0 0 1.8 11.18c.34 1.66.52 3.31 1.74 4.58a9 9 0 0 0 4.65 2.44 8 8 0 0 0 6.47-1.6 12 12 0 0 0 2.5-3.51c1.54-2.68-2.6-5.1-4.15-2.42-.28.48-.51.98-.8 1.45-.05.08-.54.76-.26.43-.06.07-.64.6-.4.43a3.4 3.4 0 0 1-3.38.22 5 5 0 0 1-1.03-.62q.2.13-.12-.13-.3-.34-.05-.02-.21-.37.03.12l-.13-.58-.27-1.24a150 150 0 0 1-1.73-10.13 6.6 6.6 0 0 1 .33-3.88 3.5 3.5 0 0 1 5.42-.8c2.06 2.32 5.44-1.09 3.4-3.39" class="d"/><path d="M48.96 189.86c-2.37-.93-5.21-1.81-7.25-3.39a5.5 5.5 0 0 1-1.76-2.79 3.3 3.3 0 0 1 .04-2c.66-1.5 2.45-2.07 4.27-1.96 2.92.17 5.98 1.23 8.78 2.05a6.3 6.3 0 0 1 4.45 4.09 12 12 0 0 1 .57 7.01 43 43 0 0 1-6.4 14.83c-1.65 2.49-4.25 4.29-5.05 7.27-.84 3.17-.64 6.58-.83 9.81l1.77-2.31c-4.3 1.49-9.03 1.97-13.53 2.52-5.01.63-10.04 1.1-15.07 1.61l2.31 1.77a91 91 0 0 0-5.8-13.27 8 8 0 0 0-1.34-1.82 22 22 0 0 1-2.41-3.18 46 46 0 0 1-6.91-22.14c-.09-3.08-4.89-3.1-4.8 0a50 50 0 0 0 6.3 22.43 35 35 0 0 0 2.56 4.01q.71.97 1.5 1.86.26.31.55.6c.32.33.09.34.12.08-.03.19-.19-.4-.1-.12a16 16 0 0 0 1.04 2q.81 1.7 1.59 3.42a77 77 0 0 1 3.07 7.4 2.44 2.44 0 0 0 2.31 1.76c5.15-.52 10.3-1.01 15.43-1.66 4.79-.6 9.86-1.06 14.45-2.65a2.5 2.5 0 0 0 1.76-2.31c.1-1.71.05-3.4.23-5.1a13 13 0 0 1 .67-4.15c.56-1.22 1.88-2.16 2.71-3.22a35 35 0 0 0 2.5-3.6 57 57 0 0 0 4.17-8.56 28 28 0 0 0 2.31-10 15.7 15.7 0 0 0-2.74-8.91c-2.02-2.74-4.72-3.73-7.88-4.6-3.4-.94-7.11-2.13-10.65-1.56a8.2 8.2 0 0 0-6.17 4.42c-1.5 3.26-.42 6.97 1.83 9.6a13 13 0 0 0 4.56 3.04 87 87 0 0 0 5.56 2.35 2.4 2.4 0 0 0 2.95-1.68 2.46 2.46 0 0 0-1.67-2.95" class="d"/><path d="M97.5 285.59c-5.7-12-10.48-22.28-12.77-27.7 5.54-3.26 59.35-31.56 69.91-36.2 9.67 17.75 23.27 45.02 33.74 66.43l.14.3-4.46 1.83-27.28 10.87a1.6 1.6 0 0 0-.92 2.13l1.23 3.42-1.85.64c-2.83-2.91-5.44-3.83-10.27-5.9a63 63 0 0 0-7.1-1.62c-3.1-.51-5.38-1.02-8.5-1.31-4.15-.38-6.55-.8-8.26.88a4.8 4.8 0 0 0-1.33 3.81c.24 5.72 10.3 9.2 14.97 12.6a55 55 0 0 1-13.81 4.08 79 79 0 0 1-8.26-2.73 4461 4461 0 0 1-15.17-31.53" style="fill:#fecb87"/><path d="m167.3 335.77-.22.12a2.3 2.3 0 0 0-1.14 2.39 2 2 0 0 0 .28.9l.38.48a2.4 2.4 0 0 0 1.06.61l.64.09a2.4 2.4 0 0 0 1.2-.33l.23-.12a2.3 2.3 0 0 0 1.14-2.39 2 2 0 0 0-.28-.9l-.38-.48a2.4 2.4 0 0 0-1.06-.61l-.63-.09a2.4 2.4 0 0 0-1.21.33m-52.54-19.85c-8.14-16.77-16.3-33.54-24.06-50.5-1.33-2.9-2.66-5.8-3.9-8.74l-.87 3.28c7.54-4.4 15.4-8.3 23.13-12.36 11.48-6.04 23-12.04 34.58-17.88 4.04-2.04 8.07-4.13 12.22-5.95l-3.29-.86c9.22 16.95 17.84 34.23 26.4 51.51q3.68 7.45 7.33 14.91a2.4 2.4 0 0 0 3.29.86 2.45 2.45 0 0 0 .86-3.28c-8.76-17.9-17.6-35.75-26.82-53.41q-3.4-6.53-6.91-13.01a2.46 2.46 0 0 0-3.29-.86c-9.09 4-17.88 8.8-26.7 13.35q-16.84 8.7-33.58 17.6c-3.22 1.72-6.48 3.39-9.64 5.23a2.5 2.5 0 0 0-.86 3.29c6.26 14.76 13.45 29.16 20.4 43.6q3.77 7.83 7.57 15.64a2.4 2.4 0 0 0 3.28.86 2.45 2.45 0 0 0 .86-3.29Z" class="d"/><path d="M125.31 319.02a68 68 0 0 0 9.44-3.24c-4.67-3.4-14.73-6.88-14.97-12.6a4.8 4.8 0 0 1 1.33-3.81c1.72-1.7 4.11-1.27 8.25-.89 3.13.29 5.41.8 8.51 1.31a63 63 0 0 1 7.1 1.63c4.83 2.06 7.44 2.98 10.27 5.9l1.85-.64c2.7 7.46 7.13 19.83 11 30.04l.48 1.26-.2.16c-10.89 8.68-24.02 17.5-37.65 20.37-1.6.34-6.75-1.1-8.16-2.74-3.87-4.47-5.42-7.87-6.8-13.47-2.13-1.08-3.71-3.66-4.84-5.76a11 11 0 0 1-.51-8.28 22 22 0 0 1-3.2-2.08 5.4 5.4 0 0 1-1.22-6.76c.93-1.61 4.1-3.35 6.42-2.4l.28.11a78 78 0 0 0 8.25 2.73 36 36 0 0 0 4.37-.84" class="a"/><path d="M108.09 327.62a13.6 13.6 0 0 0 .67 9.97c1.31 2.62 3.16 5.34 5.78 6.78l-1.1-1.43a33 33 0 0 0 5.25 11.82 13 13 0 0 0 4.37 4.28 18 18 0 0 0 5.34 1.74 14 14 0 0 0 5.86-.65 63 63 0 0 0 7.13-2.35 80 80 0 0 0 12.79-6.5 147 147 0 0 0 13.61-9.83 2.4 2.4 0 0 0 0-3.4 2.46 2.46 0 0 0-3.4 0c-8.42 6.71-17.47 12.98-27.78 16.38q-2 .66-4.03 1.19-.93.23-1.87.44c-.22.05-1.1.12-.32.1l-.62-.01a6 6 0 0 1-.92-.15q-.68-.15-1.34-.34a11 11 0 0 1-2.64-1.1 8 8 0 0 1-1.69-1.77 25 25 0 0 1-4.6-9.17 11 11 0 0 0-.76-2.53c-.36-.62-.98-.85-1.53-1.26a10 10 0 0 1-2.42-2.95 9.3 9.3 0 0 1-1.15-7.98c.9-2.97-3.74-4.23-4.63-1.28" class="d"/><path d="M156.94 305.62a20 20 0 0 0-5.16-3.8 39 39 0 0 0-6.95-2.95 90 90 0 0 0-15.23-2.77c-2.3-.23-4.73-.65-7.01-.14a6.6 6.6 0 0 0-4.84 4.4c-1.44 4.39 1.3 8.1 4.61 10.63 3.5 2.67 7.62 4.3 11.18 6.86l.58-4.38a60 60 0 0 1-11.9 3.77q-.33.05-.65.12c.02 0-.67.1-.32.1.17 0-.42-.1-.57-.15q-1.1-.3-2.2-.67-2.16-.7-4.28-1.5a8.3 8.3 0 0 0-4.62-.65 9 9 0 0 0-4.58 2.36 7.7 7.7 0 0 0-.78 9.58 14 14 0 0 0 5.05 3.94 32 32 0 0 0 6.15 2.42c2.98.85 4.25-3.78 1.27-4.63a25 25 0 0 1-5.76-2.36c-1.29-.74-2.85-1.52-3.17-3.1a2.6 2.6 0 0 1 1.2-2.88c1.33-.87 2.28-.69 3.67-.15a87 87 0 0 0 6.91 2.3 6.5 6.5 0 0 0 2.88.09 57 57 0 0 0 12.97-3.96 2.44 2.44 0 0 0 .57-4.39c-2.7-1.94-5.77-3.33-8.6-5.09a19 19 0 0 1-3.81-2.93 5 5 0 0 1-1.03-1.4c-.17-.3-.06-.04-.22-.56l-.09-.35c-.05-.24 0 .23-.02-.2a3 3 0 0 1 .4-1.87 1 1 0 0 1 .55-.48 2 2 0 0 1 .85-.26 28 28 0 0 1 5.61.34 88 88 0 0 1 12.91 2.32c3.9 1 8.17 2.88 11.04 5.79 2.17 2.2 5.57-1.2 3.4-3.4Z" class="d"/><path d="M250.65 276.91c.42 7 .71 14.14-.84 20.82a32 32 0 0 1-3.03 8.37 44 44 0 0 1-7.15 9.5c-5.93 6.02-13.83 10.12-21.39 13.71a249 249 0 0 1-25.5 10.11q-5.83 2.02-11.74 3.83-2.52.77-5.06 1.5-1.1.32-2.22.62c-.08.03-.37.06-.43.12l-.14.04a.5.5 0 0 1 .6.16c.46.04.17.34.18-.04a4 4 0 0 0-.3-.86c-2.95-8.32-6.17-16.53-9.19-24.82q-2.01-5.53-4-11.08l-1.57-4.36a6 6 0 0 0-.62-1.72c-.04-.04-.03-.23-.11-.2-.16.02-.13 1.08-.62.8.05.02.4-.17.46-.2 4.89-1.78 9.68-3.85 14.52-5.78q16.18-6.44 32.2-13.25 2.55-1.1 5.1-2.17a2.5 2.5 0 0 0 1.68-2.95 2.4 2.4 0 0 0-2.95-1.67c-11.69 4.9-23 9.7-34.81 14.42l-16.25 6.47c-1.32.53-2.7.95-3.52 2.22-1.1 1.73-.38 3.46.24 5.18l3.7 10.29c3.15 8.7 6.42 17.35 9.63 26.03l1.15 3.16a20 20 0 0 0 1.18 3.13c1.25 2.21 3.6 2.15 5.72 1.56q5.55-1.55 11.02-3.31a330 330 0 0 0 27.43-10.1c8.3-3.5 16.6-7.56 23.84-12.99 6.55-4.91 12.5-11.85 15.23-19.66a57 57 0 0 0 2.66-19.88q-.07-3.5-.3-6.99c-.18-3.07-4.98-3.09-4.8 0Z" class="d"/></svg>
