<svg xmlns="http://www.w3.org/2000/svg" viewBox="-18.44 0 327.257 327.257"><defs><style>.a{fill:#fff}.d{fill:#211715}.e{fill:#3d8dcc}</style></defs><path d="M4.35 111.29C8.72 97.3 20.29 85.93 37.07 82.67c24.72-4.8 45.66 10.9 50.06 33.53 4.47 23.03-6.36 42.42-27.95 49.18l7.72 40-11.55 2.24c-1.02-5.27-5.6-29.09-7.72-40-21.88 1.66-39.9-11.97-44.4-35.1a43 43 0 0 1 1.12-21.23m216.81-28.34a7.6 7.6 0 0 1 5.5-2.01 7.1 7.1 0 0 1 6.34 3.52c2.15 3.74 2.06 10.62.62 14.88-1.03 3.02-2.7 7.63-6.75 10.94a8.4 8.4 0 0 1-6.46 1.87l-.62-.1a50 50 0 0 1-2.23 6.04c-1.74 4.73-11.85 22.03-24.32 27.2v6.89c-5.93 4.68-17.65 13.9-18.79 14.7H171a1773 1773 0 0 1-18.44-14.43v-6.93c-6.06-2.41-11.4-6.73-16.44-12.77a58 58 0 0 1-10.98-20.71 8.2 8.2 0 0 1-7-1.76c-4.05-3.3-5.72-7.92-6.75-10.94-1.45-4.26-1.54-11.14.62-14.88a7.1 7.1 0 0 1 6.34-3.52 7.6 7.6 0 0 1 5.5 2s-5.87-48.4 48.66-48.4c53.24 0 48.66 48.41 48.66 48.41" class="a"/><path d="M171.62 266.84c-6.83-16.86-8.6-22.43-13.94-38.84a791 791 0 0 1-19.04-69.28c-2.3 1.47-5.2 3.5-8.13 5.82l-2.25.88-7.53 2.96c-18.24 7.66-35.4 15.6-43.8 28.39l-28.62 57.05c.8 7.22 2.89 25.88 4.07 33.06a81 81 0 0 0 4.05 16.67c3.15 8.78 9.87 17.22 19.33 19.55 9.12 2.26 21.5.76 28.18-7.6l.07 9.36h183.97c-3.58-48.8-4-58.46-6.63-83.07-1.67-15.75-6.85-35.92-12.83-45.02-8.4-12.78-25.56-20.73-43.8-28.39l-7.53-2.96-2.25-.88a106 106 0 0 0-8.13-5.82A792 792 0 0 1 187.77 228c-5.35 16.4-7.1 21.98-13.94 38.84" style="fill:#7a7473"/><path d="M110.73 51.1c-.14 1.2-.25 2.3-.33 3.2-.88 10.85 1.6 19.5 4.94 27.24a9 9 0 0 1 3-.6 7.6 7.6 0 0 1 5.5 2l2.4 2.3.08-1a81 81 0 0 1 1.64-11.15c.86-4.07 1.94-8.29 5.63-11.67l7.97-5.6c2.12-.12 4.6-.44 6.28-.38 15.2.5 30.67-2.38 42.44-7.9l9.36 5.45a63 63 0 0 1 14.58 18.31c1.2 2.25 3.95 9.9 5.91 12.94a7.3 7.3 0 0 1 6.53-3.3 9 9 0 0 1 3.13.64c3.82-20 4.62-32.1-3.11-47.7a47 47 0 0 0-5.72-8.43 38 38 0 0 0-14.37-9.88L196.06 11C185.5.7 166.44.7 153.32 5.56 141 10.1 134.35 16.54 126.37 22.55a26 26 0 0 1-9.62 4.85l-3 10.67c-1.45 2.56-2.48 8.56-3.02 13.03" style="fill:#85807f"/><path d="M171.83 101.53a45 45 0 0 1 1.06 4.83l-.09-.64a3 3 0 0 1 .02.66l.09-.63-.08.3.24-.58-.1.2.37-.49-.15.15.48-.37-.38.2.57-.24a3 3 0 0 1-.64.19l.64-.09a3 3 0 0 1-.6 0l.64.09-.68-.12a2.7 2.7 0 0 0-1.85.24 2.4 2.4 0 0 0-.87 3.28 2.3 2.3 0 0 0 1.44 1.1c.51.07 1 .2 1.53.23a5 5 0 0 0 2.25-.54 3.2 3.2 0 0 0 1.79-2.13 5 5 0 0 0-.02-2.3q-.4-2.33-1.02-4.62a2.4 2.4 0 0 0-4.63 1.28ZM146.15 87.9c-.8 2.61-.28 8.64 4.68 9.15 6.55-.04 6.9-7.32 4.7-10.75-1.81-2.8-7.12-3.97-9.38 1.6m52.7 0c.81 2.61.29 8.64-4.67 9.15-6.56-.04-6.91-7.32-4.7-10.75 1.8-2.8 7.12-3.97 9.38 1.6m-73.31-6.64a10.7 10.7 0 0 0-11.79-1.62 10.4 10.4 0 0 0-5.2 7.16 27.2 27.2 0 0 0 4.05 20.86c2.93 4.36 7.17 7.56 12.64 6.82a2.4 2.4 0 0 0 1.67-2.96 2.47 2.47 0 0 0-2.95-1.67c-3.83.52-6.8-3.58-8.34-6.5a23.5 23.5 0 0 1-2.82-9.22 20 20 0 0 1 .24-5.38 11 11 0 0 1 1.36-3.6c-.15.2.33-.36.39-.42a2 2 0 0 1 .5-.45 5 5 0 0 1 2.08-.84 5.6 5.6 0 0 1 4.78 1.21c2.28 2.07 5.69-1.31 3.39-3.39m97.32 3.4a5.6 5.6 0 0 1 7.8.57c-.32-.41.13.22.19.3a7 7 0 0 1 .49.96 12 12 0 0 1 .63 2.26 20 20 0 0 1 .23 5.38 23.5 23.5 0 0 1-2.73 9.06c-1.55 2.97-4.53 7.19-8.42 6.66a2.5 2.5 0 0 0-2.96 1.67 2.4 2.4 0 0 0 1.68 2.96c8.84 1.2 13.97-7.5 16.26-14.78a25.5 25.5 0 0 0 .69-11.53 11.6 11.6 0 0 0-4.36-7.87 10.56 10.56 0 0 0-12.9.96c-2.3 2.08 1.1 5.47 3.4 3.4" class="d"/><path d="M218.4 107.84a47 47 0 0 1-1.82 6.28 53 53 0 0 1-.8 2.12l-.53 1.2c-.04.1-.27.68-.1.3.16-.42-.1.23-.15.3l-.27.6q-.37.77-.77 1.52a62 62 0 0 1-1.92 3.35A61 61 0 0 1 198.98 139a24 24 0 0 1-9.7 5.03c-3.02.7-1.74 5.33 1.27 4.63 7.35-1.7 13.47-7.06 18.28-12.64a67 67 0 0 0 10.28-15.48q.38-.85.73-1.72c-.32.76.4-.93.43-.98q.3-.71.57-1.44a48 48 0 0 0 2.18-7.3 2.46 2.46 0 0 0-1.68-2.95 2.4 2.4 0 0 0-2.95 1.68Zm-96.56 1.1a61 61 0 0 0 8.63 20.26c4.4 6.59 10.16 12.75 17.14 16.62a34 34 0 0 0 11.5 3.92 2.5 2.5 0 0 0 2.95-1.68 2.4 2.4 0 0 0-1.67-2.95c-14.45-2.13-25.26-14.66-30.74-27.5a58 58 0 0 1-3.17-9.95c-.69-3-5.32-1.73-4.63 1.28Zm84.11-91.06a36 36 0 0 1 18.27 16.47 50.5 50.5 0 0 1 5.99 23.51 92 92 0 0 1-1.31 15.02 2.5 2.5 0 0 0 1.68 2.95 2.4 2.4 0 0 0 2.95-1.68c1.46-9.3 2.24-18.72.16-28C231.7 37.33 227.52 28.4 221 22a42 42 0 0 0-13.78-8.75 2.4 2.4 0 0 0-2.95 1.68 2.46 2.46 0 0 0 1.67 2.95Zm-8.2-8.6C189.28 1.15 176.6-.93 165.28.37a58 58 0 0 0-17.74 5 80 80 0 0 0-15.63 9.86c-2.46 1.9-4.87 3.88-7.37 5.71a27 27 0 0 1-8.42 4.15c-2.95.9-1.7 5.54 1.27 4.63a31 31 0 0 0 7.85-3.44c2.35-1.52 4.53-3.32 6.74-5.05a102 102 0 0 1 13.91-9.67c9.86-5.4 21.47-8.08 32.66-6.2 5.83.98 11.5 3.18 15.8 7.33 2.24 2.14 5.63-1.25 3.4-3.4Zm-86.07 27.57c-1.55 2.84-2.14 6.23-2.66 9.39a83 83 0 0 0-1.16 10.38 58 58 0 0 0 4.61 24.25 2.5 2.5 0 0 0 2.96 1.67 2.4 2.4 0 0 0 1.67-2.95 55 55 0 0 1-4.45-22.5 72 72 0 0 1 1-9.57c.45-2.73 1.01-6.1 2.18-8.24 1.48-2.72-2.66-5.14-4.15-2.43m77.38 8.6a84 84 0 0 1-22.9 6.57 100 100 0 0 1-12.56 1.04c-2.09.05-4.17-.04-6.26-.03-1.93 0-3.86.27-5.78.39-3.07.19-3.1 4.99 0 4.8 1.98-.13 3.96-.4 5.95-.4 2.11.01 4.21.09 6.32.04a110 110 0 0 0 13.61-1.21 88 88 0 0 0 24.05-7.05 2.4 2.4 0 0 0 .86-3.28 2.46 2.46 0 0 0-3.29-.86ZM131.9 59.73c-3.45 3.25-5.11 7.53-6.1 12.06a102 102 0 0 0-1.87 12.46 2.4 2.4 0 0 0 2.4 2.4 2.45 2.45 0 0 0 2.4-2.4 91 91 0 0 1 1.63-10.85c.83-3.87 1.98-7.49 4.94-10.27 2.25-2.12-1.15-5.51-3.4-3.4m66.05-5.04A63 63 0 0 1 210.15 69c2.79 4.55 4.42 9.57 6.75 14.34a2.4 2.4 0 0 0 3.28.86 2.45 2.45 0 0 0 .86-3.28c-2.39-4.9-4.07-10.03-6.96-14.69a67 67 0 0 0-12.74-14.94c-2.3-2.03-5.72 1.35-3.4 3.4Z" class="d"/><path d="M173.83 266.84c6.83-16.86 8.59-22.43 13.93-38.84a794 794 0 0 0 17.75-63.66 7.3 7.3 0 0 0-1.63-5.97c-2.22-2.57-5.02-6.3-7.3-8.84-.96.78-20.63 16.3-22.12 17.36h-3.47a2333 2333 0 0 1-22.13-17.36c-2.27 2.54-5.07 6.27-7.3 8.84a7.3 7.3 0 0 0-1.63 5.97A794 794 0 0 0 157.68 228c5.35 16.4 7.1 21.97 13.94 38.84Z" class="a"/><path d="M179.77 251.64a519 519 0 0 1-5.94 15.2h-2.2c-6.3-15.53-8.29-21.48-12.73-35.13 2.15-18.48 5-40.46 5-41.1a15 15 0 0 0-.53-3.46q-.2-.78-.35-1.55c-.57-2.57-.68-3.88-1.34-6.6l-.04-.13c3.18-4.28 7.02-9.36 9.36-11.99h3.46c2.32 2.61 6.12 7.62 9.27 11.88-.17.5-.3.83-.3.83a34 34 0 0 0-1.62 5.28 22 22 0 0 0-1.28 6.11c-.02 1.09 2.98 21.93 5.76 41.53a485 485 0 0 1-6.52 19.13" class="e"/><path d="M106.4 324.86q-.1-17.67-.3-35.34-.23-23.05-.53-46.1-.14-9.9-.32-19.8c-.07-3.08-4.87-3.1-4.8 0 .27 13.17.41 26.33.57 39.5q.26 22.46.45 44.93l.13 16.8c.01 3.1 4.81 3.1 4.8 0Zm50.41-58.5c-12.27-21.28-24.4-42.66-35.73-64.47-.76-1.46-1.61-2.92-2.28-4.43-.28-.63-.29-.51.2-1.06q.88-.97 1.81-1.9c2.5-2.59 5.11-5.07 7.74-7.53a2.42 2.42 0 0 0-.5-3.77l-4.85-2.77-2.33-1.33-1.27-.73-.42-.24q-.54-.33.08.07l.33 1.22-.06.12.18-.35.34-.6q.4-.69.86-1.34a27 27 0 0 1 1.92-2.4 61 61 0 0 1 5.52-5.42 97 97 0 0 1 11.5-8.64l-3.52-1.44q5.31 23.57 12.1 46.77c4 13.71 8.3 27.37 13.03 40.85a456 456 0 0 0 7.85 20.5 2.5 2.5 0 0 0 2.95 1.68 2.4 2.4 0 0 0 1.68-2.95 541 541 0 0 1-12.9-35.63 838 838 0 0 1-13.63-46.12q-3.46-13.13-6.45-26.37a2.42 2.42 0 0 0-3.53-1.44 92 92 0 0 0-16.83 13.55 42 42 0 0 0-3.48 4.14 12 12 0 0 0-2.26 4.12c-.63 2.77 2.06 3.92 4 5.04l6.78 3.86-.49-3.77c-2.45 2.3-4.88 4.6-7.23 7-2.3 2.35-5.2 4.83-3.68 8.43 1.21 2.86 2.84 5.6 4.28 8.35q2.26 4.3 4.56 8.6c6.1 11.39 12.39 22.68 18.76 33.91q5.38 9.48 10.82 18.9c1.55 2.68 5.7.27 4.15-2.42Zm87.03 58.5q.1-17.67.3-35.34.23-23.05.54-46.1.12-9.9.32-19.8c.06-3.09-4.74-3.09-4.8 0a4335 4335 0 0 0-.57 39.5q-.26 22.46-.46 44.93l-.12 16.8c-.02 3.1 4.78 3.1 4.8 0ZM164.66 191c5.12 0 10.25-.11 15.38-.11a2.4 2.4 0 0 0 0-4.8c-5.13 0-10.26.1-15.39.1a2.4 2.4 0 0 0 0 4.8" class="d"/><path d="M159.36 179.64c.5 2.04.81 4.11 1.24 6.16a20 20 0 0 1 .9 4.9c-.07 1.45-.35 2.91-.52 4.35q-1.35 10.77-2.67 21.54-.93 7.6-1.82 15.19a2.4 2.4 0 0 0 2.4 2.4 2.46 2.46 0 0 0 2.4-2.4q1.53-13.11 3.18-26.2c.6-4.9 1.5-9.84 1.81-14.76a19 19 0 0 0-.83-5.27c-.53-2.38-.89-4.8-1.46-7.18-.71-3-5.34-1.73-4.63 1.28Zm29.11 51.28-3.6-25.43q-.68-4.77-1.33-9.53l-.1-.69-.08-.6-.18-1.39q-.14-.94-.22-1.89a12 12 0 0 1 .58-3.94 46 46 0 0 1 1.97-6.64 2.47 2.47 0 0 0-.86-3.29 2.4 2.4 0 0 0-3.29.86 50 50 0 0 0-2 6.28 21 21 0 0 0-1.23 6.36 39 39 0 0 0 .48 3.99q1.44 10.7 2.98 21.39l2.25 15.8a2.4 2.4 0 0 0 2.95 1.68 2.47 2.47 0 0 0 1.68-2.96" class="d"/><path d="M192.78 268.78c12.84-22.26 25.54-44.63 37.3-67.49.88-1.72 1.93-3.44 1.46-5.46-.4-1.73-1.83-2.99-3.01-4.21a217 217 0 0 0-8.24-8.04l-.48 3.77 6.76-3.86c1.96-1.12 4.64-2.27 4.02-5.04a12 12 0 0 0-2.26-4.12 42 42 0 0 0-3.49-4.15 92 92 0 0 0-16.82-13.53 2.42 2.42 0 0 0-3.53 1.43q-5.31 23.57-12.1 46.76c-4 13.72-8.3 27.38-13.03 40.86a453 453 0 0 1-7.85 20.5 2.4 2.4 0 0 0 1.68 2.96 2.46 2.46 0 0 0 2.95-1.68 541 541 0 0 0 12.9-35.63 838 838 0 0 0 13.63-46.12q3.45-13.13 6.45-26.38l-3.53 1.44a97 97 0 0 1 11.5 8.64 61 61 0 0 1 5.42 5.3 27 27 0 0 1 2.03 2.52 21 21 0 0 1 1.2 1.93l.12.24q.23.47 0 0l.33-1.22q.55-.36.2-.14l-.55.31-1.27.73-2.33 1.32-4.86 2.78a2.42 2.42 0 0 0-.49 3.77q3.52 3.27 6.9 6.66.85.86 1.67 1.72c.38.4 1.11.9 1.31 1.4.26.66-.96 2.35-1.36 3.13q-4.18 8.1-8.52 16.13-8.8 16.35-18.01 32.47-5.1 8.96-10.24 17.88c-1.55 2.68 2.6 5.1 4.14 2.42" class="d"/><path d="M194.9 151.23c1.3 1.48 2.55 3.03 3.8 4.57 1.14 1.44 2.43 2.82 3.51 4.3a6 6 0 0 1 .94 2.05 4 4 0 0 1 .12.81c0 .16-.14 1.03.04.55a10 10 0 0 1-.84 1.44 106 106 0 0 1-8.85 12.57 51 51 0 0 1-3.27 3.62q-.75.75-1.54 1.43a8 8 0 0 1-1.26.94l3.28.86c-4.81-6.43-9.35-13.15-14.68-19.18l-.48 3.77c2.8-2 5.46-4.22 8.16-6.34l11.45-9.01 3-2.38a2.4 2.4 0 0 0 0-3.4 2.46 2.46 0 0 0-3.4 0c-6.2 5-12.5 9.88-18.78 14.78l-1.15.9-.5.39c-.31.24.4-.3-.07.05q-.56.45-1.14.87a2.45 2.45 0 0 0-.49 3.77c5.06 5.72 9.36 12.1 13.93 18.2a2.45 2.45 0 0 0 3.29.87c5.16-3.38 9-8.96 12.48-13.94q2.18-3.1 4.16-6.34a14 14 0 0 0 .99-1.78 8.2 8.2 0 0 0-.41-6.35c-.93-2.15-2.71-3.86-4.17-5.67-1.55-1.93-3.1-3.88-4.74-5.74-2.05-2.32-5.43 1.08-3.39 3.39" class="d"/><path d="M147.16 147.84c-1.46 1.64-2.83 3.36-4.2 5.07-1.3 1.62-2.81 3.18-3.96 4.9a8.5 8.5 0 0 0-.51 8.99 111 111 0 0 0 9.75 13.87 34 34 0 0 0 7.24 6.99 2.46 2.46 0 0 0 3.28-.87c4.58-6.1 8.87-12.49 13.93-18.2a2.45 2.45 0 0 0-.48-3.78l-.9-.68-.35-.26c-.3-.23.41.32-.02-.02l-1-.78q-2.62-2.03-5.23-4.08-5.62-4.41-11.22-8.84l-2.93-2.31a2.47 2.47 0 0 0-3.4 0 2.4 2.4 0 0 0 0 3.39c6.27 5.06 12.65 10 19 14.95 1.2.93 2.38 1.9 3.62 2.78l-.49-3.77c-5.33 6.03-9.86 12.75-14.68 19.18l3.28-.86-.62-.43c-.2-.15-.01 0 .02.03l-.37-.3q-.75-.62-1.43-1.29-1.51-1.46-2.87-3.06a88 88 0 0 1-5.23-6.8 129 129 0 0 1-5.1-7.88l-.14-.24c.1.27.03.05.03-.22a5 5 0 0 1 .36-1.99c.73-1.81 2.46-3.35 3.67-4.85 1.42-1.77 2.84-3.55 4.34-5.25 2.05-2.3-1.34-5.71-3.39-3.4" class="d"/><path d="M150.15 147.24v3.83a2.5 2.5 0 0 0 .7 1.7 2.4 2.4 0 0 0 3.4 0 2.5 2.5 0 0 0 .7-1.7v-3.83a2.5 2.5 0 0 0-.7-1.7 2.4 2.4 0 0 0-3.4 0 2.5 2.5 0 0 0-.7 1.7m40.69-.23v3.96a2.5 2.5 0 0 0 .7 1.7 2.4 2.4 0 0 0 3.4 0 2.5 2.5 0 0 0 .7-1.7v-.22a2.5 2.5 0 0 0-.7-1.7 2.4 2.4 0 0 0-3.4 0 2.5 2.5 0 0 0-.7 1.7v.22a2.5 2.5 0 0 0 .7 1.7 2.4 2.4 0 0 0 3.4 0 2.5 2.5 0 0 0 .7-1.7V147a2.5 2.5 0 0 0-.7-1.7 2.4 2.4 0 0 0-3.4 0 2.5 2.5 0 0 0-.7 1.7m99.54 177.85c-1.06-14.54-2.08-29.07-3.15-43.6-.65-8.9-1.34-17.78-2.18-26.66-1.2-12.7-2.63-25.32-5.97-37.68-1.83-6.75-4.01-13.66-7.5-19.76-3.54-6.16-8.91-11.05-14.67-15.1-11.35-7.98-24.55-13.24-37.4-18.29l-1.68-.66a2.4 2.4 0 0 0-2.96 1.68 2.46 2.46 0 0 0 1.68 2.95c11.35 4.46 22.77 9.05 33.22 15.4 5.92 3.59 11.71 7.9 15.8 13.57 3.74 5.2 5.9 11.43 7.74 17.5a157 157 0 0 1 5.06 22.88c.74 5.1 1.18 10.24 1.68 15.37.83 8.51 1.51 17.04 2.15 25.58.99 13.3 1.91 26.59 2.88 39.88l.5 6.94a2.46 2.46 0 0 0 2.4 2.4 2.4 2.4 0 0 0 2.4-2.4" class="d"/><path d="M213.66 194.3a5.26 5.26 0 0 0-5.36 5.33 5.17 5.17 0 0 0 5.36 5.42 5.12 5.12 0 0 0 5.36-5.42 5.25 5.25 0 0 0-5.36-5.33" style="fill:#febe69"/><path d="M213.66 191.9a7.8 7.8 0 0 0-7.42 5.43 7.95 7.95 0 0 0 2.54 8.48 8.2 8.2 0 0 0 8.94.6 7.9 7.9 0 0 0 3.56-8.2 7.7 7.7 0 0 0-7.62-6.31 2.4 2.4 0 0 0 0 4.8l.47.02c.53 0-.56-.13-.04-.01q.35.07.7.18l.27.1-.32-.14.25.13c.24.12.46.33.7.44-.47-.21-.27-.22-.06-.03l.2.19c.07.08.17.24.26.3-.33-.2-.25-.38-.09-.11l.38.64c.1.18.02.28-.07-.2.03.18.13.35.17.52.07.22.08.47.15.68-.19-.51-.03-.4-.03-.14l.01.36a4 4 0 0 0-.04.73l.05-.36a5 5 0 0 1-.26 1.06l-.04.12q-.14.36.09-.2l-.3.56-.19.26c-.15.26.42-.47.1-.14-.16.17-.4.34-.54.52.33-.41.32-.23.08-.07l-.21.13-.34.18c-.4.22.45-.13.15-.06l-.71.22-.27.06.21-.03-.29.03h-.74l-.43-.03c.04 0 .6.12.22.02q-.38-.07-.73-.18-.15-.07-.31-.12c.63.15.25.1.03-.01s-.39-.27-.6-.39c.5.27.33.27.2.14l-.29-.27-.21-.24c-.23-.2.34.52.1.13l-.4-.67c-.24-.43.18.55.03.08l-.09-.26a5 5 0 0 0-.2-.82c.03.04.06.62.04.2l-.03-.44v-.37l.02-.21q.03-.4-.04.22c.09-.25.1-.55.19-.81l.14-.39c-.04.25-.21.45-.02.08.12-.23.33-.45.43-.69-.22.5-.2.27-.03.07l.3-.29c.2-.18.4-.18-.08.03l.34-.23.36-.21.26-.12-.32.13a4 4 0 0 0 .83-.25l.15-.03q.39-.06-.2.02a2 2 0 0 0 .63-.03 2.4 2.4 0 1 0 0-4.8ZM69.2 204.74q-2.96-15.27-5.89-30.54l-1.73-8.94a2.4 2.4 0 0 0-2.95-1.68 2.45 2.45 0 0 0-1.67 2.95l6.5 33.68 1.12 5.8a2.4 2.4 0 0 0 2.95 1.68 2.45 2.45 0 0 0 1.68-2.95Zm-11.55 2.24q-2.97-15.33-5.91-30.67l-1.71-8.86a2.4 2.4 0 0 0-2.96-1.68 2.45 2.45 0 0 0-1.67 2.95l6.5 33.75 1.13 5.79a2.4 2.4 0 0 0 2.95 1.67 2.45 2.45 0 0 0 1.67-2.95" class="d"/><path d="M36.43 80.35a45.6 45.6 0 0 0-25.1 13.94 44.7 44.7 0 0 0-11.06 25c-2.01 18.17 7.28 37.87 23.86 46.22 16.61 8.36 38.56 5.12 52.48-7.08 13.87-12.16 17.12-32.78 10.94-49.68a45 45 0 0 0-16.62-21.68 44 44 0 0 0-26.82-7.63 53 53 0 0 0-7.68.91 2.4 2.4 0 0 0-1.67 2.96 2.45 2.45 0 0 0 2.95 1.67 40.8 40.8 0 0 1 25.53 3.14 39.6 39.6 0 0 1 17.35 16.77c7.65 14.17 7.15 33.7-3.45 46.16-10.72 12.61-30.02 17.42-45.61 12.35-16.03-5.2-26.08-21.22-26.7-37.72a40.3 40.3 0 0 1 6.45-23.5A39.3 39.3 0 0 1 31.02 86.8a48 48 0 0 1 6.69-1.82 2.4 2.4 0 1 0-1.28-4.63" class="d"/><path d="M62.87 255.48a44 44 0 0 0 5.6-.83c5.58-1.15 9.66-4.93 11.95-10.14 1.74-3.95 2.9-10.6 2.3-14.24a96 96 0 0 1-1.82-15.09c-.38-8.3-.04-8.43-1.84-13.87-1.96-5.89-7.9-5.34-12.64-4.99l-2.61 3.16-.1-.01c-6.14-.93-12.13 2.63-16.75 6.27-4.94 3.95-7.73 8.6-7.73 14.51.02 11.41 6.55 26.81 12.88 33.2 3.24 1.93 7.04 2.3 10.76 2.03" class="a"/><path d="M71.6 211.87a10.5 10.5 0 0 0 .34-9.04 9.5 9.5 0 0 0-6.86-5.55c-7.89-1.66-15.87 2.97-21.46 8.18a20 20 0 0 0-6.61 18.1 61 61 0 0 0 5.91 20.25 48 48 0 0 0 4.77 8.1 22 22 0 0 0 2.73 3.25 12.4 12.4 0 0 0 5.53 2.3 30 30 0 0 0 11.25-.13 20 20 0 0 0 9.37-3.88c5.45-4.25 7.7-11.03 8.5-17.66.6-4.95-.84-9.72-1.33-14.56-.38-3.71-.49-7.44-.64-11.17a30 30 0 0 0-.8-6.36c-.72-2.74-1.59-5.66-3.84-7.53a12.4 12.4 0 0 0-8.12-2.44c-1.3 0-2.62.1-3.92.2a2.46 2.46 0 0 0-2.4 2.4 2.4 2.4 0 0 0 2.4 2.4 24 24 0 0 1 6.59.03 4.9 4.9 0 0 1 3.94 3.8q.48 1.46.86 2.95l.24 1.2.06.4c-.09-.63.02.26.03.37.25 2.56.24 5.14.36 7.7a115 115 0 0 0 1.8 15.13 12 12 0 0 1 .18 2.49 30 30 0 0 1-2.94 12.15 15 15 0 0 1-5.3 5.7 20 20 0 0 1-8.04 2.3 19.4 19.4 0 0 1-9.27-.76c-2.15-.85-3.45-3.1-4.66-4.98a58 58 0 0 1-6.95-15.96c-1.42-5.17-2.8-11.49-.58-16.63a19 19 0 0 1 5.92-7.18 27 27 0 0 1 9.78-5.29c2.6-.67 6.43-.86 8.28 1.25a5.7 5.7 0 0 1 .74 6.05c-1.55 2.67 2.6 5.09 4.15 2.42Z" class="d"/><path d="M55.67 215.03c2.08-.45 4.17-.89 6.27-1.22 1-.16 1.72-.28 2.79-.35a5 5 0 0 1 2.32.28 2 2 0 0 1 .83.4c.18.11-.04-.08.21.16a7 7 0 0 1 .53.53c-.2-.22.08.12.14.2q.19.3.35.6a5 5 0 0 1 .44 1.2c.02.1.09.6.06.27l.01.75c0 .18-.05.32 0 .06q-.07.33-.17.65c.1-.36 0 .01-.09.18l-.24.48c-.09.16-.4.52-.01.05.23-.27.22-.15-.1.02a2.4 2.4 0 1 0 2.42 4.14c2.13-1.08 3.15-4.07 2.97-6.33a9.3 9.3 0 0 0-4.1-7.1c-2.28-1.46-4.98-1.45-7.56-1.11-2.8.37-5.58.91-8.34 1.51a2.4 2.4 0 1 0 1.27 4.63" class="d"/><path d="M57.2 225.01q3.3-.6 6.61-1.16l3.06-.5a4 4 0 0 1 1.88.18c-.2-.08.34.16.4.2.03.02.7.45.3.14a2 2 0 0 1 .65.75l.38.7c.23.4-.16-.52-.03-.09l.15.46c.08.23.06.64.05.11l.01.67c.02-.35-.02.1-.05.24l-.12.41.01-.02c-.09.2-.27.32-.05.1-.03.02-.54.48-.16.19l-.54.36-.55.3c-.13.06-.68.29-.09.05a2.5 2.5 0 0 0-1.67 2.95 2.4 2.4 0 0 0 2.95 1.68 10 10 0 0 0 3.3-1.99 6.2 6.2 0 0 0 1.75-4.03 7.8 7.8 0 0 0-3-6.55 8.4 8.4 0 0 0-4.16-1.6 15 15 0 0 0-4.05.4q-4.16.68-8.31 1.43a2.4 2.4 0 0 0-1.68 2.96 2.45 2.45 0 0 0 2.95 1.67Z" class="d"/><path d="m59.98 234.36 1.05-.16.29-.04.76-.1q1.44-.18 2.9-.34a18 18 0 0 1 2.82-.06c.3.01-.16-.02-.15-.02l.27.05q.31.06.61.17c.43.13-.3-.2.06.03l.22.14c.22.11-.35-.38-.01 0l.18.2c.2.2-.12-.12-.1-.13a3 3 0 0 1 .27.47c.2.34-.05-.07-.03-.08l.1.25.16.6c.02.13.17.7.07.36s-.07.3 0-.13-.03.11-.06.23l-.07.23c-.03.1-.2.34-.03.09.2-.3-.14.23-.18.3l-.13.2c-.08.25.08-.2.14-.16l-.15.16c-.21.14.26-.14.24-.16s-.37.19-.42.21c-.35.17.54-.21.17-.07l-.35.14-.76.28a29 29 0 0 1-5.08 1.05 2.4 2.4 0 0 0-1.68 2.95 2.5 2.5 0 0 0 2.95 1.68 29 29 0 0 0 5.2-1.1 18 18 0 0 0 2.13-.85 5 5 0 0 0 2.12-2.34 6 6 0 0 0 .63-3.67 8 8 0 0 0-1.05-2.98c-1.46-2.28-4-3-6.59-2.94-1.3.03-2.6.24-3.9.4s-2.58.31-3.87.51a2.4 2.4 0 0 0-1.68 2.96 2.47 2.47 0 0 0 2.95 1.67M79 197.98c4.69-7.06 11.81-12.12 19.08-16.26a185 185 0 0 1 23.96-11.29l6.86-2.7a2.47 2.47 0 0 0 1.67-2.94 2.4 2.4 0 0 0-2.95-1.68 410 410 0 0 0-17.16 7.1c-8.97 4-17.85 8.44-25.57 14.58a47 47 0 0 0-10.04 10.76c-1.7 2.58 2.45 5 4.15 2.43m-33.09 55.84c1.45 13.15 2.6 26.46 5.15 39.46 1.63 8.28 4.48 16.53 10 23.06a28 28 0 0 0 9.48 7.42 31 31 0 0 0 11.37 2.64c8.6.45 17.92-2.22 23.58-9.02a2.47 2.47 0 0 0 0-3.4 2.4 2.4 0 0 0-3.39 0c-4.5 5.4-11.44 7.65-18.32 7.67a28 28 0 0 1-9.87-1.64 23 23 0 0 1-8.73-6.24c-5.23-5.75-7.76-13.42-9.31-20.9-1.28-6.16-2-12.1-2.76-18.25q-1.26-10.4-2.4-20.8a2.47 2.47 0 0 0-2.4-2.4 2.4 2.4 0 0 0-2.4 2.4M165.93 125.6l1.08-.54c.09-.04.47-.19.1-.05-.4.16.09-.03.13-.04q.4-.15.8-.27a16 16 0 0 1 2.22-.5l.22-.03.65-.06a23 23 0 0 1 4.12.07 14 14 0 0 1 2.19.49l.9.32c-.57-.2.02.02.23.14l.55.3c.2.13.8.6.09.04a2.5 2.5 0 0 0 3.39 0 2.4 2.4 0 0 0 0-3.4 15.5 15.5 0 0 0-9.58-2.82 20 20 0 0 0-9.5 2.2 2.4 2.4 0 0 0 2.41 4.15" class="d"/><path d="m69.59 136.1-5.43-3.55-13.54-8.88 10.16-15.55 2.17-3.31a3.7 3.7 0 0 0-.02-4.28 3 3 0 0 0-1.02-1.06l-.88-.44a4 4 0 0 0-2-.15l-.98.33a4 4 0 0 0-1.48 1.3l-2.17 3.31-10.29 15.6q-9.4-6.16-18.83-12.27a3.85 3.85 0 1 0-4.3 6.37L39.9 125.9q-1.99 3.08-3.96 6.17l-7.31 11.19-1.02 1.56a3.85 3.85 0 1 0 6.37 4.3q4.25-6.33 8.34-12.75l4.07-6.23 13.46 8.8 5.43 3.55a4 4 0 0 0 2.88.58 4.3 4.3 0 0 0 2.46-1.62 4 4 0 0 0 .58-2.89 4 4 0 0 0-1.62-2.45" class="e"/></svg>
