<svg xmlns="http://www.w3.org/2000/svg" fill="currentColor" viewBox="0 0 32 32"><path d="m.68 9.43 14.85 8.09a1 1 0 0 0 .95 0l15-8.09a1 1 0 0 0-.02-1.77L16.61.12a1 1 0 0 0-.9 0l-15 7.54a1 1 0 0 0-.03 1.77m15.48-7.3 12.7 6.45L16 15.5 3.31 8.6zM31.3 15.01l-2.97-1.5-2.14 1.15 2.5 1.27-12.84 6.92-12.7-6.91 2.67-1.34-2.13-1.17-3.14 1.58a1 1 0 0 0-.03 1.77l14.85 8.09a1 1 0 0 0 .95 0l15-8.09a1 1 0 0 0-.02-1.77m0 7-2.8-1.38-2.15 1.15 2.34 1.15-12.84 6.92-12.7-6.91 2.48-1.12-2.13-1.17-2.95 1.36a1 1 0 0 0-.03 1.77l14.85 8.09a1 1 0 0 0 .95 0l15-8.09a1 1 0 0 0-.02-1.77"/></svg>
