<svg viewBox="0 0 20 20" fill="none" xmlns="http://www.w3.org/2000/svg"><path d="M10.0459 1.45801C11.8714 1.458 13.3053 1.45792 14.4248 1.6084C15.5719 1.76263 16.4821 2.08572 17.1973 2.80078C17.9124 3.51593 18.2354 4.42606 18.3896 5.57324C18.5402 6.69272 18.5401 8.12665 18.54 9.95215V10.0479C18.5401 11.8733 18.5402 13.3073 18.3896 14.4268C18.2354 15.5739 17.9124 16.4841 17.1973 17.1992C16.4821 17.9143 15.5719 18.2374 14.4248 18.3916C13.3053 18.5421 11.8713 18.542 10.0459 18.542H9.95117C8.12558 18.542 6.6908 18.5421 5.57129 18.3916C4.42424 18.2373 3.51392 17.9143 2.79883 17.1992C2.0838 16.4841 1.76166 15.5738 1.60742 14.4268C1.45691 13.3073 1.45702 11.8733 1.45703 10.0479V9.95215C1.45702 8.12665 1.45691 6.69272 1.60742 5.57324C1.76166 4.42617 2.0838 3.5159 2.79883 2.80078C3.51392 2.08569 4.42424 1.76266 5.57129 1.6084C6.6908 1.45788 8.12558 1.458 9.95117 1.45801H10.0459ZM8.12305 13.958V17.2812C8.68263 17.2884 9.30409 17.292 9.99805 17.292C11.8817 17.292 13.2322 17.2904 14.2588 17.1523C15.2671 17.0167 15.8693 16.7595 16.3135 16.3154C16.7577 15.8712 17.0148 15.2684 17.1504 14.2598C17.1635 14.1622 17.1738 14.0616 17.1846 13.958H8.12305ZM2.81152 13.958C2.82228 14.0616 2.83259 14.1622 2.8457 14.2598C2.98129 15.2683 3.2385 15.8712 3.68262 16.3154C4.12682 16.7596 4.72968 17.0167 5.73828 17.1523C6.07846 17.1981 6.45421 17.2274 6.87305 17.248V13.958H2.81152ZM2.7334 7.29199C2.70851 8.05092 2.70703 8.9411 2.70703 10C2.70703 11.0589 2.70851 11.9491 2.7334 12.708H6.87305V7.29199H2.7334ZM8.12305 12.708H17.2637C17.2886 11.9491 17.29 11.0589 17.29 10C17.29 8.94111 17.2886 8.05092 17.2637 7.29199H8.12305V12.708ZM6.87305 2.75098C6.45419 2.77162 6.07847 2.80192 5.73828 2.84766C4.72968 2.98326 4.12682 3.24037 3.68262 3.68457C3.23851 4.12876 2.98129 4.73175 2.8457 5.74023C2.83259 5.83778 2.82228 5.93842 2.81152 6.04199H6.87305V2.75098ZM9.99805 2.70801C9.3041 2.70801 8.68262 2.71064 8.12305 2.71777V6.04199H17.1846C17.1738 5.93842 17.1635 5.83779 17.1504 5.74023C17.0148 4.73163 16.7577 4.12877 16.3135 3.68457C15.8693 3.24051 15.2671 2.98326 14.2588 2.84766C13.2322 2.70964 11.8817 2.70801 9.99805 2.70801Z" fill="currentColor"/></svg>
