<svg viewBox="0 0 20 20" fill="none" xmlns="http://www.w3.org/2000/svg"><path d="M12.5857 15.2223C13.0922 15.1948 13.6054 15.1948 14.1111 15.2223C15.8077 15.3148 16.4166 16.655 16.8191 17.5416C16.8449 17.5983 16.8702 17.6535 16.8952 17.7077H17.5007C17.8457 17.7077 18.1257 17.9877 18.1257 18.3327C18.1256 18.6776 17.8456 18.9577 17.5007 18.9577H9.16964C8.82471 18.9577 8.54475 18.6776 8.54464 18.3327C8.54464 17.9877 8.82464 17.7077 9.16964 17.7077H9.80246C9.82743 17.6544 9.85268 17.5984 9.87765 17.5426C10.2793 16.656 10.8873 15.3148 12.5857 15.2223ZM14.0437 16.4704C13.5828 16.4445 13.1149 16.4445 12.654 16.4704C11.8943 16.5121 11.538 16.9786 11.1814 17.7077H15.5173C15.1607 16.9785 14.8036 16.5112 14.0437 16.4704ZM7.85031 1.22524C8.09364 0.981073 8.49007 0.980097 8.73507 1.22426C8.97911 1.46844 8.9792 1.8631 8.73507 2.10805L8.72043 2.12368C9.45126 2.70034 10.7543 3.76536 11.8318 4.84536C12.9083 5.92363 13.9679 7.22733 14.5437 7.96059L14.5573 7.94692C14.8015 7.70284 15.1961 7.70192 15.4411 7.94594C15.6852 8.18922 15.6861 8.58472 15.4421 8.82973L14.9402 9.33364C14.9361 9.33855 14.9306 9.34243 14.9265 9.34731L11.3152 12.9665C11.1935 13.089 11.0328 13.15 10.8728 13.15L10.8718 13.151C10.7119 13.1509 10.5528 13.09 10.4304 12.9684C10.1864 12.7252 10.1856 12.3296 10.4294 12.0846L10.445 12.069C9.96877 11.6932 9.25079 11.1092 8.50949 10.4498L4.70578 14.9264C4.33002 15.3677 3.78365 15.6343 3.2048 15.6569C3.1773 15.6577 3.14929 15.6588 3.12179 15.6588H3.12082C2.57177 15.6587 2.03906 15.4384 1.64914 15.0485C1.24008 14.6377 1.01938 14.0701 1.04269 13.4918C1.06603 12.9135 1.33218 12.3657 1.77218 11.9899L6.23996 8.17544C5.58112 7.43179 4.99782 6.71095 4.62179 6.23208L4.6091 6.24477C4.36492 6.48884 3.9693 6.4889 3.72433 6.24477C3.48056 6.00057 3.4803 5.60585 3.72433 5.36098L7.33468 1.74184C7.33513 1.7414 7.34237 1.73416 7.3464 1.73012L7.85031 1.22524ZM2.58371 12.9411C2.4054 13.0936 2.30088 13.3068 2.29172 13.5426C2.28255 13.7783 2.3684 14 2.53488 14.1666C2.69977 14.3315 2.9192 14.4195 3.15402 14.4088C3.38816 14.3997 3.60113 14.2951 3.75363 14.1168L7.59347 9.59926C7.50666 9.51505 7.41912 9.43194 7.33468 9.34731C7.25215 9.26452 7.17073 9.17943 7.08859 9.09438L2.58371 12.9411ZM16.1179 12.152C16.2838 11.8496 16.6641 11.7381 16.9665 11.904L18.6335 12.8151C18.9358 12.9809 19.0472 13.3613 18.8816 13.6637C18.7682 13.8712 18.5534 13.9889 18.3318 13.9889C18.2302 13.9888 18.1278 13.9633 18.0329 13.9118L16.3659 13.0006C16.0637 12.8347 15.9521 12.4544 16.1179 12.152ZM5.51144 5.34145C6.04248 6.02168 7.13721 7.3817 8.21847 8.46547C9.30003 9.5487 10.6554 10.6439 11.3347 11.1764L13.654 8.85317C13.1232 8.17317 12.0268 6.8115 10.946 5.72817C9.86621 4.64592 8.51079 3.54877 7.83078 3.01626L5.51144 5.34145ZM17.9362 7.86977C18.2029 7.6506 18.597 7.69002 18.8161 7.95669C19.0353 8.22335 18.9959 8.61741 18.7292 8.83657L17.0632 10.2028C16.9474 10.2978 16.8059 10.3444 16.6667 10.3444L16.5319 10.3297C16.3997 10.3007 16.2758 10.2291 16.1833 10.1168C15.9642 9.8502 16.0027 9.45516 16.2693 9.23598L17.9362 7.86977Z" fill="currentColor"/></svg>
