<svg viewBox="0 0 56 56" fill="none" xmlns="http://www.w3.org/2000/svg"><path fill-rule="evenodd" clip-rule="evenodd" d="M37.5937 42.585C39.2573 42.585 40.4777 42.5826 41.5859 42.9395C42.4936 43.2288 43.3338 43.6932 44.0478 44.3115C44.9345 45.0769 45.5085 46.1106 46.2412 47.4336L46.5889 48.0586C46.7125 48.2802 46.9459 48.4179 47.2002 48.418H48.999C50.2869 48.418 51.3328 49.4795 51.333 50.751C51.333 52.0226 50.3154 53.057 49.0508 53.085H25.6142C24.3497 53.0568 23.333 52.0389 23.333 50.751C23.3332 49.4631 24.3781 48.418 25.666 48.418H27.4648C27.7191 48.418 27.9525 48.2802 28.0762 48.0586L28.4238 47.4336C29.1564 46.1107 29.7306 45.0769 30.6172 44.3115C31.3312 43.6932 32.1714 43.2288 33.0791 42.9395C34.1874 42.5848 35.4076 42.585 37.0713 42.585H37.5937ZM21.9834 3.43068C22.667 2.74705 23.7753 2.74709 24.459 3.43068C25.1426 4.11435 25.1426 5.22065 24.459 5.90431L24.4189 5.94337C24.9556 6.36569 25.6001 6.88156 26.3164 7.46486C28.3207 9.10517 30.899 11.3151 33.125 13.541C35.351 15.767 37.5608 18.3453 39.2012 20.3496C39.7845 21.0659 40.3003 21.7104 40.7226 22.2471L40.7617 22.207C41.4454 21.5234 42.5517 21.5234 43.2353 22.207C43.919 22.8907 43.9189 23.999 43.2353 24.6826L31.6807 36.2373C30.997 36.921 29.8887 36.921 29.2051 36.2373C28.5214 35.5537 28.5214 34.4474 29.2051 33.7637L29.2451 33.7246C28.7085 33.3024 28.0644 32.7863 27.3506 32.2031C25.3439 30.5605 22.765 28.353 20.539 26.127C18.3131 23.901 16.1055 21.3231 14.4629 19.3164C13.8795 18.6024 13.3637 17.9576 12.9414 17.4209L12.9023 17.461C12.2187 18.1446 11.1124 18.1446 10.4287 17.461C9.74512 16.7773 9.74512 15.669 10.4287 14.9854L21.9834 3.43068Z" fill="currentColor"/><path fill-rule="evenodd" clip-rule="evenodd" d="M15.2195 25.0132C15.5019 25.0319 15.7219 25.2724 16.1629 25.7554C16.9142 26.579 17.6934 27.4031 18.4773 28.1871C19.2611 28.9732 20.0846 29.7523 20.908 30.5035C21.391 30.9445 21.6339 31.1645 21.6502 31.4468C21.6687 31.729 21.4593 31.9742 21.0418 32.4664L13.1736 41.7017C10.9686 44.2894 7.02521 44.4478 4.62187 42.0445C2.21854 39.6388 2.37503 35.6954 4.96269 33.4927L14.198 25.6246C14.6901 25.2072 14.9373 24.997 15.2195 25.0132ZM44.034 36.0064C44.6522 34.8749 46.0684 34.4591 47.2 35.0748L51.867 37.6207C52.9986 38.2389 53.4158 39.655 52.7977 40.7867C52.1817 41.9183 50.7633 42.3343 49.6316 41.7183L44.9646 39.1724C43.8334 38.5564 43.4183 37.1379 44.034 36.0064ZM49.2723 23.8638C50.2686 23.0471 51.7388 23.1943 52.5555 24.1929C53.3718 25.1892 53.2248 26.6585 52.2264 27.4751L47.5594 31.2925C46.5632 32.109 45.0938 31.9623 44.2771 30.9664C43.4629 29.9678 43.6094 28.4979 44.6053 27.6812L49.2723 23.8638Z" fill="currentColor"/></svg>
