<svg xmlns="http://www.w3.org/2000/svg" fill="none" viewBox="0 0 24 24"><path fill="currentColor" fill-rule="evenodd" d="M9.94 3.25h4.12c1.83 0 3.29 0 4.43.15 1.17.16 2.12.5 2.87 1.24.75.75 1.08 1.7 1.24 2.87.15 1.14.15 2.6.15 4.43v.12c0 1.83 0 3.29-.15 4.43a4.7 4.7 0 0 1-1.24 2.87 4.7 4.7 0 0 1-2.87 1.24c-1.14.15-2.6.15-4.43.15H9.94c-1.83 0-3.29 0-4.43-.15a4.7 4.7 0 0 1-2.87-1.24 4.7 4.7 0 0 1-1.24-2.87c-.15-1.14-.15-2.6-.15-4.43v-.12c0-1.83 0-3.29.15-4.43a4.7 4.7 0 0 1 1.24-2.87A4.7 4.7 0 0 1 5.51 3.4c1.14-.15 2.6-.15 4.43-.15M5.71 4.89c-1 .14-1.58.39-2 .81-.43.43-.68 1-.82 2.01A36 36 0 0 0 2.75 12c0 1.9 0 3.26.14 4.29.14 1 .39 1.58.81 2 .43.43 1 .69 2.01.82 1.03.14 2.38.14 4.29.14h4c1.9 0 3.26 0 4.29-.14 1-.13 1.58-.39 2-.81.43-.43.69-1 .82-2.01.14-1.03.14-2.38.14-4.29 0-1.9 0-3.26-.14-4.29-.13-1-.39-1.58-.81-2-.43-.43-1-.68-2.01-.82A36 36 0 0 0 14 4.75h-4a36 36 0 0 0-4.29.14m-.29 2.63a.75.75 0 0 1 1.06-.1l2.16 1.8a25 25 0 0 0 2.13 1.67c.53.34.88.45 1.23.45s.7-.1 1.23-.45c.55-.35 1.2-.89 2.13-1.67l2.16-1.8a.75.75 0 1 1 .96 1.16l-2.2 1.83c-.88.74-1.6 1.33-2.24 1.74-.66.43-1.3.7-2.04.7a3.7 3.7 0 0 1-2.04-.7c-.64-.4-1.36-1-2.24-1.74l-2.2-1.83a.75.75 0 0 1-.1-1.06" clip-rule="evenodd"/></svg>
