<svg xmlns="http://www.w3.org/2000/svg" fill="none" viewBox="0 0 24 24"><path fill="currentColor" fill-rule="evenodd" d="M19 2.75a2.25 2.25 0 1 0 0 4.5 2.25 2.25 0 0 0 0-4.5M15.25 5a3.75 3.75 0 1 1 7.5 0 3.75 3.75 0 0 1-7.5 0m-5.3-1.75H13a.75.75 0 0 1 0 1.5h-3a36 36 0 0 0-4.29.14c-1 .14-1.58.39-2 .81-.43.43-.68 1-.82 2.01A36 36 0 0 0 2.75 12c0 1.9 0 3.26.14 4.29.14 1 .39 1.58.81 2 .43.43 1 .69 2.01.82 1.03.14 2.38.14 4.29.14h4c1.9 0 3.26 0 4.29-.14 1-.13 1.58-.39 2-.81.43-.43.69-1 .82-2.01.14-1.03.14-2.38.14-4.29v-1.98a.75.75 0 0 1 1.5-.04v2.08c0 1.83 0 3.29-.15 4.43a4.7 4.7 0 0 1-1.24 2.87 4.7 4.7 0 0 1-2.87 1.24c-1.14.15-2.6.15-4.43.15H9.94c-1.83 0-3.29 0-4.43-.15a4.7 4.7 0 0 1-2.87-1.24 4.7 4.7 0 0 1-1.24-2.87c-.15-1.14-.15-2.6-.15-4.43v-.12c0-1.83 0-3.29.15-4.43a4.7 4.7 0 0 1 1.24-2.87A4.7 4.7 0 0 1 5.51 3.4c1.14-.15 2.6-.15 4.43-.15M5.41 7.52a.75.75 0 0 1 1.06-.1l2.16 1.8a25 25 0 0 0 2.13 1.67c.53.34.88.45 1.23.45s.7-.1 1.23-.45c.55-.35 1.2-.89 2.13-1.67a.75.75 0 1 1 .96 1.16l-.04.03c-.88.74-1.6 1.33-2.24 1.74-.66.43-1.3.7-2.04.7a3.7 3.7 0 0 1-2.04-.7c-.64-.4-1.36-1-2.24-1.74l-2.2-1.83a.75.75 0 0 1-.1-1.06" clip-rule="evenodd"/></svg>
