<svg xmlns="http://www.w3.org/2000/svg" fill="none" viewBox="0 0 24 24"><path fill="currentColor" fill-rule="evenodd" d="M10.95 1.25h2.1c1.14 0 2.06 0 2.8.1.76.1 1.42.32 1.95.85s.75 1.2.85 1.96q.07.56.09 1.28a4.5 4.5 0 0 1 2.62 1.2c.75.75 1.08 1.7 1.24 2.87.15 1.14.15 2.6.15 4.43v.12c0 1.83 0 3.29-.15 4.43a4.7 4.7 0 0 1-1.24 2.87 4.7 4.7 0 0 1-2.87 1.24c-1.14.15-2.6.15-4.43.15H9.94c-1.83 0-3.29 0-4.43-.15a4.7 4.7 0 0 1-2.87-1.24 4.7 4.7 0 0 1-1.24-2.87c-.15-1.14-.15-2.6-.15-4.43v-.12c0-1.83 0-3.29.15-4.43a4.7 4.7 0 0 1 1.24-2.87 4.5 4.5 0 0 1 2.62-1.2q.01-.72.09-1.28c.1-.77.32-1.43.85-1.96s1.2-.75 1.96-.85c.73-.1 1.65-.1 2.79-.1m-5.7 5.72c-.73.14-1.2.38-1.55.73-.42.43-.67 1-.81 2.01A36 36 0 0 0 2.75 14c0 1.9 0 3.26.14 4.29.14 1 .39 1.59.81 2 .43.43 1 .69 2.01.82 1.03.14 2.38.14 4.29.14h4c1.9 0 3.26 0 4.29-.14 1-.13 1.58-.39 2-.81.43-.42.69-1 .82-2.01.14-1.03.14-2.38.14-4.29 0-1.9 0-3.26-.14-4.29-.13-1-.39-1.58-.81-2a3 3 0 0 0-1.55-.74v1.29c0 .79 0 1.41-.26 1.97s-.74.96-1.34 1.46l-.1.09-.77.63c-.88.74-1.6 1.33-2.24 1.74-.66.43-1.3.7-2.04.7a3.7 3.7 0 0 1-2.04-.7c-.64-.4-1.36-1-2.24-1.74l-.76-.63-.1-.1c-.61-.5-1.09-.9-1.35-1.45a4.6 4.6 0 0 1-.26-2.1zm3.1-4.14c-.6.09-.88.23-1.09.43-.2.2-.34.5-.43 1.1A22 22 0 0 0 6.75 7v1.13c0 .99.02 1.25.12 1.46.1.22.29.4 1.05 1.03l.72.6a25 25 0 0 0 2.13 1.67c.53.34.88.45 1.23.45s.7-.1 1.23-.45c.55-.35 1.2-.89 2.13-1.67l.72-.6c.76-.63.95-.81 1.05-1.03s.12-.47.12-1.46V7c0-1.2 0-2.02-.08-2.64-.09-.6-.23-.9-.43-1.1s-.5-.34-1.1-.43A22 22 0 0 0 13 2.75h-2c-1.2 0-2.02 0-2.64.08M9.26 6c0-.41.34-.75.75-.75h4a.75.75 0 0 1 0 1.5h-4A.75.75 0 0 1 9.25 6m1 3c0-.41.34-.75.75-.75h2a.75.75 0 0 1 0 1.5h-2a.75.75 0 0 1-.75-.75" clip-rule="evenodd"/></svg>
