<svg xmlns="http://www.w3.org/2000/svg" fill="none" viewBox="0 0 24 24"><path stroke="currentColor" stroke-linecap="round" stroke-linejoin="round" stroke-width="2" d="M19 3H9v0c-1.89 0-2.83 0-3.41.59C5 4.17 5 5.1 5 7v10"/><path stroke="currentColor" stroke-linecap="round" stroke-linejoin="round" stroke-width="2" d="M14 17v2c0 1.1.9 2 2 2v0a2 2 0 0 0 2-2V4.5c0-.83.67-1.5 1.5-1.5v0c.83 0 1.5.67 1.5 1.5v0c0 .83-.67 1.5-1.5 1.5h-1"/><path stroke="currentColor" stroke-linecap="round" stroke-linejoin="round" stroke-width="2" d="M16 21H5a2 2 0 0 1-2-2v0c0-1.1.9-2 2-2h9M9 7h5m-5 4h5"/></svg>
