<svg xmlns="http://www.w3.org/2000/svg" fill="none" viewBox="0 0 24 24"><path fill="currentColor" fill-rule="evenodd" d="M9.25 19.5c0-.41.34-.75.75-.75h4a.75.75 0 0 1 0 1.5h-4a.75.75 0 0 1-.75-.75m.67 2.5c0-.41.33-.75.75-.75h2.66a.75.75 0 0 1 0 1.5h-2.66a.75.75 0 0 1-.75-.75M4.25 8.22c0-3.9 3.55-6.97 7.75-6.97s7.75 3.06 7.75 6.97a8.4 8.4 0 0 1-2.64 6L16 15.28a.8.8 0 0 0-.25.57 1.9 1.9 0 0 1-1.9 1.91h-3.7a1.9 1.9 0 0 1-1.9-1.9.8.8 0 0 0-.25-.58l-1.1-1.04a8.4 8.4 0 0 1-2.65-6zm1.5 0c0 1.78.78 3.6 2.18 4.92l1.1 1.03c.46.44.72 1.04.72 1.67 0 .23.18.41.4.41h3.7a.4.4 0 0 0 .4-.4c0-.64.26-1.24.72-1.68l1.1-1.03a7 7 0 0 0 2.18-4.92c0-2.92-2.71-5.47-6.25-5.47S5.75 5.3 5.75 8.22" clip-rule="evenodd"/></svg>
