<svg xmlns="http://www.w3.org/2000/svg" fill="none" viewBox="0 0 24 24"><path stroke="currentColor" stroke-linecap="round" stroke-width="1.5" d="M13.2 8h-2.4c-2.26 0-3.4 0-4.1.7-.7.68-.7 1.8-.7 4.03v2.54c0 2.23 0 3.35.7 4.04s1.84.69 4.1.69h2.4M10.8 8h2.4c2.26 0 3.4 0 4.1.7.7.68.7 1.8.7 4.03v2.54c0 2.23 0 3.35-.7 4.04s-1.84.69-4.1.69h-2.4m1.2 0v2"/><path stroke="currentColor" stroke-linecap="round" stroke-linejoin="round" stroke-width="1.5" d="m12 12-1.5 2h3L12 16"/><path stroke="currentColor" stroke-linecap="round" stroke-width="1.5" d="M11 5h2"/><path stroke="currentColor" stroke-width="1.5" d="M15.5 8V5.5c0-1.4 0-2.1-.34-2.61a2 2 0 0 0-.55-.55C14.11 2 13.41 2 12 2c-1.4 0-2.1 0-2.61.34a2 2 0 0 0-.55.55c-.34.5-.34 1.2-.34 2.61V8"/></svg>
