<svg xmlns="http://www.w3.org/2000/svg" fill="none" viewBox="0 0 24 24"><path stroke="currentColor" stroke-linecap="round" stroke-linejoin="round" stroke-width="1.5" d="M8.18 16.02a3.3 3.3 0 0 1-2.09-1.03 3.73 3.73 0 0 1 0-5.06l2.19-2.3a3.3 3.3 0 0 1 4.82 0 3.73 3.73 0 0 1 0 5.06l-1.09 1.15"/><path stroke="currentColor" stroke-linecap="round" stroke-linejoin="round" stroke-width="1.5" d="M15.82 7.98c.76.07 1.51.42 2.09 1.03a3.73 3.73 0 0 1 0 5.06l-2.19 2.3a3.3 3.3 0 0 1-4.82 0 3.73 3.73 0 0 1 0-5.06l1.09-1.15"/><path stroke="currentColor" stroke-linecap="round" stroke-linejoin="round" stroke-width="1.5" d="M9 22h6c5 0 7-2 7-7V9c0-5-2-7-7-7H9C4 2 2 4 2 9v6c0 5 2 7 7 7"/></svg>
