<svg xmlns="http://www.w3.org/2000/svg" fill="currentColor" style="fill-rule:evenodd;clip-rule:evenodd;stroke-linejoin:round;stroke-miterlimit:2" viewBox="0 0 64 64"><path id="Icons" d="M-896 0H384v800H-896z" style="fill:none"/><g id="Icons1"><g id="external-link"><path d="M36.03 20.06h-21.1a3 3 0 0 0-2.98 2.99V49a3 3 0 0 0 2.98 3h26.03a3 3 0 0 0 2.99-2.99V28.06h4V50a6 6 0 0 1-6 6h-28a6 6 0 0 1-6-6V22.05a6 6 0 0 1 6-6h22.08z"/><path d="M55.93 25.32h-4.01V14.84l-27.9 27.9-2.83-2.84L49.1 12H38.6V8h17.32z"/></g></g></svg>
