<svg xmlns="http://www.w3.org/2000/svg" fill="currentColor" style="fill-rule:evenodd;clip-rule:evenodd;stroke-linejoin:round;stroke-miterlimit:2" viewBox="0 0 64 64"><path id="Icons" d="M-320-64H960v800H-320z" style="fill:none"/><g id="Icons1"><path id="link" d="M31.41 26.46c4 1.54 7.27 5.2 7.43 9.72.24 6.47-6.38 11.42-11.7 16.68A11.3 11.3 0 0 1 19.3 56c-8.32-.16-14.62-11.63-7.76-18.74 3.92-3.97 7.6-8.96 11.93-10.82q.5-.2 1.03-.37c.01 1.29.12 2.92.5 4.28a6 6 0 0 0-1.94 1.24c-4.47 4.3-10.91 8.45-10.5 13.89a7.1 7.1 0 0 0 6.96 6.39 7 7 0 0 0 4.74-1.96c5.08-5.03 12.48-10.22 9.87-16.12a6.3 6.3 0 0 0-2.45-2.77c-.28-1.2-.51-2.87-.27-4.56m1.18 11.05c-4-1.54-7.26-5.2-7.43-9.72-.24-6.46 6.38-11.42 11.7-16.68a11.3 11.3 0 0 1 7.84-3.14c8.32.16 14.62 11.63 7.76 18.74-3.92 3.97-7.6 8.96-11.93 10.82q-.5.2-1.03.37a18 18 0 0 0-.5-4.28q1.07-.43 1.94-1.24c4.47-4.3 10.91-8.45 10.5-13.89a7.1 7.1 0 0 0-6.96-6.39 7 7 0 0 0-4.73 1.96c-5.1 5.03-12.5 10.22-9.87 16.12a6.3 6.3 0 0 0 2.44 2.77c.28 1.2.51 2.87.27 4.56"/></g></svg>
