<svg xmlns="http://www.w3.org/2000/svg" fill="currentColor" viewBox="0 0 32 32"><path d="M30.34 24.73a.8.8 0 0 1-.19-.79A2.75 2.75 0 0 0 27 20.38a16 16 0 0 0-3.48-8.62c-1.12-1.61-1.8-2.63-1.53-3.44A6.6 6.6 0 0 0 21 2.53 6 6 0 0 0 16 0a6 6 0 0 0-5 2.53 6.6 6.6 0 0 0-.94 5.79c.27.81-.4 1.83-1.53 3.44A16 16 0 0 0 5 20.38a2.75 2.75 0 0 0-3.19 3.56.8.8 0 0 1-.19.79l-.35.35a2.8 2.8 0 0 0-.76 2.45 2.8 2.8 0 0 0 1.57 2l4.63 2.1a5 5 0 0 0 2 .43 5 5 0 0 0 .95-.06 5 5 0 0 0 1.71-.72A14 14 0 0 0 16 32a14 14 0 0 0 4.63-.72 5 5 0 0 0 1.71.72 5 5 0 0 0 .94.09 5 5 0 0 0 2-.43l4.63-2.1a2.8 2.8 0 0 0 1.58-2 2.8 2.8 0 0 0-.77-2.45ZM12.61 3.7A4 4 0 0 1 16 2a4 4 0 0 1 3.39 1.7 4.5 4.5 0 0 1 .66 4 3 3 0 0 0-.15.92 1 1 0 0 0-.19-.31A5.3 5.3 0 0 0 16 7a5.4 5.4 0 0 0-3.71 1.29 1 1 0 0 0-.19.31 3 3 0 0 0-.1-.92 4.6 4.6 0 0 1 .61-3.98M17 9.11l-1 .69-1-.68a5 5 0 0 1 2-.01M9.27 30a2.7 2.7 0 0 1-1.69-.19L3 27.74a.77.77 0 0 1-.22-1.25l.35-.35a2.8 2.8 0 0 0 .67-2.83.8.8 0 0 1 .18-.79.8.8 0 0 1 .54-.23h.25a3 3 0 0 0 1.28.1h.06l.31-.07h.07a2.6 2.6 0 0 0 1.11-.66l.35-.35a.8.8 0 0 1 .69-.21.8.8 0 0 1 .56.44l2.1 4.62a3 3 0 0 1 .2 1.7A2.8 2.8 0 0 1 9.27 30m3.62-.38a5 5 0 0 0 .52-1.4 4.7 4.7 0 0 0-.34-2.91L11 20.71a2.74 2.74 0 0 0-3.84-1.27 15 15 0 0 1 3-6.53 10 10 0 0 0 1.9-3.65 1 1 0 0 0 .39.57l3 2A1 1 0 0 0 16 12a1 1 0 0 0 .56-.17l3-2a1 1 0 0 0 .38-.57 10 10 0 0 0 1.9 3.65 15 15 0 0 1 3 6.53 2.8 2.8 0 0 0-1.81-.31 2.8 2.8 0 0 0-2 1.58l-2.1 4.63a4.7 4.7 0 0 0 .18 4.31 14 14 0 0 1-6.22 0Zm16.16-1.91-4.63 2.1a2.7 2.7 0 0 1-1.69.19 2.8 2.8 0 0 1-2.18-2.17 3 3 0 0 1 .2-1.7l2.1-4.62a.8.8 0 0 1 .56-.44h.15a.8.8 0 0 1 .54.22l.35.35a3 3 0 0 0 1.11.66h.07l.31.07a2.6 2.6 0 0 0 1.29-.09.78.78 0 0 1 1 1 2.8 2.8 0 0 0 .66 2.83l.35.35a.8.8 0 0 1 .22.68.8.8 0 0 1-.41.6Z"/></svg>
