<svg xmlns="http://www.w3.org/2000/svg" viewBox="-76.02 0 292.128 292.128"><defs><style>.d{fill:#211715}</style></defs><path d="M45.07 46.26a104 104 0 0 0-9.86 5.93C26.97 58.08 20.93 66.77 25.34 80a275 275 0 0 0 44.26 3.22A276 276 0 0 0 113.87 80c4.4-13.24-1.63-21.93-9.88-27.82-8.5-6.09-19.3-9.28-20-15.47L83.95 18c-.01-3.7-.92-8.17-3.27-11.03-2.1-2.55-6.58-4.61-11.08-4.61s-8.98 2.06-11.08 4.61C56.17 9.83 55.27 14.3 55.26 18l-.04 18.72c-.44 3.88-4.84 6.57-10.15 9.54m-28.81 235.2A28.8 28.8 0 0 1 3.6 263.64c-1.79-7.13-1.11-17.57-.5-31.02.83-18.43 3.95-79.7 4.53-93.68a44 44 0 0 1 3.26-14.44 26 26 0 0 1 5.66-8.6l.04-.02a28 28 0 0 0 7.6 2.36 273 273 0 0 0 45.4 3.4 272 272 0 0 0 45.76-3.46 23 23 0 0 0 8.17-2.3l.03.03a26 26 0 0 1 5.66 8.6 44 44 0 0 1 3.27 14.43c.58 13.98 3.69 75.25 4.52 93.68.61 13.45 1.3 23.9-.5 31.02-2.6 10.39-9.1 16.89-19.12 21.29-13.28 3.82-28.79 4.78-47.78 4.78-18.25 0-34.72-.96-46.23-4.5a45 45 0 0 1-7.12-3.75" style="fill:#fff"/><path d="M137.01 232.62c-.43-9.48-1.46-30.27-2.44-50.13-18 3-39.18 4.77-64.51 4.77s-46.52-1.78-64.51-4.77c-.98 19.86-2.01 40.65-2.44 50.13-.61 13.45-1.29 23.89.5 31.02 2.66 10.6 9.38 17.16 19.77 21.57q1.38.43 2.86.8c11.3 2.88 26.57 3.7 43.36 3.7 19 0 34.5-.96 47.79-4.78 10.02-4.4 16.51-10.9 19.12-21.29 1.79-7.13 1.1-17.57.5-31.02" style="fill:#ffe9aa"/><path d="M116.06 79.8q-.39-.03-.77-.02a272 272 0 0 1-45.69 3.45 271 271 0 0 1-45.53-3.45 12 12 0 0 0-8.7 4.6c-2.54 3.38-3.3 7.73-3.84 11.9a69 69 0 0 0-.83 10.98c-.05 2.42 2.54 6.51 4.09 7.55 2.7 1.82 5.44 2.63 9.42 3.43a273 273 0 0 0 45.4 3.4 272 272 0 0 0 45.75-3.46 21.6 21.6 0 0 0 9.98-3.37c1.55-1.04 4.14-5.14 4.08-7.55a69 69 0 0 0-.83-10.98c-.54-4.18-1.3-8.53-3.83-11.9a11.8 11.8 0 0 0-8.7-4.59" style="fill:#7abee6"/><path d="M25.39 77.6c-5.18-.87-10.45 2.57-13 6.92-2.63 4.52-3.08 9.97-3.68 15.06q-.28 2.4-.34 4.8a15 15 0 0 0 .64 6.17 16 16 0 0 0 3.41 5.4 16 16 0 0 0 5.63 3.15c4.44 1.64 9.32 2.1 13.98 2.71q7.49.97 15.03 1.49a333 333 0 0 0 34.48.54 266 266 0 0 0 30.53-2.71c4.8-.72 9.64-1.26 13.86-3.85a13 13 0 0 0 5.88-10.45 98 98 0 0 0-1.01-12c-.69-4.95-1.96-10.35-5.88-13.8a14.3 14.3 0 0 0-6.73-3.37c-2.45-.46-4.64 0-7.06.37q-7.06 1.06-14.2 1.68a322 322 0 0 1-33.85 1.06 274 274 0 0 1-31.45-2.23q-3.13-.42-6.24-.94a2.47 2.47 0 0 0-2.95 1.67 2.4 2.4 0 0 0 1.67 2.96c19.82 3.28 40.1 3.95 60.15 3.1a260 260 0 0 0 28.32-2.7c1-.15 2.03-.43 3.03-.48a8 8 0 0 1 2.75.5 9.2 9.2 0 0 1 4.56 3.28c2.73 3.7 3.1 8.76 3.63 13.17q.28 2.28.38 4.58l.07 2.74a5 5 0 0 1-.35 2.4 11 11 0 0 1-2.52 3.9c-.36.34-.1.1-.01.03l-.61.4q-.71.42-1.45.8a17 17 0 0 1-3 1.11 60 60 0 0 1-6.82 1.23q-3 .47-6 .85-7.02.89-14.09 1.37a298 298 0 0 1-61.17-1.63c-4.11-.57-8.53-1-12.38-2.68a14 14 0 0 1-2.6-1.45c.4.28-.23-.25-.35-.38a7 7 0 0 1-.73-.9c-.9-1.31-1.87-3.15-1.81-4.42.18-3.62.34-7.15.82-10.75.57-4.26 1.4-9.38 5.03-12.17 1.26-.96 3.53-2.17 5.16-1.9a2.47 2.47 0 0 0 2.95-1.67 2.4 2.4 0 0 0-1.68-2.96" class="d"/><path d="M27.49 78.87c-1.75-5.67-1.74-11.56 1.37-16.75 2.99-4.99 7.9-8.36 12.84-11.21 2.85-1.65 5.78-3.14 8.56-4.9a19 19 0 0 0 6.1-5.53c1.8-2.87 1.26-6.44 1.27-9.67q0-6.28.03-12.56a17 17 0 0 1 2.1-8.88C61.3 6.84 64.3 5.56 67.1 5a13.7 13.7 0 0 1 9.45 1.65c2.61 1.53 3.85 4.03 4.5 6.91.8 3.52.49 7.26.5 10.85l.01 6.4a61 61 0 0 0 .06 6.23c.6 5.71 7.05 8.93 11.48 11.4 5.4 3.01 10.96 5.96 15.08 10.7a19 19 0 0 1 4.61 14.94 27 27 0 0 1-1.08 4.78c-.92 2.96 3.72 4.22 4.62 1.28 2-6.5 1.93-13.4-1.3-19.48-3-5.63-8.15-9.71-13.51-12.96-3-1.8-6.1-3.4-9.1-5.2-2.16-1.3-4.57-2.85-5.7-4.9-.2-.34-.03.04-.16-.33a4 4 0 0 1-.21-.83c-.1-.92.02-1.98.02-2.94l-.01-6.64c-.01-4.03.27-8.17-.26-12.17-.46-3.52-1.58-7.12-4.04-9.79A16.6 16.6 0 0 0 72.55.2a19 19 0 0 0-11.32 1.76 13.8 13.8 0 0 0-6.86 7.56c-1.4 3.5-1.5 7.23-1.52 10.95l-.03 13.05c0 .91.1 1.92.05 2.8a4 4 0 0 1-.2.84c-.13.43-.03.16-.2.46a9 9 0 0 1-2.2 2.52 50 50 0 0 1-7.98 4.93c-5.7 3.16-11.5 6.58-15.58 11.79a23.6 23.6 0 0 0-5.06 17.6 33 33 0 0 0 1.21 5.69c.9 2.94 5.54 1.68 4.63-1.28M14.87 114.2c-3.6 3.2-5.85 8.03-7.35 12.51A48 48 0 0 0 5.2 139.8l-.62 13.38q-1 20.9-2.05 41.79L.77 231.19C.37 240.02-.44 249 .3 257.83c.67 7.92 3.48 15.5 9.16 21.2a38 38 0 0 0 10.02 7.03 44 44 0 0 0 12.04 3.53 193 193 0 0 0 30.38 2.45c10.7.19 21.44.12 32.1-.75 4.72-.39 9.43-.95 14.09-1.77 4.24-.76 8.64-1.54 12.53-3.46 7.54-3.73 13.59-9.52 16.77-17.38 3.11-7.68 2.81-16.27 2.53-24.4-.46-12.98-1.19-25.97-1.83-38.94l-2.12-43.12-.81-17c-.3-6.44-.58-12.76-2.72-18.94-1.5-4.33-3.71-8.97-7.2-12.07-2.3-2.05-5.7 1.33-3.39 3.4 3.34 2.97 5.28 7.52 6.53 11.71a45 45 0 0 1 1.76 11q.29 6.73.62 13.46.98 20.44 2 40.87.89 17.93 1.74 35.86c.4 8.37 1.06 16.81.65 25.19-.36 7.15-2.41 14.26-7.57 19.6a33 33 0 0 1-9.4 6.61c-3.6 1.79-7.98 2.4-11.93 3.08a186 186 0 0 1-28.13 2.24c-10.68.2-21.4.13-32.05-.67a132 132 0 0 1-13.64-1.66 39 39 0 0 1-11.17-3.31c-6.67-3.43-12.07-8.64-14.53-15.85-2.57-7.55-1.97-15.89-1.64-23.82.5-12.4 1.15-24.78 1.76-37.17l2.07-42.1.8-16.74c.27-5.78.4-11.43 2.14-17.02 1.26-4.05 3.17-8.4 6.4-11.28 2.32-2.06-1.09-5.45-3.39-3.4Z" class="d"/><path d="M61.12 189.98q9.57.23 19.14-.06c3.08-.1 3.1-4.9 0-4.8q-9.57.29-19.14.06c-3.1-.07-3.1 4.73 0 4.8m0 30.7q9.57.23 19.14-.06c3.08-.09 3.1-4.89 0-4.8q-9.57.3-19.14.06c-3.1-.07-3.1 4.73 0 4.8m0 30.71q9.57.25 19.14-.05c3.08-.1 3.1-4.9 0-4.8q-9.57.3-19.14.05c-3.1-.08-3.1 4.72 0 4.8m0-92.12q9.57.22 19.14-.05c3.09-.09 3.1-4.89 0-4.8q-9.57.26-19.14.05c-3.1-.08-3.1 4.72 0 4.8" class="d"/><path d="M68.6 148.9v110.2c0 3.09 4.8 3.1 4.8 0V148.9c0-3.09-4.8-3.1-4.8 0" class="d"/></svg>
