<svg fill="currentColor" viewBox="0 0 64 64" xmlns="http://www.w3.org/2000/svg" style="fill-rule:evenodd;clip-rule:evenodd;stroke-linejoin:round;stroke-miterlimit:2;"><rect id="Icons" x="-448" y="0" width="1280" height="800" style="fill:none;"/><g id="Icons1"><g id="list-ul"><path d="M12.016,12.164c-2.204,0 -3.983,1.778 -3.983,3.983c0,2.203 1.779,3.982 3.983,3.982c2.204,0 3.982,-1.779 3.982,-3.982c0,-2.205 -1.778,-3.983 -3.982,-3.983Z" style="fill-rule:nonzero;"/><path d="M12.016,28.094c-2.204,0 -3.983,1.779 -3.983,3.983c0,2.203 1.779,3.982 3.983,3.982c2.204,0 3.982,-1.779 3.982,-3.982c0,-2.204 -1.778,-3.983 -3.982,-3.983Z" style="fill-rule:nonzero;"/><path d="M12.016,44.024c-2.217,0 -3.983,1.792 -3.983,3.983c0,2.19 1.792,3.982 3.983,3.982c2.19,0 3.982,-1.792 3.982,-3.982c0,-2.191 -1.765,-3.983 -3.982,-3.983Z" style="fill-rule:nonzero;"/><rect x="23.981" y="45.848" width="32.083" height="4.023" style="fill-rule:nonzero;"/><rect x="23.981" y="13.997" width="32.083" height="3.984" style="fill-rule:nonzero;"/><rect x="23.981" y="29.915" width="32.083" height="4" style="fill-rule:nonzero;"/></g></g></svg>
