<svg xmlns="http://www.w3.org/2000/svg" fill="none" viewBox="0 0 31 30"><path fill="currentColor" d="M15.5 17.71a4.84 4.84 0 1 1 0-9.68 4.84 4.84 0 0 1 0 9.68m0-7.78a2.97 2.97 0 1 0 .01 5.93 2.97 2.97 0 0 0-.01-5.93"/><path fill="currentColor" d="M15.5 28.45c-1.85 0-3.71-.7-5.16-2.09-3.69-3.55-7.76-9.21-6.23-15.95C5.5 4.3 10.84 1.56 15.5 1.56h.01c4.67 0 10 2.74 11.39 8.87 1.53 6.73-2.55 12.38-6.24 15.93a7.5 7.5 0 0 1-5.16 2.09m0-25.01c-3.64 0-8.31 1.94-9.55 7.39C4.6 16.7 8.3 21.79 11.65 25a5.53 5.53 0 0 0 7.71 0c3.34-3.21 7.04-8.29 5.72-14.17-1.25-5.45-5.94-7.4-9.58-7.4"/></svg>
