<svg xmlns="http://www.w3.org/2000/svg" fill="currentColor" style="fill-rule:evenodd;clip-rule:evenodd;stroke-linejoin:round;stroke-miterlimit:2" viewBox="0 0 64 64"><path id="Icons" d="M-64-128h1280v800H-64z" style="fill:none"/><g id="Icons1"><path id="lock" d="M19.86 28.19c-.01-6.16.06-12.62 6.28-15.63 5.2-2.52 12.22-1.52 15.6 3.1a12.6 12.6 0 0 1 2.29 7.8V28a8.2 8.2 0 0 1 4.07 6.68c.05 4.67.42 9.4-.04 14.02a8.2 8.2 0 0 1-7.75 7.2c-5.67.06-11.36.52-17.02-.05a8.2 8.2 0 0 1-7.19-7.74c-.06-4.68-.42-9.4.04-14.02a8.1 8.1 0 0 1 3.72-5.92m4.12 2.71a4.13 4.13 0 0 0-3.88 3.89q-.07 6.6 0 13.23a4.13 4.13 0 0 0 3.88 3.88q8.12.1 16.24 0A4.13 4.13 0 0 0 44.1 48q.07-6.61 0-13.23a4.13 4.13 0 0 0-3.88-3.89 656 656 0 0 0-16.24 0m16.09-4c.09-4.27.1-8.46-3.35-10.5-3.34-1.99-8.2-1.67-10.8 1.23a8.5 8.5 0 0 0-2.05 5.76v3.52h.01q8.1-.1 16.19 0" style="fill-rule:nonzero"/></g></svg>
