<svg xmlns="http://www.w3.org/2000/svg" fill="none" viewBox="0 0 24 24"><path stroke="currentColor" stroke-linecap="round" stroke-width="1.5" d="M8 16c0 2.83 0 4.24.88 5.12.64.64 1.57.82 3.12.86M8 8c0-2.83 0-4.24.88-5.12S11.18 2 14 2h1c2.83 0 4.24 0 5.12.88S21 5.18 21 8v8c0 2.83 0 4.24-.88 5.12-.77.77-1.95.87-4.12.88M3 9.5v5c0 2.36 0 3.54.73 4.27s1.91.73 4.27.73M3.73 5.23C4.46 4.5 5.64 4.5 8 4.5"/><path stroke="currentColor" stroke-linecap="round" stroke-linejoin="round" stroke-width="1.5" d="M6 12h9m0 0-2.5 2.5M15 12l-2.5-2.5"/></svg>
