<svg xmlns="http://www.w3.org/2000/svg" fill="none" viewBox="0 0 24 24"><path fill="currentColor" d="M14.95 1.25c-1.37 0-2.47 0-3.34.12-.9.12-1.66.38-2.26.98a3.5 3.5 0 0 0-.93 1.93A16 16 0 0 0 8.25 7a.75.75 0 0 0 1.5 0c0-1.09.04-1.86.14-2.45.1-.57.28-.9.52-1.14.28-.28.66-.46 1.4-.56.75-.1 1.75-.1 3.19-.1h1c1.44 0 2.44 0 3.2.1.73.1 1.11.28 1.4.56.27.28.45.66.55 1.4.1.75.1 1.75.1 3.19v8c0 1.44 0 2.44-.1 3.2-.1.73-.28 1.11-.56 1.4-.28.27-.66.45-1.4.55-.75.1-1.75.1-3.19.1h-1c-1.44 0-2.44 0-3.2-.1-.73-.1-1.11-.28-1.4-.56a2 2 0 0 1-.5-1.14c-.11-.59-.14-1.36-.15-2.45a.75.75 0 1 0-1.5 0q-.02 1.63.17 2.72c.14.76.4 1.4.93 1.93.6.6 1.36.86 2.26.98.87.12 1.97.12 3.34.12h1.1c1.37 0 2.47 0 3.34-.12.9-.12 1.66-.38 2.26-.98s.86-1.36.98-2.26c.12-.87.12-1.97.12-3.34v-8.1c0-1.37 0-2.47-.12-3.34a3.7 3.7 0 0 0-.98-2.26c-.6-.6-1.36-.86-2.26-.98-.87-.12-1.97-.12-3.33-.12z"/><path fill="currentColor" d="M15 11.25a.75.75 0 0 1 0 1.5H4.03l1.96 1.68A.75.75 0 1 1 5 15.57l-3.5-3a.75.75 0 0 1 0-1.14l3.5-3a.75.75 0 1 1 1 1.14l-1.96 1.68z"/></svg>
