<svg xmlns="http://www.w3.org/2000/svg" viewBox="-28.46 0 261.75 261.75"><path d="M2.43 48.36v210.99h200v-211Z" style="fill:#f3736f"/><path d="M147.7 37.72a45.2 45.2 0 0 0-29.99-35.28C101.43-3.02 82.38.77 70.04 12.87a45.6 45.6 0 0 0-12.68 23.65 2.46 2.46 0 0 0 1.68 2.95A2.4 2.4 0 0 0 62 37.79 40.4 40.4 0 0 1 89.93 6.6c14.86-4.4 31.76-.62 42.55 10.71A41 41 0 0 1 143.08 39a2.4 2.4 0 0 0 2.95 1.67 2.46 2.46 0 0 0 1.67-2.95M35.77 256.95H2.43l2.4 2.4V56.96c0-2.74.13-5.52 0-8.25v-.35l-2.4 2.4h191.83c2.6 0 5.24.14 7.83 0h.34l-2.4-2.4v210.99l2.4-2.4zc-3.1 0-3.1 4.8 0 4.8h166.67a2.44 2.44 0 0 0 2.4-2.4v-211a2.44 2.44 0 0 0-2.4-2.4H10.59c-2.6 0-5.22-.05-7.83 0h-.33a2.43 2.43 0 0 0-2.4 2.4v202.4c0 2.74-.06 5.5 0 8.25v.35a2.44 2.44 0 0 0 2.4 2.4h33.33c3.09 0 3.1-4.8 0-4.8" style="fill:#211715"/></svg>
