<svg xmlns="http://www.w3.org/2000/svg" fill="none" viewBox="0 0 24 24"><path stroke="currentColor" stroke-linejoin="round" stroke-width="2" d="M14 6c1.89 0 2.83 0 3.41.59C18 7.17 18 8.1 18 10v6c0 1.89 0 2.83-.59 3.41-.58.59-1.52.59-3.41.59h-4c-1.89 0-2.83 0-3.41-.59C6 18.83 6 17.9 6 16v-6c0-1.89 0-2.83.59-3.41C7.17 6 8.1 6 10 6z"/><path stroke="currentColor" stroke-linecap="round" stroke-width="2" d="M7 16h10M7 10h10"/><path stroke="currentColor" stroke-linecap="round" stroke-linejoin="round" stroke-width="2" d="M8 20v1M9 6V5c0-1.1.9-2 2-2h2a2 2 0 0 1 2 2v1m1 14v1"/></svg>
