<svg xmlns="http://www.w3.org/2000/svg" fill="none" viewBox="0 0 24 24"><path fill="currentColor" fill-rule="evenodd" d="M17.54 1.5c-.71-.41-1.48-.25-2.2.04q-1.04.47-2.63 1.43l-.63.38c-.69.4-.85.48-1 .5s-.31-.01-1.05-.24l-.68-.21a22 22 0 0 0-2.83-.75c-.77-.12-1.53-.07-2.14.48-.6.56-.73 1.31-.7 2.1.03.76.22 1.74.44 2.93l.14.7c.14.78.16.95.12 1.11s-.13.32-.6.97l-.43.6c-.73 1-1.32 1.83-1.68 2.51-.36.7-.59 1.44-.27 2.2.33.76 1.03 1.1 1.78 1.28.72.18 1.7.27 2.9.38l.72.06c.78.07.94.1 1.06.17s.23.2.68.83l.41.58c.7.97 1.27 1.77 1.79 2.3.54.56 1.18.99 2 .89.81-.1 1.35-.67 1.77-1.33.42-.65.84-1.57 1.36-2.7l.3-.66.27-.55.03.03 4 4a.75.75 0 1 0 1.06-1.06l-3.84-3.84.07-.03.68-.24q1.75-.58 2.78-1.09c.7-.36 1.3-.85 1.48-1.64.18-.8-.16-1.49-.65-2.1-.46-.58-1.19-1.24-2.07-2.05L19.46 9c-.57-.52-.68-.64-.73-.77-.06-.14-.08-.31-.06-1.1V6.4a23 23 0 0 0-.06-2.98c-.1-.77-.35-1.51-1.07-1.92m-4.12 2.8a23 23 0 0 1 2.5-1.37c.59-.25.78-.19.88-.13s.24.19.33.81c.08.63.07 1.53.05 2.83l-.02.78c0 .6-.01 1.12.18 1.6.2.47.58.81 1.02 1.21l.09.08.47.44a21 21 0 0 1 1.96 1.92c.38.47.39.69.36.82-.04.15-.15.36-.71.65-.57.3-1.41.6-2.64 1.03l-.74.25c-.57.2-1.06.37-1.44.72s-.59.81-.85 1.38l-.33.71c-.55 1.2-.93 2.02-1.28 2.57s-.56.63-.7.65c-.12.01-.31 0-.74-.44s-.93-1.15-1.67-2.19l-.38-.52-.07-.1a4 4 0 0 0-1.09-1.16c-.44-.25-.95-.3-1.55-.35l-.12-.01-.64-.06a21 21 0 0 1-2.75-.35c-.6-.15-.71-.3-.76-.41-.05-.12-.08-.34.22-.91s.83-1.31 1.6-2.39l.46-.63c.37-.5.67-.93.78-1.42.12-.5.02-1-.09-1.6l-.14-.76c-.24-1.27-.4-2.14-.43-2.78s.1-.82.21-.93c.11-.1.3-.2.91-.1.62.08 1.45.34 2.67.71l.73.22c.57.18 1.05.33 1.56.27.51-.07.96-.33 1.48-.64z" clip-rule="evenodd"/></svg>
