<svg viewBox="0 0 20 20" fill="none" xmlns="http://www.w3.org/2000/svg"><mask id="path-1-inside-1_22313_10518" fill="white"><path fill-rule="evenodd" clip-rule="evenodd" d="M14.5836 9.79045C16.9996 9.79063 18.9584 11.7495 18.9586 14.1654V14.5824C18.9586 15.6179 18.119 16.4572 17.0836 16.4574C16.4838 16.4574 15.9493 16.176 15.6061 15.7377C15.312 15.9294 14.9608 16.0404 14.5836 16.0404C13.5481 16.0404 12.7086 15.201 12.7086 14.1654C12.7088 13.1301 13.5482 12.2904 14.5836 12.2904C15.6188 12.2906 16.4584 13.1302 16.4586 14.1654V14.5824C16.4586 14.9276 16.7384 15.2074 17.0836 15.2074C17.4286 15.2072 17.7086 14.9275 17.7086 14.5824V14.1654C17.7084 12.4398 16.3092 11.0406 14.5836 11.0404C12.8578 11.0404 11.4588 12.4397 11.4586 14.1654C11.4586 15.8913 12.8577 17.2904 14.5836 17.2904C14.9285 17.2906 15.2084 17.5705 15.2086 17.9154C15.2086 18.2605 14.9286 18.5403 14.5836 18.5404C12.1673 18.5404 10.2086 16.5817 10.2086 14.1654C10.2088 11.7494 12.1675 9.79045 14.5836 9.79045ZM7.56699 1.48771C9.19435 1.44681 10.8058 1.4468 12.4332 1.48771L12.482 1.48966C13.7525 1.52159 14.7749 1.54708 15.5943 1.68986C16.4522 1.83935 17.1499 2.12569 17.7389 2.7172C18.3253 3.30621 18.6099 3.99412 18.7564 4.8383C18.896 5.64236 18.9176 6.64088 18.9439 7.87736L18.9449 7.92619C18.9457 7.96377 18.9461 7.99958 18.9469 8.03361C18.9535 8.34006 18.958 8.5134 18.9586 8.74748C18.9595 9.09265 18.6797 9.37356 18.3346 9.37443C17.9895 9.37521 17.7095 9.09552 17.7086 8.75041C17.708 8.52877 17.7045 8.36719 17.6978 8.05802C17.6971 8.02475 17.6957 7.98951 17.6949 7.95255C17.6707 6.81649 17.6511 5.98262 17.565 5.32267L12.8805 7.98283C11.8092 8.59103 10.9297 8.96027 9.99961 8.96037C9.06934 8.96037 8.18922 8.59111 7.11777 7.98283L2.4332 5.32267C2.34719 5.98259 2.3285 6.8166 2.30429 7.95255C2.28697 8.76556 2.28697 9.57412 2.30429 10.3871C2.33194 11.684 2.35271 12.5875 2.47422 13.2875C2.59056 13.9578 2.79101 14.383 3.14707 14.7406C3.50053 15.0955 3.93056 15.2982 4.61972 15.4184C5.33739 15.5434 6.26767 15.5685 7.59824 15.602C7.98564 15.6117 8.37243 15.6194 8.7584 15.6244C9.10337 15.6291 9.37908 15.9122 9.37461 16.2572C9.3701 16.6024 9.08692 16.8789 8.74179 16.8744C8.35082 16.8693 7.95933 16.8618 7.56699 16.852L7.51816 16.85C6.24767 16.8181 5.22526 16.7926 4.40586 16.6498C3.54801 16.5003 2.8503 16.2139 2.26133 15.6225C1.67484 15.0334 1.38933 14.3457 1.24277 13.5014C1.10322 12.6973 1.08258 11.6988 1.05625 10.4623L1.05527 10.4135C1.03757 9.58277 1.03757 8.75691 1.05527 7.92619L1.05625 7.87736C1.08258 6.6409 1.10322 5.64235 1.24277 4.8383C1.38933 3.99407 1.67487 3.30623 2.26133 2.7172C2.85029 2.12581 3.54803 1.83934 4.40586 1.68986C5.22525 1.54713 6.24769 1.52158 7.51816 1.48966L7.56699 1.48771ZM14.5836 13.5404C14.2385 13.5404 13.9588 13.8204 13.9586 14.1654C13.9586 14.5106 14.2384 14.7904 14.5836 14.7904C14.9286 14.7903 15.2086 14.5105 15.2086 14.1654C15.2084 13.8205 14.9285 13.5406 14.5836 13.5404ZM12.4019 2.73771C10.7954 2.69732 9.20475 2.69733 7.59824 2.73771C6.26768 2.77116 5.33739 2.79625 4.61972 2.9213C3.93035 3.04147 3.50059 3.24495 3.14707 3.60002C3.00133 3.74642 2.88217 3.9042 2.78379 4.08537L7.73496 6.89591C8.7682 7.4825 9.40974 7.71037 9.99961 7.71037C10.5894 7.71027 11.2303 7.48238 12.2633 6.89591L17.2145 4.08439C17.1162 3.9039 16.9984 3.74598 16.8531 3.60002C16.4995 3.24489 16.069 3.04146 15.3795 2.9213C14.6619 2.79629 13.7323 2.77116 12.4019 2.73771Z"/></mask><path fill-rule="evenodd" clip-rule="evenodd" d="M14.5836 9.79045C16.9996 9.79063 18.9584 11.7495 18.9586 14.1654V14.5824C18.9586 15.6179 18.119 16.4572 17.0836 16.4574C16.4838 16.4574 15.9493 16.176 15.6061 15.7377C15.312 15.9294 14.9608 16.0404 14.5836 16.0404C13.5481 16.0404 12.7086 15.201 12.7086 14.1654C12.7088 13.1301 13.5482 12.2904 14.5836 12.2904C15.6188 12.2906 16.4584 13.1302 16.4586 14.1654V14.5824C16.4586 14.9276 16.7384 15.2074 17.0836 15.2074C17.4286 15.2072 17.7086 14.9275 17.7086 14.5824V14.1654C17.7084 12.4398 16.3092 11.0406 14.5836 11.0404C12.8578 11.0404 11.4588 12.4397 11.4586 14.1654C11.4586 15.8913 12.8577 17.2904 14.5836 17.2904C14.9285 17.2906 15.2084 17.5705 15.2086 17.9154C15.2086 18.2605 14.9286 18.5403 14.5836 18.5404C12.1673 18.5404 10.2086 16.5817 10.2086 14.1654C10.2088 11.7494 12.1675 9.79045 14.5836 9.79045ZM7.56699 1.48771C9.19435 1.44681 10.8058 1.4468 12.4332 1.48771L12.482 1.48966C13.7525 1.52159 14.7749 1.54708 15.5943 1.68986C16.4522 1.83935 17.1499 2.12569 17.7389 2.7172C18.3253 3.30621 18.6099 3.99412 18.7564 4.8383C18.896 5.64236 18.9176 6.64088 18.9439 7.87736L18.9449 7.92619C18.9457 7.96377 18.9461 7.99958 18.9469 8.03361C18.9535 8.34006 18.958 8.5134 18.9586 8.74748C18.9595 9.09265 18.6797 9.37356 18.3346 9.37443C17.9895 9.37521 17.7095 9.09552 17.7086 8.75041C17.708 8.52877 17.7045 8.36719 17.6978 8.05802C17.6971 8.02475 17.6957 7.98951 17.6949 7.95255C17.6707 6.81649 17.6511 5.98262 17.565 5.32267L12.8805 7.98283C11.8092 8.59103 10.9297 8.96027 9.99961 8.96037C9.06934 8.96037 8.18922 8.59111 7.11777 7.98283L2.4332 5.32267C2.34719 5.98259 2.3285 6.8166 2.30429 7.95255C2.28697 8.76556 2.28697 9.57412 2.30429 10.3871C2.33194 11.684 2.35271 12.5875 2.47422 13.2875C2.59056 13.9578 2.79101 14.383 3.14707 14.7406C3.50053 15.0955 3.93056 15.2982 4.61972 15.4184C5.33739 15.5434 6.26767 15.5685 7.59824 15.602C7.98564 15.6117 8.37243 15.6194 8.7584 15.6244C9.10337 15.6291 9.37908 15.9122 9.37461 16.2572C9.3701 16.6024 9.08692 16.8789 8.74179 16.8744C8.35082 16.8693 7.95933 16.8618 7.56699 16.852L7.51816 16.85C6.24767 16.8181 5.22526 16.7926 4.40586 16.6498C3.54801 16.5003 2.8503 16.2139 2.26133 15.6225C1.67484 15.0334 1.38933 14.3457 1.24277 13.5014C1.10322 12.6973 1.08258 11.6988 1.05625 10.4623L1.05527 10.4135C1.03757 9.58277 1.03757 8.75691 1.05527 7.92619L1.05625 7.87736C1.08258 6.6409 1.10322 5.64235 1.24277 4.8383C1.38933 3.99407 1.67487 3.30623 2.26133 2.7172C2.85029 2.12581 3.54803 1.83934 4.40586 1.68986C5.22525 1.54713 6.24769 1.52158 7.51816 1.48966L7.56699 1.48771ZM14.5836 13.5404C14.2385 13.5404 13.9588 13.8204 13.9586 14.1654C13.9586 14.5106 14.2384 14.7904 14.5836 14.7904C14.9286 14.7903 15.2086 14.5105 15.2086 14.1654C15.2084 13.8205 14.9285 13.5406 14.5836 13.5404ZM12.4019 2.73771C10.7954 2.69732 9.20475 2.69733 7.59824 2.73771C6.26768 2.77116 5.33739 2.79625 4.61972 2.9213C3.93035 3.04147 3.50059 3.24495 3.14707 3.60002C3.00133 3.74642 2.88217 3.9042 2.78379 4.08537L7.73496 6.89591C8.7682 7.4825 9.40974 7.71037 9.99961 7.71037C10.5894 7.71027 11.2303 7.48238 12.2633 6.89591L17.2145 4.08439C17.1162 3.9039 16.9984 3.74598 16.8531 3.60002C16.4995 3.24489 16.069 3.04146 15.3795 2.9213C14.6619 2.79629 13.7323 2.77116 12.4019 2.73771Z" fill="#161616"/><path d="M14.5836 9.79045L14.5837 8.12378H14.5836V9.79045ZM18.9586 14.1654H20.6253V14.1653L18.9586 14.1654ZM17.0836 16.4574V18.1241H17.0839L17.0836 16.4574ZM15.6061 15.7377L16.9182 14.7101C16.3851 14.0294 15.42 13.8694 14.6958 14.3416L15.6061 15.7377ZM14.5836 16.0404V17.7071H14.5839L14.5836 16.0404ZM12.7086 14.1654L11.0419 14.1651V14.1654H12.7086ZM14.5836 12.2904L14.5839 10.6238H14.5836V12.2904ZM16.4586 14.1654H18.1253V14.1651L16.4586 14.1654ZM17.0836 15.2074V16.8741L17.0845 16.8741L17.0836 15.2074ZM17.7086 14.1654H19.3753V14.1653L17.7086 14.1654ZM14.5836 11.0404L14.5838 9.37378H14.5836V11.0404ZM11.4586 14.1654L9.79192 14.1653V14.1654H11.4586ZM14.5836 17.2904L14.5845 15.6238H14.5836V17.2904ZM15.2086 17.9154H16.8753V17.9145L15.2086 17.9154ZM14.5836 18.5404V20.2071H14.5845L14.5836 18.5404ZM10.2086 14.1654L8.54192 14.1653V14.1654H10.2086ZM7.56699 1.48771L7.52511 -0.17843C7.51687 -0.178222 7.50862 -0.177954 7.50038 -0.177624L7.56699 1.48771ZM12.4332 1.48771L12.4998 -0.177624C12.4916 -0.177954 12.4833 -0.178222 12.4751 -0.178429L12.4332 1.48771ZM12.482 1.48966L12.4154 3.155C12.4237 3.15533 12.4319 3.1556 12.4402 3.1558L12.482 1.48966ZM15.5943 1.68986L15.8804 0.0479349L15.8804 0.0479329L15.5943 1.68986ZM17.7389 2.7172L18.92 1.54127L18.9199 1.5412L17.7389 2.7172ZM18.7564 4.8383L20.3986 4.5533L20.3985 4.55319L18.7564 4.8383ZM18.9439 7.87736L20.6103 7.84403L20.6102 7.84187L18.9439 7.87736ZM18.9449 7.92619L17.2786 7.95951L17.2786 7.96171L18.9449 7.92619ZM18.9469 8.03361L20.6132 7.99783L20.6132 7.99781L18.9469 8.03361ZM18.9586 8.74748L20.6253 8.74327V8.74325L18.9586 8.74748ZM18.3346 9.37443L18.3383 11.0411L18.3388 11.0411L18.3346 9.37443ZM17.7086 8.75041L19.3753 8.74619V8.74618L17.7086 8.75041ZM17.6978 8.05802L16.0316 8.09377V8.09378L17.6978 8.05802ZM17.6949 7.95255L16.0286 7.98807V7.98809L17.6949 7.95255ZM17.565 5.32267L19.2177 5.10723C19.146 4.55698 18.8051 4.07852 18.3085 3.831C17.8118 3.58348 17.2246 3.59937 16.742 3.87337L17.565 5.32267ZM12.8805 7.98283L13.7033 9.43221L13.7035 9.43213L12.8805 7.98283ZM9.99961 8.96037V10.627H9.99979L9.99961 8.96037ZM7.11777 7.98283L6.29478 9.43213L6.29493 9.43221L7.11777 7.98283ZM2.4332 5.32267L3.25619 3.87337C2.77365 3.59936 2.18638 3.58348 1.68974 3.83101C1.1931 4.07855 0.852224 4.55702 0.78051 5.10728L2.4332 5.32267ZM2.30429 7.95255L0.638006 7.91704V7.91704L2.30429 7.95255ZM2.30429 10.3871L0.638006 10.4226V10.4226L2.30429 10.3871ZM2.47422 13.2875L0.832098 13.5725L0.832103 13.5725L2.47422 13.2875ZM3.14707 14.7406L1.96598 15.9166L1.96619 15.9168L3.14707 14.7406ZM4.61972 15.4184L4.33352 17.0603L4.33361 17.0603L4.61972 15.4184ZM7.59824 15.602L7.55635 17.2681H7.55636L7.59824 15.602ZM8.7584 15.6244L8.78101 13.9579L8.78017 13.9579L8.7584 15.6244ZM9.37461 16.2572L11.0411 16.279L11.0411 16.2789L9.37461 16.2572ZM8.74179 16.8744L8.72003 18.541L8.72015 18.541L8.74179 16.8744ZM7.56699 16.852L7.50038 18.5173C7.50862 18.5176 7.51686 18.5179 7.52511 18.5181L7.56699 16.852ZM7.51816 16.85L7.58477 15.1847C7.57653 15.1844 7.56827 15.1841 7.56002 15.1839L7.51816 16.85ZM4.40586 16.6498L4.11974 18.2917L4.11983 18.2918L4.40586 16.6498ZM2.26133 15.6225L1.08024 16.7984L1.08037 16.7985L2.26133 15.6225ZM1.24277 13.5014L-0.399348 13.7864L-0.399338 13.7864L1.24277 13.5014ZM1.05625 10.4623L-0.610088 10.4956L-0.610042 10.4978L1.05625 10.4623ZM1.05527 10.4135L2.72161 10.3802L2.72156 10.378L1.05527 10.4135ZM1.05527 7.92619L2.72156 7.9617L2.7216 7.95951L1.05527 7.92619ZM1.05625 7.87736L-0.610043 7.84187L-0.610086 7.84403L1.05625 7.87736ZM1.24277 4.8383L-0.399333 4.55321L-0.399348 4.5533L1.24277 4.8383ZM2.26133 2.7172L1.08039 1.54112L1.08024 1.54127L2.26133 2.7172ZM4.40586 1.68986L4.11984 0.0479177L4.11974 0.0479344L4.40586 1.68986ZM7.51816 1.48966L7.56002 3.1558C7.56827 3.1556 7.57652 3.15533 7.58477 3.155L7.51816 1.48966ZM14.5836 13.5404L14.5845 11.8738H14.5836V13.5404ZM13.9586 14.1654L12.2919 14.1645V14.1654H13.9586ZM14.5836 14.7904V16.4571L14.5845 16.4571L14.5836 14.7904ZM15.2086 14.1654H16.8753V14.1645L15.2086 14.1654ZM12.4019 2.73771L12.4438 1.07157V1.07157L12.4019 2.73771ZM7.59824 2.73771L7.55636 1.07157L7.55636 1.07157L7.59824 2.73771ZM4.61972 2.9213L4.33361 1.27938L4.33353 1.27939L4.61972 2.9213ZM3.14707 3.60002L1.96598 2.42408L1.96588 2.42418L3.14707 3.60002ZM2.78379 4.08537L1.31917 3.28996C0.8857 4.08813 1.17113 5.08641 1.96102 5.53479L2.78379 4.08537ZM7.73496 6.89591L8.55779 5.44653L8.55773 5.44649L7.73496 6.89591ZM9.99961 7.71037V9.37703H9.99988L9.99961 7.71037ZM12.2633 6.89591L13.0861 8.3453L13.0863 8.34521L12.2633 6.89591ZM17.2145 4.08439L18.0374 5.53369C18.8276 5.085 19.1127 4.08606 18.6785 3.28787L17.2145 4.08439ZM16.8531 3.60002L18.0344 2.42431L18.0342 2.42408L16.8531 3.60002ZM15.3795 2.9213L15.6656 1.27938L15.6655 1.27937L15.3795 2.9213ZM14.5836 9.79045L14.5835 11.4571C16.079 11.4572 17.2918 12.67 17.2919 14.1656L18.9586 14.1654L20.6253 14.1653C20.625 10.829 17.9201 8.12404 14.5837 8.12378L14.5836 9.79045ZM18.9586 14.1654H17.2919V14.5824H18.9586H20.6253V14.1654H18.9586ZM18.9586 14.5824H17.2919C17.2919 14.6971 17.1987 14.7907 17.0833 14.7908L17.0836 16.4574L17.0839 18.1241C19.0392 18.1237 20.6253 16.5386 20.6253 14.5824H18.9586ZM17.0836 16.4574V14.7908C17.017 14.7908 16.9586 14.7617 16.9182 14.7101L15.6061 15.7377L14.2939 16.7653C14.9399 17.5902 15.9506 18.1241 17.0836 18.1241V16.4574ZM15.6061 15.7377L14.6958 14.3416C14.6655 14.3613 14.6292 14.3738 14.5833 14.3738L14.5836 16.0404L14.5839 17.7071C15.2923 17.707 15.9585 17.4976 16.5163 17.1338L15.6061 15.7377ZM14.5836 16.0404V14.3738C14.4685 14.3738 14.3753 14.2805 14.3753 14.1654H12.7086H11.0419C11.0419 16.1215 12.6276 17.7071 14.5836 17.7071V16.0404ZM12.7086 14.1654L14.3753 14.1658C14.3753 14.0503 14.469 13.9571 14.5836 13.9571V12.2904V10.6238C12.6274 10.6238 11.0423 12.2098 11.0419 14.1651L12.7086 14.1654ZM14.5836 12.2904L14.5833 13.9571C14.6983 13.9571 14.7919 14.0507 14.7919 14.1658L16.4586 14.1654L18.1253 14.1651C18.1249 12.2097 16.5394 10.6241 14.5839 10.6238L14.5836 12.2904ZM16.4586 14.1654H14.7919V14.5824H16.4586H18.1253V14.1654H16.4586ZM16.4586 14.5824H14.7919C14.7919 15.8481 15.8179 16.8741 17.0836 16.8741V15.2074V13.5408C17.6589 13.5408 18.1253 14.0071 18.1253 14.5824H16.4586ZM17.0836 15.2074L17.0845 16.8741C18.3484 16.8734 19.3753 15.8489 19.3753 14.5824H17.7086H16.0419C16.0419 14.0061 16.5088 13.5411 17.0827 13.5408L17.0836 15.2074ZM17.7086 14.5824H19.3753V14.1654H17.7086H16.0419V14.5824H17.7086ZM17.7086 14.1654L19.3753 14.1653C19.375 11.5193 17.2297 9.37407 14.5838 9.37378L14.5836 11.0404L14.5834 12.7071C15.3887 12.7072 16.0418 13.3603 16.0419 14.1656L17.7086 14.1654ZM14.5836 11.0404V9.37378C11.9372 9.37378 9.79222 11.5194 9.79192 14.1653L11.4586 14.1654L13.1253 14.1656C13.1253 13.36 13.7785 12.7071 14.5836 12.7071V11.0404ZM11.4586 14.1654H9.79192C9.79192 16.8118 11.9372 18.9571 14.5836 18.9571V17.2904V15.6238C13.7782 15.6238 13.1253 14.9709 13.1253 14.1654H11.4586ZM14.5836 17.2904L14.5827 18.9571C14.0078 18.9568 13.5423 18.4912 13.5419 17.9164L15.2086 17.9154L16.8753 17.9145C16.8745 16.6499 15.8492 15.6245 14.5845 15.6238L14.5836 17.2904ZM15.2086 17.9154H13.5419C13.5419 17.3391 14.0088 16.8741 14.5827 16.8738L14.5836 18.5404L14.5845 20.2071C15.8484 20.2064 16.8753 19.1819 16.8753 17.9154H15.2086ZM14.5836 18.5404V16.8738C13.0878 16.8738 11.8753 15.6612 11.8753 14.1654H10.2086H8.54192C8.54192 17.5022 11.2469 20.2071 14.5836 20.2071V18.5404ZM10.2086 14.1654L11.8753 14.1656C11.8754 12.6697 13.0881 11.4571 14.5836 11.4571V9.79045V8.12378C11.2469 8.12378 8.5422 10.829 8.54192 14.1653L10.2086 14.1654ZM7.56699 1.48771L7.60887 3.15385C9.20832 3.11365 10.7919 3.11364 12.3913 3.15385L12.4332 1.48771L12.4751 -0.178429C10.8198 -0.220042 9.18038 -0.220032 7.52511 -0.17843L7.56699 1.48771ZM12.4332 1.48771L12.3666 3.15305L12.4154 3.155L12.482 1.48966L12.5486 -0.175671L12.4998 -0.177624L12.4332 1.48771ZM12.482 1.48966L12.4402 3.1558C13.757 3.18889 14.6376 3.21493 15.3082 3.33179L15.5943 1.68986L15.8804 0.0479329C14.9123 -0.120763 13.7481 -0.145719 12.5239 -0.176477L12.482 1.48966ZM15.5943 1.68986L15.3082 3.33178C15.9429 3.44238 16.2835 3.61769 16.5578 3.8932L17.7389 2.7172L18.9199 1.5412C18.0162 0.633685 16.9616 0.236325 15.8804 0.0479349L15.5943 1.68986ZM17.7389 2.7172L16.5578 3.89313C16.8362 4.17274 17.0078 4.50979 17.1143 5.12341L18.7564 4.8383L20.3985 4.55319C20.2119 3.47846 19.8144 2.43967 18.92 1.54127L17.7389 2.7172ZM18.7564 4.8383L17.1143 5.1233C17.2276 5.77577 17.2503 6.63052 17.2777 7.91285L18.9439 7.87736L20.6102 7.84187C20.5849 6.65123 20.5644 5.50895 20.3986 4.5533L18.7564 4.8383ZM18.9439 7.87736L17.2776 7.91069L17.2786 7.95951L18.9449 7.92619L20.6113 7.89286L20.6103 7.84403L18.9439 7.87736ZM18.9449 7.92619L17.2786 7.96171C17.2789 7.97597 17.2792 7.99051 17.2795 8.00885C17.2798 8.02583 17.2801 8.04755 17.2806 8.06941L18.9469 8.03361L20.6132 7.99781C20.6129 7.98564 20.6127 7.97243 20.6124 7.95361C20.6121 7.93614 20.6117 7.91399 20.6112 7.89067L18.9449 7.92619ZM18.9469 8.03361L17.2806 8.06938C17.2873 8.38409 17.2914 8.53751 17.2919 8.7517L18.9586 8.74748L20.6253 8.74325C20.6246 8.48929 20.6196 8.29604 20.6132 7.99783L18.9469 8.03361ZM18.9586 8.74748L17.2919 8.75168C17.2905 8.1756 17.7559 7.70922 18.3304 7.70777L18.3346 9.37443L18.3388 11.0411C19.6036 11.0379 20.6284 10.0097 20.6253 8.74327L18.9586 8.74748ZM18.3346 9.37443L18.3308 7.70777C18.9096 7.70646 19.3738 8.17457 19.3753 8.74619L17.7086 8.75041L16.0419 8.75462C16.0451 10.0165 17.0694 11.0439 18.3383 11.0411L18.3346 9.37443ZM17.7086 8.75041L19.3753 8.74618C19.3746 8.50615 19.3707 8.32879 19.3641 8.02227L17.6978 8.05802L16.0316 8.09378C16.0383 8.40559 16.0414 8.5514 16.0419 8.75463L17.7086 8.75041ZM17.6978 8.05802L19.3641 8.02228C19.3636 7.99617 19.3628 7.97063 19.3623 7.95508C19.3617 7.9368 19.3614 7.92635 19.3612 7.91702L17.6949 7.95255L16.0286 7.98809C16.0292 8.01571 16.03 8.04136 16.0305 8.05826C16.0312 8.07789 16.0314 8.0866 16.0316 8.09377L17.6978 8.05802ZM17.6949 7.95255L19.3612 7.91704C19.3377 6.81416 19.3181 5.87693 19.2177 5.10723L17.565 5.32267L15.9124 5.53811C15.9841 6.08832 16.0037 6.81882 16.0286 7.98807L17.6949 7.95255ZM17.565 5.32267L16.742 3.87337L12.0575 6.53353L12.8805 7.98283L13.7035 9.43213L18.388 6.77197L17.565 5.32267ZM12.8805 7.98283L12.0576 6.53344C11.0383 7.11216 10.4764 7.29365 9.99943 7.2937L9.99961 8.96037L9.99979 10.627C11.3831 10.6269 12.5801 10.0699 13.7033 9.43221L12.8805 7.98283ZM9.99961 8.96037V7.2937C9.52246 7.2937 8.95985 7.11208 7.94061 6.53344L7.11777 7.98283L6.29493 9.43221C7.4186 10.0701 8.61622 10.627 9.99961 10.627V8.96037ZM7.11777 7.98283L7.94076 6.53353L3.25619 3.87337L2.4332 5.32267L1.61021 6.77197L6.29478 9.43213L7.11777 7.98283ZM2.4332 5.32267L0.78051 5.10728C0.680142 5.8774 0.661467 6.81622 0.638006 7.91704L2.30429 7.95255L3.97058 7.98807C3.99554 6.81698 4.01425 6.08778 4.08589 5.53806L2.4332 5.32267ZM2.30429 7.95255L0.638006 7.91704C0.620174 8.75372 0.620173 9.58596 0.638006 10.4226L2.30429 10.3871L3.97058 10.3516C3.95376 9.56228 3.95376 8.7774 3.97058 7.98807L2.30429 7.95255ZM2.30429 10.3871L0.638006 10.4226C0.664544 11.6678 0.68404 12.7194 0.832098 13.5725L2.47422 13.2875L4.11633 13.0025C4.02139 12.4555 3.99933 11.7003 3.97058 10.3516L2.30429 10.3871ZM2.47422 13.2875L0.832103 13.5725C0.988992 14.4764 1.3035 15.2512 1.96598 15.9166L3.14707 14.7406L4.32815 13.5647C4.28186 13.5182 4.25656 13.4814 4.23206 13.4287C4.2021 13.3642 4.15767 13.2407 4.11633 13.0025L2.47422 13.2875ZM3.14707 14.7406L1.96619 15.9168C2.63362 16.5869 3.42001 16.901 4.33352 17.0603L4.61972 15.4184L4.90593 13.7765C4.65565 13.7328 4.52525 13.6863 4.45744 13.655C4.40241 13.6295 4.36855 13.6053 4.32794 13.5645L3.14707 14.7406ZM4.61972 15.4184L4.33361 17.0603C5.20105 17.2115 6.27641 17.2359 7.55635 17.2681L7.59824 15.602L7.64012 13.9358C6.25894 13.9011 5.47373 13.8754 4.90584 13.7765L4.61972 15.4184ZM7.59824 15.602L7.55636 17.2681C7.94958 17.278 8.34312 17.2858 8.73662 17.291L8.7584 15.6244L8.78017 13.9579C8.40173 13.953 8.0217 13.9454 7.64012 13.9358L7.59824 15.602ZM8.7584 15.6244L8.73578 17.2909C8.16072 17.2831 7.70062 16.8106 7.70808 16.2356L9.37461 16.2572L11.0411 16.2789C11.0575 15.0139 10.046 13.9751 8.78101 13.9579L8.7584 15.6244ZM9.37461 16.2572L7.70808 16.2355C7.71556 15.6625 8.18595 15.2004 8.76344 15.2079L8.74179 16.8744L8.72015 18.541C9.98789 18.5574 11.0246 17.5422 11.0411 16.279L9.37461 16.2572ZM8.74179 16.8744L8.76355 15.2079C8.37935 15.2029 7.99457 15.1955 7.60887 15.1858L7.56699 16.852L7.52511 18.5181C7.9241 18.5281 8.32229 18.5358 8.72003 18.541L8.74179 16.8744ZM7.56699 16.852L7.6336 15.1866L7.58477 15.1847L7.51816 16.85L7.45155 18.5154L7.50038 18.5173L7.56699 16.852ZM7.51816 16.85L7.56002 15.1839C6.24331 15.1508 5.3626 15.1247 4.69188 15.0079L4.40586 16.6498L4.11983 18.2918C5.08791 18.4604 6.25203 18.4854 7.4763 18.5162L7.51816 16.85ZM4.40586 16.6498L4.69197 15.0079C4.05741 14.8973 3.71666 14.7219 3.44228 14.4464L2.26133 15.6225L1.08037 16.7985C1.98394 17.7059 3.03861 18.1034 4.11974 18.2917L4.40586 16.6498ZM2.26133 15.6225L3.44241 14.4465C3.16314 14.1661 2.99114 13.8285 2.88488 13.2163L1.24277 13.5014L-0.399338 13.7864C-0.212483 14.8628 0.186544 15.9008 1.08024 16.7984L2.26133 15.6225ZM1.24277 13.5014L2.88489 13.2164C2.77172 12.5643 2.74988 11.7109 2.72254 10.4268L1.05625 10.4623L-0.610042 10.4978C-0.584722 11.6867 -0.56528 12.8303 -0.399348 13.7864L1.24277 13.5014ZM1.05625 10.4623L2.72258 10.429L2.7216 10.3802L1.05527 10.4135L-0.611063 10.4468L-0.610086 10.4956L1.05625 10.4623ZM1.05527 10.4135L2.72156 10.378C2.70436 9.57093 2.70436 8.76875 2.72156 7.9617L1.05527 7.92619L-0.611018 7.89067C-0.629227 8.74507 -0.629226 9.59461 -0.611018 10.449L1.05527 10.4135ZM1.05527 7.92619L2.7216 7.95951L2.72258 7.91069L1.05625 7.87736L-0.610086 7.84403L-0.611063 7.89286L1.05527 7.92619ZM1.05625 7.87736L2.72254 7.91284C2.74988 6.62883 2.77172 5.77534 2.88489 5.1233L1.24277 4.8383L-0.399348 4.5533C-0.56528 5.50937 -0.584723 6.65297 -0.610042 7.84187L1.05625 7.87736ZM1.24277 4.8383L2.88487 5.12338C2.99115 4.51124 3.16318 4.17359 3.44241 3.89313L2.26133 2.7172L1.08024 1.54127C0.186557 2.43887 -0.212477 3.47691 -0.399333 4.55321L1.24277 4.8383ZM2.26133 2.7172L3.44226 3.89329C3.71666 3.61776 4.05747 3.44235 4.69197 3.33178L4.40586 1.68986L4.11974 0.0479344C3.0386 0.236328 1.98393 0.633855 1.08039 1.54112L2.26133 2.7172ZM4.40586 1.68986L4.69187 3.3318C5.36259 3.21497 6.24335 3.18888 7.56002 3.1558L7.51816 1.48966L7.4763 -0.176477C6.25204 -0.14572 5.08791 -0.120713 4.11984 0.0479177L4.40586 1.68986ZM7.51816 1.48966L7.58477 3.155L7.6336 3.15305L7.56699 1.48771L7.50038 -0.177624L7.45155 -0.175671L7.51816 1.48966ZM14.5836 13.5404V11.8738C13.3171 11.8738 12.2926 12.9007 12.2919 14.1645L13.9586 14.1654L15.6253 14.1664C15.6249 14.7402 15.16 15.2071 14.5836 15.2071V13.5404ZM13.9586 14.1654H12.2919C12.2919 15.4311 13.3179 16.4571 14.5836 16.4571V14.7904V13.1238C15.1589 13.1238 15.6253 13.5901 15.6253 14.1654H13.9586ZM14.5836 14.7904L14.5845 16.4571C15.8484 16.4564 16.8753 15.4319 16.8753 14.1654H15.2086H13.5419C13.5419 13.5891 14.0088 13.1241 14.5827 13.1238L14.5836 14.7904ZM15.2086 14.1654L16.8753 14.1645C16.8745 12.8999 15.8492 11.8745 14.5845 11.8738L14.5836 13.5404L14.5827 15.2071C14.0078 15.2068 13.5423 14.7412 13.5419 14.1664L15.2086 14.1654ZM12.4019 2.73771L12.4438 1.07157C10.8094 1.03048 9.19078 1.03049 7.55636 1.07157L7.59824 2.73771L7.64012 4.40385C9.21872 4.36417 10.7815 4.36417 12.3601 4.40385L12.4019 2.73771ZM7.59824 2.73771L7.55636 1.07157C6.27641 1.10375 5.20105 1.12823 4.33361 1.27938L4.61972 2.9213L4.90584 4.56323C5.47373 4.46427 6.25894 4.43857 7.64012 4.40385L7.59824 2.73771ZM4.61972 2.9213L4.33353 1.27939C3.41783 1.43901 2.63248 1.75466 1.96598 2.42408L3.14707 3.60002L4.32815 4.77595C4.36941 4.73451 4.40366 4.71006 4.4586 4.68458C4.52619 4.65323 4.65625 4.60673 4.90592 4.56321L4.61972 2.9213ZM3.14707 3.60002L1.96588 2.42418C1.71324 2.67798 1.49687 2.96275 1.31917 3.28996L2.78379 4.08537L4.24841 4.88077C4.26748 4.84565 4.28942 4.81486 4.32825 4.77585L3.14707 3.60002ZM2.78379 4.08537L1.96102 5.53479L6.91219 8.34534L7.73496 6.89591L8.55773 5.44649L3.60656 2.63594L2.78379 4.08537ZM7.73496 6.89591L6.91212 8.3453C7.99605 8.96066 8.95573 9.37703 9.99961 9.37703V7.71037V6.0437C9.86375 6.0437 9.54035 6.00434 8.55779 5.44653L7.73496 6.89591ZM9.99961 7.71037L9.99988 9.37703C11.0437 9.37686 12.0028 8.96033 13.0861 8.3453L12.2633 6.89591L11.4404 5.44653C10.4577 6.00442 10.135 6.04368 9.99933 6.0437L9.99961 7.71037ZM12.2633 6.89591L13.0863 8.34521L18.0374 5.53369L17.2145 4.08439L16.3915 2.63509L11.4403 5.44661L12.2633 6.89591ZM17.2145 4.08439L18.6785 3.28787C18.5042 2.96755 18.291 2.68208 18.0344 2.42431L16.8531 3.60002L15.6718 4.77573C15.7058 4.80989 15.7283 4.84024 15.7504 4.88091L17.2145 4.08439ZM16.8531 3.60002L18.0342 2.42408C17.3672 1.75411 16.5806 1.43883 15.6656 1.27938L15.3795 2.9213L15.0934 4.56323C15.3433 4.60678 15.4738 4.65334 15.5417 4.68481C15.597 4.71043 15.6312 4.73491 15.672 4.77595L16.8531 3.60002ZM15.3795 2.9213L15.6655 1.27937C14.7982 1.12828 13.7237 1.10375 12.4438 1.07157L12.4019 2.73771L12.3601 4.40385C13.7408 4.43856 14.5255 4.46431 15.0935 4.56324L15.3795 2.9213Z" fill="#61656C" mask="url(#path-1-inside-1_22313_10518)"/></svg>
