<svg xmlns="http://www.w3.org/2000/svg" viewBox="-136.27 0 409.191 409.191"><defs><style>.a{fill:#fff}.b{fill:#7a7473}.c{fill:#211715}</style></defs><path d="m128.05 220.75-.16-.45c-4.04.44-9.88.86-14.51 1.09l.05 1.78c.1 3.2.1 7.93.27 11.05a71 71 0 0 0 .79 8.26 4.7 4.7 0 0 0 2.28 3.06 3.3 3.3 0 0 0 1.6.25 3.5 3.5 0 0 0 1.98-.9c1.12-1.39.92-3.16.9-5.25v-.04l.36 1a74 74 0 0 0 4.59 10.6 10 10 0 0 0 2.26 3.25 3.8 3.8 0 0 0 3.68.87c1.86-.71 2.35-2.28 2.48-4.26.26-4.24-1.15-9.5-2.33-14.43-1.38-5.75-2.67-11.19-4.24-15.88" class="a"/><path d="M86.56 393.88c-.6-.27-1.24-.47-1.85-.7a25 25 0 0 1-6.91-4.2c-1.43-1.11-4.13-4.05-4.61-5.61-.79-2.57-.69-6.25.5-8.44.82-1.54 1.16-2.2 2.88-2.55a4.6 4.6 0 0 1 2.8.67 36 36 0 0 0 6.07 2.55c2.83.88 6.16.3 11.35-1.58 2.67-.96 5.94 2.82 8.16 4.93a129 129 0 0 1 11.94 11.38 10 10 0 0 1 1.81 3.35 13 13 0 0 1 .58 3.63c.03 2.6-.3 5.45-2.16 7.28a8.6 8.6 0 0 1-3.87 1.98 18 18 0 0 1-9.31-.02c-5.82-1.56-10.44-5.9-14.49-10.36a11 11 0 0 0-1.88-1.77 7 7 0 0 0-1.01-.54m-34.26 0c.6-.27 1.23-.47 1.85-.7a25 25 0 0 0 6.9-4.2c1.44-1.11 4.14-4.05 4.62-5.61.79-2.57.69-6.25-.5-8.44-.83-1.54-1.16-2.2-2.88-2.55a4.6 4.6 0 0 0-2.8.67 36 36 0 0 1-6.07 2.55c-2.83.88-6.16.3-11.35-1.58-2.67-.96-5.94 2.82-8.16 4.93a130 130 0 0 0-11.94 11.38 10 10 0 0 0-1.81 3.35 13 13 0 0 0-.58 3.63c-.04 2.6.3 5.45 2.16 7.28a8.6 8.6 0 0 0 3.87 1.98 18 18 0 0 0 9.31-.02c5.81-1.56 10.43-5.9 14.49-10.36a11 11 0 0 1 1.87-1.77 7 7 0 0 1 1.02-.54" class="b"/><path d="M52.83 395.8a36 36 0 0 0 6.6-3.13 29 29 0 0 0 4.88-4 14 14 0 0 0 3.29-4.77 15 15 0 0 0 .33-6.9 9.6 9.6 0 0 0-2.63-5.37 5.7 5.7 0 0 0-6.17-.63c-3.48 1.57-6.68 3.53-10.63 2.8a28 28 0 0 1-2.92-.72 26 26 0 0 0-3.77-1.15c-2.1-.29-3.96.85-5.54 2.1-1.72 1.35-3.2 2.99-4.82 4.44q-3.01 2.62-5.94 5.35a47 47 0 0 0-5.49 5.77 13.3 13.3 0 0 0-2.43 7.26 14.6 14.6 0 0 0 1.1 6.8 8.8 8.8 0 0 0 5.23 4.5c5.54 2.02 11.84.98 16.86-1.9a35 35 0 0 0 6.58-5.07 62 62 0 0 0 2.76-2.8 11 11 0 0 1 3.19-2.77 2 2 0 0 0 .72-2.73 2.05 2.05 0 0 0-2.74-.72c-2.01.94-3.34 2.72-4.85 4.29a46 46 0 0 1-4.55 4.22 19 19 0 0 1-11.4 4.51 13 13 0 0 1-6.3-1.26 5.2 5.2 0 0 1-2.51-4.23 12 12 0 0 1 .62-6.08c.8-1.94 2.47-3.44 3.92-4.9 3.16-3.18 6.7-5.96 9.9-9.1a18 18 0 0 1 3.97-3.37c1.46-.78 2.96.27 4.43.71 3.31.99 6.72 1.5 10.06.38a37 37 0 0 0 5.54-2.33c1.06-.56 2.14-1.03 2.85.08a9 9 0 0 1 1.19 5.45 6.7 6.7 0 0 1-1.96 4.54 24 24 0 0 1-4.28 3.8 31 31 0 0 1-6.14 3.09 2.07 2.07 0 0 0-1.4 2.46 2 2 0 0 0 2.45 1.39m34.26-3.85a31 31 0 0 1-5.48-2.63 24 24 0 0 1-4-3.23 10 10 0 0 1-2.59-3.58 11 11 0 0 1-.1-5.16c.24-1.02.76-2.8 1.9-2.98a3.2 3.2 0 0 1 1.92.62q1.11.57 2.26 1.06a22 22 0 0 0 5.46 1.81 15 15 0 0 0 4.96-.2 27 27 0 0 0 2.72-.66 29 29 0 0 1 3.31-1.09c1.2-.19 2.44 1.01 3.27 1.74 1.44 1.28 2.77 2.67 4.21 3.95q2.58 2.25 5.1 4.58c3.1 2.89 6.9 5.9 7.22 10.44a10.6 10.6 0 0 1-.77 5.5c-.9 1.74-2.82 2.35-4.63 2.73-4.87 1.04-9.64-.48-13.64-3.27a37 37 0 0 1-5.21-4.55c-1.7-1.72-3.18-3.83-5.43-4.88a2.06 2.06 0 0 0-2.74.72 2 2 0 0 0 .72 2.73c2.17 1.02 3.67 3.34 5.35 5a40 40 0 0 0 5.62 4.66 21.3 21.3 0 0 0 14.54 3.75 13 13 0 0 0 7.19-2.74 9.4 9.4 0 0 0 2.83-5.79 16 16 0 0 0-.56-7.7 18 18 0 0 0-4.4-6.25c-3.53-3.65-7.52-6.81-11.14-10.36a17 17 0 0 0-5.22-3.87c-2.25-.9-4.1.07-6.28.73a17 17 0 0 1-5.66.97 16 16 0 0 1-5.67-1.79c-1.89-.85-3.67-2.13-5.84-1.79a5.8 5.8 0 0 0-4.36 3.51 13 13 0 0 0-1.18 7.35 11 11 0 0 0 2.73 6.22 27 27 0 0 0 5.27 4.72 35 35 0 0 0 7.26 3.6 2 2 0 0 0 2.46-1.4 2.05 2.05 0 0 0-1.4-2.47" class="c"/><path d="M35.14 351.72c-1.55-41.66-2.63-81.66-4.42-125.35 6.34.45 19 .5 22.13.42a17 17 0 0 0 10.03-3.38c2.59-2.18 3.68-5.52 4.66-8.67.6-1.88 1.23-6.36 1.66-8.49.4 2.13 1.08 6.6 1.67 8.49.98 3.15 2.07 6.5 4.66 8.67a17 17 0 0 0 10.02 3.38c3.04.08 15.72-.13 22.48-.58-2.06 50.25-3.17 95.6-5.15 144.21a55 55 0 0 1-15.23 2.35c-5.5-.05-14.24-.54-18.28-1.58-4.04 1.04-12.77 1.53-18.27 1.58a55 55 0 0 1-15.24-2.35q-.38-9.42-.73-18.7" class="a"/><path d="M106.08 224.9q-1.18 28.8-2.11 57.62l-1.88 55.98q-.57 15.96-1.2 31.92l1.47-1.93a53 53 0 0 1-17.04 2.24c-5.09-.14-10.45-.22-15.41-1.46-2.5-.63-3.57 3.23-1.07 3.85 5.31 1.33 11.04 1.46 16.48 1.6a56 56 0 0 0 18.1-2.37 2.1 2.1 0 0 0 1.47-1.93q1.14-28.19 2.04-56.38.93-28.16 1.9-56.32.58-16.41 1.25-32.82c.1-2.57-3.9-2.57-4 0" class="c"/><path d="M28.67 224.9q1.18 28.8 2.1 57.62l1.89 55.98q.56 15.96 1.2 31.92a2.1 2.1 0 0 0 1.46 1.93 56 56 0 0 0 18.1 2.38c5.44-.15 11.17-.28 16.48-1.6 2.5-.63 1.44-4.48-1.06-3.86-4.97 1.24-10.33 1.32-15.42 1.46a53 53 0 0 1-17.03-2.23l1.47 1.92q-1.15-28.18-2.04-56.37l-1.9-56.33q-.59-16.4-1.26-32.8c-.1-2.57-4.1-2.59-4 0Z" class="c"/><path d="M67.37 237.4v133.64c0 2.57 4 2.58 4 0V237.4c0-2.57-4-2.58-4 0" class="c"/><path d="m127.98 220.3.84-.1a5.2 5.2 0 0 0 3.41-1.43 4.3 4.3 0 0 0 .95-2.91c-.75-11.08-4.34-66.5-5.78-81.71-.92-9.63-2.35-15.94-6.24-20.8-4.75-5.93-13.6-10.34-24.6-14.77a56 56 0 0 0-8.67-6.88 443 443 0 0 1-10.66 38.78c-3.15 9.66-4.07 12.61-8.43 23.26-4.34-10.65-5.27-13.6-8.41-23.26A443 443 0 0 1 49.73 91.7a59 59 0 0 0-6.63 4.98l-3.74 1.54c-3.8 1.56-7.97 2.08-11.6 4a24 24 0 0 0-6.07 4.16c-2.14 2.22-3.43 5.1-4.63 7.94A248 248 0 0 0 3.51 157.1c-1.08 4.89-2 9.92-1.3 14.87s3.31 9.89 7.76 12.17c3.81 1.97 8.2 1.7 12.36.36l6.45-2.4a2484 2484 0 0 0-.88 43.98c4 .72 21.21.82 24.95.72a17 17 0 0 0 10.03-3.38c2.58-2.17 3.68-5.52 4.66-8.67.59-1.88 1.23-6.36 1.66-8.49.4 2.13 1.08 6.6 1.66 8.49.99 3.15 2.08 6.5 4.66 8.67a17 17 0 0 0 10.03 3.38c3.85.1 23.1-.25 26.3-1q0-1.96-.03-4.33l1.54-.07c4.66-.22 10.57-.66 14.62-1.1" style="fill:#3d8dcc"/><path d="M97.97 47.93a4.5 4.5 0 0 1 3.25-1.2 4.2 4.2 0 0 1 3.76 2.09c1.27 2.21 1.22 6.29.36 8.81a13.6 13.6 0 0 1-4 6.48 5 5 0 0 1-3.82 1.1l-.37-.06a29 29 0 0 1-1.32 3.58c-1 2.7-6.62 12.37-13.67 15.77v2.06c-.54.44-11.55 9.12-12.39 9.71h-1.93c-.84-.59-11.85-9.27-12.4-9.71v-2.47a27 27 0 0 1-7.84-6.68 34 34 0 0 1-6.5-12.26 4.9 4.9 0 0 1-4.14-1.04 13.6 13.6 0 0 1-4-6.48c-.85-2.52-.9-6.6.37-8.81a4.2 4.2 0 0 1 3.76-2.09 4.5 4.5 0 0 1 3.25 1.2s-2.37-24.18 27.1-24.18 30.53 24.17 30.53 24.17" class="a"/><path d="M62.53 2.56a33 33 0 0 0-14 6 34.5 34.5 0 0 0-14.26 27 38 38 0 0 0 1.4 11.4 6 6 0 0 1 1.41-.22 4.5 4.5 0 0 1 3.26 1.19l4.6-3.87c3.46-3.85 9.56-9.66 13.84-11.9.5-.27 1.15.09 1.35.93a6 6 0 0 1 .13 2 1.05 1.05 0 0 0 1.5 1.13c3.05-1.7 8.5-5.11 12.36-6.74a16 16 0 0 1 5.72.7 19 19 0 0 1 5.27 3.32c3.48 3 6.81 7.1 8.29 10.8l4.57 3.63a4.5 4.5 0 0 1 3.25-1.2 6 6 0 0 1 1.28.2 37 37 0 0 0 1.38-11.36c-.58-13.63-7.45-22.1-14.08-26.89A34 34 0 0 0 69.07 2a38 38 0 0 0-6.54.56" style="fill:#85807f"/><path d="M68.2 152.23c-3.84-9.44-4.82-12.56-7.8-21.75a444 444 0 0 1-9.95-35.63 4 4 0 0 1 .92-3.35c1.24-1.44 2.8-3.52 4.08-4.94.54.44 11.55 9.12 12.39 9.71h1.94c.83-.59 11.85-9.27 12.39-9.71 1.27 1.42 2.84 3.5 4.08 4.95a4 4 0 0 1 .91 3.34 445 445 0 0 1-9.93 35.63c-3 9.19-3.98 12.3-7.8 21.75Z" class="a"/><path d="M64.86 143.72c.89 2.39 1.91 5.02 3.33 8.51h1.24c3.52-8.7 4.63-12.02 7.12-19.67-1.2-10.34-2.8-22.65-2.8-23a9 9 0 0 1 .3-1.94q.12-.44.2-.87c.32-1.44.38-2.17.75-3.7l.02-.07c-1.77-2.4-3.92-5.24-5.23-6.7h-1.95a120 120 0 0 0-5.2 6.64l.17.47a19 19 0 0 1 .91 2.95 12 12 0 0 1 .72 3.42c0 .61-1.67 12.28-3.23 23.25a283 283 0 0 0 3.65 10.7" style="fill:#febe69"/><path d="M39.57 103.75a20 20 0 0 1 4.94-5.66 54 54 0 0 1 6.23-4.66l-2.94-1.2a446 446 0 0 0 14.04 48.96 256 256 0 0 0 4.42 11.57 2.06 2.06 0 0 0 2.46 1.4 2 2 0 0 0 1.4-2.46 379 379 0 0 1-14.8-45.58q-1.96-7.44-3.66-14.95a2.02 2.02 0 0 0-2.94-1.2 61 61 0 0 0-7.03 5.3 23 23 0 0 0-5.57 6.47c-1.16 2.3 2.29 4.32 3.45 2.02Zm20.9 47.88-3.73-6.5a2 2 0 0 0-3.46 2.02l3.73 6.5a2 2 0 1 0 3.46-2.02m12.86-45.2c-2.88 0-5.75-.06-8.62-.06a2 2 0 1 0 0 4c2.87 0 5.74.06 8.62.06a2 2 0 0 0 0-4" class="c"/><path d="M73.06 102.53c-.35 1.5-.6 3.04-.94 4.56a10 10 0 0 0-.35 2.69c.1 1.53.37 3.08.56 4.6q1.15 9.1 2.23 18.22a2.06 2.06 0 0 0 2 2 2 2 0 0 0 2-2q-1.07-8.97-2.19-17.91c-.2-1.58-.45-3.16-.58-4.74a6 6 0 0 1 .18-1.8c.35-1.51.6-3.05.95-4.56.59-2.5-3.27-3.57-3.86-1.06M63.22 133q1.3-9.11 2.58-18.23c.21-1.56.51-3.15.62-4.72a10 10 0 0 0-.4-2.99 32 32 0 0 0-1.48-4.7 2 2 0 0 0-2.74-.71 2.05 2.05 0 0 0-.71 2.73 24 24 0 0 1 1.19 4.17 5 5 0 0 1 .11 1.7c-.16 1.54-.37 2.84-.58 4.4q-1.21 8.64-2.45 17.28a2.07 2.07 0 0 0 1.4 2.46 2 2 0 0 0 2.46-1.4Z" class="c"/><path d="M54.03 85.14c-1.07 1.22-2.07 2.5-3.1 3.77a10 10 0 0 0-2.39 3.87c-.52 2.13.4 3.61 1.48 5.3q1.88 2.91 4.03 5.65a21 21 0 0 0 4.77 4.74 2.05 2.05 0 0 0 2.74-.72c2.52-3.37 4.9-6.9 7.7-10.06a2.04 2.04 0 0 0-.4-3.14l-.75-.57-.41-.32-.76-.59q-2.04-1.59-4.07-3.2-3.01-2.34-6-4.73a2.06 2.06 0 0 0-2.83 0 2 2 0 0 0 0 2.83c4.2 3.39 8.4 6.88 12.8 10.03l-.4-3.14c-3.02 3.42-5.6 7.22-8.33 10.87l2.74-.72a11 11 0 0 1-1.73-1.52q-1-1.06-1.92-2.2a59 59 0 0 1-4.52-6.52l-.32-.54-.1-.17c.13.5.13-.17.14-.19a5 5 0 0 1 .58-1.18q.58-.74 1.2-1.47c.89-1.1 1.76-2.2 2.7-3.25 1.68-1.92-1.14-4.76-2.85-2.83m26.57 68.5c4.79-8.3 9.53-16.62 14.11-25.03q3.37-6.19 6.61-12.44a7 7 0 0 0 1.14-3.11 4.3 4.3 0 0 0-1.34-2.77c-1.63-1.81-3.45-3.47-5.22-5.14l-.4 3.15 3.73-2.13c1.15-.66 2.63-1.34 2.67-2.88.05-1.93-1.9-3.95-3.11-5.27a51 51 0 0 0-9.9-8.04 2.02 2.02 0 0 0-2.93 1.2 446 446 0 0 1-14.03 48.95 257 257 0 0 1-4.43 11.57 2 2 0 0 0 1.4 2.46 2.05 2.05 0 0 0 2.46-1.4 379 379 0 0 0 14.8-45.58q1.96-7.44 3.66-14.95l-2.94 1.2a54 54 0 0 1 6.22 4.66 35 35 0 0 1 2.97 2.88 15 15 0 0 1 1.11 1.35q.22.3.4.6c.12.2.33.9.31.37l.27-1.01-.17.26.72-.72c-1.65 1.12-3.5 2.03-5.24 3.02a2.02 2.02 0 0 0-.4 3.14q2.34 2.18 4.58 4.48l.63.66q.38.54.2-.17a5 5 0 0 1-.61 1.2l-1.47 2.82q-3.07 5.88-6.28 11.69-6.36 11.54-12.98 22.97c-1.28 2.23 2.17 4.25 3.46 2.02Z" class="c"/><path d="M80.76 87.97q1.38 1.6 2.68 3.26a8 8 0 0 1 1.78 2.61c.02.09.06.56.09.31.01-.16.01-.04-.03.06a5 5 0 0 1-.33.56q-.55.9-1.12 1.77a60 60 0 0 1-3.33 4.65q-.95 1.2-2 2.3a17 17 0 0 1-1.4 1.3c.3-.23-.26.19-.32.22l2.73.72c-2.73-3.64-5.3-7.45-8.32-10.87L70.8 98c4.39-3.15 8.59-6.64 12.8-10.03a2 2 0 0 0 0-2.82 2.05 2.05 0 0 0-2.83 0q-2.98 2.38-6 4.73l-4.08 3.2-.75.59-.42.32q-.36.29-.74.56a2.04 2.04 0 0 0-.4 3.14c2.8 3.17 5.17 6.69 7.7 10.06a2.04 2.04 0 0 0 2.74.72 21 21 0 0 0 4.77-4.74q2.14-2.73 4.02-5.66c1.08-1.68 2-3.16 1.48-5.29a10 10 0 0 0-2.4-3.87c-1.03-1.26-2.02-2.55-3.1-3.77-1.7-1.93-4.52.9-2.83 2.83M63.54 72.72a12 12 0 0 0 5.92 1.38 9.8 9.8 0 0 0 6.08-1.84 2 2 0 0 0 0-2.83 2.06 2.06 0 0 0-2.83 0c.7-.53-.04 0-.25.11-.17.1-.63.23 0 .02q-.24.1-.49.18-.3.1-.62.17a4 4 0 0 0-.73.14c.2-.1.32-.04.02-.01a13 13 0 0 1-2.22.03l-.4-.03h-.04c-.12.05-.52-.1-.65-.13q-.31-.06-.62-.15l-.52-.18-.64-.32a2 2 0 0 0-2.02 3.45Zm4.66-13.64a27 27 0 0 1 .63 2.86l-.08-.53a2 2 0 0 1 .01.4l.07-.54-.04.18.2-.48-.06.11.31-.4-.1.09.41-.31-.22.12.47-.2-.38.1.53-.06h-.35l.53.07-.4-.07a1.5 1.5 0 0 0-.8-.04 1.5 1.5 0 0 0-.75.24 2 2 0 0 0-.71 2.73 2 2 0 0 0 1.2.92c.35.05.7.14 1.06.16a3.5 3.5 0 0 0 1.62-.4 2.5 2.5 0 0 0 1.33-1.6 4 4 0 0 0-.02-1.68q-.23-1.38-.6-2.73a2 2 0 0 0-2.46-1.4 2 2 0 0 0-1.2.92 2 2 0 0 0-.2 1.54m-14.65-8.23c-.48 1.55-.17 5.11 2.77 5.42 3.88-.03 4.09-4.34 2.78-6.37-1.07-1.66-4.21-2.34-5.55.95m31.2 0c.49 1.55.18 5.11-2.76 5.42-3.88-.03-4.1-4.34-2.78-6.37 1.07-1.66 4.21-2.34 5.55.95m-43-4.34a6.9 6.9 0 0 0-7.52-1.12 6.6 6.6 0 0 0-3.44 4.42 16.5 16.5 0 0 0 2.4 13.04c1.7 2.52 4.36 4.79 7.6 4.37a2.07 2.07 0 0 0 2-2 2 2 0 0 0-2-2c-2.28.3-3.78-1.6-4.77-3.42a13 13 0 0 1-1.62-5.04 8.6 8.6 0 0 1 .87-5.26c-.32.5.5-.45.23-.24a2 2 0 0 1 .97-.45 2.7 2.7 0 0 1 2.46.53c1.91 1.7 4.75-1.11 2.83-2.83m57.63 2.83a2.7 2.7 0 0 1 2.33-.56 2 2 0 0 1 1.1.48c-.28-.2.54.73.23.24a5 5 0 0 1 .79 2.12 12 12 0 0 1 .08 3.14 13 13 0 0 1-1.62 5.04c-.99 1.83-2.49 3.72-4.77 3.42a2 2 0 0 0-2 2 2.05 2.05 0 0 0 2 2c5.27.68 8.5-5.01 9.82-9.27 1.18-3.82 1.14-9.76-2.6-12.2a6.9 6.9 0 0 0-8.18.76c-1.93 1.72.9 4.54 2.82 2.83" class="c"/><path d="M95.77 62.5a29 29 0 0 1-1.31 4.38l-.59 1.41c-.2.51.14-.27-.04.1l-.18.4a37 37 0 0 1-3.2 5.32c-2.8 3.96-6.61 8.28-11.52 9.43-2.5.59-1.44 4.45 1.07 3.86 5.79-1.36 10.24-6.2 13.59-10.83a38 38 0 0 0 3.48-5.7q.31-.64.58-1.3l.08-.19.44-1.04a29 29 0 0 0 1.46-4.77c.52-2.5-3.33-3.58-3.86-1.06Zm-57.17.97c2.49 10.9 10.69 22.78 22.47 24.56a2.07 2.07 0 0 0 2.46-1.4 2 2 0 0 0-1.4-2.46C51.64 82.59 44.66 72.08 42.46 62.4c-.58-2.5-4.43-1.45-3.86 1.06ZM89.3 5.92A37.9 37.9 0 0 0 53.72 3.2a36.8 36.8 0 0 0-19.64 21.95 39 39 0 0 0-.47 21.82c.64 2.5 4.5 1.44 3.86-1.06-2.65-10.46-.76-21.84 6.31-30.19a33.3 33.3 0 0 1 43.5-6.35c2.17 1.4 4.18-2.06 2.02-3.45m15.25 41.05a40 40 0 0 0-.66-22.49 35.5 35.5 0 0 0-9.7-14.8c-1.9-1.74-4.74 1.08-2.83 2.82a31.4 31.4 0 0 1 8.67 13.05 36 36 0 0 1 .66 20.36c-.6 2.5 3.25 3.56 3.86 1.06M78.83 31.9a22.5 22.5 0 0 1 7.34 5.34 31 31 0 0 1 3.04 3.65q.71 1 1.32 2.07.28.48.53.98l.28.59.13.3a2.06 2.06 0 0 0 2.46 1.4 2 2 0 0 0 1.4-2.46 30 30 0 0 0-6.16-9.18 26 26 0 0 0-8.32-6.15 2.07 2.07 0 0 0-2.74.72 2 2 0 0 0 .72 2.74" class="c"/><path d="M46.36 45.47a83 83 0 0 1 7.34-7.2 45 45 0 0 1 3.68-2.9 21 21 0 0 0 1.9-1.2q1-.45-1.08-.55a2 2 0 0 1 .1.47 7 7 0 0 0-.04 1 3.08 3.08 0 0 0 3.48 3.2c1.42-.25 2.86-1.4 4.1-2.12a85 85 0 0 1 9.3-4.97 2 2 0 0 0 .7-2.74 2.05 2.05 0 0 0-2.73-.71 85 85 0 0 0-9.3 4.97l-2.05 1.2-.53.3q-1.01.43 1.03.88a2 2 0 0 0 .04-.92c-.08-1.84-.92-4.02-3.07-4.1-1.48-.06-3 1.22-4.15 2.04a56 56 0 0 0-4.2 3.33 83 83 0 0 0-7.35 7.2c-1.72 1.9 1.1 4.74 2.83 2.82m61.35 84.78c.17 11.53.51 23.06.81 34.6.37 14.04.75 28.08 1.05 42.12q.21 8.98.29 17.95c.01 2.57 4.01 2.58 4 0-.08-11.92-.4-23.83-.7-35.74-.35-13.94-.74-27.88-1.08-41.81a1741 1741 0 0 1-.37-17.12c-.04-2.57-4.04-2.58-4 0" class="c"/><path d="M28.6 228.18c6.42.77 13.02.62 19.48.64a39 39 0 0 0 9.36-.65 14.6 14.6 0 0 0 10.42-8.42c1.82-4.2 2.39-8.53 3.27-12.97h-3.85c.74 4.06 1.3 8.1 2.85 11.95a15 15 0 0 0 3.98 6.1 16.6 16.6 0 0 0 6.66 3.3 37 37 0 0 0 9.66.65q5.46-.06 10.93-.25a103 103 0 0 0 10.33-.68 2 2 0 0 0 1.4-2.46 2.05 2.05 0 0 0-2.46-1.4l-1.04.1-1.97.14q-2.38.15-4.76.24-5.28.21-10.56.28c-2.5.04-5.05.17-7.55 0a15 15 0 0 1-6.35-1.8 9.8 9.8 0 0 1-4.16-4.7c-1.82-3.95-2.32-8.3-3.1-12.53-.36-1.93-3.48-1.9-3.86 0a78 78 0 0 1-2.32 10.5 13 13 0 0 1-2.92 5.25 12 12 0 0 1-5.66 2.84 34 34 0 0 1-8.17.5q-4.96 0-9.92-.13c-3.22-.08-6.48-.12-9.68-.5a2 2 0 0 0-2 2 2.05 2.05 0 0 0 2 2Zm67.43-127.66c6.39 2.58 12.89 5.34 18.5 9.39a22.6 22.6 0 0 1 8.84 12.27 76 76 0 0 1 2.29 14.94q.47 5.49.87 10.98 1.12 14.84 2.1 29.68.95 13.93 1.87 27.87l.59 8.91a10 10 0 0 1 .07 1.83c-.19 1.41-1.42 1.68-2.65 1.84-3.32.44-6.7.64-10.04.86q-2.56.17-5.12.3c-2.56.13-2.58 4.13 0 4q5.5-.27 10.97-.74c3.07-.27 7.34-.05 9.49-2.66 2.17-2.66 1.17-6.97.96-10.15l-1.8-27.17q-1.07-15.72-2.2-31.43-.45-6.19-.96-12.37a118 118 0 0 0-1.83-14.73c-1.19-5.6-3.52-10.76-7.75-14.71-5-4.67-11.35-7.74-17.55-10.43q-2.78-1.2-5.59-2.34a2 2 0 0 0-2.46 1.4 2.05 2.05 0 0 0 1.4 2.46" class="c"/><path d="M27.09 170.28c-.4 15.17-.82 30.35-1.07 45.53q-.08 4.55-.12 9.1c-.01 2.58 3.99 2.58 4 0 .09-13.62.48-27.24.83-40.86l.36-13.78c.07-2.57-3.93-2.57-4 0" class="c"/><path d="M21.8 182.56c-3.36 1.06-7.1 1.55-10.42.04a12.2 12.2 0 0 1-5.85-6.23c-3.1-6.76-1.06-14.65.53-21.52q2.57-11.05 6.13-21.84 1.86-5.61 3.98-11.13a105 105 0 0 1 4.19-10 16 16 0 0 1 3.37-4.68 23 23 0 0 1 4.65-3.04c3.62-1.94 7.73-2.5 11.51-4.01a2.06 2.06 0 0 0 1.4-2.46 2 2 0 0 0-2.46-1.4c-3.7 1.48-7.68 2.11-11.3 3.81a22.4 22.4 0 0 0-9.03 7.05c-2.23 3.17-3.55 7-4.98 10.58q-2.37 5.93-4.43 11.98a249 249 0 0 0-6.94 24.31c-1.8 7.8-3.63 16.2-.3 23.85a16 16 0 0 0 7.7 8.28c4.25 1.93 8.95 1.64 13.32.27 2.44-.77 1.4-4.63-1.07-3.86" class="c"/><path d="m31.84 100.93.01.03a49 49 0 0 1 2.96 8.7c1.95 7.56 2.26 12.5 2.96 17.66.24 4.96.35 11.74.3 15.57-.08 5.28-.73 13.4-1.11 16.33l-.03.37a22 22 0 0 1 5.66.94 5.7 5.7 0 0 1 3.69 4.04l.11.57a116 116 0 0 0 1.81-14.8 136 136 0 0 0-1.45-25.68c-.67-4.52-1.51-8.69-3.17-15.84-.71-3.1-1.92-7.75-3.96-10.83a2.5 2.5 0 0 0-2.47-.99 19 19 0 0 0-4.6 1.72 1.86 1.86 0 0 0-.71 2.2" class="b"/><path d="M39.77 127.32c-1.14-8.5-2-17.14-5.25-25.17a17 17 0 0 0-.74-1.76c-.15-.26 0-.1-.23.05a11 11 0 0 1 3.19-1.28c.82-.24 1.1-.32 1.54.45a20 20 0 0 1 1.36 2.83 84 84 0 0 1 3.27 12.45 156 156 0 0 1 2.13 11.86 2 2 0 0 0 2.46 1.4 2.05 2.05 0 0 0 1.4-2.46q-.84-5.97-2.13-11.86c-1.04-4.8-1.99-9.7-4-14.2-.98-2.19-2.23-4.5-4.92-4.65a9 9 0 0 0-3.57.8 10 10 0 0 0-3.47 1.78c-2.1 2.11-.5 4.63.33 6.89a65 65 0 0 1 2.2 7.62c1.2 5.04 1.74 10.14 2.43 15.26a2.07 2.07 0 0 0 2 2c.97 0 2.14-.92 2-2Zm6.45 22.7a101 101 0 0 1-2.03 15.9 2.05 2.05 0 0 0 1.4 2.45 2 2 0 0 0 2.45-1.4 108 108 0 0 0 2.18-16.95 2 2 0 0 0-4 0" class="c"/><path d="M16.23 228.95c-1.75-.04-3.22-1.6-4.01-3-1.33-2.31-.56-5.6-.3-6.8 3.06-14.04 5.13-22.18 7.82-33.6.92-3.86 3.13-13.74 5.37-21.37.82-2.75 3.97-4.73 6.84-4.73 5.03 0 8.62.36 10.63 1.08a5.7 5.7 0 0 1 3.69 4.04c.64 2.9.46 5.68.27 9.05-.91 16.8-2.83 41.26-3.52 50.59a6.1 6.1 0 0 1-3.64 5.33c-1.98.85-2.72 1.38-6.15.75-6.1-1.12-9.64-1.19-17-1.34" class="b"/><path d="M16.76 227.02c-2.92-.45-3.56-3.47-3.19-5.96.48-3.16 1.36-6.3 2.07-9.42q2.03-8.88 4.17-17.73l3.64-15.4q1.13-4.77 2.4-9.5c.72-2.7 1.02-5.7 3.82-7.02a9 9 0 0 1 4.16-.52q2.38.03 4.74.27c2.04.22 4.65.57 5.58 2.7a12 12 0 0 1 .57 4.28c.02 1.86-.1 3.73-.21 5.59l-.5 8.37c-.74 11.7-1.62 23.37-2.5 35.05-.16 2.1-.26 4.2-.48 6.29a4.9 4.9 0 0 1-4.4 4.32 27 27 0 0 1-4.68-.12q-2.61-.14-5.21-.33-5.26-.39-10.52-.94a2 2 0 0 0-2 2 2.05 2.05 0 0 0 2 2q5.1.53 10.17.92a85 85 0 0 0 9.73.5 9.6 9.6 0 0 0 7.21-3.48c1.65-2.16 1.7-4.76 1.9-7.36.9-12.18 1.83-24.36 2.63-36.56q.31-4.8.58-9.62c.21-3.63.56-7.3-.16-10.9-1.42-7.1-10.18-7-15.85-7a9.8 9.8 0 0 0-8.42 4.37 18 18 0 0 0-1.65 4.73q-.72 2.61-1.38 5.24c-1.48 5.85-2.8 11.74-4.2 17.6-1.53 6.39-3.08 12.76-4.54 19.16-.82 3.55-1.66 7.1-2.38 10.66-.65 3.2-.6 6.42 1.54 9.04a7 7 0 0 0 4.3 2.63 2.06 2.06 0 0 0 2.45-1.4 2 2 0 0 0-1.39-2.46" class="c"/><path d="m25.23 191.84 13.54 1.59a2 2 0 0 0 2-2 2.05 2.05 0 0 0-2-2l-13.54-1.6a2 2 0 0 0-2 2 2.05 2.05 0 0 0 2 2" class="c"/><path d="M34.02 168.57q-.77 4.44-1.48 8.9l-.9 5.62-.44 2.77a13 13 0 0 1-.42 2.58l.92-1.2-.08.05 2.74.71-.04-.06-.72 2.74.04-.03c2.13-1.43.13-4.9-2.01-3.46l-.05.03a2.03 2.03 0 0 0-.72 2.74l.04.06a2.03 2.03 0 0 0 2.74.72c1-.6 1.07-1.58 1.23-2.63l.45-2.87.98-6.1q.77-4.76 1.58-9.5a2.06 2.06 0 0 0-1.4-2.47 2 2 0 0 0-2.46 1.4" class="c"/><path d="M53.19 126.64a4 4 0 0 0-2.6-.29c-4.33 1.1-7.86 2.25-12.74 3.9-1.17-2.72-3.23-1.66-4.68-.63-4.53 3.24-7.74 6.77-11.18 8.4a4 4 0 0 0-.12 1.09c.44 6.71 1.96 12.78 3.94 19.87l1.03-.46c1.18-.52 4.1-1.7 5.4-2.23a5 5 0 0 1 2.83-.45 17 17 0 0 0 5.98-.55c3.82-1.12 5.47-2.12 9.85-4.56a8 8 0 0 0 2.38-1.85 2.2 2.2 0 0 0 .42-2.13 3.4 3.4 0 0 0-1.9-2.18l1.2-.54a3.2 3.2 0 0 0 1.77-2.28c.48-1.83.13-2.94-1.99-4a2.9 2.9 0 0 0 2.12-2.98 4 4 0 0 0-.75-1.7c-.39-.48-.96-.62-1.93-1a3.17 3.17 0 0 0 2.3-3.98 2.4 2.4 0 0 0-1.33-1.45" class="a"/><path d="M23.61 139.44a26 26 0 0 0 6.15-4.46 68 68 0 0 1 3.33-2.82 19 19 0 0 1 1.66-1.2 4 4 0 0 1 .77-.38c.07-.03.32-.12.1-.05.28-.09.22.04.02-.06a2.06 2.06 0 0 0 2.74-.72 2 2 0 0 0-.72-2.73c-1.94-.91-3.82-.3-5.5.87a54 54 0 0 0-4.23 3.38c-1.08.94-2.14 1.91-3.26 2.81l-.25.2-.26.2-.77.53a14 14 0 0 1-1.8.97 2 2 0 0 0-.72 2.74 2.05 2.05 0 0 0 2.73.72Z" class="c"/><path d="M37.44 132.49c2.85-.96 5.7-1.93 8.59-2.8q1.84-.55 3.7-1.05l1.1-.29.5-.12q-.28.04.1.02a1.5 1.5 0 0 1 .9.19c.1.06.27.22.2.1.1.15.06.18.08.18q.06.3 0-.15l.01.29c0 .12-.11.74 0 .3l-.14.5c.18-.44-.35.4-.09.1a2 2 0 0 1-.8.46q-3.34 1.27-6.77 2.34c-2.45.74-1.4 4.6 1.07 3.86q3.15-.98 6.23-2.15a7.4 7.4 0 0 0 3.17-1.75 5.4 5.4 0 0 0 1.32-3.26 4.64 4.64 0 0 0-3.77-4.85c-2.46-.53-5.15.62-7.49 1.32-3.01.9-6 1.9-8.97 2.9a2.05 2.05 0 0 0-1.4 2.47 2 2 0 0 0 2.46 1.4Z" class="c"/><path d="m51.94 134.1.5.18.04.01.33.2q-.42-.35-.2-.15l.13.14q-.3-.4-.12-.14l.12.2.12.22-.06-.14c-.02.05.1.29.1.34l.06.22q-.06-.54-.04-.24v.2q-.02.3.05-.25l-.1.39.08-.2-.22.39q.3-.38.1-.14l-.25.26c-.26.28.37-.23-.05.03l-.47.27-.61.3-.24.1-1.63.65-2.95 1.11a2.2 2.2 0 0 0-1.2.92 2 2 0 0 0-.2 1.54 2 2 0 0 0 2.46 1.4c1.93-.74 3.89-1.41 5.78-2.27a6.4 6.4 0 0 0 2.64-2.06 4.4 4.4 0 0 0 .54-4.02 5 5 0 0 0-1.35-2.17 8 8 0 0 0-2.3-1.16 2 2 0 0 0-2.46 1.4 2.05 2.05 0 0 0 1.4 2.46Z" class="c"/><path d="M52 139.6a7 7 0 0 1 .67.4c.35.24-.2-.2-.07-.06l.25.23c.03.03.18.16.18.2 0-.04-.33-.48-.12-.13l.12.22c-.27-.45-.15-.38-.1-.18l.06.24c-.17-.56-.04-.41-.03-.2v.26c0 .09-.05.5 0 .1l-.01.07a6 6 0 0 1-.26.95c-.13.36.22-.43.03-.1q-.07.15-.16.28l-.11.18.17-.24c-.06.04-.17.18-.22.25-.24.27.39-.25-.01 0l-.33.2-.73.32-3.3 1.45a2 2 0 0 0-.91 1.2 2 2 0 0 0 .2 1.53 2 2 0 0 0 1.2.92 2.3 2.3 0 0 0 1.54-.2q1.87-.81 3.75-1.65a5.3 5.3 0 0 0 2.8-3.27 5.6 5.6 0 0 0 .13-3.5 5.5 5.5 0 0 0-2.72-2.94A2 2 0 0 0 52 139.6" class="c"/><path d="M51 146.38c.32.18.75.5.78.9.03.47-.43.76-.82 1.05a31 31 0 0 1-3.84 2.2 32 32 0 0 1-6.6 2.83 15 15 0 0 1-3.52.54 22 22 0 0 0-4.1.07 40 40 0 0 0-7.06 2.82 2 2 0 0 0-.72 2.74 2.05 2.05 0 0 0 2.74.72q1.87-.82 3.76-1.57a17 17 0 0 1 1.96-.75 8 8 0 0 1 2.4-.02 21.5 21.5 0 0 0 8.8-1.8 40 40 0 0 0 8.42-4.48c1.48-1.1 2.73-2.52 2.6-4.48a5.5 5.5 0 0 0-2.77-4.23c-2.25-1.27-4.26 2.18-2.02 3.45Z" class="c"/><path d="M22.54 133.3c-3.76 3.04-2.56 8.33-1.9 12.43a137 137 0 0 0 3.6 15.07c.7 2.47 4.56 1.42 3.86-1.06a151 151 0 0 1-3.3-13.36 62 62 0 0 1-.86-6.39 4.2 4.2 0 0 1 1.43-3.86 2 2 0 0 0 0-2.82 2.05 2.05 0 0 0-2.83 0Zm96.63 99.87c.07 2.15.06 4.31.09 6.47a24 24 0 0 1 0 2.55 4 4 0 0 1-.13.75c-.05.16-.5.82-.17.55-.82.67-1.65.22-2.15-.6a6 6 0 0 1-.66-2.62c-.6-5.69-.55-11.4-.72-17.1-.07-2.56-4.07-2.58-4 0 .16 5.4.14 10.79.63 16.17.22 2.46.45 5.05 2.31 6.9 2.28 2.24 6.43 2.06 8.07-.88.94-1.7.84-3.66.82-5.53-.03-2.22-.02-4.44-.09-6.66-.07-2.57-4.07-2.58-4 0" class="c"/><path d="M126.14 221.34c1.46 4.41 2.56 8.94 3.65 13.45 1.1 4.61 2.58 9.32 2.83 14.07.06 1.19.36 3.58-.8 4.4-1.44 1.04-2.86-1.17-3.43-2.19a71 71 0 0 1-4.85-11c-.85-2.42-4.72-1.38-3.86 1.06a87 87 0 0 0 4.36 10.23 13 13 0 0 0 3.49 4.88 5.6 5.6 0 0 0 5.62.8c3.59-1.6 3.7-5.85 3.39-9.23a94 94 0 0 0-2.67-13.14c-1.15-4.83-2.3-9.68-3.87-14.4-.81-2.43-4.68-1.4-3.86 1.06Z" class="c"/></svg>
