<svg xmlns="http://www.w3.org/2000/svg" viewBox="-146.15 0 443.193 443.193"><defs><style>.a{fill:#fff}.c{fill:#211715}.e{fill:#7a7473}</style></defs><path d="M79.07 96.81c-.82-.58-11.67-9.13-12.2-9.57V85.9a26 26 0 0 1-8.3-6.91 34 34 0 0 1-6.49-12.24 4.9 4.9 0 0 1-4.13-1.03 13.6 13.6 0 0 1-3.99-6.47c-.85-2.51-.9-6.58.37-8.79a4.2 4.2 0 0 1 3.74-2.08 4.5 4.5 0 0 1 3.25 1.2s-6.59-30 28.74-30c34.34 0 28.74 30 28.74 30a4.5 4.5 0 0 1 3.25-1.2 4.2 4.2 0 0 1 3.74 2.08c1.28 2.21 1.22 6.28.37 8.8a13.6 13.6 0 0 1-3.99 6.46 5 5 0 0 1-3.82 1.1l-.36-.07a29 29 0 0 1-1.32 3.57C105.7 73 100.15 82.52 93.2 86v1.25c-.53.43-11.38 8.99-12.2 9.57" class="a"/><path d="M43.58 30.76q-.13 1.08-.2 1.89a32.3 32.3 0 0 0 2.92 16.09 5 5 0 0 1 1.77-.36 4.5 4.5 0 0 1 3.25 1.2l1.41 1.35.06-.6a48 48 0 0 1 .96-6.59c.51-2.4 1.15-4.9 3.33-6.89l4.7-3.3c1.26-.08 2.72-.27 3.72-.23 8.97.3 18.1-1.4 25.06-4.67l5.53 3.22a37 37 0 0 1 8.61 10.82c.7 1.33 2.33 5.85 3.49 7.64a4.3 4.3 0 0 1 3.86-1.95 5 5 0 0 1 1.84.39c2.26-11.82 2.73-18.97-1.84-28.18a28 28 0 0 0-3.37-4.98 22 22 0 0 0-8.48-5.83l-6.23-2.71C87.74 1 76.48 1 68.73 3.87c-7.27 2.68-11.2 6.48-15.92 10.03a15 15 0 0 1-5.67 2.86l-1.77 6.3c-.87 1.52-1.47 5.06-1.8 7.7" style="fill:#85807f"/><path d="M74.46 74.3a12 12 0 0 0 5.9 1.39 9.7 9.7 0 0 0 6.07-1.84 2 2 0 0 0 0-2.83 2.06 2.06 0 0 0-2.82 0c.69-.53-.04 0-.26.11-.17.1-.62.23 0 .02l-.48.18-.62.17a5 5 0 0 0-.73.14c.2-.1.32-.04.02-.01a10 10 0 0 1-1.36.06 12 12 0 0 1-1.25-.07l-.22-.02.17.02c-.1.06-.52-.09-.64-.12l-.61-.16-.52-.17-.64-.31a2 2 0 1 0-2.02 3.45Zm4.65-13.6a26 26 0 0 1 .62 2.85l-.07-.53a2 2 0 0 1 0 .4l.08-.54-.04.18.2-.48-.07.11.31-.4-.09.09.4-.31-.22.12.48-.2-.38.1.53-.07h-.36l.53.08-.4-.07a1.5 1.5 0 0 0-.8-.04 1.5 1.5 0 0 0-.74.24 2 2 0 0 0-.72 2.73 2 2 0 0 0 1.2.92c.36.05.7.14 1.06.16a3.5 3.5 0 0 0 1.62-.4 2.5 2.5 0 0 0 1.33-1.61 4 4 0 0 0-.01-1.67q-.25-1.38-.6-2.73a2 2 0 0 0-.92-1.2 2 2 0 0 0-2.74.72 2 2 0 0 0-.2 1.54ZM64.5 52.49c-.48 1.54-.17 5.1 2.76 5.4 3.88-.02 4.08-4.32 2.78-6.34-1.07-1.66-4.21-2.35-5.54.94m31.13 0c.47 1.54.16 5.1-2.77 5.4-3.87-.02-4.08-4.32-2.77-6.34 1.06-1.66 4.2-2.35 5.54.94m-42.9-4.33a6.9 6.9 0 0 0-7.5-1.12 6.6 6.6 0 0 0-3.44 4.41 16.5 16.5 0 0 0 2.4 13.01c1.68 2.52 4.35 4.78 7.58 4.36a2.07 2.07 0 0 0 2-2 2 2 0 0 0-2-2c-2.28.3-3.77-1.59-4.76-3.4a13 13 0 0 1-1.61-5.03 8.6 8.6 0 0 1 .86-5.24c-.31.5.52-.45.24-.25a2 2 0 0 1 .96-.44 2.7 2.7 0 0 1 2.45.53c1.91 1.7 4.75-1.11 2.83-2.83m57.49 2.83a2.7 2.7 0 0 1 2.3-.56 2 2 0 0 1 1.1.47c-.27-.2.55.74.24.25a5 5 0 0 1 .79 2.11 12 12 0 0 1 .07 3.13 13 13 0 0 1-1.6 5.02c-1 1.82-2.49 3.7-4.76 3.4a2 2 0 0 0-2 2 2.05 2.05 0 0 0 2 2c5.26.7 8.49-5 9.8-9.24 1.18-3.82 1.13-9.74-2.6-12.18a6.9 6.9 0 0 0-8.18.77c-1.92 1.72.92 4.54 2.83 2.83Z" class="c"/><path d="M106.6 64.12a29 29 0 0 1-1.3 4.36c-.2.5-.36.84-.6 1.4-.2.52.14-.27-.03.1l-.18.4a37 37 0 0 1-3.2 5.32c-2.79 3.94-6.6 8.24-11.49 9.4-2.5.58-1.44 4.44 1.07 3.85 5.77-1.35 10.21-6.18 13.56-10.8a38 38 0 0 0 3.47-5.68l.58-1.3.08-.19.43-1.04a29 29 0 0 0 1.46-4.76c.53-2.5-3.33-3.58-3.85-1.06m-57.02.96C52.06 75.95 60.24 87.8 72 89.58a2.07 2.07 0 0 0 2.46-1.4 2 2 0 0 0-1.4-2.46C62.6 84.14 55.64 73.66 53.44 64.01c-.57-2.5-4.43-1.45-3.86 1.06ZM99.66 11.7c6.04 2.48 10.03 7.4 12.2 13.45 2.13 5.97 1.91 12.13.95 18.3a2.06 2.06 0 0 0 1.4 2.47 2 2 0 0 0 2.46-1.4c1.12-7.16 1.41-14.31-1.23-21.2a30 30 0 0 0-5.34-9.13 25 25 0 0 0-9.37-6.35 2 2 0 0 0-2.46 1.4 2.05 2.05 0 0 0 1.4 2.46ZM95.4 5.64C90.3.82 82.83-.54 76.03.19c-7.4.79-13.95 4.06-19.8 8.55-3.07 2.36-5.86 4.94-9.63 6.1-2.45.76-1.4 4.62 1.07 3.86a19 19 0 0 0 4.67-2.02c1.4-.9 2.67-1.95 3.97-2.97a63 63 0 0 1 8.02-5.62 29.8 29.8 0 0 1 19-3.8 17 17 0 0 1 9.23 4.2c1.86 1.78 4.7-1.05 2.83-2.83Zm-51.75 16.4a18 18 0 0 0-1.62 5.59 51 51 0 0 0-.72 6.38 35 35 0 0 0 2.75 14.48 2.07 2.07 0 0 0 2.46 1.4 2 2 0 0 0 1.4-2.46 32 32 0 0 1-2.62-12.96 40 40 0 0 1 .54-5.43 17 17 0 0 1 1.27-4.97c1.2-2.27-2.25-4.3-3.46-2.02Zm45.91 4.88a49 49 0 0 1-13.27 3.8c-4.8.73-9.65.5-14.5.82-2.55.16-2.57 4.17 0 4 5.21-.34 10.38-.18 15.56-.97a53 53 0 0 0 14.22-4.2 2 2 0 0 0 .72-2.73 2.05 2.05 0 0 0-2.73-.72m-33.89 8.51a14 14 0 0 0-3.75 7.38 62 62 0 0 0-1.12 7.51 2 2 0 0 0 2 2 2.04 2.04 0 0 0 2-2q.08-.96.2-1.93l.08-.77c.05-.35-.07.46.02-.1l.05-.35q.24-1.56.59-3.1a22 22 0 0 1 .85-3.07 11 11 0 0 1 .77-1.43 7 7 0 0 1 1.14-1.31 2 2 0 0 0-2.83-2.83m39.01-2.15a37 37 0 0 1 7.13 8.35c1.7 2.77 2.53 5.49 3.98 8.45a2 2 0 0 0 2.73.72 2.04 2.04 0 0 0 .72-2.74c-1.42-2.9-2.41-5.93-4.12-8.69a40 40 0 0 0-7.61-8.92 2.05 2.05 0 0 0-2.83 0 2 2 0 0 0 0 2.83" class="c"/><path d="M55 100.93c.9-.32 1.76-.77 2.62-1.16l3.99-1.84 3.13-1.45.32-.15-.16.07.84-.35a5.6 5.6 0 0 0 2.47-2.29 9 9 0 0 0 .83-2.93c.24-1.51.5-3.01.63-4.54a2 2 0 0 0-2-2 2.05 2.05 0 0 0-2 2 38 38 0 0 1-.92 5.5c-.06.24.2-.3.03-.1l-.13.24c-.22.39.16-.11-.08.1l-.22.21c.21-.24.13-.08.01 0l-.3.18c-.04.02-.45.23-.29.16-.14.06-.7.28-1.02.43l-6.66 3.08-1.73.79-.55.24c-.45.2.5-.18.12-.05a2.05 2.05 0 0 0-1.4 2.46 2 2 0 0 0 2.46 1.4Zm36.56-14.8q.2 2.13.56 4.24a17 17 0 0 0 .41 2.19 5.5 5.5 0 0 0 1.5 2.49 6 6 0 0 0 1.34.93l.8.34c1.96 1.01 4.01 1.9 6.01 2.84q1.43.7 2.87 1.33a2 2 0 0 0 2.46-1.4 2.06 2.06 0 0 0-1.4-2.46c1 .41.06 0-.17-.1l-1.29-.61-3.48-1.65L98.48 93l-.3-.13-.07-.04-.48-.2c-.05-.02-.37-.16-.08-.03l-.54-.29c-.06-.03-.35-.22-.13-.07.2.14 0 0-.03-.03-.14-.14-.39-.47-.14-.1l-.3-.5c-.12-.18.1.16.07.18l-.12-.36-.13-.5q-.12-.6-.2-1.2c-.2-1.32-.37-2.3-.49-3.6a2.04 2.04 0 0 0-2-2 2 2 0 0 0-2 2Z" class="c"/><path d="M79.42 155.03c-3.53-8.7-13.9-45.01-17.54-59.95a4.2 4.2 0 0 1 .96-2.96c1.23-1.42 2.77-3.48 4.03-4.88.53.43 11.38 8.99 12.2 9.57h1.9c.83-.58 11.68-9.14 12.2-9.57 1.26 1.4 2.8 3.46 4.03 4.88a4.2 4.2 0 0 1 .97 2.96c-3.65 14.94-14.02 51.25-17.54 59.95" class="a"/><path d="M103.35 434.19c-2.92-2.4-5.72-4.79-9-7.22-1.64-1.21-3.67-2.05-5.22-3.36a9 9 0 0 1-2.1-2.8c-1.83-3.48-1.67-9.99-.98-13.86l.2-1.1c4.53.52 10.18.78 14.21.82a53 53 0 0 0 9.75-.95l1.79 2.82c1.3 1.46 3.73 4.37 5.14 5.73 4.2 4.05 5.7 5.97 8.76 9.36 2.34 2.6 4.4 7.82 3.8 11.48-.45 2.82-3.17 4.37-5.82 5.46a21 21 0 0 1-7.72.4 21 21 0 0 1-9.09-3.82q-1.92-1.49-3.72-2.96m-44.46-.21c2.9-2.27 5.64-4.57 9.84-6.25 2.15-.85 4.4-1.17 6.05-2.8a8.7 8.7 0 0 0 2.05-4.09 33.5 33.5 0 0 0 .13-13.56s-.11-.57-.3-1.51a146 146 0 0 1-14.97.9 55 55 0 0 1-10.7-1.13l-3.1 4.93-13.68 15.27c-6.72 6.9-4.42 13.87 3.38 15.13a21.4 21.4 0 0 0 12.1-1.82 30 30 0 0 0 6.78-3.25 68 68 0 0 0 2.42-1.82" style="fill:#645d5c"/><path d="M108.48 406.73c2.63 4.9 7.14 8.66 10.9 12.64 3.81 4.05 9.06 8.95 8.4 15.1-.26 2.4-3.22 4-5.37 4.41a18 18 0 0 1-8.44-.5c-3.64-1.08-6.41-3.32-9.3-5.69-3.17-2.6-6.28-5.36-9.65-7.7-1.6-1.1-3.54-1.81-4.91-3.2a8.5 8.5 0 0 1-2.1-4.18 27 27 0 0 1-.03-10.13 2.06 2.06 0 0 0-1.4-2.46 2 2 0 0 0-2.46 1.4c-1.17 6.76-1.24 15.56 5.14 19.77 1.75 1.16 3.57 2.11 5.24 3.39q2.65 2.06 5.23 4.2c3.24 2.69 6.44 5.74 10.35 7.43 6.02 2.6 14.4 3.24 19.45-1.76 2.73-2.7 2.6-6.65 1.58-10.1-1.05-3.6-3.05-6.27-5.49-9.02-2.5-2.81-5.15-5.43-7.75-8.15a36 36 0 0 1-5.95-7.47c-1.22-2.27-4.67-.25-3.45 2.02Zm-33.45 1.08a32 32 0 0 1 .05 11.54 8 8 0 0 1-1.49 3.93c-1.02 1.25-2.79 1.62-4.25 2.11a31 31 0 0 0-8.58 4.62c-2.6 1.95-5.03 4.19-7.97 5.62-3.27 1.58-6.97 3.11-10.62 3.41-2.7.22-6 .07-8.2-1.74-5.05-4.12 1.82-10.2 4.53-13.24 2.92-3.26 5.79-6.58 8.71-9.84a40 40 0 0 0 5.31-7.67c1.23-2.27-2.22-4.29-3.45-2.02a39 39 0 0 1-5.16 7.38c-2.87 3.21-5.67 6.48-8.55 9.68-2.6 2.89-5.6 5.54-6.71 9.42a8.9 8.9 0 0 0 1.6 8.22c2.14 2.56 5.51 3.54 8.72 3.81 4.36.37 8.3-.9 12.3-2.45a31 31 0 0 0 5.66-2.7c1.47-.95 2.84-2.07 4.21-3.16a32 32 0 0 1 9.08-5.42c2-.68 4.05-1.26 5.68-2.7a10 10 0 0 0 2.82-5.08 36 36 0 0 0 .17-14.79c-.5-2.52-4.35-1.45-3.86 1.07" class="c"/><path d="M81.23 212.37a.72.72 0 0 0-1.4.04 90 90 0 0 1-2 9.78 18 18 0 0 1-6.8 9.5c-2.33 1.73-7.07 3.63-12.43 4.45a107 107 0 0 1-19.08.7l.5 13c2.22 53.85 3.4 102.33 5.52 154.34a59 59 0 0 0 16.16 2.49c5.84-.06 15.11-.57 19.39-1.68 4.28 1.11 13.53 1.63 19.37 1.68a59 59 0 0 0 16.16-2.5c2.1-51.87 3.28-100.23 5.5-153.92l.52-13.78v-.13c-7.14.43-16.33.73-21.71-.15-4.8-.78-8.09-1.69-11.13-4.25a19.3 19.3 0 0 1-6.43-9.34 99 99 0 0 1-2.14-10.23" class="e"/><path d="M98.82 92.31c-2.83 12.56-14.41 53.42-18.18 62.72h-1.22c-3.77-9.3-15.36-50.16-18.19-62.72a57 57 0 0 0-7.98 6.22 128 128 0 0 0-24.2 11.65L7.6 144.4q.18 2.39.3 4.61c.37 6.1.54 11.78 1.42 21.34a43 43 0 0 0 1.51 9.16c2.05 6.47 7.7 11.96 14.44 12.66a21.7 21.7 0 0 0 12.3-1.92l.89-.42a1078 1078 0 0 0-1.77 18.37 837 837 0 0 0-2.62 26.86 1.37 1.37 0 0 0 1.22 1.48 108 108 0 0 0 23.3-.38c5.37-.83 10.1-2.73 12.44-4.46a18 18 0 0 0 6.8-9.5 90 90 0 0 0 1.99-9.78.72.72 0 0 1 1.41 0 99 99 0 0 0 2.13 10.2 19.3 19.3 0 0 0 6.42 9.34c3.05 2.56 6.33 3.46 11.13 4.25 6.88 1.12 20.01.32 27.09-.23a1.25 1.25 0 0 0 1.15-1.34 854 854 0 0 0-2.27-24.57l-1.03-10.71c4.05-1.8 8.2-3.82 12.25-6.04 4.12-2.25 8.3-7.65 9.58-10.57 1.37-3.1 1.36-8.36.74-14.44-2.4-15.74-5.1-26.65-9.13-45.78-1.34-6.37-3.91-11.75-8.79-15.68a53 53 0 0 0-5.7-3.52c-4.8-2.44-16.01-6.22-20.42-7.91l-2.46-.95a53 53 0 0 0-3.1-2.15" class="e"/><path d="M123.92 199.3c.74 9.42 1.84 18.8 2.66 28.2l.43 5.19.09 1.16a7 7 0 0 0 .06.78c-.02-.01.69-.47.44-.62-.3-.19-1.52.11-1.89.14q-4.53.31-9.07.49c-5.95.22-12 .37-17.86-.86a17 17 0 0 1-8.04-3.64 18 18 0 0 1-5.32-7.7 64 64 0 0 1-2.02-9.2c-.3-1.7-.86-3.51-2.98-3.44-2.15.08-2.5 2.04-2.8 3.74a49 49 0 0 1-2.14 9.34 16 16 0 0 1-5.56 7.15c-5.04 3.65-11.93 4.42-17.95 4.76a121 121 0 0 1-15.14-.12 4 4 0 0 0-1.04-.1c-.3.1-.05-.03.1.17.36.48.13.3.21-.04a14 14 0 0 0 .2-2.27q.77-9.17 1.74-18.33l.64-5.9a2 2 0 0 0-2-2 2.05 2.05 0 0 0-2 2q-1.05 9.33-1.9 18.7c-.25 2.68-.7 5.46-.7 8.16-.01 3.85 4.39 3.62 7.14 3.77a102 102 0 0 0 18.45-.55c6.07-.8 12.4-2.61 16.9-6.97a20 20 0 0 0 5.19-8.59c.39-1.27.66-2.58.92-3.88q.32-1.53.6-3.06a12 12 0 0 1 .48-2.78l-.71.72-1.3-.14-.52-.88a25 25 0 0 1 .6 3.2q.3 1.6.64 3.2a39 39 0 0 0 1.16 4.6 22 22 0 0 0 6.6 9.53c5.5 4.7 13.27 5.4 20.24 5.52 3.72.06 7.43-.05 11.14-.24q2.59-.12 5.17-.3c1.59-.1 3.73.1 5.06-.88 1.82-1.33 1.25-3.69 1.1-5.62l-.52-6.06q-.61-6.82-1.32-13.63-.66-6.35-1.18-12.7c-.2-2.56-4.2-2.58-4 0Z" class="c"/><path d="M79.42 155.03c-1.46-3.6-4.1-11.95-6.94-21.55 1.55-10.95 3.25-22.77 3.24-23.38a12 12 0 0 0-.7-3.37 19 19 0 0 0-.9-2.9s-.07-.16-.2-.4a119 119 0 0 1 5.16-6.61h1.9c1.3 1.45 3.42 4.25 5.17 6.6l-.03.08c-.36 1.5-.42 2.22-.73 3.64q-.09.43-.2.85a9 9 0 0 0-.3 1.9c0 .37 1.63 12.85 2.82 23.14-2.9 9.79-5.59 18.34-7.07 22Z" style="fill:#3d8dcc"/><path d="M38.69 208.2q.74-8.56 1.63-17.11.38-3.65.82-7.28c.31-2.5.3-5.08.37-7.6a392 392 0 0 0-.6-31.77q-.53-9.75-1.25-19.5c-.19-2.56-4.19-2.58-4 0a732 732 0 0 1 1.83 33.44q.22 7.84.07 15.67-.08 3.87-.26 7.74c-.12 2.4-.5 4.78-.75 7.16-.7 6.4-1.29 12.82-1.86 19.24a2 2 0 0 0 2 2 2.04 2.04 0 0 0 2-2" class="c"/><path d="M5.6 144.4c.68 8.95.95 17.92 1.8 26.87.5 5.22 1.34 10.41 4.5 14.75a19.5 19.5 0 0 0 11.05 7.77 24.2 24.2 0 0 0 15.63-1.83 2 2 0 0 0 .72-2.73 2.05 2.05 0 0 0-2.74-.72 20 20 0 0 1-11.84 1.57 15.2 15.2 0 0 1-9.59-6.37c-2.78-3.99-3.38-8.65-3.82-13.37q-.62-6.77-.98-13.55c-.23-4.13-.42-8.27-.73-12.4-.2-2.55-4.2-2.57-4 0Zm78.88-37.6c-2.83 0-5.66-.07-8.49-.07a2 2 0 0 0 0 4c2.83 0 5.66.06 8.49.06a2 2 0 0 0 0-4" class="c"/><path d="M84.2 102.97c-.34 1.41-.57 2.85-.89 4.28a10 10 0 0 0-.39 2.96c.11 1.52.38 3.05.56 4.56q1.13 8.9 2.18 17.83a2.06 2.06 0 0 0 2 2 2 2 0 0 0 2-2q-1.03-8.77-2.14-17.53c-.2-1.57-.44-3.14-.58-4.72a6 6 0 0 1 .23-2.04c.32-1.42.54-2.86.88-4.28.59-2.5-3.27-3.57-3.86-1.06M74.54 133q1.29-9 2.55-18c.2-1.53.5-3.07.6-4.61a9 9 0 0 0-.39-2.96 32 32 0 0 0-1.46-4.63 2 2 0 0 0-2.74-.72 2.05 2.05 0 0 0-.71 2.74 24 24 0 0 1 1.16 4.1 5 5 0 0 1 .12 1.67c-.16 1.51-.36 2.74-.57 4.29l-2.42 17.05a2.07 2.07 0 0 0 1.4 2.46 2 2 0 0 0 2.46-1.4Z" class="c"/><path d="M65.45 85.83c-1.06 1.2-2.04 2.47-3.05 3.71a10 10 0 0 0-2.37 3.83c-.5 2.1.39 3.57 1.46 5.23q1.86 2.88 3.98 5.58a21 21 0 0 0 4.7 4.67 2.05 2.05 0 0 0 2.74-.72c2.5-3.32 4.83-6.79 7.58-9.9a2.04 2.04 0 0 0-.4-3.14q-.39-.27-.74-.56c.54.42-.27-.2-.4-.3l-.74-.59-4.02-3.15q-2.97-2.31-5.9-4.66a2.06 2.06 0 0 0-2.84 0 2 2 0 0 0 0 2.83c4.15 3.34 8.29 6.78 12.61 9.88l-.4-3.14c-2.97 3.37-5.51 7.12-8.2 10.72l2.73-.72a11 11 0 0 1-1.69-1.5 32 32 0 0 1-1.9-2.16 59 59 0 0 1-4.44-6.42l-.31-.53-.1-.17c.13.5.13-.16.13-.17a5 5 0 0 1 .57-1.14q.58-.73 1.2-1.45 1.28-1.64 2.63-3.2a2.05 2.05 0 0 0 0-2.83 2 2 0 0 0-2.83 0m32.07 58.88A283 283 0 0 0 110 124.93q1.52-2.7 3-5.42c1.01-1.85 2.63-3.98 1.58-6.16-.77-1.6-2.52-2.9-3.8-4.1l-4.04-3.7-.4 3.13 3.67-2.1c1.15-.65 2.61-1.32 2.65-2.86.04-1.89-1.84-3.86-3.03-5.16a50 50 0 0 0-9.8-7.98 2.02 2.02 0 0 0-2.93 1.2c-1.84 8.14-4.12 16.19-6.37 24.22a892 892 0 0 1-8.38 28.44c-1.07 3.37-2.12 6.77-3.44 10.06a2 2 0 0 0 1.4 2.46 2.05 2.05 0 0 0 2.46-1.4c2.86-7.09 4.88-14.58 7.04-21.9q4.3-14.48 8.2-29.08c1.03-3.9 2.06-7.8 2.95-11.74l-2.94 1.2a53 53 0 0 1 6.13 4.6 35 35 0 0 1 2.85 2.76 15 15 0 0 1 1.13 1.36q.25.35.48.73c.11.18.26.78.24.24l.27-1.01-.16.26.71-.72c-1.63 1.1-3.45 2-5.16 2.97a2.02 2.02 0 0 0-.4 3.15l3.76 3.46q.94.86 1.87 1.76c.25.24 1.38 1.07 1.43 1.44 0 .05-.53.82-.59.92l-.63 1.16-1.58 2.87q-1.23 2.23-2.49 4.43a284 284 0 0 1-11.61 18.27c-1.45 2.14 2.01 4.14 3.45 2.02" class="c"/><path d="M65.99 142.69a283 283 0 0 1-11.62-18.27q-1.26-2.2-2.49-4.43l-1.47-2.68-.73-1.35a11 11 0 0 1-.6-.93c.03-.35 1.19-1.2 1.44-1.43q.92-.9 1.86-1.77l3.77-3.46a2.02 2.02 0 0 0-.4-3.14c-1.72-.98-3.54-1.87-5.17-2.98l.72.72-.17-.26.27 1.01c-.02.49.12-.04.24-.23q.22-.39.48-.74a15 15 0 0 1 1.02-1.23 35 35 0 0 1 2.98-2.9 53 53 0 0 1 6.12-4.58l-2.94-1.2c1.84 8.14 4.13 16.19 6.37 24.22 2.67 9.51 5.4 19.01 8.38 28.44 1.07 3.37 2.12 6.77 3.44 10.05a2.06 2.06 0 0 0 2.46 1.4 2 2 0 0 0 1.4-2.46c-2.86-7.08-4.88-14.57-7.04-21.89q-4.29-14.49-8.19-29.09a323 323 0 0 1-2.96-11.73 2.02 2.02 0 0 0-2.93-1.2 50 50 0 0 0-9.8 7.98c-1.16 1.27-3 3.19-3.02 5.02-.01 1.54 1.27 2.21 2.44 2.88l3.88 2.22-.4-3.14-4.05 3.71c-1.28 1.2-3.03 2.5-3.8 4.1-1.05 2.17.58 4.3 1.59 6.16q1.48 2.71 3 5.4c3.84 6.8 8.1 13.33 12.47 19.79 1.44 2.12 4.9.12 3.46-2.02Zm25.79-54.03q1.35 1.58 2.64 3.2a8 8 0 0 1 1.75 2.57c.02.07.06.55.08.28.02-.15.02-.05-.02.05a5 5 0 0 1-.33.56l-1.1 1.75a59 59 0 0 1-3.27 4.57 32 32 0 0 1-2.9 3.16l-.45.39c.3-.24-.25.17-.31.21l2.73.72c-2.69-3.6-5.23-7.35-8.2-10.72l-.4 3.14c4.32-3.1 8.47-6.54 12.6-9.88a2 2 0 0 0 0-2.83 2.05 2.05 0 0 0-2.82 0q-2.94 2.36-5.91 4.67l-4.02 3.15-.74.57c-.14.11-.94.73-.4.32l-.73.55a2.04 2.04 0 0 0-.4 3.14c2.74 3.12 5.08 6.58 7.57 9.9a2.04 2.04 0 0 0 2.74.72 21 21 0 0 0 4.7-4.67q2.13-2.7 3.98-5.58c1.07-1.66 1.97-3.13 1.46-5.23a10 10 0 0 0-2.37-3.83q-1.48-1.88-3.05-3.7a2 2 0 1 0-2.83 2.82M80.55 406.92c5.6 1.4 11.65 1.54 17.4 1.7a60 60 0 0 0 19.2-2.52 2.1 2.1 0 0 0 1.47-1.93c1-24.95 1.83-49.91 2.66-74.87.83-25.36 1.68-50.71 2.7-76.06q.35-8.39.65-16.77c.1-2.57-3.9-2.57-4 0-.64 16.9-1.33 33.78-1.93 50.67-.88 24.92-1.66 49.84-2.51 74.77q-.73 21.13-1.57 42.26l1.46-1.93a56 56 0 0 1-18.13 2.38c-5.4-.15-11.08-.24-16.34-1.56-2.5-.63-3.56 3.23-1.06 3.86" class="c"/><path d="M80.54 403.07c-5.26 1.31-10.94 1.4-16.34 1.55a56 56 0 0 1-18.14-2.37l1.47 1.92a9979 9979 0 0 1-2.65-74.6 9582 9582 0 0 0-2.7-75.75q-.35-8.67-.67-17.34c-.1-2.57-4.1-2.58-4 0 .65 16.98 1.34 33.97 1.94 50.96.88 24.83 1.66 49.66 2.51 74.5q.73 21.12 1.57 42.23A2.1 2.1 0 0 0 45 406.1a60 60 0 0 0 19.2 2.52c5.75-.16 11.8-.3 17.4-1.7 2.5-.63 1.44-4.49-1.06-3.86Z" class="c"/><path d="M79.08 258.6v146.25c0 2.56 4 2.57 4 0V258.6c0-2.57-4-2.57-4 0m-26.35-162a133 133 0 0 0-24.7 11.86c-2.18 1.34-.17 4.8 2.03 3.45a128 128 0 0 1 23.73-11.45c2.4-.87 1.37-4.73-1.06-3.86m71.15 28.34c-.99 13.75-1.88 27.52-1.95 41.3-.01 2.58 3.99 2.58 4 0 .07-13.79.96-27.55 1.95-41.3.19-2.57-3.81-2.56-4 0" class="c"/><path d="M150.35 167.77c-2.01-13.21-4.94-26.24-7.74-39.3-1.5-6.96-2.7-13.9-7.27-19.62-3.27-4.07-7.99-6.7-12.72-8.71-5.81-2.46-11.81-4.4-17.7-6.66a2 2 0 0 0-2.46 1.4 2.05 2.05 0 0 0 1.4 2.46c4.97 1.9 10.02 3.59 14.97 5.54a47 47 0 0 1 6.04 2.76 62 62 0 0 1 4.06 2.5l.31.24a21 21 0 0 1 1.8 1.65c4.8 4.91 5.99 11.49 7.37 17.95 1.42 6.65 2.9 13.3 4.28 19.95a398 398 0 0 1 3.8 20.9 2 2 0 0 0 2.46 1.4 2.05 2.05 0 0 0 1.4-2.45Z" class="c"/><path d="M6.09 134.29a30 30 0 0 0-2.26-3.83 9 9 0 0 1-1.87-5.72 11 11 0 0 1 .9-3.54c2.08-3.23 3.87-6.06 6.04-8.8a23 23 0 0 1 1.68-1.82 5.2 5.2 0 0 1 3.62-1.5 4.3 4.3 0 0 1 3.12 1.72c2.84.9 3.42-.89 4.69-1.88a4.9 4.9 0 0 1 4.82-.41 12 12 0 0 1 4.02 3.03 7 7 0 0 1 1.75 3.51 2.6 2.6 0 0 1-.77 2.32 4.2 4.2 0 0 1-3.24 1.19l1.65 3.35a5 5 0 0 1 .37 2.03 3 3 0 0 1-.06.83 4 4 0 0 1-.34.82c-1.3 2.44-3.64 5.32-2.55 8.28 2.68 7.77 2.31 11.65-.2 13.85a18 18 0 0 1-6.92 3.68c-.7.15-3.96.7-4.61.4-1.3-.6-2.55-.89-3.5-2.04a9 9 0 0 1-1.58-3.31c-.4-1.43-1.6-4.96-2.51-7.25a53 53 0 0 0-2.25-4.91" class="a"/><path d="M19.22 110.1c-1.94-3.82-7.06-3.62-9.9-1.07-3.15 2.82-5.4 6.83-7.67 10.35a10.6 10.6 0 0 0-.67 10.18c.71 1.58 1.87 2.94 2.7 4.46s1.6 3.07 2.3 4.66c1.29 2.95 2.14 6.04 3.18 9.08a8.4 8.4 0 0 0 7.93 6.11 19 19 0 0 0 8.67-2.52c2.5-1.45 4.79-3.3 5.47-6.23.86-3.65-.25-7.63-1.4-11.1a4.4 4.4 0 0 1-.2-3.04 14 14 0 0 1 1.37-2.73 12 12 0 0 0 1.5-2.95 7 7 0 0 0-.32-3.92 2.06 2.06 0 0 0-2.46-1.4 2 2 0 0 0-1.4 2.46 3 3 0 0 1 .17 2.14 14 14 0 0 1-1.14 1.99 13 13 0 0 0-1.9 5c-.2 1.79.52 3.36 1.01 5.04a25 25 0 0 1 1 4.55 9 9 0 0 1-.07 2.9 4 4 0 0 1-.9 1.83 13.6 13.6 0 0 1-6.74 3.63 22 22 0 0 1-2.9.36c-.13 0-.73-.11-.26.02.14.04-.81-.34-.82-.34a4.6 4.6 0 0 1-1.85-1.14A10 10 0 0 1 12.5 145q-.69-2.18-1.48-4.35a62 62 0 0 0-3.55-8.02c-1.33-2.5-3.71-4.88-3.51-7.89a7.3 7.3 0 0 1 1.4-3.72q1.66-2.63 3.45-5.18c1.04-1.44 2.2-3.31 3.73-4.27a2.18 2.18 0 0 1 3.22.55c1.17 2.3 4.62.28 3.46-2.01Z" class="c"/><path d="M13.67 121.19q1.09-1.49 2.21-2.95l.66-.86c.29-.37-.27.35.02-.02l.3-.4q.53-.68 1.07-1.34.3-.4.63-.78l.18-.18c-.22.23 0 .02.14-.08q.3-.15-.06 0l.3-.1q.33-.07-.1 0l.3-.02.3.01q-.4-.06-.08.01l.29.09q-.38-.16-.06-.01c.14.1.37.25.11.04l.45.44c-.33-.35.06.13.13.23q.15.3-.01-.07l.16.46c.06.03 0 .48 0 .55a2 2 0 0 0 2 2 2.05 2.05 0 0 0 2-2 5.6 5.6 0 0 0-2.43-4.85 5 5 0 0 0-5.38-.19 8 8 0 0 0-1.94 1.92q-1.2 1.53-2.38 3.08-1.14 1.48-2.26 3a2 2 0 0 0 .72 2.73 2.06 2.06 0 0 0 2.73-.72Z" class="c"/><path d="M19.73 122.94a36 36 0 0 1 3.32-3.51l.9-.79.39-.33.2-.17.08-.06c.23-.26-.06.15-.14.06 0 0 .61-.15.22-.07-.35.08.2.05.25.03-.27.08-.35-.08-.13-.01l.32.09c.2.04-.15-.06-.16-.08l.24.13.23.14c.02.01-.37-.2-.18-.12.07.03.23.28.04.02-.17-.23-.04-.05-.01 0l.13.23.06.11q.11.24 0 .01l-.04-.11.06.19.05.19c.1.33-.03-.1 0-.16v.25c.02.07-.02.28.03-.04.05-.36 0-.04-.04.05 0 .03-.04.21-.07.22l.05-.12-.07.14a14 14 0 0 1-1.02 1.64l-.16.2c.39-.56.14-.17.03-.04l-.55.67q-1.22 1.46-2.49 2.89a2 2 0 0 0 2.83 2.82q1.3-1.46 2.56-2.97a15 15 0 0 0 2.62-4.02 4.8 4.8 0 0 0-2.05-5.65 5 5 0 0 0-3.33-.6 5 5 0 0 0-2.56 1.45 37 37 0 0 0-4.43 4.5 2 2 0 0 0 2.82 2.82" class="c"/><path d="M21.26 112.3a10 10 0 0 0 1.3-1.12q.2-.23.42-.44l.29-.28q-.19.14-.02.03c.07-.05.62-.34.26-.19a3 3 0 0 1 .52-.16c.13-.03.56-.07.2-.05H25c.42 0-.23-.08.22.02l.55.14.36.12q-.22-.1-.02-.02.32.15.62.33a9 9 0 0 1 1.01.67c-.23-.18.33.28.38.33l.45.41a20 20 0 0 1 1.13 1.15q-.17-.23.04.06l.32.5.28.54c-.13-.28.14.4.16.47l.17.71q-.05-.18-.02.14c.15-.52-.22.39-.06.1.16-.27-.43.48-.05.07-.08.09-.2.19-.27.28-.23.29.31-.18-.02.01q-.26.16-.53.3c.32-.16 0 0-.16.04-.04.01-.6.13-.2.08a4 4 0 0 1-.83 0 2 2 0 0 0-2 2 2.05 2.05 0 0 0 2 2 6.1 6.1 0 0 0 4.84-1.88 4.8 4.8 0 0 0 1.28-3 7 7 0 0 0-.77-3.15 11.5 11.5 0 0 0-3.55-4.18 9.2 9.2 0 0 0-5.61-2.26 6.5 6.5 0 0 0-3.25.81 6 6 0 0 0-1.32 1.03l-.55.58-.22.21c-.04.04-.36.31-.13.14a2.05 2.05 0 0 0-.72 2.74 2 2 0 0 0 2.74.72Z" class="c"/><path d="M47.93 163.16c3-1.9 32.26-18.44 38.02-21.18 9.54 16.31 25.78 47.52 28.5 52.97-5 3.07-32.7 18.96-38.63 22.1-3.98-7.35-23.5-44.35-27.9-53.89" style="fill:#fecb87"/><path d="M48.94 164.89c4.1-2.57 8.39-4.86 12.6-7.24q9.32-5.3 18.73-10.43c2.2-1.2 4.42-2.43 6.69-3.51l-2.74-.72c8.8 15.05 16.9 30.52 24.93 45.99q1.81 3.47 3.58 6.98l.72-2.73c-10.51 6.44-21.34 12.42-32.08 18.47q-3.26 1.85-6.55 3.62l2.73.72q-11.89-21.99-23.17-44.31c-1.61-3.17-3.23-6.35-4.72-9.58a2 2 0 0 0-2.74-.71 2.05 2.05 0 0 0-.71 2.73c3.2 6.94 6.8 13.7 10.32 20.5q6.47 12.5 13.06 24.93 2.24 4.24 4.5 8.46a2.04 2.04 0 0 0 2.75.71c11.01-5.85 21.78-12.23 32.55-18.5 2.04-1.19 4.07-2.36 6.08-3.6a2.05 2.05 0 0 0 .72-2.73 1126 1126 0 0 0-28.52-52.97 2.05 2.05 0 0 0-2.74-.71c-4.96 2.37-9.75 5.17-14.55 7.84q-9.13 5.08-18.18 10.26c-1.77 1.01-3.56 2-5.28 3.08-2.18 1.36-.17 4.83 2.02 3.45" class="c"/><path d="M71.22 193.8a39 39 0 0 0 6.5-2.24c-2.86-2.02-8.98-4.04-9.17-7.51a3 3 0 0 1 .77-2.32c1.02-1.04 2.48-.8 5-.6 1.9.14 3.28.43 5.16.72a38 38 0 0 1 4.32.92c3.59 1.48 5.17 1.95 7.45 4.83 2.13 5.14 5 12.1 6.96 17.17l-1.29 1.05c-6.53 5.36-13.04 9.81-21.28 11.67-.96.22-4.1-.61-4.97-1.6a17 17 0 0 1-4.23-8.1 8 8 0 0 1-2.98-3.45 6.7 6.7 0 0 1-.38-5 13 13 0 0 1-1.96-1.24 3.3 3.3 0 0 1-.8-4.09 3.6 3.6 0 0 1 3.87-1.5 47 47 0 0 0 5.2 1.64q.9-.12 1.83-.34" class="a"/><path d="M76.71 189.84a32 32 0 0 1-7.86 2.38h1.06a43 43 0 0 1-5.03-1.59 5.5 5.5 0 0 0-6.13 2.14 5.3 5.3 0 0 0 .62 6.45c1.66 1.73 4.35 2.73 6.61 3.34 2.49.67 3.55-3.2 1.06-3.86a15 15 0 0 1-3.4-1.34 8 8 0 0 1-1.28-.82 1.2 1.2 0 0 1-.4-.67 1 1 0 0 1 .08-.86c.07-.14.19-.25.57-.44.74-.39 1-.15 1.84.15q1.4.5 2.83.93.6.19 1.24.35a5 5 0 0 0 2.13-.04 37 37 0 0 0 8.08-2.67 2 2 0 0 0 .72-2.74 2.05 2.05 0 0 0-2.74-.71" class="c"/><path d="M61.14 198.8a9.7 9.7 0 0 0 4.28 10.72l-.92-1.2c.89 3.31 2.34 6.74 4.9 9.13a8.6 8.6 0 0 0 4.09 1.85 9.3 9.3 0 0 0 4.74-.41c7.59-2.18 14.06-6.71 20.1-11.66 2-1.63-.85-4.44-2.83-2.83a72 72 0 0 1-10.12 7.14 39 39 0 0 1-5.45 2.58q-1.46.54-2.97.97l-1.44.37q-.72.16-.23.06l-.46-.02a5.2 5.2 0 0 1-3.3-1.65 14 14 0 0 1-2.5-4.36 16 16 0 0 0-.87-2.71c-.46-.79-1.49-1.18-2.05-1.94a5.5 5.5 0 0 1-1.11-4.98c.68-2.49-3.18-3.55-3.86-1.06m30.34-13.96a18 18 0 0 0-7.56-4.11 53 53 0 0 0-9.8-1.62c-2.89-.24-6.32-.3-7.35 3.1-.85 2.78.72 5.18 2.85 6.82 2.2 1.69 4.82 2.69 7.09 4.26a2 2 0 0 0 2.74-.72 2.04 2.04 0 0 0-.72-2.73c-2.06-1.43-4.44-2.34-6.48-3.8a8 8 0 0 1-1.1-.97 2.3 2.3 0 0 1-.58-.94q-.25-1.11.82-1.17a24 24 0 0 1 4.63.35q2.56.34 5.1.87c2.65.56 5.56 1.56 7.53 3.5 1.85 1.8 4.68-1.03 2.83-2.83Z" class="c"/><path d="M123.66 166.38c-9.78 4.11-23.92 10.23-35.04 14.85 1.32 3.3 8.8 20.99 11.1 27.63a196 196 0 0 0 38.39-15.55c4.12-2.25 8.3-7.65 9.58-10.57 1.37-3.1 1.35-8.37.73-14.44" class="e"/><path d="M123.13 164.45c-9.76 4.1-19.48 8.31-29.23 12.42l-3.43 1.43c-1.31.55-2.82.94-3.34 2.42-.56 1.57.42 3.16 1.02 4.6l4.59 11.12a363 363 0 0 1 4.42 11.2 4.5 4.5 0 0 0 1.6 2.55 4 4 0 0 0 3.42.05q2.82-.84 5.6-1.77a193 193 0 0 0 30.1-12.76 27.5 27.5 0 0 0 11.14-11.16c2.57-4.84 1.92-11 1.4-16.25a2.06 2.06 0 0 0-2-2 2 2 0 0 0-2 2 44 44 0 0 1 .17 10.87 14.4 14.4 0 0 1-3.43 6.96 25 25 0 0 1-7.91 6.45q-5.3 2.8-10.77 5.2a198 198 0 0 1-19.5 7.4q-1.86.6-3.74 1.16a5 5 0 0 0-.9.26c.02-.1.78.85.88.53.02-.06-.1-.26-.12-.33a12 12 0 0 0-.63-1.7q-1.5-3.92-3.1-7.8-1.86-4.6-3.76-9.18l-1.56-3.76-.65-1.58-.3-.7-.1-.25c-.16-.22.06-.25-.02-.05l-.51.88a7 7 0 0 1 1.81-.82l2.1-.88 4.39-1.85q4.5-1.9 8.98-3.82l16.44-7a2.07 2.07 0 0 0 1.4-2.45 2 2 0 0 0-2.46-1.4Z" class="c"/><path d="M103.45 113.51a4.53 4.53 0 0 0-4.63 4.6 4.46 4.46 0 0 0 4.63 4.68 4.4 4.4 0 0 0 4.62-4.69 4.53 4.53 0 0 0-4.62-4.59" style="fill:#febe69"/><path d="M103.45 111.51a6.6 6.6 0 0 0-6.34 4.63 6.8 6.8 0 0 0 2.17 7.25 7 7 0 0 0 7.63.51 6.7 6.7 0 0 0 3.04-7 6.6 6.6 0 0 0-6.5-5.39 2 2 0 0 0 0 4l.4.02c.45.01-.46-.1-.02 0q.3.06.6.16l.24.08-.25-.11.21.1a6 6 0 0 0 .6.38l-.21-.16.17.15.17.16c.06.06.16.23.23.26-.23-.1-.22-.32-.06-.07l.32.55c.1.17 0 .2-.05-.16l.15.45.13.59c-.16-.37-.03-.34-.03-.1l.01.3a3 3 0 0 0-.03.63l.04-.29a5 5 0 0 1-.23.92c-.1.27-.21.2.03-.06a3 3 0 0 0-.26.49l-.15.22c-.13.22.34-.38.07-.1a5 5 0 0 0-.46.45c.23-.33.26-.2.05-.06l-.19.12-.29.16c-.34.19.37-.11.12-.05l-.62.19-.23.05q-.33.05.17-.02l-.26.02h-.64l-.37-.02c.04-.01.5.1.17.02q-.3-.07-.63-.17l-.27-.1c.5.1.21.09.02-.01s-.34-.24-.52-.33c.39.2.27.21.15.1l-.24-.23q-.09-.11-.19-.2c-.19-.17.29.42.08.1l-.35-.59c-.2-.36.15.46.02.06l-.07-.23a3 3 0 0 0-.17-.7c.03.03.04.5.03.16l-.03-.39v-.32l.01-.18q.04-.33-.03.17c.1-.2.1-.48.17-.7l.12-.33c-.02.2-.17.36 0 .05l.37-.6-.17.23a4 4 0 0 1 .4-.43l.09-.08q.24-.2-.13.1l.3-.2.3-.18c.38-.2.1.04-.03 0 .13.03.56-.19.71-.22l.13-.02q.33-.06-.15.01l.54-.03a2 2 0 0 0 0-4Z" class="c"/></svg>
