<svg xmlns="http://www.w3.org/2000/svg" viewBox="-21.11 0 317.214 317.214"><defs><style>.a{fill:#fff}.c{fill:#211715}.f{fill:#a98a75}</style></defs><path d="M183.45 76.52a7 7 0 0 1 5.15-1.88 6.6 6.6 0 0 1 5.94 3.3c2.02 3.5 1.93 9.95.58 13.94-.96 2.83-2.53 7.15-6.32 10.25a8 8 0 0 1-6.06 1.75l-.58-.1a46 46 0 0 1-2.08 5.66c-1.63 4.42-11.09 20.6-22.76 25.47v6.47c-5.54 4.37-16.51 13-17.58 13.76h-3.24c-1.04-.74-11.62-9.06-17.26-13.51v-6.47c-5.7-2.25-10.72-6.3-15.47-11.99a54 54 0 0 1-10.29-19.4 7.7 7.7 0 0 1-6.55-1.64c-3.8-3.1-5.36-7.42-6.32-10.25-1.36-3.99-1.44-10.44.57-13.94a6.6 6.6 0 0 1 5.95-3.3 7 7 0 0 1 5.15 1.88s-10.05-43.58 45.58-43.58 45.59 43.58 45.59 43.58" class="a"/><path d="M186.73 25.18q1.02 1.2 2.1 2.63c4.44 5.8 6.05 12.84 6 20.23-.04 7.02.13 12.5-1.2 18.63l-1.97 8.63a8 8 0 0 0-3.06-.66 7 7 0 0 0-5.15 1.88l-.61-.94-1.53-6.59c-.66-2.81-.68-5.6-1.2-8.77-1.9-11.25-11.45-17.63-17.23-19.86l-9.49-2.2c-10.67-.29-17.22 2.19-26.86 7.7-12.21 6.98-18.73 12.33-30.91 18.33q-1.07 4.97-1.72 10.02l-1.63 2.31a7 7 0 0 0-5.15-1.88 9 9 0 0 0-1.94.27l-2.68-7.32c-3.78-12.24-2.45-24.76 1.33-31.78 5.52-12.37 18.38-27.5 42.47-32.42a58 58 0 0 1 21.95.15c8.42 2 13.8 4.78 15.92 9.33l8.62 4.07c6.27 1.01 9.86 3.42 13.94 8.24" style="fill:#c6c6c6"/><path d="M137.09 224.91c-6.4-12.4-8.05-16.49-13.05-28.55-6.73-16.24-11.95-28.54-16.74-45.21a7.4 7.4 0 0 1 1.66-3.98c2.08-2.4 4.7-5.9 6.82-8.27.9.73 19.32 15.25 20.72 16.24h3.24c1.4-.99 19.81-15.5 20.72-16.24 2.12 2.38 4.75 5.86 6.82 8.27a7.4 7.4 0 0 1 1.65 3.92 405 405 0 0 1-16.74 45.04 308 308 0 0 1-14.11 28.78" class="a"/><path d="M93.97 74.83a10.2 10.2 0 0 0-11.18-1.57 9.8 9.8 0 0 0-4.96 6.71c-1.67 6.63.03 14.25 3.84 19.86 2.8 4.12 6.79 7.06 11.95 6.37a2.4 2.4 0 0 0 1.67-2.96 2.47 2.47 0 0 0-2.95-1.67c-3.51.47-6.23-3.37-7.65-6.03a22 22 0 0 1-2.61-8.58c-.19-2.67 0-6.39 1.49-8.32-.17.22.33-.35.38-.4a2 2 0 0 1 .5-.42 5 5 0 0 1 1.75-.69 5 5 0 0 1 4.37 1.1c2.3 2.05 5.7-1.33 3.4-3.4m91.18 3.4a5.1 5.1 0 0 1 7.07.5c-.34-.43.11.2.17.28a7 7 0 0 1 .37.67 11 11 0 0 1 .65 2.24 19 19 0 0 1 .23 5.04 22 22 0 0 1-2.53 8.42c-1.41 2.7-4.16 6.66-7.73 6.18a2.5 2.5 0 0 0-2.95 1.68 2.4 2.4 0 0 0 1.67 2.96c8.38 1.13 13.26-7.04 15.43-13.97a24 24 0 0 0 .63-10.88 11 11 0 0 0-4.25-7.52 10.1 10.1 0 0 0-12.16 1c-2.3 2.07 1.1 5.46 3.4 3.4" class="c"/><path d="M180.7 99.8a57 57 0 0 1-3.1 9.4c-.1.28.22-.48.09-.2l-.12.27-.24.51-.71 1.42a58 58 0 0 1-1.77 3.12 57 57 0 0 1-12.18 14.52 22.5 22.5 0 0 1-9.14 4.77c-3.01.7-1.74 5.32 1.28 4.63 6.93-1.6 12.7-6.66 17.22-11.92a62 62 0 0 0 9.68-14.63l.45-1.03c.06-.16.35-.83.07-.2q.59-1.3 1.1-2.65a45 45 0 0 0 2-6.74 2.46 2.46 0 0 0-1.67-2.95 2.4 2.4 0 0 0-2.96 1.68m-90.44 1.11a57 57 0 0 0 8.03 18.93c4.13 6.21 9.56 12.03 16.13 15.7a32 32 0 0 0 10.85 3.7 2.5 2.5 0 0 0 2.95-1.67 2.4 2.4 0 0 0-1.67-2.95c-13.47-2-23.52-13.62-28.65-25.58a54 54 0 0 1-3.02-9.4c-.68-3-5.3-1.73-4.62 1.28Zm12.76-21.57a5.1 5.1 0 0 1 4.08-4.94 42 42 0 0 1 9.73-1.44 34 34 0 0 1 10.18.95c2.57.7 3.2 3.14 3.4 5.52.44 5.1-.35 10.71-5.14 13.52-4.55 2.67-10.7 2.73-15.54.78a8.8 8.8 0 0 1-5.25-5.33 22 22 0 0 1-1.46-9.06c.17-3.08-4.63-3.07-4.8 0-.37 6.5 1.73 14.65 7.84 17.94a23.3 23.3 0 0 0 20.64.35 14.5 14.5 0 0 0 7.12-7.5 23 23 0 0 0 1.43-10.18c-.25-3.82-1.19-7.6-4.69-9.71a15 15 0 0 0-5.37-1.58 46.5 46.5 0 0 0-19.95 1.29c-4.42 1.43-6.66 4.88-7.02 9.4a2.4 2.4 0 0 0 2.4 2.4 2.45 2.45 0 0 0 2.4-2.41m75.12 0c-.3-3.66-1.82-7.13-5.32-8.73-3.62-1.65-8-2.12-11.92-2.38a41 41 0 0 0-12.6 1 9.3 9.3 0 0 0-6.88 7.94c-1.06 6.92 0 14.7 5.99 19.1 5.6 4.1 13.95 4.57 20.33 2.15a13.6 13.6 0 0 0 8.18-7.33 26 26 0 0 0 2.23-11.75c-.17-3.07-4.98-3.1-4.8 0a22 22 0 0 1-1.1 8 9.3 9.3 0 0 1-4.06 5.62 18.4 18.4 0 0 1-15.46.82 10.4 10.4 0 0 1-5.48-4.83 16 16 0 0 1-1.4-7.56c.04-2.38.07-5.43 2.23-6.92a10 10 0 0 1 3.92-1.1 35 35 0 0 1 5.02-.43 46 46 0 0 1 11.06 1.17c1.43.32 3.05.68 4.05 1.83a6 6 0 0 1 1.22 3.4 2.46 2.46 0 0 0 2.4 2.4 2.4 2.4 0 0 0 2.4-2.4" class="c"/><path d="M133.51 81.24q.67-.16 1.36-.3l.59-.1c.65-.1-.52.05.14-.01a23 23 0 0 1 2.57-.12q.6.01 1.19.06l.68.06.3.03q-.46-.06-.05 0a25 25 0 0 1 2.52.56 2.4 2.4 0 1 0 1.28-4.63 23 23 0 0 0-11.85-.18 2.4 2.4 0 0 0-1.67 2.95 2.45 2.45 0 0 0 2.95 1.68Zm44.15-1.11c.64-.15 1.27-.33 1.92-.42l-.64.09.2-.03a2.47 2.47 0 0 0 2.4-2.4l-.09-.64a2.4 2.4 0 0 0-.61-1.06l-.49-.37a2.4 2.4 0 0 0-1.21-.33 15 15 0 0 0-1.73.28l-1.03.25a2.7 2.7 0 0 0-1.43 1.1 2 2 0 0 0-.28.89 2 2 0 0 0 .04.95l.24.58a2.4 2.4 0 0 0 .86.86l.57.24a2.4 2.4 0 0 0 1.28 0ZM99.82 75.5l-1.26-.3a18 18 0 0 0-1.98-.32 2.7 2.7 0 0 0-1.7.7 2.7 2.7 0 0 0-.7 1.7l.09.64a2.4 2.4 0 0 0 .61 1.06l.49.37a2.4 2.4 0 0 0 1.21.33l.25.03-.64-.09c.8.12 1.57.34 2.36.51a2 2 0 0 0 .95.05 2 2 0 0 0 .9-.29 2.7 2.7 0 0 0 1.1-1.43l.08-.64a2.4 2.4 0 0 0-.33-1.21 2.4 2.4 0 0 0-1.43-1.1Zm53.58-38.41a49 49 0 0 0-12.88 1.26 56 56 0 0 0-11.7 4.59c-7.85 3.98-15.2 8.82-22.8 13.25a153 153 0 0 1-13.63 7.07 2.4 2.4 0 0 0-.86 3.28 2.46 2.46 0 0 0 3.28.86 214 214 0 0 0 22.23-12.25c7.22-4.39 14.68-9.2 22.83-11.64a43 43 0 0 1 13.53-1.62c3.09.07 3.09-4.73 0-4.8" class="c"/><path d="M92.9 65.54q-.84 4.32-1.4 8.67a2.4 2.4 0 0 0 .7 1.7 2.4 2.4 0 0 0 3.4 0 2.8 2.8 0 0 0 .7-1.7l.08-.62-.09.64q.5-3.72 1.23-7.41a2.6 2.6 0 0 0-.24-1.85 2.4 2.4 0 0 0-4.4.57Zm85.44 1.28q.72 3.68 1.23 7.4l-.09-.63.08.62a2.6 2.6 0 0 0 .7 1.7 2.4 2.4 0 0 0 3.4 0 2.3 2.3 0 0 0 .7-1.7q-.56-4.36-1.4-8.67a2.4 2.4 0 0 0-2.95-1.68 2.46 2.46 0 0 0-1.68 2.96Z" class="c"/><path d="m162.25 43.91.72.28-.05-.02.44.19q.68.3 1.35.65a32 32 0 0 1 2.97 1.74 27 27 0 0 1 5.69 5.02 20 20 0 0 1 3.83 6.96c1.08 3.55.96 7.3 1.8 10.9.7 3.01 5.32 1.74 4.63-1.27-.9-3.84-.74-7.83-2.02-11.59a26 26 0 0 0-4.85-8.4 32 32 0 0 0-13.23-9.08 2.4 2.4 0 0 0-2.95 1.67 2.45 2.45 0 0 0 1.67 2.95m9.9-24.65a19.4 19.4 0 0 1 8.3 3.15 31 31 0 0 1 6.56 6.95 27 27 0 0 1 4.68 10.6c.86 4.05.75 8.18.73 12.3a68 68 0 0 1-1.1 13.77c-.63 3.02 4 4.3 4.63 1.28a69 69 0 0 0 1.26-13.48 75 75 0 0 0-.66-13.94 31 31 0 0 0-4.67-11.93 39 39 0 0 0-7.67-8.68 23 23 0 0 0-10.79-4.65 2.47 2.47 0 0 0-2.95 1.67 2.4 2.4 0 0 0 1.68 2.96m-5.91-7.6c-1.65-3.42-4.84-5.82-8.22-7.39A46 46 0 0 0 144.4.45a63 63 0 0 0-50.99 17.43 59 59 0 0 0-11.6 16.61c-5.02 10.48-4.96 22.74-1.62 33.74.9 2.95 5.53 1.7 4.63-1.28-2.71-8.92-3.38-19.42.26-28.2a54 54 0 0 1 9.73-15.39 57.9 57.9 0 0 1 44.63-18.5 46 46 0 0 1 14.44 2.84c3.46 1.3 6.66 3.17 8.21 6.38a2.4 2.4 0 0 0 3.29.86 2.45 2.45 0 0 0 .86-3.29ZM136.09 93.8a42 42 0 0 1 .99 4.52l-.09-.64a3 3 0 0 1 .02.62l.08-.64-.07.29.25-.58-.1.18.37-.48-.15.14.49-.37-.36.19.57-.25a3 3 0 0 1-.6.18l.64-.09a2 2 0 0 1-.56 0l.64.1q-.33-.08-.64-.12a2 2 0 0 0-.96-.04 2 2 0 0 0-.9.28 2.4 2.4 0 0 0-.85 3.29 2.3 2.3 0 0 0 1.43 1.1c.5.06.97.19 1.48.21a5 5 0 0 0 2.18-.52 3.2 3.2 0 0 0 1.75-2.08 5 5 0 0 0-.02-2.24q-.38-2.18-.96-4.32a2.4 2.4 0 1 0-4.63 1.27m-22.92-12.83c-.75 2.46-.26 8.1 4.39 8.58 6.14-.04 6.47-6.86 4.4-10.07-1.7-2.62-6.67-3.72-8.79 1.5m49.38 0c.76 2.46.26 8.1-4.38 8.58-6.15-.04-6.47-6.86-4.4-10.07 1.69-2.62 6.66-3.72 8.78 1.5m-32.62 34.48a27 27 0 0 0 8.42 1.18 20 20 0 0 0 8.59-1.57 2.4 2.4 0 0 0 .86-3.28 2.46 2.46 0 0 0-3.28-.86l-.22.1-.08.03.36-.15-.57.2a13 13 0 0 1-1.4.37l-1 .17c-.28.05.39-.04-.09.01l-.67.07a31 31 0 0 1-5.54-.02l-.55-.05c-.24-.03-.42-.06-.07 0q-.5-.07-.98-.17a20 20 0 0 1-2.51-.66 2.4 2.4 0 0 0-2.95 1.67 2.46 2.46 0 0 0 1.67 2.95Zm22.25-4.66c.4 1.07.8 2.13 1.11 3.23a2.5 2.5 0 0 0 1.1 1.43 2 2 0 0 0 .9.29 2 2 0 0 0 .95-.05 2.4 2.4 0 0 0 1.44-1.1 2.5 2.5 0 0 0 .24-1.85 45 45 0 0 0-1.12-3.22 2 2 0 0 0-.43-.82 2 2 0 0 0-.67-.62 2 2 0 0 0-.9-.28 2 2 0 0 0-.95.04 2.4 2.4 0 0 0-1.44 1.1 2.4 2.4 0 0 0-.24 1.85Zm95.9 101.17q-.65-12.27-1.37-24.54-.97-16.61-1.99-33.23-.97-15.91-1.97-31.82l-.79-12.28c-.23-3.64-.36-7.32-.9-10.94-1.85-12.26-10.19-22.85-22.25-26.4a55 55 0 0 0-5.66-1.29 2.47 2.47 0 0 0-2.95 1.68 2.4 2.4 0 0 0 1.68 2.95 36 36 0 0 1 9.5 2.77 27 27 0 0 1 6.24 4.2 28 28 0 0 1 8.26 14.5 71 71 0 0 1 1.21 11.4l.74 11.5q.97 15.36 1.9 30.72 1.02 16.54 2 33.08.77 12.76 1.43 25.53l.11 2.17c.16 3.08 4.96 3.1 4.8 0Z" class="c"/><path d="M137.09 224.91c-5.1-9.89-7.19-14.5-10.36-22.07 1.61-13.2 3.13-25.04 3.13-25.5a14 14 0 0 0-.5-3.23q-.18-.72-.33-1.45c-.53-2.4-.63-3.63-1.25-6.17l-.03-.15c2.97-4 6.56-8.74 8.75-11.2h3.24c2.18 2.45 5.73 7.14 8.69 11.13l-.29.77a33 33 0 0 0-1.52 4.94 21 21 0 0 0-1.2 5.72c0 .77 1.61 12.23 3.53 25.73a321 321 0 0 1-10.87 21.48" style="fill:#3d8dcc"/><path d="M137.09 224.91c-6.4-12.4-8.05-16.49-13.05-28.55-6.97-16.81-12.32-29.4-17.24-47.01-2.03.52-9.49 2.45-12.21 3.19-20.78 5.6-34.94 14.52-42.06 23.7q-.76.99-1.43 1.99c-6.03 9.1-10.6 26.1-13.2 36.7 0 0-6.46 24-8.5 33.04-1.86 8.27-3.35 17.24-.45 25.19l.22.56h218.5c-2.33-14.16-4.08-31.31-6.68-48.91-2.17-14.66-7.79-31.83-13.39-40.35l-4.35-5.73c-6.37-10.04-21.15-20.07-43.8-26.2-2.12-.57-7.1-1.86-10.16-2.65a403 403 0 0 1-17.1 46.25 308 308 0 0 1-14.11 28.78" style="fill:#645d5c"/><path d="M103.86 309.2a2.4 2.4 0 0 1-.7-1.58l1.66-9.98c1.2-3.76 13.35-5.36 32.68-5.36 19.26 0 31.56 2.04 32.68 5.36l1.67 9.98c0 4.23-13.57 7.19-34.35 7.19-17.4 0-30.52-2.22-33.64-5.6" class="f"/><path d="M105.56 307.51c-.27-.33-.22 1.23-.05.47q.09-.45.15-.9l.5-2.96c.3-1.86.68-3.71.92-5.58l.08-.36c.01.15-.27.56-.06.2.25-.44-.28.19-.06.04a2 2 0 0 0 .3-.3c.3-.36-.36.22-.03.02l.89-.53.52-.25-.17.07.35-.13q.66-.24 1.33-.44a33 33 0 0 1 3.27-.75c6.58-1.22 13.64-1.35 20.43-1.42a179 179 0 0 1 23.5.96 47 47 0 0 1 7.18 1.36q.65.18 1.29.4l.61.23c.33.12-.39-.18-.09-.04l.3.13q.45.22.86.47c.08.04.54.38.19.1s.08.12.16.17c.29.18.14.17-.07-.13l.17.29c-.08-.16-.12-.57-.12-.14a15 15 0 0 0 .36 2.18l1.05 6.33.16.93c.1.6-.03-.04-.04-.17 0 .1.15-.65 0-.2-.1.32.06-.56.06-.14 0 .1-.17.24-.2.32.16-.33.3-.32.02-.08l-.34.31c-.28.27.42-.24-.03.02q-.53.32-1.07.62l-.5.24-.34.15a26 26 0 0 1-1.44.5c-5.79 1.85-12.03 2.33-18.06 2.65a173 173 0 0 1-25.15-.39 78 78 0 0 1-9.37-1.36 39 39 0 0 1-5.18-1.5c-.44-.17.21.1-.2-.08l-.68-.34q-.53-.28-1.02-.61c-.37-.22.3.3 0 .01zc-2.14-2.24-5.53 1.16-3.4 3.4a13.4 13.4 0 0 0 5.57 3.04 50 50 0 0 0 8.81 1.92 157 157 0 0 0 26.38 1.26c7.38-.2 15-.63 22.18-2.49 3.29-.85 9.14-2.6 9.14-6.93a33 33 0 0 0-.83-5.23c-.3-1.8-.45-3.7-.9-5.45a6 6 0 0 0-3.37-3.43 27 27 0 0 0-6.75-2 133 133 0 0 0-23.2-1.72 168 168 0 0 0-24.6 1.22c-3.77.54-9.46 1.23-11.64 4.86-.78 1.3-.8 3.12-1.04 4.57l-1.03 6.17a5 5 0 0 0 1.28 4.2 2.4 2.4 0 0 0 3.4 0 2.45 2.45 0 0 0 0-3.39" class="c"/><path d="M113.48 304.5a90 90 0 0 0 17.95 1.89 164 164 0 0 0 22.08-.66 59 59 0 0 0 8.55-1.41c2.98-.77 1.72-5.4-1.28-4.63-7.24 1.88-15.07 1.93-22.5 1.97-7.78.05-15.9.01-23.52-1.79-3-.7-4.29 3.92-1.28 4.63m111.85-126.99c-4.54-7.07-11.42-12.43-18.62-16.6-9.17-5.3-19.21-8.76-29.41-11.43l-9.94-2.58c-2.99-.78-4.27 3.85-1.27 4.63 16.51 4.25 33.8 8.49 47.18 19.71a39 39 0 0 1 7.91 8.7c1.66 2.6 5.82.19 4.15-2.43m-10.02 5.93a312 312 0 0 1-34.87 4.34 2.46 2.46 0 0 0-2.4 2.4 2.4 2.4 0 0 0 2.4 2.4 324 324 0 0 0 36.15-4.51 2.4 2.4 0 0 0 1.67-2.95 2.45 2.45 0 0 0-2.95-1.68m10.22 2.23a65 65 0 0 1 6.18 12.86 137 137 0 0 1 5.07 16.99c1.43 6.19 2.3 12.47 3.15 18.76.89 6.57 1.7 13.15 2.55 19.72.87 6.8 1.77 13.6 2.88 20.36a2.4 2.4 0 0 0 2.95 1.67 2.46 2.46 0 0 0 1.68-2.95c-2.07-12.6-3.46-25.32-5.15-37.98-.86-6.42-1.67-12.85-3.05-19.18a139 139 0 0 0-4.9-17.15 74 74 0 0 0-7.21-15.52c-1.68-2.58-5.84-.18-4.15 2.42" class="c"/><path d="M140.15 226.12a410 410 0 0 0 25.4-57.11q3.22-9 5.96-18.16c.9-2.96-3.74-4.23-4.62-1.28a391 391 0 0 1-23.22 59.46A425 425 0 0 1 136 223.7c-1.47 2.72 2.67 5.14 4.15 2.42m-137.83 50h270.36c3.09 0 3.1-4.8 0-4.8H2.32c-3.09 0-3.1 4.8 0 4.8m128.25-98.25c4.8 0 9.6-.1 14.4-.1a2.4 2.4 0 1 0 0-4.8c-4.8 0-9.6.1-14.4.1a2.4 2.4 0 0 0 0 4.8" class="c"/><path d="M125.47 167.13c.39 1.63.67 3.28.99 4.93.33 1.69 1.07 3.55 1 5.28-.05 1.28-.3 2.58-.45 3.85l-2.63 21.24a2.4 2.4 0 0 0 2.4 2.4 2.46 2.46 0 0 0 2.4-2.4l2.66-21.5a23 23 0 0 0 .4-4.06 40 40 0 0 0-1.08-5.7c-.36-1.77-.65-3.55-1.07-5.32-.72-3-5.35-1.73-4.63 1.28Zm25.78 35.51q-1.51-10.44-2.94-20.9l-.32-2.45q-.11-.73-.16-1.47a14 14 0 0 1 .84-4.35 42 42 0 0 1 1.55-5.22 2.47 2.47 0 0 0-.87-3.29 2.4 2.4 0 0 0-3.28.86 48 48 0 0 0-1.9 5.95 19 19 0 0 0-1.15 5.96 41 41 0 0 0 .5 4.12q1.5 11.04 3.1 22.06a2.4 2.4 0 0 0 2.94 1.68 2.46 2.46 0 0 0 1.68-2.95Zm-34.41-65.88v3.58a2.5 2.5 0 0 0 .7 1.7 2.4 2.4 0 0 0 3.4 0 2.5 2.5 0 0 0 .7-1.7v-3.58a2.5 2.5 0 0 0-.7-1.7 2.4 2.4 0 0 0-3.4 0 2.5 2.5 0 0 0-.7 1.7m38.08-.22v3.7h4.8v-.2a2.5 2.5 0 0 0-.7-1.7 2.4 2.4 0 0 0-3.4 0 2.5 2.5 0 0 0-.7 1.7v.2a2.5 2.5 0 0 0 .7 1.7 2.4 2.4 0 0 0 3.4 0 2.5 2.5 0 0 0 .7-1.7v-3.7a2.5 2.5 0 0 0-.7-1.7 2.4 2.4 0 0 0-3.4 0 2.5 2.5 0 0 0-.7 1.7" class="c"/><path d="M104.95 151.66A319 319 0 0 0 116 183.07c3.84 9.49 7.66 19.02 11.85 28.36a302 302 0 0 0 7.18 14.7c1.41 2.74 5.56.31 4.14-2.43a329 329 0 0 1-11.46-24.73c-4.23-10.2-8.55-20.35-12.32-30.72q-3.2-8.83-5.8-17.87c-.85-2.96-5.48-1.7-4.62 1.28Z" class="c"/><path d="M31.49 273.09c-2.72-6.82-1.85-14.4-.43-21.41.94-4.62 2.12-9.2 3.28-13.76 1.9-7.42 3.91-14.82 5.84-22.23 2.86-11.01 5.52-22.39 10.83-32.53 4.97-9.52 13.92-15.86 23.33-20.56 10.3-5.15 21.42-7.93 32.51-10.79l1.1-.28c2.99-.77 1.72-5.4-1.28-4.63-10.35 2.67-20.7 5.24-30.53 9.57-10.24 4.5-20.65 10.9-27 20.38-3.43 5.12-5.69 11.07-7.68 16.87a224 224 0 0 0-5.31 18.3c-1.8 7.15-3.77 14.26-5.6 21.4-1.15 4.44-2.3 8.88-3.33 13.34-1.68 7.3-3.02 14.86-1.8 22.33a25 25 0 0 0 1.44 5.27 2.47 2.47 0 0 0 2.95 1.68 2.4 2.4 0 0 0 1.67-2.96Zm150.71-99.76q-.86 2.27-1.8 4.5c.17-.42-.09.18-.14.31l-.26.6-.64 1.49q-.66 1.53-1.34 3.05-3.18 7.09-6.49 14.12-6.74 14.39-13.78 28.64c-1.62 3.28-3.23 6.56-4.92 9.81-1.42 2.74 2.72 5.17 4.15 2.42 3.7-7.15 7.2-14.41 10.7-21.66a1150 1150 0 0 0 13.9-29.6c1.83-4.1 3.68-8.2 5.25-12.4a2.4 2.4 0 0 0-1.67-2.96 2.45 2.45 0 0 0-2.96 1.67Z" class="c"/><path d="M89.86 176.11a123 123 0 0 0 6.18 13.95q3.36 7.02 6.97 13.93c1.44 2.73 5.59.31 4.15-2.42a434 434 0 0 1-10.5-21.48q-.4-.85-.76-1.7l-.3-.68q-.17-.4-.04-.08l-.17-.41q-.5-1.18-.9-2.39c-.99-2.9-5.62-1.66-4.64 1.28Zm113.63 22.08c-1.02 18-1.81 36.03-2.98 54.03a2.4 2.4 0 0 0 4.8 0c1.17-18 1.96-36.02 2.98-54.03.17-3.09-4.63-3.08-4.8 0m-20.94 9.36c-.65 17.94-1.15 35.89-2.45 53.79a2.4 2.4 0 0 0 2.4 2.4 2.45 2.45 0 0 0 2.4-2.4c1.3-17.9 1.8-35.85 2.45-53.79.11-3.08-4.69-3.08-4.8 0" class="c"/><path d="M62.29 188.07a324 324 0 0 0 36.14 4.5 2.4 2.4 0 0 0 0-4.8 312 312 0 0 1-34.87-4.33 2.47 2.47 0 0 0-2.95 1.68 2.4 2.4 0 0 0 1.67 2.95m7.3 10.12c1 18 1.8 36.03 2.97 54.03a2.46 2.46 0 0 0 2.4 2.4 2.4 2.4 0 0 0 2.4-2.4c-1.17-18-1.96-36.02-2.98-54.03-.17-3.07-4.97-3.1-4.8 0m20.93 9.36c.65 17.94 1.15 35.89 2.45 53.79a2.46 2.46 0 0 0 2.4 2.4 2.4 2.4 0 0 0 2.4-2.4c-1.3-17.9-1.8-35.85-2.45-53.79-.11-3.08-4.91-3.09-4.8 0" class="c"/><path d="M160.46 138.9c2.12 2.38 4.75 5.86 6.82 8.27 1.23 1.42 2.13 4.02 1.43 5.9-.8 1.6-9.63 15.76-15.58 19.57-1.88-2.5-9.66-13.3-13.39-17.5 1.4-.99 19.81-15.5 20.72-16.24m-44.68 0c-2.12 2.38-4.75 5.86-6.83 8.27-1.22 1.42-2.12 4.02-1.42 5.9.8 1.6 9.63 15.76 15.58 19.57 1.88-2.5 9.66-13.3 13.39-17.5-1.4-.99-19.81-15.5-20.72-16.24" class="a"/><path d="M158.76 140.6c2.35 2.65 4.72 5.43 6.83 8.27a5 5 0 0 1 .76 1.54 4 4 0 0 1 .2.97q0 .2.02.38c0 .01-.1.6-.01.26.05-.23-.13.23-.2.35l-.48.82a98 98 0 0 1-8.27 11.75q-1.46 1.78-3.08 3.41-.69.7-1.44 1.35l-.5.42-.66.45 3.28.86c-4.52-6.03-8.77-12.33-13.76-17.98l-.49 3.77c6.3-4.51 12.27-9.57 18.36-14.37l2.84-2.25a2.4 2.4 0 0 0 0-3.4 2.46 2.46 0 0 0-3.4 0c-5.78 4.68-11.67 9.23-17.53 13.8l-1.09.85-.5.4c-.44.33.27-.21-.02 0l-1.08.83a2.45 2.45 0 0 0-.49 3.76c4.73 5.35 8.74 11.32 13.02 17.02a2.45 2.45 0 0 0 3.28.86c4.9-3.2 8.52-8.48 11.81-13.2q2.06-2.93 3.9-5.97a10 10 0 0 0 .97-1.83 8.3 8.3 0 0 0-.6-6.01c-.89-1.96-2.58-3.57-3.92-5.24-1.43-1.77-2.84-3.56-4.35-5.26-2.06-2.32-5.44 1.08-3.4 3.39" class="c"/><path d="M114.09 137.2q-1.97 2.27-3.83 4.61c-1.86 2.34-2.66 3.02-3.77 4.66a8.1 8.1 0 0 0-.6 8.58 103 103 0 0 0 9.15 13.03 32 32 0 0 0 6.86 6.63 2.46 2.46 0 0 0 3.29-.86c4.27-5.7 8.28-11.67 13-17.01a2.44 2.44 0 0 0-.48-3.77q-.42-.3-.84-.64l-.34-.26c-.33-.26.38.3.03.02l-1-.78q-2.42-1.87-4.81-3.76-5.26-4.12-10.5-8.26l-2.77-2.19a2.47 2.47 0 0 0-3.4 0 2.4 2.4 0 0 0 0 3.4c5.87 4.72 11.84 9.34 17.78 13.97 1.14.89 2.26 1.8 3.43 2.64l-.48-3.77c-5 5.65-9.25 11.96-13.77 17.99l3.28-.86a14 14 0 0 1-.88-.64q-.69-.58-1.34-1.2-1.4-1.37-2.67-2.85a82 82 0 0 1-4.94-6.43 121 121 0 0 1-4.73-7.3l-.13-.24c.15.4.05 0 .06-.18a5 5 0 0 1 .42-1.93c.75-1.64 2.3-3.03 3.42-4.43 1.3-1.6 2.58-3.23 3.95-4.77 2.04-2.3-1.34-5.72-3.4-3.4m-79.86 70.35q.6-11.86 1.24-23.71.83-15.77 1.7-31.54.83-15.13 1.7-30.25l.7-11.74c.2-3.27.26-6.62.74-9.87a29 29 0 0 1 6.65-15.18 26.4 26.4 0 0 1 12.61-7.97c1.74-.5 3.5-.86 5.28-1.18a2.4 2.4 0 0 0 1.68-2.96 2.45 2.45 0 0 0-2.95-1.67c-6.1 1.11-11.61 3.13-16.48 7.02a31.4 31.4 0 0 0-9.74 13.92c-1.65 4.57-2.05 9.36-2.36 14.17q-.34 5.38-.65 10.76-.89 14.82-1.7 29.65-.9 16.28-1.75 32.56-.69 12.84-1.35 25.69l-.12 2.3c-.15 3.1 4.65 3.08 4.8 0" class="c"/><path d="M109.7 238.69c-6.55 2.18-12.9 4.27-18.11 5.9.66 1.33 1.28 2.65 2.02 4.16.63 1.29 1.4 2.78 2.06 4.26 5.39-1.69 12.15-3.92 19-6.2q-.8-2.81-1.75-5.86-.47-1.53-.96-3.02Z" class="f"/><path d="M77.16 268.95a8 8 0 0 1-1.55-1.16v1.8c0 1.45-1.52 3.33-2.97 4.36-1.39.98-5.02.82-7.17-.47l-.24.83a6.7 6.7 0 0 1-2.21 3.59c-3.48 2.41-7.88-.05-10.5-2.52l-4.13 1.44a5 5 0 0 1-3.67-.19c-4.17-1.93-6.37-4.66-6.35-9.88a18 18 0 0 1 2.53-10.14 10 10 0 0 1 2.5-2.97c1.06-.74 1.77-1.24 2.75-1.89a28 28 0 0 0 7.51-6.96 25.7 25.7 0 0 1 14.8-9.91c5.41-1.07 9.3-1.04 12.7-.31 3.2.69 7.26 4.08 8.85 6.97 1.4 2.55 2.33 4.6 3.6 7.21 1.2 2.44 2.9 5.65 3.41 8.02a4.03 4.03 0 0 1-2.53 4.76 5.7 5.7 0 0 1-4.78-.37 17 17 0 0 1-5.33-4.94c-1.22-1.6-3.2-4-4.84-5.96a4 4 0 0 0-3.07-1.4l.16.25 7.9 12.25c.78 1.28 2.02 5.23-.66 7.37a5.8 5.8 0 0 1-6.72.22" class="a"/><path d="M93.83 246.4c9.96-3.16 19.86-6.5 29.76-9.84 2.92-.98 1.67-5.61-1.27-4.63-9.9 3.34-19.8 6.68-29.76 9.84-2.94.93-1.68 5.57 1.27 4.63m3.94 8.47c9-2.86 17.93-5.88 26.87-8.89 2.91-.98 1.67-5.62-1.27-4.63-8.95 3.01-17.89 6.03-26.88 8.89-2.93.93-1.68 5.56 1.28 4.63" class="c"/><path d="M139.08 232.82c-2.51-8.07-4.65-15.93-5.13-19.2-.41-2.85-2.05-4.09-4.63-4.12-3.9-.06-5.4.23-10.36 1.55a35 35 0 0 0-10.27 4.7c-1.99 1.54-3.59 3.98-2.59 6.28a210 210 0 0 1 6.82 18.92c2.6 8.35 4.36 15.6 5.11 19.45.48 2.46 3.2 3.57 5.7 3.7a35 35 0 0 0 11.12-1.94c4.83-1.72 6.24-2.34 9.42-4.6 2.1-1.5 2.75-3.44 1.47-6.03-1.46-2.96-4.12-10.55-6.66-18.71" class="f"/><path d="M69.09 237.2c3.8-.75 8.09-1.28 11.89-.2 3.97 1.13 6.47 4.7 8.23 8.17 1.06 2.11 2.06 4.25 3.1 6.37.9 1.82 2.08 3.83 2.4 5.87.26 1.72-1.57 2.32-2.98 1.97-2.04-.5-3.66-2.39-4.94-3.94-1.61-1.96-3.15-3.97-4.76-5.92a7.3 7.3 0 0 0-5.83-3.06c-3.09-.09-3.09 4.71 0 4.8l.47.02c.39.05-.52-.22.24.05a2 2 0 0 1 .79.48 37 37 0 0 1 2.7 3.27 60 60 0 0 0 4.82 5.73c2.04 1.95 4.7 3.62 7.62 3.47a6.9 6.9 0 0 0 6.4-4.58c.85-2.64-.38-5.36-1.44-7.74-1.08-2.46-2.33-4.86-3.5-7.28a30 30 0 0 0-4.08-6.9 19 19 0 0 0-5.82-4.55c-5.04-2.44-11.3-1.7-16.59-.67a2.4 2.4 0 0 0-1.67 2.95 2.45 2.45 0 0 0 2.95 1.68Z" class="c"/><path d="M67.81 232.56a29 29 0 0 0-13.35 7.57c-1.92 1.96-3.36 4.3-5.34 6.22a49 49 0 0 1-6.38 4.83c-4.8 3.34-6.65 9.3-6.76 14.93-.1 4.85 1.59 9.08 5.82 11.69 2.32 1.42 4.81 2.14 7.47 1.25q1.95-.66 3.9-1.36l-2.34-.62c2.46 2.27 5.7 4.31 9.17 4.2 3.9-.1 6.44-2.76 7.55-6.32.91-2.96-3.72-4.22-4.63-1.28-.55 1.76-1.52 3-3.51 2.8a9.6 9.6 0 0 1-5.19-2.8 2.4 2.4 0 0 0-2.33-.61l-3.07 1.07c-1.31.46-2.3.76-3.63.06a8.3 8.3 0 0 1-3.37-2.84 9.4 9.4 0 0 1-1.05-5.04 17 17 0 0 1 1.19-6.57 16 16 0 0 1 1.64-2.9 10 10 0 0 1 2.57-2.23 51 51 0 0 0 5.9-4.45 66 66 0 0 0 4.75-5.52 24.3 24.3 0 0 1 12.27-7.46c2.98-.8 1.71-5.44-1.28-4.63Z" class="c"/><path d="M64.6 258.8q2.3 2.75 4.67 5.4l2.38 2.72a26 26 0 0 0 2.67 2.93 9.4 9.4 0 0 0 6.87 2.42 7.4 7.4 0 0 0 6.22-4.5 9.2 9.2 0 0 0-1.16-8.15l-4.03-6.25-3.52-5.47a2.45 2.45 0 0 0-3.28-.86 2.43 2.43 0 0 0-.86 3.28l6.65 10.34 1.13 1.75.23.4c.09.13.26.6.03 0q.08.18.13.35.19.6.33 1.2c.15.65.02-.44.02.25l.02.46c0 .04-.06.8.01.3l-.1.45c-.13.53 0 .28-.34.74.22-.3-.3.3-.3.3.1-.09-.53.33-.5.32a3 3 0 0 1-1.05.34c.25-.04-.91-.03-.66 0a5 5 0 0 1-2.5-1.09 21 21 0 0 1-2.28-2.5q-1.25-1.44-2.52-2.87a278 278 0 0 1-4.88-5.64 2.4 2.4 0 0 0-3.39 0 2.45 2.45 0 0 0 0 3.4Z" class="c"/><path d="M54.05 266.61c2.05 1.93 4.21 3.72 6.32 5.58 2.02 1.78 3.68 3.67 6.37 4.38a9.8 9.8 0 0 0 6.76-.35 8.7 8.7 0 0 0 4.5-6.63 2.4 2.4 0 1 0-4.8 0c.03-.42-.05.22-.1.32.1-.21-.1.16-.1.18a5 5 0 0 1-.82 1.08c-.24.26-.64.58-.82.75-.2.19-.23.12.05.02l-.56.16-.4.08c.53-.08-.2 0-.26 0a9 9 0 0 1-1.21-.04c-.41-.04.01.01-.23-.03a11 11 0 0 1-1.33-.34c-.38-.12 0 .02-.21-.08l-.52-.27c-.05-.03-.51-.37-.3-.19s-.18-.2-.22-.23l-.7-.66q-1.32-1.22-2.7-2.4-2.72-2.3-5.33-4.72c-2.24-2.12-5.64 1.27-3.4 3.4Zm87.34-34.43c-1.78-5.75-3.59-11.56-4.8-17.47-.45-2.15-.7-4.33-2.44-5.9-1.95-1.75-4.55-1.8-7.02-1.7a41 41 0 0 0-15.29 4.07 18 18 0 0 0-6.54 4.57 8 8 0 0 0-1.85 4.14 6 6 0 0 0 .2 2.41 13 13 0 0 0 .63 1.53 211 211 0 0 1 10.7 33.8c.5 2.13.66 4.5 2.2 6.2 1.86 2.05 4.82 2.73 7.5 2.69 5.48-.09 10.95-1.83 15.93-4.03a20 20 0 0 0 6.4-4.13c2.34-2.52 1.97-5.5.64-8.4-2.49-5.38-4.41-11.87-6.25-17.78-.92-2.94-5.56-1.69-4.63 1.28a225 225 0 0 0 5.36 15.68q.52 1.33 1.1 2.62a6 6 0 0 1 .77 2.15c.07 1.35-2.14 2.45-3.32 3.15a37 37 0 0 1-12.38 4.29c-2 .34-4.35.72-6.3 0a2.5 2.5 0 0 1-1.58-1.23 15 15 0 0 1-.48-2.33 220 220 0 0 0-9.34-30.97q-.55-1.45-1.13-2.9a29 29 0 0 1-1.2-2.89c-.49-1.77 1.68-3.32 2.98-4.12a39 39 0 0 1 13.34-4.74c1.55-.28 4.3-.65 5.85-.1a1.7 1.7 0 0 1 1 1.2 27 27 0 0 1 .52 2.72c1.22 5.9 3.02 11.71 4.8 17.47.91 2.94 5.55 1.68 4.63-1.28" class="c"/><path d="M142 247c-8.9 1.28-17.1 4.43-25.46 7.59a2.47 2.47 0 0 0-1.68 2.95 2.4 2.4 0 0 0 2.95 1.67c8.36-3.15 16.57-6.3 25.47-7.57a2.4 2.4 0 0 0 1.67-2.96 2.46 2.46 0 0 0-2.95-1.67m-31.9-19.36c7.85-3.9 16.24-5.86 24.7-7.95 3-.74 1.73-5.37-1.28-4.63-8.88 2.2-17.6 4.34-25.84 8.44-2.77 1.37-.34 5.52 2.42 4.14" class="c"/></svg>
