<svg xmlns="http://www.w3.org/2000/svg" viewBox="-45.97 0 327.257 327.257"><defs><style>.a{fill:#fff}.d{fill:#211715}</style></defs><path d="M166.1 82.95a7.6 7.6 0 0 1 5.5-2.01 7.1 7.1 0 0 1 6.34 3.52c2.16 3.74 2.07 10.62.62 14.88-1.03 3.02-2.7 7.63-6.75 10.94a8.4 8.4 0 0 1-6.46 1.87l-.62-.1a49 49 0 0 1-2.23 6.04c-1.74 4.73-11.85 22.03-24.32 27.2v6.9a1957 1957 0 0 1-18.78 14.7h-3.47c-1.11-.8-12.41-9.68-18.44-14.43v-6.94c-6.05-2.41-11.39-6.73-16.44-12.77a58 58 0 0 1-10.98-20.71 8.2 8.2 0 0 1-7-1.75c-4.04-3.31-5.72-7.93-6.74-10.95-1.45-4.26-1.54-11.14.61-14.88a7.1 7.1 0 0 1 6.34-3.52 7.6 7.6 0 0 1 5.5 2.01s-9.63-46.48 48.66-46.48c59.56 0 48.66 46.48 48.66 46.48" class="a"/><path d="M116.56 266.84c-6.84-16.86-8.6-22.43-13.94-38.84a791 791 0 0 1-19.04-69.28c-2.3 1.47-5.2 3.5-8.13 5.82l-2.25.88-7.53 2.96c-18.24 7.66-35.4 15.6-43.8 28.39-5.99 9.1-11.17 29.27-12.84 45.02-2.62 24.61-3.05 34.28-6.63 83.07h230.52c-3.58-48.8-4-58.46-6.63-83.07-1.67-15.75-6.85-35.92-12.84-45.02-8.4-12.78-25.56-20.73-43.8-28.4l-7.52-2.95-2.25-.88a106 106 0 0 0-8.13-5.82A792 792 0 0 1 132.7 228c-5.34 16.4-7.1 21.98-13.94 38.84" style="fill:#7a7473"/><path d="M55.67 51.1c-.15 1.2-.26 2.3-.33 3.2-.89 10.85 1.6 19.5 4.94 27.24a9 9 0 0 1 3-.6 7.6 7.6 0 0 1 5.5 2l2.39 2.3.1-1a81 81 0 0 1 1.63-11.16c.86-4.06 1.94-8.28 5.63-11.66l7.97-5.6c2.12-.12 4.6-.44 6.28-.38 15.2.5 30.67-2.38 42.44-7.9l9.35 5.45a63 63 0 0 1 14.6 18.31c1.2 2.25 3.93 9.9 5.9 12.94a7.3 7.3 0 0 1 6.53-3.3 9 9 0 0 1 3.12.64c3.82-20 4.63-32.1-3.1-47.7a47 47 0 0 0-5.72-8.43 38 38 0 0 0-14.37-9.88L140.99 11C130.45.7 111.4.7 98.25 5.56 85.95 10.1 79.3 16.54 71.3 22.55a26 26 0 0 1-9.61 4.85l-3 10.67c-1.45 2.56-2.48 8.56-3.02 13.03" style="fill:#85807f"/><path d="M108.45 123.98a20 20 0 0 0 9.5 2.2 15.5 15.5 0 0 0 9.58-2.82 2.4 2.4 0 0 0 0-3.4 2.46 2.46 0 0 0-3.4 0c.73-.56.15-.11-.04 0l-.59.35c-.16.08-.88.37-.23.13l-.82.3a14 14 0 0 1-2.28.52c.35-.05-.11.01-.24.02a19 19 0 0 1-2.29.1q-.72 0-1.45-.05l-.66-.05c-.01 0-.8-.11-.35-.04a16 16 0 0 1-2.13-.47l-.88-.3-.28-.11c.48.32.25.11.06.02l-1.09-.54a2.45 2.45 0 0 0-3.28.86 2.43 2.43 0 0 0 .86 3.28Zm8.32-22.45a45 45 0 0 1 1.06 4.83l-.09-.64a3 3 0 0 1 .02.66l.08-.63-.07.3.24-.58-.1.2.37-.49-.16.15.49-.37-.38.2.57-.24a3 3 0 0 1-.64.19l.64-.09a3 3 0 0 1-.61 0l.64.09-.68-.12a2.7 2.7 0 0 0-1.85.24 2.4 2.4 0 0 0-.86 3.28 2.3 2.3 0 0 0 1.43 1.1c.51.07 1.01.2 1.53.23a5 5 0 0 0 2.25-.54 3.2 3.2 0 0 0 1.8-2.13 5 5 0 0 0-.03-2.3q-.4-2.33-1.02-4.62a2.4 2.4 0 0 0-4.63 1.28M91.1 87.9c-.81 2.61-.29 8.64 4.67 9.15 6.56-.04 6.91-7.32 4.7-10.75-1.8-2.8-7.12-3.97-9.37 1.6m52.7 0c.8 2.61.28 8.64-4.68 9.15-6.55-.04-6.9-7.32-4.7-10.75 1.81-2.8 7.13-3.97 9.38 1.6m-73.31-6.64a10.7 10.7 0 0 0-11.79-1.62 10.4 10.4 0 0 0-5.2 7.16 27.2 27.2 0 0 0 4.04 20.86c2.93 4.36 7.17 7.56 12.64 6.82a2.4 2.4 0 0 0 1.68-2.96 2.47 2.47 0 0 0-2.95-1.67c-3.84.52-6.8-3.58-8.35-6.5a23.5 23.5 0 0 1-2.81-9.22 20 20 0 0 1 .23-5.38 11 11 0 0 1 1.36-3.6c-.15.2.33-.36.4-.42a2 2 0 0 1 .5-.45 5 5 0 0 1 2.08-.84 5.6 5.6 0 0 1 4.77 1.21c2.28 2.07 5.69-1.31 3.4-3.39m97.32 3.4a5.6 5.6 0 0 1 7.8.57c-.32-.41.14.22.19.3a7 7 0 0 1 .5.96 12 12 0 0 1 .62 2.26 20 20 0 0 1 .23 5.38 23.5 23.5 0 0 1-2.73 9.06c-1.55 2.97-4.53 7.19-8.42 6.66a2.5 2.5 0 0 0-2.96 1.67 2.4 2.4 0 0 0 1.68 2.96c8.84 1.2 13.97-7.5 16.26-14.78a25.5 25.5 0 0 0 .7-11.53 11.6 11.6 0 0 0-4.37-7.87 10.56 10.56 0 0 0-12.9.96c-2.3 2.08 1.1 5.47 3.4 3.4" class="d"/><path d="M163.33 107.84a47 47 0 0 1-1.81 6.28 53 53 0 0 1-.8 2.12l-.53 1.2c-.04.1-.27.68-.1.3.16-.42-.11.23-.15.3l-.27.6q-.37.77-.78 1.52a62 62 0 0 1-1.91 3.35A61 61 0 0 1 143.9 139a24 24 0 0 1-9.7 5.03c-3 .7-1.73 5.33 1.28 4.63 7.35-1.7 13.47-7.06 18.28-12.64a67 67 0 0 0 10.29-15.48q.37-.85.72-1.72c-.32.76.4-.93.43-.98q.3-.71.57-1.44a48 48 0 0 0 2.18-7.3 2.46 2.46 0 0 0-1.67-2.95 2.4 2.4 0 0 0-2.96 1.68Zm-96.55 1.1a61 61 0 0 0 8.63 20.26c4.39 6.59 10.16 12.75 17.14 16.62a34 34 0 0 0 11.5 3.92 2.5 2.5 0 0 0 2.95-1.68 2.4 2.4 0 0 0-1.68-2.95c-14.44-2.13-25.25-14.66-30.73-27.5a58 58 0 0 1-3.18-9.95c-.68-3.01-5.3-1.74-4.62 1.28Zm84.11-91.06a36 36 0 0 1 18.26 16.47 50.5 50.5 0 0 1 6 23.51 92 92 0 0 1-1.31 15.02 2.5 2.5 0 0 0 1.67 2.95 2.4 2.4 0 0 0 2.95-1.68c1.47-9.3 2.25-18.72.17-28-1.99-8.82-6.18-17.75-12.68-24.15a42 42 0 0 0-13.78-8.75 2.4 2.4 0 0 0-2.96 1.68 2.46 2.46 0 0 0 1.68 2.95m-8.2-8.6C134.21 1.15 121.53-.93 110.22.37a58 58 0 0 0-17.74 5 80 80 0 0 0-15.64 9.86c-2.45 1.9-4.86 3.88-7.37 5.71a27 27 0 0 1-8.42 4.15c-2.94.9-1.68 5.54 1.28 4.63a31 31 0 0 0 7.85-3.44c2.35-1.52 4.53-3.32 6.73-5.05a102 102 0 0 1 13.92-9.67c9.86-5.4 21.46-8.08 32.66-6.2 5.83.98 11.5 3.18 15.8 7.33 2.23 2.14 5.63-1.25 3.4-3.4ZM56.62 36.86c-1.55 2.84-2.14 6.23-2.66 9.39a83 83 0 0 0-1.16 10.38 58 58 0 0 0 4.61 24.25 2.5 2.5 0 0 0 2.95 1.67 2.4 2.4 0 0 0 1.68-2.95 55 55 0 0 1-4.46-22.5 71 71 0 0 1 1-9.57c.46-2.73 1.02-6.1 2.18-8.24 1.49-2.72-2.66-5.14-4.14-2.43m77.38 8.6a84 84 0 0 1-22.9 6.57 100 100 0 0 1-12.56 1.04c-2.1.05-4.17-.04-6.26-.03-1.93 0-3.86.27-5.79.39-3.06.19-3.09 4.99 0 4.8 1.99-.13 3.97-.4 5.96-.4 2.1.01 4.2.09 6.32.04a110 110 0 0 0 13.6-1.21 88 88 0 0 0 24.06-7.05 2.4 2.4 0 0 0 .86-3.28 2.46 2.46 0 0 0-3.29-.86M76.83 59.73c-3.45 3.25-5.11 7.53-6.1 12.06a102 102 0 0 0-1.87 12.46 2.4 2.4 0 0 0 2.4 2.4 2.45 2.45 0 0 0 2.4-2.4 90 90 0 0 1 1.63-10.85c.83-3.87 1.98-7.49 4.93-10.27 2.26-2.12-1.14-5.51-3.39-3.4m66.05-5.04A63 63 0 0 1 155.08 69c2.78 4.55 4.41 9.57 6.74 14.34a2.4 2.4 0 0 0 3.29.86 2.45 2.45 0 0 0 .86-3.28c-2.4-4.9-4.07-10.03-6.96-14.69a67 67 0 0 0-12.74-14.94c-2.31-2.03-5.72 1.35-3.4 3.4Z" class="d"/><path d="M118.76 266.84c6.84-16.86 8.6-22.43 13.94-38.84a794 794 0 0 0 17.75-63.65 7.3 7.3 0 0 0-1.63-5.98c-2.22-2.57-5.02-6.3-7.3-8.84-.96.79-20.64 16.3-22.13 17.36h-3.46c-1.5-1.06-21.17-16.57-22.14-17.36-2.27 2.55-5.07 6.27-7.29 8.84a7.3 7.3 0 0 0-1.63 5.98A795 795 0 0 0 102.62 228c5.34 16.4 7.1 21.98 13.94 38.84Z" class="a"/><path d="M124.7 251.64a519 519 0 0 1-5.94 15.2h-2.2c-6.29-15.53-8.28-21.48-12.72-35.13 2.15-18.48 5-40.46 5-41.1a15 15 0 0 0-.53-3.46q-.2-.78-.35-1.55c-.57-2.57-.68-3.88-1.34-6.6l-.04-.13c3.17-4.28 7.01-9.36 9.35-11.99h3.47c2.32 2.61 6.11 7.62 9.27 11.88l-.3.83a34 34 0 0 0-1.62 5.28 22 22 0 0 0-1.28 6.11c-.02 1.09 2.98 21.93 5.76 41.53a488 488 0 0 1-6.52 19.13" style="fill:#3d8dcc"/><path d="M51.34 324.86q-.1-17.67-.3-35.34-.23-23.05-.53-46.1-.14-9.9-.32-19.8c-.07-3.08-4.87-3.1-4.8 0 .27 13.17.41 26.33.57 39.5q.26 22.46.45 44.93.08 8.4.13 16.8c.01 3.1 4.81 3.1 4.8 0Zm50.41-58.5c-12.28-21.28-24.41-42.66-35.73-64.47-.76-1.46-1.61-2.92-2.28-4.43-.29-.63-.29-.51.2-1.06q.88-.97 1.8-1.9c2.5-2.59 5.12-5.07 7.74-7.53a2.42 2.42 0 0 0-.48-3.77l-4.86-2.78-2.33-1.32-1.27-.72-.42-.24q-.54-.34.08.07l.33 1.2-.06.13a10 10 0 0 1 .52-.95q.4-.68.86-1.34a27 27 0 0 1 1.92-2.4 61 61 0 0 1 5.52-5.42 97 97 0 0 1 11.5-8.64l-3.52-1.44q5.31 23.57 12.1 46.77c4 13.71 8.3 27.37 13.03 40.86a456 456 0 0 0 7.85 20.5 2.5 2.5 0 0 0 2.95 1.67 2.4 2.4 0 0 0 1.68-2.95 541 541 0 0 1-12.9-35.63 838 838 0 0 1-13.63-46.12q-3.46-13.12-6.45-26.37a2.42 2.42 0 0 0-3.53-1.44 92 92 0 0 0-16.83 13.54 42 42 0 0 0-3.48 4.15 12 12 0 0 0-2.26 4.11c-.62 2.78 2.06 3.93 4.01 5.04l6.77 3.87-.49-3.77a248 248 0 0 0-7.23 7c-2.3 2.35-5.2 4.83-3.67 8.43 1.2 2.86 2.84 5.6 4.27 8.34q2.26 4.31 4.56 8.6a1592 1592 0 0 0 18.77 33.92q5.37 9.47 10.82 18.9c1.54 2.68 5.7.26 4.14-2.42Z" class="d"/><path d="M4.8 324.86c1.06-14.36 2.07-28.72 3.12-43.07.64-8.79 1.31-17.57 2.13-26.34 1.14-12.1 2.45-24.1 5.52-35.9 1.71-6.55 3.72-13.24 6.97-19.22 3.14-5.77 8.03-10.38 13.36-14.12 11.04-7.77 23.84-12.94 36.35-17.85l1.58-.62a2.47 2.47 0 0 0 1.68-2.95 2.4 2.4 0 0 0-2.95-1.68c-11.73 4.6-23.57 9.32-34.37 15.88-6.38 3.87-12.37 8.5-16.9 14.46-4.02 5.29-6.4 11.72-8.38 18-4.13 13.04-5.94 26.46-7.27 40.02-.86 8.68-1.56 17.37-2.21 26.06-1 13.38-1.93 26.77-2.9 40.16L0 324.86a2.4 2.4 0 0 0 2.4 2.4 2.45 2.45 0 0 0 2.4-2.4m183.98 0q.1-17.67.3-35.34.23-23.05.53-46.1.14-9.9.33-19.8c.06-3.09-4.74-3.09-4.8 0a4335 4335 0 0 0-.57 39.5q-.27 22.46-.46 44.93l-.13 16.8c-.01 3.1 4.79 3.1 4.8 0ZM109.6 191c5.13 0 10.26-.11 15.39-.11a2.4 2.4 0 0 0 0-4.8c-5.13 0-10.26.1-15.39.1a2.4 2.4 0 0 0 0 4.8" class="d"/><path d="M104.3 179.64c.49 2.04.8 4.11 1.24 6.16a20 20 0 0 1 .89 4.9c-.07 1.45-.34 2.91-.52 4.35l-2.67 21.54q-.93 7.6-1.82 15.19a2.4 2.4 0 0 0 2.4 2.4 2.46 2.46 0 0 0 2.4-2.4q1.53-13.11 3.18-26.2c.61-4.9 1.5-9.84 1.82-14.76a19 19 0 0 0-.83-5.27c-.54-2.38-.9-4.8-1.46-7.18-.72-3-5.35-1.73-4.63 1.28Zm29.1 51.28-3.6-25.43-1.32-9.53-.1-.69-.08-.6-.18-1.39q-.14-.94-.22-1.89a12 12 0 0 1 .58-3.94 46 46 0 0 1 1.97-6.64 2.47 2.47 0 0 0-.87-3.29 2.4 2.4 0 0 0-3.28.86 50 50 0 0 0-2 6.28 21 21 0 0 0-1.23 6.36 39 39 0 0 0 .47 3.99c.95 7.13 1.98 14.26 3 21.39l2.24 15.8a2.4 2.4 0 0 0 2.95 1.68 2.46 2.46 0 0 0 1.68-2.96Z" class="d"/><path d="M137.72 268.78c12.84-22.26 25.54-44.63 37.3-67.49.88-1.72 1.93-3.44 1.46-5.46-.4-1.73-1.84-2.99-3.01-4.21a217 217 0 0 0-8.24-8.04l-.48 3.77 6.76-3.86c1.96-1.12 4.64-2.27 4.02-5.04a12 12 0 0 0-2.27-4.12 42 42 0 0 0-3.48-4.15 92 92 0 0 0-16.82-13.53 2.42 2.42 0 0 0-3.53 1.43q-5.32 23.57-12.1 46.76c-4 13.72-8.3 27.38-13.03 40.86a456 456 0 0 1-7.85 20.5 2.4 2.4 0 0 0 1.68 2.96 2.46 2.46 0 0 0 2.95-1.68 541 541 0 0 0 12.89-35.63 838 838 0 0 0 13.63-46.12q3.46-13.13 6.46-26.38l-3.53 1.44a97 97 0 0 1 11.5 8.64 61 61 0 0 1 5.42 5.3 27 27 0 0 1 2.03 2.52 20 20 0 0 1 1.2 1.93l.12.24q.23.47 0 0l.32-1.22q.56-.36.2-.14l-.54.31-1.27.73-2.33 1.32-4.86 2.78a2.42 2.42 0 0 0-.49 3.77 248 248 0 0 1 6.9 6.66l1.67 1.72c.37.4 1.1.9 1.3 1.4.26.66-.96 2.35-1.36 3.13q-4.18 8.1-8.52 16.13-8.8 16.35-18.01 32.47-5.09 8.96-10.24 17.88c-1.55 2.68 2.6 5.1 4.14 2.42Z" class="d"/><path d="M139.83 151.23c1.32 1.48 2.56 3.03 3.8 4.57 1.15 1.44 2.44 2.82 3.52 4.3a6 6 0 0 1 .94 2.05 4 4 0 0 1 .12.81c0 .16-.15 1.03.04.55a10 10 0 0 1-.84 1.44 106 106 0 0 1-8.85 12.57 51 51 0 0 1-3.27 3.62q-.75.75-1.55 1.43a8 8 0 0 1-1.25.94l3.28.86c-4.81-6.43-9.35-13.15-14.68-19.18l-.48 3.77c2.8-2 5.45-4.22 8.16-6.34l11.45-9.01 3-2.38a2.4 2.4 0 0 0 0-3.4 2.46 2.46 0 0 0-3.4 0c-6.2 5-12.5 9.88-18.77 14.78l-1.15.9-.5.39c-.32.24.39-.3-.07.05l-1.14.87a2.45 2.45 0 0 0-.5 3.77c5.07 5.72 9.37 12.1 13.94 18.2a2.45 2.45 0 0 0 3.28.87c5.17-3.38 9-8.96 12.48-13.94q2.18-3.1 4.17-6.34a14 14 0 0 0 .98-1.78 8.2 8.2 0 0 0-.4-6.35c-.94-2.15-2.72-3.86-4.17-5.67-1.56-1.93-3.1-3.88-4.74-5.74-2.06-2.32-5.44 1.08-3.4 3.39" class="d"/><path d="M92.1 147.84c-1.46 1.64-2.83 3.36-4.2 5.07-1.3 1.62-2.81 3.18-3.96 4.9a8.5 8.5 0 0 0-.51 8.99 110 110 0 0 0 9.75 13.87 33 33 0 0 0 7.24 6.99 2.46 2.46 0 0 0 3.28-.87c4.57-6.1 8.87-12.49 13.93-18.2a2.45 2.45 0 0 0-.48-3.78l-.9-.68-.35-.26c-.3-.23.41.32-.02-.02l-1-.78q-2.62-2.03-5.23-4.08-5.62-4.41-11.23-8.84-1.47-1.15-2.92-2.31a2.47 2.47 0 0 0-3.4 0 2.4 2.4 0 0 0 0 3.39c6.27 5.06 12.65 10 19.01 14.95 1.2.93 2.38 1.9 3.61 2.78l-.49-3.77c-5.32 6.03-9.86 12.75-14.68 19.18l3.29-.86-.63-.43-.35-.27q-.74-.62-1.43-1.29-1.5-1.46-2.87-3.06a88 88 0 0 1-5.22-6.8 128 128 0 0 1-5.12-7.88l-.13-.24c.11.27.03.05.03-.22a5 5 0 0 1 .36-1.99c.74-1.81 2.47-3.35 3.68-4.85 1.42-1.77 2.83-3.55 4.34-5.25 2.03-2.3-1.35-5.71-3.4-3.4" class="d"/><path d="M95.09 147.24v3.83a2.5 2.5 0 0 0 .7 1.7 2.4 2.4 0 0 0 3.4 0 2.5 2.5 0 0 0 .7-1.7v-3.83a2.5 2.5 0 0 0-.7-1.7 2.4 2.4 0 0 0-3.4 0 2.5 2.5 0 0 0-.7 1.7m40.69-.23v3.96a2.5 2.5 0 0 0 .7 1.7 2.4 2.4 0 0 0 3.4 0 2.5 2.5 0 0 0 .7-1.7v-.22a2.5 2.5 0 0 0-.7-1.7 2.4 2.4 0 0 0-3.4 0 2.5 2.5 0 0 0-.7 1.7v.22h4.8V147a2.5 2.5 0 0 0-.7-1.7 2.4 2.4 0 0 0-3.4 0 2.5 2.5 0 0 0-.7 1.7Zm99.54 177.85c-1.07-14.54-2.09-29.07-3.15-43.6-.65-8.9-1.34-17.78-2.18-26.66-1.2-12.7-2.63-25.32-5.97-37.68-1.83-6.75-4.02-13.66-7.51-19.76-3.53-6.16-8.9-11.05-14.66-15.1-11.35-7.98-24.55-13.24-37.4-18.29l-1.69-.66a2.4 2.4 0 0 0-2.95 1.68 2.46 2.46 0 0 0 1.68 2.95c11.35 4.46 22.77 9.05 33.22 15.4 5.92 3.59 11.71 7.9 15.8 13.57 3.74 5.2 5.9 11.43 7.74 17.5a157 157 0 0 1 5.05 22.87c.74 5.1 1.18 10.25 1.68 15.37q1.23 12.78 2.15 25.58c.99 13.3 1.91 26.6 2.88 39.89l.5 6.94a2.46 2.46 0 0 0 2.4 2.4 2.4 2.4 0 0 0 2.4-2.4" class="d"/><path d="M158.6 194.41a5.15 5.15 0 0 0-5.25 5.22 5.06 5.06 0 0 0 5.25 5.31 5 5 0 0 0 5.25-5.31 5.14 5.14 0 0 0-5.25-5.22" style="fill:#febe69"/><path d="M158.6 192.01a7.7 7.7 0 0 0-7.32 5.36 7.8 7.8 0 0 0 2.52 8.36 8.1 8.1 0 0 0 8.8.6 7.8 7.8 0 0 0 3.51-8.1 7.6 7.6 0 0 0-7.51-6.22 2.4 2.4 0 1 0 0 4.8l.46.02c.53.01-.56-.13-.06-.01q.36.07.7.18l.26.09-.32-.14.25.12c.23.13.45.32.68.43-.5-.23-.27-.21-.07-.03l.19.18.26.3c-.35-.23-.25-.37-.1-.12l.37.63c.1.18.04.3-.07-.2.03.17.12.34.17.5.06.22.08.46.15.67-.19-.54-.04-.4-.03-.15v.35a5 5 0 0 0-.03.71c-.08-.5.06-.4 0-.09a6 6 0 0 1-.21.77c-.1.28-.27.3.05-.1-.13.15-.2.38-.3.55l-.18.26c-.15.26.42-.47.1-.15-.16.17-.37.33-.52.51.35-.42.32-.23.09-.08l-.21.13-.34.18c-.4.22.46-.14.16-.06-.23.06-.45.16-.7.21l-.26.06q-.38.06.23-.03l-.29.03h-.73l-.42-.03c.05 0 .61.12.23.02q-.36-.07-.71-.18-.15-.07-.31-.11c.64.16.26.1.05-.01s-.39-.26-.59-.38c.5.29.33.27.2.14l-.28-.26-.2-.23c-.23-.2.34.51.1.13q-.2-.31-.4-.66c-.23-.42.2.56.04.1l-.08-.26a6 6 0 0 0-.2-.8c.03.04.06.62.04.21l-.03-.43v-.36c.01-.27.19-.6-.02.01.08-.25.1-.53.18-.79l.14-.38c-.04.24-.21.46-.02.1.12-.24.3-.45.42-.68-.25.5-.2.26-.03.08l.28-.29c.19-.17.42-.2-.08.04l.33-.23a4 4 0 0 1 .6-.32l-.31.13a5 5 0 0 0 .8-.24l.15-.03q.4-.06-.2.02a2 2 0 0 0 .61-.03 2.4 2.4 0 1 0 0-4.8Z" class="d"/></svg>
