<svg xmlns="http://www.w3.org/2000/svg" viewBox="-137.21 0 442.42 442.42"><defs><style>.a{fill:#fff}.c{fill:#211715}.d{fill:#645d5c}.g{fill:#a98a75}</style></defs><path d="M125.07 48.77a4.5 4.5 0 0 1 3.25-1.2 4.2 4.2 0 0 1 3.75 2.09c1.27 2.2 1.22 6.28.37 8.8a13.6 13.6 0 0 1-4 6.47 5 5 0 0 1-3.82 1.1l-.36-.07a29 29 0 0 1-1.32 3.57c-.86 2.35-5.2 9.93-10.94 14.11v3.6c-.57.47-12.32 9.73-13.2 10.36h-2.08c-.89-.63-12.63-9.9-13.21-10.36v-1.92a26 26 0 0 1-8.72-7.12 34 34 0 0 1-6.49-12.24 4.9 4.9 0 0 1-4.14-1.04 13.6 13.6 0 0 1-3.98-6.46c-.86-2.52-.91-6.6.36-8.8a4.2 4.2 0 0 1 3.75-2.09 4.5 4.5 0 0 1 3.25 1.2s-3.77-27.25 28.77-27.25c33.18 0 28.76 27.25 28.76 27.25" class="a"/><path d="M127.14 16.37a43 43 0 0 1 1.33 1.66c2.8 3.66 3.81 8.1 3.78 12.76-.02 4.43.08 7.89-.75 11.76l-1.25 5.44a5 5 0 0 0-1.93-.41 4.5 4.5 0 0 0-3.25 1.19l-.38-.6-.97-4.16c-.41-1.77-.43-3.53-.75-5.53-1.2-7.1-7.23-11.13-10.87-12.53l-6-1.4c-6.73-.18-10.86 1.38-16.94 4.86-7.71 4.41-11.83 7.79-19.5 11.57q-.68 3.14-1.1 6.33l-1.02 1.46a4.5 4.5 0 0 0-3.25-1.2 6 6 0 0 0-1.23.18l-1.69-4.62c-2.38-7.72-1.54-15.62.84-20.05 3.49-7.81 11.6-17.36 26.8-20.46a36 36 0 0 1 13.85.09c5.31 1.26 8.7 3.02 10.04 5.89l5.44 2.57c3.96.64 6.23 2.15 8.8 5.2" style="fill:#c6c6c6"/><path d="M95.2 59.9a27 27 0 0 1 .63 2.85l-.07-.53a2 2 0 0 1 .01.4l.07-.54-.04.18.2-.48-.06.12.31-.4-.1.09.41-.32-.22.12.47-.2-.38.12.53-.08h-.35l.53.07-.4-.07a1.5 1.5 0 0 0-.8-.03 1.5 1.5 0 0 0-.75.24 2 2 0 0 0-.71 2.73 2 2 0 0 0 1.2.92c.35.05.7.14 1.06.15a3.5 3.5 0 0 0 1.62-.4 2.5 2.5 0 0 0 1.33-1.6 4 4 0 0 0-.02-1.67q-.24-1.38-.6-2.73a2 2 0 0 0-2.46-1.4 2 2 0 0 0-1.2.92 2 2 0 0 0-.2 1.54Zm-13.98-8.22c-.48 1.55-.17 5.11 2.76 5.42 3.88-.03 4.08-4.33 2.78-6.36-1.07-1.65-4.21-2.34-5.55.94m31.15 0c.48 1.55.17 5.11-2.76 5.42-3.88-.03-4.08-4.33-2.78-6.36 1.07-1.65 4.2-2.34 5.54.94m-43.42-4.33a6.9 6.9 0 0 0-7.51-1.12A6.6 6.6 0 0 0 58 50.65a16.5 16.5 0 0 0 2.4 13.02c1.69 2.51 4.36 4.78 7.59 4.36a2.07 2.07 0 0 0 2-2 2 2 0 0 0-2-2c-2.28.3-3.77-1.6-4.76-3.41a13 13 0 0 1-1.62-5.03 8.6 8.6 0 0 1 .87-5.25c-.32.5.51-.45.23-.24a2 2 0 0 1 .97-.44 2.7 2.7 0 0 1 2.45.52c1.91 1.7 4.75-1.11 2.83-2.83Zm57.54 2.83a2.7 2.7 0 0 1 2.31-.55 2 2 0 0 1 1.1.47c-.28-.2.54.73.24.24a5 5 0 0 1 .78 2.12 12 12 0 0 1 .08 3.13 13 13 0 0 1-1.62 5.03c-.98 1.82-2.48 3.7-4.76 3.4a2 2 0 0 0-2 2 2.05 2.05 0 0 0 2 2c5.27.7 8.5-5 9.81-9.25 1.18-3.82 1.14-9.74-2.6-12.18a6.9 6.9 0 0 0-8.17.76c-1.93 1.72.9 4.54 2.82 2.83" class="c"/><path d="M122.87 63.32a29 29 0 0 1-1.3 4.37c-.2.5-.36.84-.6 1.41-.2.5.14-.27-.03.09l-.18.4a37 37 0 0 1-3.2 5.32c-2.79 3.95-6.6 8.26-11.5 9.4-2.5.6-1.44 4.46 1.07 3.87 5.77-1.36 10.22-6.19 13.57-10.81a38 38 0 0 0 3.48-5.7q.3-.64.57-1.3l.08-.18.44-1.04a29 29 0 0 0 1.46-4.76c.52-2.51-3.33-3.59-3.86-1.06Zm-57.07.96c2.48 10.89 10.67 22.75 22.43 24.53a2.07 2.07 0 0 0 2.46-1.4 2 2 0 0 0-1.4-2.46c-10.47-1.58-17.43-12.07-19.64-21.73-.57-2.51-4.43-1.45-3.85 1.06m9.52-13.62c.14-1.64 1-2.34 2.54-2.73a27 27 0 0 1 5.78-.81 20 20 0 0 1 6.2.59c1.53.45 1.74 1.98 1.83 3.37.2 3.15-.37 6.34-3.37 7.94a11 11 0 0 1-9.1.25 5.1 5.1 0 0 1-3.02-3.15 13 13 0 0 1-.86-5.46c.14-2.57-3.86-2.56-4 0-.22 4.23 1.15 9.49 5.08 11.68a15.2 15.2 0 0 0 13.51.34c4.49-2.15 6.07-6.9 5.76-11.6-.17-2.6-.84-5.21-3.26-6.62a9 9 0 0 0-3.28-.98 28 28 0 0 0-4.38-.38A27 27 0 0 0 76 44.3c-2.96 1.01-4.43 3.32-4.69 6.36a2 2 0 0 0 2 2 2.04 2.04 0 0 0 2-2m47.4 0c-.2-2.49-1.22-4.82-3.6-5.93a22 22 0 0 0-7.79-1.57 25 25 0 0 0-8.2.69 6.45 6.45 0 0 0-4.57 5.57c-.66 4.63.18 9.69 4.26 12.5 3.69 2.55 9.06 2.8 13.17 1.18a9 9 0 0 0 5.32-4.89 17 17 0 0 0 1.42-7.54c-.14-2.56-4.14-2.58-4 0 .13 2.55-.35 6.51-2.73 8a11 11 0 0 1-9.18.81 6.2 6.2 0 0 1-3.45-2.61 9 9 0 0 1-1.02-4.48c-.02-1.35-.1-3.39 1.07-4.32a5 5 0 0 1 2.2-.67 21 21 0 0 1 3.12-.29 28 28 0 0 1 6.66.64 5 5 0 0 1 2.53.95 3 3 0 0 1 .8 1.96 2.05 2.05 0 0 0 2 2 2 2 0 0 0 2-2" class="c"/><path d="M94.2 52.33a14 14 0 0 1 1.48-.28l-.53.07a13 13 0 0 1 3.36.01l-.53-.07a14 14 0 0 1 1.84.39 2 2 0 0 0 1.06-3.86 15 15 0 0 0-7.73-.12 2 2 0 1 0 1.06 3.86m-25.17-.97a14 14 0 0 0 3.39.34 2 2 0 0 0 1.41-.59 2.2 2.2 0 0 0 .59-1.41 2 2 0 0 0-2-2 12 12 0 0 1-1.88-.1l.53.07q-.5-.07-.98-.18a2 2 0 0 0-1.54.2 2 2 0 0 0-.72 2.74 2 2 0 0 0 1.2.92Zm54.8-4.11q-1.39.32-2.8.57a1.9 1.9 0 0 0-1.43 1.66 1.5 1.5 0 0 0 .04.8 2 2 0 0 0 .91 1.2l.48.2a2 2 0 0 0 1.06 0q1.41-.24 2.8-.57a2 2 0 0 0 1.2-.92 1.5 1.5 0 0 0 .24-.74 1.5 1.5 0 0 0-.03-.8 2 2 0 0 0-.92-1.2 2.2 2.2 0 0 0-1.54-.2Zm-17.72-24.7a29 29 0 0 0-10.28 1.47 55 55 0 0 0-9.85 4.94c-6.2 3.7-12.09 7.8-18.61 10.91-2.32 1.11-.3 4.56 2.02 3.46 6.26-3 11.94-6.89 17.86-10.47a55 55 0 0 1 9.3-4.86 26 26 0 0 1 9.56-1.44c2.57.05 2.57-3.95 0-4Z" class="c"/><path d="M67.46 41.7a89 89 0 0 0-.9 5.6 2 2 0 0 0 .59 1.42 2 2 0 0 0 2.83 0l.31-.4a2 2 0 0 0 .27-1.01l.05-.4-.07.54q.32-2.35.78-4.68a2 2 0 0 0-.2-1.54 2 2 0 0 0-2.74-.72 2 2 0 0 0-.92 1.2Zm53.92 1.07q.46 2.33.77 4.68l-.07-.54.05.4a2.2 2.2 0 0 0 .59 1.41 2 2 0 0 0 2.83 0 2 2 0 0 0 .58-1.41 86 86 0 0 0-.9-5.6 2 2 0 0 0-3.65-.48 2.2 2.2 0 0 0-.2 1.54" class="c"/><path d="M111.57 27.88c.06.02.54.23.1.03l.45.2.87.44a20 20 0 0 1 1.93 1.18 13 13 0 0 1 1.62 1.3 17 17 0 0 1 1.82 1.92 13 13 0 0 1 2.32 4.48c.66 2.32.6 4.77 1.11 7.12a2 2 0 1 0 3.86-1.07c-.56-2.52-.46-5.14-1.27-7.62a18 18 0 0 0-3.19-5.74 21 21 0 0 0-8.56-6.1 2 2 0 0 0-2.46 1.4 2.05 2.05 0 0 0 1.4 2.46m6.24-14.78a11.4 11.4 0 0 1 6.15 2.8 19.6 19.6 0 0 1 5.03 7.13 26 26 0 0 1 1.26 9.38 48 48 0 0 1-.68 9.6c-.52 2.52 3.34 3.6 3.86 1.07a54 54 0 0 0 .82-10.9 28 28 0 0 0-1.72-11.02c-2.4-5.8-7.33-10.85-13.65-11.92a2.06 2.06 0 0 0-2.47 1.4 2 2 0 0 0 1.4 2.46m-3.18-5.51c-2.4-4.88-8.98-6.63-13.9-7.27A39 39 0 0 0 81.81 2.6a38.5 38.5 0 0 0-21.33 19.47c-3.24 6.68-3.16 14.56-1.05 21.59.74 2.46 4.6 1.41 3.86-1.06-1.66-5.55-2.13-12.11.17-17.56a34 34 0 0 1 6.06-9.53A36 36 0 0 1 97.14 4.02a29 29 0 0 1 8.9 1.7c2.08.75 4.13 1.84 5.14 3.9 1.14 2.3 4.59.28 3.46-2.03ZM91.66 73.9a17 17 0 0 0 5.44.76 13 13 0 0 0 5.67-1.05 2 2 0 0 0 .72-2.74 2.05 2.05 0 0 0-2.74-.72c-.35.17.01 0 .16-.06l-.36.13a8 8 0 0 1-.9.24l-.62.1c-.25.05.46-.04.08 0q-.22 0-.43.04a20 20 0 0 1-3.84-.05c-.32-.03-.1-.03.09.02q-.31-.07-.62-.1a13 13 0 0 1-1.59-.42 2 2 0 0 0-2.46 1.4 2.05 2.05 0 0 0 1.4 2.46Zm13.7-3.27q.39 1 .7 2.04a2.2 2.2 0 0 0 .92 1.2 1.5 1.5 0 0 0 .75.23 1.5 1.5 0 0 0 .8-.04l.47-.2a2 2 0 0 0 .72-.72 2 2 0 0 0 .2-1.54q-.31-1.03-.7-2.03a2.2 2.2 0 0 0-.92-1.2 1.5 1.5 0 0 0-.75-.24 1.5 1.5 0 0 0-.8.03l-.47.2a2 2 0 0 0-.72.72l-.2.48a2 2 0 0 0 0 1.06Zm-34.09 29.52c.9-.31 1.77-.76 2.63-1.16q2-.9 3.98-1.84l3.13-1.45.33-.14c.09-.05.27-.12-.16.06-.52.22-.06.03.07-.02q.4-.14.76-.33A5.6 5.6 0 0 0 84.48 93a9 9 0 0 0 .84-2.93c.23-1.51.5-3.02.63-4.54a2 2 0 0 0-2-2 2.05 2.05 0 0 0-2 2 38 38 0 0 1-.92 5.5c-.06.24.19-.3.03-.1l-.13.23c-.23.4.16-.1-.08.11l-.22.21c.21-.25.13-.08.01-.01l-.3.19-.3.15-1.01.44-6.66 3.08-1.73.79-.55.24c-.45.2.5-.18.12-.05a2.05 2.05 0 0 0-1.4 2.46 2 2 0 0 0 2.46 1.4Zm36.56-14.8q.21 2.14.57 4.24a16 16 0 0 0 .4 2.2 5.5 5.5 0 0 0 1.5 2.48 6 6 0 0 0 1.35.94 11 11 0 0 0 1 .44c.65.25-.46-.23-.21-.1 1.97 1 4.02 1.9 6.02 2.84.95.45 1.9.92 2.87 1.32a2 2 0 0 0 2.46-1.4 2.06 2.06 0 0 0-1.4-2.46c1 .42.06.01-.17-.1l-1.29-.6-3.48-1.65-2.7-1.27-.28-.14-.08-.03-.48-.2c-.05-.02-.37-.16-.08-.03l-.54-.29c-.06-.03-.35-.22-.13-.07.2.14 0 0-.03-.03-.14-.14-.39-.47-.15-.1l-.3-.5c-.12-.18.1.16.08.18l-.13-.36-.12-.5-.2-1.2c-.2-1.32-.37-2.3-.49-3.6a2.04 2.04 0 0 0-2-2 2 2 0 0 0-2 2Z" class="c"/><path d="M97.1 142.1a186 186 0 0 1-8.32-18.21c-4.3-10.35-7.62-18.19-10.68-28.81a4.7 4.7 0 0 1 1.06-2.56c1.32-1.54 3-3.76 4.35-5.27.57.46 12.32 9.72 13.2 10.35h2.08c.89-.63 12.63-9.89 13.2-10.36 1.36 1.52 3.03 3.74 4.36 5.28a4.7 4.7 0 0 1 1.05 2.51 259 259 0 0 1-10.67 28.7 196 196 0 0 1-9 18.36" class="a"/><path d="M47 435.45c-1.18-2.88-.2-6.7 3.49-10.48 2.83-2.9 5.43-6.07 8.14-9.1l4.07-4.54a46 46 0 0 0 4.37-6.57s0 0 .01-.03a55 55 0 0 0 10.89 1.17 146 146 0 0 0 14.97-.9l.3 1.51a33 33 0 0 1-.14 13.56 8.7 8.7 0 0 1-2.04 4.1c-1.65 1.62-3.9 1.94-6.06 2.8-5.34 2.12-8.32 5.26-12.26 8.06a30 30 0 0 1-6.77 3.26 21.4 21.4 0 0 1-12.1 1.81c-3.52-.57-5.92-2.3-6.88-4.65" class="d"/><path d="M97.92 97.6h-1.2c-1.4 1.57-3.68 4.6-5.58 7.15l.03.09c.4 1.62.45 2.4.8 3.93l.2.92a9 9 0 0 1 .32 2.06c0 .3-.97 7.84-2 16.26 2.09 4.99 3.43 7.95 6.91 14.67 3.33-6.13 5.12-9.59 7.26-14.29a688 688 0 0 1-2.25-16.4 13 13 0 0 1 .77-3.65 21 21 0 0 1 .97-3.15s.07-.2.18-.5a128 128 0 0 0-5.54-7.09Z" style="fill:#3d8dcc"/><path d="M119.63 433.41c-2.92-2.39-5.72-4.78-9.01-7.22-1.63-1.2-3.67-2.04-5.22-3.35a9 9 0 0 1-2.1-2.8c-1.83-3.48-1.67-9.99-.97-13.87l.2-1.09c4.53.52 10.18.78 14.21.82a53 53 0 0 0 9.75-.95l1.79 2.81c1.3 1.46 3.73 4.38 5.14 5.74 4.2 4.05 5.7 5.97 8.76 9.35 2.34 2.6 4.4 7.82 3.8 11.49-.45 2.82-3.17 4.37-5.82 5.46a21 21 0 0 1-7.72.4 21 21 0 0 1-9.09-3.82q-1.94-1.5-3.72-2.97" class="d"/><path d="M124.75 405.96c2.64 4.9 7.15 8.66 10.9 12.64 3.82 4.04 9.07 8.95 8.4 15.1-.26 2.4-3.2 4-5.37 4.41a18 18 0 0 1-8.43-.5c-3.65-1.08-6.41-3.32-9.3-5.7-3.17-2.6-6.27-5.35-9.65-7.68-1.6-1.1-3.54-1.82-4.91-3.2a8.5 8.5 0 0 1-2.1-4.19 27 27 0 0 1-.03-10.13 2.06 2.06 0 0 0-1.4-2.46 2 2 0 0 0-2.46 1.4c-1.17 6.76-1.24 15.56 5.14 19.77 1.75 1.15 3.57 2.11 5.24 3.39 1.78 1.35 3.5 2.78 5.23 4.2 3.25 2.69 6.45 5.74 10.35 7.43 6.02 2.6 14.4 3.24 19.45-1.76 2.74-2.7 2.6-6.66 1.59-10.11-1.06-3.59-3.06-6.26-5.5-9.01-2.5-2.82-5.15-5.44-7.75-8.15a36 36 0 0 1-5.94-7.47c-1.23-2.27-4.68-.25-3.46 2.02m-33.44 1.08a32 32 0 0 1 .04 11.54 8 8 0 0 1-1.48 3.93c-1.03 1.25-2.8 1.62-4.25 2.1a31 31 0 0 0-8.58 4.63c-2.6 1.94-5.03 4.18-7.98 5.62-3.26 1.58-6.97 3.11-10.61 3.4-2.71.23-6 .07-8.21-1.73-5.04-4.12 1.82-10.2 4.54-13.24 2.92-3.26 5.78-6.58 8.7-9.84a40 40 0 0 0 5.32-7.68c1.23-2.26-2.22-4.28-3.45-2.02a39 39 0 0 1-5.16 7.4c-2.87 3.2-5.68 6.47-8.55 9.66-2.6 2.9-5.6 5.55-6.72 9.42a8.9 8.9 0 0 0 1.61 8.23c2.14 2.56 5.51 3.53 8.72 3.8 4.36.38 8.3-.9 12.29-2.45a31 31 0 0 0 5.66-2.68c1.48-.96 2.84-2.09 4.22-3.17a32 32 0 0 1 9.07-5.42c2.01-.69 4.06-1.26 5.69-2.7a10 10 0 0 0 2.82-5.08 36 36 0 0 0 .17-14.79c-.5-2.52-4.36-1.45-3.86 1.07" class="c"/><path d="M97.36 328.55a245 245 0 0 1-38.32-3.12c.86 25.86 1.7 51.46 2.77 77.97a59 59 0 0 0 16.16 2.5c5.84-.06 15.11-.57 19.4-1.67 4.27 1.1 13.52 1.62 19.36 1.67a59 59 0 0 0 16.16-2.5c1.07-26.37 1.9-51.83 2.75-77.54a229 229 0 0 1-38.28 2.7" class="a"/><path d="M96.82 406.15c5.6 1.4 11.66 1.54 17.4 1.7a60 60 0 0 0 19.2-2.52 2.1 2.1 0 0 0 1.47-1.93c1.01-24.95 1.84-49.91 2.66-74.87.84-25.36 1.68-50.71 2.72-76.06l.63-16.77c.1-2.57-3.9-2.57-4 0-.63 16.89-1.32 33.78-1.92 50.67-.88 24.92-1.66 49.84-2.52 74.77q-.73 21.13-1.57 42.26l1.47-1.93a56 56 0 0 1-18.14 2.38c-5.39-.15-11.07-.24-16.33-1.56-2.5-.63-3.56 3.23-1.06 3.86Z" class="c"/><path d="M96.82 402.3c-5.26 1.31-10.95 1.4-16.34 1.55a56 56 0 0 1-18.14-2.38l1.47 1.93c-1-24.86-1.83-49.73-2.66-74.6-.83-25.25-1.67-50.5-2.69-75.75l-.68-17.35c-.1-2.56-4.1-2.58-4 0 .66 17 1.35 33.98 1.95 50.97.88 24.83 1.65 49.66 2.5 74.49q.74 21.12 1.58 42.24a2.1 2.1 0 0 0 1.47 1.93 60 60 0 0 0 19.2 2.52c5.74-.16 11.8-.3 17.4-1.7 2.5-.63 1.43-4.49-1.07-3.86Z" class="c"/><path d="M95.35 257.82v146.25c0 2.57 4 2.57 4 0V257.82c0-2.58-4-2.58-4 0" class="c"/><path d="M97.1 142.1a186 186 0 0 1-8.32-18.21c-4.44-10.72-7.85-18.75-10.99-29.98-1.28.33-6.05 1.56-7.8 2.03-13.24 3.58-22.27 9.26-26.81 15.11q-.49.63-.91 1.27s-7.52 19.34-15.07 30.84c-1.37.12-3.32.46-3.32.46.62 8.15.63 14.04 1.71 25.95a83 83 0 0 0 1.52 9.16c1.62 7.85 5.94 11 10.84 11.68 1.93.27 7.77.47 7.77.47-.97 29.29-4.68 89.15-6.95 126.41a3.6 3.6 0 0 0 1.68 3.51 31 31 0 0 0 9.47 3 245 245 0 0 0 47.44 4.76c16.91 0 31.08-.91 48-4.54 4.38-.93 8.98-2.83 11.1-5.1a4.3 4.3 0 0 0 1.27-3.18c-2.26-37.1-5.9-91.46-6.85-120.41 2.85-.86 5.58-1.8 7.1-2.97 9.3-7.12 8.85-24.08 6.84-35.67-1.86-10.71-6-29.5-9.33-38.41l-.2-.53-3.24-5.1c-4.06-6.4-13.5-12.8-27.93-16.7a518 518 0 0 0-6.49-1.7 255 255 0 0 1-10.9 29.5 196 196 0 0 1-9 18.35" class="d"/><path d="M44 113.33c3.79-5.62 10.19-9.3 16.27-11.94 5.9-2.56 12.17-4.04 18.38-5.64 2.49-.64 1.43-4.5-1.07-3.86-10.9 2.81-21.94 5.74-30.91 12.89a29 29 0 0 0-6.12 6.53c-1.45 2.14 2.02 4.15 3.45 2.02m109.55 5.48a138 138 0 0 1 4.33 14.86q2.15 8.64 3.86 17.38c1.97 10.04 3.76 20.93.66 30.94a19 19 0 0 1-3.66 6.92c-2.26 2.55-5.2 3.52-8.4 4.49a2 2 0 0 0-1.47 1.92c.74 22.23 2.15 44.43 3.5 66.62q1.14 18.53 2.31 37.05l.55 8.68c.16 2.67.51 5.4.5 8.07-.03 2.7-4.22 4.26-6.28 5.02a63 63 0 0 1-10.38 2.48 229 229 0 0 1-42.64 3.31 238 238 0 0 1-44.15-4.32 45 45 0 0 1-8.99-2.28c-1-.42-2.3-.75-2.51-1.96a18 18 0 0 1 .18-3.86q.5-8 .98-16.03l2.12-35.3c1.28-21.98 2.57-43.95 3.44-65.94l.22-5.98a2.03 2.03 0 0 0-2-2c-5.27-.18-11.13.29-14.38-4.7a17 17 0 0 1-2.21-5.56 74 74 0 0 1-1.46-8.32c-.5-4.69-.79-9.4-1.05-14.11-.24-4.2-.42-8.38-.74-12.57-.2-2.55-4.2-2.57-4 0 .68 8.97.8 17.98 1.82 26.92.95 8.42 2.73 19.25 12.42 21.56a49 49 0 0 0 9.6.78l-2-2c-.72 21.64-2 43.27-3.26 64.89q-1.06 18.44-2.19 36.88l-1 16.57q-.27 3.88-.48 7.76a6.2 6.2 0 0 0 1.25 4.35c1.03 1.27 2.7 1.88 4.19 2.48a50 50 0 0 0 9.44 2.37q5.56 1.06 11.15 1.85a253 253 0 0 0 22.8 2.22 245 245 0 0 0 44.29-1.54q5.6-.74 11.17-1.79a54 54 0 0 0 10.63-2.77c2.69-1.11 5.85-2.65 7.27-5.35 1.34-2.54.58-5.87.4-8.63l-2.3-36.92c-1.48-23.8-3-47.62-3.97-71.45l-.24-6.48-1.47 1.93c3.18-.96 6.4-1.98 8.91-4.24a19.5 19.5 0 0 0 4.57-6.38c2.37-5.18 3.1-10.96 3.12-16.6a89 89 0 0 0-1.73-16.5q-1.64-8.86-3.73-17.63a154 154 0 0 0-5.13-18.16c-.9-2.4-4.76-1.36-3.86 1.06Z" class="c"/><path d="M75.58 160.93a609 609 0 0 0-12.03 9.15 752 752 0 0 0 14.75 21.78 3 3 0 0 1 2.16-.14 47 47 0 0 0 5.2 1.66 33 33 0 0 0 8.34-2.59c-2.86-2.02-8.98-4.05-9.18-7.51a3 3 0 0 1 .77-2.32c1.03-1.04 2.49-.8 5-.6 1.9.14 3.28.43 5.17.71a39 39 0 0 1 4.31.93c3.6 1.48 5.18 1.95 7.46 4.83l-2.26-5.46a1 1 0 0 1 .53-1.3c5.47-2.27 11.6-4.87 17.54-7.4a1021 1021 0 0 0-22.2-30.38c-3.55 2.29-15.92 11.41-25.56 18.64" style="fill:#fecb87"/><path d="M79.3 202.51a5 5 0 0 0 .43 1.06 8 8 0 0 0 2.98 3.45 17 17 0 0 0 4.24 8.1c.87.98 4 1.81 4.96 1.6 8.24-1.87 14.76-6.32 21.29-11.67l1.29-1.06a884 884 0 0 0-7.31-18.01l-.83-.5c-1.74-1.74-3.33-2.28-6.27-3.49a39 39 0 0 0-4.32-.92c-1.88-.29-3.27-.58-5.17-.72-2.51-.2-3.97-.44-5 .6a3 3 0 0 0-.77 2.32c.2 3.47 6.32 5.5 9.18 7.51a33 33 0 0 1-8.34 2.6 47 47 0 0 1-5.2-1.66 3.6 3.6 0 0 0-3.87 1.51 3.3 3.3 0 0 0 .8 4.09 13 13 0 0 0 1.96 1.23 7 7 0 0 0-.05 3.96" class="a"/><path d="M54.82 173.74c.85-4.57 1.26-9.24 1.77-13.85q1.23-11.14 2.34-22.29l1.35-13.29a2 2 0 0 0-2-2 2.05 2.05 0 0 0-2 2c-1.44 14.2-2.76 28.42-4.5 42.58-.26 2.12-.42 3.64-.82 5.78-.47 2.52 3.38 3.6 3.85 1.07Zm25.2 17.1c-4.98-7.2-10.09-14.35-14.74-21.77l-.31 2.42q.76-.62 1.53-1.21c-.45.35.15-.11.27-.2l.7-.53q.75-.59 1.51-1.16 4-3.04 8.03-6.05c6.16-4.6 12.32-9.2 18.55-13.7 2.17-1.57 4.34-3.17 6.6-4.62l-2.75-.72a925 925 0 0 1 22.2 30.39 2.06 2.06 0 0 0 2.74.72 2 2 0 0 0 .72-2.74 926 926 0 0 0-22.2-30.39 2.04 2.04 0 0 0-2.74-.72c-4.97 3.22-9.7 6.87-14.46 10.39q-9.07 6.7-18.06 13.5c-1.84 1.39-3.7 2.75-5.47 4.21a2 2 0 0 0-.32 2.43c4.66 7.42 9.76 14.58 14.75 21.78 1.46 2.1 4.93.1 3.46-2.02Z" class="c"/><path d="M92.99 189.06a32 32 0 0 1-7.86 2.39h1.06a43 43 0 0 1-5.04-1.6 5.5 5.5 0 0 0-6.13 2.14 5.3 5.3 0 0 0 .63 6.45c1.66 1.74 4.34 2.73 6.6 3.34 2.5.67 3.56-3.18 1.07-3.85a15 15 0 0 1-3.4-1.34 8 8 0 0 1-1.29-.82 1.2 1.2 0 0 1-.4-.67 1 1 0 0 1 .08-.86c.07-.14.2-.25.57-.44.74-.39 1-.16 1.85.15q1.4.5 2.82.93.61.2 1.24.34a5 5 0 0 0 2.14-.03 37 37 0 0 0 8.08-2.67 2 2 0 0 0 .71-2.74 2.06 2.06 0 0 0-2.73-.72" class="c"/><path d="M77.42 198.03a9.7 9.7 0 0 0 4.28 10.72l-.92-1.2c.89 3.3 2.34 6.74 4.9 9.13a8.6 8.6 0 0 0 4.09 1.84 9.3 9.3 0 0 0 4.74-.4c7.59-2.19 14.06-6.72 20.1-11.66 2-1.63-.85-4.45-2.82-2.83a72 72 0 0 1-10.13 7.14 39 39 0 0 1-5.45 2.57q-1.46.55-2.97.97l-1.44.38q-.72.16-.23.06l-.45-.02a5.2 5.2 0 0 1-3.3-1.66 14 14 0 0 1-2.5-4.35 16 16 0 0 0-.88-2.71c-.46-.79-1.48-1.18-2.04-1.94a5.5 5.5 0 0 1-1.11-4.99c.68-2.48-3.18-3.54-3.86-1.06Zm30.34-13.96a18 18 0 0 0-7.56-4.11 53 53 0 0 0-9.8-1.62c-2.89-.24-6.32-.3-7.35 3.09-.85 2.8.72 5.19 2.85 6.82 2.2 1.7 4.82 2.7 7.1 4.27a2 2 0 0 0 2.73-.72 2.04 2.04 0 0 0-.72-2.74c-2.06-1.42-4.44-2.33-6.48-3.8a8 8 0 0 1-1.1-.96 2.3 2.3 0 0 1-.58-.94q-.24-1.12.82-1.17a24 24 0 0 1 4.63.35c1.7.24 3.42.5 5.1.86 2.65.57 5.56 1.57 7.53 3.5 1.85 1.8 4.68-1.02 2.83-2.82Z" class="c"/><path d="M139.4 163.67c-9.7 4.09-19.34 8.26-29.04 12.34l-3.61 1.52c-1.26.53-2.6.88-3.25 2.18-.8 1.59.31 3.35.92 4.83q2.28 5.48 4.53 10.97c1.65 4.05 3.32 8.11 4.8 12.24.88 2.4 4.74 1.36 3.86-1.07-1.68-4.66-3.58-9.25-5.46-13.84q-1.46-3.58-2.95-7.14l-1.15-2.77-.49-1.2-.21-.5-.1-.24q-.13-.31 0 .02l-.5.88a7 7 0 0 1 1.8-.81l2.1-.88 4.4-1.85q4.5-1.9 8.98-3.82 8.21-3.52 16.44-7a2.07 2.07 0 0 0 1.4-2.46 2 2 0 0 0-2.46-1.4Zm-22.72-67.61c7 1.82 14 3.6 20.49 6.9 5 2.54 10.06 5.89 13.14 10.69 1.39 2.15 4.85.15 3.45-2.02-3.4-5.28-8.73-9.1-14.24-11.96-6.89-3.56-14.3-5.53-21.77-7.47-2.5-.65-3.56 3.2-1.06 3.85Zm30.17 19.13a199 199 0 0 1-22.11 2.75c-2.56.18-2.58 4.18 0 4a209 209 0 0 0 23.17-2.89 2 2 0 0 0 1.4-2.46 2.04 2.04 0 0 0-2.46-1.4" class="c"/><path d="M99.46 143.1A258 258 0 0 0 119.5 95c.74-2.48-3.12-3.53-3.86-1.07A253 253 0 0 1 96 141.08c-1.22 2.27 2.23 4.29 3.45 2.02Zm-6.52-30.53c3.06 0 6.12-.07 9.18-.07a2 2 0 1 0 0-4c-3.06 0-6.12.07-9.18.07a2 2 0 0 0 0 4" class="c"/><path d="M89.23 105.37c.25 1.05.43 2.1.64 3.16a16 16 0 0 1 .62 3.23 24 24 0 0 1-.29 2.47l-1.68 13.53a2 2 0 0 0 2 2 2.05 2.05 0 0 0 2-2l1.7-13.76a14 14 0 0 0 .25-2.66 27 27 0 0 0-.67-3.5c-.25-1.18-.44-2.36-.71-3.53-.6-2.5-4.45-1.45-3.86 1.06m17.35 22.4q-.95-6.58-1.85-13.17c-.09-.64-.27-1.63-.31-2.48a7 7 0 0 1 .39-2.25 29 29 0 0 1 1.06-3.67 2.06 2.06 0 0 0-.72-2.74 2 2 0 0 0-2.73.72 33 33 0 0 0-1.23 3.83 13 13 0 0 0-.78 3.98 25 25 0 0 0 .34 2.8q.95 7.03 1.97 14.04a2 2 0 0 0 2.46 1.4 2.05 2.05 0 0 0 1.4-2.46" class="c"/><path d="M76.15 95.5a243 243 0 0 0 9.35 25.66c3.08 7.43 6.18 14.79 9.87 21.94 1.18 2.29 4.63.27 3.45-2.02a282 282 0 0 1-9.64-21.4 240 240 0 0 1-9.17-25.24c-.71-2.47-4.57-1.42-3.86 1.07m49.26 13.58c-1.55 4.13-3.62 8.4-5.6 12.64q-3.54 7.52-7.22 14.97-1.28 2.63-2.62 5.23c-1.18 2.28 2.27 4.3 3.46 2.02 4.6-8.88 8.9-17.95 12.99-27.07 1-2.22 1.99-4.45 2.84-6.73a2 2 0 0 0-1.4-2.46 2.04 2.04 0 0 0-2.46 1.4Zm-60.58 1.06c1.69 4.49 3.78 8.84 5.82 13.18q3.6 7.67 7.34 15.27 1.31 2.7 2.68 5.35c1.18 2.29 4.64.27 3.45-2.02a544 544 0 0 1-12.82-26.7c-1-2.23-1.8-3.97-2.61-6.15a2.06 2.06 0 0 0-2.46-1.4 2 2 0 0 0-1.4 2.46Zm74.14 14.91c-.65 10.22-1.16 20.45-1.9 30.67-.2 2.56 3.81 2.55 4 0 .74-10.22 1.25-20.45 1.9-30.67.16-2.57-3.84-2.56-4 0m-13.35 5.32c-.42 10.17-.74 20.36-1.57 30.52-.2 2.56 3.8 2.55 4 0 .83-10.16 1.15-20.35 1.57-30.52.1-2.58-3.9-2.57-4 0m-15.04-41.71q1.48 1.7 2.87 3.47c.68.84 1.73 1.73 1.93 2.85.02.11.06.62.09.41.02-.16 0 0-.04.08a5 5 0 0 1-.36.6 64 64 0 0 1-4.76 6.87 21 21 0 0 1-4 4.1l2.74.71c-2.9-3.88-5.64-7.93-8.85-11.56l-.4 3.14c4.67-3.35 9.14-7.07 13.62-10.67a2 2 0 0 0 0-2.83 2.05 2.05 0 0 0-2.83 0q-3.2 2.54-6.4 5.05l-4.35 3.4-.8.63-.47.37-.8.6a2.04 2.04 0 0 0-.4 3.14c3 3.38 5.53 7.15 8.23 10.75a2.04 2.04 0 0 0 2.74.72 23 23 0 0 0 5.06-5.03q2.28-2.9 4.28-6c1.13-1.77 2.1-3.31 1.56-5.54a10.5 10.5 0 0 0-2.52-4.07c-1.1-1.35-2.16-2.72-3.3-4.02-1.72-1.93-4.54.9-2.84 2.83" class="c"/><path d="M82.1 85.83c-1.15 1.3-2.21 2.67-3.3 4.02a10.5 10.5 0 0 0-2.52 4.07c-.54 2.23.43 3.77 1.56 5.53q2 3.1 4.28 6a23 23 0 0 0 5.06 5.04 2.05 2.05 0 0 0 2.74-.72c2.7-3.6 5.24-7.37 8.22-10.75a2.04 2.04 0 0 0-.4-3.14l-.8-.6c.5.38-.33-.27-.46-.37l-.8-.63-4.35-3.4q-3.2-2.51-6.4-5.05a2.06 2.06 0 0 0-2.83 0 2 2 0 0 0 0 2.83c4.48 3.6 8.95 7.32 13.62 10.67l-.4-3.14c-3.22 3.63-5.96 7.68-8.86 11.56l2.74-.72a21 21 0 0 1-3.92-3.98 64 64 0 0 1-4.84-6.98l-.34-.57-.1-.18c.1.42.11-.23.12-.3.18-1.13 1.26-2.04 1.95-2.9.94-1.16 1.87-2.34 2.86-3.46 1.7-1.92-1.12-4.76-2.83-2.83" class="c"/><path d="M21.33 103.62c.5 1.6 1.04 3.27 1.44 4.51 0 0 1.77 5.26.63 1.42a9.5 9.5 0 0 1 5.94-2.11 5 5 0 0 1 2.88 1.25l-.39-1.28-2.66-9.01a189 189 0 0 0-7.38 2.95l-1.05.45z" class="g"/><path d="M44.45 123.74a83 83 0 0 1-2.77-9.05 43 43 0 0 0-2.99-9.5c-1.28-2.31-3.73-2.64-5.95-1.7l1.49 5.05-.9 1.15a7.4 7.4 0 0 0-3.2-2.1 5 5 0 0 0-.72-.14l-.07-.02c-3.64-.15-6.82 2.55-9.2 5.04-2.53 2.7-3.77 5.63-3.27 9.06.92 6.31 5.55 13.58 7.84 18.56.8 1.51 1.43 4.03 2.71 4.16a35 35 0 0 0 6.51-.07c2.32-.2 4.7-.54 7.09-.87 1.46-.2 2.18-2.49 2.3-3.9l.26-2.7c.01-2.9 2.14-8.4.87-12.97" class="a"/><path d="M33.27 105.41c1.14-.44 2.5-.73 3.4.32a7 7 0 0 1 1.2 2.65c1.24 3.62 1.88 7.4 3 11.05.74 2.39 1.92 4.72 1.97 7.26.08 3.4-1.04 6.65-1.26 10.01a11 11 0 0 1-.7 4.24 2 2 0 0 1-.36.51c.3-.3.21-.05-.03-.06a4 4 0 0 0-.73.1l-3.6.46a50 50 0 0 1-6.54.42 11 11 0 0 1-1.55-.07c-.55-.09.01.13-.07.06a7 7 0 0 1-1.01-2.09c-1.37-3.16-3.1-6.15-4.62-9.23-1.58-3.2-3.41-6.85-3.6-10.48-.2-3.96 2.8-7.3 5.85-9.44 1.4-.98 3.48-2.17 5.24-1.54a5 5 0 0 1 1.7 1.2c.2.18.42.43.59.59.26.23-.04.59.3.2-1.72 1.92 1.1 4.75 2.83 2.83 3.29-3.66-1.8-8.35-5.4-8.89-4.67-.7-9.23 3.13-11.97 6.5a13 13 0 0 0-2.94 5.96 15 15 0 0 0 .59 6.88c1.3 4.57 3.64 8.79 5.8 12.99.93 1.77 1.75 3.58 2.59 5.4a6 6 0 0 0 1.44 2.15 5 5 0 0 0 3.34.96 49 49 0 0 0 8.16-.48c2.24-.28 5.26-.1 6.83-2 1.33-1.62 1.54-3.67 1.73-5.68a64 64 0 0 1 .78-5.67 25 25 0 0 0 .57-6.83 18 18 0 0 0-1.12-4.53c-1.64-4.58-2.4-9.39-4-13.98a10.3 10.3 0 0 0-2.67-4.72 6.7 6.7 0 0 0-6.8-.9 2.06 2.06 0 0 0-1.4 2.46 2 2 0 0 0 2.46 1.4Z" class="c"/><path d="M27.17 116.5q1.92-.62 3.86-1.11.9-.22 1.8-.4c.37-.08-.23-.02.03 0l.42-.01c.07 0 .63.06.17-.01a4 4 0 0 1 .81.2c-.24-.08-.17-.07.02.04s.24.16.04 0l.28.25a1 1 0 0 1 .25.28c-.2-.45.03.07.08.15l.22.4c.13.25-.1-.38.01.08l.1.4c.07.23 0-.38 0 0l-.01.35c0 .24.12-.39 0-.05l-.14.4c-.03.09-.11.47-.04.13.05-.25.02-.06-.05.04.07-.1.6-.54.33-.37a2 2 0 0 0 2.01 3.46 4.6 4.6 0 0 0 1.87-4.27 6.2 6.2 0 0 0-2.93-4.7 7.3 7.3 0 0 0-5.35-.46c-1.63.36-3.24.84-4.84 1.34a2 2 0 0 0 1.06 3.86m-.25-18.64 2.98 10.08a2 2 0 1 0 3.86-1.07q-1.5-5.03-2.98-10.08a2 2 0 0 0-3.86 1.07m-8.5 3.17 2.42 7.64a2 2 0 0 0 3.85-1.07l-2.42-7.63a2 2 0 0 0-3.86 1.06" class="c"/><path d="M28.64 122.5q1.95-.55 3.9-1.06l1.81-.47.43-.1c.5-.12-.32-.04.16-.01.06 0 .53.03.24 0s.23.06.3.08c.16.05.33.14.08.02.05.02.57.3.13 0l.3.3c.15.11-.13-.23.06.07l.32.55c.15.27-.15-.47-.07-.14l.09.34c-.08-.03-.03-.5-.03-.05 0 .23.04.26.02.02l-.08.35.1-.24-.1.17q-.11.18.11-.13c.01.05-.22.21-.25.24-.16.18.33-.2.02 0l-.63.37a2 2 0 0 0-.72 2.73 2.05 2.05 0 0 0 2.74.72 4.7 4.7 0 0 0 2.8-4.16 5.4 5.4 0 0 0-2.44-4.4 6 6 0 0 0-2.82-.84 10 10 0 0 0-2.67.48q-2.43.63-4.86 1.3a2 2 0 0 0 1.06 3.85Z" class="c"/><path d="M30.85 128.03q1.6-.4 3.2-.71l.5-.1.2-.04-.18.03c.28.01.58-.06.86-.06l.38.02c.22.01-.24-.03-.23-.03l.17.04.17.05c.3.08-.14-.05-.17-.08l.14.08c.18.07-.27-.26-.13-.1.06.05.31.34.12.08s.03.07.07.13.2.44.08.13.02.1.05.18l.09.37c.05.17-.03-.59-.05-.23 0 .16.04-.33.05-.32l-.03.14-.09.33-.05.14c-.05.2.1-.28.1-.24.01.06-.11.2-.14.26-.14.27.34-.35.07-.1l.25-.2-.12.06-.8.4c-.35.16.48-.19.12-.05l-.28.1-.63.22q-.91.28-1.86.49a2 2 0 0 0-1.4 2.46 2.04 2.04 0 0 0 2.46 1.4 20 20 0 0 0 3.54-1.13 9 9 0 0 0 .96-.48 4 4 0 0 0 1.56-2.07 4.5 4.5 0 0 0-.59-4.11 4.3 4.3 0 0 0-2.32-1.73 6 6 0 0 0-2.3-.15 37 37 0 0 0-4.84.96 2 2 0 1 0 1.07 3.86" class="c"/><path d="M18.4 82.6a137 137 0 0 1-13.65 4.86c-2.04.49-2.86 1.69-2.77 3.45a19 19 0 0 0 1.62 6.93 22 22 0 0 0 3.9 6.65c1.2 1.24 3.05 2.15 4.66 1.31 2.54-1.33 7.73-3.74 13.38-6a159 159 0 0 1 13.84-4.86c1.76-.5 2.43-2.42 2.4-4.14a22 22 0 0 0-1.92-7.42 20 20 0 0 0-3.79-6.08c-1.18-1.33-2.62-1.62-4.43-.57A136 136 0 0 1 18.4 82.6" class="g"/><path d="M17.87 80.68a146 146 0 0 1-12.4 4.51c-1.58.47-3.18.8-4.32 2.1C-.07 88.73-.1 90.5.1 92.28a26 26 0 0 0 3.74 10.58c2.14 3.56 5.5 6.6 9.77 4.45a166 166 0 0 1 23.74-9.65c1.55-.5 3.34-.78 4.57-1.91a6.7 6.7 0 0 0 1.87-5.08c-.1-3.83-1.73-7.7-3.54-11a15 15 0 0 0-3.48-4.43c-1.96-1.56-4.22-1.26-6.3-.13a118 118 0 0 1-12.58 5.58 2.06 2.06 0 0 0-1.4 2.46 2 2 0 0 0 2.46 1.4c3.65-1.46 7.29-2.96 10.85-4.63 1.09-.51 2.14-1.2 3.24-1.65 1.24-.52 2.03.84 2.7 1.72a23 23 0 0 1 3.63 8.14c.31 1.25.72 2.82.2 4.08-.4.98-1.52 1.04-2.43 1.33a178 178 0 0 0-21.38 8.32q-1.98.9-3.94 1.88c-1.33.68-2.26.1-3.21-1a22 22 0 0 1-4.12-8.54c-.29-1.02-.88-3-.45-4.02.36-.85 1.94-.95 2.77-1.2a155 155 0 0 0 12.13-4.44 2.06 2.06 0 0 0 1.4-2.46 2 2 0 0 0-2.46-1.4" class="c"/><path d="M37.68 95.73c-1.38-6.13-4.14-11.64-6.9-17.25a2 2 0 0 0-2.73-.72 2.04 2.04 0 0 0-.72 2.74c1.32 2.68 2.7 5.33 3.87 8.07a47 47 0 0 1 2.63 8.22 2 2 0 1 0 3.85-1.06m-18.8 6.95a47 47 0 0 1-3.97-7.69c-1.1-2.77-2-5.61-2.97-8.43a2.05 2.05 0 0 0-2.46-1.4 2 2 0 0 0-1.4 2.46c2.02 5.91 3.98 11.76 7.34 17.07 1.37 2.17 4.83.17 3.45-2.02Z" class="c"/></svg>
