<svg xmlns="http://www.w3.org/2000/svg" viewBox="-20.48 0 355.034 355.034"><defs><style>.a{fill:#fff}.c{fill:#211715}</style></defs><path d="M301.04 334.88a6.5 6.5 0 0 0-2.49-4.01l-8.87 4.37a19 19 0 0 0-10.58-7.85 19.6 19.6 0 0 0-10.9-.23 16 16 0 0 0-5.46 2.82l-.27.1a90 90 0 0 1-9.28 4.55l-4.98 1.4c-2.38-9.13-10.08-15.86-19.79-11.73-6.52 2.78-9.83 5.09-12.9 11.89-4.33 12.93 18.67 11.22 27 9.25a35.5 35.5 0 0 0 13.11-5.86l.63-.32a14.3 14.3 0 0 0-1.59 7.32c.46 4.71 5.71 6.47 10.5 6.41a56 56 0 0 0 9.83-.93c8.08-1.47 16.85-6.8 24.5-12.72.84-.55 1.72-2.66 1.54-4.46m-9.57-161.27h-67.33V87.44c4.4-4.17 8.48-5.2 15-7.52a16 16 0 0 0 7.65 7.1 26 26 0 0 0 9.86 2.42c10 .66 20.6-2.1 27.88-9.79 6.46 1.6 15.65 7.82 19.12 12.9 6.8 9.94 8 22.07 8.41 33.34l-.05-.26c.26 9.37-.31 31.11-3.77 39.6a17 17 0 0 1-3.39 5.31c-1.17 1.22-5.11 3.08-5.11 3.08Z" class="a"/><path d="M286.24 43.91a4.2 4.2 0 0 1 3.08-.53 3.8 3.8 0 0 1 3.05 2.33c.83 2.07.2 5.52-.91 7.54a11 11 0 0 1-4.4 4.7 8 8 0 0 1-4.03.74l-.3.56a36 36 0 0 1-1.83 2.83 36 36 0 0 1-5.96 6.38l.45 3.64a15 15 0 0 0 .59 3.03c.87 2.5 5.25 3.6 8.25 4.83-7.27 7.45-17.72 10.13-27.58 9.48a26 26 0 0 1-9.86-2.43 16 16 0 0 1-7.65-7.1c2.47-.8 6.71-1.88 9-2.72 1.51-.43 3.45-1.29 3.7-2.97a21.6 21.6 0 0 1-10.62-5.47c-4.47-4.02-6.21-10.1-6.63-16.77-.25-3.85-.42-8.02-.77-12.2 0 0-4.26-17.83 19.63-17.83 29.9 0 32.8 21.96 32.8 21.96" class="a"/><path d="M295.75 177.02c.15 4.91.21 14.72.29 19.1.46 27.82.2 108.95.3 120.2-3.7 1.56-8.37 3.6-14.16 3.75-6.92.16-16.09-1.77-19.53-4a31 31 0 0 1-9.96 1.72c-3.06-.04-10.87-.79-13.24-2.43l-.66-.46c-2.2-16.74-8-99.91-9.58-124.44" style="fill:#3d8dcc"/><path d="M227.2 190.46c.7 10.55 1.73 21.09 2.52 31.63l2.3 30.96c1.38 18.44 2.74 36.88 4.23 55.3a31 31 0 0 0 .54 5.44c.86 3.17 3.76 4.32 6.68 4.97a46 46 0 0 0 8.37 1.01 25 25 0 0 0 7.06-.82c2.5-.6 1.44-4.47-1.07-3.86a20 20 0 0 1-5.6.7 42 42 0 0 1-6.57-.65c-1.79-.33-4.74-.57-5.08-2.77-.21-1.4-.23-2.84-.35-4.25q-.95-11.8-1.84-23.62-2.28-29.95-4.49-59.91c-.84-11.38-1.95-22.75-2.7-34.13-.16-2.55-4.16-2.57-4 0m25.52 14.61c1.14 14.26 2.18 28.53 3.24 42.8l3.6 48.55q.75 10.07 1.57 20.15c.21 2.55 4.21 2.57 4 0-1.1-13.5-2.09-27.03-3.1-40.54l-3.64-49.18q-.82-10.89-1.67-21.78c-.2-2.55-4.2-2.57-4 0" class="c"/><path d="M293.75 177.02c.4 23.16.54 46.33.56 69.5.03 21.26-.03 42.52 0 63.79 0 1.8.45 4.17-1.39 5.23a20 20 0 0 1-4.65 1.61 26 26 0 0 1-5.62.9 47 47 0 0 1-11.14-1.04q-2.43-.48-4.83-1.14a6 6 0 0 1-2.54-1.17c-2.12-1.48-4.12 1.99-2.02 3.46 2 1.4 4.39 1.86 6.75 2.38a64 64 0 0 0 10.25 1.47 32 32 0 0 0 10.62-1.1c2.96-.84 6.47-1.78 7.89-4.8.86-1.84.68-3.84.68-5.8v-19.92c.01-25.27.05-50.54-.1-75.81q-.1-18.79-.46-37.57c-.05-2.57-4.05-2.58-4 0Zm-43.66 158.3c-2.05-7.4-7.86-14.4-16.14-14.26-4.04.07-8.04 1.89-11.46 3.93a20.5 20.5 0 0 0-7.38 7.58c-1.52 2.68-2.74 5.78-1.8 8.89a8.7 8.7 0 0 0 4.7 5.17c5.05 2.45 11.24 2.41 16.72 1.97a57 57 0 0 0 8.33-1.23 41 41 0 0 0 13.59-6.07c2.12-1.43.12-4.9-2.02-3.45a37 37 0 0 1-10.1 5 49 49 0 0 1-6.97 1.46c-4.83.61-10.07.87-14.7-.2a10 10 0 0 1-4.86-2.31 4 4 0 0 1-.93-1.75l-.07-.36c0 .04.03.31.01.07a7 7 0 0 1-.02-.78 5 5 0 0 1 .22-1.42 16 16 0 0 1 5-7.5 24 24 0 0 1 8.53-4.48 10.8 10.8 0 0 1 9.76 1.64 17 17 0 0 1 5.74 9.16c.68 2.48 4.54 1.43 3.85-1.06" class="c"/><path d="M291.4 334.24a21.6 21.6 0 0 0-20.82-9.6 17.6 17.6 0 0 0-10.7 5.28 32 32 0 0 0-3.58 5.08 30 30 0 0 0-2.8 5.77c-1.23 3.57-1.4 7.81 1.34 10.72 2.28 2.4 5.8 3.28 8.98 3.48a46 46 0 0 0 24.4-5.76 80 80 0 0 0 12.5-8.3 7.2 7.2 0 0 0 2.34-5.63 8 8 0 0 0-3.1-5.82c-1.97-1.62-4.82 1.2-2.83 2.83a4.2 4.2 0 0 1 1.92 3.38c-.14 1.74-1.07 2.35-2.37 3.32a89 89 0 0 1-9.5 6.23 47 47 0 0 1-9.27 4.08 43 43 0 0 1-10.42 1.63c-2.78.13-5.8.22-8.32-1.15-2.32-1.26-2.86-3.4-2.37-5.92.68-3.52 2.74-6.63 4.71-9.55a13 13 0 0 1 6.85-5.1 17.6 17.6 0 0 1 19.59 7.05 2.06 2.06 0 0 0 2.73.72 2 2 0 0 0 .72-2.74" class="c"/><path d="M253.73 336.56a105 105 0 0 0 9.75-4.76 2 2 0 0 0 .72-2.73 2.05 2.05 0 0 0-2.74-.72l-4.4 2.33q-1.1.56-2.21 1.09l-1.21.54q-.32.14 0 0l-.32.13-.66.26a2.05 2.05 0 0 0-1.4 2.47 2 2 0 0 0 2.46 1.4Z" class="c"/><path d="M149.85 341.14c-2.94-27.26-29.58-312.98-30.2-319.63H18.17c2.51 25.6 28.15 299.7 29.97 319.63z" class="a"/><path d="M151.85 341.14c-.53-4.96-1-9.92-1.5-14.88q-1.3-13.32-2.56-26.65-1.7-17.71-3.37-35.43l-3.9-41.2-4.13-43.99-4.11-43.76-3.8-40.53-3.2-34.31-2.35-25.09-1.2-12.85-.09-.94a2.05 2.05 0 0 0-2-2H18.18a2 2 0 0 0-2 2q.69 7.06 1.35 14.11l2.42 25.62 3.21 34.11 3.75 39.89 4.01 42.86 4.05 43.22 3.78 40.42 3.27 35 2.5 26.77 1.46 15.75.17 1.87a2.05 2.05 0 0 0 2 2h101.7c2.58 0 2.58-4 0-4H48.15l2 2-1.17-12.62-2.28-24.43-3.1-33.26-3.69-39.36-3.99-42.67-4.06-43.34-3.83-40.86-3.37-35.77q-1.3-13.93-2.63-27.87L20.4 23.78l-.22-2.26-2 2h101.46l-2-2q.45 4.7.88 9.42l2.1 22.39 3.02 32.34 3.68 39.3 4.05 43.25 4.16 44.2 3.98 42.16q1.75 18.56 3.52 37.11l2.79 29.07q.86 9 1.78 18.01l.25 2.37c.27 2.54 4.27 2.56 4 0M23.9 159.08l-2.35 18.06-5.3 40.7-6.5 49.72Q6.8 290.13 3.81 312.7l-1.2 8.98-.53 4-.13.94-.06.47c.08-.54 0-.02 0 .07l-.24 1.76q-.7 5.15-1.42 10.29l-.2 1.39a2.03 2.03 0 0 0 1.93 2.53h35.56c2.57 0 2.57-4 0-4H1.95l1.93 2.53c1.2-8.02 2.2-16.08 3.28-24.12q2.9-21.77 5.74-43.55 3.29-25.07 6.56-50.15L25 181.28l2.81-21.64.08-.55a2 2 0 0 0-2-2 2.05 2.05 0 0 0-2 2Z" class="c"/><path d="M292.51 153.03a16 16 0 0 1 1.64-.28 6 6 0 0 1 5.14 3.18 17.3 17.3 0 0 1 1.3 8.86c-.46 3.7-2.33 8.47-5.3 11.3a3 3 0 0 1-1.65.35 4 4 0 0 1-2.23-1.05l-1.66-1.52-1.37-11.38q-1.18-.13-2.32-.3a4 4 0 0 1-1.66-.7 2.2 2.2 0 0 1-.78-2.28 5 5 0 0 1 1.4-2.09 15.6 15.6 0 0 1 7.5-4.09" class="a"/><path d="M283.56 8.41a29 29 0 0 0-19.1-6.38c-9.94.11-18.08 3.64-23.68 9.74a30.6 30.6 0 0 0-6.68 13.41 49 49 0 0 0-.37 16.28l.19-.9c.56-2.73 6.03-10.12 9.87-12.15.45-.24 1.03.08 1.22.84a5 5 0 0 1 .12 1.8.94.94 0 0 0 1.35 1c2.74-1.52 8.06-5.83 13.8-6.9l5.24.9c1.66.72 9.33 3.63 14.78 14.04l5.94 3.82a4.2 4.2 0 0 1 3.08-.53 3.8 3.8 0 0 1 3.05 2.33s.18.43.43 1.06c2.1-3.64 2.57-10.1 2.86-12.9a26 26 0 0 0-.42-8.04c-1.1-5.26-2.91-9.6-6.81-13.5Z" style="fill:#85807f"/><path d="M287.01 13.74a25 25 0 0 1 6.79 17.29 48 48 0 0 1-.7 7.67 20 20 0 0 1-2.25 7.42c-1.36 2.2 2.1 4.2 3.45 2.02a23 23 0 0 0 2.71-8.7 52 52 0 0 0 .78-8.89 29.2 29.2 0 0 0-7.95-19.63c-1.81-1.84-4.64.99-2.83 2.82m-22.5 14.05a30 30 0 0 1 4.08 2.08q.77.48 1.5 1.01l.45.34-.09-.07.2.15.86.72a30 30 0 0 1 3.4 3.49 27 27 0 0 1 1.79 2.43 37 37 0 0 1 1.86 3.16 2 2 0 1 0 3.46-2.02 32 32 0 0 0-13.57-13.88q-.95-.46-1.92-.87a2.07 2.07 0 0 0-2.74.72 2 2 0 0 0 .72 2.74m-28.66 13.3c.41-1.8 1.99-3.93 3.29-5.59a32 32 0 0 1 2.87-3.2 18 18 0 0 1 1.47-1.3q.22-.19.48-.35l.42-.28q.48-.24-.11-.02l-1.01-.27q-.3-.6-.11-.03a5 5 0 0 1 0 .68 4 4 0 0 0 .17 1.46 2.9 2.9 0 0 0 2.59 1.97c1.52.07 3-1.25 4.22-2.04 3.33-2.17 6.74-4.26 10.69-5.05 2.52-.5 1.45-4.36-1.06-3.86a28 28 0 0 0-8.35 3.4 75 75 0 0 0-3.3 2.06l-1.38.9-.67.41-.2.13q-.65.32.57.06l.72.72q-.03.33 0 0l.01-.33a8 8 0 0 0-.06-.9 4.5 4.5 0 0 0-.66-2.03 2.8 2.8 0 0 0-3.65-.95 17 17 0 0 0-4.52 3.72 39 39 0 0 0-4.07 5.15 14 14 0 0 0-2.21 4.47c-.58 2.5 3.28 3.58 3.86 1.06" class="c"/><path d="M284.57 6.69A32 32 0 0 0 268.6.22a38 38 0 0 0-15.56 1.56 32 32 0 0 0-12.71 7.57 31 31 0 0 0-7.9 14.15 46.5 46.5 0 0 0-.57 18.9 2 2 0 0 0 2.46 1.4 2.05 2.05 0 0 0 1.4-2.45c-1.53-9.52-.27-20.77 6.47-28.16 6.21-6.81 15.5-9.57 24.53-9.12a28.3 28.3 0 0 1 15.82 6.07 2 2 0 0 0 2.74-.72 2.05 2.05 0 0 0-.72-2.73M250.15 63.5a10 10 0 0 0 4.58 1.22 10 10 0 0 0 2.38-.2 6 6 0 0 0 .95-.3l.9-.38.25-.1c-.5.23-.08.03.02 0a2.2 2.2 0 0 0 1.2-.93 2 2 0 0 0 .2-1.54 2 2 0 0 0-2.47-1.4l-.85.35-.25.11c-.03.01-.43.19-.12.06.27-.12 0 0-.06.02l-.64.2-.45.1.21-.03-.21.02a8 8 0 0 1-.95.02l-.46-.02c-.1-.01-.6-.07-.25-.02s-.14-.03-.24-.05a9 9 0 0 1-1.17-.3l-.18-.08-.38-.2a2 2 0 1 0-2.02 3.45Zm10.1-15.86c-.3-1.37.22-4.42 2.78-4.48 3.35.3 3.22 4.03 1.95 5.69-1.04 1.35-3.8 1.73-4.72-1.2m-19.92-.99c-.28-1.37.21-4.44 2.55-4.5 3.07.27 2.94 4.02 1.77 5.69-.96 1.36-3.5 1.75-4.32-1.19m9.59 3.33q-.69 1.02-1.29 2.11a4 4 0 0 0-.45 1.06 3 3 0 0 0 0 1.31 3 3 0 0 0 .6 1.06 3.4 3.4 0 0 0 1.39.9 4 4 0 0 0 1.03.19l-.53-.07.13.02a2 2 0 0 0 1.54-.2 2 2 0 0 0 .72-2.73 2 2 0 0 0-1.2-.92q-.36-.07-.73-.1l.53.07a2 2 0 0 1-.43-.11l.48.2-.27-.16.4.32-.26-.27.3.4-.04-.08.2.48-.02-.1.07.53v-.15l-.07.53.08-.27-.2.48a11 11 0 0 1 .73-1.31q.36-.6.75-1.18a2 2 0 0 0-2.26-2.93 2.2 2.2 0 0 0-1.2.92m25 21.04a37 37 0 0 0 6.1-5.85 33 33 0 0 0 3.45-4.9 2 2 0 1 0-3.45-2.02 27 27 0 0 1-1.52 2.36l-.42.6-.25.32c-.14.2.2-.25-.03.05l-.61.76a36 36 0 0 1-2.46 2.71q-.68.68-1.4 1.31-.4.36-.82.7l-.43.35c-.06.05-.48.38-.18.16a2.2 2.2 0 0 0-.92 1.19 2 2 0 0 0 .2 1.54 2 2 0 0 0 2.73.72Z" class="c"/><path d="M267.76 70.04c-6.56 2.63-14.09 3.9-20.62.46a18.5 18.5 0 0 1-7.38-6.67 24 24 0 0 1-2.98-9.63c-.53-4.78-.56-9.63-.96-14.42-.21-2.55-4.21-2.57-4 0 .7 8.43-.06 17.76 4.12 25.44 3.74 6.85 11.47 11.04 19.13 11.37a33 33 0 0 0 13.75-2.69 2.06 2.06 0 0 0 1.4-2.46 2 2 0 0 0-2.46-1.4m19.5-24.4a2 2 0 0 1 1.2-.34l.43.02q-.3-.03.13.05c.09.02.8.28.55.16.09.04.7.45.35.17q.23.2.43.42c-.48-.47.34.36.22.42q-.22-.54-.07-.13l.11.36c.02.08.13.8.1.45a10 10 0 0 1 0 1.72 1 1 0 0 1-.05.36 13 13 0 0 1-.42 1.73c-.02.07-.28.77-.17.5a12 12 0 0 1-1.33 2.32l-.23.32q.17-.22-.06.06l-.56.62a7 7 0 0 1-1.2 1l-.74.43c-.32.2.42-.13-.01 0q-.68.22-1.37.37-.36.06-.07.02l-.41.03q-.42.02-.84 0-.38-.03-.1 0a5 5 0 0 1-.81-.2q.23.1-.09-.06a2.05 2.05 0 0 0-2.74.72 2 2 0 0 0 .72 2.74 8.6 8.6 0 0 0 6.84.21 11.4 11.4 0 0 0 5.33-4.55c2.18-3.3 3.71-8.86.83-12.22a6.5 6.5 0 0 0-8-1.16c-2.2 1.32-.2 4.78 2.02 3.45Zm-14.32 22.74c.25 2.06.39 4.18.82 6.22a6.5 6.5 0 0 0 2.59 4 16 16 0 0 0 3.85 1.96l1.98.75q.45.15.88.33l.42.16.27.11q-.38-.16-.08-.03a2.06 2.06 0 0 0 2.74-.72 2 2 0 0 0-.72-2.74c-1.25-.54-2.54-1-3.81-1.48l-.91-.36c-.51-.2.37.17-.12-.05q-.23-.09-.44-.2a12 12 0 0 1-1.59-.86c-.1-.06-.28-.15-.34-.24l.19.14-.21-.17c-.08-.07-.44-.54-.53-.55.12 0 .25.38.03 0-.1-.16-.33-.32 0 .05a3 3 0 0 1-.34-1.17 21 21 0 0 1-.33-2.25l-.35-2.9a2.05 2.05 0 0 0-2-2c-.98.04-2.14.88-2 2" class="c"/><path d="M239.6 81.87c2.55-.84 5.17-1.48 7.74-2.3 2.54-.8 5.88-1.78 6.44-4.83a2 2 0 1 0-3.86-1.06l-.1.4c0 .2.15-.3-.02.01-.18.36.15-.09-.01.04l-.28.28c-.25.25.14-.05-.05.04l-.35.22c-.18.12-.25.13-.37.2-.17.08-.32.14-.06.03-1 .4-2.05.71-3.08 1.03-2.35.72-4.73 1.32-7.07 2.09a2 2 0 0 0 1.06 3.85Zm44.27-.33a31 31 0 0 1 8.83 4 37 37 0 0 1 7.87 6.34 30 30 0 0 1 5.43 9.4 56 56 0 0 1 2.97 11.44 111 111 0 0 1 1.1 13.16l3.92-.53-.05-.26c-.46-2.21-3.99-1.71-3.93.53a208 208 0 0 1-.5 20.3c-.26 3.63-.6 7.26-1.2 10.85a31 31 0 0 1-2.21 8.38 11 11 0 0 1-3.85 4.85 36 36 0 0 1-3.52 1.9c-2.32 1.1-.3 4.54 2.02 3.44 3-1.42 5.56-3 7.46-5.8a26 26 0 0 0 3.57-9.52 140 140 0 0 0 2.19-23.28q.17-5.55.04-11.12l-3.93.54.06.26c.46 2.2 4.01 1.71 3.93-.54-.31-8.38-1.02-16.94-3.92-24.88a38 38 0 0 0-5.94-11 37 37 0 0 0-8.06-6.98 36 36 0 0 0-11.22-5.33c-2.5-.62-3.56 3.24-1.06 3.86Z" class="c"/><path d="M238.53 78.02c-2.93 1.03-5.9 1.98-8.73 3.25a26 26 0 0 0-7.08 4.75 2 2 0 0 0 2.83 2.83 19 19 0 0 1 2.95-2.34 25 25 0 0 1 3.32-1.78l.37-.17c.59-.26-.17.07.17-.07l.86-.35 1.92-.7q2.23-.8 4.45-1.57a2.05 2.05 0 0 0 1.4-2.46 2 2 0 0 0-2.46-1.4Z" class="c"/><path d="M237.47 81.03c3.38 6.4 10.54 9.45 17.41 10.25a40.4 40.4 0 0 0 19.99-2.7 33 33 0 0 0 9.86-6.3c1.9-1.75-.94-4.58-2.83-2.83-5.63 5.2-13.16 7.76-20.75 8.05-7.4.3-16.43-1.31-20.23-8.49-1.2-2.28-4.66-.26-3.45 2.02" class="c"/><path d="M194.93 195.83a64 64 0 0 1-9.26-1.96 5 5 0 0 1-3.02-1.76c-.72-1.1-.53-2.54-.3-3.83l9.67-56.16c1.54-8.9 3.07-17.8 4.84-26.66a12 12 0 0 1 1.66-3.68 10 10 0 0 1 2.58-2.08c4-1.97 7.52-3.62 11.52-5.6l37.1-5.61h6.34c6.49-.11 12.37 4.3 15.82 9.8s4.91 11.97 6.32 18.3l13.5 60.87a3.55 3.55 0 0 1-1.87 4.72l-9.82 6.67c-.82.56-2.26.9-2.5-.04l-3.86 1.37a7 7 0 0 1-1.6 5.9c-1.85 2.2-5.12 3.86-6.89 4.7a101 101 0 0 1-26.57 8.44c-1.82.3-3.65.57-5.5.71a45 45 0 0 1-28.12-7.3 7.4 7.4 0 0 1-2.67-2.6 8 8 0 0 1-.6-3.55Z" style="fill:#ffda71"/><path d="M248.14 93.31a7 7 0 0 0 .85-1.13c3.75-6.23-5.35-7.9-9.53-5.63a3 3 0 0 0-1.19.97 4 4 0 0 0-.7 1.9 12 12 0 0 0 .73 4.04c1.48 4.93 7.14 2.83 9.84-.15" class="a"/><path d="M249.55 94.73c2.16-2.44 3.35-6.01.96-8.72-1.7-1.9-4.67-2.5-7.1-2.42a11 11 0 0 0-3.75.7 8 8 0 0 0-2.38 1.33 5.4 5.4 0 0 0-1.57 2.78 9 9 0 0 0 .14 3.7 13 13 0 0 0 .98 3.06 5.5 5.5 0 0 0 3.55 3.04c3.3.88 6.98-1.1 9.17-3.47a2 2 0 0 0-2.83-2.83q-.27.3-.56.57c-.09.08-.54.56-.64.54 0 0 .4-.3.1-.08l-.16.12-.33.21q-.38.25-.78.47l-.35.17c-.08.04-.47.18-.17.09l-.24.08-.41.14-.77.18c-.36.08.42-.03.06 0l-.4.01h-.4c-.35 0 .42.1.09.01l-.32-.07-.16-.04c-.35-.09.08-.03.13.06-.02-.02-.59-.3-.57-.32.04-.03.39.35.01 0-.05-.06-.21-.3-.28-.3.03 0 .23.33.13.15l-.1-.16-.22-.4-.1-.18s.13.37.07.14l-.18-.55a13 13 0 0 1-.37-1.29l-.12-.6-.05-.3c.04.28 0-.08 0-.19q-.03-.3-.04-.61v-.31c0-.06.04-.3 0-.07-.06.26.01-.04.03-.07l.1-.34c-.12.33.1-.12.16-.22l.13-.2c.06-.12.11-.1-.01-.01-.28.18.1 0 .05-.02.02 0-.41.26.01 0l.73-.38c.37-.2-.37.13-.06.02l.29-.1q.35-.13.72-.22l.64-.14a1 1 0 0 0 .33-.05c-.26.14-.42.05-.2.03q.11 0 .23-.03a11 11 0 0 1 1.47-.04q.37.02.73.06c.4.03-.2-.04-.08-.01l.38.06a10 10 0 0 1 1.38.4c.36.12-.2-.1-.1-.05q.15.06.27.13.3.15.58.34c.34.22-.27-.26-.07-.05l.27.24.2.23c.13.12-.17-.23-.17-.23 0 .06.1.14.12.19l.14.27c.14.22-.13-.48-.05-.12l.09.35c.06.16-.04-.3-.04-.3l.02.19v.34l-.01.2c0 .22.1-.43.02-.22-.09.27-.14.56-.23.83-.1.3.18-.36-.02.05l-.22.43-.36.58s-.2.26-.09.13l-.24.27a2 2 0 1 0 2.83 2.83Zm-49.74 29.4q-.57 30.06-.27 60.13l.09 7.74a46 46 0 0 0 .27 7.04c.7 4.17 5.46 6.4 8.88 8.1a47 47 0 0 0 25.23 4.72 95 95 0 0 0 26.87-6.99c3.68-1.53 7.5-3.11 10.67-5.59a11 11 0 0 0 3.67-4.7 10 10 0 0 0 .29-5.31q-.19-1.14-.35-2.3l-.34-2.51q-.44-3.55-.84-7.11-.98-8.82-1.82-17.66c-1-10.42-2.01-20.85-2.66-31.3l-.1-2.06c-.13-2.56-4.13-2.57-4 0 .41 9.13 1.35 18.26 2.2 27.35a834 834 0 0 0 3.38 31.99c.22 1.68.53 3.36.73 5.05.47 3.83-3.05 6-6 7.56a91 91 0 0 1-24.05 8.34c-8.4 1.74-16.71 2.03-24.98-.58a41 41 0 0 1-11.02-5.35c-1.62-1.12-1.93-2.3-1.96-4.2q-.07-3.61-.1-7.24-.36-28.94.09-57.88.05-3.62.12-7.23c.05-2.58-3.95-2.58-4 0Z" class="c"/><path d="M211.61 92.37c-3.68 1.82-7.4 3.56-11.08 5.38a10.6 10.6 0 0 0-5.5 6.85c-.56 1.9-.81 3.94-1.18 5.89q-.6 3.15-1.17 6.3-1.15 6.42-2.25 12.86-4.46 25.84-8.9 51.7c-.4 2.32-.85 4.65-1.2 6.99-.31 2.05-.24 4.2 1.36 5.72 1.5 1.43 3.8 1.88 5.74 2.36a66 66 0 0 0 6.97 1.34 2.07 2.07 0 0 0 2.46-1.4 2 2 0 0 0-1.4-2.47 67 67 0 0 1-5.6-1q-1.38-.32-2.75-.7a7 7 0 0 1-2.44-.85c-1.09-.81-.33-2.91-.14-4.01l1.02-5.91 4.15-24.14c2.76-15.98 5.34-32 8.42-47.9.59-3.05.9-6.22 3.84-7.88 3.74-2.13 7.81-3.78 11.67-5.68 2.3-1.14.28-4.59-2.02-3.45m13.13-18.9c-.13-2.84 3.3-3.99 5.53-2.81a4.7 4.7 0 0 1 1.9 6.07c-.67 1.45-1.91 2.36-2 4.1a12 12 0 0 0 .89 4c.71 2.24 1.6 4.43 2.27 6.68.74 2.46 4.6 1.41 3.86-1.06-.63-2.08-1.43-4.1-2.1-6.16q-.25-.72-.46-1.47a6 6 0 0 1-.46-1.8 3 3 0 0 1 .78-1.24 8 8 0 0 0 1.06-1.9 9.1 9.1 0 0 0-.81-8.04 8.3 8.3 0 0 0-7.98-3.6c-3.61.55-6.65 3.45-6.49 7.23.12 2.57 4.12 2.58 4 0Z" class="c"/><path d="M236.17 88.58a25 25 0 0 1-3.52.9 2 2 0 0 0-1.2.92 2 2 0 0 0 .72 2.74l.48.2a2 2 0 0 0 1.06 0 25 25 0 0 0 3.53-.9 2 2 0 0 0 1.2-.92 2 2 0 0 0 .2-1.54 2 2 0 0 0-2.46-1.4Z" class="c"/><path d="M226.97 83.5a29 29 0 0 1 4.99 5.84 3.6 3.6 0 0 1 .64 2.63c-.9 2.93-3.34 3.4-5.93 2.2-.68 2.54-3.4 3.67-5.75 4.19a.6.6 0 0 0-.38.21 4.1 4.1 0 0 1-2.48 3.1 6.3 6.3 0 0 1-8.83-4.49 8.3 8.3 0 0 1 2.2-8.14 29 29 0 0 0 3.08-4.1c2.36-2.68 6.3-4.77 9.59-3.25a13 13 0 0 1 2.87 1.81" class="a"/><path d="M225.55 84.92a30 30 0 0 1 2.89 2.98 11 11 0 0 1 2.11 3.05 1.5 1.5 0 0 1-.82 1.76 3 3 0 0 1-2.05-.25 2.04 2.04 0 0 0-2.94 1.2c-.92 2.98-5.34 1.76-6.17 4.56-.7 2.35-3.8 2.55-5.58 1.28-2.08-1.49-2.55-4.7-1.59-6.96.6-1.41 1.84-2.38 2.75-3.58a25 25 0 0 1 2.63-3.47 8.3 8.3 0 0 1 4.27-2.26 6 6 0 0 1 4.5 1.7c1.95 1.65 4.8-1.17 2.83-2.84-3.01-2.56-6.6-3.67-10.36-2.1a14 14 0 0 0-4.45 3.04c-1.23 1.24-1.93 2.88-3.1 4.16a13 13 0 0 0-2.98 4.45 11 11 0 0 0-.33 5.34 8.7 8.7 0 0 0 6.13 7.02c3.68 1 8.4-.85 9.17-4.89l-.51.88.16-.14-.88.52c3.2-1.03 6.27-2.11 7.37-5.65l-2.94 1.2a7.4 7.4 0 0 0 5.14.64 5.6 5.6 0 0 0 3.62-3.72c.71-2.28-.48-4.26-1.8-6.04a32 32 0 0 0-4.24-4.7c-1.9-1.74-4.74 1.08-2.83 2.82m49.46 109.4c3.71-2.08 7.2-4.54 10.71-6.93 2.08-1.41 4.28-2.73 6.24-4.3 1.92-1.56 2.19-3.64 1.7-5.96-2.17-10.48-4.63-20.91-6.95-31.36s-4.6-20.94-6.96-31.4c-1.93-8.56-4.55-17.7-11.7-23.4a19.3 19.3 0 0 0-12.07-4.49h-6.26c-2.58 0-2.58 4 0 4h5.57a15.3 15.3 0 0 1 8.18 2.13c7.23 4.35 10.03 12.73 11.89 20.5 2.28 9.57 4.29 19.23 6.42 28.85l6.53 29.46.92 4.14c.23 1.05.87 2.54.71 3.62-.12.87-1.28 1.38-1.94 1.83l-3.48 2.36c-3.79 2.58-7.53 5.25-11.53 7.5-2.24 1.26-.23 4.72 2.02 3.46Z" class="c"/><path d="M292.51 153.03a16 16 0 0 1 1.64-.28 6 6 0 0 1 5.14 3.18 16 16 0 0 1 1.38 5.94 17 17 0 0 1-.09 2.92c-.45 3.7-7.62-1.63-12.2-2.3q-1.18-.13-2.32-.3a4 4 0 0 1-1.66-.7 2.2 2.2 0 0 1-.77-2.28 5 5 0 0 1 1.39-2.09 15.6 15.6 0 0 1 7.5-4.09" class="a"/><path d="M291.66 160.8a44 44 0 0 1-5.07-.55c-.33-.06-1-.25-1.03-.4-.1-.5.7-1.15 1-1.45a14 14 0 0 1 3.88-2.6 10 10 0 0 1 4.04-1.06c2.87.2 3.75 3.48 4.07 5.8a17 17 0 0 1-1.18 8.69 17 17 0 0 1-2.32 4.17c-.53.67-.72 1.04-1.54 1.03-.5 0-1.3.15-1.7-.13a2 2 0 0 0-2.73.72 2.04 2.04 0 0 0 .72 2.73 5 5 0 0 0 3 .67 7 7 0 0 0 3.17-.45c1.86-.91 3.25-3.42 4.16-5.2a21.6 21.6 0 0 0 2.35-12.77c-.57-4.21-2.58-8.46-7.24-9.16-2.28-.34-4.78.56-6.82 1.5a16 16 0 0 0-5.44 4.03c-1.77 2.13-2.05 5.32.55 6.94a9 9 0 0 0 3.95 1.07q2.08.25 4.17.42c2.57.22 2.55-3.78 0-4Z" class="c"/></svg>
