<svg xmlns="http://www.w3.org/2000/svg" viewBox="-4.11 0 315.812 315.812"><defs><style>.a{fill:#fff}.c{fill:#211715}</style></defs><path d="M210.56 97.38a9 9 0 0 1 6.6-2.42c4.73.17 6.74 2.72 7.6 4.23 2.59 4.48 2.48 12.74.74 17.85-1.22 3.62-3.24 9.15-8.09 13.13a10 10 0 0 1-7.75 2.23l-.75-.12a59 59 0 0 1-2.67 7.24c-1.86 5.06-11.72 22.14-24.45 30.16a66 66 0 0 0 1.14 9.31c.7 3.66 1.87 7.1 6.1 8.75.26.1 9.06 3.89 13.82 5.92-9.47 7.21-29.86 14.69-47.82 14.64-19.82-.04-37.96-8.09-49.34-15.52 5.36-2.25 11.79-4.97 12-5.04 4.08-1.67 5.38-5.1 6.1-8.75a63 63 0 0 0 1.08-8.1c-5.9-3.04-11.24-7.67-16.35-13.78a69 69 0 0 1-13.16-24.84 9.9 9.9 0 0 1-8.4-2.1c-4.85-3.97-6.86-9.5-8.1-13.13-1.72-5.1-1.83-13.37.75-17.85.87-1.5 2.88-4.06 7.6-4.23a9.2 9.2 0 0 1 6.6 2.42s-14.04-50.73 61.07-50.73c64.24 0 55.68 50.73 55.68 50.73" class="a"/><path d="M205.23 28.95c18.08 14.36 21.2 43.64 15.18 66.6a11 11 0 0 0-3.25-.59 9 9 0 0 0-6.66 2.48c-5.43-6.37-6.26-18.62-8.07-25.27-1.72-6.35-8.63-9.73-20.63-12.36a52 52 0 0 0-10.03-1.1 87 87 0 0 0-12.34.52c-3.8.56-11.4 1.93-11.4 1.93-7.6-5.21-21.17-5.21-30.83-.54l5.53 3.49c-12.83 5.84-20.2 16.77-24.04 30.94 0 0-2.44 2.7-5 2.21a9.2 9.2 0 0 0-6.48-2.3 11 11 0 0 0-2.57.38c-9.03-26.37.4-58.38 18.56-74.01 9.72-8.6 27.78-19.66 50.43-18.45 20.48.82 35.71 8.25 44.38 18.32Z" style="fill:#85807f"/><path d="M99.29 198.41c1.42-.45 2.8-1.12 4.17-1.69q3.79-1.57 7.56-3.17l6.25-2.62c2.53-1.06 4.8-2.21 6.5-4.47 2.9-3.87 3.34-9.47 3.79-14.12a2.8 2.8 0 0 0-2.8-2.8 2.86 2.86 0 0 0-2.8 2.8 56 56 0 0 1-.98 6.4 11 11 0 0 1-1.66 4.37 6 6 0 0 1-1.23 1.24 9 9 0 0 1-1.1.65c-1.04.56.16-.05-.12.07l-1.35.56q-6.56 2.77-13.14 5.52c-1.5.63-3.02 1.36-4.58 1.86-3.42 1.1-1.96 6.5 1.49 5.4m79.91-25.82c.41 4.12.82 8.68 2.75 12.42a11.4 11.4 0 0 0 3.79 4.18c.9.61 2.03.83 2.93 1.41-.26-.17-.7-.3-.22-.09l.4.17 1.25.53 3.07 1.32 6.98 3c1.64.7 3.27 1.47 4.93 2.1a2.8 2.8 0 0 0 3.45-1.95 2.86 2.86 0 0 0-1.96-3.45l-.29-.11c-.5-.2.62.26.26.1l-.44-.18-2.35-1-6.44-2.77q-2.78-1.2-5.57-2.38c-1.64-.7-3.16-1.25-4.24-2.53.07.08.24.34-.1-.15l-.33-.5c-.16-.28-.47-.88-.51-.99a18 18 0 0 1-.67-2.26 53 53 0 0 1-1.09-6.87 2.9 2.9 0 0 0-2.8-2.8 2.8 2.8 0 0 0-2.8 2.8m33.34-73.23a7 7 0 0 1 8.34-.45c.38.25-.06-.12.34.28l.57.58.27.33c-.06-.08-.3-.48-.08-.09.1.2.25.39.36.59a13 13 0 0 1 1.37 4.34c1.04 6.39-.8 13.18-4.13 18.52-1.87 3-5.2 6.81-9.18 6.24a2.9 2.9 0 0 0-3.45 1.96c-.36 1.31.45 3.23 1.96 3.44 10.5 1.5 16.55-8.9 19.34-17.47a30 30 0 0 0 .92-13.82c-.58-3.75-2.1-7.31-5.24-9.58-4.57-3.29-11.3-2.54-15.35 1.16-2.67 2.44 1.3 6.4 3.96 3.96M93.97 129.7c-3.46.49-6.52-2.45-8.36-5.01a30 30 0 0 1-4.05-8.4A25 25 0 0 1 80.52 106a16 16 0 0 1 1.11-4.68c-.1.22.27-.5.32-.6l.34-.56c.37-.6-.15.09.15-.23l.62-.66.37-.33c-.23.2-.11.08.06-.03a7 7 0 0 1 1.12-.64 9 9 0 0 1 2.18-.5 6.6 6.6 0 0 1 5.04 1.58c2.67 2.42 6.64-1.53 3.96-3.96a12.7 12.7 0 0 0-14.28-1.82c-3.33 1.71-5.2 5.12-6.01 8.66a32.6 32.6 0 0 0 5.06 24.98c3.49 5.06 8.5 8.8 14.9 7.9 1.5-.22 2.32-2.13 1.96-3.45a2.87 2.87 0 0 0-3.45-1.96" class="c"/><path d="M207.31 127.25a56 56 0 0 1-2.17 7.53c-.7 1.95-1.2 2.77-1.85 4.63-.11.33.33-.7.1-.22l-.16.35-.31.66q-.45.94-.95 1.87a76 76 0 0 1-2.33 4.07 72 72 0 0 1-15.61 18.51 29 29 0 0 1-11.7 6.08c-3.52.8-2.03 6.2 1.48 5.4 8.87-2.03 16.25-8.55 22.02-15.28a79 79 0 0 0 12.27-18.56q.41-.95.8-1.92c-.35.86-.03.11.04-.05l.5-1.15q.35-.86.68-1.73a57 57 0 0 0 2.6-8.7 2.87 2.87 0 0 0-1.96-3.44 2.83 2.83 0 0 0-3.44 1.95Zm-115.82 1.28a73 73 0 0 0 10.37 24.32c5.28 7.91 12.22 15.32 20.63 19.95a41 41 0 0 0 13.65 4.62 2.9 2.9 0 0 0 3.44-1.96c.36-1.32-.45-3.22-1.96-3.44a39 39 0 0 1-20.86-10.28 66 66 0 0 1-16.03-22.7 69 69 0 0 1-3.84-12c-.8-3.51-6.2-2.02-5.4 1.49m49.95 18a23.6 23.6 0 0 0 11.36 2.62c4.06-.02 8.18-.82 11.44-3.35 1.2-.93.97-2.99 0-3.96a2.87 2.87 0 0 0-3.96 0c.84-.66.15-.13-.07 0s-.46.3-.7.42c-.19.1-1.04.44-.3.16q-.49.2-.98.36a17 17 0 0 1-2.74.62l-.3.03-.81.07q-.97.06-1.94.05a25 25 0 0 1-2.54-.13s-.94-.12-.44-.04a19 19 0 0 1-2.55-.57q-.53-.16-1.06-.36l-.34-.13c.7.2.24.11.05.02q-.66-.31-1.3-.65a2.86 2.86 0 0 0-3.83 1 2.83 2.83 0 0 0 1 3.83Zm10.02-26.89a54 54 0 0 1 1.26 5.8l-.1-.75a4 4 0 0 1 .03.8l.1-.75-.1.36.29-.67-.13.23.44-.56-.19.18.57-.43-.46.24.67-.28a3 3 0 0 1-.77.22l.74-.1a3 3 0 0 1-.72 0l.74.1-.81-.14a3 3 0 0 0-2.16.28 2.8 2.8 0 0 0-1 3.83 2.7 2.7 0 0 0 1.67 1.3c.6.07 1.2.23 1.82.25a6 6 0 0 0 2.65-.62 3.8 3.8 0 0 0 2.12-2.51 6 6 0 0 0-.03-2.72 64 64 0 0 0-1.23-5.54 2.8 2.8 0 0 0-5.4 1.49Zm-30.77-16.34c-.96 3.14-.33 10.37 5.62 10.98 7.86-.04 8.28-8.78 5.63-12.89-2.17-3.37-8.54-4.76-11.25 1.91m62.99 0c.96 3.14.33 10.37-5.62 10.98-7.86-.05-8.28-8.78-5.63-12.89 2.17-3.37 8.54-4.76 11.25 1.91m19.57-72.37c14.1 11.3 18.05 30.7 17 48.02a82 82 0 0 1-2.32 15c-.87 3.5 4.53 5 5.4 1.5a89 89 0 0 0 2.34-29.1c-.86-9.6-3.31-19.2-8.28-27.52a44 44 0 0 0-10.18-11.86 2.9 2.9 0 0 0-3.96 0 2.8 2.8 0 0 0 0 3.96M87.1 93.86a68.3 68.3 0 0 1-1.42-35.74c2.44-11 7.3-21.82 14.8-30.19a59 59 0 0 1 5.5-5.31 60 60 0 0 1 5.09-3.97 75 75 0 0 1 14.27-7.96 69 69 0 0 1 38.64-3.96c12.14 2.1 23.98 7.13 32.05 16.44a2.83 2.83 0 0 0 3.96 0 2.86 2.86 0 0 0 0-3.96c-7.63-8.8-18.61-14.23-29.8-16.9-13.83-3.32-28.6-3.23-42.1 1.38a79 79 0 0 0-28.8 17.41c-8.79 8.43-14.72 19.73-17.97 31.38a76 76 0 0 0-.92 38.33q.57 2.3 1.3 4.54c1.1 3.41 6.52 1.95 5.4-1.49" class="c"/><path d="M166.1 57.3c-3.79-8.35-13.16-13.17-22.04-13.45a2.8 2.8 0 0 0 0 5.6c7.05.22 14.2 4.06 17.2 10.68a2.8 2.8 0 0 0 3.83 1 2.87 2.87 0 0 0 1-3.83Zm-16.65 1.44c-4.66-3.13-10.51-4.29-16.06-4.36a40 40 0 0 0-17.6 3.82c-1.99.95-1.64 3.8 0 4.84l5.53 3.48V61.7a43 43 0 0 0-16.3 13.21A57 57 0 0 0 96 94.3l.72-1.23a3.6 3.6 0 0 1-2.53 1.45c-3.6.04-3.6 5.64 0 5.6 2.8-.04 6.44-1.86 7.31-4.7a70 70 0 0 1 3.23-9.04 41 41 0 0 1 10.64-14.4 38 38 0 0 1 8.78-5.47c2.01-.92 1.63-3.8 0-4.83l-5.52-3.49v4.84a34 34 0 0 1 14.77-3.06c4.68.06 9.38 1 13.24 3.6a2.8 2.8 0 1 0 2.82-4.84Zm31.61 3.77a64 64 0 0 1 10.9 3.2 24 24 0 0 1 3.92 2.12l.76.55c-.35-.28.3.27.43.38a13 13 0 0 1 1.35 1.43c-.32-.4.1.14.2.3q.23.33.42.7.23.4.42.83c-.23-.51.08.24.14.44a38 38 0 0 1 .97 4.12c.7 3.48 1.28 6.98 2.17 10.42 1.01 3.93 2.39 7.98 4.85 11.26a2.9 2.9 0 0 0 3.83 1 2.8 2.8 0 0 0 1-3.84c-4.3-5.72-5.08-13.45-6.46-20.33-.56-2.83-1.18-5.65-2.93-8.01a19 19 0 0 0-7.24-5.74 60 60 0 0 0-13.25-4.23 2.86 2.86 0 0 0-3.44 1.95 2.83 2.83 0 0 0 1.96 3.45" class="c"/><path d="M34.54 245.6c-5.27 11.87-8.7 24.84-11.83 38.82 39.44-6.48 90.64-9.62 131.08-9.62 40.2 0 91 3.1 130.34 9.5-3.52-15.68-7.4-30.07-13.86-43.09a99 99 0 0 0-6.44-11.15c-12.91-19.3-33.8-28.74-55.14-35.6L203.7 193c-9.05 7.4-30.16 15.35-48.67 15.3-20.15-.05-38.54-8.36-49.9-15.88l-6.95 2.05c-21.34 6.85-42.22 16.28-55.14 35.58a103 103 0 0 0-8.5 15.55" class="a"/><path d="M209.9 258.22c-3.94-1.74-8.24.03-9.69 1.75-1.64 1.94-2.5 5.86-2.14 8.38a36 36 0 0 0 4.03 11.47 10.8 10.8 0 0 0 8.4 5.43s5.29.38 6.62-1.62-7.22-25.4-7.22-25.4m-112.93 0c3.94-1.74 8.23.03 9.69 1.75 1.64 1.94 2.5 5.86 2.14 8.38a36 36 0 0 1-4.03 11.47 10.8 10.8 0 0 1-8.4 5.43s-5.29.38-6.62-1.62 7.22-25.4 7.22-25.4" class="a"/><path d="M103.73 194.84a98 98 0 0 0 38.8 15.23c15.19 2.34 30.57.16 44.9-5.27 6.46-2.45 12.85-5.45 18.25-9.83a2.8 2.8 0 0 0 0-3.96 2.87 2.87 0 0 0-3.96 0c-.1.08-.6.47-.26.22l-.66.49q-.83.6-1.68 1.15-1.66 1.08-3.39 2.03a72 72 0 0 1-7.98 3.8 99 99 0 0 1-20.16 5.72c-14.49 2.48-29.13.33-42.76-4.95a96 96 0 0 1-18.27-9.47c-3.02-2-5.82 2.85-2.83 4.84" class="c"/><path d="M26.13 281.99c4.29-18.55 9.67-37.62 21.17-53.14 10.41-14.05 26.33-22.6 42.42-28.53a277 277 0 0 1 17.51-5.6c3.45-1.01 1.98-6.42-1.49-5.4-13.76 4.05-27.47 8.58-39.87 15.95a80 80 0 0 0-20.78 17.4c-6.23 7.53-10.86 16.24-14.57 25.26-4.32 10.5-7.23 21.52-9.79 32.57-.8 3.5 4.6 5 5.4 1.49m260-1.49c-4.4-19.08-10.03-38.9-21.96-54.8-11.21-14.93-27.58-24.1-44.8-30.51-6-2.24-12.1-4.06-18.24-5.87-3.47-1.02-4.95 4.38-1.5 5.4 13.2 3.88 26.3 8.17 38.21 15.19a75 75 0 0 1 19.86 16.56c5.8 6.98 10.17 15.33 13.56 23.72 4.15 10.27 6.98 21.02 9.47 31.8.81 3.5 6.22 2.02 5.4-1.5Z" class="c"/><path d="M159.36 274.82c10.29.07 21.17.34 32.31.8-41.8-35.33-89.98-82.85-139.62-137.65q-8.2-9.06-16.45-18.37l-4.7 34.52c38.75 38.28 82.43 84.28 128.46 120.7" style="fill:#d9d9d9"/><path d="M33.62 121.57q31.5 35.58 64.59 69.72c19.82 20.37 40.1 40.3 61.07 59.49q15.6 14.3 31.76 27.96a2.9 2.9 0 0 0 3.96 0 2.8 2.8 0 0 0 0-3.96 1136 1136 0 0 1-58-52.68q-32.33-31.28-62.92-64.3-18.51-19.85-36.5-40.19a2.8 2.8 0 1 0-3.96 3.96m-4.7 34.53c16.24 16.04 32.25 32.3 48.5 48.34 16.96 16.72 34.17 33.22 52.04 48.97 9.95 8.77 20.1 17.3 30.55 25.47a2.9 2.9 0 0 0 3.96 0c.97-.97 1.2-3.03 0-3.96-18.73-14.66-36.54-30.45-53.87-46.72-17.17-16.13-33.88-32.76-50.53-49.43q-13.32-13.34-26.69-26.63c-2.57-2.54-6.53 1.42-3.96 3.96" class="c"/><path d="M229.3 293.45c0-40.5-30.84-74.6-75.07-74.6-44.38 0-75.06 34.38-75.06 74.6l-20.87-.2c0-51.4 39.21-95.34 95.94-95.34 56.53 0 95.95 43.58 95.95 95.35Z" style="fill:#7a7473"/><path d="M252.98 293.26a100 100 0 0 0-17.15-56.3 96 96 0 0 0-46.32-35.82 105.4 105.4 0 0 0-63.59-2.23 95.7 95.7 0 0 0-48.95 32.3 99.7 99.7 0 0 0-21.2 54.73q-.27 3.66-.27 7.32c0 3.6 5.6 3.61 5.6 0a94.5 94.5 0 0 1 16.24-53.19 90 90 0 0 1 43.35-33.6 100 100 0 0 1 60.3-2.18 90.4 90.4 0 0 1 46.3 30.5 93.6 93.6 0 0 1 19.83 51.1q.26 3.69.27 7.38c0 3.6 5.6 3.6 5.6 0Z" class="c"/><path d="M232.1 293.45a79 79 0 0 0-13.53-44.39 76 76 0 0 0-36.6-28.28 83 83 0 0 0-50.1-1.72 75.4 75.4 0 0 0-38.48 25.36 78.7 78.7 0 0 0-16.8 43.21 81 81 0 0 0-.21 5.82c-.01 3.6 5.59 3.61 5.6 0a73.3 73.3 0 0 1 12.53-41.18 70 70 0 0 1 33.57-26.11 77.7 77.7 0 0 1 46.82-1.76 70 70 0 0 1 36.08 23.75 72.7 72.7 0 0 1 15.32 39.61q.2 2.85.2 5.7c0 3.6 5.6 3.6 5.6 0" class="c"/><path d="M97.71 260.92a6.8 6.8 0 0 1 4.66-.32 5 5 0 0 1 2.24 1.26c1.56 2.08 1.67 5.13 1.19 7.4-1.1 5.1-3.41 12.52-9.43 13.2a2.9 2.9 0 0 0-2.8 2.8 2.8 2.8 0 0 0 2.8 2.8 14 14 0 0 0 10.63-6.5 34 34 0 0 0 4.41-11.93c.66-3.9-.06-8.6-2.77-11.64-2.93-3.29-8.48-4.08-12.42-2.47a2.9 2.9 0 0 0-1.95 3.45c.36 1.32 2.03 2.53 3.44 1.95" class="c"/><path d="M63.29 241.3c11.43-4.07 27.42 1.24 33.6 12.07 2.38 4.16 2.33 10.98-4.15 12.63 4.1 3.74 4.5 8.52 2.2 12.2-1.08 1.73-3.75 2.55-5.73 2.61a13 13 0 0 1-3.22-.3l.29.3a7.9 7.9 0 0 1 1.76 7.19 9 9 0 0 1-3.67 5.97c-2.7 1.66-7.38.86-9.77-.37l-.47-.25.58.72c2.2 2.67-.44 7.73-2.43 9.05-5.72 3.78-12.37.37-18.85-2.73-5-2.4-9.68-7.32-11.05-12.06-1.1-3.81-1.57-6.65-1.08-13.27.87-11.77 5.72-22.38 16.67-30.87a19 19 0 0 1 5.32-2.88" class="a"/><path d="M91.4 268.61c2 2.16 2.8 5 1.48 7.55a3.2 3.2 0 0 1-2.5 1.68 6 6 0 0 1-2.04.17 10 10 0 0 1-2.36-.4c-3.42-.93-6.63-2.92-9.81-4.44-3.45-1.66-6.91-3.3-10.32-5.06-3.2-1.65-6.04 3.18-2.83 4.84 3.15 1.62 6.34 3.14 9.52 4.67 3.26 1.56 6.48 3.3 9.83 4.67 6.38 2.58 14.98 1.4 16.5-6.45a12.6 12.6 0 0 0-3.51-11.19c-2.46-2.64-6.41 1.33-3.96 3.96" class="c"/><path d="M84.3 282.8a4.8 4.8 0 0 1 1.15 3.42 8 8 0 0 1-1.1 3.78c-1.43 2.4-3.92 2.43-6.52 1.8a17 17 0 0 1-3.97-1.7q-2.61-1.27-5.26-2.5a97 97 0 0 1-9.79-5c-3.08-1.9-5.9 2.95-2.82 4.83A122 122 0 0 0 68 293.5c3.9 1.83 7.49 4.04 11.9 4.21a10.1 10.1 0 0 0 10.1-6.59 11.5 11.5 0 0 0-1.75-12.28 2.8 2.8 0 0 0-3.96 3.96Z" class="c"/><path d="M72.3 295.48s.5.79.29.33c.01.03.2.9.14.4a2.4 2.4 0 0 1-.09 1.23 8 8 0 0 1-1.33 2.78c.07-.09-1.07.9-.44.48a7 7 0 0 1-1.81.9 9 9 0 0 1-4.14.25c-3.4-.57-6.58-2.2-9.65-3.68a22 22 0 0 1-7.15-5.36 15.5 15.5 0 0 1-3.4-6.59 22 22 0 0 1-.8-6.2 46 46 0 0 1 2.68-16.46 38 38 0 0 1 8.98-13.59 29 29 0 0 1 6.2-4.94 20 20 0 0 1 8.79-2.27 29 29 0 0 1 3.68.1 21 21 0 0 1 2.96.45 33 33 0 0 1 3.65.99 26.4 26.4 0 0 1 11.23 7.17c1.46 1.62 3.07 3.88 3.38 6.23.29 2.1-.66 5.4-2.92 5.03a15 15 0 0 1-4.16-1.8q-2.7-1.34-5.44-2.63c-3.3-1.57-6.62-3.11-9.88-4.77-3.2-1.63-6.04 3.2-2.82 4.83 3.32 1.7 6.71 3.27 10.08 4.88q2.72 1.27 5.4 2.62a25 25 0 0 0 4.99 2.2 8 8 0 0 0 9.32-4.46 12.6 12.6 0 0 0-.2-10.56c-2.26-5.14-7.18-9.27-12.05-11.82a35 35 0 0 0-16.61-4.07 25.5 25.5 0 0 0-15.87 5.6 44.5 44.5 0 0 0-12.66 15.85 50 50 0 0 0-4.32 19.74c-.17 6.2 1.04 12.39 4.94 17.35a25.5 25.5 0 0 0 8.22 6.86 48 48 0 0 0 11.32 4.58c3.86.84 8.1.54 11.34-1.93a11.5 11.5 0 0 0 4.17-8.1 6.7 6.7 0 0 0-1.19-4.44 2.9 2.9 0 0 0-3.83-1 2.8 2.8 0 0 0-1 3.83Zm138.34-39.96c-3.94-1.61-9.48-.82-12.41 2.47-2.71 3.04-3.43 7.75-2.77 11.64a34 34 0 0 0 4.41 11.92 14 14 0 0 0 10.63 6.5 2.8 2.8 0 0 0 2.8-2.8 2.87 2.87 0 0 0-2.8-2.8c-6.02-.67-8.33-8.09-9.43-13.2a9.7 9.7 0 0 1 1.1-7.26 3 3 0 0 1 .74-.68 6 6 0 0 1 1.58-.71 6.8 6.8 0 0 1 4.66.32c1.4.57 3.08-.62 3.45-1.96a2.87 2.87 0 0 0-1.96-3.44" class="c"/><path d="M243.58 241.3c-11.43-4.07-27.42 1.24-33.6 12.07-2.38 4.16-2.33 10.98 4.15 12.63-4.1 3.74-4.5 8.52-2.2 12.2 1.08 1.73 3.75 2.55 5.72 2.61a13 13 0 0 0 3.23-.3l-.29.3a7.9 7.9 0 0 0-1.76 7.19 9 9 0 0 0 3.66 5.97c2.7 1.66 7.39.86 9.78-.37l.47-.25-.59.72c-2.19 2.67.45 7.73 2.44 9.05 5.72 3.78 12.37.37 18.85-2.73 5-2.4 9.68-7.32 11.05-12.06 1.1-3.81 1.56-6.65 1.07-13.27-.87-11.77-5.7-22.38-16.66-30.87a19 19 0 0 0-5.32-2.88" class="a"/><path d="M211.5 264.65a12.7 12.7 0 0 0-3.74 9.58c.29 3.33 1.83 6.7 4.97 8.18 7.02 3.32 13.96-1.13 20.2-4.12 3.65-1.75 7.31-3.49 10.91-5.34 3.2-1.65.38-6.49-2.82-4.84-3.4 1.75-6.87 3.4-10.32 5.06-3.18 1.52-6.4 3.51-9.81 4.45a10 10 0 0 1-2.36.39 6 6 0 0 1-2.04-.16 3.2 3.2 0 0 1-2.5-1.7c-1.33-2.54-.53-5.37 1.48-7.54 2.45-2.63-1.5-6.6-3.96-3.96" class="c"/><path d="M218.61 278.83a11.5 11.5 0 0 0-1.75 12.28 10.1 10.1 0 0 0 10.1 6.59c4.4-.17 8-2.38 11.9-4.21a122 122 0 0 0 12.02-6.06c3.07-1.89.26-6.73-2.82-4.84a96 96 0 0 1-9.59 4.92q-2.64 1.22-5.27 2.5c-.86.42-1.71.9-2.59 1.3.39-.18-.46.17-.45.16q-.55.2-1.12.33c-2.5.62-5 .64-6.42-1.63a8 8 0 0 1-.9-2.09 11 11 0 0 1-.24-1.1c.07.46-.04-.48-.05-.6a4.7 4.7 0 0 1 1.14-3.58 2.87 2.87 0 0 0 0-3.96 2.83 2.83 0 0 0-3.96 0Z" class="c"/><path d="M229.74 292.65c-2.04 2.72-1.2 6.56.3 9.32a10.7 10.7 0 0 0 8.05 5.43c4.07.6 7.98-.66 11.68-2.24a41 41 0 0 0 10.17-5.72 23 23 0 0 0 6.5-8.38 28 28 0 0 0 1.98-8.32 48 48 0 0 0-2.27-19.32 44 44 0 0 0-10.62-17.12c-4.32-4.32-9.2-7.75-15.33-8.73-11.4-1.82-24.06 2.7-31.07 12.02a15.6 15.6 0 0 0-3.38 8.65c-.18 3.63 1.5 7.64 4.88 9.33 3.66 1.82 7.2-.04 10.5-1.71 3.6-1.83 7.28-3.5 10.92-5.25q2.3-1.09 4.57-2.25c3.21-1.63.38-6.47-2.83-4.83-2.9 1.48-5.87 2.87-8.82 4.27-3.03 1.45-6 3.1-9.08 4.43a4 4 0 0 1-2.44.5 3.6 3.6 0 0 1-1.96-2.6 8.3 8.3 0 0 1 1.53-6.37 24 24 0 0 1 10.15-8.34 29 29 0 0 1 13.13-2.66 21 21 0 0 1 6.28 1.16 18 18 0 0 1 5.34 3.05 41 41 0 0 1 10.92 13.32 40 40 0 0 1 3.96 15.25q.17 2.25.15 4.48 0 .99-.07 1.98l-.06.75c-.01.1-.13 1.05-.06.54a20 20 0 0 1-1.78 6.27 19.4 19.4 0 0 1-6.55 7.05 41 41 0 0 1-10.2 4.69 12 12 0 0 1-5 .65 7 7 0 0 1-2-.54c-.3-.13-.57-.32-.85-.47q-.67-.45-.16-.06-.18-.15-.35-.33a8 8 0 0 1-1.52-2.65c-.36-1.2-.35-1.65.22-2.41a2.8 2.8 0 0 0-1-3.83 2.87 2.87 0 0 0-3.83 1Z" class="c"/><path d="M304.83 288.23c-40.68-9.07-103.34-13.43-151.04-13.43S43.44 279.16 2.75 288.23v23.58a4 4 0 0 0 4 4h294.08a4 4 0 0 0 4-4Z" class="a"/><path d="M305.58 285.53c-18.44-4.1-37.24-6.6-56.01-8.56a931 931 0 0 0-62.67-4.34q-29.38-1.08-58.77-.24-31.35.9-62.61 3.83a557 557 0 0 0-57.55 8.05q-2.99.6-5.96 1.26c-3.52.78-2.03 6.18 1.49 5.4a485 485 0 0 1 55.01-8.42 933 933 0 0 1 62.17-4.28q29.38-1.08 58.78-.24 30.97.9 61.85 3.76a545 545 0 0 1 56.82 7.92q2.99.6 5.96 1.26c3.5.78 5-4.62 1.49-5.4" class="c"/></svg>
