<svg xmlns="http://www.w3.org/2000/svg" viewBox="-16.32 0 310.173 310.173"><defs><style>.a{fill:#fff}.c{fill:#211715}</style></defs><path d="M138.7 79.4a7.8 7.8 0 0 1 5.67-1.04c3.82.73 5.16 2.97 5.68 4.24 1.56 3.8.47 10.2-1.56 13.94a20.4 20.4 0 0 1-8.04 8.78 15 15 0 0 1-7.4 1.43l-.55 1.03c-1 1.92-3.35 5.25-3.35 5.25a74 74 0 0 1-5.72 6.98l1.07 6.47a27 27 0 0 0 1.35 5.62c1.92 4.85 7.16 8.29 12.53 10.33l.79.31a76 76 0 0 1-44.62 15.8c-6.05.1-12.2-.58-17.87-3.03a28 28 0 0 1-13.35-11.8c3.56-1.08 7.24-2.2 9.7-3.18a11 11 0 0 0 5.69-4.14c-8.49-.86-15.83-4.24-22.73-10.33-8.33-7.34-11.65-18.56-12.55-30.87-.45-6.27-.8-13.02-1.4-19.83 0 0-5.73-39.57 48.27-39.57 50 0 48.39 43.6 48.39 43.6" class="a"/><path d="M62.46 54.11q-.08-.45-.21-.97c-.36-1.39-1.44-1.96-2.27-1.51-7.64 4.16-18.66 20.03-17.94 23.73l-.15 1.35a90 90 0 0 1 .14-30.8c1.78-8.65 6.12-18.31 11.99-24.88C64.18 9.62 79.09 2.91 97.44 2.45c11.58-.3 23.1 2.13 35.36 11.3l7.63 5.7 1.44 1.4c7.3 7.07 10.75 15.04 12.91 24.71a48 48 0 0 1 .98 14.84c-.49 5.25-1.2 17.5-5.16 24.2a9 9 0 0 0-.55-2c-.52-1.28-1.86-3.52-5.69-4.24a7.8 7.8 0 0 0-5.66 1.02 14 14 0 0 1-3.05.96c-1.45.22-8.07-8.1-8.07-8.1-10.3-19.06-24.52-24.22-27.6-25.5a53 53 0 0 0-10.67-1.34C79.14 47.82 69.9 55.48 65.02 58.3a1.73 1.73 0 0 1-2.5-1.83 9 9 0 0 0-.07-2.35" style="fill:#7a7473"/><path d="M121.11 120.65c.88 5.26 1.1 11.3 4.43 15.71 3.05 4.05 7.54 6.6 12.2 8.39a2.4 2.4 0 0 0 2.95-1.68 2.45 2.45 0 0 0-1.67-2.95c-3.6-1.39-7.45-3.49-9.72-6.7a14.5 14.5 0 0 1-2.2-5.95c-.5-2.69-.9-5.4-1.36-8.1a2.4 2.4 0 0 0-2.95-1.67 2.46 2.46 0 0 0-1.68 2.95m-64.36 27.66c4.07-1.42 8.22-2.56 12.33-3.87a82 82 0 0 0 5.57-1.95 14 14 0 0 0 6.12-4.88 2.4 2.4 0 0 0-.86-3.28 2.45 2.45 0 0 0-3.28.86c-2.2 3.02-6.42 3.86-9.79 4.92-3.79 1.2-7.62 2.27-11.37 3.57a2.46 2.46 0 0 0-1.68 2.95 2.4 2.4 0 0 0 2.96 1.68m83.43-125.76c6.43 6.3 10.09 14.17 12.1 22.86 1.95 8.38 1.27 17.12-.06 25.55-.66 4.23-1.53 8.67-3.7 12.41-1.56 2.68 2.58 5.1 4.14 2.42 4.09-7.04 4.68-15.88 5.36-23.82a56 56 0 0 0-.68-15.86 61 61 0 0 0-4.44-13.9 45 45 0 0 0-9.33-13.06c-2.2-2.16-5.6 1.23-3.4 3.4Zm-40.84 26.5 1.16.48c.5.2-.45-.2-.07-.03l.37.16 1.02.46a47 47 0 0 1 4.69 2.53 50 50 0 0 1 12.04 10.47 61 61 0 0 1 6.96 10.34c1.48 2.71 5.63.3 4.15-2.43-5.7-10.44-14.14-19.65-24.97-24.84q-2.01-.94-4.07-1.76a2.4 2.4 0 0 0-2.95 1.67 2.46 2.46 0 0 0 1.67 2.96M44.4 74.9a11 11 0 0 1 1.5-3.72 52 52 0 0 1 3.17-5.07 55 55 0 0 1 8.8-10.03 20 20 0 0 1 1.84-1.46c.34-.23.75-.43 1.07-.68.46-.37.97-.17-.48-.1-.33.02-.2-.2-.36-.07.03-.02.23 1.57.23 1.7a11 11 0 0 0 .03 1.96 4.2 4.2 0 0 0 2.51 3.15c2.3.94 4.27-.63 6.09-1.84 1.88-1.24 3.73-2.52 5.62-3.73 5.12-3.3 10.53-6.26 16.54-7.51 3.02-.63 1.74-5.26-1.28-4.63-5.7 1.2-11.02 3.86-15.95 6.9q-3.1 1.94-6.12 4-1.22.83-2.48 1.64a7 7 0 0 0-1.13.69c-.27.28-.25-.16.18 0-.1-.04.91.22.72.36.22-.17.05-1.43.03-1.7a11 11 0 0 0-.37-2.26 4.6 4.6 0 0 0-2.99-3.28c-2.28-.65-4.44 1.3-6.09 2.62a55 55 0 0 0-9.6 10.51c-2.4 3.28-5.28 7.2-6.11 11.27a2.46 2.46 0 0 0 1.68 2.95 2.4 2.4 0 0 0 2.95-1.67m46.37 11.83c-.58-2.53.32-8.18 5.04-8.33 6.19.48 6.02 7.38 3.7 10.46-1.89 2.53-6.98 3.27-8.74-2.13m-36.83-1.49c-.52-2.53.33-8.2 4.65-8.37 5.66.46 5.49 7.38 3.35 10.48-1.74 2.54-6.41 3.3-8-2.11m18.91 6.6a52 52 0 0 0-2.36 3.96 6 6 0 0 0-.69 1.71 3.4 3.4 0 0 0 .9 3.12 5 5 0 0 0 1.97 1.25 7 7 0 0 0 1.56.27l-.64-.09.18.03a2.6 2.6 0 0 0 1.85-.24 2.4 2.4 0 0 0 .86-3.28 2.4 2.4 0 0 0-1.43-1.1q-.54-.09-1.08-.15l.63.09a3 3 0 0 1-.73-.19l.57.25a3 3 0 0 1-.49-.3l.49.38a3 3 0 0 1-.5-.48l.37.49-.08-.16.24.57-.04-.18.08.64v-.28l-.08.64a3 3 0 0 1 .17-.59l-.24.57a23 23 0 0 1 1.31-2.37q.65-1.08 1.33-2.14a2.4 2.4 0 0 0-.86-3.28 2.45 2.45 0 0 0-3.29.86" class="c"/><path d="M118.05 128.17a64 64 0 0 0 10.51-10.44 58 58 0 0 0 6.01-8.74c1.46-2.72-2.69-5.15-4.14-2.42a59.5 59.5 0 0 1-15.77 18.2 2.4 2.4 0 0 0 0 3.4 2.46 2.46 0 0 0 3.39 0m15.96-116.49A57.5 57.5 0 0 0 105.37.33a70 70 0 0 0-28.5 3.15 57 57 0 0 0-22.62 13.8c-7.03 7.08-11.73 16.43-14.1 26.08-2.69 10.94-2.52 22.95-.57 34a2.4 2.4 0 0 0 2.95 1.67 2.45 2.45 0 0 0 1.68-2.95 82 82 0 0 1-.1-28.36c1.64-8.97 5.5-18.14 11.6-25C67.32 9.7 84.87 4.18 101.98 4.9c10.92.46 20.88 4.46 29.62 10.94a2.4 2.4 0 0 0 3.29-.86 2.46 2.46 0 0 0-.87-3.29" class="c"/><path d="M105.4 129.21a59 59 0 0 1-20.3 4.97 37.6 37.6 0 0 1-18.71-3.83 35.6 35.6 0 0 1-14.17-12.46c-3.38-5.46-5.1-11.83-5.93-18.16-.56-4.2-.72-8.46-1-12.69-.31-4.79-.64-9.58-1.09-14.36a2.47 2.47 0 0 0-2.4-2.4 2.4 2.4 0 0 0-2.4 2.4c.8 8.5.99 17.07 1.91 25.56.77 7.1 2.38 14.2 5.85 20.5C53.96 131.1 68 138.61 81.88 139c8.58.24 16.91-1.89 24.8-5.16a2.5 2.5 0 0 0 1.67-2.95 2.4 2.4 0 0 0-2.95-1.68m34.5-47.75a5.9 5.9 0 0 1 7.37 1.06c.26.3-.16-.25.04.06l.18.27.28.5.11.24c.13.3-.14-.39.01.08a11 11 0 0 1 .3 1.07 14 14 0 0 1 .07 4.48c-.68 5.53-4.06 11.43-9.1 14.07l-.44.2q-.45.16-.91.3a14 14 0 0 1-2.21.5 8 8 0 0 1-4.67-.55c-2.75-1.4-5.18 2.74-2.42 4.15 3.53 1.8 7.96 1.59 11.6.18a19.6 19.6 0 0 0 9-7.86 25 25 0 0 0 3.93-10.81c.42-3.52.06-7.38-2.3-10.2-3.12-3.72-9.2-4.38-13.25-1.9-2.62 1.63-.22 5.78 2.42 4.15Zm-42.65-9.5a12 12 0 0 0 3.14 2.3 12 12 0 0 0 3.57 1.17 2 2 0 0 0 .96.05 2 2 0 0 0 .89-.29 2.4 2.4 0 0 0 .86-3.28 2.3 2.3 0 0 0-1.44-1.1 10 10 0 0 1-2.37-.65l.58.24a11 11 0 0 1-2.32-1.34l.49.37a10 10 0 0 1-.97-.85 2.4 2.4 0 0 0-3.4 3.39ZM112 85.44a58 58 0 0 0-.61 6.73c-.04 1.99-.12 4.42 1 6.15a6 6 0 0 0 6.07 2.34 6.1 6.1 0 0 0 4.37-3.58 2.46 2.46 0 0 0-.86-3.28 2.43 2.43 0 0 0-3.29.86 7 7 0 0 1-.43.8c-.25.37-.1 0 .03-.02l-.34.35c-.3.3.28-.14.04-.02-.08.04-.28.23-.37.21q.43-.17.17-.08l-.26.07c-.43.13.34 0 .05 0l-.43.01c-.53.03.46.14-.05 0l-.42-.1c-.26-.06.4.22.03 0l-.22-.12q-.22-.15.14.13c-.1-.02-.23-.23-.3-.3-.2-.19.24.4.05.02.27.54.04.05 0-.1l-.1-.45-.07-1.12q-.04-1.24 0-2.48.06-1.28.18-2.56l.13-1.17.08-.71.04-.31a2.7 2.7 0 0 0-.24-1.85 2.5 2.5 0 0 0-1.44-1.1c-1.12-.26-2.77.34-2.95 1.67Z" class="c"/><path d="M74.34 115.36c.31-.21.66-.38.97-.6.24-.17-.35.08.05-.02l.33-.1c.42-.12-.3-.02-.11.03h.36c.3-.02-.03-.01-.16-.04l.19.06q-.37-.16-.13-.02.15.1.01 0-.2-.16.1.09l.36.32q.49.45 1.02.85a4.7 4.7 0 0 0 2.92 1 5.3 5.3 0 0 0 2.7-.86 11 11 0 0 1 .99-.56c.38-.18-.46.12.25-.1l.49-.12c-.37.06.09.01.18.01.18 0 .48.14.04 0l.4.1c.06 0 .58.2.3.08-.27-.11.74.5.32.16l.32.3c.43.39-.16-.3.17.21a2.45 2.45 0 0 0 3.28.86 2.43 2.43 0 0 0 .86-3.28 6.9 6.9 0 0 0-4.89-3.14 6 6 0 0 0-2.98.28 11 11 0 0 0-1.62.73l-.53.32c-.08.05-.55.45-.25.18l-.22.06q.35-.04.08-.04c-.25.04.14.07.25.1q-.32-.2-.16-.08t-.15-.12l-.46-.42a5.43 5.43 0 0 0-7.7-.38 2.46 2.46 0 0 0-.86 3.29 2.4 2.4 0 0 0 3.28.86Z" class="c"/><path d="M15.2 171.78c-6.84 13.04-9.58 28.06-11.15 42.57-1.63 15.18-1.5 32.77-1.61 38.03-.57 24.24 8.75 33.29 11.28 35.76 2.48 2.42 10 6.15 13.39 6.56 20.6 2.45 45.48-2.14 67.78-5.7 5-.8 11.3-1.58 12.68-6.65a10 10 0 0 0 .25-3.2 390 390 0 0 1 16.76-4.18 28 28 0 0 1 6.95-.54 3489 3489 0 0 1-8.66 32.4h49.03c7.07-32.73 13.55-59.32 19.26-89.61 2.15-11.42 2.93-29.28-.74-40.3-5.47-16.42-20.98-29.87-49.18-35.8a76.4 76.4 0 0 1-46.69 17.43c-6.05.09-12.2-.59-17.87-3.04a28 28 0 0 1-13.55-12.17c-17.78 1.53-34.34 7.17-44.51 22.63q-1.87 2.82-3.42 5.8" class="a"/><path d="M221.1 212.37c7.55-4.04 15.26-7.79 22.8-11.84a2.43 2.43 0 0 0 .49-3.77c-2.66-3.13-5.59-6.02-8.3-9.1l-.49 3.77c7.98-3.9 15.99-7.73 23.97-11.63a2.4 2.4 0 0 0 .86-3.28 2.45 2.45 0 0 0-3.28-.86c-7.98 3.9-16 7.73-23.97 11.63a2.43 2.43 0 0 0-.49 3.77c2.72 3.07 5.65 5.96 8.3 9.1l.49-3.78c-7.55 4.06-15.25 7.8-22.8 11.84-2.73 1.46-.3 5.6 2.42 4.15m-4.42 20.93c10.97-.01 21.92 1.4 32.9 1.37a2.43 2.43 0 0 0 2.31-3.04c-.87-4.01-2.1-7.93-3.06-11.93l-2.31 3.04c9.56.32 19.13.23 28.7.55 3.09.1 3.08-4.7 0-4.8-9.57-.32-19.14-.23-28.7-.55a2.43 2.43 0 0 0-2.32 3.04c.96 4 2.19 7.92 3.06 11.93l2.32-3.04c-10.98.04-21.92-1.38-32.9-1.37-3.1 0-3.1 4.8 0 4.8" style="fill:#f2635f"/><path d="M61.26 144.92c12.26 21.53 43.05 17.95 62.37 9.66a80 80 0 0 0 16.75-9.77 2.5 2.5 0 0 0 .86-3.28 2.4 2.4 0 0 0-3.28-.86 77 77 0 0 1-28.65 13.63 69 69 0 0 1-15.67 1.85c-5.51 0-11.2-.65-16.27-2.94A26 26 0 0 1 65.4 142.5c-1.53-2.68-5.68-.27-4.14 2.42M174 308.45c6.13-28.42 12.91-56.7 18.45-85.24 2.37-12.23 3.85-24.7 2.31-37.14a49 49 0 0 0-4.14-15.04 46 46 0 0 0-8.02-11.73c-9-9.7-21.5-15.44-34.07-18.9-2.98-.82-4.25 3.8-1.27 4.63 10.83 2.98 21.55 7.66 29.79 15.48a41.5 41.5 0 0 1 12.63 23.65c1.9 11.56.83 23.67-1.35 35.1-2.58 13.5-5.45 26.93-8.42 40.35-3.5 15.85-7.12 31.69-10.54 47.56-.65 3.01 3.97 4.3 4.63 1.28m-26.55-105.47c-4.87 19.03-9.64 38.08-14.61 57.08q-4.35 16.6-8.79 33.19c-1.15 4.31-2.25 8.64-3.5 12.93-.85 2.97 3.78 4.24 4.63 1.27 2.77-9.59 5.2-19.3 7.75-28.94q4.8-18.1 9.42-36.23l9.72-38.03c.77-3-3.86-4.27-4.63-1.28Z" class="c"/><path d="M104.23 245.03c4.05-.6 7.95-1.55 9.98-2.9a48.5 48.5 0 0 1 21.42-14.97c2.97-1.02 7.31-3.02 10.23-1.84 3.48 1.4 3.92 5.78-.54 10.03l-1.9 1.83-.25.24a107 107 0 0 0 18.85 1.88c4.47-.07 12.46.2 16.82.03a4.7 4.7 0 0 1 4.34 2.2 4.7 4.7 0 0 1-2.79 7l1.94.43a4.7 4.7 0 0 1 3.63 4 4.8 4.8 0 0 1-2.48 4.62 16 16 0 0 1-5.48 1.78l-.69.1 1.5 1.02a4.1 4.1 0 0 1 1.73 4.45c-.88 2.07-2.55 2.61-4.67 3q-1.3.23-2.59.42c1.94 3.68-1.65 6.38-5.62 6.85a110 110 0 0 1-21.92.75c-6.97-.5-14.08-2.53-21.16-1a396 396 0 0 0-16.7 4.17" class="a"/><path d="M104.87 247.34a42 42 0 0 0 6.9-1.5 19 19 0 0 0 2.88-1.18 7 7 0 0 0 2.17-1.91 46 46 0 0 1 9.22-8.14 54 54 0 0 1 11.7-5.67 20 20 0 0 1 5.62-1.57 3.6 3.6 0 0 1 1.82.27 1.6 1.6 0 0 1 .91.97 2.6 2.6 0 0 1-.1 1.66 7 7 0 0 1-1.55 2.54c-.84.94-1.8 1.8-2.7 2.67-2.24 2.15 1.16 5.54 3.39 3.4 2.63-2.55 5.43-5.17 5.8-9.03.46-4.67-3.78-7.66-8.1-7.23a28 28 0 0 0-6.87 1.88 67 67 0 0 0-7.1 2.92 51 51 0 0 0-12.1 8.47q-1.35 1.27-2.61 2.65a7.5 7.5 0 0 1-2.21 2.12 31 31 0 0 1-8.34 2.05 2.4 2.4 0 0 0-1.68 2.95 2.46 2.46 0 0 0 2.95 1.68m3.64 34.1c4.74-1.26 9.49-2.51 14.27-3.62a33 33 0 0 1 6.75-1.01 51 51 0 0 1 7.31.48 132 132 0 0 0 14.77 1.31 116 116 0 0 0 13.82-.74c2.52-.27 5.04-.49 7.25-1.84a7 7 0 0 0 3.54-5.57 2.4 2.4 0 0 0-2.4-2.4 2.45 2.45 0 0 0-2.4 2.4c-.07.97-1.56 1.75-2.55 2.05a29 29 0 0 1-5.86.8 107 107 0 0 1-13 .47c-4.75-.14-9.4-.85-14.1-1.4a40 40 0 0 0-13.63.64 411 411 0 0 0-15.05 3.8c-2.98.8-1.72 5.43 1.28 4.63" class="c"/><path d="M142.48 239.73a124 124 0 0 0 13.27 1.7c4.84.3 9.69.26 14.54.32q3.48.06 6.96.02c1.56-.02 3.61-.3 4.08 1.55.48 1.92-.99 2.8-2.68 3.3-2.4.7-5.17.65-7.66.86a145 145 0 0 1-18.78.03c-3.09-.14-3.08 4.66 0 4.8a144 144 0 0 0 18.58 0c2.92-.25 6.13-.23 8.97-1.01 2.61-.72 5.45-2.41 6.2-5.2a7.4 7.4 0 0 0-2.07-7.4c-2.29-1.94-4.97-1.72-7.77-1.7-5.16.02-10.36.04-15.52-.14a123 123 0 0 1-16.85-1.75 2.47 2.47 0 0 0-2.95 1.68 2.4 2.4 0 0 0 1.68 2.95Z" class="c"/><path d="M181.7 251.27a2.6 2.6 0 0 1 1.46.91c-.04-.05.37.65.3.48-.03-.07.15.82.1.3a2.6 2.6 0 0 1-1.61 2.7c-3 1.53-6.62 1.76-9.91 2.07-3.89.35-7.8.33-11.7.33-3.02 0-6.07.05-9.07-.22a2.4 2.4 0 0 0-2.4 2.4 2.45 2.45 0 0 0 2.4 2.4c2.72.25 5.47.21 8.2.22 3.74 0 7.5.03 11.23-.23a49 49 0 0 0 10.45-1.5c3.14-.93 6.26-2.66 7-6.12a7.04 7.04 0 0 0-5.18-8.36c-3-.8-4.27 3.83-1.28 4.63Z" class="c"/><path d="M177.6 262.56a2 2 0 0 1 .7 1.6 2.7 2.7 0 0 1-1.42 1.07c-2.63.92-5.74 1.05-8.5 1.28-5.8.5-11.58.03-17.38-.3-3.09-.19-3.08 4.61 0 4.8 3.91.22 7.83.56 11.75.56a75 75 0 0 0 10.1-.75c3.32-.45 7.2-.73 9.25-3.76s.61-6.62-2.09-8.64a2.4 2.4 0 0 0-3.28.86 2.46 2.46 0 0 0 .86 3.28ZM62.81 140.96c-13.8 1.25-27.7 4.99-38.24 14.4-11.68 10.42-17.33 26.45-20.32 41.4-3.1 15.49-3.9 31.32-4.12 47.07a170 170 0 0 0 .18 17.73 56 56 0 0 0 4.32 17.64 34 34 0 0 0 5.71 8.91 29 29 0 0 0 10.06 6.87 34 34 0 0 0 4.33 1.66 25 25 0 0 0 4.62.7 114 114 0 0 0 11.92.44 216 216 0 0 0 25.5-2.06c8.58-1.13 17.11-2.53 25.65-3.91 5.71-.92 14.12-1.24 16.9-7.37a12.5 12.5 0 0 0 .83-6.16c-.16-2.35-.39-4.7-.61-7.06q-.67-6.8-1.47-13.6c-.8-6.8-1.06-9.07-1.55-13.6-.23-2.18-.65-4.21-2.91-5.1-1.75-.68-3.81-.02-5.6.25-14.93 2.21-29.86 4.36-44.8 6.54l-2.37.35c-.67.1.17 0-.24.03l-.72.06h-.63c-.24 0-.66-.07-.16.01a7 7 0 0 1-1.21-.31c.65.24-.87-.59-.42-.23a6 6 0 0 1-.53-.49c-.08-.08-.5-.57-.28-.29a10 10 0 0 1-1.65-3.6c-.57-2-.88-4.06-1.3-6.1q-.71-3.35-1.36-6.72-1.28-6.59-2.2-13.22-.88-6.51-1.28-13.07c-.18-3.07-4.99-3.1-4.8 0a213 213 0 0 0 3.38 26.14 337 337 0 0 0 2.6 12.95c.6 2.68 1.64 5.62 3.72 7.53 3.92 3.6 9.48 1.77 14.14 1.1l21.93-3.2q10.82-1.58 21.63-3.18a2 2 0 0 0 .53-.08c.1-.14.01.55-.1-.03.02.1-.3-.13-.2-.15-.25.06.08-.21-.05.07s.12 1.15.15 1.46q.1.98.22 1.95.36 3.29.75 6.57c.5 4.44 1.03 8.88 1.5 13.33.45 4.32 1.07 8.71 1.16 13.06.05 2.97-1.37 4.58-4.08 5.52a54 54 0 0 1-9.1 1.83l-12.38 2c-15.95 2.5-32.26 4.86-48.45 3.7a24 24 0 0 1-8.15-1.67 41 41 0 0 1-4.1-2.03 31 31 0 0 1-3.1-1.97 20 20 0 0 1-2.21-2.18q-.61-.68-1.18-1.4c-.26-.31.3.43-.05-.06l-.29-.39-.69-.98a36 36 0 0 1-5.04-11.67c-1.6-6.26-1.85-12.64-1.76-19.08.19-13.68.37-27.34 2.06-40.94 1.88-15.18 5.4-30.8 14.09-43.65 7.46-11.04 19.49-17.03 32.29-19.57a91 91 0 0 1 9.51-1.35 2.46 2.46 0 0 0 2.4-2.4 2.4 2.4 0 0 0-2.4-2.4Z" class="c"/></svg>
