<svg xmlns="http://www.w3.org/2000/svg" viewBox="-4.96 0 254.16 254.16"><defs><style>.a{fill:#fff}.c{fill:#211715}</style></defs><path d="M2.45 245.9a202 202 0 0 1 6.36-16.13 49 49 0 0 1 12.46-16.67c6.23-5.28 11.6-8.42 19.5-12.01 9.98-4.1 23.9-9.5 33.31-12.4 9.8 10.18 28.38 18.11 48.04 18.11 19.9 0 38.24-7.93 48.03-18.1 9.83 3.5 23.33 8.3 33.3 12.4 7.9 3.58 13.28 6.72 19.51 12a49 49 0 0 1 12.46 16.67 202 202 0 0 1 6.36 16.14Z" class="a"/><path d="M179.88 94.48a9 9 0 0 1 6.53-2.39c4.68.17 6.67 2.7 7.53 4.18 2.55 4.44 2.45 12.61.73 17.67-1.22 3.58-3.2 9.06-8.01 12.99a10 10 0 0 1-7.67 2.22l-.73-.13a60 60 0 0 1-2.65 7.17c-1.87 5.08-11.88 22.39-24.74 30.18.37 3.16.46 5.47.68 8.88a9.5 9.5 0 0 0 6.03 8.66c1.56.8 9.7 3.82 12.58 4.81-9.82 10.16-28.14 18.09-48.04 18.09-19.66 0-38.25-7.94-48.04-18.1 2.91-1 10.97-4 12.53-4.8a9.5 9.5 0 0 0 6.02-8.66c.22-3.45.32-5.77.7-8.98A55 55 0 0 1 78.9 153.6a69 69 0 0 1-13.04-24.59 9.8 9.8 0 0 1-8.3-2.07c-4.8-3.93-6.79-9.41-8-13-1.72-5.05-1.83-13.23.73-17.66.85-1.49 2.85-4.02 7.53-4.18a9 9 0 0 1 6.52 2.39s-1.33-51.81 59.87-51.81c62 0 55.66 51.8 55.66 51.8" class="a"/><path d="M86.19 74.17a173 173 0 0 0-12.6 12.56l-9.24 7.75a9 9 0 0 0-6.53-2.39 11 11 0 0 0-2.82.45 76 76 0 0 1-2.83-22.84c1.17-27.56 15.73-44.59 28.58-54.15 11.07-8.23 24.9-13.14 41.2-13.14A68.4 68.4 0 0 1 163.5 15.8c13.3 9.6 27.07 26.58 28.23 53.9.33 7.83-.6 14.22-2.75 22.76a11 11 0 0 0-2.57-.37 9 9 0 0 0-6.53 2.39l-9.16-7.26c-2.96-7.45-9.64-15.67-16.6-21.67a37 37 0 0 0-10.58-6.65l-11.48-1.4c-7.74 3.26-18.65 10.11-24.78 13.52a2.1 2.1 0 0 1-2.99-2.26 11 11 0 0 0-.26-4.02c-.4-1.68-1.7-2.4-2.7-1.87-4.48 2.35-9.95 6.63-15.14 11.3" style="fill:#85807f"/><path d="M66.05 92.78a12.2 12.2 0 0 0-13.65-1.76c-3.23 1.64-5.03 4.95-5.81 8.37-1.87 8.13.17 17.27 4.8 24.17 3.33 4.98 8.23 8.79 14.5 7.9a2.4 2.4 0 0 0 1.67-2.95 2.46 2.46 0 0 0-2.95-1.68c-3.73.53-6.93-2.57-8.87-5.38a31 31 0 0 1-3.96-8.44 26 26 0 0 1-.95-9.98 15 15 0 0 1 1.12-4.74 11 11 0 0 1 .7-1.25l.21-.31c-.02.03-.23.29-.05.07a8 8 0 0 1 .62-.68c2.25-2.15 6.73-2.22 9.23.06 2.28 2.08 5.68-1.3 3.4-3.4Zm103.48 98.24q9.44 3.34 18.84 6.8a181 181 0 0 1 18.48 7.54 69 69 0 0 1 15.42 10.32 47 47 0 0 1 11.08 15.3 148 148 0 0 1 6.12 15.57c.97 2.92 5.6 1.67 4.63-1.28a179 179 0 0 0-6.18-15.75 52 52 0 0 0-10.36-15.42 67 67 0 0 0-15.82-11.6 152 152 0 0 0-19.06-8.17c-7.26-2.73-14.57-5.33-21.87-7.93a2.4 2.4 0 0 0-2.96 1.67 2.45 2.45 0 0 0 1.68 2.95M4.76 246.55a164 164 0 0 1 5.78-14.8 48 48 0 0 1 10.14-14.87c9.39-9.19 21.62-13.98 33.65-18.61a319 319 0 0 1 20.37-7.25c2.94-.9 1.69-5.54-1.28-4.63a306 306 0 0 0-18.6 6.57c-6.43 2.45-12.95 4.84-19.13 7.89a76 76 0 0 0-16.63 11 51 51 0 0 0-12.17 16.4 151 151 0 0 0-6.76 17.02c-.97 2.94 3.66 4.2 4.63 1.28" class="c"/><path d="M74.7 191.02q5.45-1.87 10.8-4.04a20 20 0 0 0 5.36-2.86 11.5 11.5 0 0 0 3.77-6.13c.76-3.08.59-6.43.87-9.58a2.4 2.4 0 0 0-2.4-2.4 2.45 2.45 0 0 0-2.4 2.4q-.21 2.48-.35 4.97a14 14 0 0 1-.56 4.09c-.7 2.12-2.34 3.45-4.65 4.5l-.47.2c-.44.2.44-.17-.02.01l-1.48.6a259 259 0 0 1-9.74 3.62 2.46 2.46 0 0 0-1.68 2.95 2.4 2.4 0 0 0 2.95 1.68Zm96.06-4.63a254 254 0 0 1-9.74-3.61l-1.4-.57c-.59-.24.3.15-.1-.04l-.47-.2c-2.32-1.05-3.96-2.39-4.65-4.5a14 14 0 0 1-.56-4.1q-.14-2.47-.35-4.96a2.46 2.46 0 0 0-2.4-2.4 2.4 2.4 0 0 0-2.4 2.4c.47 5.23-.1 11.03 3.92 15.06a16 16 0 0 0 5.5 3.27q2.63 1.1 5.33 2.08 3 1.14 6.04 2.2a2.4 2.4 0 0 0 1.28-4.63m10.82-90.21a7.25 7.25 0 0 1 8.7-.5 5 5 0 0 1 1.58 1.8 13 13 0 0 1 1.4 4.38 27.5 27.5 0 0 1-3.96 18.33c-1.97 3.25-5.42 7.24-9.68 6.63a2.5 2.5 0 0 0-2.95 1.68 2.4 2.4 0 0 0 1.67 2.95c10.22 1.45 16.2-8.96 18.78-17.32a30 30 0 0 0 .82-13.2c-.55-3.58-1.98-7.08-5.02-9.24a12.1 12.1 0 0 0-14.74 1.09c-2.28 2.08 1.12 5.47 3.4 3.39Z" class="c"/><path d="M177.03 124.14a75 75 0 0 1-3.96 11.98c.3-.76-.03.06-.1.22l-.35.74q-.4.85-.85 1.7a73 73 0 0 1-2.31 4.05 72 72 0 0 1-15.69 18.58 29 29 0 0 1-11.63 6.02c-3 .7-1.73 5.32 1.28 4.63 8.7-2 15.94-8.4 21.61-15.01a78 78 0 0 0 12.09-18.29l.53-1.24c.07-.17.4-.95.12-.3q.7-1.58 1.31-3.19a57 57 0 0 0 2.57-8.61 2.46 2.46 0 0 0-1.67-2.95 2.4 2.4 0 0 0-2.95 1.67M62.4 125.21a72 72 0 0 0 10.3 24.1c5.16 7.69 11.91 14.89 20.07 19.41a40 40 0 0 0 13.55 4.61 2.5 2.5 0 0 0 2.96-1.68 2.4 2.4 0 0 0-1.68-2.95c-17.26-2.53-30.18-17.51-36.74-32.82a69 69 0 0 1-3.83-11.94c-.68-3.01-5.3-1.74-4.63 1.27m99.3-113.55A71.6 71.6 0 0 0 128.54.28 75 75 0 0 0 91.99 6.2a72.3 72.3 0 0 0-38.58 42.87 76.7 76.7 0 0 0-1 43.07c.77 2.98 5.4 1.72 4.63-1.28a72 72 0 0 1-.13-36.71 65 65 0 0 1 13.2-25.37 65.9 65.9 0 0 1 53.86-23.95 67.3 67.3 0 0 1 35.3 10.97c2.6 1.69 5-2.47 2.42-4.15Zm29.84 80.48a83 83 0 0 0 2.65-18.05 80 80 0 0 0-1.67-17.69 69 69 0 0 0-11.7-26.72 71 71 0 0 0-9.64-10.75c-2.29-2.08-5.7 1.3-3.4 3.39a65 65 0 0 1 14.89 19.76 70 70 0 0 1 6.73 29.84 76 76 0 0 1-2.49 18.94c-.74 3 3.9 4.28 4.63 1.28m-77.44 52.6q.63-.35 1.28-.65l.17-.07.2-.08.95-.32a18 18 0 0 1 5.67-.78 18 18 0 0 1 5.72.75q.55.17 1.08.38c-.52-.2.22.12.39.2q.33.17.64.37c.19.12.89.64.2.1a2.5 2.5 0 0 0 3.4 0 2.4 2.4 0 0 0 0-3.4c-3.14-2.44-7.15-3.18-11.06-3.2a23 23 0 0 0-11.06 2.54 2.4 2.4 0 0 0 2.42 4.15Zm7.66-28.32a54 54 0 0 1 1.26 5.73l-.09-.64a4 4 0 0 1 .02.79l.09-.64-.09.36.24-.58-.12.23.37-.48-.18.18.48-.37-.45.24.57-.25a3 3 0 0 1-.76.23l.63-.09a3 3 0 0 1-.71 0l.63.09-.8-.14a2.7 2.7 0 0 0-1.85.24 2.4 2.4 0 0 0-.86 3.28 2.3 2.3 0 0 0 1.43 1.1c.57.08 1.12.23 1.7.25a5 5 0 0 0 2.44-.57 3.4 3.4 0 0 0 1.93-2.26 6 6 0 0 0-.03-2.5 63 63 0 0 0-1.21-5.48 2.4 2.4 0 0 0-4.63 1.28Zm-30.64-16c-.93 3.03-.32 9.99 5.41 10.58 7.58-.05 7.98-8.46 5.43-12.41-2.09-3.24-8.23-4.59-10.84 1.83m62 0c.94 3.03.33 9.99-5.4 10.58-7.57-.05-7.98-8.46-5.43-12.41 2.09-3.24 8.23-4.59 10.84 1.83m-10.78-39.44a47 47 0 0 1 14.98 10.9c4.45 4.63 8.67 9.97 11.1 15.98a2.5 2.5 0 0 0 2.95 1.67 2.4 2.4 0 0 0 1.67-2.95A58 58 0 0 0 161 68.81a51 51 0 0 0-16.25-11.97 2.5 2.5 0 0 0-3.29.86 2.4 2.4 0 0 0 .87 3.28Z" class="c"/><path d="M75.28 88.43c6.87-7.64 14.47-15.1 22.98-20.89q1.34-.91 2.72-1.73a14 14 0 0 0 1.26-.73c-.02-.06-1.02.28-.67-.1 0 0 .05.01.03.03-.07.08.34 1.62.35 1.91a15 15 0 0 1-.04 1.68 4.7 4.7 0 0 0 1.93 4.24c2.43 1.71 4.76.2 6.95-1.06l6.44-3.75a146 146 0 0 1 16.04-8.46 2.4 2.4 0 0 0 .87-3.28 2.47 2.47 0 0 0-3.29-.86 135 135 0 0 0-14.36 7.49l-6.85 3.98-2.84 1.64-.5.27c-.41.32-.17.04.15.06.44.04.2.6.27-.42.17-2.65-.17-6.15-2.73-7.61-2.48-1.43-5 .5-7.05 1.83a101 101 0 0 0-12.54 9.88 167 167 0 0 0-12.51 12.48c-2.07 2.3 1.32 5.7 3.39 3.4m-2.92 101.95c9.6 9.88 23.51 15.55 36.91 17.74a79 79 0 0 0 44.78-5.7 57 57 0 0 0 17.82-12.04c2.15-2.22-1.24-5.61-3.4-3.4-8.8 9.07-21.36 14.15-33.6 16.33a73.5 73.5 0 0 1-42.22-5.05 53 53 0 0 1-16.9-11.27c-2.15-2.22-5.54 1.17-3.38 3.4" class="c"/><path d="M66.6 146.35c.54-4.92.98-9.52 1.7-15.23.16-1.23.4-3.67-.3-4.7-1.43-2.1-4.73-2.76-6.63-1.02a11.4 11.4 0 0 0-3.34 6.43c-2.53 11.8-5.34 27.65-5.72 38.78-.29 6.2 2.81 12.06 4.86 17.07 1.48 3.6 3.4 6.16 3.7 10.05a20 20 0 0 1-1.15 7.86 58 58 0 0 1-3.87 8.4l-6.05 11.38-.25.48a146 146 0 0 0 30.92 6.9 33 33 0 0 0 4.47-12.23c.31-2.1.45-4.3 1.48-6.15a23 23 0 0 1 2.48-3.18c4.9-6.03 5.9-18.9 5.85-26.77.37-3.53 2-7.63 3.5-11.03 2-4.47 4.42-9.4 6.38-14.45a3.8 3.8 0 0 0-.6-3.4 5 5 0 0 0-2.67-1.56 5.3 5.3 0 0 0-3.93.42l-1.36.76q2.03-3.15 4.08-6.26a9.4 9.4 0 0 0 1.5-6.9 4.4 4.4 0 0 0-2.22-2.68 7.8 7.8 0 0 0-6.62-.22s-.47.2-1.22.54a8.4 8.4 0 0 0 1.14-3.64 4.9 4.9 0 0 0-2.65-4.9 5.4 5.4 0 0 0-4.47.33 17 17 0 0 0-4.95 4.37 250 250 0 0 0-15.3 20.72c.52-3.77.9-7.04 1.24-10.17" class="a"/><path d="M54.71 170.62c.39-10.62 2.26-21.21 4.3-31.62.5-2.5.92-5.04 1.58-7.5.41-1.55 1.42-4.54 3.36-4.71a3 3 0 0 1 1.74.62c.34.26.2.07.3.37a5 5 0 0 1 .07 1.6c-.1 2.57-.58 5.16-.87 7.73-.69 6.2-1.28 12.4-2.12 18.58a2.5 2.5 0 0 0 1.68 2.95 2.4 2.4 0 0 0 2.95-1.68c.87-6.4 1.52-12.81 2.22-19.22.32-2.88.9-5.8.95-8.7a6.4 6.4 0 0 0-4.16-6.51 6.8 6.8 0 0 0-7.6 1.74c-2.16 2.31-3.02 5.2-3.66 8.22a354 354 0 0 0-3.36 18.14 169 169 0 0 0-2.17 20c-.12 3.08 4.68 3.08 4.8 0Z" class="c"/><path d="M65.74 160.26q4.5-6.81 9.31-13.4 2.3-3.15 4.72-6.2a49 49 0 0 1 4.72-5.49c1.1-1.02 3-2.6 4.64-1.87 1.37.6 1.34 2.5 1 3.7-.64 2.28-2.54 4.28-3.9 6.17q-2.34 3.28-4.65 6.59-5.17 7.41-10.4 14.79a2.4 2.4 0 0 0 .86 3.28 2.45 2.45 0 0 0 3.28-.86c3.55-4.97 7.03-9.99 10.54-14.98q2.57-3.67 5.17-7.3c1.7-2.37 3.53-4.67 3.98-7.63a7.8 7.8 0 0 0-2.24-7.03 7.2 7.2 0 0 0-7.76-.96 17 17 0 0 0-5.78 4.71q-2.92 3.47-5.66 7.08a313 313 0 0 0-11.98 16.98c-1.71 2.58 2.45 4.99 4.15 2.42" class="c"/><path d="M93.45 141.41a5.8 5.8 0 0 1 4.36-.22 2.2 2.2 0 0 1 1.57 2.31c.05 3.3-2.57 6.12-4.28 8.75-4.03 6.21-8.01 12.45-12.18 18.56-1.74 2.56 2.41 4.97 4.14 2.43 4.9-7.17 9.51-14.51 14.27-21.76a16 16 0 0 0 2.6-5.45c.43-2.1.48-4.68-.8-6.5-2.37-3.42-7.25-4.23-10.95-2.74a2.47 2.47 0 0 0-1.68 2.95 2.4 2.4 0 0 0 2.95 1.68Zm-1.1 43.01a70 70 0 0 1-1.75 17.13 23 23 0 0 1-3 7.4c-.78 1.17-1.94 2.26-2.82 3.53a12.5 12.5 0 0 0-1.86 5.3 37 37 0 0 1-3.6 12.16c-1.44 2.73 2.7 5.16 4.15 2.43a36 36 0 0 0 3.82-11.42 17 17 0 0 1 1.11-5.18c.73-1.47 2.06-2.6 3.01-3.93 3.57-4.93 4.61-11.58 5.25-17.49a90 90 0 0 0 .5-9.93c-.01-3.09-4.81-3.1-4.8 0m-42.44-13.8a28 28 0 0 0 2.17 11.04c1.3 3.38 2.73 6.78 4.32 10.04 1.47 3.02 2.47 5.9 2 9.31-.52 3.69-2.2 7.12-3.9 10.39q-3.35 6.39-6.77 12.76c-1.44 2.73 2.7 5.16 4.15 2.43l6.15-11.6a48 48 0 0 0 4.65-11 18.4 18.4 0 0 0-.6-11.33c-1.36-3.34-3-6.58-4.41-9.9-1.65-3.87-3.1-7.89-2.96-12.14.1-3.09-4.7-3.08-4.8 0" class="c"/><path d="M98.65 156.47c1.5-.75 4.34 0 3.59 2.06-1.1 2.98-2.5 5.87-3.82 8.76-2.52 5.5-5.36 11.05-6.06 17.13a2.4 2.4 0 0 0 2.4 2.4 2.46 2.46 0 0 0 2.4-2.4 34 34 0 0 1 3.1-9.62c1.51-3.43 3.13-6.8 4.63-10.23 1.4-3.24 3.57-6.9 1.23-10.25-2.17-3.1-6.7-3.59-9.89-2-2.76 1.38-.33 5.53 2.42 4.15m-57.02 68.72a85 85 0 0 0 15.55 5.52 148 148 0 0 0 20.32 4.11 71 71 0 0 0 10.39.66l-2.32-3.04q-3.16 9.37-6.25 18.78c-.96 2.94 3.68 4.2 4.63 1.27 2.04-6.27 4.16-12.52 6.25-18.77a2.42 2.42 0 0 0-2.31-3.04 87 87 0 0 1-18.21-1.96 146 146 0 0 1-18.53-4.85 54 54 0 0 1-7.1-2.83c-2.75-1.37-5.19 2.77-2.42 4.15" class="c"/><path d="M145.8 115.46c1.47.14 3.09.67 4.56.52 2.67-.28 5.36-3.45 8-1.51 2.45 2.23.2 6.27-1.85 7.77a9.5 9.5 0 0 1-6.56 1.66c-2-.16-4.2-.37-5.8-1.57-3.03-2.12-2.78-7.43 1.65-6.87m-5.26 24.16q.3.3.56.63c.14.16.16.2.02 0l.25.35a15 15 0 0 1 .94 1.51q.2.37.38.75c.02.05.2.45.1.2l.07.2a15 15 0 0 1 .55 1.7 15 15 0 0 1 .32 1.65q-.04-.37 0-.01l.03.42.03.84q0 .9-.08 1.78c-.02.37.07-.37 0-.01l-.07.41-.2.93a2.4 2.4 0 1 0 4.63 1.27 17.5 17.5 0 0 0-4.13-16.02 2.4 2.4 0 0 0-3.4 0 2.45 2.45 0 0 0 0 3.4m-38.36-23.84a15 15 0 0 1-3.24 1.62c-2.05.39-4.98-1.9-6.38.56-1.16 2.68 1.38 5.17 3.34 6.06a7.8 7.8 0 0 0 6 .07 6 6 0 0 0 3.24-2.8c1.62-2.73.16-7.12-2.96-5.5" style="fill:#a0a0a0"/></svg>
