<svg xmlns="http://www.w3.org/2000/svg" viewBox="-151.85 0 431.813 431.813"><defs><style>.a{fill:#fff}.b{fill:#211715}</style></defs><path d="M42.98 78.34q-.7-.75-1.38-1.56a34 34 0 0 1-6.44-12.16 4.8 4.8 0 0 1-4.11-1.03 13.5 13.5 0 0 1-3.96-6.43c-.85-2.5-.9-6.54.36-8.73a4.1 4.1 0 0 1 3.72-2.07 4.5 4.5 0 0 1 3.23 1.18s-3.75-26.98 28.57-26.98c29 0 29.9 21.71 29.8 26.18a5 5 0 0 1 2-.38 4.1 4.1 0 0 1 3.72 2.07c1.27 2.19 1.21 6.23.36 8.73a13.5 13.5 0 0 1-3.96 6.43 5 5 0 0 1-3.8 1.1l-.36-.06a29 29 0 0 1-1.3 3.54c-.97 2.62-6.3 11.82-13.07 15.4a37 37 0 0 0 .5 3.86c.36 2.02.24 3.82 3.05 4.83l4.14 1.92c-2.1 2.82-6.57 9.43-19.48 9.43-13.52 0-17.99-7.7-19.94-10.04 1.41-.72 2.5-1.29 2.56-1.3 2.8-1.02 2.68-2.82 3.05-4.84.2-1.17.36-2.25.45-3.38a23.5 23.5 0 0 1-7.71-5.71" class="a"/><path d="M41.4 97.38q2.4-1.12 4.75-2.34l1.6-.83.37-.19c.1-.06.31-.18-.21.1.3-.17.66-.27.97-.43a5.7 5.7 0 0 0 3-3.93 47 47 0 0 0 .82-5.71 2 2 0 0 0-2-2 2.05 2.05 0 0 0-2 2l-.13 1.24q-.1.75-.24 1.49-.13.96-.32 1.91a4 4 0 0 0-.24.83c-.02-.22.18-.36 0-.04l-.12.2q-.19.27.09-.1l-.28.3q-.24.2.08-.05l-.25.17q-.2.13-.42.24-.3.14-.03.02-.33.12-.66.27c-2.29 1.08-4.5 2.33-6.8 3.4a2 2 0 0 0-.72 2.73 2.06 2.06 0 0 0 2.73.72Zm46.4-3.67-4.44-2.06c-.96-.44-1.91-.93-2.9-1.32-.56-.22.15.11-.12-.04l-.5-.28-.25-.16q.32.26.08.05l-.27-.28q.27.37.09.1l-.23-.38c.17.3-.03-.12-.05-.2l-.12-.48q-.17-.88-.3-1.77c-.2-1.2-.28-1.71-.38-2.84a2 2 0 0 0-4 0 49 49 0 0 0 .82 5.68 5.7 5.7 0 0 0 3.01 3.98l.75.31.37.17 1.71.8 4.73 2.18a2.05 2.05 0 0 0 2.73-.72 2.03 2.03 0 0 0-.71-2.73Z" class="b"/><path d="M45.2 37.5a86 86 0 0 0-6.23 6.2l-4.57 3.84a4.5 4.5 0 0 0-3.23-1.18 5 5 0 0 0-1.4.22 38 38 0 0 1-1.4-11.3A34.2 34.2 0 0 1 42.52 8.5 33.5 33.5 0 0 1 62.9 2a34 34 0 0 1 21.15 7.06c6.39 4.83 12.8 13.12 13.36 26.22a36 36 0 0 1-1.36 11.26 6 6 0 0 0-1.27-.18 4.5 4.5 0 0 0-3.23 1.18l-4.53-3.6c-1.46-3.67-4.77-7.74-8.21-10.7a18 18 0 0 0-5.23-3.3l-5.67-.7c-3.83 1.62-9.23 5-12.26 6.69a1.04 1.04 0 0 1-1.48-1.11 6 6 0 0 0-.13-2c-.2-.83-.84-1.18-1.34-.92a41 41 0 0 0-7.5 5.6" style="fill:#85807f"/><path d="M35.82 46.13a6.9 6.9 0 0 0-7.5-1.13 6.5 6.5 0 0 0-3.41 4.4 16.4 16.4 0 0 0 2.38 12.94c1.68 2.5 4.33 4.75 7.55 4.33a2.07 2.07 0 0 0 2-2 2 2 0 0 0-2-2c-2.26.3-3.74-1.57-4.72-3.38a13 13 0 0 1-1.6-4.98 12 12 0 0 1 .08-3.1 5 5 0 0 1 .78-2.1c-.32.5.51-.46.23-.25a2 2 0 0 1 .95-.43 2.7 2.7 0 0 1 2.42.51c1.92 1.71 4.76-1.1 2.83-2.82Zm57.14 2.82a2.6 2.6 0 0 1 2.28-.54 2 2 0 0 1 1.1.46c-.3-.2.53.73.22.24a5 5 0 0 1 .78 2.1 12 12 0 0 1 .07 3.1 13 13 0 0 1-1.6 4.99c-.97 1.8-2.45 3.67-4.7 3.38a2 2 0 0 0-2 2 2.05 2.05 0 0 0 2 2c5.23.68 8.44-4.97 9.75-9.2 1.17-3.8 1.12-9.69-2.6-12.12a6.8 6.8 0 0 0-8.13.76c-1.92 1.72.91 4.54 2.83 2.83" class="b"/><path d="M89.34 62a29 29 0 0 1-1.3 4.33c-.19.5-.35.83-.58 1.4-.2.5.14-.28-.03.08l-.19.4a37 37 0 0 1-3.17 5.29c-2.77 3.92-6.55 8.2-11.41 9.34-2.5.58-1.44 4.44 1.06 3.85 5.75-1.35 10.16-6.14 13.5-10.74a38 38 0 0 0 3.44-5.65q.31-.64.58-1.3c.21-.52-.15.35.08-.18l.43-1.04a29 29 0 0 0 1.45-4.72c.52-2.52-3.33-3.59-3.86-1.07m-56.68.95c2.46 10.82 10.6 22.6 22.29 24.37a2.06 2.06 0 0 0 2.46-1.4 2 2 0 0 0-1.4-2.46C45.6 81.9 38.7 71.48 36.5 61.9c-.57-2.5-4.42-1.45-3.85 1.06m50.3-57.08a37.6 37.6 0 0 0-35.3-2.7A36.6 36.6 0 0 0 28.2 24.87a39 39 0 0 0-.5 21.74c.64 2.5 4.5 1.44 3.86-1.06-2.65-10.44-.72-21.78 6.4-30.07a33 33 0 0 1 42.97-6.14c2.17 1.4 4.17-2.06 2.02-3.46M98.09 46.6a39.7 39.7 0 0 0-.64-22.25A35 35 0 0 0 87.8 9.6c-1.9-1.73-4.74 1.09-2.83 2.83a31 31 0 0 1 8.61 12.98 35.7 35.7 0 0 1 .64 20.12c-.61 2.5 3.25 3.57 3.86 1.07Zm-40.7 25.54a12 12 0 0 0 5.88 1.37 9.7 9.7 0 0 0 6.05-1.83 2 2 0 0 0 0-2.83 2.06 2.06 0 0 0-2.83 0c.69-.53-.04 0-.26.11-.16.1-.62.23 0 .02l-.47.18q-.3.1-.62.16a5 5 0 0 0-.72.14c.2-.08.32-.04.02 0a11 11 0 0 1-1.35.05q-.43 0-.85-.03l-.4-.03-.21-.03q-.24-.02.17.03c-.09.05-.52-.1-.64-.12l-.6-.16q-.27-.08-.52-.18c-.46-.15.41.2 0 .01q-.32-.15-.63-.32a2 2 0 1 0-2.02 3.46m4.62-13.54a26 26 0 0 1 .62 2.84l-.07-.53v.39l.08-.53-.05.17.2-.48-.06.12.32-.4-.1.09.4-.32-.22.12.48-.2-.38.11.54-.07h-.36l.53.07-.4-.06a2.2 2.2 0 0 0-1.54.2 2 2 0 0 0-.72 2.73 2 2 0 0 0 1.2.92c.36.05.7.14 1.06.15a3.5 3.5 0 0 0 1.62-.39 2.5 2.5 0 0 0 1.32-1.6 4 4 0 0 0-.01-1.67q-.25-1.36-.6-2.7a2 2 0 0 0-2.46-1.4 2 2 0 0 0-1.2.91 2 2 0 0 0-.2 1.54Zm-14.45-8.16c-.48 1.53-.17 5.07 2.75 5.37 3.84-.02 4.05-4.3 2.75-6.3-1.06-1.65-4.18-2.34-5.5.93m30.83 0c.47 1.53.16 5.07-2.75 5.37-3.85-.02-4.06-4.3-2.76-6.3 1.06-1.65 4.18-2.34 5.5.93m-5.83-18.77a22 22 0 0 1 7.27 5.3 31 31 0 0 1 3.02 3.62 26 26 0 0 1 1.83 3.02l.27.58.13.29a2.06 2.06 0 0 0 2.46 1.4 2 2 0 0 0 1.4-2.46 30 30 0 0 0-6.11-9.1 26 26 0 0 0-8.25-6.1 2.06 2.06 0 0 0-2.74.72 2 2 0 0 0 .72 2.73" class="b"/><path d="M40.38 45.12a83 83 0 0 1 7-6.88 45 45 0 0 1 3.92-3.13 22 22 0 0 0 1.89-1.2l.26-.14q-1.68-1.15-1.28-.06a7 7 0 0 0-.01 1.27 3.07 3.07 0 0 0 3.73 2.98 17 17 0 0 0 3.95-2.15 83 83 0 0 1 9.06-4.84 2 2 0 0 0 .72-2.73 2.05 2.05 0 0 0-2.74-.72 85 85 0 0 0-9.21 4.93l-2.04 1.19a4 4 0 0 0-.77.43q1.39 1.58 1.33.4a5 5 0 0 0-.02-.76c-.12-1.82-1.02-3.88-3.15-3.88-1.42 0-2.9 1.24-4.01 2.02a56 56 0 0 0-4.17 3.3 82 82 0 0 0-7.29 7.14c-1.72 1.9 1.1 4.74 2.83 2.83" class="b"/><path d="M91.5 425.87c-1.93-1.34-5.54-3.9-8.72-6.14-2.7-1.91-5.1-3.6-5.87-4.08-4.92-3.11-4.37-7.36-4.26-10.26a60 60 0 0 1 .37-6.03s.36-2.47.72-5.02a43 43 0 0 0 10.04 1.22 55 55 0 0 0 10.34-.92l3.2 5.08c.24.24 4.46 4.97 4.46 4.97 3.2 3.32 6.71 6.58 9.9 9.8a11.2 11.2 0 0 1 3.63 7.92 6.8 6.8 0 0 1-3.18 5.08 13 13 0 0 1-5.77 2.06 21.6 21.6 0 0 1-13.57-2.82c-.19-.11-.65-.42-1.3-.87m-75.75 1.99-.56-.37a6.8 6.8 0 0 1-3.22-5.07c-.07-3.05 1.58-5.83 3.68-7.93 3.24-3.22 6.8-6.48 10.03-9.8 0 0 4.28-4.73 4.52-4.97l3.91-5.04a54 54 0 0 0 10.12.89 43 43 0 0 0 9.96-1.2l.63 5a59 59 0 0 1 .38 6.02c.11 2.9.67 7.15-4.32 10.26-.78.49-3.2 2.17-5.94 4.08-4.3 3-9.39 6.57-10.14 7a22 22 0 0 1-13.76 2.82 14 14 0 0 1-5.3-1.7" class="a"/><path d="M95.9 401.13c2.75 2.92 5.34 5.92 8.2 8.73l4.15 4.04a24 24 0 0 1 3.65 4.02 8.4 8.4 0 0 1 1.39 3.7 4.4 4.4 0 0 1-1.71 3.77c-2.5 2.21-6.3 2.52-9.48 2.27a19 19 0 0 1-8.69-2.9c-5.06-3.29-9.84-7.02-14.84-10.4-2.36-1.59-3.89-3.3-3.99-6.24a49 49 0 0 1 .37-8.22 2.07 2.07 0 0 0-1.4-2.46 2 2 0 0 0-2.46 1.4 63 63 0 0 0-.52 8.76 11 11 0 0 0 3.29 8.23 32 32 0 0 0 3.66 2.66q2.4 1.65 4.77 3.35c2.84 2 5.67 4.04 8.55 6 5.84 4 14.6 5.43 21.06 2.14 3.28-1.67 5.76-4.94 5.35-8.73-.44-4.12-3-7.04-5.84-9.83-2.88-2.84-5.93-5.57-8.63-8.6-1.35-1.5-2.66-3.03-4.05-4.5-1.76-1.88-4.59.95-2.82 2.83Zm-67.11-2.82c-1.28 1.34-2.5 2.74-3.75 4.12-2.1 2.31-4.39 4.44-6.64 6.6-2.93 2.81-6.24 5.52-7.73 9.42a8.6 8.6 0 0 0 2.52 10c6.1 5.1 16.34 3.84 22.73-.06 5.47-3.34 10.48-7.44 15.85-10.94a11.1 11.1 0 0 0 5.48-8.9 48 48 0 0 0-.5-9.72 2 2 0 0 0-2.46-1.4 2.05 2.05 0 0 0-1.4 2.46 59 59 0 0 1 .38 7.37 7 7 0 0 1-2.58 6.1c-2.3 1.8-4.89 3.32-7.28 5q-3.94 2.75-7.9 5.48c-4.94 3.39-11.8 5.3-17.6 2.88a7.2 7.2 0 0 1-3.43-2.76 4.7 4.7 0 0 1-.1-4.09c1.14-3.23 4.28-5.57 6.67-7.86 2.3-2.21 4.66-4.4 6.8-6.76q1.84-2.09 3.75-4.12c1.77-1.87-1.05-4.7-2.83-2.83Z" class="b"/><path d="M60.41 311.1a4856 4856 0 0 0-3.23 82.04c-2.6 1.67-8.28 2.35-12.95 2.42a68 68 0 0 1-16.74-2.28c-2.3-52.56-4.65-111.08-6.1-164.57 22.09.07 57.38-.04 84.84.02-1.4 53.66-3.4 111.63-5.71 164.55a68 68 0 0 1-16.74 2.28c-4.68-.07-10.35-.76-12.96-2.42-1.47-46.33-3.43-93.25-6.63-141.77h-.37q-2 30.24-3.4 59.73" style="fill:#3d8dcc"/><path d="M104.53 216.79q-.99 40.2-2.33 80.38-1.35 40.5-3.04 81l-.46 10.98a24 24 0 0 0-.12 2.72l.47-.3-.94.22-1.42.31q-2.82.62-5.67 1.01a51 51 0 0 1-11.08.26c-2.67-.23-5.77-.53-8.11-1.96l1 1.73q-.87-27.3-2-54.6-1.16-27.75-2.7-55.49-.9-15.84-1.94-31.68c-.17-2.56-4.17-2.58-4 0q2.38 36.07 3.99 72.19.8 17.7 1.46 35.42.33 8.74.63 17.47l.3 9.06.13 4.05.07 2.15a5 5 0 0 0 .32 2.43c.53.9 1.82 1.33 2.74 1.68a20 20 0 0 0 3.2.88 48 48 0 0 0 7.56.83 58 58 0 0 0 17.29-2.05c3.17-.87 2.72-4.14 2.83-6.79l.35-8.22.7-17.11q1.4-34.75 2.54-69.51 1.13-34.44 2.02-68.87l.2-8.2c.06-2.57-3.94-2.57-4 0Z" class="b"/><path d="M61.82 251.37q-1.85 28.06-3.23 56.16-1.37 27.52-2.36 55.05-.57 15.28-1.05 30.56l1-1.73c-2.07 1.26-4.74 1.6-7.1 1.86a50 50 0 0 1-9.67.11q-2.62-.23-5.21-.71c-.36-.06-5.21-.94-5.2-1.08l.41.44a4 4 0 0 0 0-.65l-.05-.89-.1-2.45-.23-5.16q-.86-19.98-1.67-39.96-1.67-41.2-3.02-82.4-.72-22.45-1.28-44.9c-.06-2.57-4.06-2.58-4 0q.84 34.27 2.07 68.53 1.22 34.74 2.67 69.46.7 17 1.44 33.98l.17 4.02a3.8 3.8 0 0 0 1.53 3.38 11 11 0 0 0 3.82 1.08q2.25.46 4.52.8a53 53 0 0 0 16.73 0 17 17 0 0 0 5.96-1.87c1.42-.86 1.23-2.3 1.27-3.77l.16-4.76.6-17.67q.63-17.78 1.4-35.56 1.57-36.48 3.84-72.92.28-4.48.58-8.95c.17-2.57-3.83-2.56-4 0" class="b"/><path d="M21.51 103.45c-10.63 7-13.14 16-15.38 25.73a172 172 0 0 0-3.96 25.07c-.86 8.74 1.45 16.1 9.03 17.19l8.96 1.28-.67 13.87c-.41 8.44-1.38 30.58-1.38 40.23a2.1 2.1 0 0 0 2.27 1.88c22.29.08 58.86-.04 86.9.03a2.27 2.27 0 0 0 2.48-2.04c-.2-8.97-.93-30.42-1.26-40.47a54 54 0 0 0 8.48-5.7c7.86-6.65 9.78-16.16 8.95-31.08 0-8.42-3.03-23.29-4.45-28.52a33 33 0 0 0-9.03-15.27c-1.86-1.82-5.95-3.88-7.13-4.49a105 105 0 0 0-20.42-7s-.29-.07-.71-.17c-2.05 2.73-6.43 9.62-19.61 9.62-13.36 0-17.88-7.53-19.88-9.95l-.22.05a140 140 0 0 0-14.5 5.2 50 50 0 0 0-8.1 4.3Z" class="a"/><path d="M43.95 91.79a86 86 0 0 0-8.8 2.94 99 99 0 0 0-9.01 3.74c-6.83 3.37-12.99 8.2-16.72 14.93-3.33 6-4.78 12.88-6.16 19.53q-1.27 6.08-2.1 12.24A91 91 0 0 0 0 157.72a19.7 19.7 0 0 0 2.47 10.26 11.7 11.7 0 0 0 8.2 5.39 2.06 2.06 0 0 0 2.46-1.4 2 2 0 0 0-1.4-2.46 7.9 7.9 0 0 1-5.81-3.55A15 15 0 0 1 4 158.24a79 79 0 0 1 .98-11.7q.73-5.7 1.88-11.32c1.22-6.1 2.43-12.54 5.16-18.17 3.07-6.33 8.15-10.8 14.25-14.15a72 72 0 0 1 9.3-4.07A90 90 0 0 1 45 95.64c2.49-.64 1.43-4.5-1.07-3.86Zm83.98 57.65a94 94 0 0 0-1.61-15.1c-.75-4.43-1.6-8.87-2.72-13.22a36 36 0 0 0-7.79-14.82c-3.1-3.54-7.14-5.87-11.4-7.77a104 104 0 0 0-18.97-6.3c-2.5-.57-3.58 3.28-1.07 3.86a106 106 0 0 1 16.58 5.28c3.7 1.51 7.84 3.38 10.66 6.27a31.7 31.7 0 0 1 8 13.98c1.03 3.9 1.8 7.87 2.52 11.84a94 94 0 0 1 1.8 15.98c.01 2.57 4.01 2.58 4 0m-21.5 34.78q.51 15.08.98 30.15l.23 7.56.08 3.03c0 .44-.02.89.03 1.32 0 .09-.09.5.03.34.1-.12-.21.1-.31.1-3.2.13-6.44 0-9.64 0h-10.3l-41.08.01H27.81l-3.99-.01a21 21 0 0 1-3.63-.04c-.1-.02-.24-.08-.08.15a2 2 0 0 1 0-.68v-1.45l.07-3.57c.24-11.52.75-23.03 1.3-34.53.13-2.58-3.87-2.57-4 0-.52 10.74-.98 21.5-1.25 32.25q-.1 3.6-.12 7.19a4.2 4.2 0 0 0 1.65 3.84c1.34.94 2.9.83 4.47.83q9.17.03 18.33.02 21.49 0 42.97-.02l21.04.02c1.68 0 3.55.25 5.07-.6a4.1 4.1 0 0 0 2.1-3.84c-.01-2.16-.1-4.32-.17-6.47q-.48-16.43-1.05-32.84l-.09-2.75c-.08-2.57-4.08-2.58-4 0Z" class="b"/><path d="M42.83 94.56a7 7 0 0 1 .6.67l.2.27c-.32-.41-.16-.2-.08-.12l.73.95a27 27 0 0 0 2.46 2.78 23 23 0 0 0 9.6 5.44c8.48 2.38 18.98 1.19 25.65-4.92a25 25 0 0 0 2.95-3.31l.94-1.26c.3-.42-.3.3.12-.15q.15-.18.32-.35c1.87-1.77-.96-4.6-2.83-2.82a14 14 0 0 0-1.5 1.89l-.37.5c-.07.09-.29.36-.01 0l-.2.25q-.55.68-1.13 1.32a17 17 0 0 1-7.5 4.74c-7.48 2.4-17.08 1.5-22.9-3.87a25 25 0 0 1-2.64-2.89l-.23-.29c-.3-.38.27.34-.01-.02l-.65-.84a7 7 0 0 0-.7-.8c-1.86-1.76-4.7 1.07-2.82 2.84Z" class="b"/><path d="M44.2 120.26c7.93.06 10.26-3.72 12.27-6.59 2.16-3.07 2.27-6.84 1.45-10.7-.5-2.34-1.1-4.87-1.55-7.44-.96-6.36-4.13-12.9-10.4-15.45a23 23 0 0 0-10.47-1.54c-14.68 1.2-22.35 8.21-22 21.82a28.4 28.4 0 0 0 3.72 13.17c1.61 2.7 5.24 5.64 8.97 7.24" class="a"/><path d="M52.49 112.93a12 12 0 0 1 1.47-.33 2.2 2.2 0 0 0 1.2-.91 1.5 1.5 0 0 0 .24-.75 1.5 1.5 0 0 0-.04-.8l-.2-.48a2 2 0 0 0-.72-.71l-.48-.2a2 2 0 0 0-1.06 0 12 12 0 0 0-1.47.33 1.9 1.9 0 0 0-1.43 1.66 1.5 1.5 0 0 0 .03.8l.2.48a2 2 0 0 0 .72.72l.48.2a2 2 0 0 0 1.06 0Zm-9.66-9.16a7 7 0 0 1 1.49-.4l-.53.07a3 3 0 0 1 .71-.03 2.05 2.05 0 0 0 2-2l-.07-.53a2 2 0 0 0-.51-.88l-.4-.31a2 2 0 0 0-1.01-.28 3 3 0 0 0-.5 0 10 10 0 0 0-1.08.15 7 7 0 0 0-1.16.34 2.2 2.2 0 0 0-1.2.92 1.5 1.5 0 0 0-.24.75 1.5 1.5 0 0 0 .04.8 2 2 0 0 0 .92 1.2l.47.2a2 2 0 0 0 1.07 0m11.69-1.94a5 5 0 0 1 1.16-.27l-.53.07a4 4 0 0 1 .83-.04 2.05 2.05 0 0 0 2-2l-.07-.54a2 2 0 0 0-.52-.88l-.4-.31a2 2 0 0 0-1.01-.27 7 7 0 0 0-1.5.13 5 5 0 0 0-1.02.25 2.2 2.2 0 0 0-1.2.92 1.5 1.5 0 0 0-.24.74 1.5 1.5 0 0 0 .03.8l.2.48a2 2 0 0 0 .72.72l.48.2a2 2 0 0 0 1.06 0Zm-22.34 1.78a5.4 5.4 0 0 0-6.06.63 6.4 6.4 0 0 0-1.64 6.04 9.2 9.2 0 0 0 3 4.87 9.5 9.5 0 0 0 5.5 2.37 2 2 0 0 0 2-2 2.05 2.05 0 0 0-2-2c-.5-.04.26.08-.17-.02l-.57-.13-.57-.2q-.44-.22-.86-.47a1 1 0 0 1-.36-.25l.18.14-.22-.18a9 9 0 0 1-.68-.64l-.33-.37c-.36-.4.2.33-.1-.1a9 9 0 0 1-.52-.84l-.22-.43c.21.43-.02-.1-.06-.2q-.07-.22-.12-.46c-.02-.06-.1-.58-.06-.28s-.01-.23-.01-.29a2 2 0 0 1 .02-.55l-.03.21.07-.32q.05-.24.14-.48c.11-.39-.17.24.06-.13.05-.08.35-.45.06-.15l.32-.31q-.3.22-.12.1l.18-.11c.36-.22-.33.06.05-.03.05 0 .36-.14.41-.1q-.44.05-.1.02h.14c.08 0 .36-.05.43.01q-.44-.06-.1 0l.2.06c.5.14-.23-.14.13.03a2 2 0 1 0 2.02-3.45Z" class="b"/><path d="M44.2 122.26c4.1 0 8.18-.99 11.16-3.96a16.2 16.2 0 0 0 5-10.29 30 30 0 0 0-1.1-8.28c-.54-2.49-.89-5.04-1.52-7.5a21.5 21.5 0 0 0-6.82-11.48c-4.07-3.3-9.6-4.53-14.76-4.25a36 36 0 0 0-12.12 2.62 19.9 19.9 0 0 0-12.16 15.5 30.6 30.6 0 0 0 1.63 15.71 20 20 0 0 0 4.33 7.14 24 24 0 0 0 7.35 5.03 2.06 2.06 0 0 0 2.74-.72 2 2 0 0 0-.72-2.73 17.7 17.7 0 0 1-9.4-8.7 27 27 0 0 1-2.28-12.45c.3-5.76 2.7-11 7.8-13.98a26 26 0 0 1 9.2-3.04c4.3-.69 8.9-.65 12.94 1.14 8.15 3.6 8.81 13.46 10.43 21.04a14 14 0 0 1-.01 7.37 14 14 0 0 1-2.45 4.03c-2.37 2.87-5.54 3.79-9.23 3.8-2.58 0-2.58 4 0 4Z" class="b"/><path d="M41.38 89.33a5 5 0 0 1-.31 1.34l.2-.48a3 3 0 0 1-.38.63l.32-.41a6 6 0 0 1-.98.93l.4-.32a7 7 0 0 1-1.35.89l.48-.2a2 2 0 0 1-.43.11l.53-.07h-.26a2 2 0 0 0-1.41 3.41 2.2 2.2 0 0 0 1.41.59 4 4 0 0 0 2.34-.75 16 16 0 0 0 1.53-1.17 5 5 0 0 0 1.17-1.45 6 6 0 0 0 .6-1.98 2.2 2.2 0 0 0-.2-1.55 2 2 0 0 0-2.74-.71 2 2 0 0 0-.92 1.2Zm6.3-.54a5 5 0 0 1-.05.67l.07-.53a5 5 0 0 1-.35 1.3l.2-.49a6 6 0 0 1-.71 1.22l.3-.4a5 5 0 0 1-.94.95l.4-.32a4 4 0 0 1-.67.43l.48-.2-.2.05.53-.07h-.1l.54.07h-.05l.48.2-.04-.03.4.32-.03-.03.31.4-.01-.03.2.48-.02-.04a2.2 2.2 0 0 0-.91-1.2 2 2 0 0 0-1.55-.2 2 2 0 0 0-1.2.91 2 2 0 0 0-.2 1.55 2.3 2.3 0 0 0 1.03 1.31 2.4 2.4 0 0 0 1.69.21 3 3 0 0 0 1.12-.52 8 8 0 0 0 1.9-1.84 7 7 0 0 0 1.37-4.17 2 2 0 0 0-.59-1.41 2 2 0 0 0-3.41 1.41Z" class="b"/><path d="M46.16 188.43c-9.76.18-18.9-5.88-24-14.01s-6.4-17.45-5.97-27a40 40 0 0 1 2.97-14.58c2.47-4.87 5.27-10.06 10.2-12.4a20 20 0 0 1 9-1.47c8.65.23 16.66 2.58 21.83 8.45l4.22 4.65" style="fill:#afd8f0"/><path d="m64.42 132.07-3.45-3.8-.5-1.4c-.95-2.67-.59-6.76 2.68-7.4.67-1.69 2.12-2.41 3.81-2.95a8.3 8.3 0 0 1 9.54 4.04c2.21 3.81 2.12 9.07-1.92 11.68" class="a"/><path d="m64.59 159.19.6.02c.1 0 .72.09.23 0a9 9 0 0 1 1 .22q.5.14.97.32.32.13-.01 0l.23.1.45.24a11 11 0 0 1 .94.58c.04.03.5.37.15.1l.4.32a11 11 0 0 1 1.2 1.22c.07.07.39.47.13.13a11 11 0 0 1 1.13 1.82q.14.27.26.55c-.14-.33 0 .02.05.16a10 10 0 0 1 .42 1.47c0 .06.1.68.07.4l.03.41a9 9 0 0 1-.03 1.53c-.03.47.08-.28-.02.14l-.15.67a2 2 0 1 0 3.85 1.07c1.9-7.4-4.25-15.43-11.9-15.47a2 2 0 0 0 0 4m11-25.23a10.2 10.2 0 0 0 3.71-12.02c-1.58-4.57-5.93-8.29-10.98-7.72-2.7.3-5.76 1.58-6.9 4.24l1.2-.92c-4.37.96-5.35 6.17-4.08 9.86a2.05 2.05 0 0 0 2.46 1.4 2 2 0 0 0 1.4-2.46 9 9 0 0 1-.35-1.37c.08.41-.02-.28-.02-.38a8 8 0 0 1 0-.84l.02-.36c.04-.32-.06.3.01-.01l.17-.7.09-.24c-.12.34-.04.07 0 0l.17-.3c.06-.1.37-.43.1-.14.1-.1.54-.46.22-.25.12-.08.65-.31.32-.2.27-.1.54-.14.8-.25a2.3 2.3 0 0 0 1.15-1.24 2 2 0 0 1 .7-.83 5 5 0 0 1 1.4-.67 6 6 0 0 1 5.82.95 7.4 7.4 0 0 1 2.13 2.71 6 6 0 0 1 .47 1.28l.18.7.08.42c.12.6 0-.33.04.29a10 10 0 0 1 0 1.84c.02-.3-.1.45-.13.56a8 8 0 0 1-.26.87c.1-.28-.02.03-.04.08q-.12.27-.28.53l-.22.35-.11.17q.14-.15 0 0a6 6 0 0 1-1.3 1.2 2.05 2.05 0 0 0-.72 2.73 2 2 0 0 0 2.74.72Z" class="b"/><path d="M46.16 186.43c-7.99.08-15.3-4.15-20.28-10.23-5.67-6.92-7.67-16.07-7.76-24.82a50 50 0 0 1 1.48-13.84 33 33 0 0 1 5.73-11.19 15 15 0 0 1 4.36-3.83 14.6 14.6 0 0 1 6.47-1.54 38 38 0 0 1 12.45 1.55 22.4 22.4 0 0 1 10.2 6.34l4.2 4.62c1.73 1.9 4.55-.93 2.82-2.83l-4.15-4.57a26 26 0 0 0-9.86-6.67 40 40 0 0 0-13.45-2.45c-5.02-.13-9.84.84-13.68 4.24-3.26 2.89-5.71 7.09-7.45 11.05a43 43 0 0 0-3.06 15.6c-.4 9.88 1.21 20.18 6.87 28.5 5.6 8.26 14.94 14.17 25.1 14.06 2.58-.02 2.58-4.02 0-4Z" class="b"/><path d="M80.49 191.54a2.3 2.3 0 0 1-1.3 1.2c-8.67 3.24-19.36 4.04-32.38 2.24-21.12-3.45-30.47-24.63-30.47-24.63-2.6-8.38-2.96-17.86-1.82-26.8a18 18 0 0 1 1.02-3.55 3.56 3.56 0 0 1 4.55-2.05 48 48 0 0 0 14.03 2.76 95 95 0 0 0 17.4-1.6c16.56-4.45 33.96-25.56 42.96-43.03a2 2 0 0 1 2.38-.9 94 94 0 0 1 10.35 3.97 1.9 1.9 0 0 1 1.16 2.26c-4.64 14.76-8.28 29.18-13.64 45.87-1.22 3.82-6.46 20.56-9.41 30.25 0 0-1.59 5.08-4.64 13.55z" style="fill:#febe69"/><path d="M51.6 141.16c11.07-2.84 20.34-11.21 27.74-19.56a124 124 0 0 0 11.4-15.1q2.37-3.67 4.45-7.5c.22-.4.64-1.7 1.01-1.91.01 0 .45.1.62.16q2.06.64 4.05 1.42 1.75.67 3.48 1.39l1.38.6a3 3 0 0 1 .66.3q.21.3.05-.09l-.26.84q-1.49 4.77-2.89 9.58c-1.95 6.66-3.82 13.34-5.77 20-3.01 10.3-6.33 20.5-9.51 30.73-2.61 8.38-5.11 16.78-8.02 25.05l-.91 2.57c-.17.49-.25.97-.67 1.26a7 7 0 0 1-1.71.59q-1.18.37-2.37.69a51 51 0 0 1-8.31 1.45 70 70 0 0 1-20.06-.84c-9.06-1.85-16.6-7.41-22.3-14.53a49 49 0 0 1-4.63-7.02 24 24 0 0 1-2.32-8 61 61 0 0 1-.8-10.48c.02-3.3-.01-6.96.87-10.17.27-.97.5-2.43 1.6-2.79 1.07-.35 2.76.62 3.78.92a54 54 0 0 0 9.28 1.83 54 54 0 0 0 9.44-.08 101 101 0 0 0 10.36-1.29 96 96 0 0 0 20.28-5.95 100 100 0 0 0 9.4-4.5c2.27-1.24.25-4.7-2.01-3.46a94 94 0 0 1-42.53 11.41 39 39 0 0 1-8.77-.75q-2.41-.48-4.77-1.18c-1.64-.5-3.16-1.22-4.9-.93-3.34.54-4.66 3.72-5.25 6.7a56 56 0 0 0-.77 11.16 66 66 0 0 0 1.02 11.07 28 28 0 0 0 1.77 6.8 41 41 0 0 0 3 5.26c4.92 7.47 11.69 13.98 19.98 17.53 6.09 2.61 12.66 3.3 19.23 3.53a63 63 0 0 0 19.16-2.02 36 36 0 0 0 3.89-1.3c1.74-.7 2.37-2.17 2.97-3.85q1.6-4.44 3.1-8.91c1.12-3.37 2.14-6.77 3.18-10.17 3.08-9.96 6.28-19.89 9.34-29.86 2.2-7.11 4.24-14.27 6.29-21.43q1.44-5.04 2.92-10.06l1.5-5c.5-1.63 1.57-3.69 1.03-5.41-.87-2.72-4.62-3.58-7-4.52a96 96 0 0 0-3.98-1.48c-1.4-.48-2.89-1.08-4.37-.6-1.65.55-2.27 1.98-3.04 3.4q-1.05 1.96-2.19 3.88-2.48 4.2-5.3 8.2c-7.05 10.04-15.85 20-26.84 25.8a32 32 0 0 1-7.05 2.76c-2.5.64-1.44 4.5 1.06 3.86Z" class="b"/><path d="M12.43 174.28q-.87-.59-1.71-1.27c-4.7-3.82-5.5-8.91-5.29-14.2.47-3.04 2.8-6.87 4.61-7.7a11.5 11.5 0 0 1 6.4-1.05 29 29 0 0 0 9.4-.89 22 22 0 0 1 5.98-.7c2.1.03 3.22 1.05 3.36 2.97.15 2.18-1.93 4.2-4.52 4.97l-3.56 1.06a34 34 0 0 0 5.22 1.06c2.41.29 4.75.48 7.2.98a3.2 3.2 0 0 1 2.54 2.58 3.43 3.43 0 0 1-3.47 4.14l-2.78.09.8 1.7a3.3 3.3 0 0 1-.32 3.48c-.69 4.68-5.57 6.27-9.84 6.5a22 22 0 0 1-14.02-3.72" class="a"/><path d="M31.2 158.33c3-.97 6.15-3.4 5.98-6.89-.17-3.41-2.81-5.01-5.99-4.97-3.97.06-7.68 1.5-11.65 1.62-3.68.1-7.21-.5-10.6 1.34-2.6 1.41-4.3 4.74-5.1 7.46-.9 2.95-.5 6.66.32 9.6 1.85 6.64 8.08 11.17 14.56 12.8 6.45 1.62 16.24 1.3 19.15-5.89a2 2 0 0 0-1.4-2.46 2.05 2.05 0 0 0-2.46 1.4c-1.67 4.15-8.62 4-12.17 3.5-4.93-.7-10.39-3.43-12.84-7.94a15 15 0 0 1-1.58-6.53 10 10 0 0 1 .27-3.42 13 13 0 0 1 1.57-3.28 6.2 6.2 0 0 1 5.56-2.67 54 54 0 0 0 9.25-.37c1.59-.29 3.1-.82 4.71-1.01.97-.12 3.17-.58 4.04.05a1.5 1.5 0 0 1 .26 1.56c-.43 1.17-1.85 1.89-2.95 2.24-2.44.8-1.4 4.66 1.06 3.86Z" class="b"/><path d="M23.8 158.5a38 38 0 0 0 6.36 1.72c2.22.38 4.46.52 6.68.84a9 9 0 0 1 2.67.56 1.1 1.1 0 0 1 .59 1.02c0 .05-.02.52.02.21a3 3 0 0 1-.12.5l-.16.33a1.6 1.6 0 0 1-1.25.55 2.05 2.05 0 0 0-2 2 2 2 0 0 0 2 2 5.5 5.5 0 0 0 5.3-3.91 5.4 5.4 0 0 0-2.57-6.27 12 12 0 0 0-3.9-.91q-2.22-.29-4.45-.53a36 36 0 0 1-8.1-1.96 2 2 0 0 0-2.47 1.4 2.04 2.04 0 0 0 1.4 2.46Z" class="b"/><path d="M38.59 164.23a27 27 0 0 1-6.7-.18l-.42-.05-.08-.01-.9-.13q-.88-.14-1.75-.3-1.51-.28-3.01-.63a2 2 0 0 0-1.06 3.86 67 67 0 0 0 7 1.23 28 28 0 0 0 6.92.2 2.05 2.05 0 0 0 2-2c-.05-.96-.9-2.13-2-2Z" class="b"/><path d="M34.87 169.03c-.14-.34.04.23.05.25.12.48.04-.25.02.24 0 .1-.09.62 0 .23 0 .05-.16.5-.07.3s-.12.2-.16.24c.25-.31-.23.15.08-.08l-.48.29c-.43.24.26-.04-.22.09l-.47.13-.4.1c.24-.05-.25.02-.3.02a7 7 0 0 1-1.12-.02l-.33-.03-.24-.03-.2-.03-.49-.07-.95-.17q-1.05-.2-2.09-.42-1.85-.4-3.69-.87a2 2 0 0 0-1.06 3.86 53 53 0 0 0 9.22 1.78 7.7 7.7 0 0 0 5.18-1.44c2-1.58 2.12-4.2 1.17-6.4a2 2 0 0 0-2.74-.71 2.05 2.05 0 0 0-.72 2.74Z" class="b"/><path d="M67.28 175.42a15 15 0 0 0-3.4-2.56 9 9 0 0 0-4.12-.54 78 78 0 0 1-9.78-.48c-1.66-.23-3.23-1.06-4.9-.98s-3.45 1.13-3.7 2.79a3.6 3.6 0 0 0 1.05 2.87 37 37 0 0 0 4.87 3.5l.3.17a12 12 0 0 1-5.72 5.13 14 14 0 0 1-6.04.9 8 8 0 0 0-4.23.66 3.1 3.1 0 0 0-1.45 2.97c.14.58 1.1 1.42 1.52 1.84.98.96 3.24 1.45 6 1.63 2.62 5.24 9.07 8.24 15.8 7.56 5.47-.63 13.2-2.6 15.25-3.89.57-.36 1.93-1.57 2.52-1.9 1.16-.6 4.02-1.46 6.85-2.46" class="a"/><path d="M46.18 178.54a10 10 0 0 1-2.5 3.32 8 8 0 0 1-3.6 1.91 16 16 0 0 1-4.8.41 8.2 8.2 0 0 0-4.89 1.12 5 5 0 0 0-2.15 5.07 7 7 0 0 0 2.74 3.3c2.09 1.44 5.07 1.59 7.5 1.69a62 62 0 0 0 10.93-.67 2 2 0 0 0 1.4-2.46 2.05 2.05 0 0 0-2.46-1.4 60 60 0 0 1-8.24.56c-2.3 0-4.54.03-6.64-.87.42.18-.15-.1-.23-.15l-.24-.15s.3.25.15.1a8 8 0 0 1-1.05-1.06c-.15-.25.03.05.02.08a1.3 1.3 0 0 1 .3-.53 2 2 0 0 1 1.36-.57c1.41-.2 2.86.08 4.28-.05a18 18 0 0 0 4.56-1.02 13 13 0 0 0 7.01-6.62 2.07 2.07 0 0 0-.71-2.73 2 2 0 0 0-2.74.71Z" class="b"/><path d="M37.03 196.07a17.2 17.2 0 0 0 10.01 6.39c4.14.93 8.23.3 12.32-.54a39 39 0 0 0 9.93-2.95c1.23-.63 2.12-1.79 3.39-2.35 1.9-.85 3.98-1.37 5.95-2.06 2.41-.84 1.37-4.71-1.07-3.86-1.96.7-3.97 1.28-5.9 2.05a18 18 0 0 0-3.73 2.38c-2 1.4-5.23 1.95-7.73 2.52-3.5.8-7.23 1.68-10.83 1.18a13.5 13.5 0 0 1-8.88-4.78 2.06 2.06 0 0 0-2.74-.71 2 2 0 0 0-.71 2.73Zm31.67-22.06c-1.49-1.35-3.07-2.83-5.06-3.37a23 23 0 0 0-5.77-.34 73 73 0 0 1-6.46-.29c-2.07-.2-4.03-1.17-6.11-1.15-3.98.04-7.38 3.81-5.28 7.7a9.5 9.5 0 0 0 3.02 3 38 38 0 0 0 3.26 2.18c2.23 1.3 4.25-2.16 2.02-3.45a20 20 0 0 1-4.37-3.08c-.73-.78-.8-1.58.2-2.08 1.24-.63 2.65-.01 3.88.32 3.23.89 6.75.8 10.08.85a19 19 0 0 1 4.33.16 9 9 0 0 1 3.44 2.38c1.9 1.72 4.74-1.1 2.82-2.83" class="b"/><path d="M91.15 163.61c-4.06 1.86-14.96 4.75-19.78 5.84a2.64 2.64 0 0 0-2.13 2.82l3.7 21.32a2.6 2.6 0 0 0 2.94 2.29c8.2-1.11 19.14-3.58 27.4-7.08a59 59 0 0 0 13.7-8.27c7.86-6.66 9.78-16.17 8.95-31.1" class="a"/><path d="M90.14 161.88a87 87 0 0 1-12.82 4.03c-2.08.55-4.18 1.04-6.26 1.56a4.7 4.7 0 0 0-3.75 5.37c.86 5.5 1.91 10.98 2.87 16.47l.64 3.7a8 8 0 0 0 .68 2.52c1.64 2.92 4.72 2.34 7.49 1.9q4.43-.7 8.81-1.72a92 92 0 0 0 17.58-5.66 50 50 0 0 0 14.45-9.41c8.23-8.15 8.69-20.33 8.1-31.2-.14-2.56-4.14-2.58-4 0 .47 8.76.61 18.96-5.05 26.27-2.86 3.69-6.99 6.31-11 8.57a70 70 0 0 1-15.74 6.2q-4.1 1.14-8.29 2a64 64 0 0 1-7.96 1.4c-.96.06-.98-.59-1.11-1.34l-.47-2.73-2.99-17.13a4 4 0 0 1-.14-.85c.01-.23-.06.22.05.05a1 1 0 0 1 .67-.5 30 30 0 0 1 3.05-.73q1.72-.43 3.43-.89a88 88 0 0 0 13.77-4.43 2 2 0 0 0 .72-2.73 2.05 2.05 0 0 0-2.73-.72" class="b"/></svg>
