<svg xmlns="http://www.w3.org/2000/svg" viewBox="-56.15 0 329.288 329.288"><defs><style>.a{fill:#fff}.c{fill:#211715}.d{fill:#febe69}</style></defs><path d="M153.94 79.71a7.3 7.3 0 0 1 5.3-1.94 6.8 6.8 0 0 1 6.12 3.4c2.08 3.6 2 10.25.6 14.36-.98 2.91-2.6 7.37-6.5 10.56a7.9 7.9 0 0 1-6.92 1.64A56.5 56.5 0 0 1 142 128a40 40 0 0 1-11.31 9.86v7.28a11 11 0 0 0 .47 3.94 9.6 9.6 0 0 0 2.88 4.19c2.92 2.36 5.93 3.48 9.63 4.87l2.41.95c-8.24 6.8-23.23 12.26-38.86 12.3-15.52-.04-30.41-5.43-38.69-12.16l2.77-1.09c3.7-1.39 6.7-2.51 9.63-4.87a9.6 9.6 0 0 0 2.88-4.19 11 11 0 0 0 .47-3.94s0-2.47 0-6.18A44 44 0 0 1 71.69 128a56.5 56.5 0 0 1-10.51-20.2 8 8 0 0 1-6.68-1.7c-3.9-3.2-5.53-7.65-6.51-10.56-1.4-4.11-1.49-10.76.6-14.36a6.8 6.8 0 0 1 6.12-3.4A7.3 7.3 0 0 1 60 79.7s-3.2-45.41 46.96-45.41c46.2 0 46.97 45.41 46.97 45.41" class="a"/><path d="M173.1 168.96a69 69 0 0 0-4.84-2.26c-4.82-2.04-15.03-6.04-21.73-7.95l-1.11.86c-8.36 6.54-22.98 11.73-38.2 11.78-15.75-.05-30.85-5.6-39.05-12.47-10.43 4.1-22.29 7.55-32.44 13.98-4.7 2.99-10.6 7.8-13.65 12.51a76 76 0 0 0-8.9 21.16A282 282 0 0 0 8.8 228.8 489 489 0 0 0 2.54 285c-.5 8 .28 16.59 3.28 23.99s10.54 14.4 18.05 16.7a24.3 24.3 0 0 0 17.75-1.05l.02.58a4 4 0 0 0 .12 1.1 1.3 1.3 0 0 0 1.13.56c4.87.02 117.71-.1 127.96-.1a2 2 0 0 0 1.11-.39 2 2 0 0 0 .26-.86c.08-2.86.08-5.43.08-8.33a57 57 0 0 0 7.25 2.65c6.2 1.73 14.96 2.46 20.9-.54 11.85-5.97 14.12-18.45 14.12-27.66a179 179 0 0 0-1-21.1c-2.11-17.75-6.89-48.39-10.7-60.73-4.07-13.22-7.97-24.05-16.68-31.8a63 63 0 0 0-13.08-9.06" class="a"/><path d="M160.96 41.9c-2.33-7.1-6.14-13.39-11.68-17.82l-6.24-6.55C135.96 8.2 124.44 3.13 108 2.41c-21.4-.72-37.2 8.85-44.18 17.77l1.43 1.48c-14.51 12.6-19.8 35.13-12.76 56.45a9 9 0 0 1 2.21-.34 7.3 7.3 0 0 1 5.31 1.94l7.5-6.3c5.64-6.28 15.58-15.74 22.56-19.4.82-.43 1.87.15 2.2 1.52a9 9 0 0 1 .21 3.27 1.7 1.7 0 0 0 2.43 1.83c4.98-2.76 13.86-8.33 20.15-10.98l9.33 1.14a30 30 0 0 1 8.6 5.4c5.66 4.88 11.1 11.57 13.5 17.62l7.45 5.9a7.3 7.3 0 0 1 5.3-1.94 9 9 0 0 1 2.48.42c2.89-11.4 2.97-24.9-.76-36.28" style="fill:#85807f"/><path d="M67.33 161.31c8.45 6.54 19.08 10.2 29.58 11.69a73 73 0 0 0 35.34-3.69 55 55 0 0 0 14.87-8 2.4 2.4 0 0 0 0-3.39 2.46 2.46 0 0 0-3.4 0c-7.67 5.95-17.75 9.07-27.24 10.42a68 68 0 0 1-32.24-3.37 49 49 0 0 1-13.52-7.05 2.5 2.5 0 0 0-3.39 0 2.4 2.4 0 0 0 0 3.4Z" class="c"/><path d="M128.29 139.1v4.85a17 17 0 0 0 .56 5.76c1.25 3.52 3.84 5.9 7.05 7.68 3.81 2.1 8.13 3.45 12.18 5.05a2.4 2.4 0 0 0 2.96-1.68 2.46 2.46 0 0 0-1.68-2.95c-3.38-1.33-6.93-2.48-10.17-4.11-2.48-1.25-4.97-2.82-5.83-5.6a17 17 0 0 1-.27-4.88v-4.12c0-3.09-4.8-3.1-4.8 0m-46.4 1.09v4.39a10 10 0 0 1-.52 4.13c-1.13 2.58-3.55 4.01-6.03 5.2-3.13 1.51-6.5 2.62-9.74 3.9a2.47 2.47 0 0 0-1.68 2.95 2.4 2.4 0 0 0 2.95 1.68 117 117 0 0 0 11.74-4.8c3.1-1.63 5.75-3.8 7.15-7.07 1.38-3.21.92-6.96.92-10.38 0-3.09-4.8-3.1-4.8 0M31.64 280.83c5.64-4.18 11.55-7.99 17.2-12.16a2.47 2.47 0 0 0 .86-3.29 2.4 2.4 0 0 0-3.29-.86c-5.64 4.18-11.55 7.99-17.2 12.17a2.47 2.47 0 0 0-.86 3.28 2.4 2.4 0 0 0 3.29.86M34.7 214a304 304 0 0 0 8.6 33.41c.97 2.92 5.6 1.67 4.62-1.28a304 304 0 0 1-8.6-33.4c-.63-3.03-5.26-1.75-4.62 1.27" class="c"/><path d="M52.06 315.57c-5.89 4.17-12.4 8.68-19.88 8.9-7.6.24-14.49-3.55-19.48-9.1-5.43-6.04-7.34-14.23-7.8-22.16a105 105 0 0 1 .34-13.02q.43-6.27.96-12.54a510 510 0 0 1 5.42-41.2 270 270 0 0 1 4-19.76 64 64 0 0 1 8.95-20.68 39 39 0 0 1 8.19-8.1 64 64 0 0 1 10.25-6.36c7.3-3.7 15.08-6.27 22.72-9.13q2.77-1.04 5.5-2.15a2.5 2.5 0 0 0 1.68-2.95 2.4 2.4 0 0 0-2.95-1.68c-15.76 6.48-32.9 10.68-45.38 23.06-5.85 5.8-9.34 13.66-11.99 21.35a137 137 0 0 0-4.74 20.21 520 520 0 0 0-6.13 43.84q-.58 6.21-1.02 12.44c-.33 4.57-.75 9.17-.7 13.76.12 8.58 1.6 18 6.66 25.15 4.79 6.74 11.99 12.06 20.26 13.42 8.08 1.33 15.47-1.31 22.26-5.57a113 113 0 0 0 5.3-3.58 2.47 2.47 0 0 0 .86-3.29 2.4 2.4 0 0 0-3.29-.86ZM65.5 21.87c6.3-7.94 15.88-12.9 25.6-15.33A62 62 0 0 1 110.98 5a54 54 0 0 1 16.85 3.82 32.6 32.6 0 0 1 13.15 9.93 2.5 2.5 0 0 0 3.28.86 2.4 2.4 0 0 0 .86-3.28A37 37 0 0 0 132.63 5.8a54 54 0 0 0-18-5.23c-13.52-1.73-27.65.43-39.58 7.2a44 44 0 0 0-12.93 10.71 2.5 2.5 0 0 0 0 3.4 2.4 2.4 0 0 0 3.4 0" class="c"/><path d="M54.73 77.22C50 62.54 50.79 45.83 59.09 32.56a41 41 0 0 1 7.86-9.2c2.33-2.04-1.08-5.42-3.4-3.4C51.22 30.76 45.9 47.8 47.2 63.86a65 65 0 0 0 2.9 14.63c.94 2.93 5.58 1.68 4.63-1.27m92.86-51.44c11.45 9.26 14.52 25.34 13.72 39.34a67 67 0 0 1-1.84 12.17c-.73 3 3.9 4.28 4.63 1.28 3.71-15.1 3.13-32.82-4.91-46.5a36 36 0 0 0-8.2-9.69 2.47 2.47 0 0 0-3.4 0 2.4 2.4 0 0 0 0 3.4m-89.65 79a60 60 0 0 0 8.3 19.82c4.21 6.42 9.77 12.45 16.52 16.25a33 33 0 0 0 11.06 3.83 2.5 2.5 0 0 0 2.95-1.67 2.4 2.4 0 0 0-1.68-2.96c-13.87-2.12-24.17-14.26-29.4-26.6a57 57 0 0 1-3.12-9.94c-.67-3.01-5.3-1.74-4.63 1.28Zm93.18-1.27a55 55 0 0 1-10.23 22.06 41 41 0 0 1-8.74 8.54 38 38 0 0 1-10.05 4.82c-2.93.95-1.67 5.59 1.27 4.63a41.6 41.6 0 0 0 16.74-9.91 58 58 0 0 0 12.54-19 59 59 0 0 0 3.1-9.87c.67-3.01-3.96-4.3-4.63-1.28ZM98.25 119.1a19 19 0 0 0 9.22 2.13 15 15 0 0 0 9.3-2.74 2.4 2.4 0 0 0 0-3.4 2.46 2.46 0 0 0-3.39 0c.73-.56.17-.13-.02 0s-.38.22-.57.32l-.3.15c-.4.2.1-.04.1-.03a5 5 0 0 1-.8.29 14 14 0 0 1-2.2.5c.36-.05-.06 0-.2.02l-.65.05a22 22 0 0 1-3.6-.06c-.03 0-.8-.11-.31-.03a16 16 0 0 1-2.06-.46l-.85-.29c-.61-.2.35.19-.2-.07q-.53-.25-1.05-.53a2.45 2.45 0 0 0-3.28.86 2.43 2.43 0 0 0 .86 3.29m8-21.72a43 43 0 0 1 1.02 4.66l-.09-.64a3 3 0 0 1 .02.65l.08-.64-.07.29.24-.58-.1.19.38-.49-.15.15.48-.37-.37.2.58-.25a3 3 0 0 1-.62.18l.63-.08a3 3 0 0 1-.58 0l.64.08-.66-.11a2 2 0 0 0-.95-.04 2 2 0 0 0-.9.28 2.4 2.4 0 0 0-.86 3.28 2.3 2.3 0 0 0 1.44 1.1c.5.07.99.2 1.5.22a5 5 0 0 0 2.2-.52 3.2 3.2 0 0 0 1.78-2.1 5 5 0 0 0-.03-2.27q-.4-2.25-.98-4.46a2.4 2.4 0 0 0-4.63 1.28ZM81.64 84.2c-.78 2.53-.27 8.34 4.51 8.84 6.33-.04 6.67-7.07 4.54-10.37-1.75-2.7-6.88-3.83-9.05 1.53m50.67 0c.78 2.53.27 8.34-4.52 8.84-6.32-.04-6.66-7.07-4.53-10.37 1.74-2.7 6.87-3.83 9.05 1.53" class="c"/><path d="M61.7 78.01a10.4 10.4 0 0 0-11.43-1.6 10 10 0 0 0-5.09 6.97 26.3 26.3 0 0 0 4.04 20.41c2.86 4.15 6.92 7.13 12.16 6.42a2.4 2.4 0 0 0 1.67-2.95 2.47 2.47 0 0 0-2.95-1.68c-3.6.49-6.4-3.37-7.88-6.09a23 23 0 0 1-2.78-8.9 20 20 0 0 1 .22-5.25 12 12 0 0 1 .58-2.14 7 7 0 0 1 .5-.97c.04-.05.41-.6.25-.38a4.8 4.8 0 0 1 2.93-1.62 5.2 5.2 0 0 1 4.4 1.18C60.6 83.48 64 80.09 61.7 78m93.93 3.4a5.3 5.3 0 0 1 7.4.52c-.33-.4.13.22.18.3a7 7 0 0 1 .5.97 12 12 0 0 1 .55 1.97 20 20 0 0 1 .24 5.43 23 23 0 0 1-2.7 8.74c-1.46 2.77-4.3 6.74-7.96 6.24a2.5 2.5 0 0 0-2.95 1.68 2.4 2.4 0 0 0 1.68 2.95c8.54 1.17 13.5-7.15 15.75-14.19a25 25 0 0 0 .72-11.25 11.2 11.2 0 0 0-4.36-7.77 10.3 10.3 0 0 0-12.44 1.02c-2.3 2.07 1.1 5.46 3.4 3.4Zm-32.45-28.55a38 38 0 0 1 12.13 8.85c3.55 3.68 6.93 7.95 8.86 12.74a2.5 2.5 0 0 0 2.96 1.67 2.4 2.4 0 0 0 1.67-2.95 47 47 0 0 0-9.82-14.57 42 42 0 0 0-13.38-9.88 2.5 2.5 0 0 0-3.28.86 2.4 2.4 0 0 0 .86 3.28M69.21 75.11C74.81 68.89 81 62.79 87.95 58.1q1.13-.76 2.3-1.45a4 4 0 0 0 .68-.42 8 8 0 0 1-.96-.17c-.08.07.11.74.08.54a19 19 0 0 1 .02 2.53 4.3 4.3 0 0 0 1.8 3.36c2.06 1.43 4.02.36 5.91-.73q2.7-1.55 5.37-3.12a120 120 0 0 1 13.12-6.92 2.4 2.4 0 0 0 .86-3.29 2.46 2.46 0 0 0-3.28-.86 111 111 0 0 0-11.77 6.14l-5.74 3.34-2.15 1.24-.49.27c.02-.1.6-.18.82-.05l.28.26q.08.62.08.2a3 3 0 0 0 .05-.81c.1-2.31-.43-5.2-2.71-6.3-2.09-1-4 .36-5.73 1.46a81 81 0 0 0-10.34 8.1 136 136 0 0 0-10.33 10.3c-2.06 2.28 1.32 5.7 3.4 3.39M39.24 325.22c.07 1.4.28 2.6 1.54 3.43a4 4 0 0 0 2.21.63H55.7l30.83-.02 37.09-.03 32.06-.03 10.65-.01h4.38a3.75 3.75 0 0 0 3.92-3.89c.16-2.68.07-5.4.07-8.1 0-3.08-4.8-3.09-4.8 0v3.96l-.02 1.82a9 9 0 0 0-.04 2.08l-.02.48.86-1.14c-.01-.37.27.08.13-.01-.05-.03-.17.01-.23 0a2 2 0 0 0-.49 0h-12.53l-30.1.03-35.92.04-31.46.02H43.12c-.43.07-.04-.3.34.15l.62 1.06c-.1-.35 0 .31-.04-.46-.15-3.08-4.95-3.1-4.8 0Z" class="c"/><path d="M142.78 160.27c6.53 1.38 12.88 3.97 19.07 6.4l4.24 1.7.8.33.67.28q1.35.6 2.7 1.23a61 61 0 0 1 10.8 6.63 43 43 0 0 1 8.6 8.54 54 54 0 0 1 5.56 9.92 124 124 0 0 1 6.72 20.21c3.44 14 5.59 28.38 7.6 42.64a231 231 0 0 1 2.47 23.67c.28 7.26.68 14.67-1.44 21.6-1.9 6.2-6.28 12.1-12.58 14.35-7.04 2.5-15.2.93-21.99-1.63a40 40 0 0 1-5.39-2.46c-2.7-1.51-5.12 2.63-2.42 4.14a45 45 0 0 0 23.89 5.88 24 24 0 0 0 11.85-3.61 26 26 0 0 0 8.1-8.25c3.54-5.72 4.82-12.6 4.93-19.25a188 188 0 0 0-1.67-27.5c-2-15.32-4.3-30.68-7.56-45.79a154 154 0 0 0-5.74-19.86c-2.8-7.72-6.36-15.28-12.13-21.23-6.1-6.29-13.78-10.84-21.8-14.18a208 208 0 0 0-19.9-7.31c-1.35-.41-2.72-.8-4.1-1.08-3.01-.64-4.3 3.98-1.28 4.62Z" class="c"/><path d="m76.16 262.87 28.85-115.67 93.15 23.22-28.84 115.68z" class="a"/><path d="m103.97 151.35-27.8 111.52 10.61 2.65 28.85-115.68L105 147.2Z" class="d"/><path d="m89.3 265.33 12.11-48.57 12.27-49.2 4.26-17.08c.75-3-3.88-4.27-4.63-1.27l-9.17 36.78-13.09 52.5-6.37 25.56c-.75 3 3.88 4.28 4.63 1.28" class="c"/><path d="m102.45 147.53-2.4 9.62-5.9 23.66-7.45 29.88-7.04 28.25-4.7 18.82c-.28 1.13-.61 2.27-.85 3.42a3.5 3.5 0 0 0 2.46 4.27c.42.13.87.21 1.3.32l17.82 4.45 28.96 7.21 27.94 6.97c4.92 1.23 9.84 2.56 14.79 3.69a3.57 3.57 0 0 0 4.5-2.32q.1-.35.17-.69l1.24-4.97 5.22-20.93 7.24-29.07 7.33-29.38 5.45-21.86 1.41-5.67q.16-.55.27-1.1a3.5 3.5 0 0 0-2.47-4.25c-4.31-1.35-8.84-2.2-13.22-3.3l-27.34-6.82-29.32-7.31-19.15-4.78c-2.12-.52-4.86-1.4-6.02 1.31a2.5 2.5 0 0 0 .86 3.29 2.4 2.4 0 0 0 3.28-.87c-.64 1.5-2.07.14-1.3.43l.6.15 2.26.56 8.2 2.05 25.92 6.46 29.27 7.3 20.92 5.21 2.61.65a4 4 0 0 0 1.19.3 5 5 0 0 0-.9-1.67c-.07.06-.06.25-.09.33a14 14 0 0 0-.4 1.6l-4.05 16.24-6.66 26.73-7.38 29.58-6.3 25.26-3.32 13.32a2 2 0 0 0-.12.47c.06.84 1.32-1.22 1.7-.8-.12-.14-.7-.18-.87-.22l-5.93-1.48-23.45-5.84-29.54-7.37-23.93-5.96-6.34-1.58c-.23-.06-.88-.35-1.11-.28.2-.06.66 2 .93 1.66.06-.08.05-.27.09-.36.49-1.4.73-2.92 1.08-4.35l2.08-8.35 6.22-24.91 7.36-29.55 6.73-26.99 4.2-16.81.58-2.34c.75-3-3.88-4.28-4.63-1.28" class="c"/><path d="m163.35 235.63-48.37-12.06c-3-.74-4.28 3.88-1.28 4.63l48.37 12.06c3 .75 4.28-3.88 1.28-4.63" class="c"/><path d="M167.58 216.63 119.4 204.6l7.5-30.11 48.2 12.01Z" class="d"/><path d="m168.22 214.31-48.19-12.01 1.68 2.95 6.58-26.4.93-3.71-2.95 1.67 48.18 12.02-1.67-2.96-6.59 26.41-.92 3.71c-.75 3 3.88 4.28 4.63 1.28l6.58-26.41.93-3.71a2.44 2.44 0 0 0-1.68-2.95l-48.19-12.02a2.44 2.44 0 0 0-2.95 1.68l-6.58 26.4-.93 3.72a2.44 2.44 0 0 0 1.68 2.95l48.18 12.01c3 .75 4.28-3.88 1.28-4.63" class="c"/><path d="M170.33 245.64a19 19 0 0 0-8.55-.53c-2.58.62-4.48 3.23-3.54 5.7a7.5 7.5 0 0 0 3.29 3.3 98 98 0 0 0 17.9 8.98l-21.74-2.93a17 17 0 0 0-4.62-.18 5.6 5.6 0 0 0-3.9 2.24 5.9 5.9 0 0 0 .34 6.1 7 7 0 0 0 2.77 2.17l-1.76.25a5 5 0 0 0-4.14 5.11 6.2 6.2 0 0 0 3.53 5.45 21 21 0 0 0 5.1 1.77l-1.27 1.43a5.2 5.2 0 0 0-.28 5.9c2.6 4.44 10.35 5.52 15.92 6.32a24.5 24.5 0 0 0 11.21-.94c5.69-1.91 9.26-4.24 12.47-10.3 2.17-4.1 2.79-8.74 2.86-13.63a31 31 0 0 0-1.83-10.52 13.6 13.6 0 0 0-4.6-6.08 76 76 0 0 0-5.2-3.54 51 51 0 0 0-13.96-6.07" class="a"/><path d="M177.23 259.65a99 99 0 0 1-14.1-7.35c-1.1-.7-3.36-1.88-2.58-3.5.62-1.3 2.24-1.51 3.29-1.56 3.98-.18 8.02 1.16 11.66 2.64a58 58 0 0 1 12.11 6.96c3.73 2.72 5.1 6.85 5.69 11.3a31 31 0 0 1-1.05 13.04 19 19 0 0 1-6.2 9.31 22 22 0 0 1-10.76 4 39 39 0 0 1-14.02-1.77 12 12 0 0 1-4.75-2.34c-.96-.87-2.18-2.83-1.09-4.18a2.47 2.47 0 0 0 0-3.4 2.4 2.4 0 0 0-3.4 0c-3.6 4.45-1.09 10.07 3.41 12.67 4 2.3 8.8 2.95 13.3 3.57a29 29 0 0 0 16.38-2.47 21.2 21.2 0 0 0 9.62-9.16c2.8-4.98 3.73-10.87 3.57-16.53-.16-5.4-1.4-11.39-5.13-15.5a33 33 0 0 0-6.86-5.22 55 55 0 0 0-7.28-3.94c-4.54-2.03-9.56-3.8-14.6-3.79-2.71.01-5.46.68-7.25 2.87a6.45 6.45 0 0 0 .08 8.45c1.97 2.34 5.24 3.86 7.87 5.33a100 100 0 0 0 9.67 4.72 2.5 2.5 0 0 0 3.28-.86 2.4 2.4 0 0 0-.86-3.28Z" class="c"/><path d="m177.6 260.44-19.92-2.67c-2.86-.38-5.96-.55-8.48 1.14a7.2 7.2 0 0 0-3 7.38c.7 4.49 4.73 6.66 8.76 7.72 3.1.81 6.23 1.48 9.35 2.18q4.71 1.04 9.43 2.05c3.01.65 4.3-3.98 1.28-4.63a846 846 0 0 1-15.96-3.54c-2.23-.52-4.87-.94-6.76-2.31-1.2-.88-2.03-2.97-1.06-4.32 1.15-1.6 3.89-1.19 5.52-1 6.53.79 13.04 1.75 19.56 2.63a2.5 2.5 0 0 0 2.95-1.68 2.4 2.4 0 0 0-1.68-2.95" class="c"/><path d="M149.89 268.43a7.46 7.46 0 0 0-5.91 7.25 8.9 8.9 0 0 0 5.2 7.94c4.56 2.23 10.02 2.71 14.98 3.63q3.18.6 6.36 1.17a2.47 2.47 0 0 0 2.95-1.67 2.4 2.4 0 0 0-1.67-2.95c-4.34-.76-8.66-1.6-12.99-2.4-2.78-.51-6.41-.9-8.65-2.8-1.99-1.68-1.85-5 1-5.54a2.4 2.4 0 0 0 1.68-2.95 2.45 2.45 0 0 0-2.95-1.68" class="c"/><path d="M72.54 230.41a43 43 0 0 1 17.77-4.52c2.2-.01 4.54.17 6.38 1.4a4.25 4.25 0 0 1 1.94 4.8 3.9 3.9 0 0 1-2.73 2.72 43 43 0 0 0-4.23 1.35 51 51 0 0 0-9.84 4.42l-.64 4.05a132 132 0 0 1 13.4 2.92 31 31 0 0 1 7.03 2.74 7.7 7.7 0 0 1 3.68 3.25 6 6 0 0 1 .66 3.44 3.9 3.9 0 0 1-2.38 3.18 7 7 0 0 1-4.59.48q-1.93-.44-3.88-.93c3.74 1.86 3.98 3.28 4.65 5.4a4.7 4.7 0 0 1-.48 3.59 5.6 5.6 0 0 1-5.4 1.71c-1.56-.4-3.02-.75-4.5-1.07l1.74 1.24c3.11 2.22 2.31 7.4-.36 8.25-2.17.7-5.73.08-9.53-.21-.4 5.28-5.62 10.46-7.46 11.5-1.14.65-4.71 2.24-7.47 2.2-5.77-.1-10.56-4.08-13.76-8.88-2-2.99-2.1-8.11-.4-11.28A69 69 0 0 0 58.08 257c1.52-6.08 5.16-17.16 8.84-21.63Z" class="a"/><path d="M73.75 232.49a45 45 0 0 1 12.13-3.85 28 28 0 0 1 6.1-.31c1.4.1 3.42.42 4.18 1.79a1.7 1.7 0 0 1-.57 2.28 19 19 0 0 1-2.86.85q-1.41.49-2.82 1.01a63 63 0 0 0-9.3 4.25c-2.69 1.52-.27 5.67 2.43 4.15a55 55 0 0 1 8.33-3.84 98 98 0 0 1 5.17-1.7 6.4 6.4 0 0 0 3.98-3.34c1.84-3.92-.5-7.87-4.28-9.39-3.6-1.44-7.91-.98-11.64-.38a49 49 0 0 0-13.28 4.33 2.4 2.4 0 0 0-.86 3.28 2.45 2.45 0 0 0 3.29.86Zm-8.53 1.18c-3.7 4.6-5.75 10.56-7.55 16.11-.9 2.75-1.59 5.55-2.39 8.33a65 65 0 0 1-4.07 10.62 27 27 0 0 0-2.16 4.8 14.7 14.7 0 0 0 3.36 13.74c4.2 5.12 10.73 8.7 17.44 6.96a17 17 0 0 0 7.56-3.95 21 21 0 0 0 5.82-9.21c.86-2.98-3.77-4.25-4.63-1.28a16 16 0 0 1-4.15 6.67q-.59.6-1.24 1.15c-.58.5.2-.12-.13.11l-.38.26a13 13 0 0 1-2.7 1.2 10.4 10.4 0 0 1-7.7-.12 17 17 0 0 1-6.25-4.9 10 10 0 0 1-2.7-6.65c-.02-2.96 1.47-5.17 2.68-7.78a73 73 0 0 0 3.62-9.47c.77-2.55 1.38-5.14 2.17-7.69a92 92 0 0 1 3.1-8.66 47 47 0 0 1 2.82-5.58c.3-.48.69-1.03.87-1.26a2.47 2.47 0 0 0 0-3.4 2.4 2.4 0 0 0-3.4 0Z" class="c"/><path d="M80.55 246.95a128 128 0 0 1 12.8 2.75 33 33 0 0 1 5.35 1.81c1.4.65 3.22 1.35 4.17 2.6.74 1 1.19 2.81.12 3.65-1.58 1.24-3.83.47-5.54.06-4.65-1.13-9.26-2.36-13.99-3.12a2.47 2.47 0 0 0-2.95 1.68 2.4 2.4 0 0 0 1.68 2.95c4.42.7 8.76 1.83 13.1 2.9 2.04.5 4.13 1.16 6.25.94a8 8 0 0 0 5.47-2.7c2.63-3.27 1.28-8.28-1.8-10.72-2.85-2.25-6.52-3.55-9.98-4.51a125 125 0 0 0-13.4-2.93 2.47 2.47 0 0 0-2.95 1.68 2.4 2.4 0 0 0 1.68 2.95Z" class="c"/><path d="M95.86 262.93a3.6 3.6 0 0 1 1.2 1.58 14 14 0 0 1 .44 1.45c-.07-.34.01.1.01.24a5 5 0 0 1-.03.69c.04-.29-.12.42-.12.4.06-.22-.14.04.04-.09a5 5 0 0 1-.95.66 3.8 3.8 0 0 1-2.7.04 129 129 0 0 0-14.71-2.7 2.4 2.4 0 0 0-2.4 2.4 2.46 2.46 0 0 0 2.4 2.4q4.42.56 8.77 1.45c2.94.62 6.15 1.99 9.16 1.28a8 8 0 0 0 4.01-2.33 6 6 0 0 0 1.33-4.2 9.5 9.5 0 0 0-4.03-7.42 2.4 2.4 0 0 0-3.28.86 2.46 2.46 0 0 0 .86 3.28Z" class="c"/><path d="M89.91 272.65c-.53-.4.04.06.14.16l.21.24-.08-.11.28.47c.3.5-.1-.38.03.06l.18.58.04.12a4 4 0 0 0 0 1.05c-.02.43.12-.58-.03.09a5 5 0 0 1-.2.68q-.13.36.09-.18a3 3 0 0 0-.26.47c-.29.49.08-.03.07-.06a2 2 0 0 1-.36.36l.19-.14-.21.13c-.3.24.57-.14.05-.03l-.52.13-.31.06q.55-.07.14-.03-.64.05-1.28.05-1.57-.02-3.15-.19a71 71 0 0 0-7.25-.47 2.4 2.4 0 0 0 0 4.8 62 62 0 0 1 6.56.4 25 25 0 0 0 5.45.17 6 6 0 0 0 4.69-2.64 7.5 7.5 0 0 0 1.12-4.65 7.6 7.6 0 0 0-3.17-5.66 2.4 2.4 0 0 0-3.29.86 2.47 2.47 0 0 0 .86 3.28Z" class="c"/></svg>
