<svg xmlns="http://www.w3.org/2000/svg" viewBox="-25.22 0 332.987 332.987"><defs><style>.a{fill:#fff}.c{fill:#211715}.e{fill:#7a7473}</style></defs><path d="M63.91 208.03c-6.6.83-8.92-2.1-10.88-4.29-2.1-2.35-2.57-5.49-2.26-8.8.18-2 .43-4.17.56-6.35.17-5.4 2.25-11.47 7.23-14.22a18 18 0 0 1 8.52-2.02c10.17-.13 20.24 4.75 20.68 15.9a27 27 0 0 1-1.99 11.51A17.3 17.3 0 0 1 79 206.7m-20.36 22.2a57 57 0 0 1-3.21-3.66 16 16 0 0 1-1.53-1.83c-2.57 2.3-3.9 3.66-6.88 4.5a5 5 0 0 1-3.09.15 9 9 0 0 1-2.25-1.73 7.07 7.07 0 0 0-10.35 1.37 3.7 3.7 0 0 0-.64 3.44 1.16 1.16 0 0 0 1.25.71h29.39z" class="a"/><path d="M73.07 249.96c5.62-1.25 10.47-4.18 12.8-9.38 2.35-5.26 1.77-12.97.92-18.43a27 27 0 0 0-4.12-11.17 8.9 8.9 0 0 0-8.45-3.8c-6.03.59-10.71 1.77-13.07 3.97-2.41 2.25-3.83 4.77-5.83 7.77-.82 1.23-1.83 2.56-1.56 4.14.1.6 1.3 1.71 1.67 2.19a51 51 0 0 0 2.9 3.33Z" style="fill:#7abee6"/><path d="M59.74 227.16q-1.36-1.46-2.63-3l-.99-1.13a3 3 0 0 1-.46-.57c.19.41.1-.33.2-.6a19 19 0 0 1 2.14-3.4c.85-1.3 1.69-2.64 2.67-3.86a11 11 0 0 1 5.34-3.86 33 33 0 0 1 8.78-1.6c6.01-.28 8.4 6.04 9.56 10.94 1.27 5.42 1.87 11.76.52 17.21-1.5 6.06-6.51 9.4-12.33 10.74-2.5.58-1.45 4.43 1.06 3.86 6.43-1.49 12.15-5.25 14.53-11.6a28 28 0 0 0 1.4-10.05 55 55 0 0 0-1.14-10.36c-1.35-6.51-4.66-13.99-12.13-14.7a23 23 0 0 0-5.47.42 37 37 0 0 0-5.01 1.03 15 15 0 0 0-7.44 4.55 42 42 0 0 0-3.45 4.74c-1.04 1.6-2.43 3.23-2.96 5.1-.6 2.12.2 3.56 1.58 5.07 1.16 1.28 2.23 2.63 3.4 3.9 1.75 1.9 4.57-.93 2.82-2.83Zm-7.23-25.19.89-.1a14 14 0 0 0 1.36-.21 1.5 1.5 0 0 0 .68-.36 1.5 1.5 0 0 0 .52-.56 1.5 1.5 0 0 0 .23-.75 1.5 1.5 0 0 0-.03-.8l-.2-.47a2 2 0 0 0-.72-.72l-.48-.2a2 2 0 0 0-1.06 0q-.4.09-.8.14l.53-.07-.91.1a2.06 2.06 0 0 0-2 2l.07.53a2 2 0 0 0 .51.88l.4.32a2 2 0 0 0 1.01.27" class="c"/><path d="M70.94 197.43c.36-.18-.4.1-.03.02.1-.03.55-.07.2-.08h.17c.07 0 .52.04.16 0s.13.05.2.06c.35.08-.36-.23-.04-.01l.1.06q.26.17-.11-.1c0 .08.29.17.27.26l-.14-.18q.08.11.14.24c.25.35-.1-.38.03.03q.08.2.13.4l.04.2q.04.24-.02-.18c.06 0-.02.8 0 .8q.07-.47.01-.14l-.02.13-.12.46-.07.2c.1-.3-.06.13-.1.2a9 9 0 0 1-.47.76c-.22.33.27-.28-.02.04l-.28.3-.58.55c-.12.1-.4.25.03-.01l-.3.21a6 6 0 0 1-.66.38l-.24.12.23-.1c-.01.04-.32.1-.39.13q-.23.07-.48.12c-.52.1.31-.02-.12.02a2.2 2.2 0 0 0-1.41.59 2 2 0 0 0 1.4 3.41 8.4 8.4 0 0 0 4.86-2.12 8 8 0 0 0 2.6-4.26 5.7 5.7 0 0 0-1.5-5.4 4.9 4.9 0 0 0-5.5-.56 2 2 0 0 0-.71 2.73 2.05 2.05 0 0 0 2.73.72Zm-12.01-6.71c.27 1 .01 3.28-1.87 3.4-2.47-.1-2.53-2.85-1.66-4.12a1.96 1.96 0 0 1 3.53.72m-6.61 31.44c-1.99 1.79-4.06 3.75-6.85 4.08-1.4.17-2.43-1.48-3.52-2.17a9.06 9.06 0 0 0-12.55 2.94 5.6 5.6 0 0 0-.63 4.67 2.41 2.41 0 0 0 4.32.67 2 2 0 0 0-.72-2.74 2.04 2.04 0 0 0-2.74.72l-.1.14 1.73-.99-.2-.01 1.01.27h.04l.51.88c-.7-1.97 2.17-3.65 3.77-3.9a5 5 0 0 1 2.9.45 21 21 0 0 1 2.87 2.2c2.28 1.57 5.19.74 7.5-.3a22 22 0 0 0 5.49-4.08c1.91-1.73-.92-4.55-2.83-2.83" class="c"/><path d="M63.91 206.03c-2.56.3-5.29.15-7.27-1.46a10 10 0 0 1-3.86-6.15 23 23 0 0 1 .18-5.45c.18-1.86.28-3.72.44-5.58a17 17 0 0 1 2.84-8.3c3.78-5.37 11.75-5.44 17.53-4 5.1 1.25 9.85 4.36 11.4 9.6a21.7 21.7 0 0 1-.25 11.43 14.3 14.3 0 0 1-6.93 8.85c-2.21 1.31-.2 4.77 2.02 3.45a18.4 18.4 0 0 0 8.14-9.25 27.5 27.5 0 0 0 1.45-12.7c-.91-7.09-5.88-12.2-12.45-14.55-6.96-2.49-16.55-2.6-22.26 2.67a18 18 0 0 0-5.06 9.7 48 48 0 0 0-.6 5.7c-.18 2.26-.56 4.53-.55 6.8a13.6 13.6 0 0 0 4.7 10.24c2.92 2.7 6.65 3.45 10.53 3a2.06 2.06 0 0 0 2-2 2 2 0 0 0-2-2" class="c"/><path d="M62.79 182.78a6 6 0 0 0 .65 3.6 6 6 0 0 0 2.47 2.49 2 2 0 0 0 1.54.2 2 2 0 0 0 1.2-.92 2 2 0 0 0-.72-2.74 4 4 0 0 1-.6-.37l.4.3a4 4 0 0 1-.72-.71l.31.4a5 5 0 0 1-.55-.93l.2.48a4 4 0 0 1-.3-1.05l.08.53a5 5 0 0 1 .03-1.28 2 2 0 0 0-.59-1.42 2 2 0 0 0-2.82 0l-.32.4a2 2 0 0 0-.27 1.01Zm-5.51-3.1a5 5 0 0 0-.54 2.05 6 6 0 0 0 .69 3.15 5 5 0 0 0 .98 1.3 2 2 0 0 0 1.42.59 2 2 0 0 0 1.41-.59 2 2 0 0 0 .59-1.41 2 2 0 0 0-.59-1.41l-.32-.36.31.4a4 4 0 0 1-.48-.81l.2.48a4 4 0 0 1-.27-.98l.07.53a4 4 0 0 1 0-1.01l-.07.53a4 4 0 0 1 .23-.86l-.2.48.03-.06a1.5 1.5 0 0 0 .23-.74 1.5 1.5 0 0 0-.03-.8 2 2 0 0 0-.92-1.2 2 2 0 0 0-1.54-.2 2 2 0 0 0-1.2.92" class="c"/><path d="M112.84 237.27c4.9-5.97 9.81-12.1 14.86-18.65a26 26 0 0 0 4.75-10.42c.6-2.86.58-9.42.45-12.35 0 0-.6-4.05-2.03-10.3a34 34 0 0 0-4.63-10.86c-4.62-7.44-13.02-14.04-21.56-17.15-11.19-4.08-22.47-5.27-33.58-1.5a2.83 2.83 0 0 0-1.84 3.98c3.58 9.08 17.22 40.54 21.36 51.45l3.24 7.68a4808 4808 0 0 0-20.35 22.82H32.64v2.16l-6.1-.02a3.8 3.8 0 0 0-3.13 2.43 5.3 5.3 0 0 0 .04 3.7c2.62 9.9 14.09 19.82 22.37 24.04 8.3 4.08 17.26 3.23 25.2.86 12.04-3.6 20.5-13.37 28.65-22.22 4.46-5.21 8.82-10.37 13.17-15.65" style="fill:#febe69"/><path d="m33.92 242.14-4.23-.03c-1.69 0-3.57-.27-5.15.46-2.93 1.38-3.93 4.82-3.15 7.79 1.44 5.52 4.88 10.35 8.75 14.44a57 57 0 0 0 13.28 10.45 31.7 31.7 0 0 0 18.54 3.71 44 44 0 0 0 17.8-5.46 66 66 0 0 0 13.87-11.21c9.27-9.42 17.61-19.8 25.9-30.1q3.85-4.78 7.61-9.62a39 39 0 0 0 6.03-9.75c2.07-5.35 1.96-11.32 1.73-16.98-.1-2.56-4.1-2.57-4 0 .17 4.27.41 8.9-.67 13.06-1.63 6.26-6.04 11.04-9.96 16-7.85 9.9-15.8 19.85-24.37 29.16-7.3 7.93-15.15 16.14-25.82 19.26-5.46 1.6-11.33 2.42-16.98 1.3-5.27-1.05-9.89-3.83-14.06-7.12-4.69-3.68-9.08-8.12-11.9-13.42a21 21 0 0 1-1.52-3.58c-.37-1.18-.92-2.6-.07-3.72.83-1.1 2.5-.68 3.72-.68q2.32 0 4.65.03c2.57.02 2.57-3.98 0-4Z" class="c"/><path d="M38.2 231.86h44.29q-4.46 5-8.98 10.1H32.64a5 5 0 0 1-3.57-1.48 5.3 5.3 0 0 1-.48-6.79 4 4 0 0 1 3.35-1.83Z" class="e"/><path d="M73.5 239.97h-40a3.8 3.8 0 0 1-3-.9c-1.6-1.58-.95-5.07 1.53-5.2 1.84-.1 3.72 0 5.56 0H63.1c6.24 0 12.5.16 18.73 0h.32c2.57 0 2.57-4 0-4H38.42c-2.11 0-4.24-.06-6.36 0a6.5 6.5 0 0 0-6.16 4.9 7.13 7.13 0 0 0 5.65 9.1 44 44 0 0 0 6.47.1h12.93c7.38 0 14.77.13 22.14 0h.4c2.58 0 2.59-4 0-4Zm19.05-29.03c-4.66-12.28-10-24.31-15.11-36.41-2.1-4.97-4.38-9.91-6.22-14.98-.17-.46-.38-.93-.01-1.34a3 3 0 0 1 1.35-.55q1.03-.32 2.09-.6a41 41 0 0 1 8.07-1.24 50 50 0 0 1 15.83 1.86c10.4 2.83 20.13 8.73 25.96 18.02 1.36 2.17 4.83.17 3.45-2.02a46 46 0 0 0-23.68-18.4 61 61 0 0 0-16.89-3.46 42 42 0 0 0-17.15 2.41 4.8 4.8 0 0 0-3.15 5.34 16 16 0 0 0 1.18 3.3 834 834 0 0 0 3.28 7.89l8.92 21.15c2.8 6.67 5.66 13.33 8.23 20.1a2.06 2.06 0 0 0 2.46 1.4 2 2 0 0 0 1.4-2.47Z" class="c"/><path d="M95.62 166.36q1.09 14.85 2.3 29.69c.2 2.55 4.2 2.57 4 0q-1.19-14.84-2.3-29.69c-.19-2.55-4.2-2.57-4 0" class="c"/><path d="M94.2 304.42c-5.08-21.45-9.1-38.91-13.44-58.33l8.85-9.95c5.19 22.77 9.61 41.7 15.22 66.8Z" class="a"/><path d="M89.52 236.24a5400 5400 0 0 1 58.67-64.75 22 22 0 0 0 2.95-3.62 9 9 0 0 0 .94-4.5 7 7 0 0 0-1.57-4.5l-1.12-1-4.13.12-3.75 8.74c-40.94 44.54-71.78 79.01-118 132.39l8.35 2.88a6536 6536 0 0 1 48.84-55.84" class="a"/><path d="M142.33 162.82q-23.02 25.04-45.79 50.31-22.86 25.44-45.37 51.18-14.6 16.66-29.08 33.4c-1.67 1.94 1.14 4.78 2.83 2.83q24.68-28.5 49.64-56.76 21.98-24.83 44.3-49.37 13.1-14.42 26.3-28.76c1.74-1.9-1.09-4.73-2.83-2.83" class="c"/><path d="M149.1 160.29c1.67 2.1 1.19 5.59-.36 7.58-1.9 2.44-4.19 4.62-6.27 6.9q-6.07 6.6-12.12 13.23-11.69 12.8-23.3 25.66-23.55 26.14-46.73 52.62-15 17.1-29.87 34.3c-1.68 1.94 1.14 4.78 2.82 2.83q25.93-29.93 52.17-59.59 23.47-26.44 47.33-52.54 6.96-7.63 13.95-15.24c2.28-2.48 5.33-5 6.6-8.18a10.5 10.5 0 0 0-1.4-10.4 2 2 0 0 0-2.82 0 2.05 2.05 0 0 0 0 2.82Z" class="c"/><path d="M18.5 297.9a16.16 16.16 0 0 0-16.48 16.38c0 9.88 6.88 16.68 16.48 16.68 9.97 0 16.48-6.87 16.48-16.68A16.14 16.14 0 0 0 18.5 297.9" class="e"/><path d="M18.5 306.83a7.43 7.43 0 0 0-7.58 7.53 7.3 7.3 0 0 0 7.58 7.67c4.58 0 7.58-3.16 7.58-7.67a7.4 7.4 0 0 0-7.58-7.53" class="a"/><path d="M18.5 295.9A18.4 18.4 0 0 0 .9 308.59c-2.29 7.12-.15 15.75 5.8 20.43a19.9 19.9 0 0 0 21.51 1.52c6.69-3.78 9.6-11.73 8.54-19.12A18.34 18.34 0 0 0 18.5 295.9c-2.57-.02-2.58 3.98 0 4a14.3 14.3 0 0 1 13.84 10.04c1.66 5.55.17 12.33-4.47 16.03-4.53 3.62-11.68 3.98-16.72 1.23-5.33-2.91-7.83-9.13-7-15.03A14.35 14.35 0 0 1 18.5 299.9c2.57-.02 2.58-4.02 0-4" class="c"/><path d="M18.5 304.83a9.6 9.6 0 0 0-9.15 6.66 9.9 9.9 0 0 0 3.1 10.52 10.3 10.3 0 0 0 11.09.75c3.51-2.01 4.97-6.16 4.39-10.04a9.5 9.5 0 0 0-9.43-7.9c-2.58-.02-2.58 3.98 0 4a5.44 5.44 0 0 1 5.34 3.9 7 7 0 0 1 .22.97c-.05-.35 0 .08 0 .17l.01.5a9 9 0 0 1-.05 1.04c.04-.4-.05.23-.05.25l-.16.66-.14.45c-.02.04-.26.59-.08.2a8 8 0 0 1-.43.8q-.12.2-.26.38c-.19.27.32-.31-.07.08q-.36.4-.76.74c.32-.27-.13.09-.17.11l-.3.2-.49.25c-.5.28.2-.06-.12.06a8 8 0 0 1-1 .3l-.38.09-.07.01-.4.04a9 9 0 0 1-1.06.01q-.3 0-.6-.05c.1.01.31.07-.07-.02q-.52-.1-1.03-.26-.22-.07-.44-.17c.36.16-.2-.12-.28-.15a6 6 0 0 1-.84-.55c.27.22.02.02-.02-.03l-.4-.37-.3-.34c-.22-.25.24.38-.07-.1q-.3-.47-.57-.95c-.27-.5.1.33-.1-.22l-.12-.37a8 8 0 0 1-.27-1.15c.01.1.02.33 0-.08l-.05-.64v-.51c0-.08.07-.74.02-.37a5.3 5.3 0 0 1 1.78-3.47c0-.01.49-.42.18-.18l.48-.33q.25-.16.51-.3c.04-.02.55-.25.25-.12a7 7 0 0 1 1.17-.35 5 5 0 0 1 1.19-.11c2.57-.04 2.58-4.04 0-4.01m60.34-58.18q4.98 22.3 10.19 44.56 1.6 6.87 3.23 13.75c.6 2.5 4.45 1.44 3.86-1.07q-5.39-22.78-10.57-45.61-1.44-6.35-2.85-12.7c-.56-2.5-4.42-1.44-3.86 1.07m8.86-9.9c3.88 17 7.82 34 11.67 51.01q1.78 7.85 3.53 15.7c.56 2.52 4.42 1.46 3.86-1.05-3.9-17.42-7.89-34.81-11.88-52.2l-3.32-14.52c-.58-2.51-4.43-1.45-3.86 1.06" class="c"/><path d="M102.54 297.9a16.16 16.16 0 0 0-16.47 16.38c0 9.87 6.88 16.68 16.48 16.68 9.96 0 16.47-6.87 16.47-16.68a16.14 16.14 0 0 0-16.48-16.38" class="e"/><path d="M102.54 306.83a7.43 7.43 0 0 0-7.57 7.53 7.3 7.3 0 0 0 7.58 7.67c4.58 0 7.57-3.16 7.57-7.67a7.4 7.4 0 0 0-7.58-7.53" class="a"/><path d="M102.54 295.9a18.4 18.4 0 0 0-17.6 12.69c-2.28 7.12-.14 15.75 5.81 20.43a19.9 19.9 0 0 0 21.5 1.52c6.69-3.78 9.6-11.73 8.54-19.12a18.34 18.34 0 0 0-18.25-15.52c-2.57-.02-2.57 3.98 0 4a14.3 14.3 0 0 1 13.85 10.04c1.66 5.55.17 12.33-4.48 16.03-4.53 3.62-11.68 3.98-16.72 1.23-5.32-2.91-7.82-9.13-6.99-15.03a14.35 14.35 0 0 1 14.34-12.27c2.58-.02 2.58-4.02 0-4" class="c"/><path d="M102.54 304.83a9.6 9.6 0 0 0-9.14 6.66A9.9 9.9 0 0 0 96.5 322a10.3 10.3 0 0 0 11.08.75c3.52-2.01 4.98-6.16 4.4-10.04a9.5 9.5 0 0 0-9.44-7.9c-2.57-.02-2.57 3.98 0 4a5.44 5.44 0 0 1 5.35 3.9 7 7 0 0 1 .21.97c-.05-.35 0 .08 0 .17l.02.5a10 10 0 0 1-.06 1.04c.05-.4-.04.23-.04.25l-.16.66-.15.45c-.01.04-.26.59-.07.2a8 8 0 0 1-.44.8l-.25.38c-.2.27.31-.31-.08.08q-.36.4-.76.74c.33-.27-.12.09-.17.11l-.3.2-.48.25c-.5.28.2-.06-.12.06a8 8 0 0 1-1 .3l-.39.09-.06.01-.41.04a10 10 0 0 1-1.05.01q-.3 0-.61-.05c.1.01.32.07-.06-.02q-.53-.1-1.03-.26l-.44-.17c.36.16-.21-.12-.28-.15a6 6 0 0 1-.85-.55c.28.22.03.02-.02-.03l-.39-.37-.3-.34c-.22-.25.24.38-.08-.1q-.3-.47-.56-.95c-.28-.5.09.33-.1-.22l-.13-.37a8 8 0 0 1-.27-1.15c.02.1.02.33 0-.08q-.04-.31-.04-.64v-.51c0-.08.07-.74.01-.37a5.3 5.3 0 0 1 1.78-3.47c.01-.01.5-.42.19-.18l.48-.33.5-.3c.05-.02.56-.25.25-.12a7 7 0 0 1 1.18-.35 5 5 0 0 1 1.18-.11c2.58-.04 2.58-4.04 0-4.01" class="c"/><path d="M252.05 294.36a1.5 1.5 0 0 0-1.16.21 16 16 0 0 0-2.3-6.66 245 245 0 0 0 13.74-10.3l.17.68c.65 2.55 4.8 4.88 3.98 4.66a6.2 6.2 0 0 0-3.4 3.1 37 37 0 0 1-4.62 7.15 5.04 5.04 0 0 1-6.13 1.24zm-77.96 14.7a5 5 0 0 0-2.73-.14 35 35 0 0 1-8.13.72 4.8 4.8 0 0 1-4.55-3.9 1.47 1.47 0 0 0-1.92-1 22 22 0 0 0 2.07-5.2l.08-.32c4.09.85 11.1 1.98 16.89 2.81a20 20 0 0 0-1.22 7.23z" class="a"/><path d="M250.7 326.98a6 6 0 0 1-1.78-1.28c-1.77-1.86-2.08-4.7-1.68-7.25s1.41-4.94 1.93-7.46a40 40 0 0 0 .61-6.18l.42-9.05a1.52 1.52 0 0 1 2.13-1.32 5.04 5.04 0 0 0 6.12-1.24 37 37 0 0 0 4.63-7.14c.95-1.97 3.25-3.78 5.43-3.2 1.4.38 2.9.89 3.76 1.2 5.53 1.62 8.87 6.3 8.21 11.65a18 18 0 0 1-2.92 7.35c-4.43 6.77-9.28 14.72-15.48 21.06a12.5 12.5 0 0 1-6.4 3.38 8 8 0 0 1-4.97-.52m-119.77 2.11-.49-.44c-1.23-1.27-1.48-2.97-1.65-4.73a7.3 7.3 0 0 1 .9-3.97c1.5-3.03 5.19-4.06 8.41-5.12a55 55 0 0 0 11.24-4.9l7.1-5.02a1.46 1.46 0 0 1 2.24.83 4.8 4.8 0 0 0 4.55 3.9 35 35 0 0 0 8.13-.72 4.5 4.5 0 0 1 4.53 1.38c1.37 1.48 2.48 5.57 2.77 7.22a19 19 0 0 1-.2 7.75c-.94 2.93-3.87 5.17-5.91 5.3-3.1.2-6 .34-9.65.29-7.18-.1-18.56-.1-28.7-.22a5 5 0 0 1-3.27-1.55m26.44-175.12c-2.74 2.71-3.92 3.03-7.97 3.23-2.12.11-4.18.2-5.04 2.44-.53 1.4-.23 2.16-.5 3.87-.16 1-.74 1.6-2.13 1.83a2.3 2.3 0 0 1-2.36-1.4 9 9 0 0 1-.65-2.03l-.4 1.06a3.4 3.4 0 0 1-2.8 1.89c-1.33-.14-2.05-1.94-2.16-3.9l-.03-.46-1.24 1.11a2.3 2.3 0 0 1-2.76.09 4 4 0 0 1-1.06-3.01c.1-3.07-.09-5.4.6-8.4a11.4 11.4 0 0 1 4.8-7.07 12 12 0 0 1 5.73-2.08c2.02-.17 5.71-.52 8.46-.78 2.03-.19 6.26-1.7 7.9-2.25" class="a"/><path d="M155.23 136.18c-2.56.85-5.38 2-7.93 2.23l-5.3.5a34 34 0 0 0-4.91.59 14 14 0 0 0-8.53 6.25c-2 3.38-2.2 7.26-2.25 11.08-.02 1.98-.15 3.98 1.08 5.66a4.2 4.2 0 0 0 5.72.85 2.06 2.06 0 0 0 .72-2.74 2 2 0 0 0-2.74-.71.7.7 0 0 1-.64.18q.4.37.04-.12l-.1-.33a8 8 0 0 1-.08-2.56 29 29 0 0 1 .5-6.24 9.9 9.9 0 0 1 6.47-7.21 20 20 0 0 1 4.72-.7l5.5-.52a41 41 0 0 0 8.8-2.36c2.42-.8 1.38-4.67-1.07-3.85" class="c"/><path d="M131.95 151.44a41 41 0 0 0-.66 6.53c-.03 2.2-.04 4.54.93 6.56a4 4 0 0 0 1.89 1.96 4 4 0 0 0 3.5-.14 5.5 5.5 0 0 0 2.3-2.1c.58-1.02.4-2.3.44-3.43a27 27 0 0 1 1-6.9 2 2 0 0 0-3.86-1.07 37 37 0 0 0-1.18 10.12l.28-1.01-.18.34c-.12.21.3-.29-.05.05l-.26.25c.25-.23-.04.03-.1.07l-.4.22c.3-.13.02.03-.09 0q-.17.03.04 0a.5.5 0 0 1 .36.02c-.26-.06-.01-.01.08.06-.36-.28.23.2 0 .03-.17-.13-.18-.2-.03 0l-.22-.35c-.04-.08-.16-.43-.04-.08a8 8 0 0 1-.24-.83l-.09-.5c.04.28 0-.09 0-.2a36 36 0 0 1-.05-4.43q.06-1.07.18-2.12a38 38 0 0 1 .3-2 2 2 0 0 0-3.86-1.07Z" class="c"/><path d="M136.47 159.86a13 13 0 0 0 1.29 5.32 4.35 4.35 0 0 0 4.8 2.03 4.1 4.1 0 0 0 3.14-2.77 10 10 0 0 0 .3-2.38 4 4 0 0 1 .2-1.62c.34-.95 1-1.06 1.94-1.16 1.4-.14 2.8-.14 4.2-.34a11.3 11.3 0 0 0 6.45-3.55c1.84-1.8-.99-4.63-2.83-2.83a10 10 0 0 1-2.32 1.88c-.07.04-.56.28-.2.12l-.64.22a9 9 0 0 1-1.3.28c-.2.02-1.07.09-1.5.11q-.87.04-1.73.1a8 8 0 0 0-3.58.95 5.6 5.6 0 0 0-2.35 3.16 22 22 0 0 0-.4 3.6c-.02.06-.13.64-.05.28.04-.19-.1 0 .03-.04s-.4.2-.52.14c-.42-.16-.58-1.22-.66-1.55a16 16 0 0 1-.27-1.95 2.06 2.06 0 0 0-2-2 2 2 0 0 0-2 2" class="c"/><path d="M193.32 178.6c-5.28.21-10.2.2-14.27-.03a7 7 0 0 1-2.1-.49l-.11.67c-4.04 23.55-7.55 41.4-11.2 62.4-2.34 13.43-7.74 42.76-9.74 56.47a1 1 0 0 0 .68 1.1c3.2.99 15.63 2.86 23.2 3.87a1 1 0 0 0 1.1-.76c5.1-20.99 8.63-35.46 13.6-54.23 1.6-6.03 3.93-12.95 6.52-19.98a38 38 0 0 0 3.24 7.24c10.96 17.98 27.85 42.7 38.46 55.98a1 1 0 0 0 1.34.2c6.64-4.47 14.1-9.93 19.21-14.2a1 1 0 0 0 .2-1.27c-9.1-14.68-19.09-30.02-28.17-44.67a38 38 0 0 1-3.94-8.6c-1.82-6.16-2.38-10.92-2.99-17.84-.9-10.11-1.45-15.82-2.12-22.26l-.74-7.21a215 215 0 0 1-32.17 3.61" style="fill:#3d8dcc"/><path d="M168.71 11.82a20 20 0 0 0-3.3 4.88 22 22 0 0 0-1.99 9.68 31 31 0 0 0 .17 5.32c.14 4.01.36 9.59-3.17 11.82a3.7 3.7 0 0 0-1.59 1.82c-.74 2.05 1.04 2.84 2.18 3.91a6 6 0 0 1 1.57 2.51 38 38 0 0 0 1.2 5.73 16 16 0 0 0 1.56 3.78 7.7 7.7 0 0 0 4.47 3.61 18.5 18.5 0 0 0 9.94.12 1.34 1.34 0 0 1 1.62.68 41 41 0 0 0 1.87 4.7A29 29 0 0 0 184.9 77c6.91-2.9 14.32-5.76 20.9-8.99a6 6 0 0 1 2.39-.54l-.13-.42-.28-.88a21 21 0 0 1-.89-4.43c.1-3.49 4.12-7.2 6.28-9.88a31.6 31.6 0 0 0 7.01-22.66 31 31 0 0 0-6.23-15.52c-7.9-10.09-16.12-11.37-21.15-11.66a31.4 31.4 0 0 0-14.08 2.66 28 28 0 0 0-9.79 6.9z" class="a"/><path d="M178.35 4.83c-8.66 3.82-12.33 10.4-12.94 11.87a21.5 21.5 0 0 0-1.99 8.78 11.4 11.4 0 0 1 7.4-1.69c6.23.71 11.71 4.32 15.34 7.6 2.03 1.97 2.58 3.45 4.54 6.5a5.4 5.4 0 0 1 2.84-2.38 3.8 3.8 0 0 1 3.26.3 5.6 5.6 0 0 1 2.15 4.5 9.8 9.8 0 0 1-2.17 6.6l.14.34c1.52 3.57 6.87 9.04 11.1 11.06 1.38-2.37 3.68-4.64 5.13-6.45a31.6 31.6 0 0 0 7.02-22.66 31 31 0 0 0-6.23-15.52c-7.9-10.09-16.12-11.37-21.15-11.66a31.4 31.4 0 0 0-14.08 2.66Z" class="e"/><path d="M170.82 25.8a25 25 0 0 1 11.22 4.8 19 19 0 0 1 3.84 3.43 48 48 0 0 1 2.91 4.59c1.37 2.17 4.83.16 3.45-2.02a53 53 0 0 0-3.45-5.3 24 24 0 0 0-4.73-4.16 29 29 0 0 0-13.24-5.35 2 2 0 0 0-2 2 2.05 2.05 0 0 0 2 2Z" class="c"/><path d="M192.6 38.67q.22-.29.48-.55c.05-.06.5-.46.3-.3a2 2 0 0 1 .94-.45 2 2 0 0 1 1.1-.02 1 1 0 0 1 .37.18c.34.2-.04-.13.21.19.02.01.37.47.2.22a5 5 0 0 1 .36.64q.1.18.02 0l.14.4.16.63c.11.42.02-.1.05.29l.02.72a11 11 0 0 1-.08 1.33l-.18.8a9 9 0 0 1-.4 1.25l-.36.67-.35.54-.16.23q.2-.24-.02.03a12 12 0 0 1-1.18 1.21c-.05.05-.62.5-.36.3a15 15 0 0 1-2.32 1.39 2 2 0 0 0 2.02 3.45 12.7 12.7 0 0 0 6.92-7.72c1.06-3.73.45-9.07-3.77-10.54a6.5 6.5 0 0 0-6.94 2.28 2.06 2.06 0 0 0 0 2.83 2 2 0 0 0 2.82 0Zm-24.55-1.59c-.39 1.23-.22 4.1 2 4.38 2.95.05 3.2-3.4 2.24-5.04-.78-1.35-3.16-1.95-4.24.66" class="c"/><path d="M184.97 69.38a32 32 0 0 1-1.25-3 9 9 0 0 0-.8-1.98c-1.53-2.29-3.83-1.05-5.97-.84a18 18 0 0 1-6.6-.6A6.6 6.6 0 0 1 166.4 59a29 29 0 0 1-1.78-6.89 8 8 0 0 0-3.08-5c-.24-.2-.86-.58-.9-.9-.07-.68 1.4-1.4 1.8-1.74a9 9 0 0 0 2.7-4.87c1.12-4.77-.1-9.62.37-14.43a2 2 0 0 0-2-2 2.04 2.04 0 0 0-2 2c-.42 4.27.7 8.65-.12 12.9a5.7 5.7 0 0 1-2.28 3.92c-1.84 1.33-3.1 3.65-2.1 5.89.78 1.76 2.85 2.41 3.55 4.2a20 20 0 0 1 .46 2.55 35 35 0 0 0 .94 3.8 14 14 0 0 0 3.67 6.33 11 11 0 0 0 5.94 2.54 20 20 0 0 0 7.72-.11 3 3 0 0 0 .66-.17q.69-.08-.1-.44-.53-.62-.38-.24c-.06.17.31.9.38 1.08a43 43 0 0 0 1.65 3.96c1.1 2.32 4.56.3 3.45-2.02Z" class="c"/><path d="M165.42 26.57a19.7 19.7 0 0 1 7.35-15.93 29.4 29.4 0 0 1 23.14-6.29c7.87 1.36 14.54 6.77 18.49 13.6a28.3 28.3 0 0 1 1.08 26.48c-1.8 3.73-4.22 6.46-6.8 9.6-1.5 1.82-3.1 3.87-3.61 6.23-.46 2.13.14 4.41.76 6.45.75 2.46 4.61 1.41 3.86-1.06-.5-1.64-1.15-3.46-.53-5.12.75-2.06 2.42-3.79 3.84-5.41a39 39 0 0 0 6.14-9.12 32.4 32.4 0 0 0-.88-29.35C214.08 8.97 206.62 2.5 197.95.68a33.2 33.2 0 0 0-25.86 5.44 28 28 0 0 0-7.73 8.27 24 24 0 0 0-2.94 12.18c.02 2.57 4.02 2.58 4 0" class="c"/><path d="M195.2 48.26a22 22 0 0 0 4.69 6.36 28 28 0 0 0 6.8 5.26 2 2 0 0 0 2.03-3.45 18 18 0 0 1-1.64-.96l-.77-.53q-.2-.14-.38-.29c-.05-.03-.48-.37-.11-.08a35 35 0 0 1-3.1-2.78q-.7-.7-1.34-1.44l-.67-.8-.17-.22-.21-.27a15 15 0 0 1-1.68-2.82 2 2 0 0 0-2.73-.71 2.06 2.06 0 0 0-.72 2.73m-32.11 7.96a11.5 11.5 0 0 0 5.58-1.5 2 2 0 0 0 .92-1.2 2 2 0 0 0-.2-1.54 2 2 0 0 0-2.74-.72 7 7 0 0 1-.94.5l.48-.2a10 10 0 0 1-2.42.62l.53-.08q-.6.08-1.21.11a2 2 0 0 0-1.41.59 2 2 0 0 0 0 2.83 2 2 0 0 0 1.4.58Zm1.82-29.38a9 9 0 0 1 1.46-1.45l-.4.3a9 9 0 0 1 1.86-1.1 2.2 2.2 0 0 0 .92-1.2 2 2 0 0 0-.2-1.53 2 2 0 0 0-1.2-.92l-.53-.07a2 2 0 0 0-1 .27 9 9 0 0 0-1.85 1.08 10 10 0 0 0-1.9 1.78 2.2 2.2 0 0 0-.58 1.42 2 2 0 0 0 .59 1.41 2 2 0 0 0 1.41.59 2 2 0 0 0 1.42-.59Z" class="c"/><path d="M226.43 174.79a2.8 2.8 0 0 0 2.44-2.82c-.1-9.07-5.78-59.15-6.6-65.7-1.25-9.87-2.08-15.58-5.26-24.24-.37-1-1.24-3.19-1.65-4.17-.51-1.23-2.9-7.18-3.04-7.58a3.9 3.9 0 0 0-3-2.75 6.6 6.6 0 0 0-3.53.49c-6.73 3.3-14.31 6.21-21.35 9.17-.4.17-.87.31-1.04.67-.1.22-.12.94-.23 1.3-.9 2.7-3.8 10.83-4.64 15.3a217 217 0 0 0-3.39 25.26c-1.11 16-1.23 34.08-1.05 54.64.02 2.56 2.62 4.07 4.96 4.2 12.5.75 33.05-.74 47.38-3.77" class="a"/><path d="M226.96 176.72a5 5 0 0 0 3.9-5.23q-.04-1.42-.14-2.86-.3-4.41-.71-8.82c-.73-8.08-1.58-16.15-2.44-24.2q-1.2-11.2-2.48-22.37a210 210 0 0 0-3.06-21.32 89 89 0 0 0-4.78-14.7q-1.03-2.5-2.03-5c-.65-1.65-1.18-3.6-2.38-4.93-2.07-2.26-5.45-2.19-8.06-1-3.07 1.4-6.1 2.84-9.21 4.15-3.31 1.4-6.64 2.74-9.96 4.12-1.3.54-3.17.98-3.94 2.3a16 16 0 0 0-.82 2.9 117 117 0 0 0-4.15 13.63 201 201 0 0 0-3.12 21.06c-1.25 12.62-1.44 25.36-1.53 38.03q-.07 10.58.03 21.14a6.5 6.5 0 0 0 4.52 6.46c2.23.81 4.92.62 7.27.66a211 211 0 0 0 35.02-2.57q4.06-.62 8.07-1.45c2.52-.53 1.45-4.39-1.06-3.86a193 193 0 0 1-28.5 3.55 185 185 0 0 1-13.53.33c-1.82-.03-3.99.18-5.74-.36a3 3 0 0 1-1.78-1.18c-.62-1-.28-2.67-.29-3.8-.08-11-.08-22 .21-33a280 280 0 0 1 2.2-31.46 117 117 0 0 1 3.23-16.85q1-3.34 2.12-6.63.44-1.32.9-2.63c.26-.78.31-1.7.62-2.43l-.52.88a8 8 0 0 1 2.29-1.04l2.58-1.07 5.65-2.33c3.44-1.44 6.88-2.9 10.25-4.5 1.1-.52 2.54-1.28 3.78-.75.71.31.98 1.1 1.24 1.77q1.1 2.78 2.23 5.56a104 104 0 0 1 5.01 14.65 137 137 0 0 1 2.52 15.49c1.85 15.16 3.47 30.37 4.97 45.58q.63 6.33 1.15 12.67a179 179 0 0 1 .38 6.08c.02.85-.04 1.24-.96 1.47-2.5.64-1.45 4.5 1.05 3.86" class="c"/><path d="M174.91 178.22c-3.5 20.46-7.44 40.85-11.01 61.3-2.7 15.45-5.77 30.82-8.46 46.27q-.88 4.98-1.65 9.98a6 6 0 0 0-.14 2.67 3.2 3.2 0 0 0 2.31 2.14 34 34 0 0 0 3.7.83c3.95.77 7.93 1.4 11.9 2q2.93.45 5.85.86a9 9 0 0 0 3.2.24 3.3 3.3 0 0 0 2.3-2.63c5.05-19.17 8.98-38.65 14.6-57.66 4.93-16.66 11.8-32.74 18.54-48.74l1.83-4.34a2 2 0 0 0-1.4-2.46 2.05 2.05 0 0 0-2.46 1.4c-5.35 12.77-10.78 25.52-15.52 38.54-5.28 14.53-8.92 29.54-12.66 44.53q-1.68 6.73-3.32 13.46l-1.76 7.21-.9 3.67a30 30 0 0 1-1.03 4.08l.51-.88c.24-.3.74.04.07-.15l-.62-.08-1.62-.23-3.47-.5q-3.4-.52-6.8-1.08a214 214 0 0 1-8.46-1.57q-.47-.1-.95-.23l-.31-.08c-.93-.01.64.94.33 1.02a14 14 0 0 0 .35-2.34l.46-2.84q.48-2.88.98-5.75 1.16-6.69 2.4-13.36c3.4-18.46 6.72-36.94 10.1-55.41 2.37-12.93 4.74-25.85 6.97-38.8a2.06 2.06 0 0 0-1.4-2.46 2 2 0 0 0-2.46 1.4Z" class="c"/><path d="M224.23 182.2q.82 7.86 1.53 15.73c.61 6.67.98 13.43 2.4 20a47 47 0 0 0 3.06 9.61 81 81 0 0 0 5.34 9.2q5.89 9.39 11.85 18.73l6.73 10.61 3.32 5.27 1.51 2.42.75 1.2c.12.2.73 1.36.83 1.08l.51-.88a26 26 0 0 1-4.13 3.4q-2.42 1.9-4.9 3.7-2.54 1.87-5.1 3.68-1.28.9-2.57 1.78c-.64.44-1.68 1.45-2.42 1.56H244l.11.14-.36-.44-.36-.46-.92-1.17-1.8-2.35q-1.97-2.6-3.9-5.23-4.49-6.1-8.8-12.33-9.05-13.02-17.55-26.41c-2.81-4.46-5.9-8.88-7.5-13.95-.77-2.45-4.63-1.4-3.85 1.06 1.86 5.9 5.44 11.04 8.73 16.2q5.42 8.52 11.08 16.87c6.92 10.25 14.02 20.43 21.69 30.13 1.02 1.3 2.21 2.28 3.96 1.65 1.6-.57 3.12-2 4.5-2.96q4.56-3.19 9-6.54 2.18-1.64 4.31-3.34c1.23-.98 2.98-1.97 3.22-3.65.27-1.83-1.46-3.7-2.38-5.17l-3.17-5.05q-6.46-10.21-12.94-20.41l-6.42-10.16a92 92 0 0 1-5.87-10c-2.95-6.36-3.73-13.64-4.35-20.55-.58-6.35-1.15-12.7-1.79-19.06l-.4-3.91a2.06 2.06 0 0 0-2-2 2 2 0 0 0-2 2Zm-50.75 120.47a23 23 0 0 0-.9 6.46 2 2 0 0 0 4 0 22 22 0 0 1 .18-2.82l-.08.53a21 21 0 0 1 .66-3.1 2 2 0 1 0-3.86-1.07m-15.52 3.99a24 24 0 0 0 2.8-6.58 2 2 0 1 0-3.86-1.07 22 22 0 0 1-1.04 3.1l.2-.47a22 22 0 0 1-1.56 3 2 2 0 0 0 .72 2.73 2.04 2.04 0 0 0 2.74-.72Z" class="c"/><path d="M247.02 289.2q.33.6.63 1.23l.3.66.1.22-.1-.25.16.4a13 13 0 0 1 .79 2.86l-.08-.53a8 8 0 0 1 .06 1.6 2 2 0 0 0 2 2 2.05 2.05 0 0 0 2-2c.22-2.87-1.07-5.76-2.4-8.2a2 2 0 0 0-2.74-.73 2.04 2.04 0 0 0-.72 2.74m13.55-10.37a7 7 0 0 0 1.54 2.73 13 13 0 0 0 1.62 1.61 2 2 0 0 0 1.42.59 2 2 0 0 0 1.41-.59 2 2 0 0 0 .59-1.41 2 2 0 0 0-.59-1.42 12 12 0 0 1-1.76-1.79l.3.4a6 6 0 0 1-.7-1.18l.2.48-.17-.5a2 2 0 0 0-2.46-1.4 2 2 0 0 0-1.2.93 2 2 0 0 0-.2 1.54Z" class="c"/><path d="M185.1 120.84c.73-2.4 1.25-4.67 1.69-6.92.83-4.24 1.34-8.46 2.13-13.6a26 26 0 0 1 2.66-9.04c2.19-4.13 5.85-7 10.95-6.77a11.9 11.9 0 0 1 9.54 5.93c1.7 4.12 1.59 8.6 1.4 13.06-1.16 11.59-2.2 15.92-5.92 27.08a34 34 0 0 1-4.3 7.48c-2.17 2.97-4.9 4.82-9.46 7.08-13.58 6.13-17.67 7.82-32.57 11a1 1 0 0 1-1.16-.64c-1.94-5.49-3.88-14.43-5.07-19.19a1.03 1.03 0 0 1 .7-1.21c11-3.37 18.34-5.23 25.8-9.15a8.2 8.2 0 0 0 3.62-5.11" class="a"/><path d="M187.04 121.37c2.13-7.24 2.77-14.71 4.04-22.12.94-5.52 3.81-12.44 10.33-12.75a9.9 9.9 0 0 1 8.2 3.8c2.2 2.84 2.03 7.49 1.94 10.9a82 82 0 0 1-2.83 18.84c-1.66 6.22-3.44 12.64-7.7 17.64a23 23 0 0 1-7.43 5.32c-3.01 1.54-6.18 2.85-9.3 4.17a104 104 0 0 1-15.41 5.16q-2.35.6-4.72 1.11l-1.47.33c-.3.06-1.1.08-1.32.28l-.23.05.75.56c.02-.04-.15-.41-.16-.47q-.17-.57-.37-1.14c-1-3.18-1.82-6.43-2.61-9.67l-1.12-4.64-.44-1.86c-.03-.12-.11-.8-.21-.84l-.14.42q-.4.6.08.35c.2.04.7-.22.9-.28 3.5-1.06 7-2.08 10.5-3.19 2.96-.94 5.91-1.95 8.8-3.16 2.53-1.07 5.65-2.1 7.5-4.24a13 13 0 0 0 2.4-4.57c.79-2.46-3.07-3.5-3.85-1.06a7 7 0 0 1-2.26 3.64 25 25 0 0 1-4.23 2.1 92 92 0 0 1-9.44 3.44c-3.78 1.2-7.6 2.3-11.39 3.46-2.15.65-3.2 2.01-2.7 4.29.33 1.48.72 2.96 1.07 4.45.86 3.57 1.72 7.16 2.75 10.69.42 1.45.76 3.65 1.81 4.78 1.51 1.63 3.76.73 5.61.32a118 118 0 0 0 17.98-5.23c3.18-1.26 6.31-2.64 9.44-4.04a43 43 0 0 0 9.81-5.55c5.7-4.64 8.12-11.91 10.13-18.68a102 102 0 0 0 3.66-20.01 33 33 0 0 0-.95-12.77 13 13 0 0 0-7.9-7.87c-6.86-2.64-13.85 1.15-16.96 7.42-1.86 3.75-2.44 7.73-3.04 11.84-.56 3.89-1.09 7.8-1.88 11.64q-.63 3.07-1.51 6.08c-.72 2.47 3.14 3.53 3.87 1.06m64.68 203.89c-4.07-2.06-2.44-7.26-1.43-10.67a44 44 0 0 0 1.53-10.57l.32-6.99a6 6 0 0 0 .05-1.02c0-.02.03-.2.01-.22.16.1-.43.59-.44.56.1.37 2.01.53 2.34.57a7 7 0 0 0 2.92-.35c2.05-.75 3.32-2.44 4.56-4.15a39 39 0 0 0 1.93-2.96c.58-.97 1.02-2.06 1.64-3a3.1 3.1 0 0 1 4.51-1.17 20 20 0 0 1 4.96 2.02 8.5 8.5 0 0 1 3.9 8.06c-.46 4.3-3.53 8-5.81 11.5a124 124 0 0 1-8.82 12.27c-1.59 1.9-3.22 4-5.4 5.23-1.97 1.1-4.6 1.83-6.77.9a2.07 2.07 0 0 0-2.73.71 2 2 0 0 0 .71 2.74c5.03 2.17 10.6.17 14.25-3.65a95 95 0 0 0 9.86-12.62c4.8-7.1 12.77-16.81 6.33-25.35a13 13 0 0 0-5-4.07 26 26 0 0 0-6.7-2.2c-5.7-.83-7.7 5.96-10.3 9.57-1.15 1.58-2.3 2.98-4.41 2.4a5 5 0 0 0-2.95-.34 3.6 3.6 0 0 0-2.45 2.46 13 13 0 0 0-.2 2.7l-.2 4.24-.14 2.95a38 38 0 0 1-1.48 9.16 19 19 0 0 0-1.06 8.35 8.4 8.4 0 0 0 4.46 6.4c2.28 1.15 4.3-2.3 2-3.46m-119.37 2.42A5.7 5.7 0 0 1 131 322a6.2 6.2 0 0 1 3.74-3.85c1.92-.88 4-1.4 5.99-2.1a61 61 0 0 0 6.6-2.76 48 48 0 0 0 6.47-4.07l2.98-2.12c.13-.08.6-.31.65-.45-.1.31-.57-.68-.64-.25-.05.35.41 1.1.55 1.39 2.07 4.35 6.9 4.1 11.02 3.62 1.2-.15 2.4-.43 3.6-.58a2.7 2.7 0 0 1 2.26.59c1.13 1.03 1.62 3.08 2.03 4.55.91 3.27 1.56 7.94-.86 10.71a5.6 5.6 0 0 1-4.51 1.99q-3.75.21-7.49.2l-15.04-.12-8.55-.06-4.27-.04a4 4 0 0 1-3.18-.98c-1.94-1.67-4.78 1.15-2.83 2.83a8 8 0 0 0 3.23 1.93 19 19 0 0 0 4.57.24l8.58.07q7.86.03 15.71.1 4.01.06 8.02-.1c2.37-.12 4.6-.14 6.62-1.53 4.56-3.12 5.18-8.47 4.45-13.57-.56-3.9-2.09-9.48-6.41-10.63-2.48-.65-5.15.37-7.65.55-1.81.13-4.36.6-5.51-1.17-.55-.84-.63-1.87-1.33-2.64a3.5 3.5 0 0 0-3.6-.93 10 10 0 0 0-2.49 1.58 69 69 0 0 1-6.52 4.45 53 53 0 0 1-8.14 3.55c-2.53.88-5.25 1.54-7.56 2.94a9.6 9.6 0 0 0-4.6 6.79c-.45 2.9.38 6.4 2.64 8.37 1.92 1.7 4.76-1.13 2.82-2.82" class="c"/></svg>
