<svg xmlns="http://www.w3.org/2000/svg" viewBox="-141.61 0 446.199 446.199"><defs><style>.a{fill:#fff}.b{fill:#211715}</style></defs><path d="M13.22 146.01c4.3 10.1 9.23 29.46 14.19 36.88a19.2 19.2 0 0 0 12.39 8.06 13.7 13.7 0 0 0 10.27-2.84c.02 6.17-.26 13.08-.25 18.85.01 4.07-2.07 11.41.47 15.12 20.14.06 58.22.13 86.45.2 2.24-3.15.87-9.74.88-13.32.01-3.18-.19-5.97-.44-9.6l23.6-30.87c-1.62-15.36-2.93-25.62-9.18-45.25-2.16-6.8-3.92-11.75-8.79-15.68a53 53 0 0 0-5.7-3.52c-4.3-2.19-13.75-5.45-18.83-7.32a44 44 0 0 1-10.52 4.8 53 53 0 0 1-14.11 2.07 32 32 0 0 1-13.39-2.8 63 63 0 0 1-9.66-4.9l-.04-.02-3.12 1.2c-4.32 1.67-11.53 5.27-16.25 7.67a68 68 0 0 0-6.46 3.86c-4.87 3.93-7.04 9.97-8.5 16.32Zm107.64 292.5-.35-.32c-2.74-2.6-4.68-5.01-8.43-6.16a25 25 0 0 1-7.82-4.25c-2.44-2.28-1.94-6.35-1.82-9.43.07-1.95.49-7.03 1.35-9.06l.6-1.42a47 47 0 0 0 8.6.87 58 58 0 0 0 12.21-1.28c5.44 7.48 12.54 13.94 19.17 20.54 2.23 2.22 4.14 5.19 3.87 8.32a7.7 7.7 0 0 1-3.38 5.47 14 14 0 0 1-6.2 2.18 23.4 23.4 0 0 1-14.58-3 18 18 0 0 1-3.22-2.45m-80.48 1.8a7 7 0 0 1-1.76-3.99c-.26-3.13 1.64-6.1 3.87-8.32 6.61-6.58 13.68-13.01 19.12-20.47a57 57 0 0 0 11.82 1.2 46 46 0 0 0 9-.95l.65 1.51c.86 2.03 1.27 7.11 1.35 9.06.11 3.08.62 7.15-1.83 9.43a25 25 0 0 1-7.81 4.25c-3.75 1.15-5.69 3.57-8.43 6.16a19 19 0 0 1-3.57 2.79 23.4 23.4 0 0 1-14.59 2.99 14 14 0 0 1-6.2-2.18 9 9 0 0 1-1.62-1.48" class="a"/><path d="M101.86 408.76c-1.06 2.67-1.2 5.85-1.38 8.7-.19 3.1-.54 6.5.75 9.4 1.35 3.05 4.83 4.82 7.73 6.1a49 49 0 0 1 4.62 1.88 19 19 0 0 1 3.83 3.13 41 41 0 0 0 4.28 3.82 22 22 0 0 0 5.37 2.77 25 25 0 0 0 12.13 1.34c3.8-.53 7.56-2.14 9.7-5.48s1.54-7.43-.52-10.64a29 29 0 0 0-4.37-4.96q-2.56-2.5-5.08-5a138 138 0 0 1-9.96-10.74 2 2 0 0 0-2.83 0 2.05 2.05 0 0 0 0 2.83c4.84 5.93 10.42 11.17 15.86 16.54 2.1 2.08 4.77 4.8 4.22 8.07-.55 3.23-3.98 4.76-6.85 5.32a21 21 0 0 1-10.42-.84 21 21 0 0 1-8.15-5.32c-2.33-2.28-4.66-4.36-7.79-5.45a20 20 0 0 1-7.33-3.86c-2.08-1.96-1.34-5.9-1.21-8.43a26 26 0 0 1 1.26-8.11 2 2 0 0 0-1.4-2.47 2.05 2.05 0 0 0-2.46 1.4" class="b"/><path d="M121.31 47.99a4.5 4.5 0 0 1 3.26-1.2 4.2 4.2 0 0 1 3.76 2.1c1.28 2.21 1.23 6.3.37 8.82a13.6 13.6 0 0 1-4 6.49 5 5 0 0 1-3.83 1.1l-.37-.06a29 29 0 0 1-1.32 3.58c-.98 2.65-6.36 11.93-13.18 15.55q.15 1.95.5 3.9c.36 2.04.25 3.86 3.08 4.88.17.06 6.71 3.17 8.22 3.88a45 45 0 0 1-10.03 4.5 53 53 0 0 1-14.12 2.06 32 32 0 0 1-13.38-2.8 63 63 0 0 1-9.67-4.9c2.68-1.24 5.81-2.7 5.92-2.73 2.84-1.03 2.72-2.85 3.09-4.89.2-1.18.36-2.27.46-3.41a25.4 25.4 0 0 1-9.2-7.34 34 34 0 0 1-6.5-12.28 4.9 4.9 0 0 1-4.15-1.04 13.6 13.6 0 0 1-4-6.49c-.86-2.53-.92-6.6.36-8.82a4.2 4.2 0 0 1 3.76-2.1A4.5 4.5 0 0 1 63.6 48s-6.14-24.86 28.14-24.86S121.3 48 121.3 48" class="a"/><path d="m92.9 222.18-42.67-.1C51.6 279.3 54.19 349 56.7 406.44a68 68 0 0 0 16.74 2.29c4.68-.08 10.35-.76 12.96-2.43 1.5-47.2 3.5-100.21 6.82-149.52 3.31 49.3 5.32 102.32 6.81 149.52 2.61 1.67 8.29 2.35 12.97 2.42a68 68 0 0 0 16.73-2.28c2.52-57.77 4.69-126.72 6.07-184.17z" style="fill:#7a7473"/><path d="M135.18 199.36c.3 4.27.28 8.55.62 12.82a42 42 0 0 1 .2 5.46 5.7 5.7 0 0 1-1.3 3.93c-1.89 1.77.95 4.6 2.82 2.83 2.98-2.8 2.63-7.6 2.35-11.31-.34-4.57-.38-9.15-.7-13.73-.17-2.55-4.17-2.57-4 0ZM45.87 123.3c1.12 14.92 1.43 29.88 1.74 44.84.14 6.96.46 13.94.45 20.9 0 3.45-.08 6.9-.15 10.34-.05 2.95.07 5.94-.14 8.89-.36 5.07-2.42 12.13 1.91 16.13 1.89 1.75 4.72-1.07 2.83-2.82-1.52-1.41-1.53-3.73-1.47-5.66.08-2.48.5-4.91.7-7.37.25-2.9.1-5.83.16-8.73q.12-4.95.16-9.92c.03-6.8-.28-13.59-.42-20.38-.15-7.1-.28-14.19-.5-21.28a577 577 0 0 0-1.27-24.94c-.2-2.56-4.2-2.58-4 0" class="b"/><path d="M133.73 224.96q-.85 35.18-1.94 70.35-1.12 36.26-2.5 72.5-.73 19.33-1.56 38.64l1.46-1.92a66 66 0 0 1-16.2 2.2 45 45 0 0 1-6.53-.5 15 15 0 0 1-5.42-1.65l1 1.73q-.9-28.1-2-56.19-1.15-29.05-2.7-58.09-.87-16.25-1.94-32.49c-.17-2.55-4.17-2.57-4 0a3256 3256 0 0 1 3.9 72.54q1.54 35.32 2.63 70.67c.04 1.4-.37 3.91.7 4.97a8 8 0 0 0 3.19 1.54 35 35 0 0 0 8.37 1.36c6.8.45 13.5-.66 20.08-2.24a2.04 2.04 0 0 0 1.47-1.93q1.53-35.15 2.72-70.32 1.26-36.25 2.27-72.51.54-19.33 1.02-38.66c.06-2.57-3.94-2.57-4 0Z" class="b"/><path d="M91.03 259.54q-1.9 28.86-3.23 57.76-1.36 28.82-2.36 57.66-.56 15.68-1.05 31.35l1-1.72a15 15 0 0 1-5.23 1.6 45 45 0 0 1-6.73.55 66 66 0 0 1-16.2-2.21l1.46 1.93q-1.54-35.42-2.87-70.84-1.36-36.4-2.48-72.81-.59-19.5-1.07-39.01c-.06-2.57-4.06-2.58-4 0q.86 35.44 2.1 70.87 1.22 36.4 2.7 72.8.77 19.5 1.62 38.99a2.05 2.05 0 0 0 1.47 1.93 69 69 0 0 0 18.06 2.33 48 48 0 0 0 7.95-.84 20 20 0 0 0 3.06-.83c1.03-.38 2.53-.87 2.99-1.96.5-1.2.24-3.05.28-4.34l.14-4.26.29-8.6.61-17.72q1.3-36.03 3.1-72.05 1.06-20.3 2.39-40.58c.17-2.57-3.84-2.56-4 0" class="b"/><path d="M81.15 409.82a25 25 0 0 1 1.21 7.37c.16 2.46.65 5.46-.27 7.82a5.3 5.3 0 0 1-2.29 2.4 26 26 0 0 1-4.09 2.16c-1.37.58-2.8.93-4.12 1.64a19 19 0 0 0-3.9 2.9c-2.5 2.33-4.67 4.69-7.84 6.13a21.5 21.5 0 0 1-9.93 1.88c-3.06-.15-6.7-.98-8.49-3.73s-.3-5.9 1.65-8.1c2.79-3.16 6.03-5.96 9-8.94 3.02-3.02 5.96-6.13 8.66-9.44a2.06 2.06 0 0 0 0-2.83 2 2 0 0 0-2.83 0 128 128 0 0 1-8.65 9.45c-2.97 2.97-6.22 5.77-9 8.92-2.5 2.84-4.4 6.63-3.38 10.49 1 3.76 4.36 6.28 7.94 7.36a24.2 24.2 0 0 0 22.64-5.41c2.58-2.39 4.7-4.86 8.12-6.02 2.98-1 6.5-2.57 8.67-4.92 2.68-2.87 2.33-6.98 2.17-10.6-.14-3.12-.25-6.66-1.42-9.59a2.06 2.06 0 0 0-2.46-1.4 2 2 0 0 0-1.4 2.46Zm-1.9-307.3c9.34 4.14 19.36 3.53 29.05.94 2.48-.67 1.43-4.53-1.07-3.86-8.52 2.28-17.68 3.14-25.95-.53a2.06 2.06 0 0 0-2.74.71 2 2 0 0 0 .72 2.74M52.08 224.08q32.47.1 64.94.15l19.1.05c2.57 0 2.57-4 0-4l-68.53-.16q-7.76-.01-15.51-.04c-2.58 0-2.58 4 0 4M67.34 99.53c.9-.31 1.77-.77 2.64-1.16l4-1.85 3.14-1.45.32-.15c.1-.05.28-.12-.16.06l.84-.35a5.6 5.6 0 0 0 2.48-2.28 9 9 0 0 0 .83-2.94c.24-1.52.5-3.02.64-4.55a2 2 0 0 0-2-2 2.05 2.05 0 0 0-2 2 38 38 0 0 1-.93 5.5c-.06.26.2-.3.03-.1l-.13.25c-.22.4.16-.1-.08.1l-.23.22c.22-.24.14-.08.02-.01l-.3.19-.3.16c-.15.06-.7.28-1.03.43l-6.67 3.09-1.74.8-.55.24c-.45.2.5-.19.12-.06a2.05 2.05 0 0 0-1.4 2.47 2 2 0 0 0 2.46 1.4Zm36.69-14.84q.2 2.14.56 4.25a17 17 0 0 0 .41 2.2 5.5 5.5 0 0 0 1.51 2.5 6 6 0 0 0 1.35.93 11 11 0 0 0 1 .44c.65.25-.46-.23-.21-.1 1.97 1.02 4.03 1.9 6.04 2.85q1.42.7 2.88 1.33a2 2 0 0 0 2.46-1.4 2.06 2.06 0 0 0-1.4-2.46c1 .42.05 0-.18-.1l-1.29-.6-3.5-1.66-2.7-1.28-.28-.13-.08-.03-.48-.2c-.05-.03-.37-.17-.08-.03l-.55-.3c-.05-.03-.35-.22-.12-.06.2.14 0 0-.03-.04-.15-.14-.4-.47-.15-.1l-.3-.5c-.12-.18.1.16.07.18l-.12-.36-.13-.51q-.11-.6-.2-1.21c-.2-1.32-.37-2.3-.5-3.6a2.04 2.04 0 0 0-2-2 2 2 0 0 0-2 2Z" class="b"/><path d="M74.5 37.85a86 86 0 0 0-6.29 6.27l-4.61 3.87a4.5 4.5 0 0 0-3.26-1.19 5 5 0 0 0-1.4.23 38 38 0 0 1-1.42-11.41A34.6 34.6 0 0 1 71.8 8.56 34 34 0 0 1 92.37 2a34.3 34.3 0 0 1 21.36 7.13c6.46 4.88 12.94 13.25 13.5 26.49a37 37 0 0 1-1.37 11.36 6 6 0 0 0-1.28-.18 4.5 4.5 0 0 0-3.26 1.2l-4.58-3.63c-1.48-3.72-4.82-7.83-8.3-10.83a19 19 0 0 0-5.28-3.32l-5.74-.7c-3.86 1.63-9.31 5.05-12.37 6.75a1.05 1.05 0 0 1-1.5-1.12 6 6 0 0 0-.13-2.01c-.2-.84-.85-1.2-1.35-.93a42 42 0 0 0-7.57 5.64" style="fill:#85807f"/><path d="M65.02 46.58a6.9 6.9 0 0 0-7.54-1.13 6.6 6.6 0 0 0-3.44 4.43 16.5 16.5 0 0 0 2.4 13.06c1.7 2.52 4.37 4.79 7.6 4.37a2.07 2.07 0 0 0 2-2 2 2 0 0 0-2-2c-2.28.3-3.78-1.6-4.77-3.43a13 13 0 0 1-1.62-5.04 8.6 8.6 0 0 1 .86-5.27c-.31.5.52-.45.24-.25a2 2 0 0 1 .97-.44 2.7 2.7 0 0 1 2.47.52c1.91 1.71 4.75-1.1 2.82-2.82Zm57.7 2.82a2.7 2.7 0 0 1 2.34-.56 2 2 0 0 1 1.1.48c-.28-.2.54.73.23.24a5 5 0 0 1 .8 2.13 12 12 0 0 1 .07 3.14 13 13 0 0 1-1.62 5.05c-1 1.83-2.49 3.72-4.78 3.42a2 2 0 0 0-2 2 2.05 2.05 0 0 0 2 2c5.28.69 8.52-5.02 9.84-9.28 1.18-3.83 1.13-9.77-2.6-12.21a6.9 6.9 0 0 0-8.2.76c-1.93 1.72.9 4.54 2.82 2.83" class="b"/><path d="M119.11 62.6a29 29 0 0 1-1.31 4.37c-.2.51-.36.85-.59 1.42-.2.5.14-.27-.03.09l-.19.4a37 37 0 0 1-3.21 5.34c-2.8 3.96-6.62 8.28-11.53 9.44-2.5.59-1.45 4.44 1.06 3.86 5.8-1.37 10.25-6.2 13.61-10.84a38 38 0 0 0 3.49-5.71l.58-1.3c.21-.52-.15.34.08-.2q.23-.51.43-1.04a29 29 0 0 0 1.47-4.77c.52-2.51-3.33-3.58-3.86-1.06m-57.25.95c2.5 10.92 10.7 22.82 22.5 24.6a2.07 2.07 0 0 0 2.46-1.4 2 2 0 0 0-1.4-2.46c-10.5-1.58-17.5-12.1-19.7-21.8-.58-2.5-4.43-1.44-3.86 1.07Zm50.77-57.62a38 38 0 0 0-35.45-2.8A37 37 0 0 0 57.4 25a39 39 0 0 0-.52 22.02c.63 2.5 4.49 1.44 3.86-1.06-2.66-10.48-.77-21.87 6.32-30.23a34 34 0 0 1 9.9-8.08 33.9 33.9 0 0 1 33.66 1.72c2.17 1.4 4.18-2.06 2.02-3.45m15.27 41.1a40 40 0 0 0-.66-22.52 35.6 35.6 0 0 0-9.72-14.83c-1.9-1.73-4.73 1.1-2.83 2.83a31.4 31.4 0 0 1 8.69 13.07 36 36 0 0 1 .66 20.39c-.6 2.5 3.25 3.56 3.86 1.06m-41.08 25.8a12 12 0 0 0 5.93 1.38 9.8 9.8 0 0 0 6.1-1.84 2 2 0 0 0 0-2.83 2.06 2.06 0 0 0-2.84 0c.7-.54-.04 0-.26.11-.16.1-.62.23 0 .02l-.48.18q-.3.1-.62.17a4 4 0 0 0-.73.14c.2-.1.32-.04.01 0l-.4.02a14 14 0 0 1-2.21-.03l-.23-.03.18.02c-.12.06-.52-.09-.65-.12q-.3-.06-.62-.16l-.52-.17c-.45-.16.41.2 0 0l-.64-.32a2 2 0 1 0-2.02 3.45Zm4.67-13.66a27 27 0 0 1 .63 2.86l-.07-.53a2 2 0 0 1 0 .4l.08-.53-.04.18.2-.48-.07.11.32-.4-.1.1.4-.32-.22.12.48-.2-.38.11.53-.07h-.36l.53.07-.4-.07a1.5 1.5 0 0 0-.8-.04 1.5 1.5 0 0 0-.74.24 2 2 0 0 0-.72 2.74 2 2 0 0 0 1.2.92c.36.04.7.13 1.06.15a3.5 3.5 0 0 0 1.63-.4 2.5 2.5 0 0 0 1.32-1.6 4 4 0 0 0 0-1.68q-.26-1.38-.62-2.73a2 2 0 0 0-2.45-1.4 2 2 0 0 0-1.2.91 2 2 0 0 0-.2 1.55Zm-14.6-8.24c-.48 1.55-.17 5.12 2.78 5.43 3.88-.03 4.09-4.35 2.78-6.38-1.07-1.66-4.22-2.35-5.56.95m31.14 0c.47 1.55.16 5.12-2.78 5.43-3.89-.03-4.1-4.35-2.79-6.38 1.08-1.66 4.23-2.35 5.57.95m-5.88-18.97a23 23 0 0 1 7.35 5.35 31 31 0 0 1 3.05 3.66A26 26 0 0 1 114.4 44l.28.59.13.3a2.06 2.06 0 0 0 2.46 1.4 2 2 0 0 0 1.4-2.46 30 30 0 0 0-6.17-9.18 26 26 0 0 0-8.32-6.16 2.06 2.06 0 0 0-2.74.72 2 2 0 0 0 .72 2.74" class="b"/><path d="M69.63 45.53a83 83 0 0 1 7.35-7.2 45 45 0 0 1 3.69-2.91 21 21 0 0 0 1.9-1.21q1-.44-1.08-.55a2 2 0 0 1 .09.48 7 7 0 0 0-.03 1 3.08 3.08 0 0 0 3.48 3.2c1.42-.25 2.86-1.4 4.1-2.12a86 86 0 0 1 9.3-4.98 2 2 0 0 0 .72-2.74 2.05 2.05 0 0 0-2.74-.71 86 86 0 0 0-9.3 4.98l-2.06 1.2-.53.3q-1.01.43 1.03.87a2 2 0 0 0 .03-.92c-.07-1.84-.91-4.02-3.06-4.1-1.49-.05-3 1.23-4.16 2.05a57 57 0 0 0-4.2 3.33 83 83 0 0 0-7.36 7.2c-1.72 1.9 1.1 4.75 2.83 2.83m66.5 121.21c-.12-14-.62-28 0-42 .11-2.57-3.89-2.56-4 0-.62 14-.12 28.01 0 42 .02 2.58 4.02 2.58 4 0" class="b"/><path d="M116.17 98.06c5.12 1.96 10.34 3.69 15.44 5.73a46 46 0 0 1 6.2 2.93 22 22 0 0 1 6.02 4.56 24 24 0 0 1 4.15 7.46c1.31 3.5 2.38 7.11 3.45 10.7a187 187 0 0 1 4.73 19.4c1.2 6.5 1.93 13.07 2.63 19.65a2.06 2.06 0 0 0 2 2 2 2 0 0 0 2-2c-.66-6.2-1.35-12.41-2.4-18.56a179 179 0 0 0-4.49-19.43c-1.1-3.82-2.25-7.65-3.55-11.4a34 34 0 0 0-4.13-8.66c-3.14-4.4-7.85-7.25-12.74-9.35-5.98-2.56-12.18-4.56-18.25-6.89a2 2 0 0 0-2.46 1.4 2.05 2.05 0 0 0 1.4 2.46" class="b"/><path d="M59.29 170.56c2.94-2.43 31.83-24.07 37.59-27.78 12.4 16.07 33.99 47.08 37.64 52.52a1790 1790 0 0 1-38.13 28.83c-5.24-7.28-31.13-44.01-37.1-53.57" class="a"/><path d="m60.7 171.98.6-.48q.2-.17.41-.32l.23-.18 2.78-2.13q4-3.04 8.03-6.05 9.22-6.92 18.55-13.69c2.17-1.57 4.33-3.17 6.59-4.62l-2.74-.72c11.45 14.84 22.22 30.24 32.9 45.64q2.4 3.42 4.74 6.88l.31-2.43c-9.93 8-20.75 15.96-31.25 23.78q-3.2 2.41-6.46 4.75l2.73.71c-4.45-6.17-8.81-12.41-13.18-18.64a2190 2190 0 0 1-17.5-25.26c-2.18-3.2-4.37-6.39-6.43-9.67-1.36-2.17-4.82-.17-3.45 2.02 4.33 6.91 9.07 13.58 13.7 20.27q8.63 12.45 17.37 24.8 2.99 4.26 6.04 8.5a2.03 2.03 0 0 0 2.73.72c10.94-7.74 21.53-16.03 32.16-24.19q3.22-2.44 6.37-4.96a2 2 0 0 0 .31-2.42 1222 1222 0 0 0-37.64-52.52 2.04 2.04 0 0 0-2.73-.72c-4.98 3.22-9.7 6.87-14.46 10.38q-9.08 6.7-18.07 13.5c-1.83 1.4-3.7 2.76-5.47 4.22-1.99 1.64.86 4.46 2.83 2.83" class="b"/><path d="M134.13 166.74c-9.52 4.01-21.62 9.26-32.6 13.83a1 1 0 0 0-.53 1.29c1.9 4.64 8.03 19.19 10.42 25.85a1 1 0 0 0 1.21.61 196 196 0 0 0 37.5-15.3c4.11-2.25 8.29-7.65 9.57-10.56 1.37-3.1 1.36-7.7 1.09-13.97Zm-32.05 19.24c-1.74-1.74-3.34-2.28-6.28-3.49a39 39 0 0 0-4.31-.92c-1.89-.29-3.27-.58-5.17-.73-2.51-.2-3.97-.43-5 .61a3 3 0 0 0-.77 2.32c.2 3.47 6.32 5.5 9.18 7.51a33 33 0 0 1-8.34 2.59 47 47 0 0 1-5.2-1.65 3.6 3.6 0 0 0-3.87 1.51 3.3 3.3 0 0 0 .8 4.09 13 13 0 0 0 1.96 1.23 6.7 6.7 0 0 0 .38 5 8 8 0 0 0 2.98 3.46 17 17 0 0 0 4.24 8.1c.87.98 4 1.81 4.96 1.6 8.24-1.86 14.76-6.32 21.29-11.67Z" class="a"/><path d="M88.72 189.56a32 32 0 0 1-7.86 2.38h1.06a43 43 0 0 1-5.04-1.6 5.5 5.5 0 0 0-6.12 2.15 5.3 5.3 0 0 0 .62 6.45c1.66 1.73 4.35 2.73 6.61 3.34 2.49.67 3.55-3.2 1.06-3.86a15 15 0 0 1-3.4-1.34 8 8 0 0 1-1.28-.82 1.2 1.2 0 0 1-.4-.67 1 1 0 0 1 .08-.86c.07-.14.19-.25.57-.44.73-.39.99-.15 1.84.15q1.4.5 2.83.93.6.19 1.23.35a5 5 0 0 0 2.14-.04 37 37 0 0 0 8.08-2.67 2 2 0 0 0 .72-2.74 2.05 2.05 0 0 0-2.74-.71" class="b"/><path d="M73.15 198.52a9.7 9.7 0 0 0 4.28 10.72l-.92-1.2c.89 3.31 2.34 6.75 4.9 9.14a8.6 8.6 0 0 0 4.09 1.84 9.3 9.3 0 0 0 4.74-.4c7.59-2.2 14.06-6.72 20.1-11.66 2-1.63-.85-4.45-2.82-2.83a72 72 0 0 1-10.13 7.13 39 39 0 0 1-5.45 2.58q-1.46.55-2.97.97l-1.44.38c-.72.18-.55.12-.23.06l-.45-.03a5 5 0 0 1-3.3-1.65 14 14 0 0 1-2.5-4.36 16 16 0 0 0-.88-2.7c-.46-.8-1.48-1.18-2.04-1.94a5.5 5.5 0 0 1-1.11-4.99c.68-2.49-3.18-3.55-3.86-1.06Zm30.34-13.96a18 18 0 0 0-7.56-4.11 52 52 0 0 0-9.8-1.62c-2.89-.24-6.31-.3-7.35 3.1-.85 2.78.72 5.18 2.85 6.82 2.2 1.69 4.82 2.69 7.1 4.26a2 2 0 0 0 2.73-.72 2.04 2.04 0 0 0-.72-2.73c-2.06-1.43-4.44-2.34-6.47-3.8a8 8 0 0 1-1.1-.97 2.3 2.3 0 0 1-.58-.94q-.26-1.11.81-1.17a24 24 0 0 1 4.63.35q2.56.34 5.1.87c2.65.56 5.56 1.56 7.54 3.5 1.84 1.8 4.67-1.03 2.83-2.83Z" class="b"/><path d="M133.6 164.82c-10.19 4.29-20.32 8.7-30.52 12.96-1.15.48-2.58.82-3.42 1.77a3.1 3.1 0 0 0-.4 3.31l1.66 4q2.36 5.68 4.68 11.38 1.16 2.88 2.3 5.77a36 36 0 0 0 1.87 4.84c1.31 2.28 3.81 1.3 5.78.7s3.95-1.24 5.9-1.91a176 176 0 0 0 29.69-12.88 26.3 26.3 0 0 0 10.13-10.96c2.23-4.65 1.73-10.31 1.51-15.31-.1-2.57-4.1-2.58-4 0a52 52 0 0 1-.13 10.3 14.6 14.6 0 0 1-3.25 6.76 24 24 0 0 1-7.73 6.53 169 169 0 0 1-10.98 5.33 198 198 0 0 1-19.55 7.44q-1.94.63-3.89 1.2c-.16.05-.67.1-.78.23s.68.74.8.68l-.12-.33a9 9 0 0 0-.62-1.68q-1.5-3.9-3.08-7.78-1.89-4.68-3.83-9.34l-1.55-3.76-.66-1.57-.29-.71-.1-.24c-.16-.24.05-.23-.03-.06l-.51.88a5 5 0 0 1 1.66-.75l2.09-.87 4.28-1.8 8.46-3.6q7.84-3.35 15.7-6.68a2.07 2.07 0 0 0 1.4-2.46 2 2 0 0 0-2.47-1.4Zm-95.44-39.37a36 36 0 0 1 4.12-11.06 17 17 0 0 1 3.87-4.37c-.4.3.08-.05.16-.1l.83-.53q1-.64 2.04-1.23c2.8-1.63 5.7-3.06 8.61-4.5 3.35-1.64 6.7-3.3 10.18-4.66a2.06 2.06 0 0 0 1.4-2.46 2 2 0 0 0-2.46-1.4 167 167 0 0 0-16.93 7.98 53 53 0 0 0-5.85 3.46 20.5 20.5 0 0 0-5.96 6.92 43 43 0 0 0-3.87 10.89c-.59 2.5 3.27 3.57 3.86 1.06m-26.67 21.57c3.37 7.96 5.62 16.36 8.58 24.47a72 72 0 0 0 4.75 11 21.2 21.2 0 0 0 10.13 9.06 16 16 0 0 0 7.99 1.48 16.5 16.5 0 0 0 8.13-3.19 2.06 2.06 0 0 0 .72-2.73 2 2 0 0 0-2.74-.72 12 12 0 0 1-12.56 1.51 17.7 17.7 0 0 1-8.53-7.99c-3.77-6.98-5.93-14.88-8.44-22.37a173 173 0 0 0-4.57-12.53 2 2 0 0 0-2.74-.72 2.05 2.05 0 0 0-.72 2.74Z" class="b"/><path d="M35.66 120.6c.15 3.17-1.46 7.29-2.3 9.04a14 14 0 0 1-1.14 2c-.95 1.34-.5 2.8-.4 4.55.06.95.32 1.78.4 2.45-3.05 1.79-11.99 4.35-16.13 5.6a66 66 0 0 0-4.92-7.03c-3.12-2.08-7.34-7.84-8.82-13.89l-.32-2.28c-.12-.82.09-3.2 1.64-3.94a3.2 3.2 0 0 1 3.64.65l.03-2.09a3.7 3.7 0 0 1 2.45-3.1c1.33-.48 2.03.29 2.9 1.08a3.6 3.6 0 0 1 .95-3.39c1.47-1.18 4.67-1.83 5.33 1.87-2.08-6.1-4.52-13.59-4.88-15.3a4.14 4.14 0 0 1 2.69-4.5c1.86-.6 4.38 1.8 4.83 3 2.19 5.68 3.63 9.83 5.82 16.8 1.15.06 2.25.16 3.48.25a4.5 4.5 0 0 1 2.62 1.4 9.8 9.8 0 0 1 2.13 6.82" class="a"/><path d="M29.2 111.06q-2.24-7.13-4.85-14.16c-.83-2.2-1.55-3.94-3.49-5.37a5.1 5.1 0 0 0-5.96-.51 6.2 6.2 0 0 0-2.85 5.52 15 15 0 0 0 .76 3.16c.97 3.23 2.04 6.44 3.11 9.65q1.7 5.12 3.53 10.2c.88 2.4 4.74 1.36 3.86-1.07a429 429 0 0 1-6.75-20.23 9 9 0 0 1-.53-2.01c-.04-1.1.91-2.33 2-1.8 1.56.76 1.97 2.2 2.53 3.7a279 279 0 0 1 4.78 13.98c.77 2.44 4.63 1.4 3.85-1.06Z" class="b"/><path d="M.29 123.3a28 28 0 0 0 8.15 14.3 15 15 0 0 0 1.3 1.04c.45.33-.14-.2.23.22.04.04.33.41.1.1l.32.43.76 1.05a55 55 0 0 1 3.21 4.8 2 2 0 0 0 2.26.92c2.89-.86 5.78-1.71 8.64-2.65a43 43 0 0 0 7.96-3.14 2.1 2.1 0 0 0 .92-2.26c-.12-.86-.3-1.7-.37-2.56a8 8 0 0 1-.12-2.25 9 9 0 0 1 1.07-1.92 22 22 0 0 0 .78-1.66 22 22 0 0 0 2.16-9.12c-.07-2.57-4.07-2.58-4 0a18 18 0 0 1-2.21 8.4c-.83 1.63-1.82 2.84-1.83 4.76a37 37 0 0 0 .66 5.41l.92-2.26a39 39 0 0 1-7.34 2.86c-2.75.89-5.53 1.7-8.3 2.54l2.26.91a53 53 0 0 0-3.04-4.57 16 16 0 0 0-3.02-3.47c-3.9-3.04-6.54-8.22-7.61-12.95-.58-2.5-4.43-1.44-3.86 1.07" class="b"/><path d="M8.71 116.34a5.2 5.2 0 0 0-6.87-.39A6.2 6.2 0 0 0 0 120.7a14 14 0 0 0 1.46 5.36 8 8 0 0 0 1.78 2.7A5 5 0 0 0 6.39 130c2.5.11 4.48-2.01 5.12-4.27a2 2 0 1 0-3.86-1.06q-.08.22-.14.46c-.04.2.05-.17.08-.18l-.08.17-.22.37s.28-.3.1-.15l-.18.2-.4.37c-.05.04-.26.15-.05.04s0-.04-.02 0c-.04.1-.27.04.03.01s.05-.01-.05 0l-.18.05c-.3.1.13-.06.17-.02h-.45c-.21 0 .21 0 .22.02l-.2-.04-.18-.06c-.38-.1.13.03.11.05.03-.04-.59-.23-.24-.12.31.1-.25-.07-.2-.2.02-.02.22.34.1.14l-.14-.23q-.36-.58-.67-1.19l-.26-.57c-.1-.2.02.06.03.09l-.1-.23q-.2-.52-.34-1.05a17 17 0 0 1-.4-1.83c-.07-.4.01.46.01.11v-.56c0-.1.06-.51 0-.15-.05.38.02-.1.04-.18l.09-.35.13-.4c.04-.2-.07.19-.09.2.03-.01.1-.19.11-.22l.13-.2c.14-.27-.04.11-.1.1l.12-.13.09-.08q.16-.15-.17.12c-.01 0 .5-.26.23-.15s.6-.14.25-.07c-.26.05-.02 0 .04 0h.3c.33 0-.09.03-.08-.01l.3.07c.04.01.29.1.05.01s.07.05.12.07l.27.17c.24.14-.34-.3.04.04a2 2 0 0 0 2.82-2.82Z" class="b"/><path d="M14.1 112.24a5.7 5.7 0 0 0-3.07-1.77 5 5 0 0 0-3.79 1.33c-1.74 1.5-2.04 3.59-1.8 5.76a21 21 0 0 0 1.93 6.83 7 7 0 0 0 1.42 2.1 5.4 5.4 0 0 0 3.48 1.4 5.2 5.2 0 0 0 3.64-1.5 4.5 4.5 0 0 0 1.74-3.33 2 2 0 0 0-4 0q0 .32.04-.17-.1.3.05-.08l-.17.27q.23-.27 0 0a8 8 0 0 1-.6.59c-.05.02-.5.34-.26.16l-.2.05h-.05l-.39-.01q.31.05-.03-.03c-.11-.04-.51-.23-.21-.06l-.3-.18q.27.23.02.01c-.25-.34.21.39-.08-.1q-.27-.41-.5-.85l-.3-.6-.08-.2q-.28-.7-.5-1.42a21 21 0 0 1-.66-2.89 15 15 0 0 1-.09-1.65v-.34q-.08.53-.02.2l.13-.43-.06.16a4 4 0 0 1 .31-.53q-.23.29 0 .03.17-.19.37-.36c-.32.26.28-.14.36-.18q-.27.12.1-.02.38-.09.06 0c-.4-.04.18.12-.2-.07l.3.18.02.01.56.52a2 2 0 0 0 2.83-2.83" class="b"/><path d="M18.85 108.17c-1.97-1.5-4.85-.8-6.62.68-1.8 1.5-1.88 4.19-1.21 6.25q.96 2.95 2.16 5.82a5.3 5.3 0 0 0 1.84 2.75 6 6 0 0 0 3.25.9 5.2 5.2 0 0 0 3.66-1.65 8 8 0 0 0 1.34-2.78 2 2 0 0 0-1.4-2.46 2.05 2.05 0 0 0-2.46 1.4q-.16.45-.3.91-.1.3.07-.12a3 3 0 0 1-.26.46q.26-.33.04-.08-.24.22.04 0l-.3.18q-.3.14-.05.04l-.36.1c.39-.1-.27 0-.4 0 .43 0-.24-.06-.35-.1l-.32-.1q.34.14.05 0l-.24-.15q.35.28.13.08c.33.37.17.26.09.03-.03-.07-.31-.72-.14-.31q-.6-1.45-1.15-2.91-.55-1.44-1.03-2.9-.18-.55-.32-1.1c.12.49 0-.17 0-.3s.13-.77.01-.32c.03-.1.26-.74.06-.32l.15-.29q.2-.28-.01.01.25-.23-.05 0l.26-.17c.1-.05.7-.34.26-.17l.65-.2q.35-.06-.02 0h.34q.35.02-.03-.03l.33.1c-.4-.14.17.13.28.21a2 2 0 0 0 2.73-.72 2.06 2.06 0 0 0-.71-2.73Z" class="b"/><path d="M37.66 120.6a12 12 0 0 0-2.06-7.34 6.4 6.4 0 0 0-3.17-2.53 13 13 0 0 0-3.89-.53c-2.62-.17-5.42-.34-7.5 1.57a5.1 5.1 0 0 0-.7 6.53 6.7 6.7 0 0 0 3.64 2.78 32 32 0 0 0 4.22.98 2.06 2.06 0 0 0 2.46-1.4 2 2 0 0 0-1.4-2.46q-1.47-.26-2.92-.61-.66-.16-1.3-.37l-.3-.1c-.32-.11.22.13-.07-.03l-.26-.15c.17.1-.04-.02-.1-.07a5 5 0 0 1-.45-.47c.12.14-.15-.23-.18-.3-.07-.1-.23-.52-.13-.21l-.1-.33c-.07-.23 0-.13 0 .04v-.47c0 .33 0 .15.05-.07.07-.32-.16.19.04-.08l.12-.2c.12-.2-.31.27.03-.02.12-.1.36-.3.09-.11l.43-.27c.3-.18-.15.02.19-.08q.32-.1.65-.17c.32-.07-.28.01.07-.01l.32-.02h.76a44 44 0 0 1 3.37.18l.8.06.4.03c.37.02-.2-.11 0 .01.05.04.5.16.36.1-.19-.07.1.06.12.07l.34.19c.11.07.44.34.2.12l.18.17c.17.21-.17-.26.04.06a16 16 0 0 1 .88 1.45l.26.54.2.56.19.71c.02.1.12.67.09.42a10 10 0 0 1 .03 1.83 2 2 0 0 0 4 0" class="b"/></svg>
