<svg xmlns="http://www.w3.org/2000/svg" viewBox="-43.65 0 289.782 289.782"><defs><style>.a{fill:#fff}.b{fill:#211715}</style></defs><path d="M98.24 133.04h42.93c18.78 5.64 33.31 10.94 43.8 21.87 7.25 8.42 13.84 17.91 15.04 38 0 23.55-3.26 49.78-15.48 70.49-4.5 7.61-10.64 14.41-18.36 18.73a42 42 0 0 1-32.44 3.46l-.44-.14c-8.63-2.86-14.8-7.52-19.29-14.63a45 45 0 0 1-3.81-7.74h-18a45 45 0 0 1-3.82 7.74c-4.5 7.1-10.66 11.77-19.3 14.62l-.43.15a42 42 0 0 1-32.44-3.46c-7.72-4.32-13.86-11.12-18.36-18.74C5.62 242.7 2.36 216.46 2.36 192.9c1.2-20.08 7.79-29.57 15.04-38 10.5-10.92 25.02-16.23 43.8-21.86Z" class="a"/><path d="m107.08 171.26-.03-.43-.08-.93q0-.23-.03-.44l-.09-1.07-.11-1.41-.02-.17-.08-1.08-.03-.39-.06-.87-.03-.42-.06-.95-.02-.28-.06-1.2v-.3l-.04-.9v-.4l-.02-.8v-.38l.01-1.02v-.13l.05-1.12.02-.32.06-.8.03-.37.08-.77.04-.33q.07-.53.17-1.05l.01-.08q.09-.48.2-.95l.07-.32.18-.7.1-.34q.11-.38.24-.73l.09-.26q.17-.48.37-.95l.08-.2.35-.74.16-.3.35-.62.63-1 .12-.17q.3-.43.64-.84l.2-.22q.25-.3.53-.6l.82-.8.26-.25.13-.11h.01a25 25 0 0 1 8.81-4.7 42.6 42.6 0 0 0 21.79-25.1c.97-3.2 2.54-15.2 7.3-12.37l.96-4.04s1.35-5.7 4.27-7.24a4.2 4.2 0 0 1 4.34 0 4 4 0 0 1 .75.6 16.5 16.5 0 0 0-1.6-8.25 6.9 6.9 0 0 0-6.16-3.42 7.4 7.4 0 0 0-5.35 1.95s2.36-41.44-45.45-41.44S52.9 80.21 52.9 80.21a7.4 7.4 0 0 0-5.34-1.96 6.9 6.9 0 0 0-6.16 3.42c-1.75 3.04-1.97 8.2-1.18 12.24l.13-1.59a4.8 4.8 0 0 1 2.14-2.99 4.2 4.2 0 0 1 4.34 0c2.92 1.53 4.28 7.24 4.28 7.24l.96 4.04c4.75-2.84 6.32 9.16 7.3 12.37a42.6 42.6 0 0 0 21.78 25.1 25 25 0 0 1 8.88 4.75h.01l.07.07.28.26.54.51.29.3.47.53.25.29q.32.39.61.8l.1.13.49.75.18.31a20 20 0 0 1 .82 1.59l.12.27q.2.46.36.94l.08.24.24.74.1.35.18.68.08.35.17.83.04.2q.09.51.16 1.04l.04.32q.05.38.08.77l.1 1.15.01.35.05 1.11v.05l.01 1.1v.37l-.01.82-.01.4-.03.87-.01.32-.06 1.19-.02.26q-.02.49-.06.97l-.12 1.7-.08 1.04-.02.19-.1 1.33-.1 1.17-.04.4-.07.95-.03.42-.1 1.32-.2 1.98q1.71.2 3.38.42a3.05 3.05 0 0 1 2.54 3.1h.74a3.05 3.05 0 0 1 2.54-3.1l3.25-.4-.17-2z" class="a"/><path d="M93.1 250.79c-1.57 8.52-4.54 17.32-10.61 23.73a35 35 0 0 1-21.69 10.26 40 40 0 0 1-25.96-6.29c-7.42-4.9-12.85-12.14-16.95-19.93-8.67-16.5-11.91-35.46-12.84-53.9a106 106 0 0 1-.13-14.04 69 69 0 0 1 2.19-12.65 51 51 0 0 1 8.73-17.4 50 50 0 0 1 6.37-6.94 56 56 0 0 1 9.26-6.51c7.37-4.21 15.42-7.07 23.48-9.63q3.44-1.1 6.9-2.13c2.95-.89 1.7-5.52-1.28-4.63-9.08 2.73-18.19 5.6-26.74 9.74-7.15 3.45-14.17 8-19.3 14.13a60 60 0 0 0-10.5 17.32c-3.24 8.57-4.22 17.81-4 26.92.48 19.63 3.3 39.67 11.52 57.66 3.96 8.66 9.27 16.92 16.68 23.02a44.8 44.8 0 0 0 26.97 10.24 41.7 41.7 0 0 0 26.28-7.96c7.35-5.54 11.81-13.57 14.45-22.25a69 69 0 0 0 1.8-7.49 2.47 2.47 0 0 0-1.67-2.95 2.4 2.4 0 0 0-2.96 1.68m11.54 1.27c1.7 9.24 5.12 18.61 11.6 25.6 6.17 6.64 14.99 10.6 23.9 11.76a44.5 44.5 0 0 0 28.28-5.82c8.18-4.9 14.5-12.37 19.11-20.6 9.68-17.27 13.4-37.31 14.51-56.88a112 112 0 0 0 .28-14.6 78 78 0 0 0-2.25-14.14 55 55 0 0 0-9.24-19.02 54 54 0 0 0-6.9-7.79 61 61 0 0 0-10-7.24c-7.81-4.57-16.44-7.66-25.03-10.41q-3.54-1.12-7.1-2.19c-2.96-.89-4.23 3.74-1.28 4.63 8.57 2.57 17.2 5.23 25.27 9.1 6.7 3.2 13.4 7.31 18.24 13.03a55 55 0 0 1 9.5 15.26 65 65 0 0 1 4.03 25.07c-.37 18.45-2.73 37.48-10.13 54.55-3.56 8.22-8.21 16.1-14.87 22.18a39.6 39.6 0 0 1-24.15 10.35 37.8 37.8 0 0 1-24.54-6.82c-6.65-4.8-10.56-12.31-12.87-20.01a69 69 0 0 1-1.74-7.28 2.4 2.4 0 0 0-2.95-1.67 2.45 2.45 0 0 0-1.68 2.95Z" class="b"/><path d="M58.17 21.78C43.57 34.46 38.25 57.14 45.33 78.6a9 9 0 0 1 2.23-.34 7.4 7.4 0 0 1 5.34 1.96l7.55-6.34c5.67-6.32 15.68-15.85 22.7-19.53.83-.43 1.88.15 2.22 1.53a9 9 0 0 1 .21 3.3A1.72 1.72 0 0 0 88.03 61c5.01-2.79 13.94-8.4 20.28-11.06 4.5-.85 9.39 1.15 9.39 1.15a30 30 0 0 1 8.65 5.44c5.7 4.9 11.17 11.64 13.59 17.73l7.5 5.94a7.4 7.4 0 0 1 5.34-1.96 9 9 0 0 1 2.5.43c4.7-18.64 1.97-42.85-12.53-54.46l-6.28-6.59c-7.13-9.4-18.71-14.5-35.27-15.22-21.53-.73-37.43 8.9-44.46 17.88Z" style="fill:#85807f"/><path d="M58.43 21.99c6.34-8.03 16.04-13.04 25.86-15.48A62 62 0 0 1 104.16 5a54 54 0 0 1 17.14 3.92 33 33 0 0 1 13.09 9.93 2.5 2.5 0 0 0 3.28.86 2.4 2.4 0 0 0 .86-3.28 37 37 0 0 0-12.58-10.6A54 54 0 0 0 107.82.57C94.23-1.16 80.05 1 68.06 7.8a45 45 0 0 0-13.02 10.8 2.5 2.5 0 0 0 0 3.4 2.4 2.4 0 0 0 3.4 0Z" class="b"/><path d="M47.57 77.7c-4.75-14.76-3.97-31.58 4.38-44.94a42 42 0 0 1 7.92-9.28c2.33-2.04-1.08-5.42-3.4-3.4-12.4 10.87-17.75 28-16.45 44.15a65 65 0 0 0 2.92 14.75c.94 2.93 5.58 1.67 4.63-1.28m93.48-51.78c11.5 9.3 14.6 25.44 13.82 39.5a68 68 0 0 1-1.85 12.36c-.74 3 3.89 4.28 4.62 1.27 3.74-15.22 3.14-33.07-4.98-46.85a36 36 0 0 0-8.22-9.68 2.47 2.47 0 0 0-3.4 0 2.4 2.4 0 0 0 0 3.4" class="b"/><path d="M54.6 78.51a10.4 10.4 0 0 0-11.53-1.59 10.2 10.2 0 0 0-5.1 7.08 26.4 26.4 0 0 0 4.2 20.6c2.91 4.15 7.24 7.31 12.54 6.2 3.03-.63 1.75-5.26-1.27-4.63-3.84.8-6.8-3.1-8.4-6.04a23 23 0 0 1-2.8-9.02 20 20 0 0 1 .21-5.16 12 12 0 0 1 .62-2.26 7 7 0 0 1 .48-.94c.06-.09.5-.7.17-.28a5.4 5.4 0 0 1 7.48-.56c2.29 2.07 5.7-1.31 3.4-3.4m94.53 3.4a5.4 5.4 0 0 1 7.48.56c-.34-.43.11.19.16.28a7 7 0 0 1 .5.94 12 12 0 0 1 .6 2.25 20 20 0 0 1 .2 5.35 23 23 0 0 1-2.88 9c-1.64 2.98-4.66 6.8-8.54 5.82-3-.76-4.28 3.87-1.28 4.62 8.74 2.2 14.17-7 16.47-13.96a25 25 0 0 0 .78-11.4 11.4 11.4 0 0 0-4.28-7.8 10.3 10.3 0 0 0-12.6.94c-2.3 2.08 1.1 5.47 3.38 3.4Zm-32.65-28.74a38 38 0 0 1 12.22 8.9c3.57 3.72 6.97 8.02 8.92 12.83a2.5 2.5 0 0 0 2.95 1.68 2.4 2.4 0 0 0 1.68-2.95 48 48 0 0 0-9.88-14.66 42 42 0 0 0-13.47-9.94 2.5 2.5 0 0 0-3.28.86 2.4 2.4 0 0 0 .86 3.28m-54.33 22.4c5.67-6.3 11.94-12.49 19-17.22q1.06-.72 2.17-1.36c.47-.28 1.16-.35.25-.5-.69-.1-.53-.18-.43.45a24 24 0 0 1 .05 2.7 4.3 4.3 0 0 0 2.01 3.39c2.07 1.24 3.99.1 5.82-.96l5.33-3.1a121 121 0 0 1 13.16-6.95 2.4 2.4 0 0 0 .86-3.28 2.46 2.46 0 0 0-3.28-.86 111 111 0 0 0-11.82 6.17q-2.78 1.6-5.56 3.23l-2.3 1.31a2 2 0 0 0-.48.28c-.31.35.36-.17.69.02.03.02.6.59.35.6l.05-.8c.11-2.28-.3-5.17-2.48-6.4-2.14-1.21-4.2.23-5.98 1.37a82 82 0 0 0-10.4 8.15 138 138 0 0 0-10.4 10.36c-2.07 2.29 1.32 5.7 3.4 3.4Z" class="b"/><path d="M143.69 105.34a57 57 0 0 1-3.23 9.8c.28-.72-.2.41-.32.66q-.32.69-.67 1.34a60 60 0 0 1-1.89 3.32 59 59 0 0 1-12.71 15.11 23.4 23.4 0 0 1-9.42 4.89c-3 .7-1.73 5.32 1.28 4.63 7.24-1.67 13.25-7 17.96-12.5a64 64 0 0 0 9.87-14.96q.25-.54.48-1.1c.06-.16.34-.8.07-.18q.57-1.31 1.09-2.64a47 47 0 0 0 2.12-7.09 2.46 2.46 0 0 0-1.68-2.95 2.4 2.4 0 0 0-2.95 1.68Zm-92.8.13a59 59 0 0 0 8.42 19.74c4.28 6.4 9.89 12.4 16.69 16.15a33 33 0 0 0 11.13 3.79 2.5 2.5 0 0 0 2.96-1.68 2.4 2.4 0 0 0-1.68-2.95c-13.98-2.07-24.4-14.13-29.75-26.53a56 56 0 0 1-3.14-9.8c-.68-3.01-5.31-1.74-4.63 1.28m40.44 14.65a19 19 0 0 0 9.27 2.15 15 15 0 0 0 9.36-2.76 2.4 2.4 0 0 0 0-3.4 2.46 2.46 0 0 0-3.4 0c.73-.56.16-.13-.02 0s-.38.22-.58.33l-.3.15c-.38.2.08.01.09-.03-.02.09-.7.25-.8.29a14 14 0 0 1-2.2.5c.35-.06-.08 0-.22.01l-.65.06q-.79.04-1.58.04-.7 0-1.4-.05l-.65-.05-.31-.04a16 16 0 0 1-2.07-.46q-.44-.13-.86-.28c-.62-.21.35.18-.2-.08l-1.05-.53a2.45 2.45 0 0 0-3.29.86 2.4 2.4 0 0 0 .87 3.29Zm8.06-21.84a44 44 0 0 1 1.02 4.68l-.08-.64a3 3 0 0 1 .01.65l.09-.64-.07.3.24-.58-.1.19.38-.49-.16.15.49-.37-.37.2.57-.24a3 3 0 0 1-.62.18l.63-.09a3 3 0 0 1-.58 0l.63.09-.66-.12a2 2 0 0 0-.95-.04 2 2 0 0 0-.9.29 2.4 2.4 0 0 0-.86 3.28 2.3 2.3 0 0 0 1.44 1.1c.5.07.99.2 1.5.22a5 5 0 0 0 2.22-.53 3.2 3.2 0 0 0 1.77-2.1 5 5 0 0 0-.02-2.28q-.4-2.26-1-4.49a2.4 2.4 0 0 0-4.62 1.28M74.6 85c-.78 2.54-.27 8.4 4.55 8.9 6.36-.05 6.7-7.12 4.56-10.45-1.75-2.72-6.91-3.85-9.11 1.55m51 0c.78 2.54.27 8.4-4.54 8.9-6.37-.05-6.71-7.12-4.57-10.45 1.76-2.72 6.92-3.85 9.11 1.55m-15.4 175.68H92.17c-3.09 0-3.1 4.8 0 4.8h18.01c3.09 0 3.1-4.8 0-4.8" class="b"/><path d="m67 170.9.77-5.33a7.3 7.3 0 0 0-3.74-7.48 28 28 0 0 1-3.95-2.37c-8.48-6.4-12.9-10.52-15.37-18.57-2.42-7.93-3.87-18.09-4.72-31.35a77 77 0 0 1 .35-13.48 4.8 4.8 0 0 1 2.15-2.99 4.2 4.2 0 0 1 4.33-.01c2.92 1.54 4.28 7.25 4.28 7.25l.96 4.03c4.76-2.84 6.33 9.16 7.3 12.38a42.6 42.6 0 0 0 21.79 25.09c18 5.94 15 19.16 13.95 34.5" class="a"/><path d="M97.5 172.58c.53-7.68 2.1-16.17-.56-23.63a19.3 19.3 0 0 0-7.14-9.34 28 28 0 0 0-6.2-3.2 32 32 0 0 1-6.53-3.45 39 39 0 0 1-15.94-22.86c-.8-3.52-1.54-7.59-3.92-10.43-2.65-3.15-7.33-1.95-9.2 1.4-1.75 3.18-1.54 7.2-1.16 10.68a157 157 0 0 0 3.5 19.05c.7 3.01 5.32 1.74 4.62-1.27a141 141 0 0 1-3.24-16.99c-.11-1.1-.24-2.22-.29-3.34a26 26 0 0 1 .07-3.36c.01-.06.07-.47.01-.09l.13-.7a11 11 0 0 1 .31-1.12c.03-.08.18-.42 0-.04l.2-.39.28-.45c.22-.3-.37.36.08-.07l.3-.27c-.41.32.12-.05.2-.07-.53.14.54-.2.38-.08-.05.04.3.14-.21-.04l.32.09-.26-.1.22.14c-.03.1-.25-.27.01.04l.27.3c-.32-.38.1.16.13.21 1.49 2.59 2.08 5.92 2.82 9.05 2.14 9.1 8.29 17.43 15.58 23.11a42 42 0 0 0 6.3 4.12c2.07 1.08 4.32 1.68 6.38 2.8a15.2 15.2 0 0 1 6.86 6.77 13 13 0 0 1 .8 2.15 22 22 0 0 1 .63 2.78c.1.61.19 1.53.24 2.44q.07 1.47.06 2.95c-.04 4.41-.55 8.81-.85 13.21a2.4 2.4 0 1 0 4.8 0" class="b"/><path d="M53.42 95.93a18 18 0 0 0-2.66-6.1c-2.52-3.5-7.25-4.82-10.68-1.65a7.4 7.4 0 0 0-2.22 5.27q-.26 2.84-.4 5.72a104 104 0 0 0 .58 12.79 136 136 0 0 0 3.63 23.26 36 36 0 0 0 3.64 9.28 34 34 0 0 0 6.56 7.68 94 94 0 0 0 5.27 4.3 54 54 0 0 0 5.83 3.78c3.67 2.14 2.22 6.6 1.7 10a2.5 2.5 0 0 0 1.69 2.96 2.4 2.4 0 0 0 2.95-1.68c.53-3.52 1.6-7.32.17-10.74a10 10 0 0 0-3.48-4.3c-1.56-1.1-3.35-1.82-4.9-2.98-5.06-3.81-10.17-7.93-12.9-13.8a44 44 0 0 1-2.62-8.66A114 114 0 0 1 43.81 121c-1.03-7.73-1.95-15.75-1.46-23.55q.1-1.49.22-2.96a6 6 0 0 1 .32-2.23 2.06 2.06 0 0 1 3.28-.48 11 11 0 0 1 2.62 5.42c.72 3 5.35 1.73 4.62-1.28Z" class="b"/><path d="m135.28 170.9-.77-5.33a7.3 7.3 0 0 1 3.74-7.48 28 28 0 0 0 3.94-2.37c8.49-6.4 12.9-10.52 15.37-18.57 2.43-7.93 3.88-18.09 4.72-31.35a77 77 0 0 0-.35-13.48 4.8 4.8 0 0 0-2.14-2.99 4.2 4.2 0 0 0-4.34-.01c-2.92 1.54-4.28 7.25-4.28 7.25l-.96 4.03c-4.75-2.84-6.32 9.16-7.3 12.38a42.6 42.6 0 0 1-21.79 25.09c-18 5.94-15 19.16-13.95 34.5" class="a"/><path d="M109.58 172.58c-.28-3.92-.7-7.84-.83-11.77a29 29 0 0 1 .97-9.86 14 14 0 0 1 5.18-7.2 24 24 0 0 1 5.4-2.84 34 34 0 0 0 6.7-3.38 45 45 0 0 0 18.12-23.55c.94-3 1.33-6.15 2.45-9.11a14 14 0 0 1 .83-1.67l.25-.37c-.26.34-.04.07.01 0l.18-.2q-.23.16.05-.03.29-.16.01-.04c-.02.12-.12.03.2-.03-.63.11-.26.02-.13.05-.6-.16.97.26.3.06.42.12.52.3.8.77l.25.48c-.18-.38.04.15.07.26q.17.57.29 1.13a14 14 0 0 1 .19 2.27 35 35 0 0 1-.25 4.36 147 147 0 0 1-3.3 17.62c-.7 3 3.92 4.3 4.62 1.28a153 153 0 0 0 3.42-18.37 26 26 0 0 0-.15-8.9c-.87-3.58-4.52-7.24-8.44-5.25-3.18 1.62-4.24 6.14-5.02 9.3a46 46 0 0 1-3.78 11.06 42 42 0 0 1-9.84 12.1 37 37 0 0 1-6.18 4.23c-2.21 1.21-4.67 1.89-6.9 3.07a20 20 0 0 0-8.56 8.25c-4.15 8-2.3 17.71-1.7 26.29a2.46 2.46 0 0 0 2.4 2.4 2.4 2.4 0 0 0 2.4-2.4Z" class="b"/><path d="M153.49 97.2a13 13 0 0 1 2.07-4.8c.56-.76 1.68-1.72 2.89-1.07 1.34.72 1.16 2 1.27 3.37a121 121 0 0 1-.9 23.37 92 92 0 0 1-3.95 19.61c-2.07 5.96-6.5 10.18-11.34 14a38 38 0 0 1-5.48 3.8 11.3 11.3 0 0 0-4.67 4.09c-2.2 3.72-1.02 7.97-.41 11.97a2.4 2.4 0 0 0 2.95 1.68 2.46 2.46 0 0 0 1.67-2.96c-.46-3.03-1.76-6.86.76-9.3 1.34-1.3 3.35-1.92 4.86-3.02q2.6-1.91 5.1-3.97a42 42 0 0 0 7.37-7.54 29 29 0 0 0 4.28-8.93 117 117 0 0 0 3.96-22.2c.45-4.48.88-9 .93-13.5q0-2.7-.2-5.4c-.14-1.96-.02-4.2-.86-6.01a6.9 6.9 0 0 0-11.37-1.69 17 17 0 0 0-3.56 7.23c-.73 3 3.9 4.29 4.62 1.28Z" class="b"/><path d="M162.62 225.11c-2.41-10.62-4.72-21.26-7.03-31.9l-3.3-15.17c-.46-2.08-.76-4.28-1.4-6.3a5.4 5.4 0 0 0-2.59-3.1c-1.47-.8-2.92-.6-4.5-.41-12.37 1.42-24.78 2.48-37.14 4.02a15 15 0 0 0-4.4.8 5.4 5.4 0 0 0-2.75 3.13 14 14 0 0 0-.42 4.37q-.07 2.71-.1 5.42-.1 10.2.37 20.4c.7 15.34 2.9 30.54 5.28 45.7a2.4 2.4 0 0 0 2.96 1.67 2.46 2.46 0 0 0 1.67-2.95c-1.99-12.64-3.87-25.3-4.76-38.07a331 331 0 0 1-.72-19.43q-.05-4.76.03-9.52l.1-4.7c.03-.66-.08-1.48.5-1.72a8 8 0 0 1 1.8-.24l2.17-.27 4.42-.52q4.53-.5 9.07-.98 8.81-.9 17.62-1.83l4.3-.48c.58-.07 1.94-.53 2.41-.04.39.4.45 1.75.57 2.32l.74 3.36 3.02 13.88c2.45 11.29 4.89 22.58 7.45 33.84.69 3 5.32 1.73 4.63-1.28" class="b"/><path d="M44.18 227.27q3.35-14.84 6.59-29.72l3.2-14.7 1.4-6.33.61-2.79c.21-.88.49-.82 1.35-.72 11.92 1.27 23.87 2.33 35.78 3.73 1.44.17 2.89.31 4.32.53.7.1.84.12.99.8a14 14 0 0 1 .07 2.48l.05 2.47q.05 2.45.06 4.9.05 9.71-.43 19.4c-.7 14.6-2.8 29.05-5.07 43.46a2.5 2.5 0 0 0 1.68 2.95 2.4 2.4 0 0 0 2.95-1.67c2.16-13.7 4.22-27.46 5.06-41.31q.6-10.19.62-20.39 0-5.15-.13-10.31a10.4 10.4 0 0 0-.71-4.6 5.3 5.3 0 0 0-3.18-2.7 28 28 0 0 0-4.54-.62l-4.84-.56-9.5-1c-6.3-.63-12.62-1.22-18.92-1.9-2.85-.31-6.14-1.3-8.54.8-1.8 1.59-1.99 4.28-2.47 6.5l-3.19 14.55c-2.58 11.85-5.15 23.68-7.84 35.48-.68 3 3.95 4.3 4.63 1.28Z" class="b"/></svg>
