<svg xmlns="http://www.w3.org/2000/svg" fill="none" viewBox="0 0 24 24"><path fill="currentColor" fill-rule="evenodd" d="M4.25 8.51c0-4.06 3.52-7.26 7.75-7.26s7.75 3.2 7.75 7.26c0 3.82-2.36 8.29-6.18 9.92-1 .43-2.14.43-3.14 0-3.82-1.63-6.18-6.1-6.18-9.92M12 2.75c-3.5 0-6.25 2.63-6.25 5.76 0 3.33 2.1 7.19 5.26 8.54.63.27 1.35.27 1.98 0 3.15-1.35 5.26-5.2 5.26-8.54 0-3.13-2.75-5.76-6.25-5.76m0 5a1.25 1.25 0 1 0 0 2.5 1.25 1.25 0 0 0 0-2.5M9.25 9a2.75 2.75 0 1 1 5.5 0 2.75 2.75 0 0 1-5.5 0M3.6 15c.27.3.25.78-.06 1.06-.56.51-.79 1-.79 1.44 0 .76.72 1.7 2.49 2.5 1.69.76 4.08 1.25 6.76 1.25s5.07-.49 6.76-1.25c1.77-.8 2.49-1.74 2.49-2.5 0-.44-.23-.93-.8-1.44a.75.75 0 0 1 1.01-1.12c.77.7 1.29 1.56 1.29 2.56 0 1.72-1.51 3.03-3.37 3.87A18.5 18.5 0 0 1 12 22.75a18.5 18.5 0 0 1-7.38-1.38c-1.86-.84-3.37-2.15-3.37-3.87 0-1 .52-1.87 1.29-2.56A.75.75 0 0 1 3.6 15" clip-rule="evenodd"/></svg>
