<svg xmlns="http://www.w3.org/2000/svg" fill="none" viewBox="0 0 24 24"><path fill="currentColor" fill-rule="evenodd" d="M3.25 10.14c0-4.9 3.9-8.89 8.75-8.89s8.75 4 8.75 8.9c0 2.36-.67 4.9-1.87 7.1a11.7 11.7 0 0 1-5.1 5.1 4.2 4.2 0 0 1-3.56 0 11.7 11.7 0 0 1-5.1-5.1 15 15 0 0 1-1.87-7.1M12 2.75c-4 0-7.25 3.3-7.25 7.4 0 2.09.6 4.39 1.68 6.38A10.3 10.3 0 0 0 10.85 21a2.7 2.7 0 0 0 2.3 0c1.8-.85 3.33-2.48 4.42-4.47a14 14 0 0 0 1.68-6.39c0-4.1-3.26-7.39-7.25-7.39m0 5a2.25 2.25 0 1 0 0 4.5 2.25 2.25 0 0 0 0-4.5M8.25 10a3.75 3.75 0 1 1 7.5 0 3.75 3.75 0 0 1-7.5 0" clip-rule="evenodd"/></svg>
