<svg xmlns="http://www.w3.org/2000/svg" fill="none" viewBox="0 0 24 24"><path fill="currentColor" fill-rule="evenodd" d="M3.25 10.14c0-4.9 3.9-8.89 8.75-8.89s8.75 4 8.75 8.9c0 2.36-.67 4.9-1.87 7.1a11.7 11.7 0 0 1-5.1 5.1 4.2 4.2 0 0 1-3.56 0 11.7 11.7 0 0 1-5.1-5.1 15 15 0 0 1-1.87-7.1M12 2.75c-4 0-7.25 3.3-7.25 7.4 0 2.09.6 4.39 1.68 6.38A10.3 10.3 0 0 0 10.85 21a2.7 2.7 0 0 0 2.3 0c1.8-.85 3.33-2.48 4.42-4.47a14 14 0 0 0 1.68-6.39c0-4.1-3.26-7.39-7.25-7.39m2.26 3.63c.94.34 1.49 1.27 1.49 2.38 0 .78-.43 1.47-.87 2a9 9 0 0 1-1.54 1.41c-.35.27-.75.58-1.34.58s-1-.3-1.34-.58l-.07-.05a9 9 0 0 1-1.47-1.37 3.2 3.2 0 0 1-.87-2c0-1.1.55-2.03 1.49-2.37a2.5 2.5 0 0 1 2.26.37 2.5 2.5 0 0 1 2.26-.37m-.51 1.41c-.24-.09-.7-.07-1.22.46a.75.75 0 0 1-1.06 0c-.53-.53-.98-.55-1.22-.46-.22.08-.5.35-.5.97q-.02.37.52 1.03A8 8 0 0 0 12 11.25l.08-.03.42-.3c.42-.31.88-.71 1.23-1.13q.54-.67.52-1.03c0-.62-.28-.89-.5-.97" clip-rule="evenodd"/></svg>
