<svg viewBox="0 0 1024 1024" xmlns="http://www.w3.org/2000/svg"><path d="M917.333333 746.666667l-405.333333-149.333334-405.333333 149.333334v64l405.333333 149.333333 405.333333-149.333333z" fill="currentColor" /><path d="M512 597.333333L106.666667 746.666667l405.333333 149.333333 405.333333-149.333333z" fill="currentColor" /><path d="M234.666667 106.666667h554.666666v661.333333H234.666667z" fill="currentColor" /><path d="M618.666667 234.666667m-42.666667 0a42.666667 42.666667 0 1 0 85.333333 0 42.666667 42.666667 0 1 0-85.333333 0Z" fill="currentColor" /><path d="M405.333333 234.666667m-42.666666 0a42.666667 42.666667 0 1 0 85.333333 0 42.666667 42.666667 0 1 0-85.333333 0Z" fill="currentColor" /><path d="M618.666667 234.666667v42.666666c0 59.733333-46.933333 106.666667-106.666667 106.666667s-106.666667-46.933333-106.666667-106.666667v-42.666666" fill="none" /></svg>
