<svg xmlns="http://www.w3.org/2000/svg" fill="none" viewBox="0 0 24 24"><path fill="currentColor" d="M6 13.37c.03-.3.26-.6.64-.7s.73.04.9.29a.75.75 0 0 0 1.23-.88 2.3 2.3 0 0 0-2.52-.86 2.3 2.3 0 0 0-1.74 2 .75.75 0 1 0 1.5.15m5.8-1.56c.03-.3.26-.6.64-.7s.73.05.9.3a.75.75 0 0 0 1.22-.88 2.3 2.3 0 0 0-2.5-.87 2.3 2.3 0 0 0-1.75 2.01.75.75 0 0 0 1.5.14m1.4 4.42.45-.6a.75.75 0 0 1-.89 1.21l-.1-.05q-.1-.07-.4-.16a3 3 0 0 0-1.68.04 3 3 0 0 0-1.48.81 2 2 0 0 0-.32.42.75.75 0 0 1-1.37-.6l.68.3-.68-.3v-.01l.01-.03.15-.26q.14-.24.47-.57a4.7 4.7 0 0 1 2.15-1.2 4.7 4.7 0 0 1 2.47-.04 4 4 0 0 1 .95.41l.02.02h.01z"/><path fill="currentColor" fill-rule="evenodd" d="m13.25 2.25.04.02c1.17.55 1.7.8 2.24.96l.58.17c.55.13 1.12.2 2.4.33h.04c.81.1 1.48.16 2.01.29.56.12 1.06.32 1.45.74q.34.36.55.83a3 3 0 0 1 .14 1.63q-.13.84-.46 2.06l-.86 3.34a7.6 7.6 0 0 1-4.36 5.19 11 11 0 0 1-2.8 3.58l-.02.02q-.36.32-.82.6c-.34.2-.73.35-1.27.5a5 5 0 0 1-1.34.24q-.54-.01-1-.1h-.03c-2.32-.4-6.01-1.72-7.12-6.03l-.86-3.34q-.32-1.23-.46-2.06a3 3 0 0 1 .14-1.63q.2-.47.55-.83c.4-.42.9-.62 1.45-.74q.8-.18 2-.28h.05l1.26-.15.62-2.44q.3-1.24.58-2.02c.2-.54.47-1.02.92-1.36q.4-.3.89-.44a2.7 2.7 0 0 1 1.62.11q.76.27 1.87.81m6.68 10a6 6 0 0 1-2.27 3.45 8 8 0 0 0-.18-3.21l-.93-3.63a1 1 0 0 0 .34-.26c.18-.25.53-.4.9-.3.38.1.61.41.64.7a.75.75 0 1 0 1.5-.14 2.3 2.3 0 0 0-1.75-2 2.4 2.4 0 0 0-2.08.41l-.05-.14a3 3 0 0 0-.92-1.36 3 3 0 0 0-.89-.44 2.6 2.6 0 0 0-1.53.08q-.15-.07-.32-.1a2.3 2.3 0 0 0-2.51.86.8.8 0 0 0-.14.55 11 11 0 0 1-1.36.54l.43-1.7c.23-.87.38-1.47.55-1.9.16-.43.3-.6.41-.7q.18-.12.4-.19c.13-.03.32-.04.74.1s.95.39 1.75.76l.05.02c1.1.52 1.72.8 2.37 1.01l.68.2c.66.15 1.33.23 2.53.36h.06c.86.1 1.44.16 1.88.26.42.1.59.2.7.31q.16.17.25.39c.07.15.1.38.04.83-.07.47-.22 1.06-.45 1.94zm-6.84-5.38c-.42.14-.95.39-1.75.76l-.05.02c-1.1.52-1.72.8-2.37 1.01l-.68.2c-.66.15-1.33.23-2.53.36h-.06c-.86.1-1.44.16-1.88.26-.42.1-.59.2-.7.31q-.15.16-.25.39c-.07.15-.1.38-.04.83.07.47.22 1.06.45 1.94l.84 3.3c.89 3.44 3.8 4.56 5.92 4.92.35.06.53.08.75.08.2 0 .48-.05.96-.18.49-.14.75-.25.93-.35.2-.11.34-.24.62-.47 1.66-1.42 3.67-3.93 2.78-7.39l-.84-3.3c-.23-.87-.38-1.47-.55-1.9-.16-.43-.3-.6-.41-.7a1 1 0 0 0-.4-.19c-.13-.03-.32-.04-.74.1" clip-rule="evenodd"/></svg>
