<svg xmlns="http://www.w3.org/2000/svg" fill="none" viewBox="0 0 24 24"><path fill="currentColor" d="M7.17 9.34c.12-.25.59-.59 1.33-.59s1.2.34 1.33.59a.75.75 0 1 0 1.34-.68c-.46-.91-1.57-1.41-2.67-1.41s-2.21.5-2.67 1.41a.75.75 0 1 0 1.34.68m8.33-.59c-.74 0-1.2.34-1.33.59a.75.75 0 0 1-1.34-.68c.46-.91 1.57-1.41 2.67-1.41s2.21.5 2.67 1.41a.75.75 0 1 1-1.34.68c-.12-.25-.59-.59-1.33-.59"/><path fill="currentColor" fill-rule="evenodd" d="m8.84 2.21-1.12-.18a16 16 0 0 0-2.57-.33c-.71-.02-1.37.1-1.93.56s-.77 1.1-.87 1.81c-.1.68-.1 1.55-.1 2.6V12c0 5.96 4.62 8.81 7.35 9.98h.03q.5.23 1.03.38c.38.1.8.14 1.34.14a5.4 5.4 0 0 0 2.37-.51l.03-.01c2.73-1.17 7.35-4.02 7.35-9.98V6.66c0-1.04 0-1.91-.1-2.59-.1-.7-.32-1.34-.87-1.8a2.7 2.7 0 0 0-1.94-.57c-.68.01-1.53.15-2.56.33l-1.12.18c-1.66.28-2.4.4-3.16.4-.75 0-1.5-.12-3.16-.4m-4.65 1.2c.16-.13.39-.23.93-.21.56 0 1.31.13 2.41.32l1.13.18c1.57.27 2.45.41 3.34.41s1.77-.14 3.34-.4l1.13-.2c1.1-.18 1.85-.3 2.41-.31.54-.02.77.08.93.2.15.14.28.35.36.89.08.55.08 1.31.08 2.43V12c0 5.02-3.85 7.5-6.44 8.6-.37.15-.59.24-.83.3s-.5.1-.98.1c-.47 0-.75-.04-.98-.1a6 6 0 0 1-.83-.3C7.6 19.5 3.75 17.02 3.75 12V6.72c0-1.12 0-1.88.08-2.43.08-.54.2-.75.36-.88" clip-rule="evenodd"/><path fill="currentColor" d="M7.96 15.52a.75.75 0 0 1 .02-1.06l.04-.03.26-.2q.26-.19.75-.42c.66-.29 1.64-.56 2.97-.56s2.3.27 2.97.56a5 5 0 0 1 1.01.62l.02.01.01.01a.75.75 0 1 1-1.03 1.09l-.1-.08a3 3 0 0 0-.51-.27 6 6 0 0 0-2.37-.44c-1.12 0-1.9.23-2.37.44a3 3 0 0 0-.62.36.75.75 0 0 1-1.05-.03"/></svg>
