<svg xmlns="http://www.w3.org/2000/svg" fill="none" viewBox="0 0 24 24"><path stroke="currentColor" stroke-width="1.5" d="M21 12V6.72c0-2.2 0-3.29-.7-3.89-.71-.6-1.8-.41-3.96-.05l-1.05.17a21 21 0 0 1-3.29.41c-.83 0-1.65-.13-3.29-.4l-1.05-.18c-2.16-.36-3.25-.54-3.95.05S3 4.53 3 6.72V12c0 5.49 4.24 8.15 6.9 9.29.72.3 1.08.46 2.1.46s1.38-.16 2.1-.46c2.66-1.14 6.9-3.8 6.9-9.29Z"/><path stroke="currentColor" stroke-linecap="round" stroke-width="1.5" d="M6.5 9c.3-.58 1.08-1 2-1s1.7.42 2 1m3 0c.3-.58 1.08-1 2-1s1.7.42 2 1m-9 5s1.05 1 3.5 1 3.5-1 3.5-1"/></svg>
