<svg viewBox="0 0 16 16" fill="none" xmlns="http://www.w3.org/2000/svg"><path d="M9.33301 1.99992C9.33301 1.63173 9.63148 1.33325 9.99967 1.33325H13.9997C14.3679 1.33325 14.6663 1.63173 14.6663 1.99992V5.99992C14.6663 6.36811 14.3679 6.66659 13.9997 6.66659C13.6315 6.66659 13.333 6.36811 13.333 5.99992V3.6094L9.80441 7.13799C9.54406 7.39834 9.12195 7.39834 8.8616 7.13799C8.60125 6.87764 8.60125 6.45553 8.8616 6.19518L12.3902 2.66659H9.99967C9.63148 2.66659 9.33301 2.36811 9.33301 1.99992Z" fill="currentColor"/><path d="M3.60915 13.3333L7.13775 9.80466C7.3981 9.54431 7.3981 9.1222 7.13775 8.86185C6.8774 8.6015 6.45529 8.6015 6.19494 8.86185L2.66634 12.3904L2.66634 9.99992C2.66634 9.63173 2.36786 9.33325 1.99967 9.33325C1.63149 9.33325 1.33301 9.63173 1.33301 9.99992V13.9999C1.33301 14.3681 1.63148 14.6666 1.99967 14.6666H5.99967C6.36786 14.6666 6.66634 14.3681 6.66634 13.9999C6.66634 13.6317 6.36786 13.3333 5.99967 13.3333H3.60915Z" fill="currentColor"/></svg>
