<svg xmlns="http://www.w3.org/2000/svg" fill="none" viewBox="0 0 24 24"><path fill="currentColor" fill-rule="evenodd" d="M16.77 5.7a1 1 0 0 0-.2-.27.75.75 0 1 0-1.06 1.06l.53.53-1.65 1.65a4 4 0 0 1 1.06 1.06l1.65-1.65.53.53a.75.75 0 1 0 1.06-1.06 1 1 0 0 0-.26-.2c-.1-.05-.33-.1-.8-.1h-.75v-.76c0-.47-.06-.7-.1-.8m-.7 5.53c.21.97.15 2.03-.05 3.01a9.7 9.7 0 0 1-2.34 4.7c-2.25 2.23-5.94 2.06-8.25-.25-2.3-2.3-2.48-6-.24-8.24A9.7 9.7 0 0 1 9.88 8.1a7 7 0 0 1 3-.05l1.13-1.12a2.25 2.25 0 0 1 3.63-2.55c.14.14.36.36.51.72q.13.3.19.69.39.05.68.18a2 2 0 0 1 .73.52 2.25 2.25 0 0 1-2.56 3.62zm-5.89-1.66a8 8 0 0 0-3.93 1.94c-1.59 1.59-1.55 4.33.24 6.12 1.8 1.8 4.53 1.83 6.13.24a8 8 0 0 0 1.93-3.93c.33-1.6.13-2.97-.63-3.73-.76-.77-2.14-.97-3.74-.64" clip-rule="evenodd"/></svg>
