<svg xmlns="http://www.w3.org/2000/svg" fill="none" viewBox="0 0 24 24"><path stroke="currentColor" stroke-width="1.5" d="M17 6c0-1.89 0-2.83-.59-3.41C15.83 2 14.9 2 13 2h-2c-1.89 0-2.83 0-3.41.59C7 3.17 7 4.1 7 6m4.15 5.02c.38-.68.57-1.02.85-1.02s.47.34.85 1.02l.1.18c.11.2.16.29.25.35q.1.1.4.14l.19.04c.74.17 1.1.25 1.2.53.08.29-.17.58-.67 1.17l-.13.15c-.15.17-.22.25-.25.36s-.02.21 0 .43l.02.2c.08.8.11 1.18-.12 1.36-.23.17-.57.01-1.26-.3l-.18-.09c-.2-.09-.3-.13-.4-.13s-.2.04-.4.13l-.18.09c-.69.31-1.03.47-1.26.3-.23-.18-.2-.57-.12-1.35l.02-.2c.02-.23.03-.34 0-.44a1 1 0 0 0-.25-.36l-.13-.15c-.5-.59-.75-.88-.66-1.17s.45-.36 1.2-.53l.18-.04q.3-.06.4-.14c.09-.06.14-.16.25-.35z"/><path stroke="currentColor" stroke-linecap="round" stroke-width="1.5" d="M15.58 20.21c-1.76.88-2.64 1.32-3.58 1.32s-1.82-.44-3.58-1.32C6.27 19.14 5.2 18.6 4.6 17.63S4 15.46 4 13.06V12c0-2.83 0-4.24.88-5.12S7.18 6 10 6h4c2.83 0 4.24 0 5.12.88S20 9.18 20 12v1.06c0 2.4 0 3.6-.6 4.57q-.17.28-.4.52"/></svg>
