<svg xmlns="http://www.w3.org/2000/svg" fill="none" viewBox="0 0 24 24"><path fill="currentColor" d="M12 11.75c.41 0 .75.34.75.75v.75h.75a.75.75 0 0 1 0 1.5h-.75v.75a.75.75 0 0 1-1.5 0v-.75h-.75a.75.75 0 0 1 0-1.5h.75v-.75c0-.41.34-.75.75-.75"/><path fill="currentColor" fill-rule="evenodd" d="M12 9.25a4.75 4.75 0 1 0 0 9.5 4.75 4.75 0 0 0 0-9.5M8.75 14a3.25 3.25 0 1 1 6.5 0 3.25 3.25 0 0 1-6.5 0" clip-rule="evenodd"/><path fill="currentColor" fill-rule="evenodd" d="M11.95 1.25c-.9 0-1.65 0-2.24.08-.63.08-1.2.27-1.65.73a2.7 2.7 0 0 0-.73 1.65q-.08.66-.08 1.57-.97.02-1.74.12a4.7 4.7 0 0 0-2.87 1.24A4.7 4.7 0 0 0 1.4 9.51c-.15 1.14-.15 2.6-.15 4.43v.12c0 1.83 0 3.29.15 4.43a4.7 4.7 0 0 0 1.24 2.87c.75.75 1.7 1.08 2.87 1.24 1.14.15 2.6.15 4.43.15h4.12c1.83 0 3.29 0 4.43-.15a4.7 4.7 0 0 0 2.87-1.24 4.7 4.7 0 0 0 1.24-2.87c.15-1.14.15-2.6.15-4.43v-.12c0-1.83 0-3.29-.15-4.43a4.7 4.7 0 0 0-1.24-2.87 4.7 4.7 0 0 0-2.87-1.24q-.77-.1-1.74-.12 0-.91-.08-1.57a2.7 2.7 0 0 0-.73-1.65 2.7 2.7 0 0 0-1.65-.73c-.59-.08-1.34-.08-2.24-.08zm3.3 4q0-.84-.07-1.34c-.06-.47-.17-.66-.3-.8-.13-.12-.32-.23-.79-.3s-1.13-.06-2.09-.06-1.61 0-2.1.07c-.46.06-.65.17-.78.3s-.24.32-.3.79q-.07.5-.07 1.34zM3.7 7.7c.43-.42 1-.67 2.01-.81A36 36 0 0 1 10 6.75h4a36 36 0 0 1 4.29.14c1 .14 1.58.39 2 .81.43.43.69 1 .82 2.01.14 1.03.14 2.38.14 4.29 0 1.9 0 3.26-.14 4.29-.13 1-.39 1.58-.81 2-.43.43-1 .69-2.01.82-1.03.14-2.38.14-4.29.14h-4c-1.9 0-3.26 0-4.29-.14-1-.13-1.58-.39-2-.81-.43-.43-.68-1-.82-2.01A36 36 0 0 1 2.75 14c0-1.9 0-3.26.14-4.29.14-1 .39-1.58.81-2" clip-rule="evenodd"/></svg>
