<svg xmlns="http://www.w3.org/2000/svg" viewBox="0 -55.67 418.576 418.576"><defs><style>.a{fill:#fff}.c{fill:#211715}</style></defs><path d="M140.92 75.38a7 7 0 0 1 5.06-2.08 6.6 6.6 0 0 1 6.04 3.06c2.14 3.4 2.3 9.83 1.11 13.86-.85 2.85-2.25 7.21-5.9 10.45a7.8 7.8 0 0 1-5.96 1.97l-.59-.08a46 46 0 0 1-1.85 5.71c-1.37 4.2-9.22 19-19.65 25.16a44 44 0 0 0 1.07 8.26 7.2 7.2 0 0 0 3.34 4.43c2.44 1.63 7.33 2.94 11.28 3.67l-.03.02c-7.37 7.98-21.24 12.41-35.59 13-14.66.52-30.19-3.52-36.9-10.67 3.42-1.01 7.56-2.02 10.4-3.74a9.3 9.3 0 0 0 3.6-5.44 69 69 0 0 0 .06-7.92 42 42 0 0 1-13.03-10.18 54 54 0 0 1-10.98-18.91 7.7 7.7 0 0 1-6.59-1.39c-3.89-2.94-5.62-7.18-6.68-9.96-1.5-3.92-1.84-10.34.04-13.9a6.6 6.6 0 0 1 5.79-3.51 7 7 0 0 1 5.2 1.68s-14-50.9 46.52-50.9 44.24 47.4 44.24 47.4" class="a"/><path d="M146.3 38.58c-2.5-6.78-6.42-12.71-11.94-16.8l-6.28-6.1c-7.19-8.75-18.5-13.21-34.42-13.3-20.7.1-35.61 9.93-42.04 18.81l1.44 1.38C39.51 35.28 35.24 57.25 42.83 77.59a9 9 0 0 1 2.12-.4 7 7 0 0 1 5.2 1.67l7.02-6.37c5.21-6.27 14.47-15.78 21.08-19.58.77-.44 1.8.08 2.18 1.39a9 9 0 0 1 .33 3.15 1.65 1.65 0 0 0 2.41 1.68c4.71-2.86 13.08-8.57 19.07-11.37l9.06.76a29 29 0 0 1 8.5 4.91c5.66 4.5 11.16 10.76 13.7 16.52l7.42 5.43a7 7 0 0 1 5.06-2.08 9 9 0 0 1 2.41.32c2.37-11.13 1.94-24.18-2.08-35.04" style="fill:#85807f"/><path d="M53.7 22.4a35 35 0 0 1 3.94-4.37 41 41 0 0 1 5.13-4.11 52 52 0 0 1 14.68-6.84 60 60 0 0 1 19.2-2.23A53 53 0 0 1 113.5 8.1a31.5 31.5 0 0 1 12.88 9.3 2.4 2.4 0 0 0 3.4 0 2.45 2.45 0 0 0 0-3.4C122.2 4.84 110.62 1.07 99.1.2c-12.95-1-26.35 1.7-37.4 8.7a44 44 0 0 0-12.14 11.08 2.4 2.4 0 0 0 .86 3.28 2.46 2.46 0 0 0 3.29-.86" class="c"/><path d="M45.06 76.72c-5.09-13.96-5.04-30.12 2.46-43.24a40 40 0 0 1 7.24-9.21c2.25-2.13-1.15-5.52-3.4-3.4C39.85 31.78 35.27 48.4 37.1 63.9A63 63 0 0 0 40.43 78a2.47 2.47 0 0 0 2.95 1.67 2.4 2.4 0 0 0 1.68-2.95m88.09-52.86c11.11 8.31 14.52 23.88 14.28 37.02a65 65 0 0 1-1.3 11.84 2.46 2.46 0 0 0 1.68 2.96 2.4 2.4 0 0 0 2.95-1.68c3.04-14.82 1.87-32.12-6.58-45.08a36 36 0 0 0-8.6-9.2 2.4 2.4 0 0 0-3.3.86 2.46 2.46 0 0 0 .87 3.28m-22.49 26.98a36 36 0 0 1 11.69 8.03 41 41 0 0 1 9.08 12.29 2.4 2.4 0 0 0 3.29.86 2.46 2.46 0 0 0 .86-3.28 45 45 0 0 0-10.12-13.54 41 41 0 0 0-13.52-8.98 2.4 2.4 0 0 0-2.95 1.67 2.46 2.46 0 0 0 1.67 2.95M58.87 74.19C64.04 68 69.8 61.83 76.33 57.05q1.05-.76 2.12-1.46c.15-.1.96-.45 1-.6-.03.15-1.46.14-1.34-.1 0-.02.06.3.07.27a11 11 0 0 0 .2 1.22c.02.47-.05.94-.02 1.4a4.3 4.3 0 0 0 1.94 3.36c2.04 1.3 3.94.17 5.71-.94l4.94-3.14a117 117 0 0 1 12.5-7.22 2.4 2.4 0 0 0 .86-3.29 2.45 2.45 0 0 0-3.28-.86 108 108 0 0 0-11.18 6.4l-5.16 3.27-2.25 1.4-.47.3c0-.26 1 .12 1.02.13.09.02.07.32.17.26s.03-.8.03-.88c-.05-2.29-.72-5.18-3.17-6-2.02-.67-3.73.66-5.3 1.75a80 80 0 0 0-9.8 8.3 132 132 0 0 0-9.44 10.18 2.47 2.47 0 0 0 0 3.4 2.4 2.4 0 0 0 3.4 0Zm80.23 24.37a44 44 0 0 1-1.42 5.79 45 45 0 0 1-.96 2.78c-.18.47.28-.71-.09.22l-.27.74-.18.46-.11.28c-.12.3.19-.43.05-.13a48 48 0 0 1-2.3 4.6 57 57 0 0 1-11.6 14.94 22.5 22.5 0 0 1-8.81 5.08c-2.98.8-1.71 5.44 1.28 4.63 6.9-1.88 12.49-7.14 16.83-12.62a64 64 0 0 0 9.15-15.16l.37-1c-.17.47.13-.34.22-.55l.22-.57q.27-.7.5-1.43a45 45 0 0 0 1.74-6.78 2.47 2.47 0 0 0-1.67-2.95 2.4 2.4 0 0 0-2.96 1.67Z" class="c"/><path d="M51.85 77.17a10.15 10.15 0 0 0-11.2-1.25 9.7 9.7 0 0 0-4.73 6.84 25.4 25.4 0 0 0 4.51 19.64c2.9 3.97 7 6.87 12.11 5.99a2.4 2.4 0 0 0 1.68-2.96 2.45 2.45 0 0 0-2.95-1.67c-3.5.6-6.34-2.95-7.88-5.6a22 22 0 0 1-2.98-8.42c-.32-2.78-.33-6.12 1.24-8.51q.14-.2-.07.07.14-.18.3-.34c.08-.08.62-.56.47-.45a5 5 0 0 1 1.7-.77 5 5 0 0 1 4.41.82 2.47 2.47 0 0 0 3.4 0 2.4 2.4 0 0 0 0-3.4Zm90.77-.1a5.06 5.06 0 0 1 7.15.23c-.34-.4.12.18.18.27a7 7 0 0 1 .57 1.08 12 12 0 0 1 .58 1.98 19 19 0 0 1 .35 5.03 22 22 0 0 1-2.29 8.43c-1.53 3.1-4.03 6.52-7.9 6.15a2.4 2.4 0 0 0-2.4 2.4 2.45 2.45 0 0 0 2.4 2.4c8 .76 12.5-8 14.27-14.48a24 24 0 0 0 .27-10.86 11 11 0 0 0-4.47-7.37 10.05 10.05 0 0 0-12.1 1.35c-2.22 2.16 1.18 5.55 3.4 3.4Z" class="c"/><path d="M49.04 103.14a57 57 0 0 0 8.7 18.54c4.4 6.09 10.05 11.76 16.82 15.14a33 33 0 0 0 11.4 3.29 2.4 2.4 0 0 0 2.4-2.4 2.46 2.46 0 0 0-2.4-2.4c-13.24-1.44-23.57-13-29-24.4a53 53 0 0 1-3.3-9.05c-.8-2.98-5.42-1.72-4.62 1.28M97.4 92.5l.63 2.25a20 20 0 0 1 .54 2.4l-.09-.64a2 2 0 0 1 .01.49l.09-.64-.07.29.24-.58-.11.19.38-.49-.1.1.48-.38a3 3 0 0 1-.44.25l.57-.24a2 2 0 0 1-.58.17l.64-.09a3 3 0 0 1-.61 0l.63.08q-.57-.09-1.15-.16a2.4 2.4 0 0 0-1.7.7 2.4 2.4 0 0 0 0 3.4 2.7 2.7 0 0 0 1.7.7h.11l-.64-.08a9 9 0 0 0 1.44.17 5 5 0 0 0 2.2-.6 3.2 3.2 0 0 0 1.64-2.09 5 5 0 0 0-.08-2.27q-.46-2.13-1.1-4.2a2.5 2.5 0 0 0-1.1-1.44 2.4 2.4 0 0 0-3.52 2.71ZM73.24 80.69c-.67 2.47.03 8.07 4.67 8.38 6.12-.26 6.2-7.06 4.02-10.18-1.78-2.55-6.78-3.46-8.7 1.8m48.97-1.78c.84 2.42.56 8.05-4.05 8.7-6.12.19-6.7-6.6-4.75-9.86 1.59-2.68 6.5-3.95 8.8 1.16m-31.83 34.93a18.6 18.6 0 0 0 9.15 1.8c3.16-.16 6.38-.87 8.84-2.94a2.4 2.4 0 0 0 0-3.4 2.46 2.46 0 0 0-3.39 0c-.39.33.56-.36.02-.01l-.52.33c-.17.1-.4.2-.6.3-.44.24 0 .07.03 0-.02.06-.33.14-.38.15a13 13 0 0 1-1.95.53l-.66.12c.35-.06-.06 0-.2.02q-.74.08-1.47.1a20 20 0 0 1-2.7-.07c-.2-.02-.48-.06-.12 0a14 14 0 0 1-1.5-.3q-.78-.23-1.55-.5c-.38-.14.43.2.18.07l-.24-.1-.51-.25a2.4 2.4 0 0 0-2.42 4.15Z" class="c"/><path d="M74 135.02a76 76 0 0 1 0 7.33l-.04.48c.12-.65-.13.25-.17.37a8 8 0 0 1-1.61 2.59 5 5 0 0 1-.56.51c.3-.23-.44.24-.51.28a17 17 0 0 1-2.85 1.26q-.93.33-1.88.63c-2.31.72-4.67 1.29-6.95 2.1a2.46 2.46 0 0 0-1.68 2.95 2.4 2.4 0 0 0 2.95 1.67c2.56-.9 5.2-1.51 7.77-2.36 2.55-.83 5.42-1.81 7.28-3.84a11.4 11.4 0 0 0 3.1-7.4q.12-3.3-.04-6.58a2.45 2.45 0 0 0-2.4-2.4 2.4 2.4 0 0 0-2.4 2.4Zm63.74 12.82-.23-.03-.7-.1-1.61-.29q-1.6-.3-3.2-.7a47 47 0 0 1-4.78-1.45l-.33-.13-.64-.28c-1.6-.77-3.05-1.75-3.55-3.24a30 30 0 0 1-1.1-7.68 2.45 2.45 0 0 0-2.4-2.4 2.4 2.4 0 0 0-2.4 2.4c.19 3.02.35 6.35 1.37 9.23a10.6 10.6 0 0 0 5.26 5.63c4.37 2.24 9.47 3.23 14.3 3.84a2.4 2.4 0 0 0 2.4-2.4 2.46 2.46 0 0 0-2.4-2.4Z" class="c"/><path d="M88.56 162.4c-11.32-1.25-21.74-5.06-26.66-10.75-18.04 5.8-27.63 10.38-36.48 16.49-6.73 4.64-10.8 10.73-14.34 19.47-6.07 21.83-7.21 35.41-8.33 57.01a157 157 0 0 0 1.17 32.56 37 37 0 0 0 9.87 19.93c6.65 6.85 21.3 8.17 27.4 7.7 15.76-1.24 35.66-4.74 54.18-9.44 9.73 1.34 20.47 2.11 30.7 2.65 13.94.74 25.88 1.41 40.68-.2 9.44-1.04 20.22-7.23 23.89-13.8 4.5-8.05 5.78-14.67 6.28-25.1a250 250 0 0 0-1.17-40.16c-1.54-13.53-3.28-27.19-9.72-39.36a55 55 0 0 0-7.71-11.12 42 42 0 0 0-10.67-8.24c-9.82-5.71-21.2-8.47-32.24-10.87-7.21 8.39-21.43 13.03-36.16 13.65a74 74 0 0 1-10.69-.41" class="a"/><path d="M374.77 163.12c8.75 3.7 19.34-1.18 22.73-9.9 2.77-7.16.4-16.79-1.35-24.26a142 142 0 0 1-3.17-39c.69-7.6.68-16.65.63-20.44-.18-13.15-5.22-28.11-13.23-36.73-3.19-3.43-4.26-5.15-7.43-7.26l-3.67-2.44-3.69-1.75a62 62 0 0 0-24.42-6.17c-17.02-1-32.68 6.9-39.77 12.94-11.77 10.02-19.98 29.1-20.65 56.05-1.06 18.22-3.32 31.27-5.84 38.62a88 88 0 0 0-3.79 18.67c-.5 7.54 7.31 18.5 20.64 17.08Z" style="fill:#a98a75"/><path d="m314.63 66.44 1.34-1.13a633 633 0 0 0 9.97-8.55c-.5 2.84-1.97 7.65-2.33 10.6-.15 1.18.08 1.61.96 2.09a4 4 0 0 0 2.41.03 57.7 57.7 0 0 0 29.94-19.24c1.22 6.13 3.01 13.78 4.74 17.56 4.27 9.35 11.98 17.46 19.1 20.09a6.7 6.7 0 0 1 4.97-1.48 6.3 6.3 0 0 1 5.42 3.46c1.7 3.43 1.24 9.51-.28 13.2-1.07 2.62-2.8 6.6-6.56 9.31a7.4 7.4 0 0 1-5.83 1.3l-.54-.13a44 44 0 0 1-2.3 5.22c-1.51 3.44-8.73 14.4-17.71 20.12-.28 1.88-.44 7.38.06 8.7a10 10 0 0 0 2.95 4.28c2.47 2 7.68 4.05 12.04 5.58-11.76 8.95-24.22 12.58-38.47 11.61-13.95-.95-29.09-5.67-36.69-11.5 4.5-1.39 10.4-3.3 13.1-5.46a10 10 0 0 0 2.94-4.29 80 80 0 0 0 1.87-8.51s.02-.11.04-.26c-4.86-2.5-9.08-6.46-12.98-11.78a51 51 0 0 1-8.58-18.92 7.3 7.3 0 0 1-6.09-1.93c-3.4-3.15-4.62-7.32-5.36-10.05-1.05-3.85-.75-9.94 1.36-13.13a6.3 6.3 0 0 1 5.8-2.77 7 7 0 0 1 4.2 1.55 240 240 0 0 0 20.5-15.57" class="a"/><path d="M376.64 109.8a43 43 0 0 1-6.38 13.29 52 52 0 0 1-12.16 12.78 22 22 0 0 1-9.1 4.06 2.4 2.4 0 0 0-1.68 2.95 2.46 2.46 0 0 0 2.95 1.68c6.65-1.11 12.42-5.65 17-10.36a59 59 0 0 0 9.96-13.24 49 49 0 0 0 4.03-9.89c.82-2.98-3.81-4.26-4.62-1.27m-42.42-9.47q-.64 1.92-1.1 3.9a6 6 0 0 0-.2 1.58 3.3 3.3 0 0 0 1.51 2.66 5 5 0 0 0 2.19.7 6 6 0 0 0 1.43-.12l-.64.08.2-.02a2.6 2.6 0 0 0 1.7-.7 2.4 2.4 0 0 0 0-3.4 2.4 2.4 0 0 0-1.7-.7l-1 .14.63-.09a3 3 0 0 1-.7.01l.64.09a2 2 0 0 1-.46-.13l.57.24a3 3 0 0 1-.5-.28l.49.37-.1-.1.37.49-.1-.18.25.58-.06-.2.09.63a2 2 0 0 1 0-.52l-.08.63a19 19 0 0 1 .56-2.26q.3-1.07.63-2.12a2.4 2.4 0 0 0-1.67-2.96 2.45 2.45 0 0 0-2.96 1.68Zm-20.03-12.3c-.86 2.26-.72 7.62 3.64 8.35 5.8.32 6.5-6.1 4.74-9.25-1.44-2.58-6.08-3.9-8.38.9m46.44 2.88c.57 2.36-.23 7.66-4.64 7.84-5.8-.4-5.7-6.86-3.57-9.77 1.75-2.38 6.52-3.12 8.21 1.92m-33.18 30.27a18 18 0 0 0 8.18 2.43c2.84.2 6.14-.09 8.57-1.74a2.4 2.4 0 1 0-2.42-4.15 10 10 0 0 1-.92.52c-.37.2.55-.2.11-.04l-.32.11a10 10 0 0 1-1.65.42c-.1.02-.71.07-.14.03l-.53.05a19 19 0 0 1-2.7 0l-.64-.06c-.02 0-.8-.1-.32-.03q-.54-.07-1.07-.2a14 14 0 0 1-1.91-.54l-.36-.14c-.29-.1.5.23.12.05l-.67-.33-.9-.53a2.4 2.4 0 0 0-2.42 4.15Z" class="c"/><path d="M382.45 89.58a4.7 4.7 0 0 1 4.16-.58 3.4 3.4 0 0 1 1.85 1.12c.41.4-.1-.2.17.2 1.5 2.21 1.39 5.46 1.02 8a20.5 20.5 0 0 1-2.94 7.86c-1.51 2.51-4.26 5.83-7.59 5.18a2.46 2.46 0 0 0-2.95 1.67 2.4 2.4 0 0 0 1.68 2.96c7.93 1.55 13.01-6.16 15.46-12.58 2.03-5.35 2.5-13.95-2.67-17.73a9.7 9.7 0 0 0-11.58.5 2.4 2.4 0 0 0 0 3.4 2.46 2.46 0 0 0 3.4 0Zm-86.08-8.74a9.7 9.7 0 0 0-10.56-2.02 9.5 9.5 0 0 0-5.13 6.21c-1.96 6.14-.72 13.34 2.45 18.86 2.2 3.84 5.9 7.25 10.61 6.92a2.46 2.46 0 0 0 2.4-2.4 2.4 2.4 0 0 0-2.4-2.4c-3.65.25-5.97-3.18-7.3-6.16a21 21 0 0 1-1.87-7.9 18 18 0 0 1 .46-4.64 11 11 0 0 1 .57-1.81 10 10 0 0 1 .6-1.07c.05-.09.4-.5.05-.1a3.7 3.7 0 0 1 2.72-1.47 4.8 4.8 0 0 1 4 1.37c2.18 2.2 5.57-1.19 3.4-3.4Z" class="c"/><path d="M354.7 51.4c1.63 8 3.4 16 7.8 23 4.2 6.66 10.12 12.95 17.62 15.8a2.4 2.4 0 0 0 2.95-1.68 2.45 2.45 0 0 0-1.68-2.95c-6.5-2.47-11.68-8.53-15.18-14.32-3.87-6.37-5.38-13.76-6.88-21.13a2.4 2.4 0 0 0-4.63 1.28" class="c"/><path d="M355.18 48.59a58 58 0 0 1-19.64 15.28 52 52 0 0 1-5.71 2.26q-1.54.52-3.1.93a10 10 0 0 1-1.15.18c.09-.18.35.79.39.8-.4-.18.88-4.64 1.02-5.2.45-1.8.93-3.61 1.27-5.44a2.42 2.42 0 0 0-4.01-2.34c-8.32 7.26-16.74 14.45-25.67 20.95a2.47 2.47 0 0 0-.86 3.28 2.4 2.4 0 0 0 3.28.86c9.27-6.74 18.02-14.16 26.64-21.7l-4.01-2.33c-.62 3.36-1.72 6.63-2.25 10-.3 1.97-.29 3.82 1.49 5.08 1.71 1.22 3.83.86 5.73.32a60 60 0 0 0 20.57-10.44 62 62 0 0 0 9.4-9.1 2.47 2.47 0 0 0 0-3.4 2.4 2.4 0 0 0-3.4 0Zm35.4 41.36a149 149 0 0 0 3.48 40.58c2.21 9.47 5.3 22.27-4.39 28.72a15.1 15.1 0 0 1-14.26 1.56 2.4 2.4 0 0 0-2.95 1.68 2.46 2.46 0 0 0 1.68 2.95c10.23 4.2 22.48-1.99 25.93-12.3 1.98-5.94 1-12.58-.2-18.57-1.37-6.76-3.05-13.38-3.81-20.25a159 159 0 0 1-.68-24.36c.13-3.1-4.67-3.09-4.8 0" class="c"/><path d="M371.74 27.6a23 23 0 0 1 4.23 3.86c1.48 1.66 3.05 3.27 4.43 5.02a46 46 0 0 1 6.37 11.36 65 65 0 0 1 3.78 13.83 75 75 0 0 1 .68 11.98c-.02 5.44-.17 10.88-.65 16.3a2.4 2.4 0 0 0 2.4 2.4 2.45 2.45 0 0 0 2.4-2.4c.45-5.07.6-10.16.64-15.26a89 89 0 0 0-.63-12.9c-1.32-9.57-4.64-19.4-10.45-27.21-1.64-2.2-3.52-4.2-5.34-6.25a29 29 0 0 0-5.44-4.87c-2.56-1.74-4.97 2.42-2.42 4.14m-4.94-8.34a68 68 0 0 0-26.99-6.55 62.5 62.5 0 0 0-28.86 6.53 48 48 0 0 0-16.73 12.82 64 64 0 0 0-10.74 20.19 110 110 0 0 0-5.13 31.9c-.08 3.1 4.72 3.1 4.8 0 .43-16.2 3.46-33.46 13.1-46.9a42 42 0 0 1 13.98-12.23 59 59 0 0 1 25.34-7.46 60.6 60.6 0 0 1 28.8 5.85 2.47 2.47 0 0 0 3.29-.86 2.4 2.4 0 0 0-.86-3.28Z" class="c"/><path d="M278.35 84.16a241 241 0 0 1-2.2 22.22 95 95 0 0 1-3.31 15.05 88 88 0 0 0-4.02 18.93 18.2 18.2 0 0 0 4.77 13.65 21.3 21.3 0 0 0 18.18 6.92 2.47 2.47 0 0 0 2.4-2.4 2.4 2.4 0 0 0-2.4-2.4 16.9 16.9 0 0 1-14.22-4.89 16 16 0 0 1-3.3-5.22 11.3 11.3 0 0 1-.62-5.83 83 83 0 0 1 3.83-17.48 93 93 0 0 0 3.18-14.18 248 248 0 0 0 2.52-24.37c.18-3.09-4.62-3.08-4.8 0Z" class="c"/><path d="M313.42 138.66a93 93 0 0 1-1.3 6.4 9.4 9.4 0 0 1-2.67 5.15c-.48.45.2-.1-.33.25q-.33.22-.67.42-.74.45-1.52.83a33 33 0 0 1-3.34 1.4c-2.59.97-5.23 1.78-7.87 2.6-2.94.9-1.69 5.54 1.28 4.62 2.82-.87 5.66-1.73 8.42-2.8a24 24 0 0 0 7.42-3.93 13 13 0 0 0 3.81-6.85 90 90 0 0 0 1.4-6.82 2.47 2.47 0 0 0-1.68-2.95 2.4 2.4 0 0 0-2.95 1.68m42.08.38a36 36 0 0 0-.16 7 11 11 0 0 0 3.67 7.33 27 27 0 0 0 7.44 4.13c2.8 1.18 5.65 2.2 8.52 3.15a2.4 2.4 0 1 0 1.28-4.63c-2.59-.86-5.16-1.76-7.69-2.8-1.1-.45-2.28-.98-3.4-1.56a25 25 0 0 1-2.24-1.3c-.1-.07-.7-.53-.28-.2a7.4 7.4 0 0 1-2.22-2.97c-.09-.2-.18-.6-.26-.88.17.6.02.13 0-.07l-.06-.84a38 38 0 0 1 .2-6.36 2.4 2.4 0 0 0-2.4-2.4 2.46 2.46 0 0 0-2.4 2.4" class="c"/><path d="M363.72 297.58a33.5 33.5 0 0 0 21.06-5.12c5.66-3.58 9.33-8.85 12.41-14.55 7.67-13.13 11.42-28.17 14.28-42.9 2.08-11.14 4.58-22.88 4.72-34.25-.01-6.77-.56-14.48-3.9-20.43-3.65-6.47-8.16-11.34-14.77-14.85-3.78-2-16.39-7.62-22.16-9.93-12.46 10.32-25.63 14.54-40.84 13.5-14.65-1-30.6-6.15-37.78-12.37-10.55 3.16-26.03 8.09-31.43 16.36-5.81 8.92-7.28 15.17-10.22 25.4-4 13.88-9.7 45.19-10.45 56.07-.48 6.81-.7 14.04 1.97 20.32 1.8 4.23 5.13 8.76 9 11.25 10.7 6.87 24.9 2.17 31.6-1.15H344c4.25 7.72 11.65 11.82 19.73 12.65" style="fill:#f8b8b4"/><path d="M295.66 158.9a48 48 0 0 0 12.88 6.95 88 88 0 0 0 16.72 4.5c11.16 1.88 22.64 1.83 33.36-2.18a64 64 0 0 0 16.69-9.51 2.4 2.4 0 0 0 0-3.4 2.46 2.46 0 0 0-3.4 0 53.4 53.4 0 0 1-27.64 11.3c-10.67.98-21.72-.94-31.81-4.38-4.65-1.59-9.6-3.65-13.4-6.69a2.47 2.47 0 0 0-3.4 0 2.4 2.4 0 0 0 0 3.4Z" class="c"/><path d="M302.36 271.34a59 59 0 0 1-18.8 12.63c-5.84 2.39-12.56 4.01-18.9 2.97a19 19 0 0 1-9.54-4.22 24 24 0 0 1-6.52-9.33c-2.58-6.7-2.07-14.36-1.34-21.37a245 245 0 0 1 2.27-15.69q1.64-9.7 3.63-19.35c1.17-5.62 2.4-11.24 3.92-16.78 1.83-6.61 3.55-13.4 6.62-19.57 1.5-3.01 3.16-6.19 5.45-8.51a30 30 0 0 1 7.15-5.12c5.84-3.17 12.2-5.29 18.53-7.23l4.13-1.25c2.95-.88 1.69-5.51-1.28-4.62a157 157 0 0 0-19.55 6.86c-6.17 2.78-11.95 6.36-15.6 12.2-4.12 6.56-6.58 13.72-8.7 21.13q-2.54 8.84-4.5 17.84c-2.73 12.65-5.16 25.45-6.67 38.3-.84 7.08-1.35 14.57.4 21.54 2.05 8.16 7.82 15.52 15.75 18.57 7.01 2.7 15.05 1.86 22.08-.32a62 62 0 0 0 20.01-10.94 54 54 0 0 0 4.85-4.35c2.18-2.2-1.22-5.59-3.4-3.39Zm72.78-113.31a373 373 0 0 1 14.97 6.55c4.86 2.23 9.66 4.49 13.55 8.26a31.7 31.7 0 0 1 9.34 17.01c1.38 7.49.86 15.35-.09 22.85-1 8.07-2.62 16.09-4.22 24.06a184 184 0 0 1-5.76 22.42 104 104 0 0 1-9.37 20.27c-3.39 5.65-7.76 10.2-13.79 13.02-9.73 4.55-22.5 4-30.27-4.04a22 22 0 0 1-2.55-3.2c-1.68-2.58-5.84-.18-4.14 2.41 7.16 10.95 20.75 14.55 33.03 11.3a34 34 0 0 0 17.19-10.52 53 53 0 0 0 6.05-8.96 115 115 0 0 0 5.46-11 141 141 0 0 0 7.24-23.26 413 413 0 0 0 4.87-25.15c1.36-8.33 2.35-16.78 1.75-25.23a43 43 0 0 0-2.14-11.44 36 36 0 0 0-5.27-9.42 39 39 0 0 0-14.66-11.75 374 374 0 0 0-19.92-8.81 2.4 2.4 0 0 0-2.95 1.67 2.46 2.46 0 0 0 1.68 2.95Z" class="c"/><path d="M336.4 221.65q.7 4.19 1.55 8.5l.44 2.28c7.7-2.2 16.5-4.34 23.07-6.22-1.22-4.68-2.31-6.99-1.3-12.07a33 33 0 0 1 2.47-6.38 62 62 0 0 0 3.4-12.82 937 937 0 0 0 6.59-37.2 86 86 0 0 0 .81-11.63 6 6 0 0 0-1.13-3.73 4 4 0 0 0-3.65-1.27 4 4 0 0 0-2.5 1.4 11 11 0 0 0-.83 1.55l-.25-.13a6 6 0 0 0-4.07-.67 8.4 8.4 0 0 0-4.02 1.57 166 166 0 0 0-27.53 27.75 53 53 0 0 0-5.86 9.34c-.87 1.7-3.21 6.86-3.95 8.62-3.09 7.29-3.53 9.5-12.3 15.7a92 92 0 0 0 13.71 18.52 26.3 26.3 0 0 1 14.3-10.95q.36 3.88 1.04 7.84" class="a"/><path d="M311.03 206.5c3.88-3 6.97-6.2 8.97-10.72 1.77-3.99 3.35-7.9 5.3-11.92a68 68 0 0 1 9.63-14.2 171 171 0 0 1 12.84-13.69q3.78-3.6 7.8-6.93c2.27-1.88 5.11-4.58 8.3-3.04a2.46 2.46 0 0 0 3.28-.86 2.4 2.4 0 0 0-.86-3.28 10.3 10.3 0 0 0-9.85.44 36 36 0 0 0-3.92 3.07q-1.86 1.53-3.68 3.12a161 161 0 0 0-13.73 13.66c-4.2 4.69-8.46 9.5-11.64 14.96a113 113 0 0 0-6.3 13.14 44 44 0 0 1-3.07 6.52 23 23 0 0 1-5.49 5.58 2.5 2.5 0 0 0-.86 3.28 2.4 2.4 0 0 0 3.28.86Zm12.67 18.64.63-.85.4-.48q.66-.8 1.38-1.56.68-.7 1.4-1.35l.8-.7.3-.23c.5-.4-.4.28.12-.1a27 27 0 0 1 3.26-2.05q.94-.47 1.9-.9c.33-.16-.53.2.08-.04l.48-.2 1.08-.4a2.4 2.4 0 0 0-1.28-4.62 30 30 0 0 0-8.1 4.19 32 32 0 0 0-6.6 6.87 2.4 2.4 0 0 0 .86 3.28 2.46 2.46 0 0 0 3.29-.86" class="c"/><path d="M340.27 229.51c-1.48-7.74-3.06-15.55-2.75-23.47a40 40 0 0 1 2.01-11.32c1.2-3.58 3.27-6.83 5.16-10.07a254 254 0 0 0 10.29-19.7c1.25-2.67 2.46-5.36 3.76-8 .34-.7 1.18-2.38 2.05-2.03.77.3.71 2.32.61 3.14a69 69 0 0 1-2.26 8.97l-2.54 9.64c-.78 2.99 3.85 4.27 4.63 1.27q1.22-4.7 2.48-9.39c.77-2.9 1.71-5.83 2.25-8.8.72-3.97-.15-9.24-5.04-9.63-4.25-.35-6.1 3.87-7.6 7.04a487 487 0 0 1-10.23 20.49c-1.97 3.72-4.27 7.26-6.15 11.03a40 40 0 0 0-3.78 12.43c-1.36 9.97.61 19.91 2.48 29.68a2.4 2.4 0 0 0 2.95 1.68 2.45 2.45 0 0 0 1.68-2.96" class="c"/><path d="M364.6 153.18c.85-2.48 1.56-5.02 2.58-7.43q.24-.59.53-1.15a5 5 0 0 1 .39-.69c-.2.25.08-.07.19-.14a1.8 1.8 0 0 1 2.13.1c.86.92.6 2.57.58 3.68q-.05 2.7-.25 5.4c-.26 3.5-.87 6.98-1.43 10.46a891 891 0 0 1-3.86 21.73c-1.3 6.88-2.15 14.13-4.63 20.7-.67 1.77-1.56 3.45-2.25 5.21a19 19 0 0 0-1.15 5.29c-.3 3.33.62 6.5 1.5 9.67.8 2.98 5.44 1.71 4.62-1.27-.8-2.94-1.67-5.74-1.28-8.81.45-3.52 2.44-6.57 3.57-9.89a80 80 0 0 0 2.6-10.95q1.15-6.02 2.28-12.05a722 722 0 0 0 4.06-23.69 91 91 0 0 0 1-10.87c.1-3.6-.16-7.95-4.14-9.4a7 7 0 0 0-5.15.21 6.6 6.6 0 0 0-3.18 3.41 86 86 0 0 0-3.33 9.2c-1 2.94 3.64 4.2 4.63 1.28Zm-61.58 50a95 95 0 0 0 18.14 25.11c2.2 2.18 5.59-1.21 3.4-3.4a91 91 0 0 1-17.4-24.13c-1.37-2.77-5.52-.34-4.14 2.42m-241.95-48.9a33 33 0 0 0 11.9 7.03 66 66 0 0 0 16.24 3.57 71 71 0 0 0 33.48-4.39 39 39 0 0 0 13.85-8.98c2.1-2.25-1.28-5.66-3.4-3.4-6.5 6.96-16.36 10.04-25.52 11.5a68 68 0 0 1-30.84-2.06c-4.44-1.4-8.95-3.38-12.32-6.67-2.21-2.16-5.6 1.23-3.4 3.4" class="c"/><path d="M380.47 245.6c-2.07-3.69-4-7.45-5.95-11.2l-3.08-5.9c-.98-1.84-1.82-4.13-3.98-4.84-1.86-.6-3.75.34-5.5.88q-2.77.87-5.55 1.68-6 1.77-11.99 3.56a199 199 0 0 0-11.09 3.6c-2.36.87-3.75 2.29-3.98 4.86a23 23 0 0 0 .3 5 193 193 0 0 0 3.45 19.24c2.07 8.68 4.98 17.38 9.61 25.05 1.6 2.64 5.75.23 4.15-2.42-6.93-11.46-9.52-24.67-11.72-37.68a49 49 0 0 1-1-9.04l.07-.35c-.03.05-.19.26 0 .15a4 4 0 0 1 .73-.3l2.6-.9q2.6-.87 5.23-1.68c7.08-2.2 14.23-4.16 21.3-6.4l1.27-.4c.12-.04 1.05-.29.7-.29a.4.4 0 0 1-.27-.13q.22.44.48.86l.76 1.43q1.56 2.91 3.07 5.86c2.05 3.95 4.08 7.9 6.25 11.78 1.51 2.7 5.66.28 4.15-2.42Z" class="c"/><path d="M119.24 270.77a699 699 0 0 0-6.65-24.33c6.98-3.2 10.43-4.14 17.16-6.08 5.52-1.6 11.42-3.26 19.02-3.26 5.06 0 10.48 2.18 14.23 3.5l1.14.4a713 713 0 0 1-3.02 27.4l-1.11 1s-4.22 3.8-7.34 4.4c-4.61.9-27.31 2.5-31.5.37l-1.21-.62zm-89.31-39.04q-.21-.36-.38-.74a3.9 3.9 0 0 1 .6-4.07 4.9 4.9 0 0 1 4.38-1.44s.56.06 1.23.13a8 8 0 0 1-1.24-1.85 4.7 4.7 0 0 1 .71-5.2 5.6 5.6 0 0 1 4.57-1.39 9.7 9.7 0 0 1 5.15 2.42c7.49 6.63 21.27 20.06 28.23 27.09l2.77 2.62a4908 4908 0 0 0-37.54 6.61l-.71-.9c-2.22-2.76-4.09-5.3-6.48-8.37a11 11 0 0 1-1.93-3.11 4.5 4.5 0 0 1 .64-3.9c1.53-1.7 3.54-1.4 6.26-.92l-3.33-3.39a17 17 0 0 1-2.93-3.59" class="a"/><path d="M158.31 267.71c-1.63 1.46-3.77 3.21-6.14 3.75q-.52.11-1.05.18l-.3.05.16-.02-.8.1q-1.73.2-3.48.35a155 155 0 0 1-18.3.67 49 49 0 0 1-4.14-.29c-.46-.05-.01 0 .07.01l-.53-.08q-.37-.06-.72-.15l-.62-.16-.24-.08c-.4-.08.52.24.16.06a2.46 2.46 0 0 0-3.29.86 2.4 2.4 0 0 0 .86 3.28 18 18 0 0 0 6.83 1.28c3.17.18 6.36.13 9.53.02a111 111 0 0 0 16.78-1.38c3.22-.6 6.22-2.91 8.61-5.05 2.31-2.07-1.1-5.45-3.39-3.4m-42.84-19.95a90 90 0 0 1 10.82-3.9c3.85-1.14 7.72-2.32 11.65-3.17a42 42 0 0 1 12.74-1.1c4.03.41 7.9 2 11.68 3.33a2.4 2.4 0 0 0 2.95-1.67 2.45 2.45 0 0 0-1.67-2.96c-4.18-1.47-8.3-3-12.74-3.47a45 45 0 0 0-13.85 1.16c-4.06.86-8.06 2.08-12.04 3.25a100 100 0 0 0-11.97 4.39 2.4 2.4 0 0 0-.86 3.28 2.46 2.46 0 0 0 3.29.86m-40.6-2.78q-11.17-11.26-22.76-22.1c-3.7-3.46-7.84-8.41-13.39-8.13-3.3.16-6.3 2.13-6.94 5.54-.64 3.5 1.39 6.27 3.78 8.58 5.05 4.87 10.03 9.82 15.07 14.71 2.22 2.15 5.62-1.24 3.4-3.4q-5.97-5.79-11.9-11.64-1.5-1.47-3.03-2.92a10 10 0 0 1-2.44-2.9c-1-2.25 1.18-3.47 3.14-3.15 2.12.35 3.67 1.9 5.2 3.28q2.44 2.21 4.84 4.48 5.54 5.19 10.96 10.49 5.38 5.23 10.68 10.55c2.18 2.2 5.58-1.2 3.4-3.4Z" class="c"/><path d="M34.53 223.08a6.9 6.9 0 0 0-7.08 3.65c-1.48 3.17.07 6.15 2.14 8.6 1.95 2.32 4.24 4.4 6.36 6.58 2.16 2.2 4.35 4.4 6.65 6.46s5.7-1.33 3.4-3.4c-3.7-3.32-7.1-6.96-10.6-10.5-.82-.83-1.67-1.64-2.42-2.54a5.3 5.3 0 0 1-1.35-2.3c-.22-1.6 1.62-1.92 2.9-1.75a2.4 2.4 0 0 0 2.4-2.4 2.46 2.46 0 0 0-2.4-2.4" class="c"/><path d="M34.62 236.05c-2.33-.3-4.73.06-6.39 1.88a6.7 6.7 0 0 0-1.11 6.63c.91 2.33 2.77 4.24 4.27 6.2q2.27 3.01 4.6 5.95a2.4 2.4 0 0 0 3.4 0 2.46 2.46 0 0 0 0-3.39 224 224 0 0 1-3.32-4.28c-1.24-1.62-2.64-3.31-3.73-4.86a9 9 0 0 1-.65-1.06l-.15-.42c-.15-.42-.01.19-.03-.1v-.55c-.02-.44-.05.1 0-.16l.14-.54c-.08.3-.04.07.06-.1.18-.32-.42.43.08-.1.29-.3-.04 0 .14-.14.14-.1.42-.23.1-.1l.5-.15c.25-.07-.33 0 .13-.02l.58-.01a13 13 0 0 1 1.38.12 2.4 2.4 0 0 0 2.4-2.4 2.46 2.46 0 0 0-2.4-2.4m129.73-29.12a788 788 0 0 1-5.08 57.3c-.44 3.53-.85 6.87-1.58 10.62a2.46 2.46 0 0 0 1.68 2.95 2.4 2.4 0 0 0 2.95-1.68c1.5-7.77 2.24-15.72 3.07-23.58q1.63-15.46 2.8-30.96.57-7.32.96-14.65c.15-3.09-4.65-3.08-4.8 0" class="c"/><path d="M67.47 147.4c-13.64 4.17-27.54 8.7-39.71 16.33a53 53 0 0 0-7.8 5.7 38 38 0 0 0-6.94 8.7 46 46 0 0 0-5.03 11.69q-1.8 6.69-3.18 13.47a213 213 0 0 0-3.41 24.75 396 396 0 0 0-1.36 24.9c-.17 8.79.11 17.88 1.85 26.52A39 39 0 0 0 6 290.53a32 32 0 0 0 7.66 9.67c5.5 4.38 12.76 6.05 19.61 6.78 6.37.68 12.7-.13 19.03-.93a360 360 0 0 0 50.21-10.08q6-1.65 11.92-3.54 2.73-.87 5.43-1.8c2.08-.72 4.46-1.27 5.26-3.6.5-1.49.03-2.96-.32-4.42l-.95-3.91q-1.17-4.77-2.4-9.52a772 772 0 0 0-5.3-19.56q-.54-1.9-1.11-3.8c-.48-1.58-.9-3.22-2.38-4.18-2.09-1.35-5.14-.27-7.44.14q-17.01 2.98-34.03 5.92c-10.67 1.86-21.35 3.69-32 5.64q-1.98.35-3.98.74a2.4 2.4 0 0 0-1.67 2.95 2.45 2.45 0 0 0 2.95 1.68c8.47-1.66 17-3.07 25.5-4.56q17.64-3.08 35.28-6.13l7.24-1.26a41 41 0 0 0 5.6-.99c.33-.1.17.03.15-.02.1.3-.4-.26-.33-.26-.12 0-.01-.22 0 .07a8 8 0 0 0 .51 1.64q.56 1.85 1.09 3.7 1.27 4.45 2.47 8.92 2.58 9.56 4.98 19.18l.97 3.95.38 1.6.17.73c.06.26.2.72.09.18-.06-.28.35-.22-.26-.07-.4.1-.82.29-1.22.43q-1.42.5-2.85.97-2.66.9-5.34 1.73a355 355 0 0 1-48.1 11.2 229 229 0 0 1-21.9 2.7 46 46 0 0 1-16.94-2.2 21.5 21.5 0 0 1-7.73-4.1 31 31 0 0 1-6.84-9.43c-3.58-7.25-4.08-15.67-4.44-23.62a233 233 0 0 1 .47-23.54c.45-8.04 1-16.08 2.14-24.05a208 208 0 0 1 5.18-24.86 38 38 0 0 1 11.26-18.38c4.08-3.56 9.1-6.3 13.93-8.72a150 150 0 0 1 18.34-7.47q6.2-2.12 12.47-4.03c2.95-.9 1.7-5.53-1.28-4.62Z" class="c"/><path d="M131.89 150.85c8.57 1.85 17.18 3.71 25.37 6.88 7.69 2.97 15.16 7.2 20.51 13.57 11.54 13.71 14 32.2 15.8 49.41a245 245 0 0 1 1.24 28.89c-.12 8.15-.13 16.63-2.49 24.5a38 38 0 0 1-4.22 9.49 23 23 0 0 1-7.44 6.73 37 37 0 0 1-10.77 4.51 71 71 0 0 1-12.87 1.36 259 259 0 0 1-26.37-.33 511 511 0 0 1-27.94-2q-3.35-.36-6.7-.8a2.5 2.5 0 0 0-2.96 1.67 2.4 2.4 0 0 0 1.68 2.95c9.77 1.34 19.6 2.1 29.45 2.64 9.13.5 18.28 1.03 27.42.85 9.06-.17 18.34-.47 26.73-4.2a38 38 0 0 0 10.05-6.47 27 27 0 0 0 6.25-9.03c3.41-7.47 4.37-15.4 4.73-23.54a257 257 0 0 0-.37-30.14 226 226 0 0 0-3.68-28.54c-1.83-9-4.84-17.84-9.87-25.59a47 47 0 0 0-8.7-10.26 56 56 0 0 0-10.98-7.11c-8.16-4.15-17.05-6.58-25.94-8.6l-6.65-1.46c-3.01-.65-4.3 3.98-1.28 4.63Zm159.36-45.23a54 54 0 0 0 6.89 18.97c3.56 5.96 8.33 11.55 14.24 15.28a31 31 0 0 0 9.88 4c3.02.64 4.3-3.99 1.28-4.63-7.55-1.6-13.48-6.38-18.1-12.42a50 50 0 0 1-9.56-22.47 2.4 2.4 0 0 0-2.95-1.68 2.46 2.46 0 0 0-1.68 2.95" class="c"/></svg>
