<svg xmlns="http://www.w3.org/2000/svg" viewBox="0 -12.36 424.806 424.806"><defs><style>.a{fill:#fff}.b{fill:#aaa}.c{fill:#211715}</style></defs><path d="M114.67 363.18c6.77-7.34 11.39-16.13 15.75-24.63a37 37 0 0 0-8.5-9.62 74 74 0 0 1-21.52 16.47c-.93.45-.85 2.07-.3 2.71.43.49 11.22 12.03 14.57 15.07" class="a"/><path d="M139.51 267.99a7 7 0 0 1 5.06-2.08 6.6 6.6 0 0 1 6.04 3.05c2.15 3.4 2.32 9.83 1.13 13.86-.85 2.85-2.24 7.22-5.9 10.45a7.8 7.8 0 0 1-5.95 1.98l-.59-.07a46 46 0 0 1-1.85 5.7c-1.32 4.08-8.7 18.09-18.63 24.57v6.71a73 73 0 0 1-18.42 13.24l-4.32.15a74 74 0 0 1-22.61-14.93s0-1.91 0-3.7a44 44 0 0 1-11.46-9.37 54 54 0 0 1-11-18.9 7.7 7.7 0 0 1-6.59-1.39c-3.89-2.93-5.63-7.18-6.7-9.95-1.5-3.92-1.83-10.34.04-13.9a6.6 6.6 0 0 1 5.78-3.52 7 7 0 0 1 5.2 1.67s-8.56-48.52 43.22-48.52c56.67 0 47.55 44.95 47.55 44.95" class="a"/><path d="M373.12 325.56c6.18-2.5 14.26-7.73 17.29-10.73a26 26 0 0 0 7.46-14.34c1.45-8.24-.6-16.13-2.8-24-2.28-8.11-3.5-16.14-4.87-24.45-1.23-7.51-2.75-15.45-6.1-22.28-4.39-8.95-11.68-15.4-21.42-17.55l-8.7-2.47c-11.67-7.45-32.3-4.9-44.4 2.92-12.17 7.87-18.8 19.87-23.92 32.5-6.31 15.57-12.3 35.72-11.28 52.57.46 7.66 4.53 13.55 10.3 18.61 5.6 4.92 10.94 6.62 19.03 7.52Z" class="b"/><path d="M390.29 289.43c.46-3.2.27-6.75-.9-9.06a6.2 6.2 0 0 0-5.43-3.41 6.7 6.7 0 0 0-4.95 1.52l-3.67-7.46c-3-8.87-9.78-20.61-21.33-26.77-8.58 8.02-15.49 14.04-27.64 16.3 0 0-8.49.56-15.99.36-4.38 3.96-8.38 8.03-10.91 12.58-3.83 6.9-5.96 15.04-7.04 23.24a51.4 51.4 0 0 0 9.09 21.44q.46.63.93 1.22a38 38 0 0 0 10.72 9.8c-.02 1.81.02 2.76-.17 5.37a14 14 0 0 1-.69 4.01 10 10 0 0 1-2.94 4.3c-3 2.4-6.07 3.55-9.86 4.98l-3.54 1.4c9.28 5.18 26.59 9.73 39.79 9.68A91.5 91.5 0 0 0 375 349.2l-3.46-1.36c-3.8-1.43-6.87-2.58-9.86-4.99a10 10 0 0 1-2.95-4.29 14 14 0 0 1-.68-4.01c-.2-2.79-.15-3.68-.18-5.76 8.32-5.9 14.87-15.92 16.3-19.17a44 44 0 0 0 2.4-5.5l.4.09a7.4 7.4 0 0 0 5.78-1.35c3.73-2.73 5.43-6.72 6.48-9.34a18 18 0 0 0 1.05-4.1" class="a"/><path d="M310.77 329.77q0 1.87-.1 3.73a14 14 0 0 1-.67 4.45c-1.1 2.78-3.6 4.3-6.19 5.57-3.25 1.58-6.76 2.73-10.13 4.06a2.47 2.47 0 0 0-1.67 2.95 2.4 2.4 0 0 0 2.95 1.68c4.03-1.6 8.29-2.94 12.11-4.98a21 21 0 0 0 4.47-3.09 13 13 0 0 0 2.97-4.63c1.18-2.97 1.04-6.57 1.05-9.74.02-3.09-4.78-3.1-4.8 0Zm44.73 0c.02 3.17-.13 6.77 1.06 9.74a13 13 0 0 0 2.96 4.63 21 21 0 0 0 4.47 3.1c3.83 2.03 8.08 3.38 12.12 4.97a2.4 2.4 0 0 0 2.95-1.68 2.46 2.46 0 0 0-1.68-2.95c-3.36-1.33-6.88-2.48-10.13-4.06-2.57-1.26-5.1-2.8-6.18-5.57a15 15 0 0 1-.67-4.45q-.11-1.86-.1-3.73c-.02-3.09-4.82-3.1-4.8 0" class="c"/><path d="M300.08 79.39v-22.2l92.85-34.48c9.8 9.62 21.15 20.72 29.44 28.99v23.4c-22.35 8.6-68.2 25.51-91.95 34.14a6397 6397 0 0 1-30.34-29.85" style="fill:#a98a75"/><path d="m360.23 36.68-1.26-1.24-21.46 7.95c10.26 9.91 21.03 20.05 30.8 29.77v22.2c6.9-2.55 13.91-5.15 20.68-7.68V65c-9.13-9.24-19.14-18.86-28.76-28.32" class="a"/><path d="M326.4 67.12c-1.99.73-2.33 2.17-1.13 3.27a5.5 5.5 0 0 0 5.62.83c2.08-.77 2.44-2.03 1.06-3.3a5.8 5.8 0 0 0-5.56-.8m8.25-3.03c-1.95.71-2.28 2.15-1.09 3.24a5.4 5.4 0 0 0 5.53.83c2.05-.76 2.4-2 1.04-3.26a5.7 5.7 0 0 0-5.48-.81m8.13-2.99c-1.92.7-2.24 2.12-1.06 3.2a5.3 5.3 0 0 0 5.44.85c2.02-.75 2.36-1.98 1.02-3.23a5.6 5.6 0 0 0-5.4-.82m48.92-7.38a2.1 2.1 0 0 1-.07-2.83c1.13-1.65-.43-3.44-2.08-3.6-1.6-.17-3.64-.72-4.56-2.16l-.23-.41c-.03-.07-.17-.69-.14-.48a1 1 0 0 1 .06-.5 2.4 2.4 0 0 1 1.07-1.12 8.2 8.2 0 0 1 6.16-.55 4.6 4.6 0 0 1 3.47 4.5 2.44 2.44 0 0 0 2.4 2.4c3.63-.03 6.76.3 9.79 2.45a2.4 2.4 0 0 0 3.28-.86 2.45 2.45 0 0 0-.86-3.29c-3.67-2.6-7.81-3.13-12.2-3.1l2.4 2.4a9.5 9.5 0 0 0-6.65-9.02c-3.35-1.1-7.8-.8-10.73 1.26a6.36 6.36 0 0 0-2.19 8.34c1.71 3.3 5.47 4.57 8.93 4.93l-2.07-3.61a6.85 6.85 0 0 0 .83 8.65c2.26 2.1 5.66-1.3 3.39-3.4m-69.1 1.1c-2.53.88-5.07 1.7-7.6 2.6a2.6 2.6 0 0 0-1.43 1.1 2.4 2.4 0 0 0 2.72 3.52c2.51-.9 5.05-1.71 7.58-2.59a2.6 2.6 0 0 0 1.43-1.1 2.4 2.4 0 0 0-2.7-3.52" class="c"/><path d="m306.67 66.26 22.54 22.2a2.4 2.4 0 0 0 2.34.61c12.22-4.28 24.4-8.7 36.55-13.14a2.46 2.46 0 0 0 1.68-2.95 2.4 2.4 0 0 0-2.95-1.68 2886 2886 0 0 1-36.56 13.14l2.34.62-22.55-22.2c-2.2-2.16-5.6 1.23-3.4 3.4m50.8-28.93c9.94 9.79 20.01 19.44 29.82 29.37l-.7-1.7v22.5c0 3.08 4.8 3.09 4.8 0V71.27c0-2.07.12-4.18 0-6.25-.08-1.37-1.12-2.15-2.01-3.05l-4-4q-3.66-3.64-7.35-7.25-8.6-8.38-17.17-16.8c-2.2-2.17-5.6 1.22-3.4 3.4Z" class="c"/><path d="M336.07 45.32c10.18 9.84 20.5 19.55 30.54 29.53l-.7-1.7v21.83c0 3.1 4.8 3.1 4.8 0V78.9c0-1.9.12-3.83 0-5.73-.1-1.6-1.64-2.63-2.7-3.68q-1.93-1.91-3.89-3.81-3.7-3.62-7.45-7.21c-5.73-5.52-11.49-11-17.21-16.53-2.22-2.15-5.62 1.24-3.4 3.4m78.87 7.78q-12.98 5.05-26 9.95a2.47 2.47 0 0 0-1.68 2.96 2.4 2.4 0 0 0 2.95 1.67q13.02-4.92 26-9.95a2.47 2.47 0 0 0 1.68-2.95 2.4 2.4 0 0 0-2.95-1.67" class="c"/><path d="M302.48 79.39v-22.2l-1.76 2.32c8.38-3.18 16.79-6.29 25.19-9.43q23.61-8.82 47.26-17.58c6.79-2.5 13.58-5.02 20.4-7.47l-2.34-.62c10 9.47 19.96 19 29.44 28.99l-.62-1.06c-.14-.34-.05-.55-.08-.06v.63l.02 1.21v2.9q.02 3.35 0 6.7.01 5.69-.03 11.38l.33-1.21 1.44-1.1a3189 3189 0 0 1-34.12 12.86q-19.73 7.35-39.5 14.6-9.16 3.36-18.34 6.7l2.34.61c-10.17-9.9-20.46-19.68-30.34-29.86-2.15-2.22-5.54 1.17-3.4 3.4 9.89 10.18 20.18 19.96 30.34 29.86a2.4 2.4 0 0 0 2.34.61q30.08-10.92 60.06-22.12 14.17-5.28 28.29-10.65l2.9-1.11c1.67-.65 2.46-1.35 2.47-3.2l.02-6.46q.04-7.56-.01-15.12a7 7 0 0 0-.1-1.85 6 6 0 0 0-1.65-2.14q-1.78-1.85-3.58-3.69-3.9-3.98-7.89-7.89-8.38-8.25-16.94-16.32a2.4 2.4 0 0 0-2.33-.62c-13.69 4.93-27.32 10.03-40.95 15.1q-21.45 7.98-42.88 16l-9.03 3.38a2.5 2.5 0 0 0-1.76 2.32v22.2c0 3.08 4.8 3.08 4.8-.01" class="c"/><path d="M328.68 87.23v12.2a2.4 2.4 0 1 0 4.8 0v-12.2a2.4 2.4 0 1 0-4.8 0" class="c"/><path d="M258.36 87.33v27.1h-93.83v-27.1zM248.33 73.5v13.81h-73.78v-13.8zm-9.75-71.1v71.11H184.3c0-7.7.27-60.77.27-71.11Z" style="fill:#b3b3b3"/><path d="M186.71 73.52q.02-12.26.1-24.52l.14-34.55L187 2.4l-2.4 2.4h53.98l-2.4-2.4v71.11c0 3.1 4.8 3.1 4.8 0V2.4a2.44 2.44 0 0 0-2.4-2.4H184.6a2.44 2.44 0 0 0-2.4 2.4q-.02 13.2-.1 26.4l-.14 34.03q-.04 5.35-.04 10.69c0 3.09 4.8 3.1 4.8 0Z" class="c"/><path d="M176.95 87.33V73.52l-2.4 2.4h73.78l-2.4-2.4v13.8c0 3.1 4.8 3.1 4.8 0v-13.8a2.44 2.44 0 0 0-2.4-2.4h-73.78a2.44 2.44 0 0 0-2.4 2.4v13.8c0 3.1 4.8 3.1 4.8 0" class="c"/><path d="M258.36 84.93h-93.84a2.43 2.43 0 0 0-2.4 2.4v27.1a2.44 2.44 0 0 0 2.4 2.4h93.84a2.44 2.44 0 0 0 2.4-2.4v-27.1c0-3.1-4.8-3.1-4.8 0v27.1l2.4-2.4h-93.84l2.4 2.4v-27.1l-2.4 2.4h93.84c3.1 0 3.1-4.8 0-4.8" class="c"/><path d="M8.15 88.2V50.14l47.2-47.2 47.21 47.2v62.25H8.15Z" class="a"/><path d="M59.47 65.48H81.6v19.85H59.47z" style="fill:#89c5e9"/><path d="M5.75 51.28v61.1a2.44 2.44 0 0 0 2.4 2.4H90.9c3.81 0 7.67.16 11.48 0h.17a2.44 2.44 0 0 0 2.4-2.4v-61.1c0-3.09-4.8-3.1-4.8 0v61.1l2.4-2.4H12c-1.2 0-2.48-.1-3.68 0h-.17l2.4 2.4v-61.1c0-3.09-4.8-3.1-4.8 0" class="c"/><path d="m4.1 57.59 17.96-17.97L50.5 11.2l6.56-6.56h-3.4L71.63 22.6l28.43 28.43 6.56 6.56c2.19 2.19 5.58-1.2 3.4-3.4L92.04 36.24 63.61 7.8l-6.56-6.56a2.44 2.44 0 0 0-3.4 0L35.7 19.2 7.27 47.63.7 54.19c-2.2 2.19 1.2 5.58 3.39 3.4m77.5 5.49H59.48a2.43 2.43 0 0 0-2.4 2.4v19.85a2.44 2.44 0 0 0 2.4 2.4H81.6a2.44 2.44 0 0 0 2.4-2.4V65.48c0-3.1-4.8-3.1-4.8 0v19.85l2.4-2.4H59.47l2.4 2.4V65.48l-2.4 2.4H81.6c3.09 0 3.09-4.8 0-4.8M8.16 77.8h25.5l-2.4-2.4v37c0 3.08 4.8 3.08 4.8 0v-37a2.43 2.43 0 0 0-2.4-2.4H8.16c-3.09 0-3.1 4.8 0 4.8" class="c"/><path d="M249.85 397.7c2.26-10.65 6.1-22.35 10.8-29.44 7.87-11.84 20.96-15.11 34.35-19.58 9 5.41 27.08 10.3 40.76 10.25a91 91 0 0 0 40.92-10.62c10.32 3.3 18.2 6.95 24.66 13.31 5.63 6.19 11.64 14.22 12.47 28.28q.01 3.81-.07 7.8" style="fill:#7abee6"/><path d="M5 397.7c1.1-5.94 2.55-12.19 4.54-19.32 3.54-8.74 7.61-14.83 14.34-19.47 9.75-6.74 20.4-10.61 42.27-17.3 4.8 7.92 9.91 16.04 16.95 22.67 3.13-3.27 13.09-15.52 13.48-16.04l3.53-.12c.42.49 11.21 12.02 14.56 15.06 6.62-7.18 11.18-15.74 15.46-24.06 12.2 2.63 25.05 5.33 35.98 11.69a42 42 0 0 1 10.67 8.24 55 55 0 0 1 7.71 11.12c4.56 8.62 6.76 17.99 8.21 27.53" style="fill:#5199d1"/><path d="M116.41 327.28v4.88a2.5 2.5 0 0 0 .7 1.7 2.4 2.4 0 0 0 4.1-1.7v-4.88a2.5 2.5 0 0 0-.7-1.7 2.4 2.4 0 0 0-4.1 1.7m238.79-119.6c-9.82-6.18-23.06-5.73-33.86-2.74a47 47 0 0 0-15.64 7.5 57 57 0 0 0-13.01 13.8 95 95 0 0 0-8.76 16.86 190 190 0 0 0-6.75 18.93 135 135 0 0 0-4.53 20.76c-.84 6.38-1.52 13.44.06 19.75 1.68 6.75 6.36 12.48 11.74 16.72 5.67 4.48 12.18 6.2 19.25 7a2.4 2.4 0 0 0 2.4-2.4 2.46 2.46 0 0 0-2.4-2.4c-5.43-.62-10.65-1.9-15.17-5.1a29.6 29.6 0 0 1-10.29-12.28c-2.26-5.55-1.75-12.05-1.18-17.9a117 117 0 0 1 3.72-19.28 184 184 0 0 1 6.15-18.49 112 112 0 0 1 7.37-15.71c5.62-9.65 13.71-17.96 24.36-21.86a51 51 0 0 1 18.03-3.15c5.59.07 11.3 1.12 16.1 4.12 2.62 1.65 5.03-2.5 2.42-4.14Zm6.85 6.85a28.5 28.5 0 0 1 17.51 12.13c5.04 7.58 6.79 16.75 8.25 25.58.83 4.95 1.6 9.92 2.57 14.84s2.36 9.73 3.6 14.6c2.26 8.8 3.38 18.5-1.5 26.66a27 27 0 0 1-8.23 8.31 64 64 0 0 1-11.77 6.6 2.5 2.5 0 0 0-1.67 2.94 2.4 2.4 0 0 0 2.95 1.68 69 69 0 0 0 11.69-6.25 37 37 0 0 0 8.74-7.4c6.53-8.12 7.5-18.37 5.66-28.34-.95-5.13-2.6-10.1-3.78-15.17a242 242 0 0 1-3-15.97c-1.6-9.72-3.11-19.8-8.1-28.48a33.7 33.7 0 0 0-21.65-16.36c-3-.68-4.29 3.94-1.27 4.63" class="c"/><path d="M328.63 238.72c-4.96 8.66-13.58 14.63-20.8 21.27a46.7 46.7 0 0 0-16.03 26.98 101 101 0 0 0-2.62 20.15c-.12 3.1 4.68 3.09 4.8 0 .43-11.2 2.12-23.17 7.88-32.98a47 47 0 0 1 8.83-10.26c3.72-3.47 7.66-6.69 11.4-10.14a54 54 0 0 0 10.68-12.6c1.54-2.69-2.6-5.1-4.14-2.42m25.8 1.85c-4.19 3.92-8.33 7.98-13.07 11.23a41 41 0 0 1-15.63 6.44 2.4 2.4 0 0 0-1.68 2.96 2.45 2.45 0 0 0 2.96 1.67 44 44 0 0 0 16.77-6.93c5.09-3.48 9.55-7.77 14.04-11.97 2.26-2.12-1.14-5.5-3.4-3.4" class="c"/><path d="M353.5 246.7c9.41 5.37 16.07 14.83 19.52 24.96 1 2.9 5.63 1.66 4.63-1.28-3.85-11.3-11.21-21.83-21.73-27.82-2.68-1.53-5.1 2.62-2.42 4.15m-25.06 66.93.44-.2c.35-.16-.17.09-.24.1l.32-.13a12 12 0 0 1 1.4-.43l.94-.19c.45-.09-.3.02.03 0l.51-.06a19 19 0 0 1 2.67-.03q.63.03 1.26.1c-.46-.04.24.04.28.05l.52.1a13 13 0 0 1 1.87.53l.22.08q.26.1-.23-.1c.08 0 .26.12.32.15q.32.16.61.33l.46.3c.46.3-.5-.42-.01 0a2.4 2.4 0 0 0 3.39-3.4c-2.33-2.02-5.41-2.73-8.43-2.93a18 18 0 0 0-8.75 1.58 2.4 2.4 0 0 0-.86 3.29 2.47 2.47 0 0 0 3.28.86m4.45-22.35a47 47 0 0 0-1.08 3.9 6 6 0 0 0-.2 1.57 3.3 3.3 0 0 0 1.5 2.67 5 5 0 0 0 2.19.7 6 6 0 0 0 1.43-.13l-.64.08.2-.02a2.6 2.6 0 0 0 1.7-.7 2.4 2.4 0 0 0 0-3.4 2.4 2.4 0 0 0-1.7-.7q-.5.05-1 .14l.63-.09a3 3 0 0 1-.7.01l.64.09a2 2 0 0 1-.46-.13l.57.24a3 3 0 0 1-.5-.28l.49.38-.1-.1.37.48-.1-.17.25.57-.06-.2.09.64a2 2 0 0 1 0-.53l-.08.64a19 19 0 0 1 .55-2.26q.3-1.07.64-2.12a2.4 2.4 0 0 0-1.68-2.95 2.45 2.45 0 0 0-2.95 1.67m-20.03-12.26c-.85 2.27-.72 7.61 3.63 8.33 5.8.32 6.5-6.08 4.73-9.22-1.44-2.57-6.07-3.89-8.36.9m46.32 2.84c.57 2.35-.21 7.64-4.62 7.82-5.78-.39-5.7-6.83-3.56-9.73 1.74-2.38 6.5-3.12 8.18 1.9m-11.75 26.69q.22.23.42.49l-.38-.49a8 8 0 0 1 1.01 1.77l-.24-.57a14 14 0 0 1 .5 1.42 2.5 2.5 0 0 0 1.1 1.43 2.4 2.4 0 0 0 3.53-2.71 16 16 0 0 0-.98-2.5 10 10 0 0 0-1.57-2.24 2.4 2.4 0 0 0-3.4 0 2.4 2.4 0 0 0-.7 1.7 2.6 2.6 0 0 0 .7 1.7Zm1.47 26.84c6.2-1.04 11.64-5.1 16.03-9.41a63 63 0 0 0 10.1-12.83 52 52 0 0 0 3.86-8.38l-2.95 1.67c7.97 1.79 13.02-5.72 15.56-12.15a22 22 0 0 0 1.32-10.06c-.31-2.94-1.2-5.88-3.61-7.76a9.64 9.64 0 0 0-11.9.3 2.4 2.4 0 0 0 0 3.4 2.46 2.46 0 0 0 3.4 0 4.7 4.7 0 0 1 4.18-.62 3.5 3.5 0 0 1 1.9 1.2q.29.33.05.03l.22.34c1.32 2.36 1.25 5.48.84 8.1a21 21 0 0 1-3.07 7.88c-1.6 2.58-4.28 5.46-7.61 4.71a2.47 2.47 0 0 0-2.96 1.68 48 48 0 0 1-6.56 12 50 50 0 0 1-11.67 11.68 21 21 0 0 1-8.41 3.59 2.4 2.4 0 0 0-1.68 2.95 2.46 2.46 0 0 0 2.96 1.68m-58.78-38.02a54 54 0 0 0 6.89 18.37c3.55 5.85 8.27 11.34 14.1 15a30 30 0 0 0 9.84 3.97c3.01.64 4.3-3.99 1.28-4.63-7.5-1.58-13.37-6.3-17.99-12.25a50 50 0 0 1-9.5-21.74 2.4 2.4 0 0 0-2.95-1.67 2.45 2.45 0 0 0-1.67 2.95m68.55-24.32a20 20 0 0 0 2.25 2.62 16 16 0 0 0 1.53 1.27 6 6 0 0 0 1.54.8 2 2 0 0 0 .96.05 2 2 0 0 0 .9-.28 2.4 2.4 0 0 0 .85-3.29l-.37-.48a2.4 2.4 0 0 0-1.06-.62l-.07-.03.57.24a5 5 0 0 1-1.02-.63l.48.37a15 15 0 0 1-2.58-2.65l.37.49-.2-.28a2.7 2.7 0 0 0-1.44-1.1 2.5 2.5 0 0 0-1.85.24 2.4 2.4 0 0 0-1.1 1.44 2.4 2.4 0 0 0 .24 1.85Zm-106.5 125.28a128 128 0 0 1 4.34-15.64 61 61 0 0 1 5.94-12.8c4.85-7.55 12.79-11.8 21-14.81 5.03-1.84 10.18-3.36 15.23-5.13a2.46 2.46 0 0 0 1.68-2.95 2.4 2.4 0 0 0-2.95-1.68c-9.14 3.2-18.82 5.54-27.15 10.63a38 38 0 0 0-10.78 9.81 56 56 0 0 0-6.72 13.24 123 123 0 0 0-5.23 18.06c-.64 3.01 3.98 4.3 4.63 1.28Z" class="c"/><path d="M373.83 347.12a87 87 0 0 1-31.8 9.12c-10.57.93-21.14-.68-31.28-3.67a65 65 0 0 1-14.15-5.73c-2.68-1.55-5.1 2.6-2.42 4.14a67 67 0 0 0 13.25 5.6 104 104 0 0 0 16.18 3.75 78 78 0 0 0 16.62.85 93 93 0 0 0 18.26-3.1 90 90 0 0 0 17.77-6.82c2.74-1.42.32-5.56-2.43-4.14" class="c"/><path d="M56 244.44a21 21 0 0 0-2.63 4.01c-2.86 5.61.02 19.88-3.88 23.9a6.9 6.9 0 0 0-5.95-2.47 9 9 0 0 0-2.2.44c-1.93-6.18-3.34-12.91-3.33-18.33.05-18.16 5.47-29.28 14.75-37.28a7 7 0 0 0 .97-1.01c7.9-9.95 22.04-17.5 37.37-17.34 12.22.13 22.06 2.83 30.66 8.38l2.9 1.89 4.39 3.65c9.1 7.59 17.51 19.65 19 37.87a58 58 0 0 1-1.46 17.97 9 9 0 0 0-2.02-.22 7 7 0 0 0-5.06 2.08l-1.17-.21c-.39-7.96-5.38-26.4-16.3-29.78a121 121 0 0 0-17.43-3.81c-6.82-.66-13.1.65-19.83 1.89-4.43.81-9.03 1.52-15.06 2.17-5.6.47-9.89 2.1-13.14 5.55q-.3.32-.57.65" class="b"/><path d="M50.44 269.87a10.15 10.15 0 0 0-11.19-1.24 9.7 9.7 0 0 0-4.73 6.84 25.4 25.4 0 0 0 4.53 19.64c2.9 3.96 7 6.87 12.11 5.98a2.4 2.4 0 0 0 1.68-2.96 2.45 2.45 0 0 0-2.95-1.67c-3.5.61-6.34-2.94-7.89-5.6a22 22 0 0 1-2.98-8.4c-.33-2.79-.34-6.12 1.22-8.52q.14-.2-.07.07l.3-.34c.08-.08.62-.56.47-.45a5 5 0 0 1 1.7-.77 5 5 0 0 1 4.41.81 2.47 2.47 0 0 0 3.4 0 2.4 2.4 0 0 0 0-3.4Zm90.77-.19a5.06 5.06 0 0 1 7.16.22c-.35-.4.11.18.17.27a7 7 0 0 1 .57 1.08 12 12 0 0 1 .58 1.98 19 19 0 0 1 .36 5.02 22 22 0 0 1-2.28 8.44c-1.53 3.1-4.03 6.53-7.89 6.16a2.4 2.4 0 0 0-2.4 2.4 2.45 2.45 0 0 0 2.4 2.4c8 .76 12.5-8 14.26-14.5a24 24 0 0 0 .25-10.85 11 11 0 0 0-4.48-7.37 10.05 10.05 0 0 0-12.1 1.36c-2.2 2.16 1.19 5.55 3.4 3.4" class="c"/><path d="M137.71 291.17a44 44 0 0 1-1.41 5.79q-.36 1.16-.77 2.3l-.19.48c-.17.47.28-.71-.08.22l-.28.75-.17.45-.12.28c-.11.3.19-.43.06-.12a48 48 0 0 1-2.3 4.6 57 57 0 0 1-11.58 14.95 22.5 22.5 0 0 1-8.81 5.09c-2.98.8-1.71 5.44 1.28 4.62 6.9-1.88 12.48-7.14 16.81-12.63a64 64 0 0 0 9.14-15.16l.37-1.02c-.17.49.14-.33.22-.53a25 25 0 0 0 .72-2 45 45 0 0 0 1.74-6.8 2.47 2.47 0 0 0-1.68-2.94 2.4 2.4 0 0 0-2.95 1.67m-90.05 4.67a57 57 0 0 0 8.72 18.53c4.4 6.08 10.05 11.75 16.83 15.13a33 33 0 0 0 11.39 3.28 2.4 2.4 0 0 0 2.4-2.4 2.46 2.46 0 0 0-2.4-2.4c-13.23-1.43-23.57-12.98-29-24.36a53 53 0 0 1-3.3-9.06c-.8-2.98-5.44-1.72-4.63 1.28Zm75.3-93.16a57 57 0 0 0-27-8.52 53.6 53.6 0 0 0-28.59 5.53 50 50 0 0 0-11.24 7.9c-1.57 1.46-2.9 3.08-4.32 4.69-1.2 1.36-2.7 2.48-3.96 3.8a43.5 43.5 0 0 0-10.57 20.17 70 70 0 0 0-1.67 15.94 64 64 0 0 0 3.17 17.97c.88 2.95 5.52 1.7 4.63-1.28A65 65 0 0 1 40.47 254a61 61 0 0 1 .83-13.44c1.21-7 3.82-13.86 8.37-19.3a41 41 0 0 1 3.46-3.65c1.4-1.3 2.6-2.65 3.88-4.07a43 43 0 0 1 9.43-7.8A47 47 0 0 1 92 198.78c10.11.21 19.96 2.54 28.54 8.04 2.6 1.68 5.01-2.48 2.42-4.14m26.11 63.31a66 66 0 0 0 1.57-14.18 63 63 0 0 0-1.8-13.88 56 56 0 0 0-10.24-21.23 54 54 0 0 0-7.85-8.1 2.47 2.47 0 0 0-3.4 0 2.4 2.4 0 0 0 0 3.39c11.32 9.5 17.66 23.2 18.42 37.91a59 59 0 0 1-1.33 14.82 2.46 2.46 0 0 0 1.67 2.95 2.4 2.4 0 0 0 2.95-1.67Zm-8.32 1.78a50 50 0 0 0-2.8-13.4c-1.76-5.1-4.21-10.2-8.02-14.1a18 18 0 0 0-7.25-4.59c-2.95-.95-4.2 3.69-1.27 4.63a14 14 0 0 1 6.17 4.5 32 32 0 0 1 4.55 7.7 51 51 0 0 1 2.74 8.43q.46 1.9.76 3.83c.13.79.1.53.19 1.4q.08.8.13 1.6c.16 3.07 4.96 3.1 4.8 0" class="c"/><path d="M113.6 234.77c-.9-2.86-1.89-5.8-3.88-8.1a14 14 0 0 0-3.05-2.44 19 19 0 0 0-3.85-1.96 2.4 2.4 0 0 0-2.96 1.68 2.46 2.46 0 0 0 1.68 2.95q.15.07.32.12c-.69-.21-.28-.12-.1-.03l.78.39a26 26 0 0 1 2.75 1.71c.33.24.13.12-.06-.06a15 15 0 0 1 1.1 1.04l.16.2q.23.32.42.66a15 15 0 0 1 .78 1.5l.1.2q.12.3 0 0c-.13-.3-.09-.19 0 0l.08.23.36.94q.39 1.11.74 2.24a2.4 2.4 0 0 0 4.63-1.28Zm-12.03-.99a28 28 0 0 0-11.3-8.18 27 27 0 0 0-5.61-1.53 24 24 0 0 0-6.5-.56 2.47 2.47 0 0 0-2.4 2.4 2.4 2.4 0 0 0 2.4 2.4 19 19 0 0 1 5.37.42 40 40 0 0 1 4.04.98l.62.2c.07.02.59.22.23.08-.4-.15.5.22.48.21l.73.33 1.38.67a24 24 0 0 1 2.6 1.53 23 23 0 0 1 4.57 4.45 2.4 2.4 0 0 0 3.4 0 2.46 2.46 0 0 0 0-3.4Zm-31.85 2.07a26 26 0 0 0-10.18 2.7 19.4 19.4 0 0 0-7.28 7c-3.36 5.4-2.63 11.98-2.94 18.07a27 27 0 0 1-.47 4.36 10 10 0 0 1-.57 1.95c.17-.4-.17.27-.23.38l-.22.34c.23-.33.02-.05-.12.1-2.17 2.2 1.22 5.6 3.39 3.4 1.9-1.94 2.43-4.68 2.75-7.26.38-2.98.35-6 .45-9a26 26 0 0 1 .96-7.78q.06-.21.16-.42c-.02.04-.14.32-.02.07q.26-.53.56-1.04a18 18 0 0 1 1.39-2.15 14 14 0 0 1 2.8-2.76 19 19 0 0 1 9.57-3.16 2.46 2.46 0 0 0 2.4-2.4 2.4 2.4 0 0 0-2.4-2.4M7.32 398.33q.93-5.06 2.13-10.07c.82-3.44 1.48-7.14 2.88-10.4 2.3-5.35 5.26-10.43 9.61-14.38a52 52 0 0 1 11.14-7.28 109 109 0 0 1 12.87-5.49c7-2.54 14.13-4.74 21.26-6.92 2.94-.9 1.69-5.53-1.28-4.63-11.58 3.55-23.44 6.98-34.32 12.4a63 63 0 0 0-11.73 7.38 41 41 0 0 0-10.79 14.49 36 36 0 0 0-2.26 5.72q-.86 3.15-1.64 6.32-1.42 5.76-2.5 11.59A2.47 2.47 0 0 0 4.36 400a2.4 2.4 0 0 0 2.96-1.67m123.03-56.7c11.54 2.47 23.4 4.97 33.78 10.81a43 43 0 0 1 12.93 10.64 56 56 0 0 1 8.44 15.16 101 101 0 0 1 4.88 20.1 2.4 2.4 0 0 0 2.96 1.67 2.46 2.46 0 0 0 1.67-2.95c-1.9-12.45-5.32-24.86-12.85-35.15a45 45 0 0 0-13.03-12.1 79 79 0 0 0-17.14-7.71c-6.67-2.15-13.52-3.63-20.37-5.1-3-.66-4.3 3.97-1.27 4.62" class="c"/><path d="M116.36 364.87a92 92 0 0 0 12.84-18.8 290 290 0 0 0 2.51-4.78c.49-.94 1.22-1.96 1.07-3.06a7 7 0 0 0-1.43-2.61 38 38 0 0 0-7.73-8.38 2.45 2.45 0 0 0-3.4 0 75 75 0 0 1-11.06 10.02 69 69 0 0 1-6.23 4.08c-1.87 1.08-4.8 1.87-5.45 4.19-.75 2.7 1.02 4.4 2.67 6.16q3.12 3.32 6.27 6.6c2.14 2.23 4.27 4.5 6.55 6.58s5.69-1.3 3.4-3.4c-4-3.64-7.66-7.7-11.37-11.64q-1.12-1.18-2.23-2.38l-.65-.69c-.22-.23-.5-.4-.07-.04.11.1.03.15.06.24-.18-.54.05-.27 0-.16-.55 1.16-.68.63-.12.5a4 4 0 0 0 .75-.38q1.51-.78 2.98-1.65a71 71 0 0 0 5.86-3.86 81 81 0 0 0 12.04-10.78h-3.4a36 36 0 0 1 8.13 9.13v-2.42c-4.36 8.5-8.88 17.05-15.38 24.14-2.08 2.27 1.3 5.68 3.4 3.4" class="c"/><path d="M84.8 362.58c-7-6.63-12.1-14.79-17.06-22.98v2.42a36 36 0 0 1 7.43-9.7h-3.4a82 82 0 0 0 11.24 8.98q2.96 1.96 6.08 3.63 1.33.7 2.7 1.35.76.36 1.54.7l.77.33.58.24q.7.37.13-.07c.14.24-.32-.38-.3-.37s-.03-.37-.02-.04c.01.22.25-.37.32-.44l-.47.58q-.86 1.08-1.74 2.14-2.78 3.4-5.6 6.77c-1.82 2.19-3.64 4.4-5.6 6.46-2.13 2.24 1.26 5.64 3.4 3.4 3.97-4.18 7.55-8.77 11.2-13.23 1.27-1.57 3.16-3.3 3.28-5.42a4.3 4.3 0 0 0-.9-2.94c-.82-.98-2.08-1.3-3.2-1.81a66 66 0 0 1-6.55-3.42 75 75 0 0 1-13.46-10.23 2.46 2.46 0 0 0-3.4 0 38 38 0 0 0-7.16 8.87 10 10 0 0 0-1.26 2.37c-.35 1.26.52 2.31 1.13 3.32q1.4 2.3 2.84 4.6a93 93 0 0 0 14.08 17.89c2.24 2.12 5.64-1.27 3.4-3.4m283.29-14.33c9.41 2.67 19.13 5.52 27.16 11.32a40 40 0 0 1 14.03 19.16 41 41 0 0 1 1.88 8.28 78 78 0 0 1 .18 10.69c-.07 3.09 4.73 3.09 4.8 0a81 81 0 0 0-.11-10.04 49 49 0 0 0-1.57-8.43 43 43 0 0 0-6.14-12.8 45 45 0 0 0-8.57-9.42 54 54 0 0 0-12.28-7.25 146 146 0 0 0-18.1-6.14c-2.98-.84-4.25 3.79-1.28 4.63M69.1 262.51a9 9 0 0 1-.94.81l.49-.37a19 19 0 0 1-4.08 2.46l.58-.24a4 4 0 0 1-.59.2 2.4 2.4 0 0 0-1.68 2.95 2.45 2.45 0 0 0 2.96 1.68 9 9 0 0 0 1.79-.74q.83-.43 1.62-.92.83-.5 1.6-1.09a14 14 0 0 0 1.64-1.35 2.5 2.5 0 0 0 .7-1.7 2.4 2.4 0 0 0-.7-1.7 2.4 2.4 0 0 0-1.7-.7 2.5 2.5 0 0 0-1.7.7Zm22.4 45.88q.47-.3.95-.57.31-.18.63-.33l.33-.15c.49-.23-.52.19.01 0a18 18 0 0 1 1.9-.6q.62-.14 1.24-.24l.43-.07.62-.06a20 20 0 0 1 2.74-.06l.67.05c.06 0 .65.09.3.03l.26.05.52.11q.4.1.79.22l.41.14c.48.16-.06.08-.09-.05a7 7 0 0 0 .98.54 2.4 2.4 0 0 0 3.29-.87 2.45 2.45 0 0 0-.86-3.28c-2.58-1.7-6.03-1.94-9.01-1.68a18.6 18.6 0 0 0-8.53 2.68 2.4 2.4 0 1 0 2.42 4.14m-12.46-6.74a10 10 0 0 0-.86 2.68 16 16 0 0 0-.19 2.76 2.5 2.5 0 0 0 .7 1.7 2.4 2.4 0 0 0 4.1-1.7 13 13 0 0 1 .1-2l-.1.63a8 8 0 0 1 .54-2l-.24.57.1-.21a2 2 0 0 0 .28-.9 2 2 0 0 0-.04-.95 2.4 2.4 0 0 0-2.95-1.68 2.4 2.4 0 0 0-1.43 1.1ZM96 285.17q.33 1.12.63 2.24a20 20 0 0 1 .54 2.4l-.08-.63v.48l.09-.64-.07.29.24-.57-.1.18.37-.49-.1.1.48-.37a3 3 0 0 1-.44.25l.57-.25a3 3 0 0 1-.58.17l.64-.09a3 3 0 0 1-.61 0l.64.08-1.15-.16a2.4 2.4 0 0 0-1.7.7 2.4 2.4 0 0 0 0 3.4 2.7 2.7 0 0 0 1.7.7l.1.02-.64-.09a9 9 0 0 0 1.44.17 5 5 0 0 0 2.2-.6 3.2 3.2 0 0 0 1.64-2.09 5 5 0 0 0-.08-2.27q-.46-2.13-1.1-4.2a2.5 2.5 0 0 0-1.1-1.43 2.4 2.4 0 0 0-3.52 2.7Zm-24.15-11.83c-.67 2.47.03 8.07 4.67 8.38 6.12-.26 6.2-7.06 4.02-10.18-1.78-2.55-6.78-3.46-8.7 1.8m48.97-1.78c.84 2.42.56 8.05-4.05 8.7-6.12.19-6.7-6.6-4.75-9.86 1.59-2.68 6.5-3.95 8.8 1.16" class="c"/><path d="M376.67 304.57a4.7 4.7 0 0 0-4.12-2.51c-3.08.3-4 2.29-4.36 4.15-.14.74-.3 1.85-.4 2.74l-.06-.08a4.9 4.9 0 0 0-4.1-2.04c-2.33.22-3.84 1.98-4.4 4.74a309 309 0 0 1-4.05 16.92c.09-1.92.14-3.71.2-5.87a7 7 0 0 0-.53-2.84 2.8 2.8 0 0 0-1.9-1.68 3.6 3.6 0 0 0-3.6 1.78 13 13 0 0 0-1.03 4.18A54 54 0 0 1 345.4 336c-2.88 6.8-11.2 15.5-12.25 21.04-.58 3.09-.07 5.6.34 8.33.41 2.76 1.29 5.75 1.42 9.22.3 4.57.51 7.9.7 11.57q13.03-2.85 26-5.96c-1.41-3.77-2.45-7.5-2.18-10a23.3 23.3 0 0 1 4.75-13.85c1.09-1.52 2.09-2.9 3.02-4.25a52 52 0 0 0 3.3-5.37q.74-1.42 1.41-3c3-9.7 4.82-26.25 5.24-34.88a8.6 8.6 0 0 0-.48-4.28" class="a"/><path d="M357.83 327.9a299 299 0 0 0 3.46-14.41 18 18 0 0 1 .64-2.65l.32-.58c.05-.09.33-.47.14-.23a4 4 0 0 1 .51-.5c-.3.23.25-.13.3-.16-.39.2.83-.19.43-.14a1.7 1.7 0 0 1 1.03.12 3 3 0 0 1 .64.44 8 8 0 0 1 .73.78 2.4 2.4 0 0 0 3.4 0 2.45 2.45 0 0 0 0-3.4 7.1 7.1 0 0 0-6.94-2.58 7.5 7.5 0 0 0-5.35 5.46c-.75 2.5-1.12 5.15-1.72 7.7q-1.06 4.45-2.22 8.88c-.79 2.99 3.84 4.26 4.63 1.27" class="c"/><path d="M374.23 344.36a118 118 0 0 0 3.7-18.73 154 154 0 0 0 1.67-17.99c.05-3.45-1.51-6.42-4.86-7.64a6.8 6.8 0 0 0-8.15 3.43 13 13 0 0 0-1 4.04c-.09.6-.22 1.73-.27 2.08-.02.21-.15 1.04-.22 1.5q-.6 4.1-1.25 8.2c-.96 6.06-1.86 12.18-3.2 18.18-.68 3 3.95 4.29 4.63 1.27 1.07-4.74 1.82-9.56 2.6-14.35.8-4.99 1.7-10 2.27-15.02a20 20 0 0 1 .53-3.21 1.8 1.8 0 0 1 1.41-1.55c2.3-.7 2.75 1.88 2.7 3.43a167 167 0 0 1-1.47 16.17 116 116 0 0 1-3.72 18.91c-.9 2.97 3.73 4.23 4.63 1.28M338 386.16c-.19-3.79-.45-7.56-.68-11.34-.23-3.92-1.18-7.72-1.76-11.59a13.8 13.8 0 0 1 1.11-8.76 78 78 0 0 1 5.15-7.96 55 55 0 0 0 5.64-9.3 2.5 2.5 0 0 0-.86-3.28 2.4 2.4 0 0 0-3.29.86c-2.62 6.06-7.3 10.97-10.49 16.71a17 17 0 0 0-2.3 9.62c.26 3.93 1.4 7.72 1.84 11.61.5 4.44.62 8.97.84 13.43.15 3.07 4.95 3.1 4.8 0" class="c"/><path d="M363.92 379.57c-1.1-2.97-2.29-6.16-2.1-9.37a23 23 0 0 1 1.88-8.4c1.39-2.93 3.46-5.45 5.3-8.1a50 50 0 0 0 5-8.77 2.5 2.5 0 0 0-.86-3.29 2.4 2.4 0 0 0-3.29.87 51 51 0 0 1-5.36 9.3c-1.97 2.8-4.06 5.47-5.41 8.63a29 29 0 0 0-2.05 9.75c-.22 3.64 1.02 7.29 2.27 10.65a2.47 2.47 0 0 0 2.95 1.68 2.4 2.4 0 0 0 1.68-2.95Z" class="c"/><path d="M360.97 377.9q-13 3.1-26.04 5.95c-3.02.66-1.74 5.3 1.27 4.63q13.05-2.87 26.04-5.96c3-.72 1.74-5.35-1.27-4.63m-13.26-41.27a55 55 0 0 0 2.64-9.96 47 47 0 0 1 .76-4.63l.16-.55q.17-.43.05-.17l.24-.44q-.2.24.1-.08l.1-.09.42-.24c-.48.21.61-.22.24-.05q-.25.03.13.02-.45-.08.01.04-.3-.12.06.08-.27-.18.04.1l.08.3.2.8a25 25 0 0 1-.05 4.13q-.15 4.4-.48 8.8a2.4 2.4 0 0 0 2.4 2.4 2.45 2.45 0 0 0 2.4-2.4q.3-4 .45-8.03c.1-2.77.53-5.88-.9-8.41a5.24 5.24 0 0 0-7.88-1.34c-2.55 1.95-2.64 5.25-3.1 8.16a55 55 0 0 1-2.7 10.3 2.4 2.4 0 0 0 1.68 2.95 2.45 2.45 0 0 0 2.96-1.68Z" class="c"/><path d="M59.17 343.22a30 30 0 0 1 5.19-10.16 44 44 0 0 1 6.49-7.14c1.65-1.48 5.13-3.11 9.54-3.66a77 77 0 0 1 15.57-.47 4.2 4.2 0 0 1 4 4.15 4.1 4.1 0 0 1-3.46 3.8c-2.37.37-5.64.47-9.57 1.19-4.5.82-4.63 1.24-6.85 3.3l-.2.3c4.42-.08 9.68.18 12.02 1.24.88.4 4.07 2.26 4.87 2.81 3.73 2.58 5.67 4.46 6.83 6.87a5.5 5.5 0 0 1-.23 4.06c-.46.93-2 2.16-4.45 1.4a5.1 5.1 0 0 1 1.54 5.02 4.9 4.9 0 0 1-4.5 3.44c1 .94.45 3.44-.32 4.53-.8 1.13-3.1 1.22-4.3.79a20 20 0 0 0-3.1-.99q-.11.54-.1.55c-.25 1.22-.73 4.07-1.12 5.25-1.1 3.46-2.7 7.28-5.85 9.13a51 51 0 0 1-4.83 1.95c-1.36.64-2.58 3.76-3.3 5.95a.1.1 0 0 1-.11.06c-6.86-2.25-14.88-5-21.3-7.07a.8.8 0 0 1-.52-1.06c1.05-2.96 1.74-4.56 2.39-6.52a94 94 0 0 0 2.2-9.97c1.3-8.8 1.7-12.26 2.86-16.67q.3-1.1.61-2.08" class="a"/><path d="M74.59 337.25a66 66 0 0 1 9.59-.28 36 36 0 0 1 4.36.37 20 20 0 0 1 2.27.57q.37.17.73.37a34 34 0 0 1 7.9 5.5c.9.89 2.04 2.06 2.05 3.33a3 3 0 0 1-.2 1.16c-.15.43.25-.08-.14.24.15-.13-.28.16-.4.2a2 2 0 0 1-.93-.04c-3.01-.67-4.3 3.96-1.28 4.62a6.4 6.4 0 0 0 5.82-1.22 6.6 6.6 0 0 0 1.92-4.77c.16-3.56-2.76-6.53-5.34-8.6a41 41 0 0 0-7.7-4.94c-2.61-1.26-5.7-1.43-8.56-1.57a66 66 0 0 0-10.1.26 2.47 2.47 0 0 0-2.4 2.4 2.4 2.4 0 0 0 2.4 2.4" class="c"/><path d="M80.95 346.34c5.2.03 9.5 1.85 13.85 4.52q.7.43 1.38.9c.09.06.57.42.45.32-.14-.1.3.26.37.31a3.4 3.4 0 0 1 1.2 1.98 2.4 2.4 0 0 1-.13 1.17q-.08.24.07-.13l-.15.27c-.04.06-.38.54-.24.38a3 3 0 0 1-.7.55 3 3 0 0 1-1.1.36 2.47 2.47 0 0 0-2.4 2.4 2.4 2.4 0 0 0 2.4 2.4c3.06-.3 6-2.07 6.81-5.2.93-3.6-.96-6.6-3.76-8.66a31.3 31.3 0 0 0-18.06-6.37c-3.1-.02-3.1 4.78 0 4.8Z" class="c"/><path d="m82.71 356.04.09.01.35.05a34 34 0 0 1 2.55.49 22 22 0 0 1 2.36.71l.33.13c.11.04.5.21.21.08a27 27 0 0 1 5.23 3.23l.26.2.17.13c.1.06.32.45-.13-.17.05.07.2.25 0-.03-.2-.25-.05-.1-.02.06.06.25-.04-.25-.03-.26v.66c0 .35.07-.05.03-.13l-.05.26-.16.57-.08.24c-.07.3.23-.38.06-.13l-.1.2c-.06.12-.28.33-.03.1s.06-.08 0-.02c-.3.32.12-.13.14-.1l-.2.11c-.27.15.44-.1.13-.05-.18.02-.39.1-.57.15-.12.02-.29-.03-.02 0 .36.04-.12 0-.2 0l-.59-.02c-.26.02.22.01.24.04l-.3-.05a8 8 0 0 1-.95-.32 16 16 0 0 0-3.78-.96 6.2 6.2 0 0 0-3.95 1.03 2.4 2.4 0 0 0 2.43 4.15c.1-.07.81-.43.36-.24.12-.05.63-.3.74-.23.03.02-.6-.03-.15.04l.46.04c-.11-.02-.43-.09.04.01l.55.13c.97.24 1.87.68 2.83.94 2.36.63 5.37.13 6.78-2.03 1.2-1.83 1.68-4.77.46-6.7a7 7 0 0 0-1.85-1.68q-.8-.6-1.62-1.18a24 24 0 0 0-2.92-1.75 28 28 0 0 0-9.1-2.5 2.4 2.4 0 0 0-2.4 2.4 2.47 2.47 0 0 0 2.4 2.4Z" class="c"/><path d="M62.28 331.85c-8.15 10.64-7.25 24.48-10.45 36.86a45 45 0 0 1-1.3 4.4 33 33 0 0 0-1.8 5.04c-.53 2.8 2.07 3.62 4.18 4.31l5.77 1.91 11.97 4c1.14.38 2.32.93 3.48.3 1.02-.56 1.25-1.64 1.62-2.65a17 17 0 0 1 .85-1.99q.28-.53.6-1.02c.19-.31.1-.15.08-.11.2-.27.05-.11.17-.19a20 20 0 0 1 2.99-1.1 12 12 0 0 0 2.84-1.5 14 14 0 0 0 4.01-4.88 37 37 0 0 0 3.15-10.34 2.46 2.46 0 0 0-1.67-2.95 2.4 2.4 0 0 0-2.96 1.68c-.78 4.16-1.54 9.05-4.76 12.12-1.93 1.85-4.96 1.68-6.89 3.48-1.81 1.69-2.67 4.4-3.44 6.68l1.1-1.43-.12.05 1.85-.24-10.8-3.6-5.32-1.77-2.45-.8a14 14 0 0 1-2.44-.82l.86.86-.04.01v1.28a26 26 0 0 1 1.75-4.9 43 43 0 0 0 1.26-4.22 101 101 0 0 0 2.1-10.87c.8-5.54 1.5-11.12 3.3-16.45a30 30 0 0 1 4.66-8.71 2.4 2.4 0 0 0-.86-3.29 2.46 2.46 0 0 0-3.29.86Z" class="c"/><path d="M66.43 334.28a44 44 0 0 1 4.34-5.01 13 13 0 0 1 4.22-3.1c4.12-1.89 9.05-2.03 13.51-2.15a76 76 0 0 1 5.86.08c1.2.06 2.5-.12 3.07 1.12.62 1.38-.83 2.1-1.82 2.25-2.2.31-4.41.43-6.6.73a27 27 0 0 0-6.73 1.46 13 13 0 0 0-3.9 2.88c-2.26 2.11 1.14 5.5 3.4 3.39l.96-.9a5 5 0 0 0 .55-.5 5 5 0 0 1 1.48-.67 42 42 0 0 1 7.34-1.23c2.2-.22 4.75-.15 6.75-1.18a6.3 6.3 0 0 0 3.36-6.86 6.6 6.6 0 0 0-4.55-4.9c-2-.64-4.48-.47-6.55-.49a77 77 0 0 0-7.88.35 35 35 0 0 0-8.42 1.55c-5.46 1.93-9.15 6.24-12.54 10.76a2.4 2.4 0 0 0 .86 3.28 2.46 2.46 0 0 0 3.29-.86" class="c"/></svg>
