<svg xmlns="http://www.w3.org/2000/svg" viewBox="0 -12.36 424.806 424.806"><defs><style>.a{fill:#a98a75}.b{fill:#fff}.c{fill:#211715}</style></defs><path d="M373.23 353.9c8.74 3.7 19.34-1.19 22.72-9.92 2.77-7.15.4-16.78-1.34-24.25a142 142 0 0 1-3.18-39c.7-7.6.69-16.65.63-20.44-.17-13.15-5.22-28.11-13.22-36.73-3.2-3.43-4.27-5.15-7.44-7.26l-3.67-2.44-3.68-1.75a62 62 0 0 0-24.43-6.17c-17.01-1-32.67 6.9-39.77 12.94-11.77 10.02-19.97 29.1-20.64 56.05-1.06 18.22-3.32 31.27-5.85 38.62a88 88 0 0 0-3.78 18.67c-.5 7.54 7.3 18.5 20.63 17.08Z" class="a"/><path d="m382.15 303.54.61-.4c3.76-2.7 5.5-6.7 6.57-9.3 1.51-3.7 1.97-9.78.27-13.2a6.3 6.3 0 0 0-5.41-3.47 6.7 6.7 0 0 0-4.98 1.48c-7.12-2.64-14.82-10.75-19.1-20.1-1.73-3.77-3.52-11.42-4.74-17.55a57.7 57.7 0 0 1-29.94 19.24 4 4 0 0 1-2.41-.03c-.88-.48-1.1-.9-.96-2.09.36-2.94 1.83-7.76 2.33-10.6-10.37 9.07-21.9 18.73-31.82 25.25a7 7 0 0 0-4.2-1.55 6.3 6.3 0 0 0-5.8 2.77c-2.11 3.18-2.4 9.28-1.36 13.13.74 2.72 1.97 6.9 5.36 10.04a7.3 7.3 0 0 0 6.1 1.94 51 51 0 0 0 8.57 18.92 39 39 0 0 0 11.92 11.2c-.01 1.79.02 2.75-.17 5.33a14 14 0 0 1-.68 4.02 10 10 0 0 1-2.95 4.28c-2.99 2.41-6.07 3.57-9.85 5l-3.54 1.38c9.27 5.19 26.58 9.74 39.78 9.69A91.5 91.5 0 0 0 375 349.2l-3.46-1.36c-3.78-1.42-6.86-2.58-9.85-4.99a10 10 0 0 1-2.95-4.28 14 14 0 0 1-.68-4.02c-.21-2.86-.15-3.73-.18-5.93 8.27-5.92 14.79-15.86 16.21-19.1a44 44 0 0 0 2.31-5.24 7 7 0 0 0 5.75-.74" class="b"/><path d="M374.08 303.68a48 48 0 0 1-6.48 11.73 50 50 0 0 1-11.71 11.7 21 21 0 0 1-8.44 3.6 2.4 2.4 0 0 0-1.67 2.94 2.46 2.46 0 0 0 2.95 1.68c6.23-1.04 11.67-5.1 16.07-9.42a63 63 0 0 0 10.15-12.86 52 52 0 0 0 3.77-8.1 2.4 2.4 0 0 0-1.68-2.95 2.45 2.45 0 0 0-2.96 1.68m-84.37-7.3a54 54 0 0 0 6.88 18.97c3.56 5.96 8.33 11.55 14.24 15.28a30 30 0 0 0 9.88 4c3.01.63 4.3-4 1.28-4.63-7.56-1.6-13.48-6.38-18.1-12.41a50 50 0 0 1-9.56-22.47 2.4 2.4 0 0 0-2.95-1.68 2.46 2.46 0 0 0-1.67 2.95Zm38.53 17.11.44-.2c.35-.16-.17.1-.24.1l.32-.12a12 12 0 0 1 1.4-.43l.94-.2c.46-.08-.29.03.03 0l.52-.05a19 19 0 0 1 2.67-.03q.64.04 1.27.1l.8.15a13 13 0 0 1 1.87.53c.08-.02.25.11.32.14l.61.34.45.29c.47.3-.49-.42 0 0a2.4 2.4 0 0 0 3.39-3.4c-2.33-2.02-5.43-2.74-8.44-2.94a18 18 0 0 0-8.78 1.58 2.4 2.4 0 0 0-.86 3.28 2.47 2.47 0 0 0 3.29.86m4.43-22.39q-.63 1.93-1.1 3.9a6 6 0 0 0-.2 1.58 3.3 3.3 0 0 0 1.51 2.67 5 5 0 0 0 2.19.7 6 6 0 0 0 1.43-.13l-.64.08.2-.02a2.6 2.6 0 0 0 1.7-.7 2.4 2.4 0 0 0 0-3.4 2.4 2.4 0 0 0-1.7-.7l-1 .14.64-.09a3 3 0 0 1-.7.01l.63.09a2 2 0 0 1-.46-.13l.57.24a3 3 0 0 1-.5-.28l.49.38-.1-.1.37.48-.1-.17.24.57-.05-.2.09.64a2 2 0 0 1 0-.53l-.08.64a19 19 0 0 1 .55-2.27q.3-1.06.64-2.12a2.4 2.4 0 0 0-1.68-2.95 2.45 2.45 0 0 0-2.95 1.67Zm-20.03-12.3c-.85 2.26-.72 7.62 3.64 8.34 5.8.33 6.51-6.1 4.75-9.24-1.45-2.58-6.08-3.9-8.38.9m46.45 2.87c.57 2.36-.23 7.66-4.65 7.84-5.8-.39-5.7-6.85-3.56-9.76 1.75-2.38 6.51-3.12 8.2 1.92" class="c"/><path d="M380.9 280.35a4.7 4.7 0 0 1 4.16-.58 3.4 3.4 0 0 1 1.86 1.12c.4.4-.1-.2.16.2 1.5 2.21 1.39 5.46 1.03 8a20.5 20.5 0 0 1-2.94 7.85c-1.52 2.52-4.27 5.84-7.6 5.19a2.46 2.46 0 0 0-2.94 1.67 2.4 2.4 0 0 0 1.67 2.95c7.93 1.56 13.02-6.15 15.46-12.57 2.04-5.35 2.5-13.95-2.67-17.73a9.7 9.7 0 0 0-11.58.5 2.4 2.4 0 0 0 0 3.4 2.46 2.46 0 0 0 3.4 0m-86.07-8.74a9.7 9.7 0 0 0-10.56-2.02 9.5 9.5 0 0 0-5.13 6.21c-1.97 6.14-.73 13.34 2.44 18.86 2.2 3.84 5.9 7.25 10.61 6.92a2.46 2.46 0 0 0 2.4-2.4 2.4 2.4 0 0 0-2.4-2.4c-3.65.25-5.97-3.18-7.3-6.16a21 21 0 0 1-1.86-7.9 18 18 0 0 1 .45-4.64 11 11 0 0 1 .57-1.8 10 10 0 0 1 .6-1.07c.05-.1.4-.5.05-.1a3.7 3.7 0 0 1 2.72-1.47 4.7 4.7 0 0 1 4.01 1.36c2.17 2.2 5.57-1.19 3.4-3.4Z" class="c"/><path d="M353.16 242.17c1.63 8 3.4 16 7.8 23 4.2 6.66 10.11 12.95 17.61 15.8a2.4 2.4 0 0 0 2.95-1.68 2.45 2.45 0 0 0-1.67-2.95c-6.5-2.47-11.68-8.53-15.19-14.32-3.86-6.37-5.38-13.76-6.87-21.12a2.4 2.4 0 0 0-4.63 1.27" class="c"/><path d="M353.63 239.36A58 58 0 0 1 334 254.64a52 52 0 0 1-5.7 2.26q-1.54.52-3.1.93a10 10 0 0 1-1.15.18c.08-.19.35.79.38.8-.39-.18.89-4.64 1.03-5.2.44-1.81.93-3.61 1.26-5.45a2.42 2.42 0 0 0-4-2.33c-8.32 7.26-16.74 14.45-25.68 20.94a2.47 2.47 0 0 0-.86 3.29 2.4 2.4 0 0 0 3.29.86c9.26-6.74 18.01-14.16 26.64-21.7l-4.01-2.33c-.62 3.36-1.73 6.62-2.26 10-.3 1.97-.28 3.82 1.49 5.08 1.72 1.22 3.83.85 5.73.32a60 60 0 0 0 20.57-10.44 62 62 0 0 0 9.4-9.1 2.47 2.47 0 0 0 0-3.4 2.4 2.4 0 0 0-3.4 0Zm35.4 41.36a149 149 0 0 0 3.48 40.58c2.22 9.47 5.3 22.27-4.38 28.72a15.1 15.1 0 0 1-14.26 1.56 2.4 2.4 0 0 0-2.95 1.68 2.46 2.46 0 0 0 1.67 2.95c10.24 4.2 22.48-1.99 25.93-12.3 1.99-5.94 1.01-12.59-.2-18.58-1.36-6.75-3.05-13.37-3.8-20.24a159 159 0 0 1-.69-24.36c.14-3.1-4.66-3.09-4.8 0Z" class="c"/><path d="M370.2 218.37a23 23 0 0 1 4.22 3.86c1.49 1.66 3.06 3.28 4.44 5.03a46 46 0 0 1 6.37 11.35 65 65 0 0 1 3.78 13.84 75 75 0 0 1 .67 11.98 193 193 0 0 1-.65 16.3 2.4 2.4 0 0 0 2.4 2.4 2.45 2.45 0 0 0 2.4-2.4c.45-5.07.61-10.17.65-15.26a89 89 0 0 0-.64-12.9c-1.32-9.58-4.64-19.4-10.45-27.22-1.63-2.2-3.51-4.2-5.34-6.25a29 29 0 0 0-5.43-4.87c-2.57-1.73-4.97 2.42-2.43 4.15Zm-4.94-8.34a68 68 0 0 0-26.99-6.55A62.5 62.5 0 0 0 309.4 210a48 48 0 0 0-16.73 12.82 64 64 0 0 0-10.73 20.19 110 110 0 0 0-5.14 31.9c-.08 3.1 4.72 3.1 4.8 0 .43-16.2 3.47-33.46 13.1-46.9a42 42 0 0 1 13.99-12.24 59 59 0 0 1 25.35-7.46 60.6 60.6 0 0 1 28.8 5.86 2.47 2.47 0 0 0 3.28-.86 2.4 2.4 0 0 0-.86-3.29Z" class="c"/><path d="M276.8 274.93a241 241 0 0 1-2.2 22.22 95 95 0 0 1-3.31 15.05 88 88 0 0 0-4.02 18.93 18.2 18.2 0 0 0 4.77 13.65 21.3 21.3 0 0 0 18.18 6.92 2.47 2.47 0 0 0 2.4-2.4 2.4 2.4 0 0 0-2.4-2.4 16.9 16.9 0 0 1-14.22-4.89 16 16 0 0 1-3.3-5.22 11.3 11.3 0 0 1-.62-5.83 83 83 0 0 1 3.83-17.48 93 93 0 0 0 3.18-14.18 248 248 0 0 0 2.51-24.37c.18-3.09-4.62-3.08-4.8 0m80.87-1.88a20 20 0 0 0 2.25 2.62 16 16 0 0 0 1.53 1.27 6 6 0 0 0 1.54.81 2 2 0 0 0 .96.04 2 2 0 0 0 .89-.28 2.4 2.4 0 0 0 .86-3.29l-.37-.48a2.4 2.4 0 0 0-1.06-.62l-.07-.03.57.24a5 5 0 0 1-1.02-.63l.48.37a15 15 0 0 1-2.58-2.65l.37.49-.2-.28a2.7 2.7 0 0 0-1.44-1.1 2.5 2.5 0 0 0-1.85.24 2.4 2.4 0 0 0-1.1 1.44 2.4 2.4 0 0 0 .24 1.85Z" class="c"/><path d="M310.77 329.77q0 1.88-.1 3.74a14 14 0 0 1-.67 4.44c-1.1 2.78-3.6 4.3-6.2 5.57-3.24 1.58-6.76 2.74-10.12 4.06a2.47 2.47 0 0 0-1.68 2.95 2.4 2.4 0 0 0 2.96 1.68c4.03-1.59 8.29-2.94 12.11-4.97a21 21 0 0 0 4.47-3.1 13 13 0 0 0 2.97-4.63c1.18-2.97 1.04-6.57 1.05-9.74.02-3.08-4.78-3.09-4.8 0Zm44.72 0c.02 3.17-.13 6.77 1.06 9.74a13 13 0 0 0 2.97 4.64 21 21 0 0 0 4.47 3.09c3.82 2.03 8.08 3.38 12.11 4.97a2.4 2.4 0 0 0 2.95-1.68 2.46 2.46 0 0 0-1.67-2.95c-3.37-1.32-6.89-2.48-10.13-4.06-2.58-1.26-5.1-2.8-6.2-5.57a15 15 0 0 1-.66-4.45q-.1-1.86-.1-3.73c-.02-3.08-4.82-3.1-4.8 0" class="c"/><path d="M330.43 397.7h83.3q.08-3.98.08-7.8c-.83-14.06-6.84-22.09-12.48-28.28-6.46-6.35-14.33-10-24.66-13.3a91 91 0 0 1-40.91 10.61c-13.48.06-31.25-4.7-40.37-10.01q-.25-.15-1.07.1l-2.4.68c-12.3 4.01-24 7.64-31.27 18.57-4.7 7.08-8.55 18.78-10.8 29.44z" style="fill:#f8b8b4"/><path d="M252.16 398.34a127 127 0 0 1 4.34-15.65 61 61 0 0 1 5.95-12.79c4.87-7.55 12.77-11.8 21-14.82 5.04-1.84 10.18-3.36 15.24-5.13a2.46 2.46 0 0 0 1.67-2.95 2.4 2.4 0 0 0-2.95-1.68c-9.14 3.2-18.83 5.54-27.16 10.64a38 38 0 0 0-10.77 9.81 56 56 0 0 0-6.73 13.23 122 122 0 0 0-5.22 18.06c-.64 3.01 3.99 4.3 4.63 1.28" class="c"/><path d="M373.83 347.12a87 87 0 0 1-31.8 9.12c-10.57.93-21.15-.68-31.28-3.67a65 65 0 0 1-14.15-5.73c-2.68-1.55-5.1 2.6-2.42 4.14a67 67 0 0 0 13.25 5.6 104 104 0 0 0 16.18 3.76 78 78 0 0 0 16.62.84 93 93 0 0 0 18.26-3.1 90 90 0 0 0 17.76-6.82c2.75-1.41.32-5.56-2.42-4.14" class="c"/><path d="M368.08 348.25c9.41 2.67 19.14 5.52 27.17 11.32a40 40 0 0 1 14.03 19.16 41 41 0 0 1 1.88 8.28 76 76 0 0 1 .17 10.69c-.08 3.09 4.72 3.08 4.8 0 .16-6.27.07-12.4-1.67-18.47a43 43 0 0 0-6.14-12.8 45 45 0 0 0-8.57-9.41 54 54 0 0 0-12.28-7.26 146 146 0 0 0-18.11-6.14c-2.98-.84-4.25 3.79-1.28 4.63" class="c"/><path d="M378.73 304.57a4.7 4.7 0 0 0-4.12-2.51c-3.07.3-4 2.29-4.35 4.15-.14.74-.3 1.85-.4 2.74l-.06-.08a4.9 4.9 0 0 0-4.1-2.04c-2.33.22-3.84 1.98-4.4 4.74a308 308 0 0 1-4.05 16.92c.08-1.92.13-3.71.2-5.87a7 7 0 0 0-.53-2.84 2.8 2.8 0 0 0-1.89-1.68 3.6 3.6 0 0 0-3.6 1.78 13 13 0 0 0-1.04 4.18 54 54 0 0 1-2.92 11.94c-2.89 6.8-11.21 15.5-12.25 21.04-.58 3.09-.08 5.6.33 8.33.42 2.76 1.3 5.75 1.43 9.22.3 4.57.5 7.9.7 11.57q13.03-2.85 26-5.96c-1.42-3.77-2.45-7.5-2.19-10a23.2 23.2 0 0 1 4.75-13.85c1.1-1.52 2.1-2.9 3.02-4.25a52 52 0 0 0 3.3-5.37q.75-1.42 1.42-3c2.99-9.7 4.81-26.25 5.24-34.88a8.6 8.6 0 0 0-.49-4.28" class="b"/><path d="M359.9 327.9c1.25-4.78 2.44-9.58 3.46-14.41a18 18 0 0 1 .64-2.65l.31-.58c.05-.09.34-.47.14-.23a4 4 0 0 1 .52-.5c-.3.23.24-.13.3-.16-.4.2.83-.19.43-.14a1.7 1.7 0 0 1 1.03.12 3 3 0 0 1 .64.44 8 8 0 0 1 .73.78 2.4 2.4 0 0 0 3.4 0 2.45 2.45 0 0 0 0-3.4 7.1 7.1 0 0 0-6.94-2.58 7.5 7.5 0 0 0-5.35 5.46c-.75 2.5-1.13 5.15-1.73 7.7q-1.05 4.45-2.22 8.88c-.78 2.99 3.85 4.26 4.63 1.27Z" class="c"/><path d="M376.3 344.36a118 118 0 0 0 3.7-18.73 154 154 0 0 0 1.66-17.99c.06-3.45-1.5-6.42-4.86-7.64a6.8 6.8 0 0 0-8.14 3.43 13 13 0 0 0-1 4.04c-.1.6-.23 1.73-.27 2.08-.02.21-.15 1.04-.22 1.5q-.6 4.1-1.25 8.2c-.96 6.06-1.86 12.18-3.2 18.18-.68 3 3.95 4.29 4.63 1.27 1.06-4.74 1.81-9.56 2.59-14.35.8-4.99 1.71-10 2.28-15.02a20 20 0 0 1 .53-3.21 1.8 1.8 0 0 1 1.4-1.55c2.3-.7 2.76 1.88 2.7 3.43-.16 5.4-.77 10.82-1.46 16.17a116 116 0 0 1-3.72 18.91c-.9 2.97 3.73 4.23 4.63 1.28m-36.23 41.8c-.18-3.79-.44-7.56-.67-11.34-.24-3.92-1.18-7.72-1.76-11.59a13.8 13.8 0 0 1 1.1-8.76 78 78 0 0 1 5.16-7.96 55 55 0 0 0 5.64-9.3 2.5 2.5 0 0 0-.87-3.28 2.4 2.4 0 0 0-3.28.86c-2.62 6.06-7.3 10.97-10.49 16.71a17 17 0 0 0-2.3 9.62c.25 3.93 1.4 7.72 1.84 11.61.5 4.44.61 8.97.83 13.43.15 3.07 4.95 3.1 4.8 0" class="c"/><path d="M365.99 379.57c-1.11-2.97-2.3-6.16-2.1-9.37a23 23 0 0 1 1.87-8.4c1.4-2.93 3.46-5.45 5.3-8.1a50 50 0 0 0 5-8.77 2.5 2.5 0 0 0-.86-3.29 2.4 2.4 0 0 0-3.28.87 51 51 0 0 1-5.37 9.3c-1.96 2.8-4.06 5.47-5.4 8.63a29 29 0 0 0-2.05 9.75c-.22 3.64 1.01 7.29 2.27 10.65a2.47 2.47 0 0 0 2.95 1.68 2.4 2.4 0 0 0 1.67-2.95" class="c"/><path d="M363.04 377.9q-13 3.1-26.04 5.95c-3.02.66-1.74 5.3 1.27 4.63q13.05-2.87 26.04-5.96c3-.72 1.73-5.35-1.27-4.63m-13.26-41.27a55 55 0 0 0 2.64-9.96 47 47 0 0 1 .76-4.63l.21-.72.24-.44q-.2.24.09-.08l.1-.09.43-.24c-.49.21.6-.22.24-.05q-.25.03.12.02-.45-.08.02.04-.3-.12.06.08-.28-.18.03.1l.08.3.22.8a25 25 0 0 1-.07 4.13q-.14 4.4-.47 8.8a2.4 2.4 0 0 0 2.4 2.4 2.45 2.45 0 0 0 2.4-2.4q.3-4 .45-8.03c.1-2.77.53-5.88-.9-8.41a5.24 5.24 0 0 0-7.88-1.34c-2.56 1.95-2.64 5.25-3.1 8.16a55 55 0 0 1-2.7 10.3 2.4 2.4 0 0 0 1.68 2.95 2.45 2.45 0 0 0 2.95-1.68Z" class="c"/><path d="M139.38 266.15a7 7 0 0 1 5.06-2.08 6.6 6.6 0 0 1 6.04 3.06c2.14 3.4 2.3 9.83 1.1 13.86-.84 2.85-2.24 7.21-5.9 10.45a7.8 7.8 0 0 1-5.96 1.97l-.58-.08a46 46 0 0 1-1.86 5.71c-1.37 4.2-9.21 19-19.64 25.16a44 44 0 0 0 1.06 8.26 7.2 7.2 0 0 0 3.35 4.43c2.46 1.64 7.4 2.88 11.37 3.57l-.12.12c-7.38 7.98-21.24 12.4-35.6 13-14.65.52-30.18-3.52-36.9-10.67 3.42-1.01 7.57-2.02 10.4-3.74a9.3 9.3 0 0 0 3.6-5.44 68 68 0 0 0 .06-7.91 42 42 0 0 1-13.03-10.19 54 54 0 0 1-10.98-18.91 7.7 7.7 0 0 1-6.59-1.39c-3.89-2.94-5.62-7.18-6.68-9.96-1.5-3.92-1.84-10.34.04-13.9a6.6 6.6 0 0 1 5.79-3.52 7 7 0 0 1 5.2 1.69s-6.21-48.6 45.72-48.6c45.4 0 45.05 45.1 45.05 45.1" class="b"/><path d="M144.76 229.35c-2.51-6.78-6.43-12.71-11.94-16.8l-6.28-6.1c-7.2-8.75-18.5-13.22-34.42-13.3-20.7.09-35.62 9.93-42.04 18.8l1.44 1.39c-13.56 12.71-17.82 34.68-10.23 55.02a9 9 0 0 1 2.12-.4 7 7 0 0 1 5.2 1.67l7.02-6.37c5.2-6.27 14.46-15.79 21.07-19.58.78-.45 1.81.08 2.18 1.39a9 9 0 0 1 .33 3.15 1.65 1.65 0 0 0 2.42 1.68c4.71-2.86 13.08-8.57 19.06-11.37l9.06.76a29 29 0 0 1 8.51 4.91c5.66 4.5 11.15 10.76 13.7 16.52l7.42 5.43a7 7 0 0 1 5.06-2.08 9 9 0 0 1 2.4.32c2.37-11.13 1.94-24.18-2.08-35.04" style="fill:#85807f"/><path d="M43.51 267.48c-5.08-13.95-5.04-30.12 2.46-43.23a40 40 0 0 1 7.25-9.21c2.25-2.13-1.15-5.52-3.4-3.4-11.53 10.91-16.1 27.52-14.27 43.03a63 63 0 0 0 3.34 14.09 2.46 2.46 0 0 0 2.95 1.68 2.4 2.4 0 0 0 1.67-2.96m88.09-52.85c11.11 8.31 14.52 23.88 14.28 37.01a65 65 0 0 1-1.3 11.85 2.46 2.46 0 0 0 1.68 2.96 2.4 2.4 0 0 0 2.95-1.68c3.04-14.82 1.87-32.12-6.58-45.08a36 36 0 0 0-8.6-9.2 2.4 2.4 0 0 0-3.3.85 2.46 2.46 0 0 0 .87 3.29" class="c"/><path d="M50.3 267.94a10.15 10.15 0 0 0-11.19-1.25 9.7 9.7 0 0 0-4.73 6.84 25.4 25.4 0 0 0 4.5 19.64c2.9 3.96 7 6.87 12.12 5.98a2.4 2.4 0 0 0 1.67-2.95 2.45 2.45 0 0 0-2.95-1.67c-3.5.6-6.33-2.95-7.88-5.6a22 22 0 0 1-2.97-8.42c-.32-2.78-.34-6.12 1.23-8.52l-.06.08.3-.34c.08-.08.61-.56.46-.45a5 5 0 0 1 1.7-.77 5 5 0 0 1 4.42.82 2.47 2.47 0 0 0 3.39 0 2.4 2.4 0 0 0 0-3.4Zm90.78-.1a5.06 5.06 0 0 1 7.15.23c-.35-.4.11.18.17.27a7 7 0 0 1 .58 1.08 12 12 0 0 1 .57 1.98 19 19 0 0 1 .35 5.03 22 22 0 0 1-2.29 8.43c-1.53 3.1-4.03 6.52-7.89 6.15a2.4 2.4 0 0 0-2.4 2.4 2.45 2.45 0 0 0 2.4 2.4c7.99.76 12.5-8 14.26-14.48a24 24 0 0 0 .27-10.86 11 11 0 0 0-4.47-7.37 10.05 10.05 0 0 0-12.1 1.35c-2.22 2.16 1.18 5.55 3.4 3.4" class="c"/><path d="M137.55 289.33a44 44 0 0 1-1.42 5.79 44 44 0 0 1-.95 2.78c-.18.47.27-.72-.1.22l-.27.74-.17.45-.12.29c-.12.3.19-.44.06-.13a51 51 0 0 1-2.3 4.6 57 57 0 0 1-11.6 14.94 22.5 22.5 0 0 1-8.82 5.08c-2.97.8-1.71 5.44 1.28 4.63 6.91-1.88 12.5-7.14 16.83-12.62a64 64 0 0 0 9.15-15.16l.38-1.01c-.17.48.13-.33.22-.54l.22-.57q.26-.7.5-1.43a45 45 0 0 0 1.74-6.78 2.47 2.47 0 0 0-1.68-2.95 2.4 2.4 0 0 0-2.95 1.67M47.5 293.9a57 57 0 0 0 8.7 18.55c4.39 6.08 10.04 11.75 16.82 15.13a33 33 0 0 0 11.38 3.3 2.4 2.4 0 0 0 2.4-2.4 2.46 2.46 0 0 0-2.4-2.4c-13.23-1.45-23.56-13-28.98-24.4a53 53 0 0 1-3.3-9.06c-.8-2.98-5.43-1.71-4.63 1.28Zm43.85 12.23 1-.54c.1-.06.48-.31.6-.28l-.02.01.39-.14a15 15 0 0 1 1.96-.51l.68-.12c-.35.06.08 0 .21-.02q.75-.08 1.5-.11a19 19 0 0 1 2.7.07c.2.02.5.08.13.01l.6.11.9.21q.44.13.83.28c.42.14.02-.07-.1-.06a1 1 0 0 1 .34.16 7 7 0 0 1 .96.58 2.4 2.4 0 0 0 3.28-.86 2.46 2.46 0 0 0-.86-3.29c-2.45-1.76-5.86-2.12-8.78-2.01a18.6 18.6 0 0 0-8.74 2.36 2.4 2.4 0 1 0 2.42 4.15m4.46-22.9q.34 1.12.63 2.25a20 20 0 0 1 .55 2.4l-.08-.63a2 2 0 0 1 0 .48l.1-.64-.08.29.24-.57-.1.18.37-.49-.1.1.49-.37a3 3 0 0 1-.45.25l.58-.25a3 3 0 0 1-.58.17l.64-.08a3 3 0 0 1-.62 0l.64.08q-.57-.09-1.15-.16a2.4 2.4 0 0 0-1.7.7 2.4 2.4 0 0 0 0 3.4 2.7 2.7 0 0 0 1.7.7h.1l-.63-.08a9 9 0 0 0 1.44.17 5 5 0 0 0 2.2-.6 3.2 3.2 0 0 0 1.63-2.09 5 5 0 0 0-.09-2.27q-.46-2.13-1.1-4.2a2.5 2.5 0 0 0-1.1-1.44 2.4 2.4 0 0 0-3.52 2.71Zm-24.17-11.76c-.66 2.47.04 8.07 4.69 8.37 6.11-.27 6.18-7.08 4-10.2-1.79-2.54-6.79-3.44-8.7 1.83m48.97-1.88c.84 2.41.57 8.05-4.04 8.7-6.12.2-6.7-6.58-4.77-9.85 1.59-2.68 6.5-3.96 8.8 1.15m-50.02-12.67a11 11 0 0 1-1.38 1.23l.49-.38a17 17 0 0 1-3.6 2.26l.58-.24-.38.13a2.5 2.5 0 0 0-1.43 1.1 2.4 2.4 0 0 0 2.7 3.53 12 12 0 0 0 3.3-1.74q1.02-.69 1.97-1.46a10 10 0 0 0 1.14-1.04 2.5 2.5 0 0 0 .7-1.7 2.5 2.5 0 0 0-.7-1.7 2.4 2.4 0 0 0-3.39 0Z" class="c"/><path d="M72.46 325.79a76 76 0 0 1 0 7.33l-.04.48c.11-.65-.13.25-.17.37a7.5 7.5 0 0 1-1.62 2.59 5 5 0 0 1-.56.51c.3-.23-.43.24-.5.28a17 17 0 0 1-2.86 1.26q-.93.33-1.88.62c-2.3.72-4.66 1.3-6.95 2.1a2.46 2.46 0 0 0-1.67 2.96 2.4 2.4 0 0 0 2.95 1.67c2.55-.9 5.2-1.51 7.76-2.36 2.55-.83 5.43-1.81 7.29-3.84a11.4 11.4 0 0 0 3.09-7.4q.14-3.3-.04-6.58a2.45 2.45 0 0 0-2.4-2.4 2.4 2.4 0 0 0-2.4 2.4Zm63.74 12.69-.23-.03-.7-.1-1.61-.27q-1.6-.3-3.2-.66a45 45 0 0 1-4.78-1.4l-.69-.27c.37.15-.22-.1-.28-.13-1.6-.75-3.05-1.74-3.55-3.23a30 30 0 0 1-1.1-7.68 2.45 2.45 0 0 0-2.4-2.4 2.4 2.4 0 0 0-2.4 2.4c.19 3.02.34 6.35 1.36 9.23a10.5 10.5 0 0 0 5.27 5.63c4.37 2.22 9.48 3.1 14.3 3.7a2.4 2.4 0 0 0 2.4-2.4 2.46 2.46 0 0 0-2.4-2.4Zm-27.08-96.87a36 36 0 0 1 11.68 8.02 41 41 0 0 1 9.09 12.3 2.4 2.4 0 0 0 3.28.86 2.46 2.46 0 0 0 .86-3.28 45 45 0 0 0-10.12-13.54 41 41 0 0 0-13.52-8.99 2.4 2.4 0 0 0-2.95 1.68 2.46 2.46 0 0 0 1.68 2.95m-51.8 23.35c5.17-6.2 10.93-12.36 17.47-17.14q1.04-.77 2.11-1.46c.16-.1.97-.45 1.01-.6-.04.15-1.47.14-1.35-.1.01-.02.07.3.07.27a11 11 0 0 0 .2 1.22c.02.47-.04.94-.01 1.4a4.3 4.3 0 0 0 1.93 3.36c2.04 1.3 3.94.16 5.71-.95l4.94-3.13a117 117 0 0 1 12.5-7.23 2.4 2.4 0 0 0 .86-3.28 2.45 2.45 0 0 0-3.28-.86 107 107 0 0 0-11.18 6.4l-5.15 3.27-2.26 1.4-.47.3c0-.26 1 .12 1.02.13.09.02.07.32.18.26s.02-.8.02-.89c-.05-2.28-.72-5.18-3.17-5.99-2.01-.67-3.72.65-5.3 1.75a80 80 0 0 0-9.79 8.3 132 132 0 0 0-9.45 10.18 2.47 2.47 0 0 0 0 3.4 2.4 2.4 0 0 0 3.4 0Z" class="c"/><path d="M5 397.7c1.1-5.94 2.56-12.19 4.54-19.32 3.54-8.74 7.61-14.83 14.33-19.47 8.9-6.15 18.28-10.65 36.48-16.5 6.45 7.47 22.36 11.7 37.36 11.18 14.74-.61 28.95-5.26 36.17-13.65 11.04 2.4 22.41 5.16 32.23 10.87a42 42 0 0 1 10.67 8.24 55 55 0 0 1 7.71 11.12c4.56 8.62 6.76 17.99 8.21 27.53Z" class="b"/><path d="M52.15 213.17a35 35 0 0 1 3.94-4.37 41 41 0 0 1 5.13-4.1 52 52 0 0 1 14.69-6.85 60 60 0 0 1 19.19-2.23 53 53 0 0 1 16.86 3.25 31.5 31.5 0 0 1 12.88 9.29 2.4 2.4 0 0 0 3.4 0 2.45 2.45 0 0 0 0-3.4c-7.59-9.15-19.15-12.93-30.67-13.8-12.96-.98-26.36 1.72-37.42 8.7A44 44 0 0 0 48 210.75a2.4 2.4 0 0 0 .86 3.28 2.46 2.46 0 0 0 3.28-.86ZM7.31 398.34q.95-5.07 2.14-10.07c.83-3.45 1.48-7.15 2.88-10.4 2.3-5.36 5.26-10.44 9.6-14.4a58 58 0 0 1 11.09-7.42 110 110 0 0 1 12.7-5.93 279 279 0 0 1 21.14-7.23c2.95-.9 1.7-5.53-1.27-4.63-11.6 3.56-23.33 7.36-34.05 13.12a73 73 0 0 0-11.67 7.56A41 41 0 0 0 9.1 373.43a36 36 0 0 0-2.26 5.72q-.86 3.15-1.64 6.32-1.41 5.76-2.5 11.6A2.47 2.47 0 0 0 4.35 400a2.4 2.4 0 0 0 2.95-1.67Zm123.04-56.72c11.54 2.48 23.4 4.98 33.78 10.82a43 43 0 0 1 12.93 10.64 56 56 0 0 1 8.44 15.16 101 101 0 0 1 4.88 20.1 2.4 2.4 0 0 0 2.96 1.67 2.46 2.46 0 0 0 1.67-2.95c-1.9-12.45-5.32-24.86-12.85-35.15a45 45 0 0 0-13.03-12.1 79 79 0 0 0-17.14-7.71c-6.67-2.15-13.52-3.63-20.37-5.1-3-.66-4.3 3.97-1.27 4.62" class="c"/><path d="M59.52 345.05a33 33 0 0 0 11.9 7.03 66 66 0 0 0 16.24 3.57 71 71 0 0 0 33.48-4.39 39 39 0 0 0 13.85-8.98c2.11-2.25-1.27-5.66-3.39-3.4-6.51 6.96-16.37 10.04-25.52 11.5a68 68 0 0 1-30.84-2.06c-4.44-1.4-8.96-3.38-12.33-6.67-2.2-2.16-5.6 1.23-3.39 3.4" class="c"/><path d="M61.24 343.22a30 30 0 0 1 5.18-10.16 44 44 0 0 1 6.5-7.14c1.65-1.48 5.13-3.11 9.53-3.66a77 77 0 0 1 15.58-.47 4.17 4.17 0 0 1 4 4.15 4.1 4.1 0 0 1-3.46 3.8c-2.37.37-5.64.47-9.58 1.19-4.5.82-4.62 1.24-6.84 3.3l-.2.3c4.42-.08 9.68.18 12.02 1.24.88.4 4.07 2.26 4.86 2.81 3.74 2.58 5.68 4.46 6.84 6.87a5.5 5.5 0 0 1-.23 4.06c-.46.93-2 2.16-4.45 1.4a5.1 5.1 0 0 1 1.54 5.02 4.9 4.9 0 0 1-4.5 3.44c.99.94.45 3.44-.32 4.53-.8 1.13-3.1 1.22-4.3.79a20 20 0 0 0-3.11-.99l-.1.55c-.24 1.22-.72 4.07-1.12 5.25-1.1 3.46-2.7 7.28-5.85 9.13a51 51 0 0 1-4.83 1.95c-1.36.64-2.57 3.76-3.3 5.95a.1.1 0 0 1-.12.06c-6.85-2.25-14.87-5-21.3-7.07a.8.8 0 0 1-.52-1.06c1.06-2.96 1.74-4.56 2.4-6.52a94 94 0 0 0 2.2-9.97c1.3-8.8 1.7-12.26 2.86-16.67q.3-1.1.62-2.08" class="b"/><path d="M76.65 337.25a66 66 0 0 1 9.6-.28 36 36 0 0 1 4.35.37 20 20 0 0 1 2.28.57q.36.17.72.37a34 34 0 0 1 7.91 5.5c.9.89 2.04 2.06 2.05 3.33a3 3 0 0 1-.2 1.16c-.15.43.24-.08-.14.24.15-.13-.28.16-.4.2a2 2 0 0 1-.93-.04c-3.01-.67-4.3 3.96-1.28 4.62a6.4 6.4 0 0 0 5.82-1.22 6.6 6.6 0 0 0 1.92-4.77c.16-3.56-2.76-6.53-5.34-8.6a41 41 0 0 0-7.7-4.94c-2.62-1.26-5.7-1.43-8.56-1.57a66 66 0 0 0-10.1.26 2.47 2.47 0 0 0-2.4 2.4 2.4 2.4 0 0 0 2.4 2.4" class="c"/><path d="M83.01 346.34c5.2.03 9.51 1.85 13.85 4.52q.7.43 1.38.9c.1.06.58.42.46.32-.14-.1.3.26.37.31a3.4 3.4 0 0 1 1.2 1.98 2.4 2.4 0 0 1-.13 1.17q-.09.24.06-.13l-.14.27c-.04.06-.38.54-.24.38a3 3 0 0 1-.7.55 3 3 0 0 1-1.1.36 2.47 2.47 0 0 0-2.4 2.4 2.4 2.4 0 0 0 2.4 2.4c3.06-.3 6-2.07 6.82-5.2.92-3.6-.97-6.6-3.76-8.66A31.3 31.3 0 0 0 83 341.54c-3.1-.02-3.1 4.78 0 4.8Z" class="c"/><path d="m84.78 356.04.08.01.36.05.82.13a27 27 0 0 1 3.3.8l.78.27.34.13.2.08a27 27 0 0 1 5.24 3.23l.26.2.17.13c.1.06.31.45-.13-.17.05.07.2.25 0-.03-.2-.25-.06-.1-.02.06.06.25-.04-.25-.03-.26v.66c0 .35.07-.05.02-.13l-.05.26-.15.57-.08.24c-.07.3.23-.38.06-.13l-.1.2c-.07.12-.28.33-.04.1s.07-.08.01-.02c-.3.32.11-.13.14-.1l-.2.11c-.28.15.44-.1.13-.05-.18.02-.39.1-.57.15-.12.02-.29-.03-.02 0 .36.04-.12 0-.2 0l-.59-.02c-.26.02.22.01.24.04l-.3-.05a8 8 0 0 1-.96-.32 16 16 0 0 0-3.77-.96 6.2 6.2 0 0 0-3.95 1.03 2.4 2.4 0 0 0 2.42 4.15c.11-.07.82-.43.36-.24.13-.05.63-.3.75-.23.03.02-.6-.03-.15.04q.22.03.45.04c-.1-.02-.42-.09.04.01l.56.13c.97.24 1.87.68 2.83.94 2.36.63 5.37.13 6.78-2.03 1.2-1.83 1.68-4.77.46-6.7a7 7 0 0 0-1.85-1.68q-.8-.6-1.63-1.18a24 24 0 0 0-2.91-1.75 28 28 0 0 0-9.1-2.5 2.4 2.4 0 0 0-2.4 2.4 2.47 2.47 0 0 0 2.4 2.4Z" class="c"/><path d="M64.35 331.85c-8.16 10.64-7.25 24.48-10.46 36.86a45 45 0 0 1-1.29 4.4 33 33 0 0 0-1.8 5.04c-.53 2.8 2.07 3.62 4.18 4.31l5.77 1.91 11.96 4c1.14.38 2.32.93 3.48.3 1.03-.56 1.25-1.64 1.62-2.65a17 17 0 0 1 .85-1.99q.3-.53.6-1.02c.2-.31.11-.15.08-.11.2-.27.06-.11.18-.19a20 20 0 0 1 2.98-1.1 12 12 0 0 0 2.84-1.5 14 14 0 0 0 4.02-4.88 37 37 0 0 0 3.15-10.34 2.46 2.46 0 0 0-1.68-2.95 2.4 2.4 0 0 0-2.95 1.68c-.79 4.16-1.54 9.05-4.76 12.12-1.94 1.85-4.96 1.68-6.9 3.48-1.8 1.69-2.67 4.4-3.43 6.68l1.1-1.43-.12.05 1.85-.24-10.81-3.6-5.31-1.77-2.45-.8a14 14 0 0 1-2.45-.82l.86.86-.03.01v1.28a26 26 0 0 1 1.74-4.9 43 43 0 0 0 1.27-4.22 101 101 0 0 0 2.1-10.87c.8-5.54 1.5-11.12 3.3-16.45a30 30 0 0 1 4.65-8.71 2.4 2.4 0 0 0-.86-3.29 2.46 2.46 0 0 0-3.28.86Z" class="c"/><path d="M68.5 334.28a44 44 0 0 1 4.34-5.01 13 13 0 0 1 4.21-3.1c4.13-1.89 9.05-2.03 13.52-2.15a76 76 0 0 1 5.86.08c1.2.06 2.5-.12 3.06 1.12.63 1.38-.83 2.1-1.82 2.25-2.19.31-4.4.43-6.6.73a27 27 0 0 0-6.72 1.46 13 13 0 0 0-3.9 2.88c-2.26 2.11 1.14 5.5 3.4 3.39l.96-.9a5 5 0 0 0 .55-.5 5 5 0 0 1 1.48-.67 42 42 0 0 1 7.33-1.23c2.2-.22 4.75-.15 6.76-1.18a6.3 6.3 0 0 0 3.35-6.86 6.6 6.6 0 0 0-4.54-4.9c-2-.64-4.48-.47-6.56-.49a77 77 0 0 0-7.87.35 35 35 0 0 0-8.42 1.55c-5.46 1.93-9.15 6.24-12.54 10.76a2.4 2.4 0 0 0 .86 3.28 2.46 2.46 0 0 0 3.29-.86" class="c"/><path d="M300.08 79.39v-22.2l92.85-34.48c9.8 9.62 21.15 20.72 29.44 28.99v23.4c-22.35 8.6-68.2 25.51-91.95 34.14a6397 6397 0 0 1-30.34-29.85" class="a"/><path d="m360.23 36.68-1.26-1.24-21.46 7.95c10.26 9.91 21.03 20.05 30.8 29.77v22.2c6.9-2.55 13.91-5.15 20.68-7.68V65c-9.13-9.24-19.14-18.86-28.76-28.32" class="b"/><path d="M326.4 67.12c-1.99.73-2.33 2.17-1.13 3.27a5.5 5.5 0 0 0 5.62.83c2.08-.77 2.44-2.03 1.06-3.3a5.8 5.8 0 0 0-5.56-.8m8.25-3.03c-1.95.71-2.28 2.15-1.09 3.24a5.4 5.4 0 0 0 5.53.83c2.05-.76 2.4-2 1.04-3.26a5.7 5.7 0 0 0-5.48-.81m8.13-2.99c-1.92.7-2.24 2.12-1.06 3.2a5.3 5.3 0 0 0 5.44.85c2.02-.75 2.36-1.98 1.02-3.23a5.6 5.6 0 0 0-5.4-.82m48.92-7.38a2.1 2.1 0 0 1-.07-2.83c1.13-1.65-.43-3.44-2.08-3.6-1.6-.17-3.64-.72-4.56-2.16l-.23-.41c-.03-.07-.17-.69-.14-.48a1 1 0 0 1 .06-.5 2.4 2.4 0 0 1 1.07-1.12 8.2 8.2 0 0 1 6.16-.55 4.6 4.6 0 0 1 3.47 4.5 2.44 2.44 0 0 0 2.4 2.4c3.63-.03 6.76.3 9.79 2.45a2.4 2.4 0 0 0 3.28-.86 2.45 2.45 0 0 0-.86-3.29c-3.67-2.6-7.81-3.13-12.2-3.1l2.4 2.4a9.5 9.5 0 0 0-6.65-9.02c-3.35-1.1-7.8-.8-10.73 1.26a6.36 6.36 0 0 0-2.19 8.34c1.71 3.3 5.47 4.57 8.93 4.93l-2.07-3.61a6.85 6.85 0 0 0 .83 8.65c2.26 2.1 5.66-1.3 3.39-3.4m-69.1 1.1c-2.53.88-5.07 1.7-7.6 2.6a2.6 2.6 0 0 0-1.43 1.1 2.4 2.4 0 0 0 2.72 3.52c2.51-.9 5.05-1.71 7.58-2.59a2.6 2.6 0 0 0 1.43-1.1 2.4 2.4 0 0 0-2.7-3.52" class="c"/><path d="m306.67 66.26 22.54 22.2a2.4 2.4 0 0 0 2.34.61c12.22-4.28 24.4-8.7 36.55-13.14a2.46 2.46 0 0 0 1.68-2.95 2.4 2.4 0 0 0-2.95-1.68 2886 2886 0 0 1-36.56 13.14l2.34.62-22.55-22.2c-2.2-2.16-5.6 1.23-3.4 3.4m50.8-28.93c9.94 9.79 20.01 19.44 29.82 29.37l-.7-1.7v22.5c0 3.08 4.8 3.09 4.8 0V71.27c0-2.07.12-4.18 0-6.25-.08-1.37-1.12-2.15-2.01-3.05l-4-4q-3.66-3.64-7.35-7.25-8.6-8.38-17.17-16.8c-2.2-2.17-5.6 1.22-3.4 3.4Z" class="c"/><path d="M336.07 45.32c10.18 9.84 20.5 19.55 30.54 29.53l-.7-1.7v21.83c0 3.1 4.8 3.1 4.8 0V78.9c0-1.9.12-3.83 0-5.73-.1-1.6-1.64-2.63-2.7-3.68q-1.93-1.91-3.89-3.81-3.7-3.62-7.45-7.21c-5.73-5.52-11.49-11-17.21-16.53-2.22-2.15-5.62 1.24-3.4 3.4m78.87 7.78q-12.98 5.05-26 9.95a2.47 2.47 0 0 0-1.68 2.96 2.4 2.4 0 0 0 2.95 1.67q13.02-4.92 26-9.95a2.47 2.47 0 0 0 1.68-2.95 2.4 2.4 0 0 0-2.95-1.67" class="c"/><path d="M302.48 79.39v-22.2l-1.76 2.32c8.38-3.18 16.79-6.29 25.19-9.43q23.61-8.82 47.26-17.58c6.79-2.5 13.58-5.02 20.4-7.47l-2.34-.62c10 9.47 19.96 19 29.44 28.99l-.62-1.06c-.14-.34-.05-.55-.08-.06v.63l.02 1.21v2.9q.02 3.35 0 6.7.01 5.69-.03 11.38l.33-1.21 1.44-1.1a3189 3189 0 0 1-34.12 12.86q-19.73 7.35-39.5 14.6-9.16 3.36-18.34 6.7l2.34.61c-10.17-9.9-20.46-19.68-30.34-29.86-2.15-2.22-5.54 1.17-3.4 3.4 9.89 10.18 20.18 19.96 30.34 29.86a2.4 2.4 0 0 0 2.34.61q30.08-10.92 60.06-22.12 14.17-5.28 28.29-10.65l2.9-1.11c1.67-.65 2.46-1.35 2.47-3.2l.02-6.46q.04-7.56-.01-15.12a7 7 0 0 0-.1-1.85 6 6 0 0 0-1.65-2.14q-1.78-1.85-3.58-3.69-3.9-3.98-7.89-7.89-8.38-8.25-16.94-16.32a2.4 2.4 0 0 0-2.33-.62c-13.69 4.93-27.32 10.03-40.95 15.1q-21.45 7.98-42.88 16l-9.03 3.38a2.5 2.5 0 0 0-1.76 2.32v22.2c0 3.08 4.8 3.08 4.8-.01" class="c"/><path d="M328.68 87.23v12.2a2.4 2.4 0 1 0 4.8 0v-12.2a2.4 2.4 0 1 0-4.8 0" class="c"/><path d="M258.36 87.33v27.1h-93.83v-27.1zM248.33 73.5v13.81h-73.78v-13.8zm-9.75-71.1v71.11H184.3c0-7.7.27-60.77.27-71.11Z" style="fill:#b3b3b3"/><path d="M186.71 73.52q.02-12.26.1-24.52l.14-34.55L187 2.4l-2.4 2.4h53.98l-2.4-2.4v71.11c0 3.1 4.8 3.1 4.8 0V2.4a2.44 2.44 0 0 0-2.4-2.4H184.6a2.44 2.44 0 0 0-2.4 2.4q-.02 13.2-.1 26.4l-.14 34.03q-.04 5.35-.04 10.69c0 3.09 4.8 3.1 4.8 0Z" class="c"/><path d="M176.95 87.33V73.52l-2.4 2.4h73.78l-2.4-2.4v13.8c0 3.1 4.8 3.1 4.8 0v-13.8a2.44 2.44 0 0 0-2.4-2.4h-73.78a2.44 2.44 0 0 0-2.4 2.4v13.8c0 3.1 4.8 3.1 4.8 0" class="c"/><path d="M258.36 84.93h-93.84a2.43 2.43 0 0 0-2.4 2.4v27.1a2.44 2.44 0 0 0 2.4 2.4h93.84a2.44 2.44 0 0 0 2.4-2.4v-27.1c0-3.1-4.8-3.1-4.8 0v27.1l2.4-2.4h-93.84l2.4 2.4v-27.1l-2.4 2.4h93.84c3.1 0 3.1-4.8 0-4.8" class="c"/><path d="M8.15 88.2V50.14l47.2-47.2 47.21 47.2v62.25H8.15Z" class="b"/><path d="M59.47 65.48H81.6v19.85H59.47z" style="fill:#88c5e9"/><path d="M5.75 51.28v61.1a2.44 2.44 0 0 0 2.4 2.4H90.9c3.81 0 7.67.16 11.48 0h.17a2.44 2.44 0 0 0 2.4-2.4v-61.1c0-3.09-4.8-3.1-4.8 0v61.1l2.4-2.4H12c-1.2 0-2.48-.1-3.68 0h-.17l2.4 2.4v-61.1c0-3.09-4.8-3.1-4.8 0" class="c"/><path d="m4.1 57.59 17.96-17.97L50.5 11.2l6.56-6.56h-3.4L71.63 22.6l28.43 28.43 6.56 6.56c2.19 2.19 5.58-1.2 3.4-3.4L92.04 36.24 63.61 7.8l-6.56-6.56a2.44 2.44 0 0 0-3.4 0L35.7 19.2 7.27 47.63.7 54.19c-2.2 2.19 1.2 5.58 3.39 3.4m77.5 5.49H59.48a2.43 2.43 0 0 0-2.4 2.4v19.85a2.44 2.44 0 0 0 2.4 2.4H81.6a2.44 2.44 0 0 0 2.4-2.4V65.48c0-3.1-4.8-3.1-4.8 0v19.85l2.4-2.4H59.47l2.4 2.4V65.48l-2.4 2.4H81.6c3.09 0 3.09-4.8 0-4.8M8.16 77.8h25.5l-2.4-2.4v37c0 3.08 4.8 3.08 4.8 0v-37a2.43 2.43 0 0 0-2.4-2.4H8.16c-3.09 0-3.1 4.8 0 4.8" class="c"/></svg>
