<svg xmlns="http://www.w3.org/2000/svg" viewBox="0 -58.28 418.576 418.576"><defs><style>.a{fill:#fff}.b{fill:#c6c6c6}.c{fill:#211715}</style></defs><path d="M116.21 168.18c6.78-7.34 11.4-16.13 15.76-24.62a37 37 0 0 0-8.5-9.62 74 74 0 0 1-21.52 16.47c-.93.45-.85 2.07-.3 2.7.42.5 11.21 12.03 14.56 15.07m-31.57 1.1c-7.27-6.85-12.49-15.3-17.43-23.46a37 37 0 0 1 7.8-10.19 74 74 0 0 0 22.62 14.93c.96.38.99 2 .49 2.68-.4.52-10.35 12.78-13.48 16.04" class="a"/><path d="M42.46 44.41A54.5 54.5 0 0 1 61.8 14.07 53.3 53.3 0 0 1 93.79 2.49a53.3 53.3 0 0 1 32.77 9.08 54.4 54.4 0 0 1 24.09 41.69 60 60 0 0 1-1.35 17.2l-.17.77a6.3 6.3 0 0 1 4.04 2.84c2.14 3.4 2.3 9.83 1.1 13.86-.84 2.85-2.24 7.21-5.9 10.44a7.8 7.8 0 0 1-5.96 1.98l-.58-.08a46 46 0 0 1-1.86 5.71c-1.36 4.2-9.2 18.98-19.61 25.14v6.04a73 73 0 0 1-18.41 13.25l-4.32.15a74 74 0 0 1-22.61-14.93v-4.2a45 45 0 0 1-10.5-8.85 54 54 0 0 1-10.98-18.93 7.7 7.7 0 0 1-6.59-1.38c-3.9-2.94-5.62-7.19-6.69-9.96-1.5-3.92-1.83-10.34.05-13.9a6.2 6.2 0 0 1 3.58-3.07l-.24-.82a59 59 0 0 1-2.67-17.04 59 59 0 0 1 1.48-13.07m338.57 38.52a6.8 6.8 0 0 1 4.97-1.5 6.3 6.3 0 0 1 5.43 3.45c1.72 3.42 1.29 9.51-.22 13.2-1.06 2.63-2.78 6.63-6.53 9.35a7.4 7.4 0 0 1-5.83 1.32l-.54-.12a44 44 0 0 1-2.28 5.23c-1.5 3.42-8.6 14.3-17.49 20.1.01 1.38.01 2.39.17 4.6a14 14 0 0 0 .68 4.02 10 10 0 0 0 2.95 4.28c2.99 2.41 6.06 3.57 9.85 5l.83.32c-11.77 8.97-24.24 12.62-38.5 11.65-13.88-.94-28.94-5.62-36.57-11.4l2.2-.57c3.8-1.42 6.87-2.58 9.86-4.99a10 10 0 0 0 2.95-4.28 14 14 0 0 0 .68-4.02c.2-2.68.16-3.61.18-5.53a41 41 0 0 1-10.68-10.39 51 51 0 0 1-8.66-18.9 7.3 7.3 0 0 1-6.1-1.91c-3.4-3.14-4.66-7.32-5.4-10.04-1.07-3.85-.8-9.95 1.3-13.15a6.3 6.3 0 0 1 5.8-2.8 6.8 6.8 0 0 1 4.77 2.07s-11.57-48.86 42.61-48.86 43.57 53.87 43.57 53.87" class="a"/><path d="M374.66 61.84a43 43 0 0 0-6.98-9.9l-7.07-6.17c-4.4 5.21-11 8.55-17.02 10.6-7.85 2.67-13.03 1.65-21.24-.84-1.95.86-4 1.58-5.8 2.16-4 1.3-8.57 1.75-12.3 3.73a15.4 15.4 0 0 0-6.6 7.77c-.83 1.94-2.24 6.75-2.8 8.72a6.8 6.8 0 0 0-4.77-2.06 8 8 0 0 0-2.05.2 54 54 0 0 1-2.1-16.85c1.03-18.19 9.48-30.21 18.53-35.07 8.5-10.48 22.9-16.1 37.65-14.5a52 52 0 0 1 25.64 10.07l8.71 7.68c8.5 7.5 14.75 20.2 14.48 37.58a55 55 0 0 1-3.05 16.86 8 8 0 0 0-1.9-.4 6.8 6.8 0 0 0-4.97 1.5l-1.78 1.53-.16-4.84a42 42 0 0 0-4.42-17.77" class="b"/><path d="M296.54 76.22a9.7 9.7 0 0 0-10.58-2 9.5 9.5 0 0 0-5.12 6.24c-1.93 6.14-.67 13.34 2.52 18.86 2.21 3.84 5.93 7.24 10.64 6.9a2.46 2.46 0 0 0 2.4-2.4 2.4 2.4 0 0 0-2.4-2.4c-3.66.26-5.99-3.16-7.33-6.14a21 21 0 0 1-1.9-7.9 18 18 0 0 1 .43-4.65 11 11 0 0 1 .56-1.8 10 10 0 0 1 .6-1.08c.04-.09.4-.5.05-.1a3.7 3.7 0 0 1 2.71-1.49 4.8 4.8 0 0 1 4.03 1.35c2.18 2.2 5.57-1.2 3.4-3.4Zm86.18 8.4a4.7 4.7 0 0 1 4.16-.6 3.3 3.3 0 0 1 1.86 1.11c.41.4-.1-.2.17.2 1.51 2.2 1.41 5.46 1.06 8a20.5 20.5 0 0 1-2.9 7.88c-1.5 2.52-4.25 5.87-7.58 5.23a2.46 2.46 0 0 0-2.95 1.67 2.4 2.4 0 0 0 1.67 2.96c7.95 1.52 13.01-6.2 15.43-12.64 2.02-5.36 2.46-13.97-2.73-17.74a9.7 9.7 0 0 0-11.58.54 2.4 2.4 0 0 0 0 3.4 2.46 2.46 0 0 0 3.4 0" class="c"/><path d="M377 104.87a44 44 0 0 1-6.38 13.38 52 52 0 0 1-12.15 12.85 22 22 0 0 1-9.03 4.05 2.4 2.4 0 0 0-1.67 2.96 2.46 2.46 0 0 0 2.95 1.67c6.66-1.14 12.42-5.7 17-10.44a59 59 0 0 0 9.91-13.3 49 49 0 0 0 4-9.9c.8-2.98-3.84-4.26-4.63-1.27m-85.5-3.85a54 54 0 0 0 6.77 18.64c3.6 6.07 8.47 11.79 14.5 15.55a31 31 0 0 0 9.9 3.97c3.01.62 4.3-4 1.28-4.63-7.62-1.59-13.57-6.39-18.24-12.44a50 50 0 0 1-9.59-22.37 2.4 2.4 0 0 0-2.95-1.67 2.46 2.46 0 0 0-1.68 2.95Zm50.12 12.19a14 14 0 0 1-2.38.76l-.47.1c-.08 0-.57.07-.2.03l-.22.02-.6.04a19 19 0 0 1-2.55-.05l-.66-.06a19 19 0 0 1-1.5-.26 15 15 0 0 1-1.84-.53c-.4-.15.36.18.11.05l-.29-.14-.56-.31-.21-.14c-.36-.23.09.04.18.15l-.37-.32a2.4 2.4 0 0 0-3.4 3.4c2.16 2.02 5.17 2.61 8 2.91a17 17 0 0 0 8.23-1.02 2.47 2.47 0 0 0 1.68-2.96c-.36-1.11-1.71-2.18-2.95-1.67m-8.12-17.6q-.63 1.94-1.08 3.94a5 5 0 0 0-.19 1.62 3.4 3.4 0 0 0 .45 1.53 3 3 0 0 0 1.15 1.11 5 5 0 0 0 2.16.65 7 7 0 0 0 1.41-.14l-.64.08.16-.01a2.6 2.6 0 0 0 1.7-.7 2.4 2.4 0 0 0 0-3.4 2.4 2.4 0 0 0-1.7-.7l-1.07.14.64-.09a3 3 0 0 1-.64.01l.64.09a2 2 0 0 1-.46-.13l.57.24a3 3 0 0 1-.5-.28l.48.38-.1-.1.38.48-.1-.17.24.57-.05-.2.08.64a2 2 0 0 1 0-.53l-.08.64a19 19 0 0 1 .55-2.26q.3-1.07.62-2.12a2.4 2.4 0 0 0-1.67-2.95 2.45 2.45 0 0 0-2.96 1.67Zm-20.06-12.2c-.85 2.28-.7 7.62 3.65 8.33 5.79.3 6.47-6.1 4.7-9.24-1.45-2.57-6.08-3.87-8.36.92m46.33 2.73c.57 2.35-.2 7.64-4.6 7.83-5.79-.37-5.72-6.81-3.6-9.72 1.74-2.38 6.5-3.14 8.2 1.89m-56.53-64.08c-13.53 7.35-19.7 24.36-19.76 39a54 54 0 0 0 2 14.85c.84 2.97 5.47 1.7 4.63-1.27a49.6 49.6 0 0 1-.58-24.23c1.5-6.7 4.31-13.29 8.94-18.43a26 26 0 0 1 7.2-5.77c2.71-1.48.3-5.63-2.43-4.15m68.54-2.28a57.6 57.6 0 0 0-23.34-11.55 48.7 48.7 0 0 0-27.67 1.6 48 48 0 0 0-12.69 7.27 2.4 2.4 0 0 0 0 3.4 2.46 2.46 0 0 0 3.4 0 41 41 0 0 1 21.35-8.58 48 48 0 0 1 24.57 4.38 57 57 0 0 1 10.99 6.87 2.5 2.5 0 0 0 3.39 0 2.4 2.4 0 0 0 0-3.4Zm18.65 61.97a61.5 61.5 0 0 0 2.35-26.49 51 51 0 0 0-7.51-21.25 41 41 0 0 0-7.11-8.32c-2.3-2.05-5.71 1.33-3.4 3.4 10.5 9.32 14.33 23.76 13.73 37.4a56 56 0 0 1-2.69 13.98c-.9 2.96 3.73 4.23 4.63 1.28m-23.6-27.21a32 32 0 0 1 7.03 12.34 42 42 0 0 1 1.12 14.52 2.4 2.4 0 0 0 4.8 0 46 46 0 0 0-1.39-16.13 37.5 37.5 0 0 0-8.17-14.12c-2.05-2.32-5.44 1.08-3.4 3.39m-5.42-10.42a52 52 0 0 1-16.06 9.3 30 30 0 0 1-8.92 2.05 28 28 0 0 1-8.56-1.14c-2.99-.8-4.26 3.84-1.28 4.63a33 33 0 0 0 9.84 1.31 34 34 0 0 0 10.2-2.22A58 58 0 0 0 364.8 47.5a2.4 2.4 0 0 0 0-3.4 2.45 2.45 0 0 0-3.4 0Z" class="c"/><path d="M336.04 41.92a45 45 0 0 1-7.96 7.23 36 36 0 0 1-5.18 3.26 43 43 0 0 1-5.8 2.17c-4.05 1.28-8.38 1.67-12.32 3.27a17.3 17.3 0 0 0-8.95 8.38 65 65 0 0 0-3.66 10.1c-.92 2.96 3.7 4.22 4.63 1.28 1.89-6 3.37-13.03 10.04-15.44 4-1.43 8.26-1.9 12.3-3.2a40 40 0 0 0 11.04-5.44 51 51 0 0 0 9.25-8.22c2.01-2.32-1.37-5.73-3.4-3.39Zm-16.97 66.85a21 21 0 0 0-2.3 4.68 2.4 2.4 0 0 0 3.52 2.71l.49-.37a2.4 2.4 0 0 0 .62-1.06q.18-.53.4-1.04l-.25.57a19 19 0 0 1 1.67-3.07 2.4 2.4 0 0 0-2.71-3.52 2.6 2.6 0 0 0-1.44 1.1m28.9 5.26a24 24 0 0 1 .95 3.81l-.08-.63.02.23a2.7 2.7 0 0 0 .7 1.7 2.4 2.4 0 0 0 3.4 0 2.4 2.4 0 0 0 .7-1.7 22 22 0 0 0-1.06-4.69 2.5 2.5 0 0 0-1.1-1.43 2.5 2.5 0 0 0-1.85-.25 2.4 2.4 0 0 0-1.68 2.96m-36.56 19.75q0 1.86-.1 3.73a14 14 0 0 1-.67 4.44c-1.09 2.78-3.62 4.32-6.2 5.57a52 52 0 0 1-10.12 3.36c-2.99.77-1.72 5.4 1.28 4.63a64 64 0 0 0 7.68-2.3c5.23-2.06 10.71-4.93 12.24-10.81a36 36 0 0 0 .68-8.62c.02-3.1-4.78-3.1-4.8 0Zm44.73.17c.02 3.36-.05 7 1.3 10.14 1.43 3.35 4.16 5.55 7.33 7.22 3.8 1.99 7.99 3.33 11.98 4.9a2.4 2.4 0 0 0 2.95-1.68 2.46 2.46 0 0 0-1.68-2.95c-3.32-1.3-6.78-2.44-9.98-4-2.59-1.24-5.12-2.75-6.27-5.48a13 13 0 0 1-.7-4.27q-.12-1.94-.13-3.88c-.02-3.08-4.82-3.1-4.8 0" class="c"/><path d="M309.75 158.53c-5.4-2.02-9.98-4.45-13-7.08-10.56 3.16-26.04 8.1-31.44 16.37-5.81 8.91-7.28 15.17-10.22 25.39-4 13.89-9.7 45.2-10.45 56.08-.48 6.8-.7 14.03 1.97 20.32 1.8 4.23 5.13 8.75 9 11.24 10.7 6.88 24.9 2.17 31.6-1.15h56.77c7.97 14.47 27.03 16.24 40.8 7.53 5.66-3.58 9.33-8.85 12.41-14.55 7.67-13.13 11.42-28.17 14.28-42.9 2.08-11.14 4.58-22.87 4.72-34.24-.01-6.77-.56-14.48-3.9-20.43-3.65-6.48-8.16-11.35-14.77-14.85-3.78-2.01-16.39-7.63-22.16-9.94-12.46 10.33-25.63 14.54-40.84 13.5a91 91 0 0 1-24.77-5.3" style="fill:#a095c1"/><path d="M51.52 150.76c-11.68 3.97-19.12 7.33-26.1 12.15-6.73 4.64-10.8 10.73-14.33 19.47-6.07 21.83-7.22 35.42-8.33 57.01a157 157 0 0 0 1.16 32.56 37 37 0 0 0 9.87 19.93c6.65 6.85 21.3 8.17 27.4 7.7 15.75-1.24 35.66-4.73 54.16-9.43 9.73 1.33 20.49 2.1 30.73 2.64 13.93.74 25.86 1.4 40.67-.2 9.44-1.04 20.22-7.23 23.89-13.8 4.5-8.05 5.77-14.67 6.27-25.1a250 250 0 0 0-1.16-40.16c-1.54-13.53-3.28-27.2-9.73-39.36a55 55 0 0 0-7.7-11.12 42 42 0 0 0-10.67-8.24c-10.78-6.27-23.45-8.98-35.52-11.58-4.4 8.6-9.06 17.52-15.92 24.95-3.35-3.04-14.14-14.57-14.56-15.06l-3.53.12c-.4.52-10.35 12.78-13.48 16.04-7.28-6.86-12.51-15.33-17.46-23.51-6 1.83-11.15 3.46-15.66 5" style="fill:#957f6e"/><path d="M119.24 265.54a699 699 0 0 0-6.65-24.33c6.98-3.2 10.43-4.14 17.16-6.08 5.52-1.6 11.42-3.26 19.02-3.26 5.06 0 10.48 2.19 14.23 3.5l1.14.4a714 714 0 0 1-3.02 27.4l-1.11 1s-4.22 3.8-7.34 4.4c-4.61.9-27.31 2.5-31.5.37l-1.21-.62zM29.93 226.5q-.21-.37-.38-.75a3.9 3.9 0 0 1 .6-4.06 4.9 4.9 0 0 1 4.38-1.44s.56.05 1.23.13a8 8 0 0 1-1.24-1.85 4.7 4.7 0 0 1 .71-5.2 5.7 5.7 0 0 1 4.57-1.39 9.7 9.7 0 0 1 5.15 2.42c7.49 6.62 21.27 20.06 28.23 27.08 0 0 1.35 1.3 2.77 2.62a4908 4908 0 0 0-37.54 6.62l-.71-.9c-2.22-2.77-4.09-5.3-6.48-8.38a11 11 0 0 1-1.93-3.1 4.5 4.5 0 0 1 .64-3.9c1.53-1.71 3.54-1.4 6.26-.92l-3.33-3.39a17 17 0 0 1-2.93-3.59" class="a"/><path d="M49.57 75.47a7.4 7.4 0 0 0-3.47-.58 9 9 0 0 0-2.2.44 60 60 0 0 1-2.92-17.86 54.2 54.2 0 0 1 10.4-32.56c1.29 3.23 6.57 6.01 9.2 7.85 3.58 2.5 3.12 6.03 1.3 9.42a89 89 0 0 0-6.94 16.92c-1.7 5.75-2.42 11.67-3.64 17.48a7 7 0 0 0-1.73-1.1m93.63-3.31a6 6 0 0 0-1.45 1.29c-1.72-5.8-2.9-11.78-5.08-17.5a89 89 0 0 0-8.22-16.33c-2.07-3.24-2.81-6.71.57-9.48 2.56-2.11 7.88-5.43 8.66-8.87 6.53 7.5 11.81 17.91 12.95 31.99a58 58 0 0 1-1.48 17.97 9 9 0 0 0-2.02-.22 7.3 7.3 0 0 0-3.93 1.14" class="b"/><path d="M151.62 71.1c3.18-14.78 1.32-30.45-6.55-43.5A57.6 57.6 0 0 0 119.1 4.7a59.4 59.4 0 0 0-44.3-.83 57.14 57.14 0 0 0-35.03 64.98q.63 3.2 1.56 6.3c.88 2.96 5.52 1.7 4.63-1.27-4-13.46-3.37-28.14 3.14-40.73A53 53 0 0 1 71.88 10.4a54.7 54.7 0 0 1 40.8-3.02 52 52 0 0 1 25.8 18.93A53.7 53.7 0 0 1 148 63.82c-.23 2.02-.6 4.01-1.02 6-.65 3.01 3.97 4.3 4.62 1.28Z" class="c"/><path d="M49.4 26.32c1.4 2.91 4.4 4.88 7.03 6.59 2.1 1.37 4.95 2.6 4.35 5.51A19 19 0 0 1 58.76 43 94 94 0 0 0 56 48.98a83 83 0 0 0-4.08 12.06c-1.22 4.91-1.92 9.94-2.95 14.9-.62 3.01 4 4.3 4.63 1.27.95-4.56 1.61-9.18 2.67-13.72a80 80 0 0 1 4.1-12.6q1.24-3 2.73-5.88a23 23 0 0 0 2.3-5.3c.86-3.93-.8-7.13-4.05-9.3-2.66-1.81-6.34-3.48-7.81-6.51a2.4 2.4 0 0 0-3.29-.86 2.45 2.45 0 0 0-.86 3.28Zm85.8-5.15a10 10 0 0 1-2.61 3.1c-1.2 1.07-2.5 2.02-3.78 3a12 12 0 0 0-3.68 3.85 8.2 8.2 0 0 0-.6 5.52 16 16 0 0 0 2.33 4.96q1.7 2.72 3.2 5.56a79 79 0 0 1 5.16 11.88c1.6 4.83 2.69 9.8 4.1 14.7.85 2.96 5.49 1.7 4.63-1.28-1.2-4.13-2.16-8.33-3.4-12.45a84 84 0 0 0-4.8-12.21q-1.34-2.79-2.87-5.48c-1-1.75-2.22-3.41-3.12-5.22a4.4 4.4 0 0 1-.44-3.67 8 8 0 0 1 2.68-2.6c3.06-2.32 6.37-4.7 7.82-8.39a2.4 2.4 0 0 0-1.67-2.95 2.46 2.46 0 0 0-2.95 1.68" class="c"/><path d="M53 74.87a10.1 10.1 0 0 0-11.2-1.24 9.7 9.7 0 0 0-4.74 6.84 25.4 25.4 0 0 0 4.52 19.64c2.9 3.96 7 6.87 12.1 5.98a2.4 2.4 0 0 0 1.68-2.95 2.46 2.46 0 0 0-2.95-1.68c-3.5.61-6.34-2.94-7.88-5.6a22 22 0 0 1-2.97-8.41c-.33-2.78-.34-6.12 1.23-8.52q.15-.19-.07.07l.3-.34c.08-.07.62-.55.47-.44a5 5 0 0 1 1.7-.77 5 5 0 0 1 4.41.82 2.47 2.47 0 0 0 3.4 0 2.4 2.4 0 0 0 0-3.4m90.77-.09a5.06 5.06 0 0 1 7.15.23c-.35-.4.11.18.17.27a7 7 0 0 1 .57 1.08 12 12 0 0 1 .58 1.98 19 19 0 0 1 .35 5.02 22 22 0 0 1-2.29 8.44c-1.53 3.1-4.03 6.52-7.9 6.15a2.4 2.4 0 0 0-2.4 2.4 2.45 2.45 0 0 0 2.4 2.4c8 .76 12.5-7.99 14.27-14.48a24 24 0 0 0 .27-10.86 11 11 0 0 0-4.48-7.37 10.05 10.05 0 0 0-12.1 1.35c-2.21 2.16 1.19 5.55 3.4 3.4Z" class="c"/><path d="M140.24 96.27a44 44 0 0 1-1.42 5.78q-.36 1.17-.77 2.3l-.19.49c-.17.47.28-.72-.08.22l-.28.74-.17.45-.12.28.05-.12a51 51 0 0 1-2.3 4.6 57 57 0 0 1-11.59 14.94 22.5 22.5 0 0 1-8.82 5.08c-2.97.8-1.71 5.44 1.28 4.62 6.91-1.88 12.5-7.13 16.83-12.61a64 64 0 0 0 9.15-15.16l.38-1.01c-.17.48.13-.33.22-.54a31 31 0 0 0 .72-2 45 45 0 0 0 1.74-6.78 2.47 2.47 0 0 0-1.68-2.96 2.4 2.4 0 0 0-2.95 1.68m-90.05 4.57a57 57 0 0 0 8.7 18.55c4.39 6.08 10.04 11.76 16.82 15.14a33 33 0 0 0 11.39 3.29 2.4 2.4 0 0 0 2.4-2.4 2.46 2.46 0 0 0-2.4-2.4c-13.23-1.45-23.56-13-28.98-24.4a53 53 0 0 1-3.3-9.05c-.8-2.98-5.43-1.72-4.63 1.27m47.29-10.62q.33 1.11.63 2.24a20 20 0 0 1 .55 2.4l-.08-.64a2 2 0 0 1 0 .48l.1-.64-.08.3.24-.58-.1.18.37-.48-.1.1.48-.38a3 3 0 0 1-.44.25l.57-.24a3 3 0 0 1-.57.16l.63-.08a3 3 0 0 1-.61 0l.64.08-1.15-.16a2.4 2.4 0 0 0-1.7.7 2.4 2.4 0 0 0 0 3.4 2.7 2.7 0 0 0 1.7.7h.1l-.63-.08a9 9 0 0 0 1.43.17 5 5 0 0 0 2.2-.6 3.2 3.2 0 0 0 1.64-2.09 5 5 0 0 0-.08-2.27q-.46-2.13-1.1-4.2a2.5 2.5 0 0 0-1.1-1.44 2.4 2.4 0 0 0-3.53 2.71ZM74.33 78.4c-.66 2.47.04 8.07 4.69 8.37 6.11-.27 6.18-7.08 4-10.2-1.79-2.54-6.79-3.44-8.7 1.83m48.97-1.88c.85 2.4.57 8.05-4.04 8.7-6.11.2-6.7-6.58-4.76-9.85 1.58-2.68 6.5-3.96 8.8 1.15" class="c"/><path d="M94.09 88.66c3.93-7.07 3.22-17.63-5.1-21.18a29 29 0 0 0-12.55-1.98c-3.95.19-8.22.82-11.62 2.97a14.7 14.7 0 0 0-6.63 8.85 16.7 16.7 0 0 0 .94 9.66 17.9 17.9 0 0 0 15.73 10.96 24.5 24.5 0 0 0 11.27-1.76 17.7 17.7 0 0 0 7.96-7.52c1.56-2.67-2.59-5.1-4.15-2.43a13.4 13.4 0 0 1-5.17 5.3 16 16 0 0 1-6.65 1.6c-5.13.27-10.36-1.06-13.32-5.58-2.68-4.1-3.16-9.69.52-13.39 2.12-2.13 4.75-2.99 7.65-3.5a28 28 0 0 1 10.44.13c3.04.64 6.28 1.76 7.59 5 1.36 3.37.66 7.36-1.06 10.44-1.5 2.7 2.64 5.13 4.14 2.43m14.26-2.97c-3.15-4.75-3.73-12.37 2.36-15.05a26 26 0 0 1 9.82-2.04c3.1-.06 6.53.09 9.3 1.6a9.7 9.7 0 0 1 4.92 5.78 12 12 0 0 1-.4 6.82 13 13 0 0 1-10.73 8.5 20.5 20.5 0 0 1-8.82-.52 12.7 12.7 0 0 1-6.45-5.1 2.46 2.46 0 0 0-3.29-.86 2.4 2.4 0 0 0-.86 3.29 18 18 0 0 0 7.6 6.63 22 22 0 0 0 9.95 1.5c6.88-.35 13.5-3.64 16.44-10.17a18 18 0 0 0 1.5-9.53 13.8 13.8 0 0 0-5.76-9.4c-3.22-2.4-7.08-3.11-11-3.3a32 32 0 0 0-12.67 1.84c-4.05 1.52-7.65 4.5-8.66 8.91a17.6 17.6 0 0 0 2.6 13.51c1.7 2.57 5.86.17 4.15-2.41" class="c"/><path d="m93.98 79.73 9.56-.37a2.4 2.4 0 0 0 0-4.8l-9.56.37a2.4 2.4 0 0 0 0 4.8m-3.56 32.5a18.6 18.6 0 0 0 9.15 1.76c3.15-.16 6.38-.88 8.84-2.96a2.4 2.4 0 0 0 0-3.4 2.46 2.46 0 0 0-3.4 0c-.38.33.56-.36.02 0l-.52.32-.59.31c-.43.22-.02.1.03 0-.03.07-.32.13-.38.15a13 13 0 0 1-1.95.54l-.66.12c-.43.07.07 0-.2.02q-.73.09-1.47.11a20 20 0 0 1-2.7-.06l-.55-.06c.56.07-.1-.03-.17-.04q-.45-.08-.9-.2-.79-.21-1.56-.5c-.38-.12.43.2.19.09l-.25-.11-.5-.24a2.4 2.4 0 1 0-2.43 4.14Zm22.22-4.42a21 21 0 0 1 1.23 2.56l-.24-.57q.4.96.75 1.93a2.6 2.6 0 0 0 1.1 1.44 2.4 2.4 0 0 0 3.28-.87 2.4 2.4 0 0 0 .24-1.84 41 41 0 0 0-1.2-3 19 19 0 0 0-1.02-2.06 2.5 2.5 0 0 0-1.43-1.1 2.5 2.5 0 0 0-1.85.24 2.4 2.4 0 0 0-1.1 1.43 2.5 2.5 0 0 0 .24 1.85Zm-30.68-1.42a28 28 0 0 0-1.87 5.2 2.5 2.5 0 0 0 .24 1.84 2.4 2.4 0 0 0 3.29.86 2.5 2.5 0 0 0 1.1-1.43 30 30 0 0 1 1.33-3.98l-.24.57.3-.64a2.6 2.6 0 0 0 .23-1.85 2.4 2.4 0 0 0-2.95-1.67 2.4 2.4 0 0 0-1.43 1.1m76.35 156.09c-1.63 1.46-3.77 3.21-6.14 3.75q-.52.11-1.05.19l-.3.04.16-.02-.8.1q-1.73.2-3.48.35a155 155 0 0 1-18.3.67 49 49 0 0 1-4.14-.28c-.46-.06-.01 0 .07 0l-.53-.08-.72-.15q-.32-.06-.62-.16l-.24-.08c-.4-.08.52.24.16.06a2.46 2.46 0 0 0-3.29.86 2.4 2.4 0 0 0 .86 3.29 18 18 0 0 0 6.83 1.27c3.17.18 6.36.13 9.53.02a111 111 0 0 0 16.78-1.38c3.22-.6 6.22-2.91 8.61-5.05 2.31-2.07-1.1-5.45-3.39-3.4m-42.84-19.95a90 90 0 0 1 10.82-3.9c3.85-1.14 7.72-2.32 11.65-3.17a42 42 0 0 1 12.74-1.1c4.03.41 7.9 2 11.68 3.33a2.4 2.4 0 0 0 2.95-1.67 2.45 2.45 0 0 0-1.67-2.96c-4.18-1.47-8.3-3-12.74-3.47a45 45 0 0 0-13.85 1.16c-4.06.86-8.06 2.08-12.04 3.25a100 100 0 0 0-11.97 4.4 2.4 2.4 0 0 0-.86 3.27 2.46 2.46 0 0 0 3.29.86m-40.6-2.78q-11.17-11.26-22.76-22.1c-3.7-3.46-7.84-8.41-13.39-8.13-3.3.16-6.3 2.13-6.94 5.54-.64 3.5 1.39 6.27 3.78 8.58 5.05 4.87 10.03 9.82 15.07 14.71 2.22 2.15 5.62-1.24 3.4-3.4q-5.97-5.79-11.9-11.64-1.5-1.47-3.03-2.92a10 10 0 0 1-2.44-2.9c-1-2.25 1.18-3.47 3.14-3.15 2.12.35 3.67 1.9 5.2 3.28q2.44 2.21 4.84 4.48 5.54 5.19 10.96 10.49 5.38 5.23 10.68 10.55c2.18 2.2 5.58-1.2 3.4-3.4Z" class="c"/><path d="M34.53 217.85a6.9 6.9 0 0 0-7.08 3.65c-1.48 3.17.07 6.15 2.14 8.6 1.95 2.32 4.24 4.41 6.36 6.58 2.16 2.21 4.35 4.4 6.65 6.46s5.7-1.33 3.4-3.4c-3.7-3.32-7.1-6.96-10.6-10.5-.82-.83-1.67-1.64-2.42-2.53a5.3 5.3 0 0 1-1.35-2.31c-.22-1.6 1.62-1.92 2.9-1.75a2.4 2.4 0 0 0 2.4-2.4 2.46 2.46 0 0 0-2.4-2.4" class="c"/><path d="M34.62 230.83c-2.33-.3-4.73.05-6.39 1.87a6.7 6.7 0 0 0-1.11 6.63c.91 2.33 2.77 4.24 4.27 6.2q2.27 3.01 4.6 5.95a2.4 2.4 0 0 0 3.4 0 2.46 2.46 0 0 0 0-3.39 221 221 0 0 1-3.32-4.28c-1.24-1.62-2.64-3.3-3.73-4.86a9 9 0 0 1-.65-1.06l-.15-.42c-.15-.42-.01.19-.03-.1v-.55c-.02-.44-.05.1 0-.16l.14-.54c-.08.3-.04.07.06-.1.18-.32-.42.43.08-.1.29-.3-.04 0 .14-.13.14-.12.42-.24.1-.1q.24-.09.5-.16c.25-.07-.33 0 .13-.02l.58-.01a12 12 0 0 1 1.38.12 2.4 2.4 0 0 0 2.4-2.4 2.46 2.46 0 0 0-2.4-2.4Zm129.73-29.13a788 788 0 0 1-5.08 57.3c-.44 3.54-.85 6.87-1.58 10.62a2.46 2.46 0 0 0 1.68 2.95 2.4 2.4 0 0 0 2.95-1.67c1.5-7.77 2.24-15.72 3.07-23.58q1.63-15.46 2.8-30.97.57-7.32.96-14.64c.15-3.1-4.65-3.08-4.8 0Z" class="c"/><path d="M67.47 143.17c-13.46 4.11-27.58 8.01-39.71 15.37a41.6 41.6 0 0 0-14.74 14.36A46 46 0 0 0 8 184.58q-1.8 6.69-3.18 13.48A213 213 0 0 0 1.4 222.8a396 396 0 0 0-1.36 24.9c-.17 8.79.11 17.88 1.85 26.52A39 39 0 0 0 6 285.3a32 32 0 0 0 7.66 9.67c5.5 4.38 12.76 6.06 19.61 6.78 6.37.68 12.7-.13 19.03-.93a360 360 0 0 0 50.21-10.08q6-1.65 11.92-3.53 2.73-.88 5.43-1.81c2.08-.72 4.46-1.27 5.26-3.6.5-1.49.03-2.96-.32-4.42l-.95-3.91q-1.17-4.77-2.4-9.51a772 772 0 0 0-6.41-23.37c-.48-1.58-.9-3.22-2.38-4.18-2.09-1.35-5.14-.26-7.44.14q-17.01 2.98-34.03 5.92c-10.67 1.86-21.35 3.7-32 5.64l-3.98.74a2.4 2.4 0 0 0-1.67 2.96 2.45 2.45 0 0 0 2.95 1.67c8.47-1.65 17-3.07 25.5-4.56q17.64-3.08 35.28-6.13l7.24-1.26a41 41 0 0 0 5.6-.99c.33-.1.17.03.15-.02.1.3-.4-.26-.33-.26-.12 0-.01-.21 0 .07a8 8 0 0 0 .51 1.64q.56 1.85 1.09 3.7 1.27 4.45 2.47 8.92 2.58 9.56 4.98 19.18l.97 3.95.38 1.6.17.73c.06.26.2.72.09.18-.06-.28.35-.22-.26-.07-.4.1-.82.29-1.22.43q-1.42.5-2.85.97-2.66.9-5.34 1.73a355 355 0 0 1-48.1 11.2 229 229 0 0 1-21.9 2.7A46 46 0 0 1 23.97 295a21.5 21.5 0 0 1-7.73-4.1 31 31 0 0 1-6.84-9.44c-3.58-7.25-4.08-15.67-4.44-23.61a233 233 0 0 1 .47-23.55c.45-8.03 1-16.08 2.13-24.05a208 208 0 0 1 5.19-24.86A38 38 0 0 1 24 167.01a58 58 0 0 1 13.93-8.43 168 168 0 0 1 18.34-6.87 701 701 0 0 1 12.47-3.91c2.94-.9 1.69-5.54-1.28-4.63Z" class="c"/><path d="M131.89 145.63c8.57 1.84 17.18 3.7 25.37 6.87 7.69 2.97 15.16 7.2 20.51 13.57 11.54 13.72 14 32.2 15.8 49.41a245 245 0 0 1 1.24 28.9c-.12 8.14-.13 16.62-2.49 24.5a38 38 0 0 1-4.22 9.48 23 23 0 0 1-7.44 6.73 37 37 0 0 1-10.77 4.51 71 71 0 0 1-12.87 1.36 259 259 0 0 1-26.37-.33 512 512 0 0 1-27.94-2q-3.35-.36-6.7-.8a2.5 2.5 0 0 0-2.96 1.67 2.4 2.4 0 0 0 1.68 2.96c9.77 1.33 19.6 2.08 29.45 2.63 9.13.5 18.28 1.03 27.42.86 9.06-.18 18.34-.48 26.73-4.22a38 38 0 0 0 10.05-6.46 27 27 0 0 0 6.25-9.03c3.41-7.47 4.37-15.4 4.73-23.54a257 257 0 0 0-.37-30.14 226 226 0 0 0-3.68-28.54c-1.83-9-4.84-17.84-9.87-25.59a47 47 0 0 0-8.7-10.26 56 56 0 0 0-10.98-7.11c-8.16-4.15-17.05-6.59-25.94-8.6l-6.65-1.46c-3.01-.65-4.3 3.97-1.28 4.63" class="c"/><path d="M117.9 169.88a92 92 0 0 0 12.84-18.8q1.28-2.4 2.51-4.79c.49-.94 1.22-1.95 1.07-3.05a7 7 0 0 0-1.42-2.62 38 38 0 0 0-7.74-8.38 2.45 2.45 0 0 0-3.4 0 75 75 0 0 1-11.06 10.02 69 69 0 0 1-6.23 4.09c-1.87 1.08-4.8 1.87-5.45 4.18-.75 2.71 1.02 4.4 2.67 6.16q3.12 3.32 6.27 6.6c2.14 2.24 4.27 4.5 6.55 6.59s5.69-1.31 3.4-3.4c-4-3.65-7.66-7.7-11.37-11.64l-2.23-2.38-.65-.7c-.22-.23-.5-.4-.06-.03.1.09.02.14.05.23-.18-.53.05-.26 0-.15-.55 1.15-.68.63-.12.49a4 4 0 0 0 .75-.38q1.51-.78 2.98-1.64a70 70 0 0 0 5.86-3.87 81 81 0 0 0 12.04-10.77h-3.4a36 36 0 0 1 8.13 9.13v-2.43c-4.37 8.5-8.88 17.05-15.38 24.14-2.08 2.28 1.3 5.68 3.4 3.4" class="c"/><path d="M86.34 167.59c-7-6.64-12.1-14.8-17.06-22.98v2.42a36 36 0 0 1 7.43-9.7h-3.39a82 82 0 0 0 11.24 8.97 73 73 0 0 0 6.07 3.63q1.33.7 2.7 1.35.77.36 1.55.7l.77.33.57.24q.7.37.14-.07c.13.23-.33-.38-.31-.37s-.02-.38-.01-.04c0 .22.24-.37.31-.45l-.46.59-1.74 2.14q-2.78 3.4-5.6 6.77c-1.83 2.19-3.64 4.4-5.6 6.46-2.14 2.24 1.25 5.64 3.39 3.4 3.97-4.18 7.56-8.77 11.2-13.24 1.28-1.56 3.16-3.29 3.28-5.41a4.3 4.3 0 0 0-.9-2.94c-.82-.99-2.07-1.3-3.2-1.81a66 66 0 0 1-6.54-3.42 75 75 0 0 1-13.47-10.23 2.46 2.46 0 0 0-3.4 0 38 38 0 0 0-7.16 8.87 10 10 0 0 0-1.26 2.38c-.35 1.26.52 2.3 1.13 3.31q1.4 2.3 2.84 4.6a93 93 0 0 0 14.08 17.89c2.24 2.13 5.64-1.26 3.4-3.4m31.62-35.3v4.87a2.5 2.5 0 0 0 .7 1.7 2.4 2.4 0 0 0 4.1-1.7v-4.88a2.5 2.5 0 0 0-.7-1.7 2.4 2.4 0 0 0-4.1 1.7m177.7 21.37a48 48 0 0 0 12.88 6.97 88 88 0 0 0 16.72 4.48c11.16 1.89 22.64 1.84 33.36-2.17a64 64 0 0 0 16.69-9.51 2.4 2.4 0 0 0 0-3.4 2.46 2.46 0 0 0-3.4 0 53.4 53.4 0 0 1-27.64 11.31c-10.67.98-21.72-.95-31.81-4.39-4.65-1.58-9.6-3.65-13.4-6.68a2.5 2.5 0 0 0-3.4 0 2.4 2.4 0 0 0 0 3.4Z" class="c"/><path d="M286 277.63a42 42 0 0 1-15.83 4.31c-6.75.33-13.04-1.7-17.48-6.95-4.97-5.87-6.12-13.18-5.92-20.65q.12-4 .53-7.98c.25-2.27.5-4.08.8-6.18a464 464 0 0 1 6.38-34.58 273 273 0 0 1 4.04-15.66c1.8-6.32 3.8-12.47 7.16-18.17a23 23 0 0 1 5.13-6.4 37 37 0 0 1 7.18-4.47 110 110 0 0 1 17.15-6.45l3.82-1.15c2.95-.88 1.69-5.52-1.28-4.63a169 169 0 0 0-18.08 6.22c-5.46 2.33-11.29 5.3-15.1 10-4.35 5.39-7.1 12.22-9.14 18.77a252 252 0 0 0-4.75 17.33 455 455 0 0 0-6.9 36.18c-1.87 12.48-4.15 26.93 3.2 38.06a23.7 23.7 0 0 0 18.79 11.41c6.42.64 13.07-.82 19.01-3.22q1.89-.75 3.72-1.64a2.4 2.4 0 0 0 .86-3.29 2.45 2.45 0 0 0-3.28-.86Zm89.14-124.83a371 371 0 0 1 14.97 6.55c4.86 2.24 9.66 4.5 13.55 8.27a31.7 31.7 0 0 1 9.34 17c1.38 7.49.86 15.35-.09 22.85-1 8.07-2.62 16.09-4.22 24.06a184 184 0 0 1-5.76 22.42 104 104 0 0 1-9.37 20.27c-3.39 5.65-7.76 10.2-13.79 13.02-9.73 4.55-22.5 4-30.27-4.04a22 22 0 0 1-2.55-3.2c-1.68-2.58-5.84-.18-4.14 2.42 7.16 10.94 20.75 14.54 33.03 11.3a34 34 0 0 0 17.19-10.52 53 53 0 0 0 6.05-8.96 115 115 0 0 0 5.46-11 141 141 0 0 0 7.24-23.26c1.9-8.32 3.49-16.74 4.87-25.16 1.36-8.32 2.35-16.77 1.75-25.22a43 43 0 0 0-2.14-11.44 36 36 0 0 0-5.27-9.42 39 39 0 0 0-14.66-11.75 375 375 0 0 0-19.92-8.82 2.4 2.4 0 0 0-2.95 1.68 2.46 2.46 0 0 0 1.68 2.95" class="c"/><path d="M336.4 216.42q.7 4.19 1.55 8.5l.44 2.29c7.7-2.2 16.5-4.35 23.07-6.23-1.22-4.68-2.31-6.99-1.3-12.07a33 33 0 0 1 2.47-6.38 62 62 0 0 0 3.4-12.82 937 937 0 0 0 6.59-37.2 86 86 0 0 0 .81-11.63 6 6 0 0 0-1.13-3.73 4 4 0 0 0-3.65-1.27 4 4 0 0 0-2.5 1.4 11 11 0 0 0-.83 1.55l-.25-.13a6 6 0 0 0-4.07-.67 8.4 8.4 0 0 0-4.02 1.57 166 166 0 0 0-27.53 27.75 53 53 0 0 0-5.86 9.34c-.87 1.7-3.21 6.86-3.95 8.62-3.09 7.29-3.53 9.5-12.3 15.7a92 92 0 0 0 13.71 18.52 26.3 26.3 0 0 1 14.3-10.95q.36 3.89 1.04 7.84" class="a"/><path d="M311.03 201.26c3.88-2.98 6.97-6.19 8.97-10.7 1.77-4 3.35-7.9 5.3-11.93a68 68 0 0 1 9.63-14.2 171 171 0 0 1 12.84-13.69q3.78-3.6 7.8-6.92c2.27-1.89 5.11-4.6 8.29-3.05a2.46 2.46 0 0 0 3.28-.86 2.4 2.4 0 0 0-.86-3.28 10.3 10.3 0 0 0-9.85.44 35 35 0 0 0-3.92 3.07q-1.86 1.53-3.67 3.12a161 161 0 0 0-13.73 13.66c-4.2 4.69-8.46 9.51-11.64 14.96a113 113 0 0 0-6.3 13.14 44 44 0 0 1-3.07 6.52 23 23 0 0 1-5.5 5.58 2.5 2.5 0 0 0-.85 3.28 2.4 2.4 0 0 0 3.28.86m12.67 18.65q.3-.43.63-.85l.4-.48q.66-.8 1.38-1.56.68-.7 1.4-1.35l.8-.7.3-.23c.5-.4-.4.28.12-.1a27 27 0 0 1 3.26-2.05q.94-.46 1.9-.9c.33-.16-.53.2.08-.04l.48-.2 1.08-.4a2.4 2.4 0 1 0-1.28-4.62 30 30 0 0 0-8.1 4.2 32 32 0 0 0-6.6 6.86 2.4 2.4 0 0 0 .86 3.28 2.47 2.47 0 0 0 3.29-.86" class="c"/><path d="M340.27 224.29c-1.48-7.74-3.06-15.56-2.75-23.48a40 40 0 0 1 2.01-11.32c1.2-3.57 3.27-6.83 5.16-10.07a255 255 0 0 0 10.29-19.7c1.25-2.67 2.46-5.36 3.76-8 .34-.7 1.18-2.38 2.05-2.03.77.3.71 2.33.61 3.14a69 69 0 0 1-2.26 8.97l-2.54 9.64c-.78 2.99 3.85 4.27 4.63 1.28q1.22-4.7 2.48-9.4c.77-2.9 1.71-5.83 2.25-8.8.72-3.97-.15-9.23-5.04-9.63-4.25-.35-6.1 3.87-7.6 7.04a488 488 0 0 1-10.23 20.5c-1.97 3.71-4.27 7.25-6.15 11.02a40 40 0 0 0-3.78 12.43c-1.36 9.97.61 19.91 2.48 29.68a2.4 2.4 0 0 0 2.95 1.68 2.45 2.45 0 0 0 1.68-2.95" class="c"/><path d="M364.6 147.95c.85-2.48 1.56-5.02 2.58-7.43q.24-.59.53-1.15a5 5 0 0 1 .39-.69c-.2.25.08-.07.19-.14a1.8 1.8 0 0 1 2.13.1c.86.92.6 2.57.58 3.68q-.05 2.7-.25 5.4c-.26 3.5-.87 6.99-1.43 10.46a891 891 0 0 1-3.86 21.73c-1.3 6.88-2.15 14.13-4.63 20.7-.67 1.77-1.56 3.45-2.25 5.21a19 19 0 0 0-1.15 5.29c-.3 3.34.62 6.5 1.5 9.67.8 2.98 5.44 1.71 4.62-1.27-.8-2.94-1.67-5.74-1.28-8.81.45-3.52 2.44-6.57 3.57-9.89a80 80 0 0 0 2.6-10.95q1.15-6.02 2.28-12.05a722 722 0 0 0 4.06-23.69 91 91 0 0 0 1-10.87c.1-3.6-.16-7.95-4.14-9.4a7 7 0 0 0-5.15.21 6.6 6.6 0 0 0-3.18 3.41 86 86 0 0 0-3.33 9.2c-1 2.94 3.64 4.2 4.63 1.28Zm-61.58 50a95 95 0 0 0 18.14 25.11c2.2 2.18 5.59-1.21 3.4-3.4a91 91 0 0 1-17.4-24.13c-1.37-2.77-5.52-.34-4.14 2.42" class="c"/><path d="M380.47 240.37c-2.07-3.69-4-7.45-5.95-11.2q-1.52-2.96-3.08-5.9c-.98-1.84-1.82-4.13-3.98-4.84-1.86-.6-3.75.34-5.5.88q-2.77.87-5.55 1.68-6 1.76-11.99 3.56a200 200 0 0 0-11.09 3.6c-2.36.87-3.75 2.29-3.98 4.86a23 23 0 0 0 .3 5 193 193 0 0 0 3.45 19.24c2.07 8.68 4.98 17.38 9.61 25.05 1.6 2.64 5.75.23 4.15-2.42-6.93-11.46-9.52-24.67-11.72-37.68a49 49 0 0 1-1-9.04l.07-.35c-.03.05-.19.26 0 .14a4 4 0 0 1 .73-.29l2.6-.9q2.6-.87 5.23-1.69c7.08-2.2 14.23-4.15 21.3-6.39l1.27-.4c.12-.04 1.05-.29.7-.3-.07 0-.23-.04-.27-.12q.22.45.48.86l.76 1.43q1.56 2.91 3.07 5.86c2.05 3.95 4.08 7.9 6.25 11.78 1.51 2.7 5.66.28 4.15-2.42Z" class="c"/></svg>
