<svg xmlns="http://www.w3.org/2000/svg" viewBox="0 -22.13 434.933 434.933"><defs><style>.c{fill:#ffda71}.d{fill:#211715}.g{fill:#fff}.h{fill:#bdbdbd}</style></defs><path d="M217.19 0c-106.43 0-180 69.42-180 150.66 0 90.88 75.15 153.48 180 153.48 108.9 0 180-63.18 180-153.49C397.2 68.87 323.24 0 217.2 0" style="fill:#3f88c9"/><path d="M262.75 300.14a252 252 0 0 1-45.56 4c-62.5 0-114.45-22.25-146.21-59.47h43.55v-11.78h41.49v9.28h47.82v20.17h28.68v-16.11h21.2l4 9.06h22.7v14.62h9.35V225.3h22.72v8.2h60.3c-22.93 33.87-61.04 57.63-110.04 66.64" style="fill:#0066a5"/><path d="M191.06 62.74a.73.73 0 0 1-1.43.02c-.8-3.1-2.05-6.81-3.95-9.02-2.31-2.7-5.65-3.84-8.75-4.5a.73.73 0 0 1 0-1.43c3.07-.65 6.45-1.8 8.7-4.23 2.14-2.3 3.35-6.96 4.02-10.12a.73.73 0 0 1 1.44-.01c.75 3.15 2.1 7.82 4.24 10.13 2.22 2.4 5.44 3.56 8.42 4.2a.73.73 0 0 1-.01 1.44c-3.18.63-6.66 1.73-8.97 4.42-1.9 2.2-2.98 5.97-3.71 9.1" class="c"/><path d="m189.13 62.2-.1.25.51-.88.28-.2h1.07q.83.97.47.1-.1-.39-.22-.77-.17-.6-.36-1.18-.47-1.42-1.06-2.8a16 16 0 0 0-2.89-4.7 14 14 0 0 0-4.57-3.18c-1.64-.72-3.38-.99-5.03-1.62l.89.52v1.57l-.89.51c.91-.34 1.92-.47 2.85-.77a22 22 0 0 0 3.06-1.21 13 13 0 0 0 4.62-3.73 18 18 0 0 0 2.43-4.92c.61-1.76.81-3.73 1.5-5.45l-.52.88-.27.19h-1.07q-.81-1.02-.52-.2l.17.66q.18.7.39 1.38.36 1.29.82 2.53a19 19 0 0 0 2.66 5.14 13 13 0 0 0 4.56 3.58c1.8.88 3.7 1.2 5.54 1.9l-.88-.51-.01-1.57.88-.52c-1.76.65-3.6.9-5.34 1.65a13 13 0 0 0-4.48 3.08c-2.58 2.77-3.65 6.68-4.5 10.27-.59 2.5 3.27 3.58 3.86 1.07.74-3.14 1.55-6.79 4.02-9.06a11 11 0 0 1 4.05-2.24c1.45-.48 3.65-.51 4.67-1.77a2.73 2.73 0 0 0-1.2-4.26c-1.46-.52-3-.74-4.42-1.41a9.6 9.6 0 0 1-3.73-2.83 16 16 0 0 1-2.07-4.3c-.5-1.47-.78-3.01-1.27-4.48a2.77 2.77 0 0 0-4.3-1.46c-1.25.96-1.33 3.08-1.72 4.5a22 22 0 0 1-1.7 4.58c-1.59 2.97-4.66 4.3-7.8 5.08-1.7.43-3.4 1.18-3.11 3.27.26 1.95 2.04 2.24 3.62 2.67A14 14 0 0 1 183 53.9a11 11 0 0 1 3.17 4.61 30 30 0 0 1 1 2.88 9 9 0 0 0 1 2.83 2.7 2.7 0 0 0 2.72 1.03 2.9 2.9 0 0 0 2.1-1.97 2 2 0 0 0-1.4-2.46 2.05 2.05 0 0 0-2.45 1.4" class="d"/><path d="M85.77 168.9a.6.6 0 0 1-1.18 0c-.66-2.56-1.7-5.62-3.26-7.44-1.91-2.23-4.68-3.17-7.24-3.72a.6.6 0 0 1 0-1.18c2.54-.54 5.33-1.49 7.2-3.5 1.76-1.9 2.76-5.75 3.32-8.35a.6.6 0 0 1 1.18-.02c.62 2.61 1.73 6.46 3.5 8.38a13 13 0 0 0 6.96 3.47.6.6 0 0 1 0 1.18c-2.63.53-5.5 1.43-7.42 3.65-1.56 1.83-2.46 4.94-3.06 7.52" class="c"/><path d="m84.04 167.88.05-.02.88-.52.43.01.88.52c.4.34 0-.37-.05-.57a34 34 0 0 0-1.15-3.28 15 15 0 0 0-2.34-3.97 11 11 0 0 0-3.77-2.8 19 19 0 0 0-2.05-.82q-.52-.18-1.06-.32c-.2-.05-1.1-.45-.74-.05l.51.88v.42l-.51.88c-.37.4.53 0 .73-.04q.63-.16 1.24-.37a20 20 0 0 0 2.2-.9 11 11 0 0 0 3.94-3.1 15 15 0 0 0 2.1-4.15q.38-1.1.68-2.22l.25-.99c.06-.26.47-1.15.03-.73l-.88.51h-.43l-.88-.52c-.43-.38-.04.3.03.57q.15.58.32 1.15.3 1.05.67 2.05a16 16 0 0 0 2.06 4.12 11 11 0 0 0 3.84 3.2 18 18 0 0 0 2.21.95q.53.19 1.07.34c.2.06 1.27.5.93.12l-.52-.89v-.42l.51-.88-.16.17.89-.52c-1.37.57-2.9.73-4.28 1.32a12 12 0 0 0-4 2.67c-2.2 2.34-3.12 5.63-3.84 8.68-.6 2.5 3.26 3.57 3.86 1.06.61-2.62 1.3-5.77 3.49-7.56a10 10 0 0 1 3.5-1.7c1.4-.42 3.08-.44 3.78-1.93a2.63 2.63 0 0 0-1.68-3.62 23 23 0 0 1-4.08-1.42c-2.4-1.34-3.4-3.6-4.2-6.12a16 16 0 0 0-1.1-3.62 2.64 2.64 0 0 0-4.12-.39c-.85.91-.91 2.52-1.23 3.68a17 17 0 0 1-1.44 3.8c-1.3 2.34-3.87 3.33-6.36 3.93-1.43.35-2.7 1.1-2.64 2.8.08 1.97 1.8 2.31 3.35 2.74a9.1 9.1 0 0 1 6.54 5.8q.42 1.07.75 2.2a6 6 0 0 0 1.02 2.53 2.6 2.6 0 0 0 4.2-.64 2.06 2.06 0 0 0-.7-2.74 2 2 0 0 0-2.73.72" class="d"/><path d="M244.33 210.15a.63.63 0 0 1-1.22.02c-.69-2.65-1.75-5.82-3.37-7.7-1.98-2.3-4.84-3.28-7.49-3.85a.63.63 0 0 1 0-1.22c2.63-.56 5.52-1.54 7.44-3.61 1.83-1.98 2.86-5.95 3.44-8.65a.63.63 0 0 1 1.22-.01c.65 2.7 1.8 6.68 3.63 8.66a13.6 13.6 0 0 0 7.2 3.6.63.63 0 0 1-.01 1.22c-2.72.54-5.7 1.47-7.67 3.77-1.62 1.88-2.55 5.1-3.17 7.77" class="c"/><path d="M242.6 209.14h.04l.88-.52h.41l.88.52c.37.32-.02-.43-.07-.61l-.35-1.14q-.37-1.15-.84-2.26a15 15 0 0 0-2.53-4.22 12 12 0 0 0-3.76-2.74 20 20 0 0 0-2.2-.88L234 197c-.2-.06-1.09-.44-.74-.07l.51.89v.4l-.51.88c-.34.36.6-.02.78-.07q.65-.16 1.28-.38a20 20 0 0 0 2.26-.91 11 11 0 0 0 4.07-3.2 15 15 0 0 0 2.15-4.26 27 27 0 0 0 .96-3.33c.05-.23.46-1.18.05-.8l-.88.52h-.4l-.89-.52c-.4-.36-.01.37.05.62a29 29 0 0 0 1.03 3.32 17 17 0 0 0 2.13 4.24 11.4 11.4 0 0 0 3.94 3.29 19 19 0 0 0 2.27.97q.56.2 1.1.35c.18.05 1.3.48 1 .14l-.52-.88v-.4l.51-.88-.16.17.88-.51c-1.4.58-2.99.75-4.42 1.35a12 12 0 0 0-4.1 2.75c-2.27 2.41-3.22 5.8-3.96 8.95-.6 2.5 3.26 3.57 3.86 1.06.65-2.77 1.38-6.14 3.77-7.97a11 11 0 0 1 3.51-1.66c1.5-.44 3.38-.47 3.96-2.2a2.66 2.66 0 0 0-1.8-3.4 24 24 0 0 1-4.23-1.48c-2.49-1.39-3.55-3.76-4.37-6.38a17 17 0 0 0-1.13-3.72 2.66 2.66 0 0 0-4.15-.4c-.87.94-.93 2.59-1.26 3.78a18 18 0 0 1-1.5 3.94c-1.38 2.5-4.15 3.53-6.8 4.15-1.56.36-2.86 1.55-2.42 3.3s2.16 1.9 3.62 2.34a9.4 9.4 0 0 1 6.53 5.95q.44 1.12.78 2.28a7 7 0 0 0 .88 2.4 2.62 2.62 0 0 0 4.4-.45 2.06 2.06 0 0 0-.72-2.74 2 2 0 0 0-2.73.72" class="d"/><path d="M168.19 185.4v31.82c0 2.58 4 2.58 4 0V185.4c0-2.57-4-2.57-4 0" class="c"/><path d="M168.19 149.78v11.72a2 2 0 1 0 4 0v-11.72a2 2 0 1 0-4 0m0-52.4v11.71a2 2 0 1 0 4 0V97.38a2 2 0 0 0-4 0m-18.34 30.06h-11.72a2 2 0 0 0 0 4h11.72a2 2 0 1 0 0-4m52.4 0h-11.72a2 2 0 0 0 0 4h11.72a2 2 0 1 0 0-4m-23.62 20.63 5.86 10.14a2 2 0 0 0 3.46-2.02l-5.86-10.14a2 2 0 1 0-3.46 2.02m-26.2-45.39 5.86 10.15a2 2 0 1 0 3.45-2.02l-5.85-10.15a2 2 0 0 0-3.46 2.02m-.87 35.2-10.14 5.86a2 2 0 1 0 2.02 3.45l10.14-5.85a2 2 0 0 0-2.02-3.46m45.38-26.2-10.14 5.86a2 2 0 0 0 2.02 3.45l10.14-5.85a2 2 0 1 0-2.02-3.46m-38.65 34.37-5.86 10.14a2 2 0 1 0 3.46 2.02l5.85-10.14a2 2 0 1 0-3.45-2.02m26.2-45.39-5.86 10.15a2 2 0 1 0 3.46 2.02l5.86-10.15a2 2 0 0 0-3.46-2.01m2.31 40.68 10.14 5.85a2 2 0 1 0 2.02-3.45l-10.14-5.86a2 2 0 0 0-2.02 3.46m-45.38-26.2 10.14 5.85a2 2 0 0 0 2.02-3.45l-10.14-5.86a2 2 0 1 0-2.02 3.46" style="fill:#95cbeb"/><path d="M172.98 171.14a2.8 2.8 0 0 0-.63-2.15 2.7 2.7 0 0 0-2.3-.93 2.83 2.83 0 0 0-1.28 5.26 3 3 0 0 0 2.43.17 2.8 2.8 0 0 0 1.78-2.36m0-82.86a2.8 2.8 0 0 0-.63-2.14 2.7 2.7 0 0 0-2.3-.93 2.83 2.83 0 0 0-1.28 5.26 3 3 0 0 0 2.43.17 2.8 2.8 0 0 0 1.78-2.36M213 126.65a3 3 0 0 0-2.15.63 2.7 2.7 0 0 0-.93 2.3 2.83 2.83 0 0 0 5.27 1.28 3 3 0 0 0 .16-2.43 2.8 2.8 0 0 0-2.35-1.78m-85.1 0a3 3 0 0 0-2.14.63 2.7 2.7 0 0 0-.93 2.3 2.83 2.83 0 0 0 5.26 1.28 3 3 0 0 0 .17-2.43 2.8 2.8 0 0 0-2.36-1.78m65.54 37.5a2.8 2.8 0 0 0-1.61-1.54 2.7 2.7 0 0 0-2.46.34 2.83 2.83 0 0 0 1.52 5.2 3 3 0 0 0 2.19-1.07 2.8 2.8 0 0 0 .36-2.93M152.03 92.4a3 3 0 0 0-1.62-1.54 2.7 2.7 0 0 0-2.46.34 2.83 2.83 0 0 0 1.52 5.2 3 3 0 0 0 2.2-1.07 2.8 2.8 0 0 0 .36-2.93m53.85 13.21a2.8 2.8 0 0 0-1.55 1.62 2.7 2.7 0 0 0 .35 2.46 2.83 2.83 0 0 0 5.2-1.52 3 3 0 0 0-1.07-2.2 2.8 2.8 0 0 0-2.93-.36m-73.7 42.55a2.8 2.8 0 0 0-1.54 1.62 2.7 2.7 0 0 0 .34 2.46 2.83 2.83 0 0 0 5.2-1.52 3 3 0 0 0-1.07-2.2 2.8 2.8 0 0 0-2.93-.36m14.73 16a2.8 2.8 0 0 1 1.62-1.55 2.7 2.7 0 0 1 2.46.34 2.83 2.83 0 0 1-1.52 5.2 3 3 0 0 1-2.2-1.07 2.8 2.8 0 0 1-.36-2.93m41.43-71.76a3 3 0 0 1 1.61-1.54 2.7 2.7 0 0 1 2.46.34 2.83 2.83 0 0 1-1.52 5.2 3 3 0 0 1-2.19-1.07 2.8 2.8 0 0 1-.36-2.93m-53.85 13.21a2.8 2.8 0 0 1 1.54 1.62 2.7 2.7 0 0 1-.34 2.46 2.83 2.83 0 0 1-5.2-1.52 3 3 0 0 1 1.07-2.2 2.8 2.8 0 0 1 2.93-.36m73.7 42.55a2.8 2.8 0 0 1 1.54 1.62 2.7 2.7 0 0 1-.35 2.46 2.83 2.83 0 0 1-5.2-1.52 3 3 0 0 1 1.07-2.2 2.8 2.8 0 0 1 2.93-.36m-35.91-7.18a2.31 2.31 0 0 1-4.26.07 18 18 0 0 0-3.2-5.62 14.4 14.4 0 0 0-5.68-3.69 2.1 2.1 0 0 1 .03-4.01 15 15 0 0 0 5.6-3.4 17 17 0 0 0 3.38-6.37 2.3 2.3 0 0 1 4.31-.05 18 18 0 0 0 3.52 6.42 15 15 0 0 0 5.34 3.34 2.1 2.1 0 0 1-.14 3.99 14 14 0 0 0-5.85 3.66 17 17 0 0 0-3.05 5.66m104.36 13.38v50.53c0 2.57 4 2.58 4 0v-50.53c0-2.58-4-2.58-4 0" class="c"/><path d="M277.61 111.84v14.54a2 2 0 0 0 4 0v-14.54a2 2 0 0 0-4 0m0-65.06v14.54a2 2 0 0 0 4 0V46.78a2 2 0 0 0-4 0m-23.25 37.8H239.8a2 2 0 0 0 0 4h14.55a2 2 0 0 0 0-4m63.12 0h-14.2a2 2 0 0 0 0 4h14.2a2 2 0 0 0 0-4m-26.96 24.88 7.27 12.6a2 2 0 1 0 3.45-2.02l-7.27-12.6a2 2 0 0 0-3.45 2.02m-32.53-56.34 7.27 12.6a2 2 0 0 0 3.45-2.03l-7.27-12.59a2 2 0 1 0-3.45 2.02m-1.26 44.36-12.6 7.27a2 2 0 0 0 2.03 3.46l12.59-7.28a2 2 0 1 0-2.02-3.45m54.53-32.04-12.28 7.09a2 2 0 0 0 2.02 3.45l12.29-7.1a2 2 0 0 0-2.02-3.44Zm-46 42-7.27 12.6a2 2 0 1 0 3.45 2.01l7.27-12.59a2 2 0 0 0-3.45-2.02m31.07-55.5-7.1 12.29a2 2 0 1 0 3.46 2.01l7.1-12.28a2 2 0 0 0-3.46-2.02m4.15 49 12.6 7.27a2 2 0 0 0 2.01-3.46l-12.59-7.27a2 2 0 1 0-2.02 3.45M244.14 68.4l12.59 7.27a2 2 0 1 0 2.02-3.45l-12.6-7.27a2 2 0 0 0-2.01 3.45" style="fill:#febe69"/><path d="M282.02 137.08a3.5 3.5 0 0 0-.76-2.6 3.3 3.3 0 0 0-2.79-1.12 3.43 3.43 0 0 0-1.55 6.37 3.6 3.6 0 0 0 2.95.2 3.4 3.4 0 0 0 2.15-2.85m0-100.35a3.5 3.5 0 0 0-.76-2.6 3.3 3.3 0 0 0-2.79-1.13 3.43 3.43 0 0 0-1.55 6.38 3.6 3.6 0 0 0 2.94.2 3.4 3.4 0 0 0 2.16-2.85m53.49 46.47a3.4 3.4 0 0 0-2.6.76 3.3 3.3 0 0 0-1.13 2.79 3.43 3.43 0 0 0 6.38 1.55 3.6 3.6 0 0 0 .2-2.94 3.4 3.4 0 0 0-2.85-2.16m-108.07 0a3.5 3.5 0 0 0-2.6.76 3.3 3.3 0 0 0-1.13 2.79 3.43 3.43 0 0 0 6.38 1.55 3.6 3.6 0 0 0 .2-2.94 3.4 3.4 0 0 0-2.85-2.16m79.38 45.43a3.4 3.4 0 0 0-1.96-1.87 3.3 3.3 0 0 0-2.97.41 3.43 3.43 0 0 0 1.84 6.3 3.6 3.6 0 0 0 2.65-1.3 3.4 3.4 0 0 0 .44-3.54m-50.18-86.91a3.4 3.4 0 0 0-1.95-1.87 3.3 3.3 0 0 0-2.98.41 3.43 3.43 0 0 0 1.84 6.3 3.6 3.6 0 0 0 2.65-1.3 3.4 3.4 0 0 0 .44-3.54m65.23 16a3.4 3.4 0 0 0-1.87 1.96 3.3 3.3 0 0 0 .42 2.97 3.43 3.43 0 0 0 6.3-1.84 3.6 3.6 0 0 0-1.3-2.65 3.4 3.4 0 0 0-3.55-.44m-89.26 51.54a3.4 3.4 0 0 0-1.87 1.95 3.3 3.3 0 0 0 .41 2.98 3.43 3.43 0 0 0 6.3-1.84 3.6 3.6 0 0 0-1.3-2.65 3.4 3.4 0 0 0-3.54-.44m17.84 19.37a3.4 3.4 0 0 1 1.96-1.87 3.3 3.3 0 0 1 2.97.41 3.43 3.43 0 0 1-1.84 6.3 3.6 3.6 0 0 1-2.65-1.3 3.4 3.4 0 0 1-.44-3.54m50.18-86.91a3.4 3.4 0 0 1 1.95-1.87 3.3 3.3 0 0 1 2.98.41 3.43 3.43 0 0 1-1.84 6.3 3.6 3.6 0 0 1-2.65-1.3 3.4 3.4 0 0 1-.44-3.54m-65.23 16a3.4 3.4 0 0 1 1.87 1.96 3.3 3.3 0 0 1-.42 2.97 3.43 3.43 0 0 1-6.3-1.84 3.6 3.6 0 0 1 1.3-2.65 3.4 3.4 0 0 1 3.55-.44m89.26 51.54a3.4 3.4 0 0 1 1.87 1.95 3.3 3.3 0 0 1-.41 2.98 3.43 3.43 0 0 1-6.3-1.84 3.6 3.6 0 0 1 1.3-2.65 3.4 3.4 0 0 1 3.54-.44" class="c"/><path d="M281.18 100.55a2.8 2.8 0 0 1-5.17.1 22 22 0 0 0-3.86-6.81 17.5 17.5 0 0 0-6.9-4.47 2.55 2.55 0 0 1 .04-4.86 18 18 0 0 0 6.79-4.12c1.79-1.83 3.11-4.76 4.09-7.72a2.8 2.8 0 0 1 5.23-.05c1.06 2.97 2.45 5.93 4.25 7.77a18 18 0 0 0 6.47 4.04 2.55 2.55 0 0 1-.17 4.84 17 17 0 0 0-7.08 4.43 20 20 0 0 0-3.7 6.85M98.75 52.11c5.5.07 9.8 4.11 9.66 9.7a2 2 0 0 0 2 2 10.2 10.2 0 0 1 7.88 2.12 9.6 9.6 0 0 1 3.34 6.88c.22 5.34-3.3 9.94-8.8 10.28-3.17.19-6.4.02-9.57.02H71.63c-2.57 0-2.58 4 0 4h32.4c3.7 0 7.81.44 11.44-.4a13.46 13.46 0 0 0 10.15-14.07 13.65 13.65 0 0 0-15.21-12.82l2 2c.2-7.79-6.03-13.61-13.66-13.71-2.57-.04-2.58 3.96 0 4" class="g"/><path d="M154.02 232.9v25.17c0 2.57 4 2.58 4 0v-25.18c0-2.57-4-2.57-4 0" class="d"/><path d="M114.53 234.9h41.49c2.57 0 2.57-4 0-4h-41.5c-2.57 0-2.57 4 0 4" class="d"/><path d="M116.53 252.28v-19.39c0-2.57-4-2.57-4 0v19.39c0 2.57 4 2.58 4 0" class="d"/><path d="M100.92 246.67h13.6a2 2 0 0 0 0-4h-13.6a2 2 0 0 0 0 4m71.27 17.67h60.33c2.57 0 2.58-4 0-4H172.2c-2.57 0-2.57 4 0 4m108.24 7.57h18.68c2.57 0 2.58-4 0-4h-18.68c-2.58 0-2.58 4 0 4" class="d"/><path d="M234.52 262.34v-16.11l-2 2h21.2l-1.72-1 3.99 9.07a2 2 0 0 0 1.73 1h22.7l-2-2v14.61c0 2.57 4 2.58 4 0v-14.62a2.03 2.03 0 0 0-2-2h-22.7l1.72 1-3.99-9.07a2 2 0 0 0-1.72-1h-21.2a2.03 2.03 0 0 0-2 2v16.12c0 2.57 4 2.58 4 0m-28.68 0v-20.12c0-2.57-4-2.58-4 0v20.12c0 2.57 4 2.58 4 0" class="d"/><path d="M203.2 240.22h-47.18c-2.58 0-2.58 4 0 4h47.19c2.57 0 2.57-4 0-4m109.3-4.72h27.78c2.57 0 2.58-4 0-4H312.5c-2.57 0-2.57 4 0 4" class="d"/><path d="M291.78 269.92V225.3l-2 2h22.71l-2-2v8.22h4v-.63c0-2.57-4-2.57-4 0v.63c0 2.57 4 2.58 4 0v-8.22a2.03 2.03 0 0 0-2-2h-22.71a2.03 2.03 0 0 0-2 2v44.61c0 2.58 4 2.58 4 0Zm-13.09-38.42h-69.95c-2.58 0-2.58 4 0 4h69.95c2.58 0 2.58-4 0-4m-132.1 48.42h44.67c2.57 0 2.58-4 0-4h-44.67c-2.57 0-2.58 4 0 4" class="d"/><path d="M377.16 158.42a17.9 17.9 0 0 0-13.82-10.4 19.4 19.4 0 0 0-17.07 5.9c-1.7 1.92 1.12 4.76 2.83 2.83a15.5 15.5 0 0 1 13.56-4.82 15 15 0 0 1 6.5 2.65 14 14 0 0 1 4.54 5.85 2 2 0 0 0 2.73.72 2.05 2.05 0 0 0 .72-2.73Zm-23.65 7.55c-3.87-5.76-11.82-7.5-18.04-4.8a16 16 0 0 0-7.83 6.92 18.6 18.6 0 0 0-2.14 10.88 13.7 13.7 0 0 0 5.36 9.45 16.7 16.7 0 0 0 9.57 3.02c5.63.26 11.32.05 16.96.05l22.8.01c2.58 0 2.58-4 0-4l-33.47-.02c-5.28 0-11.65.7-15.3-4-3.7-4.78-2.2-12.89 2.3-16.62a12 12 0 0 1 8.91-2.89 9.9 9.9 0 0 1 7.43 4.02c1.43 2.13 4.9.13 3.45-2.02m-16.65 141.36-7.44-5.1c-1.03-2.3-2.83-4.66-5-4.85a5 5 0 0 0-4.23 1.36c-3.87 4.4-2.44 13.69-.73 19.3a86 86 0 0 0 6.5 16.36l3.03 4.84c3.96-2.69 8.4-5.93 12.8-8.53l.04-.05c3.32-3.82 5-10.4 6.97-15.16Z" class="g"/><path d="M407.05 304.81a45.1 45.1 0 0 0 11.04-51.97c-7.84-17.49-19.33-22.3-26.55-24.53a47 47 0 0 0-21.4-1.2c-14.33 2.3-22.22 10.76-23.66 12.7a32.4 32.4 0 0 0-6.36 13.33 46 46 0 0 0-1.68 7.8c-1.23 5.9-2.9 14.07-8.85 16.04a5.6 5.6 0 0 0-2.96 2.08c-1.82 2.72.48 4.5 1.76 6.47a9 9 0 0 1 1.37 4.21 57 57 0 0 0-.3 8.75 24 24 0 0 0 .9 6.07 11.5 11.5 0 0 0 5.21 6.84c4.2 2.44 10.23 4.12 14.4 3.75a2 2 0 0 1 2.11 1.57 53 53 0 0 1 2.08 6.93l2.15 6.5a5 5 0 0 1 .71-.8c2.62-2.23 9.96-6.35 16.05-8.03 6.63-1.82 15.73-3.56 18.7-3.68 2.59-3.85 8.08-6.99 11.46-9.58 1.18-.9 2.48-1.99 3.82-3.25" class="g"/><path d="M369.11 227.28c-13.68 2.54-21.23 10.63-22.63 12.52a34 34 0 0 0-4.9 8.51 36.3 36.3 0 0 0 12.17 20.62s4.8.49 7.89.8a36 36 0 0 0 9.31 9.82 6.5 6.5 0 0 1 2.76-.68 5.7 5.7 0 0 1 4.56 1.8c1.61 1.85 1.84 4.99 1.17 7.38a14.4 14.4 0 0 1-6.96 9.2l-.18 1.79a25 25 0 0 0 4 11.09c2.2 2.91 8.54 5.87 12.49 7.09l2.72.82c2.46-4.04 8.22-7.31 11.72-9.99 6.31-4.82 16-14.7 18.34-30.41a46.6 46.6 0 0 0-3.48-24.8c-7.84-17.5-19.33-22.3-26.55-24.54a47 47 0 0 0-21.4-1.2z" class="h"/><path d="M356.09 323.1a56 56 0 0 0-2.18-7.24 4.1 4.1 0 0 0-3.95-2.72 24 24 0 0 1-4.18-.2 28 28 0 0 1-9.04-3.18 10 10 0 0 1-4.66-6.49c-.93-3.57-.79-7.5-.54-11.14a13 13 0 0 0-.22-4.9 13 13 0 0 0-2.27-4.18c-.7-.94-1.53-1.87-.7-2.98.82-1.1 2.36-1.3 3.5-1.9a13 13 0 0 0 5.32-6c3.08-6.39 3.09-13.6 5.45-20.2.87-2.43-3-3.48-3.86-1.07-2.14 5.99-2.22 12.5-4.65 18.4-.9 2.16-2.23 4.42-4.41 5.48-1.39.68-2.75 1.05-3.9 2.16a5.7 5.7 0 0 0-1.79 4.73c.4 3.07 3.7 4.86 3.75 8.07.03 1.63-.3 3.32-.34 4.96a45 45 0 0 0 .21 6.12 17.5 17.5 0 0 0 3.66 9.57c1.95 2.33 4.77 3.66 7.55 4.75a29 29 0 0 0 10.8 2.02c.57 0 .37-.12.54.18a7 7 0 0 1 .43 1.2 49 49 0 0 1 1.62 5.63c.56 2.51 4.41 1.45 3.86-1.06Z" class="d"/><path d="M341.98 253.96a32 32 0 0 1 3.47-9.07q1.19-1.95 2.54-3.77c.6-.85-.24.23.27-.36l.57-.65a35 35 0 0 1 10.54-7.59 44.8 44.8 0 0 1 37.46-.07c10.81 5.14 18.42 15.75 21.54 27.15a43 43 0 0 1 .16 22.79 44 44 0 0 1-8.58 16.44 54 54 0 0 1-10.88 9.75 42 42 0 0 0-7.55 6.15 12 12 0 0 0-3.23 7.6 38 38 0 0 0-.03 4.59c.14 2.56 4.14 2.57 4 0-.15-2.63-.4-5.66 1.02-7.96 1.65-2.64 4.44-4.56 6.94-6.32a64 64 0 0 0 11.96-10.28 47.5 47.5 0 0 0 10.7-41.14c-2.7-12.7-10.72-25.1-22.3-31.35a48.5 48.5 0 0 0-38.97-2.6 42 42 0 0 0-14.18 8.58 32 32 0 0 0-7.7 11.75 40 40 0 0 0-1.6 5.3c-.6 2.5 3.25 3.57 3.85 1.07Z" class="d"/><path d="M420.18 340.66a39 39 0 0 0-18.34-15l-2.72-2.17c-2.83-4.64-4.76-5.94-7.29-5.86-2.9.1-12.08 1.84-18.76 3.68-6.1 1.67-13.43 5.8-16.05 8.02l-.34.34-10.03-1.51c-7.78 3.5-16.22 10.54-22.45 14.15a3.5 3.5 0 0 0-1.6 3.58 32 32 0 0 0 4.11 10.41l2.76 7.12.11.27c-2.27 7.23-5.44 18.93-6.1 24.98h109.5c-1.96-13.2-4.67-28.06-7.98-38.14a41 41 0 0 0-4.82-9.87" style="fill:#a095c1"/><path d="M370.6 282.1c1.94-1.34 5.24-2.05 6.6.52 1.15 2.2.5 4.93-.44 7.07-2.07 4.67-6.32 6.93-11.2 7.77a2 2 0 0 0-1.4 2.46 2.05 2.05 0 0 0 2.47 1.4c5.03-.87 9.68-3.27 12.5-7.64 2.89-4.46 4.4-11.97-.7-15.5-2.99-2.06-7-1.49-9.86.47a2.05 2.05 0 0 0-.72 2.74 2 2 0 0 0 2.74.71Zm-30.29-12.75c-.97 1.6-1.73 5.64 1.28 6.82 4.1 1.08 5.64-3.65 4.87-6.28-.62-2.15-3.73-3.81-6.15-.53m12.1 67.07c-4.69 2.18-9.28 4.47-13.25 7.84a35 35 0 0 0-8.32 10.65 52 52 0 0 0-3.26 8.48q-1.82 5.83-3.34 11.75a105 105 0 0 0-2.71 13.14 2 2 0 0 0 2 2 2.05 2.05 0 0 0 2-2c.9-7.22 3.24-15.05 5.41-22.23a154 154 0 0 1 2.03-6.2l.26-.7c.19-.51-.14.3.06-.15a34 34 0 0 1 7.45-10.8c3.95-3.71 8.83-6.07 13.7-8.33a2 2 0 0 0 .71-2.73 2.05 2.05 0 0 0-2.74-.72m42.47-10.82a127 127 0 0 0-18.81 3.09 90 90 0 0 0-15.14 5.57 2 2 0 0 0-.72 2.73 2.05 2.05 0 0 0 2.74.72 85 85 0 0 1 14.18-5.16 120 120 0 0 1 17.75-2.95 2.06 2.06 0 0 0 2-2 2 2 0 0 0-2-2" class="d"/><path d="M400.85 322.49c-1.93-3.13-4.35-6.57-8.34-6.84a20 20 0 0 0-4.07.36q-2.84.42-5.66.99a90 90 0 0 0-12.8 3.2 57 57 0 0 0-11.55 5.66 13 13 0 0 0-4.1 3.63 36 36 0 0 0-2.83 6.06 2 2 0 0 0 1.4 2.46 2.05 2.05 0 0 0 2.46-1.4 41 41 0 0 1 2-4.4 7 7 0 0 1 2.6-2.57 52 52 0 0 1 9.96-5.17 74 74 0 0 1 11.26-3.07 86 86 0 0 1 9.65-1.7 9 9 0 0 1 1.68-.06 4 4 0 0 1 1.22.45c1.62.97 2.7 2.85 3.67 4.41 1.35 2.18 4.8.18 3.45-2.02Zm2.1 5.78a38.5 38.5 0 0 1 17.92 17.52 59 59 0 0 1 4.17 12.07c1.21 4.68 2.22 9.4 3.12 14.15a420 420 0 0 1 2.88 17.19 2 2 0 0 0 2.46 1.4 2.05 2.05 0 0 0 1.4-2.46 306 306 0 0 0-5.8-30.56 69 69 0 0 0-4.35-12.94 43 43 0 0 0-7.8-11.2 40 40 0 0 0-11.98-8.62 2.06 2.06 0 0 0-2.73.72 2 2 0 0 0 .71 2.73m-63.33-79.55a38.3 38.3 0 0 0 12.72 21.62 2.05 2.05 0 0 0 2.82 0 2 2 0 0 0 0-2.82 35 35 0 0 1-11.68-19.86 2 2 0 0 0-2.46-1.4 2.04 2.04 0 0 0-1.4 2.45Zm13.91 10.65c3.78 7.43 7.79 15.11 14.41 20.42a2.06 2.06 0 0 0 2.83 0 2 2 0 0 0 0-2.83c-6.38-5.11-10.15-12.46-13.79-19.6-1.16-2.3-4.62-.27-3.45 2.02Z" class="d"/><path d="M370.3 299.04a26 26 0 0 0 1.68 7.04 18 18 0 0 0 3.65 6.29 23 23 0 0 0 5.86 3.99 43 43 0 0 0 6.77 2.79c2.46.77 3.52-3.1 1.06-3.86a37 37 0 0 1-5.68-2.33 21 21 0 0 1-5.03-3.27 7 7 0 0 1-1.49-1.98 20 20 0 0 1-1.28-2.69 24 24 0 0 1-1.54-5.98 2.05 2.05 0 0 0-2-2 2 2 0 0 0-2 2m-42.62 34.36a75 75 0 0 1-4.76-11.13 58 58 0 0 1-2.96-11.25c-.4-3.1-.61-6.84.9-9.7a3.1 3.1 0 0 1 3.35-1.96c1.74.24 2.83 2.5 3.48 3.89a2 2 0 0 0 2.74.72 2.05 2.05 0 0 0 .71-2.74c-1.65-3.55-4.52-6.4-8.69-5.75-3.57.56-5.5 3.77-6.23 7.06-1.58 6.95.61 14.25 2.85 20.8a81 81 0 0 0 5.16 12.08c1.21 2.27 4.67.25 3.45-2.02m19.19-18.43c-1.04 2.54-1.89 5.15-2.9 7.7a35 35 0 0 1-1.57 3.52 24 24 0 0 1-1.5 2.47l-.48.6a2.05 2.05 0 0 0 0 2.82 2 2 0 0 0 2.83 0c3.89-4.56 5.25-10.62 7.48-16.05a2 2 0 0 0-1.4-2.46 2.05 2.05 0 0 0-2.46 1.4" class="d"/><path d="M345.64 326.43c-7.13 3.26-13.25 8.26-19.78 12.5-1.38.9-3.03 1.6-4.07 2.9a6 6 0 0 0-.92 5.48 37 37 0 0 0 4.11 10c1.3 2.23 4.75.22 3.46-2.02a33 33 0 0 1-3.55-8.42c-.4-1.55-.55-2.3.9-3.17a83 83 0 0 0 3.98-2.57c5.82-3.95 11.46-8.3 17.89-11.25a2 2 0 0 0 .72-2.73 2.05 2.05 0 0 0-2.74-.72m-14.56-35.2.39.14c.1.03.43.2.06.01q.33.15.65.34c.32.19.4.25.6.38.32.2-.14-.14.04.01l.23.2a7 7 0 0 1 .53.53c.04.04.26.29.08.08s.06.09.1.14l.3.54c.13.19-.1-.4-.02-.05l.11.39c.01.04.1.41.05.18-.05-.26.02.21.02.27.01.25-.02.5 0 .75s.07-.35 0 .03l-.08.32-.12.4c-.04.2.15-.27-.02.06l-.4.7c-.11.2.19-.2-.05.07l-.22.23-.3.29c-.07.06-.38.29-.06.06q-.35.25-.72.47a2 2 0 0 0 2.02 3.46 8 8 0 0 0 3.19-3.26 7.7 7.7 0 0 0 .6-4.92c-.58-2.85-3.29-4.84-5.91-5.67a2 2 0 0 0-2.46 1.4 2.04 2.04 0 0 0 1.4 2.46Zm9.83 3.8a7 7 0 0 1 .37 1.49l-.07-.54a7 7 0 0 1 0 1.83l.06-.53a8 8 0 0 1-.15.79 2 2 0 0 0 .2 1.54 2 2 0 0 0 3.65-.48 9 9 0 0 0-.2-5.17 2.2 2.2 0 0 0-.92-1.2 2 2 0 0 0-1.54-.2 2 2 0 0 0-1.2.92 2 2 0 0 0-.2 1.54Zm57.8 50.7a64 64 0 0 1 2.7 10.65 2 2 0 0 0 2.47 1.4 2.06 2.06 0 0 0 1.4-2.46 64 64 0 0 0-2.71-10.64 2 2 0 1 0-3.86 1.06Zm34.26 40.94H323.53c-2.58 0-2.58 4 0 4h109.44c2.58 0 2.58-4 0-4" class="d"/><path d="M91.25 243.48a32.5 32.5 0 0 0-7.1-13.28c-1.54-1.86-9.84-9.9-24.26-11.5a47 47 0 0 0-21.32 2.27c-7.1 2.59-18.34 7.98-25.29 25.84a46.6 46.6 0 0 0-2.23 24.94c3.13 15.58 13.3 24.95 19.84 29.46 3.35 2.3 8.64 5.01 11.54 8.49a5 5 0 0 1 3.34-1.03c2.9.09 12.08 1.84 18.77 3.68a55 55 0 0 1 14.94 7.17l1.2-5.2a53 53 0 0 1 1.73-7.03 2 2 0 0 1 2.04-1.68c4.17.16 10.11-1.81 14.18-4.46a11.5 11.5 0 0 0 4.86-7.1 24 24 0 0 0 .6-6.1 57 57 0 0 0-.75-8.72 9 9 0 0 1 1.17-4.27c1.17-2.04 3.38-3.93 1.43-6.55a5.6 5.6 0 0 0-3.07-1.93c-6.03-1.67-8.12-9.76-9.64-15.58a45 45 0 0 0-2.72-9.37" class="g"/><path d="M46.7 256.87c-2.3.02-4.57.1-6.7.22-11.03.62-21.7 2.91-29.73 7.08a41 41 0 0 0 .78 7.58c3.13 15.58 13.3 24.95 19.84 29.46 1.17.8 2.56 1.64 4.01 2.56l1.13-.38c2.11-1.01 3.4-1.28 5.5-2.3 7.87-3.77 14.85-6.74 20.53-14.2a15 15 0 0 1-4.41-6.86c-.79-2.36-.72-5.5.8-7.42a5.7 5.7 0 0 1 4.46-2.03 8 8 0 0 1 5.2 1.97c-.16-2.71-.67-6.46.78-8.65.74-1.12 1.98-2.2 1.52-3.5-.39-1.07-1.9-1.96-3.51-2.39a87 87 0 0 0-11.83-1.05c-2.67-.1-5.54-.13-8.38-.1" class="h"/><path d="M139.86 329.76a12.5 12.5 0 0 1-5.96 5.44c-.97 2.34-2.15 4.94-3.43 7.54a331 331 0 0 0-15.22-11.54l-.89-2.24c-1.52-3.85-3.23-7.37-3.4-11.51-.03-.95.21-2.34.1-3.29a18 18 0 0 0-.5-2.37l-2.12-8.3c-.51-2-.93-4.4.48-5.93 1.44-1.56 4.18-1.19 5.74.26a12.3 12.3 0 0 1 2.95 5.64l.14.45.48-.86c.85-1.5 8.26-17.74 9.04-19.15.72-1.3 2.08-3.18 4.89-2.45 2.63.67 3.21 3.14 2.33 5.72-.62 1.84-2.7 7.33-4.54 12.24a9.3 9.3 0 0 1 5.35.96 4 4 0 0 1 1.93 3.8 4.2 4.2 0 0 1 3.2 1.47c.86.87 1.52 1.9 2.4 2.74.65.61 1.4 1.1 2 1.77 1.83 2.06 1.57 5.32.33 7.78s-2.23 5.44-3.43 8.16a32 32 0 0 1-1.87 3.67" class="g"/><path d="M131.55 335.64a113 113 0 0 1-8.42 16.13 2 2 0 0 0 3.46 2.02 113 113 0 0 0 8.41-16.14 2.07 2.07 0 0 0-.71-2.73 2 2 0 0 0-2.74.72m-15.26-7.22c-1.47-3.68-3.48-7.6-3.32-11.66a19 19 0 0 0 .09-2.6 22 22 0 0 0-.69-3.37l-1.58-6.22c-.38-1.48-1.15-3.4-.75-4.94.33-1.33 1.8-1.28 2.8-.7 1.45.86 2.11 2.77 2.6 4.29a58 58 0 0 1 1.54 5.74c.54 2.51 4.4 1.45 3.86-1.07-.75-3.48-1.6-7.53-3.8-10.4-2.02-2.62-5.93-4.04-8.84-1.93-3.24 2.36-2.17 6.58-1.33 9.85l1.52 5.99a22 22 0 0 1 .67 2.81 16 16 0 0 1-.1 2.55c-.18 4.46 1.86 8.69 3.47 12.73a2.06 2.06 0 0 0 2.46 1.4 2 2 0 0 0 1.4-2.46Z" class="d"/><path d="M119.96 304.06c1.26-2.27 2.26-4.7 3.36-7.06q2.27-4.9 4.57-9.8c.36-.77.7-1.55 1.11-2.3a3 3 0 0 1 1.34-1.5 2.05 2.05 0 0 1 2.28.57c.82 1.17-.19 3.08-.62 4.26q-.97 2.65-1.96 5.28c-1.6 4.24-3.25 8.47-4.7 12.76-.84 2.44 3.03 3.49 3.85 1.06 1.43-4.2 3.05-8.32 4.6-12.47l2.18-5.84c1.08-2.92 1.32-4.05.56-6.1a5.9 5.9 0 0 0-7.25-3.38 7 7 0 0 0-3.96 3.8c-1.5 3-2.85 6.06-4.26 9.09-1.49 3.2-2.84 6.52-4.55 9.6-1.24 2.26 2.21 4.28 3.46 2.03Z" class="d"/><path d="M130.4 301.35c1.9-.27 5.03.4 4.84 2.81a2 2 0 0 0 2 2c1.64-.03 2.66 1.97 3.63 3.05.94 1.04 2.46 1.77 3 3.11a5.6 5.6 0 0 1-.14 3.9c-.57 1.61-1.41 3.16-2.05 4.75-2.12 5.25-4.1 11.27-10.15 12.92-2.48.67-1.42 4.53 1.07 3.85a14.6 14.6 0 0 0 8.3-5.9c2.33-3.31 3.53-7.26 5.1-10.96.82-1.91 1.8-3.63 2.06-5.72a8.2 8.2 0 0 0-1.07-5.46c-1.05-1.65-2.83-2.73-4.07-4.25-1.47-1.8-3.23-3.33-5.68-3.28l2 2c.42-5.36-5.6-7.29-9.9-6.67a2 2 0 0 0-1.4 2.46 2.05 2.05 0 0 0 2.46 1.4Zm-62.28-31.2a9.1 9.1 0 0 0-9.15-.55c-2.73 1.48-3.9 4.62-3.81 7.6.13 5.15 3.49 10.23 7.85 12.84a21 21 0 0 0 8.53 2.65 2 2 0 0 0 2-2 2.05 2.05 0 0 0-2-2c-4.77-.58-8.9-2.8-11.11-7.14-1.05-2.06-1.87-4.77-.84-7 1.2-2.61 4.47-2.2 6.5-.95 2.2 1.35 4.22-2.1 2.03-3.46" class="d"/><path d="M11.27 265.9c9.05-4.64 19.52-6.35 29.58-6.86a161 161 0 0 1 22.49.47c1.56.16 3.44.24 4.76 1.2a3 3 0 0 1 .41.35c.08.08.13-.23-.04 0q-.56.76-1.1 1.53a8 8 0 0 0-1.27 3.25 36 36 0 0 0 .04 7.27c.12 2.56 4.12 2.58 4 0-.1-2.2-.54-4.54-.09-6.72.48-2.36 3.16-3.81 2.28-6.52-1.41-4.36-7.95-4.31-11.62-4.59a130 130 0 0 0-33.98 1.4 65 65 0 0 0-17.47 5.76c-2.3 1.17-.27 4.62 2.02 3.45Zm25.77 39.22c2.4-1.13 4.9-2.02 7.3-3.16a132 132 0 0 0 6.72-3.36A40 40 0 0 0 63 288.9a2.06 2.06 0 0 0 0-2.82 2 2 0 0 0-2.83 0 37 37 0 0 1-11.45 9.23c-2.15 1.17-4.36 2.22-6.57 3.27-2.34 1.12-4.78 1.97-7.13 3.07-2.33 1.1-.3 4.54 2.02 3.46Zm54.75-45.72c1.05 1.54 2.01 5.55-.94 6.87-4.04 1.29-5.8-3.36-5.17-6.03.51-2.17 3.53-3.99 6.1-.84" class="d"/><path d="M82.61 314.84a49 49 0 0 1 1.17-5.15 7 7 0 0 1 .6-2.06c.03-.03.87-.01 1.2-.03a23 23 0 0 0 2.62-.29 28 28 0 0 0 4.67-1.2 25 25 0 0 0 8.45-4.51 14.4 14.4 0 0 0 4.35-8.17 40 40 0 0 0 .04-11.63c-.2-1.66-.51-3 0-4.62.44-1.43 1.5-2.52 2.2-3.82 1.81-3.44 0-7.02-3.46-8.44a13 13 0 0 1-3.26-1.5 10 10 0 0 1-2.33-2.78c-3.6-5.96-3.79-13.3-6.43-19.65a2.07 2.07 0 0 0-2.46-1.4 2 2 0 0 0-1.4 2.46c2.43 5.84 2.98 12.2 5.51 18.01a16 16 0 0 0 4.68 6.5 11 11 0 0 0 3.58 1.84c1.02.33 2.54 1.04 2.33 2.35-.2 1.27-1.52 2.43-2.1 3.56a10 10 0 0 0-1.2 5.18 71 71 0 0 1 .65 10.8c-.17 2.97-1 6.05-3.2 8.18-2.07 1.97-5.1 3.18-7.78 4.03a22 22 0 0 1-5.13 1.08c-1.81.12-3.48 0-4.7 1.61a9 9 0 0 0-1.17 3.01 49 49 0 0 0-1.3 5.58 2.06 2.06 0 0 0 1.4 2.46 2 2 0 0 0 2.47-1.4" class="d"/><path d="M93.18 242.95a35 35 0 0 0-8.46-15.08 37 37 0 0 0-11.57-7.67 48.8 48.8 0 0 0-40.8 1.27C21.2 227.1 13.47 238.14 10.12 250a46.6 46.6 0 0 0 8.76 42.81 51 51 0 0 0 11.49 10.45c2.6 1.74 5.37 3.24 7.83 5.18 2.08 1.63 3.96 3.5 4.31 6.22a35 35 0 0 1 .29 4.73c-.02 2.58 3.98 2.58 4 0 .01-2.79-.03-5.99-1.24-8.55-1.32-2.78-3.9-4.85-6.34-6.6-4.25-3.04-8.72-5.42-12.54-8.95a43.7 43.7 0 0 1-14.25-35.75c1.03-12.39 7.48-25.33 18-32.32a40 40 0 0 1 12.3-5.45 45.6 45.6 0 0 1 23.45.17c9.36 2.6 17.32 8.2 21.41 17.18a36 36 0 0 1 1.74 4.9c.71 2.46 4.58 1.41 3.85-1.07m7.73 34c-2.6.96-5.22 2.99-5.71 5.88a7.6 7.6 0 0 0 .7 4.82 8 8 0 0 0 3.35 3.21 2 2 0 1 0 2.01-3.45 9 9 0 0 1-1.02-.64c.23.17.09.06-.04-.06a5 5 0 0 1-.5-.52c.17.2 0 0-.07-.11a7 7 0 0 1-.38-.68c.12.25.05.11 0-.07a2 2 0 0 1-.18-.7c-.02.25.03.2.01-.04v-.79c0-.37-.05.12.01-.1.02-.06.12-.64.18-.64 0 0-.2.4-.04.1l.16-.3c.02-.03.37-.5.36-.53q-.23.29-.09.12l.1-.11.26-.28.52-.46c.17-.16-.28.18.04-.02l.26-.18a8 8 0 0 1 .7-.4l.3-.14c-.4.2.07-.02.14-.05a2 2 0 1 0-1.06-3.86Z" class="d"/><path d="m2 387.44.2-3.67c0-.68 1.18-17.62 1.8-23.48a74 74 0 0 1 3.59-16.9c3.8-10.76 11.58-19.65 21.03-24l9.86-4.86c2.84-4.64 4.76-5.94 7.29-5.86 2.9.09 12.08 1.84 18.76 3.68 6.1 1.67 13.43 5.8 16.05 8.02 1.4 1.2 2.82 4.89 3.6 6.75l1.83 4.37a33 33 0 0 1 7.22 6.01l17.5-9c3.02.75 23.77 17.3 25.9 19.33.9.85 1.14 2.64.73 4.19-2.79 10.5-6.6 25.53-10.3 35.49H2.18" style="fill:#957f6e"/><path d="M83.77 332.47a32 32 0 0 1 10.88 10.2c3.26 5.1 5.14 10.96 6.87 16.71.74 2.46 4.6 1.41 3.86-1.06-1.86-6.18-3.92-12.53-7.48-17.98a36 36 0 0 0-12.1-11.33c-2.23-1.31-4.24 2.14-2.03 3.45M35.83 318.4a152 152 0 0 1 22.22 3.66 106 106 0 0 1 17.74 6.4 2.06 2.06 0 0 0 2.73-.73 2 2 0 0 0-.72-2.73 112 112 0 0 0-18.69-6.8 159 159 0 0 0-23.28-3.8 2 2 0 0 0-2 2 2.05 2.05 0 0 0 2 2" class="d"/><path d="M40.21 315.54a14 14 0 0 1 3.34-4.21 3.3 3.3 0 0 1 2.47-.65 59 59 0 0 1 8.87 1.44 89 89 0 0 1 11.31 2.84 52 52 0 0 1 10.42 5.05 10 10 0 0 1 3.2 2.54 29 29 0 0 1 2.43 5.1 2.07 2.07 0 0 0 2.46 1.4 2 2 0 0 0 1.4-2.45 49 49 0 0 0-2.41-5.37 11 11 0 0 0-3.43-3.6 55 55 0 0 0-11.14-5.83 77 77 0 0 0-12.8-3.46 67 67 0 0 0-10.31-1.66c-4.45-.2-7.14 3.41-9.26 6.84-1.36 2.2 2.1 4.2 3.46 2.02Zm-12.6 2.13c-11.98 5.58-19.98 17.1-23.32 29.63-2.74 10.31-3.06 21.27-3.8 31.87q-.28 4.13-.49 8.27c-.13 2.57 3.87 2.56 4 0 .34-6.6.82-13.2 1.35-19.8.94-11.77 2.42-23.74 9.3-33.71a37.7 37.7 0 0 1 14.98-12.81 2 2 0 0 0 .72-2.74 2.05 2.05 0 0 0-2.74-.72Zm82.58 12.76c.47.12-.07-.07.02-.02l.63.32q.85.49 1.67 1.03 2.3 1.51 4.52 3.16 5.42 3.97 10.67 8.15c2.42 1.92 5 3.77 7.24 5.9a2.2 2.2 0 0 1 .59 2.05 35 35 0 0 1-1.12 4.32q-1.29 4.93-2.62 9.86c-2 7.31-4.03 14.65-6.66 21.77-.9 2.42 2.97 3.46 3.85 1.06a243 243 0 0 0 6.17-19.96q1.44-5.28 2.83-10.56c.8-3.05 2.46-6.76.96-9.82a9 9 0 0 0-2.73-2.86q-2.1-1.74-4.22-3.42-5.67-4.55-11.5-8.89a131 131 0 0 0-5.5-3.91 14 14 0 0 0-3.73-2.04c-2.5-.67-3.56 3.2-1.07 3.86m-69.36.83a101 101 0 0 0-11.7 32.09 2.06 2.06 0 0 0 1.4 2.46 2 2 0 0 0 2.46-1.4 98 98 0 0 1 11.3-31.14c1.27-2.24-2.19-4.26-3.46-2.02Z" class="d"/><path d="M126.06 385.5H2.19c-2.57 0-2.57 4 0 4h123.87c2.57 0 2.57-4 0-4m-38.02-101a9 9 0 0 0-.2 5.17 2 2 0 0 0 .92 1.2 2 2 0 0 0 2.94-2.26 8 8 0 0 1-.16-.8l.07.54a7 7 0 0 1 0-1.83l-.07.54a7 7 0 0 1 .37-1.5 2 2 0 0 0-2.94-2.25 2.3 2.3 0 0 0-.92 1.2Z" class="d"/></svg>
