<svg xmlns="http://www.w3.org/2000/svg" viewBox="0 -94.29 478.321 478.321"><defs><style>.a{fill:#fff}.b{fill:#211715}.c{fill:#85807f}</style></defs><path d="M239.64 199.49a4.5 4.5 0 0 1 .4-2.76 4.6 4.6 0 0 1 3.44-2.49 109 109 0 0 1 12.75-1.65c8-.72 12.04-1.07 21.96-2.08l1.25-.13-.63-1.62c-.41-1.08-2.8-3.28-5.62-5.66a36 36 0 0 1-4.36-4.31 3.45 3.45 0 0 1 .32-4.08c1.27-1.6 3.47-1.43 5.08-.78 7.11 2.83 16.67 8.22 22.7 10.62 3.38 1.34 6.6 5.93 6.4 10.3l5.16 7.08a54.5 54.5 0 0 0-16.42 18.82l-6.5-2.77c-2.84-1.16-11.34-1.08-13.62-1.13-4.28-.1-8.77-.22-13.44-.27l-.48-1.93c-3.18.03-6.18.03-7.03-.06a3.1 3.1 0 0 1-2.85-2.46 3.3 3.3 0 0 1 2.16-3.24l.37-.13-2.8.27c-3.9.38-6.36-1.26-6.18-3.8a3.7 3.7 0 0 1 2.64-3.03l-1.1-.12c-2.35-.26-3.34-1.36-3.6-2.6m154.15-97.21.1-.12a15.7 15.7 0 0 0 3.56-8.99c.37-3.32-.94-8.14-3.54-10.2-.87-.7-2.74-1.76-6.13-.87a7.5 7.5 0 0 0-4.6 3.23c-1.34-2.52-3.26-7.14-6.87-11.6-4.43-3.7-11.06-6.37-18.38-6.94-.36 1.8-.66 3.63-1.02 5.58a35 35 0 0 1-1.43 6.16 13 13 0 0 1-2.06 3.37c-1.49 1.9-3.14 3.64-3.5 6.07-.23 1.5.8 3.9.95 5.42l.27 2.69.87 4.94c1.03-.03 3.35-.01 4.96-.01a1 1 0 0 1 .92 1.08c-.1 2.33-.93 3.26-1.71 4.92a12 12 0 0 1-2.12 2.83l-.43.36.77 4.38a12 12 0 0 0 2.53 3.65 12.5 12.5 0 0 0 5.16 3.58 34 34 0 0 0 17.53 2.28 44 44 0 0 1 4.23 8.52l1.23 3.37a41 41 0 0 1 11.08-5.68 73 73 0 0 1 18.94-3.73l-1.04-3.25c-11-1.17-19.91-11.88-23.67-17.22l-.7-1a11 11 0 0 0 4.1-2.82" class="a"/><path d="M351.96 103.02q1.86-.04 3.71-.02h1.18q.34.01-.2-.04a1 1 0 0 1-.5-.3q-.27-.4-.11-.14a1 1 0 0 1-.15-.55v.29a2 2 0 0 0-.04.46q.06-.42 0-.1a6 6 0 0 1-.4 1.45l.07-.17-.35.71-.8 1.57a8 8 0 0 1-.48.76l-.28.4c-.08.11-.36.4.02-.01a14 14 0 0 1-.98 1.1 2 2 0 0 0 0 2.83 2.05 2.05 0 0 0 2.83 0 12 12 0 0 0 2.03-2.55 22 22 0 0 0 1.44-2.74 10 10 0 0 0 .69-1.88 6.4 6.4 0 0 0 .17-2.77 3 3 0 0 0-2.04-2.19 7 7 0 0 0-2.1-.12q-1.85-.02-3.71.02a2 2 0 0 0 0 4Z" class="b"/><path d="M383.56 38.45c-12.68 3.83-18.9 10.62-23.64 21.27a41 41 0 0 0-1.99 7.08c7.32.56 13.95 3.23 18.38 6.94 3.61 4.46 5.53 9.08 6.88 11.6a7.5 7.5 0 0 1 4.59-3.24c3.4-.89 5.26.18 6.13.87 2.6 2.07 3.92 6.88 3.54 10.2a15.7 15.7 0 0 1-3.56 9 11 11 0 0 1-4.2 2.93l.7 1c4.26 6.05 15.11 18.98 28.13 17.15 2.45-3.65 6.24-7.2 8.7-9.65 6.2-6.13 13.9-17.11 14.8-31.07.56-8.78-2.56-17.85-6.4-24.25-9.86-16.48-21.86-19.92-29.3-21.28a51 51 0 0 0-22.72 1.44Z" class="c"/><path d="M352.67 115.6a17 17 0 0 0 4.54 5.68 22 22 0 0 0 7.48 3.56 37 37 0 0 0 18.6.63c2.5-.54 1.44-4.4-1.07-3.85a33 33 0 0 1-16.12-.53 19 19 0 0 1-6.06-2.64 14 14 0 0 1-3.91-4.88c-1.16-2.3-4.6-.27-3.46 2.02M358 59.18A58 58 0 0 0 355.31 70c-.58 3.31-.84 6.99-2.81 9.82-1.63 2.34-3.84 4.35-4.45 7.27a10 10 0 0 0 .37 4.48 29 29 0 0 1 .72 4.5 2.06 2.06 0 0 0 2 2 2 2 0 0 0 2-2 33 33 0 0 0-.58-4.5c-.3-1.21-.86-2.5-.57-3.76.6-2.64 3.2-4.59 4.53-6.86 1.77-3.01 2.1-6.74 2.7-10.12a57 57 0 0 1 2.63-10.58 2 2 0 0 0-1.4-2.46 2.05 2.05 0 0 0-2.46 1.4Z" class="b"/><path d="M378.43 125.89a37 37 0 0 1 2.1 3.98q.25.5.48 1.02l.2.47.11.25c.03.08.16.39.03.06l.1.24.18.45.3.78a2 2 0 1 0 3.85-1.06 45 45 0 0 0-3.9-8.21 2 2 0 0 0-3.45 2.02m10.24-18.78c6.02 8.53 14.54 16.96 25.4 18.2a2 2 0 0 0 2-2 2.05 2.05 0 0 0-2-2c-9.26-1.06-16.88-9.04-21.95-16.22a2.05 2.05 0 0 0-2.74-.72 2 2 0 0 0-.71 2.74" class="b"/><path d="M385.2 85.87c1.47-1.89 5.07-2.76 6.99-1.66.05.04.6.4.39.23-.17-.12.46.43.56.53a7 7 0 0 1 1.03 1.5 12 12 0 0 1 1.27 4.12c.69 5.65-2.45 12.15-8.42 13.15a2 2 0 0 0-1.4 2.46 2.05 2.05 0 0 0 2.46 1.4c6.96-1.17 10.6-7.68 11.34-14.17.58-5.04-1.73-12.34-7.37-13.47a10.6 10.6 0 0 0-10.3 3.9 2 2 0 0 0 .72 2.73 2.05 2.05 0 0 0 2.74-.71Zm-28.67-5.68c-.68 1.74-.86 5.87 1.98 6.54 3.82.38 4.61-4.55 3.6-7.03-.82-2.02-3.82-3.15-5.58.5" class="b"/><path d="M361.65 60.73a39 39 0 0 1 8.31-12.59 34 34 0 0 1 13.41-7.54c10-3.17 21.35-3.24 31.13.79 10.1 4.15 17.83 13.28 22.1 23.14a39.4 39.4 0 0 1 3.28 19.72 44 44 0 0 1-6.08 17.66c-2.94 4.97-6.72 8.95-10.76 13.02-4.63 4.66-9.69 10.12-8.89 17.18a2.06 2.06 0 0 0 2 2 2 2 0 0 0 2-2 11.3 11.3 0 0 1 2.38-8.27 51 51 0 0 1 6.08-6.83 67 67 0 0 0 10.08-12.15 49 49 0 0 0 6.83-17.96 42 42 0 0 0-2.18-21.19c-4.13-11.27-12.37-21.9-23.37-27.13-9.85-4.68-21.28-5.27-31.83-2.87a41 41 0 0 0-17.63 8.36c-4.63 3.93-7.86 9.16-10.31 14.64a2.06 2.06 0 0 0 .72 2.74 2 2 0 0 0 2.73-.72" class="b"/><path d="m374.9 75.15.33.41.07.1.55.74q.53.73 1.02 1.49.93 1.43 1.76 2.94c.88 1.58 1.66 3.22 2.49 4.83a2 2 0 0 0 2.73.72 2.05 2.05 0 0 0 .72-2.74c-.85-1.67-1.66-3.35-2.57-4.98a45 45 0 0 0-4.27-6.34 2 2 0 0 0-2.83 0 2.06 2.06 0 0 0 0 2.83" class="b"/><path d="M359.7 68.97c5.43.78 11.05 2.74 15.2 6.18a2.06 2.06 0 0 0 2.83 0 2 2 0 0 0 0-2.83 34 34 0 0 0-16.96-7.21 2.07 2.07 0 0 0-2.46 1.4 2 2 0 0 0 1.4 2.46Z" class="b"/><path d="M403.17 128.32q-3.55.83-7 1.98c-8.97 2.96-19.2 10.18-22.05 20.01q-1.45.62-2.9 1.27c-8.37 3.78-15.7 8.4-21.17 15.97-8.72 12.1-8.57 27.43-11.71 41.48-.75 3.35-1.08 7.41-3.65 11.23-7.43-6.6-12.11-12.03-19.23-19.4a3.44 3.44 0 0 0-4.06-.67c-9.83 5.1-18.58 17.62-20.05 22.33a1 1 0 0 0 .1.82c6 9.8 15.28 22.77 20.44 28.3 9.4 10.1 22.45 18.29 36.17 16q.4-.06.77-.14c2.09 6.9 4.48 11.08 10.98 14.32 3.93 1.95 9.97 4.44 15.97 4.89a147 147 0 0 0 21.45-.23c5.22-7.44 19.06-27.82 25.22-36.33 7-9.67 24.78-38.11 27.12-42.03.57-4.57 1.22-9.73 1.32-13.89.25-10.25.8-18.54-2.02-28s-9.92-21.61-21.1-24.75c-1.22-2.69-3.74-10.44-5.36-12.91a3.5 3.5 0 0 0-3.65-2.08 65 65 0 0 0-15.59 1.83" style="fill:#b3b3b3"/><path d="M74.74 201.03c-.66-2.86-.05-5.84.66-8.68.7-2.78 1.6-5.68 3.68-7.64a13 13 0 0 1 6.4-3.23 114 114 0 0 1 15.19-1.34 18 18 0 0 1 13.11 7.53 9 9 0 0 1 1.94 5.66s-2.17 2.47-6.78 7.7a76 76 0 0 0-6.71 8.95c-.46 1.13-1.96 1.55-3.4 1.04-1.22-.43-2.56-2.03-3.8-2.37-2.3-.62-5.84-.04-8.22-.53-3.17-.65-6.8-1.45-8.18-4.37ZM64.33 41.24c3.44-6.8 11.75-13.3 31-12.98 29.1.49 25.95 22.27 25.95 22.27-.32 4.7-.44 9.38-.65 13.7-.35 7.49-2.2 14.36-7.15 18.95a26 26 0 0 1-8 5.18l.05.41a6 6 0 0 0 .87 2.42 8.2 8.2 0 0 0 4.5 2.86c-4.4 6.48-10.18 9.25-18.7 9.34a40.3 40.3 0 0 1-24.56-8.1 22 22 0 0 0 3.15-1.95 6 6 0 0 0 2.14-2.82 47 47 0 0 0 1.7-7.91 41 41 0 0 1-5.8-6.24s-1.47-1.99-2.12-3.14l-.26-.63a9 9 0 0 1-4.6-.75 12.4 12.4 0 0 1-5.02-5.2c-1.3-2.25-2.05-6.11-1.16-8.45a4.3 4.3 0 0 1 3.39-2.66 4.7 4.7 0 0 1 3.46.54 23.7 23.7 0 0 1 1.81-14.84" class="a"/><path d="m97.2 180.23.95-.05 44.55-8.51c.11-15.35.3-31.34-1.98-45.92-2.82-18.1-11.08-26.73-29.77-31.77-4.39 6.52-10.2 9.32-18.75 9.4a40.3 40.3 0 0 1-24.88-8.34c-13.02 5.59-22.58 10.35-29.77 22.87-4.18 7.26-6.72 19.66-8.93 27.96s-2.79 17.34-.54 25.55a34.6 34.6 0 0 0 7.17 13.56c6.76 7.73 21.1 13.45 31.4 15.06 0 0 8.09.5 8.09 1-.66-2.87-.05-5.85.66-8.7.7-2.77 1.6-5.67 3.68-7.63a13 13 0 0 1 6.4-3.23c2.44-.44 7.95-1.01 11.72-1.25" class="a"/><path d="M200 88.7a182 182 0 0 1-23.95-1.78c-9.76-3.13-8.8-16.4-7.3-22.02 1.3-4.85 1.5-17.17.2-24.12-.2-1.4-.37-2.65-.46-3.6a42 42 0 0 1 .87-10.4c1.22-5.53 2.86-8.7 6.88-13.4 8.76-9.77 18.52-11.56 25.13-11.4 9.8.23 16.92 2.35 23.19 9.14 4.63 3.87 7.25 9.73 8.47 15.62a51 51 0 0 1 .4 15.63c-.44 4.57-.66 9.14-.96 13.34a35 35 0 0 1-1.95 9.8c.2 2.98.94 6.05.64 9.09a9 9 0 0 1-2.25 5.45s-.6 8.03-6.93 8.42c-6.08.38-21.97.22-21.97.22" style="fill:#a98a75"/><path d="M178.1 46.78c-.65-.13-1.55-.9-3.23-.58a4 4 0 0 0-3.25 2.42c-.88 2.18-.26 5.82.9 7.96a11.6 11.6 0 0 0 4.6 5 8.5 8.5 0 0 0 4.6.76c-1.33-.89 1.85 3.63 1.85 3.63a38 38 0 0 0 5.6 6.23 47 47 0 0 1-1.63 8.33 6 6 0 0 1-2.09 2.86 30 30 0 0 1-3.76 2.27 41 41 0 0 0 25.98 6.22c5.68-.47 10.99-2.3 14.64-6.91a16 16 0 0 1-5.62-3.22 2 2 0 0 1-.61-.7 3 3 0 0 1-.24-.93s-.1-.62-.22-1.44a23 23 0 0 0 9.72-5.34c4.74-4.2 6.63-10.6 7.13-17.63.23-3.22.41-6.66.69-10.15l-.58-.08a27 27 0 0 0-2.13-11.37c-1.86-3.8-3.32-6.2-5.17-7.38a41 41 0 0 1-11.8 8.22 52 52 0 0 1-7.09 2.74c-1.5.46-5.6 1.38-6.7-.54l-.74-1.3a104 104 0 0 1-11.72 8.13 7.6 7.6 0 0 0-2.55 3.22Z" class="a"/><path d="M160.22 110.32a54 54 0 0 0-.78 3.52 143 143 0 0 0-2.19 24.72c.12 8 .4 20.96.98 30.15l96.24-18.37c-1.35-7.11-3.46-17.04-4.93-25.93-1.63-9.83-4.13-22.47-9.87-29.78-3.26-4.15-6.75-6.36-11.5-8.4a75 75 0 0 0-3.6-1.29l-1.8-.59c-3.66 5.08-9.18 7.04-15.1 7.53a41 41 0 0 1-26.12-6.31c-11.16 7.47-17.04 11.9-20.79 22.93q-.27.81-.54 1.82" style="fill:#f8b8b4"/><path d="M67.58 13.48a33 33 0 0 1 18.6-5.66c10.78 0 18.55 2.2 25.56 9.84 5 4.23 7.35 9.61 8.77 15.72a55 55 0 0 1 .55 18.7l-.17-2.36c-.42-5.5-4.98-11.17-8.15-12.35 0 0-3.46-.98-7-1.6l-1.26.42c-4.73 1.59-11.46 5.04-15.22 6.74a1.23 1.23 0 0 1-1.75-1.28 5 5 0 0 0-.06-2.17c-.2-.92-.97-1.33-1.59-1.07-4.85 2.07-10.31 6.43-14.54 10.24a4.6 4.6 0 0 0-1.34 2.15 48 48 0 0 0-1.18 4.92l-6.27.36a4.7 4.7 0 0 0-3.46-.54 4.3 4.3 0 0 0-3.39 2.66 5 5 0 0 0-.3 1.2c-2.07-3.58-2.96-10.13-3.33-13.3a45 45 0 0 1 .67-11.1c1.16-5.91 2.83-9.33 7-14.43a39 39 0 0 1 7.86-7.09" class="c"/><path d="m2.5 200.5 40.34-7.72c2.52-.48 1.45-4.33-1.07-3.85l-40.33 7.7c-2.52.49-1.45 4.35 1.07 3.86m252.6 68.2c13.13-3.3 26.13-7.27 39.17-10.92 2.17-.6 4.32-1.23 6.5-1.8 2.48-.65 1.43-4.5-1.07-3.86-13 3.4-25.87 7.26-38.82 10.85-2.28.63-4.55 1.3-6.85 1.87-2.5.63-1.44 4.48 1.06 3.86ZM345.25 151q-10.41-2.91-20.84-5.78l-12.31-3.4-5.65-1.56-2.58-.7a6 6 0 0 0-3.07-.09l-42.05 8.02-49.91 9.52-52.9 10.1-51.81 9.89-6.04 1.16c-2.52.48-1.46 4.34 1.06 3.85l41.1-7.84 43.1-8.23 42.28-8.07 39.49-7.54 33.93-6.47 3.82-.72h-1.06q21.2 5.81 42.37 11.72c2.48.7 3.54-3.17 1.06-3.86ZM116 214.66c5.83 2.96 11.7 5.83 17.55 8.72l10.09 5a15 15 0 0 0 2.46 1.18 5.6 5.6 0 0 0 2.59-.36l5.08-1.2q21.05-4.95 42.08-9.96l22.12-5.23a2 2 0 0 0 1.47-1.92 2.1 2.1 0 0 0-1.47-1.93q-16.82-6.99-33.66-13.94-8.94-3.72-17.87-7.47-3.83-1.6-7.66-3.24l-3.5-1.5c-1.08-.46-2.65-1.49-3.83-1.49a19 19 0 0 0-3.46.64l-3.6.7-6.76 1.33-13.1 2.6c-2.52.5-1.46 4.35 1.06 3.85l26.39-5.2-1.54-.2c17.59 7.64 35.35 14.9 53.07 22.22l13.39 5.55v-3.86c-18.56 4.36-37.1 8.8-55.65 13.18l-15.16 3.57 1.54.2c-9.86-4.92-19.79-9.71-29.62-14.7-2.29-1.16-4.31 2.29-2.01 3.46" class="b"/><path d="M238.26 185.05c-12-4.9-24.29-9.05-36.42-13.6v3.86c16.89-3.36 33.75-6.83 50.63-10.23q6.14-1.24 12.29-2.46h-1.06c9.72 3.17 19.49 6.23 29.24 9.3q15.97 5.01 31.96 9.99l9.7 3v-3.85a909 909 0 0 1-20.96 5.07c-2.51.58-1.45 4.44 1.06 3.86q10.5-2.42 20.97-5.08a2.02 2.02 0 0 0 0-3.85c-12.92-3.96-25.81-8.03-38.7-12.07q-12.02-3.78-24.02-7.59l-4.72-1.51c-1.34-.44-3.12-1.36-4.53-1.13-5.85.95-11.66 2.33-17.46 3.5-15.15 3.07-30.3 6.18-45.46 9.2-2.1.41-1.67 3.22 0 3.85 12.13 4.55 24.42 8.7 36.42 13.6a2 2 0 0 0 2.46-1.4 2.05 2.05 0 0 0-1.4-2.46m-33.76-4.03c-5.36 2.1-10.76 4.14-16.1 6.29a2.02 2.02 0 0 0 0 3.85c13.55 4.03 27 8.4 40.49 12.62 2.46.78 3.51-3.08 1.06-3.85-13.49-4.23-26.94-8.6-40.5-12.62v3.85c5.36-2.14 10.75-4.18 16.11-6.28a2.06 2.06 0 0 0 1.4-2.46 2 2 0 0 0-2.46-1.4M187.08 72.91a48 48 0 0 1-1.03 5.47 6.5 6.5 0 0 1-.93 2.57 6 6 0 0 1-.88.88c.3-.27-.17.1-.27.17a57 57 0 0 1-8.38 4.42 2 2 0 0 0-.72 2.74 2.05 2.05 0 0 0 2.73.72 52 52 0 0 0 8.7-4.64 9 9 0 0 0 2.4-2.48 11 11 0 0 0 1.2-3.32 53 53 0 0 0 1.18-6.53 2 2 0 0 0-2-2 2.05 2.05 0 0 0-2 2m37.36-44.34c.07.05.23.18.07.05a7 7 0 0 1 .99.98 12 12 0 0 1 1.08 1.53 36 36 0 0 1 2.29 4.3 25 25 0 0 1 1.71 10.05c-.06 2.58 3.94 2.58 4 0a28.5 28.5 0 0 0-2.14-11.8c-1.36-3.13-3.15-6.54-5.98-8.57a2 2 0 0 0-2.74.72 2.04 2.04 0 0 0 .72 2.74" class="b"/><path d="M167.58 45.88a89 89 0 0 1 .07 12.41 71 71 0 0 1-1.28 8.1c-.96 5.32-.93 11.27 1.63 16.16a13 13 0 0 0 7.52 6.3c2.45.82 3.5-3.04 1.07-3.85-4.87-1.63-6.56-6.68-6.76-11.39-.2-5 1.38-9.5 1.76-14.56a88 88 0 0 0-.02-13.17c-.19-2.55-4.19-2.57-4 0m24.72 26.34a37 37 0 0 1-5.9-5.82l-.27-.34c-.03-.03-.38-.48-.11-.13l-.57-.76-.46-.66a28 28 0 0 1-1.6-2.54 2 2 0 0 0-2.74-.72 2.04 2.04 0 0 0-.72 2.74 34 34 0 0 0 3.53 5.1 37 37 0 0 0 6.01 5.96 2.05 2.05 0 0 0 2.83 0 2 2 0 0 0 0-2.83m32.92-57.67c3.82 4.35 5.8 10.23 6.37 15.93.65 6.5-.32 12.94-.74 19.42-.37 5.7-.43 11.68-3.05 16.9a19.7 19.7 0 0 1-11.92 9.74c-6.24 1.85-12.7.45-18.57-1.97a2 2 0 0 0-2.46 1.4 2.05 2.05 0 0 0 1.4 2.47c5.98 2.45 12.47 3.73 18.89 2.41a24.3 24.3 0 0 0 14.61-9.5c3.7-5.22 4.47-11.7 4.88-17.91.24-3.68.41-7.38.8-11.05a59 59 0 0 0 .3-10.25c-.49-7.38-2.72-14.77-7.67-20.4-1.7-1.95-4.52.9-2.83 2.82Z" class="b"/><path d="M223.25 7.07c-4.79-4.18-10.4-6.15-16.67-6.78a39 39 0 0 0-16.09 1.25 36 36 0 0 0-16.51 11.43 31 31 0 0 0-5.08 8.28 37 37 0 0 0-2.13 9.01 37 37 0 0 0 .06 9.75 56 56 0 0 1 .85 10.47c-.14 2.57 3.87 2.57 4 0 .3-5.6-1.5-11.05-1.23-16.63.27-5.49 1.44-11.03 4.54-15.63A33 33 0 0 1 189.35 6.2a31.5 31.5 0 0 1 13.7-2.16c6.38.27 12.44 1.54 17.37 5.85 1.94 1.68 4.78-1.14 2.83-2.83" class="b"/><path d="M179.1 45.05a6.8 6.8 0 0 0-7.86.72 7.2 7.2 0 0 0-2.03 5.79c.19 4.6 2.8 9.72 7.06 11.82a9.2 9.2 0 0 0 7.98.2 2 2 0 0 0-2.01-3.45 4 4 0 0 1-1.11.27q-.45.01-.89-.01l-.54-.07q-.73-.16-1.43-.4c-.39-.13.27.2-.04-.02-.25-.17-.53-.3-.78-.47a9 9 0 0 1-2.17-2.16q-.37-.55-.7-1.12l-.33-.59c-.03-.07-.33-.68-.24-.46a11 11 0 0 1-.77-3.08 9 9 0 0 1 0-1.82c-.03.29.1-.42.12-.5l.07-.26.23-.41c.08-.13.32-.34.02-.05.06-.05.54-.5.2-.24a3 3 0 0 1 .66-.4q-.23.1.13-.04l.47-.13q.43-.07.17-.04.22-.02.46-.02a2.2 2.2 0 0 1 1.32.4c2.2 1.34 4.21-2.12 2.02-3.46ZM58.12 146.9a147 147 0 0 0-3.11 16 14 14 0 0 0 .1 6.44 10 10 0 0 0 3.06 4.41c2.94 2.48 6.72 4.06 10.3 5.36a75 75 0 0 0 10.7 2.7c2.51.52 3.58-3.34 1.06-3.85-6.26-1.3-12.54-2.69-18.01-6.17a8 8 0 0 1-3.04-3.01c-.77-1.54-.54-3.36-.3-5q.58-3.68 1.3-7.35c.53-2.83 1.05-5.68 1.8-8.47.65-2.49-3.2-3.55-3.86-1.06" class="b"/><path d="M65.47 93.67c-8.02 3.47-16.06 7.28-22.32 13.54a44 44 0 0 0-8.1 11.13 73 73 0 0 0-4.8 13.2c-1.28 4.57-2.36 9.2-3.56 13.8a57 57 0 0 0-1.98 17.27c.51 10.3 4.62 20.75 12.85 27.3 8.04 6.38 18.46 10.45 28.56 12.06a2.06 2.06 0 0 0 2.46-1.4 2 2 0 0 0-1.4-2.46 62 62 0 0 1-24.47-9.37c-7.9-5.27-12.61-13.78-13.76-23.16-1.24-10.24 1.75-20.11 4.33-29.9a97 97 0 0 1 4.16-13.04 40 40 0 0 1 6.78-10.72c6.23-7.08 14.76-11.11 23.27-14.8a2 2 0 0 0 .72-2.74 2.05 2.05 0 0 0-2.74-.71m50.62 4a39 39 0 0 1 11.69 6.28 28 28 0 0 1 7.38 9.55 48 48 0 0 1 3.77 13.69 177 177 0 0 1 1.64 20.09c.26 7.84.2 15.7.14 23.54-.02 2.58 3.98 2.58 4 0 .1-14.45.26-28.98-1.73-43.33-1.32-9.54-4.19-19.12-11.61-25.72a43 43 0 0 0-14.21-7.96c-2.43-.87-3.48 3-1.07 3.86" class="b"/><path d="M120.84 125.66a427 427 0 0 0-1.48 43.69c.05 2.57 4.05 2.58 4 0a427 427 0 0 1 1.48-43.69c.21-2.56-3.79-2.55-4 0m-55.2-29.43A41.7 41.7 0 0 0 86.36 105c6.44.86 13.57.5 19.25-2.99a24 24 0 0 0 7.42-7.56c1.4-2.16-2.06-4.17-3.46-2.01a19 19 0 0 1-7.2 6.8 22.6 22.6 0 0 1-10.18 2.14 37.7 37.7 0 0 1-23.72-7.98 2.06 2.06 0 0 0-2.83 0 2 2 0 0 0 0 2.83" class="b"/><path d="M67.86 97.42c2.43-1.18 5.27-2.73 6.54-5.23a20 20 0 0 0 1.38-4.55q.47-2.1.75-4.2a2.06 2.06 0 0 0-1.4-2.46 2 2 0 0 0-2.46 1.4 49 49 0 0 1-.66 3.82q-.22 1-.49 1.98l-.3 1.1q-.07.3-.17.6c-.02.06-.18.5-.02.13a4.6 4.6 0 0 1-1.85 2.04 25 25 0 0 1-3.34 1.92 2 2 0 0 0-.72 2.74 2.05 2.05 0 0 0 2.73.71Zm35.68-8.65a8 8 0 0 0 .34 1.68 11 11 0 0 0 .55 1.31 7 7 0 0 0 1.43 1.82 12 12 0 0 0 4.5 2.4 2 2 0 0 0 2.46-1.4 2.05 2.05 0 0 0-1.4-2.46q-.71-.24-1.41-.52l.47.2a8 8 0 0 1-1.76-1l.4.31a7 7 0 0 1-1.2-1.19l.31.4a5 5 0 0 1-.53-.96l.2.48a6 6 0 0 1-.43-1.5l.07.52-.01-.09a2.2 2.2 0 0 0-.59-1.41 2 2 0 0 0-2.83 0 2 2 0 0 0-.58 1.41Z" class="b"/><path d="m77.83 82.62-.74-.57q-.43-.34-.85-.7-.84-.72-1.64-1.48a40 40 0 0 1-2.88-3.09q-.65-.75-1.25-1.54c.2.26.05.06 0 0l-.3-.4a30 30 0 0 1-1.73-2.62A2 2 0 1 0 65 74.24a36 36 0 0 0 3.9 5.37 41 41 0 0 0 6.91 6.46 2 2 0 0 0 2.74-.72 2.06 2.06 0 0 0-.72-2.73m34.48-61.67c3.6 3.91 5.52 8.97 6.52 14.13a50 50 0 0 1 .3 16.47 2.07 2.07 0 0 0 1.4 2.46 2 2 0 0 0 2.46-1.4c1.73-11.6.45-25.49-7.85-34.49-1.75-1.9-4.57.94-2.83 2.83M57.11 58.4a26 26 0 0 1-2.47-8.25 38 38 0 0 1-.7-7.53c.14-5.93 1.24-11.95 4.51-17a36 36 0 0 1 14.88-13.06 32.4 32.4 0 0 1 14.35-2.72c7.1.15 14.01 1.64 19.58 6.28 1.96 1.64 4.8-1.18 2.83-2.83-5.46-4.55-11.9-6.71-18.94-7.28a40 40 0 0 0-17.19 1.98 39 39 0 0 0-17.3 13.26c-4.15 5.48-6 11.74-6.56 18.54a42 42 0 0 0 .46 10.09c.56 3.59 1.3 7.33 3.1 10.54 1.26 2.24 4.71.23 3.45-2.02" class="b"/><path d="M82.63 89.18c8.4 3.23 17.89 4.2 26.1-.12a25.3 25.3 0 0 0 9.54-8.56 30 30 0 0 0 4.06-12.58c.71-5.75.57-11.61.96-17.39.18-2.57-3.83-2.56-4 0-.33 4.84-.39 9.7-.7 14.53a30 30 0 0 1-2.69 11.5c-3.39 6.82-10.81 11.12-18.33 11.43a35 35 0 0 1-13.87-2.66 2 2 0 0 0-2.46 1.4 2.05 2.05 0 0 0 1.4 2.46Zm-19.1-34.83a7.1 7.1 0 0 0-8.2.88 7.4 7.4 0 0 0-2.02 6.02c.28 4.86 3.11 10.22 7.65 12.39a9.6 9.6 0 0 0 8.44.09c2.26-1.22.25-4.68-2.02-3.46a4 4 0 0 1-1.23.36 7 7 0 0 1-.95.01l-.46-.03q-.39-.04-.15-.02a10 10 0 0 1-1.54-.38l-.19-.08a6 6 0 0 0-.73-.42 10.7 10.7 0 0 1-3.94-4.8 13 13 0 0 1-.84-3.18 10 10 0 0 1-.02-1.88 2 2 0 0 1 .1-.54c.02-.07.26-.83.12-.44-.13.36.07-.12.1-.2.06-.1.42-.55.1-.2a4 4 0 0 1 .48-.47c-.27.22.36-.2.43-.24a3 3 0 0 1 2.86.05c2.23 1.29 4.25-2.17 2.02-3.46Z" class="b"/><path d="M122.9 49.72a18 18 0 0 0-3.37-8.88 14.5 14.5 0 0 0-6.25-5.4 2 2 0 0 0-2.46 1.4 2.06 2.06 0 0 0 1.4 2.46c.39.15-.42-.22-.04-.01l.28.14a7 7 0 0 1 .86.54c.08.06.43.37.07.05l.59.5a16 16 0 0 1 1.23 1.26l.58.69.07.1.33.45q.54.77 1 1.6l.49.93.2.44c0-.02.2.48.13.29l.11.3.2.54q.15.45.27.91s.15.62.2.93c.01.03.11.64.05.2l.06.56a2 2 0 0 0 4 0M76.66 200.5a16 16 0 0 1 .5-6.95 21 21 0 0 1 1.99-5.7c1.83-3.15 5.37-4.28 8.73-4.73q4.71-.6 9.47-.9a16.6 16.6 0 0 1 8.34 1.27c3.64 1.68 8.16 5.43 8.02 9.84-.08 2.57 3.93 2.57 4 0 .16-5-3.75-9.4-7.68-12a19 19 0 0 0-11.17-3.18c-3.62.13-7.25.5-10.84.96-4.32.55-8.56 1.75-11.38 5.34a19 19 0 0 0-3.17 7.37 22 22 0 0 0-.66 9.75c.51 2.52 4.37 1.45 3.85-1.07" class="b"/><path d="M100.59 191.07a21 21 0 0 1 3.55.89l.7.26c.2.08.3.13.04.01l.36.16a15 15 0 0 1 2.4 1.4c.04.04.37.21.1.07s.01.02.08.08l.44.4a12 12 0 0 1 .98 1.03l.22.28c.36.44-.12-.17.07.09l.54.75a2 2 0 0 0 3.45-2.02 15.5 15.5 0 0 0-4.83-4.77 20 20 0 0 0-7.05-2.49 2.05 2.05 0 0 0-2.46 1.4 2 2 0 0 0 1.4 2.46Zm.23 7.5.44.05-.53-.07a9 9 0 0 1 1.78.5c.22.07-.5-.23-.15-.07l.2.08.46.23q.46.25.9.54l.4.27.21.16c-.09-.09-.36-.3-.11-.09s.5.43.74.67q.19.18.36.37c.04.05.27.39.33.39-.03 0-.3-.4-.13-.17l.14.2q.15.22.28.45a2 2 0 0 0 3.46-2.02 11 11 0 0 0-3.83-3.8 11 11 0 0 0-4.95-1.69 2 2 0 0 0-2 2 2.05 2.05 0 0 0 2 2m-2.74 6.6a6 6 0 0 1 1.29.38l-.48-.2a7 7 0 0 1 1.44.84l-.4-.31a6 6 0 0 1 1.14 1.14l-.31-.41a6 6 0 0 1 .7 1.17 2 2 0 0 0 1.2.92 2 2 0 0 0 1.53-.2 2 2 0 0 0 .92-1.2l.07-.53a2 2 0 0 0-.27-1 8 8 0 0 0-2.75-3.18 9 9 0 0 0-1.72-.9 6 6 0 0 0-1.29-.38 2.2 2.2 0 0 0-1.54.2 2 2 0 0 0-.72 2.74 2 2 0 0 0 1.2.92Z" class="b"/><path d="M76.9 204.75c2.3 4.53 8.7 5.6 13.28 5.59a24 24 0 0 1 3.68.1c1.16.18 1.96 1.05 2.89 1.7 2.23 1.55 5.83 1.54 7.2-1.16 1.17-2.29-2.28-4.31-3.45-2.02-.1.2-.23.24-.05.17a.6.6 0 0 1-.38.09 2 2 0 0 1-1.03-.35c-.82-.5-1.5-1.2-2.33-1.67-1.95-1.07-4.39-.88-6.53-.87a20 20 0 0 1-5.75-.83c-1.67-.48-3.26-1.16-4.08-2.78-1.17-2.3-4.62-.27-3.46 2.02Zm27.05-170.5a92 92 0 0 0-9.34 3.95q-2.16 1.01-4.3 2.04c-.39.18-1.42.45-1.68.78l-.13.06q.68-.2.8.42l.19.36.07-.53a6 6 0 0 0 0-1.24c-.18-1.73-1.03-3.5-2.95-3.72-1.66-.19-3.56 1.13-4.94 1.93a65 65 0 0 0-9.22 6.7c-1.57 1.33-3.35 2.6-4.15 4.57a30 30 0 0 0-1.43 5.6c-.48 2.52 3.38 3.6 3.86 1.07q.29-1.6.7-3.16a7 7 0 0 1 .9-2.6 16 16 0 0 1 2.3-2.09q1.32-1.14 2.68-2.23a55 55 0 0 1 5.66-3.99q1.4-.86 2.86-1.56l.7-.33a1.1 1.1 0 0 1-1-.29 8 8 0 0 0 .06 1.05 3.5 3.5 0 0 0 .7 2.85A3.3 3.3 0 0 0 88.96 45c1.68-.1 3.6-1.43 5.1-2.14a104 104 0 0 1 10.96-4.76c2.42-.83 1.38-4.7-1.06-3.86Zm98.1-4.22a50 50 0 0 1-9.78 8.32q-2.86 1.9-5.76 3.72a9 9 0 0 0-3.56 4.12 2.07 2.07 0 0 0 .71 2.74 2 2 0 0 0 2.74-.72 7 7 0 0 1 1.33-2.04l.44-.42c.18-.17.12-.07-.03.02l1.25-.79q2.9-1.79 5.7-3.73a53 53 0 0 0 9.79-8.39 2.05 2.05 0 0 0 0-2.83 2 2 0 0 0-2.83 0" class="b"/><path d="M223.75 25.43a41 41 0 0 1-12.58 8.39 36 36 0 0 1-6.33 2.22 10 10 0 0 1-2.24.28 4 4 0 0 1-.84-.07c-.17-.04-.43-.23-.35-.11-1.41-2.14-4.87-.14-3.45 2.02 2.75 4.17 9.44 1.46 13 .05a45 45 0 0 0 15.62-9.95c1.81-1.83-1.01-4.66-2.83-2.83m-46.96 103q.01 7.74.22 15.48a165 165 0 0 0 1.04 17.6 2 2 0 0 0 2.46 1.4 2.05 2.05 0 0 0 1.4-2.46l-.05-.4-.08-.85q-.1-.94-.17-1.88-.15-2.06-.25-4.12-.24-4.8-.35-9.61-.21-7.57-.21-15.16c0-2.57-4-2.58-4 0Zm57.45-16c.51 6.82 1.66 13.63 1.19 20.5a65 65 0 0 1-1.74 10.95 35 35 0 0 0-1.07 5.26 32 32 0 0 0 .11 4.97c.18 2.55 4.18 2.57 4 0a33 33 0 0 1-.13-4.78 36 36 0 0 1 1.16-5.28 72 72 0 0 0 1.67-11.12c.47-6.87-.68-13.68-1.19-20.5-.19-2.56-4.19-2.58-4 0m-5.39-43.82a27 27 0 0 1 .3 6.18c.04-.41-.03.13-.04.22l-.16.74a12 12 0 0 1-.4 1.26c.14-.37-.08.17-.1.2a8 8 0 0 1-.67 1.12c.22-.3-.23.26-.28.32a2 2 0 0 0 2.83 2.83 11 11 0 0 0 2.7-5.78 26 26 0 0 0-.18-7.09 2.05 2.05 0 0 0-2-2c-.97.05-2.14.9-2 2m-14.21-4.34-.36.18c-.24.12.14-.06.2-.08l-.26.1a8 8 0 0 1-.87.25q-.26.06-.53.1l-.23.04.17-.02q-.5.05-1.03.06a9 9 0 0 1-.94-.05c-.45-.04.41.08-.03 0a6 6 0 0 1-.89-.24l-.24-.1-1.4-.62a2 2 0 0 0-1.54.2 2 2 0 0 0-.72 2.74 2.4 2.4 0 0 0 1.2.92c-.22-.1-.27-.11-.03 0l.26.12.57.25a9 9 0 0 0 1.36.5 10 10 0 0 0 2.52.28 10 10 0 0 0 4.8-1.18 2 2 0 0 0-2.02-3.45Zm-16.18-15.83c-.34 1.44.15 4.67 2.85 4.77 3.53-.26 3.46-4.2 2.14-5.96-1.07-1.45-3.97-1.89-5 1.19m21.22-2.04c-.31 1.43.15 4.62 2.64 4.73 3.26-.25 3.18-4.15 1.97-5.9-1-1.43-3.68-1.87-4.61 1.17m-7.72 9.08q.4.6.76 1.22a14 14 0 0 1 .75 1.36l-.2-.48.1.34-.07-.54v.16l.07-.53-.02.1.2-.47-.05.09.31-.4-.28.27.4-.31-.28.16.48-.2a2 2 0 0 1-.42.1l.53-.06-.78.1a2 2 0 0 0-1.2.92 2 2 0 0 0 .72 2.74l.48.2a2 2 0 0 0 1.06 0l.1-.02-.52.07a5 5 0 0 0 1.05-.17 3.5 3.5 0 0 0 1.4-.88 2.5 2.5 0 0 0 .66-1.1 3 3 0 0 0 .02-1.3 4 4 0 0 0-.46-1.13q-.63-1.15-1.35-2.26a2 2 0 0 0-1.2-.91 2 2 0 0 0-1.54.2 2 2 0 0 0-.72 2.73m-110.49 18.4-.37.2-.2.1c.3-.24.3-.12.1-.04a9 9 0 0 1-.92.29c-.35.09-.7.13-1.06.2.1-.01.43-.04.15-.02l-.26.03-.57.03a9 9 0 0 1-1-.02l-.25-.02c-.26-.02.43.07.18.02l-.5-.1q-.23-.05-.45-.13c-.22-.08-.4-.2-.53-.2l.2.09-.2-.09-.28-.12-.96-.4a2 2 0 0 0-2.46 1.4 2.06 2.06 0 0 0 1.4 2.46c.05.02.45.19.18.07l.1.05.96.4a7 7 0 0 0 1.08.36 11 11 0 0 0 2.66.23 11 11 0 0 0 5.02-1.33 2 2 0 1 0-2.01-3.45ZM84.24 57.26c-.36 1.54.17 4.97 3.03 5.08 3.77-.27 3.69-4.46 2.3-6.35-1.15-1.54-4.24-2-5.33 1.27m22.6-2.15c-.33 1.49.16 4.82 2.8 4.93 3.44-.26 3.36-4.32 2.08-6.15-1.05-1.5-3.9-1.95-4.88 1.22m-8.13 9.3q.45.64.85 1.3a12 12 0 0 1 .85 1.46l-.2-.48.08.3-.07-.53v.17l.08-.53-.05.16.2-.48-.06.1.31-.4-.26.25.4-.32-.33.2.47-.2a4 4 0 0 1-.66.15 2 2 0 0 0-.48 3.66 2.2 2.2 0 0 0 1.54.2l.57-.12a4 4 0 0 0 1.42-.83 2.5 2.5 0 0 0 .85-2 4 4 0 0 0-.54-1.66q-.7-1.24-1.52-2.41a2 2 0 0 0-1.2-.92 2 2 0 0 0-1.53.2 2 2 0 0 0-.92 1.2 2 2 0 0 0 .2 1.54Zm82.88 23.56a43.4 43.4 0 0 0 23.13 6.07c7.2-.14 14.6-1.98 19.22-7.92a2.06 2.06 0 0 0 0-2.83 2 2 0 0 0-2.83 0c-4.1 5.26-10.38 6.68-16.75 6.76a39.3 39.3 0 0 1-20.75-5.54c-2.22-1.32-4.23 2.13-2.02 3.45Z" class="b"/><path d="M160.23 168.7a534 534 0 0 1-.78-20.01c-.14-5.74-.34-11.48-.02-17.22a126 126 0 0 1 2.03-17.54 34.5 34.5 0 0 1 5.77-13.84c3.68-5.03 9.09-8.6 14.18-12.03 2.13-1.43.13-4.9-2.02-3.45-4.92 3.32-10 6.73-13.89 11.27a35.5 35.5 0 0 0-7.34 14.44c-2.83 11.45-3.03 23.5-2.78 35.22.16 7.73.37 15.45.85 23.17.16 2.55 4.16 2.57 4 0m63.8-81.83a33 33 0 0 1 10.11 4.99 26.7 26.7 0 0 1 7.93 11.03c3.95 9.47 5.06 19.86 6.94 29.86 1.13 6.05 2.39 12.07 3.54 18.12.48 2.52 4.33 1.45 3.85-1.07-1.05-5.51-2.19-11.01-3.24-16.53-1.04-5.46-1.86-10.96-2.95-16.4-1.95-9.7-4.76-20.61-12.6-27.3a37 37 0 0 0-12.52-6.55c-2.45-.82-3.5 3.05-1.06 3.85" class="b"/><path d="M213.91 80.66a4 4 0 0 0 1.22 2.38 20 20 0 0 0 1.95 1.54 18 18 0 0 0 3.92 2.04 2 2 0 0 0 1.54-.2 2 2 0 0 0 .72-2.73 2.3 2.3 0 0 0-1.2-.92l-.45-.18.47.2a17 17 0 0 1-3.6-2.12l.41.32a7 7 0 0 1-1.25-1.12l.31.4-.19-.32.2.48a4 4 0 0 1-.2-.84 2 2 0 0 0-.92-1.2 2 2 0 0 0-2.74.72l-.2.48a2 2 0 0 0 0 1.06ZM23.63 139.94a17.6 17.6 0 0 0-9.92 7.77 18.3 18.3 0 0 0-1.94 12.25q1.87 12.48 3.68 24.97l1.6 10.92a2 2 0 0 0 2.47 1.4 2.05 2.05 0 0 0 1.4-2.46q-1.53-10.23-3.01-20.47-.87-5.96-1.76-11.91c-.52-3.54-1.2-6.95-.01-10.45a13.2 13.2 0 0 1 8.56-8.16c2.44-.79 1.4-4.65-1.06-3.86Zm403.6 3.47c8.69 2.52 14.57 10.58 17.98 18.54 4.32 10.08 3.98 20.83 3.7 31.57-.15 6.1-1.08 12.15-1.77 18.21a2 2 0 0 0 2 2 2.05 2.05 0 0 0 2-2c1.32-11.66 2.73-23.43 1.67-35.18-.9-10.1-4.45-20.01-11.02-27.83a28 28 0 0 0-13.49-9.16c-2.47-.72-3.53 3.14-1.06 3.85" class="b"/><path d="M429.5 140.48c-.55-1.24-1.22-3.13-1.8-4.65a104 104 0 0 0-2.37-5.92 10.3 10.3 0 0 0-3.16-4.54c-2.16-1.48-5.64-.9-8.1-.74-10.44.73-21.6 3.49-30.15 9.74a32 32 0 0 0-10.53 12.21 2.06 2.06 0 0 0 .72 2.74 2 2 0 0 0 2.73-.72c3.52-7.69 11.07-13.22 18.88-16.03a70 70 0 0 1 15.31-3.65 40 40 0 0 1 8.13-.42c1.45.14 2.07 1.98 2.6 3.16 1.6 3.54 2.7 7.29 4.29 10.84a2 2 0 0 0 2.73.71 2.05 2.05 0 0 0 .72-2.73" class="b"/><path d="M415.91 138.8a101 101 0 0 0-26.47 3.91 124 124 0 0 0-24.26 9.6 48 48 0 0 0-17.46 15.09c-4.57 6.74-6.7 14.73-8.12 22.65-.8 4.46-1.4 8.96-2.2 13.43-.38 2.2-.88 4.36-1.3 6.55a31 31 0 0 1-1.93 7.1 2.06 2.06 0 0 0 .71 2.74 2 2 0 0 0 2.74-.72c1.73-3.78 2.35-7.95 3.15-12 .76-3.84 1.32-7.71 1.94-11.57 1.2-7.59 2.57-15.38 6.14-22.26a40.6 40.6 0 0 1 15.6-16.02 108 108 0 0 1 22.8-9.77 99 99 0 0 1 28.66-4.73c2.57-.03 2.58-4.03 0-4" class="b"/><path d="M337.58 220.14c-5.91-5.14-11.3-10.78-16.67-16.47-2.52-2.67-5.44-7.08-9.7-5.56-3.16 1.13-6.11 3.69-8.57 5.9a55 55 0 0 0-11.7 14.57 20 20 0 0 0-1.36 2.94c-.62 1.81.27 3.06 1.2 4.55q2.95 4.69 6.11 9.24c7.92 11.5 16.45 23.22 29.03 29.97 6.61 3.55 14.1 5.48 21.6 4.45 7.34-1 13.98-5.59 18.22-11.55 4.18-5.88 6.08-13.41 8.01-20.26a178 178 0 0 0 5.3-25.28q.4-3.1.66-6.21c.21-2.57-3.79-2.55-4 0a152 152 0 0 1-3.95 23.33c-1.7 6.97-3.53 14.15-6.36 20.76a26 26 0 0 1-12.51 13.45c-6.2 3.02-13.47 2.44-19.8.17-12.28-4.39-21-14.57-28.45-24.78q-3.09-4.23-6.01-8.58-1.4-2.07-2.75-4.16-.68-1.04-1.34-2.1l-.6-.94c-.11-.18-.64-1.02-.6-.8.04.23.09-.19.15-.35.13-.33-.06.12.1-.23q.29-.65.62-1.28a39 39 0 0 1 1.77-3 55 55 0 0 1 5.18-6.77 48 48 0 0 1 6.88-6.46 32 32 0 0 1 3.9-2.52c1.64-.9 2.46.47 3.55 1.6 4.9 5.15 9.69 10.41 14.88 15.27q2.15 2 4.38 3.93c1.93 1.68 4.77-1.14 2.82-2.83Zm-57.04-32.39a12 12 0 0 0-3.07-3.55c-1.47-1.37-3.05-2.62-4.52-3.99-.89-.83-3.03-2.24-2.56-3.66.49-1.51 2.17-1.13 3.3-.7 7.27 2.75 13.95 6.9 21.1 9.96a10 10 0 0 1 4.57 3.2 9.3 9.3 0 0 1 1.96 5.85c-.07 2.57 3.93 2.57 4 0a13.4 13.4 0 0 0-6.52-11.63c-1.72-.96-3.67-1.6-5.45-2.44q-3.2-1.53-6.36-3.12-3.28-1.64-6.6-3.2a46 46 0 0 0-6.22-2.68 6.2 6.2 0 0 0-6.2 1.24 5.54 5.54 0 0 0-.87 6.77 27 27 0 0 0 5.04 5.02 63 63 0 0 1 3.35 3 7 7 0 0 1 1.6 1.95 2 2 0 0 0 2.73.72 2.05 2.05 0 0 0 .72-2.74" class="b"/><path d="M278.18 188.51q-10.77 1.1-21.56 2.04c-3.83.35-7.68.7-11.48 1.34-3.2.54-6.23 1.53-7.3 4.98-1.1 3.6 1.25 6.65 4.87 7.14a2.07 2.07 0 0 0 2.46-1.4 2 2 0 0 0-1.4-2.47 4 4 0 0 1-1.72-.45 1 1 0 0 1-.36-.32l-.07-.18a2.3 2.3 0 0 1 .31-1.8 3.8 3.8 0 0 1 2.72-1.36q1.9-.37 3.8-.62c6.15-.82 12.35-1.22 18.52-1.8q5.6-.53 11.2-1.1a2.06 2.06 0 0 0 2-2 2 2 0 0 0-2-2Z" class="b"/><path d="M266.36 198.21a209 209 0 0 0-19.84 1.46 8.6 8.6 0 0 0-5.48 2.36c-2.6 2.85-1.15 7.03 2.21 8.4a12 12 0 0 0 5.7.5l5.65-.48c4.1-.32 8.2-.63 12.3-.84 2.56-.13 2.58-4.13 0-4-6.25.32-12.5.82-18.72 1.4-1.23.1-2.85.26-3.92-.51a1.15 1.15 0 0 1-.31-1.74c.83-1.02 2.63-1.1 3.82-1.24q2.76-.31 5.52-.58c4.35-.4 8.71-.6 13.08-.73 2.56-.07 2.57-4.07 0-4Z" class="b"/><path d="M249.78 206.96c-2.38.95-4.33 3.48-3.44 6.14a5.3 5.3 0 0 0 5.04 3.52c3.14.17 6.32.05 9.46 0q2.56-.04 5.13-.12c2.56-.09 2.58-4.09 0-4q-5.3.17-10.6.17-2.04-.01-4.08-.05l-.23-.02c.6.06-.31-.1-.28-.08a1 1 0 0 1-.6-.54.4.4 0 0 1 .02-.45 2 2 0 0 1 .64-.71 2.06 2.06 0 0 0 1.4-2.46 2 2 0 0 0-2.46-1.4" class="b"/><path d="M258.5 218.58c5.2.06 10.41.22 15.62.3q2.92.02 5.86.2a17 17 0 0 1 5.05.83 2 2 0 0 0 2.46-1.4 2.05 2.05 0 0 0-1.4-2.46 20 20 0 0 0-5.48-.93 98 98 0 0 0-6.24-.25c-5.29-.07-10.58-.23-15.87-.3-2.57-.03-2.57 3.97 0 4Z" class="b"/><path d="M475.73 255.15c0-14.75.4-18.44.54-43.74a10 10 0 0 0-12.8-9.67c-16.45 4.79-40.27 11.74-56.63 16.46a12.9 12.9 0 0 0-9.34 12.37c-.1 24.85-.38 34.88-.38 57.25Z" class="a"/><path d="M399.12 287.82c0-12.85.14-25.69.25-38.53l.09-10.6.03-5.94a19 19 0 0 1 .43-5.13 11 11 0 0 1 5.17-6.54 19 19 0 0 1 4.11-1.48l4.75-1.37q20.8-6.02 41.59-12.1c3.07-.89 6.19-2.07 9.32-2.66a8 8 0 0 1 7.22 2.39c2.36 2.46 2.18 5.5 2.16 8.68q-.04 5.32-.1 10.63c-.11 8.8-.36 17.61-.4 26.42v3.56c0 2.58 4 2.58 4 0 0-9.06.24-18.12.37-27.18q.07-5.15.11-10.3c.04-3.75.53-7.74-1.03-11.26a12 12 0 0 0-6.75-6.3c-3.3-1.27-6.42-.6-9.69.35l-43.02 12.51-9.93 2.88c-3.23.93-6.18 2.2-8.46 4.78a15.2 15.2 0 0 0-3.81 9.22c-.24 4.06-.06 8.18-.1 12.24-.1 13.26-.27 26.51-.3 39.77l-.01 5.96c0 2.58 4 2.58 4 0" class="b"/></svg>
