<svg xmlns="http://www.w3.org/2000/svg" viewBox="0 -12.36 424.806 424.806"><defs><style>.b{fill:#fff}.c{fill:#211715}.d{fill:#c6c6c6}</style></defs><path d="M192.83 397.7c-1.45-9.54-3.65-18.91-8.21-27.53a55 55 0 0 0-7.71-11.12 42 42 0 0 0-10.67-8.24c-10.79-6.28-23.46-8.99-35.52-11.59-4.4 8.6-9.06 17.52-15.92 24.96-3.35-3.04-14.14-14.57-14.56-15.06-.55-.64-.63-2.26.3-2.71l-4.32.15c.96.38.99 2 .49 2.68-.39.52-10.35 12.78-13.48 16.04-7.28-6.86-12.51-15.33-17.46-23.51-21.52 6.6-32.08 10.46-41.76 17.14-6.73 4.64-10.8 10.73-14.33 19.47a221 221 0 0 0-4.54 19.32" style="fill:#957f6e"/><path d="M114.8 364.18c6.78-7.34 11.4-16.13 15.75-24.63a37 37 0 0 0-8.5-9.62 74 74 0 0 1-21.51 16.47c-.93.45-.85 2.07-.3 2.71.42.49 11.21 12.03 14.56 15.07" class="b"/><path d="M146.85 236.62a57 57 0 0 1 1.04 29.83l-.17.77a6.3 6.3 0 0 1 4.04 2.84c2.14 3.41 2.3 9.84 1.1 13.86-.84 2.85-2.24 7.22-5.9 10.45a7.8 7.8 0 0 1-5.96 1.97l-.58-.07a46 46 0 0 1-1.86 5.7c-1.37 4.2-9.2 18.98-19.61 25.15v6.04a73 73 0 0 1-18.41 13.24l-4.32.15a74 74 0 0 1-22.61-14.93s0-2.04 0-4.2a45 45 0 0 1-10.5-8.85 54 54 0 0 1-10.98-18.92 7.7 7.7 0 0 1-6.59-1.39c-3.89-2.94-5.62-7.18-6.68-9.96-1.5-3.92-1.84-10.34.04-13.9a6.2 6.2 0 0 1 3.58-3.07l-.24-.81a59 59 0 0 1-2.67-17.05 54.4 54.4 0 0 1 20.82-43.4 53.3 53.3 0 0 1 31.98-11.58 53.3 53.3 0 0 1 32.78 9.08 54.5 54.5 0 0 1 21.7 29.05m232.77 42.3a6.8 6.8 0 0 1 4.97-1.5 6.3 6.3 0 0 1 5.43 3.45c1.72 3.42 1.28 9.52-.22 13.21-1.06 2.62-2.78 6.62-6.54 9.35a7.4 7.4 0 0 1-5.82 1.32l-.54-.13a44 44 0 0 1-2.28 5.23c-1.44 3.31-8.13 13.58-16.6 19.5.02 1.7 0 2.68.18 5.2a14 14 0 0 0 .68 4.02 10 10 0 0 0 2.95 4.3c2.99 2.4 6.07 3.55 9.85 4.98l3.46 1.36a91.5 91.5 0 0 1-39.25 9.72c-13.2.05-30.51-4.5-39.79-9.69l3.55-1.4c3.79-1.41 6.86-2.57 9.85-4.98a38 38 0 0 0 4.45-3.57c1.87-2.1 2.5-4.74 3.05-7.9-5.84-2.34-10.76-6.65-15.28-12.75a51 51 0 0 1-8.65-18.9 7.3 7.3 0 0 1-6.1-1.91c-3.42-3.14-4.67-7.31-5.42-10.04-1.06-3.85-.78-9.95 1.32-13.15a6.3 6.3 0 0 1 5.8-2.79 6.8 6.8 0 0 1 4.76 2.07s-5.08-41.88 42.61-41.88 43.57 46.89 43.57 46.89" class="b"/><path d="M295.1 352.2a127 127 0 0 0 11.79-4.8 30 30 0 0 0 4.34-2.87 40 40 0 0 0 4.06-3.18c2.53-2.5 3.44-5.93 4.03-9.33a2.47 2.47 0 0 0-1.68-2.95 2.4 2.4 0 0 0-2.95 1.68c-.48 2.76-1 5.61-3.17 7.57-1.15 1.04-2.48 1.9-3.72 2.84a23 23 0 0 1-3.97 2.41c-3.21 1.56-6.68 2.7-10 4a2.47 2.47 0 0 0-1.68 2.95 2.4 2.4 0 0 0 2.95 1.68m60.53-22.43c.02 3.17-.13 6.77 1.06 9.74a13 13 0 0 0 2.96 4.63 21 21 0 0 0 4.47 3.1c3.83 2.03 8.08 3.38 12.12 4.97a2.4 2.4 0 0 0 2.95-1.68 2.46 2.46 0 0 0-1.68-2.95c-3.36-1.33-6.88-2.48-10.13-4.06-2.57-1.26-5.1-2.8-6.18-5.57a15 15 0 0 1-.67-4.45q-.11-1.86-.1-3.73c-.02-3.09-4.82-3.1-4.8 0" class="c"/><path d="M373.25 257.84a43 43 0 0 0-6.97-9.9l-7.08-6.17c-4.4 5.21-11 8.55-17.02 10.6-7.85 2.66-13.03 1.65-21.24-.84-1.95.86-4 1.57-5.8 2.16-4 1.3-8.57 1.75-12.3 3.72a15.4 15.4 0 0 0-6.6 7.78c-.83 1.94-2.24 6.75-2.8 8.72a6.8 6.8 0 0 0-4.77-2.07 8 8 0 0 0-2.05.2 54 54 0 0 1-2.1-16.85c1.04-18.19 9.48-30.21 18.53-35.07 8.5-10.48 22.9-16.1 37.66-14.5a52 52 0 0 1 25.63 10.08l8.71 7.68c8.5 7.5 14.75 20.2 14.48 37.58a55 55 0 0 1-3.04 16.86 8 8 0 0 0-1.9-.4 6.8 6.8 0 0 0-4.98 1.5l-1.78 1.53-.16-4.84a42 42 0 0 0-4.42-17.77" class="d"/><path d="M295.13 272.22a9.7 9.7 0 0 0-10.58-2 9.5 9.5 0 0 0-5.12 6.23c-1.93 6.15-.67 13.35 2.52 18.87 2.22 3.83 5.93 7.24 10.64 6.89a2.46 2.46 0 0 0 2.4-2.4 2.4 2.4 0 0 0-2.4-2.4c-3.66.27-5.99-3.15-7.33-6.13a21 21 0 0 1-1.9-7.9 18 18 0 0 1 .43-4.65 11 11 0 0 1 .56-1.81 10 10 0 0 1 .6-1.07c.05-.1.4-.51.05-.1a3.7 3.7 0 0 1 2.71-1.49 4.8 4.8 0 0 1 4.03 1.34c2.18 2.2 5.57-1.2 3.4-3.39Zm54.18 63.56c6.18-1.06 11.58-5.1 15.95-9.4a63 63 0 0 0 10.22-13.02 52 52 0 0 0 3.73-8.1l-2.95 1.68c8.04 1.84 13.11-5.46 15.76-11.97a22 22 0 0 0 1.42-10.22c-.28-2.86-1.12-5.81-3.45-7.68a9.7 9.7 0 0 0-12.07.16 2.4 2.4 0 0 0 0 3.4 2.46 2.46 0 0 0 3.4 0 4.7 4.7 0 0 1 4.15-.61 3.7 3.7 0 0 1 2.14 1.46c1.43 2.36 1.32 5.64.89 8.28a21 21 0 0 1-3.32 8.2c-1.71 2.6-4.32 5.11-7.64 4.35a2.47 2.47 0 0 0-2.96 1.68 48 48 0 0 1-6.39 11.7 50 50 0 0 1-11.66 11.78 21.5 21.5 0 0 1-8.5 3.68 2.4 2.4 0 0 0-1.67 2.95 2.46 2.46 0 0 0 2.95 1.68" class="c"/><path d="M290.1 297.02a54 54 0 0 0 6.76 18.63c3.6 6.08 8.47 11.8 14.5 15.56a31 31 0 0 0 9.9 3.96c3.01.63 4.3-4 1.28-4.63-7.62-1.58-13.57-6.38-18.24-12.43a50 50 0 0 1-9.59-22.37 2.4 2.4 0 0 0-2.95-1.68 2.46 2.46 0 0 0-1.67 2.96Zm38.65 17.01q.23-.09.44-.2c.25-.12-.6.24-.24.1l.32-.12a12 12 0 0 1 1.42-.43q.46-.1.93-.18c.46-.1-.29.02.03-.01l.52-.05a19 19 0 0 1 2.68-.02q.64.03 1.27.11c-.47-.06.24.05.27.05l.53.1a13 13 0 0 1 1.87.54c.06-.02.26.12.32.15l.6.33.46.3c.33.2-.44-.4-.2-.15l.19.16a2.4 2.4 0 0 0 3.4-3.4c-2.33-2.04-5.43-2.76-8.45-2.98a18 18 0 0 0-8.78 1.55 2.4 2.4 0 0 0-.86 3.28 2.47 2.47 0 0 0 3.28.87m4.8-22.34q-.64 1.93-1.11 3.9a6 6 0 0 0-.2 1.58 3.3 3.3 0 0 0 1.5 2.67 5 5 0 0 0 2.19.7 6 6 0 0 0 1.43-.12l-.64.09.2-.03a2.6 2.6 0 0 0 1.7-.7 2.4 2.4 0 0 0 0-3.4 2.4 2.4 0 0 0-1.7-.7l-1 .14.63-.09a3 3 0 0 1-.62.02l.63.09a2 2 0 0 1-.53-.15l.57.25a3 3 0 0 1-.5-.28l.5.37-.1-.1.37.49-.1-.18.24.57-.06-.2.1.64a2 2 0 0 1 0-.53l-.09.64a19 19 0 0 1 .57-2.27q.3-1.06.65-2.12a2.4 2.4 0 0 0-1.68-2.95 2.45 2.45 0 0 0-2.95 1.68Zm-20.53-12.25c-.85 2.28-.7 7.64 3.67 8.35 5.81.3 6.5-6.13 4.72-9.28-1.46-2.57-6.1-3.88-8.4.93m46.5 2.7c.58 2.36-.2 7.67-4.62 7.87-5.8-.37-5.74-6.84-3.6-9.76 1.74-2.39 6.5-3.15 8.22 1.9m-57.69-64.08c-13.52 7.35-19.7 24.36-19.76 39a54 54 0 0 0 2 14.85c.84 2.97 5.47 1.7 4.63-1.28a49.6 49.6 0 0 1-.58-24.22c1.5-6.7 4.31-13.29 8.95-18.44a26 26 0 0 1 7.19-5.77c2.71-1.47.3-5.62-2.43-4.14" class="c"/><path d="M370.37 215.77a57.4 57.4 0 0 0-23.95-11.67 49 49 0 0 0-28.19 2.19 44 44 0 0 0-13.3 8.33c-2.3 2.1 1.11 5.48 3.39 3.4 12.75-11.68 32.19-12.97 47.5-5.8a57 57 0 0 1 11.15 6.95 2.5 2.5 0 0 0 3.4 0 2.4 2.4 0 0 0 0-3.4m18.65 61.97a61.5 61.5 0 0 0 2.35-26.48 51 51 0 0 0-7.51-21.25 41 41 0 0 0-7.11-8.33c-2.3-2.04-5.7 1.34-3.4 3.4 10.5 9.32 14.33 23.76 13.73 37.4a56 56 0 0 1-2.69 13.99c-.9 2.96 3.73 4.22 4.63 1.27m-24.44-28.1a40 40 0 0 1 10.69 25.97c.12 3.08 4.92 3.1 4.8 0a45.2 45.2 0 0 0-12.1-29.37c-2.1-2.27-5.5 1.13-3.4 3.4Zm-6.42-10.4c-3.4 4.58-8.63 7.7-13.84 9.8a32 32 0 0 1-8.98 2.43 28 28 0 0 1-8.98-.9c-3-.74-4.29 3.9-1.28 4.62a32 32 0 0 0 10.46 1.06 36 36 0 0 0 10.4-2.73c6.37-2.6 12.22-6.27 16.36-11.86a2.4 2.4 0 0 0-.86-3.28 2.46 2.46 0 0 0-3.28.86" class="c"/><path d="M334.23 237.91a45 45 0 0 1-7.79 7.42 36 36 0 0 1-5.1 3.37 43 43 0 0 1-5.75 2.32c-4.09 1.38-8.44 1.91-12.43 3.61a17 17 0 0 0-8.6 8.47 65 65 0 0 0-3.44 10.17c-.87 2.98 3.76 4.25 4.62 1.28 1.74-5.99 3.2-13.12 9.67-15.69 3.93-1.56 8.21-2.08 12.21-3.47a40 40 0 0 0 10.93-5.68 51 51 0 0 0 9.08-8.4 2.47 2.47 0 0 0 0-3.4 2.4 2.4 0 0 0-3.4 0m24.85 35.7a19 19 0 0 0 2.24 2.6 16 16 0 0 0 1.52 1.26 6 6 0 0 0 1.53.8 2 2 0 0 0 .95.05 2 2 0 0 0 .9-.28 2.4 2.4 0 0 0 .86-3.29l-.38-.48a2.4 2.4 0 0 0-1.06-.62l-.07-.03.58.24a5 5 0 0 1-1.02-.63l.49.38a15 15 0 0 1-2.57-2.63l.38.49-.2-.28a2.7 2.7 0 0 0-1.44-1.1 2.5 2.5 0 0 0-1.85.25 2.4 2.4 0 0 0-1.1 1.43 2.4 2.4 0 0 0 .24 1.85Zm-40.05 31.16a21 21 0 0 0-2.3 4.68 2.4 2.4 0 0 0 3.52 2.71l.48-.37a2.4 2.4 0 0 0 .62-1.06q.19-.53.4-1.04l-.24.57a19 19 0 0 1 1.66-3.07 2.4 2.4 0 0 0-2.7-3.53 2.6 2.6 0 0 0-1.44 1.1Zm28.9 6.03a24 24 0 0 1 .95 3.82l-.09-.64.03.23a2.7 2.7 0 0 0 .7 1.7 2.4 2.4 0 0 0 3.39 0 2.4 2.4 0 0 0 .7-1.7 22 22 0 0 0-1.06-4.69 2.5 2.5 0 0 0-1.1-1.43 2.5 2.5 0 0 0-1.84-.24 2.4 2.4 0 0 0-1.68 2.95" class="c"/><path d="M300.08 79.39v-22.2l92.85-34.48c9.8 9.62 21.15 20.72 29.44 28.99v23.4c-22.35 8.6-68.2 25.51-91.95 34.14a6397 6397 0 0 1-30.34-29.85" style="fill:#a98a75"/><path d="m360.23 36.68-1.26-1.24-21.46 7.95c10.26 9.91 21.03 20.05 30.8 29.77v22.2c6.9-2.55 13.91-5.15 20.68-7.68V65c-9.13-9.24-19.14-18.86-28.76-28.32" class="b"/><path d="M326.4 67.12c-1.99.73-2.33 2.17-1.13 3.27a5.5 5.5 0 0 0 5.62.83c2.08-.77 2.44-2.03 1.06-3.3a5.8 5.8 0 0 0-5.56-.8m8.25-3.03c-1.95.71-2.28 2.15-1.09 3.24a5.4 5.4 0 0 0 5.53.83c2.05-.76 2.4-2 1.04-3.26a5.7 5.7 0 0 0-5.48-.81m8.13-2.99c-1.92.7-2.24 2.12-1.06 3.2a5.3 5.3 0 0 0 5.44.85c2.02-.75 2.36-1.98 1.02-3.23a5.6 5.6 0 0 0-5.4-.82m48.92-7.38a2.1 2.1 0 0 1-.07-2.83c1.13-1.65-.43-3.44-2.08-3.6-1.6-.17-3.64-.72-4.56-2.16l-.23-.41c-.03-.07-.17-.69-.14-.48a1 1 0 0 1 .06-.5 2.4 2.4 0 0 1 1.07-1.12 8.2 8.2 0 0 1 6.16-.55 4.6 4.6 0 0 1 3.47 4.5 2.44 2.44 0 0 0 2.4 2.4c3.63-.03 6.76.3 9.79 2.45a2.4 2.4 0 0 0 3.28-.86 2.45 2.45 0 0 0-.86-3.29c-3.67-2.6-7.81-3.13-12.2-3.1l2.4 2.4a9.5 9.5 0 0 0-6.65-9.02c-3.35-1.1-7.8-.8-10.73 1.26a6.36 6.36 0 0 0-2.19 8.34c1.71 3.3 5.47 4.57 8.93 4.93l-2.07-3.61a6.85 6.85 0 0 0 .83 8.65c2.26 2.1 5.66-1.3 3.39-3.4m-69.1 1.1c-2.53.88-5.07 1.7-7.6 2.6a2.6 2.6 0 0 0-1.43 1.1 2.4 2.4 0 0 0 2.72 3.52c2.51-.9 5.05-1.71 7.58-2.59a2.6 2.6 0 0 0 1.43-1.1 2.4 2.4 0 0 0-2.7-3.52" class="c"/><path d="m306.67 66.26 22.54 22.2a2.4 2.4 0 0 0 2.34.61c12.22-4.28 24.4-8.7 36.55-13.14a2.46 2.46 0 0 0 1.68-2.95 2.4 2.4 0 0 0-2.95-1.68 2886 2886 0 0 1-36.56 13.14l2.34.62-22.55-22.2c-2.2-2.16-5.6 1.23-3.4 3.4m50.8-28.93c9.94 9.79 20.01 19.44 29.82 29.37l-.7-1.7v22.5c0 3.08 4.8 3.09 4.8 0V71.27c0-2.07.12-4.18 0-6.25-.08-1.37-1.12-2.15-2.01-3.05l-4-4q-3.66-3.64-7.35-7.25-8.6-8.38-17.17-16.8c-2.2-2.17-5.6 1.22-3.4 3.4Z" class="c"/><path d="M336.07 45.32c10.18 9.84 20.5 19.55 30.54 29.53l-.7-1.7v21.83c0 3.1 4.8 3.1 4.8 0V78.9c0-1.9.12-3.83 0-5.73-.1-1.6-1.64-2.63-2.7-3.68q-1.93-1.91-3.89-3.81-3.7-3.62-7.45-7.21c-5.73-5.52-11.49-11-17.21-16.53-2.22-2.15-5.62 1.24-3.4 3.4m78.87 7.78q-12.98 5.05-26 9.95a2.47 2.47 0 0 0-1.68 2.96 2.4 2.4 0 0 0 2.95 1.67q13.02-4.92 26-9.95a2.47 2.47 0 0 0 1.68-2.95 2.4 2.4 0 0 0-2.95-1.67" class="c"/><path d="M302.48 79.39v-22.2l-1.76 2.32c8.38-3.18 16.79-6.29 25.19-9.43q23.61-8.82 47.26-17.58c6.79-2.5 13.58-5.02 20.4-7.47l-2.34-.62c10 9.47 19.96 19 29.44 28.99l-.62-1.06c-.14-.34-.05-.55-.08-.06v.63l.02 1.21v2.9q.02 3.35 0 6.7.01 5.69-.03 11.38l.33-1.21 1.44-1.1a3189 3189 0 0 1-34.12 12.86q-19.73 7.35-39.5 14.6-9.16 3.36-18.34 6.7l2.34.61c-10.17-9.9-20.46-19.68-30.34-29.86-2.15-2.22-5.54 1.17-3.4 3.4 9.89 10.18 20.18 19.96 30.34 29.86a2.4 2.4 0 0 0 2.34.61q30.08-10.92 60.06-22.12 14.17-5.28 28.29-10.65l2.9-1.11c1.67-.65 2.46-1.35 2.47-3.2l.02-6.46q.04-7.56-.01-15.12a7 7 0 0 0-.1-1.85 6 6 0 0 0-1.65-2.14q-1.78-1.85-3.58-3.69-3.9-3.98-7.89-7.89-8.38-8.25-16.94-16.32a2.4 2.4 0 0 0-2.33-.62c-13.69 4.93-27.32 10.03-40.95 15.1q-21.45 7.98-42.88 16l-9.03 3.38a2.5 2.5 0 0 0-1.76 2.32v22.2c0 3.08 4.8 3.08 4.8-.01" class="c"/><path d="M328.68 87.23v12.2a2.4 2.4 0 1 0 4.8 0v-12.2a2.4 2.4 0 1 0-4.8 0" class="c"/><path d="M258.36 87.33v27.1h-93.83v-27.1zM248.33 73.5v13.81h-73.78v-13.8zm-9.75-71.1v71.11H184.3c0-7.7.27-60.77.27-71.11Z" style="fill:#b3b3b3"/><path d="M186.71 73.52q.02-12.26.1-24.52l.14-34.55L187 2.4l-2.4 2.4h53.98l-2.4-2.4v71.11c0 3.1 4.8 3.1 4.8 0V2.4a2.44 2.44 0 0 0-2.4-2.4H184.6a2.44 2.44 0 0 0-2.4 2.4q-.02 13.2-.1 26.4l-.14 34.03q-.04 5.35-.04 10.69c0 3.09 4.8 3.1 4.8 0Z" class="c"/><path d="M176.95 87.33V73.52l-2.4 2.4h73.78l-2.4-2.4v13.8c0 3.1 4.8 3.1 4.8 0v-13.8a2.44 2.44 0 0 0-2.4-2.4h-73.78a2.44 2.44 0 0 0-2.4 2.4v13.8c0 3.1 4.8 3.1 4.8 0" class="c"/><path d="M258.36 84.93h-93.84a2.43 2.43 0 0 0-2.4 2.4v27.1a2.44 2.44 0 0 0 2.4 2.4h93.84a2.44 2.44 0 0 0 2.4-2.4v-27.1c0-3.1-4.8-3.1-4.8 0v27.1l2.4-2.4h-93.84l2.4 2.4v-27.1l-2.4 2.4h93.84c3.1 0 3.1-4.8 0-4.8" class="c"/><path d="M413.5 397.7q.13-3.08.18-6.06c-.01-15.83-5.24-24.03-12.21-30.02-6.47-6.36-14.34-10-24.66-13.3a91 91 0 0 1-40.91 10.6c-13.68.06-31.77-4.83-40.76-10.24-13.4 4.46-26.49 7.74-34.35 19.58a68 68 0 0 0-7.04 15.46 171 171 0 0 0-3.3 13.98Z" style="fill:#a095c1"/><path d="M8.15 88.2V50.14l47.2-47.2 47.21 47.2v62.25H8.15Z" class="b"/><path d="M59.47 65.48H81.6v19.85H59.47z" style="fill:#88c5e9"/><path d="M5.75 51.28v61.1a2.44 2.44 0 0 0 2.4 2.4H90.9c3.81 0 7.67.16 11.48 0h.17a2.44 2.44 0 0 0 2.4-2.4v-61.1c0-3.09-4.8-3.1-4.8 0v61.1l2.4-2.4H12c-1.2 0-2.48-.1-3.68 0h-.17l2.4 2.4v-61.1c0-3.09-4.8-3.1-4.8 0" class="c"/><path d="m4.1 57.59 17.96-17.97L50.5 11.2l6.56-6.56h-3.4L71.63 22.6l28.43 28.43 6.56 6.56c2.19 2.19 5.58-1.2 3.4-3.4L92.04 36.24 63.61 7.8l-6.56-6.56a2.44 2.44 0 0 0-3.4 0L35.7 19.2 7.27 47.63.7 54.19c-2.2 2.19 1.2 5.58 3.39 3.4m77.5 5.49H59.48a2.43 2.43 0 0 0-2.4 2.4v19.85a2.44 2.44 0 0 0 2.4 2.4H81.6a2.44 2.44 0 0 0 2.4-2.4V65.48c0-3.1-4.8-3.1-4.8 0v19.85l2.4-2.4H59.47l2.4 2.4V65.48l-2.4 2.4H81.6c3.09 0 3.09-4.8 0-4.8M8.16 77.8h25.5l-2.4-2.4v37c0 3.08 4.8 3.08 4.8 0v-37a2.43 2.43 0 0 0-2.4-2.4H8.16c-3.09 0-3.1 4.8 0 4.8m244.6 320.53c1.93-10.11 4.5-20.75 10.44-29.35 4.93-7.15 12.8-11.15 20.75-14.03 4.92-1.78 9.94-3.27 14.89-5a2.46 2.46 0 0 0 1.67-2.95 2.4 2.4 0 0 0-2.95-1.68c-8.92 3.12-18.33 5.43-26.54 10.26a37 37 0 0 0-10.56 9.08 54 54 0 0 0-7.29 13.64 105 105 0 0 0-5.04 18.76 2.46 2.46 0 0 0 1.68 2.95 2.4 2.4 0 0 0 2.95-1.67Z" class="c"/><path d="M373.97 347.12a87 87 0 0 1-31.8 9.12c-10.58.93-21.15-.68-31.29-3.67a65 65 0 0 1-14.14-5.73c-2.68-1.55-5.1 2.6-2.43 4.14a67 67 0 0 0 13.25 5.6 104 104 0 0 0 16.19 3.75 78 78 0 0 0 16.62.85 93 93 0 0 0 18.26-3.1 90 90 0 0 0 17.76-6.82c2.75-1.42.32-5.56-2.42-4.14" class="c"/><path d="M48.16 271.47a7.4 7.4 0 0 0-3.47-.58 9 9 0 0 0-2.2.43 60 60 0 0 1-2.92-17.85 54.2 54.2 0 0 1 10.41-32.57c1.28 3.23 6.57 6.01 9.2 7.86 3.58 2.5 3.11 6.02 1.3 9.4a89 89 0 0 0-6.95 16.93c-1.7 5.74-2.43 11.67-3.65 17.47a7 7 0 0 0-1.72-1.1m93.63-3.32a6 6 0 0 0-1.45 1.3c-1.72-5.8-2.9-11.78-5.08-17.5a89 89 0 0 0-8.22-16.34c-2.07-3.23-2.81-6.7.56-9.48 2.57-2.1 7.88-5.43 8.67-8.87 6.53 7.51 11.81 17.92 12.95 32a58 58 0 0 1-1.48 17.96 9 9 0 0 0-2.02-.21 7.4 7.4 0 0 0-3.93 1.14" class="d"/><path d="M150.2 267.09c3.2-14.77 1.33-30.44-6.54-43.5a57.6 57.6 0 0 0-25.97-22.89 59.4 59.4 0 0 0-44.3-.83 57.14 57.14 0 0 0-35.03 64.99q.64 3.18 1.57 6.3c.88 2.95 5.51 1.7 4.63-1.28-4-13.46-3.38-28.14 3.14-40.73a53 53 0 0 1 22.77-22.76 54.7 54.7 0 0 1 40.8-3.01 52 52 0 0 1 25.8 18.93 53.7 53.7 0 0 1 9.54 37.5q-.37 3.03-1.03 6c-.65 3.02 3.98 4.3 4.63 1.28Z" class="c"/><path d="M48 222.32c1.4 2.9 4.4 4.87 7.02 6.58 2.1 1.38 4.95 2.6 4.35 5.52a19 19 0 0 1-2.02 4.57 95 95 0 0 0-2.75 5.98 83 83 0 0 0-4.08 12.06c-1.22 4.92-1.92 9.94-2.95 14.9-.62 3.01 4 4.3 4.63 1.27.95-4.56 1.61-9.18 2.67-13.72a80 80 0 0 1 4.1-12.6q1.25-3 2.73-5.88a23 23 0 0 0 2.3-5.3c.86-3.93-.8-7.13-4.05-9.31-2.67-1.8-6.35-3.46-7.82-6.5a2.4 2.4 0 0 0-3.28-.86 2.45 2.45 0 0 0-.86 3.29Zm85.8-5.16a10 10 0 0 1-2.62 3.1c-1.2 1.07-2.5 2.02-3.77 3a11.6 11.6 0 0 0-3.68 3.85 8.2 8.2 0 0 0-.61 5.53 16 16 0 0 0 2.34 4.95q1.7 2.72 3.2 5.56a79 79 0 0 1 5.15 11.88c1.61 4.83 2.7 9.81 4.1 14.7.86 2.96 5.5 1.7 4.63-1.27-1.2-4.14-2.15-8.34-3.4-12.46a84 84 0 0 0-4.8-12.2q-1.33-2.8-2.86-5.48c-1-1.75-2.23-3.42-3.13-5.22a4.4 4.4 0 0 1-.44-3.67 8 8 0 0 1 2.69-2.61c3.06-2.32 6.37-4.69 7.82-8.38a2.4 2.4 0 0 0-1.68-2.95 2.46 2.46 0 0 0-2.95 1.67Z" class="c"/><path d="M51.59 270.87a10.15 10.15 0 0 0-11.2-1.24 9.7 9.7 0 0 0-4.73 6.83 25.4 25.4 0 0 0 4.5 19.64c2.9 3.97 7 6.88 12.12 5.99a2.4 2.4 0 0 0 1.67-2.95 2.46 2.46 0 0 0-2.95-1.68c-3.5.61-6.33-2.94-7.88-5.6a22 22 0 0 1-2.97-8.42c-.32-2.78-.34-6.12 1.23-8.51q.15-.2-.06.07.14-.18.3-.34c.08-.08.61-.56.46-.45a5 5 0 0 1 1.7-.77 5 5 0 0 1 4.41.83 2.47 2.47 0 0 0 3.4 0 2.4 2.4 0 0 0 0-3.4m90.77-.1a5.05 5.05 0 0 1 7.15.23c-.35-.4.11.18.17.28a7 7 0 0 1 .58 1.07 12 12 0 0 1 .57 1.98 19 19 0 0 1 .35 5.03 22 22 0 0 1-2.29 8.43c-1.53 3.1-4.03 6.52-7.89 6.15a2.4 2.4 0 0 0-2.4 2.4 2.45 2.45 0 0 0 2.4 2.4c7.99.77 12.5-7.99 14.26-14.48a24 24 0 0 0 .27-10.85 11 11 0 0 0-4.47-7.38 10.05 10.05 0 0 0-12.1 1.35c-2.22 2.16 1.18 5.55 3.4 3.4Z" class="c"/><path d="M138.83 292.27a44 44 0 0 1-1.42 5.78 46 46 0 0 1-.95 2.79c-.18.46.27-.72-.1.22l-.27.74-.17.45-.12.28.05-.12a48 48 0 0 1-2.3 4.6 57 57 0 0 1-11.59 14.94 22.5 22.5 0 0 1-8.82 5.07c-2.97.81-1.71 5.44 1.28 4.63 6.91-1.88 12.5-7.14 16.83-12.62a64 64 0 0 0 9.15-15.15q.15-.34.27-.68c.04-.1.22-.67.1-.33-.16.48.14-.33.23-.54a23 23 0 0 0 .72-2 45 45 0 0 0 1.74-6.79 2.47 2.47 0 0 0-1.68-2.95 2.4 2.4 0 0 0-2.95 1.68m-90.05 4.57a57 57 0 0 0 8.7 18.54c4.4 6.09 10.04 11.76 16.82 15.14a33 33 0 0 0 11.38 3.3 2.4 2.4 0 0 0 2.4-2.4 2.46 2.46 0 0 0-2.4-2.4c-13.23-1.45-23.56-13-28.98-24.4a53 53 0 0 1-3.3-9.06c-.8-2.98-5.43-1.71-4.63 1.28Zm43.85 12.22 1-.54c.1-.05.48-.3.6-.28l-.24.1.22-.08.38-.14a15 15 0 0 1 1.97-.52l.68-.12a22 22 0 0 1 1.71-.13 19 19 0 0 1 2.7.08c.2.02.49.07.13.01l.6.1.9.22.84.27c.41.15.02-.07-.12-.05l.35.16a7 7 0 0 1 .96.57 2.4 2.4 0 0 0 3.28-.86 2.47 2.47 0 0 0-.86-3.28c-2.45-1.76-5.86-2.13-8.78-2.02a18.5 18.5 0 0 0-8.74 2.37 2.4 2.4 0 1 0 2.42 4.14m3.44-22.85.63 2.25a20 20 0 0 1 .55 2.4l-.08-.65a2 2 0 0 1 0 .49l.1-.64-.08.29.24-.58-.1.19.37-.49-.1.1.48-.37a3 3 0 0 1-.44.25l.57-.25a3 3 0 0 1-.58.17l.64-.08a3 3 0 0 1-.61 0l.64.08-1.15-.16a2.4 2.4 0 0 0-1.7.7 2.4 2.4 0 0 0 0 3.4 2.7 2.7 0 0 0 1.7.7h.1l-.63-.08a9 9 0 0 0 1.43.17 5 5 0 0 0 2.2-.6 3.2 3.2 0 0 0 1.63-2.09 5 5 0 0 0-.08-2.27q-.46-2.13-1.1-4.2a2.5 2.5 0 0 0-1.1-1.44 2.4 2.4 0 0 0-3.52 2.71ZM72.92 274.4c-.66 2.47.04 8.07 4.69 8.37 6.11-.27 6.18-7.08 4-10.19-1.79-2.55-6.79-3.44-8.7 1.82m48.97-1.88c.84 2.42.57 8.05-4.04 8.7-6.11.2-6.7-6.57-4.77-9.85 1.59-2.68 6.5-3.95 8.8 1.15" class="c"/><path d="M92.68 284.65c3.93-7.06 3.22-17.63-5.1-21.17a29 29 0 0 0-12.55-1.99c-3.95.19-8.22.82-11.62 2.97a14.7 14.7 0 0 0-6.63 8.85 16.7 16.7 0 0 0 .95 9.66 17.9 17.9 0 0 0 15.72 10.97 24.5 24.5 0 0 0 11.27-1.76 17.7 17.7 0 0 0 7.96-7.53c1.56-2.67-2.58-5.09-4.15-2.42a13.4 13.4 0 0 1-5.16 5.29 16 16 0 0 1-6.65 1.6c-5.13.28-10.36-1.05-13.32-5.58-2.68-4.1-3.16-9.69.52-13.39 2.11-2.12 4.75-2.99 7.64-3.5a28 28 0 0 1 10.44.14c3.04.64 6.29 1.76 7.59 5 1.36 3.37.66 7.36-1.06 10.44-1.5 2.7 2.64 5.12 4.14 2.42m14.26-2.97c-3.15-4.75-3.73-12.36 2.36-15.04a26 26 0 0 1 9.82-2.04c3.1-.07 6.53.08 9.3 1.6a9.7 9.7 0 0 1 4.92 5.78 12 12 0 0 1-.4 6.82 13 13 0 0 1-10.73 8.5 20.5 20.5 0 0 1-8.82-.52 12.7 12.7 0 0 1-6.45-5.1 2.46 2.46 0 0 0-3.29-.86 2.4 2.4 0 0 0-.86 3.28 18 18 0 0 0 7.6 6.64 22 22 0 0 0 9.95 1.5c6.88-.36 13.5-3.64 16.44-10.17a18 18 0 0 0 1.5-9.54 13.7 13.7 0 0 0-5.76-9.4c-3.22-2.38-7.08-3.1-11-3.3a32 32 0 0 0-12.67 1.84c-4.05 1.52-7.65 4.5-8.66 8.91a17.6 17.6 0 0 0 2.6 13.52c1.71 2.57 5.86.17 4.15-2.42" class="c"/><path d="m92.57 275.73 9.56-.37a2.4 2.4 0 1 0 0-4.8l-9.56.37a2.4 2.4 0 0 0 0 4.8m-27.12-22.34a11 11 0 0 1-1.39 1.23l.49-.38a17 17 0 0 1-3.6 2.26l.58-.24-.38.13a2.5 2.5 0 0 0-1.43 1.1 2.4 2.4 0 0 0 2.71 3.53 12 12 0 0 0 3.3-1.74q1.01-.7 1.96-1.46a10 10 0 0 0 1.15-1.04 2.5 2.5 0 0 0 .7-1.7 2.5 2.5 0 0 0-.7-1.7 2.4 2.4 0 0 0-3.4 0Zm45.78 50.42a21 21 0 0 1 1.23 2.56l-.24-.57q.4.95.75 1.93a2.6 2.6 0 0 0 1.1 1.43 2.4 2.4 0 0 0 3.28-.86 2.4 2.4 0 0 0 .24-1.85 40 40 0 0 0-1.2-3 19 19 0 0 0-1.02-2.06 2.5 2.5 0 0 0-1.43-1.1 2.5 2.5 0 0 0-1.85.25 2.4 2.4 0 0 0-1.1 1.43 2.5 2.5 0 0 0 .24 1.85Zm-30.68-1.43a28 28 0 0 0-1.87 5.2 2.5 2.5 0 0 0 .24 1.85 2.4 2.4 0 0 0 3.29.86 2.5 2.5 0 0 0 1.1-1.44 30 30 0 0 1 1.33-3.98l-.24.58q.14-.33.3-.64a2.6 2.6 0 0 0 .23-1.85 2.5 2.5 0 0 0-1.1-1.44 2.4 2.4 0 0 0-1.85-.24 2.4 2.4 0 0 0-1.43 1.1m36 24.9v4.88a2.5 2.5 0 0 0 .7 1.7 2.4 2.4 0 0 0 4.1-1.7v-4.88a2.5 2.5 0 0 0-.7-1.7 2.4 2.4 0 0 0-4.1 1.7M7.45 398.34q.94-5.07 2.14-10.07c.82-3.45 1.48-7.15 2.88-10.4 2.3-5.36 5.25-10.44 9.6-14.4a52 52 0 0 1 11.14-7.27 109 109 0 0 1 12.87-5.49c7-2.54 14.13-4.74 21.25-6.92 2.95-.9 1.7-5.53-1.27-4.63-11.59 3.55-23.44 6.98-34.31 12.4A63 63 0 0 0 20 358.94a41 41 0 0 0-10.78 14.49 36 36 0 0 0-2.26 5.72q-.86 3.15-1.64 6.32-1.42 5.76-2.5 11.59A2.47 2.47 0 0 0 4.5 400a2.4 2.4 0 0 0 2.95-1.67Zm123.03-56.72c11.54 2.48 23.4 4.98 33.78 10.82a43 43 0 0 1 12.93 10.64 56 56 0 0 1 8.44 15.16 101 101 0 0 1 4.88 20.1 2.4 2.4 0 0 0 2.96 1.67 2.46 2.46 0 0 0 1.67-2.95c-1.9-12.45-5.32-24.86-12.85-35.15a45 45 0 0 0-13.03-12.1 79 79 0 0 0-17.14-7.71c-6.67-2.15-13.52-3.63-20.36-5.1-3.02-.66-4.3 3.97-1.28 4.62" class="c"/><path d="M116.5 365.87a92 92 0 0 0 12.83-18.8 290 290 0 0 0 2.51-4.78c.5-.94 1.22-1.96 1.07-3.06a7 7 0 0 0-1.42-2.61 38 38 0 0 0-7.74-8.38 2.45 2.45 0 0 0-3.4 0 75 75 0 0 1-11.06 10.02 69 69 0 0 1-6.23 4.08c-1.87 1.08-4.8 1.87-5.45 4.19-.75 2.7 1.02 4.4 2.67 6.16q3.12 3.32 6.27 6.6c2.14 2.23 4.27 4.5 6.55 6.58s5.69-1.3 3.4-3.4c-4-3.64-7.66-7.7-11.37-11.64q-1.12-1.18-2.23-2.38l-.65-.69c-.22-.23-.5-.4-.07-.04.11.1.03.15.06.24-.18-.54.05-.27 0-.16-.55 1.16-.68.63-.12.5a5 5 0 0 0 .74-.38q1.52-.78 2.99-1.65a70 70 0 0 0 5.86-3.86 81 81 0 0 0 12.04-10.78h-3.4a36 36 0 0 1 8.13 9.13v-2.42c-4.37 8.5-8.88 17.05-15.38 24.14-2.08 2.27 1.3 5.68 3.4 3.4" class="c"/><path d="M84.93 363.58c-7-6.63-12.1-14.79-17.06-22.98v2.42a36 36 0 0 1 7.44-9.7h-3.4a82 82 0 0 0 11.24 8.98q2.94 1.96 6.07 3.63 1.33.7 2.7 1.35.77.36 1.55.7l.77.33.57.24q.7.37.14-.07c.13.24-.33-.38-.31-.37s-.02-.37-.01-.04c0 .22.25-.37.31-.44l-.46.58-1.74 2.14q-2.78 3.4-5.6 6.77c-1.83 2.19-3.64 4.4-5.6 6.46-2.14 2.24 1.25 5.64 3.39 3.4 3.98-4.18 7.56-8.77 11.2-13.23 1.28-1.57 3.17-3.3 3.28-5.42a4.3 4.3 0 0 0-.9-2.94c-.82-.98-2.07-1.3-3.2-1.81a66 66 0 0 1-6.54-3.42 75 75 0 0 1-13.47-10.23 2.46 2.46 0 0 0-3.4 0 38 38 0 0 0-7.16 8.87 10 10 0 0 0-1.26 2.38c-.35 1.26.52 2.3 1.13 3.31q1.4 2.3 2.84 4.6a93 93 0 0 0 14.08 17.89c2.24 2.12 5.64-1.27 3.4-3.4m283.29-15.33c9.7 2.75 19.88 5.68 27.99 11.93 6.39 4.93 11.4 10.78 13.55 18.66 1.68 6.18 1.59 12.52 1.35 18.86-.12 3.09 4.68 3.08 4.8 0 .4-10.62-.1-21.72-6.37-30.75a49 49 0 0 0-8.62-9.08 52 52 0 0 0-12.65-7.82 141 141 0 0 0-18.77-6.43c-2.98-.84-4.25 3.79-1.28 4.63" class="c"/><path d="M376.67 304.57a4.7 4.7 0 0 0-4.12-2.51c-3.08.3-4 2.29-4.36 4.15-.14.74-.3 1.85-.4 2.74l-.06-.08a4.9 4.9 0 0 0-4.1-2.04c-2.33.22-3.84 1.98-4.4 4.74a309 309 0 0 1-4.05 16.92c.09-1.92.14-3.71.2-5.87a7 7 0 0 0-.53-2.84 2.8 2.8 0 0 0-1.9-1.68 3.6 3.6 0 0 0-3.6 1.78 13 13 0 0 0-1.03 4.18A54 54 0 0 1 345.4 336c-2.88 6.8-11.2 15.5-12.25 21.04-.58 3.09-.07 5.6.34 8.33.41 2.76 1.29 5.75 1.42 9.22.3 4.57.51 7.9.7 11.57q13.03-2.85 26-5.96c-1.41-3.77-2.45-7.5-2.18-10a23.3 23.3 0 0 1 4.75-13.85c1.09-1.52 2.09-2.9 3.02-4.25a52 52 0 0 0 3.3-5.37q.74-1.42 1.41-3c3-9.7 4.82-26.25 5.24-34.88a8.6 8.6 0 0 0-.48-4.28" class="b"/><path d="M357.83 327.9a299 299 0 0 0 3.46-14.41 18 18 0 0 1 .64-2.65l.32-.58c.05-.09.33-.47.14-.23a4 4 0 0 1 .51-.5c-.3.23.25-.13.3-.16-.39.2.83-.19.43-.14a1.7 1.7 0 0 1 1.03.12 3 3 0 0 1 .64.44 8 8 0 0 1 .73.78 2.4 2.4 0 0 0 3.4 0 2.45 2.45 0 0 0 0-3.4 7.1 7.1 0 0 0-6.94-2.58 7.5 7.5 0 0 0-5.35 5.46c-.75 2.5-1.12 5.15-1.72 7.7q-1.06 4.45-2.22 8.88c-.79 2.99 3.84 4.26 4.63 1.27" class="c"/><path d="M374.23 344.36a118 118 0 0 0 3.7-18.73 154 154 0 0 0 1.67-17.99c.05-3.45-1.51-6.42-4.86-7.64a6.8 6.8 0 0 0-8.15 3.43 13 13 0 0 0-1 4.04c-.09.6-.22 1.73-.27 2.08-.02.21-.15 1.04-.22 1.5q-.6 4.1-1.25 8.2c-.96 6.06-1.86 12.18-3.2 18.18-.68 3 3.95 4.29 4.63 1.27 1.07-4.74 1.82-9.56 2.6-14.35.8-4.99 1.7-10 2.27-15.02a20 20 0 0 1 .53-3.21 1.8 1.8 0 0 1 1.41-1.55c2.3-.7 2.75 1.88 2.7 3.43a167 167 0 0 1-1.47 16.17 116 116 0 0 1-3.72 18.91c-.9 2.97 3.73 4.23 4.63 1.28M338 386.16c-.19-3.79-.45-7.56-.68-11.34-.23-3.92-1.18-7.72-1.76-11.59a13.8 13.8 0 0 1 1.11-8.76 78 78 0 0 1 5.15-7.96 55 55 0 0 0 5.64-9.3 2.5 2.5 0 0 0-.86-3.28 2.4 2.4 0 0 0-3.29.86c-2.62 6.06-7.3 10.97-10.49 16.71a17 17 0 0 0-2.3 9.62c.26 3.93 1.4 7.72 1.84 11.61.5 4.44.62 8.97.84 13.43.15 3.07 4.95 3.1 4.8 0" class="c"/><path d="M363.92 379.57c-1.1-2.97-2.29-6.16-2.1-9.37a23 23 0 0 1 1.88-8.4c1.39-2.93 3.46-5.45 5.3-8.1a50 50 0 0 0 5-8.77 2.5 2.5 0 0 0-.86-3.29 2.4 2.4 0 0 0-3.29.87 51 51 0 0 1-5.36 9.3c-1.97 2.8-4.06 5.47-5.41 8.63a29 29 0 0 0-2.05 9.75c-.22 3.64 1.02 7.29 2.27 10.65a2.47 2.47 0 0 0 2.95 1.68 2.4 2.4 0 0 0 1.68-2.95Z" class="c"/><path d="M360.97 377.9q-13 3.1-26.04 5.95c-3.02.66-1.74 5.3 1.27 4.63q13.05-2.87 26.04-5.96c3-.72 1.74-5.35-1.27-4.63m-13.26-41.27a55 55 0 0 0 2.64-9.96 47 47 0 0 1 .76-4.63l.16-.55q.17-.43.05-.17l.24-.44q-.2.24.1-.08l.1-.09.42-.24c-.48.21.61-.22.24-.05q-.25.03.13.02-.45-.08.01.04-.3-.12.06.08-.27-.18.04.1l.08.3.2.8a25 25 0 0 1-.05 4.13q-.15 4.4-.48 8.8a2.4 2.4 0 0 0 2.4 2.4 2.45 2.45 0 0 0 2.4-2.4q.3-4 .45-8.03c.1-2.77.53-5.88-.9-8.41a5.24 5.24 0 0 0-7.88-1.34c-2.55 1.95-2.64 5.25-3.1 8.16a55 55 0 0 1-2.7 10.3 2.4 2.4 0 0 0 1.68 2.95 2.45 2.45 0 0 0 2.96-1.68Z" class="c"/><path d="M59.17 343.22a30 30 0 0 1 5.19-10.16 44 44 0 0 1 6.49-7.14c1.65-1.48 5.13-3.11 9.54-3.66a77 77 0 0 1 15.57-.47 4.2 4.2 0 0 1 4 4.15 4.1 4.1 0 0 1-3.46 3.8c-2.37.37-5.64.47-9.57 1.19-4.5.82-4.63 1.24-6.85 3.3l-.2.3c4.42-.08 9.68.18 12.02 1.24.88.4 4.07 2.26 4.87 2.81 3.73 2.58 5.67 4.46 6.83 6.87a5.5 5.5 0 0 1-.23 4.06c-.46.93-2 2.16-4.45 1.4a5.1 5.1 0 0 1 1.54 5.02 4.9 4.9 0 0 1-4.5 3.44c1 .94.45 3.44-.32 4.53-.8 1.13-3.1 1.22-4.3.79a20 20 0 0 0-3.1-.99q-.11.54-.1.55c-.25 1.22-.73 4.07-1.12 5.25-1.1 3.46-2.7 7.28-5.85 9.13a51 51 0 0 1-4.83 1.95c-1.36.64-2.58 3.76-3.3 5.95a.1.1 0 0 1-.11.06c-6.86-2.25-14.88-5-21.3-7.07a.8.8 0 0 1-.52-1.06c1.05-2.96 1.74-4.56 2.39-6.52a94 94 0 0 0 2.2-9.97c1.3-8.8 1.7-12.26 2.86-16.67q.3-1.1.61-2.08" class="b"/><path d="M74.59 337.25a66 66 0 0 1 9.59-.28 36 36 0 0 1 4.36.37 20 20 0 0 1 2.27.57q.37.17.73.37a34 34 0 0 1 7.9 5.5c.9.89 2.04 2.06 2.05 3.33a3 3 0 0 1-.2 1.16c-.15.43.25-.08-.14.24.15-.13-.28.16-.4.2a2 2 0 0 1-.93-.04c-3.01-.67-4.3 3.96-1.28 4.62a6.4 6.4 0 0 0 5.82-1.22 6.6 6.6 0 0 0 1.92-4.77c.16-3.56-2.76-6.53-5.34-8.6a41 41 0 0 0-7.7-4.94c-2.61-1.26-5.7-1.43-8.56-1.57a66 66 0 0 0-10.1.26 2.47 2.47 0 0 0-2.4 2.4 2.4 2.4 0 0 0 2.4 2.4" class="c"/><path d="M80.95 346.34c5.2.03 9.5 1.85 13.85 4.52q.7.43 1.38.9c.09.06.57.42.45.32-.14-.1.3.26.37.31a3.4 3.4 0 0 1 1.2 1.98 2.4 2.4 0 0 1-.13 1.17q-.08.24.07-.13l-.15.27c-.04.06-.38.54-.24.38a3 3 0 0 1-.7.55 3 3 0 0 1-1.1.36 2.47 2.47 0 0 0-2.4 2.4 2.4 2.4 0 0 0 2.4 2.4c3.06-.3 6-2.07 6.81-5.2.93-3.6-.96-6.6-3.76-8.66a31.3 31.3 0 0 0-18.06-6.37c-3.1-.02-3.1 4.78 0 4.8Z" class="c"/><path d="m82.71 356.04.09.01.35.05a34 34 0 0 1 2.55.49 22 22 0 0 1 2.36.71l.33.13c.11.04.5.21.21.08a27 27 0 0 1 5.23 3.23l.26.2.17.13c.1.06.32.45-.13-.17.05.07.2.25 0-.03-.2-.25-.05-.1-.02.06.06.25-.04-.25-.03-.26v.66c0 .35.07-.05.03-.13l-.05.26-.16.57-.08.24c-.07.3.23-.38.06-.13l-.1.2c-.06.12-.28.33-.03.1s.06-.08 0-.02c-.3.32.12-.13.14-.1l-.2.11c-.27.15.44-.1.13-.05-.18.02-.39.1-.57.15-.12.02-.29-.03-.02 0 .36.04-.12 0-.2 0l-.59-.02c-.26.02.22.01.24.04l-.3-.05a8 8 0 0 1-.95-.32 16 16 0 0 0-3.78-.96 6.2 6.2 0 0 0-3.95 1.03 2.4 2.4 0 0 0 2.43 4.15c.1-.07.81-.43.36-.24.12-.05.63-.3.74-.23.03.02-.6-.03-.15.04l.46.04c-.11-.02-.43-.09.04.01l.55.13c.97.24 1.87.68 2.83.94 2.36.63 5.37.13 6.78-2.03 1.2-1.83 1.68-4.77.46-6.7a7 7 0 0 0-1.85-1.68q-.8-.6-1.62-1.18a24 24 0 0 0-2.92-1.75 28 28 0 0 0-9.1-2.5 2.4 2.4 0 0 0-2.4 2.4 2.47 2.47 0 0 0 2.4 2.4Z" class="c"/><path d="M62.28 331.85c-8.15 10.64-7.25 24.48-10.45 36.86a45 45 0 0 1-1.3 4.4 33 33 0 0 0-1.8 5.04c-.53 2.8 2.07 3.62 4.18 4.31l5.77 1.91 11.97 4c1.14.38 2.32.93 3.48.3 1.02-.56 1.25-1.64 1.62-2.65a17 17 0 0 1 .85-1.99q.28-.53.6-1.02c.19-.31.1-.15.08-.11.2-.27.05-.11.17-.19a20 20 0 0 1 2.99-1.1 12 12 0 0 0 2.84-1.5 14 14 0 0 0 4.01-4.88 37 37 0 0 0 3.15-10.34 2.46 2.46 0 0 0-1.67-2.95 2.4 2.4 0 0 0-2.96 1.68c-.78 4.16-1.54 9.05-4.76 12.12-1.93 1.85-4.96 1.68-6.89 3.48-1.81 1.69-2.67 4.4-3.44 6.68l1.1-1.43-.12.05 1.85-.24-10.8-3.6-5.32-1.77-2.45-.8a14 14 0 0 1-2.44-.82l.86.86-.04.01v1.28a26 26 0 0 1 1.75-4.9 43 43 0 0 0 1.26-4.22 101 101 0 0 0 2.1-10.87c.8-5.54 1.5-11.12 3.3-16.45a30 30 0 0 1 4.66-8.71 2.4 2.4 0 0 0-.86-3.29 2.46 2.46 0 0 0-3.29.86Z" class="c"/><path d="M66.43 334.28a44 44 0 0 1 4.34-5.01 13 13 0 0 1 4.22-3.1c4.12-1.89 9.05-2.03 13.51-2.15a76 76 0 0 1 5.86.08c1.2.06 2.5-.12 3.07 1.12.62 1.38-.83 2.1-1.82 2.25-2.2.31-4.41.43-6.6.73a27 27 0 0 0-6.73 1.46 13 13 0 0 0-3.9 2.88c-2.26 2.11 1.14 5.5 3.4 3.39l.96-.9a5 5 0 0 0 .55-.5 5 5 0 0 1 1.48-.67 42 42 0 0 1 7.34-1.23c2.2-.22 4.75-.15 6.75-1.18a6.3 6.3 0 0 0 3.36-6.86 6.6 6.6 0 0 0-4.55-4.9c-2-.64-4.48-.47-6.55-.49a77 77 0 0 0-7.88.35 35 35 0 0 0-8.42 1.55c-5.46 1.93-9.15 6.24-12.54 10.76a2.4 2.4 0 0 0 .86 3.28 2.46 2.46 0 0 0 3.29-.86" class="c"/></svg>
