<svg xmlns="http://www.w3.org/2000/svg" fill="none" viewBox="0 0 24 24"><path fill="currentColor" d="M7.3 21a.7.7 0 1 0 1.4 0zm1.4-3a.7.7 0 1 0-1.4 0zm-5.4 3a.7.7 0 1 0 1.4 0zm10.2-7.3a.7.7 0 1 0 0-1.4zM20.73 8l.68-.18a.7.7 0 0 0-.86-.5zm-2.91.06a.7.7 0 1 0 .36 1.35zm2.97 2.85a.7.7 0 1 0 1.35-.36zm.32-2.06a.7.7 0 0 0-1.22-.7zm-3.22 2.8a.7.7 0 1 0 1.22.7zM8.7 21v-3H7.3v3zm6.6-14.5A3.3 3.3 0 0 1 12 9.8v1.4c2.6 0 4.7-2.1 4.7-4.7zM12 9.8a3.3 3.3 0 0 1-3.3-3.3H7.3c0 2.6 2.1 4.7 4.7 4.7zM8.7 6.5A3.3 3.3 0 0 1 12 3.2V1.8a4.7 4.7 0 0 0-4.7 4.7zM12 3.2a3.3 3.3 0 0 1 3.3 3.3h1.4c0-2.6-2.1-4.7-4.7-4.7zM4.7 21v-2.5H3.3V21zm4.8-7.3h4v-1.4h-4zm-4.8 4.8a4.8 4.8 0 0 1 4.8-4.8v-1.4a6.2 6.2 0 0 0-6.2 6.2zm15.6-2c0 2.1-1.7 3.8-3.8 3.8v1.4a5.2 5.2 0 0 0 5.2-5.2zm-3.8 3.8a3.8 3.8 0 0 1-3.8-3.8h-1.4a5.2 5.2 0 0 0 5.2 5.2zm-3.8-3.8c0-2.1 1.7-3.8 3.8-3.8v-1.4a5.2 5.2 0 0 0-5.2 5.2zm3.8-3.8c2.1 0 3.8 1.7 3.8 3.8h1.4a5.2 5.2 0 0 0-5.2-5.2zm4.05-5.38-2.73.74.36 1.35 2.73-.73zm-.5.86.74 2.73 1.35-.36-.73-2.73zm-.16-.03-2 3.5 1.22.7 2-3.5z"/></svg>
