<svg xmlns="http://www.w3.org/2000/svg" fill="none" viewBox="0 0 24 24"><path stroke="currentColor" stroke-linecap="round" stroke-width="1.5" d="M12 18a6 6 0 1 1 5.64-3.95q-.13.35-.41.6l-.08.08a1.64 1.64 0 0 1-2.75-1.2V12m0 0a2.4 2.4 0 1 1-4.8 0 2.4 2.4 0 0 1 4.8 0Z"/><path fill="none" stroke="currentColor" stroke-linecap="round" stroke-width="1.5" d="M22 12c0 4.71 0 7.07-1.46 8.54C19.07 22 16.7 22 12 22s-7.07 0-8.54-1.46C2 19.07 2 16.7 2 12s0-7.07 1.46-8.54C4.93 2 7.3 2 12 2s7.07 0 8.54 1.46c.97.98 1.3 2.35 1.4 4.54"/></svg>
