<svg fill="currentColor" viewBox="0 0 64 64" xmlns="http://www.w3.org/2000/svg" style="fill-rule:evenodd;clip-rule:evenodd;stroke-linejoin:round;stroke-miterlimit:2;"><rect id="Icons" x="-192" y="-64" width="1280" height="800" style="fill:none;"/><g id="Icons1"><g id="horizontal-menu"><path d="M56.086,31.96c0,2.207 -1.793,4 -4,4c-2.208,0 -4,-1.793 -4,-4c0,-2.208 1.792,-4 4,-4c2.207,0 4,1.792 4,4Z"/><path d="M16.086,31.96c0,2.207 -1.793,4 -4,4c-2.208,0 -4,-1.793 -4,-4c0,-2.208 1.792,-4 4,-4c2.207,0 4,1.792 4,4Z"/><path d="M36.086,31.96c0,2.207 -1.793,4 -4,4c-2.208,0 -4,-1.793 -4,-4c0,-2.208 1.792,-4 4,-4c2.207,0 4,1.792 4,4Z"/></g><path id="caret-down" d="M32.149,109.79l-24.071,-24.071l3.009,-3.009l21.062,21.062l21.061,-21.062l3.009,3.009l-24.07,24.071Z" style="fill-rule:nonzero;"/></g></svg>
