<svg viewBox="0 0 20 20" fill="none" xmlns="http://www.w3.org/2000/svg"><path d="M16.667 15C17.127 15.0002 17.4998 15.373 17.5 15.833C17.5 16.2931 17.1271 16.6668 16.667 16.667H3.33301C2.87292 16.6668 2.5 16.2931 2.5 15.833C2.50018 15.373 2.87303 15.0002 3.33301 15H16.667ZM16.667 9.16699C17.1271 9.16717 17.5 9.53987 17.5 10C17.5 10.4601 17.1271 10.8328 16.667 10.833H3.33301C2.87292 10.8328 2.5 10.4601 2.5 10C2.5 9.53987 2.87292 9.16717 3.33301 9.16699H16.667ZM16.667 3.33301C17.1271 3.33318 17.5 3.70686 17.5 4.16699C17.4998 4.62697 17.127 4.99982 16.667 5H3.33301C2.87303 4.99982 2.50018 4.62697 2.5 4.16699C2.5 3.70686 2.87292 3.33318 3.33301 3.33301H16.667Z" fill="currentColor"/></svg>
