<svg viewBox="0 0 20 20" fill="none" xmlns="http://www.w3.org/2000/svg"><path d="M5.00098 11.042C7.1871 11.042 8.95898 12.8139 8.95898 15C8.95898 17.1861 7.1871 18.958 5.00098 18.958C2.81485 18.958 1.04297 17.1861 1.04297 15C1.04297 12.8139 2.81485 11.042 5.00098 11.042ZM15.001 11.042C17.1871 11.042 18.959 12.8139 18.959 15C18.959 17.1861 17.1871 18.958 15.001 18.958C12.8148 18.958 11.043 17.1861 11.043 15C11.043 12.8139 12.8148 11.042 15.001 11.042ZM5.00098 12.292C3.50521 12.292 2.29297 13.5042 2.29297 15C2.29297 16.4958 3.50521 17.708 5.00098 17.708C6.49675 17.708 7.70898 16.4958 7.70898 15C7.70898 13.5042 6.49675 12.292 5.00098 12.292ZM15.001 12.292C13.5052 12.292 12.293 13.5042 12.293 15C12.293 16.4958 13.5052 17.708 15.001 17.708C16.4967 17.708 17.709 16.4958 17.709 15C17.709 13.5042 16.4967 12.292 15.001 12.292ZM5.00098 1.04199C7.1871 1.04199 8.95898 2.81387 8.95898 5C8.95898 7.18613 7.1871 8.95801 5.00098 8.95801C2.81485 8.95801 1.04297 7.18613 1.04297 5C1.04297 2.81387 2.81485 1.04199 5.00098 1.04199ZM15.001 1.04199C17.1871 1.04199 18.959 2.81387 18.959 5C18.959 7.18613 17.1871 8.95801 15.001 8.95801C12.8148 8.95801 11.043 7.18613 11.043 5C11.043 2.81387 12.8148 1.04199 15.001 1.04199ZM5.00098 2.29199C3.50521 2.29199 2.29297 3.50423 2.29297 5C2.29297 6.49577 3.50521 7.70801 5.00098 7.70801C6.49675 7.70801 7.70898 6.49577 7.70898 5C7.70898 3.50423 6.49675 2.29199 5.00098 2.29199ZM15.001 2.29199C13.5052 2.29199 12.293 3.50423 12.293 5C12.293 6.49577 13.5052 7.70801 15.001 7.70801C16.4967 7.70801 17.709 6.49577 17.709 5C17.709 3.50423 16.4967 2.29199 15.001 2.29199Z" fill="currentColor"/></svg>
