<svg xmlns="http://www.w3.org/2000/svg" fill="none" viewBox="0 0 24 24"><path fill="currentColor" fill-rule="evenodd" d="M12 3q-2.11.01-3.86.14c-1.72.13-2.34.19-3.06.59a4.7 4.7 0 0 0-1.72 1.84C3.02 6.32 3 7.07 3 9.14v1.68c0 1.14 0 1.58.07 1.92a4 4 0 0 0 3.19 3.2c.34.06.78.06 1.92.06h.04l.4.02a2 2 0 0 1 1.43.95q.11.19.18.36l.01.03.46 1.07c.36.84.6 1.4.82 1.8.17.32.26.4.27.42a.5.5 0 0 0 .42 0c0-.01.1-.1.27-.42.21-.4.46-.96.82-1.8l.46-1.07.01-.03q.07-.17.18-.36a2 2 0 0 1 1.83-.97h.04c1.14 0 1.58 0 1.92-.07a4 4 0 0 0 3.2-3.19c.06-.34.06-.78.06-1.92V9.14c0-2.07-.02-2.82-.36-3.57a4.7 4.7 0 0 0-1.72-1.84c-.72-.4-1.34-.46-3.06-.59A53 53 0 0 0 12 3M8 1.15a55 55 0 0 1 8 0h.14c1.56.12 2.6.2 3.75.83a6.6 6.6 0 0 1 2.57 2.76c.54 1.2.54 2.4.54 4.21v1.98c0 1 0 1.63-.1 2.18a6 6 0 0 1-4.79 4.79c-.55.1-1.19.1-2.18.1h-.27l-.06.14-.48 1.12q-.5 1.2-.88 1.92c-.25.47-.59.99-1.14 1.26-.7.34-1.5.34-2.2 0-.55-.27-.89-.8-1.14-1.26q-.38-.73-.88-1.92l-.48-1.12-.06-.14h-.27c-1 0-1.63 0-2.18-.1a6 6 0 0 1-4.79-4.8c-.1-.55-.1-1.19-.1-2.18V8.95c0-1.81 0-3.02.54-4.2a6.6 6.6 0 0 1 2.57-2.77c1.15-.63 2.2-.7 3.75-.82z" clip-rule="evenodd"/></svg>
