<svg xmlns="http://www.w3.org/2000/svg" fill="none" viewBox="0 0 24 24"><path stroke="currentColor" stroke-linecap="round" stroke-linejoin="round" stroke-miterlimit="10" stroke-width="1.5" d="M22 7.43v6a5 5 0 0 1-1.38 3.63A5 5 0 0 1 17 18.43v2.13a1 1 0 0 1-1.55.84L11 18.43H8.88q.12-.45.12-.93a4 4 0 0 0-4-4 4 4 0 0 0-2.87 1.21Q2 14.11 2 13.43v-6c0-3 2-5 5-5h10c3 0 5 2 5 5"/><path stroke="currentColor" stroke-linecap="round" stroke-linejoin="round" stroke-miterlimit="10" stroke-width="1.5" d="M9 17.5a4 4 0 0 1-4 4 4 4 0 1 1 4-4"/><path stroke="currentColor" stroke-linecap="round" stroke-linejoin="round" stroke-miterlimit="10" stroke-width="1.5" d="M5.25 16.25v1.5L4 18.5m4.5-8h7"/></svg>
