<svg xmlns="http://www.w3.org/2000/svg" fill="none" viewBox="0 0 24 24"><path stroke="currentColor" stroke-linecap="round" stroke-linejoin="round" stroke-miterlimit="10" stroke-width="1.5" d="M17.25 10.18v2.63q0 .25-.03.49-.23 2.65-3.12 2.65h-.26a.5.5 0 0 0-.42.21l-.79 1.05c-.35.47-.91.47-1.26 0l-.79-1.05a.6.6 0 0 0-.42-.21H9.9c-2.1 0-3.15-.52-3.15-3.15v-2.63q0-2.89 2.65-3.12.24-.03.49-.03h4.2q3.16.03 3.16 3.16"/><path fill="none" stroke="currentColor" stroke-linecap="round" stroke-linejoin="round" stroke-miterlimit="10" stroke-width="1.5" d="M12 22a10 10 0 1 0 0-20 10 10 0 0 0 0 20"/></svg>
