<svg xmlns="http://www.w3.org/2000/svg" fill="none" viewBox="0 0 24 24"><path stroke="currentColor" stroke-linecap="round" stroke-linejoin="round" stroke-width="1.5" d="m18.47 16.83.39 3.16a1 1 0 0 1-1.5.98l-4.19-2.49q-.69 0-1.35-.09A5 5 0 0 0 13 15.23c0-2.84-2.46-5.14-5.5-5.14-1.16 0-2.23.33-3.12.91q-.04-.37-.04-.76C4.34 5.69 8.29 2 13.17 2S22 5.69 22 10.24c0 2.7-1.39 5.09-3.53 6.59"/><path stroke="currentColor" stroke-linecap="round" stroke-linejoin="round" stroke-width="1.5" d="M13 15.23c0 1.19-.44 2.29-1.18 3.16a5.6 5.6 0 0 1-4.32 1.97l-2.61 1.55c-.44.27-1-.1-.94-.61l.25-1.97a5 5 0 0 1-2.2-4.1c0-1.76.94-3.31 2.38-4.23a5.7 5.7 0 0 1 3.12-.91c3.04 0 5.5 2.3 5.5 5.14"/></svg>
