<svg xmlns="http://www.w3.org/2000/svg" fill="none" viewBox="0 0 24 24"><path stroke="currentColor" stroke-linecap="round" stroke-linejoin="round" stroke-miterlimit="10" stroke-width="1.5" d="M22 6.25v5.1c0 1.27-.42 2.34-1.17 3.08a4.2 4.2 0 0 1-3.08 1.17v1.81a.85.85 0 0 1-1.32.71l-.97-.64q.13-.47.13-1.01V12.4c0-2.04-1.36-3.4-3.4-3.4H5.4l-.4.02V6.25C5 3.7 6.7 2 9.25 2h8.5C20.3 2 22 3.7 22 6.25"/><path stroke="currentColor" stroke-linecap="round" stroke-linejoin="round" stroke-miterlimit="10" stroke-width="1.5" d="M15.59 12.4v4.07q0 .54-.13 1.01c-.37 1.47-1.59 2.39-3.27 2.39H9.47l-3.02 2.01a.67.67 0 0 1-1.05-.56v-1.45a3.4 3.4 0 0 1-2.46-.93A3.4 3.4 0 0 1 2 16.47V12.4c0-1.9 1.18-3.21 3-3.38L5.4 9h6.79c2.04 0 3.4 1.36 3.4 3.4"/></svg>
