<svg xmlns="http://www.w3.org/2000/svg" fill="none" viewBox="0 0 24 24"><path fill="currentColor" fill-rule="evenodd" d="M19.93 18.93a1 1 0 1 1-1.42 1.41l-1.7-1.7a9 9 0 0 1-3.81 1.3V22a1 1 0 1 1-2 0v-2.05a9.1 9.1 0 0 1-6.86-4.44 1 1 0 1 1 1.72-1.02 7.1 7.1 0 0 0 9.48 2.68l-1.51-1.51A5 5 0 0 1 7 11V8.83L4.51 6.34a1 1 0 0 1 1.42-1.41zM9 10.83V11a3 3 0 0 0 3.17 3z" clip-rule="evenodd"/><path fill="currentColor" d="M9.37 5.55 7.93 4.1A5 5 0 0 1 17 7v4q0 .97-.34 1.83L15 11.17V7a3 3 0 0 0-5.63-1.45m8.84 8.83 1.45 1.45.2-.32a1 1 0 0 0-1.65-1.13"/></svg>
