<svg xmlns="http://www.w3.org/2000/svg" fill="none" viewBox="0 0 24 24"><path stroke="currentColor" stroke-width="1.5" d="M7 8a5 5 0 0 1 10 0v3a5 5 0 0 1-10 0z"/><path stroke="currentColor" stroke-linecap="round" stroke-width="1.5" d="M11 8h2m-3 3h4"/><path fill="currentColor" d="M20.75 10a.75.75 0 0 0-1.5 0zm-16 0a.75.75 0 0 0-1.5 0zm10.76 7.34a.75.75 0 1 0 .73 1.32zM19.25 10v1h1.5v-1zm-14.5 1v-1h-1.5v1zM12 18.25C8 18.25 4.75 15 4.75 11h-1.5A8.75 8.75 0 0 0 12 19.75zM19.25 11c0 2.73-1.5 5.1-3.74 6.34l.73 1.32A8.8 8.8 0 0 0 20.75 11z"/><path stroke="currentColor" stroke-linecap="round" stroke-width="1.5" d="M12 19v3"/></svg>
