<svg fill="currentColor" viewBox="0 0 64 64" xmlns="http://www.w3.org/2000/svg" style="fill-rule:evenodd;clip-rule:evenodd;stroke-linejoin:round;stroke-miterlimit:2;"><rect id="Icons" x="-832" y="-64" width="1280" height="800" style="fill:none;"/><g id="Icons1" serif:id="Icons"><g id="minus-circle"><rect x="15.88" y="30.018" width="31.954" height="3.961"/><path d="M32.142,56.101c6.179,-0.059 12.297,-2.619 16.696,-6.967c5.225,-5.163 7.916,-12.803 6.978,-20.096c-1.609,-12.498 -11.883,-20.979 -23.828,-20.979c-9.075,0 -17.896,5.677 -21.765,13.909c-2.961,6.302 -2.967,13.911 0,20.224c3.842,8.174 12.517,13.821 21.61,13.909c0.103,0 0.206,0 0.309,0Zm-0.283,-4.004c-9.23,-0.089 -17.841,-7.226 -19.553,-16.377c-1.208,-6.452 1.071,-13.434 5.818,-18.015c5.543,-5.35 14.253,-7.143 21.496,-4.11c6.481,2.714 11.331,9.013 12.225,15.955c0.766,5.949 -1.369,12.184 -5.565,16.479c-3.68,3.767 -8.841,6.017 -14.164,6.068c-0.085,0.001 -0.171,0.001 -0.257,0Z" style="fill-rule:nonzero;"/></g></g></svg>
