<svg xmlns="http://www.w3.org/2000/svg" fill="currentColor" style="fill-rule:evenodd;clip-rule:evenodd;stroke-linejoin:round;stroke-miterlimit:2" viewBox="0 0 64 64"><path id="Icons" d="M-832-64H448v800H-832z" style="fill:none"/><g id="Icons1"><g id="minus-circle"><path d="M15.88 30.02h31.95v3.96H15.88z"/><path d="M32.14 56.1a24.4 24.4 0 0 0 16.7-6.97 24.4 24.4 0 0 0 6.98-20.1A23.76 23.76 0 0 0 31.99 8.07c-9.08 0-17.9 5.68-21.77 13.9a24.1 24.1 0 0 0 0 20.23 24.6 24.6 0 0 0 21.61 13.9zm-.28-4c-9.23-.1-17.84-7.23-19.55-16.38a20.3 20.3 0 0 1 5.81-18.01 20.3 20.3 0 0 1 21.5-4.12 20.5 20.5 0 0 1 12.23 15.96 20.3 20.3 0 0 1-5.57 16.48 20.2 20.2 0 0 1-14.42 6.07" style="fill-rule:nonzero"/></g></g></svg>
