<svg xmlns="http://www.w3.org/2000/svg" fill="currentColor" viewBox="0 0 32 32"><path d="m.63 25.93 7.48 3a1 1 0 0 0 .74 0L16 26.08l7.11 2.84a1 1 0 0 0 .74 0l7.48-3A1 1 0 0 0 32 25v-7.5a1 1 0 0 0-.07-.35l-.05-.1-.13-.2-.08-.08a1 1 0 0 0-.24-.16s0 0-.05 0l-6.88-2.79V7a1 1 0 0 0-.07-.35l-.05-.1-.13-.2-.08-.08a1 1 0 0 0-.24-.16s0 0-.05 0l-7.5-3a1 1 0 0 0-.74 0l-7.5 3a1 1 0 0 0-.24.16l-.07.08-.14.2v.1A1 1 0 0 0 7.5 7v6.82L.63 16.57H.58a1 1 0 0 0-.24.16l-.08.08-.13.2v.1a1 1 0 0 0-.13.39V25a1 1 0 0 0 .63.93M15 24.32l-5.5 2.2v-5.34L15 19Zm7.5 2.2-5.5-2.2V19l5.5 2.2Zm7.5-2.2-5.5 2.2v-5.34L30 19Zm-1.69-6.82-4.81 1.92-4.81-1.92 4.81-1.92Zm-5.81-3.68L17 16v-5.32l5.5-2.2ZM16 5.08 20.81 7 16 8.92 11.19 7Zm-6.5 3.4 5.5 2.2V16l-5.5-2.2Zm-1 7.1 4.81 1.92-4.81 1.92-4.81-1.92ZM2 19l5.5 2.2v5.34L2 24.32Z"/></svg>
