<svg viewBox="0 0 1024 1024" xmlns="http://www.w3.org/2000/svg"><path d="M896 341.333333h-128l64-64zM256 341.333333H128l64-64zM682.666667 256H341.333333l170.666667-149.333333z" fill="currentColor" /><path d="M768 341.333333h128v128h-128z" fill="currentColor" /><path d="M341.333333 256h341.333334v213.333333H341.333333z" fill="currentColor" /><path d="M128 341.333333h128v128H128z" fill="currentColor" /><path d="M128 426.666667h768v448H128z" fill="currentColor" /><path d="M640 874.666667H384v-128c0-70.4 57.6-128 128-128s128 57.6 128 128v128z" fill="currentColor" /><path d="M853.333333 533.333333h-42.666666v-149.333333c0-12.8 8.533333-21.333333 21.333333-21.333333s21.333333 8.533333 21.333333 21.333333v149.333333zM640 426.666667h-42.666667v-106.666667c0-12.8 8.533333-21.333333 21.333334-21.333333s21.333333 8.533333 21.333333 21.333333v106.666667zM426.666667 426.666667h-42.666667v-106.666667c0-12.8 8.533333-21.333333 21.333333-21.333333s21.333333 8.533333 21.333334 21.333333v106.666667zM554.666667 426.666667h-85.333334v-85.333334c0-23.466667 19.2-42.666667 42.666667-42.666666s42.666667 19.2 42.666667 42.666666v85.333334zM213.333333 533.333333H170.666667v-149.333333c0-12.8 8.533333-21.333333 21.333333-21.333333s21.333333 8.533333 21.333333 21.333333v149.333333zM640 533.333333h-42.666667v-42.666666c0-12.8 8.533333-21.333333 21.333334-21.333334s21.333333 8.533333 21.333333 21.333334v42.666666zM426.666667 533.333333h-42.666667v-42.666666c0-12.8 8.533333-21.333333 21.333333-21.333334s21.333333 8.533333 21.333334 21.333334v42.666666zM533.333333 533.333333h-42.666666v-42.666666c0-12.8 8.533333-21.333333 21.333333-21.333334s21.333333 8.533333 21.333333 21.333334v42.666666z" fill="currentColor" /></svg>
