<svg viewBox="0 0 32 32" fill="none" xmlns="http://www.w3.org/2000/svg"><path fill-rule="evenodd" clip-rule="evenodd" d="M18.0625 4.33203C20.5143 4.33202 22.4399 4.33245 23.958 4.50391C25.5076 4.67894 26.7641 5.04425 27.8086 5.86914C28.1213 6.11608 28.4112 6.38892 28.6748 6.68457C29.5629 7.68074 29.9595 8.88786 30.1484 10.3691C30.332 11.8084 30.3321 13.63 30.332 15.9287V16.0693C30.3321 18.368 30.332 20.1897 30.1484 21.6289C29.9595 23.1102 29.5629 24.3173 28.6748 25.3135C28.4112 25.6091 28.1213 25.882 27.8086 26.1289C26.7641 26.9538 25.5076 27.3191 23.958 27.4941C22.4399 27.6656 20.5143 27.666 18.0625 27.666H13.9355C11.4837 27.666 9.5581 27.6656 8.04004 27.4941C6.49049 27.3191 5.23396 26.9538 4.18945 26.1289C3.87678 25.882 3.58683 25.6091 3.32324 25.3135C2.43518 24.3173 2.03855 23.1102 1.84961 21.6289C1.66608 20.1897 1.666 18.368 1.66602 16.0693V15.9287C1.666 13.63 1.66608 11.8084 1.84961 10.3691C2.03855 8.88786 2.43518 7.68074 3.32324 6.68457C3.58683 6.38892 3.87678 6.11608 4.18945 5.86914C5.23396 5.04425 6.49049 4.67894 8.04004 4.50391C9.5581 4.33245 11.4837 4.33202 13.9355 4.33203H18.0625ZM13.999 6.33203C11.47 6.33203 9.65737 6.33392 8.26465 6.49121C6.89026 6.64646 6.05711 6.9422 5.42871 7.43848C5.2063 7.61413 5.00084 7.80668 4.81543 8.01465C4.29998 8.5928 3.99503 9.3519 3.83301 10.6221C3.66748 11.9201 3.66602 13.6143 3.66602 15.999C3.66602 18.3838 3.66748 20.0779 3.83301 21.376C3.99503 22.6461 4.29998 23.4052 4.81543 23.9834C5.00084 24.1914 5.2063 24.3839 5.42871 24.5596C6.05711 25.0558 6.89026 25.3516 8.26465 25.5068C9.65737 25.6641 11.47 25.666 13.999 25.666H17.999C20.528 25.666 22.3407 25.6641 23.7334 25.5068C25.1078 25.3516 25.9409 25.0558 26.5693 24.5596C26.7917 24.3839 26.9972 24.1914 27.1826 23.9834C27.6981 23.4052 28.003 22.6461 28.165 21.376C28.3306 20.0779 28.332 18.3838 28.332 15.999C28.332 13.6143 28.3306 11.9201 28.165 10.6221C28.003 9.3519 27.6981 8.5928 27.1826 8.01465C26.9972 7.80669 26.7917 7.61413 26.5693 7.43848C25.9409 6.9422 25.1078 6.64646 23.7334 6.49121C22.3407 6.33392 20.528 6.33203 17.999 6.33203H13.999ZM16.0674 11.666C18.4604 11.6662 20.4004 13.6059 20.4004 15.999C20.4004 18.3921 18.4604 20.3318 16.0674 20.332C13.6741 20.332 11.7334 18.3923 11.7334 15.999C11.7334 13.6058 13.6741 11.666 16.0674 11.666ZM16.0674 13.666C14.7787 13.666 13.7334 14.7104 13.7334 15.999C13.7334 17.2877 14.7787 18.332 16.0674 18.332C17.3559 18.3318 18.4004 17.2876 18.4004 15.999C18.4004 14.7105 17.3559 13.6662 16.0674 13.666ZM7.99902 14.999C8.55131 14.999 8.99902 15.4467 8.99902 15.999C8.99902 16.5513 8.55131 16.999 7.99902 16.999H6.66602C6.11373 16.999 5.66602 16.5513 5.66602 15.999C5.66602 15.4467 6.11373 14.999 6.66602 14.999H7.99902ZM25.332 14.999C25.8843 14.999 26.332 15.4467 26.332 15.999C26.332 16.5513 25.8843 16.999 25.332 16.999H23.999C23.4467 16.999 22.999 16.5513 22.999 15.999C22.999 15.4467 23.4467 14.999 23.999 14.999H25.332Z" fill="currentColor"/></svg>
