<svg xmlns="http://www.w3.org/2000/svg" fill="currentColor" viewBox="0 0 32 32"><path d="M31 7H1a1 1 0 0 0-1 1v16a1 1 0 0 0 1 1h30a1 1 0 0 0 1-1V8a1 1 0 0 0-1-1m-5.91 16H6.91A6 6 0 0 0 2 18.09v-4.18A6 6 0 0 0 6.91 9h18.18A6 6 0 0 0 30 13.91v4.18A6 6 0 0 0 25.09 23M30 11.86A4 4 0 0 1 27.14 9H30ZM4.86 9A4 4 0 0 1 2 11.86V9ZM2 20.14A4 4 0 0 1 4.86 23H2ZM27.14 23A4 4 0 0 1 30 20.14V23ZM7.51.71a1 1 0 0 0-.76-.1 1 1 0 0 0-.61.46l-2 3.43a1 1 0 0 0 1.74 1l1.5-2.56 5.07 2.93a1 1 0 0 0 1-1.74Zm16.98 30.58a1 1 0 0 0 .5.14h.26a1 1 0 0 0 .61-.46l2-3.43a1 1 0 1 0-1.74-1l-1.48 2.56-5.07-2.93a1 1 0 0 0-1 1.74Z"/><path d="M16 10a6 6 0 1 0 6 6 6 6 0 0 0-6-6m0 10a4 4 0 1 1 4-4 4 4 0 0 1-4 4"/></svg>
