<svg xmlns="http://www.w3.org/2000/svg" fill="none" viewBox="0 0 24 24"><path stroke="currentColor" stroke-linecap="round" stroke-linejoin="round" stroke-miterlimit="10" stroke-width="1.5" d="M19.3 7.92v5.15c0 3.08-1.76 4.4-4.4 4.4H6.11a6 6 0 0 1-1.99-.32c-1.5-.56-2.41-1.86-2.41-4.08V7.92c0-3.08 1.76-4.4 4.4-4.4h8.79c2.24 0 3.85.95 4.28 3.12q.11.59.12 1.28"/><path stroke="currentColor" stroke-linecap="round" stroke-linejoin="round" stroke-miterlimit="10" stroke-width="1.5" d="M22.3 10.92v5.15c0 3.08-1.76 4.4-4.4 4.4H9.11q-1.1 0-1.99-.32a3.5 3.5 0 0 1-2.29-2.81q.6.13 1.28.13h8.8c2.63 0 4.4-1.32 4.4-4.4V7.92q0-.7-.13-1.28c1.9.4 3.12 1.74 3.12 4.28"/><path stroke="currentColor" stroke-linecap="round" stroke-linejoin="round" stroke-miterlimit="10" stroke-width="1.5" d="M10.5 13.14a2.64 2.64 0 1 0 0-5.28 2.64 2.64 0 0 0 0 5.28M4.78 8.3v4.4m11.44-4.4v4.4"/></svg>
