<svg xmlns="http://www.w3.org/2000/svg" fill="currentColor" style="fill-rule:evenodd;clip-rule:evenodd;stroke-linejoin:round;stroke-miterlimit:2" viewBox="0 0 1069 1069"><path id="Television" d="M.03 1.67H1066.7v1066.67H.03z" style="fill:none"/><path d="M283.36 962.08h500a31.26 31.26 0 0 0 0-62.5h-500a31.26 31.26 0 0 0 0 62.5m397.1-511.68-51.97-51.97c-41.03-41.03-107.56-41.03-148.59 0L375.97 502.37a42.57 42.57 0 0 1-60.2 0l-51.98-51.97a31.27 31.27 0 0 0-44.19 0 31.27 31.27 0 0 0 0 44.2l51.97 51.96c41.03 41.04 107.56 41.04 148.59 0l103.93-103.93a42.57 42.57 0 0 1 60.2 0l51.98 51.97a31.26 31.26 0 0 0 44.2-44.2m121.9-40.4a33.1 33.1 0 0 1 33.08 33.07 33.1 33.1 0 0 1-33.08 33.08 33.1 33.1 0 0 1-33.07-33.08A33.1 33.1 0 0 1 802.37 410m0-107.82a33.1 33.1 0 0 1 33.08 33.08 33.1 33.1 0 0 1-33.08 33.07 33.1 33.1 0 0 1-33.07-33.07 33.1 33.1 0 0 1 33.07-33.08" style="fill-opacity:.5"/><path d="M981.28 305.83c0-109.3-88.61-197.91-197.92-197.91h-500c-109.3 0-197.91 88.6-197.91 197.91v333.34c0 109.3 88.6 197.91 197.91 197.91h500c109.31 0 197.92-88.6 197.92-197.91zm-62.5 0v333.34c0 74.79-60.63 135.41-135.42 135.41h-500c-74.78 0-135.41-60.63-135.41-135.41V305.83c0-74.79 60.63-135.41 135.41-135.41h500c74.8 0 135.42 60.62 135.42 135.41m-229.17 62.5a114.6 114.6 0 0 0-114.58-114.58h-250a114.6 114.6 0 0 0-114.58 114.58v208.34a114.6 114.6 0 0 0 114.58 114.58h250a114.6 114.6 0 0 0 114.58-114.58zm83.34 177.76v72.24a31.26 31.26 0 0 0 62.5 0V546.1a31.26 31.26 0 0 0-62.5 0M627.1 368.33v208.34a52.1 52.1 0 0 1-52.08 52.08h-250a52.1 52.1 0 0 1-52.08-52.08V368.33a52.1 52.1 0 0 1 52.08-52.08h250a52.1 52.1 0 0 1 52.08 52.08"/></svg>
