<svg fill="currentColor" viewBox="0 0 64 64" xmlns="http://www.w3.org/2000/svg" style="fill-rule:evenodd;clip-rule:evenodd;stroke-miterlimit:1.5;"><g transform="matrix(1,0,0,1,-960,-320)"><rect id="Icons" x="0" y="0" width="1280" height="800" style="fill:none;"/><g id="Icons1" serif:id="Icons"><g transform="matrix(0.832793,0,0,0.832793,170.877,58.8527)"><path d="M1003.25,372.026C1003.5,372.026 1003.71,372.191 1003.77,372.428C1003.84,372.665 1003.73,372.915 1003.52,373.036C1000.1,374.907 996.172,375.974 992,375.974C978.754,375.974 968,365.22 968,351.974C968,338.728 978.754,327.974 992,327.974C996.251,327.974 1000.24,329.081 1003.71,331.024C1003.92,331.147 1004.02,331.395 1003.95,331.629C1003.89,331.863 1003.68,332.025 1003.43,332.023C1003.37,332.026 1003.31,332.026 1003.25,332.026C992.625,332.026 984,340.988 984,352.026C984,363.064 992.625,372.026 1003.25,372.026C1003.25,372.026 1003.25,372.026 1003.25,372.026Z" style="fill:none;stroke:black;stroke-width:4.8px;"/></g></g></g></svg>
