<svg xmlns="http://www.w3.org/2000/svg" fill="currentColor" preserveAspectRatio="xMidYMid" viewBox="0 -9 32 32"><path d="M25 14c-3.85 0-5.47-1.95-6.66-3.38C17.46 9.56 16.95 9 16 9s-1.46.56-2.34 1.62C12.47 12.05 10.85 14 7 14 1.52 14 .03 8.88 0 6.18a1 1 0 0 1 1.27-.97q.9.25 1.67.25c2.11 0 3.4-1.37 4.75-2.82C8.91 1.34 10.17 0 12 0c1.47 0 3.22.62 4 .92.78-.3 2.53-.92 4-.92 1.83 0 3.09 1.34 4.3 2.64 1.36 1.45 2.65 2.82 4.75 2.82q.79 0 1.68-.25a1 1 0 0 1 1.27.97c-.03 2.7-1.52 7.82-7 7.82m-9-7c1.93 0 2.97 1.24 3.88 2.35C21.02 10.7 22.08 12 25 12c3.5 0 4.55-2.87 4.86-4.59q-.4.05-.8.05c-2.98 0-4.77-1.91-6.21-3.45C21.84 2.93 20.97 2 20 2c-1.23 0-3.02.66-3.6.92a1 1 0 0 1-.8 0C15.02 2.66 13.23 2 12 2c-.97 0-1.84.93-2.85 2-1.44 1.55-3.23 3.46-6.2 3.46q-.4 0-.8-.05C2.45 9.13 3.51 12 7 12c2.91 0 3.98-1.29 5.12-2.65C13.03 8.25 14.07 7 16 7"/></svg>
