<svg xmlns="http://www.w3.org/2000/svg" fill="currentColor" preserveAspectRatio="xMidYMid" viewBox="0 0 31.906 31.906"><path d="m31.57 16.7-3.95 3.94a1 1 0 0 1-1.4-1.4l2.32-2.33h-11.6v11.6l2.3-2.3a1 1 0 1 1 1.4 1.41l-3.98 4-.11.06q-.1.09-.22.15-.18.07-.38.07h-.04a1 1 0 0 1-.67-.29l-3.98-3.99a1 1 0 1 1 1.4-1.4L15 28.54V16.9H3.36l2.33 2.32a1 1 0 0 1-1.41 1.41l-4-3.98a1 1 0 0 1 0-1.42l4-3.98a1 1 0 1 1 1.4 1.4l-2.28 2.3H15V3.35l-2.34 2.33a1 1 0 0 1-1.4-1.41L15.23.3q.25-.3.72-.31a1 1 0 0 1 .7.29l4 3.99a1 1 0 0 1-1.42 1.4L16.95 3.4v11.55H28.5l-2.29-2.28a1 1 0 1 1 1.41-1.41l3.99 3.98a1 1 0 0 1 .3.71q-.02.49-.34.75"/></svg>
