<svg xmlns="http://www.w3.org/2000/svg" viewBox="-63.28 0 310.067 310.067"><defs><style>.a{fill:#fff}.d{fill:#211715}</style></defs><path d="M9.42 275.96a9 9 0 0 1-1.46-1.7c-.71-1.07-1.72-3.68-1.18-5.2l.2-.73a5 5 0 0 1-2.9-.92 6 6 0 0 1-1.47-2.21c-.3-.86-.1-4.71-.02-5.62.53-7.2 3.2-9.7 7.87-14.16h24.1v25.78c1.62 3.79-.54 7.36-2.63 8.17-2.95 1.14-7.34.94-12.22.36-4.68-.55-8.08-1.75-10.3-3.77m116-214.2a6 6 0 0 1 4.4-.9 5.5 5.5 0 0 1 4.52 3.2c1.3 2.93.57 7.94-.95 10.9a16 16 0 0 1-6.1 7.02 12 12 0 0 1-5.47 1.27l-.16.3a52 52 0 0 1-2.43 4.21 63 63 0 0 1-2.1 2.97l-.1 3.3a35 35 0 0 0 .82 8.54c-8 6.05-19.34 12.96-28.45 16.22l-3.95-.15c0 .02-10.83-6.98-11.74-7.58v-4.66a32 32 0 0 1-11.98-6.57c-6.64-5.57-9.46-14.27-10.4-23.86-.54-5.53-1-11.54-1.71-17.55 0 0-2.16-30.72 34.37-30.72 46.37 0 41.43 34.07 41.43 34.07" class="a"/><path d="M169.16 281.77c-19.47.63-53.49.04-75.54-.71-10.15-.35-26.4-.7-36.54-1.05-.34-4.98-1.16-63.6-2.1-79.92l-27.27-34.07c.45-3.65 1.07-7.29 1.68-10.93.9-5.33 1.85-10.78 5.02-15.64 5.83-8.96 18.19-14.59 30-19.59l.35-.14a1.3 1.3 0 0 1 .28-1.3c1.35-1.62 2.99-3.04 4.27-4.36q1.16-1.2 2.28-2.42c.9-1 .94-1.35 2.12-.58.91.6 11.73 7.6 11.74 7.58l3.95.15c9.52-3.4 21.47-10.8 29.5-17.03q.56.9 1.28 1.88l6.36 4.95c13.6 8.09 17.53 7.08 28.83 13.22 4.36 2.36 10.74 6.77 13.65 10.78a44 44 0 0 1 7.47 17.67c2.27 12.4 4.23 35.83 4.56 50.88-4.8.56-10.47.94-16.18 1.12l2.24 44.4c.72 11.97 1.63 24.85 2.05 35.1" style="fill:#3d8dcc"/><path d="M50.8 31.5a45 45 0 0 0-1.54 6.02 69 69 0 0 0-.29 19.2l.24-.06C62.2 53.17 88.32 40.1 96.54 30.34c3.51 8.4 12.92 23 20.8 26.53l8.08 4.9a6 6 0 0 1 4.4-.91 5.5 5.5 0 0 1 4.52 3.2 7 7 0 0 1 .47 1.55c2.97-5.3 3.28-14.9 3.55-19a38 38 0 0 0-1.05-11.57c-1.87-7.51-4.73-13.66-10.56-19.05l-1.16-1.07-6.07-4.3A42 42 0 0 0 91.68 2.5c-14.32.72-25.83 6.26-33.55 15.36A42 42 0 0 0 50.8 31.5m92.93 85.15a89 89 0 0 1-17.2-8.05l-6.35-4.95-2.57-2a39 39 0 0 1-.58-7.62s0-1.2 0-3.16a66 66 0 0 0 2.2-3.11s1.7-2.68 2.43-4.22l.18-.29a12 12 0 0 0 5.45-1.27 16 16 0 0 0 6.1-7.01s.8-1.57 1.62-3.14a18.9 18.9 0 0 1 12.43 13.05c1.34 5.16.4 10.58-.1 15.89s-.46 11.02 2.48 15.46l2.73 4.12a85 85 0 0 0-8.82-3.7" style="fill:#85807f"/><path d="M8.76 243.72a34 34 0 0 0-6.06 6.88 20.4 20.4 0 0 0-2.52 9.1c-.17 2.46-.52 5.26.72 7.5 2.15 3.87 7.3 4.45 10.89 2.27 2.64-1.6.23-5.76-2.42-4.15a3.9 3.9 0 0 1-3.42.4 1.8 1.8 0 0 1-.9-.94c-.53-.96.04.1-.16-.33-.16-.33-.01.49 0-.03a49 49 0 0 1 .25-6.28 13 13 0 0 1 2.27-5.99 39 39 0 0 1 4.75-5.03c2.23-2.14-1.16-5.53-3.4-3.4" class="d"/><path d="M32.16 271.2c0 .85.5 1.62.56 2.47a4 4 0 0 1-.33 1.93 2.8 2.8 0 0 1-2 1.75c-3.17.88-6.76.42-9.98.06-2.9-.32-5.95-.87-8.43-2.49-1.44-.94-3.45-3.24-2.89-5.22.85-2.98-3.78-4.25-4.63-1.28-.82 2.9.59 6.22 2.47 8.41a15 15 0 0 0 7.05 4.2 43 43 0 0 0 10.9 1.54c2.9.1 6.58.12 9.07-1.58a8.4 8.4 0 0 0 3.12-4.28 9 9 0 0 0 .45-2.84 10 10 0 0 0-.16-1.64l-.13-.62c-.03-.08-.27-.98-.27-.41 0-3.09-4.8-3.1-4.8 0m27.32 8.81c-.54-8.2-.43-16.47-.6-24.67-.27-13.12-.53-26.23-.9-39.34-.15-5.3-.3-10.61-.6-15.9-.17-3.07-4.97-3.1-4.8 0 .62 10.9.78 21.85 1.03 32.76.28 12.37.5 24.73.78 37.09.07 3.35.07 6.72.29 10.07a2.46 2.46 0 0 0 2.4 2.4 2.4 2.4 0 0 0 2.4-2.4Z" class="d"/><path d="M11.7 166.02h-1.13v105.15c28.34 0 117.18.33 132.77.33h3.04v-1.19c0-18.61.09-86.18.09-104.29Z" style="fill:#bd957a"/><path d="M30.1 166.02c.56-4.43 1.3-8.85 2.12-13.24a33 33 0 0 1 4.02-11.73c3.83-6.15 10.5-10.14 16.79-13.37a188 188 0 0 1 12.6-5.75 2.4 2.4 0 0 0 .86-3.28 2.46 2.46 0 0 0-3.28-.86c-7.65 3.24-15.47 6.57-22.17 11.56a36 36 0 0 0-8.32 8.31 33 33 0 0 0-4.8 12.15 204 204 0 0 0-2.6 16.21 2.4 2.4 0 0 0 2.4 2.4 2.46 2.46 0 0 0 2.4-2.4Zm153.4 40.41c.06-8.84-.5-17.68-1.17-26.49a341 341 0 0 0-3.04-27.41 53 53 0 0 0-4.47-14.89 34 34 0 0 0-9.9-12.38 66 66 0 0 0-12.9-7.82c-3.55-1.63-7.23-2.92-10.87-4.31q-3.18-1.21-6.26-2.71a73 73 0 0 1-6.77-3.61c-2.19-1.43-4.18-3.26-6.24-4.86a2.5 2.5 0 0 0-3.4 0 2.4 2.4 0 0 0 0 3.4l5.74 4.46a53 53 0 0 0 11.34 6.19c3.5 1.53 7.11 2.75 10.66 4.15a67 67 0 0 1 11.58 5.9c4.1 2.66 7.95 5.7 10.58 9.88a43 43 0 0 1 5.84 15.23c1.54 8.51 2.35 17.17 3.07 25.8.81 9.79 1.48 19.64 1.4 29.47-.01 3.1 4.79 3.1 4.8 0Z" class="d"/><path d="M114.63 94.03a47 47 0 0 0 .26 5.64c.28 2.31.66 4.94 2.1 6.85a2.6 2.6 0 0 0 1.44 1.1 2.5 2.5 0 0 0 1.85-.25c.98-.63 1.67-2.2.86-3.28a7 7 0 0 1-.67-1.14c-.2-.39.2.54.04.1l-.12-.32-.23-.73q-.2-.74-.33-1.49l-.14-.8c-.07-.45.05.42.02.1l-.05-.44a49 49 0 0 1-.24-5.34 2.4 2.4 0 1 0-4.8 0Z" class="d"/><path d="m97.27 131.89 1.67 2.78a182 182 0 0 0 17.98-15c2.52-2.44 5.38-5.03 7.33-7.96 1.3-1.96.25-2.55-1.02-4.08a68 68 0 0 1-4.34-5.86c-8.02 6.23-19.97 13.62-29.49 17.03Zm44.34 114.53a10 10 0 0 0-2.25-1.09l.31-1.02c1.81-4.78 4.93-15.24 6.72-21.1v-.44c0-6.76 0-13.7.02-20.68a220 220 0 0 0 32.08-.67 61 61 0 0 1-2.02 19.7c-2.22 6.85-13.8 30.7-19.36 36.29l-2.19 2.19-.22-.28a109 109 0 0 0-6.57-7.4 37 37 0 0 0-6.52-5.5M75.38 131.09a58 58 0 0 1-8.36-8.48c-.94-1.17-3.18-2.76-1.98-4.19 1.35-1.61 2.99-3.04 4.27-4.36q1.16-1.19 2.28-2.42c.9-.99.94-1.35 2.12-.58.91.6 11.73 7.6 11.74 7.58-2.44 4.84-6.25 8.6-10.07 12.45" class="a"/><path d="M77.08 129.4a78 78 0 0 1-8.58-8.74c-.4-.46-1.04-1.04-1.3-1.4.13.18-.28-.4-.22-.38.07.01.11.37.12.37l-.12.58.62-.69c1.43-1.53 2.99-2.93 4.43-4.45a18 18 0 0 0 1.8-1.97l.08-.07q.7-.68-1.54.35l-.07-.02q-.27-.08.2.15l.22.15 1.75 1.13q2.86 1.86 5.73 3.7l2.8 1.8a9 9 0 0 0 1.24.8l-.86-3.28c-2.38 4.64-6.06 8.3-9.7 11.96-2.18 2.2 1.22 5.59 3.4 3.4 3.9-3.95 7.88-7.95 10.44-12.94.54-1.04.38-2.75-.86-3.28a9 9 0 0 1-1.2-.76l-2.84-1.84-6.26-4.04c-.6-.4-1.2-.83-1.83-1.18a3.3 3.3 0 0 0-3.33-.05 13 13 0 0 0-2.32 2.34c-1.56 1.66-3.26 3.18-4.8 4.85a5.3 5.3 0 0 0-1.76 3.15 4.4 4.4 0 0 0 .91 2.89c.63.86 1.4 1.57 2.1 2.38.85 1.02 1.68 2.04 2.58 3.02a59 59 0 0 0 5.77 5.46 2.47 2.47 0 0 0 3.4 0 2.4 2.4 0 0 0 0-3.4" class="d"/><path d="m95.2 133.1 1.67 2.78a2.4 2.4 0 0 0 3.28.86 207 207 0 0 0 20.32-17.16 50 50 0 0 0 4.21-4.45c1.22-1.5 2.69-3.2 2.54-5.26-.13-1.88-1.66-3.14-2.77-4.52a58 58 0 0 1-3.48-4.8 2.45 2.45 0 0 0-3.77-.48 131 131 0 0 1-13.7 9.2 89 89 0 0 1-14.74 7.21 2.43 2.43 0 0 0-1.43 3.53zc1.6 2.64 5.75.23 4.15-2.43l-7.88-13.1-1.43 3.53c11.04-3.99 21.3-10.5 30.55-17.65l-3.77-.48a68 68 0 0 0 4.72 6.35q.39.49.82.95c.06.06.49.58.16.09-.21-.3.08-.52-.34.13q-.35.54-.74 1.05-.75.94-1.58 1.83c-1.28 1.4-2.66 2.7-4.02 4a189 189 0 0 1-18.1 15.22l3.28.86-1.67-2.78c-1.6-2.65-5.75-.24-4.15 2.42m53.58 89.67c0-18.92.09-37.83.09-56.75a2.44 2.44 0 0 0-2.4-2.4H28.01c-5.65 0-11.32-.1-16.97 0h-.47a2.44 2.44 0 0 0-2.4 2.4v105.16a2.43 2.43 0 0 0 2.4 2.4q21.7 0 43.4.1l45.58.18 16 .04c3.09 0 3.1-4.8 0-4.8q-17.15-.02-34.3-.1l-48.12-.18q-11.27-.04-22.54-.05l2.4 2.4V179.9c0-4.46.2-8.98 0-13.43v-.44l-2.4 2.4h135.9l-2.4-2.4c0 18.92-.09 37.83-.09 56.75 0 3.09 4.8 3.1 4.8 0Zm15.93 23.9c.7 11.7 1.56 23.39 2.05 35.1.12 3.08 4.92 3.1 4.8 0-.49-11.71-1.35-23.4-2.05-35.1-.19-3.08-5-3.1-4.8 0" class="d"/><path d="M169.16 279.37c-14.33.46-28.69.3-43.02.08-14.6-.23-29.2-.73-43.79-1.13-8.42-.23-16.85-.42-25.27-.7-3.1-.11-3.09 4.69 0 4.8 14.43.48 28.88.82 43.32 1.25q23.05.68 46.12.77c7.55 0 15.1-.03 22.64-.27 3.08-.1 3.1-4.9 0-4.8" class="d"/><path d="M54.76 279.37c-1.17 7.56-1.64 15.21-3.14 22.72a2.46 2.46 0 0 0 1.68 2.96 2.4 2.4 0 0 0 2.95-1.68c.84-4.2 1.4-8.46 1.91-12.72l.67-5.65.3-2.52.07-.54.03-.25.16-1.04a2.5 2.5 0 0 0-1.68-2.95 2.4 2.4 0 0 0-2.95 1.67" class="d"/><path d="M104.96 275.57a8.8 8.8 0 0 1 4.24-4.3 4 4 0 0 0 2.66-1.82c1.98-3.25 4.38-8.7 5.22-10.42a8.6 8.6 0 0 1 3.04-3 7.7 7.7 0 0 1 3.98-1.27 10.8 10.8 0 0 0 9.71-5.34 10.7 10.7 0 0 1 3.7-4.1c1.83-.93 6.21 2.07 10.62 6.6a102 102 0 0 1 6.93 7.86c-4.81 8.73-9.06 15.93-15.36 23.2-2.7 3.13-8.65 5.45-11.78 5.11-9.4-1-15.13-1.69-23.83-9.46a11 11 0 0 1 .87-3.06" class="a"/><path d="M161.98 282.38c1.1 4.25 1.1 8.92 1.13 13.46a105 105 0 0 1-.47 11.83 2.4 2.4 0 0 0 2.4 2.4 2.46 2.46 0 0 0 2.4-2.4 106 106 0 0 0 .46-12.17c-.03-4.76-.1-9.76-1.3-14.4-.77-2.99-5.4-1.72-4.63 1.28Zm19.12-83.65a200 200 0 0 1-33.85 1c-3.1-.17-3.08 4.63 0 4.8a200 200 0 0 0 33.85-1 2.47 2.47 0 0 0 2.4-2.4 2.4 2.4 0 0 0-2.4-2.4" class="d"/><path d="M176.16 202.9a57 57 0 0 1-1.63 16.3 48 48 0 0 1-2.77 7.26 207 207 0 0 1-10.8 21.22 84 84 0 0 1-3.07 4.88l-.77 1.1-.25.34-.25.33.08-.1a19 19 0 0 1-1.3 1.47c-2.16 2.2 1.23 5.6 3.4 3.4a41 41 0 0 0 5.44-7.56 175 175 0 0 0 6.02-10.88q2.75-5.34 5.21-10.81a75 75 0 0 0 3.39-8.34 58 58 0 0 0 2.1-18.61c-.1-3.08-4.9-3.1-4.8 0m-30.42 8.57a27 27 0 0 1-1.14 9.38l-2.17 7.14c-1.6 5.25-3.14 10.54-5.07 15.68a2.4 2.4 0 0 0 1.68 2.96 2.45 2.45 0 0 0 2.95-1.68c1.97-5.24 3.54-10.65 5.16-16q1.14-3.65 2.22-7.32a31 31 0 0 0 1.17-10.16c-.15-3.07-4.95-3.1-4.8 0m-31.42-24.68v61.31c0 3.09 4.8 3.1 4.8 0v-61.31c0-3.09-4.8-3.1-4.8 0" class="d"/><path d="M101.48 279.5a41 41 0 0 0 12.07 8.12 44 44 0 0 0 11.85 2.6 18 18 0 0 0 5.86-.02 21 21 0 0 0 6.14-2.4c4.26-2.43 7.17-6.8 9.96-10.73a162 162 0 0 0 9.41-15.44c1.5-2.7-2.64-5.13-4.14-2.42-2.38 4.3-4.8 8.57-7.52 12.67a95 95 0 0 1-4.05 5.69 27 27 0 0 1-4.43 5.02 13.6 13.6 0 0 1-9.45 3.02 49 49 0 0 1-10.74-2c-4.42-1.52-8.17-4.38-11.57-7.5-2.27-2.1-5.67 1.3-3.4 3.39Z" class="d"/><path d="M156.4 257.61a72 72 0 0 0-10.17-10.75 20 20 0 0 0-5.91-3.74 5.3 5.3 0 0 0-5.67 1.3c-1.76 1.59-2.6 3.86-4.25 5.5a8.4 8.4 0 0 1-4.7 2.36c-1.2.17-2.4.06-3.59.32a10 10 0 0 0-3.51 1.58 12 12 0 0 0-4.14 4.78q-1.47 3.2-3.05 6.35a15 15 0 0 1-1.8 3.2c.13-.15-.19.13-.17.12.27-.2-.31.13-.38.16-.24.1-1.1.37-1.55.54a2.47 2.47 0 0 0-1.68 2.95 2.4 2.4 0 0 0 2.96 1.68c2.08-.78 3.87-1.34 5.14-3.3a51 51 0 0 0 3.04-5.79c.74-1.54 1.39-3.13 2.18-4.63a6.5 6.5 0 0 1 4.6-3.08c1.04-.13 2.1-.07 3.15-.25a13 13 0 0 0 8.11-5.02c.67-.87 1.18-1.84 1.83-2.73a8 8 0 0 1 1.07-1.21c.17-.16.32-.25.51-.4.56-.45-.02.16-.1-.02l-.15.02.39.01c-.1-.03-.47-.1 0 .04a3 3 0 0 1 .67.24 16 16 0 0 1 2.8 1.77A64 64 0 0 1 153 261a2.4 2.4 0 0 0 3.4 0 2.46 2.46 0 0 0 0-3.4Zm-45-157.23a53 53 0 0 0 8.12-8.87 43 43 0 0 0 4.22-6.75 2.4 2.4 0 0 0-4.15-2.43 43 43 0 0 1-4.06 6.56l-.82 1.1c.18-.24-.1.13-.17.2l-.39.5q-.89 1.09-1.83 2.13A49 49 0 0 1 108 97a2.4 2.4 0 0 0 0 3.4 2.46 2.46 0 0 0 3.4 0m13.65-82.7c5.1 4.76 8.07 10.72 9.8 17.41 1.7 6.53 1.29 13.4.42 20.03-.42 3.23-1.04 6.67-2.68 9.52-1.54 2.68 2.6 5.1 4.15 2.42 3.26-5.68 3.56-12.83 3.95-19.22a46.3 46.3 0 0 0-4.6-23.35 35 35 0 0 0-7.65-10.2c-2.25-2.11-5.65 1.28-3.4 3.39ZM74.5 91.48A13.6 13.6 0 0 0 81 92.9a13 13 0 0 0 3.28-.43 25 25 0 0 0 3.5-1.52 2.4 2.4 0 0 0 .86-3.28 2.47 2.47 0 0 0-3.28-.86q-.7.32-1.4.67l-.34.16c-.52.25.31-.1 0 0q-.27.1-.55.18c-.28.08-.38.1-.58.14l-.3.06c-.07.01-.44.06-.06.02s0 0-.08 0l-.32.02q-.36.03-.73.04-.66 0-1.32-.05l-.33-.03c-.33-.03.01 0 .14.03-.2-.06-.43-.07-.64-.11a11 11 0 0 1-1.28-.33l-.28-.1c-.08-.03-.4-.17-.05-.01s.04.01-.03-.02l-.3-.15a2.4 2.4 0 1 0-2.43 4.14Zm13.64-23.05c-.5-1.96.09-6.39 3.77-6.6 4.84.26 4.85 5.65 3.1 8.1-1.43 2.01-5.4 2.69-6.87-1.5M59.33 68c-.46-1.97.1-6.41 3.47-6.63 4.43.25 4.43 5.66 2.83 8.12-1.32 2.02-4.95 2.7-6.3-1.49m14.47 4.47a42 42 0 0 0-1.79 3.2 5 5 0 0 0-.63 2 3 3 0 0 0 .97 2.4 5 5 0 0 0 1.81 1.07 7 7 0 0 0 1.35.2l-.64-.09.1.02a2 2 0 0 0 .95.04 2 2 0 0 0 .9-.28 2.4 2.4 0 0 0 .85-3.29 2.3 2.3 0 0 0-1.43-1.1q-.54-.08-1.1-.14l.64.09a2 2 0 0 1-.53-.14l.57.24a2 2 0 0 1-.4-.24l.5.38a2 2 0 0 1-.34-.32l.38.49-.07-.12.24.57-.04-.2.08.64v-.21l-.08.64a2 2 0 0 1 .13-.44l-.25.57a29 29 0 0 1 1.97-3.56 2.4 2.4 0 0 0-4.14-2.42m46.94-63.92A45.5 45.5 0 0 0 97.72.13a55 55 0 0 0-22.34 3.1 45 45 0 0 0-17.54 11.35 44 44 0 0 0-10.6 20.78 66 66 0 0 0 .2 26.85 2.4 2.4 0 0 0 4.63-1.28C49.3 47.26 50.4 30.82 59.7 19.68 68.38 9.32 81.8 4.64 95.08 4.82a41 41 0 0 1 23.24 7.87 2.4 2.4 0 0 0 3.28-.86 2.45 2.45 0 0 0-.86-3.29" class="d"/><path d="M99.72 101.05c-9.47 4.2-20.6 6.07-30.18 1.15a27 27 0 0 1-10.68-9.28 36.5 36.5 0 0 1-4.77-13.98c-1.05-6.78-1.27-13.7-2.08-20.52a2.47 2.47 0 0 0-2.4-2.4 2.4 2.4 0 0 0-2.4 2.4c.79 6.64 1.13 13.34 2 19.96a43 43 0 0 0 4.95 16.03c5.6 9.72 16.89 15.5 27.94 15.55 7.02.03 13.68-1.94 20.04-4.76a2.4 2.4 0 0 0 .86-3.29 2.46 2.46 0 0 0-3.28-.86m26.9-37.21a4.1 4.1 0 0 1 3.9-.33 3 3 0 0 1 1.15.77q.28.31.02-.02a5 5 0 0 1 .61 1.18 7 7 0 0 1 .25 1.11 13 13 0 0 1 .05 1.83 15 15 0 0 1-.9 4.5 14.5 14.5 0 0 1-4.53 6.32 10 10 0 0 1-1.09.7c-.08.06-.77.38-.3.18a11 11 0 0 1-1.9.58 6 6 0 0 1-3.76-.14 2.47 2.47 0 0 0-3.28.86 2.4 2.4 0 0 0 .86 3.28 12 12 0 0 0 9.56-.03 15.8 15.8 0 0 0 7.18-6.58 20 20 0 0 0 2.91-8.87c.24-2.85-.2-5.93-2.14-8.14a8.9 8.9 0 0 0-11-1.35c-2.6 1.68-.19 5.84 2.41 4.15m-42.01 54.83c-.75 9.5-1.15 18.95-1.18 28.49-.01 3.09 4.79 3.09 4.8 0 .03-9.54.43-18.98 1.18-28.5a2.4 2.4 0 0 0-2.4-2.4 2.45 2.45 0 0 0-2.4 2.4" class="d"/><path d="M134.37 74.15a16.4 16.4 0 0 1 8.27 6.07 18.3 18.3 0 0 1 3.09 11.14c-.12 8.74-3.1 18.11 2.02 26.08 1.66 2.6 5.82.2 4.14-2.42-5.12-7.99-.62-18.2-1.48-26.93a21.5 21.5 0 0 0-14.76-18.57c-2.95-.95-4.2 3.68-1.28 4.63M94.23 30.97a77 77 0 0 0 9.1 15.82c3.4 4.6 7.47 9.7 12.8 12.15a2.47 2.47 0 0 0 3.28-.86 2.4 2.4 0 0 0-.86-3.28c-4.67-2.16-8.28-6.62-11.28-10.73a76 76 0 0 1-8.41-14.37 2.5 2.5 0 0 0-2.95-1.68 2.4 2.4 0 0 0-1.68 2.96Z" class="d"/><path d="M94.85 28.64c-4.24 4.98-10 8.55-15.57 11.86a158 158 0 0 1-20.63 10.32 87 87 0 0 1-10.08 3.53c-2.98.8-1.72 5.44 1.27 4.63a115 115 0 0 0 19.89-7.91 134 134 0 0 0 20.5-12 46 46 0 0 0 8-7.04 2.46 2.46 0 0 0 0-3.4 2.4 2.4 0 0 0-3.39 0Zm11.84 249.23a11 11 0 0 1 .47-1.4l-.24.58a9 9 0 0 1 1.16-2l-.38.49a9 9 0 0 1 1.57-1.57l-.49.38a10 10 0 0 1 1.38-.89 2.4 2.4 0 0 0 .86-3.28 2.45 2.45 0 0 0-3.28-.86 11.6 11.6 0 0 0-5.68 7.27 2.5 2.5 0 0 0 .24 1.84 2.4 2.4 0 0 0 4.39-.57Z" class="d"/></svg>
