<svg xmlns="http://www.w3.org/2000/svg" viewBox="-59.85 0 311.235 311.235"><defs><style>.b{fill:#fff}.d{fill:#211715}</style></defs><path d="M57.82 272.45c.1 4.57.19 7.74.26 8.73 10.15.35 27.4.7 37.54 1.04 22.05.76 61.07 1.35 80.54.72-.42-10.26-1.33-23.14-2.06-35.11l-3.1-44.37c6.42-.18 12.84-.62 18.1-1.28-.25-14.49-1.72-35.31-3.98-47.64a41.6 41.6 0 0 0-7.72-16.9 56 56 0 0 0-14.37-12.53c-11.3-6.13-17.97-9.8-31.18-15.02l-6.1-4.63a56 56 0 0 1-1.75-2.53c-8.31 6.46-20.69 14.12-30.55 17.64l-4.09-.15c0 .02-11.21-7.24-12.16-7.86-1.22-.8-1.26-.42-2.2.6q-1.16 1.28-2.36 2.51c-1.33 1.36-3.02 2.84-4.42 4.51-11.73 5-26.88 12.8-32.67 21.75a44 44 0 0 0-3.96 7.46 100 100 0 0 0-5.25 16.92Z" style="fill:#3d8dcc"/><path d="M10.58 278.04a10 10 0 0 1-2.62-2.61c-.71-1.07-1.72-3.68-1.18-5.2l.09-.73a5 5 0 0 1-2.78-.92 6 6 0 0 1-1.48-2.21c-.3-.86-.1-4.71-.02-5.62.53-7.19 3.2-9.69 7.87-14.16h24.1v25.79c1.62 3.78-.54 7.35-2.63 8.16-2.95 1.14-7.34.94-12.22.36-3.93-.46-6.95-1.38-9.13-2.86M130.13 63.09a6.2 6.2 0 0 1 4.5-.94 5.6 5.6 0 0 1 4.62 3.27c1.32 3 .58 8.13-.97 11.16a16.3 16.3 0 0 1-6.24 7.17 12 12 0 0 1-5.6 1.3l-.15.3c-.74 1.56-2.5 4.3-2.5 4.3a68 68 0 0 1-1.94 2.79c.1 1.46.17 2.76.17 2.76a35 35 0 0 0 .84 8.6c-8.27 6.27-19.99 13.4-29.41 16.77l-4.09-.15c0 .02-11.21-7.23-12.16-7.85v-3.87a33 33 0 0 1-12.17-6.7c-6.8-5.7-9.68-14.59-10.64-24.4-.55-5.65-1.02-11.8-1.75-17.94 0 0-5.36-31.18 40.15-31.18 42.05 0 37.34 34.6 37.34 34.6" class="b"/><path d="M11.7 167.19h-1.13v105.15c28.34 0 124.18.33 139.77.33h3.04v-1.19c0-18.62.09-86.18.09-104.29Z" style="fill:#bd957a"/><path d="M149.25 247.37a6.6 6.6 0 0 0-2.9-1.05l.33-.84c1.8-4.78 4.92-15.23 6.7-21.1l.03-21.13a219 219 0 0 0 33.07-.77 61 61 0 0 1-2 19.8c-2.23 6.85-13.8 30.7-19.37 36.3l-2.18 2.19-.23-.29a109 109 0 0 0-6.57-7.4 35 35 0 0 0-6.88-5.71" class="b"/><path d="M8.76 244.9a34 34 0 0 0-6.06 6.87 20.4 20.4 0 0 0-2.51 9.1c-.18 2.46-.52 5.26.72 7.5 2.14 3.87 7.3 4.45 10.89 2.27 2.63-1.6.22-5.76-2.43-4.15a3.9 3.9 0 0 1-3.41.4 1.8 1.8 0 0 1-.9-.94c-.53-.96.04.1-.16-.33-.16-.33-.01.49 0-.03a49 49 0 0 1 .24-6.28 13 13 0 0 1 2.26-5.99 39 39 0 0 1 4.75-5.03c2.24-2.14-1.16-5.53-3.4-3.4Z" class="d"/><path d="M32.24 273.02a4.6 4.6 0 0 1-.06 4.12 2.7 2.7 0 0 1-2.1 1.46c-3.24.8-6.87.31-10.14-.07a18 18 0 0 1-8.08-2.52c-1.37-.92-3.32-3.22-2.77-5.14.85-2.98-3.78-4.25-4.63-1.28-.82 2.9.59 6.22 2.47 8.42a15 15 0 0 0 7.05 4.2 44 44 0 0 0 10.9 1.53c2.9.1 6.58.12 9.07-1.58a8.86 8.86 0 0 0 2.92-10.42 2.47 2.47 0 0 0-2.95-1.67 2.4 2.4 0 0 0-1.68 2.95M119.63 95.2a47 47 0 0 0 .26 5.64c.28 2.3.66 4.93 2.1 6.84a2.6 2.6 0 0 0 1.44 1.1 2.5 2.5 0 0 0 1.85-.24c.98-.64 1.67-2.21.86-3.28a7 7 0 0 1-.67-1.14c-.2-.39.2.54.04.1l-.12-.32-.23-.73q-.2-.74-.33-1.5l-.14-.8c-.07-.44.05.42.02.12l-.05-.45a49 49 0 0 1-.24-5.34 2.4 2.4 0 0 0-4.8 0Z" class="d"/><path d="M115.76 102.52a54 54 0 0 0 8.3-9.05 44 44 0 0 0 4.3-6.91 2.4 2.4 0 0 0-4.15-2.42 44 44 0 0 1-4.15 6.7c-.6.8-.84 1.12-1.42 1.84q-.9 1.12-1.87 2.18a50 50 0 0 1-4.42 4.27 2.4 2.4 0 0 0 0 3.39 2.45 2.45 0 0 0 3.4 0Z" class="d"/><path d="M58.89 21.5a47 47 0 0 0-6.61 16.8 72 72 0 0 0 .38 23.98l.23-1.35c.66-4.04 8.3-15.23 13.84-18.43.65-.38 1.52.06 1.84 1.16a7 7 0 0 1 .28 2.65 1.38 1.38 0 0 0 2.03 1.4c3.1-1.89 8.42-6.37 14.6-9.14a59 59 0 0 1 13.08-.77c2.49.96 13.94 4.8 22.55 19.8.82 1.42 1.55 2.9 2.37 4.31a9 9 0 0 0 .83 1.26 1 1 0 0 0 .59.3 13 13 0 0 0 5.23-.38 6.2 6.2 0 0 1 4.5-.93 5.6 5.6 0 0 1 4.62 3.27 8 8 0 0 1 .48 1.58c3.03-5.42 3.35-15.22 3.63-19.42a39 39 0 0 0-1.07-11.83c-1.92-7.68-4.84-13.97-10.8-19.47l-1.19-1.1-6.2-4.38a42.8 42.8 0 0 0-28.45-8.32c-14.64.73-26.41 6.4-34.3 15.7a33 33 0 0 0-2.46 3.31" style="fill:#85807f"/><path d="M129.8 17.98c5.21 4.87 8.25 10.98 10.03 17.83 1.73 6.69 1.31 13.74.42 20.53-.44 3.3-1.07 6.8-2.74 9.71-1.54 2.68 2.6 5.1 4.14 2.42 3.3-5.74 3.63-12.96 4.03-19.42a47.6 47.6 0 0 0-4.61-23.9 36 36 0 0 0-7.88-10.56c-2.26-2.1-5.66 1.28-3.4 3.4M97.91 40.11l1.36.52.46.19c.4.16-.52-.24-.08-.03l1.13.5a38 38 0 0 1 5.44 3.14 45 45 0 0 1 12.8 14.38c1.55 2.67 5.7.26 4.15-2.42-4.8-8.3-11.78-15.59-20.62-19.55q-1.66-.73-3.36-1.36a2.4 2.4 0 0 0-2.95 1.67 2.46 2.46 0 0 0 1.67 2.95ZM55.2 61.56a10 10 0 0 1 .39-1.37l.15-.4c-.15.38 0 .01.02-.06l.49-1.01a41 41 0 0 1 2.49-4.22 43 43 0 0 1 6.7-8.05 19 19 0 0 1 1.46-1.21 5 5 0 0 0 .83-.55c.41-.45-.19-1.48-1.34-.21l-.14-.19.15.65a18 18 0 0 0 .22 2.66 3.9 3.9 0 0 0 2.75 2.6c1.85.45 3.38-.81 4.8-1.8q2.25-1.6 4.52-3.18c3.94-2.66 8.1-5.06 12.76-6.17 3-.7 1.73-5.33-1.28-4.62a41 41 0 0 0-12.52 5.74q-2.5 1.64-4.95 3.4l-1.85 1.3c-.26.17-.56.33-.8.53-.06.04-.34.16-.38.23q1.27-.4 1.58.67l.01-.33c.33-2.22-.86-5.33-3.2-5.9-2.03-.5-3.8 1.1-5.24 2.32a44 44 0 0 0-7.5 8.61c-1.9 2.71-4.14 5.97-4.75 9.29a2.47 2.47 0 0 0 1.68 2.95 2.4 2.4 0 0 0 2.95-1.68m22.9 31.85a14 14 0 0 0 6.63 1.44 14 14 0 0 0 3.33-.43 25 25 0 0 0 3.57-1.55 2.4 2.4 0 0 0 .86-3.28 2.47 2.47 0 0 0-3.28-.86q-.72.32-1.43.68l-.34.16c-.54.26.3-.09-.02.01l-.56.19q-.3.09-.6.14l-.3.06c-.07.01-.45.07-.07.02s-.01 0-.09 0l-.32.03q-.38.03-.76.03-.68.02-1.35-.04l-.34-.03c-.32-.03 0-.02.14.02-.2-.06-.44-.07-.65-.11a11 11 0 0 1-1.31-.34l-.29-.1c-.07-.02-.4-.16-.06-.01s.03.01-.04-.02l-.3-.16a2.4 2.4 0 1 0-2.43 4.14ZM92 69.9c-.52-2 .1-6.53 3.86-6.75 4.94.26 4.95 5.78 3.16 8.28-1.46 2.06-5.51 2.75-7.02-1.53m-29.43-.45c-.47-2 .09-6.55 3.54-6.77 4.53.25 4.53 5.78 2.89 8.3-1.35 2.06-5.06 2.76-6.44-1.53m14.83 4.6a42 42 0 0 0-1.83 3.27 5 5 0 0 0-.63 2.03 3 3 0 0 0 .97 2.4 4.6 4.6 0 0 0 1.83 1.09 8 8 0 0 0 1.36.2l-.64-.09.1.02a2.6 2.6 0 0 0 1.85-.25 2.4 2.4 0 0 0 .86-3.28 2.3 2.3 0 0 0-1.43-1.1l-1.1-.14.63.09a2 2 0 0 1-.54-.15l.57.25a2 2 0 0 1-.4-.25l.49.38-.34-.32.38.48-.07-.12.24.57-.05-.2.09.64v-.21l-.08.63a2 2 0 0 1 .13-.44l-.25.57a29 29 0 0 1 2.01-3.64 2.4 2.4 0 1 0-4.14-2.42Z" class="d"/><path d="M125.32 8.73a46.5 46.5 0 0 0-23.48-8.6 56 56 0 0 0-22.78 3.15 46 46 0 0 0-18.02 11.65 45 45 0 0 0-10.78 21.2 68 68 0 0 0 .2 27.39 2.4 2.4 0 0 0 4.64-1.27c-2.83-14-1.7-30.83 7.83-42.22 8.85-10.59 22.54-15.37 36.1-15.2a42 42 0 0 1 23.87 8.05 2.4 2.4 0 0 0 3.29-.86 2.45 2.45 0 0 0-.87-3.29" class="d"/><path d="M103.88 103.29c-9.6 4.26-20.9 6.2-30.66 1.3a27.7 27.7 0 0 1-11.3-9.85 38 38 0 0 1-4.76-14.14c-1.07-6.92-1.3-13.98-2.12-20.93a2.47 2.47 0 0 0-2.4-2.4 2.4 2.4 0 0 0-2.4 2.4c.8 6.77 1.14 13.6 2.03 20.37a44 44 0 0 0 5.03 16.34c5.75 10.02 17.4 15.94 28.8 15.92 7.08-.02 13.79-2.01 20.2-4.86a2.4 2.4 0 0 0 .87-3.29 2.46 2.46 0 0 0-3.28-.86Zm27.46-38.13a4.3 4.3 0 0 1 4.03-.35 4 4 0 0 1 .74.4l.12.08a5 5 0 0 1 .58.63l.25.45q.14.3-.02-.06.1.25.18.52a8 8 0 0 1 .25 1.14 13 13 0 0 1 .06 1.87 15 15 0 0 1-.93 4.63 15 15 0 0 1-4.65 6.48 10 10 0 0 1-1.12.73c-.08.04-.77.37-.31.18a11 11 0 0 1-1.94.59 6.3 6.3 0 0 1-3.89-.15 2.47 2.47 0 0 0-3.28.86 2.4 2.4 0 0 0 .86 3.28 12.2 12.2 0 0 0 9.73-.04 16 16 0 0 0 7.3-6.7 20.5 20.5 0 0 0 2.97-9.04c.25-2.9-.2-6.03-2.17-8.28a9 9 0 0 0-11.19-1.37c-2.58 1.68-.18 5.84 2.42 4.15ZM60.48 281.18c-.2-2.9-.2-5.82-.26-8.73a2.4 2.4 0 0 0-4.8 0c.07 2.9.06 5.83.26 8.73a2.4 2.4 0 1 0 4.8 0" class="d"/><path d="M155.79 223.94c0-18.92.08-37.83.08-56.75a2.44 2.44 0 0 0-2.4-2.4H28.83c-5.92 0-11.85-.1-17.77 0h-.49a2.44 2.44 0 0 0-2.4 2.4v105.15a2.44 2.44 0 0 0 2.4 2.4q22.99 0 45.97.11l49.07.18 16.93.04c3.1 0 3.1-4.8 0-4.8-12.29 0-24.57-.07-36.86-.11q-25.8-.1-51.61-.18l-23.5-.04 2.4 2.4v-91.29c0-4.46.2-8.97 0-13.43v-.43l-2.4 2.4h142.9l-2.4-2.4c0 18.92-.08 37.83-.08 56.75 0 3.09 4.8 3.1 4.8 0" class="d"/><path d="M122.32 187.96v61.31c0 3.1 4.8 3.1 4.8 0v-61.31c0-3.1-4.8-3.1-4.8 0M67.01 118.1c-8.37 3.58-16.72 7.63-24.03 13.1a40 40 0 0 0-8.98 8.76 51 51 0 0 0-5.98 12.05 80 80 0 0 0-3.99 13.65 2.47 2.47 0 0 0 1.68 2.96 2.4 2.4 0 0 0 2.95-1.68 75 75 0 0 1 3.21-11.47 55 55 0 0 1 5.52-11.96c4.3-6.72 11.86-11.18 18.7-14.88a160 160 0 0 1 13.35-6.38 2.4 2.4 0 0 0 .86-3.29 2.47 2.47 0 0 0-3.29-.86m124.51 89.49c.06-9-.38-18.02-1.03-27a224 224 0 0 0-3.14-27.12c-1.95-9.93-8-18.57-15.6-25.02a59 59 0 0 0-5.53-4.21c-1.92-1.28-4-2.3-6.02-3.4a303 303 0 0 0-12.45-6.46q-3.71-1.79-7.5-3.41-2.14-.93-4.31-1.82l-2.34-.94c-.1-.04-.96-.46-.55-.2l-.11-.1c-2.07-1.38-4-3.03-5.99-4.53a2.4 2.4 0 0 0-3.28.86 2.46 2.46 0 0 0 .86 3.28l5.46 4.15a20 20 0 0 0 4.67 2.12q3.51 1.44 6.96 3 6.14 2.83 12.09 6.01c4.01 2.13 8.19 4.12 11.86 6.82 7.52 5.55 13.58 12.75 16.33 21.82a74 74 0 0 1 2.2 12.37q.84 6.92 1.37 13.88a343 343 0 0 1 1.25 29.9c-.02 3.09 4.78 3.1 4.8 0m-19.81 40.23c.7 11.7 1.56 23.4 2.05 35.1.12 3.09 4.92 3.1 4.8 0-.49-11.7-1.35-23.4-2.05-35.1-.19-3.07-5-3.1-4.8 0" class="d"/><path d="M176.16 280.54c-14.94.48-29.9.3-44.84.1-15.25-.21-30.48-.7-45.72-1.1-9.18-.25-18.35-.44-27.52-.76-3.1-.1-3.09 4.7 0 4.8 15.36.53 30.72.89 46.09 1.3q24.36.67 48.74.72c7.75.01 15.5-.02 23.25-.26 3.08-.1 3.1-4.9 0-4.8" class="d"/><path d="M55.68 281.18c-.77 7.39-1.6 14.8-3.06 22.08a2.46 2.46 0 0 0 1.68 2.95 2.4 2.4 0 0 0 2.95-1.67c1.54-7.71 2.42-15.55 3.23-23.36a2.4 2.4 0 0 0-2.4-2.4 2.45 2.45 0 0 0-2.4 2.4M169 284.1a92 92 0 0 1 .85 13.27c.05 3.82.04 7.66-.2 11.47a2.4 2.4 0 0 0 4.8 0 150 150 0 0 0 .2-11.82 95 95 0 0 0-1.02-14.2 2.4 2.4 0 0 0-2.95-1.67 2.46 2.46 0 0 0-1.68 2.95m19.1-84.19a199 199 0 0 1-33.85 1c-3.1-.17-3.08 4.63 0 4.8a199 199 0 0 0 33.85-1 2.47 2.47 0 0 0 2.4-2.4 2.4 2.4 0 0 0-2.4-2.4" class="d"/><path d="M78.93 133.3a60 60 0 0 1-8.66-8.77c-.97-1.22-3.29-2.87-2.05-4.35 1.4-1.66 3.1-3.14 4.42-4.5q1.2-1.24 2.36-2.51c.94-1.03.98-1.4 2.2-.6.95.62 12.15 7.87 12.16 7.85-2.52 5-6.47 8.9-10.43 12.89m22.68.84 1.73 2.88a189 189 0 0 0 18.62-15.55c2.61-2.52 5.57-5.2 7.6-8.23 1.35-2.03.25-2.65-1.06-4.23a71 71 0 0 1-4.5-6.08c-8.31 6.46-20.69 14.12-30.55 17.64Z" class="b"/><path d="M80.63 131.61a81 81 0 0 1-8.89-9.05c-.42-.48-1.05-1.04-1.35-1.45.11.15-.29-.41-.24-.4.08 0 .11.36.12.34a2 2 0 0 0-.1.54c.01.01.6-.67.64-.71 1.48-1.59 3.1-3.04 4.59-4.61a18 18 0 0 0 1.87-2.05l.07-.07q.7-.67-1.5.34l-.07-.01q-.26-.08.22.16l.23.15 1.81 1.17 5.93 3.84 2.9 1.87a10 10 0 0 0 1.3.82l-.86-3.28c-2.47 4.81-6.29 8.6-10.06 12.4-2.18 2.2 1.22 5.6 3.4 3.4 4.04-4.08 8.15-8.22 10.8-13.38.54-1.05.38-2.75-.86-3.29a9 9 0 0 1-1.24-.78l-2.95-1.9-6.48-4.2c-.62-.4-1.24-.85-1.9-1.2a3.3 3.3 0 0 0-3.36-.07 13 13 0 0 0-2.38 2.4c-1.62 1.72-3.38 3.3-4.98 5.03a5.4 5.4 0 0 0-1.8 3.21 4.4 4.4 0 0 0 .93 2.95c.65.88 1.45 1.61 2.16 2.45q1.3 1.58 2.68 3.12a61 61 0 0 0 5.98 5.65 2.47 2.47 0 0 0 3.4 0 2.4 2.4 0 0 0 0-3.39" class="d"/><path d="m99.54 135.35 1.73 2.88a2.4 2.4 0 0 0 3.28.86 214 214 0 0 0 20.95-17.69 52 52 0 0 0 4.49-4.75c1.22-1.52 2.7-3.24 2.55-5.32-.14-2-1.88-3.41-3.06-4.88q-1.82-2.27-3.4-4.72a2.45 2.45 0 0 0-3.78-.49 136 136 0 0 1-14.2 9.54 92 92 0 0 1-15.28 7.48 2.43 2.43 0 0 0-1.44 3.52zc1.59 2.64 5.74.23 4.14-2.42l-8.15-13.57-1.44 3.53c11.42-4.13 22.05-10.86 31.61-18.26l-3.77-.48q1.52 2.32 3.24 4.5.8 1.05 1.63 2.06l.75.85q.37.33.2.25.3.57.03-.22c-.21.2-.72 1.07-1.03 1.47q-.88 1.13-1.86 2.16c-1.29 1.37-2.66 2.67-4.02 3.97a195 195 0 0 1-18.74 15.75l3.29.86-1.74-2.87c-1.6-2.65-5.74-.24-4.15 2.42" class="d"/><path d="M88.58 120.44a390 390 0 0 0-1.23 29.5c0 3.1 4.8 3.1 4.8 0 .04-9.87.45-19.65 1.23-29.5a2.4 2.4 0 0 0-2.4-2.4 2.45 2.45 0 0 0-2.4 2.4" class="d"/><path d="M162.7 260.48a109 109 0 0 0-6.57-7.4c-4.41-4.52-8.8-7.52-10.63-6.6a10.7 10.7 0 0 0-3.69 4.11 10.8 10.8 0 0 1-9.71 5.33 7.7 7.7 0 0 0-3.98 1.28 8.5 8.5 0 0 0-3.05 3c-.84 1.7-3.23 7.17-5.21 10.42-.86 1.4-1.83 1.47-3.72 2.2l-4.97 6.14c9.22 8.56 15.02 9.26 24.75 10.3 3.13.33 9.07-1.99 11.78-5.11 6.14-7.09 10.33-14.11 15-22.56" class="b"/><path d="M184.16 204.07a57 57 0 0 1-1.63 16.3 48 48 0 0 1-2.77 7.26 207 207 0 0 1-10.8 21.22 84 84 0 0 1-3.07 4.88l-.77 1.1-.25.34-.25.33.08-.1a19 19 0 0 1-1.3 1.47c-2.16 2.2 1.23 5.6 3.4 3.4a41 41 0 0 0 5.44-7.56 172 172 0 0 0 6.02-10.89q2.75-5.33 5.21-10.8a75 75 0 0 0 3.39-8.34 58 58 0 0 0 2.1-18.61c-.1-3.08-4.9-3.1-4.8 0m-31.42 8.57a27 27 0 0 1-1.14 9.37l-2.17 7.15c-1.6 5.25-3.14 10.54-5.07 15.68a2.4 2.4 0 0 0 1.68 2.95 2.45 2.45 0 0 0 2.95-1.67c1.97-5.25 3.54-10.65 5.16-16.01q1.14-3.66 2.22-7.31a31 31 0 0 0 1.17-10.16c-.15-3.08-4.95-3.1-4.8 0" class="d"/><path d="M109.48 280.66a41 41 0 0 0 12.07 8.13 44 44 0 0 0 11.85 2.59 18 18 0 0 0 5.87-.01 21 21 0 0 0 6.14-2.4c4.25-2.43 7.17-6.81 9.95-10.73a162 162 0 0 0 9.42-15.44c1.5-2.7-2.65-5.13-4.14-2.42-2.38 4.3-4.81 8.57-7.53 12.66a95 95 0 0 1-4.05 5.7 27 27 0 0 1-4.43 5.02 13.6 13.6 0 0 1-9.44 3.02 49 49 0 0 1-10.75-2.01c-4.41-1.5-8.17-4.37-11.56-7.5-2.27-2.09-5.68 1.3-3.4 3.4Z" class="d"/><path d="M164.4 258.78a72 72 0 0 0-10.17-10.75 20 20 0 0 0-5.91-3.74 5.3 5.3 0 0 0-5.67 1.3c-1.76 1.58-2.6 3.85-4.25 5.5a8.4 8.4 0 0 1-4.7 2.35c-1.2.18-2.4.06-3.59.33a10 10 0 0 0-3.51 1.58 12 12 0 0 0-4.13 4.77c-1 2.13-1.98 4.27-3.06 6.36a15 15 0 0 1-1.8 3.19c.13-.14-.19.14-.17.13.27-.2-.31.12-.38.15-.24.1-1.1.37-1.55.55a2.47 2.47 0 0 0-1.67 2.95 2.4 2.4 0 0 0 2.95 1.67c2.08-.77 3.87-1.34 5.14-3.3a51 51 0 0 0 3.04-5.78c.74-1.54 1.39-3.13 2.18-4.64a6.5 6.5 0 0 1 4.6-3.08c1.04-.13 2.1-.07 3.15-.25a13 13 0 0 0 8.11-5.02c.67-.87 1.18-1.84 1.83-2.72a8 8 0 0 1 1.07-1.22c.17-.15.32-.25.51-.4.56-.44-.02.17-.1-.01l-.15.01.39.01c-.1-.02-.47-.1 0 .04a3 3 0 0 1 .67.25 16 16 0 0 1 2.8 1.76 64 64 0 0 1 10.98 11.4 2.4 2.4 0 0 0 3.4 0 2.46 2.46 0 0 0 0-3.4Z" class="d"/><path d="M113.49 279.6a7 7 0 0 1 .27-.8l-.24.58a9 9 0 0 1 1.17-1.96l-.38.49a14 14 0 0 1 2.45-2.42l-.49.37a14 14 0 0 1 1.89-1.23 2.4 2.4 0 0 0 .86-3.28 2.45 2.45 0 0 0-3.28-.86 16 16 0 0 0-4.04 3.11 11.5 11.5 0 0 0-2.84 4.72 2.4 2.4 0 1 0 4.63 1.28" class="d"/></svg>
