<svg xmlns="http://www.w3.org/2000/svg" fill="none" viewBox="0 0 40 41"><g clip-path="url(#clip0_9067_87791)"><path stroke="currentColor" stroke-width="1.5" fill="none" d="M9 1.05h17.04l8.21 7.53V36.3c0 1.8-1.46 3.25-3.25 3.25H9a3.25 3.25 0 0 1-3.25-3.25v-32c0-1.8 1.46-3.25 3.25-3.25Z"/><mask id="path-2-inside-1_9067_87791" fill="currentColor"><path d="M25 1.3h8.5v8.5H26a1 1 0 0 1-1-1z"/></mask><path fill="currentColor" d="M25 1.3h8.5zm8.5 9.5H26a2 2 0 0 1-2-2h9.5zm-7.5 0a2 2 0 0 1-2-2V1.3h2zm7.5-9.5v8.5z" mask="url(#path-2-inside-1_9067_87791)"/><rect width="26" height="13" x="1" y="20.297" fill="none" stroke="currentColor" rx="2"/><path fill="currentColor" d="M11.83 23.28v7.02h-1.7v-4.21l-1.58 4.2H7.17l-1.57-4.2v4.22H3.9v-7.02h2l1.97 4.86 1.95-4.86zm6.58 2.26q0 .6-.28 1.12-.27.5-.86.8-.57.32-1.44.32h-1.06v2.52h-1.7v-7.02h2.76q.84 0 1.42.29a2 2 0 0 1 .87.8q.3.51.3 1.17m-2.7.88q.48 0 .72-.23a1 1 0 0 0 .24-.65q0-.42-.24-.65t-.73-.23h-.93v1.76zm3.48-1.36a2.2 2.2 0 0 1 .7-1.65 2.6 2.6 0 0 1 1.8-.58q.75 0 1.27.26a1.9 1.9 0 0 1 1.1 1.72q0 .66-.34 1.08-.32.4-.77.56v.04q.57.18.9.63t.33 1.13q0 .62-.29 1.1-.27.47-.83.74-.54.27-1.29.27-1.2 0-1.92-.6-.7-.59-.75-1.77h1.66q.01.44.25.7t.7.25q.39 0 .6-.22a.8.8 0 0 0 .22-.6q0-.48-.3-.7t-.98-.21h-.32v-1.4h.32q.52 0 .82-.16.33-.18.32-.63a.8.8 0 0 0-.2-.56.7.7 0 0 0-.55-.2q-.37 0-.57.23-.18.22-.2.57z"/></g><defs><clipPath id="clip0_9067_87791"><path fill="currentColor" d="M0 .3h40v40H0z"/></clipPath></defs></svg>
