<svg xmlns="http://www.w3.org/2000/svg" fill="none" viewBox="0 0 24 24"><path stroke="currentColor" stroke-linecap="round" stroke-linejoin="round" stroke-width="1.5" d="M18 10.13a8.6 8.6 0 0 0-5-1.56V6.23c0-.96 0-1.44-.3-1.57-.29-.14-.65.18-1.36.82L7.36 9c-1.57 1.4-2.35 2.1-2.35 2.99s.78 1.6 2.35 2.99l3.98 3.53c.71.64 1.07.95 1.36.82s.3-.61.3-1.57v-2.34c3.6 0 7.5 1.71 9 4.57 0-2.43-.38-4.38-1-5.93"/><path stroke="currentColor" stroke-linecap="round" stroke-width="1.5" d="M8.46 4.5 3.25 9.34a3.9 3.9 0 0 0 .12 5.83l5.1 4.33"/></svg>
