<svg xmlns="http://www.w3.org/2000/svg" viewBox="0 0 32 32"><defs><style>.cls-2{fill:#17061c}</style></defs><g id="speaker"><path id="bg" d="M-.09.17h32v32h-32z" style="fill:none"/><path d="M16.58 30.23h-2a8 8 0 0 1-7.91-6.8L5.08 12.7A8 8 0 0 1 9.7 4.21l3.06-1.38a8 8 0 0 1 6.59 0l2.78 1.25A8 8 0 0 1 26.67 13l-2.26 10.86a8 8 0 0 1-7.83 6.37m-.53-26.11a6 6 0 0 0-2.47.53L10.52 6a6 6 0 0 0-3.46 6.4l1.63 10.73a6 6 0 0 0 5.93 5.1h2a6 6 0 0 0 5.87-4.78l2.22-10.85a6 6 0 0 0-3.41-6.69l-2.78-1.26a6 6 0 0 0-2.47-.53" class="cls-2"/><path d="M15.91 25.63a3.23 3.23 0 1 1 3.24-3.23 3.23 3.23 0 0 1-3.24 3.23m0-4.46a1.23 1.23 0 1 0 1.24 1.23 1.23 1.23 0 0 0-1.24-1.23" class="cls-2"/><circle cx="15.91" cy="12.13" r="4.37" style="fill:#ff4a64"/><path d="M15.91 17.5a5.37 5.37 0 1 1 5.37-5.37 5.4 5.4 0 0 1-5.37 5.37m0-8.74a3.37 3.37 0 1 0 3.37 3.37 3.4 3.4 0 0 0-3.37-3.37" class="cls-2"/></g></svg>
