<svg xmlns="http://www.w3.org/2000/svg" fill="currentColor" style="fill-rule:evenodd;clip-rule:evenodd;stroke-linejoin:round;stroke-miterlimit:2" viewBox="0 0 1069 1069"><path id="Speaker-alt1" d="M1.41.6h1066.67v1066.66H1.41z" style="fill:none"/><path d="m836.3 880.06-58.92-58.92a31.27 31.27 0 0 0-44.2 0 31.26 31.26 0 0 0 0 44.19l58.93 58.93a31.26 31.26 0 0 0 44.2-44.2m-558.92 44.2 58.92-58.93c12.2-12.2 12.2-32 0-44.2a31.27 31.27 0 0 0-44.19 0l-58.93 58.93a31.26 31.26 0 0 0 0 44.2c12.2 12.2 32 12.2 44.2 0" style="fill-opacity:.5"/><path d="M904.77 280.4c0-109.3-88.61-197.9-197.92-197.9H362.64c-109.3 0-197.92 88.6-197.92 197.9v507.04c0 109.3 88.61 197.92 197.92 197.92h344.2c109.31 0 197.93-88.61 197.93-197.92zm-62.5 0v507.04c0 74.8-60.63 135.42-135.42 135.42H362.64c-74.79 0-135.42-60.63-135.42-135.42V280.41c0-74.8 60.63-135.42 135.42-135.42h344.2c74.8 0 135.42 60.63 135.43 135.42M534.74 858.68a33.1 33.1 0 0 1-33.07-33.08 33.1 33.1 0 0 1 33.07-33.07 33.1 33.1 0 0 1 33.08 33.07 33.1 33.1 0 0 1-33.08 33.07M503.5 732v10.26a31.26 31.26 0 0 0 62.5 0V732c136.48-15.53 242.65-131.53 242.65-272.13 0-151.16-122.73-273.89-273.9-273.89s-273.89 122.73-273.89 273.9c0 140.59 106.17 256.59 242.64 272.12m31.25-483.52c116.67 0 211.4 94.72 211.4 211.4 0 116.66-94.73 211.38-211.4 211.38s-211.39-94.72-211.39-211.39 94.72-211.39 211.4-211.39m0 98.73c-62.18 0-112.66 50.48-112.66 112.66s50.48 112.66 112.66 112.66 112.67-50.48 112.67-112.66-50.49-112.66-112.67-112.66m0 62.5a50.2 50.2 0 0 1 50.17 50.16 50.2 50.2 0 0 1-50.17 50.16 50.2 50.2 0 0 1-50.16-50.16 50.2 50.2 0 0 1 50.16-50.16"/></svg>
