<svg xmlns="http://www.w3.org/2000/svg" fill="none" viewBox="0 0 24 24"><path stroke="currentColor" stroke-linecap="round" stroke-linejoin="round" stroke-width="1.5" d="M21 8.65v5.7q0 .51-.03.98a4 4 0 1 0-5.63 5.64q-.47.03-.99.03h-5.7C3.9 21 2 19.1 2 14.35v-5.7C2 3.9 3.9 2 8.65 2h5.7C19.1 2 21 3.9 21 8.65"/><path stroke="currentColor" stroke-linecap="round" stroke-linejoin="round" stroke-width="1.5" d="M6.72 14.42a1.45 1.45 0 1 0 0-2.9 1.45 1.45 0 0 0 0 2.9M13.48 12V6.34c0-1.21-.76-1.37-1.52-1.16l-2.89.79c-.52.14-.89.56-.89 1.16v5.84"/><path stroke="currentColor" stroke-linecap="round" stroke-linejoin="round" stroke-width="1.5" d="M12.03 13.45a1.45 1.45 0 1 0 0-2.9 1.45 1.45 0 0 0 0 2.9M8.17 8.83l5.31-1.45"/><path stroke="currentColor" stroke-linecap="round" stroke-linejoin="round" stroke-miterlimit="10" stroke-width="1.5" d="M22 18q-.01 1.14-.58 2.06a3.97 3.97 0 0 1-6.84 0A4 4 0 1 1 22 18m-2.51-.02h-2.98M18 16.52v2.99"/></svg>
