<svg xmlns="http://www.w3.org/2000/svg" fill="currentColor" viewBox="0 0 32 32"><path d="M31 22.04V1.15a1 1 0 0 0-.02-.34 1 1 0 0 0-1.49-.68L10.81 5a1 1 0 0 0-.69.64 1 1 0 0 0-.12.48V24a6.3 6.3 0 0 0-3.5-1.02c-3.05 0-5.52 2.02-5.52 4.5S3.45 32 6.5 32s5.52-2.02 5.52-4.51l-.02-.38V6.75l17-4.42V19a6.3 6.3 0 0 0-3.5-1.02c-3.05 0-5.52 2.02-5.52 4.5 0 2.5 2.47 4.52 5.52 4.52s5.52-2.02 5.52-4.51q0-.23-.03-.46zM6.51 30C4.44 30 3 28.68 3 27.5S4.44 25 6.52 25c1.85 0 3.2 1.04 3.48 2.1v.02q0 .15.04.29l.01.09c0 1.18-1.45 2.5-3.53 2.5zm18.97-5c-2.06 0-3.5-1.32-3.5-2.5s1.44-2.5 3.5-2.5 3.5 1.32 3.5 2.5-1.44 2.5-3.5 2.5"/></svg>
