<svg xmlns="http://www.w3.org/2000/svg" fill="currentColor" style="fill-rule:evenodd;clip-rule:evenodd;stroke-linejoin:round;stroke-miterlimit:2" viewBox="0 0 1069 1069"><path id="Radio-alt1" d="M.31.25h1066.67v1066.67H.31z" style="fill:none"/><path d="M604.99 583c0-103.09-83.58-186.66-186.67-186.66h-.09c-103.1 0-186.67 83.57-186.67 186.66v3.5c0 103.09 83.58 186.66 186.67 186.66h.09c103.1 0 186.67-83.57 186.67-186.66zm-62.5 0v3.5c0 68.57-55.6 124.16-124.17 124.16h-.09c-68.58 0-124.17-55.6-124.17-124.16V583c0-68.57 55.6-124.16 124.17-124.16h.09c68.58 0 124.16 55.59 124.17 124.16" style="fill-opacity:.5"/><path d="M331.23 234.87h-16.05A197.9 197.9 0 0 0 117.26 432.8v329.95a197.9 197.9 0 0 0 197.92 197.92h436.94a197.9 197.9 0 0 0 197.91-197.92V432.8a197.9 197.9 0 0 0-197.91-197.92h-16.05v-11.54c0-64.53-52.31-116.84-116.84-116.84H448.06c-64.53 0-116.83 52.31-116.83 116.84zm420.89 62.5H315.18A135.4 135.4 0 0 0 179.76 432.8v329.95a135.4 135.4 0 0 0 135.42 135.42h436.94a135.4 135.4 0 0 0 135.41-135.42V432.8a135.4 135.4 0 0 0-135.41-135.42m-68.8 392.46h58.66a31.26 31.26 0 0 0 0-62.5h-58.65a31.26 31.26 0 0 0 0 62.5m0-125h117.31a31.26 31.26 0 0 0 0-62.5h-117.3a31.26 31.26 0 0 0 0 62.5m-289.6-329.96v-11.54c0-30 24.33-54.34 54.34-54.34h171.17a54.34 54.34 0 0 1 54.34 54.34v11.54z"/></svg>
