<svg xmlns="http://www.w3.org/2000/svg" fill="none" viewBox="0 0 24 24"><path stroke="currentColor" stroke-linecap="round" stroke-linejoin="round" stroke-width="1.5" d="M5.48 18.49v-2.92c0-.97.76-1.84 1.84-1.84.97 0 1.84.76 1.84 1.84v2.81a3.6 3.6 0 0 1-3.57 3.57 3.6 3.6 0 0 1-3.57-3.57v-6.16a9.9 9.9 0 0 1 9.95-10.17c5.62 0 10.05 4.55 10.05 10.06v6.16a3.6 3.6 0 0 1-3.57 3.57 3.6 3.6 0 0 1-3.57-3.57v-2.81c0-.97.76-1.84 1.84-1.84.97 0 1.84.76 1.84 1.84v3.03"/><path stroke="currentColor" stroke-linecap="round" stroke-linejoin="round" stroke-width="1.5" d="M15.53 9.12h-.81a.6.6 0 0 0-.53.32l-.75 1.5a.3.3 0 0 1-.53 0l-1.84-3.67c-.11-.21-.41-.22-.52-.01l-.84 1.55q-.17.3-.52.31h-.73"/></svg>
