<svg xmlns="http://www.w3.org/2000/svg" fill="currentColor" viewBox="0 0 32 32"><path d="M24.78 23.02c-3.17 0-4.97-1.48-6.16-2.47l-1.15-.99a9 9 0 0 0-1.42-1.12h-.12l-.14.02c-.16.06-.72.54-1.17.93q-.62.55-1.41 1.17l-.1.08c-1.36 1.06-3.05 2.38-6.03 2.38-2.22 0-4.4-1-5.7-2.63-.88-1.08-1.8-2.97-1.22-5.8a1 1 0 0 1 .64-.73 1 1 0 0 1 .96.17c.02.01.7.54 1.84.54q.88 0 1.78-.4c1.03-.47 1.77-1.76 2.55-2.63 1.07-1.2 2.28-2.55 4.27-2.56q2.07 0 3.73 1.51Q17.59 9 19.61 9c2.03.01 3.27 1.36 4.36 2.56.79.87 1.54 2.16 2.58 2.62q.9.4 1.8.4c1.18 0 1.91-.53 1.94-.56a1 1 0 0 1 .96-.13 1 1 0 0 1 .61.74c.54 2.8-.4 4.67-1.28 5.75a7.6 7.6 0 0 1-5.8 2.65zm-8.82-6.59.4.04c.72.1 1.39.69 2.4 1.58q.5.45 1.12.95c1.08.9 2.44 2.02 4.9 2.02a5.6 5.6 0 0 0 4.27-1.92 4.4 4.4 0 0 0 .99-2.78 6 6 0 0 1-1.7.26q-1.3 0-2.6-.57c-1.4-.63-2.37-2.17-3.23-3.1-1.08-1.19-1.8-1.91-2.88-1.92-1.44 0-2.37.9-2.95 1.59a.98.98 0 0 1-1.5 0c-.58-.68-1.52-1.6-2.94-1.6-1.1.01-1.8.73-2.84 1.9-.85.95-1.8 2.49-3.23 3.12q-1.28.57-2.57.57-.96-.01-1.64-.25 0 1.64.94 2.82a5.4 5.4 0 0 0 4.17 1.88c2.32 0 3.6-1 4.83-1.96l.1-.08q.75-.6 1.33-1.1c.9-.77 1.48-1.28 2.12-1.39 0 0 .3-.05.5-.05z"/></svg>
