<svg xmlns="http://www.w3.org/2000/svg" fill="currentColor" viewBox="0 0 32 32"><path d="M14.98 21.64h-4.57a.76.76 0 0 0-.75.75v3.9c0 .41.34.75.75.75h4.57c.41 0 .75-.34.75-.75v-3.9a.76.76 0 0 0-.75-.75m-.75 3.9h-3.07v-2.4h3.07zm7.37-3.9h-4.57a.76.76 0 0 0-.75.75v3.9c0 .41.34.75.75.75h4.57c.41 0 .75-.34.75-.75v-3.9a.76.76 0 0 0-.75-.75m-.75 3.9h-3.07v-2.4h3.07z"/><path d="M4.23 26.4q.17 0 .34-.08a3.4 3.4 0 0 0 1.69-2.45c.14-.68.14-1.35.14-2v-.56a4 4 0 0 1 .41-1.96q.24-.39.6-.57v11.39c0 .41.34.75.75.75h15.65c.41 0 .75-.34.75-.75V18.78q.36.18.6.57c.35.58.4 1.35.41 1.97v.56c0 .65 0 1.32.14 2a3.4 3.4 0 0 0 1.69 2.45.75.75 0 0 0 .68-1.34c-.43-.22-.76-.75-.9-1.42-.11-.53-.11-1.09-.11-1.69v-.59c-.01-.8-.1-1.82-.63-2.71a3 3 0 0 0-1.89-1.37v-4.79q0-.31-.22-.53l-3.74-3.74V6.91l.2-.13a.7.7 0 0 0 .33-.62 5.16 5.16 0 0 0-10.3 0q0 .4.33.62l.2.13v1.24l-3.74 3.74a.8.8 0 0 0-.22.53v4.79c-.74.15-1.45.64-1.89 1.37a5.5 5.5 0 0 0-.63 2.71v.59c0 .6 0 1.16-.11 1.69-.14.67-.48 1.2-.9 1.42a.75.75 0 0 0 .34 1.42ZM16 2.52a3.66 3.66 0 0 1 3.63 3.26l-.18.12a.7.7 0 0 0-.33.62v1.2h-6.23v-1.2a.7.7 0 0 0-.33-.62l-.18-.12a3.65 3.65 0 0 1 3.63-3.26ZM8.92 12.74l3.52-3.52h7.11l3.52 3.52v16.68H8.92z"/></svg>
