<svg xmlns="http://www.w3.org/2000/svg" fill="currentColor" style="fill-rule:evenodd;clip-rule:evenodd;stroke-linejoin:round;stroke-miterlimit:2" viewBox="0 0 1069 1069"><path id="Radar" d="M1.4 1.67h1066.67v1066.67H1.4z" style="fill:none"/><path d="M534.73 87.08C287.52 87.08 86.81 287.78 86.81 535c0 247.21 200.7 447.92 447.92 447.92 247.21 0 447.92-200.71 447.92-447.92S781.95 87.08 534.73 87.08m0 62.5c212.72 0 385.42 172.7 385.42 385.42s-172.7 385.42-385.42 385.42S149.31 747.71 149.31 535s172.7-385.42 385.42-385.42m116.3 456.62c-23.86 40.16-67.68 67.12-117.75 67.12-75.54 0-136.87-61.33-136.87-136.87s61.33-136.87 136.87-136.87 136.87 61.33 136.87 136.87a31.26 31.26 0 0 0 62.5 0c0-110.03-89.34-199.37-199.37-199.37S333.9 426.42 333.9 536.45c0 110.04 89.33 199.37 199.37 199.37 72.9 0 136.73-39.2 171.49-97.68a31.27 31.27 0 0 0-10.9-42.83 31.26 31.26 0 0 0-42.83 10.9" style="fill-opacity:.5"/><path d="M920.15 535c0 212.72-172.7 385.42-385.42 385.42S149.31 747.71 149.31 535s172.7-385.42 385.42-385.42c106.36 0 202.71 43.18 272.47 112.95a31.26 31.26 0 0 0 44.2-44.2C770.32 137.25 658.34 87.08 534.73 87.08 287.52 87.08 86.81 287.78 86.81 535c0 247.21 200.7 447.92 447.92 447.92 247.21 0 447.92-200.71 447.92-447.92a31.26 31.26 0 0 0-62.5 0M774.8 752.88q5.56.86 11.37.87a74.4 74.4 0 0 0 74.37-74.37 74.4 74.4 0 0 0-74.37-74.37 74 74 0 0 0-45.57 15.62l-133.86-72.6q.9-5.66.9-11.58a74.4 74.4 0 0 0-73.89-74.37h-.48a74.4 74.4 0 0 0-74.37 74.37 74.4 74.4 0 0 0 74.37 74.37h.48a74 74 0 0 0 37.93-10.7l140.2 76.03a74 74 0 0 0 10.47 41.4c-47.68 49.76-114.79 80.77-189.08 80.77-144.53 0-261.87-117.34-261.87-261.87s117.34-261.87 261.87-261.87 261.87 117.34 261.87 261.87a31.26 31.26 0 0 0 62.5 0c0-179.02-145.35-324.37-324.37-324.37S208.9 357.43 208.9 536.45s145.35 324.37 324.37 324.37c95.9 0 182.13-41.7 241.53-107.94m-241.53-228.3a11.87 11.87 0 0 0 0 23.74h.3a11.85 11.85 0 0 0 11.57-11.87c0-6.45-5.16-11.7-11.56-11.86z"/></svg>
