<svg xmlns="http://www.w3.org/2000/svg" viewBox="0 -2.12 351.842 351.842"><defs><style>.a{fill:#febe69}.b{fill:#fff}.c{fill:#211715}.d{fill:#f2635f}</style></defs><path d="M225.35 176.59a75 75 0 0 1 10.57-5.8c.26 3.91 2.2 7.68 4.29 11.08a6 6 0 0 0 1.1 1.33l-1.92-.3a100 100 0 0 0-19.04-.9.84.84 0 0 1-.56-1.5 85 85 0 0 1 4.64-3.32z" class="a"/><path d="M337.07 210.5a9 9 0 0 0 .08-1.33 3.2 3.2 0 0 0-1.37-2.88.4.4 0 0 0-.27-.05s-.18-.08-.47-.19a6 6 0 0 0 1.64-2.36 23 23 0 0 0 1.42-3.8 9 9 0 0 0 .36-4.67 3.2 3.2 0 0 0-1.1-1.78 5.3 5.3 0 0 0-3.75-.27s-.56.13-1.4.33c3.7-3.6 5.27-8.15 4.34-9.44a3.5 3.5 0 0 0-3.84-1.39c-10.33 1.64-23.37 8.15-31.12 15.17-3.66 3.3-6.87 7.12-10.84 10.05a21 21 0 0 1-8.6 3.94h-.07a13 13 0 0 1-5.14-.04l-3.99-.86a36.3 36.3 0 0 1-1.8-21.48c.77-3.57 2.26-7.62 3.33-11.12 2.63-8.67.12-19.36-7.64-24.03s-19.88-2.43-24.85 2.63a17.6 17.6 0 0 0-5.93 10.88c-.85 4.98 1.53 9.8 4.15 14.07a7 7 0 0 0 2.04 2.07 16 16 0 0 1 4.39 3.44c6.24 7.45 4.1 19.33 2.95 24.07-.42 1.73-.93 3.12-1.8 6.27l-.07.25-1.7 8.62c-1.46 7.4-1.53 16.22.4 23.3 2.54 9.38 9.16 20.62 18.83 22.1 15.78 9.2 37.9 8.43 53.07-3.41l16.86-28.64c-.83-4.87-1.96-7.83-6.02-11.34 3.93-2.44 5.96-6.32 6.83-11.6a16 16 0 0 0-.67-2.17 9.5 9.5 0 0 0 1.75-4.35" class="b"/><path d="M347.75 232.82a14 14 0 0 1-7.13 2.69 9 9 0 0 1-5.08-1.4l-2.02.73c-5.33 1.56-5.63 3.62-7.44 6.56-1.78 2.89-1.83 6.06-3.35 8.14a9 9 0 0 1-2.25 2.2c-4.29 2.83-9.65 12.66-3.82 15.75 12.5.16 16-4.47 20.39-8.6 3.72-3.5 6.27-8.46 8.09-12.5a66 66 0 0 0 4.74-15.04q-1.04.76-2.13 1.47m-77.4-37.12a38 38 0 0 1 .38-3.93 18 18 0 0 0-.11-2.62c-.52-1.7-2.7-2.88-4.93-3.76-3.94-1.55-7.62-3.93-8.58-8.3a18 18 0 0 1 .12-7.12 21 21 0 0 1 1.62-5.38 6 6 0 0 0 .86-3.32v-9.34c-6.74-.86-14.12 1.32-17.72 5a17.6 17.6 0 0 0-5.93 10.87c-.85 4.99 1.52 9.82 4.15 14.07a7 7 0 0 0 2.05 2.1 16 16 0 0 1 4.38 3.42c4.35 5.2 4.63 12.54 4 18.12a24 24 0 0 0 9.9 5.4 63 63 0 0 0 13.35 1.98 34 34 0 0 1-3.54-17.19" class="c"/><path d="m268.47 156.18.22-.58a16 16 0 0 0-1.85-1.3c-5.18-3.12-12.31-3.16-17.96-1.33a10.4 10.4 0 0 0 6.96 8.86 11 11 0 0 0 4.77.25 10 10 0 0 0 7.86-5.9" class="d"/><path d="M276.4 213.71c5.83 1.15 11.47-1.1 16.06-4.62 4.4-3.38 7.9-7.73 12.19-11.25a65 65 0 0 1 13.48-8.33 58 58 0 0 1 14.42-4.8 3.4 3.4 0 0 1 1.67-.05c.3.1.48.41.67.52-.15-.09-.12-.16-.08-.28a4 4 0 0 0-.02.58c.02-.12-.15.64-.22.86a15 15 0 0 1-4.44 6.36c-1.91 1.73.92 4.55 2.83 2.83a19.5 19.5 0 0 0 4.87-6.58c.73-1.67 1.5-3.92.57-5.67-1.32-2.5-4.04-2.9-6.57-2.48a49 49 0 0 0-7.87 2.04 75 75 0 0 0-15.77 7.57 80 80 0 0 0-13.31 11.18c-4.53 4.47-10.52 9.62-17.41 8.27-2.51-.5-3.6 3.35-1.06 3.85m57.66 2.76q-.21 1.36-.58 2.68-.18.67-.4 1.32l-.2.55c-.04.1-.27.66-.08.22a15 15 0 0 1-1.1 2.12q-.32.5-.67.97l.08-.1-.2.24-.41.46q-.37.4-.78.77-.22.22-.47.4l-.24.2q.29-.22.02-.02a17 17 0 0 1-2.1 1.28 12 12 0 0 1-2.19.87 25 25 0 0 1-2.9.71 2 2 0 0 0-1.4 2.47 2.04 2.04 0 0 0 2.46 1.4 18.7 18.7 0 0 0 10.42-5.25 19.6 19.6 0 0 0 4.6-10.23 2.06 2.06 0 0 0-1.4-2.46 2 2 0 0 0-2.47 1.4Z" class="c"/><path d="M333.84 218.9a11.6 11.6 0 0 0 4.97-6.89 10 10 0 0 0 .15-4.4c-.35-1.58-1.66-3.44-3.45-3.37a2 2 0 0 0 0 4l-.61-.16q.22.15.02.01c-.16-.21.16.1-.06-.06q-.12-.16-.03-.03l.12.18c.18.27-.07-.05-.02-.09-.01.01.17.59.18.65s.04.39.03.1 0 .12 0 .19a10 10 0 0 1-.03 1.06c-.01.21-.04.32 0 .04a10 10 0 0 1-.34 1.46l-.23.62c.15-.39.01-.02-.03.06l-.15.3a13 13 0 0 1-.78 1.27c-.14.2.2-.23-.05.05l-.22.26q-.25.27-.52.53l-.56.5c.13-.12.17-.13 0-.02l-.41.28a2 2 0 0 0 2.02 3.45Z" class="c"/><path d="M335.9 207.87c1.53-.85 2.31-2.65 2.97-4.19a22 22 0 0 0 1.66-5.62c.28-2.03.01-4.45-1.6-5.92-1.56-1.41-3.93-1.3-5.85-.9a2 2 0 1 0 1.06 3.86 4 4 0 0 1 .9-.12h.44c-.01 0 .57.04.34.01s.21.05.26.06l.16.04q.27.09.03 0c-.26-.3.25.34-.17-.12q.15.13.27.28c-.2-.26.03.1.06.16.08.17-.02-.17.05.16l.13.53c.07.37 0-.38.03.28a6 6 0 0 1-.2 1.94 26 26 0 0 1-.9 2.98l-.17.46-.08.2a18 18 0 0 1-.8 1.62l-.23.4c-.04.06-.29.4-.06.12l-.23.26c-.3.35.27-.14-.09.06a2 2 0 0 0 2.02 3.45m-18.23 57.89c-2.26-1.27-1.7-4.02-.78-6.2a17 17 0 0 1 5.48-6.75c3.47-2.8 3.59-7.24 5.72-10.87a18 18 0 0 1 1.88-3 9 9 0 0 1 4.08-2.17c2.46-.74 1.41-4.6-1.06-3.85-2.94.89-5.45 2.24-7.13 4.88a37 37 0 0 0-2.05 3.59c-.87 1.78-1.28 3.68-1.97 5.53a7.4 7.4 0 0 1-2.84 3.43 15 15 0 0 0-2.85 2.79 18 18 0 0 0-3.86 7.92c-.55 3.25.34 6.46 3.36 8.15 2.25 1.26 4.27-2.2 2.02-3.45" class="c"/><path d="M247.6 167.16a3.33 3.33 0 0 0-3.4 3.37 3.3 3.3 0 0 0 3.4 3.45 3.24 3.24 0 0 0 3.4-3.45 3.33 3.33 0 0 0-3.4-3.37" class="b"/><path d="M247.7 156.42c1.93 4.57 5.89 7.79 11 7.8a12.6 12.6 0 0 0 10.81-5.68c1.39-2.18-2.07-4.19-3.45-2.02a8.3 8.3 0 0 1-7.05 3.7 7.8 7.8 0 0 1-7.45-4.87 2.07 2.07 0 0 0-2.46-1.4 2 2 0 0 0-1.4 2.46Zm-4.6 69.65c-2.58 13.37-.98 28.02 7.5 39.08a25 25 0 0 0 7.8 6.94c2.26 1.24 4.28-2.22 2.02-3.45-6.3-3.46-10.22-10.45-12.41-17.07-2.58-7.8-2.6-16.42-1.06-24.44.48-2.52-3.37-3.6-3.86-1.07m21.25 47.73a51.1 51.1 0 0 0 43.9 2.82 49 49 0 0 0 11.48-6.62 2 2 0 0 0 0-2.83 2.05 2.05 0 0 0-2.82 0c-11.09 8.57-26.3 11.07-39.74 7.57a44 44 0 0 1-10.8-4.4c-2.23-1.27-4.25 2.18-2.02 3.46m19.13-53.44c6.16 4.68 14.65 4.92 22.07 4.5 3.9-.23 7.74-.53 11.61.24a23 23 0 0 1 11.16 5.44 14 14 0 0 1 3.46 4.5 22 22 0 0 1 1.47 5.44 2 2 0 0 0 2.46 1.4 2.05 2.05 0 0 0 1.4-2.46 20 20 0 0 0-4.21-9.92 25 25 0 0 0-10.78-7.2 34 34 0 0 0-13.3-1.67 83 83 0 0 1-11.08.25c-4.35-.3-8.72-1.3-12.24-3.98a2 2 0 0 0-2.74.72 2.05 2.05 0 0 0 .72 2.74m-15.38 27.71a20 20 0 0 0 4.7 8.86 18 18 0 0 0 9.4 4.98c8.09 1.65 16-1.18 23.02-5.04 2.26-1.24.24-4.7-2.02-3.45-5.88 3.23-12.68 5.95-19.51 4.72a14.5 14.5 0 0 1-7.82-3.79 16 16 0 0 1-3.91-7.34c-.65-2.49-4.51-1.44-3.86 1.06m-28.44-63.04c7.15 2.44 9.37 10.02 9.23 16.9-.12 5.87-1.96 11.23-3.46 16.85-.67 2.49 3.19 3.55 3.85 1.06 1.3-4.83 2.84-9.47 3.38-14.47.64-5.92.13-12.47-3.23-17.56a17 17 0 0 0-8.7-6.63c-2.44-.84-3.5 3.03-1.07 3.85" class="c"/><path d="M278.94 216.08a16.3 16.3 0 0 1-4.67-7.2 34 34 0 0 1-1.96-11.91 45 45 0 0 1 2.6-13.45c1.24-3.83 2.5-7.54 2.57-11.6.15-7.15-2.7-14.48-8.64-18.7s-14.5-4.34-21.2-1.93a20.6 20.6 0 0 0-13.73 18.43c-.1 2.58 3.9 2.57 4 0a16.4 16.4 0 0 1 10.48-14.46c5.9-2.22 13.49-2.37 18.7 1.6 5.13 3.92 6.93 10.94 6.26 17.11-.4 3.82-2.03 7.46-3.12 11.1a43 43 0 0 0-1.92 12.77 36 36 0 0 0 2.36 12.76c1.2 3.06 2.84 6.2 5.45 8.3a2.06 2.06 0 0 0 2.82 0 2 2 0 0 0 0-2.82" class="c"/><path d="M239.92 180.98a99 99 0 0 0-9.96-.98q-2.57-.12-5.13-.12-1.15 0-2.3.03l-.95.03a4 4 0 0 0-1.23.06q1.78.58.67 2.05l.34-.25.83-.62 1.76-1.25q2.05-1.43 4.18-2.74a71 71 0 0 1 8.8-4.67 2 2 0 0 0 .7-2.74 2.05 2.05 0 0 0-2.73-.71 78 78 0 0 0-14.97 8.84c-1.16.85-2.47 1.66-2.47 3.27a2.9 2.9 0 0 0 2.89 2.82c1.43.03 2.88-.11 4.31-.12q2.22 0 4.43.08a90 90 0 0 1 9.76.88 2.07 2.07 0 0 0 2.46-1.4 2 2 0 0 0-1.4-2.46Zm87.19 48.5c3.2 2.87 6.23 6.6 10.59 7.7 4.94 1.22 9.3-1.33 13.19-4.1l-2.94-2.26a61 61 0 0 1-8.85 22.55 39 39 0 0 1-6 6.52 20 20 0 0 1-5.39 3.77c-3.43 1.57-7.33 1.85-11.05 1.82-2.57-.02-2.58 3.98 0 4 6.76.06 13.07-1.34 18.26-5.84a46 46 0 0 0 6.12-6.2 49 49 0 0 0 6-10.46 71 71 0 0 0 4.77-15.1c.3-1.54-1.4-3.37-2.94-2.26-3.01 2.15-6.55 4.73-10.45 3.6-3.42-1-5.93-4.28-8.49-6.57-1.9-1.72-4.74 1.1-2.82 2.83" class="c"/><path d="M233.89 170.05a17.8 17.8 0 0 0 7.4 14.13 2 2 0 0 0 2.73-.72 2.05 2.05 0 0 0-.71-2.73c-.1-.07-.59-.45-.32-.23l-.62-.52a14 14 0 0 1-1.1-1.1l-.48-.57c-.09-.1-.16-.2-.03-.03l-.28-.39a14.3 14.3 0 0 1-2.6-7.85 2 2 0 0 0-4 0Zm39.56 174.57c1.72-1.06 3.43-2.15 5.2-3.13q1.16-.64 2.36-1.22l1.32-.6.8-.35c-.2.09-.11.05.03 0l.54-.23a2.05 2.05 0 0 0 1.4-2.46 2 2 0 0 0-2.46-1.4 58 58 0 0 0-5.89 2.74c-1.81 1-3.56 2.1-5.32 3.2a2 2 0 1 0 2.02 3.44Z" class="c"/><path d="M282.54 338.99a84 84 0 0 1 4.88 3.37 2 2 0 0 0 1.55.2 2 2 0 0 0 1.2-.92 2 2 0 0 0 .2-1.54l-.2-.48a2 2 0 0 0-.72-.72 85 85 0 0 0-4.89-3.37 2 2 0 0 0-2.73.72 2.04 2.04 0 0 0 .71 2.73Z" class="c"/><path d="M280.8 337.03a31 31 0 0 0-2.54 8.05 2 2 0 1 0 3.86 1.07 41 41 0 0 1 .96-4.1q.27-.87.59-1.7a2 2 0 0 1 .16-.4c-.03.04-.19.43-.08.18l.09-.2.42-.9a2 2 0 0 0-3.45-2.01Zm-6.6-59.98c2.34 6.83 4.57 13.7 6.6 20.64.72 2.46 4.58 1.41 3.86-1.07a477 477 0 0 0-6.6-20.64c-.83-2.42-4.7-1.38-3.86 1.07" class="c"/><path d="M281.93 303.52c-.12 10.72-.51 21.45-.95 32.16-.1 2.57 3.9 2.57 4 0 .44-10.71.83-21.44.95-32.16.03-2.57-3.97-2.57-4 0m5.44-23.64q4.25 7.65 8.05 15.53a2 2 0 0 0 2.74.72 2.04 2.04 0 0 0 .71-2.73q-3.8-7.87-8.04-15.54c-1.25-2.25-4.7-.24-3.45 2.02" class="c"/><path d="M295.58 293.2c-4.44 11.44-8.95 22.85-13.2 34.36-.88 2.42 2.98 3.46 3.87 1.06 4.24-11.51 8.74-22.92 13.19-34.36a2 2 0 0 0-1.4-2.46 2.05 2.05 0 0 0-2.46 1.4" class="c"/><path d="M5.37 306.6a19 19 0 0 1-1-4.97c3.75 4.17 7.38 6.16 11.15 6.43 4.97.36 6.78-1.54 10.6-2.65a19 19 0 0 1 3.3-.63c1.63-.17 4.4-.25 5.66.73l.65.5a27 27 0 0 0 2.73 3.48 32 32 0 0 0 4.12 1.84 25 25 0 0 1-2.44 6.58c-3.15 6.26-11.8 6.17-15.45 5.57a21 21 0 0 1-15.28-10.9 13 13 0 0 1-4.04-5.98m18.65-32.39a54 54 0 0 0-6.19 4.38 10 10 0 0 0-3.1 3.74 4.1 4.1 0 0 0 .76 4.55 5.4 5.4 0 0 0 2.77 1.13c3.92.68 7.9.2 11.83.04a59 59 0 0 1 1.81-18.35c-2.62 1.46-5.3 2.92-7.88 4.51m107.86 24.12c-1.36-5.79-3.94-12.47-8.18-15.05q1.77-2.26 3.32-4.7a31 31 0 0 0 4.23-13c6.03-.34 11.3 3.88 14.3 8.32a17.9 17.9 0 0 1 2.14 17.25c-1.52 4.07-5.16 11.43-10.25 13.6a3.8 3.8 0 0 1-3.34-.28 4.5 4.5 0 0 1-1.5-2.56 57 57 0 0 0-.72-3.58m-79.95 35.4c.42 1.86 1.29 3.3 2.6 3.8 4.73 1.35 9-2.22 10.7-4.31a58 58 0 0 0 7.13-10.6 11 11 0 0 0 1.37-5.25l-.6-5.16a75 75 0 0 1-17.54 1.52 54 54 0 0 0-3.83 15.1 14 14 0 0 0 .17 4.9m99.73-117.16a13 13 0 0 0 .73-2.3 10.8 10.8 0 0 0-2.23-9.88c-2.44-3.02-5.3-4.36-9-5.55a25 25 0 0 0-10.16-1.08 18 18 0 0 0-12.76 8.07c-2.14 3.18-3.97 7.6-5.3 10.26l-2.9 5.8a18 18 0 0 1 3.98 1.98c2.35 1.73 5.43 3.9 6.81 5.55a38 38 0 0 1 5.92 8.93c3.92-4.49 6.85-7.56 9.93-9.54 1.24-.8 3.71-1.97 5.03-2.63 4.2-2.11 8.14-5.36 9.95-9.61" class="b"/><path d="M114.66 217.1c2.46-4.95 4.41-10.72 8.96-14.2 4.68-3.58 10.67-3.92 16.18-2.37 5.2 1.46 11.08 4.86 10.94 11.02-.14 5.9-4.8 10.19-9.7 12.73a45 45 0 0 0-7.58 4.42 61 61 0 0 0-7.6 7.65c-1.7 1.92 1.12 4.76 2.82 2.83a61 61 0 0 1 7.35-7.45c2.17-1.74 4.75-2.8 7.2-4.08 6-3.17 10.99-8.5 11.48-15.54.5-7.05-5.05-12.25-11.18-14.56-6.45-2.42-13.56-2.79-19.76.52-6.7 3.58-9.37 10.58-12.56 17.02-1.14 2.3 2.3 4.32 3.45 2.01" class="c"/><path d="M137.95 204.98a3.33 3.33 0 0 0-3.4 3.38 3.3 3.3 0 0 0 3.4 3.44 3.24 3.24 0 0 0 3.4-3.44 3.33 3.33 0 0 0-3.4-3.38m9.24 12.08a22 22 0 0 1 3.5-1.86l-.49.2q.59-.24 1.18-.45a2 2 0 0 0 1.2-.92 2 2 0 0 0-.72-2.74 2 2 0 0 0-1.54-.2 24 24 0 0 0-5.15 2.52 2 2 0 0 0-.92 1.2 2 2 0 0 0 .2 1.53 2 2 0 0 0 2.74.72" class="c"/><path d="M130.75 247.99c4.32 9.38 1.28 22.74-3.73 30.6a65 65 0 0 1-19.63 19.4 101 101 0 0 1-27.09 12.5c-10.25 2.88-28.57 6.11-41.84-1-7.89-8.47-10.75-23.03-6.6-39.7 3.46-13.86 8.96-23.08 16.84-31.8 12.96-14.36 31.48-21.55 54.03-17.97 4.83.7 9.38 2.44 11.3 3.85a38 38 0 0 1 6.1 5.51c3.67 4.4 6.06 7.3 7.66 11.42Z" style="fill:#74c66d"/><path d="M53.46 313.73a53 53 0 0 0-2.8 9.46c-.84 4.27-1.9 9.2.13 13.3 2.05 4.13 7.18 3.85 10.8 2.12 3.59-1.7 5.96-4.94 8.23-8.07a56 56 0 0 0 3.88-6.18c1.13-2.07 2.24-4.56 2.04-6.99-.21-2.54-4.21-2.57-4 0a8.7 8.7 0 0 1-1.3 4.61 56 56 0 0 1-2.86 4.8c-1.7 2.55-3.57 5.43-6.08 7.24-1.81 1.31-6 3.24-7.25.45-1.42-3.18-.32-7.32.33-10.56a53 53 0 0 1 2.74-9.12 2 2 0 0 0-1.4-2.46 2.05 2.05 0 0 0-2.46 1.4m-23.34-27.68c-3.48.14-7 .56-10.47.15-.96-.11-2.53-.23-3.03-1.08a2.7 2.7 0 0 1 .3-2.67 12 12 0 0 1 2.94-2.95q1.82-1.43 3.77-2.67c2.73-1.78 5.6-3.35 8.44-4.94 2.25-1.25.24-4.71-2.02-3.45-5.07 2.82-10.5 5.63-14.72 9.7-2.04 1.96-3.43 4.63-2.76 7.51.74 3.23 3.83 4.15 6.73 4.5 3.6.44 7.22.04 10.82-.1 2.56-.1 2.58-4.1 0-4" class="c"/><path d="M129.72 240.27c-3.69-9.37-10.9-17.72-20.7-20.85a58 58 0 0 0-16.9-2.3 63 63 0 0 0-15.16 1.67c-18.83 4.48-34.2 18.92-42.13 36.32-4.58 10.03-7.44 21.4-6.77 32.49a43 43 0 0 0 3.28 14.47 31 31 0 0 0 3.2 5.74 32 32 0 0 0 2.08 2.63 9 9 0 0 0 3.24 1.94c9.55 4.11 20.32 3.97 30.42 2.37a96 96 0 0 0 29.93-10.2c10.05-5.35 19.2-12.2 26.05-21.36a34 34 0 0 0 6.31-13.38 44 44 0 0 0 .5-15.46 35 35 0 0 0-1.8-7.24c-.89-2.39-4.76-1.35-3.86 1.07 3.1 8.38 3.1 18.94-.82 27.07a46 46 0 0 1-9.01 11.94 69 69 0 0 1-12.14 9.68 97 97 0 0 1-29.18 12.61c-8.77 2.1-18.2 3.23-27.14 1.54a38 38 0 0 1-6.83-1.93 10 10 0 0 1-2.73-1.36 12 12 0 0 1-1.75-2.2 32 32 0 0 1-4.91-11.7c-2.19-10.15-.36-20.76 2.93-30.45 5.65-16.67 18.3-32.03 34.98-38.5a60 60 0 0 1 27.77-3.4c4.75.5 10.2 1.23 14.24 3.98a45 45 0 0 1 5.74 4.47 30 30 0 0 1 4.42 5.69 33 33 0 0 1 2.88 5.72 2.06 2.06 0 0 0 2.46 1.4 2 2 0 0 0 1.4-2.46Z" class="c"/><path d="M77.5 232.61a62 62 0 0 1 5.4 3.7c.24.19-.22-.18.02.02l.3.23.63.5 1.18.98q1.16.98 2.29 2a2 2 0 0 0 2.83-2.83 70 70 0 0 0-10.63-8.05 2 2 0 0 0-2.02 3.45m11.9 13.69q.05.35 0 .02l.04.37.09.77q.09.81.15 1.62.12 1.6.18 3.2a53 53 0 0 1-.12 6.3 2 2 0 0 0 2 2 2.05 2.05 0 0 0 2-2 60 60 0 0 0-.49-13.34 2 2 0 0 0-2.46-1.4 2.07 2.07 0 0 0-1.4 2.46Zm-35.14 6.9q.6.39 1.15.81c.14.1.3.36-.01-.01l.3.23.61.5q1.41 1.18 2.77 2.43a73 73 0 0 1 4.78 4.81 2 2 0 0 0 2.83 0 2.05 2.05 0 0 0 0-2.83 72 72 0 0 0-4.9-4.9 42 42 0 0 0-5.52-4.5 2 2 0 0 0-2.73.72 2.05 2.05 0 0 0 .71 2.74Zm18.7 13.16a143 143 0 0 0 14.6.09 2.04 2.04 0 0 0 2-2 2 2 0 0 0-2-2 143 143 0 0 1-14.6-.09 2 2 0 0 0 0 4m-5.11 3.08a84 84 0 0 1 2.08 9.3 2 2 0 0 0 2.46 1.4 2.06 2.06 0 0 0 1.4-2.47 85 85 0 0 0-2.08-9.3 2 2 0 1 0-3.86 1.07m-30.18 6.16a54 54 0 0 0 10.73 9.9 2 2 0 0 0 2.74-.72 2.05 2.05 0 0 0-.72-2.73l-1.38-1.01-.36-.27c.23.17.02.01-.1-.08l-.63-.5q-1.37-1.1-2.66-2.3a49 49 0 0 1-4.8-5.11 2 2 0 0 0-2.82 0 2.06 2.06 0 0 0 0 2.83Zm18.27 12a88 88 0 0 0 13.08-.96 2.05 2.05 0 0 0 2-2c-.05-.97-.9-2.14-2-2a88 88 0 0 1-13.08.96 2 2 0 1 0 0 4m-10.1 2.46a23 23 0 0 0-.36 3.6 26 26 0 0 0 .03 3.35 2.2 2.2 0 0 0 .58 1.42A2 2 0 0 0 49.5 297a24 24 0 0 1-.04-2.86q.03-1.5.21-3l-.07.52q.03-.28.1-.55a2 2 0 0 0-.2-1.54 2 2 0 0 0-3.66.48Zm33.96.56a14 14 0 0 0-2.78-4.77 2 2 0 0 0-2.83 0 2 2 0 0 0-.59 1.41 2 2 0 0 0 .59 1.42l.52.6-.32-.4a12 12 0 0 1 1.52 2.69l-.2-.48.23.6a2.2 2.2 0 0 0 .92 1.2 2 2 0 0 0 2.74-.72 2 2 0 0 0 .2-1.54Zm28.1-25.2a69 69 0 0 0-10.08-3.65 2 2 0 1 0-1.07 3.86q2.5.72 4.97 1.58 1.16.41 2.3.86l.55.23q.31.13-.01-.01l.22.1q.56.24 1.1.5a2.05 2.05 0 0 0 2.74-.73 2 2 0 0 0-.72-2.73Z" class="c"/><path d="M111.05 236.8a40 40 0 0 1 7.67 19.62 28 28 0 0 1-1.08 11.03 33 33 0 0 1-5.47 9.88c-4.8 6.29-11.24 10.85-18.15 14.57a86 86 0 0 1-22.25 8.19 102 102 0 0 1-27 2.09c-2.58-.13-2.57 3.87 0 4 16.99.83 34.13-2.12 49.37-9.84 14.28-7.23 28.8-19.82 28.7-37.16a42.7 42.7 0 0 0-8.34-24.39 2.06 2.06 0 0 0-2.74-.72 2 2 0 0 0-.72 2.74Zm26.59 32.34a19.3 19.3 0 0 1 8.72 10.93c1.24 4.2.42 8.41-1.34 12.33-1.53 3.43-3.53 7.14-6.58 9.45-1.03.8-2.88 1.97-3.67.3a11 11 0 0 1-.58-2.56q-.31-1.58-.72-3.13c-1.22-4.64-3.03-9.45-6.37-12.99-1.77-1.88-4.6.96-2.83 2.83 3.22 3.41 4.7 8.34 5.73 12.8.54 2.3.63 4.85 2.45 6.6 1.96 1.88 4.96 1.47 7.1.2 3.94-2.33 6.62-6.6 8.54-10.64 2.2-4.64 3.53-9.57 2.5-14.71a23 23 0 0 0-10.94-14.87c-2.23-1.28-4.25 2.17-2.02 3.46Z" class="c"/><path d="m106.56 238.6-6.91.74a2.2 2.2 0 0 0-1.42.59 2 2 0 0 0 1.42 3.41l6.9-.75a2.2 2.2 0 0 0 1.42-.58 2 2 0 0 0-1.41-3.42M.29 299.73c4.13 5.49 9.52 10.57 16.84 10.36 2.98-.1 5.4-1.28 8.13-2.3a17 17 0 0 1 4.74-1.07c1.29-.1 2.95-.27 4.07.5 2.13 1.46 4.13-2 2.02-3.46-2.58-1.77-6.76-1.2-9.62-.52-2.6.61-4.91 2.05-7.52 2.63-6.45 1.43-11.63-3.42-15.2-8.16a2.06 2.06 0 0 0-2.74-.72 2 2 0 0 0-.72 2.74" class="c"/><path d="M29.35 311.18c-4.64 1.34-9.68 3.13-14.54 1.89a10.8 10.8 0 0 1-7.53-7.04c-.86-2.41-4.73-1.37-3.85 1.06a15 15 0 0 0 9.7 9.66c5.76 1.76 11.73-.12 17.29-1.7 2.47-.72 1.41-4.58-1.07-3.87" class="c"/><path d="M38.46 316.8c-2.16 4.23-7.18 5.13-11.53 4.9a12 12 0 0 1-2.37-.27 20 20 0 0 1-4.2-1.3 20 20 0 0 1-7.5-5.82 2 2 0 0 0-2.84 0 2.05 2.05 0 0 0 0 2.83 23.3 23.3 0 0 0 17.15 8.58c5.65.23 12-1.5 14.74-6.9 1.17-2.29-2.28-4.32-3.45-2.02" class="c"/><path d="M203.93 35.2a43 43 0 0 0-5.84-8.15c-5.6-6.12-16.29-14.95-27.74-19.55-13.12-5.28-30.8-7.33-50.3-3.56a82 82 0 0 0-18.58 6.6c-3.6 1.87-8.03 4.68-9.25 8.03-1.42 3.88-1.34 11.32-.72 16.56 1.52 12.85 7.79 24.66 16.5 33.97 11.68 11.74 25.7 20.34 43.03 23.97l5.57.49c-1.08 4.14-3.38 6.6-6.9 7.78-5.96 1.99-10.55 1.73-17.17.9a143 143 0 0 0-12.46-2.06 5 5 0 0 0-3.67.59c-1.1.87-1.3 2.47-1.18 3.88a14.8 14.8 0 0 0 4.65 9.58c2.12 1.96 4.77 3.24 7.08 4.96s4.13 3.47 4.33 6.48a23 23 0 0 1-.74 5.51c-.7 3.56-1.07 6.41.74 7.81 1.85 1.44 6.06.64 8.97-2.42l9.68-9.03c5.3-4.94 14.36-10.32 21.45-13.55 4.83-2.44 9.77-4.89 13.8-7.88 11.82-9.23 20.89-22.36 23.8-37.08a50.4 50.4 0 0 0-5.05-33.83" class="d"/><path d="M214.66 31.55a122 122 0 0 1-3.83-3.38c-1.5-1.37-2.71-3.1-2.59-5.15.1-1.79.86-3.42.77-4.5-.11-1.45-1.71-2.22-3.07-2.72a23 23 0 0 1-3.96-1.67c-2.5-1.5-3.22-4.52-3.37-7.55a3 3 0 0 0-3.12-2.81c-5.92.3-11.53 3.85-16.58 7.27l-.55.39a87 87 0 0 1 19.73 15.62 45 45 0 0 1 9.61 17.04l.43-.38a103 103 0 0 0 6.3-6.56c.74-.91 1.62-2.16 1.59-3a3.7 3.7 0 0 0-1.36-2.6" class="a"/><path d="M125.18 12.48a9.46 9.46 0 0 0-9.64 9.58c0 5.79 4.02 9.77 9.64 9.77 5.84 0 9.65-4.02 9.65-9.77a9.45 9.45 0 0 0-9.65-9.58" class="b"/><path d="M151.57 91.15a83 83 0 0 1-39.61-21C100.7 59.57 93.53 45.03 93.1 29.5c-.09-3.29-.13-6.86.91-10.02 1.03-3.11 4.64-5.13 7.33-6.62a69 69 0 0 1 21.63-7.43c15.45-2.64 32-1.93 46.69 3.92a75 75 0 0 1 20.17 12.59c5.34 4.53 10.06 9.57 13.23 15.88 6.74 13.42 6.25 29.59-.05 43.06A64 64 0 0 1 190 99.21a52 52 0 0 1-8.91 7.26 107 107 0 0 1-11.4 6.1 88 88 0 0 0-19.86 12.4c-3.36 2.86-6.5 6-9.74 9.02a14 14 0 0 1-4.32 3.27c-.9.35-2.38.67-3.11.25-.98-.56-.73-2.28-.63-3.22.21-1.93.76-3.81 1.04-5.73.56-3.87-.4-7.17-3.42-9.76-3.03-2.6-6.99-4.14-9.58-7.25a13 13 0 0 1-2.4-4.57c-.3-1.07-1.06-3.61-.11-4.56.49-.5 1.52-.33 2.12-.28q1.53.14 3.03.36a149 149 0 0 1 6.36 1.1 58 58 0 0 0 12.1 1.25 26.5 26.5 0 0 0 11.05-2.4 12.4 12.4 0 0 0 6.09-7.57 15 15 0 0 0 .12-8.1c-.72-2.48-4.58-1.43-3.86 1.05a12 12 0 0 1 .21 4.53l-.07.7c.1-.7 0-.17-.1.2a11 11 0 0 1-.91 2.34c-1.7 3.14-4.9 4.14-8.2 4.8-8.44 1.68-16.9-1.35-25.23-2.2-2.02-.2-4.2-.08-5.66 1.52a7 7 0 0 0-1.33 5.51 16.8 16.8 0 0 0 5.33 10.57 41 41 0 0 0 5.36 3.78 16 16 0 0 1 4.3 3.52 6 6 0 0 1 .87 4.8c-.31 2.08-.86 4.1-1.1 6.2-.36 3.33.73 6.92 4.47 7.49 3.95.6 7.15-1.73 9.87-4.27 3.4-3.18 6.73-6.5 10.27-9.52a71 71 0 0 1 9.78-6.82c7.46-4.46 15.74-7.5 22.88-12.5a66 66 0 0 0 16.51-17.34c8.9-13.35 12.5-29.9 8.39-45.57a47.5 47.5 0 0 0-11.1-20.36 86 86 0 0 0-17.8-14.37C167.14 2.14 150.28-.8 133.84.18a86 86 0 0 0-25.92 5.34 61 61 0 0 0-10.43 4.96c-3.11 1.94-6.25 4.43-7.38 8.07A34 34 0 0 0 89.1 29.5a60 60 0 0 0 1.46 11.83 62 62 0 0 0 10.27 22.18c9.3 12.83 23.23 22.67 38.03 28.15A84 84 0 0 0 150.5 95c2.51.53 3.58-3.32 1.06-3.86Z" class="c"/><path d="M179.92 12.77C184.08 9.95 188.48 7 193.5 6c.72-.14 1.98-.52 2.65-.1.76.48.55 1.96.65 2.7a11 11 0 0 0 2.42 5.8c1.72 1.94 4.22 2.45 6.5 3.44.46.2 1.16.45 1.29.95.1.36-.21 1.02-.3 1.37a20 20 0 0 0-.37 1.88c-.73 5.13 3.6 7.85 6.89 10.91.95.89.84 1.27.14 2.29a20 20 0 0 1-1.8 2.11 123 123 0 0 1-4.86 4.93c-1.86 1.79.97 4.62 2.83 2.83q2.5-2.4 4.86-4.93c1.42-1.53 3.26-3.35 3.56-5.5.4-2.83-1.92-4.54-3.78-6.18-1.59-1.4-4.1-3.1-3.95-5.49.17-2.56 1.69-4.96-.4-7.19-1.81-1.95-4.7-2.05-6.86-3.43-1.95-1.25-2.17-3.73-2.37-5.82a5.07 5.07 0 0 0-4.95-4.8c-3.14-.1-6.4 1.14-9.2 2.44a62 62 0 0 0-8.56 5.1c-2.12 1.42-.12 4.9 2.02 3.45Zm-54.74-2.3a11.6 11.6 0 0 0-11.12 8.08 12 12 0 0 0 3.76 12.83 12.5 12.5 0 0 0 13.5.9c4.25-2.43 6.04-7.47 5.34-12.16a11.6 11.6 0 0 0-11.48-9.65c-2.57-.03-2.57 3.97 0 4a7.5 7.5 0 0 1 7.34 5.36 8.1 8.1 0 0 1-2.4 8.47 8 8 0 0 1-4.13 1.5 8.6 8.6 0 0 1-4.7-.9 7.75 7.75 0 0 1-3.7-7.84 7.55 7.55 0 0 1 7.6-6.6c2.57-.02 2.57-4.02 0-3.98" class="c"/><path d="M125.19 18.28a3.8 3.8 0 0 0-3.86 3.84 3.7 3.7 0 0 0 3.86 3.9 3.7 3.7 0 0 0 3.85-3.9 3.8 3.8 0 0 0-3.85-3.84m30.4 50.6a2.36 2.36 0 0 0-.82 3.23 5.3 5.3 0 0 0 2.97 2 9.47 9.47 0 0 0 12.29-11.37L167.09 65a9.5 9.5 0 0 0 10.33-1.2 9.4 9.4 0 0 0 2.63-9.92l-3.65 1.55c2.27 3.62 7.27.62 9.25-1.75a11.2 11.2 0 0 0 2.34-10.1c-.68-2.47-4.54-1.42-3.85 1.07a7 7 0 0 1-.85 5.52 7 7 0 0 1-1.76 1.96 6 6 0 0 1-1.28.74c-.1.05-.55.12-.6.2-.18.28-.44-.7.2.34-1.16-1.84-4.4-.68-3.65 1.55a5.4 5.4 0 0 1-1.34 5.78 5.3 5.3 0 0 1-5.75.81 2.03 2.03 0 0 0-2.94 2.26 5.7 5.7 0 0 1-1.93 5.73 5.4 5.4 0 0 1-3.02 1.08c-.74.04-2.81-.17-3.06-.66l.28 1.01v-.23l-1 1.73.17-.12a2.06 2.06 0 0 0 .72-2.74 2 2 0 0 0-2.74-.72Zm40.15-14.39a6.1 6.1 0 0 1-.4 5.73 4 4 0 0 1-4.36 1.54 2.02 2.02 0 0 0-2.26 2.94c1.95 3.44-2.97 6.83-6.05 6.12-2.5-.58-3.57 3.27-1.06 3.85 6.5 1.5 14.32-5.36 10.57-11.99l-2.26 2.94a8 8 0 0 0 8.4-2.76 9.8 9.8 0 0 0 1.28-9.43 2.05 2.05 0 0 0-2.46-1.4 2 2 0 0 0-1.4 2.46m-58.34 59.42a18.4 18.4 0 0 0 8.59-1.57 2 2 0 0 0 .92-1.2 2 2 0 0 0-.2-1.54 2 2 0 0 0-1.2-.92 2.3 2.3 0 0 0-1.54.2c.53-.23-.06.02-.17.06l-.39.15-.92.3a16 16 0 0 1-1.76.4l-.4.06c.54-.13.05 0-.1 0q-.44.05-.9.08a17 17 0 0 1-1.93-.03 2 2 0 0 0-2 2 2.05 2.05 0 0 0 2 2Z" class="c"/><path d="M156.74 46.77a5 5 0 0 0-1.21-2c-3.44-3.43-8.38-5.34-12.62-7.65l-.25.39-.58.84a30 30 0 0 1-9.07 8.43c.28 5.68.99 9.34 2.94 12.44.91 1.25 3.76 1.85 5 1.65a26 26 0 0 0 12.1-5.67c2.14-1.77 3.98-3.9 4.04-5.57a8 8 0 0 0-.35-2.86" class="a"/><path d="m143.35 122.28 2.45-3.26a1.5 1.5 0 0 0 .24-.75 1.5 1.5 0 0 0-.03-.8 2 2 0 0 0-.92-1.2 2 2 0 0 0-1.54-.2l-.48.2a2 2 0 0 0-.72.73l-2.46 3.26a1.5 1.5 0 0 0-.23.74 1.5 1.5 0 0 0 .03.8 2 2 0 0 0 .92 1.2 2 2 0 0 0 1.54.2l.48-.2a2 2 0 0 0 .72-.72m-12.31-75c.23 4.12.68 8.36 2.67 12.06 2 3.75 6.5 3.96 10.17 2.94a28 28 0 0 0 12.04-6.97c1.54-1.53 3.04-3.42 3.17-5.68a8.5 8.5 0 0 0-1.78-5.85c-3.2-3.88-8.54-5.82-12.87-8.1-2.27-1.2-4.3 2.25-2.02 3.45 3.27 1.72 6.72 3.19 9.72 5.37 1.17.85 2.43 1.8 2.8 3.25a3.8 3.8 0 0 1-1 3.82 23 23 0 0 1-9.01 6.16 12 12 0 0 1-4.89 1.17 3.4 3.4 0 0 1-2.67-1.2c-1.89-3.02-2.14-6.97-2.34-10.42-.14-2.56-4.14-2.58-4 0Z" class="c"/><path d="M146.04 25.05a31 31 0 0 1-8.2 15.34c-4 4.2-9.21 6.75-14.6 8.73-2.4.89-1.35 4.75 1.07 3.86 6.02-2.22 11.87-5.06 16.36-9.76 4.37-4.6 8.1-10.81 9.22-17.1a2.06 2.06 0 0 0-1.4-2.46 2 2 0 0 0-2.46 1.4Z" class="c"/></svg>
