<svg xmlns="http://www.w3.org/2000/svg" viewBox="-52.79 0 439.31 439.31"><defs><style>.a{fill:#fff}.b{fill:#7a7473}.c{fill:#85807f}.d{fill:#b3b3b3}.e{fill:#211715}</style></defs><path d="M72.98 98.43h-1.06a1414 1414 0 0 1-13.54-10.61c-1.39 1.55-3.1 3.83-4.46 5.4a4.6 4.6 0 0 0-1.05 3.44 486 486 0 0 0 10.9 39.14c3.44 10.55 4.45 13.78 9.2 25.4 4.75-11.63 5.76-14.85 9.2-25.4a483 483 0 0 0 10.9-39.14 4.6 4.6 0 0 0-1.05-3.43c-1.36-1.58-3.07-3.86-4.46-5.41-.59.48-12.62 9.97-13.53 10.61ZM8.22 237.44c-3.06 9.22-6.73 21.07-6.16 30.07.13 2.17.68 3.88 2.7 4.65a4.1 4.1 0 0 0 4.02-.95 11 11 0 0 0 2.47-3.54 80 80 0 0 0 4.55-10.26c1.13 2.92 3.77 5.05 5.56 5.1a3.4 3.4 0 0 0 2.46-.71 4 4 0 0 0 1.23-2.63 217 217 0 0 0-.76-23.26s-.06-.72-.16-1.83c-4.44-.5-8.06-.86-11.64-1.13a23 23 0 0 1-2.64-.38l-1.63 4.88m130.63.86c.78 4.01 2.04 7.6 3.27 12.46.96 3.78 1.44 6.26 1.18 8.42s-1.22 4-3.2 6.52c-2.48 3.2-9.53 6.21-13.23 3.77v-7.62a5 5 0 0 1-2.71.97 4.45 4.45 0 0 1-4.28-4.74c.7-8.89 3.04-15.48 5.1-24.1 4.09-.44 7.47-.78 10.82-1.03a24 24 0 0 0 2.36-.33 41 41 0 0 0 .7 5.68" class="a"/><path d="M137 224.96a270 270 0 0 1-17.18 1.23l.14 8.37 5.03-.58c4.08-.44 7.46-.78 10.8-1.03a23 23 0 0 0 2.36-.33l2.4-.5a72 72 0 0 0-1.1-7.43l-1.04.11zm-125.71 0-1.42-.16-1.03-.1a71 71 0 0 0-1.1 7.43 38 38 0 0 0 4.75.82c4.64.35 9.35.86 15.85 1.6q.04-3.78.13-8.36c-5.37-.2-12.01-.68-17.18-1.23" class="a"/><path d="M55.06 422.34c.62-.28 1.28-.49 1.91-.72a26 26 0 0 0 7.13-4.33c1.48-1.16 4.27-4.18 4.76-5.8.81-2.65.71-6.44-.5-8.7-.87-1.6-1.22-2.27-3-2.64a5 5 0 0 0-2.88.7 37 37 0 0 1-6.27 2.63c-2.91.9-6.35.3-11.7-1.63-2.76-1-6.13 2.91-8.43 5.09-4.32 3.86-8.5 7.37-12.32 11.74a10 10 0 0 0-1.87 3.45 14 14 0 0 0-.6 3.75c-.04 2.69.32 5.63 2.23 7.51a9 9 0 0 0 3.99 2.05 18.7 18.7 0 0 0 9.61-.02c6-1.62 10.77-6.1 14.95-10.7a11 11 0 0 1 1.94-1.82 7 7 0 0 1 1.05-.56m35.36 0c-.62-.28-1.28-.49-1.91-.72a26 26 0 0 1-7.13-4.33c-1.48-1.16-4.27-4.18-4.76-5.8-.81-2.65-.71-6.44.5-8.7.87-1.6 1.22-2.27 3-2.64a5 5 0 0 1 2.88.7 37 37 0 0 0 6.27 2.63c2.91.9 6.35.3 11.7-1.63 2.76-1 6.13 2.91 8.43 5.09 4.32 3.86 8.5 7.37 12.32 11.74a10 10 0 0 1 1.87 3.45 14 14 0 0 1 .6 3.75c.03 2.69-.32 5.63-2.23 7.51a9 9 0 0 1-4 2.05 18.7 18.7 0 0 1-9.6-.02c-6-1.62-10.77-6.1-14.95-10.7a11 11 0 0 0-1.94-1.82 7 7 0 0 0-1.05-.56" class="b"/><path d="m211.49 253.09.3-.63c.82 2.9 3.14 5.16 4.84 5.38a3.3 3.3 0 0 0 2.42-.47 3.8 3.8 0 0 0 1.41-2.4 208 208 0 0 0 1.37-22.28s0-.64.01-1.69a332 332 0 0 1-11.94-1.15 11 11 0 0 1-2.11-.41l-.23.52c-3.9 8.8-9.5 21.3-9.8 30.92-.07 2.07.3 3.76 2.16 4.68a4 4 0 0 0 3.93-.54 11 11 0 0 0 2.68-3.16 78 78 0 0 0 4.96-8.78m33.78 143.87c-.67-22.8-2.25-50.27-4.24-71.67l-.05-.87c8.14.18 18.85.4 23.47.4 14.36.01 23.49-.17 31.43-.6-3.03 26.64-3 55.33-3.66 78.64a11 11 0 0 1-10.17 2.42 62 62 0 0 1-8-3.26 5 5 0 0 0-2.9-.7c-1.78.37-2.48.83-2.48 2.64h-.04c0-1.81-.7-2.27-2.48-2.64a5 5 0 0 0-2.9.7 62 62 0 0 1-8 3.26 11 11 0 0 1-9.83-2.12q-.06-3.03-.15-6.2m21.38-222.77c-3.51-8.25-5.2-11.9-8.24-20.4-3.74-10.48-8.37-22-11.37-32.91l2.33-.94a4 4 0 0 1 .86-3.58c1.27-1.46 2.86-3.58 4.15-5.02.54.44 11.72 9.26 12.57 9.86h1.97c.85-.6 12.03-9.42 12.58-9.86 1.29 1.44 2.88 3.56 4.14 5.02a4 4 0 0 1 .87 3.58l1.1.64c-3 11-7.68 22.63-11.45 33.2-3.04 8.52-4.73 12.16-8.25 20.4Z" class="a"/><path d="M295.55 75.94a4.4 4.4 0 0 1 3.18-1.16 4.1 4.1 0 0 1 3.67 2.04c1.24 2.16 1.2 6.14.35 8.6a13.3 13.3 0 0 1-3.9 6.34 5 5 0 0 1-3.74 1.08l-.26-.04c-.44 1.3-1 2.44-1.18 3-.91 2.5-5.85 11.02-12.17 14.71v.83a1602 1602 0 0 1-12.57 9.86h-1.97c-.85-.6-12.03-9.42-12.58-9.86v-.67a29 29 0 0 1-7.4-6.46 33 33 0 0 1-6.15-11.41 4.8 4.8 0 0 1-3.96-1.04 13.3 13.3 0 0 1-3.9-6.33c-.84-2.47-.9-6.45.36-8.61a4.1 4.1 0 0 1 3.67-2.04 4.4 4.4 0 0 1 3.18 1.16s-5.13-25.06 26.91-25.06 28.46 25.06 28.46 25.06" class="a"/><path d="M290.12 102a37 37 0 0 0 3.25-5.47l3.05-.1a8.5 8.5 0 0 1 6.86 2.7c2.32 2.63 2.48 6.53 1.9 10s-1.76 6.86-1.7 10.37a15 15 0 0 0 2.25 7.58c-3.2-1.32-7.32-2.54-9.99-3.63-3.35-3.39-7.7-6.47-9.84-6.75l-.26-.34c-1.26-1.46-2.85-3.57-4.14-5.02l-.48-.55c3.61-1.96 6.8-5.54 9.1-8.79m-54.5-46.74a35 35 0 0 0-1.31 8.21 36 36 0 0 0 1.54 11.46 6 6 0 0 1 1.15-.15 4.4 4.4 0 0 1 3.18 1.16l4.67-2.85a110 110 0 0 0 13.46-5.27c8-4.38 15.18-8.29 19.42-13.06 1.4 4.58 3.05 8.63 5.7 12 2.76 3.54 7.58 8.16 12.2 9.12a4.4 4.4 0 0 1 3.1-1.1 6 6 0 0 1 1.04.13 36 36 0 0 0 1.49-11.44c-.47-11.01-5.13-18.7-10.68-23.26a86 86 0 0 0-4.31-3.27c-5-3.46-11.04-5.37-18.49-5.37a33.1 33.1 0 0 0-32.16 23.68Z" class="c"/><path d="M36.17 376.74c-1.7-45.57-2.87-89.33-4.85-137.2 6.92.5 20.79.55 24.23.46 3.96-.1 8.21-1.38 10.95-3.7 2.82-2.36 4.02-6.02 5.1-9.46.64-2.06 1.34-6.95 1.8-9.27.44 2.32 1.18 7.21 1.82 9.27 1.08 3.44 2.27 7.1 5.1 9.47 2.74 2.3 7 3.58 10.95 3.69 3.33.09 17.22-.14 24.59-.63-2.28 55.3-3.5 105.1-5.66 158.53a61 61 0 0 1-16.64 2.57c-6.02-.06-15.55-.59-19.96-1.73-4.4 1.14-13.95 1.67-19.97 1.73a61 61 0 0 1-16.65-2.57q-.43-10.66-.81-21.16m195.52-67.13c-1.41-27.9-2.18-53.88-3.13-77.24l-.13-3.12c6.92.4 18.9.45 22 .36a17.7 17.7 0 0 0 10.52-3.54c2.7-2.28 3.85-5.79 4.89-9.09a82 82 0 0 0 1.74-7.1 67 67 0 0 0 1.74 7.1c1.03 3.3 2.17 6.81 4.88 9.1a17.7 17.7 0 0 0 10.5 3.53c3.2.09 16.5-.12 23.58-.6v2.32c-.09 20.68-.42 62.77-3.18 92.28-10.7.86-20.54 1.23-40.65 1.22-6.63 0-25.87-.46-31.96-.6q-.43-7.39-.8-14.62" class="d"/><path d="M286.6 124.1a135 135 0 0 0 1.77-6.44 35 35 0 0 1 7.37 5.79c3.38 1.39 9.1 2.97 12.32 4.68a24 24 0 0 1 5.7 4 22 22 0 0 1 4.6 6.75 221 221 0 0 1 12.04 37.99c.96 4.34 1.79 8.81 1.15 13.2s-2.94 8.79-6.89 10.82c-3.38 1.75-7.28 1.52-10.98.32l-8.47-1.68c.27 5.31 2.97 19.76 4.76 29.35-6.38.57-21.8.83-25.26.73a17.7 17.7 0 0 1-10.51-3.54c-2.71-2.28-3.85-5.79-4.88-9.09a67 67 0 0 1-1.74-7.1 82 82 0 0 1-1.74 7.1c-1.04 3.3-2.18 6.81-4.9 9.1a17.7 17.7 0 0 1-10.5 3.53c-3.3.1-16.5.03-23.15-.44l-.35 2.16a286 286 0 0 1-17.04-1.48c-1.29-.14-5.08-.64-4.85-3.75 2.71-18.63 6-52.5 8.15-67.59.76-5.34 2.67-14.72 6.17-20.63 4.49-6.82 10.8-10.34 18.83-13.8a36 36 0 0 1 8-6.42c2.91 11.84 8.1 24.61 12.21 36.13 3.21 9 4.92 12.55 8.87 21.87 3.95-9.32 5.66-12.87 8.88-21.87 3.37-9.46 7.47-19.76 10.44-29.69M48.58 95.9a73 73 0 0 1 3.55-2.46 484 484 0 0 0 11.65 42.36c3.43 10.55 4.45 13.78 9.2 25.4 4.74-11.62 5.76-14.84 9.2-25.4a484 484 0 0 0 11.64-42.36 61 61 0 0 1 9.47 7.52c12 4.84 21.69 9.66 26.87 16.14 4.25 5.31 5.81 12.2 6.82 22.72 1.58 16.6 5.38 67.38 6.2 80.25a5.7 5.7 0 0 1-.68 3.48c-.87 1.03-2.74 1.1-4.08 1.26a265 265 0 0 1-18.6 1.39c.1 4.93.16 9.27.18 12.75l-.76.1c-5.1.72-24.01 1.06-27.97.96s-8.21-1.39-10.95-3.7c-2.82-2.37-4.02-6.02-5.1-9.46-.64-2.06-1.37-6.95-1.8-9.28-.48 2.33-1.18 7.22-1.82 9.28-1.08 3.44-2.27 7.1-5.1 9.47-2.74 2.3-7 3.58-10.95 3.69-4.08.1-22.88 0-27.26-.78.02-3.52.09-7.97.18-13.03a265 265 0 0 1-18.6-1.4c-1.34-.15-3.2-.22-4.08-1.25a5.4 5.4 0 0 1-.67-3.48c1.25-13.18 4.34-63.65 5.92-80.25 1-10.52 2.57-17.4 6.81-22.72 4.7-5.86 13.07-10.37 23.52-14.76a49 49 0 0 1 7.21-6.43" class="d"/><path d="M54.98 29.84c-11.14 7-10.59 19.89-10.59 19.89a4.5 4.5 0 0 0-3.27-1.2 4.2 4.2 0 0 0-3.77 2.1c-1.29 2.22-1.23 6.32-.37 8.85A13.7 13.7 0 0 0 40.99 66a4.9 4.9 0 0 0 4.17 1.04 34 34 0 0 0 6.53 12.32 27 27 0 0 0 7.89 6.71v2.69c-5.85-4.6 11.25 8.9 12.34 9.67h2.12c1.09-.77 18.07-14.17 12.4-9.72v-2.22c7.08-3.42 12.73-13.13 13.74-15.85a29 29 0 0 0 1.32-3.6l.37.06a5 5 0 0 0 3.85-1.1 13.7 13.7 0 0 0 4.01-6.52c.86-2.54.92-6.63-.36-8.86a4.2 4.2 0 0 0-3.78-2.1 4.5 4.5 0 0 0-3.27 1.2s.3-24.3-29.34-24.3c-8.06 0-13.85 1.8-18 4.41" class="a"/><path d="M38.7 27.85q-.24.76-.46 1.56c-1.78 6.42-.6 15.43.36 19.53l.07.28a5 5 0 0 1 2.45-.7 4.5 4.5 0 0 1 3.27 1.2l4.63-3.88c3.47-3.88 9.6-9.71 13.9-11.97.5-.26 1.16.1 1.36.94a6 6 0 0 1 .14 2.02 1.05 1.05 0 0 0 1.5 1.13c3.07-1.7 8.54-5.14 12.42-6.78l5.76.7a19 19 0 0 1 5.3 3.34c3.49 3 6.84 7.13 8.32 10.86l4.6 3.64a4.5 4.5 0 0 1 3.27-1.2 5 5 0 0 1 1.8.37 38 38 0 0 0 1.45-11.78c-.5-11.85-5.67-20.17-11.36-24.54L92.1 8.93a26 26 0 0 0-6.4-4.32 36 36 0 0 0-12.17-2.56c-10.06.06-17.8 2.2-24.05 9.16-1.17 1.3-2.23 3.21-3.49 4.43a28.6 28.6 0 0 0-7.29 12.2" class="c"/><path d="M255.84 423.55c.62-.28 1.27-.49 1.9-.72a26 26 0 0 0 7.15-4.34c1.48-1.16 3.82-4 3.82-5.7 0-2.82-.08-6.82-.08-8.82 0-1.82-.7-2.28-2.47-2.65a5 5 0 0 0-2.9.7 62 62 0 0 1-8.01 3.26 11 11 0 0 1-10-2.26c-2.76-1-6.14 2.92-8.44 5.1-4.33 3.86-8.52 7.38-12.34 11.76a10 10 0 0 0-1.87 3.46 14 14 0 0 0-.6 3.76c-.04 2.69.31 5.63 2.23 7.52a9 9 0 0 0 4 2.05 18.7 18.7 0 0 0 9.63-.02c6-1.62 10.78-6.1 14.97-10.7a11 11 0 0 1 1.94-1.84 7 7 0 0 1 1.06-.56" class="b"/><path d="M136.16 232.62a61 61 0 0 0 2.48 13.04 180 180 0 0 1 1.89 7 23 23 0 0 1 .84 5.27 10.6 10.6 0 0 1-4.67 8.2c-2.3 1.56-6.16 3.26-8.82 1.62-2.2-1.35-4.21 2.1-2.02 3.46 2.72 1.67 6.22 1.33 9.1.26a16 16 0 0 0 7.57-5.67 13 13 0 0 0 2.78-9.07 64 64 0 0 0-2.64-11.52 58 58 0 0 1-2.51-12.58c-.15-2.56-4.15-2.58-4 0Z" class="e"/><path d="M123.06 233.45c-1.83 7.57-4.17 15-5 22.76a8.7 8.7 0 0 0 .51 5.07 6.5 6.5 0 0 0 3.45 3.15 6 6 0 0 0 4.35-.06 8.5 8.5 0 0 0 3.77-3.38 2 2 0 0 0-.71-2.73 2.05 2.05 0 0 0-2.74.71c-.6.83-1.1 1.59-2.15 1.8a2.1 2.1 0 0 1-2.12-.83c-.72-.92-.55-1.94-.44-3.03q.23-2.31.63-4.6c1.05-6.02 2.87-11.87 4.3-17.8.6-2.5-3.25-3.57-3.85-1.06m103.5-1.08c.94 23.37 1.67 46.75 2.78 70.12q.52 10.87 1.15 21.74a2.04 2.04 0 0 0 2 2c19.46.44 38.94.97 58.4.23q7.12-.27 14.21-.85a2.07 2.07 0 0 0 2-2c2.34-25.18 2.8-50.56 3.06-75.84q.08-8.22.11-16.44c.01-2.57-3.99-2.58-4 0-.1 23.77-.4 47.56-1.68 71.3-.37 7-.84 14-1.49 20.98l2-2c-19.56 1.57-39.22 1.34-58.82.93l-13.8-.3 2 2c-1.41-24.4-2.3-48.83-3.2-73.25l-.72-18.62c-.1-2.57-4.1-2.58-4 0" class="e"/><path d="M68.67 150.26a319 319 0 0 0 3.63 9.3h1.35c3.85-9.5 5.07-13.13 7.78-21.48-1.31-11.3-3.06-24.74-3.06-25.14a9 9 0 0 1 .33-2.11q.12-.47.21-.95c.35-1.57.42-2.37.82-4.03l.03-.08a132 132 0 0 0-5.72-7.33h-2.12c-1.42 1.6-3.74 4.66-5.67 7.26l.18.5a21 21 0 0 1 .99 3.23 14 14 0 0 1 .78 3.74c.01.67-1.82 13.41-3.52 25.4a302 302 0 0 0 3.99 11.7" style="fill:#74c66d"/><path d="M63.7 159a1366 1366 0 0 1-14.11-25q-3.39-6.17-6.66-12.4l-1.7-3.25c-.18-.36-.84-1.22-.82-1.62-.02.51.34-.13.54-.35 1.74-1.83 3.56-3.57 5.4-5.3a2.02 2.02 0 0 0-.4-3.13c-1.9-1.09-3.92-2.08-5.73-3.3l.72.71-.18-.28.27 1c-.02.44.23-.26.32-.41q.23-.38.49-.74a17 17 0 0 1 1.22-1.49 39 39 0 0 1 3.26-3.16 59 59 0 0 1 6.84-5.12l-2.94-1.2a487 487 0 0 0 15.35 53.53 281 281 0 0 0 4.81 12.59 2.06 2.06 0 0 0 2.46 1.4 2 2 0 0 0 1.4-2.46A414 414 0 0 1 58 108.98q-2.11-8-3.94-16.07a2.02 2.02 0 0 0-2.93-1.2 56 56 0 0 0-10.68 8.66c-1.25 1.36-3.32 3.46-3.42 5.43-.09 1.75 1.4 2.47 2.7 3.22l4.19 2.39-.4-3.14q-2.26 2.08-4.41 4.27c-1.32 1.33-3 2.76-2.64 4.84.3 1.79 1.63 3.63 2.47 5.23q1.39 2.67 2.81 5.33 5.71 10.65 11.7 21.16 3.37 5.97 6.8 11.91c1.3 2.23 4.75.22 3.46-2.01Zm14.21-49.28c-3.14 0-6.27-.07-9.4-.07a2 2 0 0 0 0 4c3.13 0 6.26.06 9.4.06a2 2 0 0 0 0-4" class="e"/><path d="M77.8 105.31c-.39 1.65-.66 3.33-1.03 4.98a10 10 0 0 0-.37 2.94c.12 1.7.41 3.4.62 5.09q1.25 9.9 2.42 19.8a2.06 2.06 0 0 0 2 2 2 2 0 0 0 2-2q-1.15-9.75-2.38-19.5c-.22-1.73-.49-3.46-.64-5.2a7 7 0 0 1 .2-2.06c.37-1.65.64-3.33 1.03-4.98.6-2.5-3.26-3.57-3.85-1.06Zm-11.1 33.2 2.8-19.82c.23-1.7.54-3.43.67-5.14a10 10 0 0 0-.42-3.27 34 34 0 0 0-1.6-5.09 2 2 0 0 0-2.73-.71 2.05 2.05 0 0 0-.72 2.73 26 26 0 0 1 1.32 4.6 6 6 0 0 1 .13 1.95c-.19 1.68-.4 3.1-.65 4.82q-1.31 9.44-2.67 18.87a2.07 2.07 0 0 0 1.4 2.46 2 2 0 0 0 2.46-1.4Z" class="e"/><path d="M56.97 86.4c-1.18 1.34-2.27 2.74-3.39 4.12a11 11 0 0 0-2.57 4.15c-.55 2.27.44 3.84 1.6 5.64q2.04 3.16 4.37 6.13a23 23 0 0 0 5.18 5.15 2.05 2.05 0 0 0 2.74-.71c2.76-3.7 5.37-7.56 8.43-11.03a2.04 2.04 0 0 0-.4-3.14q-.41-.3-.81-.62l-.5-.38-.82-.64q-2.23-1.74-4.45-3.5-3.3-2.56-6.56-5.16a2.06 2.06 0 0 0-2.82 0 2 2 0 0 0 0 2.82c4.58 3.7 9.16 7.5 13.94 10.93l-.41-3.14c-3.28 3.72-6.09 7.87-9.06 11.84l2.74-.72a12 12 0 0 1-1.93-1.7 36 36 0 0 1-2.1-2.4 65 65 0 0 1-4.97-7.15l-.34-.59-.1-.18c.1.4.1-.26.11-.33.19-1.18 1.3-2.12 2.01-3q1.44-1.81 2.93-3.55c1.71-1.93-1.11-4.77-2.82-2.83m28.73 74.61c7.99-13.84 16.12-27.71 23.2-42.05a4.2 4.2 0 0 0 .51-3.13 7 7 0 0 0-1.9-2.62q-2.46-2.54-5.07-4.95l-.4 3.15 4.18-2.39c1.26-.72 2.73-1.4 2.72-3.08-.02-2.02-2.15-4.19-3.43-5.57a56 56 0 0 0-10.68-8.66 2.02 2.02 0 0 0-2.93 1.2 487 487 0 0 1-15.35 53.53 280 280 0 0 1-4.82 12.59 2 2 0 0 0 1.4 2.46 2.05 2.05 0 0 0 2.46-1.4 414 414 0 0 0 16.24-50.05q2.1-8 3.93-16.07l-2.94 1.2a59 59 0 0 1 6.84 5.12 38 38 0 0 1 3.26 3.16 18 18 0 0 1 1.13 1.36q.27.37.5.74c.1.16.42.97.4.55l.27-1.01-.19.28.72-.72c-1.8 1.23-3.82 2.22-5.72 3.3a2.02 2.02 0 0 0-.4 3.14 142 142 0 0 1 5.4 5.3c.18.2.56.92.54.35.01.4-.64 1.26-.83 1.62l-1.7 3.25q-3.26 6.23-6.66 12.4c-4.6 8.38-9.34 16.7-14.12 24.98-1.29 2.23 2.17 4.25 3.45 2.02Z" class="e"/><path d="M86.16 89.24c1.01 1.15 1.96 2.35 2.93 3.55.7.87 1.78 1.79 1.99 2.94.02.12.06.64.09.46.02-.16-.01 0-.04.08a5 5 0 0 1-.36.62q-.6.98-1.23 1.93a66 66 0 0 1-3.66 5.12 22 22 0 0 1-4.1 4.2l2.73.72c-2.97-3.97-5.78-8.12-9.06-11.84l-.4 3.14c4.77-3.43 9.35-7.23 13.93-10.92a2 2 0 0 0 0-2.83 2.05 2.05 0 0 0-2.82 0q-3.27 2.6-6.56 5.17l-4.45 3.49-.83.64-.49.38-.8.62a2.04 2.04 0 0 0-.4 3.14c3.05 3.47 5.66 7.33 8.43 11.03a2.04 2.04 0 0 0 2.73.71 23 23 0 0 0 5.18-5.15q2.33-2.96 4.37-6.13c1.16-1.8 2.15-3.37 1.6-5.64a11 11 0 0 0-2.57-4.15c-1.12-1.38-2.2-2.78-3.38-4.11-1.71-1.94-4.53.9-2.83 2.83M67.7 74.64a12.4 12.4 0 0 0 5.95 1.39 9.8 9.8 0 0 0 6.1-1.85 2 2 0 0 0 0-2.83 2.06 2.06 0 0 0-2.82 0c.69-.53-.05 0-.26.12-.17.08-.63.23 0 .02l-.49.17q-.31.1-.63.18a4 4 0 0 0-.73.13c.2-.09.32-.03.01 0l-.4.03-.96.03q-.43 0-.86-.04-.2 0-.4-.03l-.23-.02.18.02c-.13.05-.52-.1-.65-.12q-.32-.07-.62-.16-.27-.08-.53-.18c-.45-.15.41.2 0 0l-.64-.32a2 2 0 1 0-2.02 3.45Zm4.7-13.7a27 27 0 0 1 .62 2.87l-.07-.53a2 2 0 0 1 .01.4l.07-.54-.04.18.2-.47-.06.11.3-.4-.08.09.4-.31-.23.12.48-.2-.38.1.53-.06h-.36l.53.07-.4-.07a1.5 1.5 0 0 0-.8-.04 1.5 1.5 0 0 0-.74.24 2 2 0 0 0-.72 2.74 2 2 0 0 0 1.2.91c.36.05.7.14 1.06.16a3.5 3.5 0 0 0 1.63-.4 2.5 2.5 0 0 0 1.32-1.61 4 4 0 0 0-.01-1.67q-.25-1.4-.6-2.75a2 2 0 0 0-2.47-1.4 2 2 0 0 0-1.2.92 2 2 0 0 0-.2 1.54Zm-14.74-8.28c-.48 1.56-.17 5.15 2.78 5.45 3.9-.02 4.11-4.36 2.8-6.4-1.08-1.66-4.24-2.36-5.58.95m31.37 0c.48 1.56.17 5.15-2.79 5.45-3.9-.02-4.1-4.36-2.8-6.4 1.08-1.66 4.25-2.36 5.59.95M45.8 48.31a6.9 6.9 0 0 0-7.56-1.13 6.6 6.6 0 0 0-3.45 4.44 16.6 16.6 0 0 0 2.41 13.1c1.7 2.53 4.38 4.8 7.63 4.38a2.07 2.07 0 0 0 2-2 2 2 0 0 0-2-2c-2.3.3-3.8-1.6-4.8-3.44a13 13 0 0 1-1.63-5.06 8.7 8.7 0 0 1 .87-5.3c-.31.5.51-.44.24-.24a2 2 0 0 1 .98-.45 2.8 2.8 0 0 1 2.48.53c1.91 1.71 4.75-1.1 2.83-2.83m57.92 2.83a2.7 2.7 0 0 1 2.34-.56 2 2 0 0 1 1.11.47c-.27-.2.55.74.24.25a8.7 8.7 0 0 1 .88 5.3 13 13 0 0 1-1.63 5.07c-1 1.83-2.5 3.73-4.8 3.44a2 2 0 0 0-2 2 2.05 2.05 0 0 0 2 2c5.3.68 8.54-5.04 9.86-9.32 1.2-3.83 1.14-9.79-2.6-12.24a6.9 6.9 0 0 0-8.22.76c-1.93 1.72.9 4.54 2.83 2.83Z" class="e"/><path d="M100.11 64.38a29 29 0 0 1-1.31 4.4c-.2.51-.37.86-.6 1.42-.2.51.14-.27-.03.1l-.19.4a37 37 0 0 1-3.22 5.36c-2.8 3.97-6.64 8.31-11.58 9.47-2.5.6-1.44 4.45 1.07 3.86 5.8-1.37 10.28-6.22 13.65-10.88a38 38 0 0 0 3.5-5.73q.31-.64.58-1.3c.22-.52-.15.34.08-.2l.44-1.04a29 29 0 0 0 1.47-4.8c.53-2.5-3.33-3.58-3.86-1.05Zm-57.46.96c2.5 10.96 10.74 22.9 22.58 24.68a2.06 2.06 0 0 0 2.46-1.4 2 2 0 0 0-1.4-2.46C55.75 84.59 48.73 74.01 46.5 64.29c-.57-2.5-4.43-1.45-3.86 1.06m66.84-16.58a41 41 0 0 0-.64-22.9 31 31 0 0 0-9.95-14.7 2.07 2.07 0 0 0-2.83 0 2 2 0 0 0 0 2.83A27 27 0 0 1 105 26.93a37 37 0 0 1 .64 20.77c-.6 2.5 3.25 3.57 3.86 1.06Zm-26.4-15.14A23 23 0 0 1 90.45 39a31 31 0 0 1 3.07 3.67q.7 1.02 1.32 2.08.28.49.53.99l.28.59.13.3a2.07 2.07 0 0 0 2.46 1.4 2 2 0 0 0 1.4-2.46 30 30 0 0 0-6.19-9.22 26 26 0 0 0-8.35-6.17 2.06 2.06 0 0 0-2.74.71 2 2 0 0 0 .72 2.74M50.44 47.25a83 83 0 0 1 7.38-7.23 45 45 0 0 1 3.7-2.92 21 21 0 0 0 1.9-1.22q1-.44-1.06-.54a2 2 0 0 1 .09.48 7 7 0 0 0-.03 1.01 3.08 3.08 0 0 0 3.49 3.2c1.42-.24 2.87-1.4 4.1-2.12a86 86 0 0 1 9.34-5 2 2 0 0 0 .72-2.73 2.05 2.05 0 0 0-2.74-.72 86 86 0 0 0-9.34 5l-2.07 1.2-.53.3q-1 .43 1.03.87a2 2 0 0 0 .03-.92c-.08-1.84-.92-4.03-3.07-4.11-1.49-.06-3.02 1.23-4.17 2.05a57 57 0 0 0-4.22 3.34 84 84 0 0 0-7.39 7.24c-1.72 1.9 1.1 4.74 2.83 2.82ZM29.06 241.34c7.01.84 14.23.68 21.29.7a43 43 0 0 0 10.11-.7 15.8 15.8 0 0 0 11.3-9.06c2-4.58 2.61-9.33 3.58-14.18h-3.86c.84 4.54 1.46 9.04 3.23 13.34a16 16 0 0 0 4.47 6.51 18 18 0 0 0 7.17 3.4c3.4.82 6.9.7 10.37.65q5.9-.07 11.8-.27a112 112 0 0 0 11.25-.74 2 2 0 0 0 1.4-2.47 2.06 2.06 0 0 0-2.46-1.4c.61-.08-.27.03-.39.04a45 45 0 0 1-2.88.24q-2.64.17-5.28.26-5.7.22-11.43.31c-2.74.04-5.52.18-8.25 0a17 17 0 0 1-7.01-1.94 10.8 10.8 0 0 1-4.63-5.06c-2.1-4.36-2.63-9.22-3.5-13.93-.35-1.92-3.48-1.9-3.85 0-.79 3.95-1.27 7.88-2.6 11.69a14 14 0 0 1-3.35 5.78 13 13 0 0 1-5.93 2.94c-2.97.74-6.08.6-9.12.6q-5.46-.02-10.91-.15c-3.5-.09-7.04-.14-10.51-.56a2 2 0 0 0-2 2 2.05 2.05 0 0 0 2 2Z" class="e"/><path d="M73.07 400.67c5.73 1.44 11.93 1.59 17.82 1.75a62 62 0 0 0 19.84-2.59 2.1 2.1 0 0 0 1.47-1.93q1.25-30.73 2.22-61.46l2.07-61.4q.64-17.84 1.37-35.67c.1-2.57-3.9-2.57-4 0q-1.3 31.4-2.3 62.8l-2.05 61.02q-.61 17.36-1.3 34.71l1.46-1.93a58 58 0 0 1-18.78 2.45c-5.53-.16-11.36-.25-16.76-1.6-2.5-.63-3.56 3.22-1.06 3.85" class="e"/><path d="M29.3 238.95q1.3 31.5 2.32 63.02l2.05 61q.61 17.46 1.31 34.93a2.1 2.1 0 0 0 1.47 1.93 61 61 0 0 0 19.85 2.59c5.89-.17 12.09-.3 17.83-1.74 2.5-.63 1.44-4.49-1.07-3.86-5.4 1.35-11.22 1.44-16.76 1.6a58 58 0 0 1-18.78-2.45L39 397.9q-1.25-30.83-2.23-61.67-1.02-30.69-2.07-61.37-.64-17.96-1.38-35.91c-.1-2.57-4.1-2.58-4 0Z" class="e"/><path d="M71.6 252.6v145.98c0 2.57 4 2.58 4 0V252.6c0-2.57-4-2.58-4 0m31.19-149.7c6.42 2.6 12.88 5.37 18.68 9.2 4.36 2.87 8.09 6.48 10.16 11.35 2.24 5.28 2.86 11.2 3.4 16.86q.5 5.4.95 10.83 2.45 29.35 4.5 58.73c.24 3.4.55 6.8.7 10.2.03.58.16 1.74-.25 2.25.24-.3-.18.07-.32.12a9 9 0 0 1-1.2.25c-1.76.25-3.54.4-5.31.55q-6.08.57-12.18.86c-2.56.13-2.58 4.13 0 4q5.67-.27 11.34-.78 2.58-.23 5.16-.52a11 11 0 0 0 4.49-1.04c2.46-1.45 2.35-4.5 2.18-7l-.31-4.6q-.99-14.17-2.08-28.34-1.2-15.95-2.5-31.9-.49-6-1.02-12c-.53-5.77-1.06-11.67-2.84-17.22a28 28 0 0 0-9.19-13.39c-5.3-4.26-11.5-7.26-17.71-9.94q-2.78-1.2-5.59-2.33a2 2 0 0 0-2.46 1.4 2.05 2.05 0 0 0 1.4 2.46M26.38 224.1q-5.47-.26-10.92-.74-2.24-.2-4.47-.44-1.05-.1-2.11-.23a6 6 0 0 1-.86-.16c-.18-.05-.82-.4-.66-.21-.77-.95-.12-3.61-.02-4.8q.2-2.33.37-4.65c.7-9.05 1.3-18.1 1.93-27.16.7-10.06 1.38-20.13 2.13-30.2.64-8.72.88-17.77 2.83-26.32 1.28-5.6 3.68-10.38 8.06-14.18 5.52-4.8 12.55-7.93 19.23-10.74a2.07 2.07 0 0 0 1.4-2.46 2 2 0 0 0-2.46-1.4c-6.43 2.7-12.95 5.6-18.56 9.82a28.7 28.7 0 0 0-10 12.82c-2.16 5.6-2.77 11.75-3.32 17.7q-.5 5.6-.91 11.23c-.78 10.28-1.48 20.56-2.2 30.85-.66 9.68-1.31 19.36-2.04 29.04l-.4 5.03a23 23 0 0 0-.18 5.33 4.7 4.7 0 0 0 2.46 3.67 13 13 0 0 0 4.56.94q5.34.59 10.7.94 2.72.18 5.44.32c2.57.12 2.57-3.88 0-4" class="e"/><path d="M28.64 135.54c-.2 12.58-.56 25.15-.9 37.72-.4 15.38-.81 30.75-1.14 46.13-.14 6.52-.27 13.04-.3 19.57-.03 2.57 3.97 2.58 4 0 .07-13 .43-25.99.75-38.98l1.19-45.77q.24-9.33.4-18.67c.03-2.57-3.97-2.57-4 0m233.78-35.96a12 12 0 0 0 5.73 1.34 9.5 9.5 0 0 0 5.9-1.8 2 2 0 0 0 .6-1.4 2 2 0 0 0-.6-1.42 2.06 2.06 0 0 0-2.82 0c.69-.54-.02-.02-.24.1-.16.08-.61.22.02 0l-.46.18c-.42.13-.89.15-1.3.3.21-.08.33-.04.03-.01a12 12 0 0 1-2.5 0l-.22-.03.18.02a12 12 0 0 1-1.2-.27q-.26-.07-.5-.17c-.45-.15.42.2.01.02l-.61-.31a2 2 0 1 0-2.02 3.45m4.45-13.16a26 26 0 0 1 .6 2.75l-.07-.54v.38l.08-.53-.04.17.2-.47-.06.1.31-.4-.09.09.4-.31-.22.11.48-.2-.36.1.53-.06h-.35l.53.07-.38-.07a1.5 1.5 0 0 0-.8-.04 1.5 1.5 0 0 0-.75.24 2 2 0 0 0-.71 2.74l.3.4a2 2 0 0 0 .9.52c.34.04.68.13 1.03.15a3.4 3.4 0 0 0 1.6-.4 2.4 2.4 0 0 0 1.31-1.59 4 4 0 0 0-.01-1.64q-.23-1.33-.58-2.63a2 2 0 0 0-2.46-1.4 2 2 0 0 0-1.2.92 2 2 0 0 0-.2 1.54Zm-13.96-7.94c-.46 1.5-.16 4.92 2.67 5.21 3.73-.02 3.93-4.17 2.67-6.12-1.03-1.6-4.05-2.25-5.34.91m29.9 0c.46 1.5.16 4.92-2.66 5.21-3.74-.02-3.94-4.17-2.68-6.12 1.03-1.6 4.05-2.25 5.34.91m10.68 11.47a18 18 0 0 1-1.36 4.35q-.25.58-.47 1.17c-.1.28.21-.43-.04.09l-.19.39a37 37 0 0 1-3.13 5.17c-2.68 3.77-6.34 7.86-11.01 8.96-2.51.59-1.45 4.45 1.06 3.86 5.57-1.31 9.86-5.93 13.1-10.38a38 38 0 0 0 3.4-5.52 24 24 0 0 0 2.49-7.02 2.07 2.07 0 0 0-1.4-2.46 2 2 0 0 0-2.46 1.4Zm-55.25.96a35.6 35.6 0 0 0 7.71 15.17c3.76 4.35 8.78 8.05 14.58 8.93a2.06 2.06 0 0 0 2.46-1.4 2 2 0 0 0-1.4-2.46c-10.22-1.55-17.28-11.88-19.49-21.3-.59-2.5-4.44-1.45-3.86 1.06" class="e"/><path d="M241.6 74.53a6.8 6.8 0 0 0-7.42-1.1 6.5 6.5 0 0 0-3.38 4.34 16.2 16.2 0 0 0 2.35 12.78c1.66 2.48 4.29 4.7 7.46 4.3a2.07 2.07 0 0 0 2-2 2 2 0 0 0-2-2c-2.21.28-3.66-1.55-4.62-3.33a13 13 0 0 1-1.57-4.9 12 12 0 0 1 .07-3.05 5 5 0 0 1 .77-2.07c-.33.52.5-.44.21-.22a2 2 0 0 1 .94-.43 2.6 2.6 0 0 1 2.35.5c1.92 1.71 4.76-1.1 2.83-2.83Zm55.36 2.83a2.6 2.6 0 0 1 2.23-.53 2 2 0 0 1 1.06.45c-.3-.21.53.73.22.22a5 5 0 0 1 .76 2.07 12 12 0 0 1 .08 3.05 13 13 0 0 1-1.58 4.9c-.96 1.78-2.4 3.61-4.62 3.32a2 2 0 0 0-2 2 2.05 2.05 0 0 0 2 2c5.17.67 8.35-4.91 9.64-9.1 1.16-3.75 1.1-9.57-2.56-11.97a6.8 6.8 0 0 0-8.06.76c-1.92 1.71.91 4.53 2.83 2.82Z" class="e"/><path d="M301.98 74.34c2.21-8.99 1.54-18.62-2.9-26.85a30 30 0 0 0-6.86-8.5 42 42 0 0 0-9.4-6.3 37.2 37.2 0 0 0-27.13-1.14 35.7 35.7 0 0 0-17.46 13.5c-5.87 8.55-7.18 19.35-4.63 29.29.64 2.49 4.5 1.43 3.86-1.07a31.1 31.1 0 0 1 16.9-36.9 33.4 33.4 0 0 1 24.14-1.13 33 33 0 0 1 9.36 5.35 28 28 0 0 1 6.27 6.47c5.2 7.7 6.18 17.35 4 26.21-.62 2.5 3.23 3.57 3.85 1.07" class="e"/><path d="M276.31 53.35c-4.63 5.13-11.12 8.41-17.1 11.7a90 90 0 0 1-14.9 6.11c-2.43.81-1.39 4.68 1.06 3.86a96 96 0 0 0 15.86-6.52c6.27-3.44 13.05-6.94 17.91-12.33 1.72-1.9-1.1-4.74-2.83-2.83Z" class="e"/><path d="M275.8 55.3c1.54 5 3.55 9.74 6.94 13.78 3.08 3.67 7.05 7.22 11.74 8.58 2.48.71 3.54-3.15 1.06-3.86-4.01-1.16-7.35-4.43-9.97-7.55-2.93-3.48-4.59-7.72-5.91-12.02-.76-2.46-4.62-1.4-3.86 1.06m-22.84 54.62c-1.1 1.24-2.1 2.55-3.14 3.83a10 10 0 0 0-2.42 3.91c-.53 2.15.4 3.65 1.49 5.35q1.9 2.96 4.09 5.73a22 22 0 0 0 4.83 4.8 2.05 2.05 0 0 0 2.74-.71c2.57-3.43 4.98-7 7.82-10.22a2.04 2.04 0 0 0-.4-3.14l-.75-.57-.43-.33-.77-.6-4.13-3.24-6.1-4.8a2.06 2.06 0 0 0-2.82 0 2 2 0 0 0 0 2.82c4.26 3.44 8.53 6.98 12.98 10.18l-.4-3.15c-3.07 3.47-5.68 7.33-8.45 11.03l2.74-.72a11 11 0 0 1-1.76-1.54q-1.02-1.08-1.95-2.23a60 60 0 0 1-4.6-6.63l-.31-.54-.1-.18c.12.48.11-.19.12-.21a11 11 0 0 1 1.83-2.7q1.33-1.7 2.72-3.3c1.7-1.93-1.12-4.77-2.83-2.84" class="e"/><path d="M280.08 112.75c.95 1.07 1.83 2.2 2.73 3.3.63.8 1.62 1.63 1.81 2.67.02.1.06.57.09.33.02-.16 0-.03-.03.06a5 5 0 0 1-.34.58 68 68 0 0 1-4.51 6.53q-.97 1.21-2.03 2.33a18 18 0 0 1-1.42 1.32c.28-.22-.28.2-.34.23l2.74.72c-2.77-3.7-5.39-7.56-8.44-11.03l-.4 3.14c4.45-3.2 8.71-6.73 12.98-10.17a2 2 0 0 0 0-2.83 2.05 2.05 0 0 0-2.83 0q-3.03 2.42-6.1 4.8-2.06 1.63-4.13 3.24l-.77.6c-.14.11-.95.74-.42.34l-.75.56a2.04 2.04 0 0 0-.4 3.15c2.83 3.2 5.25 6.79 7.81 10.21a2.04 2.04 0 0 0 2.74.72 22 22 0 0 0 4.83-4.8q2.19-2.77 4.1-5.74c1.09-1.7 2.01-3.2 1.49-5.34a10 10 0 0 0-2.42-3.92c-1.05-1.28-2.06-2.58-3.15-3.82-1.72-1.94-4.54.9-2.84 2.82m-42.9 9.62a55 55 0 0 0-13.42 7.65 28.5 28.5 0 0 0-8.49 11.86c-3.16 8.05-4.15 16.72-5.2 25.24-2.26 18.53-4 37.13-6.55 55.62-.33 2.4-1.05 4.95.81 6.93a8.5 8.5 0 0 0 5.28 2.15c5.74.72 11.54 1.23 17.32 1.51 2.58.13 2.57-3.87 0-4-5.14-.25-10.27-.73-15.4-1.3l-1.32-.14-.52-.06c-.33-.05.52.1-.08-.02a7 7 0 0 1-1.91-.56c-.45-.25-.62-.37-.67-.85a12 12 0 0 1 .34-2.6c1.23-8.87 2.25-17.78 3.26-26.68 1.04-9.08 2.03-18.18 3.11-27.26.92-7.7 1.71-15.26 3.96-22.76a39 39 0 0 1 2.88-7.3 23 23 0 0 1 4.8-5.9c3.97-3.63 8.93-5.97 13.81-8.08a2 2 0 0 0 .72-2.74 2.05 2.05 0 0 0-2.74-.71Z" class="e"/><path d="M227.36 155.17c.02 5.87.61 11.68 1.05 17.52.42 5.55.64 11.13.87 16.7a90 90 0 0 1-.01 13.07 258 258 0 0 1-1.74 12.66q-1.23 7.84-2.52 15.68a2.06 2.06 0 0 0 1.4 2.46 2 2 0 0 0 2.46-1.4c1.5-9.27 3.13-18.53 4.23-27.86a81 81 0 0 0 .27-12.32q-.28-8.47-.81-16.94c-.41-6.53-1.18-13.02-1.2-19.57 0-2.57-4-2.58-4 0m42.28 20.03q9.13-21.4 16.61-43.46c1.52-4.47 2.9-8.97 4.05-13.55l-2.94 1.2a31 31 0 0 1 5.98 4.51 19 19 0 0 1 4.55 5.6l-.27-1 .01.26.28-1.01-.18.23.72-.71q-2.79 1.78-5.61 3.52a2.03 2.03 0 0 0 0 3.45q1.55 1.07 3.1 2.1c.62.42 2.2 1.33 2.34 2v-1.06a7 7 0 0 1-1.1 2.2l-1.29 2.24q-1.33 2.3-2.7 4.58-2.9 4.8-5.9 9.55-5.91 9.36-12.01 18.6c-1.42 2.16 2.04 4.16 3.45 2.02 5.2-7.9 10.36-15.83 15.31-23.9q3.61-5.84 7.02-11.82a6 6 0 0 0 1.15-2.94 4 4 0 0 0-1.68-2.95 61 61 0 0 0-5.67-4.07v3.45q1.61-1 3.21-2.04a13 13 0 0 0 2.96-2c1.65-1.88-.6-4.37-1.8-5.86a35 35 0 0 0-9.85-8.4 2.02 2.02 0 0 0-2.94 1.2 230 230 0 0 1-7.65 23.7c-2.65 7.2-5.15 14.48-8.04 21.6-1.47 3.6-3.04 7.16-4.56 10.75a2.07 2.07 0 0 0 .71 2.73 2 2 0 0 0 2.74-.71Z" class="e"/><path d="M268.38 173.18q-8.96-21.04-16.29-42.73c-1.48-4.4-2.85-8.82-3.96-13.32a2.02 2.02 0 0 0-2.94-1.2 35 35 0 0 0-9.85 8.4c-1.18 1.46-3.27 3.73-1.96 5.66.64.95 1.97 1.47 2.93 2.08q1.69 1.09 3.4 2.16v-3.46a61 61 0 0 0-5.68 4.08 4 4 0 0 0-1.68 2.94 6 6 0 0 0 1.16 2.95q3.4 5.98 7.01 11.82a954 954 0 0 0 15.32 23.9c1.4 2.14 4.87.14 3.45-2.02q-6.1-9.25-12.02-18.6-2.93-4.66-5.78-9.37-1.37-2.28-2.7-4.58-.66-1.11-1.3-2.24a8 8 0 0 1-1.2-2.38v1.06c.12-.66 1.73-1.59 2.33-2 1.03-.71 2.08-1.38 3.1-2.1a2.03 2.03 0 0 0 0-3.45q-2.8-1.74-5.6-3.52l.72.71-.18-.24.27 1.01.02-.25-.28 1a19 19 0 0 1 4.56-5.6 31 31 0 0 1 5.98-4.5l-2.94-1.2A231 231 0 0 0 252 142.1c2.68 7.3 5.2 14.67 8.16 21.87 1.54 3.76 3.17 7.49 4.77 11.23a2 2 0 0 0 2.73.71 2.05 2.05 0 0 0 .72-2.73m-41.1 58c6.48.44 13 .48 19.49.47a34 34 0 0 0 8.9-.8 15 15 0 0 0 9.63-7.07c2.24-4.06 3.29-8.86 4.2-13.36h-3.85c.88 4.67 2.03 9.94 4.58 14.03 2.74 4.4 7.64 6.45 12.63 7.03a63 63 0 0 0 8.2.12q5.47-.08 10.95-.28c3.35-.13 6.73-.23 10.05-.69a2 2 0 0 0 1.4-2.46 2.05 2.05 0 0 0-2.46-1.4 54 54 0 0 1-2.85.24q-2.32.15-4.66.25-5.22.2-10.46.3c-6.05.1-14.13 1.11-18.53-4a18 18 0 0 1-3.03-6.38 66 66 0 0 1-1.97-7.83c-.36-1.93-3.47-1.9-3.85 0a55 55 0 0 1-3.12 11.02 11.2 11.2 0 0 1-7.92 6.63 30 30 0 0 1-7.84.65q-4.53 0-9.06-.08a208 208 0 0 1-10.42-.4c-2.57-.17-2.56 3.83 0 4M55.6 424.25a37 37 0 0 0 6.8-3.23 30 30 0 0 0 5.17-4.27 13 13 0 0 0 3.27-4.9 15.4 15.4 0 0 0 .26-7.12 10 10 0 0 0-2.65-5.3 5.8 5.8 0 0 0-6.38-.62c-3.5 1.6-6.77 3.57-10.76 2.9a26 26 0 0 1-3.08-.74c-1.23-.36-2.47-.95-3.73-1.2-2.23-.41-4.25.79-5.93 2.12-1.76 1.4-3.27 3.07-4.95 4.55-2.06 1.83-4.13 3.64-6.14 5.53a48 48 0 0 0-5.67 5.97 13.6 13.6 0 0 0-2.5 7.46 15 15 0 0 0 1.17 7.08 9 9 0 0 0 5.51 4.58 21 21 0 0 0 17.3-2.11 36 36 0 0 0 6.5-5 66 66 0 0 0 3.02-3.06 11 11 0 0 1 3.27-2.83 2 2 0 0 0 .72-2.74 2.05 2.05 0 0 0-2.74-.71c-2.1.98-3.49 2.85-5.06 4.49a47 47 0 0 1-4.65 4.3 19.7 19.7 0 0 1-11.79 4.65 13.5 13.5 0 0 1-6.53-1.3 5.5 5.5 0 0 1-2.63-4.44 13 13 0 0 1 .6-6.16c.8-2.04 2.52-3.6 4.03-5.12 3.28-3.32 6.96-6.2 10.29-9.48a19 19 0 0 1 4.11-3.48c1.59-.85 3.35.36 4.94.82 3.41.99 6.83 1.4 10.24.23a38 38 0 0 0 5.7-2.45c1.1-.59 2.12-.82 2.78.15a9 9 0 0 1 1.28 5.74 6.8 6.8 0 0 1-1.93 4.59 24 24 0 0 1-4.38 3.95 32 32 0 0 1-6.52 3.3 2.07 2.07 0 0 0-1.4 2.46 2 2 0 0 0 2.46 1.4m35.35-3.85a32 32 0 0 1-5.85-2.83 25 25 0 0 1-4.13-3.4 10 10 0 0 1-2.52-3.56 11 11 0 0 1-.01-5.71c.29-1.05.85-2.6 1.91-2.78a3 3 0 0 1 1.82.54q1.16.62 2.36 1.13a24 24 0 0 0 5.62 1.92 15 15 0 0 0 5.08-.14c2.17-.38 4.15-1.3 6.28-1.8 1.32-.31 2.64.95 3.56 1.77 1.47 1.3 2.84 2.73 4.31 4.04q2.76 2.41 5.46 4.9c3.25 3.04 7.08 6.14 7.33 10.9a10.6 10.6 0 0 1-.86 5.55c-1.01 1.83-3.08 2.44-5 2.82-5 1-9.88-.6-13.96-3.47a39 39 0 0 1-5.3-4.61c-1.76-1.8-3.3-3.99-5.62-5.08a2.06 2.06 0 0 0-2.74.72 2 2 0 0 0 .72 2.74c2.2 1.02 3.7 3.35 5.4 5.03a42 42 0 0 0 5.85 4.89 22 22 0 0 0 14.8 3.93 14 14 0 0 0 7.45-2.7 9.6 9.6 0 0 0 3.08-6.2 17 17 0 0 0-.6-7.79 18 18 0 0 0-4.46-6.36c-3.66-3.8-7.8-7.07-11.56-10.75a17 17 0 0 0-5.35-3.98c-2.35-.94-4.32.1-6.57.78a18 18 0 0 1-5.81.96 17 17 0 0 1-5.81-1.84c-1.93-.88-3.76-2.2-5.99-1.85a5.8 5.8 0 0 0-4.36 3.44 13.6 13.6 0 0 0-1.3 7.7 11 11 0 0 0 2.7 6.26 27 27 0 0 0 5.19 4.73 36 36 0 0 0 7.81 3.95 2 2 0 0 0 2.46-1.4 2.05 2.05 0 0 0-1.4-2.45m175.16-94.42c.53 9.86.47 19.77.52 29.64q.09 17.08.02 34.16l-.03 10.2c0 2.58 4 2.59 4 0l.05-23.88c0-11.92 0-23.84-.18-35.75-.06-4.8-.12-9.59-.38-14.37-.14-2.56-4.14-2.57-4 0m-27.08-.7c1.85 20.03 3.05 40.13 3.84 60.24q.33 8.24.53 16.5c.07 2.57 4.07 2.58 4 0q-.72-30.33-3.03-60.6-.6-8.08-1.34-16.14a2.05 2.05 0 0 0-2-2 2 2 0 0 0-2 2m54.73 0c-2.2 20-2.7 40.12-3.14 60.22q-.15 7.86-.35 15.72c-.07 2.58 3.93 2.57 4 0 .52-19.56.66-39.13 1.97-58.65q.59-8.67 1.52-17.3a2 2 0 0 0-2-2 2.05 2.05 0 0 0-2 2" class="e"/><path d="M281.47 423.55c-.62-.28-1.27-.49-1.91-.72a26 26 0 0 1-7.14-4.34c-1.48-1.16-3.82-4-3.82-5.7 0-2.82.07-6.82.07-8.82 0-1.82.7-2.28 2.48-2.65a5 5 0 0 1 2.9.7 62 62 0 0 0 8 3.26 11 11 0 0 0 10-2.26c2.77-1 6.15 2.92 8.44 5.1 4.34 3.86 8.53 7.38 12.34 11.76a10 10 0 0 1 1.88 3.46 14 14 0 0 1 .6 3.76c.04 2.69-.32 5.63-2.23 7.52a9 9 0 0 1-4 2.05 18.7 18.7 0 0 1-9.63-.02c-6.01-1.62-10.79-6.1-14.97-10.7a11 11 0 0 0-1.95-1.84 7 7 0 0 0-1.06-.56" class="b"/><path d="M282 421.62a33 33 0 0 1-5.34-2.5 21 21 0 0 1-4.1-3.24 7.5 7.5 0 0 1-1.96-3.09 48 48 0 0 1 .05-5.7l.02-2.44a7 7 0 0 0 .01-1.01c-.05-.3.15-.3-.02-.12.5-.55 1.94.01 2.7.4a44 44 0 0 0 8.46 3.37 13.1 13.1 0 0 0 11.64-2.85l-.88.51c1.44-.44 3.12 1.35 4.07 2.23 1.68 1.56 3.32 3.15 5.04 4.67 2 1.77 4 3.55 5.9 5.42 1.79 1.75 3.97 3.6 4.96 5.95a12.4 12.4 0 0 1 .52 7.05 5.3 5.3 0 0 1-3.94 4.3 17.5 17.5 0 0 1-14.53-2.26 36 36 0 0 1-6.2-5.12c-1.86-1.87-3.48-4.23-5.92-5.37a2.06 2.06 0 0 0-2.74.72 2 2 0 0 0 .72 2.73c2.2 1.03 3.71 3.36 5.41 5.04a43 43 0 0 0 5.7 4.79 22 22 0 0 0 15.22 4.02 13.5 13.5 0 0 0 7.39-2.8 10 10 0 0 0 3-6.62 16 16 0 0 0-.82-7.64c-1.02-2.6-2.88-4.53-4.8-6.49-3.73-3.8-7.85-7.18-11.69-10.85-1.54-1.47-3.3-3.06-5.4-3.65a5 5 0 0 0-2.96.02c-1.07.36-1.95 1.38-3.02 1.84-3.95 1.69-7.75-.08-11.4-1.67-1.68-.73-3.3-1.85-5.17-1.96-1.98-.1-4.26.81-4.96 2.79a9 9 0 0 0-.3 3.03q0 1.98-.04 3.96c-.02 2.54-.25 4.83 1.13 7.07a19 19 0 0 0 5.36 5.37 36 36 0 0 0 7.83 3.95 2 2 0 0 0 2.46-1.4 2.05 2.05 0 0 0-1.4-2.45" class="e"/><path d="M256.37 425.48a37 37 0 0 0 7.15-3.48 22 22 0 0 0 4.94-4.33 8.8 8.8 0 0 0 2.25-5.8l-.07-7.07c-.02-1.93-.24-3.78-2.11-4.8-2.12-1.15-4.36-.7-6.4.35a46 46 0 0 1-4.63 2.01 13 13 0 0 1-5.66 1.3 9 9 0 0 1-2.92-.69c-1.12-.47-2.01-1.5-3.13-1.88-2.03-.68-4.17.26-5.8 1.46-1.8 1.32-3.28 2.97-4.94 4.46-2.05 1.85-4.15 3.65-6.18 5.53a60 60 0 0 0-6.03 6.2 13.5 13.5 0 0 0-2.79 7.4 15 15 0 0 0 .97 7.17 9 9 0 0 0 5.5 4.92c5.76 2.1 12.32 1 17.52-2.05a37 37 0 0 0 6.8-5.3q1.49-1.42 2.87-2.93a10 10 0 0 1 3.14-2.68 2 2 0 0 0 .71-2.74 2.05 2.05 0 0 0-2.73-.71c-2.23 1.03-3.69 3.07-5.36 4.79a40 40 0 0 1-5.25 4.68c-4.1 2.95-9 4.7-14.1 3.75-2.2-.4-4.54-1.13-5.48-3.37a12 12 0 0 1-.4-6.64c.55-2.6 2.07-4.28 3.86-6.14 1.9-1.98 3.93-3.84 5.97-5.67s4.09-3.65 6.07-5.55c1.02-.98 2.97-3.21 4.59-2.72l-.88-.52a13.2 13.2 0 0 0 10.39 3.1c3.05-.43 6.13-1.95 8.9-3.23 1-.45 1.98-1.22 3.1-.9.15.03.43.13.44.14-.2-.18 0-.17-.05.07a10 10 0 0 0 .02 2q.02 2.86.06 5.68a5 5 0 0 1-1.18 3.68 18 18 0 0 1-4.2 3.7 32 32 0 0 1-6.02 2.94 2.07 2.07 0 0 0-1.4 2.46 2 2 0 0 0 2.46 1.4m40.05-327.06a6.35 6.35 0 0 1 6.34 3.56c1.07 2.4.78 5.25.29 7.74-.64 3.23-1.63 6.45-1.57 9.78a17 17 0 0 0 2.74 8.92c1.4 2.16 4.86.15 3.45-2.02a13.7 13.7 0 0 1-2.02-9.55c.48-3.42 1.64-6.71 1.8-10.19a12.7 12.7 0 0 0-2.51-8.67 10.5 10.5 0 0 0-8.52-3.57c-2.57.1-2.58 4.1 0 4" class="e"/><path d="M313.14 203.14c3.49 1.09 7.37 1.5 10.86.2a14 14 0 0 0 7.36-6.44c3.75-6.74 2.32-14.58.7-21.72a221 221 0 0 0-6.53-23.07q-1.92-5.62-4.15-11.13a31 31 0 0 0-5.62-9.63c-5.14-5.66-12.71-7.09-19.49-9.83a2 2 0 0 0-2.46 1.4 2.05 2.05 0 0 0 1.4 2.46c5.32 2.15 11.08 3.3 15.7 6.89a19 19 0 0 1 5.7 7.58c1.41 3.27 2.67 6.61 3.88 9.96q3.67 10.17 6.34 20.66c.9 3.53 1.76 7.09 2.4 10.68a25 25 0 0 1 .08 10.04 12 12 0 0 1-4.7 7.42c-3.17 2.07-6.95 1.76-10.4.68-2.47-.77-3.52 3.09-1.07 3.85" class="e"/><path d="M302.85 179a25 25 0 0 0-7.17.93 5 5 0 0 0-2.27 1.6l-.04-.26c-.39-2.67-1.36-5.06-1.3-7.8l-.46-23.27c.44-6.12.76-9.18 1.4-13.73a71 71 0 0 1 2.48-12.08 1.86 1.86 0 0 1 2.13-1.3 28 28 0 0 1 4.65 1.48c.66.28.89 1.39.73 2.1-.8 3.68-1.47 7.65-1.82 10.49a430 430 0 0 0-1.71 15.29Z" class="b"/><path d="M301.47 152.45a232 232 0 0 1 3.37-24.8 5 5 0 0 0-.17-3.25 4.2 4.2 0 0 0-2.78-2.12c-1.85-.7-4.33-1.78-6.26-.84-2.2 1.07-2.58 3.93-3.08 6.09a88 88 0 0 0-1.33 7.45 213 213 0 0 0-1.6 15.22c-.19 2.57 3.81 2.56 4 0 .57-8.02 1.19-16.31 3.43-24.07l.32-1.14c-.03.03-.13.08 0 .09a12 12 0 0 1 2.77.8 6 6 0 0 0 1.16.44c.51.05-.36-.22-.27-.29-.02.02.05.1.05.1a6 6 0 0 0-.38 1.79l-.35 1.8c-.79 4.2-1.3 8.42-1.8 12.66q-.6 5.03-1.08 10.07a2 2 0 0 0 2 2 2.04 2.04 0 0 0 2-2" class="e"/><path d="M319.1 240.7c1.55-.03 2.86-1.42 3.56-2.66 1.18-2.06.5-4.98.27-6.05-2.72-12.47-4.56-19.7-6.96-29.84-.8-3.44-2.77-12.21-4.77-18.98a6.5 6.5 0 0 0-6.07-4.21c-4.47 0-7.66.32-9.45.96a5 5 0 0 0-3.27 3.6 29 29 0 0 0-.24 8.03c.8 14.92 2.51 36.66 3.13 44.94a5.4 5.4 0 0 0 3.23 4.73 7 7 0 0 0 5.46.68c5.43-1 8.57-1.06 15.11-1.2" class="b"/><path d="M319.63 242.63c3.38-.54 5.52-3.86 5.7-7.07.16-2.89-.87-5.92-1.5-8.7-1.32-5.94-2.73-11.86-4.15-17.78-1.2-5.04-2.36-10.09-3.58-15.13q-1.1-4.62-2.37-9.22a13 13 0 0 0-1.54-4.05 8.4 8.4 0 0 0-3.4-2.84c-2.79-1.28-6.06-.94-9.04-.67-2.5.23-5.11.58-7.09 2.27-2.57 2.19-2.71 5.86-2.64 9 .07 2.95.3 5.9.48 8.85.7 11.34 1.55 22.67 2.4 34a43 43 0 0 0 .63 6.77 7.9 7.9 0 0 0 6.05 5.67c2.88.7 6.19.09 9.1-.1q5.22-.37 10.42-.92a2.06 2.06 0 0 0 2-2 2 2 0 0 0-2-2c-5.49.56-11.01 1.11-16.53 1.26-1.56.05-3.44-.11-4.56-1.58-1-1.3-.82-3.3-.94-4.86-.75-9.9-1.5-19.8-2.16-29.72-.35-5.38-.91-10.82-.9-16.22 0-2.3.03-5.03 2.6-5.86a24 24 0 0 1 6.68-.74c2.19-.05 4.81.09 5.87 2.4a24 24 0 0 1 1.08 3.77q.6 2.19 1.14 4.38c1.16 4.6 2.2 9.23 3.3 13.85 1.36 5.72 2.75 11.43 4.08 17.16q1.18 5.07 2.27 10.17c.5 2.32.53 5.58-2.47 6.06a2 2 0 0 0-1.4 2.46 2.05 2.05 0 0 0 2.47 1.4M6.92 224.1a94 94 0 0 0-1.19 8.03 2 2 0 0 0 1.47 1.93 92 92 0 0 0 10.08 1.3q5.16.51 10.31 1.11a2 2 0 0 0 2-2 2.05 2.05 0 0 0-2-2q-5-.58-10.01-1.08-2.12-.2-4.24-.37a41 41 0 0 1-5.08-.82l1.47 1.93c.22-2.35.62-4.65 1.04-6.96a2.06 2.06 0 0 0-1.4-2.46 2 2 0 0 0-2.46 1.4Zm108.73-88.56c.2 12.58.56 25.15.9 37.72.4 15.38.81 30.75 1.14 46.13.14 6.52.27 13.04.3 19.57.02 2.57 4.02 2.58 4 0-.07-13-.43-25.99-.76-38.98l-1.18-45.77q-.24-9.33-.4-18.67c-.04-2.57-4.04-2.58-4 0" class="e"/><path d="M120.7 236.47q5.33-.62 10.65-1.14c1.6-.15 3.2-.24 4.79-.4a33 33 0 0 0 2.02-.3q1.47-.26 2.93-.58a2 2 0 0 0 1.47-1.92c-.25-2.7-.7-5.36-1.18-8.03a2 2 0 0 0-2.46-1.4 2.04 2.04 0 0 0-1.4 2.46c.42 2.32.82 4.62 1.04 6.96l1.47-1.93a29 29 0 0 1-4.23.76l-4.8.41c-3.43.33-6.87.73-10.3 1.11a2.06 2.06 0 0 0-2 2 2 2 0 0 0 2 2m85.13-7.52c-3.48 7.85-7.1 15.8-9 24.22a46 46 0 0 0-.98 6.12 10 10 0 0 0 .66 5.64 5.5 5.5 0 0 0 5.04 2.93 7.7 7.7 0 0 0 5.63-3.44 66 66 0 0 0 6.9-12.17 2.06 2.06 0 0 0-.71-2.74 2 2 0 0 0-2.74.72 83 83 0 0 1-4.74 8.88c-.9 1.47-1.83 3.47-3.37 4.39a1.67 1.67 0 0 1-2.7-1.12 15 15 0 0 1 .18-4.46 46 46 0 0 1 1.05-5.23 93 93 0 0 1 3.57-10.75c1.45-3.7 3.05-7.34 4.66-10.97a2.06 2.06 0 0 0-.71-2.74 2 2 0 0 0-2.74.72" class="e"/><path d="M219.83 232.69a226 226 0 0 1-1.13 20.37c-.09.8-.03 2.26-.87 2.72-1.8 1.01-3.66-2.46-4.06-3.66-.81-2.43-4.68-1.39-3.86 1.06 1 2.98 3.33 6.3 6.72 6.66a5 5 0 0 0 4.46-1.67c1.22-1.45 1.38-3.12 1.59-4.93a197 197 0 0 0 1.15-20.55c.02-2.58-3.98-2.58-4 0M7.28 233.94c-2.86 8.53-5.76 17.15-6.9 26.12a42 42 0 0 0-.37 6.4c.05 1.94.22 4 1.42 5.62a5.7 5.7 0 0 0 5.62 2.16 8 8 0 0 0 5.17-4.16 75 75 0 0 0 5.98-13.46c.86-2.43-3-3.48-3.86-1.06a85 85 0 0 1-4.17 9.85c-.76 1.52-1.51 3.52-2.98 4.51a1.78 1.78 0 0 1-2.84-.8 13 13 0 0 1-.32-4.86 45 45 0 0 1 .54-5.45 97 97 0 0 1 2.65-11.51 298 298 0 0 1 3.92-12.3c.82-2.45-3.04-3.5-3.86-1.06" class="e"/><path d="M22.29 235.91q.73 8.59.83 17.2.02 2.07-.01 4.15c-.02.91.2 2.58-.74 3.12-1.92 1.11-4.13-2.33-4.77-3.78a2 2 0 0 0-2.73-.72 2.05 2.05 0 0 0-.72 2.74c1.29 2.91 4.19 6 7.63 5.9a5.2 5.2 0 0 0 4.45-2.57c.91-1.56.86-3.32.88-5.05a209 209 0 0 0-.82-21c-.21-2.54-4.22-2.56-4 0Zm267.78-62.44c-.04 2.85.95 5.54 1.37 8.33a2 2 0 0 0 .92 1.2 2 2 0 0 0 2.74-.72 2.3 2.3 0 0 0 .2-1.54c-.2-1.28-.52-2.54-.8-3.8l-.19-.89a4 4 0 0 1-.17-.97l.02.12-.02-.14-.04-.57q-.04-.5-.03-1.02a2 2 0 0 0-4 0" class="e"/><path d="M285.15 164.17a4 4 0 0 1-.41-1c-.43-1.62-.12-2.6 1.75-3.54a6 6 0 0 1-.7-.4 2.4 2.4 0 0 1-1.17-2.27 3.5 3.5 0 0 1 .67-1.5c.34-.42.84-.55 1.67-.88l-.38-.14a2.83 2.83 0 0 1-1.62-3.41c.4-1.3 2.18-1.87 3.5-1.54 3.84.98 6.97 2 11.3 3.46 1.05-2.4 2.88-1.47 4.17-.55 3.76 2.69 5.82 5.26 8.53 6.76 5.84-3.94.23 8.42-4.04 16.38h-.39c-3.5.1-9.72.07-11.1-.34-3.4-1-4.86-1.89-8.75-4.06a7 7 0 0 1-2.11-1.64 2 2 0 0 1-.38-1.89 3 3 0 0 1 1.69-1.94l-1.07-.48a2.6 2.6 0 0 1-1.16-1.02" class="a"/><path d="M314.33 157.85a12 12 0 0 1-1.53-.82l-.69-.47-.34-.25c.36.26-.1-.08-.13-.11-1-.8-1.94-1.67-2.9-2.5a48 48 0 0 0-3.8-3.03 4.9 4.9 0 0 0-5.12-.78 2 2 0 0 0-.72 2.74 2.05 2.05 0 0 0 2.74.72c-.07.03-.38.2-.2.07h.02q-.2-.03.12.04c.09.03.27.1.08.02l.46.25a17 17 0 0 1 1.54 1.1c.94.72 1.99 1.64 2.94 2.48a23 23 0 0 0 5.5 4 2.05 2.05 0 0 0 2.74-.72 2 2 0 0 0-.72-2.73Z" class="e"/><path d="M301.14 151.3q-3.5-1.2-7.04-2.3-1.64-.5-3.29-.95a11 11 0 0 0-3.4-.64 4.54 4.54 0 0 0-4.54 4.18 4.9 4.9 0 0 0 3.43 4.87q3.1 1.22 6.27 2.18c2.47.75 3.53-3.1 1.07-3.85a92 92 0 0 1-6.01-2.08c-.02-.01-.55-.24-.24-.09l-.35-.2q.22.18-.03-.05c.32.35-.21-.5-.02.02l-.13-.47c.14.49.02-.03 0-.2-.03-.56.1.2 0-.06q.07-.18 0-.03-.09.2.06-.08-.19.25.05 0-.24.18.06 0 .31-.17.05-.04l.38-.1c-.34.08.15 0 .24 0q.37.02.04-.02l.43.1.98.25q1.66.45 3.3.94c2.56.77 5.1 1.63 7.63 2.48a2 2 0 0 0 1.06-3.85Z" class="e"/><path d="M286.25 152.72a8 8 0 0 0-1.68.73 4 4 0 0 0-1.4 1.6 5 5 0 0 0-.58 2.16 4.3 4.3 0 0 0 .54 2.03c.99 1.87 3.28 2.56 5.11 3.27l2.72 1.02a2 2 0 0 0 1.54-.2 2 2 0 0 0 .72-2.74 2.3 2.3 0 0 0-1.2-.92c-1.3-.5-2.6-.96-3.9-1.49-.08-.03-.35-.15-.01 0l-.05-.02-.42-.19q-.35-.15-.67-.34l-.14-.09-.1-.06.18.14a2 2 0 0 0-.37-.38c.38.32.2.26.09.08-.12-.2-.06-.32.04.13-.04-.17-.11-.33-.13-.51l.07.53a2 2 0 0 1 0-.5l-.08.53.1-.39.06-.2q-.2.46-.07.18l.15-.29.12-.17-.15.18c.34-.31-.37.2-.09.06l.23-.12c.28-.15-.52.2-.02 0l.44-.16a2.2 2.2 0 0 0 1.2-.92 2 2 0 0 0-2.26-2.93Z" class="e"/><path d="M285.3 157.99a5 5 0 0 0-2.53 2.74 5.2 5.2 0 0 0 .12 3.23 5 5 0 0 0 2.6 3.04l3.32 1.47a2.2 2.2 0 0 0 1.54.2 2 2 0 0 0 .48-3.66c-1.18-.53-2.4-1-3.57-1.58q-.17-.08-.34-.19l.16.12-.15-.13-.13-.15.14.18-.19-.33c-.17-.3.19.52.02.05l-.1-.35a6 6 0 0 1-.15-.7l.08.53a3 3 0 0 1 0-.78l-.08.53.07-.28c.1-.34-.05.15-.1.2l.14-.25c.15-.27-.38.41-.1.13l.2-.2c.33-.3-.23.14-.09.05l.67-.42a2 2 0 0 0 .72-2.74 2.04 2.04 0 0 0-2.74-.71Z" class="e"/><path d="M286.19 164.02a5 5 0 0 0-2.58 3.95c-.11 1.83 1.04 3.15 2.42 4.17a36 36 0 0 0 7.72 4.08c4.49 1.8 9.53 1.44 14.28 1.32 2.57-.06 2.58-4.06 0-4q-3.17.09-6.35.02a60 60 0 0 1-3.49-.17c-.05 0-.59-.07-.3-.03.27.04-.14-.02-.2-.04l-.56-.15a28 28 0 0 1-5.4-2.35 29 29 0 0 1-3.4-1.94c-.7-.51-1.08-.86-.12-1.4 2.23-1.3.21-4.75-2.02-3.46" class="e"/><path d="M313.81 160.34a1.6 1.6 0 0 1-.86-.92c.16.53.1-.36.02.12l-.01.35c-.01.38.1-.45-.01.07q-.1.5-.23 1a35 35 0 0 1-1.78 4.9 118 118 0 0 1-5.74 11.37c-1.28 2.24 2.18 4.26 3.45 2.02a114 114 0 0 0 6.51-13.19 24 24 0 0 0 1.69-5.31c.25-1.65.03-3.86-1.98-4.27a2.05 2.05 0 0 0-2.46 1.4 2 2 0 0 0 1.4 2.46M125.97 258c.38 1.96.77 3.93 1.06 5.9a2 2 0 0 0 .92 1.2 2 2 0 0 0 2.74-.72l.2-.47a2 2 0 0 0 0-1.07q-.47-2.97-1.07-5.9a2 2 0 0 0-2.46-1.4 2.05 2.05 0 0 0-1.4 2.45ZM40.53 48.4c-2.43-10.45-1.62-22.41 6.1-30.56 1.97-2.09 3.5-4.55 5.55-6.56a24 24 0 0 1 6.4-4.48c4.67-2.23 10.14-2.83 15.26-2.75a25.6 25.6 0 0 1 16.85 6.3c1.9 1.73 4.74-1.1 2.83-2.83a26 26 0 0 0-8.47-5.32A39 39 0 0 0 76.57.27 38 38 0 0 0 58.9 2.35a28 28 0 0 0-7.4 4.2 27 27 0 0 0-3.19 2.97c-1.1 1.2-1.93 2.58-2.96 3.84-.94 1.17-2.08 2.16-3.03 3.34a30 30 0 0 0-2.81 4.16 34 34 0 0 0-3.47 9.07c-1.4 6.3-.83 13.29.63 19.54.58 2.5 4.44 1.44 3.85-1.07Z" class="e"/><path d="M137.01 355.48a6.7 6.7 0 0 0 4.63-2.74 8.3 8.3 0 0 0 1.09-4.76c-.52-13.55-3.43-50.63-4.95-63.6a6.6 6.6 0 0 0-5.95-5.21c-4.95-.09-9.58.12-11.5.67-1.8.5-3.61 2.2-3.82 5.43-.83 12.88-1.3 53.03-1.06 63.75a6.9 6.9 0 0 0 3.24 5.68c1.73 1.03 2.86 1.25 6.11 1.17 3.47-.07 6.88-.14 12.21-.39" class="b"/><path d="m128.22 264.81-.17-1.52a40 40 0 0 0-5.82-.44c-.01 2.15-.02 13.1 0 16.64a64 64 0 0 1 7-.34c.49 2.4-.4-8.72-1-14.34" class="b"/><path d="M137.01 357.48a8.6 8.6 0 0 0 5.7-2.9 9 9 0 0 0 2.02-5.81c.08-2.4-.19-4.86-.33-7.27q-.57-9.92-1.34-19.83-.8-10.7-1.73-21.38c-.48-5.46-.75-11.03-1.62-16.45a8 8 0 0 0-3.44-5.12c-1.96-1.42-4.06-1.57-6.4-1.57-2.27 0-4.55.03-6.8.25a12 12 0 0 0-4.8 1.15c-3.14 1.77-3.7 5.18-3.87 8.46a377 377 0 0 0-.3 7.43c-.45 13.25-.62 26.5-.7 39.75-.03 4.83-.09 9.66.04 14.49a9.2 9.2 0 0 0 6.11 8.64 15 15 0 0 0 5.4.55q2.72-.06 5.43-.14 3.31-.1 6.63-.25c2.56-.12 2.57-4.12 0-4q-5.7.25-11.42.38c-2.95.06-6.24.2-7.69-2.93-.8-1.73-.5-4.06-.5-5.93q-.03-3.5-.02-6.98.05-18.67.53-37.35c.13-4.85.26-9.71.54-14.57a5.5 5.5 0 0 1 1.07-3.49 4.4 4.4 0 0 1 3.04-1.16 59 59 0 0 1 6.12-.3c1.93-.02 3.9-.29 5.5.98 2 1.58 1.82 4.15 2.06 6.49q.4 3.9.75 7.8.88 9.76 1.64 19.54.76 9.75 1.4 19.51.26 4 .48 8c.12 2.24.6 4.9-.06 7.1a4.3 4.3 0 0 1-3.44 2.9 2.05 2.05 0 0 0-2 2 2 2 0 0 0 2 2.01" class="e"/><path d="M124.23 279.5q-.04-8.33 0-16.65l-2 2a21 21 0 0 1 2.62.09 53 53 0 0 1 2.17.22c.08.01.74.1.5.06l-1.47-1.93q.5 4.22.83 8.46c.2 2.41.46 4.85.49 7.27.03 2.58 4.03 2.58 4 0-.03-2.42-.29-4.86-.49-7.27a222 222 0 0 0-.83-8.46c-.1-.78-.55-1.8-1.47-1.93a36 36 0 0 0-6.35-.51 2.04 2.04 0 0 0-2 2q-.03 8.32 0 16.64c0 2.58 4 2.58 4 0Z" class="e"/></svg>
