<svg xmlns="http://www.w3.org/2000/svg" viewBox="-0.53 0 337.019 337.019"><defs><style>.c{fill:#211715}.e{fill:#f2635f}</style></defs><path d="m165.03 192.14-33.43-33.42c-5.62-5.62-11.1-11.46-16.9-16.9a3.8 3.8 0 0 0-2.87-1.05H69.47q-2.25-.02-4.48 0a14.95 14.95 0 0 0-14.28 11.1 28 28 0 0 0-.46 6.47v8.67c0 4.8-.05 9.62 0 14.43a14.95 14.95 0 0 0 14.99 14.8h98.09a2.43 2.43 0 0 0 1.7-4.1m95.48-14.4V159.5c0-1.16.26-2.8-.2-3.87a15 15 0 0 0-1.87-2.6l-2.03-2.7q-1.96-2.64-3.94-5.26c-2.4-3.1-5.85-4.3-9.63-4.3h-55.8c-4.7 0-9.46-.2-14.16 0h-.2a2.43 2.43 0 0 0-1.7 4.1l43.44 43.44 5.45 5.46c1.08 1.07 2.03 2.4 3.65 2.46 1.47.06 2.95 0 4.42 0h13.85a16 16 0 0 0 5.98-.74 12.6 12.6 0 0 0 5.49-4.6l5.36-7.19a13 13 0 0 0 1.68-2.37 5 5 0 0 0 .21-2.02z" style="fill:#7a7473"/><path d="M280.54 158.1a6.5 6.5 0 0 0-3.72-1.16h-18.71v23.13h18.71a6.53 6.53 0 0 0 6.53-6.52v-10.08a6.5 6.5 0 0 0-2.81-5.37" style="fill:#a6a2a1"/><path d="M241.84 154.02v28.97c0 3.09 4.8 3.1 4.8 0v-28.97c0-3.09-4.8-3.1-4.8 0m16.55 5.32h17.68c1.9 0 3.69.55 4.55 2.45.72 1.62.33 4.02.33 5.73 0 2 .04 4 0 6a4.2 4.2 0 0 1-4.26 4.15c-1.62.03-3.24 0-4.87 0H258.4c-3.09 0-3.1 4.8 0 4.8h12.75q2.75.02 5.5 0a9.1 9.1 0 0 0 8.54-5.82c.83-2.19.57-4.74.57-7.04 0-2.04.04-4.1 0-6.14a9.05 9.05 0 0 0-8.24-8.9c-1.49-.13-3.02-.03-4.5-.03H258.4c-3.09 0-3.1 4.8 0 4.8m-145.73-18.57H70.44q-2.72-.02-5.43 0a14.9 14.9 0 0 0-14.25 10.88c-.8 2.96-.51 6.26-.51 9.3v13.58c0 2.7-.2 5.5.06 8.18a14.9 14.9 0 0 0 13.29 13.44 54 54 0 0 0 5.72.08h94.01c3.09 0 3.1-4.8 0-4.8h-96.3c-2.8 0-5.39-.14-7.8-1.82a10 10 0 0 1-4.1-6.73 22 22 0 0 1-.08-2.98v-23.04a16 16 0 0 1 .18-3.28 10 10 0 0 1 4.56-6.54c2.36-1.44 4.83-1.47 7.46-1.47h45.41c3.09 0 3.1-4.8 0-4.8" class="c"/><path d="M223.33 196.23h18.84a14 14 0 0 0 6.67-1.21c2.58-1.3 4.1-3.7 5.76-5.94l5.83-7.8a2.4 2.4 0 0 0-.86-3.28 2.46 2.46 0 0 0-3.28.86l-4.93 6.6c-1.27 1.7-2.46 3.92-4.3 5.06-1.56.95-3.16.91-4.9.91h-18.83c-3.09 0-3.1 4.8 0 4.8m-50.66-50.66h71.13a6.3 6.3 0 0 1 5 2.56c2.57 3.29 5 6.7 7.52 10.02a2.5 2.5 0 0 0 3.28.86 2.4 2.4 0 0 0 .86-3.28q-3.48-4.62-6.94-9.25c-1.97-2.64-4.15-4.85-7.52-5.49a21 21 0 0 0-4.05-.22h-69.28c-3.09 0-3.1 4.8 0 4.8" class="c"/><path d="M260.5 179.34v-22.16c0-3.09-4.8-3.09-4.8 0v22.16c0 3.09 4.8 3.1 4.8 0" class="c"/><path d="M225.27 175h-11.14a6.35 6.35 0 0 1-6.48-6.44 6.2 6.2 0 0 1 6.48-6.56h11.78a6.25 6.25 0 0 1 6.48 6.56 6.35 6.35 0 0 1-6.48 6.44" style="fill:#febe69"/><path d="M225.27 172.6h-8.92a12 12 0 0 1-3.6-.2 4.1 4.1 0 0 1-2.68-4.5 3.75 3.75 0 0 1 3.72-3.49c1.05-.06 2.12 0 3.18 0 2.97 0 5.96-.06 8.93 0a3.9 3.9 0 0 1 4.08 3.8 4.05 4.05 0 0 1-4.07 4.4c-3.08.07-3.1 4.87 0 4.8a8.9 8.9 0 0 0 8.32-5.74 9.2 9.2 0 0 0-1.97-9.54c-3.3-3.3-8.47-2.52-12.73-2.52-4.53 0-9.63-.63-12.65 3.56a9.4 9.4 0 0 0-.5 9.78 8.9 8.9 0 0 0 7.8 4.45c3.7.07 7.4 0 11.1 0 3.08 0 3.09-4.8 0-4.8Z" class="c"/><path d="M168 0a177 177 0 0 0-55.35 8.67 162 162 0 0 0-46.28 24 164 164 0 0 0-58.7 83.3A173 173 0 0 0 0 167.94a193 193 0 0 0 7.62 53.7 164 164 0 0 0 21.17 45.32 153 153 0 0 0 32.93 35.32 162 162 0 0 0 44.43 24.37 180 180 0 0 0 51.23 10.08 199 199 0 0 0 54.24-4.44A164 164 0 0 0 258 314.27a149 149 0 0 0 36.84-30.12 154 154 0 0 0 25.75-40.35 186 186 0 0 0 13.78-50.78 191 191 0 0 0-.63-53.85 168 168 0 0 0-15.77-49 163 163 0 0 0-29.38-41.13 161 161 0 0 0-41.12-30.28A167 167 0 0 0 196.5 2.25 191 191 0 0 0 167.99 0c-4.18 0-8.19 3.68-8 8a8.14 8.14 0 0 0 8 8q7 0 13.97.54 3.3.26 6.59.64l1.57.2.9.11c-.08 0-2.1-.3-.78-.1q1.66.23 3.33.5a164 164 0 0 1 25.3 6.13q2.95.97 5.86 2.06 1.49.56 2.97 1.14l1.18.48c.33.13 2.37.98 1 .4-1.3-.55.26.12.6.27q.68.29 1.35.6 1.44.63 2.87 1.3 2.84 1.34 5.62 2.79a154 154 0 0 1 20.78 13.03l1.14.86.65.5-.8-.62 2.4 1.9q2.37 1.93 4.66 3.95 4.58 4.02 8.82 8.4 4.16 4.3 7.98 8.9l1.8 2.2.87 1.12.5.64-.5-.66q1.83 2.43 3.58 4.9a157 157 0 0 1 12.31 20.78q1.31 2.66 2.52 5.36l.66 1.5c.13.3.82 1.94.24.55-.56-1.33.09.21.23.56l.61 1.52q2.29 5.73 4.12 11.63a163 163 0 0 1 5.51 23.96l.22 1.46.12.84-.15-1.08c.2 1.1.28 2.25.4 3.36q.35 3.18.58 6.36.46 6.34.43 12.7a176 176 0 0 1-1.72 25.97c-.02.15.27-1.95.14-1.07l-.12.84-.21 1.47q-.24 1.57-.5 3.13-.53 3.1-1.15 6.17-1.21 5.95-2.83 11.8-1.62 5.83-3.65 11.52-.97 2.72-2.03 5.4c-.36.9-.7 1.84-1.12 2.73-.07.15.77-1.79.42-1l-.3.73-.64 1.43a151 151 0 0 1-10.89 20.24q-3.03 4.73-6.43 9.21l-.34.45c-.73.98.55-.7.56-.71q-.4.54-.82 1.04-.94 1.19-1.9 2.36-1.75 2.1-3.57 4.15a141 141 0 0 1-16.25 15.5l-2.07 1.66c-1.38 1.09 1.3-.98.27-.21l-1.37 1.03q-2.21 1.64-4.5 3.2-4.74 3.25-9.73 6.12-4.97 2.85-10.15 5.3a163 163 0 0 1-5.1 2.31l-1.27.53q-1.39.56-2.78 1.09a164 164 0 0 1-23.19 6.92q-6.08 1.34-12.25 2.25l-1.7.24c-1.41.2 1.85-.24.42-.06q-1.71.23-3.43.41-3.27.36-6.54.6a199 199 0 0 1-26.31.26 197 197 0 0 1-12.69-1.17l-1.47-.2q-1.57-.24-3.13-.5-3.11-.52-6.2-1.15a165 165 0 0 1-23.43-6.6q-2.73-1-5.43-2.09l-1.29-.53.81.34-.73-.31-2.72-1.21q-5.3-2.41-10.4-5.22-5.12-2.82-10.02-6.05-2.35-1.55-4.64-3.18-1.18-.85-2.34-1.72l-1.09-.81c-1.31-1 1.39 1.09.09.07a150 150 0 0 1-16.91-15.51q-3.89-4.19-7.44-8.66-.41-.54-.84-1.07c.02.03 1.28 1.68.54.7l-.36-.46q-.94-1.24-1.85-2.5-1.66-2.29-3.24-4.64a152 152 0 0 1-11.52-20.48q-.6-1.27-1.16-2.56l-.57-1.29-.32-.74c-.53-1.22.62 1.52.26.61q-1.11-2.72-2.16-5.47-2.16-5.78-3.88-11.71a176 176 0 0 1-5.23-24.5l-.12-.86c0 .07.27 2.15.1.83l-.18-1.52q-.2-1.64-.37-3.28-.34-3.31-.56-6.64-.46-6.67-.46-13.37 0-6.32.46-12.63.23-3.17.6-6.33l.35-2.93c-.3 2.65-.12.87-.03.25l.28-1.87a163 163 0 0 1 5.56-23.9q1.85-5.88 4.15-11.61l.54-1.33.24-.57c.48-1.17-.31.73-.33.78l1.22-2.81q1.26-2.8 2.62-5.54a157 157 0 0 1 12.37-20.78 183 183 0 0 1 3.34-4.57l1.01-1.27q.95-1.19 1.92-2.36 3.84-4.6 8.02-8.9 4.26-4.38 8.86-8.42 2.23-1.95 4.53-3.81c.8-.65 1.61-1.26 2.4-1.91.1-.09-1.48 1.13-.8.62l.65-.5q.65-.5 1.31-.98a154 154 0 0 1 20.9-13.03q2.7-1.4 5.45-2.7 1.43-.67 2.88-1.3l1.36-.6.58-.25a186 186 0 0 1 11.29-4.15 163 163 0 0 1 25.46-6.07l1.56-.24.72-.1.74-.1 1.81-.21q3.2-.36 6.4-.6Q161.2 16 168 16c4.18 0 8.19-3.68 8-8a8.14 8.14 0 0 0-8-8" class="e"/><path d="m289.43 278.62-44.88-44.89-44.9-44.89-44.88-44.88-44.9-44.9L65 54.19l-5.66-5.66c-2.96-2.96-8.39-3.18-11.31 0a8.15 8.15 0 0 0 0 11.32l44.89 44.89 44.89 44.88 44.89 44.89 44.89 44.89 44.89 44.89 5.65 5.65c2.96 2.97 8.4 3.19 11.31 0a8.14 8.14 0 0 0 0-11.31Z" class="e"/></svg>
