<svg viewBox="0 0 16 16" fill="none" xmlns="http://www.w3.org/2000/svg"><path fill-rule="evenodd" clip-rule="evenodd" d="M11.333 0.833008C11.609 0.833008 11.8328 1.05702 11.833 1.33301V1.62207C12.4317 1.72587 12.9324 1.92558 13.3369 2.33008C13.7869 2.78015 13.9843 3.34928 14.0771 4.04004C14.167 4.70871 14.167 5.56167 14.167 6.62988V10.0371C14.167 11.1055 14.1671 11.9582 14.0771 12.627C13.9843 13.3178 13.787 13.8868 13.3369 14.3369C12.8868 14.787 12.3178 14.9843 11.627 15.0771C10.9582 15.1671 10.1055 15.167 9.03711 15.167H6.96289C5.8945 15.167 5.04177 15.1671 4.37305 15.0771C3.6822 14.9843 3.11318 14.787 2.66309 14.3369C2.21299 13.8868 2.01573 13.3178 1.92285 12.627C1.83295 11.9582 1.833 11.1055 1.83301 10.0371L1.83301 6.62988C1.833 5.56167 1.83299 4.70871 1.92285 4.04004C2.01572 3.34928 2.21311 2.78015 2.66309 2.33008C3.06759 1.92558 3.56829 1.72587 4.16699 1.62207V1.33301C4.16717 1.05702 4.39096 0.833008 4.66699 0.833008C4.94288 0.833183 5.16682 1.05712 5.16699 1.33301V1.52637C5.68269 1.50274 6.27849 1.49999 6.96289 1.5H7.5V1.33301C7.50018 1.05702 7.72397 0.833008 8 0.833008C8.27603 0.833008 8.49982 1.05702 8.5 1.33301V1.5H9.03711C9.72151 1.49999 10.3173 1.50274 10.833 1.52637V1.33301C10.8332 1.05712 11.0571 0.833183 11.333 0.833008ZM7 2.5C6.25602 2.5 5.65876 2.50226 5.16699 2.52637V2.66699C5.16682 2.94288 4.94288 3.16682 4.66699 3.16699C4.39096 3.16699 4.16717 2.94298 4.16699 2.66699V2.6416C3.79217 2.72613 3.55336 2.85387 3.37012 3.03711C3.1369 3.27041 2.99202 3.5931 2.91406 4.17285C2.83416 4.76719 2.83301 5.55291 2.83301 6.66699L2.83301 10C2.83301 11.1141 2.83416 11.8998 2.91406 12.4941C2.99205 13.0738 3.13685 13.3966 3.37012 13.6299C3.60338 13.8632 3.92617 14.008 4.50586 14.0859C5.1002 14.1658 5.88592 14.167 7 14.167H9C10.1141 14.167 10.8998 14.1658 11.4941 14.0859C12.0738 14.008 12.3966 13.8632 12.6299 13.6299C12.8632 13.3966 13.008 13.0738 13.0859 12.4941C13.1658 11.8998 13.167 11.1141 13.167 10V6.66699C13.167 5.55291 13.1658 4.76719 13.0859 4.17285C13.008 3.5931 12.8631 3.27041 12.6299 3.03711C12.4466 2.85387 12.2078 2.72613 11.833 2.6416V2.66699C11.8328 2.94298 11.609 3.16699 11.333 3.16699C11.0571 3.16682 10.8332 2.94288 10.833 2.66699V2.52637C10.3412 2.50226 9.74398 2.5 9 2.5H8.5V2.66699C8.49982 2.94299 8.27603 3.16699 8 3.16699C7.72397 3.16699 7.50018 2.94299 7.5 2.66699L7.5 2.5H7ZM8 9.5C8.27614 9.5 8.5 9.72386 8.5 10C8.5 10.2761 8.27614 10.5 8 10.5L5.33301 10.5C5.05702 10.4998 4.83301 10.276 4.83301 10C4.83301 9.72397 5.05702 9.50018 5.33301 9.5L8 9.5ZM10.667 6.16699C10.943 6.16717 11.167 6.39096 11.167 6.66699C11.1668 6.94288 10.9429 7.16682 10.667 7.16699L5.33301 7.16699C5.05712 7.16682 4.83318 6.94288 4.83301 6.66699C4.83301 6.39096 5.05702 6.16717 5.33301 6.16699L10.667 6.16699Z" fill="currentColor"/></svg>
