<svg xmlns="http://www.w3.org/2000/svg" viewBox="0 -3.28 242.707 242.707"><defs><style>.a{fill:#fff}.c{fill:#211715}</style></defs><path d="M195.6 125.34c4.46 8.49 7.93 15.35 14.46 27.79-21.33 10.23-108.04 52.73-126.65 62.22a1546 1546 0 0 1-28.63-58.1C38.75 122.92 22.68 88.7 7.42 54.1 47.72 35.36 117.45 8.08 131.78 2.42c7.86 15.5 26.47 51.97 38.82 76.22" class="a"/><path d="M166.09 129a410 410 0 0 1-9.98 5.4c2.96-10.7 6.07-21.45 9.08-29.18l.14.09c2.84 1.75 15.91 12.43 17.85 13.61a384 384 0 0 1-17.1 10.09" class="a"/><path d="M224.35 38.28a4 4 0 0 0-1.66.88c-11.02 12.57-49.55 56.2-57.61 66 2.1 1.1 14.75 11.44 17.72 13.5l.26.19c18.74-21.24 37.04-42.43 56.02-64 3.08-3.93.13-8.75-4.08-12.4-4-3.49-8.05-4.83-10.65-4.17" style="fill:#74c66d"/><path d="m156.82 134.03-.71.37a646 646 0 0 1 4.43-15.4 152 152 0 0 1 10.06 7.46 439 439 0 0 1-13.78 7.57" class="c"/><path d="M193.54 126.55c4.84 9.25 9.6 18.54 14.45 27.79l.86-3.28q-9.48 4.55-18.93 9.17-14.02 6.83-28.02 13.69-15.48 7.58-30.94 15.18-14.08 6.92-28.14 13.88-9.61 4.74-19.16 9.55l-1.46.74 3.28.86a1626 1626 0 0 1-30.31-61.7c-9.9-21.18-19.81-42.35-29.53-63.62Q17.46 70.9 9.49 52.9l-.86 3.29c18.16-8.45 36.64-16.22 55.14-23.86q26-10.75 52.16-21.08l16.48-6.5-2.7-1.1q14.92 29.44 29.96 58.83l8.85 17.39c1.4 2.75 5.55.32 4.15-2.43L140.4 14.1l-6.55-12.89a2.4 2.4 0 0 0-2.71-1.1q-18.6 7.34-37.16 14.76a2781 2781 0 0 0-57.8 23.87c-10.05 4.3-20.06 8.69-29.97 13.3-1.26.58-1.34 2.19-.86 3.28 9.4 21.3 19.1 42.47 28.91 63.59s19.53 42.26 29.73 63.18q8.46 17.34 17.35 34.47a2.44 2.44 0 0 0 3.29.86c5.85-2.99 11.75-5.9 17.64-8.82q13.67-6.78 27.37-13.51 15.44-7.6 30.9-15.17 14.35-7.03 28.72-14.04 10.17-4.96 20.36-9.88l1.66-.8a2.44 2.44 0 0 0 .86-3.29c-4.85-9.24-9.6-18.54-14.45-27.79-1.44-2.74-5.58-.31-4.15 2.42Z" class="c"/><path d="M203.78 169.5q-9.48 4.54-18.92 9.16-14.02 6.83-28.03 13.7-15.47 7.57-30.94 15.17-14.08 6.93-28.14 13.88-9.6 4.74-19.15 9.55l-1.47.75 3.29.86a1629 1629 0 0 1-30.32-61.7c-9.9-21.18-19.8-42.36-29.52-63.62Q12.39 89.34 4.43 71.33a2.4 2.4 0 0 0-3.29-.86 2.46 2.46 0 0 0-.86 3.28c9.4 21.3 19.1 42.47 28.91 63.6s19.53 42.25 29.73 63.17q8.46 17.34 17.35 34.47a2.44 2.44 0 0 0 3.29.86q8.79-4.45 17.64-8.82 13.67-6.77 27.37-13.5 15.44-7.6 30.9-15.17 14.35-7.04 28.72-14.05 10.17-4.95 20.36-9.88l1.66-.8a2.4 2.4 0 0 0 .86-3.28 2.45 2.45 0 0 0-3.29-.86Zm-36.75-62.94c5.28-6.39 10.78-12.6 16.23-18.85q11.6-13.28 23.25-26.52c5.92-6.74 11.73-13.6 17.78-20.23.05-.05.23-.24-.05-.01l.29-.18c.43-.22.03-.08.4-.16a4 4 0 0 1 1.47-.06 11 11 0 0 1 4.29 1.68c2.87 1.74 6.34 4.68 7.15 8.1.37 1.56-.28 2.6-1.28 3.75l-4.75 5.4-9.27 10.6-36.92 42.23-4.54 5.15c-2.04 2.31 1.34 5.72 3.4 3.4Q203.75 99 222.85 77l9.73-11.13 4.9-5.6c1.45-1.64 3.36-3.31 4.35-5.3 1.9-3.82.42-7.82-2.05-10.98a23 23 0 0 0-10.2-7.57c-2.88-1.02-6.56-1.14-8.8 1.26-1.17 1.27-2.29 2.61-3.43 3.92l-9.64 10.96q-12.04 13.69-24.05 27.4c-6.28 7.19-12.6 14.36-18.75 21.66l-1.29 1.54a2.47 2.47 0 0 0 0 3.4 2.4 2.4 0 0 0 3.4 0" class="c"/><path d="M164.12 107.38q1.27.81 2.46 1.75l1.8 1.36.29.22.3.23 1.11.87 8.1 6.34q1.67 1.34 3.42 2.59a2.4 2.4 0 0 0 3.28-.86 2.45 2.45 0 0 0-.86-3.29l-1.1-.8-.65-.5-.35-.27-.27-.2-.29-.22-.41-.33-.96-.74-2.05-1.6q-4.17-3.31-8.4-6.55c-.98-.74-1.95-1.5-2.99-2.14a2.4 2.4 0 1 0-2.42 4.14Z" class="c"/><path d="M163.02 104.22c-3.76 9.6-6.48 19.62-9.23 29.54a2.43 2.43 0 0 0 3.53 2.71c9.07-4.74 18-9.78 26.67-15.23 2.6-1.64.2-5.8-2.42-4.15a388 388 0 0 1-26.67 15.24l3.52 2.71c2.75-9.93 5.47-19.94 9.23-29.54a2.4 2.4 0 0 0-1.68-2.95 2.46 2.46 0 0 0-2.95 1.67M52.7 92.58a1640 1640 0 0 1 31.8-15.59q16.77-8.03 33.67-15.78a666 666 0 0 1 14.72-6.54 2.4 2.4 0 0 0 .86-3.28 2.47 2.47 0 0 0-3.29-.86 931 931 0 0 0-28.78 13.03q-17.32 8.1-34.5 16.5-8.47 4.13-16.9 8.37c-2.76 1.4-.33 5.54 2.42 4.15m17.65 36.15q25.16-13.37 51.22-24.95 7.06-3.16 14.18-6.18a2.4 2.4 0 0 0 .86-3.29 2.47 2.47 0 0 0-3.28-.86q-25.99 11.01-51.19 23.78-7.14 3.6-14.2 7.36c-2.74 1.45-.32 5.6 2.41 4.14m17.09 35.29q22.09-11.74 44.95-21.96 6.13-2.74 12.32-5.34a2.5 2.5 0 0 0 1.67-2.96 2.4 2.4 0 0 0-2.95-1.67 708 708 0 0 0-45.82 21.25q-6.33 3.2-12.6 6.53c-2.73 1.45-.3 5.6 2.43 4.15" class="c"/></svg>
