<svg xmlns="http://www.w3.org/2000/svg" fill="currentColor" viewBox="0 0 32 32"><path d="M24.98 30h-23V5h14.05l2.02-1.94-.05-.05H1.98a2 2 0 0 0-2 2v25c0 1.1.9 2 2 2h23a2 2 0 0 0 2-2V15.36l-2 1.91zm5.47-28.7Q29.09 0 27.48 0a4.8 4.8 0 0 0-3.2 1.4L10.55 15.1q-.16.16-.21.37c-.36 1.33-2.16 7.22-2.18 7.28a.85.85 0 0 0 1.06 1.06c.06-.02 6.14-1.99 7.14-2.29a1 1 0 0 0 .35-.2c.63-.63 12.82-12.62 13.8-13.64q1.54-1.59 1.51-3.25T30.45 1.3m-1.37 4.99c-.56.57-4.92 4.88-12.96 12.8l-.61.6c-.92.28-3.13 1-4.8 1.53.54-1.77 1.18-3.91 1.47-4.93l13.5-13.48c.1-.08.86-.82 1.8-.82q.8 0 1.58.75.95.9.96 1.72.01.84-.94 1.83"/></svg>
