<svg xmlns="http://www.w3.org/2000/svg" fill="none" viewBox="0 0 24 24"><path stroke="currentColor" stroke-linecap="round" stroke-miterlimit="10" stroke-width="1.5" d="M12 6.44v3.33M12.02 2a6.66 6.66 0 0 0-6.66 6.66v2.1c0 .68-.28 1.7-.63 2.28l-1.27 2.12c-.78 1.31-.24 2.77 1.2 3.25a23.3 23.3 0 0 0 14.73 0 2.22 2.22 0 0 0 1.2-3.25l-1.27-2.12a5 5 0 0 1-.63-2.28v-2.1A6.7 6.7 0 0 0 12.02 2Z"/><path stroke="currentColor" stroke-miterlimit="10" stroke-width="1.5" d="M15.33 18.82c0 1.83-1.5 3.33-3.33 3.33a3.34 3.34 0 0 1-3.33-3.33"/></svg>
