<svg xmlns="http://www.w3.org/2000/svg" fill="none" viewBox="0 0 24 24"><path fill="currentColor" fill-rule="evenodd" d="M14.69 5.25q.42.18.8.42l-1.4 1.43A4 4 0 0 0 12 6.55c-3.02 0-5.46 3.44-5.4 6.53l.04 1.44L4 17.17c-.03-.76.29-1.6.83-2.3v-1.75c-.06-3.14 1.82-6.76 4.5-7.87v-.52c0-.73.29-1.42.79-1.93a2.65 2.65 0 0 1 3.78 0c.5.51.79 1.2.79 1.93zm-1.79-.52v.05a7 7 0 0 0-1.78 0v-.05q.01-.38.26-.65a.9.9 0 0 1 1.26 0q.26.27.26.65m3.85 5.35 1.38-1.38a9.5 9.5 0 0 1 1.06 4.42l-.03 1.74c1.37 1.77 1.32 4.41-2.1 4.41h-2.37c0 .73-.29 1.42-.79 1.93a2.65 2.65 0 0 1-3.78 0c-.5-.51-.79-1.2-.79-1.93H7.56l1.81-1.82h7.68c.77 0 1.18-.9.68-1.5a1.5 1.5 0 0 1-.36-1.02l.04-1.85c.02-1-.22-2.05-.66-3m-5.63 9.2q.01.36.26.64a.9.9 0 0 0 1.26 0q.26-.27.26-.65z" clip-rule="evenodd"/><path fill="currentColor" d="M19.7 5.7a1 1 0 0 0-1.4-1.4l-14 14a1 1 0 1 0 1.4 1.4z"/></svg>
