<svg xmlns="http://www.w3.org/2000/svg" fill="none" viewBox="0 0 24 24"><path fill="currentColor" fill-rule="evenodd" d="M9.3 4.73v.52c-2.7 1.1-4.57 4.73-4.5 7.87v1.74c-1.38 1.77-1.3 4.41 2.14 4.41H9.3c0 .73.28 1.42.78 1.93a2.65 2.65 0 0 0 3.78 0c.5-.51.79-1.2.79-1.93h2.37c3.42 0 3.47-2.64 2.1-4.41l.04-1.74c.06-3.14-1.82-6.77-4.51-7.87v-.52c0-.73-.28-1.42-.79-1.93a2.65 2.65 0 0 0-3.78 0c-.5.51-.78 1.2-.78 1.93m3.56 0v.05a7 7 0 0 0-1.78 0v-.05q.01-.38.26-.65a.9.9 0 0 1 1.26 0q.26.27.26.65m-1.78 14.54q.01.38.26.65a.9.9 0 0 0 1.26 0q.26-.27.26-.65zm5.94-1.82c.76 0 1.17-.9.67-1.5a1.5 1.5 0 0 1-.36-1.02l.04-1.85c.07-3.09-2.37-6.53-5.4-6.53-3.02 0-5.46 3.44-5.4 6.53l.05 1.85c0 .37-.12.74-.36 1.02-.5.6-.09 1.5.68 1.5zM16.98 3.2a1 1 0 0 1 1.4-.25c1.14.8 2.52 2.7 3.27 4.96a1 1 0 0 1-1.9.63c-.66-1.98-1.83-3.47-2.52-3.95a1 1 0 0 1-.25-1.39M5.43 2.95a1 1 0 1 1 1.14 1.64c-.69.48-1.86 1.97-2.52 3.95a1 1 0 0 1-1.9-.63c.76-2.26 2.13-4.16 3.28-4.96" clip-rule="evenodd"/></svg>
