<svg xmlns="http://www.w3.org/2000/svg" fill="none" viewBox="0 0 24 24"><path fill="currentColor" fill-rule="evenodd" d="M9.33 4.73v.52c-2.68 1.1-4.56 4.73-4.5 7.87v1.74c-1.37 1.77-1.3 4.41 2.14 4.41h2.36c0 .73.29 1.42.79 1.93a2.65 2.65 0 0 0 3.78 0c.5-.51.79-1.2.79-1.93h2.36c3.43 0 3.48-2.64 2.1-4.41l.04-1.74c.07-3.14-1.81-6.77-4.5-7.87v-.52c0-.73-.29-1.42-.79-1.93a2.65 2.65 0 0 0-3.78 0c-.5.51-.79 1.2-.79 1.93m3.57 0v.05a7 7 0 0 0-1.78 0v-.05q.01-.38.26-.65a.9.9 0 0 1 1.26 0q.26.27.26.65m-1.78 14.54q.01.38.26.65a.9.9 0 0 0 1.26 0q.26-.27.26-.65zm5.93-1.82c.77 0 1.18-.9.68-1.5a1.5 1.5 0 0 1-.36-1.02l.04-1.85c.07-3.09-2.37-6.53-5.4-6.53-3.02 0-5.46 3.44-5.4 6.53l.05 1.85c0 .37-.12.74-.36 1.02-.5.6-.09 1.5.67 1.5z" clip-rule="evenodd"/></svg>
