<svg xmlns="http://www.w3.org/2000/svg" viewBox="-124.25 0 431.813 431.813"><defs><style>.a{fill:#fff}.b{fill:#211715}.e{fill:#febe69}.f{fill:#d9d9d9}</style></defs><path d="M120.22 47.54a4.5 4.5 0 0 1 3.23-1.18 4.1 4.1 0 0 1 3.73 2.07c1.26 2.19 1.2 6.23.36 8.73a13.5 13.5 0 0 1-3.96 6.43 5 5 0 0 1-3.8 1.1l-.37-.06a29 29 0 0 1-1.3 3.54c-.97 2.62-6.3 11.82-13.06 15.4a37 37 0 0 0 .5 3.86c.36 2.02.23 3.82 3.04 4.83l4.7 2.17-1.26.98c-4.46 3.49-12.26 6.26-20.38 6.28-8.12-.02-15.92-2.8-20.38-6.28l-.64-.5c2.5-1.22 5.14-2.62 5.24-2.65 2.81-1.02 2.69-2.82 3.05-4.84.2-1.17.36-2.25.46-3.38a25 25 0 0 1-9.1-7.26 34 34 0 0 1-6.45-12.17 4.8 4.8 0 0 1-4.1-1.02 13.5 13.5 0 0 1-3.96-6.43c-.85-2.5-.9-6.54.36-8.74a4.1 4.1 0 0 1 3.72-2.06 4.5 4.5 0 0 1 3.23 1.18s-6.2-26.46 27.57-26.46 29.57 26.46 29.57 26.46" class="a"/><path d="M70.08 97.38q2.4-1.12 4.75-2.34l1.6-.83.37-.19c.1-.06.31-.18-.21.1.31-.17.66-.27.98-.43a5.7 5.7 0 0 0 2.99-3.93 47 47 0 0 0 .82-5.71 2 2 0 0 0-2-2 2.05 2.05 0 0 0-2 2 34 34 0 0 1-.36 2.73c-.11.64-.19 1.28-.32 1.91a4 4 0 0 0-.24.83c-.03-.22.17-.36 0-.04l-.13.2q-.18.27.1-.1l-.28.3q-.25.2.08-.05l-.25.17-.43.24q-.3.14-.02.02-.34.12-.66.27c-2.3 1.08-4.5 2.33-6.81 3.4a2 2 0 0 0-.72 2.73 2.06 2.06 0 0 0 2.74.72m46.41-3.67-4.45-2.06c-.96-.44-1.91-.93-2.9-1.32-.55-.22.16.11-.12-.04l-.5-.28-.25-.16q.33.26.09.05l-.28-.28q.27.37.1.1l-.23-.38c.17.3-.03-.12-.06-.2l-.11-.48c-.13-.58-.2-1.18-.3-1.77-.2-1.2-.28-1.71-.38-2.84a2 2 0 0 0-4 0 49 49 0 0 0 .82 5.68 5.7 5.7 0 0 0 3 3.98l.76.31.37.17 1.7.8 4.73 2.18a2.05 2.05 0 0 0 2.74-.72 2 2 0 0 0-.72-2.73Z" class="b"/><path d="M73.88 37.5a86 86 0 0 0-6.23 6.2l-4.57 3.84a4.5 4.5 0 0 0-3.23-1.19 5 5 0 0 0-1.39.23 38 38 0 0 1-1.4-11.3A34.2 34.2 0 0 1 71.2 8.5 33.5 33.5 0 0 1 91.57 2a34 34 0 0 1 21.15 7.06c6.39 4.83 12.81 13.12 13.36 26.22a36 36 0 0 1-1.36 11.26 6 6 0 0 0-1.27-.18 4.5 4.5 0 0 0-3.23 1.18l-4.53-3.6c-1.46-3.67-4.76-7.74-8.21-10.7a18 18 0 0 0-5.23-3.3l-5.68-.7c-3.82 1.62-9.22 5-12.25 6.69a1.04 1.04 0 0 1-1.48-1.11 6 6 0 0 0-.13-2c-.2-.83-.84-1.18-1.34-.92a41 41 0 0 0-7.5 5.6" style="fill:#85807f"/><path d="M64.5 46.13A6.9 6.9 0 0 0 57.02 45a6.5 6.5 0 0 0-3.42 4.4 16.4 16.4 0 0 0 2.38 12.94c1.68 2.5 4.33 4.75 7.55 4.34a2.07 2.07 0 0 0 2-2 2 2 0 0 0-2-2c-2.26.29-3.74-1.58-4.72-3.38a13 13 0 0 1-1.6-4.99 12 12 0 0 1 .08-3.1 5 5 0 0 1 .78-2.1c-.32.5.51-.45.23-.24a2 2 0 0 1 .96-.44 2.7 2.7 0 0 1 2.41.52c1.92 1.7 4.76-1.11 2.83-2.83Zm57.14 2.82a2.6 2.6 0 0 1 2.29-.54 2 2 0 0 1 1.08.46c-.28-.2.54.73.23.24a5 5 0 0 1 .78 2.1 12 12 0 0 1 .08 3.1 13 13 0 0 1-1.6 4.99c-.98 1.8-2.46 3.67-4.72 3.38a2 2 0 0 0-2 2 2.05 2.05 0 0 0 2 2c5.24.68 8.45-4.97 9.76-9.2 1.17-3.8 1.12-9.69-2.59-12.12a6.8 6.8 0 0 0-8.14.76c-1.92 1.72.91 4.54 2.83 2.83" class="b"/><path d="M118.03 62a29 29 0 0 1-1.3 4.33l-.58 1.4c-.2.5.13-.28-.04.08l-.18.4a37 37 0 0 1-3.18 5.29c-2.76 3.92-6.55 8.2-11.4 9.34-2.51.58-1.45 4.44 1.06 3.85 5.74-1.35 10.16-6.14 13.48-10.74a38 38 0 0 0 3.46-5.65q.3-.64.57-1.3c.22-.52-.15.35.08-.18l.43-1.04a29 29 0 0 0 1.45-4.73c.53-2.5-3.33-3.58-3.85-1.06Zm-56.69.95c2.47 10.82 10.6 22.6 22.3 24.37a2.06 2.06 0 0 0 2.45-1.4 2 2 0 0 0-1.4-2.46C74.3 81.9 67.4 71.48 65.2 61.9c-.57-2.5-4.43-1.45-3.86 1.06Zm50.3-57.08a37.6 37.6 0 0 0-35.3-2.7A36.6 36.6 0 0 0 56.9 24.86a39 39 0 0 0-.49 21.74c.63 2.5 4.5 1.44 3.86-1.06-2.65-10.44-.72-21.78 6.39-30.07a33 33 0 0 1 42.97-6.14c2.17 1.4 4.18-2.06 2.02-3.46m15.13 40.73a39.7 39.7 0 0 0-.64-22.25A35 35 0 0 0 116.5 9.6c-1.9-1.73-4.74 1.09-2.83 2.83a31 31 0 0 1 8.61 12.98 35.7 35.7 0 0 1 .64 20.12c-.6 2.5 3.25 3.57 3.86 1.07m-40.7 25.54a12 12 0 0 0 5.89 1.37A9.7 9.7 0 0 0 98 71.68a2 2 0 0 0 0-2.83 2.06 2.06 0 0 0-2.83 0c.7-.53-.03 0-.25.11-.17.1-.62.23 0 .02l-.48.18q-.3.1-.62.16a5 5 0 0 0-.72.14c.21-.08.32-.04.02 0a11 11 0 0 1-1.34.05q-.43 0-.86-.03l-.39-.03-.22-.03q-.24-.02.18.03c-.1.05-.53-.1-.64-.12l-.61-.16-.52-.17-.63-.31a2 2 0 0 0-2.02 3.45ZM90.7 58.6a26 26 0 0 1 .62 2.84l-.07-.53.01.39.07-.53-.04.17.2-.48-.06.12.31-.4-.1.09.41-.32-.22.12.48-.2-.38.11.53-.07h-.36l.54.07-.4-.06a2.3 2.3 0 0 0-1.55.2 2 2 0 0 0-.71 2.73 2 2 0 0 0 1.2.92c.35.05.7.14 1.05.15a3.5 3.5 0 0 0 1.62-.39 2.5 2.5 0 0 0 1.32-1.6 4 4 0 0 0 0-1.67q-.25-1.36-.6-2.7a2 2 0 0 0-2.47-1.4 2 2 0 0 0-1.2.91 2 2 0 0 0-.2 1.54Zm-14.45-8.16c-.47 1.53-.16 5.07 2.75 5.37 3.85-.02 4.05-4.3 2.76-6.3-1.06-1.65-4.18-2.34-5.51.93m30.83 0c.47 1.53.16 5.07-2.75 5.37-3.85-.02-4.05-4.3-2.76-6.3 1.06-1.65 4.18-2.34 5.5.93m-5.83-18.77a22 22 0 0 1 7.27 5.3 31 31 0 0 1 3.02 3.62 26 26 0 0 1 1.83 3.02l.28.58.12.29a2.06 2.06 0 0 0 2.46 1.4 2 2 0 0 0 1.4-2.46 30 30 0 0 0-6.1-9.1 26 26 0 0 0-8.26-6.1 2.06 2.06 0 0 0-2.73.72 2 2 0 0 0 .71 2.73" class="b"/><path d="M69.07 45.12a83 83 0 0 1 6.99-6.88 46 46 0 0 1 3.93-3.13 22 22 0 0 0 1.88-1.2l.26-.14q-1.67-1.15-1.27-.06a7 7 0 0 0-.02 1.27 3.07 3.07 0 0 0 3.73 2.98 17 17 0 0 0 3.95-2.15 83 83 0 0 1 9.06-4.84 2 2 0 0 0 .72-2.73 2.05 2.05 0 0 0-2.73-.72 85 85 0 0 0-9.22 4.93l-2.04 1.19a4 4 0 0 0-.76.43q1.38 1.58 1.32.4a5 5 0 0 0-.01-.76c-.13-1.82-1.03-3.88-3.16-3.88-1.42 0-2.9 1.24-4.01 2.02a56 56 0 0 0-4.17 3.3 82 82 0 0 0-7.28 7.14c-1.72 1.9 1.1 4.74 2.82 2.83" class="b"/><path d="m31.18 124.38 1.14-4.93a30 30 0 0 1 9.62-14.96 42 42 0 0 1 6.6-3.9c3.5-1.78 13.75-4.96 20.78-7 3.8 4.3 12.85 8.06 22.33 8.1 9.37-.04 18.32-3.72 22.2-7.95 7.09 1.82 17.35 5.2 20.9 7a42 42 0 0 1 6.6 3.9 30 30 0 0 1 9.63 14.97l1.14 4.93 9.13 13.15c-.62 8.15-.63 14.05-1.72 25.95a43 43 0 0 1-1.51 9.16c-2.05 6.47-7.7 11.96-14.44 12.66a21.7 21.7 0 0 1-12.3-1.92H52.02a21.7 21.7 0 0 1-12.3 1.93c-6.74-.71-12.4-6.2-14.44-12.67a43 43 0 0 1-1.52-9.16c-1.08-11.9-1.09-17.8-1.71-25.95z" class="a"/><path d="M154.06 124.02a65 65 0 0 0-1.75-6.88 32 32 0 0 0-7.37-11.86c-5.1-5.24-12.26-7.8-19.05-10.05a160 160 0 0 0-13.45-3.9c-2.5-.6-3.57 3.26-1.06 3.86a128 128 0 0 1 21.1 6.7 30 30 0 0 1 8.07 4.7 28.5 28.5 0 0 1 7.56 10.68 56 56 0 0 1 2.1 7.8c.57 2.52 4.43 1.46 3.85-1.05m-120.95.9c.48-2.1.88-4.25 1.55-6.3a28 28 0 0 1 6.95-11.1c4.86-4.81 11.59-6.82 17.9-8.85q6.3-2.02 12.67-3.81c2.47-.7 1.42-4.57-1.07-3.86-7.48 2.13-15.17 4.2-22.33 7.29a32 32 0 0 0-8.85 5.31 33 33 0 0 0-8.22 11.52 53 53 0 0 0-2.46 8.73c-.58 2.5 3.28 3.58 3.86 1.06" class="b"/><path d="M70.26 97.13c5.91 4.54 14.04 6.56 21.4 6.56s15.48-2.02 21.39-6.56a2.07 2.07 0 0 0 .71-2.74 2 2 0 0 0-2.73-.71c-5.4 4.14-12.65 6.01-19.38 6s-13.97-1.85-19.37-6a2 2 0 0 0-2.74.71 2.05 2.05 0 0 0 .72 2.74M20.05 137.7c.67 8.96.95 17.93 1.8 26.88.5 5.21 1.33 10.4 4.49 14.75a19.5 19.5 0 0 0 11.07 7.77 24.2 24.2 0 0 0 15.62-1.83 2 2 0 0 0 .72-2.74 2.05 2.05 0 0 0-2.74-.71 20 20 0 0 1-11.84 1.57 15.2 15.2 0 0 1-9.59-6.37c-2.78-3.99-3.38-8.65-3.82-13.37q-.62-6.77-.98-13.55c-.23-4.13-.42-8.27-.73-12.4-.2-2.55-4.2-2.57-4 0m139.21 0c-.6 8-.85 16.02-1.54 24.02-.42 4.8-.7 9.82-3.2 14.06a16 16 0 0 1-8.82 7.23 19.5 19.5 0 0 1-13.4-1.2 2.06 2.06 0 0 0-2.74.72 2 2 0 0 0 .72 2.74 25 25 0 0 0 13.67 2.16 18.6 18.6 0 0 0 11.8-6.55c3.42-4.04 4.85-8.8 5.47-13.98s.94-10.4 1.24-15.6c.27-4.54.46-9.08.8-13.6.2-2.57-3.8-2.56-4 0" class="b"/><path d="M88.43 311.1a4845 4845 0 0 0-3.23 82.04c-2.61 1.67-8.29 2.35-12.96 2.42a68 68 0 0 1-16.74-2.28c-2.29-52.56-4.65-111.08-6.1-164.57 22.1.07 57.38-.04 84.84.02a9561 9561 0 0 1-5.71 164.55 68 68 0 0 1-16.74 2.28c-4.67-.07-10.35-.76-12.96-2.42-1.46-46.33-3.43-93.25-6.63-141.77h-.37q-2 30.24-3.4 59.73" class="a"/><path d="M119.5 425.87c-1.92-1.34-5.53-3.9-8.7-6.14-2.71-1.91-5.1-3.6-5.87-4.08-4.93-3.11-4.38-7.36-4.27-10.26a60 60 0 0 1 .38-6.03s.35-2.47.71-5.02a43 43 0 0 0 10.04 1.22 55 55 0 0 0 10.35-.92l3.2 5.08c.23.24 4.46 4.97 4.46 4.97 3.19 3.32 6.7 6.58 9.9 9.8a11.2 11.2 0 0 1 3.63 7.92 6.8 6.8 0 0 1-3.18 5.08 13 13 0 0 1-5.77 2.06 21.6 21.6 0 0 1-13.58-2.82q-.3-.18-1.3-.87m-75.74 1.99-.55-.37a6.8 6.8 0 0 1-3.22-5.07c-.08-3.05 1.57-5.83 3.67-7.93 3.24-3.22 6.8-6.48 10.04-9.8l4.51-4.97 3.91-5.04a54 54 0 0 0 10.12.89 43 43 0 0 0 9.97-1.2l.62 5a59 59 0 0 1 .39 6.02c.1 2.9.66 7.15-4.33 10.26-.77.49-3.2 2.17-5.94 4.08-4.3 3-9.39 6.57-10.14 7a22 22 0 0 1-13.76 2.82 14 14 0 0 1-5.29-1.7" class="a"/><path d="M123.92 401.13c2.74 2.92 5.33 5.92 8.2 8.73l4.15 4.04a24 24 0 0 1 3.65 4.02 8.4 8.4 0 0 1 1.39 3.7 4.4 4.4 0 0 1-1.71 3.77c-2.5 2.21-6.3 2.52-9.48 2.27a19 19 0 0 1-8.69-2.9c-5.07-3.29-9.84-7.02-14.85-10.4-2.35-1.59-3.88-3.3-3.98-6.24a49 49 0 0 1 .37-8.22 2.07 2.07 0 0 0-1.4-2.46 2 2 0 0 0-2.46 1.4 63 63 0 0 0-.52 8.76 11 11 0 0 0 3.29 8.23 32 32 0 0 0 3.65 2.66q2.4 1.65 4.78 3.35c2.84 2 5.67 4.04 8.54 6 5.84 4 14.6 5.43 21.07 2.14 3.27-1.67 5.76-4.94 5.35-8.73-.45-4.12-3-7.04-5.84-9.83-2.88-2.84-5.93-5.57-8.63-8.6-1.35-1.5-2.67-3.03-4.05-4.5-1.77-1.88-4.59.95-2.83 2.83Zm-67.12-2.82c-1.28 1.34-2.5 2.74-3.75 4.12-2.1 2.31-4.38 4.44-6.63 6.6-2.93 2.81-6.25 5.52-7.73 9.42a8.6 8.6 0 0 0 2.51 10.01c6.1 5.09 16.34 3.83 22.73-.07 5.47-3.34 10.48-7.44 15.85-10.93a11.1 11.1 0 0 0 5.48-8.9 48 48 0 0 0-.5-9.73 2 2 0 0 0-2.46-1.4 2.05 2.05 0 0 0-1.4 2.46 59 59 0 0 1 .38 7.38 7 7 0 0 1-2.58 6.08c-2.3 1.8-4.89 3.33-7.28 5q-3.94 2.76-7.9 5.5c-4.94 3.38-11.8 5.3-17.59 2.87a7.2 7.2 0 0 1-3.43-2.76 4.7 4.7 0 0 1-.1-4.09c1.13-3.23 4.28-5.56 6.67-7.85 2.3-2.22 4.65-4.4 6.8-6.77q1.84-2.09 3.74-4.12c1.78-1.87-1.05-4.7-2.82-2.83Z" class="b"/><path d="M132.54 216.79q-.98 40.2-2.33 80.38-1.35 40.5-3.04 81-.22 5.5-.46 10.98a24 24 0 0 0-.12 2.72l.48-.3-.95.22-1.41.31q-2.83.62-5.68 1.01a51 51 0 0 1-11.07.26c-2.68-.23-5.78-.53-8.12-1.96l1 1.73q-.87-27.3-2-54.6-1.16-27.75-2.7-55.49-.9-15.84-1.94-31.68c-.17-2.56-4.17-2.58-4 0q2.38 36.07 3.99 72.19.8 17.7 1.47 35.42l.62 17.47.3 9.06.13 4.05.07 2.15a5 5 0 0 0 .32 2.43c.53.9 1.82 1.33 2.74 1.68a20 20 0 0 0 3.2.88 48 48 0 0 0 7.56.83 58 58 0 0 0 17.29-2.05c3.17-.87 2.72-4.14 2.83-6.79l.35-8.22.7-17.11q1.4-34.75 2.54-69.51 1.13-34.44 2.02-68.87l.2-8.2c.06-2.57-3.94-2.57-4 0Z" class="b"/><path d="M89.83 251.37q-1.85 28.06-3.23 56.16-1.36 27.52-2.36 55.05-.56 15.28-1.04 30.56l.99-1.73c-2.07 1.26-4.73 1.6-7.1 1.86a50 50 0 0 1-9.67.11q-2.61-.23-5.2-.71c-.37-.06-5.22-.94-5.2-1.08l.4.44a4 4 0 0 0 0-.65l-.04-.89-.11-2.45-.22-5.16q-.86-19.98-1.68-39.96-1.67-41.2-3.02-82.4-.72-22.45-1.28-44.9c-.06-2.57-4.06-2.58-4 0q.84 34.27 2.07 68.53 1.22 34.74 2.67 69.46.7 17 1.44 33.98l.17 4.02a3.8 3.8 0 0 0 1.53 3.38 11 11 0 0 0 3.82 1.08q2.25.46 4.52.8a53 53 0 0 0 16.73 0 17 17 0 0 0 5.96-1.87c1.42-.86 1.23-2.3 1.28-3.77l.15-4.76.6-17.67q.63-17.78 1.4-35.56 1.57-36.48 3.84-72.92.28-4.48.58-8.95c.17-2.57-3.83-2.56-4 0" class="b"/><path d="M91.65 122.48c-13.86-.13-26.65-.33-29-.71-.6-3.41-2.62-23.25-3.48-26.57a34 34 0 0 0-11.33 5.84c-.4 3.77.69 21.48.69 24.36 0 8.96.29 41.58-.19 53.11-.97 23.5-7.63 109.67-7.63 135a1 1 0 0 0 .95.92c7.84 1.38 40.98 1.8 50 1.78 9.02.02 42.16-.4 50-1.78a1 1 0 0 0 .94-.92c0-25.87-6.92-109.27-8.06-134.88-.51-11.54.24-44.27.24-53.23 0-2.88 1.09-20.58.69-24.35a34 34 0 0 0-11.33-5.85c-.87 3.32-3 23.17-3.58 26.58-2.36.38-15.04.57-28.9.7" style="fill:#3d8dcc"/><path d="M91.65 120.48q-9.3-.08-18.63-.26a332 332 0 0 1-8.76-.3l-.89-.07-.32-.03c-.38-.03.47.07.13.02l1.4 1.4-.14-.9-.03-.21-.07-.52-.4-3.2-.96-8.25q-.49-4.2-1.05-8.42a45 45 0 0 0-.83-5.07 2.03 2.03 0 0 0-2.46-1.4 38 38 0 0 0-9.04 4.06c-1.16.71-3.3 1.78-3.68 3.18a10 10 0 0 0-.15 2.29c-.08 4.6.2 9.22.4 13.81.35 7.57.39 15.1.42 22.68.04 10.78.1 21.57-.07 32.35a447 447 0 0 1-.89 20.17c-.55 9.24-1.17 18.48-1.77 27.72q-1.08 16.33-2.13 32.66-1.03 15.82-1.9 31.66a813 813 0 0 0-1.05 24.68q-.05 2.2-.06 4.39a3.16 3.16 0 0 0 2.12 3.35 13 13 0 0 0 2.34.38c3.94.48 7.92.64 11.88.81a868 868 0 0 0 53.22.57c9.83-.17 19.72-.29 29.52-1.15a22 22 0 0 0 4.68-.6c2.51-.82 2.13-3.48 2.1-5.58q-.1-5.4-.34-10.79c-.4-9.56-.97-19.11-1.57-28.67q-1.05-16.7-2.23-33.4l-2.22-31.89c-.55-8.09-1.11-16.18-1.53-24.27-.46-8.79-.35-17.59-.27-26.38.1-9.6.3-19.19.36-28.78.04-8 .94-15.99.76-24a5.5 5.5 0 0 0-.35-2.5c-.7-1.2-2.48-2.1-3.64-2.8a38 38 0 0 0-8.88-3.96 2.03 2.03 0 0 0-2.46 1.4 47 47 0 0 0-.84 5.08q-.57 4.2-1.09 8.42l-1 8.25-.41 3.2-.02.14-.08.6-.14.89 1.4-1.4c-.35.05.56-.05.13-.02l-.26.02a62 62 0 0 1-3.15.19q-3.26.13-6.5.18-9.3.19-18.6.26c-2.56.02-2.57 4.02 0 4q9.5-.08 18.96-.26a82 82 0 0 0 10.48-.52 1.9 1.9 0 0 0 1.4-1.4c.77-4.48 1.17-9.05 1.73-13.56.53-4.35.78-8.77 1.86-13.02l-2.46 1.4a29 29 0 0 1 10.44 5.34l-.59-1.42a83 83 0 0 1-.15 11.48c-.16 4-.4 8-.52 12-.23 8.01-.2 16.06-.3 24.08-.12 9.56-.32 19.15 0 28.72.22 6.82.72 13.64 1.17 20.45 1.34 20.23 2.83 40.45 4.18 60.68 1.16 17.5 2.5 35.05 2.74 52.6a17 17 0 0 0 .01 1.84c.01.08-.05.41 0 .47l.52-.86-.24.04a2 2 0 0 0-.4.06c-.57.1.2-.02-.2.03q-2.4.28-4.84.44c-4.5.31-9 .48-13.52.63q-13.81.45-27.64.5-11.4.03-22.77-.24c-9.04-.19-18.15-.28-27.15-1.19l-1.02-.1-.47-.07c.55.07.07.01-.04 0l-.39-.06-.12-.02q-.65-.16.4.84c.11-.14 0-.87 0-1.06q.02-2.07.07-4.14.14-5.37.38-10.72a1739 1739 0 0 1 1.45-27.39c1.22-20.43 2.61-40.84 3.94-61.26.97-14.86 1.94-29.7 2.03-44.59.07-10.25.02-20.5-.03-30.74-.03-7.2-.3-14.34-.58-21.53a80 80 0 0 1-.13-10.89l-.59 1.42a29 29 0 0 1 10.44-5.33l-2.46-1.4c1.08 4.26 1.28 8.6 1.8 13.02.53 4.5.91 9.07 1.67 13.55a1.9 1.9 0 0 0 1.4 1.4 82 82 0 0 0 10.54.52c6.33.14 12.67.2 19 .27 2.58.02 2.58-3.98 0-4" class="b"/><path d="M130.4 227.46c-7.56.02-15.15.16-22.7.5a3.5 3.5 0 0 0-3.07 1.6c-.6 1.06-.44 2.4-.44 3.58-.02 2.62-.02 5.23.13 7.84a25 25 0 0 0 1.22 7.37c.98 2.56 3 3.68 5.56 4.4a28 28 0 0 0 21.98-3.06c2.16-1.39.16-4.85-2.02-3.46a24 24 0 0 1-16.79 3.15 15 15 0 0 1-3.63-1 5 5 0 0 1-.94-.57c-.35-.32.17.32-.08-.12q-.15-.25-.27-.5a20 20 0 0 1-1-5.74 104 104 0 0 1-.17-7.27 14 14 0 0 0 .01-2.6v-.2q.06-.77-.74.58c.03.02.12-.01.15 0a2 2 0 0 0 .51 0l10.62-.26c3.89-.1 7.78-.22 11.66-.23 2.58 0 2.58-4 0-4Z" class="b"/><path d="M48 103.96a3.5 3.5 0 0 1 3.13.24 5 5 0 0 1 2.16 3.64 9 9 0 0 1-.45 4.33 49 49 0 0 1-5.29 10.93q3.37 6.96 6.14 14.2a5.6 5.6 0 0 1 .54 3.08 5 5 0 0 1-2.7 3.04c-4.4 2.62-13.1 4.4-20.12 5.17-5.1.56-14.67.75-19.52-.87a5 5 0 0 1-3.3-2.38 5.6 5.6 0 0 1-.14-3.13q1.13-7.46 2.87-14.82a49 49 0 0 1-7.95-9.97 9.4 9.4 0 0 1-1.36-4.12 5 5 0 0 1 1.33-4.03 3.4 3.4 0 0 1 3.51-.74" class="e"/><path d="M5.3 98.46c.09-2.94.79-5.85 2.52-7.87-2.75-12.03 2.28-21.08 11.34-6.87a22.6 22.6 0 0 1 11.3-1.14c6.34-15.69 12.82-8.34 12.53 3.59 3.83 2.73 5.15 9.35 5.09 13.88-.55 9.89-12.45 13.03-19.83 13.74-7.36.9-19.65.38-22.3-9.16a24 24 0 0 1-.65-6.17" class="a"/><path d="M15.73 79.2c-6.84-7.2-10.3.98-7.91 11.38a10 10 0 0 0-2.08 4.36c7.82.57 19.2-3.32 18.84-12.5a20 20 0 0 0-5.42 1.28 30 30 0 0 0-3.43-4.52" class="e"/><path d="M7.39 106.6a5.5 5.5 0 0 0-6.48 2.57 8.8 8.8 0 0 0-.07 7.63 29 29 0 0 0 3.97 6.26 52 52 0 0 0 5.22 5.86c1.85 1.79 4.68-1.03 2.82-2.83a49 49 0 0 1-7.31-8.98A7.6 7.6 0 0 1 4 112.4c.13-1.27 1-2.42 2.33-1.93a2 2 0 0 0 2.46-1.4 2.04 2.04 0 0 0-1.4-2.46" class="b"/><path d="M9.7 125.6q-1.3 5.39-2.3 10.85a154 154 0 0 0-.87 5.23 7.4 7.4 0 0 0 .5 4.98c1.35 2.34 4.38 3.17 6.85 3.62a51 51 0 0 0 8.24.7 84 84 0 0 0 16.65-1.45 62 62 0 0 0 8.86-2.23c2.43-.83 5.19-1.85 7.02-3.74 3.13-3.21.8-7.36-.62-10.83q-2.4-5.81-5.15-11.47c-1.13-2.31-4.58-.28-3.45 2.02q2.12 4.33 4.01 8.77.94 2.2 1.81 4.43c.4 1.01 1.47 2.79.9 3.85a5.5 5.5 0 0 1-2.38 1.79 22 22 0 0 1-3.03 1.27 58 58 0 0 1-7.61 2 79 79 0 0 1-14.26 1.6 68 68 0 0 1-7.3-.23 18 18 0 0 1-5.98-1.29c-1.28-.61-1.37-1.39-1.2-2.73.23-1.75.56-3.5.87-5.23q.99-5.46 2.3-10.85c.6-2.5-3.25-3.56-3.86-1.06" class="b"/><path d="M48.53 105.89c1.27-.5 2.2.26 2.6 1.48.6 1.83 0 3.69-.63 5.4a49 49 0 0 1-5.1 9.97c-1.43 2.15 2.03 4.16 3.45 2.02a50 50 0 0 0 3.56-6.27 32 32 0 0 0 2.7-7.02 9.3 9.3 0 0 0-1.1-7.2 5.6 5.6 0 0 0-6.55-2.24 2.06 2.06 0 0 0-1.4 2.46 2 2 0 0 0 2.46 1.4ZM9.7 89.87a33 33 0 0 1-.44-2.39l.01.07-.06-.53a25 25 0 0 1-.15-2.96q0-.62.06-1.25l.05-.57c.01-.15.12-.53-.01.05l.05-.36a13 13 0 0 1 .55-2.1c.17-.49-.2.4.02-.05a9 9 0 0 1 .44-.78l.1-.13c.17-.29-.37.4-.09.11l.24-.26.17-.15c.13-.13.17.02-.23.18l.3-.2.17-.09c.1-.07-.57.17-.18.08l.31-.08c.35-.11-.6 0-.1.01h.35c.45 0-.56-.12.03.02l.42.12.17.06c.35.11-.45-.24-.12-.05q.46.25.92.53l.29.2c.31.22-.33-.28-.01-.01l.55.48a17 17 0 0 1 1.22 1.24 23 23 0 0 1 .89 1.06c.37.47-.23-.32.14.18q.74 1 1.42 2.04a2 2 0 1 0 3.45-2.02 25 25 0 0 0-5.45-6.28 6.5 6.5 0 0 0-5.12-1.47c-3.7.73-4.74 5.27-4.96 8.43a28 28 0 0 0 .74 7.93 2 2 0 0 0 2.46 1.4 2.05 2.05 0 0 0 1.4-2.46" class="b"/><path d="M19.95 85.55a17 17 0 0 1 2.33-.7q.64-.15 1.3-.26l.66-.1c-.18.03-.25.03-.03 0l.42-.04a25 25 0 0 1 2.66-.15q.63 0 1.26.04l.6.05q.15 0 .29.03c.28.03-.5-.08-.04 0a2.05 2.05 0 0 0 2.46-1.4 2 2 0 0 0-1.4-2.46 23 23 0 0 0-5.83-.11 23 23 0 0 0-5.75 1.25 2.05 2.05 0 0 0-1.4 2.46 2 2 0 0 0 2.46 1.4Zm-13.1 3.14c-2.5 2.58-3.42 6.16-3.54 9.67A19 19 0 0 0 5.16 108c2.89 5.35 9.03 7.38 14.73 7.93a44 44 0 0 0 15.94-1.52c5.57-1.57 11.24-4.65 13.43-10.34 1.28-3.34.88-7.2.09-10.61-.84-3.6-2.53-7.2-5.7-9.28-2.16-1.42-4.17 2.04-2.03 3.45 2.13 1.4 3.14 4.03 3.75 6.4a16 16 0 0 1 .47 7.6c-1.13 4.62-5.61 7.17-9.82 8.55a41 41 0 0 1-13.28 1.9c-4.44-.05-9.61-.82-12.8-4.23-1.93-2.05-2.47-4.82-2.61-7.55-.16-3.01.14-6.51 2.35-8.79 1.8-1.84-1.03-4.68-2.82-2.83Z" class="b"/><path d="M44.96 86.8a30 30 0 0 0-.52-7.12 14 14 0 0 0-1.98-5.17 6 6 0 0 0-3.8-2.8 6 6 0 0 0-5.1 1.85 21 21 0 0 0-4.52 7.23 2.06 2.06 0 0 0 .72 2.74 2 2 0 0 0 2.74-.72 33 33 0 0 1 1.8-3.65 20 20 0 0 1 1.22-1.84c-.3.4.14-.16.24-.27a9 9 0 0 1 .82-.83l.18-.15c.29-.27-.32.2-.1.08l.48-.32c.09-.04.3-.1.35-.17-.14.2-.45.16-.23.1l.21-.07.38-.09c-.47.24-.47.03-.29.04H38c.23-.03-.51-.11-.3-.04l.35.08q.08.01.15.05c.3.07-.41-.22-.22-.1q.19.12.39.22c.37.22-.24-.22-.06-.05l.3.27.29.31c.33.36-.22-.35.05.07q.27.4.5.83l.23.46c.03.06.13.2.13.27 0-.11-.17-.42-.04-.08a18 18 0 0 1 .72 2.39q.17.76.29 1.54l.13 1.3a31 31 0 0 1 .05 3.66 2 2 0 0 0 2 2 2.04 2.04 0 0 0 2-2Zm-11.68 9.26a2.93 2.93 0 0 0-2.64 3.27 2.9 2.9 0 0 0 3.29 2.68 2.85 2.85 0 0 0 2.64-3.33 2.9 2.9 0 0 0-3.29-2.62M19.04 97.6a2.93 2.93 0 0 0-2.65 3.27 2.9 2.9 0 0 0 3.3 2.68 2.85 2.85 0 0 0 2.63-3.33 2.9 2.9 0 0 0-3.28-2.62m23.64.13a19 19 0 0 1 2.31-1.16l-.48.2q.7-.3 1.4-.53a2 2 0 0 0 1.2-.92 2 2 0 0 0-.71-2.74 2 2 0 0 0-1.55-.2 22 22 0 0 0-4.19 1.9 2 2 0 0 0-.92 1.2 2 2 0 0 0 .2 1.54 2 2 0 0 0 1.2.92 2 2 0 0 0 1.54-.2Zm.09 6.45 3.58.6a1.5 1.5 0 0 0 .8.04 1.5 1.5 0 0 0 .74-.24 2 2 0 0 0 .72-2.73 2 2 0 0 0-1.2-.92l-3.58-.61a1.5 1.5 0 0 0-.8-.04 1.5 1.5 0 0 0-.75.24 2 2 0 0 0-.71 2.74 2 2 0 0 0 1.2.92m-36.01-2.5 3.27 1.32a1.5 1.5 0 0 0 .8.04 1.5 1.5 0 0 0 .74-.24 2 2 0 0 0 .72-2.73l-.31-.4a2 2 0 0 0-.88-.52l-3.28-1.33a1.5 1.5 0 0 0-.8-.04 1.5 1.5 0 0 0-.74.24 2 2 0 0 0-.72 2.73l.31.41a2 2 0 0 0 .89.51Zm4.7 8.58a13 13 0 0 1 1.38-1.25l-.4.32a12 12 0 0 1 1.52-1 2 2 0 0 0 .92-1.2 1.5 1.5 0 0 0 .04-.8 1.5 1.5 0 0 0-.24-.74 2 2 0 0 0-1.2-.92 2 2 0 0 0-1.54.2 15 15 0 0 0-1.92 1.31 13 13 0 0 0-1.4 1.25 2 2 0 0 0-.58 1.41 2 2 0 0 0 .59 1.42 2 2 0 0 0 1.41.58 2 2 0 0 0 1.42-.58" class="b"/><path d="M177.27 114.01a3.5 3.5 0 0 1 2.93 1.12 5 5 0 0 1 1.03 4.1 9 9 0 0 1-1.65 4.03 49 49 0 0 1-8.17 8.98q1.25 7.63 1.86 15.35a5.6 5.6 0 0 1-.36 3.12 5 5 0 0 1-3.46 2.14c-4.96 1.26-13.81.51-20.76-.75-5.04-.91-14.27-3.45-18.47-6.37a5 5 0 0 1-2.49-3.22 5.6 5.6 0 0 1 .76-3.04q3.2-6.84 6.96-13.4a49 49 0 0 1-4.8-11.81 9.4 9.4 0 0 1-.13-4.35 5 5 0 0 1 2.42-3.48 3.4 3.4 0 0 1 3.58.29" class="f"/><path d="M137.79 96.94c1.16-3.71 3.32-7.14 6.84-8.1-4.24-3.1-1.48-9.8 4.2-9.3 3.32.36 6.25 3.88 4.74 6.86 3.73-.65 9.83.39 13.49 2.13l1.82.87-.02-.1c-.45-3.38 3.6-5.68 6.87-4.82 5.37 1.53 5.65 8.5.9 10.1 3.9 3.4 3.3 10.99 1.82 15.71-3.33 9.32-15.63 8.96-22.9 7.55-7.31-1.24-18.95-5.22-18.8-15.12a25 25 0 0 1 1.04-5.78" class="f"/><path d="M137.53 104.99a5.5 5.5 0 0 0-6.94.7 8.7 8.7 0 0 0-2.22 6.95 29 29 0 0 0 2.06 7.42 53 53 0 0 0 3.37 7.17c1.27 2.24 4.72.22 3.46-2.02a49 49 0 0 1-4.43-10.62 7.5 7.5 0 0 1-.11-5.06c.52-1.18 1.64-1.93 2.79-1.09a2 2 0 0 0 2.74-.71 2.05 2.05 0 0 0-.72-2.74" class="b"/><path d="M134.37 123.94q-2.78 4.8-5.29 9.74a129 129 0 0 0-2.31 4.78c-.78 1.69-1.44 3.45-.77 5.3.93 2.6 3.66 4.16 6.02 5.28a55 55 0 0 0 7.64 2.89 85 85 0 0 0 16.4 3.2 59 59 0 0 0 9.21.3c2.52-.14 5.48-.4 7.62-1.86 3.43-2.35 2.34-6.78 1.98-10.3q-.64-6.26-1.69-12.47a2 2 0 0 0-2.46-1.4 2.05 2.05 0 0 0-1.4 2.46q.8 4.73 1.34 9.5.28 2.4.48 4.8c.09.98.56 2.8-.04 3.7-.5.76-1.8.99-2.6 1.17a20 20 0 0 1-3.23.4 56 56 0 0 1-7.95-.17 79 79 0 0 1-13.97-2.43c-4.13-1.12-9-2.35-12.44-5.05-1.3-1.02-1.34-1.84-.7-3.3q1.11-2.41 2.33-4.77 2.49-4.95 5.28-9.75c1.3-2.23-2.16-4.24-3.45-2.02" class="b"/><path d="M177.27 116.01c1.42-.12 2.05 1.03 2.04 2.35a8.4 8.4 0 0 1-2.12 4.8 49 49 0 0 1-7.79 8.17 2 2 0 0 0 0 2.83 2.04 2.04 0 0 0 2.83 0 50 50 0 0 0 5.27-5.08 34 34 0 0 0 4.4-5.73 9.5 9.5 0 0 0 1.08-7.25 5.64 5.64 0 0 0-5.71-4.08 2.05 2.05 0 0 0-2 2 2 2 0 0 0 2 2ZM154.6 88.27a21 21 0 0 1 2.97-.01q.78.05 1.55.14l.22.03.23.04.89.14a30 30 0 0 1 3.06.73q.76.22 1.5.5l.66.25c.29.11-.27-.13 0 0l.37.17a2.05 2.05 0 0 0 2.74-.71 2 2 0 0 0-.72-2.74 30 30 0 0 0-13.47-2.54 2 2 0 0 0 0 4" class="b"/><path d="M145.6 87.1c.53.4.03.02-.08-.1l-.36-.36c-.34-.39.2.33-.02-.03q-.16-.23-.28-.45l-.1-.21c-.14-.26.09-.08.06.18a2 2 0 0 0-.14-.44l-.1-.4c-.05-.22.07-.26.02.21l-.02-.27a8 8 0 0 1 .02-.86c.01-.25-.11.56-.03.22l.04-.18q.05-.27.14-.53c.03-.1.21-.55.06-.19s.04-.09.09-.18q.1-.2.23-.4l.13-.2c.23-.36-.3.35-.06.08a7 7 0 0 1 .58-.62l.19-.16c.18-.17-.44.32-.14.11l.45-.3.39-.2c.47-.23-.41.14.08-.03.33-.12.69-.15 1.02-.26-.5.16-.3.03-.1.02l.8-.02h.23c.43.02-.47-.1-.03 0l.61.15.3.1c.16.06.34.2-.06-.04l.56.3q.25.13.48.3c.14.1.26.28-.05-.06q.14.14.29.25a6 6 0 0 1 .52.53l.16.2-.13-.17.1.15q.19.3.35.63c.1.2-.05.13-.06-.15l.12.33.09.34.02.11q.06.32-.02-.19l.02.58-.01.12q-.03.32.03-.19a1 1 0 0 0-.08.35l-.07.23.06-.14-.12.23a2 2 0 0 0 3.46 2.02c2.51-4.8-2.17-10.07-7.12-10a7.6 7.6 0 0 0-7.55 7.27 7 7 0 0 0 3.01 5.78 2 2 0 0 0 2.74-.72 2.06 2.06 0 0 0-.72-2.74m31.29 9.5a7 7 0 0 0 4.38-3.6 7.3 7.3 0 0 0 .33-5.48 7.6 7.6 0 0 0-3.83-4.37 8.2 8.2 0 0 0-7.1 0 6.3 6.3 0 0 0-3.8 6.15 2.05 2.05 0 0 0 2 2c.97-.04 2.12-.89 2-2a4 4 0 0 1-.04-.64l.02-.24c.08.2-.08.41-.02.17a2 2 0 0 0 .16-.57c.04.18-.18.37-.06.15l.17-.31.16-.25c.12-.24-.33.36-.05.07l.33-.35.23-.2c.17-.2-.4.27-.06.04q.25-.17.53-.33l.28-.15c.33-.19.02.09-.07.02.04.03.4-.15.48-.18l.63-.16.25-.05c.43-.08-.41.02-.01 0l.65-.01c.11 0 .44.09.52.03-.16.11-.43-.08-.09 0l.32.08q.3.08.59.2c.4.14-.32-.18-.1-.04l.27.13q.2.1.4.23l.24.15c.15.1.22.27-.1-.08.12.13.28.24.4.36l.37.38c.2.23-.27-.38 0 .01a9 9 0 0 0 .5.88c-.1 0-.17-.46-.09-.2l.1.29.11.38.1.48c0-.02-.05-.55-.03-.24l.02.29a6 6 0 0 0-.03.87c-.08-.33.08-.46.02-.2l-.05.24-.13.46-.06.18c-.1.35.2-.42.05-.12l-.28.5-.1.17c-.22.33-.04-.1.07-.1-.05 0-.29.33-.33.37-.07.07-.55.48-.25.24s0-.02-.05.02l-.27.17q-.24.1-.48.24c.4-.26.3-.11.11-.06q-.18.07-.38.12a2 2 0 0 0 1.06 3.86Z" class="b"/><path d="M142.1 87.72c-3.02 1.7-4.85 4.73-5.98 7.91a20 20 0 0 0-1.13 9.78c1.06 6.06 6.44 9.87 11.78 12.05a44 44 0 0 0 15.75 3.13c5.54.09 11.87-1.1 15.55-5.63 2.36-2.9 3.16-6.57 3.44-10.23.3-3.86-.29-7.92-2.85-10.96-1.66-1.97-4.47.87-2.83 2.83 1.68 1.99 1.84 4.95 1.73 7.43a15.6 15.6 0 0 1-1.96 7.57c-2.5 3.9-7.6 4.9-11.91 4.98a42 42 0 0 1-13.24-2.03c-4.23-1.35-9.04-3.66-10.95-7.94-1.13-2.52-.77-5.32-.12-7.92.72-2.89 2.02-6 4.74-7.52 2.25-1.25.23-4.71-2.02-3.45" class="b"/><path d="M165.4 102.26a2.93 2.93 0 0 0-3.47 2.38 2.9 2.9 0 0 0 2.4 3.51 2.85 2.85 0 0 0 3.48-2.44 2.9 2.9 0 0 0-2.41-3.45m-14.1-2.56a2.93 2.93 0 0 0-3.46 2.38 2.9 2.9 0 0 0 2.4 3.51 2.85 2.85 0 0 0 3.47-2.44 2.9 2.9 0 0 0-2.41-3.45" class="b"/></svg>
