<svg xmlns="http://www.w3.org/2000/svg" viewBox="-52.37 0 327.556 327.556"><defs><style>.a{fill:#fff}.c{fill:#211715}</style></defs><path d="M140.42 77.72a7.8 7.8 0 0 1 5.61-1.27c3.86.57 5.28 2.75 5.86 4 1.72 3.74.9 10.17-.98 14a20.4 20.4 0 0 1-7.66 9.1 15 15 0 0 1-7.76 1.7l-.22 1.09a30 30 0 0 1-3.1 7.19 41 41 0 0 1-1.9 3.17c.51 2.28.7 3.05 1.15 4.98a28 28 0 0 0 1.7 5.53c2.6 5.5 8.08 5.78 13.62 7.87-12.47 10.81-28.39 18.24-44.16 19.52-6.03.48-12.22.2-18.03-1.88-6.1-2.19-11.37-5.76-14.76-12.11a13 13 0 0 0 4.97-3.45s.04-.03.1-.08a30 30 0 0 1-16.73-8.15c-7.59-7.38-10.82-19.2-12.22-31.46-.81-7.07-1.53-14.75-2.57-22.42 0 0-10.84-33.36 41.15-34.3 59.11-1.09 55.93 36.97 55.93 36.97" class="a"/><path d="M140.74 18.8a9 9 0 0 1 .79.64c7.33 6.69 11.03 14.4 13.54 23.81a48 48 0 0 1 1.6 14.78c-.26 5.18-.7 16.79-4.2 23.68l-.58-1.26c-.57-1.25-2-3.43-5.85-4a8 8 0 0 0-4.43.58 7 7 0 0 1-2.86.71l-.6.01c-2.85-.21-4.5-1.46-6.42-3.49a30 30 0 0 1-2.71-3.22c-11.1-18.62-25.52-23.18-28.65-24.33l-9.72-1.15C80.18 48.12 70.82 56.6 65.92 59.7a1.73 1.73 0 0 1-2.57-1.72 9 9 0 0 0-.41-3.3c-.42-1.38-1.52-1.9-2.33-1.42-6.87 4.13-16.19 18.29-16.94 23.36l-.25 1.7a90 90 0 0 1-.99-30.02c1.42-8.73 5.36-18.56 10.95-25.37 9.68-11.8 24.3-19.14 42.6-20.36 11.57-.78 23.17 1.17 35.8 9.81Z" style="fill:#85807f"/><path d="M206.28 180.54c5.78 14.06 10.55 31.27 12.38 44.8 2.77 20.54 2.2 38.47-1.85 50.32-4.08 11.92-10.1 20.18-21.61 28.25a9.4 9.4 0 0 1-5.44 1.76c-1.79 0-3.62.11-5.34-1.9l-66.26 17.02c-22.16 5.39-53.34 4.88-70.15-1.52-7.18-3.1-12.48-6.38-16.08-12.05a38 38 0 0 1-5.4-13.33 50 50 0 0 1-17.8-9.48c-7.06-6.89-7.78-21.66-4.22-37.19 5.82-25.39 6.61-37.75 10.65-56.64 2.33-10.92 6.5-20.37 15.05-28.28 8.05-7.44 23.29-15.44 39.39-21.62l.2-.07c3.38 6.35 8.65 9.92 14.75 12.1 5.81 2.09 12 2.37 18.03 1.89 15.87-1.28 31.9-8.8 44.4-19.72 16.28 3.86 36.45 11.14 47.79 24.67 3.91 4.68 7.9 12.22 11.5 20.98" class="a"/><path d="M13.63 277.14a12 12 0 0 1 3.49-2.1l10.2-3.87-.16.94c-2.09 12.98-2.55 23.58 4.77 35.11 2.85 4.48 6.76 7.48 11.82 10.06l-1.38 3.02c-1.05 2.48-4.51 3.32-7.66 2.59-2.23-.52-8.88-4.96-12.28-8.72a50 50 0 0 1-7.22-9.8c-2.54-5.08-5.1-10.33-5.56-15.99-.36-4.32.84-8.49 3.98-11.24m153.78-8.53a41 41 0 0 0-7.87-.45 133 133 0 0 0-17.39 1.73c-4.88.78-5.2 2.47-5.06 6.05.14 3.27 6.17 5.19 10.34 5.44l2.28.15c-5.41 2.36-10.9 4.6-16.37 5.68-7.38 1.46-9.06 4.31-9.06 6.68 0 1.83 1.43 3.03 3.74 3.43l-2.29.3c-4.3.55-7.8 2.34-7.55 6.08.23 3.69 4.7 4.07 7.74 4-2.28.6-4.17 1.88-4.02 4.79.1 1.97 1.95 4.03 5.03 3.74l7.11-.69-3.4.64c-2.43.46-4.01 2.01-3.98 4.23a4.6 4.6 0 0 0 2.3 3.86c2.49 1 5.5.78 8.1.8a99 99 0 0 0 17.9-1.47c2.2-.58 5.3-1.49 7.14-2.83 4.38-3.2 21.53-14.98 22.57-19.21l3.13-1.27c-.49-8.96-3.71-17.81-9.42-27.46a14.4 14.4 0 0 0-4.54-4.76l-3.37 1.6a10 10 0 0 0-3.06-1.06" class="a"/><path d="M16.48 272.72a14.3 14.3 0 0 0-8.94 10.63c-1.1 5.76.69 11.5 2.98 16.74a56 56 0 0 0 3.87 7.68 58 58 0 0 0 5.2 6.8 43 43 0 0 0 11.28 9.2 12 12 0 0 0 6.4 1.76c2.84-.1 5.9-1.3 7.17-4.02a2.47 2.47 0 0 0-.87-3.29 2.4 2.4 0 0 0-3.28.86c-.67 1.42-2.26 1.72-3.75 1.65-1.68-.07-2.15-.46-3.64-1.33a38 38 0 0 1-9.27-7.5 49 49 0 0 1-7.74-11.57c-2.04-4.23-3.98-8.89-3.9-13.67.06-3.96 1.97-7.74 5.77-9.31a2.5 2.5 0 0 0 1.67-2.96 2.4 2.4 0 0 0-2.95-1.67" class="c"/><path d="M23.1 308.85a17 17 0 0 0 6.48 2.1 15 15 0 0 0 2.25.07 3.8 3.8 0 0 0 2.45-.95 4.3 4.3 0 0 0 1.2-2.02 2.4 2.4 0 1 0-4.63-1.27c-.1.35.11-.2.1-.2.03.04-.3.46 0 .07a1 1 0 0 1 .43-.3c.11-.05.88-.14.51-.13h-.21l-.48.02q-.48 0-.94-.03-.26 0-.5-.03c-.22-.02-.83-.15 0 0a15 15 0 0 1-2.11-.5l-.6-.22c-.07-.03-.4-.17-.06-.02l-.13-.06q-.69-.31-1.33-.68a2.4 2.4 0 1 0-2.42 4.15Zm105.04-190.68c1.03 4.51 1.7 9.69 4.94 13.23 2.78 3.02 6.91 4.02 10.68 5.2a2.4 2.4 0 1 0 1.27-4.63c-1.72-.54-3.46-1.03-5.14-1.69-.41-.16.1.05-.14-.06l-.6-.28q-.54-.27-1.05-.58l-.55-.36c-.41-.27.2.2-.2-.16q-.46-.4-.87-.84l-.37-.42c.26.33-.17-.26-.18-.27a10 10 0 0 1-.68-1.19 17 17 0 0 1-1-3c-.55-2.06-1-4.15-1.48-6.22a2.4 2.4 0 0 0-4.63 1.27m11.31-97.38c6.48 5.84 10.49 13.24 12.88 21.56a48 48 0 0 1 1.94 15.68c-.15 3.35-.35 6.7-.74 10.04-.5 4.24-1.26 8.74-3.21 12.58-1.4 2.74 2.73 5.18 4.14 2.42 3.74-7.32 4.16-16.08 4.57-24.14a57 57 0 0 0-6.53-29.2 45 45 0 0 0-9.66-12.33c-2.29-2.06-5.69 1.32-3.39 3.4ZM99.74 49.02q1.46.53 2.9 1.1l.23.1-.12-.05.48.2 1.2.56q1.32.63 2.6 1.34a50 50 0 0 1 12.45 9.9 61 61 0 0 1 7.46 10.08c1.6 2.65 5.74.24 4.15-2.42-6.14-10.22-14.93-19.09-25.99-23.84a80 80 0 0 0-4.08-1.6 2.4 2.4 0 0 0-2.96 1.68 2.45 2.45 0 0 0 1.68 2.95M45.99 77.26a13 13 0 0 1 1.32-3.79 52 52 0 0 1 3.04-5.33 55 55 0 0 1 8.37-10.37c.6-.57 1.4-1.27 1.87-1.61a6 6 0 0 0 1.03-.7c.27-.33 1.02.12-.7-.02-.64-.05-.25-.46-.24.09.01.47.24.97.27 1.46a14 14 0 0 0 .1 1.97 4.3 4.3 0 0 0 2.85 3.22c2.28.72 4.21-1.02 5.92-2.27q2.64-1.93 5.3-3.84c4.95-3.48 10.23-6.7 16.16-8.2 3-.75 1.73-5.38-1.27-4.62a50 50 0 0 0-15.5 7.42c-2.05 1.38-4.04 2.85-6.03 4.31q-1.2.88-2.4 1.73-.51.32-1 .68c-.5.36-.38.08-.19.2-.13-.08 1.13.15.83.4.16-.13.02-1.18 0-1.35a12 12 0 0 0-.35-2.17 4.8 4.8 0 0 0-2.94-3.57c-2.42-.8-4.55 1.22-6.25 2.7a55 55 0 0 0-9.08 10.74 56 56 0 0 0-3.76 6.35 19 19 0 0 0-1.99 5.3 2.47 2.47 0 0 0 1.68 2.95 2.4 2.4 0 0 0 2.95-1.68Zm46.8 11.78c-.69-2.5-.02-8.18 4.69-8.53 6.2.23 6.32 7.13 4.14 10.3-1.79 2.6-6.85 3.56-8.83-1.77m-36.86.05c-.63-2.5-.02-8.2 4.3-8.55 5.67.22 5.79 7.14 3.79 10.33-1.64 2.6-6.28 3.56-8.09-1.78m19.22 5.72a53 53 0 0 0-2.24 4.15 6 6 0 0 0-.68 2.26 3.2 3.2 0 0 0 1.1 2.57 5 5 0 0 0 2.06 1.17 12 12 0 0 0 1.53.2l-.63-.09.06.01a2.6 2.6 0 0 0 1.85-.24 2.4 2.4 0 0 0 .86-3.29 2.3 2.3 0 0 0-1.44-1.1l-1.3-.15.64.09a3 3 0 0 1-.61-.16l.57.24a3 3 0 0 1-.5-.3l.48.37a3 3 0 0 1-.43-.39l.38.49-.1-.15.25.57-.06-.25.08.64v-.27l-.08.64a3 3 0 0 1 .19-.66l-.25.57a43 43 0 0 1 2.4-4.5 2.4 2.4 0 0 0-4.14-2.42Z" class="c"/><path d="M133 10.31A57.6 57.6 0 0 0 103.73.1a70 70 0 0 0-28.36 4.4A57 57 0 0 0 53.5 19.12a56 56 0 0 0-13.08 26.8c-2.17 10.99-1.56 22.9.84 33.8.66 3.02 5.29 1.74 4.63-1.28a83 83 0 0 1-1.31-28.47c1.21-8.94 4.74-18.31 10.49-25.34C66.03 11.23 83.12 4.9 100.14 4.8a53 53 0 0 1 30.44 9.65c2.56 1.73 4.97-2.42 2.42-4.15ZM99.06 74.33a69 69 0 0 0 6.34 2.86 2.4 2.4 0 0 0 2.71-3.53 2.7 2.7 0 0 0-1.43-1.1 22 22 0 0 1-1.26-.5l.58.24c-1.53-.65-3.02-1.4-4.51-2.12a2.6 2.6 0 0 0-1.85-.24 2.4 2.4 0 0 0-1.68 2.96 2.4 2.4 0 0 0 1.1 1.43m14.87 11.07a51 51 0 0 0-.27 6.4c.07 1.9.08 4.2 1.21 5.82a6 6 0 0 0 6.11 2.21c2.29-.44 3.66-2.26 4.5-4.28a2.4 2.4 0 0 0-1.68-2.95 2.5 2.5 0 0 0-2.95 1.68c.27-.63-.14.23-.24.38l-.14.2q.3-.36.12-.16l-.28.3c-.33.34.4-.19-.05.02-.08.04-.5.19-.18.1.35-.08-.13.02-.21.04-.5.16.49 0-.04.01-.04 0-.5-.02-.52 0 .08-.08.54.1.04-.01-.06-.02-.37-.05-.4-.12q.42.2.18.07l-.22-.12c-.38-.2.18.22.01.03l-.17-.18q.28.4.13.17c-.27-.34.06-.1 0 .06a3 3 0 0 0-.15-.5l-.1-.43c-.09-.49-.09-.02 0 .05-.14-.11-.1-1.05-.1-1.25a36 36 0 0 1-.08-2.51c0-1.68.13-3.36.28-5.04a2.4 2.4 0 0 0-2.4-2.4 2.46 2.46 0 0 0-2.4 2.4Zm29.83 51.2c13.8 3.07 27.76 7.59 39.46 15.74a52 52 0 0 1 7.82 6.66 38 38 0 0 1 5.01 6.43 104 104 0 0 1 8.52 17.24 185 185 0 0 1 11.68 42.65 167 167 0 0 1 1.7 26.19 83 83 0 0 1-2.64 20.89 52 52 0 0 1-8.63 17.69 52 52 0 0 1-7.19 7.49q-2.16 1.87-4.48 3.54a9 9 0 0 1-5.04 2.15c-1.58.05-2.73.03-3.86-1.2-2.08-2.29-5.47 1.12-3.39 3.4 2.97 3.26 8.08 3.22 11.88 1.53a27 27 0 0 0 5.27-3.57 68 68 0 0 0 4.55-3.83A52.5 52.5 0 0 0 216.9 282c6.38-14.68 6.6-31.15 5.24-46.86a189 189 0 0 0-10.53-47.36c-4.55-12.71-10.03-26.21-20.44-35.28-11.54-10.07-26.57-15.67-41.23-19.38q-2.45-.61-4.91-1.16c-3-.67-4.3 3.96-1.28 4.63Z" class="c"/><path d="M68.2 142.7c6.1 10.23 17.93 14.46 29.38 14.5 11.89.04 23.64-3.44 34.11-8.94a89 89 0 0 0 16.71-11.45 2.4 2.4 0 0 0 0-3.4 2.45 2.45 0 0 0-3.4 0 81 81 0 0 1-28.45 16c-10.3 3.2-22.14 4.62-32.4.6a23.4 23.4 0 0 1-11.8-9.72c-1.59-2.65-5.74-.24-4.15 2.42Z" class="c"/><path d="M73.07 135.47a18 18 0 0 1-2.29 1.98 27 27 0 0 1-4.5 1.97q-5.12 2.03-10.13 4.32a146 146 0 0 0-17.94 9.58 61 61 0 0 0-13.1 10.77 51 51 0 0 0-9.37 15.78 100 100 0 0 0-4.24 16.68 584 584 0 0 0-2.64 15.2 687 687 0 0 1-6.87 35.74c-1.58 7.2-2.5 14.76-1.7 22.13.65 5.97 2.36 12.13 6.74 16.48 2.19 2.18 5.58-1.2 3.39-3.4-3.3-3.27-4.73-8.12-5.29-12.7a61 61 0 0 1 .94-18.54c1.26-6.7 2.93-13.32 4.21-20.02q1.48-7.9 2.78-15.81c.8-4.9 1.6-9.78 2.48-14.65a141 141 0 0 1 3.59-16.21 48 48 0 0 1 7.52-15.04 50 50 0 0 1 12.06-11 137 137 0 0 1 19.02-10.46q5.29-2.45 10.72-4.58a25 25 0 0 0 5.01-2.27 26 26 0 0 0 3-2.56c2.27-2.1-1.13-5.5-3.4-3.4Zm5.48-16.52.63-.32c.25-.12.1-.02-.07.03l.35-.13a14 14 0 0 1 1.63-.46l.81-.16.2-.03.2-.02a17 17 0 0 1 1.8-.1q.83 0 1.66.08c.27.02.17.02-.04-.01l.39.06.75.16s.47.13.7.21c.04.02.58.22.34.12-.21-.08.21.1.25.12q.94.45 1.9.88a2.47 2.47 0 0 0 3.29-.86c.55-1.03.37-2.76-.86-3.29a32 32 0 0 0-4.26-1.78 16 16 0 0 0-4.11-.5 17 17 0 0 0-7.98 1.85 2.4 2.4 0 0 0-.86 3.29 2.45 2.45 0 0 0 3.28.86m89.75 149.36a12.6 12.6 0 0 1 7.21 4.53 37 37 0 0 1 2.93 5q1.35 2.52 2.52 5.14a49 49 0 0 1 4.5 19.68c0 3.09 4.8 3.1 4.8 0a55 55 0 0 0-5.34-22.5c-1.7-3.77-3.58-7.84-6.27-11.02a17.2 17.2 0 0 0-9.07-5.46c-3-.72-4.29 3.9-1.28 4.63m-3.35-59.4c5.44 14.67 8.9 31.2 2.73 46.23a2.4 2.4 0 0 0 1.68 2.95 2.46 2.46 0 0 0 2.95-1.67c6.47-15.74 2.97-33.4-2.73-48.79a2.46 2.46 0 0 0-2.96-1.68 2.4 2.4 0 0 0-1.67 2.96" class="c"/><path d="M182.35 300.93c-.18.67.27-.3-.08.2l-.4.64c-.34.54.19-.18-.27.35l-.8.9a49 49 0 0 1-4.08 3.78 170 170 0 0 1-9.9 7.63l-4.19 3.01a19 19 0 0 1-4.43 2.66c-5.72 2.13-12.2 2.44-18.26 2.56q-2.65.04-5.31.02c-1.38 0-3.43.17-4.66-.58a2.3 2.3 0 0 1-.91-2c.15-1.02 1.22-1.38 2.22-1.6 3.02-.64 1.74-5.27-1.28-4.62-3.18.68-5.78 3.12-5.75 6.53a7.4 7.4 0 0 0 1.76 4.55 7.2 7.2 0 0 0 4.66 2.24 59 59 0 0 0 11.12.2 104 104 0 0 0 11.15-1.06 27 27 0 0 0 9.5-2.94 51 51 0 0 0 4.21-2.95c3.96-2.84 7.9-5.71 11.68-8.78a62 62 0 0 0 5.55-4.93 11 11 0 0 0 3.1-4.54c.8-2.98-3.82-4.26-4.63-1.27m-34.92-21.94c-2.38-.17-5.52-.84-7.26-2.28a4 4 0 0 1-.56-.55c.24.3-.26-.53-.12-.25-.03-.06 0-.01 0-.1q-.04-.55-.02-1.09l.02-.73c.02-.29-.01.03-.02.08l.08-.41c.04-.2.1-.58.02-.17l.13-.25c.24-.26-.37.43.04-.05.26-.3-.2.08.17-.15.07-.04.55-.3.31-.2a10 10 0 0 1 2.18-.57c1.7-.31 3.43-.53 5.14-.75 3.68-.46 7.39-.84 11.1-.94 3.31-.09 7.72-.43 10.61 1.17 2.71 1.49 5.14-2.66 2.43-4.15-3.67-2.02-8.26-1.9-12.32-1.83a113 113 0 0 0-13.27 1.14c-3.42.45-8.2.48-10.37 3.67a8 8 0 0 0 .42 8.88c2.63 3.06 7.46 4.06 11.3 4.33a2.4 2.4 0 0 0 2.4-2.4 2.45 2.45 0 0 0-2.4-2.4" class="c"/><path d="M151.03 278.35a113 113 0 0 1-14.72 5.68c-4.01 1.13-8.37 1.5-11.7 4.26a7 7 0 0 0-2.53 7.08 6.2 6.2 0 0 0 4.28 4.01c1.92.63 4.04.26 6.01.08a92 92 0 0 0 15.46-2.74c2.98-.8 1.72-5.43-1.27-4.63a84 84 0 0 1-11.81 2.33q-2.5.3-5 .45c-1.08.07-2.74.09-3.1-.84.16.4.08-.85.03-.42s.05-.2.07-.3c.07-.25.29-.65.05-.2l.31-.54c.26-.44-.12.07.17-.2q.26-.28.54-.53l.4-.28c3.07-2 7.06-2.19 10.5-3.23a133 133 0 0 0 14.72-5.83 2.4 2.4 0 0 0 .87-3.29 2.46 2.46 0 0 0-3.29-.86Z" class="c"/><path d="M125.1 295.3c-3.58.5-7.54 1.98-8.9 5.62a6.44 6.44 0 0 0 4 8.44c2.54.97 5.46.81 8.13.61 3.35-.25 6.7-.65 10.03-1.07 3.86-.5 7.73-1.02 11.55-1.75a2.4 2.4 0 0 0 1.68-2.95 2.45 2.45 0 0 0-2.96-1.68 195 195 0 0 1-17.06 2.36 55 55 0 0 1-6.77.43 8 8 0 0 1-3.21-.53 1.4 1.4 0 0 1-1.02-1.12 2.3 2.3 0 0 1 1.13-2.29 11 11 0 0 1 4.67-1.44 2.4 2.4 0 0 0 1.67-2.95 2.46 2.46 0 0 0-2.95-1.68" class="c"/><path d="M150.78 311.98c-6.23.73-12.47 1.49-18.74 1.75q-2.03.09-4.07.1c-1.01 0-2.29.23-3.08-.41a1.5 1.5 0 0 1-.53-1.86c.22-.81.92-1.14 1.8-1.42 2.92-.96 1.66-5.6-1.28-4.63-3.62 1.18-6.28 4.4-5.16 8.39a6.5 6.5 0 0 0 2.98 3.81c1.76 1.02 3.66.94 5.61.92a208 208 0 0 0 22.47-1.85 2.47 2.47 0 0 0 2.4-2.4 2.4 2.4 0 0 0-2.4-2.4m-29.52-184.22a31 31 0 0 0 10.48-9 44 44 0 0 0 3.11-5.16 27 27 0 0 0 2.74-6.63 2.46 2.46 0 0 0-1.68-2.95 2.43 2.43 0 0 0-2.95 1.68 22 22 0 0 1-2.3 5.59 45 45 0 0 1-2.91 4.85 26.4 26.4 0 0 1-8.9 7.48c-2.71 1.49-.3 5.63 2.42 4.14Zm-38.4 7c-9.84 1.1-19.97-2.64-25.89-10.78-6.02-8.3-7.82-18.83-8.92-28.78-.77-6.94-1.46-13.88-2.4-20.8a2.4 2.4 0 0 0-2.96-1.67 2.47 2.47 0 0 0-1.67 2.96c.86 6.33 1.48 12.7 2.18 19.05a105 105 0 0 0 2.97 17.1c2.9 10.35 8.67 19.91 18.67 24.68a33.4 33.4 0 0 0 18.02 3.05 2.47 2.47 0 0 0 2.4-2.4 2.4 2.4 0 0 0-2.4-2.4" class="c"/><path d="M141.63 79.79a6 6 0 0 1 7.41.63l.24.26c-.03-.03-.2-.26-.05-.05q.2.3.36.59a5 5 0 0 1 .46 1.2 14 14 0 0 1 .34 4.44c-.34 5.57-3.44 11.73-8.35 14.62a11 11 0 0 1-3.55 1.21 8 8 0 0 1-4.74-.26 2.47 2.47 0 0 0-3.28.86 2.4 2.4 0 0 0 .86 3.29c3.86 1.77 8.33 1.24 12.14-.46 3.52-1.56 6.34-4.8 8.25-8.07a25 25 0 0 0 3.44-10.82c.28-3.49-.2-7.43-2.64-10.12a10.7 10.7 0 0 0-13.32-1.46c-2.54 1.72-.14 5.88 2.43 4.14M108.9 130.1q-.28.26-.57.5l-.36.3c-.26.23.32-.23.03-.03a23 23 0 0 1-2.78 1.74l-.71.34-.37.17c-.33.16.53-.2-.07.03a25 25 0 0 1-3.28 1.03q-.9.22-1.81.37l-.44.07c-.46.08.14 0-.14.03q-.5.06-1.03.1a2.45 2.45 0 0 0-2.4 2.4 2.4 2.4 0 0 0 2.4 2.4c5.5-.52 10.8-2.28 14.92-6.06a2.4 2.4 0 0 0 0-3.4 2.45 2.45 0 0 0-3.39 0Zm-63.6 64.08c-3.57 5.49-5.76 11.93-7.33 18.25a68 68 0 0 0-2.39 18.2c.07 2.2.24 4.78 1.46 6.7 1.66 2.58 5.82.18 4.15-2.43l-.21-.36c-.29-.43.12.4 0 .03s-.23-.73-.31-1.11l-.12-.6-.05-.37.02.16q-.08-.78-.12-1.56a47 47 0 0 1 .36-7.62 80 80 0 0 1 4.38-18.09 44 44 0 0 1 4.3-8.78c1.7-2.6-2.46-5-4.14-2.42" class="c"/><path d="M37.08 236.57a119 119 0 0 0-11.97 33.35c-2.07 11.2-2.85 22.76 1.96 33.38a31.6 31.6 0 0 0 10.2 12.88 46 46 0 0 0 13.72 6.63c9.87 2.96 20.42 3.88 30.68 4.05a149 149 0 0 0 37.13-3.76c3-.72 1.73-5.35-1.28-4.63a140 140 0 0 1-31.04 3.6 125 125 0 0 1-30.07-2.8c-8.9-2.07-18.12-6.1-23-14.22a35 35 0 0 1-5-14.84 66 66 0 0 1 .85-16.17 113 113 0 0 1 11.96-35.05c1.44-2.73-2.7-5.16-4.15-2.43Z" class="c"/></svg>
