<svg xmlns="http://www.w3.org/2000/svg" viewBox="-53.43 0 315.163 315.163"><defs><style>.b{fill:#fff}.c{fill:#211715}</style></defs><path d="M158.1 100.29a181 181 0 0 1-.97-21.54 119 119 0 0 0 .43-15.66c-.06-2.44-.15-4.5-.22-5.85-.8-16.14-10.13-34.69-22.14-41.88C120.68 4.03 107.68 1.62 94.77 2.61 76.45 4 61.89 11.48 52.3 23.39c-5.53 6.87-9.38 16.75-10.72 25.5a90 90 0 0 0 1.34 30.4c2.02 19.35-3.48 39.87-1.88 55.71.5 5.04 3.07 11.07 10.1 15.8l104.78 4.17c9.53-4.53 9.64-11.15 9.7-15.12a44 44 0 0 0-2.53-15.55 116 116 0 0 1-5-24.01" style="fill:#a98a75"/><path d="M139.41 77.56a7.8 7.8 0 0 1 5.61-1.26c3.85.56 5.27 2.74 5.85 3.99 1.71 3.73.9 10.14-.98 13.97a20.4 20.4 0 0 1-7.65 9.08 15 15 0 0 1-7.72 1.71l-.24 1.08a31 31 0 0 1-3.1 7.18 36 36 0 0 1-1.9 3.13c.52 2.3.7 3.07 1.16 5.01a28 28 0 0 0 1.7 5.52c2.27 4.79 6.73 5.62 11.5 7.14-12.35 13.68-30.56 19.65-48.2 19.83a49 49 0 0 1-18.5-3.1c-6.05-2.38-11.53-6.09-15.05-11.9q2.21-.9 4.46-1.76l3.37-1.27a29 29 0 0 1-11.8-7.05c-7.58-7.36-11.46-19.35-12.86-31.58-.8-6.92-1.5-14.43-2.5-21.94l1.82-1.28c.72-.5 1.84-1.21 2.77-1.88 8.5-6.06 17.61-13.5 26.04-20.66a.46.46 0 0 1 .73.5 33 33 0 0 0-1.42 7.88 2.07 2.07 0 0 0 2.67 2.09c13.1-3.95 25.25-11 33.41-20.2a141 141 0 0 0 5.73 15.2c2.53 5.6 9.28 15.24 15.41 18.34Z" class="b"/><path d="M40.18 76.48c1.7 11.33.45 22.9-.66 34.22-.51 5.3-1.03 10.59-1.15 15.9-.1 4.42-.13 9.17 1.3 13.4a25.7 25.7 0 0 0 10.26 12.87c2.56 1.75 4.96-2.41 2.42-4.15a20.3 20.3 0 0 1-8.05-10c-1.31-3.87-1.23-8.1-1.13-12.32.26-10.76 2-21.42 2.48-32.17a98 98 0 0 0-.84-19.03 2.4 2.4 0 0 0-2.95-1.68 2.46 2.46 0 0 0-1.68 2.95Zm98.34-55.64c7.55 7 12.46 16.78 14.92 26.68a70 70 0 0 1 1.71 15.09q.12 4.15.05 8.32c-.07 4.17-.38 5.54-.47 8.31a149 149 0 0 0 2.42 31.21q.87 4.8 2.15 9.53c.85 3.13 1.96 6.19 2.75 9.34a40 40 0 0 1 1.17 9.6 52 52 0 0 1-.14 3.8l-.05.43c.07-.54-.05.23-.07.34a10.3 10.3 0 0 1-2.08 4.84 17 17 0 0 1-6.17 4.57 2.4 2.4 0 0 0-.86 3.29 2.45 2.45 0 0 0 3.28.86c4.42-2.15 8.18-5.43 9.88-10.14 1.26-3.5 1.16-7.66.89-11.31-.6-7.8-3.75-15.09-5.39-22.69A147 147 0 0 1 159.54 84c-.08-6.06.56-12.08.49-18.15a95 95 0 0 0-1.2-16.12c-2.2-11.88-7.96-24-16.9-32.27-2.27-2.1-5.67 1.29-3.4 3.39" class="c"/><path d="M131.91 10.03A57.6 57.6 0 0 0 102.33.06a70 70 0 0 0-28.02 4.62 57 57 0 0 0-21.9 14.9A56 56 0 0 0 39.6 46.3c-2.12 11.07-1.42 23.07 1.1 34.02.7 3 5.32 1.73 4.63-1.28a83 83 0 0 1-1.58-28.48c1.1-8.96 4.58-18.4 10.25-25.48C64.83 11.57 81.9 5.07 98.92 4.82a53 53 0 0 1 30.57 9.35c2.58 1.72 4.98-2.44 2.42-4.14" class="c"/><path d="M194.83 180.57a187 187 0 0 1 9.44 36.98c2.61 19.6 2.08 36.7-1.74 48-3.83 11.37-9.5 19.24-20.33 26.94a9 9 0 0 1-5.12 1.68c-1.68 0-3.4.1-5.03-1.82l-64.55 15.94c-21.47 4.5-49.94 3.75-65.65-2.22-7.04-3.04-12.25-6.26-15.79-11.83a37 37 0 0 1-5.54-14.54 41 41 0 0 1-14.06-7.12c-6-6.98-4.48-19.3-1.05-34.11 5.6-24.22 7.04-35.88 10.24-54.04 1.56-8.9 6.55-19.78 13.33-26.64 6.66-6.74 19.17-13.3 32.9-18.86 3.53 5.82 9.01 9.53 15.05 11.91a49 49 0 0 0 18.51 3.1c17.88-.19 36.34-6.32 48.7-20.4l3.83 1.25c12.6 4.2 25.62 10.1 33.82 20.01 4.51 5.46 9.12 15.01 13.04 25.77" style="fill:#f8b8b4"/><path d="M153.77 258.51a59 59 0 0 0-5.08-.11 127 127 0 0 0-16.59 1.64c-4.66.75-4.97 2.36-4.83 5.78.13 3.11 5.89 4.94 9.86 5.19l2.18.13c-5.17 2.25-10.4 4.4-15.62 5.42-7.04 1.4-8.63 4.12-8.63 6.37 0 1.75 1.36 2.89 3.56 3.28l-2.18.28c-4.1.53-7.44 2.24-7.2 5.8.22 3.51 4.48 3.88 7.38 3.82-2.17.57-3.97 1.79-3.83 4.56.1 1.88 1.86 3.85 4.8 3.57l6.78-.65-3.24.6c-2.32.44-3.83 1.92-3.8 4.03a4.4 4.4 0 0 0 2.2 3.68c2.37.96 5.24.75 7.73.77a94 94 0 0 0 17.06-1.4 22 22 0 0 0 6.81-2.7c4.18-3.05 20.54-14.28 21.53-18.32l1.06-1.5c-.52-8.44-3.58-16.8-8.97-25.9a14 14 0 0 0-1-1.47l-4.64-1.55a13 13 0 0 0-5.34-1.32m-142.93 8.55c2.62-2.1 6.84-3.77 9.94-3.29-1.46 10.97-1.14 20.36 5.28 30.47 2.87 4.5 6.83 7.49 11.98 10.07 2 5.23-2.87 7.27-7.14 6.28-2.12-.5-8.47-4.73-11.7-8.32a48 48 0 0 1-6.9-9.35c-2.42-4.84-4.85-9.84-5.3-15.24a13.4 13.4 0 0 1 2.13-8.86 9 9 0 0 1 1.7-1.76" class="b"/><path d="M127.16 117.94c1.02 4.51 1.68 9.68 4.93 13.2 2.77 3.03 6.9 4.02 10.66 5.2a2.4 2.4 0 0 0 1.27-4.63c-1.72-.54-3.45-1.02-5.13-1.68-.41-.16.1.05-.14-.06l-.6-.28q-.54-.27-1.05-.58l-.54-.36c-.42-.27.2.2-.2-.16q-.46-.4-.88-.84l-.37-.42c.27.33-.17-.26-.17-.27a10 10 0 0 1-.68-1.18 17 17 0 0 1-1-3c-.55-2.05-1-4.14-1.48-6.21a2.4 2.4 0 0 0-4.62 1.27M91.87 88.86c-.69-2.5-.02-8.17 4.68-8.5 6.2.21 6.31 7.1 4.13 10.27-1.78 2.6-6.84 3.55-8.8-1.77m-36.8.05c-.63-2.5-.02-8.2 4.29-8.54 5.67.23 5.78 7.14 3.78 10.32-1.63 2.6-6.26 3.56-8.07-1.78m19.19 5.7a53 53 0 0 0-2.24 4.15 6 6 0 0 0-.68 2.26 3.2 3.2 0 0 0 1.1 2.57 5 5 0 0 0 2.06 1.17 12 12 0 0 0 1.53.2l-.64-.09h.06a2.6 2.6 0 0 0 1.85-.23 2.4 2.4 0 0 0 .86-3.29 2.3 2.3 0 0 0-1.43-1.1l-1.3-.15.64.09a3 3 0 0 1-.6-.16l.57.24a3 3 0 0 1-.51-.3l.48.37a3 3 0 0 1-.42-.39l.37.49-.09-.15.24.57-.06-.25.08.64v-.27l-.08.64a3 3 0 0 1 .19-.66l-.24.58a43 43 0 0 1 2.4-4.5 2.4 2.4 0 0 0-4.15-2.42Z" class="c"/><path d="M120.3 127.52a35 35 0 0 0 10.48-9.07 40 40 0 0 0 3.09-5.06 27 27 0 0 0 2.73-6.62 2.45 2.45 0 0 0-1.68-2.95 2.4 2.4 0 0 0-2.95 1.67 22 22 0 0 1-2.25 5.48 41 41 0 0 1-2.94 4.86 20 20 0 0 1-1.55 1.86 26 26 0 0 1-2.05 1.99 37 37 0 0 1-5.3 3.7c-2.65 1.59-.24 5.74 2.42 4.15Zm-38.34 6.99a27.2 27.2 0 0 1-25.23-10.6c-6.21-8.28-8.41-18.82-9.53-28.9-.76-6.92-1.46-13.85-2.4-20.76a2.4 2.4 0 0 0-2.95-1.67 2.46 2.46 0 0 0-1.67 2.95c.86 6.32 1.48 12.68 2.17 19.02a93 93 0 0 0 3.19 17.14c3.12 10.18 9 19.92 18.89 24.7a32 32 0 0 0 17.52 2.92 2.47 2.47 0 0 0 2.4-2.4 2.4 2.4 0 0 0-2.4-2.4" class="c"/><path d="M140.63 79.63a6 6 0 0 1 7.4.63l.23.26c-.03-.03-.2-.27-.05-.05q.2.28.36.58a5 5 0 0 1 .46 1.2 13 13 0 0 1 .34 4.43c-.34 5.56-3.43 11.7-8.34 14.6a11 11 0 0 1-3.54 1.2 8 8 0 0 1-4.72-.26 2.47 2.47 0 0 0-3.29.87 2.4 2.4 0 0 0 .86 3.28c3.86 1.76 8.33 1.24 12.13-.46 3.51-1.56 6.33-4.8 8.24-8.05a25 25 0 0 0 3.43-10.8c.28-3.49-.2-7.42-2.64-10.1a10.7 10.7 0 0 0-13.3-1.47c-2.55 1.72-.15 5.88 2.42 4.14Zm-42.5-5.45a69 69 0 0 0 6.33 2.85 2.4 2.4 0 0 0 2.7-3.53 2.7 2.7 0 0 0-1.43-1.1l-1.25-.49.57.24c-1.52-.64-3-1.4-4.5-2.11a2.6 2.6 0 0 0-1.85-.24 2.4 2.4 0 0 0-1.43 1.1 2.4 2.4 0 0 0-.25 1.85 2.4 2.4 0 0 0 1.1 1.43Zm14.84 11.05a51 51 0 0 0-.27 6.4c.06 1.89.08 4.2 1.2 5.8a6 6 0 0 0 6.11 2.21c2.29-.44 3.66-2.26 4.5-4.27a2.4 2.4 0 0 0-1.67-2.96 2.5 2.5 0 0 0-2.96 1.68c.27-.63-.14.23-.24.39l-.14.2.13-.16-.29.29c-.33.35.4-.19-.04.02-.09.04-.5.19-.18.1.35-.08-.14.02-.21.04-.5.16.49 0-.04.01-.04 0-.5-.02-.52 0 .08-.08.54.1.04-.01-.06-.02-.37-.05-.4-.12l.18.08-.22-.13c-.38-.2.18.23.02.03l-.18-.18q.28.4.14.17c-.27-.34.05-.1 0 .07a3 3 0 0 0-.16-.5l-.09-.43c-.1-.5-.09 0 0 .05-.14-.1-.1-1.07-.11-1.25q-.09-1.25-.08-2.51.03-2.52.29-5.03a2.4 2.4 0 0 0-2.4-2.4 2.46 2.46 0 0 0-2.4 2.4Zm-35.31 33.5q.3-.17.62-.32c.26-.12.1-.03-.07.03l.36-.13a14 14 0 0 1 1.62-.46l.8-.16.2-.03.2-.02a17 17 0 0 1 1.8-.1q.83 0 1.66.08c.27.02.17.02-.04-.01l.39.06.74.16.7.2c.05.03.59.23.34.13-.2-.08.22.1.25.12l1.9.87a2.47 2.47 0 0 0 3.3-.86c.54-1.03.36-2.75-.87-3.28a32 32 0 0 0-4.25-1.78 16 16 0 0 0-4.1-.5 17 17 0 0 0-7.97 1.85 2.4 2.4 0 0 0-.86 3.28 2.45 2.45 0 0 0 3.28.86Zm28.7-76a135 135 0 0 0 4.17 11.49 59 59 0 0 0 4 8.26c3.42 5.63 8 11.8 13.97 14.92 2.74 1.42 5.17-2.72 2.42-4.15a24 24 0 0 1-6.75-5.7 52 52 0 0 1-5.67-7.79c-3.37-5.62-5.59-12.08-7.52-18.31-.91-2.95-5.55-1.7-4.63 1.27Z" class="c"/><path d="M106.87 40.1c-7.38 8.24-17.16 14.15-27.48 17.94q-1.8.66-3.64 1.24c-.26.09-1.68.26-.99.45-.1-.02.05.2.14.16a6 6 0 0 0 .1-1.36 29 29 0 0 1 .75-4.19c.39-1.53 1.1-3.15-.23-4.48-1.37-1.37-3.08-.81-4.39.27q-1.99 1.66-3.96 3.34-3.66 3.05-7.37 6.05a277 277 0 0 1-16.63 12.46 2.46 2.46 0 0 0-.86 3.29 2.4 2.4 0 0 0 3.28.86q7.5-5.18 14.63-10.84 3.65-2.89 7.23-5.84l3.66-3.05 1.8-1.52a10 10 0 0 1 1.71-1.4l-1.2.33.22.02-1.21-.32.18.12-.86-.86.1.2-.32-1.21a19 19 0 0 1-.66 2.38q-.31 1.52-.5 3.05c-.27 2-.63 4.16.88 5.79a4.8 4.8 0 0 0 5.17 1.12q2.75-.85 5.44-1.88a79 79 0 0 0 19.51-10.63 63 63 0 0 0 8.9-8.1c2.05-2.29-1.34-5.7-3.4-3.39m1.08 89.75-.65.55c-.22.18.33-.23-.04.03l-.31.22q-.77.54-1.58 1-.78.44-1.6.82-.4.2-.81.37l-.07.03-.46.18a26 26 0 0 1-3.27 1q-.81.19-1.62.31l-.16.03.08-.01q.31-.04 0 0l-.16.01-.75.06a2.4 2.4 0 1 0 0 4.8 24 24 0 0 0 7.34-1.64 24 24 0 0 0 7.45-4.36 2.4 2.4 0 0 0 0-3.4 2.46 2.46 0 0 0-3.4 0Z" class="c"/><path d="M59.86 140.23c7.12 11.43 21.11 15.92 33.97 16.1a74.5 74.5 0 0 0 34.97-7.9 59 59 0 0 0 16.3-12.35c2.09-2.27-1.3-5.67-3.4-3.4a58 58 0 0 1-28.4 16.54c-11.26 2.92-24.03 3.67-35.06-.44-5.73-2.13-10.97-5.73-14.24-10.98-1.63-2.62-5.78-.21-4.14 2.42Z" class="c"/><path d="M134.81 131.77a38 38 0 0 0 9.7 4.42c3.52 1.15 7.02 2.33 10.47 3.7a72 72 0 0 1 18.68 10.32 42.5 42.5 0 0 1 10.88 13.08 120 120 0 0 1 7.62 16.96 176 176 0 0 1 10.04 39.98 159 159 0 0 1 1.21 24.23 75 75 0 0 1-2.7 18.86 46 46 0 0 1-14.73 23.18q-1.92 1.68-3.98 3.19a8.4 8.4 0 0 1-4.7 2.07c-1.49.05-2.51.04-3.55-1.11-2.07-2.3-5.46 1.1-3.4 3.4 2.7 3 7.39 3.14 10.94 1.65a23 23 0 0 0 5-3.28 66 66 0 0 0 4.2-3.52 50 50 0 0 0 11.71-16.03c6.1-13.35 6.7-28.3 5.73-42.74a180 180 0 0 0-8.79-44.4 163 163 0 0 0-7.78-19.69 58 58 0 0 0-9.42-14.69c-5.17-5.56-11.73-9.74-18.55-13q-5.27-2.49-10.76-4.47c-3.58-1.3-7.3-2.27-10.82-3.74a26 26 0 0 1-4.58-2.51c-2.56-1.74-4.97 2.42-2.42 4.14m-69.1 3.1c-11.47 4.39-23.27 9.33-33.17 16.74-8.9 6.67-14.83 16.38-17.97 26.98-1.43 4.82-2.05 9.87-2.88 14.82q-1.12 6.75-2.29 13.5c-1.95 11.15-4.39 22.17-6.83 33.22-1.4 6.34-2.67 12.89-2.56 19.4.08 5.33 1.26 10.6 4.75 14.75a2.4 2.4 0 0 0 3.4 0 2.45 2.45 0 0 0 0-3.4C5.7 267.96 4.9 263.8 4.8 259.9a71 71 0 0 1 1.9-16.24c2.26-10.85 4.83-21.6 6.8-32.52 1.62-9.01 2.83-18.13 4.65-27.1 1.99-9.84 6.95-19.87 14.61-26.5a75 75 0 0 1 14.8-9.47A189 189 0 0 1 67 139.5a2.47 2.47 0 0 0 1.67-2.95 2.4 2.4 0 0 0-2.95-1.68Z" class="c"/><path d="M170.34 289.61c-.17.62.16-.11-.02.09a4 4 0 0 0-.38.62c-.06.1-.4.55-.02.06l-.23.28-.8.9a47 47 0 0 1-3.86 3.58c-3.06 2.6-6.23 4.95-9.48 7.3-2.48 1.81-5.1 4.17-7.98 5.3-5.4 2.14-11.68 2.39-17.43 2.5q-2.57.05-5.13.04c-1.31 0-3.28.14-4.48-.55a2 2 0 0 1-.8-1.82c.18-.9 1.11-1.2 2.03-1.4 3.02-.65 1.74-5.28-1.27-4.63-3.09.66-5.6 3.04-5.57 6.34a7 7 0 0 0 1.7 4.41 6.8 6.8 0 0 0 4.22 2.12 52 52 0 0 0 10.69.26 99 99 0 0 0 10.76-1 26 26 0 0 0 9.18-2.82 47 47 0 0 0 4.03-2.82c3.78-2.7 7.53-5.45 11.14-8.37a59 59 0 0 0 5.33-4.73 11 11 0 0 0 2.99-4.39c.81-2.98-3.82-4.25-4.63-1.27Z" class="c"/><path d="M155.1 258.65a12 12 0 0 1 6.8 4.24 33 33 0 0 1 2.7 4.57q1.31 2.45 2.46 4.99a47 47 0 0 1 4.33 18.85c.01 3.09 4.81 3.1 4.8 0a53 53 0 0 0-5.17-21.69c-1.63-3.57-3.42-7.41-5.98-10.42a16.5 16.5 0 0 0-8.65-5.17c-3-.73-4.29 3.9-1.28 4.63Z" class="c"/><path d="M137.14 268.6c-2.25-.15-5.18-.77-6.84-2.12a2 2 0 0 1-.62-.7c-.04-.06 0 0-.01-.1a11 11 0 0 1 .01-1.82c.02-.15-.01.23.05-.22s.03-.07.03-.17a1 1 0 0 1 .15-.25c-.13.17-.19.2-.01.03l.53-.34a10 10 0 0 1 2.11-.52c1.65-.29 3.31-.5 4.97-.71 3.47-.44 6.96-.79 10.46-.87 3.11-.07 7.24-.38 9.92 1.1 2.71 1.49 5.14-2.65 2.43-4.14-3.47-1.91-7.79-1.82-11.63-1.77a107 107 0 0 0-12.64 1.07c-3.35.44-8.06.45-10.18 3.57a7.8 7.8 0 0 0 .4 8.59c2.5 2.96 7.2 3.92 10.87 4.18a2.4 2.4 0 0 0 2.4-2.4 2.45 2.45 0 0 0-2.4-2.4Z" class="c"/><path d="M140.51 268.01a107 107 0 0 1-14.06 5.42c-3.87 1.09-8.04 1.46-11.24 4.15a6.8 6.8 0 0 0-2.35 6.84 6 6 0 0 0 4.25 3.9c1.81.55 3.8.21 5.67.04a88 88 0 0 0 14.77-2.62c2.98-.8 1.72-5.42-1.28-4.63a80 80 0 0 1-11.13 2.2q-2.4.29-4.8.44c-.97.06-2.51.15-2.89-.68.05.1.05-.7 0-.42-.05.4.06-.17.08-.29l.08-.23c.08-.3-.2.39-.05.1l.31-.53c.22-.36-.21.19.1-.13q.26-.28.54-.52l.4-.28c2.91-1.87 6.69-2.05 9.94-3.04a127 127 0 0 0 14.07-5.57 2.4 2.4 0 0 0 .87-3.29 2.46 2.46 0 0 0-3.29-.86Z" class="c"/><path d="M115.8 284.17c-3.46.48-7.25 1.93-8.57 5.46a6.23 6.23 0 0 0 3.75 8.1c2.48.98 5.3.85 7.91.66 3.16-.24 6.31-.61 9.46-1.01 3.73-.48 7.48-.98 11.18-1.7a2.4 2.4 0 0 0 1.68-2.94 2.45 2.45 0 0 0-2.96-1.68 185 185 0 0 1-16.08 2.23 54 54 0 0 1-6.59.42 8 8 0 0 1-2.96-.46c-.56-.2-.9-.42-1-1a2.1 2.1 0 0 1 1.05-2.1 10 10 0 0 1 4.4-1.35 2.4 2.4 0 0 0 1.68-2.96 2.47 2.47 0 0 0-2.95-1.67" class="c"/><path d="M140.33 300.08c-5.92.69-11.84 1.41-17.8 1.66q-1.87.08-3.74.1c-.9 0-2.22.22-2.97-.27a1.4 1.4 0 0 1-.6-1.67c.17-.79.84-1.1 1.65-1.37 2.92-.96 1.67-5.6-1.28-4.63-3.45 1.13-5.94 4.11-5.05 7.92a6.3 6.3 0 0 0 2.85 3.87c1.7 1.02 3.5.96 5.4.95a198 198 0 0 0 21.53-1.76 2.5 2.5 0 0 0 2.4-2.4 2.4 2.4 0 0 0-2.4-2.4Zm12.08-98.17c2.7 7.27 5.2 14.85 5.98 22.61a36 36 0 0 1-.77 12.07 63 63 0 0 1-3.14 9.36 2.4 2.4 0 0 0 1.68 2.95 2.46 2.46 0 0 0 2.95-1.68c3.02-7.24 4.87-14.82 4.08-22.7-.82-8.22-3.29-16.17-6.15-23.88a2.47 2.47 0 0 0-2.96-1.68 2.4 2.4 0 0 0-1.67 2.95M39.16 183.2c-3.52 5.4-5.67 11.76-7.22 17.99a66 66 0 0 0-2.33 17.91c.07 2.15.25 4.64 1.44 6.5 1.66 2.6 5.82.2 4.14-2.42l-.2-.36c-.27-.4.11.41 0 .03l-.3-1.04-.11-.6c-.13-.6.01.25-.04-.2q-.08-.79-.12-1.57a46 46 0 0 1 .37-7.5 78 78 0 0 1 4.27-17.65 43 43 0 0 1 4.24-8.67c1.7-2.6-2.46-5-4.14-2.42" class="c"/><path d="M31.09 224.83a118 118 0 0 0-11.64 32.08c-2 10.32-3.07 21.5.95 31.48 2 4.99 4.81 9.76 9 13.22a43 43 0 0 0 13.48 7.37c9.13 3.1 19.04 4.13 28.63 4.5a152 152 0 0 0 36.63-2.87c3.02-.63 1.74-5.26-1.28-4.63a145 145 0 0 1-30.5 2.8c-9.49-.07-19.13-.82-28.33-3.26a45 45 0 0 1-12.37-5.28 25.4 25.4 0 0 1-9.1-9.9A34.5 34.5 0 0 1 22.54 276a71 71 0 0 1 1.08-15.17 110 110 0 0 1 11.61-33.57c1.44-2.74-2.7-5.16-4.14-2.43" class="c"/><path d="M20.79 261.38c-4.8-.64-10.74 2.16-13.57 6-3.63 4.92-3.03 11.6-1.23 17.07 3.56 10.84 10.47 20.51 20.26 26.52a13 13 0 0 0 6.47 2.26c2.93.09 6.23-1.1 7.56-3.9a2.47 2.47 0 0 0-.86-3.29 2.4 2.4 0 0 0-3.29.86c-.7 1.48-2.59 1.7-4.14 1.47q-.38-.07-.75-.18c-.57-.15 0 .04-.37-.15q-1.2-.6-2.34-1.3a39 39 0 0 1-9.35-8.12 47 47 0 0 1-7.63-12.9c-1.72-4.25-3.27-9.48-1.36-13.93 1.56-3.62 6.55-6.15 10.6-5.61 1.28.17 2.4-1.23 2.4-2.4a2.46 2.46 0 0 0-2.4-2.4" class="c"/><path d="M19.78 297.3a16 16 0 0 0 6.23 2.02 14 14 0 0 0 2.15.06 3.7 3.7 0 0 0 2.42-.94 4.3 4.3 0 0 0 1.17-1.97 2.4 2.4 0 0 0-4.63-1.28c-.12.39.23-.4.08-.16-.12.2-.25.25.14-.14-.22.22.2-.13.24-.15-.33.21.57-.17.2-.09l.64-.08a12 12 0 0 1-2.73-.09l.63.09a12 12 0 0 1-2.12-.5l-.5-.18c-.06-.03-.5-.2-.11-.04a16 16 0 0 1-1.38-.7 2.4 2.4 0 1 0-2.43 4.15" class="c"/></svg>
