<svg xmlns="http://www.w3.org/2000/svg" fill="none" viewBox="0 0 24 24"><path fill="currentColor" fill-rule="evenodd" d="M8.63 7.5C8 7.5 7.5 8 7.5 8.63H6a2.62 2.62 0 1 1 4.71 1.59 5 5 0 0 1 2.03 1.8A3.74 3.74 0 1 1 15.75 18v-1.5a2.25 2.25 0 1 0-2.25-2.25h-.01l.01.38a4.87 4.87 0 1 1-9.75 0h1.5a3.37 3.37 0 1 0 3.38-3.38v-1.5a1.13 1.13 0 0 0 0-2.25" clip-rule="evenodd"/><path fill="currentColor" fill-rule="evenodd" d="M15 6.75a1.5 1.5 0 0 0 3 0h1.5a3 3 0 1 1-6 0z" clip-rule="evenodd"/><path fill="currentColor" d="M17.25 6.75a.75.75 0 1 1-1.5 0 .75.75 0 0 1 1.5 0"/></svg>
