<svg xmlns="http://www.w3.org/2000/svg" fill="currentColor" viewBox="0 0 64 64"><g id="online_business"><path d="M32 11.6c-3.6 0-7 1.8-9 4.9-.3.5-.2 1.1.3 1.4s1.1.2 1.4-.3c1.6-2.5 4.4-4 7.4-4s5.7 1.5 7.4 4c.2.3.5.4.8.4.2 0 .4-.1.6-.2.5-.3.6-.9.3-1.4-2.2-3-5.6-4.8-9.2-4.8"/><path d="M43.4 14.6c.2.3.5.4.8.4.2 0 .4-.1.6-.2.4-.3.5-1 .2-1.4A16.2 16.2 0 0 0 32 7c-5.1 0-9.9 2.3-13 6.4-.3.4-.3 1.1.2 1.4.4.3 1.1.3 1.4-.2C23.3 11 27.5 9 32 9s8.7 2 11.4 5.6"/><path d="M49 11a22.08 22.08 0 0 0-34 0c-.4.4-.3 1.1.1 1.4.4.4 1.1.3 1.4-.1C20.4 7.6 26 5 32 5s11.6 2.6 15.4 7.3c.2.2.5.4.8.4.2 0 .5-.1.6-.2.4-.5.5-1.1.2-1.5m-4 34H33v-3.4c1.5-.2 4.6-.8 6.8-3 3-3 3.1-7.6 3.1-7.8 0-.3-.1-.5-.3-.7s-.5-.3-.7-.3-4.8.1-7.8 3.1c-.4.4-.8.9-1.1 1.4v-4.4a7 7 0 1 0-2 0v4.5q-.45-.75-1.2-1.5c-3-3-7.6-3.1-7.8-3.1-.3 0-.5.1-.7.3s-.3.5-.3.7.1 4.8 3.1 7.8c2.2 2.2 5.3 2.9 6.8 3V45H19c-.6 0-1 .4-1 1v4c0 .6.4 1 1 1h1.3l2.8 9.3c.1.4.5.7 1 .7h16c.4 0 .8-.3 1-.7l2.8-9.3H45c.6 0 1-.4 1-1v-4c0-.6-.4-1-1-1m-9.5-10.7c1.6-1.6 3.9-2.2 5.2-2.4-.2 1.4-.8 3.6-2.4 5.2s-3.9 2.2-5.2 2.4c.2-1.3.8-3.6 2.4-5.2M27 23c0-2.8 2.2-5 5-5s5 2.2 5 5-2.2 5-5 5-5-2.2-5-5m-1.4 14.2c-1.6-1.6-2.2-3.9-2.4-5.2 1.4.2 3.6.8 5.2 2.4s2.2 3.9 2.4 5.2c-1.3-.2-3.6-.8-5.2-2.4M39.3 59H24.7l-2.4-8h19.3zM44 49H20v-2h24z"/><path d="M35 24.5c0-1.4-1.1-2.5-2.5-2.5h-1c-.3 0-.5-.2-.5-.5s.2-.5.5-.5H34c.6 0 1-.4 1-1s-.4-1-1-1h-2.5c-1.4 0-2.5 1.1-2.5 2.5s1.1 2.5 2.5 2.5h1c.3 0 .5.2.5.5s-.2.5-.5.5H30c-.6 0-1 .4-1 1s.4 1 1 1h2.5c1.4 0 2.5-1.1 2.5-2.5"/></g></svg>
