<svg xmlns="http://www.w3.org/2000/svg" viewBox="0 -46.96 344.111 344.111"><defs><style>.c{fill:#211715}</style></defs><path d="M87.46 117.47c.84-8.94 2.99-14.66 6.7-22.12a41 41 0 0 1 4.53-6.73l68.63 34.3 47.55 94.22s-.44 20.89-.44 30.74h-82.56c.26-9.08-4.2-20.66-4.3-20.93a3.5 3.5 0 0 0-4.16-2.07c-7.1 1.92-18.08.88-26.1-2.06-4.09-1.49-8.05-4.4-11.14-10.26a43 43 0 0 1-3.45-10.24 101 101 0 0 1-2.16-15.26 16 16 0 0 0-3.68-6.87c-2.82-3.04-7.36-5.4-5.05-10.68a10 10 0 0 1 4.5-4.52c9.7-5.25 10.08-19.94 10.4-30.53a82 82 0 0 1 .5-14l.01-.1q.1-1.5.22-2.9" style="fill:#fff"/><path d="M130.06 93.37a79 79 0 0 1-15.54-10.01s-3.65.6-6.87 1.27a40 40 0 0 0-8.96 3.98 41 41 0 0 0-4.54 6.74c-3.06 6.16-5.05 11.14-6.13 17.72l.67.65c8.05 7.93 22.78 17.33 32.67 22.85 6.72 3.75 30.2 14.67 43.01 13.31l.47-.14a10 10 0 0 1 8.54 1.33c3.48 2.54 5.07 7.85 4.85 12.22-.56 11.18-6.2 18.81-16.12 23.57 3.21 8.36 6.7 16.89 7.13 25.73.32 6.53-1.26 13.36-5.29 18.6-2.36 3.06 9.14 6.58 14.51 7.54a41 41 0 0 0 10.34.51 86 86 0 0 0 11.74 4.72c20.76 7.13 33.52-4.18 34.47-14.15a51 51 0 0 0-1.41-17.84c-1.92-8.22-3.67-26.28 1.12-51.55a111 111 0 0 0 1.91-26.01 74 74 0 0 0-3.65-18.48s-3.97-4.4-13.14-9.27a49 49 0 0 0-10.94-4.27c-25.44 6.37-56.21 2.26-78.84-9.02" style="fill:#a98a75"/><path d="m241.07 93.53 79.45-56.1 22.4-15.82a2.47 2.47 0 0 0 .87-3.29 2.4 2.4 0 0 0-3.28-.86l-79.45 56.1-22.41 15.83a2.47 2.47 0 0 0-.86 3.28 2.4 2.4 0 0 0 3.28.86M249.9 114c16.5-6.13 33.18-11.8 49.8-17.58l9.01-3.13a2.46 2.46 0 0 0 1.68-2.95 2.4 2.4 0 0 0-2.95-1.68c-15.81 5.5-31.63 10.97-47.4 16.58a872 872 0 0 0-11.42 4.13 2.47 2.47 0 0 0-1.68 2.95 2.4 2.4 0 0 0 2.96 1.68M86.8 74 22.49 16.9 4.17.63C1.87-1.4-1.54 1.97.77 4.03l64.31 57.09 18.33 16.26c2.3 2.04 5.7-1.34 3.39-3.4M74.31 90.94c-8.21-3.61-16.5-7.07-24.78-10.54q-14.07-5.9-28.17-11.76l-9.65-4a2.4 2.4 0 0 0-2.95 1.67 2.46 2.46 0 0 0 1.67 2.95l20.86 8.68c9.53 3.97 19.12 7.97 28.55 11.97q6.04 2.55 12.05 5.18a2.5 2.5 0 0 0 3.28-.86 2.4 2.4 0 0 0-.86-3.29m85.72 64.66c2.65-2.89 6.7-4.95 10.65-3.33 3.22 1.32 4.7 5.2 5.08 8.41a23.2 23.2 0 0 1-6.7 18.55 31 31 0 0 1-10 6.37 2.5 2.5 0 0 0-1.67 2.95 2.4 2.4 0 0 0 2.95 1.68c8.18-3.37 15.14-8.82 18.39-17.28a27.5 27.5 0 0 0 1.68-13.44c-.67-4.62-3.06-9.49-7.52-11.48-5.77-2.58-12.17-.26-16.26 4.18-2.08 2.27 1.3 5.67 3.4 3.39m-62.26-6.05c-1.2 3.05-1.26 10.3 4.31 11.42 7.46.6 8.65-8.07 6.52-12.39-1.75-3.53-7.66-5.46-10.83.97m-14.43 41a118 118 0 0 1 12.4.25c.35.03-.42-.07-.07-.01l.37.05.71.13a13 13 0 0 1 1.36.34l.55.2c-.44-.15-.25-.12.03.03q.17.12.36.22c-.19-.08-.34-.36-.05 0-.53-.66-.15-.14-.02.08.21.36 0 .01-.03-.08l.11.35c.06.2.06.82.08.25-.01.28.02.56 0 .84 0 .08-.05.49 0 .16s-.02.08-.04.16a11 11 0 0 1-.46 1.48c.17-.4.02-.04-.02.03l-.31.6a12 12 0 0 1-2.5 3.17 17 17 0 0 1-3.82 2.78 2.4 2.4 0 1 0 2.43 4.15 21 21 0 0 0 7.55-6.88c1.54-2.36 2.58-5.5 1.64-8.28-.83-2.44-2.74-3.59-5.16-4.14a38 38 0 0 0-7.7-.74c-2.47-.05-4.94.03-7.4.07a2.4 2.4 0 1 0 0 4.8Z" class="c"/><path d="M96.99 86.92a56.7 56.7 0 0 0-11.7 28.46c-.49 3.9-.86 7.88-1 11.81-.14 3.78.06 7.55-.1 11.32a80 80 0 0 1-.76 8.99c-.83 5.27-2.43 11.42-7 14.61A33 33 0 0 0 72 165.2a10.6 10.6 0 0 0-2.92 4.93c-.86 3.39.57 6.32 2.92 8.7 1 1.01 2.1 1.91 3.08 2.95a13 13 0 0 1 2.73 4.54 20 20 0 0 1 .68 4.7q.32 3.02.8 6.03c1.26 8.02 3.25 16.5 8.96 22.6 4.89 5.21 12.13 7.08 18.99 8.02a51 51 0 0 0 11.24.43 31 31 0 0 0 5.1-.79c.5-.13.91-.27 1.37.05.24.17.2.2.4.48-.03-.05-.14-.35-.05-.14a43 43 0 0 1 1.77 5.33 63 63 0 0 1 2.12 9.6 35 35 0 0 1 .29 5.25c-.07 3.09 4.73 3.09 4.8 0 .14-6.5-1.5-13.08-3.55-19.2-.61-1.82-1.15-3.73-2.7-4.98-2.97-2.4-6.55-.62-9.91-.36a46.5 46.5 0 0 1-20.73-3.05c-6.76-2.8-10.06-9.64-11.8-16.35a88 88 0 0 1-2.21-12.16c-.17-1.52-.27-3.05-.4-4.58a14.5 14.5 0 0 0-2.15-5.7 19 19 0 0 0-3.42-4.18 28 28 0 0 1-2.9-2.86 3.4 3.4 0 0 1-.87-2.71 6.2 6.2 0 0 1 2.53-3.83c1.26-.94 2.67-1.6 3.9-2.58a18 18 0 0 0 3.08-3.27 25 25 0 0 0 3.8-8.13c1.71-5.95 1.97-12.26 2.16-18.42.12-4.11-.13-8.19.23-12.3a108 108 0 0 1 1.28-11.06 53 53 0 0 1 6.65-17.44 46 46 0 0 1 3.11-4.4 2.5 2.5 0 0 0 0-3.4 2.4 2.4 0 0 0-3.39 0m15.83-1.87c9.71 8.1 21.37 13.6 33.42 17.26a127 127 0 0 0 40.73 5.43 108 108 0 0 0 22.57-3.04c3-.74 1.72-5.37-1.28-4.63a111 111 0 0 1-38.75 2.15 115 115 0 0 1-36.76-10.2 79 79 0 0 1-16.53-10.36 2.47 2.47 0 0 0-3.4 0 2.4 2.4 0 0 0 0 3.4Zm117.85 31.51a71 71 0 0 1 3.56 17.85 100 100 0 0 1-.8 18.96c-.8 6.26-2.16 12.43-2.94 18.7a160 160 0 0 0-1.23 16.86 101 101 0 0 0 1.84 22.85 58 58 0 0 1 1.59 17.08l-.1 1.16c.06-.5 0-.02-.02.1a18 18 0 0 1-.53 2.13c-.05.16-.43 1.15-.28.8a17 17 0 0 1-2.45 3.94c-6.9 7.99-18.57 7.89-28.13 4.66-2.93-1-4.19 3.64-1.27 4.63 9.78 3.3 21.24 3.55 29.74-3.04a21 21 0 0 0 6.83-9.19 21 21 0 0 0 1.08-6.12 50 50 0 0 0-.36-9.62c-.55-4.17-1.68-8.22-2.27-12.38l-.04-.28-.07-.6-.16-1.37q-.16-1.46-.27-2.93-.26-3.33-.32-6.67a147 147 0 0 1 .58-16c.58-6.54 1.73-12.95 2.82-19.42a112 112 0 0 0 1.67-22.02 76 76 0 0 0-3.84-21.35c-.96-2.92-5.6-1.67-4.63 1.27" class="c"/><path d="M160.43 189.16c2.77 7.16 5.72 14.54 6.33 22.26a30 30 0 0 1-.74 9.92 24 24 0 0 1-1.57 4.44 47 47 0 0 1-2.66 4.32c-2.86 4.62 4.61 7.55 7.7 8.68a48 48 0 0 0 16.22 3 24 24 0 0 0 10.7-2.18 17 17 0 0 0 7.58-8.08 2.47 2.47 0 0 0-.86-3.28 2.4 2.4 0 0 0-3.28.86 13 13 0 0 1-5.53 6.18 18 18 0 0 1-8.2 1.7 44 44 0 0 1-14.63-2.58 18 18 0 0 1-5.23-2.48c.42.32-.07-.08-.13-.13-.45-.38-.06-.03-.07-.03l-.16-.25c.2.53.17-.09.14.56.02-.5-.01.63-.18.57a25 25 0 0 0 1.77-2.64 32 32 0 0 0 3.93-18.58c-.65-8.2-3.56-15.92-6.5-23.53a2.47 2.47 0 0 0-2.95-1.68 2.4 2.4 0 0 0-1.68 2.95M87 115.42a110 110 0 0 0 13.95 11.2q7.62 5.3 15.65 10a143 143 0 0 0 25.81 11.7 69 69 0 0 0 18.09 4.03c3.08.18 3.07-4.62 0-4.8a61 61 0 0 1-15.07-3.28 140 140 0 0 1-14.52-5.66 170 170 0 0 1-25.35-14.63 109 109 0 0 1-15.17-11.96c-2.2-2.16-5.6 1.23-3.39 3.4" class="c"/></svg>
