<svg xmlns="http://www.w3.org/2000/svg" fill="currentColor" viewBox="0 0 32 32"><path d="M12.15 28.01v-.85l.06-.2a3.9 3.9 0 0 1 3.5-3.32 3.9 3.9 0 0 1 4.15 2.79q.1.36.18.73v.85q-.04.08-.06.17a3.9 3.9 0 0 1-3.08 3.26l-.37.1h-.85l-.17-.06a3.9 3.9 0 0 1-3.24-3.02zM20.04 4v.85l-.06.2a3.9 3.9 0 0 1-3.54 3.32 3.9 3.9 0 0 1-4.12-2.82l-.17-.7V4l.06-.16a3.9 3.9 0 0 1 2.82-3.2q.31-.09.64-.16h.85q.08.04.17.06a3.9 3.9 0 0 1 3.24 3.02zm0 11.59v.84l-.07.2a3.93 3.93 0 0 1-7.68.39l-.14-.58v-.85l.06-.2a3.94 3.94 0 0 1 7.83.2"/></svg>
