<svg xmlns="http://www.w3.org/2000/svg" viewBox="0 -7.01 309.087 309.087"><defs><style>.a{fill:#fff}.b{fill:#85807f}.c{fill:#3d8dcc}.d{fill:#211715}.f{fill:#f2635f}.g{fill:#ffda71}</style></defs><path d="M226.54 256.94q-.5 3.81-.76 7.63c-4.6 3.03-11.3 5.78-16 1.62q.21-4.69.47-9.38a31 31 0 0 0 16.3.13m30.72 7.11 1.76 1.4c-4.77 5.44-12.54 2.03-17.53-1.37l.15-.24a93 93 0 0 1-.89-7.26c5.02 1.86 11.05 1.66 16.25.53q.07 3.48.26 6.94m5.83-202.33a4.3 4.3 0 0 1 3.45-1 4 4 0 0 1 2.92 1.94 6 6 0 0 1 .6 2.31 17 17 0 0 1-1.75 9.13 11 11 0 0 1-2.83 3.72 3.3 3.3 0 0 1-3.31.77l-.5-.15c-.31 1.2-.71 2.25-.9 2.76-.98 2.5-6.53 11.4-13.5 14.57.08.54.17 1.17.31 2a10 10 0 0 0 1.34 3.87c-2.1 5.2-7.29 12.32-12.98 19.23-8.53-5.52-12.54-9.74-16.02-17.78a8 8 0 0 0 2.65-5.32q.14-.75.21-1.3a27 27 0 0 1-9.8-7.24 31 31 0 0 1-6.14-10.43l-.73.2a4.1 4.1 0 0 1-3.73-1.18 11 11 0 0 1-2.83-3.71 17 17 0 0 1-1.76-9.13 6 6 0 0 1 .6-2.31 4 4 0 0 1 2.93-1.95 4.3 4.3 0 0 1 3.44 1.01s-2.14-26.44 29.16-26.44c33.62 0 29.17 26.43 29.17 26.43m-88.68 134.63a53 53 0 0 1-4.73 3.13c-1.9 1.12-4.05 2.15-6.25 1.87a2.5 2.5 0 0 1-2.43-2.73c-.1-3.42 2.78-6.07 5.27-8.42a73 73 0 0 0 9.23-10.53c1.46-2.2 1.95-4.2 2.91-6a79 79 0 0 0 9.28 3.33l-1.9 8.27c-.3 1.06-.7 3.48-.9 4.56-.2 1-.52 3.11-.97 5.45a3.14 3.14 0 0 1-2.6 2.73c-2.2.28-4.76-.76-5.22-2.96q-.83.66-1.7 1.3m119.46.15q-.96-.7-1.9-1.46c-.45 2.2-3 3.25-5.21 2.97a3.14 3.14 0 0 1-2.6-2.74c-.45-2.33-.78-4.44-.96-5.44-.2-1.08-.62-3.5-.92-4.56l-1.24-8.42a65 65 0 0 0 8.67-3.09c.94 1.77 1.44 3.74 2.87 5.92a73 73 0 0 0 9.24 10.53c2.49 2.34 5.37 5 5.26 8.4a2.5 2.5 0 0 1-2.43 2.74c-2.2.28-4.34-.75-6.25-1.87a53 53 0 0 1-4.53-2.98" class="a"/><path d="M265.52 43.42a30 30 0 0 0-3.23-7.25 30 30 0 0 0-4.19-5.3c-.63-.65-1.6-1.59-2.26-2.16a38 38 0 0 0-5.51-3.66 33 33 0 0 0-4.82-2.15 34 34 0 0 0-11.4-1.88 32.6 32.6 0 0 0-19.33 5.95 31 31 0 0 0-13.41 24.5c-.18 4.13.98 11.12.79 9.2a4.2 4.2 0 0 1 2.61 1.04l5.3-1.42a79 79 0 0 0 32.54-15.31c.9 2.2 4.86 7.26 6.6 8.91 3.58 3.4 4.42 4.49 8.13 6.77l5.75 1.05a4.3 4.3 0 0 1 3.15-1.03 42 42 0 0 0 .6-9.21 34 34 0 0 0-1.32-8.05" class="b"/><path d="M220.48 15.18a15.5 15.5 0 0 0-.33 8.7 34 34 0 0 1 13.95-2.85 34 34 0 0 1 11.41 1.87q1.26.44 2.48 1l.22-1.46c.98-6.43-1.73-15.41-14.17-15.41-8.05 0-12.02 3.75-13.56 8.15" class="c"/><path d="M215.17 107.7c1.41-.58 2.78-1.29 4.18-1.92l.31-.15-.35.15.57-.25a9 9 0 0 0 1.87-1.4 9 9 0 0 0 2.17-3.45 18 18 0 0 0 .8-3.7 2.2 2.2 0 0 0-.2-1.55 2 2 0 0 0-3.65.48 21 21 0 0 1-.61 3.1q-.1.34-.22.66l-.06.17.09-.21-.18.37a7 7 0 0 1-.4.68c-.05.06-.3.4-.1.15s-.12.13-.18.2q-.27.29-.58.55c-.28.25.26-.17-.05.04l-.44.3c-.37.22-.02.02.11 0a2 2 0 0 0-.52.22l-.26.12q-1 .45-1.98.92l-1.14.54c-.24.1-1.22.52-.24.12a2.2 2.2 0 0 0-1.2.92 2 2 0 0 0-.2 1.54 2 2 0 0 0 2.46 1.4m30.12-11.95c.33 2.61.68 5.33 2.33 7.47a9 9 0 0 0 1.59 1.57 8 8 0 0 0 1 .7 4 4 0 0 0 .65.29l-.35-.15 2 .93c.66.3 1.33.65 2.02.94a2.2 2.2 0 0 0 1.54.2 2 2 0 0 0 .48-3.65q-1.12-.5-2.22-1.04l-1.36-.63-.44-.2-.57-.25c-.16.03.43.24.2.06l-.48-.31q-.27-.2.03.03l-.23-.2c-.21-.18-.7-.53-.79-.8q.26.33.07.07l-.15-.22q-.14-.21-.26-.44c-.03-.07-.17-.45-.23-.46l-.03-.1a12 12 0 0 1-.48-1.87 36 36 0 0 1-.3-1.8l-.04-.27.02.13a2.05 2.05 0 0 0-2-2c-.97.05-2.14.9-2 2m19.22-32.61a2.2 2.2 0 0 1 3.23.53 5.4 5.4 0 0 1 .38 2.4 14 14 0 0 1-.2 2.89 15 15 0 0 1-2.05 5.4 8 8 0 0 1-1.6 1.9 1.5 1.5 0 0 1-1.57.4c-2.5-.66-3.55 3.2-1.06 3.86 3.16.85 5.64-1.19 7.36-3.65a18.4 18.4 0 0 0 2.99-8.3c.34-2.77.33-6.28-1.91-8.3a6.36 6.36 0 0 0-8.4.04 2 2 0 0 0 0 2.83 2.04 2.04 0 0 0 2.83 0" class="d"/><path d="M260.06 75.9a14 14 0 0 1-.94 4.04q-.15.36-.26.73c-.11.33.22-.41.03-.1q-.21.4-.41.83a34 34 0 0 1-3.16 4.84c-2.83 3.67-6.6 7.48-11.3 8.5-2.5.56-1.44 4.41 1.07 3.86 5.56-1.21 10-5.58 13.37-9.94 2.88-3.72 5.39-7.92 5.6-12.76.11-2.57-3.89-2.56-4 0m-53.87-15.6a6.36 6.36 0 0 0-8.4-.03c-2.3 2.07-2.25 5.69-1.88 8.52a18 18 0 0 0 3.13 8.32c1.78 2.44 4.43 4.51 7.6 3.81a2 2 0 0 0-1.05-3.85c-1.35.3-2.79-1.48-3.44-2.46a15 15 0 0 1-2.17-5.5 14 14 0 0 1-.24-2.85 6 6 0 0 1 .39-2.6 2.2 2.2 0 0 1 3.23-.52 2.06 2.06 0 0 0 2.82 0 2 2 0 0 0 0-2.83Z" class="d"/><path d="M203.83 75.35a33 33 0 0 0 7.6 15.13c4 4.53 9.35 8.28 15.45 9.15a2.07 2.07 0 0 0 2.46-1.4 2 2 0 0 0-1.4-2.46c-10.49-1.5-18.22-11.6-20.26-21.48-.52-2.52-4.37-1.46-3.85 1.06M268.21 61c1.46-8.96.56-18.44-4.43-26.23a34.6 34.6 0 0 0-20.63-14.67 37 37 0 0 0-25.58 2.81 34.5 34.5 0 0 0-14.05 13.55 33 33 0 0 0-3.95 12.47 44 44 0 0 0 .57 12.07 2 2 0 0 0 2.46 1.4 2.05 2.05 0 0 0 1.4-2.46c-1.05-6.44-.91-13.11 1.8-19.15a30.4 30.4 0 0 1 11.05-12.82c13.04-8.55 31.51-5.74 41.51 6.14 6 7.14 7.46 16.83 6 25.83a2.06 2.06 0 0 0 1.4 2.46 2 2 0 0 0 2.46-1.4Zm-39.86 23.6a10 10 0 0 0 11.9 0 2 2 0 1 0-2.83-2.82c-.08.07-.37.3-.04.05s-.04.02-.14.08l-.36.2-.26.12c.1-.06.47-.18.15-.07a8 8 0 0 1-1.2.33c-.15.03-.5.17-.02.02l-.37.03a11 11 0 0 1-1.7 0l-.44-.03c.19-.03.35.05.04 0a7 7 0 0 1-1.22-.33c-.16-.06-.42-.23.1.05l-.21-.1-.4-.22-.3-.2c.58.35.28.22.12.06a2 2 0 0 0-2.83 2.83Zm4.96-12.54a26 26 0 0 1 .62 2.83l-.07-.53a2 2 0 0 1 .01.4l.07-.54-.04.18.2-.48-.06.11.31-.4-.1.09.4-.31-.22.12.48-.2-.38.1.54-.07h-.36l.53.08-.4-.07a1.5 1.5 0 0 0-.8-.04 1.5 1.5 0 0 0-.74.24 2 2 0 0 0-.72 2.73 2 2 0 0 0 1.2.92c.36.05.7.14 1.06.16a3.5 3.5 0 0 0 1.61-.4 2.5 2.5 0 0 0 1.33-1.6 4 4 0 0 0-.01-1.66q-.25-1.38-.6-2.71a2 2 0 0 0-.92-1.2 2 2 0 0 0-1.55-.2 2 2 0 0 0-1.2.92 2 2 0 0 0-.2 1.54Z" class="d"/><path d="M219.04 64.48c-.46 1.5-.16 4.95 2.69 5.25 3.76-.02 3.96-4.2 2.7-6.16-1.04-1.61-4.1-2.28-5.39.9m30 0c.46 1.5.15 4.95-2.7 5.25-3.75-.02-3.95-4.2-2.69-6.16 1.04-1.61 4.09-2.28 5.38.9M221.78 21.9c.04.24-.04-.39-.05-.53q-.04-.43-.05-.87a16 16 0 0 1 .06-2 14 14 0 0 1 .82-3.24 9.6 9.6 0 0 1 5.26-5.18c5.65-2.31 14.2-1.4 17.28 4.36a13 13 0 0 1 1.18 7.46 2.07 2.07 0 0 0 1.4 2.46 2 2 0 0 0 2.46-1.4c1-6.96-1.77-13.86-8.57-16.63-7.34-3-18.05-1.4-22.07 6.08a17 17 0 0 0-1.57 10.55 2 2 0 0 0 2.46 1.4 2.05 2.05 0 0 0 1.4-2.46Zm19.1 21.9a78 78 0 0 1-31.34 14.56c-2.52.55-1.45 4.4 1.06 3.85a82 82 0 0 0 33.1-15.57 2 2 0 0 0 0-2.83 2.05 2.05 0 0 0-2.83 0Z" class="d"/><path d="M240.98 46.24a26 26 0 0 0 2.84 4.36 47 47 0 0 0 3.5 4.25 47 47 0 0 0 9.02 7.55c2.2 1.35 4.2-2.1 2.01-3.46q-1.29-.8-2.53-1.68l-.23-.18-.04-.03-.43-.34q-.49-.42-.96-.85a79 79 0 0 1-4-3.84 41 41 0 0 1-3.01-3.61 25 25 0 0 1-2.71-4.19 2 2 0 0 0-2.74-.71 2.04 2.04 0 0 0-.71 2.73ZM222.67 23.3a16 16 0 0 1 4.8-2.24 25 25 0 0 1 5.95-.57 25 25 0 0 1 7.33.93 9 9 0 0 1 4.25 2.16c1.7 1.95 4.52-.9 2.83-2.82a12 12 0 0 0-5.3-2.98 27 27 0 0 0-8.7-1.3 32 32 0 0 0-7.13.65 19 19 0 0 0-6.05 2.7c-2.15 1.4-.15 4.87 2.02 3.47" class="d"/><path d="M253.49 288.1a16 16 0 0 0 2.97 2.32 19.5 19.5 0 0 0 12.14 2.5 11.5 11.5 0 0 0 5.16-1.82 6.4 6.4 0 0 0 2.82-4.55c.22-2.61-1.36-5.08-3.22-6.93-4.76-4.74-9.8-9.39-14.01-14.58-2.11 2.9-5.89 3.74-9.27 3.04-3.11-.63-5.88-2.34-8.6-4-2.58-1.59-2.97 5.88-3.03 7.5-.1 2.57-.52 5.96 1.52 7.86a21 21 0 0 0 6.5 3.54c3.13.95 4.74 2.96 7.02 5.12m-38.9 0a16 16 0 0 1-2.98 2.32 19.5 19.5 0 0 1-12.14 2.5 11.5 11.5 0 0 1-5.16-1.82 6.4 6.4 0 0 1-2.81-4.55c-.22-2.61 1.36-5.08 3.22-6.93 4.76-4.74 9.8-9.39 14.01-14.58 2.1 2.9 5.88 3.74 9.27 3.04 3.11-.63 5.88-2.34 8.59-4 2.59-1.59 2.98 5.88 3.04 7.5.1 2.57.52 5.96-1.52 7.86a21 21 0 0 1-6.5 3.54c-3.13.95-4.74 2.96-7.02 5.12" class="a"/><path d="M208.34 255.21q-.31 5.5-.57 10.98a2 2 0 0 0 2 2 2.04 2.04 0 0 0 2-2q.26-5.49.57-10.98a2 2 0 0 0-2-2 2.05 2.05 0 0 0-2 2m16.45-.17q-.66 4.75-1 9.53a2 2 0 0 0 2 2 2.05 2.05 0 0 0 2-2q.15-2.2.38-4.42.1-1.05.24-2.11l.13-1.06.08-.62.03-.26q-.04.36 0 0a2.2 2.2 0 0 0-.2-1.54 2 2 0 0 0-3.65.48Zm18.79 8.27q-.17-1-.32-2.02c0-.1-.1-.7-.02-.2l-.07-.49-.11-.97q-.23-2.02-.4-4.06a2 2 0 0 0-4 0q.34 4.42 1.06 8.8a2 2 0 0 0 2.46 1.4 2.06 2.06 0 0 0 1.4-2.46m15.69.74q-.24-4.43-.3-8.86a2 2 0 1 0-4 0q.05 4.43.3 8.86a2 2 0 0 0 4 0" class="d"/><path d="M252.08 289.51a20 20 0 0 0 10.58 5.23c3.91.64 8.53.47 11.94-1.8a8.25 8.25 0 0 0 3.54-9.6c-1.32-3.8-4.68-6.44-7.47-9.16a131 131 0 0 1-9.9-10.55c-.91-1.1-2.45-.5-3.15.4-2.64 3.45-7.68 2.36-10.98.7a44 44 0 0 1-3.03-1.7 6 6 0 0 0-2.46-1.13 3.4 3.4 0 0 0-3.35 2.14c-1.11 2.28-1.24 5.04-1.35 7.54a20 20 0 0 0 .27 6.07 8 8 0 0 0 3.75 4.65 32 32 0 0 0 6.06 2.8c2.25.87 3.85 2.79 5.55 4.4 1.86 1.79 4.69-1.04 2.82-2.82a36 36 0 0 0-4.61-4.1c-1.62-1.1-3.5-1.5-5.24-2.32-1.38-.66-3.4-1.5-4.18-2.9-.8-1.43-.53-3.4-.46-4.96.1-2.22.03-4.52.92-6.55-.1.25.2-.26.23-.36-.13.36-.14.08 0 .05-.14.03-.24.22-.4.26-.57.14-1.2-.32-.3.23l1.48.9a26 26 0 0 0 6.37 2.87c4.6 1.24 9.42.1 12.37-3.76l-3.14.41a126 126 0 0 0 9.42 10.06q2.3 2.23 4.6 4.52a8 8 0 0 1 2.64 4.73c.3 4.11-5.08 5.26-8.16 5.3a16.6 16.6 0 0 1-11.53-4.38c-1.88-1.75-4.72 1.07-2.83 2.83m-38.9-2.82a16.6 16.6 0 0 1-11.54 4.37c-3.07-.03-8.46-1.18-8.15-5.3a8 8 0 0 1 2.64-4.73c1.5-1.53 3.06-3 4.6-4.51a126 126 0 0 0 9.41-10.06l-3.14-.4a11.1 11.1 0 0 0 10.82 4.07 20 20 0 0 0 6.4-2.34q1.34-.73 2.64-1.53a4 4 0 0 0 .73-.45c.2-.33.16.06-.01 0-.5-.16-.53.05-.88-.11-.24-.11-.13-.12-.13-.13.03-.1.2.35.2.34-.03-.04.13.41.18.57a14 14 0 0 1 .42 2c.12.78.2 1.94.25 2.87a19 19 0 0 1-.04 4.91c-.38 1.74-1.77 2.52-3.24 3.33-1.9 1.05-4.05 1.52-5.92 2.6a29 29 0 0 0-5.25 4.5c-1.86 1.78.97 4.6 2.83 2.82a23 23 0 0 1 4.76-4.05c1.79-.95 3.8-1.43 5.6-2.42a10 10 0 0 0 4.38-3.81 12 12 0 0 0 .95-6.13 30 30 0 0 0-.95-7.9 4.5 4.5 0 0 0-2.63-3.22c-1.87-.58-3.64 1.08-5.15 1.93-3.55 2.02-9.4 4.17-12.5.12-.7-.91-2.24-1.51-3.15-.4a118 118 0 0 1-8.6 9.25l-4.6 4.52a17 17 0 0 0-3.6 4.56 8.24 8.24 0 0 0 1.8 10.1c3.02 2.61 7.42 3.28 11.28 2.92A20.7 20.7 0 0 0 216 289.5c1.88-1.76-.95-4.58-2.83-2.82" class="d"/><path d="M263.53 177.05c.7 19.8 2.87 49.02 1.16 68.76-.21 2.4-.47 4.92-1.67 6.99-2.8 4.83-9.18 5.23-14.54 5.08-3.13-.1-6.44-.24-9.06-2.05-5.26-3.64-5.08-11.63-4.95-18.26a105 105 0 0 0-.37-10.92 102 102 0 0 0-.37 10.92c.13 6.63.3 14.62-4.95 18.26-2.62 1.8-5.93 1.96-9.06 2.05-5.36.15-11.75-.25-14.54-5.08-1.2-2.07-1.46-4.58-1.67-7-1.71-19.73-.1-48.33.62-68.14Z" style="fill:#7abee6"/><path d="M202.13 177.66c-.68 18.5-1.74 37.02-1.28 55.54q.13 6.3.66 12.6c.4 4.66 1.43 9.19 5.69 11.79 3.4 2.07 7.64 2.35 11.52 2.3 4.53-.05 9.47-.34 12.82-3.8 3.2-3.3 3.98-8.09 4.18-12.49.25-5.66-.1-11.3.38-16.95.22-2.57-3.78-2.55-4 0-.42 4.82-.32 9.6-.33 14.44 0 3.45-.09 7.3-1.78 10.41-2.08 3.8-6.13 4.25-10.07 4.37-3.33.1-7.12.18-10.15-1.43-3.75-1.98-4.06-6.03-4.36-9.85-.32-3.99-.48-7.99-.57-11.98-.2-8.85-.05-17.7.22-26.54.28-9.47.72-18.94 1.07-28.41.1-2.58-3.91-2.57-4 0" class="d"/><path d="M261.53 177.05c.62 17.22 1.84 34.43 1.8 51.67q0 6.2-.32 12.38-.14 2.9-.42 5.77c-.21 2.04-.59 4.24-1.95 5.86-2.23 2.62-6.09 3.06-9.3 3.15-3.68.1-8.63.4-11.52-2.28-2.86-2.66-3.26-7.04-3.37-10.72-.16-5.42.1-10.81-.35-16.23-.21-2.55-4.22-2.57-4 0 .43 5.18.24 10.33.34 15.51.07 4.03.45 8.41 2.64 11.9 2.56 4.1 6.93 5.48 11.55 5.74 4 .22 8.37.3 12.17-1.17a11.7 11.7 0 0 0 7.54-9.73 108 108 0 0 0 .9-13.16c.26-9.42 0-18.85-.36-28.26-.4-10.15-.98-20.29-1.35-30.44-.09-2.56-4.09-2.58-4 0Z" class="d"/><path d="M192.69 122.54a50 50 0 0 1 2.57-4.42c3-4.56 9.08-8.48 15.15-11.1l.2-.21c1.53-1.52 5.2-4.5 7.17-6.1a.84.84 0 0 1 1.31.35c3.5 8.87 7.2 13.32 15.35 18.8l1.56.94c5.7-6.92 10.9-14.06 12.97-19.25a.83.83 0 0 1 1.21-.36c2.32 1.5 4.98 3.8 7.4 5.62 6.28 3.13 12.21 7.36 15.3 12.06q.93 1.4 1.78 2.88c3.31 5.74 5.82 12.18 8.3 18.26 4.03 9.94 7.64 21.36 11.67 31.3-7.05 4.03-18.7 7.95-27.76 7.37h-.2c1.32 6.12 3.18 13.12 4.92 17.14a1.86 1.86 0 0 1-1.65 2.62c-14.74.02-56.12.17-71.59.2a1.87 1.87 0 0 1-1.6-2.75c2.25-4.45 3.78-10.36 4.88-15.65l-.4-.1-5.8-1.38a72 72 0 0 1-21.84-7.45c4.04-9.94 7.65-21.36 11.69-31.3 2.26-5.58 4.51-11.91 7.4-17.47" class="c"/><path d="M252.89 112.59a98 98 0 0 1-17.42 23.79c-1.82 1.82 1 4.65 2.83 2.83a101 101 0 0 0 18.04-24.6c1.18-2.29-2.27-4.31-3.45-2.02m-76.5 60.67a35 35 0 0 1-2.88 5.77 60 60 0 0 1-4.54 5.56 97 97 0 0 1-4.96 5 20 20 0 0 0-3.89 4.68 8 8 0 0 0-.88 5.95c.73 2.41 3.18 3.31 5.5 3.15a15.4 15.4 0 0 0 6.74-2.64 59 59 0 0 0 6.03-4.27l-3.34-.89c1.13 4.39 7.9 6.29 10.71 2.42 1.33-1.81 1.38-4.46 1.75-6.61.32-1.86.6-3.75 1.1-5.58.67-2.48-3.19-3.55-3.86-1.06-.76 2.82-1.1 5.77-1.62 8.63-.2 1.12-.16 2.63-1.57 2.69a2.45 2.45 0 0 1-2.65-1.55 2.03 2.03 0 0 0-3.34-.88 50 50 0 0 1-4.84 3.4c-1.54.97-3.25 2.11-5.1 2.34-.68.08-1.56.2-1.74-.56a3.5 3.5 0 0 1 .25-1.83 11 11 0 0 1 2.88-3.89 113 113 0 0 0 7.88-8.24 40 40 0 0 0 3.57-4.75 52 52 0 0 0 2.25-4.82 2.06 2.06 0 0 0-.72-2.73 2 2 0 0 0-2.74.71m111.85 2.02c.72 1.54 1.28 3.15 2.13 4.62a37 37 0 0 0 3.55 4.78 112 112 0 0 0 8.02 8.41 11.5 11.5 0 0 1 2.84 3.79 3.7 3.7 0 0 1 .29 1.93c-.17.7-.87.62-1.52.57-1.86-.14-3.58-1.27-5.13-2.22a50 50 0 0 1-5.03-3.53 2.03 2.03 0 0 0-3.34.88 2.46 2.46 0 0 1-2.65 1.54c-1.4-.05-1.37-1.57-1.57-2.68-.52-2.86-.86-5.82-1.62-8.63-.67-2.48-4.53-1.43-3.86 1.06.48 1.78.76 3.62 1.07 5.43.38 2.2.42 4.9 1.77 6.76 2.82 3.87 9.59 1.97 10.72-2.42l-3.35.89a59 59 0 0 0 6.04 4.27 15.4 15.4 0 0 0 6.73 2.64c2.33.16 4.78-.74 5.5-3.15a8 8 0 0 0-.88-5.96 20 20 0 0 0-3.88-4.68 96 96 0 0 1-4.96-4.99 60 60 0 0 1-4.54-5.56 35 35 0 0 1-2.87-5.77 2 2 0 0 0-2.74-.71 2.05 2.05 0 0 0-.72 2.73" class="d"/><path d="M195.96 176.83a64 64 0 0 1-21.36-7.25l.92 2.25c4.54-11.2 8.31-22.71 12.75-33.97a132 132 0 0 1 6.81-15.56 25 25 0 0 1 4.52-6.19 34 34 0 0 1 6.74-4.84q2.1-1.18 4.29-2.17a10 10 0 0 0 2.58-1.98q1.45-1.28 2.94-2.5.81-.68 1.64-1.35l.5-.41.47-.39q.55-.41-.24.08l-1.01-.27-.21-.32.22.53.42 1q.31.75.65 1.5.67 1.5 1.45 2.92a35 35 0 0 0 3.46 5.12 45 45 0 0 0 9.92 8.56c2.14 1.45 4.14-2.02 2.02-3.45-5.28-3.57-9.67-7.7-12.56-13.44-.78-1.53-1.27-3.3-2.14-4.77a2.8 2.8 0 0 0-2.35-1.4 3.7 3.7 0 0 0-2.46 1.11q-1.88 1.52-3.74 3.09a33 33 0 0 1-3.13 2.74c-.71.45-1.65.73-2.42 1.11q-1.47.73-2.89 1.56a42 42 0 0 0-5.15 3.55 28 28 0 0 0-7.08 8.78c-3.9 7.13-6.65 14.96-9.57 22.53-3.55 9.21-6.58 18.62-10.29 27.77a2 2 0 0 0 .92 2.26 67 67 0 0 0 22.32 7.65 2.07 2.07 0 0 0 2.46-1.4 2 2 0 0 0-1.4-2.46Z" class="d"/><path d="M272 180.58a60.5 60.5 0 0 0 23.64-7.55 2 2 0 0 0 .92-2.26c-5-12.37-9.04-25.1-14.18-37.42-2.37-5.7-4.84-11.71-8.6-16.66-3.7-4.87-9.02-8.44-14.41-11.21-2.74-1.42-4.99-3.85-7.53-5.6a3.1 3.1 0 0 0-3.72-.3 2.6 2.6 0 0 0-.88.96 25 25 0 0 1-.72 1.62 61 61 0 0 1-5.5 8.93 209 209 0 0 1-16.21 19.48q-3.76 4.1-7.66 8.07-1.18 1.2-2.37 2.36l-.71.67c-.4.39-.13.06.04 0l1-.28 1.41.59.59 1.4q-.54 1.43-.26.98c1.39-2.18-2.07-4.19-3.45-2.02a2.02 2.02 0 0 0 1.45 3.02 2.2 2.2 0 0 0 1.83-.66q.8-.7 1.54-1.47a245 245 0 0 0 6.78-6.98A237 237 0 0 0 243.82 114q2.19-2.96 4.11-6.1.86-1.41 1.63-2.9c.44-.85.86-2.03 1.3-2.7l-.72.71c-.57.42-.88-.07-.16.43a36 36 0 0 1 2.11 1.57l3.41 2.7c2.18 1.68 4.83 2.76 7.15 4.28a37 37 0 0 1 5.88 4.71 28 28 0 0 1 4.25 5.76 118 118 0 0 1 7.1 15.22q3.19 7.87 6.04 15.86c2.2 6.12 4.35 12.26 6.79 18.28l.92-2.25a56 56 0 0 1-21.63 7 2.06 2.06 0 0 0-2 2 2 2 0 0 0 2 2Z" class="d"/><path d="M263.06 133.72v38.04c0 2.57 4 2.57 4 0v-38.04c0-2.58-4-2.58-4 0m-62.43 1.44c0 9.78.14 19.55.15 29.33q0 3.63-.03 7.26c-.04 2.58 3.96 2.58 4 0 .12-10.13-.03-20.26-.09-30.4l-.03-6.19c0-2.57-4-2.58-4 0" class="d"/><path d="M202 174.39c7 1.45 14.3 1.7 21.44 1.85a273 273 0 0 0 27.75-.8c4.91-.4 9.82-.95 14.68-1.76a2 2 0 0 0 1.4-2.46 2.05 2.05 0 0 0-2.46-1.4 200 200 0 0 1-25.9 2.3 243 243 0 0 1-25.76-.35 76 76 0 0 1-10.09-1.24c-2.51-.52-3.59 3.33-1.06 3.85Z" class="d"/><path d="M263.52 172.99q1.21 6.98 3.05 13.84.85 3.28 1.94 6.5.43 1.27.94 2.52a5 5 0 0 0 .3.76c.04.03.06-.18-.02-.04.01-.02.13-.18.2-.14-.1-.06-.4 0-.54 0l-20.17.05-47.8.14h-2.7c-.32.03-.34-.1-.24.04.13.17.12-.02.3-.41a48 48 0 0 0 2.84-7.59 143 143 0 0 0 3.4-15.68 2.06 2.06 0 0 0-1.4-2.46 2 2 0 0 0-2.46 1.4c-.88 4.94-1.78 9.9-3.13 14.73a48 48 0 0 1-2.55 7.26c-.55 1.2-1.15 2.3-.85 3.67a3.9 3.9 0 0 0 2.59 2.87c1.4.44 3.19.17 4.64.17l5.19-.01 12.16-.04 49.8-.14a4.8 4.8 0 0 0 3.47-1 4 4 0 0 0 1.14-3.84c-.3-1.13-.88-2.23-1.26-3.33q-.6-1.8-1.14-3.62a152 152 0 0 1-3.85-16.72 2 2 0 0 0-2.46-1.4 2.05 2.05 0 0 0-1.4 2.46Z" class="d"/><path d="m231.03 174.64-4.7 7.92a2 2 0 1 0 3.46 2.02l4.7-7.92a2 2 0 1 0-3.46-2.02" class="d"/><path d="m233.81 177.07.32.4-.07-.1.15.2.62.83q.6.83 1.18 1.67 1.13 1.68 2.13 3.44a2 2 0 0 0 3.45-2.02 59 59 0 0 0-4.95-7.26 2 2 0 0 0-1.42-.59 2 2 0 0 0-1.41.59 2 2 0 0 0-.59 1.41 2.3 2.3 0 0 0 .59 1.42Z" class="d"/><path d="M146.17 198.75c-.83-2.4-3-4.4-4.92-6.21A73 73 0 0 1 132 182a38 38 0 0 1-2.6-5.4l-.46-.95c-2.65 1.74-5.7 3.73-8.73 5.53l1.5 6.41c.3 1.06.7 3.48.9 4.56.2 1 .53 3.11.97 5.45a3.14 3.14 0 0 0 2.6 2.73c2.2.28 4.76-.76 5.22-2.96a53 53 0 0 0 6.42 4.43c1.9 1.12 4.05 2.15 6.24 1.87a2.5 2.5 0 0 0 2.44-2.73 6 6 0 0 0-.34-2.2m-132.55 1.22q1.8-1.23 3.49-2.6c.46 2.21 3.01 3.25 5.22 2.97a3.14 3.14 0 0 0 2.6-2.74c.44-2.33.78-4.44.96-5.44.2-1.08.61-3.5.92-4.56l1.5-7.86a190 190 0 0 1-8.68-4.47c-.3.76-.51 1.34-.51 1.34a38 38 0 0 1-2.61 5.4 73 73 0 0 1-9.24 10.53c-2.49 2.34-5.37 5-5.26 8.4a3 3 0 0 0 .7 2 3 3 0 0 0 1.73.74c2.2.28 4.34-.75 6.25-1.87q1.5-.87 2.93-1.84M103.9 62.5a4.5 4.5 0 0 1 2.86-.57 4 4 0 0 1 2.92 1.94 6 6 0 0 1 .6 2.32 17.3 17.3 0 0 1-1.75 9.13 11 11 0 0 1-2.83 3.7 3.3 3.3 0 0 1-3.13.84l-.18-.05-.5-.17c-.3 1.2-.71 2.26-.9 2.77-1.02 2.61-7.05 12.25-14.46 14.98q.08.65.24 1.6a9 9 0 0 0 1.75 4.43c-2.2 4.78-7 11.56-12.41 18.24-8.48-5.58-12.35-9.93-15.87-18.54a9.5 9.5 0 0 0 1.52-4.14q.19-1.05.26-1.74a28 28 0 0 1-8.8-6.8 31 31 0 0 1-6.14-10.43l-.73.2a4.1 4.1 0 0 1-3.73-1.18 11 11 0 0 1-2.84-3.71 17 17 0 0 1-1.75-9.13 6 6 0 0 1 .6-2.31 4 4 0 0 1 2.92-1.95 4.3 4.3 0 0 1 3.45 1S44.21 35.1 74.15 35.1c31.02 0 29.75 27.42 29.75 27.42" class="a"/><path d="M74.5 10.82a9.75 9.75 0 0 1 17.08-5.47 15 15 0 0 1 2.7 5.4A16 16 0 0 1 94.9 17a15 15 0 0 1-1.2 4.58 8.5 8.5 0 0 1-3.83 4.36q.34.16.67.35a38 38 0 0 1 5.51 3.65c.66.58 1.63 1.52 2.27 2.16a29.6 29.6 0 0 1 7.95 14.62 34 34 0 0 1 .79 6 42 42 0 0 1-.6 9.2 4.5 4.5 0 0 0-2.57.6l-4.81 2.24q-.29-1.75-.66-3.48l-.22-1.07a26 26 0 0 1-5.8-1.69c-6.99-3.07-10.57-6.44-13.5-14.08h-8.27C67.45 52 62.22 55.81 55.05 59a17 17 0 0 1-4.75 1.21q-.65 2.94-1.11 5.9L45 62.96a4.2 4.2 0 0 0-2.7-1.05l-.01-.2a54 54 0 0 1-.7-9A31 31 0 0 1 55 28.2a30 30 0 0 1 3.66-2.26 8.5 8.5 0 0 1-3.85-4.37A15 15 0 0 1 53.6 17a16 16 0 0 1 .64-6.23 15 15 0 0 1 2.68-5.41 9.76 9.76 0 0 1 17.1 5.47" class="b"/><path d="M82.96 23.28a35 35 0 0 0-8.63-1.03 35 35 0 0 0-10.57 1.58c-2.37-2.84-3.72-7.63-1.97-11.01 1.4-2.67 5.24-2.2 6.83.2a6 6 0 0 1 .65 1.22 11.3 11.3 0 0 1 5.74-1.3 9 9 0 0 1 4.37.98l.04-.1a5 5 0 0 1 .48-.8c1.58-2.4 5.43-2.88 6.82-.2 1.76 3.37.43 8.13-1.94 10.98q-.9-.28-1.82-.52" class="a"/><path d="M66.33 17.94c.72-2.68 3.4-5 8.68-5 7.25 0 8.96 6.13 6.21 9.96a37 37 0 0 0-14.1.06 6.4 6.4 0 0 1-.8-5.02" class="f"/><path d="M54.34 108.93c1.42-.59 2.79-1.29 4.18-1.93l.32-.14c.25-.12-.55.23-.36.15l.58-.25a9 9 0 0 0 1.87-1.4 9 9 0 0 0 2.16-3.45 17 17 0 0 0 .81-3.71 2.2 2.2 0 0 0-.2-1.54 2 2 0 0 0-3.66.48 21 21 0 0 1-.6 3.1l-.22.66-.07.16.09-.2-.18.37a7 7 0 0 1-.4.68c-.04.06-.29.4-.1.15s-.12.12-.17.19q-.29.3-.59.56c-.27.25.27-.18-.04.04l-.44.3c-.37.22-.03.02.1 0a3 3 0 0 0-.52.22l-.25.12-1.99.92-1.14.53c-.23.11-1.21.53-.24.13a2.2 2.2 0 0 0-1.2.92 2 2 0 0 0-.2 1.54 2 2 0 0 0 2.46 1.4M84.6 97.92c.35 2.52.86 4.95 2.55 6.95a9 9 0 0 0 1.66 1.46 6 6 0 0 0 1.22.66l1.74.83c.65.3 1.29.63 1.94.9a2.06 2.06 0 0 0 2.73-.72 2 2 0 0 0-.71-2.73c-1.22-.52-2.4-1.13-3.6-1.69l-1-.43c0-.06.47.25.15.02l-.4-.25-.18-.14c-.2-.13.11.08.11.09l-.37-.34q-.3-.28-.56-.6l.12.15-.11-.16-.24-.37q-.18-.31-.34-.66c-.16-.32.13.37.02.03l-.14-.4a21 21 0 0 1-.74-3.67 2 2 0 0 0-.91-1.2 2 2 0 0 0-1.55-.2 2.07 2.07 0 0 0-1.4 2.47Zm17.27-16.18c3.05.85 5.48-1.07 7.2-3.41a17.6 17.6 0 0 0 3.04-7.7c.4-2.78.63-6.3-1.28-8.58a6.3 6.3 0 0 0-7.93-1.27c-2.26 1.23-.24 4.68 2.02 3.45a2.24 2.24 0 0 1 3.1.73 7 7 0 0 1 .33 2.8 14 14 0 0 1-.26 2.72 15 15 0 0 1-2.07 5.23c-.71 1.1-1.82 2.53-3.09 2.18-2.48-.7-3.54 3.17-1.06 3.85" class="d"/><path d="M100.28 77.13a14 14 0 0 1-.94 4.03l-.26.73c-.11.33.22-.41.04-.1q-.23.4-.42.83a34 34 0 0 1-3.16 4.84c-2.83 3.67-6.6 7.48-11.29 8.5-2.51.56-1.45 4.42 1.06 3.86 5.56-1.21 10.01-5.58 13.37-9.94 2.88-3.72 5.39-7.92 5.6-12.75.11-2.58-3.89-2.57-4 0m-53.87-15.6a6.36 6.36 0 0 0-8.4-.03c-2.3 2.06-2.25 5.68-1.88 8.5a18 18 0 0 0 3.13 8.33c1.78 2.44 4.44 4.52 7.61 3.82a2 2 0 1 0-1.06-3.86c-1.35.3-2.78-1.48-3.43-2.46a15 15 0 0 1-2.18-5.5 14 14 0 0 1-.24-2.84 6 6 0 0 1 .4-2.6 2.2 2.2 0 0 1 3.22-.53 2.06 2.06 0 0 0 2.83 0 2 2 0 0 0 0-2.83" class="d"/><path d="M44.05 76.58a33 33 0 0 0 7.61 15.12c4 4.53 9.35 8.28 15.44 9.15a2.07 2.07 0 0 0 2.46-1.4 2 2 0 0 0-1.4-2.45c-10.48-1.5-18.22-11.6-20.25-21.49-.52-2.52-4.37-1.45-3.86 1.06m64.39-14.35c1.45-8.96.56-18.45-4.44-26.23a34.6 34.6 0 0 0-20.63-14.67 37 37 0 0 0-25.58 2.81 34.5 34.5 0 0 0-14.05 13.54 33 33 0 0 0-3.95 12.48 44 44 0 0 0 .57 12.07 2 2 0 0 0 2.46 1.4 2.05 2.05 0 0 0 1.4-2.46c-1.04-6.44-.9-13.11 1.8-19.15A30.4 30.4 0 0 1 57.08 29.2c13.04-8.55 31.51-5.74 41.51 6.15 6 7.14 7.46 16.83 6 25.82a2.06 2.06 0 0 0 1.4 2.46 2 2 0 0 0 2.46-1.4Zm-39.87 23.6a8.5 8.5 0 0 0 5.95 1.97 8.6 8.6 0 0 0 5.95-1.97A2 2 0 0 0 77.64 83c-.08.08-.37.31-.04.06s-.04.01-.14.07l-.36.2q-.12.07-.25.12c.1-.05.46-.17.15-.07a9 9 0 0 1-1.2.33c-.16.03-.5.18-.03.02l-.37.03a11 11 0 0 1-1.7.01l-.44-.04c.2-.03.35.05.05 0a8 8 0 0 1-1.23-.33c-.16-.05-.41-.22.1.05l-.2-.1-.4-.22-.3-.2c.58.35.28.23.12.07a2 2 0 0 0-2.83 2.83Zm4.97-12.55a26 26 0 0 1 .61 2.84l-.07-.54a2 2 0 0 1 .01.4l.07-.54-.04.18.2-.48-.06.11.31-.4-.09.1.4-.32-.22.12.48-.2-.38.1.53-.06h-.35l.53.07-.4-.07a2.2 2.2 0 0 0-1.54.2 2 2 0 0 0-.72 2.74 2 2 0 0 0 1.2.91c.35.05.7.14 1.06.16a3.5 3.5 0 0 0 1.61-.4 2.5 2.5 0 0 0 1.33-1.6 4 4 0 0 0-.02-1.66q-.23-1.38-.6-2.71a2 2 0 0 0-2.46-1.4 2 2 0 0 0-1.2.92 2 2 0 0 0-.2 1.54Z" class="d"/><path d="M59.27 65.7c-.47 1.5-.17 4.96 2.68 5.25 3.76-.02 3.96-4.2 2.7-6.16-1.04-1.61-4.09-2.28-5.38.91m29.99 0c.46 1.5.16 4.96-2.69 5.25-3.76-.02-3.96-4.2-2.7-6.16 1.04-1.61 4.1-2.28 5.39.91m-19.39-25a24 24 0 0 1-7.51 11.73 30 30 0 0 1-5.55 3.52 17 17 0 0 1-6.51 2.25c-2.56.17-2.57 4.18 0 4a22 22 0 0 0 8.14-2.6 35 35 0 0 0 6.54-4.18 28 28 0 0 0 8.75-13.66c.77-2.46-3.1-3.51-3.86-1.06m7.1 4.27c1.84 4.72 4.35 8.9 8.48 11.95a31 31 0 0 0 6.08 3.38 21 21 0 0 0 6.69 1.9 2 2 0 0 0 0-4c-.3-.01.28.09-.23-.02l-.75-.17q-.73-.19-1.45-.4-.82-.26-1.64-.55l-.6-.22-.13-.05a30 30 0 0 1-5.77-3.18c-3.2-2.31-5.33-5.88-6.82-9.7a2.06 2.06 0 0 0-2.46-1.4 2 2 0 0 0-1.4 2.46" class="d"/><path d="M48.14 60.74a98 98 0 0 0-1.91 14.7c-.25 4.7-.2 9.38 1.66 13.78a2 2 0 0 0 2.74.72 2.05 2.05 0 0 0 .71-2.74c-1.6-3.8-1.32-8.22-1.09-12.24A90 90 0 0 1 52 61.81c.52-2.51-3.33-3.59-3.86-1.07m48.36 1.07a90 90 0 0 1 1.75 13.15c.23 4.02.51 8.45-1.1 12.25a2.07 2.07 0 0 0 .73 2.73 2 2 0 0 0 2.73-.71c1.86-4.4 1.91-9.08 1.67-13.78a98 98 0 0 0-1.92-14.7c-.52-2.52-4.38-1.46-3.86 1.06" class="d"/><path d="M54.8 288.1a16 16 0 0 1-2.96 2.32 19.5 19.5 0 0 1-12.14 2.5 11.5 11.5 0 0 1-5.16-1.82 6.4 6.4 0 0 1-2.82-4.55c-.22-2.61 1.36-5.08 3.22-6.93 4.76-4.74 9.8-9.39 14.01-14.58 2.11 2.9 5.89 3.74 9.27 3.04 3.11-.63 5.88-2.34 8.59-4 2.59-1.59 2.98 5.88 3.04 7.5.1 2.57.52 5.96-1.52 7.86a21 21 0 0 1-6.5 3.54c-3.13.95-4.74 2.96-7.02 5.12m38.91 0a16 16 0 0 0 2.98 2.32 19.5 19.5 0 0 0 12.14 2.5 11.5 11.5 0 0 0 5.16-1.82 6.4 6.4 0 0 0 2.81-4.55c.22-2.61-1.36-5.08-3.22-6.93-4.76-4.74-9.8-9.39-14.01-14.58-2.1 2.9-5.88 3.74-9.27 3.04-3.11-.63-5.88-2.34-8.59-4-2.59-1.59-2.98 5.88-3.04 7.5-.1 2.57-.52 5.96 1.52 7.86a21 21 0 0 0 6.5 3.54c3.13.95 4.74 2.96 7.02 5.12" class="a"/><path d="M51.03 266.2v.78a10 10 0 0 0 7.2 1.1 26 26 0 0 0 8.26-3.8q.56-3.15.89-6.32c-5.36 0-9.98-.07-16.1-.38q-.08 2.98-.24 5.97s0 1.2 0 2.65m47.5-.47q-.18-4.07-.4-8.14c-6.13.31-10.77.37-16.19.37q.4 3.31.62 6.64a25 25 0 0 0 7.74 3.48 9.5 9.5 0 0 0 8.25-1.9Z" class="a"/><path d="M95.96 255.21q.31 5.5.57 10.98a2 2 0 0 0 4 0q-.26-5.49-.57-10.98a2 2 0 1 0-4 0m-16.31.9.02.17.08.61.13 1.06q.14 1.1.25 2.2.23 2.2.39 4.42a2 2 0 0 0 4 0q-.36-4.78-1.01-9.53a2 2 0 0 0-.92-1.2 2 2 0 0 0-2.74.72 2.4 2.4 0 0 0-.2 1.54Zm-11.07 8.26q.72-4.38 1.05-8.8a2 2 0 0 0-2-2 2.05 2.05 0 0 0-2 2q-.15 2.04-.39 4.07l-.12.97-.06.48-.02.12q-.14 1.05-.32 2.1a2.2 2.2 0 0 0 .2 1.54 2 2 0 0 0 3.66-.48m-15.55-.32q.24-4.43.3-8.86a2 2 0 1 0-4 0q-.06 4.43-.3 8.86a2 2 0 0 0 2 2 2.05 2.05 0 0 0 2-2" class="d"/><path d="M53.4 286.69a16.6 16.6 0 0 1-11.53 4.37c-3.07-.03-8.46-1.18-8.16-5.3a8 8 0 0 1 2.65-4.73c1.5-1.53 3.06-3 4.6-4.51a126 126 0 0 0 9.41-10.06l-3.14-.4a11.1 11.1 0 0 0 10.82 4.07 20 20 0 0 0 6.4-2.34q1.34-.73 2.63-1.53a4 4 0 0 0 .74-.45c.2-.33.16.06-.01 0-.5-.16-.53.05-.88-.11-.24-.11-.13-.12-.13-.13.03-.1.2.35.2.34-.03-.04.13.41.18.57a14 14 0 0 1 .42 2c.12.78.2 1.94.25 2.87a19 19 0 0 1-.04 4.91c-.38 1.74-1.78 2.52-3.24 3.33-1.9 1.05-4.05 1.52-5.92 2.6a29 29 0 0 0-5.25 4.5c-1.87 1.78.97 4.6 2.83 2.82a23 23 0 0 1 4.76-4.05c1.79-.95 3.8-1.43 5.6-2.42a10 10 0 0 0 4.38-3.81 12 12 0 0 0 .96-6.13 30 30 0 0 0-.96-7.9 4.5 4.5 0 0 0-2.62-3.22c-1.88-.58-3.65 1.08-5.15 1.93-3.56 2.02-9.41 4.17-12.51.12-.7-.91-2.24-1.51-3.14-.4a118 118 0 0 1-8.6 9.25l-4.6 4.52a17 17 0 0 0-3.6 4.56 8.24 8.24 0 0 0 1.8 10.1c3.01 2.61 7.41 3.28 11.28 2.92a20.7 20.7 0 0 0 12.4-5.47c1.88-1.76-.95-4.58-2.83-2.82m38.9 2.82a20 20 0 0 0 10.58 5.23c3.91.64 8.53.47 11.94-1.8a8.25 8.25 0 0 0 3.55-9.6c-1.32-3.8-4.7-6.44-7.47-9.16a131 131 0 0 1-9.92-10.55c-.9-1.1-2.44-.5-3.14.4-2.64 3.45-7.68 2.36-10.98.7a44 44 0 0 1-3.03-1.7 6 6 0 0 0-2.45-1.13 3.4 3.4 0 0 0-3.36 2.14c-1.1 2.28-1.23 5.04-1.35 7.54a20 20 0 0 0 .27 6.07 8 8 0 0 0 3.75 4.65 32 32 0 0 0 6.07 2.8c2.24.88 3.84 2.79 5.54 4.41 1.86 1.78 4.7-1.04 2.83-2.83a36 36 0 0 0-4.62-4.1c-1.62-1.09-3.5-1.5-5.24-2.32-1.38-.66-3.4-1.5-4.18-2.9-.8-1.43-.53-3.4-.46-4.96.11-2.21.03-4.51.93-6.55-.11.25.18-.26.22-.36-.13.36-.13.08 0 .05-.13.03-.24.22-.4.26-.56.14-1.2-.32-.3.23l1.49.9a26 26 0 0 0 6.37 2.88c4.6 1.23 9.41.1 12.36-3.76l-3.14.4a126 126 0 0 0 9.42 10.06c1.53 1.5 3.09 2.99 4.6 4.52a8 8 0 0 1 2.64 4.73c.31 4.11-5.07 5.26-8.15 5.3a16.6 16.6 0 0 1-11.53-4.38c-1.9-1.75-4.73 1.07-2.84 2.83" class="d"/><path d="M41.74 202.24c-6.1 9.7-16.02 18.25-26.68 22.38a.96.96 0 0 0-.33 1.54 59 59 0 0 1 6.46 8.91 1 1 0 0 0 1.4.32 44.4 44.4 0 0 0 18.49-21.21Z" class="g"/><path d="M40.01 201.23a54.7 54.7 0 0 1-24.75 21.17c-1.26.52-2.39 1.01-2.7 2.49-.37 1.66.83 2.74 1.8 3.9q1.37 1.66 2.61 3.43a49 49 0 0 0 2.8 4.27c2.23 2.54 5.45-.32 7.43-1.75a47 47 0 0 0 6.43-5.58 48 48 0 0 0 9.17-13.97 2.07 2.07 0 0 0-.72-2.74 2 2 0 0 0-2.73.72 46 46 0 0 1-6.65 11.04 43 43 0 0 1-4.87 4.96q-1.27 1.12-2.65 2.11-.77.56-1.57 1.1l-.9.59-.38.23q-.75.26-.01.35c.78.68-.08-.6-.12-.66q-.24-.4-.5-.78l-1.01-1.53a67 67 0 0 0-2.78-3.72 8 8 0 0 0-1.17-1.42l-.3-.35-.49 1.32a7 7 0 0 0 .98-.4q1.77-.74 3.5-1.62a58 58 0 0 0 12.19-8.4 60 60 0 0 0 10.85-12.74c1.38-2.18-2.08-4.2-3.46-2.02" class="d"/><path d="m44.21 184.59 60.85 1.93h2.9c7.37-.93 20.95-11.19 26.73-14.5l-.4-1c-3.88-9.7-7.38-20.7-11.28-30.3-2.9-7.12-5.84-14.73-10.07-21.14-3.1-4.7-9.02-8.93-15.3-12.06-2.42-1.81-5.08-4.13-7.4-5.62a.83.83 0 0 0-1.21.36c-1.92 4.8-7.05 12.13-12.89 19.35l-.9-.53c-8.14-5.47-11.84-9.93-15.34-18.8a.84.84 0 0 0-1.31-.35c-1.97 1.6-5.64 4.58-7.17 6.1l-.2.22-.34-.73c-6.29 3.14-12.21 7.36-15.31 12.06-4.22 6.42-7.17 14.03-10.06 21.14-4.04 9.94-7.64 21.36-11.68 31.3 5.78 3.31 20.54 11.64 27.9 12.57l1.79.19" style="fill:#f8b8b4"/><path d="M127.68 177.62c.71 1.54 1.27 3.14 2.12 4.62a37 37 0 0 0 3.55 4.77 112 112 0 0 0 8.02 8.42 11.5 11.5 0 0 1 2.85 3.78 3.7 3.7 0 0 1 .28 1.93c-.17.7-.86.62-1.52.57-1.86-.14-3.58-1.26-5.13-2.22a50 50 0 0 1-5.02-3.53 2.03 2.03 0 0 0-3.35.88 2.46 2.46 0 0 1-2.65 1.55c-1.4-.05-1.36-1.58-1.56-2.68-.52-2.87-.87-5.82-1.63-8.64-.67-2.48-4.53-1.43-3.85 1.07.48 1.77.75 3.61 1.06 5.43.38 2.2.43 4.9 1.78 6.76 2.82 3.86 9.58 1.96 10.71-2.42l-3.34.88a58 58 0 0 0 6.03 4.28 15.4 15.4 0 0 0 6.74 2.63c2.32.17 4.77-.74 5.5-3.15a8 8 0 0 0-.88-5.95 20 20 0 0 0-3.89-4.68 96 96 0 0 1-4.96-5 60 60 0 0 1-4.54-5.55 36 36 0 0 1-2.87-5.77 2 2 0 0 0-2.74-.72 2.05 2.05 0 0 0-.72 2.74Z" class="d"/><path d="M108.5 188.45a24 24 0 0 0 6.74-2.3 78 78 0 0 0 7.55-4.17c4.35-2.66 8.5-5.68 12.91-8.23a2 2 0 0 0 .92-2.26c-4.01-9.91-7.23-20.13-11.18-30.07-1.9-4.75-3.8-9.53-5.98-14.16-2.07-4.38-4.37-8.87-7.78-12.38a47 47 0 0 0-11.86-8.48 45 45 0 0 1-6.1-4.46c-1.7-1.3-4.54-3.56-6.26-.93-.66 1.02-1.12 2.41-1.82 3.69a65 65 0 0 1-2.59 4.24c-2.1 3.22-4.39 6.3-6.77 9.32A179 179 0 0 1 58.5 138c-1.88 1.77.95 4.59 2.83 2.83a169 169 0 0 0 13.17-14.1 159 159 0 0 0 12.35-16.28c.8-1.26 1.6-2.54 2.31-3.85.62-1.14 1.13-2.59 1.76-3.57l-.71.71c-.57.42-.89-.07-.16.43l.82.6 1.29.97 3.4 2.7c2.19 1.68 4.84 2.76 7.15 4.28a37 37 0 0 1 5.88 4.71 28 28 0 0 1 4.25 5.76 118 118 0 0 1 7.1 15.22q3.2 7.87 6.05 15.86c2.2 6.12 4.34 12.26 6.78 18.28l.92-2.26c-4.32 2.5-8.37 5.44-12.62 8.05-4.12 2.54-8.73 5.58-13.63 6.25a2 2 0 0 0-1.4 2.46 2.05 2.05 0 0 0 2.46 1.4M17.4 175.6a36 36 0 0 1-2.88 5.77 60 60 0 0 1-4.54 5.56 97 97 0 0 1-4.96 4.99 20 20 0 0 0-3.89 4.68 8 8 0 0 0-.87 5.96c.72 2.4 3.17 3.3 5.5 3.14a15.4 15.4 0 0 0 6.73-2.63 59 59 0 0 0 6.03-4.28l-3.34-.88c1.13 4.39 7.9 6.28 10.71 2.42 1.33-1.82 1.38-4.46 1.75-6.62.32-1.86.6-3.75 1.1-5.57.67-2.49-3.19-3.55-3.86-1.06-.76 2.81-1.1 5.76-1.62 8.63-.2 1.11-.16 2.63-1.57 2.68a2.46 2.46 0 0 1-2.65-1.54 2.03 2.03 0 0 0-3.34-.89 50 50 0 0 1-4.84 3.41c-1.54.96-3.26 2.1-5.1 2.33-.68.09-1.56.2-1.74-.56a3.5 3.5 0 0 1 .25-1.83 11 11 0 0 1 2.88-3.88 113 113 0 0 0 7.88-8.24 40 40 0 0 0 3.57-4.76 53 53 0 0 0 2.25-4.81 2.06 2.06 0 0 0-.72-2.74 2 2 0 0 0-2.74.72" class="d"/><path d="M41.74 182.59a32 32 0 0 1-6.28-1.88c-2.58-1-5.1-2.17-7.58-3.4a239 239 0 0 1-13.04-7.02l.92 2.26c3.84-9.5 6.96-19.28 10.7-28.82 1.76-4.52 3.56-9.04 5.59-13.44 1.88-4.1 3.91-8.52 6.96-11.89 3.56-3.93 8.18-6.79 12.89-9.15 2.3-1.16.27-4.61-2.02-3.46a51 51 0 0 0-12.2 8.26c-3.48 3.3-5.84 7.53-7.94 11.8-4.57 9.3-8.12 19.15-11.6 28.89-2.01 5.6-4 11.22-6.24 16.75a2 2 0 0 0 .92 2.26 231 231 0 0 0 13.67 7.32c4.81 2.34 9.9 4.8 15.25 5.51 1.07.14 2-1.02 2-2a2.05 2.05 0 0 0-2-2Zm51.29-68.78a92 92 0 0 1-16.37 22.36c-1.82 1.83 1 4.66 2.82 2.83a95 95 0 0 0 17-23.17c1.18-2.28-2.27-4.3-3.45-2.01Z" class="d"/><path d="M110.55 253.17a4 4 0 0 1-.35 1.91c-.93 1.65-4.12 2.24-6.47 2.4-9.01.56-20.14.48-29.35.48s-20.73.08-29.73-.49c-2.36-.15-5.16-.52-6.1-2.16a4 4 0 0 1-.34-1.92c1.43-21.82 5.2-80.29 5.65-88.88v-.78c11.45.04 42.7-.36 60.34-.67l.02.95c0-.54 5.24 72.7 6.33 89.16" class="f"/><path d="M52.64 109.67a33 33 0 0 1 3.35-3.02l2.15-1.79 1-.8.45-.38q.54-.4-.25.09l-1.01-.27q-.34-.6-.15-.17l.14.34.41.99.7 1.6q.68 1.5 1.47 2.94a35 35 0 0 0 3.42 5.05 45 45 0 0 0 9.91 8.56c2.14 1.45 4.15-2.02 2.02-3.45-5.28-3.57-9.67-7.71-12.57-13.46-.76-1.5-1.27-3.14-2.05-4.63a2.9 2.9 0 0 0-2.55-1.53 3.8 3.8 0 0 0-2.32 1.11 61 61 0 0 0-6.95 5.99c-1.72 1.9 1.1 4.74 2.83 2.82M106.22 164l-.28 1.01-3.65-.48c-.21-1.1-.04-.12-.02.17l.14 1.87.48 6.57 1.53 21.34q1.75 24.57 3.47 49.14l.55 7.94.09 1.37c.05 1.28-.37 1.6-1.57 1.97-2.75.86-5.84.73-8.7.83-13.72.49-27.52.36-41.26.16q-5-.06-10-.3c-1.41-.07-6.66.25-6.8-1.82a37 37 0 0 1 .3-4.89l.37-5.74 1.8-27.75c1.04-16.2 2.13-32.4 3.06-48.6l.13-2.3c.13-2.57-3.87-2.56-4 0-.77 15.07-1.86 30.12-2.82 45.17l-1.91 29.52-.77 11.84c-.16 2.34-.48 4.85 1.54 6.53 2.34 1.93 5.84 1.87 8.71 2.02 13.9.71 27.91.47 41.84.35q5.34-.04 10.68-.23c3.03-.12 6.33-.03 9.22-1.05a6.5 6.5 0 0 0 3.43-2.35 6 6 0 0 0 .73-3.72l-.23-3.36q-1.63-23.79-3.35-47.56c-.88-12.35-1.72-24.71-2.66-37.06a10 10 0 0 0-.12-1.13c-.35-1.86-2.75-1.73-3.66-.48a2 2 0 0 0-.27 1.02c-.05 2.57 3.95 2.57 4 0" class="d"/><path d="M106 144.74c1.68-5.33 7.95-6.47 11.93-7.33 8.95-2 14.98-9.18 16.42-20.4a39.9 39.9 0 0 0-16.07-37.8l-1.43 11.37c5.05 6.43 7.6 12.6 7.4 21.03-.27 11.24-6.69 15.98-9.72 18.53-2.12 1.78-4.6 2.74-6.38 5.23-1.62 2.25-2.15 4.7-2.98 10.09Zm-63.66 0c-1.67-5.83-7.76-8.85-11.74-9.65-8.96-1.86-14.99-8.53-16.42-18.95-2.14-15.49 6.55-29.91 16.79-36.57l4.66 9.33c-5.06 5.98-11.55 14.4-11.35 22.22.27 10.45 6.69 14.57 9.72 16.93a34 34 0 0 1 5.88 6.1c1.61 2.1 2.54 4.13 3.17 8.42Z" class="g"/><path d="M42.85 165.74c16.4.09 32.8-.24 49.2-.48q6.81-.1 13.62-.23c2.57-.04 2.58-4.04 0-4q-26.4.48-52.8.68-5 .04-10.01.03c-2.58-.02-2.58 3.98 0 4Zm0-9.02c16.4.1 32.8-.24 49.2-.48q6.81-.1 13.62-.23c2.57-.04 2.58-4.04 0-4q-26.4.49-52.8.68-5 .05-10.01.03c-2.58-.02-2.58 3.98 0 4Zm72.58-64.73a31.4 31.4 0 0 1 6.15 12.26 27 27 0 0 1-.42 13.95 19.4 19.4 0 0 1-5.13 7.98c-2.6 2.5-5.66 4.4-8.32 6.82-3.97 3.61-4.52 9.25-4.54 14.35-.02 2.57 3.98 2.57 4 0a27 27 0 0 1 .87-7.5 8.8 8.8 0 0 1 3.16-4.61c2.72-2.3 5.72-4.23 8.22-6.79 6.36-6.5 7.91-15.8 6.17-24.53-1.1-5.52-3.9-10.36-7.33-14.76a2 2 0 0 0-2.83 0 2.05 2.05 0 0 0 0 2.83" class="d"/><path d="M117.27 80.93c9.42 6.67 15.07 17.99 15.4 29.45.18 5.87-.75 12.07-3.9 17.13a18 18 0 0 1-11.38 7.97c-5.53 1.27-11.63 3.05-13.65 9.01-.83 2.45 3.03 3.5 3.86 1.07 1.64-4.87 7.9-5.33 12.07-6.53a22 22 0 0 0 12.55-9.5c3.34-5.35 4.5-11.9 4.47-18.13a43 43 0 0 0-4.57-19 41 41 0 0 0-12.84-14.92c-2.1-1.49-4.1 1.98-2.02 3.46ZM34.22 87.5c-7.07 6.5-13 16.1-11.76 26.05a21 21 0 0 0 4.73 11.11 23 23 0 0 0 3.13 3.06q.82.66 1.65 1.3l.63.47c.3.24.04.03-.02-.01l1 .82a28 28 0 0 1 5.52 6.24 17 17 0 0 1 2.02 6.58 2 2 0 0 0 2.46 1.4 2.05 2.05 0 0 0 1.4-2.46 22 22 0 0 0-1.76-6.32 23 23 0 0 0-3.52-4.94 34 34 0 0 0-5.07-4.76c-.89-.67-1.58-1.18-2.57-2.08-5.9-5.35-7.06-13.45-4.21-20.73a35.6 35.6 0 0 1 9.2-12.9c1.9-1.75-.94-4.57-2.83-2.83" class="d"/><path d="M29.96 77.84a41.3 41.3 0 0 0-17.94 30.14 32 32 0 0 0 3.08 17.83 21.6 21.6 0 0 0 11.27 10.1c2.66 1.06 5.5 1.39 8.1 2.6 2.48 1.15 5.39 2.68 6.85 5.07 1.34 2.2 4.8.2 3.45-2.01a16 16 0 0 0-5.7-5.16 27 27 0 0 0-7.4-3.13c-4.5-1.08-8.46-2.9-11.35-6.67-6.85-8.96-5.2-22.52-.22-31.9A36 36 0 0 1 31.98 81.3c2.14-1.41.13-4.87-2.02-3.45Z" class="d"/><path d="m79.2 150.94.05.05c5.91-2.77 12.3-5.36 15.09-4.5 4.14 1.77 5.34 10.9 4.2 14.9-.24 1.33-1.56 2.24-3.82 2.3-2.22.43-7.24-1.57-10.75-2.86l1.92 1.12c1.65.98 13 11.73 13.06 17.4.03 2.72-5.33 5.17-9.07 6.45-1.02.35-2.91-.3-3.27-1.32-2.52-7.04-7.89-18.4-12.35-21.57-4.46 3.16-9.83 14.53-12.34 21.57-.36 1.02-2.26 1.67-3.28 1.32-3.73-1.28-9.1-3.73-9.07-6.45.06-5.67 10.97-16.03 12.62-17l.74-.44c-2.98 1.08-6.17 2.1-7.82 1.79-2.26-.07-3.59-.98-3.83-2.3-1.13-4.01.07-13.14 4.2-14.9 2.78-.87 9.17 1.73 15.08 4.5.56-1.22 2.27-1.42 4.34-1.43a10 10 0 0 1 2.5.23 3 3 0 0 1 1.8 1.13" class="f"/><path d="M74.9 147.56c-1.88.02-4.12.12-5.49 1.6a7.7 7.7 0 0 0-1.49 4.35c-.36 2.94-.34 6.88 2.38 8.73a6 6 0 0 0 1.99.79 12 12 0 0 0 2.77.32 10 10 0 0 0 2.83-.48 5 5 0 0 0 2.6-1.48 7.4 7.4 0 0 0 1.2-3.52 21 21 0 0 0 .2-4.41 6.5 6.5 0 0 0-1.39-4.07c-1.4-1.6-3.6-1.83-5.6-1.83a2 2 0 0 0 0 4q.6 0 1.18.03c.09 0 .67.08.4.03s.23.05.31.08l.39.1c.34.1-.31-.18-.02-.01l.3.17c.05.03.22.17-.02-.02-.28-.2 0 .02.05.06l.38.43c-.05-.04-.37-.46-.18-.2s-.07-.22-.06-.17l.16.55.06.3c.02.1.08.53.03.17s0 .05 0 .14a15 15 0 0 1 .07 1.26q.01.84-.05 1.68l-.08.86-.02.2s.06-.43.02-.22l-.07.44a11 11 0 0 1-.35 1.4c-.11.32-.05-.02.06-.14l-.11.23c-.02.04-.11.14-.12.19 0 0 .36-.41.19-.25.1-.1.37-.23.1-.12-.14.06-.44.18-.12.07l-.48.17a10 10 0 0 1-1.09.28c-.12.03-.7.09-.19.05l-.43.03a7 7 0 0 1-.92-.04l-.4-.04c.2.02-.24-.04-.31-.05a8 8 0 0 1-.93-.23l-.16-.06c.01 0 .37.2.23.09l-.27-.15c-.32-.16.15.15.09.09l-.27-.26-.06-.06c.22.2.03-.01-.03-.12l-.08-.15c.03 0 .15.4.1.2l-.14-.41a9 9 0 0 1-.18-.85l-.03-.2s.03.4.02.17q-.01-.26-.04-.5a16 16 0 0 1-.01-1.96l.08-1.02.03-.21c.02-.28-.07.39-.02.12l.09-.52q.07-.4.18-.8l.1-.34.04-.13c.04-.2-.2.42-.1.25l.2-.38c.07-.2-.09.18-.13.16l.18-.17c.02.05-.35.19-.15.13l.23-.13c.2-.12-.17.1-.16.07s.24-.07.28-.08l.52-.12a13 13 0 0 1 1.72-.08 2 2 0 0 0 0-4Z" class="d"/><path d="M81.05 152.35a79 79 0 0 1 6.49-2.71 20 20 0 0 1 5.18-1.31h.6c.44 0 .06-.03 0-.02.08 0 .63.16.16-.02l.36.2c.1.04.4.27.08.02l.33.3c.1.1.64.73.46.48a10 10 0 0 1 1.62 3.7 17 17 0 0 1 .61 4.32 18 18 0 0 1-.06 2.14l-.05.46c.06-.4 0-.01-.02.09q-.09.44-.2.87c0 .06-.2.6-.03.2-.19.46.11-.1-.07.1-.22.25.36-.2-.14.13l-.35.18a5 5 0 0 1-.86.2l-.98.1c.62-.07.07-.02-.07-.02l-.79-.04c-.34-.03.5.09-.08-.01l-.47-.09q-1.13-.24-2.25-.58c-3.01-.92-5.91-2.42-8.99-3.1a2.05 2.05 0 0 0-2.46 1.4 2 2 0 0 0 1.4 2.46 30 30 0 0 1 3.88 1.3c1.73.65 3.46 1.3 5.22 1.83a14 14 0 0 0 4.76.83 10 10 0 0 0 3-.5 5 5 0 0 0 2.6-2 10 10 0 0 0 1-4.9 24 24 0 0 0-.54-5.55c-.67-3.16-2.33-7.44-5.84-8.31-2.23-.56-4.8.21-6.9.9a79 79 0 0 0-8.62 3.51 2 2 0 0 0-.72 2.74 2.05 2.05 0 0 0 2.74.72ZM70.8 148.9a88 88 0 0 0-7.74-3.22 19 19 0 0 0-6.35-1.36c-3.91.06-5.99 3.84-6.95 7.17a20 20 0 0 0-.4 10.44c.64 2.3 2.62 3.42 4.89 3.7a14 14 0 0 0 4.76-.36 57 57 0 0 0 5.85-1.94 35 35 0 0 1 4.5-1.55c2.52-.55 1.46-4.4-1.05-3.85-2.67.59-5.21 1.85-7.8 2.71a38 38 0 0 1-3.26.93l-.47.1c-.14.02-.55.08-.18.03a7 7 0 0 1-.8.05l-.42-.02c.72.04-.17-.02-.41-.04a5 5 0 0 1-1.07-.2c-.37-.11.3.2-.26-.1-.06-.02-.49-.36-.24-.15-.35-.3.05.23-.14-.17.16.33 0-.01-.02-.11l-.18-.8-.08-.42c.07.4 0 0 0-.1q-.06-.54-.08-1.08a21 21 0 0 1 .05-2.23 14 14 0 0 1 .26-2.03 14 14 0 0 1 1.36-4.11q.23-.43.5-.83c.2-.29-.3.33.1-.1l.3-.34.31-.3c.4-.36-.2.12.07-.05q.17-.12.36-.2.3-.17-.03 0l.25-.05c.28.08-.46.01.09 0h.6a5 5 0 0 1 1.06.13 25 25 0 0 1 3.23.88 72 72 0 0 1 7.37 3.02 2.06 2.06 0 0 0 2.74-.72 2 2 0 0 0-.72-2.74Z" class="d"/><path d="M61.18 160.62c-2.68 1.64-4.98 4.38-7.02 6.72-2.62 3-5.74 6.67-6.45 10.71-.94 5.42 5.7 7.99 9.78 9.47 2.4.86 5.37 0 6.36-2.5.92-2.35 1.8-4.7 2.86-7a74 74 0 0 1 4.23-8 20 20 0 0 1 4.33-5.39 2.06 2.06 0 0 0 .72-2.73 2 2 0 0 0-2.74-.72c-3.44 2.52-5.73 6.51-7.7 10.21a91 91 0 0 0-3.17 6.6q-.72 1.66-1.4 3.34a9 9 0 0 1-.9 2.34c-.55.5-1.27.08-1.84-.13a28 28 0 0 1-3.3-1.46c-1.3-.68-3.49-1.89-3.34-3.11-.04.36.1-.45.13-.56a9 9 0 0 1 .35-1.07 17 17 0 0 1 1.13-2.13 35 35 0 0 1 3.3-4.49 62 62 0 0 1 4.27-4.53 41 41 0 0 1 2.3-2.05c-.49.38-.01.01.12-.07 2.2-1.34.19-4.8-2.02-3.45" class="d"/><path d="m84.88 163.68.33.23c-.55-.37.05.05.18.16q.76.65 1.5 1.33a66 66 0 0 1 3.66 3.72c2.32 2.55 5.07 5.68 6.1 8.84a8 8 0 0 1 .27 1l.06.3a3.3 3.3 0 0 1-1.33 1.58 17 17 0 0 1-2.87 1.65 13 13 0 0 1-3.43 1.39 1 1 0 0 1-1.02-.48 27 27 0 0 1-1.3-3.32q-1.4-3.42-3.04-6.73c-2.18-4.34-4.71-9.24-8.72-12.17a2 2 0 0 0-2.74.72 2.05 2.05 0 0 0 .72 2.74 19 19 0 0 1 3.78 4.53 66 66 0 0 1 3.99 7.2 88 88 0 0 1 3.13 7.22 7 7 0 0 0 1.67 3.08 5.3 5.3 0 0 0 3.83 1.2 14 14 0 0 0 3.82-1.32 24 24 0 0 0 3.8-1.98c1.91-1.28 3.82-3.08 3.66-5.58-.26-4.08-3.42-7.86-5.93-10.84a65 65 0 0 0-4.8-5.12 21 21 0 0 0-3.3-2.8c-2.2-1.35-4.22 2.1-2.03 3.45ZM59.53 24.15c-3-1.64-4.03-5.68-3.99-8.86.04-3.22 1.15-7.2 3.66-9.39a7.75 7.75 0 0 1 12.83 4.91 2.06 2.06 0 0 0 2 2 2 2 0 0 0 2-2A11.9 11.9 0 0 0 61.99.25C54.55 1.7 50.97 10.03 51.61 17c.38 4.07 2.13 8.55 5.9 10.61 2.26 1.23 4.28-2.22 2.02-3.45Z" class="d"/><path d="M65.26 22.55a12 12 0 0 1-1.1-1.7q-.22-.43-.42-.88c.16.36-.02-.05-.07-.2l-.19-.53q-.15-.47-.26-.95l-.1-.48c-.04-.17-.1-.7-.06-.26a12 12 0 0 1-.03-2.07c.03-.4-.06.3.02-.09l.09-.45a10 10 0 0 1 .3-.96c.1-.26-.16.3-.02.06l.1-.2.2-.35c.18-.3-.25.23 0 0l.13-.14c.08-.08.25-.14.03-.04-.3.13.12-.07.19-.11l.16-.09c.13-.11-.18.08-.21.08l.33-.11c.1-.03.53-.07.2-.06h.58c.36 0-.4-.09-.05-.01l.42.1.42.14c-.02 0-.37-.2-.2-.08l.29.14.38.23c.37.23-.18-.2.05.03l.32.31.13.15c.2.22-.04-.1-.07-.1.08.01.28.43.33.5s.08.16.12.23c.03.06.2.43.07.13a2.05 2.05 0 0 0 2.46 1.4 2 2 0 0 0 1.4-2.46 7 7 0 0 0-3.5-4.05 6.2 6.2 0 0 0-4.84-.3c-3.8 1.55-4.31 6.27-3.53 9.8a14 14 0 0 0 2.48 5.38 2.06 2.06 0 0 0 2.74.72 2 2 0 0 0 .71-2.74Zm25.75 5.05c3.25-1.77 5.1-5.47 5.69-9a19.6 19.6 0 0 0-1.6-11.35C92.22.9 84.23-2.15 78.11 1.7a12.3 12.3 0 0 0-5.61 9.11 2 2 0 0 0 2 2 2.05 2.05 0 0 0 2-2 7.75 7.75 0 0 1 12.83-4.9c2.46 2.13 3.56 6.02 3.65 9.17.08 3.24-.91 7.39-3.99 9.07-2.26 1.23-.24 4.68 2.02 3.45" class="d"/><path d="M81.15 14.84q.13-.27.28-.52c.06-.1.26-.29.27-.4 0 0-.26.3-.11.14l.12-.14.37-.36c.25-.25-.3.19 0 0q.14-.1.32-.2l.33-.18c.29-.15-.38.12.05 0q.35-.11.72-.18c.2-.05-.23.03-.23.03.03.01.14-.01.18-.01h.42l.24.02c-.01 0-.43-.1-.24-.03l.35.09.15.04c-.3-.08.08.05.18.12l.15.1c.17.1-.17-.11-.17-.13l.26.26c.25.23-.17-.31 0 0q.13.2.24.41c.03.06.19.35.06.1-.1-.21 0 0 .02.05l.15.44q.14.48.23.98c.05.24-.02-.15-.02-.15l.03.24.03.47a10 10 0 0 1-.02 1.03l-.04.38c.03-.27-.03.22-.05.3a12 12 0 0 1-.6 2.12l-.08.22c-.1.28.14-.29 0-.03l-.23.52a12 12 0 0 1-1.25 1.99 2 2 0 0 0 .71 2.73 2.06 2.06 0 0 0 2.74-.71 13.4 13.4 0 0 0 2.63-10.18 6.7 6.7 0 0 0-2.63-4.5 5.8 5.8 0 0 0-4.7-.67 6.8 6.8 0 0 0-4.31 3.58 2 2 0 1 0 3.45 2.02Z" class="d"/><path d="M68.13 20c.09.58 0-.07 0-.2v-.57c0-.14.13-.75 0-.2q.05-.27.13-.56c.07-.3.11-.37.18-.56-.17.5.05-.09.1-.2l.32-.52q.2-.27-.03.03l.2-.24.45-.46.26-.22q-.28.2 0 0a9 9 0 0 1 1.28-.72c-.32.14.4-.13.46-.15q.42-.14.83-.23a8 8 0 0 1 1.61-.23 9 9 0 0 1 3.56.31 3 3 0 0 1 1.14.52c.07.04.65.48.34.21l.5.48c.07.07.48.62.23.24q.18.27.34.56l.15.29q-.14-.35-.01-.03.1.3.18.62c.03.1.12.79.07.26q.03.31.04.64c0 .33-.02.43-.03.65.03-.53-.04.16-.06.27a2.05 2.05 0 0 0 1.4 2.46 2 2 0 0 0 2.46-1.4 8.1 8.1 0 0 0-5.89-9.69c-4.38-1.23-10.17-.17-12.9 3.74a8 8 0 0 0-1.18 5.95 2 2 0 0 0 2.46 1.4 2.05 2.05 0 0 0 1.4-2.46Z" class="d"/></svg>
