<svg xmlns="http://www.w3.org/2000/svg" fill="currentColor" viewBox="0 0 32 32"><path d="M20.86 11.09a2.85 2.85 0 0 1 3 1.25 1 1 0 0 0 1.59-1.21 4.8 4.8 0 0 0-5.13-2 3 3 0 0 0-2.11 2.14 3.2 3.2 0 0 0 .79 3.11l4.27 4.26a1.2 1.2 0 0 1 .34.87 1.1 1.1 0 0 1-.41.81 2.74 2.74 0 0 1-4.1-.65 1 1 0 1 0-1.6 1.2 5 5 0 0 0 4 2.13 4.7 4.7 0 0 0 3-1.14 3.2 3.2 0 0 0 1.12-2.26 3.1 3.1 0 0 0-.92-2.37L20.46 13a1.2 1.2 0 0 1-.3-1.15 1 1 0 0 1 .7-.76"/><path d="M16 0a16 16 0 1 0 16 16A16 16 0 0 0 16 0m0 30a14 14 0 1 1 14-14 14 14 0 0 1-14 14"/><path d="M10.5 9C7.47 9 5 12.14 5 16s2.47 7 5.5 7 5.5-3.14 5.5-7-2.47-7-5.5-7m0 12C8.6 21 7 18.71 7 16s1.6-5 3.5-5 3.5 2.29 3.5 5-1.6 5-3.5 5"/></svg>
