<svg xmlns="http://www.w3.org/2000/svg" viewBox="0 -40.83 272.075 272.075"><defs><style>.a{fill:#fff}.d{fill:#211715}</style></defs><path d="m32.38 102.99-.03-91.85a8.7 8.7 0 0 1 8.68-8.68c37.39 0 145.73-.05 190.06-.06a8.7 8.7 0 0 1 8.69 8.68l.02 120.27c6.87 9.65 21.6 29.95 28.8 42.25a8 8 0 0 1 1.09 4.03c0 1.26-.03 2.78-.03 4.34a6.03 6.03 0 0 1-6.03 6.02H7.52a5 5 0 0 1-5.03-5.02c0-7.75-.03 2.28-.03-5.33a8 8 0 0 1 1.1-4.05c7.28-12.43 22.07-33.38 28.83-42.88z" class="a"/><path d="M225.56 137.23a5.3 5.3 0 0 1 4.3 2.25c3.27 4.67 6.78 9.83 9.9 14.85a2.53 2.53 0 0 1-2.14 3.87H34.53a2.53 2.53 0 0 1-2.16-3.85 333 333 0 0 1 9.93-14.89 5.2 5.2 0 0 1 4.3-2.23z" style="fill:#cfcfcf"/><path d="M46.08 15.15c0 29.89.04 109.88.04 109.88l179.96-.06-.05-109.88z" class="a"/><path d="m108.02 60.76-.01 31.96a8.4 8.4 0 0 0 8.41 8.42l39.3.02a8.4 8.4 0 0 0 8.42-8.41V60.78a8.4 8.4 0 0 0-8.4-8.42l-39.3-.01a8.4 8.4 0 0 0-8.42 8.4" style="fill:#ffda71"/><path d="m34.78 102.99-.02-53V13.21a11 11 0 0 1 .52-4.63 6.4 6.4 0 0 1 3.18-3.18c2-.9 4.54-.54 6.68-.54h22.58l38.94-.01 43.7-.02 42.14-.02 34.38-.01c2.5 0 5.3-.4 7.53.94a6.2 6.2 0 0 1 2.64 3.33 15 15 0 0 1 .33 4.68v73.48l.01 24.9v16.8c0 .8-.05 1.62 0 2.42a5 5 0 0 0 1.25 2.5c8.65 12.11 17.45 24.16 25.35 36.79.86 1.37 1.74 2.75 2.53 4.17 1.12 2.01.75 4.43.73 6.64a3.9 3.9 0 0 1-1.8 3.65 5 5 0 0 1-2.67.5H9.9c-1.2 0-2.77.24-3.81-.42-1.8-1.15-1.09-3.55-1.21-5.35-.18-2.55-4.1-3.44-4.72-.64a15 15 0 0 0-.1 1.5h4.8a11.6 11.6 0 0 1 .4-5.18 46 46 0 0 1 3.98-6.63 504 504 0 0 1 9.63-14.61q4.87-7.17 9.86-14.25l4.21-5.96a10 10 0 0 0 1.76-2.71c.38-1.37.09-3.2.09-4.61zc0-3.1-4.8-3.1-4.8 0L30 130.7l.33-1.21c-9.44 13.25-18.94 26.55-27.4 40.46-1.34 2.21-2.62 4.32-2.83 6.97a21 21 0 0 0-.03 3.76 2.4 2.4 0 0 0 4.8 0c.05-.4.2-1.45-.07-.22l-4.71-.64c.05.79 0 1.6 0 2.39a8.2 8.2 0 0 0 1.95 5.75c1.9 2.12 4.44 2.42 7.1 2.42h251.54a19 19 0 0 0 5.36-.35 8.6 8.6 0 0 0 4.78-3.67c1.24-2 1.23-4.17 1.25-6.44.03-2.69-.05-5.13-1.4-7.54-.84-1.52-1.8-3-2.72-4.47q-3.13-4.96-6.42-9.8a967 967 0 0 0-14.15-20.27l-5.5-7.71.33 1.2-.02-46.9-.01-50.3v-21.9c0-3.81-1.06-7.33-4.15-9.78C235.21.22 232.08 0 228.63 0l-33.2.01-41.23.02-43.28.01-39.37.01-29.59.01c-3.53 0-6.84 1.01-9.23 3.75-2.68 3.08-2.78 6.6-2.78 10.47V37.9l.03 52.97V103c0 3.09 4.8 3.1 4.8 0" class="d"/><path d="m43.68 15.15.02 50.36.02 49.4v10.12a2.44 2.44 0 0 0 2.4 2.4l26.77-.01 39.11-.01 43.5-.02 40.03-.01h30.53a2.43 2.43 0 0 0 2.4-2.4V81.41l-.03-45.53v-20.8a2.44 2.44 0 0 0-2.4-2.4h-15.5l-38.09.02-48 .01-45.56.01-30.7.01h-2.1c-3.1 0-3.1 4.8 0 4.8h28l44.53-.02 48.37-.01 39.87-.02h12.88c2 0 4.05.14 6.04 0h.26l-2.4-2.4.02 39.86.02 46.57v23.46l2.4-2.4h-26.34l-38.9.02-43.48.01-40.22.02H46.12l2.4 2.4v-29l-.03-55.44-.01-25.44c0-3.1-4.8-3.1-4.8 0" class="d"/><path d="M122.51 52.98a13.73 13.73 0 0 1 27.14.02 2.4 2.4 0 0 0 2.95 1.68 2.46 2.46 0 0 0 1.68-2.95 18.2 18.2 0 0 0-12.05-14.19 19 19 0 0 0-19.38 4.4 18.3 18.3 0 0 0-4.97 9.77 2.47 2.47 0 0 0 1.67 2.96 2.4 2.4 0 0 0 2.96-1.68Z" class="d"/><path d="M105.62 60.76v29.3a23 23 0 0 0 .28 5.16 10.8 10.8 0 0 0 5.44 7.05c3 1.55 6.3 1.27 9.57 1.27h31.96c3.2 0 6.31.02 9.03-1.94a11 11 0 0 0 4.59-8c.17-1.82.05-3.7.05-5.54V64.53a36 36 0 0 0-.17-5.6 10.8 10.8 0 0 0-5-7.38c-2.7-1.68-5.67-1.6-8.72-1.6H122.8c-2.97 0-6.31-.41-9.21.37a11 11 0 0 0-6.87 5.65 11 11 0 0 0-1.13 4.78c-.06 3.1 4.74 3.1 4.8 0a6.1 6.1 0 0 1 3.36-5.4c2.12-1.04 4.9-.6 7.2-.6h27.24a75 75 0 0 1 8.2.04 6.1 6.1 0 0 1 4.86 3.62 8 8 0 0 1 .47 3.24v5.37l-.01 21.27c0 2.73.54 5.91-1.3 8.21-1.5 1.89-3.57 2.26-5.84 2.25-12.72 0-25.46.25-38.18-.01a6.1 6.1 0 0 1-5.56-3.69 12 12 0 0 1-.45-4.54v-5.9l.01-23.86c.02-3.08-4.78-3.09-4.78 0" class="d"/><path d="M143.6 71.82a7.52 7.52 0 0 0-15.04 0c0 3.03 1.23 5.33 3.34 6.57a1.1 1.1 0 0 1 .53.94v6.23a3.6 3.6 0 0 0 3.58 3.6h.11a3.6 3.6 0 0 0 3.6-3.6v-6.2a1.1 1.1 0 0 1 .53-.95c2.15-1.24 3.34-3.54 3.34-6.59m84.2 68.88q3.08 4.4 6.05 8.87 1.44 2.18 2.85 4.39c.26.4.93 1.25 1.05 1.54q.1.29-.14.34c-.07.02-.6-.03-.78-.03H34.54c-.01 0-.17-.27-.14 0-.04-.39.52-1 .8-1.44a298 298 0 0 1 6.06-9.19q1.44-2.1 2.91-4.2c.22-.32.59-1.15.94-1.32a3 3 0 0 1 .97-.02H214.2c3.09 0 3.1-4.8 0-4.8H47.99c-2.21 0-4.66-.29-6.34 1.48a34 34 0 0 0-2.94 4.12q-1.62 2.33-3.2 4.69-1.48 2.19-2.91 4.4c-.95 1.47-2.31 3.06-2.8 4.76a5 5 0 0 0 4.75 6.32c1.48.05 2.98 0 4.46 0H237.3a5.03 5.03 0 0 0 5.25-4.8c.02-1.66-.86-2.93-1.71-4.27q-1.4-2.21-2.84-4.39-2.97-4.48-6.06-8.87a2.46 2.46 0 0 0-3.29-.86 2.4 2.4 0 0 0-.86 3.28m21.06 31.16H31.08c-2.95 0-5.9-.06-8.85 0h-.38c-3.09 0-3.1 4.8 0 4.8h217.78c2.94 0 5.9.06 8.84 0h.39c3.08 0 3.09-4.8 0-4.8" class="d"/></svg>
