<svg xmlns="http://www.w3.org/2000/svg" viewBox="0 -21 254.889 254.889"><defs><style>.b{fill:#211715}</style></defs><path d="M158.6 210.48h8.66c3.78 0 2.07-9.22 1.43-10.62s-1.92-2.29-4.13-2.7c-7.64-1.46-9.54-4-10.17-11.32-.27-3.13-.55-5.08-.7-8.2-.12-2.18-.3-4.64-.66-8.1l-51.32.01c-.35 3.46-.55 5.91-.65 8.1-.16 3.12-.44 5.06-.71 8.2-.64 7.3-2.53 9.85-10.17 11.3-2.2.42-3.48 1.32-4.13 2.71s-2.22 10.6 1.67 10.6zM15.4 2.57h-6a7 7 0 0 0-7 7l.05 126.93 249.95-.1-.05-126.92a7 7 0 0 0-7-7z" style="fill:#fff"/><path d="M113.47 56.57a13.5 13.5 0 0 1 8.56-12.68 14.2 14.2 0 0 1 15.86 4.06 14 14 0 0 1 2.95 8.62c.03 3.09 4.83 3.1 4.8 0a18.4 18.4 0 0 0-11.94-17.26c-7.22-2.69-16.02-.53-20.88 5.51a19 19 0 0 0-4.15 11.75c-.03 3.1 4.77 3.1 4.8 0" class="b"/><path d="m99.1 62.38-.01 31.97a8.4 8.4 0 0 0 8.41 8.42l39.3.01a8.4 8.4 0 0 0 8.41-8.4l.01-31.97a8.4 8.4 0 0 0-8.4-8.42l-39.3-.02a8.4 8.4 0 0 0-8.42 8.41" style="fill:#ffda71"/><path d="M96.7 62.38V91.7a23 23 0 0 0 .28 5.15 10.8 10.8 0 0 0 5.44 7.06c3 1.55 6.3 1.26 9.57 1.26h10.5l21.46.01c3.2 0 6.31.02 9.03-1.94a11 11 0 0 0 4.59-8c.17-1.83.05-3.71.05-5.54V66.16a36 36 0 0 0-.17-5.6 10.8 10.8 0 0 0-5-7.39c-2.7-1.67-5.67-1.59-8.72-1.59h-29.84c-2.97 0-6.31-.42-9.2.36a11 11 0 0 0-6.87 5.66 11 11 0 0 0-1.12 4.78c-.06 3.1 4.74 3.1 4.8 0a6.1 6.1 0 0 1 3.36-5.4c2.12-1.05 4.9-.6 7.19-.6h27.25a75 75 0 0 1 8.2.03 6.1 6.1 0 0 1 4.86 3.63 8 8 0 0 1 .46 3.24v26.64c0 2.73.53 5.9-1.3 8.2-1.51 1.9-3.58 2.26-5.85 2.26-12.71 0-25.46.25-38.17-.02a6.1 6.1 0 0 1-5.56-3.68 12 12 0 0 1-.45-4.54V62.37c.01-3.08-4.79-3.08-4.79.01" class="b"/><path d="M134.67 73.45a7.52 7.52 0 0 0-15.03 0c0 3.02 1.23 5.32 3.34 6.57a1.1 1.1 0 0 1 .53.93v6.23a3.6 3.6 0 0 0 3.58 3.6h.11a3.6 3.6 0 0 0 3.6-3.6v-6.2a1.1 1.1 0 0 1 .53-.94c2.14-1.24 3.34-3.55 3.34-6.6" class="b"/><path d="M7.19 169.21a7 7 0 0 1-4.73-6.62V136.5l249.94-.09v26.09a7 7 0 0 1-6.98 7l-235.96.09a7 7 0 0 1-2.28-.38" style="fill:#cfcfcf"/><path d="M2.45 138.9h25.69l26.58-.02h32.1l35.12-.02 35.51-.02h33.43l28.5-.02h33.02c3.09 0 3.1-4.8 0-4.8h-27.13l-27.04.01-32.39.01-35.22.02H95.17l-33.18.02-28.08.01-20.49.01H2.45c-3.09 0-3.1 4.8 0 4.8m148.34 32.25c.48 5.12.74 10.25 1.26 15.37.35 3.37 1.02 7 3.63 9.42a13 13 0 0 0 4.52 2.57 23 23 0 0 0 2.68.75 9 9 0 0 1 2.85.8 3 3 0 0 1 .61.52c.1.15.16.35.27.5-.03-.05-.17-.62-.14-.3.05.47.28 1 .38 1.46a15 15 0 0 1 .38 3.95q0 .54-.07 1.08c-.04.4.07-.35 0 .03l-.12.52-.12.39c.17-.48.05-.16.01-.06l-.09.16q-.18.27-.01.03c-.02-.05-.06-.05.19-.18-.35.18.75-.05.2-.07h-17.87l-37.89-.01h-23.7c-.38.01-.02.08.16.07-.09 0 .44.26.09.07-.45-.24.3.1 0 0-.07-.03-.28-.58-.05-.02l-.13-.39a5 5 0 0 1-.25-1.74 19 19 0 0 1 .07-2.1c.01-.15.14-1.2.08-.78q.07-.52.18-1.04a13 13 0 0 0 .34-1.37c.02-.17.37-.4-.13.3.1-.15.16-.34.27-.5a3 3 0 0 1 .6-.52 9 9 0 0 1 2.85-.8 22 22 0 0 0 2.82-.79 10.9 10.9 0 0 0 6.98-6.63 22 22 0 0 0 1.05-5.48c.26-2.58.54-5.17.7-7.76q.22-3.72.55-7.44a2.4 2.4 0 0 0-2.4-2.4 2.45 2.45 0 0 0-2.4 2.4c-.5 5.23-.7 10.47-1.3 15.69a19 19 0 0 1-.4 2.26 16 16 0 0 1-.52 1.68c.17-.4-.13.24-.14.26a4.7 4.7 0 0 1-2.42 2.36 24 24 0 0 1-5.24 1.52 7.4 7.4 0 0 0-5.19 3.8 17 17 0 0 0-1.05 8.64c.38 3.08 1.97 5.5 5.3 5.5h77.48c1.62 0 3.23.07 4.51-1.15 2.45-2.32 1.96-6.58 1.5-9.6a12 12 0 0 0-.93-3.48 7.6 7.6 0 0 0-5.56-3.8 19 19 0 0 1-4.94-1.5 9 9 0 0 1-.9-.56l-.04-.03-.48-.45c-.1-.1-.58-.7-.32-.33a8 8 0 0 1-.62-1.04 2 2 0 0 1-.26-.62q-.18-.53-.32-1.1a18 18 0 0 1-.45-2.55c-.26-2.54-.53-5.09-.7-7.64-.18-2.63-.33-5.26-.58-7.88a2.47 2.47 0 0 0-2.4-2.4 2.4 2.4 0 0 0-2.4 2.4Z" class="b"/><path d="M111.89 197.01h30.56c3.1 0 3.1-4.8 0-4.8H111.9c-3.09 0-3.1 4.8 0 4.8M0 9.57l.02 48.17.02 54.97.01 27v19.04a26 26 0 0 0 .3 6.18 9.5 9.5 0 0 0 9.1 7.06c2.07.04 4.14 0 6.2 0h14.68l36.54-.02 42.55-.02 44.26-.01 41.69-.02 34.8-.01h13.47a16 16 0 0 0 4.27-.34 9.5 9.5 0 0 0 5.06-3.51c2.5-3.36 1.83-7.88 1.83-11.82l-.02-53.27-.02-54.48-.01-24.65V12.69a22 22 0 0 0-.34-5.7 9.5 9.5 0 0 0-3.51-5.07C247.52-.6 242.74.09 238.73.09h-11.55l-30.9.01-38.01.02-41.22.01-40.52.02H40.64L13.3.18c-2.14 0-4.5-.24-6.56.38A9.6 9.6 0 0 0 0 9.57c-.07 3.1 4.73 3.09 4.8 0a4.7 4.7 0 0 1 1.86-3.7 5.5 5.5 0 0 1 3.55-.9h17.98l32.18-.01 38.24-.02 40.77-.01 39.26-.01 34.23-.02 25.56-.01h4.5c1.9 0 3.89-.22 5.43 1.12a5 5 0 0 1 1.59 4.1V26.5l.02 50.86.03 54.21.01 25.22c0 2 .14 4.07 0 6.07a4.6 4.6 0 0 1-2 3.45c-1.82 1.26-4.54.8-6.67.8h-30.11l-38.49.02-42.97.02-43.07.01-39.25.02-31.38.01H9.8a4.8 4.8 0 0 1-3.71-1.46c-1.15-1.22-1.24-2.62-1.24-4.22v-24.99l-.03-53.83-.02-51.58V9.57c0-3.09-4.8-3.1-4.8 0" class="b"/></svg>
