<svg xmlns="http://www.w3.org/2000/svg" fill="none" viewBox="0 0 515 165"><circle cx="101.5" cy="22.5" r="20" stroke="currentColor" stroke-width="2"/><circle cx="101.5" cy="142.5" r="20" stroke="currentColor" stroke-width="2"/><circle cx="21.5" cy="102.5" r="20" stroke="currentColor" stroke-width="2"/><circle cx="141.5" cy="102.5" r="20" stroke="currentColor" stroke-width="2"/><circle cx="193.5" cy="82.5" r="20" stroke="currentColor" stroke-width="2"/><circle cx="313.5" cy="82.5" r="20" stroke="currentColor" stroke-width="2"/><circle cx="253.5" cy="22.5" r="20" stroke="currentColor" stroke-width="2"/><circle cx="253.5" cy="142.5" r="20" stroke="currentColor" stroke-width="2"/><path stroke="currentColor" stroke-width="2" d="M1.5 102.5a20 20 0 0 1 20-20h120a20 20 0 1 1 0 40h-120a20 20 0 0 1-20-20Z"/><path stroke="currentColor" stroke-width="2" d="M101.5 162.5a20 20 0 0 1-20-20v-120a20 20 0 1 1 40 0v120a20 20 0 0 1-20 20Z"/><path stroke="currentColor" stroke-width="2" d="M7.64 116.5a20 20 0 0 1 0-28.29L87.21 8.64a20 20 0 0 1 28.29 28.29L35.93 116.5a20 20 0 0 1-28.29 0Z"/><circle cx="453.5" cy="22.5" r="20" stroke="currentColor" stroke-width="2"/><circle cx="453.5" cy="142.5" r="20" stroke="currentColor" stroke-width="2"/><circle cx="373.5" cy="102.5" r="20" stroke="currentColor" stroke-width="2"/><circle cx="493.5" cy="102.5" r="20" stroke="currentColor" stroke-width="2"/><path stroke="currentColor" stroke-width="2" d="M353.5 102.5a20 20 0 0 1 20-20h120a20 20 0 1 1 0 40h-120a20 20 0 0 1-20-20Z"/><path stroke="currentColor" stroke-width="2" d="M453.5 162.5a20 20 0 0 1-20-20v-120a20 20 0 1 1 40 0v120a20 20 0 0 1-20 20Z"/><path stroke="currentColor" stroke-width="2" d="M359.64 116.5a20 20 0 0 1 0-28.29l79.57-79.57a20 20 0 1 1 28.29 28.29l-79.57 79.57a20 20 0 0 1-28.29 0Z"/><circle cx="253.5" cy="82.5" r="80" stroke="currentColor" stroke-width="2"/><circle cx="253.5" cy="82.5" r="40" stroke="currentColor" stroke-width="2"/><path stroke="currentColor" stroke-width="2" d="M.5 1.5h513m-513 162h513"/></svg>
