<svg xmlns="http://www.w3.org/2000/svg" fill="none" viewBox="0 0 24 24"><path stroke="currentColor" stroke-width="1.5" d="M2 12.03c0 5.14 3.87 9.38 8.85 9.96.73.08 1.44-.23 1.97-.76.65-.65.65-1.71 0-2.37-.53-.52-.95-1.3-.56-1.93 1.58-2.51 9.74 3.25 9.74-4.9C22 6.49 17.52 2 12 2S2 6.49 2 12.03Z"/><circle fill="none" cx="17.5" cy="11.5" r="1.5" stroke="currentColor" stroke-width="1.5"/><circle fill="none" cx="6.5" cy="11.5" r="1.5" stroke="currentColor" stroke-width="1.5"/><path stroke="currentColor" stroke-width="1.5" d="M11 7a1.5 1.5 0 1 1-3 0 1.5 1.5 0 0 1 3 0Zm5 0a1.5 1.5 0 1 1-3 0 1.5 1.5 0 0 1 3 0Z"/></svg>
