<svg xmlns="http://www.w3.org/2000/svg" fill="currentColor" viewBox="0 0 32 32"><path d="M5.4 31.49a5.2 5.2 0 0 1-3.7-1.6 5.94 5.94 0 0 1 0-8.37L19.65 2.46c2.8-2.8 7.08-2.55 10.21.58a7.7 7.7 0 0 1 2.16 5.56 8 8 0 0 1-2.26 5.53L16.2 28.57c-.38.4-1 .42-1.41.04s-.42-1.01-.04-1.41l13.58-14.46a6.1 6.1 0 0 0 .12-8.28c-1.92-1.93-5.05-2.93-7.37-.6L3.14 22.9a3.93 3.93 0 0 0-.02 5.56 3.2 3.2 0 0 0 2.46 1 4 4 0 0 0 2.58-1.28L22.44 13c.52-.52 1.56-1.79.5-2.85-.6-.6-1.02-.56-1.16-.55q-.6.05-1.33.79L9.7 21.81a1 1 0 0 1-1.46-1.37L19.01 8.98a4.2 4.2 0 0 1 2.6-1.39c.68-.06 1.7.09 2.75 1.13 1.54 1.56 1.35 3.83-.48 5.67L9.6 29.59a6 6 0 0 1-4.2 1.9"/></svg>
