<svg xmlns="http://www.w3.org/2000/svg" fill="currentColor" style="fill-rule:evenodd;clip-rule:evenodd;stroke-linejoin:round;stroke-miterlimit:2" viewBox="0 0 64 64"><path id="Icons" d="M-128-256h1280v800H-128z" style="fill:none"/><g id="Icons1"><g id="shredder"><path d="M50.11 16.04a6 6 0 0 1 6 6v12a6 6 0 0 1-6 6H14.12a6 6 0 0 1-6-6v-12a6 6 0 0 1 6-6zm-1 4h-34a3 3 0 0 0-2.99 3v10.01a3 3 0 0 0 3 3h34a3 3 0 0 0 2.99-3V23.03a3 3 0 0 0-3-2.99"/><path d="M20.1 30.04h28v26h-4v-22h-3v22h-4v-22h-3v22h-4v-22h-3v22h-4v-22h-3v22h-4v-26zm-4-22h32v10.41h-4v-6.4h-24v6.4h-4z"/></g></g></svg>
