<svg xmlns="http://www.w3.org/2000/svg" fill="none" viewBox="0 0 24 24"><path fill="currentColor" fill-rule="evenodd" d="M10.73 1.93c1.76-.9 3.84-.9 5.6 0 .87.45 1.66 1.24 2.97 2.57l.12.11.11.12c1.32 1.33 2.1 2.12 2.55 3a6.2 6.2 0 0 1 0 5.63c-.44.88-1.23 1.68-2.55 3l-.11.12-3.72 3.75c-.31.31-.52.52-.73.69a4 4 0 0 1-4.87 0q-.28-.24-.73-.7l-.09-.08a8 8 0 0 1-.68-.74 4.05 4.05 0 0 1 0-4.9q.23-.28.68-.73l.05-.05 2.83-2.85a.75.75 0 0 1 1.06 1.05l-2.83 2.86c-.37.37-.5.51-.6.63a2.55 2.55 0 0 0 0 3.08c.1.12.23.26.6.64.37.37.5.5.63.6.9.7 2.14.7 3.03 0 .12-.1.26-.23.63-.6l3.67-3.7c1.47-1.49 2.07-2.1 2.4-2.74a4.8 4.8 0 0 0 0-4.28c-.33-.64-.93-1.26-2.4-2.74s-2.08-2.08-2.7-2.4a4.6 4.6 0 0 0-4.23 0c-.63.32-1.25.92-2.71 2.4L4.98 9.43a13 13 0 0 0-1.4 1.5 4.75 4.75 0 0 0 0 5.4c.24.33.58.67 1.4 1.5A.75.75 0 1 1 3.9 18.9l-.06-.07a14 14 0 0 1-1.5-1.64 6.25 6.25 0 0 1 0-7.1c.32-.45.76-.9 1.5-1.64l.06-.06L7.64 4.6l.12-.11c1.31-1.33 2.1-2.12 2.97-2.57" clip-rule="evenodd"/></svg>
