<svg xmlns="http://www.w3.org/2000/svg" viewBox="0 -65.27 416.321 416.321"><defs><style>.b{fill:#211715}.c{fill:#fff}.d{fill:#85807f}.f{fill:#c6c6c6}</style></defs><path d="m318.85 152-.07.21c-6.71 20.07-20.72 53.55-25.88 64.97l-2.94.68c-3.07-7.6-4.69-11.49-7.44-18.8-5.42-14.46-14.34-52.95-15.4-64.89-3.82-4.12-3.87-3.87-4.52-3.63-9.61 3.3-22.75 8.5-30.25 13.24a29 29 0 0 0-8.64 8.3c-1.66 2.67-5.08 8.93-6.15 12.27-4.6 14.89-7.5 27.23-10.65 48.45-2.29 15.35-2.85 26.15-.77 36.76a24.6 24.6 0 0 0 7.89 13.54c7.54 6.9 19.02 7.77 27.83 3.41 1.29 3.02 2.64 6.28 3.99 9.6a11.6 11.6 0 0 0 10.73 7.24h144.04c7.44-5.57 9.44-11.28 11.28-16.69 1.06-3.13 2.03-10.9 2.03-14.16 0-13.28-5.8-42.8-14.65-70.6-4.15-13-9.78-25.29-15.42-31.2-6.28-6.58-13.46-10.43-22.02-13.52-7.3-2.65-16.63-6.02-23.92-8.45-1.48-.5-6.63-4.16-9.8-6.46-2.41 10.96-6.16 20.46-9.27 29.72" style="fill:#b3b3b3"/><path d="M245.29 261.4c-8.68 7.5-22.56 7.11-30.63-1.02a22 22 0 0 1-5.21-7.9 36 36 0 0 1-1.77-8.55 94 94 0 0 1 .09-18.72 296 296 0 0 1 3.14-22.41q1.59-9.5 3.76-18.9a275 275 0 0 1 4.48-16.55 56 56 0 0 1 6.85-14.4c3.41-5.17 9.11-8.27 14.53-10.92a187 187 0 0 1 18.64-7.75c1.43-.52 2.88-1 4.31-1.52a2.46 2.46 0 0 0 1.68-2.95 2.4 2.4 0 0 0-2.95-1.68 296 296 0 0 0-19.95 7.8c-6 2.7-12.15 5.66-16.88 10.34a33 33 0 0 0-5.46 7.53 74 74 0 0 0-4.16 8.5 87 87 0 0 0-2.6 8.42q-1.25 4.34-2.34 8.72a321 321 0 0 0-7.6 43.23 101 101 0 0 0-.46 20.05 50 50 0 0 0 1.57 9.56 27 27 0 0 0 5.14 9.5c8.5 10.4 23.9 12.74 35.37 5.83a28 28 0 0 0 3.84-2.82c2.34-2.02-1.07-5.4-3.4-3.4Z" class="b"/><path d="M24.8 106.41a58 58 0 0 0-12.9 13.52 54 54 0 0 0-9.45 27.47c-.81 18.41 8.04 31.8 14.16 38.7 3.97 4.47 11.27 10.54 11.75 16.59a30 30 0 0 1-.68 5.64 15 15 0 0 1 9.07-1.29 59 59 0 0 1 30.73 15.2l2.4-7.78a56 56 0 0 1 2.84-7.3 2.36 2.36 0 0 1 2.79-1.4c4.76 1.29 12.1.57 17.47-1.4a13.5 13.5 0 0 0 7.44-6.89 29 29 0 0 0 2.3-6.85 67 67 0 0 0 1.43-10.22 11 11 0 0 1 2.45-4.61c1.89-2.04 4.93-3.63 3.37-7.15a6.6 6.6 0 0 0-3.02-3.02c-4.74-2.56-6.17-8.5-6.68-14.28 1.14-17.1.02-22.12-3.94-30.42-1.2-2.52-8.32-13.9-24.12-19.7a54.5 54.5 0 0 0-24.65-3.36 44.7 44.7 0 0 0-22.76 8.55m227.76 66.93a105 105 0 0 1-4.58-13.13c-.64-2.35-.72-4.1-2.62-5.38-1.65-1.1-4.44-1.19-5.9.36a10.3 10.3 0 0 0-2.57 5.8 10.5 10.5 0 0 0 .57 5.83l-4.2-14.48a4.3 4.3 0 0 0-1.07-3.33 3.4 3.4 0 0 0-1.54-.9 10 10 0 0 0-7.56 2.76 16 16 0 0 0-4.22 7.01l-1 3.29-2.71 10.66c.08 5.03-.2 8.65-.12 13.68a19 19 0 0 0 1.68 7.1 21 21 0 0 0 6.33 7.4c2.49 1.85 2.33 5.05 1.5 8.03q-.2.71-.46 1.47a6.3 6.3 0 0 0 1.73 6.82c3.94 3.54 8.56 4.03 14.21 3.32a31 31 0 0 0 5.98-1.18 8.3 8.3 0 0 0 4.56-5.5c.66-2.08.52-4.1.7-6.55.22-3.27 0-5.44 1.23-8.5.81-2.02 2.04-3.85 2.78-5.9 2.2-6.1-.28-12.79-2.73-18.79m55.24 8.4a596 596 0 0 0 10.99-29.42c3.12-9.33 6.9-18.9 9.35-29.93-1.51-1.1-2.57-1.9-2.57-1.9l-7.46-7.43a59 59 0 0 1-5.86 6.13 60 60 0 0 1-14.65 9.07 69 69 0 0 1-14.45 3.86q-2.52.3-5.2.37a41 41 0 0 1-11.3-1.25l.5 3.12c1.07 12 9.97 50.38 15.38 64.8 2.75 7.32 4.37 11.2 7.44 18.8l2.94-.67a998 998 0 0 0 14.9-35.56" class="c"/><path d="M330.45 79.07a7.5 7.5 0 0 1 5.47-.83c3.66.81 4.87 3 5.33 4.24 1.39 3.7.16 9.8-1.9 13.33a19.6 19.6 0 0 1-7.97 8.19 14.3 14.3 0 0 1-7.79 1.06l-.65 1.15a61 61 0 0 1-3.17 4.66 63 63 0 0 1-7.53 8.21 60 60 0 0 1-14.65 9.07 69 69 0 0 1-14.45 3.86q-2.52.3-5.2.37c-11.1.23-20.06-3.28-28.22-10.93-7.78-7.3-10.64-18.16-11.14-30-.29-6.81-.44-14.22-.91-21.64 0 0-6.17-37.75 38.16-37.75 61.17 0 54.62 47 54.62 47" class="c"/><path d="M69.84 100.41a53.5 53.5 0 0 0-22.28-2.55c-8.7.94-22.86 3.88-35.66 22.07a54 54 0 0 0-9.45 27.47c-.81 18.41 8.04 31.8 14.16 38.7 2.6 2.93 6.64 6.55 9.25 10.4l.2-.18c6.89-4.2 15-13.92 17.08-20.08l.11-.35a17.2 17.2 0 0 1-4.52-11.28c-.15-2.93.91-6.48 3.24-8.19a6.8 6.8 0 0 1 5.71-.9 9.3 9.3 0 0 1 5.07 3.6c2.7-5.68 3.63-7.9 6.8-11.5a43.5 43.5 0 0 1 25.32-15l14.82-2.68a42 42 0 0 0-3.35-9.03c-1.2-2.52-8.32-13.89-24.12-19.69q-1.18-.42-2.38-.8" class="d"/><path d="M72.2 215.1a45 45 0 0 1 1.98-5.35l.57-1.27a2 2 0 0 1 .23-.44c-.13.17-.32-.07.2.13a18 18 0 0 0 5.46.64 39 39 0 0 0 6.25-.47c3.53-.51 7.4-1.4 10.35-3.51a19 19 0 0 0 6.8-9.88 58 58 0 0 0 2.4-12.97 7.3 7.3 0 0 1 1.87-4.49 39 39 0 0 0 3.34-3.5c2.49-3.5.5-7.78-2.7-9.96a12 12 0 0 1-3.27-2.6 12 12 0 0 1-1.78-3.59 39 39 0 0 1-1.48-10.64c-.08-2.23.04-4.45-.04-6.68a56 56 0 0 0-.78-7.45 2.4 2.4 0 0 0-2.95-1.68 2.46 2.46 0 0 0-1.68 2.95c.7 4.08.49 8.12.63 12.23a60 60 0 0 0 .98 9.85 18.6 18.6 0 0 0 4.08 8.85 22 22 0 0 0 3.86 2.9 4 4 0 0 1 1.25 1.42 2 2 0 0 1 .19 1.25c-.46 1.17-1.84 2.02-2.74 2.94a13.5 13.5 0 0 0-3.15 5.21c-.6 1.78-.48 3.87-.73 5.73a57 57 0 0 1-1.2 6.38c-.89 3.58-2.28 7.28-5.33 9.59-2.62 1.98-6.36 2.68-9.58 3.08a31 31 0 0 1-6.48.15c-2.1-.18-4.09-1.13-6.1-.05a6.4 6.4 0 0 0-2.62 3.46 55 55 0 0 0-2.46 6.5c-.88 2.97 3.75 4.23 4.63 1.28Zm-18.46-58.5a10.7 10.7 0 0 0-10.14-3.5c-3.6.77-5.94 3.96-6.82 7.36-1.54 5.95.7 12.85 4.87 17.24a25 25 0 0 0 8.88 5.7 2.4 2.4 0 0 0 2.95-1.68 2.46 2.46 0 0 0-1.68-2.95c-5.23-2.16-9.24-6.03-10.38-11.7-.52-2.63-.55-5.85 1.26-8.04 2.16-2.62 5.76-1.07 7.66.97 2.11 2.27 5.5-1.13 3.4-3.4" class="b"/><path d="M92.58 155.3c.81 2.05.86 6.9-2.87 7.66-4.99.42-5.8-5.4-4.38-8.28 1.17-2.37 5.12-3.67 7.25.63m11 25.74a17 17 0 0 0-3.34.35l.63-.08a5 5 0 0 1-1.36.01l.64.09a13 13 0 0 0-3.2-.4 4.8 4.8 0 0 0-3.72 2.36 2.4 2.4 0 0 0 4.14 2.42l.11-.18q-.4.49-.15.22l.18-.17q-.46.35-.24.2l.37-.22q-.6.24-.25.12l.15-.03-.63.08a5 5 0 0 1 1.23.04l-.63-.08a17 17 0 0 0 2.7.39 22 22 0 0 0 2.63-.35l-.64.08a7 7 0 0 1 1.37-.05 2.4 2.4 0 0 0 2.4-2.4 2.46 2.46 0 0 0-2.4-2.4Z" class="b"/><path d="M103.05 137.87a41 41 0 0 0-5.33-19.42 43 43 0 0 0-10.28-11.39 56.7 56.7 0 0 0-45.93-10.69c-14.41 2.96-26.43 13.1-33.77 25.61A54.1 54.1 0 0 0 5 172.6a60 60 0 0 0 10.23 15.55c2.54 2.8 5.36 5.35 7.68 8.35a16 16 0 0 1 2.63 4.49 8 8 0 0 1 .27 4.07 41 41 0 0 1-.92 4.75c-.76 3 3.87 4.28 4.63 1.28.79-3.09 1.62-6.64 1.05-9.82-.66-3.72-3.16-6.96-5.58-9.74-2.28-2.64-4.85-5-7.14-7.64a52 52 0 0 1-4.69-6.3 53 53 0 0 1-7.7-19.64 49 49 0 0 1 2.56-25.42c5-13.5 16.24-25.86 30-30.28a47 47 0 0 1 6.97-1.64l.84-.13.31-.04c.37-.06-.4.05-.03 0l1.7-.2a49 49 0 0 1 7.03-.21 53 53 0 0 1 24.65 7.32 45 45 0 0 1 7.84 5.95q1.47 1.4 2.82 2.93.55.63 1.07 1.28l.3.37.49.65A33 33 0 0 1 97.66 132a42 42 0 0 1 .59 5.87c.12 3.08 4.92 3.1 4.8 0" class="b"/><path d="M62.66 173.88c-.22 3.46-.79 7.2.99 10.38A6.64 6.64 0 0 0 74 185.8a7.8 7.8 0 0 0 1.53-6.2 2.6 2.6 0 0 0-.7-1.7 2.4 2.4 0 0 0-1.7-.7c-1.16.05-2.57 1.07-2.4 2.4a11 11 0 0 1 .07 2.08c-.04.57.1-.43 0-.03l-.1.44c-.04.14-.13.28-.15.43 0-.05.27-.54.08-.24l-.12.22-.13.2c.01-.03.35-.36.18-.25a1 1 0 0 0-.3.3c.03-.05.5-.32.2-.16l-.17.1c-.05.04-.14.05-.18.1.26-.27.44-.15.13-.08a3 3 0 0 0-.5.12c.02-.04.63-.04.16-.03l-.24.02-.55-.02c-.24 0-.19-.14.2.04l-.26-.05-.45-.12c-.48-.13.4.22.07.02l-.36-.2c-.42-.24.37.36.04.03q-.16-.13-.28-.27c-.12-.14-.37-.44-.1-.09s.01-.01-.05-.1l-.2-.37-.16-.33-.14-.53q-.08-.28-.13-.57l-.05-.26c-.08-.46 0 .17.04.3a10 10 0 0 1-.08-2.86c.06-1.19.18-2.37.25-3.56a2.4 2.4 0 0 0-2.4-2.4 2.46 2.46 0 0 0-2.4 2.4Zm17.83-25.77q-.22.63-.46 1.25l.25-.58a7 7 0 0 1-.87 1.54l.38-.49a4 4 0 0 1-.75.76l.49-.38-.3.2a2.5 2.5 0 0 0-1.1 1.43 2.5 2.5 0 0 0 .25 1.85 2.4 2.4 0 0 0 3.28.86 7 7 0 0 0 2.31-2.43 17 17 0 0 0 1.16-2.73 2 2 0 0 0 .04-.96 2 2 0 0 0-.29-.9 2.4 2.4 0 0 0-3.28-.85l-.48.37a2.4 2.4 0 0 0-.62 1.06Z" class="b"/><path d="M90.39 274.85c.1-2.16-3.65-19.46-5.57-25.9-2.29-7.7-4.79-12.4-11.16-20.12-9.2-11.16-21.22-19.06-36.91-21.79a15 15 0 0 0-10.14 1.85 31 31 0 0 0-7.83 6.3 36 36 0 0 0-7 12.58" class="c"/><path d="M92.79 274.85a34 34 0 0 0-1.08-6.97q-1.09-5.5-2.38-10.98c-1.79-7.66-3.82-15.29-8.14-21.98a72 72 0 0 0-20-20.72 62 62 0 0 0-19.43-8.56 31 31 0 0 0-7.74-1.22c-6.07.08-11.6 3.65-15.78 7.84a38.4 38.4 0 0 0-8.77 14.87c-1 2.93 3.63 4.19 4.63 1.28a34 34 0 0 1 6.67-11.84c2.99-3.3 7.25-6.66 11.78-7.26a20 20 0 0 1 6.95.73 61 61 0 0 1 6.62 1.91 56 56 0 0 1 11.56 5.68A66 66 0 0 1 76.2 236.1a44 44 0 0 1 5.45 10.78 105 105 0 0 1 2.57 9.25q1.42 5.88 2.62 11.82.48 2.35.89 4.72l.15.93.05.33c.07.48-.05-.53-.01-.05a9 9 0 0 1 .07.98c-.08 3.09 4.72 3.09 4.8 0ZM54.95 160.08a55 55 0 0 1 4.58-8.63 41.7 41.7 0 0 1 25.97-16.5 2.4 2.4 0 0 0 1.68-2.95 2.45 2.45 0 0 0-2.95-1.68 46.6 46.6 0 0 0-21.29 10.39 48 48 0 0 0-7.2 7.82 52 52 0 0 0-4.94 9.13 2.47 2.47 0 0 0 .86 3.28 2.4 2.4 0 0 0 3.29-.86M40.82 175.6l-.22.6-.1.24q-.26.6-.56 1.18-.69 1.34-1.5 2.6a46 46 0 0 1-3.85 5.2 43 43 0 0 1-9.75 8.82c-2.63 1.62-.22 5.77 2.42 4.15a47 47 0 0 0 10.93-9.8c2.94-3.5 5.74-7.36 7.25-11.72a2.4 2.4 0 0 0-4.63-1.27Zm52.86-42.96h.04l-.64-.08a6 6 0 0 1 1.42.42l-.57-.24A10 10 0 0 1 96.1 134l-.48-.37a6 6 0 0 1 1.03 1l-.37-.49.12.18a2.6 2.6 0 0 0 1.44 1.1 2.5 2.5 0 0 0 1.85-.24 2.4 2.4 0 0 0 .86-3.28 9 9 0 0 0-3.12-2.77 14 14 0 0 0-1.95-.9 7 7 0 0 0-1.81-.4 2.4 2.4 0 0 0-1.7.7 2.4 2.4 0 0 0 0 3.4l.48.37a2.4 2.4 0 0 0 1.21.33Z" class="b"/><path d="M120.6 195.3c1.6-2.97 1.23-6.81 1.16-7.69-.46-5.47-5.12-11.43-8.7-15.83a43 43 0 0 0-7.4-6.81 5.2 5.2 0 0 0-6.38-.25 3.8 3.8 0 0 0-.5 4.82c2.03 2.93 3.47 4.92 4.98 6.94l-1.37.03a5 5 0 0 0-2.68.49 3 3 0 0 0-.97.72 3.3 3.3 0 0 0-.33 3.5l.62 1.28a7 7 0 0 0-1.34-.46 3.03 3.03 0 0 0-4.18 3.22 10 10 0 0 0 1.1 3.7l.12.26a5 5 0 0 0-3.56-.56 3 3 0 0 0-1.32.59c-1.18.96-1.1 2.77-.84 4.27v.03a41 41 0 0 0 1.77 6.67 15.4 15.4 0 0 0-2.09 6.68 15.7 15.7 0 0 0 1.33 9.33 11 11 0 0 1 1.14 2.52s.07 1.33.16 2.88l5.93 1.89c4.4.75 9.56 1.66 12.85 2.3l.26-4.01a26 26 0 0 1 3.06-12.53c2.9-6.06 4.28-7.91 7.18-13.98" class="c"/><path d="M112.5 225.83c.16-2.83.22-5.72.66-8.52a29 29 0 0 1 2.94-8.08c2.1-4.29 4.5-8.41 6.57-12.72a2.47 2.47 0 0 0-.87-3.28 2.4 2.4 0 0 0-3.28.86c-2.2 4.58-4.76 8.97-6.97 13.54a31 31 0 0 0-3.05 8.64c-.49 3.16-.61 6.37-.8 9.56-.2 3.09 4.6 3.07 4.8 0" class="b"/><path d="M88.54 230.99q.43-1.72 1-3.4a21 21 0 0 0 1.1-3.04q.36-.75-.24.02-1.28.05-.65.12a4 4 0 0 0 .72.12l1.75.28q4.7.78 9.4 1.61c2.91.52 5.83 1.03 8.73 1.62a5 5 0 0 0 .76.15c1.01.04-.8-.44-.32-1.07a4 4 0 0 0-.18 1.25l-.2 1.4c-.25 1.78-.5 3.57-.84 5.34a2.47 2.47 0 0 0 1.68 2.95 2.4 2.4 0 0 0 2.95-1.68q.45-2.48.79-4.97c.23-1.64.86-3.69.36-5.3-.9-2.9-4.92-2.95-7.42-3.41a656 656 0 0 0-16.65-2.88c-2.5-.4-4.19.4-5.14 2.81a58 58 0 0 0-2.23 6.8c-.76 3 3.87 4.27 4.63 1.28m34.13-34.48c4.76-9.33-1.71-18.77-7.45-25.85a39 39 0 0 0-5.67-5.67c-1.82-1.49-3.65-3.12-6.04-3.52a6.7 6.7 0 0 0-6.75 2.52 6.35 6.35 0 0 0 .2 7.15c3.06 4.5 6.42 8.78 9.65 13.15a2.47 2.47 0 0 0 3.29.86 2.4 2.4 0 0 0 .86-3.29c-2.34-3.15-4.74-6.27-7.04-9.46q-.93-1.28-1.84-2.58a7 7 0 0 1-1.34-2.13c-.24-1.27.94-1.67 2.01-1.54 1.57.2 3.05 1.76 4.2 2.73a36 36 0 0 1 4.73 4.74c2.56 3.14 5.19 6.46 6.8 10.2 1.33 3.07 1.81 7.2.24 10.27-1.4 2.74 2.74 5.18 4.15 2.42" class="b"/><path d="M104.88 189.04c-1.3-2.53-2.5-5.1-3.73-7.65l-.42-.85-.25-.54c.08.2.08.28.03.03-.02-.08-.07-.6-.07-.26 0 .32.03-.11.02-.17-.05-.3-.1.33-.02.05l.13-.47c-.13.4-.01.04.01.06-.02-.02-.28.34.06-.04.18-.2-.24.1.01.01.03 0 .4-.21.19-.11-.24.11.3-.1.36-.12l.44-.1c-.34.07 0 .01.17 0q.3 0 .57.03a2.4 2.4 0 0 0 2.4-2.4 2.46 2.46 0 0 0-2.4-2.4 6.6 6.6 0 0 0-5.46 2.06 5.7 5.7 0 0 0-.79 5.8c.66 1.57 1.46 3.09 2.2 4.63q1.17 2.45 2.4 4.87a2.4 2.4 0 0 0 3.28.86 2.46 2.46 0 0 0 .87-3.28Z" class="b"/><path d="M99.36 193.2a90 90 0 0 1-2.51-5.09l-.35-.77c-.3-.65.16.44-.1-.23l-.19-.5c-.12-.34-.18-.7-.29-1.04-.08-.25 0 .35 0-.1v-.58c0-.46-.1.29-.01 0l.1-.44q.12-.31.01-.05-.1.27.04-.03c.29-.34-.21.2 0 0s-.37.22.01 0c.44-.27-.42.07.08-.03l.35-.08q-.46.06-.19.04h.28c.07 0 .6.04.23 0s.15.03.22.05q.3.06.59.16c.11.04.67.27.18.06a2.46 2.46 0 0 0 3.28-.86 2.43 2.43 0 0 0-.86-3.29c-2.02-.9-4.36-1.37-6.43-.29a5.7 5.7 0 0 0-2.66 5.66 17 17 0 0 0 1.9 5.47q1.03 2.2 2.17 4.37a2.4 2.4 0 0 0 3.29.86 2.45 2.45 0 0 0 .86-3.29" class="b"/><path d="M97.12 189.23a2.4 2.4 0 0 0-1.18-2.08 7.5 7.5 0 0 0-5.94-.65 5.2 5.2 0 0 0-3.51 4.69 16 16 0 0 0 .61 5 42 42 0 0 0 1.6 5.29 2.45 2.45 0 0 0 2.94 1.68 2.43 2.43 0 0 0 1.68-2.96 42 42 0 0 1-1.32-4.16q-.29-1.12-.51-2.25l-.19-.99c-.06-.36-.1-.17 0 .04a1 1 0 0 1-.04-.43 7 7 0 0 1-.01-.8c0-.11.13-.52 0-.19l.06-.17.1-.3c-.02.36-.14.3.01.06.14-.22-.34.32 0 .05-.25.2-.2.2.01.01.2-.16-.47.12.01 0l.36-.09c.57-.14-.25-.02.07 0l.51-.02c.45-.03-.18-.07.08 0l.5.1.39.13c-.49-.15.07.06.16.11l-1.19-2.07v.01a2.4 2.4 0 1 0 4.8 0" class="b"/><path d="M88.75 198.95a22 22 0 0 0-2.62 9.54 19 19 0 0 0 .56 5.7 17 17 0 0 0 1.11 2.97 13 13 0 0 1 1.04 2.23c.79 2.98 5.42 1.72 4.63-1.28-.43-1.63-1.47-2.98-1.98-4.58a14 14 0 0 1-.58-4.72 21 21 0 0 1 .6-4.15 11 11 0 0 1 1.38-3.29c1.49-2.71-2.66-5.14-4.14-2.42" class="b"/><path d="M285.13 205.84c-.8-2.04-1.63-4.2-2.6-6.78q-.7-1.85-1.45-4.17a185 185 0 0 1 2.13-24.68c.45-3.33 1.3-7.24 2-10.81-1.17-2.8-3.16-7.88-4.26-10.97l-.25-.7a120 120 0 0 1 7.74-7.23c2.84 1.85 7.8 4.83 12.09 7.76-1.33 4.07-2.62 8.84-3.76 12.92.05 1.35 3.46 21.75 4.52 26.04l1.25 7.38a832 832 0 0 1-9.63 22.58l-2.94.68c-2-4.92-3.37-8.28-4.84-12.02" style="fill:#3d8dcc"/><path d="M278.63 149.07q1.99 5.54 4.26 10.96v-1.27a215 215 0 0 0-4.06 32.03c-.13 3.09 4.67 3.08 4.8 0a193 193 0 0 1 2.07-21.16c.32-2.04.72-4.07 1.12-6.1q.32-1.53.61-3.07a4.4 4.4 0 0 0-.37-2.81 233 233 0 0 1-3.8-9.86 2.46 2.46 0 0 0-2.96-1.68 2.4 2.4 0 0 0-1.67 2.96m19.57-1.45a203 203 0 0 0-2 6.68 45 45 0 0 0-1.8 6.56 18 18 0 0 0 .55 4.53q1.24 7.94 2.7 15.85c.4 2.21.79 4.44 1.32 6.62.74 3 5.37 1.73 4.63-1.27-1.07-4.37-1.74-8.86-2.5-13.3q-.67-3.9-1.3-7.8l-.44-2.82-.15-1.07c-.08-.5.04.52.02.15l-.04-.32c0-.03.03-.36 0-.12-.06.34.13-.34.12-.32q.17-.52.3-1.05.5-1.85 1.03-3.7c.7-2.46 1.4-4.9 2.2-7.34.94-2.94-3.69-4.2-4.63-1.27Z" class="b"/><path d="M285.81 162.74q4.6-.2 9.17-.3a2.4 2.4 0 1 0 0-4.8c-3.05.06-6.11.19-9.17.3a2.4 2.4 0 1 0 0 4.8m-5.8-10.8a126 126 0 0 1 10.12-9.74l-2.9.37c4.83 3.15 9.81 6.07 14.5 9.46a2.4 2.4 0 0 0 3.28-.86 2.46 2.46 0 0 0-.86-3.28c-4.68-3.4-9.66-6.31-14.5-9.46a2.45 2.45 0 0 0-2.91.37 126 126 0 0 0-10.12 9.75c-2.1 2.27 1.3 5.67 3.39 3.4m121.82 133.48a33 33 0 0 0 8.24-8.67 41 41 0 0 0 3.85-8.6 45 45 0 0 0 1.84-8.86 52 52 0 0 0 .55-8.02 129 129 0 0 0-1.89-17.37 322 322 0 0 0-4.64-23.04q-3.04-12.87-6.92-25.53a153 153 0 0 0-9.4-24.39c-3.26-6.44-7.3-12.1-13.02-16.57-6.25-4.88-13.38-7.85-20.79-10.52q-5.8-2.1-11.63-4.16-2.93-1.04-5.86-2.05l-2.5-.85a8 8 0 0 0-1.15-.38c.26.04.43.22.04 0a106 106 0 0 1-10.88-7.43l-.9-.67a2.4 2.4 0 0 0-3.28.86 2.46 2.46 0 0 0 .86 3.29c2.96 2.21 5.96 4.4 9.06 6.44a25 25 0 0 0 5.93 2.84q5.59 1.91 11.14 3.9c7.15 2.55 14.55 4.8 21.17 8.58a40.4 40.4 0 0 1 14.54 13.54 104 104 0 0 1 9.73 21.62c2.8 8.24 5.16 16.64 7.33 25.06 3.54 13.78 6.79 27.9 8 42.11a59 59 0 0 1-.7 15.3c-.96 5.48-3.07 11.16-6.78 15.39a30 30 0 0 1-4.36 4.04 2.5 2.5 0 0 0-.86 3.28 2.4 2.4 0 0 0 3.28.86m-48.99-73.3 8.05 29.46c.81 2.98 5.45 1.72 4.63-1.27l-8.05-29.47c-.81-2.97-5.45-1.71-4.63 1.28" class="b"/><path d="M339.46 138.35a33 33 0 0 1 2.93 5.15 13 13 0 0 1 1.27 3.48v-1.28q.99-1.37.52-.93.58-.43.28-.22l-.44.28q-.57.33-1.15.63a126 126 0 0 1-3.68 1.86q-3.71 1.8-7.44 3.57a2.42 2.42 0 0 0-.48 3.77q2.46 2.63 4.9 5.3 1.07 1.17 2.12 2.36c.65.74 1.73 1.6 1.93 2.63.13.65-.36 1.14-.7 1.66l-1.42 2.18q-1.53 2.36-3.03 4.74c-4.7 7.44-9.33 14.93-14.07 22.35q-4.64 7.25-9.46 14.39c-1.73 2.56 2.42 4.97 4.15 2.42a880 880 0 0 0 16.98-26.3q3.44-5.54 6.93-11.06 1.53-2.41 3.09-4.81c1.14-1.76 2.5-3.43 2.35-5.65-.2-3.02-2.67-5.2-4.57-7.3s-3.87-4.2-5.81-6.3l-.49 3.77c4.02-1.94 8.18-3.71 12.06-5.94a4.6 4.6 0 0 0 1.79-1.49c.63-1.05.24-2.28-.15-3.35a36 36 0 0 0-4.27-8.33 2.47 2.47 0 0 0-3.28-.86 2.4 2.4 0 0 0-.86 3.29Zm-74.73-4.1c.92 10.04 3.36 20.05 5.63 29.85a341 341 0 0 0 8.9 32.9c2.46 7.28 5.5 14.38 8.38 21.5a2.5 2.5 0 0 0 2.96 1.67 2.4 2.4 0 0 0 1.67-2.95c-2.67-6.62-5.44-13.22-7.85-19.94-1.65-4.61-3-9.33-4.3-14.05q-4.79-17.39-8.3-35.11-.83-4.1-1.51-8.21-.28-1.66-.51-3.33l-.04-.31-.08-.63-.14-1.4a2.46 2.46 0 0 0-2.4-2.4 2.4 2.4 0 0 0-2.4 2.4Z" class="b"/><path d="M294.97 218.39a836 836 0 0 0 12.74-30.15 693 693 0 0 0 13.86-36.8c3.04-8.92 6.33-17.75 8.51-26.94.71-3-3.91-4.28-4.63-1.27A246 246 0 0 1 318 147.1c-2.1 6.06-4.16 12.13-6.41 18.13a988 988 0 0 1-20.76 50.73 2.47 2.47 0 0 0 .87 3.28 2.4 2.4 0 0 0 3.28-.86Z" class="b"/><path d="M169.93 54.08a72 72 0 0 1 12.54 2.55c9.91 3.53 15.55 10.78 15.41 21.3-.05 3.92-.87 9.42-4.25 13.14-1.38 1.52-2.95 3.07-4.7 4.83a4.27 4.27 0 0 0-.26 5.71 27.5 27.5 0 0 1 6.37 19.13c-.18 3.25-2.13 6.23-3.54 8.33a14 14 0 0 1-2.2 2.6 4.26 4.26 0 0 0 .28 6.55c4.83 3.62 10.2 9.2 10.48 13.4.26 3.93-1.12 7.18-3.9 8.3a7.7 7.7 0 0 1-5.13-.1c-8.11-2.82-16.75-6.6-36.58-7.14l-.28-.02c-10.6-1-22.19-2.47-26.91-15a27.5 27.5 0 0 1-1.17-14.4q.31-1.82.72-3.71c1.68-7.84-.85-14.59-9.64-16.85l-4.5-1.18c-11.74-3.14-17.45-13.06-16.94-25.46.2-4.57 1.35-7.5 3.8-11.37a24 24 0 0 1 8.94-7.53c15.67-6.05 40.2-5.11 61.46-3.08" class="f"/><path d="M212.76 171.82c.12 8.22-1.59 17.12 3.3 24.34a22 22 0 0 0 3.76 4.31c1.2 1.05 2.67 1.75 2.86 3.47.2 1.84-.53 3.56-1.02 5.3a9 9 0 0 0 .64 6.37c1.7 3.43 5.9 5.63 9.52 6.32a33 33 0 0 0 12.06-.45 10.3 10.3 0 0 0 8.72-7.05c1.53-3.93.84-8.41 1.32-12.52a19 19 0 0 1 2.37-6.3 19 19 0 0 0 2.2-7.48c.39-5.38-1.63-10.64-3.62-15.53a2.5 2.5 0 0 0-2.96-1.68 2.4 2.4 0 0 0-1.67 2.96c1.58 3.9 3.3 8 3.47 12.26a13 13 0 0 1-.94 5.76c-.81 1.9-1.92 3.66-2.67 5.6-1.39 3.6-1.18 7.72-1.36 11.52-.13 2.87-1.06 6.45-3.97 7.33a29 29 0 0 1-10.36 1.12c-2.7-.2-6.42-1.4-7.8-3.96-.85-1.57-.31-2.9.16-4.48a15 15 0 0 0 .7-5.26 7.8 7.8 0 0 0-2.17-4.98c-1.25-1.25-2.74-2.18-3.92-3.52a15.4 15.4 0 0 1-3.93-9.5c-.21-4.64.18-9.3.11-13.94-.04-3.09-4.85-3.1-4.8 0Z" class="b"/><path d="M218.66 177.19a62 62 0 0 1 14.97-1.33c2.02.01 3.72.2 4.89 1.62.65.78 1.42 1.9.97 2.86a3 3 0 0 1-1.13 1.04q-1.08.72-2.09 1.51a2.4 2.4 0 0 0 0 3.4 2.46 2.46 0 0 0 3.4 0 23 23 0 0 0 3.2-2.46 6.3 6.3 0 0 0 1.45-5.13 9.5 9.5 0 0 0-4.84-6.5 14 14 0 0 0-6.45-1.14q-3.5.03-7 .3a53 53 0 0 0-8.65 1.2c-3 .74-1.73 5.37 1.27 4.63Z" class="b"/><path d="M224.77 187.26c2.25-.6 4.49-1.34 6.8-1.72l.45-.07c-.05 0-.35.03-.07.02l.8-.07a13 13 0 0 1 1.68 0l.45.05c.29.03-.03 0-.07 0 .2.03.42.1.63.12.48.07-.4-.2-.06-.03l.2.12c-.05.02-.42-.4-.2-.15l.3.3c.17.15-.19-.2-.18-.23l.14.21q.1.22.22.4c.12.2-.11-.25-.11-.26l.11.33q.08.23.13.47c.03.12.1.65.06.25l.02.26v.58l-.02.51c-.03.55.1-.4 0 .01l-.28 1.02c-.05.23.1-.25.11-.26l-.11.24-.23.4c-.25.42.3-.28.03-.04-.22.18-.4.42-.6.62q-.55.56-1.15 1.05l-.29.24c.14-.12.28-.21.06-.05q-.3.23-.6.43-1.44 1-2.92 1.94a2.4 2.4 0 1 0 2.42 4.14 38 38 0 0 0 5.65-4.14 8 8 0 0 0 1.89-2.4 9 9 0 0 0 .83-3.27 8 8 0 0 0-1.66-5.69c-1.54-1.88-4.19-2.1-6.46-1.97a47 47 0 0 0-9.25 2.01 2.4 2.4 0 0 0 1.28 4.63m10.9-34.92c-.03-2.47-.88-4.82-3.16-6.06-2.33-1.26-5.43-.45-7.7.58-4.24 1.93-6.94 6.16-8.28 10.48l-.97 3.19a2.4 2.4 0 0 0 1.68 2.95 2.45 2.45 0 0 0 2.95-1.67l.94-3.1a15 15 0 0 1 .83-2.19 17 17 0 0 1 .84-1.54q.2-.33.41-.63.14-.21.3-.41-.2.23.08-.1a14 14 0 0 1 1.2-1.27c.07-.07.71-.59.49-.42q.3-.23.62-.43.43-.27.88-.5l.45-.21q-.22.09.01 0a9 9 0 0 1 1.8-.5c-.4.07.35-.02.36-.02h1c-.01.03-.9-.27-.23-.02l.26.17q-.33-.28-.05-.04l.26.27q-.22-.31 0 .02c.3.43-.06-.36.08.15.03.11.15.92.1.37q.04.45.04.92a2.4 2.4 0 0 0 4.8 0Z" class="b"/><path d="m208.6 179.72 41.66-24.7a2.1 2.1 0 0 0 .75-2.87l-2.67-4.58a2.1 2.1 0 0 0-2.88-.76l-41.66 24.7a3.2 3.2 0 0 0-1.15 4.39l1.57 2.67a3.2 3.2 0 0 0 4.38 1.15" class="c"/><path d="M247.68 146.87a2.1 2.1 0 0 0-2.22-.06l-11.1 6.48 4.8 8.21 11.1-6.48a2.1 2.1 0 0 0 .76-2.87l-2.68-4.59a2 2 0 0 0-.66-.7" style="fill:#febe69"/><path d="M202.23 174.59a3 3 0 0 0 .42 1.3l1.57 2.68a3.2 3.2 0 0 0 4.38 1.15l3.77-2.2-4.8-8.2-3.77 2.2a3.2 3.2 0 0 0-1.57 3.07" class="f"/><path d="m241.24 160.3-4.8-8.22a2.4 2.4 0 1 0-4.15 2.42l4.8 8.21a2.4 2.4 0 0 0 4.14-2.42" class="b"/><path d="m209.81 181.8 19.22-11.4c7.37-4.38 14.81-8.65 22.12-13.12a4.67 4.67 0 0 0 1.84-6.5c-.58-1.07-1.23-2.12-1.85-3.18a7 7 0 0 0-2.57-2.98c-2.97-1.54-6.3 1.3-8.76 2.75l-26.99 16-9.36 5.55a6.7 6.7 0 0 0-3.35 3.6 6.2 6.2 0 0 0 .84 5.21 14 14 0 0 0 2.22 3.33 5.7 5.7 0 0 0 6.64.73c2.75-1.41.32-5.56-2.42-4.14-.85.43-1.22-.5-1.58-1.12-.33-.56-1.23-1.6-1.21-2.27.01-.65.99-1.02 1.46-1.3l8.81-5.22 25.57-15.17 4.24-2.5c.38-.23 1.73-.74 1.93-1.15.05-.1.39.02-.2 0 .07 0-.12-.18-.14-.13s.21.36.24.4c.55 1.06 1.2 2.08 1.8 3.1.12.2.37.88.58.99.3.16-.2-.45.15-.33-.07-.02-.4.24-.45.27L228 165.42c-6.75 4-13.57 7.9-20.25 12.01l-.37.22c-2.65 1.57-.24 5.72 2.43 4.14" class="b"/><path d="m205.5 170.52 4.8 8.2a2.4 2.4 0 0 0 4.15-2.41l-4.8-8.21a2.4 2.4 0 1 0-4.14 2.42Z" class="b"/><path d="M238.4 168.95a12.4 12.4 0 0 1-1.5-7.97 10.3 10.3 0 0 1 2.57-5.8c1.45-1.54 4.24-1.46 5.89-.35 1.9 1.28 1.98 3.03 2.62 5.38a91 91 0 0 0 4.57 13.02" class="c"/><path d="M240.03 166.8a16 16 0 0 1-.63-1.73q-.12-.4-.2-.82c-.08-.42-.04-.28 0 0l-.04-.45a12 12 0 0 1 .5-4.27 8 8 0 0 1 .94-1.93c.18-.26.37-.46.57-.71q.31-.29.06-.1l.42-.24c-.32.15.47-.12.58-.14-.38.06.51.01.61.01a3 3 0 0 1 1 .3 1 1 0 0 1 .43.3l.33.33q-.2-.27.03.07.12.2.21.4-.12-.36.03.05l.28.9c.43 1.6.81 3.2 1.3 4.8a110 110 0 0 0 3.79 10.4 2.5 2.5 0 0 0 2.95 1.68 2.4 2.4 0 0 0 1.68-2.95 112 112 0 0 1-3.54-9.58 74 74 0 0 1-1.31-4.63 11 11 0 0 0-1.37-3.68 7.5 7.5 0 0 0-7.94-2.98c-3.21.75-5.16 4.17-5.9 7.16a14.5 14.5 0 0 0 .6 9.1 2.5 2.5 0 0 0 2.94 1.67 2.4 2.4 0 0 0 1.68-2.95Z" class="b"/><path d="m253.88 48.75-.6.39c-7.31 4.8-11.45 12-12.24 18.41l-3.3 1.73a88 88 0 0 1-.4-16.53c.67-13.42 7.81-26.1 13.81-33a56 56 0 0 1 11.26-8.99c11.2-6.85 22.78-9.13 36.06-8.08 13.51 1.07 26.97 5.45 35.84 18.52 10.83 11.12 15.47 19.56 13.51 41.07a51 51 0 0 1-5.54 17.9c-1.73 7.45 1.26-.23-6.36-1.92a7.5 7.5 0 0 0-5.47.82l-10.84-.4c-.17-2.45-.26-10.85-1.48-12.97-.87-1.5-7.75-1.02-9.11-2.2-.86-.74-3.54-5.89-5.54-9.09a3.2 3.2 0 0 0-2.97-1.54c-8.03.67-20.82-4.11-26.96-8.23l-9.6 1a22.5 22.5 0 0 0-10.07 3.11" class="d"/><path d="M285.64 107.23a13 13 0 0 1 1.52 2.68l-.25-.57a10 10 0 0 1 .55 1.63 2.4 2.4 0 0 0 4.38.58 2.6 2.6 0 0 0 .25-1.85 14 14 0 0 0-1.06-2.81 13 13 0 0 0-1.24-2.08 2.7 2.7 0 0 0-1.44-1.1 2.5 2.5 0 0 0-1.85.24 2.4 2.4 0 0 0-1.1 1.44 2.3 2.3 0 0 0 .25 1.85Zm-16.94 3.66c.05-.08.46-.58.22-.34l.28-.27a2 2 0 0 1 .39-.35c-.53.3-.01.03.08-.03q.27-.17.54-.31c.12-.06.71-.4.16-.1a5 5 0 0 1 1.03-.35q.57-.17 1.15-.27c.12-.02.78-.1.2-.04l.69-.06a10 10 0 0 1 1.14.01q-.33-.05-.07 0l.62.17c.46.12-.38-.22.07.03l.46.26c.45.26-.27-.28.08.05l.45.43c.4.45-.13-.26.11.14l.27.46c.24.42-.07-.36.05.12l.17.67-.02-.15.01.4a3 3 0 0 1-.03.6c.13-.6-.04.07-.06.14-.05.19-.2.56-.02.17a7 7 0 0 1-.38.69c-.23.4.3-.26-.08.09-.11.1-.4.51-.07.1a1 1 0 0 1-.47.28q.45-.18.07-.05l-.35.07a2.4 2.4 0 0 0-1.68 2.95 2.47 2.47 0 0 0 2.95 1.68c2.22-.36 3.83-2.3 4.54-4.32a7.4 7.4 0 0 0-.66-6.17 7.5 7.5 0 0 0-4.65-3.41 12 12 0 0 0-6.2.47 9.2 9.2 0 0 0-5.13 3.82 2.4 2.4 0 0 0 .86 3.28 2.45 2.45 0 0 0 3.28-.86m15.55-26.18c-.49-2.44.54-7.84 5.07-7.84 5.93.64 5.57 7.26 3.26 10.15-1.9 2.36-6.8 2.93-8.33-2.31m-35.3-2.5c-.43-2.44.54-7.86 4.7-7.9 5.42.61 5.05 7.25 2.91 10.16-1.75 2.39-6.25 2.98-7.62-2.26m17.83 6.89a51 51 0 0 0-2.4 3.8 5 5 0 0 0-.77 2.22 3.3 3.3 0 0 0 1.07 2.6 5 5 0 0 0 1.94 1.17 8 8 0 0 0 .9.18 2.5 2.5 0 0 0 1.86-.24 2.4 2.4 0 0 0-.58-4.39 7 7 0 0 1-1.05-.23l.58.24a3 3 0 0 1-.46-.26l.48.37a4 4 0 0 1-.49-.46l.38.48-.1-.15.24.58-.07-.25.09.63v-.26l-.08.63a2 2 0 0 1 .14-.46l-.24.57a19 19 0 0 1 1.35-2.3q.66-1.04 1.36-2.05a2.4 2.4 0 0 0-2.71-3.52 2.7 2.7 0 0 0-1.44 1.1m64.89-7.96a5.9 5.9 0 0 1 6.03.42l.39.34.33.35q.19.27.35.55c.05.08.3.6.16.3s.12.35.16.45a8 8 0 0 1 .26 1.1 13 13 0 0 1-.1 4.1c-.89 5.37-4.23 10.85-9.24 13.26.42-.2-.22.07-.37.12q-.45.16-.92.28a13 13 0 0 1-1.9.35 8 8 0 0 1-4.55-.66c-2.71-1.48-5.14 2.66-2.42 4.15 3.34 1.83 7.64 1.72 11.18.47a19 19 0 0 0 8.79-7.17 23 23 0 0 0 4.11-9.9c.52-3.37.56-7.23-1.57-10.1A10.35 10.35 0 0 0 329.24 77c-2.68 1.53-.27 5.68 2.42 4.14" class="b"/><path d="M298.8 130.22c10.76-4.72 20.3-12.55 26.22-22.8 1.54-2.68-2.6-5.1-4.15-2.43a45 45 0 0 1-4.17 5.9 54 54 0 0 1-6.38 6.69l-.65.53-.56.45q-1.56 1.2-3.19 2.28a62 62 0 0 1-9.54 5.23 2.4 2.4 0 0 0-.86 3.29 2.46 2.46 0 0 0 3.28.86" class="b"/><path d="M235.27 69.8c.51 8.17.45 16.4 1.08 24.56.54 6.84 1.9 13.7 5.04 19.85 6.14 12.1 19.44 19.67 32.74 20.49 8.27.5 16.4-1.32 24.1-4.24a2.47 2.47 0 0 0 1.67-2.96 2.4 2.4 0 0 0-2.95-1.67 56 56 0 0 1-20.03 4.15 36 36 0 0 1-17.52-4.33 34 34 0 0 1-13.08-12.39c-3.07-5.36-4.49-11.57-5.06-17.68-.81-8.55-.65-17.2-1.2-25.78a2.45 2.45 0 0 0-2.4-2.4 2.4 2.4 0 0 0-2.4 2.4Z" class="b"/><path d="M334.28 17.14A44 44 0 0 0 310.9 2.3 70 70 0 0 0 281.62.94a59 59 0 0 0-25.5 11.23 46 46 0 0 0-9.83 9.9 63 63 0 0 0-6.78 12.03 56 56 0 0 0-4.45 16.9 90 90 0 0 0 .27 18.27 2.47 2.47 0 0 0 2.4 2.4 2.4 2.4 0 0 0 2.4-2.4c-1.13-9.99-.99-20.25 2.4-29.8 2.78-7.88 7.3-15.78 13.68-21.28a55 55 0 0 1 22.9-11.85 63.5 63.5 0 0 1 27.06-.22c9.76 1.96 18.47 6.54 24.72 14.41a2.4 2.4 0 0 0 3.4 0 2.46 2.46 0 0 0 0-3.4Zm10.54 63.28a58 58 0 0 0 4.8-13.88 71 71 0 0 0 1.03-13.88c-.07-6.87-1.22-13.7-4.4-19.84a47 47 0 0 0-5.97-8.66 2.4 2.4 0 0 0-3.4 0 2.45 2.45 0 0 0 0 3.4 36 36 0 0 1 7.7 14.23c1.77 6.94 1.64 14.6.71 21.67A49 49 0 0 1 340.67 78a2.47 2.47 0 0 0 .86 3.28 2.4 2.4 0 0 0 3.29-.86" class="b"/><path d="M263.95 43.24a28 28 0 0 0-9.65 2.55 29.8 29.8 0 0 0-15.66 21.76 2.4 2.4 0 0 0 2.4 2.4 2.46 2.46 0 0 0 2.4-2.4c.62-4.76 3.48-9.62 7.03-13.1a21.5 21.5 0 0 1 13.47-6.41 2.47 2.47 0 0 0 2.4-2.4 2.4 2.4 0 0 0-2.4-2.4m8.39 3.46a55 55 0 0 0 13.52 6.22 52 52 0 0 0 7.8 1.92q1.85.31 3.72.44.8.05 1.6.05a8 8 0 0 1 1.88-.07c.72.19 1.1 1.25 1.44 1.83q1.04 1.76 2.04 3.53c.91 1.6 1.87 3.9 3.47 4.95 1.5 1 3.52 1.05 5.25 1.23.99.11 1.51.14 2.31.3a10 10 0 0 1 1.09.26c.5.15-.25-.28.07.04 0 0-.7-.67-.4-.36-.3-.32-.07-.23.02.09l.16.62q.18.75.29 1.5c.12.83.23 2.21.3 3.28.14 2.04.18 4.08.31 6.13a2.46 2.46 0 0 0 2.4 2.4 2.4 2.4 0 0 0 2.4-2.4c-.26-4.04-.11-8.23-1.07-12.18a4.7 4.7 0 0 0-3.6-3.86c-1.84-.49-4.26-.53-5.75-.8l-1.07-.23c-.5-.12.24.3-.06 0-.29-.29.15.11.18.14-.35-.3.33.48-.02-.01q-.2-.28-.37-.56-.47-.73-.9-1.47c-1.33-2.25-2.48-4.67-4-6.79a5.7 5.7 0 0 0-3.5-2.32 29 29 0 0 0-4.15-.08 36 36 0 0 1-7.28-1.24 52 52 0 0 1-15.66-6.7c-2.59-1.71-5 2.44-2.43 4.15Z" class="b"/></svg>
