<svg xmlns="http://www.w3.org/2000/svg" viewBox="0 -68.36 422.149 422.149"><defs><style>.a{fill:#fff}.b{fill:#7abee6}.c{fill:#85807f}.d{fill:#211715}.e{fill:none}.g{fill:#c6c6c6}</style></defs><path d="M76.23 144.41c-8.5 5.15-17.15 9.12-22.63 10.15a8 8 0 0 0-3.93-2.34 6.7 6.7 0 0 0-5.63.89c-2.3 1.68-3.35 5.19-3.2 8.07.41 7.96 4.72 13.19 12.25 16.24-3.58 6.3-4.5 8.99-5.07 17.66a11 11 0 0 0 .32 4.08l-1.87.35a70 70 0 0 1-7.34 1.02v1.6c12.34 2.14 22.14 8.09 30.2 15.98l2.24-7.73a56 56 0 0 1 2.81-7.2 2.33 2.33 0 0 1 2.75-1.38c4.7 1.26 11.94.56 17.24-1.39a13.4 13.4 0 0 0 7.34-6.8 28 28 0 0 0 2.27-6.76 67 67 0 0 0 1.4-10.09 11 11 0 0 1 2.43-4.54c1.86-2.01 4.86-3.58 3.32-7.06a6.5 6.5 0 0 0-2.97-2.98c-6.41-3.45-6.69-13.16-6.9-20.16a48 48 0 0 0-1.9-16.44c-4.68 6.16-13.83 13.2-23.13 18.83" class="a"/><path d="M90.7 263.57a265 265 0 0 0-4.5-19.21c-2.27-7.6-4.73-12.23-11.02-19.86-9.08-11-20.56-19.68-36.05-22.37-3.44-.6-7.36.93-10.37 2.7a31 31 0 0 0-7.73 6.22 34 34 0 0 0-5.45 8.64 44 44 0 0 0-4.91 13.5c-.84 5.28 2.29 10.28 11.2 16.88a219 219 0 0 0 20.63 13.69c19.46 10.93 49.19 6.16 49.19 6.16a47 47 0 0 0-1-6.35" class="b"/><path d="M60.06 93.56a45 45 0 0 0-6.39-.11l-.01-.05c-21.46 1.44-30.3 8.38-38.39 17.37C3.43 123.93 4.6 139.68 4.3 151.21c-.25 9.74-3.86 19.91-.52 30.7 4.24 13.72 19.1 22.1 42.7 17.6l1.86-.35a11 11 0 0 1-.31-4.07c.56-8.68 1.49-11.36 5.06-17.66-7.53-3.06-11.83-8.28-12.25-16.24-.15-2.89.9-6.4 3.2-8.08a6.7 6.7 0 0 1 5.64-.89 8 8 0 0 1 3.92 2.35c11.78-2.23 38.1-17.97 46.41-29.86a44 44 0 0 0-3.72-8.93c-5.36-9.42-14.85-17.55-25.91-20.46a64 64 0 0 0-10.32-1.76" class="c"/><path d="M50.47 198.08c-.33-.31.05.02.06.12 0 .27-.07-.3-.09-.37a5 5 0 0 1-.06-.88q-.02-1.12.07-2.26a50 50 0 0 1 .66-6.04 28 28 0 0 1 3.64-9.29c1.5-2.7-2.64-5.12-4.14-2.42a34 34 0 0 0-4.26 11.24 63 63 0 0 0-.74 7.21c-.09 2.06-.13 4.54 1.47 6.09 2.22 2.14 5.62-1.25 3.4-3.4" class="d"/><path d="M29.97 204.17a28 28 0 0 0 .64-5.41l-.06-.57" class="e"/><path d="M73.9 211.01a45 45 0 0 1 2.02-5.44q.27-.56.52-1.14c.06-.14.34-.45.11-.33s.16.08.41.13a32 32 0 0 0 11.6.11c3.43-.52 7.16-1.4 10.02-3.44a19 19 0 0 0 6.73-9.76 57 57 0 0 0 2.37-12.81 7 7 0 0 1 1.7-4.25c1.03-1.2 2.31-2.12 3.27-3.4 2.6-3.47.84-7.76-2.44-10.05a13 13 0 0 1-3.14-2.4 12 12 0 0 1-1.93-3.86 39 39 0 0 1-1.42-10.33c-.08-2.21.04-4.42-.04-6.63a55 55 0 0 0-.77-7.36 2.4 2.4 0 0 0-2.96-1.67 2.45 2.45 0 0 0-1.67 2.95c.68 3.98.48 7.91.61 11.92a60 60 0 0 0 .97 9.85 18.5 18.5 0 0 0 4.01 8.73 24 24 0 0 0 3.91 2.95 3.5 3.5 0 0 1 1.24 1.57 1.2 1.2 0 0 1-.03 1.21c-.57 1.07-1.88 1.92-2.77 2.86a13 13 0 0 0-3.03 5.33 39 39 0 0 0-.62 5.38 56 56 0 0 1-1.21 6.4c-.88 3.45-2.26 7-5.2 9.22-2.55 1.94-6.2 2.63-9.35 3.03a31 31 0 0 1-6.3.17c-1.9-.15-3.77-1.01-5.65-.3-1.72.66-2.45 2.06-3.15 3.63a54 54 0 0 0-2.45 6.45c-.88 2.97 3.75 4.24 4.63 1.28Zm-18.23-57.74a10.6 10.6 0 0 0-10.03-3.47c-3.5.75-5.8 3.8-6.7 7.1-1.63 5.87.58 12.76 4.67 17.12a25 25 0 0 0 8.86 5.72 2.4 2.4 0 0 0 2.96-1.67 2.46 2.46 0 0 0-1.68-2.96c-5.2-2.14-9.15-6-10.24-11.63-.5-2.56-.49-5.65 1.25-7.79 2.1-2.58 5.67-1.03 7.52.97 2.11 2.26 5.5-1.14 3.4-3.4Z" class="d"/><path d="M93.98 152.01c.8 2.02.85 6.81-2.84 7.55-4.92.41-5.72-5.32-4.31-8.17 1.15-2.34 5.05-3.62 7.15.62" class="d"/><path d="M104.82 179.77a16 16 0 0 0-8.16 1.12" class="e"/><path d="M97.36 124.3c-3.78 4.95-9.62 9.5-14.97 13.24A125 125 0 0 1 63 148.76a50 50 0 0 1-8.89 3.24c-3 .74-1.73 5.37 1.28 4.63 6.5-1.6 12.7-4.8 18.5-8.08a123 123 0 0 0 19.64-13.57 55 55 0 0 0 7.97-8.27 2.4 2.4 0 0 0-.86-3.28 2.46 2.46 0 0 0-3.28.86Z" class="d"/><path d="M104.59 136.14c-.84-10.23-4.22-20.1-10.75-28.1a44.7 44.7 0 0 0-23.4-15.2 57 57 0 0 0-16.77-1.8L56 92.82l-.01-.05A2.4 2.4 0 0 0 53.66 91c-11.18.78-22.5 3.18-31.59 10.1a58 58 0 0 0-9.92 9.65 43 43 0 0 0-8.47 17.55 83 83 0 0 0-1.7 17.41c-.04 2.69-.02 5.38-.22 8.05-.27 3.64-.87 7.24-1.3 10.86-.8 6.84-.8 13.92 1.9 20.38a27 27 0 0 0 7.9 10.66c10.34 8.25 24.4 8.5 36.85 6.17a2.4 2.4 0 0 0 1.67-2.95 2.45 2.45 0 0 0-2.95-1.68c-10.1 1.9-21.6 1.95-30.46-3.74a22.3 22.3 0 0 1-7.68-8.33c-2.63-4.92-3.2-11.15-2.77-16.96.47-6.48 1.73-12.82 1.82-19.34a112 112 0 0 1 .83-15.35 42 42 0 0 1 5.67-16.07 49 49 0 0 1 9.54-10.74 40 40 0 0 1 11.64-7.03 66 66 0 0 1 19.24-3.84l-2.31-1.76v.05a2.4 2.4 0 0 0 2.32 1.76c8.68-.46 17.98 1.3 25.5 5.78a41.5 41.5 0 0 1 16.75 18.76 50 50 0 0 1 3.87 15.76 2.46 2.46 0 0 0 2.4 2.4 2.4 2.4 0 0 0 2.4-2.4Z" class="d"/><path d="M64.42 170.34c-.22 3.41-.77 7.11.98 10.25a6.58 6.58 0 0 0 10.27 1.54 7.7 7.7 0 0 0 1.52-6.14 2.6 2.6 0 0 0-.7-1.7 2.4 2.4 0 0 0-1.7-.7c-1.16.05-2.57 1.06-2.4 2.4a11 11 0 0 1 .06 2.05c-.03.57.1-.43 0-.04l-.1.44-.14.42c.01-.05.28-.54.1-.24l-.13.2-.13.2c.01-.02.35-.35.19-.24a1 1 0 0 0-.3.3c.03-.05.5-.33.19-.17l-.16.1c-.05.04-.14.05-.18.1.28-.28.44-.15.14-.08a2 2 0 0 0-.5.12c.03-.04.63-.05.17-.03h-.78c-.24 0-.2-.14.21.04l-.26-.05-.44-.13c-.48-.13.4.23.07.03l-.35-.2c-.42-.23.38.37.04.04q-.15-.13-.27-.27c-.12-.14-.37-.43-.09-.08s0 0-.05-.1l-.2-.36-.16-.32c-.11-.2.15.39.14.34l-.07-.18q-.11-.33-.2-.67-.08-.29-.13-.58l-.05-.25c-.08-.46 0 .18.04.31a5 5 0 0 1-.1-1.27q-.01-.78.02-1.56c.06-1.17.17-2.34.25-3.51a2.4 2.4 0 0 0-2.4-2.4 2.46 2.46 0 0 0-2.4 2.4Zm40.24 7.02c-1.6-.12-3.2-.12-4.8-.1q-.89 0-1.76.08a4.5 4.5 0 0 0-1.9.58 4.7 4.7 0 0 0-1.76 1.75 2.4 2.4 0 0 0 4.14 2.42l.1-.18c-.12.37-.32.39-.1.18.06-.06.3-.25-.02 0-.33.26 0 .02.06-.02.04-.02.2-.08.22-.11 0 0-.57.24-.27.12l.13-.02-.63.08a23 23 0 0 1 3.01-.08c1.2 0 2.39 0 3.57.1a2.4 2.4 0 0 0 2.4-2.4 2.46 2.46 0 0 0-2.4-2.4ZM94.09 269.9a34 34 0 0 0-1.1-7.06q-1.07-5.4-2.33-10.76c-1.79-7.62-3.83-15.17-8.15-21.8a78 78 0 0 0-19.73-20.8 58 58 0 0 0-12.3-6.67 53 53 0 0 0-6.72-2.16 22 22 0 0 0-7.69-.97c-5.78.7-11.37 4.27-15.44 8.3a38 38 0 0 0-8.82 14.83c-1 2.93 3.64 4.19 4.63 1.28a33 33 0 0 1 6.72-11.82 26 26 0 0 1 11.68-7.5 13 13 0 0 1 6.47.22 54 54 0 0 1 6.63 1.97 53 53 0 0 1 11.34 5.92 72 72 0 0 1 18.23 18.56 44 44 0 0 1 5.45 10.65c1.06 3.06 1.85 6.2 2.61 9.34q1.4 5.77 2.57 11.59.48 2.33.88 4.65l.16.95.05.33c.09.56-.06-.55 0-.04a8 8 0 0 1 .06 1c-.07 3.08 4.73 3.08 4.8 0M81.78 145.92l-.46 1.23.24-.58a7 7 0 0 1-.85 1.5l.38-.48a4 4 0 0 1-.74.75l.49-.38-.29.2a2.5 2.5 0 0 0-1.1 1.43 2 2 0 0 0-.04.96 2 2 0 0 0 .28.9 2.4 2.4 0 0 0 3.29.85 7 7 0 0 0 2.29-2.4 17 17 0 0 0 1.14-2.7 2 2 0 0 0 .04-.97 2 2 0 0 0-.28-.89 2.4 2.4 0 0 0-3.29-.86l-.48.38a2.4 2.4 0 0 0-.62 1.06" class="d"/><path d="M49.6 176.18c-3.62-.1-6.2 2.37-6.28 5.35-.1 3.34 2.4 5.7 5.97 5.8 3.7.11 6.18-2.14 6.28-5.45.08-3-2.37-5.6-5.97-5.7" class="a"/><path d="M49.6 173.78a8.5 8.5 0 0 0-8.23 5.35 7.9 7.9 0 0 0 2.8 8.98 9.6 9.6 0 0 0 9.6.66 7.8 7.8 0 0 0 4.1-8.12c-.55-4.13-4.3-6.7-8.27-6.87a2.4 2.4 0 0 0-2.4 2.4 2.45 2.45 0 0 0 2.4 2.4 2 2 0 0 1 .55.04c-.3-.16-.34-.07-.1-.01q.42.08.83.2a2 2 0 0 1 .48.16c-.22-.2-.35-.16-.13-.04q.42.23.82.49c.42.27-.25-.29-.06-.04l.29.26.26.27c.32.33-.1.04-.05-.07-.01.02.37.58.4.63.04.07.2.5.07.12l.09.28.07.28.04.15q.06.4-.02-.19a4 4 0 0 0 .04.77l-.02.32c-.01.55.12-.55 0-.02l-.2.81c-.07.3-.22.2.06-.1l-.16.33c-.1.21-.26.4-.37.61-.15.27.4-.43.06-.1l-.2.21-.31.3c-.36.33.45-.29.02-.03l-.63.37c-.46.26.52-.17.01 0l-.3.1-.77.2c-.55.14.56-.03-.02.01l-.52.04a8 8 0 0 1-.9-.02 1 1 0 0 1-.34-.03l.3.04-.33-.06a7 7 0 0 1-.78-.22l-.3-.1q.5.2.14.05l-.27-.14c-.09-.04-.57-.43-.64-.4.04-.02.45.39.14.1l-.32-.3-.2-.22c-.34-.35.2.36.06.09-.12-.24-.29-.47-.42-.7-.26-.44.16.53 0 .03q-.03-.14-.1-.28c-.06-.14-.08-.7-.16-.75l.04.33-.03-.65.02-.47c.02-.52-.13.53 0 .04a4 4 0 0 0 .25-.86c.06.18-.21.44-.06.16l.3-.52.17-.25q-.35.43-.1.14l.15-.17q.12-.14.26-.27c.43-.4-.02-.04-.01-.02-.02-.07.69-.44.8-.5l.14-.08c-.33.19.25-.08.33-.1l.33-.1c.14-.03.87-.27.2-.07a4 4 0 0 1 1.1-.05 2.4 2.4 0 1 0 0-4.8" class="d"/><path d="m278.27 119.46-3.34-.37 1.23 15.02c.45 4.73 1.1 9.45 1.86 14.09a63 63 0 0 0 30.77 2.06 64 64 0 0 0 22.08-6.84 212 212 0 0 0 5.53-18.23 42 42 0 0 1-6.94-.2Z" class="a"/><path d="M299.8 219.91a207 207 0 0 1-8.22-19.74 331 331 0 0 1-13.55-51.98 63 63 0 0 0 30.76 2.07 64 64 0 0 0 22.08-6.84q-1.57 4.58-3.06 9.03c-6.86 20.95-21.4 56.26-26.23 67.01Z" class="b"/><path d="M329.06 148.72q-.64 1.87-1.25 3.73c-7.44 22.7-23.88 62.25-27.22 69.16a219 219 0 0 1-9.01-21.44c-3.84-11.08-13.06-39.38-15.55-67.48-9.4 2-25.11 7.59-31.51 14.8-6.92 7.8-9.63 18.7-12 25.4-2.63 7.48-7.16 28.34-9.16 44.02-1.98 15.4-2 24.23.18 34.47 1.08 5.11 5.32 12.65 12.12 15.73 6.53 2.95 13.96 3.42 20.17.61.45 1.39 1.2 3.63 2.02 6.07a13.6 13.6 0 0 0 12.86 9.25h136.23a32.6 32.6 0 0 0 11.34-16.86c.99-3.15 1.58-10.95 1.48-14.43-.12-4.34-2.07-16.1-3.12-21.88-1.9-11.12-4.61-20.86-7.21-30.47-2.52-9.33-8.15-32.27-17.06-45.12-9.82-14.17-24.15-20.54-41.41-25.58l-10.83-5.15-3.03-1.43c-2.12 9.71-5.23 18.3-8.04 26.6" style="fill:#b3b3b3"/><path d="M265.9 133c-6.62 2.23-13.39 4.98-19.02 9.2-5.36 4-8.93 9.7-11.56 15.8a170 170 0 0 0-9.46 30.96c-2.94 13.5-5.42 27.31-6.2 41.14a84 84 0 0 0 .78 17.73 35 35 0 0 0 1.84 7.58 30 30 0 0 0 4.65 7.84c7.97 9.66 24.1 11.77 34.12 4.12a23 23 0 0 0 3.66-3.47 2.47 2.47 0 0 0 0-3.4 2.4 2.4 0 0 0-3.39 0 18.6 18.6 0 0 1-14.52 6.7c-5.45 0-11.15-1.83-15.04-5.75-3.71-3.74-5.54-8.36-6.44-13.45a75 75 0 0 1-.96-15.83c.5-13.02 2.8-26.02 5.46-38.75a214 214 0 0 1 8-28.73c2.2-6.15 5.08-12.7 10.04-17.14 5.34-4.8 12.6-7.66 19.32-9.92 2.9-.98 1.66-5.62-1.28-4.63m82.58 5.05a33 33 0 0 1 2.92 5.14 13 13 0 0 1 1.27 3.48v-1.27q.99-1.37.51-.92.58-.44.27-.22l-.44.28q-.57.33-1.15.63a123 123 0 0 1-3.68 1.86l-7.4 3.56a2.42 2.42 0 0 0-.49 3.77q2.77 2.96 5.5 5.96c.93 1.02 1.88 2.04 2.76 3.12a1.8 1.8 0 0 1 .5 2.09 45 45 0 0 1-2.45 4.3q-1.48 2.54-3 5.05-7.5 12.47-15.55 24.6-4.82 7.3-9.84 14.45a2.4 2.4 0 0 0 .86 3.29 2.45 2.45 0 0 0 3.28-.86 641 641 0 0 0 17.93-26.97q3.89-6.15 7.64-12.38 1.58-2.63 3.12-5.28a26 26 0 0 0 2.7-5.08c1.06-3.47-1.22-5.98-3.35-8.38-2.2-2.48-4.46-4.88-6.71-7.31l-.49 3.77c4.01-1.95 8.16-3.71 12.03-5.93a5 5 0 0 0 1.8-1.5c.64-1.06.25-2.29-.14-3.36a35 35 0 0 0-4.26-8.32 2.47 2.47 0 0 0-3.28-.86 2.4 2.4 0 0 0-.86 3.28Zm-74.72-3.94a261 261 0 0 0 7.7 41.14 324 324 0 0 0 8.49 27.5c2.27 6.25 5 12.33 7.78 18.37a2.4 2.4 0 0 0 3.28.86 2.46 2.46 0 0 0 .86-3.28 239 239 0 0 1-10.68-27.28 331 331 0 0 1-8.97-33.77 224 224 0 0 1-3.66-23.54 2.47 2.47 0 0 0-2.4-2.4 2.4 2.4 0 0 0-2.4 2.4" class="d"/><path d="M408.64 284.74a35.8 35.8 0 0 0 12.08-18.33 50 50 0 0 0 1.3-9.73 46 46 0 0 0-.08-7.79 290 290 0 0 0-8.9-45.3c-3.42-12.72-6.65-25.53-11.8-37.68a66 66 0 0 0-10.86-18.05 59 59 0 0 0-16.75-12.98 114 114 0 0 0-20.89-8.15c-.12-.04-1.08-.27-.6-.1l-.13-.07q-.39-.17-.78-.37l-2.7-1.29-6.05-2.88-1.14-.54a2.47 2.47 0 0 0-3.29.86 2.4 2.4 0 0 0 .86 3.29l9.77 4.64a56 56 0 0 0 6.92 2.36 111 111 0 0 1 9.87 3.65A62 62 0 0 1 382.82 147a53 53 0 0 1 11.87 16.06c5.61 11.33 8.88 23.7 12.13 35.87 2.11 7.91 4.31 15.8 6.01 23.81a324 324 0 0 1 3.66 20.98c1.64 11.4 1.38 24-6.58 33.16a37 37 0 0 1-4.67 4.46 2.4 2.4 0 0 0 0 3.39 2.46 2.46 0 0 0 3.4 0ZM284.54 152.4a72 72 0 0 0 24.92.17 71 71 0 0 0 22.61-7.07c2.74-1.43.31-5.58-2.42-4.14a62 62 0 0 1-20.63 6.47 87 87 0 0 1-11.6 1.04 60 60 0 0 1-11.6-1.1 2.46 2.46 0 0 0-2.96 1.69 2.4 2.4 0 0 0 1.68 2.95Z" class="d"/><path d="M334.47 122.92c-2 8.59-4.92 16.89-7.75 25.23-2.1 6.17-4.17 12.35-6.43 18.46a1030 1030 0 0 1-20.78 51.64 2.47 2.47 0 0 0 .86 3.28 2.4 2.4 0 0 0 3.29-.86 777 777 0 0 0 12.6-30.25 674 674 0 0 0 14.08-37.94c3.1-9.38 6.52-18.65 8.76-28.28.7-3.01-3.92-4.3-4.62-1.28Z" class="d"/><path d="M262.17 174.17a105 105 0 0 1-4.57-13.13c-.64-2.35-.73-4.1-2.63-5.38-1.64-1.11-4.44-1.2-5.89.35a10.3 10.3 0 0 0-2.57 5.8 10.5 10.5 0 0 0 .62 5.96l-.66-2.25-3.59-12.36a4.3 4.3 0 0 0-1.07-3.32 3.5 3.5 0 0 0-1.54-.9 10 10 0 0 0-7.56 2.75 16 16 0 0 0-4.22 7.02l-1 3.28-2.71 10.66c.08 5.03-.2 8.65-.12 13.68a19 19 0 0 0 1.68 7.1 21 21 0 0 0 6.33 7.41c2.49 1.85 2.33 5.04 1.5 8.03q-.2.7-.46 1.47a6.3 6.3 0 0 0 1.73 6.82c3.94 3.53 8.55 4.03 14.21 3.31a31 31 0 0 0 5.98-1.18 8.3 8.3 0 0 0 4.56-5.49c.66-2.09.52-4.1.7-6.55.22-3.28 0-5.45 1.23-8.5.81-2.02 2.04-3.86 2.78-5.9 2.2-6.1-.28-12.8-2.73-18.8" class="a"/><path d="M222.38 172.65c.12 8.21-1.6 17.11 3.3 24.33a22 22 0 0 0 3.76 4.32c1.2 1.05 2.67 1.74 2.86 3.46.2 1.85-.53 3.57-1.02 5.3a9 9 0 0 0 .64 6.37c1.7 3.43 5.9 5.64 9.52 6.33a33 33 0 0 0 12.06-.46 10.3 10.3 0 0 0 8.72-7.05c1.53-3.93.83-8.41 1.32-12.52a19 19 0 0 1 2.37-6.3 19 19 0 0 0 2.2-7.48c.38-5.38-1.64-10.64-3.63-15.53a2.5 2.5 0 0 0-2.95-1.68 2.4 2.4 0 0 0-1.67 2.96c1.58 3.9 3.29 8 3.47 12.26a13 13 0 0 1-.95 5.76c-.8 1.9-1.91 3.66-2.66 5.6-1.39 3.6-1.19 7.72-1.36 11.52-.13 2.87-1.06 6.45-3.97 7.33a29 29 0 0 1-10.37 1.12c-2.7-.2-6.4-1.4-7.8-3.96-.84-1.57-.3-2.9.16-4.47a15 15 0 0 0 .7-5.27 7.8 7.8 0 0 0-2.16-4.98c-1.25-1.25-2.74-2.18-3.92-3.52a15.4 15.4 0 0 1-3.93-9.5c-.22-4.64.18-9.3.1-13.94-.04-3.09-4.84-3.1-4.8 0" class="d"/><path d="M228.28 178.01a62 62 0 0 1 14.96-1.33c2.02.02 3.72.21 4.9 1.62.64.78 1.42 1.9.97 2.86a3 3 0 0 1-1.13 1.05q-1.08.7-2.1 1.5a2.4 2.4 0 0 0 0 3.4 2.46 2.46 0 0 0 3.4 0 23 23 0 0 0 3.2-2.45 6.3 6.3 0 0 0 1.45-5.13 9.5 9.5 0 0 0-4.83-6.5 14 14 0 0 0-6.45-1.15q-3.5.04-7 .3a53 53 0 0 0-8.66 1.2c-3 .75-1.72 5.38 1.28 4.63Z" class="d"/><path d="M234.38 188.08c2.26-.6 4.5-1.33 6.8-1.71l.46-.07c-.05 0-.36.03-.07.01l.79-.07a13 13 0 0 1 1.69.01l.45.04c.28.03-.03 0-.08 0l.64.13c.48.06-.4-.2-.07-.04l.2.13c-.05.01-.42-.4-.2-.16l.3.31c.17.14-.18-.21-.17-.24l.14.22.21.4c.13.19-.1-.26-.1-.27l.1.33q.08.23.14.47c.03.12.1.65.06.25s0 .14.01.26q.03.3.01.58l-.03.51c-.03.55.1-.4 0 .01-.08.34-.2.68-.27 1.02-.05.23.1-.25.1-.26l-.1.25-.24.39c-.24.42.32-.28.03-.04-.21.18-.4.42-.6.63q-.55.54-1.15 1.04l-.28.24c.13-.12.28-.21.05-.05l-.59.43q-1.45 1-2.93 1.94a2.4 2.4 0 0 0 2.43 4.14 38 38 0 0 0 5.65-4.14 8 8 0 0 0 1.88-2.4 10 10 0 0 0 .83-3.27 8 8 0 0 0-1.66-5.69c-1.54-1.87-4.19-2.1-6.45-1.97a47 47 0 0 0-9.25 2.01 2.4 2.4 0 0 0 1.27 4.63m10.9-34.92c-.02-2.47-.87-4.82-3.15-6.05-2.33-1.27-5.43-.46-7.7.57-4.24 1.93-6.94 6.17-8.29 10.49l-.96 3.18a2.4 2.4 0 0 0 1.67 2.96 2.45 2.45 0 0 0 2.95-1.68l.94-3.1a15 15 0 0 1 .84-2.18 17 17 0 0 1 .84-1.55l.4-.63.3-.4q-.19.22.08-.11a14 14 0 0 1 1.2-1.27c.08-.07.72-.59.5-.42q.3-.23.62-.43.42-.27.87-.5l.46-.21q-.23.09 0 0a9 9 0 0 1 1.81-.5c-.4.07.34-.02.35-.02h1c0 .03-.9-.27-.22-.01l.25.16q-.32-.28-.04-.04l.26.27q-.23-.3 0 .02c.3.44-.06-.36.07.15.04.12.16.93.11.37q.04.47.04.93a2.4 2.4 0 0 0 4.8 0" class="d"/><path d="M213.42 172.34a3.2 3.2 0 0 0-1.15 4.38l1.56 2.67a3.2 3.2 0 0 0 4.38 1.16l3.76-2.23-4.8-8.21Z" class="g"/><path d="m217.18 170.1 4.8 8.22 26.84-15.92-4.8-8.2Z" class="a"/><path d="m260.63 152.97-2.68-4.58a2.1 2.1 0 0 0-2.87-.75l-11.06 6.55 4.8 8.2 11.06-6.55a2.1 2.1 0 0 0 .75-2.87" style="fill:#febe69"/><path d="m250.85 161.12-4.8-8.21a2.4 2.4 0 1 0-4.14 2.42l4.8 8.2a2.4 2.4 0 0 0 4.14-2.41" class="d"/><path d="m219.43 182.62 19.22-11.4c7.37-4.37 14.8-8.64 22.11-13.12a4.67 4.67 0 0 0 1.85-6.5c-.59-1.07-1.24-2.12-1.86-3.17a7 7 0 0 0-2.56-2.98c-2.97-1.55-6.3 1.29-8.76 2.74l-26.99 16-9.36 5.56a6.7 6.7 0 0 0-3.36 3.59 6.2 6.2 0 0 0 .85 5.22 14 14 0 0 0 2.22 3.32 5.7 5.7 0 0 0 6.64.74c2.74-1.42.32-5.56-2.43-4.15-.84.44-1.22-.5-1.58-1.11-.32-.56-1.22-1.6-1.2-2.27 0-.65.98-1.02 1.46-1.3l8.8-5.23 25.58-15.16 4.24-2.51c.38-.23 1.73-.73 1.93-1.15.05-.1.38.03-.2 0 .07 0-.13-.18-.15-.13s.22.36.24.41c.56 1.06 1.21 2.07 1.81 3.1.12.2.37.87.58.98.3.16-.2-.45.15-.32-.07-.02-.4.23-.46.27l-20.58 12.2c-6.75 4-13.57 7.9-20.25 12l-.37.22c-2.65 1.58-.24 5.73 2.43 4.15" class="d"/><path d="m215.12 171.34 4.8 8.21a2.4 2.4 0 0 0 4.14-2.42l-4.8-8.2a2.4 2.4 0 1 0-4.14 2.41" class="d"/><path d="M248.02 169.77a12.4 12.4 0 0 1-1.51-7.96 10.3 10.3 0 0 1 2.57-5.8c1.45-1.55 4.24-1.47 5.9-.36 1.9 1.28 1.98 3.03 2.62 5.38a91 91 0 0 0 4.57 13.02" class="a"/><path d="M249.65 167.63a16 16 0 0 1-.64-1.73l-.19-.82q-.07-.42 0 0l-.04-.46a12 12 0 0 1 .5-4.27 8 8 0 0 1 .94-1.93q.27-.36.57-.7.32-.3.06-.1l.42-.25c-.32.15.47-.12.58-.14-.38.06.51.01.61.02a3 3 0 0 1 1.01.3 1 1 0 0 1 .42.28l.33.35q-.21-.28.03.06l.22.4.02.05q.16.45.28.9c.43 1.6.82 3.2 1.3 4.8a110 110 0 0 0 3.79 10.41 2.5 2.5 0 0 0 2.95 1.68 2.4 2.4 0 0 0 1.68-2.96 112 112 0 0 1-3.54-9.58 72 72 0 0 1-1.31-4.63 11 11 0 0 0-1.37-3.68 7.5 7.5 0 0 0-7.94-2.98c-3.21.76-5.16 4.17-5.9 7.16a14.5 14.5 0 0 0 .59 9.1 2.5 2.5 0 0 0 2.95 1.67 2.4 2.4 0 0 0 1.68-2.95" class="d"/><path d="M329.46 125c13.39 1.45 23.43-3.25 29.58-12.09a29.8 29.8 0 0 0 5.22-20.2c-1.1-9.44-3.09-17.18-4.74-28.41-1.39-9.46-1.62-21.48-5.05-29.81-2.3-5.56-6.94-13.9-14.42-19.1l-8.63-5.53-1.25-.82a64 64 0 0 0-25.1-6.51c-17.5-1.13-32.48 5.95-39.82 12.1-8.26 7.74-11.98 15.77-16.62 31.04-3.01 10-6.16 22.17-8.68 32.3-2.16 8.72-2.9 17.57.98 25.67 3.06 6.33 8.3 10.63 15.8 13.5Z" class="c"/><path d="M308.56 128.37a61 61 0 0 0 14.67-9.04 63 63 0 0 0 7.55-8.2s2.22-2.96 3.18-4.66l.66-1.15a14 14 0 0 0 7.8-1.05 19.6 19.6 0 0 0 7.98-8.17c2.07-3.53 3.3-9.63 1.93-13.33-.46-1.24-1.67-3.43-5.33-4.25a7.5 7.5 0 0 0-5.47.81l-7.94.87c-3.8-1.98-5.52-4.8-7.38-9.15-2.83-6.62-3.43-14.9-7.54-20.32a11.5 11.5 0 0 0-9.4-4.86s-4.94-.38-7-.54c-3.83-3.12-10.58-1.88-15.45-.25a20 20 0 0 0-5.63 3.14c-5.78 4.4-9.79 10.38-15.01 15.32-4.94 4.66-10.32 6.37-17.52 5.3q.27 4.52.45 9c.18 4.71.3 9.34.48 13.72.35 8.68 1.97 16.84 5.87 23.46a29 29 0 0 0 5.22 6.57c8.15 7.66 17.12 11.2 28.23 11q2.66-.07 5.2-.36a69 69 0 0 0 14.46-3.85Z" class="a"/><path d="M295.29 84.9c-.49-2.45.56-7.85 5.1-7.84 5.92.65 5.55 7.27 3.23 10.16-1.9 2.36-6.82 2.91-8.33-2.33m-35.32-2.57c-.43-2.45.56-7.86 4.72-7.89 5.42.62 5.04 7.26 2.9 10.17-1.75 2.38-6.26 2.97-7.62-2.28m17.84 6.93a51 51 0 0 0-2.44 3.82 5 5 0 0 0-.75 2.25 3.3 3.3 0 0 0 1.1 2.58 5 5 0 0 0 1.95 1.15c.28.1.58.11.87.18a2.5 2.5 0 0 0 1.85-.24 2.4 2.4 0 0 0-.58-4.39 6 6 0 0 1-1.08-.25l.58.24a3 3 0 0 1-.45-.26l.49.38a4 4 0 0 1-.47-.46l.37.49-.1-.15.24.57-.07-.25.1.64v-.27l-.09.64a3 3 0 0 1 .15-.47l-.25.58a19 19 0 0 1 1.36-2.3q.67-1.05 1.36-2.05a2.4 2.4 0 0 0-2.71-3.53 2.7 2.7 0 0 0-1.44 1.1Zm64.93-7.86a5.9 5.9 0 0 1 6.03.43l.4.35.33.35q.19.27.34.55c.05.08.3.6.17.3s.11.35.15.46a8 8 0 0 1 .26 1.09 13 13 0 0 1-.11 4.1c-.9 5.37-4.25 10.86-9.27 13.25.42-.2-.22.08-.37.13q-.45.15-.92.27a13 13 0 0 1-1.9.35 8 8 0 0 1-4.55-.67c-2.71-1.5-5.14 2.65-2.43 4.14 3.35 1.84 7.65 1.73 11.2.5a19 19 0 0 0 8.8-7.17 23 23 0 0 0 4.13-9.89c.53-3.37.57-7.24-1.56-10.11a10.36 10.36 0 0 0-13.12-2.57c-2.69 1.52-.27 5.67 2.42 4.14" class="d"/><path d="M309.77 130.45c10.77-4.7 20.32-12.52 26.27-22.77 1.55-2.68-2.6-5.1-4.15-2.42a45 45 0 0 1-4.18 5.88 54 54 0 0 1-6.4 6.69q-.31.27-.65.53l-.4.32-.16.13q-1.56 1.19-3.2 2.27a62 62 0 0 1-9.55 5.22 2.4 2.4 0 0 0-.86 3.29 2.46 2.46 0 0 0 3.28.86" class="d"/><path d="M307.93 126.06a57 57 0 0 1-19.43 4.12 36 36 0 0 1-16.95-3.72 34.5 34.5 0 0 1-13.8-12.3c-3.4-5.59-4.92-12.14-5.5-18.6-.77-8.52-.63-17.12-1.13-25.66-.18-3.07-4.98-3.09-4.8 0 .47 8.03.44 16.1 1 24.11.5 7.24 1.93 14.55 5.38 21 6.35 11.88 19.6 19.2 32.82 19.91 8.12.44 16.12-1.36 23.68-4.23a2.47 2.47 0 0 0 1.68-2.95 2.4 2.4 0 0 0-2.95-1.68" class="d"/><path d="M257.38 114.81c-5.06-1.96-9.82-5.02-12.83-9.63-3.6-5.55-4.41-12.17-3.76-18.64.7-6.82 2.86-13.57 4.59-20.2a539 539 0 0 1 5.45-19.64c3-9.99 6.43-20.2 13.66-27.92a38 38 0 0 1 11.36-8.05 59 59 0 0 1 16.67-5.24 61 61 0 0 1 22.13.7c5.29 1.1 11 2.76 15.56 5.74 2.6 1.7 5-2.46 2.43-4.14a36 36 0 0 0-6.25-3.04A61 61 0 0 0 318 2.03 68 68 0 0 0 296.56.2a64 64 0 0 0-19.33 4.67 50 50 0 0 0-13.68 8.06c-8.38 7.38-12.73 17.95-16.06 28.32-2.2 6.85-4.1 13.8-5.93 20.75-1.86 6.99-4.02 14.05-5.13 21.2-1.26 8.1-.77 16.63 3.6 23.8 3.7 6.05 9.57 9.92 16.07 12.44a2.4 2.4 0 0 0 2.95-1.68 2.46 2.46 0 0 0-1.67-2.95m81.45-97.35c6.37 4.5 11.33 11.97 13.84 19 3.11 8.72 3.14 18.27 4.37 27.34 1.28 9.35 3.53 18.53 4.7 27.89a28 28 0 0 1-7.87 23.66c-6.5 6.43-15.57 8.16-24.41 7.25a2.4 2.4 0 0 0-2.4 2.4 2.45 2.45 0 0 0 2.4 2.4c8.93.92 18.06-.8 25.25-6.42a32.4 32.4 0 0 0 12.12-24.65c.09-4.7-.92-9.49-1.74-14.1-.88-4.93-1.86-9.85-2.67-14.8-1.61-9.86-1.63-20.1-4.33-29.75a45.5 45.5 0 0 0-16.83-24.37 2.4 2.4 0 0 0-3.29.86 2.45 2.45 0 0 0 .86 3.28" class="d"/><path d="M301.87 42.26c-4.05-1.76-8.48-1.4-12.68-.37a27 27 0 0 0-11.55 6.13 108 108 0 0 0-9.14 9.64c-2.6 2.88-5.27 5.8-8.8 7.54-3.63 1.8-7.81 1.82-11.72 1.11a2.47 2.47 0 0 0-2.96 1.68 2.4 2.4 0 0 0 1.68 2.95 26 26 0 0 0 11.85-.19 23 23 0 0 0 9.63-5.81c3.1-2.98 5.79-6.34 8.71-9.47 2.83-3.04 6.03-6.28 9.95-7.85a27 27 0 0 1 6.52-1.67 12 12 0 0 1 6.09.46 2.5 2.5 0 0 0 3.28-.86 2.4 2.4 0 0 0-.86-3.29m7.39 6c8.09-.12 10.4 9.34 12.09 15.52 1.89 6.96 4.21 14.84 11.02 18.48 2.73 1.46 5.15-2.68 2.43-4.14-6.57-3.51-7.8-12.21-9.68-18.7-1.1-3.8-2.47-7.62-5-10.72a14 14 0 0 0-10.86-5.23c-3.09.04-3.1 4.84 0 4.8M279.4 111.2c.18-.23.54-.77.83-.87l-.15.12.22-.14.52-.3c.55-.29-.32.08.14-.08l.5-.17q.6-.17 1.2-.28c.5-.1-.49.04.06 0l.53-.05a12 12 0 0 1 1.35-.02q.32.01.62.05c-.56-.07.05.03.17.06l.3.07c.12-.01.37.19.46.24.13.08.58.26.08.02a2 2 0 0 1 .44.41l.18.2q.25.3-.06-.09s.27.42.28.44l.16.3-.1-.25c.12.14.14.51.2.69.14.47 0-.44.01.1v.56c0 .49.11-.43-.03.2a2 2 0 0 1-.18.62l.07-.14-.13.25a2 2 0 0 1-.3.47q.29-.36.03-.06l-.25.25c-.31.35.35-.17-.08.07l-.24.13q-.24.12.17-.07l-.34.1q.53-.05.12-.02a2.4 2.4 0 1 0 0 4.8 6.1 6.1 0 0 0 5.15-3.5 7.6 7.6 0 0 0 .1-6.45 7.4 7.4 0 0 0-4.3-3.82 12 12 0 0 0-5.93-.15 8.6 8.6 0 0 0-5.2 2.91 2.6 2.6 0 0 0-.7 1.7 2.4 2.4 0 0 0 .7 1.7c.86.79 2.57 1.06 3.4 0m82.46 100.62 8.04 29.47c.82 2.97 5.45 1.71 4.63-1.28l-8.05-29.46c-.8-2.98-5.44-1.72-4.62 1.27m-65.2-104.55q.46.88.85 1.79l-.24-.57a24 24 0 0 1 1 2.85 2.5 2.5 0 0 0 1.1 1.43 2.4 2.4 0 0 0 3.28-.86 2.5 2.5 0 0 0 .24-1.85 27 27 0 0 0-2.09-5.22 2.4 2.4 0 0 0-4.38.58 2.6 2.6 0 0 0 .24 1.85" class="d"/><path d="M177.66 53.92a72 72 0 0 1 12.54 2.54c9.91 3.54 15.55 10.78 15.42 21.31-.05 3.91-.88 9.41-4.26 13.14-1.38 1.52-2.95 3.07-4.7 4.82a4.27 4.27 0 0 0-.26 5.72 27.5 27.5 0 0 1 6.37 19.12c-.18 3.26-2.13 6.23-3.54 8.34a14 14 0 0 1-2.2 2.6 4.26 4.26 0 0 0 .28 6.55c4.83 3.62 10.2 9.2 10.48 13.4.26 3.92-1.12 7.17-3.9 8.3a7.7 7.7 0 0 1-5.12-.1c-8.12-2.83-16.76-6.6-36.58-7.14q-.15 0-.28-.02c-10.6-1-22.2-2.47-26.92-15a27.5 27.5 0 0 1-1.17-14.4q.32-1.82.73-3.72c1.67-7.84-.85-14.58-9.65-16.84l-4.49-1.18c-11.75-3.14-17.45-13.06-16.94-25.46.19-4.57 1.35-7.5 3.79-11.37a24 24 0 0 1 8.94-7.52c15.67-6.06 40.2-5.12 61.46-3.1" class="g"/><path d="M122.33 193.14c1.6-2.97 1.23-6.82 1.16-7.7-.46-5.46-5.12-11.42-8.7-15.83a43 43 0 0 0-7.4-6.8 5.2 5.2 0 0 0-6.38-.26 3.8 3.8 0 0 0-.5 4.83c2.06 2.97 3.51 4.97 5.05 7.04l-1.44-.08a5 5 0 0 0-2.68.5 3 3 0 0 0-.97.71 3.3 3.3 0 0 0-.33 3.5l.62 1.28a7 7 0 0 0-1.34-.46 3.03 3.03 0 0 0-4.18 3.22 10 10 0 0 0 1.1 3.7l.12.26a5 5 0 0 0-3.56-.56 3 3 0 0 0-1.32.6c-1.18.95-1.1 2.76-.84 4.26a41 41 0 0 0 1.77 6.7 15.4 15.4 0 0 0-2.09 6.68 15.7 15.7 0 0 0 1.33 9.33 11 11 0 0 1 1.14 2.52l-.34 3.7a797 797 0 0 1 19.28 3.38l.26-4.01a26 26 0 0 1 3.06-12.53c2.9-6.06 4.28-7.91 7.18-13.98" class="a"/><path d="M113.21 236.1q.2-1 .4-2.24c.4-2.04.93-6.02 1.25-8.27a1.36 1.36 0 0 0-1.06-1.53 642 642 0 0 0-22-3.9 1.4 1.4 0 0 0-1.49.87 60 60 0 0 0-2.36 7.15c.04.49.38 1.85.46 2.37l.09.67a7 7 0 0 0 1.24 2 72 72 0 0 1 6.06 11.36 7 7 0 0 0 10.18 3.03 15 15 0 0 0 2.1-1.54 16 16 0 0 0 2.5-3.01 17 17 0 0 0 2.63-6.96" class="b"/><path d="M114.22 223.67c.17-2.83.23-5.72.67-8.52a29 29 0 0 1 2.94-8.09c2.1-4.28 4.5-8.4 6.56-12.71a2.46 2.46 0 0 0-.86-3.29 2.4 2.4 0 0 0-3.28.86c-2.2 4.59-4.76 8.97-6.97 13.55a31 31 0 0 0-3.05 8.63c-.49 3.16-.61 6.38-.8 9.57-.19 3.08 4.61 3.07 4.8 0Z" class="d"/><path d="M90.27 228.82q.43-1.71 1-3.39a21 21 0 0 0 1.1-3.04q.36-.75-.25.02-1.28.04-.64.12a4 4 0 0 0 .71.11l1.76.29q4.7.77 9.39 1.6 4.39.76 8.74 1.62a5 5 0 0 0 .75.16c1.02.04-.8-.44-.32-1.08a4 4 0 0 0-.17 1.25l-.2 1.4c-.26 1.79-.5 3.57-.84 5.34a2.47 2.47 0 0 0 1.68 2.96 2.4 2.4 0 0 0 2.95-1.68q.44-2.47.78-4.98c.24-1.63.87-3.68.37-5.29-.9-2.9-4.93-2.96-7.42-3.42q-8.31-1.55-16.65-2.87c-2.5-.4-4.2.39-5.14 2.8a58 58 0 0 0-2.23 6.8c-.76 3 3.86 4.28 4.63 1.28m34.13-34.47c4.77-9.33-1.71-18.77-7.44-25.85a39 39 0 0 0-5.68-5.67c-1.82-1.49-3.64-3.13-6.04-3.52a6.7 6.7 0 0 0-6.75 2.51 6.35 6.35 0 0 0 .21 7.16c3.05 4.5 6.41 8.78 9.65 13.14a2.47 2.47 0 0 0 3.28.86 2.4 2.4 0 0 0 .86-3.28c-2.34-3.16-4.73-6.28-7.04-9.46l-1.83-2.58a7 7 0 0 1-1.34-2.13c-.25-1.27.94-1.67 2-1.54 1.58.2 3.05 1.75 4.2 2.72a36 36 0 0 1 4.73 4.75c2.57 3.13 5.2 6.45 6.81 10.2 1.32 3.07 1.8 7.19.24 10.26-1.4 2.75 2.74 5.18 4.14 2.43" class="d"/><path d="M106.6 186.88q-1.9-3.8-3.72-7.66l-.41-.85-.26-.53c.09.2.08.28.03.03-.02-.08-.07-.6-.07-.26 0 .31.03-.12.02-.18-.05-.29-.1.34-.02.06l.13-.47c-.13.4-.01.04.01.05-.02-.01-.28.35.06-.04.18-.2-.24.1.01.02.03-.01.4-.22.19-.12-.23.12.3-.1.36-.11q.22-.07.45-.1c-.35.06-.02 0 .16 0l.57.02a2.4 2.4 0 0 0 2.4-2.4 2.46 2.46 0 0 0-2.4-2.4 6.6 6.6 0 0 0-5.46 2.07 5.7 5.7 0 0 0-.79 5.8c.66 1.56 1.47 3.09 2.2 4.62q1.17 2.45 2.4 4.88a2.4 2.4 0 0 0 3.28.86 2.46 2.46 0 0 0 .87-3.29Z" class="d"/><path d="M101.09 191.04a91 91 0 0 1-2.51-5.09l-.35-.77c-.3-.65.16.44-.1-.23l-.19-.5c-.12-.34-.18-.7-.29-1.04-.08-.25 0 .35 0-.1v-.58c0-.46-.1.28-.02 0q.07-.23.11-.44.12-.32.01-.05c-.1.27-.06.16.04-.03.29-.35-.21.2 0-.01s-.37.22.01 0c.44-.27-.42.07.08-.03l.35-.08q-.46.06-.19.05h.28c.07 0 .6.03.23 0s.14.03.22.05q.3.06.59.16c.11.04.66.27.18.06a2.46 2.46 0 0 0 3.28-.86 2.43 2.43 0 0 0-.86-3.29c-2.02-.9-4.36-1.37-6.43-.29a5.7 5.7 0 0 0-2.66 5.66 17 17 0 0 0 1.9 5.47 99 99 0 0 0 2.17 4.37 2.4 2.4 0 0 0 3.29.86 2.45 2.45 0 0 0 .86-3.29" class="d"/><path d="M98.86 187.06a2.4 2.4 0 0 0-1.2-2.08 7.4 7.4 0 0 0-5.93-.65 5.2 5.2 0 0 0-3.51 4.68 16 16 0 0 0 .61 5 42 42 0 0 0 1.6 5.3 2.45 2.45 0 0 0 2.94 1.67 2.43 2.43 0 0 0 1.68-2.95 42 42 0 0 1-1.32-4.17q-.29-1.12-.51-2.25l-.19-.99c-.06-.36-.1-.17 0 .04a1 1 0 0 1-.04-.44 7 7 0 0 1-.01-.78c0-.12.13-.53 0-.2-.12.36.05-.11.06-.17l.1-.3c-.02.36-.14.31.02.06.13-.22-.35.32-.02.05-.24.2-.2.2.02.02.2-.17-.47.11.02 0l.35-.1c.57-.14-.25-.03.07-.01l.51-.01c.45-.03-.18-.07.08-.01l.5.11.39.13c-.48-.16.07.06.16.1l-1.19-2.06a2.4 2.4 0 0 0 4.8 0Z" class="d"/><path d="M90.48 196.78a22 22 0 0 0-2.62 9.55 19 19 0 0 0 .56 5.7 17 17 0 0 0 1.12 2.96 13 13 0 0 1 1.03 2.23c.79 2.99 5.42 1.72 4.63-1.27-.42-1.63-1.47-2.98-1.97-4.58a14 14 0 0 1-.59-4.72 21 21 0 0 1 .6-4.15 11 11 0 0 1 1.38-3.3c1.49-2.7-2.66-5.13-4.14-2.42" class="d"/></svg>
