<svg xmlns="http://www.w3.org/2000/svg" viewBox="0 -63.02 301.63 301.63"><defs><style>.d{fill:#211715}</style></defs><path d="M244.87 2.42H10.4a8 8 0 0 0-8 8v128.56a12 12 0 0 0 12 12h226.47a12 12 0 0 0 12-12V10.42a8 8 0 0 0-8-8" style="fill:#88c5e9"/><path d="M2.4 27.7h250.47v42.2H2.4z" style="fill:#fff"/><path d="M5.75 3.92a8 8 0 0 0-3.35 6.5v2.8h250.47v-2.8a8 8 0 0 0-8-8H10.4a8 8 0 0 0-4.65 1.5" style="fill:#3d8dcc"/><path d="M244.87.02H13.77c-2.2 0-4.57-.19-6.66.54A10.6 10.6 0 0 0 0 10.67v124.06a18.64 18.64 0 0 0 18.43 18.65h214.52c1.82 0 3.68.1 5.49-.08a18.5 18.5 0 0 0 15.08-10.5 20 20 0 0 0 1.75-8.5V10.46A10.56 10.56 0 0 0 244.87.02c-3.1-.06-3.09 4.74 0 4.8a5.7 5.7 0 0 1 5.6 5.92v123.83a13.8 13.8 0 0 1-13.67 14.01H18.41a13.8 13.8 0 0 1-12.37-7.9 15 15 0 0 1-1.24-6.47V10.52a5.67 5.67 0 0 1 5.64-5.7c1.53-.03 3.07 0 4.6 0h229.83c3.09 0 3.1-4.8 0-4.8" class="d"/><path d="M22.55 132.23h46.42c3.08 0 3.09-4.8 0-4.8H22.55c-3.1 0-3.1 4.8 0 4.8" class="d"/><path d="M144.8 43.8a4.2 4.2 0 0 0-3.67 2.6 10 10 0 0 0-.44 4.05 6.4 6.4 0 0 0 .89 2.77 3.7 3.7 0 0 0 3.22 1.82 3.5 3.5 0 0 0 3.22-1.82 6.4 6.4 0 0 0 .9-2.77 10 10 0 0 0-.45-4.04 4.1 4.1 0 0 0-3.67-2.62m-13.02 0a4.2 4.2 0 0 0-3.67 2.6 10 10 0 0 0-.44 4.05 6.4 6.4 0 0 0 .9 2.77 3.7 3.7 0 0 0 3.22 1.82 3.5 3.5 0 0 0 3.22-1.82 6.4 6.4 0 0 0 .89-2.77 10 10 0 0 0-.44-4.04 4.1 4.1 0 0 0-3.68-2.62m-13 0a4.2 4.2 0 0 0-3.68 2.6 10 10 0 0 0-.44 4.05 6.4 6.4 0 0 0 .9 2.77 3.7 3.7 0 0 0 3.22 1.82A3.5 3.5 0 0 0 122 53.2a6.4 6.4 0 0 0 .9-2.77 10 10 0 0 0-.45-4.04 4.1 4.1 0 0 0-3.67-2.62m-13.2.19a4.2 4.2 0 0 0-3.68 2.61 10 10 0 0 0-.44 4.04 6.4 6.4 0 0 0 .9 2.77 3.7 3.7 0 0 0 3.21 1.82 3.5 3.5 0 0 0 3.22-1.82 6.4 6.4 0 0 0 .9-2.77 10 10 0 0 0-.44-4.04 4.1 4.1 0 0 0-3.68-2.62m-13.02 0a4.2 4.2 0 0 0-3.67 2.61 10 10 0 0 0-.44 4.04 6.4 6.4 0 0 0 .9 2.77 3.7 3.7 0 0 0 3.21 1.82 3.5 3.5 0 0 0 3.22-1.82 6.4 6.4 0 0 0 .9-2.77 10 10 0 0 0-.45-4.04 4.1 4.1 0 0 0-3.67-2.62m-13 0a4.2 4.2 0 0 0-3.68 2.61 10 10 0 0 0-.44 4.04 6.4 6.4 0 0 0 .9 2.77 3.7 3.7 0 0 0 3.21 1.82 3.5 3.5 0 0 0 3.22-1.82 6.4 6.4 0 0 0 .9-2.77 10 10 0 0 0-.45-4.04 4.1 4.1 0 0 0-3.67-2.62m-13.02 0a4.2 4.2 0 0 0-3.67 2.61 10 10 0 0 0-.44 4.04 6.4 6.4 0 0 0 .9 2.77 3.7 3.7 0 0 0 3.21 1.82 3.5 3.5 0 0 0 3.22-1.82 6.4 6.4 0 0 0 .9-2.77 10 10 0 0 0-.45-4.04 4.1 4.1 0 0 0-3.67-2.62m-20.98 0a4.2 4.2 0 0 0-3.67 2.61 10 10 0 0 0-.44 4.04 6.4 6.4 0 0 0 .9 2.77 3.7 3.7 0 0 0 3.21 1.82 3.5 3.5 0 0 0 3.22-1.82 6.4 6.4 0 0 0 .9-2.77 10 10 0 0 0-.45-4.04 4.1 4.1 0 0 0-3.67-2.62m-13 0a4.2 4.2 0 0 0-3.68 2.61 10 10 0 0 0-.44 4.04 6.4 6.4 0 0 0 .9 2.77 3.7 3.7 0 0 0 3.21 1.82 3.5 3.5 0 0 0 3.22-1.82 6.4 6.4 0 0 0 .9-2.77 10 10 0 0 0-.45-4.04 4.1 4.1 0 0 0-3.67-2.62m-13.02 0a4.2 4.2 0 0 0-3.67 2.61 10 10 0 0 0-.44 4.04 6.4 6.4 0 0 0 .9 2.77 3.7 3.7 0 0 0 3.21 1.82 3.5 3.5 0 0 0 3.22-1.82 6.4 6.4 0 0 0 .9-2.77 10 10 0 0 0-.45-4.04 4.1 4.1 0 0 0-3.67-2.62" style="fill:#cae5f5"/><path d="M222.26 43.86a4.7 4.7 0 0 0-4.01 2.3 7 7 0 0 0-.49 3.54 5 5 0 0 0 .98 2.43 4.3 4.3 0 0 0 3.52 1.6 4.1 4.1 0 0 0 3.53-1.6 5 5 0 0 0 .97-2.43 7 7 0 0 0-.48-3.54 4.5 4.5 0 0 0-4.02-2.3m-18.1 0a4.7 4.7 0 0 0-4.03 2.3 7 7 0 0 0-.48 3.54 5 5 0 0 0 .98 2.43 4.3 4.3 0 0 0 3.52 1.6 4.1 4.1 0 0 0 3.52-1.6 5 5 0 0 0 .98-2.43 7 7 0 0 0-.48-3.54 4.5 4.5 0 0 0-4.02-2.3m-18.12 0a4.7 4.7 0 0 0-4.02 2.3 7 7 0 0 0-.48 3.54 5 5 0 0 0 .98 2.43 4.3 4.3 0 0 0 3.52 1.6 4.1 4.1 0 0 0 3.52-1.6 5 5 0 0 0 .98-2.43 7 7 0 0 0-.48-3.54 4.5 4.5 0 0 0-4.02-2.3" style="fill:#d9d9d9"/><path d="M2.4 72.29h238.55c3.08 0 3.09-4.8 0-4.8H2.4c-3.09 0-3.1 4.8 0 4.8" class="d"/><path d="M230.79 168.2c24.31-24.38 47.55-47.35 64.79-65.14 10.2-12.62-2.35-27.87-14.82-28.63-4.4-.27-7.84.7-10.54 2.99-9.64 8.14-56.1 48.48-70 60.64" style="fill:#645d5c"/><path d="M232.49 169.9c15.72-15.77 31.53-31.46 47.22-47.27q5-5.04 9.98-10.1 2.4-2.44 4.78-4.9a32 32 0 0 0 4.55-5.29c4.68-7.54 2.72-16.73-3.16-22.98-5.82-6.18-15.48-9.5-23.58-6a25 25 0 0 0-6.13 4.38l-5 4.28q-15.37 13.19-30.67 26.47-14.6 12.65-29.13 25.38l-2.27 2c-2.31 2.05 1.1 5.44 3.4 3.4 8.66-7.7 17.43-15.27 26.18-22.87q15.57-13.5 31.2-26.96 5.2-4.48 10.41-8.93a13.5 13.5 0 0 1 6.66-3.56 16.5 16.5 0 0 1 10.7 2.03c5.96 3.33 10.77 10.23 8.87 17.26-1.12 4.17-4.34 6.9-7.25 9.88q-4.7 4.8-9.42 9.57c-14.86 15.01-29.84 29.9-44.77 44.84l-5.97 5.98c-2.18 2.19 1.21 5.58 3.4 3.4Z" class="d"/><path d="M216.88 173.15c9.66.62 18.27-4.9 17.66-17.13-.64-12.77-11.43-21.18-20.97-22.34-9.6-1.17-18 4.9-17.35 17.68.62 12.45 12.24 21.24 20.66 21.78" style="fill:#f3736f"/><path d="M216.88 175.55a21 21 0 0 0 12.1-2.77 16.6 16.6 0 0 0 7.35-10.14c2.44-9.79-2-20.04-9.82-26.03-6.66-5.1-16.33-7.53-24.03-3.29-8.34 4.6-10.34 15.72-7.54 24.2 3.05 9.26 12.02 17.29 21.94 18.02a2.4 2.4 0 0 0 2.4-2.4 2.45 2.45 0 0 0-2.4-2.4 9 9 0 0 1-1.9-.3 20 20 0 0 1-2.36-.72 23 23 0 0 1-4.44-2.39 23 23 0 0 1-7.4-8.23c-3.35-6.33-3.3-15.83 2.48-20.56a13 13 0 0 1 8.38-2.6 20.4 20.4 0 0 1 9.66 2.93 21.4 21.4 0 0 1 10.82 19.78 12.7 12.7 0 0 1-4.64 9.37c-3.06 2.3-6.79 2.95-10.6 2.73-3.08-.19-3.07 4.62 0 4.8" class="d"/></svg>
