<svg xmlns="http://www.w3.org/2000/svg" fill="none" viewBox="0 0 24 24"><path fill="currentColor" d="M8 13a1 1 0 1 0 0-2 1 1 0 0 0 0 2m5-1a1 1 0 1 1-2 0 1 1 0 0 1 2 0m3 1a1 1 0 1 0 0-2 1 1 0 0 0 0 2"/><path fill="currentColor" fill-rule="evenodd" d="M9.94 3.25c-1.83 0-3.29 0-4.43.15a4.7 4.7 0 0 0-2.87 1.24A4.7 4.7 0 0 0 1.4 7.51c-.15 1.14-.15 2.6-.15 4.43v.12c0 1.83 0 3.29.15 4.43a4.7 4.7 0 0 0 1.24 2.87c.75.75 1.7 1.08 2.87 1.24 1.14.15 2.6.15 4.43.15h4.12c1.83 0 3.29 0 4.43-.15a4.7 4.7 0 0 0 2.87-1.24 4.7 4.7 0 0 0 1.24-2.87c.15-1.14.15-2.6.15-4.43v-.12c0-1.83 0-3.29-.15-4.43a4.7 4.7 0 0 0-1.24-2.87 4.7 4.7 0 0 0-2.87-1.24c-1.14-.15-2.6-.15-4.43-.15zM3.7 5.7c.43-.42 1-.67 2.01-.81A36 36 0 0 1 10 4.75h4a36 36 0 0 1 4.29.14c1 .14 1.58.39 2 .81.43.43.69 1 .82 2.01.14 1.03.14 2.38.14 4.29 0 1.9 0 3.26-.14 4.29-.13 1-.39 1.58-.81 2-.43.43-1 .69-2.01.82-1.03.14-2.38.14-4.29.14h-4c-1.9 0-3.26 0-4.29-.14-1-.13-1.58-.39-2-.81-.43-.43-.68-1-.82-2.01A36 36 0 0 1 2.75 12c0-1.9 0-3.26.14-4.29.14-1 .39-1.58.81-2" clip-rule="evenodd"/></svg>
