<svg viewBox="0 -68.36 422.149 422.149" xmlns="http://www.w3.org/2000/svg"><defs><style>.a{fill:#ffffff;}.b{fill:#7abee6;}.c{fill:#85807f;}.d{fill:#211715;}.e{fill:none;}.f{fill:#b3b3b3;}.g{fill:#c6c6c6;}.h{fill:#febe69;}</style></defs><path class="a" d="M76.226,144.413c-8.5,5.146-17.141,9.114-22.627,10.15a8.017,8.017,0,0,0-3.926-2.343,6.666,6.666,0,0,0-5.638.885c-2.3,1.682-3.344,5.192-3.194,8.078.413,7.96,4.717,13.182,12.248,16.241-3.577,6.3-4.5,8.985-5.066,17.66a11.13,11.13,0,0,0,.315,4.075l-1.87.355a69.681,69.681,0,0,1-7.334,1.012v1.6c12.341,2.147,22.14,8.093,30.2,15.988,1.355-4.682,2.24-7.738,2.24-7.738a55.459,55.459,0,0,1,2.807-7.2,2.325,2.325,0,0,1,2.746-1.376c4.7,1.263,11.945.561,17.239-1.386a13.355,13.355,0,0,0,7.345-6.8,28.162,28.162,0,0,0,2.27-6.765,66.583,66.583,0,0,0,1.406-10.085,10.714,10.714,0,0,1,2.426-4.544c1.857-2.01,4.855-3.577,3.318-7.058a6.528,6.528,0,0,0-2.976-2.98c-6.407-3.457-6.684-13.164-6.9-20.161a48,48,0,0,0-1.888-16.441C94.684,131.738,85.535,138.781,76.226,144.413Z"/><path class="b" d="M90.693,263.571c-1.212-6.154-3.246-15.02-4.5-19.215-2.259-7.592-4.726-12.226-11.016-19.854-9.075-11-20.56-19.682-36.048-22.377-3.442-.6-7.361.932-10.369,2.709a30.871,30.871,0,0,0-7.727,6.214,33.737,33.737,0,0,0-5.449,8.639,44.256,44.256,0,0,0-4.918,13.5c-.84,5.279,2.29,10.282,11.213,16.887a219.152,219.152,0,0,0,20.625,13.681c19.452,10.935,49.183,6.162,49.183,6.162A47.1,47.1,0,0,0,90.693,263.571Z"/><path class="c" d="M60.062,93.56a45,45,0,0,0-6.392-.111l-.01-.053c-21.458,1.443-30.294,8.383-38.389,17.375C3.43,123.925,4.589,139.681,4.3,151.21c-.246,9.742-3.857,19.91-.52,30.708,4.236,13.707,19.1,22.086,42.691,17.6l1.871-.356a11.106,11.106,0,0,1-.316-4.074c.564-8.675,1.49-11.36,5.066-17.66-7.531-3.059-11.835-8.281-12.248-16.241-.15-2.886.9-6.4,3.194-8.078a6.666,6.666,0,0,1,5.638-.885,8.025,8.025,0,0,1,3.927,2.343c11.78-2.225,38.088-17.969,46.411-29.858a44.185,44.185,0,0,0-3.723-8.933c-5.361-9.413-14.848-17.549-25.912-20.458A63.691,63.691,0,0,0,60.062,93.56Z"/><path class="d" d="M50.471,198.082c-.327-.316.053.02.055.118.006.27-.067-.292-.084-.367a4.521,4.521,0,0,1-.062-.88c-.016-.753.023-1.51.069-2.262a49.837,49.837,0,0,1,.665-6.04,28.35,28.35,0,0,1,3.637-9.287c1.505-2.7-2.639-5.124-4.144-2.423a34.251,34.251,0,0,0-4.261,11.24,62.671,62.671,0,0,0-.733,7.209c-.09,2.06-.135,4.54,1.464,6.086,2.221,2.148,5.619-1.242,3.394-3.394Z"/><path class="e" d="M29.968,204.167a28.325,28.325,0,0,0,.64-5.41l-.06-.57"/><path class="d" d="M73.892,211.013a44.669,44.669,0,0,1,2.028-5.441c.17-.382.36-.757.52-1.143.058-.139.34-.449.111-.328s.155.075.41.132a31.5,31.5,0,0,0,11.6.109c3.427-.519,7.159-1.4,10.023-3.444a18.945,18.945,0,0,0,6.726-9.759,57.033,57.033,0,0,0,2.367-12.81,7.136,7.136,0,0,1,1.7-4.251c1.03-1.2,2.313-2.117,3.269-3.39,2.61-3.478.844-7.771-2.438-10.057a13.429,13.429,0,0,1-3.134-2.407,11.841,11.841,0,0,1-1.939-3.857,38.948,38.948,0,0,1-1.412-10.328c-.085-2.21.035-4.416-.041-6.627a54.929,54.929,0,0,0-.776-7.361,2.419,2.419,0,0,0-2.952-1.676,2.454,2.454,0,0,0-1.676,2.952c.682,3.983.48,7.914.617,11.924a59.626,59.626,0,0,0,.963,9.853,18.477,18.477,0,0,0,4.014,8.723,23.506,23.506,0,0,0,3.913,2.949,3.51,3.51,0,0,1,1.24,1.572,1.227,1.227,0,0,1-.038,1.215c-.567,1.069-1.875,1.918-2.765,2.859a12.965,12.965,0,0,0-3.034,5.327,39.267,39.267,0,0,0-.613,5.385,56.387,56.387,0,0,1-1.219,6.4c-.877,3.446-2.259,6.994-5.19,9.216-2.559,1.939-6.206,2.626-9.358,3.027a30.639,30.639,0,0,1-6.3.173c-1.906-.152-3.767-1.012-5.645-.3-1.726.657-2.454,2.061-3.148,3.627a54.341,54.341,0,0,0-2.453,6.454c-.884,2.967,3.747,4.234,4.629,1.276Z"/><path class="d" d="M55.674,153.266A10.639,10.639,0,0,0,45.637,149.8c-3.5.747-5.79,3.807-6.7,7.1-1.624,5.873.586,12.755,4.672,17.12a24.818,24.818,0,0,0,8.866,5.723,2.416,2.416,0,0,0,2.953-1.676,2.462,2.462,0,0,0-1.677-2.953c-5.2-2.143-9.152-6-10.242-11.631-.5-2.565-.485-5.656,1.253-7.789,2.1-2.585,5.663-1.032,7.519.962,2.109,2.266,5.5-1.134,3.394-3.4Z"/><path class="d" d="M93.981,152.011c.8,2.015.846,6.809-2.837,7.548-4.922.412-5.719-5.319-4.316-8.173C87.977,149.049,91.878,147.77,93.981,152.011Z"/><path class="e" d="M104.824,179.774a16.269,16.269,0,0,0-8.161,1.121"/><path class="d" d="M97.356,124.294c-3.779,4.955-9.613,9.515-14.961,13.25A124.963,124.963,0,0,1,63,148.762,50.374,50.374,0,0,1,54.11,152c-3,.737-1.728,5.367,1.276,4.628,6.5-1.6,12.708-4.8,18.507-8.073a123.039,123.039,0,0,0,19.638-13.574,54.482,54.482,0,0,0,7.969-8.269,2.413,2.413,0,0,0-.861-3.283,2.459,2.459,0,0,0-3.283.861Z"/><path class="d" d="M104.589,136.144c-.836-10.237-4.218-20.1-10.748-28.095a44.734,44.734,0,0,0-23.4-15.2,57.387,57.387,0,0,0-16.769-1.8l2.314,1.762-.01-.053A2.4,2.4,0,0,0,53.66,91c-11.181.776-22.508,3.175-31.587,10.1a57.959,57.959,0,0,0-9.923,9.652A43.247,43.247,0,0,0,3.676,128.3a83.081,83.081,0,0,0-1.7,17.414c-.039,2.683-.012,5.373-.217,8.049C1.486,157.4.885,161,.463,164.617c-.8,6.84-.8,13.925,1.893,20.385a26.713,26.713,0,0,0,7.911,10.658c10.336,8.249,24.392,8.5,36.839,6.169a2.423,2.423,0,0,0,1.676-2.953A2.451,2.451,0,0,0,45.83,197.2c-10.106,1.894-21.6,1.954-30.459-3.737a22.3,22.3,0,0,1-7.685-8.332c-2.621-4.922-3.194-11.147-2.769-16.957.474-6.48,1.736-12.829,1.824-19.344a112.027,112.027,0,0,1,.825-15.355,41.8,41.8,0,0,1,5.671-16.062,49.408,49.408,0,0,1,9.54-10.748A40.072,40.072,0,0,1,34.42,99.636,66.4,66.4,0,0,1,53.66,95.8l-2.314-1.762.009.053a2.406,2.406,0,0,0,2.315,1.762c8.682-.463,17.977,1.3,25.5,5.775a41.515,41.515,0,0,1,16.749,18.765,50.183,50.183,0,0,1,3.875,15.755,2.461,2.461,0,0,0,2.4,2.4,2.419,2.419,0,0,0,2.4-2.4Z"/><path class="d" d="M64.418,170.338c-.216,3.415-.771,7.115.98,10.25a6.583,6.583,0,0,0,10.271,1.538,7.7,7.7,0,0,0,1.522-6.14,2.638,2.638,0,0,0-.7-1.7,2.434,2.434,0,0,0-1.7-.7c-1.164.052-2.57,1.066-2.4,2.4a10.826,10.826,0,0,1,.063,2.052c-.036.572.1-.431,0-.041-.037.146-.064.295-.1.441s-.114.277-.142.417c.009-.041.278-.54.089-.237-.042.068-.076.142-.119.211a1.576,1.576,0,0,0-.133.2c.011-.028.351-.358.189-.252a1.335,1.335,0,0,0-.3.294c.028-.046.5-.32.189-.157a1.778,1.778,0,0,0-.162.1c-.048.032-.132.049-.171.088.272-.275.433-.147.134-.072a2.254,2.254,0,0,0-.492.118c.028-.039.621-.044.169-.03-.082,0-.163.009-.245.011-.18,0-.358-.01-.537-.011-.238,0-.207-.141.212.037a1.657,1.657,0,0,0-.267-.05c-.148-.033-.29-.083-.436-.122-.481-.13.4.223.067.03-.116-.067-.234-.137-.351-.2-.418-.235.378.367.041.036-.091-.089-.186-.172-.273-.266s-.363-.437-.086-.085.009-.006-.052-.1c-.074-.117-.142-.237-.206-.36-.054-.1-.1-.217-.154-.32-.112-.2.156.389.145.343s-.05-.123-.07-.183c-.075-.222-.148-.443-.208-.67q-.074-.285-.128-.574c-.016-.085-.03-.171-.045-.257-.081-.455,0,.18.039.314a5.324,5.324,0,0,1-.1-1.268c-.015-.52,0-1.041.02-1.56.055-1.174.174-2.344.248-3.516a2.413,2.413,0,0,0-2.4-2.4,2.456,2.456,0,0,0-2.4,2.4Z"/><path class="d" d="M104.655,177.357c-1.592-.118-3.2-.116-4.8-.095-.583.008-1.173.01-1.753.074a4.538,4.538,0,0,0-1.9.588,4.647,4.647,0,0,0-1.765,1.741,2.4,2.4,0,0,0,4.145,2.423,1.428,1.428,0,0,0,.105-.18c-.124.374-.329.391-.113.184.064-.061.3-.25-.01-.006-.334.262-.008.023.061-.017.033-.019.2-.079.211-.11,0,.01-.568.239-.264.121a.655.655,0,0,1,.132-.025l-.638.086a23.377,23.377,0,0,1,3.018-.085c1.188,0,2.382.013,3.567.1a2.41,2.41,0,0,0,2.4-2.4,2.458,2.458,0,0,0-2.4-2.4Z"/><path class="d" d="M94.092,269.913a33.957,33.957,0,0,0-1.1-7.065c-.711-3.6-1.5-7.186-2.335-10.759-1.783-7.614-3.825-15.169-8.15-21.791a78.291,78.291,0,0,0-19.73-20.805,57.905,57.905,0,0,0-12.292-6.668,53.409,53.409,0,0,0-6.727-2.169,21.509,21.509,0,0,0-7.687-.961c-5.78.687-11.37,4.264-15.444,8.294a37.749,37.749,0,0,0-8.814,14.831c-1,2.93,3.635,4.188,4.629,1.276a33.109,33.109,0,0,1,6.714-11.817,25.813,25.813,0,0,1,11.683-7.493,12.794,12.794,0,0,1,6.467.217,53.881,53.881,0,0,1,6.638,1.967,52.5,52.5,0,0,1,11.34,5.921,72.149,72.149,0,0,1,18.223,18.56,43.482,43.482,0,0,1,5.455,10.65c1.054,3.059,1.851,6.2,2.61,9.34q1.392,5.769,2.572,11.588c.313,1.548.617,3.1.88,4.655.053.314.1.628.152.942.018.112.032.225.051.336.092.561-.057-.554-.006-.043a8.261,8.261,0,0,1,.072.994c-.076,3.089,4.724,3.088,4.8,0Z"/><path class="d" d="M81.776,145.92c-.15.409-.286.823-.454,1.225l.242-.573a6.911,6.911,0,0,1-.852,1.507l.376-.486a4.411,4.411,0,0,1-.734.743l.485-.375c-.093.071-.188.138-.287.2a2.519,2.519,0,0,0-1.1,1.434,1.812,1.812,0,0,0-.043.957,1.771,1.771,0,0,0,.285.892,2.4,2.4,0,0,0,3.283.861,7,7,0,0,0,2.291-2.413,16.879,16.879,0,0,0,1.14-2.7,1.823,1.823,0,0,0,.043-.957,1.791,1.791,0,0,0-.285-.892,2.4,2.4,0,0,0-3.284-.861l-.485.375a2.389,2.389,0,0,0-.618,1.059Z"/><path class="a" d="M49.6,176.182c-3.619-.1-6.194,2.373-6.278,5.353-.094,3.333,2.4,5.7,5.963,5.8,3.7.105,6.188-2.144,6.282-5.456C55.647,178.881,53.2,176.284,49.6,176.182Z"/><path class="d" d="M49.6,173.782a8.472,8.472,0,0,0-8.233,5.349,7.89,7.89,0,0,0,2.8,8.976,9.563,9.563,0,0,0,9.607.659,7.839,7.839,0,0,0,4.1-8.12c-.555-4.13-4.3-6.7-8.27-6.864a2.419,2.419,0,0,0-2.4,2.4,2.451,2.451,0,0,0,2.4,2.4,1.769,1.769,0,0,1,.551.036c-.306-.157-.341-.063-.108-.012.281.061.561.117.837.2a1.524,1.524,0,0,1,.472.167c-.216-.208-.344-.166-.125-.042.28.158.55.312.819.487.423.276-.246-.287-.058-.04a2.917,2.917,0,0,0,.283.26c.09.089.172.186.261.276.326.331-.1.041-.045-.074-.011.024.368.581.4.634.037.069.192.5.07.118-.129-.407.063.2.084.274.028.095.054.192.077.289l.033.147c.046.26.041.2-.014-.191a3.5,3.5,0,0,0,.034.766c0,.107-.015.215-.017.322-.012.553.126-.545.006-.015-.061.272-.133.537-.2.806-.079.3-.228.2.057-.093a1.589,1.589,0,0,0-.158.326c-.112.212-.263.4-.378.608-.15.273.405-.435.065-.1-.067.067-.128.141-.2.209-.1.1-.21.194-.315.292-.359.337.452-.28.026-.024-.211.127-.423.249-.636.373-.455.263.523-.167.016,0-.1.032-.194.07-.293.1-.256.083-.516.132-.776.2-.55.139.555-.027-.023.011-.173.011-.346.028-.519.034a8.025,8.025,0,0,1-.891-.016,1.391,1.391,0,0,1-.345-.032l.3.039c-.11-.018-.22-.039-.329-.061a7.07,7.07,0,0,1-.786-.214,2.892,2.892,0,0,1-.3-.109q.5.216.144.055c-.092-.045-.183-.091-.273-.141s-.57-.428-.637-.4c.039-.014.443.39.138.1-.107-.1-.219-.2-.322-.3-.068-.07-.131-.146-.2-.215-.342-.347.2.361.058.084-.121-.232-.282-.461-.416-.689-.261-.446.162.525.007.028-.03-.1-.067-.189-.1-.285s-.091-.7-.171-.749l.045.325c-.011-.106-.019-.213-.025-.32s-.008-.218-.007-.326c0-.159.013-.315.02-.473.022-.517-.133.534,0,.039a4.293,4.293,0,0,0,.255-.86c.056.184-.217.44-.061.164.1-.173.185-.35.293-.518.022-.034.173-.238.169-.247q-.341.429-.1.133c.048-.057.1-.113.151-.168.086-.093.175-.182.268-.268.426-.4-.023-.042-.016-.019-.023-.071.688-.444.795-.5.043-.022.5-.278.15-.083-.337.186.244-.081.329-.107.107-.033.215-.063.324-.091.144-.036.873-.272.21-.071a3.81,3.81,0,0,1,1.088-.049,2.4,2.4,0,1,0,0-4.8Z"/><path class="a" d="M278.267,119.455l-3.335-.361c.541,6.637,1.225,15.017,1.225,15.017.457,4.725,1.1,9.448,1.867,14.085a62.767,62.767,0,0,0,30.768,2.059,63.623,63.623,0,0,0,22.075-6.836c1.968-5.771,3.949-11.764,5.53-18.23a41.936,41.936,0,0,1-6.941-.193Z"/><path class="b" d="M299.8,219.913a206.836,206.836,0,0,1-8.224-19.742,331.17,331.17,0,0,1-13.551-51.978,62.732,62.732,0,0,0,30.768,2.062,63.621,63.621,0,0,0,22.076-6.836c-1.043,3.059-2.082,6.055-3.055,9.028-6.865,20.956-21.4,56.264-26.235,67.015Z"/><path class="f" d="M329.058,148.72q-.636,1.872-1.245,3.727c-7.438,22.7-23.886,62.257-27.226,69.166a219.386,219.386,0,0,1-9.012-21.442c-3.831-11.077-13.054-39.381-15.544-67.486-9.4,2-25.113,7.591-31.513,14.809-6.915,7.8-9.626,18.7-11.992,25.4-2.638,7.476-7.164,28.34-9.171,44.017-1.971,15.4-1.986,24.231.183,34.467,1.084,5.112,5.317,12.65,12.117,15.728,6.535,2.957,13.963,3.423,20.172.618.449,1.386,1.195,3.624,2.019,6.071a13.575,13.575,0,0,0,12.864,9.248H406.939a32.617,32.617,0,0,0,11.342-16.863c.986-3.151,1.582-10.946,1.481-14.428-.126-4.347-2.073-16.1-3.12-21.878-1.91-11.129-4.616-20.866-7.213-30.477-2.52-9.327-8.153-32.264-17.061-45.122-9.816-14.169-24.145-20.532-41.408-25.573l-10.835-5.148-3.021-1.436C334.985,131.83,331.87,140.428,329.058,148.72Z"/><path class="d" d="M265.9,133c-6.618,2.23-13.387,4.984-19.016,9.194-5.366,4.013-8.937,9.71-11.56,15.8a169.54,169.54,0,0,0-9.459,30.962c-2.946,13.513-5.425,27.318-6.207,41.144a83.55,83.55,0,0,0,.787,17.731,34.464,34.464,0,0,0,1.834,7.576,29.49,29.49,0,0,0,4.648,7.84c7.969,9.663,24.111,11.776,34.128,4.123a22.872,22.872,0,0,0,3.659-3.473,2.466,2.466,0,0,0,0-3.394,2.42,2.42,0,0,0-3.394,0A18.585,18.585,0,0,1,246.8,267.2c-5.45-.006-11.154-1.834-15.04-5.752-3.71-3.74-5.544-8.353-6.445-13.451a74.518,74.518,0,0,1-.954-15.831c.5-13.017,2.8-26.018,5.456-38.748a214.238,214.238,0,0,1,8-28.724c2.2-6.156,5.084-12.7,10.039-17.147,5.343-4.8,12.608-7.654,19.32-9.915,2.912-.982,1.663-5.619-1.276-4.629Z"/><path class="d" d="M348.483,138.05a33.228,33.228,0,0,1,2.921,5.143,13.09,13.09,0,0,1,1.27,3.48V145.4q.984-1.367.509-.921.581-.435.272-.218a3.6,3.6,0,0,0-.444.276c-.376.224-.763.429-1.15.634-1.215.645-2.449,1.252-3.685,1.856-2.459,1.2-4.937,2.366-7.4,3.561a2.424,2.424,0,0,0-.486,3.769c1.837,1.984,3.689,3.954,5.5,5.96.928,1.027,1.882,2.047,2.755,3.123a1.838,1.838,0,0,1,.51,2.089,45.308,45.308,0,0,1-2.459,4.3q-1.479,2.538-3,5.054-7.5,12.471-15.546,24.6-4.82,7.294-9.844,14.45a2.42,2.42,0,0,0,.861,3.283,2.45,2.45,0,0,0,3.284-.861c6.221-8.823,12.164-17.842,17.931-26.968q3.885-6.15,7.638-12.381,1.576-2.627,3.117-5.274a26.024,26.024,0,0,0,2.712-5.084c1.053-3.468-1.231-5.976-3.357-8.377-2.194-2.478-4.466-4.886-6.714-7.315l-.485,3.769c4.01-1.944,8.157-3.709,12.025-5.929a4.669,4.669,0,0,0,1.81-1.5c.632-1.057.24-2.284-.145-3.352a35.3,35.3,0,0,0-4.26-8.324,2.466,2.466,0,0,0-3.284-.861,2.419,2.419,0,0,0-.861,3.283Z"/><path class="d" d="M273.757,134.111a260.637,260.637,0,0,0,7.7,41.142c2.451,9.263,5.224,18.482,8.491,27.494,2.268,6.256,4.994,12.338,7.78,18.377a2.42,2.42,0,0,0,3.284.861,2.457,2.457,0,0,0,.861-3.284,238.486,238.486,0,0,1-10.684-27.279,330.671,330.671,0,0,1-8.965-33.777,224.228,224.228,0,0,1-3.666-23.534,2.468,2.468,0,0,0-2.4-2.4,2.417,2.417,0,0,0-2.4,2.4Z"/><path class="d" d="M408.637,284.744a35.771,35.771,0,0,0,12.08-18.339,49.715,49.715,0,0,0,1.3-9.724,46.041,46.041,0,0,0-.074-7.789,289.949,289.949,0,0,0-8.9-45.307c-3.423-12.717-6.651-25.524-11.81-37.677a66.215,66.215,0,0,0-10.85-18.045,58.578,58.578,0,0,0-16.757-12.988,114.169,114.169,0,0,0-20.886-8.145c-.121-.036-1.077-.275-.6-.108-.044-.015-.082-.043-.125-.059-.267-.1-.526-.25-.783-.372L348.53,124.9l-6.051-2.876-1.143-.543a2.466,2.466,0,0,0-3.283.861,2.421,2.421,0,0,0,.861,3.284l9.765,4.64a56.109,56.109,0,0,0,6.917,2.369c3.335,1.079,6.654,2.251,9.874,3.641a62.432,62.432,0,0,1,17.349,10.73,53.285,53.285,0,0,1,11.869,16.062c5.617,11.332,8.883,23.7,12.133,35.871,2.113,7.911,4.31,15.8,6.013,23.811,1.473,6.936,2.642,13.958,3.655,20.975,1.645,11.4,1.38,24.008-6.58,33.166a37.3,37.3,0,0,1-4.667,4.455,2.417,2.417,0,0,0,0,3.394,2.457,2.457,0,0,0,3.395,0Z"/><path class="d" d="M284.537,152.4a72.106,72.106,0,0,0,24.926.165A70.657,70.657,0,0,0,332.07,145.5c2.737-1.435.313-5.579-2.423-4.145a62.36,62.36,0,0,1-20.631,6.476,87.226,87.226,0,0,1-11.6,1.043,59.888,59.888,0,0,1-11.6-1.095,2.463,2.463,0,0,0-2.952,1.677,2.423,2.423,0,0,0,1.676,2.952Z"/><path class="d" d="M334.467,122.92c-2,8.586-4.919,16.89-7.746,25.228-2.093,6.176-4.168,12.348-6.426,18.467-4.689,12.706-9.7,25.3-14.885,37.807-1.948,4.7-3.781,9.1-5.9,13.829a2.474,2.474,0,0,0,.861,3.283,2.419,2.419,0,0,0,3.284-.861c4.47-9.963,8.554-20.111,12.6-30.254,4.993-12.53,9.852-25.13,14.08-37.943,3.1-9.38,6.526-18.642,8.769-28.28.7-3.006-3.928-4.289-4.629-1.276Z"/><path class="a" d="M262.172,174.165a105.092,105.092,0,0,1-4.576-13.128c-.638-2.35-.724-4.1-2.623-5.379-1.648-1.109-4.439-1.19-5.889.354a10.281,10.281,0,0,0-2.575,5.8,10.5,10.5,0,0,0,.619,5.96c-.384-1.324-.655-2.256-.655-2.256l-3.591-12.353a4.259,4.259,0,0,0-1.075-3.324,3.458,3.458,0,0,0-1.54-.9,10.009,10.009,0,0,0-7.555,2.754,16.009,16.009,0,0,0-4.224,7.016l-1,3.286-2.712,10.655c.085,5.033-.2,8.65-.115,13.684a19.222,19.222,0,0,0,1.677,7.1,20.654,20.654,0,0,0,6.334,7.409c2.487,1.844,2.324,5.039,1.5,8.023-.131.471-.284.966-.467,1.474a6.331,6.331,0,0,0,1.738,6.819c3.936,3.535,8.551,4.03,14.21,3.312a31.359,31.359,0,0,0,5.972-1.177,8.257,8.257,0,0,0,4.568-5.491c.654-2.091.521-4.108.689-6.553.224-3.277.006-5.449,1.235-8.5.815-2.021,2.046-3.858,2.785-5.908,2.2-6.1-.281-12.783-2.731-18.783"/><path class="d" d="M222.378,172.648c.121,8.214-1.592,17.115,3.3,24.332a22.234,22.234,0,0,0,3.763,4.318c1.2,1.049,2.668,1.741,2.859,3.463.205,1.845-.53,3.566-1.024,5.3a8.883,8.883,0,0,0,.641,6.369c1.7,3.429,5.9,5.636,9.523,6.325A32.986,32.986,0,0,0,253.5,222.3a10.257,10.257,0,0,0,8.719-7.049c1.527-3.93.835-8.412,1.322-12.524a18.928,18.928,0,0,1,2.368-6.292,19.406,19.406,0,0,0,2.2-7.489c.384-5.376-1.635-10.641-3.625-15.527a2.478,2.478,0,0,0-2.952-1.676,2.417,2.417,0,0,0-1.677,2.952c1.587,3.9,3.294,8.013,3.477,12.268a13.147,13.147,0,0,1-.949,5.76c-.808,1.9-1.913,3.656-2.661,5.592-1.391,3.6-1.187,7.728-1.361,11.524-.131,2.87-1.06,6.447-3.974,7.335a29.419,29.419,0,0,1-10.363,1.115c-2.7-.2-6.412-1.4-7.795-3.957-.848-1.57-.314-2.9.154-4.477a14.454,14.454,0,0,0,.7-5.266,7.842,7.842,0,0,0-2.165-4.983c-1.25-1.244-2.736-2.177-3.918-3.517a15.413,15.413,0,0,1-3.929-9.508c-.216-4.635.176-9.295.107-13.934-.046-3.086-4.846-3.095-4.8,0Z"/><path class="d" d="M228.277,178.012a61.568,61.568,0,0,1,14.968-1.329c2.018.013,3.717.208,4.89,1.619.649.782,1.425,1.9.976,2.859a2.969,2.969,0,0,1-1.133,1.049c-.714.484-1.419.963-2.091,1.507a2.415,2.415,0,0,0,0,3.394,2.456,2.456,0,0,0,3.394,0,22.669,22.669,0,0,0,3.2-2.454,6.293,6.293,0,0,0,1.452-5.132,9.478,9.478,0,0,0-4.834-6.5,14.2,14.2,0,0,0-6.453-1.142c-2.333.013-4.669.127-7,.3a52.514,52.514,0,0,0-8.653,1.2c-3,.743-1.727,5.373,1.276,4.628Z"/><path class="d" d="M234.383,188.083c2.255-.6,4.49-1.334,6.8-1.716.151-.025.3-.05.454-.07-.047.006-.353.032-.071.015.264-.016.527-.052.791-.067a12.9,12.9,0,0,1,1.691.008c.15.011.3.027.45.041.285.027-.032,0-.074-.008.208.043.423.1.633.13.482.069-.4-.2-.064-.034a2.267,2.267,0,0,0,.206.126c-.057.015-.426-.4-.2-.153a3.806,3.806,0,0,0,.3.308c.164.139-.191-.213-.183-.238a2.486,2.486,0,0,0,.141.214c.071.131.135.28.217.4.126.191-.109-.255-.109-.265a1.7,1.7,0,0,0,.114.324q.075.234.13.473c.027.119.093.651.059.245s.009.146.016.26c.011.195.014.391.01.586,0,.171-.02.341-.03.512-.031.545.094-.4,0,.009-.081.34-.208.68-.279,1.019-.049.229.107-.25.113-.258a1.453,1.453,0,0,0-.115.241c-.071.135-.155.261-.231.393-.245.426.313-.282.029-.039-.215.184-.4.424-.6.626-.367.367-.75.718-1.149,1.049-.094.079-.193.153-.285.232.135-.116.278-.207.054-.042-.195.144-.391.287-.59.427-.959.672-1.953,1.291-2.929,1.938a2.4,2.4,0,0,0,2.423,4.145,38.4,38.4,0,0,0,5.651-4.141,8.268,8.268,0,0,0,1.885-2.406,9.456,9.456,0,0,0,.831-3.266,8.019,8.019,0,0,0-1.66-5.691c-1.539-1.875-4.188-2.1-6.456-1.969a46.753,46.753,0,0,0-9.248,2.01,2.4,2.4,0,0,0,1.276,4.628Z"/><path class="d" d="M245.282,153.159c-.022-2.467-.874-4.818-3.157-6.053-2.33-1.261-5.425-.456-7.695.576-4.245,1.93-6.944,6.167-8.287,10.486-.329,1.06-.645,2.124-.967,3.187a2.423,2.423,0,0,0,1.676,2.952,2.45,2.45,0,0,0,2.952-1.676c.313-1.032.621-2.064.939-3.094a14.488,14.488,0,0,1,.833-2.192,16.692,16.692,0,0,1,.841-1.544c.132-.213.268-.424.41-.63q.142-.206.291-.407-.184.231.087-.105a13.769,13.769,0,0,1,1.2-1.271c.071-.065.713-.588.487-.421.2-.15.413-.291.626-.425q.426-.27.877-.5c.149-.076.3-.148.454-.217q-.224.093.007,0a9.348,9.348,0,0,1,1.807-.493c-.412.067.339-.024.352-.025.082,0,1,.015,1,.006-.009.03-.906-.272-.228-.016.088.05.174.1.257.162q-.328-.274-.045-.034a2.968,2.968,0,0,1,.26.266c-.153-.209-.155-.2-.006.019.305.435-.055-.358.082.149.033.119.154.928.108.374.025.307.034.614.037.922a2.4,2.4,0,0,0,4.8,0Z"/><path class="g" d="M213.419,172.337a3.2,3.2,0,0,0-1.15,4.382l1.563,2.676a3.205,3.205,0,0,0,4.383,1.151l3.759-2.23q-2.4-4.1-4.795-8.208Z"/><path class="a" d="M217.179,170.108q2.4,4.1,4.795,8.208L248.821,162.4l-4.8-8.208Z"/><path class="h" d="M260.628,152.973l-2.678-4.584a2.1,2.1,0,0,0-2.871-.754l-11.054,6.555,4.8,8.208,11.054-6.554A2.1,2.1,0,0,0,260.628,152.973Z"/><path class="d" d="M250.851,161.115l-4.8-8.209a2.4,2.4,0,1,0-4.144,2.423l4.795,8.209a2.4,2.4,0,0,0,4.145-2.423Z"/><path class="d" d="M219.426,182.618l19.221-11.4c7.37-4.37,14.81-8.641,22.118-13.114a4.667,4.667,0,0,0,1.845-6.5c-.586-1.075-1.238-2.119-1.856-3.177a6.769,6.769,0,0,0-2.567-2.979c-2.969-1.545-6.3,1.288-8.762,2.747l-26.985,16-9.363,5.552a6.681,6.681,0,0,0-3.352,3.591,6.182,6.182,0,0,0,.841,5.222,14,14,0,0,0,2.221,3.322,5.736,5.736,0,0,0,6.639.734c2.748-1.413.322-5.556-2.423-4.145-.844.434-1.222-.5-1.579-1.111-.329-.563-1.228-1.6-1.211-2.275.016-.646.99-1.017,1.464-1.3l8.812-5.226L250.061,153.4l4.235-2.511c.381-.227,1.731-.732,1.933-1.147.049-.1.383.023-.2,0,.072,0-.128-.181-.146-.128s.213.359.239.409c.554,1.056,1.209,2.069,1.81,3.1.114.2.367.87.573.981.3.16-.2-.451.15-.326-.066-.023-.4.233-.453.268L237.619,166.25c-6.748,4-13.569,7.9-20.252,12.007-.12.074-.243.144-.364.216C214.348,180.047,216.76,184.2,219.426,182.618Z"/><path class="d" d="M215.121,171.343l4.795,8.209a2.4,2.4,0,0,0,4.145-2.422l-4.8-8.209a2.4,2.4,0,1,0-4.144,2.422Z"/><path class="a" d="M248.018,169.772a12.392,12.392,0,0,1-1.509-7.964,10.281,10.281,0,0,1,2.575-5.8c1.45-1.544,4.241-1.463,5.889-.354,1.9,1.277,1.985,3.029,2.623,5.379a90.463,90.463,0,0,0,4.573,13.021"/><path class="d" d="M249.647,167.63a15.947,15.947,0,0,1-.634-1.732c-.077-.272-.132-.546-.193-.821q-.069-.418-.006,0c-.015-.151-.027-.3-.035-.452a11.6,11.6,0,0,1,.5-4.271,7.6,7.6,0,0,1,.944-1.931c.174-.258.364-.461.563-.71q.32-.288.066-.1a3.77,3.77,0,0,1,.416-.244c-.315.151.474-.12.586-.138-.385.06.507.012.607.016a2.766,2.766,0,0,1,1.009.3,1.03,1.03,0,0,1,.421.285,4.48,4.48,0,0,1,.331.344c-.138-.185-.129-.162.027.066.079.128.151.258.217.393q-.129-.35.022.053c.1.3.2.6.278.908.431,1.6.82,3.2,1.3,4.786a110.124,110.124,0,0,0,3.794,10.418,2.48,2.48,0,0,0,2.952,1.676,2.414,2.414,0,0,0,1.676-2.952c-1.315-3.142-2.512-6.331-3.534-9.58-.482-1.531-.936-3.072-1.315-4.631a11.156,11.156,0,0,0-1.371-3.682,7.5,7.5,0,0,0-7.935-2.98c-3.213.755-5.163,4.173-5.894,7.163a14.5,14.5,0,0,0,.581,9.089,2.48,2.48,0,0,0,2.953,1.676,2.415,2.415,0,0,0,1.676-2.952Z"/><path class="c" d="M329.456,125c13.394,1.445,23.43-3.249,29.58-12.09a29.823,29.823,0,0,0,5.226-20.2c-1.1-9.441-3.092-17.182-4.743-28.41-1.388-9.459-1.618-21.481-5.049-29.812-2.293-5.558-6.945-13.892-14.424-19.1l-8.623-5.524-1.258-.823a63.634,63.634,0,0,0-25.086-6.511c-17.5-1.127-32.486,5.946-39.834,12.107-8.259,7.737-11.979,15.759-16.615,31.032-3.012,10-6.164,22.176-8.685,32.3-2.157,8.723-2.9,17.572.985,25.671,3.058,6.328,8.294,10.629,15.808,13.494Z"/><path class="a" d="M308.56,128.374a60.449,60.449,0,0,0,14.674-9.043,62.571,62.571,0,0,0,7.551-8.209s2.213-2.948,3.18-4.653l.652-1.145a14.242,14.242,0,0,0,7.8-1.051A19.58,19.58,0,0,0,350.4,96.1c2.069-3.534,3.308-9.633,1.929-13.335-.462-1.237-1.672-3.428-5.327-4.245a7.481,7.481,0,0,0-5.471.814l-7.942.863c-3.8-1.975-5.52-4.788-7.381-9.142-2.831-6.62-3.425-14.913-7.536-20.327a11.521,11.521,0,0,0-9.409-4.858s-4.933-.378-7-.539c-3.826-3.12-10.573-1.88-15.441-.246a19.851,19.851,0,0,0-5.63,3.134c-5.787,4.394-9.791,10.386-15.017,15.322-4.931,4.658-10.317,6.365-17.519,5.308.188,3,.332,6.007.45,8.983.189,4.719.307,9.345.487,13.732.343,8.674,1.97,16.841,5.871,23.455a29.334,29.334,0,0,0,5.219,6.573c8.147,7.662,17.113,11.2,28.23,10.989,1.782-.041,3.5-.153,5.195-.355a69.406,69.406,0,0,0,14.465-3.849Z"/><path class="d" d="M295.286,84.893c-.482-2.444.561-7.841,5.095-7.837,5.925.653,5.554,7.272,3.236,10.16C301.719,89.581,296.8,90.134,295.286,84.893Z"/><path class="d" d="M259.972,82.331c-.427-2.447.563-7.866,4.717-7.891,5.424.618,5.043,7.257,2.9,10.168C265.835,86.991,261.329,87.577,259.972,82.331Z"/><path class="d" d="M277.806,89.262c-.86,1.241-1.69,2.508-2.437,3.82a5.224,5.224,0,0,0-.753,2.248,3.293,3.293,0,0,0,1.105,2.577,4.922,4.922,0,0,0,1.947,1.156c.283.089.581.111.87.174A2.543,2.543,0,0,0,280.387,99a2.4,2.4,0,0,0-.573-4.387,6.239,6.239,0,0,1-1.081-.252l.573.242a2.637,2.637,0,0,1-.444-.261l.486.375a3.541,3.541,0,0,1-.471-.453l.375.485a.729.729,0,0,1-.1-.151l.242.573a1.043,1.043,0,0,1-.069-.25l.086.638a1.521,1.521,0,0,1,.009-.27l-.086.638a2.447,2.447,0,0,1,.142-.465l-.242.574a18.451,18.451,0,0,1,1.353-2.3c.443-.69.895-1.376,1.362-2.051a2.4,2.4,0,0,0-2.71-3.525,2.688,2.688,0,0,0-1.434,1.1Z"/><path class="d" d="M342.738,81.4a5.9,5.9,0,0,1,6.035.432c.033.024.288.245.389.344a4.258,4.258,0,0,1,.337.356c.127.175.233.361.343.547.047.081.3.61.165.3s.117.349.15.457a7.583,7.583,0,0,1,.259,1.093,13.36,13.36,0,0,1-.108,4.109c-.9,5.359-4.249,10.849-9.271,13.242.424-.2-.22.077-.368.127-.3.1-.61.192-.919.272a12.508,12.508,0,0,1-1.9.352,7.819,7.819,0,0,1-4.554-.674c-2.708-1.489-5.133,2.654-2.423,4.145,3.342,1.837,7.65,1.733,11.191.493a18.92,18.92,0,0,0,8.8-7.166A23.241,23.241,0,0,0,355,89.942c.525-3.372.566-7.245-1.562-10.112a10.356,10.356,0,0,0-13.12-2.574c-2.684,1.529-.268,5.678,2.422,4.145Z"/><path class="d" d="M309.771,130.447c10.77-4.7,20.323-12.521,26.267-22.766,1.553-2.677-2.594-5.1-4.145-2.423a45.362,45.362,0,0,1-4.179,5.88,53.6,53.6,0,0,1-6.4,6.688c-.213.182-.432.36-.65.537-.134.108-.269.214-.4.321a1.247,1.247,0,0,1-.162.127q-1.56,1.186-3.193,2.272a62.234,62.234,0,0,1-9.557,5.219,2.415,2.415,0,0,0-.861,3.284,2.461,2.461,0,0,0,3.283.861Z"/><path class="d" d="M307.928,126.058a56.752,56.752,0,0,1-19.428,4.124,36.1,36.1,0,0,1-16.949-3.727,34.449,34.449,0,0,1-13.806-12.291c-3.391-5.594-4.92-12.146-5.5-18.607-.769-8.514-.629-17.121-1.128-25.656-.18-3.07-4.981-3.091-4.8,0,.469,8.029.447,16.09,1,24.111.5,7.242,1.937,14.545,5.385,21,6.344,11.877,19.6,19.2,32.813,19.908,8.129.436,16.12-1.365,23.687-4.233a2.469,2.469,0,0,0,1.676-2.952,2.418,2.418,0,0,0-2.952-1.676Z"/><path class="d" d="M257.376,114.81c-5.06-1.956-9.819-5.021-12.822-9.635-3.609-5.546-4.416-12.162-3.76-18.633.692-6.825,2.856-13.575,4.584-20.193,1.717-6.577,3.491-13.142,5.448-19.652,3-9.985,6.437-20.2,13.663-27.919a37.852,37.852,0,0,1,11.361-8.049,59.246,59.246,0,0,1,16.668-5.242,61.2,61.2,0,0,1,22.129.7c5.288,1.1,11.007,2.762,15.565,5.744,2.593,1.7,5-2.459,2.423-4.145a35.833,35.833,0,0,0-6.241-3.032A60.826,60.826,0,0,0,318,2.029,67.611,67.611,0,0,0,296.563.2a63.65,63.65,0,0,0-19.331,4.668,49.465,49.465,0,0,0-13.685,8.064c-8.381,7.374-12.725,17.943-16.056,28.319-2.2,6.85-4.093,13.8-5.935,20.751-1.851,6.985-4.014,14.044-5.126,21.191-1.263,8.115-.772,16.641,3.608,23.813,3.693,6.046,9.563,9.918,16.062,12.43a2.419,2.419,0,0,0,2.952-1.677,2.456,2.456,0,0,0-1.676-2.952Z"/><path class="d" d="M338.835,17.455c6.365,4.5,11.325,11.98,13.837,19.014,3.111,8.711,3.136,18.258,4.373,27.335,1.274,9.342,3.523,18.528,4.694,27.884a28.08,28.08,0,0,1-7.873,23.662c-6.5,6.431-15.569,8.16-24.41,7.246a2.415,2.415,0,0,0-2.4,2.4,2.454,2.454,0,0,0,2.4,2.4c8.937.924,18.065-.805,25.25-6.417a32.4,32.4,0,0,0,12.129-24.647c.084-4.7-.927-9.491-1.749-14.1-.879-4.935-1.859-9.851-2.667-14.8-1.61-9.857-1.628-20.1-4.333-29.755a45.5,45.5,0,0,0-16.829-24.367,2.419,2.419,0,0,0-3.283.861,2.449,2.449,0,0,0,.861,3.283Z"/><path class="d" d="M301.869,42.263c-4.052-1.762-8.477-1.406-12.684-.374a27.043,27.043,0,0,0-11.546,6.133,108.173,108.173,0,0,0-9.143,9.64c-2.594,2.879-5.268,5.8-8.79,7.542-3.633,1.8-7.82,1.813-11.73,1.106a2.468,2.468,0,0,0-2.952,1.677,2.421,2.421,0,0,0,1.676,2.952,26.2,26.2,0,0,0,11.846-.188,23.191,23.191,0,0,0,9.631-5.815c3.1-2.975,5.791-6.331,8.715-9.469,2.826-3.034,6.028-6.272,9.945-7.849a27.05,27.05,0,0,1,6.527-1.669,11.9,11.9,0,0,1,6.082.459,2.48,2.48,0,0,0,3.284-.861,2.418,2.418,0,0,0-.861-3.284Z"/><path class="d" d="M309.259,48.265c8.091-.128,10.41,9.338,12.086,15.51,1.891,6.961,4.218,14.846,11.028,18.49,2.723,1.456,5.151-2.686,2.423-4.145-6.564-3.512-7.8-12.212-9.675-18.707-1.1-3.8-2.471-7.615-5.009-10.71a13.921,13.921,0,0,0-10.853-5.238c-3.086.048-3.1,4.848,0,4.8Z"/><path class="d" d="M279.4,111.185c.177-.227.535-.767.83-.865-.241.181-.289.221-.146.119.07-.05.14-.1.213-.143a5.817,5.817,0,0,1,.521-.3c.554-.282-.322.083.14-.073.166-.056.329-.118.5-.169.4-.122.8-.2,1.2-.282.5-.1-.483.039.066-.011.176-.016.352-.033.529-.044a12.428,12.428,0,0,1,1.351-.017c.206.01.413.022.617.049-.559-.073.048.029.171.061s.264.072.394.116c.249.093.218.076-.093-.049.119-.007.365.189.456.245.133.08.585.256.078.022a1.914,1.914,0,0,1,.445.409c.06.061.119.125.176.19q.25.3-.055-.079s.264.417.276.438c.056.1.109.2.158.306l-.106-.256c.133.137.153.511.206.688.142.473.006-.436.015.1,0,.188,0,.372,0,.559,0,.489.109-.428-.028.193a1.674,1.674,0,0,1-.181.626q.174-.382.063-.143c-.039.085-.081.168-.126.25a1.549,1.549,0,0,1-.3.474q.289-.36.034-.061c-.081.089-.165.174-.253.256-.314.341.353-.177-.084.061a2.435,2.435,0,0,1-.232.133c-.16.08-.1.059.168-.064a2.838,2.838,0,0,1-.338.1c.348-.033.386-.041.111-.024a2.4,2.4,0,1,0,0,4.8,6.106,6.106,0,0,0,5.159-3.5,7.561,7.561,0,0,0,.1-6.454,7.4,7.4,0,0,0-4.3-3.816,11.729,11.729,0,0,0-5.937-.153,8.64,8.64,0,0,0-5.2,2.913,2.622,2.622,0,0,0-.7,1.7,2.439,2.439,0,0,0,.7,1.7c.86.79,2.57,1.058,3.394,0Z"/><path class="d" d="M361.856,211.813l8.049,29.465c.813,2.976,5.445,1.712,4.629-1.277l-8.05-29.464c-.813-2.976-5.445-1.713-4.628,1.276Z"/><path class="d" d="M296.659,107.258q.461.879.85,1.792l-.242-.573a24.33,24.33,0,0,1,1,2.848,2.491,2.491,0,0,0,1.1,1.434,2.4,2.4,0,0,0,3.284-.861,2.484,2.484,0,0,0,.242-1.849,27.333,27.333,0,0,0-2.091-5.214,2.4,2.4,0,0,0-4.387.573,2.608,2.608,0,0,0,.242,1.85Z"/><path class="g" d="M177.661,53.915A72,72,0,0,1,190.2,56.461c9.914,3.538,15.552,10.783,15.417,21.31-.05,3.912-.877,9.411-4.253,13.137-1.379,1.521-2.949,3.072-4.709,4.825a4.268,4.268,0,0,0-.251,5.713,27.478,27.478,0,0,1,6.371,19.127c-.181,3.252-2.133,6.23-3.543,8.335a14.068,14.068,0,0,1-2.207,2.606,4.265,4.265,0,0,0,.286,6.548c4.832,3.621,10.206,9.191,10.484,13.4.258,3.921-1.123,7.173-3.9,8.29a7.743,7.743,0,0,1-5.128-.094c-8.114-2.823-16.757-6.6-36.58-7.139-.093,0-.187-.008-.28-.017-10.6-1.006-22.194-2.47-26.917-15.008a27.481,27.481,0,0,1-1.168-14.392c.21-1.212.457-2.465.725-3.719,1.676-7.841-.851-14.582-9.645-16.847-1.39-.358-3.946-1.03-4.489-1.175C108.659,98.223,102.955,88.3,103.468,75.9c.189-4.568,1.349-7.5,3.79-11.37a23.759,23.759,0,0,1,8.942-7.524C131.868,50.946,156.4,51.886,177.661,53.915Z"/><path class="a" d="M122.325,193.136c1.607-2.966,1.235-6.814,1.162-7.688-.456-5.471-5.114-11.431-8.7-15.834a42.618,42.618,0,0,0-7.389-6.807,5.174,5.174,0,0,0-6.387-.254,3.79,3.79,0,0,0-.508,4.822c2.064,2.978,3.521,4.978,5.057,7.04l-1.442-.074a4.948,4.948,0,0,0-2.68.49,3,3,0,0,0-.97.72,3.325,3.325,0,0,0-.33,3.5c.21.43.41.85.62,1.28a7.071,7.071,0,0,0-1.34-.46,3.025,3.025,0,0,0-4.18,3.22,9.645,9.645,0,0,0,1.1,3.7,2.784,2.784,0,0,0,.12.26,5.025,5.025,0,0,0-3.56-.56,3.04,3.04,0,0,0-1.32.59c-1.18.96-1.1,2.77-.84,4.27a41.306,41.306,0,0,0,1.775,6.706,15.381,15.381,0,0,0-2.092,6.678,15.655,15.655,0,0,0,1.33,9.33,10.968,10.968,0,0,1,1.14,2.52l-.345,3.7c4.152.662,14.062,2.359,19.282,3.378.078-1.338.168-2.676.258-4.015a25.659,25.659,0,0,1,3.06-12.53c2.9-6.06,4.28-7.91,7.18-13.98"/><path class="b" d="M113.212,236.105c.13-.676.259-1.416.4-2.24.389-2.04.93-6.022,1.251-8.272a1.362,1.362,0,0,0-1.063-1.529c-4.372-.949-17.925-3.267-22-3.9a1.367,1.367,0,0,0-1.486.865,60.031,60.031,0,0,0-2.365,7.153c.04.484.379,1.846.456,2.365a6.345,6.345,0,0,0,.091.674,6.72,6.72,0,0,0,1.244,2.007A72.265,72.265,0,0,1,95.8,244.584a7.008,7.008,0,0,0,10.182,3.027,14.864,14.864,0,0,0,2.1-1.539,16.185,16.185,0,0,0,2.492-3.016A17.1,17.1,0,0,0,113.212,236.105Z"/><path class="d" d="M114.223,223.666c.171-2.828.225-5.719.669-8.52a28.518,28.518,0,0,1,2.937-8.084c2.1-4.284,4.5-8.411,6.566-12.714a2.464,2.464,0,0,0-.861-3.284,2.421,2.421,0,0,0-3.283.861c-2.2,4.581-4.764,8.968-6.971,13.544a30.713,30.713,0,0,0-3.052,8.633c-.486,3.16-.612,6.376-.8,9.564-.187,3.086,4.614,3.075,4.8,0Z"/><path class="d" d="M90.267,228.823q.438-1.713.994-3.392a20.946,20.946,0,0,0,1.1-3.043q.369-.749-.238.02-1.282.044-.643.121a4.337,4.337,0,0,0,.714.114q.877.141,1.755.286,4.7.775,9.389,1.607c2.918.514,5.838,1.029,8.742,1.616a5.058,5.058,0,0,0,.753.155c1.015.043-.8-.442-.321-1.074a4,4,0,0,0-.176,1.25q-.1.7-.2,1.4c-.255,1.783-.5,3.569-.836,5.34a2.465,2.465,0,0,0,1.676,2.952,2.422,2.422,0,0,0,2.952-1.676c.309-1.651.546-3.314.784-4.976.236-1.638.867-3.686.369-5.293-.9-2.9-4.926-2.957-7.42-3.418-5.538-1.024-11.089-1.994-16.652-2.875-2.508-.4-4.193.391-5.14,2.81a58.409,58.409,0,0,0-2.229,6.8c-.764,2.994,3.864,4.272,4.629,1.276Z"/><path class="d" d="M124.4,194.347c4.769-9.332-1.71-18.767-7.442-25.847a38.883,38.883,0,0,0-5.677-5.673c-1.82-1.487-3.644-3.123-6.04-3.519a6.719,6.719,0,0,0-6.748,2.516,6.351,6.351,0,0,0,.208,7.152c3.054,4.5,6.409,8.785,9.647,13.147a2.473,2.473,0,0,0,3.284.861,2.416,2.416,0,0,0,.861-3.283c-2.344-3.157-4.738-6.278-7.041-9.465q-.927-1.282-1.834-2.577a6.528,6.528,0,0,1-1.34-2.129c-.244-1.271.939-1.672,2.008-1.539,1.569.195,3.044,1.753,4.2,2.723a36,36,0,0,1,4.724,4.742c2.567,3.137,5.194,6.459,6.812,10.207,1.322,3.065,1.807,7.187.236,10.262-1.4,2.745,2.737,5.177,4.145,2.422Z"/><path class="d" d="M106.607,186.88c-1.289-2.531-2.5-5.1-3.731-7.658q-.2-.425-.41-.848c-.086-.178-.178-.354-.259-.534.088.2.085.275.033.028-.017-.081-.071-.6-.066-.261,0,.317.028-.113.018-.173-.048-.289-.1.333-.021.053.046-.155.08-.313.13-.468-.13.4-.011.04.01.054-.025-.017-.28.342.063-.041.174-.2-.243.1.006.018.034-.011.394-.218.189-.118-.233.114.3-.1.359-.116.147-.041.3-.074.448-.1-.347.066-.012.01.163.007.193,0,.383.007.576.021a2.412,2.412,0,0,0,2.4-2.4,2.459,2.459,0,0,0-2.4-2.4,6.6,6.6,0,0,0-5.466,2.064,5.684,5.684,0,0,0-.787,5.794c.662,1.57,1.464,3.094,2.2,4.63.783,1.633,1.579,3.26,2.4,4.874a2.417,2.417,0,0,0,3.283.861,2.458,2.458,0,0,0,.861-3.284Z"/><path class="d" d="M101.087,191.04c-.615-1.155-1.2-2.329-1.764-3.508-.253-.525-.5-1.053-.745-1.58-.119-.255-.232-.513-.347-.77-.293-.651.159.437-.1-.228-.065-.168-.13-.337-.189-.507-.118-.34-.18-.694-.288-1.035-.08-.253,0,.347-.013-.105,0-.195,0-.383,0-.578.01-.459-.086.284-.007,0,.041-.144.073-.3.109-.441.076-.211.078-.227.009-.048s-.065.164.035-.034c.292-.345-.208.206.006-.008s-.372.225.007,0c.435-.263-.424.073.079-.027a1.9,1.9,0,0,0,.35-.076q-.463.059-.186.041c.091,0,.183-.007.275,0,.075,0,.6.039.232,0s.145.035.222.053c.2.045.393.1.585.164.114.037.668.27.182.054a2.463,2.463,0,0,0,3.283-.861,2.427,2.427,0,0,0-.861-3.284c-2.025-.9-4.361-1.374-6.428-.29a5.667,5.667,0,0,0-2.664,5.659,17.271,17.271,0,0,0,1.9,5.468c.693,1.47,1.409,2.932,2.174,4.367a2.42,2.42,0,0,0,3.283.861,2.452,2.452,0,0,0,.861-3.284Z"/><path class="d" d="M98.855,187.061v-.01a2.4,2.4,0,0,0-1.189-2.072,7.442,7.442,0,0,0-5.937-.653,5.242,5.242,0,0,0-3.513,4.688,15.46,15.46,0,0,0,.616,5,42.012,42.012,0,0,0,1.589,5.29,2.453,2.453,0,0,0,2.952,1.677,2.428,2.428,0,0,0,1.676-2.953,41.945,41.945,0,0,1-1.316-4.171q-.288-1.116-.514-2.245c-.065-.328-.129-.657-.184-.988-.061-.367-.1-.174,0,.039a1.392,1.392,0,0,1-.041-.438,6.9,6.9,0,0,1-.014-.788c0-.117.13-.526.006-.192-.131.355.04-.116.056-.173a1.739,1.739,0,0,0,.1-.311c-.019.366-.138.319.014.073.137-.22-.343.313-.012.049-.24.191-.2.192.019.013.2-.161-.472.119.013-.005.118-.03.236-.061.355-.09.573-.143-.252-.028.071-.013a4.871,4.871,0,0,0,.512-.01c.447-.03-.184-.069.074-.01.168.039.334.067.5.114.131.037.259.085.388.128-.481-.159.076.059.166.109l-1.189-2.073v.01a2.4,2.4,0,0,0,4.8,0Z"/><path class="d" d="M90.477,196.784a22,22,0,0,0-2.621,9.542,18.471,18.471,0,0,0,.564,5.706,16.69,16.69,0,0,0,1.115,2.958,12.924,12.924,0,0,1,1.039,2.233c.785,2.985,5.416,1.719,4.629-1.276-.428-1.628-1.477-2.981-1.978-4.58a13.679,13.679,0,0,1-.584-4.721,21.335,21.335,0,0,1,.6-4.15,10.879,10.879,0,0,1,1.383-3.289c1.482-2.712-2.661-5.137-4.145-2.423Z"/></svg>
