<svg xmlns="http://www.w3.org/2000/svg" fill="none" viewBox="0 0 24 24"><path stroke="currentColor" stroke-linecap="round" stroke-width="1.5" d="M3.17 18.83C4.34 20 6.23 20 10 20h5c3.11-.01 4.77-.1 5.83-1.17C22 17.66 22 15.77 22 12s0-5.66-1.17-6.83C19.77 4.11 18.1 4.01 15 4h-5C6.23 4 4.34 4 3.17 5.17S2 8.23 2 12s0 5.66 1.17 6.83Z"/><path fill="currentColor" d="M9 12a1 1 0 1 1-2 0 1 1 0 0 1 2 0m4 0a1 1 0 1 1-2 0 1 1 0 0 1 2 0"/><path stroke="currentColor" stroke-linecap="round" stroke-width="1.5" d="M15 2v20"/></svg>
