<svg xmlns="http://www.w3.org/2000/svg" fill="none" viewBox="0 0 24 24"><path fill="currentColor" fill-rule="evenodd" d="M9.3 2a4.6 4.6 0 0 1 1.28 2.29c.24.93.22 1.87-.03 2.65-.24.77-.76 1.5-1.6 1.73-.85.25-1.66-.11-2.25-.66a4.7 4.7 0 0 1-1.28-2.3 5 5 0 0 1 .03-2.65c.24-.77.76-1.5 1.6-1.73.85-.25 1.66.11 2.25.66M8.27 3.08c-.35-.33-.64-.37-.81-.32s-.43.25-.58.74a3.4 3.4 0 0 0 0 1.83c.17.7.5 1.25.85 1.57s.64.37.81.32.43-.25.58-.74c.16-.48.18-1.14 0-1.83s-.5-1.25-.85-1.57m2.58 6.35a3.6 3.6 0 0 1 2.3 0c.83.28 1.43.97 1.99 1.86s1.17 2.12 1.94 3.7l.9 1.85.48.98q.17.39.25.74a2.7 2.7 0 0 1-2.56 3.18q-.37 0-.77-.1l-1.05-.28h-.01l-.96-.25a7 7 0 0 0-3.68.25h-.01l-1.05.28q-.4.1-.77.1a2.7 2.7 0 0 1-2.31-3.92l.47-.98.9-1.85a44 44 0 0 1 1.95-3.7c.56-.89 1.16-1.58 2-1.86m1.82 1.42a2 2 0 0 0-1.34 0c-.31.1-.68.41-1.2 1.24a45 45 0 0 0-1.89 3.6l-.87 1.8-.46.94c-.1.24-.13.34-.14.39a1.2 1.2 0 0 0 1.13 1.42c.04 0 .14 0 .38-.06l1-.27h.04a8.3 8.3 0 0 1 5.37 0h.02l1 .27c.25.05.35.06.4.06a1.2 1.2 0 0 0 1.12-1.42c0-.05-.04-.15-.14-.39l-.45-.94-.88-1.8a44 44 0 0 0-1.9-3.6c-.51-.83-.88-1.13-1.19-1.24m.75-6.57c.23-.93.7-1.75 1.28-2.3.6-.55 1.4-.9 2.25-.66.84.23 1.36.96 1.6 1.73.25.78.27 1.72.03 2.65-.23.93-.7 1.75-1.28 2.3-.6.55-1.4.9-2.25.66-.84-.24-1.36-.96-1.6-1.73a5 5 0 0 1-.03-2.65m3.12-1.52c-.17-.05-.46-.01-.81.32-.35.32-.68.87-.86 1.57s-.15 1.35 0 1.83c.16.49.4.69.59.74.17.05.46.01.81-.32.35-.32.68-.87.86-1.57s.15-1.35 0-1.83c-.16-.49-.4-.69-.59-.74M4.7 9.2c-.57-.39-1.3-.6-2.01-.34-.73.26-1.16.88-1.34 1.54-.17.66-.12 1.43.15 2.16s.74 1.34 1.3 1.74 1.3.6 2.01.34a2.2 2.2 0 0 0 1.34-1.54c.17-.66.12-1.43-.15-2.16A3.7 3.7 0 0 0 4.7 9.2m-.86 1.24c.29.2.58.55.76 1.03.17.47.18.92.1 1.24-.1.33-.25.47-.39.51-.13.05-.36.04-.65-.16s-.58-.55-.76-1.03a2 2 0 0 1-.1-1.24c.1-.33.25-.47.39-.51.13-.05.36-.04.65.16m17.47-1.58a2.2 2.2 0 0 0-2 .34c-.57.4-1.04 1.01-1.31 1.74s-.32 1.5-.15 2.16.61 1.28 1.34 1.54c.71.25 1.44.05 2-.34.57-.4 1.04-1.01 1.31-1.74s.32-1.5.15-2.16a2.2 2.2 0 0 0-1.34-1.54m-1.9 2.6c.17-.47.46-.82.75-1.02s.52-.21.66-.16c.13.04.29.18.38.5.08.33.07.78-.1 1.25-.18.48-.47.83-.76 1.03s-.52.21-.65.16c-.14-.04-.3-.18-.39-.5a2 2 0 0 1 .1-1.25" clip-rule="evenodd"/></svg>
