<svg xmlns="http://www.w3.org/2000/svg" viewBox="-13.34 0 281.561 281.561"><defs><style>.a{fill:#fff}.c{fill:#211715}.d{fill:#3d8dcc}</style></defs><path d="M95.92 279.15h-8.2c-3.89 0-2.31-9.21-1.67-10.6s1.92-2.3 4.12-2.71c7.65-1.46 9.54-4 10.18-11.31.27-3.14.55-5.08.7-8.2.11-2.18.3-4.64.65-8.1l51.33-.02c.35 3.47.54 5.93.65 8.12.15 3.12.44 5.06.7 8.2.64 7.31 2.54 9.85 10.18 11.3 2.2.43 3.48 1.32 4.12 2.72s2.35 10.62-1.42 10.62ZM248.2 71.77a7 7 0 0 1 4.14 6.39l.05 126.93-249.94.09v-7.02L2.4 78.25a7 7 0 0 1 7-7l235.95-.09a7 7 0 0 1 2.85.6" class="a"/><path d="M7.19 237.89a7 7 0 0 1-4.73-6.62v-26.09l249.94-.1v26.1a7 7 0 0 1-6.98 7l-235.96.08a7 7 0 0 1-2.28-.37" style="fill:#cfcfcf"/><path d="M2.45 207.58h25.69l26.58-.02h32.1l35.12-.02 35.51-.02h33.43l28.5-.02h33.02c3.09 0 3.1-4.8 0-4.8h-27.13l-27.04.01-32.39.01-35.22.02-35.45.01-33.18.01-28.08.01-20.49.01H2.45c-3.09 0-3.1 4.8 0 4.8m148.34 32.25c.48 5.12.74 10.25 1.26 15.36.35 3.38 1.02 7.01 3.63 9.42a13 13 0 0 0 4.52 2.58 23 23 0 0 0 2.68.75 9 9 0 0 1 2.85.8 3 3 0 0 1 .61.52c.1.15.16.35.27.5-.03-.05-.17-.62-.14-.31.05.48.28 1 .38 1.47a15 15 0 0 1 .38 3.95q0 .54-.07 1.07c-.04.4.07-.34 0 .04q-.07.25-.12.52l-.12.38c.17-.48.05-.15.01-.05l-.09.15q-.18.28-.01.04c-.02-.05-.06-.05.19-.19-.35.19.75-.04.2-.06h-17.87l-37.89-.01h-23.7c-.38.01-.02.07.16.07-.09 0 .44.25.09.07-.45-.24.3.1 0 0-.07-.03-.28-.57-.05-.02l-.13-.39a5 5 0 0 1-.25-1.74 19 19 0 0 1 .07-2.11c.01-.14.14-1.2.08-.77l.18-1.04a13 13 0 0 0 .34-1.37c.02-.18.37-.4-.13.3.1-.15.16-.34.27-.5a3 3 0 0 1 .6-.52 9 9 0 0 1 2.85-.8 22 22 0 0 0 2.82-.8 10.9 10.9 0 0 0 6.98-6.63 22 22 0 0 0 1.05-5.48c.26-2.58.54-5.17.7-7.76q.22-3.72.55-7.43a2.4 2.4 0 0 0-2.4-2.4 2.45 2.45 0 0 0-2.4 2.4c-.5 5.22-.7 10.47-1.3 15.68a19 19 0 0 1-.4 2.27 16 16 0 0 1-.52 1.67c.17-.4-.13.25-.14.27a4.7 4.7 0 0 1-2.42 2.36 24 24 0 0 1-5.24 1.52 7.4 7.4 0 0 0-5.19 3.8 17 17 0 0 0-1.05 8.64c.38 3.07 1.97 5.49 5.3 5.5h77.48c1.62 0 3.23.07 4.51-1.15 2.45-2.33 1.96-6.59 1.5-9.6a12 12 0 0 0-.93-3.48 7.6 7.6 0 0 0-5.56-3.81 19 19 0 0 1-4.94-1.5 9 9 0 0 1-.9-.55l-.04-.03-.48-.45c-.1-.1-.58-.7-.32-.34a8 8 0 0 1-.62-1.03 2 2 0 0 1-.26-.62q-.18-.54-.32-1.1a18 18 0 0 1-.45-2.55c-.26-2.54-.53-5.09-.7-7.64-.18-2.63-.33-5.26-.58-7.88a2.47 2.47 0 0 0-2.4-2.4 2.4 2.4 0 0 0-2.4 2.4Z" class="c"/><path d="M111.89 265.69h30.56c3.1 0 3.1-4.8 0-4.8H111.9c-3.09 0-3.1 4.8 0 4.8M0 78.25l.02 48.17.02 54.96.01 27v19.05a26 26 0 0 0 .3 6.18 9.5 9.5 0 0 0 9.1 7.06c2.07.04 4.14 0 6.2 0h14.68l36.54-.02 42.55-.02 44.26-.02 41.69-.01 34.8-.02h13.47a16 16 0 0 0 4.27-.33 9.5 9.5 0 0 0 5.06-3.51c2.5-3.37 1.83-7.88 1.83-11.83l-.02-53.27-.02-54.47V81.35a22 22 0 0 0-.35-5.7 9.5 9.5 0 0 0-3.51-5.05c-3.38-2.52-8.16-1.83-12.17-1.83h-11.55l-30.9.01-38.01.02-41.22.01-40.52.02H40.64l-27.35.02c-2.14 0-4.5-.24-6.56.38A9.6 9.6 0 0 0 0 78.25c-.07 3.09 4.73 3.09 4.8 0a4.7 4.7 0 0 1 1.86-3.71 5.5 5.5 0 0 1 3.55-.9h50.16l38.24-.02 40.77-.01 39.26-.02 34.22-.01h30.08c1.9 0 3.87-.23 5.42 1.11a5 5 0 0 1 1.58 4.1v16.38l.02 50.86.04 54.21.01 25.22c0 2 .14 4.07 0 6.06a4.6 4.6 0 0 1-2 3.45c-1.82 1.27-4.54.8-6.67.8l-30.11.01-38.49.02-42.97.01-43.07.02-39.25.02H16.07q-3.13.02-6.26 0a4.8 4.8 0 0 1-3.72-1.45c-1.14-1.23-1.23-2.63-1.23-4.23v-24.99l-.03-53.83-.02-51.57V78.25c-.01-3.09-4.81-3.1-4.81 0" class="c"/><path d="M95.57 164.63a34 34 0 0 1-2.66-6.04 56 56 0 0 1-2.7-15.88c-.34-10.33-.07-19.91-.03-30.4a3.2 3.2 0 0 1 2.56-3.15c5-1.02 12.03-2.46 15.55-3.5a139 139 0 0 0 17.64-6.55 3.2 3.2 0 0 1 2.54-.04c3.26 1.36 12.03 4.95 17.56 6.59 3.52 1.04 10.54 2.49 15.54 3.5a3.2 3.2 0 0 1 2.57 3.15c.03 10.49.3 20.06-.03 30.4a58 58 0 0 1-1.67 12.33 35 35 0 0 1-16.38 21.53c-5.13 3.02-11 5.94-16.2 8.34a6.4 6.4 0 0 1-5.41 0 173 173 0 0 1-19.12-10.12 28.6 28.6 0 0 1-9.76-10.16" class="d"/><path d="M97.65 163.42c-4.5-8.03-5.04-17.3-5.17-26.3-.07-4.7-.04-9.39 0-14.08l.08-7.26a18 18 0 0 1 .02-3.46.9.9 0 0 1 .63-.8 16 16 0 0 1 2.56-.53l3.15-.66q2.83-.59 5.64-1.24a106 106 0 0 0 11.34-3.38q3-1.07 5.96-2.27 1.52-.62 3.02-1.27c.83-.35 1.83-1.08 2.75-.85a27 27 0 0 1 3.47 1.4q2.41.98 4.83 1.92c3.24 1.25 6.5 2.5 9.84 3.44 3.5 1 7.07 1.72 10.62 2.46l2.9.6a6 6 0 0 1 2.08.47c.53.39.37 1.13.37 1.7q0 1.97.03 3.94.08 7.06.1 14.13c0 8.94.3 18.32-2.94 26.8a33 33 0 0 1-13.76 16.13 153 153 0 0 1-11.9 6.34l-2.84 1.36a10 10 0 0 1-2.64 1.06c-1.95.3-3.95-1.07-5.63-1.89a178 178 0 0 1-11.76-6.13 38 38 0 0 1-9.5-7.07 27 27 0 0 1-3.25-4.56c-1.55-2.67-5.7-.26-4.15 2.43a32 32 0 0 0 8.59 9.62 86 86 0 0 0 12.01 7.05q3.19 1.65 6.42 3.19c2.18 1.03 4.36 2.27 6.85 2.19s4.7-1.37 6.89-2.42q3.32-1.59 6.59-3.29a66 66 0 0 0 11.55-7.16 38 38 0 0 0 8-9.14c5.08-8.15 6.02-17.7 6.2-27.08.1-5.1.07-10.2.03-15.3l-.08-7.49c-.01-2.38.37-5.03-1.16-7.06-1.4-1.87-3.44-2.16-5.57-2.6q-3.18-.65-6.33-1.34a92 92 0 0 1-10.5-2.87 228 228 0 0 1-10.76-4.1 18 18 0 0 0-4.28-1.56c-2.43-.3-4.78 1.25-6.96 2.15a132 132 0 0 1-13.47 4.74c-3.77 1.1-7.63 1.86-11.47 2.66-1.98.4-4.35.54-6 1.78-2.02 1.51-2.27 3.63-2.28 5.99l-.13 15.42c-.03 10.05-.27 20.35 2.95 30a39 39 0 0 0 2.91 6.61c1.51 2.7 5.66.28 4.15-2.42" class="c"/><path d="M119.79 128.54a7.5 7.5 0 0 1 2.01-5.12 7.65 7.65 0 0 1 10.7-.01q.26.25.5.55c-.23-.29.18.24.22.3a10 10 0 0 1 .5.84s.32.67.18.33a8 8 0 0 1 .63 3.1c.04 3.09 4.84 3.1 4.8 0a12.2 12.2 0 0 0-7.94-11.39 12.1 12.1 0 0 0-16.4 11.4c-.04 3.08 4.76 3.08 4.8 0" class="a"/><path d="M110.12 132.07v19.4a5.1 5.1 0 0 0 5.1 5.12h23.86a5.1 5.1 0 0 0 5.11-5.1v-19.41a5.1 5.1 0 0 0-5.1-5.11l-23.86-.01a5.1 5.1 0 0 0-5.11 5.1" class="a"/><path d="M124.87 139.82v7.43a2.26 2.26 0 0 0 2.24 2.25h.07a2.25 2.25 0 0 0 2.26-2.25v-7.42z" class="d"/><path d="M127.16 133.93a4.63 4.63 0 0 0-4.72 4.7 4.72 4.72 0 1 0 9.44 0 4.6 4.6 0 0 0-4.72-4.7" class="d"/><path d="m250.83 16.84 2.02-2.5a1.97 1.97 0 0 0-1.02-3.14l-3.1-.83a2 2 0 0 1-1.46-2.01l.17-3.2a1.97 1.97 0 0 0-2.68-1.95l-3 1.15a2 2 0 0 1-2.36-.76L237.66.9a1.97 1.97 0 0 0-3.31 0l-1.75 2.7a2 2 0 0 1-2.36.77l-3-1.16a1.97 1.97 0 0 0-2.68 1.95l.17 3.2a2 2 0 0 1-1.46 2.01l-3.1.83a1.97 1.97 0 0 0-1.02 3.15l2.03 2.49a2 2 0 0 1 0 2.48l-2.03 2.5a1.97 1.97 0 0 0 1.02 3.14l3.1.83a2 2 0 0 1 1.46 2.01l-.16 3.2a1.97 1.97 0 0 0 2.67 1.95l3-1.16a2 2 0 0 1 2.37.77l1.74 2.7a1.97 1.97 0 0 0 3.3 0l1.75-2.7a2 2 0 0 1 2.37-.77l3 1.16a1.97 1.97 0 0 0 2.67-1.95l-.18-3.2a2 2 0 0 1 1.47-2.02l3.1-.82a1.97 1.97 0 0 0 1.02-3.15l-2.03-2.5a2 2 0 0 1 0-2.47m-36.1 21.83q-2.41 2.06-4.77 4.16c-.39.34-4.73 3.98-4.6 4.2l.55-.22c.23-.14.32.42.1.03a5 5 0 0 0-.94-.86l-2.2-2-4.2-3.82q-8.96-8.13-18.07-16.11a453 453 0 0 0-9-7.67 2.47 2.47 0 0 0-3.4 0 2.4 2.4 0 0 0 0 3.4 632 632 0 0 1 18.22 15.8q4.89 4.36 9.74 8.77l4.56 4.16c1.56 1.42 3.04 3.16 5.33 3.07a5.3 5.3 0 0 0 3.4-1.82q1.37-1.28 2.77-2.53 2.91-2.62 5.9-5.17a2.4 2.4 0 0 0 0-3.4 2.45 2.45 0 0 0-3.4 0Z" class="c"/></svg>
