<svg xmlns="http://www.w3.org/2000/svg" fill="currentColor" style="fill-rule:evenodd;clip-rule:evenodd;stroke-linejoin:round;stroke-miterlimit:2" viewBox="0 0 64 64"><path id="Icons" d="M-128-64h1280v800H-128z" style="fill:none"/><g id="Icons1"><path id="Pen" d="M56 51.83v4.2l-33.64-.02 4.7-4.18zM48.46 8.12c1.65 0 2.5.13 4.76 2.01 2.29 1.92 2.7 3.42 2.8 5.09.1 1.8-.5 3.97-2.19 5.68L21.86 52.86c-.52.48-.63.45-.98.55l-10.22 2.56a2.2 2.2 0 0 1-2.55-2.55l2.55-10.23c.1-.33.14-.51.56-.97 10.7-10.7 21.2-21.6 32.09-32.09a8 8 0 0 1 5.14-2.01m0 4.14a3.4 3.4 0 0 0-2.3.98L14.6 44.78l-1.56 6.26 6.26-1.56C29.84 38.92 40.72 28.7 50.93 17.84c1.67-1.82.44-5.45-2.3-5.58z" style="fill-rule:nonzero"/></g></svg>
