<svg xmlns="http://www.w3.org/2000/svg" fill="none" viewBox="0 0 24 24"><path stroke="currentColor" stroke-linecap="round" stroke-linejoin="round" stroke-width="1.5" d="m21.19 8.04-3.18-3.18c-1.2-1.2-2.85-1.14-3.66.15l-1.77 2.8 5.67 5.67 2.8-1.77c1.21-.77 1.28-2.54.14-3.67"/><path stroke="currentColor" stroke-linecap="round" stroke-linejoin="round" stroke-width="1.5" d="m18.25 13.47.24 4.12c.23 2.3-.57 3.1-2.75 3.36l-8.72 1.03c-1.84.21-3.16-1.11-2.94-2.94l.98-8.28m7.52-2.95-1.75-.11M5.28 20.78l3.18-3.19"/><path stroke="currentColor" stroke-linecap="round" stroke-linejoin="round" stroke-miterlimit="10" stroke-width="1.5" d="M11 6.5a4.4 4.4 0 0 1-.65 2.32q-.36.6-.89 1.06a4.4 4.4 0 0 1-4.4.88A4.5 4.5 0 0 1 2 6.5c0-1.42.65-2.69 1.69-3.51A4.5 4.5 0 0 1 11 6.5m-2.84 0H4.8"/></svg>
