<svg viewBox="0 0 16 16" fill="none" xmlns="http://www.w3.org/2000/svg"><mask id="path-1-inside-1_22313_54727" fill="currentColor"><path fill-rule="evenodd" clip-rule="evenodd" d="M11.5479 1.83971C12.0879 1.88638 12.4482 2.24595 13.1016 2.89928C13.7482 3.55256 14.1078 3.90618 14.1611 4.44616C14.1678 4.5328 14.1678 4.63314 14.1611 4.72643C14.1143 5.25953 13.7549 5.61998 13.1084 6.26647L6.53418 12.8456C5.91432 13.4588 5.59478 13.7858 5.1416 13.9725C4.67493 14.1659 4.20099 14.1659 3.34766 14.1659H2.33496C2.06163 14.1659 1.83496 13.9392 1.83496 13.6659V12.6522C1.83496 11.7992 1.83502 11.326 2.02832 10.8661C2.22165 10.3995 2.55439 10.0724 3.1543 9.47253L9.72754 2.89928C10.3742 2.24598 10.7346 1.88641 11.2812 1.83971C11.3679 1.83305 11.4612 1.83305 11.5479 1.83971ZM3.85449 10.1796C3.30129 10.7261 3.05473 10.9795 2.94141 11.2528C2.82813 11.5261 2.82812 11.9059 2.82812 12.6522V13.1659H3.3418C4.0948 13.1659 4.46828 13.1659 4.75488 13.0526C5.02147 12.9392 5.28174 12.6857 5.79492 12.1659L10.9609 6.99889L8.99414 5.03307L3.85449 10.1796ZM11.3613 2.82604C11.1747 2.83937 10.8944 3.12615 10.4277 3.59948L9.70117 4.32604L11.667 6.29284L12.3945 5.56628C12.8479 5.11294 13.1478 4.81251 13.1611 4.62585V4.54577C13.1409 4.35243 12.8408 4.05262 12.3877 3.59948C11.9348 3.14656 11.6351 2.84648 11.4551 2.82604H11.3613Z"/></mask><path fill-rule="evenodd" clip-rule="evenodd" d="M11.5479 1.83971C12.0879 1.88638 12.4482 2.24595 13.1016 2.89928C13.7482 3.55256 14.1078 3.90618 14.1611 4.44616C14.1678 4.5328 14.1678 4.63314 14.1611 4.72643C14.1143 5.25953 13.7549 5.61998 13.1084 6.26647L6.53418 12.8456C5.91432 13.4588 5.59478 13.7858 5.1416 13.9725C4.67493 14.1659 4.20099 14.1659 3.34766 14.1659H2.33496C2.06163 14.1659 1.83496 13.9392 1.83496 13.6659V12.6522C1.83496 11.7992 1.83502 11.326 2.02832 10.8661C2.22165 10.3995 2.55439 10.0724 3.1543 9.47253L9.72754 2.89928C10.3742 2.24598 10.7346 1.88641 11.2812 1.83971C11.3679 1.83305 11.4612 1.83305 11.5479 1.83971ZM3.85449 10.1796C3.30129 10.7261 3.05473 10.9795 2.94141 11.2528C2.82813 11.5261 2.82812 11.9059 2.82812 12.6522V13.1659H3.3418C4.0948 13.1659 4.46828 13.1659 4.75488 13.0526C5.02147 12.9392 5.28174 12.6857 5.79492 12.1659L10.9609 6.99889L8.99414 5.03307L3.85449 10.1796ZM11.3613 2.82604C11.1747 2.83937 10.8944 3.12615 10.4277 3.59948L9.70117 4.32604L11.667 6.29284L12.3945 5.56628C12.8479 5.11294 13.1478 4.81251 13.1611 4.62585V4.54577C13.1409 4.35243 12.8408 4.05262 12.3877 3.59948C11.9348 3.14656 11.6351 2.84648 11.4551 2.82604H11.3613Z" fill="currentColor"/><path d="M11.5479 1.83971L11.677 0.345283L11.6699 0.34467L11.6628 0.344125L11.5479 1.83971ZM13.1016 2.89928L14.1677 1.84406L14.1622 1.83862L13.1016 2.89928ZM14.1611 4.44616L15.6567 4.33124L15.6555 4.31497L15.6539 4.29873L14.1611 4.44616ZM14.1611 4.72643L15.6554 4.85767L15.6565 4.8455L15.6573 4.8333L14.1611 4.72643ZM13.1084 6.26647L12.0477 5.20581L12.0473 5.2062L13.1084 6.26647ZM6.53418 12.8456L7.58911 13.912L7.59523 13.9058L6.53418 12.8456ZM5.1416 13.9725L4.57025 12.5856L4.56749 12.5867L5.1416 13.9725ZM1.83496 12.6522H0.334961H1.83496ZM2.02832 10.8661L3.41117 11.4473L3.41408 11.4403L2.02832 10.8661ZM3.1543 9.47253L4.21496 10.5332L4.21496 10.5332L3.1543 9.47253ZM9.72754 2.89928L10.7882 3.95996L10.7936 3.95449L9.72754 2.89928ZM11.2812 1.83971L11.1662 0.344078L11.1536 0.345156L11.2812 1.83971ZM3.85449 10.1796L4.90873 11.2466L4.91586 11.2395L3.85449 10.1796ZM2.94141 11.2528L1.55579 10.6783L1.55574 10.6784L2.94141 11.2528ZM2.82812 12.6522H1.32812H2.82812ZM2.82812 13.1659H1.32812V14.6659H2.82812V13.1659ZM3.3418 13.1659V14.6659V13.1659ZM4.75488 13.0526L5.30637 14.4475L5.32426 14.4405L5.34196 14.4329L4.75488 13.0526ZM5.79492 12.1659L4.73414 11.1053L4.72744 11.1121L5.79492 12.1659ZM10.9609 6.99889L12.0217 8.05945L13.0824 6.99853L12.0213 5.93797L10.9609 6.99889ZM8.99414 5.03307L10.0545 3.97215L8.99317 2.91131L7.93278 3.97312L8.99414 5.03307ZM11.3613 2.82604V1.32604H11.3078L11.2545 1.32985L11.3613 2.82604ZM10.4277 3.59948L11.4884 4.66017L11.4959 4.65259L10.4277 3.59948ZM9.70117 4.32604L8.64051 3.26538L7.58011 4.32578L8.64025 5.38644L9.70117 4.32604ZM11.667 6.29284L10.6061 7.35323L11.666 8.41371L12.7269 7.35421L11.667 6.29284ZM12.3945 5.56628L13.4545 6.62765L13.4552 6.62694L12.3945 5.56628ZM13.1611 4.62585L14.6573 4.73272L14.6611 4.67935V4.62585H13.1611ZM13.1611 4.54577H14.6611V4.46751L14.653 4.38968L13.1611 4.54577ZM12.3877 3.59948L13.4484 2.53882L12.3877 3.59948ZM11.4551 2.82604L11.6243 1.33562L11.54 1.32604H11.4551V2.82604ZM11.5479 1.83971L11.4187 3.33414C11.3964 3.33221 11.3675 3.32522 11.3446 3.31561C11.3273 3.30833 11.3391 3.31008 11.3888 3.34694C11.4416 3.38608 11.5168 3.44933 11.6306 3.55654C11.7452 3.66446 11.8734 3.79243 12.0409 3.95994L13.1016 2.89928L14.1622 1.83862C13.864 1.54038 13.5237 1.19516 13.1756 0.937053C12.7778 0.642116 12.294 0.398602 11.677 0.345283L11.5479 1.83971ZM13.1016 2.89928L12.0355 3.95449C12.2032 4.12394 12.3305 4.25214 12.4396 4.36814C12.5476 4.48297 12.6117 4.55875 12.652 4.61271C12.6899 4.66352 12.6927 4.67665 12.6861 4.66128C12.6771 4.64041 12.6704 4.61366 12.6684 4.59359L14.1611 4.44616L15.6539 4.29873C15.5934 3.68677 15.3485 3.2098 15.0557 2.81771C14.8008 2.47635 14.4587 2.13815 14.1676 1.84408L13.1016 2.89928ZM14.1611 4.44616L12.6655 4.56108C12.6655 4.56094 12.6657 4.56312 12.6659 4.56754C12.666 4.57188 12.6661 4.5774 12.6661 4.58383C12.6661 4.59736 12.6656 4.61007 12.6649 4.61956L14.1611 4.72643L15.6573 4.8333C15.6689 4.67162 15.6695 4.49694 15.6567 4.33124L14.1611 4.44616ZM14.1611 4.72643L12.6669 4.59519C12.6691 4.56952 12.6769 4.53893 12.6867 4.51566C12.6942 4.49802 12.6925 4.50965 12.6556 4.55929C12.6166 4.61185 12.5536 4.68657 12.4473 4.79945C12.3402 4.91305 12.2135 5.04009 12.0477 5.20581L13.1084 6.26647L14.1691 7.32713C14.4643 7.03187 14.8069 6.69406 15.0636 6.34856C15.356 5.95515 15.6013 5.47328 15.6554 4.85767L14.1611 4.72643ZM13.1084 6.26647L12.0473 5.2062L5.47313 11.7853L6.53418 12.8456L7.59523 13.9058L14.1695 7.32674L13.1084 6.26647ZM6.53418 12.8456L5.47927 11.7792C4.7749 12.476 4.68701 12.5375 4.57025 12.5856L5.1416 13.9725L5.71295 15.3595C6.50254 15.0342 7.05375 14.4415 7.58909 13.912L6.53418 12.8456ZM5.1416 13.9725L4.56749 12.5867C4.4335 12.6423 4.29394 12.6659 3.34766 12.6659V14.1659V15.6659C4.10804 15.6659 4.91637 15.6895 5.71571 15.3583L5.1416 13.9725ZM3.34766 14.1659V12.6659H2.33496V14.1659V15.6659H3.34766V14.1659ZM2.33496 14.1659V12.6659C2.89005 12.6659 3.33496 13.1108 3.33496 13.6659H1.83496H0.334961C0.334961 14.7676 1.2332 15.6659 2.33496 15.6659V14.1659ZM1.83496 13.6659H3.33496V12.6522H1.83496H0.334961V13.6659H1.83496ZM1.83496 12.6522H3.33496C3.33496 11.7025 3.3595 11.5702 3.41115 11.4473L2.02832 10.8661L0.64549 10.2849C0.310544 11.0818 0.334961 11.8959 0.334961 12.6522H1.83496ZM2.02832 10.8661L3.41408 11.4403C3.46868 11.3085 3.54296 11.2052 4.21496 10.5332L3.1543 9.47253L2.09364 8.41186C1.56581 8.93969 0.97462 9.49049 0.642561 10.2919L2.02832 10.8661ZM3.1543 9.47253L4.21496 10.5332L10.7882 3.95994L9.72754 2.89928L8.66688 1.83862L2.09364 8.41187L3.1543 9.47253ZM9.72754 2.89928L10.7936 3.95449C10.9589 3.78756 11.0854 3.66023 11.1981 3.55337C11.3101 3.44719 11.3839 3.38506 11.4352 3.34698C11.4834 3.31127 11.4946 3.30983 11.4773 3.31704C11.4549 3.32644 11.4278 3.33266 11.4089 3.33427L11.2812 1.83971L11.1536 0.345156C9.94495 0.448397 9.17951 1.32068 8.66145 1.84408L9.72754 2.89928ZM11.2812 1.83971L11.3963 3.33529C11.4063 3.33453 11.4227 3.33452 11.4329 3.3353L11.5479 1.83971L11.6628 0.344125C11.4997 0.331587 11.3295 0.331572 11.1662 0.344131L11.2812 1.83971ZM3.85449 10.1796L2.80028 9.11249C2.53367 9.37588 2.29173 9.61627 2.10364 9.83145C1.90729 10.0561 1.70072 10.3288 1.55579 10.6783L2.94141 11.2528L4.32702 11.8273C4.29542 11.9035 4.26879 11.9129 4.36235 11.8058C4.46417 11.6894 4.62211 11.5298 4.90871 11.2466L3.85449 10.1796ZM2.94141 11.2528L1.55574 10.6784C1.40598 11.0397 1.36347 11.3947 1.34532 11.6798C1.32741 11.961 1.32812 12.2985 1.32812 12.6522H2.82812H4.32812C4.32812 12.2597 4.32884 12.0341 4.33925 11.8704C4.34942 11.7107 4.36355 11.7392 4.32707 11.8272L2.94141 11.2528ZM2.82812 12.6522H1.32812V13.1659H2.82812H4.32812V12.6522H2.82812ZM2.82812 13.1659V14.6659H3.3418V13.1659V11.6659H2.82812V13.1659ZM3.3418 13.1659V14.6659C3.69894 14.6659 4.03628 14.6666 4.31814 14.6487C4.60965 14.6303 4.95286 14.5873 5.30637 14.4475L4.75488 13.0526L4.20339 11.6577C4.2703 11.6312 4.28347 11.6449 4.12834 11.6547C3.96356 11.6652 3.73766 11.6659 3.3418 11.6659V13.1659ZM4.75488 13.0526L5.34196 14.4329C5.68565 14.2868 5.95581 14.0785 6.17138 13.8895C6.38204 13.7048 6.61437 13.4709 6.8624 13.2197L5.79492 12.1659L4.72744 11.1121C4.46229 11.3807 4.30789 11.5335 4.19347 11.6339C4.08396 11.7299 4.0907 11.7051 4.16781 11.6723L4.75488 13.0526ZM5.79492 12.1659L6.85568 13.2264L12.0217 8.05945L10.9609 6.99889L9.90018 5.93833L4.73416 11.1053L5.79492 12.1659ZM10.9609 6.99889L12.0213 5.93797L10.0545 3.97215L8.99414 5.03307L7.93374 6.094L9.90054 8.05982L10.9609 6.99889ZM8.99414 5.03307L7.93278 3.97312L2.79313 9.1196L3.85449 10.1796L4.91586 11.2395L10.0555 6.09303L8.99414 5.03307ZM11.3613 2.82604L11.2545 1.32985C10.8704 1.35728 10.5804 1.50915 10.4264 1.60224C10.2595 1.70311 10.1177 1.81886 10.0128 1.91051C9.80842 2.089 9.57445 2.32842 9.35958 2.54637L10.4277 3.59948L11.4959 4.65259C11.6153 4.53146 11.7122 4.43304 11.7983 4.34799C11.8851 4.26226 11.9445 4.20647 11.9863 4.17001C12.0331 4.12913 12.0255 4.14111 11.9783 4.16967C11.9516 4.18577 11.8975 4.21628 11.8194 4.24595C11.7409 4.27574 11.6209 4.31132 11.4682 4.32223L11.3613 2.82604ZM10.4277 3.59948L9.36707 2.53882L8.64051 3.26538L9.70117 4.32604L10.7618 5.3867L11.4884 4.66014L10.4277 3.59948ZM9.70117 4.32604L8.64025 5.38644L10.6061 7.35323L11.667 6.29284L12.7279 5.23244L10.7621 3.26564L9.70117 4.32604ZM11.667 6.29284L12.7269 7.35421L13.4545 6.62765L12.3945 5.56628L11.3346 4.5049L10.607 5.23147L11.667 6.29284ZM12.3945 5.56628L13.4552 6.62694C13.6661 6.416 13.9016 6.18175 14.0804 5.9738C14.1715 5.86778 14.2851 5.72647 14.3841 5.56226C14.4718 5.41682 14.6294 5.12311 14.6573 4.73272L13.1611 4.62585L11.6649 4.51898C11.6763 4.36004 11.7141 4.23782 11.7428 4.16316C11.7718 4.08779 11.8009 4.03656 11.8149 4.01331C11.8397 3.9721 11.8475 3.96923 11.8053 4.01832C11.7675 4.06231 11.7111 4.12333 11.6275 4.20942C11.5446 4.2948 11.4491 4.39037 11.3339 4.50562L12.3945 5.56628ZM13.1611 4.62585H14.6611V4.54577H13.1611H11.6611V4.62585H13.1611ZM13.1611 4.54577L14.653 4.38968C14.6146 4.02266 14.4652 3.74509 14.376 3.59882C14.2773 3.43716 14.1649 3.29743 14.0732 3.19101C13.8941 2.98315 13.659 2.74948 13.4484 2.53882L12.3877 3.59948L11.327 4.66014C11.4424 4.77553 11.5379 4.87107 11.6211 4.95667C11.7049 5.04286 11.7617 5.10431 11.8003 5.14908C11.8428 5.19842 11.8375 5.19823 11.815 5.16131C11.8022 5.14031 11.7753 5.09374 11.7478 5.0249C11.7205 4.95663 11.6844 4.84608 11.6693 4.70186L13.1611 4.54577ZM12.3877 3.59948L13.4484 2.53882C13.2369 2.32736 13.0065 2.09563 12.8044 1.91957C12.7015 1.82997 12.5667 1.71973 12.4123 1.62246C12.2789 1.5385 11.9995 1.37821 11.6243 1.33562L11.4551 2.82604L11.2859 4.31647C11.1312 4.29891 11.0149 4.25788 10.9476 4.22961C10.8788 4.20072 10.8329 4.17319 10.8139 4.16118C10.7804 4.14009 10.7826 4.137 10.8338 4.18159C10.8801 4.22199 10.9429 4.28047 11.0296 4.36494C11.1157 4.4488 11.2118 4.54492 11.327 4.66014L12.3877 3.59948ZM11.4551 2.82604V1.32604H11.3613V2.82604V4.32604H11.4551V2.82604Z" fill="currentColor" mask="url(#path-1-inside-1_22313_54727)"/></svg>
