<svg xmlns="http://www.w3.org/2000/svg" fill="currentColor" style="fill-rule:evenodd;clip-rule:evenodd;stroke-linejoin:round;stroke-miterlimit:2" viewBox="0 0 64 64"><path id="Icons" d="M-1024 0H256v800h-1280z" style="fill:none"/><g id="Icons1"><path id="Pen1" d="M55.94 51.71v4.2L22.3 55.9l4.7-4.2zM48.4 8c1.65 0 2.5.13 4.75 2.01 2.3 1.92 2.7 3.42 2.8 5.09.1 1.8-.5 3.97-2.18 5.68L21.8 52.74c-.52.47-.63.45-.98.55l-10.23 2.56a2.2 2.2 0 0 1-2.55-2.55l2.56-10.23c.1-.33.13-.51.55-.97 10.7-10.7 21.2-21.6 32.1-32.09A8 8 0 0 1 48.38 8M16 43.18l-1.47 1.48-1.57 6.26 6.26-1.57 1.48-1.47zm30.2-20.57-4.8-4.8-22.5 22.5 4.72 4.7c7.55-7.44 15.2-14.8 22.58-22.4m2.83-2.94 1.84-1.95c1.68-1.82.45-5.45-2.3-5.58h-.17a3.4 3.4 0 0 0-2.31.98l-1.81 1.8z" style="fill-rule:nonzero"/></g></svg>
