<svg xmlns="http://www.w3.org/2000/svg" fill="currentColor" viewBox="0 0 32 32"><path d="m23.31 26.1-6.3-3.49c2.35-1.84 2.98-5.45 2.98-7.48V10.9C20 8.1 16.28 5 12.55 5S5 8.1 5 10.9v4.23c0 1.84.78 5.57 3.15 7.47l-6.46 3.5S0 26.85 0 27.8v2.53c0 .94.76 1.7 1.69 1.7H23.3c.93 0 1.7-.76 1.7-1.7V27.8c0-1-1.7-1.69-1.7-1.69m-.3 3.91H2v-1.78a3 3 0 0 1 .64-.37l6.46-3.5a2 2 0 0 0 .3-3.32C7.72 19.69 7 16.72 7 15.13V10.9C7 9.47 9.71 7 12.55 7c2.88 0 5.44 2.43 5.44 3.9v4.23c0 1.56-.48 4.55-2.2 5.91a2 2 0 0 0 .27 3.33l6.3 3.49.18.09q.24.1.46.26zm7.3-8.89-6.39-3.48c2.34-1.85 3.07-5.46 3.07-7.5V5.93c0-2.8-3.8-5.94-7.54-5.94A8.8 8.8 0 0 0 13.11 3c.82.05 1.73.05 2.5.3A6.2 6.2 0 0 1 19.46 2C22.36 2 25 4.46 25 5.94v4.22c0 1.56-.58 4.56-2.3 5.91a2 2 0 0 0 .27 3.33l6.4 3.49.18.09q.24.1.46.26V25h-4.04c.61.46.8 1.11 1.03 2h3.32c.93 0 1.7-.76 1.7-1.7v-2.5c0-1-1.7-1.69-1.7-1.69"/></svg>
