<svg xmlns="http://www.w3.org/2000/svg" fill="none" viewBox="0 0 24 24"><path fill="currentColor" fill-rule="evenodd" d="M9.95 1.25h.1q1-.02 1.7.06c.49.07.96.22 1.34.6s.53.85.6 1.34q.05.45.06 1h.57q1.36 0 2.57.6l.12.07c.94-1.02 2.61-1.04 3.86-.32 1.42.82 2.28 2.56 1.44 4-.83 1.45-2.77 1.58-4.18.76-1.13-.64-1.9-1.88-1.75-3.08l-.16-.08a4 4 0 0 0-1.9-.45h-.57v1.29a8.3 8.3 0 0 1 5 7.45c0 2.13-.85 4.05-2.23 5.5l-.02.03q-.3.33-.7.65c-.3.22-.65.4-1.15.61-1.09.47-1.87.47-3.13.47H8.48c-1.26 0-2.04 0-3.13-.47-.5-.2-.85-.4-1.14-.61q-.42-.31-.7-.65L3.47 20a8 8 0 0 1-2.23-5.5 8.2 8.2 0 0 1 5-7.46V4.95q-.01-1 .06-1.7c.07-.49.22-.96.6-1.34s.85-.53 1.34-.6q.7-.08 1.7-.06m7.1 11.68A7.16 7.16 0 0 0 10 7.75h-.02c-3.26 0-5.97 2-6.9 4.69q.44.18.87.4l.12.06q.54.27 1.11.53c.85.37 1.75.7 2.75.8 1.26.15 2.22-.29 3.37-.82h.02c1.13-.52 2.46-1.12 4.2-.83q.79.13 1.52.35M2.77 13.94l.53.25.12.06q.54.28 1.16.55c.92.4 1.98.79 3.2.93 1.67.18 2.97-.4 4.06-.9l.1-.06c1.15-.52 2.1-.92 3.34-.71.77.13 1.47.32 1.97.53a6.5 6.5 0 0 1-2.35 4.87c-.16.12-.4.26-.84.45-.79.33-1.3.34-2.6.34H8.54c-1.3 0-1.81 0-2.6-.34-.44-.2-.68-.33-.85-.45s-.29-.25-.52-.5a6.5 6.5 0 0 1-1.8-5.02m9.48-7.69h-4.5v-.53l.18-.05c.2-.06.44-.18.6-.43q.24-.37.22-.74.02-.36-.21-.74a1 1 0 0 0-.72-.46c.05-.2.1-.28.15-.33.06-.06.16-.13.48-.17.35-.05.82-.05 1.55-.05s1.2 0 1.55.05c.32.04.42.11.48.17s.13.16.17.48c.05.35.05.82.05 1.55zm6.63 1.81c-.98-.56-1.17-1.48-.9-1.95.28-.47 1.17-.78 2.14-.21.98.56 1.17 1.49.9 1.96-.28.47-1.17.77-2.14.2" clip-rule="evenodd"/></svg>
