<svg xmlns="http://www.w3.org/2000/svg" fill="none" viewBox="0 0 24 24"><path fill="currentColor" fill-rule="evenodd" d="M19 1a1 1 0 0 1 1 1v2h2.01a1 1 0 1 1 0 2h-2v2a1 1 0 1 1-2 0V6H16a1 1 0 1 1 0-2h2V2a1 1 0 0 1 1-1M8.4 3.93c-.66-.5-1.12-.6-1.36-.56-1 .2-1.6.59-2.4 1.4-1.1 1.09-1.63 1.9-1.4 3.15.27 1.43 1.58 3.61 5.17 7.21 3.6 3.6 5.8 4.92 7.23 5.19.67.12 1.18.03 1.63-.2.5-.24.96-.64 1.5-1.2.48-.5.76-.85.97-1.2.19-.32.33-.68.43-1.22.05-.24-.06-.7-.56-1.37a11 11 0 0 0-1.71-1.75 1.2 1.2 0 0 0-1.51.01l-1.52 1.14a3.44 3.44 0 0 1-4.5-.33l-1.03-1.03a3.44 3.44 0 0 1-.33-4.5l1.14-1.51c.37-.5.35-1.12.02-1.51A11 11 0 0 0 8.4 3.94m1.2-1.6c.8.59 1.54 1.37 2.1 2.03 1 1.19.92 2.84.05 4l-1.14 1.51c-.42.57-.36 1.37.15 1.88l1.03 1.04c.51.5 1.32.56 1.88.14l1.52-1.14a3.2 3.2 0 0 1 4 .06c.65.55 1.44 1.29 2.03 2.1.57.76 1.13 1.82.92 2.94-.14.71-.35 1.3-.68 1.86a9 9 0 0 1-1.25 1.55 8 8 0 0 1-2.05 1.62c-.84.4-1.79.57-2.89.36-2.1-.4-4.67-2.13-8.27-5.73S1.67 10.39 1.28 8.3c-.43-2.28.76-3.75 1.95-4.94a6.2 6.2 0 0 1 3.43-1.94c1.11-.22 2.17.35 2.94.91" clip-rule="evenodd"/></svg>
