<svg xmlns="http://www.w3.org/2000/svg" fill="none" viewBox="0 0 24 24"><path stroke="currentColor" stroke-linejoin="round" stroke-width="2" d="M3 6.5a14.5 14.5 0 0 0 16.46 14.37A1.83 1.83 0 0 0 21 19v-2.57a2 2 0 0 0-1.37-1.9l-3.15-1.05c-.8-.26-1.65.2-1.86 1.03a1.45 1.45 0 0 1-2.43.67L8.81 11.8c-.8-.8-.42-2.16.67-2.43a1.45 1.45 0 0 0 1.03-1.86L9.46 4.37A2 2 0 0 0 7.56 3H4.99c-.92 0-1.73.63-1.86 1.54Q3 5.5 3 6.5Z"/><path stroke="currentColor" stroke-linecap="round" stroke-linejoin="round" stroke-width="2" d="m21 3-5.5 5.5M15 5v3.5c0 .28.22.5.5.5v0H19"/></svg>
