<svg xmlns="http://www.w3.org/2000/svg" fill="currentColor" viewBox="0 0 32 32"><path d="M8.2 1.16q1.75 2.41 4.17 6.23.6 1.04-.18 2.48-.3.6-1.51 2.8 1.32 1.87 4.05 4.6c2.73 2.72 3.33 3.16 4.54 4.05a66 66 0 0 1 2.79-1.58 3 3 0 0 1 1.51-.42q.54 0 .97.24a114 114 0 0 1 6.3 4.18q.66.48.75 1.33t-.51 1.82q-.3.42-.97 1.24-.67.81-2 2.06c-1.33 1.25-1.61 1.24-2.18 1.24h-.07q-6.4-.26-15.76-9.6Q.75 12.47.5 6.06q0-.84 1.25-2.21Q2.99 2.5 3.77 1.88q.8-.6 1.33-.97A2.5 2.5 0 0 1 6.62.43q1.02 0 1.58.72zm-2 1.26q-1.28.92-2.4 2.04a6 6 0 0 0-1.3 1.66q.24 5.63 8.99 14.35c8.75 8.72 10.62 8.82 14.37 9.02q.5-.19 1.6-1.33a17 17 0 0 0 2.03-2.42q.19-.25.12-.43-3.62-2.54-6.05-4.05-.26 0-.6.18l-2.73 1.5-1.04.62-1.03-.67a36 36 0 0 1-4.84-4.3q-2.84-2.85-4.24-4.85l-.72-.97.6-1.08 1.51-2.73q.18-.36.19-.6Q8.5 4.9 6.67 2.3h-.06q-.23 0-.42.12z"/></svg>
