<svg xmlns="http://www.w3.org/2000/svg" fill="none" viewBox="0 0 24 24"><path stroke="currentColor" stroke-linecap="round" stroke-linejoin="round" stroke-width="1.5" d="M7 11a2 2 0 1 0 0-4 2 2 0 0 0 0 4M5.56 21c5.57-9.9 10.2-11.64 15.44-5.21"/><path stroke="currentColor" stroke-linecap="round" stroke-linejoin="round" stroke-width="1.5" d="M13.28 3H5a4 4 0 0 0-4 4v10a4 4 0 0 0 4 4h12a4 4 0 0 0 4-4v-6M18.75.83v8"/><path stroke="currentColor" stroke-linecap="round" stroke-linejoin="round" stroke-width="1.5" d="m21.95 5.63-3.2 3.2-3.2-3.2"/></svg>
