<svg xmlns="http://www.w3.org/2000/svg" fill="currentColor" style="fill-rule:evenodd;clip-rule:evenodd;stroke-linejoin:round;stroke-miterlimit:2" viewBox="0 0 1069 1069"><path id="Cctv" d="M1.52 1.59h1066.67v1066.67H1.52z" style="fill:none"/><path d="M784.85 276.24h-500c-109.3 0-197.92 88.61-197.92 197.92v102.43c0 109.3 88.61 197.92 197.92 197.92h52.08v140.05c0 17.25 14 31.25 31.25 31.25h333.34c17.25 0 31.25-14 31.25-31.25V774.5h52.08c109.3 0 197.91-88.61 197.91-197.92V474.16c0-109.3-88.6-197.92-197.91-197.92M670.26 774.51v108.8H399.44V774.5zm62.47-435.77a115 115 0 0 1-4.22 28.34l-.1.37-.2.67-.08.26-.12.41-.07.24-.13.43-.06.22-.14.45-.07.2-.14.47-.06.18-.16.48-.05.18-.01.02-.15.47-.23.66-.05.15a114 114 0 0 1-2.6 6.91l-.05.14-.18.44-.05.11-.04.09-.16.4-.06.14-.01.02-.04.08-.15.36-.07.16-.02.04-.04.09-.14.32-.07.17-.02.05-.05.1-.13.3-.08.17-.03.06-.04.1-.13.28-.08.18-.03.07-.05.1-.12.27-.08.18-.04.07-.05.12-.12.25-.08.17-.04.09-.06.13-.11.23-.08.16-.05.1-.06.14-.1.21-.09.17-.05.1-.07.15-.1.2-.07.16-.06.11-.07.15-.1.2-.07.15-.07.12-.08.16-.09.18-.07.14-.07.14-.08.16-.09.17-.07.14-.07.14-.1.18-.07.15-.07.13-.08.16-.1.18-.07.14-.07.12-.08.17-.1.18-.07.14-.07.11-.09.18-.1.19-.07.12-.06.1-.1.2-.11.2-.06.1-.06.1-.1.2-.12.2-.06.1-.05.1-.11.2-.12.22-.05.09-.05.08-.12.21-.13.22-.05.09-.04.07-.13.22-.13.23-.04.07-.04.07-.14.23-.13.23-.04.07-.03.06-.15.24-.14.24-.03.05-.03.05-.16.25-.14.25-.03.04-.02.04-.17.27-.15.24-.02.04-.02.03-.17.28-.16.25-.03.05-.19.3-.15.24-.02.04-.21.33-.15.23v.01l-.38.58-.37.57v.01l-.15.2-.22.36-.03.03-.15.22-.2.31-.04.05-.15.23-.2.29-.04.06-.16.23-.18.27-.03.04-.03.04-.16.22-.17.26-.04.05-.03.05-.16.21-.17.25-.04.05-.04.06-.15.2-.17.24-.04.07-.05.06-.14.2-.17.22-.05.08-.05.07-.14.2-.16.2-.06.09-.06.08-.14.18-.15.2-.07.1-.06.08-.13.18-.15.2-.07.09-.07.1-.13.16-.14.19-.08.1-.08.1-.13.16-.13.18-.09.11-.08.11-.12.15-.13.17-.1.12-.09.12-.11.14-.13.16-.1.13-.1.12-.1.14-.12.14-.11.14-.1.13-.11.13-.11.13-.12.15-.11.14-.1.12-.1.12-.14.16-.11.14-.1.11-.1.12-.13.16-.13.15-.09.1-.09.12-.14.17-.13.15-.09.1-.08.1-.15.18-.14.16-.08.09-.08.1-.16.18-.15.16-.07.09-.07.08-.17.2-.15.17-.07.07-.07.08-.17.2-.16.18-.06.06-.06.07-.2.2-.16.2-.05.05-.06.06-.2.22-.16.19-.05.05-.05.05-.2.23-.19.19-.04.04-.04.05-.22.23-.18.2-.04.03-.03.04-.23.25-.19.2-.03.02-.02.03-.25.26-.19.2-.04.04-.27.28-.19.19-.02.03-.32.31-.15.16-.01.01-1.06 1.06a114.6 114.6 0 0 1-80.46 33H451.51A114.6 114.6 0 0 1 370 416.66h-.01l-.16-.17-.31-.31-.03-.03-.18-.19-.27-.28-.04-.04-.19-.2-.25-.26-.03-.03-.03-.03-.18-.2-.23-.24-.04-.04-.03-.03-.19-.2-.22-.23-.04-.05-.04-.04-.18-.2-.2-.22-.05-.05-.05-.05-.17-.2-.2-.2-.05-.07-.06-.06-.16-.18-.19-.2-.06-.08-.06-.06-.16-.18-.18-.2-.07-.08-.06-.07-.15-.18-.17-.19-.08-.08-.07-.09-.14-.16-.16-.19-.08-.1-.08-.08-.14-.16-.15-.18-.09-.1-.08-.1-.13-.15-.15-.17-.09-.11-.09-.1-.12-.16-.14-.16-.1-.12-.09-.11-.12-.14-.12-.16-.11-.12-.1-.12-.11-.14-.12-.15-.11-.13-.1-.13-.11-.13-.11-.14-.12-.14-.1-.14-.1-.12-.1-.13-.13-.16-.12-.14-.09-.12-.1-.12-.12-.17-.12-.15-.09-.1-.08-.12-.14-.18-.12-.16-.08-.1-.08-.1-.14-.19-.13-.17-.07-.1-.08-.09-.14-.2-.13-.17-.07-.09-.07-.09-.15-.2-.14-.18-.05-.08-.06-.08-.16-.22-.14-.19-.05-.07-.06-.08-.16-.22-.15-.2-.04-.06-.05-.07-.17-.23-.14-.21-.04-.06-.05-.05-.17-.25-.15-.21-.03-.05-.04-.05-.18-.26-.15-.22-.03-.04-.03-.04-.19-.27-.15-.23-.05-.06-.19-.29-.16-.23-.03-.05-.2-.3-.16-.23-.02-.03-.23-.35-.14-.2v-.02l-.38-.57-.37-.58v-.01l-.16-.23-.2-.33-.03-.04-.15-.24-.19-.3-.03-.05-.15-.25-.17-.28-.02-.03-.03-.04-.15-.24-.16-.27-.02-.04-.03-.04-.15-.25-.15-.25-.03-.05-.03-.05-.15-.24-.14-.24-.03-.06-.04-.07-.14-.23-.13-.23-.04-.07-.05-.07-.13-.23-.13-.22-.04-.07-.05-.09-.12-.22-.12-.21-.05-.08-.05-.1-.12-.21-.12-.2-.05-.1-.06-.1-.11-.2-.1-.2-.06-.1-.06-.1-.11-.2-.1-.2-.06-.1-.07-.12-.1-.2-.1-.17-.06-.11-.07-.14-.1-.19-.09-.16-.06-.12-.08-.14-.1-.19-.07-.15-.07-.13-.08-.15-.09-.18-.08-.14-.07-.14-.08-.17-.09-.16-.06-.14-.08-.14-.09-.18-.08-.16-.06-.12-.07-.16-.1-.19-.07-.15-.06-.11-.08-.16-.1-.2-.07-.15-.05-.1-.08-.17-.1-.21-.07-.14-.04-.1-.08-.16-.11-.23-.06-.13-.04-.09-.08-.17-.12-.25-.06-.12-.03-.07-.08-.18-.12-.26-.05-.11-.03-.07-.08-.17-.13-.29-.05-.1-.02-.06-.08-.17-.14-.3-.04-.1-.02-.05-.07-.16-.15-.33-.04-.1-.01-.03-.07-.16-.15-.36-.04-.08-.01-.02-.06-.14-.17-.4-.04-.09-.04-.1-.19-.45-.05-.12a114 114 0 0 1-2.6-6.94l-.05-.14-.16-.5-.06-.16-.15-.47-.07-.2-.14-.45-.07-.21-.14-.44-.07-.23-.13-.42-.08-.25-.12-.4-.08-.27-.11-.39-.08-.28-.12-.38a115 115 0 0 1-4.4-29h-52.12c-74.79 0-135.42 60.63-135.42 135.42V576.6c0 74.79 60.63 135.42 135.42 135.42h500c74.79 0 135.41-60.63 135.41-135.42V474.16c0-74.79-60.62-135.42-135.41-135.42zm-198.75 144.1c-51.26 0-92.88 41.62-92.88 92.88s41.62 92.88 92.88 92.88 92.88-41.62 92.88-92.88-41.62-92.88-92.88-92.88m0 62.5a30.4 30.4 0 0 1 30.38 30.38 30.4 30.4 0 0 1-30.38 30.38 30.4 30.4 0 0 1-30.38-30.38 30.4 30.4 0 0 1 30.38-30.38m136.05-204.26q.1-1.17.17-2.34H399.5q.06 1.17.17 2.34v.09l.05.47.02.14.05.45.02.17.05.43.03.18.05.42.03.2.06.4.04.2.06.4.03.21.07.4.04.2.07.4.04.2.08.4.04.2.09.4.03.17.1.43.02.09.11.5.15.58.11.44.04.15.1.37.06.22.1.35.07.25.1.33.07.26.1.32.08.27.1.32.1.27.1.3.09.28.1.3.1.28.1.3.11.28.11.3.1.28.12.3.11.28.11.29.12.29.12.28.12.3.12.26.14.34.1.23.25.55.1.23.16.33.12.24.15.31.12.26.15.3.13.25.15.3.13.25.16.3.13.25.16.29.14.25.16.29.14.25.16.28.15.25.17.29.14.24.18.3.14.23.19.3.14.22.2.31.14.22.21.32.13.2.3.43.04.07.35.51.12.17.24.34.15.2.22.3.16.2.21.3.17.21.2.28.18.22.21.27.18.22.21.26.18.22.22.26.18.22.23.26.18.22.23.26.18.2.24.27.18.2.24.27.18.2.26.27.17.18.3.3.14.15.44.44a52 52 0 0 0 36.83 15.26h166.66a52 52 0 0 0 36.83-15.26l.44-.44.15-.15.29-.3.17-.18.26-.28.18-.2.24-.26.18-.2.24-.26.18-.21.23-.26.18-.22.22-.26.19-.22.21-.26.18-.22.22-.26.17-.22.22-.27.17-.22.21-.28.17-.21.21-.3.16-.2.22-.3.14-.2.25-.34.11-.17.36-.5.05-.08.3-.44.12-.19.21-.32.14-.22.2-.3.14-.23.18-.3.15-.24.17-.29.15-.24.17-.29.14-.25.17-.28.14-.25.16-.3.14-.24.16-.3.13-.25.16-.29.13-.26.15-.29.13-.26.15-.3.12-.25.15-.3.12-.25.15-.33.1-.23.26-.55.1-.23.14-.34.11-.26.13-.3.11-.28.12-.3.12-.28.1-.28.12-.3.1-.28.12-.3.1-.27.1-.3.1-.28.1-.3.1-.28.1-.31.1-.27.1-.32.07-.27.1-.32.08-.26.1-.33.07-.25.1-.35.06-.22.1-.37.04-.15.1-.44.15-.58.12-.5.02-.09.1-.43.03-.17.09-.4.04-.2.07-.4.04-.2.07-.4.04-.2.07-.4.04-.2.06-.4.03-.21.06-.4.03-.2.06-.42.02-.18.06-.43.02-.17.05-.45.01-.14.05-.47z"/><path d="M430.68 914.56c0 17.25 14 31.25 31.25 31.25h145.84c17.25 0 31.25-14 31.25-31.25v-35.89a104.16 104.16 0 1 0-208.34 0zm62.5-31.25v-4.64a41.67 41.67 0 1 1 83.33 0v4.64zm-83.33-650.47h250a31.26 31.26 0 0 0 0-62.5h-250a31.26 31.26 0 0 0 0 62.5" style="fill-opacity:.5"/></svg>
