<svg xmlns="http://www.w3.org/2000/svg" fill="none" viewBox="0 0 24 24"><path fill="currentColor" fill-rule="evenodd" d="M12.42 3.45a2.87 2.87 0 0 1 4.06 0l4.07 4.07a2.87 2.87 0 0 1 0 4.06l-3.39 3.38 2.64 2.65a.96.96 0 1 1-1.35 1.35l-2.37-2.36-.4 2.21a1.92 1.92 0 0 1-3.24 1.01l-3.46-3.45-2.14 2.14a.96.96 0 0 1-1.35-1.35l2.14-2.14-3.45-3.46a1.92 1.92 0 0 1 1-3.23l2.22-.41-2.36-2.37A.96.96 0 1 1 6.39 4.2l2.65 2.64zm-3.38 6.1-.02.02-3.49.64 8.26 8.26.64-3.49.02-.02zm6.77 4.06L10.39 8.2l3.38-3.38a.96.96 0 0 1 1.36 0l4.06 4.06c.38.37.38.98 0 1.36z" clip-rule="evenodd"/></svg>
