<svg xmlns="http://www.w3.org/2000/svg" fill="none" viewBox="0 0 24 24"><path fill="currentColor" fill-rule="evenodd" d="M12 2.75a9.25 9.25 0 1 0 0 18.5 9.25 9.25 0 0 0 0-18.5M1.25 12a10.75 10.75 0 1 1 21.5 0 10.75 10.75 0 0 1-21.5 0" clip-rule="evenodd"/><path fill="currentColor" fill-rule="evenodd" d="m14.98 7.4 1.63 1.63q.75.73 1.19 1.29c.3.4.54.9.42 1.5-.13.59-.57.94-1 1.18q-.63.33-1.62.68l-1.01.38a2 2 0 0 0-.47.2l-.05.05a2 2 0 0 0-.16.49v.04q-.17.61-.33 1.04c-.11.28-.3.63-.66.84q-.36.2-.77.2a1.6 1.6 0 0 1-.99-.4q-.35-.3-.8-.75l-.53-.54-1.8 1.8a.75.75 0 0 1-1.06-1.06l1.8-1.8-.52-.51q-.45-.45-.74-.8a1.6 1.6 0 0 1-.4-.98q0-.41.2-.78c.21-.36.56-.54.84-.66l1.03-.32h.04c.44-.13.47-.15.5-.16l.05-.05c.01-.02.04-.05.2-.48l.34-.94.02-.06q.35-1 .67-1.64c.24-.43.59-.87 1.19-1 .6-.14 1.1.12 1.5.41.37.28.8.71 1.3 1.2m-2.47-.15-.02.02a1 1 0 0 0-.17.24c-.17.3-.34.77-.6 1.5l-.35.94-.03.07q-.13.47-.43.86-.14.17-.32.3a3 3 0 0 1-.9.36l-1.05.33q0 .03.05.06c.12.16.32.36.65.7l2.06 2.05a10 10 0 0 0 .76.71l.03-.07q.1-.26.28-.92l.02-.07c.08-.3.17-.63.36-.9q.13-.16.28-.3a3 3 0 0 1 .93-.47l.96-.37a12 12 0 0 0 1.47-.6 1 1 0 0 0 .24-.17l.02-.02v-.04a1 1 0 0 0-.16-.25c-.2-.27-.54-.62-1.08-1.16L13.96 8.5c-.54-.55-.89-.9-1.17-1.1a1 1 0 0 0-.28-.16" clip-rule="evenodd"/></svg>
