<svg xmlns="http://www.w3.org/2000/svg" fill="none" viewBox="0 0 24 24"><path fill="currentColor" fill-rule="evenodd" d="m16.47 4.37 3.18 3.18c1 1 1.82 1.83 2.35 2.54.54.73.89 1.5.7 2.37s-.83 1.44-1.62 1.88c-.77.43-1.86.83-3.19 1.33l-1.98.75c-.8.3-1 .39-1.17.53q-.12.1-.21.23c-.13.18-.2.4-.43 1.22v.04q-.34 1.26-.63 2.04c-.21.52-.5 1.02-1 1.3q-.55.3-1.17.31c-.58 0-1.07-.29-1.51-.64q-.65-.54-1.55-1.46L6.65 18.4l-4.12 4.13a.75.75 0 0 1-1.06-1.06l4.12-4.13-1.53-1.53q-.91-.9-1.45-1.54a2.5 2.5 0 0 1-.64-1.51q0-.63.31-1.18c.3-.5.78-.79 1.3-1q.78-.29 2.02-.62l.05-.01a4 4 0 0 0 1.21-.42q.14-.1.24-.23c.14-.16.24-.38.53-1.18l.71-1.95c.5-1.35.9-2.44 1.32-3.22.44-.8 1-1.45 1.88-1.65s1.65.16 2.38.7c.72.54 1.54 1.36 2.55 2.37m-3.44-1.16c-.6-.45-.92-.5-1.17-.44s-.52.23-.88.9a26 26 0 0 0-1.25 3.07l-.7 1.9q0 .06-.03.1c-.24.65-.42 1.14-.75 1.54q-.22.26-.51.46c-.42.3-.93.45-1.58.63l-.12.03c-.88.24-1.47.4-1.9.58s-.52.29-.56.35a1 1 0 0 0-.11.42c0 .07.03.23.31.58.29.36.73.8 1.37 1.45l4.12 4.12c.65.65 1.1 1.1 1.45 1.38.36.28.52.31.59.31q.22 0 .41-.1c.06-.04.18-.14.36-.57s.33-1.03.58-1.92q0-.06.03-.1c.18-.66.32-1.17.62-1.6q.2-.26.45-.49c.39-.33.88-.52 1.52-.76l.1-.04 1.92-.72c1.41-.53 2.39-.9 3.05-1.26s.83-.63.88-.88 0-.57-.44-1.17c-.45-.61-1.19-1.35-2.25-2.41l-3.08-3.09a26 26 0 0 0-2.43-2.27" clip-rule="evenodd"/></svg>
