<svg fill="currentColor" viewBox="0 0 64 64" xmlns="http://www.w3.org/2000/svg" style="fill-rule:evenodd;clip-rule:evenodd;stroke-linejoin:round;stroke-miterlimit:2;"><rect id="Icons" x="-256" y="-320" width="1280" height="800" style="fill:none;"/><g id="Icons1"><g><path d="M28.571,34.065l-4.574,0c-0.484,-0.016 -0.629,-0.08 -0.887,-0.208c-0.993,-0.491 -1.464,-1.651 -0.84,-2.803l2.405,-4.107l0,-9.255l-2.265,-2.952c-0.255,-0.356 -0.393,-0.586 -0.413,-1.218l0,-3.493c0.013,-0.402 0.046,-0.468 0.106,-0.643c0.27,-0.796 0.856,-1.323 1.894,-1.357c5.376,0 10.756,-0.171 16.13,0.004c0.401,0.04 0.465,0.078 0.635,0.148c0.734,0.304 1.202,0.855 1.234,1.848l0,3.493c-0.014,0.443 -0.046,0.714 -0.423,1.231l-2.303,2.949l0,9.236l2.445,4.103c0.464,0.842 0.313,1.047 0.247,1.396c-0.175,0.922 -0.841,1.591 -1.966,1.628l-4.574,0l-3.425,22l-3.426,-22Zm3.815,0l-0.779,0l0.39,2.501l0.389,-2.501Zm5.61,-22.036l-11.999,0l0,0.814c0.754,0.985 1.509,1.969 2.264,2.953c0.413,0.575 0.4,0.803 0.414,1.217l0,10.476c-0.012,0.343 -0.016,0.534 -0.274,1.01l-0.917,1.566l8.993,0l-0.925,-1.553c-0.172,-0.308 -0.266,-0.49 -0.282,-1.023l0,-10.476c0.024,-0.721 0.178,-0.893 0.424,-1.231l2.302,-2.948l0,-0.805Z" style="fill-rule:nonzero;"/></g></g></svg>
