<svg xmlns="http://www.w3.org/2000/svg" fill="none" viewBox="0 0 24 24"><path fill="currentColor" fill-rule="evenodd" d="M22.75 8c0 .41-.34.75-.75.75h-5a.75.75 0 0 1 0-1.5h5c.41 0 .75.34.75.75m0 4.5c0 .41-.34.75-.75.75h-4a.75.75 0 0 1 0-1.5h4c.41 0 .75.34.75.75m-8.99-5.2.44.43q1.11 1.08 1.74 1.86c.42.53.74 1.1.74 1.76q0 .56-.23 1.08c-.26.61-.77 1-1.37 1.33-.58.32-1.37.63-2.34 1.02l-.19.07c-.61.25-.77.32-.9.42q-.16.13-.27.3c-.09.14-.14.3-.32.94l-.01.03q-.18.65-.34 1.1c-.12.29-.28.61-.6.84q-.56.4-1.25.33a2 2 0 0 1-.93-.46q-.36-.3-.83-.78L6.04 16.5l-2.16 2.16a.75.75 0 0 1-1.06-1.06l2.16-2.16-1.06-1.06q-.48-.47-.79-.83c-.2-.24-.4-.55-.45-.93-.06-.45.06-.9.32-1.25.23-.32.56-.48.86-.6q.44-.16 1.09-.34h.03c.63-.19.8-.24.93-.33q.19-.11.31-.28c.1-.12.17-.28.42-.9l.07-.18c.39-.97.7-1.76 1.02-2.34.32-.6.71-1.11 1.33-1.37q.51-.23 1.08-.23c.67 0 1.23.32 1.76.74q.78.62 1.86 1.74m-5.62 9.18-1.56-1.55v-.01l-.02-.01-1.55-1.56a12 12 0 0 1-.84-.92q-.01-.09.04-.16l.2-.1q.28-.1.98-.3l.09-.02c.5-.14.9-.26 1.24-.47q.4-.26.68-.62c.25-.31.4-.7.6-1.18l.09-.23c.4-1.03.69-1.73.95-2.23.27-.49.46-.64.6-.7q.24-.1.5-.1c.16 0 .4.06.84.4s.98.89 1.75 1.67l.37.36c.78.78 1.31 1.32 1.66 1.76s.42.67.42.84q0 .25-.1.49c-.07.15-.22.34-.71.6-.5.27-1.2.55-2.23.96l-.23.1c-.48.19-.87.34-1.19.6q-.36.28-.6.67c-.22.34-.34.74-.48 1.24l-.02.09a12 12 0 0 1-.4 1.18.3.3 0 0 1-.16.04l-.18-.12q-.24-.21-.74-.72" clip-rule="evenodd"/><path fill="currentColor" d="M22 17.75a.75.75 0 0 0 0-1.5h-9a.75.75 0 0 0 0 1.5z"/></svg>
