<svg xmlns="http://www.w3.org/2000/svg" fill="currentColor" viewBox="0 0 32 32"><path d="M31.71 11.86 20.21.3a1 1 0 0 0-1.67.4q-1.04 3.34-.24 6.1l-.14.1-5.35 5.35a13 13 0 0 0-5.42-1.23q-1.77 0-3.43.51a1 1 0 0 0-.41 1.67l6.84 6.88L.82 29.8 0 32l2-.79 9.8-9.72 6.93 6.97a1 1 0 0 0 1.66-.4c.9-2.92.64-6.05-.63-8.85l5.46-5.46.05-.07q1.23.36 2.56.36 1.66.02 3.47-.53a1 1 0 0 0 .41-1.66zm-12.86 13.9L6.26 13.09c3.23-.38 6.72.92 9.24 3.44a11.4 11.4 0 0 1 3.35 9.22zm-.1-8.37a14 14 0 0 0-4.12-4.13l4.5-4.5q.7 1.2 1.79 2.3a11 11 0 0 0 2.36 1.8zm3.58-7.75a7.3 7.3 0 0 1-2.27-6.65l8.97 9c-2.59.38-4.74-.4-6.7-2.35"/></svg>
