<svg xmlns="http://www.w3.org/2000/svg" fill="none" viewBox="0 0 24 24"><path fill="currentColor" d="m10.53 19.3-.53-.54zm.8-12.46.53-.53zm-1.09-1.09-.53.53zm2.18-2.18.54-.53zm1.1 1.1-.53.52a.75.75 0 0 0 1.06 0zm1.45-1.46-.53-.53zm4.37 7.27-.53-.53c-.3.3-.3.77 0 1.06zm1.09 1.1-.53.53zM2.45 19.36l.53.53zm.63-.62-.53-.53zm1.56 2.8.53.54zm.62-.62-.53-.53zm-1.48-4.17-.75.08zm-.05-.48.74-.08zm3.52 3.95-.08.75zm.48.05.08-.74zm-2.22.4.49.58zm1.4-.48.02-.75zm-3.03-5.76-.66-.36zm-.2.58-.74-.14zm-.36 3.48L2.75 18zm.49-1.4.75-.02zm5.76 3.03.36.66zm-.58.2.14.74zm4.19-7.38A.75.75 0 0 0 12.12 14zm-1.21 4.91a.75.75 0 1 0 1.06-1.06zm-.8-2.91A.75.75 0 0 0 10.13 16zM8.63 8.5a.75.75 0 0 0 1.06 1.06zM6.7 12.53a.75.75 0 1 0-1.06-1.06zM21.12 5.2a.75.75 0 1 0 1.45-.4zm.98 3.34a.75.75 0 0 0-1.3-.75zM11.86 6.31l-1.09-1.09-1.06 1.06 1.1 1.1zm6.92 6.92-1.1-1.1-1.06 1.07 1.1 1.09zM11.89 4.1 13 5.2l1.06-1.07-1.1-1.1zm2.16 1.1 1.45-1.46-1.06-1.06L13 4.13zm6.21 3.3-1.45 1.45 1.06 1.06 1.45-1.45zM10.8 7.38l5.82 5.82 1.07-1.06-5.83-5.83zM2.98 19.89l.63-.62-1.06-1.06-.63.62zm2.19 2.19.62-.63-1.06-1.06-.62.63zm-.65-5.42-.05-.47-1.49.16.05.48zm2.65 4.3.48.06.16-1.5-.47-.04zm-1.38.49.21-.2-.97-1.14-.3.28zm1.55-1.97q-.24-.04-.41-.04l-.04 1.5c.04 0 .1 0 .28.03zM6 21.25q.38-.31.89-.31l.04-1.5a2.8 2.8 0 0 0-1.9.67zm-4.08.83c.9.9 2.35.9 3.25 0L4.1 21.02a.8.8 0 0 1-1.13 0zm2.26-9.14c-.42.42-.75.74-.96 1.13l1.32.7c.08-.14.21-.28.7-.77zm.3 3.25a4 4 0 0 1-.07-1.04l-1.47-.28a5 5 0 0 0 .04 1.48zm-1.26-2.12q-.2.38-.28.8l1.47.28q.04-.2.13-.37zM15.5 3.74a3.37 3.37 0 0 1 4.76 0l1.06-1.06a4.87 4.87 0 0 0-6.88 0zm4.4 9.49a.8.8 0 0 1-1.12 0l-1.06 1.06c.9.9 2.34.9 3.24 0zM3.61 19.27l.28-.3L2.75 18l-.2.2zm-.58-2.44.03.28 1.5-.04q0-.17-.04-.4zm.86 2.14c.45-.53.69-1.2.67-1.9l-1.5.04q.01.5-.31.89zM10.77 4.1a.8.8 0 0 1 1.12 0l1.06-1.06a2.3 2.3 0 0 0-3.24 0zM2.98 21.02a.8.8 0 0 1 0-1.13l-1.06-1.06c-.9.9-.9 2.35 0 3.25zm7.8-15.8a.8.8 0 0 1 0-1.12L9.7 3.04c-.9.9-.9 2.35 0 3.24zm10.18 9.07c.9-.9.9-2.35 0-3.24L19.9 12.1a.8.8 0 0 1 0 1.12zM10 18.76c-.49.49-.63.62-.78.7l.7 1.32c.4-.2.72-.54 1.14-.96zm-2.35 2.26c.6.07 1.04.12 1.48.04l-.28-1.47a4 4 0 0 1-1.04-.06zm1.57-1.56q-.17.09-.37.13l.28 1.47q.42-.08.8-.28zM18.81 11l1.09 1.1 1.06-1.06-1.1-1.1zm-7.75 8.81 3.97-3.97-1.06-1.06L10 18.76zm3.97-3.97 2.66-2.65-1.07-1.06-2.65 2.65zm0-1.06-1.85-1.85L12.12 14l1.85 1.85zm-2 2-1.85-1.85L10.12 16l1.85 1.85zM9.68 9.56l2.18-2.18L10.8 6.3 8.62 8.5zM5.24 14l1.47-1.47-1.06-1.06-1.47 1.47zM20.26 3.74q.64.65.86 1.46l1.45-.4a5 5 0 0 0-1.25-2.12zm.54 4.05q-.21.39-.54.7l1.06 1.07q.46-.46.78-1.02z"/></svg>
