<svg xmlns="http://www.w3.org/2000/svg" fill="none" viewBox="0 0 24 24"><path fill="currentColor" fill-rule="evenodd" d="M18.58 5.42c-.42-.43-.95-.37-1.2-.13l-3.8 3.81-5.96-1.2-.15.15 4.74 2.41-4.45 4.46-2.95-.63-.23.23 2.93 1.97 1.97 2.93.23-.23-.63-2.95 4.46-4.45 2.41 4.74.15-.15-1.2-5.95 3.81-3.82c.24-.24.3-.77-.13-1.2m-2.25-1.2c.93-.93 2.42-.76 3.31.14.9.89 1.07 2.38.13 3.31l-3.24 3.25 1.2 5.95-2.17 2.18-2.42-4.74-2.42 2.42.63 2.95-2.1 2.1-2.82-4.2-4.2-2.84 2.1-2.09 2.94.63 2.42-2.42-4.74-2.42 2.18-2.17 5.95 1.2z" clip-rule="evenodd"/></svg>
