<svg xmlns="http://www.w3.org/2000/svg" fill="none" viewBox="0 0 24 24"><path fill="currentColor" d="M12.75 3a.75.75 0 0 0-1.5 0v2a.75.75 0 0 0 1.5 0z"/><path fill="currentColor" d="M9 4.75a.75.75 0 0 0 0-1.5c-1.55 0-2.8.03-3.8.2a4.5 4.5 0 0 0-2.56 1.2A4.7 4.7 0 0 0 1.4 7.5c-.15 1.14-.15 2.6-.15 4.43v.12c0 1.83 0 3.29.15 4.43a4.7 4.7 0 0 0 1.24 2.87c.75.75 1.7 1.08 2.87 1.24 1.14.15 2.6.15 4.43.15h4.12c1.83 0 3.29 0 4.43-.15a4.7 4.7 0 0 0 2.87-1.24 4.7 4.7 0 0 0 1.24-2.87c.15-1.14.15-2.6.15-4.43v-.12c0-1.83 0-3.29-.15-4.43a4.7 4.7 0 0 0-1.24-2.87 4.5 4.5 0 0 0-2.55-1.19c-1-.17-2.26-.2-3.8-.2a.75.75 0 0 0-.01 1.5c1.57 0 2.7.03 3.56.18a3 3 0 0 1 1.74.77c.42.43.68 1 .81 2.01.14 1.03.14 2.38.14 4.29 0 1.9 0 3.26-.14 4.29-.13 1-.39 1.58-.81 2-.43.43-1 .69-2.01.82-1.03.14-2.38.14-4.29.14h-4c-1.9 0-3.26 0-4.29-.14-1-.13-1.58-.39-2-.81-.43-.43-.68-1-.82-2.01A36 36 0 0 1 2.75 12c0-1.9 0-3.26.14-4.29.14-1 .39-1.58.81-2a3 3 0 0 1 1.74-.78c.87-.15 2-.17 3.56-.18"/><path fill="currentColor" d="M7.25 10.5c0-.41.34-.75.75-.75h8a.75.75 0 0 1 0 1.5H8a.75.75 0 0 1-.75-.75M8 13.25a.75.75 0 0 0 0 1.5h5.5a.75.75 0 0 0 0-1.5z"/></svg>
