<svg xmlns="http://www.w3.org/2000/svg" fill="currentColor" viewBox="0 0 32 32"><path d="M1.06 2h14a1 1 0 0 0 0-2h-14a1 1 0 0 0 0 2m0 6h14a1 1 0 0 0 0-2h-14a1 1 0 0 0 0 2m15 5a1 1 0 0 0-1-1h-14a1 1 0 0 0 0 2h14a1 1 0 0 0 1-1m15.6-2.86L21.86.36a1 1 0 0 0-1.14-.18 1 1 0 0 0-.67.94v22.14a6.7 6.7 0 0 0-3.98-1.27c-3.32 0-6 2.24-6 5s2.68 5.02 6 5.02 6-2.24 6-5.01l-.02-.37V3.37l8.18 8.19a1 1 0 0 0 1.41-1.42zM20.05 27.1c-.08 1.4-1.7 2.9-4 2.9-2.37 0-4.02-1.58-4.02-3 0-1.4 1.65-2.99 4.01-2.99 2.31 0 3.93 1.51 4 2.9z"/></svg>
