<svg xmlns="http://www.w3.org/2000/svg" fill="none" viewBox="0 0 40 40"><path stroke="currentColor" stroke-width="1.5" d="M9 .75h17.04l8.21 7.54V36c0 1.8-1.46 3.25-3.25 3.25H9A3.25 3.25 0 0 1 5.75 36V4C5.75 2.2 7.21.75 9 .75Z"/><mask id="path-2-inside-1_9067_87869" fill="currentColor"><path d="M25 1h8.5v8.5H26a1 1 0 0 1-1-1z"/></mask><path fill="currentColor" d="M25 1h8.5zm8.5 9.5H26a2 2 0 0 1-2-2h9.5zm-7.5 0a2 2 0 0 1-2-2V1h2zM33.5 1v8.5z" mask="url(#path-2-inside-1_9067_87869)"/><rect width="26" height="13" x="1" y="20" fill="currentColor" rx="2"/><path fill="currentColor" d="M9.28 25.24q0 .6-.28 1.12-.28.5-.86.81-.58.3-1.44.31H5.64V30h-1.7v-7.02H6.7q.84 0 1.42.29a2 2 0 0 1 .87.8q.3.51.3 1.17m-2.7.88q.48 0 .72-.23a1 1 0 0 0 .24-.65q0-.42-.24-.65t-.73-.23h-.93v1.76zM16.44 30h-1.7l-2.87-4.33V30h-1.7v-7.02h1.7l2.86 4.35v-4.35h1.71zm5.9-4.8a1.2 1.2 0 0 0-.55-.53 2 2 0 0 0-.83-.19q-.83 0-1.33.55-.5.54-.5 1.45 0 .97.52 1.52.53.54 1.45.54.63 0 1.06-.32t.64-.92h-2.17v-1.26h3.72v1.59q-.19.64-.65 1.19-.45.55-1.15.89t-1.58.34a4 4 0 0 1-1.86-.45q-.8-.45-1.27-1.27a4 4 0 0 1-.45-1.85q0-1.04.45-1.85.46-.82 1.27-1.27t1.85-.46q1.26 0 2.12.61.87.6 1.15 1.69z"/></svg>
