<svg xmlns="http://www.w3.org/2000/svg" viewBox="0 -6.24 288.376 288.376"><defs><style>.b{fill:#211715}</style></defs><path d="M116.78 214.16v59.34c12.88 0 33.96-.03 46.24-.05 0-10.11.21-48.22.21-59.29" style="fill:#b5886a"/><path d="M114.38 214.16v59.34a2.44 2.44 0 0 0 2.4 2.4q23.12 0 46.24-.05a2.44 2.44 0 0 0 2.4-2.4c0-16.25.13-32.5.19-48.74l.02-10.55c0-3.09-4.8-3.1-4.8 0 0 16.41-.13 32.82-.19 49.23l-.02 10.06 2.4-2.4q-23.12.04-46.24.05l2.4 2.4v-59.34c0-3.09-4.8-3.1-4.8 0" class="b"/><path d="M125.62 230.17v8.44a2.4 2.4 0 0 0 4.8 0v-8.44a2.4 2.4 0 0 0-4.8 0m9.76 20.44v8.45a2.4 2.4 0 0 0 4.8 0v-8.45a2.4 2.4 0 0 0-4.8 0m14.08-9.22v8.45a2.4 2.4 0 1 0 4.8 0v-8.45a2.4 2.4 0 0 0-4.8 0" class="b"/><path d="M138.3 3.33a3255 3255 0 0 0-48 79.2 2 2 0 0 0 1.73 3.02c4.62-.01 8.19-.08 11.9-.1a1 1 0 0 1 .87 1.52c-10.69 17.7-25.39 41.88-36.95 61.49a2 2 0 0 0 1.73 3.01l13.3-.09a1 1 0 0 1 .86 1.52c-10.7 17.7-25.4 41.89-36.96 61.5a2 2 0 0 0 1.72 3h183.02a2 2 0 0 0 1.71-3c-11.56-19.61-26.27-43.8-36.96-61.5a1 1 0 0 1 .86-1.52c4.37.02 8.88.07 13.3.1a2 2 0 0 0 1.73-3.02c-11.56-19.6-26.26-43.8-36.95-61.5a1 1 0 0 1 .86-1.5c3.72.01 7.29.08 11.91.09a2 2 0 0 0 1.73-3.02 3242 3242 0 0 0-48-79.2 2 2 0 0 0-3.4 0" style="fill:#74c66d"/><path d="m112.81 92.71 5.2 5.06c.64.62 1.26 1.28 1.92 1.87a4.5 4.5 0 0 0 3.92 1.18c1.57-.3 2.55-1.44 3.62-2.53l2.97-3.03c.31-.32.66-.62.95-.96l.16-.15q.32-.29-.01-.05c-.01.29-.42-.13-.44-.1a15 15 0 0 0 1.2 1.16l3.25 3.15c1.1 1.07 2.1 2.21 3.67 2.51 3.27.63 5.57-2.89 7.57-4.92l1.46-1.47.16-.16q.56-.5.14-.2c0 .27-.43-.12-.43-.1a50 50 0 0 0 3.6 3.5c1.18 1.14 2.42 2.77 4.04 3.24a4.6 4.6 0 0 0 4.56-1.24c2.36-2.23 4.52-4.67 6.88-6.9 2.26-2.13-1.14-5.51-3.39-3.4-1.98 1.87-3.86 3.84-5.77 5.78-.15.15-1.3 1.24-1.27 1.28-.08-.1.6-.13.5-.04a4 4 0 0 0-.43-.44l-3.27-3.18a15 15 0 0 0-3.12-2.77 4.4 4.4 0 0 0-4.37.17 18 18 0 0 0-2.85 2.7c-1.05 1.07-2.18 2.1-3.17 3.22-.65.75-.3.15-.03.24.28.1.27.25.12-.05a8 8 0 0 0-1.54-1.5l-3.43-3.32a5.6 5.6 0 0 0-3.29-1.9 4.7 4.7 0 0 0-3.89 1.55q-1.48 1.46-2.92 2.96l-1.5 1.53c-.09.08-.84.82-.83.83-.06-.06.6-.15.5-.04.11-.12.04.2 0-.03-.02-.08-.25-.24-.3-.29l-1.16-1.12-5.59-5.43c-2.22-2.15-5.61 1.24-3.4 3.4Zm-22 66.39 9.18 8.93q.65.65 1.33 1.28a4.5 4.5 0 0 0 6.1.13c1.94-1.7 3.67-3.69 5.47-5.52l2.66-2.69.6-.6.15-.14q.3-.28-.01-.04c.02.24-.45-.1-.45-.1a14 14 0 0 0 1.07 1.03l6.06 5.89c1.88 1.83 3.77 4.09 6.7 3.07a9 9 0 0 0 3.09-2.48q1.48-1.49 2.94-2.99l2.71-2.75 1.24-1.23c.07-.08.6-.57.6-.6.05.13-.6.17-.53.07l-.08-.06.71.7.72.7 1.43 1.39 3.22 3.13c1.8 1.74 3.72 4.5 6.5 4.39 2.61-.1 4.48-2.84 6.16-4.55l2.74-2.79 1.25-1.27c.4-.4 1.27-1 1.52-1.5.16-.32.14-.06-.15-.04-.4.02-.3-.13.05.23q.88.89 1.78 1.73l3.56 3.47c2 1.95 4.3 5.26 7.47 4.63a6.7 6.7 0 0 0 3.42-2.31l3.07-3.12q2.99-3.1 6.1-6.09c2.26-2.13-1.14-5.51-3.39-3.4a201 201 0 0 0-5.15 5.1l-2.57 2.63c-.37.37-2.55 2.48-2.5 2.55-.05-.07.48-.05.43.01a4 4 0 0 0-.46-.46l-1.43-1.39-3.02-2.94-2.85-2.77a8.5 8.5 0 0 0-3.22-2.45c-2.73-.8-4.46 1.12-6.21 2.88q-2.74 2.77-5.46 5.55-.66.63-1.3 1.3l-.16.16q-.32.29 0 .06s.5-.01.43.12a41 41 0 0 0-3.04-2.96c-1.97-1.9-3.91-3.85-5.9-5.73a4.6 4.6 0 0 0-6.84-.06c-1.8 1.7-3.5 3.51-5.23 5.28l-2.45 2.48-.64.65-.33.32.16-.1c.1-.31.4.17.43.12a27 27 0 0 0-1.07-1.04l-5.87-5.7c-1.8-1.76-3.7-4.18-6.55-3.38a7 7 0 0 0-2.85 2q-1.42 1.42-2.82 2.85l-2.6 2.64c-.36.37-2.55 2.5-2.5 2.56-.03-.04.51-.08.5.06 0-.02-.1-.09-.1-.1-.1-.2-.44-.42-.6-.57l-9.83-9.57c-2.22-2.15-5.61 1.24-3.4 3.4Z" class="b"/><path d="M286.88 106.65c-.4-.44-1.52-1.14-1.54-1.81a3 3 0 0 1 .37-.95 7 7 0 0 0 .31-1.61 4.5 4.5 0 0 0-2.52-4.74c-.85-.35-1.97-.18-2.74-.67a4 4 0 0 1-1.05-1.45c-.9-1.58-2.05-3.08-4.07-3.01a6 6 0 0 0-2.96 1l-1.18.8a1.5 1.5 0 0 1-.82.34c-.39-.04-.78-.48-1.12-.65a5 5 0 0 0-1.43-.47 6 6 0 0 0-2.76.1 4.4 4.4 0 0 0-2.19 1.68 5 5 0 0 0-.6 1.22c-.16.43-.17.91-.34 1.34-.23.6-1.16.61-1.72.72a7 7 0 0 0-2.3.74 4.45 4.45 0 0 0-1.95 4.83 18 18 0 0 1 .46 2.32c.04.8-.57 1.35-1 1.98a4.3 4.3 0 0 0 .66 5.54 8 8 0 0 0 2.5 1.61c.64.34.5 1.14.49 1.78a7 7 0 0 0 .46 2.78 4.4 4.4 0 0 0 4.6 2.62 5 5 0 0 1 2.45.13c.72.39 1.18 1.24 1.84 1.74a4.5 4.5 0 0 0 5.58-.6 11 11 0 0 0 1.49-2.05 3 3 0 0 1 .57-.68 1.2 1.2 0 0 1 .9-.17c.96.05 1.9.36 2.87.4a5 5 0 0 0 2.9-.76 4.2 4.2 0 0 0 1.78-2.21 5 5 0 0 0 .18-1.5 6 6 0 0 1 0-1.6 3.4 3.4 0 0 1 1.17-1.44 8 8 0 0 0 1.68-1.85c1.08-1.84.36-3.96-.98-5.45M67.75 14.86c-.4-.44-1.52-1.14-1.53-1.81a3 3 0 0 1 .36-.95 7 7 0 0 0 .32-1.61 4.5 4.5 0 0 0-2.53-4.74c-.84-.34-1.96-.18-2.73-.67a4 4 0 0 1-1.05-1.44C59.7 2.06 58.54.55 56.52.62a6 6 0 0 0-2.97 1l-1.17.8a1.5 1.5 0 0 1-.83.34c-.38-.04-.77-.47-1.11-.65A5 5 0 0 0 49 1.64a6 6 0 0 0-2.76.11 4.4 4.4 0 0 0-2.19 1.68 5 5 0 0 0-.6 1.2c-.16.44-.17.93-.34 1.35-.23.6-1.16.62-1.72.72a7 7 0 0 0-2.3.74 4.45 4.45 0 0 0-1.95 4.84 18 18 0 0 1 .46 2.31c.04.8-.57 1.36-1 1.98a4.3 4.3 0 0 0 .66 5.55 8 8 0 0 0 2.5 1.6c.64.35.5 1.14.49 1.78a7 7 0 0 0 .46 2.78 4.4 4.4 0 0 0 4.6 2.62 5 5 0 0 1 2.45.13c.72.4 1.18 1.25 1.84 1.74a4.5 4.5 0 0 0 5.58-.6 11 11 0 0 0 1.49-2.05 3 3 0 0 1 .57-.68 1.2 1.2 0 0 1 .9-.17c.96.06 1.9.37 2.87.4a5 5 0 0 0 2.9-.76 4.2 4.2 0 0 0 1.8-2.21 5 5 0 0 0 .17-1.5 6 6 0 0 1 0-1.6 3.4 3.4 0 0 1 1.17-1.44 8 8 0 0 0 1.68-1.84c1.07-1.84.35-3.96-.99-5.45m170.83 4.62c-.25-.27-.95-.71-.96-1.13a2 2 0 0 1 .23-.6 4 4 0 0 0 .2-1 2.8 2.8 0 0 0-1.58-2.96c-.52-.21-1.23-.11-1.7-.42a3 3 0 0 1-.66-.9c-.56-.99-1.28-1.93-2.54-1.88a4 4 0 0 0-1.85.62l-.74.5a1 1 0 0 1-.51.21c-.24-.02-.49-.3-.7-.4a3 3 0 0 0-.9-.3 4 4 0 0 0-1.72.07 2.7 2.7 0 0 0-1.36 1.05 3 3 0 0 0-.38.76c-.1.27-.1.57-.21.84-.14.37-.73.38-1.08.45a4 4 0 0 0-1.43.46 2.8 2.8 0 0 0-1.22 3.02 11 11 0 0 1 .29 1.44c.02.5-.36.85-.62 1.24a2.7 2.7 0 0 0 .4 3.46 5 5 0 0 0 1.57 1c.4.22.3.72.3 1.12a4 4 0 0 0 .3 1.73 2.7 2.7 0 0 0 2.87 1.64 3 3 0 0 1 1.53.08c.45.24.73.78 1.15 1.09a2.8 2.8 0 0 0 3.48-.38 7 7 0 0 0 .93-1.28 2 2 0 0 1 .35-.42.7.7 0 0 1 .57-.11c.6.04 1.18.23 1.79.25a3 3 0 0 0 1.81-.47 2.6 2.6 0 0 0 1.12-1.38 3 3 0 0 0 .11-.94 4 4 0 0 1 0-1 2 2 0 0 1 .73-.9 5 5 0 0 0 1.05-1.15 2.9 2.9 0 0 0-.62-3.4M19.9 137.03c-.25-.28-.95-.71-.96-1.13a2 2 0 0 1 .23-.6 4 4 0 0 0 .2-1 2.8 2.8 0 0 0-1.58-2.96c-.52-.22-1.22-.12-1.7-.42a3 3 0 0 1-.66-.9c-.56-.99-1.28-1.93-2.54-1.88a4 4 0 0 0-1.85.62l-.73.5a1 1 0 0 1-.52.22c-.24-.03-.49-.3-.7-.41a3 3 0 0 0-.9-.3 4 4 0 0 0-1.72.07 3 3 0 0 0-1.37 1.05 3 3 0 0 0-.38.75c-.1.28-.1.58-.2.84-.15.38-.73.39-1.08.45a4 4 0 0 0-1.44.47 2.8 2.8 0 0 0-1.22 3.01 11 11 0 0 1 .3 1.45c.01.5-.36.85-.63 1.24a2.7 2.7 0 0 0 .41 3.46 5 5 0 0 0 1.56 1c.4.22.3.71.3 1.11a4 4 0 0 0 .3 1.74 2.74 2.74 0 0 0 2.87 1.64 3 3 0 0 1 1.53.07c.45.25.73.78 1.15 1.1a2.8 2.8 0 0 0 3.48-.38 7 7 0 0 0 .93-1.28 2 2 0 0 1 .36-.43.7.7 0 0 1 .56-.1c.6.03 1.19.22 1.8.25a3 3 0 0 0 1.8-.47 2.6 2.6 0 0 0 1.12-1.39 3 3 0 0 0 .11-.93 4 4 0 0 1 0-1 2 2 0 0 1 .73-.9 5 5 0 0 0 1.05-1.16 2.9 2.9 0 0 0-.61-3.4" style="fill:#febe69"/><path d="M136.24 2.12q-12.47 19.93-24.66 40.04-6.3 10.4-12.53 20.85l-6.3 10.64-3.14 5.3c-1 1.7-2.36 3.45-1.87 5.54 1 4.3 5.97 3.46 9.32 3.43l5.29-.05c.22 0 1.03.12 1.19-.01-.39.32-.4-2.2-1.1-1.63a2 2 0 0 0-.28.47l-1.26 2.08-10.78 17.84q-11.52 19.05-22.9 38.18c-.85 1.44-2.05 2.95-2.05 4.7a4.4 4.4 0 0 0 3 4.13c1.74.56 3.89.22 5.7.21l6.18-.05h1.42a3 3 0 0 0 .7 0h.24l-.93-1.79c-.18.07-.46.77-.57.95l-.78 1.28-2.5 4.12-5.38 8.91q-11.56 19.11-23.02 38.29l-2.66 4.48c-.84 1.43-2.08 2.96-2.38 4.61a4.4 4.4 0 0 0 2.07 4.55 6 6 0 0 0 3.22.62h180.77a9 9 0 0 0 2.67-.24 4.4 4.4 0 0 0 2.99-4c.06-1.8-1.17-3.34-2.05-4.83l-2.65-4.47-5.62-9.42q-5.83-9.74-11.7-19.46l-11.1-18.36-2.52-4.16-1.26-2.08c-.47-.78-.31-1.1-.94.1-.74 1.4-.66.75 0 .9a5 5 0 0 0 .94 0l6.18.04a40 40 0 0 0 5.88-.03 4.4 4.4 0 0 0 3.66-3.38c.44-1.88-.61-3.38-1.52-4.92q-2.72-4.6-5.46-9.19-5.79-9.71-11.63-19.4l-11.36-18.8-5.26-8.68-1.17-1.93-.57-.95c-.05-.08-.2-.44-.29-.48l-1 1.8h.4a10 10 0 0 0 2.59.01l2.65.03c1.94.02 3.93.15 5.87.04a4.5 4.5 0 0 0 4.06-2.74c.83-2.03-.12-3.66-1.14-5.4l-3.13-5.31q-6.24-10.57-12.55-21.1-12.23-20.36-24.75-40.54-2.97-4.79-5.96-9.56c-.9-1.46-1.8-2.81-3.58-3.2a4.5 4.5 0 0 0-4.7 2.02 2.4 2.4 0 0 0 .87 3.29 2.46 2.46 0 0 0 3.28-.86c-.5.69-.4-.2-.74 0l1.46 2.34 3.16 5.08q3.04 4.87 6.05 9.76 6.06 9.81 12.05 19.67 12.41 20.43 24.53 41.05a7 7 0 0 0 .75 1.29c-.12 0-.02-.3.01-.41s.26-.28.33-.18a7 7 0 0 0-1.45 0l-5.66-.05c-1.58-.01-3.22-.15-4.8-.04a3.46 3.46 0 0 0-3.3 4.26c.36 1.4 1.55 2.82 2.3 4.05l2.61 4.33 5.31 8.78q11.29 18.66 22.47 37.38l2.56 4.31 1.25 2.11a7 7 0 0 0 .62 1.05c.42.46.06.48.21-.07.04-.1.26-.28.33-.18a7 7 0 0 0-1.42-.01l-2.86-.02-6.2-.05c-1.78 0-3.96-.38-5.31 1.08-1.59 1.7-.7 3.6.32 5.3l5.03 8.3q11.2 18.54 22.36 37.1l5.47 9.19 2.52 4.25a7 7 0 0 0 .62 1.05c.6.68-.14.28.19-.03.36-.36.47-.17-.01-.22a35 35 0 0 0-3.82 0H49.42c-.18 0-.65-.09-.8 0-.23.14-.1-.42.2.15.05.1.44.42.04.46.19-.02.89-1.53 1.02-1.76l1.47-2.47q2.7-4.57 5.43-9.12 5.64-9.46 11.34-18.89 5.52-9.16 11.07-18.31l5.09-8.42c.78-1.28 2.05-2.78 2-4.35a3.4 3.4 0 0 0-1.12-2.43 4.4 4.4 0 0 0-3.21-.88q-2.85 0-5.7.03l-2.86.03a19 19 0 0 0-3.33.02c-1.14.23-.2-.24-.17.16.01.1.6.4.04.45a10 10 0 0 0 1.02-1.75l2.74-4.63q5.55-9.34 11.16-18.65 10.79-17.95 21.65-35.85c.97-1.6 1.25-3.48-.28-4.87-1.42-1.29-3.7-.88-5.46-.86l-5 .05q-1.38 0-2.75.02c-.04 0-.99.01-.97-.01.13-.14.68.52.34.61.31-.08 1.06-1.82 1.25-2.16l1.5-2.55 3.25-5.5q3.07-5.19 6.17-10.37 11.95-20.03 24.19-39.88 5.79-9.39 11.64-18.74c1.64-2.63-2.5-5.04-4.14-2.43" class="b"/></svg>
