<svg xmlns="http://www.w3.org/2000/svg" fill="none" viewBox="0 0 40 40"><path stroke="currentColor" stroke-width="1.5" d="M9 .75h17.04l8.21 7.54V36c0 1.8-1.46 3.25-3.25 3.25H9A3.25 3.25 0 0 1 5.75 36V4C5.75 2.2 7.21.75 9 .75Z"/><mask id="path-2-inside-1_9067_87977" fill="currentColor"><path d="M25 1h8.5v8.5H26a1 1 0 0 1-1-1z"/></mask><path fill="currentColor" d="M25 1h8.5zm8.5 9.5H26a2 2 0 0 1-2-2h9.5zm-7.5 0a2 2 0 0 1-2-2V1h2zM33.5 1v8.5z" mask="url(#path-2-inside-1_9067_87977)"/><rect width="30" height="13" x="1" y="20" fill="none" stroke="currentColor" rx="2"/><path fill="currentColor" d="M9.2 25.24q0 .6-.28 1.12-.28.5-.86.81-.58.3-1.44.31H5.56V30h-1.7v-7.02h2.76q.84 0 1.42.29a2 2 0 0 1 .87.8q.3.51.3 1.17m-2.7.88q.48 0 .72-.23a1 1 0 0 0 .24-.65q0-.42-.24-.65t-.73-.23h-.93v1.76zm8.94-.88q0 .6-.28 1.12-.28.5-.86.81-.58.3-1.44.31H11.8V30h-1.7v-7.02h2.76q.85 0 1.42.29a2 2 0 0 1 .87.8q.3.51.3 1.17m-2.7.88q.48 0 .72-.23a1 1 0 0 0 .24-.65q0-.42-.24-.65t-.73-.23h-.93v1.76zm8.64-3.14v1.37h-1.86V30h-1.7v-5.65h-1.87v-1.37zM26.54 30l-1.43-2.15L23.85 30h-1.94l2.25-3.57-2.3-3.45h1.99l1.41 2.12 1.24-2.12h1.94l-2.23 3.54L28.53 30z"/></svg>
