<svg viewBox="-146.85 0 419.12 419.12" xmlns="http://www.w3.org/2000/svg"><defs><style>.a{fill:#ffffff;}.b{fill:#957f6e;}.c{fill:#211715;}.d{fill:#7abee6;}</style></defs><path class="a" d="M39.064,373.76q-.021-.357-.043-.712c-.893-14.611-2.864-29.246-4.243-43.819-.261-2.756-.531-5.518-.529-8.284,8.7.3,17.493.284,25.511.284,6.647,0,16.317-.529,25.773-1.363l.007.448a80.571,80.571,0,0,1-.523,8.915c-1.379,14.573-3.35,29.208-4.243,43.819a42.07,42.07,0,0,0,.1,8.934,13.429,13.429,0,0,0,.967,3.282,2.547,2.547,0,0,0-1.145,1,7.551,7.551,0,0,1-1.668,1.573,7.107,7.107,0,0,1-3.642.822A20.352,20.352,0,0,1,63.191,384.7a1.232,1.232,0,0,0-1.947,1.011H58.551A1.232,1.232,0,0,0,56.6,384.7a20.352,20.352,0,0,1-12.194,3.958,7.107,7.107,0,0,1-3.642-.822A7.551,7.551,0,0,1,39.1,386.26a2.547,2.547,0,0,0-1.145-1,13.429,13.429,0,0,0,.967-3.282A39.01,39.01,0,0,0,39.064,373.76Z"/><path class="b" d="M32.041,96.009C23.52,97.423,18.084,90.66,18.124,85.79A56.973,56.973,0,0,1,19.86,73.642c1.351-4.823,2.315-13.3,2.315-25.067C21.6,31.22,26.164,18.634,33.361,11.744a39.063,39.063,0,0,1,25.1-9.812A39.875,39.875,0,0,1,74.4,4.986l2.436.988,2.452,1.435c2.119,1.24,2.874,2.3,5.054,4.391,5.474,5.246,9.279,14.682,9.885,23.133.174,2.438.517,8.26.356,13.171a91.456,91.456,0,0,0,3.5,24.976c1.4,4.741,3.287,10.842,1.772,15.549-1.85,5.744-8.484,9.28-14.246,7.227"/><path class="a" d="M70.71,27.2c-8.624,7.856-26.62,16.826-40.039,21.265a4.483,4.483,0,0,0-2.5-.652,4.032,4.032,0,0,0-3.621,2.012c-1.231,2.134-1.179,6.066-.353,8.5a13.13,13.13,0,0,0,3.853,6.248,4.7,4.7,0,0,0,4,1A33.014,33.014,0,0,0,38.313,77.4a24.455,24.455,0,0,0,8.852,7.068c-.095,1.1-.249,2.149-.445,3.285-.355,1.965-.236,3.716-2.97,4.7-.04.015-.517.235-1.237.569,2.651,3.167,7.69,7.776,18.146,7.776,10.011,0,14.946-3.972,17.639-7.076-1.453-.684-2.639-1.244-2.707-1.269-2.734-.988-2.627-2.739-2.97-4.7-.22-1.253-.383-2.5-.481-3.759,6.564-3.484,11.751-12.42,12.69-14.967a28.1,28.1,0,0,0,1.27-3.448l.354.06a4.785,4.785,0,0,0,3.692-1.066A13.13,13.13,0,0,0,94,58.32c.826-2.433.878-6.365-.352-8.5a4.033,4.033,0,0,0-3.621-2.012,4.472,4.472,0,0,0-2.6.716A34.352,34.352,0,0,1,75.907,37.9a83.181,83.181,0,0,1-5.2-10.19"/><path class="c" d="M92.587,48.1a95.545,95.545,0,0,0,3.442,25.054c1.734,6.007,4.8,14.164-.9,19.012a9.252,9.252,0,0,1-8.982,1.758c-2.445-.824-3.494,3.038-1.063,3.857,6.868,2.315,14.684-1.919,16.761-8.807,1.207-4,.367-8.414-.664-12.358-1.113-4.253-2.431-8.407-3.2-12.747A98.491,98.491,0,0,1,96.587,48.1c-.039-2.571-4.039-2.579-4,0Z"/><path class="c" d="M78.283,9.136A19.818,19.818,0,0,1,82,12.3a32.587,32.587,0,0,1,3.435,3.758A35.268,35.268,0,0,1,90.446,26.1c2.255,7.008,2.358,14.7,2.141,22-.077,2.575,3.924,2.573,4,0,.235-7.912.05-16.28-2.54-23.832a38.138,38.138,0,0,0-5.606-10.826,43.07,43.07,0,0,0-3.894-4.254A22.36,22.36,0,0,0,80.3,5.682C78.09,4.353,76.077,7.81,78.283,9.136Z"/><path class="c" d="M74.935,3.058A41.66,41.66,0,0,0,38.953,5.281a32.223,32.223,0,0,0-10.38,8.947,40.491,40.491,0,0,0-6.2,13.316,70.951,70.951,0,0,0-2.2,21.031c.078,2.568,4.079,2.579,4,0-.32-10.438.929-21.694,6.707-30.669C36,9.954,45.749,5.093,54.991,4.117a39.476,39.476,0,0,1,18.881,2.8,2.013,2.013,0,0,0,2.46-1.4,2.047,2.047,0,0,0-1.4-2.46Z"/><path class="c" d="M20.175,48.575c-.009,8.048-.09,16.5-2.187,24.333a52.955,52.955,0,0,0-1.859,12.581,12.186,12.186,0,0,0,3.8,8.685,14.449,14.449,0,0,0,12.645,3.764,2.014,2.014,0,0,0,1.4-2.46,2.049,2.049,0,0,0-2.46-1.4,10.205,10.205,0,0,1-8.856-2.837,9.255,9.255,0,0,1-2.094-3.2,8.7,8.7,0,0,1-.362-4.029,61.868,61.868,0,0,1,1.84-10.787,66.654,66.654,0,0,0,1.47-9.342c.5-5.085.662-10.2.668-15.309,0-2.574-4-2.578-4,0Z"/><path class="c" d="M84.7,63a27.969,27.969,0,0,1-1.266,4.219c-.192.506-.323.765-.564,1.363-.2.5.145-.293-.028.067-.061.127-.118.256-.179.384a35.9,35.9,0,0,1-3.09,5.144c-2.681,3.8-6.351,7.949-11.062,9.056-2.505.589-1.444,4.446,1.063,3.857,5.6-1.316,9.907-5.99,13.151-10.472a36.828,36.828,0,0,0,3.359-5.5c.2-.418.383-.844.562-1.272.214-.513-.165.356.072-.165.153-.337.291-.681.427-1.025a27.993,27.993,0,0,0,1.412-4.594C89.077,61.554,85.222,60.48,84.7,63Z"/><path class="c" d="M29.564,63.967C31.966,74.5,39.9,85.987,51.282,87.7a2.065,2.065,0,0,0,2.46-1.4,2.016,2.016,0,0,0-1.4-2.46C42.253,82.324,35.544,72.216,33.421,62.9c-.572-2.508-4.43-1.447-3.857,1.064Z"/><path class="c" d="M53.644,72.932a11.936,11.936,0,0,0,5.748,1.342,9.48,9.48,0,0,0,5.916-1.794,2,2,0,0,0,0-2.828,2.062,2.062,0,0,0-2.829,0c.692-.54-.015-.018-.233.1-.169.089-.619.229.015.013-.156.053-.308.118-.465.169-.422.135-.888.156-1.3.3.212-.072.332-.04.032-.01-.128.012-.256.023-.384.031-.308.02-.617.028-.925.026-.276,0-.553-.011-.828-.03-.127-.008-.254-.019-.38-.031q-.108-.01-.216-.024-.235-.028.188.025a8.165,8.165,0,0,1-1.216-.27c-.17-.051-.336-.112-.5-.17-.446-.152.425.2.02.013-.208-.1-.414-.2-.618-.309a2,2,0,0,0-2.019,3.454Z"/><path class="c" d="M58.109,59.737a25.668,25.668,0,0,1,.6,2.755l-.072-.531a1.666,1.666,0,0,1,.011.38l.071-.532a.909.909,0,0,1-.042.171l.2-.478a.656.656,0,0,1-.061.11l.313-.4a.535.535,0,0,1-.09.088l.405-.312a1.814,1.814,0,0,1-.218.115l.478-.2a1.648,1.648,0,0,1-.368.107l.531-.072a1.475,1.475,0,0,1-.345,0l.532.071c-.13-.018-.258-.05-.388-.067a1.526,1.526,0,0,0-.8-.036,1.484,1.484,0,0,0-.744.238,2,2,0,0,0-.717,2.736l.313.405a1.99,1.99,0,0,0,.882.514c.349.047.687.134,1.042.15a3.422,3.422,0,0,0,1.6-.391,2.436,2.436,0,0,0,1.313-1.592,3.731,3.731,0,0,0-.013-1.649c-.15-.888-.355-1.768-.583-2.638a2.064,2.064,0,0,0-.92-1.2,2,2,0,0,0-2.736.718,2.108,2.108,0,0,0-.2,1.541Z"/><path class="c" d="M68.983,28.721a58.071,58.071,0,0,0,6.636,12.22,37.914,37.914,0,0,0,10.593,9.192c2.209,1.335,4.221-2.122,2.019-3.454a33.151,33.151,0,0,1-9.587-8.32A59.233,59.233,0,0,1,72.437,26.7a2.012,2.012,0,0,0-2.736-.717,2.051,2.051,0,0,0-.718,2.736Z"/><path class="c" d="M69.3,25.782C64.073,30.5,57.787,34.091,51.575,37.333a146.792,146.792,0,0,1-21.26,9.144c-2.429.814-1.388,4.678,1.063,3.858a153.644,153.644,0,0,0,22.216-9.548c6.523-3.4,13.048-7.222,18.531-12.177,1.913-1.73-.922-4.551-2.829-2.828Z"/><path class="c" d="M32.725,47.545a6.737,6.737,0,0,0-7.344-1.094,6.4,6.4,0,0,0-3.348,4.308,16,16,0,0,0,2.32,12.631C26,65.836,28.6,68.042,31.742,67.634a2.066,2.066,0,0,0,2-2,2.011,2.011,0,0,0-2-2c-2.177.282-3.594-1.521-4.538-3.262a12.911,12.911,0,0,1-1.552-4.819,8.277,8.277,0,0,1,.826-5.039c-.327.524.511-.436.2-.21a1.831,1.831,0,0,1,.918-.42,2.5,2.5,0,0,1,2.3.489c1.915,1.709,4.754-1.11,2.828-2.828Z"/><path class="c" d="M88.3,50.373a2.475,2.475,0,0,1,2.171-.516,1.919,1.919,0,0,1,1.045.447c-.3-.222.52.72.2.21a8.261,8.261,0,0,1,.825,5.039,12.976,12.976,0,0,1-1.551,4.819c-.944,1.741-2.361,3.544-4.539,3.262a2.009,2.009,0,0,0-2,2,2.052,2.052,0,0,0,2,2c5.117.664,8.264-4.858,9.543-8.995,1.148-3.716,1.089-9.467-2.543-11.843a6.7,6.7,0,0,0-7.983.749c-1.925,1.717.912,4.538,2.829,2.828Z"/><path class="c" d="M44.107,51.778c-.461,1.5-.161,4.935,2.672,5.227,3.744-.022,3.944-4.181,2.683-6.136C48.43,49.268,45.4,48.6,44.107,51.778Z"/><path class="c" d="M74.09,51.778c.46,1.5.16,4.935-2.673,5.227-3.744-.022-3.943-4.181-2.683-6.136C69.766,49.268,72.8,48.6,74.09,51.778Z"/><path class="c" d="M34.934,98.664c.871-.305,1.716-.743,2.554-1.127q1.929-.882,3.851-1.777c1.008-.467,2.014-.937,3.023-1.4.1-.048.21-.093.313-.144s.269-.117-.163.068c-.513.219-.068.035.064-.018.253-.1.507-.2.752-.322a5.424,5.424,0,0,0,2.41-2.23,8.551,8.551,0,0,0,.815-2.852c.227-1.464.478-2.92.611-4.4a2.007,2.007,0,0,0-2-2,2.052,2.052,0,0,0-2,2,37.535,37.535,0,0,1-.89,5.286c-.059.246.2-.313.04-.115a1.887,1.887,0,0,0-.131.233c-.223.394.179-.132-.067.088a2.929,2.929,0,0,0-.213.205c.216-.251.158-.1.029-.023-.1.06-.193.124-.293.181-.037.021-.454.23-.275.149s-.146.055-.145.055c-.153.062-.333.138-.485.2l-.065.029c-.1.044-.2.091-.3.137-2.145.985-4.283,1.988-6.428,2.973q-.834.384-1.671.762c-.177.08-.355.158-.532.236-.445.2.5-.186.132-.058a2,2,0,1,0,1.064,3.857Z"/><path class="c" d="M70.165,84.305c.125,1.379.325,2.746.55,4.112a15.8,15.8,0,0,0,.395,2.118,5.394,5.394,0,0,0,1.471,2.432,6.1,6.1,0,0,0,1.309.917,10.571,10.571,0,0,0,.983.427c.638.244-.464-.225-.22-.1,1.906.975,3.883,1.832,5.818,2.747.926.438,1.845.891,2.789,1.286a2,2,0,0,0,2.46-1.4,2.064,2.064,0,0,0-1.4-2.46c.993.416.083.02-.15-.089q-.621-.291-1.242-.586-1.681-.793-3.362-1.591c-.867-.41-1.733-.822-2.6-1.227-.094-.044-.188-.089-.282-.131l-.072-.033c-.144-.063-.338-.144-.484-.2-.059-.024-.364-.169-.06-.019-.179-.088-.352-.18-.524-.281-.057-.033-.342-.221-.112-.061.2.141.014.011-.023-.026-.063-.062-.13-.132-.2-.191-.291-.26.1.076.063.1a4.683,4.683,0,0,1-.288-.482c-.111-.168.088.173.078.195a2.456,2.456,0,0,0-.118-.351c-.048-.161-.086-.324-.121-.488-.081-.386-.133-.777-.192-1.166-.085-.564-.187-1.125-.272-1.689-.036-.241-.041-.277-.081-.615-.045-.383-.083-.766-.118-1.15a2.044,2.044,0,0,0-2-2,2.022,2.022,0,0,0-2,2Z"/><path class="c" d="M61.9,381.982c0-14.171-.06-28.343-.094-42.515q-.024-9.378-.046-18.755c-.006-2.573-4.006-2.578-4,0q.066,27.35.131,54.7.006,3.285.009,6.571c0,2.574,4,2.578,4,0Z"/><path class="c" d="M32.255,320.314a135.507,135.507,0,0,0,1.16,15.305c.537,5.17,1.117,10.336,1.667,15.5.541,5.086,1.052,10.175,1.464,15.273.392,4.851,1.123,10,.473,14.853-.645,4.811-4.161,8.737-7.615,11.881-1.908,1.737.928,4.559,2.829,2.829,3.346-3.047,6.4-6.642,7.965-10.945,1.7-4.673.97-10.078.628-14.923-.748-10.616-2-21.187-3.126-31.768-.635-5.961-1.506-12.006-1.445-18.01.026-2.574-3.974-2.576-4,0Z"/><path class="a" d="M17.87,406.365a13.021,13.021,0,0,1,2.741-3.872c3.1-3.084,6.51-6.21,9.608-9.387,0,0,4.1-4.531,4.326-4.762a22.667,22.667,0,0,0,1.743-2.563c.7-1.126,2.1-.638,2.812.479a7.551,7.551,0,0,0,1.668,1.573,7.107,7.107,0,0,0,3.642.822A20.352,20.352,0,0,0,56.6,384.7a1.232,1.232,0,0,1,1.947,1.011c0,2.43.022,4.025.007,7.247-.194,3.069.574,7.662-4.2,10.647-.744.465-3.067,2.074-5.7,3.906-4.119,2.87-8.988,6.287-9.711,6.7a21.165,21.165,0,0,1-13.174,2.7,12.48,12.48,0,0,1-5.6-1.971,6.5,6.5,0,0,1-3.083-4.865A8.615,8.615,0,0,1,17.87,406.365Z"/><path class="a" d="M101.925,406.365a13.021,13.021,0,0,0-2.741-3.872c-3.1-3.084-6.51-6.21-9.608-9.387,0,0-4.1-4.531-4.326-4.762a22.535,22.535,0,0,1-1.743-2.563c-.7-1.126-2.1-.638-2.812.479a7.551,7.551,0,0,1-1.668,1.573,7.107,7.107,0,0,1-3.642.822A20.352,20.352,0,0,1,63.191,384.7a1.232,1.232,0,0,0-1.947,1.011c0,2.43-.022,4.025-.007,7.247.194,3.069-.574,7.662,4.2,10.647.744.465,3.067,2.074,5.7,3.906,4.119,2.87,8.988,6.287,9.711,6.7a21.165,21.165,0,0,0,13.174,2.7,12.48,12.48,0,0,0,5.6-1.971,6.5,6.5,0,0,0,3.083-4.865A8.615,8.615,0,0,0,101.925,406.365Z"/><path class="c" d="M19.6,407.375a18.362,18.362,0,0,1,4.286-5.29c1.788-1.735,3.6-3.447,5.378-5.192,1.868-1.832,3.613-3.746,5.371-5.682a29.9,29.9,0,0,0,1.976-2.279c.321-.434.617-.883.906-1.339.063-.1.308-.383.312-.5l.083-.167-.608.221c-.109.159,1.13,1.36,1.405,1.6,3.314,2.871,8.709,2.128,12.577.87a22.785,22.785,0,0,0,5.586-2.672c.175-.116.49-.238.6-.415l.146-.105a.531.531,0,0,1-.784-.352c-.521-.315-.2-.5-.277,0a4.635,4.635,0,0,0,0,.687q0,1.308.009,2.615c0,1.731-.02,3.459-.05,5.19a13.257,13.257,0,0,1-.5,4.074A6.555,6.555,0,0,1,53.147,402c-1.468.959-2.9,1.973-4.341,2.974-3.274,2.277-6.524,4.591-9.827,6.827a19.137,19.137,0,0,1-11.93,3.238,10.533,10.533,0,0,1-6.349-2.214c-1.917-1.7-1.846-3.674-.9-5.929a2.012,2.012,0,0,0-1.4-2.46,2.052,2.052,0,0,0-2.461,1.4,8.644,8.644,0,0,0-.012,7.369,10.711,10.711,0,0,0,5.581,4.69c4.622,1.869,10.289,1.467,14.88-.287,3.679-1.4,6.746-3.815,9.949-6.05,2.137-1.49,4.27-2.985,6.414-4.464a35.392,35.392,0,0,0,4.559-3.264c2.916-2.8,3.092-6.5,3.22-10.28.069-2.043.03-4.091.023-6.135a6.806,6.806,0,0,0-.4-3.261,3.307,3.307,0,0,0-2.773-1.688,5.047,5.047,0,0,0-2.84,1.229,18.89,18.89,0,0,1-3.165,1.652,17.871,17.871,0,0,1-7.176,1.3,4.387,4.387,0,0,1-2.665-.731c-.809-.638-1.252-1.56-2.133-2.139a3.48,3.48,0,0,0-3.422-.306,6.5,6.5,0,0,0-2.251,2.619,45.515,45.515,0,0,1-4.923,5.6c-2.136,2.284-4.466,4.4-6.717,6.567s-4.605,4.238-5.945,7.1a2.056,2.056,0,0,0,.718,2.736A2.016,2.016,0,0,0,19.6,407.375Z"/><path class="c" d="M83.54,320.314A141.089,141.089,0,0,1,82.3,336.356c-.558,5.335-1.159,10.665-1.72,16-.553,5.249-1.069,10.5-1.47,15.766-.381,5-1.148,10.417.023,15.362s4.753,9.132,8.426,12.476c1.9,1.729,4.737-1.091,2.829-2.829-3.04-2.766-6.094-6.088-7.248-10.133a22.927,22.927,0,0,1-.519-7.123c.094-2.5.282-5.008.471-7.507.77-10.2,1.974-20.364,3.053-30.536.615-5.8,1.451-11.677,1.392-17.518-.026-2.572-4.026-2.579-4,0Z"/><path class="a" d="M101.925,406.365a13.021,13.021,0,0,0-2.741-3.872c-3.1-3.084-6.51-6.21-9.608-9.387,0,0-4.1-4.531-4.326-4.762a22.535,22.535,0,0,1-1.743-2.563c-.7-1.126-2.1-.638-2.812.479a7.551,7.551,0,0,1-1.668,1.573,7.107,7.107,0,0,1-3.642.822A20.352,20.352,0,0,1,63.191,384.7a1.232,1.232,0,0,0-1.947,1.011c0,2.43-.022,4.025-.007,7.247.194,3.069-.574,7.662,4.2,10.647.744.465,3.067,2.074,5.7,3.906,4.119,2.87,8.988,6.287,9.711,6.7a21.165,21.165,0,0,0,13.174,2.7,12.48,12.48,0,0,0,5.6-1.971,6.5,6.5,0,0,0,3.083-4.865A8.615,8.615,0,0,0,101.925,406.365Z"/><path class="c" d="M103.652,405.356c-1.174-2.5-3.125-4.369-5.083-6.266-2.078-2.013-4.184-4-6.234-6.04-1.838-1.832-3.538-3.792-5.289-5.706-1.122-1.226-1.7-3.1-3.23-3.871a3.435,3.435,0,0,0-3.284.222c-.913.54-1.37,1.453-2.148,2.112-1.624,1.376-4.62.934-6.58.537a19.085,19.085,0,0,1-6.393-2.551c-.921-.579-1.711-1.31-2.864-1.323a3.3,3.3,0,0,0-2.9,1.682,6.329,6.329,0,0,0-.4,3.1q-.006,1.5-.009,3c0,3.635-.324,7.713,1.358,11.053a11.541,11.541,0,0,0,4.28,4.313c1.836,1.208,3.628,2.487,5.431,3.743,3.151,2.2,6.238,4.615,9.539,6.584a22.534,22.534,0,0,0,16.822,2.5,11.816,11.816,0,0,0,6.714-4.446,8.369,8.369,0,0,0,.478-8.158,2.067,2.067,0,0,0-2.461-1.4,2.013,2.013,0,0,0-1.4,2.46c.755,1.8,1.128,3.662-.233,5.257a8.93,8.93,0,0,1-5.423,2.7,18.669,18.669,0,0,1-12.481-2.372c-2.752-1.653-5.335-3.65-7.965-5.486-1.814-1.265-3.625-2.533-5.448-3.784a17.138,17.138,0,0,1-3.624-2.725c-1.825-2.179-1.557-5.343-1.587-8.006-.022-1.855,0-3.71.007-5.564,0-.178.125-1.057,0-1.212.861,1.086-1.019.613-1.062.716-.008.018.515.367.591.418a20.326,20.326,0,0,0,2.639,1.52c3.769,1.812,8.863,3.166,13,1.9a7.085,7.085,0,0,0,2.552-1.417c.282-.238,1.657-1.455,1.557-1.707-.086-.217-.53-.25-.6-.129-.027.048.22.368.246.411.281.463.582.919.9,1.358a15.214,15.214,0,0,0,1.047,1.286c1.66,1.842,3.3,3.717,5.048,5.473,1.93,1.936,3.916,3.817,5.884,5.714,1.948,1.878,3.979,3.631,5.146,6.122a2.016,2.016,0,0,0,2.736.717A2.044,2.044,0,0,0,103.652,405.356Z"/><path class="d" d="M108.524,224.179a267.637,267.637,0,0,0-5.375-30.893l10.17-18.475c1.86-3.379,3.912-7.64,3.156-21.249-.222-8.131-3.714-25.693-5.3-31.409-1.7-6.157-3.091-11.062-8.548-16.745-3.725-3.88-13.682-8.285-22.1-11.5l-1.4-.488-.448-.158c-2.6,3.156-7.513,7.539-18.03,7.539-11.232,0-16.214-5.318-18.718-8.446l-.288.117L38.108,93.9c-8.416,3.219-18.373,7.624-22.1,11.5C10.552,111.091,9.166,116,7.461,122.153c-1.581,5.716-5.073,23.732-5.295,31.863-.756,13.608,1.777,21.8,6.444,29.883a38.381,38.381,0,0,0,8.061,8.682,553.46,553.46,0,0,0-5.178,85.826c.33,13.384.056,19.05.945,33.142.056.892.346,4.291,1.554,5.666a10.537,10.537,0,0,0,6.176,2.916c12.909,1.125,27.178,1.1,39.592,1.1,13.644,0,40.025-2.228,51.144-4.744C111.7,289.006,112.257,255.7,108.524,224.179Z"/><path class="c" d="M40.238,93.363a23.344,23.344,0,0,0,12.724,8.52c7.084,1.813,15.667,1.256,21.98-2.68a21.888,21.888,0,0,0,5.691-5.2,2.065,2.065,0,0,0,0-2.828,2.012,2.012,0,0,0-2.828,0A18.724,18.724,0,0,1,66.33,98.283c-6.3,1.282-13.522.536-18.849-3.271a22.5,22.5,0,0,1-4.414-4.477,2.011,2.011,0,0,0-2.829,0,2.052,2.052,0,0,0,0,2.828Z"/><path class="c" d="M115.046,175.821a30.332,30.332,0,0,0,3.494-13.25,100.552,100.552,0,0,0-1.466-21.375c-.994-6.268-2.145-12.559-3.735-18.707-1.862-7.2-4.528-14.657-10.458-19.565a50.232,50.232,0,0,0-11.15-6.5c-3.94-1.819-7.965-3.511-12.063-4.942-2.435-.85-3.482,3.013-1.063,3.858,3.241,1.131,6.425,2.441,9.56,3.837A67.4,67.4,0,0,1,98.619,104.7c6.094,4.123,8.709,11.008,10.581,17.8,1.539,5.583,2.592,11.327,3.567,17.031a113.732,113.732,0,0,1,1.868,19.769,38.182,38.182,0,0,1-1.014,9.6c-.135.509-.286,1.014-.458,1.511-.087.255-.181.507-.277.758-.031.08-.064.16-.095.24-.2.505.1-.221-.025.059-.353.8-.754,1.571-1.174,2.335-1.24,2.257,2.213,4.278,3.454,2.019Z"/><path class="c" d="M22.405,193.88c-3.711-1.628-6.879-4.713-9.55-7.688a31.866,31.866,0,0,1-5.549-9.356c-3.324-8.123-3.7-16.988-2.972-25.642a184.131,184.131,0,0,1,3.814-23.3c1.688-7.787,3.733-16,9.822-21.6a27.968,27.968,0,0,1,5.542-3.7c2.515-1.384,5.118-2.606,7.746-3.757,3.6-1.577,7.283-2.964,10.926-4.439a2.064,2.064,0,0,0,1.4-2.461,2.013,2.013,0,0,0-2.46-1.4c-8,3.237-16.556,6.042-23.646,11.074-7.511,5.331-10.606,14.109-12.621,22.713a210.458,210.458,0,0,0-4.28,24.461c-1.007,8.973-.907,18.417,2.088,27.024a39.012,39.012,0,0,0,6.412,12.107c3.016,3.64,6.927,7.491,11.312,9.415a2.063,2.063,0,0,0,2.736-.718,2.014,2.014,0,0,0-.717-2.736Z"/><path class="c" d="M54.816,212.669c9.51.476,18.938.075,28.154-2.508,2.475-.694,1.423-4.554-1.064-3.857-8.887,2.491-17.92,2.824-27.09,2.365-2.573-.129-2.566,3.871,0,4Z"/><path class="c" d="M24.706,128.874c-1.058,5.478-2.349,10.8-2.8,16.378-.2,2.489-.341,4.988-.33,7.486a22.733,22.733,0,0,0,.663,6.3c.731,2.462,4.593,1.414,3.858-1.063a19.588,19.588,0,0,1-.521-5.591c0-2.38.14-4.76.33-7.132.419-5.217,1.665-10.191,2.654-15.315.486-2.515-3.369-3.592-3.857-1.063Z"/><path class="c" d="M22.967,158.405c-3.8,8.409-5.76,17.394-7.178,26.471-1.44,9.212-2.57,18.479-3.511,27.755a545.464,545.464,0,0,0-2.911,56.141c.017,8.247.244,16.5.37,24.743.056,3.69.153,7.38.32,11.068.164,3.621.022,7.557,1.02,11.079,1.015,3.581,4.411,5.7,7.96,6.318a62.221,62.221,0,0,0,6.836.572q3.494.214,6.991.343c9.185.348,18.388.378,27.579.332a309.43,309.43,0,0,0,43.122-3.416q2.2-.324,4.4-.709a2.018,2.018,0,0,0,1.4-2.461,2.046,2.046,0,0,0-2.46-1.4c-6.577,1.167-13.236,1.878-19.884,2.488-7.185.66-14.391,1.165-21.6,1.4-7.941.255-15.912.136-23.855,0-4.613-.079-9.226-.217-13.832-.469q-3.444-.187-6.881-.471a9.228,9.228,0,0,1-4.551-1.589c-2.26-1.59-1.905-5.713-2.04-8.142q-.322-5.748-.454-11.5c-.171-7.627-.283-15.26-.39-22.888a527.955,527.955,0,0,1,2.179-54.207q1.22-13.7,3.092-27.326c1.227-8.818,2.57-17.7,5.42-26.166.679-2.017,1.444-4,2.32-5.941a2.062,2.062,0,0,0-.718-2.737,2.016,2.016,0,0,0-2.736.718Z"/><path class="c" d="M101.449,194.75a301.232,301.232,0,0,1,6.779,47.7c1.122,16.016,1.374,32.082,1.217,48.132-.082,8.421-.281,16.84-.523,25.258-.074,2.575,3.927,2.572,4,0,.442-15.38.731-30.768.457-46.154a443.168,443.168,0,0,0-3.325-49.308,269.281,269.281,0,0,0-4.748-26.691c-.587-2.505-4.445-1.445-3.857,1.063Z"/><path class="a" d="M33.653,180.822l1.8-.122a10.876,10.876,0,0,1,5.012.45c1.559.665,2.821,2.353,2.412,4-.388,1.556-2.041,2.441-3.6,2.812A28.633,28.633,0,0,0,35,189.167c-.361.14-1.362.882-1.458,1.257a2.152,2.152,0,0,0,.807,2.37c2.921,2.594,7.561,5.146,11.465,5.437a24.434,24.434,0,0,1,4.385.695,3.2,3.2,0,0,1,1.336,4.226c-.686,1.217-1.959,1.885-4.175,2.681a14.12,14.12,0,0,1-2.411.622c-1.856,5.428-10.415,5.628-16.012,3.843-4.934-1.574-9.288-4.58-13.282-7.878a11.824,11.824,0,0,1-1.713-2.688c-1.875-3.458-.431-10.365,1-12.722,3.242-5.337,5.407-4.977,8.614-5.509Z"/><path class="c" d="M42.606,206.749c-2.276,2.777-6.619,2.836-9.888,2.372-4.586-.651-8.753-2.981-12.465-5.645-.975-.7-1.935-1.425-2.854-2.2a7.1,7.1,0,0,1-1.594-2.3,8.909,8.909,0,0,1-.721-4.82c.221-3.439,1.377-7.353,4.3-9.48a6.954,6.954,0,0,1,3.248-1.042c2.431-.353,4.914-.409,7.365-.574a63.759,63.759,0,0,1,8.011-.434,3.414,3.414,0,0,1,2.6,1.072,1.032,1.032,0,0,1-.251,1.66,7.514,7.514,0,0,1-2.809.944,16.734,16.734,0,0,0-3.567,1.131,3.994,3.994,0,0,0-2.47,4.28c.42,2.221,2.709,3.659,4.465,4.818a24.475,24.475,0,0,0,6.655,3.13c1.936.553,3.946.541,5.914.909.722.135,1.214.124,1.3,1.018.068.725-.43,1.066-.974,1.406a13.653,13.653,0,0,1-7.371,1.654,36,36,0,0,1-9.144-1.29c-2.488-.675-3.549,3.183-1.063,3.857,5.75,1.561,12.348,2.344,17.978,0,2.2-.915,4.21-2.313,4.514-4.861a4.988,4.988,0,0,0-3.65-5.534c-1.99-.485-4.075-.4-6.056-.912a20.868,20.868,0,0,1-7.244-3.643,9.6,9.6,0,0,1-1.183-.993c-.229-.242-.353-.606-.36.037,0,.34-.213.148.114-.062a4.77,4.77,0,0,1,.432-.281,10.81,10.81,0,0,1,2.036-.627c2.438-.627,5.159-1.136,6.486-3.563,1.391-2.543.082-5.562-2.244-7.016-2.567-1.6-5.794-1.125-8.651-.933-3.3.222-6.63.323-9.918.667a16.407,16.407,0,0,0-5.091,1.129c-3.889,1.768-6.166,6.284-6.949,10.283a19.12,19.12,0,0,0-.2,7.268,11.165,11.165,0,0,0,3.088,5.791c4.52,4.048,10.382,7.708,16.4,8.86,4.783.915,11.247.872,14.629-3.255,1.619-1.975-1.2-4.821-2.829-2.828Z"/><path class="a" d="M101.737,148.256c7.931,26.555,14.931,46,21.264,66.371a8.276,8.276,0,0,1,.126,4.775,9.426,9.426,0,0,1-3.383,3.6c-2.7,1.4-4.159,2-9.076,2.834a48.34,48.34,0,0,1-4.961.429,11.3,11.3,0,0,1-5.9-1.54c-2.86-2.045-3.538-4.428-4.722-10.5-1.278-6.556-3.344-20.843-4.719-33.844-1.227-11.6-2.812-20.7-3.25-33.167"/><path class="c" d="M99.809,148.788c3.748,12.54,7.764,24.995,11.863,37.423,1.8,5.456,3.609,10.908,5.388,16.371q1.333,4.094,2.637,8.2.577,1.822,1.148,3.649c.432,1.384.913,3.009.353,4.443.158-.4-.316.425-.409.545a9.211,9.211,0,0,1-1.183,1.243,10.682,10.682,0,0,1-2.795,1.56,27.38,27.38,0,0,1-6.674,1.692c-3.819.571-8.865.85-11-2.736a19.938,19.938,0,0,1-1.873-6.2c-.443-2.186-.828-4.382-1.187-6.582-.954-5.846-1.768-11.715-2.5-17.591-.906-7.219-1.648-14.456-2.533-21.678-.891-7.281-1.657-14.568-1.925-21.9-.094-2.566-4.094-2.579-4,0,.252,6.914.939,13.788,1.773,20.653.836,6.886,1.569,13.783,2.406,20.669.78,6.419,1.646,12.831,2.655,19.219.363,2.3.742,4.6,1.184,6.887a32.542,32.542,0,0,0,2.108,7.7c2.165,4.625,7.134,6.168,11.933,5.851,4.716-.312,10.408-1.054,14.338-3.96a8.566,8.566,0,0,0,3.9-6.662c.116-3.12-1.389-6.386-2.323-9.314-1.8-5.639-3.649-11.26-5.5-16.88-4.789-14.5-9.546-29.018-13.921-43.654-.736-2.461-4.6-1.413-3.857,1.063Z"/><path class="a" d="M96.074,128.051a133.627,133.627,0,0,1-3.054-21.944c-.259-3.378-.231-8.189-.762-9.148-.383-.692-7.327-3.047-8.209-2.728s-.877,1.337-.884,2.543a267.606,267.606,0,0,0,1.319,28.818"/><path class="c" d="M98,127.52a132.028,132.028,0,0,1-2.549-16.156c-.254-2.781-.482-5.564-.6-8.353-.09-2.036.046-4.374-.565-6.342-.511-1.647-2.219-2.185-3.675-2.754a28.541,28.541,0,0,0-5.023-1.548c-2.113-.4-3.949.416-4.316,2.751a29.315,29.315,0,0,0-.11,4.563q.009,2.537.06,5.072c.144,6.963.608,13.907,1.263,20.839a2.054,2.054,0,0,0,2,2,2.014,2.014,0,0,0,2-2c-.523-5.537-.935-11.082-1.142-16.64q-.154-4.161-.176-8.326-.013-2.124,0-4.246a3,3,0,0,0,0-.526l.074-.3-1.041.645a.758.758,0,0,1,.293.01c.016.023-.289-.062.119.03a34.623,34.623,0,0,1,4.455,1.348c.68.253.931.379,1.546.656.435.2.348.271.023-.128-.149-.184-.121-.546-.169-.23a2.657,2.657,0,0,0,.115.6c.253,1.759.227,3.935.324,5.837.133,2.615.368,5.228.617,7.835a138.957,138.957,0,0,0,2.618,16.425c.549,2.514,4.406,1.45,3.857-1.063Z"/><path class="a" d="M94.528,119.888a3.847,3.847,0,0,1,4.782-.834c1.869,1.115,1.688,4.113,1.535,6.25-.765,3.343,1.29,8.264,1.868,10.4,0,0,1.255,3.3.986,4.455-.249,1.07-.934,3.881-1.393,5.756a2.846,2.846,0,0,1-2.536,2.157c-3.161.266-8.1.014-9.122.037a19.836,19.836,0,0,1-5.859-.205c-4.926-1.2-7.307-6.609-8.069-11.372-.373-2.506-.626-5.239.673-7.413.643-1.076,1.644-1.966,1.978-3.174.142-.514.153-1.057.29-1.572.375-1.669,2.074-2.522,3.051-3.8a1.158,1.158,0,0,0,.153-.255,4.8,4.8,0,0,0,.245-1.554,5.042,5.042,0,0,1,1.145-3.281,3.464,3.464,0,0,1,5.52.715,25.651,25.651,0,0,0,4.462,5.633"/><path class="c" d="M95.942,121.3a1.841,1.841,0,0,1,2.414-.485c.814.657.594,2.518.555,3.412a25.1,25.1,0,0,0-.042,4.888,29.844,29.844,0,0,0,1.173,4.754c.567,1.787,1.625,4.03,1.692,5.821.01.255.032-.01.037-.061a3.428,3.428,0,0,1-.1.417c-.066.274-.13.547-.2.82q-.292,1.216-.589,2.431a11.325,11.325,0,0,1-.536,2.225c-.266.531-.686.556-1.235.6-2.8.218-5.609-.04-8.411-.01a20.946,20.946,0,0,1-5.384-.132,6.834,6.834,0,0,1-3.526-2.233,15.634,15.634,0,0,1-3.22-8.276,9.085,9.085,0,0,1,.353-4.991,19.164,19.164,0,0,1,1.515-2.192,6.632,6.632,0,0,0,1-2.593,3.069,3.069,0,0,1,.929-1.95,17.036,17.036,0,0,0,1.907-1.958,5.554,5.554,0,0,0,.827-3.021,3,3,0,0,1,.618-1.928c1.329-1.291,2.384.51,3.02,1.473a27.612,27.612,0,0,0,4.075,4.936c1.872,1.765,4.706-1.058,2.828-2.829a29.033,29.033,0,0,1-4.149-5.227,5.677,5.677,0,0,0-5.11-2.745,5.54,5.54,0,0,0-4.8,3.683,28.981,28.981,0,0,0-.5,3.034c-.185.72-1.076,1.273-1.656,1.87a6.639,6.639,0,0,0-1.6,2.489c-.351,1.046-.29,1.964-.945,2.9a11.163,11.163,0,0,0-2.44,6.083,21.614,21.614,0,0,0,2.939,11.917A11.637,11.637,0,0,0,87.8,150.231c1.612-.013,3.206-.122,4.819-.083,1.934.047,3.873.088,5.807.008,2.193-.09,4.231-.531,5.381-2.613.915-1.656,1.125-3.931,1.564-5.759a8.507,8.507,0,0,0-.058-4.546c-.3-1.094-.686-2.172-1.032-3.252a28.573,28.573,0,0,1-1.561-6.127c-.177-2.029.369-4.017.118-6.063-.277-2.259-1.384-4.252-3.665-4.963a5.783,5.783,0,0,0-6.057,1.641c-1.638,1.963,1.177,4.808,2.828,2.828Z"/></svg>
