<svg xmlns="http://www.w3.org/2000/svg" fill="none" viewBox="0 0 24 24"><path fill="currentColor" fill-rule="evenodd" d="M1.25 2c0-.41.34-.75.75-.75h20a.75.75 0 0 1 0 1.5h-1.25v7.8c0 1.5 0 2.68-.13 3.62a4 4 0 0 1-1.1 2.42c-.67.63-1.51.9-2.52 1.04-.98.12-2.23.12-3.8.12h-.45v2.79l1.59.79a.75.75 0 1 1-.68 1.34L12 21.84l-1.66.83a.75.75 0 1 1-.68-1.34l1.59-.8v-2.78h-.45c-1.57 0-2.82 0-3.8-.12a4.2 4.2 0 0 1-2.51-1.04 4 4 0 0 1-1.1-2.42c-.14-.94-.14-2.13-.14-3.61V2.75H2A.75.75 0 0 1 1.25 2m3.5.75v7.75c0 1.55 0 2.64.12 3.46.11.8.32 1.23.65 1.54.34.32.81.53 1.67.64.88.1 2.03.11 3.67.11h2.28c1.64 0 2.8 0 3.67-.11.86-.11 1.33-.32 1.67-.64.33-.31.54-.74.65-1.54.12-.82.12-1.9.12-3.46V2.75zm10.78 5.22c.3.3.3.77 0 1.06l-1.3 1.3-.02.02q-.22.23-.45.41c-.17.14-.43.28-.76.28s-.59-.14-.76-.28q-.23-.18-.45-.41l-.03-.03-.58-.58-.18-.18-.18.18-1.29 1.29a.75.75 0 1 1-1.06-1.06l1.3-1.3.02-.02q.22-.23.45-.41c.17-.14.43-.28.76-.28s.59.14.76.28q.23.18.45.41l.03.03.58.58.18.18.18-.18 1.29-1.29c.3-.3.77-.3 1.06 0" clip-rule="evenodd"/></svg>
