<svg xmlns="http://www.w3.org/2000/svg" fill="currentColor" viewBox="0 0 32 32"><path d="M32 10.02a2 2 0 0 0-2-2h-3.41a4.7 4.7 0 0 0 1.44-3.43c0-1.73-.99-3.61-3.78-3.61-3.68 0-6.75 3.91-8.2 6.1-1.44-2.19-4.6-6.1-8.27-6.1-2.8 0-3.8 1.88-3.8 3.61 0 1.41.59 2.55 1.5 3.42H2a2 2 0 0 0-2 2V16h2.02v13.02c0 1.1.9 2 2 2H28a2 2 0 0 0 2-2V16h2zm-7.75-7.04c1.23 0 1.79.52 1.79 1.62 0 2.22-2.48 3.42-4.82 3.42h-3.38c1.42-2.11 3.92-5.04 6.4-5.04m-16.47 0c2.48 0 5.08 2.93 6.5 5.04H10.9C8.56 8.02 6 6.79 6 4.56c0-1.1.54-1.58 1.78-1.58M30 14H17v-3.98h13zM2 10.02h13V14H2zM4.02 16H15v13.02H4.02zM28 29.02H17V16h11z"/></svg>
