<svg xmlns="http://www.w3.org/2000/svg" fill="currentColor" style="fill-rule:evenodd;clip-rule:evenodd;stroke-linejoin:round;stroke-miterlimit:2" viewBox="0 0 1069 1069"><path id="Projector" d="M1.41.14h1066.67v1066.67H1.41z" style="fill:none"/><path d="M866.65 621.49a204.4 204.4 0 0 0-204.42-204.42h-.14a204.4 204.4 0 0 0-204.42 204.42v.14A204.4 204.4 0 0 0 662.1 826.04h.14a204.4 204.4 0 0 0 204.41-204.41zM253.5 710.56v84.23a31.26 31.26 0 0 0 62.5 0v-84.23a31.26 31.26 0 0 0-62.5 0m550.65-89.07v.14a141.9 141.9 0 0 1-141.92 141.91h-.14a141.9 141.9 0 0 1-141.92-141.91v-.14A141.9 141.9 0 0 1 662.1 479.57h.14a141.9 141.9 0 0 1 141.91 141.92M260.27 448.32a33.1 33.1 0 0 1 33.07 33.07 33.1 33.1 0 0 1-33.08 33.08 33.1 33.1 0 0 1-33.07-33.08 33.1 33.1 0 0 1 33.07-33.07m104.16 0a33.1 33.1 0 0 1 33.07 33.07 33.1 33.1 0 0 1-33.07 33.08 33.1 33.1 0 0 1-33.07-33.08 33.1 33.1 0 0 1 33.07-33.07m-64.3-164.84h469.23a31.26 31.26 0 0 0 0-62.5H300.13a31.26 31.26 0 0 0 0 62.5"/><path d="M513.5 741.8a31.25 31.25 0 0 0 26.81-47.29 142 142 0 0 1-20.14-72.88v-.14A141.9 141.9 0 0 1 662.1 479.57h.14a141.9 141.9 0 0 1 141.91 141.92v.14a142 142 0 0 1-18.7 70.42 31.25 31.25 0 0 0 33.04 46.2 197.9 197.9 0 0 0 160.5-194.36v-20.83a197.9 197.9 0 0 0-197.92-197.92H263.91A197.9 197.9 0 0 0 66 523.06v20.83a197.9 197.9 0 0 0 197.9 197.92zm237.67-120.25a89 89 0 0 0-89-89h-.02a89 89 0 0 0-89 89v.02a89 89 0 0 0 89 89h.02a89 89 0 0 0 89-89zm-285.2 57.76H263.92A135.4 135.4 0 0 1 128.5 543.9v-20.84a135.4 135.4 0 0 1 135.42-135.42h517.15a135.4 135.4 0 0 1 135.42 135.42v20.83a135.4 135.4 0 0 1-51.9 106.6 201 201 0 0 0 2.06-28.86v-.14a204.4 204.4 0 0 0-204.41-204.42h-.14a204.4 204.4 0 0 0-204.42 204.42v.14c0 19.7 2.84 39.1 8.3 57.67m222.7-57.76v.02a26.5 26.5 0 0 1-26.5 26.5h-.02a26.5 26.5 0 0 1-26.5-26.5v-.02a26.5 26.5 0 0 1 26.5-26.5h.02a26.5 26.5 0 0 1 26.5 26.5" style="fill-opacity:.5"/></svg>
