<svg xmlns="http://www.w3.org/2000/svg" fill="none" viewBox="0 0 24 24"><path stroke="currentColor" stroke-linecap="round" stroke-width="1.5" d="M22 12c0 2.83 0 4.24-.88 5.12-.64.64-1.57.82-3.12.86m-12 0c-1.55-.04-2.48-.22-3.12-.86C2 16.24 2 14.82 2 12s0-4.24.88-5.12S5.18 6 8 6h8c2.83 0 4.24 0 5.12.88q.44.44.63 1.12"/><path stroke="currentColor" stroke-linecap="round" stroke-width="1.5" d="M17.98 6c-.04-1.55-.22-2.48-.86-3.12C16.24 2 14.82 2 12 2s-4.24 0-5.12.88c-.64.64-.82 1.57-.86 3.12M18 12v4c0 2.83 0 4.24-.88 5.12-.64.64-1.57.82-3.12.86M6 12v4c0 2.83 0 4.24.88 5.12.64.64 1.57.82 3.12.86"/><path stroke="currentColor" stroke-linecap="round" stroke-width="1.5" d="M12 11c3.41 0 5.87.71 7.5 1.44m-15 0c.9-.4 2.06-.8 3.5-1.08"/></svg>
