<svg xmlns="http://www.w3.org/2000/svg" fill="none" viewBox="0 0 24 24"><path fill="currentColor" d="M18 10a1 1 0 1 1-2 0 1 1 0 0 1 2 0"/><path fill="currentColor" fill-rule="evenodd" d="M11.95 1.25h.1c1.37 0 2.47 0 3.34.12.9.12 1.66.38 2.26.98.74.74.97 1.73 1.05 2.95l.7.07c.9.12 1.65.38 2.25.98s.86 1.36.98 2.26c.12.87.12 1.97.12 3.34v.1c0 1.37 0 2.47-.12 3.34-.12.9-.38 1.66-.98 2.26-.74.74-1.73.97-2.95 1.05l-.07.7c-.12.9-.38 1.65-.98 2.25s-1.36.86-2.26.98c-.87.12-1.97.12-3.34.12h-.1c-1.37 0-2.47 0-3.34-.12a3.7 3.7 0 0 1-2.26-.98c-.6-.6-.86-1.36-.98-2.26l-.07-.69c-1.22-.08-2.21-.3-2.95-1.05-.6-.6-.86-1.36-.98-2.26-.12-.87-.12-1.97-.12-3.34v-.1c0-1.37 0-2.47.12-3.34.12-.9.38-1.66.98-2.26s1.36-.86 2.26-.98l.69-.07c.08-1.22.3-2.21 1.05-2.95.6-.6 1.36-.86 2.26-.98.87-.12 1.97-.12 3.34-.12m-5.14 4h10.38c-.08-1.02-.26-1.5-.6-1.84-.28-.28-.66-.46-1.4-.56-.75-.1-1.75-.1-3.19-.1s-2.44 0-3.2.1c-.73.1-1.11.28-1.4.56-.33.33-.51.82-.6 1.84M5.25 17.2v-2.44H5a.75.75 0 0 1 0-1.5h14a.75.75 0 0 1 0 1.5h-.25v2.44c1.02-.08 1.5-.26 1.84-.6.28-.28.46-.66.56-1.4.1-.75.1-1.75.1-3.19s0-2.44-.1-3.2c-.1-.73-.28-1.11-.56-1.4-.28-.27-.66-.45-1.4-.55-.75-.1-1.75-.1-3.19-.1H8c-1.44 0-2.44 0-3.2.1-.73.1-1.11.28-1.4.56-.27.28-.45.66-.55 1.4-.1.75-.1 1.75-.1 3.19s0 2.44.1 3.2c.1.73.28 1.11.56 1.4.33.33.82.51 1.84.6m12-2.44H6.75V16c0 1.44 0 2.44.1 3.2.1.73.28 1.11.56 1.4.28.27.66.45 1.4.55.75.1 1.75.1 3.19.1s2.44 0 3.2-.1c.73-.1 1.11-.28 1.4-.56.27-.28.45-.66.55-1.4.1-.75.1-1.75.1-3.19zM5.25 10c0-.41.34-.75.75-.75h3a.75.75 0 0 1 0 1.5H6a.75.75 0 0 1-.75-.75m3 6.8c0-.4.34-.75.75-.75h6a.75.75 0 0 1 0 1.5H9a.75.75 0 0 1-.75-.75m0 2.5c0-.4.34-.75.75-.75h4a.75.75 0 0 1 0 1.5H9a.75.75 0 0 1-.75-.75" clip-rule="evenodd"/></svg>
