<svg xmlns="http://www.w3.org/2000/svg" fill="currentColor" style="fill-rule:evenodd;clip-rule:evenodd;stroke-linejoin:round;stroke-miterlimit:2" viewBox="0 0 64 64"><path id="Icons" d="M-768-128H512v800H-768z" style="fill:none"/><g id="Icons1"><path id="printer" d="M44.12 40.15h-24v12h24zm-28-12h-1.99c-1.05 0-1.98.9-2.01 1.95-.08 4.05-.18 8.1 0 12.16.06 1 .95 1.87 1.97 1.9h2.03v-8h32v8.07l2.13-.08a2.1 2.1 0 0 0 1.9-1.97c.02-4.05.17-8.1-.01-12.13-.06-1-.94-1.87-1.94-1.9l-2.08-.03v.04zm28-15.99h-24v11.9c8-.07 16-.01 24 .05zm-28 44v-7.97l-2.16-.04a6.2 6.2 0 0 1-5.84-5.84Q8 36.15 8.12 30a6.2 6.2 0 0 1 5.84-5.85l2.16-.03V8.16h32v15.98l2.1.01a6.2 6.2 0 0 1 5.92 5.92c.03 4.08.08 8.16 0 12.24a6.2 6.2 0 0 1-5.84 5.84l-2.18.04v7.96z" style="fill-rule:nonzero"/></g></svg>
