<svg xmlns="http://www.w3.org/2000/svg" fill="currentColor" style="fill-rule:evenodd;clip-rule:evenodd;stroke-linejoin:round;stroke-miterlimit:2" viewBox="0 0 1069 1069"><path id="Chipset-fan" d="M1.45 1.67h1066.67v1066.67H1.45z" style="fill:none"/><path d="M824.62 795.42a33.1 33.1 0 0 1-33.07 33.07 33.1 33.1 0 0 1-33.07-33.08 33.1 33.1 0 0 1 33.07-33.07 33.1 33.1 0 0 1 33.07 33.07m-552.08-34.9a33.1 33.1 0 0 1 33.07 33.07 33.1 33.1 0 0 1-33.07 33.07 33.1 33.1 0 0 1-33.07-33.07 33.1 33.1 0 0 1 33.07-33.07m520.83-517.19a33.1 33.1 0 0 1 33.08 33.07 33.1 33.1 0 0 1-33.08 33.08 33.1 33.1 0 0 1-33.07-33.08 33.1 33.1 0 0 1 33.07-33.07m-485.93 31.25a33.1 33.1 0 0 1-33.08 33.07 33.1 33.1 0 0 1-33.07-33.07 33.1 33.1 0 0 1 33.07-33.07 33.1 33.1 0 0 1 33.08 33.07" style="fill-opacity:.5"/><path d="M658.35 191.93a364 364 0 0 0-123.57-21.52c-43.37 0-84.98 7.6-123.57 21.52.02 0-31.17-31.19-31.17-31.19a156.17 156.17 0 0 0-220.97.12 156.16 156.16 0 0 0 0 220.85l31.87 31.88a364 364 0 0 0-20.74 121.4c0 43.38 7.6 84.99 21.51 123.57l-33.67 33.65a156.17 156.17 0 0 0 0 220.86l.12.12a156.17 156.17 0 0 0 220.85 0l34.36-34.36a364 364 0 0 0 121.41 20.75c42.56 0 83.43-7.31 121.43-20.75-.02 0 33.3 33.33 33.3 33.33a156.17 156.17 0 0 0 220.98-.12 156.17 156.17 0 0 0 0-220.85l-32.64-32.64A363 363 0 0 0 899.36 535c0-42.57-7.31-83.43-20.75-121.43l32.9-32.89a156.16 156.16 0 0 0 0-220.85l-.11-.12a156.17 156.17 0 0 0-220.86 0zm-4.72 65.3a31.25 31.25 0 0 0 34.41-6.63l46.7-46.7a93.67 93.67 0 0 1 132.46 0l.12.13a93.67 93.67 0 0 1 0 132.46l-47.28 47.28a31.25 31.25 0 0 0-6.7 34.23 301 301 0 0 1 23.52 117c0 42.19-8.66 82.37-24.3 118.84a31.25 31.25 0 0 0 6.62 34.42l47.12 47.12a93.67 93.67 0 0 1 0 132.47l-.12.11a93.66 93.66 0 0 1-132.47 0l-47.7-47.7a31.25 31.25 0 0 0-34.23-6.7 301 301 0 0 1-117 23.52c-41.47 0-81-8.37-117-23.52a31.25 31.25 0 0 0-34.23 6.7l-48.73 48.73a93.67 93.67 0 0 1-132.46 0l-.12-.12a93.67 93.67 0 0 1 0-132.46l48.14-48.15a31.25 31.25 0 0 0 6.63-34.42A301 301 0 0 1 232.7 535c0-41.47 8.37-81 23.52-117a31.25 31.25 0 0 0-6.7-34.23l-46.25-46.25a93.67 93.67 0 0 1 .11-132.59 93.67 93.67 0 0 1 132.47 0l45.67 45.67a31.25 31.25 0 0 0 34.41 6.62 301 301 0 0 1 118.85-24.3c42.19 0 82.37 8.65 118.85 24.3m-118.85 79.85c-109.3 0-197.92 88.61-197.92 197.92s88.61 197.92 197.92 197.92h166.67c17.26 0 31.25-14 31.25-31.25V535c0-109.3-88.61-197.92-197.92-197.92m0 62.5h.03c74.72.01 135.39 60.69 135.39 135.42 0 74.74-60.68 135.42-135.42 135.42S399.36 609.74 399.36 535s60.68-135.42 135.42-135.42"/></svg>
