<svg xmlns="http://www.w3.org/2000/svg" fill="none" viewBox="0 0 24 24"><path fill="currentColor" d="M15.1 12.1c-.19-.3-.37-.6-.54-.81-.19-.23-.52-.53-1.02-.51s-.8.35-.97.59c-.16.22-.32.53-.48.84l-1.98 3.92-.2.38-.24-.35-.17-.27q-.3-.46-.56-.78-.27-.36-.68-.6a2 2 0 0 0-.87-.23q-.41-.04-.96-.03H5a.75.75 0 0 0 0 1.5h1.4q.58 0 .85.02c.18.02.25.04.3.07q.06.02.23.21.16.2.49.7l.18.28q.3.44.56.76c.19.21.52.5 1 .47.5-.03.79-.35.95-.59q.23-.34.46-.82l1.99-3.91.2-.4.24.38.65 1.07q.3.49.55.84.26.38.7.63.42.24.9.26.43.04 1 .03H19a.75.75 0 0 0 0-1.5h-1.32c-.42 0-.69 0-.9-.02a1 1 0 0 1-.3-.08 1 1 0 0 1-.23-.22l-.49-.75z"/><path fill="currentColor" fill-rule="evenodd" d="M11.94 1.25c-2.3 0-4.11 0-5.53.19a5.7 5.7 0 0 0-3.48 1.5A5.7 5.7 0 0 0 1.44 6.4c-.19 1.42-.19 3.22-.19 5.53v.12c0 2.3 0 4.11.19 5.53a5.7 5.7 0 0 0 1.5 3.48c.89.9 2.03 1.3 3.47 1.49 1.42.19 3.22.19 5.53.19h.12c2.3 0 4.11 0 5.53-.19a5.7 5.7 0 0 0 3.48-1.5 5.7 5.7 0 0 0 1.49-3.47c.19-1.42.19-3.22.19-5.53v-.12c0-2.3 0-4.11-.19-5.53a5.7 5.7 0 0 0-1.5-3.48 5.7 5.7 0 0 0-3.47-1.49c-1.42-.19-3.22-.19-5.53-.19zM4 3.99c.57-.56 1.35-.9 2.62-1.06 1.3-.18 3.01-.18 5.39-.18s4.09 0 5.39.18c1.27.17 2.05.5 2.62 1.06.56.57.9 1.35 1.06 2.62.18 1.3.18 3.01.18 5.39s0 4.09-.18 5.39c-.17 1.27-.5 2.05-1.06 2.62-.57.56-1.35.9-2.62 1.06-1.3.18-3.01.18-5.39.18s-4.09 0-5.39-.18c-1.27-.17-2.05-.5-2.62-1.06-.56-.57-.9-1.35-1.06-2.62-.18-1.3-.18-3.01-.18-5.39s0-4.09.18-5.39c.17-1.27.5-2.05 1.06-2.62" clip-rule="evenodd"/></svg>
