<svg xmlns="http://www.w3.org/2000/svg" fill="none" viewBox="0 0 24 24"><path fill="currentColor" fill-rule="evenodd" d="M11.94 1.25c-2.3 0-4.11 0-5.53.19a5.7 5.7 0 0 0-3.48 1.5A5.7 5.7 0 0 0 1.44 6.4c-.19 1.42-.19 3.22-.19 5.53v.12l.02 3.13q.04 1.35.17 2.4a5.7 5.7 0 0 0 1.5 3.48c.89.9 2.03 1.3 3.47 1.49 1.42.19 3.22.19 5.53.19h.12c2.3 0 4.11 0 5.53-.19a5.7 5.7 0 0 0 3.48-1.5 5.7 5.7 0 0 0 1.49-3.47 23 23 0 0 0 .17-2.75q.02-1.25.02-2.78v-.12c0-2.3 0-4.11-.19-5.53a5.7 5.7 0 0 0-1.5-3.48 5.7 5.7 0 0 0-3.47-1.49c-1.42-.19-3.22-.19-5.53-.19zm9.3 13 .01-2.25c0-2.38 0-4.09-.18-5.39-.17-1.27-.5-2.05-1.06-2.62-.57-.56-1.35-.9-2.62-1.06-1.3-.18-3.01-.18-5.39-.18s-4.09 0-5.39.18c-1.27.17-2.05.5-2.62 1.06-.56.57-.9 1.35-1.06 2.62-.18 1.3-.18 3.01-.18 5.39v2.25H5.1c.53 0 1 0 1.43.18.43.19.75.52 1.11.9l.08.08 1.14 1.2.2.22.18-.24 3.65-5.05c.15-.2.3-.42.46-.57.18-.19.45-.4.84-.42.4-.02.69.17.88.34q.26.23.5.53l1.81 2.06c.49.56.6.65.7.7.12.05.26.07 1 .07zM2.8 15.75q.04.91.14 1.64c.17 1.27.5 2.05 1.06 2.62.57.56 1.35.9 2.62 1.06 1.3.18 3.01.18 5.39.18s4.09 0 5.39-.18c1.27-.17 2.05-.5 2.62-1.06.56-.57.9-1.35 1.06-2.62q.1-.73.14-1.64h-2.25c-.55 0-1.05 0-1.5-.2s-.77-.58-1.13-1l-.08-.08-1.77-2.03-.21-.24-.18.26-3.66 5.04q-.22.31-.44.56c-.17.17-.43.38-.82.4s-.67-.14-.86-.29q-.26-.21-.51-.5l-1.17-1.22c-.48-.5-.58-.6-.7-.64-.1-.05-.23-.06-.93-.06z" clip-rule="evenodd"/></svg>
