<svg xmlns="http://www.w3.org/2000/svg" fill="currentColor" viewBox="0 0 32 32"><path d="M16 32c-.63 0-1.23-.24-1.68-.69L.68 17.67a2.4 2.4 0 0 1 0-3.36l5-5a1 1 0 0 1 1.69.89 4 4 0 0 0 3.9 4.73c2.18 0 3.78-1.82 3.78-4 0-2.2-1.6-3.98-3.79-3.98q-.3 0-.72.07a1 1 0 0 1-.88-1.7L14.32.68c.9-.9 2.46-.9 3.36 0l3.41 3.41a5.51 5.51 0 0 1 10.73 1.68A5.5 5.5 0 0 1 28 11l3.32 3.31c.92.93.92 2.44 0 3.36L17.68 31.31c-.45.45-1.05.7-1.68.7zM5.47 12.36l-3.38 3.37a.4.4 0 0 0 0 .54L15.74 29.9c.2.19.34.19.54 0L29.9 16.25a.4.4 0 0 0 0-.54l-4.8-4.8a1 1 0 0 1 .82-1.7l.15.02.25.02a3.5 3.5 0 1 0-3.5-3.5l.03.24.02.18a1 1 0 0 1-1.7.81l-4.9-4.9c-.2-.2-.35-.2-.54 0l-3.04 3.03c2.6.64 4.36 3 4.36 5.8 0 3.29-2.5 6-5.79 6a6 6 0 0 1-5.8-4.57"/></svg>
