<svg xmlns="http://www.w3.org/2000/svg" fill="currentColor" viewBox="0 0 32 32"><path d="M16 0a16 16 0 1 0 0 32 16 16 0 0 0 0-32m0 30.03A14.02 14.02 0 0 1 16 2a14.02 14.02 0 0 1 0 28.03m-1.47-5.02h2.52v-2.53h-2.52zm1.44-18.03q-2.2 0-3.62 1.19c-1.42 1.19-1.4 2.37-1.39 3.68l.04.07h2.3c0-.78.26-1.9.78-2.3S15.23 9 15.97 9q1.28 0 1.97.7c.7.7.69 1.12.69 1.98q0 1.1-.51 1.86-.52.77-1.72 2.2-1.25 1.13-1.54 1.8c-.3.67-.3 1.28-.3 2.46h2.4q0-1.11.14-1.64c.14-.53.36-.74.8-1.18q1.41-1.36 2.28-2.68.86-1.3.86-2.88 0-2.19-1.34-3.42c-1.34-1.23-2.13-1.23-3.73-1.23z"/></svg>
