<svg xmlns="http://www.w3.org/2000/svg" fill="currentColor" style="fill-rule:evenodd;clip-rule:evenodd;stroke-linejoin:round;stroke-miterlimit:2" viewBox="0 0 64 64"><path id="Icons" d="M-1216 0H64v800h-1280z" style="fill:none"/><g id="Icons1"><path id="quote-2" d="M36.8 51.97v-8.03q3.8-.2 5.77-1.39a6.4 6.4 0 0 0 2.75-3.83q.79-2.65.79-7.58h-9.3V12h19.08v18.2q0 11.3-4.84 16.53-4.83 5.25-14.24 5.25m-28.8 0v-8.03q3.81-.2 5.76-1.34a6.5 6.5 0 0 0 2.83-3.83q.87-2.7.87-7.63H8V12h19.19v18.2q0 11.3-4.81 16.53T8 51.97" style="fill-rule:nonzero"/></g></svg>
