<svg fill="currentColor" viewBox="0 0 64 64" xmlns="http://www.w3.org/2000/svg" style="fill-rule:evenodd;clip-rule:evenodd;stroke-linejoin:round;stroke-miterlimit:2;"><rect id="Icons" x="-1216" y="0" width="1280" height="800" style="fill:none;"/><g id="Icons1"><path id="quote-2" d="M36.806,51.968l0,-8.026c2.537,-0.14 4.458,-0.604 5.761,-1.391c1.304,-0.786 2.22,-2.063 2.749,-3.829c0.528,-1.766 0.793,-4.293 0.793,-7.581l-9.303,0l0,-19.147l19.081,0l0,18.203c0,7.519 -1.612,13.028 -4.836,16.525c-3.225,3.497 -7.973,5.246 -14.245,5.246Zm-28.806,0l0,-8.026c2.537,-0.14 4.457,-0.586 5.761,-1.338c1.304,-0.752 2.247,-2.029 2.828,-3.83c0.581,-1.801 0.872,-4.345 0.872,-7.633l-9.461,0l0,-19.147l19.186,0l0,18.203c0,7.519 -1.603,13.028 -4.809,16.525c-3.207,3.497 -7.999,5.246 -14.377,5.246Z" style="fill-rule:nonzero;"/></g></svg>
