<svg xmlns="http://www.w3.org/2000/svg" fill="currentColor" style="fill-rule:evenodd;clip-rule:evenodd;stroke-linejoin:round;stroke-miterlimit:2" viewBox="0 0 64 64"><path id="Icons" d="M-640 0H640v800H-640z" style="fill:none"/><g id="Icons1"><path id="quote-1" d="M27.2 12v8.03q-3.8.2-5.77 1.38a6.4 6.4 0 0 0-2.75 3.83q-.79 2.66-.79 7.58h9.3v19.15H8.11v-18.2q0-11.28 4.84-16.52T27.19 12M56 12v8.03q-3.81.2-5.76 1.33a6.5 6.5 0 0 0-2.83 3.83q-.87 2.7-.87 7.63H56v19.15H36.81v-18.2q0-11.28 4.81-16.52T56 12" style="fill-rule:nonzero"/></g></svg>
