<svg xmlns="http://www.w3.org/2000/svg" fill="none" viewBox="0 0 24 24"><path stroke="currentColor" stroke-linecap="round" stroke-linejoin="round" stroke-miterlimit="10" stroke-width="1.5" d="M22 6v2.42C22 10 21 11 19.42 11H16V4.01C16 2.9 16.91 2 18.02 2A4 4 0 0 1 22 6"/><path stroke="currentColor" stroke-linecap="round" stroke-linejoin="round" stroke-miterlimit="10" stroke-width="1.5" d="M2 7v14a1 1 0 0 0 1.6.8l1.71-1.28a1 1 0 0 1 1.32.1l1.66 1.67a1 1 0 0 0 1.42 0l1.68-1.68a1 1 0 0 1 1.3-.09l1.71 1.28A1 1 0 0 0 16 21V4c0-1.1.9-2 2-2H6C3 2 2 3.79 2 6z"/><path stroke="currentColor" stroke-linecap="round" stroke-linejoin="round" stroke-width="1.5" d="m6.27 13.73 5.46-5.46"/></svg>
