<svg fill="currentColor" viewBox="0 0 64 64" xmlns="http://www.w3.org/2000/svg" style="fill-rule:evenodd;clip-rule:evenodd;stroke-linejoin:round;stroke-miterlimit:2;"><rect id="Icons" x="-896" y="-128" width="1280" height="800" style="fill:none;"/><g id="Icons1" serif:id="Icons"><g><path id="caret-down" d="M45.274,29.772c-1.094,-8.15 -8.075,-14.435 -16.525,-14.435c-9.203,0 -16.674,7.471 -16.674,16.674c0,9.203 7.471,16.675 16.674,16.675c4.423,0 8.664,-1.757 11.791,-4.884l2.862,2.863c-3.886,3.886 -9.157,6.069 -14.653,6.069c-11.437,0 -20.723,-9.285 -20.723,-20.723c0,-11.437 9.286,-20.723 20.723,-20.723c10.623,0 19.379,7.994 20.582,18.294l3.551,-3.551l3.118,3.117l-8.792,8.792l-8.796,-8.796l3.118,-3.117l3.744,3.745Z" style="fill-rule:nonzero;"/></g></g></svg>
