<svg xmlns="http://www.w3.org/2000/svg" fill="none" viewBox="0 0 24 24"><path stroke="currentColor" stroke-linecap="round" stroke-width="1.5" d="M14 14h-4"/><path stroke="currentColor" stroke-width="1.5" d="M2 6.95c0-.88 0-1.32.07-1.7a4 4 0 0 1 3.19-3.18C5.63 2 6.06 2 6.95 2c.39 0 .58 0 .77.02a4 4 0 0 1 2.18.9c.14.12.28.26.55.53L11 4a9 9 0 0 0 1.71 1.5 4 4 0 0 0 .85.35c.54.15 1.11.15 2.27.15h.37c2.63 0 3.95 0 4.8.77l.23.22c.77.86.77 2.18.77 4.8V14c0 3.77 0 5.66-1.17 6.83S17.77 22 14 22h-4c-3.77 0-5.66 0-6.83-1.17S2 17.77 2 14z"/></svg>
