<svg xmlns="http://www.w3.org/2000/svg" fill="currentColor" viewBox="0 0 64 64"><g id="remote_control"><path d="M50 53h-1.6c.3-.6.6-1.3.6-2 0-2.2-1.8-4-4-4h-.6c.3-.6.6-1.3.6-2 0-2.2-1.8-4-4-4h-5v-8.1c2.4-1.4 4-4 4-6.9 0-4.4-3.6-8-8-8s-8 3.6-8 8c0 3 1.6 5.5 4 6.9V41h-5c-2.2 0-4 1.8-4 4 0 .7.2 1.4.6 2H19c-2.2 0-4 1.8-4 4 0 .7.2 1.4.6 2H14c-1.7 0-3 1.3-3 3v4c0 .6.4 1 1 1h40c.6 0 1-.4 1-1v-4c0-1.7-1.3-3-3-3M26 26c0-3.3 2.7-6 6-6s6 2.7 6 6-2.7 6-6 6-6-2.7-6-6m4 7.7c.6.2 1.3.3 2 .3s1.4-.1 2-.3V41h-4zM21 45c0-1.1.9-2 2-2h18c1.1 0 2 .9 2 2s-.9 2-2 2H23a2 2 0 0 1-2-2m-4 6c0-1.1.9-2 2-2h26c1.1 0 2 .9 2 2s-.9 2-2 2H19a2 2 0 0 1-2-2m34 8H13v-3c0-.6.4-1 1-1h36c.6 0 1 .4 1 1z"/><path d="M32 13c-3.8 0-7.2 1.9-9.3 5-.3.5-.2 1.1.3 1.4s1.1.2 1.4-.3a9.1 9.1 0 0 1 15.2 0c.2.3.5.4.8.4.2 0 .4-.1.6-.2.5-.3.6-.9.3-1.4-2.1-3-5.5-4.9-9.3-4.9"/><path d="M43.8 15.8c.2.3.5.4.8.4.2 0 .4-.1.6-.2.4-.3.5-1 .2-1.4C42.2 10.4 37.3 8 32 8s-10.2 2.4-13.4 6.6c-.3.4-.3 1.1.2 1.4.4.3 1.1.3 1.4-.2C23 12.1 27.3 10 32 10s9 2.1 11.8 5.8"/><path d="M16 12.5C20 7.7 25.8 5 32 5s12 2.7 16 7.5c.2.2.5.4.8.4.2 0 .5-.1.6-.2.4-.4.5-1 .1-1.4C45.2 6 38.8 3 32 3s-13.2 3-17.5 8.2c-.4.4-.3 1.1.1 1.4.4.4 1.1.4 1.4-.1"/></g></svg>
