<svg xmlns="http://www.w3.org/2000/svg" viewBox="0 -48.89 324.864 324.864"><defs><style>.a{fill:#fff}.b{fill:#d9d9d9}.c{fill:#211715}</style></defs><path d="M38.3 122.85c0-34.67-.02-80.64-.04-109.98a10.4 10.4 0 0 1 10.4-10.4c44.77 0 174.51-.05 227.6-.07a10.4 10.4 0 0 1 10.4 10.4c0 39.36.01 103.29.03 144.02 8.22 11.55 25.86 35.87 34.48 50.6a9.5 9.5 0 0 1 1.3 4.83c0 1.5-.03 3.32-.03 5.2a7.2 7.2 0 0 1-7.21 7.2H8.53a6 6 0 0 1-6.02-6.01c0-9.28-.03 2.72-.03-6.38a9.6 9.6 0 0 1 1.3-4.85c8.72-14.89 26.43-39.97 34.54-51.35z" class="a"/><path d="M269.64 160.86a6.3 6.3 0 0 1 5.15 2.7 396 396 0 0 1 11.86 17.78 3.03 3.03 0 0 1-2.56 4.63H40.89a3.03 3.03 0 0 1-2.6-4.6 398 398 0 0 1 11.9-17.84 6.3 6.3 0 0 1 5.14-2.67z" class="b"/><path d="M269.64 163.26c1.78.06 2.77 1.07 3.74 2.45q1.94 2.79 3.86 5.6 1.9 2.79 3.74 5.6.92 1.41 1.82 2.83a18 18 0 0 1 1.86 2.95c.17.47-.03.82-.65.89H42.22a4 4 0 0 1-1.7-.12.6.6 0 0 1-.27-.52 8 8 0 0 1 1.13-1.97q3.67-5.78 7.56-11.43a34 34 0 0 1 3.68-5.17 4.5 4.5 0 0 1 3.43-1.1zc3.09 0 3.1-4.8 0-4.8H58.32c-2.83 0-5.63-.13-8.04 1.63-1.79 1.3-2.91 3.29-4.15 5.08q-1.96 2.84-3.9 5.7-2 3-3.96 6.05c-1.11 1.73-2.7 3.58-2.8 5.72-.18 3.42 2.63 5.7 5.86 5.73h242.62a5.7 5.7 0 0 0 3.28-1.02 5.5 5.5 0 0 0 2.26-4.73c-.12-2.2-1.78-4.13-2.93-5.92a399 399 0 0 0-7.45-11.13c-1.15-1.67-2.22-3.64-3.78-4.97a9 9 0 0 0-5.7-2.14c-3.08-.1-3.08 4.7 0 4.8Z" class="c"/><path d="M52.3 15.76c0 35.8.05 131.6.05 131.6l220.32-.08-.06-131.58z" class="a"/><path d="M285.04 209.46H49.58c-3.2 0-6.4-.06-9.59 0h-.4c-3.1 0-3.1 4.8 0 4.8h235.45c3.2 0 6.4.06 9.58 0h.41c3.1 0 3.1-4.8 0-4.8" class="c"/><path d="m40.7 122.85-.02-63.46-.01-30.59V15.36c0-1.98-.14-3.95.7-5.8a8 8 0 0 1 3.98-3.98c2.47-1.13 5.57-.7 8.23-.7h27.05l46.62-.02 52.33-.02 50.47-.01 41.16-.03c3.1 0 6.52-.48 9.26 1.2a8 8 0 0 1 3.38 4.27 18 18 0 0 1 .41 5.73v26.8l.01 61.2.01 29.8v20.13c0 .95-.07 1.94 0 2.89a5.6 5.6 0 0 0 1.43 2.75c10.35 14.51 20.9 28.94 30.35 44.06 1.03 1.65 2.1 3.3 3.04 5 1.38 2.5.96 5.44.94 8.2a5.1 5.1 0 0 1-2.4 4.77 6.4 6.4 0 0 1-3.44.65H11.4c-1.54 0-3.46.3-4.8-.56-2.38-1.5-1.53-4.45-1.7-6.81-.17-2.55-4.1-3.44-4.7-.64a16 16 0 0 0-.1 1.66h4.8a14 14 0 0 1 .48-6.32c1.12-2.82 3.2-5.5 4.81-8.05q5.61-8.84 11.54-17.5 5.83-8.59 11.8-17.07l5.05-7.13a12 12 0 0 0 2.06-3.13c.44-1.6.08-3.77.08-5.4v-28.44c0-3.1-4.8-3.1-4.8 0v33.2l.33-1.22c-11.3 15.87-22.67 31.8-32.8 48.45-1.57 2.58-3.08 5.03-3.33 8.12a25 25 0 0 0-.03 4.49 2.4 2.4 0 0 0 4.8 0c.04-.4.2-1.65-.07-.39l-4.72-.63c.25 3.44-.31 6.6 2.2 9.41 2.2 2.45 5.12 2.76 8.17 2.76H311.7c2.06 0 4.3.2 6.29-.4a9.8 9.8 0 0 0 5.44-4.18c1.44-2.32 1.41-4.83 1.43-7.47.03-3.14-.04-5.98-1.6-8.8-1.02-1.82-2.15-3.58-3.26-5.35a418 418 0 0 0-7.7-11.74 1158 1158 0 0 0-16.94-24.27l-6.6-9.23.34 1.2-.02-56.17-.02-60.24V14.2c0-4.44-1.21-8.53-4.82-11.38C280.95.2 277.3 0 273.3 0l-39.76.01-49.37.02-51.83.02L85.2.06 49.77.08c-4.1 0-7.95 1.15-10.73 4.34-3.11 3.59-3.19 7.7-3.18 12.2v28.3l.03 63.43v14.5c0 3.1 4.8 3.1 4.8 0" class="c"/><path d="M49.9 15.76v26.6l.02 33.5.01 33.17.01 26.17c0 3.98-.15 8 0 12v.16a2.44 2.44 0 0 0 2.4 2.4l32.79-.01 47.91-.02 53.46-.02 48.84-.01 34.56-.01h2.76a2.44 2.44 0 0 0 2.4-2.4l-.02-52.41-.03-54.16V15.7a2.43 2.43 0 0 0-2.4-2.4h-18.92l-20.78.01-25.77.01-28.85.01-30.01.01h-29.26l-26.6.02H52.3c-3.09 0-3.1 4.8 0 4.8h34.23l25.65-.01 28.78-.01 30-.01h29.32l26.7-.02h37.92c2.45 0 4.94.13 7.4 0h.3l-2.4-2.4.03 47.97.02 55.39.02 28.22 2.4-2.4H240.4l-47.65.02-53.44.02-49.07.02-35.05.01h-2.83l2.4 2.4v-9.75l-.01-24.78-.02-32.67-.01-33.85-.01-27.82v-2.73c0-3.08-4.8-3.09-4.8 0" class="c"/><path d="M229.57 190.42a29 29 0 0 1-7.94-6.9 100 100 0 0 1-9.73-14.62c-1.3-2.3-1.82-4.74-.13-6.77a6.8 6.8 0 0 1 6.37-2.3l2.04.62-11.53-29.88c-1.11-2.9-.85-7.08 3.17-8.63a6.36 6.36 0 0 1 8.56 3.9l9.05 23.53.2-1.01a6.24 6.24 0 0 1 5.76-5.02 4.8 4.8 0 0 1 5.23 3.63 5.3 5.3 0 0 1 4.74-4.94c2.83-.42 5.8.76 6.46 3.29.37-2.09 1.84-2.88 3.74-3.46 2.5-.76 6.06 1.93 6.95 4.25l5.21 13.56a60 60 0 0 1 1.83 6.2c2.23 12.61-4.68 17.62-7.84 20.32a40 40 0 0 1-15.6 6.55c-4.68.84-10.5 1.14-16.54-2.32" class="a"/><path d="M224.85 165.91q-5.47-14.23-10.98-28.45c-.98-2.55-2.04-5.08-2.95-7.66-.67-1.89-.82-4.18 1.16-5.34a4.05 4.05 0 0 1 5.8 1.67 59 59 0 0 1 2.59 6.59l6.72 17.48a2.47 2.47 0 0 0 2.95 1.68 2.4 2.4 0 0 0 1.68-2.96l-6.49-16.86c-1-2.62-1.89-5.36-3.08-7.9a8.7 8.7 0 0 0-8.3-5.11 8.6 8.6 0 0 0-7.95 6.05c-.82 3.05.22 5.78 1.3 8.59l7.12 18.45 5.8 15.05a2.47 2.47 0 0 0 2.95 1.67 2.4 2.4 0 0 0 1.68-2.95" class="c"/><path d="M231.95 149a4 4 0 0 1 2.97-3.19c1.49-.3 3.03.25 3.38 1.8.62 2.7 4.64 2.01 4.72-.64.08-2.83 5.63-3.83 6.49-1.01.66 2.14 4.11 2.42 4.63 0a2.4 2.4 0 0 1 3.18-1.65 5.8 5.8 0 0 1 3.34 3.64c1.83 4.76 3.92 9.5 5.43 14.36a25 25 0 0 1 1.34 10.8 15 15 0 0 1-1.48 4.75 17 17 0 0 1-1.17 1.92l-.28.38c-.26.35.34-.41-.12.15q-.35.43-.73.84a29 29 0 0 1-2.62 2.48 22 22 0 0 1-3.67 2.47 38 38 0 0 1-13.37 4.57 29 29 0 0 1-4.43.2 19 19 0 0 1-5.2-.92c-4.46-1.43-8.09-4.58-11.03-8.13a54 54 0 0 1-2.78-3.66 108 108 0 0 1-4.22-6.42c-.85-1.4-1.7-2.8-2.46-4.24-.52-.96-1.08-2.24-.6-3.32a3.8 3.8 0 0 1 2.01-1.73 8 8 0 0 1 1.17-.34l.67-.02c.57-.02.04-.04.38.05 2.99.78 4.26-3.84 1.27-4.63a9 9 0 0 0-7.15 1.54 7.5 7.5 0 0 0-3.02 8.16c.8 3.05 2.93 5.93 4.6 8.57a100 100 0 0 0 4.15 6.11c3.02 4.09 6.42 7.94 10.87 10.53a24.5 24.5 0 0 0 13.14 3.26c8.93-.3 18.38-3.95 24.8-10.23a20 20 0 0 0 5.66-9.83 27.4 27.4 0 0 0-.9-13.89c-.93-3.17-2.25-6.23-3.43-9.32l-1.76-4.56a18 18 0 0 0-1.9-4.26c-1.7-2.33-4.55-4.36-7.55-4.25a7.2 7.2 0 0 0-6.77 5.34h4.63c-1.13-3.67-4.94-5.46-8.6-5.07-3.9.42-7.2 3.3-7.32 7.36l4.71-.63c-.88-3.86-4.82-5.84-8.55-5.28a8.7 8.7 0 0 0-7.06 6.66c-.69 3 3.94 4.3 4.63 1.28" class="c"/><path d="M162.48 32.55a49.4 49.4 0 0 0-29.62 9.56 48.2 48.2 0 0 0-16.99 24.17c-5.9 18.97-.2 41.75 15.72 54.12 15.83 12.3 39.88 13.52 57.14 3.43 17.44-10.19 24.9-31.24 21.95-50.66a48.2 48.2 0 0 0-13.14-26.36 47.8 47.8 0 0 0-26.75-13.6 57 57 0 0 0-8.31-.66c-3.1-.01-3.1 4.79 0 4.8a45 45 0 0 1 26.9 8.66 42.7 42.7 0 0 1 15.07 21.49c5.3 17.02.63 37.55-13.39 48.94-6.75 5.5-15.52 8.46-24.22 9.1-9.25.7-18.72-.82-26.9-5.34a40.8 40.8 0 0 1-17.23-18.56 48.4 48.4 0 0 1-3.76-27.47 44 44 0 0 1 11.82-23.9 43.5 43.5 0 0 1 24.48-12.4 48 48 0 0 1 7.22-.52c3.1-.01 3.1-4.81 0-4.8" class="b"/><path d="M140.14 86.95c4.42 4.42 8.74 8.93 13.16 13.36a6.2 6.2 0 0 0 8.64 0q13.66-13.41 27.07-27.08a6.11 6.11 0 0 0-8.64-8.64q-13.38 13.69-27.07 27.08h8.64c-4.41-4.43-8.74-8.94-13.16-13.36a6.11 6.11 0 1 0-8.64 8.64" style="fill:#3d8dcc"/></svg>
