<svg xmlns="http://www.w3.org/2000/svg" viewBox="0 -28.12 346.752 346.752"><defs><style>.a{fill:#fff}.b{fill:#211715}.c{fill:#3d8dcc}.d{fill:#febe69}</style></defs><path d="M204.73 288.08a2853 2853 0 0 1 38.25-33.25h101.35a2669 2669 0 0 0-38.28 33.25z" class="a"/><path d="M206.43 289.77q19-16.77 38.25-33.24l-1.7.7h101.35l-1.7-4.1a2584 2584 0 0 0-38.28 33.24c-1.6 1.41-.3 4.1 1.7 4.1 3.09 0 3.1-4.8 0-4.8H204.73c-3.08 0-3.09 4.8 0 4.8h97.53c1.19 0 2.43.1 3.62 0h.17v-4.8l1.7 4.1a2584 2584 0 0 1 38.28-33.24c1.63-1.39.27-4.1-1.7-4.1H244.01a4 4 0 0 0-2.24.33 17 17 0 0 0-2.15 1.79q-18.45 15.73-36.58 31.83c-2.32 2.05 1.08 5.43 3.4 3.4" class="b"/><path d="M274.53 200.57c-9.7 0-19.34 5.18-23.8 13.82-5.52 10.7-2.73 21.96 2.8 31.92a177 177 0 0 0 17.9 25.87l1 1.23a2.72 2.72 0 0 0 4.2 0l1-1.23a177 177 0 0 0 17.89-25.87c5.53-9.96 8.32-21.22 2.8-31.92-4.45-8.64-14-13.82-23.79-13.82" class="c"/><path d="M274.53 198.17c-13.4.1-25.75 9.01-28.54 22.4-3.14 15.02 5.98 29.12 14.23 40.84q3.2 4.54 6.65 8.9 1.46 1.86 2.96 3.7a7.5 7.5 0 0 0 2.42 2.25 5.2 5.2 0 0 0 4.85-.14 9 9 0 0 0 2.2-2.2q3.4-4.15 6.6-8.44a148 148 0 0 0 12.34-19.14c3.37-6.38 5.79-13.55 5.46-20.84a28 28 0 0 0-9.56-20.14 30.7 30.7 0 0 0-19.6-7.18c-3.1-.02-3.1 4.78 0 4.8a26 26 0 0 1 14.98 4.8 23 23 0 0 1 8.93 14.07c1.26 6.07-.06 12.4-2.43 18.04-2.61 6.23-6.46 12.06-10.28 17.6q-2.85 4.14-5.91 8.1-1.5 1.94-3.02 3.83a25 25 0 0 1-1.84 2.26c-.43.41-.42.42-.84.03a18 18 0 0 1-1.58-1.93q-3.12-3.85-6.05-7.83a154 154 0 0 1-11.1-17.24c-3.04-5.56-5.3-11.74-5.26-18.14a23.4 23.4 0 0 1 7.87-17.54 25.5 25.5 0 0 1 16.53-6.05c3.08-.03 3.09-4.83 0-4.8" class="b"/><path d="M274.53 216.92a9.23 9.23 0 0 0-9.41 9.35c0 5.64 3.93 9.53 9.41 9.53 5.7 0 9.41-3.93 9.41-9.53a9.2 9.2 0 0 0-9.4-9.36" class="a"/><path d="M274.53 214.52a11.8 11.8 0 0 0-11.28 8.2 12.2 12.2 0 0 0 3.82 12.99 12.7 12.7 0 0 0 13.68.92c4.33-2.48 6.13-7.6 5.41-12.37a11.7 11.7 0 0 0-11.63-9.75c-3.09-.03-3.09 4.77 0 4.8a7 7 0 0 1 4.5 1.5c-.35-.26.25.24.25.24q.18.16.34.33.25.26.48.53c-.24-.29.07.1.12.18a6 6 0 0 1 1.03 2.12 8 8 0 0 1-.03 4.5l-.18.55c-.01.04-.31.72-.1.28a10 10 0 0 1-.54 1 5 5 0 0 1-1.37 1.5c.38-.32-.19.12-.23.15l-.38.23q-.3.18-.6.32c-.62.34.23-.07-.16.08a9 9 0 0 1-1.25.38l-.48.1q-.43.07-.1.02l-.5.05a12 12 0 0 1-1.31.01q-.37 0-.76-.06l-.1-.02q-.65-.14-1.28-.34l-.55-.2c.4.18-.29-.16-.36-.2a8 8 0 0 1-1.05-.67c.29.23-.42-.4-.53-.52a7 7 0 0 1-1.19-1.74c-.34-.62.1.38-.13-.3l-.15-.45a10 10 0 0 1-.34-1.43l-.01-.13-.05-.78v-.65c0-.09.08-.88.02-.47a6.7 6.7 0 0 1 2.23-4.35 4 4 0 0 1 .85-.65q.3-.2.63-.36c.03-.02.68-.31.33-.17a9 9 0 0 1 1.46-.44c-.03 0 .8-.13.4-.08a10 10 0 0 1 1.08-.05c3.1-.04 3.1-4.84.01-4.8" class="b"/><path d="M105.4 244.1a38 38 0 0 0-9.8-15.64c-7.07-6.3-16.31-9.86-26.32-11.23a59 59 0 0 0-7.14-.47 58 58 0 0 0-7.02.47c-10 1.37-19.2 4.78-26.28 11.09-5.02 4.47-9.27 13.22-10.71 19.78-1.93 8.74-2.6 11.73-3.06 26.63h94.04c-.25-13.02-.9-18.6-2.88-27.6q-.33-1.5-.83-3.03" class="d"/><path d="M54.5 208.54h15.28a2.4 2.4 0 0 0 0-4.8H54.49a2.4 2.4 0 1 0 0 4.8" class="b"/><path d="M59.73 207.13v7.05a2.4 2.4 0 0 0 4.8 0v-7.05a2.4 2.4 0 0 0-4.8 0" class="b"/><path d="M17.87 265.56a92 92 0 0 1 1.78-13.17 53 53 0 0 1 4.12-12.87 31 31 0 0 1 7.98-10.54 41 41 0 0 1 12.63-6.8 54.6 54.6 0 0 1 28.44-1.92c9.2 1.87 18.76 6.03 24.59 13.7 6.83 8.98 8.37 20.63 9 31.6.17 3.07 4.97 3.1 4.8 0-.6-10.71-2.03-22.08-7.82-31.35-5.67-9.08-15.06-14.76-25.23-17.6a60 60 0 0 0-31.7-.09 50 50 0 0 0-14.4 6.32 34 34 0 0 0-10.52 10.8c-5.82 9.5-7.76 20.96-8.47 31.92a2.4 2.4 0 0 0 4.8 0" class="b"/><path d="M39.65 264.14h44.97c3.09 0 3.1-4.8 0-4.8H39.65c-3.1 0-3.1 4.8 0 4.8" class="b"/><path d="m7.7 287.87-4.7-.02a.64.64 0 0 1-.64-.65 39 39 0 0 1 1.92-10.22 4.7 4.7 0 0 1 4.47-3.25h106.5a4.7 4.7 0 0 1 4.57 3.68l2.03 9.25a1 1 0 0 1-.11.97.7.7 0 0 1-.46.22c-11.92 0-91.84.06-113.58.01" class="d"/><path d="M7.7 285.46H3.42q-.61-.03.34.13l.86.86c.4.6.1.45.17-.06l.05-.7q.07-.74.18-1.47.32-2.06.86-4.1c.45-1.73.73-3.85 2.87-4q.52-.02 1.02 0h105.21a2.44 2.44 0 0 1 2.55 2.02c.58 2.38 1.05 4.79 1.57 7.18a9 9 0 0 1 .4 2.02l.32-1.2-.15.28.86-.87c.47-.34.92-.08.27-.1h-13.4l-23.84.01q-27.28.02-54.56.01zc-3.1 0-3.1 4.8 0 4.8q13.36.03 26.73.02l37.06-.01 33.86-.02h15.14c1.29 0 2.57-.2 3.32-1.42a4.6 4.6 0 0 0 .19-3.57l-1.48-6.72c-.57-2.6-1.39-5.05-3.95-6.39-1.77-.92-3.57-.83-5.47-.83H9.1a7.7 7.7 0 0 0-4.19 1.13c-2.07 1.34-2.86 3.43-3.48 5.71a45 45 0 0 0-1.31 6.78c-.24 2.03-.36 4.54 2.11 5.19 1.67.44 3.77.12 5.47.13 3.09.01 3.1-4.79 0-4.8" class="b"/><path d="M277.31 20.58a4562 4562 0 0 1-34.76 0H230.2a7297 7297 0 0 0 13.62 46.98h13.13c4.98 0 44.89-.17 56.85-.2a3.15 3.15 0 0 0 3.07-2.45c1.82-7.87 7.09-30.75 9.29-40.49a3.16 3.16 0 0 0-3.07-3.85c-8.74-.05-28.14-.01-45.79.01" class="d"/><path d="M242.55 22.97c9.67.15 19.35.04 29.02.02l41.44-.04h7.63c.74 0 2.23-.26 2.86.14.83.53-.04 2.45-.21 3.2q-2.57 11.3-5.18 22.6l-2.47 10.7q-.45 2-.92 3.98c-.3 1.3-.58 1.38-1.86 1.38l-17.41.06-36.8.14h-1.68c-3.1 0-3.1 4.8 0 4.8 11.53 0 23.07-.08 34.61-.12l19.39-.07a23 23 0 0 0 3.81-.11 5.7 5.7 0 0 0 4.53-4.63l2.12-9.15q2.78-12.06 5.53-24.12l1.12-4.91c.48-2.12.96-4.21-.35-6.17-2.01-3-5.63-2.51-8.77-2.52q-20.34-.03-40.7.03c-11.4.02-22.79.08-34.18 0l-1.53-.01c-3.09-.05-3.1 4.75 0 4.8" class="b"/><path d="M249.31 45.51q11.47-.01 22.95-.05l30.03-.09 8.16-.02c3.09 0 3.1-4.8 0-4.8l-20.17.06-30.8.08-10.17.02c-3.09 0-3.1 4.8 0 4.8" class="b"/><path d="M261.94 20.79c1.42 12.77 2.65 25.57 4.05 38.35q.42 3.95.9 7.89a2.5 2.5 0 0 0 2.4 2.4 2.4 2.4 0 0 0 2.4-2.4c-1.67-12.87-2.8-25.82-4.15-38.72l-.8-7.52a2.47 2.47 0 0 0-2.4-2.4 2.4 2.4 0 0 0-2.4 2.4m30.47 8.79q-1.23 15.35-2.4 30.7l-.51 7.1a2.4 2.4 0 1 0 4.8 0c.7-10.38 1.55-20.75 2.38-31.12l.53-6.68a2.4 2.4 0 0 0-2.4-2.4 2.45 2.45 0 0 0-2.4 2.4" class="b"/><path d="M210.1 4.9h9.44a18 18 0 0 1 3.23 0c1.14.24 1.4 3.08 1.69 4.1q1.93 6.93 3.91 13.86 5.22 18.25 10.55 36.47 2.25 7.7 4.53 15.4.8 2.75 1.63 5.5a13 13 0 0 0 1 2.86 5.8 5.8 0 0 0 5.07 2.8c10.19.16 20.4.03 30.6.05l29.12.05h1.26c3.1 0 3.1-4.8 0-4.8q-12.92 0-25.85-.04l-32.86-.05c-.76 0-1.52.04-2.27 0-.91-.05-.97-.55-1.2-1.33l-1.53-5.13q-2.23-7.53-4.43-15.07-5.33-18.25-10.58-36.53-2.05-7.18-4.07-14.37c-.43-1.58-.77-3.23-1.32-4.78C226.26-1 220.27.12 216.15.11L210.1.1c-3.09 0-3.1 4.8 0 4.8" class="b"/><path d="M258.85 93a7.4 7.4 0 0 1 7.55 7.51c0 4.69-2.92 7.65-7.55 7.65-4.74 0-7.55-2.96-7.55-7.65a7.4 7.4 0 0 1 7.55-7.5m44.85 0a7.4 7.4 0 0 1 7.56 7.51c0 4.69-2.92 7.65-7.56 7.65-4.74 0-7.55-2.96-7.55-7.65a7.4 7.4 0 0 1 7.56-7.5" class="a"/><path d="m258.85 95.4.66.03c.68.02-.44-.11.2.03a10 10 0 0 1 1 .25c.1.03.7.3.18.05a9 9 0 0 1 .86.47c.1.06.73.57.3.19q.37.3.7.66l.18.2c-.23-.28.14.2.15.21.19.29.31.65.52.91s-.16-.5.02.05l.23.74c.04.17.17 1.12.12.52q.05.51.04 1.02 0 .3-.03.62c0 .1-.12.75 0 .15a11 11 0 0 1-.26 1.11l-.18.52c.02-.07.22-.46.03-.08l-.51.91c-.07.11-.28.35.07-.07l-.34.39-.3.3c-.1.1-.62.46-.1.1q-.35.26-.72.47l-.47.23c.55-.27.02-.02-.1.02a8 8 0 0 1-.9.25c-.1.02-.73.12-.12.04q-.3.04-.6.05a11 11 0 0 1-1.25 0q-.21 0-.41-.03c-.66-.05.47.13-.15-.02q-.46-.1-.92-.23l-.52-.18c.59.2-.02-.02-.15-.1a8 8 0 0 1-.8-.5c.53.38-.16-.16-.27-.28l-.34-.38c.34.35.15.22.06.09a12 12 0 0 1-.6-1.05c.04.07.18.49.04.08l-.17-.52q-.13-.46-.22-.92c-.14-.63.02.5-.02-.15l-.04-.61a11 11 0 0 1 .03-1.23c-.04.53-.02.1.02-.05l.16-.66q.08-.29.18-.56c.2-.58-.23.4.06-.13l.65-1.06c.17-.3-.38.38.04-.04q.26-.28.53-.54l.29-.26c-.44.39.19-.12.3-.19q.2-.13.42-.24c.1-.06.76-.33.24-.13a8 8 0 0 1 1.16-.35c.09-.02.76-.1.2-.05l.87-.04a2.4 2.4 0 1 0 0-4.8 9.95 9.95 0 0 0-9.57 7.1c-1.09 3.79.02 8.38 3.2 10.83a11.1 11.1 0 0 0 11.52.8c3.49-1.85 5.18-6 4.74-9.82a9.94 9.94 0 0 0-9.89-8.91 2.4 2.4 0 1 0 0 4.8Zm44.85 0 .66.03c.68.02-.44-.11.21.03a10 10 0 0 1 1 .25c.09.03.69.3.17.05a10 10 0 0 1 .87.47c.1.06.72.57.3.19q.35.3.69.66l.18.2c-.24-.28.14.2.15.21.19.29.31.65.52.91s-.16-.5.02.05q.13.37.23.74c.05.17.17 1.12.13.52q.04.51.03 1.02 0 .3-.03.62c0 .1-.12.75 0 .15a10 10 0 0 1-.26 1.11q-.08.27-.18.52c.03-.07.23-.46.03-.08l-.51.91c-.07.11-.28.35.07-.07l-.33.39-.3.3c-.1.1-.62.46-.1.1a9 9 0 0 1-.73.47l-.47.23c.56-.27.03-.02-.1.02a8 8 0 0 1-.9.25c-.1.02-.73.12-.12.04q-.3.04-.6.05a11 11 0 0 1-1.25 0q-.21 0-.41-.03c-.66-.05.47.13-.15-.02q-.46-.1-.92-.23l-.52-.18c.59.2-.02-.02-.15-.1a8 8 0 0 1-.8-.5c.53.38-.16-.16-.28-.28l-.33-.38c.34.35.15.22.06.09a12 12 0 0 1-.6-1.05c.04.07.18.49.04.08l-.18-.52q-.12-.46-.21-.92c-.14-.63.02.5-.02-.15q-.04-.3-.04-.61a11 11 0 0 1 .03-1.23c-.04.53-.02.1.02-.05l.16-.66q.08-.29.18-.56c.2-.58-.23.4.06-.13l.65-1.06c.17-.3-.38.38.03-.04q.26-.28.54-.54l.29-.26c-.44.39.19-.12.3-.19l.42-.24c.1-.06.76-.33.23-.13a8 8 0 0 1 1.17-.35c.09-.02.76-.1.2-.05l.87-.04a2.4 2.4 0 1 0 0-4.8 9.95 9.95 0 0 0-9.57 7.1c-1.09 3.79.02 8.38 3.19 10.83a11.1 11.1 0 0 0 11.53.8c3.48-1.85 5.17-6 4.74-9.82a9.94 9.94 0 0 0-9.9-8.91 2.4 2.4 0 1 0 0 4.8Z" class="b"/><path d="M31.04 9.36H16.16a6.47 6.47 0 0 0-6.48 6.48l.03 65.92a6.47 6.47 0 0 0 6.48 6.47c23.85-.01 66.13-.04 89.63-.04a6.47 6.47 0 0 0 6.48-6.48l-.03-65.91a6.47 6.47 0 0 0-6.48-6.47H92.72" class="a"/><path d="m71.08 6.94-18.58.01c-3.09 0-3.1 4.8 0 4.8h18.58c3.09 0 3.1-4.8 0-4.8Z" class="b"/><path d="m36.01 29.64-4.95.01a3 3 0 0 0-2.12.88 3 3 0 0 0 0 4.24 3 3 0 0 0 2.12.88H36a3 3 0 0 0 2.12-.89 3 3 0 0 0 0-4.24 3 3 0 0 0-2.12-.88" class="c"/><path d="m54.52 29.64-4.95.01a3 3 0 0 0-2.12.88 3 3 0 0 0 0 4.24 3 3 0 0 0 2.12.88h4.95a3 3 0 0 0 2.12-.89 3 3 0 0 0 0-4.24 3 3 0 0 0-2.12-.88m18.51 0-4.95.01a3 3 0 0 0-2.12.88 3 3 0 0 0 0 4.24 3 3 0 0 0 2.12.88h4.96a3 3 0 0 0 2.12-.89 3 3 0 0 0 0-4.24 3 3 0 0 0-2.13-.88m18.52 0-4.96.01a3 3 0 0 0-2.12.88 3 3 0 0 0 0 4.24 3 3 0 0 0 2.12.88h4.96a3 3 0 0 0 2.12-.89 3 3 0 0 0 0-4.24 3 3 0 0 0-2.12-.88" class="b"/><path d="M36.01 47.46h-4.95a3 3 0 0 0-2.12.88 3 3 0 0 0 0 4.25 3 3 0 0 0 2.12.88l4.95-.01a3 3 0 0 0 2.12-.88 3 3 0 0 0 0-4.25 3 3 0 0 0-2.12-.87" class="c"/><path d="M54.52 47.46h-4.95a3 3 0 0 0-2.12.88 3 3 0 0 0 0 4.25 3 3 0 0 0 2.12.88l4.95-.01a3 3 0 0 0 2.12-.88 3 3 0 0 0 0-4.25 3 3 0 0 0-2.12-.87m18.51 0h-4.95a3 3 0 0 0-2.12.88 3 3 0 0 0 0 4.25 3 3 0 0 0 2.12.88l4.96-.01a3 3 0 0 0 2.12-.88 3 3 0 0 0 0-4.25 3 3 0 0 0-2.13-.87m18.52 0h-4.96a3 3 0 0 0-2.12.88 3 3 0 0 0 0 4.25 3 3 0 0 0 2.12.88l4.96-.01a3 3 0 0 0 2.12-.88 3 3 0 0 0 0-4.25 3 3 0 0 0-2.12-.87" class="b"/><path d="M36.01 65.27h-4.95a3 3 0 0 0-2.12.89 3 3 0 0 0 0 4.24 3 3 0 0 0 2.12.88l4.95-.01a3 3 0 0 0 2.12-.88 3 3 0 0 0 0-4.24 3 3 0 0 0-2.12-.88" class="c"/><path d="M54.52 65.27h-4.95a3 3 0 0 0-2.12.89 3 3 0 0 0 0 4.24 3 3 0 0 0 2.12.88l4.95-.01a3 3 0 0 0 2.12-.88 3 3 0 0 0 0-4.24 3 3 0 0 0-2.12-.88m18.51 0h-4.95a3 3 0 0 0-2.12.89 3 3 0 0 0 0 4.24 3 3 0 0 0 2.12.88l4.96-.01a3 3 0 0 0 2.12-.88 3 3 0 0 0 0-4.24 3 3 0 0 0-2.13-.88m18.52 0h-4.96a3 3 0 0 0-2.12.89 3 3 0 0 0 0 4.24 3 3 0 0 0 2.12.88l4.96-.01a3 3 0 0 0 2.12-.88 3 3 0 0 0 0-4.24 3 3 0 0 0-2.12-.88" class="b"/><path d="M31.04 6.96H17.58c-2.32 0-4.52.2-6.48 1.6a9 9 0 0 0-3.8 6.77c-.17 2.2-.01 4.48-.01 6.7v22.71l.02 29.23v5.54c0 2.2-.02 4.33 1 6.35a9 9 0 0 0 5.89 4.54 32 32 0 0 0 6.7.22l62.18-.02h21.05c2.48 0 4.81-.17 6.88-1.7a9 9 0 0 0 3.68-6.84c.15-2.68 0-5.41 0-8.1V56.48l-.02-34.36a62 62 0 0 0-.08-7.34 9 9 0 0 0-4.13-6.53 11 11 0 0 0-6.07-1.32H92.72c-3.09 0-3.1 4.8 0 4.8h11.2c1.53 0 3.1-.15 4.38.85 1.63 1.25 1.57 3.05 1.57 4.92l.02 31.3v16.98c0 5.3.14 10.63.01 15.94a4.1 4.1 0 0 1-2.72 3.85c-1.64.58-3.83.23-5.55.23H88.65l-59.62.02c-4.19 0-8.37.04-12.55 0a4.2 4.2 0 0 1-4.03-2.4c-.63-1.44-.33-3.34-.33-4.88L12.1 53l-.01-29.33v-6.36c0-1.8 0-3.5 1.56-4.7 1.38-1.07 3.1-.85 4.74-.85h12.65c3.1 0 3.1-4.8 0-4.8" class="b"/><path d="M80.52 4.23v9.56a2.4 2.4 0 1 0 4.8 0V4.23a2.4 2.4 0 1 0-4.8 0m-42.48 0v9.56a2.4 2.4 0 1 0 4.8 0V4.23a2.4 2.4 0 0 0-4.8 0" class="b"/><path d="M106 42.6c-18.98 0-32.1 14.7-32.1 31.9 0 19.26 13.4 32.52 32.1 32.52 19.43 0 32.11-13.39 32.11-32.51 0-17.33-13.2-31.91-32.11-31.91" class="a"/><path d="M106 40.2a35 35 0 0 0-20.94 6.78 34 34 0 0 0-12 17.06c-4.17 13.38-.13 29.46 11.1 38.2 11.1 8.65 27.9 9.58 40.1 2.62 12.52-7.14 17.87-22.11 15.8-35.96A33.9 33.9 0 0 0 112 40.69a41 41 0 0 0-6-.5c-3.09 0-3.1 4.8 0 4.8a30.5 30.5 0 0 1 18.24 5.9 29 29 0 0 1 10.1 14.53c3.54 11.51.37 25.33-9.08 33-9.24 7.5-24.04 8.22-34.42 2.52C80.03 95 74.85 82.26 76.58 70.2a28.9 28.9 0 0 1 24.34-24.82A32 32 0 0 1 106 45c3.09-.02 3.1-4.82 0-4.8" class="b"/><path d="M106.02 77.22h10.97a2.4 2.4 0 0 0 0-4.8h-10.97a2.4 2.4 0 0 0 0 4.8" class="b"/><path d="M103.62 58.2v16.6a2.4 2.4 0 0 0 4.8 0q-.02-8.3 0-16.6a2.4 2.4 0 0 0-4.8 0" class="b"/></svg>
