<svg xmlns="http://www.w3.org/2000/svg" viewBox="-4.57 0 359.906 359.906"><defs><style>.a{fill:#fff}.b{fill:#211715}.c{fill:#d9d9d9}</style></defs><path d="M191.65 213.87a61 61 0 0 0 4.9-6.8 21 21 0 0 0 3.45-7.93 14 14 0 0 0-5.33-12.79 14.8 14.8 0 0 0-15.83-1.58c-3.8 1.89-6.84 5-9.55 8.26a40 40 0 0 0-6.14 9.4 19.5 19.5 0 0 0-1.63 10.98 12.2 12.2 0 0 0 13.94 10.61 20 20 0 0 0 7.7-2.75 34 34 0 0 0 8.49-7.4" class="a"/><path d="M193.35 215.57a49 49 0 0 0 7.88-12.18 15.7 15.7 0 0 0-.08-12.44 17.24 17.24 0 0 0-21.78-9.01 28 28 0 0 0-10.44 7.83 46 46 0 0 0-7.68 11.05 22 22 0 0 0-1.86 14.14 15.2 15.2 0 0 0 7.09 9.73c9.7 5.38 20.6-1.78 26.87-9.12a2.46 2.46 0 0 0 0-3.4 2.4 2.4 0 0 0-3.4 0c-4.3 5.06-11.15 10.9-18.36 9.34a9.7 9.7 0 0 1-6.92-5.79 15 15 0 0 1-.01-10.55 31 31 0 0 1 5.63-9.6 35 35 0 0 1 7.64-7.5 13.2 13.2 0 0 1 9.6-2.32 12.5 12.5 0 0 1 8.1 5.03 11.3 11.3 0 0 1 1.4 10.23 27 27 0 0 1-2.93 5.44 57 57 0 0 1-4.15 5.72 2.47 2.47 0 0 0 0 3.4 2.4 2.4 0 0 0 3.4 0" class="b"/><path d="M191.65 140.9a61 61 0 0 0 4.9-6.79 21 21 0 0 0 3.45-7.94 14 14 0 0 0-5.33-12.78 14.8 14.8 0 0 0-15.83-1.58c-3.8 1.89-6.84 5-9.55 8.26a40 40 0 0 0-6.14 9.4 19.5 19.5 0 0 0-1.63 10.97 12.2 12.2 0 0 0 13.94 10.61 20 20 0 0 0 7.7-2.75 34 34 0 0 0 8.49-7.4m0 40a61 61 0 0 0 4.9-6.79 21 21 0 0 0 3.45-7.94 14 14 0 0 0-5.33-12.78 14.8 14.8 0 0 0-15.83-1.58c-3.8 1.89-6.84 5-9.55 8.26a40 40 0 0 0-6.14 9.4 19.5 19.5 0 0 0-1.63 10.98 12.2 12.2 0 0 0 13.94 10.6 20 20 0 0 0 7.7-2.74 34 34 0 0 0 8.49-7.4M170.39 65.47a61 61 0 0 0-4.9 6.8 21 21 0 0 0-3.45 7.93 14 14 0 0 0 5.33 12.79 14.8 14.8 0 0 0 15.83 1.58c3.8-1.9 11.5-9.03 14.2-12.28a77 77 0 0 0 7.23-11.03 18.7 18.7 0 0 0 1.53-11.49 12 12 0 0 0-5.89-8.6 13 13 0 0 0-7.95-1.5 20 20 0 0 0-7.7 2.75c-3.26 1.92-11.78 10.15-14.23 13.05M14.65 280.32c-7.32-15.1-3.33-33.6-4.1-50.82-1.11-24.89-2.9-47.56-7.45-85.11-.91-7.51-1.52-15.02 2-21.72s11.36-9.25 18.67-7.28c6.6 1.78 10.55 5.89 13.06 12.24L158.5 256.55a289 289 0 0 1-54.05 41.84Z" class="a"/><path d="M105.65 300.46a288 288 0 0 0 43.38-31.87q5.7-5.04 11.16-10.34c2.22-2.15-1.17-5.55-3.4-3.4a299 299 0 0 1-40.57 33.23q-6.38 4.3-13 8.24c-2.65 1.58-.23 5.73 2.43 4.14m-66.5-173.47c-2.37-5.9-6.18-10.63-12.19-13.06-5.81-2.35-12.85-2.19-18.2 1.3C2.55 119.3.24 126.76.03 133.88a77 77 0 0 0 .8 11.5q.73 6.01 1.42 12.03c1.53 13.4 2.9 26.8 3.97 40.24.9 11.51 1.82 23.1 2.02 34.66.26 14.57-2.47 29.87 2.23 44.02a45 45 0 0 0 2.12 5.2 2.4 2.4 0 0 0 3.28.86 2.45 2.45 0 0 0 .86-3.28c-6.03-12.62-4-27.42-3.71-40.92.24-11.4-.72-22.89-1.53-34.25a1026 1026 0 0 0-3.26-35.88q-1.19-11.1-2.54-22.2c-.83-6.92-1.99-14.6 1.1-21.17a13.45 13.45 0 0 1 14.93-7.31 16.6 16.6 0 0 1 7.84 3.57 19 19 0 0 1 4.97 7.32 2.5 2.5 0 0 0 2.95 1.68 2.4 2.4 0 0 0 1.68-2.96m154.2 15.61a49 49 0 0 0 7.88-12.18 15.7 15.7 0 0 0-.08-12.44 17.24 17.24 0 0 0-21.78-9.01 28 28 0 0 0-10.44 7.84 46 46 0 0 0-7.68 11.04A22 22 0 0 0 159.4 142a15.2 15.2 0 0 0 7.09 9.72c9.7 5.39 20.6-1.77 26.87-9.12a2.46 2.46 0 0 0 0-3.4 2.4 2.4 0 0 0-3.4 0c-4.3 5.06-11.15 10.9-18.36 9.34a9.7 9.7 0 0 1-6.92-5.79 15 15 0 0 1-.01-10.55 31 31 0 0 1 5.63-9.6 35 35 0 0 1 7.64-7.5 13.2 13.2 0 0 1 9.6-2.32 12.5 12.5 0 0 1 8.1 5.03 11.3 11.3 0 0 1 1.4 10.24 27 27 0 0 1-2.93 5.43 57 57 0 0 1-4.15 5.72 2.47 2.47 0 0 0 0 3.4 2.4 2.4 0 0 0 3.4 0" class="b"/><path d="M193.35 182.6a49 49 0 0 0 7.88-12.18 15.7 15.7 0 0 0-.08-12.44 17.24 17.24 0 0 0-21.78-9.01 28 28 0 0 0-10.44 7.84 46 46 0 0 0-7.68 11.04A22 22 0 0 0 159.4 182a15.2 15.2 0 0 0 7.09 9.72c9.7 5.39 20.6-1.77 26.87-9.12a2.46 2.46 0 0 0 0-3.4 2.4 2.4 0 0 0-3.4 0c-4.3 5.07-11.15 10.9-18.36 9.34a9.7 9.7 0 0 1-6.92-5.78 15 15 0 0 1-.01-10.55 31 31 0 0 1 5.64-9.61 35 35 0 0 1 7.63-7.5 13.2 13.2 0 0 1 9.6-2.32 12.5 12.5 0 0 1 8.1 5.04 11.3 11.3 0 0 1 1.41 10.23 27 27 0 0 1-2.94 5.44 57 57 0 0 1-4.14 5.72 2.47 2.47 0 0 0 0 3.39 2.4 2.4 0 0 0 3.39 0M168.69 63.76a67 67 0 0 0-5.5 7.65 23 23 0 0 0-3.46 8.15 16.3 16.3 0 0 0 5.1 14.42 17.6 17.6 0 0 0 15.86 4.05c4.42-1.1 7.98-4.12 11.33-7.06a60 60 0 0 0 8.81-9.21 78 78 0 0 0 4.43-6.76 23 23 0 0 0 3.14-7.32c1.01-5.18.45-10.93-2.92-15.17-3.61-4.54-9.53-6.06-15.08-4.96-5.08 1-9.01 4.02-12.77 7.37a93 93 0 0 0-8.94 8.84 2.46 2.46 0 0 0 0 3.4 2.4 2.4 0 0 0 3.4 0 85 85 0 0 1 6.69-6.78 107 107 0 0 1 4.06-3.65 20 20 0 0 1 2.92-2.21c3.9-2.38 9.1-3.7 13.3-1.29 3.67 2.1 5 5.98 4.99 10.02a15 15 0 0 1-1.24 6.28 55 55 0 0 1-3.57 6.08 49 49 0 0 1-7.1 8.72 59 59 0 0 1-8.64 7.27 12.5 12.5 0 0 1-11.68 1.2 11.9 11.9 0 0 1-7.5-10.77c0-2.72 1.2-5.17 2.57-7.45a58 58 0 0 1 5.2-7.42 2.47 2.47 0 0 0 0-3.4 2.4 2.4 0 0 0-3.4 0" class="b"/><rect width="151.139" height="267.253" x="32.777" y="2.406" class="c" rx="20.489"/><path d="m98.45 19.36 19.8-.01c3.08 0 3.09-4.8 0-4.8l-19.8.01c-3.1 0-3.1 4.8 0 4.8" class="b"/><path d="m179.65 29.68-146.43.01h-.44v211.4h.44l150.55-.02h.15V29.69z" class="a"/><path d="M163.43 267.26H53.48a18.3 18.3 0 0 1-18.3-18.1q-.02-2.02 0-4.05V22.98A18.05 18.05 0 0 1 53.26 4.81h109.98a18.3 18.3 0 0 1 11.41 3.89c4.78 3.81 6.86 9.36 6.86 15.32V249.1a18.3 18.3 0 0 1-18.1 18.16c-3.08.03-3.09 4.83 0 4.8a23.16 23.16 0 0 0 22.9-22.9V23.74a23.4 23.4 0 0 0-8.81-18.87A23 23 0 0 0 163.32.01H55.23L52.52 0a23 23 0 0 0-16.5 7.85c-4.03 4.7-5.64 10.36-5.64 16.43V245.6a51 51 0 0 0 .16 6.17 23.15 23.15 0 0 0 22.86 20.29h110.03c3.09 0 3.1-4.8 0-4.8" class="b"/><path d="M33.22 243.48H164.2c6.36 0 12.72.1 19.07 0h.49c3.09 0 3.1-4.8 0-4.8H52.62c-6.31 0-12.63-.1-18.94 0h-.46c-3.1 0-3.1 4.8 0 4.8m0-211.39H164.2c6.36 0 12.72.1 19.07 0h.49c3.09 0 3.1-4.8 0-4.8H52.62c-6.31 0-12.63-.1-18.94 0h-.46c-3.1 0-3.1 4.8 0 4.8" class="b"/><path d="M108.48 87.06a49.4 49.4 0 0 0-29.62 9.55 48.2 48.2 0 0 0-16.99 24.18c-5.9 18.97-.2 41.75 15.73 54.12 15.82 12.3 39.88 13.52 57.13 3.43 17.44-10.19 24.9-31.24 21.95-50.66a48.2 48.2 0 0 0-13.14-26.36 47.8 47.8 0 0 0-26.75-13.6 56 56 0 0 0-8.31-.66c-3.09-.02-3.1 4.78 0 4.8a45 45 0 0 1 26.9 8.66A42.7 42.7 0 0 1 150.45 122c5.3 17.02.63 37.55-13.39 48.94-6.75 5.5-15.52 8.46-24.22 9.1-9.25.7-18.72-.82-26.9-5.34a40.8 40.8 0 0 1-17.22-18.56 48.4 48.4 0 0 1-3.76-27.47 44 44 0 0 1 11.81-23.9 43.5 43.5 0 0 1 24.48-12.4 48 48 0 0 1 7.23-.51c3.09-.02 3.1-4.81 0-4.8" class="c"/><path d="M278.82 357.5c-17.06-1.47-38.3-5.98-53.3-16.04-6.28-4.22-20.4-19.85-36.05-35.05-4.78-4.64-7.36-10.05-5.5-16.45a11.2 11.2 0 0 1 7.7-7.59 38 38 0 0 1 8.8-1.49l.6-.05c-12.73-16.76-32.02-42.17-45.03-59.07-4.7-6.11-8.37-18.77.07-25.27 8.2-6.31 16.55-1.53 22.63 5.22 9.67 10.73 30.8 36.47 40.8 47.43-.54-6.14 2.7-12.08 10.37-14.8 6-2.11 12.53-.28 15.26 5.04-1.7-5.51 1.36-12.32 7.91-15.37s14.6-2.34 18.02 3.3c-.63-5.31 4.19-9.49 8.91-11.17 5.09-1.82 12.73-.22 18.31 6.44 10.86 12.94 19.65 26.58 27.28 38.36a654 654 0 0 1 22.77 37.53Z" class="a"/><path d="M86.14 141.46c4.42 4.42 8.75 8.93 13.16 13.35a6.2 6.2 0 0 0 8.64 0q13.66-13.4 27.07-27.07a6.11 6.11 0 0 0-8.64-8.64q-13.38 13.69-27.07 27.07h8.64c-4.41-4.42-8.74-8.93-13.16-13.35a6.11 6.11 0 0 0-8.64 8.64" style="fill:#3d8dcc"/><path d="M214.72 294.83q-9.33-12.18-18.58-24.41-13.79-18.16-27.62-36.29l-6.5-8.48a73 73 0 0 1-5.47-7.43c-2.91-5.03-4.65-12.11-1.34-17.3a11 11 0 0 1 9.36-4.98c3.94.14 7.5 2.62 10.28 5.22a91 91 0 0 1 6.22 6.81q3.22 3.7 6.4 7.45c9.24 10.85 18.31 21.85 27.76 32.51l2.6 2.9c2.09 2.3 5.47-1.11 3.4-3.4-9.6-10.52-18.63-21.58-27.85-32.44-4.17-4.92-8.34-9.85-12.65-14.65-5.98-6.65-14.93-12.13-23.75-7.3a15.7 15.7 0 0 0-7.57 9.07 20.7 20.7 0 0 0-.11 10.71 27 27 0 0 0 3.98 9.2c1.87 2.75 4.05 5.33 6.07 7.97q14.26 18.61 28.43 37.3l21.45 28.21 1.34 1.75a2.5 2.5 0 0 0 3.29.86 2.4 2.4 0 0 0 .86-3.28" class="b"/><path d="M278.82 355.1a149 149 0 0 1-27.77-4.99c-8.76-2.5-17.62-5.9-25.06-11.25a3 3 0 0 1-.4-.3l-.79-.64q-.87-.73-1.71-1.49-2.02-1.81-3.97-3.7c-3.31-3.2-6.54-6.5-9.77-9.77q-5.76-5.9-11.59-11.74-3.1-3.1-6.24-6.16a23 23 0 0 1-4.31-5.42c-2.07-3.86-2.1-9.26 1.1-12.55 3-3.08 7.93-3.47 12.16-3.81a2.46 2.46 0 0 0 2.4-2.4 2.4 2.4 0 0 0-2.4-2.4c-4.4.36-9.5.8-13.28 3.35a14.6 14.6 0 0 0-6.22 12.75c.2 5.17 2.93 9.66 6.5 13.24 4.34 4.34 8.73 8.62 13.03 12.98 6.6 6.7 13.03 13.73 20.17 19.88 6.94 5.99 15.76 9.76 24.39 12.61a149 149 0 0 0 33.76 6.61 2.4 2.4 0 0 0 2.4-2.4 2.45 2.45 0 0 0-2.4-2.4m-56.89-105.97c-.41-5.34 2.43-9.68 7.33-11.95 4.84-2.25 11.11-1.67 13.83 3.4 1.28 2.4 5.15.77 4.39-1.84-1.54-5.27 2.07-10.56 6.98-12.73 4.63-2.05 11.52-2.3 14.56 2.52 1.17 1.86 4.7 1.3 4.47-1.22-.34-3.6 2.2-6.28 5.17-7.94a11.3 11.3 0 0 1 8.24-1.25 17.6 17.6 0 0 1 9.44 5.83 180 180 0 0 1 9.14 11.6 461 461 0 0 1 15.72 23.02 923 923 0 0 1 14.67 23.23c3.58 5.9 7.09 11.84 10.42 17.88 1.5 2.7 5.65.28 4.15-2.42-7.74-14-16.28-27.53-24.99-40.94a446 446 0 0 0-16.94-24.69q-2.38-3.18-4.86-6.29a67 67 0 0 0-5.05-6 21.4 21.4 0 0 0-10.9-5.95 16.8 16.8 0 0 0-12.08 2.2c-4.05 2.48-7.4 6.73-6.93 11.72l4.47-1.21c-4.45-7.07-13.77-7.46-20.8-4.39-6.9 3.02-11.7 10.77-9.51 18.3l4.38-1.85c-3.84-7.2-12.7-8.46-19.67-5.45-6.6 2.84-10.99 9.13-10.43 16.42a2.46 2.46 0 0 0 2.4 2.4 2.4 2.4 0 0 0 2.4-2.4" class="b"/></svg>
