<svg xmlns="http://www.w3.org/2000/svg" viewBox="0 0 1024 1024"><path fill="currentColor" d="M682.67 554.67A42.67 42.67 0 0 0 640 512h-21.33c-23.56 0-21.34 19.11-21.34 42.67L576 917.33A42.67 42.67 0 0 0 618.67 960h42.66A42.67 42.67 0 0 0 704 917.33zM426.67 448h-85.34L320 917.33A42.67 42.67 0 0 0 362.67 960h42.66A42.67 42.67 0 0 0 448 917.33z"/><path fill="currentColor" d="M682.67 554.67h-85.34V64c42.67 0 192 85.33 85.34 490.67M448 64v277.33h-42.67V64h-42.66v277.33H320V64h-42.67L256 362.67 341.33 448h85.34L512 362.67 490.67 64z"/></svg>
