<svg viewBox="0 0 20 20" fill="none" xmlns="http://www.w3.org/2000/svg"><path fill-rule="evenodd" clip-rule="evenodd" d="M16.4297 15.251C16.6622 15.2042 16.9014 15.2931 17.0469 15.4805L17.9941 16.7002C18.2056 16.9728 18.1554 17.3655 17.8828 17.5772C17.6102 17.7886 17.2175 17.7394 17.0059 17.4668L16.7041 17.0781C15.8104 18.5298 14.0396 19.288 12.3086 18.8242C11.2531 18.5413 10.4113 17.8568 9.90527 16.9805C9.73269 16.6815 9.83486 16.2986 10.1338 16.126C10.4327 15.9534 10.8147 16.0565 10.9873 16.3555C11.3343 16.9564 11.9095 17.4235 12.6318 17.6172C14.0766 18.0043 15.562 17.1468 15.9492 15.7022C16.0106 15.4729 16.197 15.2979 16.4297 15.251ZM10.0557 1.04199C10.4661 1.04198 10.8149 1.04148 11.1045 1.06739C11.4118 1.09489 11.6982 1.15454 11.9766 1.29883C12.0866 1.35594 12.1926 1.42196 12.292 1.4961C12.5435 1.68369 12.722 1.91595 12.8809 2.18067C13.0305 2.43002 13.1823 2.74385 13.3613 3.11328L13.7715 3.95801H17.5C17.8451 3.95801 18.1248 4.23798 18.125 4.58301C18.125 4.92819 17.8452 5.20801 17.5 5.20801H16.8252L16.4561 9.63477C16.4274 9.97875 16.1252 10.2347 15.7812 10.2061C15.4374 10.1773 15.1823 9.87518 15.2109 9.53125L15.5703 5.20801H4.41406L4.87793 12.9102C4.94316 13.993 4.98963 14.7612 5.08301 15.3564C5.17483 15.9417 5.30338 16.298 5.49512 16.5742C5.71006 16.8837 5.98755 17.1446 6.30859 17.3408C6.65778 17.5543 7.11481 17.6647 7.9502 17.709C8.29461 17.7275 8.55915 18.0218 8.54102 18.3662C8.52274 18.7108 8.2284 18.9752 7.88379 18.957C6.99155 18.9097 6.27743 18.7869 5.65625 18.4072C5.18709 18.1204 4.78255 17.739 4.46875 17.2871C4.12574 16.7931 3.95502 16.2279 3.84863 15.5498C3.74493 14.8886 3.69468 14.0609 3.63184 13.0176L3.16113 5.20801H2.5C2.15482 5.20801 1.875 4.92819 1.875 4.58301C1.87518 4.23798 2.15493 3.95801 2.5 3.95801H6.30859L6.6582 3.19239C6.83281 2.8093 6.98046 2.48409 7.12793 2.22559C7.28445 1.95126 7.46318 1.70996 7.71777 1.51465C7.81811 1.43772 7.92451 1.36893 8.03613 1.30957C8.31933 1.15899 8.61236 1.09701 8.92676 1.06836C9.22317 1.04138 9.58088 1.04198 10.002 1.04199H10.0557ZM9.96289 12.9238C10.8567 11.4724 12.6266 10.7141 14.3574 11.1777C15.4382 11.4673 16.2952 12.1785 16.7969 13.085C16.9638 13.3869 16.8547 13.7675 16.5527 13.9346C16.2507 14.1016 15.8702 13.9914 15.7031 13.6895C15.359 13.0678 14.7737 12.5829 14.0342 12.3848C12.5894 11.9977 11.104 12.8551 10.7168 14.2998C10.6554 14.529 10.4699 14.704 10.2373 14.751C10.0046 14.7979 9.7646 14.7091 9.61914 14.5215L8.67285 13.2998C8.46137 13.027 8.51138 12.6343 8.78418 12.4229C9.05696 12.2116 9.44874 12.2615 9.66016 12.5342L9.96289 12.9238ZM10.0283 2.29199C9.57331 2.292 9.27301 2.29227 9.04004 2.31348C8.8191 2.33363 8.70659 2.36964 8.62305 2.41407C8.57241 2.44101 8.52403 2.47194 8.47852 2.50684C8.40342 2.56445 8.32389 2.65192 8.21387 2.84473C8.0979 3.04799 7.97301 3.3211 7.78418 3.73535L7.68262 3.95801H12.3818L12.248 3.68262C12.0544 3.28316 11.927 3.02 11.8096 2.82422C11.6981 2.63843 11.6183 2.55353 11.5439 2.49805C11.4989 2.46453 11.4512 2.43503 11.4014 2.40918C11.319 2.36647 11.2088 2.33181 10.9932 2.3125C10.7657 2.29216 10.4725 2.29199 10.0283 2.29199Z" fill="currentColor"/></svg>
