<svg xmlns="http://www.w3.org/2000/svg" fill="none" viewBox="0 0 24 24"><path fill="currentColor" fill-rule="evenodd" d="M15 14.25a3 3 0 1 0 0 6 3 3 0 0 0 0-6m-4.5 3a4.5 4.5 0 1 1 9 0 4.5 4.5 0 0 1-9 0m5.25-9h-7.5v-1.5h7.5zm0 3h-7.5v-1.5h7.5z" clip-rule="evenodd"/><path fill="currentColor" fill-rule="evenodd" d="M5.25 3h10.81l2.69 2.69V12h-1.5V6.31L15.44 4.5H6.75v15h3V21h-4.5z" clip-rule="evenodd"/><path fill="currentColor" fill-rule="evenodd" d="M9.75 14.25h-1.5v-1.5h1.5zm3.83 1.84 1.34-.68.54 1.09h1.04V18h-1.96z" clip-rule="evenodd"/></svg>
