<svg xmlns="http://www.w3.org/2000/svg" viewBox="0 -94.64 467.197 467.197"><defs><style>.a{fill:#fff}.b{fill:#c6c6c6}.c{fill:#211715}</style></defs><path d="M104.82 188.33a112 112 0 0 1-3.18-10.23c-1.3 3.49-2.39 6.36-2.39 6.36a103 103 0 0 1-6.67 16.15 24 24 0 0 1-4.44 6.21 15 15 0 0 1-5.09 3.34 18.2 18.2 0 0 1-15.16-1.13 21 21 0 0 1-9.95-11.12l15.29-29.7A193 193 0 0 0 77 145.64s.05-.86.12-2.05c-1.9-1.96-4.48-4.22-4.93-4.84-1.17-1.67-1.19-5.33-1.01-6.32a27.7 27.7 0 0 1 6.91-14.4c3.91-4 8.3-6.69 12.78-7.4 3.44-2.55 8.92-4.94 16.89-6.77a187 187 0 0 1 21.38-3.42l.12.11c9.98 9.98 21.99 11.01 33.53 7.9a19 19 0 0 0 8.3-5.26l.61-.64c6.09 1.29 19.4 4.18 23.59 5.41 7.16 2.13 11.42 3.62 14.59 6 4.02-1.04 10.44 1.04 14.35 5.04a24.3 24.3 0 0 1 6.6 13.43c.17 1 .15 4.65-1.02 6.31a35 35 0 0 1-5.11 6.1l-3.4 3.2 1.51 8.4a351 351 0 0 1 4.48 36.98 24 24 0 0 1 2.65 3.6 22.8 22.8 0 0 1 1.5 20.3c-1.48 3.8-5.6 8.4-9.44 10.06-5.11 2.2-13.02 2.53-18.47.14-4.62-2.03-10.42-6.75-11.26-12.25l-.25-1.66c-.02 5.7-.36 13.16-.88 17.57l.28 10.57a138 138 0 0 1 5.12 33.86h-92.12a138 138 0 0 1 5.11-33.86l1.07-9.51a4 4 0 0 1-.4-1.1c-1.62-7.9-.8-19.87.02-25.34l-.3-7.33a48 48 0 0 1-4.94-9.72zm9.9-150.51a33 33 0 0 1 .98-3.78l.02-.07a33 33 0 0 1 8.51-13.63c6.96-6.64 16.47-9.44 26.54-9.3 10.07-.15 19.59 2.66 26.54 9.3a33 33 0 0 1 8.52 13.63l.02.07a32 32 0 0 1 1.47 7.45 88 88 0 0 1 6.16.03 2.8 2.8 0 0 1 1.96.96c1.12 1.33 1.94 5.26 1.67 12.48a38 38 0 0 1-2.04 10.58 3.6 3.6 0 0 1-3.02 2.28c-.7.07-4.13.23-5.13.3l-.44.04A34.8 34.8 0 0 1 172.3 88.5c-6.63 4.35-13.66 5.14-21.53 5.14-7.5 0-14.9-.79-21.53-5.14a34.8 34.8 0 0 1-14.18-20.34l-.43-.03c-1-.08-4.43-.24-5.14-.31a3.6 3.6 0 0 1-3.02-2.28 38 38 0 0 1-2.04-10.58c-.27-7.22.55-11.15 1.68-12.48a2.8 2.8 0 0 1 1.96-.95c1.93-.08 3.64-.1 6.15-.04a32 32 0 0 1 .5-3.67" class="a"/><path d="M150.77 93.64c-6.03 0-12-.52-17.56-2.98l-.03 3.23-.1 10c9.15 6.83 19.6 7.28 29.7 4.57a17 17 0 0 0 5.68-2.93l-.14-14.85c-5.46 2.44-11.23 2.96-17.55 2.96" class="b"/><path d="M46.48 140.93q-.88-.6-1.78-1.18a43 43 0 0 0-9.54-4.88 5 5 0 0 0-4.4.51 19 19 0 0 0-4.18 3.65 56 56 0 0 0 6.87 6.15c-3.47.22-6.94-.02-9.85-1.8q-4.95-3.04-9.6-6.52a12 12 0 0 0-3.7-2.14 3.4 3.4 0 0 0-3.32.58c-1.02.7-2.73 2.07-3.64 2.75a2.8 2.8 0 0 0-.89 2.8 8 8 0 0 0 1.46 2.74 150 150 0 0 0 16.99 19.45c2.23 2.15 4.66 4.3 7.66 5.07a25 25 0 0 0 7.21.37c1.62-.1 3.48-.25 5.47-.42 7.77 14.15 10.86 19.84 18.38 30.3a14 14 0 0 0 4.61 4 13 13 0 0 0 4.64 1.52 15.6 15.6 0 0 0 11.17-2.47 12.7 12.7 0 0 0 5.44-9.9c.1-5.57-3.77-10.34-7.44-14.55-5.48-6.29-14.4-15.34-19.71-21.5-1.38-4.44-1.75-6.69-4.38-8.92a82 82 0 0 0-7.47-5.61m412.57-76.8C446.28 28.45 412.95 2.4 369.4 2.4c-54.7 0-93 41.1-95.21 90.22l-24.53 22.45c6.05-.05 17.62-.24 25.7-.62 7.22 47.63 44.32 79.2 94.04 79.2 57.67 0 95.32-39.73 95.32-96.52a98 98 0 0 0-5.67-33.01" class="a"/><path d="M393.9 65.8a4.5 4.5 0 0 1 3.24-.67 4 4 0 0 1 3.32 2.35c.95 2.16.42 5.84-.7 8.01a11.7 11.7 0 0 1-4.48 5.15 8.6 8.6 0 0 1-4.26.92l-.27.6a38 38 0 0 1-1.84 3.06 40 40 0 0 1-4.2 5.17l1.19 3.46a16 16 0 0 0 1.3 3.06c1.54 2.55 4.84 3.9 7.52 5.21q.7.35 1.5.68l-1.38 1.02a44 44 0 0 1-26 8.77 25 25 0 0 1-10.33-1.92 16.2 16.2 0 0 1-7.5-6.73 66 66 0 0 0 4.29-1.56 6.2 6.2 0 0 0 3.62-3.2 23 23 0 0 1-11.78-5.46c-4.87-4.09-6.94-10.48-7.63-17.52-.4-4.06-.72-8.47-1.25-12.88 0 0-5.18-20.28 21.48-22.15C392.18 38.9 393.9 65.8 393.9 65.8" class="a"/><path d="M382.4 91.03a56 56 0 0 0 2.33 6.36 11 11 0 0 0 4.12 4.36c3.17 2.08 6.85 3.4 10.35 4.83a2.4 2.4 0 0 0 2.95-1.68 2.47 2.47 0 0 0-1.68-2.95l-2.62-1.06-.43-.17-.41-.18q-.54-.23-1.07-.49a47 47 0 0 1-4.29-2.2q-.47-.3-.93-.62c-.21-.15.2.18-.12-.1q-.25-.2-.49-.44l-.38-.38c-.12-.13-.3-.36-.1-.09a7 7 0 0 1-.69-1.13 22 22 0 0 1-.9-2.41l-1-2.93a2.4 2.4 0 1 0-4.63 1.28Zm-36.08 17.04c2.48-.93 5.01-1.68 7.5-2.57a24 24 0 0 0 3.78-1.53 8.4 8.4 0 0 0 3.4-3.59 2.45 2.45 0 0 0-.86-3.28 2.43 2.43 0 0 0-3.29.86 7 7 0 0 1-.48.85c-.13.2-.13.14.01 0l-.34.36c-.18.2-.24.23-.36.34-.32.3.15-.07-.08.05l-.77.46c-.55.28.27-.09-.06.02q-.2.06-.37.14l-.75.3-1.64.59c-2.31.8-4.66 1.5-6.96 2.37a2.46 2.46 0 0 0-1.67 2.95 2.43 2.43 0 0 0 2.95 1.68Z" class="c"/><path d="M366.02 22.54q1.54-.18 3.15-.26a30.8 30.8 0 0 1 20.43 5.97l4.45 3.16.85.78c4.28 3.96 6.38 8.47 7.75 13.99a28 28 0 0 1 .77 8.49c-.2 3.01-.43 10.05-2.61 13.94a5 5 0 0 0-.35-1.13 4 4 0 0 0-3.32-2.35 4.5 4.5 0 0 0-3.23.67 9 9 0 0 1-3.75.27.7.7 0 0 1-.43-.22 6 6 0 0 1-.6-.9c-.59-1.01-1.1-2.08-1.7-3.1a34 34 0 0 0-7.55-9.2l-33.67.01c-3.56 3.27-7.37 9.17-7.76 11.57l-.17.96a52 52 0 0 1-.27-17.21 34 34 0 0 1 4.76-12.06 24 24 0 0 1 1.76-2.38c5.1-6 12.43-9.89 21.5-11" style="fill:#85807f"/><path d="M393.2 33.89a26.2 26.2 0 0 1 7.84 17.69 54 54 0 0 1-.42 8.3 20 20 0 0 1-2 7.7c-1.53 2.7 2.62 5.12 4.15 2.43 1.66-2.92 2.21-6.31 2.6-9.6a52 52 0 0 0 .45-9.3c-.5-7.66-3.58-15.32-9.22-20.61-2.25-2.11-5.66 1.27-3.4 3.4Zm-37 54.25a11 11 0 0 0 5.1 1.13 11 11 0 0 0 2.58-.34 19 19 0 0 0 2.72-1.17 2.4 2.4 0 0 0 1.1-1.44 2.5 2.5 0 0 0-.24-1.85 2.4 2.4 0 0 0-1.43-1.1 2.8 2.8 0 0 0-1.85.25c-.51.22-1 .5-1.52.71l.58-.24a6 6 0 0 1-1.51.4l.63-.1a10 10 0 0 1-2.51 0l.64.09a8 8 0 0 1-1.99-.5l.58.24-.46-.22a2.4 2.4 0 0 0-2.42 4.15Zm10.34-17.46c-.37-1.44.06-4.7 2.77-4.84 3.55.18 3.55 4.14 2.27 5.94-1.05 1.47-3.96 1.97-5.04-1.1m-21.14-.33c-.34-1.44.07-4.7 2.54-4.86 3.26.18 3.26 4.15 2.08 5.96-.97 1.48-3.63 1.98-4.62-1.1m10.07 2.97q-.71 1.14-1.32 2.34a9 9 0 0 0-.37.84 3 3 0 0 0-.17.96 3 3 0 0 0 .9 2.2 4 4 0 0 0 1.6.96 7 7 0 0 0 1.17.16l-.64-.08h.07a2 2 0 0 0 .96.05 2 2 0 0 0 .89-.28 2.4 2.4 0 0 0 .86-3.29 2.3 2.3 0 0 0-1.44-1.1q-.48-.07-.97-.12l.64.08a2 2 0 0 1-.4-.1l.58.24-.29-.18.49.38-.24-.23.37.49-.05-.1.24.58-.03-.14.08.64v-.16l-.08.64.1-.32-.25.57a21 21 0 0 1 1.44-2.61 2.4 2.4 0 0 0-.86-3.28 2.4 2.4 0 0 0-1.85-.25 2.6 2.6 0 0 0-1.43 1.1Zm28 21.48a40 40 0 0 0 6.2-6.56 32 32 0 0 0 3.16-4.87 2.4 2.4 0 0 0-4.15-2.42 31 31 0 0 1-3.05 4.72c-.18.24-.13.27 0 .01a3 3 0 0 1-.34.43l-.63.77q-.66.77-1.35 1.51a36 36 0 0 1-3.24 3.02 2.4 2.4 0 0 0 0 3.39 2.47 2.47 0 0 0 3.4 0m7.34-68.62a34 34 0 0 0-17.13-6.26 41 41 0 0 0-16.73 2.31 34 34 0 0 0-13.18 8.56 33 33 0 0 0-7.88 15.58 50 50 0 0 0 .17 19.9 2.4 2.4 0 1 0 4.63-1.28c-1.97-9.84-1.22-21.77 5.54-29.76 6.27-7.4 15.85-10.72 25.38-10.6a29.6 29.6 0 0 1 16.78 5.7 2.4 2.4 0 0 0 3.28-.86 2.45 2.45 0 0 0-.86-3.29" class="c"/><path d="M374.7 94.07c-6.55 2.9-14.36 4.32-21.07 1.05a19.4 19.4 0 0 1-7.96-6.68 26 26 0 0 1-3.48-10.07c-.79-4.97-.93-10.05-1.52-15.05a2.5 2.5 0 0 0-2.4-2.4 2.4 2.4 0 0 0-2.4 2.4c.6 5.03.84 10.11 1.52 15.13a31 31 0 0 0 3.85 11.95c4.37 7.25 12.92 11.48 21.28 11.4a37 37 0 0 0 14.61-3.58 2.4 2.4 0 0 0 .86-3.29 2.46 2.46 0 0 0-3.28-.86m20.42-26.2a2 2 0 0 1 1.1-.4h.47q-.42-.07.08.02l.72.2c-.43-.14.28.17.37.22q.34.24-.05-.04l.24.22c.31.27-.23-.44.07.1q.07.16.18.3.14.3-.08-.2l.13.38a6 6 0 0 1 .18.82c-.09-.55.01.37.02.47v.7q-.02.47-.08.95c.06-.46-.08.45-.1.53a12 12 0 0 1-.46 1.66l-.12.3q.16-.36 0 0l-.33.65a16 16 0 0 1-1.16 1.87c.27-.38-.28.33-.34.4q-.32.35-.68.67l-.4.36a7 7 0 0 1-.8.52c-.15.08-.7.3-.07.06a11 11 0 0 1-1.4.42c-.1.03-.85.13-.34.08a8 8 0 0 1-.92.05l-.46-.02q.38.06-.05-.02c-.1-.02-.9-.32-.5-.13a2.47 2.47 0 0 0-3.28.87 2.4 2.4 0 0 0 .86 3.28 9.4 9.4 0 0 0 7.51.04 12.3 12.3 0 0 0 5.65-5.12c2.25-3.7 3.66-9.66.47-13.26a7.16 7.16 0 0 0-8.85-1.09 2.45 2.45 0 0 0-.86 3.29 2.43 2.43 0 0 0 3.28.86Z" class="c"/><path d="m389.76 58.06 13.05-3.44a27 27 0 0 1 .4 6.82 19 19 0 0 1-1.24 6.55l-11.71 3.1" class="a"/><path d="m390.4 60.37 13.05-3.44-2.95-1.67.08.42.09.52-.03-.23.05.49a34 34 0 0 1 .12 4.82q-.02.7-.08 1.37l-.07.7-.03.25a21 21 0 0 1-.78 3.28l-.12.3c-.06.25.3-.69.17-.4l1.44-1.1-11.72 3.1a2.4 2.4 0 0 0 1.28 4.62l9.82-2.59c.96-.25 2.22-.38 2.95-1.12a3 3 0 0 0 .68-1.2 13 13 0 0 0 .53-1.66 30 30 0 0 0 .75-8.38 23 23 0 0 0-.5-4.47 2.43 2.43 0 0 0-2.95-1.67l-13.06 3.44a2.4 2.4 0 1 0 1.28 4.62" class="c"/><path d="M383.43 52.65c-13.53-.01-35.54.01-42.86.02a15 15 0 0 0-4.95.85q-1.26.45-2.5.93a6.8 6.8 0 0 0-4.3 6.44c.05 3.69.13 7.13.14 12.22a6.8 6.8 0 0 0 6.8 6.78h41.34a25 25 0 0 0 8.83-1.64l.1-.03a6.8 6.8 0 0 0 4.35-6.41c-.04-3.96-.1-8.7-.16-12.46a6.8 6.8 0 0 0-6.79-6.7" class="a"/><path d="M383.43 50.25q-16.45-.02-32.9 0h-6.48a41 41 0 0 0-6.4.27 23 23 0 0 0-4.75 1.45 10 10 0 0 0-4.12 2.65c-2.16 2.5-2.38 5.23-2.33 8.4q.09 4.56.1 9.12c.02 3.02.8 5.87 3.19 7.9 2.53 2.14 5.4 2.24 8.57 2.24h29.07c5.33 0 10.96.49 16.17-.78 3.35-.81 6.62-2.22 8.23-5.48 1.6-3.23.96-7.25.92-10.74-.04-3.4.45-7.26-1.26-10.34a9.3 9.3 0 0 0-8-4.7c-3.1-.07-3.09 4.73 0 4.8a4.4 4.4 0 0 1 4.14 2.95 11 11 0 0 1 .27 3.38l.06 4.8.05 4.38a7 7 0 0 1-.48 3.35c-1.12 2.13-3.7 2.66-5.87 3.12a33 33 0 0 1-7.03.46h-37.14a9 9 0 0 1-3.4-.33 4.6 4.6 0 0 1-2.69-4.53q-.02-4.28-.09-8.54c-.03-2.08-.47-4.49 1.02-6.2a6 6 0 0 1 2.72-1.6 16 16 0 0 1 4.65-1.19c3.5-.21 7.06-.03 10.56-.03q16.61-.02 33.22-.01c3.09 0 3.1-4.8 0-4.8" class="c"/><path d="M376.5 62.5c.04 3.12 0 6.25 0 9.37a2.4 2.4 0 0 0 4.8 0c0-3.12.04-6.25 0-9.38a2.4 2.4 0 1 0-4.8 0m-34.26.5h17.2c4.04 0 8.1-.13 12.13.02 3.1.12 3.09-4.68 0-4.8-4.03-.15-8.1-.03-12.13-.03l-17.2.01c-3.09 0-3.1 4.8 0 4.8" class="c"/><path d="M323.04 121.41a39 39 0 0 1 6.42-8.43c4.21-4.22 12.41-7.3 18.43-9.07.57-.17 1.9-.51 2.73-.72a16 16 0 0 0 7.9 7.48 25 25 0 0 0 10.33 1.92 44 44 0 0 0 26-8.77l1.43-1.13.62-.49c7.43 2.65 14 5.84 18.63 9.72 1.98 1.65 4.48 4.27 7.41 10 3.83 7.48 7.19 19.37 9.44 26.9" class="a"/><path d="M396.44 181.04c-5.95-3.65-10.58-6.11-15.92-10.86l-7.43-4.73c-2.1-3.31-3.6-9.18-.1-11.1.68-.33 1.55-.47 1.93-1.13a4 4 0 0 0 .28-1.26 4 4 0 0 1 3.29-3.28c-.36.06-.4-2.89-.37-3.17a7.5 7.5 0 0 1 2.19-4.57c.33-.32 1.26-.72 1.45-1.09-.02-1.14.18-3.04.15-3.54a5 5 0 0 1 .7-2.58 3.2 3.2 0 0 1 2.98-1.55 2.6 2.6 0 0 1 2.43 1.38c1.42 2.83 2.67 8.08 3.93 10.74l7.4 3.71c2.81-1.08 4.61.27 5.28 1.36a6 6 0 0 1 .71 2.82 66 66 0 0 1-.13 7.69 3 3 0 0 0 .05 1.06 2 2 0 0 0 .56.73c3.99 3.2 6.95 5.47 11.78 6.93" class="a"/><path d="M461.36 63.49a95.6 95.6 0 0 0-29.5-41.96A97.5 97.5 0 0 0 382.21.8a103.4 103.4 0 0 0-53.96 7.71 94.4 94.4 0 0 0-38.51 31.43 98 98 0 0 0-17.48 46.41q-.35 3.14-.49 6.29l.7-1.7-24.52 22.46a2.42 2.42 0 0 0 1.7 4.1c8.57-.08 17.14-.23 25.7-.63l-2.3-1.76c3.18 20.82 12.6 40.63 27.98 55.2s35.45 22.89 56.37 25.12c21.06 2.25 43.22-1.13 61.96-11.22a88.4 88.4 0 0 0 38.47-41.56 109.7 109.7 0 0 0 6.6-68.71 98 98 0 0 0-3.08-10.44 2.46 2.46 0 0 0-2.95-1.68 2.4 2.4 0 0 0-1.68 2.96c7.88 22.16 7.37 47.38-.63 69.46a84.6 84.6 0 0 1-33.22 42.32c-16.97 10.96-37.36 15.32-57.42 14.64-20.13-.69-40.24-7.1-56-19.88-15.53-12.6-25.87-30.29-30.3-49.7q-.89-3.86-1.48-7.78a2.4 2.4 0 0 0-2.32-1.77c-8.56.4-17.13.55-25.7.63l1.7 4.1 15-13.75 7.69-7.04c.6-.55 1.28-1.07 1.83-1.68a3.2 3.2 0 0 0 .72-2.2q.1-1.74.24-3.48a95 95 0 0 1 5.9-25.6 90.3 90.3 0 0 1 30.53-40.34 93.6 93.6 0 0 1 50.8-17.76c19.37-.96 38.87 3.44 55.44 13.67a90.3 90.3 0 0 1 34.85 40.19 89 89 0 0 1 2.37 5.96 2.46 2.46 0 0 0 2.95 1.68 2.4 2.4 0 0 0 1.68-2.95" class="c"/><path d="M317.92 157.6c-2.3.52-5.83 1.08-8.15 1.43a30 30 0 0 1-5.85.44 28 28 0 0 1-8.64-2.51 8 8 0 0 1-3.77-2.47c-.9-1.28-1.01-3.05-2.13-4.15-.94-.92-2.34-1.12-3.54-1.64a5.7 5.7 0 0 1-3.4-5.25c-.07-2.53.46-5.08 1.8-6.18 1.56-1.28 4.04-1.53 6.48-1.26s5.37.8 7.81 1.08a19.8 19.8 0 0 0 12.05-2.44q-1.32-1.23-2.63-2.48c-1.63-1.56-3.37-3.8-2.41-5.83a3.8 3.8 0 0 1 3.92-1.79 11 11 0 0 1 4.2 1.84l8 4.93a15 15 0 0 1 2.92 2.15 12.6 12.6 0 0 1 2.7 5.35 88 88 0 0 1 2.5 14.33" class="a"/><path d="m303.96 136.98-.3.04a47 47 0 0 1 2.15 4.94 104 104 0 0 1 5.16 16.88c2.22-.34 5.02-.8 6.95-1.23a108 108 0 0 0-7.91-22.64 20 20 0 0 1-6.05 2m65.56 32.7q12.24-12.65 23.59-26.14a5.4 5.4 0 0 1 2.3-1.88c2.19-.69 4.3 1.82 4.15 4.1s-1.7 4.2-3.2 5.93l-3.8 4.45-8.72 10.16c-1.6 1.87-3.27 3.79-5.49 4.86s-5.15 1.06-6.88-.7" class="b"/><path d="M350.69 100.7a71 71 0 0 0-16.85 6.22 33.5 33.5 0 0 0-12.87 13.28c-1.53 2.69 2.62 5.11 4.14 2.42a29 29 0 0 1 11.49-11.74 67 67 0 0 1 15.36-5.55c3-.76 1.73-5.39-1.27-4.63" class="c"/><path d="M348.52 104.34c7.43 14.82 28.64 11.77 40.84 5.66a50 50 0 0 0 8.62-5.61 2.4 2.4 0 0 0 0-3.4 2.46 2.46 0 0 0-3.4 0 45 45 0 0 1-8.8 5.43 41 41 0 0 1-11.86 3.45c-7.92 1.04-17.3-.05-21.26-7.95-1.38-2.76-5.53-.34-4.14 2.42" class="c"/><path d="M392.66 103.3a91 91 0 0 1 13.36 5.35 37 37 0 0 1 9.1 6.12c5.67 5.55 8.39 13.86 10.82 21.22 1.47 4.46 2.78 8.96 4.13 13.46.88 2.95 5.51 1.7 4.62-1.28-2.56-8.57-4.96-17.27-8.7-25.42a40 40 0 0 0-6.8-10.66 37 37 0 0 0-9.32-6.83 94 94 0 0 0-15.95-6.6c-2.94-.95-4.2 3.68-1.27 4.63Zm-60.48 49.85a110 110 0 0 0-1.99-12.7c-.94-3.93-2.24-7.64-5.63-10.1-1.67-1.21-3.51-2.23-5.27-3.31-1.83-1.13-3.64-2.32-5.5-3.38-3.18-1.8-7.93-2.5-10.16 1.18-2.82 4.64 2.48 8.92 5.48 11.71 2.26 2.1 5.66-1.28 3.39-3.4-1.46-1.36-3.27-2.7-4.35-4.4-.48-.78-.8-1.59.32-1.82 1.64-.35 3.54 1.25 4.82 2.04l5.69 3.5c1.46.9 3.21 1.74 4.3 3.13a14 14 0 0 1 2 4.98 91 91 0 0 1 2.1 12.56 2.5 2.5 0 0 0 2.4 2.4 2.4 2.4 0 0 0 2.4-2.4Z" class="c"/><path d="M308.8 132.9a17.6 17.6 0 0 1-8.08 1.93 70 70 0 0 1-8.75-1.06c-2.75-.36-5.67-.45-8.2.93-2.47 1.36-3.37 4.02-3.65 6.67a9.6 9.6 0 0 0 2.05 7.6 8 8 0 0 0 3.2 2.1c.87.35 2.04.48 2.57 1.33.58.91.75 2.06 1.3 3a8 8 0 0 0 3.24 2.92 36 36 0 0 0 8.13 3.05 25 25 0 0 0 9.43.02c2.85-.41 5.7-.86 8.5-1.47 3.02-.66 1.74-5.3-1.28-4.63-2.24.49-4.5.86-6.77 1.2a32 32 0 0 1-6.4.59 23 23 0 0 1-7.35-2.1 12 12 0 0 1-2.73-1.32 5 5 0 0 1-1.31-2.3 7 7 0 0 0-1.9-2.95 10 10 0 0 0-3.32-1.66 3.6 3.6 0 0 1-2.65-3.72c-.01-1.64.08-3.76 1.81-4.38 2.15-.79 4.7-.18 6.89.14a39 39 0 0 0 8.93.76 23 23 0 0 0 8.75-2.51c2.75-1.41.32-5.55-2.43-4.15Z" class="c"/><path d="M305.5 161.1a5.7 5.7 0 0 0 2.67 4.14c1.9.98 4.49.38 6.45-.09 1.92-.45 3.8-1.01 5.7-1.53 1.92-.52 4.25-.8 5.74-2.23a2.4 2.4 0 1 0-3.4-3.39l-.1.06q.27-.13-.14.02-.6.14-1.18.32l-2.19.6-4.5 1.23a27 27 0 0 1-4.07.7q-.45-.02-.12.04.3.2-.04 0l.18.11q.24.36 0 0-.18-.36-.02 0l-.14-.4q-.13-.43-.21-.85a2.4 2.4 0 0 0-4.63 1.28Z" class="c"/><path d="M307.93 136.18a98 98 0 0 1 7.67 22.07c.67 3 5.3 1.73 4.63-1.28a104 104 0 0 0-8.15-23.21 2.4 2.4 0 0 0-3.29-.86 2.45 2.45 0 0 0-.86 3.28m-6.64 1.5a60 60 0 0 1 3.96 9.7 96 96 0 0 1 3.14 10.86 2.4 2.4 0 1 0 4.63-1.28 98 98 0 0 0-3.27-11.2 66 66 0 0 0-4.32-10.5c-1.52-2.69-5.67-.27-4.14 2.42m116.96 28.6a25 25 0 0 1-7.04-3.5 60 60 0 0 1-3.14-2.37 6 6 0 0 1-.77-.66q.36.92.32.13a65 65 0 0 0 .15-3c.1-2.87.47-6.54-1.26-9a6.6 6.6 0 0 0-7.79-2.18 2.46 2.46 0 0 0-1.68 2.95 2.4 2.4 0 0 0 2.96 1.68 4 4 0 0 1 1.6-.31c-.26-.04.68.23.38.1-.24-.1.67.45.2.09l.44.42c-.32-.33 0 0 .1.23a4 4 0 0 1 .22 1.33q.12 2.25.04 4.5c-.05 1.52-.5 3.4-.03 4.88.47 1.5 1.88 2.36 3.06 3.28q1.71 1.36 3.54 2.59a29 29 0 0 0 7.42 3.46c2.96.91 4.22-3.72 1.28-4.63Zm-43.1-2.04a13 13 0 0 1-1.67-4.09 7 7 0 0 1-.18-1.84 3 3 0 0 1 .32-1.34 2 2 0 0 1 .93-.68 4.8 4.8 0 0 0 2.45-1.86c.83-1.43.15-3.04 2.13-3.43 2.46-.49 2.1-3.96 0-4.63l-.05-.02 1.43 1.1c.45.6.04.38.07.06-.05.51 0-.16-.01-.29a13 13 0 0 1-.05-1.37 5 5 0 0 1 1.21-2.94c.55-.65-.1.02.45-.35a9 9 0 0 0 .97-.7 3 3 0 0 0 1.02-2.31c.05-1.19-.02-2.47.15-3.64.1-.67.76-1.85 1.62-1.26a4 4 0 0 1 .29.67q.4.97.74 1.97c.95 2.75 1.7 5.58 2.92 8.22a2.4 2.4 0 0 0 3.28.86 2.46 2.46 0 0 0 .87-3.28 67 67 0 0 1-2.2-6.37c-.8-2.36-1.54-5.37-4.04-6.46a5.8 5.8 0 0 0-7.34 2.4c-1.14 2.11-1.11 4.84-1.1 7.19l.7-1.7c-.19.25-.85.59-1.27.94a9 9 0 0 0-1.45 1.7 9.7 9.7 0 0 0-1.61 4.72c-.13 1.93-.07 4.78 2.12 5.48v-4.62a6.4 6.4 0 0 0-4.96 4.95c-.32 1.65.1.45.1.45a6 6 0 0 0-1.46.66 6 6 0 0 0-2.18 2.35c-1.92 3.7-.39 8.56 1.66 11.87 1.62 2.63 5.78.22 4.15-2.42Z" class="c"/><path d="M371.22 171.38q11.64-12.05 22.5-24.85c.6-.7 1.38-2.09 2.23-2.48.41-.2.72.15.96.59.9 1.59-.74 3.58-1.7 4.73-3.66 4.37-7.42 8.65-11.12 12.97-1.72 2-3.38 4.36-5.54 5.91-1.47 1.06-3.85 1.94-5.38.51-2.26-2.1-5.66 1.29-3.4 3.4a8.3 8.3 0 0 0 7.9 1.8c2.87-.75 5.15-2.86 7.06-5.03 4.52-5.11 8.91-10.35 13.34-15.54 1.9-2.23 3.87-4.72 3.9-7.8a6.5 6.5 0 0 0-4.63-6.3c-3.42-.88-5.57 2.14-7.48 4.4q-3.28 3.86-6.64 7.66-7.51 8.49-15.4 16.64c-2.14 2.22 1.25 5.62 3.4 3.4Z" class="c"/><path d="M378.83 171.88c5 4.44 10.72 7.75 16.4 11.23a2.4 2.4 0 1 0 2.42-4.14c-2.69-1.65-5.43-3.24-8.08-4.95a58 58 0 0 1-7.35-5.54 2.46 2.46 0 0 0-3.4 0 2.4 2.4 0 0 0 0 3.4" class="c"/><path d="M62.22 204.75a20.6 20.6 0 0 1-5.22-10.1q1.21 1.76 2.62 3.71a14 14 0 0 0 4.61 4 13 13 0 0 0 4.64 1.51 15.6 15.6 0 0 0 11.17-2.47 12.7 12.7 0 0 0 5.44-9.89c.1-5.58-3.77-10.34-7.44-14.55-1.39-1.6-3-3.38-4.73-5.24 8.14.12 15.36 3.38 19.14 10.43 3.32 6.2 2.75 11.9.33 18a23 23 0 0 1-4.64 6.67 15 15 0 0 1-5.09 3.34 18.2 18.2 0 0 1-15.16-1.13 22 22 0 0 1-5.67-4.28m152.33-14.9.43.4c4.73 4.17 9.28 9.86 9.28 15.47 0 5.02-.4 7.46-3.57 10.96-1.23 1.35-4.5 2.32-6.31 2.58a14.2 14.2 0 0 1-8.76-1.01c-2.81-1.48-5.77-3.06-7.66-5.62-1.4-1.2-4.54-6.91-7.22-11.98l1 5.84a54 54 0 0 1 .28 7.12l.25 1.65c.84 5.5 6.64 10.23 11.26 12.26 5.45 2.38 13.36 2.07 18.47-.14 3.84-1.66 7.95-6.25 9.44-10.06a22.8 22.8 0 0 0-1.5-20.3 23.4 23.4 0 0 0-19.67-11.4c1.57 1.6 3.06 3.1 4.28 4.24" class="b"/><path d="M60.65 154.85c-1-3.22-1.75-6.62-4.11-9.17a36 36 0 0 0-5-4.1 104 104 0 0 0-5.63-3.9 52 52 0 0 0-4.88-2.88 26 26 0 0 0-5.97-2.45c-4.16-.9-8.2 2.3-10.55 5.47a2.4 2.4 0 0 0 .37 2.9 47 47 0 0 0 7.36 6.53 2.4 2.4 0 0 0 3.29-.86 2.45 2.45 0 0 0-.86-3.28 42 42 0 0 1-6.4-5.78l.38 2.91c-.13.18.4-.4.5-.5q.48-.47.98-.9a17 17 0 0 1 1.84-1.39c1.38-.88 2.67-.25 4.06.32a49 49 0 0 1 8.62 4.8c2.9 1.93 6.12 3.94 8.5 6.5 1.6 1.74 2.13 4.62 2.88 7.06.9 2.94 5.54 1.69 4.63-1.28Z" class="c"/><path d="M37.34 142.4c-3.18.38-6.57.83-9.72.05a15 15 0 0 1-4.38-2.13q-2.36-1.5-4.65-3.09c-2.77-1.93-5.77-5.06-9.39-5.1a7 7 0 0 0-4.17 1.63c-1.13.83-2.34 1.66-3.39 2.59-3.08 2.73-1.23 6.52.75 9.2q3.34 4.5 7 8.78 3.6 4.2 7.51 8.14c2.4 2.4 4.86 5.01 7.86 6.67 3.4 1.87 7.23 1.97 11.01 1.75 4.03-.24 8.05-.66 12.08-.96a2.46 2.46 0 0 0 2.4-2.4 2.4 2.4 0 0 0-2.4-2.4c-3.38.25-6.75.57-10.13.82-2.72.2-5.65.54-8.34-.1-2.72-.66-4.82-2.62-6.78-4.5q-3.66-3.52-7.08-7.3-3.25-3.59-6.27-7.38-1.53-1.93-3-3.92c-.44-.62-1.7-1.87-1.5-2.71.15-.54 1.66-1.35 2.15-1.72.76-.57 1.63-1.51 2.57-1.33 1.38.27 2.59 1.4 3.68 2.22q2.06 1.52 4.17 2.96c2.91 1.99 5.9 4.24 9.41 5a32 32 0 0 0 10.61.03 2.5 2.5 0 0 0 2.4-2.4 2.4 2.4 0 0 0-2.4-2.4m156.2 88.78c.53-4.58.71-9.21.82-13.82a64 64 0 0 0-.31-11.5 2.4 2.4 0 0 0-2.95-1.68 2.46 2.46 0 0 0-1.68 2.95c.07.46-.03-.63-.01-.1l.04.4.07 1.03q.07 1.31.09 2.63.04 3.3-.05 6.6c-.12 4.5-.3 9.02-.82 13.5a2.4 2.4 0 0 0 2.4 2.4 2.46 2.46 0 0 0 2.4-2.4Z" class="c"/><path d="m132.76 131.02.02 34.91a.7.7 0 0 0 .74.73c8.74-.08 24.78-.12 35-.16a.73.73 0 0 0 .72-.72c0-10.27-.06-23.98-.06-34.85a.73.73 0 0 0-.73-.73c-4.43 0-26.56.03-34.97.1a.73.73 0 0 0-.72.72" style="fill:#7abee6"/><path d="M154.24 137.36q-5.5 0-11 .03a4.6 4.6 0 0 0-3.25.86 3.8 3.8 0 0 0-1.08 3.04v9.17a2.4 2.4 0 0 0 4.8 0v-7.79a12 12 0 0 0 0-2.02 1.54 1.54 0 0 1-1.55 1.54h5.35l6.73-.02a2.4 2.4 0 0 0 0-4.8Zm8.85 20.74v-9.6a2.4 2.4 0 0 0-4.8 0v9.6a2.4 2.4 0 0 0 4.8 0" class="c"/><path d="m130.35 131.02.02 18.3.01 9.05v4.09a17 17 0 0 0 .14 4.4c.84 2.88 4.59 2.19 6.87 2.17l7.63-.04 16.55-.06 3.61-.01a20 20 0 0 0 3.97-.1c3.34-.73 2.49-5.16 2.48-7.7l-.04-18.46-.02-8.92c0-1.36.3-3.07-.38-4.3a3.4 3.4 0 0 0-3.19-1.64c-3.11-.06-6.23 0-9.35.01l-15.03.04-6.82.02c-2.3.01-5.76-.5-6.36 2.5a2.46 2.46 0 0 0 1.68 2.96 2.4 2.4 0 0 0 2.95-1.68l-.03.07-.86.86c-.32.21-.7.08-.12.1q.31.02.63 0h1.61l3.45-.02 8-.02 15.48-.03H168c.52-.03.26.23-.25-.12l-.86-.86q-.15-.55-.12-.1v3.65l.01 4.45.02 8.95.03 8.85v7.22c0 .36-.27 1 .12.43l.86-.86q.73-.16.06-.11h-3.4l-4.42.02-9.6.03-9.14.04-4.09.03-1.86.01h-1.31q-.63-.03.14.13l.87.86q.14.58.1.13v-16.7l-.02-17.65c.02-3.08-4.78-3.08-4.78 0" class="c"/><path d="m136.52 123.67.02 4.2a2.5 2.5 0 0 0 .7 1.7 2.4 2.4 0 0 0 3.4 0 2.5 2.5 0 0 0 .7-1.7l-.03-4.2a2.5 2.5 0 0 0-.7-1.7 2.4 2.4 0 0 0-3.4 0 2.5 2.5 0 0 0-.7 1.7m11.84 0 .02 4.2a2.5 2.5 0 0 0 .7 1.7 2.4 2.4 0 0 0 3.4 0 2.5 2.5 0 0 0 .7-1.7l-.03-4.2a2.5 2.5 0 0 0-.7-1.7 2.4 2.4 0 0 0-3.4 0 2.5 2.5 0 0 0-.7 1.7m11.84 0 .03 4.2a2.5 2.5 0 0 0 .7 1.7 2.4 2.4 0 0 0 3.4 0 2.5 2.5 0 0 0 .7-1.7l-.03-4.2a2.5 2.5 0 0 0-.7-1.7 2.4 2.4 0 0 0-3.4 0 2.5 2.5 0 0 0-.7 1.7m-23.7 45.12.02 4.19a2.5 2.5 0 0 0 .7 1.7 2.4 2.4 0 0 0 3.4 0 2.5 2.5 0 0 0 .7-1.7l-.04-4.2a2.5 2.5 0 0 0-.7-1.7 2.4 2.4 0 0 0-3.39 0 2.5 2.5 0 0 0-.7 1.7m11.83 0 .03 4.19a2.5 2.5 0 0 0 .7 1.7 2.4 2.4 0 0 0 3.4 0 2.5 2.5 0 0 0 .7-1.7l-.04-4.2a2.5 2.5 0 0 0-.7-1.7 2.4 2.4 0 0 0-3.39 0 2.5 2.5 0 0 0-.7 1.7m11.84 0 .03 4.19a2.5 2.5 0 0 0 .7 1.7 2.4 2.4 0 0 0 3.4 0 2.5 2.5 0 0 0 .7-1.7l-.04-4.2a2.5 2.5 0 0 0-.7-1.7 2.4 2.4 0 0 0-3.39 0 2.5 2.5 0 0 0-.7 1.7m15.23-34.37-4.2.03a2.5 2.5 0 0 0-1.7.7 2.4 2.4 0 0 0 0 3.4 2.5 2.5 0 0 0 1.7.7l4.2-.04a2.5 2.5 0 0 0 1.7-.7 2.4 2.4 0 0 0 0-3.39 2.5 2.5 0 0 0-1.7-.7m0 11.84-4.2.03a2.5 2.5 0 0 0-1.7.7 2.4 2.4 0 0 0 0 3.4 2.5 2.5 0 0 0 1.7.7l4.2-.04a2.5 2.5 0 0 0 1.7-.7 2.4 2.4 0 0 0 0-3.39 2.5 2.5 0 0 0-1.7-.7m0 11.84-4.2.03a2.5 2.5 0 0 0-1.7.7 2.4 2.4 0 0 0 0 3.4 2.5 2.5 0 0 0 1.7.7l4.2-.04a2.5 2.5 0 0 0 1.7-.7 2.4 2.4 0 0 0 0-3.39 2.5 2.5 0 0 0-1.7-.7m-45.12-23.68-4.19.03a2.5 2.5 0 0 0-1.7.7 2.4 2.4 0 0 0 0 3.4 2.5 2.5 0 0 0 1.7.7l4.2-.04a2.5 2.5 0 0 0 1.7-.7 2.4 2.4 0 0 0 0-3.39 2.5 2.5 0 0 0-1.7-.7m0 11.84-4.19.03a2.5 2.5 0 0 0-1.7.7 2.4 2.4 0 0 0 0 3.4 2.5 2.5 0 0 0 1.7.7l4.2-.04a2.5 2.5 0 0 0 1.7-.7 2.4 2.4 0 0 0 0-3.39 2.5 2.5 0 0 0-1.7-.7m0 11.84-4.19.03a2.5 2.5 0 0 0-1.7.7 2.4 2.4 0 0 0 0 3.4 2.5 2.5 0 0 0 1.7.7l4.2-.04a2.5 2.5 0 0 0 1.7-.7 2.4 2.4 0 0 0 0-3.39 2.5 2.5 0 0 0-1.7-.7Zm.53-67.06-.1 11.08a2.4 2.4 0 1 0 4.8 0l.1-11.08a2.4 2.4 0 0 0-4.8 0m35.11 0 .1 11.08a2.4 2.4 0 0 0 4.8 0l-.1-11.08a2.4 2.4 0 0 0-4.8 0m35 70.04a114 114 0 0 1-4.46 20.92 73 73 0 0 1-3.3 8.82c-1.2 2.62-2.55 5.78-4.44 7.79-2.1 2.25 1.28 5.65 3.4 3.39 2.3-2.46 3.8-5.72 5.2-8.76a81 81 0 0 0 3.66-9.59 120 120 0 0 0 4.73-22.56 2.4 2.4 0 0 0-2.4-2.4 2.46 2.46 0 0 0-2.4 2.4Zm-105.75.07c3.05 13.1 5.25 27.05 12.68 38.53 1.67 2.59 5.83.18 4.14-2.42-7.19-11.12-9.23-24.7-12.2-37.38-.7-3.01-5.33-1.74-4.63 1.27Zm12.74 44.01a93 93 0 0 0-.88 19.93c.23 3.34.24 7.57 2.81 10.04 2.56 2.46 6.3 2.65 9.63 3.06 13.9 1.71 28.06 1.8 42.05 1.47 7.02-.17 14.04-.48 21.03-1.1a2.46 2.46 0 0 0 2.4-2.4 2.4 2.4 0 0 0-2.4-2.4 355 355 0 0 1-38.07 1.15c-6.65-.11-13.3-.39-19.93-.99a114 114 0 0 1-8.22-.97 5.3 5.3 0 0 1-3.45-1.58c-.75-.98-.72-2.83-.85-4.05a80 80 0 0 1-.29-11.48q.1-2.73.35-5.46.1-1.14.23-2.28l.12-.96c.05-.43-.05.3.01-.12l.09-.58a2.5 2.5 0 0 0-1.68-2.95 2.4 2.4 0 0 0-2.95 1.67m13.07-1.8c15.57 1.94 31.38 1.98 47.04 1.31q6.54-.27 13.07-.75a2.46 2.46 0 0 0 2.4-2.4 2.4 2.4 0 0 0-2.4-2.4 356 356 0 0 1-47.37.6q-6.38-.37-12.74-1.15a2.4 2.4 0 0 0-2.4 2.4 2.46 2.46 0 0 0 2.4 2.4" class="c"/><path d="M130.5 97.99c-5.16.03-10.42 1.1-15.49 2A92 92 0 0 0 98 104.26a35 35 0 0 0-8.33 4.3 2.47 2.47 0 0 0-.87 3.28 2.4 2.4 0 0 0 3.29.86c4.78-3.5 10.7-5.26 16.4-6.55 4.86-1.1 9.8-1.94 14.73-2.66a54 54 0 0 1 7.3-.7c3.08-.03 3.09-4.83 0-4.8Z" class="c"/><path d="M169.4 101.5a19 19 0 0 1-4.44 3.47 18 18 0 0 1-5.03 1.71 37 37 0 0 1-10.1.87 29 29 0 0 1-18.88-8.7c-2.2-2.17-5.6 1.22-3.4 3.4a34.2 34.2 0 0 0 22.28 10.1 42 42 0 0 0 11.75-1.12 22 22 0 0 0 11.2-6.34c2.16-2.22-1.23-5.62-3.39-3.4Zm33.23 43.25c4.06-9.8 7.8-19.65 9.56-30.16l-1.68 1.68c2.88-.68 6.53.57 9.18 2.19a18.7 18.7 0 0 1 7.07 8.49 29 29 0 0 1 1.67 5.71c.17.8.06-.33.06.47v.87a10 10 0 0 1-.2 2.1 8 8 0 0 1-1.76 3.12 31 31 0 0 1-3.9 4.25q-6.47 6.06-12.93 12.14c-2.26 2.12 1.14 5.51 3.4 3.4l12.75-11.97a40 40 0 0 0 4.74-5.27 12 12 0 0 0 2.29-4.24c.97-4.03.04-8.16-1.51-11.92a24 24 0 0 0-8.48-10.8c-3.84-2.63-9.03-4.27-13.66-3.17a2.3 2.3 0 0 0-1.67 1.67c-1.76 10.5-5.5 20.36-9.56 30.16a2.4 2.4 0 0 0 1.68 2.95 2.46 2.46 0 0 0 2.95-1.68Z" class="c"/><path d="M211.08 111.88a30 30 0 0 0-7.64-3.81q-4.52-1.65-9.17-2.87c-5.36-1.4-10.79-2.56-16.2-3.73l-7.46-1.6c-3.01-.63-4.3 4-1.28 4.63 10.36 2.16 20.87 4.15 30.91 7.52a30 30 0 0 1 8.42 4 2.4 2.4 0 0 0 3.29-.86 2.46 2.46 0 0 0-.87-3.28M106.82 275.61a112 112 0 0 1 1.5-16.98 117 117 0 0 1 3.53-16.25c.9-2.96-3.73-4.22-4.63-1.27a117 117 0 0 0-3.59 16.63 120 120 0 0 0-1.6 17.87c0 3.09 4.8 3.1 4.8 0Zm92.11 0a120 120 0 0 0-1.6-17.87 117 117 0 0 0-3.6-16.63c-.9-2.95-5.53-1.7-4.62 1.27a117 117 0 0 1 3.53 16.25 112 112 0 0 1 1.5 16.98c0 3.09 4.8 3.1 4.8 0Zm-11.6-231.72a35 35 0 0 1 5.79.02c-.22-.03.65.09.46.1l.16.16q-.37-.49-.15-.17l.28.52c-.28-.55-.02-.06.03.1a29 29 0 0 1 .85 9.14 30 30 0 0 1-1.83 10.7 1.6 1.6 0 0 1-.85.91c-.64.37.06.03-.29.07q-.44.04-.88.05-2 .1-3.98.23a2.46 2.46 0 0 0-2.4 2.4 2.4 2.4 0 0 0 2.4 2.4c2.46-.17 5.55.17 7.76-1.08 3.1-1.76 3.7-6.1 4.25-9.3a48 48 0 0 0 .52-11.27c-.17-2.37-.4-5.08-1.64-7.18-2.07-3.48-7.04-2.68-10.49-2.6-3.08.08-3.1 4.88 0 4.8Zm-73.1-4.8a97 97 0 0 0-5.44 0 5.7 5.7 0 0 0-4.64 2.03c-1.41 1.82-1.72 4.37-1.95 6.58a46 46 0 0 0 .21 11.06 42 42 0 0 0 1.04 5.19 9.4 9.4 0 0 0 2.26 4.64c2.34 2.17 5.97 1.72 8.92 1.93a2.4 2.4 0 0 0 2.4-2.4 2.45 2.45 0 0 0-2.4-2.4q-1.98-.13-3.98-.23-.45-.01-.88-.05c-.35-.04.35.3-.3-.07a1.6 1.6 0 0 1-.79-.75 20 20 0 0 1-1.36-5.36 36 36 0 0 1-.52-5.5 28 28 0 0 1 .82-9.06c.05-.15.35-.75.05-.18l.29-.52q.21-.32-.15.17l.16-.17c-.19 0 .68-.12.46-.1a35 35 0 0 1 5.8-.01c3.08.07 3.08-4.73 0-4.8" class="c"/><path d="M116.62 41.5a30.6 30.6 0 0 1 7.85-17.98 31 31 0 0 1 15.71-8.98 47 47 0 0 1 18.85-.49 32 32 0 0 1 16.3 7.72 30.7 30.7 0 0 1 9.6 19.72 2.46 2.46 0 0 0 2.4 2.4 2.4 2.4 0 0 0 2.4-2.4 36 36 0 0 0-8.84-20.9 35 35 0 0 0-18.06-10.63 53 53 0 0 0-21.6-.54 36.4 36.4 0 0 0-18.55 9.09 35.7 35.7 0 0 0-10.86 22.98 2.4 2.4 0 0 0 2.4 2.4 2.45 2.45 0 0 0 2.4-2.4m-4.3 25.31c2.57 13.5 12.89 25.28 26.52 28.16a63 63 0 0 0 21.6.43 32.8 32.8 0 0 0 18.24-8.98 37.6 37.6 0 0 0 10.55-19.6 2.46 2.46 0 0 0-1.68-2.96 2.4 2.4 0 0 0-2.95 1.68c-2.28 11.97-11.08 22.33-23.23 24.85a49 49 0 0 1-9.3.84 63 63 0 0 1-9.49-.45 28.6 28.6 0 0 1-16.45-7.9 33 33 0 0 1-9.18-17.34 2.4 2.4 0 0 0-2.96-1.68 2.45 2.45 0 0 0-1.67 2.95m28.9-15.76c.66 2.16.23 7.13-3.86 7.56-5.41-.04-5.7-6.05-3.88-8.87 1.49-2.32 5.87-3.28 7.74 1.31m28.41 0c.67 2.16.23 7.13-3.86 7.56-5.4-.04-5.7-6.05-3.88-8.87 1.5-2.32 5.88-3.28 7.74 1.31M104 143.47c-4.5-10.81-8.87-21.87-10.82-33.47-.23-1.37-1.79-1.87-2.95-1.68-9.21 1.56-16.7 9.42-19.85 17.89-1.37 3.67-2.23 7.6-1.22 11.48a8 8 0 0 0 2.53 4l4.58 4.45c4.33 4.12 9.04 7.82 13.4 11.9 2.26 2.1 5.66-1.28 3.4-3.4-3.51-3.27-7.2-6.34-10.8-9.53-1.6-1.43-3.13-2.93-4.68-4.44a46 46 0 0 1-3.53-3.4c-.16-.2.02.27-.06-.16-.03-.18-.19-.58-.25-.85a10 10 0 0 1-.25-2.12v-.9c.02-.32.08-.72-.01-.17a31 31 0 0 1 .74-3.23 24 24 0 0 1 5.71-10.28c3.19-3.23 7.02-5.84 11.56-6.61l-2.95-1.68c1.94 11.6 6.33 22.66 10.81 33.48a2.5 2.5 0 0 0 2.96 1.67 2.4 2.4 0 0 0 1.68-2.95m116.5 13.6q3 17.17 4.26 34.57a2.46 2.46 0 0 0 2.4 2.4 2.4 2.4 0 0 0 2.4-2.4q-1.31-18.02-4.43-35.85a2.4 2.4 0 0 0-2.95-1.67 2.46 2.46 0 0 0-1.68 2.95" class="c"/><path d="M212.59 188.15c11.26 1.37 19.73 12.36 17.9 23.6-.88 5.43-4.02 10.73-9.08 13.26-4.5 2.25-10.63 2.32-15.36.88-5-1.52-10.54-5.87-11.47-11.26a2.4 2.4 0 0 0-2.95-1.68 2.45 2.45 0 0 0-1.67 2.95c1.05 6.16 6.75 11.18 12.2 13.62a27 27 0 0 0 19.53.55c6.38-2.33 11.2-8.3 12.94-14.77a25.2 25.2 0 0 0-3.44-20.77 26.3 26.3 0 0 0-18.6-11.18 2.4 2.4 0 0 0-2.4 2.4 2.46 2.46 0 0 0 2.4 2.4" class="c"/><path d="M195.7 209.53c-2.75-4.45-6.66-12.2-8.48-15.57a59 59 0 0 1-12.5-6.5 8 8 0 0 1-1.75-1.38 8 8 0 0 1-1-1.56c-2.88-5.4-7.23-14.26-9.14-20.06a3 3 0 0 1 .02-1.96 8 8 0 0 1 3.02-3.05c-.87-1.6-2.1-3.6-1.78-5.04a8 8 0 0 1 1.85-2.88 34 34 0 0 1 7.17-5.68c2.04-1.31 4.78-1.59 6.63.4a79 79 0 0 1 7.59 10.09c1.15 1.75 1.99 3.1 2.72 4.3 2.02-1.88 2.11-2.53 3.61-3.21 1-.47 1.58-.24 2.72-.05.75.13 1.35 1.02 1.72 1.5a42 42 0 0 1 4.28 7.07 4.8 4.8 0 0 1 .16 3.37 19 19 0 0 1-1.12 2.7 15 15 0 0 1-1.67 2.94c2.82 2.47 10.98 11.4 15.23 15.3 4.73 4.16 9.28 9.85 9.28 15.46 0 5.02-.4 7.46-3.57 10.96-1.23 1.35-4.5 2.32-6.32 2.58a14.2 14.2 0 0 1-8.75-1.01c-2.82-1.48-5.78-3.06-7.67-5.62a16 16 0 0 1-2.26-3.1" class="a"/><path d="M195.8 165.17c-4.06-5.86-7.43-12.11-11.89-17.7-1.21-1.53-2.48-3.34-4.25-4.26a7.4 7.4 0 0 0-5.46-.46 17 17 0 0 0-4.84 2.73 32 32 0 0 0-4.65 3.86c-1.4 1.45-2.96 3.27-3.06 5.37-.1 2.15 1.16 4.15 2.15 5.96l.86-3.29a10.4 10.4 0 0 0-3.65 3.5 5.6 5.6 0 0 0-.24 4.97 103 103 0 0 0 3.61 8.75q2.04 4.46 4.3 8.81a26 26 0 0 0 2.18 3.85 15 15 0 0 0 4.07 3.2 57 57 0 0 0 11.65 5.82c2.93 1 4.18-3.63 1.27-4.63a52 52 0 0 1-10.86-5.57 12 12 0 0 1-2.06-1.42 7 7 0 0 1-1.18-1.9q-1.15-2.18-2.25-4.38c-1.6-3.2-3.14-6.43-4.52-9.73-.63-1.48-1.24-3-1.74-4.53-.17-.55-.2-.53.03-1a5 5 0 0 1 1.82-1.6 2.44 2.44 0 0 0 .86-3.27 20 20 0 0 1-1.3-2.53c-.26-.7-.27-.7.07-1.3a16 16 0 0 1 3.91-3.96 19 19 0 0 1 4.68-3.03c1.59-.57 2.46.2 3.48 1.36 5.05 5.75 8.53 12.55 12.87 18.8a2.46 2.46 0 0 0 3.28.86 2.4 2.4 0 0 0 .86-3.28" class="c"/><path d="M201.3 176.83a21 21 0 0 0 3.44-6.51 7.6 7.6 0 0 0 .16-4.49 20 20 0 0 0-1.97-3.96 35 35 0 0 0-2.35-3.67 7.7 7.7 0 0 0-3.05-2.95 6.6 6.6 0 0 0-4.24-.25 8 8 0 0 0-3.46 2.45 2.4 2.4 0 0 0 3.4 3.4 11 11 0 0 1 .97-1q.18-.16-.03.03l.21-.13c.76-.32-.34.05.43-.2-.3.1-.04 0 .17 0 .4.04-.58-.12.2.04.07.02.75.1.5.06-.2-.02-.21-.2 0 .04.02.01.52.6.23.24l.42.55q.55.73 1.05 1.5.91 1.38 1.71 2.86a11 11 0 0 1 1.26 2.54 4 4 0 0 1-.35 1.98 18 18 0 0 1-2.09 4.07 2.47 2.47 0 0 0 0 3.4 2.4 2.4 0 0 0 3.4 0Zm-126.7-31.2a191 191 0 0 1-3.68 21.94c-.69 3 3.94 4.3 4.63 1.28a203 203 0 0 0 3.85-23.21 2.4 2.4 0 0 0-2.4-2.4 2.46 2.46 0 0 0-2.4 2.4m22.34 38.2a100 100 0 0 1-6.56 15.8l4.38 1.86.48-1.14a2.4 2.4 0 0 0-1.68-2.95 2.46 2.46 0 0 0-2.95 1.68l-.47 1.13a2.4 2.4 0 0 0 4.38 1.85 107 107 0 0 0 7.05-16.96 2.4 2.4 0 1 0-4.63-1.28Z" class="c"/><path d="M75.39 174.22a19.5 19.5 0 0 1 11.96 5.07 16.7 16.7 0 0 1 4.9 13.76c-.59 4.99-3.06 10.26-7.19 13.3-4.17 3.07-9.91 3.25-14.6 1.27a19 19 0 0 1-10.5-11.16c-.99-2.9-5.63-1.66-4.63 1.28A23.8 23.8 0 0 0 66.51 211a20.5 20.5 0 0 0 19.23.55c5.72-3 9.43-9.25 10.8-15.39a21.7 21.7 0 0 0-4.4-18.72c-4.13-5.06-10.4-7.46-16.76-8.03a2.4 2.4 0 0 0-2.4 2.4 2.45 2.45 0 0 0 2.4 2.4Z" class="c"/><path d="M57.02 157.6c4.3 4.93 8.85 9.64 13.31 14.43a268 268 0 0 1 6.28 6.93 31 31 0 0 1 5.6 8.11 10 10 0 0 1-.26 8.63 11 11 0 0 1-6.52 5.32 13.2 13.2 0 0 1-9.6-.53c-3.19-1.61-4.97-4.46-6.94-7.31a230 230 0 0 1-11.66-19.22c-1.5-2.7-5.64-.28-4.14 2.42a228 228 0 0 0 11.42 18.88c2.26 3.29 4.37 6.58 7.8 8.75a17.5 17.5 0 0 0 11.83 2.2c7.49-1.06 14-7.47 13.73-15.3-.24-7.58-6.17-13.55-10.97-18.82-5.46-6-11.16-11.77-16.5-17.88-2.03-2.33-5.42 1.08-3.4 3.4Zm128.12 37.57c2.8 5.2 5.37 10.54 8.47 15.56a22 22 0 0 0 5.4 6.3c3.5 2.69 7.64 4.83 12.12 4.87 3.6.03 8.2-.74 10.98-3.26a14.5 14.5 0 0 0 4.42-9.42 19.2 19.2 0 0 0-2.51-12.1c-2.17-3.67-5.2-6.5-8.26-9.42-2.69-2.57-5.26-5.28-7.84-7.96-2.16-2.23-4.26-4.57-6.61-6.59a2.46 2.46 0 0 0-3.4 0 2.4 2.4 0 0 0 0 3.4c4.2 3.59 7.83 7.9 11.7 11.82 2.3 2.33 4.84 4.46 7.04 6.89 2.38 2.6 4.79 5.9 5.17 9.52.3 2.88.05 6.08-1.48 8.47a6 6 0 0 1-2.85 2.66 15 15 0 0 1-4.2 1.08 12.5 12.5 0 0 1-5.68-.47 24 24 0 0 1-4.96-2.75 17 17 0 0 1-3.25-3.08l-.32-.38c-.21-.23.26.37.06.1l-.16-.23-.9-1.35c-3.27-5.16-5.9-10.71-8.8-16.08-1.47-2.72-5.61-.3-4.14 2.42" class="c"/></svg>
