<svg xmlns="http://www.w3.org/2000/svg" viewBox="-68.01 0 396.536 396.536"><defs><style>.a{fill:#fff}.b{fill:#bdbdbd}.d{fill:#211715}</style></defs><path d="M239.33 122.06c8.49-10.33 15.99-22.36 18.65-35.16a3.7 3.7 0 0 0-.04-2.35 4 4 0 0 0-1.35-1.35 76 76 0 0 0-14.49-7.66 2.14 2.14 0 0 0-3.12.96c-2.31 3.36-4.12 6.2-6.02 9.07.72-.05-6.26.4-7.86.69-1.98.36-4.9.93-4.98 1.47-1.15 6.82-3.4 16.3-4.98 23.16l-1.4 6.09c-4.66 5.09-11.75 12.08-16.64 17.46-.4-.6-3-1.22-4.14-1.47a5 5 0 0 0-2.88.03 5 5 0 0 0-1.17.36 4 4 0 0 0-1.04.8c-2.26-1.8-4.57-3.55-6.85-5.33q-6.68-5.21-13.08-10.77a6 6 0 0 0-.06-2.12 19.4 19.4 0 0 0-6.34-11.6 14.6 14.6 0 0 0-13.68-3.02c-3.46-2.47-8.83-4.76-16.54-6.53-4.72-1.08-17.98-3.47-22.75-3.47l-39.47 1.8c-4.78 1-20.66 4.4-25.3 5.78-7.05 2.09-11.28 3.57-14.44 5.85-4.7-1.8-10.22.14-14.19 4.2a27.7 27.7 0 0 0-6.91 14.4c-.18.98-.16 4.58.97 6.27-2.99 16.11-4.98 37.58-6.2 57.07a3 3 0 0 0-.3.55 6 6 0 0 0 .08 4.03 10 10 0 0 0 1 2.5 4 4 0 0 0 2 1.76l1.52.55c2.84 7.06 18.74 31.59 23.6 38.23 1.82 2.53 3.78 5.97 5.54 8.33q3.5 3.09 6.94 6.07a110 110 0 0 0-1.49 17.83c.03 24.87 4.22 52.07 2.44 62.3-2.03 8.53-8.07 14.52-13.73 20.54-4.5 4.79-8.22 13.44-8.67 19.2-.2 2.7-.58 6.18-.78 9.65-.4 6.93 4.62 12.9 11.21 13.38 15.79 1.14 35.78 2.42 55.92 2.62 20.14-.2 40.13-1.48 55.92-2.62 6.6-.48 11.62-6.45 11.21-13.38-.2-3.47-.58-6.95-.79-9.64-.44-5.77-4.16-14.42-8.66-19.21-5.75-6.11-11.89-12.2-13.83-20.94l-.09-.5c-1.4-10.86 2.56-37.23 2.58-61.4a138 138 0 0 0-5.1-33.86s-1.03-3.32-2.43-7.87a4.8 4.8 0 0 0 1.75-2.75c1.62-7.9.81-19.87-.02-25.33l-.84-5.57 1.14-1.76a48 48 0 0 0 4.95-9.72 294 294 0 0 0 9.33-30.23l1.85-7.79 2.1 2.04c.5.5 1.14 1.03 1.84.88 1-.21 1.33-1.68 1.75-2.2 6.45 5.12 25.3 18.97 39.47 27.2l.15.06a8 8 0 0 0 9.71-3.8l2.94-1.52c6.25-5.57 23.47-26.69 28.44-33.49l3.55-3.98a153 153 0 0 0 4.1-4.8" class="a"/><path d="m105.9 84.82-.04-3.6q-.76.22-1.54.41a61 61 0 0 1-15.84 2.07 65 65 0 0 1-15.86-2.06q-.94-.24-1.86-.51l-.15 15.34a17 17 0 0 0 5.68 2.92c10.1 2.71 20.56 2.26 29.7-4.58z" class="b"/><path d="M122.79 24.96a33 33 0 0 0-8.54-13.7c-6.78-6.46-16.33-8.84-25.78-8.84-9.2 0-19 2.38-25.77 8.85a33 33 0 0 0-10.1 24.67c-2.65-.07-4.4-.06-6.4.03a3.6 3.6 0 0 0-1.88.62 3 3 0 0 0-.87 1.88 113 113 0 0 0 .04 20.4 3.8 3.8 0 0 0 2.39 3.29c2.22.46 3.86.36 8.09.66A26 26 0 0 0 58 72.4c3.4 5.09 8.77 7.77 14.63 9.23a65 65 0 0 0 15.85 2.07 61 61 0 0 0 15.84-2.06c5.87-1.46 11.37-4.24 14.77-9.33a25 25 0 0 0 3.88-9.5c3.99-.28 5.6-.2 7.76-.64a3.8 3.8 0 0 0 2.39-3.29 113 113 0 0 0 .04-20.4 3 3 0 0 0-.87-1.88 3.6 3.6 0 0 0-1.87-.63c-1.91-.08-3.6-.1-6.07-.03a32 32 0 0 0-1.56-10.98" class="a"/><path d="m70.34 121.95.03 34.9a.73.73 0 0 0 .73.73c8.75-.07 24.79-.11 35-.15a.73.73 0 0 0 .73-.73c0-10.26-.07-23.98-.07-34.84a.7.7 0 0 0-.72-.73c-4.43 0-26.57.03-34.98.09a.73.73 0 0 0-.72.73" style="fill:#88c5e9"/><path d="m91.83 127.29-11 .02a4.6 4.6 0 0 0-3.26.86 3.8 3.8 0 0 0-1.07 3.05v9.16a2.4 2.4 0 0 0 4.8 0v-7.78a12 12 0 0 0 0-2.02 1.54 1.54 0 0 1-1.55 1.54h2.14l3.2-.01 6.74-.02a2.4 2.4 0 1 0 0-4.8m8.84 21.74v-9.6a2.4 2.4 0 1 0-4.8 0v9.6a2.4 2.4 0 0 0 4.8 0" class="d"/><path d="m67.94 121.95.02 18.3v13.13a17 17 0 0 0 .15 4.4c.83 2.88 4.58 2.19 6.87 2.17l7.63-.04 16.54-.06 3.62-.01a20 20 0 0 0 3.97-.1c3.34-.73 2.49-5.16 2.48-7.7l-.04-18.46-.02-8.92c0-1.36.29-3.07-.38-4.3a3.4 3.4 0 0 0-3.2-1.63c-3.1-.06-6.23 0-9.34 0l-15.03.04-6.83.03c-2.3 0-5.75-.5-6.35 2.5a2.46 2.46 0 0 0 1.67 2.96 2.4 2.4 0 0 0 2.95-1.68l-.03.07-.86.86c-.32.21-.7.08-.11.1q.3.02.63 0h1.6l3.45-.02 8-.02 15.48-.03h4.77c.52-.03.27.23-.25-.12l-.86-.86q-.15-.55-.11-.1v8.1l.03 8.95.02 8.85v7.22c0 .36-.26 1 .12.43l.87-.86q.73-.16.05-.11h-3.39l-4.42.02-9.6.03-9.14.04-4.1.03h-1.85l-.88.02h-.43q-.63-.04.14.12l.87.86q.14.58.1.13v-16.7l-.02-17.65c.01-3.08-4.79-3.09-4.79 0" class="d"/><path d="m74.1 114.6.03 4.2a2.5 2.5 0 0 0 .7 1.7 2.4 2.4 0 0 0 3.4 0 2.5 2.5 0 0 0 .7-1.7l-.04-4.2a2.5 2.5 0 0 0-.7-1.7 2.4 2.4 0 0 0-3.39 0 2.5 2.5 0 0 0-.7 1.7m11.84 0 .03 4.2a2.5 2.5 0 0 0 .7 1.7 2.4 2.4 0 0 0 3.4 0 2.5 2.5 0 0 0 .7-1.7l-.03-4.2a2.5 2.5 0 0 0-.7-1.7 2.4 2.4 0 0 0-3.4 0 2.5 2.5 0 0 0-.7 1.7m11.84 0 .03 4.2a2.5 2.5 0 0 0 .7 1.7 2.4 2.4 0 0 0 3.4 0 2.5 2.5 0 0 0 .7-1.7l-.03-4.2a2.5 2.5 0 0 0-.7-1.7 2.4 2.4 0 0 0-3.4 0 2.5 2.5 0 0 0-.7 1.7m-23.7 45.11.03 4.2a2.5 2.5 0 0 0 .7 1.7 2.4 2.4 0 0 0 3.39 0 2.5 2.5 0 0 0 .7-1.7l-.03-4.2a2.5 2.5 0 0 0-.7-1.7 2.4 2.4 0 0 0-3.4 0 2.5 2.5 0 0 0-.7 1.7m11.84 0 .03 4.2a2.5 2.5 0 0 0 .7 1.7 2.4 2.4 0 0 0 3.39 0 2.5 2.5 0 0 0 .7-1.7l-.03-4.2a2.5 2.5 0 0 0-.7-1.7 2.4 2.4 0 0 0-3.4 0 2.5 2.5 0 0 0-.7 1.7m11.84 0 .03 4.2a2.5 2.5 0 0 0 .7 1.7 2.4 2.4 0 0 0 3.39 0 2.5 2.5 0 0 0 .7-1.7l-.03-4.2a2.5 2.5 0 0 0-.7-1.7 2.4 2.4 0 0 0-3.4 0 2.5 2.5 0 0 0-.7 1.7m15.22-34.36-4.19.02a2.5 2.5 0 0 0-1.7.7 2.4 2.4 0 0 0 0 3.4 2.5 2.5 0 0 0 1.7.7l4.2-.03a2.5 2.5 0 0 0 1.7-.7 2.4 2.4 0 0 0 0-3.4 2.5 2.5 0 0 0-1.7-.7m0 11.84q-2.1 0-4.19.03a2.5 2.5 0 0 0-1.7.7 2.4 2.4 0 0 0 0 3.39 2.5 2.5 0 0 0 1.7.7l4.2-.03a2.5 2.5 0 0 0 1.7-.7 2.4 2.4 0 0 0 0-3.4 2.5 2.5 0 0 0-1.7-.7m0 11.84-4.19.02a2.5 2.5 0 0 0-1.7.7 2.4 2.4 0 0 0 0 3.4 2.5 2.5 0 0 0 1.7.7l4.2-.03a2.5 2.5 0 0 0 1.7-.7 2.4 2.4 0 0 0 0-3.4 2.5 2.5 0 0 0-1.7-.7m-45.1-23.68-4.2.02a2.5 2.5 0 0 0-1.7.7 2.4 2.4 0 0 0 0 3.4 2.5 2.5 0 0 0 1.7.7l4.2-.03a2.5 2.5 0 0 0 1.7-.7 2.4 2.4 0 0 0 0-3.4 2.5 2.5 0 0 0-1.7-.7m0 11.84-4.2.03a2.5 2.5 0 0 0-1.7.7 2.4 2.4 0 0 0 0 3.39 2.5 2.5 0 0 0 1.7.7l4.2-.03a2.5 2.5 0 0 0 1.7-.7 2.4 2.4 0 0 0 0-3.4 2.5 2.5 0 0 0-1.7-.7m0 11.84-4.2.02a2.5 2.5 0 0 0-1.7.7 2.4 2.4 0 0 0 0 3.4 2.5 2.5 0 0 0 1.7.7l4.2-.03a2.5 2.5 0 0 0 1.7-.7 2.4 2.4 0 0 0 0-3.4 2.5 2.5 0 0 0-1.7-.7m35.59-67.06.1 11.08a2.4 2.4 0 1 0 4.8 0l-.1-11.08a2.4 2.4 0 1 0-4.8 0m-35.12 0-.1 11.08a2.4 2.4 0 1 0 4.8 0l.1-11.08a2.4 2.4 0 1 0-4.8 0M6.6 130.79C3.37 149.1 1.83 167.72.67 186.25c-.2 3.09 4.6 3.08 4.8 0 1.14-18.1 2.6-36.3 5.75-54.19a2.47 2.47 0 0 0-1.67-2.95 2.4 2.4 0 0 0-2.95 1.68m25.36 20.42c-1.1 9.28-1.72 18.61-2.38 27.94a2.4 2.4 0 0 0 2.4 2.4 2.45 2.45 0 0 0 2.4-2.4c.66-9.33 1.27-18.66 2.38-27.94a2.4 2.4 0 0 0-2.4-2.4 2.46 2.46 0 0 0-2.4 2.4m4.96 11.63a88 88 0 0 0 3.47 16.56 60 60 0 0 0 2.7 7.03 24 24 0 0 0 3.87 6.5c2.1 2.27 5.49-1.13 3.4-3.4a22 22 0 0 1-3.13-5.52 51 51 0 0 1-2.32-6.25 82 82 0 0 1-3.19-14.92 2.47 2.47 0 0 0-2.4-2.4 2.4 2.4 0 0 0-2.4 2.4m104.2-14.03a255 255 0 0 1-5.6 19.5c-2.22 6.9-4.47 13.75-8.43 19.87-1.68 2.6 2.47 5.01 4.14 2.43 4.1-6.35 6.49-13.5 8.8-20.65a254 254 0 0 0 5.73-19.87c.7-3-3.92-4.29-4.63-1.28Zm-14.58 48.56a99 99 0 0 1 .61 5.96q.29 4.02.26 8.05a61 61 0 0 1-.48 7.95 9 9 0 0 1-.57 2.72 3.4 3.4 0 0 1-2.35 1.62 26 26 0 0 1-4.03.36q-2.47.18-4.95.34-5.01.32-10.03.55-9.47.43-18.94.55c-6.5.07-13 .02-19.49-.26-3.09-.13-3.08 4.67 0 4.8 12.95.55 25.94.3 38.88-.31q5.02-.24 10.04-.56l4.94-.34a25 25 0 0 0 5.21-.6 7.8 7.8 0 0 0 5.62-5.83 53 53 0 0 0 .9-8.66 97 97 0 0 0-.99-17.62 2.4 2.4 0 0 0-2.95-1.68 2.46 2.46 0 0 0-1.68 2.96m-77.06 13.36a68 68 0 0 1-.26-7.22q.03-1.55.16-3.1.05-.68.13-1.37l.05-.37q-.07.5-.01.09l.1-.7a2.46 2.46 0 0 0-1.67-2.96 2.43 2.43 0 0 0-2.95 1.68 56 56 0 0 0-.35 13.94 2.4 2.4 0 0 0 4.8 0Zm68.62-21.23c-15.58 1.93-31.38 1.97-47.05 1.3q-6.53-.27-13.06-.75a2.4 2.4 0 0 0-2.4 2.4 2.45 2.45 0 0 0 2.4 2.4 356 356 0 0 0 47.37.6q6.39-.37 12.74-1.15a2.5 2.5 0 0 0 2.4-2.4 2.4 2.4 0 0 0-2.4-2.4" class="d"/><path d="M108.57 93.71c4.83.03 9.63 1.02 14.38 1.87a94 94 0 0 1 16.34 4.04 32 32 0 0 1 7.71 4.01 2.4 2.4 0 0 0 3.28-.86 2.46 2.46 0 0 0-.86-3.28c-5.05-3.7-11.43-5.64-17.46-7.02a186 186 0 0 0-15.3-2.75 60 60 0 0 0-8.08-.8c-3.1-.03-3.1 4.77 0 4.8Zm57.66 26.03c6.44 5.6 13.2 10.76 19.89 16.07a2.5 2.5 0 0 0 3.39 0 2.4 2.4 0 0 0 0-3.4c-6.69-5.3-13.45-10.47-19.9-16.07a2.46 2.46 0 0 0-3.38 0 2.4 2.4 0 0 0 0 3.4m-13.84 26.76a352 352 0 0 0 37.55 25.58c2.68 1.54 5.1-2.6 2.43-4.15a352 352 0 0 1-37.56-25.58 2.4 2.4 0 0 0-3.28.87 2.46 2.46 0 0 0 .86 3.28m78.48-53.68c3.28-4.54 6.23-9.3 9.38-13.93a15 15 0 0 1 1.07-1.49l-.62.22.58.17.81.3q1.61.64 3.18 1.4a84 84 0 0 1 9.83 5.6 3 3 0 0 1 .66.55 5 5 0 0 1-.37 1.86 59 59 0 0 1-2.45 7.9 80 80 0 0 1-7.88 14.92 129 129 0 0 1-11.53 14.84c-2.05 2.3 1.34 5.71 3.4 3.4 8.56-9.64 16.32-20.32 20.87-32.49a51 51 0 0 0 2.57-8.92 5.3 5.3 0 0 0-.93-4.62 16 16 0 0 0-3.7-2.73 84 84 0 0 0-7.7-4.28q-1.9-.93-3.86-1.73c-1.45-.6-3.05-1.26-4.63-.75-1.8.57-2.72 2.37-3.71 3.82a381 381 0 0 0-3.13 4.72 220 220 0 0 1-5.98 8.82 2.4 2.4 0 0 0 .86 3.28 2.45 2.45 0 0 0 3.28-.86" class="d"/><path d="M66.3 95.81a22 22 0 0 0 11.2 6.35 42 42 0 0 0 11.75 1.12 34.2 34.2 0 0 0 22.27-10.1c2.2-2.18-1.2-5.57-3.4-3.4a29 29 0 0 1-18.87 8.7 37 37 0 0 1-10.1-.87 18 18 0 0 1-5.03-1.71 19 19 0 0 1-4.43-3.48c-2.16-2.22-5.55 1.18-3.4 3.4Zm151.16 15.72c1.6-6.99 3.29-13.96 4.6-21l.2-1.1.12-.72q-1.32 1.11-.7.77.2-.1-.03.02l.57-.17q.5-.14 1.01-.26 1.26-.27 2.52-.5l.68-.08c2.15-.23 4.32-.37 6.48-.52a2.46 2.46 0 0 0 2.4-2.4 2.4 2.4 0 0 0-2.4-2.4c-2.32.16-4.64.3-6.94.57a34 34 0 0 0-4.7.87c-1.66.44-3.1 1.03-3.52 2.83-.88 3.78-1.47 7.64-2.31 11.43s-1.73 7.59-2.6 11.38c-.7 3 3.93 4.3 4.63 1.28Zm-12.52 54.5a126 126 0 0 0 11.21-12.17q6.58-7.7 12.86-15.65a198 198 0 0 0 4.94-6.44 2.4 2.4 0 0 0-.86-3.28 2.46 2.46 0 0 0-3.29.86c-2.97 4.1-6.22 8.07-9.67 12.29a398 398 0 0 1-13.02 15.26 78 78 0 0 1-5.57 5.73c-2.3 2.07 1.1 5.45 3.4 3.4" class="d"/><path d="M153.71 137.31q-1.7 2.89-3.19 5.88c-.3.6-.66 1.25-1.3 1.39-.7.15-1.33-.39-1.84-.88l-2.23-2.18a6 6 0 0 1-1.87-2.65 6 6 0 0 1 .42-3.23 94 94 0 0 0 4.11-34.31 14.6 14.6 0 0 1 13.74 3.01 19.4 19.4 0 0 1 6.34 11.6 5 5 0 0 1-.03 2.44 6 6 0 0 1-1.46 2.06 94 94 0 0 0-12.69 16.87M26.73 142.2a94 94 0 0 0-14.93-10.3 11 11 0 0 1-2.54-2.23c-1.16-1.66-1.18-5.32-1-6.31a27.7 27.7 0 0 1 6.9-14.4c3.92-4 9.34-5.95 14-4.28 1.88 11.44 4.83 25.15 8.87 34.87.42 1.02 1.3 1.85 1.37 2.95a6 6 0 0 1-.97 3.1l-1.48 2.74c-.33.63-.78 1.33-1.49 1.4a2.2 2.2 0 0 1-1.66-.93 94 94 0 0 0-7.07-6.61m-24 45.04.07-.15a154 154 0 0 0 27.52-9.47 14.5 14.5 0 0 1 3.33 7.22l-.02 1.22c-7.86 4.09-16.86 7.17-26.04 9.97l-.19.08-1.59-.58a4 4 0 0 1-2-1.75 10 10 0 0 1-1-2.51 6 6 0 0 1-.08-4.03m197-23.26a667 667 0 0 1-2.9-29.77 16 16 0 0 0-3.87-1.24 5 5 0 0 0-2.88.03 5 5 0 0 0-1.17.36 6 6 0 0 0-1.6 1.38c.56 11.82 1.73 22.6 3.28 34.9a8 8 0 0 0 9.71-3.8" class="b"/><path d="M199.3 135.6c5.28-5.75 10.87-11.18 16.14-16.92a2.45 2.45 0 0 0 0-3.4 2.43 2.43 0 0 0-3.4 0c-5.26 5.75-10.86 11.18-16.13 16.92a2.45 2.45 0 0 0 0 3.4 2.4 2.4 0 0 0 3.39 0M67.5 232a27 27 0 0 0 3-3.56c1.28-2.19-.38-4.49-1.23-6.52a54 54 0 0 0-2.87-6.36c-1.27-2.18-3.42-1.9-5.57-1.52-6.5 1.16-13.36 2.66-19.07 6.06-2.65 1.58-.24 5.73 2.42 4.14a35 35 0 0 1 9.5-3.66q2.68-.69 5.39-1.3a84 84 0 0 1 3.55-.7c.24-.04.63.05.29-.14l-.86-.86a51 51 0 0 1 2.24 4.77l1.13 2.68c.21.5.8 1.46.75 1.88l.33-1.21a15 15 0 0 1-2.4 2.9 2.46 2.46 0 0 0 0 3.39 2.4 2.4 0 0 0 3.4 0Zm84.14-95.9c-1.16 1.98-2.18 4.01-3.27 6.03l-.25.44q1.95.07 1.22-.32c-.12-.37-.95-.91-1.23-1.18a25 25 0 0 1-2.05-2.03c-1.03-1.28.1-3.18.5-4.56q.92-3.16 1.62-6.37a97 97 0 0 0 2.03-26.78l-1.76 2.31c7.91-2.47 14.87 3.87 16.75 11.19a6 6 0 0 1 .4 2.75c-.2.7-1.05 1.31-1.52 1.82q-2.29 2.47-4.4 5.11a101 101 0 0 0-8.04 11.59c-1.58 2.66 2.57 5.08 4.14 2.42a92 92 0 0 1 6.87-10.09q1.88-2.38 3.92-4.64c1.3-1.44 3.04-2.85 3.6-4.77.55-1.89.06-4-.45-5.85a23 23 0 0 0-2.22-5.34 19 19 0 0 0-7.98-7.67 16.8 16.8 0 0 0-12.35-1.15 2.44 2.44 0 0 0-1.76 2.32 92 92 0 0 1-1.57 24.12q-.6 3-1.4 5.94a51 51 0 0 0-1.54 5.62 6.5 6.5 0 0 0 1.9 5.55 22 22 0 0 0 4.06 3.8 3.9 3.9 0 0 0 5.58-1.66c1.16-2.03 2.16-4.15 3.35-6.18 1.56-2.67-2.59-5.09-4.15-2.42m-123.22 4.4a101 101 0 0 0-10.53-7.76c-1.7-1.09-3.56-1.98-5.2-3.12a3.7 3.7 0 0 1-1.93-2.75 10 10 0 0 1-.17-1.67v-.92c0-.3.1-.93-.01-.29a31 31 0 0 1 1.5-5.59 21.3 21.3 0 0 1 6.13-9c2.88-2.38 6.69-3.64 10.32-2.42l-1.68-1.67a230 230 0 0 0 4.6 21.86c.9 3.38 1.9 6.73 3.1 10.02a26 26 0 0 0 2.04 4.7c.4.65.53.84.24 1.57a25 25 0 0 1-1.2 2.3 9 9 0 0 0-.74 1.37c-.02.05-.23.32-.2.37s1.05-.02 1.06-.15c.01-.2-.9-.9-1.05-1.06q-.56-.58-1.14-1.14-2.48-2.42-5.13-4.65a2.47 2.47 0 0 0-3.4 0 2.4 2.4 0 0 0 0 3.4q2.65 2.23 5.13 4.64c1.49 1.45 3 3.65 5.31 3.6 2.55-.06 3.6-2.65 4.62-4.55 1.04-1.94 2.16-3.98 1.54-6.26a14 14 0 0 0-1.36-2.66 23 23 0 0 1-.95-2.4 100 100 0 0 1-1.91-5.7 166 166 0 0 1-3.2-12.29 263 263 0 0 1-2.73-14.24 2.4 2.4 0 0 0-1.67-1.68c-8.87-3-17.29 4.02-20.97 11.56-1.68 3.44-3.21 7.54-3.04 11.43a11.5 11.5 0 0 0 1.26 5.31 12 12 0 0 0 4.53 3.88 92 92 0 0 1 13.44 9.36 2.47 2.47 0 0 0 3.4 0 2.4 2.4 0 0 0 0-3.4" class="d"/><path d="M30.42 106.96a27 27 0 0 1 7.17-3.58q4.28-1.52 8.7-2.68c5.34-1.38 10.75-2.54 16.14-3.71q3.66-.8 7.31-1.56c3.02-.64 1.75-5.26-1.27-4.63C57.93 93 47.2 95 37 98.5a33 33 0 0 0-9.02 4.3 2.47 2.47 0 0 0-.86 3.28 2.4 2.4 0 0 0 3.29.87M4.8 188.45l.07-.15-1.44 1.1a156 156 0 0 0 28.1-9.71l-2.91-.38a10.5 10.5 0 0 1 2.6 6.74l1.18-2.07a110 110 0 0 1-12.6 5.47q-3.27 1.2-6.58 2.28c-2.13.7-4.4 1.21-6.47 2.06h1.28l-1.1-.4c-.03-.01-.65-.32-.27-.1a2.6 2.6 0 0 1-1.07-1.24 5.7 5.7 0 0 1-.55-4.18 2.4 2.4 0 0 0-1.67-2.95 2.45 2.45 0 0 0-2.96 1.68c-1.23 3.3.34 8.38 3.19 10.43 1.14.82 3.17 1.7 4.56 1.34 1.76-.46 3.5-1.08 5.22-1.64a141 141 0 0 0 21.45-8.6 2.4 2.4 0 0 0 1.18-2.08c.07-3.84-1.63-7.18-4-10.13a2.44 2.44 0 0 0-2.9-.38 136 136 0 0 1-14.06 5.51q-3.6 1.2-7.25 2.23-1.73.5-3.48.95c-1.27.33-3.04.45-3.67 1.8a2.47 2.47 0 0 0 .86 3.28 2.4 2.4 0 0 0 3.29-.86m197.33-24.47q-.94-7.95-1.72-15.9-.37-3.86-.7-7.72l-.33-4.2c-.12-1.58.03-3.25-1.54-4.14a14 14 0 0 0-6.57-1.62c-2.3.1-5.92 1.39-6.33 4.03a20 20 0 0 0 .16 4.07l.28 4.16q.3 4.1.68 8.22c.6 6.27 1.34 12.52 2.13 18.77a2.5 2.5 0 0 0 1.76 2.32 10.5 10.5 0 0 0 12.42-4.9c1.5-2.7-2.64-5.13-4.15-2.43a5.7 5.7 0 0 1-7 2.7l1.77 2.3a460 460 0 0 1-3.29-34.9l-.7 1.7a3 3 0 0 1 1.32-1.03 4 4 0 0 1 2-.12 13 13 0 0 1 3.31 1l-1.19-2.08q1.14 14.92 2.9 29.77a2.47 2.47 0 0 0 2.4 2.4 2.4 2.4 0 0 0 2.4-2.4Z" class="d"/><path d="M5.52 197.9a126 126 0 0 0 8.05 14.28q5.27 8.58 10.88 16.95a187 187 0 0 0 4.41 6.4 2.47 2.47 0 0 0 3.28.85 2.4 2.4 0 0 0 .86-3.28c-3.16-4.33-6.07-8.85-8.98-13.35a398 398 0 0 1-10.62-17.22 77 77 0 0 1-3.74-7.05 2.4 2.4 0 0 0-3.28-.86 2.46 2.46 0 0 0-.86 3.28m32.25 3.31c3.34 5.9 6.35 11.99 9.7 17.89 1.52 2.68 5.67.27 4.14-2.42-3.35-5.9-6.35-11.99-9.7-17.9-1.52-2.68-5.67-.26-4.14 2.43m4.38 126.59c-1.32 5.7-4.61 10.44-8.45 14.76-1.93 2.16-4.07 4.16-5.9 6.42a37 37 0 0 0-4.52 7.2 41 41 0 0 0-3.05 8.3 59 59 0 0 0-1.04 8.4c-.29 3.27-.76 6.58 0 9.8a15.3 15.3 0 0 0 3.7 6.86 14.3 14.3 0 0 0 6.87 4.07c2.76.7 5.8.64 8.64.83q9.92.69 19.85 1.22a524 524 0 0 0 43.85.69 1018 1018 0 0 0 40.56-2.22 17 17 0 0 0 7.8-2 15 15 0 0 0 5.54-5.75c2.96-5.54 1.58-11.99 1.04-17.94a37 37 0 0 0-5.54-15.66c-3.01-4.94-7.52-8.68-11.1-13.2a33 33 0 0 1-4.54-7.4 18 18 0 0 1-1.58-6.2 107 107 0 0 1 .24-13.54c.75-12.73 2.01-25.44 2.4-38.2a131 131 0 0 0-.45-17.7 157 157 0 0 0-2.8-17.5 89 89 0 0 0-1.81-7c-.9-2.95-5.54-1.7-4.63 1.27a115 115 0 0 1 3.37 15.27 121 121 0 0 1 1.63 16.16c.33 12.7-.9 25.46-1.85 38.1-.39 5.23-.79 10.45-.95 15.69-.13 4.14-.3 8.51.94 12.52 1.7 5.56 5.09 10.3 8.9 14.6 1.85 2.1 3.88 4.06 5.7 6.19a31 31 0 0 1 4.23 6.76 35 35 0 0 1 2.65 7.48 58 58 0 0 1 .86 7.75c.25 2.85.7 5.77-.18 8.55a10 10 0 0 1-3.67 5.08c-2.02 1.45-4.18 1.72-6.6 1.9l-8.87.6q-9.86.65-19.72 1.12-10.7.51-21.4.7c-7.06.12-14.11-.1-21.16-.35q-10.33-.38-20.64-1.01c-6.01-.36-12.08-.6-18.08-1.2a10.06 10.06 0 0 1-8.71-8.48c-.5-2.96.17-6.24.43-9.22a37 37 0 0 1 1.15-7.3 34 34 0 0 1 7.6-13.7c3.94-4.18 8.01-8.4 10.82-13.47a31 31 0 0 0 3.1-7.96c.69-3.01-3.94-4.3-4.63-1.28Z" class="d"/><path d="M41.1 248.08c-3.64 22.47.1 45.22 1.14 67.75a71 71 0 0 1-.14 12.11 2.4 2.4 0 0 0 2.4 2.4 2.46 2.46 0 0 0 2.4-2.4 64 64 0 0 0 .22-10.28c-.17-4.74-.52-9.47-.87-14.2-.84-11.3-1.75-22.62-1.9-33.96a116 116 0 0 1 1.38-20.14 2.47 2.47 0 0 0-1.68-2.95 2.4 2.4 0 0 0-2.95 1.67m14.25 88.65a179 179 0 0 0 25.04 3.16 143 143 0 0 0 29.83-1.63c3.72-.65 7.4-1.49 11.12-2.15a2.4 2.4 0 0 0 1.67-2.96 2.45 2.45 0 0 0-2.95-1.67c-6.99 1.25-13.7 2.8-20.66 3.33a151 151 0 0 1-30.66-.66c-3.85-.5-8.12-1.34-12.11-2.05a2.47 2.47 0 0 0-2.96 1.67 2.4 2.4 0 0 0 1.68 2.96" class="d"/><path d="M28.86 235.52c1.15 1.62 2.19 3.3 3.26 4.96a20 20 0 0 0 3.35 4.47q4.6 4.06 9.25 8.05a314 314 0 0 0 19.6 15.57 2.4 2.4 0 0 0 2.9-.38 96 96 0 0 0 5.95-8.16 108 108 0 0 0 7.02-10.82 2.5 2.5 0 0 0-.38-2.91 66 66 0 0 1-13.32-19.84 2.5 2.5 0 0 0-2.96-1.67 2.4 2.4 0 0 0-1.67 2.95 72 72 0 0 0 14.56 21.95l-.38-2.9a106 106 0 0 1-6.84 10.57q-1.81 2.6-3.66 5.15l-1.33 1.8c-.09.12-.55.72-.26.35s-.04.05-.12.14l2.91-.38a300 300 0 0 1-18.62-14.81q-4.48-3.84-8.91-7.75a18 18 0 0 1-3.18-4.17c-.98-1.54-1.96-3.1-3.02-4.59a2.47 2.47 0 0 0-3.28-.86 2.4 2.4 0 0 0-.87 3.28m96.24-211.2a35 35 0 0 0-12.07-17.19C107.46 2.95 100.58.96 93.73.27a49 49 0 0 0-20.07 1.95 33.2 33.2 0 0 0-16.59 11.85 35.2 35.2 0 0 0-6.86 21.87l2.4-2.4c-3.74-.1-9.9-1.07-11.3 3.55a27 27 0 0 0-.59 6.47q-.14 3.4-.08 6.82.05 3.57.34 7.13c.29 3.56.63 4.62 2.65 6.15 1.34 1.01 3.12 1.11 4.75 1.24 1.86.14 3.73.19 5.6.32l-2.32-1.76a25.8 25.8 0 0 0 9.52 15.65c4.78 3.57 10.77 5.07 16.56 6.04a64 64 0 0 0 20.05.25c5.62-.83 11.49-2.17 16.37-5.2a25 25 0 0 0 11.13-16.77l-2.32 1.77c1.84-.12 3.67-.16 5.5-.32 1.68-.14 3.43-.28 4.77-1.4 1.85-1.56 2.22-3.7 2.4-5.97q.29-3.55.34-7.12.06-3.41-.08-6.83a31 31 0 0 0-.49-6.1c-1.23-4.9-7.18-4.01-11.06-3.92l2.4 2.4a36 36 0 0 0-1.65-11.61c-.92-2.94-5.56-1.69-4.63 1.27a31 31 0 0 1 1.47 10.33 2.4 2.4 0 0 0 2.4 2.4q2.56-.07 5.13 0a9 9 0 0 0 1 .06c.45-.04.34.38.14-.1a5 5 0 0 1 .27 1.66q.4 5.2.3 10.43-.05 2.88-.24 5.75c-.06.96.16 3.16-.88 3.74a6 6 0 0 1-2.39.27c-1.56.1-3.13.15-4.7.26a2.45 2.45 0 0 0-2.31 1.76c-1 5.1-3.48 10.12-7.82 13.18-4.23 2.98-9.32 4.2-14.34 5.1a57 57 0 0 1-17.43.39c-5.19-.67-10.75-1.76-15.31-4.43-5.16-3.02-8.35-8.43-9.47-14.22a2.44 2.44 0 0 0-2.31-1.76c-1.6-.12-3.2-.18-4.8-.27q-.8-.04-1.57-.13c-.55-.05.17.04-.34-.04a3 3 0 0 1-.75-.14c-.94-.47-.78-2.74-.85-3.71q-.2-2.87-.24-5.75-.1-5.32.32-10.62a7 7 0 0 1 .08-.98c.13-.57.3-.48-.07-.28a3.5 3.5 0 0 1 1.54-.18q2.66-.06 5.3.02a2.4 2.4 0 0 0 2.4-2.4c-.35-12 6.57-23.86 17.9-28.36a43.5 43.5 0 0 1 18-2.71 36.6 36.6 0 0 1 17.09 4.65 29.2 29.2 0 0 1 12.49 16.08c.96 2.92 5.6 1.67 4.62-1.27" class="d"/><path d="M78.15 41.98c.67 2.16.24 7.13-3.86 7.55-5.4-.03-5.7-6.04-3.87-8.86 1.49-2.32 5.87-3.28 7.73 1.3m28.42 0c.67 2.16.23 7.13-3.86 7.55-5.41-.03-5.7-6.04-3.88-8.86 1.5-2.32 5.88-3.28 7.74 1.3" class="d"/></svg>
