<svg xmlns="http://www.w3.org/2000/svg" fill="none" viewBox="0 0 24 24"><path fill="currentColor" fill-rule="evenodd" d="M15.75 6v4.58l4.5 4.88v4.04l-5.4-2.25h-.69a4 4 0 0 1-.02 1.71c-.17.6-.65 1.26-1 1.7l-.67.79-.04.05h-.01v.01l-.59.61-.54-.64-.01-.02q-.02 0-.04-.05a12 12 0 0 1-.6-.78 5 5 0 0 1-.84-1.73c-.12-.56 0-1.19.12-1.65h-.77l-5.4 2.25v-4.04l4.5-4.88V6c0-.64.29-1.2.63-1.63.34-.44.77-.8 1.18-1.1a10 10 0 0 1 1.59-.93l.03-.02h.01l.31-.14.3.14h.02l.03.02.47.24c.3.16.71.4 1.12.7.4.28.84.65 1.18 1.09.34.43.63.99.63 1.63m-4.26 11.25-.08.26c-.13.43-.2.85-.14 1.1s.3.71.61 1.17l.02.03.06-.07c.36-.46.66-.92.74-1.2.08-.26.06-.67-.03-1.1l-.04-.19zM15.75 16v-3.2l3 3.24v1.21zm-1.5-10v9.75h-4.5V6q-.02-.28.3-.7.36-.44.89-.81A9 9 0 0 1 12 3.84a9 9 0 0 1 1.06.65c.34.25.66.52.88.8q.33.45.31.71m-6 6.8V16l-3 1.25v-1.2z" clip-rule="evenodd"/></svg>
