<svg xmlns="http://www.w3.org/2000/svg" fill="none" viewBox="0 0 18 19"><path fill="currentColor" d="M12 17.56H6c-3.46 0-4.11-1.61-4.28-3.18l-.56-6c-.08-.8-.1-1.95.68-2.82q1-1.12 3.41-1.11h7.5c1.63 0 2.74.36 3.41 1.1.78.88.76 2.04.68 2.83l-.57 6c-.16 1.57-.8 3.18-4.27 3.18m-6.75-12q-1.91 0-2.58.75c-.37.4-.49 1.02-.39 1.95l.56 6.01c.13 1.19.45 2.17 3.16 2.17h6c2.7 0 3.03-.98 3.16-2.18l.56-5.99c.1-.94-.02-1.56-.39-1.96q-.67-.75-2.58-.75z"/><path fill="currentColor" d="M12 5.56a.57.57 0 0 1-.56-.56v-.6c0-1.34 0-1.84-1.84-1.84H8.4c-1.84 0-1.84.5-1.84 1.84V5c0 .3-.25.56-.56.56A.57.57 0 0 1 5.44 5v-.6c0-1.32 0-2.96 2.96-2.96h1.2c2.96 0 2.96 1.64 2.96 2.96V5c0 .3-.25.56-.56.56m-3 7.5c-2.06 0-2.06-1.27-2.06-2.04v-.77c0-1.06.25-1.31 1.31-1.31h1.5c1.06 0 1.31.25 1.31 1.31V11c0 .78 0 2.06-2.06 2.06m-.94-3v.96c0 .78 0 .92.94.92s.94-.12.94-.92v-.96z"/><path fill="currentColor" d="M10.5 11.58a.56.56 0 0 1-.07-1.12c1.98-.26 3.88-1 5.48-2.17.25-.19.6-.13.79.13.18.25.12.6-.13.79a13 13 0 0 1-6 2.37zm-3 0h-.07a13 13 0 0 1-5.79-2.16.56.56 0 0 1-.15-.78.56.56 0 0 1 .78-.15 12 12 0 0 0 5.28 1.98c.31.03.53.31.5.62a.54.54 0 0 1-.55.5"/></svg>
