<svg xmlns="http://www.w3.org/2000/svg" preserveAspectRatio="xMidYMid" viewBox="-4 0 256 256"><defs><style>.cls-3{fill:#1c8cea}.cls-5{fill:#ff0078}</style></defs><g id="roller-skates"><path id="path-1" fill-rule="evenodd" d="M210 256a38 38 0 1 1 0-76 38 38 0 0 1 0 76m0-48a10 10 0 1 0 0 20 10 10 0 0 0 0-20m-86 48a38 38 0 1 1 0-76 38 38 0 0 1 0 76m0-48a10 10 0 1 0 0 20 10 10 0 0 0 0-20m-86 48a38 38 0 1 1 0-76 38 38 0 0 1 0 76m0-48a10 10 0 1 0 0 20 10 10 0 0 0 0-20" class="cls-3"/><path id="path-2" fill-rule="evenodd" d="M24.59 103.58 37 16A16 16 0 0 1 53 0h53a16 16 0 0 1 16 16l-3.93 49.88z" class="cls-3"/><path id="path-3" fill-rule="evenodd" d="M237 140c0 17.67-14.67 32-32 32H43a32 32 0 0 1-32-32l4-24 99-40c10.49-2.9 17.05 1 21.1 2.78l82.04 31.61A32 32 0 0 1 237 140" class="cls-5"/><path id="path-4" fill-rule="evenodd" d="m110.6 126.62 21.43-49.82a8 8 0 0 1 10.52-4.16l16.52 7.14a8 8 0 0 1 4.17 10.52l-21.44 49.81a8 8 0 0 1-10.52 4.17l-16.52-7.15a8 8 0 0 1-4.17-10.51" style="fill:#b6cdd5"/><path id="path-5" fill-rule="evenodd" d="M65 19h56c4.42 0 8 3.57 8 7.98l-2 17.46a8 8 0 0 1-8 7.98H62c-4.42 0-8-3.57-8-7.98l3-17.46A8 8 0 0 1 65 19" class="cls-5"/></g></svg>
