<svg viewBox="0 0 24 24" fill="none" xmlns="http://www.w3.org/2000/svg"><path d="M13.0008 22.0008C12.3841 22.0008 11.7798 21.9381 11.1878 21.8128C10.5958 21.6874 10.0168 21.5084 9.45078 21.2758C9.10078 21.1258 8.90511 20.8758 8.86378 20.5258C8.82245 20.1758 8.94311 19.8591 9.22578 19.5758C9.34245 19.4591 9.49245 19.3841 9.67578 19.3508C9.85911 19.3174 10.0341 19.3424 10.2008 19.4258C10.6341 19.6258 11.0884 19.7718 11.5638 19.8638C12.0391 19.9558 12.5181 20.0014 13.0008 20.0008C14.9508 20.0008 16.6051 19.3214 17.9638 17.9628C19.3224 16.6041 20.0014 14.9501 20.0008 13.0008C20.0008 11.0508 19.3214 9.39645 17.9628 8.03778C16.6041 6.67911 14.9501 6.00011 13.0008 6.00078H12.8508L13.7258 6.87578C13.9091 7.05911 14.0008 7.29245 14.0008 7.57578C14.0008 7.85911 13.9091 8.09245 13.7258 8.27578C13.5258 8.47578 13.2841 8.57578 13.0008 8.57578C12.7174 8.57578 12.4841 8.47578 12.3008 8.27578L9.70078 5.70078C9.61745 5.60078 9.55078 5.49245 9.50078 5.37578C9.45078 5.25911 9.42578 5.13411 9.42578 5.00078C9.42578 4.86745 9.45078 4.73811 9.50078 4.61278C9.55078 4.48745 9.61745 4.38345 9.70078 4.30078L12.3008 1.70078C12.4841 1.51745 12.7174 1.42578 13.0008 1.42578C13.2841 1.42578 13.5258 1.51745 13.7258 1.70078C13.9091 1.90078 14.0008 2.14245 14.0008 2.42578C14.0008 2.70911 13.9091 2.94245 13.7258 3.12578L12.8508 4.00078H13.0008C14.2508 4.00078 15.4218 4.23845 16.5138 4.71378C17.6058 5.18911 18.5558 5.83078 19.3638 6.63878C20.1718 7.44678 20.8134 8.39678 21.2888 9.48878C21.7641 10.5808 22.0014 11.7514 22.0008 13.0008C22.0008 15.5008 21.1258 17.6258 19.3758 19.3758C17.6258 21.1258 15.5008 22.0008 13.0008 22.0008ZM7.00078 18.5758C6.86745 18.5758 6.74245 18.5548 6.62578 18.5128C6.50911 18.4708 6.40078 18.4001 6.30078 18.3008L1.70078 13.7008C1.60078 13.6008 1.53011 13.4924 1.48878 13.3758C1.44745 13.2591 1.42645 13.1341 1.42578 13.0008C1.42578 12.8674 1.44678 12.7424 1.48878 12.6258C1.53078 12.5091 1.60145 12.4008 1.70078 12.3008L6.30078 7.70078C6.40078 7.60078 6.50911 7.52978 6.62578 7.48778C6.74245 7.44578 6.86745 7.42511 7.00078 7.42578C7.13411 7.42578 7.25911 7.44678 7.37578 7.48878C7.49245 7.53078 7.60078 7.60145 7.70078 7.70078L12.3008 12.3008C12.4008 12.4008 12.4718 12.5091 12.5138 12.6258C12.5558 12.7424 12.5764 12.8674 12.5758 13.0008C12.5758 13.1341 12.5551 13.2591 12.5138 13.3758C12.4724 13.4924 12.4014 13.6008 12.3008 13.7008L7.70078 18.3008C7.60078 18.4008 7.49245 18.4718 7.37578 18.5138C7.25911 18.5558 7.13411 18.5765 7.00078 18.5758ZM7.00078 16.1508L10.1508 13.0008L7.00078 9.85078L3.85078 13.0008L7.00078 16.1508Z" fill="currentColor"/></svg>
