<svg xmlns="http://www.w3.org/2000/svg" fill="none" viewBox="0 0 24 24"><path stroke="currentColor" stroke-linecap="round" stroke-width="1.5" d="M11 15a3 3 0 0 1-3-3v-2m3 5a3 3 0 0 0 3-3v-2m-3 5v-5m3 0a3 3 0 1 0-6 0m6 0H8m6.07 1h1.43m-9 0H8m6 2.5 1 .5m-7-.5L7 14m7-5.5 1-.5m-7 .5L7 8m14.81 12.97c-.06.1-.17.21-.4.44s-.34.34-.44.4c-.55.37-1.3.18-1.61-.4-.06-.1-.1-.26-.2-.57a4 4 0 0 1-.16-.62c-.05-.7.53-1.27 1.22-1.22.12.01.29.06.62.16.31.1.46.14.56.2.59.31.78 1.06.41 1.61Z"/><path stroke="currentColor" stroke-linecap="round" stroke-width="1.5" d="M6.75 3.27a9.5 9.5 0 1 1-3.48 3.48"/></svg>
