<svg xmlns="http://www.w3.org/2000/svg" fill="none" viewBox="0 0 24 24"><path stroke="currentColor" stroke-width="1.5" d="M2.07 4.6c.8-3.46 6.01-3.46 6.8 0 .47 2.03-.82 3.75-1.94 4.82-.82.78-2.11.77-2.93 0C2.89 8.35 1.6 6.63 2.07 4.6Zm13 12c.8-3.46 6.04-3.46 6.84 0 .47 2.03-.82 3.75-1.95 4.82-.82.78-2.12.77-2.94 0-1.13-1.07-2.42-2.79-1.95-4.82Z"/><path stroke="currentColor" stroke-linecap="round" stroke-linejoin="round" stroke-width="1.5" d="M12 5h2.68A2 2 0 0 1 16 8.51L8.01 15.5A2 2 0 0 0 9.32 19H12"/></svg>
