<svg viewBox="0 0 20 20" fill="none" xmlns="http://www.w3.org/2000/svg"><path fill-rule="evenodd" clip-rule="evenodd" d="M14.248 11.875C14.8814 11.8749 15.3989 11.8754 15.8154 11.913C16.2456 11.9519 16.635 12.0345 16.9863 12.2431C17.2578 12.4044 17.4956 12.6151 17.6836 12.8652C17.9341 13.1984 18.0349 13.573 18.0811 13.9765C18.1246 14.3574 18.125 14.8267 18.125 15.3818V15.4521C18.125 16.0072 18.1246 16.4766 18.0811 16.8574C18.0349 17.2606 17.9339 17.6347 17.6836 17.9677C17.4956 18.2178 17.2578 18.4285 16.9863 18.5898C16.635 18.7985 16.2456 18.882 15.8154 18.9209C15.3989 18.9585 14.8814 18.958 14.248 18.958H5.75195C5.11862 18.958 4.60113 18.9585 4.18457 18.9209C3.75438 18.882 3.36501 18.7985 3.01367 18.5898C2.74223 18.4285 2.50437 18.2178 2.31641 17.9677C2.06613 17.6347 1.96514 17.2606 1.91895 16.8574C1.87537 16.4766 1.87498 16.0072 1.875 15.4521V15.3818C1.87498 14.8267 1.87537 14.3574 1.91895 13.9765C1.96513 13.573 2.06591 13.1984 2.31641 12.8652C2.50441 12.6151 2.74217 12.4044 3.01367 12.2431C3.365 12.0345 3.7544 11.9519 4.18457 11.913C4.60112 11.8754 5.11862 11.8749 5.75195 11.875H14.248ZM5.78125 13.125C5.11133 13.125 4.65046 13.1252 4.29688 13.1572C3.95065 13.1885 3.7739 13.2461 3.65234 13.3183C3.51453 13.4002 3.40095 13.5024 3.31543 13.6162C3.24999 13.7032 3.19297 13.8316 3.16016 14.1181C3.12566 14.4195 3.125 14.8172 3.125 15.4169C3.125 16.0165 3.12567 16.4135 3.16016 16.7148C3.19294 17.0013 3.25003 17.1296 3.31543 17.2167C3.40092 17.3305 3.51459 17.4327 3.65234 17.5146C3.77389 17.5868 3.95067 17.6444 4.29688 17.6757C4.65046 17.7077 5.11133 17.708 5.78125 17.708H14.2188C14.8887 17.708 15.3495 17.7077 15.7031 17.6757C16.0493 17.6444 16.2261 17.5868 16.3477 17.5146C16.4854 17.4327 16.5991 17.3305 16.6846 17.2167C16.75 17.1296 16.8071 17.0013 16.8398 16.7148C16.8743 16.4135 16.875 16.0165 16.875 15.4169C16.875 14.8172 16.8743 14.4195 16.8398 14.1181C16.807 13.8316 16.75 13.7032 16.6846 13.6162C16.599 13.5024 16.4855 13.4002 16.3477 13.3183C16.2261 13.2461 16.0494 13.1885 15.7031 13.1572C15.3495 13.1252 14.8887 13.125 14.2188 13.125H5.78125ZM10.0518 2.70796C10.3968 2.70796 10.6766 2.98793 10.6768 3.33296C10.6768 3.67814 10.3969 3.95796 10.0518 3.95796H5.78125C5.11133 3.95796 4.65046 3.95919 4.29688 3.99116C3.95069 4.02249 3.77389 4.07913 3.65234 4.15132C3.51453 4.23317 3.40097 4.33543 3.31543 4.44917C3.24995 4.53628 3.19297 4.66535 3.16016 4.9521C3.1257 5.25345 3.125 5.65039 3.125 6.24995C3.125 6.84952 3.1257 7.24645 3.16016 7.5478C3.19297 7.83455 3.24995 7.96362 3.31543 8.05073C3.40097 8.16448 3.51453 8.26673 3.65234 8.34859C3.77389 8.42078 3.9507 8.47741 4.29688 8.50874C4.65046 8.54071 5.11133 8.54194 5.78125 8.54194H14.2188C14.8887 8.54194 15.3495 8.54071 15.7031 8.50874C16.0493 8.47742 16.2261 8.42077 16.3477 8.34859C16.6444 8.17235 17.0278 8.26969 17.2041 8.56636C17.3803 8.86298 17.2827 9.24641 16.9863 9.4228C16.635 9.63147 16.2456 9.71496 15.8154 9.75386C15.3989 9.79153 14.8814 9.79195 14.248 9.79195H5.75195C5.11861 9.79195 4.60113 9.79153 4.18457 9.75386C3.75439 9.71496 3.365 9.63147 3.01367 9.4228C2.74235 9.26158 2.50432 9.05165 2.31641 8.80171C2.06593 8.4685 1.96514 8.09385 1.91895 7.69038C1.87536 7.30951 1.87498 6.84031 1.875 6.28511V6.2148C1.87498 5.65959 1.87536 5.1904 1.91895 4.80952C1.96514 4.40606 2.06593 4.03141 2.31641 3.69819C2.50432 3.44826 2.74235 3.23833 3.01367 3.0771C3.365 2.86843 3.75439 2.78495 4.18457 2.74605C4.60112 2.70838 5.11862 2.70795 5.75195 2.70796H10.0518ZM17.0576 1.22554C17.3017 0.981474 17.6983 0.981448 17.9424 1.22554C18.186 1.46962 18.1862 1.86537 17.9424 2.10933L15.8838 4.16694L17.9424 6.22456C18.186 6.46865 18.1863 6.86441 17.9424 7.10835C17.6983 7.35244 17.3017 7.35242 17.0576 7.10835L15 5.05073L12.9424 7.10835C12.6983 7.35242 12.3017 7.35244 12.0576 7.10835C11.8139 6.8643 11.8138 6.46854 12.0576 6.22456L14.1162 4.16694L12.0576 2.10835C11.8139 1.8643 11.8138 1.46855 12.0576 1.22456C12.3017 0.980471 12.6983 0.980498 12.9424 1.22456L15 3.28316L17.0576 1.22554Z" fill="currentColor"/></svg>
