<svg xmlns="http://www.w3.org/2000/svg" fill="none" viewBox="0 0 24 24"><path fill="currentColor" d="M13.25 19.42a.75.75 0 0 0-1.06 1.06zM15.62 22v-.75zM4.05 5.5l.53.52zm-.53 6.3a.75.75 0 1 0 1.06-1.05zm7.76-7.75.53.53a.75.75 0 0 0 0-1.06zm-5.79 0-.53-.53zm14.46 8.67.54-.53a.75.75 0 0 0-1.07 0zm2.05 2.9h.75zM8.34 5.92A.75.75 0 0 0 9.4 7zM17 14.6a.75.75 0 0 0 1.06 1.06zm1.48 6.43a.75.75 0 0 0-1.06-1.06zm1.44-3.56a.75.75 0 1 0 1.06 1.06zM4.96 3.52 3.52 4.96l1.06 1.06 1.44-1.44zm7.23 16.97q.99 1.01 1.72 1.6c.51.39 1.05.66 1.7.66v-1.5c-.19 0-.41-.07-.8-.36-.39-.3-.86-.77-1.56-1.47zM3.52 4.96c-.67.67-1.23 1.22-1.6 1.72a2.7 2.7 0 0 0-.67 1.7h1.5c0-.19.07-.41.36-.8.3-.4.77-.86 1.47-1.56zm1.06 5.79c-.7-.7-1.17-1.17-1.47-1.57-.3-.38-.36-.6-.36-.8h-1.5c0 .66.27 1.2.67 1.71q.57.73 1.6 1.72zm7.23-7.23q-.99-1.03-1.72-1.6a2.8 2.8 0 0 0-1.7-.67v1.5c.19 0 .41.07.8.36.39.3.86.77 1.56 1.47zM6.02 4.58c.7-.7 1.17-1.17 1.57-1.47.38-.3.6-.36.8-.36v-1.5c-.66 0-1.2.27-1.71.67q-.73.57-1.72 1.6zm13.4 8.67c.7.7 1.17 1.17 1.47 1.57.3.38.36.6.36.8h1.5c0-.66-.27-1.2-.67-1.71q-.57-.73-1.6-1.72zm-8.67-9.73-2.41 2.4L9.4 7l2.4-2.41zm8.67 8.67-2.4 2.41 1.05 1.06 2.41-2.4zm-1.99 7.78q-.73.74-1.17 1.03c-.29.2-.48.25-.64.25v1.5c.55 0 1.03-.2 1.48-.5q.63-.46 1.39-1.22zM21 18.53q.78-.77 1.24-1.41.5-.68.52-1.5h-1.5c0 .17-.05.36-.25.65-.22.31-.56.68-1.07 1.2z"/><path stroke="currentColor" stroke-linecap="round" stroke-width="1.5" d="m14.36 4.08.93-.93a3.93 3.93 0 0 1 5.56 5.56l-.93.93m-5.56-5.56s.12 1.97 1.85 3.7a6.3 6.3 0 0 0 3.71 1.86m-5.56-5.56L12 6.44m7.92 3.2-5.26 5.26-3.1 3.1-.16.16c-.58.58-.87.87-1.18 1.12q-.57.44-1.22.74c-.36.18-.75.3-1.52.56l-3.28 1.1m0 0-.8.27a1.06 1.06 0 0 1-1.35-1.35l.27-.8m1.88 1.88L2.32 19.8m0 0 1.1-3.28c.25-.77.38-1.16.56-1.53q.3-.64.74-1.2c.25-.32.54-.61 1.12-1.19L8.5 9.94"/></svg>
