<svg xmlns="http://www.w3.org/2000/svg" fill="currentColor" viewBox="0 0 32 32"><path d="M16 0A16 16 0 0 0 0 16a16 16 0 0 0 16 16 16 16 0 0 0 16-16A16 16 0 0 0 16 0m12 17h2a14 14 0 0 1-3.38 8.16l-1.38-1.38a1 1 0 1 0-1.41 1.41l1.38 1.38A14 14 0 0 1 17 30v-2a1 1 0 0 0-2 0v2a14 14 0 0 1-8.16-3.38l1.38-1.38a1 1 0 1 0-1.41-1.41l-1.38 1.33A14 14 0 0 1 2.05 17H4a1 1 0 0 0 0-2H2.05a14 14 0 0 1 3.38-8.16l1.38 1.38a1 1 0 0 0 1.41 0 1 1 0 0 0 0-1.41L6.84 5.43A14 14 0 0 1 15 2.05V4a1 1 0 0 0 2 0V2.05a14 14 0 0 1 8.16 3.38l-1.38 1.38a1 1 0 0 0 0 1.41 1 1 0 0 0 1.41 0l1.38-1.38A14 14 0 0 1 30 15h-2a1 1 0 0 0 0 2"/><path d="m21.86 8.77-8.07 4.66a1 1 0 0 0-.2.2l-.1.11-4.72 8.12a1 1 0 0 0 .87 1.5 1 1 0 0 0 .5-.13l8.07-4.66.11-.09.2-.21 4.66-8.07a1 1 0 0 0-1.37-1.37Zm-7.35 7.15 1.57 1.57-3.71 2.15Zm3 .16-1.57-1.57 3.72-2.14Z"/></svg>
