<svg xmlns="http://www.w3.org/2000/svg" fill="none" viewBox="0 0 24 24"><path stroke="currentColor" stroke-width="1.5" fill="none" d="M2 12c0-4.71 0-7.07 1.46-8.54C4.93 2 7.3 2 12 2s7.07 0 8.54 1.46C22 4.93 22 7.3 22 12s0 7.07-1.46 8.54C19.07 22 16.7 22 12 22s-7.07 0-8.54-1.46C2 19.07 2 16.7 2 12Z"/><path fill="currentColor" d="M13.5 12a1.5 1.5 0 1 1-3 0 1.5 1.5 0 0 1 3 0"/><path fill="currentColor" d="M12.75 12V8h-1.5v4zm-1.05.69 3.5 1.5.6-1.38-3.5-1.5zm0-1.38-3.5 1.5.6 1.38 3.5-1.5z"/><path fill="currentColor" d="M12 15.25A3.25 3.25 0 0 1 8.75 12h-1.5A4.75 4.75 0 0 0 12 16.75zM15.25 12c0 1.8-1.46 3.25-3.25 3.25v1.5A4.75 4.75 0 0 0 16.75 12zM12 8.75c1.8 0 3.25 1.46 3.25 3.25h1.5A4.75 4.75 0 0 0 12 7.25zm0-1.5A4.75 4.75 0 0 0 7.25 12h1.5c0-1.8 1.46-3.25 3.25-3.25zM5.25 7a.75.75 0 0 0-1.5 0zm-1.5 3a.75.75 0 0 0 1.5 0zm1.5 4a.75.75 0 0 0-1.5 0zm-1.5 3a.75.75 0 0 0 1.5 0zM11 5.75h2v-1.5h-2zM18.25 11v2h1.5v-2zM13 18.25h-2v1.5h2zM5.75 13v-2h-1.5v2zM11 18.25c-1.44 0-2.44 0-3.2-.1-.73-.1-1.11-.28-1.4-.56l-1.05 1.06c.6.6 1.36.86 2.26.98.88.12 2 .12 3.39.12zM4.25 13c0 1.4 0 2.51.12 3.4s.38 1.65.98 2.25L6.4 17.6c-.28-.28-.46-.66-.56-1.4-.1-.75-.1-1.75-.1-3.19zm14 0c0 1.44 0 2.44-.1 3.2-.1.73-.28 1.11-.56 1.4l1.06 1.05c.6-.6.86-1.36.98-2.26.12-.88.12-2 .12-3.39zM13 19.75c1.4 0 2.51 0 3.4-.12s1.65-.38 2.25-.98L17.6 17.6c-.28.28-.66.46-1.4.56-.75.1-1.75.1-3.19.1zm0-14c1.44 0 2.44 0 3.2.1.73.1 1.11.28 1.4.56l1.05-1.06c-.6-.6-1.36-.86-2.26-.98-.88-.12-2-.12-3.39-.12zM19.75 11c0-1.4 0-2.51-.12-3.4a3.7 3.7 0 0 0-.98-2.25L17.6 6.4c.28.28.46.66.56 1.4.1.75.1 1.75.1 3.19zM11 4.25c-1.4 0-2.51 0-3.4.12s-1.65.38-2.25.98L6.4 6.4c.28-.28.66-.46 1.4-.56.75-.1 1.75-.1 3.19-.1zM5.75 11c0-1.44 0-2.44.1-3.2.1-.73.28-1.11.56-1.4L5.35 5.36c-.6.6-.86 1.36-.98 2.26-.12.88-.12 2-.12 3.39zm-2-4v3h1.5V7zm0 7v3h1.5v-3z"/></svg>
