<svg xmlns="http://www.w3.org/2000/svg" viewBox="-99.21 0 445.582 445.582"><defs><style>.a{fill:#fff}.e{fill:#211715}.f{fill:#febe69}</style></defs><path d="M104.5 48.62a4.5 4.5 0 0 1 3.3-1.15 4.2 4.2 0 0 1 3.73 2.15c1.25 2.25 1.14 6.34.24 8.87a13.7 13.7 0 0 1-4.12 6.45 5 5 0 0 1-3.86 1.05l-.37-.07a29 29 0 0 1-1.38 3.58c-1.06 2.74-7.01 12.61-14.29 15.79l.12 2.13c.06 1.02.24 2.62.34 4.06l1.2.62c-.06 1.29-.13 3.04-.2 5.15a57 57 0 0 1-16.59 2.76 31.6 31.6 0 0 1-14.67-3.41c-.06-2.3-.14-4.46-.21-6.2L60 88.59a30 30 0 0 0 .29-4.8 28 28 0 0 1-6.86-6.3 34 34 0 0 1-6.35-12.42 4.9 4.9 0 0 1-4.15-1.1 13.7 13.7 0 0 1-3.92-6.58c-.82-2.54-.81-6.64.5-8.85a4.2 4.2 0 0 1 3.81-2.03 4.5 4.5 0 0 1 3.26 1.25S42 21.65 75.46 21.65s29.04 26.97 29.04 26.97m73.29 376.09a43 43 0 0 1 1.18-8.67l-25.4 9.37c-3.7 1.37-7.6 2.76-11.5 2.18s-7.73-3.87-7.41-7.8a10.5 10.5 0 0 1 2.14-4.96c4.79-6.96 11.43-12.4 17.2-18.57a51 51 0 0 0 11.9-.08c2.5-.3 6.62-1.72 8.62-3.39l.52-.25.1 4.99c6.73 3.24 13.4 4.3 22.33 4.52a28 28 0 0 0 4.55-.27l.52 2.68c.89 4.58 2.21 10.09 2.85 15.97a45 45 0 0 1-.35 12.06c-.66 3.96-2.81 7.9-6.55 9.86-4.93 2.59-11.55.93-15.44-2.92s-5.35-9.39-5.26-14.68ZM38.1 437.19a97 97 0 0 0 7.85-7.84 29 29 0 0 0 3.48-4.2c3.5-5.52 3.4-9.88 1.1-20.08a93 93 0 0 1-10.23.14 42 42 0 0 1-8-1.02L29.97 408c-1.5 2.46-9.08 12.68-11.28 15.54-2.22 2.89-5.67 8.45-4.83 12.28.72 3.33 2.17 5.26 5.3 6.6 2.3.97 5.59.88 8.03.4a24 24 0 0 0 10.91-5.63m59.95-6.4c-2.05-2.84-3.42-6.17-5.82-8.72-1.75-1.86-4.03-3.3-5.27-5.53-1.5-2.7-1.18-6-.82-9.07l.63-5.39a63 63 0 0 0 10.5.45 73 73 0 0 0 9.84-1.12l4.31 5.99c2.75 3.8 5.87 8.38 9.01 13.08 2.44 3.64 3.74 8.46 2.13 12.52a10.3 10.3 0 0 1-8.16 6 15.7 15.7 0 0 1-10.12-2.44 22 22 0 0 1-6.15-5.66Z" class="a"/><path d="M73.7 256.8c-1.77 18.71-3.87 43.23-5.65 61.3-2.61 26.62-6.87 59.24-10.12 85.8-3.7.91-8.39 1.61-17.63 1.3-5.32-.17-11.63-1.4-13.9-3.6 1.02-34.68 2.62-96.03 2.96-105.28.95-26.16 1.53-50.84 2.09-74.57H59.7l26.71.06h29.63c-.49 25.53-1.1 54.16-1.7 83.06-.68 32.76-1.37 65.86-1.87 95.2a62 62 0 0 1-15.22 2.46 57 57 0 0 1-16.12-1.52c-1.87-48.88-4.77-93.24-6.57-140.65Z" style="fill:#3d8dcc"/><path d="M62.22 98.39a32 32 0 0 1-3.03-1.19l-1.24-.56c.16 5.89.27 12.79.27 16.42 0 17.9 1.3 37.32 1.47 53.65.23 23.06-.2 39.09-.42 49.09l-.16 5.95h.6l26.75.06-.03-5.55c0-16.01 1-28.12 1.11-51.18.07-12.85 1.1-51.28 1.67-67.8l-2.41.65A53 53 0 0 1 72.63 100a32 32 0 0 1-10.4-1.61m97.55 23.89c-.22 8.07-.46 21.2-.64 28.16-.7 27.07-1.76 50.18-.77 73.9l1.44-.02c3.5-.02 22.05-.66 25.83-.77l2.15-.07c-3.32-33.1-10.21-94.12-11.04-102.34l-.12-1.21A56 56 0 0 1 159.8 121v.1z" class="a"/><path d="M215.54 388.22c1.16-28.22 1.78-109.67 1.93-117l1.22-48.34-34.41.71c-5.64.18-21.3.71-24.48.74l-33.4.77c1.2 8.18 3.52 24.41 4.72 30.96.7 3.88 3.82 25.09 5.2 34.06l1.26 1.43c1.16 14.83 3.55 84.22 5.03 98.56a5.2 5.2 0 0 0 3.52 4.6 50 50 0 0 0 19.76 1.48c2.52-.31 6.63-1.73 8.63-3.4l.52-.37q.04 2.62.1 5.11c6.73 3.24 13.4 4.3 22.32 4.52 7.09.16 12.67-2.42 16.91-4.68.6-.32.7-1.13.76-1.82.15-1.65.28-4.15.41-7.34" style="fill:#645d5c"/><path d="M240.11 211.63c3-3.17 3.25-4.75 4.56-9.3a23 23 0 0 0 .43-7v-.04a58 58 0 0 0-.3-3.4q-.07-.37-.1-.67c-2.7-18.95-6.03-30.75-12.68-52.93a30.3 30.3 0 0 0-10.73-16.78 37 37 0 0 0-5.6-3.64c-4.57-2.09-11-5.11-14.82-6.66a9.1 9.1 0 0 0 3.26-8.39 13 13 0 0 0-5-8.24 24 24 0 0 0-8.88-4.16l-46.41 5.45a24 24 0 0 0-9.75 9.74 14.1 14.1 0 0 0-.04 13.57l-.51 1.24a33 33 0 0 1 3.15 9.46c4.9 22.63 7.31 34.65 8.52 53.76l.04.66c.04.97.07 2.16.04 3.43v.04a23 23 0 0 1-.97 6.94c-1.66 4.44-2.04 5.99-5.27 8.92a42 42 0 0 1-4.67 3.62c-2.72 1.84-5.91 4.3-9.14 6.3.54 4.76.38 6.3 1.15 11.55 1.2 8.18 3.52 24.41 4.72 30.96.36 1.95 1.32 8.26 2.37 15.2l.49 1.54a47 47 0 0 0 13.66 2.47c2.42.08 6.66-.76 8.84-2.55 2.41-2 3.25-4.25 3.41-8a203 203 0 0 0-.68-26.27c-2.26-28.88-.92-55.6-.07-88.01.2-7.3.45-21.42.67-29.33v-.12a56 56 0 0 0 16.82-1.06l.12 1.21c.89 8.85 8.79 78.75 11.72 109.33 1.34 13.9.06 27.15 5.22 33.94 3.53 4.63 9.04 5.38 12.1 5.6 12.69.87 20.58-.97 31.46-4.63l4.67-4.31c4.43-3.14-2.49-23.22-8.8-43.17a50 50 0 0 1 2.62-2.29 40 40 0 0 0 4.38-3.98" style="fill:#bdbdbd"/><path d="M196.18 106.52q.3.52.55 1.07l.16.34.17.42a12 12 0 0 1 .55 1.99c.03.18.07.49.03.13l.04.5a9 9 0 0 1 0 1.06q0 .25-.04.49c-.04.24 0 .1.02-.13l-.06.33a8 8 0 0 1-.26.96q-.08.24-.18.47c.17-.41-.06.11-.08.16a10 10 0 0 1-.54.93l-.28.4-.27.33a13 13 0 0 1-.94.96 20 20 0 0 1-5.18 3.22 2 2 0 0 0-.72 2.74 2.05 2.05 0 0 0 2.74.72c3.95-1.82 7.86-4.57 9.3-8.87 1.17-3.46.15-7.16-1.57-10.24-1.25-2.25-4.7-.23-3.45 2.02Zm-53.33 1.62a20.3 20.3 0 0 0 4.46 16.26 2 2 0 0 0 1.94.52 2.1 2.1 0 0 0 1.4-1.4 3.9 3.9 0 0 0-.44-3.54 2.05 2.05 0 0 0-2.74-.72 2 2 0 0 0-.71 2.74c.11.16.15.15.15.22.01-.38-.06.1-.11.23l3.34-.88a16 16 0 0 1-3-5.85 14 14 0 0 1-.55-3.18 17 17 0 0 1-.01-1.83 17 17 0 0 1 .14-1.51 2.06 2.06 0 0 0-1.4-2.46 2 2 0 0 0-2.46 1.4Zm-.02-14a26.7 26.7 0 0 0-10.11 9.8 16.6 16.6 0 0 0-.4 16.25c1.24 2.26 4.7.25 3.46-2.02-4.46-8.2 2.13-16.58 9.07-20.57 2.23-1.28.22-4.74-2.02-3.45" class="e"/><path d="M147.77 119.35c1.78 2.27 5 2.7 7.68 3.12a61 61 0 0 0 9.25.73 52 52 0 0 0 18.63-3.23 2.06 2.06 0 0 0 1.4-2.46 2 2 0 0 0-2.46-1.4 48 48 0 0 1-16.73 3.09 56 56 0 0 1-8.12-.46c-2.14-.28-5.4-.4-6.82-2.23a2 2 0 0 0-2.83 0 2.05 2.05 0 0 0 0 2.83Zm12.03 106.97c8.61-.08 17.23-.52 25.83-.77 2.57-.08 2.58-4.08 0-4-8.6.25-17.22.7-25.83.77-2.57.03-2.58 4.03 0 4m-24.22 65.23c.49 6.26.73 12.54 1.03 18.82q.67 14.34 1.28 28.68.63 14.54 1.34 29.07c.34 6.8.65 13.63 1.24 20.43.17 2.01.4 3.97 1.65 5.65 2.03 2.7 5.81 3.15 8.94 3.66 6.84 1.11 14.5 1.36 20.99-1.38a16 16 0 0 0 3.89-2.27 2 2 0 0 0 0-2.83 2.05 2.05 0 0 0-2.83 0 16 16 0 0 1-7.7 2.86 49 49 0 0 1-10.89.08 44 44 0 0 1-4.8-.77c-1.24-.27-2.93-.41-3.94-1.24-1.22-.99-1.22-2.65-1.34-4.09-.55-6.56-.86-13.14-1.19-19.71-.94-18.7-1.68-37.4-2.55-56.1-.32-6.96-.58-13.92-1.12-20.86-.2-2.55-4.2-2.57-4 0" class="e"/><path d="M172.32 261.71c.1 16.59.1 33.17.13 49.76.04 19.1.1 38.21.27 57.31q.13 14.25.41 28.49c.06 2.57 4.06 2.58 4 0-.38-17.79-.5-35.58-.58-53.37q-.13-28.16-.14-56.3-.03-12.94-.09-25.88c-.01-2.58-4.01-2.58-4 0ZM200.6 405c1.11 5.68 2.53 11.34 2.93 17.13a43 43 0 0 1-.35 9.36 14 14 0 0 1-2.65 6.63c-3.02 3.74-8.05 4.29-12.29 2.44-4.69-2.03-7.28-6.61-8.15-11.48-1.17-6.52.92-13.15 2.55-19.4.65-2.5-3.2-3.56-3.86-1.07-1.7 6.52-3.65 13.24-2.77 20.04.76 5.9 3.6 11.65 8.9 14.7 4.92 2.83 11.49 3.24 16.18-.28 5.16-3.87 6.3-10.27 6.52-16.35.26-7.7-1.68-15.27-3.15-22.78-.5-2.53-4.35-1.46-3.86 1.06m-48.56-9.57c-3.59 3.76-7.44 7.27-10.98 11.06a69 69 0 0 0-4.97 5.92c-1.55 2.08-3.08 4.32-3.39 6.97-.53 4.62 3.16 8.41 7.3 9.78 5.32 1.76 11.01-.67 15.97-2.5l18.6-6.87c2.4-.88 1.36-4.75-1.07-3.85l-14.64 5.4q-3.68 1.38-7.38 2.72a24 24 0 0 1-7.07 1.67c-3.16.1-7.73-1.62-7.77-5.42-.02-2.13 1.58-4.09 2.78-5.71a59 59 0 0 1 4.32-5.12c3.59-3.86 7.5-7.4 11.13-11.22 1.77-1.86-1.05-4.7-2.83-2.83" class="e"/><path d="M215.47 271.21c-.12 5.95-.15 11.9-.21 17.86q-.18 17.02-.4 34.03-.24 18.84-.58 37.67c-.2 9.6-.37 19.2-.8 28.78q-.09 2.16-.22 4.31a12 12 0 0 0-.12 1.64c0 .06-.05.25-.04.27.1.2.43-.09.13-.06a6 6 0 0 0-1.3.67q-1.3.67-2.65 1.26a31 31 0 0 1-13.64 2.35 57 57 0 0 1-13.35-1.88 39 39 0 0 1-5.87-2.18 2.06 2.06 0 0 0-2.74.72 2 2 0 0 0 .72 2.73 46 46 0 0 0 12.8 3.85 54 54 0 0 0 15.2.5 39 39 0 0 0 12.43-4.34c2.35-1.24 2.32-3.63 2.46-5.96.54-8.65.66-17.34.85-26q.41-18.9.64-37.78.25-18.1.44-36.21.1-10.65.23-21.32l.02-.9c.05-2.58-3.95-2.58-4 0Z" class="e"/><path d="M174.74 121.14c.72 7.13 1.55 14.25 2.33 21.37q2.1 18.95 4.16 37.9 2.1 19.33 4.1 38.68c.64 6.25 1.33 12.5 1.65 18.77.23 4.47.33 8.96.76 13.42a36 36 0 0 0 2.46 11.05 15 15 0 0 0 7.34 7.7 25 25 0 0 0 9.65 2.06 73 73 0 0 0 24.53-2.87q3.05-.9 6.05-1.92c2.43-.81 1.39-4.67-1.06-3.85-7.57 2.54-15.2 4.54-23.22 4.74-6.37.16-14.87.43-18.74-5.75a23 23 0 0 1-2.8-9.25c-.54-4.18-.65-8.41-.84-12.62-.3-6.57-.93-13.08-1.6-19.62q-1.9-18.73-3.95-37.44-2.04-18.86-4.13-37.7c-.86-7.84-1.75-15.67-2.57-23.5l-.12-1.17a2.06 2.06 0 0 0-2-2 2 2 0 0 0-2 2m-16.94-.04c-.27 9.65-.4 19.3-.66 28.94-.33 12.95-.8 25.9-1.04 38.84-.22 12.12-.23 24.25.3 36.36.54 12.35 1.95 24.64 1.58 37.02-.08 2.6.06 5.61-1.64 7.77-1.57 2-4.2 2.79-6.61 3.12a28 28 0 0 1-8.73-.58 53 53 0 0 1-6.5-1.7c-2.45-.8-3.5 3.07-1.06 3.85a48 48 0 0 0 14.46 2.55c4.83.02 10.42-1.88 12.66-6.47 1.3-2.66 1.33-5.64 1.42-8.54q.15-4.83.02-9.67c-.16-6.35-.73-12.68-1.14-19.01-1.68-25.72-.6-51.5.12-77.23.33-11.75.5-23.5.83-35.25.07-2.57-3.93-2.57-4 0Zm56.96 25.82c3.43 14.7 6 29.62 9 44.4 3.52 17.3 10 33.78 14.73 50.75q.92 3.27 1.67 6.58.35 1.5.62 3.03c.18.95.3 1.7.37 2.4a18 18 0 0 1 .08 4.12c.07-.6-.05.22-.1.39l-.21.68c.23-.62-.06 0-.14.17-.18.32.33-.35.07-.1-.13.11-.48.4.05 0a2.06 2.06 0 0 0-.72 2.73 2 2 0 0 0 2.74.72c2.05-1.52 2.44-4.05 2.39-6.47a48 48 0 0 0-1.62-10.16c-2.29-9.53-5.5-18.83-8.45-28.17a262 262 0 0 1-7.14-25.44c-1.5-7.23-2.9-14.49-4.33-21.73-1.66-8.33-3.22-16.7-5.15-24.96-.58-2.5-4.44-1.45-3.86 1.06M29.55 217.3c-.46 19.45-.9 38.9-1.5 58.36-.35 11.3-.77 22.61-1.1 33.92l-1.04 37.94-1.2 43.08-.27 9.58a4 4 0 0 0 .38 2.63 6 6 0 0 0 1.93 1.49 20 20 0 0 0 5.1 1.84 56 56 0 0 0 12.98 1.15 65 65 0 0 0 10.25-.76q1.71-.28 3.38-.7a2.1 2.1 0 0 0 1.47-1.92c2.4-19.66 4.93-39.3 7.21-58.96 2.18-18.77 3.96-37.57 5.66-56.38q1.41-15.9 2.9-31.76a2 2 0 0 0-2-2 2.04 2.04 0 0 0-2 2c-1.79 18.79-3.38 37.6-5.18 56.39a2131 2131 0 0 1-6.56 58.13l-4.03 32.58 1.47-1.93a55 55 0 0 1-13.2 1.3 54 54 0 0 1-9.57-.64c-2.2-.4-5.15-.9-6.83-2.45l.59 1.4q.5-17.03.96-34.08l1-36.19.77-27.65c.3-10.55.72-21.1 1.03-31.64q.7-24.43 1.25-48.85l.14-5.88c.06-2.58-3.94-2.58-4 0Zm80.15 191.1q2.5 3.47 4.9 7c1.67 2.44 3.53 4.86 4.95 7.46 2.19 4 2.78 9.63-1.4 12.57-4.26 3-9.76 1.54-13.75-1.17a20 20 0 0 1-5.27-5.43c-1.5-2.28-2.7-4.73-4.39-6.88-1.66-2.13-4.1-3.57-5.65-5.77-1.78-2.5-1.28-5.86-.95-8.71a2 2 0 0 0-2-2 2.05 2.05 0 0 0-2 2c-.36 3.14-.59 6.37.73 9.33 1.18 2.66 3.55 4.29 5.55 6.27 2.14 2.13 3.42 4.9 5.03 7.42a25 25 0 0 0 6.42 6.86c4.87 3.52 11.46 5.1 17.03 2.28 5.48-2.76 7.35-8.86 5.82-14.56-.94-3.48-3.05-6.35-5.04-9.29q-3.2-4.75-6.53-9.4a2.06 2.06 0 0 0-2.73-.7 2 2 0 0 0-.72 2.73Z" class="e"/><path d="M49.29 408.83a29 29 0 0 1 .75 9.4 15.3 15.3 0 0 1-3.52 7.5 101 101 0 0 1-7.68 8.1 29 29 0 0 1-8.2 5.84c-5.08 2.25-13.74 2.7-14.85-4.38-.44-2.75 1.33-5.75 2.73-7.99 1.18-1.9 2.6-3.65 3.94-5.45 3.14-4.2 6.48-8.37 9.24-12.84 1.35-2.2-2.1-4.2-3.46-2.02-2.7 4.4-6 8.5-9.08 12.63a75 75 0 0 0-4.38 6.12c-1.82 3.03-3.52 6.7-2.9 10.32a10.5 10.5 0 0 0 5.63 7.8c3.55 1.74 7.82 1.58 11.57.58 7.77-2.09 13.32-8.34 18.6-14 2.75-2.95 5.19-6.27 6.06-10.28.9-4.1.2-8.33-.6-12.39-.5-2.52-4.34-1.46-3.85 1.06m23.28-148.47c.7 18.15 1.57 36.3 2.48 54.45.92 18.2 1.88 36.4 2.74 54.6q.74 15.8 1.35 31.6a2.05 2.05 0 0 0 1.47 1.93 58 58 0 0 0 17.25 1.56 57 57 0 0 0 15.16-2.5 2.1 2.1 0 0 0 1.47-1.93q.6-35.38 1.36-70.75l1.52-73.5q.4-19.22.76-38.44c.05-2.57-3.95-2.57-4 0q-.66 35.18-1.42 70.35-.77 36.74-1.5 73.49-.38 19.42-.72 38.85l1.47-1.92a53 53 0 0 1-14.1 2.36 54 54 0 0 1-16.19-1.43l1.47 1.93c-.7-18.5-1.59-37-2.52-55.5-.92-18.1-1.88-36.2-2.73-54.3q-.72-15.43-1.32-30.85c-.1-2.57-4.1-2.58-4 0m45.31-123.57a36 36 0 0 1 6.76-5.7q4.1-2.74 8.4-5.16c2.25-1.26.23-4.72-2.02-3.45a121 121 0 0 0-8.62 5.31 39 39 0 0 0-7.34 6.17 2.05 2.05 0 0 0 0 2.83 2 2 0 0 0 2.83 0Z" class="e"/><path d="M105.24 99.66c4.4 1.84 6.91 3.4 11.02 5.5q2.73 1.4 5.74 3.1a38 38 0 0 1 5.3 4.06 30.2 30.2 0 0 1 9.4 17.56c4.9 22.63 7.3 34.65 8.52 53.76q0 .3.04.66c.04.97.07 2.16.04 3.43v.04a23 23 0 0 1-.98 6.94c-1.66 4.44-2.04 5.99-5.27 8.92a42 42 0 0 1-4.67 3.62c-2.72 1.84-5.91 4.3-9.13 6.3.53 4.76.37 6.3 1.14 11.55 1.2 8.18 3.53 24.41 4.73 30.96.71 3.89 3.83 25.09 5.2 34.06a2.65 2.65 0 0 1-1.83 2.93c-5.08 1.61-17.28 3.54-27.05 4.15h-1c-4.73.29-11.51-.34-15.87-.59a2.5 2.5 0 0 1-2.37-2.45c-.13-14.93-1.77-59.68-1.77-77.9 0-16 1-28.12 1.11-51.17a3487 3487 0 0 1 1.97-75.07c.08-.91 1.28-1 1.93-.72a81 81 0 0 1 12.45 8.27ZM54.8 297.32a142 142 0 0 1-15.17-.13c-9.76-.6-21.96-2.53-27.04-4.15a2.65 2.65 0 0 1-1.84-2.92c1.38-8.97 4.5-30.18 5.2-34.06 1.2-6.55 3.53-22.78 4.73-30.96.84-5.7 1.47-10.94 2.04-16.09-5.71-2.91-9.42-4.79-13.8-8.9-3.2-2.98-4.49-5.19-6.06-9.65-1.05-2.98-.92-8.37-.7-11.09 1.54-19.1 3.65-29.52 9.06-52.03 1.81-7.55 5.42-15.24 10.85-19.83a32 32 0 0 1 4.62-3.1 149 149 0 0 1 14.92-7.09c3.5-3.95 12-8.79 14.08-9.7.64-.28 1.84-.18 1.93.72.34 5.32.59 19.03.59 24.72 0 17.9 1.3 37.32 1.47 53.65.24 23.06-.2 39.08-.41 49.08-.33 14.66-2.09 61.09-3.14 78.98a2.55 2.55 0 0 1-2.37 2.46 126 126 0 0 1-14.13-.04Z" class="f"/><path d="M57.68 37.74a87 87 0 0 0-6.4 6.2l-4.7 3.81a4.5 4.5 0 0 0-3.25-1.25 5 5 0 0 0-1.41.2 38 38 0 0 1-1.25-11.47A34.7 34.7 0 0 1 55.4 8.3a34 34 0 0 1 20.75-6.28A34.4 34.4 0 0 1 97.48 9.5c6.4 4.99 12.79 13.49 13.15 26.78a37 37 0 0 1-1.55 11.4 6 6 0 0 0-1.28-.22 4.5 4.5 0 0 0-3.3 1.15l-4.53-3.7c-1.43-3.76-4.72-7.93-8.17-10.99a19 19 0 0 0-5.25-3.41l-5.74-.8c-3.9 1.58-9.43 4.93-12.53 6.6a1.05 1.05 0 0 1-1.48-1.16 6 6 0 0 0-.1-2.01c-.2-.85-.83-1.22-1.34-.96a42 42 0 0 0-7.68 5.56" style="fill:#908b8a"/><path d="M48 46.33a6.9 6.9 0 0 0-7.54-1.2 6.6 6.6 0 0 0-3.5 4.4 16.6 16.6 0 0 0 2.24 13.13c1.66 2.56 4.32 4.85 7.58 4.47a2.06 2.06 0 0 0 2-2 2 2 0 0 0-2-2c-2.3.27-3.78-1.7-4.74-3.54a13 13 0 0 1-1.54-5.09c-.13-1.8-.03-3.88.97-5.28-.35.49.54-.43.25-.23a2 2 0 0 1 .99-.43 2.7 2.7 0 0 1 2.46.6c1.9 1.74 4.73-1.08 2.83-2.83m57.92 3.7a2.7 2.7 0 0 1 2.36-.5 2 2 0 0 1 1.01.45q.18.12-.02-.02l.2.19.17.19q-.2-.27-.08-.1c.96 1.4 1.01 3.45.84 5.23a13 13 0 0 1-1.61 4.94c-.81 1.51-2.44 3.94-4.47 3.65a2.07 2.07 0 0 0-2.45 1.4 2 2 0 0 0 1.4 2.46c5.58.81 8.91-4.37 10.47-9.01 1.29-3.84 1.32-9.74-2.34-12.33a6.9 6.9 0 0 0-8.3.63 2 2 0 0 0 0 2.82 2.04 2.04 0 0 0 2.82 0" class="e"/><path d="M102.08 63.27a27 27 0 0 1-1.44 4.51l-.24.54a19 19 0 0 1-.62 1.35 38 38 0 0 1-3.26 5.21c-2.86 3.93-6.77 8.18-11.71 9.26-2.52.55-1.45 4.41 1.06 3.86 5.83-1.28 10.35-6.08 13.79-10.67a39 39 0 0 0 3.57-5.64q.25-.48.46-.99c.53-1.2.01-.02.25-.55l.4-.92a30 30 0 0 0 1.6-4.9c.55-2.5-3.3-3.57-3.87-1.06m-57.46.1c2.33 11 10.41 23.03 22.22 25a2.06 2.06 0 0 0 2.46-1.4 2 2 0 0 0-1.4-2.46c-10.52-1.75-17.36-12.45-19.43-22.2-.53-2.52-4.39-1.45-3.86 1.06ZM95.98 6.09a37.6 37.6 0 0 0-35.3-3.07 37 37 0 0 0-19.95 21.52 39.3 39.3 0 0 0-.87 22.17c.6 2.5 4.45 1.45 3.85-1.06-2.52-10.6-.38-22.02 6.9-30.32a34 34 0 0 1 10-7.88 33.4 33.4 0 0 1 16.43-3.4 32 32 0 0 1 16.92 5.5c2.14 1.43 4.15-2.03 2.01-3.46Zm15.15 41.63a40 40 0 0 0-.34-22.6 36 36 0 0 0-9.54-15.02c-1.87-1.76-4.7 1.06-2.82 2.83a31.5 31.5 0 0 1 8.5 13.25 36 36 0 0 1 .35 20.48c-.65 2.5 3.2 3.56 3.85 1.06m-41.57 25.3a12 12 0 0 0 5.83 1.47 9.6 9.6 0 0 0 5.82-1.46 2.2 2.2 0 0 0 .91-1.2 2 2 0 0 0-.2-1.55 2 2 0 0 0-2.73-.71 4 4 0 0 1-.6.38l-.18.09c-.29.14.12-.06.19-.08l-.53.19q-.3.1-.62.17a2 2 0 0 1-.65.12q.4-.06.17-.03l-.22.02a13 13 0 0 1-2.7-.03s.46.07.01 0a10 10 0 0 1-1.28-.3l-.53-.19c-.31-.11.11.04.19.09q-.11-.06-.23-.1l-.64-.34a2 2 0 1 0-2.02 3.46Zm4.88-13.61q.35 1.4.57 2.83l-.07-.53a2 2 0 0 1 .01.44l.07-.53-.04.18.2-.48-.07.12.32-.4-.1.08.4-.31-.23.12.48-.2-.38.1.53-.07h-.36l.53.07-.4-.08a1.5 1.5 0 0 0-.8-.04 1.5 1.5 0 0 0-.74.24 2 2 0 0 0-.72 2.74 2 2 0 0 0 1.2.92c.35.05.7.14 1.06.16a3.5 3.5 0 0 0 1.63-.39 2.5 2.5 0 0 0 1.33-1.6 4 4 0 0 0 0-1.67 33 33 0 0 0-.56-2.76 2 2 0 0 0-2.46-1.4 2 2 0 0 0-1.2.92 2 2 0 0 0-.2 1.54m-14.56-8.52c-.5 1.55-.25 5.14 2.7 5.49 3.9.03 4.17-4.3 2.89-6.36-1.05-1.68-4.2-2.42-5.6.87m31.24.46c.46 1.57.1 5.15-2.86 5.41-3.9-.08-4.05-4.42-2.7-6.44 1.1-1.65 4.27-2.3 5.56 1.03m-5.58-19.11a22 22 0 0 1 7.25 5.44 31 31 0 0 1 3.06 3.8q.68.98 1.26 2.03a18 18 0 0 1 .93 1.94 2.06 2.06 0 0 0 2.46 1.4 2 2 0 0 0 1.4-2.46 30 30 0 0 0-6.1-9.35 26 26 0 0 0-8.23-6.25 2.06 2.06 0 0 0-2.74.72 2 2 0 0 0 .72 2.74Z" class="e"/><path d="M52.69 45.35a84 84 0 0 1 7.19-6.88 46 46 0 0 1 4.04-3.1 22 22 0 0 0 1.93-1.2l.26-.13q-1.6-1.08-1.28-.15a6 6 0 0 0-.01 1.12c0 1.83 1.18 3.5 3.18 3.4 1.45-.08 3.02-1.32 4.24-2.02a83 83 0 0 1 9.1-4.74 2.07 2.07 0 0 0 1.4-2.46 2 2 0 0 0-2.46-1.4 87 87 0 0 0-9.57 4.88l-2.13 1.2c-.25.14-.9.35-1.06.58q1.34 1.5 1.32.41l.01-.3c.05-1.87-.65-4.1-2.77-4.42-1.52-.22-3.12 1.06-4.32 1.87-1.47 1-2.89 2.12-4.26 3.26a83 83 0 0 0-7.64 7.25c-1.75 1.88 1.07 4.72 2.83 2.83M62 88.59q.22-1.65.28-3.32a2 2 0 0 0-3.41-1.42 2 2 0 0 0-.59 1.42 35 35 0 0 1-.28 3.32 2.2 2.2 0 0 0 .58 1.41 2 2 0 0 0 2.83 0l.31-.4a2 2 0 0 0 .28-1.01m23.87-1.17c.08 1.36.24 2.7.34 4.06a2 2 0 0 0 .58 1.42 2 2 0 0 0 2.83 0 2 2 0 0 0 .58-1.41c-.1-1.36-.26-2.7-.33-4.07a2 2 0 0 0-.59-1.41 2 2 0 0 0-2.83 0 2 2 0 0 0-.58 1.41m-27.7 11.5c9.37 4.17 19.43 3.55 29.15.95 2.48-.67 1.43-4.53-1.06-3.86-8.56 2.29-17.76 3.15-26.07-.54a2.06 2.06 0 0 0-2.74.72 2 2 0 0 0 .72 2.74Zm-35.15 108a56 56 0 0 1-11.3-6.97 24 24 0 0 1-4.28-4.46 22 22 0 0 1-2.51-5.17c-1.26-3.5-1.05-7.5-.76-11.15q.51-6.47 1.3-12.9c1-7.92 2.5-15.76 4.21-23.55q1.65-7.44 3.46-14.84a44 44 0 0 1 5.29-13.01 26 26 0 0 1 4.76-5.7 30 30 0 0 1 5.8-3.73 171 171 0 0 1 15.43-7.12 2.06 2.06 0 0 0 1.4-2.46 2 2 0 0 0-2.46-1.4A186 186 0 0 0 28.85 101c-4.2 2.17-8.2 4.51-11.25 8.22-6.72 8.18-8.62 18.65-10.92 28.68a287 287 0 0 0-4.81 25.43q-.9 6.6-1.47 13.22c-.37 4.25-.72 8.6.11 12.82 2.07 10.56 11.65 16.5 20.5 21 2.29 1.17 4.31-2.28 2.02-3.45Zm79.2-108.47c-2.39 3.36-4.32 7.04-6.76 10.38a2 2 0 0 0 .72 2.73 2.06 2.06 0 0 0 2.74-.71c2.44-3.34 4.37-7.02 6.76-10.38a2 2 0 0 0-.72-2.74 2.05 2.05 0 0 0-2.74.72" class="e"/><path d="M94.01 111.1a117 117 0 0 1 13.7 10.86l-.58-1.41c-.47 9.12-1.93 18.24-3.18 27.27q-2.58 18.66-5.62 37.26a467 467 0 0 1-2.74 15.43c-.5 2.52 3.36 3.6 3.86 1.07 2.44-12.25 4.26-24.63 6.1-36.98 1.92-12.9 3.84-25.83 5.15-38.81q.16-1.62.3-3.25c.12-1.53.33-2.7-.95-3.87a122 122 0 0 0-14.02-11.02c-2.14-1.44-4.14 2.02-2.02 3.45M41.86 96.64a75 75 0 0 0 3.2 7.2q1.6 3.32 3.44 6.53a2 2 0 1 0 3.45-2.02q-1.78-3.11-3.36-6.36-.87-1.78-1.7-3.59l-.39-.87-.17-.39c-.22-.5.16.38-.05-.11s-.39-.97-.57-1.46a2.05 2.05 0 0 0-2.46-1.4 2 2 0 0 0-1.4 2.46Z" class="e"/><path d="M51.58 106.5c-4.89 2.8-9.81 5.56-14.47 8.75-1.1.75-2.5 1.4-2.52 2.9q.01.56.07 1.1l.27 2.87a410 410 0 0 0 2.3 16.98 1680 1680 0 0 0 10.83 62.97c.5 2.52 4.36 1.45 3.85-1.07-2.14-10.74-4-21.54-5.85-32.34a1278 1278 0 0 1-6.01-37.78c-.58-4.1-1.24-8.49-1.47-12.83l-.99 1.72c5.12-3.62 10.57-6.7 16-9.82 2.23-1.28.22-4.74-2.02-3.46Zm8.13 117.25q13.36.05 26.71.06c2.58 0 2.58-4 0-4l-26.7-.06c-2.58 0-2.59 4 0 4" class="e"/><path d="M106.44 295.2a75 75 0 0 1-8.28-.1l-4.04-.26-1.86-.13c-.39-.02-1.5.08-1.8-.15-.63-.47-.3-2.55-.3-3.28l-.09-4.59c-.18-8.33-.43-16.65-.66-24.98-.47-16.93-1.17-33.9-.94-50.85.12-9.35.55-18.7.8-28.04.22-8.53.23-17.05.37-25.57.27-15.54.7-31.08 1.16-46.62q.24-8.72.56-17.45l.1-2.26a4 4 0 0 0 .04-.72c-.1-.6-.72.71-.74.95-.01.11-.38-.29-.1-.03a2 2 0 0 0 .38.2 72 72 0 0 1 9.38 6.04 16 16 0 0 1 2.92 2.5c1.64 1.97 4.46-.87 2.82-2.84a20 20 0 0 0-3.72-3.12 98 98 0 0 0-5.11-3.48 49 49 0 0 0-4.41-2.62c-1.91-.96-4.77-.87-5.34 1.69a28 28 0 0 0-.26 4.84l-.28 8.3q-.76 24.04-1.27 48.1c-.15 7.45-.19 14.9-.3 22.36-.15 10.43-.6 20.84-.87 31.27-.46 17.42.19 34.85.67 52.26q.4 13.51.73 27.03.12 4.82.2 9.65c.02 2.5 1.06 4.8 3.78 5.24a78 78 0 0 0 8.18.56 75 75 0 0 0 8.29.1c2.56-.14 2.57-4.14 0-4ZM43.54 98.17a46 46 0 0 1 9.43-6.82q.95-.56 1.92-1.1c.38-.2 1.33-.47 1.57-.8.27-.36.02.13 0 .01 0 .05-.81-.94-.82-.93a6 6 0 0 0 .05.97l.1 2.3q.41 10.85.42 21.71c.03 21.22 1.5 42.4 1.54 63.62q.03 21.35-.58 42.69a3285 3285 0 0 1-1.47 41.15q-.45 10.96-.95 21.9-.21 4.39-.45 8.76l-.1 1.83c-.02.43.09 1.16-.17 1.53-.38.52-1.84.3-2.43.33q-2.04.07-4.08.08-3.94.01-7.89-.22c-2.57-.15-2.56 3.85 0 4q4.17.25 8.36.22 2.02-.02 4.05-.1a8.5 8.5 0 0 0 3.65-.6c3.12-1.61 2.56-6.05 2.72-9.04q.53-10.44.97-20.89.95-22.57 1.67-45.14.64-20.73.7-41.47c.02-10.81-.11-21.62-.5-32.42-.42-11.3-.95-22.61-1.02-33.93-.06-7.77-.12-15.53-.4-23.3a26 26 0 0 0-.27-4.71c-.56-2.39-3.22-2.69-5.11-1.81a57 57 0 0 0-8.97 5.43 37 37 0 0 0-4.76 3.92c-1.82 1.83 1 4.66 2.83 2.83Z" class="e"/><path d="M119.78 131.51q-.5 24.75.55 49.5c.35 8.02.75 16.07 1.6 24.06q1.22 11.45 2.87 22.83 2.27 15.55 4.78 31.06c1.64 10.22 3.1 20.47 4.67 30.7.16 1.09.04 1.37-1.05 1.68a57 57 0 0 1-3.69.9q-4.93 1.04-9.92 1.71a154 154 0 0 1-22 1.52q-2.67 0-5.32-.15c-2.57-.14-2.56 3.86 0 4a137 137 0 0 0 22.49-.77 118 118 0 0 0 19.5-3.35 5.2 5.2 0 0 0 3.75-2.96c.56-1.39.22-2.8 0-4.22l-1.16-7.69-2.6-17.21c-1.52-9.92-3.2-19.8-4.64-29.74-2.2-14.96-4.1-29.9-4.92-45.02a759 759 0 0 1-1.01-50.86q.04-3 .1-5.99c.05-2.57-3.95-2.57-4 0m-96.49 0q.51 25.2-.58 50.42c-.37 8.24-.84 16.48-1.73 24.68q-1.22 11.19-2.86 22.32c-1.5 10.29-3.17 20.54-4.78 30.81q-1.26 8.14-2.47 16.27l-1.25 8.35-.56 3.66c-.22 1.42-.55 2.83 0 4.22 1.17 2.88 4.76 3.28 7.44 3.86q5.03 1.05 10.12 1.73a161 161 0 0 0 22.87 1.63q2.66 0 5.31-.14c2.56-.14 2.58-4.14 0-4a136 136 0 0 1-21.86-.7 113 113 0 0 1-19.06-3.28c-1.16-.33-1.2-.66-1.03-1.79l.5-3.29 1.23-8.21q1.21-8.1 2.45-16.19c1.55-9.93 3.19-19.84 4.64-29.78a666 666 0 0 0 2.83-21.06q1.34-12 1.96-24.03c.86-16.48 1.14-33 .93-49.5l-.1-5.98c-.05-2.57-4.05-2.58-4 0" class="e"/><path d="M126.25 215.27c2.32-1.45 4.53-3.05 6.75-4.63 2.17-1.54 4.4-3 6.44-4.7a20 20 0 0 0 4.23-4.6 30 30 0 0 0 2.3-5.32c1.67-4.5 1.45-9.49 1.12-14.2q-.44-6.69-1.25-13.33a324 324 0 0 0-4.55-26.61c-1.06-5.12-1.99-10.33-3.3-15.4a32 32 0 0 0-5.8-11.74 35 35 0 0 0-10.67-9.04 166 166 0 0 0-15.26-7.77 2.07 2.07 0 0 0-2.74.72 2 2 0 0 0 .72 2.74c4.4 1.85 8.58 4.2 12.8 6.43a38 38 0 0 1 9.83 6.9 28 28 0 0 1 6.45 10.17c1.6 4.58 2.32 9.52 3.32 14.25a375 375 0 0 1 4.74 25.81q.85 6.15 1.37 12.35a72 72 0 0 1 .37 13.54 24 24 0 0 1-2 6.7 12 12 0 0 1-2.93 4.16 57 57 0 0 1-6.68 5.11c-2.4 1.7-4.78 3.44-7.27 5-2.18 1.37-.17 4.83 2.02 3.46Z" class="e"/><path d="m116.93 182.78.35.03a36 36 0 0 0 11.53-1.03 7 7 0 0 0 2.76-1.21c3.05-2.48 1.3-7.62 3.8-10.72a10 10 0 0 0 1.19-3.08 4.4 4.4 0 0 0-.85-3.84c-.89-1.25-1.97-1.2-3.38-1.6a84 84 0 0 0-7.06-1.54l.02-.03c.6-1.21.95-3 .17-3.99a3.2 3.2 0 0 0-3.33-.91 10 10 0 0 0-3.18 1.78 15 15 0 0 0-4.73 4.8c-2.88 1.16-5.7 5.21-5.7 8.92a15.6 15.6 0 0 0 2.78 9.45 10 10 0 0 0 2.78 2.27 8 8 0 0 0 2.84.7" class="a"/><path d="M127.02 160.76c.8-1.75 1.36-3.94.34-5.73a5 5 0 0 0-5.17-2.2c-2.1.32-3.78 1.7-5.41 2.96a15.5 15.5 0 0 0-4.29 4.65l.72-.72a11.6 11.6 0 0 0-5.58 5.93 14.6 14.6 0 0 0-.68 9.03 14 14 0 0 0 3.69 7.36c2.33 2.15 4.93 2.74 8.04 2.85a38 38 0 0 0 10.2-1.07c2.84-.7 5.06-2.03 6.1-4.86.8-2.2.5-4.7 1.38-6.88.44-1.06 1.18-1.9 1.6-3a9 9 0 0 0 .7-3.86 6.7 6.7 0 0 0-2-4.22 8 8 0 0 0-3.8-1.6 81 81 0 0 0-7.93-1.7 2.06 2.06 0 0 0-2.46 1.4 2 2 0 0 0 1.4 2.47c2.4.4 4.8.86 7.16 1.47a11 11 0 0 1 2.72.74 2.5 2.5 0 0 1 .83 2.69 8 8 0 0 1-1.21 2.78 10 10 0 0 0-1.3 3.52c-.35 1.84-.13 4.81-1.66 6.18a8 8 0 0 1-3.49 1.23 32 32 0 0 1-4.99.68c-2.78.16-6.1.44-8.33-1.53-1.85-1.65-2.69-4.42-2.96-6.81a9.2 9.2 0 0 1 2.11-7.52 7 7 0 0 1 1.48-1.3 5 5 0 0 0 1.81-1.42 13 13 0 0 1 3.16-3.35c1-.77 2.42-2.12 3.75-2.19s1.02 1.1.61 2a2.06 2.06 0 0 0 .72 2.74 2 2 0 0 0 2.74-.71m72.9-47.8c3.73 1.5 7.37 3.23 11 4.9a41 41 0 0 1 9.1 5.2 29 29 0 0 1 7.47 8.91c2.1 4 3.1 8.52 4.38 12.81 2.42 8.18 4.8 16.37 6.75 24.67a184 184 0 0 1 4.32 23.8 26 26 0 0 1-1.7 13.34c-1.84 4.23-6.29 6.84-9.54 9.88-1.88 1.76.95 4.59 2.83 2.83 3.35-3.12 7.45-5.74 9.73-9.83a25 25 0 0 0 2.9-11.72 83 83 0 0 0-1.56-13.73q-1.01-6.11-2.34-12.17a373 373 0 0 0-6.7-25.33c-1.4-4.77-2.58-9.72-4.54-14.3a31 31 0 0 0-6.99-10.04 38 38 0 0 0-10.67-7.11c-4.43-2.04-8.84-4.15-13.37-5.96a2 2 0 0 0-2.46 1.4 2.05 2.05 0 0 0 1.4 2.46Z" class="e"/><path d="M132.77 55.62a30 30 0 0 0 2.5 11.03 4.5 4.5 0 0 0-3.3-.96 4.2 4.2 0 0 0-3.58 2.32c-1.11 2.28-.78 6.31.24 8.75a13.5 13.5 0 0 0 4.4 6.15 4.8 4.8 0 0 0 4.18.74 34 34 0 0 0 7.27 11.7c4.42 4.6 9.03 7.26 14.47 7.65l17.65-1.85c8.06-2.38 14.17-14.6 15.07-17.7a29 29 0 0 0 1.06-3.63l.37.04a5 5 0 0 0 3.72-1.36 13.5 13.5 0 0 0 3.51-6.7c.68-2.55.45-6.6-.97-8.7a4.2 4.2 0 0 0-3.86-1.8 4.5 4.5 0 0 0-3.14 1.4s5.66-31.38-32.79-28.49c-22.61 1.7-27 12.69-26.8 21.4" class="a"/><path d="M189.68 56.75a21 21 0 0 1 2.74 5.89 4.5 4.5 0 0 1 3.08-1.34 5 5 0 0 1 1.98.3c2.45-8.62 2.7-24.18-4.02-30.77-3.9-3.82-5.94-6.94-10.6-10.12-5.44-3.7-13.84-5.2-20.98-4.47-10.18 1.2-15.53 3.62-21.05 8.37a17 17 0 0 0-5.4 7.79h-1.78c-4.14 4.48-6.02 12.69-5.32 20.87a43 43 0 0 0 2.52 12.64 6 6 0 0 1 1.12-.22 4.5 4.5 0 0 1 3.3.95l2.34 1.96-.77-4.71a7 7 0 0 1 .18-4.14c.74-1.52 2.5-2.48 3.35-3.95.78-1.37.67-2.98.87-4.5a9.5 9.5 0 0 1 2.71-5.56 8.8 8.8 0 0 1 6.1-2.52s9.17.91 12.35.82 9.04.3 9.04.3a21 21 0 0 1 8.6 1.1c2.67 1.05 4.95 3.07 5.6 5.6a9 9 0 0 0 .46 1.66 8 8 0 0 0 1.9 2.1 13 13 0 0 1 1.68 1.95" class="f"/><path d="M132.68 30.5c-3.93 3.97-5.6 9.6-6.24 15a47 47 0 0 0 1.86 19.18c.77 2.45 4.63 1.4 3.86-1.06a45 45 0 0 1-1.8-17.28c.43-4.6 1.81-9.64 5.15-13 1.81-1.83-1.01-4.66-2.83-2.83Z" class="e"/><path d="M199.75 60.85a39.7 39.7 0 0 0-5.85-30.95 36 36 0 0 0-5.98-7.4 33 33 0 0 0-20.11-8.26c-6.72-.33-13.79.44-19.96 3.26a35 35 0 0 0-7.74 5.12 21 21 0 0 0-6.6 9.25c-.88 2.43 2.99 3.47 3.86 1.07 1.83-5.04 6.33-8.72 10.95-11.21 5.22-2.82 11.38-3.55 17.24-3.54a30 30 0 0 1 18.23 6.07 25 25 0 0 1 5.56 6 44 44 0 0 1 4.52 7.78 36.5 36.5 0 0 1 2.02 21.75c-.58 2.5 3.27 3.57 3.86 1.06" class="e"/><path d="M171.44 46.35c2.83-.13 5.9-.06 8.5 1.22a8 8 0 0 1 2.68 1.99 6 6 0 0 1 1.28 2.86c.67 2.69 3.37 4.08 4.74 6.39a29 29 0 0 1 2.7 7.22c.68 2.48 4.54 1.43 3.85-1.06a33 33 0 0 0-3.1-8.18 16 16 0 0 0-2.94-3.64 5 5 0 0 1-1.25-1.3c-.3-.6-.32-1.4-.56-2.05-2.4-6.32-9.93-7.73-15.9-7.45-2.56.11-2.57 4.12 0 4" class="e"/><path d="M173.92 38.54a29 29 0 0 0-6.55.02 12 12 0 0 0-3.07.84 11 11 0 0 0-1.53.76q-.32.2-.62.42l-.63.48c-.07.06-.43.3-.1.08l1.55-.2-.13-.03 1.4 1.4-.02-.07v1.06l.03-.07-.51.88.04-.03h-2.83l.03.03a2 2 0 0 0 2.83 0 2.05 2.05 0 0 0 0-2.82l-.03-.04a2.05 2.05 0 0 0-2.83 0 2.1 2.1 0 0 0-.56 2.12 2 2 0 0 0 1.4 1.4 2.2 2.2 0 0 0 1.72-.21 5 5 0 0 0 .54-.42c.03-.02.32-.25.17-.14l.26-.18.31-.2.64-.36.41-.19c.27-.13-.27.09.02 0q.33-.13.67-.24a12 12 0 0 1 1.56-.35c.04-.01.41-.06.17-.03l.18-.02.8-.06q.77-.03 1.53-.02 1.57.04 3.15.2a2 2 0 0 0 2-2 2.05 2.05 0 0 0-2-2Zm-7.59-7.17c-4.85-.22-10.18 2.44-12.25 6.97a2.05 2.05 0 0 0 .71 2.74 2 2 0 0 0 2.74-.72 9 9 0 0 1 .71-1.27l.21-.3c.16-.23-.3.36.01 0a12 12 0 0 1 1.28-1.29c.04-.04.38-.3.15-.13l.17-.12q.14-.11.32-.22.32-.21.66-.4.3-.18.62-.33l.35-.17c.22-.1-.32.12.03-.01a13 13 0 0 1 1.5-.49q.39-.1.78-.16a1 1 0 0 1 .31-.06h.1a12 12 0 0 1 1.6-.04 2 2 0 0 0 2-2 2.04 2.04 0 0 0-2-2m-16.28 9.86a11 11 0 0 0-7.8 3.39c-2.14 2.31-2.88 5.09-3.14 8.15a4.7 4.7 0 0 1-1.6 3.3 9.4 9.4 0 0 0-2.5 3.34 9 9 0 0 0-.17 4.59q.42 2.65.87 5.29a2 2 0 0 0 2.46 1.4 2.05 2.05 0 0 0 1.4-2.46l-.72-4.39c-.17-1.03-.49-2.3.01-3.28a12 12 0 0 1 2.15-2.32 7.3 7.3 0 0 0 1.8-3.28c.54-2.3.26-4.57 1.6-6.65a6.9 6.9 0 0 1 5.64-3.08c2.57-.06 2.58-4.06 0-4m43.72 22.88a2.7 2.7 0 0 1 2.34-.81 2 2 0 0 1 .92.28l.25.16-.05-.04q.18.16.35.34c.31.3-.02-.05.02.03q.2.3.38.63a6 6 0 0 1 .39 1.14 11 11 0 0 1 .33 2.95 13 13 0 0 1-1.14 5.12c-.78 1.86-2.2 4.08-4.46 3.95a2 2 0 0 0 0 4c6.67.4 9.84-8.45 9.58-13.89-.12-2.57-.73-5.55-2.82-7.26a6.76 6.76 0 0 0-8.91.58c-1.8 1.84 1.02 4.67 2.82 2.82" class="e"/><path d="M191.2 77.16a30 30 0 0 1-1.8 6.74c-.03.07-.3.7-.12.3l-.23.52q-.32.68-.66 1.35-.77 1.53-1.66 3c-2.48 4.06-5.92 8.68-10.67 10.15-2.45.76-1.4 4.63 1.07 3.86 5.63-1.74 9.74-6.7 12.76-11.53a34 34 0 0 0 5.16-13.33 2.07 2.07 0 0 0-1.4-2.46 2 2 0 0 0-2.46 1.4Zm-56.64 4.87c3.3 10.97 12.3 22 24.39 22.98 2.56.2 2.55-3.8 0-4-5.2-.42-9.53-3.4-13.05-7.07a32 32 0 0 1-7.48-12.97c-.74-2.46-4.6-1.41-3.86 1.06m25.26 7.53a12 12 0 0 0 2.2.8 13 13 0 0 0 3.84.23 9.8 9.8 0 0 0 5.87-2.14 2 2 0 0 0 0-2.82 2.05 2.05 0 0 0-2.83 0c-.28.25-.05.02.12-.08l-.33.22-.36.2-.25.13c-.29.15.38-.15.15-.06a11 11 0 0 1-1.22.37l-.78.15c-.24.04.37-.03-.03 0l-.52.05a13 13 0 0 1-1.7 0l-.34-.02-.2-.02.21.03a4 4 0 0 0-.56-.1 8 8 0 0 1-1-.29l-.34-.13c.72.25.27.11.1.04a2.05 2.05 0 0 0-2.74.71 2 2 0 0 0 .71 2.74Zm3.76-13.9q.24.72.45 1.43a11 11 0 0 1 .4 1.52l-.08-.53v.3l.07-.53-.03.14.2-.48-.07.11.32-.4-.07.07.4-.31-.32.19.48-.2-.36.1.53-.08a4 4 0 0 1-.66-.03 2 2 0 0 0-1.41 3.41 2.2 2.2 0 0 0 1.41.6l.56.03a3.5 3.5 0 0 0 1.65-.47 2.5 2.5 0 0 0 1.24-1.61 4 4 0 0 0-.07-1.67q-.33-1.35-.78-2.65a2 2 0 0 0-.92-1.2 2 2 0 0 0-2.73.72 2 2 0 0 0-.2 1.54Zm-14.96-7.03c-.37 1.57.18 5.08 3.11 5.18 3.85-.29 3.76-4.57 2.32-6.5-1.17-1.56-4.33-2.03-5.43 1.32m30.8-2.13c.58 1.5.51 5.06-2.38 5.56-3.84.24-4.34-4.01-3.19-6.11.95-1.72 4.02-2.62 5.57.55" class="e"/><path d="M136.69 65.23a6.9 6.9 0 0 0-7.57-.75 6.5 6.5 0 0 0-3.18 4.67 16.5 16.5 0 0 0 3.32 12.83c2 2.58 4.82 4.36 8.17 3.7a2 2 0 1 0-1.06-3.87c-1.96.4-3.63-1.64-4.55-3.1a18 18 0 0 1-1.28-2.52q-.08-.2.02.04l-.13-.32q-.15-.4-.26-.81a12 12 0 0 1-.34-1.54 12 12 0 0 1-.08-2.98 5 5 0 0 1 .61-2c.2-.33-.27.22.06-.09q.18-.19.38-.37c-.28.23.22-.12.24-.14.42-.22-.12 0 .38-.15a2.7 2.7 0 0 1 2.44.23 2.07 2.07 0 0 0 2.83 0 2 2 0 0 0 0-2.83m23.16 35.34a29 29 0 0 0 .2 3.22 2 2 0 0 0 .59 1.42 2 2 0 0 0 2.83 0 2 2 0 0 0 .58-1.42 29 29 0 0 1-.2-3.22 2 2 0 0 0-3.41-1.41 2.2 2.2 0 0 0-.58 1.41m5.7-.25q.08.7.08 1.42l.04 1.68a2 2 0 0 0 .59 1.41 2 2 0 0 0 3.41-1.41l-.04-1.68q0-.72-.07-1.42a2.2 2.2 0 0 0-.59-1.42 2 2 0 0 0-2.83 0l-.31.4a2 2 0 0 0-.27 1.01Zm5.31-.61.3 3.22a1.5 1.5 0 0 0 .18.77 1.5 1.5 0 0 0 .41.65 2 2 0 0 0 2.83 0 2 2 0 0 0 .58-1.42l-.3-3.23a2.2 2.2 0 0 0-.58-1.4 2 2 0 0 0-2.83 0 2 2 0 0 0-.59 1.4m18.86-7.36c4.38 1.2 8.88 3.22 11.24 7.33a8.6 8.6 0 0 1 1.18 5.54 6.3 6.3 0 0 1-2.84 4.62l1.01-.27h-.2l1.4.59-.1-.1.6 1.42-.02-.14-.58 1.41.08-.08c1.85-1.8-.98-4.62-2.83-2.83-1.78 1.72.26 4.38 2.43 3.55a8 8 0 0 0 3.46-3.33 11.7 11.7 0 0 0 1.25-9.06c-1.83-6.95-8.55-10.74-15.02-12.51-2.49-.69-3.55 3.17-1.06 3.85Z" class="e"/></svg>
