<svg xmlns="http://www.w3.org/2000/svg" viewBox="0 -34.25 361.458 361.458"><defs><style>.a{fill:#fff}.c{fill:#85807f}.d{fill:#211715}</style></defs><path d="M101.32 151.07a46 46 0 0 0-1.95-13.62c-8.96 11.77-34.28 26.81-45.77 28.98a8 8 0 0 0-3.93-2.34 6.7 6.7 0 0 0-5.63.88c-2.3 1.68-3.35 5.2-3.2 8.08.41 7.96 4.72 13.18 12.25 16.24-3.58 6.3-4.5 8.99-5.07 17.66a11 11 0 0 0 .32 4.08l-1.87.35a62 62 0 0 1-14.71 1.16c-.1.85-.25 1.85-.43 2.83a14 14 0 0 1 7.8-1.38c12.14 2.11 21.82 7.9 29.81 15.6l2.64-7.35a56 56 0 0 1 2.8-7.2 2.33 2.33 0 0 1 2.75-1.38c4.7 1.26 11.95.56 17.24-1.38a13.4 13.4 0 0 0 7.35-6.8 28 28 0 0 0 2.27-6.77 67 67 0 0 0 1.4-10.08 11 11 0 0 1 2.43-4.55c1.85-2 4.85-3.57 3.32-7.05a6.5 6.5 0 0 0-2.98-2.98c-6.4-3.46-6.68-13.17-6.9-20.17q.06-1.43.05-2.8m181.98-39.22-7.02-7.1h-.02a53 53 0 0 1-3.94 4.6 56 56 0 0 1-13 9.3 64 64 0 0 1-13.13 4.49 48 48 0 0 1-4.79.66 37 37 0 0 1-12.6-.9l.21 1.99c1 11.37 9.3 47.71 14.33 61.38 2.62 7.1 4.13 10.78 7.13 18.35l2.17-.42c4.48-10 18-42.8 24.38-62.27 2.75-8.41 6.06-17.03 8.33-26.85l.31-1.49z" class="a"/><path d="M14.86 233.43a33 33 0 0 0-4.19 11.62c-.84 5.28 2.3 10.28 11.21 16.89a219 219 0 0 0 20.63 13.68c19.45 10.93 49.18 6.16 49.18 6.16.1-2.13-3.6-19.2-5.5-25.56-2.25-7.59-4.72-12.22-11-19.85-9.08-11-20.57-19.68-36.06-22.38-3.44-.6-7.36.93-10.37 2.71a31 31 0 0 0-7.72 6.21 26 26 0 0 0-6.18 10.52" style="fill:#7abee6"/><path d="M60.06 105.43a45 45 0 0 0-6.39-.12l-.01-.05c-21.46 1.45-30.3 8.39-38.39 17.38C3.43 135.79 4.6 151.54 4.3 163.08c-.25 9.74-3.86 19.9-.52 30.7 4.24 13.71 19.1 22.1 42.7 17.6l1.86-.35a11 11 0 0 1-.31-4.08c.56-8.67 1.49-11.36 5.06-17.66-7.53-3.06-11.83-8.28-12.25-16.24-.15-2.88.9-6.4 3.2-8.08a6.7 6.7 0 0 1 5.64-.88 8 8 0 0 1 3.92 2.34c11.78-2.22 38.09-17.97 46.41-29.86a44 44 0 0 0-3.72-8.93c-5.36-9.41-14.85-17.55-25.91-20.46a64 64 0 0 0-10.32-1.75" class="c"/><path d="M50.47 209.95c-.33-.32.05.02.06.12 0 .27-.07-.3-.09-.37a5 5 0 0 1-.06-.88q-.02-1.13.07-2.26a50 50 0 0 1 .66-6.04 28 28 0 0 1 3.64-9.29c1.5-2.7-2.64-5.12-4.14-2.42a34 34 0 0 0-4.26 11.24 63 63 0 0 0-.74 7.2c-.09 2.07-.13 4.55 1.47 6.1 2.22 2.14 5.62-1.25 3.4-3.4m23.42 12.93a45 45 0 0 1 2.03-5.44q.27-.57.52-1.15c.06-.13.34-.44.11-.32s.16.07.41.13a32 32 0 0 0 11.6.1c3.43-.51 7.16-1.4 10.02-3.43a19 19 0 0 0 6.73-9.76 57 57 0 0 0 2.37-12.81 7 7 0 0 1 1.7-4.26c1.03-1.2 2.31-2.11 3.27-3.38 2.6-3.48.84-7.78-2.44-10.06a14 14 0 0 1-3.14-2.4 12 12 0 0 1-1.93-3.87 39 39 0 0 1-1.42-10.32c-.08-2.21.04-4.42-.04-6.63a55 55 0 0 0-.77-7.36 2.4 2.4 0 0 0-2.96-1.68 2.45 2.45 0 0 0-1.67 2.95c.68 3.99.48 7.92.61 11.93a60 60 0 0 0 .97 9.85 18.5 18.5 0 0 0 4.01 8.72 24 24 0 0 0 3.91 2.95 3.5 3.5 0 0 1 1.24 1.58 1.2 1.2 0 0 1-.03 1.21c-.57 1.07-1.88 1.92-2.77 2.86a13 13 0 0 0-3.03 5.33 39 39 0 0 0-.62 5.38 56 56 0 0 1-1.21 6.4c-.88 3.45-2.26 7-5.2 9.22-2.55 1.94-6.2 2.62-9.35 3.02a31 31 0 0 1-6.3.18c-1.9-.15-3.77-1.01-5.65-.3-1.72.65-2.45 2.06-3.15 3.62a54 54 0 0 0-2.45 6.46c-.88 2.97 3.75 4.23 4.63 1.27Z" class="d"/><path d="M55.67 165.13a10.6 10.6 0 0 0-10.03-3.46c-3.5.75-5.8 3.8-6.7 7.1-1.63 5.87.58 12.75 4.67 17.12a25 25 0 0 0 8.86 5.72 2.4 2.4 0 0 0 2.96-1.68 2.46 2.46 0 0 0-1.68-2.95c-5.2-2.14-9.15-6-10.24-11.63-.5-2.56-.49-5.65 1.25-7.79 2.1-2.58 5.67-1.03 7.52.96 2.11 2.27 5.5-1.13 3.4-3.39Zm38.31-1.25c.8 2.01.85 6.8-2.84 7.55-4.92.4-5.72-5.32-4.31-8.18 1.15-2.33 5.05-3.61 7.15.63" class="d"/><path d="M97.36 136.16c-3.78 4.96-9.62 9.52-14.97 13.25A125 125 0 0 1 63 160.63a50 50 0 0 1-8.9 3.24c-3 .74-1.72 5.37 1.29 4.63 6.5-1.6 12.7-4.8 18.5-8.08a123 123 0 0 0 19.64-13.57 55 55 0 0 0 7.97-8.27 2.4 2.4 0 0 0-.86-3.28 2.46 2.46 0 0 0-3.28.86" class="d"/><path d="M104.59 148.01c-.84-10.24-4.22-20.1-10.75-28.1a44.7 44.7 0 0 0-23.4-15.2 57 57 0 0 0-16.77-1.8l2.32 1.76-.01-.05a2.4 2.4 0 0 0-2.32-1.76c-11.18.77-22.5 3.17-31.58 10.1a58 58 0 0 0-9.93 9.65 43 43 0 0 0-8.47 17.55 83 83 0 0 0-1.7 17.42c-.04 2.68-.01 5.37-.22 8.05-.28 3.63-.88 7.23-1.3 10.85-.8 6.84-.8 13.93 1.9 20.39a27 27 0 0 0 7.9 10.65c10.34 8.25 24.4 8.5 36.84 6.17a2.4 2.4 0 0 0 1.68-2.95 2.45 2.45 0 0 0-2.95-1.68c-10.1 1.9-21.6 1.96-30.46-3.73A22.3 22.3 0 0 1 7.69 197c-2.63-4.92-3.2-11.15-2.77-16.96.47-6.48 1.73-12.82 1.82-19.34a112 112 0 0 1 .83-15.35 42 42 0 0 1 5.67-16.07 49 49 0 0 1 9.54-10.74 40 40 0 0 1 11.64-7.04 66 66 0 0 1 19.24-3.84l-2.31-1.76v.05a2.4 2.4 0 0 0 2.32 1.76c8.68-.46 17.98 1.3 25.5 5.78a41.5 41.5 0 0 1 16.75 18.76 50 50 0 0 1 3.87 15.76 2.46 2.46 0 0 0 2.4 2.4 2.4 2.4 0 0 0 2.4-2.4" class="d"/><path d="M64.42 182.2c-.22 3.42-.77 7.12.98 10.25a6.58 6.58 0 0 0 10.27 1.54 7.7 7.7 0 0 0 1.52-6.14 2.6 2.6 0 0 0-.7-1.7 2.4 2.4 0 0 0-1.7-.7c-1.16.05-2.57 1.07-2.4 2.4a11 11 0 0 1 .06 2.05c-.03.57.1-.43 0-.04l-.1.44-.14.42c.01-.04.28-.54.1-.24l-.13.21-.13.2c.01-.03.35-.36.19-.25a1 1 0 0 0-.3.3c.03-.05.5-.33.19-.16l-.16.1c-.05.03-.14.04-.18.08.28-.27.44-.14.14-.07a2 2 0 0 0-.5.12c.03-.04.63-.04.17-.03l-.24.01-.54-.01c-.24 0-.2-.14.21.04l-.26-.05-.44-.12c-.48-.14.4.22.07.03l-.35-.2c-.42-.24.38.36.04.03l-.27-.26c-.08-.1-.37-.44-.09-.09s0 0-.05-.1l-.2-.36-.16-.32c-.11-.2.15.4.14.34l-.07-.18q-.11-.33-.2-.67-.08-.28-.13-.57l-.05-.26c-.08-.45 0 .18.04.31a5 5 0 0 1-.1-1.26q-.01-.78.02-1.56c.06-1.18.17-2.35.25-3.52a2.4 2.4 0 0 0-2.4-2.4 2.46 2.46 0 0 0-2.4 2.4Zm40.24 7.02c-1.6-.11-3.2-.11-4.8-.1q-.89.01-1.76.08a4.5 4.5 0 0 0-1.9.6 4.7 4.7 0 0 0-1.76 1.73 2.4 2.4 0 0 0 4.14 2.43l.1-.19c-.12.38-.32.4-.1.19.06-.06.3-.25-.02 0-.33.25 0 .02.06-.02.04-.02.2-.08.22-.11 0 0-.57.23-.27.12l.13-.03-.63.09a23 23 0 0 1 3.01-.09q1.8-.01 3.57.1a2.4 2.4 0 0 0 2.4-2.4 2.46 2.46 0 0 0-2.4-2.4Z" class="d"/><path d="M252.64 204.2c4.49-9.99 18-42.8 24.38-62.27 2.9-8.83 6.4-17.89 8.67-28.33 2.93 2.14 7.73 5.55 9.1 6.01 6.77 2.26 15.43 5.4 22.23 7.85 7.95 2.87 14.62 6.45 20.45 12.56 5.24 5.5 9.82 16.13 12.55 25.47l2 8.47c1.42 4.52 3.5 13.5 5.22 22.03 2.78 16.98 3.22 31.7-4.93 47.9-1.86 3.72-5.5 9.46-8.58 12.37a34 34 0 0 1-8.07 5.7c2.52 9.37 5.49 20.3 7.77 28.67l-128.79-.34c-.64-6.47-1.7-14.7-2.5-20.5-30.66-3.65-40.68-21.65-42.01-41.62-.6-9.04.65-21.6 1.61-28.28l1.9-12.06a136 136 0 0 1 9.71-35.65 93 93 0 0 1 5.85-10.38c2.07-3.3 6.74-7.2 9.36-8.85 7.6-4.81 19.61-9.28 28.63-12.25l1.42-.47.4 4.66c1 11.37 9.3 47.72 14.33 61.39 2.62 7.1 4.13 10.78 7.13 18.34" style="fill:#aaa"/><path d="M228.88 226.54c3.3 0 6.9 0 10.66.02l-2.76-3.82c-5-7.26-14.97-21.23-20.5-28.23a8.7 8.7 0 0 0-4.13-2.93 5 5 0 0 0-4.23.49 4.2 4.2 0 0 0-1.45 4.45l.48 1.78-.74-.27a4.4 4.4 0 0 0-4.07.58 3.4 3.4 0 0 0-1.17 3.47 13 13 0 0 0 2.22 4.33l2.39 3.5c-2.32-.86-4.03-1.44-5.64-.19a4 4 0 0 0-1.19 3.32 10 10 0 0 0 1.2 3.04 82 82 0 0 0 6.32 9.85l.52.64 8.96-.03c2.83-.02 7.51-.01 13.13 0m54.16-.01a102 102 0 0 1 14.7-7.03c5.28-2.2 10.93-4.51 18.45-5.38a26 26 0 0 1 6.93.26c3.39 12.33 6.59 24.29 8.13 30.6a3.9 3.9 0 0 1-3.12 4.78c-12.27 2.2-41.61 5.92-39.03 3.15l-5.52-23.95a3.3 3.3 0 0 0-.86-1.82" class="a"/><path d="M333.68 263.8q3.7 13.74 7.44 27.47c.8 2.98 5.44 1.71 4.62-1.28q-3.73-13.73-7.44-27.47c-.8-2.98-5.43-1.71-4.62 1.28m-123.86 6.62q1.43 9.9 2.43 19.87a2.47 2.47 0 0 0 2.4 2.4 2.4 2.4 0 0 0 2.4-2.4c-.7-7.06-1.6-14.11-2.6-21.15a2.4 2.4 0 0 0-2.95-1.67 2.46 2.46 0 0 0-1.68 2.95" class="d"/><path d="M289.49 263.14a84 84 0 0 0 27 5.12c7.93.08 15.98-1.39 22.8-5.59 7.17-4.4 12.15-11.34 15.72-18.84a66 66 0 0 0 6.44-28.14c.13-16.35-4.63-31.94-8.37-47.67A87 87 0 0 0 345.2 147a40 40 0 0 0-7.48-10.12 48 48 0 0 0-10.84-7.75 100 100 0 0 0-12.62-5.21 1196 1196 0 0 0-13.66-4.86l-3.12-1.07-1.5-.5a4 4 0 0 0-.6-.2c-.2-.05.54.3.21.08-.94-.63-1.96-1.14-2.9-1.76a184 184 0 0 1-6.85-4.85l-1.32-.98a2.4 2.4 0 0 0-3.29.86 2.46 2.46 0 0 0 .86 3.28c3.46 2.59 6.98 5.48 10.83 7.46a34 34 0 0 0 4.63 1.7q3.34 1.14 6.68 2.33 6.48 2.28 12.93 4.65c7.55 2.8 15.16 6.98 20.18 13.46a52 52 0 0 1 6.16 10.91 77 77 0 0 1 4.22 11.76c1.1 4.24 2.11 8.5 3.21 12.73a175 175 0 0 1 5.32 27.74c.82 8.94.45 17.9-2.18 26.53a58 58 0 0 1-5.47 12.51 39 39 0 0 1-7.07 9.34c-11.97 10.88-30 9.67-44.5 5.47q-3.16-.91-6.26-2a2.4 2.4 0 1 0-1.28 4.63m-50.64-41.6q-8.1-11.76-16.64-23.2c-2.9-3.88-5.82-8.96-11.17-9.38a6.4 6.4 0 0 0-6.67 4.05c-1.13 2.9.15 5.7 1.84 8.07 3.37 4.71 6.7 9.45 10.08 14.15a2.47 2.47 0 0 0 3.28.86 2.4 2.4 0 0 0 .86-3.28q-3.9-5.45-7.74-10.92c-1.27-1.8-3.18-3.7-3.85-5.83-.56-1.79.9-2.6 2.5-2.22 1.9.46 3.18 2.26 4.24 3.63q1.77 2.31 3.52 4.66 3.99 5.38 7.87 10.83 3.91 5.47 7.74 11a2.46 2.46 0 0 0 3.28.86 2.4 2.4 0 0 0 .86-3.29" class="d"/><path d="M206.85 195.72a6.55 6.55 0 0 0-7.34 2.25c-1.77 2.5-.9 5.51.51 7.95 1.38 2.37 3.07 4.6 4.6 6.86a133 133 0 0 0 5.11 7.1 2.4 2.4 0 0 0 3.4 0 2.46 2.46 0 0 0 0-3.4c-2.63-3.37-4.92-6.99-7.34-10.5-.59-.87-1.2-1.72-1.72-2.63a5 5 0 0 1-.8-2.1 1 1 0 0 1 .15-.51c.12-.23.09-.2.33-.33a2.3 2.3 0 0 1 1.81-.06c2.96.93 4.22-3.7 1.28-4.63Z" class="d"/><path d="M207.97 224.24c-.13-.16-.33-.43-.09-.11l-.36-.5q-.4-.53-.77-1.07-.74-1.07-1.44-2.18a98 98 0 0 1-3.67-6.24 7 7 0 0 1-.47-1.2l-.06-.27q.02.3.02.07c0-.08.05-.7 0-.43-.05.3.1-.28.11-.34.13-.53-.1.19.11-.25q.24-.36 0-.03l.13-.15q-.23.18 0 .03l.32-.18c-.45.18.48-.05-.09.02a3 3 0 0 1 .71 0c-.34-.03.12.04.24.07q.48.12.94.27a2.4 2.4 0 0 0 1.28-4.63c-2.8-.88-6.06-.62-7.67 2.18a6.6 6.6 0 0 0-.86 3.74 12 12 0 0 0 1.56 4.3 66 66 0 0 0 6.66 10.29 2.4 2.4 0 0 0 3.4 0 2.46 2.46 0 0 0 0-3.4Zm76.28 4.36a127 127 0 0 1 17.67-8.23c6.54-2.58 13.69-4.75 20.77-3.64a2.5 2.5 0 0 0 2.95-1.68 2.4 2.4 0 0 0-1.67-2.95 35 35 0 0 0-12.89.42 63 63 0 0 0-10.1 3.09 135 135 0 0 0-19.16 8.84c-2.66 1.56-.25 5.71 2.42 4.15Z" class="d"/><path d="M310.67 179.31c4.44 14.67 8.45 29.47 12.47 44.25 1.85 6.81 3.7 13.62 5.4 20.47.26 1.05.9 2.58-.37 3.23a9 9 0 0 1-2.32.47l-2.88.47q-5.9.93-11.82 1.67c-4.5.57-9.02 1.08-13.55 1.4a71 71 0 0 1-5.17.23q-.9 0-1.79-.07c-.73-.03.4.16-.14 0l-.52-.14c-2.92-1.02-4.18 3.62-1.27 4.63 2.2.77 5.06.39 7.34.26 4.06-.24 8.11-.67 12.15-1.15q6.81-.8 13.6-1.83 2.79-.42 5.57-.89c2.44-.41 4.57-1.28 5.73-3.64 1.53-3.14-.27-7.28-1.1-10.45q-1.41-5.48-2.9-10.94-3.47-12.95-7.1-25.85c-2.18-7.81-4.36-15.63-6.71-23.4-.9-2.94-5.53-1.69-4.63 1.28Z" class="d"/><path d="M257.45 192.99c1.52-3.65 3.23-7.8 5-12.2l-1.7-6.83c-1-3.99-4.16-22.95-4.2-24.2 1.05-3.8 2.26-8.23 3.49-12-4-2.73-8.6-5.5-11.23-7.22-2.7 2.34-4.81 4.26-7.2 6.71l.24.66a239 239 0 0 0 3.96 10.19c-.65 3.32-1.44 6.95-1.86 10.05a176 176 0 0 0-2.02 23.96q.75 2.32 1.42 4.16c2.62 7.1 4.13 10.78 7.13 18.35l2.16-.42c1.13-2.5 2.81-6.42 4.81-11.21" style="fill:#3d8dcc"/><path d="M239.53 138.55a210 210 0 0 0 3.96 10.19v-1.28a200 200 0 0 0-3.78 29.81c-.13 3.09 4.67 3.08 4.8 0a177 177 0 0 1 1.94-19.72q.46-2.87 1.05-5.72c.2-1.03.45-2.06.62-3.1a4 4 0 0 0-.46-2.37q-1.85-4.5-3.5-9.09a2.46 2.46 0 0 0-2.96-1.68 2.4 2.4 0 0 0-1.67 2.96m18.19-1.44q-.96 3-1.81 6a43 43 0 0 0-1.72 6.33 17 17 0 0 0 .51 4.3q1.15 7.37 2.5 14.7c.38 2.06.73 4.13 1.23 6.16.74 3 5.37 1.73 4.63-1.28-1-4.08-1.63-8.28-2.34-12.43q-.61-3.57-1.19-7.15l-.42-2.72-.14-.92.03.2-.04-.33c.01-.05.03-.3 0-.09-.05.34.14-.34.13-.31q.17-.52.3-1.06l.9-3.25a201 201 0 0 1 2.06-6.87c.95-2.95-3.69-4.21-4.63-1.28" class="d"/><path d="M246.37 151.38q4.26-.19 8.52-.28a2.4 2.4 0 1 0 0-4.8q-4.26.1-8.52.28a2.4 2.4 0 1 0 0 4.8m-5.27-10.09a117 117 0 0 1 9.4-9.05l-2.9.37c4.5 2.93 9.12 5.64 13.47 8.8a2.4 2.4 0 0 0 3.28-.87 2.45 2.45 0 0 0-.86-3.28c-4.34-3.15-8.97-5.87-13.47-8.8a2.45 2.45 0 0 0-2.9.38 117 117 0 0 0-9.42 9.06c-2.09 2.27 1.3 5.67 3.4 3.4Z" class="d"/><path d="M214.54 228.22c9.76-.04 19.52.01 29.28.04q16.35.06 32.72.06h3.64a3 3 0 0 1 1 .03c-.37-.17-.16-.16-.1.25a67 67 0 0 0 1.58 6.84l1.61 6.99c1.1 4.73 2.23 9.45 3.27 14.19.35 1.6.2 2.48-1.27 3.29a15 15 0 0 1-3.53 1.2c-10.67 2.78-21.83 3.95-32.77 5.04-11.15 1.13-22.57 2.22-33.8 1.61-11.73-.64-24.37-4.24-32.74-12.64-6.95-7-10.14-16.79-10.86-26.41-.87-11.72.75-23.38 2.54-34.82.84-5.37 1.59-10.76 2.7-16.09a134 134 0 0 1 6.68-22.1 63 63 0 0 1 4.62-9.15 34 34 0 0 1 5.98-7.83c5.37-4.97 12.26-8 18.97-10.71q5.6-2.24 11.32-4.18c2.9-1 1.66-5.63-1.28-4.63a149 149 0 0 0-23.69 9.89 44 44 0 0 0-8.85 6.37 38 38 0 0 0-6.4 8.35c-7.96 13.2-11.56 28.6-13.88 43.69-1.62 10.56-3.3 21.05-3.64 31.76-.37 11.64 1.1 23.85 7.84 33.7 7.33 10.72 19.35 16.39 31.88 18.55 11.53 2 23.37 1.1 34.97.14a313 313 0 0 0 37.25-4.88 55 55 0 0 0 6.6-1.65 10.6 10.6 0 0 0 4.82-2.9 7.1 7.1 0 0 0 1.3-6.26c-.92-4.88-2.23-9.72-3.34-14.56-1.1-4.73-1.94-9.6-3.3-14.25-.75-2.55-2.7-3.6-5.27-3.63l-2.35.01h-6.32q-8.58 0-17.15-.03-17.43-.06-34.86-.08l-5.17.01c-3.09.02-3.1 4.82 0 4.8Z" class="d"/><path d="M296.08 128.63a31 31 0 0 1 2.71 4.77 12 12 0 0 1 1.17 3.2v-1.27q1-1.37.5-.92.58-.43.27-.22l-.34.21q-.57.34-1.16.64-1.68.89-3.38 1.7l-6.88 3.31a2.42 2.42 0 0 0-.48 3.77q3.1 3.29 6.11 6.65c.68.76 1.98 1.76 2.17 2.8.11.68-.6 1.39-.96 1.93a793 793 0 0 0-6.15 9.57c-5.34 8.39-10.64 16.8-16.04 25.15q-4.5 7-9.14 13.88c-1.74 2.57 2.42 4.97 4.14 2.43 10.91-16.13 20.94-32.83 31.65-49.08a6.3 6.3 0 0 0 1.29-4.14 8 8 0 0 0-2.33-4.53c-2.38-2.75-4.87-5.4-7.35-8.05l-.48 3.77c3.76-1.82 7.66-3.46 11.27-5.57a4.3 4.3 0 0 0 1.67-1.43c.61-1.05.21-2.28-.18-3.33a33 33 0 0 0-3.94-7.66 2.46 2.46 0 0 0-3.28-.86 2.4 2.4 0 0 0-.86 3.28m-69.46-3.74c.86 9.59 3.15 19.14 5.29 28.5a321 321 0 0 0 8.32 31.24c2.35 6.98 5.22 13.79 7.93 20.63a2.47 2.47 0 0 0 2.96 1.67 2.4 2.4 0 0 0 1.67-2.95c-2.52-6.34-5.11-12.67-7.4-19.1a181 181 0 0 1-4.03-13.3q-4.5-16.57-7.8-33.45-.77-3.9-1.42-7.85l-.24-1.57-.13-.85-.07-.49-.07-.54-.2-1.94a2.46 2.46 0 0 0-2.4-2.4 2.4 2.4 0 0 0-2.4 2.4Z" class="d"/><path d="M283.04 114.44c-1.82 7.84-4.47 15.42-7.06 23.03-1.96 5.77-3.89 11.55-6 17.27a950 950 0 0 1-19.4 48.25 2.5 2.5 0 0 0 .85 3.28 2.4 2.4 0 0 0 3.29-.86c4.18-9.33 8-18.83 11.79-28.32a637 637 0 0 0 13.1-35.33c2.85-8.63 6-17.17 8.07-26.04.7-3-3.93-4.29-4.63-1.28Zm-69.75 16.99a33 33 0 0 0-4.87 7.95c-.99 2.3-.64 4.36 1.8 5.44l1.98.88a11 11 0 0 0 1.97.87l.32.14c-.56.55-.36-1.2-.3-1.07l-.41.47q-1.69 1.75-3.35 3.53c-1.04 1.12-2.57 2.43-2.99 3.94s.31 2.72 1 3.99q1.62 2.96 3.26 5.9 3.91 7.01 7.9 13.99 4.1 7.2 8.27 14.36c1.56 2.66 5.71.25 4.15-2.42q-7.38-12.61-14.5-25.37-1.7-3.03-3.38-6.07l-1.41-2.56c-.1-.2-.48-1.16-.68-1.24l-.06.91.3-.34a7 7 0 0 0 1.07-1.19q1.5-1.62 3.03-3.21c1.06-1.11 2.17-2.12 2.43-3.7.37-2.21-.97-3.65-2.84-4.48l-2.32-1.03a7 7 0 0 0-1.33-.59l-.3-.13a1.6 1.6 0 0 1 .57 1.32c-.02 0 .22-.5.3-.7q.45-.99.98-1.96a26 26 0 0 1 2.8-4.24 2.47 2.47 0 0 0 0-3.4 2.4 2.4 0 0 0-3.4 0Zm-53.2-47.74a8 8 0 0 1-2.68-.05l.86.86-.12-.21.33 1.2q-.1 0-.09.1l.52-.65.81-1.03 1.97-2.53c1.33-1.69 3.09-4.01 1.07-6-1.75-1.74-4.26-.16-6.12.55a35 35 0 0 1-5.79 2.12h1.28l-.2-.05 1.06.62.13.15.33 1.22c-.07-.49-.22.2.03-.06a5 5 0 0 0 .38-.56l1.43-2.05 3.97-5.7c.79-1.14 1.66-2.25 2.38-3.43 1.01-1.66.85-4.07-1.13-4.92-1.67-.7-3.58.57-5.1 1.21q-2.83 1.2-5.66 2.32a28 28 0 0 1-5.36 1.94h1.28l-.19-.04 1.06.62.39 1.34q-.3.47-.03.19a2 2 0 0 0 .46-.43l1.1-1.04q1.21-1.16 2.4-2.35a66 66 0 0 0 4.92-5.47c1.3-1.65 3.33-3.85 3.55-6.03a2.98 2.98 0 0 0-4.52-2.96c-1.51.84-2.94 1.93-4.39 2.88l-7.28 4.76a34 34 0 0 1-4.7 3.02l1.21-.32.24.02 1.06.62-.13-.14.61 1.06c.1.25-.47.77-.13.7.08-.01.25-.26.31-.32l.57-.59 1.65-1.8q1.87-2.1 3.69-4.25a264 264 0 0 0 7.5-9.19c1-1.29 2.56-2.83 2.93-4.46a3.1 3.1 0 0 0-1.6-3.57c-1.28-.63-2.5-.09-3.56.69-3.5 2.55-6.83 5.31-10.3 7.92a89 89 0 0 1-5.9 4.14c-1.57 1-3.41 2.26-5 2.49h1.27l-.19-.06 1.06.62c1.15 1.04-.27 2.08.72 1.26q.32-.26.63-.54.83-.75 1.64-1.52 1.73-1.66 3.4-3.38 4.03-4.19 7.95-8.48 3.77-4.15 7.55-8.28c1.93-2.11 6.35-5.4 4.29-8.61-1.94-3.04-4.92.17-6.65 1.63q-2.86 2.41-5.74 4.79a540 540 0 0 1-15.2 12.17 181 181 0 0 1-8.08 5.9 59 59 0 0 1-3.28 2.11q-.66.4-1.33.74l-.52.25c-.24.13-.32 0 .2-.08-.12.02-.29 0-.09.03l1.21.32-.2-.1.86.86c1.12 1.57-.57 1.61.12 1.16l.3-.3.56-.54q.77-.75 1.55-1.48 1.79-1.67 3.6-3.32 4.58-4.17 9.2-8.28c6.6-5.91 13.23-11.79 19.71-17.83 2.14-1.98 4.34-3.96 6.3-6.12a5 5 0 0 0 1.5-3.45 2.8 2.8 0 0 0-3.4-2.78c-1.28.31-2.58 1.68-3.6 2.51-5.94 4.8-11.78 9.7-17.71 14.5-3.46 2.79-6.7 5.37-10.08 7.9a76 76 0 0 1-3.82 2.7q-.66.41-1.34.8a4 4 0 0 0-.52.27c-.29.22.61-.21.28-.12-.53.14.28-.1.64.03l1.05.61.17.18.33 1.2c-.07-.55-.18.17-.1.2.02 0 .24-.26.26-.27a14 14 0 0 0 1.1-1.09l4.24-4.25c3.49-3.51 6.98-7.03 10.37-10.64 2.11-2.26-1.28-5.66-3.4-3.4-4.42 4.72-9 9.3-13.58 13.86-1.08 1.09-2.62 2.25-3.3 3.65-1.06 2.18.25 5.07 2.94 4.66a6 6 0 0 0 1.95-.75c3.76-2.03 7.15-4.98 10.5-7.6a882 882 0 0 0 13.87-11.22l6.89-5.67 2.71-2.2 1.14-.92.44-.35.2-.16c.33-.28.42-.01-.36.2h-1.27l.14.02-1.05-.61c-1.5-1.29.14-1.82-.69-1.1q-.26.26-.51.54l-1.48 1.48q-1.71 1.68-3.48 3.32-4.55 4.25-9.17 8.4c-6.62 5.98-13.3 11.88-19.9 17.88-2.18 1.98-4.41 3.94-6.47 6.04a4 4 0 0 0-1.4 3.78 3.03 3.03 0 0 0 3.85 2.16 15 15 0 0 0 3.29-1.65c6.6-3.96 12.63-8.97 18.63-13.77q5.28-4.21 10.47-8.53 1.94-1.61 3.87-3.24l1.36-1.15.54-.46q.12-.08.23-.2c.4-.37.23.13-.43.24l-1.85-.24.13.06-.86-.87c.01.02-.37-1.02.08-1.08-.1.01-.35.37-.42.44l-.75.8q-1.05 1.11-2.08 2.23l-4.74 5.2a567 567 0 0 1-10.26 11.08 133 133 0 0 1-4.63 4.62c-1.48 1.4-3.65 2.7-3.59 5.01a2.93 2.93 0 0 0 3.49 2.9 13 13 0 0 0 3.13-1.24 47 47 0 0 0 6.3-3.94c2.54-1.81 5-3.74 7.47-5.66l3.29-2.57a22 22 0 0 1 3.12-2.25l-1.2.33-.18-.03-1.06-.61.15.18-.62-1.06c-.23-.8.18-.65-.2-.29a4 4 0 0 0-.36.49l-.68.9c-.5.67-.98 1.28-1.61 2.08q-2.2 2.77-4.47 5.48c-2.62 3.14-5.36 6.15-8.1 9.18a3.85 3.85 0 0 0-.8 4.48 3 3 0 0 0 4.1.94c.56-.32 1.1-.72 1.64-1.08l8.3-5.43 4.42-2.9a14 14 0 0 1 2.05-1.28l-1.21.33.22-.01-1.2-.33-.17-.14-.62-1.06q.22-.68-.01-.44-.16.3-.34.58-.27.45-.56.88-.65 1-1.4 1.93a59 59 0 0 1-3.7 4.19 111 111 0 0 1-3.75 3.72c-1.24 1.18-2.65 2.29-2.66 4.18a2.97 2.97 0 0 0 4.02 2.84c1.53-.45 3.02-1.1 4.5-1.67q2.5-1 4.98-2.04a37 37 0 0 1 4.36-1.78h-1.28l-.19-.09-.86-.86c-.8-1.46.14-1.24-.32-.83a4 4 0 0 0-.5.72l-1.74 2.5-4.27 6.14c-1.07 1.54-2.68 3.26-2.11 5.3a2.9 2.9 0 0 0 2.76 2.14 10 10 0 0 0 3.25-1l3.4-1.29a22 22 0 0 1 3.27-1.22h-1.27l.21.06-1.06-.62-.13-.12-.32-1.21c-.01-.08.61-.74-.25.25l-.58.74-1.55 1.99c-.92 1.19-2.26 2.43-2.68 3.9-1.12 3.98 3.6 4.43 6.3 4.24a2.46 2.46 0 0 0 2.4-2.4 2.4 2.4 0 0 0-2.4-2.4Zm-66 198.09a34 34 0 0 0-1.1-7.06q-1.07-5.4-2.33-10.77c-1.79-7.6-3.83-15.16-8.15-21.79a78 78 0 0 0-19.73-20.8 58 58 0 0 0-12.3-6.66 53 53 0 0 0-6.72-2.17 22 22 0 0 0-7.69-.96c-5.78.68-11.37 4.26-15.44 8.3a38 38 0 0 0-8.82 14.82c-1 2.93 3.64 4.19 4.63 1.28a33 33 0 0 1 6.72-11.82 26 26 0 0 1 11.68-7.5 13 13 0 0 1 6.47.22 54 54 0 0 1 6.63 1.97 53 53 0 0 1 11.34 5.92 72 72 0 0 1 18.23 18.56 44 44 0 0 1 5.45 10.65c1.06 3.06 1.85 6.2 2.61 9.34q1.4 5.77 2.57 11.6.48 2.32.88 4.65l.16.94.05.33c.09.57-.06-.55 0-.04a8 8 0 0 1 .06 1c-.07 3.08 4.73 3.08 4.8 0Zm-12.31-124q-.22.63-.46 1.23l.24-.57a7 7 0 0 1-.85 1.5l.38-.48a4 4 0 0 1-.74.74l.49-.37-.29.2a2.5 2.5 0 0 0-1.1 1.43 2 2 0 0 0-.04.96 2 2 0 0 0 .28.9 2.4 2.4 0 0 0 3.29.85 7 7 0 0 0 2.29-2.41 17 17 0 0 0 1.14-2.7 2 2 0 0 0 .04-.96 2 2 0 0 0-.28-.9 2.4 2.4 0 0 0-3.29-.85l-.48.37a2.4 2.4 0 0 0-.62 1.06" class="d"/><path d="M49.6 188.05c-3.62-.1-6.2 2.37-6.28 5.35-.1 3.34 2.4 5.7 5.97 5.8 3.7.1 6.18-2.14 6.28-5.45.08-3-2.37-5.6-5.97-5.7" class="a"/><path d="M49.6 185.65a8.5 8.5 0 0 0-8.24 5.35 7.9 7.9 0 0 0 2.8 8.98 9.6 9.6 0 0 0 9.61.66 7.8 7.8 0 0 0 4.1-8.12c-.56-4.13-4.3-6.7-8.27-6.87a2.4 2.4 0 0 0-2.4 2.4 2.45 2.45 0 0 0 2.4 2.4 2 2 0 0 1 .55.04c-.3-.16-.34-.07-.1-.01q.4.08.83.2a2 2 0 0 1 .47.16c-.21-.2-.34-.16-.12-.04q.42.23.82.49c.42.27-.25-.29-.06-.04l.28.26.26.27c.33.34-.1.05-.04-.07-.01.02.37.58.4.63s.19.5.07.12c-.13-.4.06.2.08.28l.08.29.03.14q.07.4-.01-.19a4 4 0 0 0 .03.77l-.02.32c0 .55.13-.55.01-.02l-.2.81c-.08.3-.23.2.06-.1l-.16.33q-.18.31-.38.61c-.15.27.4-.43.07-.1l-.2.21-.32.3c-.36.33.45-.29.03-.03l-.64.37c-.45.26.52-.17.02 0l-.3.1-.77.2c-.55.14.55-.03-.03.01l-.51.04a8 8 0 0 1-.9-.02 1 1 0 0 1-.34-.03l.3.04-.33-.07a7 7 0 0 1-.79-.2l-.3-.12q.5.22.15.06l-.27-.14c-.1-.06-.57-.43-.64-.4.04-.02.44.39.14.1l-.33-.3-.2-.22c-.34-.35.2.36.06.09l-.41-.7c-.26-.44.16.53 0 .04l-.1-.29c-.04-.09-.09-.7-.17-.75l.05.33-.03-.65q0-.24.02-.47c.02-.52-.14.53 0 .04a4 4 0 0 0 .25-.86c.06.18-.22.44-.06.16l.3-.52.16-.24q-.34.42-.1.13a4 4 0 0 1 .42-.44c.43-.4-.02-.04-.02-.02-.02-.07.7-.44.8-.5.04-.02.5-.28.15-.08-.34.19.24-.08.33-.1l.32-.1c.15-.03.88-.27.21-.07a4 4 0 0 1 1.1-.05 2.4 2.4 0 0 0 0-4.8" class="d"/><path d="M259.33 118.66a64 64 0 0 1-13.14 4.48 48 48 0 0 1-4.78.66c-10.27.91-18.79-1.78-26.81-8.35-7.66-6.27-11-16.15-12.2-27.07-.69-6.3-1.29-13.14-2.2-19.99 0 0-9.8-33.21 28.85-33.21 61.83 0 57.63 35.99 57.63 35.99a7 7 0 0 1 5-1.1 6.3 6.3 0 0 1 5.2 3.59c1.52 3.33.77 9.05-.92 12.46a18 18 0 0 1-6.86 8.07 13 13 0 0 1-7.15 1.48l-.53 1.1c-.78 1.64-2.64 4.5-2.64 4.5a58 58 0 0 1-6.46 8.08 56 56 0 0 1-13 9.31" class="a"/><path d="M251.2 67.25a12 12 0 0 0 1 1.3 7 7 0 0 0 .69.7 13 13 0 0 0 1.89 1.35 2 2 0 0 0 .9.29 2.5 2.5 0 0 0 2.38-1.15 2.4 2.4 0 0 0 .25-1.85 2.5 2.5 0 0 0-1.1-1.43 10 10 0 0 1-1.1-.73l.5.38a7 7 0 0 1-1.27-1.25l.38.48q-.2-.25-.37-.52a2.5 2.5 0 0 0-1.43-1.1 2 2 0 0 0-.96-.04 2 2 0 0 0-.89.28 2.4 2.4 0 0 0-1.1 1.44l-.09.64a2.4 2.4 0 0 0 .33 1.2Zm-18.8 39.53-.41.45c-.2.2-.46.33-.06.08l-.43.27c-.41.27.42-.07-.05.01-.56.1.08.02.08.03l-.37.01c-.55.03.28.11.02.01a3 3 0 0 1-.48-.14c0-.01.55.29.1.03l-.4-.24c-.32-.18-.3-.26-.03.01l-.43-.38q-.36-.36-.7-.76c-.27-.3.28.42-.04-.07l-.34-.52q-.27-.43-.49-.88c-.03-.08-.27-.65-.13-.29l-.13-.36a9 9 0 0 1-.27-1 2 2 0 0 1-.1-.5c0 .01.04.63.04.22l-.01-.28v-.46c0-.56.09.03-.03.07l.1-.42c.1-.46.07-.06-.04.03.03-.03.18-.36.2-.34.05.02-.46.46-.08.14s-.15.11-.08.05c.45-.37-.06.06-.02-.03.08-.18.57-.03.72.03a11 11 0 0 1 1.58.92 6.6 6.6 0 0 0 4.25 1.12 11 11 0 0 0 3.98-1.32l1.55-.83a6 6 0 0 1 1.32-.55c.1-.04.47-.04 0 0l.3-.03.67.01c.42.01-.41-.13.14.04l.24.07c.4.04-.23-.17-.05-.04l.47.27c.35.17-.26-.3 0 0a3 3 0 0 0 .37.38c.23.17-.21-.39-.09-.12l.17.26.27.48c.2.35-.12-.41.03.1q.17.6.32 1.21c.15.61-.03-.48.02.13l.04.6a11 11 0 0 1-.03 1.3l-.02.26c-.02.45.08-.34 0-.05l-.12.65a11 11 0 0 1-.36 1.22c-.18.53.2-.39-.05.1-.18.36-.19.3.1-.01.2-.21-.01-.04-.06 0 .23-.22.32.02 0-.02-.26-.03.15-.01.18-.01h-.48l-.3-.02c.35.03.14.03-.09-.03a13 13 0 0 1-1.72-.56c-.26-.1-.02 0 .03.02l-.54-.25c-1.04-.49-2.04-1.05-3.08-1.53a2.47 2.47 0 0 0-3.28.86 2.4 2.4 0 0 0 .86 3.29c2.51 1.15 4.9 2.71 7.71 3a5.2 5.2 0 0 0 4.13-1.34 7 7 0 0 0 1.51-3.2c1.07-4.27.07-10.4-4.91-11.65a7.4 7.4 0 0 0-4.21.17c-1.5.54-2.81 1.43-4.26 2.07.31-.13-.5.18-.58.2l-.47.11c.12-.02.4 0-.08 0h-.48c.35.02-.05-.02-.11-.04-.38-.14-.31-.09-.2-.04a6 6 0 0 1-.67-.42 8 8 0 0 0-4.9-1.64 5.1 5.1 0 0 0-4.56 4.25 10.3 10.3 0 0 0 1.17 6.24 10 10 0 0 0 4.47 4.66 5.9 5.9 0 0 0 7.07-1.67 2.46 2.46 0 0 0 0-3.39 2.4 2.4 0 0 0-3.4 0Zm19.2-7.46a20 20 0 0 1 1.37 2.66l-.24-.57q.21.5.4 1.01a2.7 2.7 0 0 0 1.1 1.44 2.5 2.5 0 0 0 1.85.24 2.4 2.4 0 0 0 1.44-1.1 2.4 2.4 0 0 0 .24-1.85 23 23 0 0 0-2.01-4.25 2.5 2.5 0 0 0-1.44-1.1 2.7 2.7 0 0 0-1.85.24 2.4 2.4 0 0 0-1.1 1.44 2.5 2.5 0 0 0 .24 1.85Z" class="d"/><path d="m213.9 47.9-.53.39c-6.47 4.9-9.85 11.83-10.18 17.8l-2.95 1.8a81 81 0 0 1-1.4-15.27c-.22-12.46 5.6-24.64 10.72-31.41a52 52 0 0 1 9.86-9.02c9.94-7.05 20.52-9.88 32.88-9.74 12.57.15 25.3 3.36 34.33 14.9 10.72 9.62 15.54 17.14 15.08 37.18a48 48 0 0 1-4.01 16.91c-1.14 7.01 1.15-.29-6-1.37a7 7 0 0 0-5.02 1.1l-10.06.3c-.3-2.25-.91-10.02-2.18-11.9-.9-1.34-7.24-.46-8.57-1.47-.85-.64-3.64-5.23-5.7-8.07a3 3 0 0 0-2.84-1.24c-7.4 1.12-19.53-2.5-25.47-5.94l-8.83 1.53a21 21 0 0 0-9.12 3.51" class="c"/><path d="M250.96 98.15a20 20 0 0 1 1.76 3.67" style="fill:none"/><path d="M244.26 79.28c-.6-2.23.02-7.29 4.21-7.58 5.52.23 5.6 6.38 3.65 9.2-1.6 2.3-6.12 3.13-7.86-1.62m-32.84-.1c-.55-2.24.02-7.32 3.86-7.6 5.06.22 5.13 6.39 3.34 9.22-1.47 2.31-5.6 3.14-7.2-1.62m16.87 5.04q-1.09 1.8-2.01 3.7a6 6 0 0 0-.65 2.14 3.1 3.1 0 0 0 1.06 2.47 5 5 0 0 0 1.95 1.11 11 11 0 0 0 1.43.2l-.64-.09h.06a2.6 2.6 0 0 0 1.85-.23 2.4 2.4 0 0 0 .86-3.29 2.3 2.3 0 0 0-1.44-1.1l-1.22-.15.64.09a2 2 0 0 1-.55-.15l.58.24a3 3 0 0 1-.46-.26l.49.37a3 3 0 0 1-.38-.35l.38.49-.08-.14.24.58-.06-.23.09.64v-.24l-.09.64a3 3 0 0 1 .17-.58l-.24.57a38 38 0 0 1 2.16-4 2.4 2.4 0 1 0-4.14-2.42Zm59.6-10.98a5 5 0 0 1 4.7-.49 3.3 3.3 0 0 1 2.08 1.82c1.34 2.74.6 6.62-.38 9.37a16.5 16.5 0 0 1-5.34 7.47c-1.98 1.49-5.56 2.72-8.18 1.52a2.47 2.47 0 0 0-3.29.86 2.4 2.4 0 0 0 .86 3.28 13.3 13.3 0 0 0 10.7-.2 17.4 17.4 0 0 0 7.76-7.26 22.6 22.6 0 0 0 3.26-10.13c.23-3.18-.27-6.69-2.52-9.1a9.8 9.8 0 0 0-12.07-1.28c-2.56 1.7-.16 5.86 2.42 4.14" class="d"/><path d="M260.54 120.73a56 56 0 0 0 13.28-9.48 53 53 0 0 0 5.8-7 45 45 0 0 0 3.88-6.28 2.46 2.46 0 0 0-.86-3.28 2.4 2.4 0 0 0-3.29.86c-4.54 9.27-12.23 16.34-21.24 21.03-2.74 1.43-.31 5.57 2.43 4.15" class="d"/><path d="M197.8 68.4c1 7.65 1.5 15.38 2.6 23.03a48 48 0 0 0 5.83 17.85c6.6 11.03 19.65 17.37 32.31 17.08 7.72-.17 15.03-2.43 22-5.63a2.4 2.4 0 0 0 .86-3.28 2.46 2.46 0 0 0-3.28-.87c-10.68 4.9-23.3 7.27-34.3 1.97a31 31 0 0 1-12.87-10.77 42 42 0 0 1-5.61-15.65c-1.35-7.83-1.7-15.86-2.73-23.74a2.5 2.5 0 0 0-2.4-2.4 2.4 2.4 0 0 0-2.4 2.4Z" class="d"/><path d="M286.59 13.59a41 41 0 0 0-23.05-12.47 66 66 0 0 0-26.93.59 55.6 55.6 0 0 0-22.78 11.82 42 42 0 0 0-8.4 9.44 61 61 0 0 0-5.84 11.97c-3.94 10.87-3.71 22.36-1.67 33.6a2.4 2.4 0 0 0 2.96 1.68 2.45 2.45 0 0 0 1.67-2.96c-1.65-9.1-2.07-18.6.54-27.58 2.2-7.6 5.98-15.17 11.78-20.66a51 51 0 0 1 19.97-11.85A60 60 0 0 1 259.5 5.3c9.08 1.13 17.48 4.86 23.69 11.67 2.08 2.29 5.47-1.11 3.39-3.4m13.8 57.59a53 53 0 0 0 3.5-13.43 64 64 0 0 0 0-12.45c-.53-6.26-1.96-12.45-5.23-17.88a44 44 0 0 0-6.09-7.7c-2.15-2.24-5.54 1.16-3.39 3.39a33 33 0 0 1 8.04 12.6c2.1 6.4 2.45 13.53 2.03 20.2a47 47 0 0 1-3.5 13.99 2.4 2.4 0 0 0 1.67 2.95 2.46 2.46 0 0 0 2.95-1.68Z" class="d"/><path d="M222.39 42.07a24.7 24.7 0 0 0-14.76 8.27 26.5 26.5 0 0 0-6.84 15.76 2.4 2.4 0 1 0 4.8 0 20 20 0 0 1 1.49-6.12 23 23 0 0 1 4.17-6.5 22 22 0 0 1 5.27-4.41 21 21 0 0 1 7.14-2.37 2.4 2.4 0 0 0 1.68-2.96 2.46 2.46 0 0 0-2.95-1.67m8.25 2.85a51 51 0 0 0 12.4 4.82c4.35 1.14 9.05 2 13.55 1.54.99-.1 1.31-.3 1.92.5q1.12 1.48 2.36 2.87a41 41 0 0 0 4 4.05 9.5 9.5 0 0 0 4.67 1.75q1.27.2 2.51.52l.48.15c.7.22-.25-.05.12.05.25.06.41.02 0-.02s0-.45-.05.04a17 17 0 0 1 .5 2.01q.32 1.56.52 3.12c.22 1.62.38 3.45.6 5.15a2.5 2.5 0 0 0 2.4 2.4c1.17 0 2.57-1.11 2.4-2.4-.48-3.64-.62-7.4-1.62-10.94a5.2 5.2 0 0 0-3.38-3.96c-1.73-.63-3.6-.72-5.36-1.2l-.44-.13c-.47-.14 0 .12-.06-.02-.11-.27.43.38.1.1l-.26-.23a46 46 0 0 1-2.03-2q-1.2-1.24-2.32-2.54a30 30 0 0 0-2.27-2.76c-2.17-1.96-4.6-1.19-7.15-1.2a35 35 0 0 1-6.79-.75 48 48 0 0 1-14.37-5.06c-2.69-1.54-5.11 2.61-2.43 4.14" class="d"/></svg>
