<svg xmlns="http://www.w3.org/2000/svg" fill="currentColor" viewBox="0 0 64 64"><g id="satelite_dish"><path d="M43.2 14.3a4.3 4.3 0 0 0-5.7 2.3l-7.1-3.4L26.9 5c-.1-.2-.3-.4-.5-.5s-.5-.1-.8 0a18.7 18.7 0 0 0-6.4 30V42c-3.9 1.6-6.6 5.1-6.9 9H12c-2.8 0-5 2.2-5 5v4c0 .6.4 1 1 1h32c.6 0 1-.4 1-1v-4c0-2.8-2.2-5-5-5h-.1c-.4-3.9-3-7.3-6.9-9v-1.9A18.4 18.4 0 0 0 40 39c.5-.2.7-.8.5-1.3L37 29.5l2.6-6.9s.1 0 .1.1a4.7 4.7 0 0 0 3.5-.1c2.3-1 3.4-3.6 2.4-5.9-.4-1.1-1.3-1.9-2.4-2.4M21 28c0-1.7 1.3-3 3-3s3 1.3 3 3v17c0 1.7-1.3 3-3 3s-3-1.3-3-3zm18 28v3H9v-3c0-1.7 1.3-3 3-3h24c1.7 0 3 1.3 3 3m-5.1-5H14.1c.3-2.9 2.2-5.4 4.9-6.8v.8c0 2.8 2.2 5 5 5s5-2.2 5-5v-.8a8.6 8.6 0 0 1 4.9 6.8M29 38.1V28c0-2.8-2.2-5-5-5s-5 2.2-5 5v3.3c-.6-.9-1.2-1.9-1.7-3-3.5-8.2.1-17.6 8-21.5l3.2 7.6L35 29.9l3.2 7.6a16 16 0 0 1-9.2.6m2.4-22 5.6 2.6q0 .75.3 1.5c.2.4.4.8.7 1.1l-2 5.5zm11.1 4.7c-.6.3-1.3.3-1.9 0s-1.1-.7-1.4-1.3c-.5-1.3.1-2.7 1.3-3.3.3-.1.6-.2 1-.2.3 0 .6.1.9.2.6.3 1.1.7 1.4 1.3.5 1.3-.1 2.8-1.3 3.3"/><path d="M43.5 10.2c-.5-.1-1.1.2-1.2.8-.1.5.2 1.1.8 1.2 1.9.4 3.4 1.7 4.2 3.5s.6 3.8-.4 5.4c-.3.5-.2 1.1.3 1.4.2.1.4.2.5.2.3 0 .7-.2.8-.5 1.4-2.2 1.6-4.9.6-7.3s-3.1-4.2-5.6-4.7"/><path d="M45 6.6c-.5-.1-1.1.2-1.2.7s.2 1.1.7 1.2c2.8.8 5.1 2.8 6.3 5.6s1.1 5.9-.4 8.5c-.3.5-.1 1.1.4 1.4.2.1.3.1.5.1.4 0 .7-.2.9-.5 1.7-3.1 1.9-6.8.4-10.2-1.4-3.4-4.2-5.8-7.6-6.8"/><path d="M56 11.9c-1.8-4.3-5.3-7.5-9.7-8.9-.5-.2-1.1.1-1.3.6s.1 1.1.6 1.3c3.8 1.2 6.9 4.1 8.4 7.8 1.6 3.7 1.5 7.9-.3 11.5-.2.5 0 1.1.5 1.3.1.1.3.1.4.1q.6 0 .9-.6c2.2-4 2.3-8.8.5-13.1"/></g></svg>
