<svg xmlns="http://www.w3.org/2000/svg" fill="none" viewBox="0 0 24 24"><path stroke="currentColor" stroke-width="1.5" d="M20.47 10.92s-1.85-.62-4.31-3.08-3.08-4.31-3.08-4.31"/><path fill="currentColor" d="M16.7 8.37a.75.75 0 0 0-1.07-1.06zm-15.06.66a.75.75 0 0 0 .72 1.31zm12.02 12.6a.75.75 0 0 0 1.3.73zm-9.19-3.16a.75.75 0 1 0 1.06 1.06zm8.25-15.6L1.64 9.03l.72 1.31L13.45 4.2zm7.1 7.68-6.16 11.09 1.3.72 6.17-11.08zm-4.19-3.24L4.47 18.47l1.06 1.06L16.69 8.37z"/><path stroke="currentColor" stroke-linecap="round" stroke-width="1.5" d="M13.08 10.92a5.22 5.22 0 1 0 7.39-7.39 5.22 5.22 0 0 0-7.39 7.39Z"/></svg>
