<svg xmlns="http://www.w3.org/2000/svg" fill="none" viewBox="0 0 24 24"><path fill="currentColor" d="M6.5 4A2.5 2.5 0 0 0 4 6.5V7a1 1 0 0 1-2 0v-.5A4.5 4.5 0 0 1 6.5 2H7a1 1 0 0 1 0 2z"/><path fill="currentColor" fill-rule="evenodd" d="M10.96 6q-1-.01-1.68.04a4 4 0 0 0-1.37.34 3.5 3.5 0 0 0-1.53 1.53c-.22.43-.3.89-.34 1.37Q6 9.6 6 10H4a1 1 0 1 0 0 2h16a1 1 0 1 0 0-2h-2l-.04-.72a4 4 0 0 0-.34-1.37 3.5 3.5 0 0 0-1.53-1.53 4 4 0 0 0-1.37-.34A22 22 0 0 0 13.04 6zm5.03 4q0-.33-.02-.56a2 2 0 0 0-.13-.62 1.5 1.5 0 0 0-.66-.66c-.1-.05-.26-.1-.62-.13S13.72 8 13 8h-2c-.72 0-1.2 0-1.56.03s-.52.08-.62.13a1.5 1.5 0 0 0-.66.66c-.05.1-.1.26-.13.62l-.02.56z" clip-rule="evenodd"/><path fill="currentColor" d="M14.08 18h-3.12q-1 .01-1.68-.04a4 4 0 0 1-1.37-.34 3.5 3.5 0 0 1-1.53-1.53l-.08-.15-.06-.1a2 2 0 0 1-.19-.5A3 3 0 0 1 6 14.8V14a1 1 0 1 1 2 0l.01.9.15.28q.23.43.66.66c.1.05.26.1.62.13.37.03.84.03 1.56.03h3c.5 0 .64 0 .73-.02a1.5 1.5 0 0 0 1.25-1.25c.02-.1.02-.23.02-.73a1 1 0 1 1 2 0v.08q.01.58-.04.97a3.5 3.5 0 0 1-2.91 2.9q-.4.06-.97.05M22 17a1 1 0 1 0-2 0v.5a2.5 2.5 0 0 1-2.5 2.5H17a1 1 0 1 0 0 2h.5a4.5 4.5 0 0 0 4.5-4.5zM16 3a1 1 0 0 1 1-1h.5A4.5 4.5 0 0 1 22 6.5V7a1 1 0 1 1-2 0v-.5A2.5 2.5 0 0 0 17.5 4H17a1 1 0 0 1-1-1M4 17a1 1 0 1 0-2 0v.5A4.5 4.5 0 0 0 6.5 22H7a1 1 0 1 0 0-2h-.5A2.5 2.5 0 0 1 4 17.5z"/></svg>
