<svg xmlns="http://www.w3.org/2000/svg" fill="none" viewBox="0 0 24 24"><path stroke="currentColor" stroke-linejoin="round" stroke-width="2" d="M22 12a10 10 0 1 1-20 0 10 10 0 0 1 20 0Z"/><path stroke="currentColor" stroke-linejoin="round" stroke-width="2" d="M14.39 11H9.6a1.43 1.43 0 0 0-.85 2.57l2.04 1.53a2 2 0 0 0 2.4 0l2.04-1.53A1.43 1.43 0 0 0 14.4 11Z"/><path stroke="currentColor" stroke-linecap="round" stroke-linejoin="round" stroke-width="2" d="M8.5 11 4 7.5M15.5 11l5-4M12 16v6M7.21 3.4C7.71 4.22 9.11 6 12 6a5.4 5.4 0 0 0 4.79-2.6"/></svg>
