<svg xmlns="http://www.w3.org/2000/svg" fill="none" viewBox="0 0 20 21"><path fill="currentColor" d="M15.27 12.51v-1.76h1.21a3.52 3.52 0 0 0 0-7.03h-1.2V1.96H4.72v1.76H3.55V4.9h1.18v1.76h10.54V4.9h1.21a2.35 2.35 0 0 1 0 4.7h-1.2V7.81H4.72v1.76h-1.2a3.52 3.52 0 0 0 0 7.03h1.2v1.76h10.55V16.6h1.18v-1.17h-1.18v-1.76H4.73v1.76H3.52a2.35 2.35 0 0 1 0-4.69h1.2v1.76z"/><path fill="currentColor" d="m17.08 14.86 1.17 1.17-1.17 1.17.83.83 2.09-2-2.09-2zM.83 6.3l2.09-2-2.1-2-.82.83L1.17 4.3 0 5.48z"/></svg>
