<svg xmlns="http://www.w3.org/2000/svg" fill="none" viewBox="0 0 24 24"><path stroke="currentColor" stroke-linecap="round" stroke-width="1.5" d="M14.5 17.1 8 6m10 10.2c0 1-.84 1.8-1.87 1.8s-1.88-.8-1.88-1.8.84-1.8 1.88-1.8c1.03 0 1.87.8 1.87 1.8Zm-8.5.9L16 6M6 16.2c0 1 .84 1.8 1.88 1.8 1.03 0 1.87-.8 1.87-1.8s-.84-1.8-1.87-1.8S6 15.2 6 16.2Z"/><path fill="none" stroke="currentColor" stroke-linecap="round" stroke-width="1.5" d="M22 12c0 4.71 0 7.07-1.46 8.54C19.07 22 16.7 22 12 22s-7.07 0-8.54-1.46C2 19.07 2 16.7 2 12s0-7.07 1.46-8.54C4.93 2 7.3 2 12 2s7.07 0 8.54 1.46c.97.98 1.3 2.35 1.4 4.54"/></svg>
