<svg xmlns="http://www.w3.org/2000/svg" preserveAspectRatio="xMidYMid" viewBox="0 -1 256 256"><defs><style>.cls-6{fill:#a74920}</style></defs><g id="scoreboard"><path id="rect-1" d="M82 200h92v54H82z" style="fill:#d9e7eb"/><path id="path-1" fill-rule="evenodd" d="M16 0h224a16 16 0 0 1 16 16v168a16 16 0 0 1-16 16H16a16 16 0 0 1-16-16V16A16 16 0 0 1 16 0" style="fill:#b6cdd5"/><path id="path-2" fill-rule="evenodd" d="M45 37h166a8 8 0 0 1 8 8v110a8 8 0 0 1-8 8H45a8 8 0 0 1-8-8V45a8 8 0 0 1 8-8" style="fill:#fff"/><path id="path-3" fill-rule="evenodd" d="M172 142a29 29 0 0 1-29-29V88a29 29 0 0 1 58 0v25a29 29 0 0 1-29 29m10-54a10 10 0 1 0-20 0v25a10 10 0 1 0 20 0zm-97 54h-4a8 8 0 0 1-8-8V79h-2a8 8 0 0 1-8-8v-4a8 8 0 0 1 8-8h14a8 8 0 0 1 8 8v67a8 8 0 0 1-8 8" class="cls-6"/><path id="path-4" fill-rule="evenodd" d="M120 91a9 9 0 1 1 0-18 9 9 0 0 1 0 18m0 18a9 9 0 1 1 0 18 9 9 0 0 1 0-18" class="cls-6"/></g></svg>
