<svg xmlns="http://www.w3.org/2000/svg" fill="currentColor" style="fill-rule:evenodd;clip-rule:evenodd;stroke-linejoin:round;stroke-miterlimit:2" viewBox="0 0 1069 1069"><path id="Square-television" d="M1.17 1.67h1066.67v1066.67H1.17z" style="fill:none"/><path d="M365.02 982.92h338.96a31.26 31.26 0 0 0 0-62.5H365.02a31.26 31.26 0 0 0 0 62.5m252.81-872.93H352.6a197.9 197.9 0 0 0-197.92 197.92v363.81A197.9 197.9 0 0 0 352.6 869.64h363.8a197.9 197.9 0 0 0 197.92-197.92V368.33a31.26 31.26 0 0 0-62.5 0v303.39a135.4 135.4 0 0 1-135.41 135.42H352.6a135.4 135.4 0 0 1-135.42-135.42V307.91A135.4 135.4 0 0 1 352.6 172.49h265.23a31.26 31.26 0 0 0 0-62.5M267.96 641.78c0 63.28 51.3 114.58 114.58 114.58h303.92c63.28 0 114.58-51.3 114.58-114.58V337.85c0-63.28-51.3-114.58-114.58-114.58H382.54c-63.28 0-114.58 51.3-114.58 114.58zm62.5 0V337.85a52.1 52.1 0 0 1 52.08-52.08h303.92a52.1 52.1 0 0 1 52.08 52.08v303.93a52.1 52.1 0 0 1-52.08 52.08H382.54a52.1 52.1 0 0 1-52.08-52.08"/><path d="M914.32 307.91A197.9 197.9 0 0 0 716.4 109.99H352.6a197.9 197.9 0 0 0-197.92 197.92v363.81A197.9 197.9 0 0 0 352.6 869.64h363.8a197.9 197.9 0 0 0 197.92-197.92zm-62.5 0v363.81A135.4 135.4 0 0 1 716.4 807.14H352.6a135.4 135.4 0 0 1-135.42-135.42V307.91A135.4 135.4 0 0 1 352.6 172.49h363.8a135.4 135.4 0 0 1 135.42 135.42m-70.37 159.8-60.23-60.22c-41.03-41.03-107.55-41.03-148.59 0L452.17 527.95a42.57 42.57 0 0 1-60.2 0l-60.23-60.23a31.26 31.26 0 0 0-44.2 0 31.26 31.26 0 0 0 0 44.2l60.24 60.22c41.03 41.03 107.56 41.03 148.59 0l120.46-120.46a42.57 42.57 0 0 1 60.2 0l60.23 60.23a31.26 31.26 0 0 0 44.2-44.2" style="fill-opacity:.5"/></svg>
