<svg xmlns="http://www.w3.org/2000/svg" fill="currentColor" style="fill-rule:evenodd;clip-rule:evenodd;stroke-linejoin:round;stroke-miterlimit:2" viewBox="0 0 1069 1069"><path id="Lcd" d="M1.45 1.59h1066.67v1066.67H1.45z" style="fill:none"/><path d="M268.11 1012.7h533.34a33.35 33.35 0 0 0 33.33-33.33 33.35 33.35 0 0 0-33.33-33.34H268.1a33.35 33.35 0 0 0-33.33 33.34 33.35 33.35 0 0 0 33.33 33.33m553.85-266.71c17.64.3 35.04-6.13 35.04-33.54v-21.97c0-116.6-94.52-211.11-211.1-211.11h-48.61a34.43 34.43 0 0 0-33.94 33.33c-.3 18.4 14.94 33.33 33.33 33.33h49.2c79.79 0 144.46 64.68 144.46 144.45v22.22c0 17.82 16.1 33.03 31.61 33.29" style="fill-opacity:.5"/><path d="M1012.56 312.7c0-116.6-94.52-211.11-211.11-211.11H268.12C151.52 101.59 57 196.1 57 312.7v355.56c0 116.59 94.52 211.1 211.12 211.1h533.33c116.6 0 211.11-94.51 211.11-211.1zm-66.67 0v355.56c0 79.77-64.67 144.44-144.44 144.44H268.12c-79.78 0-144.45-64.67-144.45-144.44V312.7c0-79.78 64.67-144.44 144.45-144.44h533.33c79.77 0 144.44 64.66 144.44 144.44m-684.18 200a139.7 139.7 0 0 0-49.15 106.4v.02a139.73 139.73 0 0 0 139.73 139.73h14.19A139.73 139.73 0 0 0 506.2 619.12v-.02a139.7 139.7 0 0 0-49.15-106.4 139.7 139.7 0 0 0 49.16-106.4v-.02a139.73 139.73 0 0 0-139.74-139.73h-14.19a139.73 139.73 0 0 0-139.73 139.73v.02a139.7 139.7 0 0 0 49.15 106.4m90.58 33.33h14.19a73.06 73.06 0 0 1 73.06 73.07v.02a73.07 73.07 0 0 1-73.06 73.07h-14.19a73.07 73.07 0 0 1-73.06-73.07v-.02a73.06 73.06 0 0 1 73.06-73.07m14.19-66.66h-14.19a73.07 73.07 0 0 1-73.06-73.07v-.02a73.06 73.06 0 0 1 73.06-73.07h14.19a73.06 73.06 0 0 1 73.06 73.07v.02a73.06 73.06 0 0 1-73.06 73.07m310.8-192.78a35.3 35.3 0 0 1 35.28 35.28 35.3 35.3 0 0 1-35.28 35.28A35.3 35.3 0 0 1 642 321.87a35.3 35.3 0 0 1 35.28-35.28"/></svg>
