<svg xmlns="http://www.w3.org/2000/svg" fill="none" viewBox="0 0 24 24"><path stroke="currentColor" stroke-linecap="round" stroke-linejoin="round" stroke-width="2" d="M10.87 3.13c.4-.4.6-.6.82-.67a1 1 0 0 1 .62 0c.23.08.43.28.82.67l1.4 1.4c.17.17.26.26.36.32a1 1 0 0 0 .3.12c.1.03.23.03.47.03h1.74c.56 0 .84 0 1.05.1a1 1 0 0 1 .44.45c.11.21.11.49.11 1.05v1.74a2 2 0 0 0 .03.48q.03.15.12.29c.06.1.15.19.32.36l1.4 1.4c.4.4.6.6.67.82a1 1 0 0 1 0 .62c-.08.23-.28.43-.67.82l-1.4 1.4c-.17.17-.26.26-.32.36a1 1 0 0 0-.12.3q-.04.13-.03.47v1.74c0 .56 0 .84-.1 1.05a1 1 0 0 1-.45.44c-.21.11-.49.11-1.05.11h-1.74c-.24 0-.36 0-.48.03a1 1 0 0 0-.29.12c-.1.06-.19.15-.36.32l-1.4 1.4c-.4.4-.6.6-.82.67a1 1 0 0 1-.62 0c-.23-.08-.43-.28-.82-.67l-1.4-1.4a2 2 0 0 0-.36-.32 1 1 0 0 0-.3-.12q-.13-.04-.47-.03H6.6c-.56 0-.84 0-1.05-.1a1 1 0 0 1-.44-.45C5 18.24 5 17.96 5 17.4v-1.74c0-.24 0-.36-.03-.48a1 1 0 0 0-.12-.29c-.06-.1-.15-.19-.32-.36l-1.4-1.4c-.4-.4-.6-.6-.67-.82a1 1 0 0 1 0-.62c.08-.23.28-.43.67-.82l1.4-1.4c.17-.17.26-.26.32-.36a1 1 0 0 0 .12-.3c.03-.1.03-.23.03-.47V6.6c0-.56 0-.84.1-1.05a1 1 0 0 1 .45-.44C5.76 5 6.04 5 6.6 5h1.74c.24 0 .36 0 .48-.03a1 1 0 0 0 .29-.12c.1-.06.19-.15.36-.32z"/></svg>
