<svg xmlns="http://www.w3.org/2000/svg" fill="none" viewBox="0 0 24 24"><path stroke="currentColor" stroke-linecap="round" stroke-linejoin="round" stroke-width="1.5" d="M11.74 17.75h5.92l-.27.23-4.27 3.2a4.6 4.6 0 0 1-5.13 0l-4.28-3.2A4.8 4.8 0 0 1 2 14.56V7.15c0-1.22.93-2.57 2.07-3l4.98-1.87a5 5 0 0 1 3 0l4.97 1.87a3.6 3.6 0 0 1 2.01 2.38h-7.3l-.61.01c-1.85.11-2.33.78-2.33 2.89v5.43c.01 2.3.6 2.89 2.95 2.89"/><path stroke="currentColor" stroke-linecap="round" stroke-linejoin="round" stroke-miterlimit="10" stroke-width="1.5" d="M8.8 11.22H22"/><path stroke="currentColor" stroke-linecap="round" stroke-linejoin="round" stroke-width="1.5" d="M22 9.42v5.55c-.02 2.22-.63 2.77-2.94 2.77h-7.32c-2.35 0-2.94-.59-2.94-2.9V9.41c0-2.1.48-2.77 2.33-2.89l.61-.01h7.32c2.35.01 2.94.59 2.94 2.91"/><path stroke="currentColor" stroke-linecap="round" stroke-linejoin="round" stroke-miterlimit="10" stroke-width="1.5" d="M11.32 15.26h1.33m2.1 0h3.27"/></svg>
