<svg xmlns="http://www.w3.org/2000/svg" viewBox="0 -19.19 349.005 349.005"><defs><style>.a{fill:#fff}.b{fill:#211715}</style></defs><path d="m235.19 270.99-47.48-2.16 10.06 32.08a5.6 5.6 0 0 1-2.8 6.7l-.56.28.81-.33c12.08-5.04 51.2-22.43 58.63-25.84l-4.57-13.2a32.4 32.4 0 0 1-14.1 2.47" class="a"/><path d="M226.17 278c-4.15 3.34-7.29 7.87-11.6 12.35-.6.64-3.14 2.33-5.1.83-1.27-1-1.46-3.48-1-4.5 2.54-5.52 3.57-7.2 5.45-11.06-2.29 2.41-4.07 4.43-6.78 7.17l-2.77 2.8-3.47 3.5-5.11 5.47-10.14-32.3c3.32-4.17 6.25-8.86 10.3-12.43a18.3 18.3 0 0 1 10.24-4.8 25 25 0 0 1 4.75.15q4.5.46 8.98 1.18c5.42.86 11.5 1.87 15.83-1.8 5.62 4.98 10.73 14.8 13.54 23.96a22 22 0 0 0-2.91 1.7c-.63.42-2.65 2.21-3.31 2.57a46 46 0 0 1-16.55 5.12M122.79 138.92a30.5 30.5 0 0 1-4.1 19.18 94 94 0 0 1 3.54 12.15l.07.36c-6.5 2.32-17.01 5.36-24.44 7.56l-.43-2c-.36-1.66-2.56-10.04-3.84-12.11a25 25 0 0 0-4.2-4.63 95 95 0 0 1-7.45-8.37c-1.3-1.52-2.67-5.2-2.2-7.34a13 13 0 0 1 3.4-6.83 4.5 4.5 0 0 1 3.52-1.04l-.18-.36a5.6 5.6 0 0 1-.84-4.65c.66-2.12 1.67-2.52 3.46-2.88a4 4 0 0 1 1.02-.04c-1.45-1.9-.61-3.95.75-5.27a6.2 6.2 0 0 1 4.05-1.82 17 17 0 0 1 2.62.03l-.87-2.27-4.87-13.34a18 18 0 0 1-.98-3.35 6.8 6.8 0 0 1 1.26-5.38c1.14-1.33 3.34-1.36 5.01-.63 1.83.8 2.8 2.34 3.86 4.27 3.47 6.27 7.83 18.65 9.62 25.62l.46 1.77c2.4-.73 4.95-1.04 7.01.24 1.74 1.08 2.7 3.05 3.36 4.98a29 29 0 0 1 1.39 6.15m72.12-21.81a69 69 0 0 0 3.87-1.77l8.68-4.95a54 54 0 0 0 8.45-9.52l.83 4.18c1.13 4.67 1.9 6.67 3.06 8.16a18 18 0 0 1-2.05 6.35l-.49.96A63 63 0 0 1 210 132.2a37 37 0 0 1-6.87 6.4 42 42 0 0 1-5.5-2.86c-5.76 2.96-13.72 2.65-19.32.57a12 12 0 0 1-1.65-.75l-1.23 1.1c-1.8 1.32-3 2.23-5.18 3.72-.93-2.22-1.7-4.58-2.74-7.12-1.45-5.27-2.43-7.9-3.23-11.15 2.04-.73 3.84-1.33 5.25-1.75a36 36 0 0 0 11.9.46 47 47 0 0 0 4.66-.77 55 55 0 0 0 8.82-2.95" class="a"/><path d="M214.43 105.69c.79 3.26 1.59 6.91 3.9 9.5a15 15 0 0 0 4.27 2.97 24 24 0 0 0 5.59 2.2 2.4 2.4 0 0 0 1.27-4.63 17 17 0 0 1-2.43-.77l-.12-.05-.7-.3-1.19-.6a23 23 0 0 1-2.15-1.26l-.51-.36c-.43-.3.4.35.03.02a9 9 0 0 1-.67-.62c-.16-.17-.28-.5.09.13l-.24-.34a10 10 0 0 1-.78-1.36c-.03-.07-.17-.27-.15-.35l.08.2-.1-.26a44 44 0 0 1-1.56-5.4 2.4 2.4 0 0 0-2.95-1.67 2.45 2.45 0 0 0-1.68 2.95" class="b"/><path d="M224.24 68.3a6.8 6.8 0 0 1 4.85-1.2 6.1 6.1 0 0 1 5.17 3.36c1.57 3.21.98 8.81-.58 12.18a17.7 17.7 0 0 1-6.48 8.06 13 13 0 0 1-6.38 1.65l-.4.93c-.76 1.72-2.6 4.74-2.6 4.74a56 56 0 0 1-10.36 12.38l-8.68 4.95a63 63 0 0 1-12.7 4.71 47 47 0 0 1-4.65.77c-10 1.16-18.37-1.25-26.37-7.45-7.64-5.9-11.15-15.46-12.6-26.09-.83-6.01-1.58-12.54-2.61-19.07 0 0-8.69-35.77 34.65-36.44 53.84-.84 49.74 36.52 49.74 36.52" class="a"/><path d="M203.3 48.58c-2.38-4.87-6.98-10.13-12.19-11.55a67 67 0 0 0-13.94-.59c-8.22.45-22.87 3.89-22.87 3.89-9.83 4.62-14.9 13.55-13.25 27.88h-1.16a78 78 0 0 1-1.17-24.9c1.24-8.9 3.93-16.86 10.51-23.54C158.25 8.02 169.05 3.9 184.4 2.52c10.02-.9 25.04.84 39.34 14.81 6.58 6.74 9.39 11.4 11.8 19.68a64 64 0 0 1 2.36 15.75c-.12 4.48-.55 13.7-2.95 19.1l-.68-1.4a6.1 6.1 0 0 0-5.17-3.37 6.8 6.8 0 0 0-4.86 1.2l-9.14-1.58a77 77 0 0 0-2.44-10.74 13 13 0 0 0-3.23-4.75 11.3 11.3 0 0 0-5.72-2.6" style="fill:#b3b3b3"/><path d="M294.38 208.64c-2.22-12.25-4.03-20.47-10.8-44.14-3.42-11.93-8.89-22.99-14.02-28.36-5.7-5.98-12.23-9.48-20-12.3-6.66-2.4-15.13-5.46-21.76-7.67-1.98-.67-7.87-2.8-7.87-2.8l-.14-.05a18 18 0 0 1-2.04 6.24 67 67 0 0 1-7.75 12.65q-.7.84-1.45 1.65a37 37 0 0 1-5.42 4.75 42 42 0 0 1-5.45-2.82l-.5.18c-5.71 2.72-13.4 2.38-18.87.35a11 11 0 0 1-1.65-.75l-1.23 1.1c-1.8 1.32-3 2.23-5.18 3.72-.93-2.23-1.7-4.58-2.74-7.13-1.4-5.07-2.36-7.7-3.14-10.8l-.09-.34c-8.52 3.05-21.24 8.31-27.2 12.1a24 24 0 0 0-7.22 6.94 49 49 0 0 0-4.17 11.17h-4.32a29 29 0 0 1-2.67 5.77 94 94 0 0 1 3.54 12.15l.07.35c-8.52 3.05-23.9 7.33-30.27 9.33 3.03 10.64 6.52 22.32 10.56 32.7 24.62.12 48.55.2 61.13.28a8.8 8.8 0 0 1 8.32 6.14c3.17 10 8.42 26.7 13.6 43.2 3.32-4.16 6.24-8.85 10.3-12.41a18.3 18.3 0 0 1 10.24-4.82 25 25 0 0 1 4.75.16q4.5.46 8.98 1.18c5.42.86 11.5 1.88 15.83-1.8 6.55 5.8 12.4 18.17 14.74 28.41 8.12-2.62 24.37-8.8 34.32-16.25 6.77-5.06 8.58-10.25 10.25-15.16.97-2.86 1.74-9.92 1.85-12.88.13-3.84-1.53-14.82-2.53-20.04" style="fill:#957f6e"/><path d="M209.15 112.09a59 59 0 0 0 8.86-10.05 48 48 0 0 0 4.5-7.55 2.47 2.47 0 0 0-.87-3.29 2.4 2.4 0 0 0-3.28.86 48 48 0 0 1-4.33 7.32 54 54 0 0 1-8.27 9.32 2.4 2.4 0 0 0 3.4 3.39m-64.21-91.07c-5.38 6.96-7.93 15.3-8.82 23.97A77 77 0 0 0 138 70.67c.73 3 5.36 1.73 4.63-1.27a74 74 0 0 1-1.78-23.7c.67-7.5 2.83-15.26 7.49-21.29a2.5 2.5 0 0 0 0-3.39 2.4 2.4 0 0 0-3.4 0Zm91.97 52.31c1.97-4.36 2.61-9.18 3.02-13.9a59 59 0 0 0-.02-12.5c-1.19-9.37-3.84-18.47-9.74-25.98A56 56 0 0 0 204.6 2.52C196.71-.18 188.51-.5 180.31.57a59 59 0 0 0-15.86 4.06 41 41 0 0 0-12.92 8.85c-2.2 2.19 1.2 5.58 3.39 3.4 6.2-6.2 13.99-9.54 22.54-11.06 7.54-1.35 15.19-1.59 22.57.34a50 50 0 0 1 24.17 15.16 39 39 0 0 1 6.92 10.34 54 54 0 0 1 3.51 12.27 55 55 0 0 1 .67 13.26c-.29 4.53-.65 9.54-2.54 13.72a2.47 2.47 0 0 0 .86 3.28 2.4 2.4 0 0 0 3.28-.86Z" class="b"/><path d="M197.57 113.27c-10.38 5.1-22.77 7.78-33.72 2.71a30.3 30.3 0 0 1-12.7-10.29 41.5 41.5 0 0 1-5.8-15.45c-1.43-7.61-2.03-15.38-3.24-23.03a2.4 2.4 0 0 0-2.96-1.68 2.46 2.46 0 0 0-1.67 2.95c1.16 7.33 1.8 14.74 3.07 22.05a46 46 0 0 0 6.16 17.13c6.74 10.5 19.51 16.38 31.82 15.8 7.58-.34 14.7-2.72 21.47-6.04a2.4 2.4 0 0 0 .86-3.29 2.45 2.45 0 0 0-3.29-.86m27.88-42.9a4.9 4.9 0 0 1 4.52-.65 3.2 3.2 0 0 1 2.07 1.66c1.36 2.52.8 6.28-.03 8.93a16.3 16.3 0 0 1-4.87 7.47c-1.92 1.61-5.45 2.98-8.02 1.88a2.5 2.5 0 0 0-3.29.86 2.4 2.4 0 0 0 .86 3.28 13.3 13.3 0 0 0 10.84-.57c3.12-1.45 5.6-4.43 7.23-7.4a22 22 0 0 0 2.8-9.71c.14-3.1-.4-6.58-2.66-8.87a9.6 9.6 0 0 0-11.88-1.03 2.47 2.47 0 0 0-.86 3.29 2.4 2.4 0 0 0 3.29.86m-32 2.36c.7 2.14.38 7.1-3.69 7.62-5.4.09-5.82-5.9-4.06-8.76 1.43-2.34 5.78-3.4 7.74 1.14" class="b"/><path d="M160.97 72.53c.66 2.08.38 6.9-3.36 7.38-4.95.07-5.35-5.73-3.75-8.5 1.3-2.27 5.3-3.28 7.1 1.12m8.1 9.78a50 50 0 0 0-1.89 3.69 5 5 0 0 0-.6 2.13 3.1 3.1 0 0 0 1.15 2.47 4.4 4.4 0 0 0 1.94 1.03c.47.1.93.1 1.4.16a2.4 2.4 0 0 0 1.7-.7 2.4 2.4 0 0 0 0-3.4l-.49-.37a2.4 2.4 0 0 0-1.21-.33l-.64-.05.64.09a2 2 0 0 1-.54-.16l.57.25a3 3 0 0 1-.46-.28l.49.37-.3-.27.38.49-.09-.13.25.57-.06-.22.08.64v-.31l-.08.63a3 3 0 0 1 .18-.57l-.24.57a44 44 0 0 1 1.96-3.88 2.5 2.5 0 0 0 .25-1.85 2.4 2.4 0 0 0-4.4-.57Zm-15.98-44.05a25 25 0 0 0-11.79 11.16c-2.9 5.81-3.35 12.42-2.65 18.8a2.47 2.47 0 0 0 2.4 2.4 2.4 2.4 0 0 0 2.4-2.4c-.6-5.48-.47-11.42 2-16.38a20.6 20.6 0 0 1 10.06-9.44 2.4 2.4 0 0 0 .86-3.28 2.45 2.45 0 0 0-3.29-.86Zm31.74-4.63a19 19 0 0 0-3.47-4.46 20 20 0 0 0-5.03-3.35 2.6 2.6 0 0 0-1.85-.24 2.4 2.4 0 0 0-.57 4.38 19 19 0 0 1 3.53 2.12l-.49-.38a15 15 0 0 1 2.68 2.69l-.38-.49a20 20 0 0 1 1.43 2.15 2.4 2.4 0 0 0 4.15-2.42m-11.19.9c-4.88-3.46-11.1-4.27-16.94-4.12a2.4 2.4 0 0 0 0 4.8c5.28-.13 10.23.42 14.52 3.47a2.4 2.4 0 0 0 3.28-.86 2.45 2.45 0 0 0-.86-3.28m43.77 31.55a86 86 0 0 0-1.42-7.11 22 22 0 0 0-1.97-5.72 13.6 13.6 0 0 0-9.68-6.95 2.5 2.5 0 0 0-2.95 1.67 2.4 2.4 0 0 0 1.68 2.96 9.5 9.5 0 0 1 4.55 1.91l.2.15q-.18-.15-.01 0a8 8 0 0 1 .8.79c.03.03.34.43.17.2a15 15 0 0 1 1.31 2.09l.2.37c.28.5-.1-.41.02.04l.4 1.3q.42 1.46.78 2.94.78 3.3 1.3 6.63a2.4 2.4 0 0 0 2.96 1.68 2.46 2.46 0 0 0 1.67-2.95Z" class="b"/><path d="M205.37 47.36c-2.72-5.5-7.52-10.93-13.62-12.64a2.4 2.4 0 0 0-1.27 4.62q.52.14 1 .33l.22.08c-.33-.13.14.06.2.1a15 15 0 0 1 1.77.97q.46.3.93.64l.2.16c-.26-.21.16.12.2.17q.86.7 1.64 1.5.75.75 1.43 1.57l.3.38c.06.06.45.58.1.12q.33.43.63.86a27 27 0 0 1 2.13 3.57 2.4 2.4 0 0 0 3.28.86 2.46 2.46 0 0 0 .86-3.28Zm-17.67 50.2.33.35-.37-.48a6 6 0 0 1 .79 1.4l-.24-.58a5 5 0 0 1 .36 1.24 2.5 2.5 0 0 0 2.95 1.67 2.4 2.4 0 0 0 1.43-1.1l.25-.57a2.4 2.4 0 0 0 0-1.28 5 5 0 0 0-.23-.88 12 12 0 0 0-.6-1.4 6 6 0 0 0-.46-.76 6 6 0 0 0-.82-1 2.47 2.47 0 0 0-3.39 0 2.4 2.4 0 0 0-.7 1.7 2.4 2.4 0 0 0 .7 1.7ZM168.43 103a15 15 0 0 0 7.42 1.3 18 18 0 0 0 3.66-.54 11 11 0 0 0 3.7-1.5 2.46 2.46 0 0 0 .86-3.28 2.43 2.43 0 0 0-3.28-.86 6 6 0 0 1-.64.4c-.23.12-.16.07.04 0l-.37.14q-.75.24-1.5.44a13 13 0 0 1-1.35.3c-.06.02-.47.08-.13.03s-.08 0-.14.01q-.42.05-.85.07-.76.04-1.53.02l-.76-.05q-.19 0-.38-.03c-.35-.03-.02.06.08.02-.14.06-.57-.1-.72-.13a12 12 0 0 1-1.44-.38l-.3-.12c-.3-.1.53.25.05.02a2.4 2.4 0 1 0-2.42 4.14m123.2 149.85 18.52-.02 29.28-.04 7.26-.01c3.08 0 3.1-4.8 0-4.8q-9.52 0-19.03.02l-29.14.04-6.89.01c-3.09 0-3.1 4.8 0 4.8m-289.31 0q16.52-.01 33.04-.06l5.33-.01c3.08 0 3.1-4.8 0-4.8-11.15 0-22.3.05-33.46.07H2.32c-3.09 0-3.1 4.8 0 4.8" class="b"/><path d="M252.05 274.98a169 169 0 0 0 20.9-8.48c7.46-3.65 15.47-7.99 20.21-15.03 3.95-5.84 5.26-12.8 5.91-19.7.61-6.47-.57-13-1.6-19.38a337 337 0 0 0-7.44-33.72c-2.47-9.14-4.8-18.38-8.51-27.12-3.17-7.47-7.15-14.73-13.4-20.08-6.76-5.8-14.84-8.83-23.1-11.8-7.34-2.64-14.73-5.11-22.06-7.75l-2.4-.87a2.4 2.4 0 0 0-2.95 1.68 2.45 2.45 0 0 0 1.68 2.95c5.74 2.08 11.54 4.02 17.3 6.06 7.89 2.79 16.22 5.19 23.37 9.65a38 38 0 0 1 8.88 7.53 47 47 0 0 1 5.74 9.04c4.27 8.3 6.74 17.23 9.23 26.17a387 387 0 0 1 8.08 34.16 141 141 0 0 1 2.58 18.73 46 46 0 0 1-.6 8.37 38 38 0 0 1-2.37 8.97c-2.89 7.27-9.13 11.6-15.74 15.27A143 143 0 0 1 255 268.9q-2.1.76-4.22 1.46c-2.91.97-1.66 5.6 1.28 4.63Z" class="b"/><path d="M237.97 237.25c4.92-2.1 9.66-4.53 14.47-6.86a2.4 2.4 0 0 0 .86-3.28 2.46 2.46 0 0 0-3.28-.86c-4.81 2.33-9.55 4.76-14.47 6.85a2.4 2.4 0 0 0-.87 3.28 2.5 2.5 0 0 0 3.29.87M128 152.97a41 41 0 0 1 3.14-9.11 19 19 0 0 1 7.35-7.7c5.95-3.71 12.64-6.4 19.14-8.97 3.53-1.4 7.1-2.74 10.7-3.93 2.91-.97 1.66-5.6-1.28-4.63a215 215 0 0 0-21.37 8.45c-6.74 3.06-14.5 6.62-18.22 13.43a42 42 0 0 0-4.09 11.18c-.63 3.01 4 4.3 4.63 1.27Zm113.15 39.06 7.32 26.78c.81 2.98 5.44 1.72 4.63-1.27l-7.32-26.79c-.81-2.98-5.44-1.71-4.63 1.28m-7.54 51.16c-3.41 2.17-7.64 1.69-11.46 1.1-4.71-.71-9.53-1.66-14.31-1.72-9.75-.14-16.15 7.64-21.45 14.77a2.4 2.4 0 0 0 .86 3.28 2.46 2.46 0 0 0 3.29-.86c2.5-3.37 5.1-6.93 8.55-9.39a17 17 0 0 1 5.31-2.6 18 18 0 0 1 6.29-.21c4.45.44 8.84 1.28 13.28 1.79 4.13.47 8.46.28 12.06-2.02 2.6-1.66.2-5.81-2.42-4.14m-37.06 17.47-7.34 7.28a2.4 2.4 0 0 0 3.4 3.4l7.33-7.28a2.4 2.4 0 0 0-3.4-3.4m.68 20.88c3.7-4.32 7.75-8.34 11.8-12.34a2.4 2.4 0 0 0-3.4-3.4c-4.04 4-8.1 8.02-11.8 12.35a2.4 2.4 0 0 0 3.4 3.4m5.36 9.25c2.73-2.76 5.49-5.48 8.16-8.29 2.36-2.47 4.66-5.02 7.06-7.46a2.4 2.4 0 0 0-3.4-3.4c-2.4 2.45-4.7 5-7.05 7.47-2.68 2.8-5.44 5.53-8.16 8.29a2.4 2.4 0 0 0 3.39 3.4m23.91-10.48a52 52 0 0 0 14.25-3.74 22 22 0 0 0 5.34-3.07l.98-.8.49-.4c.3-.25-.27.19-.04.03a26 26 0 0 1 2.99-1.75 2.4 2.4 0 0 0-2.42-4.15 25 25 0 0 0-4.62 3.04 17 17 0 0 1-1.43 1.13 22 22 0 0 1-2.93 1.48 44 44 0 0 1-12.6 3.43 2.5 2.5 0 0 0-2.4 2.4 2.4 2.4 0 0 0 2.4 2.4" class="b"/><path d="M233.17 245.53c3.87 2.89 6.68 7.51 8.92 11.77a69 69 0 0 1 6 16c.72 3 5.35 1.73 4.63-1.28a74 74 0 0 0-6.67-17.5c-2.64-4.94-5.93-9.75-10.46-13.14a2.4 2.4 0 0 0-3.28.86 2.46 2.46 0 0 0 .86 3.29m-22.05 30.34c-.98 1.95-2 3.9-2.96 5.86a41 41 0 0 0-2.03 4.39 7 7 0 0 0-.03 3.9 5.48 5.48 0 0 0 7.5 3.7c2.88-1.14 4.78-3.93 6.74-6.2a61 61 0 0 1 7.53-7.82 2.4 2.4 0 0 0 0-3.4 2.46 2.46 0 0 0-3.4 0c-4.42 3.6-7.64 8.36-11.62 12.4-.07.06-.4.32-.14.13.29-.21-.31.18-.38.22-.11.06-.57.27-.22.13-.14.06-.71.22-.58.2a.6.6 0 0 1-.61-.1c.23.13-.14-.24.08.1l-.21-.38c.11.22.04.15 0-.04l-.16-.65c.08.46.02-.17.01-.32l.01-.3c0 .05-.12.4-.02.18l.05-.25c.12-.35-.1.21.08-.18q.78-1.7 1.6-3.38c.94-1.94 1.94-3.84 2.9-5.76a2.46 2.46 0 0 0-.86-3.28 2.4 2.4 0 0 0-3.28.86Zm-15.26 34c7.83-3.27 15.6-6.7 23.36-10.12q13.45-5.92 26.86-11.91 4.5-2 8.98-4.04a2.4 2.4 0 0 0 .86-3.29 2.46 2.46 0 0 0-3.28-.86 2592 2592 0 0 1-47.24 20.95l-6.35 2.75-2.66 1.13-.76.32-1.05.44a2.5 2.5 0 0 0-1.67 2.96 2.4 2.4 0 0 0 2.95 1.67" class="b"/><path d="M37.55 212.08c30.79.5 101.07.67 126.17.83a8.8 8.8 0 0 1 8.33 6.14c5.97 18.9 19.4 61.65 25.72 81.86a5.63 5.63 0 0 1-5.4 7.32c-27.2-.1-100.47-.36-128.64-.93a5.6 5.6 0 0 1-5.26-3.97 16119 16119 0 0 0-26.39-83.9 5.64 5.64 0 0 1 5.47-7.36" class="a"/><path d="M37.55 214.48c14.38.23 28.76.33 43.14.42q25.2.16 50.4.25l21.2.1 8.28.05c3.07.02 6.22-.17 8.25 2.62a15 15 0 0 1 1.76 4.44l1.41 4.48 3.37 10.7 7.81 24.85 7.69 24.49 3.23 10.33c.78 2.48 3.06 6.78-.32 8.32-1.14.52-2.6.3-3.83.3l-3.98-.02-9.17-.04-21.92-.09q-24.94-.11-49.88-.3c-13.5-.1-26.99-.2-40.48-.47-1.5-.03-2.92-.38-3.61-1.89a32 32 0 0 1-1.2-3.82l-2.9-9.3q-3.63-11.61-7.29-23.22-7.17-22.82-14.4-45.63c-.42-1.32-1.2-2.86-.77-4.24a3.3 3.3 0 0 1 3.21-2.33c3.09-.04 3.1-4.84 0-4.8a8.14 8.14 0 0 0-7.95 9.72 47 47 0 0 0 1.42 4.62l1.57 4.95 7.5 23.72q7.4 23.5 14.74 47c1.1 3.55 1.85 7.47 5.56 9.22 2.8 1.32 6.54.85 9.6.9q10.26.16 20.53.25 25.37.25 50.74.36 22.46.11 44.93.19l4.05.02a13 13 0 0 0 5.08-.57 8.1 8.1 0 0 0 4.78-5.2c.65-2.15.12-4.15-.53-6.2q-3.46-11.1-6.94-22.17-7.82-24.94-15.68-49.86c-1-3.21-1.78-6.72-3.21-9.78-2.03-4.33-6.35-6.31-10.93-6.34l-17.94-.1-49.8-.22c-16.18-.09-32.38-.19-48.57-.39q-4.48-.05-8.95-.13c-3.09-.05-3.09 4.75 0 4.8m137.89-76.84a26 26 0 0 0 11.38 2.68 25.6 25.6 0 0 0 11.58-2.27 2.4 2.4 0 0 0 .86-3.29 2.46 2.46 0 0 0-3.29-.86 20.4 20.4 0 0 1-9.15 1.62 21 21 0 0 1-8.96-2.03c-2.73-1.45-5.15 2.7-2.42 4.15" class="b"/><path d="M217.52 112.32c-.66 4.83-3.31 9.19-5.8 13.3a37 37 0 0 1-9.8 10.92h2.41a93 93 0 0 1-8.98-5.03c-2.93-1.76-5.96-3.4-8.72-5.4a2.44 2.44 0 0 0-2.9.37q-3.89 3.11-7.64 6.39a73 73 0 0 1-7.06 5.45l3.52 1.44a135 135 0 0 1-5.88-17.93c-.76-3-5.39-1.72-4.62 1.28a135 135 0 0 0 5.88 17.92c.54 1.32 2.1 2.4 3.52 1.44a80 80 0 0 0 7.8-6q3.86-3.39 7.86-6.6l-2.9.38c2.76 2.01 5.79 3.65 8.72 5.4a94 94 0 0 0 8.98 5.03 2.4 2.4 0 0 0 2.42 0 43 43 0 0 0 11.3-12.3c2.8-4.5 5.79-9.47 6.52-14.79a2.5 2.5 0 0 0-1.68-2.95 2.4 2.4 0 0 0-2.95 1.68m-96.49 46.53a33 33 0 0 0 3.62-23.32 20 20 0 0 0-2.66-7.1 8.6 8.6 0 0 0-6.95-3.91c-2.71-.12-5.4.88-7.86 1.89-4.81 1.95-10.17 5.8-9.04 11.75a6.85 6.85 0 0 0 5.53 5.54 12 12 0 0 0 4.88-.66l4.93-1.32c2.98-.8 1.72-5.43-1.28-4.63-2.21.6-4.43 1.29-6.68 1.77a2 2 0 0 1-2.68-1.64c-.72-3.62 4.23-5.67 6.81-6.66 1.73-.66 3.7-1.42 5.59-1.23 1.7.18 2.67 1.39 3.36 2.86a25 25 0 0 1 1.97 11.41 28 28 0 0 1-3.68 12.83c-1.54 2.68 2.61 5.1 4.14 2.42" class="b"/><path d="M116.71 159.68a83 83 0 0 1 3.2 11.2 2.4 2.4 0 0 0 2.96 1.68 2.46 2.46 0 0 0 1.67-2.96 83 83 0 0 0-3.2-11.2 2.4 2.4 0 0 0-4.63 1.28" class="b"/><path d="M124.24 167.32c-10.65 4.25-21.92 6.86-32.85 10.3a2.44 2.44 0 0 0-1.67 2.95c2.97 10.42 6.06 20.81 9.89 30.95a2.47 2.47 0 0 0 2.95 1.67 2.4 2.4 0 0 0 1.68-2.95c-3.83-10.14-6.92-20.53-9.9-30.95l-1.67 2.96c10.92-3.44 22.2-6.06 32.85-10.3a2.47 2.47 0 0 0 1.68-2.95 2.4 2.4 0 0 0-2.95-1.68Zm-25.26-49.37-4.94-13.54c-.61-1.7-1.3-3.55-.67-5.36.46-1.32 1.5-1.51 2.76-.97 1.39.58 2.14 2.17 2.81 3.4a58 58 0 0 1 1.99 4.04c1.47 3.26 2.74 6.61 3.93 9.99a138 138 0 0 1 3.4 10.9c.77 3 5.4 1.72 4.63-1.27a135 135 0 0 0-8.24-22.96c-1.67-3.6-3.66-7.94-7.9-8.93a6.5 6.5 0 0 0-6.48 1.7 9 9 0 0 0-1.87 6.75c.33 2.96 1.67 5.79 2.69 8.56l3.27 8.97a2.46 2.46 0 0 0 2.95 1.67 2.4 2.4 0 0 0 1.68-2.95Z" class="b"/><path d="M90.27 149.42c2.6 2.28 6.64 6.01 10.36 4.44a6.74 6.74 0 0 0 3.04-9.24 30 30 0 0 0-5-5.44 23 23 0 0 0-8.57-5.07c-2.86-1.04-6.76-1.12-8.9 1.36-2.17 2.5-3.95 5.88-3.94 9.28 0 3.65 1.87 6.65 4.12 9.34a91 91 0 0 0 7.08 7.76 15 15 0 0 1 3.38 4l.16.37.02.05.36.96q.35 1.02.68 2.06a86 86 0 0 1 2.06 7.52c.66 3.02 5.29 1.74 4.63-1.27a61 61 0 0 0-3.6-11.74c-1.15-2.59-3.4-4.45-5.39-6.39a83 83 0 0 1-5.72-6.4c-1.5-1.8-3.26-4.03-2.96-6.72a12 12 0 0 1 .99-3.12 9 9 0 0 1 1.91-2.71c1.49-.9 4.36.4 5.97 1.12a18 18 0 0 1 5.14 3.77 59 59 0 0 1 3.16 3.3q.29.35.07.07l.22.32a2 2 0 0 1 .1 1.06 2 2 0 0 1-.53 1.17c-.4.36-.44.2-.94-.06a23 23 0 0 1-4.5-3.18c-2.3-2.03-5.72 1.35-3.39 3.39Z" class="b"/><path d="m88.55 134.27-.3-.46c-.07-.12-.25-.57-.11-.2l-.2-.67c-.02-.06-.1-.72-.08-.33a5 5 0 0 1 0-.76c-.03.36.1-.36.1-.38.02-.07.3-.71.06-.23l.26-.49c.28-.51-.24.45.03-.02l.16-.16-.19.15a2 2 0 0 1 .4-.21q-.49.18-.22.1l.23-.09a6 6 0 0 1 1.05-.25c-.52.07.24.04.29.04q.35 0 .7.06c.1 0 .7.1.24.03q.41.06.82.16.8.2 1.6.46l1.36.44.67.25c.46.17-.17-.11.3.13q.63.32 1.23.7c.34.2-.02-.05.16.11a7 7 0 0 1 .7.75 6 6 0 0 1 .34.61q.11.23 0-.03l.1.33a7 7 0 0 1 .19.8 2.4 2.4 0 0 0 2.95 1.68 2.47 2.47 0 0 0 1.67-2.95 8.7 8.7 0 0 0-5.13-6.24 22 22 0 0 0-7.9-2.1 6.6 6.6 0 0 0-5.98 2.98 7.9 7.9 0 0 0 .36 8.22 2.46 2.46 0 0 0 3.29.86 2.43 2.43 0 0 0 .86-3.29Z" class="b"/><path d="M91.76 125.9v-.26q-.05.24 0 0c.02-.06.19-.53.08-.29l.26-.46c.15-.25.07-.12.19-.25a7 7 0 0 1 .73-.7c-.27.22-.04.03.12-.07l.38-.23c.1-.06.47-.22.18-.1l.6-.19a3 3 0 0 1 .92-.14 17 17 0 0 1 2.8.1l.17.02.61.1 1.22.26a11 11 0 0 1 2.28.73 3 3 0 0 1 1.3 1.08 2.7 2.7 0 0 1 .52 1.87 2.4 2.4 0 1 0 4.8 0 7.9 7.9 0 0 0-3.7-6.81 17 17 0 0 0-7.2-2.05 11.3 11.3 0 0 0-7.22 1.16 7.6 7.6 0 0 0-3.84 6.23 2.4 2.4 0 1 0 4.8 0" class="b"/><path d="M287.3 96.95a3.3 3.3 0 0 1-.28-2.46 72 72 0 0 1 4.66-13.17s.3-.4.7-.96a87 87 0 0 0 15.95 7.2l-.09 1.2c.37.99-3.12 8.71-4.9 11.85a6 6 0 0 1-1.17 1.49 5.4 5.4 0 0 1-3.2.87 62 62 0 0 1-8.93-3.79 7 7 0 0 1-2.68-2.1z" class="a"/><path d="M323.83 52.57q.62.75 1.2 1.61a19.1 19.1 0 0 1 1.46 19.83 24 24 0 0 1-5.77 7.56 27 27 0 0 1-5.87 4.2 26 26 0 0 1-5.54 2.1 83 83 0 0 1-18.04-8.23c-2.93-2.95-4.13-9.74-3.78-13.38a27 27 0 0 1 1.7-7.79 23 23 0 0 1 4.88-7.33 19.6 19.6 0 0 1 10.13-5.76A22.6 22.6 0 0 1 316.76 47a21 21 0 0 1 7.07 5.57" style="fill:#ffda71"/><path d="M322.14 54.27a18.6 18.6 0 0 1 3.83 8.24 17.5 17.5 0 0 1-1.48 10.1 24.5 24.5 0 0 1-15.82 12.95h1.28a76 76 0 0 1-14.61-6.27 12 12 0 0 1-2.74-1.72 9 9 0 0 1-1.6-3.17 21 21 0 0 1-1.16-7.1C290 57 298 46.8 308.92 47.5a18.5 18.5 0 0 1 13.22 6.78 2.4 2.4 0 0 0 3.4 0 2.45 2.45 0 0 0 0-3.4c-6.2-7.37-17.02-10.4-25.99-6.5a23.6 23.6 0 0 0-8.65 6.72 26.7 26.7 0 0 0-5.83 15.42 22.4 22.4 0 0 0 3.05 12.98c1.4 2.2 3.57 3.3 5.82 4.5a89 89 0 0 0 7.09 3.34q3.18 1.37 6.46 2.48a4.8 4.8 0 0 0 3.07.21 30 30 0 0 0 4.25-1.57 30 30 0 0 0 10.29-7.94 24 24 0 0 0 5.9-15.17 23 23 0 0 0-5.46-14.47 2.4 2.4 0 0 0-3.4 0 2.46 2.46 0 0 0 0 3.4m-32.73 37.3a147 147 0 0 0 14.54 6.08 2.4 2.4 0 0 0 2.96-1.68 2.46 2.46 0 0 0-1.68-2.95q-3.45-1.24-6.84-2.66l-.45-.18-.27-.12-.27-.11-.44-.2-1.76-.76q-1.7-.75-3.37-1.56a2.4 2.4 0 1 0-2.42 4.14" class="b"/><path d="M289.61 80.1a24 24 0 0 0-1.7 3.83q-1 2.57-1.86 5.2a40 40 0 0 0-1.34 4.73c-.6 3.05.73 5.38 3.32 6.96a45 45 0 0 0 5.14 2.48 28 28 0 0 0 5.17 2 6.7 6.7 0 0 0 6.15-2.17 23 23 0 0 0 2.64-4.65 82 82 0 0 0 2.6-5.97c.5-1.32 1.23-2.96.83-4.38-.83-2.97-5.46-1.71-4.63 1.27a2 2 0 0 1-.01-.72 3 3 0 0 0-.13.55q-.24.85-.56 1.67a73 73 0 0 1-3.63 7.89 6 6 0 0 1-1.02 1.52c.45-.42-.16.03-.4.12a5 5 0 0 0-.7.19c.3-.01-.27-.06-.4-.1l-.86-.3q-1.08-.39-2.06-.82-2.38-1.03-4.7-2.19c-1.24-.61-2.37-1.05-2.04-2.46s.76-2.82 1.22-4.21q.84-2.58 1.81-5.1l.45-1.12.17-.4.07-.16a11 11 0 0 1 .62-1.23c1.61-2.64-2.54-5.06-4.15-2.42m47.11-41.75q-2.7 1.9-5.42 3.76a2.6 2.6 0 0 0-1.1 1.44 2.5 2.5 0 0 0 .24 1.85 2.4 2.4 0 0 0 1.44 1.1 2.4 2.4 0 0 0 1.85-.25q2.72-1.86 5.42-3.76a2.6 2.6 0 0 0 1.1-1.44 2.5 2.5 0 0 0-.24-1.84 2.4 2.4 0 0 0-1.44-1.1 2.4 2.4 0 0 0-1.85.24m-11.78-1.73q1.12-2.62 2.46-5.14a2.5 2.5 0 0 0 .24-1.85 2.5 2.5 0 0 0-1.1-1.43 2.4 2.4 0 0 0-3.28.86q-1.34 2.52-2.46 5.14a2 2 0 0 0-.29.9 2 2 0 0 0 .05.95 2.5 2.5 0 0 0 1.1 1.44 2.4 2.4 0 0 0 1.85.24 2.3 2.3 0 0 0 1.43-1.1ZM313 33.9a86 86 0 0 0-.97-7.27 2.4 2.4 0 0 0-1.1-1.43 2.4 2.4 0 0 0-3.28.86 2.7 2.7 0 0 0-.24 1.85q.26 1.44.45 2.89l-.08-.64q.24 1.87.42 3.74a2.6 2.6 0 0 0 .7 1.7 2.4 2.4 0 0 0 3.4 0 2.3 2.3 0 0 0 .7-1.7m4.26 39.8a10.4 10.4 0 0 0-2.6-6.48c-1.5-1.86-3.47-3.88-5.92-4.3a7.7 7.7 0 0 0-6.13 1.7 6.6 6.6 0 0 0-2.02 6.84 6.7 6.7 0 0 0 4.9 4.62 6.2 6.2 0 0 0 6.34-2.02 7.3 7.3 0 0 0 1.8-6.89 11 11 0 0 0-3.8-5.53 10 10 0 0 0-14.82 1.3 2.46 2.46 0 0 0 0 3.4 2.4 2.4 0 0 0 3.4 0c1.82-2.16 4.2-3.35 6.78-2.07a8.5 8.5 0 0 1 2.93 2.43 5 5 0 0 1 .81 1.5l.1.37c.02.05.09.55.06.29-.01-.2-.1.93-.01.52a2.5 2.5 0 0 1-.64 1.28l-.34.34s-.33.27-.14.13l-.46.3-.23.13q.22-.09 0-.01c-.3.14.33.04 0-.01-.27-.03-.04.02.01.02a5 5 0 0 1-1.02-.26c.26.1-.38-.2-.52-.3.26.19-.05-.07-.08-.09l-.17-.17.02.03-.23-.4c-.17-.33.07.3-.02-.08q-.07-.22-.12-.46c-.07-.4.01.3 0-.1a1.7 1.7 0 0 1 .33-1.23l.41-.4c-.08.08-.42.26-.05.06l.63-.34c.32-.17-.33.1.04-.01l.44-.14c.06-.01.53-.1.26-.06s.36 0 .41-.01a1.4 1.4 0 0 1 .58.1 4 4 0 0 1 .7.46 17 17 0 0 1 2 2 8 8 0 0 1 1.26 1.93c.18.38-.08-.25.05.14l.18.6.1.5c-.04-.4-.01.32 0 .36.01 3.09 4.81 3.1 4.8 0ZM132.34 177c1.44 4.68 3.05 9.3 4.69 13.92a2.4 2.4 0 0 0 4.63-1.28 339 339 0 0 1-4.7-13.91 2.4 2.4 0 0 0-4.62 1.28" class="b"/></svg>
