<svg xmlns="http://www.w3.org/2000/svg" viewBox="0 -19.77 349.005 349.005"><defs><style>.a{fill:#fff}.d{fill:#211715}</style></defs><path d="M180.88 236.38c6.57 20.87 15.19 48.35 19.89 63.37a5.64 5.64 0 0 1-2.58 6.58l-.54.3.57-.23c12.08-5.04 51.2-22.43 58.63-25.83l-2.76-12.96s-62.31-27.4-73.21-31.23" class="a"/><path d="M213.06 242.28q4.33.45 8.62 1.14 1.48.25 3 .45l-.27-2.98c-.58-6.4-2.32-30.83-3.07-36.99-1.61-13.16-4.54-26.13-6.8-39.2-2.1-12.13-1.4-23.61 1.06-35.32-8.67 5.91-18.42 9.99-29.21 10.62-4.93.29-10.02-.19-14.47-2.34a18 18 0 0 1-5.07-3.61l-.64-.65a223 223 0 0 1-3.11 18.72c-1.42 6.47-2.1 14.73-2.97 21.27-1.53 11.54 2.05 28.51 3.8 38.35q1.47 0 2.79.02a8.8 8.8 0 0 1 8.33 6.14l12.85 40.81c3.13-4 5.96-8.42 9.82-11.81a18.3 18.3 0 0 1 10.23-4.82 25 25 0 0 1 4.75.16Z" class="a"/><path d="M166.06 134.54q.85-6.53 1.57-12.98l.01-.15a96 96 0 0 0-6.67 2.1c-7.56 2.61-15.9 6.62-20 11.39-6.28 7.28-9.56 17.23-10.9 23.74l-3.31 15.26c-7.99 2.99-22.9 7.3-29.02 9.3a291 291 0 0 0 9.74 28.28c22.24.1 43.69.19 56.45.26l-.21-1.15c-1.81-9.97-5.06-26.1-3.59-37.2.87-6.53 1.55-14.8 2.97-21.27a217 217 0 0 0 2.96-17.58m100.45 128.74a78 78 0 0 0 13.54-8.35 28.8 28.8 0 0 0 10-14.87c.87-2.78 1.4-9.65 1.3-12.72-.1-3.84-1.82-14.2-2.75-19.3-1.68-9.8-4.07-18.4-6.36-26.87-2.22-8.22-7.7-29.2-15.55-40.54-8.66-12.5-20.78-17.35-36-21.8l-11.13-3.5-.26-.08c-5.16 16.81-7.7 32.5-4.77 49.45 2.27 13.07 5.2 26.04 6.8 39.2.75 6.16 2.5 30.58 3.08 37l.26 2.97c4.57.63 9.3.76 12.85-2.24 6.44 5.7 12.2 17.76 14.62 27.9a151 151 0 0 0 14.37-6.25" style="fill:#aaa0c7"/><path d="M168 7a46 46 0 0 0-16.87 13.26c-5.04 5.85-7.98 13.46-9.4 21.07-1.2 6.38-.45 18.53 1.13 26.92 0 0 1.54 8.04 10.72 18.44 13.19 14.93 54.59 24.64 54.59 24.64l19.25-1.97c3.75.3 6.91-.67 10.55-2.12 9.65-4 8.12-14.2 6.03-19.05-1.84-4.22-2.3-14.1-1.46-21.36 1.37-11.78.95-22.2-1.27-28.53-2.7-7.69-4.89-12.1-11.31-19.2-14.02-14.7-29.33-16.97-39.67-16.7-8.05.22-15.5 1.54-22.29 4.6" style="fill:#b3b3b3"/><path d="m172 137.7-.09-.04a18 18 0 0 1-5.7-4.29q.76-5.94 1.42-11.8l.06-.9c3.07-.9 5.68-1.67 4.35-1.45a35 35 0 0 1-15.07-7.52c-7.4-6.06-10.61-15.62-11.77-26.18-.62-5.69-.7-11.5-1.84-17.94.41-6.61.94-10.66 3.44-16.67a31 31 0 0 1 8.08-11.4l1.24 1.79c3.6 5.15 8.94 10.48 19.15 13.64 11.5 3.56 16.21 3.26 24.35 2.58 4.9 4.17 10.34 7.31 16.62 10.75l10.47.66a6.7 6.7 0 0 1 4.84-1.06 6 6 0 0 1 5.03 3.47c1.46 3.23.72 8.76-.91 12.05a17.6 17.6 0 0 1-6.64 7.8 13 13 0 0 1-6.32 1.46l-.45.92c-.8 1.68-2.72 4.62-2.72 4.62a62 62 0 0 1-5.36 6.92l.32 1.74a18 18 0 0 0 .96 3.66 10.5 10.5 0 0 0 3.96 4.33 161 161 0 0 0-3.83 14.54c-8.66 5.91-18.41 9.99-29.2 10.62-4.9.29-9.97-.19-14.4-2.3m55.95 137.36c-4.15 3.34-7.3 7.87-11.6 12.35-.61.65-3.14 2.34-5.1.83-1.28-.99-1.46-3.48-1-4.49 2.54-5.53 3.57-7.2 5.45-11.07-2.29 2.41-4.08 4.43-6.79 7.17l-2.76 2.8-8.15 8.24c-2.9-9.27-6.5-20.75-10.1-32.18 3.13-4 5.97-8.42 9.83-11.81a18.3 18.3 0 0 1 10.23-4.82 25 25 0 0 1 4.75.16q4.5.46 8.98 1.18c5.42.86 11.5 1.88 15.84-1.8 5.62 4.98 10.72 14.8 13.54 23.96a22 22 0 0 0-2.92 1.7c-.62.43-2.64 2.21-3.31 2.58a46 46 0 0 1-16.55 5.11M97.51 128.21l.35-.05a16 16 0 0 1 2.4-.1l-.85-2.1-5.28-12.41a17 17 0 0 1-1.1-3.14 6.5 6.5 0 0 1 .93-5.16c1.02-1.32 3.1-1.46 4.72-.85 1.78.67 2.77 2.08 3.88 3.86 3.6 5.78 8.34 17.31 10.39 23.84l.52 1.66c2.24-.82 4.64-1.24 6.67-.12a8.6 8.6 0 0 1 3.42 4.56 29 29 0 0 1-1.32 24.16 89 89 0 0 1 3.96 11.36l.1.36c-6.18 2.27-16.09 5.26-23.09 7.41l-.25-.93c-.42-1.56-2.92-9.4-4.24-11.3a24 24 0 0 0-4.22-4.19 91 91 0 0 1-7.48-7.58c-1.3-1.38-2.78-4.8-2.44-6.85a12.5 12.5 0 0 1 2.88-6.65 4.2 4.2 0 0 1 3.27-1.15l-.16-.34a5.4 5.4 0 0 1-1.02-4.38c.51-2.04 1.45-2.47 3.14-2.9l.12-.02.02-1.95a4.3 4.3 0 0 1 1.27-3.16 5.8 5.8 0 0 1 3.41-1.88" class="a"/><path d="M288.13 251.7q9.89 0 19.77-.03l31.03-.04 7.76-.01c3.09 0 3.1-4.8 0-4.8l-20.28.02-30.88.04-7.4.01c-3.09 0-3.1 4.8 0 4.8m-285.81 0q17.78 0 35.55-.07h5.63c3.1 0 3.1-4.8 0-4.8q-17.98.01-35.96.06l-5.22.01c-3.09 0-3.1 4.8 0 4.8m234.65-15.61c4.92-2.1 9.66-4.53 14.47-6.86a2.4 2.4 0 0 0 .86-3.28 2.46 2.46 0 0 0-3.28-.86c-4.81 2.33-9.55 4.76-14.47 6.85a2.4 2.4 0 0 0-.87 3.29 2.5 2.5 0 0 0 3.29.86m3.18-45.22 7.32 26.78c.81 2.98 5.44 1.72 4.63-1.27l-7.32-26.79c-.81-2.98-5.45-1.71-4.63 1.28m-4.77 49.38c-3.4 2.18-7.64 1.7-11.45 1.1-4.71-.71-9.53-1.65-14.32-1.72-9.74-.13-16.14 7.64-21.44 14.77a2.4 2.4 0 0 0 .86 3.28 2.46 2.46 0 0 0 3.28-.86c2.5-3.37 5.1-6.93 8.56-9.39a17 17 0 0 1 5.3-2.6 18 18 0 0 1 6.3-.2c4.45.44 8.84 1.27 13.28 1.79 4.13.47 8.46.28 12.06-2.02 2.6-1.66.19-5.81-2.43-4.15m-37.05 17.47-7.34 7.28a2.4 2.4 0 0 0 3.4 3.4l7.33-7.28a2.4 2.4 0 0 0-3.4-3.4m.68 20.89c3.7-4.33 7.75-8.35 11.8-12.35a2.4 2.4 0 0 0-3.4-3.4c-4.05 4-8.1 8.03-11.8 12.35a2.4 2.4 0 0 0 3.4 3.4m5.36 9.24c2.72-2.75 5.48-5.48 8.16-8.28 2.36-2.48 4.65-5.03 7.06-7.46a2.4 2.4 0 1 0-3.4-3.4c-2.4 2.44-4.7 4.98-7.06 7.46-2.67 2.8-5.44 5.53-8.16 8.29a2.4 2.4 0 0 0 3.4 3.4Zm23.91-10.48a52 52 0 0 0 14.25-3.74 22 22 0 0 0 5.34-3.07l.98-.8.49-.4c.3-.24-.27.2-.04.03a26 26 0 0 1 2.99-1.75 2.4 2.4 0 0 0-2.43-4.14 25 25 0 0 0-4.61 3.04 17 17 0 0 1-1.43 1.13 22 22 0 0 1-2.93 1.48 44 44 0 0 1-12.6 3.42 2.5 2.5 0 0 0-2.4 2.4 2.4 2.4 0 0 0 2.4 2.4Z" class="d"/><path d="M234.95 242.6c3.87 2.89 6.68 7.51 8.92 11.77a69 69 0 0 1 6 16c.72 3 5.35 1.73 4.63-1.28a73 73 0 0 0-6.68-17.5c-2.64-4.94-5.92-9.75-10.45-13.13a2.4 2.4 0 0 0-3.29.86 2.46 2.46 0 0 0 .86 3.28Zm-22.05 30.33c-.98 1.96-2 3.9-2.96 5.86a41 41 0 0 0-2.03 4.39 7 7 0 0 0-.04 3.9 5.48 5.48 0 0 0 7.5 3.7c2.89-1.14 4.79-3.92 6.75-6.2a61 61 0 0 1 7.53-7.82 2.4 2.4 0 0 0 0-3.4 2.46 2.46 0 0 0-3.4 0c-4.42 3.6-7.64 8.36-11.63 12.4-.06.06-.4.32-.13.13.29-.21-.32.18-.38.22-.11.06-.57.27-.22.13-.14.06-.71.22-.58.2a.6.6 0 0 1-.61-.1c.23.13-.14-.23.08.09l-.21-.37c.1.22.04.15 0-.04l-.16-.65c.08.46.02-.17.01-.32l.01-.3c0 .05-.12.4-.02.18l.05-.25c.12-.35-.1.21.08-.18q.79-1.7 1.6-3.39c.94-1.93 1.94-3.83 2.9-5.75a2.46 2.46 0 0 0-.86-3.28 2.4 2.4 0 0 0-3.28.86Zm-14.04 35.78c7.83-3.27 15.6-6.7 23.36-10.12q13.45-5.92 26.86-11.91 4.5-2 8.98-4.04a2.4 2.4 0 0 0 .86-3.29 2.46 2.46 0 0 0-3.28-.86 2592 2592 0 0 1-47.24 20.95l-6.35 2.75-2.66 1.13-.76.33-1.05.43a2.5 2.5 0 0 0-1.67 2.96 2.4 2.4 0 0 0 2.95 1.67" class="d"/><path d="M40.55 210.92c30.79.5 101.07.67 126.17.84a8.8 8.8 0 0 1 8.33 6.14c5.97 18.88 19.4 61.64 25.72 81.85a5.63 5.63 0 0 1-5.4 7.32c-27.2-.1-100.47-.36-128.64-.93a5.6 5.6 0 0 1-5.26-3.97c-5.56-17.96-19.82-63.23-26.4-83.9a5.64 5.64 0 0 1 5.48-7.35" class="a"/><path d="M40.55 213.32c14.38.23 28.76.33 43.14.42q25.2.16 50.4.26l21.2.1 8.28.04c3.07.02 6.22-.17 8.25 2.62a15 15 0 0 1 1.76 4.44l1.41 4.48 3.37 10.7 7.81 24.85 7.69 24.49 3.23 10.33c.78 2.48 3.06 6.78-.32 8.32-1.14.52-2.6.3-3.83.3l-3.98-.02-9.17-.03-21.92-.1q-24.94-.11-49.88-.3c-13.5-.1-26.99-.2-40.48-.47-1.5-.02-2.92-.38-3.61-1.89a32 32 0 0 1-1.2-3.82l-2.9-9.3q-3.63-11.61-7.29-23.22-7.17-22.82-14.4-45.62c-.42-1.33-1.2-2.86-.77-4.25a3.3 3.3 0 0 1 3.21-2.33c3.09-.04 3.1-4.84 0-4.8a8.14 8.14 0 0 0-7.95 9.72 47 47 0 0 0 1.42 4.62l1.57 4.96 7.5 23.7q7.4 23.5 14.74 47.02c1.1 3.54 1.85 7.46 5.56 9.2 2.8 1.33 6.54.87 9.6.91q10.26.16 20.53.25 25.37.25 50.74.36 22.46.11 44.93.2h4.05a13 13 0 0 0 5.08-.56 8.1 8.1 0 0 0 4.78-5.2c.65-2.14.12-4.15-.53-6.2q-3.46-11.1-6.94-22.17-7.82-24.93-15.68-49.86c-1-3.21-1.78-6.72-3.21-9.77-2.03-4.33-6.35-6.32-10.93-6.35l-17.94-.1-49.8-.22c-16.19-.1-32.38-.19-48.57-.38l-8.95-.13c-3.09-.06-3.09 4.74 0 4.8" class="d"/><path d="M293.1 98.27a3.3 3.3 0 0 1-.38-2.44 72 72 0 0 1 4.15-13.34s.28-.42.66-1a87 87 0 0 0 16.21 6.58l-.03 1.2c.4.98-2.79 8.83-4.43 12.03a6 6 0 0 1-1.12 1.53 5.4 5.4 0 0 1-3.15 1 62 62 0 0 1-9.08-3.43 7 7 0 0 1-2.76-2z" class="a"/><path d="M327.87 52.5q.65.72 1.26 1.56a19.1 19.1 0 0 1 2.23 19.75 24 24 0 0 1-5.47 7.8 27 27 0 0 1-5.7 4.41 26 26 0 0 1-5.45 2.32 83 83 0 0 1-18.35-7.5c-3.04-2.84-4.5-9.58-4.3-13.23a27 27 0 0 1 1.4-7.85 23 23 0 0 1 4.58-7.52 19.6 19.6 0 0 1 9.9-6.16 22.5 22.5 0 0 1 12.62 1.13 21 21 0 0 1 7.28 5.29" style="fill:#ffda71"/><path d="M326.17 54.2a17.4 17.4 0 0 1 3.03 18.6 24.4 24.4 0 0 1-15.1 13.23h1.28a76 76 0 0 1-14.86-5.67 9 9 0 0 1-3.03-1.84 11 11 0 0 1-1.56-2.83 21 21 0 0 1-1.46-7.04 21.3 21.3 0 0 1 5.3-14.7c3.41-3.72 7.74-6.07 12.9-5.94a19 19 0 0 1 3.34.37q.93.18 1.84.43.61.17 1.21.38l.9.34q-.65-.28-.29-.12a22 22 0 0 1 6.5 4.79c2.09 2.29 5.47-1.11 3.4-3.4-6.5-7.13-17.34-9.8-26.2-5.6a24 24 0 0 0-8.6 7.3 26.3 26.3 0 0 0-5.1 15.36 22.4 22.4 0 0 0 3.51 12.86 8 8 0 0 0 2.61 2.55q1.65.94 3.35 1.75a93 93 0 0 0 13.75 5.3 5 5 0 0 0 3.09.15 29 29 0 0 0 14.18-10.03 24 24 0 0 0 5.36-15.36 23 23 0 0 0-5.95-14.27c-2.04-2.34-5.42 1.07-3.4 3.39m-31.26 38.57a147 147 0 0 0 14.77 5.53 2.4 2.4 0 0 0 2.95-1.68 2.45 2.45 0 0 0-1.68-2.95q-3.5-1.1-6.94-2.38-1.83-.68-3.65-1.4l-1.75-.71-.42-.18-.05-.02-.8-.35a2.46 2.46 0 0 0-3.28.86 2.43 2.43 0 0 0 .86 3.29Z" class="d"/><path d="M294.8 81.27c-1.54 2.75-2.35 6.1-3.21 9.1a44 44 0 0 0-1.18 4.82 6.26 6.26 0 0 0 3.5 6.87 49 49 0 0 0 5.53 2.41 27 27 0 0 0 4.93 1.68 6.7 6.7 0 0 0 6.28-2.55 22 22 0 0 0 2.25-4.42 84 84 0 0 0 2.38-6c.46-1.32 1.2-3.13.75-4.55-.95-2.92-5.58-1.67-4.63 1.28.03.08-.05-.77-.06-.2 0-.37.06-.4-.05.09q-.2.84-.5 1.68a68 68 0 0 1-3.24 7.92 9 9 0 0 1-.98 1.65c.1-.12.47-.25.06-.08q-.22.1-.44.23c-.63.3-.27.12-.2.1-.03 0-.68.26-.48.16-.25.13-.33-.02-.03.03l-.36-.08-.96-.29q-1.24-.4-2.47-.88a86 86 0 0 1-4.25-1.78 8 8 0 0 1-1.99-1.1c-.43-.38-.44-.63-.34-1.27a38 38 0 0 1 1.06-4.3q.75-2.63 1.64-5.2.34-1 .72-1.98l.16-.42-.03.07.28-.56c1.51-2.7-2.63-5.12-4.14-2.42Zm45.47-43.54q-2.62 2-5.27 3.98a2.6 2.6 0 0 0-1.1 1.43 2.5 2.5 0 0 0 .24 1.85 2.4 2.4 0 0 0 1.44 1.1 2.3 2.3 0 0 0 1.84-.24q2.65-1.97 5.28-3.97a2.7 2.7 0 0 0 1.1-1.44 2.5 2.5 0 0 0-.24-1.85 2.4 2.4 0 0 0-1.44-1.1 2.3 2.3 0 0 0-1.85.24m-11.72-1.7q.42-1.12.89-2.23l-.24.58q.64-1.52 1.36-3.01a2.6 2.6 0 0 0 .24-1.85 2.5 2.5 0 0 0-1.1-1.44 2.4 2.4 0 0 0-1.85-.24 2.4 2.4 0 0 0-1.43 1.1 76 76 0 0 0-2.5 5.81 2.4 2.4 0 0 0 .24 1.85 2.4 2.4 0 0 0 3.28.86l.49-.37a2.4 2.4 0 0 0 .61-1.06Zm-12.32-2.3a77 77 0 0 0-1.14-6.6 2.4 2.4 0 0 0-2.95-1.68 2.45 2.45 0 0 0-1.68 2.96c.5 2.17.84 4.38 1.14 6.59a2.4 2.4 0 0 0 1.1 1.43 2.5 2.5 0 0 0 1.85.24 2.4 2.4 0 0 0 1.44-1.1l.24-.57a2.4 2.4 0 0 0 0-1.28Zm5.9 40.23a10.4 10.4 0 0 0-2.79-6.4c-1.5-1.74-3.54-3.68-5.88-4.08-4.95-.85-9.72 3.67-8.1 8.71a6.7 6.7 0 0 0 4.74 4.43 6 6 0 0 0 3.44.06 7.5 7.5 0 0 0 3.11-2.18 7.3 7.3 0 0 0 1.67-6.78 10.7 10.7 0 0 0-3.76-5.36 10.8 10.8 0 0 0-7.9-2.62 10.7 10.7 0 0 0-7.12 4.18 2.5 2.5 0 0 0 0 3.4 2.4 2.4 0 0 0 3.39 0c1.73-2.2 4-3.62 6.8-2.4a8 8 0 0 1 3.22 2.58c-.07-.09.32.53.38.63q.13.23.24.47l.21.83c-.01-.14-.09.87-.02.56a2 2 0 0 1-.24.69 3 3 0 0 1-.34.52 7 7 0 0 1-.62.6c-.01.01-.85.45-.51.32.47-.18-.41-.05-.15-.01a6 6 0 0 1-.9-.23c-.4-.12.3.17-.07-.03l-.44-.25c.05.04-.4-.43-.24-.2a2.3 2.3 0 0 1-.42-1.13 2 2 0 0 1 .25-1.07l.39-.4c.03-.03.27-.21.04-.04-.25.19.1-.06.17-.1l.38-.21c.33-.2-.3.1.06-.04a6 6 0 0 1 .82-.24c-.39.08.33 0 .37-.01a2.3 2.3 0 0 1 1.42.66 18 18 0 0 1 1.93 1.81 8 8 0 0 1 1.24 1.76 4 4 0 0 1 .43 1.58 2.45 2.45 0 0 0 2.4 2.4 2.4 2.4 0 0 0 2.4-2.4Zm-197.57 89.16a32 32 0 0 0 3.43-15.07c-.12-4.8-1.18-10.53-4.23-14.38-3.74-4.72-9.52-3.01-14.17-.87-4.47 2.05-9.27 6.08-7.96 11.61a6.7 6.7 0 0 0 5.53 5.13 11 11 0 0 0 4.49-.78l4.76-1.54c2.93-.94 1.68-5.58-1.27-4.63-2.08.68-4.15 1.43-6.25 2.01-1.19.33-2.08.13-2.54-1.13-1.21-3.35 3.8-5.7 6.06-6.7a12.5 12.5 0 0 1 4.9-1.42c1.7 0 2.69 1.04 3.45 2.45a23.5 23.5 0 0 1 2.44 10.68 26.5 26.5 0 0 1-2.79 12.22c-1.38 2.75 2.76 5.18 4.15 2.42" class="d"/><path d="M120.3 163.87a79 79 0 0 1 3.6 10.48 2.4 2.4 0 0 0 4.62-1.28 79 79 0 0 0-3.6-10.47 2.6 2.6 0 0 0-1.1-1.44 2.5 2.5 0 0 0-1.85-.24c-1.1.36-2.18 1.71-1.67 2.95" class="d"/><path d="M128.21 170.77c-10.07 4.14-20.76 6.74-31.1 10.11a2.44 2.44 0 0 0-1.67 2.96 325 325 0 0 0 8.71 25.7 2.47 2.47 0 0 0 2.96 1.67 2.4 2.4 0 0 0 1.67-2.95 322 322 0 0 1-8.72-25.7l-1.67 2.95c10.34-3.37 21.03-5.97 31.1-10.11a2.5 2.5 0 0 0 1.67-2.95 2.4 2.4 0 0 0-2.95-1.68m-26.73-46.03c-1.78-4.19-3.62-8.36-5.34-12.57-.62-1.53-1.32-3.4-.56-5.02.46-.99 1.69-.8 2.53-.4 1.2.59 1.93 1.97 2.6 3.07a58 58 0 0 1 2.13 3.87q2.25 4.48 4.15 9.14c1.34 3.25 2.6 6.54 3.65 9.9.93 2.93 5.56 1.68 4.63-1.28a128 128 0 0 0-8.99-21.53c-1.74-3.26-3.83-7.28-7.8-8.08a6.4 6.4 0 0 0-6.21 1.7 8.3 8.3 0 0 0-1.7 6.47c.35 2.94 1.9 5.72 3.05 8.42l3.72 8.74a2.4 2.4 0 0 0 3.28.86 2.46 2.46 0 0 0 .86-3.29" class="d"/><path d="M94.68 155.52c2.72 2.15 6.82 5.62 10.45 3.73a6.54 6.54 0 0 0 2.31-8.98 27 27 0 0 0-4.94-4.87 22 22 0 0 0-8.4-4.48c-2.72-.82-6.48-.85-8.45 1.52-2.06 2.49-3.76 6.06-3.48 9.37.28 3.46 2.05 6.16 4.34 8.63a87 87 0 0 0 7.11 7.02 14 14 0 0 1 3.42 3.65 23 23 0 0 1 1.32 3.13c.84 2.28 1.65 4.6 2.3 6.95.8 2.98 5.44 1.72 4.63-1.27a64 64 0 0 0-3.87-10.77c-1.16-2.4-3.25-4.07-5.21-5.78a73 73 0 0 1-5.77-5.75c-1.6-1.74-3.14-3.28-3.47-5.8a8 8 0 0 1 .66-3.53 7 7 0 0 1 1.71-2.8c-.22.18.35-.16.15-.07l.56-.15a6 6 0 0 1 1.58 0 17 17 0 0 1 3.23.97 16 16 0 0 1 4.91 3.13q1.38 1.19 2.68 2.47a9 9 0 0 1 1.05 1.1c-.25-.33.05.2.05.58.02.74-.26 1.5-.93 1.43a7 7 0 0 1-2.2-1.18 25 25 0 0 1-2.34-1.63 2.5 2.5 0 0 0-3.4 0 2.4 2.4 0 0 0 0 3.39Z" class="d"/><path d="M92.27 140.79c.39.49.04.03-.03-.1-.04-.06-.3-.64-.12-.18l-.2-.65c-.02-.04-.12-.73-.08-.3a4 4 0 0 1 0-.72c-.04.39.06-.22.08-.3s.18-.62.07-.28c-.1.32.11-.19.15-.26l.12-.2q-.32.4-.14.2c.1-.06.36-.45.13-.14-.2.28-.03 0 .12-.04.46-.14-.48.14-.03 0q.5-.13.99-.3l-.1.01.33-.01q.34 0 .67.02a11 11 0 0 1 2.4.43q1.33.32 2.61.76c.51.18-.15-.1.29.13q.3.14.61.32c.01.01.61.42.27.15a5 5 0 0 1 .5.47c.08.07.45.57.2.2l.35.57c.22.36-.01-.1.07.14a7 7 0 0 1 .21.75 2.4 2.4 0 0 0 2.96 1.68 2.45 2.45 0 0 0 1.67-2.96 8.6 8.6 0 0 0-5.63-6 19 19 0 0 0-7.4-1.46c-2.22.12-4.56 1.13-5.54 3.22a7.7 7.7 0 0 0 1.07 8.23 2.4 2.4 0 0 0 3.4 0 2.47 2.47 0 0 0 0-3.39Z" class="d"/><path d="M95.23 133.25v-.48c-.03.23.13-.35.05-.17-.04.1.2-.36.24-.44 0-.01.23-.34.1-.17a6 6 0 0 1 .74-.75c.16-.15.18-.12 0 0q.23-.16.45-.28c.07-.04.51-.25.15-.1q.24-.1.47-.16l.65-.15c.43-.08-.25.02.2-.03a16 16 0 0 1 2.65-.03l.52.04c.06 0 .7.09.39.04-.27-.03.26.05.3.05l.68.12a15 15 0 0 1 2.05.5 5 5 0 0 1 .6.32c.07.04.5.38.23.14l.35.33.17.19q-.13-.19 0 .01l.28.44c.04.08.22.52.13.24l.14.5c-.08-.33.01.33.01.39a2.4 2.4 0 0 0 4.8 0 7.6 7.6 0 0 0-3.69-6.38 16 16 0 0 0-6.95-1.72 11.3 11.3 0 0 0-6.83 1.28 7.4 7.4 0 0 0-3.68 6.27 2.4 2.4 0 1 0 4.8 0m37.48 45.34a339 339 0 0 0 4.69 13.9 2.4 2.4 0 0 0 4.63-1.27 339 339 0 0 1-4.7-13.9 2.4 2.4 0 1 0-4.62 1.27m79.47-71.1a13.5 13.5 0 0 0 2.1 5.74 16 16 0 0 0 5 4.33 2.4 2.4 0 0 0 2.41-4.15q-.6-.33-1.16-.71l-.5-.36c-.3-.22-.02-.03.1.1q-.13-.12-.27-.22a12 12 0 0 1-.95-.87l-.45-.5c-.06-.07-.31-.4-.07-.07s-.02-.04-.05-.08a8 8 0 0 1-.66-1.1c-.04-.06-.16-.24-.15-.3-.01.09.23.58.08.16l-.2-.57a24 24 0 0 1-.6-2.68 2.4 2.4 0 0 0-2.95-1.67 2.47 2.47 0 0 0-1.68 2.95" class="d"/><path d="M209.95 121.21q.08-.04 0 0" class="a"/><path d="M250.43 272.7a143 143 0 0 0 20.59-9.07c7.3-3.97 14.59-8.86 18.63-16.35 6.56-12.14 3.7-26.26 1.4-39.12-1.64-9.2-3.95-18.2-6.38-27.21a334 334 0 0 0-5.15-17.65 110 110 0 0 0-8.8-20.8 47.5 47.5 0 0 0-15.4-16.1c-10.17-6.55-22.33-9.36-33.76-12.96l-1.36-.43c-2.96-.93-4.22 3.7-1.28 4.63l10.53 3.32c6.16 1.94 12.36 3.72 18.17 6.6a44 44 0 0 1 16.11 13.04c4.18 5.66 6.98 12.26 9.38 18.84a238 238 0 0 1 5.9 18.94c2.06 7.57 4.17 15.14 5.82 22.81 1.54 7.13 2.8 14.39 3.7 21.62a45 45 0 0 1 .35 8.07 36 36 0 0 1-1.33 9.13 27 27 0 0 1-4.67 8.8 39 39 0 0 1-9.2 7.7 117 117 0 0 1-20.44 10.04q-2.03.8-4.08 1.52a2.46 2.46 0 0 0-1.68 2.95 2.4 2.4 0 0 0 2.95 1.68M132.4 159.28c1.6-7.7 4.54-15.56 9.5-21.75a30 30 0 0 1 9.73-7.46 65 65 0 0 1 6.03-2.77q1.57-.63 3.17-1.2l1-.37.83-.3c3.21-1.09 6.5-1.92 9.73-2.96 2.93-.93 1.68-5.57-1.28-4.62-7.26 2.32-13.95 4.1-20.77 7.5-3.96 1.97-8 4.38-10.95 7.72a46 46 0 0 0-7.4 11.88 65 65 0 0 0-4.22 13.05c-.63 3.01 4 4.3 4.63 1.28m32.76-23.53c6.53 6.5 16.22 7.43 24.94 6.3a61 61 0 0 0 24.45-9.1c2.6-1.64.2-5.8-2.43-4.15a57 57 0 0 1-21.8 8.4c-7.42 1.11-16.14.76-21.77-4.85-2.19-2.18-5.59 1.21-3.4 3.4" class="d"/><path d="M217.36 113.39a135 135 0 0 0-6.24 30.5 87 87 0 0 0 .23 15.18c.56 5.35 1.64 10.65 2.64 15.94 1.88 9.89 3.96 19.8 5.05 29.82.62 5.7 1.02 11.44 1.47 17.16.5 6.3.94 12.61 1.5 18.9a2.46 2.46 0 0 0 2.4 2.4 2.4 2.4 0 0 0 2.4-2.4c-1.02-11.48-1.69-23-2.8-34.47-.89-9.04-2.6-17.99-4.29-26.9-1.96-10.3-4.22-20.52-4.01-31.07.23-11.53 2.86-22.82 6.27-33.78.93-2.96-3.7-4.23-4.62-1.28m-51.33 96.56c-1.89-10.4-4.08-20.95-3.86-31.58.12-5.43 1.04-10.9 1.72-16.3.76-6.1 2.19-12.06 3.2-18.12 1.22-7.43 2.08-14.91 2.94-22.39a2.4 2.4 0 0 0-2.4-2.4 2.46 2.46 0 0 0-2.4 2.4c-.75 6.58-1.5 13.16-2.55 19.7-.98 6.17-2.45 12.25-3.28 18.45-.42 3.07-.76 6.16-1.12 9.24-.31 2.65-.73 5.29-.86 7.95a93 93 0 0 0 1.05 16.84c.79 5.86 1.88 11.67 2.93 17.48a2.4 2.4 0 0 0 2.96 1.68 2.45 2.45 0 0 0 1.67-2.95m44.61-98.09a58 58 0 0 0 8.95-9.6 48 48 0 0 0 4.74-7.48 2.46 2.46 0 0 0-.86-3.29 2.4 2.4 0 0 0-3.28.86 47 47 0 0 1-4.58 7.27 52 52 0 0 1-3.64 4.36 54 54 0 0 1-4.72 4.49 2.4 2.4 0 0 0 0 3.4 2.45 2.45 0 0 0 3.4 0" class="d"/><path d="M199.01 112.76c-10.5 4.81-22.88 7.03-33.61 1.62a30 30 0 0 1-12.25-10.72c-2.96-4.83-4.44-10.4-5.27-15.96-1.1-7.36-1.03-14.82-2.47-22.15a2.4 2.4 0 0 0-2.95-1.68 2.45 2.45 0 0 0-1.68 2.96c1.39 7.05 1.38 14.24 2.36 21.34a47 47 0 0 0 5.5 17.3c6.3 10.83 19.01 17.11 31.37 16.88 7.52-.14 14.63-2.33 21.42-5.45a2.4 2.4 0 0 0 .86-3.28 2.46 2.46 0 0 0-3.28-.86M227.91 71a4.8 4.8 0 0 1 4.5-.46 4 4 0 0 1 1.38.89l.25.28.33.56c1.26 2.57.55 6.35-.39 9a16 16 0 0 1-5.13 7.17 8 8 0 0 1-3.65 1.6 7 7 0 0 1-4.19-.14 2.47 2.47 0 0 0-3.28.86 2.4 2.4 0 0 0 .86 3.28 13 13 0 0 0 10.41-.19 17 17 0 0 0 7.56-7.04 22 22 0 0 0 3.16-9.83c.22-3.1-.26-6.51-2.45-8.86a9.56 9.56 0 0 0-11.77-1.26c-2.56 1.7-.16 5.86 2.42 4.14Zm-30.51 1.35c.7 2.12.39 7.04-3.64 7.55-5.35.09-5.77-5.84-4.03-8.67 1.42-2.32 5.72-3.37 7.67 1.12" class="d"/><path d="M165.22 72.16c.66 2.05.38 6.83-3.32 7.31-4.9.07-5.3-5.68-3.72-8.42 1.3-2.25 5.25-3.25 7.04 1.1m8.01 9.67q-1.01 1.8-1.86 3.66a5 5 0 0 0-.6 2.13 3.1 3.1 0 0 0 1.14 2.46 4.4 4.4 0 0 0 1.92 1.02c.47.1.93.1 1.4.16a2.4 2.4 0 0 0 1.7-.7 2.4 2.4 0 0 0 0-3.4l-.48-.37a2.4 2.4 0 0 0-1.21-.32l-.63-.06.64.09a2 2 0 0 1-.54-.15l.57.24a3 3 0 0 1-.45-.28l.48.38-.3-.27.38.48-.08-.12.24.57-.06-.21.08.63.01-.3-.08.63a3 3 0 0 1 .17-.57l-.24.58c.57-1.32 1.25-2.6 1.95-3.85a2.5 2.5 0 0 0 .24-1.85 2.4 2.4 0 0 0-4.39-.57Zm18.46 15.14.33.35-.37-.48a6 6 0 0 1 .78 1.38l-.24-.57a5 5 0 0 1 .36 1.22 2.7 2.7 0 0 0 1.1 1.43 2 2 0 0 0 .89.29 2 2 0 0 0 .96-.05 2.4 2.4 0 0 0 1.43-1.1l.24-.57a2.4 2.4 0 0 0 0-1.27 5 5 0 0 0-.22-.88 12 12 0 0 0-.6-1.4 6 6 0 0 0-.45-.76 6 6 0 0 0-.82-1 2 2 0 0 0-.77-.5 2.5 2.5 0 0 0-2.62.5 2.4 2.4 0 0 0-.7 1.7 2.4 2.4 0 0 0 .7 1.7Zm-21.06 5.39a15 15 0 0 0 7.36 1.3 18 18 0 0 0 3.63-.55 11 11 0 0 0 3.67-1.48 2.46 2.46 0 0 0 .86-3.28 2.4 2.4 0 0 0-3.28-.86 6 6 0 0 1-.64.4c-.22.13-.14.07.05 0l-.37.13q-.74.25-1.48.45a13 13 0 0 1-1.34.3l-.13.02-.97.08q-.76.04-1.52.02l-.75-.04-.38-.04c-.4-.03.07.04.09.02-.08.12-1.35-.26-1.5-.3l-.64-.2-.3-.12c-.3-.1.53.25.06.02a2.4 2.4 0 0 0-2.42 4.15ZM154.05 42.5a37 37 0 0 0 13.39 11.85 57 57 0 0 0 11.39 4.1 56 56 0 0 0 9.8 1.75 58 58 0 0 0 9.19-.15 2.46 2.46 0 0 0 2.4-2.4 2.4 2.4 0 0 0-2.4-2.4 51 51 0 0 1-15.94-.98c-6.45-1.54-12.97-3.67-18.1-8.04a33 33 0 0 1-5.59-6.16 2.46 2.46 0 0 0-3.28-.86 2.4 2.4 0 0 0-.86 3.28Z" class="d"/><path d="M189.95 50.69a58 58 0 0 0 11.55 11.35 116 116 0 0 0 13.53 8.3c2.7 1.49 5.13-2.66 2.42-4.14-8.72-4.79-17.2-9.93-23.36-17.94a2.5 2.5 0 0 0-3.28-.86 2.4 2.4 0 0 0-.86 3.29M153.19 37.8a34 34 0 0 0-9.12 13.49c-2.1 5.37-2.78 10.93-3.13 16.65-.2 3.08 4.6 3.07 4.8 0a49 49 0 0 1 2.8-14.97 29.5 29.5 0 0 1 8.04-11.77c2.33-2.03-1.07-5.42-3.4-3.4" class="d"/><path d="M149.43 18.56a46.5 46.5 0 0 0-9.59 20.06c-1.38 6.17-1.26 12.54-.77 18.8a109 109 0 0 0 1.48 11.47 2.4 2.4 0 0 0 2.95 1.67 2.45 2.45 0 0 0 1.67-2.95 88 88 0 0 1-1.43-23.24 45 45 0 0 1 2.7-11.22 37 37 0 0 1 6.38-11.2 2.46 2.46 0 0 0 0-3.39 2.4 2.4 0 0 0-3.39 0" class="d"/><path d="M152.82 21.96a46 46 0 0 1 14.24-11.84 48 48 0 0 1 16.68-4.87c10.62-1.2 21.12-.1 30.68 4.94a54 54 0 0 1 16.16 13.28 48 48 0 0 1 8.3 15.28c4.46 12.74.26 26.27.95 39.32a43 43 0 0 0 1.2 8.82 16 16 0 0 0 .47 1.5l.42 1.01c-.18-.45.03.07.09.24a21 21 0 0 1 .78 2.65 15 15 0 0 1 .2 5.62 9 9 0 0 1-2.92 5.3 12 12 0 0 1-3.31 1.96 2.4 2.4 0 0 0-.86 3.28 2.46 2.46 0 0 0 3.28.86 14.3 14.3 0 0 0 8.77-12.95 21 21 0 0 0-.87-6.68q-.2-.66-.44-1.31l-.46-1.12-.09-.25a23 23 0 0 1-.91-3.63c-1.2-6.88-.4-13.76.17-20.65.6-7.14.7-14.53-.8-21.57a48 48 0 0 0-2.86-8.5 45 45 0 0 0-4.33-8.14 59 59 0 0 0-16-15.79A54.3 54.3 0 0 0 188.2.08a60 60 0 0 0-18.81 3.76 48 48 0 0 0-16.47 10.83 55 55 0 0 0-3.5 3.9 2.47 2.47 0 0 0 0 3.39 2.4 2.4 0 0 0 3.4 0" class="d"/><path d="M237.33 104.93a35 35 0 0 1-5.14 1.7q-.62.14-1.25.24c-.64.1.34-.02-.17.03l-.63.06a17 17 0 0 1-2.72 0 2.4 2.4 0 0 0-2.4 2.4 2.46 2.46 0 0 0 2.4 2.4 25 25 0 0 0 11.19-2.2 2.6 2.6 0 0 0 1.43-1.1 2.5 2.5 0 0 0 .24-1.85 2.4 2.4 0 0 0-2.95-1.68" class="d"/></svg>
