<svg xmlns="http://www.w3.org/2000/svg" viewBox="0 -22.4 357.155 357.155"><defs><style>.e{fill:#211715}.f{fill:#fff}</style></defs><path d="M290.44 42.06a13 13 0 0 0 2.13 5.42c3 4.49 12.41 11.65 16.03 14.31a2.8 2.8 0 0 0 2.96.2 73 73 0 0 0 13.52-9.42 16 16 0 0 0 4.98-15.51 15.5 15.5 0 0 0-12.02-11.37c-3.55-.64-7.2.03-10.73.85-4.1.94-9.18 3.77-13.48 7.2a9 9 0 0 0-3.4 8.27Z" style="fill:#adc46e"/><path d="M284.75 80.77c3.8-5.63 9.6-9.41 15.69-12.6a.94.94 0 0 0 .13-1.58 47 47 0 0 1-12.17-13.16 33 33 0 0 1-3.48-7.68 25 25 0 0 1-.84-4.36.93.93 0 0 0-1.26-.77 25.1 25.1 0 0 0-16.36 23.85 17.4 17.4 0 0 0 2.8 9.69c3.12 4.48 8.47 6.54 13.87 7.96a.94.94 0 0 0 1.04-.43q.28-.47.58-.92" style="fill:#ef7760"/><path d="M344.2 65.7c-2.35-5.25-8.22-9-14.11-11.4a1.1 1.1 0 0 0-1.28.37 45 45 0 0 1-12.48 10.86 1.1 1.1 0 0 0-.1 1.8c3.09 2.3 6.1 4.68 8.38 6.74 5.22 4.7 7.29 11.13 7.55 17.6a1.1 1.1 0 0 0 1.54.94 20.4 20.4 0 0 0 8.6-6.56 21.1 21.1 0 0 0 1.9-20.36" style="fill:#74c66d"/><path d="M321.32 95.56a2 2 0 0 0 .26-.79q.13-1 .16-2.02c.24-6.3-1.53-10.03-7.06-14.59q-3.5-2.89-7.22-5.57a1.9 1.9 0 0 0-1.93-.17c-7 3.34-12.79 5.96-17.38 11.2-4.25 4.36-6.57 13.36-5 18.14a11 11 0 0 0 2.76 4.59c2.4 2.3 5.86 3.13 9.17 3.27 9.55.43 20.88-5.14 26.24-14.06" style="fill:#ffda71"/><path d="M341.74 37.47a22 22 0 0 0-3.31-12.98 24 24 0 0 0-8.78-8.06 32 32 0 0 0-12.92-3.14 36 36 0 0 0-13.17 1.82 49 49 0 0 0-12.52 6.25 2.87 2.87 0 0 0-1 3.83 2.83 2.83 0 0 0 3.83 1c5.9-3.94 12.73-7.21 19.97-7.37a30 30 0 0 1 11.35 1.68 18 18 0 0 1 7.55 5.63 16.5 16.5 0 0 1 3.4 11.34c-.1 3.6 5.5 3.6 5.6 0m-4.02 65.7A37 37 0 0 0 348 96.42a28 28 0 0 0 7.07-10.87 38 38 0 0 0 2.09-13 34 34 0 0 0-1.98-12.6 26 26 0 0 0-9.03-12 2.8 2.8 0 0 0-3.83 1 2.86 2.86 0 0 0 1 3.83c5.9 4.18 8.15 11.8 8.23 18.7.09 7.39-1.43 14.87-6.8 20.29a32 32 0 0 1-9.85 6.57 2.8 2.8 0 0 0-1 3.84 2.87 2.87 0 0 0 3.83 1Zm-66.38-4.6a22.5 22.5 0 0 0 3.7 12.74 21 21 0 0 0 10.15 7.72 36 36 0 0 0 13.02 1.92 38 38 0 0 0 11.41-1.8 53 53 0 0 0 12.23-5.82c3-1.97.2-6.82-2.83-4.84-5.45 3.58-11.74 6.27-18.3 6.76-6.89.5-15.09-.2-19.98-5.67a16.4 16.4 0 0 1-3.8-11.02c-.04-3.6-5.64-3.6-5.6 0m1.39-66.42A33.05 33.05 0 0 0 257.68 77a31 31 0 0 0 9.9 10.88 2.8 2.8 0 0 0 2.82-4.84c-12.43-8.39-13.93-26.56-5.05-38.09a29 29 0 0 1 10.2-7.98 2.8 2.8 0 1 0-2.82-4.83" class="e"/><path d="M220 54.08a73.4 73.4 0 0 1-.02 38.81s-.1.35-.25.98a8 8 0 0 1 5.04 3.85c2.58 4.49 2.47 12.75.74 17.86-1.23 3.62-3.25 9.15-8.1 13.12a10 10 0 0 1-7.75 2.24l-.75-.12a59 59 0 0 1-2.67 7.24c-1.67 4.54-9.77 18.75-20.61 27.42v5.38a3204 3204 0 0 1-29.85 23.4h-4.68a3374 3374 0 0 1-29.85-23.4v-3.55a58 58 0 0 1-12.73-11.66 69 69 0 0 1-13.17-24.85 9.9 9.9 0 0 1-8.39-2.1c-4.85-3.97-6.86-9.5-8.1-13.13-1.73-5.1-1.84-13.37.75-17.85a8 8 0 0 1 4.75-3.77l-.27-1.05a76 76 0 0 1-2.58-22.02c1.18-27.86 15.89-45.06 28.88-54.72 11.18-8.32 25.18-13.3 41.64-13.3s30.46 4.97 41.65 13.29A70 70 0 0 1 220 54.07" class="f"/><path d="M91.64 94.41a9.5 9.5 0 0 0-4.43-.91 11 11 0 0 0-2.84.45 77 77 0 0 1-2.86-23.08c.75-17.88 7.1-31.38 14.97-41.3 1.49 4.21 8.14 8.04 11.43 10.54 4.48 3.4 3.7 7.9 1.2 12.15a114 114 0 0 0-9.76 21.39c-2.46 7.3-3.69 14.86-5.54 22.26a8 8 0 0 0-2.17-1.5m120.41.36a8 8 0 0 0-1.92 1.59c-1.92-7.54-3.15-15.27-5.66-22.71a114 114 0 0 0-9.75-21.4c-2.5-4.25-3.28-8.75 1.2-12.14 3.4-2.58 10.38-6.58 11.56-10.96 8.02 9.96 14.28 23.59 15.05 41.72.33 7.92-.6 14.37-2.78 23a11 11 0 0 0-2.6-.37 9.4 9.4 0 0 0-5.1 1.27" style="fill:#c6c6c6"/><path d="M222.68 93.64a80 80 0 0 0 1.8-31.8 72 72 0 0 0-8.41-24.68A73.7 73.7 0 0 0 183.68 6.9a76.3 76.3 0 0 0-56.87-2.64 74 74 0 0 0-35.84 28.1C80.49 47.83 76.8 67.16 79.69 85.5a88 88 0 0 0 1.7 8.14c.9 3.5 6.3 2.01 5.4-1.49a73 73 0 0 1-1.7-29.43A68 68 0 0 1 92.82 40a67 67 0 0 1 12.66-16.1q1.67-1.58 3.45-3.05a53 53 0 0 1 3.16-2.5 66 66 0 0 1 10.76-6.43c16.18-7.68 35.9-8.28 52.72-2.32a62 62 0 0 1 11.18 5.29q2.68 1.6 5.2 3.45.47.34.93.7l.41.3c-.36-.27 0 0 .06.06q.95.75 1.88 1.52a70 70 0 0 1 13.11 14.4 68.7 68.7 0 0 1 10.6 48.92q-.66 4-1.67 7.9c-.9 3.5 4.5 4.99 5.4 1.5Z" class="e"/><path d="M94.16 31.24c1.7 3.94 5.78 6.66 9.16 9.03a19 19 0 0 1 4.1 3.18 4.3 4.3 0 0 1 .66 4.27c-.58 2.12-1.92 4-2.99 5.94q-2 3.64-3.73 7.42a109 109 0 0 0-5.84 15.5c-1.75 6.12-2.87 12.4-4.4 18.6-.88 3.5 4.52 4.98 5.4 1.48 1.4-5.64 2.45-11.36 3.95-16.98a100 100 0 0 1 5.72-15.78q1.73-3.78 3.73-7.42a38 38 0 0 0 3.46-6.94 10.7 10.7 0 0 0 .03-6.62 12 12 0 0 0-4.76-5.73c-3.4-2.47-7.98-4.89-9.66-8.78-.6-1.39-2.63-1.7-3.83-1a2.87 2.87 0 0 0-1 3.83m110.67-2.82c-1.5 3.48-5.41 5.8-8.53 7.98-1.94 1.35-3.9 2.72-5.1 4.8a10 10 0 0 0-1.1 6.86 19 19 0 0 0 2.67 6.41q2.13 3.7 3.98 7.55a101 101 0 0 1 6.02 15.58c1.83 6.28 2.97 12.72 4.54 19.06.87 3.5 6.27 2.01 5.4-1.5-1.36-5.48-2.4-11.04-3.84-16.5a107 107 0 0 0-5.55-15.68q-1.62-3.7-3.5-7.3c-1.18-2.26-2.74-4.44-3.7-6.81a6 6 0 0 1-.38-4.27c.59-1.52 2.16-2.51 3.52-3.46 3.76-2.63 8.5-5.5 10.4-9.9a2.9 2.9 0 0 0-1-3.83c-1.18-.7-3.23-.4-3.83 1Z" class="e"/><path d="M95.8 93.93a12.7 12.7 0 0 0-14.29-1.82c-3.32 1.71-5.2 5.13-6.01 8.66a32.6 32.6 0 0 0 5.06 24.98c3.49 5.06 8.5 8.8 14.9 7.89 1.5-.21 2.32-2.12 1.96-3.44a2.9 2.9 0 0 0-3.45-1.96c-3.46.5-6.52-2.44-8.36-5a30 30 0 0 1-4.04-8.4 25 25 0 0 1-1.05-10.3 15 15 0 0 1 1.12-4.68c-.1.23.26-.5.31-.6l.34-.56c.37-.6-.15.09.15-.22l.62-.67.37-.32c-.23.19-.11.08.06-.04a7 7 0 0 1 1.12-.63 9 9 0 0 1 2.18-.5 6.5 6.5 0 0 1 5.04 1.57c2.66 2.42 6.63-1.52 3.96-3.96Zm116.74 3.96a7 7 0 0 1 8.34-.44c.38.25-.06-.13.34.28l.57.58.27.33c-.06-.08-.3-.49-.08-.1.1.2.25.4.36.6a13 13 0 0 1 1.37 4.33c1.04 6.4-.8 13.19-4.13 18.52-1.87 3.01-5.2 6.82-9.18 6.25a2.9 2.9 0 0 0-3.45 1.96c-.36 1.3.45 3.22 1.96 3.44 10.5 1.5 16.55-8.9 19.34-17.47a30 30 0 0 0 .92-13.83c-.58-3.75-2.1-7.3-5.24-9.57-4.57-3.3-11.3-2.54-15.35 1.16-2.67 2.44 1.3 6.39 3.96 3.96" class="e"/><path d="M207.31 125.79a56 56 0 0 1-2.17 7.53c-.7 1.94-1.2 2.76-1.85 4.62-.11.34.33-.7.1-.21l-.16.34-.31.67q-.45.94-.95 1.87a76 76 0 0 1-2.33 4.07 72 72 0 0 1-15.61 18.5 29 29 0 0 1-11.7 6.09c-3.52.8-2.03 6.2 1.48 5.4 8.87-2.03 16.25-8.55 22.02-15.28a79 79 0 0 0 12.27-18.56l.8-1.92c-.35.86-.03.1.04-.05l.5-1.15q.35-.86.68-1.73a57 57 0 0 0 2.6-8.7 2.87 2.87 0 0 0-1.96-3.45 2.83 2.83 0 0 0-3.44 1.96Zm-115.82 1.28a73 73 0 0 0 10.37 24.31c5.28 7.92 12.22 15.33 20.63 19.95a41 41 0 0 0 13.65 4.62 2.9 2.9 0 0 0 3.44-1.95c.36-1.32-.45-3.22-1.96-3.44a39 39 0 0 1-20.86-10.28 66 66 0 0 1-16.03-22.7 69 69 0 0 1-3.84-12c-.8-3.51-6.2-2.03-5.4 1.49m49.95 18a23.6 23.6 0 0 0 11.36 2.62c4.06-.03 8.18-.82 11.44-3.36 1.19-.93.97-2.98 0-3.96a2.87 2.87 0 0 0-3.96 0c.84-.65.15-.13-.07.01s-.47.29-.7.41c-.2.1-1.04.45-.3.17q-.49.19-.99.36a17 17 0 0 1-2.73.62c.39-.06-.18.02-.3.03a24 24 0 0 1-2.76.12q-.87 0-1.74-.06l-.8-.07s-.93-.12-.43-.05a19 19 0 0 1-2.55-.56l-1.06-.36-.34-.13c.7.2.24.1.05.01q-.66-.3-1.3-.64a2.86 2.86 0 0 0-3.83 1 2.83 2.83 0 0 0 1 3.83Zm8.7-26.89a54 54 0 0 1 1.27 5.79l-.1-.75a4 4 0 0 1 .02.8l.1-.74-.09.36.29-.67-.13.23.44-.57-.2.2.58-.45-.46.25.67-.29a3 3 0 0 1-.78.23l.75-.1a3 3 0 0 1-.73 0l.75.1-.82-.14a3 3 0 0 0-2.16.28 2.8 2.8 0 0 0-1 3.83 2.7 2.7 0 0 0 1.67 1.29c.61.08 1.2.23 1.82.26a6 6 0 0 0 2.65-.63 3.8 3.8 0 0 0 2.12-2.5 6 6 0 0 0-.03-2.72 64 64 0 0 0-1.22-5.55 2.8 2.8 0 1 0-5.4 1.5Zm-29.45-16.35c-.96 3.14-.33 10.37 5.62 10.99 7.86-.05 8.28-8.79 5.63-12.9-2.17-3.36-8.54-4.76-11.25 1.91m62.99 0c.96 3.14.33 10.37-5.62 10.99-7.86-.05-8.28-8.79-5.63-12.9 2.17-3.36 8.54-4.76 11.25 1.91m-14.2 38.56q.62 1.18 1.13 2.43l-.28-.67a58 58 0 0 1 2.05 5.64 2.8 2.8 0 1 0 5.4-1.49q-.7-2.26-1.58-4.48a38 38 0 0 0-1.9-4.26 2.83 2.83 0 0 0-3.83-1 2.86 2.86 0 0 0-1 3.84Zm-38.49-3.3a40 40 0 0 0-1.99 4.47 62 62 0 0 0-1.67 4.74 2.83 2.83 0 0 0 1.95 3.45 2.86 2.86 0 0 0 3.45-1.96 62 62 0 0 1 2.17-5.97l-.28.66q.54-1.32 1.2-2.57a2.8 2.8 0 1 0-4.83-2.82" class="e"/><path d="M145.42 114.47a22.7 22.7 0 0 0 3.07-15.71 15.7 15.7 0 0 0-8.47-11.23A38 38 0 0 0 124 84.38c-5.08.04-10.55.7-15 3.3a18.6 18.6 0 0 0-8.66 10.76 21 21 0 0 0 .71 12.28c3.09 8.5 10.69 13.77 19.55 14.69a30.5 30.5 0 0 0 13.92-1.53 23 23 0 0 0 10.9-9.41c1.94-3.05-2.9-5.86-4.83-2.83a17 17 0 0 1-6.99 6.57 22 22 0 0 1-9.14 1.74 22 22 0 0 1-10.28-2.07 16 16 0 0 1-6.59-6.27 17 17 0 0 1-2.22-8.63 11.6 11.6 0 0 1 4.09-8.76c2.84-2.57 6.45-3.56 10.19-3.98a38 38 0 0 1 13.56.82c3.9 1.02 8.1 2.89 9.4 7.13a16.6 16.6 0 0 1-2.02 13.45c-1.89 3.08 2.95 5.9 4.83 2.83m18.35-2.83a16.7 16.7 0 0 1-2.43-11.81 10.4 10.4 0 0 1 6.5-7.72 35 35 0 0 1 13.4-2.12c3.96.12 8.18.6 11.61 2.71a12.5 12.5 0 0 1 5.97 8.08 16 16 0 0 1-1.13 9.03c.1-.27-.3.64-.35.72q-.23.48-.5.95-.3.53-.63 1.05l-.35.5c-.03.05-.38.52-.2.3a17 17 0 0 1-3.28 3.2 18.3 18.3 0 0 1-9.57 3.36 25.6 25.6 0 0 1-11.34-1.36 16 16 0 0 1-1.9-.96 12 12 0 0 1-1.93-1.36 20 20 0 0 1-3.87-4.57c-1.93-3.03-6.78-.23-4.83 2.83a23 23 0 0 0 9.26 8.7 28 28 0 0 0 12.23 2.38 26.5 26.5 0 0 0 13.15-3.14 21.6 21.6 0 0 0 8.46-8.78 22.7 22.7 0 0 0 2.5-11.75 17 17 0 0 0-6.23-12.1c-4.1-3.4-8.82-4.65-14.03-5.19a41 41 0 0 0-16.09 1.49 19 19 0 0 0-7.29 3.81 15.3 15.3 0 0 0-4.61 7.02 22.2 22.2 0 0 0 2.65 17.56c1.87 3.07 6.72.26 4.83-2.83" class="e"/><path d="M146.03 102.96h12.3a2.8 2.8 0 0 0 0-5.6h-12.3a2.8 2.8 0 1 0 0 5.6m33.17 66.16c.41 4.13.82 8.68 2.75 12.43a11.4 11.4 0 0 0 3.79 4.18c.9.61 2.03.83 2.93 1.4-.26-.16-.7-.3-.22-.08l.4.17 1.25.53 3.07 1.32 6.98 3c1.64.7 3.27 1.47 4.93 2.1a2.8 2.8 0 0 0 3.45-1.95 2.86 2.86 0 0 0-1.96-3.45l-.29-.12c-.5-.2.62.27.26.11l-.44-.19-2.35-1-6.44-2.76-5.57-2.39c-1.64-.7-3.16-1.24-4.24-2.53l-.1-.14-.33-.5a14 14 0 0 1-.51-1 18 18 0 0 1-.67-2.25 53 53 0 0 1-1.09-6.87 2.9 2.9 0 0 0-2.8-2.8 2.8 2.8 0 0 0-2.8 2.8Z" class="e"/><path d="M41.73 228.6c-9.71 15.34-14.65 32.86-19.02 52.36 39.44-6.48 90.64-9.62 131.08-9.62 40.2 0 91 3.1 130.34 9.5-4.56-20.3-9.73-38.46-20.3-54.25-12.92-19.3-33.8-28.73-55.15-35.58l-8.3-2.45h-2.56a6.4 6.4 0 0 1-.3 2.72 156 156 0 0 1-11.68 17.2l-19.07-.21c-3.91-5.24-8.24-10.89-11-14h-4.67c-2.77 3.11-7.1 8.76-11 14l-19.07.21a156 156 0 0 1-11.67-17.2 6.4 6.4 0 0 1-.3-2.72h-2.56L98.18 191c-21.35 6.85-42.23 16.28-55.15 35.59q-.66 1-1.3 2.01" style="fill:#b29683"/><path d="M121.91 169.34c-.3 2.95-.68 6.9-2.01 9.33a6 6 0 0 1-2.25 2.5c-.14.08-1.2.63-.87.47l-.06.03-1.19.5-9.73 4.09c-2.64 1.1-5.28 2.4-8 3.29a2.86 2.86 0 0 0-1.96 3.44 2.83 2.83 0 0 0 3.45 1.96c3-1 5.92-2.42 8.85-3.65l9.88-4.15c3-1.26 5.5-3.06 6.92-6.09 1.7-3.6 2.16-7.8 2.57-11.71a2.8 2.8 0 0 0-2.8-2.8 2.86 2.86 0 0 0-2.8 2.8Z" class="e"/><path d="M26.13 278.53c4.29-18.55 9.67-37.63 21.17-53.14 10.42-14.05 26.33-22.6 42.43-28.53a278 278 0 0 1 17.5-5.6c3.46-1.02 1.99-6.42-1.48-5.4-13.76 4.05-27.48 8.57-39.88 15.95A80 80 0 0 0 45.1 219.2c-6.23 7.54-10.86 16.25-14.57 25.27-4.32 10.5-7.23 21.52-9.79 32.57-.8 3.5 4.6 5 5.4 1.49" class="e"/><path d="M52.05 134.5q-8.2-9.06-16.45-18.37l-4.7 34.53c39.43 38.95 83.97 85.9 130.9 122.63a723 723 0 0 1 31.45.19C151.08 238 102.3 189.99 52.05 134.5" class="f"/><path d="M33.62 118.1q31.5 35.58 64.59 69.72c19.82 20.37 40.1 40.3 61.07 59.5q15.6 14.29 31.76 27.95a2.9 2.9 0 0 0 3.96 0 2.8 2.8 0 0 0 0-3.96 1136 1136 0 0 1-58-52.68q-32.33-31.28-62.92-64.29-18.51-19.86-36.5-40.2a2.8 2.8 0 1 0-3.96 3.96m-4.7 34.53c16.24 16.05 32.25 32.31 48.5 48.34 16.96 16.73 34.17 33.23 52.04 48.98 9.95 8.77 20.1 17.3 30.55 25.46a2.9 2.9 0 0 0 3.96 0c.97-.97 1.2-3.02 0-3.96-18.73-14.65-36.54-30.44-53.87-46.72-17.18-16.13-33.88-32.76-50.53-49.43q-13.32-13.33-26.69-26.62c-2.57-2.54-6.53 1.42-3.96 3.95m257.21 124.4c-4.4-19.07-10.03-38.9-21.96-54.79-11.21-14.93-27.58-24.1-44.8-30.51-6-2.24-12.1-4.06-18.24-5.87-3.47-1.02-4.95 4.38-1.5 5.4 13.2 3.88 26.3 8.16 38.21 15.19A75 75 0 0 1 257.7 223c5.8 6.98 10.17 15.32 13.56 23.71 4.15 10.28 6.98 21.03 9.47 31.8.81 3.51 6.22 2.03 5.4-1.49Z" class="e"/><path d="M104.54 188.56c11.3 7.62 29.98 16.23 50.49 16.28 18.51.05 39.63-7.9 48.68-15.31" style="fill:none"/><path d="M121.25 170.86c-3.07 3.43-6.84 8.45-9.84 11.92-1.77 2.05-3.06 5.8-2.06 8.5 1.15 2.3 13.88 22.71 22.45 28.2 2.71-3.6 13.93-19.18 19.3-25.22a3248 3248 0 0 1-29.85-23.4m64.37 0c3.07 3.43 6.84 8.45 9.84 11.92 1.76 2.05 3.06 5.8 2.06 8.5-1.15 2.3-13.88 22.71-22.45 28.2-2.71-3.6-13.93-19.18-19.3-25.22a3248 3248 0 0 0 29.85-23.4" class="f"/><path d="M142.51 209.68c3.4-4.56 6.8-9.17 10.57-13.43a2.85 2.85 0 0 0-.57-4.4q-.64-.47-1.26-.96l-.5-.38c-.32-.25.53.41 0 0l-1.4-1.1q-3.52-2.73-7.03-5.49-7.57-5.94-15.12-11.9-2-1.56-3.97-3.14a2.85 2.85 0 0 0-3.96 0c-2.32 2.62-4.48 5.38-6.68 8.1-2.17 2.7-4.67 5.15-5.78 8.5a9.8 9.8 0 0 0 .66 8.17c1.26 2.15 2.63 4.25 4.01 6.33q3.59 5.38 7.57 10.48c.93 1.2 2.98.98 3.96 0a2.87 2.87 0 0 0 0-3.96c-2.6-3.32-5-6.78-7.32-10.3a48 48 0 0 1-3.86-6.22c.18.39.01.1.01-.07a11 11 0 0 1 0-1.46 8 8 0 0 1 .5-1.87 17 17 0 0 1 3.04-4.2c2.6-3.19 5.11-6.46 7.85-9.55h-3.96c8.44 6.82 17.04 13.46 25.6 20.13 1.6 1.25 3.17 2.54 4.82 3.72l-.57-4.4c-4.08 4.62-7.75 9.63-11.44 14.56a2.8 2.8 0 0 0 1 3.84 2.87 2.87 0 0 0 3.83-1" class="e"/><path d="M169.2 206.86c-3.7-4.94-7.36-9.95-11.45-14.57l-.57 4.4c3.82-2.73 7.44-5.75 11.13-8.64l15.25-12 4.04-3.2h-3.96c2.74 3.08 5.25 6.36 7.86 9.55 1.15 1.4 2.37 2.52 3.03 4.2a8 8 0 0 1 .5 1.86 11 11 0 0 1 0 1.46c0 .17-.16.46.01.07a48 48 0 0 1-3.85 6.22 159 159 0 0 1-7.32 10.3 2.9 2.9 0 0 0 0 3.96c.96.97 3.02 1.2 3.96 0a162 162 0 0 0 11.22-16.22 15 15 0 0 0 1.03-1.88 9.7 9.7 0 0 0 .32-5.58c-.69-3.53-3.01-5.98-5.2-8.67-2.52-3.09-4.95-6.25-7.6-9.23a2.86 2.86 0 0 0-3.96 0c-8.36 6.76-16.88 13.34-25.36 19.95q-.8.61-1.58 1.23l-.7.53.23-.17-.37.29-1.5 1.14a2.85 2.85 0 0 0-.56 4.4c3.77 4.26 7.16 8.87 10.56 13.43a2.9 2.9 0 0 0 3.83 1 2.8 2.8 0 0 0 1-3.83Z" class="e"/><path d="M229.3 289.99c0-40.5-30.84-74.6-75.07-74.6-44.38 0-75.06 34.37-75.06 74.6l-20.87-.2c0-51.41 39.21-95.35 95.94-95.35 56.53 0 95.95 43.59 95.95 95.35Z" style="fill:#7a7473"/><path d="M252.98 289.8a100 100 0 0 0-17.15-56.3 96 96 0 0 0-46.32-35.83 105.4 105.4 0 0 0-63.59-2.22 95.7 95.7 0 0 0-48.95 32.3 99.7 99.7 0 0 0-21.2 54.73q-.27 3.65-.27 7.32c0 3.6 5.6 3.6 5.6 0a94.5 94.5 0 0 1 16.24-53.2 90 90 0 0 1 43.35-33.6 100 100 0 0 1 60.3-2.18 90.4 90.4 0 0 1 46.3 30.5 93.6 93.6 0 0 1 19.83 51.1q.27 3.69.26 7.38c.01 3.6 5.61 3.6 5.6 0" class="e"/><path d="M232.1 289.99a79 79 0 0 0-13.52-44.39 76 76 0 0 0-36.6-28.28 83 83 0 0 0-50.11-1.72 75.4 75.4 0 0 0-38.48 25.36 78.7 78.7 0 0 0-16.8 43.2 81 81 0 0 0-.21 5.83c-.01 3.6 5.59 3.6 5.6 0A73.3 73.3 0 0 1 94.5 248.8a70 70 0 0 1 33.57-26.1 77.7 77.7 0 0 1 46.82-1.77 70 70 0 0 1 36.08 23.75 72.7 72.7 0 0 1 15.32 39.62q.2 2.85.2 5.7c0 3.6 5.6 3.6 5.6 0Z" class="e"/><path d="M210.34 255.04a8.8 8.8 0 0 0-9.5 1.71c-1.61 1.9-2.45 5.75-2.1 8.22a35 35 0 0 0 3.95 11.24 10.6 10.6 0 0 0 8.24 5.32s10.76 2.24 14.75-2.47.45-15.38-1.72-17.01-13.62-7.01-13.62-7.01" class="f"/><path d="M211.08 252.34c-3.82-1.56-9.11-.82-12.05 2.25-2.73 2.85-3.53 7.53-2.95 11.3a34 34 0 0 0 4.3 11.9 13.8 13.8 0 0 0 10.55 6.54 2.8 2.8 0 0 0 2.8-2.8 2.87 2.87 0 0 0-2.8-2.8c-6-.67-8.24-8.21-9.25-13.22a9.2 9.2 0 0 1 1.23-6.88c-.22.29.26-.25.26-.26.52-.49-.31.16.36-.26a6 6 0 0 1 1.53-.69 6.6 6.6 0 0 1 4.54.32c1.4.57 3.08-.62 3.44-1.96a2.87 2.87 0 0 0-1.95-3.44Z" class="e"/><path d="M243.35 238.47c-11.21-4-26.88 1.2-32.94 11.82-2.32 4.07-2.28 10.76 4.08 12.38-4.02 3.66-4.42 8.35-2.17 11.94 1.07 1.7 3.68 2.5 5.62 2.57a13 13 0 0 0 3.16-.3l-.28.3a7.7 7.7 0 0 0-1.73 7.04 8.8 8.8 0 0 0 3.6 5.85c2.64 1.63 7.23.85 9.57-.36l.47-.24-.58.7c-2.15 2.61.44 7.58 2.38 8.86 5.61 3.71 12.13.37 18.48-2.67 4.9-2.35 9.49-7.17 10.82-11.82 1.08-3.74 1.54-6.52 1.06-13-.85-11.54-5.6-21.94-16.33-30.26a19 19 0 0 0-5.21-2.81" class="f"/><path d="M211.88 261.3c-3.03 3.26-4.66 7.8-3.16 12.17a9 9 0 0 0 3.6 4.9 11.5 11.5 0 0 0 6.07 1.61c4.7-.01 8.8-2.46 12.9-4.44 4.13-1.98 8.28-3.93 12.35-6.03 3.2-1.65.37-6.48-2.83-4.83-3.29 1.7-6.62 3.28-9.96 4.88-3.16 1.52-6.36 3.51-9.76 4.43a9 9 0 0 1-4.37.2 3 3 0 0 1-2.48-1.92c-1.04-2.35-.3-4.96 1.6-7.01 2.45-2.64-1.5-6.6-3.96-3.96" class="e"/><path d="M218.84 275.2c-3.19 3.65-3.41 8.44-1.45 12.76a9.8 9.8 0 0 0 9.84 5.82c4.26-.23 7.75-2.36 11.51-4.13a119 119 0 0 0 11.79-5.94c3.07-1.88.26-6.73-2.83-4.83a94 94 0 0 1-9.39 4.81q-2.59 1.2-5.16 2.45l-2.42 1.2q-.26.13.02.01-.28.12-.57.22-.45.16-.94.28c-2.42.62-4.86.7-6.29-1.38-1.48-2.16-1.98-5.21-.15-7.31a2.87 2.87 0 0 0 0-3.96 2.83 2.83 0 0 0-3.96 0" class="e"/><path d="M229.73 288.76c-2.01 2.69-1.18 6.5.32 9.22a10.5 10.5 0 0 0 7.8 5.3c4.09.63 7.97-.64 11.7-2.23a39 39 0 0 0 9.97-5.65 22.5 22.5 0 0 0 6.4-8.44 27 27 0 0 0 1.83-7.88 47 47 0 0 0-2.3-19.17 43 43 0 0 0-10.4-16.64c-4.3-4.29-9.13-7.63-15.22-8.55-11.14-1.7-23.39 2.73-30.26 11.79a15.4 15.4 0 0 0-3.35 8.54c-.18 3.53 1.42 7.46 4.7 9.14 3.56 1.83 7.02.14 10.26-1.52 3.55-1.8 7.18-3.45 10.76-5.17q2.33-1.11 4.62-2.27c3.2-1.64.38-6.47-2.83-4.84-2.87 1.47-5.79 2.83-8.7 4.22-2.93 1.4-5.8 3-8.78 4.28-.9.4-1.97.79-2.68.4a3.7 3.7 0 0 1-1.62-2.4 8 8 0 0 1 1.42-6.09 23.4 23.4 0 0 1 9.87-8.2 28 28 0 0 1 12.83-2.66 20 20 0 0 1 6.15 1.1 17 17 0 0 1 5.2 2.9 40 40 0 0 1 10.84 13.16 40 40 0 0 1 3.86 14.92q.15 2.06.16 4.12a32 32 0 0 1-.12 2.78c-.01.1-.12 1.05-.05.55a16.9 16.9 0 0 1-8.1 13.1 40 40 0 0 1-9.8 4.55 12.5 12.5 0 0 1-5.02.72 7 7 0 0 1-2.01-.52q-.44-.21-.86-.47c-.94-.52.08.24-.33-.22a7 7 0 0 1-1.59-2.58c-.38-1.2-.42-1.7.17-2.47a2.8 2.8 0 0 0-1-3.83 2.87 2.87 0 0 0-3.83 1Z" class="e"/><path d="M96.53 255.04a8.8 8.8 0 0 1 9.5 1.71c1.61 1.9 2.44 5.75 2.1 8.22a35 35 0 0 1-3.95 11.24 10.6 10.6 0 0 1-8.24 5.32s-10.77 2.24-14.75-2.47-.45-15.38 1.72-17.01 13.62-7.01 13.62-7.01" class="f"/><path d="M97.27 257.74a6.5 6.5 0 0 1 4.36-.37 6 6 0 0 1 1.71.74c.43.27 0-.08.36.26.05.05.48.56.27.27a9.2 9.2 0 0 1 1.22 6.87c-1 5.01-3.25 12.55-9.25 13.22a2.9 2.9 0 0 0-2.8 2.8 2.8 2.8 0 0 0 2.8 2.8 13.8 13.8 0 0 0 10.46-6.39 33 33 0 0 0 4.4-12.05c.57-3.72-.2-8.38-2.88-11.21-2.95-3.13-8.25-3.93-12.14-2.34a2.9 2.9 0 0 0-1.95 3.44c.36 1.33 2.03 2.53 3.44 1.96" class="e"/><path d="M63.52 238.47c11.2-4 26.88 1.2 32.94 11.82 2.32 4.07 2.27 10.76-4.08 12.38 4.02 3.66 4.42 8.35 2.17 11.94-1.07 1.7-3.68 2.5-5.62 2.57a13 13 0 0 1-3.16-.3l.28.3a7.7 7.7 0 0 1 1.73 7.04 8.8 8.8 0 0 1-3.6 5.85c-2.64 1.63-7.23.85-9.57-.36l-.47-.24.58.7c2.15 2.61-.44 7.58-2.38 8.86-5.61 3.71-12.13.37-18.48-2.67-4.9-2.35-9.49-7.17-10.82-11.82-1.08-3.74-1.54-6.52-1.06-13 .85-11.54 5.6-21.94 16.33-30.26a19 19 0 0 1 5.21-2.81" class="f"/><path d="M91.03 265.26c1.9 2.05 2.65 4.66 1.6 7.02a3 3 0 0 1-2.48 1.91 9 9 0 0 1-4.36-.19c-3.4-.93-6.6-2.91-9.77-4.43-3.33-1.6-6.67-3.2-9.96-4.89-3.2-1.64-6.03 3.19-2.82 4.84 4.07 2.1 8.22 4.04 12.34 6.03 4.1 1.97 8.2 4.42 12.9 4.44a11.5 11.5 0 0 0 6.08-1.61 9 9 0 0 0 3.59-4.9c1.5-4.37-.13-8.91-3.16-12.17-2.45-2.65-6.4 1.32-3.96 3.96Z" class="e"/><path d="M84.07 279.16c1.84 2.1 1.32 5.13-.15 7.31a3.4 3.4 0 0 1-2.6 1.67 10 10 0 0 1-3.7-.3q-.47-.12-.93-.28c-.03 0-.85-.35-.43-.16-.86-.39-1.7-.85-2.54-1.27q-2.57-1.23-5.16-2.44a94 94 0 0 1-9.4-4.82c-3.08-1.89-5.9 2.95-2.82 4.84a120 120 0 0 0 11.78 5.93c3.77 1.78 7.25 3.9 11.52 4.13a9.8 9.8 0 0 0 9.84-5.82c1.96-4.31 1.73-9.1-1.45-12.75a2.8 2.8 0 1 0-3.96 3.96" class="e"/><path d="M72.3 291.58s.48.8.29.35c.01.03.18.9.13.4a3 3 0 0 1-.08 1.1 7 7 0 0 1-.51 1.44l-.3.55c-.06.1-.66.94-.41.64-.16.19-1.03.91-.5.55a7 7 0 0 1-2 .97 9 9 0 0 1-3.76.16c-3.33-.53-6.45-2.15-9.46-3.6a22 22 0 0 1-7.01-5.26 15 15 0 0 1-3.33-6.45 22 22 0 0 1-.77-6.1 45 45 0 0 1 2.66-16.12 37 37 0 0 1 8.82-13.27 28 28 0 0 1 6.06-4.8 18 18 0 0 1 5.96-1.96 27 27 0 0 1 12.85 1.33 26 26 0 0 1 10.9 7.1 12.3 12.3 0 0 1 3.17 5.92 5.4 5.4 0 0 1-.49 3.43 2.5 2.5 0 0 1-2.13 1.48c-1.5-.16-2.92-1.13-4.23-1.79q-2.51-1.25-5.05-2.44c-3.33-1.59-6.68-3.15-9.97-4.82-3.2-1.63-6.04 3.2-2.82 4.83 3.28 1.68 6.64 3.23 9.97 4.82q2.7 1.29 5.4 2.63a24 24 0 0 0 4.7 2.05 7.9 7.9 0 0 0 9.27-4.55 12.5 12.5 0 0 0-.26-10.24c-2.2-5-6.97-9.02-11.69-11.54a34 34 0 0 0-16.46-4.06 25 25 0 0 0-15.42 5.38 44 44 0 0 0-12.6 15.7 49 49 0 0 0-4.22 19.22c-.18 5.95.9 12.05 4.6 16.85a25 25 0 0 0 8.31 7.03 47 47 0 0 0 11.13 4.51c3.68.8 7.71.56 10.87-1.69a11.4 11.4 0 0 0 4.38-8.09 6.7 6.7 0 0 0-1.16-4.48 2.9 2.9 0 0 0-3.83-1 2.8 2.8 0 0 0-1 3.83Z" class="e"/><path d="M304.83 299.6v-14.84c-40.68-9.06-103.34-13.42-151.04-13.42S43.44 275.7 2.75 284.76v23.59a4 4 0 0 0 4 4h294.08a4 4 0 0 0 4-4Z" class="f"/><path d="M305.58 282.06c-18.44-4.1-37.24-6.6-56.01-8.56a931 931 0 0 0-62.67-4.33q-29.38-1.08-58.77-.25-31.35.92-62.61 3.83a557 557 0 0 0-57.55 8.05q-2.99.6-5.96 1.26c-3.52.78-2.03 6.18 1.49 5.4a485 485 0 0 1 55.01-8.41 932 932 0 0 1 62.17-4.28q29.38-1.08 58.77-.25 30.98.9 61.86 3.76a545 545 0 0 1 56.82 7.92q2.99.6 5.96 1.26c3.5.78 5-4.62 1.49-5.4" class="e"/></svg>
