<svg xmlns="http://www.w3.org/2000/svg" fill="none" viewBox="0 0 24 24"><path fill="currentColor" fill-rule="evenodd" d="M13.98 2.98a4 4 0 0 0-3.96 0L7.6 4.36 5.16 5.77A4 4 0 0 0 3.2 9.2L3.18 12l.02 2.8a4 4 0 0 0 1.97 3.43l2.41 1.4.01.01 2.43 1.38a4 4 0 0 0 3.96 0l2.43-1.38 2.41-1.41a4 4 0 0 0 1.98-3.43l.02-2.8-.02-2.8a4 4 0 0 0-1.98-3.43l-2.4-1.4-.01-.01zM11 4.7a2 2 0 0 1 1.98 0l2.42 1.38 2.4 1.41a2 2 0 0 1 1 1.71l.01 2.79-.02 2.79a2 2 0 0 1-.99 1.71l-2.4 1.4L13 19.3a2 2 0 0 1-1.98 0l-2.43-1.4-2.4-1.41a2 2 0 0 1-1-1.71V12l.02-2.79A2 2 0 0 1 6.2 7.5l2.4-1.4zm0 7.3a1 1 0 1 1 2 0 1 1 0 0 1-2 0m1-3a3 3 0 1 0 0 6 3 3 0 0 0 0-6" clip-rule="evenodd"/></svg>
