<svg xmlns="http://www.w3.org/2000/svg" fill="none" viewBox="0 0 24 24"><path fill="currentColor" fill-rule="evenodd" d="m10.65 3-.72.53-.6 2.02-1.85-1-.89.13L4.7 6.6l-.14.89 1 1.85-2.02.6-.53.72v2.7l.53.72 2.02.6-1 1.85.13.89 1.91 1.9.89.14 1.85-1 .6 2.02.72.53h2.7l.72-.53.6-2.02 1.85 1 .89-.13 1.9-1.91.14-.89-1-1.85 2.02-.6.53-.72v-2.7l-.53-.72-2.02-.6 1-1.85-.13-.89-1.91-1.9-.89-.14-1.85 1-.6-2.02-.72-.53zm-.18 3.96.74-2.46h1.58l.74 2.46.35.13.26.12.34.15 2.26-1.22 1.12 1.12-1.22 2.26.15.34.12.26.13.35 2.46.74v1.58l-2.46.74-.13.35-.12.26-.15.34 1.22 2.26-1.12 1.12-2.26-1.22-.34.15-.26.12-.35.13-.74 2.46h-1.58l-.74-2.46-.35-.13-.26-.12-.34-.15-2.26 1.22-1.12-1.12 1.22-2.26-.15-.34-.12-.26-.13-.35-2.46-.74v-1.58l2.46-.74.13-.35.12-.26.15-.34-1.22-2.26 1.12-1.12 2.26 1.22.34-.15.26-.12zM14.25 12a2.25 2.25 0 1 1-4.5 0 2.25 2.25 0 0 1 4.5 0m1.5 0a3.75 3.75 0 1 1-7.5 0 3.75 3.75 0 0 1 7.5 0" clip-rule="evenodd"/></svg>
