<svg xmlns="http://www.w3.org/2000/svg" fill="currentColor" viewBox="0 0 32 32"><path d="M18 11.5V22a1 1 0 0 0 1 1h4a1 1 0 0 0 1-1V11.5A9.5 9.5 0 0 0 14.5 2H1a1 1 0 0 0-1 1v26a1 1 0 0 0 1 1h4a1 1 0 0 0 1-1V8h8.5a3.5 3.5 0 0 1 3.5 3.5M5 6a1 1 0 0 0-1 1v21H2V4h12.5a7.5 7.5 0 0 1 7.5 7.5V21h-2v-9.5A5.5 5.5 0 0 0 14.5 6Z"/><path d="M31 2h-4a1 1 0 0 0-1 1v21h-8.5a3.5 3.5 0 0 1-3.5-3.5V10a1 1 0 0 0-1-1H9a1 1 0 0 0-1 1v10.5a9.5 9.5 0 0 0 9.5 9.5H31a1 1 0 0 0 1-1V3a1 1 0 0 0-1-1m-1 26H17.5a7.5 7.5 0 0 1-7.5-7.5V11h2v9.5a5.5 5.5 0 0 0 5.5 5.5H27a1 1 0 0 0 1-1V4h2Z"/></svg>
