<svg xmlns="http://www.w3.org/2000/svg" fill="currentColor" viewBox="0 0 32 32"><path d="M28.37 4.51a2 2 0 0 0-1.5-.53c-.03 0-.35.02-.85.02-.83 0-2.46-.05-4-.43-1.99-.5-4.28-2.76-4.95-3.2a2 2 0 0 0-2.22 0c-.08.05-2.49 2.62-4.84 3.2a18 18 0 0 1-5.02.4 2 2 0 0 0-2 2v5c0 18.5 12.1 20.88 12.61 20.97a2 2 0 0 0 .7 0c.52-.1 12.7-2.47 12.7-20.96v-5a2 2 0 0 0-.63-1.47m-1.36 6.47c0 17.03-11.05 19-11.05 19S4.99 28 4.99 10.97v-5S5.37 6 6 6c1.04 0 2.8-.07 4.5-.49 2.77-.68 5.47-3.48 5.47-3.48s2.82 2.8 5.58 3.48c1.7.42 3.43.5 4.48.5.61 0 .99-.03.99-.03zm-6.77-.16a1 1 0 0 0-1.42 0L16 13.65l-2.83-2.83a1 1 0 0 0-1.41 1.41l2.83 2.83-2.83 2.83a1 1 0 0 0 1.41 1.42L16 16.48l2.83 2.83a1 1 0 0 0 1.42-1.42l-2.83-2.83 2.83-2.83a1 1 0 0 0 0-1.41z"/></svg>
