<svg xmlns="http://www.w3.org/2000/svg" fill="none" viewBox="0 0 24 24"><path stroke="currentColor" stroke-linecap="round" stroke-linejoin="round" stroke-width="1.5" d="M10.49 2.23 5.5 4.11a3.5 3.5 0 0 0-2.09 3.01v7.43c0 1.18.78 2.73 1.73 3.44l4.3 3.21a4.55 4.55 0 0 0 5.14 0l4.3-3.21a5 5 0 0 0 1.73-3.44V7.12c0-1.23-.94-2.59-2.09-3.02l-4.99-1.87a5 5 0 0 0-3.04 0"/><path stroke="currentColor" stroke-linecap="round" stroke-linejoin="round" stroke-miterlimit="10" stroke-width="1.5" d="M12 12.5a2 2 0 1 0 0-4 2 2 0 0 0 0 4m0 0v3"/></svg>
