<svg xmlns="http://www.w3.org/2000/svg" fill="none" viewBox="0 0 24 24"><path stroke="currentColor" stroke-linecap="round" stroke-linejoin="round" stroke-width="1.5" d="M20.42 12.37a2.1 2.1 0 0 1 1.21 2.29l-.41 1.86A6.74 6.74 0 0 1 14.38 22H9.62a6.74 6.74 0 0 1-6.84-5.48l-.41-1.86c-.2-.91.34-1.94 1.21-2.29L5 11.8l5.51-2.21a4 4 0 0 1 2.98 0L19 11.8zM12 22V10"/><path stroke="currentColor" stroke-linecap="round" stroke-linejoin="round" stroke-width="1.5" d="M19 8v3.8l-5.51-2.21a4 4 0 0 0-2.98 0L5 11.8V8a3 3 0 0 1 3-3h8a3 3 0 0 1 3 3m-4.5-3h-5V3a1 1 0 0 1 1-1h3a1 1 0 0 1 1 1z"/></svg>
