<svg xmlns="http://www.w3.org/2000/svg" fill="none" viewBox="0 0 24 24"><path fill="currentColor" fill-rule="evenodd" d="M15 3.75H9V6H6v4.94l-2.48.5 1.77 5.3 1.42-.48-1.23-3.7 5.77-1.15V15h1.5v-3.59l5.77 1.16-1.23 3.7 1.42.47 1.77-5.3-2.48-.5V6h-3zM13.5 6v-.75h-3V6zm3 1.5v3.14l-4.5-.9-4.5.9V7.5zM3 18.75l.2.72h.03a26 26 0 0 1 1.5-.36c.9-.19 1.96-.36 2.77-.36.78 0 1.37.16 2.05.35h.02c.68.19 1.44.4 2.43.4s1.75-.21 2.43-.4h.02a7 7 0 0 1 2.05-.35c.81 0 1.87.17 2.77.36a29 29 0 0 1 1.5.36h.03l.2-.72.2-.72h-.01l-.03-.01-.43-.11-1.16-.27c-.91-.19-2.1-.39-3.07-.39-1 0-1.75.21-2.43.4h-.02c-.68.19-1.27.35-2.05.35s-1.37-.16-2.05-.35h-.02a9 9 0 0 0-2.43-.4c-.97 0-2.16.2-3.07.4a31 31 0 0 0-1.6.37h-.02z" clip-rule="evenodd"/></svg>
