<svg xmlns="http://www.w3.org/2000/svg" fill="none" viewBox="0 0 24 24"><path fill="currentColor" fill-rule="evenodd" d="M7.96 1.25h8.08q.66-.01 1.16.04c.35.05.73.16 1.04.47.3.31.42.69.47 1.04q.05.5.04 1.16v.08q.01.66-.04 1.16c-.05.35-.16.73-.47 1.04-.31.3-.69.42-1.04.47q-.5.05-1.16.04h-1.29v2.16l1.43.36a.75.75 0 0 1-.36 1.46l-1.07-.27v1.95l1.43.36a.75.75 0 0 1-.36 1.46l-1.07-.27v.42a2.25 2.25 0 0 1-.32 4.33q.31.58.32 1.29a2.75 2.75 0 1 1-5.18-1.3 2.25 2.25 0 0 1-.32-4.32v-1.8l-1.43-.35a.75.75 0 0 1 .36-1.46l1.07.27V9.09l-1.43-.36a.75.75 0 0 1 .36-1.46l1.07.27v-.79H7.96q-.66.01-1.16-.04a1.7 1.7 0 0 1-1.04-.47c-.3-.31-.42-.69-.47-1.04q-.05-.5-.04-1.16v-.08q-.01-.66.04-1.16c.05-.35.16-.73.47-1.04.31-.3.69-.42 1.04-.47q.5-.05 1.16-.04m2.79 5.5v1.16l2.5.63V6.75zm2.5 3.34-2.5-.63v1.95l2.5.63zm0 3.5-2.5-.63v1.29h2.5zM12 18.75a1.25 1.25 0 1 0 0 2.5 1.25 1.25 0 0 0 0-2.5m2-1.5a.75.75 0 0 0 0-1.5h-4a.75.75 0 0 0 0 1.5zM6.82 2.82v.02L6.78 3c-.03.21-.03.5-.03 1a9 9 0 0 0 .07 1.17l.02.01.16.04c.21.03.5.03 1 .03h8a9 9 0 0 0 1.17-.07l.01-.02.04-.16c.03-.21.03-.5.03-1a9 9 0 0 0-.07-1.17l-.02-.01-.16-.04c-.21-.03-.5-.03-1-.03H8a9 9 0 0 0-1.17.07M3.7 7.48c.29-.3.76-.3 1.06-.01l.7.7A.75.75 0 1 1 4.4 9.23l-.7-.7a.75.75 0 0 1-.01-1.06m16.62 0c.3.29.29.76 0 1.05l-.71.7a.75.75 0 1 1-1.06-1.06l.71-.7c.3-.3.77-.3 1.06 0m-1.06 4.02c0-.41.34-.75.75-.75h2a.75.75 0 0 1 0 1.5h-2a.75.75 0 0 1-.75-.75m-18 0c0-.41.34-.75.75-.75h2a.75.75 0 0 1 0 1.5H2a.75.75 0 0 1-.75-.75m4.21 2.27c.3.3.3.77 0 1.06l-.71.7a.75.75 0 0 1-1.06-1.06l.71-.7c.3-.3.77-.3 1.06 0m13.08 0c.29-.3.76-.3 1.06 0l.7.7a.75.75 0 0 1-1.05 1.06l-.7-.7a.75.75 0 0 1-.01-1.06" clip-rule="evenodd"/></svg>
