<svg xmlns="http://www.w3.org/2000/svg" fill="none" viewBox="0 0 24 24"><path stroke="currentColor" stroke-width="1.5" d="M14 20a2 2 0 1 1-4 0 2 2 0 0 1 4 0Z"/><path stroke="currentColor" stroke-width="1.5" d="M6 4c0-.94 0-1.41.3-1.7C6.58 2 7.05 2 8 2h8c.94 0 1.41 0 1.7.3.3.29.3.76.3 1.7s0 1.41-.3 1.7c-.29.3-.76.3-1.7.3H8c-.94 0-1.41 0-1.7-.3C6 5.42 6 4.95 6 4Zm2.5 12.5c0-.83.67-1.5 1.5-1.5h4a1.5 1.5 0 0 1 0 3h-4a1.5 1.5 0 0 1-1.5-1.5Zm5.5-1v-10m-4 10V6"/><path stroke="currentColor" stroke-linecap="round" stroke-width="1.5" d="m8 8 8 2m-8 1.5 8 2m4-2h2m-18 0H2m17.07 2.8.7.7m-14.84-.7-.7.7m14.84-6.3.7-.7m-14.84.7-.7-.7"/></svg>
