<svg xmlns="http://www.w3.org/2000/svg" fill="none" viewBox="0 0 24 24"><path stroke="currentColor" stroke-linecap="round" stroke-linejoin="round" stroke-width="1.5" d="M3.01 11.22v4.49C3.01 20.2 4.81 22 9.3 22h5.39c4.49 0 6.29-1.8 6.29-6.29v-4.49"/><path stroke="currentColor" stroke-linecap="round" stroke-linejoin="round" stroke-width="1.5" d="M12 12a2.96 2.96 0 0 0 3-3.32L14.34 2H9.67L9 8.68A2.96 2.96 0 0 0 12 12"/><path stroke="currentColor" stroke-linecap="round" stroke-linejoin="round" stroke-width="1.5" d="M18.31 12c2.02 0 3.5-1.64 3.3-3.65l-.28-2.75C20.97 3 19.97 2 17.35 2H14.3l.7 7.01A3.4 3.4 0 0 0 18.31 12M5.64 12a3.4 3.4 0 0 0 3.3-2.99l.22-2.21.48-4.8H6.59C3.97 2 2.97 3 2.61 5.6l-.27 2.75A3.26 3.26 0 0 0 5.64 12M12 17q-2.5 0-2.5 2.5V22h5v-2.5q0-2.5-2.5-2.5"/></svg>
