<svg xmlns="http://www.w3.org/2000/svg" fill="none" viewBox="0 0 24 24"><path stroke="currentColor" stroke-linecap="round" stroke-linejoin="round" stroke-width="1.5" d="M21.01 11.22v4.49c0 4.49-1.79 6.29-6.29 6.29H9.33q-.87 0-1.6-.1m-4.69-6.38v-4.3m8.99.78a2.96 2.96 0 0 0 3-3.32L14.36 2H9.69l-.67 6.68A2.97 2.97 0 0 0 12.03 12"/><path stroke="currentColor" stroke-linecap="round" stroke-linejoin="round" stroke-width="1.5" d="M18.33 12c2.02 0 3.5-1.64 3.3-3.65l-.28-2.75C20.99 3 19.99 2 17.37 2h-3.05l.7 7.01A3.4 3.4 0 0 0 18.33 12M5.67 12a3.4 3.4 0 0 0 3.3-2.99l.22-2.21.48-4.8H6.62C4 2 3 3 2.64 5.6l-.28 2.75A3.26 3.26 0 0 0 5.67 12"/><path stroke="currentColor" stroke-linecap="round" stroke-linejoin="round" stroke-miterlimit="10" stroke-width="1.5" d="M9 19a4 4 0 0 1-1.37 3 3.94 3.94 0 0 1-5.66-.41l-.07-.08A4 4 0 0 1 1 19a3.97 3.97 0 0 1 4-4 4 4 0 0 1 2.93 1.28A4 4 0 0 1 9 19m-2.51-.02H3.51"/></svg>
