<svg xmlns="http://www.w3.org/2000/svg" fill="none" viewBox="0 0 24 24"><path fill="currentColor" fill-rule="evenodd" d="M7.44 1.25h9.12q.86-.01 1.46.04c.42.05.82.14 1.19.37s.63.54.86.9q.32.51.69 1.28l.02.04.02.06 1.4 3.54c.17.43.36.95.41 1.5.06.54-.02 1.17-.45 1.72q-.54.7-1.41.95v9.6H22a.75.75 0 0 1 0 1.5H2a.75.75 0 0 1 0-1.5h1.25v-9.6a3 3 0 0 1-1.41-.95 2.3 2.3 0 0 1-.45-1.73 6 6 0 0 1 .4-1.49l1.4-3.54.03-.06.02-.04q.37-.76.69-1.28c.23-.36.49-.67.86-.9s.77-.32 1.2-.37q.6-.05 1.45-.04M18 10.89q.52.54 1.25.76v9.6h-4v-2.78q0-.66-.03-1.13-.03-.5-.27-.96-.3-.53-.82-.83a2 2 0 0 0-.97-.27q-.46-.04-1.13-.03h-.06q-.66 0-1.13.03-.5.03-.96.27-.53.3-.83.82c-.18.31-.24.64-.27.97q-.04.46-.03 1.13v2.78h-4v-9.6q.73-.21 1.25-.76a2.74 2.74 0 0 0 4 0 2.74 2.74 0 0 0 4 0 2.74 2.74 0 0 0 4 0m-7.75 10.36h3.5V18.5q0-.7-.02-1.03a1 1 0 0 0-.08-.34 1 1 0 0 0-.28-.28 1 1 0 0 0-.34-.08c-.24-.02-.55-.02-1.03-.02q-.7 0-1.03.02a1 1 0 0 0-.35.08 1 1 0 0 0-.27.27 1 1 0 0 0-.08.35c-.02.24-.02.55-.02 1.03zM6.75 9a1.25 1.25 0 0 0 2.5 0 .75.75 0 0 1 1.5 0 1.25 1.25 0 0 0 2.5 0 .75.75 0 0 1 1.5 0 1.25 1.25 0 0 0 2.5 0 .75.75 0 0 1 1.5 0 1.25 1.25 0 0 0 2.23.77q.18-.2.14-.65a4 4 0 0 0-.3-1.08l-1.4-3.52q-.39-.8-.61-1.15a1 1 0 0 0-.39-.43 1 1 0 0 0-.56-.16q-.43-.04-1.33-.03H7.47c-.61 0-1.02 0-1.33.03-.3.03-.45.09-.56.16s-.23.17-.39.43-.34.61-.61 1.15l-1.4 3.52q-.24.6-.3 1.08-.04.45.14.65A1.25 1.25 0 0 0 5.25 9a.75.75 0 0 1 1.5 0" clip-rule="evenodd"/></svg>
