<svg xmlns="http://www.w3.org/2000/svg" fill="none" viewBox="0 0 24 24"><path fill="currentColor" fill-rule="evenodd" d="M7.44 1.25q-.86-.01-1.46.04a3 3 0 0 0-1.19.37q-.54.35-.86.9-.32.51-.69 1.28l-.02.04-.02.06-1.4 3.54a6 6 0 0 0-.41 1.5c-.06.54.02 1.17.45 1.72a2.75 2.75 0 0 0 4.16.2 2.74 2.74 0 0 0 4 0 2.74 2.74 0 0 0 4 0 2.74 2.74 0 0 0 4 0 2.74 2.74 0 0 0 4.16-.19c.43-.55.5-1.18.45-1.73a6 6 0 0 0-.4-1.49l-1.4-3.54-.03-.06-.02-.04q-.37-.76-.69-1.28a3 3 0 0 0-.86-.9 3 3 0 0 0-1.2-.37q-.6-.05-1.45-.04zm.56 9c-.69 0-1.25-.56-1.25-1.25a.75.75 0 0 0-1.5 0 1.25 1.25 0 0 1-2.23.77q-.18-.2-.14-.65.06-.49.3-1.08l1.4-3.52q.39-.8.61-1.15c.16-.26.28-.36.39-.43s.26-.13.56-.16.72-.03 1.33-.03h9.06c.61 0 1.02 0 1.33.03.3.03.45.09.56.16s.23.17.39.43.34.61.61 1.15l1.4 3.52q.24.6.3 1.08c.03.31-.02.5-.14.65A1.25 1.25 0 0 1 18.75 9a.75.75 0 1 0-1.5 0 1.25 1.25 0 1 1-2.5 0 .75.75 0 1 0-1.5 0 1.25 1.25 0 1 1-2.5 0 .75.75 0 1 0-1.5 0c0 .69-.56 1.25-1.25 1.25" clip-rule="evenodd"/><path fill="currentColor" d="M19.75 15a.75.75 0 0 0-1.5 0v6.25H5.75V15a.75.75 0 0 0-1.5 0v6.25H3a.75.75 0 0 0 0 1.5h18a.75.75 0 0 0 0-1.5h-1.25z"/></svg>
