<svg xmlns="http://www.w3.org/2000/svg" fill="currentColor" viewBox="0 0 32 32"><path d="M3.16 30.72h25.68c.41 0 .75-.34.75-.75V8.62a.76.76 0 0 0-.75-.75h-5.83V2.03a.76.76 0 0 0-.75-.75H9.63a.76.76 0 0 0-.75.75v5.84H3.16a.76.76 0 0 0-.75.75v21.35c0 .41.34.75.75.75m9.67-1.5V17.84h6.34v11.38zm15.26 0h-7.42V17.09a.76.76 0 0 0-.75-.75h-7.84a.76.76 0 0 0-.75.75v12.13H3.91V13.28h24.18zM10.38 2.78h11.13v5.09H10.38zM3.91 9.37h24.18v2.41H3.91z"/><path d="M5.44 24.22h4.25c.41 0 .75-.34.75-.75v-8.54a.76.76 0 0 0-.75-.75H5.44a.76.76 0 0 0-.75.75v8.54c0 .41.34.75.75.75m.75-8.54h2.75v7.04H6.19zm16.12 8.54h4.25c.41 0 .75-.34.75-.75v-8.54a.76.76 0 0 0-.75-.75h-4.25a.76.76 0 0 0-.75.75v8.54c0 .41.34.75.75.75m.75-8.54h2.75v7.04h-2.75zM12.44 5.43l.1-.07a.3.3 0 0 0 .09-.13.3.3 0 0 0 .04-.18 1 1 0 0 0-.08-.3 1 1 0 0 0-.23-.2 1 1 0 0 0-.4-.07h-.87s-.04 0-.05.02l-.02.05v1.86s0 .04.02.05l.05.02h.9q.24 0 .4-.07a1 1 0 0 0 .25-.21q.08-.14.08-.33 0-.16-.08-.27zm-.91-.58h.37q.12 0 .18.06t.06.15c0 .09-.02.11-.06.15q-.06.06-.18.06h-.37zm.59 1.19s-.1.07-.19.07h-.4v-.47h.4q.12 0 .18.07t.06.17-.06.16Zm2.09-.91L14 5.01q-.13-.04-.32-.04c-.19 0-.22.01-.3.04q-.12.05-.21.11l-.12.13-.04.12.01.04.05.02h.32s.05-.01.07-.04l.08-.09.13-.03q.12 0 .16.05t.04.16v.04l-.36.05q-.27.04-.44.16c-.17.12-.17.19-.17.32q0 .12.07.23l.19.16a1 1 0 0 0 .28.06q.1 0 .2-.03l.15-.07q.06-.04.1-.1v.1s0 .04.02.05l.05.02h.33s.04 0 .05-.02l.02-.05v-.87l-.04-.23-.12-.18Zm-.33.72q0 .12-.04.19t-.11.11l-.15.04q-.06 0-.1-.02t-.07-.05l-.03-.08q0-.06.06-.11a.4.4 0 0 1 .2-.07l.24-.04zm1.69-.19.52-.56.02-.02v-.03q0-.03-.02-.04l-.04-.02h-.38l-.06.01-.04.03-.4.44v-.96s0-.04-.02-.05l-.05-.02h-.33s-.04 0-.05.02l-.02.05V6.4s0 .04.02.05l.05.02h.33s.04 0 .05-.02l.02-.05v-.52l.45.54.04.03.06.02h.39s.03 0 .05-.02l.02-.04-.02-.05zm1.9-.59a1 1 0 0 0-.42-.1 1 1 0 0 0-.38.08 1 1 0 0 0-.26.25 1 1 0 0 0-.1.39v.1q0 .36.21.54t.54.18q.18 0 .31-.04l.22-.11q.09-.06.13-.14.05-.07.05-.12 0-.03-.02-.04l-.05-.02h-.4l-.04.04-.04.04-.06.04-.1.02q-.08 0-.13-.04a.2.2 0 0 1-.08-.11l-.03-.15v-.02h.92s.04 0 .05-.02l.02-.05v-.07a1 1 0 0 0-.08-.39 1 1 0 0 0-.25-.27Zm-.17.52h-.48q0-.1.03-.17t.08-.11q.06-.03.13-.04.1-.01.13.04.06.03.08.11t.03.16ZM19.09 5h-.13l-.24.05-.18.14v-.11s0-.04-.02-.05l-.05-.02h-.33s-.04 0-.05.02l-.02.05v1.35s0 .04.02.05l.05.02h.35s.04 0 .05-.02l.02-.05V5.7q0-.12.06-.18t.18-.06h.28s.04 0 .05-.02l.02-.05V5.1s0-.04-.02-.05l-.05-.02Zm1.71 0h-.32s-.04 0-.06.02l-.03.04-.34.83-.33-.83-.02-.04-.06-.02h-.33s-.03 0-.04.02l-.02.04v.03l.55 1.3-.22.54v.04q0 .03.02.04l.04.02h.32s.04 0 .06-.02l.03-.04.81-1.88v-.04q0-.03-.02-.04z"/></svg>
