<svg xmlns="http://www.w3.org/2000/svg" fill="currentColor" style="fill-rule:evenodd;clip-rule:evenodd;stroke-linejoin:round;stroke-miterlimit:2" viewBox="0 0 64 64"><path id="Icons" d="M-128-192h1280v800H-128z" style="fill:none"/><g id="Icons1"><g id="sidebar-2"><path d="M50 56.04H14.03a6 6 0 0 1-6-6v-36a6 6 0 0 1 6-6H50a6 6 0 0 1 6 6v36a6 6 0 0 1-6 6m-25.98-4v-40h-9a3 3 0 0 0-3 3v34.01a3 3 0 0 0 3 3zm25-40h-21v40h21A3 3 0 0 0 52 49.05V15.03a3 3 0 0 0-2.99-2.99"/><path d="M14.61 16.04h6.57v2h-6.57zm0 8h6.57v2h-6.57zm0-4h6.57v2h-6.57z" style="fill-rule:nonzero"/></g></g></svg>
