<svg xmlns="http://www.w3.org/2000/svg" fill="currentColor" style="fill-rule:evenodd;clip-rule:evenodd;stroke-linejoin:round;stroke-miterlimit:2" viewBox="0 0 64 64"><path id="Icons" d="M-1088 0H192v800h-1280z" style="fill:none"/><g id="Icons1"><path id="sidebar" d="M49.98 56H14a6 6 0 0 1-6-6V14a6 6 0 0 1 6-6h35.98a6 6 0 0 1 6 6v36a6 6 0 0 1-6 6M24 52V12h-9.01a3 3 0 0 0-3 2.99V49A3 3 0 0 0 15 52zm25-40H28v40h21a3 3 0 0 0 2.97-3V14.99A3 3 0 0 0 48.99 12"/><path id="code" d="m20 38.77-6.83-6.82L20 25.12l2.83 2.83-4 4 4 4z"/></g></svg>
