<svg fill="currentColor" viewBox="0 0 64 64" xmlns="http://www.w3.org/2000/svg" style="fill-rule:evenodd;clip-rule:evenodd;stroke-linejoin:round;stroke-miterlimit:2;"><rect id="Icons" x="-128" y="-192" width="1280" height="800" style="fill:none;"/><g id="Icons1" serif:id="Icons"><g id="sidebar-2"><path d="M50.008,56.043l-35.989,0c-3.309,0 -5.995,-2.686 -5.995,-5.995l0,-36.011c0,-3.308 2.686,-5.994 5.995,-5.995l35.989,0c3.309,0.001 5.995,2.687 5.995,5.995l0,36.011c0,3.309 -2.686,5.995 -5.995,5.995Zm-25.984,-4.001l0,-39.999l-9.012,0c-1.65,0 -2.989,1.339 -2.989,2.989l0,34.021c0,1.65 1.339,2.989 2.989,2.989l9.012,0Zm24.991,-39.999l-20.991,0l0,39.999l20.991,0c1.65,0 2.989,-1.339 2.989,-2.989l0,-34.021c0,-1.65 -1.339,-2.989 -2.989,-2.989Z"/><rect x="14.611" y="16.042" width="6.569" height="2" style="fill-rule:nonzero;"/><rect x="14.611" y="24.042" width="6.569" height="2" style="fill-rule:nonzero;"/><rect x="14.611" y="20.042" width="6.569" height="2" style="fill-rule:nonzero;"/></g></g></svg>
