<svg xmlns="http://www.w3.org/2000/svg" fill="currentColor" style="fill-rule:evenodd;clip-rule:evenodd;stroke-linejoin:round;stroke-miterlimit:2" viewBox="0 0 64 64"><path id="Icons" d="M-1152 0H128v800h-1280z" style="fill:none"/><g id="Icons1"><path id="sidebar" d="M50 56H14.03a6 6 0 0 1-6-6V14a6 6 0 0 1 6-6H50a6 6 0 0 1 6 6v36a6 6 0 0 1-6 6m-25.98-4V12h-9a3 3 0 0 0-3 2.99V49a3 3 0 0 0 3 2.99zm25-40h-21v40h21A3 3 0 0 0 52 49V14.99A3 3 0 0 0 49.01 12"/><path id="code" d="m16.02 38.77 6.83-6.82-6.83-6.83-2.82 2.83 4 4-4 4z"/></g></svg>
