<svg xmlns="http://www.w3.org/2000/svg" fill="none" viewBox="0 0 24 24"><path fill="currentColor" d="M12.75 2a.75.75 0 0 0-1.5 0v3a.75.75 0 0 0 1.5 0zM15 10.06a.75.75 0 0 0 0 1.5c.84 0 1.46.64 1.44 1.41a.75.75 0 0 0 1.5.06A2.9 2.9 0 0 0 15 10.06"/><path fill="currentColor" fill-rule="evenodd" d="M11.97 7.25c-1.38 0-2.45 0-3.32.07-.88.07-1.6.22-2.26.56a6 6 0 0 0-2.51 2.51 6 6 0 0 0-.56 2.26c-.07.87-.07 1.94-.07 3.32v5.28H2a.75.75 0 0 0 0 1.5h20a.75.75 0 0 0 0-1.5h-1.25v-5.28c0-1.38 0-2.45-.07-3.32a6 6 0 0 0-.56-2.26 6 6 0 0 0-2.51-2.51 6 6 0 0 0-2.26-.56c-.87-.07-1.94-.07-3.32-.07zm.78 14h6.5V16c0-1.41 0-2.43-.07-3.22a5 5 0 0 0-.4-1.71 4.3 4.3 0 0 0-1.85-1.86 5 5 0 0 0-1.7-.4c-.8-.06-1.82-.06-3.23-.06s-2.43 0-3.22.07a4 4 0 0 0-1.7.4c-.8.4-1.46 1.05-1.87 1.85-.2.41-.33.92-.4 1.7-.06.8-.06 1.82-.06 3.23v5.25h6.5v-1.63a2.25 2.25 0 1 1 1.5 0zm-.75-3a.75.75 0 1 0 0-1.5.75.75 0 0 0 0 1.5" clip-rule="evenodd"/><path fill="currentColor" d="m21.53 5.53-1.5 1.5a.75.75 0 1 1-1.06-1.06l1.5-1.5a.75.75 0 1 1 1.06 1.06m-18-1.06a.75.75 0 0 0-1.06 1.06l1.5 1.5a.75.75 0 0 0 1.06-1.06z"/></svg>
