<svg xmlns="http://www.w3.org/2000/svg" fill="none" viewBox="0 0 24 24"><path stroke="currentColor" stroke-width="1.5" d="m18.66 8.29.37-.37c.34-.34.51-.52.61-.7.28-.48.28-1.07 0-1.56-.1-.17-.27-.35-.61-.69s-.52-.51-.7-.61a1.6 1.6 0 0 0-1.56 0 4 4 0 0 0-.69.61l-.37.37M11.3 15.65l-5.53 5.52c-.34.35-.51.52-.69.62-.48.28-1.08.28-1.56 0-.18-.1-.35-.27-.7-.62s-.5-.51-.61-.69a1.6 1.6 0 0 1 0-1.56c.1-.18.27-.35.62-.7l5.52-5.52m-.74-.73 4.42 4.42c1.74 1.73 2.6 2.6 3.68 2.6s1.95-.87 3.69-2.6c1.73-1.74 2.6-2.6 2.6-3.69 0-1.07-.87-1.94-2.6-3.68L14.98 4.6C13.24 2.87 12.38 2 11.3 2s-1.95.87-3.69 2.6c-1.73 1.74-2.6 2.6-2.6 3.69 0 1.07.87 1.94 2.6 3.68Z"/></svg>
