<svg viewBox="0 0 1024 1024" xmlns="http://www.w3.org/2000/svg"><path d="M149.333333 768c0 85.333333 64 149.333333 149.333334 149.333333 64 0 94.997333-24.341333 94.997333-24.341333 26.986667-34.794667 57.813333-71.616 97.002667-119.381333 0 0 0-154.965333-192-154.965334C213.333333 618.666667 149.333333 682.666667 149.333333 768z" fill="#1565C0" /><path d="M896 362.666667v-106.666667c0-80.853333-106.666667-170.666667-234.666667-106.666667 0 0-392.448 413.653333-480.64 494.464 0 0 245.973333-131.797333 309.973334 129.834667L512 917.333333l384-554.666666z" fill="#90CAF9" /><path d="M320 789.354667c0 42.666667-42.666667 42.666667-42.666667 42.666666s-42.666667 0-42.666666-52.053333C234.666667 725.354667 281.365333 704 320 704c48.256 0 85.333333 37.098667 85.333333 85.354667C405.333333 917.333333 298.666667 917.333333 298.666667 917.333333c-149.333333 0.021333-149.333333-147.2-149.333334-147.2s0-151.445333 160.384-151.466666C427.498667 618.645333 490.666667 692.885333 490.666667 810.688v83.541333" fill="none" /><path d="M469.333333 874.666667h42.666667v42.666666h-42.666667z" fill="#2196F3" /><path d="M699.754667 302.186667C730.88 321.429333 768 358.656 768 426.666667v120.874666l0.064-0.085333L832 454.976c1.344-78.485333 5.333333-170.986667-87.402667-225.365333-21.632-12.693333-87.978667-31.744-141.013333-19.562667a60695.253333 60695.253333 0 0 1-77.056 80.704c54.058667-16.405333 127.061333-17.088 173.226667 11.434667zM618.666667 763.242667l64-92.437334V640l-0.576 0.384C679.509333 584.32 682.666667 512 596.437333 450.069333c-22.72-16.32-118.549333-57.898667-196.672-27.434666a24519.466667 24519.466667 0 0 1-75.968 78.293333c59.328-31.552 158.336-30.314667 233.514667 25.322667C589.632 550.122667 618.666667 597.354667 618.666667 674.666667v88.576z" fill="#455A64" /></svg>
