<svg xmlns="http://www.w3.org/2000/svg" preserveAspectRatio="xMidYMid" viewBox="-9.5 0 256 256"><g id="sleeping"><path id="path-1" fill-rule="evenodd" d="M73.03 78.6c0 73.65 60.49 133.36 137.72 133.36 10.25 0 12.18 10.4 4.86 15.61-23.38 16.65-51.12 28.15-82.06 28.15C59.79 255.72 0 196.02 0 122.36 0 67.94 32.75 21.66 79.44.69c4.53-2.03 17.83-.32 9.87 14.35A132.4 132.4 0 0 0 73.03 78.6" style="fill:#fce202"/><path id="path-2" fill-rule="evenodd" d="M177.94 164.97H193a4 4 0 0 1 0 8h-25.56c-1.3 0-2.65-.35-3.54-1.43a4 4 0 0 1 .56-5.63l17.63-14.94H167a4 4 0 0 1 0-8l26 .02a3.98 3.98 0 0 1 2.54 7.08z" style="fill:#3a75c7"/><path id="path-3" fill-rule="evenodd" d="M138.01 122.97H168a5 5 0 1 1 0 10h-43.55a4.99 4.99 0 0 1-3.62-8.86L154 96.97h-30a5 5 0 1 1 0-10h44a4.96 4.96 0 0 1 3.15 8.87z" style="fill:#01bef2"/><path id="path-4" fill-rule="evenodd" d="M185.72 60.97H229a8 8 0 1 1 0 16h-67s-2.63.32-5.29-3.09a8 8 0 0 1 1.39-11.22l48.17-38.75H163a8 8 0 0 1 0-16h65.58s4.05-.34 6.71 3.07a8 8 0 0 1-1.38 11.23z" style="fill:#1ae1ff"/></g></svg>
