<svg xmlns="http://www.w3.org/2000/svg" fill="none" viewBox="0 0 24 24"><path stroke="currentColor" stroke-linecap="round" stroke-width="1.5" d="M6.5 11c.57.63 1.26 1 2 1a2.7 2.7 0 0 0 2-1m3 0c.57.63 1.26 1 2 1a2.7 2.7 0 0 0 2-1"/><path fill="currentColor" d="M13 16a1 1 0 1 1-2 0 1 1 0 0 1 2 0"/><path stroke="currentColor" stroke-linecap="round" stroke-width="1.5" d="M2 12c0-4.71 0-7.07 1.46-8.54C4.93 2 7.3 2 12 2m10 10c0 4.71 0 7.07-1.46 8.54C19.07 22 16.7 22 12 22s-7.07 0-8.54-1.46c-.97-.98-1.3-2.35-1.4-4.54"/><path stroke="currentColor" stroke-linecap="round" stroke-linejoin="round" stroke-width="1.5" d="m17 4 3.46-2L19 7.46l3.46-2m-8.41.04 1.73 1-2.73.73 1.73 1"/></svg>
