<svg xmlns="http://www.w3.org/2000/svg" fill="none" viewBox="0 0 24 24"><path stroke="currentColor" stroke-linecap="round" stroke-linejoin="round" stroke-width="1.5" d="M18 7v10q0 .93-.09 1.66C17.62 21.29 16.38 22 13 22h-2c-3.38 0-4.62-.71-4.91-3.34Q5.99 17.93 6 17V7q0-.93.09-1.66C6.38 2.71 7.62 2 11 2h2c3.38 0 4.62.71 4.91 3.34q.1.73.09 1.66"/><path stroke="currentColor" stroke-linecap="round" stroke-linejoin="round" stroke-width="1.5" d="M6 17q0 .93.09 1.66l-.42.01h-.34C2.67 18.67 2 18 2 15.33V8.67C2 6 2.67 5.33 5.33 5.33h.34l.42.01Q5.99 6.07 6 7zm16-8.33v6.66c0 2.67-.67 3.34-3.33 3.34h-.34l-.42-.01q.1-.73.09-1.66V7q0-.93-.09-1.66l.42-.01h.34C21.33 5.33 22 6 22 8.67"/></svg>
