<svg xmlns="http://www.w3.org/2000/svg" fill="currentColor" viewBox="0 0 64 64"><g id="smart_Television"><path d="M60 10H4c-.6 0-1 .4-1 1v36c0 .6.4 1 1 1h3.1l-3 4.4c-.2.3-.2.7 0 1q.3.6.9.6h4c.3 0 .6-.2.8-.4l3.7-5.6h36.9l3.7 5.6c.2.3.5.4.8.4h4c.4 0 .7-.2.9-.5s.2-.7 0-1l-3-4.4H60c.6 0 1-.4 1-1V11c0-.6-.4-1-1-1M8.5 52H6.9l2.7-4h1.6zm48.6 0h-1.6l-2.7-4h1.6zm1.9-6H5V12h54z"/><path d="M32 30c-2.8 0-5 2.2-5 5s2.2 5 5 5 5-2.2 5-5-2.2-5-5-5m0 8c-1.7 0-3-1.3-3-3s1.3-3 3-3 3 1.3 3 3-1.3 3-3 3"/><path d="M32 26c-2.7 0-5.2 1.3-6.7 3.6-.3.5-.2 1.1.3 1.4s1.1.2 1.4-.3a5.96 5.96 0 0 1 10 0c.2.3.5.4.8.4.2 0 .4-.1.6-.2.5-.3.6-.9.3-1.4-1.5-2.2-4-3.5-6.7-3.5"/><path d="M32 22c-3.8 0-7.2 1.7-9.5 4.7-.3.4-.3 1.1.2 1.4.4.3 1.1.3 1.4-.2C26 25.4 28.9 24 32 24s6 1.4 7.9 3.9c.2.3.5.4.8.4.2 0 .4-.1.6-.2.4-.3.5-1 .2-1.4-2.3-3-5.7-4.7-9.5-4.7"/><path d="M32 18c-4.8 0-9.3 2.1-12.3 5.8-.4.4-.3 1.1.1 1.4.4.4 1.1.3 1.4-.1C23.9 21.9 27.8 20 32 20s8.1 1.9 10.8 5.1c.2.2.5.4.8.4.2 0 .5-.1.6-.2.4-.4.5-1 .1-1.4-3-3.8-7.5-5.9-12.3-5.9"/><path d="M8 44h48c.6 0 1-.4 1-1V15c0-.6-.4-1-1-1H8c-.6 0-1 .4-1 1v28c0 .6.4 1 1 1m1-28h46v26H9z"/></g></svg>
