<svg xmlns="http://www.w3.org/2000/svg" fill="none" viewBox="0 0 24 24"><path stroke="currentColor" stroke-linecap="round" stroke-width="1.5" d="M21 12q0 2.62-.29 5.22l-.02.15a4.84 4.84 0 0 1-4.21 4.26l-.9.12-1 .12a25 25 0 0 1-6.15-.12l-1.02-.13a4.7 4.7 0 0 1-4.1-4.14q-.62-5.34 0-10.68l.01-.14a4.8 4.8 0 0 1 3.92-4.2l.21-.04c3-.56 6.1-.56 9.1 0l.32.06a4.7 4.7 0 0 1 3.8 4.07L20.84 8"/><path stroke="currentColor" stroke-linecap="round" stroke-width="1.5" d="M17 6c-.72.6-2.51 1.5-5 1.5S7.72 6.6 7 6"/></svg>
