<svg xmlns="http://www.w3.org/2000/svg" fill="currentColor" viewBox="0 0 64 64"><g id="smartwatch"><path d="M55 25v-2c0-1.9-1.3-3.4-3-3.9V16a3 3 0 0 0-2.3-2.9L48 9.8V6c0-1.7-1.3-3-3-3H19c-1.7 0-3 1.3-3 3v3.8l-1.7 3.3A3 3 0 0 0 12 16v3.1c-1.7.4-3 2-3 3.9v2c0 1.9 1.3 3.4 3 3.9v6.3c-1.7.4-3 2-3 3.9v2c0 1.9 1.3 3.4 3 3.9v3a3 3 0 0 0 2.3 2.9l1.7 3.3V58c0 1.7 1.3 3 3 3h26c1.7 0 3-1.3 3-3v-3.8l1.7-3.3A3 3 0 0 0 52 48v-3.1c1.7-.4 3-2 3-3.9v-2c0-1.9-1.3-3.4-3-3.9v-6.3c1.7-.4 3-1.9 3-3.8m-2-2v2c0 .7-.4 1.4-1 1.7v-5.5c.6.4 1 1.1 1 1.8M17.6 11h28.8l1 2H16.6zm.4-5c0-.6.4-1 1-1h26c.6 0 1 .4 1 1v3H18zm-7 19v-2c0-.7.4-1.4 1-1.7v5.5c-.6-.4-1-1.1-1-1.8m0 16v-2c0-.7.4-1.4 1-1.7v5.5c-.6-.4-1-1.1-1-1.8m35.4 12H17.6l-1-2h30.8zm-.4 5c0 .6-.4 1-1 1H19c-.6 0-1-.4-1-1v-3h28zm4-10c0 .6-.4 1-1 1H15c-.6 0-1-.4-1-1V16c0-.6.4-1 1-1h34c.6 0 1 .4 1 1zm3-9v2c0 .7-.4 1.4-1 1.7v-5.5c.6.4 1 1.1 1 1.8"/><path d="M32 33c-2.8 0-5 2.2-5 5s2.2 5 5 5 5-2.2 5-5-2.2-5-5-5m0 8c-1.7 0-3-1.3-3-3s1.3-3 3-3 3 1.3 3 3-1.3 3-3 3"/><path d="M32 29c-2.7 0-5.2 1.3-6.7 3.6-.3.5-.2 1.1.3 1.4s1.1.2 1.4-.3a5.96 5.96 0 0 1 10 0c.2.3.5.4.8.4.2 0 .4-.1.6-.2.5-.3.6-.9.3-1.4-1.5-2.2-4-3.5-6.7-3.5"/><path d="M32 25c-3.8 0-7.2 1.7-9.5 4.7-.3.4-.3 1.1.2 1.4.4.3 1.1.3 1.4-.2C26 28.4 28.9 27 32 27s6 1.4 7.9 3.9c.2.3.5.4.8.4.2 0 .4-.1.6-.2.4-.3.5-1 .2-1.4-2.3-3-5.7-4.7-9.5-4.7"/><path d="M32 21c-4.8 0-9.3 2.1-12.3 5.8-.4.4-.3 1.1.1 1.4.4.4 1.1.3 1.4-.1C23.9 24.9 27.8 23 32 23s8.1 1.9 10.8 5.1c.2.2.5.4.8.4.2 0 .5-.1.6-.2.4-.4.5-1 .1-1.4-3-3.8-7.5-5.9-12.3-5.9"/></g></svg>
