<svg xmlns="http://www.w3.org/2000/svg" viewBox="-55.73 0 328.119 328.119"><defs><style>.a{fill:#fff}.d{fill:#211715}</style></defs><path d="M110.01 157.19a2401 2401 0 0 1-21.61-16.95v-2.86a49 49 0 0 1-11.98-10.6 56 56 0 0 1-10.4-19.3 8 8 0 0 1-6.68-1.75c-3.96-3.24-5.6-7.75-6.6-10.7-1.41-4.17-1.5-10.9.6-14.56a6.9 6.9 0 0 1 6.2-3.45A7.5 7.5 0 0 1 64.92 79s-6.16-43.5 46.78-43.5 46.8 43.49 46.8 43.49a7.4 7.4 0 0 1 5.37-1.97 6.9 6.9 0 0 1 6.2 3.45c2.1 3.65 2.02 10.39.6 14.56-1 2.95-2.64 7.46-6.6 10.7a8.2 8.2 0 0 1-6.32 1.82l-.44-.07c-.75 2.18-1.69 4.13-2 5.09-1.53 4.16-9.75 18.37-20.3 24.7v2.97c-.94.76-20.16 15.92-21.62 16.95Z" class="a"/><path d="M110.63 255.8c-6.68-16.47-8.4-21.9-13.61-37.93a774 774 0 0 1-18.6-67.66A104 104 0 0 0 69 157.1c-13.4 4.1-23.9 8.2-35.98 15.86a39 39 0 0 0-11.75 11.8c-3.7 5.72-6.5 13.43-8.08 20.09a283 283 0 0 0-4.37 22.24 490 490 0 0 0-6.27 56.24c-.5 8 .28 16.6 3.28 24.01s10.55 14.4 18.05 16.7a24 24 0 0 0 16.6-.57H175.3a26.7 26.7 0 0 0 18.6 1.07c7.51-2.24 13.2-8.72 16.2-15.94s3.71-15.2 4-23.03c.85-24.12-1.77-45.69-7.17-72.42a115 115 0 0 0-6.27-23.04 51 51 0 0 0-5.07-10.2c-4.3-6.35-10.76-11.01-17.7-14.3s-14.38-5.34-21.78-7.37l-.48-.12a104 104 0 0 0-10.64-7.9 772 772 0 0 1-18.6 67.66c-5.22 16.02-6.94 21.46-13.61 37.94" style="fill:#b3b3b3"/><path d="M95.3 212.55a779 779 0 0 1-15.46-56.18l-.06-1.34c-.73-1.96.21-4.68 1.5-6.16 2.16-2.51 4.9-6.15 7.11-8.63.95.76 20.16 15.92 21.62 16.95h3.39c1.46-1.03 20.67-16.19 21.62-16.95 2.21 2.48 4.95 6.12 7.12 8.63 1.28 1.48 2.22 4.2 1.49 6.16l.12.57a774 774 0 0 1-17.35 62.27c-5.5 16.85-7.1 22-14.7 40.57-7.58-18.57-9.2-23.72-14.68-40.57q-.86-2.64-1.71-5.32" class="a"/><path d="M102.1 195.58c1.17-8.33 1.99-14.3 1.98-14.86a22 22 0 0 0-1.25-5.97 33 33 0 0 0-1.59-5.15s-.13-.3-.33-.75c3.09-4.17 6.82-9.1 9.1-11.66h3.39c2.29 2.57 6.03 7.52 9.13 11.7l-.03.13c-.65 2.66-.75 3.94-1.3 6.45q-.16.76-.35 1.51a15 15 0 0 0-.52 3.37c0 .64 2.86 22.69 4.97 40.89a422 422 0 0 1-13.6 37.2 421 421 0 0 1-13.34-36.46z" style="fill:#3d8dcc"/><path d="M119.58 174.95c-5 0-10.01-.05-15.02-.05a2.4 2.4 0 1 0 0 4.8c5 0 10.01.05 15.02.05a2.4 2.4 0 0 0 0-4.8" class="d"/><path d="M120.18 168.39c-.46 1.92-.77 3.87-1.17 5.8-.42 2.02-1.17 4.13-1.09 6.2.06 1.38.32 2.78.49 4.14l2.61 21.07q.92 7.48 1.8 14.96a2.47 2.47 0 0 0 2.4 2.4 2.4 2.4 0 0 0 2.4-2.4q-1.47-12.6-3.06-25.2c-.6-4.87-1.43-9.77-1.8-14.66a15 15 0 0 1 .66-4.21c.5-2.27.85-4.57 1.38-6.83.72-3-3.9-4.28-4.62-1.27m-19.28 52.6 3.63-25.56 1.28-9.25c.23-1.71.55-3.44.65-5.16a16 16 0 0 0-.84-5.33 53 53 0 0 0-2.3-7.3 2.4 2.4 0 0 0-3.29-.86 2.46 2.46 0 0 0-.86 3.28 45 45 0 0 1 1.76 5.93 13 13 0 0 1 .74 4.18c-.02.52-.11 1.03-.17 1.55l-.15 1.16-.1.74-.07.53q-1.37 10.07-2.83 20.13l-2.08 14.68a2.5 2.5 0 0 0 1.67 2.95 2.4 2.4 0 0 0 2.96-1.68Z" class="d"/><path d="M86.7 138.54c-1.38 1.56-2.67 3.18-3.97 4.8-1.29 1.6-2.76 3.13-3.92 4.83a8.4 8.4 0 0 0-.64 8.89 107 107 0 0 0 9.58 13.64 33 33 0 0 0 7.08 6.82 2.46 2.46 0 0 0 3.28-.86c4.47-5.95 8.66-12.19 13.6-17.77a2.45 2.45 0 0 0-.48-3.77q-.44-.32-.87-.66l-.35-.26-.02-.02-1-.78q-2.55-1.98-5.08-3.97l-10.9-8.57q-1.46-1.15-2.9-2.31a2.47 2.47 0 0 0-3.4 0 2.4 2.4 0 0 0 0 3.4c6.1 4.92 12.32 9.73 18.5 14.55 1.2.93 2.37 1.89 3.6 2.76l-.49-3.77c-5.2 5.9-9.63 12.47-14.34 18.75l3.28-.86a15 15 0 0 1-2.33-1.92q-1.45-1.42-2.78-2.97a86 86 0 0 1-5.24-6.82 124 124 0 0 1-3.89-5.88c-.35-.56-.73-1.13-1.02-1.72l-.11-.2c.2.5.06-.17.05-.34a4.5 4.5 0 0 1 .5-2.06c.79-1.63 2.3-3.01 3.42-4.41 1.4-1.73 2.77-3.46 4.24-5.12 2.04-2.3-1.35-5.71-3.4-3.4" class="d"/><path d="M96.21 255.3c-12-20.8-23.87-41.71-34.94-63.04l-1.25-2.42a13 13 0 0 1-1.03-2.01c-.16-.5-.06-.4.45-.95q.87-.94 1.77-1.86a225 225 0 0 1 7.4-7.17 2.42 2.42 0 0 0-.5-3.77l-4.77-2.73-2.17-1.24-1.3-.74-.43-.25q-.53-.33.1.1l.33 1.2q-.21.46-.06.15a12 12 0 0 1 .52-.95q.36-.62.78-1.22A26 26 0 0 1 63 166a60 60 0 0 1 5.4-5.29 95 95 0 0 1 11.22-8.43l-3.53-1.43a774 774 0 0 0 24.59 85.7c2.35 6.7 4.95 13.31 7.62 19.9a2.5 2.5 0 0 0 2.95 1.68 2.4 2.4 0 0 0 1.68-2.96c-10.53-26-18.84-52.94-25.97-80.05q-3.34-12.72-6.24-25.54a2.42 2.42 0 0 0-3.53-1.43 90 90 0 0 0-16.41 13.2 42 42 0 0 0-3.4 4.02 12 12 0 0 0-2.25 4.1c-.63 2.76 2.09 3.92 4.04 5.04l6.5 3.71-.48-3.77a239 239 0 0 0-6.9 6.67c-2.2 2.24-5.18 4.7-3.88 8.18a75 75 0 0 0 4.18 8.22q2.15 4.1 4.34 8.2a1551 1551 0 0 0 18.53 33.5q5.26 9.28 10.6 18.5c1.54 2.68 5.69.26 4.14-2.42Z" class="d"/><path d="M131.34 257.73c12.6-21.86 25.07-43.82 36.6-66.28.86-1.66 1.74-3.28 1.2-5.2-.49-1.74-2-3.03-3.22-4.29a225 225 0 0 0-7.72-7.5l-.49 3.76 6.51-3.71c1.96-1.12 4.67-2.27 4.05-5.04a12 12 0 0 0-2.27-4.1 42 42 0 0 0-3.38-4.02 90 90 0 0 0-16.42-13.2 2.42 2.42 0 0 0-3.53 1.43 774 774 0 0 1-24.58 85.7 453 453 0 0 1-7.62 19.9 2.4 2.4 0 0 0 1.67 2.96 2.46 2.46 0 0 0 2.95-1.68c10.53-26 18.84-52.94 25.97-80.06q3.34-12.71 6.24-25.53l-3.52 1.43a95 95 0 0 1 11.22 8.42 60 60 0 0 1 5.28 5.16 26 26 0 0 1 1.94 2.4q.41.6.8 1.22.21.35.4.72l.13.24q.24.47 0-.03l.33-1.21q.57-.39.22-.17l-.56.32-1.08.62-2.39 1.36-4.77 2.73a2.42 2.42 0 0 0-.48 3.77q3.33 3.1 6.56 6.33.75.75 1.48 1.51c.37.4 1.42 1.2 1.6 1.7.08.24.05.22-.13.64-.34.75-.76 1.47-1.14 2.2q-4.02 7.8-8.19 15.53-8.63 16.04-17.66 31.86-5.04 8.86-10.13 17.68c-1.55 2.68 2.6 5.1 4.14 2.42Z" class="d"/><path d="M133.31 141.94a128 128 0 0 1 7.13 8.63 6 6 0 0 1 .83 1.66 5 5 0 0 1 .2.95c.01.21-.04.93 0 .79.06-.23-.13.23-.2.35q-.24.44-.52.87a103 103 0 0 1-8.7 12.35q-1.46 1.79-3.09 3.43-.75.76-1.55 1.45a8 8 0 0 1-1.26.96l3.28.86c-4.7-6.29-9.14-12.86-14.34-18.75l-.49 3.77c2.74-1.96 5.34-4.13 8-6.2l11.11-8.75 3-2.37a2.4 2.4 0 0 0 0-3.4 2.46 2.46 0 0 0-3.4 0c-6.04 4.87-12.17 9.62-18.29 14.39l-1.16.9-.5.4c-.47.35.34-.27-.08.05l-1.1.84a2.45 2.45 0 0 0-.5 3.77c4.94 5.58 9.14 11.82 13.6 17.77a2.45 2.45 0 0 0 3.3.86c5.1-3.34 8.88-8.86 12.31-13.8q2.12-3.02 4.05-6.17a10 10 0 0 0 1.04-2.04 8.7 8.7 0 0 0-.71-6.14c-.9-1.95-2.6-3.55-3.94-5.21-1.52-1.9-3.02-3.8-4.63-5.61-2.05-2.32-5.43 1.08-3.39 3.39" class="d"/><path d="M136.03 51.12a21.8 21.8 0 0 1 11.77 8.92c2.98 4.24 4.2 8.46 5.59 14.5l5.28 4.42a7.3 7.3 0 0 1 5.3-1.94 8 8 0 0 1 2.94.59c2.83-13.8 3.1-29.48-2.93-42.83-.75-1.65-3.95-10.18-11.27-16-5.91-4.73-8.82-5.7-12.92-5.67L131.7 9.9a17.3 17.3 0 0 0-8-5C110.86.43 96.08 2.2 84.4 8.19a56 56 0 0 0-26.1 28.67c-4.61 11.8-4.86 28.5-2.5 41.1a8 8 0 0 1 3.63-.94 7.3 7.3 0 0 1 5.3 1.94l1.9 1.83c.36-3.6 1.26-7.17 4.06-10.03 1.82-1.86 4.4-3.37 5.5-5.54.92-1.84 1.07-3.82 2.04-5.65a10 10 0 0 1 2.99-3.42 17 17 0 0 1 5.68-2.37c2.89-.76 17.02-1.76 20.82-1.94 0 0 10.58-2.14 16.32-2.14a48 48 0 0 1 12 1.42" style="fill:#85807f"/><path d="M135.4 53.43a20 20 0 0 1 10.63 8.25c2.75 4.08 3.95 8.77 5.05 13.5.7 3.01 5.32 1.74 4.62-1.27-1.24-5.35-2.71-10.7-5.93-15.23a25.2 25.2 0 0 0-13.1-9.87c-2.95-.93-4.22 3.7-1.27 4.62m4.39-37.91a11 11 0 0 1 4.63.75 25 25 0 0 1 5.6 3.43 34 34 0 0 1 9.32 10.92 58 58 0 0 1 7.03 25.67 85 85 0 0 1-1.47 19.11 2.47 2.47 0 0 0 1.68 2.95 2.4 2.4 0 0 0 2.95-1.67c2.27-12.14 2.63-24.96-1.08-36.85-2.7-8.64-7.22-17.37-14.42-23.06-4.28-3.38-8.64-6.09-14.24-6.05-3.1.02-3.1 4.82 0 4.8m-81.67 61.8a88 88 0 0 1-.95-24.77 53 53 0 0 1 7.16-22.46C72.9 16 87.93 6.23 104.46 4.95A47 47 0 0 1 119 6.02c4.18 1 8.02 2.4 11 5.57 2.13 2.26 5.52-1.14 3.4-3.39a23.3 23.3 0 0 0-10.67-6.14A49 49 0 0 0 108.7 0a55.6 55.6 0 0 0-26.89 6.85A59 59 0 0 0 62.34 24.4a55 55 0 0 0-9.43 23.85 92 92 0 0 0 .58 30.34 2.4 2.4 0 0 0 2.95 1.68 2.45 2.45 0 0 0 1.68-2.95" class="d"/><path d="M107.72 49.44c-6.54.32-13.15.76-19.63 1.7-3.8.54-7.92 2.02-10.43 5.05-1.81 2.18-2.34 4.6-3.28 7.2-.75 2.04-2.7 3.27-4.28 4.64-4.57 4-5.76 9.54-6.04 15.35-.15 3.09 4.65 3.08 4.8 0 .21-4.3.87-8.53 4.2-11.57 1.7-1.54 3.57-2.84 4.85-4.77 1.32-2 1.37-4.52 2.55-6.56 1.75-3.03 5.35-4.16 8.62-4.68l.39-.05c.37-.06-.4.05 0 0l1.05-.13 2.4-.26q2.56-.25 5.13-.46 4.83-.4 9.67-.66c3.08-.15 3.1-4.95 0-4.8m-.44-4.19a29 29 0 0 1 4.69-.12l.5.04c.45.05-.55-.1.23.03l1 .2a17 17 0 0 1 2.33.7c-.22-.08.1.05.16.07l.47.23a14 14 0 0 1 1.97 1.2c.08.06.3.23.1.07l.37.3a14 14 0 0 1 1.43 1.4l.26.31c-.13-.14-.18-.25-.03-.04l.45.7a2.4 2.4 0 1 0 4.14-2.42 15.3 15.3 0 0 0-7.23-6.11 22 22 0 0 0-10.84-1.37 2.4 2.4 0 1 0 0 4.8Zm75.43 172.62-3.6 28.28-.78 6.23a2.4 2.4 0 0 0 2.4 2.4 2.46 2.46 0 0 0 2.4-2.4q1.8-14.42 3.66-28.84l.72-5.67a2.4 2.4 0 0 0-2.4-2.4 2.46 2.46 0 0 0-2.4 2.4M44.45 244.33c-1.5-12.03-3.1-24.04-4.68-36.05q-.3-2.25-.57-4.48a2.5 2.5 0 0 0-2.4-2.4 2.4 2.4 0 0 0-2.4 2.4c1.2 10.03 2.62 20.04 3.91 30.06q.68 5.23 1.34 10.47a2.5 2.5 0 0 0 2.4 2.4 2.4 2.4 0 0 0 2.4-2.4m-3.99 81.53H175.3c3.1 0 3.1-4.8 0-4.8H40.46c-3.09 0-3.1 4.8 0 4.8" class="d"/><path d="M162.67 317.52a33.8 33.8 0 0 0 20.8 10.48 27 27 0 0 0 20.7-6.7c11.86-10.7 12.37-28.13 12.48-42.94a280 280 0 0 0-3.85-46.43 494 494 0 0 0-4.6-24.96 101 101 0 0 0-7.92-23.73 41.3 41.3 0 0 0-15.14-16.4c-6.82-4.33-14.56-7-22.28-9.21q-3.05-.88-6.12-1.7c-2.98-.82-4.26 3.81-1.27 4.63 13.57 3.7 29.13 7.9 37.7 20.06 4.44 6.3 6.9 14.11 8.9 21.48 1.06 3.86 1.82 7.75 2.54 11.68.74 4.05 1.6 8.08 2.32 12.13a296 296 0 0 1 4.83 44.06 198 198 0 0 1-.46 22.39c-.6 7.02-2.1 14.16-5.97 20.17a22.6 22.6 0 0 1-14.95 10.4c-7.4 1.4-14.73-1.02-20.64-5.49a32 32 0 0 1-3.67-3.31c-2.15-2.23-5.55 1.17-3.4 3.4ZM64.7 155.92a147 147 0 0 0-26.2 11 64 64 0 0 0-11.99 8 43 43 0 0 0-8.55 10.67c-4.38 7.72-6.65 16.29-8.5 24.9a413 413 0 0 0-4.15 23.45A474 474 0 0 0 .1 284.42c-.43 9.28.59 19.81 5.6 27.88 4.68 7.55 12.56 13.56 21.44 14.95 14.25 2.24 25.56-7.76 35.97-15.98l1.17-.93a2.4 2.4 0 0 0 0-3.4 2.46 2.46 0 0 0-3.4 0L52 313.98c-.74.58-1.5 1.06-2.6 1.8a69 69 0 0 1-5.55 3.46 27 27 0 0 1-10.54 3.53c-8.29.66-15.84-3.48-21.12-9.65C6.43 306.38 4.9 297 4.82 288.4c-.05-4.82.4-9.64.76-14.44q.46-6.36 1.06-12.71 1.05-10.93 2.65-21.8c1.13-7.7 2.36-15.38 3.83-23.02s3.1-15.35 6.1-22.56c3.37-8.05 8.56-14.84 16-19.48a126 126 0 0 1 24.3-11.67q3.21-1.14 6.45-2.17c2.93-.95 1.67-5.58-1.28-4.63Zm91.19-52.35a24 24 0 0 1-1.85 5.81q-.47 1.09-.9 2.17l-.2.54c-.22.64.12-.24-.03.1a56 56 0 0 1-3.2 5.9 58 58 0 0 1-12.6 14.82 23 23 0 0 1-9.2 4.72c-3.02.7-1.74 5.33 1.27 4.63 7.17-1.65 13.13-6.9 17.8-12.33a64 64 0 0 0 9.92-14.97 41 41 0 0 0 3.79-11.4 2.4 2.4 0 0 0-2.4-2.4 2.46 2.46 0 0 0-2.4 2.4Zm-93.29.45c3.36 14.48 12.43 28.52 25.53 35.98a33 33 0 0 0 11.45 4.08 2.5 2.5 0 0 0 2.96-1.68 2.4 2.4 0 0 0-1.68-2.95c-14.1-2.1-25.03-14.6-30.48-27.05a55 55 0 0 1-3.15-9.66c-.7-3-5.33-1.73-4.63 1.28" class="d"/><path d="M66.61 77.3a10.5 10.5 0 0 0-11.59-1.6 10.2 10.2 0 0 0-5.13 7.1 26.6 26.6 0 0 0 4.08 20.53c2.9 4.22 7 7.26 12.32 6.54a2.4 2.4 0 0 0 1.68-2.96 2.47 2.47 0 0 0-2.95-1.67c-3.72.5-6.6-3.5-8.11-6.34a23 23 0 0 1-2.74-8.94 20 20 0 0 1 .2-5.2A12 12 0 0 1 55 82.5a7 7 0 0 1 .5-.95c.05-.1.5-.72.16-.29a4.4 4.4 0 0 1 2.94-1.73 5.4 5.4 0 0 1 4.62 1.17c2.28 2.07 5.69-1.32 3.4-3.4m93.58 3.39a5.4 5.4 0 0 1 4.61-1.17 4.5 4.5 0 0 1 2.95 1.73c-.34-.42.11.2.17.29a7 7 0 0 1 .49.95 12 12 0 0 1 .62 2.27 20 20 0 0 1 .2 5.2 23 23 0 0 1-2.73 8.94c-1.51 2.84-4.38 6.84-8.1 6.34a2.5 2.5 0 0 0-2.95 1.67 2.4 2.4 0 0 0 1.67 2.95c8.68 1.19 13.73-7.34 15.98-14.5a25 25 0 0 0 .69-11.18c-.48-3.1-1.77-6.09-4.42-7.92a10.4 10.4 0 0 0-12.57 1.03c-2.3 2.08 1.11 5.46 3.4 3.4ZM103 121.15a19 19 0 0 0 9.2 2.13 15 15 0 0 0 9.3-2.74 2.4 2.4 0 0 0 0-3.4 2.46 2.46 0 0 0-3.4 0c.74-.57.17-.13-.01-.01s-.38.22-.57.33l-.3.15c-.4.2.1-.05.1-.03a6 6 0 0 1-.79.28 14 14 0 0 1-2.2.5c.36-.05-.06 0-.2.02l-.65.05a22 22 0 0 1-3.6-.06c-.03 0-.8-.1-.31-.03a16 16 0 0 1-2.05-.46q-.44-.13-.86-.28c-.6-.21.36.18-.2-.08l-1.04-.52a2.45 2.45 0 0 0-3.28.86 2.43 2.43 0 0 0 .86 3.28Zm7.99-21.7a43 43 0 0 1 1.01 4.66l-.08-.64a3 3 0 0 1 .01.64l.09-.63-.07.28.24-.57-.1.19.38-.49-.16.15.49-.37-.37.19.57-.24a3 3 0 0 1-.62.18l.64-.09a3 3 0 0 1-.58 0l.64.09-.66-.12a2 2 0 0 0-.95-.04 2 2 0 0 0-.9.29 2.4 2.4 0 0 0-.86 3.28 2.3 2.3 0 0 0 1.44 1.1c.5.07.98.2 1.5.22a5 5 0 0 0 2.2-.53 3.2 3.2 0 0 0 1.78-2.1 5 5 0 0 0-.03-2.26 52 52 0 0 0-.98-4.46 2.4 2.4 0 1 0-4.63 1.28ZM86.42 86.3c-.78 2.52-.27 8.3 4.5 8.8 6.3-.04 6.63-7.03 4.51-10.32-1.74-2.7-6.85-3.82-9.01 1.52m50.57 0c.78 2.52.27 8.3-4.5 8.8-6.3-.04-6.64-7.03-4.51-10.32 1.73-2.7 6.84-3.82 9.01 1.52" class="d"/><path d="m79.4 275.57.76-1c.93-1.26 3.24-4.57 3.7-5a8 8 0 0 1 2.02-1.21c2.87-1.06 6.46-.54 8.8-1.97 4.16-2.54 4.3-4.7 7.36-7.7l8.66-46.35-.56.01a16 16 0 0 0-4.4 1.07 98 98 0 0 0-13.32 5.86l-.13-.07-.48-.26-.14-.07-.44-.16-.12-.06-.24-.07-.3-.08q-.05 0-.09-.02l-.3-.06-.35-.04-.21-.02-.43-.02a5 5 0 0 0-.7.04 6 6 0 0 0-3.1 1.37 6 6 0 0 1-4 1.24 5.6 5.6 0 0 0-3.24 1 5.7 5.7 0 0 1-3.15 1.11l-.38.03a7 7 0 0 0-1.2.26 8 8 0 0 0-1.5.66 10 10 0 0 0-2.84 2.42 26 26 0 0 0-3.3 5.75c-4.64 9.96-6.64 13.21-11.48 23.24a46 46 0 0 0 6.93 11.87 28 28 0 0 0 7.04 6.63c2.54 1.51 7.46 1.94 11 1.8Z" class="a"/><path d="M94.86 220.71a94 94 0 0 1 9.5-4.24 32 32 0 0 1 4.91-1.6 4.4 4.4 0 0 1 3.42.44 2.47 2.47 0 0 0 3.4 0 2.4 2.4 0 0 0 0-3.4c-3.64-2.9-7.88-1.95-11.91-.48a104 104 0 0 0-11.75 5.14 2.4 2.4 0 0 0 2.43 4.14m-12.63 55.06 1.58-2.17q.44-.62.9-1.23l.4-.55.09-.11c.1-.13.57-.63.18-.3a8 8 0 0 1 1.15-.74 13 13 0 0 1 3.63-.72 19 19 0 0 0 3.99-.71 13 13 0 0 0 3.84-2.27 15 15 0 0 0 2.32-2.36q.58-.72 1.13-1.49c.3-.42.6-.83.82-1.1a2.5 2.5 0 0 0 0-3.39 2.4 2.4 0 0 0-3.4 0c-1.48 1.86-2.3 3.43-4.17 4.88a7 7 0 0 1-3.12 1.44c-1.3.25-2.66.33-3.98.53a9.2 9.2 0 0 0-5.89 2.96c-1.26 1.6-2.4 3.28-3.61 4.91a2.4 2.4 0 0 0 .86 3.29 2.46 2.46 0 0 0 3.28-.86Z" class="d"/><path d="M95.48 218.77a8.46 8.46 0 0 0-10.2-1.82 23 23 0 0 1-2.22 1.41 15 15 0 0 1-3.07.38c-1.98.32-3.4 1.8-5.38 2-4.92.48-8.11 4.53-10.15 8.68-1.8 3.65-3.48 7.35-5.3 10.98-1.93 3.8-3.88 7.6-5.76 11.42a2.46 2.46 0 0 0 .86 3.28 2.4 2.4 0 0 0 3.29-.86c3.03-6.18 6.25-12.25 9.2-18.47 1.59-3.35 3.02-7.93 6.55-9.74a6 6 0 0 1 2.12-.55 8 8 0 0 0 3.4-1.06 6 6 0 0 1 2.07-1c.96-.14 1.92-.06 2.88-.28a7.5 7.5 0 0 0 2.83-1.31 4.6 4.6 0 0 1 2.24-1.07 3.8 3.8 0 0 1 3.24 1.4c2.07 2.3 5.46-1.1 3.4-3.39m2.06 14.47a34 34 0 0 1 2.6 7.37 20 20 0 0 1 .57 3.66 12 12 0 0 1-.68 2.79 34 34 0 0 1-1.07 3.2 6 6 0 0 1-1.05 1.94c-1.08.97-3.67.77-4.1-.64-.88-2.95-5.51-1.7-4.62 1.28 1.1 3.7 5.41 5.43 8.98 4.49 3.4-.9 4.74-3.79 5.8-6.84a38 38 0 0 0 1.17-4 13 13 0 0 0 0-5.18 37 37 0 0 0-3.46-10.5 2.4 2.4 0 0 0-3.28-.86 2.45 2.45 0 0 0-.86 3.29" class="d"/><path d="M87.25 235.57c.6 1.44 1.29 2.81 1.96 4.21a10 10 0 0 1 1.03 2.99 15 15 0 0 1-.53 3.8q-.2.93-.43 1.85a12 12 0 0 1-.4 1.3l-.33.6q-.25.34-.01.03l-.28.31c-.15.14-.48.35-.14.14l-.34.2.03-.01c-.11.03-.7.1-.14.07-.12 0-.94-.06-.43.03a3 3 0 0 1-1.27-.46c-.1-.06-.55-.44-.18-.1-.14-.13-.52-.7-.24-.2q-.14-.23-.26-.47c.27.57 0-.18-.03-.32-.13-.48-.03.4-.02-.17v-.78c0-.48.1-1.36.12-1.58a2.5 2.5 0 0 0-1.68-2.95 2.4 2.4 0 0 0-2.95 1.67c-.32 2.33-.7 5.03.73 7.1a7.2 7.2 0 0 0 6.73 2.96c2.68-.36 4.46-2.46 5.36-4.88a23 23 0 0 0 .88-3.5 20 20 0 0 0 .62-4.37c-.09-3.23-1.97-5.86-3.18-8.74a2.5 2.5 0 0 0-2.95-1.68 2.4 2.4 0 0 0-1.67 2.95m-36 18.1a34 34 0 0 0 4.46 10 49 49 0 0 0 6.75 8.7 17 17 0 0 0 8.9 5.2 33 33 0 0 0 9.6.47 2.47 2.47 0 0 0 2.4-2.4 2.4 2.4 0 0 0-2.4-2.4 29 29 0 0 1-7.98-.24 13 13 0 0 1-7.42-4.32 44 44 0 0 1-5.81-7.6 29 29 0 0 1-3.87-8.7c-.68-3-5.31-1.73-4.62 1.28Z" class="d"/><path d="M125.67 233.65a3018 3018 0 0 1 26.3 15.75l1.5-8.02a58 58 0 0 1 13.52 8.99 16 16 0 0 1 3.8 6.28c1.56 4.6 2.95 11.2 2.07 17.18l-.1.7a52 52 0 0 1-13.88 17.92 86 86 0 0 1-15.72-1.2 26 26 0 0 1-10.08-4.7 81 81 0 0 1-18.96-17.89 5.4 5.4 0 0 1-1-2.58 3 3 0 0 1 .8-2.56l1.96-1.83c-.76-.6-1.3-1.05-1.53-1.26a9 9 0 0 1-2.38-3.24 4.3 4.3 0 0 1-.05-2.5 3.14 3.14 0 0 1 3.67-2.72l1.79.27a197 197 0 0 1-4.03-3l-.72-.62a15 15 0 0 1-3.55-4.36 4.9 4.9 0 0 1 .66-5.08c1.39-1.84 3.8-2.45 6.99-1.45a4.2 4.2 0 0 1 1.22-4.08c2-2.2 5.66-1.18 7.23-.28Z" class="a"/><path d="M175.17 274.47a38 38 0 0 0-.44-12.32 33 33 0 0 0-3.41-10.09c-1.79-3.09-4.68-5.27-7.53-7.33a71 71 0 0 0-9.21-5.48c-2.74-1.4-5.17 2.73-2.42 4.15a75 75 0 0 1 8.32 4.84c2.34 1.62 4.99 3.44 6.49 5.9a27 27 0 0 1 3 8.66 31 31 0 0 1 .57 10.4 2.5 2.5 0 0 0 1.68 2.95 2.4 2.4 0 0 0 2.95-1.68" class="d"/><rect width="85.482" height="47.379" x="87.091" y="215.239" rx="5.156" style="fill:#ececec" transform="rotate(-79.412 129.833 238.929)"/><path d="m103.12 279.85 25.96 4.85c3.45.65 6.9 1.34 10.36 1.94a7.7 7.7 0 0 0 8.91-5.1 16 16 0 0 0 .4-1.87l4.52-24.16 6.26-33.51 2.16-11.57c.53-2.83 1.37-5.7 0-8.45-2.03-4.08-6.7-4.26-10.61-5l-16.29-3.04-13.41-2.5a9.7 9.7 0 0 0-5.55.1 7.7 7.7 0 0 0-4.75 5.74c-1.35 6.97-2.6 13.96-3.9 20.94l-6.36 33.98c-1.16 6.22-2.44 12.42-3.49 18.66a7.67 7.67 0 0 0 5.8 9c3 .67 4.3-3.96 1.27-4.63-3.19-.7-2.37-3.46-1.95-5.72l1.94-10.4 6.02-32.16 4.82-25.81c.38-2.03.47-5.2 3.2-5.3a12 12 0 0 1 2.56.4l5.84 1.09 27.84 5.2c1.66.3 3.24 1.19 3.05 3.17-.04.41-.16.83-.23 1.23l-1.63 8.7-5.83 31.17-5.23 27.96c-.3 1.6-.56 3.23-.9 4.83-.82 3.79-5.26 2.03-7.82 1.55l-29.4-5.5-2.28-.42a2.47 2.47 0 0 0-2.95 1.68 2.4 2.4 0 0 0 1.67 2.95" class="d"/><path d="m155.68 253.1.06-1.4a2744 2744 0 0 0-30.57-18.33c-1.56-.9-5.23-1.92-7.22.28a4.2 4.2 0 0 0-1.24 4.05l-.66-.17c-2.86-.7-5.03-.06-6.3 1.65a4.9 4.9 0 0 0-.67 5.08 16 16 0 0 0 4.27 4.97c.53.43 2.01 1.53 4.02 3.01l-1.79-.27a3.14 3.14 0 0 0-3.66 2.72 4.3 4.3 0 0 0 .05 2.5 9 9 0 0 0 2.38 3.24c.22.21.76.65 1.52 1.25l-1.96 1.83a3 3 0 0 0-.79 2.56 5.6 5.6 0 0 0 1 2.6 82 82 0 0 0 18.96 17.88 26 26 0 0 0 10.09 4.7 44 44 0 0 0 10.8.11Z" class="a"/><path d="M156.95 249.62q-14.82-9.07-29.8-17.88c-2.4-1.41-5.3-2.34-8.08-1.5-3.6 1.08-5.99 5.4-4.34 8.9 1.05 2.22 3.55 3.72 5.45 5.16q3.52 2.63 7.06 5.2c5.3 3.85 10.63 7.7 16.07 11.35 2.57 1.73 4.98-2.43 2.42-4.14-4.34-2.92-8.6-5.98-12.85-9.03q-3.6-2.6-7.2-5.23-1.5-1.1-2.99-2.23l-1.2-.91-.19-.15-.53-.41c-.68-.54-1.7-1.23-1.82-2.01a1.6 1.6 0 0 1 .32-.88 2 2 0 0 1 .92-.94c1.6-.82 3.4.29 4.76 1.1q6.24 3.67 12.43 7.4 8.6 5.12 17.15 10.34c2.64 1.62 5.06-2.53 2.42-4.15Z" class="d"/><path d="M116.69 235.22c-2.72-.62-5.55-.48-7.77 1.37a7.5 7.5 0 0 0-2.33 7.9c1.2 3.58 4.46 6.04 7.37 8.2 5.49 4.08 11.04 8.07 16.6 12.07 2.33 1.68 4.66 3.38 7.03 5.02a2.4 2.4 0 0 0 3.28-.86 2.45 2.45 0 0 0-.86-3.28c-4.4-3.06-8.72-6.23-13.05-9.37q-3.85-2.79-7.68-5.6-1.45-1.05-2.9-2.13l-.98-.73-.36-.27c-.4-.3.49.42.08.06-1.46-1.27-4.26-3.3-4.09-5.5.19-2.36 2.55-2.67 4.38-2.25 3 .68 4.29-3.95 1.27-4.63Z" class="d"/><path d="M115.58 249.57c-3.81-.43-6.32 3.03-6.22 6.58.09 2.86 2.22 5.15 4.33 6.85 4.1 3.28 8.36 6.38 12.57 9.52l6.56 4.9a2.4 2.4 0 0 0 3.29-.87 2.46 2.46 0 0 0-.87-3.28l-10.9-8.14q-2.84-2.13-5.66-4.28l-.17-.14-.53-.4-.9-.7q-.53-.43-1.04-.88c-.97-.9-2.1-1.98-1.81-3.4a4 4 0 0 1 .22-.7c-.23.54.32-.48.05-.07.12-.19.1-.17.21-.2a3 3 0 0 1 .87 0 2.4 2.4 0 0 0 2.4-2.4 2.46 2.46 0 0 0-2.4-2.4Z" class="d"/><path d="M112.22 261.82a5.9 5.9 0 0 0-1.26 5.68c.54 2.05 2.02 3.64 3.34 5.24a79 79 0 0 0 8.02 8.38 94 94 0 0 0 9.38 7.39c3.29 2.28 6.94 4.4 10.94 5.08a40 40 0 0 0 11.32.17 2.47 2.47 0 0 0 2.4-2.4 2.4 2.4 0 0 0-2.4-2.4 36 36 0 0 1-10.58-.1c-4.38-.9-8.14-3.6-11.67-6.22a80 80 0 0 1-9.62-8.4q-2.3-2.35-4.4-4.9c-.53-.65-3-3.12-2.08-4.13 2.09-2.27-1.3-5.67-3.4-3.4Z" class="d"/><path d="M172.25 269.17a44 44 0 0 1-7.53 13.89c-3.22 4.1-7.07 7.97-11.75 10.37-2.75 1.41-.32 5.56 2.43 4.15 5.21-2.68 9.53-7.02 13.09-11.61a49 49 0 0 0 8.39-15.53c.9-2.96-3.74-4.23-4.63-1.27m-42.91-65.8-6.1-1.15a2.6 2.6 0 0 0-1.85.24 2.4 2.4 0 0 0-.87 3.29 2.4 2.4 0 0 0 1.44 1.1l6.1 1.14a2.6 2.6 0 0 0 1.85-.24 2.4 2.4 0 0 0 .86-3.29 2.4 2.4 0 0 0-1.43-1.1Z" class="d"/></svg>
