<svg xmlns="http://www.w3.org/2000/svg" fill="none" viewBox="0 0 24 24"><path stroke="currentColor" stroke-linecap="round" stroke-width="1.5" d="M2 14v2c0 2.83 0 4.24.88 5.12S5.18 22 8 22h1c2.83 0 4.24 0 5.12-.88S15 18.82 15 16V8c0-2.83 0-4.24-.88-5.12S11.82 2 9 2H8c-2.83 0-4.24 0-5.12.88S2 5.18 2 8v2m15.5 0c1.86.03 2.91.17 3.62.88.88.88.88 2.3.88 5.12s0 4.24-.88 5.12c-.7.7-1.76.85-3.62.87M11 5H6m13 13v-4"/><path stroke="currentColor" stroke-width="1.5" d="M10 17.5a1.5 1.5 0 1 1-3 0 1.5 1.5 0 0 1 3 0Z"/><path stroke="currentColor" stroke-linecap="round" stroke-linejoin="round" stroke-width="1.5" d="M20.5 6.99 22 8a6.06 6.06 0 0 0-5-6"/></svg>
