<svg xmlns="http://www.w3.org/2000/svg" fill="none" viewBox="0 0 24 24"><path stroke="currentColor" stroke-linecap="round" stroke-width="1.5" d="M2.01 10c-.04-.87.04-1.53.33-2.13.54-1.12 1.69-1.8 3.99-3.18l1.38-.82C9.81 2.62 10.85 2 12 2s2.2.62 4.29 1.87l1.38.82c2.3 1.37 3.45 2.06 4 3.18s.35 2.45-.03 5.09l-.28 1.94c-.49 3.38-.73 5.08-1.9 6.09-1.08.92-2.6 1-5.46 1"/><path stroke="currentColor" stroke-linecap="round" stroke-width="1.5" d="M11 22a9 9 0 0 0-9-9"/><path stroke="currentColor" stroke-linecap="round" stroke-width="1.5" d="M8 22a6 6 0 0 0-6-6m3 6a3 3 0 0 0-3-3"/></svg>
