<svg xmlns="http://www.w3.org/2000/svg" fill="none" viewBox="0 0 22 20"><path fill="currentColor" stroke="currentColor" stroke-width=".9" d="M16.14 3H5.86C4.26 3 3 4.18 3 5.7v5.38c0 1.5 1.26 2.69 2.86 2.69.34 0 .57.21.57.54v2.15q0 .33.34.49.08.06.23.05.17-.01.34-.1l3.95-2.8c.28-.22.68-.33 1.02-.33h3.83c1.6 0 2.86-1.19 2.86-2.7V5.7C19 4.2 17.74 3 16.14 3Zm1.72 8.08c0 .91-.75 1.61-1.72 1.61h-3.83c-.62 0-1.2.22-1.71.54l-3.03 2.15v-1.07c0-.92-.74-1.62-1.71-1.62s-1.72-.7-1.72-1.61V5.69c0-.91.75-1.61 1.72-1.61h10.28c.97 0 1.72.7 1.72 1.61zm-2.29-4.31c0 .32-.23.54-.57.54H7c-.34 0-.57-.22-.57-.54s.23-.54.57-.54h8c.34 0 .57.22.57.54Zm0 3.23c0 .32-.23.54-.57.54H7c-.34 0-.57-.22-.57-.54s.23-.54.57-.54h8c.34 0 .57.22.57.54Z"/></svg>
