<svg xmlns="http://www.w3.org/2000/svg" preserveAspectRatio="xMidYMid" viewBox="-1 0 255 255"><g id="sneakers"><path id="path-1" fill-rule="evenodd" d="M36.94 41.9S66.65 18.07 81.83 9.26C96.66.65 105.85-3 113.1 2.82s1.95 27.27 14.68 40 20.53 10.24 30.5 9.32c11.16-1.03 25.13-1.2 32.75 6.42 10.82 10.82-2.6 70.16 14.54 112.05 10.77 26.3 43.82 61.68 43.82 61.68l-16.25 16.3-82.02-48.09-58.7-102.53z" style="fill:#a4c1e9"/><path id="path-2" fill-rule="evenodd" d="M32.9 37S65.11 7.42 74.37 9.5c9.25 2.06 14.57 21.12 18.06 31.9 3.68 11.41 8.42 33.5 6.62 45.23-1.03 6.72-5.92 10.64-5.92 10.64z" style="fill:#1c8cea"/><path id="path-3" fill-rule="evenodd" d="M236.69 252.12c-9.64 9.64-70.24-6.6-96.88-33.23L7.58 86.66c-12.5-12.5-8.46-43.15 4.25-48.08 15.12-5.88 19.45-8.83 25.45-2.83l56.57 56.57c24.33 24.32 41.26 80.85 62.93 102.53 19.45 19.44 58.43 40.2 71.42 44.54 6.3 2.11 11.55-3.06 14.85-6.36 1.7-1.7 4.94-4.96 8.07-1.83 2.77 2.77.83 5.66-1.7 8.2z" style="fill:#4762e1"/><path id="path-4" fill-rule="evenodd" d="M92.44 102.22a8 8 0 0 1-11.32 0L14.88 36.97c11.9-4.75 15.65-8.64 22.4-1.22l56.57 56.57a74 74 0 0 1 4.05 4.43z" style="fill:#ff436f"/></g></svg>
