<svg xmlns="http://www.w3.org/2000/svg" fill="currentColor" viewBox="0 0 32 32"><path d="M31.93 18.06a5 5 0 0 1-4.98 4.98h-2a1 1 0 1 1 0-2h2a2.99 2.99 0 1 0 0-5.97h-.01a3 3 0 0 1-2.81-1.97l-.02-.03a6 6 0 0 0-5.18-3.95 1 1 0 0 0-.94.99v11.93a1 1 0 1 1-1.98 0V10.1a3 3 0 0 1 2.95-2.99A8 8 0 0 1 26 12.4c.13.4.5.69.94.69h.21a5 5 0 0 1 4.78 4.98zm-18.92 4.98a1 1 0 0 1-1-1V11.1a1 1 0 1 1 2 0v10.95a1 1 0 0 1-1 1m-3.98 0a1 1 0 0 1-1-1V10.6a1 1 0 1 1 1.99 0v11.45a1 1 0 0 1-1 1m-3.99 0a1 1 0 0 1-.99-1v-7.97a1 1 0 1 1 1.99 0v7.97a1 1 0 0 1-1 1m-3.98-2a1 1 0 0 1-1-.99v-3.98a1 1 0 1 1 2 0v3.98a1 1 0 0 1-1 1m19.92 0a1 1 0 1 1 0 1.99 1 1 0 0 1 0-1.99"/></svg>
