<svg xmlns="http://www.w3.org/2000/svg" fill="currentColor" viewBox="0 0 32 32"><path d="M22.1 11.25c-2.2-2.34-4-2.72-5.76-2.75h-.06a7.75 7.75 0 0 0-7.65 7.75c0 4.72 4.25 7.47 7.62 7.47h.03a6.8 6.8 0 0 0 6.16-3.22h-7.7v-7.97l16.35.06c.16.82.44 2.85.44 3.91 0 9.03-6.06 15.47-15.4 15.47-8.88 0-16.1-7.06-16.1-15.88S7.25.25 16.13.25c4.34 0 9 1.72 11.93 5.63zm-5.85 2.9v4.82h8.22c-.38 2.03-2.53 6.1-8.22 6.1a9 9 0 0 1-8.97-8.91c0-4.88 4.1-8.97 8.97-8.97a8.2 8.2 0 0 1 5.78 2.25l3.94-3.72a14 14 0 0 0-9.72-3.75c-8 0-14.5 6.28-14.5 14.19 0 7.84 6.5 14.15 14.5 14.15 8.44 0 13.9-5.78 13.9-13.81 0-.9-.06-1.62-.18-2.34z"/></svg>
