<svg xmlns="http://www.w3.org/2000/svg" fill="currentColor" viewBox="0 0 32 32"><path d="M16 0a16 16 0 0 0-6.35 1.33A16 16 0 0 0 0 16c0 8.82 7.18 16 16 16a16 16 0 0 0 16-16A16 16 0 0 0 16 0m14 16-.02.33a22 22 0 0 0-10.21-.11q-.64-1.46-1.41-2.97l-.14-.25c5.13-1.97 7.31-4.64 8.22-6.3a14 14 0 0 1 3.55 9.3zM24.91 5.23c-.46 1.1-2.15 3.94-7.64 6a64 64 0 0 0-5.46-8.58 14 14 0 0 1 13.1 2.58M9.88 3.43a58 58 0 0 1 5.47 8.44 36 36 0 0 1-13.09 1.5 14 14 0 0 1 7.62-9.95M2 16q0-.33.02-.64.9.1 2.76.12c2.71 0 6.8-.33 11.53-1.81l.26.5q.68 1.3 1.23 2.57-1.28.4-2.62 1C9.5 20.32 6.81 24 5.86 25.63A14 14 0 0 1 2 16m5.37 11c.5-.95 2.83-4.8 8.64-7.44q1.3-.6 2.57-.96c1.9 4.82 2.56 8.8 2.76 10.33A13.9 13.9 0 0 1 7.38 27zm15.86.97a47 47 0 0 0-2.69-9.86c4.64-.93 8.31-.02 9.24.25a14 14 0 0 1-6.55 9.61"/></svg>
