<svg xmlns="http://www.w3.org/2000/svg" fill="currentColor" viewBox="0 0 32 32"><path d="M4.96 16.33a.85.85 0 0 1-.82-.6C3.22 12.88 3.1 7.8 5.06 5.5c-.44-1.66-.2-3.91.61-5.12.17-.25.45-.4.75-.38 2.3.1 3.8 1.06 5.1 1.93 1.87-.49 3.7-.66 5.85-.54.53.03 1.05.15 1.52.26.43.1.88.2 1.15.18.23-.03.66-.31 1-.55q.48-.34 1-.6c1-.44 1.9-.64 3.12-.68.47-.01.87.35.89.82s-.35.87-.83.88c-1 .04-1.68.19-2.48.54q-.33.17-.73.45c-.54.36-1.14.78-1.82.84a5 5 0 0 1-1.7-.22c-.41-.1-.84-.2-1.22-.22-2.1-.12-3.86.06-5.67.58a.8.8 0 0 1-.7-.11l-.22-.14c-1.14-.76-2.23-1.48-3.8-1.68a5.8 5.8 0 0 0-.06 3.66c.14.34.04.74-.23.97-1.55 1.31-1.74 5.95-.82 8.84.14.44-.1.93-.56 1.07zm6.5 8.44-.2-.02a.85.85 0 0 1-.64-1.02l.05-.24q.38-1.8.8-2.86c-3.5-.73-6.07-2.4-7.28-4.76-.2-.42-.05-.94.37-1.15s.94-.05 1.15.37c1.1 2.13 3.67 3.57 7.26 4.07.34.05.62.3.71.63.09.34-.04.7-.32.9-.18.16-.51.84-1.02 3.16l-.05.25a.85.85 0 0 1-.83.67m-1.58 6.25-.16-.01a.84.84 0 0 1-.68-1c.16-.79.72-1.12 1.05-1.31.22-.13.3-.18.33-.27.2-.41.14-1.48.1-2.34l-.05-1.08c-1.98.34-4.13.45-5.26-1.44-.23-.37-.37-.75-.5-1.1-.15-.38-.28-.72-.49-.97a.85.85 0 0 1 1.32-1.08c.38.47.58 1 .76 1.45a5 5 0 0 0 .36.82c.61 1.01 1.95.95 4.53.43a.85.85 0 0 1 1.01.93c-.06.55-.03 1.26 0 1.95.07 1.2.12 2.34-.26 3.15-.27.58-.72.84-1 1.01l-.24.15a.8.8 0 0 1-.82.71m12.43-.16a.9.9 0 0 1-.72-.39q-.1-.14-.35-.3c-.27-.19-.65-.45-.93-1-.5-.99-.42-2.43-.34-3.96.05-.94.1-1.9 0-2.67-.09-.64-.32-.93-.63-1.33q-.32-.37-.61-.94a.9.9 0 0 1 .04-.8c.14-.24.4-.4.67-.41 3.2-.24 5.74-1.75 6.96-4.15a.86.86 0 0 1 1.52.78c-1.3 2.57-3.78 4.3-6.92 4.9.29.4.56.93.67 1.73.12.92.07 1.97.01 2.99-.06 1.17-.13 2.5.16 3.09.08.15.17.22.38.37.23.15.55.37.8.77a.86.86 0 0 1-.72 1.32zm4.85-14.7-.23-.04a.85.85 0 0 1-.59-1.05c.95-3.32.3-7.63-1.35-9.04a.9.9 0 0 1-.25-.93c.4-1.14.13-2.86-.32-3.9a.85.85 0 0 1 1.56-.69 8 8 0 0 1 .53 4.62c2.03 2.25 2.43 7.05 1.48 10.4a.9.9 0 0 1-.83.63M19.5 32a1 1 0 0 1-.47-.13c-.15-.1-.62-.4-1.49-1.75q-.6-.95-.86-9.08c0-.47.36-.87.83-.88s.87.36.88.82c.11 3.55.38 7.57.61 8.25.64 1 .94 1.2.95 1.2A.86.86 0 0 1 19.5 32m-6.48 0a.86.86 0 0 1-.46-1.57s.3-.2.94-1.2c.24-.68.5-4.7.62-8.25a.85.85 0 1 1 1.7.06c-.17 5.41-.46 8.47-.85 9.07-.87 1.35-1.34 1.65-1.5 1.75a1 1 0 0 1-.45.14"/></svg>
