<svg xmlns="http://www.w3.org/2000/svg" viewBox="0 -24.71 403.379 403.379"><defs><style>.a{fill:#fff}.b{fill:#211715}.c{fill:#64a4d6}</style></defs><path d="M253.73 309.45v-9.27l-21.07 24.98 11.05 6.32a2 2 0 0 0 1.98 0l7.55-4.33a1 1 0 0 0 .5-.86zm90.67-52.34v-9.27c-6.47 7.7-13.71 16.27-21.07 24.98q5.68 3.27 11.05 6.33a2 2 0 0 0 1.98 0l7.55-4.33a1 1 0 0 0 .5-.86zM249.02 78.26c.46 19.38 1.56 66.25 1.62 72.9a3.7 3.7 0 0 1-2.07 3.06 9.7 9.7 0 0 1-9.95.05 3.9 3.9 0 0 1-2.16-3.07c.14-12.72.3-46.74.67-64.83" class="a"/><path d="m247.02 78.26.67 28.62.7 31.1.21 10.3a21 21 0 0 1 .04 2.82c-.15 1.2-1.67 1.83-2.7 2.16a8 8 0 0 1-4.48.1c-1.08-.3-2.81-.99-3-2.25a18 18 0 0 1 .03-2.68l.05-6.54.13-16.6c.1-11.76.18-23.52.39-35.28l.07-3.63c.05-2.57-3.95-2.57-4 0-.25 12.02-.34 24.04-.44 36.05l-.13 17.87-.06 7.1c-.02 2.4-.44 4.99 1.2 6.97 2.34 2.84 6.53 3.65 10 3.06 3.27-.56 6.85-2.71 6.95-6.36.07-2.62-.09-5.26-.14-7.87q-.3-15.24-.67-30.47l-.74-31.5-.07-2.96c-.07-2.57-4.07-2.58-4 0Z" class="b"/><path d="m237.15 84.45 7.14-4.12L272.56 64c1.26-.73 1.96-2.38 1.96-4.8a15 15 0 0 0-6.97-12.02c-2.02-1.17-3.73-1.28-4.95-.57l-35.97 20.76" class="a"/><path d="M238.16 86.18c3.76-2.17 7.51-4.3 11.34-6.33a249 249 0 0 0 21.93-12.6c1.62-1.1 3.35-2.15 4.18-3.99 1.22-2.65 1-5.9.33-8.67-1.27-5.22-6.24-10.46-12.04-9.86-1.77.19-3.5 1.35-5.07 2.16q-2.5 1.3-4.96 2.66a750 750 0 0 0-11.63 6.5q-8.34 4.74-16.62 9.6c-2.21 1.3-.2 4.76 2.02 3.46 11.08-6.52 22.2-13.06 33.61-18.98 1.45-.75 2.57-1.65 4.12-1.36a8.5 8.5 0 0 1 5.8 4.39 12 12 0 0 1 1.25 6.94c-.26 1.94-1.32 2.55-2.8 3.55a236 236 0 0 1-20.93 12.1q-6.33 3.39-12.54 6.98c-2.23 1.29-.22 4.74 2.02 3.45Z" class="b"/><path d="M240.38 80.22c2.79.24 7.5 1.11 10.02 3.05 7.9 6.05 23.9 29.81 33.26 42.96a50 50 0 0 1 4.82 7.75 4 4 0 0 1 .46 1.52.7.7 0 0 1-.3.68s-1.6.8-2.12 1.07c-.57.28-1.72-.17-2.61-.9-17.42-14.16-32.3-31.53-48.1-50.06m-8.72-18.7c-1.88-2.95-6.46-9.88-7.06-12.73-2.57-12.15.07-31.86 1.19-44.45A32 32 0 0 1 223 3.27S225.23 2 225.32 2c1.06-.1 2.11 2.15 2.5 3.71 5.63 22.73 6.48 42.48 7.33 63.48m-11.41 3.74c-10.66 1.46-28.54 8.5-33.35 11.23a63 63 0 0 0-6.85 4.2 2.35 2.35 0 0 0-.46 3.37 3 3 0 0 0 1.18.84 16 16 0 0 0 6.13 1.21c10.5.56 27.31-.23 36.52-2.69 2.22-.59 2.68-4.09 2.56-7.4" class="a"/><path d="M240.38 82.22a23 23 0 0 1 7.02 1.62 13 13 0 0 1 3.9 2.9 95 95 0 0 1 8.08 9.28c6.28 7.97 12.07 16.33 17.9 24.63l4.32 6.12q1.52 2.09 2.92 4.24a38 38 0 0 1 1.51 2.56 4.4 4.4 0 0 1 .87 2.24l.28-1c.2-.44.58-.42-.06-.1l-1 .5-.44.22c.04-.01.46-.05.34-.13-.38-.28-.82-.47-1.2-.78q-2.82-2.3-5.54-4.71-5.4-4.78-10.5-9.87c-7.03-7-13.69-14.38-20.2-21.86-3.82-4.37-7.59-8.8-11.36-13.2-1.67-1.97-4.49.87-2.82 2.82 8.22 9.63 16.44 19.28 25.14 28.48q6.2 6.59 12.81 12.75 3.32 3.08 6.76 6.02c1.88 1.6 4.27 4.37 6.95 4.38a6.6 6.6 0 0 0 2.85-1.05 2.9 2.9 0 0 0 2-2.47 7.4 7.4 0 0 0-1.2-3.86 41 41 0 0 0-2.49-4.11c-2.6-3.87-5.37-7.63-8.05-11.44A513 513 0 0 0 262 92.93a86 86 0 0 0-8.42-9.56 16 16 0 0 0-5.3-3.46 29 29 0 0 0-7.9-1.7 2 2 0 0 0-2 2 2.04 2.04 0 0 0 2 2m-11.56-15.64c-1.95-3.05-3.96-6.07-5.63-9.28-1.57-3.02-1.88-6.38-2.1-9.8-.55-9.1.3-18.26 1.18-27.3.37-3.8.45-7.79 1.25-11.51.31-1.5.97-2.99 1.22-4.48.05-.35 0 .09-.07.15l-.64.62.07-.04a3 3 0 0 0 .72-.4q.46-.27.93-.52l.33-.18c.51-.45-1.39-.53-1.24.03a12 12 0 0 0 .67 1.16 9 9 0 0 1 .38 1.2q.56 2.15 1.02 4.32.92 4.09 1.68 8.21 1.42 7.73 2.29 15.56c1.3 11.58 1.8 23.22 2.27 34.86.1 2.57 4.1 2.58 4 0-.45-11.12-.92-22.24-2.1-33.3a244 244 0 0 0-2.4-17.03q-.8-4.46-1.78-8.89c-.58-2.6-.95-5.6-2.41-7.9a4.2 4.2 0 0 0-2.4-2 3.2 3.2 0 0 0-2.43.55c-1.24.68-2.24 1.13-2.75 2.53-1.34 3.62-1.67 7.42-2.04 11.23-.94 9.65-2.03 19.34-1.89 29.04a73 73 0 0 0 .46 7.59 23 23 0 0 0 1.36 6.28c1.7 4 4.26 7.66 6.6 11.32 1.37 2.16 4.84.16 3.45-2.02m-5.61 4.41c-6.9.98-13.66 3.23-20.18 5.62a101 101 0 0 0-16.26 7.31c-2.4 1.4-6.24 3.1-6.22 6.37.03 4.94 6.88 5.35 10.46 5.52a162 162 0 0 0 22.92-.63 93 93 0 0 0 12.12-1.82c1.87-.43 3.45-1.06 4.35-2.89a14 14 0 0 0 1.07-6.79c-.08-2.57-4.08-2.58-4 0a11 11 0 0 1-.52 4.78c-.46 1.04-1.82 1.02-2.85 1.24a86 86 0 0 1-9.23 1.39 168 168 0 0 1-20.92.82 91 91 0 0 1-4.55-.2 15 15 0 0 1-2.5-.36c-.5-.12-2.17-.42-2.34-1.03-.13-.47 1.34-1.19 1.75-1.45q1.91-1.19 3.88-2.3a89 89 0 0 1 13.74-6.04c6.57-2.41 13.39-4.7 20.34-5.68a2 2 0 0 0 1.4-2.46 2.05 2.05 0 0 0-2.46-1.4" class="b"/><path d="m228.2 66.91-2.07 1.19c-1.27.73-2.02 2.34-2.02 4.54a14.7 14.7 0 0 0 6.97 12.17c2.08 1.2 3.8 1.38 5.01.68l2.08-1.2c1.25-.72 1.95-2.37 1.95-4.8a15 15 0 0 0-6.96-12.02c-2.02-1.16-3.73-1.27-4.96-.56" class="a"/><path d="M227.19 65.18a12 12 0 0 0-3.43 2.35c-1.64 1.96-1.82 4.61-1.5 7.05a16.6 16.6 0 0 0 7.8 11.96c2.16 1.24 4.73 1.9 7.04.68a13 13 0 0 0 3.08-1.97c1.6-1.58 2.03-4.08 1.93-6.24a16 16 0 0 0-1.89-6.68c-2.2-4.28-7.82-9.91-13.04-7.15-2.27 1.21-.25 4.67 2.02 3.46a2 2 0 0 1 1.6-.03 7 7 0 0 1 2.43 1.3 13 13 0 0 1 3.15 3.73 13 13 0 0 1 1.67 4.69c.17 1.2.12 3.08-.63 4.04.06-.08.18-.2-.07.05-.41.41.16-.08-.12.1l-.3.17-1.47.86c-.89.5-1.53.47-2.77-.13a12.4 12.4 0 0 1-6.29-8.25c-.37-1.55-.64-3.76.35-5.04-.17.22.29-.26.27-.24-.15.12 0 0 .12-.07l.49-.28 1.56-.9c2.24-1.29.23-4.75-2-3.46M241.9 34.6a11 11 0 0 1 1.48.02c.06 0 .52.07.23.02l.22.05a13 13 0 0 1 1.82.5c.06.02.54.22.3.11l.22.1.44.22q.44.24.86.5l.34.23.27.19c-.2-.15.14.12.18.15l.38.32q.34.3.65.64l.6.68c.3.35-.15-.23.1.12l.27.4a14 14 0 0 1 .88 1.59c-.2-.42.02.06.05.13l.16.47q.15.47.25.96a2 2 0 0 0 2.46 1.4 2.05 2.05 0 0 0 1.4-2.47A13.6 13.6 0 0 0 241.9 30.6a2 2 0 0 0 0 4" class="b"/><path d="m199.94 235.57 19.6-23.19 11.06 6.33a2 2 0 0 0 .54.2c-6.94 4.05-25.9 14.73-34.26 20.28Z" class="a"/><path d="M240.62 196.67v-9.27l-21.07 24.98q5.67 3.26 11.05 6.33a2 2 0 0 0 1.98 0l7.55-4.34a1 1 0 0 0 .5-.86z" class="a"/><path d="m216.16 212.74 7.04 4.04c2.17 1.25 4.32 2.66 6.58 3.74 2.5 1.2 4.72-.61 6.83-1.82l3.08-1.77a6 6 0 0 0 2.6-2.06c.55-1.06.33-2.57.33-3.74v-28.06c0-2.57-4-2.58-4 0v30.17c.18.55-.53-1.03.15-.4a12 12 0 0 0-1.47.85l-2.7 1.55a14 14 0 0 1-2.85 1.63c-.64.15-2.24-1.1-3-1.52l-3.32-1.9-7.24-4.16c-2.24-1.29-4.26 2.17-2.02 3.45Z" class="b"/><path d="m151.02 129.89-1.13-.65a28712 28712 0 0 1-46.96 55.59c28.09 16.3 65.21 37.95 93.95 54.36 15.3-18.1 33.28-39.36 47-55.66-28.06-16-65.6-37.82-92.86-53.64" class="c"/><path d="M135.5 160.65q28.85 16.74 57.72 33.43l16.24 9.35c2.23 1.29 4.25-2.17 2.02-3.45q-29.08-16.7-58.07-33.56l-15.9-9.22c-2.23-1.3-4.24 2.16-2.01 3.45" class="b"/><path d="m181.23 212.38 30.72-36.33c1.65-1.96-1.16-4.8-2.83-2.83q-15.34 18.18-30.72 36.33c-1.65 1.96 1.17 4.8 2.83 2.83m-22.25-12.86 30.72-36.34c1.66-1.95-1.16-4.8-2.83-2.83q-15.39 18.14-30.72 36.34c-1.65 1.96 1.17 4.8 2.83 2.83m-22.84-13.25q15.4-18.14 30.73-36.33c1.66-1.95-1.16-4.8-2.83-2.83l-30.73 36.33c-1.65 1.95 1.16 4.8 2.83 2.83" class="b"/><path d="M165.6 221.2c-21.48-12.41-44.06-25.56-62.67-36.37q2.08-2.45 4.2-4.98c26.84 15.58 61.54 35.8 88.64 51.28 13.66-16.13 29.7-35.1 42.78-50.64l5.32 3.04a21326 21326 0 0 1-47 55.66 8188 8188 0 0 1-31.28-17.99" class="a"/><path d="M197.16 232.56q15.58-18.39 31.12-36.81l8-9.52c1.65-1.96-1.16-4.8-2.82-2.83q-15.16 18.04-30.4 36.02l-8.72 10.31c-1.66 1.96 1.16 4.8 2.82 2.83" class="b"/><path d="M111.03 184.4q32.88 19.08 65.77 38.14 8.97 5.17 17.96 10.3c2.24 1.28 4.25-2.17 2.02-3.45-22.15-12.65-44.2-25.47-66.25-38.29l-17.48-10.15c-2.23-1.3-4.25 2.16-2.02 3.45" class="b"/><path d="m152.03 128.16-1.13-.65a2 2 0 0 0-2.42.31q-18.25 21.67-36.55 43.28l-10.42 12.32a2.03 2.03 0 0 0 .4 3.14q17.97 10.42 35.92 20.86 18.96 11 37.95 21.97 10.04 5.78 20.09 11.52a2 2 0 0 0 2.42-.31q18.72-22.1 37.4-44.25l9.6-11.4a2.03 2.03 0 0 0-.41-3.14q-18.06-10.3-36.06-20.72-18.76-10.84-37.5-21.72zc-2.23-1.3-4.24 2.16-2.02 3.45l35.5 20.6q18.81 10.9 37.65 21.75l19.7 11.3-.4-3.15q-18.24 21.7-36.56 43.33l-10.43 12.33 2.43-.31q-18.22-10.4-36.37-20.93-18.93-10.95-37.83-21.95l-19.76-11.48.4 3.14q18.62-21.99 37.2-44l9.77-11.59-2.43.31 1.13.65c2.24 1.29 4.25-2.17 2.03-3.46" class="b"/><path d="m303.71 296.02 19.61-23.2 11.06 6.33a2 2 0 0 0 .54.21c-6.95 4.04-25.9 14.72-34.26 20.27z" class="a"/><path d="m319.94 273.19 7.03 4.03c2.18 1.25 4.33 2.66 6.59 3.74 2.5 1.2 4.71-.6 6.82-1.82l3.09-1.77a6 6 0 0 0 2.6-2.06c.55-1.06.33-2.57.33-3.73V243.5c0-2.57-4-2.57-4 0v30.17c.17.55-.53-1.03.15-.39a12 12 0 0 0-1.47.84l-2.71 1.56a14 14 0 0 1-2.84 1.62c-.64.15-2.24-1.09-3-1.52l-3.32-1.9-7.25-4.16c-2.23-1.28-4.25 2.17-2.01 3.46Z" class="b"/><path d="m254.8 190.33-1.12-.65c-14 16.6-31.71 37.57-46.97 55.6 28.1 16.3 65.22 37.95 93.95 54.35a24874 24874 0 0 0 47-55.65c-28.06-16-65.6-37.82-92.86-53.65" class="c"/><path d="M239.27 221.1q28.85 16.73 57.72 33.42 8.11 4.69 16.24 9.36c2.23 1.28 4.25-2.17 2.02-3.46q-29.08-16.7-58.06-33.56l-15.9-9.22c-2.23-1.3-4.25 2.16-2.02 3.45Z" class="b"/><path d="m285.01 272.82 30.72-36.33c1.65-1.95-1.16-4.8-2.83-2.82q-15.34 18.17-30.72 36.33c-1.65 1.95 1.17 4.8 2.83 2.82m-22.25-12.86 30.72-36.34c1.66-1.95-1.16-4.8-2.83-2.82q-15.4 18.14-30.72 36.34c-1.65 1.95 1.17 4.8 2.83 2.82m-22.84-13.25q15.39-18.14 30.73-36.33c1.66-1.95-1.16-4.8-2.83-2.82q-15.37 18.15-30.73 36.33c-1.65 1.95 1.16 4.8 2.83 2.82" class="b"/><path d="M269.37 281.64c-21.47-12.41-44.05-25.56-62.67-36.36q2.09-2.46 4.22-5c26.83 15.6 61.53 35.8 88.63 51.29 13.65-16.13 29.7-35.1 42.78-50.64q2.7 1.56 5.32 3.04a24874 24874 0 0 1-47 55.66 8188 8188 0 0 1-31.28-17.99" class="a"/><path d="M300.94 293q15.58-18.39 31.12-36.81l8-9.51c1.65-1.96-1.16-4.8-2.82-2.83q-15.17 18.03-30.4 36.01l-8.73 10.32c-1.65 1.95 1.16 4.8 2.83 2.82" class="b"/><path d="M214.81 244.85q32.88 19.08 65.77 38.13 8.97 5.17 17.96 10.31c2.23 1.28 4.25-2.18 2.01-3.45a9895 9895 0 0 1-66.24-38.3l-17.48-10.15c-2.23-1.3-4.25 2.16-2.02 3.46" class="b"/><path d="m255.8 188.6-1.12-.65a2 2 0 0 0-2.43.32q-18.24 21.66-36.54 43.28l-10.42 12.31a2.03 2.03 0 0 0 .41 3.14l35.91 20.86q18.96 11 37.96 21.97 10.03 5.78 20.08 11.52a2 2 0 0 0 2.42-.3q18.72-22.12 37.4-44.26l9.6-11.4a2.03 2.03 0 0 0-.4-3.15q-18.07-10.3-36.06-20.71-18.76-10.84-37.5-21.72zc-2.23-1.3-4.25 2.16-2.02 3.45l35.5 20.6q18.8 10.9 37.65 21.75 9.84 5.66 19.7 11.3l-.4-3.15q-18.25 21.7-36.56 43.33l-10.43 12.33 2.42-.31q-18.22-10.4-36.37-20.93-18.93-10.96-37.83-21.95l-19.75-11.48.4 3.14q18.62-22 37.2-44.01l9.77-11.58-2.43.3 1.13.66c2.23 1.3 4.24-2.16 2.01-3.45" class="b"/><path d="M109.27 287.9c6.33-7.47 13.02-15.38 19.6-23.19l11.06 6.33a2 2 0 0 0 .54.21c-6.94 4.04-25.9 14.72-34.26 20.27z" class="a"/><path d="M149.95 249v-9.27c-6.47 7.69-13.71 16.27-21.07 24.98l11.05 6.33a2 2 0 0 0 1.98 0c2.38-1.37 5.24-3 7.55-4.34a1 1 0 0 0 .5-.85z" class="a"/><path d="m125.5 265.08 7.03 4.03c2.18 1.25 4.33 2.66 6.59 3.74 2.5 1.2 4.71-.61 6.82-1.82l3.09-1.77a6 6 0 0 0 2.6-2.06c.54-1.06.33-2.57.33-3.73V235.4c0-2.57-4-2.57-4 0v30.17c.17.55-.54-1.03.14-.4a12 12 0 0 0-1.47.85l-2.7 1.56a14 14 0 0 1-2.85 1.62c-.64.15-2.24-1.09-3-1.52l-3.32-1.9-7.24-4.16c-2.24-1.28-4.26 2.17-2.02 3.46" class="b"/><path d="m60.35 182.22-1.12-.65c-13.99 16.6-31.71 37.57-46.97 55.6 28.1 16.3 65.22 37.95 93.95 54.35a25111 25111 0 0 0 47-55.65c-28.05-16-65.6-37.83-92.86-53.65" class="c"/><path d="M44.83 212.98q28.84 16.74 57.71 33.43 8.12 4.69 16.25 9.36c2.23 1.28 4.25-2.17 2.01-3.46q-29.07-16.7-58.06-33.56l-15.9-9.22c-2.23-1.3-4.24 2.16-2.02 3.45Z" class="b"/><path d="m90.57 264.71 30.72-36.33c1.65-1.95-1.17-4.8-2.83-2.82q-15.35 18.17-30.72 36.33c-1.65 1.95 1.16 4.8 2.83 2.82m-22.25-12.86 30.72-36.34c1.65-1.95-1.16-4.8-2.83-2.82q-15.4 18.14-30.72 36.34c-1.65 1.95 1.16 4.8 2.83 2.82M45.48 238.6q15.39-18.14 30.73-36.33c1.65-1.95-1.17-4.8-2.83-2.83Q58 217.6 42.65 235.78c-1.66 1.95 1.16 4.79 2.83 2.82" class="b"/><path d="M74.93 273.53c-21.48-12.41-44.06-25.56-62.67-36.37l4.21-4.98c26.84 15.58 61.53 35.8 88.63 51.27 13.66-16.12 29.7-35.1 42.78-50.63q2.7 1.56 5.32 3.04a21326 21326 0 0 1-47 55.66 8216 8216 0 0 1-31.27-17.99" class="a"/><path d="M106.5 284.9q15.58-18.4 31.12-36.82l8-9.52c1.65-1.95-1.17-4.8-2.82-2.82q-15.17 18.03-30.4 36.01l-8.73 10.32c-1.65 1.95 1.16 4.8 2.83 2.82Z" class="b"/><path d="M20.37 236.73q32.87 19.09 65.76 38.14 8.97 5.17 17.96 10.3c2.24 1.29 4.26-2.17 2.02-3.45-22.15-12.64-44.2-25.47-66.25-38.29l-17.48-10.15c-2.23-1.3-4.24 2.16-2.01 3.45" class="b"/><path d="m61.36 180.5-1.12-.65a2 2 0 0 0-2.43.31q-18.24 21.66-36.54 43.28l-10.42 12.32a2.03 2.03 0 0 0 .4 3.14l35.9 20.86q18.97 11 37.96 21.97 10.04 5.77 20.09 11.51a2 2 0 0 0 2.42-.3q18.72-22.12 37.4-44.26l9.6-11.4a2.03 2.03 0 0 0-.41-3.14q-18.06-10.3-36.06-20.72-18.75-10.84-37.49-21.72zc-2.23-1.3-4.24 2.16-2.01 3.45l35.49 20.6q18.81 10.9 37.65 21.75l19.7 11.3-.4-3.14q-18.24 21.7-36.56 43.33L104.8 290.1l2.42-.3Q89 279.38 70.85 268.85 51.93 257.9 33.02 246.9l-19.75-11.47.4 3.14q18.62-22 37.2-44.02l9.76-11.58-2.42.32 1.12.65c2.24 1.3 4.26-2.16 2.03-3.45" class="b"/><path d="m213.05 348.35 19.6-23.2q5.68 3.27 11.06 6.34a2 2 0 0 0 .54.2c-6.94 4.05-25.9 14.72-34.26 20.27Z" class="a"/><path d="m229.27 325.52 7.04 4.04c2.17 1.24 4.32 2.65 6.58 3.73 2.5 1.2 4.72-.6 6.83-1.82l3.08-1.76a6 6 0 0 0 2.6-2.07c.55-1.05.33-2.56.33-3.73v-28.06c0-2.58-4-2.58-4 0v30.17c.18.55-.53-1.04.15-.4a12 12 0 0 0-1.47.85l-2.7 1.55a14 14 0 0 1-2.85 1.63c-.64.15-2.24-1.1-3-1.53l-3.32-1.9-7.24-4.15c-2.24-1.29-4.26 2.17-2.02 3.45Z" class="b"/><path d="M164.13 242.67 163 242a26006 26006 0 0 1-46.97 55.6c28.1 16.3 65.22 37.95 93.96 54.35a26588 26588 0 0 0 46.99-55.65c-28.04-16-65.59-37.82-92.85-53.64" class="c"/><path d="M148.6 273.43q28.85 16.74 57.72 33.43l16.24 9.35c2.24 1.29 4.26-2.17 2.02-3.45q-29.07-16.7-58.06-33.56l-15.9-9.23c-2.23-1.3-4.25 2.16-2.02 3.46" class="b"/><path d="m194.34 325.16 30.72-36.33c1.65-1.96-1.16-4.8-2.82-2.83q-15.35 18.18-30.72 36.33c-1.66 1.95 1.16 4.8 2.82 2.83M172.1 312.3l30.72-36.34c1.66-1.95-1.16-4.8-2.82-2.83q-15.4 18.14-30.72 36.34c-1.66 1.96 1.16 4.8 2.82 2.83m-22.84-13.25q15.4-18.15 30.73-36.33c1.66-1.96-1.16-4.8-2.82-2.83q-15.38 18.16-30.73 36.33c-1.66 1.95 1.16 4.8 2.82 2.83" class="b"/><path d="M178.7 333.97c-21.47-12.4-44.05-25.56-62.66-36.36l4.21-4.99c26.83 15.59 61.53 35.8 88.63 51.28 13.66-16.12 29.7-35.1 42.78-50.63l5.32 3.04c-13.7 16.3-31.68 37.57-47 55.65a6600 6600 0 0 1-31.27-17.99" class="a"/><path d="M210.27 345.34q15.58-18.4 31.12-36.82l8-9.51c1.66-1.96-1.16-4.8-2.82-2.83q-15.16 18.04-30.4 36.02l-8.72 10.31c-1.66 1.95 1.16 4.8 2.82 2.83" class="b"/><path d="M124.14 297.18q32.88 19.08 65.77 38.14 8.97 5.16 17.96 10.3c2.24 1.28 4.26-2.17 2.02-3.45-22.15-12.65-44.2-25.48-66.25-38.3l-17.48-10.15c-2.23-1.3-4.24 2.16-2.02 3.46" class="b"/><path d="m165.14 240.94-1.13-.65a2 2 0 0 0-2.42.3q-18.25 21.67-36.55 43.29-5.2 6.16-10.42 12.31a2.03 2.03 0 0 0 .4 3.15q17.97 10.42 35.92 20.86 18.96 11 37.95 21.96 10.04 5.79 20.09 11.53a2 2 0 0 0 2.42-.31q18.72-22.11 37.4-44.25l9.6-11.4a2.03 2.03 0 0 0-.41-3.15q-18.06-10.3-36.06-20.72-18.76-10.84-37.5-21.72l-19.3-11.2c-2.23-1.3-4.25 2.16-2.02 3.45l35.5 20.6q18.8 10.9 37.65 21.75 9.84 5.66 19.7 11.3l-.4-3.15q-18.24 21.7-36.56 43.33l-10.43 12.33 2.43-.31q-18.22-10.4-36.37-20.93-18.93-10.95-37.83-21.95l-19.75-11.48.4 3.14q18.62-21.99 37.2-44.01l9.76-11.58-2.42.31 1.13.65c2.23 1.3 4.25-2.16 2.02-3.45" class="b"/><path d="M23.04 69.11a15.5 15.5 0 0 0-12.4 18.5c1.85 9.29 9.6 14.39 18.63 12.59 9.37-1.88 14.2-9.56 12.35-18.79a15.5 15.5 0 0 0-18.58-12.3" style="fill:#febe69"/><path d="M71.26 51.44 50.5 65.6c-2.11 1.44-.12 4.9 2.02 3.45Q62.91 62 73.28 54.9c2.1-1.45.1-4.92-2.02-3.46m-44.78 63.79 1.9 25.1c.19 2.55 4.19 2.57 4 0l-1.91-25.1c-.2-2.55-4.2-2.57-4 0ZM3.7 136l10.73-22.31a2.05 2.05 0 0 0-.72-2.74 2 2 0 0 0-2.73.72L.24 133.97a2.05 2.05 0 0 0 .72 2.74A2 2 0 0 0 3.7 136m55.68-6.25-14.01-20.51c-1.44-2.12-4.91-.12-3.45 2.01l14 20.52c1.45 2.12 4.92.12 3.46-2.02M53.24 99.9l22.24 10.68a2.05 2.05 0 0 0 2.73-.72 2 2 0 0 0-.71-2.73l-22.24-10.7a2.05 2.05 0 0 0-2.74.72 2 2 0 0 0 .72 2.74m28.6-21.45-25.22 1.91c-2.55.2-2.57 4.2 0 4q12.6-.97 25.21-1.91c2.55-.2 2.58-4.2 0-4M22.5 67.19A17.7 17.7 0 0 0 8.43 82.52c-.82 7.13 2.88 14.94 9.4 18.2a19.3 19.3 0 0 0 20.78-2.9C44 93.06 45.3 84.9 42.81 78.3a17.8 17.8 0 0 0-7.76-9.26 18.3 18.3 0 0 0-12.53-1.85c-2.53.48-1.46 4.33 1.06 3.86a13.6 13.6 0 0 1 14.62 6.7c2.64 4.8 2.58 11.55-1.03 15.84a15.2 15.2 0 0 1-15.65 4.33c-5.47-1.72-8.93-7.2-9.18-12.8a13.7 13.7 0 0 1 11.24-14.08c2.51-.53 1.45-4.39-1.07-3.85" class="b"/><path d="M361.48 142.3c.47 19.37 1.57 66.25 1.63 72.9a3.7 3.7 0 0 1-2.07 3.05 9.7 9.7 0 0 1-9.95.05 3.9 3.9 0 0 1-2.16-3.07c.13-12.72.29-46.74.66-64.83" class="a"/><path d="m359.48 142.3.68 28.6.7 31.1.2 10.32a21 21 0 0 1 .05 2.8c-.15 1.2-1.67 1.85-2.7 2.17a8 8 0 0 1-4.48.1c-1.08-.3-2.82-.98-3-2.24a18 18 0 0 1 .02-2.69l.06-6.54.12-16.6c.1-11.76.19-23.52.4-35.28l.06-3.63c.06-2.57-3.94-2.57-4 0-.24 12.02-.33 24.04-.43 36.06l-.14 17.86-.06 7.1c-.02 2.4-.43 5 1.2 6.97 2.34 2.84 6.54 3.66 10 3.06 3.28-.55 6.86-2.71 6.96-6.36.07-2.62-.09-5.26-.14-7.87q-.31-15.23-.68-30.47l-.74-31.49-.07-2.96c-.06-2.57-4.06-2.58-4 0Z" class="b"/><path d="m349.62 148.49 7.13-4.13 28.28-16.32c1.25-.72 1.95-2.37 1.95-4.8a15 15 0 0 0-6.97-12.02c-2.01-1.17-3.73-1.27-4.94-.57l-35.97 20.76" class="a"/><path d="M350.63 150.21c3.75-2.17 7.5-4.3 11.34-6.33a249 249 0 0 0 21.93-12.6c1.62-1.09 3.34-2.14 4.18-3.98 1.21-2.65 1-5.9.33-8.68-1.27-5.22-6.25-10.45-12.04-9.85-1.78.18-3.51 1.34-5.08 2.16q-2.49 1.3-4.96 2.65-5.84 3.2-11.63 6.5-8.34 4.75-16.61 9.6c-2.22 1.3-.2 4.77 2.02 3.46 11.08-6.51 22.2-13.06 33.6-18.97 1.46-.75 2.58-1.65 4.13-1.36a8.5 8.5 0 0 1 5.8 4.38 12 12 0 0 1 1.24 6.94c-.25 1.95-1.31 2.55-2.8 3.56a236 236 0 0 1-20.92 12.1q-6.33 3.39-12.55 6.98c-2.22 1.28-.21 4.74 2.02 3.45Z" class="b"/><path d="M352.85 144.25c2.78.24 7.5 1.11 10.02 3.05 7.89 6.05 23.89 29.81 33.25 42.96a50 50 0 0 1 4.82 7.75 4 4 0 0 1 .46 1.52.7.7 0 0 1-.3.69l-2.12 1.06c-.57.28-1.71-.17-2.6-.9-17.43-14.16-32.3-31.53-48.1-50.06m-8.73-18.7c-1.87-2.95-6.46-9.88-7.06-12.73-2.56-12.15.07-31.86 1.2-44.45a32 32 0 0 1 1.77-7.14s2.23-1.27 2.33-1.28c1.05-.1 2.1 2.15 2.5 3.71 5.63 22.73 6.47 42.48 7.32 63.48m-11.41 3.74c-10.65 1.47-28.54 8.5-33.35 11.23a63 63 0 0 0-6.85 4.2 2.35 2.35 0 0 0-.46 3.37 3 3 0 0 0 1.18.84 16 16 0 0 0 6.13 1.22c10.5.55 27.32-.24 36.52-2.7 2.22-.58 2.68-4.08 2.56-7.4" class="a"/><path d="M352.85 146.25a23 23 0 0 1 7.01 1.62 13 13 0 0 1 3.91 2.9 95 95 0 0 1 8.07 9.28c6.28 7.97 12.08 16.33 17.9 24.63l4.33 6.13c1 1.4 2 2.79 2.91 4.23q.81 1.24 1.52 2.56a4.4 4.4 0 0 1 .87 2.24l.27-1c.2-.43.59-.42-.05-.1l-1 .5-.45.23c.05-.02.46-.06.35-.14-.38-.28-.83-.47-1.21-.78q-2.81-2.3-5.54-4.71-5.4-4.78-10.5-9.87a422 422 0 0 1-20.2-21.86q-5.7-6.57-11.35-13.2c-1.67-1.97-4.49.87-2.83 2.82 8.22 9.64 16.44 19.28 25.15 28.48q6.2 6.59 12.81 12.75 3.32 3.08 6.76 6.02c1.88 1.6 4.27 4.37 6.95 4.38a6.6 6.6 0 0 0 2.85-1.05 3 3 0 0 0 1.99-2.47 7.4 7.4 0 0 0-1.2-3.86 41 41 0 0 0-2.48-4.11c-2.6-3.87-5.37-7.63-8.05-11.44a513 513 0 0 0-17.17-23.47 86 86 0 0 0-8.42-9.56 16 16 0 0 0-5.3-3.46 29 29 0 0 0-7.9-1.7 2 2 0 0 0-2 2 2.04 2.04 0 0 0 2 2Zm-11.57-15.64c-1.94-3.05-3.95-6.07-5.62-9.28-1.58-3.02-1.89-6.38-2.1-9.8-.55-9.1.3-18.25 1.18-27.3.36-3.8.45-7.79 1.24-11.51.32-1.5.98-2.99 1.22-4.48.06-.35 0 .09-.07.16l-.64.62.08-.04a3 3 0 0 0 .71-.41l.93-.52.34-.18c.5-.45-1.4-.53-1.25.03a12 12 0 0 0 .67 1.17 9 9 0 0 1 .38 1.2c.39 1.42.7 2.87 1.03 4.31q.92 4.1 1.68 8.21 1.42 7.74 2.28 15.56c1.3 11.58 1.8 23.23 2.27 34.86.1 2.57 4.1 2.58 4 0-.45-11.11-.92-22.24-2.1-33.3q-.89-8.55-2.39-17.03-.8-4.46-1.78-8.88c-.58-2.61-.95-5.6-2.42-7.9a4.2 4.2 0 0 0-2.4-2 3.2 3.2 0 0 0-2.42.54c-1.25.68-2.24 1.13-2.76 2.53-1.34 3.62-1.66 7.43-2.03 11.24-.95 9.64-2.03 19.33-1.9 29.04a74 74 0 0 0 .46 7.57 22 22 0 0 0 1.36 6.28c1.71 4.01 4.26 7.66 6.6 11.32 1.38 2.16 4.84.16 3.45-2.02Zm-5.6 4.42c-6.9.97-13.67 3.23-20.19 5.61a101 101 0 0 0-16.26 7.31c-2.4 1.4-6.24 3.1-6.21 6.37.03 4.94 6.87 5.35 10.45 5.52a162 162 0 0 0 22.93-.63 93 93 0 0 0 12.12-1.81c1.87-.44 3.44-1.07 4.35-2.9a14 14 0 0 0 1.06-6.78c-.07-2.57-4.07-2.58-4 0a11 11 0 0 1-.52 4.77c-.46 1.05-1.82 1.03-2.84 1.25a86 86 0 0 1-9.23 1.38 168 168 0 0 1-20.92.82 91 91 0 0 1-4.55-.19 15 15 0 0 1-2.5-.36c-.51-.13-2.18-.43-2.34-1.04-.13-.47 1.33-1.19 1.75-1.45a99 99 0 0 1 3.87-2.3 89 89 0 0 1 13.75-6.04c6.57-2.41 13.38-4.7 20.34-5.68a2 2 0 0 0 1.4-2.46 2.05 2.05 0 0 0-2.46-1.4Z" class="b"/><path d="m340.66 130.94-2.07 1.2c-1.27.73-2.01 2.34-2.01 4.54a14.7 14.7 0 0 0 6.97 12.16c2.07 1.2 3.8 1.38 5 .68l2.08-1.2c1.25-.72 1.96-2.37 1.96-4.8a15 15 0 0 0-6.97-12.01c-2.02-1.17-3.73-1.28-4.96-.57" class="a"/><path d="M339.65 129.22a12 12 0 0 0-3.43 2.34c-1.64 1.96-1.82 4.62-1.5 7.06a16.6 16.6 0 0 0 7.81 11.95c2.16 1.24 4.73 1.9 7.03.68a13 13 0 0 0 3.09-1.97c1.6-1.58 2.02-4.08 1.92-6.23a16 16 0 0 0-1.88-6.69c-2.2-4.28-7.83-9.91-13.04-7.14-2.28 1.2-.26 4.66 2.02 3.45a2 2 0 0 1 1.6-.03 8 8 0 0 1 2.42 1.3 13 13 0 0 1 3.15 3.73 13 13 0 0 1 1.68 4.69c.16 1.21.12 3.08-.64 4.04.07-.08.18-.2-.07.05-.4.41.17-.08-.11.1l-.3.18-1.48.85c-.88.5-1.53.47-2.76-.13a12.4 12.4 0 0 1-6.3-8.24c-.37-1.56-.64-3.77.36-5.05-.17.23.29-.26.26-.24-.14.12.01.01.13-.06l.49-.29 1.56-.9c2.24-1.29.23-4.74-2-3.45" class="b"/></svg>
