<svg xmlns="http://www.w3.org/2000/svg" fill="none" viewBox="0 0 24 24"><path fill="currentColor" fill-rule="evenodd" d="M3.6 2.25c-.75 0-1.35.6-1.35 1.35v16.8c0 .75.6 1.35 1.35 1.35h16.8c.75 0 1.35-.6 1.35-1.35V3.6c0-.75-.6-1.35-1.35-1.35zm6 4c-.75 0-1.35.6-1.35 1.35v9.3c0 .75.6 1.35 1.35 1.35H12v-.75.75h.18a5 5 0 0 0 1.63-.41c.46-.21.95-.54 1.33-1.06q.59-.78.61-2.03-.02-1.24-.61-2.03a3 3 0 0 0-.88-.82q.26-.22.47-.54.5-.73.52-1.86-.02-1.13-.52-1.86c-.32-.48-.74-.8-1.14-1-.79-.39-1.55-.39-1.59-.39zm.15 6.5h2.26l.35.03q.36.05.83.25.45.19.73.57c.19.25.33.6.33 1.15s-.14.9-.33 1.15q-.28.38-.73.57a3 3 0 0 1-1.18.28H9.75zm2.25-1.5H9.75v-3.5H12c.03 0 .48.02.91.23q.35.17.58.5c.14.2.26.53.26 1.02 0 .5-.12.81-.26 1.03q-.23.32-.58.49a2 2 0 0 1-.9.23z" clip-rule="evenodd"/></svg>
