<svg xmlns="http://www.w3.org/2000/svg" fill="none" stroke-width="1.5" viewBox="0 0 24 24"><path fill="currentColor" fill-rule="evenodd" d="M21.75 20.4c0 .75-.6 1.35-1.35 1.35H3.6c-.75 0-1.35-.6-1.35-1.35V3.6c0-.75.6-1.35 1.35-1.35h16.8c.75 0 1.35.6 1.35 1.35z" clip-rule="evenodd"/><path fill="currentColor" stroke="currentColor" stroke-linecap="round" stroke-linejoin="round" d="M5.5 6a.5.5 0 1 0 0-1 .5.5 0 0 0 0 1m0 6.5a.5.5 0 1 0 0-1 .5.5 0 0 0 0 1m0 6.5a.5.5 0 1 0 0-1 .5.5 0 0 0 0 1M12 6a.5.5 0 1 0 0-1 .5.5 0 0 0 0 1m0 6.5a.5.5 0 1 0 0-1 .5.5 0 0 0 0 1m0 6.5a.5.5 0 1 0 0-1 .5.5 0 0 0 0 1m6.5-13a.5.5 0 1 0 0-1 .5.5 0 0 0 0 1m0 6.5a.5.5 0 1 0 0-1 .5.5 0 0 0 0 1m0 6.5a.5.5 0 1 0 0-1 .5.5 0 0 0 0 1"/></svg>
