<svg xmlns="http://www.w3.org/2000/svg" fill="none" stroke-width="1.5" viewBox="0 0 24 24"><g clip-path="url(#clip0_4161_11246)"><path fill="currentColor" fill-rule="evenodd" d="m13.72 15.3-.03.01-.5.17c-.35.09-.78.17-1.19.17a5 5 0 0 1-1.7-.34h-.02a.75.75 0 0 0-.91.28l-3 4.67a.75.75 0 0 0 .25 1.05 10.7 10.7 0 0 0 10.76 0 .75.75 0 0 0 .25-1.05l-3-4.67a.75.75 0 0 0-.9-.29M14 8.86l.02.02.4.36c.25.25.53.58.74.93a5 5 0 0 1 .55 1.64v.02c.06.36.36.63.71.65l5.54.27a.75.75 0 0 0 .79-.75 10.7 10.7 0 0 0-5.38-9.31.75.75 0 0 0-1.04.3L13.8 7.93a.75.75 0 0 0 .2.94m-5.72 2.98v-.03l.12-.52c.1-.35.23-.76.44-1.12a5 5 0 0 1 1.14-1.3l.02-.01a.75.75 0 0 0 .2-.94L7.67 3a.75.75 0 0 0-1.05-.31A10.7 10.7 0 0 0 1.25 12a.75.75 0 0 0 .78.75l5.54-.27a.75.75 0 0 0 .7-.64m6.47.16a2.75 2.75 0 1 0-5.5 0 2.75 2.75 0 0 0 5.5 0" clip-rule="evenodd"/></g><defs><clipPath id="clip0_4161_11246"><path fill="currentColor" d="M0 0h24v24H0z"/></clipPath></defs></svg>
