<svg xmlns="http://www.w3.org/2000/svg" fill="none" viewBox="0 0 24 24"><path fill="currentColor" fill-rule="evenodd" d="M7.78 1.36A2.75 2.75 0 0 0 4.6 3.59L2.17 17.37a2.75 2.75 0 0 0 2.23 3.19l11.82 2.08c1.5.27 2.92-.73 3.18-2.23l2.43-13.78a2.75 2.75 0 0 0-2.23-3.19zm1.28 4.28a.75.75 0 1 0-.26 1.48l7.88 1.39a.75.75 0 0 0 .26-1.48zM7.5 10.2c.07-.4.46-.68.86-.6l7.88 1.38a.75.75 0 1 1-.26 1.48l-7.88-1.4a.75.75 0 0 1-.6-.87m.17 3.33A.75.75 0 1 0 7.41 15l4.92.87a.75.75 0 1 0 .26-1.48z" clip-rule="evenodd"/></svg>
