<svg xmlns="http://www.w3.org/2000/svg" fill="none" viewBox="0 0 24 24"><path fill="currentColor" fill-rule="evenodd" d="M3.6 2.25c-.75 0-1.35.6-1.35 1.35v16.8c0 .75.6 1.35 1.35 1.35h16.8c.75 0 1.35-.6 1.35-1.35V3.6c0-.75-.6-1.35-1.35-1.35zm6.65 8.15c0-.94.72-1.65 1.56-1.65.83 0 1.56.71 1.56 1.65q-.02.49-.24.87c-.46.79-1.45 1.8-2.4 2.67a36 36 0 0 1-1.66 1.45l-.03.02a.75.75 0 0 0 .46 1.34h5a.75.75 0 0 0 0-1.5h-2.97l.22-.2c.94-.86 2.09-2.02 2.68-3.02q.43-.73.44-1.63a3.1 3.1 0 0 0-3.06-3.15 3.1 3.1 0 0 0-3.06 3.15v.4a.75.75 0 0 0 1.5 0z" clip-rule="evenodd"/></svg>
