<svg xmlns="http://www.w3.org/2000/svg" fill="none" stroke-width="1.5" viewBox="0 0 24 24"><path fill="currentColor" fill-rule="evenodd" d="M2.25 3c0-.41.34-.75.75-.75h3a.75.75 0 0 1 0 1.5H3.75V6a.75.75 0 0 1-1.5 0zm15 0c0-.41.34-.75.75-.75h3c.41 0 .75.34.75.75v3a.75.75 0 0 1-1.5 0V3.75H18a.75.75 0 0 1-.75-.75M3 17.25c.41 0 .75.34.75.75v2.25H6a.75.75 0 0 1 0 1.5H3a.75.75 0 0 1-.75-.75v-3c0-.41.34-.75.75-.75m18 0c.41 0 .75.34.75.75v3c0 .41-.34.75-.75.75h-3a.75.75 0 0 1 0-1.5h2.25V18c0-.41.34-.75.75-.75M12.9 6.67a1.8 1.8 0 0 0-1.8 0l-4 2.4c-.53.31-.85.88-.85 1.5v3.86c0 .62.32 1.19.85 1.5l4 2.4c.55.34 1.25.34 1.8 0l4-2.4c.53-.31.85-.88.85-1.5v-3.86c0-.62-.32-1.19-.85-1.5zm-3.54 4A.75.75 0 1 0 8.64 12l2.61 1.45V16a.75.75 0 1 0 1.5 0v-2.55L15.36 12a.75.75 0 0 0-.72-1.31L12 12.14z" clip-rule="evenodd"/></svg>
