<svg xmlns="http://www.w3.org/2000/svg" fill="none" viewBox="0 0 24 24"><path fill="currentColor" fill-rule="evenodd" d="M2.25 3.6c0-.75.6-1.35 1.35-1.35h16.8c.75 0 1.35.6 1.35 1.35v16.8c0 .75-.6 1.35-1.35 1.35H3.6c-.75 0-1.35-.6-1.35-1.35zm11.1 9.45c.22.16.4.42.4.95s-.18.79-.4.95q-.42.29-1.35.3a2.4 2.4 0 0 1-1.34-.3c-.23-.16-.41-.42-.41-.95s.18-.79.4-.95q.42-.29 1.35-.3.93.02 1.34.3M9.57 12a2.6 2.6 0 0 0-.83 2q.02 1.47 1.06 2.18c.63.44 1.43.57 2.19.57s1.56-.13 2.2-.57A2.5 2.5 0 0 0 15.24 14q-.02-1.28-.83-2 .82-.72.83-2-.02-1.47-1.06-2.18A4 4 0 0 0 12 7.25c-.76 0-1.56.13-2.2.57A2.5 2.5 0 0 0 8.76 10q.02 1.28.83 2m2.42-.75a2.4 2.4 0 0 0 1.34-.3c.23-.16.41-.42.41-.95s-.18-.79-.4-.95a2.4 2.4 0 0 0-1.35-.3 2.4 2.4 0 0 0-1.34.3c-.23.16-.41.42-.41.95s.18.79.4.95q.42.29 1.35.3" clip-rule="evenodd"/></svg>
