<svg xmlns="http://www.w3.org/2000/svg" fill="none" stroke-width="1.5" viewBox="0 0 24 24"><path stroke="currentColor" stroke-linecap="round" stroke-linejoin="round" d="M17 14h6m0 0-3-3m3 3-3 3"/><path fill="currentColor" fill-rule="evenodd" d="M.25 7A2.75 2.75 0 0 1 3 4.25h13A2.75 2.75 0 0 1 18.75 7v2.13a2.26 2.26 0 0 0-.87 2.62H17a2.25 2.25 0 0 0 0 4.5h.88c-.27.75-.12 1.61.43 2.24A2.8 2.8 0 0 1 16 19.75H3A2.75 2.75 0 0 1 .25 17zM17 13.25h1.75v1.5H17a.75.75 0 0 1 0-1.5M5.42 8.38a.75.75 0 0 0-.84 1.24l4.5 3c.26.17.58.17.84 0l4.5-3a.75.75 0 0 0-.84-1.24L9.5 11.1z" clip-rule="evenodd"/></svg>
