<svg xmlns="http://www.w3.org/2000/svg" fill="none" viewBox="0 0 24 24"><path fill="currentColor" fill-rule="evenodd" d="M1.25 12a10.75 10.75 0 1 1 21.5 0 10.75 10.75 0 0 1-21.5 0M16.6 8.73q.64 1.26.65 3.27a7 7 0 0 1-.65 3.27 4 4 0 0 1-1.76 1.81c-1.34.72-3 .7-4.19.68h-.06a1.36 1.36 0 0 1-1.34-1.36v-3.65H8a.75.75 0 0 1 0-1.5h1.25V7.6c0-.75.6-1.35 1.34-1.36h.06c1.2-.01 2.85-.04 4.19.68a4 4 0 0 1 1.76 1.81m-5.85 2.52v-3.5c1.24-.02 2.45 0 3.38.5q.69.33 1.13 1.16c.29.57.49 1.4.49 2.59s-.2 2.02-.5 2.6a2.6 2.6 0 0 1-1.12 1.16c-.93.5-2.14.51-3.38.5v-3.51H12a.75.75 0 0 0 0-1.5z" clip-rule="evenodd"/></svg>
