<svg xmlns="http://www.w3.org/2000/svg" fill="none" stroke-width="1.5" viewBox="0 0 24 24"><path fill="currentColor" fill-rule="evenodd" d="M19.95 1.6a.75.75 0 0 0-.97-.27c-.63.31-1.67 1.05-2.5 1.66l-1.1.84-.07.04q-.28-.16-.69-.33A7 7 0 0 0 12 2.92c-1 0-1.95.32-2.62.62q-.4.17-.7.33l-.05-.04L7.55 3a27 27 0 0 0-2.37-1.66.75.75 0 0 0-.99.25C2.61 3.97 2.55 5.87 3 7.24a5 5 0 0 0 .9 1.58 15 15 0 0 0-1.65 6.51c0 .42.34.75.75.75a6.2 6.2 0 0 1 3.83 1.33 11 11 0 0 0 1 2.46c.74 1.31 2.06 2.88 4.17 2.88s3.43-1.57 4.17-2.88a11 11 0 0 0 1-2.46l.1-.08q.26-.21.78-.5a6 6 0 0 1 2.95-.75c.41 0 .75-.33.75-.75 0-2.55-.87-4.9-1.65-6.51l.08-.09c.27-.33.6-.83.83-1.49.47-1.35.45-3.25-1.06-5.64M11 17.25a.75.75 0 0 0 0 1.5h.25V19a.75.75 0 0 0 1.5 0v-.25H13a.75.75 0 0 0 0-1.5zm-3.03-5.28c.3-.3.77-.3 1.06 0l1.5 1.5a.75.75 0 1 1-1.06 1.06l-1.5-1.5a.75.75 0 0 1 0-1.06m8.06 1.06a.75.75 0 1 0-1.06-1.06l-1.5 1.5a.75.75 0 1 0 1.06 1.06z" clip-rule="evenodd"/></svg>
