<svg xmlns="http://www.w3.org/2000/svg" fill="none" stroke-width="1.5" viewBox="0 0 24 24"><path fill="currentColor" fill-rule="evenodd" d="M.25 9A6.75 6.75 0 0 1 7 2.25h10A6.75 6.75 0 0 1 23.75 9v6A6.75 6.75 0 0 1 17 21.75H7A6.75 6.75 0 0 1 .25 15zm4.5 2.83a3.58 3.58 0 0 1 6.1-2.53l.18.17a.75.75 0 0 1-1.06 1.06l-.17-.17a2.08 2.08 0 0 0-3.55 1.47v.34a2.08 2.08 0 0 0 3.55 1.47l.17-.17a.75.75 0 1 1 1.06 1.06l-.17.17a3.58 3.58 0 0 1-6.11-2.53zm11.58-3.58a3.6 3.6 0 0 0-3.58 3.58v.34a3.58 3.58 0 0 0 6.1 2.53l.18-.17a.75.75 0 1 0-1.06-1.06l-.17.17a2.08 2.08 0 0 1-3.55-1.47v-.34a2.08 2.08 0 0 1 3.55-1.47l.17.17a.75.75 0 0 0 1.06-1.06l-.17-.17a3.6 3.6 0 0 0-2.53-1.05" clip-rule="evenodd"/></svg>
