<svg xmlns="http://www.w3.org/2000/svg" fill="none" viewBox="0 0 24 24"><path fill="currentColor" fill-rule="evenodd" d="M1.25 12a10.75 10.75 0 1 1 21.5 0 10.75 10.75 0 0 1-21.5 0m8.85-7.13a.75.75 0 0 1 1.03.23L12 6.46l.87-1.36a.75.75 0 1 1 1.26.8L12.9 7.86l3.43 5.39h1.18a.75.75 0 0 1 0 1.5h-.22l.85 1.35a.75.75 0 1 1-1.26.8L12 9.25l-2.54 4h4.04a.75.75 0 0 1 0 1.5h-5L7.13 16.9a.75.75 0 0 1-1.26-.8l.85-1.35H6.5a.75.75 0 0 1 0-1.5h1.18l3.43-5.4L9.87 5.9a.75.75 0 0 1 .23-1.03" clip-rule="evenodd"/></svg>
