<svg xmlns="http://www.w3.org/2000/svg" fill="none" viewBox="0 0 24 24"><path fill="currentColor" fill-rule="evenodd" d="M2.25 3.6c0-.75.6-1.35 1.35-1.35h16.8c.75 0 1.35.6 1.35 1.35v16.8c0 .75-.6 1.35-1.35 1.35H3.6c-.75 0-1.35-.6-1.35-1.35zm8.4 7.85c-.22-.16-.4-.42-.4-.95 0-.86.24-1.24.46-1.42q.37-.32 1.29-.33.92 0 1.29.33c.22.18.46.56.46 1.42 0 .53-.18.79-.4.95q-.42.29-1.35.3a2.4 2.4 0 0 1-1.34-.3m-.84 1.23a4 4 0 0 0 2.19.57 4 4 0 0 0 1.68-.29q-.09.82-.37 1.26c-.35.54-1.13 1.03-3.31 1.03a.75.75 0 0 0 0 1.5c2.32 0 3.8-.51 4.57-1.72.37-.57.53-1.23.6-1.9q.1-.99.08-2.1V11l-.02-.16.02-.34q.01-1.72-1-2.58A3.5 3.5 0 0 0 12 7.25c-.76 0-1.6.13-2.25.67q-1.01.86-1 2.58.02 1.47 1.06 2.18" clip-rule="evenodd"/></svg>
