<svg xmlns="http://www.w3.org/2000/svg" fill="none" viewBox="0 0 24 24"><path fill="currentColor" fill-rule="evenodd" d="M1.25 12a10.75 10.75 0 1 1 21.5 0 10.75 10.75 0 0 1-21.5 0m10.74-4.25c-2.29 0-4.04 1.53-4.24 3.33a.75.75 0 0 1-1.5-.16c.3-2.7 2.83-4.67 5.74-4.67 1.67 0 3.2.64 4.26 1.7V7.5a.75.75 0 0 1 1.5 0v1.62c0 .75-.6 1.35-1.35 1.35h-1.9a.75.75 0 0 1 0-1.5h.65A4.6 4.6 0 0 0 12 7.75m.02 8.5c2.15 0 4.02-1.83 4.24-4.32a.75.75 0 0 1 1.5.14c-.28 3.12-2.69 5.68-5.74 5.68-1.7 0-3.22-.8-4.26-2.06v.71a.75.75 0 0 1-1.5 0v-2.18c0-.74.6-1.35 1.35-1.35h1.9a.75.75 0 0 1 0 1.5h-.87a4.1 4.1 0 0 0 3.38 1.88" clip-rule="evenodd"/></svg>
