<svg xmlns="http://www.w3.org/2000/svg" fill="none" stroke-width="1.5" viewBox="0 0 24 24"><path fill="currentColor" fill-rule="evenodd" d="M7.25 4c0-.41.34-.75.75-.75h8a.75.75 0 0 1 0 1.5H8A.75.75 0 0 1 7.25 4" clip-rule="evenodd"/><path fill="currentColor" d="M9 3.75c.41 0 .75.34.75.75v4.25c0 1.07-.62 1.96-1.41 2.5a8.6 8.6 0 0 0-2.75 3H18.4a8.6 8.6 0 0 0-2.75-3 3 3 0 0 1-1.41-2.5V4.5a.75.75 0 0 1 1.5 0v4.25c0 .46.27.93.75 1.25 2.36 1.6 4.25 4.31 4.25 7.46q0 1.33-.35 2.55a2.5 2.5 0 0 1-2.45 1.74H6.05a2.5 2.5 0 0 1-2.45-1.74 9 9 0 0 1-.35-2.55c0-3.15 1.89-5.87 4.25-7.46.48-.32.75-.79.75-1.25V4.5c0-.41.34-.75.75-.75"/><path fill="currentColor" fill-rule="evenodd" d="M13.51 6.44c.31.28.33.75.06 1.06l-.01.01a.75.75 0 0 1-1.12-1l.01-.01a.75.75 0 0 1 1.06-.06m-2-5c.31.28.33.75.06 1.06l-.01.01a.75.75 0 0 1-1.12-1l.01-.01a.75.75 0 0 1 1.06-.06" clip-rule="evenodd"/></svg>
