<svg xmlns="http://www.w3.org/2000/svg" fill="none" viewBox="0 0 24 24"><path fill="currentColor" fill-rule="evenodd" d="M12 1.25a10.75 10.75 0 1 0 0 21.5 10.75 10.75 0 0 0 0-21.5m3.75 8.25q.01-1.15-.58-1.94a3 3 0 0 0-1.53-1 6 6 0 0 0-.89-.19V5.5a.75.75 0 0 0-1.5 0v.76H9.6c-.75 0-1.35.6-1.35 1.35v8.79c0 .74.6 1.34 1.35 1.35h1.65v.75a.75.75 0 0 0 1.5 0v-.87q.47-.06.89-.2a3 3 0 0 0 1.53-1q.59-.78.58-1.93 0-1.25-.7-2.05a3 3 0 0 0-.54-.45q.3-.19.53-.45.72-.8.71-2.05m-2.8 1.55q-.84.2-1.95.2H9.75v-3.5c1.47 0 2.63 0 3.44.25q.58.18.79.48c.15.2.27.5.27 1.02 0 .54-.14.85-.32 1.05-.2.2-.5.38-.99.5M11 12.75H9.75v3.5c1.47 0 2.63 0 3.44-.25q.58-.18.79-.48c.15-.2.27-.5.27-1.02 0-.54-.14-.85-.32-1.05-.2-.2-.5-.38-.99-.5a9 9 0 0 0-1.94-.2" clip-rule="evenodd"/></svg>
