<svg xmlns="http://www.w3.org/2000/svg" fill="none" stroke-width="1.5" viewBox="0 0 24 24"><path fill="currentColor" fill-rule="evenodd" d="M14.75 1.91a5.25 5.25 0 0 0 4.07 8.34l.05.6c.24 2.25.78 3.8 1.3 4.8a7 7 0 0 0 1.26 1.74h.01a.75.75 0 0 1-.44 1.36H3a.75.75 0 0 1-.44-1.36l.07-.06q.1-.07.28-.28c.24-.27.58-.72.92-1.4.7-1.34 1.42-3.62 1.42-7.25 0-1.88.7-3.7 1.96-5.04a6.6 6.6 0 0 1 5.92-2 9 9 0 0 1 1.62.55" clip-rule="evenodd"/><path fill="currentColor" fill-rule="evenodd" d="M15.25 5a3.75 3.75 0 1 1 7.5 0 3.75 3.75 0 0 1-7.5 0M9.89 20.35a.75.75 0 0 1 1.03.27 1.25 1.25 0 0 0 2.16 0 .75.75 0 1 1 1.3.76 2.75 2.75 0 0 1-4.76 0 .75.75 0 0 1 .27-1.03" clip-rule="evenodd"/></svg>
