<svg xmlns="http://www.w3.org/2000/svg" fill="none" viewBox="0 0 24 24"><path fill="currentColor" fill-rule="evenodd" d="M1.25 12a10.75 10.75 0 1 1 5.62 9.45l-4.23.79a.75.75 0 0 1-.88-.88l.8-4.23A11 11 0 0 1 1.24 12m9.1-4.4c-.35.3-.6.74-.6 1.4a.75.75 0 0 1-1.5 0c0-1.1.44-1.96 1.12-2.54a3.7 3.7 0 0 1 2.38-.83c.84 0 1.7.26 2.38.83A3.2 3.2 0 0 1 15.25 9c0 .77-.2 1.35-.52 1.83-.27.4-.62.72-.9.96l-.08.08c-.3.28-.54.5-.7.8-.17.3-.3.7-.3 1.33a.75.75 0 0 1-1.5 0q.01-1.27.49-2.06c.3-.53.7-.9 1-1.18l.08-.07c.3-.27.5-.46.67-.7.14-.21.26-.5.26-.99 0-.66-.25-1.1-.6-1.4-.36-.3-.86-.47-1.4-.47s-1.04.17-1.4.47m2.22 10.9a.75.75 0 1 0-1.12-1 .75.75 0 0 0 1.1 1.01z" clip-rule="evenodd"/></svg>
