<svg xmlns="http://www.w3.org/2000/svg" fill="none" stroke-width="1.5" viewBox="0 0 24 24"><path fill="currentColor" fill-rule="evenodd" d="M2.25 17A3.75 3.75 0 0 1 6 13.25h12A3.75 3.75 0 0 1 21.75 17v2A3.75 3.75 0 0 1 18 22.75H6A3.75 3.75 0 0 1 2.25 19zM7 2.75A3.25 3.25 0 0 0 3.75 6v2a.75.75 0 0 1-1.5 0V6A4.75 4.75 0 0 1 7 1.25h10A4.75 4.75 0 0 1 21.75 6v2a.75.75 0 0 1-1.5 0V6c0-1.8-1.46-3.25-3.25-3.25z" clip-rule="evenodd"/><path fill="currentColor" fill-rule="evenodd" d="M11.47 5.47c.3-.3.77-.3 1.06 0l3 3a.75.75 0 0 1-1.06 1.06l-1.72-1.72V14a.75.75 0 0 1-1.5 0V7.81L9.53 9.53a.75.75 0 0 1-1.06-1.06z" clip-rule="evenodd"/></svg>
