<svg xmlns="http://www.w3.org/2000/svg" fill="none" viewBox="0 0 24 24"><path fill="currentColor" fill-rule="evenodd" d="M3.6 2.25c-.75 0-1.35.6-1.35 1.35v16.8c0 .75.6 1.35 1.35 1.35h16.8c.75 0 1.35-.6 1.35-1.35V3.6c0-.75-.6-1.35-1.35-1.35zM13.75 13.5c0 1.06-.76 1.75-1.75 1.75-1.13 0-1.75-.7-1.75-1.25a.75.75 0 0 0-1.5 0c0 1.67 1.62 2.75 3.25 2.75a3.2 3.2 0 0 0 3.25-3.25c0-.84-.17-1.64-.63-2.26a2.5 2.5 0 0 0-2.12-.99h-2.11l.25-1.5H14a.75.75 0 0 0 0-1.5h-4a.75.75 0 0 0-.74.63l-.5 3a.75.75 0 0 0 .74.87h3c.49 0 .75.16.92.39.19.25.33.7.33 1.36" clip-rule="evenodd"/></svg>
