<svg xmlns="http://www.w3.org/2000/svg" fill="none" stroke-width="1.5" viewBox="0 0 24 24"><g clip-path="url(#clip0_4223_8258)"><path fill="currentColor" fill-rule="evenodd" d="M17.47 9.47c.3-.3.77-.3 1.06 0L20 10.94l1.47-1.47a.75.75 0 0 1 1.06 1.06L21.06 12l1.47 1.47a.75.75 0 0 1-1.06 1.06L20 13.06l-1.47 1.47a.75.75 0 0 1-1.06-1.06L18.94 12l-1.47-1.47a.75.75 0 0 1 0-1.06M13.04 3.4a1.75 1.75 0 0 1 2.71 1.46v14.28c0 1.4-1.55 2.23-2.71 1.46l-6-3.95-.14-.04H4a2.75 2.75 0 0 1-2.75-2.75v-3.72A2.75 2.75 0 0 1 4 7.4h2.9q.08 0 .14-.04z" clip-rule="evenodd"/></g><defs><clipPath id="clip0_4223_8258"><path fill="currentColor" d="M0 0h24v24H0z"/></clipPath></defs></svg>
