<svg xmlns="http://www.w3.org/2000/svg" fill="none" stroke-width="1.5" viewBox="0 0 24 24"><path fill="currentColor" fill-rule="evenodd" d="M21.75 3.6c0-.75-.6-1.35-1.35-1.35H3.6c-.75 0-1.35.6-1.35 1.35v16.8c0 .75.6 1.35 1.35 1.35h16.8c.75 0 1.35-.6 1.35-1.35zm-9.22 8.87 3.5 3.5a.75.75 0 1 1-1.06 1.06L12 14.06l-2.97 2.97a.75.75 0 0 1-1.06-1.06l3.5-3.5c.3-.3.77-.3 1.06 0m3.5-2.5-3.5-3.5a.75.75 0 0 0-1.06 0l-3.5 3.5a.75.75 0 1 0 1.06 1.06L12 8.06l2.97 2.97a.75.75 0 1 0 1.06-1.06" clip-rule="evenodd"/></svg>
