<svg xmlns="http://www.w3.org/2000/svg" fill="none" stroke-width="1.5" viewBox="0 0 24 24"><path fill="currentColor" fill-rule="evenodd" d="M16 21.75A5.75 5.75 0 0 0 21.75 16V8A5.75 5.75 0 0 0 16 2.25H8A5.75 5.75 0 0 0 2.25 8v8A5.75 5.75 0 0 0 8 21.75zM11.25 17c0-1.33-.44-2.38-1.16-3.1A4.3 4.3 0 0 0 7 12.76a.75.75 0 0 1 0-1.5c1.67 0 3.12.56 4.16 1.6A5.8 5.8 0 0 1 12.75 17a.75.75 0 0 1-1.5 0m2.47-6.72c1.59 1.6 2.53 3.89 2.53 6.72a.75.75 0 0 0 1.5 0c0-3.17-1.06-5.87-2.97-7.78-1.9-1.91-4.61-2.97-7.78-2.97a.75.75 0 0 0 0 1.5c2.83 0 5.13.94 6.72 2.53M7.57 17.5a.75.75 0 0 0-1.12-1 .75.75 0 0 0 1.1 1.01z" clip-rule="evenodd"/></svg>
