<svg xmlns="http://www.w3.org/2000/svg" fill="none" stroke-width="1.5" viewBox="0 0 24 24"><path fill="currentColor" fill-rule="evenodd" d="M1.25 6A3.75 3.75 0 0 1 5 2.25h2A3.75 3.75 0 0 1 10.75 6v12A3.75 3.75 0 0 1 7 21.75H5A3.75 3.75 0 0 1 1.25 18zm14-3c0-.41.34-.75.75-.75h2A4.75 4.75 0 0 1 22.75 7v10A4.75 4.75 0 0 1 18 21.75h-2a.75.75 0 0 1 0-1.5h2c1.8 0 3.25-1.46 3.25-3.25V7c0-1.8-1.46-3.25-3.25-3.25h-2a.75.75 0 0 1-.75-.75" clip-rule="evenodd"/><path fill="currentColor" fill-rule="evenodd" d="M14.47 8.47c.3-.3.77-.3 1.06 0l3 3c.3.3.3.77 0 1.06l-3 3a.75.75 0 1 1-1.06-1.06l1.72-1.72H10a.75.75 0 0 1 0-1.5h6.19l-1.72-1.72a.75.75 0 0 1 0-1.06" clip-rule="evenodd"/></svg>
