<svg xmlns="http://www.w3.org/2000/svg" fill="none" stroke-width="1.5" viewBox="0 0 24 24"><path fill="currentColor" fill-rule="evenodd" d="M.25 9A6.75 6.75 0 0 1 7 2.25h10A6.75 6.75 0 0 1 23.75 9v6A6.75 6.75 0 0 1 17 21.75H7A6.75 6.75 0 0 1 .25 15zM6 7.75c.41 0 .75.34.75.75v2.75h3V8.5a.75.75 0 0 1 1.5 0v7a.75.75 0 0 1-1.5 0v-2.75h-3v2.75a.75.75 0 0 1-1.5 0v-7c0-.41.34-.75.75-.75m8.75 7v-5.5c.96.02 1.77.09 2.37.37q.5.22.8.72c.19.35.33.87.33 1.66a3.4 3.4 0 0 1-.34 1.66q-.27.5-.79.72c-.6.29-1.4.35-2.37.37m5-2.75q0-1.44-.52-2.39a3 3 0 0 0-1.48-1.35c-1.09-.51-2.48-.51-3.65-.51H14a.75.75 0 0 0-.75.75v7c0 .41.34.75.75.75h.1c1.17 0 2.56 0 3.65-.5q.92-.41 1.48-1.36.52-.96.52-2.39" clip-rule="evenodd"/></svg>
