<svg xmlns="http://www.w3.org/2000/svg" fill="none" viewBox="0 0 24 24"><g clip-path="url(#clip0_3839_8166)"><path fill="currentColor" fill-rule="evenodd" d="M12.95.9a1.35 1.35 0 0 0-1.9 0L.89 11.03a1.35 1.35 0 0 0 0 1.91L11.05 23.1c.52.52 1.38.52 1.9 0l10.16-10.16c.52-.52.52-1.38 0-1.9zm-.42 15.63a.75.75 0 0 1-1.07-.01l-4-4.17a.75.75 0 1 1 1.08-1.04l2.71 2.83V7a.75.75 0 0 1 1.5 0v7.19l2.72-2.72a.75.75 0 1 1 1.06 1.06z" clip-rule="evenodd"/></g><defs><clipPath id="clip0_3839_8166"><path fill="currentColor" d="M0 0h24v24H0z"/></clipPath></defs></svg>
