<svg xmlns="http://www.w3.org/2000/svg" fill="none" viewBox="0 0 24 24"><path stroke="currentColor" stroke-linecap="round" stroke-linejoin="round" stroke-width="1.5" d="M12 12v5m0 4.01.01-.01M4 13.5V13c0-4.97 3.58-9 8-9s8 4.03 8 9v.5"/><path fill="currentColor" stroke="currentColor" stroke-linecap="round" stroke-linejoin="round" stroke-width="1.5" d="M2 17.44v-1.88a2 2 0 0 1 1.51-1.94L4 13.5l1.25-.31a.6.6 0 0 1 .75.58v5.46a.6.6 0 0 1-.75.58l-1.74-.43A2 2 0 0 1 2 17.44m20 0v-1.88a2 2 0 0 0-1.51-1.94L20 13.5l-1.25-.31a.6.6 0 0 0-.75.58v5.46c0 .4.37.68.75.58l1.74-.43A2 2 0 0 0 22 17.44"/></svg>
