<svg xmlns="http://www.w3.org/2000/svg" fill="none" viewBox="0 0 24 24"><g clip-path="url(#clip0_3839_8176)"><path fill="currentColor" fill-rule="evenodd" d="M11.05.9a1.35 1.35 0 0 1 1.9 0l10.16 10.14c.52.53.52 1.39 0 1.91L12.95 23.11c-.52.52-1.38.52-1.9 0L.89 12.95a1.35 1.35 0 0 1 0-1.9zM5.25 12c0-.41.34-.75.75-.75h4a.75.75 0 0 1 0 1.5H6a.75.75 0 0 1-.75-.75m8.75-.75a.75.75 0 0 0 0 1.5h4a.75.75 0 0 0 0-1.5z" clip-rule="evenodd"/></g><defs><clipPath id="clip0_3839_8176"><path fill="currentColor" d="M0 0h24v24H0z"/></clipPath></defs></svg>
