<svg xmlns="http://www.w3.org/2000/svg" fill="none" stroke-width="1.5" viewBox="0 0 24 24"><path fill="currentColor" fill-rule="evenodd" d="M2.25 5A3.75 3.75 0 0 1 6 1.25h12A3.75 3.75 0 0 1 21.75 5v2A3.75 3.75 0 0 1 18 10.75H6A3.75 3.75 0 0 1 2.25 7zM3 15.25c.41 0 .75.34.75.75v2c0 1.8 1.46 3.25 3.25 3.25h10c1.8 0 3.25-1.46 3.25-3.25v-2a.75.75 0 0 1 1.5 0v2A4.75 4.75 0 0 1 17 22.75H7A4.75 4.75 0 0 1 2.25 18v-2c0-.41.34-.75.75-.75" clip-rule="evenodd"/><path fill="currentColor" fill-rule="evenodd" d="M12 9.25c.41 0 .75.34.75.75v6.19l1.72-1.72a.75.75 0 1 1 1.06 1.06l-3 3c-.3.3-.77.3-1.06 0l-3-3a.75.75 0 1 1 1.06-1.06l1.72 1.72V10c0-.41.34-.75.75-.75" clip-rule="evenodd"/></svg>
