<svg xmlns="http://www.w3.org/2000/svg" fill="none" stroke-width="1.5" viewBox="0 0 24 24"><path fill="currentColor" fill-rule="evenodd" d="M17.47 2.47c.3-.3.77-.3 1.06 0l3.5 3.5a.75.75 0 0 1-.53 1.28h-2.75v9.25a.75.75 0 0 1-1.5 0V7.25H14.5a.75.75 0 0 1-.53-1.28z" clip-rule="evenodd"/><path fill="currentColor" fill-rule="evenodd" d="M3.25 7.5a4.25 4.25 0 0 1 8.5 0v9a2.75 2.75 0 1 0 5.5 0 .75.75 0 0 1 1.5 0 4.25 4.25 0 0 1-8.5 0v-9a2.75 2.75 0 1 0-5.5 0v12a.75.75 0 0 1-1.5 0z" clip-rule="evenodd"/></svg>
