<svg xmlns="http://www.w3.org/2000/svg" fill="none" stroke-width="1.5" viewBox="0 0 24 24"><path fill="currentColor" fill-rule="evenodd" d="M1.25 6.29a3 3 0 0 1 2.97-3.04h15.56a3 3 0 0 1 2.97 3.04V17.7a3 3 0 0 1-2.97 3.04H4.22a3 3 0 0 1-2.97-3.04zm3 .71c0-.41.34-.75.75-.75h1a.75.75 0 0 1 0 1.5H5A.75.75 0 0 1 4.25 7m6.28 2.47a.75.75 0 1 0-1.06 1.06L10.94 12l-1.47 1.47a.75.75 0 1 0 1.06 1.06L12 13.06l1.47 1.47a.75.75 0 1 0 1.06-1.06L13.06 12l1.47-1.47a.75.75 0 1 0-1.06-1.06L12 10.94z" clip-rule="evenodd"/></svg>
