<svg xmlns="http://www.w3.org/2000/svg" fill="none" stroke-width="1.5" viewBox="0 0 24 24"><path fill="currentColor" fill-rule="evenodd" d="M3 9.25a.75.75 0 0 0-.75.75v9A2.75 2.75 0 0 0 5 21.75h9.57l-.16-.16a2.25 2.25 0 1 1 3.18-3.18l.41.4 2.4-2.4c.38-.38.86-.6 1.35-.65V10a.75.75 0 0 0-.75-.75z" clip-rule="evenodd"/><path fill="currentColor" fill-rule="evenodd" d="M7 1.25c.41 0 .75.34.75.75v4a.75.75 0 0 1-1.5 0V4.75H5c-.69 0-1.25.56-1.25 1.25v4a.75.75 0 0 1-1.5 0V6A2.75 2.75 0 0 1 5 3.25h1.25V2c0-.41.34-.75.75-.75m8 0c.41 0 .75.34.75.75v4a.75.75 0 0 1-1.5 0V4.75H10.5a.75.75 0 0 1 0-1.5h3.75V2c0-.41.34-.75.75-.75M17.75 4c0-.41.34-.75.75-.75h.5A2.75 2.75 0 0 1 21.75 6v4a.75.75 0 0 1-1.5 0V6c0-.69-.56-1.25-1.25-1.25h-.5a.75.75 0 0 1-.75-.75m-2.28 15.47c.3-.3.77-.3 1.06 0L18 20.94l3.47-3.47a.75.75 0 1 1 1.06 1.06l-4 4c-.3.3-.77.3-1.06 0l-2-2a.75.75 0 0 1 0-1.06" clip-rule="evenodd"/></svg>
