<svg xmlns="http://www.w3.org/2000/svg" fill="none" viewBox="0 0 24 24"><path fill="currentColor" fill-rule="evenodd" d="M9.21 12.75q-.11 1.14-.7 1.94a7.5 7.5 0 0 1-2.85 2.14.75.75 0 1 0 .68 1.34 9 9 0 0 0 3.4-2.6A6 6 0 0 0 10.75 12V7.5c0-.97-.78-1.75-1.75-1.75H5c-.97 0-1.75.78-1.75 1.75V11c0 .97.78 1.75 1.75 1.75zm10 0q-.11 1.14-.7 1.94a7.5 7.5 0 0 1-2.85 2.14.75.75 0 1 0 .68 1.34 9 9 0 0 0 3.4-2.6A6 6 0 0 0 20.75 12V7.5c0-.97-.78-1.75-1.75-1.75h-4c-.97 0-1.75.78-1.75 1.75V11c0 .97.78 1.75 1.75 1.75z" clip-rule="evenodd"/></svg>
