<svg xmlns="http://www.w3.org/2000/svg" fill="none" stroke-width="1.5" viewBox="0 0 24 24"><path fill="currentColor" fill-rule="evenodd" d="M3 9.25a.75.75 0 0 0-.75.75v9A2.75 2.75 0 0 0 5 21.75h6.5v-3.5a6.75 6.75 0 0 1 6.75-6.75c1.28 0 2.48.47 3.5 1.1V10a.75.75 0 0 0-.75-.75z" clip-rule="evenodd"/><path fill="currentColor" fill-rule="evenodd" d="M7 1.25c.41 0 .75.34.75.75v4a.75.75 0 0 1-1.5 0V4.75H5c-.69 0-1.25.56-1.25 1.25v4a.75.75 0 0 1-1.5 0V6A2.75 2.75 0 0 1 5 3.25h1.25V2c0-.41.34-.75.75-.75m8 0c.41 0 .75.34.75.75v4a.75.75 0 0 1-1.5 0V4.75H10.5a.75.75 0 0 1 0-1.5h3.75V2c0-.41.34-.75.75-.75M17.75 4c0-.41.34-.75.75-.75h.5A2.75 2.75 0 0 1 21.75 6v4a.75.75 0 0 1-1.5 0V6c0-.69-.56-1.25-1.25-1.25h-.5a.75.75 0 0 1-.75-.75m.24 10.75c-1.38 0-2.62.99-3.08 2.47a.75.75 0 1 1-1.43-.44 4.8 4.8 0 0 1 4.51-3.53c2 0 3.66 1.33 4.37 3.14a.75.75 0 0 1-1.4.55A3.3 3.3 0 0 0 18 14.75" clip-rule="evenodd"/><path fill="currentColor" fill-rule="evenodd" d="M22 13.8c.41 0 .75.34.75.75v1.62c0 .75-.6 1.35-1.35 1.35H20a.75.75 0 0 1 0-1.5h1.25v-1.47c0-.41.34-.75.75-.75m-3.99 7.45c1.38 0 2.62-.99 3.08-2.47a.75.75 0 1 1 1.43.44 4.8 4.8 0 0 1-4.51 3.53c-2 0-3.66-1.33-4.37-3.14a.75.75 0 1 1 1.4-.55A3.3 3.3 0 0 0 18 21.25" clip-rule="evenodd"/><path fill="currentColor" fill-rule="evenodd" d="M14 22.2a.75.75 0 0 1-.75-.75v-1.62c0-.75.6-1.35 1.35-1.35H16a.75.75 0 0 1 0 1.5h-1.25v1.47c0 .41-.34.75-.75.75" clip-rule="evenodd"/></svg>
