<svg xmlns="http://www.w3.org/2000/svg" fill="none" viewBox="0 0 24 24"><g clip-path="url(#clip0_3786_327)"><path fill="currentColor" fill-rule="evenodd" d="M3.25 11.32a2.75 2.75 0 0 1 0-4.64l6.2-3.95a4.8 4.8 0 0 1 5.1 0l6.2 3.95a2.75 2.75 0 0 1 0 4.64l-6.2 3.95a4.8 4.8 0 0 1-5.1 0z" clip-rule="evenodd"/><path fill="currentColor" fill-rule="evenodd" d="m19.66 11.99-5.11-3.26a4.8 4.8 0 0 0-5.1 0L4.34 12l5.92 3.76c1.06.68 2.42.68 3.48 0zm1.36.88-.27.2-6.2 3.95a4.8 4.8 0 0 1-5.1 0l-6.2-3.95-.27-.2a2.75 2.75 0 0 0 .27 4.45l6.2 3.95c1.56.99 3.54.99 5.1 0l6.2-3.95a2.75 2.75 0 0 0 .27-4.44" clip-rule="evenodd"/></g><defs><clipPath id="clip0_3786_327"><path fill="currentColor" d="M0 0h24v24H0z"/></clipPath></defs></svg>
