<svg xmlns="http://www.w3.org/2000/svg" fill="none" stroke-width="1.5" viewBox="0 0 24 24"><path fill="currentColor" fill-rule="evenodd" d="M3.6 2.25c-.75 0-1.35.6-1.35 1.35v16.8c0 .75.6 1.35 1.35 1.35h16.8c.75 0 1.35-.6 1.35-1.35V3.6c0-.75-.6-1.35-1.35-1.35zm4.4 10a.75.75 0 0 0 0 1.5h3.25v.5H8a.75.75 0 0 0 0 1.5h3.25V18a.75.75 0 0 0 1.5 0v-2.25H16a.75.75 0 0 0 0-1.5h-3.25v-.5H16a.75.75 0 0 0 0-1.5h-2.9l3.5-4.8a.75.75 0 0 0-1.2-.9L12 11.23 8.6 6.56a.75.75 0 1 0-1.2.88l3.5 4.81z" clip-rule="evenodd"/></svg>
