<svg xmlns="http://www.w3.org/2000/svg" fill="none" stroke-width="1.5" viewBox="0 0 24 24"><path fill="currentColor" fill-rule="evenodd" d="M20.4 21.75c.75 0 1.35-.6 1.35-1.35V3.6c0-.75-.6-1.35-1.35-1.35H3.6c-.75 0-1.35.6-1.35 1.35v16.8c0 .75.6 1.35 1.35 1.35zM12.75 7a.75.75 0 0 0-1.5 0v3.73L7.86 8.84a.75.75 0 0 0-.72 1.32L10.46 12l-3.32 1.84a.75.75 0 1 0 .72 1.32l3.39-1.89V17a.75.75 0 0 0 1.5 0v-3.73l3.39 1.89a.75.75 0 1 0 .72-1.32L13.54 12l3.32-1.84a.75.75 0 1 0-.72-1.32l-3.39 1.89z" clip-rule="evenodd"/></svg>
