<svg xmlns="http://www.w3.org/2000/svg" fill="none" stroke-width="1.5" viewBox="0 0 24 24"><path fill="currentColor" fill-rule="evenodd" d="M2.25 3.6c0-.75.6-1.35 1.35-1.35h16.8c.75 0 1.35.6 1.35 1.35v16.8c0 .75-.6 1.35-1.35 1.35H3.6c-.75 0-1.35-.6-1.35-1.35zm13.33 3.92a.7.7 0 0 0-.56-.24h-4.94a.75.75 0 1 0 0 1.5h3.13l-2.25 2.25a4.3 4.3 0 0 0-1.25 2.2c-.15.74-.05 1.41.14 1.97a5 5 0 0 0 1.1 1.83c.28.29.77.3 1.07.01.3-.3.3-.77 0-1.06q-.15-.15-.27-.33a4 4 0 0 1-.48-.92 2.3 2.3 0 0 1-.09-1.2c.08-.42.31-.91.84-1.44l2.25-2.25v3.14a.75.75 0 0 0 1.5 0V8.03a.8.8 0 0 0-.2-.51" clip-rule="evenodd"/></svg>
