<svg xmlns="http://www.w3.org/2000/svg" fill="none" viewBox="0 0 24 24"><path fill="currentColor" fill-rule="evenodd" d="M13.47 18.47c.3-.3.77-.3 1.06 0L17 20.94l4.47-4.47a.75.75 0 1 1 1.06 1.06l-5 5c-.3.3-.77.3-1.06 0l-3-3a.75.75 0 0 1 0-1.06" clip-rule="evenodd"/><path fill="currentColor" fill-rule="evenodd" d="M15.6 17.4a2.25 2.25 0 1 0-3.2 3.2l1.03 1.01q-1.06.14-2.43.14c-3.59 0-5.55-.77-6.61-1.68a3.4 3.4 0 0 1-.98-1.33 3 3 0 0 1-.16-.7V18H4h-.75v-2.25c0-.41.34-.75.75-.75a2 2 0 0 1 1.31.64c.7.5 2.26 1.11 5.69 1.11s5-.62 5.69-1.11l.09-.07c.36-.29.76-.57 1.22-.57.41 0 .75.34.75.75v1.32L17 18.82z" clip-rule="evenodd"/><path fill="currentColor" fill-rule="evenodd" d="M4 9a.75.75 0 0 0-.75.75V12H4h-.75v.04l.02.21q.04.2.14.5c.15.38.44.86.98 1.32 1.06.91 3.02 1.68 6.61 1.68s5.55-.77 6.61-1.68c.54-.46.83-.94.98-1.33a3 3 0 0 0 .16-.7V12H18h.75V9.75A.75.75 0 0 0 18 9c-.46 0-.86.29-1.22.57l-.1.07c-.68.5-2.25 1.11-5.68 1.11s-5-.62-5.69-1.11l-.07-.07A2 2 0 0 0 4 9" clip-rule="evenodd"/><path fill="currentColor" fill-rule="evenodd" d="M4.39 3.93C5.45 3.02 7.4 2.25 11 2.25s5.55.77 6.61 1.68c.54.46.83.94.98 1.33a3 3 0 0 1 .16.74v.1l-.02.15q-.04.2-.14.5c-.15.38-.44.86-.98 1.32-1.06.91-3.02 1.68-6.61 1.68s-5.55-.77-6.61-1.68a3.4 3.4 0 0 1-.98-1.33A3 3 0 0 1 3.25 6l.02-.25q.04-.2.14-.5c.15-.38.44-.86.98-1.32" clip-rule="evenodd"/></svg>
