<svg xmlns="http://www.w3.org/2000/svg" fill="none" stroke-width="1.5" viewBox="0 0 24 24"><path fill="currentColor" fill-rule="evenodd" d="M16.97 6.97c.3-.3.77-.3 1.06 0l-.53.53.53-.53.01.01.02.02.27.31q.25.3.58.9a6.9 6.9 0 0 1-.85 7.79l-.02.02v.01l-.52-.5.51.5a.75.75 0 1 1-1.06-1.06l.53.53-.53-.53.17-.2q.2-.24.45-.7a5.4 5.4 0 0 0-.62-6.04.75.75 0 0 1 0-1.06" clip-rule="evenodd"/><path fill="currentColor" fill-rule="evenodd" d="M19.97 3.97c.3-.3.77-.3 1.06 0l-.53.53.53-.53.02.01.12.14.32.38a12 12 0 0 1 2.26 7 12 12 0 0 1-2.26 7l-.44.52h-.01v.01l-.54-.53.53.53a.75.75 0 0 1-1.06-1.06l.01-.01a3 3 0 0 0 .32-.38 10.3 10.3 0 0 0 1.95-6.08 10.3 10.3 0 0 0-1.95-6.08l-.32-.38-.01-.01a.75.75 0 0 1 0-1.06m-7.93-.57a1.75 1.75 0 0 1 2.71 1.46v14.28c0 1.4-1.55 2.23-2.71 1.46l-6-3.95-.14-.04H3a2.75 2.75 0 0 1-2.75-2.75v-3.72A2.75 2.75 0 0 1 3 7.4h2.9q.08 0 .14-.04z" clip-rule="evenodd"/></svg>
