<svg xmlns="http://www.w3.org/2000/svg" fill="none" viewBox="0 0 24 24"><path fill="currentColor" fill-rule="evenodd" d="M12.53 17.47a.75.75 0 0 0-1.06 0l-3.5 3.5a.75.75 0 1 0 1.06 1.06L12 19.06l2.97 2.97a.75.75 0 1 0 1.06-1.06zM12 1.25c.41 0 .75.34.75.75v2a.75.75 0 0 1-1.5 0V2c0-.41.34-.75.75-.75" clip-rule="evenodd"/><path fill="currentColor" fill-rule="evenodd" d="M21.4 18.75c.75 0 1.35-.6 1.35-1.35V4.6c0-.75-.6-1.35-1.35-1.35H2.6c-.75 0-1.35.6-1.35 1.35v12.8c0 .75.6 1.35 1.35 1.35zM9.75 12a.75.75 0 0 0-1.5 0v2a.75.75 0 0 0 1.5 0zM12 9.25c.41 0 .75.34.75.75v4a.75.75 0 0 1-1.5 0v-4c0-.41.34-.75.75-.75M15.75 8a.75.75 0 0 0-1.5 0v6a.75.75 0 0 0 1.5 0z" clip-rule="evenodd"/></svg>
