<svg xmlns="http://www.w3.org/2000/svg" fill="none" stroke-width="1.5" viewBox="0 0 24 24"><path fill="currentColor" fill-rule="evenodd" d="M19.75 22c0 .41-.34.75-.75.75H5a.75.75 0 0 1 0-1.5h1.25V19a.75.75 0 0 1 1.5 0v2.25H19c.41 0 .75.34.75.75m0-6c0 .41-.34.75-.75.75h-9a.75.75 0 0 1 0-1.5h9c.41 0 .75.34.75.75m-3-14c0 .41-.34.75-.75.75h-4a.75.75 0 0 1 0-1.5h4c.41 0 .75.34.75.75m-4 5c0 .41-.34.75-.75.75q-2.16 0-3.19.74c-.63.45-1.06 1.2-1.06 2.51v2a.75.75 0 0 1-1.5 0v-2q0-2.53 1.69-3.74C9 6.5 10.44 6.25 12 6.25c.41 0 .75.34.75.75" clip-rule="evenodd"/><path fill="currentColor" fill-rule="evenodd" d="M16.75 11.4c0 .75-.6 1.35-1.35 1.35h-2.8c-.75 0-1.35-.6-1.35-1.35V4.6c0-.75.6-1.35 1.35-1.35h2.8c.75 0 1.35.6 1.35 1.35zm-6 4.6a3.75 3.75 0 1 0-7.5 0 3.75 3.75 0 0 0 7.5 0" clip-rule="evenodd"/></svg>
