<svg xmlns="http://www.w3.org/2000/svg" fill="none" viewBox="0 0 24 24"><g clip-path="url(#clip0_4044_8414)"><path fill="currentColor" fill-rule="evenodd" d="M12.95.9a1.35 1.35 0 0 0-1.9 0L.89 11.03a1.35 1.35 0 0 0 0 1.91L11.05 23.1c.52.52 1.38.52 1.9 0l10.16-10.16c.52-.52.52-1.38 0-1.9zm3.58 10.63c.3-.3.3-.77 0-1.06l-2-2a.75.75 0 1 0-1.06 1.06l.72.72H10c-.74 0-1.43.36-1.9.84A2.8 2.8 0 0 0 7.24 13v1a.75.75 0 0 0 1.5 0v-1c0-.26.14-.57.4-.84.28-.27.6-.41.85-.41h4.19l-.72.72a.75.75 0 1 0 1.06 1.06z" clip-rule="evenodd"/></g><defs><clipPath id="clip0_4044_8414"><path fill="currentColor" d="M0 0h24v24H0z"/></clipPath></defs></svg>
