<svg xmlns="http://www.w3.org/2000/svg" fill="none" stroke-width="1.5" viewBox="0 0 24 24"><path fill="currentColor" fill-rule="evenodd" d="M12 4.15c-1.2 0-2.58.03-3.93.07H8c-1.38.04-2.49.07-3.37.21-.9.15-1.67.44-2.27 1.07a4 4 0 0 0-1 2.32c-.12.89-.12 2.02-.12 3.42v1.52c0 1.4 0 2.53.12 3.42.12.93.39 1.7 1 2.33.6.62 1.36.9 2.27 1.06.88.14 2 .17 3.37.21h.06c1.35.04 2.74.07 3.93.07 1.2 0 2.58-.03 3.93-.07H16c1.38-.04 2.49-.07 3.37-.21a4 4 0 0 0 2.27-1.06c.61-.63.88-1.4 1-2.33.12-.89.12-2.02.12-3.42v-1.52c0-1.4 0-2.53-.12-3.42a4 4 0 0 0-1-2.32 4 4 0 0 0-2.27-1.07c-.88-.14-2-.17-3.37-.21h-.06c-1.35-.04-2.74-.07-3.93-.07m-1.13 10.5A.75.75 0 0 1 9.75 14v-4a.75.75 0 0 1 1.12-.65l3.5 2a.75.75 0 0 1 0 1.3z" clip-rule="evenodd"/></svg>
