<svg xmlns="http://www.w3.org/2000/svg" fill="none" stroke-width="1.5" viewBox="0 0 24 24"><path fill="currentColor" fill-rule="evenodd" d="m10.07 5.23 4.34 4.96c.9 1.04.9 2.58 0 3.62l-4.34 4.96a2.75 2.75 0 0 1-4.14 0l-4.34-4.96a2.75 2.75 0 0 1 0-3.62l4.34-4.96a2.75 2.75 0 0 1 4.14 0" clip-rule="evenodd"/><path stroke="currentColor" stroke-linecap="round" stroke-linejoin="round" d="m13 19 4.88-5.7a2 2 0 0 0 0-2.6L13 5"/><path stroke="currentColor" stroke-linecap="round" stroke-linejoin="round" d="m17 19 4.88-5.7a2 2 0 0 0 0-2.6L17 5"/></svg>
