<svg xmlns="http://www.w3.org/2000/svg" fill="none" stroke-width="1.5" viewBox="0 0 24 24"><path fill="currentColor" fill-rule="evenodd" d="M20.4 2.25c.75 0 1.35.6 1.35 1.35v16.8c0 .75-.6 1.35-1.35 1.35H3.6c-.75 0-1.35-.6-1.35-1.35V3.6c0-.75.6-1.35 1.35-1.35zm-8.37 9.22-3.5-3.5a.75.75 0 0 0-1.06 1.06L10.44 12l-2.97 2.97a.75.75 0 1 0 1.06 1.06l3.5-3.5c.3-.3.3-.77 0-1.06m2.5-3.5 3.5 3.5c.3.3.3.77 0 1.06l-3.5 3.5a.75.75 0 1 1-1.06-1.06L16.44 12l-2.97-2.97a.75.75 0 0 1 1.06-1.06" clip-rule="evenodd"/></svg>
