<svg xmlns="http://www.w3.org/2000/svg" fill="none" stroke-width="1.5" viewBox="0 0 24 24"><path fill="currentColor" fill-rule="evenodd" d="M7 4.25A2.75 2.75 0 0 0 4.25 7v1.25H5A2.25 2.25 0 0 1 6.68 12 2.25 2.25 0 0 1 5 15.75h-.75V17A2.75 2.75 0 0 0 7 19.75h13A2.75 2.75 0 0 0 22.75 17V7A2.75 2.75 0 0 0 20 4.25zm2.42 4.13a.75.75 0 0 0-.84 1.24l4.5 3c.26.17.58.17.84 0l4.5-3a.75.75 0 0 0-.84-1.24L13.5 11.1z" clip-rule="evenodd"/><path fill="currentColor" fill-rule="evenodd" d="M5.75 13.5c0 .41-.34.75-.75.75H3a.75.75 0 0 1 0-1.5h2c.41 0 .75.34.75.75m0-3c0 .41-.34.75-.75.75H1a.75.75 0 0 1 0-1.5h4c.41 0 .75.34.75.75" clip-rule="evenodd"/></svg>
