<svg xmlns="http://www.w3.org/2000/svg" fill="none" viewBox="0 0 24 24"><g clip-path="url(#clip0_3787_399)"><path stroke="currentColor" stroke-linecap="round" stroke-linejoin="round" stroke-width="1.5" d="m17.67 11.4-1.9 5.72a.6.6 0 0 1-.4.39L3.7 20.98a.6.6 0 0 1-.74-.76l3.8-11.38a.6.6 0 0 1 .34-.36l5.38-2.22a.6.6 0 0 1 .65.13l4.4 4.4c.17.16.23.4.15.62M3.3 20.6l6.36-6.36"/><path fill="currentColor" stroke="currentColor" stroke-linecap="round" stroke-linejoin="round" stroke-width="1.5" d="m18.4 3.18 2.37 2.37a1.85 1.85 0 1 1-2.61 2.6L15.79 5.8a1.85 1.85 0 0 1 2.61-2.6"/><path stroke="currentColor" stroke-linecap="round" stroke-linejoin="round" stroke-width="1.5" d="M11.78 12.12a1.5 1.5 0 1 0-2.12 2.12 1.5 1.5 0 0 0 2.12-2.12"/></g><defs><clipPath id="clip0_3787_399"><path fill="currentColor" d="M0 0h24v24H0z"/></clipPath></defs></svg>
