<svg xmlns="http://www.w3.org/2000/svg" fill="none" viewBox="0 0 24 24"><path fill="currentColor" fill-rule="evenodd" d="M2.25 3.6c0-.75.6-1.35 1.35-1.35h16.8c.75 0 1.35.6 1.35 1.35v16.8c0 .75-.6 1.35-1.35 1.35H3.6c-.75 0-1.35-.6-1.35-1.35zM12 8.75c1.13 0 1.75.7 1.75 1.25q-.02.63-.29.91c-.16.18-.44.34-.96.34a.75.75 0 0 0 0 1.5c.52 0 .8.16.96.34q.27.29.29.91c0 .54-.62 1.25-1.75 1.25s-1.75-.7-1.75-1.25a.75.75 0 0 0-1.5 0c0 1.67 1.62 2.75 3.25 2.75s3.25-1.08 3.25-2.75a2.8 2.8 0 0 0-.75-2l.07-.08a2.8 2.8 0 0 0 .68-1.92c0-1.67-1.62-2.75-3.25-2.75S8.75 8.33 8.75 10a.75.75 0 0 0 1.5 0c0-.54.62-1.25 1.75-1.25" clip-rule="evenodd"/></svg>
