<svg xmlns="http://www.w3.org/2000/svg" fill="none" stroke-width="1.5" viewBox="0 0 24 24"><path fill="currentColor" fill-rule="evenodd" d="m12 2-.52-.54zm.52-.54.02.02.07.07 1.18 1.18c.76.8 1.77 1.9 2.8 3.14a29 29 0 0 1 2.81 4.02c.77 1.37 1.35 2.8 1.35 4.11a8.75 8.75 0 1 1-17.5 0c0-1.3.58-2.74 1.35-4.1a29 29 0 0 1 2.82-4.03 53 53 0 0 1 3.97-4.32l.07-.07.02-.02.52-.5zM12 2l.52-.54zm.75 8a.75.75 0 0 0-1.5 0v2.2l-1.87-1.1a.75.75 0 1 0-.76 1.3l1.9 1.1-1.9 1.1a.75.75 0 1 0 .76 1.3l1.87-1.1V17a.75.75 0 0 0 1.5 0v-2.2l1.87 1.1a.75.75 0 0 0 .76-1.3l-1.9-1.1 1.9-1.1a.75.75 0 1 0-.76-1.3l-1.87 1.1z" clip-rule="evenodd"/></svg>
