<svg xmlns="http://www.w3.org/2000/svg" fill="currentColor" viewBox="0 0 32 32"><path d="M9.21.29a1 1 0 0 0-.33-.21 1 1 0 0 0-.76 0 1 1 0 0 0-.33.21l-5 5a1 1 0 0 0 1.42 1.42l3.29-3.3V31a1 1 0 0 0 2 0V3.41l3.29 3.3a1 1 0 0 0 1.42 0 1 1 0 0 0 0-1.42ZM23.5 30a1 1 0 0 0 0 2h3.33a1 1 0 0 0 0-2h-.66V19.33a1 1 0 0 0-.62-.92 1 1 0 0 0-1.09.22L21.13 22a1 1 0 0 0 0 1.41 1 1 0 0 0 1.41 0l1.63-1.62V30Zm1.67-30a4.34 4.34 0 1 0 0 8.67 5 5 0 0 0 1.59-.31c-.68 1.83-1.8 3.31-3.26 3.31a1 1 0 0 0 0 2c4.09 0 6-5.57 6-9.34A4.33 4.33 0 0 0 25.17 0m0 6.67a2.34 2.34 0 1 1 2.33-2.34 2.34 2.34 0 0 1-2.33 2.34"/></svg>
