<svg xmlns="http://www.w3.org/2000/svg" fill="currentColor" style="fill-rule:evenodd;clip-rule:evenodd;stroke-linejoin:round;stroke-miterlimit:2" viewBox="0 0 1069 1069"><path id="Microphone" d="M1.41 1.67h1066.67v1066.67H1.41z" style="fill:none"/><path d="M796.97 405.33c9.75-30.33 54.65-28 60.18 5.1q.48 1.73.5 4.71l.01.42v30.98a322.8 322.8 0 0 1-90.18 223.82l-1.56 1.6-1.4 1.43-1.41 1.43-1.46 1.45-1.47 1.43-1.46 1.42-1.46 1.4-1.46 1.37-2.03 1.9-.79.72-1.51 1.38-1.52 1.37-1.52 1.35-1.52 1.33-1.5 1.3-2.1 1.8-.82.68-1.57 1.31-1.57 1.3-1.57 1.27-1.57 1.26-1.56 1.24-2.17 1.7-.84.65-1.62 1.23-1.62 1.23-1.62 1.2-1.62 1.19-1.6 1.17-2.23 1.59-2.54 1.78-1.67 1.14-1.67 1.14-1.67 1.11-1.65 1.1-2.28 1.48-2.61 1.67-1.72 1.08-1.71 1.06-1.71 1.04-1.7 1.02-2.32 1.38-2.7 1.56-1.75 1-1.76.98-1.75.97-1.75.95-2.35 1.26-2.76 1.45-1.8.92-1.8.91-1.8.9-1.78.87-2.38 1.15-2.83 1.33-1.84.85-1.83.83-1.83.81-1.83.8-2.4 1.04-2.9 1.21-1.87.77-1.87.75-1.86.74-1.85.72-1.46.56a323 323 0 0 1-114.5 20.98h-.17a322.83 322.83 0 0 1-322.83-322.83V415.2c2-41.25 60.36-42.07 62.5.35v30.98a260.33 260.33 0 0 0 260.33 260.33h.17a260 260 0 0 0 119.07-28.82l1.57-.82 2.27-1.2 2.27-1.23 2.57-1.43 1.98-1.12 2.43-1.42 1.89-1.12 2.5-1.53 1.26-.77 2.44-1.54 1.79-1.16 2.47-1.63 1.53-1.03 2.12-1.45 1.72-1.2 1.2-.86 1.37-.97 2.24-1.64 1.66-1.24 1.2-.9 1.17-.9 1.54-1.2 2.43-1.92 1.17-.94 1.16-.94 1.46-1.21 1.98-1.66 1.58-1.35 1.13-.98 1.38-1.21 1.98-1.78 1.54-1.4 1.1-1.01 1.26-1.18 1.29-1.23 2.22-2.14 1.08-1.06 1.53-1.53 1.8-1.83 1.56-1.6 1.8-1.9 1.54-1.65 1.73-1.9 1.52-1.7 1.7-1.91 1.47-1.7 1.66-1.96 1.44-1.73 1.62-1.99 1.42-1.77 1.57-2 1.38-1.79 1.53-2.02 1.36-1.82 1.48-2.04 1.31-1.83 1.46-2.08 1.3-1.9 1.4-2.06 1.26-1.92 1.35-2.08 1.7-2.7 1.67-2.7 1.63-2.74 1.6-2.75 1.57-2.77 1.53-2.78 1.5-2.8 1.46-2.83 1.43-2.84 1.39-2.85 1.35-2.87 1.33-2.89 1.28-2.9 1.25-2.92 1.22-2.93 1.18-2.95.57-1.48 1.13-2.97 1.09-2.98.53-1.5 1.03-3 .5-1.5.5-1.52.49-1.51.47-1.52.47-1.52.46-1.52.45-1.52.43-1.53.43-1.53.42-1.54.41-1.53.4-1.54.4-1.54.38-1.55.38-1.55.36-1.55.36-1.55.34-1.55.34-1.56.33-1.56.31-1.56.31-1.57.3-1.57.29-1.57.28-1.57.27-1.57.26-1.58.25-1.58.24-1.58.23-1.58.22-1.58.21-1.59.2-1.59.2-1.59.18-1.6.17-1.58.17-1.6.15-1.6.14-1.6.14-1.6q.84-10.4.84-20.93V415.2c0-3.68.64-7.21 1.8-9.88m-220.48 77.59H701.4a31.26 31.26 0 0 0 0-62.5H576.5c-17.25 0-31.25 14-31.25 31.24 0 17.25 14 31.25 31.25 31.25m-.08-125h124.92a31.27 31.27 0 0 0 0-62.5H576.41c-17.25 0-31.25 14-31.25 31.24 0 17.25 14 31.25 31.25 31.25" style="fill-opacity:.5"/><path d="M451.41 941.25h166.67a31.26 31.26 0 0 0 0-62.5H451.4a31.26 31.26 0 0 0 0 62.5m52.08-173.38c-94.24-9.07-176.65-58.64-229.6-131.1a31.27 31.27 0 0 1 6.79-43.67 31.26 31.26 0 0 1 43.67 6.8c47.38 64.84 124.01 106.97 210.48 106.97h.08c36.95 0 72.11-7.7 103.96-21.6v-.1q5.27-2.3 10.46-4.83l36.59-21.8 31.93-26.86 28.5-33.38 23.85-40.52 15.05-40.1 7.72-37.45 1.35-12.76q.73-9.05.83-18.22l.01-2.71V415.2l.05-1.71.17-2 .37-2.23.53-2.08.52-1.48.17-.38c9.75-30.33 54.65-28 60.18 5.1l.31 1.61.15 1.68.05 1.42v31.48c0 167.77-128 305.64-291.67 321.28v37.93a31.26 31.26 0 0 1-62.5 0zm31.25-633.91-.43.06q.21-.06.44-.06a197.9 197.9 0 0 0-197.92 197.91v125A197.9 197.9 0 0 0 534.75 654.8a197.9 197.9 0 0 0 197.91-197.92v-125a197.9 197.9 0 0 0-197.91-197.91m-.66 62.5h1.43a135.4 135.4 0 0 1 134.65 135.41v125a135.42 135.42 0 1 1-270.83 0v-125a135.4 135.4 0 0 1 134.75-135.41"/></svg>
