<svg xmlns="http://www.w3.org/2000/svg" viewBox="0 0 1024 1024"><path fill="currentColor" d="M128.02 512c0 185.54 132.31 340.76 307.52 376.32L392.2 785.39C287.04 739.1 213.35 634.07 213.35 512.02c0-164.7 133.98-298.67 298.67-298.67S810.7 347.33 810.7 512.02c0 122.1-73.69 227.12-178.86 273.39L588.5 888.32C763.71 852.76 896.02 697.58 896.02 512c0-211.75-172.27-384-384-384s-384 172.25-384 384"/><path fill="none" d="M106.67 512h128m554.66 0h128M512 234.67v-128"/><path fill="currentColor" d="M512.02 960 341.33 554.67 512 661.33l170.67-106.66z"/></svg>
