<svg xmlns="http://www.w3.org/2000/svg" fill="none" viewBox="0 0 24 24"><path stroke="currentColor" stroke-linecap="round" stroke-linejoin="round" stroke-width="2" d="m21 12.18-4.06 1.48a2 2 0 0 0-1.23 1.3L14.15 20a.16.16 0 0 1-.3 0l-1.56-5.05a2 2 0 0 0-1.23-1.29L7 12.18a.2.2 0 0 1 0-.36l4.06-1.48a2 2 0 0 0 1.23-1.3L13.85 4a.16.16 0 0 1 .3 0l1.56 5.05a2 2 0 0 0 1.23 1.29L21 11.82a.2.2 0 0 1 0 .36M3.75 5.25c.47.16.84.53 1 1 .08.24.42.24.5 0a1.6 1.6 0 0 1 1-1 .26.26 0 0 0 0-.5 1.6 1.6 0 0 1-1-1 .26.26 0 0 0-.5 0 1.6 1.6 0 0 1-1 1 .26.26 0 0 0 0 .5m3.5 14a1.6 1.6 0 0 0-1 1 .26.26 0 0 1-.5 0 1.6 1.6 0 0 0-1-1 .26.26 0 0 1 0-.5 1.6 1.6 0 0 0 1-1 .26.26 0 0 1 .5 0c.16.47.53.84 1 1 .24.08.24.42 0 .5"/></svg>
