<svg xmlns="http://www.w3.org/2000/svg" fill="currentColor" viewBox="0 0 32 32"><path d="M16 1.13a16 16 0 0 0-8.48 29.52 1 1 0 1 0 1.06-1.69 14 14 0 0 1-4.17-4.03l1.05-.6a1 1 0 1 0-1-1.73l-1.05.6a14 14 0 0 1-1.36-5.1h1.12a1 1 0 0 0 0-2H2.06q.21-2.78 1.4-5.15l1 .58a1 1 0 1 0 1-1.73l-1-.57c1-1.47 2.28-2.73 3.75-3.72l.56.97a1 1 0 0 0 1.37.37 1 1 0 0 0 .37-1.37l-.56-.97q2.33-1.12 5.03-1.34v1.25a1 1 0 1 0 2 0V3.17q2.76.2 5.13 1.37l-.54.94a1 1 0 1 0 1.73 1l.54-.93a14 14 0 0 1 3.72 3.7l-.94.55a1 1 0 1 0 1 1.73l.94-.54a14 14 0 0 1 1.38 5.14h-1.1a1 1 0 0 0 0 2h1.1a14 14 0 0 1-1.33 5.04l-.99-.57a1 1 0 0 0-1 1.73l1 .57a14 14 0 0 1-4.3 4.12 1 1 0 0 0 1.05 1.7A16 16 0 0 0 16 1.12zm7.38 12.86a1 1 0 0 0-1-1.73l-5.43 3.14a1.98 1.98 0 0 0-2.98 1.72 2 2 0 1 0 3.99 0z"/></svg>
