<svg xmlns="http://www.w3.org/2000/svg" style="fill-rule:evenodd;clip-rule:evenodd;stroke-linejoin:round;stroke-miterlimit:2" viewBox="0 0 64 64"><path id="Icons" d="M-1024-64H256v800h-1280z" style="fill:none"/><g id="Icons1"><g id="spinner--loading--dots-"><path d="M46.03 32A4.99 4.99 0 1 1 56 32a4.99 4.99 0 0 1-9.97 0" style="fill:#d9d9d9"/><path d="M41.92 41.92a4.99 4.99 0 1 1 7.05 7.06 4.99 4.99 0 0 1-7.05-7.06" style="fill:#b3b3b3"/><circle cx="32" cy="51.015" r="4.985" style="fill:#8c8c8c"/><path d="M22.08 41.92a4.99 4.99 0 1 1-7.06 7.05 4.99 4.99 0 0 1 7.06-7.05" style="fill:#666"/><path d="M17.97 32A4.99 4.99 0 1 1 8 32a4.99 4.99 0 0 1 9.97 0m4.11-9.92a4.99 4.99 0 1 1-7.05-7.06 4.99 4.99 0 0 1 7.05 7.06" style="fill:#404040"/><circle cx="32" cy="12.985" r="4.985"/></g></g></svg>
