<svg xmlns="http://www.w3.org/2000/svg" fill="none" viewBox="0 0 40 41"><g clip-path="url(#clip0_9067_87887)"><path stroke="currentColor" stroke-width="1.5" fill="none" d="M9 1.05h17.04l8.21 7.53V36.3c0 1.8-1.46 3.25-3.25 3.25H9a3.25 3.25 0 0 1-3.25-3.25v-32c0-1.8 1.46-3.25 3.25-3.25Z"/><mask id="path-2-inside-1_9067_87887" fill="currentColor"><path d="M25 1.3h8.5v8.5H26a1 1 0 0 1-1-1z"/></mask><path fill="currentColor" d="M25 1.3h8.5zm8.5 9.5H26a2 2 0 0 1-2-2h9.5zm-7.5 0a2 2 0 0 1-2-2V1.3h2zm7.5-9.5v8.5z" mask="url(#path-2-inside-1_9067_87887)"/><rect width="23" height="13" x="1" y="20.297" fill="currentColor" rx="2"/><path fill="currentColor" d="M6.26 30.37q-.76 0-1.38-.25-.6-.26-.98-.74a2 2 0 0 1-.38-1.18h1.82a1 1 0 0 0 .27.6q.22.2.6.2t.6-.17a.6.6 0 0 0 .22-.5.6.6 0 0 0-.18-.42q-.17-.17-.43-.28a7 7 0 0 0-.72-.25 8 8 0 0 1-1.1-.42 2 2 0 0 1-.75-.62q-.3-.41-.3-1.07 0-.99.7-1.53a3 3 0 0 1 1.85-.56q1.16 0 1.87.56.71.54.76 1.54H6.88a.7.7 0 0 0-.25-.53 1 1 0 0 0-.59-.2q-.3 0-.5.17-.2.15-.19.47 0 .33.32.53.32.19 1 .4.68.23 1.1.45.43.21.74.6.3.4.31 1.04a2 2 0 0 1-.3 1.09q-.3.48-.89.78-.58.3-1.37.29m8.61 1.13-.9-1.21q-.39.08-.78.08a4 4 0 0 1-1.82-.46 3.5 3.5 0 0 1-1.79-3.14q0-1.03.48-1.85a3.5 3.5 0 0 1 1.31-1.28 4 4 0 0 1 1.82-.46q1 0 1.81.46.84.45 1.3 1.28.48.81.48 1.85 0 .9-.37 1.65-.36.74-1 1.23l1.53 1.85zm-3.54-4.73q0 .93.5 1.49.52.54 1.36.55.84 0 1.34-.56t.51-1.48a2 2 0 0 0-.5-1.48 1.7 1.7 0 0 0-1.35-.56q-.85 0-1.36.55-.5.54-.5 1.49m8.13 2.2h2.24v1.33h-3.95v-7.02h1.71z"/></g><defs><clipPath id="clip0_9067_87887"><path fill="currentColor" d="M0 .3h40v40H0z"/></clipPath></defs></svg>
