<svg xmlns="http://www.w3.org/2000/svg" fill="none" viewBox="0 0 24 24"><path fill="currentColor" fill-rule="evenodd" d="M11.94 1.25h.12c2.3 0 4.11 0 5.53.19 1.44.2 2.58.6 3.48 1.5.9.89 1.3 2.03 1.49 3.47.19 1.42.19 3.22.19 5.53v.12c0 2.3 0 4.11-.19 5.53a5.7 5.7 0 0 1-1.5 3.48 5.7 5.7 0 0 1-3.47 1.49c-1.42.19-3.22.19-5.53.19h-.12c-2.3 0-4.11 0-5.53-.19a5.7 5.7 0 0 1-3.48-1.5 5.7 5.7 0 0 1-1.49-3.47c-.19-1.42-.19-3.22-.19-5.53v-.12c0-2.3 0-4.11.19-5.53a5.7 5.7 0 0 1 1.5-3.48A5.7 5.7 0 0 1 6.4 1.44c1.42-.19 3.22-.19 5.53-.19M6.61 2.93c-1.27.17-2.05.5-2.62 1.06-.56.57-.9 1.35-1.06 2.62-.18 1.3-.18 3.01-.18 5.39s0 4.09.18 5.39c.17 1.27.5 2.05 1.06 2.62.57.56 1.35.9 2.62 1.06 1.3.18 3.01.18 5.39.18s4.09 0 5.39-.18c1.27-.17 2.05-.5 2.62-1.06.56-.57.9-1.35 1.06-2.62.18-1.3.18-3.01.18-5.39s0-4.09-.18-5.39c-.17-1.27-.5-2.05-1.06-2.62-.57-.56-1.35-.9-2.62-1.06-1.3-.18-3.01-.18-5.39-.18s-4.09 0-5.39.18m7.42 5.54c.3.3.3.77 0 1.06L11.56 12l2.47 2.47a.75.75 0 1 1-1.06 1.06l-3-3a.75.75 0 0 1 0-1.06l3-3c.3-.3.77-.3 1.06 0" clip-rule="evenodd"/></svg>
