<svg fill="currentColor" viewBox="0 0 64 64" xmlns="http://www.w3.org/2000/svg" style="fill-rule:evenodd;clip-rule:evenodd;stroke-linejoin:round;stroke-miterlimit:2;"><rect id="Icons" x="-1152" y="-64" width="1280" height="800" style="fill:none;"/><g id="Icons1" serif:id="Icons"><path id="square" d="M50.005,56l-35.989,0c-3.309,0 -5.995,-2.686 -5.995,-5.995l0,-36.011c0,-3.308 2.686,-5.995 5.995,-5.995l35.989,0c3.309,0 5.995,2.687 5.995,5.995l0,36.011c0,3.309 -2.686,5.995 -5.995,5.995Zm-0.993,-4.001c1.65,0 2.989,-1.339 2.989,-2.989l0,-34.021c0,-1.649 -1.339,-2.989 -2.989,-2.989l-34.003,0c-1.65,0 -2.989,1.34 -2.989,2.989l0,34.021c0,1.65 1.339,2.989 2.989,2.989l34.003,0Z"/></g></svg>
