<svg xmlns="http://www.w3.org/2000/svg" fill="none" viewBox="0 0 24 24"><path fill="currentColor" fill-rule="evenodd" d="M16.31 4.01 15.5 4h-4.45c-1.44 0-2.46 0-3.26.07-.78.06-1.26.19-1.63.38a4 4 0 0 0-1.71 1.7c-.2.38-.32.86-.38 1.64C4 8.6 4 9.61 4 11.05v5.45A3.5 3.5 0 0 0 7.5 20h2.56c.52 0 .94-.42.94-.94v-.56a5.5 5.5 0 0 1 5.5-5.5A3.5 3.5 0 0 0 20 9.5v-1l-.01-.81A4 4 0 0 0 16.3 4m5.7 7.64c0 .6 0 .96-.03 1.3a9 9 0 0 1-3.68 6.62l-.06.05a9 9 0 0 1-5.58 2.37c-.27.02-.55.02-1.02.02H7.5A5.5 5.5 0 0 1 2 16.5V11q-.02-2.05.07-3.37c.08-.91.24-1.69.6-2.4a6 6 0 0 1 2.56-2.55 6 6 0 0 1 2.4-.6C8.52 2 9.62 2 11 2h4.54c.42 0 .69 0 .92.02a6 6 0 0 1 5.51 5.5c.02.24.02.51.02.93zm-9.14 8.32a7 7 0 0 0 4.12-1.9c.5-.43.71-.6.9-.79a7 7 0 0 0 1.92-3.37 5.5 5.5 0 0 1-3.3 1.1 3.5 3.5 0 0 0-3.5 3.5v.56q0 .46-.14.9" clip-rule="evenodd"/></svg>
