<svg xmlns="http://www.w3.org/2000/svg" fill="none" viewBox="0 0 24 24"><path stroke="currentColor" stroke-linecap="round" stroke-linejoin="round" stroke-width="1.5" d="m16.15 3.43 2.36 2.05c1.62 1.4 2.44 2.1 2.44 3.02s-.82 1.62-2.44 3.02l-2.36 2.05c-.7.61-1.07.92-1.36.79s-.29-.6-.29-1.55v-1.52c-3 0-6.25 1.39-7.5 3.71 0-7.43 4.44-9.29 7.5-9.29V4.2c0-.94 0-1.42.3-1.55.28-.13.64.18 1.35.8"/><path stroke="currentColor" stroke-linecap="round" stroke-width="1.5" d="M12 22c-4.71 0-7.07 0-8.54-1.46M12 22c4.71 0 7.07 0 8.54-1.46M12 22h.86m-9.4-1.46C2 19.07 2 16.7 2 12v.05m1.46 8.49c-.63-.64-1-1.45-1.2-2.54C2 16.59 2 14.7 2 12.05M22 12c0 4.71 0 7.07-1.46 8.54m0 0C19.16 21.9 17 21.99 12.86 22m7.68-1.46c1.24-1.25 1.43-3.13 1.45-6.54M12 2C7.29 2 4.93 2 3.46 3.46m0 0c-.97.98-1.3 2.35-1.4 4.54m1.4-4.54C4.71 2.22 6.6 2.03 10 2.01M2 12v.05M12.86 22c4.15 0 6.3-.1 7.68-1.46C21.78 19.29 21.97 17.4 22 14M10 2c-3.41.03-5.3.22-6.54 1.46"/></svg>
