<svg xmlns="http://www.w3.org/2000/svg" fill="none" viewBox="0 0 24 24"><path fill="currentColor" fill-rule="evenodd" d="m20.53 3.4-.81-.8a3 3 0 0 0-.84-.54 3 3 0 0 0-2.3 0q-.49.2-.84.55-.35.3-.82.78L8.94 9.38c-.42.41-.73.72-.97 1.1a4 4 0 0 0-.46 1.01c-.12.43-.15.87-.2 1.45l-.13 1.95-.01.43q-.02.26.14.65.24.45.7.7.38.15.64.13l.43-.01 1.95-.14a7 7 0 0 0 1.45-.19 4 4 0 0 0 1.01-.46c.38-.24.69-.55 1.1-.97l5.99-5.98q.46-.46.78-.82.34-.36.55-.84a3 3 0 0 0 0-2.3q-.2-.47-.55-.84-.3-.35-.78-.81zm-2.42.5c.04.02.12.06.3.21q.25.23.73.72.5.49.72.74.2.24.2.29a1 1 0 0 1 0 .77c-.01.04-.05.12-.2.29q-.16.18-.44.45L16.6 4.55q.27-.28.45-.44.24-.2.3-.2a1 1 0 0 1 .76 0m-2.93 2.06 2.83 2.83-4.76 4.76a6 6 0 0 1-.83.76 2 2 0 0 1-.5.23c-.2.06-.4.08-1.12.13l-1.6.1.1-1.6a5 5 0 0 1 .13-1.11 2 2 0 0 1 .23-.51c.1-.16.25-.32.76-.83z" clip-rule="evenodd"/><path fill="currentColor" d="M11 2q-2.05-.02-3.37.07c-.91.08-1.69.24-2.4.6a6 6 0 0 0-2.55 2.56 6 6 0 0 0-.6 2.4C2 8.52 2 9.62 2 11v1.98q-.02 2.07.07 3.38c.08.91.24 1.69.6 2.4a6 6 0 0 0 2.56 2.55c.71.37 1.49.53 2.4.6q1.32.1 3.38.08h2.03c1.37 0 2.45 0 3.33-.07.9-.07 1.65-.23 2.35-.58a6 6 0 0 0 2.63-2.63c.35-.7.5-1.46.58-2.35.07-.88.07-1.96.07-3.33V13a1 1 0 1 0-2 0c0 1.42 0 2.42-.06 3.2a4 4 0 0 1-.38 1.62 4 4 0 0 1-1.74 1.74c-.37.2-.85.31-1.62.38-.78.06-1.78.06-3.2.06h-1.95c-1.44 0-2.46 0-3.26-.07a4 4 0 0 1-1.63-.38 4 4 0 0 1-1.71-1.7 4 4 0 0 1-.38-1.64C4 15.4 4 14.39 4 12.95v-1.9c0-1.44 0-2.46.07-3.26.06-.78.19-1.26.38-1.63a4 4 0 0 1 1.7-1.71c.38-.2.86-.32 1.64-.38C8.6 4 9.61 4 11.05 4H12a1 1 0 1 0 0-2z"/></svg>
