<svg xmlns="http://www.w3.org/2000/svg" fill="none" viewBox="0 0 24 24"><path stroke="currentColor" stroke-linecap="round" stroke-width="1.5" d="M19 17v1m-2.5-1v1M14 17v1m-2.5-1v1"/><path fill="currentColor" d="m19 5.12.72-.21v-.02zm-14 0-.72-.23v.01zm16.13 10.04a.75.75 0 1 0 1.44-.41zm-19.7-.41a.75.75 0 1 0 1.44.41zm1.46 5.9-.43.6zm-.55-.6.63-.4zm19.32 0-.63-.4zm-.55.6.43.6zm0-6.7.43-.62zm.55.58-.63.4zM2.9 13.95l-.43-.62zm-.55.58.63.4zm18.8-4.7a.75.75 0 1 0-1.43.42zm-2.5-3.27a.75.75 0 1 0 1.44-.42zM12 20.25a.75.75 0 0 0 0 1.5zm-4 1.5a.75.75 0 0 0 0-1.5zm-.5-18h9v-1.5h-9zm9 0q.63 0 1.02.3c.27.21.54.6.76 1.3l1.44-.46a4 4 0 0 0-1.28-2.02 3 3 0 0 0-1.94-.62zm-9-1.5c-.68 0-1.35.16-1.94.62q-.87.68-1.28 2.02l1.44.45c.22-.7.5-1.08.76-1.29q.4-.3 1.02-.3zM4.28 4.91l-2.85 9.84 1.44.41 2.85-9.83zm1.22 9.43h13v-1.5h-13zm0 5.91c-.72 0-1.2 0-1.56-.04-.35-.04-.51-.1-.62-.18l-.86 1.23c.4.28.84.39 1.32.44q.69.06 1.72.05zm-4.25-2.96q-.01 1.09.05 1.82a3 3 0 0 0 .4 1.35l1.27-.8a1.5 1.5 0 0 1-.18-.7c-.04-.4-.04-.9-.04-1.67zm2.07 2.74q-.2-.15-.35-.37l-1.27.8q.3.47.76.8zm17.93-2.74c0 .76 0 1.28-.04 1.67s-.1.57-.18.7l1.27.8a3 3 0 0 0 .4-1.35q.06-.73.05-1.82zm-2.75 4.46q1.03.01 1.72-.05a3 3 0 0 0 1.32-.44l-.86-1.23c-.1.08-.27.14-.62.18-.36.04-.84.04-1.56.04zm2.53-2.1q-.15.23-.35.38l.86 1.23q.45-.33.76-.8zm-2.53-5.31c.72 0 1.2 0 1.56.04.35.04.51.1.62.18l.86-1.23a3 3 0 0 0-1.32-.44q-.69-.06-1.72-.05zm4.25 2.95q.01-1.08-.05-1.8a3 3 0 0 0-.4-1.36l-1.27.8c.08.13.14.31.18.7s.04.9.04 1.66zm-2.07-2.73q.2.15.35.37l1.27-.8q-.3-.47-.76-.8zM5.5 12.84q-1.03-.01-1.72.05a3 3 0 0 0-1.32.44l.86 1.23c.1-.08.27-.14.62-.18.36-.04.84-.04 1.56-.04zm-2.75 4.45c0-.75 0-1.27.04-1.66s.1-.57.18-.7l-1.27-.8a3 3 0 0 0-.4 1.35q-.06.73-.05 1.81zm-.3-3.96q-.45.33-.75.8l1.27.8q.15-.23.35-.37zm17.26-3.08 1.42 4.91 1.44-.41-1.42-4.92zm-1.43-4.92.36 1.23 1.44-.42-.36-1.23zm.22 14.92H12v1.5h6.5zm-10.5 0H5.5v1.5H8z"/></svg>
