<svg xmlns="http://www.w3.org/2000/svg" fill="none" viewBox="0 0 24 24"><path stroke="currentColor" stroke-linejoin="round" stroke-width="2" d="m16.96 11.04-1.54 1.54a2 2 0 0 0-.54 1.8L15.2 16l.05.23c.1.48-.43.85-.85.59l-1.35-.84a2 2 0 0 0-2.1 0l-1.35.84a.56.56 0 0 1-.85-.6L8.8 16l.32-1.62a2 2 0 0 0-.54-1.8L7 11a.59.59 0 0 1 .41-1h1.53a2 2 0 0 0 1.88-1.3l.62-1.7a.6.6 0 0 1 1.12 0l.62 1.7a2 2 0 0 0 1.88 1.3h1.47c.54 0 .81.66.43 1.04Z"/><path stroke="currentColor" stroke-width="2" d="M3 12c0-7.41 1.59-9 9-9s9 1.59 9 9-1.59 9-9 9-9-1.59-9-9Z"/></svg>
