<svg xmlns="http://www.w3.org/2000/svg" fill="none" viewBox="0 0 24 24"><path stroke="currentColor" stroke-linecap="round" stroke-linejoin="round" stroke-width="2" d="M11.3 3.84c.22-.43.34-.65.49-.72a.5.5 0 0 1 .42 0c.15.07.27.29.5.72l1.4 2.67q.13.27.23.35t.22.1c.1.02.2 0 .41-.04l2.97-.56c.48-.1.72-.14.87-.06a.5.5 0 0 1 .26.33c.04.16-.05.39-.25.84l-1.21 2.76c-.09.2-.13.3-.13.39q0 .13.05.25.06.1.29.29l2.29 1.97c.37.32.56.48.6.64a.5.5 0 0 1-.1.41c-.1.13-.34.2-.82.33l-2.91.77a2 2 0 0 0-.39.14l-.15.2q-.05.12-.05.4l-.11 3.02c-.02.5-.03.74-.14.87a.5.5 0 0 1-.38.18c-.17 0-.36-.14-.76-.43l-2.42-1.8c-.18-.12-.26-.19-.35-.21h-.26q-.12.03-.35.21l-2.42 1.8c-.4.29-.6.44-.76.43a.5.5 0 0 1-.38-.18c-.11-.13-.12-.38-.14-.87l-.1-3.01a1 1 0 0 0-.06-.41l-.15-.2a2 2 0 0 0-.39-.14l-2.92-.77c-.47-.13-.7-.2-.81-.33a.5.5 0 0 1-.1-.4c.04-.17.23-.33.6-.65l2.29-1.97c.16-.14.24-.2.29-.3l.05-.24c0-.1-.04-.2-.13-.39l-1.2-2.76c-.2-.45-.3-.68-.27-.84a.5.5 0 0 1 .27-.33c.15-.08.39-.03.87.06l2.97.56q.28.06.4.05l.23-.11q.1-.08.22-.35z"/></svg>
