<svg xmlns="http://www.w3.org/2000/svg" fill="currentColor" viewBox="0 0 32 32"><path d="m16 2.42 4.3 8.91 9.76 1.45L23 19.84l.24 1.41 1.41 8.45L16 25.05 7.36 29.7l1.41-8.44.24-1.42-7.08-7.06 9.77-1.45.64-1.33zM16 .5c-.9 0-1.71.5-2.1 1.3l-3.61 7.5-8.33 1.24A2.3 2.3 0 0 0 .1 12.05a2.2 2.2 0 0 0 .53 2.29l6.1 6.1-1.4 8.46c-.15.85.22 1.7.94 2.2a2.4 2.4 0 0 0 2.45.13l7.27-3.9 7.26 3.9a2.4 2.4 0 0 0 2.45-.13 2.2 2.2 0 0 0 .95-2.2l-1.42-8.46 6.11-6.1c.61-.6.82-1.49.54-2.29s-.99-1.38-1.84-1.5L21.7 9.3l-3.6-7.52A2.4 2.4 0 0 0 16 .48z"/></svg>
