<svg xmlns="http://www.w3.org/2000/svg" fill="none" viewBox="0 0 24 24"><path stroke="currentColor" stroke-linecap="round" stroke-linejoin="round" stroke-width="1.5" d="m5.28 18.65.57-2.47c.13-.58-.1-1.39-.52-1.81l-2.48-2.48c-1.46-1.46-.99-2.94 1.05-3.28l3.19-.53A2.2 2.2 0 0 0 8.5 7.03l1.76-3.52c.95-1.91 2.51-1.91 3.47 0l1.76 3.52c.11.23.32.45.55.64m4.06.94c2.04.34 2.52 1.82 1.05 3.28l-2.48 2.48a2.2 2.2 0 0 0-.52 1.81l.71 3.07c.56 2.43-.73 3.37-2.88 2.1l-2.99-1.77a2.2 2.2 0 0 0-1.98 0l-2.99 1.77M22 2 2 22"/></svg>
