<svg xmlns="http://www.w3.org/2000/svg" viewBox="-20.33 0 389.263 389.263"><defs><style>.a{fill:#fff}.c{fill:#211715}.e{fill:#7a7473}.f{fill:#bdbdbd}</style></defs><path d="M70.91 143.06a41 41 0 0 1-5.99 1.83l-.18.03a37 37 0 0 0 2.07 7.56 18 18 0 0 0 1.55 2.74c1.77-4.9 3.41-8.66 4.4-12.89zm20.14 198.09H2v46.11h344.33V251.93H232v45.11H117v44.11Zm36.59-316.36a30 30 0 0 1 .52 6.43c.22 3.98.5 9.49 4.18 11.37a3.7 3.7 0 0 1 1.73 1.65c.92 1.96-.77 2.89-1.8 4.06a6 6 0 0 0-1.32 2.6 38 38 0 0 1-.67 5.76 16 16 0 0 1-1.2 3.87 7.6 7.6 0 0 1-4.09 3.95 18.3 18.3 0 0 1-9.78 1 1.3 1.3 0 0 0-1.54.82 36 36 0 0 1-1.3 4.19l-1.49 3.68-.74 1.86A45 45 0 0 0 99.6 69.1c-3.93-1.95-7.02-3.02-10.64-4.71l-.36-.14c-.7-3.3-3.93-5.79-7.75-9.62-3.03-3.05-6.68-8.73-7.9-12.74a31.5 31.5 0 0 1-1.05-14c.76-4.58 2.73-9.48 6.56-12.68l4.91-5.18C86.9 5.98 93.52 2.9 99.33 2.2a26 26 0 0 1 15.32 2.67c5.53 2.87 12.04 8.78 13.1 20.43m24.6 73.7c-.67 1.16-1.55 2.66-2.08 3.75l.11.04c2.84 1.44 12.83 8.58 16.45 11.1q1.23-2.48 2.4-5a1.7 1.7 0 0 0-.44-2.02c-3.21-2.73-9.25-6.35-13.95-8.85a1.7 1.7 0 0 0-2.3.66z" class="a"/><path d="M176.01 99.67c-1.16 1.06-2.26 1.96-3.34 2.92l-4.36 3.86a97 97 0 0 0-13.48-8.44 1.7 1.7 0 0 0-1.18-.15l-.5-2.13-1.33-5.9c-.5-1.66.37-5.36 1.47-7.47 1.51-2.91 3.66-4.93 7.77-.9 1.1-2.24 2.01-4.38 3.28-7.12a3.33 3.33 0 0 1 4.55-1.6 4 4 0 0 1 2.39 3.92 5.9 5.9 0 0 1 4.7 4.4 4 4 0 0 0 1.37 2.38c4.17 3.97 6.61 7.97 1.58 13.37q-1.55 1.63-2.92 2.86" class="a"/><path d="M101.09 2.04a26 26 0 0 1 13.56 2.82A23.8 23.8 0 0 1 127.3 22.1l-3.24 1.74c-2.83 1.52-6.75 4.55-8.96 6.08-.53.37-1.22-.1-1.2-.82a5 5 0 0 0-.2-1.6c-.2-.66-.7-.91-1.07-.67-3.42 2.23-8.66 8.55-10.92 12.6a5 5 0 0 0-2.72-1.76 3.8 3.8 0 0 0-3.2.58 5.6 5.6 0 0 0-1.7 4.63 9.6 9.6 0 0 0 2.78 6.38l-.17.28c-2.3 3.2-6.05 8.72-9.55 11.63-1.45-2-3.74-3.97-6.3-6.54-3.03-3.04-6.68-8.73-7.89-12.74a31.5 31.5 0 0 1-1.06-14c.77-4.58 2.74-9.48 6.57-12.68l4.9-5.17C86.9 5.98 93.54 2.89 99.35 2.2q.86-.1 1.75-.16" style="fill:#85807f"/><path d="m151.88 103.98.53-1.03q.42-.79.86-1.56.45-.74.87-1.49c.44-.86.1-.16.1-.17 0 .01-.6.47-.42 0-.01.04 6.05 3.43 6.58 3.75a68 68 0 0 1 6.02 4.02l.95.77c.13.1.02-.24.02-.2a2 2 0 0 1-.29.64q-.98 2.12-2.03 4.2a2.05 2.05 0 0 0 .72 2.74 2 2 0 0 0 2.74-.72 50 50 0 0 0 2.62-5.53 3.9 3.9 0 0 0-1.5-4.42 68 68 0 0 0-7.51-5.13q-2.07-1.25-4.18-2.42c-1.42-.8-2.88-1.86-4.6-1.55-1.69.3-2.45 1.6-3.25 2.97a36 36 0 0 0-2.1 4.06 2 2 0 0 0 1.4 2.46 2.05 2.05 0 0 0 2.46-1.4ZM70.09 154.2a20 20 0 0 1-1.34-2.3l-.14-.28c-.12-.23.16.39.06.15l-.18-.47q-.22-.58-.41-1.17a40 40 0 0 1-1.24-4.72 2 2 0 0 0-2.46-1.4 2.05 2.05 0 0 0-1.4 2.46 26 26 0 0 0 3.65 9.74 2 2 0 1 0 3.46-2.02Z" class="c"/><path d="M281.4 123.24c-19.25 8.87-40.03 18.22-62.65 23.94a1.45 1.45 0 0 0-.1 2.8l20.9 6.93a1.46 1.46 0 0 1 .62 2.36c-32.73 36.82-120.43 78.07-174.29 96a1.46 1.46 0 0 0 .7 2.82c35.96-6.09 104.54-25.93 126.13-36.28 22.49-10.78 45.05-25.28 60.84-41.23a1.45 1.45 0 0 1 2.32.35 394 394 0 0 1 9.58 19.92 1.46 1.46 0 0 0 2.73-.2c6-21.66 11.54-51.2 15.26-75.88a1.45 1.45 0 0 0-2.04-1.53" style="fill:#64a4d6"/><path d="M119 387.26v-90.22l-2 2h115c2.57 0 2.58-4 0-4H117a2.03 2.03 0 0 0-2 2v90.22c0 2.58 4 2.58 4 0" class="c"/><path d="M4 387.26v-46.11l-2 2h115c2.57 0 2.58-4 0-4H2a2.03 2.03 0 0 0-2 2v46.11c0 2.58 4 2.58 4 0" class="c"/><path d="M346.67 385.26H2.34c-2.58 0-2.58 4 0 4h344.33c2.57 0 2.58-4 0-4" class="c"/><path d="M234 387.26V251.93l-2 2h114.33l-2-2v135.33c0 2.58 4 2.58 4 0V251.93a2.03 2.03 0 0 0-2-2H232a2.03 2.03 0 0 0-2 2v135.33c0 2.58 4 2.58 4 0" class="c"/><path d="M49.41 329.76a452 452 0 0 0-10.88-6.4 8.8 8.8 0 0 1-4.74-7.65 10 10 0 0 1 .86-4.47c1.84-4.16 4.63-8.05 8.96-9.2l5.55-1.48a312 312 0 0 0 16.23 4.94l.03 4.01c.03 3.73 2.4 7.03 4.98 9.72s5.55 5.12 7.36 8.38 2.1 7.77-.52 10.43a8.3 8.3 0 0 1-6.71 2.1 18 18 0 0 1-6.9-2.17c-5.12-2.74-9.54-5.4-14.22-8.21" class="e"/><path d="M63.42 309.5c.23 7.35 6.48 11.42 10.79 16.5 1.82 2.14 3.26 4.85 2.91 7.75-.34 2.84-2.69 4.38-5.44 4.43-3.44.07-6.48-1.6-9.4-3.21a296 296 0 0 1-8.83-5.12q-4.46-2.69-8.95-5.35-2.49-1.42-4.96-2.86a8 8 0 0 1-2.82-2.62c-1.71-2.83-.83-6.05.63-8.76 1.52-2.8 3.62-5.38 6.8-6.3 2.47-.7 1.42-4.56-1.06-3.85a14.7 14.7 0 0 0-7.95 6.1c-2 2.9-3.51 6.28-3.34 9.87a10.9 10.9 0 0 0 4.95 8.53c1.69 1.15 3.57 2.08 5.34 3.11q2.68 1.57 5.34 3.18 4.98 3.02 10 5.92c3.44 1.97 6.95 4.2 10.88 5 3.62.73 7.8.36 10.47-2.5 2.4-2.58 2.82-6.3 1.95-9.6-1.06-4.07-4.1-7.14-7-10-2.83-2.77-6.18-5.97-6.3-10.21-.08-2.57-4.08-2.58-4 0Z" class="c"/><path d="M156.79 294.87c-3.77-.08-7.54-.11-11.3.06a8.8 8.8 0 0 1-8.15-3.99 10 10 0 0 1-1.62-5.05c.05-6.13.4-12.23 8.4-14.55 6 .2 13.51.44 19.8.58a19 19 0 0 0 7.1 3.5c3.58 1.04 7.37 1.66 10.56 3.58s5.7 5.68 4.77 9.29a8.3 8.3 0 0 1-4.77 5.17 19 19 0 0 1-7.06 1.58c-5.82.2-11.76-.05-17.73-.17" class="e"/><path d="M160.13 270.5c3.54 5.74 10.3 6.63 16.2 8.43 2.83.86 5.68 2.15 7.27 4.77a5 5 0 0 1-.97 6.77c-2.57 2.21-6.3 2.54-9.53 2.61-3.69.1-7.37.01-11.06-.08-3.73-.1-7.46-.2-11.2-.19-1.78 0-3.57.08-5.35.13a8 8 0 0 1-4.07-.83c-2.9-1.59-3.76-4.7-3.67-7.8.08-3.25.42-6.62 2.9-8.97 1.87-1.78-.96-4.6-2.83-2.83-2.6 2.47-3.6 5.78-3.93 9.26-.35 3.68-.23 7.28 1.89 10.45a10.9 10.9 0 0 0 8.49 4.7c2.01.13 4.07-.1 6.09-.1q3.29-.03 6.58.05c4.27.1 8.54.25 12.81.25 4.14 0 8.32 0 12.2-1.65 3.22-1.36 6.02-4.03 6.5-7.64.48-3.47-1.33-6.9-3.92-9.14-3.26-2.79-7.48-3.73-11.52-4.8-3.5-.92-7.42-2.15-9.43-5.4-1.35-2.2-4.8-.19-3.45 2.01" class="c"/><path d="M85.5 181.12q-1.16-.32-2.25-.66c-4.85-1.47-9.44-2.82-13.1-4.12-.32 4.75-.2 9.12-.74 15.42a182 182 0 0 1-3.25 20.25c-5.94 28.38-14.42 53.36-23.93 83.88a2.34 2.34 0 0 0 1.56 2.92c7.38 2.4 15.29 5.04 21.8 6.74a4 4 0 0 0 1.59.27c1.33-.17 1.93-1.7 2.41-2.95 16.64-43.78 28.7-76.23 34.42-90.66 7.6.78 20.03 1.99 26.27 3.14 3.69.68 5.56 1.35 7.16 3.32 1.81 2.23 2.18 5.6 2.14 8.18-.22 14.5-.3 25.46-.67 41.55a2.77 2.77 0 0 0 2.67 2.86c6.7.21 16.27.55 23.7.69a2.75 2.75 0 0 0 2.81-2.66c.48-13.74 1.3-31.94 1.28-45.11 0-6.88-.32-10.9-2.01-17.03-1.06-3.81-4.33-7.6-7.25-10.22a43 43 0 0 0-8.28-5.33c-10.9-5.4-19.4-6.54-32.77-12.62a14 14 0 0 1-4.17 2.79c-7.69 3.72-19.89 1.97-29.39-.65" class="f"/><path d="M118.93 181.1c7.23 3.2 14.73 5.52 22.17 8.16 6.73 2.4 13.89 5.3 19.03 10.44a26 26 0 0 1 3.77 4.64 18 18 0 0 1 2.07 5.4 52 52 0 0 1 1.36 10.86c.21 7.84-.09 15.71-.33 23.55-.25 8-.58 16-.86 24-.02.5.13 1.25-.29 1.62-.49.43-1.54.16-2.13.15l-6.04-.16q-6.1-.17-12.2-.38l-2.66-.08c-.53-.02-1.35.15-1.74-.3-.46-.56-.14-1.9-.13-2.56l.07-3.33q.13-6.3.23-12.6c.12-7.95.3-15.9.33-23.83.02-3.6-.69-7.55-3.39-10.15-2.27-2.19-5.43-2.79-8.43-3.3-6.9-1.16-13.91-1.81-20.88-2.52l-4.87-.49a2 2 0 0 0-2 2 2.04 2.04 0 0 0 2 2c7.17.72 14.36 1.38 21.5 2.39 2.89.4 6.44.57 8.98 2.08 2.9 1.72 3.13 5.6 3.08 8.6l-.35 24.66q-.1 6.64-.24 13.28c-.05 2.05-.43 4.28.84 6.04 1.28 1.79 3.15 1.97 5.18 2.04l12.31.38 6.38.18c1.84.05 4.04.43 5.75-.42a5.1 5.1 0 0 0 2.67-4.72q.1-2.95.22-5.89l.46-12.43c.28-8.2.55-16.4.58-24.59a86 86 0 0 0-.58-12.07c-.53-3.84-1.3-7.9-3.33-11.25-4.22-7.01-11.32-11.34-18.66-14.5-7-3-14.37-5.03-21.5-7.74q-3.21-1.22-6.35-2.6a2.06 2.06 0 0 0-2.74.71 2 2 0 0 0 .72 2.74Z" class="c"/><path d="M68.27 174.94c-.38 4.5-.35 9.03-.62 13.54a132 132 0 0 1-1.81 14.77 353 353 0 0 1-6.4 28.59c-5.35 20.52-12 40.68-18.32 60.91-.76 2.42-1.75 4.92.37 6.96a8 8 0 0 0 3.08 1.45l3.96 1.3c4.97 1.61 9.94 3.22 14.98 4.6 2.3.63 4.6 1.4 6.43-.65 1.57-1.76 2.17-4.56 3-6.72l5.8-15.33q9.44-24.94 18.85-49.89c4.67-12.3 9.54-24.5 14.21-36.8l2.25-5.96a2 2 0 0 0-1.4-2.46 2.05 2.05 0 0 0-2.46 1.4c-4.7 12.4-9.6 24.73-14.32 37.13q-8.53 22.43-16.97 44.9l-11.06 29.2c-.18.47-.67 1.92-.97 2a16 16 0 0 1-2.7-.78q-3.57-1-7.1-2.1l-7.48-2.4-3.52-1.15c-.56-.18-1.88-.27-1.93-.95a7 7 0 0 1 .6-1.98l.6-1.88 1.24-3.97 2.45-7.76 4.64-14.8c2.96-9.53 5.84-19.1 8.44-28.74a428 428 0 0 0 6.76-28.65q1.28-6.48 2.1-13.03c.6-4.8.8-9.61.96-14.45q.09-3.15.34-6.3c.22-2.57-3.78-2.55-4 0m34.61-137.18a6.7 6.7 0 0 0-6.36-2.03 6 6 0 0 0-4.18 4.54 11.4 11.4 0 0 0 3 10.3 15 15 0 0 0 5.39 3.3 2 2 0 0 0 2.46-1.4 2.05 2.05 0 0 0-1.4-2.45l-.47-.2-.55-.25a13 13 0 0 1-1.17-.67l-.46-.31c-.48-.32.26.23-.18-.14a12 12 0 0 1-.91-.85l-.35-.4q-.22-.26-.01 0l-.16-.21a11 11 0 0 1-.6-.97c-.02-.06-.28-.6-.2-.4l-.15-.44a10 10 0 0 1-.33-1.17q-.07-.33-.12-.67l-.03-.26a6 6 0 0 1 0-1.38c-.04.34.06-.21.07-.27l.17-.58q.13-.34.03-.09l.18-.35c.03-.06.34-.5.12-.23a3 3 0 0 1 .4-.4c-.32.25.53-.23.2-.1.07-.03.62-.15.33-.1a3 3 0 0 1 .69 0 4 4 0 0 1 .9.3s.5.34.26.15a6 6 0 0 1 .6.57 2 2 0 0 0 2.83-2.83Zm21.55-.87c.5 1.22.6 4.13-1.63 4.63-2.99.32-3.55-3.15-2.73-4.9.66-1.45 3.02-2.28 4.36.27" class="c"/><path d="M125.71 25.32c.88 4.62.03 9.48 1.65 13.98a9 9 0 0 0 3.84 4.94c.43.25 1.25.6 1.05 1.2-.1.31-.53.58-.76.8a11 11 0 0 0-1.3 1.5c-1.5 2.16-1.22 4.72-1.63 7.21-.39 2.4-.92 5.22-2.9 6.86-1.59 1.31-4.08 1.73-6.07 1.9a14 14 0 0 1-3.2-.02c-1.4-.2-2.63-.39-3.77.68a4.6 4.6 0 0 0-1.13 2.38 33 33 0 0 1-1.08 3.28l-1.45 3.6a2 2 0 0 0 1.4 2.46 2.05 2.05 0 0 0 2.46-1.4l1.37-3.4q.47-1.17.84-2.37l.42-1.48a1 1 0 0 0 .1-.36c-.13-.66-.51.61-.65.37.11.2 1.5.24 1.65.26a15 15 0 0 0 1.67.06 23 23 0 0 0 4.3-.49 12.4 12.4 0 0 0 6.2-2.87 13.3 13.3 0 0 0 3.45-7.01 41 41 0 0 0 .64-4.38 6 6 0 0 1 .73-3.12c.55-.77 1.35-1.33 1.92-2.1a4.1 4.1 0 0 0 .72-3.57 5.4 5.4 0 0 0-2.23-3.01 7 7 0 0 1-2.06-1.66c-1.25-1.83-1.46-4.32-1.61-6.47a75 75 0 0 0-.7-8.84c-.49-2.52-4.34-1.46-3.86 1.06Zm-30.74 23.2-1.96 2.75-1.11 1.52-.61.82-.29.37c-.37.5.24-.3-.15.2a36 36 0 0 1-5.22 5.65 2 2 0 0 0 0 2.83 2.06 2.06 0 0 0 2.83 0 36 36 0 0 0 5.34-5.81c1.6-2.06 3.1-4.19 4.63-6.3a2 2 0 0 0-.72-2.74 2.06 2.06 0 0 0-2.74.72Z" class="c"/><path d="M130.66 51.37a23 23 0 0 1-2.66-.16l.53.07a10 10 0 0 1-1.96-.45 2 2 0 0 0-2.25 2.93 2.2 2.2 0 0 0 1.2.92 17 17 0 0 0 5.15.7 2 2 0 0 0 1.41-.6 2 2 0 0 0-1.41-3.4ZM77.05 13.8c-6.8 5.83-8.38 15.77-7.03 24.19a31 31 0 0 0 4.48 11.64 53 53 0 0 0 8.19 9.58c1.38 1.36 2.98 2.82 3.72 4.66.59 1.46.24 3.2-.1 4.82-.51 2.5 3.34 3.58 3.86 1.06.71-3.48.83-6.63-1.33-9.63-2.37-3.3-5.72-5.69-8.28-8.82-5.3-6.48-8.18-14.84-6.67-23.24.79-4.35 2.58-8.5 5.99-11.43 1.95-1.68-.89-4.5-2.83-2.83" class="c"/><path d="M83.95 69.38c.52-1.34 1.13-2.28 1.54-3.52a2.52 2.52 0 0 1 3.47-1.47c3.62 1.69 6.71 2.76 10.64 4.71 4.75 2.36 9.63 5.4 13.3 9.82a11 11 0 0 1 1 2.12 12 12 0 0 0 2.42 3.75l.83.87c.47.49 1.03.89 1.54 1.34a29 29 0 0 1 5.8 7.43c2.88 4.96 3.7 6.33 6.55 10.95 2.24 3.36 4.93 7.68 8.12 7.89 3.86.26 5.47-3.42 7.35-6.33.94-1.45 1.56-2.84 2.2-3.84a1.26 1.26 0 0 1 1.67-.32c2.94 1.5 13.56 9.11 16.81 11.36a2.2 2.2 0 0 1 .5 2.43c-3.04 7.57-5.56 11.46-13.25 19.12-4.3 4.29-12.01 8.1-18.32 7.3a30 30 0 0 1-8.69-2.4c-1.17 8.9-2.01 15.57-3.52 25.86a34 34 0 0 1-1.65 6.46c-1.78 4.9-2.83 6.67-7.37 8.86-8.32 4.02-21.9 1.65-31.65-1.3-7.63-2.32-14.6-4.36-18.34-6.3a3.7 3.7 0 0 1-1.97-2.04 4 4 0 0 1 .33-2.54l4.8-13.53c1.88-5.32 3.65-9.26 4.7-13.72a49 49 0 0 1-7.84 2.55 2.5 2.5 0 0 1-2.88-1.63 192 192 0 0 1-6.6-24.65c-1-5.22-1.3-8.98.92-13.99 4.47-10.05 11.01-15.18 17.55-21.58l.68-.5c1.9-2.68 4-5.14 5.69-7.97Z" class="f"/><path d="M72.5 81.63c-3.74 3.65-7.69 7.1-11.03 11.13-3.64 4.37-7.2 9.73-8.37 15.38-1.1 5.38.3 10.93 1.5 16.18a193 193 0 0 0 4.46 16.34c.86 2.69 1.71 6.2 5.2 6.28a16 16 0 0 0 5.04-1.19q2.02-.69 4-1.5a2.06 2.06 0 0 0 1.4-2.46 2 2 0 0 0-2.45-1.4 55 55 0 0 1-6.93 2.35c-1.06.26-1.24.3-1.58-.69q-.6-1.78-1.18-3.57-2.3-7.35-4.01-14.86c-1.03-4.47-2.5-9.43-1.66-14.04.9-5 4-9.83 7.17-13.7 3.4-4.16 7.44-7.7 11.27-11.43 1.85-1.8-.98-4.63-2.83-2.83Zm82.58 13.57-1.26-5.6-.12-.52c-.06-.2 0 .36 0-.03q-.04-.52 0-1.05a14 14 0 0 1 2.06-5.89q.12-.15 0-.02l.13-.16.42-.43c.23-.24-.04 0 .12-.1l.4-.23c-.46.19.4-.04-.13.04l.39-.01c-.33-.01.23.05.3.07a2 2 0 0 1 .43.18 2.05 2.05 0 0 0 2.73-.71 2 2 0 0 0-.71-2.74 5.3 5.3 0 0 0-6.28.6 12 12 0 0 0-3.02 5.21 13 13 0 0 0-.81 5.57 68 68 0 0 0 1.49 6.88 2 2 0 0 0 3.86-1.07Z" class="c"/><path d="M161.4 85.14c1.58-2.9 2.9-5.93 4.28-8.93.52-1.15 1.12-2.36 2.56-1.56a2 2 0 0 1 1.03 2 2 2 0 0 0 1.47 1.94 4.4 4.4 0 0 1 2.73 1.64c.71.98.7 2.27 1.35 3.3 1.28 2.05 3.53 3.3 4.53 5.6.94 2.17-.04 4.23-1.51 5.9a69 69 0 0 1-6.59 6.15c-1.94 1.7.9 4.52 2.83 2.83 4.42-3.89 11.77-9.1 9.12-15.95a14 14 0 0 0-2.3-3.76 23 23 0 0 0-1.59-1.74 5 5 0 0 1-1.21-1.34c-.33-.73-.4-1.54-.76-2.27a8 8 0 0 0-1.36-1.92 8.3 8.3 0 0 0-4.17-2.3l1.47 1.93a6 6 0 0 0-2-4.74 5.7 5.7 0 0 0-6.57-.82c-2.04 1.18-2.73 3.63-3.65 5.66a93 93 0 0 1-3.12 6.37c-1.24 2.25 2.22 4.27 3.46 2.01m-54.94.57a18.6 18.6 0 0 0-8.67 4.14 23 23 0 0 0-5.85 8.1 2.06 2.06 0 0 0 .72 2.73 2 2 0 0 0 2.73-.72 20 20 0 0 1 5.06-7.14 11 11 0 0 1 1.48-1.14 14 14 0 0 1 1.81-1.01l.3-.13.3-.12q.46-.17.93-.3 1.12-.33 2.25-.56a2 2 0 0 0 1.4-2.46 2.04 2.04 0 0 0-2.46-1.4Z" class="c"/><path d="M78.55 73.56c-3.2 5.29-7.67 9.64-9.71 15.6-2.5 7.3-1.48 15.27-.09 22.67 1.3 6.86 2.95 13.77 3 20.78a39 39 0 0 1-1.18 10.26 98 98 0 0 1-3.2 9.28c-1.41 3.75-2.72 7.53-4.05 11.3-.66 1.87-1.35 3.73-1.99 5.6-.65 1.94-.7 3.82.7 5.43 1.8 2.07 5.27 2.97 7.77 3.85 3.48 1.23 7.02 2.28 10.55 3.35a91 91 0 0 0 19.65 4.08c6.04.45 12.38-.05 17.68-3.21 4.95-2.95 6.98-9.03 8-14.43.72-3.87 1.13-7.82 1.66-11.72q.76-5.54 1.48-11.08a2 2 0 0 0-2-2 2.05 2.05 0 0 0-2 2 1364 1364 0 0 1-2.7 19.62 38 38 0 0 1-1.72 7.26c-.7 1.97-1.46 4.11-2.95 5.57-3.62 3.55-9.53 4.19-14.32 4.13a68 68 0 0 1-17.96-2.95q-5.22-1.51-10.4-3.17a68 68 0 0 1-7.86-2.84 7 7 0 0 1-1.63-.87c-.56-.47-.44-.86-.23-1.53.59-1.87 1.3-3.7 1.96-5.55 1.27-3.59 2.51-7.19 3.83-10.75 2.25-6.04 4.5-11.9 4.85-18.4.36-6.6-.76-13.18-2.02-19.63-1.52-7.86-3.48-16.04-1.55-24.01 1.58-6.51 6.52-11.06 9.89-16.62 1.33-2.2-2.13-4.22-3.46-2.02m25.57-34.28a49 49 0 0 1 4.58-6.06 44 44 0 0 1 3.85-3.86l.51-.42c.64-.48.3.06-.37-.2l-.88-.51q-.1-.5.06.16a1 1 0 0 1 .04.42 7 7 0 0 0 .1 1.1 2.9 2.9 0 0 0 1.86 2c1.53.49 2.72-.6 3.87-1.43a70 70 0 0 1 7.33-4.92c2.26-1.23.24-4.68-2.02-3.45a49 49 0 0 0-4.85 3.13 30 30 0 0 1-4.34 3.06l1-.27.6.2.51.88c-.34-.84-.14-2-.67-2.92a2.8 2.8 0 0 0-3.02-1.38c-1.56.43-3.05 2.1-4.17 3.2a53 53 0 0 0-7.45 9.25c-1.38 2.18 2.08 4.2 3.46 2.02" class="c"/><path d="M84.79 11.45c5.13-5.78 13.94-8.33 21.46-7.23a22.8 22.8 0 0 1 15.7 9.71 25 25 0 0 1 3.8 11.36 2.06 2.06 0 0 0 2 2 2 2 0 0 0 2-2c-.76-7.86-4.06-15.01-10.43-19.84a28.3 28.3 0 0 0-24.68-4.32 27 27 0 0 0-12.68 7.5c-1.7 1.91 1.11 4.75 2.83 2.82m15.92 101.98c3.01 6.5 7.6 12.47 12.2 17.93 4.76 5.64 10.34 10.32 17.55 12.48a23 23 0 0 0 12.73.51 29.5 29.5 0 0 0 11.37-6.05 61 61 0 0 0 8.85-9.62 43 43 0 0 0 5.12-8.96c.8-1.87 1.92-3.9.9-5.92-.6-1.19-1.91-1.87-2.97-2.61q-3.96-2.8-7.94-5.54a71 71 0 0 0-6.82-4.44 3.5 3.5 0 0 0-5.06 1.46c-1.04 1.8-2.05 3.6-3.16 5.37-.77 1.22-1.7 2.76-3.2 3.15-1.53.41-2.75-.65-3.75-1.7-2.76-2.91-4.73-6.65-6.78-10.08-2.15-3.57-4.05-7.34-6.64-10.62a66 66 0 0 0-4.84-4.86 13 13 0 0 1-1.9-2.46c-.59-1-.92-2.13-1.48-3.14a19 19 0 0 0-4.65-4.86 45 45 0 0 0-5.7-3.99 110 110 0 0 0-12.41-5.85c-2.1-.9-4.13-2.15-6.4-.94a4.5 4.5 0 0 0-1.94 2.08 15 15 0 0 0-1.24 3.16c-.54 2.91 2.18 3.85 4.33 4.73q3.38 1.39 6.72 2.81 2.73 1.16 5.42 2.4a2.06 2.06 0 0 0 2.74-.73 2 2 0 0 0-.72-2.73 344 344 0 0 0-11.14-4.8l-1.74-.71a6 6 0 0 0-1.55-.64c.24 0-.3-.12-.3-.11l.14.54.1-.2c.42-.39.55-1.4.8-1.88.24-.44.34-.5.89-.36a25 25 0 0 1 3.02 1.33 93 93 0 0 1 11.44 5.47 38 38 0 0 1 5.04 3.53c1.4 1.18 3.16 2.56 3.93 4.26a20 20 0 0 0 3.47 5.6c1.44 1.54 3.13 2.77 4.5 4.39 2.5 2.94 4.22 6.52 6.19 9.82a108 108 0 0 0 5.89 9.24c2.19 2.94 5 5.94 9.01 5.29 3.64-.6 5.48-3.98 7.26-6.81a46 46 0 0 0 1.47-2.5 7 7 0 0 0 .64-1.17l.17-.3-.71.2c0-.02.04-.03.12.07a5 5 0 0 0 1.16.68q.75.46 1.46.93 3.83 2.52 7.57 5.16 1.79 1.24 3.57 2.5l1.38.97a6 6 0 0 1 1.25.87c-.21-.28-.13-.22-.21-.04-.14.31-.23.66-.37.99q-.48 1.18-1.02 2.35a43 43 0 0 1-2.2 4.18 48 48 0 0 1-6.36 8.08 34 34 0 0 1-9.24 7.43 18.4 18.4 0 0 1-11.05 2.14 30 30 0 0 1-17.49-9.66 94 94 0 0 1-12-16.12 43 43 0 0 1-1.96-3.71 2 2 0 0 0-2.74-.72 2.05 2.05 0 0 0-.72 2.74Z" class="c"/></svg>
