<svg xmlns="http://www.w3.org/2000/svg" viewBox="-16.34 0 381.023 381.023"><defs><style>.a{fill:#fff}.d{fill:#211715}</style></defs><path d="M69.79 150.5a18 18 0 0 1-1.92-3.23 35 35 0 0 1-1.95-7.15q.09 0 .17-.03c5.25-1.14 6.06-2.23 9.6-3.07-.65 4.54-1.99 7.9-3.78 14.04l-.32 1.12a5 5 0 0 1-1.8-1.69M170.02 103l-.69.65a30 30 0 0 0-3.41 3.04s-1.62 1.73-3.87 4.15c-4.2-2.95-10.5-7.38-12.95-8.71l1.33-3.93a6 6 0 0 0 .18-3.34l-1.06-4.73c-.5-1.64.37-5.3 1.45-7.39 1.5-2.88 3.63-4.88 7.7-.9 1.08-2.2 1.98-4.33 3.24-7.05a3.3 3.3 0 0 1 4.5-1.58 3.9 3.9 0 0 1 2.36 3.88 5.9 5.9 0 0 1 4.66 4.36 4 4 0 0 0 1.35 2.36c4.14 3.93 5.15 7.87 1.48 12.46a60 60 0 0 1-6.27 6.73m-78.8 229.9H2v46.12h344.33V243.7H232v45.1H117v44.12Z" class="a"/><path d="M120.3 87.42a69 69 0 0 0-1.8-2.27c-.42-.52-1.3-1.5-1.75-1.98a34 34 0 0 0-2.02-2 86 86 0 0 0-15.9-10.9c-3.81-1.89-6.06-3.88-9.57-5.51a2.44 2.44 0 0 0-3.36 1.42c-.4 1.2-.99 2.11-1.5 3.41l-1.8 2.63c-1.64 2.33-3.35 4.21-4.91 6.23-7.16 7.72-14.75 12.47-19.69 23.57-2.1 4.74-1.82 8.3-.88 13.23a180 180 0 0 0 6.25 23.3 2.36 2.36 0 0 0 2.72 1.54c5.25-1.14 6.06-2.23 9.6-3.07-.65 4.54-1.99 7.9-3.78 14.04a217 217 0 0 1-3.86 12.26 4 4 0 0 0-.32 2.47 3.6 3.6 0 0 0 1.9 1.98c3.58 1.88 9.23 3.3 16.56 5.55 9.36 2.86 21.44 4.76 29.43.85 4.37-2.14 4.81-3.3 5.54-6.4a98 98 0 0 0 1.56-9.33c1.25-8.73 1.64-12.29 2.94-18.68l.3-1.41a29 29 0 0 0 9.04 2.62c6.11.78 13.6-2.92 17.77-7.08 7.45-7.42 9.9-11.2 12.84-18.53a2.1 2.1 0 0 0-.48-2.37c-3.16-2.17-13.45-9.56-16.3-11a1.2 1.2 0 0 0-1.62.3c-.62.97-1.22 2.32-2.13 3.72-1.83 2.82-3.39 6.4-7.13 6.14-3.09-.2-5.7-4.4-7.87-7.64-2.76-4.49-3.64-7.2-6.43-12a49 49 0 0 0-3.36-5.09" style="fill:#7abee6"/><path d="M97.57 3.03a31 31 0 0 0-11.69 5.52c-3.32 2.49-4.64 4.43-7.15 8.26a29.4 29.4 0 0 0-4.42 15.48 30 30 0 0 0 .45 5.58 32 32 0 0 0 8.3 16.17c2.34 2.47 6.6 5.8 6.99 9.22a10 10 0 0 1-.1 1.83c3.13 1.57 5.32 3.42 8.88 5.18a86 86 0 0 1 12.49 8.07l1.5-6.19s.53-2.17.86-3.1a27 27 0 0 1 1.8-3.99 1.3 1.3 0 0 1 1.54-.8 18.3 18.3 0 0 0 9.78-.93 7.6 7.6 0 0 0 4.1-3.91 16 16 0 0 0 1.24-3.86 38 38 0 0 0 .72-5.73 6 6 0 0 1 1.34-2.6c1.04-1.16 2.73-2.07 1.82-4.03a3.7 3.7 0 0 0-1.7-1.67c-3.67-1.91-3.9-7.42-4.09-11.39a30 30 0 0 0-.27-5.18 21.4 21.4 0 0 0-2.75-9.43 22.6 22.6 0 0 0-13.27-11.28 32 32 0 0 0-14.39-1.52 20 20 0 0 0-1.98.3" class="a"/><path d="M281.4 115c-19.25 8.87-40.03 18.22-62.65 23.94a1.45 1.45 0 0 0-.1 2.8l20.9 6.93a1.46 1.46 0 0 1 .62 2.36c-32.73 36.82-120.43 78.07-174.29 96a1.46 1.46 0 0 0 .7 2.81c35.96-6.08 104.54-25.92 126.13-36.27 22.49-10.78 45.05-25.28 60.84-41.23a1.45 1.45 0 0 1 2.32.34 394 394 0 0 1 9.58 19.93 1.46 1.46 0 0 0 2.73-.2c6-21.66 11.54-51.2 15.26-75.88a1.45 1.45 0 0 0-2.04-1.53" style="fill:#64a4d6"/><path d="M119 379.02V288.8l-2 2h115c2.57 0 2.58-4 0-4H117a2.03 2.03 0 0 0-2 2v90.22c0 2.58 4 2.58 4 0" class="d"/><path d="M346.33 377.02H2c-2.57 0-2.58 4 0 4h344.33c2.58 0 2.58-4 0-4" class="d"/><path d="M4 379.02v-46.11l-2 2h115c2.57 0 2.58-4 0-4H2a2.03 2.03 0 0 0-2 2v46.11c0 2.58 4 2.58 4 0m230 0V243.7l-2 2h114.33l-2-2v135.33c0 2.58 4 2.58 4 0V243.7a2.03 2.03 0 0 0-2-2H232a2.03 2.03 0 0 0-2 2v135.33c0 2.58 4 2.58 4 0" class="d"/><path d="M179.8 287.3q.6-.2 1.19-.45a8 8 0 0 0 4.76-4.8c1.03-3.44-1.24-7.13-4.24-9.1s-6.61-2.7-10.02-3.82a18 18 0 0 1-6.65-3.57 107 107 0 0 1-21.44-.49c-5.48 2.47-5.95 7.64-6.19 12.84a10 10 0 0 0 1.37 4.91 8.7 8.7 0 0 0 7.68 4.13c10.25.18 18.97.52 27.89 1.15a15 15 0 0 0 5.65-.8M70.64 331.42a8 8 0 0 0 5.9-1.87c2.66-2.5 2.57-6.32.94-9.59s-4.46-5.75-6.88-8.48-4.61-6.05-4.5-9.7c0 0 .04-1.6.12-3.78a73 73 0 0 1-15.25-5.71c-1-.48-1.91-.86-2.89-1.32a21 21 0 0 1-3.04 2.65c-4.3.97-7.17 4.67-9.13 8.67a10 10 0 0 0-1.01 4.34c-.12 3.24.43 5.74 3.23 7.38 8.84 5.21 16.65 10.26 25.12 15.55 2 1.26 4.29 1.48 6.64 1.79z" style="fill:#7a7473"/><path d="M161.17 264.12c3.24 5.71 9.9 6.74 15.56 8.75 2.74.97 5.5 2.49 6.76 5.26a4.75 4.75 0 0 1-2.04 6.22c-2.76 1.74-5.89 1.84-9.03 1.63q-4.98-.33-9.96-.55-5.2-.23-10.41-.35l-5.3-.12a9 9 0 0 1-4.02-.85 6 6 0 0 1-2.6-2.63 9 9 0 0 1-.83-5.13c.2-3.1.69-6.24 3.13-8.39 1.94-1.7-.9-4.53-2.83-2.83-2.61 2.3-3.66 5.54-4.09 8.9-.46 3.66-.44 7.32 1.76 10.47a11 11 0 0 0 8.38 4.42c4.03.29 8.11.18 12.15.32q5.7.2 11.4.54c3.93.23 7.7.68 11.5-.7 3.2-1.15 6.26-3.38 7.07-6.86.8-3.4-.71-6.85-3.1-9.25-2.95-2.96-7.11-4.08-11-5.25-3.41-1.03-7.18-2.34-9.04-5.62-1.27-2.24-4.73-.23-3.46 2.01ZM64.1 301.78c-.05 6.96 5.65 11.22 9.64 16.13 1.7 2.08 3.35 4.87 2.81 7.67-.54 2.85-3.25 4-5.9 3.85a21 21 0 0 1-4.26-.68 18 18 0 0 1-4.57-2.44q-4.6-2.88-9.19-5.78-4.62-2.9-9.29-5.73c-1.49-.9-3.08-1.7-4.52-2.7a4.2 4.2 0 0 1-1.74-2.59c-.73-3.05.22-5.9 1.81-8.48 1.57-2.55 3.7-4.73 6.68-5.47 2.5-.6 1.44-4.47-1.06-3.85a14.3 14.3 0 0 0-7.93 5.63 16.5 16.5 0 0 0-3.67 9.08c-.15 3.08.41 6.35 2.92 8.42a41 41 0 0 0 5.08 3.17q2.76 1.67 5.5 3.37 5.2 3.22 10.37 6.5c3.37 2.12 6.5 4.5 10.53 5.13 3.5.55 7.12.79 10.07-1.56a9.2 9.2 0 0 0 2.98-9.3c-.86-4.08-3.86-7.27-6.62-10.2-2.66-2.83-5.67-6.04-5.64-10.16.02-2.58-3.98-2.58-4 0Z" class="d"/><path d="m84.81 172.9 1.38.42c9.36 2.85 21.44 4.76 29.44.85a23 23 0 0 0 2.26-1.25c11.38 4.4 23.05 8.75 33.72 13.55a41 41 0 0 1 8.47 5.64 21 21 0 0 1 6.17 9.91 59 59 0 0 1 2.33 17.25c.09 13.67-.47 30.5-.94 44.16a2.23 2.23 0 0 1-2.2 2.09 104 104 0 0 1-23.54-.68 2.3 2.3 0 0 1-2.08-2.23c.18-14.59.43-30.67.43-41.34a11 11 0 0 0-2.45-7.17c-1.58-1.94-4.09-3.17-7.74-3.84a479 479 0 0 1-24.93-5.23l-1.25 3.62c-5.28 15.25-15.66 43.66-33.23 86.87-.5 1.23-1.01 2.75-2.26 2.92a4 4 0 0 1-1.49-.27 75 75 0 0 1-19.96-8.02 2.5 2.5 0 0 1-1.47-2.88c8.57-24.25 17.5-49.95 21.72-78.44a111 111 0 0 0 1.43-16.4c.84-8.75.46-16.58 2.34-24.11 3.5 1.43 8.46 2.93 13.85 4.57" class="a"/><path d="M118.53 175.3c8.13 3.13 16.28 6.21 24.33 9.56 6.47 2.68 13.66 5.42 18.14 11.13 2.31 2.96 3.37 6.38 4.2 10a55 55 0 0 1 1.33 10.36c.28 7.72.01 15.5-.17 23.22q-.14 6.02-.33 12.03c-.12 3.79-.03 7.66-.38 11.43-.05.58-.06.47-.8.53q-1.32.11-2.64.16-2.92.14-5.84.15a89 89 0 0 1-12.04-.67c-.58-.07-1.85 0-2.31-.38-.4-.32-.2-1.06-.19-1.57l.08-6.18.17-12.36c.08-7.14.26-14.3.17-21.43a12.8 12.8 0 0 0-4.1-9.67c-2.55-2.17-5.71-2.93-8.92-3.53a502 502 0 0 1-19.2-3.93 193 193 0 0 1-4.37-1.05c-2.5-.63-3.56 3.23-1.06 3.86a373 373 0 0 0 20.1 4.32c3 .58 6.4.82 9.15 2.23 3.1 1.6 4.39 4.74 4.4 8.1.01 7.64-.1 15.28-.2 22.91l-.17 12.86-.04 2.97a13 13 0 0 0 .09 3.26 4.4 4.4 0 0 0 3.65 3.2 77 77 0 0 0 12.55 1.06q3.09.04 6.17-.07a40 40 0 0 0 5.84-.37c4.41-.82 3.57-6.23 3.68-9.56l.38-12.25c.23-8.24.4-16.48.38-24.72-.02-7.5-.48-15.6-3.57-22.56-3.02-6.83-9.44-11.41-16.1-14.35a564 564 0 0 0-24.98-10.1l-6.34-2.44a2 2 0 0 0-2.46 1.4 2.05 2.05 0 0 0 1.4 2.46ZM73.17 80.21c-3.6 3.51-7.4 6.84-10.6 10.74-3.49 4.24-6.94 9.47-7.87 14.98-.87 5.15.53 10.46 1.7 15.47a172 172 0 0 0 4.45 15.97 8 8 0 0 0 1.9 3.7c1.42 1.24 3.07 1.15 4.79.74a63 63 0 0 0 6.57-2.24c2.4-.87 1.37-4.74-1.06-3.86-1.61.58-3.17 1.29-4.82 1.77-.65.2-2.37.92-2.84.58-.25-.18-.35-.79-.45-1.06l-.6-1.78a180 180 0 0 1-4-14.5c-1.02-4.34-2.45-9.13-1.8-13.6.69-4.74 3.67-9.4 6.62-13.05C68.4 90.05 72.3 86.64 76 83.04c1.85-1.8-.98-4.63-2.83-2.83" class="d"/><path d="M64.15 141.64a35 35 0 0 0 1.52 5.48 18 18 0 0 0 3.16 5.35 2 2 0 0 0 2.82 0 2.05 2.05 0 0 0 0-2.83l-.19-.23c-.31-.38.15.22-.02-.02l-.41-.6q-.38-.56-.72-1.15-.31-.55-.59-1.11c-.03-.07-.12-.33-.02-.04l-.27-.72a36 36 0 0 1-1.42-5.2 2 2 0 0 0-2.46-1.4 2.05 2.05 0 0 0-1.4 2.46Zm22.19-71.51c.33-.82.76-1.6 1.1-2.41.24-.57.28-1.24.84-1.2a6 6 0 0 1 1.88.95q1.14.65 2.26 1.36c2.92 1.84 6 3.37 8.96 5.15 5.53 3.31 10.94 7.11 15.2 12a51 51 0 0 1 6.25 9.15c1.67 3.05 3.07 6.24 4.82 9.24 2.79 4.76 8.32 13.23 14.72 8.43 2.43-1.83 4.08-5 5.51-7.62l.54-1c.06-.1.26-.35.26-.46 0-.44-.69.19-.68.08l.77.45q1.34.8 2.63 1.67c4.14 2.74 8.12 5.72 12.24 8.48l.22.14c.37.25-.07-.03-.06-.07l-.13.36q-.41 1.08-.88 2.12a46 46 0 0 1-1.92 3.86 40 40 0 0 1-5.03 6.96 42 42 0 0 1-7.6 7.26 24 24 0 0 1-9.38 3.89 20 20 0 0 1-9.87-1.43 29 29 0 0 1-8.28-4.87 61 61 0 0 1-12.47-14.53 39 39 0 0 1-2.32-4.23 2 2 0 0 0-2.73-.72 2.05 2.05 0 0 0-.72 2.74c3 6.46 7.82 12.36 12.91 17.3a33.7 33.7 0 0 0 18.67 9.66c7.31 1.05 14.96-2.46 20.13-7.53 4.95-4.86 9.32-10.1 12.13-16.5.72-1.64 1.76-3.43 1.35-5.27-.33-1.47-1.4-2.19-2.55-2.99l-6.6-4.61c-2.23-1.55-4.46-3.1-6.76-4.55a11 11 0 0 0-2.69-1.45c-2.13-.55-3.35.85-4.27 2.54a82 82 0 0 1-2.72 4.57 7 7 0 0 1-2.7 2.92c-2.78 1.18-5.16-2.9-6.4-4.74a88 88 0 0 1-5.45-9.77 63 63 0 0 0-6.44-10.27c-4.48-5.72-10.3-10.07-16.43-13.9-3.05-1.9-6.31-3.44-9.36-5.37-2.85-1.8-7.26-5.29-10.32-1.98a7 7 0 0 0-1.19 2.24c-.4.98-.9 1.91-1.3 2.89a2 2 0 0 0 1.4 2.46 2.05 2.05 0 0 0 2.46-1.4" class="d"/><path d="M123.74 139.23c-1.67 8.22-2.38 16.59-3.86 24.84a30 30 0 0 1-1.18 5.13 4 4 0 0 1-.65 1.06 8 8 0 0 1-2.01 1.45c-4 2.23-8.49 2.8-13 2.65a64 64 0 0 1-16.31-2.97c-2.47-.75-3.53 3.11-1.07 3.86 9.45 2.86 20.95 5.12 30.35.94a14 14 0 0 0 5.16-3.44 11 11 0 0 0 1.98-4.69c.98-4.32 1.46-8.74 2.07-13.12.69-4.9 1.4-9.8 2.38-14.65.5-2.5-3.35-3.58-3.86-1.06" class="d"/><path d="M68.6 169.74a111 111 0 0 0-1.48 15.55c-.15 2.8-.45 5.6-.51 8.39s-.24 5.55-.52 8.32a230 230 0 0 1-5.76 31.22 410 410 0 0 1-8.84 30.42 855 855 0 0 1-4.94 14.55l-2.43 6.93a7 7 0 0 0-.68 3.46 4.7 4.7 0 0 0 2.03 3 44 44 0 0 0 7.28 3.78 83 83 0 0 0 7.3 2.94c2.2.75 4.44 1.34 6.7 1.9 2.6.66 4.33-.6 5.34-2.96 4.16-9.65 7.9-19.51 11.74-29.3a1814 1814 0 0 0 16.69-43.88c5.1-14 9.75-28.16 14.58-42.26q.9-2.64 1.83-5.26c.87-2.43-3-3.47-3.85-1.06-5.04 14.11-9.55 28.4-14.61 42.5-4.67 13-9.55 25.92-14.54 38.8q-5.25 13.52-10.67 27l-2.96 7.32-1.58 3.9a9 9 0 0 1-.48 1.08l-.23.39c-.1.1.36.08-.02-.07a25 25 0 0 0-2.96-.75q-1.77-.49-3.51-1.08a71 71 0 0 1-6.75-2.66q-1.83-.84-3.62-1.75a17 17 0 0 1-3.52-1.93c-.53-.49.1-1.34.34-2.04l1.29-3.66q2.46-7 4.84-14.04a454 454 0 0 0 8.73-28.85 305 305 0 0 0 6.4-30.98c1.57-10.13 1.52-20.4 2.3-30.6a62 62 0 0 1 .93-7.26c.49-2.51-3.37-3.59-3.86-1.06m88.9-91.33a5.4 5.4 0 0 0-4.54-.47 7 7 0 0 0-3.12 2.81 16 16 0 0 0-2.43 7.95 20 20 0 0 0 .85 4.8q.23.92.41 1.85a7.7 7.7 0 0 1-.73 3.98c-.83 2.44 3.03 3.5 3.86 1.06a12 12 0 0 0 .95-4.53 13 13 0 0 0-.36-2.17l-.9-4c-.02-.13-.1-.62-.07-.31a7 7 0 0 1 .04-1.43 15 15 0 0 1 .85-3.27 8 8 0 0 1 1.46-2.55c.55-.59.87-.69 1.7-.27a2.05 2.05 0 0 0 2.74-.72 2 2 0 0 0-.72-2.73Z" class="d"/><path d="M159.04 85.5c1.57-2.87 2.87-5.87 4.24-8.84.51-1.13 1.1-2.32 2.5-1.53a2 2 0 0 1 1.02 1.97 2 2 0 0 0 1.47 1.93 4.1 4.1 0 0 1 3 2.13c.27.57.34 1.23.57 1.83a6 6 0 0 0 1.18 1.88c1.74 1.87 3.96 3.86 3.46 6.7-.5 2.9-3.27 5.4-5.23 7.42-2.14 2.22-4.62 4.06-6.75 6.29-1.78 1.86 1.04 4.7 2.83 2.83 1.3-1.37 2.83-2.49 4.2-3.79a71 71 0 0 0 3.6-3.61c2.49-2.73 5.2-5.73 5.4-9.6.2-3.8-2.24-6.33-4.57-8.95a5 5 0 0 1-.76-1.9 8 8 0 0 0-1.37-2.4 8 8 0 0 0-4.5-2.7l1.47 1.94c.02-4.22-4.5-7.86-8.51-5.52-2.02 1.17-2.71 3.6-3.62 5.6a91 91 0 0 1-3.09 6.3c-1.24 2.26 2.22 4.28 3.46 2.02m-72.32 85.9c-3.74-1.14-7.52-2.18-11.23-3.4a37 37 0 0 1-3.9-1.47 5 5 0 0 1-1.71-.98c-.5-.6.03-1.48.26-2.13 1.35-3.9 2.54-7.86 3.7-11.82 1.04-3.54 2.27-7.04 3.13-10.63 1.75-7.4 1.17-14.87.11-22.3-1.2-8.47-4.01-16.8-3.22-25.45a25 25 0 0 1 4-11.6c1.96-2.94 4.43-5.5 6.48-8.38a2 2 0 0 0-.72-2.74 2.04 2.04 0 0 0-2.74.72c-1.89 2.66-4.13 5.04-6.01 7.7a28 28 0 0 0-4.42 10.28c-1.9 9.13.59 18.12 2.22 27.08 1.38 7.64 2.27 15.64.52 23.3-.85 3.7-2.13 7.3-3.2 10.95A382 382 0 0 1 66.06 163a5 5 0 0 0 1.95 6.14 22 22 0 0 0 4.67 2.1c4.26 1.55 8.65 2.7 12.98 4 2.47.76 3.52-3.1 1.06-3.85Z" class="d"/><path d="M83.91 9.43c5.18-4.73 11.27-7.5 20.8-7.41a33 33 0 0 1 9.41 1.71 25 25 0 0 1 13.91 12.63 21 21 0 0 1 .87 2.09c-2.7 5.2-12.65 14.28-25.8 19a4.4 4.4 0 0 0-2.05-1.1 3.8 3.8 0 0 0-3.19.54 5.5 5.5 0 0 0-1.75 4.61 9.7 9.7 0 0 0 5.63 8.47 27 27 0 0 0-2.24 8.7 16 16 0 0 0 1.07 5.58 5.37 5.37 0 0 1-3.3 6.91 30.4 30.4 0 0 1-17.44.82 6.9 6.9 0 0 1-5.44-6.24 20 20 0 0 1 .5-6.78c.71-3.13 1.34-10-.54-19.59a42 42 0 0 1-.78-9.88 26.7 26.7 0 0 1 5.65-15.04 49 49 0 0 1 4.7-5.02" style="fill:#957f6e"/><path d="M104.93 36.45a6.7 6.7 0 0 0-6.23-2.09 6 6 0 0 0-4.32 4.56 11.4 11.4 0 0 0 3 10.35 15 15 0 0 0 5.3 3.28 2 2 0 0 0 2.46-1.4 2.05 2.05 0 0 0-1.4-2.46q-.34-.14-.1-.03l-.91-.43q-.56-.3-1.09-.62l-.54-.37c-.34-.24.17.16-.17-.14q-.47-.4-.9-.86-.19-.19-.35-.4c-.36-.4.18.31-.12-.15q-.34-.5-.63-1.05l-.23-.48c.17.38-.04-.1-.07-.19a10 10 0 0 1-.35-1.25l-.1-.56q-.07-.36-.02-.06l-.03-.3a7 7 0 0 1 0-1.32c-.04.34.04-.23.05-.3a6 6 0 0 1 .24-.8c-.11.28.13-.26.14-.28 0 0 .35-.52.15-.26l.26-.29q.24-.21.1-.1c-.17.13.6-.25.27-.13 0 0 .6-.13.32-.1a2.6 2.6 0 0 1 2.44 1.05 2 2 0 0 0 2.83-2.83Zm21.54-.68c.5 1.22.57 4.14-1.66 4.62-3 .3-3.53-3.18-2.7-4.93.68-1.44 3.04-2.25 4.36.31" class="d"/><path d="M127.85 24.25c.8 4.42.04 9 1.33 13.36a9.5 9.5 0 0 0 3.37 5.16c.4.3 1.67.75 1.72 1.37.04.51-.94 1.11-1.27 1.46a8 8 0 0 0-1.84 3 14 14 0 0 0-.45 3.35c-.26 2.48-.66 5.23-2.03 7.37-1.13 1.74-2.87 2.37-4.82 2.81a18 18 0 0 1-3.25.44 30 30 0 0 1-3.57-.3c-2.33-.18-3.32 1.7-4.15 3.51a32 32 0 0 0-1.99 5.84c-.61 2.5 3.24 3.57 3.86 1.06a26 26 0 0 1 1.58-4.88c.08-.17.94-1.52.86-1.69.14.3-.88-.11-.05.22a7 7 0 0 0 2.12.23c4.6.2 9.87-.96 12.64-4.9a17 17 0 0 0 2.5-7.42c.2-1.26.28-2.53.43-3.8a4 4 0 0 1 1.41-2.43c1.67-1.62 2.65-3.55 1.51-5.82-.96-1.91-3.18-2.35-4.17-4.22a15 15 0 0 1-1.27-6.27 69 69 0 0 0-.62-8.51c-.46-2.53-4.31-1.46-3.85 1.06" class="d"/><path d="M129.99 25.08a21.4 21.4 0 0 0-2.77-9.55 22.6 22.6 0 0 0-13.28-11.28 32 32 0 0 0-14.39-1.52c-4.39.44-9.06 2.5-13.67 5.82-3.32 2.49-4.64 4.43-7.15 8.26a29.4 29.4 0 0 0-4.42 15.48 30 30 0 0 0 .45 5.58 32 32 0 0 0 8.3 16.17c2.34 2.47 6.6 5.8 6.99 9.22a21 21 0 0 1-.52 4.44" style="fill:none"/><path d="M132.56 50.28a24 24 0 0 1-2.5-.16l.53.08a11 11 0 0 1-2.1-.5 2 2 0 0 0-2.27 2.94 2.2 2.2 0 0 0 1.2.92 17 17 0 0 0 5.15.72 2 2 0 0 0 0-4Zm-32.74-.84c-1.16 3.04-2.32 6.2-2.33 9.5a16 16 0 0 0 .57 4c.3 1.2 1.02 2.41.8 3.69-.49 2.8-4.02 3.3-6.3 3.74a30 30 0 0 1-8.5.36c-1.94-.18-4.22-.5-5.82-1.69-2.02-1.5-2.08-4.19-1.92-6.48.14-2.13.77-4.2 1-6.33a45 45 0 0 0 .23-6.58c-.2-6.34-2.12-12.5-2.04-18.85a24.7 24.7 0 0 1 4.86-14.6 33.5 33.5 0 0 1 10.16-9.1 28.6 28.6 0 0 1 14.18-3.08 24.4 24.4 0 0 1 16.83 6.68 24.6 24.6 0 0 1 7.05 17.46c.04 2.57 4.04 2.58 4 0a29 29 0 0 0-6.4-18.3A26.7 26.7 0 0 0 110.92.8 34 34 0 0 0 92.4 1.9a32 32 0 0 0-12.43 8.65 30 30 0 0 0-8.08 15.95 35 35 0 0 0-.06 9.6c.42 3.5 1.23 6.93 1.54 10.45a52 52 0 0 1 .1 8.25c-.16 2.15-.72 4.14-1.01 6.45-.39 3.01-.33 6.53 1.53 9.09a10.5 10.5 0 0 0 6.48 3.86 32 32 0 0 0 9.94.5c3.5-.36 8.27-.95 10.68-3.83a7.6 7.6 0 0 0 1.8-4.34c.13-1.86-.73-3.49-1.12-5.26-.8-3.72.6-7.33 1.9-10.77a2 2 0 0 0-1.4-2.46 2.04 2.04 0 0 0-2.46 1.4Z" class="d"/><path d="M127.17 17.44c-1.84 3.47-4.98 6.3-8.05 8.78A58 58 0 0 1 104 34.99a2.06 2.06 0 0 0-1.4 2.46 2 2 0 0 0 2.46 1.4 64 64 0 0 0 16.62-9.59c3.38-2.7 6.88-5.92 8.94-9.8 1.2-2.27-2.25-4.3-3.46-2.02Z" class="d"/></svg>
