<svg xmlns="http://www.w3.org/2000/svg" viewBox="-20.46 0 389.263 389.263"><defs><style>.a{fill:#fff}.b{fill:#211715}.d{fill:#7a7473}</style></defs><path d="M164.72 73.7a4 4 0 0 0-.37.64c-1.28 2.74-2.19 4.89-3.3 7.12-4.1-4.03-6.24-2.01-7.76.9-1.1 2.1-1.97 5.8-1.47 7.47l1.33 5.9a52 52 0 0 1-1.27 7.23c2.42 1.32 6.33 4.13 10.64 7.16 4.76-3.5 10.14-7.53 10.14-7.53a77 77 0 0 0 6.27-5.78c5.03-5.4 2.6-9.4-1.58-13.37a4 4 0 0 1-1.37-2.38 5.9 5.9 0 0 0-4.7-4.4 4 4 0 0 0-2.39-3.92 3.3 3.3 0 0 0-4.17.97M99.6 2.17l-.27.04c-5.81.7-12.45 3.78-15.96 7.84l-4.91 5.17c-3.83 3.2-5.8 8.1-6.56 12.68a31.5 31.5 0 0 0 1.06 14c1.2 4.01 4.86 9.7 7.89 12.74 4.04 4.05 7.41 6.61 7.85 10.2a7 7 0 0 1-.01 1.1l.25.1a105 105 0 0 1 10.15 4.67 98 98 0 0 1 10.3 6.88l1.5-3.41 1.48-3.68a36 36 0 0 0 1.3-4.19 1.3 1.3 0 0 1 1.55-.81 18.3 18.3 0 0 0 9.77-1 7.6 7.6 0 0 0 4.09-3.96 16 16 0 0 0 1.2-3.88 38 38 0 0 0 .67-5.74 6 6 0 0 1 1.32-2.61c1.03-1.17 2.71-2.1 1.8-4.06a3.7 3.7 0 0 0-1.73-1.65c-3.68-1.88-3.96-7.4-4.18-11.37a30 30 0 0 0-.4-5.77c-1-11.76-7.56-17.7-13.1-20.59a26 26 0 0 0-15.06-2.7" class="a"/><path d="m155.08 95.2-1.26-5.6-.12-.52c-.06-.2 0 .36 0-.03q-.04-.52 0-1.05a14 14 0 0 1 2.06-5.89q.12-.15 0-.02l.13-.16.42-.43c.23-.24-.04 0 .12-.1l.4-.23c-.46.19.4-.04-.13.04l.39-.01c-.33-.01.23.05.3.07a2 2 0 0 1 .43.18 2.05 2.05 0 0 0 2.73-.71 2 2 0 0 0-.71-2.74 5.3 5.3 0 0 0-6.28.6 12 12 0 0 0-3.02 5.21 13 13 0 0 0-.81 5.57 68 68 0 0 0 1.49 6.88 2 2 0 0 0 3.86-1.07Z" class="b"/><path d="M161.4 85.14c1.58-2.9 2.9-5.93 4.28-8.93.52-1.15 1.12-2.36 2.56-1.56a2 2 0 0 1 1.03 2 2 2 0 0 0 1.47 1.94 4.4 4.4 0 0 1 2.73 1.64c.71.98.7 2.27 1.35 3.3 1.28 2.05 3.53 3.3 4.53 5.6.94 2.17-.04 4.23-1.51 5.9a69 69 0 0 1-6.59 6.15c-1.94 1.7.9 4.52 2.83 2.83 4.42-3.89 11.77-9.1 9.12-15.95a14 14 0 0 0-2.3-3.76 23 23 0 0 0-1.59-1.74 5 5 0 0 1-1.21-1.34c-.33-.73-.4-1.54-.76-2.27a8 8 0 0 0-1.36-1.92 8.3 8.3 0 0 0-4.17-2.3l1.47 1.93a6 6 0 0 0-2-4.74 5.7 5.7 0 0 0-6.57-.82c-2.04 1.18-2.73 3.63-3.65 5.66a93 93 0 0 1-3.12 6.37c-1.24 2.25 2.22 4.27 3.46 2.01m-9.92 17.21c4.53 2.95 9.15 5.76 13.67 8.73l1.52 1 .5.36c.46.31-.23-.2-.07-.06a2.05 2.05 0 0 0 2.83 0 2 2 0 0 0 0-2.83 49 49 0 0 0-5.86-3.93q-4.12-2.65-8.26-5.26-1.16-.71-2.3-1.46a2 2 0 0 0-2.03 3.45" class="b"/><path d="M165.41 104.49a175 175 0 0 0-6.75-3.91 2.24 2.24 0 0 0-2.87.64l-.96 1.33a2.24 2.24 0 0 0 .55 3.13 744 744 0 0 0 6.57 4.52 2.24 2.24 0 0 0 3.22-.8l1.05-1.93a2.24 2.24 0 0 0-.8-2.98" class="a"/><path d="M166.42 102.76q-1.93-1.17-3.9-2.3-.9-.53-1.8-1.03a9 9 0 0 0-2.14-1 4.35 4.35 0 0 0-4.52 1.78c-.88 1.18-1.79 2.39-1.63 3.95a4 4 0 0 0 .76 2.1 7 7 0 0 0 1.74 1.55l3.06 2.1a33 33 0 0 0 3.22 2.17 4.3 4.3 0 0 0 4.38-.25 5.6 5.6 0 0 0 1.64-2.03 12 12 0 0 0 1.1-2.24 4.3 4.3 0 0 0-1.9-4.8 2 2 0 0 0-2.74.72 2.05 2.05 0 0 0 .72 2.74c.35.23-.02 0-.03-.03.1.27.06.06-.01-.05l.15.26c-.04-.07-.1-.38-.03-.05.05.27.1.01 0-.08.03.03-.03.3 0 .3-.07 0 .16-.5-.02-.07-.09.22-.06.08.02-.04-.29.44-.5.95-.76 1.4l-.37.67.03-.04c-.2.3.16-.14 0 .01-.05.05-.35.19-.08.07.23-.11.01-.02-.04 0-.4.14.12-.02.1 0 .01 0-.27.03-.3 0 .1.15.38.02.1 0s-.07-.02.06.05l-.64-.4-2.58-1.76-2.44-1.69-1-.69c-.06-.04-.27-.25-.1-.07.22.24-.23-.2.02.03.18.18-.02-.06-.06-.11-.17-.2.18.32 0-.01-.21-.38 0 .1-.01.09v-.3s-.12.5 0 .08c.04-.16.14-.2-.03.04l.88-1.27c.26-.35.1-.12.04-.06l.22-.19s-.42.24-.05.02c.1-.06.38-.02-.06-.02h.31c-.11 0-.37-.12-.06.01.35.15-.16-.14.06.03a14 14 0 0 0 1.59.88l1.64.95q1.73 1 3.44 2.04a2 2 0 0 0 2.02-3.46" class="b"/><path d="M71.25 142.93a42 42 0 0 1-6.5 2 37 37 0 0 0 2.06 7.55 18 18 0 0 0 1.55 2.74c1.77-4.9 3.41-8.66 4.4-12.89zm19.97 198.22H2v46.11h344.33V251.93H232v45.11H117v44.11Z" class="a"/><path d="M281.4 123.24c-19.25 8.87-40.03 18.22-62.65 23.94a1.45 1.45 0 0 0-.1 2.8l20.9 6.93a1.46 1.46 0 0 1 .62 2.36c-32.73 36.82-120.43 78.07-174.29 96a1.46 1.46 0 0 0 .7 2.82c35.96-6.09 104.54-25.93 126.13-36.28 22.49-10.78 45.05-25.28 60.84-41.23a1.45 1.45 0 0 1 2.32.35 394 394 0 0 1 9.58 19.92 1.46 1.46 0 0 0 2.73-.2c6-21.66 11.54-51.2 15.26-75.88a1.45 1.45 0 0 0-2.04-1.53" style="fill:#64a4d6"/><path d="M119 387.26v-90.22l-2 2h115c2.57 0 2.58-4 0-4H117a2.03 2.03 0 0 0-2 2v90.22c0 2.58 4 2.58 4 0" class="b"/><path d="M4 387.26v-46.11l-2 2h115c2.57 0 2.58-4 0-4H2a2.03 2.03 0 0 0-2 2v46.11c0 2.58 4 2.58 4 0" class="b"/><path d="M346.33 385.26H2c-2.57 0-2.58 4 0 4h344.33c2.58 0 2.58-4 0-4" class="b"/><path d="M234 387.26V251.93l-2 2h114.33l-2-2v135.33c0 2.58 4 2.58 4 0V251.93a2.03 2.03 0 0 0-2-2H232a2.03 2.03 0 0 0-2 2v135.33c0 2.58 4 2.58 4 0" class="b"/><path d="M49.41 329.76a452 452 0 0 0-10.88-6.4 8.8 8.8 0 0 1-4.74-7.65 10 10 0 0 1 .86-4.47c1.84-4.16 4.63-8.05 8.96-9.2l5.55-1.48a312 312 0 0 0 16.23 4.94l.03 4.01c.03 3.73 2.4 7.03 4.98 9.72s5.55 5.12 7.36 8.38 2.1 7.77-.52 10.43a8.3 8.3 0 0 1-6.71 2.1 18 18 0 0 1-6.9-2.17c-5.12-2.74-9.54-5.4-14.22-8.21" class="d"/><path d="M63.42 309.5c.23 7.35 6.48 11.42 10.79 16.5 1.82 2.14 3.26 4.85 2.91 7.75-.34 2.84-2.69 4.38-5.44 4.43-3.44.07-6.48-1.6-9.4-3.21a296 296 0 0 1-8.83-5.12q-4.46-2.69-8.95-5.35-2.49-1.42-4.96-2.86a8 8 0 0 1-2.82-2.62c-1.71-2.83-.83-6.05.63-8.76 1.52-2.8 3.62-5.38 6.8-6.3 2.47-.7 1.42-4.56-1.06-3.85a14.7 14.7 0 0 0-7.95 6.1c-2 2.9-3.51 6.28-3.34 9.87a10.9 10.9 0 0 0 4.95 8.53c1.69 1.15 3.57 2.08 5.34 3.11q2.68 1.57 5.34 3.18 4.98 3.02 10 5.92c3.44 1.97 6.95 4.2 10.88 5 3.62.73 7.8.36 10.47-2.5 2.4-2.58 2.82-6.3 1.95-9.6-1.06-4.07-4.1-7.14-7-10-2.83-2.77-6.18-5.97-6.3-10.21-.08-2.57-4.08-2.58-4 0Z" class="b"/><path d="M156.79 294.87c-3.77-.08-7.54-.11-11.3.06a8.8 8.8 0 0 1-8.15-3.99 10 10 0 0 1-1.62-5.05c.05-6.13.4-12.23 8.4-14.55 6 .2 13.51.44 19.8.58a19 19 0 0 0 7.1 3.5c3.58 1.04 7.37 1.66 10.56 3.58s5.7 5.68 4.77 9.29a8.3 8.3 0 0 1-4.77 5.17 19 19 0 0 1-7.06 1.58c-5.82.2-11.76-.05-17.73-.17" class="d"/><path d="M160.13 270.5c3.54 5.74 10.3 6.63 16.2 8.43 2.83.86 5.68 2.15 7.27 4.77a5 5 0 0 1-.97 6.77c-2.57 2.21-6.3 2.54-9.53 2.61-3.69.1-7.37.01-11.06-.08-3.73-.1-7.46-.2-11.2-.19-1.78 0-3.57.08-5.35.13a8 8 0 0 1-4.07-.83c-2.9-1.59-3.76-4.7-3.67-7.8.08-3.25.42-6.62 2.9-8.97 1.87-1.78-.96-4.6-2.83-2.83-2.6 2.47-3.6 5.78-3.93 9.26-.35 3.68-.23 7.28 1.89 10.45a10.9 10.9 0 0 0 8.49 4.7c2.01.13 4.07-.1 6.09-.1q3.29-.03 6.58.05c4.27.1 8.54.25 12.81.25 4.14 0 8.32 0 12.2-1.65 3.22-1.36 6.02-4.03 6.5-7.64.48-3.47-1.33-6.9-3.92-9.14-3.26-2.79-7.48-3.73-11.52-4.8-3.5-.92-7.42-2.15-9.43-5.4-1.35-2.2-4.8-.19-3.45 2.01" class="b"/><path d="M85.5 181.12q-1.16-.32-2.25-.66c-4.85-1.47-9.44-2.82-13.1-4.12-.32 4.75-.2 9.12-.74 15.42a182 182 0 0 1-3.25 20.25c-5.94 28.38-14.42 53.36-23.93 83.88a2.34 2.34 0 0 0 1.56 2.92c7.38 2.4 15.29 5.04 21.8 6.74a4 4 0 0 0 1.59.27c1.33-.17 1.93-1.7 2.41-2.95 16.64-43.78 28.7-76.23 34.42-90.66 7.6.78 20.03 1.99 26.27 3.14 3.69.68 5.56 1.35 7.16 3.32 1.81 2.23 2.18 5.6 2.14 8.18-.22 14.5-.3 25.46-.67 41.55a2.77 2.77 0 0 0 2.67 2.86c6.7.21 16.27.55 23.7.69a2.75 2.75 0 0 0 2.81-2.66c.48-13.74 1.3-31.94 1.28-45.11 0-6.88-.32-10.9-2.01-17.03-1.06-3.81-4.33-7.6-7.25-10.22a43 43 0 0 0-8.28-5.33c-10.9-5.4-19.4-6.54-32.77-12.62a14 14 0 0 1-4.17 2.79c-7.69 3.72-19.89 1.97-29.39-.65" class="a"/><path d="M118.93 181.1c7.23 3.2 14.73 5.52 22.17 8.16 6.73 2.4 13.89 5.3 19.03 10.44a26 26 0 0 1 3.77 4.64 18 18 0 0 1 2.07 5.4 52 52 0 0 1 1.36 10.86c.21 7.84-.09 15.71-.33 23.55-.25 8-.58 16-.86 24-.02.5.13 1.25-.29 1.62-.49.43-1.54.16-2.13.15l-6.04-.16q-6.1-.17-12.2-.38l-2.66-.08c-.53-.02-1.35.15-1.74-.3-.46-.56-.14-1.9-.13-2.56l.07-3.33q.13-6.3.23-12.6c.12-7.95.3-15.9.33-23.83.02-3.6-.69-7.55-3.39-10.15-2.27-2.19-5.43-2.79-8.43-3.3-6.9-1.16-13.91-1.81-20.88-2.52l-4.87-.49a2 2 0 0 0-2 2 2.04 2.04 0 0 0 2 2c7.17.72 14.36 1.38 21.5 2.39 2.89.4 6.44.57 8.98 2.08 2.9 1.72 3.13 5.6 3.08 8.6l-.35 24.66q-.1 6.64-.24 13.28c-.05 2.05-.43 4.28.84 6.04 1.28 1.79 3.15 1.97 5.18 2.04l12.31.38 6.38.18c1.84.05 4.04.43 5.75-.42a5.1 5.1 0 0 0 2.67-4.72q.1-2.95.22-5.89l.46-12.43c.28-8.2.55-16.4.58-24.59a86 86 0 0 0-.58-12.07c-.53-3.84-1.3-7.9-3.33-11.25-4.22-7.01-11.32-11.34-18.66-14.5-7-3-14.37-5.03-21.5-7.74q-3.21-1.22-6.35-2.6a2.06 2.06 0 0 0-2.74.71 2 2 0 0 0 .72 2.74Z" class="b"/><path d="M68.27 174.94c-.38 4.5-.35 9.03-.62 13.54a132 132 0 0 1-1.81 14.77 353 353 0 0 1-6.4 28.59c-5.35 20.52-12 40.68-18.32 60.91-.76 2.42-1.75 4.92.37 6.96a8 8 0 0 0 3.08 1.45l3.96 1.3c4.97 1.61 9.94 3.22 14.98 4.6 2.3.63 4.6 1.4 6.43-.65 1.57-1.76 2.17-4.56 3-6.72l5.8-15.33q9.44-24.94 18.85-49.89c4.67-12.3 9.54-24.5 14.21-36.8l2.25-5.96a2 2 0 0 0-1.4-2.46 2.05 2.05 0 0 0-2.46 1.4c-4.7 12.4-9.6 24.73-14.32 37.13q-8.53 22.43-16.97 44.9l-11.06 29.2c-.18.47-.67 1.92-.97 2a16 16 0 0 1-2.7-.78q-3.57-1-7.1-2.1l-7.48-2.4-3.52-1.15c-.56-.18-1.88-.27-1.93-.95a7 7 0 0 1 .6-1.98l.6-1.88 1.24-3.97 2.45-7.76 4.64-14.8c2.96-9.53 5.84-19.1 8.44-28.74a428 428 0 0 0 6.76-28.65q1.28-6.48 2.1-13.03c.6-4.8.8-9.61.96-14.45q.09-3.15.34-6.3c.22-2.57-3.78-2.55-4 0" class="b"/><path d="M100.58 2.07a26 26 0 0 1 14.08 2.8 23.7 23.7 0 0 1 12.44 16.28l-5.55 3.03c-2.47 1.47-5.86 4.33-7.78 5.78a.72.72 0 0 1-1.1-.69 4 4 0 0 0-.26-1.43c-.2-.58-.66-.79-.98-.56-3.15 2.25-7.94 8.67-9.6 12.31a5.2 5.2 0 0 0-2.85-1.92 3.8 3.8 0 0 0-3.2.57 5.6 5.6 0 0 0-1.7 4.63 9.6 9.6 0 0 0 2.8 6.4q-.17.26-.19.27c-2.3 3.18-6.05 8.7-9.56 11.62-1.44-2-3.73-3.97-6.28-6.53-3.04-3.05-6.69-8.74-7.9-12.74a31.5 31.5 0 0 1-1.06-14c.77-4.59 2.74-9.49 6.56-12.68l4.92-5.18c3.5-4.06 10.15-7.14 15.96-7.84z" style="fill:#85807f"/><path d="M102.88 37.76a6.7 6.7 0 0 0-6.36-2.03 6 6 0 0 0-4.18 4.54 11.4 11.4 0 0 0 3 10.3 15 15 0 0 0 5.39 3.3 2 2 0 0 0 2.46-1.4 2.05 2.05 0 0 0-1.4-2.45l-.47-.2-.55-.25a13 13 0 0 1-1.17-.67l-.46-.31c-.48-.32.26.23-.18-.14a12 12 0 0 1-.91-.85l-.35-.4q-.22-.26-.01 0l-.16-.21a11 11 0 0 1-.6-.97c-.02-.06-.28-.6-.2-.4l-.15-.44a10 10 0 0 1-.33-1.17q-.07-.33-.12-.67l-.03-.26a6 6 0 0 1 0-1.38c-.04.34.06-.21.07-.27l.17-.58q.13-.34.03-.09l.18-.35c.03-.06.34-.5.12-.23a3 3 0 0 1 .4-.4c-.32.25.53-.23.2-.1.07-.03.62-.15.33-.1a3 3 0 0 1 .69 0 4 4 0 0 1 .9.3s.5.34.26.15a6 6 0 0 1 .6.57 2 2 0 0 0 2.83-2.83Zm21.55-.87c.5 1.22.6 4.13-1.63 4.63-2.99.32-3.55-3.15-2.73-4.9.66-1.45 3.02-2.28 4.36.27" class="b"/><path d="M125.71 25.32c.88 4.62.03 9.48 1.65 13.98a9 9 0 0 0 3.84 4.94c.43.25 1.25.6 1.05 1.2-.1.31-.53.58-.76.8a11 11 0 0 0-1.3 1.5c-1.5 2.16-1.22 4.72-1.63 7.21-.39 2.4-.92 5.22-2.9 6.86-1.59 1.31-4.08 1.73-6.07 1.9a14 14 0 0 1-3.2-.02c-1.4-.2-2.63-.39-3.77.68a4.6 4.6 0 0 0-1.13 2.38 33 33 0 0 1-1.08 3.28l-1.45 3.6a2 2 0 0 0 1.4 2.46 2.05 2.05 0 0 0 2.46-1.4l1.37-3.4q.47-1.17.84-2.37l.42-1.48a1 1 0 0 0 .1-.36c-.13-.66-.51.61-.65.37.11.2 1.5.24 1.65.26a15 15 0 0 0 1.67.06 23 23 0 0 0 4.3-.49 12.4 12.4 0 0 0 6.2-2.87 13.3 13.3 0 0 0 3.45-7.01 41 41 0 0 0 .64-4.38 6 6 0 0 1 .73-3.12c.55-.77 1.35-1.33 1.92-2.1a4.1 4.1 0 0 0 .72-3.57 5.4 5.4 0 0 0-2.23-3.01 7 7 0 0 1-2.06-1.66c-1.25-1.83-1.46-4.32-1.61-6.47a75 75 0 0 0-.7-8.84c-.49-2.52-4.34-1.46-3.86 1.06Zm-30.74 23.2-1.96 2.75-1.11 1.52-.61.82-.29.37c-.37.5.24-.3-.15.2a36 36 0 0 1-5.22 5.65 2 2 0 0 0 0 2.83 2.06 2.06 0 0 0 2.83 0 36 36 0 0 0 5.34-5.81c1.6-2.06 3.1-4.19 4.63-6.3a2 2 0 0 0-.72-2.74 2.06 2.06 0 0 0-2.74.72Z" class="b"/><path d="M130.66 51.37a23 23 0 0 1-2.66-.16l.53.07a10 10 0 0 1-1.96-.45 2 2 0 0 0-2.25 2.93 2.2 2.2 0 0 0 1.2.92 17 17 0 0 0 5.15.7 2 2 0 0 0 1.41-.6 2 2 0 0 0-1.41-3.4ZM77.05 13.8c-6.8 5.83-8.38 15.77-7.03 24.19a31 31 0 0 0 4.48 11.64 53 53 0 0 0 8.19 9.58c1.38 1.36 2.98 2.82 3.72 4.66.59 1.46.24 3.2-.1 4.82-.51 2.5 3.34 3.58 3.86 1.06.71-3.48.83-6.63-1.33-9.63-2.37-3.3-5.72-5.69-8.28-8.82-5.3-6.48-8.18-14.84-6.67-23.24.79-4.35 2.58-8.5 5.99-11.43 1.95-1.68-.89-4.5-2.83-2.83m27.4 25.12a43 43 0 0 1 3.9-5.68 39 39 0 0 1 3.33-3.59 4 4 0 0 1 .93-.72l-1 .27q-1.28-1.12-.94-.2v.27a5 5 0 0 0 .18.96 2.8 2.8 0 0 0 1.84 1.76c1.54.45 2.67-.74 3.76-1.6a60 60 0 0 1 6.11-4.48c2.2-1.32.2-4.78-2.02-3.45a45 45 0 0 0-4.3 3.05l-2.1 1.65-.9.71-.14.11c-.15.11-.46.23-.22.18h1.06c.27.04.81 1.82.72.73l-.11-.8a5 5 0 0 0-.52-1.5 2.7 2.7 0 0 0-2.95-1.3c-1.44.4-2.79 2.02-3.77 3.08a47 47 0 0 0-6.32 8.54c-1.29 2.23 2.17 4.25 3.46 2.02Z" class="b"/><path d="M84.79 11.45c5.13-5.78 13.94-8.33 21.46-7.23a22.8 22.8 0 0 1 15.7 9.71 25 25 0 0 1 3.8 11.36 2.06 2.06 0 0 0 2 2 2 2 0 0 0 2-2c-.76-7.86-4.06-15.01-10.43-19.84a28.3 28.3 0 0 0-24.68-4.32 27 27 0 0 0-12.68 7.5c-1.7 1.91 1.11 4.75 2.83 2.82" class="b"/><path d="M149.29 102.77a1.26 1.26 0 0 1 1.67-.32c2.94 1.5 13.56 9.1 16.81 11.35a2.2 2.2 0 0 1 .5 2.44c-3.04 7.56-5.56 11.46-13.25 19.12-4.3 4.28-12.02 8.1-18.32 7.3a30 30 0 0 1-9.2-2.63c-1.2 9.18-2.05 15.92-3.6 26.43a34 34 0 0 1-1.65 6.46c-1.78 4.89-2.82 6.66-7.37 8.85-8.3 4.02-21.9 1.65-31.64-1.3-7.63-2.32-14.6-4.35-18.34-6.3a3.7 3.7 0 0 1-1.97-2.04 4 4 0 0 1 .33-2.54l4.8-13.53c1.88-5.32 3.65-9.26 4.7-13.72a49 49 0 0 1-7.84 2.55 2.5 2.5 0 0 1-2.88-1.63 192 192 0 0 1-6.6-24.65c-1-5.22-1.3-8.98.92-13.99C61.1 94 68.12 88.87 75.03 81.94q.3-.45.63-.87c2.7-3.64 5.98-6.73 8.07-10.78.51-1.23 1.11-2.1 1.52-3.26.48-1.36 2.3-1.62 3.68-1A105 105 0 0 1 99.1 70.7a109 109 0 0 1 15.97 11.47 25 25 0 0 1 2.11 1.97c.65.76 1.26 1.52 1.7 2.04a51 51 0 0 1 4.88 6.75c2.92 4.74 4.4 8.04 7.3 12.45 2.27 3.2 5.46 6.72 8.7 6.92 3.91.25 5.55-3.27 7.46-6.04.96-1.39 1.59-2.72 2.23-3.67" style="fill:#3d8dcc"/><path d="M70.09 154.21a20 20 0 0 1-1.34-2.3l-.14-.28c-.12-.23.16.39.06.15l-.18-.47q-.22-.58-.41-1.17a40 40 0 0 1-1.24-4.72 2 2 0 0 0-2.46-1.4 2.05 2.05 0 0 0-1.4 2.46 26 26 0 0 0 3.65 9.74 2 2 0 1 0 3.46-2.02Z" class="b"/><path d="M72.5 81.63c-3.74 3.65-7.69 7.1-11.03 11.13-3.64 4.37-7.2 9.73-8.37 15.38-1.1 5.38.3 10.93 1.5 16.18a193 193 0 0 0 4.46 16.34c.86 2.69 1.71 6.2 5.2 6.28a16 16 0 0 0 5.04-1.19q2.02-.69 4-1.5a2.06 2.06 0 0 0 1.4-2.46 2 2 0 0 0-2.45-1.4 55 55 0 0 1-6.93 2.35c-1.06.26-1.24.3-1.58-.69q-.6-1.78-1.18-3.57-2.3-7.35-4.01-14.86c-1.03-4.47-2.5-9.43-1.66-14.04.9-5 4-9.83 7.17-13.7 3.4-4.16 7.44-7.7 11.27-11.43 1.85-1.8-.98-4.63-2.83-2.83Z" class="b"/><path d="M81.83 69.61c-1.7 3.09-4.07 5.65-6.28 8.37a41 41 0 0 0-5.91 9.21c-3.14 7.21-2.54 15.27-1.22 22.83 1.23 7 3.08 14 3.3 21.12a41 41 0 0 1-.83 10.44 73 73 0 0 1-3.08 9.39c-1.39 3.67-2.69 7.38-4 11.09l-2.07 5.83c-.64 1.83-1.37 3.72-.41 5.58 1.34 2.6 5.03 3.62 7.58 4.55 3.38 1.23 6.84 2.26 10.28 3.3a99 99 0 0 0 20.02 4.38c6.14.54 12.59.16 18.06-2.91a12.6 12.6 0 0 0 5.04-4.92 35 35 0 0 0 2.81-7.43 79 79 0 0 0 1.65-9.89q.72-5.17 1.4-10.35l.65-4.88a2 2 0 0 0-2-2 2.05 2.05 0 0 0-2 2 1364 1364 0 0 1-2.7 19.63 38 38 0 0 1-1.8 7.43c-.7 2-1.5 4.11-3.06 5.57-3.75 3.47-9.68 4.04-14.53 3.95a70 70 0 0 1-18.27-3.16 410 410 0 0 1-10.52-3.23 53 53 0 0 1-7.8-2.94c-.4-.2-1.03-.45-1.24-.89-.26-.56.26-1.49.45-2.02l2.15-6.07c1.23-3.46 2.43-6.93 3.72-10.37 2.3-6.14 4.37-12.1 4.52-18.74.14-6.76-1.12-13.48-2.43-20.09-1.53-7.75-3.3-16.13-.71-23.86 2.48-7.42 8.99-12.21 12.67-18.9 1.25-2.25-2.2-4.27-3.45-2.01Z" class="b"/><path d="M101.28 113.1a64 64 0 0 0 5.9 9.76 111 111 0 0 0 7.88 9.98c5.76 6.46 13.25 11 22 11.86 4.7.46 9.57-1.26 13.6-3.57 4.22-2.43 7.62-6 10.79-9.65a45 45 0 0 0 6.77-10.13c.84-1.78 2.18-3.98 2.21-5.98.04-2.07-1.33-3.07-2.85-4.13-3.25-2.27-6.48-4.57-9.76-6.8q-2.16-1.48-4.4-2.88c-1.72-1.06-3.91-2.07-5.54-.2-1.7 1.93 1.13 4.77 2.82 2.83-.48.55-.84-.24-.38.19a4 4 0 0 0 .58.33q.79.47 1.56.97 1.94 1.26 3.84 2.56 4.04 2.76 8.02 5.59l1.42.99.62.44.27.19c-.4-.56-.13-.18-.2-.08a15 15 0 0 0-.78 2q-.54 1.28-1.16 2.54a41 41 0 0 1-5.87 8.74c-5.33 6.14-12.38 12.74-21.2 12.08-7.49-.56-14.07-4.73-19.02-10.15a99 99 0 0 1-7.65-9.59 64 64 0 0 1-6.01-9.9 2 2 0 0 0-2.74-.72 2.05 2.05 0 0 0-.71 2.73Z" class="b"/><path d="M85.41 71.4c.33-.77.73-1.5 1.1-2.25.16-.34.36-1.3.7-1.44.3-.13.84.11 1.12.22.9.33 1.77.75 2.65 1.13a68 68 0 0 1 8.47 4.16 100 100 0 0 1 14.2 10.36c4.48 3.9 7.75 9.1 10.65 14.23 1.63 2.88 3.14 5.85 5.02 8.58 1.88 2.75 4.33 5.71 7.42 7.12a7.6 7.6 0 0 0 8.9-1.68c2.29-2.4 3.73-5.5 5.53-8.23 1.42-2.15-2.04-4.16-3.45-2.02-1.56 2.36-2.79 5.07-4.7 7.19-1.84 2.05-4.02 1.78-6.1.17-2.79-2.14-4.68-5.25-6.4-8.24-1.7-2.92-3.27-5.9-5.04-8.78a51 51 0 0 0-10.88-12.77 96 96 0 0 0-14.92-10.4 87 87 0 0 0-10.21-4.66 4.42 4.42 0 0 0-6.25 2.68c-.4.89-.88 1.72-1.26 2.6a2.07 2.07 0 0 0 .71 2.75 2 2 0 0 0 2.74-.72" class="b"/></svg>
