<svg xmlns="http://www.w3.org/2000/svg" fill="none" viewBox="0 0 24 24"><path fill="currentColor" fill-rule="evenodd" d="M11.94 1.25h.12c2.3 0 4.11 0 5.53.19 1.44.2 2.58.6 3.48 1.5.9.89 1.3 2.03 1.49 3.47.19 1.42.19 3.22.19 5.53V15A7.75 7.75 0 0 1 15 22.75h-3.06c-2.3 0-4.11 0-5.53-.19a5.7 5.7 0 0 1-3.48-1.5 5.7 5.7 0 0 1-1.49-3.47c-.19-1.42-.19-3.22-.19-5.53v-.12c0-2.3 0-4.11.19-5.53a5.7 5.7 0 0 1 1.5-3.48A5.7 5.7 0 0 1 6.4 1.44c1.42-.19 3.22-.19 5.53-.19M6.61 2.93c-1.27.17-2.05.5-2.62 1.06-.56.57-.9 1.35-1.06 2.62-.18 1.3-.18 3.01-.18 5.39s0 4.09.18 5.39c.17 1.27.5 2.05 1.06 2.62.57.56 1.35.9 2.62 1.06 1.3.18 3.01.18 5.39.18h2.25a10 10 0 0 1 .28-3.03 5.8 5.8 0 0 1 3.7-3.69 10 10 0 0 1 3.02-.28V12c0-2.38 0-4.09-.18-5.39-.17-1.27-.5-2.05-1.06-2.62-.57-.56-1.35-.9-2.62-1.06-1.3-.18-3.01-.18-5.39-.18s-4.09 0-5.39.18m14.6 12.82c-1.36 0-2 .04-2.52.2a4.3 4.3 0 0 0-2.73 2.74c-.17.52-.2 1.16-.2 2.52a6.25 6.25 0 0 0 5.45-5.46" clip-rule="evenodd"/></svg>
