<svg viewBox="0 0 20 20" fill="none" xmlns="http://www.w3.org/2000/svg"><path fill-rule="evenodd" clip-rule="evenodd" d="M6.0352 1.04258L9.80766 1.0543C10.8134 1.05726 11.6284 1.05915 12.2705 1.14317C12.9369 1.23038 13.5103 1.41578 13.9707 1.85411C14.4458 2.30649 14.6427 2.88075 14.7334 3.55137C15.0666 3.57572 15.3842 3.6564 15.6885 3.82481C16.2262 4.12246 16.5475 4.5914 16.792 5.16465C17.0246 5.70971 17.2182 6.42553 17.4541 7.29551L18.6973 11.8795C18.7952 12.2405 18.8816 12.5579 18.9248 12.8297C18.9717 13.1239 18.9779 13.4171 18.8809 13.7232C18.7843 14.0281 18.61 14.2666 18.4034 14.484C18.211 14.6863 17.9567 14.9048 17.6641 15.1559L15.3555 17.1363C15.3435 17.1466 15.3311 17.1575 15.3194 17.1676C15.112 17.3457 14.9373 17.4962 14.7315 17.6041C14.5262 17.7117 14.3021 17.7709 14.0352 17.8414C14.0202 17.8454 14.0046 17.8491 13.9893 17.8531L11.9102 18.4039C11.0031 18.6441 10.2632 18.8396 9.65922 18.9186C9.03018 19.0008 8.45584 18.9708 7.92191 18.6754C7.38417 18.3778 7.06299 17.9088 6.8184 17.3356C6.62433 16.8807 6.45674 16.3067 6.26957 15.6236H6.07328C5.06759 15.6207 4.2525 15.6178 3.61039 15.5338C2.94413 15.4466 2.37059 15.262 1.9102 14.8238C1.44547 14.3814 1.24497 13.823 1.15141 13.1744C1.06243 12.5573 1.06055 11.7762 1.05766 10.8238L1.04203 5.81993C1.03909 4.86752 1.03684 4.08612 1.12211 3.46934C1.21169 2.82153 1.40869 2.26294 1.87309 1.8209C2.33326 1.38299 2.90759 1.20103 3.57328 1.11778C4.21493 1.03753 5.02976 1.0396 6.0352 1.04258ZM15.083 4.91856C14.8783 4.80525 14.6117 4.75577 14.1133 4.8209C13.5991 4.88813 12.9378 5.06208 11.9786 5.31602L8.64457 6.19786C7.68516 6.45185 7.02424 6.62805 6.54496 6.82383C6.08044 7.01362 5.87707 7.18805 5.75883 7.38438C5.6429 7.57693 5.58885 7.82345 5.64848 8.29356C5.7107 8.78392 5.88097 9.41524 6.13188 10.3404L7.35063 14.8326C7.60148 15.7576 7.77351 16.3888 7.96781 16.8443C8.15395 17.2806 8.3256 17.4704 8.52641 17.5816C8.73118 17.695 8.99868 17.7445 9.49711 17.6793C10.0114 17.612 10.6727 17.4381 11.6319 17.1842L13.2715 16.7506C13.282 16.6856 13.2935 16.6134 13.3067 16.5367C13.3715 16.1599 13.4704 15.6485 13.6055 15.1178C13.7395 14.5914 13.9149 14.0231 14.1387 13.5426C14.3446 13.1005 14.6603 12.5768 15.1543 12.3492C16.0171 11.9521 16.9434 12.1868 17.5508 12.4313H17.5518C17.5311 12.3537 17.5084 12.2694 17.4834 12.1773L16.2598 7.66661C16.0089 6.74145 15.836 6.11045 15.6416 5.65489C15.4555 5.21867 15.2839 5.02974 15.083 4.91856ZM17.084 13.5904C16.5682 13.3828 16.0593 13.3087 15.6778 13.484C15.6236 13.5089 15.4659 13.6535 15.2715 14.0709C15.0951 14.4499 14.942 14.933 14.8164 15.4264C14.7594 15.6504 14.7097 15.8721 14.6661 16.0807L16.8272 14.2262C17.0761 14.0126 17.2559 13.8579 17.3907 13.7291C17.2964 13.682 17.1933 13.6344 17.084 13.5904ZM6.07523 2.29258C5.01601 2.28945 4.28151 2.28887 3.72855 2.35801C3.19034 2.42532 2.92005 2.54953 2.73441 2.72618C2.55341 2.89856 2.4292 3.14298 2.36039 3.64024C2.28864 4.15925 2.28893 4.8521 2.29203 5.8629L2.30766 10.774C2.31075 11.7846 2.31375 12.4771 2.38871 12.9967C2.4606 13.4947 2.5867 13.7426 2.77152 13.9186C2.96068 14.0986 3.23406 14.2241 3.7725 14.2945C4.29213 14.3625 4.97132 14.3685 5.92875 14.3717L4.91312 10.6236C4.67723 9.75389 4.48371 9.03781 4.40922 8.45079C4.33093 7.83356 4.37067 7.26628 4.68754 6.73985C5.00216 6.21726 5.48602 5.90612 6.0723 5.66661C6.63542 5.43657 7.37521 5.24071 8.28227 5.00059L11.7002 4.09629C12.3876 3.91432 12.9785 3.75733 13.4873 3.65782C13.4149 3.17528 13.2909 2.93307 13.1084 2.75938C12.9193 2.57935 12.6468 2.45289 12.1084 2.38243C11.5549 2.30999 10.82 2.30646 9.76078 2.30333L6.07523 2.29258Z" fill="currentColor"/></svg>
