<svg xmlns="http://www.w3.org/2000/svg" fill="none" viewBox="0 0 24 24"><path fill="currentColor" d="M15.48 9.52c.21.8-.05 1.56-.58 1.7-.54.15-1.14-.39-1.36-1.19-.21-.8.05-1.56.58-1.7.53-.15 1.14.39 1.36 1.19m-5.8 1.55c.21.8-.04 1.56-.58 1.7-.53.15-1.14-.38-1.35-1.18s.04-1.57.58-1.71 1.14.39 1.35 1.19"/><path fill="currentColor" fill-rule="evenodd" d="M12 2.75a9.25 9.25 0 0 0-.75 18.47c0-1.98.03-3.28.3-4.34a9 9 0 0 1-2.82-.22.75.75 0 1 1 .36-1.45 7 7 0 0 0 3.1.08 7.8 7.8 0 0 1 4.25-3.6c1.15-.4 2.52-.44 4.78-.44A9.25 9.25 0 0 0 12 2.75m9.14 10c-2.26 0-3.34.05-4.2.35a6.3 6.3 0 0 0-3.84 3.84c-.3.86-.34 1.94-.35 4.2zM1.25 12a10.75 10.75 0 1 1 21.45 1.07l-.03.27-9.33 9.33-.27.03q-.52.05-1.07.05A10.75 10.75 0 0 1 1.25 12" clip-rule="evenodd"/></svg>
