<svg xmlns="http://www.w3.org/2000/svg" preserveAspectRatio="xMidYMid" viewBox="-5.5 0 247 247"><g id="stopwatch"><path id="path-1" fill-rule="evenodd" d="m227.73 51.04-5.78 6.9-49.03-41.14 5.78-6.9a16 16 0 0 1 22.54-1.97l24.52 20.57a16 16 0 0 1 1.97 22.54M89.5 16a16 16 0 0 1 16-16h23a16 16 0 0 1 16 16v10h-55zM7.27 51.04A16 16 0 0 1 9.24 28.5L33.76 7.93A16 16 0 0 1 56.3 9.9l5.78 6.9-49.02 41.13z" style="fill:#ff1b3f"/><path id="path-2" fill-rule="evenodd" d="M220.21 70A117.5 117.5 0 0 1 236 129c0 65.17-52.83 118-118 118S0 194.17 0 129c0-21.5 5.75-41.64 15.79-59z" style="fill:#01bef2"/><path id="path-3" fill-rule="evenodd" d="M222.36 94.23A110 110 0 0 1 228 129c0 60.75-49.25 110-110 110S8 189.75 8 129c0-12.16 2-23.84 5.64-34.78.99-4.34 2.9-12.8-.8-22.36-1.8-4.68-3.36-9.5 1.09-15.62C26.67 38.7 43.16 23.85 62.9 14.56c6.84-3.22 10.79-.59 13.48.54 12.78 5.35 26.29 9.78 41.11 9.88 14.84-.1 29.33-4.53 42.11-9.88 2.7-1.12 6.63-3.76 13.48-.54 19.75 9.3 36.25 24.14 48.98 41.68 4.45 6.12 2.89 10.94 1.08 15.62-3.7 9.57-1.78 18.02-.8 22.36" style="fill:#4cebc0"/><path id="path-4" fill-rule="evenodd" d="M62 92h112a16 16 0 0 1 16 16v42a16 16 0 0 1-16 16H62a16 16 0 0 1-16-16v-42a16 16 0 0 1 16-16" style="fill:#4762e1"/><path id="path-5" fill-rule="evenodd" d="M155.5 152c-8 0-14.5-6.5-14.5-14.5v-17a14.5 14.5 0 0 1 29 0v17c0 8-6.5 14.5-14.5 14.5m6.5-31.5a6.5 6.5 0 1 0-13 0v17a6.5 6.5 0 1 0 13 0zM118.5 152c-8 0-14.5-6.5-14.5-14.5v-17a14.5 14.5 0 0 1 29 0v17c0 8-6.5 14.5-14.5 14.5m6.5-31.5a6.5 6.5 0 1 0-13 0v17a6.5 6.5 0 1 0 13 0zM81.5 152c-8 0-14.5-6.5-14.5-14.5v-17a14.5 14.5 0 0 1 29 0v17c0 8-6.5 14.5-14.5 14.5m6.5-31.5a6.5 6.5 0 1 0-13 0v17a6.5 6.5 0 1 0 13 0z" style="fill:#fff"/></g></svg>
