<svg xmlns="http://www.w3.org/2000/svg" fill="currentColor" style="fill-rule:evenodd;clip-rule:evenodd;stroke-linejoin:round;stroke-miterlimit:2" viewBox="0 0 1069 1069"><path id="Ram" d="M.03.6H1066.7v1066.66H.03z" style="fill:none"/><path d="M252.33 815.18H356.5l1.34-.17c5.98-.86 29.9-5.92 29.9-31.5v-30.84a83.33 83.33 0 0 0-83.33-83.33h-.08a83.25 83.25 0 0 0-83.25 83.25v30.91zm218.53 0h104.17l1.34-.17c5.99-.86 29.91-5.92 29.91-31.5v-30.84a83.33 83.33 0 0 0-83.33-83.33 31.25 31.25 0 1 1 0 62.5 31.25 31.25 0 0 1 0-62.5 83.33 83.33 0 0 0-83.34 83.33v30.83zm-145.61-62.5a20.84 20.84 0 0 0-20.84-20.84h-.08a20.75 20.75 0 0 0-20.75 20.75v.08zm218.53 0a20.83 20.83 0 0 0-41.67 0zm364.58-208.34h62.5a31.26 31.26 0 0 0 0-62.5h-62.5a31.26 31.26 0 0 0 0 62.5m-812.5 0h62.5a31.26 31.26 0 0 0 0-62.5h-62.5a31.26 31.26 0 0 0 0 62.5m812.5-104.17h62.5a31.26 31.26 0 0 0 0-62.5h-62.5a31.26 31.26 0 0 0 0 62.5m-812.5 0h62.5a31.26 31.26 0 0 0 0-62.5h-62.5a31.26 31.26 0 0 0 0 62.5" style="fill-opacity:.5"/><path d="M887.53 252.68H179.2c-63.29 0-114.59 51.3-114.59 114.58v333.33c0 63.28 51.3 114.58 114.59 114.59h708.33c63.28 0 114.58-51.3 114.58-114.59V367.26c0-63.28-51.3-114.58-114.58-114.58m-175.94 62.5c-.6 28.91-11.18 56.43-29.2 76.94-19.9 22.66-47.08 35.03-75.23 35.03H460.74c-28.16 0-55.33-12.37-75.25-35.03-18-20.5-28.58-48.03-29.18-76.95H179.19a52.1 52.1 0 0 0-52.08 52.09V586H866.7a31.26 31.26 0 0 1 0 62.5H127.1v52.08a52.1 52.1 0 0 0 52.09 52.09h708.33a52.1 52.1 0 0 0 52.08-52.09V367.26a52.1 52.1 0 0 0-52.08-52.08zm-62.53 0c-.54 13.39-5.25 26.17-13.62 35.69-7.55 8.6-17.6 13.78-28.28 13.78H460.74c-10.68 0-20.74-5.19-28.29-13.78-8.36-9.52-13.08-22.3-13.62-35.7z"/></svg>
