<svg xmlns="http://www.w3.org/2000/svg" fill="currentColor" style="fill-rule:evenodd;clip-rule:evenodd;stroke-linejoin:round;stroke-miterlimit:2" viewBox="0 0 1069 1069"><path id="Sim-card-alt1" d="M1.12.25h1066.67v1066.67H1.12z" style="fill:none"/><path d="M253.2 211.4v530.51a31.26 31.26 0 0 0 62.5 0v-530.5a31.26 31.26 0 0 0-62.5 0" style="fill-opacity:.5"/><path d="M1001.71 615.57v-332c0-63.27-51.3-114.57-114.58-114.57H181.78C118.5 169 67.2 220.3 67.2 283.58v474.46c0 63.28 51.3 114.58 114.58 114.58h403.26c32.08 0 62.7-13.45 84.4-37.1l81.27-88.51a52 52 0 0 1 38.37-16.86h98.05c63.28 0 114.58-51.3 114.58-114.58M939.21 294v-10.42a52.1 52.1 0 0 0-52.08-52.08H181.78a52.1 52.1 0 0 0-52.08 52.08v474.46a52.1 52.1 0 0 0 52.08 52.08h403.26c14.58 0 28.5-6.12 38.36-16.86l81.27-88.52a114.6 114.6 0 0 1 84.4-37.1h98.06a52.1 52.1 0 0 0 52.08-52.08v-9.06H784.45a31.26 31.26 0 0 1 0-62.5h154.76v-62.5H784.45a31.26 31.26 0 0 1 0-62.5h154.76v-62.5H784.45a31.26 31.26 0 0 1 0-62.5z"/></svg>
