<svg xmlns="http://www.w3.org/2000/svg" fill="none" viewBox="0 0 24 24"><path fill="currentColor" fill-rule="evenodd" d="M4.88 3.75h14.24L21 8.87v1.63c0 .75-.28 1.45-.75 1.97V21H3.75v-8.53A3 3 0 0 1 3 10.5V8.87zm13.3 9.64q.3 0 .57-.05v6.16H15V15H9v4.5H5.25v-6.16a2.8 2.8 0 0 0 2.63-.87 2.76 2.76 0 0 0 4.12 0 2.76 2.76 0 0 0 4.13 0c.5.56 1.23.92 2.06.92M10.5 19.5h3v-3h-3zm9-9.75v.75c0 .8-.61 1.4-1.31 1.4s-1.32-.6-1.32-1.4v-.75zm-.32-1.5-1.1-3H5.92l-1.1 3zM4.5 9.75v.75c0 .8.61 1.4 1.31 1.4s1.32-.6 1.32-1.4v-.75zm4.13 0v.75c0 .8.6 1.4 1.3 1.4s1.32-.6 1.32-1.4v-.75zm4.12 0v.75c0 .8.61 1.4 1.31 1.4s1.31-.6 1.31-1.4v-.75z" clip-rule="evenodd"/></svg>
