<svg xmlns="http://www.w3.org/2000/svg" fill="currentColor" style="fill-rule:evenodd;clip-rule:evenodd;stroke-linejoin:round;stroke-miterlimit:2" viewBox="0 0 64 64"><path id="Icons" d="M-192 0h1280v800H-192z" style="fill:none"/><g id="Icons1"><g id="Strike"><path id="Strike-line" d="M10.01 30.17h44.15v2.99H10.01z"/><path d="M10.01 30.17h44.15v2.99H10.01z"/><path id="Strike1" d="M46.4 35.71q.62.72 1.09 1.5a12 12 0 0 1 1.59 6.2q0 5.7-4.43 9.11-4.44 3.42-11.86 3.42-4.8 0-9-1.84a15 15 0 0 1-6.43-5.06 12.4 12.4 0 0 1-2.27-7.3h6.2a8 8 0 0 0 3.13 6.7q3.14 2.46 8.37 2.46 4.88 0 7.49-2a6.5 6.5 0 0 0 2.6-5.42q0-3.44-2.41-5.32a19 19 0 0 0-4.87-2.45zM19 27.61a10.6 10.6 0 0 1-2.44-6.97q0-5.52 4.42-9.14 4.41-3.6 11.48-3.61 4.82 0 8.6 1.86a14 14 0 0 1 5.84 5.14 13 13 0 0 1 2.07 7.16h-6.2q0-4.24-2.7-6.66-2.7-2.43-7.6-2.43-4.57 0-7.12 2a6.7 6.7 0 0 0-2.56 5.58q0 2.86 2.43 4.84 1.44 1.17 4.1 2.24z" style="fill-rule:nonzero"/></g></g></svg>
