<svg xmlns="http://www.w3.org/2000/svg" viewBox="-102.72 0 437.15 437.15"><defs><style>.a{fill:#fff}.d{fill:#febe69}.e{fill:#211715}.f{fill:#7abee6}</style></defs><path d="m54.44 96.29-1.28-.4c.24 12.88 2.5 26.6.68 34.44a2.5 2.5 0 0 1-.94 1.44c.1 14.1-.18 19.38-.59 40.37-.13 6.84-.33 20.74-.46 31.17h1.27l26.72.06h1.64c-.13-10.44-.32-24.38-.46-31.24-.41-20.88-.68-26.2-.6-40.16a2.7 2.7 0 0 1-.76-1.3c-1.84-7.88.45-21.65.68-34.57-4.23 2.63-10.35 3.34-16.46 2.84a35 35 0 0 1-8.67-2.42Z" class="a"/><path d="M66.82 244.78c-.67 46.49-2.6 101.8-5.04 148.15q-24.15-.3-48.22-2.41l6.74-97.47c1.92-27.75 1.25-54.3 6.3-81.72a26 26 0 0 1 3.2-8.02h23.33c6.47.03 18.02.05 26.7.07h23.45a26 26 0 0 1 3.16 7.95c5.05 27.42 4.39 53.97 6.3 81.72l6.75 97.46q-23.55 2.08-47.24 2.4a4128 4128 0 0 1-5.04-148.13Z" class="a"/><path d="M90.6 421.93c-2.19-2.14-4-4.06-7.18-5.03a24 24 0 0 1-7.49-4.07c-2.34-2.19-1.86-6.09-1.74-9.04.07-1.87.47-6.74 1.29-8.68l.97-2.27q9.36-.19 18.72-.65c5.3 7.67 12.5 14.18 19.2 20.85 2.13 2.13 3.95 4.97 3.7 7.97a7.4 7.4 0 0 1-3.24 5.24 13 13 0 0 1-5.94 2.09 22.4 22.4 0 0 1-13.98-2.87 19 19 0 0 1-3.41-2.67zm-73.4 3.42a7 7 0 0 1-2.16-4.34c-.26-3 1.57-5.84 3.7-7.97 6.7-6.66 13.88-13.18 19.2-20.85q9.35.46 18.72.65l.97 2.27c.82 1.94 1.22 6.81 1.3 8.68.1 2.95.6 6.85-1.75 9.04a24 24 0 0 1-7.5 4.07c-3.59 1.1-5.44 3.42-8.07 5.9a19 19 0 0 1-3.42 2.67 22.4 22.4 0 0 1-13.97 2.87 13 13 0 0 1-5.94-2.1 9 9 0 0 1-1.08-.89M82.13 21.42a41 41 0 0 0-13.92-2.09c-34 0-29 26.57-29 26.57a4.4 4.4 0 0 0-3.12-1.2 4 4 0 0 0-3.65 1.96c-1.26 2.12-1.27 6.05-.48 8.5a13 13 0 0 0 3.76 6.3 4.7 4.7 0 0 0 3.98 1.06 33 33 0 0 0 6.09 11.92 25 25 0 0 0 8.31 7 7 7 0 0 1-.28 2.18 73 73 0 0 0-.66 12.1l2.06.8a35 35 0 0 0 8.66 2.42c6.12.5 12.23-.2 16.46-2.83a73 73 0 0 0-.66-12.16 6 6 0 0 1-.27-2.32v-.04c6.66-3.35 12.03-12.28 13.01-14.82a28 28 0 0 0 1.32-3.43l.36.06a4.8 4.8 0 0 0 3.7-1 13 13 0 0 0 3.95-6.2c.86-2.42.97-6.35-.22-8.5a4 4 0 0 0-3.6-2.06 4.4 4.4 0 0 0-3.15 1.1S99.9 27.8 82.13 21.4m84.32 391.76a36 36 0 0 0-.25 3.6c-.09 5.17 1.26 10.57 4.8 14.32s9.6 5.37 14.1 2.85c3.42-1.9 5.39-5.76 5.98-9.62a42 42 0 0 0-.16-11.43c-.85-7.46-1.78-12.12-2.37-18.02-8.08-.33-18.15-3-25-5.77l-.1-5.17-.5.42c-2 1.67-6.13 3.02-8.64 3.39a66 66 0 0 1-12.5.73c-5.62 5.9-11.97 11.2-16.6 17.92a10.5 10.5 0 0 0-2.13 4.95c-.32 3.94 3.5 7.23 7.4 7.8s7.8-.8 11.51-2.17l25.44-9.4a57 57 0 0 0-.98 5.6m13.2-347.79a4.3 4.3 0 0 1 3.05-1.36 4 4 0 0 1 3.75 1.76c1.38 2.04 1.6 5.97.94 8.45a13 13 0 0 1-3.41 6.5 4.8 4.8 0 0 1-3.61 1.32l-.36-.04a28 28 0 0 1-1.03 3.53c-.88 3-6.8 14.88-14.64 17.2a66 66 0 0 1-8.74 1.78 65 65 0 0 1-8.4.01c-5.29-.38-9.76-2.96-14.05-7.43a33 33 0 0 1-7.07-11.36 4.7 4.7 0 0 1-4.05-.73 13 13 0 0 1-4.28-5.96c-.99-2.37-1.31-6.3-.23-8.5a4 4 0 0 1 3.47-2.26 4.3 4.3 0 0 1 3.21.93s-6.2-25.63 26.68-25.63 28.77 21.81 28.77 21.81" class="a"/><path d="M179.6 256.05q1.4 14.6 2.95 29.4c1.47 14 4.1 37.72 6.38 53.41a4.6 4.6 0 0 0 2.12 2.96 4.8 4.8 0 0 0 3.15.7c12.23-.44 21.87-3.06 33.29-7.46l3.84-1.48-1.62-6.95c-1.66-7.16-13-68.8-20.3-105.04l-.36-1.88a144 144 0 0 0 10.66-19.82c1.77-4.11 2.52-13.36 1.08-19.65a553 553 0 0 0-9.11-34.97c-1.76-6.06-5.46-16.2-9.91-20.1a35 35 0 0 0-6.81-4.57 41 41 0 0 0-7.94-3.33c1.82-3.24 1.22-6.78-.7-10.19l-6.36-6.94a44 44 0 0 0-5.41-3.53l-40.42 3.25a22.7 22.7 0 0 0-9.22 9.21 13.3 13.3 0 0 0-.03 12.83s-7.74 22.55-11.1 40.29a545 545 0 0 0 3.5 60.42c0 6.5.77 21 .43 29-.67 26.03-1.7 64.72-2.13 85.82 6.28 2.54 17.34 4.32 26.89 5.52a7 7 0 0 0 2.43.15c2.75-.58 3.32-4.22 3.26-7.04-1.14-57.11-5.13-123.15-2.18-182.74a615 615 0 0 1 2.24-30.74 55 55 0 0 0 16.83-1.1c.8 10.94 5.14 26.1 6.16 38.03 2.82 32.86 5.34 64.42 8.4 96.54" class="a"/><path d="M170.26 190.88a45 45 0 0 1-9.63 1.1c-3.16.04-11.25-.25-14.7-.5h-.98c-.37 48.7 2.3 99.44 3.21 144.59.06 2.81-.5 6.45-3.27 7.03a7 7 0 0 1-2.42-.15 201 201 0 0 1-18.6-3.07v.57c.13 14.1.42 27.21.99 41.14a5 5 0 0 0 3.52 4.6 57.5 57.5 0 0 0 25.92 1.56c2.5-.37 6.63-1.72 8.63-3.38l.52-.31.1 5.05c7.49 3.05 18.85 5.95 27.23 5.8 8-.15 16.17-2.47 21.59-7.17a2.4 2.4 0 0 0 .8-1.82c-.2-15.36-1.57-37.96-1.8-45.64v-.06a86 86 0 0 1-17.18 2.3 4.8 4.8 0 0 1-3.15-.7 4.6 4.6 0 0 1-2.1-2.95c-2.3-15.7-4.92-39.42-6.4-53.42-3.4-32.31-6.06-63.52-8.75-95.44a83 83 0 0 1-3.53.87" style="fill:#bdbdbd"/><path d="M147.87 126.28a628 628 0 0 0-1.9 27.04 916 916 0 0 0-1.02 38.13l.97.02c3.46.26 11.55.55 14.7.5A47 47 0 0 0 173.8 190l-2.58-30.5c-1.02-11.93-5.35-27.08-6.16-38.02a55 55 0 0 1-16.83 1.1v.09q-.19 1.8-.35 3.6" style="fill:#645d5c"/><path d="m192.47 104.77.5-.45a12 12 0 0 0 1.58-6.66c-.27-3.41-2.2-6.43-4-9.34s-3.55-6.11-3.38-9.53l.23-4.56a13 13 0 0 1-3.42 6.51 4.8 4.8 0 0 1-3.61 1.32l-.36-.04a28 28 0 0 1-1.03 3.53 38 38 0 0 1-5.84 10.37l1.4.69a44 44 0 0 1 5.42 3.53l6.36 6.94a17 17 0 0 1 .95 1.97 95 95 0 0 0 5.2-4.28" class="d"/><path d="M34.81 194.55a28.6 28.6 0 0 0-9.08 12.64 41 41 0 0 0-1.84 8.2q-.8 4.94-1.41 9.9c-1.6 13.02-2.23 26.12-2.77 39.21-1.11 26.8-3.14 53.52-4.99 80.26l-3.16 45.75a2.04 2.04 0 0 0 2 2q24.05 2.11 48.22 2.42a2.04 2.04 0 0 0 2-2q1.5-28.65 2.58-57.32 1.13-29.58 1.85-59.17.38-15.83.61-31.66c.04-2.58-3.96-2.58-4 0q-.41 28.72-1.32 57.42-.9 29.58-2.2 59.14-.7 15.8-1.52 31.58l2-2q-24.15-.3-48.23-2.4l2 2 5.53-79.82c.9-13.16 1.8-26.3 2.35-39.48.53-12.76.99-25.54 2.21-38.26a198 198 0 0 1 2.96-21.4A24 24 0 0 1 36.83 198a2.06 2.06 0 0 0 .72-2.74 2 2 0 0 0-2.74-.71" class="e"/><path d="M65.2 244.78q.42 28.71 1.32 57.42.9 29.57 2.2 59.13.7 15.8 1.52 31.58a2.03 2.03 0 0 0 2 2q23.66-.33 47.24-2.4a2.03 2.03 0 0 0 2-2l-5.64-81.55a1424 1424 0 0 1-2.32-39.66c-.54-13.08-1.04-26.18-2.42-39.21q-.58-5.56-1.4-11.09a71 71 0 0 0-1.82-10.13 28.5 28.5 0 0 0-9.66-14.32 2 2 0 0 0-2.74.71 2.05 2.05 0 0 0 .73 2.74c3.73 2.82 6.5 7.52 7.82 11.94a64 64 0 0 1 1.61 8.68q.75 4.88 1.29 9.8c1.42 12.7 1.97 25.48 2.5 38.24 1.07 26.4 3.14 52.75 4.96 79.1l3.1 44.76 2-2q-23.57 2.06-47.24 2.4l2 2q-1.5-28.65-2.58-57.32-1.13-29.57-1.85-59.16-.38-15.83-.61-31.66c-.04-2.57-4.04-2.58-4 0Z" class="e"/><path d="M73.55 394.58c-1.02 2.55-1.15 5.6-1.32 8.32-.18 2.88-.51 6.04.6 8.78 1.24 3.05 4.46 4.77 7.32 6.07 1.44.65 3.04 1.03 4.43 1.78a16 16 0 0 1 3.58 2.8 47 47 0 0 0 4.1 3.75 21 21 0 0 0 5.2 2.8 24 24 0 0 0 11.44 1.46c3.75-.47 7.4-1.86 9.66-5.06 2.2-3.14 1.8-7.1-.1-10.28a25 25 0 0 0-4.16-4.84l-5-4.91a134 134 0 0 1-9.65-10.4 2 2 0 0 0-2.83 0 2.05 2.05 0 0 0 0 2.83c4.72 5.78 10.18 10.88 15.47 16.12 1.93 1.9 4.27 4.46 3.74 7.42-.56 3.17-4.03 4.58-6.83 5.06a20 20 0 0 1-9.87-.96 21 21 0 0 1-7.81-5.3 19.6 19.6 0 0 0-7.57-5.05 22 22 0 0 1-3.3-1.41 12 12 0 0 1-3.55-2.39c-1.67-1.93-1.02-5.45-.9-7.8a25 25 0 0 1 1.2-7.73 2 2 0 0 0-1.4-2.46 2.05 2.05 0 0 0-2.46 1.4Zm-17.85 1.06a23 23 0 0 1 1.16 7c.16 2.33.61 5.18-.22 7.43-.82 2.2-3.86 3.43-5.86 4.3-1.3.56-2.67.9-3.94 1.53a17 17 0 0 0-3.65 2.6c-2.45 2.2-4.5 4.58-7.52 6.04a20.4 20.4 0 0 1-9.33 1.96c-2.99-.08-6.6-.78-8.44-3.4-1.83-2.58-.44-5.64 1.44-7.78 2.6-2.97 5.66-5.6 8.46-8.4a125 125 0 0 0 8.48-9.25 2.06 2.06 0 0 0 0-2.82 2 2 0 0 0-2.83 0 125 125 0 0 1-8.48 9.24c-2.84 2.84-5.98 5.5-8.59 8.55-2.37 2.76-4.16 6.49-3.02 10.17 1.11 3.6 4.32 5.95 7.82 6.95a23.4 23.4 0 0 0 21.84-5.55c1.18-1.11 2.3-2.3 3.54-3.35a12 12 0 0 1 4.07-2.17c2.85-.98 6.27-2.51 8.31-4.82 2.47-2.8 2.14-6.71 1.98-10.18-.14-2.96-.26-6.33-1.36-9.11a2.06 2.06 0 0 0-2.46-1.4 2 2 0 0 0-1.4 2.46" class="e"/><path d="M12.8 211.03c-1.07-.25-1.73-1.02-1.56-1.82 1.18-5.58 3.83-18.76 4.43-21.18.25-.98.55-2.33.89-3.86l-1.8-.87a42 42 0 0 1-7.23-5.56c-2.65-2.6-3.7-4.5-4.94-8.33-.84-2.56-.61-7.14-.36-9.45 1.72-16.2 3-24.68 7.98-43.74 1.42-6.14 3.52-11.97 8.23-15.77a65 65 0 0 1 6.25-3.74c4.92-2.5 11.84-5.21 15.96-6.8a9 9 0 0 1 1.98-2.7 68 68 0 0 1 8.4-7.28 2.4 2.4 0 0 1 1.5-.65c.84.07 1.45 1.04 1.56 2.02a6 6 0 0 1-.28 2.32c-2.36 15.45 2.46 36.28.02 46.72a2.5 2.5 0 0 1-.93 1.44c.09 14.1-.18 19.38-.6 40.36-.17 9.11-.45 30.74-.56 40.02-.01.81-.89 1.48-2.02 1.53-3.71.15-9.88.1-13.9-.08-8.3-.38-18.67-1.58-23.01-2.58" class="f"/><path d="M94.78 46.74a4.4 4.4 0 0 1 3.16-1.1 4 4 0 0 1 3.59 2.06c1.2 2.16 1.09 6.09.22 8.5a13 13 0 0 1-3.94 6.2 4.8 4.8 0 0 1-3.71 1.01l-.35-.06a28 28 0 0 1-1.33 3.42c-.98 2.57-6.42 11.6-13.15 14.9a67 67 0 0 1 1.06 14.8l-2.28.81c-4 1.67-9.09 2.08-14.17 1.67a35 35 0 0 1-8.67-2.42l-2.05-.87a66 66 0 0 1 1.03-14.17 25 25 0 0 1-8.4-7.04 33 33 0 0 1-6.1-11.92 4.7 4.7 0 0 1-3.97-1.06 13 13 0 0 1-3.76-6.31c-.8-2.44-.78-6.38.48-8.5a4 4 0 0 1 3.65-1.95 4.4 4.4 0 0 1 3.12 1.2s-5-23.46 28.67-23.46c32 0 26.9 24.29 26.9 24.29" class="a"/><path d="M120.57 211.02c1.05-.26 1.69-1.02 1.52-1.81-1.17-5.58-3.83-18.76-4.43-21.18-.24-.94-.53-2.22-.85-3.68l1.8-.93a43 43 0 0 0 7.42-5.68c2.65-2.6 3.69-4.5 4.94-8.33.83-2.56.6-7.14.36-9.45-1.72-16.2-3.46-25.62-8.45-44.68-1.42-6.14-3.8-11.37-8.5-15.17a52 52 0 0 0-5.51-3.4c-5.02-2.55-11.91-5.08-16.14-6.73a10 10 0 0 0-1.86-2.43 68 68 0 0 0-8.4-7.29 2.4 2.4 0 0 0-1.51-.64c-.83.06-1.44 1.04-1.55 2.02a6 6 0 0 0 .28 2.32c2.36 15.44-2.47 36.28-.02 46.71a2.7 2.7 0 0 0 .76 1.32c-.08 13.95.18 19.28.6 40.15.17 9.11.45 30.74.56 40.03.01.8.9 1.47 2.02 1.52 3.72.16 9.88.1 13.9-.08 8.31-.37 18.7-1.57 23.01-2.58Z" class="f"/><path d="M154.1 22.17q-2.62-.15-5.48-.05a32 32 0 0 0-21.25 8.9 31.4 31.4 0 0 0-9.83 18.52 41 41 0 0 0 .97 13.71 18 18 0 0 0 2.23 5.09 4.3 4.3 0 0 1 3.46.89l4.22-6.26c2.21-.87 3.45-3.18 4.46-5.33a41 41 0 0 0 3.48-9.7 29 29 0 0 0 3.69 8.48 15 15 0 0 0 2.99 3.75h33.62a26 26 0 0 1 1.62 6.32l1.37-1.1a4.3 4.3 0 0 1 3.05-1.36 4 4 0 0 1 3.75 1.76l.86 1.28-.1-1.62a78 78 0 0 0-2.67-17.33 36 36 0 0 0-4.66-10.42c-2.96-4.9-5.73-7.54-10.72-10.96l-.2-.11a36 36 0 0 0-6.82-3.06 34 34 0 0 0-8.05-1.4" class="d"/><path d="M169.4 24.57a38 38 0 0 0-19.6-4.48 35 35 0 0 0-16.42 4.13c-9.55 5.2-16.78 14.98-17.9 25.92a41 41 0 0 0 .27 9.3 26 26 0 0 0 2.74 9.1c1.24 2.25 4.7.24 3.46-2.02-2.37-4.32-2.76-9.74-2.6-14.57a27 27 0 0 1 4.32-13.35c5.13-8.12 14.2-13.94 23.88-14.44 6.97-.37 13.64.45 19.83 3.86 2.26 1.25 4.28-2.2 2.02-3.45m19.81 40.88c-.82-13.35-3.69-27.67-14.3-36.86-1.94-1.68-4.78 1.14-2.83 2.82 9.81 8.5 12.37 21.7 13.13 34.03.16 2.56 4.16 2.58 4 0m-4.62 42.64q.3.52.56 1.07c.02.05.24.54.16.34l.16.42a12 12 0 0 1 .55 1.99c.04.18.07.48.03.12l.05.5a9 9 0 0 1 0 1.07l-.05.49q-.02.23.02-.13l-.06.33a8 8 0 0 1-.26.96l-.18.48c.17-.42-.06.1-.08.15a9 9 0 0 1-.54.93l-.28.4-.27.33a13 13 0 0 1-.94.96 20 20 0 0 1-5.18 3.23 2 2 0 0 0-.72 2.73 2.05 2.05 0 0 0 2.74.72c3.95-1.82 7.86-4.57 9.3-8.87 1.17-3.46.16-7.16-1.56-10.24-1.26-2.24-4.71-.23-3.46 2.02Z" class="e"/><path d="M181.06 66.8a2.5 2.5 0 0 1 2.22-.77 2 2 0 0 1 .87.27l.25.15q-.22-.17-.06-.04l.34.33c.3.3-.04-.07.01.01q.2.3.36.61a6 6 0 0 1 .37 1.1 11 11 0 0 1 .32 2.85 13 13 0 0 1-1.09 4.95c-.75 1.78-2.1 3.93-4.28 3.8a2 2 0 0 0 0 4c6.51.39 9.6-8.24 9.36-13.55-.12-2.5-.72-5.42-2.76-7.1a6.6 6.6 0 0 0-8.74.57c-1.8 1.84 1.03 4.67 2.83 2.83Z" class="e"/><path d="M178.46 79.42a29 29 0 0 1-1.74 6.55c-.03.07-.3.7-.11.28l-.23.5q-.3.67-.63 1.32-.75 1.48-1.62 2.9c-2.4 3.94-5.73 8.42-10.32 9.84-2.45.76-1.4 4.62 1.06 3.86 5.49-1.7 9.5-6.52 12.43-11.22a33 33 0 0 0 5.02-12.97 2.07 2.07 0 0 0-1.4-2.46 2 2 0 0 0-2.46 1.4m-55 4.77c3.22 10.67 11.97 21.4 23.74 22.35a2 2 0 0 0 2-2 2.04 2.04 0 0 0-2-2c-5.04-.4-9.23-3.29-12.64-6.84a31 31 0 0 1-7.25-12.58c-.74-2.45-4.6-1.4-3.86 1.07m23.56 7.35a11 11 0 0 0 2.15.77 13 13 0 0 0 3.74.23 9.6 9.6 0 0 0 5.74-2.1 2 2 0 0 0 0-2.82 2.05 2.05 0 0 0-2.83 0c-.28.25-.03.01.13-.09l-.32.21-.35.2-.24.12c-.29.16.39-.14.16-.06a11 11 0 0 1-1.18.36l-.77.15c-.24.04.39-.04-.01 0l-.5.04a12 12 0 0 1-1.65.01l-.34-.02c-.21-.02-.43-.15.03 0l-.55-.1a8 8 0 0 1-.96-.27l-.34-.13c.72.26.28.12.1.04a2.05 2.05 0 0 0-2.73.72 2 2 0 0 0 .71 2.73ZM150.64 78q.23.69.44 1.39a11 11 0 0 1 .38 1.48l-.07-.54v.3l.07-.54-.04.14.2-.48-.06.11.31-.4-.06.06.4-.31-.31.18.47-.2-.34.1.53-.07a4 4 0 0 1-.64-.03 2 2 0 0 0-1.41 3.41 2.2 2.2 0 0 0 1.41.59l.54.04a3.5 3.5 0 0 0 1.62-.46 2.5 2.5 0 0 0 1.23-1.6 4 4 0 0 0-.06-1.66q-.32-1.3-.76-2.57a2 2 0 0 0-.92-1.2 2 2 0 0 0-1.54-.2 2 2 0 0 0-1.4 2.46Zm-14.48-6.84c-.35 1.52.18 4.93 3.03 5.03 3.73-.28 3.65-4.45 2.25-6.31-1.14-1.53-4.2-1.98-5.28 1.28m29.92-2.07c.56 1.46.5 4.91-2.31 5.4-3.74.24-4.22-3.9-3.1-5.94.92-1.67 3.9-2.54 5.4.54m-34.81 40.61a20.3 20.3 0 0 0 4.45 16.27 2 2 0 0 0 1.95.51 2.1 2.1 0 0 0 1.4-1.4 3.9 3.9 0 0 0-.44-3.54 2.06 2.06 0 0 0-2.74-.71 2 2 0 0 0-.72 2.73c.12.17.15.15.15.22.02-.37-.06.1-.11.24l3.34-.88a16 16 0 0 1-3-5.85 14 14 0 0 1-.54-3.19 18 18 0 0 1-.02-1.82 18 18 0 0 1 .12-1.37l.02-.15a2.06 2.06 0 0 0-1.4-2.46 2 2 0 0 0-2.46 1.4" class="e"/><path d="M133.12 98.14a25.3 25.3 0 0 0-9.6 9.3 15.8 15.8 0 0 0-.37 15.47c1.23 2.26 4.69.25 3.46-2.02-4.2-7.7 2.02-15.56 8.53-19.3 2.23-1.28.22-4.74-2.02-3.45m3.06 22.77c1.58 2.02 4.27 2.53 6.65 2.95a59 59 0 0 0 8.82.92 58 58 0 0 0 17.25-2.22c2.47-.7 1.42-4.56-1.06-3.85a54 54 0 0 1-15.26 2.09 51 51 0 0 1-7.54-.6c-1.97-.3-4.71-.43-6.03-2.12a2 2 0 0 0-2.83 0 2.05 2.05 0 0 0 0 2.83m-10.56-53.1a6.8 6.8 0 0 0-7.42-.73 6.4 6.4 0 0 0-3.12 4.57 16 16 0 0 0 3.24 12.5c1.95 2.53 4.71 4.27 8 3.6a2 2 0 1 0-1.07-3.85c-1.87.38-3.48-1.6-4.35-3a18 18 0 0 1-1.24-2.44q-.09-.2.02.06l-.12-.32q-.14-.39-.26-.79a12 12 0 0 1-.33-1.49 12 12 0 0 1-.08-2.88 6 6 0 0 1 .6-1.91c.14-.33-.27.2.04-.07q.18-.19.37-.36c-.3.24.2-.1.23-.13.43-.24-.18.02.35-.14a2.6 2.6 0 0 1 2.31.2 2.07 2.07 0 0 0 2.83 0 2 2 0 0 0 0-2.83Zm20.2 134.45c9.55.3 19.4.55 28.76-1.6 2.5-.58 1.44-4.44-1.07-3.86-8.99 2.07-18.52 1.76-27.69 1.46-2.57-.08-2.57 3.92 0 4m.1-8.8c4.21.32 8.45.45 12.67.5a56 56 0 0 0 15.11-1.86c2.49-.66 1.43-4.52-1.06-3.86a52 52 0 0 1-14.34 1.73c-4.12-.07-8.26-.2-12.38-.5-2.57-.2-2.55 3.8 0 4Zm17.77 196.48q0 2.06-.02 4.1a2 2 0 0 0 .59 1.42 2 2 0 0 0 3.41-1.42l.02-4.1a2 2 0 0 0-.58-1.41 2 2 0 0 0-3.42 1.41m-41.81-49.5q.14 18.5.82 37c.1 2.62-.2 5.61 1.36 7.89 1.65 2.38 4.26 3 6.92 3.64a58 58 0 0 0 17.2 1.43c5.55-.35 11.67-1.04 16.17-4.62a2 2 0 0 0 0-2.83 2.05 2.05 0 0 0-2.83 0c-3.31 2.64-8.37 3.08-12.4 3.39a55 55 0 0 1-15.5-.88q-1.93-.4-3.8-.94a4 4 0 0 1-2.4-1.35 4.3 4.3 0 0 1-.6-2.56l-.16-4.4q-.3-8.4-.5-16.8-.2-9.49-.28-18.97c-.02-2.57-4.02-2.57-4 0" class="e"/><path d="M160.73 249.5c.1 17.01.1 34.03.13 51.04.04 19.79.1 39.58.27 59.36.1 9.65.21 19.3.42 28.93.05 2.57 4.05 2.58 4 0-.4-18.21-.5-36.43-.59-54.65q-.13-29.18-.14-58.35-.02-13.17-.09-26.33c-.01-2.57-4.01-2.58-4 0m26.43 150.48c.69 5.1 1.54 10.2 2.01 15.33.46 4.91.7 10.78-2.63 14.84-2.8 3.43-7.46 3.76-11.22 1.74-4.15-2.23-6.26-6.74-6.9-11.25-.9-6.25.9-12.53 2.38-18.54.61-2.5-3.24-3.57-3.86-1.07-1.52 6.23-3.3 12.68-2.58 19.15.62 5.64 2.97 11.27 7.85 14.51 4.35 2.89 10.46 3.5 14.85.38 4.97-3.52 6.38-9.73 6.35-15.5-.04-6.9-1.47-13.82-2.4-20.65a2 2 0 0 0-2.45-1.4 2.05 2.05 0 0 0-1.4 2.46m-46.7-12.99c-3.6 3.76-7.44 7.26-11 11.06a69 69 0 0 0-4.96 5.91c-1.55 2.09-3.08 4.33-3.38 6.97-.54 4.62 3.15 8.42 7.29 9.79 5.33 1.76 11.02-.67 15.97-2.5l18.6-6.87c2.4-.88 1.36-4.75-1.06-3.86l-14.65 5.41c-2.46.9-4.9 1.84-7.38 2.72a24 24 0 0 1-7.07 1.66c-3.16.1-7.73-1.62-7.77-5.42-.02-2.13 1.58-4.08 2.78-5.7a59 59 0 0 1 4.32-5.13c3.59-3.85 7.5-7.4 11.13-11.22 1.78-1.86-1.05-4.7-2.83-2.82Z" class="e"/><path d="M209.38 340.28c.33 11.04 1.06 22.07 1.46 33.1q.18 4.8.28 9.58l.04 2.27c0 .8-.01.95-.63 1.46a23 23 0 0 1-3.96 2.54c-6.09 3.17-13.3 4.08-20.07 3.52a79 79 0 0 1-22.15-5.46 2 2 0 0 0-2.46 1.4 2.05 2.05 0 0 0 1.4 2.46 85 85 0 0 0 21.05 5.38 43 43 0 0 0 21.42-2.55 31 31 0 0 0 4.87-2.47c1.39-.88 3.17-1.96 4-3.43s.53-3.33.5-4.94q-.05-2.48-.13-4.96-.32-10.28-.83-20.56c-.27-5.78-.61-11.56-.79-17.34-.07-2.57-4.07-2.58-4 0" class="e"/><path d="M163.16 122.72c.77 8 2.6 15.86 4.1 23.75a254 254 0 0 1 3.05 25.87c1.59 18.84 3.15 37.68 4.81 56.52 1.67 18.88 3.44 37.74 5.43 56.58 1.54 14.64 3.17 29.27 5.07 43.86l.74 5.48a43 43 0 0 0 .71 4.94 7 7 0 0 0 3.5 4.14c1.94 1 4.32.65 6.4.51a96 96 0 0 0 24.84-5.12q3.12-1.07 6.21-2.26a2.06 2.06 0 0 0 1.4-2.47 2 2 0 0 0-2.46-1.4 110 110 0 0 1-23.9 6.64q-3.15.44-6.31.62c-1.78.11-3.9.63-5.25-.8-.98-1.03-.88-2.93-1.07-4.28l-.66-4.87c-1.9-14.37-3.5-28.78-5.03-43.19q-2.88-27.11-5.25-54.28c-1.64-18.4-3.18-36.82-4.73-55.23-.74-8.76-1.18-17.6-2.58-26.28-1.27-7.92-3.13-15.72-4.37-23.64q-.4-2.53-.65-5.09a2.06 2.06 0 0 0-2-2 2 2 0 0 0-2 2m22.35-3.76a36 36 0 0 1 8.78 3.54c2.99 1.58 6.07 3.53 8.06 6.31 4.34 6.08 6.43 13.6 8.46 20.67a563 563 0 0 1 5.87 22.03c.82 3.35 1.7 6.72 2.35 10.1a39 39 0 0 1 .24 11.32 26 26 0 0 1-1.1 5.36 49 49 0 0 1-2.81 6.22 152 152 0 0 1-8.04 14.19c-1.4 2.17 2.07 4.18 3.45 2.02q4.1-6.4 7.53-13.17c1.8-3.56 3.71-7.18 4.46-11.13a45 45 0 0 0 .62-12.27 78 78 0 0 0-2.2-11.01 559 559 0 0 0-5.9-22.55c-2.17-7.65-4.31-15.62-8.56-22.43a26 26 0 0 0-9.62-8.68 40 40 0 0 0-10.52-4.38c-2.51-.56-3.58 3.3-1.07 3.86" class="e"/><path d="M195.28 150.87c1.75 10.16 3.43 20.34 5.15 30.52 1.96 11.64 3.91 23.28 5.98 34.9 2.08 11.75 4.56 23.42 6.82 35.12q4.43 22.96 8.76 45.94c1.8 9.52 3.52 19.07 5.52 28.56l.28 1.25c.58 2.5 4.43 1.45 3.85-1.06-1.92-8.3-3.3-16.73-4.9-25.09l-8.54-44.86c-2.45-12.75-5.13-25.46-7.46-38.24-1.99-10.95-3.8-21.93-5.66-32.9q-2.8-16.52-5.57-33.05l-.37-2.15a2 2 0 0 0-2.46-1.4 2.05 2.05 0 0 0-1.4 2.46M180.97 98.4a44 44 0 0 0-5.41-3.53 2 2 0 0 0-2.02 3.46 44 44 0 0 1 5.4 3.52 2 2 0 0 0 1.55.2 2 2 0 0 0 1.2-.91 2 2 0 0 0 .2-1.55l-.2-.47a2 2 0 0 0-.72-.72M53.13 205.31q13.35.05 26.7.07c2.58 0 2.59-4 0-4l-26.7-.06c-2.58-.01-2.58 3.99 0 4M93.18 92.3c6.57 2.53 13.29 4.91 19.18 8.83a17 17 0 0 1 3.3 3.02 21 21 0 0 1 2.81 4.34c1.76 3.54 2.53 7.48 3.5 11.27 1.86 7.29 3.6 14.6 4.9 22.02a171 171 0 0 1 2.62 20.28c.2 3.9-.19 7.54-2.2 10.97-2.18 3.73-6.11 6.42-9.7 8.67-2.17 1.37-.16 4.83 2.02 3.46 3.7-2.33 7.4-5.01 10.06-8.52a19.6 19.6 0 0 0 3.8-10.17 58 58 0 0 0-.67-11.21q-.65-5.6-1.52-11.16a262 262 0 0 0-4.68-22.35c-1.99-7.95-3.55-16.54-9.93-22.3a37 37 0 0 0-9.3-5.67c-4.29-1.97-8.72-3.64-13.13-5.34a2 2 0 0 0-2.46 1.4 2.05 2.05 0 0 0 1.4 2.46m-77.42 89.28c-3.26-2.06-6.8-4.5-9-7.74A16.7 16.7 0 0 1 4 164.4a90 90 0 0 1 .9-10.6c.4-3.3.8-6.58 1.32-9.85a241 241 0 0 1 4.42-21.3 112 112 0 0 1 3.33-12.17 24 24 0 0 1 2.53-4.98 16 16 0 0 1 1.54-1.95q.46-.48.94-.94c.18-.16 1.07-.88.72-.63 6.13-4.41 13.57-7.07 20.55-9.77a2.06 2.06 0 0 0 1.4-2.46 2 2 0 0 0-2.46-1.4c-6.97 2.7-13.99 5.44-20.35 9.41-7.06 4.42-9.15 12.49-11.1 20.05-2 7.74-3.82 15.54-5.11 23.44q-.87 5.36-1.5 10.75c-.45 3.68-1 7.4-1.1 11.1a21.5 21.5 0 0 0 3.02 12.35c2.55 4.05 6.7 7.06 10.7 9.57 2.18 1.38 4.2-2.08 2.02-3.45Z" class="e"/><path d="M107.72 110.6c-.52 18.66.06 37.52 3.45 55.9 2.25 12.26 5.1 24.4 7.62 36.6l.93 4.53a6 6 0 0 0 .35 1.7c.52.73-.05.16.05.15l.14-.45-.1.04c-.16-.07-.77.17-.95.2-3.4.7-6.86 1.1-10.31 1.47a182 182 0 0 1-24.21 1 6 6 0 0 0-1.09-.05c.09-.01-.32-.07-.29-.11.14-.17.07 1.08.27.37a8 8 0 0 0-.02-1.88l-.05-4.3-.14-10.3q-.13-10.19-.3-20.37c-.22-12.91-.67-25.82-.66-38.74l.02-4.88c.02-2.58-3.98-2.58-4 0-.09 13.7.33 27.4.6 41.1q.19 9.93.3 19.87.09 5.57.16 11.15c.03 2.91-.16 5.94.14 8.83.24 2.39 2.5 3.22 4.59 3.29q2.92.08 5.83.06 6.2-.01 12.38-.46 6.49-.48 12.94-1.37c2.77-.39 8.61-.46 8.73-4.34a20 20 0 0 0-.77-4.26l-1.04-5.06q-.97-4.77-1.98-9.54c-1.24-5.8-2.56-11.58-3.72-17.4a222 222 0 0 1-4-26.04 339 339 0 0 1-1-29.61q.03-3.55.13-7.1c.07-2.57-3.93-2.56-4 0m-86.1 0c.53 19.34-.1 38.89-3.9 57.9-2.48 12.35-5.2 24.65-7.74 36.98a17 17 0 0 0-.73 4.25c.15 2.12 2.1 3.05 3.92 3.42 3.65.74 7.36 1.17 11.06 1.56a168 168 0 0 0 25.04 1c2.12-.1 4.26-1.04 4.46-3.41.1-1.35.04-2.73.06-4.08l.13-10.14q.14-10.75.31-21.5c.23-13.35.7-26.7.7-40.07q0-2.52-.03-5.03c-.02-2.58-4.02-2.58-4 0 .09 13.07-.3 26.13-.56 39.2-.26 13.17-.41 26.34-.57 39.52a6 6 0 0 0-.03 1.75c.04.08-.06.67.14-.08.18-.67.2-.13-.07-.2a7 7 0 0 0-1.33.07q-2.9.07-5.79.04-6-.03-12-.48-6.11-.43-12.18-1.28-2.27-.31-4.51-.76a2 2 0 0 0-.75-.17c-.35.08.06-.31-.1.17l.06.23q0 .13.03-.06c.27-.26.32-1.53.4-1.93 2.45-11.84 5.08-23.66 7.45-35.52a214 214 0 0 0 3.75-26.02q1.03-14.23.9-28.49-.03-3.43-.12-6.86c-.07-2.57-4.07-2.58-4 0Z" class="e"/><path d="M103.34 171.35a8 8 0 0 1-2.84-.7 10 10 0 0 1-2.79-2.27 15.6 15.6 0 0 1-2.77-9.46c-.01-3.7 2.82-7.76 5.69-8.9a15 15 0 0 1 4.73-4.81 10 10 0 0 1 3.18-1.79 3.2 3.2 0 0 1 3.33.92c.78.98.42 2.77-.17 3.98l-.01.03c2.12.38 5.39 1.05 7.05 1.54 1.42.41 2.5.36 3.39 1.6a4.4 4.4 0 0 1 .84 3.84 10 10 0 0 1-1.18 3.09c-2.5 3.1-.76 8.23-3.8 10.71a7 7 0 0 1-2.76 1.21 35 35 0 0 1-11.53 1.04z" class="a"/><path d="M113.43 149.33c.8-1.75 1.36-3.94.34-5.74a5 5 0 0 0-5.17-2.2c-2.09.32-3.78 1.71-5.4 2.97a15.5 15.5 0 0 0-4.3 4.65l.72-.72a11.6 11.6 0 0 0-5.58 5.93 14.6 14.6 0 0 0-.68 9.03 14 14 0 0 0 3.69 7.35c2.34 2.15 4.93 2.74 8.04 2.85a38 38 0 0 0 10.21-1.07c2.83-.69 5.05-2.03 6.09-4.86.8-2.2.5-4.7 1.39-6.87.43-1.06 1.17-1.92 1.59-3.02a9 9 0 0 0 .71-3.85 6.7 6.7 0 0 0-2-4.22 8 8 0 0 0-3.8-1.6 81 81 0 0 0-7.93-1.69 2.06 2.06 0 0 0-2.46 1.4 2 2 0 0 0 1.4 2.46q3.61.58 7.15 1.48a11 11 0 0 1 2.72.74 2.5 2.5 0 0 1 .84 2.69 8 8 0 0 1-1.22 2.77 10 10 0 0 0-1.3 3.52c-.35 1.84-.13 4.82-1.66 6.18a7.6 7.6 0 0 1-3.48 1.23 32 32 0 0 1-5 .68c-2.78.16-6.1.44-8.33-1.53-1.85-1.64-2.69-4.42-2.96-6.8a9.2 9.2 0 0 1 2.12-7.52 7 7 0 0 1 1.48-1.3 5 5 0 0 0 1.81-1.42 13 13 0 0 1 3.17-3.35c1-.77 2.4-2.12 3.74-2.2s1.02 1.1.61 2.02a2.06 2.06 0 0 0 .72 2.73 2 2 0 0 0 2.74-.72Zm1.84 73.28c0 6.98.4 13.96.5 20.94.1 7.1-.22 14.2-.4 21.3q-.65 24.71-1.26 49.43-.29 11.58-.53 23.15a2.1 2.1 0 0 0 1.47 1.93c6.68 2.66 14.07 3.72 21.15 4.74 2 .3 4 .54 6 .81 1.87.27 3.6.4 5.18-.82 2.53-1.94 2.83-5.52 2.77-8.46-.31-16.64-.88-33.28-1.42-49.92-.56-17.28-1.11-34.57-1.46-51.85-.35-17.4-.5-34.8-.2-52.2.29-17.46 1-34.91 2.52-52.3q.29-3.35.62-6.69a2 2 0 0 0-2-2 2.05 2.05 0 0 0-2 2 690 690 0 0 0-2.99 51.37c-.4 16.88-.37 33.76-.11 50.64.26 16.96.75 33.91 1.3 50.86.51 16.4 1.08 32.8 1.5 49.2.1 3.87.25 7.75.25 11.63a9 9 0 0 1-.6 3.73c-.65 1.39-1.77 1.03-3.1.85-7.43-.97-14.94-1.98-22.16-4.04a43 43 0 0 1-4.2-1.4l1.48 1.93q.47-22.25 1.06-44.48l.65-25.07c.18-7.23.53-14.47.5-21.7-.02-7.86-.51-15.71-.52-23.57 0-2.58-4-2.58-4 0ZM52.1 81.44a41 41 0 0 1-.62 4.93 69 69 0 0 0-.3 4.76c-.1 3.39 0 6.77.19 10.15.34 6.43 1.02 12.84 1.16 19.27a47 47 0 0 1-.28 7.47 11 11 0 0 1-.31 1.66l-.03.2-.08.15q-.18.24 0 .07c-.07-.1 1.25.1 1.04.36a10 10 0 0 0-.78-2.28l-.99-2.91q-3.8-11.51-6.68-23.3-.8-3.29-1.52-6.6c-.4-1.78-1.11-3.77 0-5.43a26 26 0 0 1 4.36-4.39 56 56 0 0 1 5.03-4.07 2.06 2.06 0 0 0 .71-2.73 2 2 0 0 0-2.74-.72 57 57 0 0 0-9.69 8.45 8 8 0 0 0-2.28 5.26 28 28 0 0 0 1.16 6.6q3 13.25 7.2 26.2 1.03 3.12 2.1 6.22c.53 1.58 1.24 3.19 3.16 3.24 3.8.12 4.2-4.3 4.46-7.12.6-6.7-.2-13.51-.67-20.2-.3-4.26-.55-8.52-.55-12.8q-.01-3 .2-6.01.1-1.5.29-2.98a22 22 0 0 0 .46-3.45c-.08-2.57-4.08-2.58-4 0m28.92.25a52 52 0 0 1 8.56 7.4 4.4 4.4 0 0 1 1.58 3.95 59 59 0 0 1-1.24 5.74q-2.77 11.95-6.49 23.65-.9 2.83-1.87 5.64a14 14 0 0 0-.83 2.45c-.09.64.02-.1.54-.16.53-.05.4.33.33-.18a53 53 0 0 1-.65-6.96c-.05-6.28.62-12.54 1.02-18.8.24-3.79.42-7.59.38-11.39a75 75 0 0 0-.26-5.58q-.1-1.3-.28-2.59c-.06-.48-.1-.96-.2-1.43a5 5 0 0 1-.27-1.31c.63-2.5-3.23-3.56-3.85-1.06-.44 1.76.36 3.85.54 5.64q.26 2.77.3 5.55c.08 3.8-.08 7.59-.31 11.37-.43 7-1.26 14.02-1.04 21.03a42 42 0 0 0 .38 4.5 7 7 0 0 0 1.58 4.16 3.37 3.37 0 0 0 4.66.14 5 5 0 0 0 1.04-2.03l1.09-3.18q4.42-13.06 7.6-26.51c.59-2.46 1.23-4.93 1.65-7.42a8 8 0 0 0-1.3-6.57 35 35 0 0 0-4.95-4.99 50 50 0 0 0-5.7-4.52c-2.15-1.41-4.16 2.05-2.01 3.45Zm104.15-2.9c-.13 4.67 2.48 8.53 4.77 12.37a18 18 0 0 1 2.5 5.77 9.8 9.8 0 0 1-1.2 6.39c-1.22 2.26 2.24 4.29 3.46 2.02a14.5 14.5 0 0 0-.04-13.93c-2.04-4.05-5.62-7.83-5.5-12.62.07-2.58-3.93-2.58-4 0m-61.05 13.87-.06.6.08-.53a8 8 0 0 1-.54 1.98l.2-.47a8 8 0 0 1-1.03 1.77l.32-.4a8 8 0 0 1-.94 1 2 2 0 0 0 0 2.84 2.04 2.04 0 0 0 2.83 0 10 10 0 0 0 3.14-6.78 2 2 0 0 0-2-2 2.05 2.05 0 0 0-2 2Z" class="e"/><path d="M119.89 84.04a4.5 4.5 0 0 0-1.86 6.02 5.1 5.1 0 0 0 6.59 1.86c1.91-1.07 2.34-4.12 1.46-5.83a4.8 4.8 0 0 0-6.2-2.05" class="a"/><path d="M118.88 82.32a6.3 6.3 0 0 0-3.3 6.3 6.2 6.2 0 0 0 1.72 3.78 7.3 7.3 0 0 0 3.25 1.83 6.2 6.2 0 0 0 7.03-2.55 7 7 0 0 0 .08-6.85 7 7 0 0 0-3.63-2.87 7 7 0 0 0-5.15.36 2 2 0 0 0-.92 1.2 2 2 0 0 0 .2 1.54 2 2 0 0 0 1.2.92 2.3 2.3 0 0 0 1.54-.2c-.49.2-.05.03.05 0l.4-.11.13-.03q.33-.06-.15 0l.38-.02c.21-.01.42.03.63.02-.5.03-.26-.05-.06 0l.46.11.34.12-.27-.11.21.1.5.28c.14.1.32.33-.05-.05l.25.21.48.5c.17.18-.3-.43-.1-.12l.16.26.13.25c.17.3-.18-.5-.07-.16l.14.48.05.22c.07.34-.05-.58-.01-.05a9 9 0 0 1-.02 1.08c.02-.71 0-.05-.06.16l-.22.66c.2-.61.05-.13-.05.05l-.16.25c-.12.18-.28.21.09-.1a3 3 0 0 0-.4.4c0-.01.42-.29.17-.13l-.34.2c-.21.11-.38.06.07-.01l-.32.11q-.26.08-.53.13c-.4.09.5-.03.09-.02l-.33.02h-.33l-.22-.02.2.03c-.16-.06-.35-.07-.53-.12-.2-.05-.41-.16-.62-.2.47.1.29.13.09.04l-.28-.15c-.19-.1-.35-.25-.53-.34.43.22.24.2.08.06l-.22-.2-.2-.22c-.25-.26.23.35.1.14q-.15-.22-.27-.44l-.05-.1q-.13-.29.06.16l-.14-.42-.07-.33c-.1-.38.03.5 0 .1a6 6 0 0 1 0-.76c0-.2.13-.42-.03.1q.05-.2.08-.42c.05-.2.15-.4.2-.6-.13.52-.12.28-.03.1l.2-.36.17-.25-.19.24.14-.15.2-.22.16-.14q.23-.2-.17.13c.2-.1.4-.25.6-.35a2 2 0 0 0 .72-2.74 2.06 2.06 0 0 0-2.73-.73m51.38-27.17a10 10 0 0 1 2.47 2.17 11 11 0 0 1 .83 1.18 18 18 0 0 1 .94 1.72 26 26 0 0 1 2.02 8.13 2.06 2.06 0 0 0 2 2 2 2 0 0 0 2-2 32 32 0 0 0-2.56-10.15 15.7 15.7 0 0 0-5.68-6.5 2 2 0 0 0-2.02 3.45M144.73 42.3a27 27 0 0 0 1.84 9.19c1.2 2.98 2.57 6.16 4.9 8.44 1.83 1.81 4.66-1.01 2.83-2.82a13 13 0 0 1-2.32-3.35 43 43 0 0 1-1.64-3.54 24 24 0 0 1-1.6-7.92 2 2 0 1 0-4 0Zm9.29-.35a36 36 0 0 0 3.08 11.2c1.45 3.1 3.15 6.27 6.4 7.7a2.06 2.06 0 0 0 2.75-.71 2 2 0 0 0-.72-2.74 11 11 0 0 1-.96-.47l-.6-.36a6 6 0 0 1-1-1.09 30.5 30.5 0 0 1-4.95-13.53 2.06 2.06 0 0 0-2-2 2 2 0 0 0-2 2m-19.43 4.48a31 31 0 0 1-2.8 8.8c-1.03 2.3-2.03 5-4.38 6a2 2 0 0 0-.71 2.75 2.05 2.05 0 0 0 2.73.71c3.06-1.3 4.53-4.59 5.82-7.43a38 38 0 0 0 3.34-10.83 2 2 0 0 0-2-2 2.05 2.05 0 0 0-2 2" class="e"/><path d="M88.2 73.69a34 34 0 0 0 4.23-6.92 28 28 0 0 0 1.32-3.43l.35.07a4.8 4.8 0 0 0 3.71-1.01 10 10 0 0 0 .92-.84c2.53 2.65 2.19 6.96-.01 9.72a11 11 0 0 1-8.16 3.83l-3.38-.15q.53-.64 1.02-1.27" style="fill:#85807f"/><path d="m97.8 63.6.27.49c.26.5-.1-.33.09.2a8 8 0 0 1 .27.97c.03.16.05.4.02.1q.03.27.04.55c.02.34-.02.67-.03 1.01 0 .23.07-.26-.01.12l-.12.54a9 9 0 0 1-.34 1.07c.1-.27 0 0-.06.12a8 8 0 0 1-.5.9c-.02.01-.36.5-.13.2a8 8 0 0 1-.7.78l-.36.33s-.48.4-.19.17a11 11 0 0 1-1.81 1.1c-.55.27.34-.12-.24.1l-.54.2q-.46.15-.94.27-.56.14-1.14.23c.35-.05-.16.02-.24.02l-.58.04a2 2 0 0 0 0 4 13 13 0 0 0 10-4.97 9.8 9.8 0 0 0 .7-10.56 2 2 0 0 0-3.46 2.02" class="e"/><path d="M36.64 21.19a35 35 0 0 0-3.1 12.71 37 37 0 0 0 1.2 11 5 5 0 0 1 1.35-.2 4.4 4.4 0 0 1 3.12 1.2l1.24 1.23.25-2.25c.46-4.21 2.46-10.1 5.4-13.27a14 14 0 0 1 2.9-2.33l2.56-.65c6.17-1.42 16.4-2.07 22.11-1.06 10.7 1.9 17.95 10.8 19.51 20.7l1.61-1.52a4.4 4.4 0 0 1 3.16-1.1 5 5 0 0 1 1.23.2 36 36 0 0 0 1.5-10.93c-.3-10.7-4.65-18.16-9.67-23.11-6.73-5.93-13.26-9.62-23.42-9.77a32.6 32.6 0 0 0-19.91 6.03A34 34 0 0 0 36.65 21.2" style="fill:#908b8a"/><path d="M52.08 30.54a64 64 0 0 1 10.3-1.35 51 51 0 0 1 10.14.2 21.8 21.8 0 0 1 15.4 10.27 24 24 0 0 1 3.45 10.18 2.06 2.06 0 0 0 2 2 2 2 0 0 0 2-2 28 28 0 0 0-9.87-18.95 25 25 0 0 0-10.06-5 43 43 0 0 0-11.1-.78A72 72 0 0 0 51 26.69c-2.5.56-1.44 4.42 1.07 3.85Z" class="e"/><path d="M42.7 44.88a28 28 0 0 1 1.13-4.91 24 24 0 0 1 2.21-4.93 12 12 0 0 1 3.45-3.73c1.54-1.03 3.27-1.73 4.84-2.7 2.2-1.34.19-4.8-2.02-3.45-1.7 1.04-3.57 1.78-5.2 2.95A16 16 0 0 0 42.6 33a30 30 0 0 0-3.9 11.87 2 2 0 0 0 2 2 2.05 2.05 0 0 0 2-2Z" class="e"/><path d="M40.62 44.49a6.7 6.7 0 0 0-7.33-1.17 6.4 6.4 0 0 0-3.39 4.27 16 16 0 0 0 2.15 12.67c1.62 2.47 4.2 4.69 7.34 4.32a2.06 2.06 0 0 0 2-2 2 2 0 0 0-2-2c-2.17.25-3.56-1.6-4.47-3.35a13 13 0 0 1-1.46-4.85 11 11 0 0 1 .12-3 5 5 0 0 1 .8-2.01c-.36.51.53-.42.2-.2a2 2 0 0 1 .94-.4 2.5 2.5 0 0 1 2.28.55c1.9 1.74 4.73-1.08 2.83-2.83Zm55.57 3.66a2.5 2.5 0 0 1 2.2-.45 2 2 0 0 1 .95.41q.18.13-.04-.02l.18.17c.3.32.03 0 .09.08a7.8 7.8 0 0 1 .78 4.98 13 13 0 0 1-1.53 4.7c-.75 1.4-2.3 3.73-4.19 3.46a2.07 2.07 0 0 0-2.46 1.4 2 2 0 0 0 1.4 2.46c5.41.78 8.64-4.2 10.15-8.7 1.25-3.72 1.26-9.42-2.28-11.92a6.7 6.7 0 0 0-8.07.6 2 2 0 0 0 2.83 2.84Z" class="e"/><path d="M86.64 5.86a36 36 0 0 0-33.7-3.05 35.7 35.7 0 0 0-19.42 20.77 38 38 0 0 0-.85 21.35c.6 2.5 4.46 1.44 3.86-1.06-2.4-10.11-.39-21.02 6.54-28.95a33 33 0 0 1 9.8-7.69 32 32 0 0 1 15.6-3.18 30.6 30.6 0 0 1 16.15 5.27c2.14 1.43 4.15-2.03 2.02-3.46m14.58 40.04a38.7 38.7 0 0 0-.33-21.74 34 34 0 0 0-9.17-14.44c-1.88-1.76-4.71 1.07-2.83 2.83a30 30 0 0 1 8.14 12.68 34.7 34.7 0 0 1 .33 19.6c-.64 2.5 3.21 3.57 3.86 1.07M61.21 70.23a12 12 0 0 0 5.64 1.4 9.3 9.3 0 0 0 5.62-1.4 2.2 2.2 0 0 0 .92-1.2 2 2 0 0 0-.2-1.54 2 2 0 0 0-2.74-.72 4 4 0 0 1-.58.37l-.17.08c-.28.15.14-.06.2-.08l-.5.18a5 5 0 0 1-1.22.28l.18-.03-.21.02-.38.03A13 13 0 0 1 66 67.6a2 2 0 0 0-.45-.04c.12-.06.4.06.04 0a9 9 0 0 1-1.23-.29l-.51-.17.2.08-.22-.1-.61-.31a2 2 0 0 0-2.02 3.45Zm4.18-13.12q.34 1.34.56 2.72l-.07-.53a2 2 0 0 1 0 .43l.08-.54-.05.17.2-.47-.06.1.32-.4-.1.09.4-.31-.21.1.48-.2-.37.1.53-.06h-.35l.54.07-.4-.08a1.5 1.5 0 0 0-.8-.03 1.5 1.5 0 0 0-.74.24 2 2 0 0 0-.71 2.73 2 2 0 0 0 1.2.92c.34.05.67.14 1.03.16a3.4 3.4 0 0 0 1.6-.38 2.4 2.4 0 0 0 1.32-1.59 4 4 0 0 0 0-1.65q-.21-1.33-.55-2.65a2 2 0 0 0-2.46-1.4 2 2 0 0 0-1.2.92 2 2 0 0 0-.2 1.54Zm-13.43-8.2c-.48 1.5-.23 4.94 2.6 5.27 3.74.04 4-4.12 2.77-6.1-1-1.61-4.03-2.32-5.37.83m29.98.46c.44 1.5.09 4.93-2.75 5.18-3.74-.08-3.88-4.24-2.59-6.17 1.06-1.59 4.1-2.21 5.34.98M64.3 50.5q.59-.14 1.19-.22l-.54.07a12 12 0 0 1 2.95 0l-.53-.07a12 12 0 0 1 1.82.4 2 2 0 1 0 1.06-3.87 13.6 13.6 0 0 0-7.01-.17 2 2 0 0 0-1.4 2.46 2.04 2.04 0 0 0 2.46 1.4m26.55-1.97.39-.06-.53.07a10 10 0 0 1 2.17-.06 2.2 2.2 0 0 0 1.41-.59 1.5 1.5 0 0 0 .42-.64 1.5 1.5 0 0 0 .17-.77 2 2 0 0 0-.59-1.42l-.4-.31a2 2 0 0 0-1.01-.27 12 12 0 0 0-3.1.19 2.2 2.2 0 0 0-1.2.92 1.5 1.5 0 0 0-.23.74 1.5 1.5 0 0 0 .03.8 2 2 0 0 0 .92 1.2l.48.2a2 2 0 0 0 1.06 0Zm-46.41-4.37a12 12 0 0 0-3.1-.25 1.9 1.9 0 0 0-1.82 1.23 1.5 1.5 0 0 0-.17.77 2 2 0 0 0 .58 1.41 2 2 0 0 0 1.42.59 10 10 0 0 1 1.92.07l-.53-.07q.32.04.63.1a1.5 1.5 0 0 0 .8.04 1.5 1.5 0 0 0 .75-.24 1.5 1.5 0 0 0 .56-.51 1.5 1.5 0 0 0 .36-.68 2 2 0 0 0-.2-1.54 2 2 0 0 0-1.2-.92" class="e"/><path d="M65.4 46.8a5 5 0 0 0-1.39-2.93 7.5 7.5 0 0 0-3.56-1.57 28 28 0 0 0-7.75-.7 21 21 0 0 0-7.7 1.5c-2.43 1.11-3.1 3.36-3.2 5.85a14 14 0 0 0 .83 6.24c.99 2.2 3.15 3.27 5.39 3.84a27 27 0 0 0 7.37.6c2.28-.06 4.81-.02 6.8-1.33 3.7-2.45 3.77-7.56 3.21-11.49a2 2 0 0 0-2.46-1.4 2.05 2.05 0 0 0-1.4 2.46c.26 1.83.34 4.98-.95 6.56a2.5 2.5 0 0 1-1.09.77 7 7 0 0 1-2.41.37 48 48 0 0 1-5.5 0 9.6 9.6 0 0 1-4.72-1.27c-.95-.7-1.05-2.18-1.1-3.28q-.02-1.1.04-2.2a3 3 0 0 1 .36-1.76A3.6 3.6 0 0 1 48 46.3a21 21 0 0 1 2.88-.55 27 27 0 0 1 6.54.03 20 20 0 0 1 3.2.7c.78.25.8.55.92 1.39a2 2 0 0 0 2.46 1.4 2.05 2.05 0 0 0 1.4-2.47m6.86 1.14c.1-.5.07-.94.55-1.19a10 10 0 0 1 2.96-.67 26 26 0 0 1 5.66-.14 17 17 0 0 1 5.7 1.17c1.2.55.97 2.03.97 3.16 0 1.26.03 2.9-.72 3.98s-2.65 1.37-3.87 1.54a29 29 0 0 1-5.61.07c-1.43-.07-3.26.04-4.45-.9.04.04-.39-.4-.4-.43a5 5 0 0 1-.44-.77 8 8 0 0 1-.47-1.82 15 15 0 0 1-.06-2.08 16 16 0 0 1 .18-1.92 2.06 2.06 0 0 0-1.4-2.46 2 2 0 0 0-2.46 1.4c-.58 3.54-.67 7.82 1.94 10.63 1.6 1.72 3.96 2.14 6.2 2.28a38 38 0 0 0 7.23-.03c2.3-.3 4.98-.9 6.53-2.76a10 10 0 0 0 1.79-6.17c.04-2.22.04-4.68-1.7-6.3-1.85-1.72-4.92-2.11-7.31-2.42a30 30 0 0 0-8.56.15 11 11 0 0 0-4.04 1.22 5 5 0 0 0-2.08 3.4 2.06 2.06 0 0 0 1.4 2.46 2 2 0 0 0 2.46-1.4m20.11 12.84A26 26 0 0 1 91 65.1c-.07.18-.75 1.7-.41.95l-.4.85a37 37 0 0 1-3.13 5c-2.74 3.75-6.48 7.81-11.19 8.85-2.51.55-1.45 4.4 1.06 3.85 5.62-1.23 9.97-5.85 13.28-10.27a37 37 0 0 0 3.43-5.41q.23-.47.44-.95c.54-1.23 0-.01.24-.53l.39-.9a29 29 0 0 0 1.53-4.7c.56-2.5-3.3-3.58-3.86-1.06Zm-55.13.13C39.5 71.5 47.27 83.07 58.63 84.96a2.06 2.06 0 0 0 2.45-1.4 2 2 0 0 0-1.4-2.47c-10.06-1.67-16.6-11.9-18.58-21.24-.53-2.52-4.4-1.45-3.86 1.06M54.2 98.26c7.47 3.31 16.7 4.05 24.37.95a2.06 2.06 0 0 0 1.4-2.46 2 2 0 0 0-2.46-1.4 28.5 28.5 0 0 1-12.15 1.69q-.75-.03-1.48-.1-.33-.04-.03 0l-.45-.07q-1.12-.2-2.25-.48a30 30 0 0 1-4.93-1.59 2.06 2.06 0 0 0-2.73.72 2 2 0 0 0 .71 2.73Z" class="e"/></svg>
