<svg xmlns="http://www.w3.org/2000/svg" fill="currentColor" style="fill-rule:evenodd;clip-rule:evenodd;stroke-linejoin:round;stroke-miterlimit:2" viewBox="0 0 64 64"><g transform="translate(-1024 -320)"><path id="Icons" d="M0 0h1280v800H0z" style="fill:none"/><g id="Icons1" transform="translate(128 -.315)"><path d="M942.22 350.04H952V354h-9.78zm-16.21-12.24v-9.78H930v9.78zm-12.23 16.21H904v-3.97h9.78zm16.2 12.24v9.78h-3.97v-9.78zm6.67-25.68 6.92-6.92 2.8 2.8-6.92 6.92zm-20.12 2.8-6.91-6.91 2.82-2.82 6.91 6.91zm2.82 20.11-6.92 6.92-2.8-2.8 6.91-6.92zm20.1-2.8 6.92 6.92-2.8 2.8-6.92-6.9z"/><path d="M928.1 363.95c3.09-.03 6.14-1.3 8.33-3.47a12.1 12.1 0 0 0 3.48-10.02A11.85 11.85 0 0 0 928.03 340a12.3 12.3 0 0 0-10.85 6.93 12 12 0 0 0 0 10.08 12.3 12.3 0 0 0 10.77 6.94zm-.12-3.66a8.6 8.6 0 0 1-8.12-6.8 8.4 8.4 0 0 1 2.41-7.49 8.4 8.4 0 0 1 8.93-1.7 8.5 8.5 0 0 1 5.08 6.62 8.4 8.4 0 0 1-2.31 6.85 8.4 8.4 0 0 1-6 2.52" style="fill-rule:nonzero"/></g></g></svg>
