<svg xmlns="http://www.w3.org/2000/svg" fill="currentColor" viewBox="0 0 32 32"><path d="M16 0a16 16 0 1 0 0 32 16 16 0 0 0 0-32m4 2.6c4.5 1.34 8.05 4.9 9.4 9.4h-6.5c-.7-1.2-1.7-2.2-2.9-2.9zM21.99 16a6 6 0 1 1-11.98.01 6 6 0 0 1 11.98 0M14 2.16a14 14 0 0 1 4 0v6.12a8 8 0 0 0-4 0zm-2 .44v6.5c-1.2.7-2.21 1.7-2.91 2.91H2.6A14 14 0 0 1 12 2.6M2.01 16.01q0-1.03.15-2.01h6.1a8 8 0 0 0 0 4h-6.1a14 14 0 0 1-.15-2M12 29.4A14 14 0 0 1 2.6 20h6.48A8 8 0 0 0 12 22.92zm6 .45a14 14 0 0 1-4 0v-6.12a8 8 0 0 0 4 0zm2-.44v-6.5A8 8 0 0 0 22.92 20h6.48a14 14 0 0 1-9.4 9.4zM23.73 18a8 8 0 0 0 0-4h6.1a14 14 0 0 1 .01 4z"/></svg>
