<svg xmlns="http://www.w3.org/2000/svg" fill="none" viewBox="0 0 24 24"><path stroke="currentColor" stroke-linecap="round" stroke-width="1.5" d="M8 6.5v-2c0-.46 0-.7-.04-.89A2 2 0 0 0 6.4 2.04C6.19 2 5.96 2 5.5 2s-.7 0-.89.04A2 2 0 0 0 3.04 3.6C3 3.81 3 4.04 3 4.5v2c0 .46 0 .7.04.89A2 2 0 0 0 4.6 8.96c.2.04.43.04.89.04s.7 0 .89-.04A2 2 0 0 0 7.96 7.4C8 7.19 8 6.96 8 6.5Zm13 0v-2c0-.46 0-.7-.04-.89a2 2 0 0 0-1.57-1.57C19.19 2 18.96 2 18.5 2s-.7 0-.89.04a2 2 0 0 0-1.57 1.57c-.04.2-.04.43-.04.89v2c0 .46 0 .7.04.89a2 2 0 0 0 1.57 1.57c.2.04.43.04.89.04s.7 0 .89-.04a2 2 0 0 0 1.57-1.57c.04-.2.04-.43.04-.89Zm-13 13v-2c0-.46 0-.7-.04-.89a2 2 0 0 0-1.57-1.57C6.19 15 5.96 15 5.5 15s-.7 0-.89.04a2 2 0 0 0-1.57 1.57c-.04.2-.04.43-.04.89v2c0 .46 0 .7.04.89a2 2 0 0 0 1.57 1.57c.2.04.43.04.89.04s.7 0 .89-.04a2 2 0 0 0 1.57-1.57c.04-.2.04-.43.04-.89Zm13 0v-2c0-.46 0-.7-.04-.89a2 2 0 0 0-1.57-1.57c-.2-.04-.43-.04-.89-.04s-.7 0-.89.04a2 2 0 0 0-1.57 1.57c-.04.2-.04.43-.04.89v2c0 .46 0 .7.04.89a2 2 0 0 0 1.57 1.57c.2.04.43.04.89.04s.7 0 .89-.04a2 2 0 0 0 1.57-1.57c.04-.2.04-.43.04-.89Zm-5-1H8m8-13H8m4 13v-13"/></svg>
