<svg xmlns="http://www.w3.org/2000/svg" fill="none" viewBox="0 0 40 40"><path stroke="currentColor" stroke-width="1.5" d="M9 .75h17.04l8.21 7.54V36c0 1.8-1.46 3.25-3.25 3.25H9A3.25 3.25 0 0 1 5.75 36V4C5.75 2.2 7.21.75 9 .75Z"/><mask id="path-2-inside-1_9067_87971" fill="currentColor"><path d="M25 1h8.5v8.5H26a1 1 0 0 1-1-1z"/></mask><path fill="currentColor" d="M25 1h8.5zm8.5 9.5H26a2 2 0 0 1-2-2h9.5zm-7.5 0a2 2 0 0 1-2-2V1h2zM33.5 1v8.5z" mask="url(#path-2-inside-1_9067_87971)"/><rect width="26" height="13" x="1" y="20" fill="currentColor" rx="2"/><path fill="currentColor" d="M6.62 30.07q-.76 0-1.38-.25-.6-.25-.98-.74a2 2 0 0 1-.38-1.18H5.7a1 1 0 0 0 .27.6q.24.2.6.2.39 0 .6-.17a.6.6 0 0 0 .22-.49.6.6 0 0 0-.18-.43q-.16-.16-.43-.28-.24-.11-.72-.25a8 8 0 0 1-1.1-.42 2 2 0 0 1-.75-.62q-.3-.4-.3-1.07 0-.97.7-1.53a3 3 0 0 1 1.85-.56q1.17 0 1.87.56.72.55.76 1.54H7.24a.7.7 0 0 0-.25-.53 1 1 0 0 0-.59-.2q-.3 0-.5.17-.19.15-.19.47 0 .34.32.53.33.19 1 .41.69.23 1.1.44.44.2.74.61.31.4.31 1.03a2 2 0 0 1-.3 1.09q-.3.5-.89.78-.57.3-1.37.29m10.2-7.09L14.35 30H12.2l-2.5-7.02h1.83l1.74 5.3 1.75-5.3zm5.38 2.22a1.2 1.2 0 0 0-.55-.53 2 2 0 0 0-.83-.19q-.83 0-1.33.55-.5.54-.5 1.45 0 .97.52 1.52.53.54 1.45.54.63 0 1.06-.32t.64-.92h-2.17v-1.26h3.72v1.59q-.19.64-.65 1.19-.45.55-1.15.89t-1.58.34a4 4 0 0 1-1.86-.45q-.8-.45-1.27-1.27a4 4 0 0 1-.45-1.85q0-1.04.45-1.85.46-.82 1.27-1.27t1.85-.46q1.26 0 2.12.61.87.6 1.15 1.69z"/></svg>
