<svg xmlns="http://www.w3.org/2000/svg" viewBox="0 0 1024 1024"><path fill="currentColor" d="M907.7 804.78c-82.32 0-82.32-55.49-164.66-55.49s-82.34 55.5-164.7 55.5c-82.31 0-82.31-55.5-164.64-55.5s-82.32 55.5-164.65 55.5c-82.3 0-82.3-55.5-164.6-55.5V632.04c82.3 0 82.3 55.48 164.6 55.48 82.33 0 82.33-55.48 164.65-55.48s82.33 55.48 164.64 55.48c82.36 0 82.36-55.48 164.7-55.48s82.33 55.48 164.67 55.48"/><path fill="currentColor" d="M907.7 922.04c-82.32 0-82.32-55.47-164.66-55.47s-82.34 55.47-164.7 55.47c-82.31 0-82.31-55.47-164.64-55.47s-82.32 55.47-164.65 55.47c-82.3 0-82.3-55.47-164.6-55.47V749.29c82.3 0 82.3 55.48 164.6 55.48 82.33 0 82.33-55.48 164.65-55.48s82.33 55.48 164.64 55.48c82.36 0 82.36-55.48 164.7-55.48s82.33 55.48 164.67 55.48"/><path d="M256.48 177a16.17 16.17 0 0 0 20.86-9.21 108 108 0 0 1 24.79-37.84 109 109 0 0 1 77.38-31.86c60.34 0 109.44 48.8 109.44 108.78 0 8.86 7.22 16.05 16.14 16.05s16.15-7.17 16.15-16.05C521.24 129.18 457.66 66 379.5 66a141.3 141.3 0 0 0-100.22 41.26 140 140 0 0 0-32.09 49 16.04 16.04 0 0 0 9.28 20.74M907.7 906c-36.2 0-53.38-11.58-73.26-24.97-21.22-14.3-45.28-30.52-91.4-30.52-46.14 0-70.18 16.21-91.4 30.52-9.86 6.64-19.18 12.93-30.47 17.48a16 16 0 0 0-8.87 20.92 16.16 16.16 0 0 0 21.03 8.81c14.45-5.83 25.63-13.36 36.42-20.63 19.9-13.42 37.07-24.98 73.29-24.98s53.38 11.58 73.27 24.98c21.21 14.29 45.27 30.5 91.39 30.5 8.93 0 16.15-7.2 16.15-16.05S916.63 906 907.71 906m-329.35 0c-36.2 0-53.38-11.58-73.27-24.97-21.22-14.3-45.27-30.52-91.38-30.52s-70.17 16.21-91.39 30.52c-19.89 13.4-37.06 24.97-73.26 24.97s-53.35-11.58-73.24-24.97c-21.2-14.3-45.25-30.52-91.35-30.52a16.1 16.1 0 0 0-16.15 16.06 16.1 16.1 0 0 0 16.15 16.05c36.2 0 53.35 11.58 73.24 24.97 21.2 14.3 45.26 30.52 91.36 30.52 46.12 0 70.17-16.23 91.39-30.52 19.89-13.4 37.05-24.97 73.26-24.97s53.37 11.58 73.26 24.97c21.22 14.3 45.27 30.52 91.39 30.52a16.1 16.1 0 0 0 16.14-16.05A16.1 16.1 0 0 0 578.36 906m256.09-259.5c-21.22-14.3-45.28-30.52-91.4-30.52-10.91 0-20.85.88-30.36 2.66a16.07 16.07 0 0 0-12.84 18.76 16.13 16.13 0 0 0 18.86 12.78 130 130 0 0 1 24.34-2.1c36.2 0 53.38 11.57 73.27 24.97 21.21 14.3 45.27 30.5 91.39 30.5a16.1 16.1 0 0 0 16.15-16.05 16.1 16.1 0 0 0-16.15-16.04c-36.2.02-53.38-11.55-73.26-24.96m-750 1.6c36.2 0 53.36 11.58 73.25 24.97 10.8 7.29 21.98 14.82 36.4 20.64a16.16 16.16 0 0 0 21.04-8.81 16.04 16.04 0 0 0-8.86-20.93c-11.29-4.55-20.6-10.84-30.46-17.49-21.2-14.29-45.25-30.51-91.36-30.51A16.1 16.1 0 0 0 68.3 632a16.1 16.1 0 0 0 16.15 16.08"/><path d="M793.46 66a141.3 141.3 0 0 0-100.2 41.25 139.5 139.5 0 0 0-41.52 99.62v125.8H270.07v-115.1c0-8.87-7.22-16.06-16.14-16.06s-16.15 7.2-16.15 16.06V788.3c-28.7-2.16-44.28-12.62-61.96-24.55-21.2-14.3-45.25-30.5-91.36-30.5A16.1 16.1 0 0 0 68.3 749.3a16.1 16.1 0 0 0 16.15 16.04c36.19 0 53.35 11.58 73.24 24.97 21.2 14.3 45.25 30.52 91.35 30.52 46.12 0 70.16-16.21 91.38-30.52 19.9-13.4 37.06-24.97 73.27-24.97s53.38 11.58 73.27 24.97c21.22 14.3 45.27 30.52 91.39 30.52 46.13 0 70.17-16.21 91.4-30.52 19.88-13.4 37.06-24.97 73.28-24.97 36.2 0 53.37 11.58 73.27 24.97 21.2 14.3 45.27 30.52 91.39 30.52a16.1 16.1 0 0 0 16.15-16.06 16.1 16.1 0 0 0-16.15-16.05c-36.2 0-53.38-11.58-73.28-24.97-21.2-14.3-45.27-30.5-91.38-30.5-25.23 0-43.85 4.85-59.02 11.59V206.87a107.8 107.8 0 0 1 32.05-76.92 109 109 0 0 1 77.38-31.86c60.36 0 109.44 48.8 109.44 108.78 0 8.86 7.23 16.05 16.15 16.05s16.15-7.17 16.15-16.05C935.19 129.18 871.62 66 793.46 66M651.74 364.75v132.77h-30.32c-8.9 0-16.13 7.19-16.13 16.05s7.22 16.06 16.13 16.06h30.32V662.4H270.07V529.64h297.54c8.92 0 16.15-7.2 16.15-16.06s-7.23-16.05-16.15-16.05H270.07V364.76zm-.1 399c-19.89 13.4-37.07 24.97-73.28 24.97s-53.38-11.58-73.27-24.97c-21.22-14.3-45.27-30.52-91.38-30.52s-70.17 16.23-91.39 30.52c-15.59 10.5-29.54 19.85-52.25 23.42V694.5h381.66v69.18z"/></svg>
