<svg xmlns="http://www.w3.org/2000/svg" fill="none" viewBox="0 0 24 24"><path fill="currentColor" d="m6.18 10.55.53.53zm7.27 7.27.54.53zM17.74 9l-.53.53zm1.28 1.56.7-.26zm-1.28 2.97L17.2 13zm1.28-1.56.7.25zM15 6.26l.53-.53zm-1.56-1.28-.26.7zm-2.97 1.28.54.53zm1.56-1.28.26.7zm7.45 2.46a.75.75 0 1 0 1.06-1.06zm-1.85-3.97a.75.75 0 1 0-1.06 1.06zm-3.16 3.32 2.75 2.75 1.06-1.06-2.75-2.75zm2.75 6.22-4.29 4.28L14 18.35l4.28-4.28zM6.7 11.08 11 6.79 9.93 5.73l-4.28 4.29zm0 6.2a4.4 4.4 0 0 1 0-6.2l-1.06-1.06a5.9 5.9 0 0 0 0 8.33zm6.21 0a4.4 4.4 0 0 1-6.2 0l-1.07 1.07a5.9 5.9 0 0 0 8.34 0zm4.29-7.74c.38.39.64.64.83.86q.25.3.28.43l1.4-.52a3 3 0 0 0-.55-.89q-.34-.4-.9-.94zm1.06 4.53q.56-.55.9-.95.37-.4.56-.89l-1.41-.51q-.03.13-.28.43l-.83.86zm.05-3.24q.15.44 0 .89l1.4.51a2.8 2.8 0 0 0 0-1.92zm-2.8-5.1q-.54-.55-.94-.9a3 3 0 0 0-.9-.56l-.5 1.41c.09.04.21.1.42.28.22.19.47.45.86.83zM11 6.8q.55-.56.86-.83c.2-.18.33-.24.42-.28l-.51-1.4q-.5.18-.9.55-.39.34-.94.9zm2.69-2.52a2.8 2.8 0 0 0-1.92 0l.51 1.41q.44-.15.9 0zm4.33 1.71 1.45 1.46 1.06-1.06-1.45-1.46zm1.06-1.06-1.46-1.45-1.06 1.06 1.46 1.45z"/><path stroke="currentColor" stroke-linecap="round" stroke-width="1.5" d="M17.1 14.18 9.81 6.91M6.18 17.82 4 20"/><path fill="currentColor" d="M15.83 7.1a.75.75 0 0 0 1.06 1.07zm3.25-1.12A.75.75 0 0 0 18 4.92zm-2.19 2.19 2.19-2.19L18 4.92l-2.18 2.19zm-2.51 8.72a.75.75 0 0 0 1.06-1.06zm-1.83-3.94A.75.75 0 1 0 11.5 14zm.2 5.58a.75.75 0 1 0 1.05-1.06zm-.6-2.7a.75.75 0 0 0-1.05 1.05zm3.29 0-2.89-2.88L11.5 14l2.89 2.88zm-1.64 1.64-1.64-1.65-1.06 1.06 1.64 1.65z"/></svg>
