<svg xmlns="http://www.w3.org/2000/svg" fill="none" viewBox="0 0 20 20"><path stroke="currentColor" stroke-linecap="round" stroke-linejoin="round" stroke-width="1.5" d="M10.4 2.52a2.91 2.91 0 1 1-4.12 4.11 2.91 2.91 0 0 1 4.11-4.11m1.58 8.14A10 10 0 0 0 8.33 10c-3.37 0-6.66 1.64-6.66 4.16V15c0 .46.37.83.83.83h7.84"/><path stroke="currentColor" stroke-linecap="round" stroke-linejoin="round" stroke-width="1.5" d="M14.17 18.33A4.17 4.17 0 0 1 10 14.17 4.23 4.23 0 0 1 14.17 10a4.17 4.17 0 0 1 0 8.33M15.34 13 13 15.34m2.35 0L13 12.99"/></svg>
