<svg xmlns="http://www.w3.org/2000/svg" fill="none" viewBox="0 0 20 20"><path fill="currentColor" d="M17.5 5.6h-.07c-4.4-.43-8.8-.6-13.16-.16l-1.7.17a.63.63 0 0 1-.14-1.25l1.7-.17a68 68 0 0 1 13.43.17c.34.03.59.34.56.68a.6.6 0 0 1-.62.57"/><path fill="currentColor" d="m7.08 4.77-.1-.01a.63.63 0 0 1-.51-.72l.18-1.09c.13-.8.32-1.9 2.26-1.9h2.18c1.95 0 2.13 1.14 2.26 1.9l.18 1.1a.6.6 0 0 1-.5.7.6.6 0 0 1-.72-.5l-.19-1.08c-.11-.73-.14-.87-1.02-.87H8.92c-.89 0-.9.12-1.03.86l-.2 1.08a.6.6 0 0 1-.6.53m5.6 14.19H7.31c-2.9 0-3.02-1.61-3.11-2.91l-.54-8.4A.63.63 0 0 1 4.25 7c.35-.01.64.24.67.59l.54 8.39c.09 1.26.12 1.74 1.86 1.74h5.35c1.75 0 1.79-.48 1.87-1.74l.54-8.4c.03-.34.33-.6.67-.58s.6.32.58.67l-.54 8.39c-.1 1.3-.2 2.9-3.12 2.9"/><path fill="currentColor" d="M11.38 14.38H8.61a.63.63 0 0 1-.63-.63c0-.34.29-.62.63-.62h2.77c.34 0 .63.28.63.62s-.29.63-.63.63m.7-3.34H7.92a.63.63 0 0 1-.63-.62c0-.34.28-.63.63-.63h4.16c.34 0 .63.29.63.63s-.29.62-.63.62"/></svg>
