<svg xmlns="http://www.w3.org/2000/svg" fill="none" viewBox="0 0 24 24"><path stroke="currentColor" stroke-width="2" d="m15.95 4.2-.04-1 3.82-.2m-3.78 1.2 3.78-1.18M15.95 4.2l-.04-1a1.5 1.5 0 0 0-1 .44L9 9.55a2 2 0 0 0 0 2.82l2.54 2.54a2 2 0 0 0 2.82 0L20.28 9c.26-.25.42-.6.44-.96l-1-.07M15.95 4.2l3.77 3.77m0-4.95a1.2 1.2 0 0 1 1.26 1.28l-.26 3.74-1-.07m0-4.95v4.95"/><path fill="currentColor" d="M10 3a1 1 0 0 0-1-1H8a6 6 0 0 0-6 6v8a6 6 0 0 0 6 6h8a6 6 0 0 0 6-6v-1a1 1 0 1 0-2 0v1a4 4 0 0 1-4 4H8a4 4 0 0 1-4-4V8a4 4 0 0 1 4-4h1a1 1 0 0 0 1-1m8 4a1 1 0 1 1-2 0 1 1 0 0 1 2 0"/></svg>
