<svg xmlns="http://www.w3.org/2000/svg" fill="none" viewBox="0 0 24 24"><path stroke="currentColor" stroke-linecap="round" stroke-linejoin="round" stroke-miterlimit="10" stroke-width="1.5" d="M18 18.86h-.76c-.8 0-1.56.31-2.12.87l-1.71 1.69c-.78.77-2.05.77-2.83 0l-1.71-1.69a3 3 0 0 0-2.12-.87H6c-1.66 0-3-1.33-3-2.97V4.97A3 3 0 0 1 6 2h12c1.66 0 3 1.33 3 2.97v10.91a3 3 0 0 1-3 2.98"/><path stroke="currentColor" stroke-linecap="round" stroke-linejoin="round" stroke-width="1.5" d="M12.07 8.95h-.15A1.95 1.95 0 1 1 13.94 7a1.9 1.9 0 0 1-1.87 1.95m-2.82 3.01c-1.33.89-1.33 2.34 0 3.23a5.4 5.4 0 0 0 5.5 0c1.33-.89 1.33-2.34 0-3.23-1.51-1-3.98-1-5.5 0"/></svg>
