<svg xmlns="http://www.w3.org/2000/svg" fill="currentColor" style="fill-rule:evenodd;clip-rule:evenodd;stroke-linejoin:round;stroke-miterlimit:2" viewBox="0 0 64 64"><path id="Icons" d="M-384-320H896v800H-384z" style="fill:none"/><g id="Icons1"><path d="M9.89 30.5a6 6 0 0 0-.03 8.5l10.08 10.1a6 6 0 0 0 8.45.05l19.33-18.87a3 3 0 0 0 .9-2.15v-17.6h-17.2a3 3 0 0 0-2.11.86zm34.74-15.98v11.95a3 3 0 0 1-.92 2.15L26.24 45.6a2.96 2.96 0 0 1-4.16-.03l-8.7-8.7a3 3 0 0 1 .01-4.24l17.58-17.25a3 3 0 0 1 2.1-.86zm-7.91 2.46a5 5 0 0 0-4.27 2.56 5 5 0 0 0-.12 4.35 4.9 4.9 0 0 0 4.89 2.81 5 5 0 0 0 4.3-3.9 4.9 4.9 0 0 0-4.7-5.81zm0 2.52c1.11.01 2.15.85 2.35 1.96q.1.6-.1 1.16a2.44 2.44 0 0 1-2.75 1.53 2.45 2.45 0 0 1-1.8-2.67 2.4 2.4 0 0 1 2.26-1.98z"/><path d="M48.63 13.14v4h3.36v11.94a3 3 0 0 1-.91 2.16L33.59 48.22a2.96 2.96 0 0 1-4.15-.03l-.04-.04-1.01 1a6 6 0 0 1-2.26 1.39l1.17 1.17a6 6 0 0 0 8.45.05L55.08 32.9a3 3 0 0 0 .9-2.15v-17.6z"/></g></svg>
