<svg xmlns="http://www.w3.org/2000/svg" preserveAspectRatio="xMidYMid" viewBox="0 -4.5 256 256"><g id="tape_line"><path id="path-1" fill-rule="evenodd" d="M246 26.43V98c0 20.5-236 123-236 123v-72c0-19.72 219.38-115.35 236-122.57" style="fill:#fcc402"/><path id="path-2" fill-rule="evenodd" d="M128 78C56.03 78 27.95 85.28 17 91.05v-78C27.95 7.28 56.03 0 128 0c115.53 0 117.96 18.76 118 19.94v78C245.96 96.75 243.53 78 128 78m111 77.95v78C228.05 239.72 199.97 247 128 247c-115.53 0-117.96-18.76-118-19.94v-78c.04 1.19 2.47 19.94 118 19.94 71.97 0 100.05-7.28 111-13.05" style="fill:#fce202"/><path id="path-3" fill-rule="evenodd" d="M178 23a4 4 0 0 1-4-4V1.22q4.16.24 8 .53V19a4 4 0 0 1-4 4M132 .01V43a4 4 0 0 1-8 0V.01l4-.01zM82 19a4 4 0 0 1-8 0V1.76q3.84-.3 8-.54zM32 52a4 4 0 0 1-8 0V10.1a95 95 0 0 1 8-2.36zm0 109.26V203a4 4 0 0 1-8 0v-44.1a95 95 0 0 0 8 2.36M78 191a4 4 0 0 1-4-4v-19.76q3.84.3 8 .54V187a4 4 0 0 1-4 4m46 21v-43.01l4 .01 4-.01V212a4 4 0 0 1-8 0m104-5a4 4 0 0 1-4-4v-41.74a95 95 0 0 0 8-2.36V203a4 4 0 0 1-4 4m-50-16a4 4 0 0 1-4-4v-19.22q4.16-.25 8-.54V187a4 4 0 0 1-4 4m50-135a4 4 0 0 1-4-4V7.74c3.08.77 5.72 1.56 8 2.35V52a4 4 0 0 1-4 4" style="fill:#fc9502"/><path id="path-4" fill-rule="evenodd" d="M248 236h-9v-83h9a8 8 0 0 1 8 8v67a8 8 0 0 1-8 8M0 86V19a8 8 0 0 1 8-8h9v83H8a8 8 0 0 1-8-8" style="fill:#a74920"/></g></svg>
