<svg xmlns="http://www.w3.org/2000/svg" fill="none" viewBox="0 0 17 16"><g id="task-checklist"><g id="Group"><path id="Vector" fill="currentColor" d="M12.28 9.89h-3.9A.4.4 0 0 1 8 9.5a.4.4 0 0 1 .39-.39h3.89a.4.4 0 0 1 .39.39.4.4 0 0 1-.4.39"/><path id="Vector_2" fill="currentColor" d="M12.28 7.2h-3.9A.4.4 0 0 1 8 6.8a.4.4 0 0 1 .39-.39h3.89a.4.4 0 0 1 .39.4.4.4 0 0 1-.4.38"/><path id="Vector_3" fill="currentColor" d="M6.52 7.62q-.16 0-.27-.1l-.46-.43a.4.4 0 0 1-.02-.55c.15-.16.4-.17.55-.02l.18.16.52-.56a.4.4 0 0 1 .55-.02c.15.15.16.4.02.55l-.78.85a.4.4 0 0 1-.27.12z"/><path id="Vector_4" fill="currentColor" d="M6.52 10.32q-.16 0-.27-.1L5.8 9.8a.4.4 0 0 1-.02-.55c.15-.16.4-.17.55-.02l.18.17.52-.56a.4.4 0 0 1 .55-.03c.15.15.16.4.02.55l-.78.85a.4.4 0 0 1-.27.12z"/></g><path id="Vector_5" fill="currentColor" stroke="currentColor" stroke-width=".3" d="M12.87 2.9c.5 0 .9.4.9.9v8.4c0 .5-.4.9-.9.9h-8.4a.9.9 0 0 1-.9-.9V3.8c0-.5.4-.9.9-.9zm0-.9h-8.4c-1 0-1.8.8-1.8 1.8v8.4c0 1 .8 1.8 1.8 1.8h8.4c1 0 1.8-.8 1.8-1.8V3.8c0-1-.8-1.8-1.8-1.8Z"/></g></svg>
