<svg xmlns="http://www.w3.org/2000/svg" fill="none" viewBox="0 0 17 16"><g id="task-calendar"><g id="Layer 2"><path id="Vector" fill="currentColor" d="M11.92 13.01h-6.5a1.75 1.75 0 0 1-1.75-1.75V5.67A1.74 1.74 0 0 1 5.4 3.94h6.51a1.74 1.74 0 0 1 1.75 1.73v5.59A1.75 1.75 0 0 1 11.92 13m-6.5-8.37a1.05 1.05 0 0 0-1.06 1.03v5.59a1.05 1.05 0 0 0 1.05 1.06h6.51a1.05 1.05 0 0 0 1.05-1.06V5.67a1.05 1.05 0 0 0-1.05-1.03z"/><path id="Vector_2" fill="currentColor" d="M11.92 13.01h-6.5a1.75 1.75 0 0 1-1.75-1.75V6.83a.35.35 0 0 1 .35-.35h9.3a.35.35 0 0 1 .35.35v4.43A1.75 1.75 0 0 1 11.92 13M4.36 7.18v4.08a1.05 1.05 0 0 0 1.05 1.06h6.51a1.05 1.05 0 0 0 1.05-1.06v-4.1z"/><path id="Vector_3" fill="currentColor" d="M6.1 5.55a.35.35 0 0 1-.34-.34V3.35a.35.35 0 1 1 .7 0V5.2a.35.35 0 0 1-.35.34"/><path id="Vector_4" fill="currentColor" d="M8.67 5.55a.35.35 0 0 1-.35-.34V3.35a.35.35 0 1 1 .7 0V5.2a.35.35 0 0 1-.35.34"/><path id="Vector_5" fill="currentColor" d="M11.23 5.55a.35.35 0 0 1-.35-.34V3.35a.35.35 0 1 1 .7 0V5.2a.35.35 0 0 1-.36.34"/><path id="Vector_6" fill="currentColor" d="M6.34 9.27a.58.58 0 1 0 0-1.16.58.58 0 0 0 0 1.16"/><path id="Vector_7" fill="currentColor" d="M8.67 9.27a.58.58 0 1 0 0-1.16.58.58 0 0 0 0 1.16"/><path id="Vector_8" fill="currentColor" d="M11 9.27a.58.58 0 1 0 0-1.16.58.58 0 0 0 0 1.16"/><path id="Vector_9" fill="currentColor" d="M6.34 11.13a.58.58 0 1 0 0-1.16.58.58 0 0 0 0 1.16"/><path id="Vector_10" fill="currentColor" d="M8.67 11.13a.58.58 0 1 0 0-1.16.58.58 0 0 0 0 1.16"/><path id="Vector_11" fill="currentColor" d="M11 11.13a.58.58 0 1 0 0-1.16.58.58 0 0 0 0 1.16"/></g></g></svg>
