<svg xmlns="http://www.w3.org/2000/svg" fill="none" viewBox="0 0 20 20"><g id="clipboard 1" clip-path="url(#clip0_3752_40864)"><g id="Group"><g id="Group_2"><g id="Group_3"><path id="Vector" fill="currentColor" stroke="currentColor" stroke-width=".4" d="M15.86 2.62h-1.81v-.8c0-.27-.29-.39-.55-.39h-1.4A2.14 2.14 0 0 0 9.98 0c-.95-.03-1.8.54-2.12 1.43H6.48c-.27 0-.53.12-.53.38v.81h-1.8a2 2 0 0 0-2 1.93v13.64c0 1.05.95 1.81 2 1.81h11.7c1.05 0 2-.76 2-1.8V4.54a2 2 0 0 0-2-1.93ZM6.9 2.38h1.31c.23-.03.42-.2.46-.43.14-.61.68-1.05 1.3-1.07.63.02 1.16.46 1.3 1.07a.5.5 0 0 0 .47.43h1.36v1.9H6.9zm10 15.81c0 .52-.52.86-1.04.86H4.14c-.52 0-1.04-.34-1.04-.86V4.55c.04-.55.5-.97 1.04-.98h1.81V4.8a.5.5 0 0 0 .53.45h7.02c.27.01.51-.18.55-.45V3.57h1.8c.55.01 1 .43 1.05.98z"/><path id="Vector_2" fill="currentColor" stroke="currentColor" stroke-width=".4" d="M8.17 10.64a.5.5 0 0 0-.67-.02l-1.52 1.45-.65-.66a.5.5 0 0 0-.66-.03.5.5 0 0 0 0 .7l.97 1q.14.14.34.13.19 0 .33-.14l1.86-1.76a.45.45 0 0 0 0-.67Z"/><path id="Vector_3" fill="currentColor" stroke="currentColor" stroke-width=".4" d="M15 11.67H9.52a.48.48 0 1 0 0 .95H15a.48.48 0 1 0 0-.95Z"/><path id="Vector_4" fill="currentColor" stroke="currentColor" stroke-width=".4" d="M8.17 6.83a.5.5 0 0 0-.67-.02L5.98 8.26l-.65-.66a.5.5 0 0 0-.66-.03.5.5 0 0 0 0 .7l.97 1q.14.14.34.14.19 0 .33-.15L8.17 7.5a.45.45 0 0 0 0-.67Z"/><path id="Vector_5" fill="currentColor" stroke="currentColor" stroke-width=".4" d="M15 7.86H9.52a.48.48 0 1 0 0 .95H15a.48.48 0 1 0 0-.95Z"/><path id="Vector_6" fill="currentColor" stroke="currentColor" stroke-width=".4" d="M8.17 14.45a.5.5 0 0 0-.67-.02l-1.52 1.45-.65-.67a.5.5 0 0 0-.66-.02.5.5 0 0 0 0 .7l.97 1q.14.14.34.13.19 0 .33-.14l1.86-1.76a.45.45 0 0 0 0-.67Z"/><path id="Vector_7" fill="currentColor" stroke="currentColor" stroke-width=".4" d="M15 15.48H9.52a.48.48 0 1 0 0 .95H15a.48.48 0 0 0 0-.95Z"/></g></g></g></g><defs><clipPath id="clip0_3752_40864"><path fill="currentColor" d="M0 0h20v20H0z"/></clipPath></defs></svg>
