<svg viewBox="0 0 20 20" fill="none" xmlns="http://www.w3.org/2000/svg"><path d="M11.2979 1.04132C11.9992 1.04131 12.627 1.04165 13.1865 1.0589C13.2657 1.03986 13.3502 1.03588 13.4355 1.05011C13.4629 1.05469 13.4888 1.06371 13.5146 1.07159C13.8878 1.08902 14.2282 1.11674 14.5371 1.16046C15.4066 1.28354 16.1206 1.54449 16.6816 2.13507C17.2383 2.72112 17.4808 3.45912 17.5957 4.3587C17.7075 5.23431 17.707 6.35271 17.707 7.76202L17.707 12.2376C17.707 13.647 17.7075 14.7653 17.5957 15.6409C17.4808 16.5405 17.2383 17.2785 16.6816 17.8646C16.1206 18.4552 15.4067 18.7171 14.5371 18.8401C13.6991 18.9587 12.6314 18.9583 11.2979 18.9583L8.7002 18.9583C7.36664 18.9583 6.29893 18.9587 5.46094 18.8401C4.59137 18.7171 3.87748 18.4552 3.31641 17.8646C2.75973 17.2785 2.51725 16.5405 2.40234 15.6409C2.2905 14.7653 2.291 13.647 2.29102 12.2376L2.29102 7.76202C2.291 6.35271 2.29051 5.23431 2.40234 4.3587C2.51726 3.45912 2.7597 2.72112 3.31641 2.13507C3.87746 1.54449 4.59142 1.28354 5.46094 1.16046C5.7699 1.11674 6.1102 1.08902 6.4834 1.07159C6.50942 1.06365 6.53591 1.0547 6.56348 1.05011C6.64862 1.03598 6.73256 1.03993 6.81152 1.0589C7.37104 1.04165 7.99883 1.04131 8.7002 1.04132L11.2979 1.04132ZM6.14551 2.34406C5.9637 2.35801 5.79401 2.37537 5.63574 2.39777C4.91714 2.49952 4.51578 2.68785 4.22266 2.9964C3.92539 3.30946 3.74121 3.74499 3.64258 4.51691C3.54203 5.30413 3.54102 6.34284 3.54102 7.80695L3.54102 12.1927C3.54102 13.6568 3.54203 14.6955 3.64258 15.4827C3.7412 16.2547 3.92542 16.6902 4.22266 17.0032C4.51577 17.3118 4.91715 17.5001 5.63574 17.6019C6.37605 17.7066 7.35552 17.7083 8.74902 17.7083L11.249 17.7083C12.6425 17.7083 13.622 17.7066 14.3623 17.6019C15.0809 17.5001 15.4823 17.3118 15.7754 17.0032C16.0726 16.6902 16.2568 16.2547 16.3555 15.4827C16.456 14.6955 16.457 13.6568 16.457 12.1927L16.457 7.80695C16.457 6.34284 16.456 5.30413 16.3555 4.51691C16.2568 3.74499 16.0727 3.30946 15.7754 2.9964C15.4823 2.68785 15.0809 2.49952 14.3623 2.39777C14.2038 2.37533 14.0337 2.35899 13.8516 2.34503C13.7823 2.75898 13.7194 3.12127 13.6318 3.41534C13.5279 3.76456 13.3708 4.09075 13.0684 4.34699C12.7659 4.60316 12.4182 4.70517 12.0566 4.75031C11.7212 4.79215 11.3089 4.79135 10.835 4.79132H9.16309C8.68916 4.79135 8.27686 4.79216 7.94141 4.75031C7.57985 4.70516 7.23217 4.60322 6.92969 4.34699C6.62721 4.09075 6.47018 3.76456 6.36621 3.41534C6.27859 3.12101 6.21488 2.75846 6.14551 2.34406ZM9.99902 12.7083C10.3442 12.7083 10.624 12.9881 10.624 13.3333C10.624 13.6785 10.3442 13.9583 9.99902 13.9583H6.66602C6.32086 13.9583 6.04106 13.6785 6.04102 13.3333C6.04102 12.9881 6.32084 12.7083 6.66602 12.7083H9.99902ZM13.332 8.54132C13.6771 8.54132 13.9569 8.82126 13.957 9.16632C13.957 9.5115 13.6772 9.79132 13.332 9.79132L6.66602 9.79132C6.32084 9.79132 6.04102 9.5115 6.04102 9.16632C6.04115 8.82126 6.32092 8.54132 6.66602 8.54132L13.332 8.54132ZM8.74902 2.29132C8.2512 2.29132 7.80629 2.29314 7.40625 2.29816C7.46386 2.63437 7.50916 2.87316 7.56445 3.0589C7.63102 3.28242 7.69012 3.35389 7.73731 3.39386C7.78449 3.4338 7.86462 3.4802 8.0957 3.50909C8.3446 3.54017 8.67846 3.54132 9.2002 3.54132L10.7979 3.54132C11.3196 3.54132 11.6534 3.54017 11.9023 3.50909C12.1334 3.48022 12.2135 3.43379 12.2607 3.39386C12.3079 3.35387 12.368 3.28258 12.4346 3.0589C12.4899 2.87319 12.5332 2.63427 12.5908 2.29816C12.191 2.29315 11.7464 2.29132 11.249 2.29132L8.74902 2.29132Z" fill="currentColor"/></svg>
