<svg xmlns="http://www.w3.org/2000/svg" fill="none" viewBox="0 0 24 24"><path stroke="currentColor" stroke-linecap="round" stroke-linejoin="round" stroke-width="1.5" d="M10.05 2.53 4.03 6.46a3.2 3.2 0 0 0 0 5.34l6.02 3.93c1.08.71 2.86.71 3.94 0l5.99-3.93a3.2 3.2 0 0 0 0-5.33l-5.99-3.93a3.9 3.9 0 0 0-3.94-.01"/><path stroke="currentColor" stroke-linecap="round" stroke-linejoin="round" stroke-width="1.5" d="m5.63 13.08-.01 4.69c0 1.27.98 2.63 2.18 3.03l3.19 1.06c.55.18 1.46.18 2.02 0l3.19-1.06a3.4 3.4 0 0 0 2.18-3.03v-4.64M21.4 15V9"/></svg>
