<svg xmlns="http://www.w3.org/2000/svg" fill="currentColor" style="fill-rule:evenodd;clip-rule:evenodd;stroke-linejoin:round;stroke-miterlimit:2" viewBox="0 0 1069 1069"><path id="Chip-set" d="M1.4.25h1066.67v1066.67H1.4z" style="fill:none"/><path d="M688.58 148.16H408.63V83.4a31.26 31.26 0 0 0-62.5 0v64.76A197.9 197.9 0 0 0 149.88 331.1H84.55a31.26 31.26 0 0 0 0 62.5h64.76v279.95H84.55a31.26 31.26 0 0 0 0 62.5h65.33A197.9 197.9 0 0 0 346.13 919v64.77a31.26 31.26 0 0 0 62.5 0V919h279.95v64.76a31.26 31.26 0 0 0 62.5 0v-66.88a197.9 197.9 0 0 0 168.5-180.83h65.33a31.26 31.26 0 0 0 0-62.5h-64.76V393.6h64.76a31.26 31.26 0 0 0 0-62.5h-65.33a197.9 197.9 0 0 0-168.5-180.83V83.4a31.26 31.26 0 0 0-62.5 0zm33.65 708.33h-375a135.4 135.4 0 0 1-135.42-135.41v-375a135.4 135.4 0 0 1 135.42-135.42h375a135.4 135.4 0 0 1 135.42 135.42v375a135.4 135.4 0 0 1-135.42 135.41M357.65 533.58v62.5c0 63.28 51.3 114.58 114.58 114.58h125c63.28 0 114.58-51.3 114.58-114.58v-125c0-63.29-51.3-114.58-114.58-114.58h-62.5a31.26 31.26 0 0 0 0 62.5h62.5a52.1 52.1 0 0 1 52.08 52.08v125a52.1 52.1 0 0 1-52.08 52.08h-125a52.1 52.1 0 0 1-52.08-52.08v-62.5a31.26 31.26 0 0 0-62.5 0m385.41-241.4a33.1 33.1 0 0 1 33.08 33.06 33.1 33.1 0 0 1-33.08 33.08A33.1 33.1 0 0 1 710 325.24a33.1 33.1 0 0 1 33.07-33.07"/><path d="M920.15 346.08a197.9 197.9 0 0 0-197.92-197.92h-375a197.9 197.9 0 0 0-197.92 197.92v375a197.9 197.9 0 0 0 197.92 197.91h201.8a198 198 0 0 0 139.95-57.96l173.2-173.2a198 198 0 0 0 57.97-139.96zm-62.5 0v201.8c0 35.91-14.27 70.35-39.66 95.75l-173.2 173.2a135.4 135.4 0 0 1-95.76 39.66h-201.8a135.4 135.4 0 0 1-135.42-135.41v-375a135.4 135.4 0 0 1 135.42-135.42h375a135.4 135.4 0 0 1 135.42 135.42m-500 250c0 63.28 51.3 114.58 114.58 114.58h125c63.28 0 114.58-51.3 114.58-114.58v-125c0-63.29-51.3-114.58-114.58-114.58h-125c-63.28 0-114.58 51.3-114.58 114.58zm62.5 0v-125a52.1 52.1 0 0 1 52.08-52.09h125a52.1 52.1 0 0 1 52.08 52.09v125a52.1 52.1 0 0 1-52.08 52.08h-125a52.1 52.1 0 0 1-52.08-52.08" style="fill-opacity:.5"/></svg>
