<svg xmlns="http://www.w3.org/2000/svg" fill="none" viewBox="0 0 24 24"><path stroke="currentColor" stroke-linecap="round" stroke-linejoin="round" stroke-width="2" d="m14.5 5 .96 2.06q.15.33.25.42.12.1.27.11c.11.01.23-.03.47-.12l1.63-.57c.5-.18.75-.27.92-.2a.5.5 0 0 1 .3.3c.07.16-.02.42-.2.92l-.58 1.63c-.08.24-.12.36-.11.47q.01.15.1.26c.08.09.2.14.42.25l1.56.75c.48.23.72.34.8.5a.5.5 0 0 1 0 .44c-.08.16-.32.27-.8.5l-1.56.75q-.32.13-.41.25a.5.5 0 0 0-.11.26c-.01.11.03.23.11.47l.58 1.63c.18.5.27.76.2.92a.5.5 0 0 1-.3.3c-.17.07-.42-.02-.92-.2l-2.06-.73-.18-.05h-.13q-.07 0-.18.04l-.53.15M14 14a2 2 0 0 0 2-2 2 2 0 0 0-2-2m-7 6a1 1 0 1 1 0 2 1 1 0 0 1 0-2m0 0v-5.5M3 17a4 4 0 1 0 7-2.65V6a3 3 0 0 0-6 0v8.35A4 4 0 0 0 3 17"/></svg>
