<svg xmlns="http://www.w3.org/2000/svg" fill="none" viewBox="0 0 24 24"><path fill="currentColor" d="M9.95 6.25q-.65-.01-1.16.05c-.37.05-.75.19-1.05.52s-.4.72-.45 1.1q-.05.52-.04 1.26v.57a.75.75 0 0 0 1.5 0v-.53c0-.54 0-.88.03-1.13l.05-.22.02-.04.01-.01.15-.04c.2-.03.5-.03.99-.03h1.25v8.5H9.5a.75.75 0 0 0 0 1.5H15a.75.75 0 0 0 0-1.5h-2.25v-8.5H14a8 8 0 0 1 1.14.07h.01l.02.05.05.22c.03.25.03.59.03 1.13v.53a.75.75 0 0 0 1.5 0v-.57q.01-.74-.04-1.27a2 2 0 0 0-.45-1.09c-.3-.33-.68-.47-1.05-.52q-.5-.06-1.16-.05z"/><path fill="currentColor" fill-rule="evenodd" d="M11.94 1.25c-2.3 0-4.11 0-5.53.19a5.7 5.7 0 0 0-3.48 1.5A5.7 5.7 0 0 0 1.44 6.4c-.19 1.42-.19 3.22-.19 5.53v.12c0 2.3 0 4.11.19 5.53a5.7 5.7 0 0 0 1.5 3.48c.89.9 2.03 1.3 3.47 1.49 1.42.19 3.22.19 5.53.19h.12c2.3 0 4.11 0 5.53-.19a5.7 5.7 0 0 0 3.48-1.5 5.7 5.7 0 0 0 1.49-3.47c.19-1.42.19-3.22.19-5.53v-.12c0-2.3 0-4.11-.19-5.53a5.7 5.7 0 0 0-1.5-3.48 5.7 5.7 0 0 0-3.47-1.49c-1.42-.19-3.22-.19-5.53-.19zM4 3.99c.57-.56 1.35-.9 2.62-1.06 1.3-.18 3.01-.18 5.39-.18s4.09 0 5.39.18c1.27.17 2.05.5 2.62 1.06.56.57.9 1.35 1.06 2.62.18 1.3.18 3.01.18 5.39s0 4.09-.18 5.39c-.17 1.27-.5 2.05-1.06 2.62-.57.56-1.35.9-2.62 1.06-1.3.18-3.01.18-5.39.18s-4.09 0-5.39-.18c-1.27-.17-2.05-.5-2.62-1.06-.56-.57-.9-1.35-1.06-2.62-.18-1.3-.18-3.01-.18-5.39s0-4.09.18-5.39c.17-1.27.5-2.05 1.06-2.62" clip-rule="evenodd"/></svg>
