<svg xmlns="http://www.w3.org/2000/svg" viewBox="0 0 1024 1024"><path fill="currentColor" d="M915.82 393.83v41.28l-.02 3.12c-1.65 158.5-130.03 286.47-288.1 286.47H277.1c-78.23 0-141.63-63.74-141.63-142.37v-188.5z"/><path fill="currentColor" d="M701.31 692.16H350.74c-78.23 0-141.65-63.74-141.65-142.37V393.83h-73.61v188.5c0 78.65 63.41 142.39 141.65 142.39H627.7a285.7 285.7 0 0 0 151.59-43.3 287 287 0 0 1-77.98 10.74"/><path fill="currentColor" d="M915.44 326.43H135.86a32.47 32.47 0 0 0-32.39 32.55v2.3a32.47 32.47 0 0 0 32.4 32.55h779.57a32.5 32.5 0 0 0 32.4-32.55v-2.3a32.5 32.5 0 0 0-32.4-32.55"/><path fill="currentColor" d="M222.36 360.13a33.6 33.6 0 0 1 33.53-33.7H137a33.6 33.6 0 0 0-33.53 33.7 33.6 33.6 0 0 0 33.53 33.7h118.89a33.6 33.6 0 0 1-33.53-33.7m-26.7 336.25-45.7 120.24h51.81l124.99-91.91m589.06-330.88v41.28l-.02 3.12H135.49v-44.4zM688.58 716.15l136.6 100.47H877L813.9 650.6l-.16-.44"/><path d="M962.56 360.13c0-26.75-21.64-48.5-48.24-48.5H771.8c-8.13 0-14.72 6.62-14.72 14.79s6.59 14.8 14.72 14.8h142.5c10.37 0 18.8 8.48 18.8 18.9 0 10.43-8.43 18.9-18.8 18.9H137c-10.37 0-18.8-8.47-18.8-18.9s8.42-18.9 18.8-18.9h571.8c8.14 0 14.74-6.63 14.74-14.8s-6.6-14.8-14.74-14.8H176.87v-89.36a34.17 34.17 0 0 1 34.05-34.22 34.2 34.2 0 0 1 34.05 34.22v3.07c0 8.16 6.6 14.8 14.73 14.8s14.72-6.64 14.72-14.8v-3.07c0-35.19-28.48-63.81-63.5-63.81s-63.49 28.62-63.49 63.81v89.37H137c-26.6 0-48.25 21.76-48.25 48.5a48.6 48.6 0 0 0 32 45.66v73.82c0 8.17 6.6 14.8 14.73 14.8 8.12 0 14.72-6.63 14.72-14.8v-70.99h750.9v16.3A286 286 0 0 1 886 517a14.8 14.8 0 0 0 13.95 19.57c6.1 0 11.84-3.86 13.93-10.02a316 316 0 0 0 16.7-101.63v-19.13a48.5 48.5 0 0 0 31.99-45.65m-131.3 294.63a316 316 0 0 0 56.83-71.5 14.85 14.85 0 0 0-5.31-20.23 14.7 14.7 0 0 0-20.14 5.31A286 286 0 0 1 760.87 670.9a282 282 0 0 1-143.32 39.03H282.11c-72.74 0-131.91-59.47-131.91-132.58v-39.52c0-8.17-6.59-14.8-14.72-14.8a14.76 14.76 0 0 0-14.73 14.8v39.51a162.2 162.2 0 0 0 57.33 123.84L136.2 811.35a14.9 14.9 0 0 0 1.63 13.66 14.7 14.7 0 0 0 12.13 6.41h51.81c3.13 0 6.17-1 8.7-2.86l121.09-89.05h286a313 313 0 0 0 67.69-7.46l131.23 96.5a14.6 14.6 0 0 0 8.7 2.86H877a14.7 14.7 0 0 0 12.13-6.4 14.9 14.9 0 0 0 1.62-13.67zm-634.3 147.06h-25.63l31.64-83.23a159.7 159.7 0 0 0 78.73 20.91zm633 0L721.18 721.8a312 312 0 0 0 54.6-25.38A310 310 0 0 0 807.42 675l48.19 126.82z"/></svg>
