<svg xmlns="http://www.w3.org/2000/svg" viewBox="0 -57.05 311.934 311.934"><defs><style>.d{fill:#211715}</style></defs><path d="M153.1 74.38c-19.65 12.48-51.26 37.77-74.56 57.48-19.9 16.82-47.73 36.9-57.5 43.3-3.08 2-9.34 5.42-15.58 9.03a6.24 6.24 0 0 0-2.3 8.33 6.26 6.26 0 0 0 8.5 2.08c5.58-3.27 11.19-6.89 15.49-8.99 10.66-5.21 40.79-17.96 68.04-27.85s66.05-26.18 85.17-36.18c11.7-6.1 90.92-52.43 121.1-70.14 8.26-4.85 9.96-14.9 6.29-23.75a78 78 0 0 0-9.73-16.85c-5.6-7.48-15.28-10.94-23.74-6.42-30.91 16.53-110.02 62.89-121.17 69.96" style="fill:#fff"/><path d="M207.02 59.19c-10.84 5.67-31.88 17.76-42.14 24.33a5.5 5.5 0 0 0-1.88 7.04 97 97 0 0 0 8.3 14.36 5.5 5.5 0 0 0 7.03 1.88c10.97-5.64 31.94-17.84 42.14-24.32a5.4 5.4 0 0 0 1.88-7.04 93 93 0 0 0-8.28-14.37 5.4 5.4 0 0 0-7.05-1.88" style="fill:#95cbeb"/><path d="M2.58 188.12a6.2 6.2 0 0 1 2.89-3.93c6.24-3.61 12.39-7.2 15.57-9.04l6.06 10.5c-4.14 2.38-9.88 5.7-15.45 8.95a6.26 6.26 0 0 1-8.49-2.08 6 6 0 0 1-.58-4.4" style="fill:#b3b3b3"/><path d="M205.81 57.12a657 657 0 0 0-28.96 16.3c-4.35 2.56-8.73 5.13-12.97 7.89a7.9 7.9 0 0 0-3.7 8.16c.44 2.67 2.15 5.3 3.44 7.64a99 99 0 0 0 4.56 7.55c1.79 2.65 3.92 4.94 7.33 5.13 2.73.15 5.13-1.47 7.44-2.7q3.43-1.84 6.82-3.74a715 715 0 0 0 29.18-17.1c2.63-1.63 5.4-3.16 6.16-6.43.9-3.82-1.5-7.45-3.24-10.68a63 63 0 0 0-6.33-10.06 7.9 7.9 0 0 0-9.73-1.97 2.4 2.4 0 0 0-.87 3.28 2.45 2.45 0 0 0 3.29.86c2.42-1.16 3.89 1.2 5.04 2.92a93 93 0 0 1 4.86 8.15 68 68 0 0 1 1.95 3.92 3.6 3.6 0 0 1 .21 2.95 4.3 4.3 0 0 1-1.9 1.76l-2.6 1.61a741 741 0 0 1-26.6 15.61c-3.91 2.2-7.81 4.5-11.85 6.44-2.18 1.04-3.66-.38-4.83-2.11q-2.23-3.32-4.2-6.82a49 49 0 0 1-3.14-6.1 3.7 3.7 0 0 1-.08-2.83 4.7 4.7 0 0 1 2.09-1.86q5.83-3.66 11.78-7.15a632 632 0 0 1 29.27-16.48c2.74-1.43.32-5.58-2.42-4.14" class="d"/><path d="M151.9 72.3c-11.87 7.56-23.1 16.1-34.22 24.7q-18.95 14.7-37.28 30.17-17.59 14.76-36 28.45c-9.15 6.8-18.33 13.9-28.19 19.67-3.7 2.16-7.46 4.24-11.17 6.38-3.12 1.8-5.35 4.85-5 8.6a8.3 8.3 0 0 0 6.45 7.37c4.22.92 7.5-1.61 10.92-3.68a160 160 0 0 1 16.6-8.92 645 645 0 0 1 17.56-7.62c29.12-12.19 59-22.39 88.1-34.64 12.73-5.35 25.43-10.86 37.79-17.02a336 336 0 0 0 16.24-8.87c18.94-10.79 37.77-21.78 56.61-32.76q15.32-8.92 30.61-17.87l13.17-7.71c3.92-2.3 8.44-4.37 11.82-7.43 5.2-4.71 6.8-11.93 5.7-18.67a39 39 0 0 0-4.14-11.05 80 80 0 0 0-6.61-10.72C296.53 4.73 290.39.26 282.8 0c-5.82-.2-10.62 2.79-15.53 5.48a2713 2713 0 0 0-58.86 33.45c-17.1 9.91-34.2 19.85-51.12 30.06zc-2.6 1.66-.2 5.81 2.43 4.15 13.15-8.33 26.75-16.02 40.2-23.87a4218 4218 0 0 1 60.37-34.72q6.41-3.6 12.85-7.16l5.4-2.95c2.33-1.25 4.62-2.52 7.3-2.86 6.76-.84 12.63 3.16 16.43 8.42a80 80 0 0 1 6.7 11 31 31 0 0 1 3.48 10.04c.7 6.12-1.62 11.94-7.01 15.14l-10.8 6.33-27.69 16.2q-29.66 17.32-59.4 34.5c-6.4 3.68-12.8 7.37-19.26 10.96-7.8 4.33-15.92 8.1-24.05 11.76a962 962 0 0 1-40.82 17.25c-14.2 5.64-28.6 10.7-42.83 16.25a931 931 0 0 0-40.5 16.76 144 144 0 0 0-14.83 7.39q-2.7 1.6-5.37 3.23c-1.58.95-3.46 2.55-5.31 2.88a3.6 3.6 0 0 1-4.33-4.04 4.2 4.2 0 0 1 2.35-3q3.03-1.77 6.1-3.48c3-1.7 6.06-3.37 8.96-5.26 3.97-2.59 7.83-5.34 11.7-8.09q17.6-12.55 34.57-26c11.75-9.34 23.1-19.2 34.78-28.65a830 830 0 0 1 36.16-27.87c4.87-3.5 9.79-6.94 14.85-10.16 2.6-1.65.2-5.8-2.42-4.14" class="d"/><path d="m18.97 176.37 6.08 10.52a2.4 2.4 0 1 0 4.14-2.43l-6.07-10.52a2.4 2.4 0 1 0-4.15 2.43M247.73 19.79l26.32 45.59c1.54 2.67 5.7.26 4.14-2.43l-1.37-2.38c-1.54-2.67-5.7-.26-4.14 2.43l1.37 2.38 4.14-2.43-26.32-45.58c-1.54-2.68-5.69-.26-4.14 2.42" class="d"/></svg>
