<svg xmlns="http://www.w3.org/2000/svg" viewBox="-28.99 0 326.767 326.767"><defs><style>.a{fill:#4d4544}.b{fill:#fff}.c{fill:#211715}</style></defs><path d="M259.44 120.25a57 57 0 0 0-2.66-10.63 79 79 0 0 0-63.8-51.79 60 60 0 0 0-23.61 1.14 39.7 39.7 0 0 0-21.5 14.06l-7.5 9.33a34 34 0 0 1-4.11 5.05l28.46 20.51c6.42 8.52 8.9 14.4 12.88 26.57 3.56 10.88 4.34 19.45 8.35 30.1 2.73 7.24 9.86 13.07 18 14.87 15.94 2.35 26.21.56 39.9-11.03 13.48-11.42 18.23-30.86 15.6-48.18" class="a"/><path d="M91.4 53.67c-5.05.64-8.9 1.22-11.5 1.62a5 5 0 0 1-1.72-.02 61 61 0 0 0 1.65 9.7 90 90 0 0 0 3.68 12.4 32 32 0 0 0 5.33 8.8 26 26 0 0 0 9.77 7.34 33 33 0 0 0 16.1 2.43c11.43-.1 19.87-4.94 25.67-13.58l7.5-9.34q.28-.38.59-.74a8 8 0 0 0 1.48-.87 14.4 14.4 0 0 0 4.59-7.06c.98-2.86 1-7.44-.54-9.92a5 5 0 0 0-4.46-2.3s0-.79 0-1.83a20.5 20.5 0 0 0-8.43-1.5c-10.31.8-26.3 2.19-41 3.82q-4.82.54-8.71 1.05m-88.1 67.4a11 11 0 0 1-.9-3.82 10 10 0 0 1 .46-4.19A28.8 28.8 0 0 1 22.07 94.7a7.6 7.6 0 0 1 5.06.22c1.45.7 2.79 3.16 3.2 4.56a5.1 5.1 0 0 1-1.06 4.54c1.25-.55 4.81-1.93 7.18-1.1a5.4 5.4 0 0 1 3.05 2.45 8.6 8.6 0 0 1 .75 5.47c-.27 1.33-.85 2.58-1.25 3.89a6 6 0 0 0-.12 3.89c-3.17 4.72-7.48 11.18-10.4 15.6l-9.47-1.72A23.4 23.4 0 0 1 3.8 121.98a8 8 0 0 1-.5-.9m253.46 89.3q-.37-.65-.77-1.24c-2.44-3.61-6.18-6.68-10.64-7.44-4-.68-8.04.54-11.88 1.73a22 22 0 0 0-3.66 3 25 25 0 0 0-1.69 4.93 5.2 5.2 0 0 1 6.52 2.69 89 89 0 0 1 5.74 16.43 7.3 7.3 0 0 1-2.68 7.23q-2.45 2.1-4.7 3.98c3.93 5.7 7.8 9.1 11 10.82 4.13 2.24 12.9 2.5 17.51-.6 3.46-2.3 4.83-5.92 4.86-9.93s-1.49-12.03-4.7-20.03c-1.43-3.55-2.89-8.08-4.91-11.57M51.4 321.13q1.72.44 3.28.78c11.27 2.6 49.62 7.9 40.5-14.82q-11.39-6.55-22.45-13.65L65.42 295c-8.67-4.43-19.77-5.5-28.32-3a12.6 12.6 0 0 0-7.63 7.4c-1.76 5.77 1.6 11.68 6.45 15.3 4 2.97 10.14 5.07 15.49 6.44" class="b"/><path d="M19.65 130.18c-5.6-1.15-11.45-4.7-14.09-9.96-1.41-2.81-.77-5.95.5-8.66a28 28 0 0 1 4.53-6.96 26 26 0 0 1 6.37-5.15c2.24-1.3 5.26-2.9 7.92-2.66a2.5 2.5 0 0 1 2.16 1.35 5 5 0 0 1 1.06 2.82c-.27 1.81-2.22 3-3.14 4.77a5.3 5.3 0 0 0-.22 3.75c.19.94.56 2-.08 2.76-1.77 2.14-5.66 2.3-8.07 1.57-2.96-.9-4.23 3.73-1.28 4.63a13.6 13.6 0 0 0 10.67-1.23 7.3 7.3 0 0 0 3.61-4.28 11 11 0 0 0-.25-4.85l-.09-.47c-.04-.33.03.11.02.12.22-.41-.3.45-.12.34.14-.08.27-.43.37-.57-.22.3.27-.32.37-.44a14 14 0 0 0 2.48-3.72c1.32-3.23-.19-7.08-2.6-9.43-3.03-2.93-7.6-1.98-11.1-.58a31 31 0 0 0-15.68 13.71c-1.94 3.44-3.36 7.05-2.9 11.05.52 4.52 3.44 8.3 6.87 11.15a26 26 0 0 0 11.41 5.57 2.46 2.46 0 0 0 2.95-1.67 2.4 2.4 0 0 0-1.67-2.96" class="c"/><path d="m30.35 106.14.3-.13-.18.08.22-.09q.5-.2 1.03-.36.65-.21 1.32-.37l.65-.14c.5-.11-.33 0 .24-.04a10 10 0 0 1 1.3-.02c.62.04-.38-.14.19.04q.3.08.6.2c-.4-.17.2.12.28.16.04.02.61.4.3.16a5 5 0 0 1 .52.48l.06.07.18.3a7 7 0 0 1 .63 2.5 7 7 0 0 1-.54 2.9c-.84 2.43-1.77 4.93-.86 7.49a2.46 2.46 0 0 0 2.95 1.68 2.4 2.4 0 0 0 1.68-2.96 4 4 0 0 1 .17-3 29 29 0 0 0 1.21-3.87 10.2 10.2 0 0 0-2-8.4c-3.36-3.78-8.65-2.63-12.68-.81a2.4 2.4 0 0 0-.86 3.28 2.46 2.46 0 0 0 3.28.86Z" class="c"/><path d="M169.36 251.09a89 89 0 0 0 6.93 8.5c2.83 3.1 9.03 5.88 12.8 6.26 5.75.58 10.3-1.77 12.84-3.13 14.8-7.92 23.01-14.07 35.77-25.02a7.3 7.3 0 0 0 2.68-7.23 89 89 0 0 0-5.74-16.43 5.2 5.2 0 0 0-6.51-2.7c-6.78 2.52-13.62 7.45-21.05 8.3-6.81.76-11.43-3.4-15-9.27l-4.57-7.5a257 257 0 0 1-73.38 9.9l-.34-.02-1.71 2.58c-15.69 23.58-29.84 47.26-42.02 72.82a3.45 3.45 0 0 0 1.24 4.37q12.72 8.2 25.87 15.7a3.57 3.57 0 0 0 4.82-1.56c17.22-28.87 33.08-54.58 52.43-77.24 1.07.69 4.25 3.16 5.18 3.96 4.1 9.12 5.32 11.45 9.76 17.7" class="a"/><path d="M28.07 142.98a7.2 7.2 0 0 1-.07-8.04c3.82-5.8 10.6-15.93 13.55-20.32a2.8 2.8 0 0 1 3.56-1.1c3.47 1.83 5.64 3.03 8.6 4.45a14.4 14.4 0 0 0 10.23.48c5.46-1.59 8.62-7.06 12.27-11.42a37.2 37.2 0 0 1 20.74-12.66s.86-.2 2.4-.56c7.85 3 13.31 2.56 21.85 1.38a28.5 28.5 0 0 0 17.4-10.54c12.28 9.53 26.12 23.14 26.12 23.14 6.42 8.53 8.9 14.41 12.88 26.58 3.56 10.87 4.34 19.45 8.35 30.09a22.6 22.6 0 0 0 5.86 8.5c.44 2.35 1.23 4.65 1.9 6.95a77 77 0 0 1 2.72 14.12 7.3 7.3 0 0 1-5.13 7.72 257 257 0 0 1-77.17 11.01 6.36 6.36 0 0 1-6.2-5.2c-4.23-23.31-10.03-43.24-14.6-68.42-4.84 5.57-7.95 9.7-17.26 14.82-11.41 6.28-25.53 5.32-39.27-3.45a48 48 0 0 1-8.02-6.64 7 7 0 0 1-.71-.89" style="fill:#908b8a"/><path d="M157.52 234.59A116 116 0 0 0 166 250.4a85 85 0 0 0 5.3 7.1 32 32 0 0 0 6.3 6.28 23.2 23.2 0 0 0 16.8 4.24c5.58-.9 10.66-4.2 15.47-6.98a194 194 0 0 0 29.18-21.35c2.44-2.1 4.2-5.13 3.87-8.45-.34-3.43-1.7-6.97-2.85-10.2q-.84-2.38-1.82-4.7a20 20 0 0 0-2.44-4.89 7.7 7.7 0 0 0-8-2.53c-3.48 1-6.77 2.99-10.02 4.57a38 38 0 0 1-10.12 3.65 10.7 10.7 0 0 1-7.83-1.54 20 20 0 0 1-5.69-6.44c-1.61-2.62-5.77-.22-4.14 2.43 2.76 4.48 6.55 8.8 11.87 10.1 6.03 1.47 12.21-1.13 17.56-3.69 2.73-1.3 5.4-2.75 8.19-3.9a4.6 4.6 0 0 1 3.01-.58 3.3 3.3 0 0 1 2.12 2.15 79 79 0 0 1 3.57 9.25q.7 2.19 1.28 4.4c.4 1.47.83 2.81.23 4.28a7 7 0 0 1-2.18 2.7 318 318 0 0 1-10.72 8.83 150 150 0 0 1-12.96 9.05q-3.75 2.33-7.6 4.46A70 70 0 0 1 198 262a18 18 0 0 1-8.03 1.52 19 19 0 0 1-6.77-2.01 21 21 0 0 1-6.93-5.53 78 78 0 0 1-5.53-7.09 113 113 0 0 1-9.08-16.72 2.4 2.4 0 0 0-3.29-.86 2.46 2.46 0 0 0-.86 3.28ZM110 214.12a696 696 0 0 0-23.72 38.08q-5.46 9.5-10.54 19.2-2.6 4.99-5.09 10.03-1.14 2.32-2.26 4.66c-.83 1.72-1.39 3.36-.8 5.27a6.5 6.5 0 0 0 2.91 3.5q2.56 1.67 5.15 3.28 4.85 3.05 9.77 6c3.35 2.01 6.7 4.03 10.11 5.93a6.13 6.13 0 0 0 8.53-2.19c2.1-3.18 3.93-6.57 5.9-9.84q2.81-4.68 5.67-9.35 5.88-9.64 12.04-19.1a350 350 0 0 1 28.45-38.47c2.01-2.33-1.37-5.73-3.4-3.4-18.28 21.05-33.08 44.89-47.4 68.72l-2.7 4.5-1.23 2.05a16 16 0 0 1-1.66 2.76c-.61.64-1.07.57-1.78.16l-4.86-2.8q-9.58-5.62-18.93-11.6c-.72-.47-2.2-.97-2.03-2.07a6 6 0 0 1 .61-1.36l1.44-2.96q2.26-4.64 4.63-9.22 4.91-9.53 10.23-18.85a687 687 0 0 1 25.1-40.51c1.72-2.58-2.44-4.99-4.14-2.42" class="c"/><path d="M234.11 205.74c3.54-1.1 7.43-2.43 11.17-1.62a14 14 0 0 1 7.64 4.9c2.1 2.45 3.37 5.58 4.52 8.55 1.35 3.48 2.76 6.95 3.87 10.5a65 65 0 0 1 2.39 10.17 16.4 16.4 0 0 1-.33 7.56c-1.88 5.59-8.68 6.46-13.74 5.86-6.33-.75-10.96-6.03-14.51-11.14a2.46 2.46 0 0 0-3.29-.86 2.4 2.4 0 0 0-.86 3.28c3.81 5.48 8.92 11.54 15.76 13.06 6.58 1.47 14.96.63 19.3-5.12 4.36-5.79 2.64-13.9.98-20.35a118 118 0 0 0-4.21-12.31c-1.37-3.63-2.71-7.42-4.95-10.62a20 20 0 0 0-10.18-7.82c-4.95-1.53-10.06-.16-14.83 1.33-2.94.91-1.69 5.55 1.27 4.62ZM66.63 292.92a44 44 0 0 0-17.46-4.6 42 42 0 0 0-8.62.46 18 18 0 0 0-7.76 2.71c-4.75 3.41-7.17 8.71-5.76 14.51 1.35 5.58 5.79 10.02 10.72 12.66 7.36 3.94 15.9 5.81 24.12 6.99 7.42 1.06 15.01 1.62 22.46.51a22 22 0 0 0 10.04-3.7 11.3 11.3 0 0 0 4.6-9.34c-.03-3.09-4.83-3.1-4.8 0q0 .52-.03 1.06c-.04.69.08-.07-.06.45l-.21.84-.15.44c-.19.6.14-.22-.08.2l-.35.63c-.07.12-.63.88-.25.4a11 11 0 0 1-1.28 1.31c-.33.29-.03.03.04-.02l-.39.28a14 14 0 0 1-1.62.95c-.14.07-1.02.46-.55.27a24 24 0 0 1-4.3 1.27 46 46 0 0 1-9.19.76 91 91 0 0 1-10.13-.63 84 84 0 0 1-4.16-.56q-1.95-.31-3.89-.7a88 88 0 0 1-11.26-2.95c-4.5-1.54-9.06-3.6-12.12-7.38-2.76-3.42-3.98-8.31-1.15-11.98 3.28-4.23 9.1-4.72 14.09-4.7a38.6 38.6 0 0 1 17.08 4c2.75 1.4 5.18-2.75 2.42-4.14M96.31 92.06a41 41 0 0 0-16.18 7.78 42 42 0 0 0-6.76 6.92 63 63 0 0 1-5.45 6.5 12 12 0 0 1-6.87 3.39c-3.2.45-5.77-.53-8.57-1.95q-1.89-.98-3.76-1.98c-1.65-.88-3.28-2.02-5.23-1.82-2.92.3-4.25 2.87-5.72 5.06q-4.52 6.74-9.02 13.5c-1.42 2.15-3.25 4.32-3.97 6.82a9.7 9.7 0 0 0 1.83 8.73 38 38 0 0 0 7.32 6.44 48 48 0 0 0 8.9 5.03 42.4 42.4 0 0 0 19.23 3.88c7.26-.39 13.8-3.08 19.8-7.07 4.96-3.3 8.86-7.46 12.73-11.93 2.01-2.32-1.37-5.73-3.4-3.4-3.04 3.53-6.07 7.09-9.85 9.86a39 39 0 0 1-15.49 7.29c-11.7 2.23-24.2-2.84-32.88-10.54-1.8-1.6-3.9-3.27-3.75-5.9.12-2.2 1.94-4.15 3.11-5.92q4.35-6.56 8.74-13.1l1.63-2.42c.38-.57.73-1.48 1.44-1.6-.23.04-.55-.28.2.2q.59.33 1.2.63l1.83.97q1.85.99 3.71 1.92a17.4 17.4 0 0 0 9.14 2.18 16.7 16.7 0 0 0 8.43-2.7c5.3-3.64 8.27-9.68 12.97-13.96a36 36 0 0 1 15.97-8.18c3-.72 1.73-5.35-1.27-4.63Z" class="c"/><path d="M189.5 173.62c.65 3.3 1.85 6.47 2.67 9.74a73 73 0 0 1 1.62 8.61c.3 2.29.61 4.58-1.21 6.33a6.4 6.4 0 0 1-2.84 1.4q-2.28.7-4.58 1.33a254 254 0 0 1-38.42 7.6q-9.72 1.14-19.5 1.54-4.89.2-9.78.2c-2.2 0-4.85.45-6.4-1.5a6 6 0 0 1-.97-2.82l-.92-4.8q-.85-4.37-1.8-8.73c-1.22-5.71-2.53-11.41-3.84-17.1-3.14-13.6-6.23-27.22-8.6-40.97a2.4 2.4 0 0 0-2.96-1.68 2.46 2.46 0 0 0-1.67 2.95c2.23 12.99 5.1 25.84 8.06 38.67 1.4 6.05 2.8 12.09 4.11 18.15q.99 4.56 1.9 9.13l.92 4.78a14 14 0 0 0 1.25 4.25 8.8 8.8 0 0 0 6.56 4.38 68 68 0 0 0 10.08.02q10.5-.26 20.94-1.38a262 262 0 0 0 40.47-7.55q2.88-.78 5.74-1.63a14 14 0 0 0 4.64-2.02 9.7 9.7 0 0 0 3.88-8.13 63 63 0 0 0-1.63-10.48c-.87-3.9-2.33-7.65-3.1-11.57a2.4 2.4 0 0 0-4.63 1.28ZM81.19 78.02a34.4 34.4 0 0 0 8.5 12.5 30 30 0 0 0 12.8 6.83 39 39 0 0 0 14.35.79c5.02-.54 9.74-1.49 14.21-3.95a33.5 33.5 0 0 0 11.4-10.74c1.74-2.57-2.42-4.97-4.14-2.43a28.5 28.5 0 0 1-8.3 8.21 28 28 0 0 1-11.5 3.92c-8.28 1.02-17.15.62-24-4.8a29 29 0 0 1-8.7-11.61 2.5 2.5 0 0 0-2.94-1.68A2.4 2.4 0 0 0 81.19 78Z" class="c"/><path d="M142.18 95.5a13.87 13.87 0 0 1 21.59 11.05 67 67 0 0 1 9.48 15.8 16 16 0 0 1-5.4 2.58c-4.47 1.2-9.23.63-13.73-.47-7.43-1.82-15.2-5.95-17.49-13.25a14.3 14.3 0 0 1 4.74-15.13q.4-.3.8-.57" class="b"/><path d="M165.86 110.38a16.3 16.3 0 1 0-31.05 2.8c2.56 6.22 8.4 10.06 14.5 12.32 7.93 2.93 17.96 4.13 25.2-1.12a2.47 2.47 0 0 0 .85-3.29 2.4 2.4 0 0 0-3.28-.86c-5.41 3.93-12.24 3.32-18.37 1.64-4.73-1.3-9.72-3.54-12.78-7.53a11.85 11.85 0 0 1-.58-13.6 11.48 11.48 0 0 1 20.87 8.36 2.47 2.47 0 0 0 1.68 2.95 2.4 2.4 0 0 0 2.95-1.67Zm-8.95-54c1.71-5.14 1.38-11.02.98-16.34a48 48 0 0 0-4.61-16.43 37 37 0 0 0-10.89-13.32 45.4 45.4 0 0 0-17.92-8.84 42 42 0 0 0-17.1-.21 2.4 2.4 0 0 0-1.68 2.95 2.45 2.45 0 0 0 2.96 1.68c9.93-1.89 20.4.75 28.9 6.75a34 34 0 0 1 10.73 11.68 45 45 0 0 1 4.7 14.61 56 56 0 0 1 .36 7.8 27 27 0 0 1-1.06 8.39c-.97 2.94 3.66 4.2 4.63 1.28" class="c"/><path d="M147.4 55.22a3.4 3.4 0 0 1 3.08-.55l.53.16q-.27-.11.1.07c.12.07.56.38.22.11q.28.25.53.52c-.41-.39-.1-.16 0 0a8 8 0 0 1 .9 2.95 13 13 0 0 1-.21 4.05 12.3 12.3 0 0 1-3.35 6.35c-1.41 1.38-3.95 2.47-6.05 1.82-2.95-.91-4.22 3.72-1.27 4.63a11 11 0 0 0 8.68-1.44 15 15 0 0 0 5.65-7.2 17.5 17.5 0 0 0 1.36-8.06c-.2-2.6-.9-5.42-3-7.14a8.3 8.3 0 0 0-10.57.33 2.4 2.4 0 0 0 0 3.4 2.45 2.45 0 0 0 3.4 0m-45.5 13.8a45 45 0 0 0-1.46 3.69 4 4 0 0 0-.24 1.47 3 3 0 0 0 .42 1.48 3.5 3.5 0 0 0 1.12 1.1 4 4 0 0 0 1.97.63q.34.02.68 0a2.4 2.4 0 1 0 0-4.8q-.34.02-.68 0l.64.09a2 2 0 0 1-.42-.12l.57.25a2 2 0 0 1-.48-.3l.49.38-.09-.09.38.49-.09-.15.25.57-.04-.17.08.63v-.25l-.08.64a8 8 0 0 1 .55-1.69q.33-.86.69-1.7l-.25.57.13-.3a2 2 0 0 0 .28-.89 2 2 0 0 0-.04-.95 2.4 2.4 0 0 0-1.1-1.44 2.4 2.4 0 0 0-1.85-.24 2.3 2.3 0 0 0-1.43 1.1" class="c"/><path d="M81.93 61.23c2.58-.38 21.62-2.25 21.9-2.28 3.58-.38 23.79-2.7 29.41-3.27a2.9 2.9 0 0 1 2.96 1.64 5.1 5.1 0 0 1-.66 4.55c-3.75 4.92-8.68 8.87-14.25 9.38-5.66.51-10.67-1-14.32-4.18a4.4 4.4 0 0 0-6.31.46c-2 2.42-4.78 4.42-7.89 4.58-5.09.27-8.77-1.01-11.7-6.57a5.3 5.3 0 0 1-.65-2.97 1.7 1.7 0 0 1 1.5-1.34m28.62 32.09-1.08-.08-.54-.06c-.28-.02.34.08-.11-.02q-.52-.1-1.05-.24c-.05-.02-.59-.22-.3-.1s-.24-.13-.29-.16l-.28-.16c.23.16-.24-.2-.25-.2q-.53-.47-1.12-.9a4.4 4.4 0 0 0-2.56-.9 6.6 6.6 0 0 0-3.45 1.41c-.52.34-1.05.7-1.6.99l-.42.22c-.4.2.23-.06-.04.01l-.44.14c-.15.04-.7.12-.07.05a2.46 2.46 0 0 0-2.4 2.4c.05 1.17 1.06 2.55 2.4 2.4a10 10 0 0 0 4.3-1.61q.74-.5 1.5-.96a3 3 0 0 0 .65-.36c-.08.09-.55.2-.16.08.24-.07.36.04-.27.03-.15 0-.52-.06-.15 0q-.36-.17-.13-.04l.26.16c-.2-.11-.18-.15 0 0l.47.41a9 9 0 0 0 2.2 1.38 15 15 0 0 0 4.94.91 2.4 2.4 0 0 0 2.4-2.4 2.46 2.46 0 0 0-2.4-2.4Zm52.1 15.68a69 69 0 0 1 7.56 12.36 122 122 0 0 1 5.52 15.03c1.83 5.88 3.05 11.92 4.57 17.9 1.41 5.55 2.87 11.66 6.3 16.36a29 29 0 0 0 12.92 9.84 32 32 0 0 0 8.34 1.74 62 62 0 0 0 7.55.4 41 41 0 0 0 13.9-2.52 53 53 0 0 0 13.85-8.17 49.3 49.3 0 0 0 16.9-25.05 63 63 0 0 0 1.28-29.8c-2.12-10.92-7.41-21.41-14.12-30.22a81.5 81.5 0 0 0-26.64-22.72c-20.7-10.97-49.84-14.92-68.97 1.3a39 39 0 0 0-5.81 6.24 2.4 2.4 0 0 0 .86 3.29 2.46 2.46 0 0 0 3.28-.86c6.63-8.73 17.42-13.43 28.14-14.42a71.6 71.6 0 0 1 33.97 5.7c20.2 8.5 36.65 25.96 43.16 46.99 5.3 17.14 2.65 38.38-10.25 51.6-6.54 6.7-15.29 12.23-24.7 13.5a54 54 0 0 1-13.94-.23 23 23 0 0 1-12.81-5.99 21 21 0 0 1-4.3-5.45 40 40 0 0 1-2.88-7.74c-1.69-5.6-2.82-11.33-4.28-16.99a152 152 0 0 0-5.34-16.55 71 71 0 0 0-5.89-12.13q-1.87-3-4.03-5.83a2.5 2.5 0 0 0-3.28-.86 2.4 2.4 0 0 0-.86 3.29Z" class="c"/><path d="M99.56 99.77a61 61 0 0 0 15.08 14.12 2.4 2.4 0 0 0 3.28-.86 2.45 2.45 0 0 0-.86-3.28q-1.02-.67-2.02-1.38l-.88-.65-.5-.37-.18-.14q-1.87-1.48-3.62-3.1-1.7-1.59-3.26-3.3-.82-.9-1.6-1.85l-.7-.84-.38-.48c-.29-.37.1.12-.22-.3a2.46 2.46 0 0 0-3.28-.85c-.99.63-1.67 2.21-.86 3.28m29.82-5.61q-.17.45-.36.89l-.04.09-.2.44q-.39.87-.81 1.73-.89 1.78-1.91 3.47-1 1.65-2.12 3.2l-.57.78-.18.23-.18.23q-.64.8-1.3 1.57a2.4 2.4 0 0 0 3.4 3.4 52 52 0 0 0 8.9-14.76 2.4 2.4 0 0 0-1.67-2.95 2.47 2.47 0 0 0-2.96 1.67Z" class="c"/><path d="M117.47 109.13q1.47 5.17 3.13 10.27a2.4 2.4 0 1 0 4.63-1.27q-1.66-5.11-3.13-10.28a2.4 2.4 0 1 0-4.63 1.28" class="c"/><path d="M117.32 107.5a21 21 0 0 0-2.58 7.92l.09.64.24.57a2.44 2.44 0 0 0 3.77.49l4.81-5.12a2.4 2.4 0 0 0-3.39-3.4l-4.82 5.12 4.1 1.7.02-.13-.09.64a19 19 0 0 1 1.28-4.64l-.24.57a19 19 0 0 1 .96-1.94 2.4 2.4 0 0 0-4.15-2.42m28.78-92.95a32 32 0 0 1 8.21 16.51 45 45 0 0 1 .83 14.37c-.3 2.4-2.47 5.29-4.95 5.22-2.06-1.25-6.6-2.04-9.08-1.84-10.31.8-26.3 2.18-41 3.81a481 481 0 0 0-20.22 2.67c-2.3.35-3.69-.66-4.05-2.63a41 41 0 0 1-.46-3.77c-.84-10.05-.32-17.41 1.9-22.83 3.23-7.85 6.69-12.27 13.27-16.88a39 39 0 0 1 16.23-6.29 53 53 0 0 1 18.16-.13 36 36 0 0 1 21.16 11.8" class="c"/><path d="M144.68 15.97a32.3 32.3 0 0 1 7.61 15.2 47 47 0 0 1 1.1 11.02 10.5 10.5 0 0 1-.65 4.3c-.48.99-1.37 2.13-2.56 2.16l1.01.27c-4.65-2.68-10.15-2.12-15.25-1.7q-9.65.8-19.3 1.7A946 946 0 0 0 80 53.27c-.63.09-1.48.3-1.93-.25-.67-.82-.55-2.7-.64-3.68a93 93 0 0 1-.4-9.96 36 36 0 0 1 3.1-14.84 33 33 0 0 1 9.44-12.15 38 38 0 0 1 17.03-7.44c7.47-1.34 15.42-1.38 22.71.91a35 35 0 0 1 15.38 10.12c1.73 1.91 4.55-.93 2.83-2.83a38.7 38.7 0 0 0-18.72-11.6 54 54 0 0 0-26.44.22C87.92 5.38 75.92 17.1 73.62 32.06a62 62 0 0 0-.56 11.73c.1 2.3.23 4.59.5 6.87.2 1.78.33 3.68 1.6 5.08 2.2 2.45 5.64 1.41 8.47 1q5.14-.76 10.3-1.4c9.05-1.1 18.13-2 27.22-2.83q6.26-.58 12.53-1.1c3.34-.28 6.85-.9 10.2-.51a17 17 0 0 1 4.55 1.09 4.4 4.4 0 0 0 2.4.61 6 6 0 0 0 2.64-.98c3.7-2.54 3.99-6.96 3.93-11.06-.1-7.95-1.89-16.48-6.46-23.1a45 45 0 0 0-3.42-4.32c-1.72-1.93-4.54.9-2.84 2.82" class="c"/></svg>
