<svg viewBox="-28.99 0 326.767 326.767" xmlns="http://www.w3.org/2000/svg"><defs><style>.a{fill:#4d4544;}.b{fill:#ffffff;}.c{fill:#211715;}.d{fill:#908b8a;}</style></defs><path class="a" d="M259.442,120.252a57.085,57.085,0,0,0-2.664-10.627,79,79,0,0,0-63.8-51.794,59.675,59.675,0,0,0-23.61,1.142,39.684,39.684,0,0,0-21.5,14.054l-7.491,9.335a33.626,33.626,0,0,1-4.122,5.047l28.462,20.511c6.423,8.524,8.9,14.407,12.881,26.572,3.563,10.876,4.341,19.451,8.354,30.092,2.732,7.245,9.861,13.076,18,14.876,15.933,2.352,26.21.555,39.893-11.03C257.335,157.01,262.084,137.567,259.442,120.252Z"/><path class="b" d="M91.4,53.665c-5.052.649-8.909,1.227-11.507,1.623a4.781,4.781,0,0,1-1.708-.015,61.358,61.358,0,0,0,1.649,9.7,89.5,89.5,0,0,0,3.671,12.4,31.606,31.606,0,0,0,5.335,8.8,26.154,26.154,0,0,0,9.774,7.341,32.77,32.77,0,0,0,16.1,2.426c11.43-.1,19.866-4.94,25.669-13.58l7.491-9.335c.192-.255.386-.507.591-.742a7.886,7.886,0,0,0,1.489-.875,14.416,14.416,0,0,0,4.583-7.063c.984-2.853,1-7.437-.536-9.911a4.973,4.973,0,0,0-4.462-2.3s0-.792.006-1.833a20.516,20.516,0,0,0-8.437-1.5c-10.309.8-26.3,2.185-41,3.816Q95.287,53.157,91.4,53.665Z"/><path class="b" d="M3.308,121.073a10.59,10.59,0,0,1-.9-3.818,10.306,10.306,0,0,1,.454-4.193A28.824,28.824,0,0,1,22.072,94.7a7.627,7.627,0,0,1,5.053.223c1.456.691,2.791,3.158,3.2,4.554a5.082,5.082,0,0,1-1.053,4.545c1.243-.556,4.812-1.931,7.175-1.107a5.425,5.425,0,0,1,3.053,2.453,8.563,8.563,0,0,1,.749,5.469c-.27,1.337-.849,2.584-1.248,3.892a6.181,6.181,0,0,0-.126,3.887c-3.166,4.727-7.478,11.184-10.393,15.6L19.009,132.5A23.428,23.428,0,0,1,3.8,121.982,8.3,8.3,0,0,1,3.308,121.073Z"/><path class="b" d="M256.759,210.366c-.249-.43-.506-.846-.773-1.241-2.436-3.61-6.176-6.674-10.639-7.432-4-.679-8.036.533-11.873,1.729a22.424,22.424,0,0,0-3.66,3,24.666,24.666,0,0,0-1.691,4.926,5.209,5.209,0,0,1,6.515,2.69,88.706,88.706,0,0,1,5.741,16.433,7.326,7.326,0,0,1-2.682,7.233c-1.632,1.4-3.189,2.721-4.7,3.978,3.931,5.7,7.8,9.093,11,10.821,4.135,2.234,12.9,2.489,17.515-.6,3.458-2.31,4.831-5.925,4.862-9.932s-1.49-12.028-4.7-20.033C260.244,218.389,258.782,213.864,256.759,210.366Z"/><path class="b" d="M51.408,321.127c1.142.293,2.247.553,3.286.781,11.27,2.61,49.616,7.9,40.49-14.814Q83.8,300.538,72.738,293.443c-3.707.782-7.316,1.549-7.316,1.549-8.674-4.436-19.769-5.51-28.318-3a12.583,12.583,0,0,0-7.635,7.393c-1.761,5.78,1.608,11.681,6.451,15.3C39.911,317.661,46.064,319.756,51.408,321.127Z"/><path class="c" d="M19.647,130.183c-5.6-1.148-11.448-4.695-14.085-9.958-1.412-2.817-.775-5.952.491-8.666a27.878,27.878,0,0,1,4.54-6.954,26.221,26.221,0,0,1,6.367-5.16c2.238-1.288,5.263-2.9,7.919-2.656a2.521,2.521,0,0,1,2.166,1.354,5.039,5.039,0,0,1,1.059,2.816c-.273,1.814-2.222,3.006-3.142,4.773a5.319,5.319,0,0,0-.222,3.749c.19.943.555,2-.076,2.761-1.771,2.138-5.661,2.3-8.073,1.565-2.962-.9-4.229,3.732-1.276,4.629a13.56,13.56,0,0,0,10.666-1.229,7.278,7.278,0,0,0,3.611-4.275,11.117,11.117,0,0,0-.249-4.851c-.031-.157-.068-.313-.09-.471-.045-.326.025.115.021.123.215-.416-.3.447-.126.342.139-.087.271-.439.372-.579-.225.313.269-.311.37-.431a14.318,14.318,0,0,0,2.477-3.728c1.318-3.23-.185-7.081-2.6-9.422-3.028-2.936-7.595-1.987-11.1-.582a30.859,30.859,0,0,0-15.68,13.709c-1.933,3.435-3.358,7.044-2.9,11.046.522,4.518,3.447,8.306,6.871,11.149a26.1,26.1,0,0,0,11.413,5.574,2.46,2.46,0,0,0,2.952-1.676,2.424,2.424,0,0,0-1.676-2.952Z"/><path class="c" d="M30.354,106.143a1.35,1.35,0,0,0,.3-.134c-.372.156-.434.183-.189.082l.221-.087q.512-.2,1.033-.366c.434-.14.874-.266,1.319-.369.215-.05.434-.087.65-.135.509-.115-.324,0,.244-.039a10.321,10.321,0,0,1,1.3-.023c.613.034-.386-.139.183.04.205.064.405.112.605.193-.4-.16.2.123.28.166.04.023.614.393.3.161a5.282,5.282,0,0,1,.52.483c.187.214.207.234.062.061a2.911,2.911,0,0,1,.18.3,6.776,6.776,0,0,1,.631,2.5,7.219,7.219,0,0,1-.547,2.905c-.833,2.428-1.769,4.924-.859,7.488a2.462,2.462,0,0,0,2.952,1.677,2.422,2.422,0,0,0,1.677-2.953,4.086,4.086,0,0,1,.178-3,29.264,29.264,0,0,0,1.206-3.876,10.156,10.156,0,0,0-2.008-8.4c-3.348-3.774-8.644-2.625-12.67-.81a2.418,2.418,0,0,0-.861,3.284,2.458,2.458,0,0,0,3.284.861Z"/><path class="a" d="M169.363,251.085a88.511,88.511,0,0,0,6.924,8.5c2.831,3.1,9.035,5.885,12.8,6.264,5.751.58,10.3-1.772,12.843-3.133,14.8-7.917,23.013-14.07,35.771-25.012a7.326,7.326,0,0,0,2.682-7.233,88.706,88.706,0,0,0-5.741-16.433,5.209,5.209,0,0,0-6.515-2.69c-6.782,2.514-13.613,7.44-21.052,8.283-6.808.771-11.43-3.4-14.992-9.258,0,0-1.8-2.95-4.573-7.511a257.243,257.243,0,0,1-73.38,9.9c-.114,0-.227,0-.339-.013l-1.716,2.578c-15.684,23.578-29.836,47.267-42.015,72.82a3.448,3.448,0,0,0,1.244,4.37q12.714,8.209,25.865,15.712a3.567,3.567,0,0,0,4.823-1.565c17.216-28.875,33.077-54.582,52.431-77.249,1.071.695,4.243,3.164,5.174,3.96C163.7,242.5,164.923,244.83,169.363,251.085Z"/><path class="d" d="M28.069,142.983A7.22,7.22,0,0,1,28,134.942c3.816-5.8,10.6-15.93,13.549-20.324a2.816,2.816,0,0,1,3.56-1.1c3.469,1.829,5.637,3.031,8.595,4.454a14.415,14.415,0,0,0,10.234.479c5.46-1.589,8.621-7.062,12.275-11.419A37.186,37.186,0,0,1,96.945,94.374s.861-.2,2.407-.567c7.849,3,13.308,2.559,21.853,1.388a28.525,28.525,0,0,0,17.4-10.549c12.271,9.534,26.112,23.147,26.112,23.147,6.423,8.524,8.9,14.407,12.881,26.572,3.563,10.876,4.341,19.45,8.354,30.092a22.563,22.563,0,0,0,5.86,8.508c.441,2.343,1.231,4.643,1.907,6.944a77.406,77.406,0,0,1,2.712,14.12,7.265,7.265,0,0,1-5.131,7.719,257.2,257.2,0,0,1-77.174,11.015,6.357,6.357,0,0,1-6.188-5.2c-4.242-23.313-10.035-43.247-14.6-68.424-4.852,5.568-7.956,9.7-17.27,14.825-11.409,6.275-25.525,5.321-39.269-3.457a47.842,47.842,0,0,1-8.016-6.638A7.146,7.146,0,0,1,28.069,142.983Z"/><path class="c" d="M157.521,234.588A116.262,116.262,0,0,0,166,250.413a85.137,85.137,0,0,0,5.308,7.1,32.106,32.106,0,0,0,6.288,6.279,23.211,23.211,0,0,0,16.8,4.234c5.579-.9,10.668-4.189,15.472-6.977A194.082,194.082,0,0,0,239.051,239.7c2.439-2.105,4.192-5.128,3.867-8.448-.337-3.433-1.695-6.97-2.843-10.2q-.844-2.378-1.822-4.7a19.858,19.858,0,0,0-2.445-4.892,7.658,7.658,0,0,0-7.991-2.527c-3.484,1-6.782,2.987-10.026,4.564a37.939,37.939,0,0,1-10.123,3.652,10.708,10.708,0,0,1-7.825-1.542,19.789,19.789,0,0,1-5.692-6.435c-1.615-2.626-5.769-.218-4.144,2.423,2.759,4.485,6.551,8.8,11.874,10.1,6.03,1.473,12.21-1.124,17.561-3.683,2.725-1.3,5.392-2.752,8.188-3.9a4.642,4.642,0,0,1,3.01-.577,3.3,3.3,0,0,1,2.118,2.141,78.593,78.593,0,0,1,3.568,9.257q.7,2.185,1.287,4.4c.388,1.468.828,2.808.224,4.282a7.342,7.342,0,0,1-2.18,2.693c-1.312,1.134-2.64,2.251-3.97,3.363-2.221,1.858-4.465,3.69-6.749,5.47a150.258,150.258,0,0,1-12.961,9.045q-3.743,2.329-7.6,4.466a70.208,70.208,0,0,1-6.371,3.344,18.08,18.08,0,0,1-8.025,1.527,18.785,18.785,0,0,1-6.772-2.015,21.343,21.343,0,0,1-6.93-5.525,77.718,77.718,0,0,1-5.53-7.09,112.7,112.7,0,0,1-9.083-16.725,2.42,2.42,0,0,0-3.284-.861,2.456,2.456,0,0,0-.861,3.284Z"/><path class="c" d="M110,214.116c-8.282,12.457-16.259,25.12-23.721,38.086q-5.462,9.492-10.538,19.2-2.6,4.985-5.087,10.028-1.145,2.323-2.263,4.657c-.827,1.726-1.387,3.362-.8,5.274a6.506,6.506,0,0,0,2.909,3.5c1.7,1.121,3.426,2.195,5.148,3.277q4.855,3.054,9.774,6.006c3.346,2.008,6.7,4.024,10.108,5.922a6.125,6.125,0,0,0,8.532-2.184c2.092-3.184,3.924-6.573,5.889-9.838q2.822-4.687,5.677-9.356c3.932-6.417,7.927-12.8,12.041-19.1a349.848,349.848,0,0,1,28.448-38.471c2.017-2.322-1.364-5.731-3.394-3.394-18.285,21.045-33.082,44.886-47.409,68.714q-1.353,2.252-2.7,4.5-.613,1.026-1.226,2.052a16.091,16.091,0,0,1-1.662,2.759c-.606.643-1.065.575-1.772.166-1.62-.936-3.244-1.865-4.859-2.811q-9.585-5.608-18.939-11.6c-.719-.461-2.187-.965-2.026-2.064a5.585,5.585,0,0,1,.61-1.355q.714-1.485,1.438-2.966,2.266-4.635,4.632-9.219,4.915-9.531,10.228-18.85c7.859-13.812,16.311-27.277,25.107-40.509,1.715-2.58-2.44-4.986-4.144-2.423Z"/><path class="c" d="M234.112,205.736c3.534-1.1,7.431-2.425,11.166-1.617a14.142,14.142,0,0,1,7.646,4.9c2.1,2.447,3.365,5.584,4.516,8.556,1.346,3.475,2.762,6.942,3.874,10.5a64.7,64.7,0,0,1,2.384,10.165,16.427,16.427,0,0,1-.332,7.558c-1.874,5.589-8.675,6.459-13.735,5.862-6.327-.748-10.962-6.034-14.515-11.141a2.462,2.462,0,0,0-3.283-.861,2.42,2.42,0,0,0-.861,3.283c3.81,5.478,8.914,11.539,15.753,13.062,6.588,1.467,14.961.628,19.3-5.123,4.369-5.79,2.64-13.9.98-20.348a118.357,118.357,0,0,0-4.207-12.313c-1.369-3.627-2.713-7.417-4.953-10.616a19.869,19.869,0,0,0-10.177-7.822c-4.944-1.53-10.062-.159-14.833,1.324-2.94.915-1.685,5.55,1.276,4.629Z"/><path class="c" d="M66.633,292.919a44.094,44.094,0,0,0-17.467-4.593,41.668,41.668,0,0,0-8.621.454,17.645,17.645,0,0,0-7.759,2.714C28.042,294.9,25.616,300.2,27.025,306c1.358,5.584,5.791,10.023,10.73,12.663,7.355,3.933,15.9,5.809,24.115,6.983,7.418,1.06,15.012,1.627,22.458.514a21.966,21.966,0,0,0,10.047-3.7,11.3,11.3,0,0,0,4.6-9.342c-.031-3.087-4.831-3.095-4.8,0,0,.355-.01.705-.031,1.06-.041.691.075-.073-.065.454-.073.278-.124.561-.209.838-.045.149-.1.3-.149.444-.19.588.136-.226-.083.189-.114.215-.223.43-.349.638-.07.117-.632.881-.247.4a10.736,10.736,0,0,1-1.285,1.309c-.327.286-.024.027.043-.024-.127.1-.256.191-.388.279-.242.164-.486.324-.738.473-.287.17-.581.329-.879.479-.142.071-1.02.464-.559.272a23.485,23.485,0,0,1-4.29,1.27,45.622,45.622,0,0,1-9.191.764,90.869,90.869,0,0,1-10.137-.63c-1.67-.191-2.421-.293-4.158-.568q-1.95-.309-3.886-.691a88.061,88.061,0,0,1-11.267-2.959c-4.506-1.538-9.053-3.6-12.116-7.38-2.761-3.411-3.981-8.306-1.149-11.971,3.276-4.239,9.1-4.723,14.084-4.7a38.561,38.561,0,0,1,17.083,4c2.751,1.387,5.184-2.753,2.422-4.145Z"/><path class="c" d="M96.307,92.06a41.3,41.3,0,0,0-16.174,7.777,42.275,42.275,0,0,0-6.766,6.921,62.5,62.5,0,0,1-5.443,6.5,12.066,12.066,0,0,1-6.872,3.391c-3.206.453-5.77-.525-8.571-1.954-1.263-.645-2.514-1.312-3.766-1.977-1.647-.875-3.278-2.02-5.223-1.818-2.925.3-4.253,2.868-5.721,5.058q-4.523,6.746-9.017,13.509c-1.421,2.14-3.255,4.316-3.974,6.816a9.7,9.7,0,0,0,1.829,8.728,37.833,37.833,0,0,0,7.318,6.436,48.2,48.2,0,0,0,8.9,5.03,42.417,42.417,0,0,0,19.237,3.883c7.254-.388,13.79-3.079,19.792-7.067,4.962-3.3,8.861-7.459,12.732-11.93,2.014-2.325-1.367-5.734-3.394-3.394-3.049,3.521-6.079,7.078-9.857,9.852a38.668,38.668,0,0,1-15.484,7.289c-11.7,2.225-24.195-2.837-32.883-10.543-1.792-1.589-3.893-3.27-3.748-5.9.121-2.2,1.939-4.15,3.108-5.913q4.353-6.566,8.741-13.106.811-1.212,1.624-2.422c.382-.569.738-1.475,1.442-1.59-.225.036-.55-.287.2.185.38.24.811.429,1.209.641q.913.485,1.828.971c1.23.652,2.462,1.3,3.708,1.919a17.405,17.405,0,0,0,9.14,2.175,16.713,16.713,0,0,0,8.431-2.689c5.288-3.647,8.265-9.686,12.969-13.973a35.916,35.916,0,0,1,15.969-8.172c3-.727,1.731-5.357-1.276-4.629Z"/><path class="c" d="M189.5,173.616c.652,3.307,1.848,6.473,2.665,9.74a73.292,73.292,0,0,1,1.629,8.617c.289,2.286.611,4.578-1.217,6.325a6.432,6.432,0,0,1-2.833,1.411q-2.286.682-4.584,1.323a253.466,253.466,0,0,1-38.421,7.595q-9.716,1.14-19.5,1.54-4.886.2-9.778.21c-2.2,0-4.852.443-6.395-1.514a5.992,5.992,0,0,1-.98-2.816q-.442-2.4-.912-4.79-.858-4.375-1.8-8.734c-1.225-5.716-2.533-11.414-3.847-17.11-3.138-13.6-6.226-27.209-8.6-40.968a2.419,2.419,0,0,0-2.952-1.676,2.455,2.455,0,0,0-1.677,2.952c2.237,12.984,5.105,25.837,8.067,38.672,1.394,6.042,2.793,12.083,4.105,18.144q.987,4.56,1.9,9.134.472,2.385.919,4.774a13.454,13.454,0,0,0,1.255,4.256,8.792,8.792,0,0,0,6.56,4.374,68.316,68.316,0,0,0,10.076.025q10.494-.26,20.944-1.38a261.673,261.673,0,0,0,40.464-7.554q2.879-.779,5.739-1.625a13.91,13.91,0,0,0,4.639-2.019,9.71,9.71,0,0,0,3.882-8.134,62.5,62.5,0,0,0-1.627-10.474c-.87-3.9-2.326-7.654-3.1-11.574a2.4,2.4,0,0,0-4.628,1.276Z"/><path class="c" d="M81.187,78.012a34.411,34.411,0,0,0,8.5,12.5,29.922,29.922,0,0,0,12.8,6.837,39.044,39.044,0,0,0,14.349.79c5.025-.54,9.748-1.486,14.219-3.948A33.536,33.536,0,0,0,142.45,83.446c1.74-2.562-2.418-4.967-4.145-2.423a28.51,28.51,0,0,1-8.286,8.211,27.552,27.552,0,0,1-11.5,3.913c-8.287,1.021-17.162.626-24-4.789a28.8,28.8,0,0,1-8.7-11.622,2.477,2.477,0,0,0-2.953-1.677,2.417,2.417,0,0,0-1.676,2.953Z"/><path class="b" d="M142.179,95.507a13.874,13.874,0,0,1,21.591,11.046,66.453,66.453,0,0,1,9.477,15.788,16.128,16.128,0,0,1-5.4,2.59c-4.471,1.19-9.23.633-13.732-.471-7.429-1.823-15.2-5.95-17.484-13.25a14.278,14.278,0,0,1,4.738-15.126Q141.765,95.78,142.179,95.507Z"/><path class="c" d="M165.856,110.379a16.291,16.291,0,1,0-31.044,2.8c2.558,6.22,8.39,10.064,14.492,12.32,7.936,2.934,17.963,4.134,25.2-1.123a2.47,2.47,0,0,0,.861-3.283,2.419,2.419,0,0,0-3.284-.861c-5.415,3.931-12.238,3.322-18.375,1.641-4.728-1.3-9.717-3.538-12.778-7.531a11.845,11.845,0,0,1-.579-13.609,11.483,11.483,0,0,1,20.874,8.369,2.467,2.467,0,0,0,1.676,2.953,2.423,2.423,0,0,0,2.953-1.677Z"/><path class="c" d="M156.913,56.375c1.707-5.13,1.376-11.014.979-16.332a48.354,48.354,0,0,0-4.613-16.434A36.84,36.84,0,0,0,142.39,10.29a45.408,45.408,0,0,0-17.921-8.838,41.952,41.952,0,0,0-17.1-.212,2.422,2.422,0,0,0-1.676,2.952,2.451,2.451,0,0,0,2.953,1.676c9.935-1.884,20.4.756,28.9,6.748A34.205,34.205,0,0,1,148.277,24.3a44.8,44.8,0,0,1,4.708,14.611,56.209,56.209,0,0,1,.355,7.805,27.006,27.006,0,0,1-1.056,8.383c-.977,2.938,3.657,4.2,4.629,1.276Z"/><path class="c" d="M147.4,55.216a3.4,3.4,0,0,1,3.084-.551,5.373,5.373,0,0,1,.523.165c-.182-.076-.149-.053.1.067.124.07.562.388.228.113.193.159.346.351.527.521-.412-.386-.1-.162-.006.005a7.513,7.513,0,0,1,.907,2.941,12.945,12.945,0,0,1-.213,4.053,12.309,12.309,0,0,1-3.354,6.35c-1.406,1.375-3.946,2.473-6.042,1.823-2.958-.916-4.222,3.716-1.276,4.629a11.142,11.142,0,0,0,8.682-1.441,14.823,14.823,0,0,0,5.65-7.206,17.465,17.465,0,0,0,1.365-8.054c-.2-2.6-.9-5.418-3.006-7.142A8.313,8.313,0,0,0,144,51.822a2.421,2.421,0,0,0,0,3.394,2.447,2.447,0,0,0,3.394,0Z"/><path class="c" d="M101.894,69.025c-.524,1.211-1.034,2.433-1.45,3.685a4.129,4.129,0,0,0-.242,1.466,3.2,3.2,0,0,0,.416,1.489,3.447,3.447,0,0,0,1.126,1.1,4.081,4.081,0,0,0,1.968.627c.228.021.452,0,.68,0a2.4,2.4,0,1,0,0-4.8c-.228,0-.453.022-.68,0l.638.085a1.734,1.734,0,0,1-.418-.112l.573.242a2.443,2.443,0,0,1-.484-.294l.486.375a.576.576,0,0,1-.086-.085l.376.485a.7.7,0,0,1-.084-.151l.242.573a1.042,1.042,0,0,1-.039-.174l.086.638a1.53,1.53,0,0,1,.005-.253l-.085.638a8.216,8.216,0,0,1,.546-1.686q.328-.859.687-1.708l-.242.573.125-.293a1.784,1.784,0,0,0,.285-.892,1.823,1.823,0,0,0-.043-.957,2.445,2.445,0,0,0-1.1-1.434,2.418,2.418,0,0,0-1.849-.242,2.312,2.312,0,0,0-1.434,1.1Z"/><path class="c" d="M81.927,61.23c2.582-.377,21.622-2.255,21.908-2.285,3.576-.379,23.784-2.7,29.406-3.263a2.934,2.934,0,0,1,2.958,1.635,5.1,5.1,0,0,1-.66,4.554c-3.747,4.924-8.675,8.868-14.25,9.376-5.663.516-10.668-1-14.317-4.18a4.383,4.383,0,0,0-6.315.458c-2,2.428-4.78,4.425-7.886,4.588-5.091.268-8.773-1.013-11.7-6.571a5.272,5.272,0,0,1-.648-2.97A1.7,1.7,0,0,1,81.927,61.23Z"/><path class="c" d="M110.553,93.315c-.36-.022-.721-.044-1.08-.076-.181-.016-.361-.037-.542-.055-.285-.028.341.077-.114-.023-.35-.077-.7-.14-1.042-.246-.056-.018-.593-.216-.309-.1s-.232-.123-.284-.153-.539-.327-.286-.161c.238.156-.238-.2-.241-.2-.367-.313-.729-.625-1.121-.909a4.435,4.435,0,0,0-2.562-.894,6.58,6.58,0,0,0-3.448,1.413c-.525.344-1.05.69-1.6.988-.14.076-.285.143-.425.217-.4.21.234-.058-.035.015-.148.04-.291.1-.44.141s-.7.117-.076.045a2.461,2.461,0,0,0-2.4,2.4c.053,1.178,1.065,2.553,2.4,2.4a10.064,10.064,0,0,0,4.3-1.608c.5-.316.987-.656,1.494-.962a3.213,3.213,0,0,0,.654-.357c-.074.085-.551.2-.16.084.239-.071.361.035-.264.024-.157,0-.521-.062-.151,0q-.359-.167-.127-.04a2.588,2.588,0,0,1,.254.161c-.19-.111-.179-.147,0,.006.156.137.313.275.472.409a8.5,8.5,0,0,0,2.2,1.378,14.854,14.854,0,0,0,4.938.908,2.413,2.413,0,0,0,2.4-2.4,2.456,2.456,0,0,0-2.4-2.4Z"/><path class="c" d="M162.645,109a69.129,69.129,0,0,1,7.561,12.363,121.616,121.616,0,0,1,5.521,15.022c1.836,5.886,3.057,11.926,4.575,17.9,1.411,5.554,2.868,11.663,6.292,16.366a28.8,28.8,0,0,0,12.927,9.841,31.77,31.77,0,0,0,8.335,1.742,62.376,62.376,0,0,0,7.558.392,40.641,40.641,0,0,0,13.894-2.515,53.283,53.283,0,0,0,13.855-8.167,49.251,49.251,0,0,0,16.895-25.051,63.023,63.023,0,0,0,1.283-29.8c-2.125-10.922-7.416-21.413-14.122-30.226a81.521,81.521,0,0,0-26.641-22.715c-20.7-10.968-49.833-14.922-68.966,1.3a39.086,39.086,0,0,0-5.816,6.242,2.415,2.415,0,0,0,.861,3.284,2.46,2.46,0,0,0,3.284-.861c6.633-8.728,17.421-13.426,28.136-14.416a71.609,71.609,0,0,1,33.977,5.693c20.188,8.5,36.651,25.962,43.159,46.994,5.3,17.145,2.645,38.386-10.254,51.6-6.538,6.7-15.289,12.231-24.691,13.507a54.4,54.4,0,0,1-13.946-.237,23.169,23.169,0,0,1-12.812-5.987,21.424,21.424,0,0,1-4.3-5.456,40.122,40.122,0,0,1-2.88-7.737c-1.685-5.595-2.823-11.33-4.28-16.985a151.468,151.468,0,0,0-5.343-16.557,71.226,71.226,0,0,0-5.882-12.126c-1.249-2.006-2.613-3.937-4.032-5.827a2.476,2.476,0,0,0-3.283-.861,2.417,2.417,0,0,0-.861,3.284Z"/><path class="c" d="M99.558,99.771a60.588,60.588,0,0,0,15.078,14.121,2.418,2.418,0,0,0,3.284-.861,2.454,2.454,0,0,0-.861-3.283q-1.022-.669-2.016-1.378-.447-.32-.888-.649c-.163-.121-.325-.244-.487-.367.248.189-.106-.082-.19-.148q-1.872-1.473-3.615-3.1-1.7-1.582-3.26-3.3-.822-.9-1.6-1.841-.351-.421-.7-.85c-.128-.159-.254-.319-.38-.479-.29-.369.089.12-.22-.288a2.464,2.464,0,0,0-3.284-.861c-.985.635-1.673,2.214-.861,3.283Z"/><path class="c" d="M129.382,94.158c-.118.3-.237.595-.362.89.1-.238.01-.025-.04.089-.065.147-.129.293-.194.439q-.393.878-.821,1.737-.882,1.774-1.909,3.471-1,1.644-2.12,3.2-.282.39-.57.774c-.025.032-.289.38-.177.234s-.156.2-.182.23c-.423.534-.858,1.056-1.3,1.572a2.4,2.4,0,0,0,3.394,3.394,51.713,51.713,0,0,0,8.911-14.757,2.407,2.407,0,0,0-1.676-2.952,2.469,2.469,0,0,0-2.952,1.676Z"/><path class="c" d="M117.469,109.13q1.473,5.165,3.129,10.274a2.4,2.4,0,1,0,4.628-1.276q-1.654-5.109-3.129-10.274a2.4,2.4,0,1,0-4.628,1.276Z"/><path class="c" d="M117.32,107.5a20.54,20.54,0,0,0-2.579,7.919l.086.638.242.573a2.437,2.437,0,0,0,3.77.486L123.654,112a2.4,2.4,0,0,0-3.394-3.394l-4.816,5.109,4.1,1.7.017-.12-.086.639a18.785,18.785,0,0,1,1.275-4.642l-.242.573a19.1,19.1,0,0,1,.96-1.947,2.4,2.4,0,0,0-4.145-2.422Z"/><path class="c" d="M146.1,14.551a32.087,32.087,0,0,1,8.214,16.513,45.257,45.257,0,0,1,.831,14.365c-.3,2.4-2.479,5.286-4.956,5.218-2.062-1.249-6.59-2.034-9.082-1.84-10.309.8-26.3,2.185-41,3.816-9.473,1.051-16.286,2.066-20.216,2.665-2.3.351-3.688-.662-4.055-2.629-.194-1.043-.344-2.456-.454-3.771-.837-10.047-.321-17.41,1.907-22.832,3.225-7.847,6.681-12.266,13.258-16.873a39.1,39.1,0,0,1,16.236-6.292,52.494,52.494,0,0,1,18.155-.136A36.047,36.047,0,0,1,146.1,14.551Z"/><path class="c" d="M144.681,15.965a32.3,32.3,0,0,1,7.613,15.208,47.141,47.141,0,0,1,1.091,11.012,10.5,10.5,0,0,1-.643,4.306c-.484.985-1.37,2.128-2.558,2.156l1.009.273c-4.656-2.676-10.154-2.118-15.256-1.7q-9.65.791-19.29,1.708C104.383,50.1,92.2,51.614,79.991,53.263c-.627.085-1.478.294-1.927-.253-.671-.816-.557-2.7-.646-3.681a93.21,93.21,0,0,1-.405-9.956,35.823,35.823,0,0,1,3.106-14.84,32.675,32.675,0,0,1,9.444-12.154A37.942,37.942,0,0,1,106.59,4.944c7.471-1.348,15.417-1.38,22.713.91a34.874,34.874,0,0,1,15.378,10.111c1.727,1.916,4.549-.92,2.829-2.828a38.665,38.665,0,0,0-18.722-11.6,53.869,53.869,0,0,0-26.436.226C87.918,5.377,75.917,17.1,73.617,32.062a61.728,61.728,0,0,0-.552,11.727c.086,2.292.23,4.59.486,6.869.2,1.785.342,3.682,1.6,5.08,2.211,2.455,5.647,1.413,8.479,1q5.139-.755,10.3-1.389c9.053-1.116,18.135-2,27.217-2.841q6.265-.576,12.535-1.1c3.339-.279,6.851-.892,10.2-.512a16.508,16.508,0,0,1,4.548,1.094,4.41,4.41,0,0,0,2.4.612,5.768,5.768,0,0,0,2.643-.986c3.693-2.537,3.987-6.961,3.931-11.061-.109-7.949-1.89-16.471-6.463-23.1a45.032,45.032,0,0,0-3.423-4.317C145.8,11.208,142.977,14.045,144.681,15.965Z"/></svg>
