<svg xmlns="http://www.w3.org/2000/svg" fill="none" viewBox="0 0 24 24"><path stroke="currentColor" stroke-linecap="round" stroke-linejoin="round" stroke-width="1.5" d="M18.91 14.7a2.35 2.35 0 0 0 2.35 2.33c0 3.75-.94 4.7-4.69 4.7H7.19c-3.75 0-4.69-.95-4.69-4.7v-.46a2.36 2.36 0 0 0 2.35-2.35 2.36 2.36 0 0 0-2.35-2.35v-.46c.01-3.75.94-4.69 4.69-4.69h9.37c3.75 0 4.69.94 4.69 4.7v.93a2.34 2.34 0 0 0-2.34 2.34m-2.7-7.97H7.12l2.93-2.93c2.4-2.39 3.6-2.39 5.98 0l.6.6a2.1 2.1 0 0 0-.42 2.33"/><path stroke="currentColor" stroke-dasharray="5 5" stroke-linecap="round" stroke-linejoin="round" stroke-width="1.5" d="M9.88 6.72v15"/></svg>
