<svg xmlns="http://www.w3.org/2000/svg" fill="none" viewBox="0 0 24 24"><path stroke="currentColor" stroke-linecap="round" stroke-width="2" d="M15 5v3m0 8v3m0-8v2"/><path stroke="currentColor" stroke-width="2" d="M4.44 10.46c-.65-.73-1.47-1.53-1.36-2.49C3.36 5.57 4.46 5 7.65 5h8.7c3.19 0 4.3.57 4.57 2.97.11.96-.71 1.76-1.36 2.49-.32.35-.56.84-.56 1.54s.24 1.2.56 1.54c.65.73 1.47 1.53 1.36 2.49-.28 2.4-1.38 2.97-4.57 2.97h-8.7c-3.19 0-4.3-.57-4.57-2.97-.11-.96.71-1.76 1.36-2.49.32-.35.56-.84.56-1.54s-.24-1.2-.56-1.54Z"/></svg>
