<svg xmlns="http://www.w3.org/2000/svg" fill="none" viewBox="0 0 40 40"><path stroke="currentColor" stroke-width="1.5" d="M9 .75h17.04l8.21 7.54V36c0 1.8-1.46 3.25-3.25 3.25H9A3.25 3.25 0 0 1 5.75 36V4C5.75 2.2 7.21.75 9 .75Z"/><mask id="path-2-inside-1_9067_87947" fill="currentColor"><path d="M25 1h8.5v8.5H26a1 1 0 0 1-1-1z"/></mask><path fill="currentColor" d="M25 1h8.5zm8.5 9.5H26a2 2 0 0 1-2-2h9.5zm-7.5 0a2 2 0 0 1-2-2V1h2zM33.5 1v8.5z" mask="url(#path-2-inside-1_9067_87947)"/><rect width="24" height="13" x="1" y="20" fill="currentColor" rx="2"/><path fill="currentColor" d="M8.77 22.98v1.37H6.91V30h-1.7v-5.65H3.33v-1.37zm2.57 0V30h-1.7v-7.02zm5.81 0v1.37h-2.86v1.48h2.14v1.33h-2.14V30h-1.71v-7.02zm5.47 0v1.37h-2.86v1.48h2.14v1.33h-2.14V30h-1.71v-7.02z"/></svg>
