<svg xmlns="http://www.w3.org/2000/svg" viewBox="0 0 1024 1024"><path fill="currentColor" d="M960.7 246.9c0 13.9-4.1 27.2-11.8 38.4 6.2 17.8 8.9 36.5 8 55.7-2.1 45.7-25.4 87.8-62.5 114.1a107.8 107.8 0 0 1-101.3 77.3c-5.2 20.8-15 39.8-28.1 55.9v153.8a76 76 0 0 1 53.3 72.9c0 17.5-14.2 31.7-31.6 31.7H603.4c-36.6 0-66.5-29.8-66.5-66.5V644.4h-16a99.5 99.5 0 0 1-94.3 67.4h-7.5v30.9c30.2 10.4 51.6 39.1 51.6 72.2 0 17.5-14.2 31.7-31.7 31.7H255.8c-36.7 0-66.5-29.8-66.5-66.4V483.8c0-16.9 3.1-33.5 9-49.1-22.1 12.8-36.8 37.4-36.8 66.2v107.6c0 27.3-22.2 49.5-49.5 49.5s-49.5-22.2-49.5-49.5c0-9.8 7.9-17.7 17.7-17.7 9.7 0 17.7 7.9 17.7 17.7 0 7.8 6.4 14.2 14.2 14.2s14.2-6.4 14.2-14.2V500.9c0-59.3 42.9-106.3 99.1-110.6 26-28.9 62.8-45.7 102-46.1h297c-.1-1.1-.2-2.1-.2-3.2-.9-19.2 1.8-37.9 8-55.7-18-26.6-15.3-63.1 8.2-86.6 12.9-12.9 30-20 48.3-20 13.3 0 26.1 3.8 37 10.9h.1c20.6-8.4 42.4-12.7 64.9-12.7s44.3 4.3 64.9 12.7a67.7 67.7 0 0 1 37.1-10.9c18.2 0 35.4 7.1 48.3 20 12.6 12.9 19.7 30 19.7 48.2"/><path fill="currentColor" d="M928.9 246.9c0 7.6-2.3 14.8-6.6 20.9-8.7 3.9-12.8 14-9.1 22.9 6.4 15.4 9.2 31.7 8.4 48.6-1.7 36.8-21.2 70.8-52.4 90.6-3.7 2.4-6.4 6.1-7.5 10.7-6.5 28-28.2 48.9-55.3 54.8v-30.2c7.5-2.4 14.5-6.7 20.2-12.4 6.2-6.2 6.2-16.3 0-22.5s-16.3-6.2-22.5 0a19.07 19.07 0 0 1-27.2 0c-6.2-6.2-16.3-6.2-22.5 0s-6.2 16.3 0 22.5c5.8 5.8 12.7 10 20.2 12.4v30.2c-27.1-5.9-48.8-26.8-55.3-54.9-1-4.5-3.8-8.2-7.3-10.6-15.6-9.9-28.3-23.3-37.4-38.9-9-15.6-14.4-33.3-15.3-51.7-.8-16.9 2.1-33.2 8.4-48.6 3.7-8.9-.4-19-9-22.9-10-14.2-8.7-34 4-46.7 6.9-6.9 16-10.7 25.8-10.7 9.7 0 18.9 3.8 25.8 10.7.1.1.3.2.4.4V255c0 9.7 7.9 17.7 17.7 17.7s17.7-7.9 17.7-17.7v-36.6c7.5-2.3 15.1-3.9 22.9-4.9v66.9c0 9.7 7.9 17.7 17.7 17.7 9.7 0 17.7-7.9 17.7-17.7v-67c7.8 1 15.4 2.6 22.8 5V255c0 9.7 7.9 17.7 17.7 17.7s17.7-7.9 17.7-17.7v-33.5c.1-.1.3-.2.4-.4 6.9-6.9 16-10.7 25.8-10.7 9.7 0 18.9 3.8 25.8 10.7 6.5 6.9 10.3 16.1 10.3 25.8"/><path fill="currentColor" d="M864.1 325a18.1 18.1 0 1 1 0 36.2 18.1 18.1 0 0 1 0-36.2m-81.3 486.3h-59.7a76 76 0 0 0-53.2-69.2V641c21.6-2.6 42-10.1 59.8-21.4v136.8c0 9.1 7 16.8 16.1 17.6a40.9 40.9 0 0 1 37 37.3M716.7 325a18.1 18.1 0 1 1 0 36.2 18.1 18.1 0 0 1 0-36.2"/><path fill="currentColor" d="M757.8 527.6c-13.4 46.2-56.2 79.3-105.6 79.3-4.9 0-9.3 2-12.5 5.2a17.6 17.6 0 0 0-5.2 12.5v132c0 9.1 7 16.8 16.1 17.6 20 1.8 35.4 17.5 37.1 37.2h-84.3c-17.2 0-31.1-14-31.1-31.1V626.8c0-9.7-7.9-17.7-17.7-17.7H412.3c-8.4 0-15.8 6-17.4 14.5a64.26 64.26 0 0 1-63.3 52.9h-25.2c-9.8 0-17.7 7.9-17.7 17.7v62.5c0 8.9 6.7 16.4 15.5 17.5 19.3 2.4 34.2 18 35.9 37.1h-84.3c-17.2 0-31.2-14-31.2-31.1V483.8c0-24.1 8.4-47.6 23.7-66.2 17.6-21.5 42.7-34.8 70-37.6l-.3 109.6c0 9.7 7.8 17.7 17.6 17.7h.1c9.7 0 17.6-7.9 17.7-17.6l.4-110.3h40.8v58.3c0 9.7 7.9 17.7 17.7 17.7s17.7-7.9 17.7-17.7v-58.3h40.7v127.4c0 9.7 7.9 17.7 17.7 17.7s17.7-7.9 17.7-17.7V379.5h40.7v58.3c0 9.7 7.9 17.7 17.7 17.7 9.7 0 17.7-7.9 17.7-17.7v-58.3H631a148.6 148.6 0 0 0 55.5 75.6c10.5 35.2 37.5 61.9 71.3 72.5"/><path fill="currentColor" d="M425.9 644.4h56.5a64.3 64.3 0 0 1-55.7 32.1h-18.9c7.8-9.3 14-20.1 18.1-32.1m9.3 166.9h-59.7c-1.5-31.5-22.3-58.5-51.4-68.6v-30.8h7.5c19 0 37-5.4 52.2-14.8v59.6c0 8.9 6.6 16.4 15.5 17.5 19.3 2.4 34.2 18 35.9 37.1"/></svg>
