<svg xmlns="http://www.w3.org/2000/svg" fill="currentColor" style="fill-rule:evenodd;clip-rule:evenodd;stroke-linejoin:round;stroke-miterlimit:2" viewBox="0 0 64 64"><path id="Icons" d="M-64-192h1280v800H-64z" style="fill:none"/><g id="Icons1"><g id="logo"><path d="M32.02 25.22a6.87 6.87 0 1 1 0 13.75 6.87 6.87 0 0 1 0-13.75m0 4a2.87 2.87 0 1 1 0 5.74 2.87 2.87 0 0 1 0-5.74"/><path d="m22.13 24.97-.03-.03 7.1-7.1-7.1-7.1 2.76-2.77 7.1 7.11 7.11-7.1 2.76 2.75-7.1 7.1 7.1 7.11-.02.03 4.31 4.32 7.1-7.11L56 24.94l-7.1 7.1 7.1 7.1-2.76 2.77-7.1-7.1-4.25 4.23-7.1 7.12 7.1 7.1-2.75 2.76-7.1-7.1-7.11 7.1-2.76-2.76 7.1-7.1-7.1-7.11-4.3-4.3-7.1 7.1L8 39.1l7.1-7.1L8 24.88l2.76-2.76 7.1 7.1zm5.57-.11.03.03-7.1 7.1 7.1 7.1v.01l4.3 4.3 4.23-4.24v-.01l7.1-7.1-7.1-7.11.02-.03-4.32-4.31z"/><path d="m22.13 24.97-.03-.03 7.1-7.1-7.1-7.1 2.76-2.77 7.1 7.11 7.11-7.1 2.76 2.75-7.1 7.1 7.1 7.11-.02.03 4.31 4.32 7.1-7.11L56 24.94l-7.1 7.1 7.1 7.1-2.76 2.77-7.1-7.1-4.25 4.23-7.1 7.12 7.1 7.1-2.75 2.76-7.1-7.1-7.11 7.1-2.76-2.76 7.1-7.1-7.1-7.11-4.3-4.3-7.1 7.1L8 39.1l7.1-7.1L8 24.88l2.76-2.76 7.1 7.1zm5.57-.11.03.03-7.1 7.1 7.1 7.1v.01l4.3 4.3 4.23-4.24v-.01l7.1-7.1-7.1-7.11.02-.03-4.32-4.31z"/></g></g></svg>
