<svg fill="currentColor" viewBox="0 0 64 64" xmlns="http://www.w3.org/2000/svg" style="fill-rule:evenodd;clip-rule:evenodd;stroke-linejoin:round;stroke-miterlimit:2;"><rect id="Icons" x="-64" y="-192" width="1280" height="800" style="fill:none;"/><g id="Icons1" serif:id="Icons"><g id="logo"><path d="M32.024,25.217c3.793,0 6.872,3.079 6.872,6.872c0,3.792 -3.079,6.871 -6.872,6.871c-3.792,0 -6.871,-3.079 -6.871,-6.871c0,-3.793 3.079,-6.872 6.871,-6.872Zm0,4c1.585,0 2.872,1.287 2.872,2.872c0,1.584 -1.287,2.871 -2.872,2.871c-1.584,0 -2.871,-1.287 -2.871,-2.871c0,-1.585 1.287,-2.872 2.871,-2.872Z"/><path d="M22.126,24.971l-0.026,-0.027l7.106,-7.105l-7.106,-7.106l2.758,-2.759l7.106,7.106l7.106,-7.106l2.759,2.759l-7.106,7.106l7.106,7.105l-0.023,0.024l4.316,4.317l7.106,-7.106l2.759,2.758l-7.106,7.106l7.106,7.106l-2.759,2.759l-7.106,-7.106l-4.24,4.24l0.006,0.007l-7.106,7.106l7.106,7.106l-2.758,2.758l-7.106,-7.106l-7.106,7.106l-2.759,-2.758l7.106,-7.106l-7.106,-7.106l0.002,-0.002l-4.296,-4.297l-7.106,7.106l-2.759,-2.758l7.106,-7.106l-7.106,-7.106l2.759,-2.759l7.106,7.106l4.261,-4.262Zm5.576,-0.112l0.027,0.027l-7.106,7.106l7.106,7.106l-0.002,0.002l4.297,4.296l4.24,-4.241l-0.006,-0.006l7.106,-7.106l-7.106,-7.106l0.023,-0.023l-4.317,-4.317l-4.262,4.262Z"/><path d="M22.126,24.971l-0.026,-0.027l7.106,-7.105l-7.106,-7.106l2.758,-2.759l7.106,7.106l7.106,-7.106l2.759,2.759l-7.106,7.106l7.106,7.105l-0.023,0.024l4.316,4.317l7.106,-7.106l2.759,2.758l-7.106,7.106l7.106,7.106l-2.759,2.759l-7.106,-7.106l-4.24,4.24l0.006,0.007l-7.106,7.106l7.106,7.106l-2.758,2.758l-7.106,-7.106l-7.106,7.106l-2.759,-2.758l7.106,-7.106l-7.106,-7.106l0.002,-0.002l-4.296,-4.297l-7.106,7.106l-2.759,-2.758l7.106,-7.106l-7.106,-7.106l2.759,-2.759l7.106,7.106l4.261,-4.262Zm5.576,-0.112l0.027,0.027l-7.106,7.106l7.106,7.106l-0.002,0.002l4.297,4.296l4.24,-4.241l-0.006,-0.006l7.106,-7.106l-7.106,-7.106l0.023,-0.023l-4.317,-4.317l-4.262,4.262Z"/></g></g></svg>
