<svg xmlns="http://www.w3.org/2000/svg" fill="currentColor" style="fill-rule:evenodd;clip-rule:evenodd;stroke-linejoin:round;stroke-miterlimit:2" viewBox="0 0 64 64"><path id="Icons" d="M0-320h1280v800H0z" style="fill:none"/><g id="Icons1"><path id="toggle-on" d="M25.02 17.1c2.72-.01 12.02.06 13.95 0 22.08-.66 22.96 30.64 0 30.02-3.48.02-12.79-.06-13.95 0-10.36.57-17.04-6.82-17-15.27.05-8.45 7.53-15.72 17-14.75m7.88 15c.15-5.36-4.66-10.1-10.01-10.01-7.31.1-10.48 6.7-10.02 10.94a10 10 0 0 0 10.02 9.09c5.53.02 9.86-4.31 10.01-10.02" style="fill-rule:nonzero"/></g></svg>
