<svg xmlns="http://www.w3.org/2000/svg" viewBox="0 0 1024 1024"><path fill="currentColor" d="M269.62 501.84v228.24h119.86V501.85a46.6 46.6 0 0 0-46.6-46.6h-26.65a46.6 46.6 0 0 0-46.61 46.59"/><path fill="currentColor" d="M772.57 501.84v425.78H389.48V501.84a46.6 46.6 0 0 0-46.59-46.62H726a46.6 46.6 0 0 1 46.58 46.62"/><path fill="currentColor" d="M772.57 501.84v3.91H389.48v-3.91a46.6 46.6 0 0 0-46.59-46.62H726a46.6 46.6 0 0 1 46.58 46.62"/><path d="m853.57 377.48-318.02-107.7v-50.75a14.45 14.45 0 0 0-14.46-14.45c-29.62 0-53.7-24.1-53.7-53.71s24.1-53.7 53.7-53.7 53.72 24.1 53.72 53.71a14.45 14.45 0 0 0 28.9 0c0-45.56-37.06-82.61-82.6-82.61s-82.61 37.05-82.61 82.6c0 40.62 29.47 74.49 68.15 81.34v37.56l-318 107.7a72.7 72.7 0 0 0-36.07 26.71 73 73 0 0 0-13.74 42.73 73.4 73.4 0 0 0 73.3 73.3h43.03v209.85a14.45 14.45 0 0 0 14.45 14.46h70.92a14.45 14.45 0 1 0 0-28.91h-56.47V520.2h90.96v407.42a14.45 14.45 0 0 0 14.45 14.46h52.82a14.45 14.45 0 0 0 0-28.91h-38.37V501.84a60.6 60.6 0 0 0-9.18-32.15h331.23a32.2 32.2 0 0 1 32.16 32.15v157.45a14.45 14.45 0 1 0 28.9 0V520.2h43.04c19.59 0 38-7.62 51.85-21.45a73 73 0 0 0 21.44-51.85 73.25 73.25 0 0 0-49.8-69.43M373.23 491.32h-87.35a32.2 32.2 0 0 1 30.34-21.62h26.65a32.15 32.15 0 0 1 30.36 21.62m488.24-13.01a44.2 44.2 0 0 1-31.4 13H786.1a61.2 61.2 0 0 0-60.13-50.52H316.22a61.1 61.1 0 0 0-60.12 50.53h-43.96a44.45 44.45 0 0 1-36.08-70.3 44 44 0 0 1 21.85-16.15L521.1 295.4l323.2 109.47a44.3 44.3 0 0 1 30.15 42.05 44 44 0 0 1-13 31.38m-88.9 216.42a14.45 14.45 0 0 0-14.45 14.45v204H496.16a14.45 14.45 0 1 0 0 28.91h276.41a14.45 14.45 0 0 0 14.47-14.46V709.18a14.45 14.45 0 0 0-14.47-14.45"/></svg>
