<svg xmlns="http://www.w3.org/2000/svg" fill="none" viewBox="0 0 24 24"><path stroke="currentColor" stroke-linecap="round" stroke-linejoin="round" stroke-width="1.5" d="M22 8.5a6.5 6.5 0 0 1-7.02 6.48 6.5 6.5 0 0 0-5.96-5.96L9 8.5a6.5 6.5 0 1 1 13 0"/><path stroke="currentColor" stroke-linecap="round" stroke-linejoin="round" stroke-width="1.5" d="M15 15.5a6.5 6.5 0 1 1-13 0 6.5 6.5 0 0 1 13 0M5.59 2H3a1 1 0 0 0-1 1v2.59a1 1 0 0 0 1.71.71L6.3 3.71A1 1 0 0 0 5.59 2m12.82 20H21a1 1 0 0 0 1-1v-2.59a1 1 0 0 0-1.71-.71l-2.59 2.59a1 1 0 0 0 .71 1.71"/></svg>
