<svg viewBox="0 0 116 116" fill="none" xmlns="http://www.w3.org/2000/svg"><mask id="path-1-inside-1_22313_58921" fill="currentColor"><path d="M80.8115 15.708C88.9799 15.708 93.5239 15.7084 97.1973 18.7051C100.919 21.8467 101.838 26.4866 103.336 34.2197L105.075 42.7754V42.9199C105.413 43.2098 105.752 43.4997 106.09 43.8379C109.957 47.6562 109.957 53.0702 109.957 62.8818V67.6201C109.957 67.6356 109.958 67.6514 109.958 67.667V77.333C109.958 79.335 108.335 80.958 106.333 80.958H101.5C99.498 80.958 97.875 79.335 97.875 77.333V71.292H80.5986C80.9567 74.1898 80.958 77.7284 80.958 82.167V96.667C80.9578 98.6689 79.3349 100.292 77.333 100.292H72.5C70.4981 100.292 68.8752 98.6689 68.875 96.667V90.625H18.125V96.667C18.1248 98.6689 16.5019 100.292 14.5 100.292H9.66699C7.66507 100.292 6.04217 98.6689 6.04199 96.667V82.167C6.04199 72.3555 6.04219 66.9907 9.95703 63.124C10.2799 62.793 10.6146 62.4903 10.9619 62.2129C10.9653 62.1943 10.9689 62.1758 10.9727 62.1572L12.7129 53.5537C14.2112 45.8689 15.1297 41.1803 18.8027 38.0869C22.4761 35.0902 27.0201 35.0898 35.1885 35.0898H40.5459L40.7441 34.124C42.2424 26.4391 43.1598 21.7984 46.833 18.7051C50.5063 15.7084 55.0504 15.708 63.2188 15.708H80.8115ZM29 66.458C20.59 66.458 16.7717 66.5071 15.0801 68.2471C13.3401 69.9387 13.2432 73.757 13.2432 82.167V83.375H27.4971L31.2686 79.6035L31.8213 79.1504C32.4119 78.7567 33.1118 78.5423 33.832 78.542H53.165C54.1261 78.542 55.0488 78.9242 55.7285 79.6035L59.5 83.375H73.708V82.167C73.708 73.757 73.6599 69.9387 71.9199 68.2471C70.2283 66.5071 66.41 66.458 58 66.458H29ZM72.9785 47.125C73.4451 49.0066 73.8626 51.1484 74.3379 53.6016L76.0781 62.1572C76.0832 62.1832 76.0863 62.2094 76.0908 62.2354C76.4348 62.507 76.7692 62.8014 77.0918 63.124C77.3909 63.4194 77.6644 63.7263 77.9189 64.042H102.707V62.833C102.707 54.4237 102.659 50.6059 100.919 48.9141C99.2273 47.1741 95.4088 47.125 86.999 47.125H72.9785ZM35.1885 42.292C28.1803 42.292 24.9901 42.3406 23.4434 43.6455C21.8 44.9988 21.1234 48.2856 19.8184 54.9072L18.8975 59.4844C21.6465 59.2086 24.9482 59.208 29 59.208H58C62.0808 59.208 65.3924 59.2085 68.1504 59.4902L67.2334 54.9551C65.9284 48.2852 65.2512 44.9988 63.5596 43.6455C62.0129 42.3888 58.8228 42.292 51.8145 42.292H35.1885ZM94.25 52.0068C96.2317 52.0068 97.875 53.6018 97.875 55.6318C97.8749 57.6618 96.2316 59.3047 94.25 59.3047V59.2568C92.2684 59.2568 90.6251 57.6134 90.625 55.6318C90.625 53.6502 92.2683 52.0068 94.25 52.0068ZM63.1699 22.958C56.1622 22.958 52.9725 23.0068 51.4258 24.3115C49.823 25.6315 49.14 28.7911 47.8965 35.0898H51.8145C59.9827 35.0898 64.5259 35.0904 68.1992 38.0869C68.849 38.6354 69.4123 39.2305 69.9092 39.8789C69.9665 39.8761 70.0241 39.875 70.082 39.875H86.999C91.0589 39.875 94.3456 39.875 97.1006 40.165L96.1826 35.6221C94.8776 28.9521 94.2005 25.6649 92.5088 24.3115C90.9621 23.055 87.7717 22.958 80.7637 22.958H63.1699Z"/></mask><path d="M80.8115 15.708C88.9799 15.708 93.5239 15.7084 97.1973 18.7051C100.919 21.8467 101.838 26.4866 103.336 34.2197L105.075 42.7754V42.9199C105.413 43.2098 105.752 43.4997 106.09 43.8379C109.957 47.6562 109.957 53.0702 109.957 62.8818V67.6201C109.957 67.6356 109.958 67.6514 109.958 67.667V77.333C109.958 79.335 108.335 80.958 106.333 80.958H101.5C99.498 80.958 97.875 79.335 97.875 77.333V71.292H80.5986C80.9567 74.1898 80.958 77.7284 80.958 82.167V96.667C80.9578 98.6689 79.3349 100.292 77.333 100.292H72.5C70.4981 100.292 68.8752 98.6689 68.875 96.667V90.625H18.125V96.667C18.1248 98.6689 16.5019 100.292 14.5 100.292H9.66699C7.66507 100.292 6.04217 98.6689 6.04199 96.667V82.167C6.04199 72.3555 6.04219 66.9907 9.95703 63.124C10.2799 62.793 10.6146 62.4903 10.9619 62.2129C10.9653 62.1943 10.9689 62.1758 10.9727 62.1572L12.7129 53.5537C14.2112 45.8689 15.1297 41.1803 18.8027 38.0869C22.4761 35.0902 27.0201 35.0898 35.1885 35.0898H40.5459L40.7441 34.124C42.2424 26.4391 43.1598 21.7984 46.833 18.7051C50.5063 15.7084 55.0504 15.708 63.2188 15.708H80.8115ZM29 66.458C20.59 66.458 16.7717 66.5071 15.0801 68.2471C13.3401 69.9387 13.2432 73.757 13.2432 82.167V83.375H27.4971L31.2686 79.6035L31.8213 79.1504C32.4119 78.7567 33.1118 78.5423 33.832 78.542H53.165C54.1261 78.542 55.0488 78.9242 55.7285 79.6035L59.5 83.375H73.708V82.167C73.708 73.757 73.6599 69.9387 71.9199 68.2471C70.2283 66.5071 66.41 66.458 58 66.458H29ZM72.9785 47.125C73.4451 49.0066 73.8626 51.1484 74.3379 53.6016L76.0781 62.1572C76.0832 62.1832 76.0863 62.2094 76.0908 62.2354C76.4348 62.507 76.7692 62.8014 77.0918 63.124C77.3909 63.4194 77.6644 63.7263 77.9189 64.042H102.707V62.833C102.707 54.4237 102.659 50.6059 100.919 48.9141C99.2273 47.1741 95.4088 47.125 86.999 47.125H72.9785ZM35.1885 42.292C28.1803 42.292 24.9901 42.3406 23.4434 43.6455C21.8 44.9988 21.1234 48.2856 19.8184 54.9072L18.8975 59.4844C21.6465 59.2086 24.9482 59.208 29 59.208H58C62.0808 59.208 65.3924 59.2085 68.1504 59.4902L67.2334 54.9551C65.9284 48.2852 65.2512 44.9988 63.5596 43.6455C62.0129 42.3888 58.8228 42.292 51.8145 42.292H35.1885ZM94.25 52.0068C96.2317 52.0068 97.875 53.6018 97.875 55.6318C97.8749 57.6618 96.2316 59.3047 94.25 59.3047V59.2568C92.2684 59.2568 90.6251 57.6134 90.625 55.6318C90.625 53.6502 92.2683 52.0068 94.25 52.0068ZM63.1699 22.958C56.1622 22.958 52.9725 23.0068 51.4258 24.3115C49.823 25.6315 49.14 28.7911 47.8965 35.0898H51.8145C59.9827 35.0898 64.5259 35.0904 68.1992 38.0869C68.849 38.6354 69.4123 39.2305 69.9092 39.8789C69.9665 39.8761 70.0241 39.875 70.082 39.875H86.999C91.0589 39.875 94.3456 39.875 97.1006 40.165L96.1826 35.6221C94.8776 28.9521 94.2005 25.6649 92.5088 24.3115C90.9621 23.055 87.7717 22.958 80.7637 22.958H63.1699Z" fill="currentColor"/><path d="M97.1973 18.7051L97.8423 17.9409L97.8359 17.9355L97.8294 17.9302L97.1973 18.7051ZM103.336 34.2197L102.354 34.4099L102.356 34.4189L103.336 34.2197ZM105.075 42.7754H106.075V42.6748L106.055 42.5762L105.075 42.7754ZM105.075 42.9199H104.075V43.3799L104.424 43.6792L105.075 42.9199ZM106.09 43.8379L105.383 44.5451L105.387 44.5494L106.09 43.8379ZM109.957 67.6201H108.957L108.957 67.6327L109.957 67.6201ZM97.875 71.292H98.875V70.292H97.875V71.292ZM80.5986 71.292V70.292H79.4675L79.6062 71.4146L80.5986 71.292ZM80.958 96.667L81.958 96.6671V96.667H80.958ZM68.875 96.667H67.875V96.6671L68.875 96.667ZM68.875 90.625H69.875V89.625H68.875V90.625ZM18.125 90.625V89.625H17.125V90.625H18.125ZM18.125 96.667L19.125 96.6671V96.667H18.125ZM14.5 100.292V101.292V101.292V100.292ZM6.04199 96.667H5.04199V96.6671L6.04199 96.667ZM9.95703 63.124L10.6597 63.8355L10.6664 63.8289L10.6729 63.8222L9.95703 63.124ZM10.9619 62.2129L11.586 62.9943L11.878 62.761L11.9455 62.3935L10.9619 62.2129ZM10.9727 62.1572L9.9925 61.959L9.99205 61.9612L10.9727 62.1572ZM12.7129 53.5537L13.6931 53.752L13.6944 53.7451L12.7129 53.5537ZM18.8027 38.0869L18.1706 37.312L18.1645 37.317L18.1586 37.322L18.8027 38.0869ZM40.5459 35.0898V36.0898H41.3615L41.5255 35.2909L40.5459 35.0898ZM40.7441 34.124L41.7238 34.3251L41.7257 34.3154L40.7441 34.124ZM46.833 18.7051L46.2009 17.9302L46.1948 17.9351L46.1889 17.9402L46.833 18.7051ZM15.0801 68.2471L15.7772 68.9641L15.7873 68.9542L15.7971 68.9441L15.0801 68.2471ZM13.2432 83.375H12.2432V84.375H13.2432V83.375ZM27.4971 83.375V84.375H27.9113L28.2042 84.0821L27.4971 83.375ZM31.2686 79.6035L30.6346 78.8302L30.5964 78.8615L30.5614 78.8964L31.2686 79.6035ZM31.8213 79.1504L31.2667 78.3183L31.2255 78.3457L31.1873 78.377L31.8213 79.1504ZM33.832 78.542V77.542H33.8316L33.832 78.542ZM55.7285 79.6035L56.4356 78.8964L56.4354 78.8962L55.7285 79.6035ZM59.5 83.375L58.7929 84.0821L59.0858 84.375H59.5V83.375ZM73.708 83.375V84.375H74.708V83.375H73.708ZM71.9199 68.2471L71.2029 68.9441L71.2127 68.9542L71.2228 68.9641L71.9199 68.2471ZM58 66.458V65.458V66.458ZM72.9785 47.125V46.125H71.7002L72.0079 47.3657L72.9785 47.125ZM74.3379 53.6016L73.3561 53.7918L73.358 53.8009L74.3379 53.6016ZM76.0781 62.1572L77.0597 61.9658L77.0581 61.9579L76.0781 62.1572ZM76.0908 62.2354L75.1056 62.4064L75.171 62.7832L75.4711 63.0201L76.0908 62.2354ZM77.0918 63.124L76.3847 63.8311L76.3891 63.8355L77.0918 63.124ZM77.9189 64.042L77.1405 64.6697L77.4407 65.042H77.9189V64.042ZM102.707 64.042V65.042H103.707V64.042H102.707ZM102.707 62.833H103.707V62.833H102.707ZM100.919 48.9141L100.202 49.6111L100.212 49.6212L100.222 49.631L100.919 48.9141ZM86.999 47.125V46.125V46.125V47.125ZM23.4434 43.6455L24.0791 44.4175L24.0882 44.4098L23.4434 43.6455ZM19.8184 54.9072L20.7987 55.1045L20.7995 55.1006L19.8184 54.9072ZM18.8975 59.4844L17.9171 59.2871L17.65 60.6145L18.9973 60.4794L18.8975 59.4844ZM58 59.208V58.208V59.208ZM68.1504 59.4902L68.0488 60.4851L69.3997 60.6231L69.1306 59.292L68.1504 59.4902ZM67.2334 54.9551L66.252 55.1471L66.2532 55.1533L67.2334 54.9551ZM63.5596 43.6455L62.929 44.4216L62.9349 44.4264L63.5596 43.6455ZM94.25 52.0068V51.0068V51.0068V52.0068ZM97.875 55.6318L98.875 55.6319V55.6318H97.875ZM94.25 59.3047H93.25V60.3047H94.25V59.3047ZM94.25 59.2568H95.25V58.2568H94.25V59.2568ZM90.625 55.6318H89.625V55.6319L90.625 55.6318ZM63.1699 22.958V21.958V21.958V22.958ZM51.4258 24.3115L52.0615 25.0835L52.0706 25.0759L51.4258 24.3115ZM47.8965 35.0898L46.9154 34.8962L46.6798 36.0898H47.8965V35.0898ZM68.1992 38.0869L68.8443 37.3228L68.8378 37.3174L68.8313 37.312L68.1992 38.0869ZM69.9092 39.8789L69.1155 40.4872L69.4342 40.9031L69.9576 40.8777L69.9092 39.8789ZM70.082 39.875V38.875H70.082L70.082 39.875ZM86.999 39.875V38.875V39.875ZM97.1006 40.165L96.9959 41.1595L98.3506 41.3021L98.0808 39.967L97.1006 40.165ZM96.1826 35.6221L95.2012 35.8141L95.2024 35.8201L96.1826 35.6221ZM92.5088 24.3115L91.8782 25.0877L91.8841 25.0924L92.5088 24.3115ZM80.7637 22.958V21.958V21.958V22.958ZM80.8115 15.708V16.708C84.9218 16.708 88.0184 16.7104 90.5482 17.0727C93.0403 17.4296 94.9074 18.1276 96.5651 19.4799L97.1973 18.7051L97.8294 17.9302C95.8138 16.2859 93.5722 15.4854 90.8318 15.0929C88.1292 14.7058 84.8696 14.708 80.8115 14.708V15.708ZM97.1973 18.7051L96.5522 19.4692C99.9486 22.3364 100.833 26.5601 102.354 34.4099L103.336 34.2197L104.318 34.0295C102.842 26.413 101.889 21.3571 97.8423 17.9409L97.1973 18.7051ZM103.336 34.2197L102.356 34.4189L104.095 42.9746L105.075 42.7754L106.055 42.5762L104.316 34.0205L103.336 34.2197ZM105.075 42.7754H104.075V42.9199H105.075H106.075V42.7754H105.075ZM105.075 42.9199L104.424 43.6792C104.766 43.9719 105.076 44.238 105.383 44.545L106.09 43.8379L106.797 43.1307C106.428 42.7614 106.061 42.4477 105.726 42.1607L105.075 42.9199ZM106.09 43.8379L105.387 44.5494C107.124 46.2647 108.024 48.3506 108.486 51.2686C108.954 54.2304 108.957 57.9459 108.957 62.8818H109.957H110.957C110.957 58.0061 110.96 54.1088 110.461 50.9562C109.956 47.7597 108.922 45.2294 106.792 43.1264L106.09 43.8379ZM109.957 62.8818H108.957V67.6201H109.957H110.957V62.8818H109.957ZM109.957 67.6201L108.957 67.6327C108.957 67.6426 108.957 67.6513 108.958 67.6576C108.958 67.6629 108.958 67.6698 108.958 67.6716C108.958 67.6747 108.958 67.6752 108.958 67.6748C108.958 67.6742 108.958 67.6713 108.958 67.667H109.958H110.958C110.958 67.644 110.957 67.6239 110.957 67.6155C110.957 67.6095 110.957 67.6085 110.957 67.606C110.957 67.6045 110.957 67.6054 110.957 67.6075L109.957 67.6201ZM109.958 67.667H108.958V77.333H109.958H110.958V67.667H109.958ZM109.958 77.333H108.958C108.958 78.7828 107.783 79.958 106.333 79.958V80.958V81.958C108.887 81.958 110.958 79.8873 110.958 77.333H109.958ZM106.333 80.958V79.958H101.5V80.958V81.958H106.333V80.958ZM101.5 80.958V79.958C100.05 79.958 98.875 78.7828 98.875 77.333H97.875H96.875C96.875 79.8873 98.9457 81.958 101.5 81.958V80.958ZM97.875 77.333H98.875V71.292H97.875H96.875V77.333H97.875ZM97.875 71.292V70.292H80.5986V71.292V72.292H97.875V71.292ZM80.5986 71.292L79.6062 71.4146C79.955 74.2378 79.958 77.7063 79.958 82.167H80.958H81.958C81.958 77.7505 81.9583 74.1419 81.5911 71.1694L80.5986 71.292ZM80.958 82.167H79.958V96.667H80.958H81.958V82.167H80.958ZM80.958 96.667L79.958 96.6669C79.9579 98.1167 78.7826 99.292 77.333 99.292V100.292V101.292C79.8873 101.292 81.9578 99.2211 81.958 96.6671L80.958 96.667ZM77.333 100.292V99.292H72.5V100.292V101.292H77.333V100.292ZM72.5 100.292V99.292C71.0505 99.292 69.8751 98.1167 69.875 96.6669L68.875 96.667L67.875 96.6671C67.8752 99.2211 69.9457 101.292 72.5 101.292V100.292ZM68.875 96.667H69.875V90.625H68.875H67.875V96.667H68.875ZM68.875 90.625V89.625H18.125V90.625V91.625H68.875V90.625ZM18.125 90.625H17.125V96.667H18.125H19.125V90.625H18.125ZM18.125 96.667L17.125 96.6669C17.1249 98.1167 15.9496 99.292 14.5 99.292V100.292V101.292C17.0543 101.292 19.1248 99.2211 19.125 96.6671L18.125 96.667ZM14.5 100.292V99.292H9.66699V100.292V101.292H14.5V100.292ZM9.66699 100.292V99.292C8.21744 99.292 7.04212 98.1167 7.04199 96.6669L6.04199 96.667L5.04199 96.6671C5.04222 99.2211 7.1127 101.292 9.66699 101.292V100.292ZM6.04199 96.667H7.04199V82.167H6.04199H5.04199V96.667H6.04199ZM6.04199 82.167H7.04199C7.04199 77.2307 7.04493 73.5289 7.51883 70.5746C7.98528 67.6666 8.89557 65.578 10.6597 63.8355L9.95703 63.124L9.25432 62.4126C7.10365 64.5367 6.05642 67.0638 5.54407 70.2578C5.03916 73.4054 5.04199 77.2918 5.04199 82.167H6.04199ZM9.95703 63.124L10.6729 63.8222C10.9672 63.5206 11.2712 63.2456 11.586 62.9943L10.9619 62.2129L10.3378 61.4315C9.95794 61.7349 9.59258 62.0655 9.24114 62.4258L9.95703 63.124ZM10.9619 62.2129L11.9455 62.3935C11.9476 62.3822 11.9501 62.3693 11.9533 62.3532L10.9727 62.1572L9.99205 61.9612C9.98784 61.9823 9.98309 62.0065 9.97836 62.0323L10.9619 62.2129ZM10.9727 62.1572L11.9528 62.3555L13.693 53.752L12.7129 53.5537L11.7327 53.3555L9.99251 61.959L10.9727 62.1572ZM12.7129 53.5537L13.6944 53.7451C14.4482 49.8789 15.0392 46.8645 15.8868 44.427C16.7238 42.0199 17.788 40.2489 19.4469 38.8518L18.8027 38.0869L18.1586 37.322C16.1444 39.0183 14.9129 41.1383 13.9977 43.7701C13.0932 46.3714 12.4759 49.5438 11.7314 53.3623L12.7129 53.5537ZM18.8027 38.0869L19.4349 38.8618C21.0926 37.5094 22.9597 36.8114 25.4517 36.4545C27.9816 36.0922 31.0782 36.0898 35.1885 36.0898V35.0898V34.0898C31.1304 34.0898 27.8708 34.0877 25.1682 34.4747C22.4278 34.8672 20.1862 35.6677 18.1706 37.312L18.8027 38.0869ZM35.1885 35.0898V36.0898H40.5459V35.0898V34.0898H35.1885V35.0898ZM40.5459 35.0898L41.5255 35.2909L41.7237 34.3251L40.7441 34.124L39.7646 33.923L39.5663 34.8888L40.5459 35.0898ZM40.7441 34.124L41.7257 34.3154C42.4794 30.4494 43.0701 27.4474 43.9171 25.0225C44.7531 22.6288 45.8167 20.8683 47.4772 19.47L46.833 18.7051L46.1889 17.9402C44.1761 19.6352 42.9444 21.7418 42.0289 24.363C41.1243 26.9529 40.5072 30.1137 39.7626 33.9327L40.7441 34.124ZM46.833 18.7051L47.4651 19.4799C49.1229 18.1276 50.99 17.4296 53.482 17.0727C56.0119 16.7104 59.1085 16.708 63.2188 16.708V15.708V14.708C59.1607 14.708 55.9011 14.7058 53.1985 15.0929C50.4581 15.4854 48.2165 16.2859 46.2009 17.9302L46.833 18.7051ZM63.2188 15.708V16.708H80.8115V15.708V14.708H63.2188V15.708ZM29 66.458V65.458C24.8151 65.458 21.6981 65.469 19.4176 65.7054C17.1661 65.9387 15.4719 66.4095 14.3631 67.55L15.0801 68.2471L15.7971 68.9441C16.38 68.3446 17.4407 67.9209 19.6237 67.6947C21.7778 67.4715 24.7749 67.458 29 67.458V66.458ZM15.0801 68.2471L14.383 67.5301C13.246 68.6355 12.7608 70.3244 12.515 72.5793C12.2661 74.8621 12.2432 77.9793 12.2432 82.167H13.2432H14.2432C14.2432 77.9447 14.2686 74.9478 14.5032 72.796C14.7409 70.6164 15.1741 69.5503 15.7772 68.9641L15.0801 68.2471ZM13.2432 82.167H12.2432V83.375H13.2432H14.2432V82.167H13.2432ZM13.2432 83.375V84.375H27.4971V83.375V82.375H13.2432V83.375ZM27.4971 83.375L28.2042 84.0821L31.9757 80.3106L31.2686 79.6035L30.5614 78.8964L26.79 82.6679L27.4971 83.375ZM31.2686 79.6035L31.9025 80.3769L32.4553 79.9237L31.8213 79.1504L31.1873 78.377L30.6346 78.8302L31.2686 79.6035ZM31.8213 79.1504L32.3759 79.9825C32.8031 79.6978 33.3102 79.5422 33.8325 79.542L33.832 78.542L33.8316 77.542C32.9133 77.5424 32.0208 77.8156 31.2667 78.3183L31.8213 79.1504ZM33.832 78.542V79.542H53.165V78.542V77.542H33.832V78.542ZM53.165 78.542V79.542C53.8609 79.542 54.5293 79.8188 55.0216 80.3108L55.7285 79.6035L56.4354 78.8962C55.5682 78.0295 54.3913 77.542 53.165 77.542V78.542ZM55.7285 79.6035L55.0214 80.3106L58.7929 84.0821L59.5 83.375L60.2071 82.6679L56.4356 78.8964L55.7285 79.6035ZM59.5 83.375V84.375H73.708V83.375V82.375H59.5V83.375ZM73.708 83.375H74.708V82.167H73.708H72.708V83.375H73.708ZM73.708 82.167H74.708C74.708 77.9822 74.6972 74.8652 74.4611 72.5847C74.2281 70.3333 73.7575 68.6389 72.617 67.5301L71.9199 68.2471L71.2228 68.9641C71.8223 69.5469 72.2458 70.6075 72.4718 72.7906C72.6948 74.9447 72.708 77.9418 72.708 82.167H73.708ZM71.9199 68.2471L72.6369 67.55C71.5281 66.4095 69.8339 65.9387 67.5824 65.7054C65.3019 65.469 62.1849 65.458 58 65.458V66.458V67.458C62.2251 67.458 65.2222 67.4715 67.3763 67.6947C69.5593 67.9209 70.62 68.3446 71.2029 68.9441L71.9199 68.2471ZM58 66.458V65.458H29V66.458V67.458H58V66.458ZM72.9785 47.125L72.0079 47.3657C72.4671 49.2174 72.8796 51.3324 73.3561 53.7918L74.3379 53.6016L75.3196 53.4114C74.8455 50.9643 74.4231 48.7958 73.9491 46.8843L72.9785 47.125ZM74.3379 53.6016L73.358 53.8009L75.0982 62.3565L76.0781 62.1572L77.0581 61.9579L75.3178 53.4022L74.3379 53.6016ZM76.0781 62.1572L75.0966 62.3486C75.0948 62.3394 75.0942 62.3347 75.096 62.3462C75.0964 62.3491 75.0981 62.3604 75.0994 62.3685C75.1009 62.3782 75.103 62.3915 75.1056 62.4064L76.0908 62.2354L77.0761 62.0643C77.0764 62.0663 77.0764 62.0665 77.0759 62.0632C77.0752 62.0583 77.0749 62.0565 77.0734 62.0464C77.0712 62.0318 77.0665 62.001 77.0596 61.9658L76.0781 62.1572ZM76.0908 62.2354L75.4711 63.0201C75.7865 63.2692 76.0914 63.5379 76.3847 63.8311L77.0918 63.124L77.7989 62.4169C77.447 62.065 77.0831 61.7448 76.7106 61.4506L76.0908 62.2354ZM77.0918 63.124L76.3891 63.8355C76.6585 64.1016 76.9069 64.38 77.1405 64.6697L77.9189 64.042L78.6974 63.4143C78.4218 63.0725 78.1232 62.7372 77.7945 62.4125L77.0918 63.124ZM77.9189 64.042V65.042H102.707V64.042V63.042H77.9189V64.042ZM102.707 64.042H103.707V62.833H102.707H101.707V64.042H102.707ZM102.707 62.833H103.707C103.707 58.6485 103.696 55.5318 103.46 53.2515C103.227 51.0002 102.756 49.306 101.616 48.1972L100.919 48.9141L100.222 49.631C100.821 50.2139 101.245 51.2745 101.471 53.4575C101.694 55.6114 101.707 58.6082 101.707 62.833H102.707ZM100.919 48.9141L101.636 48.217C100.527 47.0765 98.8329 46.6057 96.5814 46.3724C94.3008 46.136 91.1838 46.125 86.999 46.125V47.125V48.125C91.224 48.125 94.2212 48.1385 96.3752 48.3617C98.5583 48.5879 99.6191 49.0116 100.202 49.6111L100.919 48.9141ZM86.999 47.125V46.125H72.9785V47.125V48.125H86.999V47.125ZM35.1885 42.292V41.292C31.7012 41.292 29.0983 41.3032 27.1744 41.4838C25.2754 41.662 23.8212 42.0184 22.7985 42.8812L23.4434 43.6455L24.0882 44.4098C24.6122 43.9677 25.5265 43.6473 27.3613 43.475C29.1712 43.3051 31.6676 43.292 35.1885 43.292V42.292ZM23.4434 43.6455L22.8077 42.8736C21.7401 43.7527 21.092 45.1672 20.545 47.0172C19.9911 48.8905 19.4863 51.4204 18.8372 54.7139L19.8184 54.9072L20.7995 55.1006C21.4554 51.7724 21.9414 49.3481 22.4629 47.5843C22.9914 45.7971 23.5033 44.8916 24.0791 44.4174L23.4434 43.6455ZM19.8184 54.9072L18.838 54.71L17.9171 59.2871L18.8975 59.4844L19.8778 59.6816L20.7987 55.1045L19.8184 54.9072ZM18.8975 59.4844L18.9973 60.4794C21.6856 60.2097 24.9309 60.208 29 60.208V59.208V58.208C24.9655 58.208 21.6074 58.2075 18.7976 58.4894L18.8975 59.4844ZM29 59.208V60.208H58V59.208V58.208H29V59.208ZM58 59.208V60.208C62.0985 60.208 65.3526 60.2096 68.0488 60.4851L68.1504 59.4902L68.252 58.4954C65.4322 58.2074 62.0632 58.208 58 58.208V59.208ZM68.1504 59.4902L69.1306 59.292L68.2136 54.7569L67.2334 54.9551L66.2532 55.1533L67.1702 59.6884L68.1504 59.4902ZM67.2334 54.9551L68.2148 54.7631C67.5658 51.4458 67.0606 48.9022 66.4998 47.0209C65.9453 45.1606 65.2824 43.7432 64.1843 42.8646L63.5596 43.6455L62.9349 44.4264C63.5284 44.9012 64.05 45.8036 64.5832 47.5923C65.1101 49.36 65.5961 51.7945 66.252 55.1471L67.2334 54.9551ZM63.5596 43.6455L64.1902 42.8694C63.1735 42.0434 61.731 41.6866 59.8318 41.5022C57.9072 41.3153 55.3059 41.292 51.8145 41.292V42.292V43.292C55.3313 43.292 57.8293 43.3171 59.6385 43.4928C61.4731 43.671 62.399 43.991 62.929 44.4216L63.5596 43.6455ZM51.8145 42.292V41.292H35.1885V42.292V43.292H51.8145V42.292ZM94.25 52.0068V53.0068C95.6881 53.0068 96.875 54.1628 96.875 55.6318H97.875H98.875C98.875 53.0409 96.7752 51.0068 94.25 51.0068V52.0068ZM97.875 55.6318L96.875 55.6318C96.875 57.118 95.6709 58.3047 94.25 58.3047V59.3047V60.3047C96.7924 60.3047 98.8749 58.2056 98.875 55.6319L97.875 55.6318ZM94.25 59.3047H95.25V59.2568H94.25H93.25V59.3047H94.25ZM94.25 59.2568V58.2568C92.8207 58.2568 91.625 57.0612 91.625 55.6318L90.625 55.6318L89.625 55.6319C89.6251 58.1657 91.7161 60.2568 94.25 60.2568V59.2568ZM90.625 55.6318H91.625C91.625 54.2025 92.8206 53.0068 94.25 53.0068V52.0068V51.0068C91.716 51.0068 89.625 53.0979 89.625 55.6318H90.625ZM63.1699 22.958V21.958C59.6828 21.958 57.0803 21.9692 55.1565 22.1499C53.2577 22.3282 51.8037 22.6845 50.781 23.5471L51.4258 24.3115L52.0706 25.0759C52.5946 24.6338 53.5089 24.3134 55.3435 24.1411C57.1532 23.9712 59.6493 23.958 63.1699 23.958V22.958ZM51.4258 24.3115L50.7901 23.5396C49.7476 24.3981 49.1067 25.7656 48.5692 27.5443C48.0254 29.3437 47.5342 31.7619 46.9154 34.8962L47.8965 35.0898L48.8775 35.2835C49.5023 32.119 49.9744 29.808 50.4836 28.1229C50.9991 26.4172 51.5012 25.5449 52.0615 25.0835L51.4258 24.3115ZM47.8965 35.0898V36.0898H51.8145V35.0898V34.0898H47.8965V35.0898ZM51.8145 35.0898V36.0898C55.9247 36.0898 59.021 36.0922 61.5506 36.4546C64.0425 36.8115 65.9094 37.5095 67.5671 38.8618L68.1992 38.0869L68.8313 37.312C66.8158 35.6678 64.5744 34.8673 61.8342 34.4748C59.1318 34.0877 55.8724 34.0898 51.8145 34.0898V35.0898ZM68.1992 38.0869L67.5542 38.8511C68.1481 39.3524 68.6617 39.8951 69.1155 40.4872L69.9092 39.8789L70.7029 39.2706C70.1629 38.566 69.5499 37.9185 68.8443 37.3228L68.1992 38.0869ZM69.9092 39.8789L69.9576 40.8777C69.9958 40.8759 70.037 40.875 70.082 40.875L70.082 39.875L70.082 38.875C70.0113 38.875 69.9372 38.8764 69.8608 38.8801L69.9092 39.8789ZM70.082 39.875V40.875H86.999V39.875V38.875H70.082V39.875ZM86.999 39.875V40.875C91.0771 40.875 94.3046 40.8763 96.9959 41.1595L97.1006 40.165L97.2053 39.1705C94.3867 38.8738 91.0407 38.875 86.999 38.875V39.875ZM97.1006 40.165L98.0808 39.967L97.1628 35.424L96.1826 35.6221L95.2024 35.8201L96.1204 40.3631L97.1006 40.165ZM96.1826 35.6221L97.164 35.4301C96.515 32.1128 96.0098 29.5689 95.449 27.6874C94.8945 25.8269 94.2317 24.4092 93.1335 23.5307L92.5088 24.3115L91.8841 25.0924C92.4776 25.5672 92.9992 26.4697 93.5324 28.2587C94.0593 30.0267 94.5453 32.4614 95.2012 35.8141L96.1826 35.6221ZM92.5088 24.3115L93.1393 23.5354C92.1227 22.7094 90.6801 22.3527 88.7809 22.1682C86.8563 21.9813 84.255 21.958 80.7637 21.958V22.958V23.958C84.2804 23.958 86.7783 23.9832 88.5876 24.1589C90.4222 24.3371 91.3482 24.6571 91.8783 25.0877L92.5088 24.3115ZM80.7637 22.958V21.958H63.1699V22.958V23.958H80.7637V22.958Z" fill="currentColor" mask="url(#path-1-inside-1_22313_58921)"/></svg>
