<svg xmlns="http://www.w3.org/2000/svg" fill="none" viewBox="0 0 24 24"><path stroke="currentColor" stroke-linecap="round" stroke-linejoin="round" stroke-width="1.5" d="m19.06 18.67-2.14-4.27-2.14 4.27m.39-.76h3.52"/><path stroke="currentColor" stroke-linecap="round" stroke-linejoin="round" stroke-width="1.5" d="M16.92 22a5.08 5.08 0 1 1 0-10.16 5.08 5.08 0 0 1 0 10.16M5.02 2h3.92q3.1 0 3.02 3.02v3.92q.08 3.1-3.02 3.02H5.02Q1.99 12.03 2 8.93V5.01Q2 2 5.02 2m3.99 3.85H4.95m2.02-.68v.68"/><path stroke="currentColor" stroke-linecap="round" stroke-linejoin="round" stroke-width="1.5" d="M7.99 5.84a3.1 3.1 0 0 1-3.05 3.17"/><path stroke="currentColor" stroke-linecap="round" stroke-linejoin="round" stroke-width="1.5" d="M9.01 9.01c-.73 0-1.39-.39-1.85-1.01M2 15a7 7 0 0 0 7 7l-1.05-1.75M22 9a7 7 0 0 0-7-7l1.05 1.75"/></svg>
