<svg xmlns="http://www.w3.org/2000/svg" fill="none" viewBox="0 0 24 24"><path fill="currentColor" fill-rule="evenodd" d="M9.75 6c0-.83.67-1.5 1.5-1.5H13c.61 0 1.25.59 1.25 1.5h1.5c0-1.57-1.15-3-2.75-3h-1.75a3 3 0 0 0-3 3h-4.5L3 6.75V19.5l.75.75h16.5l.75-.75V6.75L20.25 6zM4.5 15.75V7.5H6C6 8.33 5.33 9 4.5 9v1.5a3 3 0 0 0 3-3h9a3 3 0 0 0 3 3v5.25a3 3 0 0 0-3 3h-9a3 3 0 0 0-3-3m0 1.5v1.5H6c0-.83-.67-1.5-1.5-1.5M19.5 9A1.5 1.5 0 0 1 18 7.5h1.5zM18 18.75h1.5v-1.5c-.83 0-1.5.67-1.5 1.5m-5.62-6.65 2.45-.66L14.17 9l-2.44.65zm-1.13 2.15a1.5 1.5 0 1 1-3 0 1.5 1.5 0 0 1 3 0m3.12 3.13 2.12-2.77-3.46-.46z" clip-rule="evenodd"/></svg>
