<svg xmlns="http://www.w3.org/2000/svg" fill="currentColor" style="fill-rule:evenodd;clip-rule:evenodd;stroke-linejoin:round;stroke-miterlimit:2" viewBox="0 0 64 64"><path id="Icons" d="M-1216-64H64v800h-1280z" style="fill:none"/><g id="Icons1"><path id="triangle" d="M32.4 7.86c2.18.12 4 1.16 5.1 3.28l17.93 36.2c1.74 3.66-.95 8.59-5.37 8.66H13.94c-4.02-.06-7.32-4.63-5.35-8.7l18.27-36.2c.34-.65.5-.84.79-1.18a5.5 5.5 0 0 1 4.75-2.07m-.3 4c-.68.03-1.31.41-1.65 1a1200 1200 0 0 0-18.3 36.28c-.55 1.22.38 2.8 1.76 2.86q18.09.3 36.18 0c1.33-.07 2.32-1.59 1.77-2.85a1201 1201 0 0 0-17.97-36.27 1.9 1.9 0 0 0-1.79-1.03" style="fill-rule:nonzero"/></g></svg>
