<svg xmlns="http://www.w3.org/2000/svg" fill="currentColor" preserveAspectRatio="xMidYMid" viewBox="0 0 31.906 32"><path d="m29.32 28 2.29 2.3a1 1 0 0 1-.7 1.7 1 1 0 0 1-.71-.3l-2.29-2.29-2.28 2.3a1 1 0 0 1-1.41 0 1 1 0 0 1 0-1.42L26.5 28l-2.28-2.3a1 1 0 0 1 1.4-1.4l2.3 2.29 2.28-2.3a1 1 0 0 1 1.41 0 1 1 0 0 1 0 1.42zm-7.68-5.7a1 1 0 0 1-1.41 1.4l-1-1a1 1 0 0 1 .08-1.48C22.88 18.32 23 13.05 23 13V7c-.56-2.98-4.12-4.96-6.98-5h-.07c-2.87 0-6.42 2.1-6.98 5.1V13c0 .05.05 5.33 3.62 8.24a1 1 0 0 1-.15 1.65l-10.45 5.7V30h18.94a1 1 0 0 1 0 2H2a2 2 0 0 1-2-2v-2c0-.37.2-.7.52-.88l9.76-5.34C7.01 18.25 7 13.24 7 13V7l-.01-.17C7.67 2.78 12.1.04 15.87 0h.08c3.77 0 8.27 2.74 8.96 6.83l.01.17v5.99c0 .24-.03 5.49-3.54 9.04z"/></svg>
