<svg xmlns="http://www.w3.org/2000/svg" fill="none" viewBox="0 0 24 24"><path fill="currentColor" d="M12.55 2.5a.75.75 0 0 0-1.1 0l-4 4.37a.75.75 0 0 0 1.1 1.01l2.7-2.95V16a.75.75 0 0 0 1.5 0V4.93l2.7 2.95a.75.75 0 1 0 1.1-1.01z"/><path fill="currentColor" d="M3.75 15a.75.75 0 0 0-1.5 0v.05c0 1.37 0 2.47.12 3.34.12.9.38 1.66.98 2.26s1.36.86 2.26.98c.87.12 1.97.12 3.34.12h6.1c1.37 0 2.47 0 3.34-.12.9-.12 1.66-.38 2.26-.98s.86-1.36.98-2.26c.12-.87.12-1.97.12-3.34V15a.75.75 0 0 0-1.5 0c0 1.44 0 2.44-.1 3.2-.1.73-.28 1.11-.56 1.4-.28.27-.66.45-1.4.55-.75.1-1.75.1-3.19.1H9c-1.44 0-2.44 0-3.2-.1-.73-.1-1.11-.28-1.4-.56-.27-.28-.45-.66-.55-1.4-.1-.75-.1-1.75-.1-3.19"/></svg>
