<svg xmlns="http://www.w3.org/2000/svg" fill="none" viewBox="0 0 24 24"><path stroke="currentColor" stroke-linecap="round" stroke-linejoin="round" stroke-width="1.5" d="M11.46 13.73a2.81 2.81 0 1 0 0-5.62 2.81 2.81 0 0 0 0 5.62m5.19 6.47c0-2.33-2.32-4.23-5.19-4.23s-5.19 1.89-5.19 4.23"/><path stroke="currentColor" stroke-linecap="round" stroke-linejoin="round" stroke-width="1.5" d="M21 12.5a9.5 9.5 0 1 1-5.8-8.76 4 4 0 0 0 .38 3.32q.3.52.76.91a3.9 3.9 0 0 0 3.91.82q.73 1.73.75 3.71"/><path stroke="currentColor" stroke-linecap="round" stroke-linejoin="round" stroke-miterlimit="10" stroke-width="1.5" d="M23 5q0 .48-.12.93-.14.61-.46 1.13a4 4 0 0 1-2.17 1.73Q19.66 9 19 9a4 4 0 0 1-2.66-1.03q-.46-.4-.76-.91a4 4 0 0 1-.38-3.32q.3-.88.93-1.53A4 4 0 0 1 23 5m-2.51-.02h-2.98M19 3.52v2.99"/></svg>
