<svg xmlns="http://www.w3.org/2000/svg" fill="none" viewBox="0 0 20 20"><g id="mail"><g id="Vector"><path fill="currentColor" fill-rule="evenodd" d="M4.17 4.8c-.58 0-1.04.46-1.04 1.03v8.34c0 .57.46 1.04 1.04 1.04h11.66c.58 0 1.05-.47 1.05-1.04V5.83c0-.57-.47-1.04-1.05-1.04zm-2.3 1.03a2.3 2.3 0 0 1 2.3-2.29h11.66a2.3 2.3 0 0 1 2.3 2.3v8.33a2.3 2.3 0 0 1-2.3 2.29H4.17a2.3 2.3 0 0 1-2.3-2.3z" clip-rule="evenodd"/><path fill="currentColor" fill-rule="evenodd" d="M1.98 5.49c.2-.3.58-.37.87-.18L10 10.08l7.15-4.77a.62.62 0 0 1 .7 1.04l-7.5 5a.6.6 0 0 1-.7 0l-7.5-5a.6.6 0 0 1-.17-.86" clip-rule="evenodd"/></g></g></svg>
