<svg xmlns="http://www.w3.org/2000/svg" fill="currentColor" viewBox="0 0 32 32"><path d="m30 25.08-8.7-4.12c1.16-.59 5.7-.77 6.07-1.8 0 0-1.8-2.74-2.23-6.32-.17-1.38-.46-3.2-.75-5.76C23.92 2.92 20.42 0 16 0h-.02C11.57 0 8.07 2.92 7.6 7.08c-.29 2.56-.58 4.38-.75 5.76-.44 3.58-2.23 6.33-2.23 6.33.38 1.02 4.91 1.2 6.07 1.79L2 25.09s-2 .7-2 2.35v2.65C0 31.19.9 32 2 32h28c1.1 0 2-.81 2-1.92v-2.64c0-1.65-2-2.36-2-2.36M2 30v-2.56c0-.1.38-.36.69-.48l.17-.07 8.7-4.13a2 2 0 0 0 .04-3.6 11 11 0 0 0-2.98-.74l-1.23-.23c.58-1.29 1.2-3.08 1.46-5.12l.23-1.7q.23-1.62.52-4.07C9.95 4.2 12.58 2 16 2s6.05 2.2 6.4 5.3q.29 2.45.52 4.07.14.95.23 1.7c.25 2.04.89 3.83 1.46 5.12l-1.23.23c-1.4.24-2.3.4-2.98.75a2 2 0 0 0 .04 3.6l8.7 4.12.17.07c.31.12.64.38.69.48V30z"/></svg>
