<svg xmlns="http://www.w3.org/2000/svg" fill="currentColor" viewBox="0 0 32 32"><path d="M24.97 12V7c0-3.31-4.58-7-9-7s-9 3.69-9 7v5c0 2.18 1 6.6 3.8 8.84L1.98 25s-2 .89-2 2v3c0 1.1.9 2 2 2h19v-2h-19v-2.03c0-.8.6-1.05.84-1.16l8.78-4.14a2 2 0 0 0 .42-3.38C9.94 17.61 8.97 13.95 8.97 12V7c0-2.08 3.64-4.99 7-4.99 3.4 0 7 2.86 7 5v5c0 1.92-.8 5.6-2.94 7.29a2 2 0 0 0 .4 3.39l.56.26.88-1.62-.6-.46c2.76-2.18 3.7-6.46 3.7-8.86zm3.93 15.46 2.82-2.83a1 1 0 0 0-1.41-1.41l-2.83 2.83-2.83-2.83a1 1 0 0 0-1.41 1.41l2.83 2.83-2.83 2.83a1 1 0 0 0 1.41 1.41l2.83-2.82 2.83 2.83a1 1 0 0 0 1.41-1.42z"/></svg>
