<svg xmlns="http://www.w3.org/2000/svg" fill="none" viewBox="0 0 24 24"><path fill="currentColor" d="M15.8 21a.7.7 0 1 0 1.4 0zm-11 0a.7.7 0 1 0 1.4 0zm1.4-3a.7.7 0 1 0-1.4 0zm6.1 3a.7.7 0 1 0 1.4 0zm1.4-3a.7.7 0 1 0-1.4 0zm-1.96-6.69-.39-.58zm4.5 0-.39-.58zM3.2 21v-1.5H1.8V21zM8 14.7h3v-1.4H8zm7.8 4.8V21h1.4v-1.5zM11 14.7a4.8 4.8 0 0 1 4.8 4.8h1.4a6.2 6.2 0 0 0-6.2-6.2zm-7.8 4.8A4.8 4.8 0 0 1 8 14.7v-1.4a6.2 6.2 0 0 0-6.2 6.2zm7.8-4.8h4.5v-1.4H11zm9.3 4.8V21h1.4v-1.5zm-4.8-4.8a4.8 4.8 0 0 1 4.8 4.8h1.4a6.2 6.2 0 0 0-6.2-6.2zM6.2 21v-3H4.8v3zm7.5 0v-3h-1.4v3zm-4.2-9.7A3.3 3.3 0 0 1 6.2 8H4.8c0 2.6 2.1 4.7 4.7 4.7zM6.2 8a3.3 3.3 0 0 1 3.3-3.3V3.3A4.7 4.7 0 0 0 4.8 8zm3.3-3.3A3.3 3.3 0 0 1 12.8 8h1.4c0-2.6-2.1-4.7-4.7-4.7zM12.8 8a3.3 3.3 0 0 1-1.45 2.73l.79 1.16A4.7 4.7 0 0 0 14.2 8zm-1.45 2.73q-.8.55-1.85.57v1.4c.98 0 1.88-.3 2.64-.8zM14 4.7A3.3 3.3 0 0 1 17.3 8h1.4c0-2.6-2.1-4.7-4.7-4.7zM17.3 8a3.3 3.3 0 0 1-1.45 2.73l.79 1.16A4.7 4.7 0 0 0 18.7 8zm-1.45 2.73q-.8.55-1.85.57v1.4c.98 0 1.88-.3 2.64-.8zm-3.91-5.3A3.3 3.3 0 0 1 14 4.7V3.3c-1.11 0-2.13.39-2.94 1.03zM14 11.3q-1.04 0-1.85-.57l-.79 1.16a4.7 4.7 0 0 0 2.64.81z"/></svg>
