<svg xmlns="http://www.w3.org/2000/svg" fill="none" viewBox="0 0 24 24"><path fill="currentColor" fill-rule="evenodd" d="M12 1.25a4.75 4.75 0 1 0 0 9.5 4.75 4.75 0 0 0 0-9.5M8.75 6a3.25 3.25 0 1 1 6.5 0 3.25 3.25 0 0 1-6.5 0m5.16 15.6q-.92.15-1.91.15a11 11 0 0 1-5.32-1.27C5.3 19.69 4.25 18.49 4.25 17s1.05-2.7 2.43-3.48A11 11 0 0 1 12 12.25c1.8 0 3.48.37 4.81 1H17a4.75 4.75 0 1 1-3.09 8.36m-.16-3.6a3.25 3.25 0 0 1 4.96-2.77l-4.48 4.48q-.46-.76-.48-1.71m1.54 2.77 4.48-4.48q.46.76.48 1.71a3.25 3.25 0 0 1-4.96 2.77M14.42 14a4.75 4.75 0 0 0-1.62 6.21q-.4.03-.8.03a9.4 9.4 0 0 1-4.58-1.07c-1.15-.66-1.67-1.46-1.67-2.18s.52-1.52 1.67-2.18A9.4 9.4 0 0 1 12 13.75q1.3.01 2.42.26" clip-rule="evenodd"/></svg>
