<svg xmlns="http://www.w3.org/2000/svg" fill="none" viewBox="0 0 24 24"><path fill="currentColor" d="M9 11a1 1 0 1 0 0-2 1 1 0 0 0 0 2m7-1a1 1 0 1 1-2 0 1 1 0 0 1 2 0"/><path fill="currentColor" fill-rule="evenodd" d="M12 2a10 10 0 1 0 0 20 10 10 0 0 0 0-20M4 12a8 8 0 1 1 16 0 8 8 0 0 1-16 0" clip-rule="evenodd"/><path fill="currentColor" d="M9.77 16.88a1 1 0 0 1-1.55-1.26l.01-.01.02-.02.25-.26q.25-.25.72-.55A5 5 0 0 1 12 14a5.2 5.2 0 0 1 3.7 1.52l.05.07.02.02v.01h.01a1 1 0 1 1-1.56 1.25l-.1-.09q-.12-.13-.4-.3A3 3 0 0 0 12 16a3.2 3.2 0 0 0-2.13.78z"/></svg>
