<svg xmlns="http://www.w3.org/2000/svg" fill="none" viewBox="0 0 24 24"><path fill="currentColor" fill-rule="evenodd" d="M7.25 6a4.75 4.75 0 1 1 9.5 0 4.75 4.75 0 0 1-9.5 0M12 2.75a3.25 3.25 0 1 0 0 6.5 3.25 3.25 0 0 0 0-6.5m2.77 9.76q-1.31-.26-2.77-.26c-2.31 0-4.44.53-6.02 1.41-1.56.88-2.73 2.2-2.73 3.84v.1c0 1.16 0 2.62 1.28 3.66a6 6 0 0 0 2.7 1.12c1.19.24 2.74.37 4.77.37 2.87 0 4.81-.25 6.12-.74 1.18-.44 1.88-1.08 2.25-1.9a4.75 4.75 0 1 0-5.6-7.6m-8.06 2.46c-1.34.76-1.96 1.68-1.96 2.53 0 1.3.04 2.04.72 2.6.37.3 1 .6 2.05.81 1.06.22 2.5.34 4.48.34 2.58 0 4.24-.21 5.31-.55a4.74 4.74 0 0 1-3.55-6.83q-.85-.12-1.76-.12c-2.1 0-3.97.48-5.29 1.22M14.75 16a3.25 3.25 0 0 1 4.96-2.77l-4.48 4.48q-.46-.76-.48-1.71m1.54 2.77 4.48-4.48q.47.76.48 1.71a3.25 3.25 0 0 1-4.96 2.77" clip-rule="evenodd"/></svg>
