<svg viewBox="0 0 16 16" fill="none" xmlns="http://www.w3.org/2000/svg"><path d="M10.3164 5.67041C10.4985 5.46277 10.8148 5.44246 11.0225 5.62451C12.1404 6.6048 12.9374 8.32981 12.2363 9.99756C12.0328 10.4817 11.5617 10.803 11.0332 10.8032C10.9715 10.8032 10.8889 10.7994 10.8213 10.7964C10.7903 10.795 10.762 10.7932 10.7402 10.7925C10.6496 10.7896 10.5833 10.7912 10.5332 10.7983H10.5322L9.81348 13.7271C9.60756 14.5668 8.86325 15.1665 7.99805 15.1665C7.13303 15.1663 6.38948 14.5667 6.18359 13.7271L5.46484 10.7983H5.46387C5.41379 10.7912 5.34747 10.7896 5.25684 10.7925C5.23497 10.7932 5.20592 10.795 5.1748 10.7964C5.10728 10.7994 5.02548 10.8032 4.96387 10.8032C4.4353 10.8031 3.96432 10.4817 3.76074 9.99756C3.0597 8.32979 3.85665 6.60478 4.97461 5.62451C5.18214 5.44255 5.4976 5.46307 5.67969 5.67041C5.86174 5.87805 5.84143 6.19442 5.63379 6.37646C4.72129 7.17663 4.20211 8.46671 4.68262 9.60986C4.73356 9.73105 4.84649 9.80307 4.96387 9.80322C5.00644 9.80322 5.04458 9.80063 5.09277 9.79834C5.1283 9.79665 5.16978 9.79521 5.22363 9.79346C5.3296 9.79002 5.46659 9.78918 5.60547 9.80908C5.74321 9.82884 5.91765 9.87324 6.07715 9.98682C6.24888 10.1093 6.36925 10.2877 6.42285 10.5063L7.1543 13.4897C7.25352 13.8937 7.60576 14.1663 7.99805 14.1665C8.39051 14.1665 8.74352 13.8939 8.84277 13.4897L9.57422 10.5063C9.62782 10.2878 9.74724 10.1093 9.91895 9.98682C10.0786 9.87296 10.2537 9.82886 10.3916 9.80908C10.5305 9.78919 10.6675 9.79002 10.7734 9.79346C10.8273 9.79521 10.8688 9.79665 10.9043 9.79834C10.9525 9.80063 10.9906 9.80322 11.0332 9.80322C11.1506 9.80303 11.2635 9.73102 11.3145 9.60986C11.7949 8.46672 11.2757 7.17662 10.3633 6.37646C10.1557 6.19446 10.1345 5.87805 10.3164 5.67041ZM8 0.833496C9.38056 0.833672 10.5 1.95289 10.5 3.3335C10.5 4.04914 10.1296 4.74572 9.68359 5.24658C9.45562 5.50258 9.19177 5.72661 8.91406 5.88916C8.64106 6.04895 8.32477 6.16643 8 6.1665C7.67512 6.1665 7.35805 6.049 7.08496 5.88916C6.80734 5.72663 6.54334 5.50251 6.31543 5.24658C5.86953 4.74573 5.5 4.04906 5.5 3.3335C5.5 1.95278 6.61929 0.833496 8 0.833496ZM8 1.8335C7.17157 1.8335 6.5 2.50507 6.5 3.3335C6.5 3.72224 6.71564 4.19195 7.0625 4.58154C7.23104 4.7708 7.41593 4.92351 7.59082 5.02588C7.77026 5.13087 7.91098 5.1665 8 5.1665C8.08906 5.16642 8.22988 5.13082 8.40918 5.02588C8.58398 4.92352 8.76809 4.77068 8.93652 4.58154C9.28347 4.19191 9.5 3.7223 9.5 3.3335C9.5 2.50518 8.82828 1.83367 8 1.8335Z" fill="currentColor"/></svg>
