<svg viewBox="0 0 32 32" fill="none" xmlns="http://www.w3.org/2000/svg"><path fill-rule="evenodd" clip-rule="evenodd" d="M13.9998 17.667C16.4518 17.667 18.8497 18.3122 20.9324 19.5322C21.091 19.6255 21.2764 19.7279 21.4763 19.8398C23.0403 20.7105 25.4036 22.0283 25.6462 23.9736C25.7635 24.9135 25.3816 25.8055 24.5124 26.624C22.7858 28.2454 21.105 29 19.2263 29H8.77319C6.8946 28.9999 5.21428 28.2449 3.48901 26.625C2.61871 25.8052 2.23742 24.9134 2.35327 23.9736C2.5946 22.027 4.95883 20.7105 6.52417 19.8398C6.72409 19.7279 6.90949 19.6255 7.06811 19.5322C9.15069 18.3123 11.5479 17.667 13.9998 17.667ZM13.9998 19.6777C11.9385 19.6778 9.87743 20.2045 8.07885 21.2578C7.90825 21.3578 7.71237 21.467 7.4978 21.5869C6.50989 22.1362 4.45628 23.2798 4.33862 24.2197C4.30529 24.4917 4.48011 24.8106 4.8601 25.168C6.19077 26.4173 7.43514 27 8.77514 27H19.2283C20.5668 26.9999 21.8124 26.4176 23.1443 25.167C23.523 24.811 23.6971 24.4917 23.6638 24.2197C23.5461 23.2812 21.4936 22.1376 20.5056 21.5869C20.2909 21.4669 20.0929 21.3578 19.9236 21.2578C18.1249 20.2045 16.064 19.6777 14.0027 19.6777H13.9998ZM13.9998 3C17.4916 3 20.3326 5.84116 20.3328 9.33301C20.3328 12.825 17.4918 15.667 13.9998 15.667C10.5078 15.667 7.66674 12.825 7.66674 9.33301C7.66692 5.84118 10.5079 3.00004 13.9998 3ZM13.9998 5C11.6106 5.00004 9.66692 6.94385 9.66674 9.33301C9.66674 11.7223 11.6105 13.667 13.9998 13.667C16.3891 13.667 18.3328 11.7223 18.3328 9.33301C18.3326 6.94383 16.389 5 13.9998 5ZM29.5505 3.10547C30.0451 2.85906 30.6447 3.05951 30.8914 3.55273C31.1378 4.04596 30.9382 4.64686 30.4451 4.89355C28.1167 6.05842 26.2497 9.73175 26.2253 9.78027C26.0653 10.1003 25.7448 10.3097 25.3874 10.3311C25.3688 10.3311 25.3485 10.332 25.3298 10.332L25.3318 10.334C24.9959 10.334 24.6812 10.1644 24.4958 9.88184C24.0719 9.23395 23.1774 8.66801 22.8679 8.50391C22.3799 8.24658 22.192 7.64326 22.448 7.15527C22.704 6.66727 23.3067 6.47776 23.7947 6.73242C23.8972 6.7864 24.5069 7.11441 25.1394 7.65234C26.0007 6.26568 27.5892 4.0868 29.5505 3.10547Z" fill="currentColor"/></svg>
