<svg xmlns="http://www.w3.org/2000/svg" fill="none" viewBox="0 0 18 19"><path fill="currentColor" d="M6.87 9.22h-.2a3.9 3.9 0 1 1 .22 0zm-.12-6.66a2.8 2.8 0 0 0-2.77 2.77 2.75 2.75 0 0 0 2.9 2.76 2.76 2.76 0 0 0-.13-5.53m5.65 6.75h-.06c-.31.03-.63-.2-.66-.5s.16-.59.47-.62l.27-.01a2.06 2.06 0 0 0-.11-4.12.56.56 0 0 1-.57-.56c0-.3.26-.56.57-.56a3.2 3.2 0 0 1 .12 6.37zm-5.52 8.1A7.4 7.4 0 0 1 2.8 16.3c-1.04-.7-1.61-1.64-1.61-2.66s.57-1.99 1.61-2.68a8 8 0 0 1 8.13 0c1.04.69 1.61 1.63 1.61 2.66s-.57 1.98-1.6 2.68a7.4 7.4 0 0 1-4.07 1.12M3.43 11.9c-.72.48-1.1 1.1-1.1 1.74s.4 1.25 1.1 1.73a6.8 6.8 0 0 0 6.89 0c.72-.48 1.11-1.1 1.11-1.74s-.4-1.25-1.11-1.73a6.8 6.8 0 0 0-6.89 0m10.32 4.17a.55.55 0 0 1-.54-.45c-.06-.3.13-.6.43-.66q.72-.15 1.25-.55.64-.5.66-1.16-.02-.66-.66-1.14a3 3 0 0 0-1.23-.55.57.57 0 0 1-.42-.68c.06-.3.36-.5.67-.42q.98.22 1.67.75c.7.52 1.1 1.26 1.1 2.04s-.41 1.53-1.11 2.06q-.72.55-1.7.75z"/></svg>
