<svg xmlns="http://www.w3.org/2000/svg" viewBox="0 -31.88 389.026 389.026"><defs><style>.a{fill:#fff}.c{fill:#211715}.d{fill:#3d8dcc}</style></defs><path d="M326.77 57.36a7 7 0 0 1 2.95-1.87 6 6 0 0 1 5.17.46c2.2 1.38 3.36 4.5 3.4 7.13a15.4 15.4 0 0 1-3.42 10.47l.22.53c2.4 5.65 10.88 14.31 17.58 17.51a12 12 0 0 0-1.82 5.44 20 20 0 0 0 .53 3.56 107 107 0 0 0-34.16 19.96l-3.8-9.84a64 64 0 0 1-2.96-7.45 2.1 2.1 0 0 0-2.58-1.08c-4.18 1.44-10.8 1.25-15.73-.19a12.2 12.2 0 0 1-7.08-5.7 26 26 0 0 1-2.48-6 60 60 0 0 1-1.9-9.07 10 10 0 0 0-2.48-3.97c-1.81-1.71-4.63-2.95-3.45-6.2a6 6 0 0 1 2.51-2.9c5.6-3.53 5.25-12.35 5.02-18.71a48 48 0 0 1-.14-9.93c2.84-2 7.24-2.97 11.6-2.59 9.87 1.13 18.55 6.84 24.3 12.02 3.21 3.14 4.08 5.48 7.2 10.32a15 15 0 0 1 1.51-1.9" class="a"/><path d="m350.36 97.82-2.85.8c-10.81 3.5-24.4 8.62-34.46 13.89a2 2 0 0 0-.94.77 1.6 1.6 0 0 0-.09 1.17c.73 2.7 1.5 5.66 2.24 8.73a108 108 0 0 1 37.12-22.59 28 28 0 0 1-.5-2.92Z" class="a"/><path d="M305.68 6.9c-13.72 6.05-19.53 16.48-20.5 18.8a34 34 0 0 0-3.14 13.9c2.83-2.05 7.29-3.05 11.7-2.67 9.87 1.13 18.56 6.84 24.3 12.02 3.22 3.14 4.09 5.48 7.2 10.32a8.6 8.6 0 0 1 4.49-3.77 6 6 0 0 1 5.17.45c2.19 1.38 3.35 4.5 3.4 7.13a15.4 15.4 0 0 1-3.43 10.47l.22.53c2.4 5.65 10.88 14.31 17.58 17.51 2.18-3.73 5.83-7.34 8.13-10.2 5.25-6.56 12.7-19.17 11.11-35.9a49.3 49.3 0 0 0-9.87-24.58c-12.5-15.98-25.52-18.01-33.5-18.46a50 50 0 0 0-22.3 4.2z" style="fill:#85807f"/><path d="M315.5 109.5a52 52 0 0 1-2.04-4.92 12 12 0 0 0-1.29-3.07 4.6 4.6 0 0 0-5.08-1.59 20 20 0 0 1-4.57.8 28 28 0 0 1-10.16-1.18c-2.83-.95-4.81-3.4-6.06-6.04a42 42 0 0 1-3.02-11.02 12 12 0 0 0-1.6-4.76 15 15 0 0 0-3.24-3.4 8 8 0 0 1-1.38-1.29 1 1 0 0 1-.18-.62c.11-1.52 1.83-2.26 2.85-3.1a13.6 13.6 0 0 0 4.3-7.52c1.75-7.5-.2-15.12.56-22.68a2.4 2.4 0 0 0-2.4-2.4 2.45 2.45 0 0 0-2.4 2.4c-.67 6.7 1 13.46-.13 20.11-.42 2.44-1.2 5.06-3.2 6.6-1.62 1.25-3.07 2.25-3.86 4.23a6 6 0 0 0 .1 4.97c1.3 2.66 4.4 3.65 5.55 6.47.54 1.31.58 3.32.89 4.81a53 53 0 0 0 1.56 5.95c1.2 3.57 2.94 7.07 5.93 9.47 2.75 2.2 6.03 3.05 9.47 3.5a28 28 0 0 0 11.96-.58c.07-.02.52-.13.53-.15-.15.29-.47-.97-.36-.39a11 11 0 0 0 .55 1.6 64 64 0 0 0 2.58 6.22 2.4 2.4 0 0 0 3.28.86 2.45 2.45 0 0 0 .87-3.29Z" class="c"/><path d="M284.43 41.32a34 34 0 0 1 1.32-10.27 41 41 0 0 1 1.23-3.44c.06-.16.43-1.07.3-.77q.3-.7.69-1.38.56-1 1.19-1.96.37-.57.77-1.12.53-.75.83-1.11a43 43 0 0 1 5.45-5.66 46 46 0 0 1 19.18-9.5 44 44 0 0 1 12.21-1.3q1.65.05 3.29.22.71.06 1.43.15l.39.06.94.15c12.55 2.15 23.23 10.74 29.62 21.62a44.9 44.9 0 0 1 2.16 42.36 56 56 0 0 1-8.93 13.35 44 44 0 0 0-6.42 8.6 14 14 0 0 0-1.56 4.92 14 14 0 0 0 .37 4.14 40 40 0 0 0 1.06 4.3c.9 2.95 5.54 1.7 4.63-1.27-.8-2.58-1.77-5.35-1.08-7.82.9-3.23 3.37-5.99 5.52-8.47a68 68 0 0 0 10.05-14.28 52 52 0 0 0 5.43-21.17 50 50 0 0 0-5.67-24.52c-6.34-12.37-18.06-22.9-31.81-25.98a51.8 51.8 0 0 0-40.59 8.22 44 44 0 0 0-11.57 11.93 34 34 0 0 0-4.93 14.16 43 43 0 0 0-.3 5.84c.03 3.09 4.83 3.1 4.8 0" class="c"/><path d="M289.5 58.05c-.6 1.88-.34 6.23 3.05 6.67 4.5.07 4.86-5.18 3.4-7.68-1.18-2.05-4.8-2.97-6.44 1m-8 29.46a17.4 17.4 0 0 0 8.45-2.27 2.4 2.4 0 1 0-2.42-4.14 11 11 0 0 1-1.48.77l.57-.24a15 15 0 0 1-3.83 1l.64-.1q-.96.13-1.92.18a2.4 2.4 0 1 0 0 4.8m51.52-12.22c1.62 3.74 4.48 7.04 7.3 9.92a43 43 0 0 0 10.64 8.2 2.45 2.45 0 0 0 3.28-.86 2.4 2.4 0 0 0-.86-3.28 37 37 0 0 1-9.66-7.46q-1.1-1.11-2.12-2.3-.54-.6-1.05-1.24c-.4-.5-.32-.4-.73-.95a23 23 0 0 1-2.66-4.45 2.4 2.4 0 0 0-3.28-.86 2.46 2.46 0 0 0-.86 3.28" class="c"/><path d="M327.69 59.95c1.5-1.87 4.38-3.58 6.48-1.52 1.84 1.8 1.93 4.88 1.6 7.26-.7 5.09-4.23 8.55-8.81 10.82a2.4 2.4 0 0 0 2.42 4.15c4.93-2.44 9.05-6.37 10.6-11.77 1.56-5.49.82-13.56-5.44-15.75-3.75-1.3-7.85.46-10.24 3.41a2.47 2.47 0 0 0 0 3.4 2.4 2.4 0 0 0 3.39 0" class="c"/><path d="M293.75 39.33c6.56.8 12.7 3.82 18.02 7.62a32 32 0 0 1 6.3 5.55 72 72 0 0 1 4.8 7.51c1.65 2.6 5.8.2 4.14-2.42a79 79 0 0 0-5.55-8.48 38 38 0 0 0-7.27-6.3 44.6 44.6 0 0 0-20.44-8.28 2.4 2.4 0 0 0-2.4 2.4 2.46 2.46 0 0 0 2.4 2.4m-9.9 1.88a14 14 0 0 1 2.31-2.3l-.49.37a14 14 0 0 1 2.96-1.73 2.4 2.4 0 0 0 1.1-1.44 2.5 2.5 0 0 0-.24-1.85 2.4 2.4 0 0 0-1.43-1.1l-.64-.08a2.4 2.4 0 0 0-1.21.32 14 14 0 0 0-2.93 1.72 16 16 0 0 0-2.83 2.7 2 2 0 0 0-.5.77 2 2 0 0 0-.2.92 2.5 2.5 0 0 0 .7 1.7 2.4 2.4 0 0 0 1.7.7 2.3 2.3 0 0 0 1.7-.7" class="c"/><path d="m195.37 156.94.61.52a25 25 0 0 1 2.73 2.78 1.8 1.8 0 0 0 2.74 0 30 30 0 0 1 15.38-9.3c4.28-1.17 11.25-.93 14.78.58a22 22 0 0 1 13.04 14.85 40.5 40.5 0 0 1-.86 21.75 47 47 0 0 1-10.2 17.25 63 63 0 0 1-8.9 8.02c-5.41-.87-9.19-1.65-13.33-2.18-2.13-.27-4.26.77-4.77 2.32a5.2 5.2 0 0 0 1.51 5.2c4.14 3.93 5.4 4.62 8.74 6.04-.43 2.09-3.59 3.42-5.77 4.09s-4.38 1.25-6.6 1.77a131 131 0 0 1-24.35-13.85c-5.5-3.53-10.53-7.62-13.55-11.41-4.36-5.5-7.84-10.3-10.2-17.25a40.5 40.5 0 0 1-.85-21.75 22 22 0 0 1 13.03-14.85c3.54-1.52 10.5-1.75 14.78-.58a32 32 0 0 1 12.04 6" class="a"/><path d="M196.4 226.75a114 114 0 0 1-16.5-10.13c2.23-1.37 3.6-1.43 5.52-2.87a3.65 3.65 0 0 0 .7-4.4 5.8 5.8 0 0 0-3.03-2.22 73 73 0 0 0-15.01-2.72 19 19 0 0 0-8.07.9c-2.6.94-5.14 3.85-7.59 6.4a27 27 0 0 0-2.11 2.46c.22 7.1.32 16.02.26 22.8v.56l3.28 1.18c11.02 3.82 35.94 4.8 48.83 3.25a26 26 0 0 0 5.75-1.38 3.9 3.9 0 0 0 2.44-3.4 5.5 5.5 0 0 0-3.28-5.13 240 240 0 0 1-11.19-5.3m178.09 96.13c.11-7.41-.13-16.27-.3-23.98-2.2.2-3.93.32-4.65.37-25.5 1.86-49.56 2.24-74.33 2 .9 6.4 1.86 14.51 3.11 21.61Z" class="a"/><path d="M292.59 299.74c1.17 7.92 2.03 15.89 3.42 23.78a2.4 2.4 0 0 0 2.95 1.68 2.46 2.46 0 0 0 1.68-2.96c-1.39-7.89-2.25-15.85-3.42-23.78a2.4 2.4 0 0 0-2.96-1.67 2.46 2.46 0 0 0-1.67 2.95m79.09-9.7c.02 10.95.57 21.9.41 32.84-.04 3.1 4.76 3.1 4.8 0 .16-10.95-.39-21.89-.41-32.84 0-3.09-4.8-3.1-4.8 0" class="c"/><path d="M373.96 228.3a215 215 0 0 1-2.17-15.45c-.35-4.72 1.16-16.76 2.14-23.55 2.35-16.26 3.41-29.66.78-45.3-2.13-12.73-5.7-21.7-14.7-34.42-3.06-2.5-3.44-6.88-5.4-10.26-.15-.26-.74-.43-.36.26a109 109 0 0 0-41.62 25.12 223 223 0 0 0-17.46 42.78l-2.01 1.22c-5.8 3.54-13.29 6.7-18.3 9.2-3.65 1.81-24.13 9.93-24.4 11.26a4.5 4.5 0 0 0 .37 2.36c1.36 3.84 3.63 11.65 4.92 15.69l.32.86q-3.75 1.06-7.55 2.07c1.64 11.07 4.52 25.75 7.2 38.15a4 4 0 0 0 .89 2.18 3 3 0 0 0 2.5.77 377 377 0 0 0 27.7-5.52c-.99 12.74 1.44 39.22 3.04 52.92a3 3 0 0 0 3 2.62c25.6.27 50.38-.07 76.68-2a141 141 0 0 0 14.71-1.67 2.97 2.97 0 0 0 2.38-3.57c-2.36-10.25-9.11-44.29-12.66-65.72" class="d"/><path d="M158.76 193.81a43 43 0 0 1-1.6-3.56 67 67 0 0 0-7.9 5.14c-.63 4.24-1.5 9.43-2 12.45l-.13 1.03q.86.14 1.67.25a1.6 1.6 0 0 1 1.38 1.52q.08 1.65.12 3.53l2.12-2.46c2.45-2.55 5-5.47 7.59-6.4a18 18 0 0 1 5.73-.98 63 63 0 0 1-6.98-10.52M255.37 206c-.98-3.14-2.32-7.67-3.45-11.21l-2 .1a29 29 0 0 1-8.61-.7 49 49 0 0 1-7.72 11.19 63 63 0 0 1-8.9 8.02q1.95.32 4.25.65c4.79.7 8.6.5 13.5.43l6.64-.72q-.3-1.86-.56-3.62 3.76-1 7.47-2.04l-.24-.88zM52.31 140.61c11.35 3.35 24.95 7.37 33.59 13.88q.54.81 1.06 1.64v-1.8a55 55 0 0 0-.48-5.84 6 6 0 0 0-2.06-3.24c-5.12-2.45-12.98-5.37-17.6-7.04l-7.77-2.86a18.7 18.7 0 0 1-9.46 4.46z" class="a"/><path d="m93.36 76.6-.6.11-4.17.6a27.7 27.7 0 0 1-12.67 10.9l-7.02 2.61a7.2 7.2 0 0 0-3.8-2.27 5.8 5.8 0 0 0-4.87.9c-1.95 1.52-2.78 4.59-2.58 7.1a14.7 14.7 0 0 0 8.52 12.69l-.82 1.39c-2.25 3.83-1.86 11.34-1.92 14.08-.07 3.62-.94 7.11-3.67 9.95a18.3 18.3 0 0 1-10.16 5.15c10.35 3.08 23.24 6.62 32.55 12.17l3.39-13.5a48 48 0 0 1 2.26-6.31 2 2 0 0 1 2.35-1.26c4.1.98 10.38.19 14.93-1.63a11.6 11.6 0 0 0 6.21-6.08 25 25 0 0 0 1.8-5.93 58 58 0 0 0 .97-8.79 9 9 0 0 1 2-4c1.57-1.79 4.13-3.22 2.71-6.2a5.7 5.7 0 0 0-2.66-2.52c-5.64-2.84-6.12-11.26-6.48-17.33a45 45 0 0 0-.86-9.83 12.4 12.4 0 0 0-2.92-4.9 33 33 0 0 1-4.05 7.78 15.2 15.2 0 0 1-8.44 5.11m-1.64 221.42c-22.2-.53-56.76-3.15-78.85-5.12a261 261 0 0 0-10.45 29.63l90.34.35a202 202 0 0 1-1.04-24.86" class="a"/><path d="M16.02 279.83A257 257 0 0 0 .1 321.9c-.85 2.98 3.78 4.25 4.63 1.28a250 250 0 0 1 15.43-40.91 2.46 2.46 0 0 0-.86-3.29 2.4 2.4 0 0 0-3.29.86Zm73.57 7.7c.1 11.8.58 23.57.77 35.35.05 3.08 4.85 3.1 4.8 0-.2-11.78-.66-23.56-.77-35.34-.03-3.09-4.83-3.1-4.8 0" class="c"/><path d="M51.68 140.78c-3.92 2.15-7.2 4.37-9.76 7.6a30 30 0 0 0-5.2 10.5c-2.96 10.5-3.3 21.59-4.36 34.76-2.79 26.4-15.01 70.19-24.46 94.86a3.17 3.17 0 0 0 2.86 4.21c22.9 2.07 61.22 5.01 83.89 5.37a3.3 3.3 0 0 0 3.44-3.03c.78-17.06-1.6-45.63-.78-61.18 3.16.8 6.28 1.39 9.12 1.95a156 156 0 0 0 41.33 4.03 2.9 2.9 0 0 0 2.81-2.9c.07-7.76-.1-19.12-.38-26.31a1.6 1.6 0 0 0-1.39-1.52l-1.64-.24c.7-5.1 1.66-9.64 2.58-16.93a1.16 1.16 0 0 0-1-1.3A306 306 0 0 1 112 182.4c-4.35-1.22-10.67-5.88-15.81-9.84l-.86-.61a128 128 0 0 0-9.42-17.45c-8.55-6.45-21.97-10.45-33.25-13.78" class="d"/><path d="M39.31 140.43c10.9.43 16.74-1.91 20.45-5.77 2.72-2.84 3.59-6.33 3.66-9.95.06-2.74-.33-10.25 1.92-14.08l.82-1.4a14.7 14.7 0 0 1-8.51-12.69c-.2-2.5.62-5.57 2.57-7.09a5.8 5.8 0 0 1 4.87-.9 7.2 7.2 0 0 1 3.8 2.27l7.03-2.6a27.7 27.7 0 0 0 12.67-10.9l4.16-.6a15.3 15.3 0 0 0 9.04-5.24 36 36 0 0 0 4.49-8.9s.4-.97.96-2.31q-.4-.92-.83-1.77c-4.29-8.37-12.2-15.8-21.69-18.75A51 51 0 0 0 70.3 37.5c-19.11.3-30.88 7.78-38.43 19.9-5 8.03-7.75 15.56-7.95 21.99a75 75 0 0 0 1.43 16.21c3.22 14.56 3.63 20.9-.93 30.68A26 26 0 0 0 30 134.2a28 28 0 0 0 9.32 6.22" style="fill:#a98a75"/><path d="M167.44 202.62c-3.96-5.06-7.48-10.5-9.24-16.73a36.4 36.4 0 0 1-.27-19.24 19.7 19.7 0 0 1 9.63-11.97c4.56-2.5 10.6-2.71 15.56-1.3a31 31 0 0 1 8.67 3.9 24 24 0 0 1 3.46 2.76c1.2 1.17 2.14 2.73 3.9 3.13a4.5 4.5 0 0 0 4.47-1.79 24 24 0 0 1 3.24-3.04 29 29 0 0 1 7.84-4.22 25 25 0 0 1 8.47-1.51 18.45 18.45 0 0 1 18.36 11.91c2.57 6.46 2.33 14.35.55 20.97a45 45 0 0 1-10.19 18.18c-2.04 2.3 1.34 5.71 3.4 3.4a53 53 0 0 0 10.53-17.5 42.5 42.5 0 0 0 1.63-21.6 24.8 24.8 0 0 0-9.93-15.86c-5.13-3.7-11.3-4.8-17.53-4.13a32.4 32.4 0 0 0-18.08 8.3 25 25 0 0 0-1.68 1.71c-.06.07-.52.53-.48.59-.05-.08.54-.07.5-.05.25-.14.17.3.02-.15-.2-.63-1.3-1.43-1.79-1.88a28 28 0 0 0-2-1.72 35 35 0 0 0-9.43-5.17 29 29 0 0 0-9.86-1.8 23.2 23.2 0 0 0-22.37 13.52c-3 6.41-3.28 13.92-2.3 20.83a45 45 0 0 0 8.2 19.46 118 118 0 0 0 3.32 4.4 2.4 2.4 0 0 0 3.4 0 2.46 2.46 0 0 0 0-3.4" class="c"/><path d="M213.38 178.43c-.94-1.86-1.76-3.51-2.19-4.46l-1.8 1.05c-3.24 1.9-11.82 8.1-13.41 8.4a2.5 2.5 0 0 1-2.5-1.22c-1.43-1.92-5.98-6.72-3.79-8.38 1.11-.85 8.44-3.29 10.32-3.75l1.86-.62a36 36 0 0 1-5.92-2.9c-3.8-2.36-2.06-5.42-.9-8.4 1.26-3.25 2.37-4.93 6.5-3.82 3.19.85 7.89 5.4 10.1 7.18q.09-.15.2-.29c.54-.72 1.85-.2 3.6.52 1.5.62 3.26 1.52 3.75 2.37l.03.06c5.81-.51 12-.74 14.07.84 2.94 2.76 1.01 8.56-1.17 11.58-.6 1.04-2 1.4-3.92.76-1.6-.26-4.16-1.58-6.41-2.87l.95 1.34c1.67 2.35 8.38 11.73 6.53 12.08a30 30 0 0 1-9.15.53c-1.11-.05-2.28-.37-2.68-1.4-.75-1.97-2.55-5.56-4.07-8.6" style="fill:#f2635f"/><path d="M213.08 159.6c-2.61-2.16-5.08-4.55-8-6.3-2.91-1.72-7.01-2.67-9.8-.21a10 10 0 0 0-2.4 4.02 21 21 0 0 0-1.51 4.44 6.5 6.5 0 0 0 1.62 5.69 17 17 0 0 0 5.5 3.35 30 30 0 0 0 6.15 2.12c1.67.34 3.36.54 5.05.75a2.4 2.4 0 0 0 2.4-2.4 2.46 2.46 0 0 0-2.4-2.4l-.58-.07-.5-.06-.66-.1q-.56-.07-1.1-.17a22 22 0 0 1-4.4-1.15l-1.94-.84a26 26 0 0 1-2.56-1.3 7 7 0 0 1-1.65-1.21c-.25-.28.18.41-.09-.14l-.19-.36c.21.47.02.05.02-.08 0-.18-.03.43-.01-.12 0-.2.14-.96 0-.44.09-.33.14-.66.24-1q.31-.97.72-1.92l.37-.92.2-.5c.15-.37-.24.5.03-.07a12 12 0 0 1 .86-1.54c-.29.42-.02.11.13-.1.25-.36-.32.15-.09.06l.32-.2c.18-.12.25.04-.17.07l.38-.1c.2-.07.5 0-.06 0l.56-.02q.2 0 .4.03c-.46-.04-.09-.02.02 0q.57.1 1.13.26l.34.12c.55.17-.26-.18.04.01s.69.34 1.02.53a23 23 0 0 1 2.01 1.33c.7.52.92.7 1.71 1.35 1.18.97 2.32 2 3.5 2.97a2.47 2.47 0 0 0 3.4 0 2.4 2.4 0 0 0 0-3.4Z" class="c"/><path d="M216.07 159.43c-1.81-.74-4.26-1.69-5.87.02a12 12 0 0 0-2.03 3.48 17 17 0 0 0-1.4 4.72 4.7 4.7 0 0 0 1.83 4.23 15 15 0 0 0 5.45 2.76 4.7 4.7 0 0 0 2.59.2 3.6 3.6 0 0 0 1.6-1.07 11 11 0 0 0 1.74-2.9 25 25 0 0 0 1.32-3.68 7 7 0 0 0 .23-3.64 5 5 0 0 0-2.33-2.6 19 19 0 0 0-3.13-1.52 2.4 2.4 0 0 0-2.95 1.67 2.5 2.5 0 0 0 1.67 2.96c-.57-.24.02 0 .11.05a20 20 0 0 1 1.5.76l.45.27.14.1q.32.23-.1-.1l.3.29q.26.28-.14-.2.23.37-.15-.4c.14.45-.01-.63-.02-.33v.4l-.02.23c-.03.4.11-.69.04-.3l-.13.67a19 19 0 0 1-.82 2.63c-.07.2-.43 1-.07.2l-.24.54a13 13 0 0 1-.64 1.22l-.3.46c-.28.43.48-.48.05-.07-.2.2-.5.32.2-.13l-.12.08a2 2 0 0 1 .96-.27c1.01.01.52.07.2 0a16 16 0 0 1-1.68-.47c-.58-.2.45.22-.08-.04l-.39-.18-1.2-.62q-.42-.25-.83-.52c-.45-.29.39.36.02.01l-.3-.27-.26-.29.23.3-.13-.2c.15.12.21.56.14.3-.1-.34.01.74.03.18l.02-.65c-.01.85.01.03.07-.23a14 14 0 0 1 .49-1.61l.16-.42c.07-.2.4-.67.03-.1a9 9 0 0 0 .42-.91 16 16 0 0 1 .79-1.44l.17-.26c.14-.21.43-.42-.1.1l-.33.26q-.65.23-.3.13-.7.06-.3.05.36.03-.26-.05a9 9 0 0 0 1.08.31q.66.24 1.31.52a2.4 2.4 0 0 0 2.95-1.68 2.47 2.47 0 0 0-1.67-2.95" class="c"/><path d="M220 166.51q2.66-.23 5.31-.3a45 45 0 0 1 3.97.1c.07 0 .84.09.54.05a12 12 0 0 1 1.45.32l.38.13c.36.12-.15-.06-.15-.06.03-.03.27.14.31.16.46.24-.28-.12-.01 0 .13.07.31.49.03.02l.19.31.17.32c-.25-.47-.05-.14-.01.02l.2.81c-.11-.54-.01-.13 0 .03l.01.58q0 .45-.04.9c-.05.65.08-.31-.01.07l-.1.51a14 14 0 0 1-.56 1.92l-.2.48c.17-.42.05-.08 0 0q-.2.47-.44.91-.46.83-.98 1.6c-.1.14-.26.27.08-.1-.27.3.04-.04.1-.07-.5.21.4-.12.04 0-.15.07-.53.09 0 .05l-.4.01c-.63.03.22.1-.16 0l-1.13-.28a11 11 0 0 1-1.33-.4l-.33-.14-.99-.46a76 76 0 0 1-6.75-3.89 2.4 2.4 0 0 0-3.28.86 2.45 2.45 0 0 0 .86 3.29 74 74 0 0 0 6.93 3.97c2.8 1.36 6.97 3.06 9.66.62a11 11 0 0 0 2.36-3.73 17 17 0 0 0 1.43-5.21 9 9 0 0 0-.9-4.93 6 6 0 0 0-3.79-2.95 21 21 0 0 0-5.58-.62 79 79 0 0 0-6.88.31 2.4 2.4 0 0 0 0 4.8Zm-20.63 1.25a65 65 0 0 0-8.09 2.7 10 10 0 0 0-3.51 1.87c-1.47 1.5-1.16 3.63-.39 5.37a21 21 0 0 0 2.86 4.27l1.25 1.56c-.48-.61.07.1.1.12a8 8 0 0 0 .55.69 5 5 0 0 0 1.9 1.25c2.84 1.03 5.71-1.38 7.94-2.83 2.87-1.88 5.67-3.92 8.63-5.66 2.65-1.57.24-5.72-2.43-4.15-2.26 1.34-4.42 2.87-6.6 4.33a140 140 0 0 1-6.25 3.87c-.33.2.6-.25.14-.07-.26.1.52.02.09-.02-.35-.02.02-.02.05 0 .4.35-.53-.65-.15-.2l-.79-1-1.17-1.47-.05-.06-.35-.48a21 21 0 0 1-1.2-1.83l-.2-.38c-.32-.56.08.28-.04-.07l-.11-.35c-.15-.37.12-.25-.04.05v-.32q-.1.55-.03.28t-.11.24c-.26.43-.24.27-.1.14-.7.63-.33.2-.23.18a4 4 0 0 0 .5-.27l.55-.25c.52-.24-.35.14 0 0l.46-.19a65 65 0 0 1 8.1-2.7c3-.74 1.72-5.37-1.29-4.62Z" class="c"/><path d="M220.67 177.04a144 144 0 0 1 4 5.85 45 45 0 0 1 2 3.41l.35.7c.18.35-.06-.15-.08-.19l.14.35c.05.16.08.36.15.52.13.26-.04-.35-.04-.38.01.5.15-.6.06-.3a2 2 0 0 1 .52-.88c.53-.54 1.42-.64.51-.46q-.79.15-1.57.26a23 23 0 0 1-4.37.21l-1.32-.05-.9-.04c-.75-.03.36.07-.38-.06l-.24-.07-.09-.05c.05.08.16.08.21.18.28.48-.08-.21-.14-.35q-.47-1.14-.99-2.25-.99-2.1-2.03-4.2l-2.22-4.44-.83-1.71-.1-.23c-.22-.47.1-.18.04.11.02-.08-.1-.28-.13-.36-.83-2.98-5.46-1.71-4.63 1.27a19 19 0 0 0 1.35 3.02l2.17 4.35a175 175 0 0 1 2.72 5.65l.2.48c-.26-.6-.05-.11 0 .01a4.8 4.8 0 0 0 2.4 2.82c1.92.91 4.43.77 6.53.73a24 24 0 0 0 2.57-.2 14 14 0 0 0 3.78-.69c3.35-1.47.86-5.67-.35-7.73-1.57-2.67-3.35-5.2-5.14-7.71a2.47 2.47 0 0 0-3.28-.86 2.4 2.4 0 0 0-.86 3.28Zm20 19.46a33 33 0 0 0 9.25.79 2.4 2.4 0 1 0 0-4.8 28 28 0 0 1-5.64-.17l.64.08q-1.5-.2-2.98-.53a2.4 2.4 0 0 0-1.28 4.63m-89.15.17a74 74 0 0 1 6.85-4.35 2.4 2.4 0 0 0-2.42-4.14 74 74 0 0 0-6.85 4.35 2.6 2.6 0 0 0-1.1 1.43 2.4 2.4 0 0 0 1.67 2.96 2.4 2.4 0 0 0 1.85-.25M52 143.03c11.17 3.3 23.2 6.46 32.68 13.53l-.86-.86c4.56 6.95 7.88 14.43 11.46 21.9 1.4 2.91 3.07 5.83 3.86 8.99a34 34 0 0 1 .97 7.48c.05 3.08 4.85 3.1 4.8 0a33 33 0 0 0-2.32-12.11c-1.01-2.44-2.22-4.79-3.35-7.17-1.26-2.64-2.41-5.34-3.69-7.97q-1.94-4.03-4.15-7.92-1.16-2.04-2.41-4.02a12 12 0 0 0-1.4-2.08 12 12 0 0 0-1.66-1.22 69 69 0 0 0-14.61-7.3 237 237 0 0 0-18.04-5.87c-2.97-.88-4.24 3.75-1.28 4.62" class="c"/><path d="M94.96 174.62a92 92 0 0 0 11.59 8c4.11 2.25 8.78 3.2 13.28 4.38q7.86 2.06 15.82 3.73 4.17.86 8.36 1.58l1.93.32a8 8 0 0 0 1.93.3l.24.04q-.74-1.72-.8-.89s-.07.62-.05.43l-.2 1.45c-.63 4.42-1.38 8.83-2.11 13.23a2.47 2.47 0 0 0 1.67 2.95 2.4 2.4 0 0 0 2.96-1.67c.68-4.12 1.38-8.24 1.99-12.36.3-2.11 1.27-4.95-.36-6.71-1-1.09-2.38-1.14-3.75-1.36q-2.17-.35-4.33-.74a277 277 0 0 1-16.98-3.66q-4.1-1-8.2-2.11a53 53 0 0 1-6.77-1.96c-5.03-2.11-9.5-5.8-13.8-9.1a2.4 2.4 0 0 0-3.28.86 2.46 2.46 0 0 0 .86 3.29m-47.25-5.24a12 12 0 0 1 .05-1.1q-.04.32 0 .05a12 12 0 0 1 .4-1.58 12 12 0 0 1 1.28-2.63 11 11 0 0 1 2.14-2.48c.64-.57-.22.15.12-.1l.3-.23q.38-.27.77-.52a16 16 0 0 1 1.93-1.06c.06-.03.66-.27.16-.08l.6-.23q.7-.25 1.42-.43a13 13 0 0 1 2.86-.45 19 19 0 0 1 3.82.15 2.5 2.5 0 0 0 2.95-1.67 2.4 2.4 0 0 0-1.68-2.96c-5.05-.74-10.25-.18-14.6 2.67-4.13 2.69-7.43 7.57-7.32 12.65.06 3.08 4.86 3.1 4.8 0" class="c"/><path d="M47.19 193.92a128 128 0 0 0 13.33 17.86 112 112 0 0 0 14.27 12.65 107 107 0 0 0 9.32 6.81 44 44 0 0 0 11.32 4.62c3.7 1.01 7.5 1.6 11.23 2.49q6.65 1.56 13.44 2.47a161 161 0 0 0 27.04 1.45 5.7 5.7 0 0 0 5.14-2.72c.96-1.74.7-3.87.7-5.8q0-6-.1-12c-.06-3.69.02-7.44-.3-11.11-.2-2.37-1.77-3.64-4.01-3.96q-2.4-.37-4.77-.82c-7.6-1.44-15.1-3.32-22.62-5.15-3.45-.84-6.9-1.7-10.38-2.49a7.7 7.7 0 0 1-4.48-2.3c-1.56-1.76-3-3.64-4.42-5.49-4.98-6.43-9.35-13.28-13.85-20.05l-3.33-5c-1.71-2.55-5.87-.15-4.14 2.43 4.28 6.4 8.39 12.93 12.85 19.2q3.74 5.27 7.82 10.28a15 15 0 0 0 4.61 4.33 21 21 0 0 0 5.09 1.56c7.14 1.67 14.24 3.5 21.4 5.14q5.23 1.22 10.51 2.23 2.28.44 4.58.77c.11.02.72.16.76.08-.06.13-.4-1.13-.38.03 0 .86.06 1.72.08 2.57q.18 5.71.23 11.43c.05 3.7.23 7.48.04 11.19-.02.45.01.62-.39.83a8 8 0 0 1-2.32.06q-3.11.07-6.23 0-6.52-.12-13.02-.77a224 224 0 0 1-24.56-4.33 61 61 0 0 1-11.02-3.21 46 46 0 0 1-9.4-5.88 138 138 0 0 1-14.34-11.87 98 98 0 0 1-12.19-14.84q-1.72-2.53-3.37-5.11c-1.66-2.6-5.82-.19-4.15 2.42Z" class="c"/><path d="M50.47 138.7c-5.2 2.88-9.75 6.42-12.77 11.62-2.91 5.03-4.24 10.84-5.17 16.53-1.85 11.2-1.8 22.66-3.48 33.81-3.18 21.07-8.71 41.88-14.97 62.22q-2.21 7.2-4.64 14.3-1.13 3.3-2.33 6.59c-.78 2.15-2.16 4.54-1.69 6.89.59 2.95 3.2 4.25 5.94 4.5q3.33.3 6.67.58 7.7.67 15.4 1.27 16.56 1.3 33.13 2.3 7.88.45 15.77.8 3.53.14 7.07.24c2.17.07 4.77.5 6.88-.08a5.8 5.8 0 0 0 3.33-2.42 7.5 7.5 0 0 0 .93-4q.11-3.43.1-6.85c0-5.18-.13-10.36-.3-15.53-.33-10.47-.88-20.94-.8-31.41q.02-3.1.17-6.2c.16-3.08-4.64-3.08-4.8 0-.48 9.41-.01 18.87.32 28.28.35 10.04.82 20.1.56 30.15-.04 1.5.46 3.39-1.43 3.38-2.2-.01-4.4-.1-6.59-.17q-7.17-.24-14.34-.62a1446 1446 0 0 1-31.9-2.05q-14.63-1.09-29.26-2.39c-.66-.06-1.62.06-2.07-.53-.28-.38.13-1.09.38-1.74q1.12-2.97 2.18-5.96 2.38-6.69 4.51-13.46a476 476 0 0 0 15.31-60.16q1.22-6.72 2.02-13.48c.68-5.9.88-11.84 1.42-17.74a103 103 0 0 1 2.6-16.3c1.35-5.24 3.59-10.18 7.7-13.83a36 36 0 0 1 6.57-4.38c2.7-1.5.29-5.64-2.42-4.15Zm20.12-49.58a9.6 9.6 0 0 0-9.09-2.9c-3.12.76-5.16 3.51-5.9 6.51-1.3 5.24.76 11.3 4.5 15.07a22 22 0 0 0 7.96 4.86 2.4 2.4 0 0 0 2.95-1.67 2.45 2.45 0 0 0-1.67-2.96c-4.64-1.76-7.95-4.85-9-9.58-.47-2.11-.57-4.7.75-6.5 1.62-2.19 4.56-1 6.1.57 2.17 2.2 5.57-1.2 3.4-3.4m32.96-1.84c.74 1.72.9 5.89-2.28 6.62-4.26.48-5.1-4.48-3.94-7 .94-2.05 4.29-3.25 6.22.38m10.1 22.58a20 20 0 0 1-3.46-.12l.64.09a12 12 0 0 1-3.06-.8l.57.23-.54-.25a2.6 2.6 0 0 0-1.85-.24 2.4 2.4 0 0 0-.57 4.38 16.6 16.6 0 0 0 8.26 1.5 2.4 2.4 0 0 0 0-4.8Z" class="c"/><path d="M87.85 139.13a43 43 0 0 1 1.65-4.86c.05-.12.38-.9.2-.5l.15-.34c.22-.52.31-.68-.04-.18.04-.05-.1-.12-.15-.02q-.3-.02 0 .03l.32.07a26 26 0 0 0 10.1-.16 21 21 0 0 0 8.78-3.27 16.6 16.6 0 0 0 5.78-8.8 50 50 0 0 0 1.75-11.05 6.2 6.2 0 0 1 1.36-3.87c.88-1.06 1.97-1.88 2.76-3.02 2.16-3.1.65-6.88-2.23-8.9a13 13 0 0 1-3.06-2.23 10 10 0 0 1-1.54-2.82 32 32 0 0 1-1.55-8.93c-.28-4.14-.23-8.21-1.05-12.31a2.4 2.4 0 0 0-4.63 1.27c1.25 6.25.45 12.67 1.92 18.9a16.5 16.5 0 0 0 3.66 7.5 14 14 0 0 0 3.36 2.46 3 3 0 0 1 1.21 1.22 1.2 1.2 0 0 1 .15.8c-.38.97-1.57 1.74-2.3 2.55a12 12 0 0 0-2.6 4.78 33 33 0 0 0-.45 4.92 46 46 0 0 1-.87 5.43c-.68 3.02-1.79 6.2-4.35 8.14-2.25 1.7-5.49 2.35-8.26 2.74a25 25 0 0 1-5.26.2c-1.77-.13-3.45-.82-5.13.14a4.6 4.6 0 0 0-1.93 2.22c-.37.83.27-.64-.05.1l-.46 1.1a44 44 0 0 0-1.87 5.4c-.8 3 3.83 4.27 4.63 1.28Z" class="c"/><path d="M113.14 76.4a45.5 45.5 0 0 0-5.18-20.1 42 42 0 0 0-12.6-13.93c-10.49-7.35-24.31-8.5-36.6-6.12a43 43 0 0 0-26.3 16.1 59 59 0 0 0-9.2 17.54c-1.99 6.17-2 12.48-1.35 18.88.72 7.01 2.91 13.8 3.4 20.83a30.5 30.5 0 0 1-2.96 15.46 2.47 2.47 0 0 0 .86 3.28 2.4 2.4 0 0 0 3.29-.86 36 36 0 0 0 3.7-14.46c.13-5.76-1.1-11.53-2.33-17.13a61 61 0 0 1-1.47-17.88c.52-6.13 3.23-12.05 6.28-17.3 4.96-8.57 12.05-15.23 21.58-18.34a53 53 0 0 1 16.95-2.48 41 41 0 0 1 16.67 3.66 36 36 0 0 1 14.58 12.92 39.5 39.5 0 0 1 5.88 19.94c.12 3.08 4.92 3.1 4.8 0m244.84 34.43a89 89 0 0 1 9.93 17.3 80 80 0 0 1 4.71 17.92c2.23 14.34.97 28.76-1.07 43.04-.8 5.6-1.52 11.2-1.96 16.84a50 50 0 0 0 .13 10.12c.94 7.62 2.28 15.2 3.62 22.75a1473 1473 0 0 0 10.08 51.85l.78 3.52c.1.5.2.74-.26 1.03a8 8 0 0 1-2.4.43q-1.13.18-2.28.33c-5.84.74-11.74 1.08-17.62 1.44-15.4.95-30.82 1.4-46.24 1.51q-5.5.04-11 .02l-5.76-.02-2.89-.02a14 14 0 0 1-2.9-.03c-.8-.2-.66-.8-.74-1.54l-.39-3.45q-.42-3.92-.79-7.84c-1.06-11.3-2.01-22.69-1.94-34.05q0-3.14.22-6.27a2.4 2.4 0 0 0-2.4-2.4 2.45 2.45 0 0 0-2.4 2.4c-.83 10.99.19 22.2 1.09 33.15q.68 8.26 1.59 16.5c.3 2.75.26 5.9 2.95 7.5 1.6.96 3.44.8 5.23.82l6.25.05a968 968 0 0 0 46.97-.83q11.02-.5 22.02-1.3 4.19-.29 8.34-.8c3.1-.37 7.38-.28 9.34-3.15 1.33-1.96.8-4.05.33-6.16q-.48-2.17-.94-4.35-1.2-5.68-2.34-11.38-2.88-14.3-5.53-28.66a796 796 0 0 1-4.51-26.22l-.36-2.44-.15-1.13-.1-.76q-.24-1.72-.38-3.47c-.39-4.98.4-10.15.98-15.1.8-6.7 1.89-13.36 2.59-20.07a136 136 0 0 0 .69-21.96c-.78-13.46-3.73-26.66-10.47-38.42-1.8-3.14-3.8-6.16-5.87-9.12a2.47 2.47 0 0 0-3.29-.86 2.4 2.4 0 0 0-.86 3.28m-66.03 55.8c-5.66 3.42-11.76 6-17.7 8.9-2.82 1.38-5.75 2.57-8.65 3.8-3.83 1.62-7.66 3.23-11.42 4.98a43 43 0 0 0-3.92 1.96 3.8 3.8 0 0 0-2.15 4.32 28 28 0 0 0 1.24 4.04q.71 2.2 1.38 4.4 1.33 4.42 2.71 8.82c1.38 4.4 5.57 1.68 4.63-1.28-1.58-4.97-2.97-10-4.66-14.94a15 15 0 0 1-.51-1.52c-.19-.82.1-.55-.34.2-.34.57-.43.51-.25.33.32-.32-.58.33-.1.08q.3-.17.6-.37c1.21-.7 2.5-1.3 3.8-1.9 6.38-2.96 13.03-5.38 19.37-8.43 6.18-2.98 12.52-5.69 18.4-9.25 2.63-1.6.22-5.75-2.43-4.14" class="c"/><path d="M361.4 107.6c-2-1.9-2.6-4.76-3.64-7.22-.58-1.38-1.18-3.11-2.76-3.58a2.55 2.55 0 0 0-3.07 3.4l1.68-2.95a120 120 0 0 0-22.45 10.25 115 115 0 0 0-19.03 14.39 9 9 0 0 0-1.92 2.25l-1.4 2.63q-1.32 2.57-2.58 5.18-2.62 5.51-4.98 11.16a224 224 0 0 0-8.47 23.98 148 148 0 0 0-5.34 26.47 2.4 2.4 0 0 0 2.4 2.4 2.45 2.45 0 0 0 2.4-2.4c1.54-15.6 6.38-30.97 12.14-45.49a203 203 0 0 1 9.63-20.86 15 15 0 0 1 3.62-3.83q2.24-1.99 4.57-3.86a101 101 0 0 1 8.9-6.34 112 112 0 0 1 23.78-11.29c1.1-.38 2.2-1.7 1.68-2.95l-.02.2-1.2 2.08.1-.05-1.85.24q-1.28-1.11-.71-.23l.32.66q.25.56.46 1.13c.35.92.67 1.85 1.04 2.77A15 15 0 0 0 358 111c2.23 2.14 5.63-1.25 3.4-3.4" class="c"/><path d="M324.25 128.8c10.86-6.33 22.26-11.94 34.3-15.67 2.93-.92 1.68-5.55-1.29-4.63-12.41 3.85-24.23 9.63-35.43 16.16-2.67 1.56-.26 5.7 2.42 4.15m-8.18-8.31q-.73-2.92-1.5-5.83l-.23-.85q-.81 1.23-.21.84a5 5 0 0 0 1.17-.6q1.07-.55 2.15-1.08 4.9-2.38 9.93-4.44 10.23-4.19 20.77-7.59c2.92-.95 1.67-5.58-1.28-4.63Q335 100.15 323.5 105c-3.71 1.57-7.4 3.24-10.98 5.09-2.06 1.06-3.33 2.56-2.82 5 .47 2.25 1.18 4.46 1.73 6.69.75 3 5.38 1.72 4.63-1.28m-249.9 20.04c4.37 1.57 8.72 3.19 13 4.99q1.6.67 3.16 1.4l.76.35c.27.12.26.2.05 0 .04.03.42.5.21.22a7 7 0 0 1 .42.65 6 6 0 0 1 .34.66c-.17-.42.03.12.03.18-.07-.67.01.19.02.25l.1.86a39 39 0 0 1 .3 4.25c.03 3.09 4.83 3.1 4.8 0a41 41 0 0 0-.34-4.55 10 10 0 0 0-.87-3.63 7 7 0 0 0-2.39-2.9 27 27 0 0 0-3.32-1.52 262 262 0 0 0-15-5.84 2.4 2.4 0 0 0-2.95 1.68 2.45 2.45 0 0 0 1.68 2.95m270.8-1.75c5.7-2.5 13.12-1.97 17.82 2.35 5.26 4.82 7.6 12.1 7.92 19.07.14 3.08 4.94 3.1 4.8 0-.39-8.34-3.27-17.42-9.88-22.96-6.48-5.42-15.52-5.94-23.08-2.6a2.4 2.4 0 0 0-.86 3.28 2.46 2.46 0 0 0 3.28.86m-233-76.84a46 46 0 0 1-1.92 4.5 28 28 0 0 1-2.04 3.42c-.03.05-.53.64-.17.24l-.35.4a12 12 0 0 1-1.15 1.1c-.03.03-.59.45-.2.18a16 16 0 0 1-2 1.24q-.54.3-1.1.54l-.66.24a15 15 0 0 1-2.26.6 2.4 2.4 0 0 0-1.68 2.95 2.47 2.47 0 0 0 2.96 1.68 17.4 17.4 0 0 0 9.5-5.14c2.73-3 4.26-6.95 5.7-10.67a2.4 2.4 0 0 0-1.68-2.96 2.47 2.47 0 0 0-2.95 1.68" class="c"/><path d="M91.15 62.8a72 72 0 0 1-2.12 8.57 26 26 0 0 1-3.93 6.8 27 27 0 0 1-10.39 7.97 2.4 2.4 0 0 0-.86 3.29 2.45 2.45 0 0 0 3.29.86A32 32 0 0 0 93.4 73.33a61 61 0 0 0 2.37-9.25c.66-3.01-3.96-4.3-4.63-1.28m-49.2 62.07c.12-.3.1-.24-.02 0l-.22.43q-.21.38-.46.74-.14.21-.3.41c.15-.18.13-.15-.01 0q-.32.38-.68.73-.42.4-.88.78c-.46.38.23-.16-.11.08a15 15 0 0 1-2.04 1.27q-.81.42-1.64.79c-.25.1.3-.12-.12.04l-.41.16-1.08.39a37 37 0 0 1-4.63 1.2 2.4 2.4 0 0 0-1.67 2.96 2.46 2.46 0 0 0 2.95 1.67 32 32 0 0 0 9.36-3.25 14.6 14.6 0 0 0 6.59-7.13 2.4 2.4 0 0 0-1.68-2.95 2.5 2.5 0 0 0-2.95 1.67Zm21.32-15.45c-1.56 2.77-1.96 6.04-2.14 9.16-.16 2.7.11 5.44-.24 8.12a11.5 11.5 0 0 1-4.19 7.52l-.26.2q-.35.27-.7.5a17 17 0 0 1-1.65.93 16 16 0 0 1-3.22 1.2 38 38 0 0 1-11.56.98c-3.09-.1-3.08 4.7 0 4.8 6.48.24 13.75-.22 19.25-4.05a16.5 16.5 0 0 0 6.14-7.63c1.18-3.06 1.1-6.32 1.13-9.55.03-3.18.02-6.99 1.58-9.76 1.52-2.7-2.63-5.12-4.14-2.42m90.85 103.99c2.44-2.56 4.7-5.46 8.28-6.3 3.51-.83 7.37-.25 10.9.3q2.45.37 4.87.94a19 19 0 0 1 4.92 1.4c.74.41 1.55 1.3.84 2.16s-2.82 1.4-3.88 1.9a2.4 2.4 0 0 0-.86 3.28 2.46 2.46 0 0 0 3.28.86 22 22 0 0 0 4.41-2.3 5.7 5.7 0 0 0 2.08-4.5c.02-4-3.46-5.88-6.83-6.76a79 79 0 0 0-10.13-1.97c-3.77-.48-7.59-.82-11.32.17-4.22 1.1-7.05 4.38-9.95 7.42-2.13 2.24 1.26 5.64 3.4 3.4Z" class="c"/><path d="M176.28 216.85a120 120 0 0 0 19.73 12.4c3.35 1.68 6.76 3.22 10.17 4.78a3.2 3.2 0 0 1 2.1 2.1 1.67 1.67 0 0 1-1.15 2.38 29 29 0 0 1-8.15 1.4q-4.25.3-8.5.34a184 184 0 0 1-18.68-.72c-5.8-.53-11.77-1.24-17.32-3.13-2.93-1-4.18 3.63-1.27 4.63 5.39 1.84 11.2 2.55 16.83 3.13a181 181 0 0 0 20.27.9q4.49-.04 8.96-.36a35 35 0 0 0 9.42-1.66 6.8 6.8 0 0 0 4.2-3.84 7.4 7.4 0 0 0-.58-5.85c-1.67-3.32-5.73-4.35-8.85-5.82a124 124 0 0 1-23.78-14.07 2.5 2.5 0 0 0-3.4 0 2.4 2.4 0 0 0 0 3.4Z" class="c"/><path d="M204.4 230.66c-5.99 1.39-12.17 2.33-19.15 3.36a8 8 0 0 0-3.95 1.82 4.5 4.5 0 0 0-1.22 3.75 4.1 4.1 0 0 0 3.16 3.75 14 14 0 0 0 4.2.44l.69 1.53a8.3 8.3 0 0 0 3.2 3.65 9 9 0 0 0 3.9.98 56 56 0 0 0 8-.37l1.5 2.68a85 85 0 0 0 19.25-1.42 70 70 0 0 0 22.32-7.77l7.75-2.65a644 644 0 0 1-4.97-26.65l-6.65.72c-4.89.07-8.7.26-13.49-.43-7.86-1.14-12.44-2.18-17.58-2.83-2.13-.28-4.26.76-4.78 2.31a5.2 5.2 0 0 0 1.52 5.2c4.13 3.94 5.4 4.63 8.74 6.04-.43 2.1-3.6 3.43-5.78 4.1a99 99 0 0 1-6.67 1.79" class="a"/><path d="M214.49 224.45c.04-.33-.18.11-.3.24a4 4 0 0 1-.9.66 13 13 0 0 1-2.58 1.12c-2.57.83-5.2 1.48-7.84 2.07a229 229 0 0 1-16.59 2.92c-2.58.38-5.26 1-7.04 3.08a7.3 7.3 0 0 0-.93 7.63c2.48 5.16 9.62 4.08 14.19 3.5 6.51-.81 12.95-2.06 19.4-3.34a2.4 2.4 0 0 0-1.28-4.63c-5.27 1.05-10.53 2.1-15.85 2.87a57 57 0 0 1-7.61.81c-1.33.02-3.9.13-4.58-1.38-.78-1.74.75-2.98 2.23-3.42a62 62 0 0 1 7.8-1.26c5.04-.8 10.08-1.71 15.03-3 4.38-1.12 10.97-2.46 11.65-7.87a2.4 2.4 0 0 0-2.4-2.4 2.46 2.46 0 0 0-2.4 2.4" class="c"/><path d="M186.06 246.52a10 10 0 0 0 4.63 4.78 16.6 16.6 0 0 0 7.4 1.04 95 95 0 0 0 15.93-2.13 2.4 2.4 0 0 0-1.27-4.63 93 93 0 0 1-13.23 1.9 18 18 0 0 1-6.03-.22 5.4 5.4 0 0 1-3.29-3.16 2.4 2.4 0 0 0-3.28-.86 2.45 2.45 0 0 0-.86 3.28" class="c"/><path d="M204.74 254.65a84 84 0 0 0 42.78-9.52c2.72-1.46.3-5.6-2.42-4.14a79 79 0 0 1-40.36 8.86c-3.09-.12-3.08 4.68 0 4.8m37.7-42.57a84 84 0 0 1-13.34-.42c-3.9-.56-7.79-1.27-11.67-1.93-3.49-.6-7.7-1.87-10.88.25a5.8 5.8 0 0 0-2.54 5.52 8.8 8.8 0 0 0 3.09 5.59 29 29 0 0 0 8.7 5.83 2.5 2.5 0 0 0 3.28-.86 2.4 2.4 0 0 0-.86-3.29 22 22 0 0 1-5.95-3.46c-1.08-.94-2.66-2-3.27-3.34-.54-1.2-.23-2.07 1.05-2.33a12 12 0 0 1 3.85.35q2.13.34 4.25.72c3.64.63 7.28 1.27 10.95 1.76a90 90 0 0 0 13.33.41c3.09-.04 3.1-4.84 0-4.8Zm115.53-30.82a162 162 0 0 1-16.23 29.3q-4.67 6.48-9.94 12.49a52 52 0 0 1-6.08 6.46 41 41 0 0 1-6.41 4.38 47 47 0 0 1-8.96 3.18q-4.87 1.43-9.78 2.74-9.03 2.42-18.16 4.46-7.39 1.66-14.83 3.09-2.76.52-5.54 1l-2.1.34c-.51.08-1.3.3-1.5.14-.32-.27-.32-.77-.4-1.19q-.29-1.25-.55-2.5l-1.07-5.16q-1.1-5.29-2.12-10.59a482 482 0 0 1-3.47-19.9l-1.67 2.95a733 733 0 0 0 39.36-11.8q4.9-1.6 9.79-3.24c3.05-1.03 6.17-1.75 8.19-4.47a17 17 0 0 0 1.85-3.86l1.87-4.69 3.63-9.13a1292 1292 0 0 1 8.32-20.48 2.4 2.4 0 0 0-1.67-2.95 2.46 2.46 0 0 0-2.96 1.67c-4.87 11.66-9.48 23.42-14.16 35.15a5 5 0 0 1-1.5 2.27c-1.2.93-2.96 1.23-4.38 1.7q-4.66 1.56-9.33 3.1-9.42 3.08-18.9 6-10.64 3.23-21.38 6.1a2.47 2.47 0 0 0-1.68 2.96 610 610 0 0 0 7.1 37.73 6.5 6.5 0 0 0 1.9 3.9 5.7 5.7 0 0 0 4.76 1.12q2.2-.32 4.38-.72 6.75-1.18 13.43-2.62a431 431 0 0 0 38.19-9.8 33 33 0 0 0 8.53-4.02 36 36 0 0 0 6.65-5.4c4.06-4.44 7.96-9 11.62-13.77a160 160 0 0 0 19.34-33.51 2.5 2.5 0 0 0-.86-3.29 2.4 2.4 0 0 0-3.28.87Z" class="c"/></svg>
