<svg xmlns="http://www.w3.org/2000/svg" viewBox="0 -30.21 389.026 389.026"><defs><style>.a{fill:#fff}.c{fill:#211715}</style></defs><path d="M352.67 94.93a12 12 0 0 0-1.82 5.44 20 20 0 0 0 .53 3.56 107 107 0 0 0-33.86 19.71l-4.1-9.59a64 64 0 0 1-2.96-7.45 2.1 2.1 0 0 0-2.58-1.08c-4.18 1.44-10.8 1.25-15.73-.18a12.2 12.2 0 0 1-7.08-5.72 26 26 0 0 1-2.48-6 60 60 0 0 1-1.9-9.06 10 10 0 0 0-2.49-3.97c-1.8-1.71-4.62-2.95-3.44-6.2a6 6 0 0 1 2.51-2.9c5.6-3.53 5.25-12.35 5.02-18.71a48 48 0 0 1-.15-9.92s.64-13.78 35.47-10.34c24.18 2.4 40.08 13.39 42.43 38.45a32.8 32.8 0 0 1-7.37 23.96" class="a"/><path d="m372.75 50.97-.08-1.11c-.55-6.58-1.11-8.8-2.76-11.89l-4.42-7.2c-1.1-5.93-4.83-12.17-9.95-17.16l-.71-.68a37 37 0 0 0-11.55-7.35 46.2 46.2 0 0 0-35.17.61 35 35 0 0 0-10.97 7.2l-5.2 5.16a28.7 28.7 0 0 0-9.42 16.21 34 34 0 0 0-.68 4.48l11.9 1.03c9.87 1.12 19.96 3.3 25.7 8.48 3.22 3.14 2.59 9.26 5.81 13.85a8.5 8.5 0 0 1 4.47-3.77 6 6 0 0 1 5.17.46c2.2 1.38 3.36 4.5 3.4 7.13a15.4 15.4 0 0 1-3.42 10.47l.22.53c2.4 5.65 10.88 14.31 17.58 17.51l.3-.5c2.2-3.55 5.62-6.97 7.82-9.7 5.14-6.42 12.91-17.6 11.96-33.76" style="fill:#85807f"/><path d="M92.87 167.94c-1.22-3.95-3-14.3-6.4-17.66-1.68-1.69-4.68-2.96-6.82-4-2.32-1.13-6.97-2.5-10.18-3.87a40 40 0 0 1-8.2 4.26c8.97 2.84 18.18 6.3 24.63 11.16a118 118 0 0 1 7.55 13.45Zm62.62 1.89a40.5 40.5 0 0 0 .89 21.64c2.2 6.5 5.4 11.14 9.37 16.2a22 22 0 0 1 2.33.08 73 73 0 0 1 15.01 2.72 5.8 5.8 0 0 1 3.03 2.22 3.66 3.66 0 0 1-.7 4.4c-1.92 1.44-3.29 1.5-5.52 2.86 8.04 6 16.01 10.1 24.57 14.02q3.32-.77 6.6-1.77c3.28-1 5.34-2 5.77-4.1-3.34-1.4-4.6-2.1-8.74-6.03a5.2 5.2 0 0 1-1.51-5.2c.51-1.55 2.64-2.59 4.78-2.31 4.13.53 7.9 1.3 13.3 2.17a63 63 0 0 0 8.92-8.02 47 47 0 0 0 10.2-17.25 40.5 40.5 0 0 0 .86-21.74 22 22 0 0 0-13.04-14.85c-3.53-1.52-10.5-1.76-14.78-.59a30 30 0 0 0-15.38 9.3 1.78 1.78 0 0 1-2.74 0 25 25 0 0 0-2.73-2.78 32 32 0 0 0-12.65-6.52c-4.28-1.17-11.24-.93-14.77.59a22 22 0 0 0-13.04 14.85Z" class="a"/><path d="M160 208.65a18 18 0 0 1 5.74-.98c-3.52-4.5-6.43-8.65-8.58-14.07a67 67 0 0 0-8.07 5.26c-.6 4-1.37 8.56-1.83 11.32l-.18 1.04 1.72.24a1.6 1.6 0 0 1 1.38 1.52q.08 1.95.15 4.24l2.1-2.17c2.44-2.55 4.99-5.47 7.58-6.4m82.44 9.17 6.63-.8q-.3-1.83-.55-3.54 3.77-1 7.48-2.04l-.24-.89c-1-3.12-2.58-8.48-3.87-12.53l-1.97.2a29 29 0 0 1-8.61-.7 47 47 0 0 1-6.06 9.26q-.8.97-1.66 1.93a62 62 0 0 1-8.91 8.02q1.97.33 4.26.66c4.79.7 8.6.5 13.5.43" class="a"/><path d="M207.6 235.39c-9.77-4.37-18.69-8.72-27.7-15.43 2.23-1.37 3.6-1.43 5.53-2.86a3.66 3.66 0 0 0 .69-4.4 5.8 5.8 0 0 0-3.03-2.23 73 73 0 0 0-15.01-2.71 23 23 0 0 0-2.34-.09 18 18 0 0 0-5.73.98c-2.6.94-5.14 3.85-7.58 6.4l-2.1 2.17c.2 6.92.3 15.7.24 22.08a3 3 0 0 1-.47 1.57l3.74 1.18c6.85 2.38 19.06 3.65 30.42 3.9a138 138 0 0 0 18.41-.65 26 26 0 0 0 5.75-1.39 3.9 3.9 0 0 0 2.45-3.39 5.5 5.5 0 0 0-3.28-5.13" class="a"/><path d="M154.12 216.75c2.44-2.55 4.7-5.46 8.28-6.3 3.51-.83 7.37-.25 10.9.3q2.45.38 4.87.95a19 19 0 0 1 4.92 1.39c.74.42 1.55 1.3.84 2.17s-2.82 1.4-3.88 1.9a2.4 2.4 0 0 0-.86 3.27 2.45 2.45 0 0 0 3.28.86 22 22 0 0 0 4.41-2.3 5.7 5.7 0 0 0 2.08-4.5c.03-3.99-3.46-5.88-6.83-6.76a79 79 0 0 0-10.13-1.97c-3.78-.47-7.59-.81-11.32.17-4.22 1.11-7.05 4.38-9.95 7.43-2.13 2.23 1.26 5.63 3.4 3.39Z" class="c"/><path d="M176.28 220.2a120 120 0 0 0 19.73 12.39c3.35 1.68 6.76 3.23 10.17 4.78a3.2 3.2 0 0 1 2.1 2.11 1.67 1.67 0 0 1-1.15 2.37 29 29 0 0 1-8.15 1.41q-4.25.3-8.5.34a184 184 0 0 1-18.68-.73c-5.8-.52-11.77-1.23-17.32-3.13-2.93-1-4.18 3.64-1.27 4.63 5.39 1.85 11.2 2.56 16.83 3.13a182 182 0 0 0 20.27.9q4.49-.03 8.96-.36a35 35 0 0 0 9.42-1.66 7 7 0 0 0 4.2-3.84 7.4 7.4 0 0 0-.58-5.85c-1.67-3.32-5.72-4.35-8.85-5.81a124 124 0 0 1-23.78-14.07 2.5 2.5 0 0 0-3.4 0 2.4 2.4 0 0 0 0 3.4Zm-24.76-20.18a74 74 0 0 1 6.85-4.35 2.4 2.4 0 0 0-2.42-4.15 74 74 0 0 0-6.85 4.35 2.6 2.6 0 0 0-1.1 1.43 2.5 2.5 0 0 0 .24 1.85 2.4 2.4 0 0 0 1.44 1.1 2.4 2.4 0 0 0 1.84-.24Z" class="c"/><path d="M167.43 205.96c-3.95-5.05-7.47-10.49-9.23-16.73a36.4 36.4 0 0 1-.27-19.24 19.7 19.7 0 0 1 9.63-11.97c4.56-2.5 10.6-2.71 15.56-1.3a31 31 0 0 1 8.67 3.9 24 24 0 0 1 3.46 2.76c1.21 1.17 2.15 2.73 3.9 3.13a4.5 4.5 0 0 0 4.48-1.78 24 24 0 0 1 3.24-3.05 29 29 0 0 1 7.84-4.22 25 25 0 0 1 8.46-1.51 18.45 18.45 0 0 1 18.36 11.92c2.57 6.45 2.33 14.34.55 20.96A45.4 45.4 0 0 1 231.9 207c-2.04 2.3 1.34 5.72 3.4 3.4a53 53 0 0 0 10.52-17.5 42.5 42.5 0 0 0 1.63-21.6 24.8 24.8 0 0 0-9.93-15.86c-5.13-3.7-11.3-4.8-17.52-4.13a32.3 32.3 0 0 0-18.09 8.3q-.87.82-1.67 1.72c-.06.06-.52.52-.49.58-.04-.07.54-.07.5-.05.26-.14.17.31.03-.14-.2-.63-1.32-1.44-1.8-1.89q-.95-.9-2-1.72a35 35 0 0 0-9.43-5.17 29 29 0 0 0-9.86-1.8 23.2 23.2 0 0 0-22.36 13.53c-3 6.4-3.3 13.91-2.3 20.82a45 45 0 0 0 8.2 19.46 118 118 0 0 0 3.31 4.4 2.4 2.4 0 0 0 3.4 0 2.46 2.46 0 0 0 0-3.4Z" class="c"/><path d="M213.38 181.77c-.93-1.86-1.76-3.5-2.19-4.46l-1.8 1.06c-3.24 1.9-11.81 8.1-13.41 8.4a2.5 2.5 0 0 1-2.5-1.23c-1.43-1.92-5.98-6.71-3.78-8.38 1.1-.85 8.43-3.29 10.32-3.74l1.85-.63a36 36 0 0 1-5.92-2.9c-3.8-2.36-2.06-5.42-.9-8.4 1.26-3.25 2.37-4.92 6.5-3.82 3.19.86 7.89 5.42 10.1 7.18l.19-.28c.54-.72 1.85-.2 3.6.52 1.5.62 3.27 1.52 3.76 2.37l.03.06c5.81-.52 12-.74 14.07.84 2.94 2.76 1.01 8.55-1.17 11.58-.6 1.04-2 1.4-3.92.76-1.6-.26-4.16-1.58-6.41-2.87l.95 1.34c1.67 2.35 8.38 11.73 6.53 12.08a30 30 0 0 1-9.15.53c-1.11-.05-2.28-.37-2.68-1.41-.75-1.97-2.55-5.56-4.07-8.6" style="fill:#f2635f"/><path d="M213.08 162.95c-2.6-2.16-5.08-4.56-8-6.3-2.9-1.73-7-2.67-9.79-.22a10 10 0 0 0-2.4 4.03 21 21 0 0 0-1.52 4.43 6.5 6.5 0 0 0 1.63 5.7 17 17 0 0 0 5.49 3.34 30 30 0 0 0 6.16 2.13c1.67.33 3.36.54 5.05.75a2.4 2.4 0 0 0 2.4-2.4 2.46 2.46 0 0 0-2.4-2.4l-.59-.07-.5-.06-.66-.1-1.1-.18a22 22 0 0 1-4.39-1.15 55 55 0 0 1-1.95-.84 27 27 0 0 1-2.55-1.3 7 7 0 0 1-1.66-1.21c-.25-.28.18.41-.09-.13l-.2-.37c.22.48.03.05.03-.07 0-.18-.03.42-.02-.13 0-.2.14-.96 0-.43.1-.33.15-.67.25-1q.31-.99.72-1.93l.36-.91.2-.5c.16-.38-.23.5.04-.08a12 12 0 0 1 .85-1.54c-.28.42-.02.12.13-.1.26-.35-.31.15-.08.06l.31-.2c.19-.12.25.04-.16.07l.38-.1c.2-.06.49 0-.06 0l.56-.01.4.02c-.47-.03-.1-.01.01 0q.57.11 1.14.27l.34.11c.55.17-.27-.18.04.02s.69.34 1.01.52a22 22 0 0 1 2.02 1.34c.7.52.92.69 1.7 1.34 1.19.98 2.33 2 3.5 2.98a2.47 2.47 0 0 0 3.4 0 2.4 2.4 0 0 0 0-3.4Z" class="c"/><path d="M199.37 171.1a65 65 0 0 0-8.09 2.7 10 10 0 0 0-3.51 1.87c-1.47 1.5-1.16 3.63-.39 5.37a21 21 0 0 0 2.86 4.27l1.26 1.56c-.49-.6.06.1.09.13a8 8 0 0 0 .56.68 5 5 0 0 0 1.9 1.25c2.83 1.04 5.7-1.38 7.93-2.83 2.88-1.88 5.67-3.92 8.63-5.66 2.65-1.57.24-5.72-2.43-4.14-2.26 1.33-4.42 2.86-6.6 4.32a141 141 0 0 1-6.25 3.87c-.33.2.6-.25.14-.07-.26.1.53.02.09-.02-.35-.02.02-.02.05 0 .4.35-.53-.65-.15-.19l-.79-1.01-1.17-1.47-.05-.06-.35-.47a22 22 0 0 1-1.2-1.84l-.2-.37c-.31-.57.08.27-.04-.08l-.11-.35c-.15-.37.12-.25-.03.05l-.01-.31q-.1.54-.03.27c.07-.27.01-.1-.11.24-.26.43-.24.27-.1.14-.7.63-.33.21-.23.18a4 4 0 0 0 .5-.27l.55-.25c.52-.24-.35.14.01 0l.46-.18a65 65 0 0 1 8.09-2.7c3-.75 1.73-5.38-1.28-4.63" class="c"/><path d="M242.44 217.82c-4.9.07-8.71.27-13.5-.43q-2.3-.33-4.26-.65c-5.4-.88-9.18-1.65-13.31-2.18-2.14-.27-4.27.77-4.78 2.31a5.2 5.2 0 0 0 1.51 5.2c4.13 3.94 5.4 4.63 8.74 6.04-.43 2.1-3.59 3.43-5.77 4.1-8.13 2.48-16.22 3.73-25.82 5.15a8 8 0 0 0-3.95 1.82 4.5 4.5 0 0 0-1.22 3.74 4.1 4.1 0 0 0 3.16 3.75 15 15 0 0 0 4.32.44l.57 1.53a8.3 8.3 0 0 0 3.2 3.66 9 9 0 0 0 3.91.98 55 55 0 0 0 7.53-.33 7 7 0 0 0 1.97 2.64 85 85 0 0 0 19.24-1.42 70 70 0 0 0 22.33-7.77l7.64-3.17c-1.83-8.9-3.6-18.25-4.88-26.22Z" class="a"/><path d="M204.74 258a84 84 0 0 0 42.78-9.52c2.72-1.47.3-5.61-2.42-4.15a79 79 0 0 1-40.36 8.86c-3.09-.12-3.08 4.68 0 4.8m37.7-42.58a84 84 0 0 1-13.34-.41c-3.9-.57-7.79-1.27-11.67-1.94-3.49-.59-7.69-1.87-10.88.25a5.8 5.8 0 0 0-2.54 5.52 8.7 8.7 0 0 0 3.09 5.59 29 29 0 0 0 8.7 5.83 2.5 2.5 0 0 0 3.28-.86 2.4 2.4 0 0 0-.86-3.28 22 22 0 0 1-5.95-3.47c-1.08-.93-2.66-2-3.26-3.34-.55-1.2-.24-2.07 1.04-2.33a12 12 0 0 1 3.85.35q2.12.34 4.25.72c3.64.63 7.28 1.27 10.95 1.77a90 90 0 0 0 13.33.4c3.09-.04 3.1-4.84 0-4.8Zm-1.78-15.58a33 33 0 0 0 9.26.78 2.4 2.4 0 0 0 0-4.8 28 28 0 0 1-5.64-.17l.64.09q-1.5-.21-2.98-.53a2.4 2.4 0 1 0-1.28 4.63m-24.59-37.07c-1.81-.74-4.26-1.69-5.87.02a12 12 0 0 0-2.03 3.48 16 16 0 0 0-1.4 4.72 4.7 4.7 0 0 0 1.83 4.23 15 15 0 0 0 5.45 2.76 4.7 4.7 0 0 0 2.59.2 3.6 3.6 0 0 0 1.6-1.06 11 11 0 0 0 1.74-2.9 25 25 0 0 0 1.32-3.69 7 7 0 0 0 .23-3.64 5 5 0 0 0-2.33-2.6 20 20 0 0 0-3.13-1.52 2.4 2.4 0 0 0-2.95 1.68 2.5 2.5 0 0 0 1.68 2.95c-.57-.24.01 0 .1.05l.52.24a15 15 0 0 1 1.44.8l.13.09q.33.23-.1-.1l.31.3q.26.28-.14-.2.23.37-.15-.4c.14.44-.01-.64-.02-.34v.4l-.02.24c-.03.38.11-.7.04-.3l-.13.66a19 19 0 0 1-.82 2.63c-.08.2-.43 1-.07.2l-.24.54a13 13 0 0 1-.64 1.22l-.3.46c-.28.43.48-.48.05-.07-.2.2-.5.32.2-.13l-.12.08a2 2 0 0 1 .96-.27c1 .01.52.07.19 0a13 13 0 0 1-1.67-.47c-.58-.2.44.22-.08-.04l-.39-.18-1.2-.62q-.43-.25-.84-.52c-.44-.3.4.36.03.01l-.3-.27-.26-.29.23.29-.13-.2c.15.13.2.56.14.3-.1-.33.01.75.02.19l.03-.66c-.01.86 0 .04.07-.22a14 14 0 0 1 .49-1.62l.15-.4c.08-.2.4-.68.04-.12a9 9 0 0 0 .42-.9 16 16 0 0 1 .79-1.44l.16-.27c.15-.2.44-.41-.1.11l-.33.25q-.65.24-.3.13-.69.07-.3.06.37.02-.26-.05a9 9 0 0 0 1.08.3q.67.26 1.31.53a2.4 2.4 0 0 0 2.96-1.68 2.47 2.47 0 0 0-1.68-2.95" class="c"/><path d="M220 169.85q2.66-.22 5.31-.3a44 44 0 0 1 3.97.1c.07 0 .84.09.54.05a12 12 0 0 1 1.44.32l.4.13c.35.12-.16-.06-.16-.06.03-.02.27.14.31.16.46.24-.28-.12-.01.01.13.06.31.48.02.01l.2.31.17.32c-.25-.47-.05-.14-.01.02l.2.81c-.12-.54-.01-.13 0 .03l.01.58q0 .45-.04.9c-.05.65.07-.31-.02.08l-.1.5a14 14 0 0 1-.55 1.92l-.2.49c.17-.43.05-.1 0 0q-.2.45-.44.9-.46.83-.98 1.6c-.1.14-.26.27.08-.1-.27.3.04-.03.1-.06-.5.2.4-.13.04 0-.15.05-.53.07 0 .04h-.4c-.63.04.22.1-.16 0l-1.13-.27a11 11 0 0 1-1.33-.41l-.33-.13c.52.2.11.05-.02-.01l-.97-.45a77 77 0 0 1-6.75-3.9 2.4 2.4 0 0 0-3.29.87 2.45 2.45 0 0 0 .87 3.28 74 74 0 0 0 6.93 3.98c2.8 1.35 6.96 3.06 9.66.62a11 11 0 0 0 2.36-3.73 17 17 0 0 0 1.43-5.22 9 9 0 0 0-.9-4.92 6 6 0 0 0-3.8-2.95 21 21 0 0 0-5.57-.62c-2.3-.03-4.6.12-6.88.31a2.4 2.4 0 0 0 0 4.8Z" class="c"/><path d="M220.67 180.38a142 142 0 0 1 4 5.85 45 45 0 0 1 2 3.41l.35.7c.18.35-.06-.15-.08-.2l.14.36.15.51c.13.27-.04-.35-.04-.38.01.5.15-.6.06-.3a2 2 0 0 1 .52-.87c.53-.54 1.42-.64.51-.47l-1.57.27a22 22 0 0 1-4.37.21l-1.32-.05-.9-.05c-.75-.02.36.08-.38-.05l-.24-.07q.28.15-.09-.06c.05.08.16.09.22.19.27.48-.1-.22-.15-.35q-.47-1.14-.98-2.25-1-2.1-2.04-4.2l-2.22-4.44-.83-1.72-.1-.22c-.22-.47.1-.19.04.1.02-.07-.1-.27-.13-.36-.83-2.97-5.46-1.7-4.63 1.28a18 18 0 0 0 1.35 3.02l2.17 4.35q1.18 2.33 2.28 4.7l.44.95.2.48c-.26-.61-.05-.12 0 0a4.8 4.8 0 0 0 2.4 2.83c1.92.91 4.43.77 6.52.73a24 24 0 0 0 2.58-.2 14 14 0 0 0 3.78-.69c3.35-1.47.86-5.67-.35-7.74a107 107 0 0 0-5.14-7.7 2.47 2.47 0 0 0-3.28-.86 2.4 2.4 0 0 0-.86 3.28Zm-6.18 47.41c.04-.33-.17.11-.3.24a4 4 0 0 1-.9.66 13 13 0 0 1-2.58 1.12c-2.57.83-5.2 1.48-7.83 2.07a230 230 0 0 1-16.6 2.92c-2.58.38-5.26 1-7.03 3.08a7.3 7.3 0 0 0-.94 7.63c2.48 5.16 9.62 4.08 14.19 3.5 6.51-.81 12.95-2.06 19.4-3.34a2.4 2.4 0 0 0 1.67-2.95 2.45 2.45 0 0 0-2.95-1.68c-5.27 1.05-10.53 2.1-15.85 2.87a57 57 0 0 1-7.61.82c-1.33 0-3.9.12-4.58-1.38-.78-1.75.76-3 2.23-3.43a62 62 0 0 1 7.8-1.26c5.04-.8 10.08-1.7 15.03-2.99 4.38-1.13 10.97-2.47 11.65-7.88a2.4 2.4 0 0 0-2.4-2.4 2.46 2.46 0 0 0-2.4 2.4" class="c"/><path d="M186.06 249.86a10 10 0 0 0 4.63 4.78 16.5 16.5 0 0 0 7.4 1.04 95 95 0 0 0 15.93-2.13 2.4 2.4 0 1 0-1.27-4.63 93 93 0 0 1-13.23 1.9 18 18 0 0 1-6.03-.22 5.4 5.4 0 0 1-3.29-3.16 2.4 2.4 0 0 0-3.28-.86 2.45 2.45 0 0 0-.86 3.28" class="c"/><path d="M374.49 326.22c.11-7.41-.13-16.27-.3-23.98-2.2.2-3.93.32-4.65.37-25.5 1.86-49.56 2.24-74.33 2.01.9 6.39 1.86 14.5 3.11 21.6Z" class="a"/><path d="M292.59 303.08c1.17 7.92 2.03 15.89 3.42 23.78a2.4 2.4 0 0 0 2.95 1.68 2.46 2.46 0 0 0 1.68-2.96c-1.39-7.89-2.25-15.85-3.42-23.78a2.4 2.4 0 0 0-2.96-1.67 2.46 2.46 0 0 0-1.67 2.95m79.09-9.7c.02 10.95.57 21.9.41 32.84-.04 3.1 4.76 3.1 4.8 0 .16-10.95-.39-21.89-.41-32.84 0-3.09-4.8-3.1-4.8 0" class="c"/><path d="m313.14 122.02-1.12-4.23a1.6 1.6 0 0 1 .1-1.17 2 2 0 0 1 .93-.77c10.07-5.27 23.65-10.38 34.46-13.88l3.36-1.08a27 27 0 0 0 .5 3.04 108 108 0 0 0-37.1 22.6z" class="a"/><path d="M333.02 78.63c1.62 3.74 4.48 7.04 7.3 9.92a43 43 0 0 0 10.64 8.2 2.45 2.45 0 0 0 3.28-.86 2.4 2.4 0 0 0-.86-3.28 37 37 0 0 1-9.66-7.46q-1.1-1.11-2.12-2.29-.54-.62-1.05-1.25c-.4-.5-.32-.4-.73-.95a23 23 0 0 1-2.66-4.45 2.4 2.4 0 0 0-3.28-.86 2.46 2.46 0 0 0-.86 3.28" class="c"/><path d="M327.69 63.29c1.5-1.87 4.38-3.57 6.48-1.52 1.84 1.8 1.93 4.88 1.6 7.26-.7 5.1-4.23 8.55-8.81 10.82a2.4 2.4 0 0 0-.86 3.29 2.45 2.45 0 0 0 3.28.86c4.93-2.44 9.05-6.37 10.6-11.77 1.56-5.48.82-13.55-5.44-15.74-3.75-1.32-7.85.45-10.24 3.4a2.47 2.47 0 0 0 0 3.4 2.4 2.4 0 0 0 3.39 0m-38.18-1.9c-.6 1.88-.35 6.23 3.04 6.67 4.5.07 4.86-5.18 3.4-7.68-1.18-2.05-4.8-2.97-6.44 1.01" class="c"/><path d="M315.5 112.84a52 52 0 0 1-2.04-4.92 12 12 0 0 0-1.29-3.07 4.6 4.6 0 0 0-5.08-1.59 20 20 0 0 1-4.57.8 28 28 0 0 1-10.16-1.18c-2.83-.95-4.81-3.4-6.06-6.04a42 42 0 0 1-3.02-11.02 12 12 0 0 0-1.6-4.75 15 15 0 0 0-3.24-3.4 8 8 0 0 1-1.38-1.3 1 1 0 0 1-.18-.61c.11-1.52 1.83-2.26 2.85-3.1a13.6 13.6 0 0 0 4.3-7.52c1.75-7.5-.2-15.13.56-22.68a2.4 2.4 0 0 0-2.4-2.4 2.45 2.45 0 0 0-2.4 2.4c-.67 6.69 1 13.45-.13 20.11-.42 2.43-1.2 5.06-3.2 6.6-1.62 1.25-3.07 2.25-3.86 4.22a6 6 0 0 0 .1 4.97c1.3 2.66 4.4 3.65 5.55 6.47.54 1.32.58 3.33.89 4.82a52 52 0 0 0 1.56 5.95c1.2 3.57 2.93 7.07 5.92 9.47 2.75 2.2 6.03 3.04 9.47 3.5a28 28 0 0 0 11.97-.58c.07-.02.51-.13.52-.16-.15.3-.47-.96-.36-.38a11 11 0 0 0 .55 1.6 64 64 0 0 0 2.59 6.21 2.4 2.4 0 0 0 3.28.86 2.45 2.45 0 0 0 .86-3.28m52.34-73.66a15 15 0 0 1 .95 2.05 19 19 0 0 1 .74 2.68 50 50 0 0 1 .85 7.72 42 42 0 0 1-2.46 16.28 50 50 0 0 1-6.19 11.61c-2.68 3.83-6.12 7.27-9.13 11.25-2.08 2.74-4.11 6.04-4.15 9.6a26 26 0 0 0 1.5 7.66c.9 2.94 5.54 1.69 4.62-1.28q-.52-1.71-.88-3.47a15 15 0 0 1-.44-2.74c-.04-2.76 2.04-5.5 3.66-7.55 3-3.81 6.35-7.28 9.12-11.27a49 49 0 0 0 9.18-29.21c-.13-5.38-.68-10.94-3.23-15.75-1.44-2.73-5.59-.3-4.14 2.42" class="c"/><path d="M281.5 90.85a17.5 17.5 0 0 0 8.45-2.26 2.4 2.4 0 1 0-2.42-4.15 11 11 0 0 1-1.48.78l.57-.25a15 15 0 0 1-3.83 1l.64-.1q-.96.14-1.92.18a2.4 2.4 0 1 0 0 4.8" class="c"/><path d="M312.63 128.04a109 109 0 0 1 41.61-25.12c-.38-.7.21-.52.36-.26 1.96 3.38 2.34 7.75 5.4 10.26 9 12.72 12.58 21.69 14.7 34.41 2.63 15.65 1.57 29.05-.78 45.31-.98 6.8-2.49 18.83-2.14 23.55.98 12.84 11.73 67.66 14.84 81.18a2.97 2.97 0 0 1-2.38 3.57 141 141 0 0 1-14.71 1.67c-26.3 1.92-51.08 2.26-76.68 1.99a3 3 0 0 1-3-2.62c-1.6-13.7-4.03-40.18-3.05-52.91a378 378 0 0 1-27.7 5.51 3 3 0 0 1-2.5-.77 4 4 0 0 1-.9-2.18c-2.66-12.4-5.54-27.07-7.18-38.15q3.8-1.01 7.57-2.07l-.34-.86c-1.3-4.04-3.56-11.85-4.92-15.69a4.5 4.5 0 0 1-.38-2.36c.28-1.32 20.75-9.45 24.4-11.26 5.02-2.49 12.5-5.66 18.3-9.2l2.01-1.22a223 223 0 0 1 17.47-42.77" style="fill:#a0a0a0"/><path d="M92.76 326.22c-.24-14.93-.73-25.03-.79-37.5-22.61-.84-50.31-2.8-73.62-4.89l-.26.56a246 246 0 0 0-15.67 41.48Z" style="fill:#c6c6c6"/><path d="m71.78 143.32-.45-.17-.9-.54c-4.17-2.47-6.34-10.74-6.27-14.53.1-5.04 1.9-9.95 3.6-14.77-6.06-2.53-9.59-6.86-10.1-13.43-.2-2.5.61-5.57 2.57-7.09a5.8 5.8 0 0 1 4.87-.9 7 7 0 0 1 1.18.37l3.47-.25a21 21 0 0 0 7.27-2.32 119 119 0 0 0 30.9-21.11 42 42 0 0 1 1.7 13.2c.37 6.06.85 14.48 6.5 17.32a5.7 5.7 0 0 1 2.65 2.52c1.42 2.98-1.15 4.42-2.7 6.2a9 9 0 0 0-2 4 58 58 0 0 1-.98 8.8 25 25 0 0 1-1.8 5.92 11.6 11.6 0 0 1-6.21 6.08c-4.55 1.82-10.82 2.61-14.93 1.63a2 2 0 0 0-2.35 1.26 48 48 0 0 0-2.26 6.32l-1.66 6.56c-1.41-.81-2.97-1.5-4.23-2.12-1.8-.87-5.02-1.9-7.87-2.96" class="a"/><path d="M16.02 283.18A257 257 0 0 0 .1 325.24c-.85 2.97 3.78 4.24 4.63 1.27a250 250 0 0 1 15.43-40.91 2.46 2.46 0 0 0-.86-3.28 2.4 2.4 0 0 0-3.28.86m73.57 7.7c.1 11.78.58 23.56.77 35.34.05 3.09 4.85 3.1 4.8 0-.2-11.78-.66-23.56-.77-35.34-.03-3.09-4.83-3.1-4.8 0" class="c"/><path d="M32.36 196.98c1.06-13.18 1.4-24.26 4.36-34.75a29.5 29.5 0 0 1 5.2-10.51c2.66-3.34 6.07-5.6 10.18-7.83 11.4 3.37 25.1 7.4 33.8 13.94a125 125 0 0 1 8.9 16.3l1.37.76c5.15 3.96 11.46 8.62 15.82 9.84a306 306 0 0 0 36.76 8.27 1.16 1.16 0 0 1 .99 1.3c-.55 4.4-1.83 11.97-2.48 15.88l-.18 1.02q.89.15 1.72.26a1.6 1.6 0 0 1 1.38 1.52c.3 7.2.45 18.55.39 26.32a2.9 2.9 0 0 1-2.81 2.89 156 156 0 0 1-41.34-4.03c-2.82-.56-5.91-1.13-9.05-1.93-1 15.21-1.53 30.55-1.36 47.66.01 1.7-1.75 4.91-6 4.75-22.66-.9-50.02-2.85-72.92-4.92-2.2-.2-4.67-3.17-3.5-6.75 8.18-25.12 15.98-53.59 18.77-79.99" style="fill:#7abee6"/><path d="M52 146.37c11.18 3.3 23.2 6.46 32.69 13.53a2.4 2.4 0 0 0 3.28-.86 2.46 2.46 0 0 0-.86-3.28 66 66 0 0 0-15.98-8.22 241 241 0 0 0-17.85-5.8c-2.96-.88-4.23 3.75-1.27 4.62Zm42.96 30.59a91 91 0 0 0 11.59 8c4.11 2.26 8.78 3.2 13.28 4.38q7.86 2.06 15.82 3.73 4.17.86 8.36 1.58.96.17 1.93.32a8 8 0 0 0 1.93.3l.24.04q-.74-1.72-.8-.88s-.07.61-.05.42c-.05.44-.13.98-.2 1.46-.63 4.42-1.38 8.82-2.11 13.23a2.47 2.47 0 0 0 1.67 2.95 2.4 2.4 0 0 0 2.96-1.68c.68-4.11 1.38-8.23 1.99-12.36.3-2.1 1.27-4.94-.36-6.7-1-1.1-2.38-1.15-3.75-1.37q-2.17-.34-4.33-.73a277 277 0 0 1-16.98-3.66q-4.1-1.01-8.2-2.12a53 53 0 0 1-6.77-1.95c-5.03-2.12-9.5-5.81-13.8-9.11a2.4 2.4 0 0 0-3.28.86 2.46 2.46 0 0 0 .86 3.29" class="c"/><path d="M47.19 196.27a128 128 0 0 0 13.33 17.85 112 112 0 0 0 14.27 12.65 107 107 0 0 0 9.32 6.81 44 44 0 0 0 11.32 4.63c3.7 1 7.5 1.6 11.23 2.48q6.65 1.57 13.44 2.47a161 161 0 0 0 27.04 1.45 5.7 5.7 0 0 0 5.14-2.72c.96-1.74.7-3.87.7-5.8q0-6-.1-12c-.06-3.69.02-7.44-.3-11.11-.2-2.37-1.77-3.63-4.01-3.96q-2.4-.37-4.77-.82c-7.6-1.44-15.1-3.31-22.62-5.15-3.45-.84-6.9-1.7-10.38-2.49a7.7 7.7 0 0 1-4.48-2.3c-1.56-1.75-3-3.64-4.42-5.49-4.98-6.43-9.35-13.28-13.85-20.05l-3.33-4.99c-1.71-2.55-5.87-.15-4.14 2.42 4.28 6.4 8.39 12.93 12.85 19.21q3.74 5.26 7.82 10.27a15 15 0 0 0 4.61 4.33 21 21 0 0 0 5.09 1.56c7.14 1.67 14.24 3.5 21.4 5.14 3.48.8 7 1.58 10.51 2.24q2.28.43 4.58.77c.11.01.72.15.76.07-.06.14-.4-1.13-.38.04 0 .85.06 1.71.08 2.57q.18 5.7.23 11.42c.05 3.71.23 7.48.04 11.19-.02.45.01.62-.39.83a8 8 0 0 1-2.32.06q-3.11.07-6.23 0-6.52-.12-13.02-.76a225 225 0 0 1-24.56-4.33 61 61 0 0 1-11.02-3.22 46 46 0 0 1-9.4-5.88A138 138 0 0 1 66.9 213.8a98 98 0 0 1-12.19-14.84 205 205 0 0 1-3.37-5.12c-1.66-2.6-5.82-.19-4.15 2.43m3.28-54.22a35 35 0 0 0-9.35 6.92 30 30 0 0 0-5.9 10.09c-2.67 7.34-3.47 15.41-4.13 23.15-.43 4.92-.74 9.85-1.13 14.77a2.4 2.4 0 0 0 2.4 2.4 2.45 2.45 0 0 0 2.4-2.4c.63-7.83.96-15.72 2.08-23.5 1-6.9 2.37-14.35 6.74-20 2.45-3.19 5.83-5.36 9.3-7.28 2.7-1.5.29-5.64-2.42-4.15Z" class="c"/><path d="M29.96 196.98a316 316 0 0 1-8.77 45.77 536 536 0 0 1-6.44 22.6c-1.12 3.67-2.39 7.3-3.47 10.98a7.9 7.9 0 0 0 2.9 8.79c1.39.96 2.96 1 4.58 1.15l5.33.47q5.49.47 10.98.9 11.44.92 22.9 1.67 11.37.75 22.75 1.32 2.66.13 5.33.24a37 37 0 0 0 5.09.13 8 8 0 0 0 6.73-4.7 9 9 0 0 0 .53-3.9q-.03-3.03-.02-6.07.01-6.01.14-12.02.25-11.37.92-22.73l.34-5.5a2.4 2.4 0 0 0-4.8 0q-1.46 22.15-1.4 44.36l.02 2.95v.66c.03-.63.01-.07-.03.1-.02.06-.27.66-.06.22a4 4 0 0 1-.35.6 3 3 0 0 1-.83.77 5.4 5.4 0 0 1-3.15.46q-2.73-.1-5.46-.23-10.61-.49-21.21-1.17-21.47-1.34-42.9-3.25c-.7-.07-1.45-.06-2.13-.18a1.4 1.4 0 0 1-.84-.39 3 3 0 0 1-.93-2.59 30 30 0 0 1 1.57-5.05l1.7-5.4a551 551 0 0 0 6.24-21.64 329 329 0 0 0 9.54-49.32 2.4 2.4 0 0 0-2.4-2.4 2.46 2.46 0 0 0-2.4 2.4m280.6-70.15a214 214 0 0 0-11.88 26.06 203 203 0 0 0-8.73 28.56 131 131 0 0 0-2.51 15.45 2.4 2.4 0 0 0 2.4 2.4 2.45 2.45 0 0 0 2.4-2.4 144 144 0 0 1 5.65-26.82A221 221 0 0 1 308 142.8q3.08-6.9 6.7-13.55c1.48-2.71-2.67-5.14-4.15-2.42Z" class="c"/><path d="M357.97 184.6a162 162 0 0 1-16.23 29.3c-3.1 4.34-6.44 8.48-9.94 12.5a52 52 0 0 1-6.08 6.45 41 41 0 0 1-6.41 4.39 47 47 0 0 1-8.96 3.17q-4.87 1.44-9.78 2.75-9.03 2.41-18.16 4.46-7.39 1.66-14.83 3.08-2.76.53-5.54 1l-2.1.35c-.51.08-1.3.3-1.5.13-.32-.27-.32-.76-.4-1.19q-.29-1.25-.55-2.5l-1.07-5.16q-1.1-5.29-2.12-10.59a482 482 0 0 1-3.46-19.9l-1.68 2.96a733 733 0 0 0 39.36-11.8q4.9-1.6 9.79-3.25c3.05-1.02 6.18-1.75 8.2-4.46a17 17 0 0 0 1.84-3.86l1.87-4.7 3.63-9.13q4.08-10.27 8.33-20.47a2.4 2.4 0 0 0-1.68-2.96 2.46 2.46 0 0 0-2.95 1.68c-4.88 11.65-9.48 23.41-14.17 35.14a5 5 0 0 1-1.5 2.27c-1.2.93-2.96 1.23-4.38 1.7q-4.66 1.56-9.33 3.1-9.42 3.09-18.9 6-10.64 3.24-21.38 6.11a2.47 2.47 0 0 0-1.68 2.95 610 610 0 0 0 7.1 37.74 6.5 6.5 0 0 0 1.9 3.9 5.7 5.7 0 0 0 4.77 1.11q2.2-.32 4.37-.71 6.74-1.2 13.43-2.62a431 431 0 0 0 38.2-9.8 33 33 0 0 0 8.53-4.02 36 36 0 0 0 6.64-5.4c4.06-4.44 7.96-9 11.62-13.78a160 160 0 0 0 19.35-33.5 2.5 2.5 0 0 0-.86-3.29 2.4 2.4 0 0 0-3.29.86Z" class="c"/><path d="M291.95 169.97c-5.66 3.43-11.76 6-17.7 8.9-2.82 1.39-5.75 2.57-8.65 3.8-3.83 1.62-7.66 3.23-11.42 4.98a43 43 0 0 0-3.92 1.97 3.8 3.8 0 0 0-2.15 4.31 28 28 0 0 0 1.24 4.04q.71 2.2 1.38 4.4 1.33 4.42 2.71 8.82c1.38 4.4 5.57 1.68 4.63-1.28-1.58-4.97-2.97-10-4.66-14.94a15 15 0 0 1-.51-1.52c-.19-.82.1-.55-.34.2-.34.57-.43.51-.25.33.32-.32-.58.33-.1.08q.3-.17.6-.37c1.21-.7 2.5-1.3 3.8-1.9 6.38-2.96 13.03-5.38 19.37-8.43 6.18-2.98 12.52-5.69 18.4-9.25 2.63-1.6.22-5.75-2.43-4.14m69.44-59.02c-2.57-2.46-3.02-6.48-4.71-9.5a2.44 2.44 0 0 0-3.77-.48c.71-.6-.7.12-.94.2l-1.6.58q-1.59.59-3.15 1.21-2.96 1.2-5.87 2.52a107 107 0 0 0-10.86 5.75 117 117 0 0 0-19.55 15.1c-2.25 2.14 1.15 5.53 3.39 3.4a111 111 0 0 1 19.26-14.76 107 107 0 0 1 10.93-5.68q2.73-1.24 5.53-2.31c2.02-.78 4.57-1.25 6.25-2.63l-3.77-.48c1.96 3.48 2.47 7.6 5.47 10.47 2.23 2.13 5.63-1.26 3.4-3.4Z" class="c"/><path d="M324.25 132.15c10.86-6.34 22.26-11.95 34.3-15.68 2.93-.91 1.68-5.55-1.29-4.63-12.41 3.85-24.23 9.63-35.43 16.16-2.67 1.56-.26 5.7 2.42 4.15m-8.18-8.32q-.73-2.92-1.5-5.83l-.23-.85q-.81 1.23-.21.85a5 5 0 0 0 1.17-.62l2.15-1.07a174 174 0 0 1 9.93-4.44q10.23-4.19 20.77-7.59c2.92-.94 1.67-5.58-1.28-4.62q-11.86 3.83-23.36 8.67a163 163 0 0 0-10.98 5.09c-2.06 1.06-3.33 2.57-2.82 5 .47 2.25 1.18 4.47 1.73 6.69.75 3 5.38 1.72 4.63-1.28m20.9 18.3c5.7-2.52 13.12-1.97 17.82 2.34 5.26 4.83 7.6 12.1 7.92 19.07.14 3.08 4.94 3.1 4.8 0-.39-8.34-3.27-17.42-9.88-22.95-6.48-5.43-15.52-5.94-23.08-2.6a2.4 2.4 0 0 0-.86 3.27 2.46 2.46 0 0 0 3.28.87M83.83 159.04c4.56 6.95 7.88 14.43 11.46 21.9 1.4 2.91 3.07 5.83 3.86 8.99a34 34 0 0 1 .97 7.48c.05 3.08 4.85 3.1 4.8 0a42 42 0 0 0-1.09-8.54c-.77-3.36-2.54-6.51-4.03-9.6-3.74-7.7-7.1-15.46-11.83-22.65-1.69-2.57-5.85-.17-4.14 2.42" class="c"/><path d="M69.45 144.98c3.19 1.27 6.52 2.2 9.62 3.67a39 39 0 0 1 4.48 2.35 6 6 0 0 1 2.29 2.45c2.59 4.57 3.2 10.12 4.71 15.13.9 2.95 5.53 1.7 4.63-1.28-1.68-5.55-2.35-11.71-5.47-16.73-1.9-3.05-5.08-4.56-8.22-6.06-3.48-1.67-7.18-2.73-10.76-4.16a2.4 2.4 0 0 0-2.95 1.68 2.46 2.46 0 0 0 1.67 2.95m288.53-30.8a89 89 0 0 1 9.93 17.3 80 80 0 0 1 4.71 17.9c2.23 14.36.97 28.77-1.07 43.05-.8 5.6-1.52 11.21-1.96 16.84a50 50 0 0 0 .13 10.12c.94 7.62 2.28 15.2 3.62 22.75A1447 1447 0 0 0 383.42 294l.78 3.52c.1.5.2.74-.26 1.04a8 8 0 0 1-2.4.43q-1.13.17-2.28.32c-5.84.74-11.74 1.08-17.62 1.44-15.4.96-30.82 1.4-46.24 1.51q-5.5.04-11 .03l-5.76-.03-2.89-.02a14 14 0 0 1-2.9-.03c-.8-.2-.66-.8-.74-1.54l-.39-3.45q-.42-3.91-.79-7.84c-1.06-11.3-2.01-22.69-1.94-34.05q0-3.14.22-6.27a2.4 2.4 0 0 0-2.4-2.4 2.45 2.45 0 0 0-2.4 2.4c-.83 10.99.19 22.2 1.09 33.15q.68 8.26 1.59 16.5c.3 2.75.26 5.9 2.95 7.5 1.6.96 3.44.8 5.23.82l6.25.05a968 968 0 0 0 46.97-.83 814 814 0 0 0 22.02-1.3q4.19-.29 8.34-.79c3.1-.38 7.38-.28 9.34-3.16 1.33-1.96.8-4.05.33-6.16q-.48-2.17-.94-4.35-1.2-5.68-2.34-11.37-2.88-14.32-5.53-28.67a796 796 0 0 1-4.51-26.22l-.36-2.44-.15-1.12-.1-.77a74 74 0 0 1-.38-3.46c-.39-4.99.4-10.16.98-15.1.8-6.7 1.89-13.37 2.59-20.08a136 136 0 0 0 .69-21.96c-.78-13.46-3.73-26.65-10.47-38.42-1.8-3.14-3.8-6.16-5.87-9.12a2.47 2.47 0 0 0-3.29-.86 2.4 2.4 0 0 0-.86 3.28M47.7 172.72a12 12 0 0 1 .05-1.04 12 12 0 0 1 .4-1.59 12 12 0 0 1 1.28-2.63 11 11 0 0 1 2.14-2.48c.64-.57-.22.16.12-.1l.3-.22q.38-.27.77-.52a16 16 0 0 1 1.93-1.06c.06-.03.66-.28.16-.08l.6-.23q.7-.25 1.42-.44a13 13 0 0 1 2.87-.45 19 19 0 0 1 3.8.16 2.5 2.5 0 0 0 2.96-1.68 2.4 2.4 0 0 0-1.67-2.95c-5.06-.74-10.26-.18-14.61 2.66-4.13 2.7-7.42 7.58-7.32 12.66.06 3.08 4.86 3.09 4.8 0Z" class="c"/><path d="M65.1 41.11q2.48-.23 5.2-.27a51 51 0 0 1 14.42 2.26c9.49 2.95 17.4 10.38 21.7 18.75a36 36 0 0 1 2.33 5.94l-1.05.99a119 119 0 0 1-30.68 20.91 21 21 0 0 1-7.27 2.32l-3.47.25a7 7 0 0 0-1.19-.37 5.8 5.8 0 0 0-4.87.9c-1.95 1.52-2.77 4.6-2.57 7.1.52 6.56 4.05 10.9 10.1 13.42-1.7 4.82-3.5 9.73-3.6 14.77-.06 3.6 1.89 11.23 5.65 14.1-13.15 9.1-28.72 7.92-34.88 6.29-4.65-1.23-7.88-4.2-8.53-9.32a30 30 0 0 1 .51-10.36c.97-4.8 1.67-15.3-1.55-29.86A64 64 0 0 1 23.8 83.9c.2-6.43 2.24-15.71 8.08-23.15C40.4 49.86 49.3 42.6 65.1 41.1" style="fill:#957f6e"/><path d="M70.6 92.47a9.6 9.6 0 0 0-9.1-2.9c-3.12.75-5.16 3.5-5.9 6.5-1.3 5.25.76 11.3 4.5 15.07a22 22 0 0 0 7.96 4.86 2.4 2.4 0 0 0 2.95-1.68 2.45 2.45 0 0 0-1.67-2.95c-4.64-1.76-7.95-4.85-9-9.58-.47-2.11-.57-4.7.75-6.5 1.62-2.2 4.56-1 6.1.56 2.18 2.2 5.57-1.19 3.4-3.39Zm32.95-1.85c.74 1.73.9 5.89-2.28 6.62-4.26.48-5.1-4.48-3.94-6.99.94-2.06 4.29-3.26 6.22.37m10.1 22.58a20 20 0 0 1-3.46-.11l.64.08a12 12 0 0 1-3.06-.8l.57.24-.54-.26a2.6 2.6 0 0 0-1.85-.24 2.4 2.4 0 0 0-.57 4.39 17 17 0 0 0 8.26 1.5 2.4 2.4 0 0 0 0-4.8Z" class="c"/><path d="M87.85 142.47a43 43 0 0 1 1.65-4.86c.05-.12.38-.9.2-.5l.15-.34c.22-.52.31-.68-.04-.18.04-.05-.1-.12-.15-.02q-.3-.01 0 .03l.32.07a26 26 0 0 0 10.1-.16 21 21 0 0 0 8.78-3.27 16.6 16.6 0 0 0 5.78-8.8 50 50 0 0 0 1.75-11.05 6.2 6.2 0 0 1 1.36-3.87c.88-1.06 1.97-1.88 2.76-3.02 2.16-3.1.65-6.88-2.23-8.89a13 13 0 0 1-3.06-2.24 10 10 0 0 1-1.54-2.81 32 32 0 0 1-1.55-8.94c-.28-4.14-.23-8.21-1.05-12.31a2.4 2.4 0 0 0-2.95-1.68 2.45 2.45 0 0 0-1.68 2.96c1.25 6.24.45 12.67 1.92 18.9a16.5 16.5 0 0 0 3.66 7.5 14 14 0 0 0 3.36 2.46 3 3 0 0 1 1.21 1.21 1.2 1.2 0 0 1 .15.8c-.38.97-1.57 1.74-2.3 2.55a12 12 0 0 0-2.6 4.78 33 33 0 0 0-.45 4.92 46 46 0 0 1-.87 5.43c-.68 3.03-1.79 6.2-4.35 8.15-2.25 1.7-5.49 2.34-8.26 2.73a25 25 0 0 1-5.26.2c-1.77-.13-3.45-.82-5.13.15a4.6 4.6 0 0 0-1.93 2.21c-.37.84.27-.63-.05.11l-.46 1.1a44 44 0 0 0-1.87 5.4c-.8 2.99 3.83 4.26 4.63 1.28" class="c"/><path d="M113.14 79.75a44 44 0 0 0-8.9-25.65 39.2 39.2 0 0 0-20.36-13.75c-15.46-4.22-32.7-1.44-44.93 9.2-5.9 5.14-11.18 11.56-14.2 18.8-3.4 8.16-3.91 16.83-2.72 25.51.65 4.75 1.9 9.4 2.53 14.15a82 82 0 0 1 .75 12.08 60 60 0 0 1-.23 4.55l-.1.94c0 .12-.1.89-.07.66l-.07.5-.16.9c-.82 4.51-1.45 9.2-.3 13.72a12.6 12.6 0 0 0 6.98 8.35 27 27 0 0 0 8.8 2.05 48.5 48.5 0 0 0 23.68-3.57 42 42 0 0 0 6.13-3.23c2.6-1.66.19-5.82-2.43-4.15a42 42 0 0 1-22.56 6.39q-2.28 0-4.55-.2a28 28 0 0 1-3.42-.5c-2.6-.53-5.26-1.47-6.83-3.74-2.08-3.02-1.86-7.53-1.37-10.99.39-2.77.97-5.46 1.16-8.26a88 88 0 0 0-1.9-23.29c-1.63-8.04-2.75-16.05-.8-24.14a38 38 0 0 1 4.49-10.99 53 53 0 0 1 6.67-8.35 41 41 0 0 1 15.03-10.57 46.5 46.5 0 0 1 22.72-2.54c7.55 1.1 14.54 3.8 20.22 9.03a37 37 0 0 1 7.23 9.09 38 38 0 0 1 4.02 11.68 43 43 0 0 1 .7 6.32c.11 3.08 4.91 3.1 4.8 0" class="c"/><path d="M65.19 113.39c-2.1 5.97-4.18 12.17-3.03 18.57.83 4.65 2.86 10.1 7.05 12.72 2.63 1.64 5.04-2.51 2.43-4.14a10 10 0 0 1-3.18-4.26 24 24 0 0 1-1.72-5.88 13 13 0 0 1-.18-2.11 21 21 0 0 1 .43-4.17 68 68 0 0 1 2.83-9.46 2.4 2.4 0 0 0-4.63-1.27M106 67.08A116 116 0 0 1 89.04 80.3q-4.52 2.9-9.3 5.37c-3.08 1.6-6.47 3.6-9.99 3.93a2.47 2.47 0 0 0-2.4 2.4 2.4 2.4 0 0 0 2.4 2.4c4.05-.37 7.67-2.18 11.25-3.98q5.18-2.62 10.1-5.74a123 123 0 0 0 18.3-14.2c2.26-2.13-1.14-5.52-3.4-3.4m184.25-50.22a31 31 0 0 0-9.3 14.42c-1.95 6.35-1.88 13-1.2 19.54a2.47 2.47 0 0 0 2.4 2.4 2.4 2.4 0 0 0 2.4-2.4c-.63-6.02-.8-12.08.94-17.94a26.4 26.4 0 0 1 8.15-12.63 2.4 2.4 0 0 0 0-3.4 2.45 2.45 0 0 0-3.39 0m8.59-1.77c7.79-7.67 19.68-10.86 30.38-10.2a41 41 0 0 1 15.46 3.9 37 37 0 0 1 11.54 9.03 29.6 29.6 0 0 1 6.95 13.59 2.4 2.4 0 0 0 2.96 1.67 2.45 2.45 0 0 0 1.67-2.95c-1.99-10.38-10.1-19.65-19.17-24.68-10.8-6-24.45-6.92-36.18-3.38a41 41 0 0 0-17 9.62c-2.21 2.17 1.18 5.56 3.39 3.4" class="c"/><path d="M284.52 44.65a8 8 0 0 1 .52-1.9l-.25.56a7 7 0 0 1 .93-1.58l-.38.48a9 9 0 0 1 1.48-1.46l-.49.37a11 11 0 0 1 1-.69 2.5 2.5 0 0 0 1.1-1.43 2.4 2.4 0 0 0-3.52-2.71 12 12 0 0 0-3.53 3.26 9 9 0 0 0-1.5 3.83 2 2 0 0 0-.04.95 2 2 0 0 0 .29.9 2.4 2.4 0 0 0 3.28.86 2.3 2.3 0 0 0 1.1-1.44Zm9.23-1.98c6.86.8 14.19 1.93 20.33 5.27a18 18 0 0 1 3.54 2.4 7 7 0 0 1 1.8 3.26c1.05 3.32 1.6 6.74 3.45 9.75 1.6 2.63 5.76.22 4.14-2.42-1.84-3-2.11-6.53-3.36-9.76-1.34-3.48-3.94-5.63-7.15-7.38-6.93-3.77-15.02-5.03-22.75-5.92a2.4 2.4 0 0 0-2.4 2.4 2.46 2.46 0 0 0 2.4 2.4" class="c"/></svg>
