<svg xmlns="http://www.w3.org/2000/svg" fill="currentColor" viewBox="0 0 32 32"><path d="M31 21h-1v-.05c0-5.06-2.71-9.5-6.75-11.95h5.03A2 2 0 0 0 32 8a2 2 0 0 0-3.72-1H19V6a1 1 0 0 0-1-1h-4a1 1 0 0 0-1 1v1H3.72A2 2 0 0 0 0 8a2 2 0 0 0 3.72 1h5.03A14 14 0 0 0 2 20.95V21H1a1 1 0 0 0-1 1v4a1 1 0 0 0 1 1h4a1 1 0 0 0 1-1v-4a1 1 0 0 0-1-1H4v-.05a12 12 0 0 1 9-11.6V10a1 1 0 0 0 1 1h4a1 1 0 0 0 1-1v-.66a12 12 0 0 1 8.98 11.61V21H27a1 1 0 0 0-1 1v4a1 1 0 0 0 1 1h4a1 1 0 0 0 1-1v-4a1 1 0 0 0-1-1M4 25H2v-2h2zM17 9h-2V7h2zm13 16h-2v-2h2z"/></svg>
