<svg xmlns="http://www.w3.org/2000/svg" fill="none" viewBox="0 0 24 24"><path stroke="currentColor" stroke-linecap="round" stroke-linejoin="round" stroke-width="1.5" d="M22 9v6q0 .34-.02.67l-.14-.17-.03-.04a4.5 4.5 0 0 0-7.16 5.36 4 4 0 0 0 .86 1.02l.16.14q-.32.02-.67.02H9c-5 0-7-2-7-7V9c0-5 2-7 7-7h6c5 0 7 2 7 7M2.52 7.11h18.96m-12.96-5v4.86m6.96-4.86v4.41"/><path stroke="currentColor" stroke-linecap="round" stroke-linejoin="round" stroke-miterlimit="10" stroke-width="1.5" d="M23 18.5q0 .54-.13 1.05-.17.68-.52 1.27a4.5 4.5 0 0 1-6.67 1.16h-.01l-.16-.14-.04-.03q-.48-.43-.82-.99a4.5 4.5 0 0 1 7.16-5.36l.03.04.14.17A4.4 4.4 0 0 1 23 18.5m-2.82-.02h-3.36m1.68-1.64v3.36"/></svg>
