<svg xmlns="http://www.w3.org/2000/svg" fill="none" viewBox="0 0 24 24"><path fill="currentColor" fill-rule="evenodd" d="M18.54 5.46A9.25 9.25 0 1 0 5.46 18.54 9.25 9.25 0 0 0 18.54 5.46M4.4 4.4a10.75 10.75 0 1 1 15.2 15.2A10.75 10.75 0 0 1 4.4 4.4m3.53 2.47c.3.3.3.77 0 1.06a5.75 5.75 0 0 0 0 8.14.75.75 0 1 1-1.06 1.06 7.25 7.25 0 0 1 0-10.26.75.75 0 0 1 1.06 0m8.14 0a.75.75 0 0 1 1.06 0 7.25 7.25 0 0 1 0 10.26.75.75 0 1 1-1.06-1.06 5.75 5.75 0 0 0 0-8.14.75.75 0 0 1 0-1.06M12 9.75a2.25 2.25 0 1 0 0 4.5 2.25 2.25 0 0 0 0-4.5M8.25 12a3.75 3.75 0 1 1 7.5 0 3.75 3.75 0 0 1-7.5 0" clip-rule="evenodd"/></svg>
