<svg xmlns="http://www.w3.org/2000/svg" fill="currentColor" viewBox="0 0 64 64"><g id="virtual_reality"><path d="M55 32.5V22A19 19 0 0 0 36 3h-8A19 19 0 0 0 9 22v10.5A6.02 6.02 0 0 0 13 43h.1c.5 10 8.8 18 18.9 18s18.4-8 18.9-18h.1a6.02 6.02 0 0 0 4-10.5M11 22c0-9.4 7.6-17 17-17h8c9.4 0 17 7.6 17 17v9.4c-.6-.2-1.3-.4-2-.4v-5.3c0-.1-.1-.1-.1-.2s-.1-.1-.1-.2-.1-.1-.2-.1l-.1-.1-3.8-1.9a9.2 9.2 0 0 0-9.2.6c-1.2.8-2.6 1.2-4 1.2h-3.1c-1.4 0-2.8-.4-4-1.2-2.7-1.8-6.2-2-9.2-.6l-3.8 1.9-.1.1c-.1 0-.1.1-.2.1 0 0-.1.1-.1.2s-.1.1-.1.2V31c-.7 0-1.4.1-2 .4V22zm4 10.7v-1.3l2 2v2.8zm34-4.1-2.2 2.2c-.5-1-1.6-1.8-2.8-1.8H20c-1.2 0-2.3.8-2.8 1.8L15 28.6v-2l3.2-1.6c2.3-1.1 5-1 7.2.4 1.5 1 3.3 1.5 5.1 1.5h3.1c1.8 0 3.6-.5 5.1-1.5 2.1-1.4 4.9-1.6 7.2-.4l3.2 1.6v2zM19 32c0-.6.4-1 1-1h24c.6 0 1 .4 1 1v8c0 .6-.4 1-1 1h-7.5l-1.7-2.6c-.2-.2-.5-.4-.8-.4h-4c-.3 0-.6.2-.8.4L27.5 41H20c-.6 0-1-.4-1-1zm28 1.4 2-2v1.3l-2 3.5zM9 37c0-2.2 1.8-4 4-4v8c-2.2 0-4-1.8-4-4m23 22c-9.4 0-17-7.6-17-17v-5.2l2 3.6c.2 1.5 1.4 2.7 3 2.7h8c.3 0 .6-.2.8-.4l1.7-2.6h2.9l1.7 2.6c.2.3.5.4.8.4h8c1.5 0 2.8-1.2 3-2.7l2-3.6V42c.1 9.4-7.5 17-16.9 17m19-18v-8c2.2 0 4 1.8 4 4s-1.8 4-4 4"/><path d="M36 51h-8c-.6 0-1 .4-1 1s.4 1 1 1h8c.6 0 1-.4 1-1s-.4-1-1-1"/></g></svg>
