<svg xmlns="http://www.w3.org/2000/svg" fill="none" viewBox="0 0 24 24"><path fill="currentColor" d="m11.57 12.55.6.46zm-.26-8.9.7.28zm9.93 7.1.54-.53zm.21 1.28a.75.75 0 1 0 1.07-1.06zM5.73 19.04a.75.75 0 0 0 0 1.5zM3.5 15.75a.75.75 0 0 0 0 1.5zm4.7-12.4a.75.75 0 0 0-1.4-.57zm11.68 13.57a.75.75 0 1 0 1.24-.84zM5.85 12.14a.75.75 0 1 0 1.47-.28zm9.58 5.18a.75.75 0 1 0-.86-1.22zM14.16 6.08a.75.75 0 1 0-.32 1.47zM12 12.75h.1v-1.5H12zm-.6-1.21-.42.55 1.18.92.43-.55zm-.1-9.83-.68 1.65 1.39.57.68-1.64zm9.4 9.56.75.76 1.07-1.06-.74-.75zM10.63 3.36a9.9 9.9 0 0 0 .74 9.04l1.28-.8A8.4 8.4 0 0 1 12 3.93zm.36 8.73a9.5 9.5 0 0 1-7.48 3.66v1.5c3.39 0 6.58-1.56 8.66-4.24zm1.11.66a9.4 9.4 0 0 1 7.79 4.17l1.24-.84a10.9 10.9 0 0 0-9.03-4.83zM6.81 2.78a16 16 0 0 0-.96 9.36l1.47-.28c-.55-2.84-.26-5.78.87-8.5zm7.76 13.32a15.6 15.6 0 0 1-8.84 2.94v1.5c3.44 0 6.88-1.22 9.7-3.22zm-.73-8.55c2.59.54 4.98 1.83 6.87 3.72l1.06-1.06a15 15 0 0 0-7.61-4.13z"/><path stroke="currentColor" stroke-linecap="round" stroke-width="1.5" d="M3.34 7A10 10 0 1 1 2 12"/></svg>
