<svg xmlns="http://www.w3.org/2000/svg" fill="none" viewBox="0 0 24 24"><path fill="currentColor" fill-rule="evenodd" d="M1.25 12a10.75 10.75 0 1 1 4.01 8.38A10.7 10.7 0 0 1 1.25 12m6.8 8.36q1.81.87 3.95.89a9.2 9.2 0 0 0 7.86-4.36 9 9 0 0 0-1.72-1.93 17.8 17.8 0 0 1-10.1 5.4m8.85-6.28A16 16 0 0 1 6 19.04a9 9 0 0 1-1.64-1.82c3.06-.24 5.9-1.76 7.8-4.2l.2-.27c1.63.05 3.19.52 4.54 1.33m-4.47-2.82c3.21.1 6.2 1.61 8.18 4.12a9 9 0 0 0 .64-3.56l-.54-.55a13.7 13.7 0 0 0-9.35-4.02 8.4 8.4 0 0 0 1.07 4m-.95-5.5c3.46.1 6.77 1.39 9.4 3.62a9.3 9.3 0 0 0-8.39-6.62l-.48 1.17q-.38.9-.53 1.83m-.63-2.94q-1.47.19-2.76.8c-1.4 3.53-1.39 7.4.03 10.92a10 10 0 0 0 2.86-2.45l.12-.15a9.9 9.9 0 0 1-.48-8.58zM6.76 15.17a16 16 0 0 1-.67-10.29 9.2 9.2 0 0 0-2.55 10.87q1.68 0 3.22-.58" clip-rule="evenodd"/></svg>
