<svg xmlns="http://www.w3.org/2000/svg" fill="none" viewBox="0 0 24 24"><path fill="currentColor" fill-rule="evenodd" d="M7.16 2.4a10.75 10.75 0 1 1 9.68 19.2A10.75 10.75 0 0 1 7.16 2.4m.93 1.22a14.7 14.7 0 0 0-.77 8.24.75.75 0 1 1-1.47.28 16 16 0 0 1 .24-7.26 9.2 9.2 0 0 0-2.55 10.87 9.5 9.5 0 0 0 7.44-3.66l.12-.15a9.9 9.9 0 0 1-.48-8.58l.23-.54q-1.47.19-2.76.8m4.4-.86-.48 1.17a8.4 8.4 0 0 0 .42 7.33c3.21.1 6.2 1.61 8.18 4.12a9 9 0 0 0 .64-3.56l-.54-.55a13.7 13.7 0 0 0-6.87-3.72.75.75 0 1 1 .32-1.47c2.46.52 4.78 1.65 6.71 3.3a9.3 9.3 0 0 0-8.38-6.62m7.37 14.13a9.4 9.4 0 0 0-7.5-4.14l-.2.26a11 11 0 0 1-7.8 4.2A9 9 0 0 0 6 19.05c3-.06 6.04-1.16 8.57-2.94a.75.75 0 1 1 .86 1.22 17.6 17.6 0 0 1-7.39 3.04q1.81.87 3.96.89a9.2 9.2 0 0 0 7.86-4.36" clip-rule="evenodd"/></svg>
