<svg xmlns="http://www.w3.org/2000/svg" fill="currentColor" viewBox="0 0 32 32"><path d="M17.95 2.06a1 1 0 0 0-1.02.05L6.89 10H3.56c-1.7 0-3.1 1.21-3.1 2.7l.06 6.6c0 1.49 1.39 2.7 3.1 2.7h3.32l9.98 7.9a1 1 0 0 0 1.56-.83V2.94a1 1 0 0 0-.53-.88m-1.47 25.12-8.67-7.02a1 1 0 0 0-.56-.17H3.61c-.64 0-1.09-.37-1.09-.7l-.05-6.6c0-.33.45-.7 1.09-.7H7.2a1 1 0 0 0 .56-.17l8.72-7zm10.04-11a5.3 5.3 0 0 0-4.35-5.32 1 1 0 0 0-.32 1.98 3.25 3.25 0 0 1 2.67 3.33 3.4 3.4 0 0 1-2.7 3.34 1 1 0 1 0 .38 1.96 5.4 5.4 0 0 0 4.32-5.3zM25.19 7a1 1 0 0 0-.7 1.87 7.81 7.81 0 0 1 0 14.62 1 1 0 0 0 .7 1.87A9.83 9.83 0 0 0 25.2 7z"/></svg>
