<svg xmlns="http://www.w3.org/2000/svg" fill="currentColor" viewBox="0 0 32 32"><path d="M17.99 2.06a1 1 0 0 0-1.03.05L6.92 10H3.6C1.9 10 .5 11.2.5 12.7l.05 6.6c0 1.49 1.39 2.7 3.1 2.7h3.32l9.99 7.9a1 1 0 0 0 1.55-.83V2.94a1 1 0 0 0-.53-.88zm-1.47 25.12-8.68-7.02a1 1 0 0 0-.56-.17H3.64c-.64 0-1.09-.37-1.09-.7l-.05-6.6c0-.33.45-.7 1.1-.7h3.63a1 1 0 0 0 .56-.17l8.73-7zm11.42-11.16 3.27-3.31a1 1 0 0 0-1.42-1.42l-3.26 3.3-3.26-3.3a1 1 0 0 0-1.41 1.42l3.26 3.3-3.23 3.28a1 1 0 0 0 1.41 1.42l3.23-3.27 3.23 3.27a1 1 0 0 0 1.41-1.42z"/></svg>
