<svg viewBox="0 0 16 16" fill="none" xmlns="http://www.w3.org/2000/svg"><path fill-rule="evenodd" clip-rule="evenodd" d="M12.7753 2.7921C13.0742 2.57709 13.4908 2.64509 13.7058 2.94398C14.7296 4.36711 15.3327 6.11408 15.3327 7.99996C15.3327 9.88583 14.7296 11.6328 13.7058 13.0559C13.4908 13.3548 13.0742 13.4228 12.7753 13.2078C12.4764 12.9928 12.4084 12.5762 12.6234 12.2773C13.4895 11.0735 13.9994 9.59724 13.9994 7.99996C13.9994 6.40267 13.4895 4.92645 12.6234 3.7226C12.4084 3.42371 12.4764 3.00712 12.7753 2.7921Z" fill="currentColor"/><path fill-rule="evenodd" clip-rule="evenodd" d="M10.1148 4.7865C10.4168 4.57586 10.8324 4.64991 11.043 4.95189C11.6458 5.81603 11.9994 6.8677 11.9994 7.99996C11.9994 9.13221 11.6458 10.1839 11.043 11.048C10.8324 11.35 10.4168 11.4241 10.1148 11.2134C9.81284 11.0028 9.7388 10.5872 9.94944 10.2852C10.4012 9.63759 10.666 8.8507 10.666 7.99996C10.666 7.14921 10.4012 6.36233 9.94944 5.71469C9.7388 5.4127 9.81284 4.99714 10.1148 4.7865Z" fill="currentColor"/><path fill-rule="evenodd" clip-rule="evenodd" d="M6.92089 1.80778C7.24001 1.78266 7.55187 1.91184 7.75976 2.15524C7.94592 2.37321 7.97549 2.63538 7.98677 2.76264C7.99941 2.90529 7.99938 3.08246 7.99935 3.26271C7.99935 3.27098 7.99935 3.27926 7.99935 3.28754L7.99935 12.7372C7.99938 12.9175 7.99941 13.0946 7.98677 13.2373C7.97549 13.3645 7.94592 13.6267 7.75976 13.8447C7.55187 14.0881 7.24001 14.2172 6.92089 14.1921C6.63513 14.1696 6.42884 14.0052 6.33088 13.9232C6.22107 13.8312 6.09581 13.7059 5.96837 13.5785L3.84037 11.4504C3.77861 11.3887 3.74768 11.358 3.72427 11.3366L3.7225 11.335L3.72011 11.3349C3.68845 11.3334 3.64486 11.3333 3.55752 11.3333L2.3781 11.3333C2.20984 11.3333 2.04597 11.3333 1.9072 11.322C1.7548 11.3095 1.57498 11.2802 1.39403 11.188C1.14315 11.0601 0.939175 10.8562 0.811344 10.6053C0.719145 10.4243 0.689767 10.2445 0.677316 10.0921C0.665978 9.95334 0.665997 9.78948 0.666017 9.62122L0.666019 6.39996C0.666019 6.39286 0.666018 6.38577 0.666017 6.37869C0.665997 6.21043 0.665978 6.04657 0.677316 5.9078C0.689767 5.75541 0.719145 5.57558 0.811344 5.39463C0.939175 5.14375 1.14315 4.93978 1.39403 4.81195C1.57498 4.71975 1.7548 4.69037 1.9072 4.67792C2.04597 4.66658 2.20983 4.6666 2.37809 4.66662C2.38517 4.66662 2.39226 4.66662 2.39935 4.66662H3.55752C3.64486 4.66662 3.68845 4.66646 3.72011 4.66502L3.7225 4.6649L3.72427 4.66329C3.74768 4.64193 3.77861 4.61122 3.84037 4.54946L5.95083 2.43901C5.95668 2.43315 5.96253 2.4273 5.96838 2.42145C6.09582 2.29398 6.22108 2.16868 6.33088 2.07675C6.42884 1.99474 6.63513 1.83027 6.92089 1.80778Z" fill="currentColor"/></svg>
