<svg xmlns="http://www.w3.org/2000/svg" fill="currentColor" style="fill-rule:evenodd;clip-rule:evenodd;stroke-linejoin:round;stroke-miterlimit:2" viewBox="0 0 1069 1069"><path id="Speaker" d="M.03.14H1066.7v1066.67H.03z" style="fill:none"/><path d="M375.3 729.57a33.1 33.1 0 0 1 33.06-33.07 33.1 33.1 0 0 1 33.08 33.07 33.1 33.1 0 0 1-33.08 33.07 33.1 33.1 0 0 1-33.07-33.07m107.8 0a33.1 33.1 0 0 1 33.08-33.07 33.1 33.1 0 0 1 33.07 33.07 33.1 33.1 0 0 1-33.07 33.07 33.1 33.1 0 0 1-33.08-33.07m50.26-534.64c-126.48 0-229.16 102.7-229.16 229.17 0 126.48 102.68 229.17 229.16 229.17 126.49 0 229.17-102.69 229.17-229.17S659.85 194.93 533.36 194.93m0 62.5c91.99 0 166.67 74.69 166.67 166.67 0 91.99-74.68 166.67-166.67 166.67S366.7 516.09 366.7 424.1s74.68-166.67 166.66-166.67" style="fill-opacity:.5"/><path d="M741.7 918.9H325.03c-17.25 0-31.25 14-31.25 31.24 0 17.25 14 31.25 31.25 31.25H741.7c17.24 0 31.25-14 31.25-31.25 0-17.24-14-31.25-31.25-31.25m156.25-635.42c0-109.31-88.61-197.92-197.92-197.92H377.11c-109.3 0-197.91 88.6-197.91 197.92V679.3c0 109.3 88.6 197.92 197.91 197.92h322.92c109.3 0 197.92-88.61 197.92-197.92zm-62.5 0V679.3c0 74.79-60.63 135.42-135.42 135.42H377.11c-74.78 0-135.41-60.63-135.41-135.42V283.48c0-74.8 60.63-135.42 135.41-135.42h322.92c74.79 0 135.42 60.63 135.42 135.41M619.19 759h72.25a31.26 31.26 0 0 0 0-62.5h-72.25c-17.24 0-31.25 14-31.25 31.25 0 17.24 14 31.25 31.25 31.25M514.55 455.38q1.2 4.46 1.2 9.14v.03A35.45 35.45 0 0 1 480.3 500h-.03c-9.4 0-18.42-3.74-25.07-10.39a31.26 31.26 0 0 0-44.2 0 31.26 31.26 0 0 0 0 44.2 98 98 0 0 0 69.27 28.69h.03a97.95 97.95 0 0 0 97.95-97.95v-.03a98 98 0 0 0-8.3-39.47 35 35 0 0 1 7.14-5.44l.02-.01a35.45 35.45 0 0 1 48.43 12.98l.01.02a35.5 35.5 0 0 1 3.54 26.9 31.27 31.27 0 0 0 22.1 38.27 31.27 31.27 0 0 0 38.27-22.1 98 98 0 0 0-9.78-74.32l-.01-.02a97.95 97.95 0 0 0-133.81-35.86l-.02.02a98 98 0 0 0-29.92 26.77 35 35 0 0 1-8.7-3.58h-.02a35.45 35.45 0 0 1-12.98-48.44l.02-.02a35.5 35.5 0 0 1 21.52-16.52 31.26 31.26 0 0 0 22.1-38.27 31.26 31.26 0 0 0-38.27-22.1 98 98 0 0 0-59.48 45.64l-.01.02a97.95 97.95 0 0 0 35.85 133.8l.02.02a98 98 0 0 0 38.58 12.57"/></svg>
