<svg xmlns="http://www.w3.org/2000/svg" fill="none" viewBox="0 0 24 24"><path fill="currentColor" d="M16.25 12a.75.75 0 0 0-1.5 0zM7.02 6.96l.12.74zm1.58-.74-.41-.63zm-.87.52.3.7zm-4.39 9.98-.32.68zm-1.8-3.7-.75.05zm.42 2.4.66-.35zm11.74 4.65-.24-.7zm1.71-5.46.75.03zm-1.13 5.17.43.61zM8.82 6.08l.41.62zm4.88-2.16-.24.71zm.58.3.43-.61zM3.34 7.28l-.32-.68zm-1.8 3.7-.75-.05zm.42-2.4.66.35zm7.95 9.17A.75.75 0 0 0 9.1 19zm-.9-10.9.22-.15-.82-1.25-.22.14zm-6.73 6.13L2.25 12H.75q0 .51.04 1.07zM2.25 12l.03-.98-1.5-.1L.76 12zm12.5 0c0 .51-.03 1.45-.09 2.57l1.5.07c.05-1.12.09-2.09.09-2.64zM6 7.75c.49 0 .82 0 1.14-.05L6.9 6.22c-.17.03-.35.03-.89.03zm2.19-2.16c-.45.3-.6.4-.76.47l.6 1.37c.3-.13.58-.32.98-.58zM7.14 7.7q.45-.06.9-.26l-.61-1.37q-.26.11-.54.16zM6 17.76c.54 0 .72 0 .9.03l.24-1.48c-.32-.05-.65-.05-1.14-.05zm0-1.5c-1.44 0-1.93-.02-2.35-.2l-.63 1.35c.79.37 1.68.35 2.98.35zM.79 13.07c.07 1.16.1 1.95.5 2.7l1.33-.7c-.22-.4-.26-.82-.34-2.09zm2.86 2.97c-.4-.18-.82-.58-1.03-.97l-1.32.7a4 4 0 0 0 1.72 1.63zm11.01-1.47a29 29 0 0 1-.26 3.38c-.14.77-.33 1.06-.55 1.22l.86 1.22c.7-.5 1-1.28 1.17-2.18s.21-2.08.28-3.57zm-.72 6.21q.41-.13.77-.39l-.86-1.22q-.18.12-.4.2zM9.24 6.7a30 30 0 0 1 2.9-1.79c.71-.35 1.07-.36 1.32-.28l.48-1.41c-.82-.28-1.63-.06-2.46.34-.82.4-1.82 1.06-3.07 1.89zm4.22-2.07q.21.08.39.2l.86-1.22q-.36-.25-.77-.4zM6 6.25c-1.3 0-2.2-.02-2.98.35l.63 1.36c.42-.2.9-.21 2.35-.21zm-3.72 4.77c.08-1.27.12-1.68.34-2.09l-1.32-.7c-.41.75-.44 1.54-.51 2.7zm.74-4.42c-.69.32-1.36.95-1.72 1.62l1.32.71c.2-.39.63-.79 1.03-.97zM9.1 19q1.55 1.04 2.63 1.55c.74.33 1.48.49 2.22.23l-.48-1.42c-.23.08-.54.08-1.13-.18-.6-.27-1.36-.74-2.42-1.43zm7.03-10.46a20 20 0 0 0-.3-3.01 3 3 0 0 0-1.1-1.92l-.87 1.22c.2.14.38.4.51 1.02.14.63.2 1.51.26 2.76z"/><path stroke="currentColor" stroke-linecap="round" stroke-width="1.5" d="M20 18s1.5-1.8 1.5-6c0-2.43-.5-4.06-.93-5M18 15s.5-.9.5-3q-.02-1.28-.18-2M22 2 2 22"/></svg>
