<svg xmlns="http://www.w3.org/2000/svg" fill="currentColor" viewBox="0 0 32 32"><path d="M20.46 2.06a1 1 0 0 0-1.03.05L9.4 10H6.07c-1.7 0-3.1 1.21-3.1 2.7l.06 6.6c0 1.49 1.39 2.7 3.09 2.7h3.33l9.98 7.9a1 1 0 0 0 1.56-.83V2.94a1 1 0 0 0-.53-.88M19 27.18l-8.67-7.02a1 1 0 0 0-.56-.17H6.12c-.64 0-1.09-.37-1.09-.7l-.05-6.6c0-.33.44-.7 1.09-.7H9.7a1 1 0 0 0 .56-.17l8.73-7zm5.7-16.32a1 1 0 0 0-.34 1.98 3.25 3.25 0 0 1 2.67 3.33 3.4 3.4 0 0 1-2.7 3.34 1 1 0 1 0 .4 1.96 5.4 5.4 0 0 0 4.3-5.3 5.3 5.3 0 0 0-4.34-5.3z"/></svg>
