<svg xmlns="http://www.w3.org/2000/svg" fill="none" viewBox="0 0 24 24"><path stroke="currentColor" stroke-linecap="round" stroke-linejoin="round" stroke-width="1.5" d="M22 12v5c0 3-2 5-5 5H7.63q.47-.4.79-.94.57-.92.58-2.06a4 4 0 0 0-7-2.64V12c0-2.72 1.64-4.62 4.19-4.94Q6.58 7 7 7h10q.39 0 .75.05C20.33 7.35 22 9.26 22 12"/><path stroke="currentColor" stroke-linecap="round" stroke-linejoin="round" stroke-width="1.5" d="M17.75 7.05A5 5 0 0 0 17 7H7q-.42 0-.8.06.2-.42.57-.78l3.25-3.26a3.5 3.5 0 0 1 4.96 0l1.75 1.77c.64.63.98 1.43 1.02 2.26M22 12.5h-3a2 2 0 0 0-2 2c0 1.1.9 2 2 2h3"/><path stroke="currentColor" stroke-linecap="round" stroke-linejoin="round" stroke-miterlimit="10" stroke-width="1.5" d="M9 19a4 4 0 0 1-1.37 3 3.97 3.97 0 0 1-6.05-.94A4 4 0 1 1 9 19m-2.93 1.04-2.1-2.11m2.07.03-2.11 2.11"/></svg>
