<svg xmlns="http://www.w3.org/2000/svg" fill="none" viewBox="0 0 24 24"><path stroke="currentColor" stroke-linecap="round" stroke-linejoin="round" stroke-width="1.5" d="M13 9H7m15 1.97v2.06c0 .55-.44 1-1 1.02h-1.96c-1.08 0-2.07-.79-2.16-1.87a2 2 0 0 1 .6-1.63 2 2 0 0 1 1.44-.6H21c.56.02 1 .47 1 1.02"/><path stroke="currentColor" stroke-linecap="round" stroke-linejoin="round" stroke-width="1.5" d="M17.48 10.55a2 2 0 0 0-.6 1.63c.09 1.08 1.08 1.87 2.16 1.87H21v1.45c0 3-2 5-5 5H7c-3 0-5-2-5-5v-7c0-2.72 1.64-4.62 4.19-4.94q.39-.06.81-.06h9q.39 0 .75.05C19.33 3.85 21 5.76 21 8.5v1.45h-2.08a2 2 0 0 0-1.44.6"/></svg>
