<svg xmlns="http://www.w3.org/2000/svg" fill="none" viewBox="0 0 24 24"><path stroke="currentColor" stroke-linecap="round" stroke-linejoin="round" stroke-width="1.5" d="M10.75 16.86v2.03c0 1.72-1.6 3.11-3.57 3.11S3.6 20.61 3.6 18.89v-2.03c0 1.72 1.6 2.94 3.58 2.94 1.97 0 3.57-1.23 3.57-2.94"/><path stroke="currentColor" stroke-linecap="round" stroke-linejoin="round" stroke-width="1.5" d="M10.75 14.11q-.01.76-.38 1.36c-.59.97-1.8 1.58-3.2 1.58a3.7 3.7 0 0 1-3.2-1.58q-.37-.6-.38-1.36c0-.86.4-1.63 1.04-2.19a3.8 3.8 0 0 1 2.53-.91c.99 0 1.88.35 2.53.91a2.8 2.8 0 0 1 1.06 2.19"/><path stroke="currentColor" stroke-linecap="round" stroke-linejoin="round" stroke-width="1.5" d="M10.75 14.11v2.75c0 1.72-1.6 2.94-3.57 2.94S3.6 18.57 3.6 16.86v-2.75C3.6 12.39 5.2 11 7.18 11c1 0 1.88.35 2.53.91a3 3 0 0 1 1.04 2.2M22 10.97v2.06c0 .55-.44 1-1 1.02h-1.96c-1.08 0-2.07-.79-2.16-1.87a2 2 0 0 1 .6-1.63 2 2 0 0 1 1.44-.6H21c.56.02 1 .47 1 1.02"/><path stroke="currentColor" stroke-linecap="round" stroke-linejoin="round" stroke-width="1.5" d="M2 10.5v-2c0-2.72 1.64-4.62 4.19-4.94q.39-.06.81-.06h9q.39 0 .75.05C19.33 3.85 21 5.76 21 8.5v1.45h-2.08a2 2 0 0 0-1.44.6 2 2 0 0 0-.6 1.63c.09 1.08 1.08 1.87 2.16 1.87H21v1.45c0 3-2 5-5 5h-2.5"/></svg>
