<svg xmlns="http://www.w3.org/2000/svg" fill="none" viewBox="0 0 24 24"><path stroke="currentColor" stroke-linecap="round" stroke-linejoin="round" stroke-width="1.5" d="M12 22h5c3 0 5-2 5-5v-5c0-2.7-1.7-4.7-4.2-5H7c-.3 0-.5 0-.8.1C3.6 7.4 2 9.3 2 12v1"/><path stroke="currentColor" stroke-linecap="round" stroke-linejoin="round" stroke-width="1.5" d="M17.8 7H7c-.3 0-.5 0-.8.1.1-.3.3-.5.6-.8L10 3a3.5 3.5 0 0 1 5 0l1.8 1.8c.6.6.9 1.4 1 2.2m4.2 5.5h-3a2 2 0 0 0-2 2c0 1.1.9 2 2 2h3M5.8 21.4a3.2 3.2 0 1 0 0-6.4 3.2 3.2 0 0 0 0 6.4M2 22l1-1"/></svg>
