<svg xmlns="http://www.w3.org/2000/svg" fill="none" viewBox="0 0 24 24"><path stroke="currentColor" stroke-linecap="round" stroke-linejoin="round" stroke-miterlimit="10" stroke-width="1.5" d="M14.26 15.44h-5m2.5-2.44v5"/><path stroke="currentColor" stroke-linecap="round" stroke-linejoin="round" stroke-width="1.5" d="m12.66 2.52-.03.07-2.9 6.73H6.88q-1.03 0-1.92.39l1.75-4.18.04-.1.07-.16.07-.17c1.31-3.03 2.79-3.72 5.77-2.58"/><path stroke="currentColor" stroke-linecap="round" stroke-linejoin="round" stroke-width="1.5" d="M18.05 9.52q-.68-.2-1.41-.2H9.73l2.9-6.73.03-.07.44.18 2.21.93a6.5 6.5 0 0 1 2.61 1.68q.15.17.25.36.14.2.2.43l.09.26q.39 1.24-.41 3.16"/><path stroke="currentColor" stroke-linecap="round" stroke-linejoin="round" stroke-width="1.5" d="M21.52 14.2v1.95l-.02.6q-.29 5.24-5.84 5.25h-7.8q-.37 0-.7-.05-4.78-.31-5.1-5.1a6 6 0 0 1-.05-.7V14.2A4.9 4.9 0 0 1 6.9 9.32h9.76a4.9 4.9 0 0 1 4.87 4.88"/><path stroke="currentColor" stroke-linecap="round" stroke-linejoin="round" stroke-width="1.5" d="M6.71 5.53 4.96 9.7A4.9 4.9 0 0 0 2 14.2v-2.93a5.85 5.85 0 0 1 4.71-5.74m14.8 5.74v2.93c0-2.2-1.45-4.07-3.45-4.67.52-1.3.67-2.32.42-3.17l-.1-.26a5.8 5.8 0 0 1 3.14 5.17"/></svg>
