<svg viewBox="0 0 28 28" fill="none" xmlns="http://www.w3.org/2000/svg"><path fill-rule="evenodd" clip-rule="evenodd" d="M21.6685 1.4675C22.4268 1.4675 23.1035 1.46752 23.6169 1.54919C24.1652 1.64252 24.7719 1.84088 25.1335 2.44755C25.4835 3.05421 25.4018 3.68417 25.2268 4.20917C25.0752 4.7225 24.7719 5.34086 24.4335 6.04086L24.2585 6.40259C24.0019 6.91593 23.8734 7.19586 23.8734 7.55752L23.8734 21.0559C23.8734 22.1059 23.8735 22.9809 23.7801 23.6693C23.6868 24.3926 23.4768 25.0576 22.9635 25.5943C22.4501 26.1309 21.7968 26.3409 21.0852 26.4459C20.4202 26.5392 19.5684 26.5392 18.5651 26.5392L6.33846 26.5392C5.58013 26.5392 4.90344 26.5392 4.3901 26.4575C3.84177 26.3759 3.2351 26.1658 2.87344 25.5592C2.52344 24.9642 2.60513 24.3342 2.78013 23.7975C2.93179 23.2842 3.2351 22.6775 3.57344 21.9659C3.57344 21.9659 4.13353 20.8225 4.13353 20.4492L4.13353 13.2276C4.13353 12.0843 4.85686 11.1858 5.35853 10.6258C5.49853 10.4742 6.02344 9.91421 6.02344 9.91421C5.91844 9.80921 5.5451 9.42419 5.38177 9.24919C4.8801 8.71252 4.13353 7.77921 4.13353 6.64755C4.13353 5.73755 4.13348 4.99083 4.20348 4.38417C4.27348 3.75417 4.42513 3.18255 4.82179 2.68088C5.44013 1.87588 6.33853 1.60759 7.10853 1.50259C7.65686 1.44426 8.2751 1.45583 8.7651 1.4675L21.6685 1.4675ZM9.62848 21.1492C9.62848 20.6592 10.0251 20.2742 10.5035 20.2742H17.5035C17.9818 20.2742 18.3785 20.6592 18.3785 21.1492C18.3785 21.6392 17.9818 22.0242 17.5035 22.0242H10.5035C10.0251 22.0242 9.62848 21.6275 9.62848 21.1492ZM10.5618 13.6008C10.6668 13.5308 10.7602 13.4725 10.8419 13.4142C12.7785 12.1425 15.2284 12.1425 17.1651 13.4142C17.2468 13.4725 17.3401 13.5308 17.4451 13.6008C18.3901 14.1842 20.0235 15.2226 18.8335 16.4709C18.1919 17.1592 17.4801 17.6492 16.5701 17.6492H11.4368C10.5268 17.6492 9.8151 17.1592 9.17344 16.4709C7.98344 15.2226 9.61682 14.1842 10.5618 13.6008ZM14.0035 11.1626C15.4501 11.1626 16.6285 9.99588 16.6285 8.57255C16.6285 7.14921 15.4501 5.98252 14.0035 5.98252C12.5568 5.98252 11.3785 7.13755 11.3785 8.57255C11.3785 10.0075 12.5568 11.1626 14.0035 11.1626Z" fill="currentColor"/></svg>
