<svg xmlns="http://www.w3.org/2000/svg" fill="currentColor" style="fill-rule:evenodd;clip-rule:evenodd;stroke-linejoin:round;stroke-miterlimit:2" viewBox="0 0 64 64"><path id="Icons" d="M-640-64H640v800H-640z" style="fill:none"/><g id="Icons1"><g id="warning"><path d="M32.43 7.99c2.18.12 4 1.16 5.1 3.28l17.93 36.2c1.74 3.67-.96 8.6-5.37 8.66H13.97c-4.03-.06-7.33-4.63-5.36-8.7l18.28-36.2c.34-.65.5-.84.79-1.18a5.5 5.5 0 0 1 4.75-2.06m-.3 4c-.69.03-1.31.41-1.66 1.01a1202 1202 0 0 0-18.3 36.27c-.54 1.22.4 2.8 1.76 2.86q18.1.3 36.19 0c1.32-.06 2.32-1.58 1.77-2.85a1198 1198 0 0 0-17.97-36.27 1.9 1.9 0 0 0-1.79-1.03" style="fill-rule:nonzero"/><path d="M33.63 40.58h-3.35l-.36-16.45h4.1zm-3.83 5.03q0-.9.6-1.51.6-.6 1.61-.6 1.03 0 1.62.6t.6 1.51q0 .88-.58 1.47-.58.6-1.64.6-1.05 0-1.63-.6t-.58-1.47" style="fill-rule:nonzero"/></g></g></svg>
