<svg xmlns="http://www.w3.org/2000/svg" viewBox="-47.34 0 313.495 313.495"><defs><style>.a{fill:#fff}.b{fill:#211715}</style></defs><path d="M4.1 185.99v79.88l78.99 45.6 131.77-75.65-.14.08v-83.03Z" class="a"/><path d="M136.47 95.6 2.1 173.2v11.15l77.54 44.76a3 3 0 0 0 2.99 0l134.08-77.42v-11.4l-78.27-44.67a2 2 0 0 0-1.97 0M37.04 118.7V34.83L93.93 2v83.86z" class="a"/><path d="m135.46 93.88-18.1 10.45-32.73 18.9-37.11 21.42-31.2 18.02c-5 2.88-10.13 5.61-15.02 8.67l-.2.12a2 2 0 0 0-1 1.72c0 3.69-.23 7.44 0 11.12.08 1.23.83 1.67 1.72 2.2l6.8 3.92 27.04 15.6 29.87 17.25 10.3 5.95c1.35.77 2.84 1.9 4.38 2.18 1.96.37 3.49-.61 5.08-1.53l17.03-9.84 26.86-15.5 30.7-17.73 28.84-16.65 21.2-12.24 5.95-3.43c1.2-.7 2.75-1.25 2.85-2.87.23-3.75 0-7.58 0-11.33a2 2 0 0 0-1-1.73l-8.04-4.6-19.11-10.9-23.03-13.14-19.49-11.12c-2.85-1.63-5.66-3.41-8.59-4.9a4.4 4.4 0 0 0-4 0 2 2 0 0 0-.71 2.73 2.05 2.05 0 0 0 2.73.71 17 17 0 0 1 1.98 1.16l5.67 3.24 18.63 10.63 22.7 12.95 19.56 11.16 6.49 3.7a30 30 0 0 0 3.07 1.76l.14.07-1-1.73c0 3.8.08 7.61 0 11.4l1-1.72-7.58 4.37-19.42 11.22-26.63 15.37-28.87 16.67-26.45 15.27-19.34 11.17c-1.81 1.04-3.61 2.12-5.44 3.14a1.5 1.5 0 0 1-1.71 0l-1.45-.84-3.87-2.23-24.95-14.4-28.61-16.52-17.42-10.06-.87-.5 1 1.73v-11.16l-1 1.73 12.34-7.12 29.78-17.2 36.95-21.33 33.8-19.52 20.45-11.8 1.05-.6c2.23-1.3.22-4.75-2.02-3.46" class="b"/><path d="M90.66 133.36V108.7c0-2.09-2.94-3.78-6.56-3.78s-6.57 1.7-6.57 3.78v24.66c0 2.1 2.94 3.8 6.57 3.8s6.56-1.7 6.56-3.8" class="a"/><path d="M79.53 133.36V108.7c0-2.57-4-2.57-4 0v24.66c0 2.58 4 2.58 4 0m9.13-24.66v24.66c0 2.58 4 2.58 4 0V108.7c0-2.57-4-2.57-4 0" class="b"/><path d="M79.53 108.7c.01-.37-.04.14-.03.15s.04-.25.06-.25l.04-.13-.1.24.12-.24q.06-.11.16-.23c-.05.07-.29.29-.04.07l.21-.2c.25-.27-.17.08.03-.04s.36-.25.56-.36l.31-.16c.05-.03.4-.18.18-.09s.09-.03.1-.03l.37-.13a10 10 0 0 1 .97-.25l.41-.07.1-.01a13 13 0 0 1 2.12-.01c.09 0 .48.06.21.02a9 9 0 0 1 1.57.38l.36.13c-.08-.03-.31-.16.02.02q.35.17.69.37l.27.19c.23.14-.2-.23-.04-.02.04.05.5.5.3.28s.11.19.16.26c.18.27-.03-.04-.04-.12.01.08.12.3.1.38 0-.02-.07-.51-.04-.14.02.3.04-.14.04-.15.08.14-.33.66 0 .14l-.25.41c-.11.22.26-.21.05-.07l-.26.27c-.23.24-.03.04.04-.02l-.27.19-.6.34-.31.16c.08-.04.33-.12-.04 0q-.42.15-.85.26a5 5 0 0 1-1.33.23 12 12 0 0 1-1.9-.03c-.03 0-.39-.05-.1-.01l-.51-.1a9 9 0 0 1-.87-.23l-.37-.12c-.34-.11.07.04-.12-.04a7 7 0 0 1-.7-.37l-.27-.19c-.4-.25.22.26-.09-.08l-.21-.2c-.26-.24.07.19 0 0l-.12-.16c-.13-.23-.06-.35-.02 0q-.03-.13-.08-.25c-.08-.4.03.45.01.01a2 2 0 0 0-4 0c.1 3.05 2.98 4.87 5.68 5.47 2.96.66 6.57.4 9.1-1.42a5.3 5.3 0 0 0 2.26-3.26 4.6 4.6 0 0 0-1.29-4c-2.08-2.23-5.72-2.84-8.61-2.49-3.13.38-7.03 2.03-7.14 5.7a2 2 0 0 0 2 2 2.04 2.04 0 0 0 2-2" class="b"/><path d="M160.4 140.22c0 5.85.6 15.31-1.82 16.7l-52.7 30.44a3.6 3.6 0 0 1-3.64 0l-34.2-19.75c-2.43-1.4-1.82-11.13-1.82-16.82Zm-61.14-19.56v-.5a2.1 2.1 0 0 0-1.05-1.83l-6-3.46a2.1 2.1 0 0 0-2.11 0l-2.45 1.41a2.1 2.1 0 0 0-1.06 1.83v.5a2.1 2.1 0 0 0 1.06 1.83l6 3.46a2.1 2.1 0 0 0 2.1 0l2.45-1.4a2.1 2.1 0 0 0 1.06-1.84" class="a"/><path d="M101.26 120.66a5 5 0 0 0-.6-2.64 6 6 0 0 0-2.3-1.9l-4.5-2.6a5 5 0 0 0-3-.9 5 5 0 0 0-2.14.75 18 18 0 0 0-2.78 1.72 4.6 4.6 0 0 0 .2 6.71 17 17 0 0 0 1.93 1.2c1.57.9 3.12 1.95 4.75 2.73a4.3 4.3 0 0 0 3.97-.1l1.26-.73q.6-.32 1.17-.67a4.3 4.3 0 0 0 2.05-3.56 2 2 0 0 0-2-2 2.04 2.04 0 0 0-2 2l-.01.19q.03-.34-.05 0l.05-.14-.02.03c.23-.24-.04.02-.13.08l-1.02.59q-.58.31-1.13.65l-.2.1c.13-.05.2.02-.1.04q.31-.03-.05-.02.3.05-.06-.04c.2.15-.06-.07-.14-.11l-.9-.52-2.4-1.38-2.1-1.22-.34-.2c-.4-.23-.07-.06-.04-.03l.08.13q-.16-.3-.05 0l-.05-.18v-.54c.1-.42-.18.13.1-.18-.08.1-.38.3-.04.1l.14-.09 1.2-.68c.31-.19.67-.35.97-.57.06-.04.2-.19.03-.05l.2-.05q-.31.02.06.01c-.33-.15.25.17-.06 0 1.41.74 2.77 1.6 4.15 2.4.62.37 1.24.7 1.85 1.08.34.2.04 0-.05-.1q.17.3.05 0 .09.35.05.01a5 5 0 0 1 .01.69 2 2 0 0 0 4 0Z" class="b"/><path d="m158.58 142.92-52.7 30.43a3.6 3.6 0 0 1-3.64 0l-34.2-19.75a3.63 3.63 0 0 1 0-6.3l52.7-30.43a3.6 3.6 0 0 1 3.63 0l34.2 19.74a3.63 3.63 0 0 1 0 6.3" style="fill:#7abee6"/><path d="M2.1 185.99v79.88c0 2.57 4 2.57 4 0v-79.88c0-2.58-4-2.58-4 0m79.01 43.97v81.5c0 2.57 4 2.58 4 0v-81.5c0-2.57-4-2.58-4 0m8-5v81.5c0 2.57 4 2.58 4 0v-81.5c0-2.57-4-2.58-4 0m123.6-72.09v82.05c0 2.57 4 2.58 4 0v-82.05c0-2.57-4-2.58-4 0m-8 5v82.05c0 2.57 4 2.58 4 0v-82.05c0-2.57-4-2.58-4 0M10.78 180.78l11.85 6.84 25.25 14.58 23.63 13.65 6.39 3.68 1.03.6c1.8.94 3.38.37 4.98-.55l14.1-8.14 23.64-13.65 28.06-16.2 27.32-15.77 21.68-12.52 11.05-6.38.49-.28c2.23-1.29.21-4.75-2.02-3.45l-7.56 4.36-19.37 11.18-26.24 15.15-28.16 16.26-25.14 14.52-17.16 9.9-2.45 1.42c-.31.18-.99.7-1.24.67-.34-.02-.91-.53-1.2-.7l-2.68-1.54-21.07-12.16-26-15.02-16.35-9.43-.81-.47c-2.24-1.29-4.25 2.17-2.02 3.45m28.27-62.1V34.83l-1 1.73 44.6-25.74 12.3-7.1L91.91 2v83.86l1-1.73-46.73 26.97-10.16 5.86c-2.23 1.29-.22 4.75 2.02 3.46l44.27-25.56 12.62-7.28a2 2 0 0 0 .99-1.72V1.99a2.02 2.02 0 0 0-3-1.73L48.36 26l-12.33 7.1a2 2 0 0 0-.99 1.72v83.85c0 2.57 4 2.58 4 0" class="b"/><path d="M158.4 140.22a115 115 0 0 1-.14 11.94 13 13 0 0 1-.35 2.03 8 8 0 0 1-.27.86c.04-.1-.14.2-.13.19-.3.37.2-.13 0-.01l-.22.13c-2.42 1.22-4.74 2.74-7.08 4.1L122 175.73l-12.22 7.06-3.63 2.1a10 10 0 0 1-1.5.85c-1.03.36-2.1-.52-2.95-1.01l-4.84-2.8-14.48-8.35-11.74-6.78q-.64-.39-1.3-.75l-.25-.15-.05-.02c-.1-.06.32.27.12.1-.31-.28.01.04-.08-.1a10 10 0 0 1-.78-3.65 67 67 0 0 1-.15-5.85c.01-1.86.06-3.73.06-5.6 0-2.58-4-2.58-4 0 0 3.96-.24 7.95.13 11.9.23 2.42.56 5.3 2.8 6.72 2.93 1.85 6.03 3.48 9.04 5.22 8.27 4.78 16.49 9.68 24.83 14.34a6 6 0 0 0 6.01.04l2.34-1.35 10.8-6.24 29.77-17.19 8.8-5.08a5.6 5.6 0 0 0 2.31-2.03 12 12 0 0 0 1.2-4.81 56 56 0 0 0 .22-6.06l-.07-6.03c0-2.57-4-2.57-4 0Z" class="b"/><path d="m113.18 139.89-19.11 11.03-2.68 1.55c-2.23 1.29-.22 4.74 2.02 3.45l19.05-11 2.74-1.58c2.23-1.28.21-4.74-2.02-3.45m6.68-11.13v6.29a2 2 0 0 0 4 0v-6.29a2 2 0 0 0-4 0" class="b"/><path d="m157.57 141.19-13.76 7.94-25.48 14.71-9.68 5.6-2.85 1.64a6 6 0 0 1-1.35.7c-.85.22-1.65-.41-2.35-.82l-3.76-2.17-12.1-6.98-12.06-6.97-3.87-2.23a6 6 0 0 1-1.81-1.2c-1.34-1.87 1.68-3.03 2.88-3.72L80 142.7l25.31-14.62c5.4-3.1 10.7-6.46 16.22-9.36 1.55-.82 3.26.71 4.6 1.49l10.98 6.34c6.73 3.88 13.5 7.7 20.19 11.65 1.15.68 1.55 2.17.25 2.99-2.17 1.38-.16 4.84 2.02 3.45a5.7 5.7 0 0 0 .52-9.39 20 20 0 0 0-1.98-1.2l-10.2-5.9-22.04-12.71a6.1 6.1 0 0 0-6.16-.3l-1.2.7-7.86 4.54-25.9 14.96C78.94 138.7 73.1 142 67.3 145.43a5.73 5.73 0 0 0 .07 10.1l8.24 4.76 23.92 13.8q.84.53 1.7.99a6 6 0 0 0 5.98-.19q3.15-1.8 6.28-3.62l25.11-14.5 19.92-11.5 1.07-.62c2.23-1.3.22-4.75-2.01-3.46m-33.73 84.11 49.45-28.55c2.23-1.29.21-4.74-2.02-3.45l-.95.55c-2.23 1.28-.22 4.74 2.02 3.45l.95-.55-2.02-3.45-49.45 28.55c-2.23 1.28-.22 4.74 2.02 3.45m-39.72 87.89 51.36-29.49 51.35-29.48 29.04-16.68c2.23-1.28.22-4.74-2.02-3.45l-2.53 1.46c-2.24 1.28-.22 4.73 2.02 3.45l2.53-1.46-2.02-3.45-51.35 29.48-51.36 29.49-29.04 16.67c-2.23 1.28-.22 4.74 2.02 3.45Z" class="b"/><path d="m84.12 309.76-7.86-4.54-18.88-10.9-22.83-13.18-19.73-11.4c-3.18-1.83-6.32-3.81-9.57-5.52l-.14-.08c-2.23-1.3-4.25 2.16-2.02 3.45l7.86 4.54 18.88 10.9 22.83 13.18 19.74 11.4c3.18 1.83 6.31 3.81 9.57 5.52l.14.08c2.23 1.3 4.25-2.16 2.02-3.45Z" class="b"/></svg>
