<svg xmlns="http://www.w3.org/2000/svg" fill="none" viewBox="0 0 24 24"><path fill="currentColor" fill-rule="evenodd" d="M9.84 18.45q.26.48.5.87a7.5 7.5 0 0 1-4.31-2.78c.7-.4 1.58-.8 2.65-1.1.3 1.2.73 2.2 1.16 3m1.32-.7c-.37-.7-.74-1.58-1.01-2.61a13 13 0 0 1 3.7 0A12 12 0 0 1 12 19.08q-.37-.5-.84-1.34M9.75 12q0 .88.1 1.66a14 14 0 0 1 4.3 0 13 13 0 0 0 0-3.32 14 14 0 0 1-4.3 0q-.1.79-.1 1.66m-1.36-1.97a14 14 0 0 0 0 3.94 14 14 0 0 0-3.15 1.29 7.5 7.5 0 0 1 0-6.52c.82.46 1.87.95 3.15 1.29m1.76-1.17a13 13 0 0 0 3.7 0A12 12 0 0 0 12 4.92q-.37.5-.84 1.34c-.37.7-.74 1.57-1.01 2.6m5.46 1.17a14 14 0 0 1 0 3.94c1.28.34 2.33.83 3.15 1.29a7.5 7.5 0 0 0 0-6.52c-.82.46-1.87.95-3.15 1.29m2.36-2.57c-.7.4-1.58.8-2.65 1.1a13 13 0 0 0-1.67-3.88 7.5 7.5 0 0 1 4.32 2.78m-9.3 1.1a12 12 0 0 1-2.64-1.1 7.5 7.5 0 0 1 4.32-2.78 13 13 0 0 0-1.67 3.87m6.65 6.89a13 13 0 0 1-1.67 3.87 7.5 7.5 0 0 0 4.32-2.78c-.7-.4-1.58-.8-2.65-1.1M12 21a9 9 0 1 0 0-18 9 9 0 0 0 0 18" clip-rule="evenodd"/></svg>
