<svg xmlns="http://www.w3.org/2000/svg" fill="none" viewBox="0 0 40 40"><path stroke="currentColor" stroke-width="1.5" d="M9 .75h17.04l8.21 7.54V36c0 1.8-1.46 3.25-3.25 3.25H9A3.25 3.25 0 0 1 5.75 36V4C5.75 2.2 7.21.75 9 .75Z"/><mask id="path-2-inside-1_9067_87905" fill="currentColor"><path d="M25 1h8.5v8.5H26a1 1 0 0 1-1-1z"/></mask><path fill="currentColor" d="M25 1h8.5zm8.5 9.5H26a2 2 0 0 1-2-2h9.5zm-7.5 0a2 2 0 0 1-2-2V1h2zM33.5 1v8.5z" mask="url(#path-2-inside-1_9067_87905)"/><rect width="33" height="13" x="1" y="20" fill="currentColor" rx="2"/><path fill="currentColor" d="M13.4 22.98 11.57 30H9.5l-1.12-4.62L7.22 30H5.15l-1.78-7.02H5.2l1.01 5.11 1.25-5.11h1.88l1.2 5.11 1.02-5.11zm2.57 1.37v1.42h2.29v1.32h-2.3v1.54h2.6V30h-4.3v-7.02h4.3v1.37zm7.95 2.05q.6.13.98.61.37.46.37 1.08 0 .88-.62 1.4-.6.51-1.71.51h-3.27v-7.02h3.16q1.07 0 1.67.49.6.5.6 1.33a1.6 1.6 0 0 1-1.18 1.6m-2.54-.58h1.12q.43 0 .64-.18.23-.2.23-.55t-.23-.55q-.22-.2-.64-.19h-1.12zm1.26 2.8q.42 0 .66-.19a.7.7 0 0 0 .24-.57.7.7 0 0 0-.25-.58 1 1 0 0 0-.67-.21h-1.24v1.55zm8.97-3.38q0 .6-.28 1.12-.28.5-.86.81-.59.3-1.44.31h-1.06V30h-1.71v-7.02h2.77q.84 0 1.42.29a2 2 0 0 1 .87.8q.3.51.29 1.17m-2.71.88q.5 0 .73-.23a1 1 0 0 0 .24-.65q0-.42-.24-.65t-.73-.23h-.93v1.76z"/></svg>
