<svg xmlns="http://www.w3.org/2000/svg" preserveAspectRatio="xMidYMid" viewBox="-29.5 0 256 256"><defs><linearGradient id="linear-gradient-1" x1="98" x2="98" y1="179" y2="0" gradientUnits="userSpaceOnUse"><stop offset="0" stop-color="#c5d1d5"/><stop offset="1" stop-color="#d9e7eb"/></linearGradient></defs><g id="weightsvg"><path id="path-1" fill-rule="evenodd" d="M196.1 54c-2 32-23 125-23 125h-150S2.1 86 .1 54s24.17-54 54-54h88c29.82 0 56 22 54 54m-57-23h-82c-17.68 0-27.45 13.37-23 29 2.76 9.73 7 25 7 25 2.5 6.27 7.16 13 16 13h82c8.83 0 13.5-6.73 16-13 0 0 4.22-15.27 7-25 4.44-15.63-5.33-29-23-29" style="fill:url(#linear-gradient-1)"/><path id="path-2" fill-rule="evenodd" d="M176.22 207.68c-5.71-.95-17.25-3.4-25.09-8.68-13.02-8.77-20.4-28.56-20.4-28.56S123.6 148 98.1 148s-32.64 22.44-32.64 22.44-7.37 19.79-20.4 28.56c-7.83 5.28-19.37 7.73-25.08 8.68A97 97 0 0 1 14.09 174a84 84 0 1 1 168 0 97 97 0 0 1-5.87 33.68" style="fill:#d9e7eb"/><path id="path-3" fill-rule="evenodd" d="M45.05 199c13.03-8.77 20.4-28.56 20.4-28.56S72.6 148 98.1 148s32.64 22.44 32.64 22.44 7.38 19.79 20.4 28.56c7.44 5 19.1 7.47 25.15 8.52-7.8 21.22-23.1 38.2-44 46.2-3.51 1.34-10.99 2.28-10.99 2.28H74.9s-7.47-.94-10.98-2.28c-20.91-8-36.21-24.98-44-46.2 6.05-1.05 17.7-3.51 25.14-8.52" style="fill:#b6cdd5"/><circle id="circle-1" cx="98" cy="182" r="25" style="fill:#fce202"/></g></svg>
