<svg xmlns="http://www.w3.org/2000/svg" viewBox="0 0 1024 1024"><path fill="currentColor" d="M512 128.04c-185.56 0-340.76 132.3-376.32 307.5l102.93-43.35C284.9 287.04 389.93 213.38 512 213.38c164.7 0 298.67 133.95 298.67 298.66 0 164.67-133.98 298.67-298.67 298.67-122.07 0-227.11-73.7-273.39-178.88L135.68 588.5C171.24 763.71 326.44 896.04 512 896.04c211.75 0 384-172.29 384-384 0-211.75-172.25-384-384-384"/><path fill="none" d="M512 106.67v128m0 554.66v128M789.33 512h128"/><path fill="currentColor" d="m64 512.04 405.33-170.7L362.67 512l106.66 170.67z"/></svg>
