<svg xmlns="http://www.w3.org/2000/svg" preserveAspectRatio="xMidYMid" viewBox="-7 0 254 254"><defs><linearGradient id="linear-gradient-1" x1="153" x2="153" y1="167" y2="37" gradientUnits="userSpaceOnUse"><stop offset="0" stop-color="#0bdfff"/><stop offset="1" stop-color="#31e3ff"/></linearGradient></defs><g id="whistler"><path id="path-1" fill-rule="evenodd" d="M216.38 48a24 24 0 1 1 0-48 24 24 0 0 1 0 48m0-31a7 7 0 1 0 0 14 7 7 0 0 0 0-14" style="fill:#4762e1"/><path id="path-2" fill-rule="evenodd" d="M152.38 184c-37.51 0-49.34 1.5-61.59 19l-30.57 43.66a16 16 0 0 1-22.28 3.92l-31.13-21.8A16 16 0 0 1 2.9 206.5L47.35 143h105.03z" style="fill:#0addfe"/><path id="path-3" fill-rule="evenodd" d="M153.38 184a81.9 81.9 0 0 1-70.4-40h-35.1a8.5 8.5 0 1 1 0-17H75.3a82 82 0 0 1-3.85-22H57.37c-3.18 0-8.75-2.53-7.75-9.3C56.35 50.43 96.12 16 143.38 16a94.5 94.5 0 0 1 53 16.18 82 82 0 0 1-43 151.82" style="fill:#01bef2"/><circle id="circle-1" cx="153" cy="102" r="65" style="fill:url(#linear-gradient-1)"/></g></svg>
