<svg xmlns="http://www.w3.org/2000/svg" viewBox="0 0 1024 1024"><path fill="currentColor" d="M889.8 685.1c39 5.4 69.1 38.9 69.1 79.4 0 44.2-36 80.2-80.2 80.2-8 0-15.8-1.2-23.3-3.5-8.9 14-19.5 27.1-31.5 39.1-43.9 43.8-102.1 68-164.1 68h-528c-36.2 0-65.7-29.5-65.7-65.7s29.5-65.7 65.7-65.7h40.9c-15.1-31.2-23-65.5-23-100.7 0-29.6 5.4-58.2 16.1-85.2-43.3-18.7-73.9-62.5-73.9-109.4 0-11 1.7-21.9 5.2-32.3 32.5-98.3 116.8-165.2 220-177.6 4.5-24.3 11.6-50.1 20.8-75.4C371.3 144.3 431.4 60.8 482 79c23.7 8.6 36.2 36 36.5 78.5q8.25-4.65 16.2-8.4c51.1-24.3 77-14.3 89.6-1.7 12.7 12.7 22.7 38.5-1.7 89.6-16.3 34.2-44.6 72.3-79.7 107.5-23 23-47.5 43.2-71.4 59 2 8.3 3 16.7 3 25 0 11-1.7 21.9-5.2 32.3-2.6 8-5.6 15.7-8.9 23.3h199.4c117.5 0 214.8 87.7 230 201"/><path fill="currentColor" d="M891.8 723.2c17.5 5.6 30.3 22 30.3 41.3 0 23.9-19.4 43.3-43.3 43.3-1.8 0-3.7-.1-5.5-.4 11.3-26.3 17.6-54.8 18.5-84.2m-36.8-7c0 45.7-23.8 93.5-24.1 94.1-8.8 15.9-19.9 30.7-33 43.9a194 194 0 0 1-138 57.2H457a28.8 28.8 0 0 1 0-57.6h83.5c10.2 0 18.4-8.3 18.4-18.4v-31.3c0-51.5 41.9-93.4 93.4-93.4h24.4c10.2 0 18.4-8.3 18.4-18.4 0-10.2-8.3-18.4-18.4-18.4h-24.4c-71.8 0-130.3 58.4-130.3 130.3V817h-65c-36.2 0-65.7 29.5-65.7 65.7 0 10.3 2.4 20.1 6.7 28.8H131.8a28.8 28.8 0 0 1 0-57.6h72.7c3.5 0 7.1-1 10.3-3.2a18.4 18.4 0 0 0 5-25.6 194.3 194.3 0 0 1-33.2-108.9c0-31 7-60.6 20.9-88 4.6-9.1 1-20.2-8.1-24.8-1.4-.7-2.9-1.2-4.4-1.5-18.5-4.1-35.1-15-47-29.4-11.7-14.5-19-32.5-19-50.9 0-7.1 1.1-14.1 3.3-20.7 15.3-46.2 43.9-85.1 82.9-112.5 39.1-27.5 86.5-42 137.2-42 1.3 0 12.1.5 16.2 1.2a18.5 18.5 0 0 0 19.3-9.1c15.2-26.9 38.4-56.6 65.5-83.7 17.9-17.9 36.5-33.8 54.8-46.9.4-.3.8-.5 1.1-.8 14.2-10.1 28.2-18.5 41.4-24.8 28.1-13.4 43.9-12.7 47.7-8.9s4.5 19.6-8.9 47.7c-14.5 30.4-40.2 65-72.5 97.2-24 24-49.4 44.5-73.8 59.6l.2.3a18.4 18.4 0 0 0-10.7 23.7c3.3 8.8 5 17.7 5 26.5 0 7.1-1.1 14.1-3.3 20.7-5.1 15.5-11.8 30.3-19.9 44-5.2 8.8-2.2 20.1 6.5 25.3 2.9 1.7 6.2 2.5 9.3 2.5h229.4C767.5 521 855 608.6 855 716.2"/><path fill="currentColor" d="M827.3 716.2c0 10.2-8.3 18.4-18.4 18.4-10.2 0-18.4-8.3-18.4-18.4 0-72-58.6-130.6-130.6-130.6-10.2 0-18.4-8.3-18.4-18.4 0-10.2 8.2-18.4 18.4-18.4 92.3-.1 167.4 75 167.4 167.4M469.5 113.6c5.9 2.1 15.7 21.8 10.9 68.9a475 475 0 0 0-53.1 46.2c-26.3 26.3-48.6 54.1-65.2 81-1.8-.1-6.3-.2-6.8-.2 4.2-19.7 10.1-40.3 17.5-60.7 35.9-99.3 84.1-139.7 96.7-135.2M244.6 433.3c12.3 0 22.4 10 22.4 22.4 0 12.3-10 22.4-22.4 22.4s-22.4-10-22.4-22.4 10-22.4 22.4-22.4"/></svg>
