<svg xmlns="http://www.w3.org/2000/svg" viewBox="-14.63 0 309.374 309.374"><defs><style>.a{fill:#fff}.c{fill:#211715}</style></defs><path d="M196.3 95.67a9 9 0 0 1 6.42-2.32c4.59.18 6.53 2.67 7.36 4.13 2.5 4.37 2.36 12.38.66 17.34-1.21 3.5-3.19 8.88-7.91 12.71a9.8 9.8 0 0 1-7.54 2.15l-.72-.13a58 58 0 0 1-2.62 7.03c-2 5.33-13.2 24.42-27.16 31 .26 2.77.48 5.12.88 7.8.59 4 1.36 8.16 5.58 10.33 5.15 2.31 15.43 6.64 19.8 7.9-12.02 6.86-34.9 12.92-52.3 12.84-18.58-.05-38.27-5.94-51.25-12.72 4.1-1.1 14.87-5.63 20.19-8.02 4.22-2.17 4.99-6.33 5.58-10.34.4-2.73.63-5.12.9-7.98-6.25-2.94-11.84-7.7-17.16-14.1a67 67 0 0 1-12.69-24.17 9.6 9.6 0 0 1-8.14-2.08c-4.7-3.87-6.63-9.25-7.8-12.77-1.67-4.97-1.75-12.99.78-17.33.84-1.46 2.8-3.94 7.4-4.08a9 9 0 0 1 6.4 2.37s-18.71-61.8 54.1-61.8 59.24 62.24 59.24 62.24" class="a"/><path d="M188.67 22.67a115 115 0 0 0-12.22-9.76 68 68 0 0 0-9.54-4.93 62 62 0 0 0-27.29-4.94C108.37 1.2 78.46 24.59 72.32 54.2c-1.68 7.99-1.03 20.35-.13 26.83A40 40 0 0 0 75 91.62l.63 1.31q.45-.05.94-.07a9 9 0 0 1 6.07 2.07c5.56-6.53 11.96-9.41 22.37-13.7a27 27 0 0 0 3.08-1.36h1.52a2.9 2.9 0 0 0 1.27 3.13 11 11 0 0 0 4.37.6 28.6 28.6 0 0 0 15.04-3.55h8.32c-.35 1.18 0 2.56 2.08 2.85a24.8 24.8 0 0 0 16.1-4.1 35 35 0 0 0 8.8-10.2c2.36-4.55 3.99-8.08 4.9-13.53h5.26c.99 8 4.2 15.53 7.66 22.81 2.07 4.38 4.62 9.08 9.13 10.84l3.77 6.95a9 9 0 0 1 6.42-2.32 10 10 0 0 1 3.47.71c4.53-11.4 2.2-29.97.32-39.34a58 58 0 0 0-4.65-13.8 58 58 0 0 0-13.2-18.25" style="fill:#a98a75"/><path d="M23.67 279.77c.75-7.48 6.12-27.06 9.35-36.02 6.64-18.47 15.84-32.71 33.04-41.06 6.83-3.32 12.85-5.56 21.57-8.88 13 6.74 32.6 12.6 51.12 12.64 17.32.08 40.05-5.92 52.12-12.73 8.9 3.37 15.35 5.62 22.24 8.97 17.2 8.34 26.4 22.59 33.04 41.05 3.23 8.97 8.6 28.55 9.35 36.03" class="a"/><path d="M89.6 190.07c-8.44 3.24-16.99 6.3-25.12 10.28a59 59 0 0 0-18.94 14.69c-10.1 11.92-15.34 26.92-19.51 41.75-2.11 7.5-4.35 15.2-5.16 22.98a2.8 2.8 0 0 0 2.8 2.8 2.86 2.86 0 0 0 2.8-2.8l.1-.78.04-.32q.16-1.03.35-2.06.45-2.34.97-4.68 1.23-5.4 2.7-10.75a198 198 0 0 1 6.43-20.28A81 81 0 0 1 48 220.83a54 54 0 0 1 16.66-14.27c8.35-4.6 17.54-7.69 26.42-11.09a2.9 2.9 0 0 0 1.96-3.44 2.8 2.8 0 0 0-3.45-1.96Zm-4.67-96.82a12.4 12.4 0 0 0-13.79-1.9c-3.26 1.6-5.15 4.84-6 8.27-2.03 8.14 0 17.44 4.63 24.38 3.39 5.06 8.31 8.82 14.67 7.95 1.5-.2 2.32-2.13 1.96-3.45a2.9 2.9 0 0 0-3.44-1.95c-3.4.47-6.39-2.53-8.14-5.07a29 29 0 0 1-3.85-8.25 24 24 0 0 1-.85-9.9 16 16 0 0 1 1.05-4.23c.12-.26.49-.87.72-1.26.32-.52-.24.2.11-.16l.64-.66.38-.32c-.24.18-.09.07.07-.03a7 7 0 0 1 1.02-.56c-.3.12.21-.06.22-.06l.66-.19a7 7 0 0 1 1.15-.18 6.3 6.3 0 0 1 4.83 1.53c2.65 2.43 6.62-1.52 3.96-3.96m102.69 102.22c8.12 3.11 16.42 5.89 24.25 9.72a55 55 0 0 1 17.8 13.81c9.43 11.1 14.23 25.56 18.13 39.45q1.71 6.09 3.16 12.24a142 142 0 0 1 1.55 7.64l.15 1c-.1-.71.02.22.04.44a2.9 2.9 0 0 0 2.8 2.8 2.8 2.8 0 0 0 2.8-2.8c-.7-6.79-2.57-13.5-4.35-20.08a194 194 0 0 0-6.72-20.98 87 87 0 0 0-11.87-21.54 59 59 0 0 0-17.86-15.35c-8.94-4.97-18.87-8.1-28.4-11.75a2.8 2.8 0 0 0-3.43 1.96 2.86 2.86 0 0 0 1.95 3.44" class="c"/><path d="M86.6 196.41a121 121 0 0 0 43 12.37c14.33 1.4 28.84-.7 42.64-4.68a95 95 0 0 0 19.87-7.87c3.15-1.75.33-6.59-2.83-4.83a84 84 0 0 1-16.08 6.56 136 136 0 0 1-20.11 4.6 103 103 0 0 1-42.46-2.95 110 110 0 0 1-21.21-8.03c-3.2-1.64-6.04 3.19-2.83 4.83Z" class="c"/><path d="M162.06 168.37c.65 6.72.7 15.6 7.29 19.48a35 35 0 0 0 3.9 1.77q2.53 1.1 5.08 2.16 4.65 1.97 9.4 3.7a2.83 2.83 0 0 0 3.45-1.96 2.86 2.86 0 0 0-1.95-3.44 189 189 0 0 1-16.19-6.62c-2.47-1.15-3.43-2.92-4.05-5.43a68 68 0 0 1-1.33-9.65 2.9 2.9 0 0 0-2.8-2.8 2.8 2.8 0 0 0-2.8 2.8Zm-50.78 0a71 71 0 0 1-1.3 9.5c-.6 2.6-1.55 4.41-4.08 5.6a189 189 0 0 1-16.19 6.6 2.87 2.87 0 0 0-1.95 3.45 2.83 2.83 0 0 0 3.44 1.95c3.18-1.13 6.3-2.4 9.41-3.7q2.55-1.05 5.08-2.15a35 35 0 0 0 3.9-1.77c6.59-3.88 6.64-12.76 7.29-19.48a2.8 2.8 0 0 0-2.8-2.8 2.86 2.86 0 0 0-2.8 2.8m87-70.72a6 6 0 0 1 3.93-1.5 8 8 0 0 1 2.24.27 5 5 0 0 1 1.72.78c.39.24-.05-.11.36.28q.3.29.57.58.16.16.28.33s-.3-.41-.13-.16l.38.6a12 12 0 0 1 1.3 4.03c1.08 6.11-.72 12.72-3.89 17.9-1.81 2.96-5.07 6.8-9 6.22a2.9 2.9 0 0 0-3.45 1.96c-.36 1.32.45 3.22 1.96 3.44 10.3 1.5 16.37-8.8 19.03-17.26a30 30 0 0 0 .8-13.4c-.56-3.6-2.1-7.06-5.16-9.2a12.3 12.3 0 0 0-14.9 1.18c-2.67 2.42 1.3 6.37 3.96 3.96Z" class="c"/><path d="M192.96 124.65a54 54 0 0 1-2.15 7.34c-.67 1.84-1.1 2.62-1.78 4.4.35-.92.03-.1-.07.13l-.35.75q-.41.85-.87 1.69a73 73 0 0 1-2.28 3.95 69 69 0 0 1-15.4 18.06 28 28 0 0 1-11.19 5.7 2.8 2.8 0 0 0 1.49 5.4c8.66-1.95 15.88-8.3 21.54-14.86a77 77 0 0 0 11.9-17.86l.81-1.92c-.37.85-.03.1.04-.05l.5-1.16.69-1.74a56 56 0 0 0 2.51-8.34 2.87 2.87 0 0 0-1.95-3.44 2.83 2.83 0 0 0-3.44 1.96Zm-112.45.85a71 71 0 0 0 9.89 23.53c5.1 7.75 11.83 15 20 19.56a40 40 0 0 0 13.34 4.6 2.9 2.9 0 0 0 3.44-1.96c.36-1.32-.45-3.22-1.96-3.45a38 38 0 0 1-20.4-10.24 64 64 0 0 1-15.19-21.76A68 68 0 0 1 85.91 124a2.8 2.8 0 1 0-5.4 1.5m48.4 17.56a23 23 0 0 0 11.08 2.6c3.97-.01 7.98-.78 11.17-3.25 1.2-.93.97-2.99 0-3.96a2.87 2.87 0 0 0-3.96 0c.85-.65.17-.14-.05 0s-.46.27-.69.4c-.2.1-1.03.42-.28.15q-.46.18-.95.34a16 16 0 0 1-2.65.6 21 21 0 0 1-2.95.13q-.84 0-1.69-.07l-.77-.07c-.94-.08.48.1-.4-.04a20 20 0 0 1-2.48-.56q-.52-.16-1.03-.35l-.33-.13c.63.39.27.11.07.02l-1.26-.63a2.86 2.86 0 0 0-3.83 1 2.83 2.83 0 0 0 1 3.83Zm9.8-26.1a53 53 0 0 1 1.2 5.62l-.1-.75a3 3 0 0 1 .02.78l.1-.75-.08.35.28-.67-.12.23.43-.57-.18.18.57-.44-.45.24.67-.29a3 3 0 0 1-.75.22l.74-.1a3 3 0 0 1-.7 0l.75.1-.8-.14a3 3 0 0 0-2.15.28 2.8 2.8 0 0 0-1 3.83 2.7 2.7 0 0 0 1.67 1.29c.6.08 1.18.23 1.78.26a6 6 0 0 0 2.62-.61 3.8 3.8 0 0 0 2.1-2.48 6 6 0 0 0-.02-2.69q-.47-2.7-1.17-5.38a2.8 2.8 0 0 0-5.4 1.49Zm-29.74-16.03c-.95 3.05-.36 10.07 5.41 10.69 7.64-.02 8.08-8.5 5.53-12.5-2.1-3.27-8.28-4.66-10.94 1.81m61.16.24c.92 3.05.29 10.07-5.5 10.64-7.63-.07-8-8.56-5.42-12.54 2.12-3.25 8.31-4.59 10.92 1.9M77.4 90.2a34 34 0 0 1-2.35-8.82q-.1-.55-.17-1.1c.02.12.07.52 0-.06l-.2-1.77q-.22-2.01-.35-4.03a83 83 0 0 1 .32-17.49c1.6-10.63 6.81-20.72 13.86-28.75a66.4 66.4 0 0 1 26.67-18.45A72 72 0 0 1 147.45 6c12.01 1.15 24.64 5.14 33.4 13.75 2.57 2.53 6.54-1.43 3.96-3.96-8.61-8.46-20.44-12.96-32.21-14.75s-24.11-1.4-35.53 2.14c-22.55 7-41.67 25.6-47.14 48.86-1.6 6.82-1.66 13.97-1.28 20.92.37 6.77 1.04 13.86 3.92 20.07a2.8 2.8 0 0 0 3.83 1 2.86 2.86 0 0 0 1-3.83m111.03-63.43c7.27 5.9 11.87 14.4 14.42 23.31a85 85 0 0 1 3.11 26.51 51 51 0 0 1-2.68 15.32 2.83 2.83 0 0 0 1.96 3.44 2.86 2.86 0 0 0 3.44-1.95c3.32-9.3 3.42-19.68 2.4-29.39-1.06-10.14-3.5-19.97-8.51-28.92A42 42 0 0 0 192.4 22.8a2.9 2.9 0 0 0-3.96 0 2.8 2.8 0 0 0 0 3.96Zm-15.5 28.3c.99 7.65 3.68 14.76 6.88 21.74 2.7 5.9 5.63 12 11.97 14.61 1.4.58 3.08-.62 3.44-1.95a2.87 2.87 0 0 0-1.95-3.45 11.4 11.4 0 0 1-4.85-4.66 64 64 0 0 1-3.96-7.79c-2.68-5.87-5.1-12.07-5.93-18.5a2.9 2.9 0 0 0-2.8-2.8c-1.37 0-3 1.28-2.8 2.8" class="c"/><path d="M135.9 79.3a4.9 4.9 0 0 0 2.99 6 14 14 0 0 0 5.65.5 27.4 27.4 0 0 0 14.19-4.99c6.34-4.77 10.69-12.07 13.12-19.54a54 54 0 0 0 2.2-14.72c.14-3.6-5.46-3.6-5.6 0a52 52 0 0 1-1.38 11.12 35 35 0 0 1-1.34 4.1c-.32.82-.27.7-.66 1.54q-.48 1.05-1 2.1a34 34 0 0 1-5.35 7.84 21 21 0 0 1-9.95 6.15 20 20 0 0 1-5.47.85 11 11 0 0 1-2.4-.12c.33.07-.18-.25-.22-.1 0-.03.24.09.25.1.5 1.5.32.58.29.38.03.18-.06.83.08.29.9-3.5-4.5-4.98-5.4-1.49Z" class="c"/><path d="M106.8 79.86a5.6 5.6 0 0 0 3.9 6.07 21 21 0 0 0 6.5.46 33 33 0 0 0 13.5-3.42c4.39-2.11 7.77-5.55 10.72-9.36a43 43 0 0 0 6.7-12.14 70 70 0 0 0 2.97-15.2 2.8 2.8 0 0 0-2.8-2.8 2.87 2.87 0 0 0-2.8 2.8c-.86 7.52-2.3 14.71-6.46 21.1a33 33 0 0 1-7.43 8.5 25.4 25.4 0 0 1-11.06 4.64 33 33 0 0 1-5.3.28c-.92-.01-1.93-.16-2.72-.17-.22 0-.42-.15-.15.07.16.13-.07-.12-.04-.24-.08.3.07-.6.07-.59a2.8 2.8 0 0 0-2.8-2.8 2.86 2.86 0 0 0-2.8 2.8" class="c"/><path d="M90.86 91.24a58 58 0 0 1 8.36-4.53c3.26-1.48 6.68-2.64 9.89-4.23a30.4 30.4 0 0 0 13.81-14.13 56 56 0 0 0 3.78-10.96c.86-3.5-4.54-5-5.4-1.49-1.8 7.39-4.65 14.76-11.07 19.33-3.61 2.57-7.7 3.96-11.73 5.71a66 66 0 0 0-10.47 5.46 2.87 2.87 0 0 0-1 3.83 2.83 2.83 0 0 0 3.84 1Z" class="c"/><path d="M38.32 133.4q-8.2-9.06-16.46-18.38l-4.69 34.53c39.43 38.95 83.97 85.9 130.9 122.63a710 710 0 0 1 31.44.19c-42.16-35.47-90.93-83.49-141.2-138.98" style="fill:#e2e2e2"/><path d="M19.89 117q31.5 35.58 64.59 69.72a1477 1477 0 0 0 61.06 59.49q15.6 14.29 31.77 27.96a2.9 2.9 0 0 0 3.96 0 2.8 2.8 0 0 0 0-3.96 1136 1136 0 0 1-58-52.69q-32.33-31.27-62.92-64.28-18.51-19.86-36.5-40.2a2.8 2.8 0 1 0-3.96 3.96m-4.7 34.53c16.24 16.04 32.25 32.3 48.5 48.33 16.96 16.73 34.17 33.23 52.04 48.98a680 680 0 0 0 30.55 25.46 2.9 2.9 0 0 0 3.96 0c.97-.96 1.2-3.02 0-3.96-18.73-14.65-36.54-30.44-53.87-46.71-17.18-16.14-33.88-32.77-50.53-49.44q-13.32-13.33-26.69-26.62c-2.57-2.54-6.53 1.42-3.96 3.96" class="c"/><path d="M55.23 276.97q-.35 3.63-.4 7.33h21.61c0-34.35 26.2-63.7 64.1-63.7 37.77 0 64.1 29.12 64.1 63.7h21.62c-.66-45.68-35.69-83.9-85.72-83.9-47.48 0-81.23 34.45-85.31 76.57" style="fill:#7a7473"/><path d="M229.07 285.6a89.7 89.7 0 0 0-15.4-50.5 86 86 0 0 0-41.62-32.12A94.5 94.5 0 0 0 115.2 201a85.8 85.8 0 0 0-43.83 28.84 89.4 89.4 0 0 0-19.1 49.1 92 92 0 0 0-.24 6.65c-.01 3.6 5.59 3.6 5.6 0a84 84 0 0 1 14.4-47.28 80 80 0 0 1 38.42-29.91 89 89 0 0 1 53.9-2.03 80.4 80.4 0 0 1 41.26 27.17 83.3 83.3 0 0 1 17.64 45.52q.23 3.26.23 6.53c0 3.6 5.6 3.61 5.6 0Z" class="c"/><path d="M207.44 284.3a68 68 0 0 0-11.58-38.08 65.2 65.2 0 0 0-31.4-24.32 71.3 71.3 0 0 0-42.85-1.6 64.8 64.8 0 0 0-33.28 21.8 67.7 67.7 0 0 0-14.5 37.2 69 69 0 0 0-.19 5c0 3.6 5.6 3.61 5.6 0A62 62 0 0 1 90 249.19a59.3 59.3 0 0 1 28.45-22 66 66 0 0 1 39.75-1.42 59.4 59.4 0 0 1 30.54 20.18 61.7 61.7 0 0 1 12.93 33.51q.17 2.42.17 4.85c0 3.6 5.6 3.6 5.6 0Z" class="c"/><path d="M89.57 254.17a8.1 8.1 0 0 1 8.74 1.57 11.2 11.2 0 0 1 1.93 7.57 32 32 0 0 1-3.63 10.35 9.7 9.7 0 0 1-7.59 4.9s-9.91 2.06-13.58-2.27-.42-14.17 1.58-15.67 12.55-6.45 12.55-6.45" class="a"/><path d="M90.31 256.87a6 6 0 0 1 4.09-.28 5 5 0 0 1 1.35.61q.2.12.37.26-.25-.18-.04 0c.08.07.36.42.17.17a8.3 8.3 0 0 1 1 6.53 28 28 0 0 1-2.97 7.94 7.1 7.1 0 0 1-5.25 3.66 2.9 2.9 0 0 0-2.8 2.8 2.8 2.8 0 0 0 2.8 2.8 13 13 0 0 0 9.81-5.98 31 31 0 0 0 4.02-10.8c.62-3.63-.03-8-2.56-10.82-2.72-3.03-7.83-3.77-11.47-2.3a2.9 2.9 0 0 0-1.96 3.45c.37 1.32 2.04 2.53 3.44 1.95Z" class="c"/><path d="M59.17 238.9c10.32-3.68 24.75 1.12 30.33 10.89 2.14 3.76 2.1 9.91-3.75 11.4 3.7 3.37 4.07 7.69 1.99 11-.98 1.56-3.39 2.3-5.17 2.36a12 12 0 0 1-2.91-.27l.26.27a7.1 7.1 0 0 1 1.59 6.49 8 8 0 0 1-3.31 5.38c-2.44 1.51-6.67.78-8.82-.33l-.43-.22.53.65c1.98 2.4-.4 6.98-2.2 8.16-5.16 3.42-11.16.34-17.01-2.46-4.52-2.17-8.74-6.6-9.97-10.89-.99-3.44-1.42-6-.97-11.97a37.2 37.2 0 0 1 15.03-27.86 17 17 0 0 1 4.81-2.6" class="a"/><path d="M84.35 263.74c1.74 1.88 2.4 4.29 1.33 6.42-.31.61-.3.64-.73.91a4 4 0 0 1-1.54.58 9 9 0 0 1-3.87-.29c-3.06-.88-5.96-2.67-8.82-4.04q-4.59-2.17-9.1-4.46c-3.2-1.65-6.04 3.18-2.83 4.83 3.78 1.95 7.63 3.75 11.46 5.6 3.78 1.83 7.55 4.06 11.87 4.08a11 11 0 0 0 5.65-1.46 8.3 8.3 0 0 0 3.44-4.54c1.48-4.16-.01-8.46-2.9-11.58-2.46-2.65-6.41 1.31-3.96 3.95" class="c"/><path d="M77.94 276.54a4 4 0 0 1 .95 3.04s-.1.93-.03.45a10 10 0 0 1-.23 1.05 6 6 0 0 1-.78 1.78 7 7 0 0 1-.8.98 2.5 2.5 0 0 1-1.28.54 8 8 0 0 1-3.45-.19 16 16 0 0 1-3.46-1.48q-2.4-1.17-4.82-2.29a88 88 0 0 1-8.77-4.5c-3.08-1.88-5.9 2.96-2.83 4.84a110 110 0 0 0 10.8 5.44c3.64 1.72 7.02 3.8 11.17 3.88a9.3 9.3 0 0 0 9.1-6.07 10.7 10.7 0 0 0-1.61-11.43 2.83 2.83 0 0 0-3.96 0 2.86 2.86 0 0 0 0 3.96" class="c"/><path d="M67.07 287.94s.47.79.27.36c.16.34.08.34.07.12a3 3 0 0 1-.08 1.12 5 5 0 0 1-.4 1.16 9 9 0 0 1-.47.82c-.05.08-.55.7-.26.37l-.45.47c-.33.3.87-.45-.25.14a7 7 0 0 1-1.6.69 8 8 0 0 1-3.5.03 36 36 0 0 1-8.3-3.21 20 20 0 0 1-6.61-5.03 13.6 13.6 0 0 1-2.86-5.74 20 20 0 0 1-.68-5.7 41 41 0 0 1 2.45-14.56 34 34 0 0 1 8.06-12.12 26 26 0 0 1 5.5-4.36 11 11 0 0 1 2.26-1 21 21 0 0 1 3.17-.8 8 8 0 0 1 1.05-.13q.76-.07 1.52-.1a27 27 0 0 1 3.1.1 20 20 0 0 1 2.67.41 30 30 0 0 1 3.36.92 23.5 23.5 0 0 1 9.95 6.45 11 11 0 0 1 2.92 5.42 4.6 4.6 0 0 1-.63 3.3 1.7 1.7 0 0 1-1.83.87 16 16 0 0 1-3.85-1.72q-2.38-1.16-4.78-2.3c-2.92-1.4-5.85-2.76-8.73-4.23-3.2-1.63-6.04 3.2-2.83 4.84 2.95 1.5 5.95 2.9 8.94 4.32q2.47 1.16 4.92 2.38a26 26 0 0 0 4.5 2.02 7.5 7.5 0 0 0 8.84-3.96 11.3 11.3 0 0 0 .15-9.33c-2-4.91-6.46-8.84-11.06-11.3a32 32 0 0 0-15.33-3.8 23.4 23.4 0 0 0-14.55 5.19 40 40 0 0 0-11.48 14.47 45 45 0 0 0-3.86 17.5c-.18 5.53.77 11.24 4.2 15.72a25 25 0 0 0 9.12 7.3c3.73 1.8 7.58 3.67 11.78 3.93a10.8 10.8 0 0 0 9.64-4.36c1.82-2.63 2.83-6.73.78-9.5a2.9 2.9 0 0 0-3.83-1 2.8 2.8 0 0 0-1 3.83" class="c"/><path d="M190.08 254.17a8.1 8.1 0 0 0-8.75 1.57 11.2 11.2 0 0 0-1.93 7.57 32 32 0 0 0 3.63 10.35 9.7 9.7 0 0 0 7.59 4.9s9.92 2.06 13.58-2.27.42-14.17-1.58-15.67-12.55-6.45-12.55-6.45" class="a"/><path d="M190.82 251.47c-3.65-1.48-8.75-.74-11.47 2.3-2.53 2.82-3.18 7.2-2.57 10.8a31 31 0 0 0 4.02 10.82 13 13 0 0 0 9.82 5.98 2.8 2.8 0 0 0 2.8-2.8 2.87 2.87 0 0 0-2.8-2.8 7 7 0 0 1-5.17-3.51 28 28 0 0 1-3.06-8.1 8 8 0 0 1-.21-3.03 8 8 0 0 1 1.13-3.36 2 2 0 0 1 .45-.48 5 5 0 0 1 1.49-.7 6 6 0 0 1 4.08.28 2.8 2.8 0 0 0 3.44-1.95 2.87 2.87 0 0 0-1.95-3.45" class="c"/><path d="M220.47 238.9c-10.32-3.68-24.75 1.12-30.33 10.89-2.14 3.76-2.1 9.91 3.76 11.4-3.7 3.37-4.08 7.69-2 11 .98 1.56 3.39 2.3 5.17 2.36a12 12 0 0 0 2.91-.27l-.26.27a7.1 7.1 0 0 0-1.59 6.49 8 8 0 0 0 3.31 5.38c2.44 1.51 6.67.78 8.82-.33l.43-.22-.53.65c-1.98 2.4.4 6.98 2.2 8.16 5.16 3.42 11.17.34 17.01-2.46 4.52-2.17 8.74-6.6 9.97-10.89 1-3.44 1.42-6 .98-11.97a37.2 37.2 0 0 0-15.04-27.86 17 17 0 0 0-4.8-2.6" class="a"/><path d="M191.33 259.78c-2.87 3.1-4.4 7.45-2.9 11.58a8.4 8.4 0 0 0 3.44 4.55 11 11 0 0 0 5.64 1.45c4.33-.02 8.1-2.25 11.88-4.07 3.83-1.85 7.68-3.65 11.46-5.6 3.2-1.65.37-6.48-2.83-4.84-3 1.55-6.05 3-9.1 4.47-2.87 1.37-5.76 3.15-8.82 4.04a9 9 0 0 1-3.87.28 4 4 0 0 1-1.54-.57c-.42-.28-.42-.3-.72-.9-1.07-2.16-.43-4.54 1.32-6.43 2.45-2.64-1.5-6.61-3.96-3.96" class="c"/><path d="M197.75 272.58a10.6 10.6 0 0 0-1.76 11.1 9.4 9.4 0 0 0 9.24 6.4c4.08-.07 7.4-2.09 10.98-3.78a113 113 0 0 0 10.99-5.53c3.07-1.88.26-6.73-2.83-4.84a88 88 0 0 1-8.77 4.5q-2.32 1.07-4.62 2.18a17 17 0 0 1-3.65 1.59 9 9 0 0 1-3.3.23 2.9 2.9 0 0 1-2.24-1.57 7 7 0 0 1-1.04-3.27 4 4 0 0 1 .96-3.05 2.87 2.87 0 0 0 0-3.96 2.83 2.83 0 0 0-3.96 0" class="c"/><path d="M207.74 285.1c-1.89 2.56-1.13 6.13.29 8.7a10 10 0 0 0 7.4 5.01c3.75.58 7.33-.58 10.74-2.03a37 37 0 0 0 9.28-5.23 21 21 0 0 0 6.1-8.11 26 26 0 0 0 1.63-7.29A44 44 0 0 0 241 258.5a40 40 0 0 0-9.72-15.45c-4-3.95-8.48-7-14.13-7.83-10.38-1.53-21.78 2.64-28.1 11.15a13.5 13.5 0 0 0-2.96 9.18c.37 3.94 3.13 7.95 7.43 8.05a11.5 11.5 0 0 0 5.21-1.47c1.81-.88 3.6-1.8 5.42-2.67 3.4-1.63 6.82-3.21 10.18-4.92 3.21-1.64.38-6.47-2.83-4.84-5.2 2.65-10.5 5.15-15.77 7.68a8 8 0 0 1-1.41.53 1.5 1.5 0 0 1-.9.06 2.7 2.7 0 0 1-1.55-1.8 6.9 6.9 0 0 1 1.16-5.73c4.17-6.57 12.89-10.18 20.65-9.95a17 17 0 0 1 10.45 3.66 37 37 0 0 1 9.82 11.91 36 36 0 0 1 3.56 13.32 38 38 0 0 1 0 7.5c-.08.54.1-.63-.05.24l-.12.67-.3 1.32a15 15 0 0 1-.92 2.85c-2.7 5.65-8.93 8.8-14.6 10.66a12 12 0 0 1-4.56.77 6 6 0 0 1-1.98-.44q-.24-.1-.47-.23-.39-.2-.74-.44.36.3.12.08a6 6 0 0 1-1.4-2.19 3 3 0 0 1-.28-1.44c0-.08.1-.52.01-.14.08-.35.02-.2.36-.65a2.8 2.8 0 0 0-1-3.83 2.87 2.87 0 0 0-3.83 1Z" class="c"/><path d="M277.37 297.78V284.3c-36.99-8.24-93.95-12.2-137.3-12.2S39.73 276.05 2.74 284.3v21.08a4 4 0 0 0 4 4h266.62a4 4 0 0 0 4-4Z" class="a"/><path d="M278.11 281.6a452 452 0 0 0-50.98-7.8 847 847 0 0 0-56.97-3.93q-26.7-.98-53.43-.23-28.5.83-56.92 3.49a507 507 0 0 0-52.39 7.32q-2.7.55-5.41 1.15c-3.52.78-2.03 6.18 1.49 5.4a440 440 0 0 1 49.94-7.64 847 847 0 0 1 56.52-3.9q26.7-.97 53.43-.21 28.16.81 56.23 3.41a495 495 0 0 1 51.59 7.2q2.71.54 5.42 1.14c3.5.78 5-4.62 1.48-5.4" class="c"/></svg>
