<svg xmlns="http://www.w3.org/2000/svg" viewBox="-16.1 0 248.752 248.752"><defs><style>.c{fill:#fff}.d{fill:#211715}</style></defs><path d="M2.41 246.42a202 202 0 0 1 7.2-21.07c2.8-5.86 6.23-11.67 11.17-15.79a77 77 0 0 1 17.14-11.12c5.95-2.58 13.37-5.4 20.1-8.17 13.31 8.47 31.68 14.27 50.84 14.27 19.25 0 37.36-5.71 50.58-14.06 6.58 2.7 13.79 5.44 19.59 7.96a77 77 0 0 1 17.14 11.12c4.94 4.12 8.37 9.93 11.17 15.8 1.37 2.84 4.97 14.1 6.8 20.8Z" style="fill:#f8b8b4"/><path d="M47.75 193.95C33.9 193.61 25 183.21 25.07 173.6a117 117 0 0 1 3.55-24.8c2.75-9.84 4.73-27.16 4.73-51.17-1.18-35.43 8.14-61.12 22.83-75.19 8.86-8.47 28.81-20.02 51.23-20.02a81 81 0 0 1 32.55 6.23l4.57 1.85 5.44 3.21c4.34 2.56 5.89 4.75 10.35 9.05 11.21 10.82 19 30.28 20.24 47.7.36 5.03 1.18 18.11.4 27.16.4 29.92 5.9 46.66 8.75 54.9a55 55 0 0 1 3.46 18.74c.1 11.2-13.81 25.7-29.81 19.96Z" style="fill:#a98a75"/><path d="M149.52 195.82a99 99 0 0 1-40.66 8.72 98 98 0 0 1-48.76-12.98l-1.74-1.36c5.2-1.87 15.05-5.5 16.31-6.15a9.5 9.5 0 0 0 6.03-8.66c.2-3.28.3-5.54.63-8.52a53 53 0 0 1-15-12.9A67 67 0 0 1 53.6 130a9.5 9.5 0 0 1-8.1-2.03c-4.68-3.83-6.63-9.18-7.81-12.67-1.68-4.94-1.78-12.91.71-17.24.84-1.45 2.78-3.92 7.35-4.08a9 9 0 0 1 5.6 1.68l7.43-6.26c4.66-3.82 9.49-8.05 14.32-12.46 8.56-.15 17.92-.21 17.92-.21 16.67-4.76 30.09-14.51 40.65-28.26 2.08 7.96 5 17.88 7.57 22.7 3.78 7.08 15.8 22.96 25.47 25.28a8.7 8.7 0 0 1 6.49-2.47c4.57.16 6.5 2.63 7.34 4.08 2.5 4.33 2.4 12.3.72 17.24-1.19 3.5-3.13 8.84-7.82 12.67a9.7 9.7 0 0 1-7.48 2.16l-.72-.12a57 57 0 0 1-2.58 7c-1.87 5.07-12.05 22.65-25.03 29.96.32 2.94.42 5.18.63 8.43a9.5 9.5 0 0 0 6.02 8.66c1.34.7 12.25 4.7 17.13 6.44a83 83 0 0 1-9.9 5.33" class="c"/><path d="M4.73 247.06a213 213 0 0 1 6-18.14q.2-.57.43-1.13l.24-.6c.18-.43-.18.36.1-.24a72 72 0 0 1 4.17-7.72c6.74-10.63 18.66-16.86 30-21.43 6.85-2.76 13.77-5.4 20.51-8.43a2.4 2.4 0 0 0 .86-3.28 2.46 2.46 0 0 0-3.28-.86c-6.1 2.74-12.37 5.13-18.58 7.62-6.1 2.45-12.06 4.99-17.58 8.61-5.55 3.66-10.8 7.82-14.68 13.27a60 60 0 0 0-7.21 13.93A206 206 0 0 0 .1 245.78c-.82 2.98 3.8 4.25 4.63 1.28m211.73-1.55c-2.78-10.1-5.67-20.56-11.48-29.4-3.67-5.58-8.57-9.75-14-13.54a86 86 0 0 0-17.23-8.92c-6.86-2.78-13.8-5.38-20.55-8.42a2.5 2.5 0 0 0-3.29.86 2.4 2.4 0 0 0 .86 3.29c5.97 2.68 12.07 5.04 18.14 7.47 5.88 2.35 11.66 4.72 17.03 8.13 5.06 3.2 10.17 6.96 13.72 11.85a57 57 0 0 1 4.7 7.87q.5 1 .97 2l.2.43c-.23-.5-.08-.17-.04-.06q.55 1.37 1.04 2.77a244 244 0 0 1 5.3 16.95c.82 2.98 5.45 1.72 4.63-1.27ZM140.6 6.34A86 86 0 0 0 104.77.07a82 82 0 0 0-36.24 10.58 64 64 0 0 0-20.88 18c-5.86 8.01-9.8 17.38-12.39 26.92-3.7 13.65-4.77 27.96-4.32 42.06.1 3.08 4.9 3.1 4.8 0-.69-21.63 2-45.03 14.02-63.6a56 56 0 0 1 17.9-17.3 78 78 0 0 1 32.76-11.55 81.6 81.6 0 0 1 38.9 5.78 2.4 2.4 0 0 0 2.96-1.67 2.46 2.46 0 0 0-1.68-2.95m42.75 91.29a147 147 0 0 0 .1-18.97 131 131 0 0 0-1.54-16.68c-2.29-13.05-7.5-26.06-15.83-36.44a103 103 0 0 0-7.34-7.74 38 38 0 0 0-7.56-6.16c-2.66-1.59-5.07 2.56-2.42 4.14a32 32 0 0 1 6.33 5.16c2.16 2.18 4.43 4.27 6.44 6.6a64 64 0 0 1 9.53 15.4 84 84 0 0 1 5.85 18.34 107 107 0 0 1 1.65 15.65 153 153 0 0 1 0 20.7 2.4 2.4 0 0 0 2.4 2.4 2.45 2.45 0 0 0 2.4-2.4Z" class="d"/><path d="M47.75 191.55c-6.6-.2-13.24-3.07-17.11-8.59a17 17 0 0 1-3.08-7.55 47 47 0 0 1 .5-10.17q.63-5.75 1.82-11.4c.58-2.74 1.38-5.42 1.99-8.15a150 150 0 0 0 2.68-18.59c.9-9.8 1.2-19.64 1.2-29.47 0-3.1-4.8-3.1-4.8 0 0 9.16-.26 18.33-1.02 27.46a146 146 0 0 1-2.64 19.09c-.61 2.8-1.44 5.56-2.04 8.38-.86 4.06-1.48 8.17-1.96 12.3a49 49 0 0 0-.51 10.68 21 21 0 0 0 3.29 9.21c4.77 7.35 13.05 11.33 21.68 11.6 3.1.1 3.09-4.7 0-4.8m130.8-93.92c.23 15.91 1.84 31.97 6.23 47.32 1.63 5.71 3.94 11.25 5.1 17.09.75 3.8 1.37 8.54.6 12.02a19.4 19.4 0 0 1-4.23 8.32 22 22 0 0 1-9.39 6.66 19.2 19.2 0 0 1-12.87-.13 2.4 2.4 0 0 0-1.27 4.63 24.4 24.4 0 0 0 23.78-4.65 26 26 0 0 0 6.92-8.82 22.5 22.5 0 0 0 2.1-11.08 58 58 0 0 0-2.82-15.11c-.75-2.32-1.58-4.61-2.3-6.93a141 141 0 0 1-4.26-17.57 198 198 0 0 1-2.78-31.75c-.04-3.09-4.84-3.1-4.8 0Z" class="d"/><path d="M53.82 94.6a11.9 11.9 0 0 0-13.26-1.79c-3.15 1.56-4.96 4.7-5.77 8.01-1.96 8 .08 17.14 4.66 23.93 3.28 4.86 8.05 8.55 14.18 7.69a2.4 2.4 0 0 0 1.68-2.96 2.46 2.46 0 0 0-2.95-1.67c-3.59.5-6.68-2.49-8.55-5.17a31 31 0 0 1-3.9-8.28 25 25 0 0 1-.9-9.94 15 15 0 0 1 1.05-4.36 10 10 0 0 1 .73-1.3c.28-.44-.11.08.17-.24q.3-.34.63-.66c2.12-2 6.45-2.03 8.83.14 2.28 2.08 5.68-1.3 3.4-3.4M166.53 98a7 7 0 0 1 8.31-.55 6 6 0 0 1 1 .9q.15.16.29.34c-.02-.03-.22-.3-.08-.09l.38.6a12 12 0 0 1 1.36 4.09c1.1 6.17-.6 12.8-3.83 18.1-1.9 3.13-5.25 7-9.36 6.41a2.5 2.5 0 0 0-2.95 1.68 2.4 2.4 0 0 0 1.67 2.95c10.01 1.42 15.86-8.76 18.4-16.95a29 29 0 0 0 .76-13.13c-.57-3.47-2.03-6.84-5-8.9a11.86 11.86 0 0 0-14.34 1.15c-2.29 2.1 1.12 5.48 3.4 3.4Z" class="d"/><path d="M162 125.23a73 73 0 0 1-3.87 11.7l-.41.89q-.43.9-.9 1.77-1.05 1.97-2.21 3.86a70 70 0 0 1-15.27 18.1 28 28 0 0 1-11.34 5.87c-3.01.69-1.74 5.32 1.28 4.63 8.49-1.95 15.54-8.19 21.08-14.63a76 76 0 0 0 11.81-17.85l.54-1.24c.04-.13.31-.78.17-.45-.18.43.13-.28.14-.29l.44-1.05q.36-.86.69-1.74a56 56 0 0 0 2.47-8.3 2.46 2.46 0 0 0-1.68-2.95 2.4 2.4 0 0 0-2.95 1.68ZM50.16 126.3a70 70 0 0 0 9.97 23.39c5.06 7.57 11.7 14.68 19.74 19.12a39 39 0 0 0 13.19 4.47 2.5 2.5 0 0 0 2.95-1.67 2.4 2.4 0 0 0-1.68-2.95c-16.83-2.47-29.43-17.1-35.82-32.03a67 67 0 0 1-3.72-11.6c-.68-3.01-5.3-1.74-4.63 1.27m50.5 19.08q.62-.33 1.26-.62c.07-.04.5-.21.15-.07l.2-.08.93-.31a18 18 0 0 1 5.51-.76 17 17 0 0 1 5.57.73q.53.16 1.05.37c-.53-.21.19.1.36.2q.32.16.63.36c.3.2.87.63.18.09a2.5 2.5 0 0 0 3.4 0 2.4 2.4 0 0 0 0-3.4c-3.08-2.4-7-3.12-10.83-3.15a22.5 22.5 0 0 0-10.82 2.5 2.4 2.4 0 1 0 2.42 4.15Zm7.4-27.66a52 52 0 0 1 1.22 5.6l-.08-.65a3 3 0 0 1 .02.77l.08-.63-.08.34.24-.57-.12.22.37-.48-.18.18.49-.38-.45.24.58-.25a3 3 0 0 1-.75.22l.64-.08a3 3 0 0 1-.7 0l.64.08-.8-.14a2.7 2.7 0 0 0-1.84.25 2.4 2.4 0 0 0-.86 3.28 2.3 2.3 0 0 0 1.43 1.1c.56.08 1.1.22 1.67.24a5 5 0 0 0 2.42-.56 3.4 3.4 0 0 0 1.9-2.24 6 6 0 0 0-.03-2.47q-.47-2.7-1.18-5.35a2.4 2.4 0 1 0-4.63 1.28m-29.81-15.6c-.9 2.93-.32 9.7 5.25 10.27 7.36-.05 7.75-8.22 5.27-12.06-2.03-3.15-7.99-4.46-10.52 1.78m60.44 0c.9 2.93.32 9.7-5.25 10.27-7.36-.05-7.75-8.22-5.28-12.06 2.03-3.15 8-4.46 10.53 1.78m-9.16-52.33c1.25 4.74 2.59 9.47 4.18 14.12a53 53 0 0 0 4.46 10.23 78 78 0 0 0 14.49 17.73c3.13 2.8 6.63 5.41 10.68 6.7 2.96.92 4.22-3.7 1.28-4.64a24 24 0 0 1-8.06-5 69 69 0 0 1-8.07-8.49 56 56 0 0 1-9.77-16.68c-1.76-5-3.2-10.12-4.56-15.25-.79-2.98-5.42-1.71-4.63 1.28M89.8 57.7c-10.55 10.36-21.27 20.61-32.72 30a2.4 2.4 0 0 0 0 3.4 2.46 2.46 0 0 0 3.4 0c11.44-9.39 22.16-19.64 32.71-30 2.21-2.17-1.18-5.57-3.39-3.4" class="d"/><path d="M129.93 46.83a82 82 0 0 1-17.53 17.08A74 74 0 0 1 90.39 74.4c-2.96.85-1.7 5.49 1.27 4.63a79 79 0 0 0 34.03-20.1 90 90 0 0 0 7.63-8.71 2.5 2.5 0 0 0 0-3.4 2.4 2.4 0 0 0-3.4 0ZM56.32 193.47c4.28-1.48 8.53-3.07 12.77-4.66 4.54-1.7 9.9-3.12 12.42-7.67 2.09-3.79 1.68-8.41 2.05-12.59a2.4 2.4 0 0 0-2.4-2.4 2.45 2.45 0 0 0-2.4 2.4q-.24 2.83-.4 5.65a12 12 0 0 1-.7 3.94 6.6 6.6 0 0 1-2.52 2.98 16 16 0 0 1-1.77.9l-.23.1c-.41.2.53-.2.03 0-4.1 1.62-8.24 3.14-12.39 4.65q-2.86 1.06-5.74 2.07c-2.9 1-1.65 5.64 1.28 4.62Zm105.6-4.63a541 541 0 0 1-11.87-4.32q-2.9-1.07-5.78-2.2l-.42-.18c-.46-.18.04.02.06.03l-.95-.43a7 7 0 0 1-3.04-2.47 8.4 8.4 0 0 1-1.27-4.12c-.15-2.2-.26-4.4-.46-6.6a2.47 2.47 0 0 0-2.4-2.4 2.4 2.4 0 0 0-2.4 2.4c.33 3.7.01 7.79 1.45 11.28a12 12 0 0 0 6.5 6.42c4.26 1.86 8.69 3.37 13.05 4.97q3.12 1.15 6.25 2.24c2.92 1.02 4.18-3.62 1.27-4.62Z" class="d"/><path d="M58.89 193.63c24.37 14.34 55.02 17.04 81.77 8.2a91 91 0 0 0 19.96-9.26c2.61-1.64.2-5.8-2.42-4.14-22.72 14.26-51.74 17.23-77.26 9.56a89 89 0 0 1-19.63-8.5c-2.67-1.57-5.09 2.57-2.42 4.14" class="d"/><path d="M54.22 144.9c.27-4.83.46-9.33.87-14.94.1-1.2.2-3.59-.53-4.56-1.5-1.98-4.75-2.45-6.52-.66a11 11 0 0 0-2.91 6.45c-1.86 11.62-3.78 27.22-3.59 38.08.04 6.07 3.37 11.62 5.63 16.39 1.63 3.44 3.62 5.83 4.12 9.6a19 19 0 0 1-.72 7.73 57 57 0 0 1-3.34 8.38l-5.3 11.41-.22.48a143 143 0 0 0 30.49 5.13 32 32 0 0 0 3.72-12.15c.2-2.06.22-4.2 1.13-6.07a23 23 0 0 1 2.26-3.22c4.47-6.14 4.76-18.74 4.32-26.4.17-3.46 1.55-7.54 2.85-10.93 1.7-4.46 3.81-9.4 5.47-14.42a3.7 3.7 0 0 0-.77-3.29 5 5 0 0 0-2.68-1.38 5.2 5.2 0 0 0-3.8.62l-1.3.81 3.66-6.31a9.2 9.2 0 0 0 1.1-6.8 4.3 4.3 0 0 0-2.3-2.5 7.6 7.6 0 0 0-6.46.13s-.45.22-1.16.59a8 8 0 0 0 .92-3.61 4.8 4.8 0 0 0-2.84-4.64 5.3 5.3 0 0 0-4.34.55 16 16 0 0 0-4.6 4.51 244 244 0 0 0-13.84 21c.3-3.72.5-6.92.68-9.99" class="c"/><path d="M43.94 169.29c-.16-10.32 1.06-20.69 2.51-30.89.35-2.45.65-4.92 1.13-7.35.3-1.54 1.03-4.41 2.73-4.94a2.3 2.3 0 0 1 1.98.39c.53.4.46.94.47 1.8.02 2.56-.31 5.16-.46 7.73-.36 6.22-.64 12.44-1.15 18.64a2.4 2.4 0 0 0 2.4 2.4 2.45 2.45 0 0 0 2.4-2.4c.5-6.13.78-12.28 1.14-18.43.16-2.9.66-5.92.43-8.82a6.3 6.3 0 0 0-4.7-5.91c-3.07-.89-5.8.44-7.62 2.9-1.67 2.25-2.2 4.92-2.62 7.63a360 360 0 0 0-2.35 17.85 162 162 0 0 0-1.09 19.4c.05 3.08 4.85 3.1 4.8 0" class="d"/><path d="M54.09 158.64q3.98-6.8 8.27-13.38 2.16-3.3 4.43-6.52a48 48 0 0 1 4.13-5.41c1-1.06 2.52-2.57 4.12-2.37s1.89 2.17 1.6 3.47c-.46 2.18-2.08 4.1-3.26 5.94q-2.11 3.32-4.2 6.65c-3.18 5.08-6.33 10.18-9.55 15.23-1.67 2.62 2.48 5.03 4.14 2.43 3.27-5.12 6.46-10.29 9.68-15.43q2.33-3.72 4.68-7.41c1.53-2.38 3.08-4.68 3.37-7.56a7.6 7.6 0 0 0-2.81-6.84 7.2 7.2 0 0 0-7.64-.3 18 18 0 0 0-5.26 4.9 155 155 0 0 0-4.99 6.92 306 306 0 0 0-10.86 17.25c-1.57 2.67 2.58 5.09 4.15 2.42Z" class="d"/><path d="M80.6 138.55a5.2 5.2 0 0 1 3.79-.22 2.1 2.1 0 0 1 1.58 2.07c.23 3.23-2.22 6.15-3.75 8.8-3.58 6.2-7.1 12.44-10.83 18.56-1.6 2.65 2.55 5.06 4.15 2.42 4.45-7.34 8.64-14.84 12.97-22.26 2.01-3.45 3.68-8.51.7-11.97-2.74-3.17-7.5-3.18-11.03-1.55a2.4 2.4 0 0 0-.86 3.29 2.46 2.46 0 0 0 3.28.86m.62 42c.4 7.03.37 14.58-2 21.3-1.27 3.64-4.5 6.16-5.22 10.03-.43 2.28-.41 4.61-.87 6.9a30 30 0 0 1-2.2 6.8 2.47 2.47 0 0 0 .87 3.28 2.4 2.4 0 0 0 3.28-.86 36 36 0 0 0 3.21-11.53 18 18 0 0 1 .75-4.9c.62-1.54 1.94-2.73 2.81-4.12 3.17-5 3.9-11.51 4.2-17.3a87 87 0 0 0-.03-9.6c-.17-3.08-4.98-3.1-4.8 0m-42.08-11.26a28 28 0 0 0 2.64 10.66c1.34 3.1 2.85 6.2 4.48 9.16a28 28 0 0 1 2.09 4.18 13 13 0 0 1 .62 5.34c-.27 3.66-1.82 7.2-3.33 10.49q-2.88 6.23-5.79 12.45a2.47 2.47 0 0 0 .86 3.28A2.4 2.4 0 0 0 44 224l5.3-11.41c1.69-3.63 3.42-7.34 4.13-11.3A18.5 18.5 0 0 0 52.15 190c-1.44-3.14-3.21-6.16-4.73-9.27-1.77-3.6-3.4-7.37-3.48-11.44-.06-3.08-4.86-3.1-4.8 0" class="d"/><path d="M85.9 153.22c1.24-.7 3.91-.52 3.73 1.35a11 11 0 0 1-.78 2.27q-.4 1.13-.83 2.26-.83 2.22-1.7 4.42c-2.18 5.48-4.72 11.06-5.1 17.03-.2 3.08 4.6 3.07 4.8 0a35 35 0 0 1 2.62-9.9c1.3-3.44 2.72-6.83 4.01-10.28 1.23-3.27 3.08-7.13.23-10.15a7.9 7.9 0 0 0-9.4-1.14c-2.69 1.52-.27 5.67 2.42 4.14m-52.1 69.79a83 83 0 0 0 15.5 4.63 144 144 0 0 0 20.1 2.99 69 69 0 0 0 10.04.1l-2.32-3.04c-1.66 6-3.34 12-4.96 18-.8 2.99 3.83 4.26 4.63 1.28q2.45-9 4.96-18a2.42 2.42 0 0 0-2.31-3.04 85 85 0 0 1-17.9-.95 143 143 0 0 1-18.19-3.75 84 84 0 0 1-5.87-1.87l-.85-.33-.3-.12c-.37-.15.5.22-.1-.04a2.5 2.5 0 0 0-3.28.86 2.4 2.4 0 0 0 .86 3.28Z" class="d"/><path d="M90.24 115.79a15 15 0 0 1-3.23 1.61c-2.06.4-4.99-1.89-6.38.57-1.17 2.68 1.37 5.17 3.33 6.06a7.8 7.8 0 0 0 6 .07 6 6 0 0 0 3.24-2.8c1.63-2.73.16-7.12-2.96-5.51m41.54.98a23 23 0 0 0 4.45.5c2.6-.27 5.23-3.36 7.8-1.47 2.4 2.18.2 6.12-1.8 7.58a9.2 9.2 0 0 1-6.4 1.62c-1.95-.15-4.1-.35-5.67-1.52-2.94-2.08-2.7-7.26 1.62-6.71m-4.17 22.86q.28.3.55.63c.14.16.16.2.02 0l.25.35a15 15 0 0 1 .94 1.51l.38.75c.02.05.2.45.1.2l.07.2a15 15 0 0 1 .55 1.7 15 15 0 0 1 .33 1.65q-.04-.37-.01-.01l.03.42.04.84q-.02.89-.09 1.78c-.02.37.07-.38 0-.01l-.07.41q-.08.47-.2.93a2.4 2.4 0 0 0 4.63 1.27 17.5 17.5 0 0 0-4.13-16.02 2.4 2.4 0 0 0-3.4 0 2.45 2.45 0 0 0 0 3.4Z" style="fill:#a0a0a0"/></svg>
