<svg xmlns="http://www.w3.org/2000/svg" viewBox="-24.54 0 313.042 313.042"><defs><style>.a{fill:#211715}.b{fill:#fff}</style></defs><path d="M2.32 238.38c12.68 0 25.36-.05 38.04-.05 3.1 0 3.1-4.8 0-4.8-12.68 0-25.36.05-38.04.05-3.09 0-3.1 4.8 0 4.8m221.83 0q14.7-.01 29.38-.04h8.12c3.09 0 3.1-4.8 0-4.8q-15.98 0-31.96.04h-5.54c-3.09 0-3.1 4.8 0 4.8" class="a"/><path d="m169.92 261.6-2.43-11.98H96c-2.92 15.05-8 39.46-12.24 61.02h95.93c-2.81-14.46-6.52-32.9-9.78-49.05" class="b"/><path d="M86.83 136.7c-8.8-1.26-14.14-8.89-14.1-14.67a82 82 0 0 1 2.48-17.33c1.93-6.88 3.3-18.98 3.3-35.76-.83-24.75 5.69-42.7 15.95-52.53 6.2-5.93 20.14-14 35.8-14a57 57 0 0 1 22.75 4.35l3.47 1.41 3.5 2.05c3.03 1.77 4.1 3.28 7.21 6.26 7.81 7.49 13.24 20.95 14.1 33 .25 3.48.74 11.79.51 18.8a130 130 0 0 0 5 35.62c2 6.76 4.7 15.47 2.52 22.18a16.5 16.5 0 0 1-14.42 11.12" style="fill:#a98a75"/><path d="M167.17 68.65c-5.73-2.99-11.58-9.05-15.29-16.04q-.49-.93-1-2.17a119 119 0 0 1-4.28-13.7 53 53 0 0 1-26.45 19.27 4 4 0 0 1-2.22.1c-.83-.4-1.06-.78-.99-1.87.18-2.72 1.27-7.22 1.58-9.85-8.5 8.35-17.93 17.24-26.3 23.7a6 6 0 0 0-5.49-3.03 5.8 5.8 0 0 0-5.18 2.88C79.78 71 79.84 76.66 81 80.16c.83 2.49 2.18 6.28 5.46 9.02a6.7 6.7 0 0 0 5.7 1.46 48 48 0 0 0 8.87 17.05 36 36 0 0 0 11.48 9.7v4.16a9 9 0 0 1-.4 3.33 8 8 0 0 1-2.42 3.54c-2.47 1.98-5 2.93-8.13 4.1l-3.94 1.56c8.24 5.54 21.76 8.65 33.2 8.91 11.6-.26 25.29-3.45 33.5-9.13l-3.37-1.33c-3.12-1.18-5.65-2.13-8.12-4.11a8 8 0 0 1-2.43-3.54 9 9 0 0 1-.4-3.32v-5.1a33 33 0 0 0 10.38-8.77 48 48 0 0 0 8.8-16.8 6.6 6.6 0 0 0 5.87-1.36c3.3-2.71 4.68-6.5 5.53-8.97 1.19-3.5 1.29-9.16-.46-12.24a5.8 5.8 0 0 0-5.15-2.91 5.9 5.9 0 0 0-5.98 4.08q-.91-.36-1.82-.84" class="b"/><path d="M179.4 68.27a138 138 0 0 0 4.19 33.04c1.27 4.85 2.95 9.59 3.76 14.55.7 4.23.64 8.71-1.7 12.44a14.2 14.2 0 0 1-10.75 6.5 2.46 2.46 0 0 0-2.4 2.4 2.4 2.4 0 0 0 2.4 2.4 19.3 19.3 0 0 0 12.54-5.85 19 19 0 0 0 5.1-13.32c0-5.33-1.48-10.59-2.97-15.66a128 128 0 0 1-3.85-16.8 143 143 0 0 1-1.51-19.7c-.05-3.09-4.85-3.1-4.8 0Z" class="a"/><path d="M158.78 12.3a21 21 0 0 1 4.05 3.25c1.51 1.5 3.08 2.95 4.49 4.54a43 43 0 0 1 6.48 10.2 61 61 0 0 1 5.33 22.95c.27 5 .43 10.03.27 15.04-.1 3.09 4.7 3.08 4.8 0 .15-4.73.02-9.45-.22-14.17a83 83 0 0 0-1.27-11.9 56 56 0 0 0-11.06-24.42 72 72 0 0 0-5.04-5.25 28 28 0 0 0-5.41-4.39c-2.66-1.59-5.07 2.56-2.42 4.15m-5.13-7.85A61 61 0 0 0 128.5.05a58 58 0 0 0-25.72 7.47 45.5 45.5 0 0 0-14.8 12.72 58 58 0 0 0-8.76 18.88 101 101 0 0 0-3.11 29.83c.1 3.08 4.9 3.09 4.8 0-.48-14.98 1.35-31.16 9.66-44.03a38.5 38.5 0 0 1 12.08-11.76 54 54 0 0 1 22.58-8.08 56.5 56.5 0 0 1 27.14 4 2.4 2.4 0 0 0 2.95-1.67 2.46 2.46 0 0 0-1.67-2.96" class="a"/><path d="M87.46 134.39a14.9 14.9 0 0 1-10.73-7.04 11 11 0 0 1-1.6-4.82 44 44 0 0 1 .5-7.23c.55-4.46 1.72-8.71 2.65-13.09a110 110 0 0 0 1.83-13.1c.6-6.7.8-13.44.8-20.17 0-3.09-4.8-3.1-4.8 0-.01 10.73-.24 21.76-2.51 32.24-.42 1.95-1 3.87-1.42 5.82a95 95 0 0 0-1.4 8.7 36 36 0 0 0-.4 7.34 16 16 0 0 0 1.98 6.34 19.4 19.4 0 0 0 13.83 9.64 2.5 2.5 0 0 0 2.95-1.68 2.4 2.4 0 0 0-1.68-2.95m35.67-31.37a16.6 16.6 0 0 0 7.96 1.88 13 13 0 0 0 8.13-2.4 2.4 2.4 0 0 0 0-3.4 2.5 2.5 0 0 0-3.4 0c.75-.58.25-.2.06-.07l-.48.28c-.23.12-.77.23-.1.06-.22.06-.43.17-.66.24a12 12 0 0 1-1.85.41c.35-.05.17-.02-.08 0a14 14 0 0 1-1.87.08q-.59 0-1.18-.05l-.54-.04c-.68-.06.48.09-.16-.02a14 14 0 0 1-1.73-.4q-.37-.11-.72-.24c-.58-.2.44.22-.08-.03l-.88-.44a2.4 2.4 0 1 0-2.42 4.14m6.64-18.52a36 36 0 0 1 .85 3.93l-.09-.63a2 2 0 0 1 .01.54l.09-.64-.06.24.24-.57-.09.16.38-.49-.13.13.49-.38-.32.17.58-.25a2 2 0 0 1-.53.16l.64-.09a2 2 0 0 1-.5 0l.64.09q-.27-.06-.55-.1a2 2 0 0 0-.95-.05 2 2 0 0 0-.9.29 2.4 2.4 0 0 0-.86 3.28 2.3 2.3 0 0 0 1.44 1.1c.45.06.9.18 1.36.2a4.4 4.4 0 0 0 2.06-.5 3 3 0 0 0 1.66-2 5 5 0 0 0-.01-2.1q-.33-1.9-.82-3.77a2.4 2.4 0 0 0-4.63 1.28M109.4 73.17c-.66 2.14-.26 7.04 3.78 7.48 5.35-.01 5.65-5.95 3.87-8.74-1.47-2.3-5.8-3.26-7.65 1.26m42.77.17c.65 2.14.2 7.04-3.84 7.44-5.34-.05-5.6-5.98-3.8-8.77 1.49-2.27 5.82-3.21 7.64 1.33m-7.77-35.47c1.94 7.33 4 14.69 8.5 20.91 4.22 5.85 9.92 11.35 16.94 13.56 2.95.93 4.22-3.7 1.28-4.63-6.01-1.9-11.05-6.98-14.56-12.03-3.97-5.74-5.77-12.42-7.53-19.09-.79-2.98-5.42-1.72-4.63 1.28" class="a"/><path d="M144.49 35.59a52 52 0 0 1-16.87 14.63 47 47 0 0 1-5.12 2.4q-1.29.51-2.61.95c-.07.02-1.22.23-1.24.26.15-.17.88.77.65.66q.08.3.04-.25a16 16 0 0 1 .2-1.68q.21-1.32.45-2.64c.34-1.84.7-3.67.93-5.53.27-2.17-2.75-3.02-4.1-1.7-7.38 7.24-14.87 14.4-22.87 20.96a2.4 2.4 0 0 0 0 3.4 2.45 2.45 0 0 0 3.4 0c8-6.56 15.49-13.72 22.86-20.97l-4.1-1.7c-.37 3.01-1.3 6.37-1.55 9.56a4.1 4.1 0 0 0 2.03 4.17c1.81 1 3.9.33 5.7-.31a56 56 0 0 0 18.2-10.8 60 60 0 0 0 8.13-9 2.4 2.4 0 0 0-.86-3.29 2.46 2.46 0 0 0-3.28.87ZM89.06 88.2a51 51 0 0 0 10.7 21.69c5.14 6.11 11.8 11.01 19.85 12.25a2.5 2.5 0 0 0 2.95-1.67 2.4 2.4 0 0 0-1.68-2.96c-7.33-1.13-13.05-5.45-17.73-11.01a46 46 0 0 1-9.46-19.57c-.66-3.02-5.3-1.74-4.63 1.27m78.65-1.27a46 46 0 0 1-8.45 18.34 35 35 0 0 1-7.35 7.23 32 32 0 0 1-8.43 4.06c-2.93.96-1.67 5.6 1.27 4.63a37 37 0 0 0 9.59-4.55 39 39 0 0 0 8.31-7.97 51 51 0 0 0 9.7-20.47c.66-3.01-3.97-4.3-4.64-1.28Z" class="a"/><path d="M172.18 68.74a4.1 4.1 0 0 1 3.72-.8 4 4 0 0 1 1.42.66c-.2-.16.28.3.28.3.48.51-.2-.34.16.18 1.43 2.08 1.42 5.03 1.22 7.44a19 19 0 0 1-2.24 7.07c-1.15 2.18-3.43 5.53-6.33 5.14a2.5 2.5 0 0 0-2.95 1.67 2.4 2.4 0 0 0 1.67 2.95c7.5 1.01 11.82-6.1 13.8-12.3 1.63-5.08 1.73-13.06-3.09-16.51a9 9 0 0 0-11.06.81c-2.3 2.06 1.1 5.45 3.4 3.4Zm-79.28-3.7a9.1 9.1 0 0 0-10.06-1.47 8.9 8.9 0 0 0-4.52 6.1 23 23 0 0 0 3.24 17.51c2.24 3.41 5.81 6.5 10.17 5.95a2.5 2.5 0 0 0 2.4-2.4 2.4 2.4 0 0 0-2.4-2.4c-3.22.41-5.36-2.24-6.76-4.8a19 19 0 0 1-2.32-7.23c-.22-2.48-.18-5.36 1.2-7.53l-.06.08.22-.25c.06-.06.54-.51.36-.38a4 4 0 0 1 1.42-.64 4 4 0 0 1 3.71.85c2.29 2.07 5.7-1.31 3.4-3.4Z" class="a"/><path d="m96.8 237.76-28.15 11.98-17.19-3.18a5 5 0 0 1-.94-.23l-.18-.07c-7.18-2.8-10.5-7.62-10.05-17.74.36-8.34 2.9-20.33 4.2-25.57 3.27-13.2 5.39-20.26 8.16-29.74a102 102 0 0 1 6.83-16.2c4.22-7.51 8.72-10.93 15.56-14.38 3.16-1.6 11.13-4.8 22.39-8.68 8.22 5.62 21.86 8.78 33.38 9.04 11.66-.26 25.42-3.49 33.63-9.22a168 168 0 0 1 25.02 11.6 45 45 0 0 1 14.64 13.6q.3.41.62.9a79 79 0 0 1 6.88 15.2c3.3 9.78 5.45 18.64 8.5 30.95a93 93 0 0 1 3.29 20.59c.44 10.12-4.88 17.72-13.1 20.06l-14.97 3.07-28.78-13.92-65.3.05Z" style="fill:#f8b8b4"/><path d="M96.44 136.17c7.8 5.16 17.4 7.49 26.56 8.63a70.5 70.5 0 0 0 28.57-2.61 50 50 0 0 0 13.88-6.2c2.54-1.73.14-5.89-2.42-4.15-7.1 4.81-15.98 7.1-24.4 8.16a67 67 0 0 1-26.92-2.34 46 46 0 0 1-12.85-5.64c-2.58-1.7-4.99 2.45-2.42 4.15" class="a"/><path d="M110.42 117.77q0 1.53-.08 3.07-.05.99-.15 1.98a4 4 0 0 1-.14.75l-.15.55q-.18.44-.05.17a9 9 0 0 1-.86 1.56q-.24.36-.08.11-.15.2-.34.38a7 7 0 0 1-.58.52q.19-.13-.17.13l-.44.3q-.43.3-.89.58-.78.47-1.6.86c-2.45 1.2-5.47 2.22-8.24 3.3a2.47 2.47 0 0 0-1.68 2.96 2.4 2.4 0 0 0 2.95 1.68 97 97 0 0 0 10.09-4.15 18 18 0 0 0 3.77-2.6 11 11 0 0 0 2.55-4.01c.99-2.5.87-5.5.89-8.14a2.4 2.4 0 0 0-4.8 0m36.87 0c.01 2.64-.1 5.65.88 8.14a11 11 0 0 0 2.56 4 18 18 0 0 0 3.76 2.61 97 97 0 0 0 10.1 4.15 2.4 2.4 0 0 0 2.94-1.68 2.46 2.46 0 0 0-1.67-2.95c-2.77-1.1-5.81-2.12-8.25-3.3a22 22 0 0 1-2.49-1.44l-.44-.31-.17-.13a7 7 0 0 1-.57-.52q-.18-.18-.35-.38.17.25-.08-.1a8 8 0 0 1-.85-1.56q.12.26-.05-.18-.09-.27-.15-.55a5 5 0 0 1-.14-.75q-.1-.99-.15-1.98a56 56 0 0 1-.08-3.07 2.4 2.4 0 0 0-4.8 0M59.32 220.3q.4-.17.1-.05l.45-.18.8-.31q.87-.33 1.76-.62 1.65-.54 3.34-.95 1.65-.4 3.33-.67l.93-.15c-.47.07.19-.02.28-.03q.9-.1 1.8-.16a2.4 2.4 0 0 0 0-4.8 46 46 0 0 0-15.22 3.77 2.4 2.4 0 0 0-.86 3.29 2.47 2.47 0 0 0 3.28.86Zm14.74-50.84c.69 11.03 1.54 22.05 3.17 33a2.4 2.4 0 0 0 2.95 1.67 2.46 2.46 0 0 0 1.67-2.95c-1.56-10.51-2.33-21.12-2.99-31.72-.19-3.07-4.99-3.1-4.8 0m108.22 5.16c-.46 15.33-2.31 30.5-3.92 45.74a2.4 2.4 0 0 0 2.4 2.4 2.45 2.45 0 0 0 2.4-2.4c1.6-15.24 3.46-30.41 3.92-45.74.1-3.1-4.7-3.1-4.8 0m-12.59 98.3c2.59 12.78 5.2 25.55 7.7 38.35a2.4 2.4 0 0 0 2.94 1.68 2.45 2.45 0 0 0 1.68-2.95c-2.49-12.8-5.1-25.57-7.7-38.35a2.4 2.4 0 0 0-4.62 1.27" class="a"/><path d="M83.77 313.04h95.92c3.1 0 3.1-4.8 0-4.8H83.77c-3.08 0-3.09 4.8 0 4.8" class="a"/><path d="M86.09 311.28c3.01-15.34 6.15-30.65 9.24-45.98l2.2-10.93a2.46 2.46 0 0 0-1.68-2.95 2.4 2.4 0 0 0-2.96 1.67c-2.87 14.56-5.88 29.08-8.8 43.63L81.46 310a2.46 2.46 0 0 0 1.68 2.95 2.4 2.4 0 0 0 2.95-1.67m22.27-59.26h51.44c3.09 0 3.1-4.8 0-4.8h-51.44c-3.09 0-3.1 4.8 0 4.8m-33.83 50.12q-5.3-.6-10.57-1.48l1.44 3.53 17.38-31.42c1.5-2.71-2.65-5.13-4.15-2.43q-8.67 15.72-17.38 31.42c-.68 1.23-.15 3.27 1.44 3.53q5.9.97 11.84 1.65a2.4 2.4 0 0 0 2.4-2.4 2.46 2.46 0 0 0-2.4-2.4" class="a"/><path d="M177.85 269.98q-.81.6-1.6 1.12c-1.22.78-4.04 1.76-5.9.82a3.6 3.6 0 0 1-1.97-2.71l-.15.1c-2.35 1.56-6.24 2.49-8.52.7a5.2 5.2 0 0 1-.85-6.31 8 8 0 0 1 .79-1.25c-1.24.56-3.58 1.34-5.1-1.43-1-1.84-.36-4.8 1.8-7.1.8-.87 2.47-3.07 4.15-4.71l1.1-1.04-1.62-.15a4 4 0 0 1-3.3-1.97 4.7 4.7 0 0 1-.19-3.38c.68-2.21 4.24-4.8 7.94-7a30 30 0 0 1 11.04-4.2 38 38 0 0 1 10.86-.42c3.68.39 6.35 1.95 9.06 3.55a24 24 0 0 1 6.11 6.08 18 18 0 0 1 2.53 8.9c-.11 4.8-1.2 7.56-4.01 10.82a81 81 0 0 1-6.4 6.48c-2.62 2.32-5.24 2.74-7.2 2.02-1.58-.58-1.9-3.47-1.35-4.66l.1-.22-.05.04-1.49 1.17c-1.35 1.07-3.56 3.1-5.78 4.75" class="b"/><path d="M171.82 247.25a235 235 0 0 0-8.37 7.8c-2.42 2.33-5.29 4.67-6.83 7.73-1.64 3.27-.86 7.95 2.58 9.75 3.21 1.68 7.33.72 10.24-1.15 2.6-1.66.2-5.82-2.42-4.14a8 8 0 0 1-3.25 1.3 9 9 0 0 1-1.39.04 4 4 0 0 1-.82-.22c.28.12-.69-.48-.32-.18a3 3 0 0 1-.44-.66 3 3 0 0 1-.22-1.7 6 6 0 0 1 1.31-2.35 78 78 0 0 1 6.01-6.05q3.58-3.47 7.31-6.77a2.4 2.4 0 0 0 0-3.4 2.45 2.45 0 0 0-3.39 0" class="a"/><path d="M158.03 260.51c-.1.03-.72.12-.17.07l-.53.01q-.26-.01.1.02-.35-.12-.14-.03c.24.15-.3-.22-.07-.02a4 4 0 0 1-.4-.45l-.19-.3q.09.27 0 .03a3 3 0 0 1-.15-.59c.06.4.02-.36.02-.38a4 4 0 0 1 .24-1.15 6 6 0 0 1 .64-1.25 22 22 0 0 1 1.73-2.1 87 87 0 0 1 10.73-10.26 2.4 2.4 0 0 0 0-3.4 2.45 2.45 0 0 0-3.4 0 88 88 0 0 0-12.45 12.3c-1.82 2.3-3 5.57-1.85 8.44a5.9 5.9 0 0 0 7.17 3.7c2.98-.8 1.71-5.43-1.28-4.64m22.11-8.28c-3.1 2.76-6.26 5.46-9.24 8.35-2.64 2.55-5.92 5.86-4.69 9.88 1.42 4.6 6.6 4.89 10.34 3.19a23 23 0 0 0 4.76-3.35c1.35-1.1 2.65-2.28 4.02-3.37 2.65-2.12 5.43-4.1 7.97-6.36a2.4 2.4 0 1 0-3.4-3.4c-1.98 1.77-4.12 3.36-6.21 5-2.21 1.72-4.3 3.6-6.5 5.32a12 12 0 0 1-3.5 2.14c-1 .3-2.26.48-2.76-.27a1 1 0 0 1-.2-.56c0-.02 0-.34-.02-.21a3.4 3.4 0 0 1 .67-1.43 24 24 0 0 1 3.21-3.48c2.9-2.78 5.94-5.4 8.94-8.05a2.4 2.4 0 0 0-3.4-3.4Z" class="a"/><path d="M159.98 245.62a1.4 1.4 0 0 1-1.3-1.61 1.6 1.6 0 0 1 .34-1.1 8 8 0 0 1 1.41-1.53 35 35 0 0 1 8.7-5.52 30 30 0 0 1 9.04-2.37 26 26 0 0 1 10.4.45c4.92 1.49 9.61 5.03 11.69 9.63a15 15 0 0 1 1.14 8.8 13.5 13.5 0 0 1-3.5 6.81 79 79 0 0 1-3.39 3.56 20 20 0 0 1-3.88 3.36 5 5 0 0 1-1.84.7 4 4 0 0 1-.94.01c.28.04-.85-.18-.45-.08.25.06.03.43 0-.07a6 6 0 0 1-.2-.78 1.7 1.7 0 0 1 .19-1 2.4 2.4 0 0 0-1.68-2.95 2.46 2.46 0 0 0-2.95 1.68 6.7 6.7 0 0 0 .25 4.93 5.1 5.1 0 0 0 4.54 3.04c4.21.43 7.45-2.57 10.22-5.31 2.58-2.55 5.41-5.28 6.97-8.6a19.3 19.3 0 0 0 1.34-11.69c-1.53-7.62-7.43-13.11-14.4-16-4-1.65-8.6-1.8-12.86-1.35a37 37 0 0 0-12.28 3.17 44 44 0 0 0-6.4 3.77 19 19 0 0 0-5.1 4.68 7 7 0 0 0-.7 6.44 6.3 6.3 0 0 0 5.64 3.74c3.08-.1 3.1-4.9 0-4.8Zm-59.1-16.8c-4.98-8.89-10.5-18.93-12.59-22.23a3 3 0 0 0-3.16-1.7 6 6 0 0 0-3.09 1.63 2.9 2.9 0 0 0-.2 3.52 2230 2230 0 0 1 15.5 25.06c2.88 4.8 10.86 17.92 14.64 23.95a2.49 2.49 0 0 0 4.3-2.5c-3.04-5.68-9.06-16.38-15.4-27.72" class="a"/><path d="M101.69 227.52a16 16 0 0 0-4.86-2.26 16 16 0 0 0-3.96-.58 40 40 0 0 0-5.1.43 58 58 0 0 1-9.63.46c-1.7-.1-4.4-.06-5.81.91a21 21 0 0 0-5.69 5.42 44 44 0 0 0-5.73 11.97c-.56 1.62-.4 4.95 1.02 5.93 2.89 2 9.66 9.23 13.58 11.02a13 13 0 0 0 4.8 1.17c2.1 0 4.7-1.1 4.66-4.54a6.8 6.8 0 0 0 4.83 1.52 6 6 0 0 0 2.89-.8 5.5 5.5 0 0 0 2.08-4.73l-.03-.35 1.02.82a6.2 6.2 0 0 0 7.3-.25c.97-.98 2.17-4.04 1.35-6.2l-.12-.28.65.56a7.4 7.4 0 0 0 3.35 1.45 4.5 4.5 0 0 0 3.5-.62 4.7 4.7 0 0 0 1.47-4.87 14 14 0 0 0-2.51-4.73c-2.15-3.02-6.43-9.03-9.07-11.45" class="b"/><path d="M76.56 253.08a71 71 0 0 0 5.32 4.94c1.64 1.37 3.31 2.75 5.48 3.14a9 9 0 0 0 6.84-1.13 7.8 7.8 0 0 0 2.98-6.59 2.46 2.46 0 0 0-2.4-2.4 2.4 2.4 0 0 0-2.4 2.4v.62c0 .23.07-.14-.02.25q-.07.3-.17.61c-.04.1-.23.52-.09.24q-.16.32-.35.63c-.1.15-.2.24-.03.05-.08.1-.54.46-.1.16l-.35.2c-.47.28.2 0-.36.15l-.5.14c-.59.18.22.05-.36.07h-.51l-.75-.02c-.2-.01-.3-.03-.04.01a7 7 0 0 1-1.1-.27c-.33-.1.46.27-.08-.03l-.46-.25c-.27-.16-.7-.46-.82-.55-.51-.38-1.34-1.1-1.95-1.62a71 71 0 0 1-4.37-4.14 2.4 2.4 0 1 0-3.4 3.4Z" class="a"/><path d="M83.63 246.64q3.38 3.14 6.92 6.11c2.07 1.73 4.25 4.02 7 4.48 2.5.42 5.53-.08 7.33-2a9 9 0 0 0 1.85-8.4 2.46 2.46 0 0 0-2.95-1.68 2.4 2.4 0 0 0-1.68 2.95 3.5 3.5 0 0 1-.08 2.53c-.02.06-.27.72-.13.4a6 6 0 0 1-.33.64c-.03.06-.37.53-.15.26.28-.34-.4.37-.05.06.26-.22-.23.13-.3.18l-.2.1a6 6 0 0 1-1.27.33c.42-.06-.28 0-.36 0a5 5 0 0 1-.77-.04c.36.05-.4-.12-.39-.12-.59-.16.14.13-.4-.16a16 16 0 0 1-2.32-1.75q-1.26-1.03-2.5-2.08a201 201 0 0 1-5.82-5.2c-2.27-2.1-5.68 1.3-3.4 3.4Z" class="a"/><path d="M82.62 257.6a2.1 2.1 0 0 1-.77 1.63 4 4 0 0 1-1.28.35 9.4 9.4 0 0 1-5.1-1.53 59 59 0 0 1-8.03-6.7 58 58 0 0 0-3.6-3.1l-.48-.37c-.24-.2.2.3 0-.02a1 1 0 0 1-.15-.36 7 7 0 0 1-.17-2.28 24 24 0 0 1 1.91-5.36 39 39 0 0 1 3.05-5.65 19 19 0 0 1 4.47-4.88 5.5 5.5 0 0 1 2.26-1.22 12 12 0 0 1 2.82-.17 93 93 0 0 0 12.3-.68c3.78-.38 8.3-.05 11.08 2.89a83 83 0 0 1 6.97 8.92c1.17 1.65 2.93 3.55 3.12 5.64.2 2.2-1.54 2.44-3.28 1.86a9 9 0 0 1-2.88-2.07q-1.62-1.43-3.24-2.9-3.37-3.09-6.83-6.09a2.46 2.46 0 0 0-3.4 0 2.4 2.4 0 0 0 0 3.4c2.38 2.03 4.69 4.14 7 6.24 2.22 2 4.5 4.63 7.3 5.75 2.63 1.06 5.88 1.22 8.08-.84a7.4 7.4 0 0 0 1.72-7.4c-.71-2.44-2.34-4.48-3.8-6.5a174 174 0 0 0-4.37-5.85 24 24 0 0 0-4.42-4.86 17.5 17.5 0 0 0-6.75-2.8 18 18 0 0 0-4.68-.32q-1.06.06-2.08.18l-1.16.14-.91.12a60 60 0 0 1-7.23.45c-2.43 0-4.92-.32-7.3.43-2.54.8-4.92 3.04-6.64 5-3.53 4-5.7 9.15-7.41 14.15a9.7 9.7 0 0 0 .22 6.96 5.7 5.7 0 0 0 1.98 2.26l.09.07.36.3 1.2 1.02c3.53 3.12 6.93 6.89 11.1 9.16a13 13 0 0 0 8.3 1.63 6.5 6.5 0 0 0 5.25-5.33 2.5 2.5 0 0 0-1.67-2.95 2.4 2.4 0 0 0-2.95 1.68m128.3-8.62c9.27-2.72 14.68-11.24 14.88-20.67.23-11.01-3.11-21.96-5.78-32.53-2.62-10.36-5.34-20.84-9.8-30.6a48.7 48.7 0 0 0-19.54-21.88c-8.78-5.24-18.32-9-27.82-12.71a2.4 2.4 0 0 0-2.95 1.67 2.46 2.46 0 0 0 1.68 2.96 207 207 0 0 1 23.83 10.62c7.8 4.24 14.55 10 18.77 17.92 4.64 8.7 7.3 18.36 9.8 27.84q2.08 8 4.04 16.04a99 99 0 0 1 2.62 14.04c.48 5.02.79 10.24-1.6 14.87a15.3 15.3 0 0 1-9.4 7.8c-2.96.87-1.7 5.5 1.28 4.63ZM52.1 244.25a13 13 0 0 1-4.99-2.42 10 10 0 0 1-3.15-3.97c-1.74-3.69-1.43-8.71-1.02-12.9.99-10.18 3.48-20.19 6.07-30.06q1.89-7.16 3.97-14.27c1.29-4.42 2.54-8.82 4.26-13.1a62 62 0 0 1 6.64-13 30 30 0 0 1 10.42-8.8c8.26-4.5 17.58-7.16 26.6-10.5a2.47 2.47 0 0 0 1.67-2.95 2.4 2.4 0 0 0-2.95-1.67c-8.52 3.15-17.34 5.79-25.52 9.81a38 38 0 0 0-11.89 8.55c-3.54 4-5.95 8.73-8.05 13.59-4.01 9.25-6.56 19.06-9.16 28.78-2.8 10.45-5.38 20.98-6.65 31.75-.66 5.63-1.05 11.66 1.36 16.95a14.4 14.4 0 0 0 4.01 5.18 17 17 0 0 0 7.1 3.65 2.47 2.47 0 0 0 2.96-1.67 2.4 2.4 0 0 0-1.68-2.95" class="a"/><path d="m108.53 238.28 55.65-.06c3.09 0 3.1-4.8 0-4.8l-55.65.06c-3.09 0-3.1 4.8 0 4.8" class="a"/></svg>
