<svg xmlns="http://www.w3.org/2000/svg" viewBox="-129.71 0 410.357 410.357"><defs><style>.a{fill:#fff}.b{fill:#7a7473}.c{fill:#211715}</style></defs><path d="M112.8 47.94a4.3 4.3 0 0 1 3.13-1.15 4 4 0 0 1 3.62 2.01c1.23 2.14 1.18 6.07.35 8.5a13 13 0 0 1-3.85 6.24 4.8 4.8 0 0 1-3.69 1.07l-.35-.06a28 28 0 0 1-1.27 3.44c-.95 2.57-6.22 11.65-12.87 15.06q.15 1.84.47 3.66c.34 1.96.24 3.71 2.97 4.7l3.57 1.68-3.23 2.6c-3.76 3.08-10.6 4.43-16.76 4.43-5.23 0-11.61-1.18-16.55-4.43l-3.23-2.26c2.2-1.01 4.3-2 4.38-2.02 2.73-1 2.61-2.74 2.97-4.7.2-1.17.35-2.24.45-3.37a25 25 0 0 1-8.66-6.98 33 33 0 0 1-6.27-11.82 4.7 4.7 0 0 1-3.99-1 13 13 0 0 1-3.85-6.25c-.83-2.43-.88-6.36.35-8.5a4 4 0 0 1 3.62-2 4.3 4.3 0 0 1 3.14 1.15S52.93 21.7 85.02 21.7s27.77 26.24 27.77 26.24m24.44 189.13-.05-.1-.07.21c-.81 2.64-2.94 4.67-4.5 4.88a3 3 0 0 1-2.27-.44 3.6 3.6 0 0 1-1.33-2.26 195 195 0 0 1-1.28-20.81c4.1-1.33 8.39-2.78 12.58-4.28 3.6 8.15 8.28 19.06 8.55 27.57.06 1.95-.28 3.54-2.03 4.4a3.7 3.7 0 0 1-3.7-.51 10 10 0 0 1-2.52-2.97c-1.45-2.28-2.47-4-3.38-5.7" class="a"/><path d="M73.27 398.05c2.83-1.97 5.33-3.7 6.13-4.2 5.14-3.21 4.57-7.58 4.46-10.58a97 97 0 0 0-.4-5.83c-.72.85-1.43 1.73-1.43 1.73a96 96 0 0 1-13.51 11.03 10.9 10.9 0 0 1-9.64 1.28c-2.97-1.08-5.61-3.27-5.23-6.9l.26-2.53-.49.5c-3.33 3.42-7 6.79-10.34 10.1-2.17 2.16-3.87 5.02-3.79 8.17.05 2.15 1.56 4 3.32 5.23a13.4 13.4 0 0 0 6.02 2.12 22.8 22.8 0 0 0 14.18-2.9c.79-.45 6.03-4.13 10.46-7.22" class="b"/><path d="M87.02 309.26h-2.2c-6.77.14-16.94.27-24.24.26 1.21 19.8 2.43 39.06 2.83 56.5a14.3 14.3 0 0 1-2.72 7.84 58 58 0 0 1-6.78 8.19l-.26 2.53c-.38 3.63 2.26 5.81 5.23 6.9a10.9 10.9 0 0 0 9.64-1.28 96 96 0 0 0 13.51-11.03s.53-.65 1.13-1.38h3.54l1.3 1.38a96 96 0 0 0 13.51 11.03 10.9 10.9 0 0 0 9.64 1.28c2.97-1.08 5.61-3.26 5.23-6.9l-.26-2.53a58 58 0 0 1-6.77-8.2 14.3 14.3 0 0 1-2.73-7.83c.4-17.59 1.64-37.03 2.87-57-7.36.2-14.12.24-22.47.24" class="a"/><path d="M96.76 398.05c-2.83-1.97-5.33-3.7-6.13-4.2-5.14-3.21-4.57-7.58-4.46-10.58.05-1.15.22-3.43.53-5.48l1.3 1.38a96 96 0 0 0 13.5 11.03 10.9 10.9 0 0 0 9.65 1.28c2.97-1.08 5.6-3.26 5.23-6.9l-.26-2.53.48.5c3.34 3.42 7 6.79 10.34 10.1 2.17 2.16 3.87 5.02 3.8 8.17-.06 2.15-1.57 4-3.32 5.23a13.4 13.4 0 0 1-6.03 2.12 22.8 22.8 0 0 1-14.18-2.9c-.78-.45-6.02-4.13-10.45-7.22" class="b"/><path d="M97.77 396.33q-2.77-1.96-5.6-3.86a8.4 8.4 0 0 1-3.55-3.7 10 10 0 0 1-.5-4.34 57 57 0 0 1 .5-6.1l-3.34.88a78 78 0 0 0 7.02 6.54q2.57 2.13 5.26 4.1a25 25 0 0 0 5.4 3.32 12.6 12.6 0 0 0 11.8-1.3 8.5 8.5 0 0 0 3.34-4.38c.56-1.78.22-3.63.03-5.44l-3.41 1.42c3.04 3.12 6.23 6.1 9.35 9.15 2.28 2.22 6.19 6.12 4.23 9.67-1.93 3.5-6.77 4.17-10.36 4.05a20 20 0 0 1-10.29-3.17c-3.34-2.2-6.59-4.56-9.87-6.85-2.11-1.47-4.12 2-2.02 3.46 3.3 2.3 6.58 4.68 9.95 6.89a24 24 0 0 0 12.45 3.68c4.74.1 9.97-1.15 12.96-5.1 3.05-4.06 1.27-9.25-1.67-12.82a72 72 0 0 0-5.91-5.88q-3.04-2.9-6-5.91c-1.12-1.16-3.6-.36-3.41 1.41.14 1.35.57 3.05.11 4.38a4.8 4.8 0 0 1-2.32 2.5 9 9 0 0 1-9.56-.58 81 81 0 0 1-14.24-11.98c-.95-1-3.12-.63-3.34.88a67 67 0 0 0-.65 7.17 14 14 0 0 0 .75 5.68 11.7 11.7 0 0 0 4.81 5.51c2.06 1.33 4.06 2.76 6.07 4.16 2.1 1.48 4.1-1.98 2-3.44" class="c"/><path d="M108.02 300.11c-.78 13.01-1.62 26.01-2.32 39.03q-.48 9-.82 18.02c-.2 5.31-.9 10.63 1.44 15.59a35 35 0 0 0 5.37 7.43 125 125 0 0 0 7.65 7.9c1.86 1.79 4.69-1.03 2.83-2.83-4.2-4.07-8.56-8.25-11.7-13.24-2.64-4.2-1.78-9.25-1.62-13.95.43-12.08 1.12-24.16 1.85-36.22l1.33-21.73c.15-2.57-3.85-2.56-4 0Zm-25 9.89v59.07c0 2.57 4 2.57 4 0V310c0-2.57-4-2.58-4 0m-8.74 89.78c2-1.39 3.97-2.8 6-4.12a12 12 0 0 0 4.88-5.56 14 14 0 0 0 .75-5.56q-.12-3.57-.45-7.1c-.15-1.54-2.2-2.9-3.42-1.42a49 49 0 0 1-5.95 5.9 80 80 0 0 1-8.58 6.54 9 9 0 0 1-9.4.47 4.8 4.8 0 0 1-2.32-2.5c-.46-1.33-.02-3.03.12-4.38.18-1.77-2.29-2.57-3.42-1.41-3.53 3.62-7.28 7-10.82 10.6-3.13 3.18-5.71 8.15-3.64 12.57 2.1 4.46 7.33 6.19 11.9 6.5a24.4 24.4 0 0 0 13.97-3.36c3.58-2.16 6.95-4.78 10.38-7.17 2.1-1.46.1-4.93-2.02-3.45-3.05 2.12-6.08 4.27-9.16 6.36a21 21 0 0 1-9.27 3.53c-3.78.44-8.47.08-11.25-2.82-2.86-2.98-.29-7.12 2.08-9.5 3.52-3.51 7.2-6.87 10.67-10.43l-3.41-1.42c-.2 1.81-.54 3.66.02 5.44a8.5 8.5 0 0 0 3.35 4.38 12.6 12.6 0 0 0 11.6 1.37 24 24 0 0 0 5.6-3.38Q75 388 77.42 386a54 54 0 0 0 7.44-7.16l-3.41-1.41c.22 2.17.33 4.34.43 6.51a12 12 0 0 1-.38 4.55 7.8 7.8 0 0 1-3.48 3.86c-1.95 1.28-3.85 2.64-5.77 3.97-2.1 1.47-.1 4.94 2.02 3.46" class="c"/><path d="M58 300.11c.76 12.54 1.57 25.07 2.25 37.6q.5 9.05.85 18.1.16 4.23.27 8.46a14 14 0 0 1-.96 6.12c-1.13 2.7-3.3 5.14-5.2 7.3a122 122 0 0 1-7.35 7.56c-1.85 1.79.98 4.62 2.83 2.83a90 90 0 0 0 12.14-13.76c3.08-4.52 2.57-9.75 2.4-14.92-.41-12.37-1.12-24.73-1.87-37.08l-1.35-22.2c-.15-2.57-4.16-2.58-4 0" class="c"/><path d="M68.6 5.8a31 31 0 0 1 16.24-3.7 30.5 30.5 0 0 1 13.38 2.37 33.5 33.5 0 0 1 17.2 16.08 29 29 0 0 1 1.9 5.05q.22.84.4 1.7c.97 4.72 2.18 14.22-.29 19.76a5 5 0 0 0-1.5-.26 4.3 4.3 0 0 0-3.14 1.15l-5.03-1.59a62 62 0 0 1-10.05-3.93l-1.48-.8-6.88-.26c-4.15-.82-7.4-1.85-11.01-5.17-2.59-2.37-5.68-5.64-7.23-8.8a26 26 0 0 0-4.21 3.26 26 26 0 0 0-3.76 5.39 23.4 23.4 0 0 0-2.8 10.9l-3.1.98a4.3 4.3 0 0 0-3.13-1.14l-.52.04c-.05.93-1.6-5.8-1.6-5.8a41 41 0 0 1-.03-13.74c1.86-9.11 8.3-17.05 16.64-21.48" style="fill:#85807f"/><path d="M137.92 213.77a142 142 0 0 1 7.37 19.08 35 35 0 0 1 1.58 9.35c0 1.01-.2 2.45-1.54 2.33-1.46-.13-2.42-1.9-3.11-2.98a83 83 0 0 1-5.36-9.78 2 2 0 0 0-2.73-.72 2.05 2.05 0 0 0-.72 2.74 82 82 0 0 0 5.59 10.14 9.7 9.7 0 0 0 4.47 4.2 5.4 5.4 0 0 0 5.84-1.25c2.54-2.7 1.5-7.43.89-10.67a71 71 0 0 0-3.53-11.88 239 239 0 0 0-5.3-12.58 2 2 0 0 0-2.73-.71 2.05 2.05 0 0 0-.72 2.73" class="c"/><path d="M34.77 105.54a18.5 18.5 0 0 1 8.59-6.66c4.48-1.63 16.58-4.81 21.45-6.2 5.03 5.56 13.48 7.44 20.08 7.44 7.88 0 16.89-2.2 19.12-7.45 8.88 3.25 21 8.3 25.2 12.66 5.44 5.68 7.15 10.85 8.53 16.73 1.66 7.08 1.67 28.72 3.1 45.49.73 9.33 3.4 30.42 5.3 41.56a3.5 3.5 0 0 1-2.23 3.84 438 438 0 0 1-20.6 7.01l-1.47.47c.23-9.7.16-18.41-.37-31.04H50.99c-2.35-1.21-2.54-4.07-2.2-7.1.38-3.45.58-6.32.68-8.98-1.16 4.16-6.36 6.58-10.77 5.8a18.7 18.7 0 0 1-12.03-7.81c-4.81-7.2-12.08-26.33-15.7-37.54Z" class="a"/><path d="m66.12 95.16 3.98-1.84.35-.16c-.68.32-.44.18-.12.06q.38-.15.76-.33a5 5 0 0 0 1.72-1.29 6.5 6.5 0 0 0 1.41-3.35c.26-1.6.54-3.2.68-4.83a2 2 0 0 0-2-2 2.05 2.05 0 0 0-2 2q-.06.64-.14 1.27l-.11.74-.27 1.7a9 9 0 0 1-.28 1.32c-.02.07-.19.51-.04.15.13-.34-.02.02-.06.1l-.2.3c.05-.18.28-.33.03-.06l-.26.24q.37-.28.1-.1l-.1.08a4 4 0 0 1-.54.29 6 6 0 0 0-1.12.49L64.1 91.7a2 2 0 0 0-.72 2.74 2.06 2.06 0 0 0 2.74.72m29.77-11.9q.2 2.07.55 4.12a16 16 0 0 0 .4 2.12 5.4 5.4 0 0 0 1.46 2.43 6 6 0 0 0 1.3.91 11 11 0 0 0 1 .43c.63.24-.47-.23-.23-.1 1.9.97 3.88 1.83 5.82 2.75.92.43 1.84.89 2.78 1.28a2 2 0 0 0 2.46-1.4 2.06 2.06 0 0 0-1.4-2.46c1 .42.09.02-.15-.09l-1.24-.58-3.36-1.6-2.6-1.22-.28-.13-.07-.03-.49-.2c-.06-.03-.36-.17-.06-.02l-.52-.28c-.06-.04-.34-.23-.11-.07.2.15.01.02-.03-.02l-.2-.2c-.29-.25.1.08.07.1l-.29-.48c-.11-.16.09.18.08.2l-.12-.35-.12-.49-.2-1.16-.26-1.7-.08-.6q-.08-.58-.12-1.16a2.04 2.04 0 0 0-2-2 2 2 0 0 0-2 2Z" class="c"/><path d="M52.47 302.47c-1.76-19.75-3.66-47.62-4.05-66.5-.38-18.3-.9-26.06 1.14-46.58h71.91c.74 17.63.58 27.63-.03 43.33-.76 19.47-2.3 52.35-5.1 76.08-10.97.4-19.53.46-31.53.46-9.74.2-26.55.37-31.69.18z" style="fill:#febe69"/><path d="M47.13 193.9c-1.37 15.52-1.06 31.03-.6 46.6.47 15.26 1.45 30.52 2.6 45.75q.88 11.61 2 23.19a2.06 2.06 0 0 0 2 2c6.82.24 13.7.08 20.52 0 8.83-.1 17.66-.14 26.49-.25q8.1-.1 16.2-.4a2.07 2.07 0 0 0 2-2c1.74-14.8 2.76-29.69 3.6-44.56.81-14.14 1.5-28.3 1.87-42.46a449 449 0 0 0-.13-26.84c-.08-2.57-4.08-2.58-4 0 .51 15.16.1 30.27-.55 45.42-.63 14.66-1.4 29.31-2.5 43.94a591 591 0 0 1-2.29 24.5l2-2c-9.7.36-19.4.46-29.11.47-8.06 0-16.13.23-24.19.26-3.3 0-6.62.03-9.92-.09l2 2a1209 1209 0 0 1-3.4-43.8q-1.36-22.72-1.63-45.48a261 261 0 0 1 1.04-26.26 2 2 0 0 0-2-2 2.04 2.04 0 0 0-2 2Zm20.2-96.48c5.38 3.47 12.02 4.81 18.36 4.7 5.99-.11 12.58-1.2 17.38-5.01a2 2 0 0 0 0-2.83 2.05 2.05 0 0 0-2.83 0c-3.98 3.17-10.05 3.8-14.95 3.84a29 29 0 0 1-15.94-4.15c-2.17-1.4-4.18 2.06-2.02 3.45M52.8 191.39h67.79c2.57 0 2.58-4 0-4H52.8c-2.57 0-2.58 4 0 4" class="c"/><path d="M102.33 94.19a166 166 0 0 1 15.27 6.24c4.2 2 8.37 4.15 11.45 7.7 6.28 7.25 7.38 16.38 7.93 25.43.69 11.33.93 22.68 1.86 34 .79 9.52 2.02 19.02 3.32 28.5q.58 4.18 1.2 8.36l.57 3.6c.15.93.56 2.07-.27 2.8a7 7 0 0 1-2.04.85q-1.32.49-2.65.96-2.67.95-5.36 1.86-5.4 1.84-10.84 3.55c-2.45.78-1.4 4.64 1.06 3.86a358 358 0 0 0 20.17-6.85c3.01-1.16 4.52-3.5 4.01-6.73q-.56-3.45-1.08-6.9a598 598 0 0 1-3.81-30.68c-1.09-11.38-1.37-22.8-1.98-34.22-.5-9.42-1.04-19.26-6.38-27.42a28 28 0 0 0-6.33-7.04 46 46 0 0 0-7.13-4.26 163 163 0 0 0-17.91-7.47c-2.43-.87-3.47 2.99-1.06 3.86" class="c"/><path d="M120.67 138.86c-.8 8.48-1.09 16.98-1.66 25.48a95 95 0 0 0-.27 13.6c.13 1.7.38 3.4.66 5.1q.22 1.3.41 2.6a9 9 0 0 0 .12 1.5q-.05.32-.05.2.3-.33.76.1c-1.91-1.72-4.75 1.1-2.83 2.82a3.5 3.5 0 0 0 4.66.1c1.55-1.3 1.56-3.26 1.3-5.1a90 90 0 0 1-1.15-9.52c-.14-4.2.2-8.4.48-12.59.22-3.53.37-7.07.56-10.6q.38-6.85 1.02-13.69a2 2 0 0 0-2-2 2.04 2.04 0 0 0-2 2Zm5.06 79.54a185 185 0 0 0 1.08 19.33c.2 1.66.33 3.23 1.43 4.59a4.8 4.8 0 0 0 4.38 1.73c3.24-.33 5.48-3.49 6.43-6.34.82-2.45-3.04-3.5-3.86-1.07-.36 1.08-2.08 4.29-3.64 3.38-.7-.4-.66-1.61-.74-2.3q-.22-1.94-.38-3.92-.63-7.69-.7-15.4c-.02-2.57-4.02-2.58-4 0M45.3 131.31c.92 8.34 1.69 16.68 1.9 25.07.2 8.27.57 16.45-.28 24.7-.43 4.26-.4 9.04 4.44 10.59 2.46.78 3.51-3.08 1.07-3.86-1.28-.4-1.66-1.46-1.74-2.72a38 38 0 0 1 .4-5.84 112 112 0 0 0 .43-11.39c-.1-7.57-.3-15.17-.89-22.72q-.55-6.92-1.33-13.83a2.06 2.06 0 0 0-2-2 2 2 0 0 0-2 2M62.36 91.3c-5.25 1.45-10.53 2.85-15.74 4.43a34 34 0 0 0-6.8 2.58 22 22 0 0 0-6.46 5.82 2.06 2.06 0 0 0 0 2.83 2 2 0 0 0 2.83 0 19 19 0 0 1 5.81-5.28 33 33 0 0 1 6.3-2.28c5.02-1.5 10.08-2.85 15.13-4.24 2.48-.7 1.42-4.55-1.07-3.86" class="c"/><path d="M9.04 134.29a274 274 0 0 0 10.78 28.2c1.72 3.82 3.5 7.83 6.1 11.15 3.29 4.18 8.66 7.39 14.04 7.61 5.53.23 11.05-3.37 11.72-9.07a2 2 0 0 0-2-2 2.05 2.05 0 0 0-2 2c-.44 3.72-5.17 5.45-8.4 5.01a16.4 16.4 0 0 1-11.18-7.36 75 75 0 0 1-5.1-9.99 298 298 0 0 1-10.1-26.62c-.8-2.44-4.65-1.4-3.86 1.07" class="c"/><path d="M34.68 110.82c.15 3.08-1.42 7.07-2.23 8.77a13 13 0 0 1-1.11 1.95c-.93 1.3-.5 2.72-.39 4.41.06.93.31 1.73.38 2.39-2.95 1.73-11.63 4.22-15.65 5.43a64 64 0 0 0-4.78-6.82c-3.03-2.02-7.13-7.61-8.56-13.49l-.31-2.21c-.12-.8.09-3.1 1.6-3.83a3.1 3.1 0 0 1 3.52.63l.04-2.03a3.6 3.6 0 0 1 2.37-3c1.3-.47 1.97.27 2.82 1.05a3.5 3.5 0 0 1 .93-3.3c1.42-1.14 4.53-1.77 5.17 1.82-2.02-5.93-4.4-13.2-4.73-14.85a4 4 0 0 1 2.6-4.38c1.8-.58 4.25 1.76 4.7 2.91 2.12 5.53 3.51 9.55 5.65 16.33 1.11.05 2.18.14 3.38.24a4.4 4.4 0 0 1 2.54 1.36 9.6 9.6 0 0 1 2.07 6.61" class="a"/><path d="M28.46 101.54c-1.48-4.67-3.03-9.3-4.76-13.89-.75-2-1.41-3.62-3.15-4.96-1.76-1.35-3.96-1.93-5.96-.7a6.1 6.1 0 0 0-2.89 5.45 15 15 0 0 0 .73 3.06c.94 3.12 1.97 6.2 3 9.3 1.12 3.34 2.24 6.7 3.46 10 .87 2.4 4.74 1.37 3.85-1.05a416 416 0 0 1-6.53-19.59 8 8 0 0 1-.53-2.03 2.1 2.1 0 0 1 .73-1.55c.49-.41.71-.34 1.26-.03 1.43.82 1.77 2.09 2.32 3.54q2.48 6.7 4.61 13.52c.78 2.44 4.64 1.4 3.86-1.07" class="c"/><path d="M.28 113.45a27.4 27.4 0 0 0 7.9 13.88 16 16 0 0 0 1.29 1.04c.4.3-.1-.18.24.23l.35.45.76 1.04a53 53 0 0 1 3.13 4.69 2 2 0 0 0 2.26.91c2.8-.84 5.61-1.66 8.4-2.57a42 42 0 0 0 7.73-3.06 2.1 2.1 0 0 0 .92-2.26c-.2-1.39-.77-3.15-.5-4.56a6 6 0 0 1 .87-1.6 19 19 0 0 0 .9-1.84 22 22 0 0 0 2.15-8.98c-.07-2.57-4.07-2.58-4 0a18 18 0 0 1-2.23 8.3c-.8 1.52-1.7 2.68-1.7 4.48a37 37 0 0 0 .65 5.27l.92-2.26a38 38 0 0 1-7.12 2.76c-2.67.87-5.36 1.66-8.06 2.47l2.26.92a52 52 0 0 0-2.96-4.45 15 15 0 0 0-2.96-3.39c-3.76-2.95-6.3-7.96-7.35-12.53-.57-2.51-4.42-1.45-3.85 1.06" class="c"/><path d="M8.56 106.63a5.1 5.1 0 0 0-6.75-.37A6 6 0 0 0 0 110.9a13.5 13.5 0 0 0 1.42 5.24 8 8 0 0 0 1.74 2.63 5 5 0 0 0 3.1 1.23c2.46.11 4.4-1.97 5.03-4.19a2 2 0 0 0-3.86-1.06l-.14.45c-.04.2.07-.18.09-.19-.03.02-.06.13-.08.16l-.22.36c-.01-.02.28-.3.12-.15l-.18.2-.39.36c-.06.05-.25.13-.04.03.25-.11 0 0-.01 0-.33.09.46-.1 0 0l-.18.05c-.3.09.13-.06.17-.02a2 2 0 0 0-.43 0c-.2 0 .21 0 .22.02l-.18-.04-.18-.06c-.36-.1.13.03.12.06l-.17-.1-.1-.06q-.14-.09.04.04c.06-.02.15.16 0 0l-.18-.19c.01-.02.21.35.1.15l-.14-.23a14 14 0 0 1-.64-1.15l-.26-.55c-.1-.2.03.07.04.1l-.1-.23q-.18-.5-.33-1.01a16 16 0 0 1-.39-1.78c-.07-.4.02.47.02.12l-.01-.23v-.31c0-.1.06-.51 0-.14-.05.38.02-.09.04-.17l.09-.34c.03-.13.1-.26.12-.4.05-.18-.07.2-.08.2.04-.01.08-.16.1-.2l.13-.2c.14-.26-.04.11-.1.12l.11-.13.09-.09q.17-.15-.18.13c.01 0 .5-.25.22-.15-.3.13.59-.14.23-.06-.26.05-.04 0 .03 0h.3c.32 0-.08.05-.1-.01l.3.07c.04.01.28.1.04 0s.05.04.1.06l.26.17c.23.13-.34-.3.02.03a2 2 0 1 0 2.83-2.83Z" class="c"/><path d="M13.8 102.65a5.6 5.6 0 0 0-3.02-1.73 5 5 0 0 0-3.73 1.31c-1.7 1.47-2 3.5-1.77 5.63a20 20 0 0 0 1.89 6.66 7 7 0 0 0 1.38 2.06 5.3 5.3 0 0 0 3.42 1.36 5 5 0 0 0 3.58-1.46 4.4 4.4 0 0 0 1.7-3.27 2 2 0 0 0-4 0q0 .3.05-.19-.1.3.04-.1l-.15.26q.23-.28 0-.01a7 7 0 0 1-.57.56c-.06.04-.48.36-.24.16l-.18.05q.32-.02-.04 0l-.38-.01q.34.04-.02-.03c-.12-.05-.48-.23-.18-.06l-.3-.17q.29.24.04.02c-.27-.33.22.4-.07-.08q-.26-.4-.49-.83l-.28-.58c-.04-.08-.23-.55-.08-.18q-.27-.67-.5-1.38-.23-.77-.4-1.55-.08-.32-.13-.65l-.08-.44q.03.22-.01-.15a15 15 0 0 1-.1-1.6l.01-.33q-.08.54-.02.2l.13-.41-.07.16q.06-.13.14-.25l.16-.26q-.23.3-.01.04.17-.18.36-.34c-.34.27.25-.13.34-.17q-.3.12.08-.01l.04-.01-.2-.03q.33.1-.02-.04l.29.17q-.27-.21 0 0l.55.5a2 2 0 1 0 2.83-2.82Z" class="c"/><path d="M18.4 98.7c-1.94-1.48-4.78-.79-6.5.66-1.77 1.48-1.85 4.1-1.2 6.13q.94 2.87 2.1 5.65a5 5 0 0 0 1.8 2.7 5.7 5.7 0 0 0 3.19.88 5 5 0 0 0 3.6-1.62 8 8 0 0 0 1.31-2.71 2 2 0 0 0-1.4-2.46 2.05 2.05 0 0 0-2.46 1.4q-.16.43-.28.88c-.12.45.22-.39-.05.1l-.14.21q.27-.33.05-.08-.24.2.05-.02l-.28.17q-.3.15-.05.04l-.35.1c.41-.1-.23 0-.36-.01.44 0-.2-.05-.33-.09l-.25-.1-.23-.13q.35.29.14.09c.32.36.18.27.09.04-.03-.07-.3-.72-.13-.3q-.58-1.4-1.12-2.82-.53-1.4-1-2.82-.17-.52-.3-1.06c.12.5 0-.14 0-.28s.13-.75 0-.29c.03-.1.26-.73.05-.3l.15-.28-.02.03q.25-.23-.05 0l.25-.17c.09-.06.68-.33.23-.15l.63-.2q.35-.06-.03 0h.33q.35.01-.05-.02l.32.08c-.42-.13.14.12.26.2a2 2 0 0 0 2.74-.71 2.06 2.06 0 0 0-.72-2.74Z" class="c"/><path d="M36.68 110.82a11.6 11.6 0 0 0-2.01-7.16 6.3 6.3 0 0 0-3.1-2.48 13 13 0 0 0-3.8-.52c-2.56-.17-5.3-.33-7.32 1.54a5 5 0 0 0-.7 6.41 6.6 6.6 0 0 0 3.57 2.73 31 31 0 0 0 4.1.95 2.05 2.05 0 0 0 2.46-1.4 2 2 0 0 0-1.4-2.46q-1.42-.26-2.83-.6-.64-.15-1.26-.35l-.3-.1c-.3-.11.24.13-.04-.03l-.26-.14a.89.89 0 1 0-.08-.07 2 2 0 0 1-.61-.72c-.07-.12-.21-.52-.11-.2l-.1-.32c-.07-.24 0-.1 0 .06v-.46c.01.32 0 .19.05-.05.06-.33-.17.2.03-.07l.12-.19c.07-.17-.29.25.02 0 .12-.11.35-.3.07-.1l.42-.27c.3-.18-.18.03.17-.07l.63-.17c.32-.07-.28.02.05 0l.31-.03h.74a41 41 0 0 1 3.28.18l.77.06.4.03c.36.02-.22-.11-.03 0 .06.04.5.17.35.1-.2-.07.1.05.1.06l.35.18c.1.06.42.34.18.1l.17.18c.17.2-.18-.27.03.04a16 16 0 0 1 .85 1.41l.14.29.11.23c-.07-.16.06.15.05.15l.14.39q.1.34.18.69c.03.1.12.67.09.4a10 10 0 0 1 .03 1.76 2 2 0 0 0 4 0Zm82.73-63.34c1.68-4.03 1.66-8.76 1.32-13.05a43 43 0 0 0-2.74-12.98A35.5 35.5 0 0 0 97.06 1.89 40 40 0 0 0 81.42.1a34 34 0 0 0-12.8 3.45 35 35 0 0 0-17.39 19.01c-2.88 7.75-2.27 16.74.24 24.52.78 2.44 4.65 1.4 3.85-1.06-1.92-6-2.7-12.7-1.28-18.89a30.2 30.2 0 0 1 13.5-18.4 31 31 0 0 1 11.04-4.3 30 30 0 0 1 5.9-.36 40 40 0 0 1 7.58.56 31.6 31.6 0 0 1 20.83 15.38 34 34 0 0 1 3.72 13.16c.45 4.35.66 9.12-1.06 13.24a2 2 0 0 0 1.4 2.46 2.05 2.05 0 0 0 2.46-1.4Z" class="c"/><path d="M58.67 46.53a6.7 6.7 0 0 0-7.35-1.1 6.4 6.4 0 0 0-3.34 4.31 16 16 0 0 0 2.32 12.63c1.64 2.44 4.24 4.65 7.39 4.24a2.07 2.07 0 0 0 2-2 2 2 0 0 0-2-2c-2.18.28-3.6-1.52-4.54-3.26a13 13 0 0 1-1.55-4.82 8.3 8.3 0 0 1 .82-5.03c-.32.52.52-.44.2-.21a2 2 0 0 1 .92-.42 2.5 2.5 0 0 1 2.3.49c1.92 1.7 4.76-1.12 2.83-2.83m55.54 2.83a2.5 2.5 0 0 1 2.17-.52 2 2 0 0 1 1.04.45c-.3-.22.52.72.2.2a8.3 8.3 0 0 1 .83 5.04 13 13 0 0 1-1.56 4.82c-.94 1.74-2.35 3.54-4.53 3.26a2 2 0 0 0-2 2 2.05 2.05 0 0 0 2 2c5.11.66 8.26-4.86 9.54-9 1.15-3.7 1.09-9.46-2.54-11.83a6.7 6.7 0 0 0-7.98.75c-1.93 1.71.9 4.54 2.83 2.83" class="c"/><path d="M110.6 61.98a28 28 0 0 1-1.26 4.21l-.57 1.37c-.2.5.15-.3-.03.06l-.17.39a36 36 0 0 1-3.1 5.14c-2.67 3.8-6.34 7.94-11.05 9.05-2.5.59-1.44 4.44 1.06 3.85 5.6-1.31 9.9-5.98 13.15-10.46a37 37 0 0 0 3.35-5.5q.3-.63.57-1.27c.21-.51-.17.36.07-.16l.43-1.03a28 28 0 0 0 1.4-4.59c.53-2.51-3.32-3.59-3.85-1.06m-55.1.96c2.4 10.53 10.33 22 21.7 23.73a2.07 2.07 0 0 0 2.47-1.4 2 2 0 0 0-1.4-2.46c-10.08-1.52-16.79-11.62-18.91-20.93-.57-2.51-4.43-1.45-3.86 1.06m24.07 8.96a12 12 0 0 0 5.75 1.34 9.5 9.5 0 0 0 5.9-1.8 2 2 0 0 0 .6-1.4 2 2 0 0 0-.6-1.42 2.06 2.06 0 0 0-2.82 0c.7-.54-.01-.02-.23.1-.17.09-.62.23.01.01l-.46.17c-.42.14-.89.16-1.3.3a12 12 0 0 1-2.51-.01 9 9 0 0 1-1.22-.27l-.5-.17c-.44-.15.43.2.02.01l-.61-.3a2 2 0 1 0-2.03 3.44m4.46-13.19a26 26 0 0 1 .6 2.76l-.07-.53.01.38.07-.54-.04.17.2-.47-.06.1.31-.4-.09.1.4-.32-.21.12.48-.2-.37.1.53-.07h-.34l.53.07-.39-.06a1.5 1.5 0 0 0-.8-.04 1.5 1.5 0 0 0-.74.24 2 2 0 0 0-.72 2.74l.31.4a2 2 0 0 0 .88.51c.35.05.69.14 1.04.15a3.4 3.4 0 0 0 1.6-.39 2.4 2.4 0 0 0 1.32-1.59 4 4 0 0 0-.02-1.65q-.23-1.32-.58-2.63a2 2 0 0 0-.92-1.2 2 2 0 0 0-2.73.71 2 2 0 0 0-.2 1.54m-14-7.95c-.45 1.5-.15 4.93 2.68 5.22 3.74-.02 3.94-4.17 2.68-6.13-1.03-1.6-4.06-2.27-5.35.9m29.97 0c.46 1.5.16 4.93-2.67 5.22-3.74-.02-3.94-4.17-2.68-6.13 1.03-1.6 4.07-2.27 5.35.9m-31.25-23.8c1.72 4.28 5.03 7.85 8.43 10.88a24 24 0 0 0 11.64 5.46 2.05 2.05 0 0 0 2.46-1.4 2 2 0 0 0-1.4-2.46c-3.68-.74-7.02-1.89-9.88-4.42-2.81-2.51-5.97-5.56-7.4-9.12a2.06 2.06 0 0 0-2.46-1.4 2 2 0 0 0-1.4 2.46Z" class="c"/><path d="M87.18 33.72c-1.79 2.4.72 4.85 2.56 6.16a62 62 0 0 0 6.18 3.86 54 54 0 0 0 11.3 4.55c2.48.7 3.54-3.16 1.06-3.86a51 51 0 0 1-9.14-3.5 57 57 0 0 1-5-2.89q-1.3-.81-2.53-1.71a5 5 0 0 1-.78-.7l-.18-.2c-.45-.33.08.18-.02.31A2 2 0 0 0 89.9 33a2.05 2.05 0 0 0-2.74.72Zm-21.7-4.47a28 28 0 0 0-5.37 8.58 28 28 0 0 0-1.77 9.12 2 2 0 0 0 4 0 23 23 0 0 1 5.97-14.87c1.75-1.89-1.07-4.72-2.83-2.83" class="c"/><path d="M115.67 64.07a4.54 4.54 0 0 0-4.63 4.6 4.63 4.63 0 1 0 9.27 0 4.54 4.54 0 0 0-4.64-4.6m-61.69 0a4.54 4.54 0 0 0-4.63 4.6 4.34 4.34 0 0 0 4.63 4.7 4.3 4.3 0 0 0 4.63-4.7 4.54 4.54 0 0 0-4.63-4.6" class="a"/><path d="M115.67 62.07a6.64 6.64 0 0 0-6.37 4.76 6.9 6.9 0 0 0 2.17 7.19 7.3 7.3 0 0 0 7.66.52 6.6 6.6 0 0 0 3.14-6.48 6.6 6.6 0 0 0-2.05-4.24 6.8 6.8 0 0 0-4.55-1.75 2 2 0 0 0 0 4l.4.02c.46.01-.46-.1-.01 0l.6.16.13.04q.3.11-.14-.07l.21.1.4.22c.04.13.32.3.42.4.05.05.24.34.07.06l.05.08.32.56c.15.22-.16-.48-.04-.1l.14.46.06.23.02.12q.06.33-.02-.17a3 3 0 0 0 .03.62l-.02.39-.01.12.02-.17a5 5 0 0 0-.15.68l-.1.32c-.07.18-.15.12.07-.17-.12.16-.2.38-.31.55l-.12.17c.23-.44.19-.23.05-.08l-.19.18c-.15.15-.41.22.05-.01-.15.08-.3.2-.44.28l-.3.15c.4-.28.28-.12.07-.04l-.55.15c-.16.03-.53.03.06 0l-.38.04a7 7 0 0 1-.77 0l-.25-.02c-.43-.03.48.1.06 0l-.56-.14-.31-.11q.46.2.18.07l-.15-.08c-.16-.09-.32-.22-.49-.3.41.2.27.22.12.08l-.19-.18-.2-.23c-.22-.23.1.13.11.16a5 5 0 0 0-.37-.65c-.1-.17.04-.15.07.18l-.1-.32-.14-.56c-.1-.43.03.49 0 .05l-.03-.38a4 4 0 0 0 .02-.75c.1.29-.08.4 0 .11q.03-.2.1-.4.04-.18.1-.34c.13-.4-.21.4-.01.04l.4-.65c.2-.32-.35.37-.07.08l.33-.33.18-.16-.13.1.2-.13.26-.15.16-.08q.3-.14-.14.05c.15.04.54-.17.72-.21l.12-.03-.14.02.53-.03a2 2 0 0 0 0-4m-61.69 0a6.64 6.64 0 0 0-6.38 4.76 6.9 6.9 0 0 0 2.17 7.19 7.3 7.3 0 0 0 7.66.52 6.5 6.5 0 0 0 3.14-6.48 6.6 6.6 0 0 0-2.05-4.24 6.8 6.8 0 0 0-4.54-1.75 2 2 0 0 0 0 4l.4.02c.46.01-.46-.1-.02 0l.61.16.12.04q.3.11-.14-.07l.22.1.39.22c.05.13.33.3.42.4.05.05.25.34.07.06l.06.08.31.56c.15.22-.16-.48-.04-.1l.15.46.05.23.03.12q.05.32-.02-.17a3 3 0 0 0 .02.62q0 .2-.02.39v.12l.02-.17a5 5 0 0 0-.16.68l-.1.32c-.06.18-.15.12.07-.17-.12.16-.2.38-.3.55l-.13.17c.24-.44.19-.23.05-.08l-.18.18c-.16.15-.42.22.05-.01-.16.08-.3.2-.45.28l-.29.15c.4-.28.28-.12.07-.04l-.56.15c-.15.03-.52.03.06 0q-.19.01-.37.04a7 7 0 0 1-.77 0l-.25-.02c-.44-.03.48.1.06 0l-.56-.14-.32-.11.18.07-.14-.08c-.17-.09-.32-.22-.5-.3.41.2.27.22.13.08l-.2-.18-.2-.23c-.21-.23.11.13.12.16a5 5 0 0 0-.38-.65c-.09-.17.04-.15.08.18l-.11-.32q-.09-.29-.14-.56c-.1-.43.03.49 0 .05q0-.19-.03-.38a4 4 0 0 0 .02-.75c.1.29-.07.4 0 .11l.1-.4.1-.34c.14-.4-.21.4 0 .04l.39-.65c.2-.32-.34.37-.06.08l.32-.33.18-.16q-.38.29-.12.1l.2-.13.26-.15.01-.03c.16.04.54-.17.72-.21l.13-.03-.15.02.54-.03a2 2 0 1 0 0-4" class="c"/></svg>
