<svg xmlns="http://www.w3.org/2000/svg" viewBox="-46.52 0 279.931 279.931"><defs><style>.b{fill:#fff}.c{fill:#211715}</style></defs><path d="M47.11 162.57c-14.5 2.41-23.76-9.1-23.69-17.4a97 97 0 0 1 2.96-20.67c2.3-8.21 3.94-22.65 3.94-42.68-.98-29.54 6.79-50.97 19.04-62.7 7.39-7.07 24.03-16.7 42.73-16.7a68 68 0 0 1 27.14 5.2l8.33 4.13c3.6 2.11 4.89 3.92 8.6 7.47 9.32 8.93 15.8 25 16.82 39.39.3 4.15.88 14.06.61 22.42.2 14.48 1.85 28.6 5.97 42.52 2.39 8.07 5.6 18.46 3.01 26.47-3.15 9.78-14.44 15.8-24.25 12.3Z" style="fill:#a88876"/><path d="M50.94 73.83c8.86-7.27 18.4-16.32 27.13-24.9-.37 3.15-1.67 8.51-1.89 11.76-.08 1.3.2 1.76 1.19 2.23A4.6 4.6 0 0 0 80 62.8a63.3 63.3 0 0 0 31.56-22.98c1.73 6.64 4.18 14.9 6.32 18.93 5.27 9.96 14.23 18.35 22.2 20.78a7.4 7.4 0 0 1 5.34-1.93 6.9 6.9 0 0 1 6.16 3.44c2.08 3.65 1.96 10.34.54 14.48-1 2.92-2.66 7.4-6.6 10.6a8.2 8.2 0 0 1-6.3 1.8l-.6-.1a48 48 0 0 1-2.18 5.86c-1.59 4.26-10.24 19.05-21.2 25.12.04 2.29-.03 3.11.18 6a14 14 0 0 0 .67 3.94 9.7 9.7 0 0 0 2.9 4.22c2.95 2.37 5.97 3.5 9.7 4.9l3.89 1.54c-9.83 6.7-26.07 10.47-39.84 10.78-13.57-.3-29.6-3.98-39.45-10.52l4.54-1.8c3.73-1.4 6.75-2.53 9.7-4.9a9.7 9.7 0 0 0 2.9-4.22 14 14 0 0 0 .68-3.95c.2-2.66.15-3.57.17-5.5-5.12-2.47-9.71-6.4-14.08-11.66a56 56 0 0 1-10.6-20.18 8 8 0 0 1-6.79-1.73c-3.91-3.22-5.51-7.72-6.5-10.66-1.4-4.15-1.46-10.84.65-14.47a6.9 6.9 0 0 1 6.18-3.4 7.5 7.5 0 0 1 4.7 1.43 186 186 0 0 0 6.1-4.8" class="b"/><path d="M80.77 139.67c-7.79-1.19-14.2-5.35-19.5-11.04a54 54 0 0 1-12.35-21.82 2.45 2.45 0 0 0-2.95-1.68c-3.87.85-6.85-3.09-8.45-6.07a23 23 0 0 1-2.76-9.04 20 20 0 0 1 .23-5.16 12 12 0 0 1 .62-2.26 7 7 0 0 1 .5-.94c.05-.1.5-.7.16-.28a5.4 5.4 0 0 1 7.5-.52c2.28 2.08 5.68-1.3 3.4-3.4a10.4 10.4 0 0 0-11.54-1.62 10.2 10.2 0 0 0-5.12 7.06 26.5 26.5 0 0 0 4.12 20.63c2.92 4.18 7.29 7.4 12.61 6.23l-2.95-1.68A59 59 0 0 0 53.67 127c4.19 5.53 9.28 10.66 15.48 13.9a33 33 0 0 0 10.34 3.4 2.5 2.5 0 0 0 2.95-1.68 2.4 2.4 0 0 0-1.67-2.95m61-58.44a5.3 5.3 0 0 1 4.59-1.14 5 5 0 0 1 2 .82c-.17-.12.4.35.48.43s.62.78.3.33c1.78 2.55 1.8 6.18 1.53 9.19a23 23 0 0 1-2.99 8.96c-1.73 3.04-4.55 6.35-8.41 5.68a2.47 2.47 0 0 0-2.95 1.67 49 49 0 0 1-1.95 5.3l-.37.9c-.15.36.26-.54 0 0l-.52 1.1a59 59 0 0 1-3.58 6.15 55 55 0 0 1-12.16 13.68 23 23 0 0 1-8.92 4.44c-3.02.68-1.74 5.3 1.27 4.63 6.68-1.52 12.33-6.17 16.85-11.12a69 69 0 0 0 10.34-14.68c.52-1 .95-2.01 1.4-3.04.02-.05.11-.25 0 .01-.16.37.16-.35.19-.41q.37-.85.7-1.72.77-1.95 1.38-3.96l-2.95 1.68c4.5.78 8.32-.88 11.28-4.3a28 28 0 0 0 5.13-9.56 25 25 0 0 0 .89-11.36c-.46-3.12-1.68-6.1-4.3-8a10.34 10.34 0 0 0-12.61.92c-2.3 2.07 1.1 5.45 3.4 3.4Z" class="c"/><path d="M109.4 41.03c1.74 6.55 3.44 13.5 6.7 19.48a52 52 0 0 0 14.05 16.39 31 31 0 0 0 9.3 4.94c2.95.93 4.21-3.7 1.27-4.63-7.27-2.28-13.35-8.4-17.6-14.5-4.8-6.9-6.97-14.93-9.09-22.96-.78-2.98-5.42-1.72-4.62 1.28Z" class="c"/><path d="M109.46 38.66a62 62 0 0 1-15.3 14.63 62 62 0 0 1-9.42 5.17q-2.44 1.07-4.99 1.9a6 6 0 0 1-1.1.3h-.36c-.47.18.02-.2.04.08.02.19.17.76.25.48a9 9 0 0 0 .07-1.28c.37-3.7 1.36-7.31 1.82-11 .27-2.17-2.74-3.03-4.1-1.7-8.8 8.64-17.74 17.19-27.29 25.01a2.4 2.4 0 0 0 0 3.4 2.46 2.46 0 0 0 3.4 0c9.54-7.83 18.48-16.38 27.28-25.02l-4.1-1.7c-.42 3.44-1.45 7.35-1.82 11-.2 2.08.23 3.93 2.17 4.99 2.08 1.13 4.48.28 6.53-.46a66 66 0 0 0 21.44-12.75 71 71 0 0 0 9.62-10.62 2.4 2.4 0 0 0-.86-3.29 2.46 2.46 0 0 0-3.28.86m41.73 42.36a163 163 0 0 0 6.27 43.9c1.8 6.07 3.74 12.32 3.67 18.71a17 17 0 0 1-6.53 13.64 16.7 16.7 0 0 1-15.64 2.73c-2.93-1.01-4.18 3.63-1.27 4.63 11.38 3.92 24.59-3.47 27.52-15.09 1.72-6.84.16-14.17-1.66-20.83-1.94-7.15-4.06-14.18-5.31-21.5a170 170 0 0 1-2.25-26.2c-.04-3.08-4.84-3.09-4.8 0Z" class="c"/><path d="M126.35 13.81a26 26 0 0 1 5.12 4.14c1.74 1.74 3.56 3.4 5.18 5.25a52 52 0 0 1 7.82 12.3 69 69 0 0 1 4.86 14.54 82 82 0 0 1 1.53 12.97c.33 6 .52 12 .33 18.01-.1 3.1 4.7 3.09 4.8 0 .18-5.6.02-11.2-.26-16.8a98 98 0 0 0-1.49-14.08c-2.05-10.4-6.32-20.68-13.03-28.95a85 85 0 0 0-6.09-6.37 33 33 0 0 0-6.35-5.15c-2.66-1.58-5.08 2.57-2.42 4.14m-6.48-8.51A72 72 0 0 0 89.45.08a69 69 0 0 0-29.97 8.86A54 54 0 0 0 41.98 24a68 68 0 0 0-10.4 22.51C28.43 57.97 27.54 70 27.91 81.82c.1 3.09 4.9 3.1 4.8 0-.57-17.95 1.64-37.36 11.6-52.78a46.4 46.4 0 0 1 14.6-14.2A65 65 0 0 1 86 5.15a68 68 0 0 1 32.61 4.78 2.4 2.4 0 0 0 2.95-1.68 2.46 2.46 0 0 0-1.68-2.95" class="c"/><path d="M27.92 81.82c0 8.3-.26 16.61-1.03 24.88a101 101 0 0 1-2.6 16.33 97 97 0 0 0-3.24 20.9 19.8 19.8 0 0 0 5.9 14.55c5.47 5.62 13.18 7.61 20.8 6.4a2.4 2.4 0 0 0 1.68-2.94 2.46 2.46 0 0 0-2.95-1.68 18.4 18.4 0 0 1-15.63-4.66 18 18 0 0 1-4.01-5.7 16 16 0 0 1-.92-3.2c-.1-.51-.03 0-.05-.4q-.04-.33-.04-.67c-.03-.73.01-1.47.04-2.2a94 94 0 0 1 3.08-19.24 106 106 0 0 0 2.59-15.9 263 263 0 0 0 1.18-26.47c0-3.09-4.8-3.1-4.8 0m57.07 37.27a19 19 0 0 0 9.28 2.15 15 15 0 0 0 9.36-2.76 2.4 2.4 0 0 0 0-3.4 2.46 2.46 0 0 0-3.4 0c.73-.56.16-.13-.03 0s-.37.22-.57.32l-.3.16c-.38.2.07.02.09-.03-.03.1-.7.25-.8.29a14 14 0 0 1-2.21.5c.35-.06-.07 0-.22.01q-.32.04-.65.06a22 22 0 0 1-2.98 0l-.65-.06-.31-.04a16 16 0 0 1-2.07-.46q-.44-.13-.86-.28c-.62-.21.35.18-.2-.08l-1.06-.53a2.45 2.45 0 0 0-3.28.86 2.43 2.43 0 0 0 .86 3.28Zm8.06-21.86a44 44 0 0 1 1.03 4.69l-.09-.64a3 3 0 0 1 .02.65l.08-.64-.07.29.25-.57-.1.18.37-.48-.15.15.48-.38-.37.2.57-.24a3 3 0 0 1-.62.18l.64-.08a3 3 0 0 1-.6 0l.65.08-.66-.11a2 2 0 0 0-.96-.04 2 2 0 0 0-.9.28 2.4 2.4 0 0 0-.85 3.28 2.3 2.3 0 0 0 1.43 1.1c.5.07 1 .2 1.5.22a5 5 0 0 0 2.22-.52 3.2 3.2 0 0 0 1.78-2.11 5 5 0 0 0-.02-2.28q-.4-2.25-1-4.49a2.4 2.4 0 0 0-4.63 1.28m-24.8-13.29c-.8 2.55-.28 8.4 4.54 8.9 6.38-.03 6.72-7.11 4.57-10.44-1.76-2.73-6.92-3.86-9.12 1.54m51.04 0c.78 2.55.27 8.4-4.55 8.9-6.38-.03-6.72-7.11-4.57-10.44 1.76-2.73 6.92-3.86 9.12 1.54" class="c"/><path d="m91.6 169.83 2.49.35c10.19-1.5 22.2-2.67 33.22-3.9l-.44-3.06a7.3 7.3 0 0 1 3.75-7.5 27 27 0 0 0 3.95-2.36c8.09-6.1 12.48-10.13 15.02-17.46 9.03 3.7 16.56 8.11 22.63 14.62 6.72 8.06 11.6 17.07 12.17 36.37A152 152 0 0 1 171.43 254a42 42 0 0 1-17 18.45 38.2 38.2 0 0 1-30.17 3.39l-.41-.14c-8.02-2.71-13.74-7.16-17.9-13.96a44 44 0 0 1-3.6-7.52h-16.3a42 42 0 0 1-3.53 7.52c-4.16 6.8-9.89 11.25-17.9 13.96l-.4.14a38.2 38.2 0 0 1-30.18-3.4c-7.19-4.15-12.91-10.68-17.11-18C5.5 234.6 2.4 209.46 2.35 186.9c1.07-19.24 7.17-28.31 13.9-36.37 5.8-6.22 12.93-10.53 21.45-14.12 2.55 7.01 6.93 11 14.83 16.96a27 27 0 0 0 3.95 2.37 7.3 7.3 0 0 1 3.75 7.49l-.42 2.94c10.42 1.18 21.83 2.3 31.79 3.67" style="fill:#f8b8b4"/><path d="M86.64 242.47c-1.41 8-3.93 16.35-9.48 22.5a31.8 31.8 0 0 1-20.32 9.99 36.5 36.5 0 0 1-24.14-6.2c-6.98-4.8-11.99-11.87-15.77-19.35-8-15.8-10.99-33.81-11.89-51.34a104 104 0 0 1-.15-13.25 68 68 0 0 1 1.99-12.14 49 49 0 0 1 7.92-16.48 45 45 0 0 1 5.72-6.55 51 51 0 0 1 8.53-6.28c6.9-4.1 14.5-6.88 22.1-9.36q3.2-1.04 6.41-2.02c2.95-.9 1.7-5.54-1.27-4.63-15.24 4.68-32.55 10.04-42.96 22.95a58 58 0 0 0-9.68 16.6C.67 175.14-.2 183.95.04 192.65c.5 18.73 3.14 37.8 10.78 55.05 3.69 8.32 8.65 16.3 15.63 22.27a41.4 41.4 0 0 0 25.26 9.93 38.3 38.3 0 0 0 24.76-7.76c6.8-5.28 10.8-13 13.14-21.14a71 71 0 0 0 1.65-7.26 2.47 2.47 0 0 0-1.67-2.95 2.4 2.4 0 0 0-2.95 1.67Zm10.41 1.27c1.53 8.63 4.6 17.38 10.4 24.1a36 36 0 0 0 21.31 11.55 41 41 0 0 0 26.53-4.66 44 44 0 0 0 17.88-18.8c8.5-17.8 12.75-37.85 13.56-57.5.64-15.4-.14-32.04-9.31-45.08a50 50 0 0 0-15.58-14.12c-7.18-4.27-15.13-7.2-23.05-9.78q-3.3-1.07-6.6-2.08c-2.97-.91-4.23 3.72-1.28 4.62 7.85 2.41 15.75 4.91 23.15 8.51 6.2 3.01 12.54 6.9 16.95 12.3a46 46 0 0 1 7.8 13.74c2.54 7.5 3.16 15.47 3.25 23.36a152 152 0 0 1-9.49 55.09 68 68 0 0 1-5.45 12 40 40 0 0 1-7.95 9.19 36.8 36.8 0 0 1-22.4 8.92 33.5 33.5 0 0 1-21.89-6.76c-6.04-4.76-9.52-11.78-11.62-19.04a66 66 0 0 1-1.58-6.84 2.4 2.4 0 0 0-2.95-1.67 2.45 2.45 0 0 0-1.68 2.95" class="c"/><path d="M130.63 155.73a28 28 0 0 0 3.95-2.37c8.49-6.41 12.91-10.53 15.38-18.58 2.43-7.94 3.26-18.6 3.3-31.38-.1-4.14-.1-6.28-.39-9.42a99 99 0 0 0-.47-4.08 4.8 4.8 0 0 0-2.15-2.99 4.2 4.2 0 0 0-4.34-.01c-2.92 1.54-4.28 7.25-4.28 7.25l-.96 4.04c-4.74-2.84-6.42 9.15-7.3 12.39a36.5 36.5 0 0 1-19.87 25.11c-17.1 5.65-15.17 19.25-14.03 33.76 8.9-1.16 18.7-2.15 27.85-3.18l-.43-3.06a7.3 7.3 0 0 1 3.74-7.48" class="b"/><path d="M101.86 169.44c-.57-7.19-1.77-15 .78-21.73a15 15 0 0 1 5.92-7.1 46 46 0 0 1 6.14-2.84 33 33 0 0 0 5.9-3.54 40 40 0 0 0 15.1-23.15 59 59 0 0 1 2.37-8.83 11 11 0 0 1 .95-1.75c.24-.34-.33.43.08-.08l.27-.28c-.5.46-.05.04-.05.04q.36-.19-.1.02l.15-.05.17-.04q-.5.06-.22.06c.3.1-.52-.08.15.01a2 2 0 0 1 .42.13c-.4-.16-.08-.02 0 .02.54.23-.15-.18.1.03l.36.36c-.32-.34.23.4.32.56.2.4.06.13.02.03l.22.65q.15.57.26 1.15a8 8 0 0 1 .1.93q.04.67.05 1.35a37 37 0 0 1-.27 4.26 149 149 0 0 1-2.67 17.38c-.7 3 3.93 4.29 4.63 1.28a153 153 0 0 0 2.78-18.16 27 27 0 0 0-.08-8.79c-.76-3.47-3.85-6.98-7.77-5.79-3.57 1.08-4.84 5.9-5.66 9.06-.95 3.69-1.53 7.46-2.96 11a34 34 0 0 1-7.94 11.7 33 33 0 0 1-5.67 4.43 57 57 0 0 1-6.6 3.1 21 21 0 0 0-9.47 8.12c-4.74 7.83-3.27 17.81-2.59 26.46a2.46 2.46 0 0 0 2.4 2.4 2.4 2.4 0 0 0 2.4-2.4Z" class="c"/><path d="M143.94 94.79a13 13 0 0 1 2.02-4.72c.1-.15.71-.82.72-.83a2.4 2.4 0 0 1 1.68-.53c1.57.23 1.72 1.8 1.87 3.02a132 132 0 0 1 .38 22.18c-.34 6.85-.97 13.82-3.02 20.4-1.8 5.77-5.56 9.99-10.15 13.78a59 59 0 0 1-5.03 3.87c-1.73 1.14-3.72 1.86-5.2 3.37a9.7 9.7 0 0 0-2.64 5.1c-.36 2.17.12 4.32.43 6.48a2.4 2.4 0 0 0 2.95 1.67 2.46 2.46 0 0 0 1.68-2.95c-.23-1.62-.7-3.35-.2-4.97a5.4 5.4 0 0 1 2.9-3.13 55 55 0 0 0 9.92-7.25 36 36 0 0 0 6.52-7.23 31 31 0 0 0 3.9-9.03c2.04-7.46 2.6-15.33 2.85-23.03q.22-6.4 0-12.8a70 70 0 0 0-.32-4.86c-.2-1.96-.2-4.15-1.22-5.9a6.9 6.9 0 0 0-11.29-.95 17 17 0 0 0-3.38 7.03c-.73 3 3.9 4.28 4.63 1.28" class="c"/><path d="M56.47 155.73a28 28 0 0 1-3.95-2.37c-8.49-6.41-12.9-10.53-15.38-18.58-2.42-7.94-3.26-18.6-3.29-31.38.1-4.14.09-6.28.38-9.42.1-1.17.26-2.48.48-4.08a4.8 4.8 0 0 1 2.14-2.99 4.2 4.2 0 0 1 4.34-.01c2.92 1.54 4.28 7.25 4.28 7.25l.97 4.04c4.74-2.84 6.41 9.15 7.3 12.39a36.5 36.5 0 0 0 19.87 25.11c17.1 5.65 15.16 19.25 14.02 33.76-8.9-1.16-18.7-2.15-27.85-3.18l.44-3.06a7.3 7.3 0 0 0-3.75-7.48" class="b"/><path d="M90.05 169.44c.6-7.78 1.83-16.33-1.26-23.75a20 20 0 0 0-7.82-9.23 41 41 0 0 0-6.48-3 27 27 0 0 1-6.12-3.8 35 35 0 0 1-9.27-11.21 45 45 0 0 1-3.7-11.36c-.76-3.36-1.54-7.48-4-10.07-2.8-2.94-7.38-1.54-9.12 1.84-1.65 3.22-1.43 7.15-1.05 10.64a160 160 0 0 0 2.86 18.8c.7 3.01 5.32 1.74 4.63-1.27a141 141 0 0 1-2.61-16.83q-.18-1.58-.29-3.17-.05-1.07-.03-2.13a11 11 0 0 1 .18-2.03q.1-.51.26-1.02.06-.22.14-.43c.14-.39-.26.46.06-.14a5 5 0 0 1 .44-.72c-.26.33.55-.4.25-.18.1-.08.51-.23.08-.07a2 2 0 0 1 .43-.13c.51-.07.12-.05.05-.01.3-.17-.07-.07-.04-.04.09.1.6.09-.02-.03a1 1 0 0 1 .3.19c-.33-.61.44.59.1.13a12 12 0 0 1 1.8 4.13 72 72 0 0 1 1.17 4.75 46 46 0 0 0 3.97 11.57 39 39 0 0 0 14.48 15.33 66 66 0 0 0 6.3 2.88 16.7 16.7 0 0 1 7.84 6.79c1.76 3.12 2.27 6.83 2.35 10.52a130 130 0 0 1-.69 13.05 2.4 2.4 0 0 0 2.4 2.4 2.45 2.45 0 0 0 2.4-2.4Z" class="c"/><path d="M47.79 93.51a18 18 0 0 0-2.5-5.86c-2.35-3.46-6.88-5.1-10.43-2.24-3.05 2.47-2.94 6.76-3.17 10.35-.26 3.9-.27 7.83-.2 11.74.14 8.03.57 16.2 2.33 24.06a38 38 0 0 0 3.32 9.48 31 31 0 0 0 5.9 7.59 63 63 0 0 0 4.44 3.84 48 48 0 0 0 5.89 4.3c1.65.95 3.37 1.6 4.16 3.48.73 1.72.2 3.62-.05 5.38a2.5 2.5 0 0 0 1.67 2.95 2.4 2.4 0 0 0 2.95-1.67 24 24 0 0 0 .57-5.5 10 10 0 0 0-1.82-4.93 12 12 0 0 0-4.18-3.37 34 34 0 0 1-4.84-3.28c-4.66-3.65-9.24-7.65-11.51-13.26-2.5-6.14-3.2-13.06-3.65-19.62a148 148 0 0 1-.08-22.54c.13-1.5.02-3.76.87-4.86a2.08 2.08 0 0 1 3.28.02 11.4 11.4 0 0 1 2.43 5.22c.72 3 5.35 1.73 4.62-1.28m103.49 124.15c-2.2-10.1-4.31-20.22-6.42-30.34l-3.02-14.47c-.42-1.98-.74-4.02-1.26-5.98a5.3 5.3 0 0 0-2.17-3.1 6 6 0 0 0-4.35-.67c-11.77 1.43-23.58 2.49-35.34 4.04a11 11 0 0 0-4.01.89 5.4 5.4 0 0 0-2.45 3.27 19 19 0 0 0-.3 4.41l-.1 4.88q-.1 9.6.3 19.21c.62 14.75 2.7 29.36 4.9 43.95a2.4 2.4 0 0 0 2.94 1.67 2.46 2.46 0 0 0 1.68-2.95c-1.81-12.07-3.58-24.16-4.38-36.34-.4-6.1-.58-12.2-.64-18.31q-.04-4.47.04-8.94l.1-4.4c.02-.53-.19-2 .34-2.32a5 5 0 0 1 1.37-.2l1.72-.22 4.38-.54q4.28-.52 8.56-.98c5.61-.62 11.23-1.2 16.84-1.85l3.84-.45c.43-.06 1.62-.45 2.01-.12.2.17.27 1.2.33 1.45l.24 1.15.65 3.08 2.79 13.38c2.23 10.7 4.45 21.4 6.78 32.07.66 3.02 5.29 1.74 4.63-1.27" class="c"/><path d="M41.52 218.94q3.07-14.19 6.01-28.4l2.94-14.08 1.24-5.9a8 8 0 0 1 .55-2.58c.41-.52 1.19-.17 1.85-.09 11.2 1.36 22.43 2.4 33.61 3.82l1.94.25a5 5 0 0 1 1.37.2c.49.35.32 1.5.33 2.07q.14 4.63.16 9.25.03 9-.39 17.99a401 401 0 0 1-4.5 41 2.5 2.5 0 0 0 1.68 2.94 2.4 2.4 0 0 0 2.95-1.67c1.95-12.97 3.74-25.99 4.5-39.09q.56-9.6.56-19.24 0-4.85-.12-9.7c-.07-2.84.08-6.06-2.75-7.69a10 10 0 0 0-3.8-.86q-2.38-.31-4.77-.6-4.48-.55-8.98-1.04c-5.91-.65-11.83-1.27-17.74-1.95l-4.06-.48a6 6 0 0 0-4.2.58c-2.18 1.36-2.44 3.77-2.92 6.05q-1.45 6.88-2.88 13.77c-2.37 11.4-4.73 22.8-7.21 34.17-.66 3 3.96 4.3 4.62 1.27Zm60.84 32.88H86.05a2.4 2.4 0 0 0 0 4.8h16.3a2.4 2.4 0 0 0 0-4.8" class="c"/></svg>
