<svg xmlns="http://www.w3.org/2000/svg" viewBox="-41.03 0 332.464 332.464"><defs><style>.b{fill:#fff}.c{fill:#211715}</style></defs><path d="M214.61 86.07c2.7 5.05 9.03 9.22 12.46 11.87 13.94 10.77 23.2 24.94 20.46 42.34-.36 2.33-.91 6.4-2.84 8.92a29 29 0 0 1-14.6 14.16c-6.82 3.1-19.58 11.07-31.11 14.55C183.02 167.7 77.53 75.32 77.53 75.32a93 93 0 0 1 2.1-31.66c2.39-8.8 7.47-18.45 13.93-24.84C104.74 7.75 120.5 1.8 139.4 2.5c11.93.44 23.62 3.67 35.65 13.87l8.63 6.44c24.97 20.21 22.2 50.85 31.5 64.17" style="fill:#a98a75"/><path d="M175.68 84.4q1.24.86 2.55 1.71c3.61 2.35 7.31 3.8 10.7 5.84a22 22 0 0 1-3.03 10.57 21 21 0 0 1-8.82 8.52 15.4 15.4 0 0 1-7.8.97l-.54 1.05a69 69 0 0 1-3.78 5.2 74 74 0 0 1-7.03 7.45l1.97 10.27a28 28 0 0 0 1.5 5.67c2.07 4.87 6.67 8.1 11.04 11.08l2.84 1.92a80.6 80.6 0 0 1-45.63 14.66c-6.42 0-12.93-.82-18.9-3.5a30.4 30.4 0 0 1-13.44-11.84c4.22-1.54 9.12-3.23 12.14-4.6 3.1-1.1 7.08-3.24 6.67-7.05l.1-2.76c-10.73-.64-19.47-4.72-27.33-12.58-8.1-8.09-10.8-19.84-10.94-32.56-.08-7.33.01-15.28-.24-23.26l6.6-2.7q4.14-1.93 8.07-4.27h12.27A183 183 0 0 0 134 46.54c.9.05 12.08.35 12.08.35 2.65 7.44 5.19 14.51 10.13 20.37a102 102 0 0 0 19.47 17.14" class="b"/><path d="M113.72 142.32a2.6 2.6 0 0 1-.5 2.04 7 7 0 0 1-2.05 1.63 40 40 0 0 1-5.54 2.38c-4.54 1.77-9.19 3.25-13.7 5.08a2.5 2.5 0 0 0-1.68 2.95 2.4 2.4 0 0 0 2.95 1.68c5.01-2.03 10.18-3.62 15.18-5.67 4.28-1.75 10.6-4.09 10.14-10.09a2.46 2.46 0 0 0-2.4-2.4 2.4 2.4 0 0 0-2.4 2.4" class="c"/><path d="M56.55 182.91c2.55-5.69 5.64-9.97 11.34-15.27 8.4-7.83 16.17-10.6 28.68-14.93a30.4 30.4 0 0 0 14.17 13.1c5.98 2.68 12.5 3.5 18.9 3.5a80.8 80.8 0 0 0 47.24-15.8l27.19 8.13c3.78 4.48 8.61 9.06 11.72 14 6.86 10.93 9.03 19.63 10.2 32.37a259 259 0 0 1 .74 39.5c-.64 9.68-1.06 17.92-2.57 29.18-1.28 9.54-4.14 23.1-11.5 29.38-2.2 2.39-7.78 6.63-12.48 7.54a22 22 0 0 1-6.38.17l.57 3.25c.75 3.87 1.43 8.06 2.49 13.02H62.9c1.81-19.9 3.16-39.87 3.33-47.64q.05-2.23.07-4.23l-1.13.91c-5.92 7.47-20.35 13.67-28.82 12.12a21.6 21.6 0 0 1-13.63-9.31 57 57 0 0 1-6.93-15.5c-2.04-7.68-5.01-26.3-4.15-33.4a11.5 11.5 0 0 1 7.01-6.48l35.95-38.8a76 76 0 0 1 1.95-4.81" style="fill:#f8b8b4"/><path d="M100.53 148.8c-8 2.79-16.28 5.26-23.72 9.37a56 56 0 0 0-18.22 16.27 53 53 0 0 0-6.3 12.64 2.4 2.4 0 0 0 1.68 2.95 2.45 2.45 0 0 0 2.95-1.67 50 50 0 0 1 5.04-10.37 49 49 0 0 1 8.02-9.02 56 56 0 0 1 17.94-10.62c4.58-1.76 9.25-3.3 13.89-4.92a2.46 2.46 0 0 0 1.67-2.95 2.4 2.4 0 0 0-2.95-1.68" class="c"/><path d="M94.43 153.79c12.68 22.87 44.4 20.46 65.29 11.97a87 87 0 0 0 18.38-10.18 2.47 2.47 0 0 0 .86-3.28 2.4 2.4 0 0 0-3.28-.86 81 81 0 0 1-31.32 13.97 73 73 0 0 1-16.73 1.47c-5.83-.16-11.82-1.12-17.06-3.81a28.6 28.6 0 0 1-12-11.7c-1.5-2.7-5.64-.29-4.14 2.42" class="c"/><path d="M26.45 212.02a76 76 0 0 0-.03-15.1 78 78 0 0 0-.85-4.75l-2.35-11.66a63 63 0 0 1-4.12-.74c-8.56-2.13-13.23-9.94-15.1-17.44-1.91-7.71-4.02-19.73 5.95-24.36a716 716 0 0 1 42.47-8.95 236 236 0 0 1 19.62-2.84c2.8-.28 7.43 1.83 9.21 4.54 4.57 6.92 6.4 17.55 4.92 25.2-.5 2.96-3.36 5.04-4.87 5.6-11.28 4.18-17.48 6.76-29.32 11.08-1.17 1.95-4.22 8.6-5.38 10.55l-2.28 3.83a84 84 0 0 0-2.6 22.94Z" class="b"/><path d="M71.62 126.22c-4.9.48-9.04 1.08-13.18 1.76l2.22.5c6.62 1.46 10.8 6.86 12.42 13.21a49 49 0 0 1 1.64 10.91c-.03 5.1.09 9.02-2.7 11.47l-1.93 1.7c3.4-1.3 6.94-2.66 11.22-4.25 1.5-.55 4.36-2.64 4.87-5.6 1.46-7.65-.36-18.27-4.92-25.2-1.8-2.7-6.4-4.81-9.22-4.54Z" class="b"/><path d="M212.54 87.28c2.48 4.52 6.72 7.79 10.78 10.83a79 79 0 0 1 10.89 9.55c6.35 6.89 10.97 15.53 11.37 25.05a40 40 0 0 1-.53 8.03c-.41 2.52-.9 5.14-2.43 7.25a2.4 2.4 0 0 0 .86 3.28 2.46 2.46 0 0 0 3.28-.86 17.4 17.4 0 0 0 2.7-7.14 53 53 0 0 0 .92-7.59 39 39 0 0 0-2.46-15.16c-3.81-10.07-11.2-18.17-19.63-24.65-4.2-3.22-9-6.27-11.6-11.02-1.49-2.7-5.64-.29-4.15 2.43m-6.27 23.8c3.28 4.67 4.64 10.15 5 15.78.18 2.8.15 5.6.05 8.4-.1 3.01-.24 5.97-1.55 8.75a2.47 2.47 0 0 0 .86 3.28 2.4 2.4 0 0 0 3.29-.86 26 26 0 0 0 2.17-10.2 90 90 0 0 0-.02-9.37c-.4-6.43-1.9-12.86-5.65-18.2a2.46 2.46 0 0 0-3.28-.86 2.4 2.4 0 0 0-.86 3.28ZM18.02 224.23a14 14 0 0 0-5.46 3.27c-1.45 1.42-3.1 3.56-3.33 5.62a45 45 0 0 0 .13 8.58 169 169 0 0 0 3.28 21.81 59 59 0 0 0 3.2 10.3 45 45 0 0 0 6.62 11.7 24 24 0 0 0 10.93 7.44 22 22 0 0 0 11.01.37 43 43 0 0 0 12.42-4.57 33 33 0 0 0 10.06-7.94 2.47 2.47 0 0 0 0-3.4 2.4 2.4 0 0 0-3.4 0c-3.88 4.83-9.76 8.09-15.56 10.03a28 28 0 0 1-8.8 1.63 16.3 16.3 0 0 1-8.82-2.9c-5.94-3.92-9.22-11.22-11.4-17.76a101 101 0 0 1-3.56-16.8q-.8-5.16-1.22-10.38a43 43 0 0 1-.08-8.2l-.32 1.2a9.6 9.6 0 0 1 5.58-5.37c2.9-1 1.65-5.63-1.28-4.63" class="c"/><path d="M63.03 222.97a63 63 0 0 0-1.68 9.95c-.16 3.17-.03 6.37.07 9.54q.13 5.18.64 10.33c.33 3.2.9 6.38 1.23 9.59 1.32 12.84.42 25.85-.46 38.69q-1 14.5-2.32 29a2.4 2.4 0 0 0 2.4 2.4 2.45 2.45 0 0 0 2.4-2.4c1.36-14.97 2.65-29.98 3.24-44.99a172 172 0 0 0-.2-19.7c-.5-6.57-1.67-12.98-2-19.57q-.27-5.67-.22-11.35a51 51 0 0 1 1.53-10.21c.64-3.02-3.98-4.3-4.62-1.28Zm43.18-106.02a17 17 0 0 0 7.93 2.37 17 17 0 0 0 4.1-.2 25 25 0 0 0 4.17-1.37 2.4 2.4 0 1 0-1.28-4.63 30 30 0 0 1-3.8 1.3c-.19.04-.83.1-.3.06l-.9.07a16 16 0 0 1-1.79-.02l-.85-.08q-.35-.05 0 0l-.42-.07a17 17 0 0 1-1.76-.4l-.88-.28c-.16-.06-.8-.33-.35-.12a12 12 0 0 1-1.45-.78 2.4 2.4 0 0 0-3.28.87 2.45 2.45 0 0 0 .86 3.28m20.96-28.2c-.44-2.63.85-8.39 5.71-8.24 6.33.9 5.72 7.98 3.14 11-2.1 2.48-7.4 2.91-8.86-2.76m-37.8-3.88c-.37-2.64.86-8.42 5.32-8.3 5.8.83 5.17 7.93 2.78 11-1.95 2.49-6.8 2.97-8.1-2.7m19.02 8.16a55 55 0 0 0-2.72 3.99 5 5 0 0 0-.76 1.75 3.5 3.5 0 0 0 .07 1.74 4 4 0 0 0 .96 1.5 5 5 0 0 0 2 1.22c.3.1.62.14.93.21a2.4 2.4 0 0 0 1.27-4.62 8 8 0 0 1-1.08-.28l.58.25a3 3 0 0 1-.55-.33l.49.37a4 4 0 0 1-.49-.5l.37.49-.1-.17.25.58-.06-.18.09.64v-.29l-.1.64a2 2 0 0 1 .14-.5l-.24.58a17 17 0 0 1 1.54-2.48q.75-1.1 1.56-2.2a2.4 2.4 0 0 0 .24-1.84 2.5 2.5 0 0 0-1.1-1.43 2.4 2.4 0 0 0-1.85-.25 2.8 2.8 0 0 0-1.44 1.1Zm43.76 40.3a69 69 0 0 0 11.84-10.3 60 60 0 0 0 6.82-8.76c1.63-2.63-2.52-5.04-4.14-2.42q-.72 1.17-1.54 2.26l-.85 1.14-.4.51c-.4.53.3-.36-.07.1a69 69 0 0 1-3.22 3.78 64 64 0 0 1-10.86 9.55 2.46 2.46 0 0 0-.86 3.29 2.4 2.4 0 0 0 3.28.86Zm24.6-118.66C168.55 7.74 158.98 2.74 148.3.97a73 73 0 0 0-29.95 1.29 59 59 0 0 0-24.4 12.9c-7.68 6.83-13.04 16.2-16.08 25.95A76 76 0 0 0 75 57.08a91 91 0 0 0 .14 18.24 2.47 2.47 0 0 0 2.4 2.4 2.4 2.4 0 0 0 2.4-2.4C77.8 56.57 81.09 35.1 94.7 21.06c12.63-13.02 31.37-17.63 49.03-15.88a54 54 0 0 1 29.63 12.88 2.46 2.46 0 0 0 3.4 0 2.4 2.4 0 0 0 0-3.4" class="c"/><path d="M139.37 133.48a61 61 0 0 1-21.4 3.77 39 39 0 0 1-18.47-5 37 37 0 0 1-13.88-13.6c-3.25-5.86-4.62-12.62-5.08-19.25-.31-4.47-.23-8.97-.24-13.45-.01-4.93-.05-9.86-.2-14.78-.1-3.09-4.9-3.1-4.8 0 .28 8.85-.09 17.74.34 26.59.36 7.38 1.67 14.8 4.9 21.5 6.25 13 20.19 21.33 34.28 22.6 8.8.8 17.53-.9 25.83-3.76 2.9-1 1.65-5.63-1.28-4.62m25.43-20.53c2.95 1.75 6.49 1.84 9.8 1.3a17 17 0 0 0 8.06-4.02 25.4 25.4 0 0 0 8.64-17.64c.18-3.08-4.62-3.07-4.8 0a20.6 20.6 0 0 1-6.73 13.8 19 19 0 0 1-3.55 2.4l-.36.18q.48-.2.08-.04l-.6.21a15 15 0 0 1-1.47.37 9.7 9.7 0 0 1-6.65-.7c-2.66-1.59-5.08 2.56-2.42 4.14m-8.56 16.66c.66 3.43 1.16 6.95 2.06 10.32a19.4 19.4 0 0 0 4.56 8.17 40 40 0 0 0 6.76 5.6q4.38 3.02 8.8 5.98c2.55 1.74 4.96-2.41 2.42-4.14q-4.09-2.76-8.15-5.54a38 38 0 0 1-6.17-5.01c-4.23-4.44-4.55-10.91-5.65-16.66a2.4 2.4 0 0 0-2.95-1.68 2.45 2.45 0 0 0-1.68 2.96m35.83 188.06c.83 4.34 1.56 8.7 2.48 13.02a2.4 2.4 0 0 0 2.95 1.68 2.46 2.46 0 0 0 1.68-2.95c-.92-4.33-1.65-8.69-2.48-13.03a2.4 2.4 0 0 0-2.96-1.67 2.46 2.46 0 0 0-1.67 2.95m10.3-154.33c3.35 3.95 7.16 7.55 10.17 11.77a58 58 0 0 1 6.8 12.64c3.44 8.94 4.26 18.56 4.87 28.04a260 260 0 0 1 .02 33.4c-.63 9.78-1.23 19.59-2.72 29.28a80 80 0 0 1-3.3 14c-1.44 4.2-3.45 8.37-6.71 11.45-2.25 2.12 1.15 5.51 3.4 3.4 6.44-6.1 9.05-15.58 10.63-24.01 1.86-9.9 2.58-20 3.23-30.03a291 291 0 0 0 .46-33.75c-.52-10.22-1.12-20.82-4.38-30.6a65 65 0 0 0-7.2-14.84c-3.36-5.18-7.9-9.45-11.87-14.13a2.4 2.4 0 0 0-3.4 0 2.45 2.45 0 0 0 0 3.4Z" class="c"/><path d="M174.58 145.02c0 .85.03 2.01.08 3.26l-1.04-.08a6.6 6.6 0 0 0-5.63 2.97 14 14 0 0 0-1.58 5.24c-.57 3.8-.72 13.01-1.25 15.8-.93 4.91-7.3 6.27-9.94 11.21-1.37 2.57-1.4 5.75-1.5 8.75-.1 2.74 1.44 24.18 1.83 28.77l.19 2.27a891 891 0 0 1 30.18-10.78l-.08-.17c-1.3-3.05-3.36-9.05-2.64-12.29.59-2.69 2.92-4.57 5.02-6.35a83 83 0 0 0 11.73-12.19 23 23 0 0 0 2.59-3.9c1.88-3.84 1.77-8.3 1.62-12.57-.35-10.12-.98-20.87-6.05-29.85a6.7 6.7 0 0 0-3.47-3.29 2.8 2.8 0 0 0-4.15 2.2l-.52-1.02c-1.04-2.03-4.44-2.28-5.4-2.05a4.5 4.5 0 0 0-3.22 4.12 32 32 0 0 0 .23 4.7s0 .07.02.22a4 4 0 0 0-.67-.35 4.4 4.4 0 0 0-3.48.03c-2.46 1.04-2.66 2.72-2.83 4.34q-.04.36-.04 1.01" class="b"/><path d="M192.76 134.53c.36-.82.48-.75 1.31-.32a5.4 5.4 0 0 1 2.17 2.49 37 37 0 0 1 3.4 8.94c1.55 6.18 1.88 12.56 2.1 18.9.11 3.18.3 6.47-.5 9.58-.79 2.99-2.73 5.37-4.68 7.7a83 83 0 0 1-7.04 7.44c-2.32 2.16-5.02 4.01-6.94 6.56-3.75 4.98-1.22 11.93.94 17.08a2.5 2.5 0 0 0 2.95 1.68 2.4 2.4 0 0 0 1.68-2.95 39 39 0 0 1-2.5-8 6.1 6.1 0 0 1 1.97-6.3c2.54-2.47 5.35-4.63 7.84-7.17a82 82 0 0 0 7.07-8.2 20 20 0 0 0 3.93-10.13 68 68 0 0 0-.04-10.26c-.32-7.02-.95-14.19-3.24-20.88-1.09-3.18-2.5-7.26-5.14-9.53-2.84-2.46-7.64-3.1-9.43.95a2.5 2.5 0 0 0 .86 3.28 2.4 2.4 0 0 0 3.28-.86Z" class="c"/><path d="M183.97 139.77q-.14-1.35-.22-2.7a9 9 0 0 1 .09-2.44 3 3 0 0 1 .98-1.22.5.5 0 0 1 .38-.14q-.61.06-.17.02c.29.03.58-.01.88.02a5 5 0 0 1 1.45.41c.38.21.42.29.67.75a19 19 0 0 1 1.43 4.52 64 64 0 0 1 1.73 10.89c.34 5.13.83 10.26.8 15.41-.02 3.1 4.78 3.1 4.8 0 .03-4.68-.36-9.33-.7-14a81 81 0 0 0-1.47-11.25c-.63-2.95-1.16-6.53-3.07-8.96a7.8 7.8 0 0 0-8.85-1.97c-4.2 2.04-3.9 6.74-3.53 10.66a2.47 2.47 0 0 0 2.4 2.4 2.4 2.4 0 0 0 2.4-2.4m-10.35 6.03a9.2 9.2 0 0 0-8.8 6.62c-.99 2.98-1.1 6.31-1.28 9.42-.18 2.94-.27 5.89-.57 8.82l-.06.53c.04-.28-.05.27-.07.38a4 4 0 0 1-.68 1.7 12 12 0 0 1-2.66 2.56c-2.72 2.12-5.45 4.14-6.83 7.42-1.25 2.97-1.41 6.44-1.36 9.63.08 4.38.45 8.76.75 13.13.33 4.98.66 9.96 1.08 14.93a2.46 2.46 0 0 0 2.4 2.4 2.4 2.4 0 0 0 2.4-2.4 667 667 0 0 1-1.76-26.3 47 47 0 0 1 .08-5.71 10.6 10.6 0 0 1 1.37-4.88 13 13 0 0 1 3-3.07c2.22-1.79 4.8-3.38 6.1-6.02 1.15-2.34 1.14-5.1 1.3-7.65.2-3.21.3-6.44.63-9.63l.09-.74.05-.32.18-1.06a10 10 0 0 1 .88-2.82 4.3 4.3 0 0 1 3.77-2.14c3.09-.03 3.1-4.83 0-4.8Z" class="c"/><path d="M187 166.73c.06-4-.04-8-.1-11.98q-.04-2.63-.1-5.24a41 41 0 0 0-.47-4.85 13 13 0 0 0-1.25-4.47 6.94 6.94 0 0 0-12.8 3.28c-.4 3.28.1 6.7.15 9.98.08 5.1-.14 10.21-.15 15.31-.01 3.1 4.79 3.1 4.8 0q.03-6.73.14-13.47c.04-3.02-.16-6.03-.22-9.05a9 9 0 0 1 .28-3.46 2.4 2.4 0 0 1 1.23-.95 2.06 2.06 0 0 1 2.45.83 11 11 0 0 1 .78 3.57 40 40 0 0 1 .28 4.3l.08 4.37c.07 3.94.16 7.89.1 11.83-.06 3.09 4.74 3.09 4.8 0M181.98 24.5a62 62 0 0 1 18.55 26.36c3.23 8.5 4.97 17.4 7.62 26.07a40 40 0 0 0 4.95 11.25 2.46 2.46 0 0 0 3.29.86 2.4 2.4 0 0 0 .86-3.29 32 32 0 0 1-4.24-9.37c-1.27-4.03-2.27-8.14-3.35-12.23-2.57-9.76-5.69-19.5-11.1-28.1a62 62 0 0 0-13.19-14.94 2.47 2.47 0 0 0-3.4 0 2.4 2.4 0 0 0 0 3.39m24.67 104.67c4.74 4.3 7.6 10.52 10.17 16.27 1.27 2.84 2.45 5.72 3.68 8.59 1.37 3.2 3.42 6.58 6.61 8.25 3.82 2 8.22.97 11.57-1.46a2.47 2.47 0 0 0 .86-3.28 2.4 2.4 0 0 0-3.28-.86c-2.19 1.58-5.01 2.67-7.3 1.11-2.44-1.66-3.63-4.56-4.73-7.17-2.43-5.74-4.78-11.55-8-16.91a35 35 0 0 0-6.18-7.93c-2.28-2.08-5.69 1.3-3.4 3.4ZM136.2 41.9a185 185 0 0 1-32.76 20.24 2.4 2.4 0 0 0-.86 3.28 2.45 2.45 0 0 0 3.28.86 185 185 0 0 0 32.77-20.23 2.5 2.5 0 0 0 .86-3.28 2.4 2.4 0 0 0-3.29-.87m-23.79 2.84A93 93 0 0 1 83.1 66.4a2.4 2.4 0 0 0-.86 3.28 2.45 2.45 0 0 0 3.28.86 96 96 0 0 0 30.28-22.4c2.07-2.3-1.32-5.7-3.4-3.4Zm98.49 259.74c-2.92 3.05-7 5.92-11.17 6.8a22.4 22.4 0 0 1-13.74-2.1c-8.01-4.06-13.17-11.5-16.84-19.44-6.83-14.76-10.88-30.45-14.7-46.2-1.44-5.97-2.8-11.95-4.17-17.94l-1.1 2.71c-.75.32-.02.01.36-.14l1.21-.48q1.68-.66 3.37-1.3 4.74-1.8 9.5-3.55a768 768 0 0 1 22.25-7.85c3.15-1.05 6.32-2.1 9.53-2.94l-2.95-1.68c4.85 12.48 10.34 24.7 14.47 37.45.95 2.92 5.58 1.67 4.63-1.28-4.13-12.75-9.62-24.97-14.47-37.45a2.46 2.46 0 0 0-2.95-1.67c-6.56 1.73-12.98 4.07-19.37 6.32q-10.7 3.77-21.32 7.8c-2.24.84-4.48 1.68-6.68 2.63a2.4 2.4 0 0 0-1.1 2.7c3.16 13.8 6.3 27.6 10.29 41.2a179 179 0 0 0 8.7 23.3c4 8.86 9.65 16.69 18.24 21.59a27.7 27.7 0 0 0 17.17 3.11c5.3-.8 10.59-4.39 14.23-8.2 2.14-2.23-1.25-5.63-3.39-3.4ZM143.77 47.52c1.87 5.26 3.75 10.6 6.54 15.45a49 49 0 0 0 7.65 9.76 95 95 0 0 0 24.24 18.36c4.72 2.4 9.33 4.73 12.3 9.32 1.66 2.59 5.82.18 4.14-2.42a28 28 0 0 0-11-9.5c-2.02-1.07-4.1-2.05-6.1-3.18a76 76 0 0 1-7-4.65 105 105 0 0 1-11.45-9.6 51 51 0 0 1-7.32-8.39c-3.33-5.05-5.36-10.77-7.37-16.43a2.46 2.46 0 0 0-2.96-1.67 2.4 2.4 0 0 0-1.67 2.95M25.7 178.47c-2.93-.42-6.12-.7-8.82-2.01a17 17 0 0 1-6.38-5.43c-3.12-4.37-4.51-9.63-5.33-14.88-.68-4.3-.78-9.73 2.08-13.2a10 10 0 0 1 2.84-2.36 10 10 0 0 1 2.7-.86q3.61-.87 7.24-1.69c13.4-3.03 26.88-5.8 40.44-7.97q5.52-.9 11.08-1.45a9 9 0 0 1 6.9 2.5c2.03 1.94 3.18 5.2 4.02 7.84a38 38 0 0 1 1.76 9.64 34 34 0 0 1-.1 4.76 8 8 0 0 1-1.02 3.75 7 7 0 0 1-2.53 2.12c-.26.14.04 0 .08-.02q-.32.13-.66.24l-1.29.48-2.86 1.08c-6.3 2.38-12.57 4.84-18.88 7.2q-2.81 1.05-5.63 2.08a2.46 2.46 0 0 0-1.68 2.95 2.4 2.4 0 0 0 2.95 1.68c7.13-2.6 14.2-5.35 21.28-8.05q2.73-1.05 5.47-2.07a21 21 0 0 0 4.66-2.02 11.4 11.4 0 0 0 3.5-3.68 13 13 0 0 0 1.36-5.21 39.7 39.7 0 0 0-3.85-21.37 14.4 14.4 0 0 0-11.75-8.72 27 27 0 0 0-5.65.46c-15.1 1.82-30.09 5-44.93 8.28q-4.46.98-8.9 2.02c-2.6.62-5.14 1.08-7.36 2.68-5.03 3.64-6.7 9.6-6.41 15.59.57 11.93 5.92 26.7 19.06 29.4a87 87 0 0 0 5.33.87 2.5 2.5 0 0 0 2.95-1.67 2.4 2.4 0 0 0-1.67-2.96" class="c"/><path d="M48.67 184.36c2.01-3.4 3.37-7.15 5.38-10.55a2.4 2.4 0 0 0-4.15-2.42c-2 3.4-3.36 7.15-5.37 10.55a2.4 2.4 0 1 0 4.14 2.42m-33.21-45.04c11.18 2.58 14.46 14.6 13.66 24.74a2.4 2.4 0 0 0 2.4 2.4 2.45 2.45 0 0 0 2.4-2.4 35 35 0 0 0-3.07-17.98 20.9 20.9 0 0 0-14.11-11.39c-3.01-.7-4.3 3.94-1.28 4.63m44.57-8.53c6.33 1.48 9.64 6.8 11.04 12.8a45 45 0 0 1 1.24 10.71c-.02 2.76.17 6.08-1.99 8.07-2.28 2.1 1.13 5.49 3.4 3.4 2.98-2.75 3.32-6.84 3.38-10.65a53 53 0 0 0-1.4-12.8c-1.76-7.57-6.49-14.3-14.4-16.16-3-.7-4.29 3.93-1.27 4.63M21.1 182.13c1 4.96 2.22 9.94 2.93 14.95.7 4.94.33 9.98 0 14.94a2.4 2.4 0 0 0 4.8 0 77 77 0 0 0-.1-15.73c-.73-5.18-1.97-10.31-3-15.44a2.4 2.4 0 0 0-4.63 1.28" class="c"/><path d="M42.94 182.93a94 94 0 0 0-3.61 26.99c.02 3.09 4.82 3.1 4.8 0a89 89 0 0 1 3.44-25.71c.85-2.98-3.78-4.25-4.63-1.28" class="c"/><path d="M38.62 179.55c-2.67.24-4.95.96-9.57 2.62a19 19 0 0 0-6.74 4.26 22.6 22.6 0 0 0-5.97 8.72c-1.5 3.75-1.3 7.98-.64 11.97s1.78 7.92 2.02 11.96c.25 4.2-.44 8.4-.13 12.59s1.84 8.61 5.37 10.87c3.08 1.97 7.13 1.9 10.56.64a21 21 0 0 0 11.04-10.1 28 28 0 0 0 2.67-7.99l.03-.16a52 52 0 0 0 7.83-2.9 5.6 5.6 0 0 0 2.44-4.35c.22-2.62-1.55-3.28-3.46-4.32a15 15 0 0 0 2.75-.67 5.7 5.7 0 0 0 3.97-4.44c.34-2.55-1.52-5.16-3.6-5.31-6.02-.69-9.8.53-17.4 1.13 6.18-1.25 11.26-2.4 18.22-3.85a5.25 5.25 0 0 0 4.16-4.18 4.7 4.7 0 0 0-1.6-4.26c-1.95-1.2-3.63-1.15-5.73-1.06l-.09-.42c.16-2.32-4.9-10.54-9.5-10.74a52 52 0 0 0-6.63 0" class="b"/><path d="M42.05 206.27c3.32-.35 6.62-.93 9.95-1.1a23 23 0 0 1 4.78.12 2.3 2.3 0 0 1 1.67 2.15 2.8 2.8 0 0 1-1.13 2.3 6 6 0 0 1-.65.4c-.1.07-.65.3-.3.17a13 13 0 0 1-1.9.55c-3.1.68-6.32 1.1-9.46 1.62-2.9.47-5.82.87-8.71 1.45a2.4 2.4 0 0 0 1.27 4.63c2.95-.6 5.94-1 8.9-1.48 2.15-.36 4.28-.78 6.42-1.13a28 28 0 0 0 4.39-.89c3.33-1.11 6.14-4 5.94-7.72A7.6 7.6 0 0 0 60.7 202c-1.67-1.43-3.7-1.57-5.82-1.65-4.3-.17-8.56.66-12.82 1.1a2.47 2.47 0 0 0-2.4 2.4 2.4 2.4 0 0 0 2.4 2.4Z" class="c"/><path d="M31.52 196.02a121 121 0 0 1 24.7-2.94c1.3 0 2.94.15 3.41 1.34a2.4 2.4 0 0 1-.95 2.94c-1.1.74-3.3.96-4.92 1.3l-6.14 1.32a656 656 0 0 1-14.63 2.99 2.4 2.4 0 0 0-1.67 2.95 2.45 2.45 0 0 0 2.95 1.68q7.43-1.42 14.82-3.03l7.26-1.55c2.15-.45 4.1-.84 5.81-2.3 3.62-3.07 3.14-9.41-1.27-11.47-2.18-1.02-4.41-.98-6.76-.9-2.44.08-4.88.17-7.32.39a140 140 0 0 0-16.57 2.65c-3.02.64-1.74 5.27 1.28 4.63" class="c"/><path d="M57.15 190.3a9.4 9.4 0 0 0-1.39-4.42 23 23 0 0 0-3.37-4.75 13 13 0 0 0-4.83-3.48c-1.95-.77-4.31-.6-6.38-.6a34 34 0 0 0-11.45 2.33 25.5 25.5 0 0 0-11.15 7.46 22.7 22.7 0 0 0-5.78 14.66c-.05 5.83 2.05 11.35 2.49 17.12.43 5.68-.86 11.4.5 17.02 1.18 4.86 4.42 9.24 9.48 10.45 5.81 1.38 11.8-1.08 16.1-4.95a27.5 27.5 0 0 0 8.18-15.4 2.46 2.46 0 0 0-1.68-2.96 2.4 2.4 0 0 0-2.95 1.68 24 24 0 0 1-5.59 11.94c-2.67 2.89-6.37 5.18-10.41 5.28-4.2.1-7.08-2.5-8.26-6.4-1.39-4.63-.47-9.53-.49-14.26-.01-5.26-1.56-10.26-2.3-15.42a19 19 0 0 1 2.48-13.15 20.7 20.7 0 0 1 8.45-7.6 95 95 0 0 1 5.16-1.84 35 35 0 0 1 2.24-.62l1.08-.24.52-.1c.1 0 .6-.07.28-.04a37 37 0 0 1 5.72-.1 15 15 0 0 1 1.68.08c-.41-.07.59.2.52.17a8 8 0 0 1 1.8 1.19 17 17 0 0 1 3.27 3.99 20 20 0 0 1 .89 1.66c.18.38 0-.02.08.18q.16.44.28.87c.2.63.04-.28.03.25-.1 3.1 4.7 3.1 4.8 0" class="c"/><path d="M53.81 215.95c.25.13 1.04.43 1.15.7q-.41-.33-.12-.08l.22.22c.3.27-.28-.42.07.14q.17.34-.05-.13l.08.33-.01-.09a4 4 0 0 1-.04.87q.05-.4-.02.02l-.24.8c.18-.56-.07.13-.14.26-.03.06-.3.56-.36.55q.34-.42.1-.13l-.18.2-.36.34c-.28.29.55-.32.1-.08l-.31.18q-.45.24-.9.43c-.37.17.51-.2-.12.05l-.61.24-1.32.48q-1.44.5-2.9.97c-1.66.54-3.35 1.04-5.02 1.59a2.4 2.4 0 1 0 1.28 4.63c3.13-1.02 6.32-1.91 9.4-3.1a12 12 0 0 0 3.88-2.07 8.3 8.3 0 0 0 2.56-5.71c.16-2.69-1.48-4.55-3.7-5.77a2.4 2.4 0 1 0-2.42 4.15Z" class="c"/></svg>
