<svg xmlns="http://www.w3.org/2000/svg" viewBox="0 -68.46 454.8 454.8"><defs><style>.a{fill:#211715}.c{fill:#fff}</style></defs><path d="M0 2.32a75.4 75.4 0 0 0 8.07 34.63 63.4 63.4 0 0 0 21.98 24.06 67 67 0 0 0 17.25 7.76l-1.76-2.31c.05 12.6 3.3 25.3 10.59 35.7a55.5 55.5 0 0 0 28.12 20.75 64 64 0 0 0 21.44 3.1l-2.07-1.18a63.6 63.6 0 0 0 21 22.03 69.6 69.6 0 0 0 30 10.14 83 83 0 0 0 21.67-.64 2.4 2.4 0 0 0 1.68-2.95 2.46 2.46 0 0 0-2.95-1.67c-20.51 3.22-42.63-1.85-57.63-16.74a59 59 0 0 1-9.62-12.6 2.4 2.4 0 0 0-2.08-1.18 56.4 56.4 0 0 1-32.82-9.14 50.3 50.3 0 0 1-19.26-25.41 63 63 0 0 1-3.27-20.2 2.45 2.45 0 0 0-1.76-2.32A60 60 0 0 1 22.35 48.6 61 61 0 0 1 7.27 21.68 75 75 0 0 1 4.8 2.32c0-3.09-4.8-3.1-4.8 0M307.85 157c19.2-.05 38.39-7.13 50.6-22.44a61 61 0 0 0 8.03-13.15l-2.07 1.19c19.16-.07 38.53-4.93 54.32-16.08a84 84 0 0 0 31.09-42.81 106 106 0 0 0 4.98-32.83c0-3.1-4.8-3.1-4.8 0-.03 18.21-4.4 36.47-14.55 51.74a77.5 77.5 0 0 1-39.63 30.17 99 99 0 0 1-31.4 5 2.4 2.4 0 0 0-2.08 1.2 55.4 55.4 0 0 1-15.21 20.25 56.5 56.5 0 0 1-23.09 11.16 71 71 0 0 1-16.19 1.8c-3.09 0-3.1 4.8 0 4.8" class="a"/><path d="M204.86 271.53c-12.52 2.62-20.98-7.05-21.22-14.26a84 84 0 0 1 1.82-18.08c1.7-7.22 2.6-19.83 1.88-37.23-1.93-25.64 4.05-44.54 14.27-55.17 6.16-6.42 20.28-15.39 36.53-16.07a59 59 0 0 1 23.77 3.54l3.67 1.3 3.72 1.98c3.2 1.7 4.39 3.23 7.74 6.19 8.42 7.42 14.63 21.14 16.05 33.6.41 3.6 1.28 12.2 1.34 19.47a135 135 0 0 0 6.73 36.73c2.36 6.93 5.53 15.84 3.58 22.9-2.39 8.6-11.98 14.25-20.63 11.57Z" style="fill:#a98a75"/><path d="M260.63 174.62c-1.48-3.6-3-8.18-4.2-12.1a55 55 0 0 1-26.6 21.11 4 4 0 0 1-2.3.2c-.87-.37-1.13-.75-1.1-1.9.06-2.82 1-7.53 1.2-10.28-9 9.61-19.04 19.9-27.85 27.03a6.6 6.6 0 0 0-4.07-1.02 6 6 0 0 0-5.25 3.19c-1.7 3.23-1.4 9.06-.04 12.62.96 2.53 2.53 6.38 6.07 9.05a7 7 0 0 0 5.98 1.26 49 49 0 0 0 9.97 17.18 38 38 0 0 0 11.83 9.25 62 62 0 0 1-.05 7.19 8.4 8.4 0 0 1-3.27 4.94c-2.57 1.56-6.34 2.47-9.45 3.4 6.1 6.49 20.21 10.15 33.52 9.68 13.04-.54 25.62-4.56 32.32-11.8l.11-.12c-3.6-.62-8.09-1.75-10.32-3.24a6.6 6.6 0 0 1-3.04-4.02 40 40 0 0 1-.97-7.5c9.48-5.6 16.6-19.03 17.84-22.85a42 42 0 0 0 1.7-5.18l.52.06a7 7 0 0 0 5.41-1.79c3.32-2.93 4.6-6.9 5.36-9.49 1.09-3.65.94-9.49-1-12.58a6 6 0 0 0-5.49-2.78 6.4 6.4 0 0 0-4.61 1.92c-7.06-1.74-15.26-8.76-20.25-17.31a35 35 0 0 1-1.97-4.12" class="c"/><path d="M292.03 196.8a140 140 0 0 0 6.81 37.37c1.8 5.29 3.85 10.74 4.08 16.37a14.7 14.7 0 0 1-4.86 12.07 14.1 14.1 0 0 1-13.32 3.07c-2.96-.88-4.23 3.75-1.27 4.63 10.2 3.03 21.78-3.88 23.85-14.38 1.19-6.04-.35-12.27-2.18-18.03-1.95-6.17-4.05-12.22-5.4-18.56a147 147 0 0 1-2.9-22.54c-.18-3.07-4.98-3.1-4.8 0Z" class="a"/><path d="M268.08 139.61a22 22 0 0 1 4.48 3.27c1.57 1.45 3.21 2.84 4.7 4.37a44 44 0 0 1 7.2 10.26 63 63 0 0 1 6.64 23.7c.5 5.18.88 10.38.94 15.6.03 3.08 4.83 3.1 4.8 0-.06-4.86-.4-9.72-.84-14.56a87 87 0 0 0-1.76-12.17 58.4 58.4 0 0 0-12.48-25.02 75 75 0 0 0-5.54-5.32 29 29 0 0 0-5.71-4.26c-2.72-1.47-5.14 2.67-2.42 4.14Zm-5.53-7.67a63 63 0 0 0-26.58-3.48 60 60 0 0 0-25.74 8.62 47 47 0 0 0-14.85 13.62 59 59 0 0 0-8.46 20.14 104 104 0 0 0-1.98 31.12 2.46 2.46 0 0 0 2.4 2.4 2.4 2.4 0 0 0 2.4-2.4c-1.15-15.6.03-32.66 8.23-46.4 7.23-12.12 21.38-19.8 35.24-21.97a58 58 0 0 1 28.07 2.98 2.4 2.4 0 0 0 1.27-4.63" class="a"/><path d="M184.94 201.96c.29 7.17.37 14.36.01 21.54a87 87 0 0 1-1.61 14.2 87 87 0 0 0-2.12 18.15 17.6 17.6 0 0 0 5.6 12.95 20.7 20.7 0 0 0 18.68 5.04 2.4 2.4 0 0 0 1.67-2.95 2.45 2.45 0 0 0-2.95-1.68 15.7 15.7 0 0 1-13.9-3.7 14 14 0 0 1-3.51-4.95 15 15 0 0 1-.71-2.54c-.13-.75.02.46-.03-.3l-.03-.46q-.05-1.12-.01-2.25a86 86 0 0 1 1.98-16.25 96 96 0 0 0 1.69-14.2c.43-7.52.34-15.07.04-22.6-.13-3.08-4.93-3.1-4.8 0" class="a"/><path d="M164.44 315.49c2.28-10.78 6.18-22.63 10.94-29.8 8.18-12.32 21.95-15.47 35.9-20.2 5.97 6.65 20.26 10.41 33.74 9.94 13.46-.56 26.44-4.83 32.96-12.53 14.72 4.19 25.23 8.08 33.52 16.23 5.88 6.47 12.59 19.54 15.43 36.35Z" style="fill:#f8b8b4"/><path d="M166.76 316.12a128 128 0 0 1 4.4-15.84 61 61 0 0 1 6.02-12.94c4.95-7.68 12.98-11.98 21.34-15.04 5.07-1.85 10.25-3.38 15.35-5.17a2.46 2.46 0 0 0 1.67-2.95 2.4 2.4 0 0 0-2.95-1.68c-9.27 3.25-19.1 5.62-27.54 10.8a38 38 0 0 0-10.73 9.76 56 56 0 0 0-6.84 13.34 123 123 0 0 0-5.35 18.45c-.64 3.01 3.99 4.3 4.63 1.28Zm110-51.07c9.72 2.75 19.75 5.7 28.1 11.6a32 32 0 0 1 8.2 8.39 66 66 0 0 1 6.25 12 94 94 0 0 1 5.3 19.08 2.4 2.4 0 0 0 2.96 1.68 2.46 2.46 0 0 0 1.68-2.95c-1.87-10.9-5.43-21.85-11.39-31.22a37 37 0 0 0-8.48-9.54 57 57 0 0 0-12.88-7.46 155 155 0 0 0-18.47-6.21c-2.97-.85-4.24 3.78-1.27 4.63m-74.63-67.56a9.4 9.4 0 0 0-10.3-1.23 9 9 0 0 0-4.56 6.53 23.4 23.4 0 0 0 4.25 18.02c2.71 3.63 6.45 6.2 11.14 5.4a2.4 2.4 0 0 0 1.68-2.95 2.46 2.46 0 0 0-2.95-1.68c-3.02.52-5.48-2.58-6.83-4.85a20 20 0 0 1-2.74-7.59c-.3-2.43-.36-5.5 1.03-7.62.3-.46-.1.07.23-.28.04-.05.5-.48.29-.3a4 4 0 0 1 1.6-.74 4.3 4.3 0 0 1 3.77.69 2.47 2.47 0 0 0 3.4 0 2.4 2.4 0 0 0 0-3.4Zm82.44.22a4.4 4.4 0 0 1 3.78-1.13 3.4 3.4 0 0 1 2.48 1.44c-.24-.3-.06-.08.04.1q.24.4.44.8a10 10 0 0 1 .6 1.98 17 17 0 0 1 .3 4.52 20 20 0 0 1-2.05 7.48c-1.36 2.76-3.55 5.8-6.98 5.47a2.4 2.4 0 0 0-2.4 2.4 2.45 2.45 0 0 0 2.4 2.4c7.37.69 11.56-7.33 13.18-13.34a22 22 0 0 0 .21-10.03 10 10 0 0 0-4.26-6.82 9.4 9.4 0 0 0-11.13 1.34c-2.23 2.15 1.17 5.54 3.39 3.4Z" class="a"/><path d="M281 217.01a40 40 0 0 1-1.31 5.33c-.43 1.39-.8 2.32-1.18 3.31l-.17.46c-.17.45-.01.03-.03.09a49 49 0 0 1-2.07 4.13 51 51 0 0 1-10.5 13.53 20 20 0 0 1-7.92 4.56c-2.97.82-1.7 5.45 1.28 4.63 6.27-1.71 11.35-6.44 15.3-11.41a58 58 0 0 0 8.45-13.97q.21-.5.4-1.03c-.24.7.25-.65.34-.88q.21-.56.4-1.14a41 41 0 0 0 1.64-6.33 2.47 2.47 0 0 0-1.68-2.95A2.4 2.4 0 0 0 281 217m-81.78 4.28c4.2 15.72 16.6 31.86 33.72 33.74a2.4 2.4 0 0 0 2.4-2.4 2.46 2.46 0 0 0-2.4-2.4c-7.44-.82-13.58-5.26-18.5-10.64a47 47 0 0 1-10.6-19.58c-.8-2.98-5.43-1.72-4.62 1.28m40.14 11.23.9-.5a4 4 0 0 0 .55-.25c-.38.3-.35.15-.06.04l.35-.13a13 13 0 0 1 1.79-.47l.6-.1c-.36.06-.05 0 .14-.01q.68-.07 1.36-.1a18 18 0 0 1 2.46.07c.26.02.4.06.05 0l.55.1q.4.08.81.19c.41.11.51.16.76.25.45.15-.13 0-.15-.07l.32.14a6 6 0 0 1 .86.52 2.4 2.4 0 0 0 3.29-.86 2.47 2.47 0 0 0-.86-3.28c-2.26-1.62-5.4-1.96-8.09-1.86a17 17 0 0 0-8.05 2.18 2.4 2.4 0 1 0 2.42 4.14m3.73-20.92q.3 1.02.57 2.04a18 18 0 0 1 .5 2.17l-.08-.63a2 2 0 0 1 0 .43l.1-.63-.07.26.24-.57-.1.16.37-.48-.09.09.49-.38-.4.23.57-.24a2 2 0 0 1-.53.15l.64-.09a2 2 0 0 1-.56 0l.64.09q-.55-.09-1.1-.15a2.4 2.4 0 0 0-1.7.7 2.4 2.4 0 0 0 0 3.4 2.7 2.7 0 0 0 1.7.7h.1l-.64-.08a9 9 0 0 0 1.37.16 5 5 0 0 0 2.1-.58 3.1 3.1 0 0 0 1.58-2.03 5 5 0 0 0-.07-2.18 45 45 0 0 0-1-3.82 2.5 2.5 0 0 0-1.1-1.43 2.4 2.4 0 0 0-3.52 2.7Zm-21.74-10.75c-.6 2.25.04 7.33 4.26 7.6 5.55-.24 5.61-6.42 3.63-9.25-1.62-2.32-6.16-3.13-7.9 1.65m44.47-1.7c.77 2.18.52 7.3-3.66 7.9-5.56.18-6.1-5.98-4.33-8.95 1.44-2.43 5.9-3.6 8 1.04m-45.58-11.66a10 10 0 0 1-1.25 1.11l.48-.38a15 15 0 0 1-3.26 2.05l.58-.24-.35.13a2.5 2.5 0 0 0-1.43 1.1 2.4 2.4 0 0 0 .86 3.28 2.5 2.5 0 0 0 1.85.24 8 8 0 0 0 1.62-.7q.74-.42 1.43-.9.95-.65 1.83-1.36a9 9 0 0 0 1.04-.94 2.5 2.5 0 0 0 .7-1.7 2.4 2.4 0 0 0-.7-1.7 2.4 2.4 0 0 0-3.4 0Z" class="a"/><path d="M221.88 250.18a69 69 0 0 1 0 6.66l-.04.43c.11-.7-.1.15-.15.29a7 7 0 0 1-1.4 2.24 5 5 0 0 1-.52.47c.4-.3-.34.18-.42.22q-.6.35-1.26.63-.4.17-.1.05l-.46.18a30 30 0 0 1-2.42.83c-2.1.65-4.23 1.18-6.3 1.9a2.46 2.46 0 0 0-1.69 2.96 2.4 2.4 0 0 0 2.96 1.67c2.32-.81 4.71-1.37 7.05-2.14 2.35-.77 5-1.67 6.71-3.55a10.6 10.6 0 0 0 2.87-6.87q.13-2.99-.03-5.97a2.45 2.45 0 0 0-2.4-2.4 2.4 2.4 0 0 0-2.4 2.4m58.1 11.3-.15-.02-.64-.09-1.46-.24q-1.46-.27-2.9-.6a41 41 0 0 1-4.34-1.27l-.63-.25c.38.16-.08-.03-.2-.1a11 11 0 0 1-1.02-.54l-.49-.31c-.57-.37.26.26-.26-.2q-.27-.24-.53-.5s-.48-.54-.26-.25a3 3 0 0 1-.56-1 32 32 0 0 1-.99-6.92 2.45 2.45 0 0 0-2.4-2.4 2.4 2.4 0 0 0-2.4 2.4 32 32 0 0 0 1.25 8.44 9.8 9.8 0 0 0 4.88 5.25c4 2.03 8.68 2.84 13.1 3.4a2.4 2.4 0 0 0 2.4-2.4 2.46 2.46 0 0 0-2.4-2.4" class="a"/><path d="M210.19 267.83c6.65 6.48 16.85 8.8 25.78 9.7a64.6 64.6 0 0 0 30.43-4.01 35 35 0 0 0 12.64-8.2c2.11-2.26-1.28-5.66-3.4-3.4-5.8 6.2-14.53 8.98-22.7 10.32a62 62 0 0 1-28.28-1.82c-4-1.25-8.05-3.03-11.08-5.98-2.21-2.16-5.6 1.23-3.4 3.4Zm44.07-104.18a134 134 0 0 0 4.08 11.65 41 41 0 0 0 5.63 9.7c4.54 5.85 10.73 11.34 18.03 13.31 2.98.8 4.26-3.82 1.27-4.63-6.36-1.71-11.8-6.72-15.72-11.84-4.4-5.75-6.55-12.63-8.66-19.46-.91-2.95-5.55-1.7-4.63 1.27" class="a"/><path d="M254.32 161.36a54 54 0 0 1-16.8 15.95 54 54 0 0 1-5.22 2.73q-1.34.62-2.73 1.14a5 5 0 0 0-1.11.35q-.36-.04.02.1a3 3 0 0 1 .34.59c-.35-.2.34-3.89.44-4.62.28-1.98.61-3.95.78-5.94.17-2.1-2.74-3.15-4.1-1.7-7.34 7.83-14.8 15.58-22.8 22.72-2.31 2.07 1.1 5.45 3.4 3.4 8-7.15 15.46-14.9 22.8-22.73l-4.1-1.7c-.28 3.29-1.05 6.53-1.2 9.83-.08 1.85.44 3.45 2.15 4.36 1.94 1.03 4.09.21 5.95-.55a58 58 0 0 0 18.28-11.88 62 62 0 0 0 8.04-9.63c1.75-2.56-2.41-4.97-4.14-2.43Z" class="a"/><path d="M201.9 266a27 27 0 0 1 4.7-9.21 40 40 0 0 1 5.9-6.49 17 17 0 0 1 8.67-3.33 70 70 0 0 1 14.14-.42 3.8 3.8 0 0 1 3.63 3.77 3.7 3.7 0 0 1-3.14 3.45c-2.15.34-5.12.43-8.7 1.08-4.08.74-4.2 1.12-6.21 3l-.19.28c4.02-.08 8.8.15 10.92 1.12.8.37 3.7 2.05 4.42 2.55 3.4 2.35 5.16 4.05 6.21 6.24a5 5 0 0 1-.2 3.69c-.43.85-1.83 1.96-4.05 1.26a4.7 4.7 0 0 1 1.4 4.56 4.4 4.4 0 0 1-4.09 3.14c.9.85.41 3.12-.29 4.1-.73 1.03-2.81 1.11-3.9.72a18 18 0 0 0-2.82-.9l-.1.5c-.21 1.11-.65 3.7-1 4.77-1.01 3.14-2.45 6.61-5.32 8.3a47 47 0 0 1-4.38 1.76c-1.24.58-2.35 3.41-3 5.4a.1.1 0 0 1-.1.06c-6.23-2.05-13.52-4.54-19.35-6.42a.75.75 0 0 1-.48-.97c.96-2.69 1.58-4.14 2.18-5.92a85 85 0 0 0 2-9.05c1.17-8 1.54-11.14 2.59-15.14q.28-1 .57-1.9" class="c"/><path d="M215.9 260.8a60 60 0 0 1 8.44-.25 33 33 0 0 1 4.12.33 21 21 0 0 1 2.08.5l.63.34a30 30 0 0 1 7.15 4.95c.75.75 1.77 1.8 1.8 2.84a3 3 0 0 1-.16.98c-.13.47.14-.08-.05.13a.4.4 0 0 1-.19.13 1.6 1.6 0 0 1-.84 0c-3.01-.66-4.3 3.97-1.28 4.63 3.89.84 6.92-1.37 7.28-5.31.3-3.35-2.24-6.15-4.66-8.12a38 38 0 0 0-7.1-4.63 20 20 0 0 0-7.77-1.53 60 60 0 0 0-9.45.22 2.47 2.47 0 0 0-2.4 2.4 2.4 2.4 0 0 0 2.4 2.4" class="a"/><path d="M221.68 269.07a19 19 0 0 1 6.86 1.22l1.14.49q.74.33 1.47.7a42 42 0 0 1 4.25 2.48l.4.28c-.2-.15.26.21.3.26a3 3 0 0 1 .74.84 2 2 0 0 1 .29.8v.58c.04-.23-.11.4-.1.43l.07-.18-.13.25c-.04.06-.38.54-.2.32s-.26.24-.32.29q-.18.16.05-.03l-.3.18a3 3 0 0 1-.88.3 2.47 2.47 0 0 0-2.4 2.4 2.4 2.4 0 0 0 2.4 2.4c2.87-.28 5.64-1.94 6.4-4.9.87-3.35-.9-6.18-3.52-8.1a28.7 28.7 0 0 0-16.52-5.8c-3.09-.02-3.1 4.78 0 4.8Z" class="a"/><path d="M223.28 277.88c.09 0 .48.06.02 0l.32.04.75.12q.8.14 1.57.33.72.17 1.43.4.36.11.7.24l.3.12c.17.06.46.2.15.05a25 25 0 0 1 4.75 2.93l.34.27c.1.04.36.54-.15-.2.04.06.16.3-.02-.06s-.04-.09-.02.03l-.04-.3a2 2 0 0 0 0 .6c0 .37-.09-.12.03-.17l-.04.23-.14.53-.07.21c-.07.3.24-.42.07-.17-.07.1-.37.58-.1.26.24-.3.08-.1.02-.05-.28.29.13-.13.17-.12l-.18.1c-.27.14.47-.12.17-.07q-.26.05-.52.13c-.07.02-.35.06.01 0 .4-.07-.08-.01-.15 0-.17 0-.36-.04-.53-.02-.24.02.25.03.27.04l-.27-.05a7 7 0 0 1-.87-.3 14 14 0 0 0-3.49-.87 6 6 0 0 0-3.69.97 2.4 2.4 0 1 0 2.42 4.14q.16-.08.33-.2c.38-.24 0-.04-.05 0a4 4 0 0 1 .68-.2c.02.1-.63-.03-.2.05.12.02.28.02.4.03-.1-.01-.46-.1-.01 0l.5.12c.88.22 1.7.62 2.57.86 2.24.6 5.07.1 6.4-1.95 1.14-1.73 1.57-4.48.42-6.3a7 7 0 0 0-1.76-1.61l-1.47-1.08a22 22 0 0 0-2.65-1.59 25 25 0 0 0-8.38-2.3 2.4 2.4 0 0 0-2.4 2.4 2.47 2.47 0 0 0 2.4 2.4Z" class="a"/><path d="M204.54 255.58c-7.44 9.7-6.63 22.36-9.55 33.65a40 40 0 0 1-1.18 3.95 29 29 0 0 0-1.6 4.5c-.49 2.58 1.72 3.46 3.71 4.1q2.64.86 5.27 1.74l10.95 3.66c1.05.35 2.08.85 3.17.41a3.2 3.2 0 0 0 1.72-2.26 17 17 0 0 1 .82-2q.23-.46.5-.9c.05-.08.37-.47.16-.3a11 11 0 0 1 2.65-1 12 12 0 0 0 2.8-1.48 13 13 0 0 0 3.6-4.34 33 33 0 0 0 2.95-9.56 2.46 2.46 0 0 0-1.68-2.95 2.4 2.4 0 0 0-2.95 1.67c-.7 3.73-1.37 8.22-4.3 10.95-1.74 1.62-4.42 1.5-6.17 3.08-1.72 1.53-2.52 4.1-3.24 6.2l1.1-1.42-.1.05 1.85-.25q-4.91-1.61-9.82-3.27l-4.81-1.6-2.41-.8a12 12 0 0 1-2-.65l.87.86-.01.06v1.27c.25-1.79 1.3-3.64 1.91-5.35a50 50 0 0 0 1.37-5.08c1-4.14 1.43-8.4 2.07-12.6.99-6.4 2.48-12.68 6.5-17.92a2.4 2.4 0 0 0-.87-3.28 2.46 2.46 0 0 0-3.28.86" class="a"/><path d="M208.68 258a40 40 0 0 1 3.77-4.37 12 12 0 0 1 3.85-2.88c3.71-1.72 8.17-1.84 12.2-1.95q2.62-.07 5.24.06c1.06.05 2.4-.15 2.77 1.03.34 1.09-.84 1.5-1.64 1.61-1.88.27-3.84.37-5.74.63a25 25 0 0 0-6.36 1.38 12 12 0 0 0-3.58 2.64c-2.26 2.12 1.14 5.5 3.4 3.4l.87-.82c.1-.09.84-.68.4-.37a6 6 0 0 1 .66-.4c.39-.21.11-.06.02-.02a7 7 0 0 1 .73-.24 40 40 0 0 1 6.92-1.12c2.05-.21 4.38-.16 6.2-1.25a6 6 0 0 0 2.8-6.36 6.2 6.2 0 0 0-4.43-4.6 23 23 0 0 0-5.88-.4c-4.88-.03-10.28.1-14.91 1.77-4.98 1.79-8.34 5.72-11.43 9.84a2.4 2.4 0 0 0 .86 3.28 2.46 2.46 0 0 0 3.28-.86" class="a"/></svg>
