<svg xmlns="http://www.w3.org/2000/svg" viewBox="-55.09 0 320.122 320.122"><defs><style>.b{fill:#fff}.c{fill:#211715}.e{fill:#febe69}</style></defs><path d="M56.6 162.12c-14.46 2.4-23.68-9.08-23.62-17.35a97 97 0 0 1 2.95-20.62c2.3-8.19 3.93-22.59 3.93-42.56-.98-29.46 6.77-50.82 18.99-62.52 7.36-7.05 23.96-16.66 42.6-16.66a68 68 0 0 1 27.07 5.19l8.3 4.11c3.6 2.1 4.88 3.91 8.58 7.46 9.3 8.9 15.75 24.92 16.78 39.27.3 4.14.88 14.02.6 22.36a155 155 0 0 0 5.96 42.4c2.38 8.05 5.58 18.4 3 26.4-3.14 9.75-14.4 15.75-24.18 12.27Z" style="fill:#a98a75"/><path d="M60.42 73.62c8.84-7.24 18.35-16.27 27.05-24.82-.37 3.13-1.66 8.48-1.87 11.72-.09 1.3.19 1.75 1.18 2.22a4.5 4.5 0 0 0 2.63-.12 63 63 0 0 0 31.48-22.91c1.72 6.62 4.16 14.86 6.3 18.87 5.26 9.94 14.19 18.3 22.13 20.73a7.4 7.4 0 0 1 5.34-1.93 6.8 6.8 0 0 1 6.13 3.44c2.07 3.63 1.96 10.3.54 14.43-1 2.92-2.65 7.39-6.58 10.58a8 8 0 0 1-6.27 1.78l-.6-.1a48 48 0 0 1-2.18 5.85c-1.59 4.25-10.21 19-21.14 25.05.04 2.28-.03 3.1.18 5.97a14 14 0 0 0 .67 3.94 9.6 9.6 0 0 0 2.89 4.2c2.93 2.37 5.95 3.5 9.67 4.9l3.87 1.52c-9.8 6.69-25.99 10.45-39.72 10.76-13.54-.31-29.53-3.97-39.35-10.5l4.54-1.79c3.71-1.4 6.73-2.52 9.67-4.89a9.6 9.6 0 0 0 2.88-4.2 14 14 0 0 0 .68-3.94c.2-2.66.14-3.56.17-5.5-5.1-2.46-9.69-6.37-14.04-11.62a56 56 0 0 1-10.57-20.12 8 8 0 0 1-6.77-1.72c-3.91-3.22-5.52-7.7-6.5-10.63-1.4-4.14-1.45-10.81.65-14.43a6.8 6.8 0 0 1 6.16-3.39 7.5 7.5 0 0 1 4.69 1.43q2.97-2.22 6.09-4.78" class="b"/><path d="M146.46 103.42a45 45 0 0 1-1.72 5.91c-.53 1.48-.96 2.4-1.52 3.78-.11.28.21-.48.08-.2l-.12.28-.27.58q-.35.72-.73 1.43-.87 1.63-1.85 3.22a59 59 0 0 1-12.7 15.03 23.4 23.4 0 0 1-9.5 4.89c-3 .68-1.73 5.31 1.28 4.63 7.18-1.63 13.17-6.86 17.87-12.28a64 64 0 0 0 10.05-15.08l.44-1.04a51 51 0 0 0 1.23-2.98 47 47 0 0 0 2.09-6.9c.63-3.01-4-4.3-4.63-1.28Zm-93.6.74a59 59 0 0 0 8.33 19.73c4.25 6.4 9.83 12.42 16.6 16.19a33 33 0 0 0 11.1 3.81 2.5 2.5 0 0 0 2.95-1.67 2.4 2.4 0 0 0-1.67-2.95c-13.9-2.11-24.25-14.14-29.53-26.49a56 56 0 0 1-3.15-9.9c-.67-3.01-5.3-1.74-4.63 1.28M93.2 118.8a19 19 0 0 0 9.25 2.18 15 15 0 0 0 9.35-2.73 2.4 2.4 0 0 0 0-3.4 2.46 2.46 0 0 0-3.4 0c.73-.56.16-.12-.03 0l-.57.32-.3.15c-.4.2.09-.02.09-.03a4 4 0 0 1-.8.29 13 13 0 0 1-2.2.5c.35-.05-.08 0-.22.01l-.65.05a22 22 0 0 1-3.62-.07c-.79-.07.42.08-.31-.04a17 17 0 0 1-2.06-.47q-.44-.13-.86-.29c-.61-.21.35.19-.2-.08q-.52-.25-1.05-.53a2.4 2.4 0 1 0-2.42 4.15Zm8.12-21.77a44 44 0 0 1 1 4.69l-.09-.64a3 3 0 0 1 .02.64l.08-.64-.07.3.24-.58-.1.19.38-.49-.16.15.49-.37-.37.2.57-.25a3 3 0 0 1-.62.18l.63-.09a3 3 0 0 1-.58 0l.64.09-.66-.12a2.7 2.7 0 0 0-1.85.24 2.4 2.4 0 0 0-.86 3.29 2.3 2.3 0 0 0 1.43 1.1c.5.07 1 .2 1.5.22a5 5 0 0 0 2.22-.52 3.2 3.2 0 0 0 1.77-2.11 5 5 0 0 0-.02-2.27c-.24-1.5-.59-3-.97-4.48a2.4 2.4 0 0 0-4.63 1.27ZM76.62 83.7c-.79 2.54-.3 8.38 4.5 8.9 6.36-.02 6.73-7.08 4.6-10.4-1.74-2.73-6.89-3.88-9.1 1.5m50.9.2c.78 2.54.25 8.38-4.57 8.86-6.35-.07-6.66-7.13-4.51-10.44 1.76-2.71 6.92-3.82 9.09 1.58" class="c"/><path d="M151 81a5.34 5.34 0 0 1 7.47.6c-.33-.41.06.12.12.22q.22.37.4.75a11 11 0 0 1 .68 2.26 20 20 0 0 1 .24 5.28 23 23 0 0 1-2.68 8.8c-1.5 2.84-4.39 6.92-8.12 6.4a2.5 2.5 0 0 0-2.95 1.67 2.4 2.4 0 0 0 1.67 2.95c8.61 1.2 13.65-7.25 15.91-14.34a25 25 0 0 0 .68-11.33 11 11 0 0 0-4.43-7.7 10.35 10.35 0 0 0-12.38 1.05c-2.3 2.07 1.1 5.46 3.4 3.4m-94.34-3.75a10.4 10.4 0 0 0-11.37-1.69 10 10 0 0 0-5.14 6.69c-1.86 6.8-.14 14.69 3.69 20.53 2.58 3.94 6.71 7.54 11.75 6.88a2.5 2.5 0 0 0 2.4-2.4c0-1.17-1.1-2.58-2.4-2.4-4.04.53-6.8-2.85-8.54-6.08a23 23 0 0 1-2.75-8.95 20 20 0 0 1 .27-5.46 12 12 0 0 1 .57-1.98 7 7 0 0 1 .5-.95c.05-.1.5-.71.16-.28a5.36 5.36 0 0 1 7.47-.52c2.28 2.08 5.68-1.3 3.4-3.4" class="c"/><path d="M118.72 40.92c1.72 6.53 3.43 13.46 6.69 19.43a52 52 0 0 0 14 16.35 31 31 0 0 0 9.26 4.93c2.96.92 4.22-3.7 1.28-4.63-7.24-2.28-13.31-8.38-17.55-14.46-4.78-6.87-6.94-14.9-9.05-22.9-.8-2.98-5.42-1.71-4.63 1.28" class="c"/><path d="M118.77 38.56a62 62 0 0 1-15.25 14.58 62 62 0 0 1-9.39 5.15 55 55 0 0 1-4.97 1.9 6 6 0 0 1-1.1.3h-.36c-.47.18.01-.2.04.08.02.19.17.76.25.48a9 9 0 0 0 .07-1.27c.37-3.69 1.36-7.3 1.81-10.98.27-2.16-2.74-3.02-4.1-1.7C77 55.72 68.1 64.25 58.57 72.05a2.4 2.4 0 0 0 0 3.4 2.46 2.46 0 0 0 3.4 0c9.51-7.8 18.42-16.33 27.2-24.95l-4.1-1.7c-.42 3.42-1.45 7.33-1.81 10.97-.2 2.07.23 3.92 2.17 4.98 2.07 1.12 4.47.28 6.5-.46a66 66 0 0 0 21.39-12.71 71 71 0 0 0 9.6-10.6 2.4 2.4 0 0 0-.86-3.28 2.46 2.46 0 0 0-3.29.86m41.62 42.24a162 162 0 0 0 6.25 43.77c1.8 6.05 3.73 12.29 3.65 18.66a17 17 0 0 1-6.5 13.6 16.6 16.6 0 0 1-15.59 2.72c-2.93-1-4.18 3.63-1.27 4.63 11.35 3.92 24.53-3.46 27.45-15.05 1.72-6.83.16-14.14-1.65-20.78-1.95-7.13-4.05-14.13-5.3-21.43a169 169 0 0 1-2.24-26.12c-.05-3.09-4.85-3.1-4.8 0" class="c"/><path d="M135.61 13.79a26 26 0 0 1 5.11 4.12c1.73 1.73 3.55 3.4 5.17 5.23a52 52 0 0 1 7.8 12.28 68 68 0 0 1 4.84 14.48 81 81 0 0 1 1.53 12.93c.33 5.98.51 11.98.33 17.96-.1 3.1 4.7 3.09 4.8 0 .17-5.58.02-11.17-.27-16.75A98 98 0 0 0 163.44 50c-2.04-10.37-6.31-20.63-13-28.88a85 85 0 0 0-6.07-6.35 32 32 0 0 0-6.34-5.13c-2.66-1.59-5.07 2.56-2.42 4.14Zm-6.45-8.5A72 72 0 0 0 99.03.07a68.6 68.6 0 0 0-30.3 8.95A53 53 0 0 0 51.4 24.05a68 68 0 0 0-10.3 22.33C37.98 57.8 37.08 69.8 37.46 81.6c.1 3.08 4.9 3.1 4.8 0-.57-17.85 1.62-37.15 11.49-52.5a46 46 0 0 1 14.72-14.33 65 65 0 0 1 26.86-9.6 67.5 67.5 0 0 1 32.56 4.76 2.4 2.4 0 0 0 2.95-1.68 2.46 2.46 0 0 0-1.68-2.95Z" class="c"/><path d="M37.46 81.6c0 8.27-.25 16.56-1.02 24.8a102 102 0 0 1-2.57 16.17 100 100 0 0 0-3.24 20.63 19.8 19.8 0 0 0 5.85 14.84c5.46 5.6 13.16 7.6 20.77 6.4a2.4 2.4 0 0 0 1.67-2.95 2.46 2.46 0 0 0-2.95-1.68 18.4 18.4 0 0 1-15.68-4.75 18 18 0 0 1-3.92-5.64 15 15 0 0 1-.9-3.21c-.07-.4-.02.11-.05-.41l-.04-.8q0-1.07.06-2.14a96 96 0 0 1 3.09-19.12 107 107 0 0 0 2.57-15.92 264 264 0 0 0 1.16-26.23c0-3.09-4.8-3.09-4.8 0Zm40.84 58.09q.01 1.83-.1 3.66a14 14 0 0 1-.65 4.34c-1.07 2.7-3.5 4.2-6.05 5.44-3.18 1.55-6.63 2.68-9.93 3.98a2.47 2.47 0 0 0-1.67 2.95 2.4 2.4 0 0 0 2.95 1.68c3.96-1.56 8.14-2.89 11.9-4.88a20 20 0 0 0 4.39-3.04 12.5 12.5 0 0 0 2.92-4.57c1.16-2.92 1.02-6.45 1.04-9.56.01-3.1-4.79-3.1-4.8 0m43.87 0c.01 3.1-.13 6.64 1.03 9.56a12.5 12.5 0 0 0 2.93 4.57 20 20 0 0 0 4.39 3.04c3.75 2 7.93 3.32 11.9 4.88a2.4 2.4 0 0 0 2.95-1.68 2.46 2.46 0 0 0-1.68-2.95c-3.3-1.3-6.74-2.43-9.92-3.98-2.54-1.24-5-2.73-6.06-5.44a14 14 0 0 1-.65-4.34 73 73 0 0 1-.1-3.66c-.01-3.09-4.81-3.1-4.8 0Z" class="c"/><path d="M42.59 166.8a226 226 0 0 1 18.92-8.49c9.66 7.1 26.47 11.07 40.6 11.4 13.71-.32 29.88-4.07 39.68-10.74l.6.23a174 174 0 0 1 27.77 12.62 59 59 0 0 1 18.43 16.8 92 92 0 0 1 10.1 19.8c3.91 11.64 6.56 41.4 7.88 57.74.53 6.68.95 13.36.95 20.06 0 8.74-2.17 20.6-13.42 26.28-5.65 2.85-13.97 2.16-19.87.52a50 50 0 0 1-9.65-3.9c0 2.45-.01 4.91-.07 7.26a1.14 1.14 0 0 1-1.36 1.24c-10.17 0-117.34.13-122.17.1a1.2 1.2 0 0 1-1.12-.55 6 6 0 0 1-.17-1.5 30 30 0 0 1-12.57 1.16C10.3 314.8 5.62 299.74 4.61 295.8c-2.7-10.44-2.71-23.96-1.15-40.26a251 251 0 0 1 8.33-46.09c4.17-15.56 10.87-30.06 24.41-39a72 72 0 0 1 6.38-3.65" style="fill:#f8b8b4"/><path d="M61.44 161.2c9.22 6.12 20.63 8.88 31.48 10.22a72 72 0 0 0 16.78.19 97 97 0 0 0 17.17-3.35A58 58 0 0 0 143.1 161c2.54-1.73.14-5.89-2.43-4.15-8.53 5.78-19.23 8.53-29.34 9.78a72 72 0 0 1-15.98.27 90 90 0 0 1-15.92-3.02 55 55 0 0 1-15.57-6.82c-2.58-1.7-4.99 2.45-2.43 4.15m100.75 145.65q.01 3.94-.04 7.9a5 5 0 0 0-.04 1.63c.66 1.22.44-1.39 1.05-1.16h-.1a2 2 0 0 0-.51 0h-11.76l-28.72.03-34.3.04-30.23.02q-8.03.02-16.05 0h-.3c-.4.07-.05-.35.38.15l.61 1.06c-.18-.45 0 .45-.06-.28l-.02-.58c-.04-3.09-4.84-3.1-4.8 0a7 7 0 0 0 .25 2.14A3.6 3.6 0 0 0 41 320.1h11.9q14.74 0 29.47-.02l35.73-.04 30.84-.03h14.22a4 4 0 0 0 2.99-1.34 6 6 0 0 0 .8-3.7q.06-4.06.05-8.14c0-3.08-4.8-3.09-4.8 0Z" class="c"/><path d="M139.3 160.56c13.76 5.36 28.58 10.5 39.64 20.7a62 62 0 0 1 12.44 16.66 67 67 0 0 1 6.64 17.32c2.84 13.06 4 26.53 5.2 39.82a505 505 0 0 1 1.69 22.34c.31 6.87.67 13.75-1.4 20.28-1.83 5.76-6 11.23-11.89 13.28-6.7 2.34-14.43.8-20.88-1.65a37 37 0 0 1-4.94-2.27c-2.7-1.5-5.12 2.64-2.42 4.15a43.3 43.3 0 0 0 22.47 5.62 23 23 0 0 0 11.41-3.34 25 25 0 0 0 7.75-7.7c3.44-5.37 4.72-11.9 4.89-18.21.22-8.63-.58-17.3-1.3-25.88-1.2-14.3-2.48-28.67-5-42.8a72 72 0 0 0-5.11-17.36 78 78 0 0 0-11.84-19.21c-11.25-12.93-27.98-19.58-43.65-25.43l-2.43-.95a2.4 2.4 0 0 0-2.95 1.68 2.46 2.46 0 0 0 1.68 2.95" class="c"/><path d="M75.23 258.24 103 146.84l89.72 22.36-27.78 111.4z" class="b"/><path d="m102 150.83-26.77 107.4 10.22 2.56 27.78-111.4-10.23-2.56Z" class="e"/><path d="m87.97 260.62 11.65-46.72 11.8-47.35 4.12-16.53c.75-3-3.88-4.28-4.63-1.28q-4.4 17.7-8.82 35.39l-12.59 50.5-6.16 24.72c-.75 3 3.88 4.27 4.63 1.27" class="c"/><path d="m100.45 147.17-2.33 9.3-5.67 22.77-7.19 28.83-6.77 27.14-4.5 18.06c-.27 1.1-.59 2.18-.81 3.29a3.5 3.5 0 0 0 2.45 4.25c.41.13.84.2 1.26.31l17.14 4.28 27.96 6.97 26.85 6.7c4.72 1.17 9.43 2.46 14.18 3.53a3.7 3.7 0 0 0 4.65-3l1.2-4.78 5-20.13 7-28.06 7.05-28.23 5.24-21 1.36-5.49q.15-.5.26-1.03a3.5 3.5 0 0 0-2.47-4.25c-4.14-1.3-8.49-2.12-12.7-3.17l-26.4-6.58-28.18-7.03-18.44-4.6c-2.1-.52-4.76-1.32-5.9 1.34a2.5 2.5 0 0 0 .86 3.29 2.4 2.4 0 0 0 3.28-.86c-.16.37-2 .06-1.3.42a3 3 0 0 0 .58.14l2.15.54 7.87 1.96 25.01 6.24 28.13 7.01 20.16 5.03 2.48.62a4 4 0 0 0 1.15.28c-.69.17-.54-2.54-.99-1.35a14 14 0 0 0-.38 1.53l-3.92 15.7-6.4 25.68-7.11 28.53-6.04 24.24-3.2 12.82a2 2 0 0 0-.11.44c.06.83 1.31-1.22 1.7-.8-.12-.13-.67-.16-.83-.2l-5.74-1.43-22.54-5.63-28.39-7.08-23.08-5.75-6.08-1.52a5 5 0 0 0-1.08-.27c1.64.01.61 2.63 1.02 1.31 1.25-4 2.04-8.19 3.06-12.25l5.96-23.93 7.1-28.5 6.47-25.92 4.04-16.2.56-2.24c.74-3-3.89-4.28-4.63-1.28" class="c"/><path d="m159.22 231.92-46.6-11.62c-3-.75-4.27 3.88-1.27 4.63l46.59 11.61c3 .75 4.28-3.88 1.28-4.62" class="c"/><path d="m163.27 213.7-46.4-11.57 7.22-29 46.41 11.57Z" class="e"/><path d="m163.9 211.39-46.4-11.57 1.68 2.95 6.32-25.35.9-3.66-2.94 1.68 46.4 11.57-1.67-2.95-6.32 25.34-.92 3.66c-.74 3 3.88 4.28 4.63 1.28L171.9 189l.91-3.66a2.44 2.44 0 0 0-1.67-2.95l-46.41-11.57a2.44 2.44 0 0 0-2.95 1.67l-6.32 25.35-.91 3.66a2.44 2.44 0 0 0 1.67 2.95l46.4 11.57c3 .74 4.29-3.89 1.29-4.63M61.06 155.93A201 201 0 0 0 40 165.45a53 53 0 0 0-17.67 14.9 74 74 0 0 0-10.74 21.4 214 214 0 0 0-6.23 24.12 261 261 0 0 0-3.87 25.45 200 200 0 0 0-1.41 28.15c.38 10.98 2.04 22.67 9.7 31.13a27.6 27.6 0 0 0 17.96 8.7c8.6.85 16.78-2.19 23.89-6.83a86 86 0 0 0 5.47-3.93 2.5 2.5 0 0 0 .86-3.28 2.4 2.4 0 0 0-3.28-.87c-6.23 4.81-13.3 9.44-21.36 10.15-6.49.56-13.32-1.1-18.15-5.37a23 23 0 0 1-4.73-5.64 32 32 0 0 1-1.57-2.91l-.3-.65c-.06-.14-.36-.84-.15-.32l-.49-1.26a55 55 0 0 1-2.85-15.05 162 162 0 0 1 .62-26.1c.76-8.46 1.8-16.9 3.33-25.24a272 272 0 0 1 5.43-23.23 84 84 0 0 1 8.66-21.06 47 47 0 0 1 15.15-15.74 136 136 0 0 1 19.63-9.61q2.2-.93 4.42-1.8A2.47 2.47 0 0 0 64 157.6a2.4 2.4 0 0 0-2.95-1.68Z" class="c"/><path d="M31.2 273.87c5.47-4.05 11.2-7.74 16.67-11.79a2.47 2.47 0 0 0 .86-3.28 2.4 2.4 0 0 0-3.29-.87c-5.47 4.05-11.2 7.75-16.66 11.8a2.47 2.47 0 0 0-.86 3.28 2.4 2.4 0 0 0 3.28.86M36 211a295 295 0 0 0 8.32 32.38c.97 2.91 5.61 1.66 4.63-1.28a295 295 0 0 1-8.33-32.38c-.63-3.02-5.26-1.74-4.63 1.28" class="c"/><path d="M165.86 241.6a18 18 0 0 0-8.22-.51c-2.47.6-4.3 3.1-3.4 5.48a7.2 7.2 0 0 0 3.16 3.18 94 94 0 0 0 17.21 8.63l-20.9-2.82a16 16 0 0 0-4.44-.17 5.4 5.4 0 0 0-3.75 2.16 5.7 5.7 0 0 0 .32 5.85 6.5 6.5 0 0 0 2.67 2.1l-1.69.24a4.8 4.8 0 0 0-3.98 4.91 6 6 0 0 0 3.39 5.24 20 20 0 0 0 4.9 1.7l-1.22 1.37a5 5 0 0 0-.26 5.67c2.5 4.28 9.94 5.32 15.3 6.08a23.5 23.5 0 0 0 10.79-.9c5.46-1.84 8.9-4.08 11.98-9.9 2.09-3.95 2.68-8.4 2.75-13.1a30 30 0 0 0-1.76-10.12 13 13 0 0 0-4.42-5.85 72 72 0 0 0-5-3.4 49 49 0 0 0-13.43-5.84" class="b"/><path d="M172.55 255a96 96 0 0 1-13.35-6.95c-1.06-.66-3.42-1.84-2.65-3.39.58-1.17 2.08-1.38 3-1.43 3.69-.19 7.43 1.02 10.82 2.35a54 54 0 0 1 11.57 6.5 12.6 12.6 0 0 1 4.06 4.39 20 20 0 0 1 1.78 6.2 30 30 0 0 1-.78 12.63 18.3 18.3 0 0 1-5.95 9.27 21 21 0 0 1-10.2 3.88 36 36 0 0 1-13.32-1.57 12.5 12.5 0 0 1-4.81-2.28c-.9-.8-2.14-2.66-1.1-3.94a2.47 2.47 0 0 0 0-3.4 2.4 2.4 0 0 0-3.4 0c-3.53 4.4-1.02 9.92 3.45 12.42 3.84 2.14 8.37 2.76 12.66 3.36a28 28 0 0 0 15.94-2.45 20.6 20.6 0 0 0 9.33-9.1 31 31 0 0 0 3.26-16c-.24-5.33-1.52-11.17-5.4-15.06a37 37 0 0 0-6.55-4.82 52 52 0 0 0-6.82-3.64c-4.37-1.93-9.24-3.65-14.09-3.56-2.57.05-5.13.72-6.83 2.78a6.3 6.3 0 0 0 .04 8.2c1.94 2.32 5.17 3.83 7.76 5.28a96 96 0 0 0 9.16 4.47 2.5 2.5 0 0 0 3.28-.87 2.4 2.4 0 0 0-.86-3.28Z" class="c"/><path d="m172.87 255.74-18.85-2.53c-2.85-.39-5.85-.62-8.4.99a6.9 6.9 0 0 0-3.12 6.64c.47 4.65 4.3 7 8.48 8.1 2.97.8 5.98 1.43 8.97 2.1q4.58 1.01 9.17 2c3.02.64 4.3-3.99 1.28-4.64a798 798 0 0 1-15.44-3.42c-2.13-.5-4.84-.91-6.57-2.33-1.01-.83-1.64-2.74-.8-3.9 1.18-1.6 4.05-1.06 5.67-.85 6.12.78 12.23 1.64 18.34 2.46a2.5 2.5 0 0 0 2.95-1.67 2.4 2.4 0 0 0-1.67-2.96Z" class="c"/><path d="M146.18 263.43a7.3 7.3 0 0 0-5.75 7.05 8.6 8.6 0 0 0 5.04 7.71c4.4 2.15 9.65 2.62 14.43 3.5q3.06.6 6.13 1.13a2.47 2.47 0 0 0 2.95-1.67 2.4 2.4 0 0 0-1.68-2.95c-4.17-.73-8.32-1.54-12.49-2.3-2.66-.5-6.14-.86-8.28-2.67-1.86-1.57-1.75-4.67.93-5.17a2.4 2.4 0 0 0 1.67-2.95 2.45 2.45 0 0 0-2.95-1.68" class="c"/><path d="M66.43 231.72a20 20 0 0 1 5.4-4.76 41 41 0 0 1 17.09-4.36 11 11 0 0 1 6.13 1.36 4.1 4.1 0 0 1 1.87 4.61 3.8 3.8 0 0 1-2.62 2.61 42 42 0 0 0-4.07 1.3 49 49 0 0 0-9.47 4.25l-.6 3.9a127 127 0 0 1 12.88 2.8 30 30 0 0 1 6.75 2.64 7.4 7.4 0 0 1 3.55 3.12 5.5 5.5 0 0 1 .63 3.31 3.7 3.7 0 0 1-2.3 3.06 6.8 6.8 0 0 1-4.4.46q-1.86-.42-3.74-.9c3.6 1.8 3.83 3.16 4.48 5.2a4.6 4.6 0 0 1-.47 3.45 5.4 5.4 0 0 1-5.19 1.65c-1.5-.39-2.9-.73-4.32-1.04l1.67 1.2c2.99 2.13 2.22 7.1-.35 7.93-2.08.67-5.5.08-9.16-.2-.39 5.08-5.4 10.06-7.17 11.06a17 17 0 0 1-7.19 2.11c-5.55-.1-10.15-3.92-13.23-8.53a11.7 11.7 0 0 1-.38-10.85 66 66 0 0 0 5.7-14.59c1.47-5.84 4.97-16.5 8.5-20.8" class="b"/><path d="M73.04 229.03a43 43 0 0 1 11.83-3.72 27 27 0 0 1 5.66-.27c1.32.09 3.24.39 3.94 1.68a1.47 1.47 0 0 1-.8 2.15c-1.7.62-3.48 1.08-5.19 1.7a61 61 0 0 0-8.93 4.1c-2.69 1.51-.27 5.66 2.42 4.14a53 53 0 0 1 7.97-3.67q2.39-.9 4.82-1.6a6.2 6.2 0 0 0 4.12-3.42c1.65-3.65-.45-7.43-3.94-8.92s-7.68-1.1-11.35-.52a47 47 0 0 0-12.97 4.2 2.4 2.4 0 0 0-.86 3.28 2.45 2.45 0 0 0 3.28.86Zm-8.3.99c-3.59 4.44-5.56 10.2-7.3 15.57-.87 2.66-1.54 5.38-2.32 8.07a62 62 0 0 1-4.12 10.6c-1.47 2.93-2.57 5.7-2.27 9.07a15 15 0 0 0 4 8.74c4.2 4.9 10.57 8.07 17.04 6.2a16 16 0 0 0 6.88-3.75 20.4 20.4 0 0 0 5.56-8.84c.85-2.97-3.78-4.24-4.63-1.27a15 15 0 0 1-3.9 6.3 9 9 0 0 1-4.13 2.6 10 10 0 0 1-7.4 0 16 16 0 0 1-5.9-4.5 9.7 9.7 0 0 1-2.76-6.22c-.1-2.92 1.26-5.01 2.46-7.58a70 70 0 0 0 3.68-9.63c.72-2.44 1.3-4.9 2.06-7.33.85-2.71 1.78-5.4 2.88-8.02a45 45 0 0 1 2.7-5.33c.3-.49.67-1.05.86-1.28a2.47 2.47 0 0 0 0-3.4 2.4 2.4 0 0 0-3.4 0Z" class="c"/><path d="M79.51 242.94a123 123 0 0 1 12.31 2.65 32 32 0 0 1 5.12 1.73c1.32.62 3.07 1.28 3.98 2.48.73.96 1.07 2.66.13 3.38-1.5 1.16-3.61.43-5.24.03-4.47-1.08-8.9-2.27-13.45-2.99a2.47 2.47 0 0 0-2.95 1.68 2.4 2.4 0 0 0 1.67 2.95c4.26.68 8.43 1.76 12.61 2.79a18 18 0 0 0 6.03.9 7.8 7.8 0 0 0 5.33-2.63c2.56-3.18 1.26-8.05-1.75-10.44a27 27 0 0 0-9.62-4.35 120 120 0 0 0-12.89-2.81 2.5 2.5 0 0 0-2.95 1.67 2.4 2.4 0 0 0 1.67 2.96" class="c"/><path d="M94.2 258.3a4 4 0 0 1 .49.44c.28.28.05-.01.27.32l.29.52c.1.22-.07-.2.07.19q.25.69.43 1.4c-.08-.36 0 .03 0 .2a5 5 0 0 1-.03.66c.05-.35-.11.37-.1.37q.13-.28.01-.07-.1.2.04-.06a6 6 0 0 1-.9.62 3.5 3.5 0 0 1-2.52.02 124 124 0 0 0-14.17-2.6 2.4 2.4 0 0 0-2.4 2.4 2.46 2.46 0 0 0 2.4 2.4q4.23.54 8.41 1.4c2.85.59 5.94 1.9 8.86 1.23a7.7 7.7 0 0 0 3.9-2.27 6 6 0 0 0 1.3-4.1 9.3 9.3 0 0 0-3.92-7.22 2.4 2.4 0 0 0-3.28.86 2.46 2.46 0 0 0 .86 3.29Z" class="c"/><path d="M88.49 267.65c-.55-.4 0 .03.11.14q.11.1.21.23-.32-.44-.1-.13l.27.45c.3.5-.1-.4.03.04l.17.56.03.09a4 4 0 0 0 0 1c-.01.44.13-.6-.02.07l-.18.66.08-.2a3 3 0 0 0-.24.46c-.3.49.06-.1.08-.08s-.35.34-.35.35q.5-.37.2-.16l-.2.13c-.29.24.58-.15.08-.04l-.5.13c-.68.14.3 0-.15.02q-.61.06-1.23.05a33 33 0 0 1-3.03-.18 68 68 0 0 0-6.97-.45 2.4 2.4 0 1 0 0 4.8 59 59 0 0 1 6.31.39 24 24 0 0 0 5.24.16 6 6 0 0 0 4.59-2.6 7.3 7.3 0 0 0 1.1-4.5 7.5 7.5 0 0 0-3.1-5.53 2.4 2.4 0 0 0-3.3.86 2.47 2.47 0 0 0 .87 3.28" class="c"/></svg>
