<svg xmlns="http://www.w3.org/2000/svg" viewBox="-49.78 0 298.69 298.69"><defs><style>.b{fill:#fff}.c{fill:#211715}</style></defs><path d="M150.18 13.66C138.05 4.4 126.6 1.88 115.08 2.05c-18.28.27-33.2 6.81-43.44 18.05-5.91 6.49-10.33 16.07-12.2 24.67A89 89 0 0 0 59 75.44s35.78 32.5 51.39 45.83a5742 5742 0 0 0 56.15 35.8c9.73-3.92 10.25-10.48 10.54-14.42a44 44 0 0 0-1.56-15.6c-1.76-6.95-4.93-21.04-3.15-45.6a118 118 0 0 0 1.39-15.52c.08-2.42.12-4.47.13-5.82.15-13.75-5.78-29.64-14.69-38.87Z" style="fill:#a98a75"/><path d="m154.02 78.72-8.66-2.34c-5.9-3.45-12.02-13.42-14.2-19.15a140 140 0 0 1-4.76-15.44c-8.66 8.64-21.17 14.9-34.4 18.03-3.57 0-12.16.35-16.34.38-4.1 2.86-8.17 5.58-12.11 8.04-.97.6-2.12 1.25-2.86 1.7l-1.77 1.09.03.4c.65 7.68.96 15.36 1.4 22.43l.11 1.57c.94 11.65 4.2 22.22 12.07 29.3 6.99 6.3 14.47 9.76 23.18 10.6.55 3.8-3.36 5.92-6.41 7-2.7 1.2-6.92 2.7-10.75 4.07a29.3 29.3 0 0 0 13.2 11.8c5.78 2.6 12.07 3.39 18.27 3.39a78 78 0 0 0 44.1-14.17l-2.74-1.86c-4.23-2.87-9.24-5.76-11.23-10.47a27 27 0 0 1-1.46-5.48l-1.48-7.7a69 69 0 0 0 8.32-9.4s2.37-3.3 3.4-5.2l.55-1.03a15 15 0 0 0 7.39-1.35 20.3 20.3 0 0 0 8.09-8.66c2.06-3.7 3.21-10.05 1.7-13.86-.5-1.27-1.81-3.52-5.62-4.28a7.8 7.8 0 0 0-5.65.97Z" class="b"/><path d="M135.46 123.36c.65 3.38 1.12 6.87 2.05 10.19a16.5 16.5 0 0 0 4.47 7.5 46 46 0 0 0 6.7 5.09q4.32 2.91 8.63 5.85c2.13 1.46 4.14-2 2.02-3.45q-4.07-2.8-8.17-5.54a45 45 0 0 1-6.08-4.52 13 13 0 0 1-3.83-6.42c-.83-3.2-1.31-6.52-1.93-9.77-.49-2.52-4.34-1.46-3.86 1.06Zm-41.7 12.55-.01.5c-.02.2.08-.23-.03.12l-.13.44c-.07.2.13-.2-.06.11l-.22.4c-.07.11-.24.34-.07.12a6 6 0 0 1-.65.69l-.36.31c-.26.22.37-.23-.13.1q-.41.29-.83.54c-.42.25-.58.32-.87.47l-.44.2c-.06.04-.46.2-.15.08a181 181 0 0 1-9.5 3.65 2.05 2.05 0 0 0-1.4 2.46 2 2 0 0 0 2.46 1.4q3-1.06 5.96-2.21c.93-.37 1.84-.8 2.78-1.16l.58-.21q.7-.28 1.37-.58c3-1.4 5.71-3.9 5.7-7.43-.01-2.57-4.01-2.58-4 0M157.8 22.65c7.02 7.34 11.25 17.32 13.15 27.22a68 68 0 0 1 .84 15.1q-.11 4.17-.43 8.31c-.21 2.75-.69 5.44-.98 8.17a138 138 0 0 0-.49 17.58q.14 6.74.92 13.44.59 5.03 1.6 10.01c.68 3.23 1.62 6.4 2.2 9.65a40 40 0 0 1 .54 9.57 22 22 0 0 1-.6 4.68c-1.08 4.24-4.48 7.1-8.54 8.77a2.07 2.07 0 0 0-1.4 2.46 2 2 0 0 0 2.46 1.4c4.33-1.79 8.41-4.5 10.39-8.9 1.49-3.33 1.74-7.1 1.77-10.7.08-7.98-2.73-15.6-3.94-23.42a147 147 0 0 1-1.22-29.5c.29-5.97 1.29-11.85 1.58-17.82a90 90 0 0 0-.23-16.03c-1.57-11.9-6.42-24.06-14.8-32.82-1.78-1.87-4.61.96-2.83 2.82Z" class="c"/><path d="M179.72 296.69a530 530 0 0 1-2.9-31.04c8.2-15.53 11.42-27.63 16.1-42.12 2.52-7.86 5.2-25.73 3.86-34.13a42 42 0 0 0-8.4-18.6c-7.43-9.13-16.55-14.98-33.47-23.95a78 78 0 0 1-44.9 14.73c-6.2 0-12.49-.8-18.27-3.39a29.3 29.3 0 0 1-12.15-10.17l-31.96-3.79c-10.6 4.9-15.67 9.8-22.14 22.82-5 10.04-7.63 21.5-10 32.4-2.73 12.42-5.2 26.09-4.65 38.84.4 9.38 4.27 19.45 12.63 23.73 7.7 3.93 17.8 2.26 24.5-3.25l.14 2.36c.16 2.9.71 11.83.62 16.13-.09 3.8-.5 10.92-1.1 19.36Z" style="fill:#f8b8b4"/><path d="m60.83 89.36-4.28 2.56c-1.36 1.08-1.65 1.85-2.09 3.85q-.78 3.6-1.54 6.84a3.7 3.7 0 0 0-2.15.14 2.8 2.8 0 0 0-1.85 2.12 66 66 0 0 0-1.25 15.97c.31 8.65.92 13.33 2.04 22.89a39 39 0 0 1 .08 9.02c-.13 1.24-2.7 7.16-5.2 12.76l-.23.53a2487 2487 0 0 1 24.47 8.75l.07-.57a129 129 0 0 1 3.44-15.1 28 28 0 0 1 5.62-9.12 23 23 0 0 0 1.63-1.98q.27-.37.5-.74a8 8 0 0 0 .74-1.7 51 51 0 0 0 1.58-7.76l2.33-49.26-21.67-.53Z" class="b"/><path d="M162.27 233.34a1974 1974 0 0 1-6.27-34.47l-1.46-8.4a2 2 0 0 0-2.46-1.4 2.05 2.05 0 0 0-1.4 2.46 2360 2360 0 0 0 7.73 42.88c.49 2.52 4.34 1.45 3.86-1.07M89.79 113.8a16 16 0 0 0 7.61 1.9 16 16 0 0 0 3.93-.37 26 26 0 0 0 3.87-1.51 2.06 2.06 0 0 0 1.4-2.46 2 2 0 0 0-2.46-1.4 30 30 0 0 1-3.52 1.42 10 10 0 0 1-1.2.25c.22-.03.08-.01-.06 0a19 19 0 0 1-3.43-.04c-.35-.03.25.05-.1 0a14 14 0 0 1-1.32-.26 14 14 0 0 1-1.53-.44c-.05-.01-.51-.2-.3-.1a12 12 0 0 1-.88-.45c-2.23-1.28-4.25 2.18-2.01 3.46m17.79-27.88c-.56-2.52.4-8.14 5.1-8.24 6.15.54 5.92 7.41 3.58 10.46-1.91 2.5-7 3.18-8.68-2.22M70.9 84.06c-.5-2.52.4-8.16 4.71-8.28 5.64.51 5.4 7.4 3.24 10.47-1.76 2.51-6.42 3.22-7.95-2.19M90 91.05a49 49 0 0 0-2.37 3.9 6 6 0 0 0-.67 1.54 3 3 0 0 0 .68 2.73 4.6 4.6 0 0 0 1.8 1.22 6 6 0 0 0 1.46.28l-.53-.07.24.04a2 2 0 0 0 1.54-.2 2 2 0 0 0-.47-3.65q-.45-.09-.91-.13l.53.07a3 3 0 0 1-.8-.2l.48.2-.24-.12-.13-.08.2.15c-.04-.08-.19-.18-.25-.24l-.1-.1q.3.43.18.16l.2.48-.04-.17.07.53v-.28l-.07.53a3 3 0 0 1 .13-.48l-.2.47a19 19 0 0 1 1.35-2.4q.67-1.1 1.37-2.16a2 2 0 0 0-.72-2.74 2.05 2.05 0 0 0-2.73.72m43.66 36.44A66 66 0 0 0 144.54 117a58 58 0 0 0 6.1-8.68c1.24-2.26-2.21-4.28-3.45-2.02a52 52 0 0 1-5.48 7.87 62 62 0 0 1-10.07 9.87 2.07 2.07 0 0 0-.72 2.74 2 2 0 0 0 2.74.71m17.53-115.55A57 57 0 0 0 122.97.4a69 69 0 0 0-28.45 2.89 56.6 56.6 0 0 0-22.34 13.36c-7.04 6.93-11.77 16.15-14.21 25.68a74 74 0 0 0-2.03 15.88 91 91 0 0 0 1.13 17.76 2 2 0 0 0 2.46 1.4 2.05 2.05 0 0 0 1.4-2.46 82 82 0 0 1 .2-28.44c1.73-8.93 5.68-18.01 11.8-24.8C84.66 8.63 102.4 3.23 119.58 4.13c10.94.57 20.9 4.68 29.59 11.26a2 2 0 0 0 2.74-.72 2.05 2.05 0 0 0-.72-2.74" class="c"/><path d="M121.8 128.75a59 59 0 0 1-20.37 4.75 38 38 0 0 1-18.63-3.98 36 36 0 0 1-14.24-12.72c-3.38-5.55-5.05-12.04-5.8-18.45-1.06-8.92-1.06-17.98-1.8-26.93-.22-2.55-4.22-2.57-4 0 .7 8.42.8 16.9 1.62 25.31.68 7.08 2.22 14.18 5.62 20.5 6.6 12.3 20.48 19.8 34.2 20.27 8.45.28 16.67-1.75 24.45-4.89a2.06 2.06 0 0 0 1.4-2.46 2 2 0 0 0-2.46-1.4Zm34.6-47.93a6.24 6.24 0 0 1 7.78 1.22 7 7 0 0 1 .55.91l.03.07c-.13-.3.1.28.12.34a10 10 0 0 1 .28 1.07 14 14 0 0 1 .05 4.49c-.75 5.68-4.23 11.65-9.43 14.32a9 9 0 0 1-1.45.53 14 14 0 0 1-2.17.46 8.5 8.5 0 0 1-4.98-.63c-2.28-1.2-4.3 2.26-2.02 3.45 3.4 1.78 7.72 1.57 11.26.24a19 19 0 0 0 8.8-7.57 24 24 0 0 0 3.95-10.54c.43-3.37.2-7.17-2.08-9.88-3-3.6-8.78-4.3-12.71-1.94-2.2 1.33-.2 4.79 2.01 3.46Zm-31.85-38.2c1.67 6.84 3.68 13.93 7 20.17 3.03 5.7 7.14 11.91 12.8 15.32 2.2 1.33 4.22-2.13 2.02-3.45-5.15-3.1-8.8-9-11.53-14.2-3.06-5.84-4.87-12.51-6.43-18.9-.61-2.5-4.47-1.44-3.86 1.07Z" class="c"/><path d="M91.01 46.57A374 374 0 0 1 59.68 68.2c-2.2 1.33-.2 4.79 2.02 3.46a374 374 0 0 0 31.33-21.65 2.06 2.06 0 0 0 .72-2.74 2 2 0 0 0-2.74-.71m33.96-6.18c-9.1 9-21.17 14.56-33.5 17.5-2.5.6-1.45 4.45 1.06 3.85 12.98-3.1 25.7-9.06 35.27-18.52 1.84-1.81-1-4.64-2.83-2.83m-47.1 108.64a32 32 0 0 0 11.78 10.38 42 42 0 0 0 16.73 4.07 76 76 0 0 0 32.59-5.64 84 84 0 0 0 16.95-9.27c2.09-1.47.1-4.94-2.02-3.45a79 79 0 0 1-28.53 12.77c-10.11 2.23-21.56 2.84-31.39-.91A27.5 27.5 0 0 1 81.32 147c-1.46-2.1-4.93-.1-3.45 2.02m97.01 117.54a520 520 0 0 0 2.84 30.12 2.06 2.06 0 0 0 2 2 2 2 0 0 0 2-2 519 519 0 0 1-2.84-30.12c-.16-2.56-4.16-2.58-4 0m-128.76-5.44c.3 5.24.7 10.5.62 15.76-.09 6.58-.63 13.17-1.1 19.73-.2 2.57 3.8 2.56 4 0 .47-6.56 1.01-13.15 1.1-19.73.08-5.25-.32-10.52-.62-15.76-.15-2.56-4.15-2.57-4 0" class="c"/><path d="M80.48 137.28c-.45 2.82-.63 6.1-1.95 8.69a22 22 0 0 1-2.88 3.66 37 37 0 0 0-2.99 4.16 33 33 0 0 0-3.57 9.59c-.83 3.4-1.46 6.86-2.11 10.3-.48 2.52 3.38 3.6 3.86 1.07.63-3.38 1.25-6.77 2.06-10.1a30 30 0 0 1 3.67-9.55 32 32 0 0 1 2.7-3.57 17 17 0 0 0 2.95-4.04c1.3-2.87 1.63-6.07 2.12-9.14a2.06 2.06 0 0 0-1.4-2.46 2 2 0 0 0-2.46 1.4Zm-34.16 29.24c1.54-3.47 3.1-6.94 4.5-10.47a21 21 0 0 0 1.18-8.28c-.1-3.88-.74-7.75-1.17-11.6q-.55-4.73-.87-9.45c-.23-3.55-.42-7.12-.32-10.67q.08-2.9.4-5.78a21 21 0 0 1 .85-5.03 1.28 1.28 0 0 1 2.05-.37c1 1.23.98 3.38 1.15 4.86.47 4.07.92 8.15 1.48 12.2a17 17 0 0 0 1.85 5.91c.9 1.67 2.17 3.1 3.08 4.77a20 20 0 0 1 2.45 10.44c-.06 2.58 3.94 2.58 4 0a23.5 23.5 0 0 0-2.13-10.75c-1.52-3.3-4.22-5.92-5.06-9.52a58 58 0 0 1-.83-6.14l-.8-6.46c-.4-3.42-.59-8.56-4.76-9.52a5.6 5.6 0 0 0-5.07 1.31c-1.35 1.31-1.55 3.31-1.84 5.07a71 71 0 0 0-.84 11.88 207 207 0 0 0 1.76 22 70 70 0 0 1 .63 7.26 16 16 0 0 1-.37 4.93 110 110 0 0 1-4.77 11.39 2.06 2.06 0 0 0 .71 2.74 2 2 0 0 0 2.74-.72" class="c"/><path d="m55.11 102.02 1.33-5.95q.12-.56.29-1.12l.15-.43a1.28 1.28 0 1 0-.08.18l.11-.23.21-.35c.18-.28 0 .05-.1.11l.14-.16a7 7 0 0 1 .8-.74 2 2 0 0 0 0-2.83 2.06 2.06 0 0 0-2.83 0 7.3 7.3 0 0 0-2.49 4.22c-.49 2.07-.91 4.16-1.4 6.24a2 2 0 0 0 3.86 1.06Zm-8.49 40.49c-5.72 2.66-11.04 6.05-15.08 10.97-5.11 6.23-8.76 13.8-11.5 21.33-3.23 8.83-5.22 18.06-7.16 27.24a172 172 0 0 0-4.05 29.1c-.3 8.08.34 16.33 4.45 23.5A22.3 22.3 0 0 0 31.2 266.1a26 26 0 0 0 19.99-7.58 52 52 0 0 0 7.26-10.23 94 94 0 0 0 5.73-11.98c3.38-8.41 5.4-17.19 7.43-26a1386 1386 0 0 0 5.5-25.15l1.35-6.4c.53-2.52-3.33-3.6-3.86-1.07q-2.47 11.91-5.09 23.79c-1.89 8.47-3.62 17.05-6.2 25.34a92 92 0 0 1-10.28 22.67c-1.96 3.02-4.08 6.1-6.99 8.27a22.6 22.6 0 0 1-9.17 4.02 18.5 18.5 0 0 1-17.83-5.83C14.33 250.5 12.88 243 12.78 236a135 135 0 0 1 2.86-27.42c1.68-8.8 3.57-17.63 6.12-26.22a86 86 0 0 1 10.12-22.6A35 35 0 0 1 44.4 148.1q2.08-1.15 4.24-2.14a2 2 0 0 0 .72-2.73 2.05 2.05 0 0 0-2.74-.72" class="c"/><path d="M35.98 165.23C47.08 168.99 58.09 173 69.1 177q2.78.99 5.53 2.05a2 2 0 0 0 2.46-1.4 2.05 2.05 0 0 0-1.4-2.46c-10.4-4.09-21.02-7.65-31.55-11.35q-3.54-1.26-7.1-2.47c-2.44-.83-3.49 3.03-1.06 3.85ZM141.42 289.7c6.65.15 13.59.08 19.6-3.14 6.38-3.42 11.52-9.15 15.06-15.39a163 163 0 0 0 10.04-21.06 298 298 0 0 0 6.58-19.3 134 134 0 0 0 4.52-16.95 111 111 0 0 0 1.92-18.7c.06-12.58-6.27-23.89-15.42-32.2-9.28-8.42-20.78-14.18-31.8-19.95l-2.11-1.1c-2.28-1.2-4.3 2.25-2.02 3.45 10.14 5.3 20.73 10.46 29.75 17.6 8.83 6.99 16.56 16.97 17.47 28.42a78 78 0 0 1-.93 16.89 97 97 0 0 1-3.46 15.87c-4.13 12.9-8.06 25.8-14.2 37.94-3.34 6.6-6.86 12.96-12.63 17.75a24 24 0 0 1-7.98 4.6 32 32 0 0 1-8.81 1.28c-1.86.06-3.72.03-5.57 0-2.58-.06-2.58 3.94 0 4Z" class="c"/><path d="M105.17 190.86c.86 16.77 1.9 33.57 4.4 50.19a146 146 0 0 0 4.49 21.01c1.72 5.65 3.94 11.03 7.76 15.6 5.15 6.12 12.48 11.4 20.67 11.98 2.57.18 2.56-3.82 0-4-6.69-.48-12.66-5.02-16.99-9.84-3.64-4.06-5.72-8.89-7.35-14.04-4.42-13.98-5.94-28.91-7.18-43.46a801 801 0 0 1-1.8-27.44c-.13-2.56-4.14-2.58-4 0" class="c"/><path d="M110.32 141.66a32 32 0 0 1 1.42-5.49 93 93 0 0 1 5.72-10.74c2.24-4.27 5.58-14.12 7.24-19.96a8.4 8.4 0 0 1 3.23-4.44 3.74 3.74 0 0 1 4.77.6 4 4 0 0 1 .78.99l.64-1.97 1.33-4.05a5.1 5.1 0 0 1 5.34-3.38 5.4 5.4 0 0 1 3.3 1.63l.28-.46 1.57-2.65c1.03-1.72 2.86-2.12 5.03-1.3a4.6 4.6 0 0 1 2.88 4.12c.17 1.6-.36 5.48-1.05 9.41h1.16a4.2 4.2 0 0 1 2.9.89c1.05.75 1.38 3.13 1.16 4.43a220 220 0 0 1-7.09 26.97c-2.91 6.61-5.4 11.91-8.17 18.54a17 17 0 0 0-1.44 4.58 17 17 0 0 0 .39 5.04c.32 1.88 3.77 15.73 4.27 18.17l.45 2.17c-9.23 1.36-20.88 3.11-29.95 4.56l-.1-2.33c-.19-4.35-.37-17.56-1.14-21.67-.7-3.69-2.8-7.05-4.12-10.56a21.3 21.3 0 0 1-1.16-11.13z" class="b"/><path d="M107.7 192.79c14.32-2.5 28.73-4.56 43.12-6.66a2 2 0 0 0 1.4-2.46 2.05 2.05 0 0 0-2.47-1.4c-14.38 2.1-28.79 4.16-43.11 6.66a2 2 0 0 0-1.4 2.46 2.05 2.05 0 0 0 2.46 1.4m11.49-66.35c3.26-6.31 5.36-13.36 7.35-20.15.4-1.35 1.53-3.62 3.12-3.87 1.9-.3 2.5 1.95 2.35 3.35a65 65 0 0 1-2.35 9.62c-1 3.7-2.04 7.4-3.3 11.01-.84 2.44 3.03 3.49 3.86 1.07 1.26-3.62 2.29-7.32 3.3-11.02q.79-2.92 1.52-5.86a23 23 0 0 0 1-5.7 6.5 6.5 0 0 0-3.6-5.85 5.8 5.8 0 0 0-6.65 1.15 11.6 11.6 0 0 0-3.31 5.76q-.9 3-1.89 5.99a87 87 0 0 1-4.85 12.48c-1.18 2.28 2.27 4.3 3.45 2.01Z" class="c"/><path d="M115.74 124.42c-2.51 4.31-5.44 8.72-6.68 13.61-1.23 4.84-1.9 9.76-.68 14.68 1.18 4.76 4.29 8.86 5.03 13.74.05.32-.04-.3 0 .05a49 49 0 0 1 .34 3.9q.17 2.84.28 5.67c.13 3.64.2 7.29.35 10.93.11 2.56 4.11 2.58 4 0-.28-6.54-.2-13.11-.87-19.63a23 23 0 0 0-1.02-5.08c-.82-2.38-2-4.61-2.99-6.92a21 21 0 0 1-1.8-7.45 32 32 0 0 1 3.14-13.7c1.33-2.67 2.86-5.22 4.35-7.79 1.3-2.23-2.16-4.24-3.45-2.01m33.34 11.12c-1.86 4.21-3.78 8.4-5.63 12.62q-1.43 3.24-2.79 6.52a15 15 0 0 0-1.38 6.54 40 40 0 0 0 1.26 7.14q.94 3.98 1.91 7.97c.55 2.26 1.13 4.52 1.6 6.8.53 2.52 4.38 1.45 3.86-1.06-.93-4.43-2.1-8.82-3.15-13.22-.4-1.72-.86-3.44-1.17-5.19a12 12 0 0 1 .29-6.29c.7-2.02 1.62-3.98 2.47-5.94 2.02-4.64 4.13-9.24 6.18-13.87a2.06 2.06 0 0 0-.72-2.74 2 2 0 0 0-2.74.72Zm-9.93-4.92c2.23-7.19 4.2-14.47 6.06-21.76.87-3.41 1.97-7.02 2-10.57a6.95 6.95 0 0 0-8.1-7 7 7 0 0 0-5.27 3.98 49 49 0 0 0-1.65 4.85c-.8 2.45 3.06 3.5 3.86 1.06.69-2.11 1.03-5.38 3.61-5.94a3.1 3.1 0 0 1 3.24 1.41c.52 1.08.32 2.61.07 4.1-1.1 6.46-3.1 12.83-4.87 19.13a340 340 0 0 1-2.8 9.68c-.77 2.46 3.09 3.52 3.85 1.06" class="c"/><path d="M146.86 134.67a279 279 0 0 0 6.6-23.61 131 131 0 0 0 2.13-12.21c.44-3.52.63-7.62-2.84-9.75a6.5 6.5 0 0 0-6.96-.08c-1.46 1.05-2.25 2.85-3.15 4.36-1.3 2.22 2.15 4.24 3.46 2.02a17 17 0 0 1 1.76-2.91c.85-.9 2.64-.38 3.35.49a4.5 4.5 0 0 1 .64 3.23 50 50 0 0 1-.56 4.73 174 174 0 0 1-4.52 19.98A373 373 0 0 1 143 133.6c-.78 2.46 3.08 3.5 3.86 1.06" class="c"/><path d="M153.96 105.98c1.37.01 1.94.5 2.1 1.86a10 10 0 0 1-.36 3.08q-.86 4.22-1.93 8.4a183 183 0 0 1-4.96 16.98c-.87 2.42 2.99 3.47 3.85 1.06a189 189 0 0 0 5.55-19.34 75 75 0 0 0 1.82-8.73 8 8 0 0 0-.93-4.86 5.9 5.9 0 0 0-5.13-2.46c-2.58-.03-2.58 3.97 0 4Z" class="c"/><path d="M17.13 84.98a.75.75 0 0 1-1.46.01c-.83-3.19-2.12-7-4.07-9.28-2.38-2.77-5.82-3.95-9.01-4.63a.75.75 0 0 1 0-1.47c3.16-.67 6.64-1.85 8.96-4.35 2.2-2.38 3.45-7.17 4.15-10.42a.76.76 0 0 1 1.47-.02c.78 3.25 2.16 8.05 4.37 10.44 2.3 2.47 5.6 3.65 8.67 4.32a.75.75 0 0 1-.01 1.48c-3.27.65-6.86 1.78-9.24 4.55-1.96 2.27-3.08 6.14-3.83 9.36" style="fill:#ffda71"/><path d="m15.2 84.44-.1.26.52-.88.26-.19h1.06q.8.94.46.09l-.22-.76q-.2-.69-.42-1.36-.5-1.5-1.13-2.97A16 16 0 0 0 12.75 74a14 14 0 0 0-4.52-3.2c-1.74-.8-3.58-1.06-5.35-1.74l.89.52v1.53l-.89.51c.9-.34 1.9-.46 2.83-.75a23 23 0 0 0 3.04-1.19 13 13 0 0 0 4.93-3.89 19 19 0 0 0 2.56-5.24c.6-1.76.82-3.69 1.47-5.41l-.51.88-1.54-.01-.51-.89c.7 1.72.96 3.66 1.6 5.42a20 20 0 0 0 2.56 5.12 13 13 0 0 0 4.73 3.9 22 22 0 0 0 3.03 1.25c.93.3 1.93.44 2.84.8l-.89-.52v-1.53l.88-.52c-1.75.64-3.6.88-5.32 1.62a14 14 0 0 0-4.78 3.24c-2.64 2.85-3.73 6.86-4.6 10.54-.59 2.5 3.27 3.57 3.86 1.06.74-3.15 1.55-6.85 3.97-9.18a11 11 0 0 1 4.31-2.46c1.41-.47 3.6-.51 4.68-1.62a2.77 2.77 0 0 0-1.05-4.5 45 45 0 0 1-4.74-1.54 10 10 0 0 1-3.76-2.95 17 17 0 0 1-2.11-4.5c-.52-1.53-.8-3.17-1.36-4.69a2.75 2.75 0 0 0-4.28-1.2c-1.22.98-1.3 3.04-1.68 4.47a23 23 0 0 1-1.74 4.74c-1.61 3.08-4.72 4.48-7.95 5.3-1.66.43-3.42.99-3.35 3.08.08 2.2 2.15 2.52 3.84 3a14 14 0 0 1 5.07 2.42 11.6 11.6 0 0 1 3.16 4.54 30 30 0 0 1 1.08 3.03 13 13 0 0 0 .9 2.82 2.8 2.8 0 0 0 2.88 1.23 2.9 2.9 0 0 0 2.13-1.98 2 2 0 0 0-1.4-2.46 2.05 2.05 0 0 0-2.46 1.4" class="c"/></svg>
