<svg viewBox="-39.83 0 307.026 307.026" xmlns="http://www.w3.org/2000/svg"><defs><style>.a{fill:#a98a75;}.b{fill:#ffffff;}.c{fill:#211715;}.d{fill:#f8b8b4;}.e{fill:#a0a0a0;}</style></defs><path class="a" d="M183.389,156.636c12.071-4.156,12.395-11.5,12.563-15.778a43.95,43.95,0,0,0-2.1-15.534c-2.007-6.885-5.662-20.859-4.744-45.459,1.029-7.091.869-17.412.773-21.381-.389-16.063-9.149-34.726-20.9-42.209C154.835,4.607,141.954,1.866,129.081,2.509c-18.256.913-32.938,7.967-42.779,19.557-5.681,6.691-9.765,16.415-11.328,25.081a89.466,89.466,0,0,0,.543,30.265c1.5,19.306-4.507,39.572-3.328,55.369.36,5.021,2.764,11.092,9.63,15.972,0,0,24.3,7.556,34.7,7.556C130.655,156.309,183.389,156.636,183.389,156.636Z"/><path class="b" d="M161.937,75.743,172.054,78.1a7.758,7.758,0,0,1,5.615-1.164c3.831.63,5.213,2.827,5.764,4.081,1.646,3.751.723,10.136-1.212,13.917a20.3,20.3,0,0,1-7.782,8.936,14.941,14.941,0,0,1-7.339,1.6c-.274.546-.521,1.046-.521,1.046-.956,1.934-3.2,5.312-3.2,5.312a67.013,67.013,0,0,1-9.268,10.936q.679,3.567,1.365,7.14a26.836,26.836,0,0,0,1.46,5.486c2,4.7,7.008,7.594,11.233,10.467l2.74,1.863a77.861,77.861,0,0,1-44.1,14.163c-6.2,0-12.5-.788-18.271-3.38a29.39,29.39,0,0,1-13.2-11.8c3.836-1.383,8.06-2.869,10.743-4.084,2.886-1.014,6.554-2.969,6.48-6.4-7.981-.842-15.016-4-21.711-9.621C82.74,119.8,79.105,109.343,77.764,97.735q-.09-.777-.166-1.562c-.687-7.051-1.266-14.715-2.181-22.376l7.57-20.4c12.608-.009,50.537-.054,73.845-.028Z"/><path class="c" d="M172.153,21.838c7.281,7.1,11.857,16.909,14.07,26.743a68.419,68.419,0,0,1,1.329,15.006c.009,2.837-.032,5.675-.162,8.51s-.606,5.672-.7,8.5a164.821,164.821,0,0,0,1.643,31.014q.749,4.8,1.906,9.531c.8,3.222,1.856,6.379,2.542,9.627a39.2,39.2,0,0,1,.809,9.163c-.024.889-.056,1.781-.127,2.668-.014.172-.133,1.216-.058.681q-.091.648-.233,1.288a10.132,10.132,0,0,1-1.993,4.378,16.753,16.753,0,0,1-6.466,4.624,2.418,2.418,0,0,0-.861,3.283,2.457,2.457,0,0,0,3.284.861c4.456-2.022,8.265-5.207,10.054-9.856,1.31-3.407,1.333-7.434,1.174-11.026-.344-7.789-3.315-15.146-4.758-22.759a146.08,146.08,0,0,1-2.221-28.969c.075-6.011.868-11.965.952-17.986A92.73,92.73,0,0,0,191.5,50.59c-1.951-11.757-7.346-23.755-15.948-32.146-2.213-2.158-5.61,1.232-3.394,3.394Z"/><path class="c" d="M72.777,73.976c1.412,11.42-.02,22.907-1.427,34.253-.665,5.36-1.347,10.73-1.611,16.128-.215,4.4-.364,9.1.936,13.359a25.564,25.564,0,0,0,9.933,13.109,2.418,2.418,0,0,0,3.284-.861,2.453,2.453,0,0,0-.861-3.283A20.182,20.182,0,0,1,75.3,136.44c-1.172-3.845-.965-8.137-.754-12.283.539-10.549,2.5-20.971,3.272-31.5a95.4,95.4,0,0,0-.244-18.678,2.476,2.476,0,0,0-2.4-2.4,2.414,2.414,0,0,0-2.4,2.4Z"/><path class="c" d="M107.446,115.387a16.672,16.672,0,0,0,7.974,1.726,16.287,16.287,0,0,0,4-.524,30.183,30.183,0,0,0,4.306-1.865,2.41,2.41,0,0,0,.861-3.284,2.471,2.471,0,0,0-3.284-.861c-.6.27-1.185.569-1.778.855-.143.069-.286.136-.43.2-.644.3.211-.049-.156.067-.237.074-.467.164-.706.232s-.488.127-.735.179c-.127.026-.255.051-.383.073-.055.01-.482.076-.172.032s-.127.012-.183.017c-.136.014-.272.025-.408.035q-.468.034-.936.041c-.563.009-1.127-.011-1.688-.057-.14-.011-.28-.026-.42-.039-.248-.023-.212-.026.013.007-.273-.04-.545-.085-.816-.138a13.723,13.723,0,0,1-1.633-.42c-.12-.039-.24-.08-.358-.123-.056-.021-.447-.162-.142-.047s-.065-.03-.122-.059c-.129-.064-.258-.127-.385-.195a2.4,2.4,0,0,0-2.423,4.145Z"/><path class="c" d="M124.514,86.591c-.643-2.5.119-8.15,4.812-8.413,6.172.328,6.179,7.2,3.949,10.327C131.449,91.065,126.394,91.927,124.514,86.591Z"/><path class="c" d="M87.807,86.017c-.586-2.508.119-8.176,4.418-8.446,5.651.32,5.648,7.215,3.6,10.355C94.151,90.5,89.521,91.368,87.807,86.017Z"/><path class="c" d="M106.82,92.063c-.81,1.325-1.592,2.675-2.283,4.067a5.941,5.941,0,0,0-.713,2.239,3.243,3.243,0,0,0,1.037,2.572,5.092,5.092,0,0,0,2.022,1.2,8.478,8.478,0,0,0,1.541.229l-.638-.086c.041.005.081.011.121.018a2.618,2.618,0,0,0,1.85-.242,2.4,2.4,0,0,0,.861-3.284,2.329,2.329,0,0,0-1.435-1.1c-.405-.064-.813-.1-1.221-.153l.638.086a2.776,2.776,0,0,1-.677-.181l.573.242a2.883,2.883,0,0,1-.5-.306l.486.375a3.085,3.085,0,0,1-.418-.4l.376.485a.724.724,0,0,1-.087-.15l.242.573A1.258,1.258,0,0,1,108.53,98l.086.638a1.874,1.874,0,0,1,.008-.27l-.086.638a2.718,2.718,0,0,1,.161-.558l-.242.573a36.4,36.4,0,0,1,2.508-4.537,2.4,2.4,0,0,0-4.145-2.422Z"/><path class="c" d="M152.661,127.226a66.652,66.652,0,0,0,10.5-11.039,54.791,54.791,0,0,0,5.487-8.458,2.459,2.459,0,0,0-.861-3.284,2.425,2.425,0,0,0-3.284.861,59.361,59.361,0,0,1-15.239,18.526,2.417,2.417,0,0,0,0,3.394,2.453,2.453,0,0,0,3.394,0Z"/><path class="c" d="M165.78,10.815A57.309,57.309,0,0,0,136.982.186a69.486,69.486,0,0,0-28.3,3.822A57.006,57.006,0,0,0,86.477,18.281a55.733,55.733,0,0,0-13.432,26.3c-2.4,10.958-1.976,22.922.239,33.868a2.4,2.4,0,0,0,4.629-1.276,81.394,81.394,0,0,1-.82-28.221c1.4-8.958,5-18.222,10.907-25.19C99.224,10.509,116.527,4.541,133.591,4.831A52.829,52.829,0,0,1,163.357,14.96a2.422,2.422,0,0,0,3.284-.861,2.451,2.451,0,0,0-.861-3.284Z"/><path class="c" d="M139.6,128.736c-12.03,5.349-26.184,7.806-38.462,1.789a35.3,35.3,0,0,1-14.4-12.224c-3.45-5.4-5.228-11.658-6.221-17.942-.654-4.141-.915-8.349-1.291-12.522-.422-4.685-.86-9.368-1.414-14.04a2.475,2.475,0,0,0-2.4-2.4,2.414,2.414,0,0,0-2.4,2.4c1,8.45,1.413,16.975,2.53,25.408.933,7.045,2.692,14.088,6.3,20.277,7.129,12.249,21.436,19.434,35.4,19.371,8.672-.04,16.915-2.474,24.783-5.972a2.417,2.417,0,0,0,.861-3.284,2.459,2.459,0,0,0-3.283-.861Z"/><path class="c" d="M173.265,80.169a5.916,5.916,0,0,1,7.355.8c.188.2.024,0-.01-.041.066.084.126.174.185.263.125.191.234.389.349.586a4.066,4.066,0,0,1,.425,1.2,13.42,13.42,0,0,1,.252,4.429c-.437,5.544-3.662,11.6-8.594,14.39a5.235,5.235,0,0,1-1.338.576,16.317,16.317,0,0,1-2.219.563,7.979,7.979,0,0,1-4.7-.369,2.464,2.464,0,0,0-3.283.861,2.421,2.421,0,0,0,.861,3.284c3.8,1.817,8.318,1.358,12.107-.29,3.535-1.537,6.372-4.675,8.34-7.917a24.988,24.988,0,0,0,3.594-10.727c.335-3.509-.107-7.364-2.5-10.113-3.168-3.647-9.294-4.214-13.252-1.638-2.579,1.678-.176,5.836,2.423,4.144Z"/><path class="c" d="M151.861,123.773c.648,3.385,1.122,6.87,2.049,10.193a16.944,16.944,0,0,0,4.577,7.68,46.283,46.283,0,0,0,6.775,5.152c2.893,1.929,5.759,3.9,8.634,5.854,2.561,1.741,4.965-2.416,2.423-4.145-2.721-1.85-5.431-3.717-8.168-5.543a44.627,44.627,0,0,1-6-4.457,12.533,12.533,0,0,1-3.723-6.24c-.829-3.2-1.314-6.521-1.937-9.77a2.423,2.423,0,0,0-2.952-1.677,2.451,2.451,0,0,0-1.676,2.953Z"/><path class="c" d="M110.154,136.217a2.388,2.388,0,0,1-.687,1.726,7.559,7.559,0,0,1-2.218,1.593,47.8,47.8,0,0,1-5.17,2.155c-4.3,1.651-8.682,3.066-12.951,4.788a2.476,2.476,0,0,0-1.677,2.952,2.417,2.417,0,0,0,2.953,1.676c4.752-1.917,9.653-3.442,14.406-5.358,4.2-1.694,10.1-3.785,10.144-9.532.022-3.089-4.778-3.093-4.8,0Z"/><path class="b" d="M167.732,62.685l22.479-5.928A45.748,45.748,0,0,1,190.9,68.51c-.332,7.5-2.124,11.287-2.124,11.287l-20.183,5.322"/><path class="c" d="M168.37,65l22.479-5.928L187.9,57.4c.058.243.1.489.148.734.052.285.1.572.14.858.1.647-.062-.545.025.188q.043.365.083.73a57.811,57.811,0,0,1,.212,8.364,38.41,38.41,0,0,1-1.079,7.938c-.18.7-.383,1.4-.627,2.085-.072.2-.182.408-.234.615.018-.074.287-.65.134-.321l1.434-1.1L167.95,82.805c-2.984.787-1.718,5.418,1.276,4.628l13.215-3.484c2.235-.59,4.522-1.086,6.728-1.774a3.009,3.009,0,0,0,2.109-2.2c2.18-5.619,2.348-12.235,1.972-18.166a33.145,33.145,0,0,0-.725-5.685,2.435,2.435,0,0,0-2.952-1.676L167.094,60.37c-2.985.787-1.719,5.418,1.276,4.629Z"/><path class="b" d="M156.832,53.365c-23.308-.026-61.237.019-73.845.028a25.439,25.439,0,0,0-8.529,1.466q-2.167.773-4.313,1.608a11.7,11.7,0,0,0-7.413,11.1c.1,6.342.232,12.271.252,21.044a11.7,11.7,0,0,0,11.7,11.679l71.239,0a42.32,42.32,0,0,0,15.2-2.818l.163-.063a11.7,11.7,0,0,0,7.5-11.038c-.073-6.822-.18-14.974-.269-21.467A11.694,11.694,0,0,0,156.832,53.365Z"/><path class="c" d="M156.832,50.965q-27.711-.03-55.421.012l-11.353.01c-3.1,0-6.27-.168-9.359.108a34.369,34.369,0,0,0-9.041,2.238A19.959,19.959,0,0,0,64.9,56.957a14.211,14.211,0,0,0-3.867,6.019,20.681,20.681,0,0,0-.664,7.092c.084,5.07.169,10.14.2,15.21.015,2.573-.123,5.188.7,7.665A14.129,14.129,0,0,0,70.99,102.2c2.512.677,5.16.488,7.732.487h61.8a75.826,75.826,0,0,0,13.543-.755c4.96-.891,10.6-2.388,13.892-6.486a14.083,14.083,0,0,0,3.031-6.679,50,50,0,0,0,.136-8.054q-.054-4.512-.114-9.025c-.034-2.587.1-5.245-.15-7.821a14.242,14.242,0,0,0-7.341-11.214,14.632,14.632,0,0,0-6.683-1.69c-3.09-.048-3.091,4.752,0,4.8a9.431,9.431,0,0,1,8.615,5.774,15.532,15.532,0,0,1,.7,5.818q.054,3.965.1,7.929.053,4.154.1,8.3c.025,2.234.209,4.469-.706,6.572-1.795,4.126-5.913,5.491-9.962,6.516a54.107,54.107,0,0,1-13.5,1.21H77.652c-2.151,0-4.294.166-6.341-.618A9.354,9.354,0,0,1,65.4,89.138c-.234-5.024-.079-10.092-.161-15.123-.066-4.019-.81-8.421,1.54-11.951a9.36,9.36,0,0,1,4.434-3.449,42.522,42.522,0,0,1,7.86-2.5c3.095-.558,6.374-.323,9.512-.326l10.122-.009q26.176-.023,52.352-.019l5.774.005C159.921,55.768,159.926,50.968,156.832,50.965Z"/><path class="c" d="M146.627,70.321c.09,6.632.017,13.267.017,19.9,0,3.089,4.8,3.094,4.8,0,0-6.632.073-13.267-.017-19.9-.042-3.086-4.842-3.095-4.8,0Z"/><path class="c" d="M85.875,66.172c16.195,0,32.391-.046,48.587,0,2,.006,4.014-.034,6.015.046,3.089.124,3.084-4.676,0-4.8-5.113-.2-10.261-.056-15.376-.059q-13.372-.008-26.744.007-6.242,0-12.482.006c-3.089,0-3.094,4.8,0,4.8Z"/><path class="d" d="M177.126,299.746c11.055,4.556,20.229,4.161,26.64,2.135,8.382-2.418,13.383-9.016,16.2-15.09,6.051-13.026,5.805-39.232,3.324-60.232-2.4-20.3-6.421-38.153-20.3-55.1-6.8-8.3-19.958-19.168-31-24.508a78.061,78.061,0,0,1-45.188,14.934c-6.2,0-12.492-.792-18.276-3.384a29.411,29.411,0,0,1-13.828-12.9c-14.559,5.076-21.365,6.942-30.374,15.33-6.944,6.465-10.133,10.651-14.292,18.848l-6.23-1.083-30.093,56.48a10.89,10.89,0,0,0-5.526,7.191c.339,6.788,7.382,28.531,10.519,35.39a54.46,54.46,0,0,0,8.981,13.393,20.542,20.542,0,0,0,14.252,6.525c8.173.094,19.558-7.652,22.1-13.865,0,0,.534-1.306,1.394-3.416-.235,5.529-.822,14.44-1.567,24.237H198.514"/><path class="c" d="M92.7,146.92c12.171,21.973,42.551,19.848,62.713,11.8a84.432,84.432,0,0,0,17.791-9.69,2.467,2.467,0,0,0,.861-3.283,2.419,2.419,0,0,0-3.284-.861,78.551,78.551,0,0,1-30.219,13.241,69.977,69.977,0,0,1-16.022,1.322c-5.588-.188-11.323-1.152-16.324-3.766A27.554,27.554,0,0,1,96.842,144.5c-1.5-2.7-5.644-.285-4.145,2.422Z"/><path class="c" d="M94.405,143.164c-7.374,2.573-15.065,4.812-21.895,8.683a62.122,62.122,0,0,0-17.136,14.971,66.316,66.316,0,0,0-7.406,11.745c-1.4,2.746,2.741,5.178,4.145,2.422a65.224,65.224,0,0,1,6-9.94,67.386,67.386,0,0,1,8.048-8.544A50.645,50.645,0,0,1,82.5,152.471c4.347-1.688,8.782-3.143,13.183-4.678a2.459,2.459,0,0,0,1.676-2.952,2.422,2.422,0,0,0-2.952-1.677Z"/><path class="c" d="M12.506,233.1a13.517,13.517,0,0,0-4.771,4.364c-1,1.488-2.065,3.616-1.905,5.444a52.039,52.039,0,0,0,1.492,7.929c1.661,6.7,3.753,13.31,6.058,19.813.937,2.644,1.915,5.279,3.048,7.846a53.227,53.227,0,0,0,6.73,11,27.267,27.267,0,0,0,9.982,8.484,20.525,20.525,0,0,0,12.832,1.652,31.738,31.738,0,0,0,11.967-5.568c3.223-2.348,6.579-5.292,8.172-9.046a2.482,2.482,0,0,0-.861-3.283,2.416,2.416,0,0,0-3.284.861,18.058,18.058,0,0,1-5.814,6.846,29.879,29.879,0,0,1-9.037,4.913,15.535,15.535,0,0,1-10.1.043,20.557,20.557,0,0,1-9.055-6.54,50.867,50.867,0,0,1-6.716-10.336c-.275-.56-.532-1.127-.785-1.7-.24-.542.072.183-.1-.233q-.185-.442-.363-.889c-.478-1.194-.932-2.4-1.373-3.606-2.175-5.951-4.109-12.005-5.782-18.116A87.992,87.992,0,0,1,10.8,244.22c-.024-.144-.143-.938-.106-.665.04.294-.049-.439-.061-.566-.01-.105.006-.628-.03-.361a5.136,5.136,0,0,1,.481-1.341,8.647,8.647,0,0,1,3.841-4.044c2.709-1.485.29-5.632-2.423-4.144Z"/><path class="c" d="M62.351,220.088c-.6,2.831-1.212,5.674-1.537,8.553a54.065,54.065,0,0,0-.106,6.8A132.866,132.866,0,0,0,61.8,252.106a161.093,161.093,0,0,1,1.093,31.163c-.372,7.125-.889,14.243-1.429,21.357a2.421,2.421,0,0,0,2.4,2.4,2.447,2.447,0,0,0,2.4-2.4c.869-11.456,1.806-22.942,1.737-34.439a125.7,125.7,0,0,0-1.111-16.174A148.4,148.4,0,0,1,65.565,238.1c-.076-2.751-.167-5.528-.048-8.279a53.77,53.77,0,0,1,1.462-8.459c.641-3.013-3.985-4.3-4.628-1.276Z"/><path class="c" d="M176.488,302.06c12.9,5.249,29.638,5.772,39.762-5.289,8.778-9.591,10.37-23.264,10.926-35.711a220.906,220.906,0,0,0-2.994-45.423c-2.409-14.669-7.071-28.9-15.8-41.075A88.375,88.375,0,0,0,194,159.066a106.041,106.041,0,0,0-17.972-12.731q-2.179-1.194-4.449-2.211a2.473,2.473,0,0,0-3.283.861,2.417,2.417,0,0,0,.861,3.283,83.447,83.447,0,0,1,17.248,10.743,96.655,96.655,0,0,1,14.4,13.546c9.179,10.9,14.656,24.066,17.554,37.912a211.024,211.024,0,0,1,4.181,42.9,125.165,125.165,0,0,1-1.376,20.315c-.9,5.461-2.268,10.638-5.058,15.284a23.328,23.328,0,0,1-13.932,10.882,34.729,34.729,0,0,1-18.4-.357,52.9,52.9,0,0,1-6.014-2.061,2.416,2.416,0,0,0-2.953,1.676,2.459,2.459,0,0,0,1.677,2.952Z"/><path class="e" d="M42.074,186.368a74.263,74.263,0,0,0,2.078-9.954,3.767,3.767,0,0,0-.145-1.42,2.13,2.13,0,0,0-.663-.9c-3.669-2.211-7.647-3.2-11.938-4.06a23.7,23.7,0,0,0-5.054-.542,4.092,4.092,0,0,0-2.363.564A6.328,6.328,0,0,0,22.2,171.7c-1.16,1.823-2.1,3.671-3.393,5.786l-3.122,6.774,25.1,10.012Z"/><path class="e" d="M129.469,250.2c-.762-.955-5.408-7.04-6.015-8.121a6.012,6.012,0,0,1-.736-1.8,2.461,2.461,0,0,1,.052-1.175c.384-2.258,1.915-3.56,3.39-4.785,4.785-3.975,16.127-10.992,21.636-13.7a5.308,5.308,0,0,1,5.138.175c1.856,1.412,3.136,2.075,3.858,4.408l9.214,13.684-30.9,18.579Z"/><path class="b" d="M13.445,242.468c-1.155-.65-2.173-1.556-2.23-2.61L4.27,221.428c-1.345-3.632-1.883-5.689-1.879-8.73a19.325,19.325,0,0,1,1.158-6.874c1.163-3.4,2.378-5.963,3.2-8.914.831-2.994,1.447-5.792,2.314-8.586a45.579,45.579,0,0,1,1.314-4.943c1.34-3.028,3.054-5.034,6.878-5.135a21.32,21.32,0,0,1,4.5.481,79.254,79.254,0,0,1,9.909,3.083,9.676,9.676,0,0,1,2.963,1.851c1.806-.1,3.651-.2,3.651-.2a3.867,3.867,0,0,1,2.869,1.41c1.032,1.094,1.723,3.381,2.142,5.465,3.209,15.971,7.266,27.268-2.555,42.093a8.788,8.788,0,0,0-1.414,5.194,5.124,5.124,0,0,1-3.43,4.895,38.788,38.788,0,0,1-19.959.934A9.913,9.913,0,0,1,13.445,242.468Z"/><path class="b" d="M180.539,254.277c-.647-.749-1.292-1.527-1.932-2.347-1.931-2.476-4.43-6.991-6.375-10.236-3.742-6.244-3.958-11.238-9.125-16.673-.976-1.028-3.957-1.027-5.265-.078a6.515,6.515,0,0,0-2.43,6.6c.878,3.95,1.695,7.87,3.838,11.4a82.961,82.961,0,0,0-12.983-.754,11.189,11.189,0,0,0-2.52.41,12.172,12.172,0,0,0-3.094,1.285c-3.651,2.211-6.947,4.932-10.416,7.228a6.441,6.441,0,0,0-1.594,8.41c1.78,3.014,4.925,2.912,7.019,2.226-.088.366-.146.609-.146.609a8.7,8.7,0,0,0,.163,6.613,4.656,4.656,0,0,0,4.617,2.535c.064-.009.128-.019.192-.032-.018,1.385-.033,2.555-.033,2.555,0,1.87.378,3.956,1.953,5.073a5.486,5.486,0,0,0,4.741.417c-.108.213-.169.335-.169.335a3.3,3.3,0,0,0,.4,3.578,3.492,3.492,0,0,0,3.375.983,17.091,17.091,0,0,1,4.071.352c1.846.43,3.087,1.916,4.555,3.081a14.3,14.3,0,0,0,6.26,2.426c3.9.393,8.575.8,13.247-.244a24.181,24.181,0,0,0,8.52-11.213,36.786,36.786,0,0,0,2.4-12.557,4.727,4.727,0,0,0-1.161-3.221C186,260.025,183.246,257.409,180.539,254.277Z"/><path class="c" d="M20.349,192.878c1.811.422,3.627.821,5.442,1.224a28.438,28.438,0,0,0,5.039.941,8.059,8.059,0,0,0,5.094-1.274,7.183,7.183,0,0,0,2.792-4.78,8.532,8.532,0,0,0-4.149-8.377c-2.728-1.718-6.174-2.561-9.247-3.43-3.056-.865-6.281-1.643-9.473-1.207a9.388,9.388,0,0,0-7.2,5.46A22.562,22.562,0,0,0,7.028,186.6c-.464,2.008-1.114,3.981-1.626,5.979-1.012,3.948-2.384,7.655-3.77,11.479A24.163,24.163,0,0,0,.175,215.49c.5,3.864,2.121,7.479,3.485,11.1l4.726,12.543c.6,1.587.929,3.133,2.313,4.325a11.28,11.28,0,0,0,4.246,2.22,35.583,35.583,0,0,0,10.79,1.026c3.847-.139,8.146-.606,11.682-2.237a7.415,7.415,0,0,0,3.6-3.652c.773-1.713.455-3.451.9-5.209.454-1.785,1.769-3.283,2.658-4.872A41.365,41.365,0,0,0,47.1,225.3c2.509-6.575,2.535-13.523,1.513-20.4-.522-3.515-1.287-6.99-2.029-10.464-.737-3.446-1.042-7.633-3.185-10.558a6.735,6.735,0,0,0-5.131-2.818,2.421,2.421,0,0,0-2.4,2.4,2.447,2.447,0,0,0,2.4,2.4c1.029.076,1.523,1.161,1.856,2.009a32.2,32.2,0,0,1,1.27,5.2c.656,3.139,1.363,6.268,1.96,9.418,1.035,5.468,1.7,11.152.553,16.659a31.852,31.852,0,0,1-3.166,8.594c-.758,1.411-1.707,2.708-2.47,4.11a11.849,11.849,0,0,0-1.36,5.333,3.109,3.109,0,0,1-.993,2.611c-1.079.877-2.873,1.107-4.193,1.392a36.88,36.88,0,0,1-9.711.687c-2.468-.131-5.383-.3-7.518-1.565a5.036,5.036,0,0,1-.893-.7l.019.107q-.025.54-.1-.491a11.963,11.963,0,0,0-.514-1.365l-2.033-5.4L6.927,221.7a25.617,25.617,0,0,1-2.133-8.628c-.051-3.457.956-6.452,2.181-9.641A93.322,93.322,0,0,0,10.2,193.18c.425-1.65.949-3.276,1.364-4.928a20.8,20.8,0,0,1,1.294-4.537c1.047-2.051,2.27-3.073,4.695-3.073a29.727,29.727,0,0,1,8.561,1.779c2.282.7,5.776,1.423,7.209,3.371a3.338,3.338,0,0,1,.561,2.94c-.42,1.336-1.412,1.517-2.688,1.517a19.521,19.521,0,0,1-4.133-.776c-1.815-.4-3.631-.8-5.442-1.223-3-.7-4.288,3.927-1.276,4.628Z"/><path class="c" d="M20.874,178.7c.935-1.546,1.794-3.135,2.719-4.687a5.452,5.452,0,0,1,1.285-1.662,2.711,2.711,0,0,1,1.937-.454,36.259,36.259,0,0,1,9.949,1.911,29.36,29.36,0,0,1,4.606,1.92c.105.053.462.262.453.253-.152-.14.043-.464-.059.05-.094.475-.063.781-.14,1.262a69.316,69.316,0,0,1-1.864,8.442c-.866,2.972,3.765,4.241,4.629,1.276a51.618,51.618,0,0,0,2.163-10.592c.308-4.454-4.65-5.989-8.1-7.108-3.885-1.261-8.411-2.435-12.524-2.208-5.1.282-6.923,5.412-9.2,9.175-1.6,2.65,2.546,5.065,4.144,2.422Z"/><path class="c" d="M30.651,195.868a10.194,10.194,0,0,1,1.189.76c-.426-.314.253.219.325.282q.233.2.457.418c.27.258.514.536.773.8s-.37-.549-.048-.054c.06.093.122.184.18.278.138.225.245.464.371.695.191.352-.222-.623-.023-.045.038.109.077.217.112.327a7.252,7.252,0,0,1,.2.783c.015.076.029.151.042.227.039.251.026.152-.037-.295a1.834,1.834,0,0,0,.035.4,6.406,6.406,0,0,1,0,.8c-.025.361-.2.328.03-.136a1.947,1.947,0,0,0-.074.381c-.029.125-.062.249-.1.372-.029.093-.216.563-.03.122s-.019.019-.066.1c-.061.112-.132.216-.2.325-.26.433.377-.374.077-.1-.094.087-.175.19-.269.278-.04.039-.082.076-.125.113q-.279.229.218-.164c-.044-.012-.293.191-.345.221-.121.07-.262.119-.378.2.541-.356.284-.117.034-.038-.151.048-.3.088-.46.122-.667.147.37-.023-.084.027a2.459,2.459,0,0,0-2.4,2.4,2.424,2.424,0,0,0,2.4,2.4,7.658,7.658,0,0,0,4.41-1.769A6.484,6.484,0,0,0,38.8,202.82a9.22,9.22,0,0,0-1.276-7.119,12.938,12.938,0,0,0-4.448-3.978,2.4,2.4,0,1,0-2.423,4.145Z"/><path class="c" d="M19.678,202.686a32.645,32.645,0,0,1,6.605,2.153,29.633,29.633,0,0,1,3.141,1.676,7.268,7.268,0,0,1,2.268,1.923c-.16-.208.21.35.259.435.061.107.118.216.174.326-.022-.044-.1-.27,0-.007a7.218,7.218,0,0,1,.213.7c.072.264.026.025.017-.038a3.547,3.547,0,0,1,.028.483,3.236,3.236,0,0,1-.023.483c.009-.065.054-.3-.023-.042-.033.11-.059.222-.1.33.02-.053.149-.293.01-.066-.058.095-.112.193-.173.287.027-.041.214-.242.027-.046-.077.081-.156.159-.235.238.164-.164.12-.064-.043.031a3.357,3.357,0,0,1-.386.211c.1-.043.26-.053.061-.056-.27-.005.056.013.105.009a2.38,2.38,0,0,1-.327,0c-.271-.018,0-.013.035,0s-.391-.117-.244-.065c-.181-.064-.613-.285-.871-.408-1.072-.509-2.152-1-3.245-1.461a43.761,43.761,0,0,0-7.194-2.322,2.4,2.4,0,1,0-1.276,4.628c1.31.3,2.61.645,3.888,1.065q.849.279,1.684.6c.26.1.518.2.776.307.046.018.5.208.273.111-.185-.078.405.176.392.171,1.343.588,2.643,1.289,4.009,1.824a5.365,5.365,0,0,0,4.647-.412,6.508,6.508,0,0,0,2.512-8.069c-1.156-2.862-3.556-4.686-6.2-6.111a36.22,36.22,0,0,0-9.509-3.518,2.4,2.4,0,1,0-1.276,4.628Z"/><path class="c" d="M28.742,215.9a2.649,2.649,0,0,1,.265.5c.01-.015-.15-.453-.049-.08a2.68,2.68,0,0,0,.125.486c-.1-.105-.041-.543-.022-.088.006.127,0,.253,0,.38,0,.431.1-.4.016-.131-.034.111-.064.229-.091.342-.107.449.261-.453.028-.067-.046.076-.094.154-.136.232-.2.381.37-.356.054-.072-.077.07-.16.146-.231.222-.176.189.477-.269.128-.115-.116.052-.231.119-.342.18-.255.14.445-.139.02-.021-.162.045-.32.1-.484.133-.083.019-.567.095-.175.043s-.143,0-.182.007c-.142.008-.283.012-.425.013-.288,0-.576-.01-.864-.03q-.857-.057-1.714-.1c-.592-.032-1.183-.065-1.774-.114-.331-.027-.662-.058-.992-.1-.179-.021-.522.035.014,0a2.489,2.489,0,0,1-.526-.086,2.589,2.589,0,0,0-1.849.242,2.4,2.4,0,0,0,.573,4.386,40.993,40.993,0,0,0,4.895.484,13.184,13.184,0,0,0,4.7-.227,5.73,5.73,0,0,0,3.84-3.541,6.321,6.321,0,0,0-.654-5.3,2.4,2.4,0,0,0-4.145,2.423Z"/><path class="c" d="M161.646,240.882c-2.939-.443-5.889-.815-8.858-.97a37.284,37.284,0,0,0-8.429.1c-3.16.571-5.761,2.248-8.346,4.063-2.49,1.748-5.053,3.471-7.465,5.323-4.417,3.391-4.213,10.939.522,13.972,3.492,2.236,7.388.928,10.6-1.033q2.9-1.775,5.862-3.46A20.857,20.857,0,0,1,147.7,257.7a6.943,6.943,0,0,1,3.964-.133,2.466,2.466,0,0,0,2.952-1.676,2.421,2.421,0,0,0-1.676-2.953c-2.716-.484-5.184-.569-7.727.649-1.339.641-2.619,1.43-3.9,2.178-1.53.893-3.054,1.8-4.561,2.729-.439.271-.869.549-1.326.791-.338.179.552-.185-.1.045-.144.05-.287.1-.433.146s-.308.085-.462.129c0,0-.74.148-.354.094a2.97,2.97,0,0,1-3.359-1.388,4.144,4.144,0,0,1,.433-4.837,16.389,16.389,0,0,1,2.511-1.815c1.167-.831,2.319-1.682,3.481-2.52,2.106-1.518,4.335-3.369,6.857-4.119,2.551-.758,5.4-.456,8.034-.344a78.493,78.493,0,0,1,8.338.835,2.478,2.478,0,0,0,2.953-1.676,2.419,2.419,0,0,0-1.676-2.953Z"/><path class="c" d="M133.444,261.145a9.587,9.587,0,0,0-.844,5.215,9.367,9.367,0,0,0,1.865,5.081,7.145,7.145,0,0,0,4.821,2.475,8.149,8.149,0,0,0,5.208-1.694c1.39-.926,2.778-1.861,4.1-2.877a2.641,2.641,0,0,0,1.1-1.435,2.452,2.452,0,0,0-.242-1.849c-.632-.981-2.218-1.678-3.284-.861-1.291.99-2.642,1.9-4,2.805-.269.18-.536.364-.813.532-.175.106-.354.207-.536.3-.124.064-.249.124-.376.181.252-.107.249-.113-.009-.016-.172.042-.419.186-.591.155q.472-.053.066-.019c-.092,0-.183,0-.275,0-.627-.015.289.126-.158-.011-.192-.06-.388-.115-.58-.174-.169-.063-.108-.038.182.077-.1-.049-.2-.1-.3-.156-.048-.027-.41-.2-.416-.265.269.217.305.243.108.081-.078-.067-.155-.137-.229-.209-.107-.1-.2-.217-.306-.326-.291-.309.3.473-.028-.071a1.752,1.752,0,0,0-.172-.328q.2.489.059.119c-.03-.08-.057-.159-.083-.24-.064-.192-.12-.386-.17-.583q-.067-.26-.118-.523c-.023-.118-.045-.237-.064-.357q.063.505.015.094a12.171,12.171,0,0,1-.051-1.281c.006-.181.02-.359.032-.539q.045-.411-.02.114.027-.171.063-.339c.035-.164.076-.327.125-.487.031-.1.066-.207.1-.309q-.217.489-.054.14a2.4,2.4,0,1,0-4.144-2.423Z"/><path class="c" d="M138.055,274.028a9.683,9.683,0,0,0,1.286,5.246,6.621,6.621,0,0,0,5.51,2.976c3.931.089,7.546-2.346,10.334-4.871a2.417,2.417,0,0,0,0-3.394,2.455,2.455,0,0,0-3.394,0c-.294.267-.59.532-.893.788-.166.14-.334.276-.5.413.257-.21.078-.057-.082.06a14.7,14.7,0,0,1-1.746,1.1c-.3.163-.615.311-.925.461-.41.2.195-.061-.077.036-.161.058-.318.123-.479.179-.324.113-.653.212-.986.292-.2.048-.4.082-.6.124.328-.068.2-.02-.06,0a8.66,8.66,0,0,1-.98-.007c-.287-.011.414.112-.024-.02-.15-.046-.3-.1-.456-.136-.249-.069.329.207-.034-.035-.152-.1-.467-.422-.133-.061a3.85,3.85,0,0,0-.322-.317c-.215-.183.258.44-.007-.007-.076-.129-.156-.253-.225-.385-.239-.454-.061,0-.016,0a3.947,3.947,0,0,1-.259-.876,3.6,3.6,0,0,1-.1-.546c-.047.03.055.52.011-.007-.029-.336-.039-.672-.041-1.009a2.4,2.4,0,1,0-4.8,0Z"/><path class="c" d="M144.908,278.641c-1.142,2.685-.7,5.972,2.052,7.534,1.9,1.078,4.1.479,6.156.726a4.98,4.98,0,0,1,2.169.668c1.041.669,1.883,1.617,2.879,2.35a15.269,15.269,0,0,0,6.06,2.557,44.449,44.449,0,0,0,8.443.614c2.715-.023,6.158.009,8.385-1.684a27.048,27.048,0,0,0,8.882-12.544,37.942,37.942,0,0,0,1.851-7.527c.379-2.717.9-5.8-.335-8.365a13.023,13.023,0,0,0-2.307-2.963c-1-1.088-2.021-2.152-3.04-3.221a82.138,82.138,0,0,1-5.554-6.241,56.011,56.011,0,0,1-3.8-5.915c-1.281-2.167-2.642-4.315-3.765-6.57-2.1-4.213-3.4-8.731-6.3-12.514a9.9,9.9,0,0,0-2.962-3.008,7.127,7.127,0,0,0-3.612-.683,7.333,7.333,0,0,0-6.324,4.328c-1.288,2.752-.857,5.325-.2,8.175a36.6,36.6,0,0,0,3.108,8.95c1.44,2.735,5.584.312,4.144-2.422a28.525,28.525,0,0,1-2.315-6.506c-.428-1.728-1.182-3.642-.695-5.394a2.8,2.8,0,0,1,2.446-2.338,4.31,4.31,0,0,1,.787.019c.281.047.684.32.35.051a11.521,11.521,0,0,1,2.024,2.475c2.257,3.31,3.421,7.161,5.138,10.747a97.5,97.5,0,0,0,6.477,11.092,76.222,76.222,0,0,0,8.882,10.429c1.227,1.292,3.429,2.873,3.474,4.8a28.414,28.414,0,0,1-.722,6.516,27.389,27.389,0,0,1-4.854,11.172c-1.09,1.408-2.741,3.581-4.55,3.963a28.746,28.746,0,0,1-7.366.314A21.048,21.048,0,0,1,163,287.116c-1.881-.764-3.086-2.08-4.693-3.27a11.08,11.08,0,0,0-6.2-1.833c-.626-.039-3.7.582-3.054-.949a2.482,2.482,0,0,0-.861-3.284,2.417,2.417,0,0,0-3.283.861Z"/><path class="c" d="M159.106,224.565c-1.548-4.61-6.812-8.251-11.66-6.389a39.72,39.72,0,0,0-5.262,2.735c-1.9,1.077-3.766,2.2-5.619,3.344a125.575,125.575,0,0,0-10.936,7.437,14.493,14.493,0,0,0-4.405,4.595,7.023,7.023,0,0,0,.326,7.275,96.669,96.669,0,0,0,6.221,8.334,2.414,2.414,0,0,0,3.395,0,2.46,2.46,0,0,0,0-3.394c-.095-.119-.188-.239-.282-.359-.24-.309.032.042.067.088l-.244-.317q-.687-.9-1.37-1.8c-.917-1.212-1.831-2.426-2.721-3.659-.574-.8-1.6-1.893-1.492-2.91.175-1.671,1.906-2.865,3.1-3.831a124.871,124.871,0,0,1,18.247-11.7c1.275-.7,2.8-1.8,4.329-1.553a5.18,5.18,0,0,1,2.1,1.281,4.29,4.29,0,0,1,1.576,2.1c.978,2.913,5.616,1.663,4.628-1.276Z"/></svg>
