<svg xmlns="http://www.w3.org/2000/svg" viewBox="-34.14 0 332.42 332.42"><defs><style>.a{fill:#fff}.b{fill:#7abee6}.c{fill:#211715}.e{fill:#7a7473}</style></defs><path d="M71.66 172.07a30 30 0 0 0-4.58-.28 18 18 0 0 0-8.52 2.02c-4.98 2.74-7.06 8.8-7.23 14.2-.13 2.2-.38 4.37-.56 6.37-.3 3.3.15 6.44 2.26 8.8 1.96 2.2 4.27 5.12 10.88 4.28l1.46.83a41 41 0 0 1 8.84-1.68 10 10 0 0 1 3.37.23c3.47-1.53 6.94-4.86 8.2-7.65a27 27 0 0 0 1.98-11.5c-.38-9.47-7.68-14.42-16.1-15.62m-12.8 56.5-.54-.56a51 51 0 0 1-2.89-3.33 16 16 0 0 1-1.53-1.83l-.17.16c-2.46 2.2-3.8 3.52-6.71 4.35a5 5 0 0 1-3.09.14 9 9 0 0 1-2.25-1.73 7.07 7.07 0 0 0-10.35 1.37c-.87 1.25-1.32 3-.1 4.22a4 4 0 0 1 .71-.06H61.5Z" class="a"/><path d="M73.07 249.4c5.62-1.25 10.47-4.18 12.8-9.38 2.35-5.26 1.77-12.97.92-18.44a27 27 0 0 0-4.12-11.16 8.9 8.9 0 0 0-8.45-3.8c-6.03.59-10.71 1.77-13.07 3.97-2.41 2.25-3.83 4.77-5.83 7.77-.82 1.23-1.83 2.56-1.56 4.14.1.6 1.3 1.71 1.67 2.19a51 51 0 0 0 2.9 3.32Z" class="b"/><path d="M59.74 226.6q-1.36-1.46-2.63-3-.49-.59-.99-1.14a3 3 0 0 1-.46-.57c.19.42.1-.33.2-.6A19 19 0 0 1 58 217.9c.85-1.3 1.68-2.64 2.66-3.86a11 11 0 0 1 5.35-3.86 33 33 0 0 1 8.78-1.6c6.01-.28 8.4 6.04 9.55 10.94 1.28 5.42 1.88 11.76.53 17.21-1.5 6.06-6.52 9.4-12.33 10.74-2.51.58-1.45 4.43 1.06 3.85 6.43-1.48 12.14-5.24 14.53-11.6a28 28 0 0 0 1.4-10.04 55 55 0 0 0-1.14-10.36c-1.36-6.51-4.67-13.99-12.13-14.7a23 23 0 0 0-5.48.42 37 37 0 0 0-5 1.03 15 15 0 0 0-7.44 4.55 42 42 0 0 0-3.45 4.74c-1.05 1.6-2.43 3.24-2.96 5.1-.6 2.12.2 3.56 1.57 5.07 1.16 1.28 2.24 2.63 3.4 3.9 1.75 1.9 4.58-.93 2.83-2.82Zm-7.23-25.2q.45-.03.89-.1a14 14 0 0 0 1.36-.2 2.07 2.07 0 0 0 1.4-2.47l-.2-.48a2 2 0 0 0-.72-.72l-.47-.2a2 2 0 0 0-1.07 0q-.4.09-.8.15l.54-.07-.92.1a2.05 2.05 0 0 0-2 2l.07.53a2 2 0 0 0 .52.88l.4.31a2 2 0 0 0 1 .28Z" class="c"/><path d="M70.94 196.87c.36-.18-.4.1-.03.01.1-.02.55-.07.2-.07h.17c.07 0 .52.03.16 0s.13.04.2.06c.35.08-.36-.23-.04-.02l.1.06q.26.18-.11-.1c0 .08.29.17.27.27l-.14-.19.14.24c.25.36-.1-.37.03.04q.08.2.13.4l.04.2q.04.24-.02-.2c.06.02-.02.8 0 .8q.06-.46.01-.13l-.02.13-.12.46-.07.2c.1-.3-.06.13-.1.2a9 9 0 0 1-.47.76c-.22.33.27-.28-.02.04l-.28.3a7 7 0 0 1-.58.55c-.12.1-.4.25.03-.01l-.3.21a6 6 0 0 1-.66.38l-.24.12.23-.1c-.01.04-.32.1-.39.13q-.23.07-.48.12c-.52.1.31-.02-.12.02a2.2 2.2 0 0 0-1.41.59 2 2 0 0 0 1.4 3.41 8.4 8.4 0 0 0 4.86-2.12 8 8 0 0 0 2.6-4.26 5.7 5.7 0 0 0-1.5-5.4 4.9 4.9 0 0 0-5.5-.57 2 2 0 0 0-.71 2.74 2.05 2.05 0 0 0 2.73.72Zm-12.01-6.72c.27 1 .01 3.28-1.87 3.41-2.47-.1-2.53-2.86-1.66-4.13a1.96 1.96 0 0 1 3.53.72m-6.61 31.44c-1.99 1.79-4.06 3.76-6.85 4.09-1.4.16-2.43-1.48-3.52-2.17a9.07 9.07 0 0 0-12.55 2.93 5.6 5.6 0 0 0-.63 4.68 2.41 2.41 0 0 0 4.32.66 2 2 0 0 0-.72-2.74 2.04 2.04 0 0 0-2.74.72l-.1.15 1.73-1h-.2l1.01.27h.04l.51.88c-.7-1.97 2.17-3.66 3.77-3.9a5 5 0 0 1 2.9.45 21 21 0 0 1 2.87 2.2c2.28 1.57 5.19.74 7.5-.3a22 22 0 0 0 5.49-4.08c1.91-1.73-.92-4.55-2.83-2.83Z" class="c"/><path d="M63.91 205.46c-2.56.3-5.29.15-7.27-1.45a10 10 0 0 1-3.86-6.16 23 23 0 0 1 .18-5.45c.18-1.86.28-3.71.44-5.57a17 17 0 0 1 2.84-8.31c3.78-5.37 11.75-5.44 17.53-4 5.1 1.26 9.85 4.36 11.4 9.61a21.7 21.7 0 0 1-.25 11.42A14.3 14.3 0 0 1 78 204.4c-2.21 1.31-.2 4.77 2.02 3.45a18.4 18.4 0 0 0 8.14-9.25 27.5 27.5 0 0 0 1.45-12.7c-.91-7.09-5.88-12.2-12.46-14.55-6.95-2.49-16.54-2.6-22.25 2.67a18 18 0 0 0-5.06 9.7 48 48 0 0 0-.6 5.7c-.18 2.26-.56 4.53-.55 6.8a13.6 13.6 0 0 0 4.7 10.24c2.92 2.7 6.65 3.45 10.53 3a2.06 2.06 0 0 0 2-2 2 2 0 0 0-2-2Z" class="c"/><path d="M62.79 182.21a6 6 0 0 0 .65 3.6 6 6 0 0 0 2.47 2.49 2 2 0 0 0 1.54.2 2 2 0 0 0 1.4-2.46 2 2 0 0 0-.92-1.2 4 4 0 0 1-.6-.37l.4.32a4 4 0 0 1-.72-.72l.3.4a5 5 0 0 1-.55-.93l.2.47a4 4 0 0 1-.29-1.04l.08.53a5 5 0 0 1 .03-1.29 2 2 0 0 0-.58-1.41 2 2 0 0 0-2.83 0l-.31.4a2 2 0 0 0-.27 1.01m-5.51-3.1a5 5 0 0 0-.54 2.05 6 6 0 0 0 .69 3.15 5 5 0 0 0 .98 1.3 2 2 0 0 0 1.42.6 2 2 0 0 0 1.41-.6 2 2 0 0 0 .59-1.4 2 2 0 0 0-.59-1.42l-.32-.35.31.4a4 4 0 0 1-.48-.82l.2.48a4 4 0 0 1-.27-.98l.07.54a4 4 0 0 1 0-1.02l-.07.54a4 4 0 0 1 .23-.87l-.2.48.03-.05a1.5 1.5 0 0 0 .23-.75 1.5 1.5 0 0 0-.03-.8 2 2 0 0 0-.92-1.2 2 2 0 0 0-1.54-.2 2 2 0 0 0-1.2.93Z" class="c"/><path d="M112.84 236.7c4.9-5.96 9.81-12.1 14.86-18.65a26 26 0 0 0 4.75-10.42c.6-2.86.58-9.41.45-12.34 0 0-.6-4.05-2.03-10.3a34 34 0 0 0-4.63-10.86c-4.62-7.45-13.02-14.04-21.56-17.15-11.19-4.08-22.47-5.27-33.58-1.51a2.83 2.83 0 0 0-1.84 3.98c3.58 9.09 17.22 40.54 21.36 51.45l3.24 7.68A4909 4909 0 0 0 73.5 241.4H32.64v2.16l-6.1-.02a3.8 3.8 0 0 0-3.13 2.43 5.3 5.3 0 0 0 .04 3.7c2.62 9.9 14.09 19.82 22.37 24.04 8.3 4.08 17.26 3.23 25.2.86 12.04-3.6 20.5-13.37 28.65-22.22 4.46-5.21 8.82-10.37 13.17-15.65" style="fill:#febe69"/><path d="m33.92 241.57-4.23-.03c-1.69 0-3.57-.27-5.15.47-2.93 1.37-3.93 4.81-3.15 7.78 1.44 5.52 4.88 10.36 8.75 14.45a57 57 0 0 0 13.28 10.45 31.7 31.7 0 0 0 18.54 3.71 44 44 0 0 0 17.8-5.46 66 66 0 0 0 13.87-11.2c9.27-9.43 17.61-19.82 25.9-30.1q3.85-4.79 7.61-9.63a39 39 0 0 0 6.03-9.75c2.07-5.35 1.96-11.32 1.73-16.97-.1-2.57-4.1-2.58-4 0 .17 4.26.41 8.9-.67 13.06-1.63 6.25-6.04 11.04-9.96 15.99-7.85 9.9-15.8 19.85-24.37 29.16-7.3 7.93-15.15 16.14-25.82 19.26-5.46 1.6-11.33 2.42-16.98 1.3-5.27-1.05-9.89-3.83-14.06-7.12-4.69-3.68-9.08-8.12-11.9-13.41a21 21 0 0 1-1.52-3.58c-.37-1.19-.92-2.62-.07-3.73s2.5-.68 3.72-.68q2.32 0 4.65.03c2.57.02 2.57-3.98 0-4" class="c"/><path d="M38.2 231.3h44.29q-4.46 5-8.98 10.1H32.64a5 5 0 0 1-3.57-1.48 5.3 5.3 0 0 1-.48-6.8 4 4 0 0 1 3.35-1.82Z" class="e"/><path d="M73.5 239.4h-40a3.8 3.8 0 0 1-3-.9c-1.6-1.58-.95-5.07 1.53-5.2 1.84-.1 3.72 0 5.56 0H63.1c6.24 0 12.5.16 18.73 0h.32c2.57 0 2.57-4 0-4H38.42c-2.11 0-4.24-.06-6.36 0a6.5 6.5 0 0 0-6.16 4.91 7.13 7.13 0 0 0 5.65 9.09 44 44 0 0 0 6.47.1h12.93c7.38 0 14.77.14 22.14 0h.4c2.58 0 2.59-4 0-4" class="c"/><path d="M143.8 163.08a2 2 0 0 1-.26.34l-.56 1.1A5458 5458 0 0 0 23.85 298.16a16 16 0 0 1 6.96 4.49c46.15-53.31 76.71-87.49 117.38-131.73a22 22 0 0 0 2.95-3.62 9 9 0 0 0 .94-4.5 7 7 0 0 0-1.57-4.5l-1.13-1.8c-1.9-.02-3.66.13-4.57 2.1-.63 1.36-.38 2.14-.76 3.82a2 2 0 0 1-.25.66" class="a"/><path d="M92.55 210.37c-4.66-12.28-10-24.31-15.11-36.4-2.1-4.97-4.38-9.92-6.22-14.99-.17-.46-.38-.93-.01-1.34a3 3 0 0 1 1.35-.54q1.03-.33 2.09-.6a40 40 0 0 1 8.07-1.25 50 50 0 0 1 15.83 1.86c10.4 2.83 20.13 8.74 25.96 18.02 1.36 2.17 4.83.17 3.45-2.02a46 46 0 0 0-23.68-18.4 61 61 0 0 0-16.89-3.46 42 42 0 0 0-17.15 2.42A4.8 4.8 0 0 0 67.1 159a16 16 0 0 0 1.18 3.3q1.63 3.95 3.28 7.89l8.92 21.15c2.8 6.67 5.66 13.33 8.23 20.09a2.06 2.06 0 0 0 2.46 1.4 2 2 0 0 0 1.4-2.46Z" class="c"/><path d="M95.62 165.8q1.09 14.85 2.3 29.68c.2 2.55 4.2 2.57 4 0q-1.19-14.84-2.3-29.68c-.19-2.55-4.2-2.57-4 0m45.94-2.69q-22.9 24.9-45.54 50.05-22.74 25.3-45.14 50.9-14.44 16.5-28.79 33.08c-1.67 1.94 1.14 4.78 2.83 2.83q24.55-28.34 49.37-56.44 21.86-24.7 44.06-49.11 12.98-14.28 26.04-28.48c1.74-1.9-1.08-4.73-2.83-2.83" class="c"/><path d="M18.5 297.33a16.16 16.16 0 0 0-16.48 16.38c0 9.88 6.88 16.68 16.48 16.68 9.97 0 16.48-6.86 16.48-16.68a16.14 16.14 0 0 0-16.48-16.37" class="e"/><path d="M18.5 306.26a7.43 7.43 0 0 0-7.58 7.53 7.3 7.3 0 0 0 7.58 7.67c4.58 0 7.58-3.15 7.58-7.67a7.4 7.4 0 0 0-7.58-7.53" class="a"/><path d="M18.5 295.33a18.4 18.4 0 0 0-17.6 12.7c-2.28 7.11-.15 15.74 5.8 20.43a19.9 19.9 0 0 0 21.5 1.52c6.7-3.79 9.6-11.74 8.54-19.13a18.34 18.34 0 0 0-18.24-15.52c-2.57-.02-2.58 3.98 0 4a14.3 14.3 0 0 1 13.84 10.04c1.66 5.56.17 12.33-4.47 16.04-4.53 3.62-11.68 3.97-16.72 1.22-5.33-2.9-7.83-9.13-7-15.02a14.35 14.35 0 0 1 14.35-12.28c2.57-.02 2.58-4.02 0-4" class="c"/><path d="M18.5 304.26a9.6 9.6 0 0 0-9.15 6.66 9.9 9.9 0 0 0 3.1 10.53 10.3 10.3 0 0 0 11.09.74c3.51-2 4.97-6.16 4.39-10.03a9.5 9.5 0 0 0-9.43-7.9c-2.58-.03-2.58 3.97 0 4a5.44 5.44 0 0 1 5.34 3.9 7 7 0 0 1 .22.96c-.05-.35 0 .08 0 .17l.01.5a9 9 0 0 1-.05 1.04c.04-.4-.05.23-.05.25q-.07.34-.16.66l-.14.45c-.02.04-.26.6-.08.21a8 8 0 0 1-.43.8q-.12.2-.26.37c-.19.27.32-.3-.07.08q-.36.39-.76.75c.32-.28-.13.08-.17.1l-.3.2-.49.26c-.5.27.2-.07-.12.05a8 8 0 0 1-1 .3l-.38.09-.07.01-.4.04a9 9 0 0 1-1.06.01l-.6-.05c.1.02.31.07-.07-.01q-.52-.12-1.03-.27l-.44-.16c.36.15-.2-.12-.28-.16a6 6 0 0 1-.84-.54c.27.21.02.01-.02-.03l-.4-.38-.3-.34c-.22-.25.24.38-.07-.1q-.3-.46-.57-.95c-.27-.5.1.33-.1-.22l-.12-.37a8 8 0 0 1-.27-1.15c.01.1.02.33 0-.08l-.05-.63v-.52c0-.08.07-.74.02-.37a5.3 5.3 0 0 1 1.78-3.47c0-.01.49-.42.18-.18l.48-.33.51-.3c.04-.02.55-.24.25-.12a7 7 0 0 1 1.17-.35 5 5 0 0 1 1.19-.11c2.57-.04 2.58-4.04 0-4" class="c"/><path d="M114.93 302.33c-6.44-28.37-11.5-49.79-17.47-75.55l-8.85 9.91c5.06 22.33 9.76 42.46 15.7 67.16Z" class="a"/><path d="M86.67 237.21q5.84 25.68 11.92 51.3 1.88 7.94 3.78 15.87c.6 2.5 4.46 1.44 3.86-1.06q-6.3-26.24-12.36-52.54-1.68-7.31-3.34-14.63c-.57-2.51-4.43-1.45-3.86 1.06m8.9-9.71c4.45 19.2 8.95 38.37 13.37 57.57l4.06 17.8c.57 2.51 4.43 1.45 3.86-1.06-4.46-19.66-9.04-39.3-13.61-58.92q-1.92-8.22-3.82-16.45c-.58-2.5-4.44-1.44-3.86 1.07Z" class="c"/><path d="M112.54 297.33a16.16 16.16 0 0 0-16.47 16.38c0 9.88 6.88 16.68 16.48 16.68 9.96 0 16.47-6.86 16.47-16.68a16.14 16.14 0 0 0-16.48-16.37" class="e"/><path d="M112.54 306.26a7.43 7.43 0 0 0-7.57 7.53 7.3 7.3 0 0 0 7.58 7.67c4.58 0 7.57-3.15 7.57-7.67a7.4 7.4 0 0 0-7.58-7.53" class="a"/><path d="M112.54 295.33a18.4 18.4 0 0 0-17.6 12.7c-2.28 7.11-.14 15.74 5.81 20.43a19.9 19.9 0 0 0 21.5 1.52c6.69-3.79 9.6-11.74 8.54-19.13a18.34 18.34 0 0 0-18.25-15.52c-2.58-.02-2.58 3.98 0 4a14.3 14.3 0 0 1 13.84 10.04c1.66 5.56.17 12.34-4.47 16.04-4.53 3.62-11.68 3.97-16.72 1.22-5.33-2.9-7.83-9.13-7-15.02a14.35 14.35 0 0 1 14.35-12.28c2.58-.02 2.58-4.02 0-4" class="c"/><path d="M112.54 304.26a9.6 9.6 0 0 0-9.14 6.66 9.9 9.9 0 0 0 3.1 10.53 10.3 10.3 0 0 0 11.08.74c3.52-2 4.98-6.16 4.4-10.03a9.5 9.5 0 0 0-9.44-7.9c-2.57-.03-2.57 3.97 0 4a5.44 5.44 0 0 1 5.35 3.9 7 7 0 0 1 .21.96c-.05-.35 0 .08 0 .17l.02.5a10 10 0 0 1-.06 1.04c.05-.4-.04.23-.04.25q-.07.34-.16.66l-.15.45c-.01.04-.26.6-.07.21a8 8 0 0 1-.44.8q-.12.2-.25.37c-.2.27.31-.3-.08.08q-.36.39-.76.75c.33-.28-.12.08-.17.1l-.3.2-.48.26c-.5.27.2-.07-.12.05a8 8 0 0 1-1 .3l-.39.09-.06.01-.41.04a10 10 0 0 1-1.05.01l-.61-.05c.1.02.32.07-.06-.01q-.53-.12-1.03-.27l-.44-.16c.36.15-.21-.12-.28-.16a6 6 0 0 1-.85-.54c.28.21.03.01-.02-.03l-.39-.38-.3-.34c-.22-.25.24.38-.08-.1q-.3-.46-.56-.95c-.28-.5.09.33-.1-.22l-.13-.37a8 8 0 0 1-.27-1.15c.02.1.02.33 0-.08q-.04-.31-.04-.63v-.52c0-.08.07-.74.01-.37a5.3 5.3 0 0 1 1.78-3.47c.01-.01.5-.42.19-.18a6 6 0 0 1 .99-.62c.04-.03.55-.25.24-.13a7 7 0 0 1 1.18-.35 5 5 0 0 1 1.18-.11c2.58-.04 2.58-4.04 0-4m36.56-144.54c1.67 2.1 1.19 5.59-.36 7.59-1.9 2.43-4.19 4.62-6.27 6.89q-6.07 6.61-12.12 13.24-11.69 12.8-23.29 25.66-23.56 26.14-46.74 52.61-15 17.1-29.87 34.3c-1.68 1.95 1.14 4.79 2.82 2.84q25.93-29.94 52.17-59.6 23.47-26.44 47.33-52.54 6.96-7.63 13.95-15.24c2.28-2.48 5.33-5 6.6-8.18a10.5 10.5 0 0 0-1.4-10.4 2 2 0 0 0-2.82 0 2.05 2.05 0 0 0 0 2.83" class="c"/><path d="m205.85 256.88-2.99-3.39a140 140 0 0 0 21.99-2.94l6.58 9.83a58 58 0 0 1 5.66 10.1 56 56 0 0 0 2.97 6.43 11.4 11.4 0 0 0 5.04 4.8l3.7 1.58a50 50 0 0 1-6.3 10.48c-3 3.4-5.25 1.96-6.36 1.32a1.4 1.4 0 0 0-1.38-.02 23 23 0 0 0-2.42-7c-2.18-4.16-5.33-7.72-8.44-11.24-4.81-5.42-12.76-14.03-18.06-19.95m-22-3.65q-1.62-.12-3.23-.29c.63 15.83 1.24 31.68 2.62 47.47.29 3.28.49 6.94-.93 9.78l.05.3c.2 1.27.5 3.92 5.02 4.11a51 51 0 0 0 11.24-1.44 14 14 0 0 1-.63-3.13 30 30 0 0 1 .2-5.46q2.48-25.46 3.52-51.02a144 144 0 0 1-17.87-.32M159.1 31.66a30 30 0 0 1-.23-4.1 25 25 0 0 1 .29-3.4 79 79 0 0 0 22.3 10.93 14 14 0 0 0 5 .83l2.3-.17a4 4 0 0 1 .75-.36 4 4 0 0 1 3.28.14 5.6 5.6 0 0 1 2.37 4.4c.28 4.37-1.63 7.55-5.36 9.8 1.57 3 3.22 6.05 3.76 9.35a16 16 0 0 1-1.2 8.08 2 2 0 0 0 1.06 2.7 29 29 0 0 0 12.24 1.78l.32.81c-2.56.4-5.3 1.18-8.2 1.74a38 38 0 0 0-8.98 3.22 18 18 0 0 0-4.88 3.83l-3.09-11.1a32 32 0 0 0-2.08-3.93 1.34 1.34 0 0 0-1.67-.6 18.6 18.6 0 0 1-9.96.34 7.7 7.7 0 0 1-4.66-3.4 16 16 0 0 1-1.74-3.72 38 38 0 0 1-1.48-5.68 6 6 0 0 0-1.7-2.44c-1.2-1.03-3-1.72-2.36-3.82a3.8 3.8 0 0 1 1.5-1.9c3.44-2.4 2.95-7.98 2.61-12zM136.13 163.2a2 2 0 0 1-.5 0c-1.32-.23-1.9-2.07-1.89-4.04v-.46l-1.31 1.03a2.35 2.35 0 0 1-2.77-.1 4 4 0 0 1-.85-3.08c.31-3.06.28-5.39 1.16-8.33a11.4 11.4 0 0 1 5.26-6.74 12 12 0 0 1 5.86-1.69c2.02-.03 5.73-.13 8.49-.2 2.04-.05 6.36-1.29 8.04-1.72l.83-.21c1.13 4.26 2.83 9.12 4.28 13.33l-4.57 2.82c-2.91 2.52-4.12 2.75-8.16 2.69-2.14-.04-4.19-.1-5.2 2.09-.63 1.35-.37 2.14-.76 3.82-.22.99-.85 1.56-2.24 1.69a2.3 2.3 0 0 1-2.27-1.55 9 9 0 0 1-.5-2.08l-.48 1.04a3.6 3.6 0 0 1-2.42 1.69" class="a"/><path d="M157.1 135.95c-2.65.68-5.33 1.59-8.07 1.66l-5.51.14a28 28 0 0 0-5.12.36 14 14 0 0 0-8.72 6c-2.1 3.27-2.42 7.13-2.73 10.9-.16 2-.35 4.2 1.1 5.81a4.3 4.3 0 0 0 5.4.64c2.14-1.4.14-4.86-2.03-3.45-.46.3-.41.2-.56-.33a7 7 0 0 1 .07-2.45 35 35 0 0 1 .73-5.6 10 10 0 0 1 6.94-7.44 17 17 0 0 1 4.73-.43l5.89-.15c3.04-.1 6.01-1.04 8.94-1.8 2.49-.65 1.43-4.5-1.07-3.86" class="c"/><path d="M132.93 149.7a41 41 0 0 0-1.07 6.48c-.16 2.12-.35 4.43.5 6.43a3.84 3.84 0 0 0 5.07 2.29 5.7 5.7 0 0 0 2.7-2.12c.6-.94.5-2.32.6-3.41a29 29 0 0 1 1.5-6.81 2 2 0 0 0-1.4-2.46 2.05 2.05 0 0 0-2.46 1.4 37 37 0 0 0-1.82 10.01l.27-1c-.03.05-.25.4-.1.18s-.18.17-.18.17c-.11.11-.18.14-.02.03l-.39.24c-.19.11.25-.05-.1.04-.07.03-.5.07-.21.07.38.01-.54-.13.2 0-.24-.04-.02 0 .1.05-.38-.18.2.17.02 0-.14-.13.14.3 0-.02-.03-.04-.23-.44-.13-.2s-.07-.26-.07-.26l-.1-.36-.06-.32-.03-.34-.01-.52a33 33 0 0 1 1.05-8.5 2 2 0 1 0-3.86-1.07" class="c"/><path d="M136.9 158.42c.12 3.21.84 8.1 5.19 7.65a4.2 4.2 0 0 0 3.56-2.24c.65-1.36.38-2.93.87-4.19.41-1.05 1.15-1.1 2.17-1.14 1.33-.04 2.66.07 4-.04a11.6 11.6 0 0 0 6.9-3.23 2 2 0 0 0 0-2.83 2.04 2.04 0 0 0-2.83 0 11 11 0 0 1-2.35 1.64q-.33.16-.06.04l-.37.12-.57.15a4 4 0 0 1-.95.13c-2.37.15-5.07-.42-7.24.81a5.7 5.7 0 0 0-2.51 3.2c-.4 1.13-.28 2.35-.61 3.5q-.07.21.02 0-.18.3-.02.06l.1-.07q-.3.17-.13.06c-.29.04-.38.11-.56-.02-.33-.25-.44-1.26-.49-1.63a19 19 0 0 1-.1-1.97c-.1-2.56-4.1-2.58-4 0Z" class="c"/><path d="M217.32 152.6c10.46 19.14 13.88 60.33 23.12 84.42a12.4 12.4 0 0 1 .67 6.92c-.73 2.56-3.47 3.27-6.03 4.02a142 142 0 0 1-60.89 4.2 9.2 9.2 0 0 1-7.88-8.54c-1.86-28.42 3.37-68.22 8.63-93.55l1.63-25.33a45 45 0 0 1-2.3-21.02c.53-4.54 2.83-9.82 4.47-13.81 2.14-5.22 5.07-9.86 10.06-12.5a38 38 0 0 1 8.97-3.23c4.25-.8 8.14-2.09 11.61-2a40 40 0 0 1 4.47 7 65 65 0 0 1 3.64 10.4c3 12.48 3.73 21.5 3.5 34.33-.17 8.71-1.2 17.16-4.12 23.53Z" class="b"/><path d="M193.93 149.37a51 51 0 0 0 17.65.71 2 2 0 0 0 1.4-2.46 2.05 2.05 0 0 0-2.46-1.4 45 45 0 0 1-7.93.23 46 46 0 0 1-7.6-.94 2.05 2.05 0 0 0-2.46 1.4 2 2 0 0 0 1.4 2.46" class="c"/><path d="M173.01 149.54a460 460 0 0 0-7.8 54.05c-.81 9.43-1.32 18.9-1.28 28.36q.01 3.3.13 6.61a46 46 0 0 0 .45 6.64 11.3 11.3 0 0 0 8.12 8.68 52 52 0 0 0 7.77 1.04q4.27.44 8.56.63a142 142 0 0 0 16.54-.22 144 144 0 0 0 16.5-2.16 112 112 0 0 0 15.6-3.9 8.3 8.3 0 0 0 4.92-3.55c1.1-2.04.94-4.56.53-6.76a41 41 0 0 0-1.85-5.68q-.9-2.63-1.69-5.3c-2.41-8.15-4.22-16.48-5.99-24.8-1.8-8.53-3.5-17.08-5.55-25.55a132 132 0 0 0-6.92-21.93 54 54 0 0 0-2-4.12c-1.23-2.26-4.68-.24-3.45 2.02 3.21 5.93 5.2 12.49 6.95 18.97 2.13 7.89 3.8 15.89 5.48 23.88 1.72 8.2 3.4 16.43 5.45 24.56q1.38 5.57 3.1 11.04.8 2.49 1.71 4.93a12 12 0 0 1 1.03 5.76c-.24 1.83-1.86 2.4-3.43 2.9q-3.58 1.1-7.2 1.98a137 137 0 0 1-15.66 2.96 143 143 0 0 1-31.9.41c-3.95-.38-9.11-.18-11.59-3.89a10 10 0 0 1-1.33-5.26q-.17-3.13-.23-6.26c-.19-8.94.17-17.89.82-26.8a454 454 0 0 1 7-52.78q.52-2.7 1.08-5.4c.52-2.5-3.34-3.58-3.86-1.06Z" class="c"/><path d="M203.16 256.86c4.49 5.06 9.08 10.04 13.63 15.06 4.78 5.27 10.2 10.48 13.61 16.77 2.06 3.77 3.22 8.2 2.24 12.45-.57 2.5 3.28 3.58 3.86 1.06 1.97-8.63-2.53-16.52-7.87-22.94-4.7-5.66-9.78-11-14.72-16.44q-3.98-4.37-7.92-8.79c-1.72-1.93-4.54.9-2.83 2.83m26.54 4.53a60 60 0 0 1 4.39 7.38c1.22 2.46 2.14 5.04 3.35 7.5a16.5 16.5 0 0 0 4.43 5.8c2.2 1.73 5.1 2.64 7.69 3.67a2 2 0 0 0 2.46-1.4 2.05 2.05 0 0 0-1.4-2.46c-2.13-.84-4.71-1.59-6.47-3.1a15.5 15.5 0 0 1-3.79-5.66c-1.04-2.32-1.95-4.69-3.11-6.95a60 60 0 0 0-4.1-6.8c-1.46-2.1-4.92-.1-3.45 2.01Zm-51.06-7.96c.4 10.31.81 20.62 1.43 30.92q.46 7.66 1.1 15.31c.3 3.55 1.02 8.18-1.63 11.05-1.75 1.89 1.08 4.72 2.83 2.83 2.31-2.51 3.05-5.79 3.07-9.12.03-3.8-.52-7.63-.8-11.42a884 884 0 0 1-1.42-25.22q-.31-7.17-.58-14.35c-.1-2.56-4.1-2.58-4 0" class="c"/><path d="M199.6 256.37q-.7 15.64-1.92 31.26-.6 7.74-1.35 15.47a36 36 0 0 0-.3 7.36 17 17 0 0 0 2.12 6.6c1.25 2.25 4.7.23 3.45-2.02-2.35-4.24-1.56-8.8-1.13-13.41q.7-7.5 1.29-14.99 1.17-15.12 1.83-30.27c.12-2.58-3.88-2.57-4 0Z" class="c"/><path d="M199.8 312.82a49 49 0 0 1-12.42 1.78c-4.53-.19-4.82-2.84-5.02-4.1-.24-1.5-2.11-1.44-3.53-1.05-1.79.49-3.23 2.19-5.93 3.98-2.27 1.16-5.24 2.16-8.15 3.47-1.28.57-5.18 2.48-6.04 3.9-2.29 3.76-.57 8.49 4.12 9.07 3.63.45 11.3.29 15.88.35 7.34.1 20.05-.2 23.28-2.8a11.3 11.3 0 0 0 1.47-7.2 17 17 0 0 0-.59-3.7 5.5 5.5 0 0 0-3.07-3.7m49.11-29.83a49 49 0 0 1-6.42 10.78c-3 3.4-5.24 1.96-6.35 1.32-1.3-.75-2.45.74-3.03 2.09-.74 1.7-.34 3.88-.63 7.11-.53 2.5-1.68 5.6-2.5 8.68-.35 1.36-1.16 4.58-.98 6.14.53 4.37 5.75 5.59 9.5 2.72 3.07-2.35 7.82-7.54 10.35-10.63 4.65-5.67 14.4-17.74 13.24-21.09-.88-2.53-3.07-3.96-5.12-5.31a17 17 0 0 0-3.25-1.87 5.5 5.5 0 0 0-4.8.06" class="a"/><path d="M199.27 310.89a38 38 0 0 1-10.76 1.72 9 9 0 0 1-2.42-.19 3 3 0 0 1-.93-.39l-.36-.33-.19-.32c-.15-.31.13.42-.04-.1l-.17-.64a4.5 4.5 0 0 0-.8-2.07c-1.35-1.65-3.84-1.58-5.7-.92-2.16.78-3.72 2.55-5.6 3.79-4.02 2.63-9.08 3.2-12.98 6.03-3.33 2.43-4.83 6.92-2.63 10.65 2.16 3.66 6.28 3.87 10.08 4.03 4.14.17 8.3.16 12.44.17 4.89 0 9.81.29 14.69-.16a22 22 0 0 0 6.8-1.5 7.4 7.4 0 0 0 4.28-5.04 18 18 0 0 0 .13-8.35 8.1 8.1 0 0 0-4.78-6.38 2 2 0 0 0-2.46 1.4 2.05 2.05 0 0 0 1.4 2.46c1.63.65 1.98 3.2 2.12 4.67a11.3 11.3 0 0 1-.69 6.23c-.56 1.14-1.97 1.58-3.2 1.9a26 26 0 0 1-5.27.73c-4.34.25-8.68.04-13.02.04-3.63 0-7.26 0-10.9-.12-2.47-.07-6.53.41-8.1-1.99a3.8 3.8 0 0 1-.26-3.54c.66-1.56 2.27-2.42 3.7-3.14 3.87-1.93 8.24-2.78 11.74-5.43 1.27-.96 2.64-2.45 4.26-2.8.31-.06.67 0 .97-.08.1-.03-.2-.28-.2-.2a8 8 0 0 0 .24 1.16c1.15 3.8 5.04 4.59 8.56 4.4a43 43 0 0 0 11.11-1.84c2.43-.8 1.4-4.67-1.06-3.85" class="c"/><path d="M187 109.69c.21-2.15.42-4.62.75-7.76a26 26 0 0 1 2.26-9.15c2-4.23 5.53-7.26 10.64-7.26a11.9 11.9 0 0 1 9.8 5.5c2.1 3.9 2.66 7.49 2.35 12.55-.67 11.06-.69 13.04-3.92 24.34-.64 2.27-2.3 6.93-3.58 8.54a18 18 0 0 1-8.02 6.36c-11.4 5.02-19.85 9.34-32.1 12.94a.93.93 0 0 1-1.07-.68c-1.88-5.77-5.15-14.34-6.4-20.56a1.03 1.03 0 0 1 .75-1.13c6.47-2.16 23.84-8.53 26.21-12.04a48 48 0 0 0 2.33-11.65" class="b"/><path d="M246.99 282.46a37 37 0 0 1-5.6 9.54 6 6 0 0 1-2.07 1.8 1.6 1.6 0 0 1-1.37 0 18 18 0 0 0-1.6-.78 3.7 3.7 0 0 0-3.66 1.16c-1.68 1.73-2.03 4.04-2.07 6.34a24 24 0 0 1-.16 3.62 33 33 0 0 1-1.12 3.96c-.71 2.31-1.43 4.62-1.9 6.99-.46 2.2-.75 4.39.23 6.49 1.86 4 6.96 4.6 10.56 2.77a21 21 0 0 0 4.83-3.88 96 96 0 0 0 4.9-5.15c2.44-2.75 4.74-5.65 7-8.55a89 89 0 0 0 7.02-10.03 17 17 0 0 0 2-4.5 6 6 0 0 0-1.37-5.26 22 22 0 0 0-6.15-4.9c-2.58-1.56-5.79-2.35-8.56-.82-2.25 1.25-.24 4.7 2.02 3.46 1.89-1.05 4.17.56 5.7 1.58s3.24 2.02 4.2 3.65a4 4 0 0 1 .38.86c-.09-.28.08-.2-.03.12-.09.26.07-.37.02-.08l-.07.32-.24.8a22 22 0 0 1-1.79 3.47 119 119 0 0 1-12.16 16.13 62 62 0 0 1-8.4 8.5c-1.83 1.41-5.84 2.27-6.49-.87-.32-1.58.3-3.44.69-4.97.57-2.3 1.33-4.53 2-6.8a25 25 0 0 0 .89-6.9 8 8 0 0 1 .22-2.3c.12-.36.44-.68.53-1.04-.02.08.25-.33.26-.31.16.3-.83-.35-.25.1a5.8 5.8 0 0 0 4.61.8c2.17-.53 3.73-2.26 5.03-3.98a42 42 0 0 0 5.82-10.27 2 2 0 0 0-1.4-2.46 2.04 2.04 0 0 0-2.46 1.4Zm-48.7-137.92a21.6 21.6 0 0 0 8.42-6.67c2.13-2.7 3.23-6.4 4.17-9.66a100 100 0 0 0 2.72-11.2 102 102 0 0 0 1.02-10.42c.26-4.35.56-8.74-.85-12.94a14.3 14.3 0 0 0-8.17-9.13 13.2 13.2 0 0 0-11.62.78c-3.4 2.02-5.54 5.5-6.8 9.17-1.62 4.75-1.67 9.96-2.15 14.92a53 53 0 0 1-2.19 11.1c-.78 2.46 3.08 3.51 3.86 1.07 2.1-6.59 2.46-13.5 3.11-20.33.6-6.43 4.15-14.7 11.97-13.65a9.9 9.9 0 0 1 7.73 6.08c1.55 3.7 1.43 7.56 1.2 11.48-.2 3.19-.34 6.4-.78 9.56a74 74 0 0 1-2 9.19c-.98 3.62-1.92 7.5-3.83 10.76a16.6 16.6 0 0 1-7.83 6.44 2 2 0 0 0-.72 2.73 2.05 2.05 0 0 0 2.74.72" class="c"/><path d="M183.05 120.2a7 7 0 0 1-.64.63l-.15.12q-.31.24-.65.46a31 31 0 0 1-2.56 1.5 85 85 0 0 1-6.9 3.2c-4.52 1.9-9.13 3.58-13.76 5.19-1.6.55-2.87 1.62-2.64 3.48a31 31 0 0 0 1.08 4.54c.95 3.38 2.08 6.7 3.22 10.03l1.54 4.48c.56 1.64.98 3.59 2.99 3.9a6 6 0 0 0 2.73-.52q1.53-.48 3.05-.98 2.59-.87 5.14-1.83c7.74-2.93 15.22-6.52 22.79-9.86a2 2 0 0 0 .72-2.74 2.05 2.05 0 0 0-2.74-.71c-5.19 2.28-10.32 4.69-15.54 6.92q-3.71 1.58-7.5 2.98-2.06.76-4.15 1.45l-1.95.63a8 8 0 0 1-2.07.64l.88.52a8 8 0 0 1-.78-2.32l-1-2.88q-1.06-3.07-2.07-6.16a99 99 0 0 1-1.8-6.1q-.19-.7-.36-1.42c-.13-.56-.02-1.4-.49-.57-.42.75-.06.4.4.24l.95-.32a170 170 0 0 0 18.16-7.27c2.36-1.14 5.15-2.4 6.93-4.4 1.7-1.91-1.12-4.75-2.83-2.82Z" class="c"/><path d="M184.67 2.04q-1.66.08-3.45.31a34 34 0 0 0-9.25 2.86A25.2 25.2 0 0 0 159.5 19.6a24 24 0 0 0-.97 4.12l.78.55a79 79 0 0 0 22.14 10.82 14 14 0 0 0 5 .83l2.3-.16a4 4 0 0 1 .75-.36 3.9 3.9 0 0 1 3.29.13 5.6 5.6 0 0 1 2.36 4.41c.28 4.37-1.62 7.55-5.36 9.79 1.57 3 3.22 6.06 3.77 9.36.38 2.35-.17 7.55-2.37 9.8 9.5 4.72 19.62 2.46 23.51.8 2.94-1.24 4.78-3.5 4.71-6.93A20 20 0 0 0 218.1 56c-1.09-3.06-2.55-9.89-1.82-19.76a43 43 0 0 0-.4-10.03 27 27 0 0 0-7.51-14.43c-6.64-6.34-13.18-10.26-23.7-9.74" style="fill:#937e6d"/><path d="m188.95 38.26.28-.33c.05-.05.5-.45.3-.3a2.4 2.4 0 0 1 1-.47 2 2 0 0 1 .97-.02 1 1 0 0 1 .66.4 3 3 0 0 1 .53.78q.15.33.07.1l.11.3.2.71c.02.08.1.65.07.3l.04.62a12 12 0 0 1-.03 1.33l-.03.3q.04-.26 0-.05-.04.34-.12.66a9 9 0 0 1-.31 1.08c-.03.1-.21.53-.07.2q-.13.3-.28.58a12 12 0 0 1-.63 1.02c-.32.47.24-.25-.15.18l-.37.42a11 11 0 0 1-.98.93 6 6 0 0 1-.73.54q-.62.42-1.28.78a2 2 0 0 0 2.02 3.45 12.8 12.8 0 0 0 6.64-8.11c.84-3.76.05-9.34-4.4-10.41-2.81-.68-5.35.78-6.96 2.98a2 2 0 0 0 .71 2.74 2.05 2.05 0 0 0 2.74-.72Zm-24.9-.08c-.34 1.24-.04 4.08 2.2 4.27 2.93-.1 3-3.54 1.98-5.13-.84-1.3-3.23-1.8-4.18.86m-4.18 19.4a11.6 11.6 0 0 0 5.53-1.71 2.2 2.2 0 0 0 .92-1.2 2 2 0 0 0-.2-1.54 2 2 0 0 0-1.2-.92 2 2 0 0 0-1.54.2 7 7 0 0 1-1.23.67l.48-.2a11 11 0 0 1-2.67.7l.54-.07-.64.07a2.2 2.2 0 0 0-1.41.59 2 2 0 0 0 0 2.83 2 2 0 0 0 1.41.58Z" class="c"/><path d="M182.55 69.13c-.68-1.57-1.51-3.65-2.83-4.81-1.81-1.6-3.99-.2-6 .04a16 16 0 0 1-6.52-.46 7 7 0 0 1-3.95-4.06 30 30 0 0 1-1.98-6.66c-.4-2.12-1.87-3.53-3.5-4.8-.36-.29-.73-.47-.7-.88.07-.69 1.32-1.28 1.74-1.7a9.3 9.3 0 0 0 2.43-5.03c.82-4.8-.56-9.52-.32-14.32.13-2.57-3.87-2.57-4 0-.22 4.33 1.05 8.65.5 12.97a5.8 5.8 0 0 1-1.89 3.94c-1.8 1.48-3.21 3.7-2.09 6.07.79 1.66 2.65 2.2 3.58 3.73a8 8 0 0 1 .69 2.47 37 37 0 0 0 1.07 3.73c1.59 4.55 4.36 8.07 9.33 8.81a22 22 0 0 0 7.84-.15c.13-.03 1.65-.33 1.66-.5-.02.27-.9-.82-.3.19a30 30 0 0 1 1.79 3.44 2 2 0 0 0 2.73.72 2.05 2.05 0 0 0 .72-2.74" class="c"/><path d="M188.3 51.17c1.55 2.97 3.38 6.24 3.37 9.6a15 15 0 0 1-.5 3.78c-.43 1.61-1.37 2.99-.8 4.72.6 1.81 2.2 2.46 3.88 3a30 30 0 0 0 5.48 1.18 34 34 0 0 0 10.12-.32c4.84-.86 10.51-2.91 11.4-8.45.54-3.32-.37-6.58-1.4-9.7a34 34 0 0 1-1.3-5.87 57 57 0 0 1-.46-9.09c.08-3.73.47-7.42.12-11.16a30 30 0 0 0-6.75-16.7 36.6 36.6 0 0 0-13.44-9.96A33 33 0 0 0 180.24.49a28.5 28.5 0 0 0-18 10.1 28.8 28.8 0 0 0-5.88 21.18 2.06 2.06 0 0 0 2 2 2 2 0 0 0 2-2 25.5 25.5 0 0 1 3.89-17.2 23.5 23.5 0 0 1 12.67-9.17 30 30 0 0 1 16.7-.5 30 30 0 0 1 12.06 7.11 25.7 25.7 0 0 1 8.02 13.57c1.4 6.22.14 12.6.44 18.9a49 49 0 0 0 2.32 12.92c.76 2.33 1.6 5.51.47 7.85-.87 1.78-2.75 2.6-4.54 3.15a29 29 0 0 1-8.38 1.3 26 26 0 0 1-8.24-1.14c-.43-.13-1.61-.38-1.64-.66.03.3.2-.3.2-.3a9 9 0 0 0 .5-1.27 16 16 0 0 0 .52-2.2 18 18 0 0 0 .27-4.55c-.34-3.73-2.16-7.16-3.86-10.42-1.2-2.28-4.65-.27-3.46 2.02Z" class="c"/><path d="M158.3 26a80 80 0 0 0 13.25 7.5 84 84 0 0 0 7.06 2.77 22 22 0 0 0 7.84 1.65c2.57-.1 2.58-4.1 0-4-2.4.1-4.74-.8-6.98-1.58a73 73 0 0 1-6.7-2.67 80 80 0 0 1-12.45-7.13c-2.11-1.47-4.11 2-2.01 3.46Zm51.08 44.19a33 33 0 0 0-7.8 1.12c-2.42.55-4.89.96-7.26 1.71-4.42 1.4-8.71 3.35-11.87 6.85-3.2 3.54-4.99 7.87-6.76 12.23a44 44 0 0 0-1.05 33.17 2.06 2.06 0 0 0 2.46 1.4 2 2 0 0 0 1.4-2.46 41 41 0 0 1-2.57-14.62 36 36 0 0 1 .56-7.12 44 44 0 0 1 2.13-6.94c1.51-3.97 3.04-8.1 5.6-11.53 2.5-3.38 5.97-5.31 9.87-6.69a65 65 0 0 1 7.22-1.83 35 35 0 0 1 8.07-1.29c2.58.03 2.58-3.97 0-4" class="c"/><path d="M207.65 73.2a47 47 0 0 1 4.1 6.2 52 52 0 0 1 2.87 7.37 95 95 0 0 1 3.2 14.67 127 127 0 0 1 .81 29.61 48 48 0 0 1-3.48 15.39 2.06 2.06 0 0 0 .72 2.74 2 2 0 0 0 2.74-.72c4.28-9.54 4.52-20.47 4.41-30.75a118 118 0 0 0-3.97-30.1 70 70 0 0 0-3.18-8.77 41 41 0 0 0-4.76-7.66 2.06 2.06 0 0 0-2.73-.72 2 2 0 0 0-.72 2.74Z" class="c"/></svg>
