<svg xmlns="http://www.w3.org/2000/svg" viewBox="-33.24 0 305.687 305.687"><defs><style>.b{fill:#fff}.c{fill:#211715}</style></defs><path d="M143.95 154.35c9.48-4.58 9.56-11.19 9.59-15.15a44 44 0 0 0-2.61-15.51c-2.24-6.84-6.36-20.73-6.23-45.43a119 119 0 0 0 .34-15.63 190 190 0 0 0-.26-5.83c-.9-16.1-10.31-34.57-22.34-41.67C107.89 3.9 94.89 1.58 82 2.63c-18.27 1.51-32.77 9.06-42.26 21-5.48 6.9-9.26 16.78-10.55 25.52a90 90 0 0 0 1.53 30.35c2.12 19.3-3.24 39.8-1.55 55.6.5 4.92 3.04 10.81 9.8 15.44Z" style="fill:#a98a75"/><path d="M96.12 41.96a141 141 0 0 0 5.71 14.83c2.56 5.58 9.36 15.15 15.5 18.22 0 0 6.01 2.88 8.18 2.84a8 8 0 0 0 2.03-.81 7.8 7.8 0 0 1 5.6-1.35c3.86.5 5.31 2.67 5.9 3.9 1.78 3.72 1.06 10.15-.76 14a20.4 20.4 0 0 1-7.51 9.21 15 15 0 0 1-7.31 1.85l-.49 1.06c-.9 1.97-3.04 5.43-3.04 5.43a67 67 0 0 1-8.71 11.04l1.57 8.03a27 27 0 0 0 1.48 5.5c2.02 4.7 11.59 9.85 15.85 12.72a71.7 71.7 0 0 1-43.87 14.54c-6.19 0-12.47-.78-18.24-3.36a29.3 29.3 0 0 1-13.73-12.74l-.11-.2c3.36-1.22 6.81-2.47 9.12-3.52 2.74-1 6.15-2.79 6.45-5.9-8.02-.6-15.17-3.54-22.05-8.94-8.73-6.86-12.68-17.86-14.27-30.09-.92-7.05-1.75-14.71-2.91-22.36l-.06-.4 1.7-1.2c.7-.5 1.82-1.23 2.74-1.9 8.46-6.09 17.5-13.58 25.87-20.77a.46.46 0 0 1 .74.49 33 33 0 0 0-1.38 7.87 2.06 2.06 0 0 0 2.68 2.06C75.83 58 87.92 50.9 96.01 41.67" class="b"/><path d="M125.77 20.57c7.58 6.93 12.54 16.67 15.06 26.53a70 70 0 0 1 1.8 15.05q.16 4.26.1 8.52c-.04 2.86-.42 5.72-.43 8.57a166 166 0 0 0 2.6 30.65q.9 4.8 2.2 9.5c.9 3.18 2.06 6.3 2.86 9.5a40 40 0 0 1 1.18 9.38 52 52 0 0 1-.12 3.8l-.05.42c.07-.55-.04.23-.06.34a10.3 10.3 0 0 1-2.04 4.84 17 17 0 0 1-6.13 4.6 2.4 2.4 0 0 0-.86 3.29 2.45 2.45 0 0 0 3.29.86c4.4-2.17 8.14-5.46 9.8-10.17 1.22-3.45 1.12-7.5.84-11.09-.6-7.77-3.77-15.01-5.46-22.57a146 146 0 0 1-3.2-28.87c-.13-6.1.48-12.16.37-18.26a94 94 0 0 0-1.32-16.36c-2.3-11.78-8.1-23.75-17.03-31.93-2.28-2.08-5.68 1.3-3.4 3.4m-97.8 56.1c1.74 11.16.6 22.57-.42 33.73-.48 5.3-.98 10.6-1.09 15.92-.09 4.41-.13 9.16 1.25 13.4a25.4 25.4 0 0 0 10.07 12.9 2.4 2.4 0 0 0 3.28-.86 2.45 2.45 0 0 0-.86-3.28 20 20 0 0 1-7.87-10.03c-1.26-3.92-1.16-8.27-1.06-12.52.25-10.54 1.86-21 2.27-31.53a98 98 0 0 0-.95-19 2.4 2.4 0 0 0-2.95-1.67 2.46 2.46 0 0 0-1.68 2.95Zm38.38 40.54.62-.32c.24-.13.1-.05-.07.02l.44-.17a14 14 0 0 1 1.52-.45q.45-.12.92-.2l.41-.06c-.22.04-.25.03 0 0q.9-.1 1.8-.11a16 16 0 0 1 1.64.06l.18.02a11 11 0 0 1 1 .2q.37.1.73.23l.42.16c-.24-.1-.05-.02.08.04q1.19.54 2.38 1.04a2.4 2.4 0 0 0 2.95-1.67 2.5 2.5 0 0 0-1.67-2.95l-.23-.1-.45-.2-1-.45a13 13 0 0 0-2.12-.75 16 16 0 0 0-4.14-.42 17 17 0 0 0-7.84 1.95 2.4 2.4 0 0 0 2.42 4.14Zm13.8-30.12c-.73-2.48-.14-8.17 4.55-8.59 6.2.13 6.43 7.02 4.3 10.23-1.75 2.63-6.8 3.65-8.85-1.64m-36.83.61c-.66-2.5-.14-8.2 4.16-8.61 5.68.14 5.9 7.05 3.95 10.26-1.6 2.64-6.21 3.66-8.1-1.65m19.31 5.39a57 57 0 0 0-2.2 4.22 6 6 0 0 0-.64 2.28 3.3 3.3 0 0 0 1.21 2.58 5 5 0 0 0 2.06 1.1c.5.1 1 .11 1.51.18a2.4 2.4 0 0 0 1.7-.7 2.4 2.4 0 0 0 0-3.4l-.48-.37a2.4 2.4 0 0 0-1.21-.33l-.73-.07.64.09a3 3 0 0 1-.55-.14l.58.24a3 3 0 0 1-.6-.36l.48.37-.34-.31.37.48-.09-.15.24.58-.07-.25.09.64v-.37l-.08.64a3 3 0 0 1 .2-.66l-.25.58q1.04-2.28 2.3-4.45a2.4 2.4 0 0 0-4.15-2.42Zm47 33.89a67 67 0 0 0 10.14-11.34 55 55 0 0 0 5.27-8.71 2.47 2.47 0 0 0-.86-3.29 2.4 2.4 0 0 0-3.28.86 60 60 0 0 1-14.67 19.08 2.4 2.4 0 1 0 3.4 3.4" class="c"/><path d="M119.14 9.82A57.6 57.6 0 0 0 89.74.05a70 70 0 0 0-28.27 4.82 57 57 0 0 0-21.62 14.92 56 56 0 0 0-12.67 26.97c-2 11-1.24 22.9 1.32 33.75.71 3 5.34 1.73 4.63-1.28a84 84 0 0 1-1.75-28.41 52 52 0 0 1 10.07-25.5C52.1 11.75 69.22 5.19 86.15 4.83a53 53 0 0 1 30.57 9.15c2.59 1.7 5-2.45 2.42-4.15" class="c"/><path d="M96.71 128.83c-12.02 5.82-26.31 8.79-38.92 2.93-5.76-2.68-11.15-6.61-14.7-11.94-3.57-5.36-5.51-11.58-6.67-17.87-1.64-8.83-2.25-17.86-3.6-26.74a2.4 2.4 0 0 0-2.95-1.67 2.46 2.46 0 0 0-1.68 2.95c1.27 8.36 1.95 16.82 3.32 25.16 1.13 6.86 3.15 13.75 6.85 19.68 7.56 12.13 22.19 18.96 36.27 18.39 8.63-.35 16.77-3 24.5-6.75a2.4 2.4 0 0 0 .86-3.28 2.45 2.45 0 0 0-3.28-.86m32.04-49.72a6 6 0 0 1 7.42.47l.24.26-.04-.05.37.57a5 5 0 0 1 .49 1.19 13 13 0 0 1 .41 4.43c-.26 5.56-3.22 11.78-8.08 14.75a11 11 0 0 1-3.53 1.28 8 8 0 0 1-4.74-.16 2.5 2.5 0 0 0-3.28.86 2.4 2.4 0 0 0 .86 3.28c3.9 1.71 8.32 1.14 12.13-.6 3.49-1.6 6.28-4.9 8.13-8.18a25 25 0 0 0 3.3-10.85c.22-3.49-.3-7.43-2.77-10.08a10.7 10.7 0 0 0-13.32-1.3 2.46 2.46 0 0 0-.86 3.27 2.4 2.4 0 0 0 3.28.86ZM93.81 42.6c1.22 3.88 2.66 7.7 4.23 11.44a58 58 0 0 0 4.04 8.23c3.45 5.6 8.05 11.74 14.03 14.81 2.75 1.41 5.18-2.73 2.42-4.14a24 24 0 0 1-6.77-5.64 52 52 0 0 1-5.71-7.74c-3.4-5.6-5.65-12.03-7.62-18.24-.93-2.93-5.56-1.68-4.62 1.28" class="c"/><path d="M94.32 39.98C87 48.24 77.28 54.2 67 58.05q-1.8.67-3.62 1.26a7 7 0 0 0-1.22.39c-.01.05.13.03.24.08-.1-.05.04.21.12.17a6 6 0 0 0 .1-1.36 29 29 0 0 1 .71-4.19c.38-1.53 1.08-3.15-.24-4.47-1.37-1.37-3.09-.82-4.38.27l-3.94 3.35q-3.63 3.08-7.32 6.09a277 277 0 0 1-16.52 12.54 2.47 2.47 0 0 0-.86 3.28 2.4 2.4 0 0 0 3.29.86q7.44-5.21 14.54-10.9 3.61-2.9 7.17-5.87 1.82-1.52 3.63-3.06l1.8-1.53a10 10 0 0 1 1.7-1.4l-1.21.32.22.02-1.21-.32.19.12-.86-.86.1.2-.32-1.21a19 19 0 0 1-.64 2.38q-.3 1.51-.5 3.05c-.25 2-.6 4.16.9 5.78a4.75 4.75 0 0 0 5.18 1.1q2.73-.87 5.41-1.92A79 79 0 0 0 88.88 51.5a62 62 0 0 0 8.83-8.12c2.04-2.31-1.34-5.72-3.4-3.4Zm14.83 84.08c.71 3.65 1.17 7.5 2.34 11.05a14.7 14.7 0 0 0 4.4 6.4c3.96 3.55 8.65 6.07 13.04 9 2.57 1.73 4.98-2.42 2.42-4.14-3.95-2.65-8.22-4.9-11.82-8.04a10 10 0 0 1-3.54-4.92 107 107 0 0 1-2.22-10.64 2.4 2.4 0 0 0-2.95-1.67 2.45 2.45 0 0 0-1.68 2.95ZM47.57 151.7c4.6-1.87 9.32-3.38 13.92-5.21 4.4-1.76 9.93-3.61 10.65-9.26a2.4 2.4 0 0 0-2.4-2.4 2.46 2.46 0 0 0-2.4 2.4 3 3 0 0 1-1.04 1.57 9 9 0 0 1-2.3 1.47c-1.75.85-3.4 1.45-5.26 2.16-4.13 1.58-8.34 2.97-12.44 4.64a2.5 2.5 0 0 0-1.68 2.95 2.4 2.4 0 0 0 2.95 1.68m37.96-80.04a12.5 12.5 0 0 0 7.46 3.18 2.4 2.4 0 0 0 1.7-4.1 2.7 2.7 0 0 0-1.7-.7l-.51-.06.63.09a10 10 0 0 1-2.46-.67l.58.24a10 10 0 0 1-2.29-1.33l.49.38-.5-.43a2.5 2.5 0 0 0-1.7-.7 2.4 2.4 0 0 0-1.7.7 2.4 2.4 0 0 0 0 3.4m15.47 13a51 51 0 0 0-.13 6.35c.1 1.88.14 4.17 1.29 5.76a5.9 5.9 0 0 0 6.1 2.13c2.25-.46 3.63-2.3 4.42-4.31a2.4 2.4 0 0 0-1.67-2.95 2.47 2.47 0 0 0-2.96 1.67c.25-.63-.12.23-.22.39l-.14.22c.28-.18-.07.04-.14.12-.31.36.4-.2-.03.03-.07.04-.5.26-.17.12s-.13.02-.2.04l-.04.03h-.51c-.45 0 .32.1.04 0l-.4-.1q-.3-.12-.03-.01c.27.1.18.07-.01-.03l-.15-.09.16.13-.18-.18q.28.4.14.18c-.04-.08-.2-.25-.2-.35q.2.45.1.18l-.08-.24q-.1-.42-.18-.85c-.1-.5.06.54 0-.07l-.06-.69q-.12-1.25-.13-2.49c-.03-1.67.06-3.34.18-5a2.4 2.4 0 0 0-2.4-2.4 2.46 2.46 0 0 0-2.4 2.4Z" class="c"/><path d="m144.2 303.2 41.06.1c-.81-17.8-2.58-61.12-4.44-77.43-2.25-19.75-2.96-40.78-15.25-57.43-8.46-11.47-20.36-15.62-32.77-22.14a71.6 71.6 0 0 1-46.55 16.68c-6.19 0-12.47-.78-18.24-3.37a29.4 29.4 0 0 1-14.2-13.63c-17.9 4.87-26.48 8.54-33 16.2-5.49 6.46-8.96 16.75-11.7 25.37l-.8 2.67C1.7 212.49-.2 235.88 7.05 255.38c4.26 11.46 13.28 17.02 24.51 19.23a29 29 0 0 0 3 .43c.18 8.76.16 18.77 0 27.94 18.78 0 71.73.12 109.63.22" style="fill:#f8b8b4"/><path d="M52.2 148.08a32 32 0 0 0 11.53 12c5.43 3.25 11.72 4.7 17.98 5.14a75 75 0 0 0 34.37-5.87 74 74 0 0 0 17.47-10.59 2.4 2.4 0 0 0 0-3.39 2.46 2.46 0 0 0-3.4 0 69 69 0 0 1-29.4 13.77 72 72 0 0 1-15.86 1.42c-5.7-.11-11.57-.95-16.71-3.52a27.6 27.6 0 0 1-11.84-11.38c-1.5-2.7-5.64-.28-4.14 2.42m87.99 67.86c.7 9.57.79 19.2.95 28.79.22 12.32.34 24.63-.1 36.95q-.27 8.03-.83 16.04a2.4 2.4 0 0 0 2.4 2.4 2.45 2.45 0 0 0 2.4-2.4c1.64-22.55 1.27-45.2.6-67.78-.14-4.67-.27-9.34-.62-14a2.46 2.46 0 0 0-2.4-2.4 2.4 2.4 0 0 0-2.4 2.4" class="c"/><path d="M32.17 275.04c.18 9.31 0 18.62 0 27.94a2.43 2.43 0 0 0 2.4 2.4q12.71 0 25.43.03l36.17.07q19.3.04 38.58.1l32.22.07 17.53.04h.74c3.08 0 3.09-4.8 0-4.8l-15.12-.03-30.86-.08-38.27-.09-36.92-.08-27.22-.03h-2.29l2.4 2.4c0-9.32.2-18.62 0-27.94-.06-3.09-4.86-3.1-4.8 0Z" class="c"/><path d="M138.73 151.96c5.49 2.7 11.02 5.42 15.97 9.04a44 44 0 0 1 12.22 13.87c6.35 11.03 8.51 23.85 9.94 36.33 1.1 9.68 2.12 19.36 2.78 29.08.72 10.45 1.26 20.9 1.77 31.37q.74 15.6 1.43 31.18c.14 3.08 4.94 3.1 4.8 0-.91-20.05-1.71-40.1-3.03-60.12-.63-9.58-1.62-19.1-2.64-28.64-1.4-13.11-3.27-26.42-9.17-38.37a50 50 0 0 0-13.34-17.06c-5.58-4.47-11.93-7.68-18.3-10.83a2.46 2.46 0 0 0-3.3.86 2.4 2.4 0 0 0 .87 3.29" class="c"/><path d="M146.25 169.02c1.25-.56 1.5-.36 3.82-.64 2.8-.33 3.33-1.52 3.67-2.75.53-1.9.33-3.91-3-5.25l.07-.72a4.3 4.3 0 0 0 3.04-1.88c1.06-1.57.27-3.9-1.25-5.04a8 8 0 0 0-4.91-1.12h-2.04c1.04-1.31.82-1.86.46-4.17a5.3 5.3 0 0 0-4.66-4.35 98 98 0 0 0-8.08 0l.2-.97c.9-3.34-.35-5.47-1.72-6.56-1.66-1.32-4.05-1.89-8.72.67-6.17 3.37-15.49 10.29-16.68 11.89-1.68 2.26-2.3 5.64-2.63 8.43a50 50 0 0 1-1.16 7.85 11.4 11.4 0 0 1-3.92 6.51c-1.47 1.63-8.6 8.4-12.25 11.5l-5.65 4.82c8.64 8.57 13.1 13.47 20.98 21.39l.73-1.04c3.84-5.47 10.81-14.66 15.83-19.34 6.36-1.24 11.72-5.28 16.85-9.22a24 24 0 0 0 4.8-4.43c1.35-1.78 2.85-3.86 4.83-4.9.6-.3 1.03-.52 1.39-.68" class="b"/><path d="M88.19 184.13a189 189 0 0 0 6.94-6.3c1.8-1.7 3.65-3.37 5.31-5.2a2.4 2.4 0 1 0-3.4-3.4c-1.65 1.83-3.5 3.51-5.3 5.2a191 191 0 0 1-6.94 6.3 2.4 2.4 0 0 0 0 3.4 2.46 2.46 0 0 0 3.39 0m16.43 24.68a130 130 0 0 1 14.76-18.2c2.2-2.16-1.2-5.56-3.4-3.39-5.83 5.74-10.8 12.49-15.5 19.17a2.4 2.4 0 0 0 .86 3.28 2.45 2.45 0 0 0 3.28-.86" class="c"/><path d="M149.53 162.45a6 6 0 0 1 1.69.95 1 1 0 0 1 .29.38c-.17-.33.11.66.05.18.06.51.04.4-.13 1.03l-.19.58c.21-.5-.23.24-.08.07.03-.03-.09.04-.15.06l-.59.2a13 13 0 0 1-2.05.24 10 10 0 0 0-3.44.86 13 13 0 0 0-4.02 2.76c-1.2 1.23-2.12 2.7-3.27 4-2.37 2.66-5.57 4.79-8.5 6.82a32 32 0 0 1-10.94 5.28c-3.01.68-1.74 5.31 1.27 4.62a34 34 0 0 0 11.39-5.27c1.73-1.17 3.4-2.43 5.06-3.7a37 37 0 0 0 4.97-4.2c1.3-1.42 2.3-3.1 3.7-4.44a8 8 0 0 1 3.4-1.9c-.52.13.04 0 .26-.02l1.02-.08a13 13 0 0 0 3.07-.55 5.5 5.5 0 0 0 3.46-3.29c1.46-3.73-.22-7.18-3.85-8.72a2.5 2.5 0 0 0-3.28.86 2.4 2.4 0 0 0 .86 3.28m-21.62-16.38q.52-.13 1.06-.22c.63-.11-.28.03.25-.03l.65-.08q1.47-.14 2.95-.2 3.31-.17 6.63-.1.71 0 1.42.04l.58.02c.48.02-.37-.16.14.04a4 4 0 0 1 1.62 1.03 2.3 2.3 0 0 1 .49 1 16 16 0 0 1 .28 1.7c-.06-.44.02.22.02.26.03.34.12.43.05.06.05.26-.2.44.02.07a7 7 0 0 1-.46.7 2.4 2.4 0 0 0 .86 3.29 2.46 2.46 0 0 0 3.29-.86 5 5 0 0 0 1.03-3.46 12 12 0 0 0-1.07-4.58 7.9 7.9 0 0 0-6.75-4.07q-3.67-.14-7.36.02a35 35 0 0 0-6.98.74c-3 .74-1.72 5.37 1.28 4.63" class="c"/><path d="M135.89 142.77a9 9 0 0 0-.91-7.28 7.7 7.7 0 0 0-4.42-3.2c-4.46-1.1-8.9 1.9-12.48 4.17a118 118 0 0 0-10.79 7.68 17 17 0 0 0-2.53 2.3 15.5 15.5 0 0 0-2.92 7.22c-.94 5.23-.26 11.87-4.8 15.58a2.4 2.4 0 0 0 0 3.4 2.45 2.45 0 0 0 3.4 0c3.82-3.13 4.91-8.08 5.43-12.75a49 49 0 0 1 .97-6.71 12 12 0 0 1 1.08-2.9 3 3 0 0 1 .82-1.07 59 59 0 0 1 7.4-5.7q2.51-1.76 5.1-3.37a27 27 0 0 1 5.28-2.83 6 6 0 0 1 2.6-.43c-.4-.04.46.13.58.17.36.11-.3-.17 0 0a8 8 0 0 1 .7.43c-.21-.18.26.26.3.3a3 3 0 0 1 .55.88 5 5 0 0 1 0 2.83c-.72 3 3.9 4.29 4.63 1.28Zm-3.33 11.97q5.31-.38 10.64-.56c1.7-.07 3.42-.18 5.12-.17a4.5 4.5 0 0 1 3.01.8 2 2 0 0 1 .58 1.06.7.7 0 0 1-.13.7c-.44.6-1.1.69-2.02.85l-.58.09.16-.02-.31.03-1.64.19q-1.8.19-3.6.35c-2.68.25-5.36.46-8.02.78a2.5 2.5 0 0 0-2.4 2.4 2.4 2.4 0 0 0 2.4 2.4c2.8-.33 5.63-.56 8.45-.82a60 60 0 0 0 7.38-.88c3.82-.85 6.17-4.59 4.6-8.32-1.62-3.82-5.61-4.5-9.33-4.38-4.77.17-9.55.34-14.31.7a2.46 2.46 0 0 0-2.4 2.4 2.4 2.4 0 0 0 2.4 2.4m-80.18-10.87c-9.75 2.69-20.16 5.5-28.27 11.83-8.56 6.67-12.63 17.05-15.97 27.04a151 151 0 0 0-7.91 38.15c-.8 12.6.35 26.13 5.6 37.76 4.35 9.65 13.3 15.56 23.38 17.9a35 35 0 0 0 17.86-.48 55 55 0 0 0 16.61-8.54c10.52-7.64 19.34-17.46 27.35-27.63a386 386 0 0 0 11.51-15.48l2.68-3.8a29 29 0 0 0 2.49-3.68 6 6 0 0 0 .37-4.47 10 10 0 0 0-2.9-3.87c-4.2-4.17-8.3-8.42-12.41-12.67q-3.06-3.16-6.15-6.29-1.57-1.59-3.16-3.17c-1.27-1.27-2.47-2.58-4.3-2.97-3.68-.79-6.19 2.08-8.77 4.19q-4.18 3.41-8.39 6.8-8.4 6.76-16.73 13.6-4.2 3.45-8.34 6.96a2.4 2.4 0 0 0 0 3.39 2.45 2.45 0 0 0 3.4 0c10.5-8.88 21.26-17.44 31.93-26.12l3.8-3.11c.78-.63 1.55-1.49 2.55-.8a26 26 0 0 1 3.09 3.08l3.13 3.17c3.66 3.72 7.27 7.5 10.92 11.23q3.17 3.24 6.38 6.44c.55.55 1.56 1.2 1.41 2.12a4 4 0 0 1-.79 1.35l-1.43 2.05q-5.09 7.31-10.44 14.45c-7.28 9.64-15.17 18.95-24.33 26.86-8.41 7.27-18.96 14-30.5 13.57-8.95-.33-18.63-4.62-23.7-12.2-3-4.48-4.53-9.8-5.68-15a83 83 0 0 1-1.86-17.87c-.01-12.62 2.35-25.11 5.93-37.18A147 147 0 0 1 16 175.26a42 42 0 0 1 7.89-12.92c5.58-5.82 13.44-8.89 21.23-11.34q4.25-1.33 8.54-2.5c2.97-.82 1.71-5.45-1.28-4.63" class="c"/><path d="M188.73 136.42c7.82-3.5 15.5-7.3 23.32-10.77l-3.52-1.43c.85 4.01 1.33 8.1 2.1 12.13.3 1.62 2.25 2.06 3.52 1.43 7.97-3.91 15.9-7.9 23.88-11.82a2.4 2.4 0 0 0-2.43-4.15c-7.96 3.92-15.9 7.91-23.87 11.83l3.53 1.43c-.77-4.03-1.26-8.11-2.1-12.13-.35-1.66-2.21-2.02-3.53-1.43-7.82 3.48-15.5 7.27-23.32 10.77a2.4 2.4 0 0 0-.86 3.28 2.46 2.46 0 0 0 3.28.86m-17.77-10.45c3.46-4.45 6.62-9.13 9.82-13.77q2.54-3.7 5.12-7.4l2.28-3.2 1.1-1.5.44-.58.28-.37q-.22.3.02-.03h-3.4c2.64 3.15 5 6.53 7.56 9.72 1.06 1.32 2.96.63 3.77-.48 5.61-7.75 11.54-15.27 17.14-23.02a2.4 2.4 0 0 0-.86-3.29 2.45 2.45 0 0 0-3.28.86c-5.6 7.76-11.53 15.27-17.14 23.03l3.77-.49c-2.57-3.2-4.92-6.57-7.56-9.72a2.4 2.4 0 0 0-3.4 0c-3.38 4.34-6.45 8.92-9.58 13.45q-2.56 3.75-5.17 7.46l-2.35 3.3-1.15 1.56-.46.62-.34.45a2.5 2.5 0 0 0 0 3.4 2.4 2.4 0 0 0 3.39 0" style="fill:#f2635f"/></svg>
