<svg xmlns="http://www.w3.org/2000/svg" viewBox="-133.38 0 419.322 419.322"><defs><style>.a{fill:#fff}.c{fill:#211715}.e{fill:#7abee6}</style></defs><path d="M77.74 191.42h-4.38c-.05-25.33-.26-69.26-.2-89.48l.2.05a71 71 0 0 0 16.14 2.32c5.15.01 12.47-.8 17.5-2.8 0 20.87-.08 64.23-.1 89.91zm-5.08 209.1a10.4 10.4 0 0 1-7.9.42c-2.88-1.04-5.44-3.16-5.07-6.68l.25-2.46a56 56 0 0 0 6.57-7.95 14 14 0 0 0 2.65-7.6l-.1-4.14a49 49 0 0 0 20.18-1.49 49 49 0 0 0 21.95 1.22l-.12 4.41a14 14 0 0 0 2.65 7.6 56 56 0 0 0 6.57 7.95l.26 2.45c.36 3.53-2.2 5.64-5.08 6.7a10.5 10.5 0 0 1-9.35-1.25 93 93 0 0 1-13.1-10.7l-1.27-1.34-3.14-.7a18 18 0 0 1-1.39 2.04 93 93 0 0 1-13.1 10.7 11 11 0 0 1-1.46.81" class="a"/><path d="M101.51 407.32c-2.74-1.9-5.17-3.59-5.94-4.07-5-3.12-4.44-7.36-4.33-10.27a53 53 0 0 1 .5-5.31l1.27 1.33a93 93 0 0 0 13.1 10.7 10.5 10.5 0 0 0 9.36 1.24c2.88-1.04 5.44-3.16 5.08-6.68l-.26-2.46.47.49c3.24 3.31 6.8 6.58 10.04 9.8 2.1 2.09 3.75 4.87 3.67 7.92a6.8 6.8 0 0 1-3.22 5.08 13 13 0 0 1-5.84 2.06 22 22 0 0 1-13.76-2.83c-.75-.43-5.84-4-10.14-7m-22.79 0c2.75-1.9 5.17-3.59 5.95-4.07 5-3.12 4.43-7.36 4.32-10.27a59 59 0 0 0-.38-6.02 10 10 0 0 0-1.39 2.04 93 93 0 0 1-13.1 10.7 10.5 10.5 0 0 1-9.36 1.24c-2.88-1.04-5.44-3.16-5.07-6.68l.25-2.46-.47.49c-3.23 3.31-6.8 6.58-10.03 9.8-2.1 2.09-3.75 4.87-3.68 7.92a6.8 6.8 0 0 0 3.22 5.08 13 13 0 0 0 5.85 2.06 22 22 0 0 0 13.75-2.83c.76-.43 5.84-4 10.14-7" style="fill:#7a7473"/><path d="M102.52 405.6c-1.8-1.25-3.6-2.53-5.42-3.74a8 8 0 0 1-3.42-3.54 10 10 0 0 1-.49-4.19 55 55 0 0 1 .49-5.93l-3.34.88a76 76 0 0 0 6.95 6.48c3.12 2.57 6.5 5.63 10.3 7.12a12.3 12.3 0 0 0 11.48-1.36 8.3 8.3 0 0 0 3.17-4.15c.57-1.76.24-3.57.05-5.36l-3.41 1.4c3 3.08 6.12 6 9.2 9 2.14 2.1 5.7 5.69 4.05 9.04-1.7 3.48-6.54 4.16-9.96 4.07a19.5 19.5 0 0 1-10.02-3.04c-3.26-2.14-6.43-4.44-9.63-6.67-2.12-1.48-4.12 1.99-2.02 3.45 3.2 2.23 6.37 4.53 9.63 6.67a23.4 23.4 0 0 0 12.25 3.6c4.66.07 9.73-1.2 12.61-5.13 2.83-3.86 1.12-8.83-1.6-12.21a66 66 0 0 0-5.86-5.85q-2.95-2.82-5.82-5.74c-1.13-1.16-3.6-.37-3.42 1.41a12 12 0 0 1 .19 4 4.4 4.4 0 0 1-2.24 2.59 8.7 8.7 0 0 1-9.27-.53 79 79 0 0 1-13.8-11.61c-.95-1-3.12-.63-3.35.88a65 65 0 0 0-.62 7 13.5 13.5 0 0 0 .73 5.53 11.5 11.5 0 0 0 4.7 5.35c1.99 1.3 3.92 2.68 5.88 4.04 2.11 1.47 4.11-2 2.01-3.46" class="c"/><path d="M112.38 312.3c-.76 12.68-1.59 25.34-2.26 38q-.48 8.88-.8 17.76c-.1 2.8-.3 5.62-.24 8.42a16 16 0 0 0 1.66 6.32 34 34 0 0 0 5.33 7.35c2.3 2.65 4.8 5.1 7.32 7.53 1.85 1.8 4.68-1.03 2.82-2.82-4.09-3.96-8.26-8.01-11.34-12.84-2.54-3.98-1.73-8.82-1.57-13.28.4-11.84 1.1-23.66 1.8-35.48l1.28-20.96c.16-2.57-3.84-2.56-4 0m-32.65 96.75c1.98-1.37 3.94-2.76 5.95-4.08a11.3 11.3 0 0 0 4.83-5.86 15 15 0 0 0 .5-5.57c-.1-2.38-.14-4.75-.47-7.11-.25-1.77-2.87-1.85-3.66-.48a13 13 0 0 1-1.27 1.89c.5-.59-.02-.01-.1.07l-.64.62q-1.59 1.52-3.28 2.96a86 86 0 0 1-8.16 6.27 8.7 8.7 0 0 1-9.15.8 5 5 0 0 1-2.43-2.45c-.47-1.3-.04-3 .1-4.3.18-1.77-2.29-2.58-3.42-1.42-3.42 3.51-7.07 6.8-10.5 10.29-3 3.05-5.52 7.83-3.6 12.1 1.96 4.4 7.01 6.14 11.48 6.48a23.7 23.7 0 0 0 13.72-3.23c3.5-2.1 6.77-4.65 10.1-6.98 2.1-1.46.1-4.93-2.01-3.45q-4.46 3.14-8.94 6.21a20 20 0 0 1-8.98 3.39c-3.66.41-8.31.07-10.94-2.86-2.5-2.8-.18-6.62 2-8.83 3.44-3.5 7.08-6.78 10.5-10.3l-3.42-1.41c-.18 1.8-.51 3.6.06 5.37a8.4 8.4 0 0 0 3.43 4.33 12.4 12.4 0 0 0 11.89.9 28 28 0 0 0 5.38-3.5q2.48-1.85 4.85-3.84c2.5-2.1 5.14-4.21 6.79-7.09l-3.66-.47c.27 1.92.24 3.88.33 5.82a14 14 0 0 1-.27 4.46 7.3 7.3 0 0 1-3.34 3.91c-1.92 1.26-3.8 2.6-5.68 3.9-2.1 1.47-.1 4.94 2.01 3.46" class="c"/><path d="M63.86 312.3c.73 12.2 1.52 24.4 2.18 36.6q.48 8.78.82 17.6.16 4.22.27 8.44a13 13 0 0 1-1 5.69 29 29 0 0 1-4.94 6.88c-2.26 2.57-4.7 4.98-7.16 7.35-1.86 1.8.98 4.62 2.83 2.83a88 88 0 0 0 11.78-13.36c2.96-4.31 2.51-9.3 2.35-14.25-.4-12.04-1.08-24.06-1.81-36.08l-1.32-21.7c-.16-2.55-4.16-2.57-4 0m23.26 58.32v9.99a2 2 0 0 0 4 0v-10a2 2 0 0 0-4 0" class="c"/><path d="M89.24 192.42H56.91c-6.33 14.77-5.54 31.17-4.64 47.05q3.73 65.45 8.7 130.83a49 49 0 0 0 28.27.32 49 49 0 0 0 28.28-.32q4.96-65.37 8.7-130.83c.9-15.88 1.68-32.28-4.65-47.05zm28.67-144.45a4.4 4.4 0 0 1 3.14-1.15 4 4 0 0 1 3.62 2.01c1.23 2.13 1.17 6.07.35 8.5a13 13 0 0 1-3.85 6.25 4.8 4.8 0 0 1-3.7 1.06l-.35-.06a28 28 0 0 1-1.27 3.45c-.94 2.55-6.13 11.49-12.69 14.97q.15 1.88.48 3.76c.36 2.05.23 3.86 3.33 4.82.02 2.01.02 5.45.03 9.93-5.03 2-12.35 2.82-17.5 2.8A71 71 0 0 1 73.37 102l-.2-.05c.01-4.76.04-8.2.1-9.78l1.5-.7c2.73-.98 2.62-2.74 2.97-4.7.2-1.13.35-2.18.44-3.28a24.4 24.4 0 0 1-8.85-7.08 33 33 0 0 1-6.26-11.83 4.7 4.7 0 0 1-4-1 13 13 0 0 1-3.85-6.24c-.83-2.44-.88-6.37.35-8.5a4 4 0 0 1 3.62-2.02 4.3 4.3 0 0 1 3.14 1.15S58.45 22.2 90.12 22.2s27.78 25.78 27.78 25.78" class="a"/><path d="M81.54 2.85c-11.96 2.8-22.1 12.63-24.5 24.46a41 41 0 0 0 .03 13.74s1.03 4.49 1.44 5.64c16.7-2.88 32.2-11.65 43.63-20.8a49 49 0 0 0 4.8 11.03c1.82 2.9 7.03 9.49 11.76 10.47a4.4 4.4 0 0 1 2.35-.57 5 5 0 0 1 1.5.27c2.47-5.55 1.26-15.05.28-19.78q-.17-.85-.4-1.7a29 29 0 0 0-1.9-5.05 33.5 33.5 0 0 0-17.2-16.09 30.5 30.5 0 0 0-13.4-2.37 30 30 0 0 0-8.39.75m47.23 65.9a15.7 15.7 0 0 0-6.17-6.63 10 10 0 0 1-1.43 1.46 4.8 4.8 0 0 1-3.7 1.06l-.35-.06a28 28 0 0 1-1.27 3.45c-.94 2.55-6.13 11.48-12.69 14.97q.15 1.88.48 3.76c.34 1.96.24 3.71 2.97 4.7.05.01.55.25 1.3.6l1.1.38 15.6 5.72a32 32 0 0 1 4.06 1.8l-.11-.23a19.4 19.4 0 0 1-.92-12.87c1.03-4.3 3.11-8.75 2.62-13.13a15 15 0 0 0-1.5-4.98" style="fill:#957f6e"/><path d="M121.59 63.85a14 14 0 0 1 5.63 6.29 13.8 13.8 0 0 1 .43 9.44c-.92 3.53-2.2 6.9-2.57 10.55a20.4 20.4 0 0 0 1.75 10.61 2 2 0 0 0 2.74.72 2.05 2.05 0 0 0 .71-2.74 17 17 0 0 1-.9-10.46c.77-3.8 2.35-7.37 2.82-11.23.8-6.68-2.89-13.26-8.6-16.63-2.21-1.32-4.23 2.14-2.01 3.45m2.93-16.34c1.69-4.04 1.66-8.77 1.32-13.07a43 43 0 0 0-2.73-12.98A35.5 35.5 0 0 0 102.16 1.9 40 40 0 0 0 86.52.1a34 34 0 0 0-12.8 3.45 35 35 0 0 0-17.4 19.02c-2.9 7.76-2.28 16.75.23 24.53.78 2.45 4.65 1.4 3.85-1.06-1.93-6-2.71-12.7-1.29-18.9A30.2 30.2 0 0 1 72.63 8.75a31 31 0 0 1 11.05-4.3 30 30 0 0 1 5.9-.36 40 40 0 0 1 7.58.56A31.6 31.6 0 0 1 118 20.03a34 34 0 0 1 3.73 13.17c.44 4.35.66 9.13-1.07 13.24a2 2 0 0 0 1.4 2.46 2.05 2.05 0 0 0 2.46-1.4Z" class="c"/><path d="M100.5 27.48a42 42 0 0 0 6.4 12.84c2.82 3.69 6.62 8.03 11.38 9.02a2.05 2.05 0 0 0 2.46-1.4 2 2 0 0 0-1.4-2.46c-3.81-.79-7.06-4.6-9.29-7.57a38 38 0 0 1-5.69-11.5c-.77-2.44-4.63-1.4-3.86 1.07" class="c"/><path d="M100.32 24.8C88.8 33.9 75.37 41.02 60.96 44.17c-2.52.55-1.45 4.4 1.06 3.86 15.11-3.3 29.06-10.88 41.12-20.42a2 2 0 0 0 0-2.83 2.05 2.05 0 0 0-2.82 0M65.95 97.66c.87-.3 1.72-.74 2.56-1.12l3.85-1.78 3.02-1.4.31-.14c.1-.04.27-.12-.16.06-.51.22-.07.04.07-.01q.37-.14.75-.33a5.4 5.4 0 0 0 2.4-2.23 9 9 0 0 0 .82-2.85c.23-1.46.48-2.92.61-4.4a2 2 0 0 0-2-2 2.05 2.05 0 0 0-2 2 37 37 0 0 1-.89 5.29c-.06.24.2-.31.04-.12l-.13.24c-.22.4.18-.14-.06.08l-.22.21c.22-.25.16-.1.03-.02l-.3.18c-.03.02-.45.23-.27.15s-.14.05-.14.05l-.49.2-.06.03-.3.14-6.43 2.97-1.67.76-.53.24c-.45.2.5-.19.13-.06a2 2 0 0 0 1.06 3.86m35.24-14.36q.2 2.07.55 4.12a16 16 0 0 0 .39 2.11 5.4 5.4 0 0 0 1.47 2.44 6 6 0 0 0 1.31.91 11 11 0 0 0 .98.43c.64.24-.46-.23-.22-.1 1.9.97 3.89 1.83 5.82 2.75.93.43 1.85.89 2.79 1.28a2 2 0 0 0 2.46-1.4 2.06 2.06 0 0 0-1.4-2.46c1 .42.08.02-.15-.09l-1.24-.58-3.36-1.6-2.6-1.22-.29-.13-.07-.03-.48-.2c-.06-.03-.37-.17-.06-.02l-.53-.28-.1-.07-.03-.02-.2-.2c-.3-.25.1.08.06.1l-.29-.48c-.1-.16.1.18.08.2l-.12-.35-.12-.49q-.11-.57-.19-1.16l-.27-1.69-.08-.62q-.07-.57-.12-1.15a2 2 0 0 0-4 0Z" class="c"/><path d="M63.75 46.55a6.7 6.7 0 0 0-7.35-1.09 6.4 6.4 0 0 0-3.35 4.3 16 16 0 0 0 2.32 12.64c1.65 2.45 4.25 4.65 7.4 4.24a2.07 2.07 0 0 0 2-2 2 2 0 0 0-2-2c-2.19.29-3.6-1.52-4.55-3.26a13 13 0 0 1-1.55-4.82 8.3 8.3 0 0 1 .83-5.04c-.33.53.5-.43.2-.2a2 2 0 0 1 .92-.43 2.5 2.5 0 0 1 2.3.5c1.91 1.7 4.75-1.12 2.82-2.84Zm55.57 2.83a2.5 2.5 0 0 1 2.17-.51 2 2 0 0 1 1.05.44c-.3-.22.52.72.2.21a8.3 8.3 0 0 1 .82 5.04 13 13 0 0 1-1.55 4.82c-.94 1.74-2.36 3.54-4.54 3.26a2 2 0 0 0-2 2 2.05 2.05 0 0 0 2 2c5.12.67 8.27-4.86 9.54-9 1.15-3.7 1.1-9.46-2.54-11.84a6.7 6.7 0 0 0-7.98.75c-1.93 1.72.91 4.54 2.83 2.83" class="c"/><path d="M115.72 62.01a28 28 0 0 1-1.27 4.22l-.56 1.36c-.2.5.14-.29-.03.07l-.18.38a36 36 0 0 1-3.1 5.15c-2.67 3.8-6.34 7.95-11.05 9.05-2.5.6-1.45 4.45 1.06 3.86 5.6-1.31 9.9-5.99 13.15-10.47a37 37 0 0 0 3.36-5.5q.3-.63.56-1.27c.22-.52-.16.35.07-.17q.24-.51.43-1.02a28 28 0 0 0 1.41-4.6c.53-2.5-3.33-3.58-3.85-1.06m-55.14.97C62.98 73.5 70.92 85 82.3 86.7a2.07 2.07 0 0 0 2.46-1.4 2 2 0 0 0-1.4-2.46c-10.1-1.52-16.8-11.63-18.92-20.94-.58-2.51-4.43-1.45-3.86 1.06Zm24.09 8.96a12 12 0 0 0 5.74 1.34 9.5 9.5 0 0 0 5.92-1.8 2 2 0 0 0 0-2.82 2.06 2.06 0 0 0-2.83 0c.7-.54-.02-.02-.23.1-.17.09-.62.23.01.01l-.46.17c-.43.14-.9.16-1.3.3a10 10 0 0 1-1.28.05 12 12 0 0 1-1.21-.06l-.22-.03q-.23-.02.2.03a8 8 0 0 1-1.22-.27l-.5-.17c-.45-.15.42.2.02.01l-.62-.3a2 2 0 1 0-2.02 3.45Zm4.46-13.2a26 26 0 0 1 .6 2.76l-.07-.53v.38l.08-.53-.04.17.2-.48-.06.11.31-.4-.09.09.4-.31-.21.11.47-.2-.36.11.53-.07h-.35l.53.07-.38-.07a1.5 1.5 0 0 0-.8-.03 1.5 1.5 0 0 0-.75.23 2 2 0 0 0-.71 2.74l.3.4a2 2 0 0 0 .9.52c.34.04.68.13 1.03.14a3.4 3.4 0 0 0 1.6-.39 2.4 2.4 0 0 0 1.32-1.59 4 4 0 0 0-.02-1.65q-.23-1.32-.58-2.64a2 2 0 0 0-2.46-1.4 2 2 0 0 0-1.2.92 2 2 0 0 0-.2 1.55Zm-14-7.95c-.46 1.5-.16 4.93 2.67 5.22 3.74-.02 3.94-4.18 2.68-6.13-1.03-1.6-4.06-2.27-5.35.9m29.98 0c.46 1.5.16 4.93-2.67 5.22-3.75-.02-3.95-4.18-2.69-6.13 1.04-1.6 4.07-2.27 5.36.9M73.31 193.4h33.54c2.57 0 2.57-4 0-4H73.32c-2.58 0-2.58 4 0 4m-19.72 2.1c-3.52 10.24-4.14 21.18-3.87 31.93.29 11.32 1.15 22.64 1.83 33.95q2.1 34.83 4.55 69.65 1.38 19.64 2.87 39.28a2.1 2.1 0 0 0 1.47 1.93 51.5 51.5 0 0 0 27 .94c2.5-.59 1.44-4.45-1.07-3.86a47.4 47.4 0 0 1-24.87-.94l1.47 1.93q-2.63-34.67-4.92-69.38c-1.5-22.86-3.14-45.74-4.15-68.63-.54-12.01-.4-24.24 3.55-35.73.84-2.44-3.03-3.5-3.86-1.07" class="c"/><path d="M86.93 232.65q0 11.8.03 23.58l.08 32.37.09 34.1.07 29.33.04 17.56v1.03c0 2.57 4 2.58 4 0q0-7.82-.03-15.65l-.07-28.25-.1-33.86-.07-32.96-.04-25.02v-2.23c0-2.57-4-2.57-4 0" class="c"/><path d="M121.04 196.56c3.51 10.23 4.01 21.06 3.7 31.79-.33 11.26-1.17 22.52-1.85 33.76q-2.09 34.6-4.52 69.16-1.37 19.52-2.85 39.03l1.47-1.93a47.4 47.4 0 0 1-24.88.94c-2.5-.58-3.57 3.27-1.06 3.86a51.5 51.5 0 0 0 27-.94 2.1 2.1 0 0 0 1.47-1.93q2.64-34.8 4.94-69.62c1.51-23.01 3.2-46.04 4.16-69.08.51-12.12.26-24.52-3.72-36.1-.83-2.43-4.7-1.39-3.86 1.06" class="c"/><path d="M43.44 106.63a75 75 0 0 1 8.63-5.63 125 125 0 0 1 21.2-8.95c-.37 10.44.28 109.79.05 117.9 0 3.52-.8 3.83-1.96 4.7a8.4 8.4 0 0 1-4.38 1.01c-6.85.05-14-.07-20.55-2.15.94-12.87 2.6-25.1 3.72-37.7-1.4 3.77-6.29 5.92-10.44 5.2a18.3 18.3 0 0 1-11.85-7.7c-4.73-7.1-11.9-25.94-15.46-36.98l3.58-1.18Z" class="e"/><path d="M44.86 108.05c3.24-2.77 7.67-5.1 11.63-7.06a109 109 0 0 1 17.31-7c2.47-.73 1.42-4.6-1.06-3.87a115 115 0 0 0-18.27 7.42 60 60 0 0 0-12.44 7.68c-1.96 1.67.88 4.5 2.83 2.83m27.98-4.13a66 66 0 0 0 17.52 2.39 50 50 0 0 0 17.16-2.87 2.06 2.06 0 0 0 1.4-2.46 2 2 0 0 0-2.46-1.4c-10.23 3.98-22.13 3.23-32.56.48-2.49-.66-3.55 3.2-1.06 3.86" class="c"/><path d="M71.27 92.05c-.2 5.93-.12 11.88-.12 17.81q0 16.04.06 32.08l.11 34.92q.05 13.17.05 26.34.01 3.2-.04 6.37l-.01.37a12 12 0 0 1-.07 1.57c-.03.18-.22.88-.15.69l-.14.24c-.18.25.18-.24 0-.01a1 1 0 0 1-.24.22c-.24.17.25-.19 0 0a4.5 4.5 0 0 1-2.17.9 39 39 0 0 1-6.86.08 74 74 0 0 1-7.63-.5 42 42 0 0 1-7.1-1.54l1.48 1.92c1.01-13.8 2.72-27.54 4.09-41.3.44-4.44 1.02-8.9 1.16-13.37a37 37 0 0 0-.38-5.1c-.35-3.27-.74-6.52-1.08-9.78-.72-6.79-1.25-13.6-1.72-20.4-.17-2.55-4.17-2.57-4 0 .41 6 .87 12.01 1.47 18q.53 5.1 1.11 10.2c.24 2.1.56 4.22.61 6.33a101 101 0 0 1-.97 12.03c-.6 6.06-1.18 12.12-1.83 18.17-.9 8.4-1.84 16.8-2.46 25.22a2 2 0 0 0 1.46 1.93 57 57 0 0 0 15.32 2.18c4.03.1 8.99.77 12.26-2.09 2.4-2.09 1.86-6.06 1.88-9 .04-7.92 0-15.83-.02-23.75l-.11-34.87q-.05-17-.08-34.01c0-6.93-.06-13.86.09-20.78q0-.53.03-1.07c.08-2.57-3.92-2.57-4 0" class="c"/><path d="M150.4 159.04c-1.44-13.93-3.12-20.9-7.33-37.8a74 74 0 0 0-2.78-8.16c-1.66-4.09-3.77-7.65-7.28-10.35a32 32 0 0 0-8.4-4.57c-5.06-1.84-14-5.15-17.64-6.45.05 9.06 0 45.23-.05 75.52l-.55.23-6.47 2.71a.85.85 0 0 0-.47 1.12c1.26 3.08 4.64 11.12 7.11 17.37l.35.88c-.01 12.17-.02 20.82 0 22.05.12 1.65.54 2.8 1.75 3.44a8.6 8.6 0 0 0 3.98.67 80 80 0 0 0 19.19-1.88 710 710 0 0 0-2.6-26.4l.2-.08a61 61 0 0 0 13.6-7.73c3.21-2.64 5.77-6.42 6.46-9.13a27 27 0 0 0 .93-11.44" class="e"/><path d="M127.36 188.78c.9 8.33 1.88 16.67 2.45 25.04l1.47-1.93a77 77 0 0 1-13.61 1.74 36 36 0 0 1-6.96-.02c-1.34-.22-1.75-.79-1.82-2.11-.08-1.58 0-3.18 0-4.76l.01-23.63.05-33.7.04-33.33V92.02c-.02-2.57-4.02-2.58-4 0q.02 10.54 0 21.08 0 16.7-.03 33.4l-.05 34.8-.02 24.82c0 1.76-.05 3.52 0 5.27a8 8 0 0 0 .81 3.44c1.1 2 3.35 2.67 5.5 2.82a71 71 0 0 0 14.14-.67q3.53-.47 7-1.23a2 2 0 0 0 1.47-1.93c-.56-8.37-1.54-16.7-2.45-25.04a2.06 2.06 0 0 0-2-2 2 2 0 0 0-2 2" class="c"/><path d="M106.25 93.6c9.13 3.28 22.36 8.66 26.82 13.3 5.55 5.78 7.29 11.04 8.7 17.03 1.69 7.2 1.7 29.23 3.15 46.3" style="fill:none"/><path d="M62.51 160.5c2.53-2.1 27.38-20.71 32.33-23.9 10.67 13.82 29.24 40.49 32.37 45.17-4.22 3.4-27.73 21.22-32.78 24.8-4.51-6.27-26.78-37.86-31.92-46.08Z" class="a"/><path d="m63.93 161.9.51-.4c.17-.13.93-.73.5-.4l2.46-1.87q3.43-2.61 6.89-5.2 7.9-5.92 15.88-11.72c1.87-1.35 3.74-2.73 5.68-3.98l-2.73-.72c9.84 12.76 19.1 26 28.3 39.24q2.05 2.94 4.07 5.93l.31-2.43c-3.67 2.96-7.3 5.67-11.22 8.65q-7.76 5.9-15.57 11.74-2.77 2.09-5.59 4.1l2.74.72q-13.47-18.7-26.41-37.78c-1.87-2.75-3.74-5.49-5.5-8.3-1.37-2.17-4.83-.17-3.46 2.02 3.75 5.97 7.84 11.73 11.85 17.52q7.4 10.67 14.89 21.27 2.58 3.65 5.18 7.29a2.03 2.03 0 0 0 2.73.71c9.43-6.68 18.57-13.81 27.73-20.85q2.76-2.1 5.47-4.26a2 2 0 0 0 .3-2.42 1051 1051 0 0 0-32.36-45.17 2.04 2.04 0 0 0-2.74-.72c-4.3 2.78-8.38 5.94-12.5 8.97q-7.77 5.74-15.47 11.57c-1.6 1.2-3.22 2.4-4.76 3.67-2 1.64.85 4.45 2.82 2.83Zm44.54-67.53 14.74 5.4c5.36 1.96 10.27 4.9 13.22 9.92 3.22 5.48 4.66 11.84 6.16 17.94a317 317 0 0 1 3.47 15.27 184 184 0 0 1 2.34 16.14 2.06 2.06 0 0 0 2 2 2 2 0 0 0 2-2 231 231 0 0 0-5.6-31.03c-1.6-6.52-3.12-13.17-6.26-19.16-2.99-5.7-7.93-9.53-13.8-11.99-5.62-2.35-11.48-4.26-17.21-6.35-2.43-.88-3.47 2.98-1.07 3.86Z" class="c"/><path d="M128.13 159.04c.25-5.42.7-10.82 1.09-16.24.4-5.73.4-11.46.4-17.2 0-2.57-4-2.57-4 0 0 5.75 0 11.47-.4 17.2-.38 5.41-.84 10.82-1.1 16.24-.11 2.58 3.89 2.57 4 0" class="c"/><path d="M99.6 173.35c-1.5-1.51-2.88-1.97-5.42-3.02a33 33 0 0 0-3.74-.8c-1.63-.24-2.83-.5-4.47-.62-2.17-.17-3.43-.38-4.32.52a2.5 2.5 0 0 0-.66 2c.16 3 5.46 4.76 7.93 6.5a29 29 0 0 1-7.2 2.24 41 41 0 0 1-4.5-1.43 3.1 3.1 0 0 0-3.35 1.31 2.8 2.8 0 0 0 .69 3.54 12 12 0 0 0 1.7 1.06 5.8 5.8 0 0 0 .33 4.34 7 7 0 0 0 2.57 2.98 15 15 0 0 0 3.66 7.01 7 7 0 0 0 4.3 1.38c7.13-1.6 12.77-5.46 18.41-10.1Z" class="a"/><path d="M87.91 176.2a27 27 0 0 1-6.73 2.04h1.06a37 37 0 0 1-4.36-1.37 5 5 0 0 0-5.6 1.97 4.85 4.85 0 0 0 .58 5.9 13 13 0 0 0 5.83 2.96c2.5.67 3.56-3.19 1.07-3.85a12 12 0 0 1-2.88-1.13l-.68-.41-.38-.26a.7.7 0 0 1-.28-.46l-.02-.09q.02-.34 0-.15c-.1.29.14-.56.08-.33q-.03.14.08-.1-.2.27.04 0c-.3.14.23-.14.26-.16.2-.1.46-.23.63-.15-.3-.14.12.08.2.1q.3.12.56.2 1.21.44 2.44.8.53.17 1.07.3a5 5 0 0 0 2-.01 32 32 0 0 0 7.05-2.34 2 2 0 0 0 .72-2.73 2.05 2.05 0 0 0-2.74-.72Z" class="c"/><path d="M74.32 184.12a8.65 8.65 0 0 0 3.83 9.58l-.92-1.2a17 17 0 0 0 4.32 8.03c2 1.87 5.05 2.08 7.54 1.4 6.75-1.87 12.5-5.87 17.85-10.25 1.99-1.63-.85-4.44-2.83-2.83a61 61 0 0 1-8.78 6.17 33 33 0 0 1-4.72 2.21q-1.17.44-2.38.78-.6.18-1.23.32c-.95.24.09.11-.42.06a4.2 4.2 0 0 1-2.62-1.14 12 12 0 0 1-2.21-3.64c-.26-.71-.41-1.46-.67-2.17-.35-.99-1.26-1.26-1.87-2.03a4.5 4.5 0 0 1-1.03-4.23c.67-2.49-3.2-3.55-3.86-1.06m26.7-12.19a16 16 0 0 0-6.67-3.63 46 46 0 0 0-8.55-1.4 11 11 0 0 0-3.71.04 4.2 4.2 0 0 0-2.9 2.83c-.77 2.52.63 4.7 2.56 6.18 1.91 1.47 4.18 2.34 6.16 3.71a2 2 0 0 0 2.74-.72 2.04 2.04 0 0 0-.72-2.73c-1.78-1.24-3.83-2.03-5.6-3.3a7 7 0 0 1-.9-.78l-.26-.3q.18.22-.02-.06l-.17-.32q.13.3.02-.02c-.1-.5.01.53-.02-.3 0-.1.1-.36.08-.29q-.24.15.05-.04l-.14.05.37-.1q-.29.04.1 0a34 34 0 0 1 8.35 1.05 13.3 13.3 0 0 1 6.4 2.95c1.84 1.8 4.67-1.02 2.83-2.83Z" class="c"/><path d="M150.4 159.04a27 27 0 0 1-.93 11.45c-.68 2.7-3.24 6.49-6.46 9.12a61 61 0 0 1-13.6 7.73 176 176 0 0 1-19.79 7.11.9.9 0 0 1-1.06-.54c-.5-1.4-1.2-3.24-2-5.25-2.48-6.25-5.86-14.29-7.12-17.37a.85.85 0 0 1 .47-1.12l6.47-2.7c6.68-2.84 13.8-5.9 19.75-8.43Z" class="e"/><path d="M148.4 159.04a29 29 0 0 1-.61 9.92 17 17 0 0 1-5.4 8.55 43 43 0 0 1-9.96 6.26 124 124 0 0 1-11.51 4.83q-3.23 1.2-6.5 2.27-1.37.46-2.75.88l-1.26.39-.45.13-.44.13q-.4.09.22.07l.72.72a20 20 0 0 1-1.19-3.05l-1.29-3.27q-1.28-3.2-2.6-6.4l-2.37-5.75-.94-2.25a6 6 0 0 1-.67-1.71l-.28 1q-.6.35.15 0l.85-.36 1.71-.72 3.56-1.49 6.7-2.85 13.05-5.57a2 2 0 0 0 .72-2.74 2.05 2.05 0 0 0-2.74-.71c-8.45 3.57-16.86 7.22-25.33 10.75-1.85.78-2.92 2.2-2.09 4.22l1.64 3.97q2.28 5.45 4.49 10.94 1.21 3 2.35 6.02a6 6 0 0 0 1.34 2.55 3 3 0 0 0 2.91.53 107 107 0 0 0 10.71-3.54c7.92-2.9 16.16-6.1 22.84-11.38 3.27-2.58 6.3-6.28 7.42-10.36a33 33 0 0 0 1-11.98 2.06 2.06 0 0 0-2-2 2 2 0 0 0-2 2M15.45 133.21l-3.58 1.19a2.03 2.03 0 0 0-1.4 2.46 277 277 0 0 0 10.1 26.64 78 78 0 0 0 5.2 10.26 20.6 20.6 0 0 0 11.93 8.84c5.18 1.4 11.73-.3 14.09-5.55a2.06 2.06 0 0 0-.72-2.74 2 2 0 0 0-2.74.72c-1.75 3.9-6.38 4.69-10.11 3.55a16.7 16.7 0 0 1-9.41-7.54c-4.14-6.88-7.03-14.61-9.85-22.1q-2.47-6.51-4.63-13.14l-1.4 2.46 3.58-1.19c2.43-.8 1.4-4.66-1.06-3.85Z" class="c"/><path d="M35.27 112.48c.15 3.14-1.45 7.2-2.28 8.94a13 13 0 0 1-1.13 1.98c-.94 1.32-.5 2.77-.39 4.5.06.93.32 1.75.4 2.42-3.02 1.76-11.85 4.3-15.94 5.52a65 65 0 0 0-4.87-6.94c-3.08-2.05-7.25-7.74-8.71-13.73l-.32-2.25c-.12-.8.09-3.16 1.63-3.9a3.2 3.2 0 0 1 3.59.65l.03-2.07a3.6 3.6 0 0 1 2.42-3.06c1.31-.47 2 .28 2.87 1.07a3.5 3.5 0 0 1 .94-3.35c1.45-1.17 4.62-1.8 5.27 1.85-2.06-6.04-4.47-13.44-4.82-15.12a4.1 4.1 0 0 1 2.65-4.46c1.84-.59 4.33 1.8 4.78 2.97 2.16 5.62 3.58 9.72 5.75 16.62 1.14.05 2.22.15 3.44.24a4.4 4.4 0 0 1 2.59 1.39 9.7 9.7 0 0 1 2.1 6.73" class="a"/><path d="M28.9 103.05c-1.49-4.7-3.05-9.38-4.79-14-.78-2.08-1.45-3.78-3.25-5.17-1.78-1.38-3.95-1.93-5.99-.75a6.2 6.2 0 0 0-2.96 5.57 15 15 0 0 0 .73 3.06q1.46 4.77 3.06 9.47 1.7 5.14 3.52 10.22c.88 2.4 4.75 1.36 3.86-1.06a424 424 0 0 1-6.7-20.07 7 7 0 0 1-.48-2.06 2.2 2.2 0 0 1 .76-1.5c.5-.42.75-.35 1.31-.03 1.44.82 1.8 2.1 2.35 3.57a281 281 0 0 1 4.72 13.81c.78 2.45 4.64 1.4 3.86-1.06" class="c"/><path d="M.28 115.16a28 28 0 0 0 8.07 14.14 15 15 0 0 0 1.28 1.03c.46.33-.15-.2.23.22.04.04.33.4.09.1l.32.42.76 1.04a54 54 0 0 1 3.17 4.75 2 2 0 0 0 2.26.92c2.85-.86 5.7-1.7 8.54-2.62a42 42 0 0 0 7.87-3.11 2.1 2.1 0 0 0 .92-2.26c-.12-.85-.3-1.67-.37-2.53a7 7 0 0 1-.12-2.22 9 9 0 0 1 1.05-1.88q.43-.8.78-1.64a22 22 0 0 0 2.14-9.03c-.07-2.57-4.07-2.58-4 0a18 18 0 0 1-2.19 8.3c-.81 1.6-1.8 2.8-1.8 4.7a36 36 0 0 0 .65 5.36l.92-2.26a38 38 0 0 1-7.25 2.82q-4.1 1.3-8.2 2.5l2.25.93a53 53 0 0 0-3-4.52 16 16 0 0 0-3-3.44c-3.85-3-6.45-8.12-7.51-12.78-.57-2.51-4.43-1.45-3.86 1.06" class="c"/><path d="M8.65 108.25a5.16 5.16 0 0 0-6.82-.38 6.1 6.1 0 0 0-1.83 4.7 14 14 0 0 0 1.44 5.3 8 8 0 0 0 1.76 2.68 5 5 0 0 0 3.14 1.24c2.49.11 4.45-2 5.08-4.24a2 2 0 1 0-3.86-1.06l-.14.46c-.04.2.06-.17.09-.18-.03 0-.07.14-.08.16l-.23.37c-.01-.02.28-.3.12-.15l-.19.2q-.18.19-.4.36c-.05.05-.25.15-.04.04.28-.14-.03-.02-.01 0 .06.04-.42.07.02 0 .3-.03.05-.01-.04.01l-.17.05c-.3.08.13-.07.16-.02h-.44c-.2 0 .22 0 .22.02l-.19-.05-.18-.05c-.37-.1.13.02.12.05l-.17-.1-.12-.06.05.04c.15.03.1.1 0 0l-.19-.2c.01-.02.22.35.1.14q-.06-.12-.14-.23a15 15 0 0 1-.65-1.17l-.27-.56c-.1-.2.03.06.04.09l-.1-.23q-.19-.5-.34-1.03a17 17 0 0 1-.4-1.81c-.06-.4.02.47.02.12v-.56c0-.1.06-.51 0-.15-.05.38.02-.09.04-.17l.08-.35.13-.4c.05-.19-.06.2-.08.2.03-.01.09-.18.1-.21l.13-.2c.14-.27-.04.1-.1.1l.12-.12c.13-.29.25.13-.08.04 0 0 .5-.26.22-.15-.3.12.6-.14.24-.07-.26.05-.02 0 .04 0h.3c.32 0-.09.04-.09-.01l.3.08c.04 0 .28.1.04 0s.07.04.11.07l.27.16c.24.14-.33-.29.03.04a2 2 0 0 0 2.83-2.82Z" class="c"/><path d="M13.98 104.2a5.6 5.6 0 0 0-3.05-1.75 5 5 0 0 0-3.77 1.32c-1.72 1.49-2.02 3.56-1.79 5.7a21 21 0 0 0 1.92 6.77 7 7 0 0 0 1.4 2.08 5.4 5.4 0 0 0 3.46 1.38 5.2 5.2 0 0 0 3.62-1.47 4.5 4.5 0 0 0 1.72-3.31 2 2 0 1 0-4 0q0 .31.04-.18-.1.3.05-.09l-.16.27q.23-.28 0-.01-.16.2-.36.37l-.25.23q.29-.21.02-.02c-.05.03-.5.35-.25.16l-.2.05h-.04l-.39-.01q.33.03-.02-.03c-.12-.05-.5-.23-.2-.06l-.3-.17q.27.23.03.01c-.27-.33.2.39-.08-.09q-.27-.41-.5-.84l-.29-.6-.08-.19a19 19 0 0 1-1.12-4.1q.02.23-.02-.15a15 15 0 0 1-.1-1.63l.01-.33q-.08.52-.02.2l.13-.43-.07.16a4 4 0 0 1 .3-.5q.19-.16.37-.34c-.33.26.27-.14.35-.18q-.28.12.1-.01l.04-.01c-.4-.05.2.13-.2-.07l.3.18q-.26-.22 0 0l.56.52a2.04 2.04 0 0 0 2.83 0 2 2 0 0 0 0-2.83Z" class="c"/><path d="M18.67 100.18c-1.96-1.5-4.82-.8-6.58.66-1.78 1.5-1.86 4.16-1.2 6.21a75 75 0 0 0 2.15 5.75 5.2 5.2 0 0 0 1.82 2.73 5.7 5.7 0 0 0 3.22.9 5.2 5.2 0 0 0 3.64-1.65 8 8 0 0 0 1.33-2.75 2 2 0 0 0-1.4-2.46 2.05 2.05 0 0 0-2.46 1.4l-.3.9q-.1.3.07-.13-.04.12-.12.23l-.14.23q.27-.33.05-.08-.24.21.05-.02l-.3.19q-.3.14-.05.03l-.35.1c.4-.1-.26 0-.39 0 .44 0-.22-.06-.34-.1l-.31-.1q.35.15.05 0l-.24-.14q.35.3.13.09c.33.36.18.26.1.03-.04-.07-.31-.72-.14-.3q-.6-1.43-1.14-2.88-.54-1.42-1.02-2.87-.18-.53-.3-1.08c.11.5 0-.15 0-.29s.12-.76 0-.3c.03-.1.26-.74.05-.31l.16-.29q.19-.28-.02.02.25-.23-.05 0l.25-.17c.08-.05.7-.34.25-.17l.65-.2q.34-.06-.03 0h.33q.36.02-.03-.03l.32.09c-.4-.13.16.13.27.22a2 2 0 0 0 2.74-.72 2.06 2.06 0 0 0-.72-2.74" class="c"/><path d="M37.27 112.48a11.8 11.8 0 0 0-2.05-7.26 6.3 6.3 0 0 0-3.13-2.52 13 13 0 0 0-3.86-.52c-2.6-.17-5.37-.34-7.43 1.55a5.1 5.1 0 0 0-.7 6.5 6.6 6.6 0 0 0 3.61 2.74 32 32 0 0 0 4.17.98 2.05 2.05 0 0 0 2.46-1.4 2 2 0 0 0-1.4-2.46 46 46 0 0 1-2.88-.6q-.65-.17-1.28-.37l-.3-.1c-.32-.12.22.13-.07-.03l-.25-.15c.17.1-.03-.01-.1-.07a5 5 0 0 1-.44-.46c.13.15-.15-.23-.18-.29-.07-.1-.22-.52-.12-.2l-.1-.33c-.07-.23 0-.12 0 .05v-.47c0 .33 0 .17.05-.06.07-.32-.16.2.03-.07l.13-.2c.07-.17-.28.24.02-.01.12-.1.36-.3.08-.11l.44-.27c.28-.18-.17.02.17-.08l.64-.17c.32-.06-.27.02.07 0l.31-.03h.76a41 41 0 0 1 3.33.18l.78.07q.2 0 .4.03c.37.02-.2-.12-.01 0 .06.04.5.17.36.1-.2-.07.1.05.1.06l.35.19c.11.07.43.34.2.11l.17.17c.17.21-.18-.26.03.06a16 16 0 0 1 .87 1.43l.26.54.19.54q.11.36.19.7l.07.32c.01.08.05.32.02.1a10 10 0 0 1 .03 1.8 2 2 0 0 0 4 0Z" class="c"/></svg>
