<svg xmlns="http://www.w3.org/2000/svg" viewBox="-129 0 410.357 410.357"><defs><style>.a{fill:#211715}.b{fill:#fff}.c{fill:#7a7473}</style></defs><path d="M86.78 164.4q-4.7 4.7-9.41 9.38c-2.38 2.36-4.72 4.84-7.29 6.98a2 2 0 0 0 0 2.83 2.04 2.04 0 0 0 2.83 0c2.57-2.15 4.9-4.63 7.28-6.98q4.73-4.67 9.42-9.39c1.82-1.82-1-4.65-2.83-2.83" class="a"/><path d="M83.04 170.96c-4.72 4.7-9.96 9.9-11.55 11.21h-.07a2 2 0 0 0 .51-1.54c-.56-4.95-1.27-11.21-2.03-17.68l18.3 2.86z" class="b"/><path d="M112.36 189.39H58.17c-2.35-1.2-2.55-4.06-2.2-7.1q.11-.98.19-1.88l-27.37-18.5a229 229 0 0 1 7.5-41.05c1.33-5.76 3.3-11.24 7.71-14.8a61 61 0 0 1 5.87-3.51c4.28-2.18 10.83-5.44 14.75-6.96l5.63-2.17.34-.14c5.1 5.1 13.16 6.84 19.52 6.84 6.16 0 13-1.34 16.76-4.43l2.96-2.42.51.2c4 1.54 14.18 4.97 18.54 7.19a49 49 0 0 1 5.17 3.2c4.42 3.56 6.65 8.46 7.98 14.22 4.68 17.9 6.67 26.35 8.28 41.55a27 27 0 0 1-.8 9.14 16 16 0 0 1-4.76 7.72 17.3 17.3 0 0 1-10.88 4.1l-7.63-.03c.22 1.62.52 3.1.85 5.46a3.5 3.5 0 0 1-.39 2.53 2.6 2.6 0 0 1-2.26.84Z" class="b"/><path d="M88.64 169.91a29 29 0 0 0 8.75.42c.77-5.86 1.63-13.55 2.14-18-2.97.7-6.01-.87-8.76-2.27q-2.5-1.27-5.06-2.4a16 16 0 0 0-2.77-1 11.4 11.4 0 0 0-6.95.87c-2.85 1.23-4.06 2.34-7.36 4.6.78 6.53 1.59 13.5 2.3 19.7l2.59-1.34 2.24-1.16 1.78-.92c1.7-.88 2.87-1.57 4.31-2.35-1.91 2-2.83 2.76-5.42 5.58a2.8 2.8 0 0 0-.26 2.84c.86 1.26 2.68.75 3.16.49 3.4-1.82 6.1-3.9 9.19-5.07M117.9 47.94a4.3 4.3 0 0 1 3.14-1.15 4 4 0 0 1 3.62 2.01c1.23 2.14 1.18 6.07.35 8.5a13 13 0 0 1-3.85 6.24 4.8 4.8 0 0 1-3.7 1.07l-.34-.06a28 28 0 0 1-1.27 3.44c-.95 2.56-6.17 11.55-12.77 15q.15 1.87.48 3.72c.34 1.96.24 3.71 2.97 4.7l3.66 1.72-3.32 2.56c-3.77 3.09-10.6 4.43-16.76 4.43-5.23 0-11.62-1.18-16.55-4.43l-3.3-2.22 4.45-2.06c2.73-.99 2.61-2.74 2.97-4.7.2-1.15.35-2.2.44-3.32a24.5 24.5 0 0 1-8.76-7.03 33 33 0 0 1-6.27-11.82 4.7 4.7 0 0 1-4-1 13 13 0 0 1-3.85-6.24c-.82-2.43-.88-6.36.35-8.5a4 4 0 0 1 3.62-2 4.3 4.3 0 0 1 3.14 1.15s-1.01-24.2 27.77-24.2c26.99 0 27.78 24.2 27.78 24.2" class="b"/><path d="M78.48 398.05c2.83-1.97 5.33-3.7 6.13-4.2 5.15-3.21 4.57-7.58 4.46-10.58-.04-1.15-.17-3.6-.4-5.83l-1.42 1.73a96 96 0 0 1-13.51 11.03 10.9 10.9 0 0 1-9.65 1.28c-2.96-1.08-5.6-3.27-5.23-6.9l.27-2.53-.5.5c-3.33 3.42-7 6.79-10.33 10.1-2.17 2.16-3.87 5.02-3.8 8.17.06 2.15 1.57 4 3.33 5.23a13.4 13.4 0 0 0 6.02 2.12 22.8 22.8 0 0 0 14.18-2.9c.78-.45 6.02-4.13 10.45-7.22" class="c"/><path d="M92.23 309.26h-2.2a1290 1290 0 0 1-24.24.26c1.22 19.8 2.43 39.06 2.84 56.5a14.3 14.3 0 0 1-2.73 7.84 58 58 0 0 1-6.78 8.19l-.26 2.53c-.37 3.63 2.27 5.81 5.23 6.9a10.9 10.9 0 0 0 9.65-1.28 96 96 0 0 0 13.5-11.03s.53-.65 1.14-1.38h3.53l1.3 1.38a96 96 0 0 0 13.5 11.03 10.9 10.9 0 0 0 9.65 1.28c2.97-1.08 5.6-3.26 5.23-6.9l-.26-2.53a58 58 0 0 1-6.77-8.2 14.3 14.3 0 0 1-2.73-7.83c.4-17.59 1.64-37.03 2.86-57-7.35.2-14.1.24-22.46.24" class="b"/><path d="M30.78 161.91c.63-5.9 1.3-11.8 2.3-17.66a239 239 0 0 1 4-18.47c1.62-6.42 2.8-13.5 8.03-18.07l.23-.18c-.2.15.06-.04.08-.05l.58-.39q.8-.5 1.62-.98 1.46-.88 2.97-1.69a169 169 0 0 1 20.19-9.08 2.06 2.06 0 0 0 1.4-2.46 2 2 0 0 0-2.46-1.4c-3.59 1.39-7.18 2.73-10.67 4.34a113 113 0 0 0-15.37 8.01c-5.75 3.82-7.83 10.65-9.45 16.98a292 292 0 0 0-4.62 20.22 284 284 0 0 0-2.82 20.88 2 2 0 0 0 2 2 2.05 2.05 0 0 0 2-2Z" class="a"/><path d="M4.2 123.22a7358 7358 0 0 1 60.81 10.6 1.9 1.9 0 0 1 1.56 1.66c1.48 11.2 3.93 32.47 5.37 45.15a1.93 1.93 0 0 1-2.23 2.13A1776 1776 0 0 1 9.8 171.44a1.9 1.9 0 0 1-1.49-1.55c-1.94-11.02-5.2-36.05-6.35-44.5a1.93 1.93 0 0 1 2.25-2.17" class="b"/><path d="M73.7 5.8a31 31 0 0 1 16.24-3.7 30.5 30.5 0 0 1 13.39 2.37 33.5 33.5 0 0 1 17.19 16.08 29 29 0 0 1 1.9 5.05q.22.84.4 1.7c.97 4.72 2.18 14.22-.29 19.76a5 5 0 0 0-1.5-.26 4.3 4.3 0 0 0-3.14 1.15l-5.03-1.59a62 62 0 0 1-10.05-3.92q-.76-.4-1.48-.81l-6.87-.25c-4.16-.83-7.4-1.85-11.02-5.17-2.59-2.37-5.68-5.64-7.23-8.8A26 26 0 0 0 72 30.67a26 26 0 0 0-3.76 5.38 23.5 23.5 0 0 0-2.8 10.9l-3.09.99a4.3 4.3 0 0 0-3.14-1.15l-.51.05c-.05.92-1.6-5.81-1.6-5.81a41 41 0 0 1-.03-13.74c1.85-9.11 8.3-17.05 16.63-21.48" style="fill:#85807f"/><path d="M101.97 398.05c-2.83-1.97-5.33-3.7-6.13-4.2-5.14-3.21-4.57-7.58-4.45-10.58a55 55 0 0 1 .52-5.48l1.3 1.38a96 96 0 0 0 13.5 11.03 10.9 10.9 0 0 0 9.65 1.28c2.97-1.08 5.6-3.26 5.23-6.9l-.26-2.53.49.5c3.33 3.42 7 6.79 10.34 10.1 2.16 2.16 3.86 5.02 3.79 8.17-.06 2.15-1.56 4-3.32 5.23a13.4 13.4 0 0 1-6.03 2.12 22.8 22.8 0 0 1-14.18-2.9c-.77-.45-6.01-4.13-10.45-7.22" class="c"/><path d="M102.98 396.33q-2.77-1.96-5.59-3.86a8.4 8.4 0 0 1-3.56-3.7 10 10 0 0 1-.5-4.34 57 57 0 0 1 .5-6.1l-3.33.87a78 78 0 0 0 7.01 6.55q2.57 2.12 5.26 4.1a25 25 0 0 0 5.4 3.31 12.6 12.6 0 0 0 11.8-1.3 8.5 8.5 0 0 0 3.35-4.37c.55-1.78.21-3.63.02-5.44l-3.41 1.41c3.05 3.13 6.23 6.11 9.35 9.16 2.29 2.22 6.19 6.12 4.23 9.67-1.92 3.5-6.77 4.17-10.35 4.05a20 20 0 0 1-10.3-3.18c-3.33-2.2-6.58-4.55-9.87-6.84-2.11-1.47-4.11 2-2.01 3.46 3.3 2.3 6.57 4.68 9.94 6.89a24 24 0 0 0 12.45 3.67c4.74.11 9.98-1.14 12.96-5.1 3.05-4.05 1.27-9.25-1.66-12.82a72 72 0 0 0-5.92-5.87q-3.04-2.91-6-5.91c-1.12-1.16-3.6-.37-3.41 1.41.14 1.35.57 3.05.11 4.38a4.8 4.8 0 0 1-2.31 2.5 9 9 0 0 1-9.56-.58 81 81 0 0 1-14.25-11.98c-.95-1-3.12-.63-3.34.88a67 67 0 0 0-.65 7.17 14 14 0 0 0 .75 5.68 11.7 11.7 0 0 0 4.81 5.5c2.06 1.34 4.06 2.77 6.07 4.17 2.11 1.48 4.11-1.98 2.01-3.44" class="a"/><path d="M113.24 300.11c-.78 13.01-1.63 26.01-2.32 39.03q-.48 9-.83 18.02c-.19 5.31-.9 10.63 1.44 15.59a35 35 0 0 0 5.37 7.43 125 125 0 0 0 7.66 7.9c1.85 1.79 4.68-1.03 2.82-2.83-4.2-4.07-8.56-8.25-11.7-13.24-2.64-4.2-1.78-9.25-1.61-13.95.42-12.08 1.12-24.16 1.84-36.22l1.33-21.73c.15-2.57-3.85-2.56-4 0M88.23 310v59.07c0 2.57 4 2.57 4 0V310c0-2.57-4-2.58-4 0m-8.74 89.78c2-1.39 3.97-2.8 6-4.12a12 12 0 0 0 4.88-5.56 14 14 0 0 0 .75-5.56q-.12-3.57-.45-7.1c-.15-1.54-2.2-2.9-3.42-1.42a48 48 0 0 1-5.94 5.9 80 80 0 0 1-8.59 6.54 9 9 0 0 1-9.4.47 4.8 4.8 0 0 1-2.32-2.5c-.45-1.33-.02-3.03.12-4.38.18-1.77-2.28-2.57-3.41-1.41-3.53 3.62-7.29 7-10.83 10.6-3.13 3.18-5.7 8.15-3.63 12.57 2.1 4.46 7.33 6.19 11.9 6.5a24.4 24.4 0 0 0 13.96-3.35c3.58-2.17 6.95-4.78 10.38-7.18 2.1-1.46.1-4.93-2.02-3.45-3.05 2.12-6.08 4.27-9.16 6.36a21 21 0 0 1-9.27 3.53c-3.78.45-8.47.09-11.25-2.82-2.86-2.98-.29-7.11 2.09-9.49 3.51-3.52 7.19-6.88 10.66-10.44l-3.41-1.41c-.2 1.8-.54 3.65.02 5.44a8.5 8.5 0 0 0 3.35 4.37 12.6 12.6 0 0 0 11.6 1.38 24 24 0 0 0 5.59-3.39q2.53-1.86 4.95-3.86a54 54 0 0 0 7.45-7.16l-3.42-1.41c.22 2.17.33 4.34.43 6.51a12 12 0 0 1-.38 4.55 7.8 7.8 0 0 1-3.48 3.86c-1.95 1.28-3.85 2.64-5.77 3.97-2.1 1.47-.1 4.94 2.02 3.46" class="a"/><path d="M63.22 300.11c.75 12.54 1.57 25.07 2.24 37.6q.5 9.05.85 18.1.16 4.23.27 8.46a14 14 0 0 1-.95 6.12c-1.14 2.7-3.3 5.14-5.2 7.3a131 131 0 0 1-7.36 7.56c-1.85 1.79.98 4.62 2.83 2.83a90 90 0 0 0 12.13-13.76c3.09-4.52 2.58-9.75 2.41-14.92-.41-12.37-1.12-24.73-1.87-37.08l-1.35-22.2c-.15-2.57-4.15-2.58-4 0m2.67-202.49c.87-.3 1.71-.74 2.55-1.13l3.85-1.77 3.02-1.4.31-.15-.16.07c-.51.22-.07.04.07-.02l.75-.32a5.4 5.4 0 0 0 2.4-2.23 9 9 0 0 0 .82-2.85c.23-1.46.48-2.92.61-4.4a2 2 0 0 0-2-2 2.05 2.05 0 0 0-2 2 37 37 0 0 1-.89 5.28c-.06.25.2-.3.04-.11l-.13.23c-.22.4.18-.13-.07.1l-.2.2c.2-.26.15-.1.02-.03l-.3.18c-.03.02-.45.23-.27.15s-.14.05-.14.05l-.49.2-.06.03-.3.14-6.42 2.97-1.68.76-.53.24c-.44.2.5-.19.14-.06a2 2 0 0 0 1.06 3.86Zm35.21-14.35q.2 2.06.55 4.1a16 16 0 0 0 .4 2.12 5.4 5.4 0 0 0 1.47 2.44 6 6 0 0 0 1.3.91l.77.33c1.9.97 3.88 1.83 5.81 2.75.93.43 1.85.89 2.79 1.28a2 2 0 0 0 2.46-1.4 2.06 2.06 0 0 0-1.4-2.46c1 .42.08.02-.15-.09l-1.24-.58-3.36-1.6-2.6-1.22-.29-.13-.07-.03-.48-.2c-.06-.03-.36-.17-.06-.02l-.52-.28c-.06-.04-.35-.23-.12-.07.2.15.02.02-.02-.02l-.2-.2c-.29-.25.1.08.06.1l-.28-.48c-.11-.16.08.18.08.2l-.12-.35-.12-.49q-.11-.57-.2-1.16l-.27-1.7-.08-.6-.12-1.16a2.04 2.04 0 0 0-2-2 2 2 0 0 0-2 2Z" class="a"/><path d="M57.68 302.47c-1.76-19.75-3.65-47.62-4.04-66.5-.38-18.3-.92-26.06 1.13-46.58h71.91c.74 17.63.58 27.63-.03 43.33-.76 19.47-2.3 52.35-5.1 76.08a778 778 0 0 1-31.52.46c-9.75.2-26.56.37-31.7.18z" style="fill:#febe69"/><path d="M52.34 193.9c-1.37 15.52-1.06 31.03-.59 46.6.47 15.26 1.45 30.52 2.6 45.75q.87 11.61 1.98 23.19a2.06 2.06 0 0 0 2 2c6.84.24 13.7.08 20.54 0 8.82-.1 17.65-.14 26.48-.25q8.1-.1 16.2-.4a2.06 2.06 0 0 0 2-2c1.74-14.8 2.76-29.69 3.6-44.56.82-14.14 1.5-28.3 1.87-42.46q.33-13.43-.13-26.84c-.08-2.57-4.08-2.58-4 0 .51 15.16.1 30.27-.55 45.42-.62 14.66-1.4 29.31-2.5 43.94a590 590 0 0 1-2.29 24.5l2-2c-9.7.36-19.4.46-29.1.47-8.07 0-16.13.23-24.2.26-3.3 0-6.62.03-9.92-.09l2 2a1232 1232 0 0 1-3.4-43.8q-1.36-22.72-1.63-45.48a261 261 0 0 1 1.04-26.26 2 2 0 0 0-2-2 2.04 2.04 0 0 0-2 2Zm20.2-96.48c5.39 3.47 12.03 4.81 18.37 4.7 5.98-.11 12.57-1.2 17.37-5.01a2 2 0 0 0 0-2.83 2.05 2.05 0 0 0-2.83 0c-3.98 3.16-10.05 3.8-14.95 3.84a29 29 0 0 1-15.94-4.15c-2.17-1.4-4.18 2.06-2.02 3.45m-14.53 93.97h67.79c2.57 0 2.58-4 0-4H58c-2.57 0-2.57 4 0 4" class="a"/><path d="M124.3 181.09c.23 1.6.53 3.21.77 4.82l.04.31c.08.52-.02-.27 0 0q.04.31.04.66l-.01.33c-.02.37.08-.31 0-.08l-.08.31.1-.24-.05.12q-.15.21.02 0 .15-.19.05-.07c-.23.25.02-.05.13-.07l-.23.14c-.16.12.47-.19.13-.07-.26.08.17-.05.22-.02 0 0-.48-.04-.03.02q.3.05.07 0l.3.12c-.3-.16.34.34.09.07a2 2 0 0 0-2.83 0 2.04 2.04 0 0 0 0 2.83 3.44 3.44 0 0 0 4.26.4 4.4 4.4 0 0 0 1.86-4 31 31 0 0 0-.52-3.76q-.25-1.44-.46-2.89a2 2 0 0 0-.92-1.2 2 2 0 0 0-1.54-.2 2 2 0 0 0-1.2.92 2.4 2.4 0 0 0-.2 1.54Zm4.55-28.03q.38-7.1 1.04-14.2a2 2 0 0 0-2-2 2.04 2.04 0 0 0-2 2 364 364 0 0 0-1.05 14.2 2 2 0 0 0 4 0M59.6 187.82l-.31-.1c-.36-.13.02-.05.07.04-.05-.1-.42-.22-.5-.28-.23-.14-.18-.25.03.05l-.16-.14c-.13-.12-.23-.29-.37-.4.31.25.2.28.07.07l-.12-.18-.15-.29c-.12-.23.06.12.07.18-.07-.38-.25-.75-.32-1.13l-.05-.3c.05.16.05.46.03.12q-.04-.3-.04-.61-.03-.64.01-1.3c.06-1.04.2-2.09.3-3.14a2 2 0 0 0-2-2 2.05 2.05 0 0 0-2 2c-.19 2.22-.56 4.42-.03 6.63a6.3 6.3 0 0 0 4.41 4.63 2 2 0 1 0 1.06-3.85" class="a"/><path d="M109.8 95.4c5.83 2.23 11.9 4 17.53 6.72a24 24 0 0 1 7.24 4.94 23 23 0 0 1 5.13 10 388 388 0 0 1 5.82 24q1.04 5.16 1.78 10.37a68 68 0 0 1 1.08 11.03c-.08 3.79-.87 7.83-3.37 10.82a14.7 14.7 0 0 1-11.15 5.3c-2.57.05-2.58 4.05 0 4a18.5 18.5 0 0 0 17.85-14.3 35 35 0 0 0 .19-12.23q-.7-5.87-1.7-11.69c-1.46-8.24-3.53-16.36-5.64-24.45-1.11-4.29-2.14-8.6-4.58-12.37a24 24 0 0 0-8.3-7.6c-6.43-3.8-13.89-5.74-20.82-8.4a2 2 0 0 0-2.46 1.4 2.04 2.04 0 0 0 1.4 2.46M3.66 125.15q20.63 3.51 41.24 7.12 9.07 1.57 18.13 3.22a9 9 0 0 1 1.37.25c.22.08.22.03.2 0a4 4 0 0 1 .18 1.37q.36 2.77.7 5.55.81 6.55 1.58 13.11l1.58 13.58.73 6.38.32 2.77c.06.53.49 1.95.23 2.38.12-.2.15-.02-.2-.13a7 7 0 0 0-.97-.16l-2.08-.35-4.7-.81q-5.45-.97-10.9-1.97c-13.51-2.49-27.04-4.96-40.46-7.88-.57-.12-.43-.44-.54-1.12q-.2-1.1-.37-2.21-.42-2.56-.8-5.12-.9-5.94-1.72-11.89-1.48-10.66-2.9-21.34L4 125.74c-.02-.17-.17-.57-.1-.72-.08.19.05.18.3.2 2.56.21 2.54-3.8 0-4C1.34 121-.3 123.5.03 126.1l.5 3.67 1.53 11.38c1.13 8.33 2.26 16.66 3.58 24.97a25 25 0 0 0 .9 4.88c.73 1.88 2.43 2.33 4.2 2.71q4.22.9 8.46 1.73 11.93 2.38 23.89 4.6a1244 1244 0 0 0 22.74 4.1c1.56.27 3.5.9 5.06.55a4 4 0 0 0 2.61-2.06 6 6 0 0 0 .24-3.5l-1.53-13.34c-1.06-9.18-2.13-18.36-3.3-27.53-.26-2.03-.18-4.51-2.08-5.78a10 10 0 0 0-3.86-1.04q-4.47-.81-8.95-1.6-22.75-4.02-45.52-7.9l-3.8-.64a2.06 2.06 0 0 0-2.45 1.4 2 2 0 0 0 1.4 2.46" class="a"/><path d="M25.58 181.3c-3.32-.87-6.45-4.44-6.3-7.91a42 42 0 0 1 1.36-10.08 3.5 3.5 0 0 1 3.57-2.02 2.6 2.6 0 0 1 2.28 2.1l.07-.7c.12-1.01 1.3-3.75 3.8-3.4s3.31 2.56 3.22 5a2.8 2.8 0 0 1 3.35-1.83c3.56.47 3.12 4.64 2.8 6.45a2.9 2.9 0 0 1 3.64-.66c1.35.79 2.13 1.7 2.12 4.03-.01 3.32.27 6.63-.25 8.17s-3.77 2.91-5.37 2.53c-2.98.48-12.6-1.04-14.29-1.68" class="b"/><path d="M41.44 169.99a1 1 0 0 1 .9-.04 1.5 1.5 0 0 1 .77.59 1.5 1.5 0 0 1 .32.82 15 15 0 0 1 .07 2.25c.02 1.6.1 3.21.03 4.82a4 4 0 0 1-.2 1.4s-.1.07-.02.01c-.26.18-.28.27-.49.4a4.5 4.5 0 0 1-2.58.8c.66.02-1.24.03-.77 0a16 16 0 0 1-1.52.03 51 51 0 0 1-6.26-.6 29 29 0 0 1-5.58-1.1 2 2 0 0 0-2.46 1.4 2.04 2.04 0 0 0 1.4 2.46 35 35 0 0 0 7.2 1.33 30 30 0 0 0 8.15.35h-1.06a8 8 0 0 0 6.64-2.08c1.9-1.8 1.6-4.8 1.55-7.18-.04-2.64.4-5.86-1.6-7.94a5.3 5.3 0 0 0-7.32-.55 2 2 0 0 0 0 2.83 2.05 2.05 0 0 0 2.83 0" class="a"/><path d="M41.43 176.05q.16-3.91.43-7.82c.15-2.21.07-4.56-1.56-6.26a5.5 5.5 0 0 0-7.26-.37c-1.43 1.25-1.61 3-1.85 4.77-.36 2.72-.53 5.45-.75 8.18a2 2 0 0 0 2 2 2.04 2.04 0 0 0 2-2c.17-2.01.3-4.03.5-6.03l.2-1.7.08-.59q.05-.44.14-.87l.09-.36c.07-.3.22-.2-.07.1l.17-.33.11-.17c.15-.29-.08.17-.11.15l.33-.32c-.24.24-.16.2.06 0 .17-.13-.31.04-.1.06l.37-.1c-.1.03-.41.02-.04.02h.37c.01 0 .33.04.12 0-.22-.03.15.04.2.05.2.05.53.26.24.06l.27.16c.34.18-.08-.14 0 0a1 1 0 0 0 .2.21c.2.16-.13-.29-.05-.05l.24.44c-.23-.43 0 .05.05.2l.07.3c0 .06.07.49.03.17s.02.25.02.33q.02.3.01.59-.02.73-.09 1.46-.26 3.86-.42 7.72a2 2 0 0 0 4 0" class="a"/><path d="M35.58 164.41a7.7 7.7 0 0 0-1.55-5.3 5.4 5.4 0 0 0-5.37-1.68 5.7 5.7 0 0 0-3.54 3.27 15 15 0 0 0-.83 5.08c-.17 2.37-.27 4.74-.42 7.1a2 2 0 0 0 4 0c.14-2.23.24-4.46.4-6.69q.09-1.44.23-2.88l.04-.41-.02.16.06-.28.15-.42c-.18.54-.04.09.03-.05a4 4 0 0 1 .4-.65q-.25.32-.04.07l.32-.31c-.34.35.07-.03.2-.11.37-.24-.35.09.08-.03q.34-.07-.06-.01l.34-.01c.4-.03-.18-.1.19.02.11.04.72.3.33.09.05.03.54.35.33.18s.2.23.25.27c-.33-.34.06.12.13.24s.17.5.06.1l.19.65c.03.15.1.5.05.15a9 9 0 0 1 .04 1.45 2 2 0 1 0 4 0Z" class="a"/><path d="M28.42 162.9c-.55-3.37-4.7-4.43-7.36-2.88-2.9 1.69-3.09 5.52-3.44 8.53-.36 3.1-.74 6.28.72 9.16a11 11 0 0 0 6.71 5.51c2.48.7 3.54-3.15 1.07-3.85a7 7 0 0 1-3.96-3.04c-1.1-1.76-.88-3.55-.74-5.55q.1-1.7.36-3.38a14 14 0 0 1 .8-3.56c-.18.37.15-.12.27-.22a2 2 0 0 1 .8-.37.75.75 0 0 1 .92.71 2 2 0 0 0 2.46 1.4 2.05 2.05 0 0 0 1.4-2.46Zm43.25-10.46a24 24 0 0 1 5.89-3.38 9.4 9.4 0 0 1 7.35.42c4.73 2.1 9.72 5.88 15.15 4.77 2.52-.5 1.45-4.36-1.07-3.85s-5.05-.96-7.21-2.06a48 48 0 0 0-7.7-3.45c-5.25-1.57-10.28 1.15-14.44 4.1a2.06 2.06 0 0 0-.71 2.74 2 2 0 0 0 2.73.72Zm2.37 1.19-4.4 2.22a2 2 0 0 0 .48 3.65 2.2 2.2 0 0 0 1.54-.2l4.4-2.22a2 2 0 0 0-.47-3.65 2.2 2.2 0 0 0-1.55.2m-.94 12.17c2.37-1.45 4.86-2.7 7.34-3.95a2 2 0 0 0 .71-2.74 2.05 2.05 0 0 0-2.73-.72 101 101 0 0 0-7.34 3.96 2 2 0 0 0 2.02 3.45m1.43 6.41q2.62-1.33 5.23-2.72c1.55-.83 3.07-1.72 4.63-2.53a2 2 0 0 0 .72-2.73 2.05 2.05 0 0 0-2.74-.72c-1.56.81-3.08 1.7-4.63 2.53q-2.6 1.38-5.23 2.72a2 2 0 0 0-.72 2.73 2.05 2.05 0 0 0 2.74.72m13.57-.37a32 32 0 0 0 9.28.5 2.2 2.2 0 0 0 1.42-.6 2 2 0 0 0-1.42-3.4 27 27 0 0 1-4.46.11q-1.02-.06-2.03-.18l.07.01-.23-.03-.53-.08-1.04-.18a2 2 0 0 0-1.06 3.85" class="a"/><path d="M79.64 165.46q-1.5 1.5-2.98 3.01a17 17 0 0 0-2.06 2.29 5 5 0 0 0-.72 2.83 3.9 3.9 0 0 0 4.35 3.68c1.92-.18 3.54-1.37 5.15-2.35q1.46-.9 2.93-1.75l1.45-.77.74-.35.27-.12c-.3.13.28-.1.28-.1a2.05 2.05 0 0 0 1.4-2.46 2 2 0 0 0-2.47-1.4 39 39 0 0 0-6.15 3.22q-1.42.88-2.9 1.7c-.14.09-.59.24-.67.37l.24-.1-.43.12q-.32.06.16-.01c-.02-.05-.52.09-.55.01q.45.07.11.01-.31-.1.07.06-.27-.17.04.07-.23-.24 0 .04-.18-.29 0 .07-.08-.33-.02.06c0-.14.1-.76-.02-.28.04-.15.28-.72.03-.25.07-.13.2-.54-.05 0a4 4 0 0 1 .63-.69l.56-.6q1.7-1.75 3.43-3.48a2 2 0 1 0-2.83-2.83Zm49.23-14.05c-9.44-1.7-19-2.57-28.44-4.17a2.05 2.05 0 0 0-2.54 1.92c-1.1 8.78-1.76 17.63-3.27 26.35a2.05 2.05 0 0 0 1.4 2.46 129 129 0 0 0 37.85 4.62c2.57-.07 2.58-4.07 0-4a125 125 0 0 1-36.79-4.47l1.4 2.46c1.58-9.07 2.27-18.29 3.42-27.42l-2.53 1.93c9.45 1.6 19 2.47 28.44 4.17a2.06 2.06 0 0 0 2.46-1.4 2 2 0 0 0-1.4-2.46ZM74.05 26.96a27 27 0 0 0 8.35 10.8c3.44 2.78 7.52 4.3 11.72 5.54 2.47.73 3.53-3.13 1.06-3.86-3.5-1.03-7.04-2.22-9.95-4.5-2.96-2.32-5.92-5.5-7.33-9.04a2.06 2.06 0 0 0-2.46-1.4 2 2 0 0 0-1.4 2.46Z" class="a"/><path d="M92.48 33.72c-1.8 2.4.72 4.85 2.55 6.16a62 62 0 0 0 6.19 3.86 54 54 0 0 0 11.3 4.55c2.48.7 3.54-3.16 1.06-3.86a51 51 0 0 1-9.15-3.5 57 57 0 0 1-5-2.89q-1.28-.81-2.52-1.71a5 5 0 0 1-.78-.7l-.19-.2c-.44-.33.09.18-.02.31a2 2 0 0 0-.71-2.74 2.05 2.05 0 0 0-2.74.72Zm-21.7-4.47a21 21 0 0 0-5.52 8.2 23 23 0 0 0-1.62 9.5c.06 2.57 4.06 2.58 4 0A20 20 0 0 1 69 38.76a17.6 17.6 0 0 1 4.6-6.68 2 2 0 0 0 0-2.83 2.04 2.04 0 0 0-2.83 0" class="a"/><path d="M124.5 47.48c1.7-4.03 1.67-8.76 1.33-13.05a43 43 0 0 0-2.74-12.98 35.5 35.5 0 0 0-20.93-19.56A40 40 0 0 0 86.52.1a34 34 0 0 0-12.8 3.45 35 35 0 0 0-17.39 19.01c-2.88 7.75-2.27 16.74.24 24.52.79 2.44 4.65 1.4 3.86-1.06-1.93-6-2.72-12.7-1.3-18.89a30.2 30.2 0 0 1 13.51-18.4 31 31 0 0 1 11.05-4.3 30 30 0 0 1 5.9-.36 40 40 0 0 1 7.57.56 31.6 31.6 0 0 1 20.83 15.38 34 34 0 0 1 3.72 13.16c.45 4.35.66 9.12-1.06 13.24a2 2 0 0 0 1.4 2.46 2.05 2.05 0 0 0 2.46-1.4Z" class="a"/><path d="M63.77 46.53a6.7 6.7 0 0 0-7.35-1.1 6.4 6.4 0 0 0-3.34 4.31 16 16 0 0 0 2.32 12.63c1.64 2.44 4.24 4.65 7.39 4.24a2.07 2.07 0 0 0 2-2 2 2 0 0 0-2-2c-2.18.28-3.6-1.52-4.54-3.26a13 13 0 0 1-1.55-4.82 8.3 8.3 0 0 1 .83-5.03c-.33.52.5-.44.2-.21a2 2 0 0 1 .91-.42 2.5 2.5 0 0 1 2.3.49c1.92 1.7 4.76-1.12 2.83-2.83m55.54 2.83a2.5 2.5 0 0 1 2.17-.52 2 2 0 0 1 1.04.45c-.3-.22.52.72.2.2a8.3 8.3 0 0 1 .83 5.04 13 13 0 0 1-1.55 4.82c-.94 1.74-2.36 3.54-4.53 3.26a2 2 0 0 0-2 2 2.05 2.05 0 0 0 2 2c5.11.66 8.26-4.86 9.53-9 1.15-3.7 1.1-9.46-2.54-11.83a6.7 6.7 0 0 0-7.98.75c-1.92 1.71.91 4.54 2.83 2.83" class="a"/><path d="M115.7 61.98a28 28 0 0 1-1.26 4.21l-.56 1.37c-.2.5.14-.3-.03.06l-.18.39a36 36 0 0 1-3.09 5.14c-2.68 3.8-6.35 7.94-11.05 9.05-2.5.59-1.45 4.44 1.06 3.85 5.6-1.31 9.9-5.98 13.14-10.46a37 37 0 0 0 3.36-5.5q.3-.63.56-1.27l.07-.16q.24-.52.43-1.03a28 28 0 0 0 1.41-4.59c.53-2.51-3.33-3.59-3.86-1.06m-55.1.96c2.4 10.53 10.33 22 21.7 23.73a2.07 2.07 0 0 0 2.47-1.4 2 2 0 0 0-1.4-2.46c-10.09-1.53-16.8-11.63-18.92-20.94-.57-2.5-4.43-1.44-3.85 1.07m24.07 8.96a12 12 0 0 0 5.75 1.34 9.5 9.5 0 0 0 5.91-1.79 2 2 0 0 0 .59-1.41 2 2 0 0 0-.59-1.42 2.06 2.06 0 0 0-2.83 0c.7-.54-.01-.02-.23.1-.17.1-.62.23.01.01l-.46.17c-.42.14-.89.16-1.3.3a12 12 0 0 1-2.48-.01l-.22-.03q-.24-.02.19.03a9 9 0 0 1-1.22-.27l-.5-.17c-.44-.15.43.2.02.01l-.61-.3a2 2 0 0 0-2.03 3.44m4.46-13.19a25 25 0 0 1 .6 2.76l-.07-.53.01.38.07-.54-.04.17.2-.47-.06.1.32-.4-.1.1.4-.32-.21.12.48-.2-.37.1.53-.07h-.34l.53.07-.4-.06a1.5 1.5 0 0 0-.8-.04 1.5 1.5 0 0 0-.73.24 2 2 0 0 0-.72 2.74l.31.4a2 2 0 0 0 .88.51c.35.05.69.14 1.04.15a3.4 3.4 0 0 0 1.6-.39 2.4 2.4 0 0 0 1.32-1.59 4 4 0 0 0-.02-1.65q-.23-1.32-.58-2.63a2 2 0 0 0-.92-1.2 2 2 0 0 0-1.54-.2 2 2 0 0 0-1.2.91 2 2 0 0 0-.2 1.55Zm-13.99-7.95c-.46 1.5-.16 4.93 2.67 5.22 3.74-.02 3.94-4.17 2.68-6.13-1.03-1.6-4.06-2.27-5.35.9m29.97 0c.46 1.5.16 4.93-2.68 5.22-3.74-.02-3.94-4.17-2.68-6.13 1.03-1.6 4.07-2.27 5.36.9" class="a"/><path d="M120.97 64.07a4.54 4.54 0 0 0-4.63 4.6 4.63 4.63 0 1 0 9.26 0 4.54 4.54 0 0 0-4.63-4.6m-61.7 0a4.54 4.54 0 0 0-4.63 4.6 4.34 4.34 0 0 0 4.64 4.7 4.3 4.3 0 0 0 4.63-4.7 4.54 4.54 0 0 0-4.63-4.6" class="b"/><path d="M120.97 62.07a6.64 6.64 0 0 0-6.38 4.76 6.9 6.9 0 0 0 2.17 7.19 7.3 7.3 0 0 0 7.66.52 6.6 6.6 0 0 0 3.14-6.48 6.6 6.6 0 0 0-2.05-4.24 6.8 6.8 0 0 0-4.54-1.75 2 2 0 0 0 0 4l.4.02c.46.01-.46-.1-.02 0l.61.16.12.04q.3.11-.14-.07l.22.1.39.22c.05.13.33.3.42.4.05.05.25.34.08.06l.05.08.32.56c.14.22-.17-.48-.04-.1l.14.46.05.23.03.12q.05.32-.02-.17a3 3 0 0 0 .02.62q0 .2-.02.39v.12l.02-.17a5 5 0 0 0-.15.68l-.11.32c-.06.18-.15.12.07-.17-.12.16-.2.38-.3.55l-.13.17c.24-.44.19-.23.05-.08l-.18.18c-.16.15-.42.22.05-.01-.16.08-.3.2-.45.28l-.29.15c.4-.28.28-.12.07-.04l-.56.15c-.15.03-.52.03.06 0q-.19.01-.37.04a7 7 0 0 1-.77 0l-.25-.02c-.44-.03.48.1.06 0l-.56-.14-.32-.11q.47.2.18.07l-.14-.08c-.17-.09-.32-.22-.5-.3.41.2.27.22.13.08l-.19-.18-.21-.23c-.2-.23.11.13.12.16a5 5 0 0 0-.38-.65c-.09-.17.04-.15.08.18l-.11-.32-.14-.56c-.1-.43.03.49 0 .05q0-.19-.03-.38a4 4 0 0 0 .02-.75c.1.29-.07.4 0 .11q.03-.2.1-.4l.1-.34c.14-.4-.2.4 0 .04l.39-.65c.2-.32-.34.37-.06.08l.32-.33.18-.16q-.38.29-.12.1l.2-.13.26-.15.16-.08q.29-.14-.15.05c.16.04.54-.17.72-.21l.13-.03-.15.02.54-.03a2 2 0 0 0 0-4m-61.7 0a6.64 6.64 0 0 0-6.37 4.76 6.9 6.9 0 0 0 2.17 7.19 7.3 7.3 0 0 0 7.66.52 6.5 6.5 0 0 0 3.14-6.48 6.6 6.6 0 0 0-2.05-4.24 6.8 6.8 0 0 0-4.54-1.75 2 2 0 0 0 0 4l.4.02c.46.01-.46-.1-.02 0l.61.16.12.04q.3.1-.14-.07l.22.1a4 4 0 0 1 .51.32q.26.18-.12-.1c.05.13.33.3.42.4.05.05.25.34.07.06l.05.08.32.56c.15.22-.16-.48-.04-.1l.15.46.05.23.03.12q.05.32-.02-.17a3 3 0 0 0 .02.62q0 .2-.02.39v.12q-.05.33.02-.17a5 5 0 0 0-.16.68l-.1.32c-.06.18-.15.12.07-.17-.12.16-.2.38-.3.55l-.13.17c.24-.44.19-.23.05-.08l-.18.18c-.16.15-.42.22.05-.01-.16.08-.3.2-.45.28l-.29.15c.4-.28.28-.12.07-.04l-.56.15c-.15.03-.52.03.06 0q-.19.01-.37.04a7 7 0 0 1-.77 0l-.25-.02c-.44-.03.48.1.06 0l-.56-.14-.31-.11.17.07-.14-.08c-.17-.09-.32-.22-.5-.3.41.2.27.22.13.08l-.2-.18-.2-.23c-.21-.23.11.13.12.16a5 5 0 0 0-.38-.65c-.09-.17.04-.15.08.18l-.11-.32q-.09-.29-.14-.56c-.1-.43.03.49 0 .05q0-.19-.03-.38a4 4 0 0 0 .02-.75c.1.29-.07.4 0 .11q.03-.2.1-.4l.1-.34c.13-.4-.21.4 0 .04l.39-.65c.2-.32-.34.37-.06.08l.32-.33.18-.16q-.38.29-.12.1l.2-.13.25-.15.02-.03c.16.04.54-.17.72-.21l.13-.03-.15.02.54-.03a2 2 0 0 0 0-4Z" class="a"/></svg>
