<svg xmlns="http://www.w3.org/2000/svg" viewBox="0 -9.36 267.481 267.481"><defs><style>.c{fill:#fff}.d{fill:#211715}</style></defs><path d="M79.6 193.95c-13.85-.34-22.76-10.74-22.69-20.35a117 117 0 0 1 3.56-24.8c2.74-9.84 4.72-27.16 4.72-51.17-1.17-35.43 8.14-61.12 22.83-75.19 8.86-8.47 28.81-20.02 51.24-20.02a81 81 0 0 1 32.54 6.23l4.57 1.85 5.44 3.2c4.34 2.57 5.89 4.76 10.35 9.06 11.21 10.82 19 30.28 20.25 47.7.35 5.03 1.18 18.11.38 27.16.4 29.92 5.92 46.66 8.76 54.9a55 55 0 0 1 3.46 18.74c.1 11.2-13.81 25.7-29.81 19.96Z" style="fill:#a98a75"/><path d="M34.25 246.42a202 202 0 0 1 7.2-21.07c2.8-5.86 6.23-11.67 11.18-15.79a77 77 0 0 1 17.13-11.12c5.95-2.58 13.38-5.4 20.1-8.17 13.31 8.47 31.68 14.27 50.84 14.27 19.25 0 37.36-5.71 50.58-14.06 6.58 2.7 13.79 5.44 19.6 7.96A77 77 0 0 1 228 209.56c4.94 4.12 8.37 9.93 11.17 15.8 1.37 2.84 4.97 14.1 6.8 20.8Z" style="fill:#f8b8b4"/><path d="M181.36 195.82a99 99 0 0 1-40.66 8.72 98 98 0 0 1-48.76-12.98l-1.74-1.36c5.2-1.87 15.05-5.5 16.31-6.15a9.5 9.5 0 0 0 6.03-8.66c.2-3.28.3-5.54.63-8.52a53 53 0 0 1-15-12.9A67 67 0 0 1 85.45 130a9.5 9.5 0 0 1-8.1-2.03c-4.68-3.83-6.62-9.18-7.81-12.67-1.68-4.94-1.78-12.91.71-17.24.84-1.45 2.78-3.92 7.35-4.08a9 9 0 0 1 5.6 1.68l7.43-6.26c4.66-3.82 9.49-8.05 14.32-12.47 8.56-.15 17.92-.2 17.92-.2 16.67-4.77 30.09-14.51 40.65-28.26 2.08 7.96 5 17.88 7.57 22.7 3.78 7.08 15.8 22.96 25.48 25.28a8.7 8.7 0 0 1 6.48-2.47c4.57.16 6.5 2.63 7.35 4.08 2.5 4.33 2.39 12.3.71 17.24-1.19 3.5-3.13 8.84-7.81 12.67a9.7 9.7 0 0 1-7.5 2.16l-.71-.12a57 57 0 0 1-2.58 7c-1.87 5.07-12.05 22.64-25.03 29.96.32 2.93.42 5.18.63 8.43a9.5 9.5 0 0 0 6.02 8.66c1.34.69 12.25 4.7 17.13 6.44a83 83 0 0 1-9.9 5.33" class="c"/><path d="M36.57 247.06a212 212 0 0 1 6.67-19.86c.18-.44-.18.35.11-.25a72 72 0 0 1 4.16-7.72c6.74-10.63 18.66-16.86 30-21.43 6.85-2.76 13.77-5.4 20.52-8.43a2.4 2.4 0 0 0 .86-3.28 2.46 2.46 0 0 0-3.29-.86c-6.1 2.74-12.37 5.13-18.58 7.62-6.1 2.45-12.06 4.99-17.57 8.61-5.56 3.66-10.82 7.82-14.7 13.27a60 60 0 0 0-7.2 13.92 207 207 0 0 0-5.61 17.13c-.82 2.98 3.8 4.25 4.63 1.28m211.73-1.55c-2.78-10.1-5.67-20.56-11.48-29.4-3.67-5.58-8.57-9.75-14-13.54a86 86 0 0 0-17.23-8.92c-6.86-2.78-13.8-5.38-20.55-8.42a2.47 2.47 0 0 0-3.29.86 2.4 2.4 0 0 0 .87 3.29c5.96 2.68 12.06 5.04 18.13 7.47 5.88 2.35 11.66 4.72 17.03 8.13 5.06 3.2 10.17 6.96 13.72 11.85a57 57 0 0 1 4.7 7.87q.5 1 .97 2l.2.43c-.23-.5-.08-.17-.04-.06q.54 1.38 1.04 2.77a244 244 0 0 1 5.3 16.95c.82 2.98 5.45 1.72 4.63-1.27ZM172.44 6.34A86 86 0 0 0 136.61.07a82 82 0 0 0-36.24 10.58 64 64 0 0 0-20.88 18c-5.85 8.01-9.79 17.38-12.38 26.92-3.71 13.65-4.77 27.96-4.32 42.06.1 3.08 4.9 3.1 4.8 0-.69-21.63 2-45.03 14.01-63.6a56 56 0 0 1 17.9-17.3 78 78 0 0 1 32.77-11.55 81.6 81.6 0 0 1 38.9 5.78 2.4 2.4 0 0 0 2.95-1.67 2.46 2.46 0 0 0-1.68-2.95m42.76 91.29a147 147 0 0 0 .1-18.97 131 131 0 0 0-1.55-16.68c-2.28-13.05-7.48-26.06-15.82-36.44a103 103 0 0 0-7.35-7.74 38 38 0 0 0-7.55-6.16c-2.66-1.59-5.07 2.56-2.42 4.14a32 32 0 0 1 6.32 5.16c2.17 2.18 4.44 4.27 6.45 6.6a64 64 0 0 1 9.53 15.4 84 84 0 0 1 5.84 18.34 108 108 0 0 1 1.65 15.66 153 153 0 0 1 0 20.69 2.4 2.4 0 0 0 2.4 2.4 2.45 2.45 0 0 0 2.4-2.4" class="d"/><path d="M79.6 191.55c-6.6-.2-13.25-3.07-17.12-8.59a17 17 0 0 1-3.07-7.55 47 47 0 0 1 .48-10.17q.64-5.75 1.83-11.4c.58-2.74 1.38-5.42 1.99-8.15a150 150 0 0 0 2.69-18.59c.9-9.8 1.2-19.64 1.2-29.47 0-3.1-4.8-3.1-4.8 0 0 9.16-.27 18.33-1.02 27.46a146 146 0 0 1-2.64 19.09c-.61 2.8-1.45 5.56-2.04 8.38-.86 4.06-1.48 8.17-1.96 12.3a48 48 0 0 0-.51 10.68 21 21 0 0 0 3.29 9.21c4.77 7.35 13.05 11.33 21.68 11.6 3.09.1 3.09-4.7 0-4.8m130.8-93.92c.23 15.91 1.84 31.97 6.23 47.32 1.63 5.71 3.94 11.25 5.1 17.09.75 3.8 1.37 8.54.6 12.02a19.4 19.4 0 0 1-4.23 8.32 22 22 0 0 1-9.4 6.66 19.2 19.2 0 0 1-12.86-.13 2.4 2.4 0 1 0-1.27 4.63 24.4 24.4 0 0 0 23.77-4.65 26 26 0 0 0 6.92-8.82 22.5 22.5 0 0 0 2.1-11.08 58 58 0 0 0-2.82-15.11c-.75-2.32-1.58-4.61-2.3-6.93a141 141 0 0 1-4.26-17.57 198 198 0 0 1-2.78-31.75c-.04-3.09-4.84-3.1-4.8 0" class="d"/><path d="M85.66 94.6a11.9 11.9 0 0 0-13.25-1.79c-3.16 1.56-4.96 4.7-5.78 8.01-1.95 8 .08 17.14 4.66 23.93 3.28 4.86 8.05 8.55 14.18 7.69a2.4 2.4 0 0 0 1.68-2.96 2.47 2.47 0 0 0-2.95-1.67c-3.59.5-6.68-2.49-8.55-5.17a31 31 0 0 1-3.9-8.28 25 25 0 0 1-.9-9.94 15 15 0 0 1 1.05-4.36 10 10 0 0 1 .74-1.3c.27-.44-.12.08.16-.24q.3-.34.63-.66c2.12-2 6.45-2.03 8.83.14 2.28 2.08 5.68-1.3 3.4-3.4M198.38 98a7 7 0 0 1 8.3-.55 6 6 0 0 1 1.01.9q.16.16.28.34c-.02-.03-.22-.3-.08-.09q.21.3.39.6a12 12 0 0 1 1.35 4.09c1.11 6.17-.6 12.8-3.82 18.1-1.9 3.13-5.25 7-9.37 6.41a2.5 2.5 0 0 0-2.95 1.68 2.4 2.4 0 0 0 1.67 2.95c10.02 1.42 15.86-8.76 18.4-16.95a29 29 0 0 0 .76-13.13c-.56-3.47-2.03-6.84-4.99-8.9a11.86 11.86 0 0 0-14.35 1.15c-2.28 2.1 1.12 5.48 3.4 3.4" class="d"/><path d="M193.83 125.23a73 73 0 0 1-3.86 11.7c.3-.76-.03.06-.1.22l-.31.66q-.44.9-.9 1.78-1.06 1.97-2.2 3.86a70 70 0 0 1-15.27 18.1 28 28 0 0 1-11.34 5.87c-3.01.69-1.74 5.32 1.27 4.63 8.5-1.95 15.55-8.19 21.08-14.63a76 76 0 0 0 11.82-17.85 40 40 0 0 0 .84-1.97l.45-1.06q.36-.86.68-1.74a56 56 0 0 0 2.47-8.3 2.46 2.46 0 0 0-1.67-2.95 2.4 2.4 0 0 0-2.95 1.68ZM82.02 126.3a70 70 0 0 0 9.96 23.39c5.06 7.57 11.7 14.68 19.74 19.12a39 39 0 0 0 13.19 4.47 2.5 2.5 0 0 0 2.95-1.67 2.4 2.4 0 0 0-1.68-2.95c-16.83-2.47-29.43-17.09-35.82-32.03a67 67 0 0 1-3.72-11.6c-.68-3.01-5.3-1.74-4.62 1.28Zm48.08 17.2a22.5 22.5 0 0 0 10.82 2.5c3.83-.02 7.75-.76 10.83-3.15a2.4 2.4 0 0 0 0-3.4 2.46 2.46 0 0 0-3.4 0c.7-.54.06-.05-.12.06q-.33.22-.69.4c-.14.08-.92.42-.36.2l-.94.34a17 17 0 0 1-5.67.75 18 18 0 0 1-5.42-.72q-.51-.16-1.02-.35l-.33-.13c.6.22.1.05-.02-.01q-.64-.3-1.26-.63a2.45 2.45 0 0 0-3.28.86 2.43 2.43 0 0 0 .86 3.29Zm9.81-25.78a52 52 0 0 1 1.22 5.6l-.08-.65a3 3 0 0 1 .02.77l.08-.63-.08.34.24-.57-.12.22.37-.48-.18.18.49-.38-.45.24.58-.25a3 3 0 0 1-.75.22l.64-.08a3 3 0 0 1-.7 0l.64.08-.79-.14a2.7 2.7 0 0 0-1.85.25 2.4 2.4 0 0 0-.86 3.28 2.3 2.3 0 0 0 1.44 1.1c.56.08 1.1.22 1.67.24a5 5 0 0 0 2.4-.56 3.4 3.4 0 0 0 1.9-2.24 6 6 0 0 0-.02-2.47q-.47-2.7-1.18-5.35a2.4 2.4 0 1 0-4.63 1.28m-29.81-15.6c-.9 2.93-.31 9.7 5.25 10.27 7.36-.05 7.75-8.22 5.27-12.06-2.02-3.15-7.99-4.46-10.52 1.78m60.44 0c.9 2.93.32 9.7-5.25 10.27-7.36-.05-7.75-8.22-5.27-12.06 2.02-3.15 7.99-4.46 10.52 1.78m-9.16-52.33c1.26 4.74 2.6 9.47 4.18 14.12a53 53 0 0 0 4.46 10.23 78 78 0 0 0 14.49 17.73c3.13 2.8 6.63 5.41 10.69 6.7 2.95.92 4.21-3.7 1.27-4.64a24 24 0 0 1-8.05-5 69 69 0 0 1-8.08-8.49 56 56 0 0 1-9.76-16.69A196 196 0 0 1 166 48.51c-.79-2.98-5.42-1.71-4.63 1.28Zm-39.73 7.91c-10.56 10.36-21.27 20.61-32.72 30a2.4 2.4 0 0 0 0 3.4 2.46 2.46 0 0 0 3.4 0c11.44-9.39 22.16-19.64 32.71-30 2.2-2.17-1.19-5.57-3.4-3.4" class="d"/><path d="M161.77 46.83a82 82 0 0 1-17.53 17.08 74 74 0 0 1-22 10.49c-2.97.85-1.7 5.49 1.27 4.63a79 79 0 0 0 34.02-20.1 91 91 0 0 0 7.63-8.71 2.5 2.5 0 0 0 0-3.4 2.4 2.4 0 0 0-3.39 0ZM88.16 193.47c4.28-1.48 8.53-3.07 12.78-4.66 4.53-1.7 9.9-3.12 12.41-7.67 2.09-3.79 1.68-8.41 2.05-12.59a2.4 2.4 0 0 0-2.4-2.4 2.45 2.45 0 0 0-2.4 2.4q-.22 2.83-.4 5.65a12 12 0 0 1-.7 3.94 6.6 6.6 0 0 1-2.52 2.98 16 16 0 0 1-1.77.9l-.23.1c-.41.2.53-.2.03 0-4.1 1.62-8.24 3.14-12.39 4.65q-2.86 1.06-5.74 2.07c-2.9 1-1.65 5.64 1.28 4.62Zm105.6-4.63a541 541 0 0 1-11.87-4.32q-2.9-1.07-5.78-2.2l-.42-.18c-.46-.18.05.02.06.03l-.94-.43a7 7 0 0 1-3.04-2.47 8.4 8.4 0 0 1-1.28-4.12c-.15-2.2-.26-4.4-.45-6.6a2.46 2.46 0 0 0-2.4-2.4 2.4 2.4 0 0 0-2.4 2.4c.33 3.7 0 7.79 1.44 11.28a12 12 0 0 0 6.51 6.42c4.25 1.86 8.68 3.37 13.04 4.97q3.12 1.15 6.25 2.24c2.93 1.02 4.18-3.62 1.28-4.62" class="d"/><path d="M90.73 193.63c24.38 14.34 55.03 17.04 81.78 8.2a91 91 0 0 0 19.96-9.26c2.6-1.64.2-5.8-2.43-4.14-22.72 14.26-51.74 17.23-77.26 9.56a89 89 0 0 1-19.63-8.5c-2.67-1.57-5.09 2.57-2.42 4.14" class="d"/><path d="M105.17 222.06a77 77 0 0 1-13.07-4.76c1.74-7.14 3.96-18.3 5.76-25.86a22 22 0 0 1 1.83-5.08c-9.81-8.72-20.12-18.3-23.23-32.1-.76-3.36-2.71-31.5-1.99-37.41a10 10 0 0 1 1.15-3.42 5.6 5.6 0 0 1 4.1-2.38 4 4 0 0 1 3.54 1.27c1.02 1 1.84 3.7 2.2 5.1l.76 3.01a6 6 0 0 1 3.53 1.83c1.41 1.45 1.82 3.39 2.58 5.27 2.15 5.38 4.4 14.06 7.21 20.01a12 12 0 0 0 2.34 3.35A72 72 0 0 0 118 163.28c2.72 1.58 6.03 3.68 7.03 5.3 2.64 4.28 2.65 9.06 1.38 14.43-1.15 13.21-1.69 28.37-3.5 42.01a89 89 0 0 1-17.74-2.96" class="c"/><path d="M88.45 218.1a72 72 0 0 0 16.43 6.36 89 89 0 0 0 20.4 3.06c3.09.09 3.08-4.71 0-4.8a83 83 0 0 1-19.12-2.89 66 66 0 0 1-15.28-5.88c-2.7-1.5-5.13 2.64-2.43 4.15" class="d"/><path d="M122.96 224.48q-1.17 8.1-2.27 16.22a2.5 2.5 0 0 0 1.68 2.95 2.4 2.4 0 0 0 2.95-1.67q1.1-8.12 2.27-16.22a2.5 2.5 0 0 0-1.68-2.95 2.4 2.4 0 0 0-2.95 1.67" class="d"/><path d="M90.57 154.42a110 110 0 0 1-4.2-14.44c-.99-4.57-1.7-9.2-2.55-13.8-.27-1.47.32-3.65 2.24-3.36 2.11.32 2.9 2.49 3.53 4.22 1.62 4.47 3.1 8.97 4.64 13.47q1.19 3.5 2.64 6.9a18 18 0 0 0 4.26 6.1 78 78 0 0 0 10.76 8.8c2.1 1.41 4.31 2.66 6.47 3.98 1.69 1.04 3.89 2.29 4.8 3.86a13 13 0 0 1 1.67 6.45c.02 2.63-.71 5.12-.93 7.72-1.05 12.63-1.55 25.3-3.04 37.89a2.4 2.4 0 0 0 2.4 2.4 2.46 2.46 0 0 0 2.4-2.4c1.42-12 1.94-24.08 2.9-36.13.22-2.83.93-5.6 1.05-8.45a18 18 0 0 0-1.32-7.87 13 13 0 0 0-4.76-5.8c-2.2-1.6-4.6-2.87-6.9-4.3a70 70 0 0 1-11.5-8.97 20 20 0 0 1-2.5-2.58 16 16 0 0 1-1.68-3.24 100 100 0 0 1-2.76-7.6c-1.56-4.7-2.92-9.6-5-14.11-2.38-5.2-9.9-7.38-13.2-1.78a7.6 7.6 0 0 0-1.1 4.17 46 46 0 0 0 .82 4.82c.49 2.74.95 5.48 1.48 8.22a113 113 0 0 0 4.74 17.1 2.46 2.46 0 0 0 2.95 1.67 2.4 2.4 0 0 0 1.67-2.95Z" class="d"/><path d="M87.77 116.77c-1-3.87-3.06-8.52-7.86-8.14a8.2 8.2 0 0 0-5.98 3.03 11.3 11.3 0 0 0-1.92 5.76 116 116 0 0 0 .29 15.33c.3 5.83.68 11.67 1.25 17.49a38 38 0 0 0 .69 5.06 43 43 0 0 0 5.09 12.22c5.04 8.33 12.34 14.93 19.56 21.33 2.3 2.04 5.7-1.34 3.4-3.4-5.77-5.11-11.68-10.3-16.26-16.54a43 43 0 0 1-5.64-9.97 34 34 0 0 1-1.63-5.4q-.07-.33-.11-.65l-.02-.13-.04-.34c-.58-4.75-.88-9.55-1.18-14.33a291 291 0 0 1-.7-16.51c0-2.27-.16-4.62.77-6.54.6-1.22 2.52-2.18 3.76-1.31 1.1.76 1.55 2.93 1.9 4.32.77 2.99 5.4 1.72 4.63-1.28" class="d"/><path d="M94.71 216.71c1.18-4.97 2.23-9.98 3.3-14.97q.8-3.7 1.63-7.4a28 28 0 0 1 2.01-6.57c1.41-2.74-2.73-5.17-4.15-2.42-2.3 4.47-2.97 9.84-4.03 14.7-1.1 5.14-2.18 10.28-3.39 15.39-.7 3 3.92 4.28 4.63 1.27" class="d"/><path d="M250.65 86.76a.8.8 0 0 1-1.55.02c-.88-3.37-2.24-7.4-4.3-9.8-2.52-2.94-6.16-4.19-9.53-4.9a.8.8 0 0 1 0-1.57c3.34-.7 7.02-1.95 9.47-4.6 2.33-2.51 3.64-7.57 4.38-11a.8.8 0 0 1 1.56-.03c.82 3.44 2.28 8.51 4.61 11.03 2.43 2.62 5.93 3.87 9.17 4.58a.8.8 0 0 1-.01 1.56c-3.46.69-7.25 1.88-9.77 4.8-2.06 2.41-3.24 6.5-4.03 9.91M20.1 184.14a.88.88 0 0 1-1.72.02c-.97-3.74-2.47-8.2-4.76-10.87-2.79-3.25-6.82-4.63-10.56-5.43a.88.88 0 0 1 0-1.73c3.7-.78 7.78-2.16 10.5-5.09 2.58-2.79 4.04-8.4 4.85-12.2a.88.88 0 0 1 1.73-.02c.9 3.8 2.52 9.43 5.11 12.22 2.69 2.9 6.57 4.28 10.16 5.07a.88.88 0 0 1-.02 1.73c-3.83.76-8.03 2.08-10.82 5.33-2.28 2.66-3.6 7.2-4.47 10.97" style="fill:#ffda71"/><path d="m248.33 86.12-.1.24.62-1.05q2.98 1.72 2.36.1a46 46 0 0 0-.68-2.27 38 38 0 0 0-1.22-3.2 17 17 0 0 0-3.08-4.96 15 15 0 0 0-4.84-3.44 24 24 0 0 0-3.02-1.15c-.89-.27-1.85-.4-2.71-.73l1.05.62v2.02l-1.05.62c.94-.36 2-.5 2.97-.8a26 26 0 0 0 3.27-1.27 14 14 0 0 0 5.31-4.2 20 20 0 0 0 2.7-5.44c.66-1.92.9-4.03 1.62-5.92l-.62 1.06-2.03-.02-.62-1.05c.72 1.76 1 3.75 1.65 5.56a22 22 0 0 0 2.81 5.69 14.4 14.4 0 0 0 5.12 4.2 24 24 0 0 0 3.07 1.28c1.03.34 2.15.5 3.16.89l-1.06-.62-.01-2.02 1.06-.62c-.89.33-1.88.44-2.8.7a25 25 0 0 0-3.09 1.13 15 15 0 0 0-4.92 3.4c-2.82 3.05-4 7.3-4.93 11.25-.7 3 3.92 4.29 4.63 1.28.79-3.34 1.65-7.26 4.25-9.7a12 12 0 0 1 4.43-2.45c1.72-.57 4.27-.58 5.33-2.23a3.24 3.24 0 0 0-2.04-4.89 24 24 0 0 1-5-1.72 9.4 9.4 0 0 1-3.62-3.11 20 20 0 0 1-2.07-4.63 39 39 0 0 0-1.46-4.96 3.2 3.2 0 0 0-5.25-.75c-1.12 1.23-1.22 3.62-1.68 5.19a22 22 0 0 1-1.86 4.71c-1.71 3-5.07 4.3-8.27 5.09a5 5 0 0 0-2.48 1.03 3.2 3.2 0 0 0-.9 3.06c.56 2.21 2.75 2.37 4.59 2.92a13 13 0 0 1 5.08 2.59 12.5 12.5 0 0 1 3.08 4.6 32 32 0 0 1 1.07 3.03 11 11 0 0 0 1.17 3.3 3.1 3.1 0 0 0 3 1.25 3.3 3.3 0 0 0 2.65-2.33 2.4 2.4 0 0 0-1.68-2.95 2.46 2.46 0 0 0-2.96 1.67M17.8 183.5v-.14l.87-.86a2 2 0 0 1 1.53.2l.62 1.06c-.83-2.02-1.23-4.23-2.07-6.27a21 21 0 0 0-3.55-6.05 16 16 0 0 0-5.44-3.94 27 27 0 0 0-3.2-1.23q-.7-.22-1.43-.4l-.88-.21c-.17-.04-.59-.25-.4-.11l.86.86a2.3 2.3 0 0 1 0 1.17l-.86.86c-.25.18.25-.08.41-.12l.9-.21q.84-.21 1.66-.47a28 28 0 0 0 3.44-1.34 15.5 15.5 0 0 0 5.8-4.52 22 22 0 0 0 3.04-6.18q.54-1.57.95-3.18.22-.84.42-1.69l.14-.64.1-.47q.06-.29.03-.02l-.86.86a2 2 0 0 1-1.52-.2l-.61-1.06c.77 2 1.1 4.19 1.83 6.21a24 24 0 0 0 3.03 6.13 16 16 0 0 0 5.5 4.56 26 26 0 0 0 3.6 1.49q.81.27 1.64.48l.73.19c.17.04.75.29.59.16l-.86-.86a2.3 2.3 0 0 1-.01-1.17l.86-.86c.19-.13-.08.04-.24.07q-.36.06-.72.15-.83.2-1.65.42a27 27 0 0 0-3.29 1.18 16 16 0 0 0-5.59 3.82c-3.07 3.34-4.35 8.02-5.36 12.33-.7 3 3.92 4.29 4.63 1.27.87-3.7 1.82-8.05 4.68-10.77a13 13 0 0 1 4.93-2.8c1.84-.63 4.74-.64 5.9-2.38 1.4-2.12.05-4.53-2.24-5.1a24 24 0 0 1-5.52-1.94 10.5 10.5 0 0 1-4-3.47 22 22 0 0 1-2.23-4.88c-.6-1.77-.94-3.61-1.53-5.37a3.3 3.3 0 0 0-5.65-1.12 5.5 5.5 0 0 0-.94 2.52q-.34 1.47-.75 2.92a25 25 0 0 1-2.02 5.2c-1.82 3.31-5.3 4.88-8.81 5.8a9 9 0 0 0-2.83.92A3.2 3.2 0 0 0 0 167.21c.14 2.73 2.86 2.97 4.91 3.58a15 15 0 0 1 5.63 2.8 14 14 0 0 1 3.66 5.38q.64 1.57 1.14 3.2a22 22 0 0 0 .96 3.14 3.3 3.3 0 0 0 3.07 1.88 3.4 3.4 0 0 0 3.05-2.43 2.4 2.4 0 0 0-1.67-2.95 2.46 2.46 0 0 0-2.96 1.68" class="d"/></svg>
