<svg xmlns="http://www.w3.org/2000/svg" fill="none" viewBox="0 0 24 24"><path fill="currentColor" fill-rule="evenodd" d="M6.15 7.3a7.5 7.5 0 0 1 6.92-2.72l.64 1.27-2.44 2.44-2.62.38-1.29 1.28zM5.2 8.83q-.69 1.46-.7 3.17a7.5 7.5 0 0 0 6.19 7.39l.4-.67-2.28-3.17 1.56-2.02-.74-.38-2.69.45-.53-2.1zm2.76 2.65.1.42 1.8-.3 1.51.75 2.71-.38 4.87 2.84a7.5 7.5 0 0 0-3.92-9.67l.5 1-3.55 3.57-2.63.37zm10.3 4.66a7.5 7.5 0 0 1-5.87 3.35l.51-.83-2.21-3.08 1.4-1.82 1.68-.23zM12 3a9 9 0 1 0 0 18 9 9 0 0 0 0-18" clip-rule="evenodd"/></svg>
