<svg xmlns="http://www.w3.org/2000/svg" viewBox="-60.83 0 330.501 330.501"><defs><style>.a{fill:#fff}.c{fill:#211715}</style></defs><path d="M94.19 151.28c-5.16-4.05-10.34-8.14-10.81-8.52-2.2 2.45-4.9 6.04-7.04 8.53a8 8 0 0 0-1.64 3.59l-8.45 2.06c-14.23 3.6-24.87 8.54-34.01 12.5a45 45 0 0 0-14.86 11.03 41 41 0 0 0-7.72 14.16C6.53 204.83 3.1 220.56 2.79 235c-.37 16.86-.86 27.8.68 44.1.95 10.18 3.98 21.38 8.96 30.32 5.94 10.66 20.25 17.6 32.79 18.46 12.17.83 24.34-.56 37.12-3.33a239 239 0 0 0 20.82-5.82l5.66 1.6a179 179 0 0 0 35.19 6.46c13.8 1 28.98 1 39.77-3.93a31 31 0 0 0 14.95-14.38c3.27-6.7 5.18-15.65 6.02-22.96 1.9-16.34 1.92-26.96 1.3-48.8-.32-10.74-2.79-26.58-5.68-35.95a58 58 0 0 0-7.9-16.36 42 42 0 0 0-9.66-10.4c-11.3-7.82-31.29-15.12-44.6-17.9a7.5 7.5 0 0 0-1.73-4.81c-2.14-2.48-4.84-6.08-7.04-8.53-.93.76-19.92 15.73-21.36 16.75h-3.34c-.7-.51-5.62-4.35-10.55-8.23" class="a"/><path d="M98.88 182.76c.02 1.03-6.8 63.5-9.3 86.23 7.6-1.85 15-3.66 21.83-5.4a5.7 5.7 0 0 1 6.7 3.4l.27.71 1.83-.7q1.94-.87 3.63-1.54c-2.75-24.97-8.92-81.72-8.91-82.7a21 21 0 0 1 1.24-5.9c.31-1.03.84-3.21 1.39-5.2-3.15-4.24-7.1-9.5-9.47-12.16h-3.35a206 206 0 0 0-8.97 11.5c.67 2.23 1.5 4.68 1.87 5.86a21 21 0 0 1 1.24 5.9" style="fill:#3d8dcc"/><path d="M154.11 79.58a7.4 7.4 0 0 1 5.36-1.96 6.9 6.9 0 0 1 6.18 3.43c2.1 3.65 2.01 10.36.6 14.51-1 2.94-2.63 7.44-6.58 10.67a8.2 8.2 0 0 1-6.3 1.82l-.6-.1a48 48 0 0 1-2.16 5.88c-1.58 4.28-10.2 19.14-21.16 25.27v3.66c-.93.75-19.92 15.73-21.36 16.75h-3.35c-1.44-1.02-20.43-16-21.36-16.75v-4.04a45 45 0 0 1-12.17-10.6 56 56 0 0 1-10.7-20.18 8 8 0 0 1-6.82-1.71C49.74 103 48.1 98.5 47.1 95.56c-1.4-4.15-1.5-10.86.6-14.5a6.9 6.9 0 0 1 6.19-3.44 7.4 7.4 0 0 1 5.36 1.96s-9.88-45.72 47.43-45.72 47.43 45.72 47.43 45.72" class="a"/><path d="M114.2 177.96c-4.95 0-9.9.1-14.85.1a2.4 2.4 0 1 0 0 4.8c4.95 0 9.9-.1 14.85-.1a2.4 2.4 0 1 0 0-4.8" class="c"/><path d="M115.24 171.03q-.95 3.5-1.92 6.98a16 16 0 0 0-.78 4.93c.04.94.18 1.89.27 2.83l1.48 13.99q2.34 21.85 4.74 43.7l2.4 22a2.47 2.47 0 0 0 2.4 2.4 2.4 2.4 0 0 0 2.4-2.4q-2.3-20.88-4.56-41.77-2-18.25-3.91-36.51c-.14-1.33-.3-2.65-.4-3.98a9 9 0 0 1 .3-2.78c.62-2.72 1.48-5.41 2.21-8.11.8-2.98-3.82-4.26-4.63-1.28m-21.79.6c.78 2.56 1.7 5.08 2.41 7.66a12 12 0 0 1 .6 3.75c-.06 1.1-.21 2.2-.33 3.3q-.79 7.65-1.62 15.3-2.47 23-4.99 46.01l-2.33 21.34a2.4 2.4 0 0 0 2.4 2.4 2.45 2.45 0 0 0 2.4-2.4l4.6-42.24c1.43-13.11 2.87-26.22 4.23-39.33.15-1.42.33-2.83.43-4.25a14 14 0 0 0-.41-3.8c-.67-3.07-1.84-6.03-2.76-9.02-.9-2.95-5.53-1.69-4.63 1.27Z" class="c"/><path d="M137.57 158.41a149 149 0 0 1 25.12 7.89 122 122 0 0 1 12.13 5.67 43 43 0 0 1 9.5 6.4c13.35 12.78 16.93 31.98 18.72 49.6.94 9.28.95 18.7.97 28.01.02 7.84-.28 15.66-1.01 23.46-.86 9.04-2.07 18.4-5.85 26.76-3.74 8.26-10.91 13.88-19.55 16.35-9.43 2.69-19.53 2.62-29.24 2.1a172 172 0 0 1-31.92-4.8q-3.51-.86-6.98-1.84c-2.98-.84-4.25 3.79-1.28 4.63a185 185 0 0 0 32.44 6.25c10.5 1.01 21.3 1.37 31.76-.3 9.53-1.52 18.58-5.45 24.71-13.15 6.17-7.76 8.48-18.14 9.79-27.76a220 220 0 0 0 1.87-24.86c.2-9.48.1-19.05-.41-28.52a164 164 0 0 0-4.02-28.02 66 66 0 0 0-11.35-25.3 41 41 0 0 0-10.02-9.78 90 90 0 0 0-11.48-6.28 161 161 0 0 0-26.7-9.72q-2.95-.79-5.93-1.42c-3.01-.64-4.3 3.99-1.27 4.63" class="c"/><path d="m168.48 259.9.13.02a395 395 0 0 1-9.33 38.69l-.21-.06c-8.11.95-27.41 2.02-31.38 0l-.07.02h-.01a237 237 0 0 0-9.23-30.87l1.83-.71c6.39-2.84 10.08-3.84 16.76-5.77 5.97-1.73 12.36-3.53 20.59-3.54a35 35 0 0 1 10.92 2.22M34.73 248.32a5.5 5.5 0 0 1 4.88-1.61l1.23-.01a9 9 0 0 1-1.24-1.9 5.2 5.2 0 0 1 .79-5.79 6.3 6.3 0 0 1 5.08-1.55 11 11 0 0 1 5.74 2.69c8.33 7.38 23.67 22.34 31.42 30.16l.08.34c-13.18 3.18-26.57 6.37-38.21 9.27l-.06-.25a116 116 0 0 1-8.53-9.41 12 12 0 0 1-2.14-3.46 5 5 0 0 1 .72-4.34c1.36-1.52 3.05-1.61 5.22-1.31l.75-.73-2.71-2.75a17 17 0 0 1-3.68-4.83 4.3 4.3 0 0 1 .66-4.52" class="a"/><path d="M44.14 282.48C58.07 279 72.04 275.7 86 272.33q10.48-2.54 20.95-5.14 2.35-.6 4.71-1.18a3.6 3.6 0 0 1 3.16.46c1.05.8 1.4 2.21 1.84 3.4q.95 2.53 1.81 5.1a250 250 0 0 1 6.07 21.04q.6 2.47 1.16 4.95c.33 1.47 1 3.21.9 4.72-.23 3.01-4.13 3.66-6.4 4.53a273 273 0 0 1-37.98 11.89 148 148 0 0 1-23.1 3.4c-6.86.4-13.99.52-20.7-1.12A44 44 0 0 1 22 316.66a30 30 0 0 1-5.84-5.88 42 42 0 0 1-4.53-8.5c-5.62-13.34-6.6-27.9-6.79-42.2-.1-7.08.1-14.15.27-21.23a158 158 0 0 1 1.96-22.59 168 168 0 0 1 4.52-19.7 38 38 0 0 1 10.45-17.47 44 44 0 0 1 8.31-6.03 88 88 0 0 1 8.07-3.71 215 215 0 0 1 17.92-7q5.22-1.74 10.55-3.1c2.99-.76 1.72-5.39-1.28-4.62a167 167 0 0 0-21.44 7.12q-4.51 1.84-8.97 3.8a70 70 0 0 0-8.5 4.1 44 44 0 0 0-15.76 15.95c-3.42 6.1-5.08 13.07-6.62 19.84a163 163 0 0 0-3.59 23.01c-.62 7.8-.6 15.68-.7 23.5-.16 14.8.08 30.17 4.4 44.45 2.05 6.75 4.8 13.78 9.46 19.19a42 42 0 0 0 15.86 10.97 54 54 0 0 0 19.86 3.9 130 130 0 0 0 24.72-1.95c13.84-2.31 27.32-6.5 40.5-11.22 3.72-1.33 7.42-2.7 11.08-4.2 3.32-1.34 5.74-4.37 5.46-8.1a37 37 0 0 0-1.05-5.3q-.6-2.7-1.26-5.38-1.37-5.56-2.96-11.05a218 218 0 0 0-3.48-10.97q-.88-2.52-1.84-5.01a10 10 0 0 0-2.7-4.3 8.4 8.4 0 0 0-4.78-1.94 16 16 0 0 0-5.06.88q-5.37 1.35-10.75 2.67c-14.85 3.65-29.72 7.16-44.58 10.79q-5.02 1.22-10.05 2.47c-3 .75-1.72 5.38 1.28 4.63m116.76 18.98a364 364 0 0 0 12.08-52.55c.74-4.66 1.4-9.33 1.9-14.03a2.4 2.4 0 0 0-2.4-2.4 2.45 2.45 0 0 0-2.4 2.4c-1.84 17.53-5.55 35-10 52.02q-1.73 6.7-3.8 13.29c-.95 2.95 3.7 4.21 4.62 1.27" class="c"/><path d="M126.47 300.63a17 17 0 0 0 6.33 1.28c2.9.22 5.8.21 8.7.16a185 185 0 0 0 17.56-1.12 2.47 2.47 0 0 0 2.4-2.4 2.4 2.4 0 0 0-2.4-2.4c-5.6.65-11.27.98-16.91 1.1-2.86.07-5.72.08-8.58-.09a46 46 0 0 1-2.64-.23c.55.07-.12-.02-.19-.03q-.62-.1-1.24-.25l-.59-.17c-.62-.15.3.15-.02 0a2.46 2.46 0 0 0-3.28.86 2.4 2.4 0 0 0 .86 3.28Zm-5.05-31.57a137 137 0 0 1 21.78-7.07 60 60 0 0 1 11.76-1.84 28 28 0 0 1 6.43.3 47 47 0 0 1 6.45 1.76c2.93 1 4.19-3.64 1.27-4.62a38 38 0 0 0-13.92-2.26 66 66 0 0 0-12.89 1.94 142 142 0 0 0-23.3 7.65 2.4 2.4 0 0 0-.87 3.28 2.46 2.46 0 0 0 3.29.86m-37.1-.45Q72.04 256.23 59.3 244.3q-2.81-2.64-5.7-5.22c-2.55-2.29-5.68-4.2-9.24-4.05-3.59.17-6.87 2.26-7.54 5.98-.7 3.83 1.58 6.84 4.2 9.35 5.16 4.96 10.22 10.02 15.36 15 2.22 2.15 5.62-1.24 3.4-3.4q-6.04-5.87-12.03-11.79-1.66-1.62-3.34-3.2a10.5 10.5 0 0 1-2.73-3.38c-1-2.56 1.34-4 3.62-3.74 2.48.28 4.3 2.06 6.06 3.65q2.74 2.48 5.43 5.02 6.14 5.76 12.17 11.64T80.93 272c2.18 2.2 5.57-1.2 3.4-3.4Z" class="c"/><path d="M39.6 244.31a7.5 7.5 0 0 0-7.65 3.93c-1.57 3.41.12 6.62 2.34 9.25 2.18 2.58 4.73 4.9 7.09 7.32 2.4 2.46 4.83 4.9 7.4 7.2 2.29 2.05 5.7-1.33 3.39-3.4-4.12-3.7-7.9-7.75-11.79-11.69-.91-.92-1.86-1.83-2.7-2.83a6.3 6.3 0 0 1-1.57-2.69c-.32-2 2.01-2.48 3.49-2.29a2.4 2.4 0 0 0 2.4-2.4 2.46 2.46 0 0 0-2.4-2.4" class="c"/><path d="M39.7 258.75c-2.84-.37-5.93.21-7.55 2.85a7.8 7.8 0 0 0 .55 8.35 58 58 0 0 0 4.53 5.58 101 101 0 0 0 5.51 5.83c2.22 2.15 5.62-1.24 3.4-3.4a96 96 0 0 1-8.34-9.15 12 12 0 0 1-1.61-2.35 5 5 0 0 1-.2-.62q-.06-.25-.01.06l-.02-.25q-.01-.37.01-.75c-.03.4.08-.28.1-.36.08-.54-.04.13.1-.32.14-.43-.16.11.2-.26a1.3 1.3 0 0 1 .6-.4c.08-.03.74-.18.3-.1a5 5 0 0 1 .76-.05 13 13 0 0 1 1.67.14 2.4 2.4 0 0 0 2.4-2.4 2.46 2.46 0 0 0-2.4-2.4m41.98-117.7c-1.37 1.55-2.65 3.16-3.94 4.77-1.31 1.62-2.84 3.18-3.98 4.93a8.3 8.3 0 0 0-.44 8.76 107 107 0 0 0 9.44 13.4 32 32 0 0 0 6.96 6.71 2.46 2.46 0 0 0 3.28-.86c4.4-5.88 8.55-12.04 13.43-17.56a2.45 2.45 0 0 0-.48-3.77q-.44-.31-.87-.65l-.35-.27-.02-.02-.94-.72-5.03-3.94q-5.42-4.25-10.83-8.52l-2.84-2.25a2.47 2.47 0 0 0-3.4 0 2.4 2.4 0 0 0 0 3.4c6.06 4.87 12.2 9.64 18.34 14.41 1.16.91 2.31 1.85 3.51 2.7l-.48-3.77c-5.15 5.83-9.53 12.32-14.19 18.54l3.29-.87a15 15 0 0 1-2.32-1.92 43 43 0 0 1-2.68-2.85 85 85 0 0 1-5.14-6.68 122 122 0 0 1-4.9-7.54l-.11-.22c-.03-.07-.02-.12.02.04.08.31-.01-.16 0-.28a6 6 0 0 1 .42-2.01c.72-1.66 2.3-3.07 3.43-4.47 1.38-1.71 2.75-3.44 4.21-5.09 2.05-2.3-1.34-5.7-3.39-3.4" class="c"/><path d="M127.75 144.45q1.89 2.17 3.67 4.42c1.1 1.38 2.34 2.7 3.38 4.13a6 6 0 0 1 .9 1.97 3 3 0 0 1 .1.84c0 .25-.09.76.04.43a10 10 0 0 1-.84 1.44 102 102 0 0 1-8.53 12.08q-1.47 1.78-3.08 3.41a18 18 0 0 1-2.71 2.3l3.28.86c-4.65-6.2-9.03-12.7-14.18-18.53l-.49 3.77c2.7-1.93 5.27-4.07 7.88-6.12q5.54-4.34 11.06-8.7 1.46-1.13 2.91-2.3a2.4 2.4 0 0 0 0-3.4 2.46 2.46 0 0 0-3.4 0c-5.97 4.82-12.04 9.53-18.1 14.25l-1.15.9-.5.38c-.33.26.4-.3 0 .01l-1.12.84a2.45 2.45 0 0 0-.48 3.77c4.87 5.52 9.02 11.68 13.43 17.56a2.45 2.45 0 0 0 3.28.86c5.02-3.28 8.74-8.7 12.12-13.54q2.08-2.96 3.97-6.05a13 13 0 0 0 .96-1.74 8 8 0 0 0-.37-6.13c-.9-2.1-2.6-3.75-4.02-5.5-1.52-1.89-3.01-3.8-4.62-5.6-2.05-2.32-5.43 1.09-3.4 3.4" class="c"/><path d="M157.94 32.7a42 42 0 0 0-8.16-9.58l-7.58-6.73c-9.82-10.95-22.87-13.97-35.73-13.97a58.3 58.3 0 0 0-36.09 11.86 53 53 0 0 0-10.16 10.6c-6.6 6.44-11.86 20.54-11.46 34.52a73 73 0 0 0 2.3 18.76 9 9 0 0 1 2.82-.54 7.4 7.4 0 0 1 5.36 1.96l2.13 1.5a79 79 0 0 1 .93-8.53c.98-5.99 7.2-8.75 9.84-14.1 1.52-3.08 2.43-6.68 5.03-8.87 1.96-1.65 4.57-2.21 7.1-2.48 3.9-.41 17.12.18 21.54 1 3.74.2 7.37.95 12.7 1.63 2.9.37 8.26 1.32 10.31 1.73 8.07 1.85 11.17 3.87 15.22 9.36 1.55 2.1 3.2 5.94 4.74 10.94l5.33 7.82a7.4 7.4 0 0 1 5.36-1.96 9 9 0 0 1 2.63.47 61 61 0 0 0 2.23-18.7c-.52-12.34-2.55-20.34-6.4-26.7" style="fill:#85807f"/><path d="M58.52 23.18c-4.75 4.7-7.7 11.15-9.6 17.47a67 67 0 0 0-2.43 23.2 73 73 0 0 0 2.07 14.24c.76 2.99 5.4 1.72 4.63-1.28a73 73 0 0 1-1.93-22.53 53 53 0 0 1 5.27-19.94 29 29 0 0 1 5.38-7.77c2.2-2.18-1.2-5.58-3.39-3.4Z" class="c"/><path d="M143.9 14.69C135.36 5.27 123.45.9 110.97.15 98.34-.6 85.2 1.42 74.19 7.88a43 43 0 0 0-8.8 6.6 66 66 0 0 0-7.25 9.18 2.4 2.4 0 0 0 .86 3.28 2.45 2.45 0 0 0 3.28-.86 64 64 0 0 1 5.78-7.46 36 36 0 0 1 6.97-5.64 51 51 0 0 1 16.18-6.63 71 71 0 0 1 17.5-1.5 54 54 0 0 1 15.95 2.7 38 38 0 0 1 15.84 10.53c2.08 2.3 5.47-1.1 3.4-3.4Zm20.67 63.4a70 70 0 0 0 2.2-14.8 86 86 0 0 0-.97-14.23c-.98-6.9-3.03-13.76-7.06-19.52a49 49 0 0 0-7.27-8.12c-2.28-2.07-5.69 1.32-3.4 3.4 4.34 3.93 7.96 8.33 10.1 13.66 2.87 7.12 3.7 15.07 3.8 22.68a62 62 0 0 1-2.04 15.66c-.73 3 3.9 4.28 4.63 1.27Zm-58.11-32.3a89 89 0 0 0-11.6-1.05 69 69 0 0 0-10.98 0 15.3 15.3 0 0 0-8.24 3.02c-2.1 1.72-3.28 4.2-4.32 6.66a21 21 0 0 1-3.38 5.95c-1.55 1.77-3.32 3.35-4.8 5.18a15.4 15.4 0 0 0-3.36 7.7c-.44 2.95-.66 5.9-.89 8.86a2.4 2.4 0 0 0 2.4 2.4 2.45 2.45 0 0 0 2.4-2.4c.34-4.27.06-9.4 2.73-13 2.57-3.47 6.17-5.95 8.05-9.97 1.02-2.17 1.74-4.58 3.16-6.55s3.75-2.7 6.08-3.02a57 57 0 0 1 9.85-.09 172 172 0 0 1 9.74.67c.19.02 1.23.15.75.08l1.13.18a2.47 2.47 0 0 0 2.95-1.67 2.4 2.4 0 0 0-1.67-2.96Zm21.73 7.99q2.09.47 4.13 1.1.82.26 1.62.57a9 9 0 0 1 1.1.48 14 14 0 0 1 4.55 3.28 20 20 0 0 1 3.71 5 48 48 0 0 1 3.16 8.2c.91 2.94 5.55 1.68 4.63-1.28a55 55 0 0 0-3.64-9.34 26 26 0 0 0-4.46-5.98c-3.67-3.78-8.5-5.5-13.53-6.66a2.45 2.45 0 0 0-2.95 1.67 2.43 2.43 0 0 0 1.68 2.96m-7.07-5.6c-.74-3.15-3.2-5.83-5.67-7.75a28.6 28.6 0 0 0-14.09-5.53 2.4 2.4 0 0 0-2.4 2.4 2.46 2.46 0 0 0 2.4 2.4 27 27 0 0 1 6.49 1.75l.32.14.75.36q.67.33 1.32.7.61.37 1.2.76l.6.42c.1.07.59.44.18.12a18 18 0 0 1 1.85 1.64q.36.37.7.77l.38.45.05.08a13 13 0 0 1 .97 1.6l.16.34c-.03.04-.2-.61-.06-.12q.13.37.22.74a2.4 2.4 0 0 0 4.63-1.27" class="c"/><path d="M60.95 77.89a10.5 10.5 0 0 0-11.43-1.66 10 10 0 0 0-5.2 7 26.5 26.5 0 0 0 4.05 20.66c2.89 4.19 6.97 7.2 12.25 6.47a2.4 2.4 0 0 0 1.68-2.95 2.47 2.47 0 0 0-2.95-1.68c-3.77.52-6.66-3.6-8.16-6.47a23 23 0 0 1-2.65-8.92 20 20 0 0 1 .29-5.34 12 12 0 0 1 .54-1.92 7 7 0 0 1 .5-.95c.05-.09.5-.71.16-.28a5.4 5.4 0 0 1 7.52-.57c2.29 2.07 5.7-1.31 3.4-3.4Zm94.86 3.39a5.4 5.4 0 0 1 7.52.56c-.34-.43.11.2.17.29a7 7 0 0 1 .49.94 12 12 0 0 1 .54 1.93 20 20 0 0 1 .3 5.34 23 23 0 0 1-2.67 8.92c-1.5 2.87-4.39 6.99-8.15 6.48a2.5 2.5 0 0 0-2.95 1.67 2.4 2.4 0 0 0 1.68 2.95c8.68 1.19 13.78-7.42 15.97-14.6a25 25 0 0 0 .61-11.17 11.2 11.2 0 0 0-4.48-7.8 10.4 10.4 0 0 0-12.43 1.1c-2.3 2.07 1.11 5.46 3.4 3.39" class="c"/><path d="M151.35 103.82a57 57 0 0 1-3.24 9.83c.28-.71-.2.42-.32.67q-.32.68-.68 1.35a60 60 0 0 1-1.89 3.33 59 59 0 0 1-12.76 15.16 23.5 23.5 0 0 1-9.45 4.9c-3.01.7-1.74 5.33 1.27 4.64 7.27-1.68 13.3-7.02 18.03-12.54a64 64 0 0 0 9.9-15l.47-1.11a57 57 0 0 0 1.17-2.84 47 47 0 0 0 2.13-7.1 2.46 2.46 0 0 0-1.68-2.96 2.4 2.4 0 0 0-2.95 1.68Zm-94.1 1.11a59 59 0 0 0 8.44 19.8c4.3 6.43 9.92 12.45 16.74 16.2a33 33 0 0 0 11.18 3.8 2.5 2.5 0 0 0 2.95-1.67 2.4 2.4 0 0 0-1.68-2.95c-14.02-2.07-24.49-14.18-29.85-26.62a56 56 0 0 1-3.16-9.84c-.68-3-5.31-1.73-4.63 1.28Zm43.86 16.29q.52-.28 1.06-.53c.17-.08.24-.25.08-.04-.11.15-.14.05.12-.04l.78-.27a16 16 0 0 1 2.16-.48c-.36.06.04 0 .2-.02q.31-.04.63-.06a23 23 0 0 1 3-.02l.66.04.34.04a14 14 0 0 1 2.13.48q.45.14.88.31c-.56-.2 0 0 .22.13l.53.3c.2.12.8.58.07.01a2.5 2.5 0 0 0 3.4 0 2.4 2.4 0 0 0 0-3.39 15 15 0 0 0-9.38-2.76 19 19 0 0 0-9.3 2.15 2.4 2.4 0 0 0 2.42 4.14Zm5.67-23.5a44 44 0 0 1 1.02 4.7l-.08-.65a3 3 0 0 1 .02.65l.08-.64-.07.3.24-.58-.1.19.38-.49-.15.16.48-.38-.37.2.57-.24a3 3 0 0 1-.63.18l.64-.08a3 3 0 0 1-.59 0l.64.08-.66-.11a2 2 0 0 0-.96-.05 2 2 0 0 0-.9.29 2.4 2.4 0 0 0-.85 3.28 2.3 2.3 0 0 0 1.43 1.1c.5.07 1 .2 1.5.22a5 5 0 0 0 2.23-.53 3.2 3.2 0 0 0 1.78-2.1 5 5 0 0 0-.03-2.29 50 50 0 0 0-1-4.5 2.4 2.4 0 0 0-4.62 1.28M81.8 84.4c-.79 2.55-.27 8.42 4.56 8.92 6.4-.03 6.73-7.13 4.58-10.47-1.76-2.74-6.94-3.87-9.14 1.55m51.38 0c.78 2.55.27 8.42-4.57 8.92-6.39-.03-6.73-7.13-4.58-10.47 1.76-2.74 6.94-3.87 9.15 1.55M78.33 70.38a11 11 0 0 1-1.82 1.77l.49-.38a11 11 0 0 1-2.47 1.45l.57-.24-.76.29a2.5 2.5 0 0 0-1.44 1.1 2.5 2.5 0 0 0-.24 1.85 2.4 2.4 0 0 0 2.95 1.68 13.4 13.4 0 0 0 6.11-4.12 2.6 2.6 0 0 0 .7-1.7 2.4 2.4 0 0 0-.7-1.7 2.4 2.4 0 0 0-1.7-.7 2.4 2.4 0 0 0-1.7.7Z" class="c"/></svg>
