<svg fill="currentColor" viewBox="0 0 64 64" xmlns="http://www.w3.org/2000/svg" style="fill-rule:evenodd;clip-rule:evenodd;stroke-linejoin:round;stroke-miterlimit:2;"><rect id="Icons" x="-832" y="-192" width="1280" height="800" style="fill:none;"/><g id="Icons1"><path id="hammer" d="M-33.349,23.538l25.24,24.346l-6.577,6.577l-23.969,-25.617l5.306,-5.306Zm-7.208,3.403l5.306,-5.305c0,0 -2.695,-2.056 -2.447,-3.34c0.248,-1.285 0.809,-3.1 4.711,-4.711c3.903,-1.611 7.543,-1.757 7.543,-1.757l0.131,-1.758c0,0 -8.969,-1.356 -13.707,0.327c-4.738,1.684 -10.097,8.02 -10.097,8.02c0,0 0.935,3.064 -0.667,4.666c-1.601,1.601 -3.754,-0.245 -3.754,-0.245l-2.456,3.118l6.197,6.197l3.112,-2.461c0,0 -1.472,-2.207 -0.017,-3.528c3.132,-2.842 6.145,0.777 6.145,0.777Z"/><path id="wrench" d="M8.746,13.871c0,0 4.824,4.769 6.088,6.033c1.006,1.006 2.168,0.864 4.143,-1.111c1.495,-1.495 1.903,-3.001 0.936,-3.968c-1.346,-1.346 -6.088,-6.032 -6.088,-6.032c0,0 5.744,-2.738 10.301,1.819c4.05,4.05 2.519,8.822 2.425,8.916c-0.094,0.095 28.089,28.089 28.089,28.089c0,0 2.941,3.215 -0.341,6.497c-2.987,2.987 -6.37,0.213 -6.37,0.213l-28.088,-28.089c0,0 -4.979,1.745 -9.032,-2.309c-4.646,-4.645 -2.063,-10.058 -2.063,-10.058Zm40.402,35.147c0.894,-0.894 2.355,-0.885 3.26,0.021c0.905,0.905 0.915,2.366 0.021,3.26c-0.894,0.894 -2.355,0.884 -3.26,-0.021c-0.906,-0.905 -0.915,-2.366 -0.021,-3.26Z"/></g></svg>
