<svg xmlns="http://www.w3.org/2000/svg" fill="none" viewBox="0 0 40 41"><g clip-path="url(#clip0_9067_87857)"><path stroke="currentColor" stroke-width="1.5" fill="none" d="M9 1.05h17.04l8.21 7.53V36.3c0 1.8-1.46 3.25-3.25 3.25H9a3.25 3.25 0 0 1-3.25-3.25v-32c0-1.8 1.46-3.25 3.25-3.25Z"/><mask id="path-2-inside-1_9067_87857" fill="currentColor"><path d="M25 1.3h8.5v8.5H26a1 1 0 0 1-1-1z"/></mask><path fill="currentColor" d="M25 1.3h8.5zm8.5 9.5H26a2 2 0 0 1-2-2h9.5zm-7.5 0a2 2 0 0 1-2-2V1.3h2zm7.5-9.5v8.5z" mask="url(#path-2-inside-1_9067_87857)"/><rect fill="none" stroke="currentColor" width="26" height="13" x="1" y="20.297" fill="currentColor" rx="2"/><path fill="currentColor" d="m8.37 30.3-1.43-2.15-1.26 2.15H3.74L6 26.73l-2.3-3.45h2l1.4 2.12 1.24-2.12h1.94l-2.23 3.54 2.32 3.48zm10.8-7.02v7.02h-1.7v-4.21l-1.58 4.2h-1.38l-1.58-4.21v4.22h-1.7v-7.02h2.01l1.97 4.86 1.95-4.86zm2.94 5.7h2.24v1.32H20.4v-7.02h1.71z"/></g><defs><clipPath id="clip0_9067_87857"><path fill="currentColor" d="M0 .3h40v40H0z"/></clipPath></defs></svg>
