<svg xmlns="http://www.w3.org/2000/svg" fill="currentColor" viewBox="0 0 32 32"><path d="M27.2 2.74a1 1 0 0 0-.47-.61l-3.46-2A1 1 0 0 0 21.9.5L16 10.72 10.1.5A1 1 0 0 0 8.73.13l-3.46 2a1 1 0 0 0-.47.61 1 1 0 0 0 .1.76l5.49 9.5H7a1 1 0 0 0-1 1v4a1 1 0 0 0 1 1h6v2H7a1 1 0 0 0-1 1v4a1 1 0 0 0 1 1h6v4a1 1 0 0 0 1 1h4a1 1 0 0 0 1-1v-4h6a1 1 0 0 0 1-1v-4a1 1 0 0 0-1-1h-6v-2h6a1 1 0 0 0 1-1v-4a1 1 0 0 0-1-1h-3.39l5.49-9.5a1 1 0 0 0 .1-.76m-20.07.63 1.74-1L15 13h-2.3ZM17 30h-2v-3h2Zm7-5H8v-2h16Zm-7-4h-2v-2h2Zm7-4H8v-2h16Zm-4.7-4H17l6.13-10.63 1.74 1Z"/></svg>
