<svg xmlns="http://www.w3.org/2000/svg" fill="currentColor" preserveAspectRatio="xMidYMid" viewBox="0 -4 32 32"><path d="M30.72 20.58a5.2 5.2 0 0 1-3.5 2.77c-.15.02-3.62.65-11.21.65h-.02c-7.6 0-11.06-.62-11.2-.65a5.2 5.2 0 0 1-3.51-2.77C1.21 20.46 0 17.65 0 12s1.22-8.46 1.27-8.58A5.2 5.2 0 0 1 4.8.65C4.93.62 8.39 0 15.99 0c7.61 0 11.08.63 11.22.65a5.2 5.2 0 0 1 3.51 2.77C30.77 3.54 32 6.35 32 12s-1.23 8.46-1.28 8.58M28.9 4.23a3.3 3.3 0 0 0-2.05-1.61c-.03 0-3.45-.62-10.83-.62-7.4 0-10.83.61-10.86.62A3.3 3.3 0 0 0 3.1 4.23C3.1 4.25 2 6.83 2 12s1.1 7.74 1.1 7.77c.32.7 1.3 1.47 2.05 1.61.03 0 3.47.62 10.84.62h.02c7.38 0 10.8-.61 10.84-.62a3.3 3.3 0 0 0 2.04-1.61c.01-.03 1.1-2.6 1.1-7.77s-1.09-7.74-1.1-7.77M13.54 17.85a1 1 0 0 1-1.01.02A1 1 0 0 1 12 17V7a1 1 0 0 1 1.52-.85l8.02 4.96a1 1 0 0 1 .01 1.7zm.47-9.06v6.4l5.13-3.23z"/></svg>
